<?xml version="1.0" encoding="utf-8"?>
<!-- Generator: Adobe Illustrator 22.0.1, SVG Export Plug-In . SVG Version: 6.00 Build 0)  -->
<svg version="1.1" id="Layer_1" xmlns="http://www.w3.org/2000/svg" xmlns:xlink="http://www.w3.org/1999/xlink" x="0px" y="0px"
	 viewBox="0 0 341.5 363" style="enable-background:new 0 0 341.5 363;" xml:space="preserve">
<style type="text/css">
	.st0{fill:#FFFFFF;}
	.st1{fill:#775A41;}
	.st2{fill:#D75B4D;}
	.st3{fill:#76A075;}
	.st4{fill:none;stroke:#FFFFFF;stroke-width:3.52;stroke-miterlimit:10;}
	.st5{fill:#285E85;}
	.st6{fill:#F3B744;}
</style>
<g id="Layer_2_1_">
	<g id="Layer_2-2">
		<path class="st0" d="M285.3,287.4c0,0,34.2,75.5-108.2,75.6c-120.7,0-133.2-53.5-117.8-74.9c0,0-77.6-36.9-55.3-161.2
			c0,0-14.1-48.3,50.4-69.2c0,0-8.3-55.2,25.4-55.2s67.5,13.1,106.2,0c41-13.9,41.2,35.5,41.2,35.5s23.8-19.4,52.5-11.3
			s21.6,43.6,21.6,43.6s36.4,8.3,40,82.4C344.3,214.9,314.9,266.6,285.3,287.4z"/>
		<path class="st1" d="M71.5,316.7l6.1-11.2l2.8,1.5l-5.8,10.5c-0.2,0.3-0.3,0.7-0.2,1c0.1,0.3,0.4,0.6,0.7,0.8l1.2,0.6l-1.2,2.2
			l-2.4-1.3C71,319.9,70.6,318.5,71.5,316.7z"/>
		<path class="st1" d="M81.3,319c0.8-1.8,2-2.5,3.6-2.3l-2.5-2.1l1.4-3c1.2-0.4,2.5-0.5,3.8-0.4c1.5,0.1,2.9,0.5,4.3,1.1
			c1.8,0.7,3.3,2,4.3,3.7c0.7,1.4,0.6,3.1-0.4,5.1l-4.2,8.9l-2.9-1.4l4.2-9c0.6-0.9,0.7-2,0.3-3c-0.6-1-1.5-1.7-2.6-2.1
			c-0.8-0.4-1.7-0.6-2.6-0.7c-0.8-0.1-1.5-0.1-2.3,0.1l-0.2,0.5l2.7,2.2l-0.9,1.9c-0.6-0.2-1.3-0.1-1.9,0.2c-0.6,0.4-1,0.9-1.2,1.6
			l-2.4,5.2l-2.9-1.3L81.3,319z"/>
		<path class="st1" d="M98.3,331.3c-0.8-1.6-0.9-3.5-0.1-5.2l3.3-9.1l3,1.1l-3.4,9.2c-0.4,1-0.4,2,0,3c1.3,1.8,3.6,2.6,5.7,2.1
			c1-0.5,1.7-1.3,1.9-2.4l0.7-2l-3.6-1.3l0.8-2.3l3.6,1.3l1.8-5l3,1.1l-1.8,5l1.6,0.6l-1,2.2l-1.4-0.5l-0.7,1.9
			c-0.5,1.8-1.8,3.2-3.4,3.9c-1.8,0.6-3.8,0.5-5.6-0.3C101,334.1,99.4,333,98.3,331.3z"/>
		<path class="st1" d="M116.3,337.2c-0.8-1.6-0.9-3.7-0.2-6.3c0.4-2.1,1.4-4.1,2.9-5.7c1.1-1.1,2.8-1.6,4.3-1.1
			c1.2,0.2,2.3,1.1,2.7,2.3c0.6-0.3,1.2-0.6,1.8-0.6c0.7-0.1,1.4-0.1,2.1,0.1c1,0.2,1.9,0.9,2.4,1.8c0.5,1,0.5,2.2,0.1,3.3l-3,11.5
			l-3.1-0.8l2.9-11.1c0.2-0.5,0.2-1.1,0.1-1.7c-0.2-0.4-0.6-0.7-1.1-0.8c-0.4-0.1-0.8-0.1-1.2,0c-0.4,0.1-0.8,0.4-1,0.8l-1.7-0.4
			c-0.1-0.4-0.2-0.8-0.5-1.2c-0.2-0.3-0.6-0.5-0.9-0.6c-0.9-0.3-1.9,0.1-2.3,0.9c-0.8,1.3-1.3,2.6-1.7,4.1c-0.5,1.4-0.5,2.9-0.1,4.3
			c0.5,1,1.4,1.8,2.6,2c0.6,0.2,1.3,0.3,2,0.3l-0.6,2.4c-0.9,0-1.7-0.1-2.6-0.3C118.6,339.9,117.2,338.8,116.3,337.2z"/>
		<path class="st1" d="M136.4,343.8c-0.8-0.2-1.5-0.6-2.2-1l0.4-2.6c0.7,0.4,1.5,0.8,2.2,1.1c0.8,0.3,1.6,0.5,2.4,0.6
			c1,0.2,2.1,0.3,3.1,0.1c0.6-0.1,1.1-0.7,1.2-1.4c0.1-0.4,0-0.8-0.2-1.2c-0.2-0.3-0.5-0.6-0.8-0.9c-0.4-0.2-1-0.6-1.8-1l-1.1-0.6
			c-1.2-0.6-2.3-1.4-3.2-2.4c-0.7-0.8-0.9-1.9-0.7-2.9c0.2-1.3,1-2.4,2.1-3c1.6-0.6,3.3-0.8,4.9-0.4c0.9,0.1,1.7,0.4,2.5,0.6
			c0.7,0.2,1.4,0.5,2.1,0.9l-0.4,2.6c-0.6-0.4-1.3-0.7-2-0.9c-0.7-0.3-1.4-0.4-2.2-0.6c-0.9-0.2-1.9-0.2-2.8-0.1
			c-0.6,0.1-1.1,0.6-1.2,1.3c-0.1,0.4,0,0.8,0.2,1.1c0.3,0.4,0.6,0.7,1,0.9c0.4,0.3,1,0.6,1.9,1.1l0.8,0.4c1.2,0.6,2.4,1.4,3.3,2.5
			c0.6,0.9,0.9,2,0.6,3.1c-0.2,1.3-1,2.5-2.2,3c-1.6,0.6-3.3,0.7-4.9,0.3C138.5,344.3,137.4,344.1,136.4,343.8z"/>
		<path class="st1" d="M151.3,330.1l2.9,0.2v1.7c1.7-1.2,3.7-1.8,5.8-1.6c1.5,0,2.8,0.7,3.8,1.8c0.9,1.2,1.3,2.8,1.1,4.3l-0.8,10.4
			l-3.2-0.2l0.8-10.3c0.2-0.9-0.1-1.8-0.6-2.5c-0.6-0.6-1.5-1-2.4-1c-0.8-0.1-1.7,0.1-2.4,0.3c-0.8,0.3-1.5,0.7-2.1,1.2l-0.9,11.6
			l-3.2-0.3L151.3,330.1z"/>
		<path class="st1" d="M179.9,337c0.1-1-0.3-2.1-1-2.8c-1-0.6-2.1-0.9-3.2-0.8c-0.9,0-1.8,0.2-2.7,0.5c-0.7,0.2-1.4,0.6-2,1.1v0.5
			l3.4,0.8v2.1c-0.6,0.1-1.2,0.5-1.6,1c-0.3,0.6-0.5,1.3-0.4,2v1.9c0,0.4,0.1,0.7,0.3,1c0.3,0.2,0.6,0.3,0.9,0.3h1.6v2.5l-3.2,0.1
			c-0.8,0-1.5-0.2-2.1-0.8c-0.5-0.6-0.8-1.3-0.8-2.1l-0.1-2.8c0-2,0.8-3.2,2.3-3.7l-3.2-0.7l-0.1-3.3c1-0.9,2-1.5,3.2-2
			c1.4-0.6,2.8-0.8,4.3-0.9c1.9-0.2,3.9,0.3,5.5,1.4c1.2,1,1.9,2.6,1.9,4.8l0.3,14.5l-3.2,0.1L179.9,337z"/>
		<path class="st1" d="M190.1,345c-1.5-1.1-2.4-2.8-2.4-4.6l-1.2-9.6l3.1-0.4l1.2,9.8c0,1.1,0.5,2.1,1.4,2.7
			c0.9,0.6,2.1,0.8,3.1,0.5c1.1,0,2.1-0.5,2.9-1.3c0.7-0.9,0.9-2,0.7-3l-0.2-2.1l-3.8,0.5l-0.3-2.4l3.8-0.5l-0.6-5.2l3.2-0.4
			l0.6,5.3l1.7-0.2l0.1,2.5l-1.5,0.2l0.2,2c0.3,1.8-0.1,3.6-1.3,5C197.8,346.2,193.6,346.7,190.1,345L190.1,345z"/>
		<path class="st1" d="M211.9,346.4c1.4-1.1,2.9-1.8,4.6-2.1c0.7-0.2,1.5-0.3,2.3-0.3c0.6,0,1.3,0,1.9,0.2l-2.9-12.6
			c-0.1-1-0.7-1.9-1.5-2.5c-1-0.4-2.2-0.5-3.2-0.1c-0.9,0.2-1.8,0.5-2.6,1c-0.7,0.4-1.3,0.9-1.7,1.5l0.1,0.5l3.6,0.1l0.5,2.1
			c-0.5,0.2-1,0.7-1.2,1.2c-0.1,0.7-0.1,1.4,0.1,2l0.5,2.1c0.5,2.3-0.3,3.8-2.6,4.3l-1.9,0.4l-0.6-2.5l1.1-0.2
			c0.3,0,0.6-0.2,0.8-0.5c0.1-0.3,0.1-0.7,0-1l-0.4-1.9c-0.2-0.8-0.2-1.6-0.1-2.3c0.2-0.7,0.7-1.3,1.3-1.7l-3.3,0l-0.7-3.2
			c0.8-1,1.7-1.9,2.7-2.6c1.2-0.8,2.6-1.4,4.1-1.7c1.8-0.6,3.8-0.4,5.5,0.3c1.5,0.9,2.6,2.5,2.8,4.3l3.5,15.2l-3.1,0.7
			c-1.5-0.4-3-0.4-4.5,0c-0.8,0.2-1.6,0.5-2.3,0.8c-0.7,0.3-1.4,0.8-2,1.3L211.9,346.4z"/>
		<path class="st1" d="M206.4,323.8l9.1-2.6l-0.7-2.4l2.6-0.7l1.3,4.5l-11.8,3.4L206.4,323.8z"/>
		<path class="st1" d="M226.3,336.3l-2-6.5c-0.3-0.9-0.4-1.8-0.2-2.6c0.2-0.9,0.6-1.7,1-2.5c0.2-0.4,0.4-0.9,0.6-1.3
			c0.1-0.3,0.1-0.6,0-0.9c-0.1-0.4-0.4-0.8-0.8-1c-0.5-0.1-1,0-1.5,0.1c-1.1,0.3-2,1-2.8,1.8l-0.7-2.2c0.5-0.5,1.1-1,1.7-1.4
			c0.7-0.4,1.4-0.7,2.1-0.9c1-0.4,2.2-0.4,3.2-0.1c0.9,0.4,1.5,1.2,1.7,2.1c0.2,0.6,0.2,1.2,0.1,1.8c-0.2,0.7-0.4,1.3-0.7,2
			c-0.3,0.7-0.6,1.5-0.8,2.3c-0.1,0.7-0.1,1.4,0.1,2.1l1.7,5.6c0.1,0.4,0.3,0.7,0.6,0.9c0.4,0.1,0.7,0.1,1.1,0l1.3-0.4l0.8,2.4
			l-2.6,0.8C228.2,338.9,226.9,338.2,226.3,336.3z"/>
		<path class="st1" d="M230.9,321.5l3-1.1l1.8,4.7l4.3-1.6c0.8-0.2,1.5-0.8,1.9-1.5c0.3-0.8,0.2-1.6-0.2-2.3l-0.7-1.9l3-1.1l0.7,1.8
			c0.8,2.1,0.6,3.7-0.7,4.8c0.8-0.1,1.6,0.2,2.1,0.7c0.6,0.6,1.1,1.3,1.3,2.1l2.1,5.5l-3,1.1l-2-5.1c-0.2-0.8-0.7-1.6-1.4-2
			c-0.8-0.2-1.7-0.1-2.4,0.3l-4.2,1.6l3,7.9l-3,1.1L230.9,321.5z"/>
		<path class="st1" d="M259,326.7c-1,0.1-2,0-2.9-0.3l0.6,1.6l-2.6,1.3l-7-14.3l2.9-1.4l5.1,10.5c0.8,0.3,1.6,0.4,2.4,0.4
			c0.9,0,1.7-0.2,2.5-0.6c1.5-0.5,2.4-2,1.9-3.6c-0.1-0.3-0.2-0.6-0.4-0.9l-4.5-9.2l2.9-1.4l4.6,9.4c0.8,1.4,1,2.9,0.6,4.5
			c-0.5,1.4-1.5,2.5-2.9,3.1C261.1,326.3,260.1,326.6,259,326.7z"/>
		<path class="st1" d="M253.4,304l2.8-1.5l2.3,4.2l-2.8,1.5L253.4,304z"/>
		<polygon class="st2" points="35.6,160.9 36.3,93.6 61.2,77.2 84.4,94.2 83.7,161.4 		"/>
		<polygon class="st2" points="67.5,161.2 67.8,132.3 92.7,115.9 115.9,132.9 115.4,180.7 		"/>
		
			<rect x="85.1" y="130.2" transform="matrix(1.116988e-02 -0.9999 0.9999 1.116988e-02 -46.059 227.1778)" class="st0" width="13.4" height="13.4"/>
		
			<rect x="53.6" y="91.4" transform="matrix(1.116988e-02 -0.9999 0.9999 1.116988e-02 -38.4858 157.3974)" class="st0" width="13.4" height="13.4"/>
		<path class="st2" d="M63.3,142.5L90.8,123l3.9-2.8h-3.5l26.5,20.1l3.7,2.8c1.5,1.1,3.9,0.2,4.8-1.3c1.1-1.8,0.3-3.7-1.3-4.8
			L98.4,117l-3.7-2.8c-1.1-0.7-2.5-0.7-3.6,0l-27.5,19.5l-3.9,2.8c-1.6,1-2.2,3.1-1.3,4.8C59.5,142.9,61.6,143.5,63.3,142.5z"/>
		<path class="st2" d="M31.3,103.8l27.5-19.5l3.9-2.8h-3.6l26.5,20.1l3.7,2.8c1.5,1.2,3.9,0.2,4.8-1.3c1.1-1.8,0.3-3.7-1.3-4.8
			L66.4,78.3l-3.7-2.8c-1.1-0.7-2.5-0.7-3.6,0L31.6,95l-3.9,2.8c-1.6,1-2.2,3.1-1.3,4.8C27.4,104.1,29.7,104.9,31.3,103.8
			L31.3,103.8z"/>
		<path class="st3" d="M140.3,311.5C222.2,328,302,275,318.5,193.1c7-34.8,1.6-71-15.4-102.2C211.6,124.2,145.3,209.8,140.3,311.5z"
			/>
		<path class="st4" d="M244,196.7c0,0-23.6-18.3-23.8-56.5"/>
		<path class="st0" d="M223.5,211.9c4.3-4.9,8.6-10,12.7-15.1s8.2-10.3,12.2-15.6c8-10.6,15.6-21.4,22.9-32.4
			c7.3-11.1,14-22.5,20.2-34.2c6.1-11.8,11.5-23.9,16-36.4c-3.8,12.8-8.5,25.3-14,37.4c-5.6,12.1-11.7,24-18.3,35.6
			c-6.6,11.6-13.7,23-21.2,34c-3.7,5.6-7.5,11-11.5,16.5c-3.9,5.5-7.9,10.8-12.1,16.1L223.5,211.9z"/>
		<path class="st5" d="M170.2,203.7c-54.5,0.1-107.6-17.9-150.8-51.2c-0.2,3.5-0.4,7.1-0.4,10.7c0.7,83.5,68.9,150.7,152.5,150
			c82.6-0.7,149.3-67.4,150-150c0-3.6-0.2-7.1-0.4-10.7C277.8,185.8,224.8,203.8,170.2,203.7z"/>
		<path class="st6" d="M21,138.8C7.5,221.2,63.4,299,145.8,312.5c8.1,1.3,16.3,2,24.5,2c22.5,0,44.8-5,65.1-14.7
			C202.3,210.8,119.6,146,21,138.8z"/>
		<path class="st0" d="M50.1,167.5c1.3,1,2.5,2.1,3.7,3.2c1.2,1.1,2.2,2.3,3.3,3.5s2,2.4,3,3.7s1.9,2.5,2.8,3.8h-4.1
			c0.9-1.3,1.7-2.6,2.7-3.8s1.9-2.5,2.9-3.7s2.1-2.4,3.2-3.5c1.1-1.2,2.3-2.2,3.6-3.2c-0.4,1.6-0.9,3.1-1.5,4.6
			c-0.6,1.5-1.3,2.9-2,4.3s-1.4,2.8-2.2,4.1s-1.6,2.7-2.5,4l-2,3.1l-2.1-3c-0.9-1.3-1.8-2.6-2.6-4s-1.6-2.7-2.3-4.1
			s-1.4-2.8-2.1-4.3C51.1,170.6,50.6,169,50.1,167.5z"/>
		<path class="st0" d="M60.5,163.1c0.9,1.5,1.6,3.2,2,4.9c0.4,1.6,0.6,3.3,0.6,5c0,1.7-0.1,3.4-0.5,5c-0.3,1.8-1,3.4-1.9,5
			c-0.9-1.5-1.6-3.2-2-4.9c-0.4-1.6-0.6-3.3-0.6-5c0-1.7,0.1-3.4,0.5-5C59,166.3,59.6,164.6,60.5,163.1z"/>
		<path class="st0" d="M102.3,191.8c1.3,1,2.5,2.1,3.7,3.2c1.2,1.1,2.2,2.3,3.3,3.5s2,2.4,3,3.7s1.9,2.5,2.8,3.8H111
			c0.9-1.3,1.7-2.6,2.7-3.8s1.9-2.5,2.9-3.7s2.1-2.4,3.2-3.5c1.1-1.2,2.3-2.2,3.6-3.2c-0.4,1.5-0.9,3.1-1.6,4.6
			c-0.6,1.5-1.3,2.9-2,4.3s-1.4,2.8-2.2,4.1s-1.6,2.7-2.4,4l-2,3.1l-2-3.1c-0.9-1.3-1.8-2.6-2.6-4s-1.6-2.7-2.3-4.1
			s-1.4-2.8-2.1-4.3C103.4,194.8,102.8,193.3,102.3,191.8z"/>
		<path class="st0" d="M112.7,187.4c0.9,1.5,1.6,3.2,2,5c0.8,3.3,0.8,6.7,0.2,9.9c-0.3,1.8-1,3.5-1.9,5c-0.9-1.5-1.6-3.2-2-4.9
			c-0.4-1.6-0.6-3.3-0.6-5c0-1.7,0.1-3.4,0.4-5C111.2,190.6,111.8,188.9,112.7,187.4z"/>
		<path class="st0" d="M68.5,223.5c1.3,1,2.5,2.1,3.7,3.2c1.1,1.1,2.2,2.3,3.3,3.5s2,2.4,3,3.7s1.9,2.5,2.8,3.8h-4.1
			c0.9-1.3,1.7-2.6,2.7-3.8s1.9-2.5,2.9-3.7s2.1-2.4,3.2-3.5c1.1-1.2,2.3-2.2,3.6-3.2c-0.4,1.5-0.9,3.1-1.6,4.6
			c-0.6,1.5-1.3,2.9-2,4.3s-1.4,2.8-2.2,4.1s-1.6,2.7-2.4,4l-2,3.1l-2.1-3.1c-0.9-1.3-1.7-2.6-2.6-4s-1.6-2.7-2.3-4.1
			s-1.4-2.8-2.1-4.3C69.5,226.6,68.9,225.1,68.5,223.5z"/>
		<path class="st0" d="M78.9,219.1c0.9,1.5,1.6,3.2,2,5c0.4,1.6,0.6,3.3,0.6,5c0,1.7-0.1,3.4-0.4,5c-0.3,1.8-1,3.5-1.9,5
			c-0.9-1.5-1.6-3.2-2-4.9c-0.8-3.3-0.8-6.7-0.2-10C77.3,222.4,78,220.7,78.9,219.1z"/>
		<path class="st0" d="M110.5,263.5c1.3,1,2.5,2.1,3.7,3.2c1.1,1.1,2.2,2.3,3.3,3.5s2,2.4,3,3.7s1.9,2.5,2.8,3.8h-4.1
			c0.9-1.3,1.8-2.6,2.7-3.8s1.9-2.5,2.9-3.7s2.1-2.4,3.2-3.5c1.1-1.2,2.3-2.2,3.6-3.2c-0.4,1.5-0.9,3.1-1.6,4.5
			c-0.6,1.5-1.3,2.9-1.9,4.3s-1.4,2.8-2.2,4.1s-1.6,2.7-2.5,4l-2,3.1l-2.1-3c-0.9-1.3-1.8-2.6-2.6-4s-1.6-2.7-2.3-4.1
			s-1.4-2.8-2.1-4.3C111.5,266.5,111,265,110.5,263.5z"/>
		<path class="st0" d="M120.9,259.1c0.9,1.5,1.6,3.2,2,5c0.4,1.6,0.6,3.3,0.6,5c0,1.7-0.1,3.4-0.4,5c-0.3,1.8-1,3.4-1.8,5
			c-0.9-1.5-1.6-3.2-2-5c-0.8-3.3-0.8-6.7-0.2-10C119.4,262.3,120,260.6,120.9,259.1z"/>
		<path class="st0" d="M149.3,225.4c1.3,1,2.5,2.1,3.7,3.2c1.1,1.1,2.2,2.3,3.3,3.5s2,2.4,3,3.7s1.9,2.5,2.8,3.8h-4.1
			c0.9-1.3,1.8-2.6,2.7-3.8s1.9-2.5,2.9-3.7s2.1-2.4,3.2-3.5c1.1-1.1,2.3-2.2,3.6-3.2c-0.4,1.5-0.9,3.1-1.6,4.6
			c-0.6,1.5-1.3,2.9-2,4.3s-1.4,2.8-2.2,4.1s-1.6,2.7-2.5,4l-2,3.1l-2.1-3c-0.9-1.3-1.8-2.6-2.6-4s-1.6-2.7-2.3-4.1
			s-1.4-2.8-2.1-4.3C150.3,228.5,149.7,227,149.3,225.4z"/>
		<path class="st0" d="M159.7,221.1c0.9,1.5,1.6,3.2,2,4.9c0.4,1.6,0.6,3.3,0.6,5c0,1.7-0.1,3.4-0.4,5c-0.3,1.8-1,3.4-1.9,5
			c-0.9-1.5-1.6-3.2-2-4.9c-0.4-1.6-0.6-3.3-0.6-5c0-1.7,0.1-3.4,0.4-5C158.2,224.3,158.8,222.6,159.7,221.1z"/>
		<path class="st0" d="M183.3,271.9c1.3,1,2.5,2.1,3.7,3.2c1.1,1.1,2.2,2.3,3.3,3.5s2,2.4,3,3.7s1.9,2.5,2.8,3.8h-4.1
			c0.9-1.3,1.7-2.6,2.7-3.8s1.9-2.5,2.9-3.7s2.1-2.4,3.2-3.5c1.1-1.2,2.3-2.2,3.6-3.2c-0.4,1.5-0.9,3.1-1.6,4.5
			c-0.6,1.5-1.3,2.9-2,4.3s-1.4,2.8-2.2,4.1s-1.6,2.7-2.4,4l-2,3.1l-2.1-3c-0.9-1.3-1.8-2.6-2.6-4s-1.6-2.7-2.3-4.1
			s-1.4-2.8-2.1-4.3C184.3,274.9,183.7,273.4,183.3,271.9z"/>
		<path class="st0" d="M193.6,267.5c0.9,1.5,1.6,3.2,2,5c0.8,3.3,0.8,6.7,0.2,10c-0.3,1.8-1,3.5-1.9,5c-0.9-1.5-1.6-3.2-2-4.9
			c-0.4-1.6-0.6-3.3-0.6-5c0-1.7,0.1-3.4,0.4-5C192.1,270.7,192.8,269,193.6,267.5z"/>
		<path class="st2" d="M70.2,45.6c0.2-9.4,5.2-12.9,12.7-12.7C86.2,33,89.5,34,91,36l0.1-4.1c0.1-4.1-2-6.4-7.1-6.6
			c-3.4-0.2-6.8,0.9-9.4,3.1l-3.3-4.7c3.7-2.9,8.5-4.2,13.8-4c2.5,0,5,0.5,7.3,1.5c0.9-0.8,1.6-1.9,1.9-3.2l6.6,1.6
			c-0.4,2.2-1.6,4.3-3.4,5.7c1.4,2,2.1,4.4,1.9,6.8l-0.6,21.7l-8.1-0.2C91,42.7,89,38.7,83,38.6c-3-0.1-4.9,0.8-5.2,3.6
			c4.6-0.2,6.6,1.8,6.5,6.1c-0.1,4-1.8,6-7.2,5.9S70,51.2,70.2,45.6z M79.8,48c0-1.7-0.5-2.3-2.4-2.4s-2.5,0.5-2.5,2.2
			s0.6,2.5,2.4,2.5S79.7,49.8,79.8,48z"/>
		<path class="st2" d="M90.6,68.1c-3.8-0.1-5.8-2.1-5.7-5.9s1.6-6.2,7-6s6.8,2.5,6.6,7.2l-0.3,10.1l-7.7-0.2L90.6,68.1z M94,62.5
			c0-1.9-0.5-2.4-2.4-2.5s-2.5,0.5-2.5,2.3s0.5,2.3,2.4,2.4S93.9,64.2,94,62.5z"/>
		<path class="st6" d="M105,43.1l0.1-2.5c0.1-3.1,1.5-6,3.8-8.1c-3.7-0.3-4.9-2.2-4.8-6.1s1.7-6,7.2-5.9s7,1.8,6.9,6.4l-0.1,2.2
			c-0.1,4.1-4.5,4.9-4.6,10.7l-0.1,3.9c-0.1,3.5,0.5,5.8,5.3,6s5.6-2.2,5.7-5.7l0.6-22.2l8.4,0.2l-0.6,21.5
			c-0.2,6.9-3.6,12.1-14.2,11.8C107.5,55,104.8,49.2,105,43.1z M113.5,26.8c0-1.9-0.5-2.4-2.4-2.5s-2.6,0.5-2.6,2.4s0.6,2.3,2.5,2.4
			S113.4,28.5,113.5,26.8L113.5,26.8z"/>
		<path class="st3" d="M144.7,37.9c-3.4,0.6-6-0.8-6.7-4.7s0.4-6.4,5.9-7.3s7.4,0.9,8.2,5.7l2.6,14.3l2.4-11.7l3.2-0.6l6.5,10.2
			l-3.6-20.4l8.2-1.5l5.8,32.2l-8.4,1.5l-8.4-12.6L157,57.8l-8.5,1.5L144.7,37.9z M147.1,31.6c-0.3-1.8-1-2.3-2.9-1.9s-2.3,1-2,2.8
			c0.3,1.8,1,2.2,2.8,1.8S147.4,33.3,147.1,31.6z"/>
		<path class="st5" d="M180.1,43.3l-0.6-3.7c-0.9-4.8,0.4-7.2,5.8-8.2s7.3,0.8,8,4.9s-1.7,5.7-5.1,6.3l0.1,0.8
			c0.4,2.5,2.4,3.5,6.5,2.8s5.9-2.6,5.4-5.2L198,28.4c-0.8-4.3-3.6-5.9-8.9-4.9c-3.3,0.5-6.4,2.3-8.5,4.9l-4.1-3.9
			c3.4-3.6,7.9-6,12.8-6.7c11-2,15.8,2,17,9.1l2.2,12.2c0.8,4.3-1.4,10.6-12.6,12.6C184.4,53.8,181.1,49,180.1,43.3z M189,37.1
			c-0.3-1.8-1-2.3-2.9-1.9s-2.3,1-2,2.8s1,2.2,2.8,1.8S189.2,38.8,189,37.1z"/>
		<path class="st3" d="M112.1,101.5c-3.4,0.7-6.1-0.7-6.8-4.6s0.4-6.4,5.8-7.4s7.5,0.8,8.4,5.6l1.4,7.5l3.4-9.8
			c1.5-4.4,3.3-6.4,7-7.1c3.9-0.7,6.4,1.5,7.2,5.3l5.1,26.7l-8.2,1.6l-4.4-23.1c-0.1-0.7-0.3-0.9-0.8-0.8s-0.7,0.5-1.1,1.7l-6,17.1
			l1.3,7.1l-8.2,1.6L112.1,101.5z M114.4,95.3c-0.3-1.8-1-2.3-2.9-1.9s-2.3,1-2,2.8s1,2.2,2.9,1.8S114.8,97,114.4,95.3z"/>
		<path class="st5" d="M119.3,73.1c2.9-0.6,6.3-0.4,8.4,0.8l-0.8-4.4l7.1-1.3l2.6,13.8L107,87.5C106.2,79.7,111.6,74.6,119.3,73.1z
			 M128.2,79.3c-1.4-1.9-4.7-2.3-8.1-1.6s-6,2.1-6.2,4.3L128.2,79.3z"/>
		<path class="st6" d="M124.9,59l7.1-1.3l1.6,8.3l-7.1,1.3L124.9,59z"/>
		<path class="st2" d="M154.6,90c-4-0.4-6.5-2.8-6-7.4s2.6-7,9-6.3s8,3.4,7.3,9.1l-1.9,16.9l6.6-12.3l3.7,0.4l3.9,13.5l2.7-24
			l9.7,1.1l-4.3,38l-9.9-1.1l-5.2-16.9l-8.6,15.3l-10-1.1L154.6,90z M159.4,83.9c0.2-2.2-0.3-2.9-2.6-3.1s-3,0.3-3.2,2.5
			s0.4,2.7,2.6,3S159.2,85.9,159.4,83.9L159.4,83.9z"/>
		<path class="st3" d="M181.8,63.8l9.7,1.1l-1.3,11.8l-9.7-1.1L181.8,63.8z"/>
		<path class="st6" d="M192.4,107.9l0.5-4.3c0.6-5.7,2.9-8,9.2-7.3s7.9,3.4,7.4,8.1s-3.8,5.8-7.8,5.4l-0.1,1c-0.3,3,1.6,4.7,6.3,5.2
			s7.4-0.9,7.8-4l1.7-14.9c0.6-5-2-7.7-8.4-8.4c-3.9-0.5-7.9,0.4-11.1,2.6l-3.4-5.7c4.5-2.8,10.2-4,16.5-3.3
			c12.9,1.4,17,7.4,16,15.8l-1.6,14.4c-0.6,5-5.1,11.4-18.3,9.9C193.7,121,191.7,114.6,192.4,107.9z M204.4,103.9
			c0.2-2.2-0.3-2.9-2.6-3.1s-2.9,0.3-3.2,2.5c-0.2,2,0.4,2.7,2.6,3S204.1,105.9,204.4,103.9L204.4,103.9z"/>
		<path class="st5" d="M233.6,98.2l-4.8-16.2c-1.8-6,4.7-11.3,3.2-16.1c-0.6-2.1-2-2.8-4.5-2.1s-3.4,2.3-2.7,4.5l0.6,2l-8,2.4
			l-0.6-2.1c-1.7-5.8,2.9-10.4,9.3-12.2c8-2.4,12.3,0,13.8,5.2c1.7,5.8-4.5,11.3-3,16.4l3.3,11.2c3.3-1,6.1,0.1,7.2,3.9
			s0.3,6.4-5,7.9S235,102.9,233.6,98.2z M243.2,96.2c-0.5-1.7-1.2-2-3-1.5s-2.2,1.3-1.8,2.9s1.2,2.2,3.1,1.6S243.8,98,243.2,96.2z"
			/>
		<path class="st3" d="M253.8,76c-3.3,1-6.1-0.1-7.3-3.9s-0.3-6.4,5-7.9s7.5,0,8.9,4.7l4.3,14.6l3.3-10.7c0.2-0.7,0.6-1.4,1.1-2
			c-1.9-0.2-3.4-1.3-4.1-4c-1.2-3.9-0.4-6.4,4.9-8c5-1.5,7.2-0.5,8.5,4c0.8,2.7,0.2,4.5-1.4,5.7c1.6,0.3,2.6,1.5,3.3,3.7l5.1,17.2
			l-8,2.4l-4-13.7c-0.2-0.7-0.4-0.8-0.7-0.8s-0.5,0.5-0.8,1.3L267,94.8l-7,2.1L253.8,76z M255.5,69.6c-0.5-1.8-1.2-2.2-3.1-1.6
			s-2.2,1.2-1.7,3s1.2,2,3,1.5S256,71.2,255.5,69.6z M274,64.1c-0.5-1.8-1.3-2.1-3.1-1.6s-2.2,1.2-1.7,3s1.2,2,3,1.5
			S274.5,65.7,274,64.1z"/>
		<path class="st2" d="M258.5,55c1.6-0.5,2.6-0.9,2.6-2c-3.2,1.3-5.2,0.2-6.1-2.7c-1-3.4,0.4-5.1,4.2-6.3c4-1.2,5.9-0.2,6.9,3.2
			c0.6,1.5,0.6,3.2,0,4.7c3.5-1.5,4-3.8,2.8-7.8l-0.3-1.1l5.9-1.8l0.4,1.2c1.7,5.9-0.5,12-7.5,14l-7.8,2.3L258.5,55z M262.6,48
			c-0.4-1.5-1.1-1.8-2.6-1.3s-1.9,1-1.5,2.5s1,1.8,2.6,1.3S263,49.4,262.6,48z"/>
		<path class="st4" d="M270.5,153.6c0,0-19.1-20-13.9-47.4"/>
		<path class="st4" d="M283.8,131.7c0,0,20.7,0.6,34.8-9.7"/>
	</g>
</g>
</svg>
