<svg xmlns="http://www.w3.org/2000/svg" viewBox="0 0 285.91 79.51"><defs><style>.cls-1{fill:#f5b843;}</style></defs><title>Asset 3</title><g id="Layer_2" data-name="Layer 2"><g id="Layer_3" data-name="Layer 3"><path class="cls-1" d="M7.81,0S270.78.41,281,3.79c8.69,2.87,3.16,9.18,3.16,9.18H233.81s45.63,6.5,49.18,6.89.29,38.06.29,38.06-20.65-1.14-23.31,0,22.72.2,23.61,2.87,5.9,15.5-21.54,17.6S13.3,79.92,5.63,74.18-.27,62.45,1.69,62.45s20.46.26,25.18-1.53S2.09,60.16,1.69,56.59-.76,22.15,5.54,21.39,25.3,20.11,25.3,20.11s-18.49.26-21.64-3.06S3.46-.15,7.81,0Z"/></g></g></svg>