<?xml version="1.0" encoding="utf-8"?>
<!-- Generator: Adobe Illustrator 22.0.1, SVG Export Plug-In . SVG Version: 6.00 Build 0)  -->
<svg version="1.1" id="Layer_1" xmlns="http://www.w3.org/2000/svg" xmlns:xlink="http://www.w3.org/1999/xlink" x="0px" y="0px"
	 viewBox="0 0 299.5 80.8" style="enable-background:new 0 0 299.5 80.8;" xml:space="preserve">
<style type="text/css">
	.st0{fill:#F5B843;}
	.st1{fill:#FFC25F;}
</style>
<g id="Layer_2_1_">
	<g id="Layer_3">
		<path class="st0" d="M4.2,3.9c0,0,1-5,128.2-3.6s163-3.5,164,5c0.7,6.1,0.9,14.2,0,18.1s-18.9,4.5-23.5,5.6s23.9-0.6,24.9,4.5
			s2.3,16-0.2,16.8s-17.8,0.6-20.5,1.5s21.7,0,21.9,2.2s3.4,20.3-7.5,25S14.8,78.7,7.6,75.7S3.6,55.5,3.7,48s7.1-3.7,16.1-4.7
			s-14.8-0.1-16-2.7S-4.3,7.7,4.2,3.9z"/>
		<path class="st1" d="M182,54.1c0,0,66.4-4.6,86.4-3.8s-2.8,8.6-27,10.2S152.7,55.9,182,54.1z"/>
	</g>
</g>
</svg>
