<svg xmlns="http://www.w3.org/2000/svg" viewBox="0 0 277.49 80.31"><defs><style>.cls-1{fill:#f5b843;}.cls-2{fill:#ffc25f;}</style></defs><title>Asset 4</title><g id="Layer_2" data-name="Layer 2"><g id="Layer_3" data-name="Layer 3"><path class="cls-1" d="M11.69,1.87S260.94-.55,270.82.11,276.75,35,276.49,50.8c0,0-38-.77-35.71,2.28s35,.27,35.75,3.84.07,10.2.07,10.2l-29.64.2s30,1.46,30,2.35c-.2,6.18,4.27,7.62-37.89,9.18S97.34,80.32,66.94,80,.47,84,.74,67.46-1.84,22.58,3.48,22.55s16-1.13,20.12-2.69S3.09,21,2.31,18.22-6.15,3.3,11.69,1.87Z"/><path class="cls-2" d="M110.55,23.18s-1.3-2.35,15.16-1.16,48.87-1.08,67.05-2.09,19-4.76-4-3.79-25.55-1.68-15.67-3,44.08.4,62.33-2.31,24.31,1.16,2.12,3.61-37.58,7.94-23,8.53,49.84-.6,56.09,2.31-63.93.92-84.59,1.56S103.61,26,110.55,23.18Z"/></g></g></svg>