<?xml version="1.0" encoding="utf-8"?>
<!-- Generator: Adobe Illustrator 22.0.1, SVG Export Plug-In . SVG Version: 6.00 Build 0)  -->
<svg version="1.1" id="Layer_1" xmlns="http://www.w3.org/2000/svg" xmlns:xlink="http://www.w3.org/1999/xlink" x="0px" y="0px"
	 viewBox="0 0 277.5 80.3" style="enable-background:new 0 0 277.5 80.3;" xml:space="preserve">
<style type="text/css">
	.st0{fill:#F5B843;}
	.st1{fill:#FFC25F;}
</style>
<g id="Layer_2_1_">
	<g id="Layer_3">
		<path class="st0" d="M11.7,1.9c0,0,249.2-2.4,259.1-1.8s5.9,34.9,5.7,50.7c0,0-38-0.8-35.7,2.3s35,0.3,35.8,3.8s0.1,10.2,0.1,10.2
			L247,67.3c0,0,30,1.5,30,2.3c-0.2,6.2,4.3,7.6-37.9,9.2S97.3,80.3,66.9,80S0.5,84,0.7,67.5s-2.6-44.9,2.7-44.9s16-1.1,20.1-2.7
			S3.1,21,2.3,18.2S-6.2,3.3,11.7,1.9z"/>
		<path class="st1" d="M110.6,23.2c0,0-1.3-2.4,15.2-1.2s48.9-1.1,67.1-2.1s19-4.8-4-3.8s-25.6-1.7-15.7-3s44.1,0.4,62.3-2.3
			s24.3,1.2,2.1,3.6s-37.6,7.9-23,8.5s49.8-0.6,56.1,2.3s-63.9,0.9-84.6,1.6S103.6,26,110.6,23.2z"/>
	</g>
</g>
</svg>
