<svg xmlns="http://www.w3.org/2000/svg" viewBox="0 0 274.49 80.39"><defs><style>.cls-1{fill:#f5b843;}.cls-2{fill:#ffc25f;}</style></defs><title>Asset 7</title><g id="Layer_2" data-name="Layer 2"><g id="Layer_3" data-name="Layer 3"><path class="cls-1" d="M6.53,80.38s254-2,264.29-3.78c5.71-1,3.05-9.18,3.05-9.18l-40.51-3.09s35.62-.74,39-1.12.6-40.75.6-40.75-20,1.15-22.54,0,22-.19,22.83-2.87S279,4.1,252.45,2,7.81-2.54,4.42,6.2C2.29,11.68,1.17,17.45,6.8,17.93c1.9.17,13.6-.25,18.17,1.53S1,20.23.61,23.8-1.76,58.23,4.33,59s19.12,1.27,19.12,1.27-14,.56-17,3.87S2.32,80.54,6.53,80.38Z"/><path class="cls-2" d="M24.73,48.12s126.51-8.26,141.53-6.38-64.95,9-82.59,8.63-10.13,8.26,39.05,7.89-1.88,4.88-48.06,2.25-37.92-6-21.4-6.76S69,48.59,51.15,49.29,10.14,49.9,24.73,48.12Z"/></g></g></svg>