<?xml version="1.0" encoding="utf-8"?>
<!-- Generator: Adobe Illustrator 22.0.1, SVG Export Plug-In . SVG Version: 6.00 Build 0)  -->
<svg version="1.1" id="Layer_1" xmlns="http://www.w3.org/2000/svg" xmlns:xlink="http://www.w3.org/1999/xlink" x="0px" y="0px"
	 viewBox="0 0 274.5 80.4" style="enable-background:new 0 0 274.5 80.4;" xml:space="preserve">
<style type="text/css">
	.st0{fill:#F5B843;}
	.st1{fill:#FFC25F;}
</style>
<g id="Layer_2_1_">
	<g id="Layer_3">
		<path class="st0" d="M6.5,80.4c0,0,254-2,264.3-3.8c5.7-1,3-9.2,3-9.2l-40.5-3.1c0,0,35.6-0.7,39-1.1s0.6-40.8,0.6-40.8
			s-20,1.1-22.5,0s22-0.2,22.8-2.9S279,4.1,252.4,2S7.8-2.5,4.4,6.2c-2.1,5.5-3.2,11.3,2.4,11.7c1.9,0.2,13.6-0.2,18.2,1.5
			S1,20.2,0.6,23.8S-1.8,58.2,4.3,59s19.1,1.3,19.1,1.3s-14,0.6-17,3.9S2.3,80.5,6.5,80.4z"/>
		<path class="st1" d="M24.7,48.1c0,0,126.5-8.3,141.5-6.4s-64.9,9-82.6,8.6s-10.1,8.3,39.1,7.9s-1.9,4.9-48.1,2.2s-37.9-6-21.4-6.8
			s15.7-5.2-2.1-4.5S10.1,49.9,24.7,48.1z"/>
	</g>
</g>
</svg>
