<svg xmlns="http://www.w3.org/2000/svg" viewBox="0 0 299.5 80.8"><defs><style>.cls-1{fill:#f5b843;}.cls-2{fill:#ffc25f;}</style></defs><title>Asset 5</title><g id="Layer_2" data-name="Layer 2"><g id="Layer_3" data-name="Layer 3"><path class="cls-1" d="M4.16,3.86s1-5,128.16-3.61,163-3.53,164,5c.72,6.12.93,14.17,0,18.07s-18.94,4.53-23.46,5.6,23.86-.56,24.93,4.48,2.3,16-.19,16.78-17.83.64-20.54,1.45,21.74,0,21.9,2.2,3.41,20.26-7.47,25S14.76,78.73,7.57,75.67,3.59,55.49,3.67,48s7.07-3.72,16.1-4.74-14.84-.09-16-2.71S-4.31,7.68,4.16,3.86Z"/><path class="cls-2" d="M182,54.11s66.42-4.61,86.41-3.79-2.78,8.58-27,10.2S152.73,55.94,182,54.11Z"/></g></g></svg>