<svg xmlns="http://www.w3.org/2000/svg" viewBox="0 0 40.05 950.46"><defs><style>.cls-1{fill:#bf7c40;}.cls-2{fill:#a16c44;}.cls-3{fill:#ebc081;}</style></defs><title>Asset 2</title><g id="Layer_2" data-name="Layer 2"><g id="Layer_3" data-name="Layer 3"><path class="cls-1" d="M34.18,5.27s-4.25,218.2,0,327.38.46,296.24-1,338.57c-2.1,63,13.38,248.53,3.4,267s-39,14.94-35.32-3.56S2.9,811.94.43,713.46,7,324.29,5.84,232,6.84,29.71.43,4.71"/><path class="cls-2" d="M26.07,507.34s10.61,153-5.09,163.4c-13.66,9.07-6.46-164.53-6.46-235.48s-8.08-122.13-1.81-120,6,119.63,5,139.29-5.38,194.69,3.14,198S19.6,456.14,24.68,451.84,24.57,467.12,26.07,507.34Z"/><path class="cls-2" d="M7.31,26.73s-2-10.68-2-12.67c.11-2.77,7.6,9.58,7.32,34.64S9.88,172.41,14.93,174s.48-55.42,5-55.8.78,60.07,3.41,74.33,5.45,69.27.76,73.21,1.05-40.55-4.17-48-2.6,34.16-6,36,.38-29.29-.37-41.68S9.09,167.32,8.72,160.8s-.84-37.76.67-51.27S10.19,45,7.31,26.73Z"/><path class="cls-3" d="M1.89,3.16S8.93-.5,21.32.06s18.3,7,6.48,8.45-27.88,2.81-23.37,0S-3.74,7.1,1.89,3.16Z"/></g></g></svg>