<?xml version="1.0" encoding="utf-8"?>
<!-- Generator: Adobe Illustrator 22.0.1, SVG Export Plug-In . SVG Version: 6.00 Build 0)  -->
<svg version="1.1" id="Layer_1" xmlns="http://www.w3.org/2000/svg" xmlns:xlink="http://www.w3.org/1999/xlink" x="0px" y="0px"
	 viewBox="0 0 40 950.5" style="enable-background:new 0 0 40 950.5;" xml:space="preserve">
<style type="text/css">
	.st0{fill:#BF7C40;}
	.st1{fill:#A16C44;}
	.st2{fill:#EBC081;}
</style>
<g id="Layer_2_1_">
	<g id="Layer_3">
		<path class="st0" d="M34.2,5.3c0,0-4.2,218.2,0,327.4s0.5,296.2-1,338.6c-2.1,63,13.4,248.5,3.4,267s-39,14.9-35.3-3.6
			s1.6-122.7-0.8-221.2S7,324.3,5.8,232S6.8,29.7,0.4,4.7"/>
		<path class="st1" d="M26.1,507.3c0,0,10.6,153-5.1,163.4c-13.7,9.1-6.5-164.5-6.5-235.5s-8.1-122.1-1.8-120s6,119.6,5,139.3
			s-5.4,194.7,3.1,198s-1.2-196.4,3.8-200.7S24.6,467.1,26.1,507.3z"/>
		<path class="st1" d="M7.3,26.7c0,0-2-10.7-2-12.7c0.1-2.8,7.6,9.6,7.3,34.6S9.9,172.4,14.9,174s0.5-55.4,5-55.8s0.8,60.1,3.4,74.3
			s5.5,69.3,0.8,73.2s1-40.6-4.2-48s-2.6,34.2-6,36s0.4-29.3-0.4-41.7s-4.5-44.7-4.8-51.3S7.9,123,9.4,109.5S10.2,45,7.3,26.7z"/>
		<path class="st2" d="M1.9,3.2c0,0,7-3.7,19.4-3.1s18.3,7,6.5,8.4s-27.9,2.8-23.4,0S-3.7,7.1,1.9,3.2z"/>
	</g>
</g>
</svg>
