<svg id="Layer_10" data-name="Layer 10" xmlns="http://www.w3.org/2000/svg" viewBox="0 0 107.74 119.11"><defs><style>.cls-1{fill:#785b42;}.cls-2{fill:#d85b4d;}.cls-3{fill:#fef7df;}.cls-4{fill:#76a075;}.cls-5{fill:none;stroke:#fef7df;stroke-miterlimit:10;stroke-width:2px;}.cls-6{fill:#2a5f86;}.cls-7{fill:#f3b744;}</style></defs><title>0.1(mobile)</title><path class="cls-1" d="M58.42,143.28l2.18-4,1,.54-2.05,3.76a.53.53,0,0,0-.07.37.49.49,0,0,0,.25.27l.43.23-.43.79-.86-.47A1,1,0,0,1,58.42,143.28Z" transform="translate(-39.7 -36.63)"/><path class="cls-1" d="M61.9,144.09a1.19,1.19,0,0,1,1.3-.83l-.91-.73.5-1.06a3.84,3.84,0,0,1,1.34-.14,4.16,4.16,0,0,1,1.52.41,3,3,0,0,1,1.53,1.3,2.11,2.11,0,0,1-.13,1.83l-1.48,3.18-1-.48L66,144.36a1.27,1.27,0,0,0,.13-1.06,1.77,1.77,0,0,0-.93-.75,3.24,3.24,0,0,0-.94-.27,1.93,1.93,0,0,0-.81.05l-.08.17,1,.78L64,144a1,1,0,0,0-.67.06,1.2,1.2,0,0,0-.44.56l-.86,1.84-1-.48Z" transform="translate(-39.7 -36.63)"/><path class="cls-1" d="M68,148.49a2.15,2.15,0,0,1,0-1.85l1.18-3.24,1.06.38L69,147.07a1.33,1.33,0,0,0,0,1.09,2,2,0,0,0,2,.74,1.36,1.36,0,0,0,.69-.84l.25-.7-1.27-.46.3-.82,1.27.47.64-1.78,1.08.39-.65,1.78.58.21-.37.78-.5-.18-.24.66a2.14,2.14,0,0,1-1.23,1.39,2.84,2.84,0,0,1-2-.11A2.78,2.78,0,0,1,68,148.49Z" transform="translate(-39.7 -36.63)"/><path class="cls-1" d="M74.38,150.58a3.13,3.13,0,0,1-.07-2.23,4.32,4.32,0,0,1,1-2,1.55,1.55,0,0,1,1.53-.41,1.27,1.27,0,0,1,1,.82,1.63,1.63,0,0,1,.65-.24,1.83,1.83,0,0,1,.74,0,1.22,1.22,0,0,1,.87.64,1.64,1.64,0,0,1,.05,1.17l-1.07,4.1L78,152.14l1-3.94a1.05,1.05,0,0,0,0-.6c0-.13-.17-.22-.38-.28a.64.64,0,0,0-.41,0,.74.74,0,0,0-.34.28l-.6-.16a1.21,1.21,0,0,0-.17-.42.59.59,0,0,0-.34-.21.74.74,0,0,0-.83.34,4.49,4.49,0,0,0-.59,1.46,2.4,2.4,0,0,0,0,1.52,1.28,1.28,0,0,0,.91.71,2.51,2.51,0,0,0,.72.1l-.22.84a3,3,0,0,1-.92-.11A2.16,2.16,0,0,1,74.38,150.58Z" transform="translate(-39.7 -36.63)"/><path class="cls-1" d="M81.54,152.93a3.59,3.59,0,0,1-.8-.35l.16-.94a4.55,4.55,0,0,0,.8.38,4.81,4.81,0,0,0,.84.23,3.34,3.34,0,0,0,1.1.05.55.55,0,0,0,.41-.48.58.58,0,0,0-.06-.42.72.72,0,0,0-.3-.3,6.24,6.24,0,0,0-.63-.36l-.38-.2a4.11,4.11,0,0,1-1.15-.85,1.17,1.17,0,0,1-.25-1,1.39,1.39,0,0,1,.76-1.08,2.86,2.86,0,0,1,1.75-.13,6,6,0,0,1,.9.23,6,6,0,0,1,.76.3l-.16.93a4.43,4.43,0,0,0-.72-.32,4.94,4.94,0,0,0-.77-.21,2.66,2.66,0,0,0-1,0,.56.56,0,0,0-.35.83,1,1,0,0,0,.34.31c.15.09.37.22.69.39l.28.14a3.6,3.6,0,0,1,1.17.88,1.33,1.33,0,0,1,.21,1.1,1.32,1.32,0,0,1-.8,1.08,3.11,3.11,0,0,1-1.73.1A7.85,7.85,0,0,1,81.54,152.93Z" transform="translate(-39.7 -36.63)"/><path class="cls-1" d="M86.84,148l1,.09,0,.62a3,3,0,0,1,2.06-.56,1.79,1.79,0,0,1,1.34.65,2.08,2.08,0,0,1,.38,1.53l-.3,3.71L90.24,154l.3-3.66a1.21,1.21,0,0,0-.21-.9,1.25,1.25,0,0,0-.86-.35,1.84,1.84,0,0,0-.87.12,2.09,2.09,0,0,0-.74.43l-.34,4.14-1.14-.09Z" transform="translate(-39.7 -36.63)"/><path class="cls-1" d="M97,150.53a1.28,1.28,0,0,0-.35-1,1.77,1.77,0,0,0-1.16-.27,3.33,3.33,0,0,0-1,.17,1.72,1.72,0,0,0-.71.4V150l1.2.28V151a1,1,0,0,0-.57.35,1.12,1.12,0,0,0-.15.69v.68a.49.49,0,0,0,.11.35.46.46,0,0,0,.34.09h.57l0,.9-1.13,0a1,1,0,0,1-.75-.28,1.09,1.09,0,0,1-.28-.76l0-1a1.17,1.17,0,0,1,.8-1.31l-1.13-.26,0-1.18a4,4,0,0,1,1.16-.71,4.18,4.18,0,0,1,1.54-.3,3,3,0,0,1,1.94.5,2.09,2.09,0,0,1,.68,1.71l.1,5.18-1.14,0Z" transform="translate(-39.7 -36.63)"/><path class="cls-1" d="M100.64,153.37a2.14,2.14,0,0,1-.87-1.63l-.42-3.43,1.12-.13.42,3.47a1.34,1.34,0,0,0,.49,1,1.62,1.62,0,0,0,1.12.19,1.58,1.58,0,0,0,1-.46,1.29,1.29,0,0,0,.23-1l-.09-.74-1.34.16-.1-.86,1.34-.16-.23-1.87,1.13-.14.23,1.87.61-.08,0,.88-.53.06.08.7a2.16,2.16,0,0,1-.46,1.79,3.43,3.43,0,0,1-3.8.46Z" transform="translate(-39.7 -36.63)"/><path class="cls-1" d="M108.42,153.85a4.17,4.17,0,0,1,1.65-.76,3.93,3.93,0,0,1,.8-.11,2.24,2.24,0,0,1,.67.08l-1-4.5a1.3,1.3,0,0,0-.54-.91,1.66,1.66,0,0,0-1.13,0,3.18,3.18,0,0,0-.93.37,1.87,1.87,0,0,0-.6.53l0,.18,1.27,0,.16.73a.9.9,0,0,0-.43.44,1.47,1.47,0,0,0,0,.71l.17.73a1.11,1.11,0,0,1-.92,1.52l-.68.16-.2-.88.37-.08c.15,0,.24-.09.28-.17a.5.5,0,0,0,0-.35l-.15-.69a1.7,1.7,0,0,1,0-.83,1,1,0,0,1,.46-.6l-1.19,0-.26-1.14a4.18,4.18,0,0,1,1-.93,4.26,4.26,0,0,1,1.44-.61,2.81,2.81,0,0,1,2,.11,2.09,2.09,0,0,1,1,1.52l1.24,5.4-1.1.25a3.17,3.17,0,0,0-1.59,0,3.65,3.65,0,0,0-.82.29,3.39,3.39,0,0,0-.72.45Z" transform="translate(-39.7 -36.63)"/><path class="cls-1" d="M106.46,145.8l3.25-.92-.24-.84.9-.26.46,1.6-4.2,1.2Z" transform="translate(-39.7 -36.63)"/><path class="cls-1" d="M113.54,150.26l-.72-2.31a1.86,1.86,0,0,1-.06-.95,4,4,0,0,1,.34-.89,2.89,2.89,0,0,0,.2-.46.53.53,0,0,0,0-.33A.47.47,0,0,0,113,145a1,1,0,0,0-.53.06,2.35,2.35,0,0,0-1,.63l-.25-.8a2.44,2.44,0,0,1,.6-.48,3.15,3.15,0,0,1,.75-.34,1.68,1.68,0,0,1,1.15,0,1.08,1.08,0,0,1,.61.74,1.24,1.24,0,0,1,0,.63,3.65,3.65,0,0,1-.26.7,4.3,4.3,0,0,0-.28.8,1.48,1.48,0,0,0,0,.74l.63,2a.58.58,0,0,0,.19.34.56.56,0,0,0,.38,0l.46-.14.27.86-.93.28A1,1,0,0,1,113.54,150.26Z" transform="translate(-39.7 -36.63)"/><path class="cls-1" d="M115.19,145l1.07-.41.64,1.66,1.52-.59a1.16,1.16,0,0,0,.7-.53,1.12,1.12,0,0,0-.06-.83l-.26-.69,1-.4.26.65a1.39,1.39,0,0,1-.26,1.7,1,1,0,0,1,.77.25,1.93,1.93,0,0,1,.47.75l.75,1.94-1.06.41-.7-1.82a1.09,1.09,0,0,0-.51-.69,1.17,1.17,0,0,0-.87.09l-1.49.57,1.08,2.81-1.06.41Z" transform="translate(-39.7 -36.63)"/><path class="cls-1" d="M125.21,146.83a3,3,0,0,1-1-.09l.21.58-.93.45L121,142.69l1-.5,1.82,3.75a2.4,2.4,0,0,0,.85.13,1.93,1.93,0,0,0,.85-.2,1,1,0,0,0,.54-1.59L124.46,141l1-.49,1.62,3.33a2.08,2.08,0,0,1,.21,1.58,1.87,1.87,0,0,1-1,1.11A3,3,0,0,1,125.21,146.83Z" transform="translate(-39.7 -36.63)"/><path class="cls-1" d="M123.2,138.75l1-.54.82,1.51-1,.54Z" transform="translate(-39.7 -36.63)"/><polygon class="cls-2" points="5.91 51.14 6.18 27.16 15.03 21.34 23.31 27.39 23.04 51.34 5.91 51.14"/><polygon class="cls-2" points="17.28 51.27 17.4 40.95 26.25 35.13 34.52 41.19 34.33 58.2 17.28 51.27"/><rect class="cls-3" x="63.25" y="76.83" width="4.79" height="4.79" transform="matrix(1, 0.01, -0.01, 1, -38.81, -37.37)"/><rect class="cls-3" x="52.03" y="63.04" width="4.79" height="4.79" transform="matrix(1, 0.01, -0.01, 1, -38.96, -37.24)"/><path class="cls-2" d="M55.39,81.09l11.19-7.93H65.5l10.76,8.17c1.1.84,2.17-1,1.08-1.85L66.58,71.3a1,1,0,0,0-1.08,0L54.3,79.23c-1.12.79,0,2.66,1.09,1.86Z" transform="translate(-39.7 -36.63)"/><path class="cls-2" d="M44,67.3l11.2-7.93H54.11l10.75,8.17c1.1.84,2.18-1,1.09-1.85L55.19,57.51a1,1,0,0,0-1.08,0l-11.2,7.93c-1.12.79,0,2.66,1.08,1.86Z" transform="translate(-39.7 -36.63)"/><path class="cls-4" d="M82.92,141.42a53.87,53.87,0,0,0,58-78.57A88.37,88.37,0,0,0,82.92,141.42Z" transform="translate(-39.7 -36.63)"/><path class="cls-5" d="M119.86,100.53s-11-11.5-8-27.26" transform="translate(-39.7 -36.63)"/><path class="cls-3" d="M111.88,105.37c3.1-3.4,6.13-7.06,9-10.74s5.67-7.51,8.31-11.41,5.08-7.93,7.37-12.06a108.67,108.67,0,0,0,5.91-12.88,108.44,108.44,0,0,1-4.79,13.43q-2.89,6.53-6.35,12.82T124,96.81c-2.62,4-5.31,7.92-8.27,11.8Z" transform="translate(-39.7 -36.63)"/><path class="cls-6" d="M93.58,103A87.87,87.87,0,0,1,39.86,84.81c-.09,1.26-.15,2.53-.15,3.8a53.87,53.87,0,0,0,107.74,0c0-1.27-.07-2.54-.15-3.8A87.91,87.91,0,0,1,93.58,103Z" transform="translate(-39.7 -36.63)"/><path class="cls-7" d="M40.41,79.92a53.9,53.9,0,0,0,76.34,57.34A88.35,88.35,0,0,0,40.41,79.92Z" transform="translate(-39.7 -36.63)"/><path class="cls-3" d="M50.79,90.12a15.79,15.79,0,0,1,2.55,2.32,25,25,0,0,1,2.08,2.65l-1.66,0a24.61,24.61,0,0,1,2-2.65,15,15,0,0,1,2.48-2.34,15.82,15.82,0,0,1-1.17,3.2,26.6,26.6,0,0,1-1.65,2.89l-.82,1.24-.84-1.23A26.92,26.92,0,0,1,52,93.33,15.86,15.86,0,0,1,50.79,90.12Z" transform="translate(-39.7 -36.63)"/><path class="cls-3" d="M54.48,88.56a5.22,5.22,0,0,1,.81,1.76,7.27,7.27,0,0,1,.06,3.55,5.57,5.57,0,0,1-.75,1.79,5.46,5.46,0,0,1-.82-1.76,7.69,7.69,0,0,1-.24-1.77,7.14,7.14,0,0,1,.19-1.78A5.57,5.57,0,0,1,54.48,88.56Z" transform="translate(-39.7 -36.63)"/><path class="cls-3" d="M69.38,98.77a15.79,15.79,0,0,1,2.55,2.32A25,25,0,0,1,74,103.74l-1.66,0a24.61,24.61,0,0,1,2-2.65,15.35,15.35,0,0,1,2.48-2.34,15.82,15.82,0,0,1-1.17,3.2A26.6,26.6,0,0,1,74,104.86l-.81,1.24-.85-1.23A25.31,25.31,0,0,1,70.64,102,15.32,15.32,0,0,1,69.38,98.77Z" transform="translate(-39.7 -36.63)"/><path class="cls-3" d="M73.08,97.21A5.64,5.64,0,0,1,73.89,99a7.61,7.61,0,0,1,.06,3.55,5.39,5.39,0,0,1-.76,1.79,5.46,5.46,0,0,1-.82-1.76,7.69,7.69,0,0,1-.24-1.77A7.19,7.19,0,0,1,72.32,99,5.39,5.39,0,0,1,73.08,97.21Z" transform="translate(-39.7 -36.63)"/><path class="cls-3" d="M57.34,110.08a15.8,15.8,0,0,1,2.55,2.33A27.73,27.73,0,0,1,62,115.05l-1.66,0a24.3,24.3,0,0,1,2-2.65,15.83,15.83,0,0,1,2.48-2.34,15.06,15.06,0,0,1-1.18,3.2A23.4,23.4,0,0,1,62,116.17l-.82,1.24-.84-1.22a26.28,26.28,0,0,1-1.73-2.89A16,16,0,0,1,57.34,110.08Z" transform="translate(-39.7 -36.63)"/><path class="cls-3" d="M61,108.53a5.24,5.24,0,0,1,.81,1.76,7.2,7.2,0,0,1,.25,1.77,7.11,7.11,0,0,1-.19,1.77,5.3,5.3,0,0,1-.76,1.79,5.24,5.24,0,0,1-.81-1.76,7.43,7.43,0,0,1,0-3.55A5.23,5.23,0,0,1,61,108.53Z" transform="translate(-39.7 -36.63)"/><path class="cls-3" d="M72.3,124.31a16.22,16.22,0,0,1,2.55,2.32,27.86,27.86,0,0,1,2.08,2.65l-1.66,0a23.37,23.37,0,0,1,2-2.65,15,15,0,0,1,2.48-2.34,15.26,15.26,0,0,1-1.18,3.2,25,25,0,0,1-1.64,2.89l-.82,1.24-.84-1.23a25.38,25.38,0,0,1-1.73-2.89A15.86,15.86,0,0,1,72.3,124.31Z" transform="translate(-39.7 -36.63)"/><path class="cls-3" d="M76,122.75a5.43,5.43,0,0,1,.81,1.76,7.27,7.27,0,0,1,.06,3.55,5.39,5.39,0,0,1-.76,1.79,5.43,5.43,0,0,1-.81-1.76,7.43,7.43,0,0,1-.05-3.55A5.36,5.36,0,0,1,76,122.75Z" transform="translate(-39.7 -36.63)"/><path class="cls-3" d="M86.12,110.77a15.3,15.3,0,0,1,2.55,2.32,26.65,26.65,0,0,1,2.08,2.65H89.09a25.64,25.64,0,0,1,2-2.65,15.32,15.32,0,0,1,2.48-2.33A15.73,15.73,0,0,1,92.41,114a24.83,24.83,0,0,1-1.65,2.89l-.82,1.24-.84-1.22A26.28,26.28,0,0,1,87.37,114,15.86,15.86,0,0,1,86.12,110.77Z" transform="translate(-39.7 -36.63)"/><path class="cls-3" d="M89.81,109.21a5.24,5.24,0,0,1,.81,1.76,7.27,7.27,0,0,1,.06,3.55,5.34,5.34,0,0,1-.76,1.78,5.45,5.45,0,0,1-.81-1.76,7.43,7.43,0,0,1,0-3.55A5.31,5.31,0,0,1,89.81,109.21Z" transform="translate(-39.7 -36.63)"/><path class="cls-3" d="M98.22,127.31a16.18,16.18,0,0,1,2.55,2.32,26.65,26.65,0,0,1,2.08,2.65h-1.66a25.55,25.55,0,0,1,2-2.65,15.82,15.82,0,0,1,2.49-2.33,16.07,16.07,0,0,1-1.18,3.2,25.48,25.48,0,0,1-1.64,2.88l-.82,1.24-.84-1.22a24.8,24.8,0,0,1-1.73-2.89A15.29,15.29,0,0,1,98.22,127.31Z" transform="translate(-39.7 -36.63)"/><path class="cls-3" d="M101.91,125.75a5.24,5.24,0,0,1,.81,1.76,7.18,7.18,0,0,1,.24,1.77,6.77,6.77,0,0,1-.18,1.78,5.34,5.34,0,0,1-.76,1.78,5.05,5.05,0,0,1-.81-1.76,6.74,6.74,0,0,1-.24-1.77,7.74,7.74,0,0,1,.18-1.78A5.34,5.34,0,0,1,101.91,125.75Z" transform="translate(-39.7 -36.63)"/><path class="cls-2" d="M57.94,46.71c.09-3.33,1.84-4.58,4.51-4.51a3.73,3.73,0,0,1,2.88,1.09l0-1.45c0-1.48-.71-2.29-2.54-2.34a4.68,4.68,0,0,0-3.34,1.12l-1.16-1.69a7.52,7.52,0,0,1,4.91-1.43,6.83,6.83,0,0,1,2.61.53,2.28,2.28,0,0,0,.7-1.12l2.34.57a3.3,3.3,0,0,1-1.2,2,3.67,3.67,0,0,1,.66,2.42l-.21,7.72-2.89-.08c.11-3.88-.63-5.29-2.76-5.35-1.09,0-1.76.28-1.87,1.27,1.63-.09,2.34.66,2.3,2.18s-.63,2.15-2.57,2.1S57.88,48.7,57.94,46.71Zm3.42.84c0-.61-.18-.82-.86-.84s-.89.18-.91.8.2.88.86.9S61.34,48.22,61.36,47.55Z" transform="translate(-39.7 -36.63)"/><path class="cls-2" d="M65.2,54.72a1.84,1.84,0,0,1-2-2.11c0-1.41.57-2.19,2.49-2.14s2.4.89,2.35,2.58l-.09,3.6-2.76-.08Zm1.2-2c0-.66-.17-.86-.86-.88s-.88.17-.9.83.18.83.86.84S66.39,53.34,66.4,52.72Z" transform="translate(-39.7 -36.63)"/><path class="cls-7" d="M70.32,45.81l0-.9A4,4,0,0,1,71.7,42c-1.32-.12-1.74-.77-1.7-2.18s.61-2.15,2.55-2.1,2.5.65,2.45,2.3l0,.77c0,1.48-1.59,1.77-1.65,3.82l0,1.39c0,1.23.17,2.08,1.91,2.12s2-.78,2-2l.21-7.91,3,.08L80.2,46c-.07,2.47-1.29,4.31-5.06,4.21C71.22,50.05,70.26,48,70.32,45.81Zm3-5.81c0-.66-.18-.86-.86-.88s-.91.17-.93.84.2.82.88.84S73.33,40.62,73.35,40Z" transform="translate(-39.7 -36.63)"/><path class="cls-4" d="M84.47,44a1.87,1.87,0,0,1-2.4-1.66c-.26-1.43.15-2.27,2.08-2.61s2.64.31,2.94,2l.91,5.1.87-4.18L90,42.43l2.32,3.62L91,38.8,94,38.28,96,49.76l-3,.54-3-4.49L88.84,51l-3,.54Zm.88-2.22c-.12-.65-.35-.81-1-.69s-.83.35-.72,1,.34.77,1,.65S85.46,42.35,85.35,41.74Z" transform="translate(-39.7 -36.63)"/><path class="cls-6" d="M97.09,45.9l-.23-1.31c-.31-1.71.15-2.58,2.06-2.92s2.6.3,2.86,1.73-.6,2-1.82,2.26l.06.3c.15.89.87,1.23,2.3,1s2.1-.91,1.93-1.85l-.8-4.49c-.27-1.52-1.27-2.08-3.18-1.74a4.94,4.94,0,0,0-3,1.72l-1.47-1.37a7.68,7.68,0,0,1,4.54-2.4c3.91-.7,5.62.7,6.07,3.24l.78,4.37c.27,1.52-.49,3.78-4.49,4.49S97.46,47.94,97.09,45.9Zm3.15-2.2c-.12-.65-.35-.81-1-.69s-.83.35-.72,1,.34.77,1,.65S100.35,44.31,100.24,43.7Z" transform="translate(-39.7 -36.63)"/><path class="cls-4" d="M72.87,66.64A1.88,1.88,0,0,1,70.43,65c-.27-1.43.13-2.27,2.06-2.63s2.66.28,3,2L76,67l1.21-3.48c.53-1.57,1.18-2.29,2.5-2.54a2.06,2.06,0,0,1,2.56,1.87L84,72.4,81.11,73l-1.56-8.24c0-.24-.1-.31-.27-.28s-.26.18-.4.61l-2.13,6.11.48,2.53-2.93.55Zm.83-2.23c-.12-.65-.35-.81-1-.68s-.83.36-.71,1,.35.77,1,.64S73.82,65,73.7,64.41Z" transform="translate(-39.7 -36.63)"/><path class="cls-6" d="M75.45,56.52a4.77,4.77,0,0,1,3,.29l-.3-1.59,2.54-.47.92,4.89-10.55,2C70.77,58.84,72.67,57,75.45,56.52Zm3.17,2.18c-.51-.69-1.66-.81-2.87-.58s-2.15.75-2.22,1.55Z" transform="translate(-39.7 -36.63)"/><path class="cls-7" d="M77.44,51.5,80,51,80.53,54,78,54.44Z" transform="translate(-39.7 -36.63)"/><path class="cls-2" d="M88,62.53a2.18,2.18,0,0,1-2.14-2.64c.19-1.69.93-2.49,3.21-2.23s2.84,1.22,2.61,3.24l-.67,6,2.35-4.39,1.33.15,1.4,4.81,1-8.54,3.46.39L99,72.86l-3.53-.4-1.84-6-3.07,5.46L87,71.51Zm1.72-2.18c.09-.77-.11-1-.91-1.12s-1,.12-1.13.89.12,1,.91,1.06S89.64,61.06,89.72,60.35Z" transform="translate(-39.7 -36.63)"/><path class="cls-4" d="M97.68,53.19l3.45.38-.47,4.22L97.2,57.4Z" transform="translate(-39.7 -36.63)"/><path class="cls-7" d="M101.48,68.89l.17-1.53c.23-2,1-2.84,3.27-2.59s2.82,1.2,2.63,2.89-1.35,2.08-2.78,1.91l0,.36c-.12,1,.56,1.67,2.25,1.86s2.65-.32,2.78-1.42l.59-5.3c.2-1.79-.72-2.75-3-3a5.8,5.8,0,0,0-4,.93l-1.19-2a9,9,0,0,1,5.88-1.17c4.6.51,6.05,2.64,5.71,5.64l-.58,5.14c-.2,1.79-1.8,4.07-6.51,3.54S101.21,71.3,101.48,68.89Zm4.25-1.41c.09-.77-.12-1-.91-1.11s-1,.11-1.13.88.12,1,.91,1.06S105.65,68.2,105.73,67.48Z" transform="translate(-39.7 -36.63)"/><path class="cls-6" d="M116.15,65.46l-1.7-5.75c-.63-2.14,1.67-4,1.16-5.75-.23-.76-.72-1-1.61-.74a1.19,1.19,0,0,0-1,1.6l.21.72-2.85.84-.22-.74c-.61-2,1-3.69,3.31-4.36,2.83-.84,4.37,0,4.92,1.86.61,2.07-1.59,4-1.06,5.83l1.18,4a1.86,1.86,0,0,1,2.57,1.38c.41,1.39.09,2.27-1.79,2.82S116.65,67.13,116.15,65.46Zm3.43-.71c-.18-.59-.42-.73-1.08-.53s-.79.44-.61,1,.43.77,1.09.57S119.76,65.38,119.58,64.75Z" transform="translate(-39.7 -36.63)"/><path class="cls-4" d="M123.34,57.54a1.89,1.89,0,0,1-2.6-1.37c-.41-1.4-.09-2.27,1.79-2.83s2.67,0,3.17,1.69l1.53,5.18,1.17-3.82a1.67,1.67,0,0,1,.39-.71,1.71,1.71,0,0,1-1.48-1.43c-.42-1.4-.15-2.28,1.73-2.84s2.57-.18,3.05,1.43a1.7,1.7,0,0,1-.51,2c.57.11.94.53,1.17,1.31l1.81,6.11-2.85.85-1.44-4.87c-.07-.23-.14-.3-.27-.26s-.18.17-.27.47l-1.68,5.74-2.52.75Zm.6-2.29c-.18-.64-.43-.77-1.09-.58s-.79.44-.6,1.08.42.72,1.08.53S124.12,55.84,123.94,55.25Zm6.6-2c-.18-.63-.45-.76-1.11-.57s-.79.45-.6,1.08.42.73,1.08.53S130.72,53.89,130.54,53.29Z" transform="translate(-39.7 -36.63)"/><path class="cls-2" d="M125,50.05c.57-.16.92-.31.94-.69a1.43,1.43,0,0,1-2.17-1c-.35-1.2.13-1.83,1.5-2.23s2.09-.09,2.45,1.13a2.32,2.32,0,0,1,0,1.68c1.24-.55,1.42-1.34,1-2.77l-.11-.38,2.11-.63.14.44a3.81,3.81,0,0,1-2.67,5l-2.77.82Zm1.47-2.48c-.15-.53-.39-.62-.92-.46s-.67.36-.52.89.35.63.92.46S126.63,48.08,126.48,47.57Z" transform="translate(-39.7 -36.63)"/><path class="cls-5" d="M129.29,85.18s-6.79-7.12-5-16.87" transform="translate(-39.7 -36.63)"/><path class="cls-5" d="M134,77.39s7.38.21,12.41-3.46" transform="translate(-39.7 -36.63)"/></svg>