<svg id="Layer_8" data-name="Layer 8" xmlns="http://www.w3.org/2000/svg" viewBox="0 0 522.29 107.62"><defs><style>.cls-1{fill:#ebc081;}.cls-2{fill:#eabe80;}.cls-3{fill:#be7c3f;}.cls-4{fill:#a06c44;}.cls-5{fill:#dfdcce;}</style></defs><title>6.10</title><path class="cls-1" d="M20.68,916.74H522.33a0,0,0,0,1,0,0v42.11a0,0,0,0,1,0,0H20.68A20.65,20.65,0,0,1,0,938.2v-.82a20.65,20.65,0,0,1,20.65-20.65Z" transform="translate(522.33 1024.36) rotate(180)"/><rect class="cls-2" x="14.55" y="0.37" width="74.26" height="65.51"/><rect class="cls-3" x="14.55" y="15.4" width="74.26" height="50.48"/><rect class="cls-4" x="14.55" y="5.77" width="74.26" height="0.62"/><circle class="cls-5" cx="495.49" cy="86.55" r="15.26"/><rect class="cls-2" x="135.22" width="74.26" height="65.51"/><rect class="cls-3" x="135.22" y="15.03" width="74.26" height="50.48"/><rect class="cls-4" x="135.22" y="5.4" width="74.26" height="0.62"/><rect class="cls-2" x="256.33" y="0.07" width="74.26" height="65.51"/><rect class="cls-3" x="256.33" y="15.1" width="74.26" height="50.48"/><rect class="cls-4" x="256.33" y="5.47" width="74.26" height="0.62"/><rect class="cls-2" x="377" y="0.08" width="74.26" height="65.51"/><rect class="cls-3" x="377" y="15.11" width="74.26" height="50.48"/><rect class="cls-4" x="377" y="5.48" width="74.26" height="0.62"/></svg>