<svg id="Layer_3" data-name="Layer 3" xmlns="http://www.w3.org/2000/svg" viewBox="0 0 344.07 355.39"><defs><style>.cls-1{fill:#fad1bf;}.cls-2{fill:#f5b843;}.cls-3{fill:#4d4032;}.cls-4{fill:#eaefe1;}.cls-5{fill:#2e583c;}.cls-6{fill:#5e877e;}.cls-7{fill:#c2bfa5;}.cls-8{fill:none;stroke:#231a14;stroke-miterlimit:10;stroke-width:0.99px;}</style></defs><title>6.3</title><path class="cls-1" d="M476.74,1425.65s9.35,3.83,14.45,6.38,34.86-39.53,40-42.93,2.12,4.67,2.12,4.67,6.8-9.77,16.58-7.65-3.4,11.9-8.08,18.7-33.15,41.66-41.65,48.46-11.9,6-45.9-12.33S476.74,1425.65,476.74,1425.65Z" transform="translate(-223.78 -1341)"/><path class="cls-1" d="M308.44,1440.1s-4.68,5.53-8.5,4.68-44.18-44.63-58.66-44.63c-8.92,0,1.28,4.67,1.28,4.67s-17.43-1.7-18.7,6.38c-1.52,9.58,20.82,8.07,25.92,9.35,6.3,1.57,41.66,52.28,56.53,48.88a41.55,41.55,0,0,0,22.95-14.88Z" transform="translate(-223.78 -1341)"/><path class="cls-2" d="M350.09,1489a171.48,171.48,0,0,1-8.5-39.1s-15.3,11.9-20.4,16.15c0,0-14-15.73-14.88-24.65s48-37.83,56.95-29.33,14.45,4.25,14.45,4.25,8.93-5.1,15.31-2.13,19.67-9.26,19.67-9.26,29.63,2,66.18,20.31c0,0-6.38,19.13-5.95,28.06,0,0-37.83-14-48.45-12.33l5.95,46.33-49.31,9.35Z" transform="translate(-223.78 -1341)"/><path class="cls-1" d="M363.26,1408.22s23.8,14,43.36-3.4c0,0-11.05-4.67-10.2-11,0,0,20.82-28.9-1.7-29.32-20-.38-27.21,4.25-27.21,13.17S371.76,1398.87,363.26,1408.22Z" transform="translate(-223.78 -1341)"/><path class="cls-3" d="M374.31,1367s3.83,30.17-9.77,38.25-30.18-11.9-27.63-24.65,11.48-4.68,22.53-12.33S374.31,1367,374.31,1367Z" transform="translate(-223.78 -1341)"/><path class="cls-3" d="M399.39,1363.17s6.8,17.85-3,30.6c0,0,11.05,3.4,13.17-12.75S399.39,1363.17,399.39,1363.17Z" transform="translate(-223.78 -1341)"/><path class="cls-4" d="M342.44,1600.33s-.85,43.36,19.55,43.36,20-30.18,24.22-38.68S342.44,1600.33,342.44,1600.33Z" transform="translate(-223.78 -1341)"/><path class="cls-4" d="M402.79,1626.68s-16.15-14-14.88-21.67,43.78-14.45,46.76-7.65-4.25,25.5-9.78,29.32S402.79,1626.68,402.79,1626.68Z" transform="translate(-223.78 -1341)"/><path class="cls-5" d="M349.66,1370s38.25,7.65,62.91-11a144.74,144.74,0,0,0-14.88-1.7s0-19.55-16.58-15.72-18.27,3.82-17.42,18.27C363.69,1359.77,353.49,1366.15,349.66,1370Z" transform="translate(-223.78 -1341)"/><path class="cls-6" d="M349.24,1511.93s-7.65-73.53,4.67-101.16c0,0,.43-1.27,5.95-1.27,0,0-5.95,54,3.4,59.08s47.18,4.67,54.41-2.55c0,0,1.7-53.13-3.4-61.63a6.77,6.77,0,0,1,7.65,1.27c3.82,3.4,13.6,89.26,9.77,99,0,0,3,0,7.65,18.7s15.73,61.21,13.18,69.28-81.18,34.85-150-3c0,0,22.95-24.23,34-49.73s12.75-28,12.75-28" transform="translate(-223.78 -1341)"/><path class="cls-7" d="M363.26,1408.22s12.33,5.53,22.95,4.25,20.41-7.65,20.41-7.65,4.25-1.7,7.22.85-10.2,25.51-14.45,26.78-13.24-18.89-13.24-18.89-2.06,16.34-10.56,19.32S354.34,1406.52,363.26,1408.22Z" transform="translate(-223.78 -1341)"/><path class="cls-5" d="M347.54,1509s51.08,15.72,85.68-7.86c0,0,1.64,2.19,1.75,8.43,0,0-13.9,13-54.28,12.18S346.26,1512.78,347.54,1509Z" transform="translate(-223.78 -1341)"/><path class="cls-5" d="M400.67,1624.56H427s-10.2,54.4-5.1,60.78,15,12.62-3.4,10.62c-15.73-1.7-17.43,3-19.55-27.62S400.67,1624.56,400.67,1624.56Z" transform="translate(-223.78 -1341)"/><path class="cls-5" d="M357.27,1642.78a46.14,46.14,0,0,0,23.61-17.37s13.81,19.15,13.81,43.65,4.89,22.72-12,26.28-19.6-1.78-1.78-18.71C380.88,1676.63,360.83,1654.36,357.27,1642.78Z" transform="translate(-223.78 -1341)"/><path class="cls-2" d="M309.4,1403.87s5.21-2.52,5.54-10.06c0,0,.24,7.09,5.47,10.06a12.55,12.55,0,0,0-5.48,9.8S314.08,1405.63,309.4,1403.87Z" transform="translate(-223.78 -1341)"/><path class="cls-2" d="M414.27,1356.39s5.22-2.52,5.55-10.06c0,0,.24,7.09,5.46,10.06a12.53,12.53,0,0,0-5.47,9.8S419,1358.15,414.27,1356.39Z" transform="translate(-223.78 -1341)"/><path class="cls-2" d="M517.67,1453.32s5.21-2.52,5.54-10.06c0,0,.24,7.09,5.47,10.06a12.55,12.55,0,0,0-5.48,9.8S522.34,1455.08,517.67,1453.32Z" transform="translate(-223.78 -1341)"/><path class="cls-8" d="M565.21,1688.58v0" transform="translate(-223.78 -1341)"/><path class="cls-8" d="M567.38,1682.11a1.17,1.17,0,0,1,0,.11" transform="translate(-223.78 -1341)"/></svg>