<svg id="Layer_10" data-name="Layer 10" xmlns="http://www.w3.org/2000/svg" viewBox="0 0 214.45 376.24"><defs><style>.cls-1{fill:#fad1bf;}.cls-2{fill:#f5b843;}.cls-3,.cls-5{fill:#c2bfa5;}.cls-4{fill:#eaefe1;}.cls-4,.cls-5{stroke:#2e583c;stroke-miterlimit:10;stroke-width:3px;}.cls-6{fill:#4d4032;}.cls-7{fill:#5e877e;}.cls-8{fill:#2e583c;}</style></defs><title>6.4</title><path class="cls-1" d="M343.78,2395.63s41,54.26,33.24,63.34-39.32,26.22-19.49,29.25,41.64,2,42.33-9.08-13.61-94.8-13.61-94.8S352.56,2365.58,343.78,2395.63Z" transform="translate(-238.99 -2114.76)"/><path class="cls-1" d="M383.47,2395.63s41,54.26,33.23,63.34-39.32,26.22-19.49,29.25,41.65,2,42.34-9.08-13.62-94.8-13.62-94.8S392.25,2365.58,383.47,2395.63Z" transform="translate(-238.99 -2114.76)"/><path class="cls-2" d="M351.54,2293s-28.6,82.51-7.76,102.68c26.9-4,85.08-8.06,84.73,4,13-42.36,0-112.68,0-112.68Z" transform="translate(-238.99 -2114.76)"/><path class="cls-3" d="M360.31,2194.44s-26.34,1.38-51.93,36.28c0,0,13.25,10.29,14.25,16.79s26.66-11.08,26.47-19.08c-2.61,25.51-4.2,34.24-.62,58.56,4.79,32.57,80,0,80,0s1.61-90.22-15.83-96.89S363.59,2192.76,360.31,2194.44Z" transform="translate(-238.99 -2114.76)"/><path class="cls-1" d="M358.51,2127.91s-9.76,23.53,0,37c7.06,8.07,9,6.72,11.38,14.12s-7.86,15.46-7.86,15.46h37.83v-66.56Z" transform="translate(-238.99 -2114.76)"/><ellipse class="cls-4" cx="118.54" cy="30.07" rx="5.99" ry="7.28"/><ellipse class="cls-4" cx="138.03" cy="31.47" rx="6.22" ry="7.56"/><line class="cls-5" x1="124.52" y1="30.51" x2="131.21" y2="31.44"/><path class="cls-6" d="M373.31,2128.39s-9.54,6.1-16.78,6.89-6.35-13.51,14.57-19.78,59.8,28.91,36.49,49.13S392,2137.81,392,2137.81Z" transform="translate(-238.99 -2114.76)"/><polygon class="cls-7" points="160.87 63.24 133.98 79.72 129.96 71.48 120.87 79.72 120.87 90.81 131.81 83.41 138.03 92.83 173.65 75.35 160.87 63.24"/><path class="cls-1" d="M308.38,2230.72s25,14.58,19.6,17.4-30.47,22-39.39,13.09c-7.89-7.91-17-55.69-15.3-66.74,2.47-15.59,14.12,5.55,14.12,5.55s8.24,23.7,12.63,37.32Z" transform="translate(-238.99 -2114.76)"/><path class="cls-1" d="M273.6,2206.39s-3.11-7.91-7.37-11.92c-6.08-5.72-24.71-11.76-10.93-12.77s20.85,6,20.85,6-4.88-6.54-1-8.55S287.41,2200,287.41,2200Z" transform="translate(-238.99 -2114.76)"/><path class="cls-1" d="M343.78,2273.28a92.86,92.86,0,0,0-12.28,6.5c-6.92,4.68-37.7,5.31-25.09-.36a191.5,191.5,0,0,0,20.68-10.79s-7.44,3.32-8.56-.9,19.07-6.8,19.07-6.8Z" transform="translate(-238.99 -2114.76)"/><path class="cls-7" d="M368.67,2199.61l-1.81,10.83s3.62-1.18,3.94-.5,1.5-11.27,1.5-11.27S370.92,2195.34,368.67,2199.61Z" transform="translate(-238.99 -2114.76)"/><path class="cls-1" d="M389.11,2245.91s14.47,6.81,25.69,5.3c2.14,7.39-23,39.08-28.55,42.1s-49.92-19.82-50.26-29.75,44,7.9,44,7.9Z" transform="translate(-238.99 -2114.76)"/><path class="cls-8" d="M363.52,2470.39s29.76,5.24,34.91-7.63c3.47,22,13.9,33.53-40.9,25.46C338.25,2486.76,363.52,2470.39,363.52,2470.39Z" transform="translate(-238.99 -2114.76)"/><path class="cls-8" d="M403.1,2470.22s30,3.86,34.53-9.23c4.48,21.8,15.13,34.23-40,28.7C378.32,2489.12,403.1,2470.22,403.1,2470.22Z" transform="translate(-238.99 -2114.76)"/><path class="cls-7" d="M350.63,2293s25.8,15.7,77.81-6c11.89,9.27-17.15,14.34-17.15,14.34s-43.37,12.56-59.07,2.11C341.56,2298.59,350.63,2293,350.63,2293Z" transform="translate(-238.99 -2114.76)"/><path class="cls-2" d="M332.34,2142.35s5.65-2.72,6-10.89c0,0,.25,7.68,5.92,10.89a13.62,13.62,0,0,0-5.94,10.63S337.4,2144.26,332.34,2142.35Z" transform="translate(-238.99 -2114.76)"/><path class="cls-2" d="M239,2210.58s5.65-2.73,6-10.9c0,0,.26,7.68,5.92,10.9A13.6,13.6,0,0,0,245,2221.2S244.06,2212.49,239,2210.58Z" transform="translate(-238.99 -2114.76)"/><path class="cls-2" d="M441.51,2261.07s5.65-2.73,6-10.9c0,0,.26,7.68,5.93,10.9a13.59,13.59,0,0,0-5.94,10.62S446.58,2263,441.51,2261.07Z" transform="translate(-238.99 -2114.76)"/></svg>