<svg id="Layer_11" data-name="Layer 11" xmlns="http://www.w3.org/2000/svg" viewBox="0 0 252.05 386.56"><defs><style>.cls-1{fill:#f5b843;}.cls-2{fill:#175a39;}.cls-3{fill:#7e5a3f;}.cls-4{fill:#fbd2c0;}.cls-5{fill:#4f3d2f;}.cls-6{fill:#fbd901;}.cls-7{fill:#f9da4a;}.cls-8{fill:#c56428;}.cls-9{fill:#68a270;}.cls-10{fill:#f8b517;}.cls-11{fill:#c2bfa5;}.cls-12{fill:#eaefe1;}</style></defs><title>6.5</title><path class="cls-1" d="M428.2,2854.87s5.78-3,6.14-11.85c0,0,.27,8.35,6.06,11.85a14.89,14.89,0,0,0-6.07,11.55S433.38,2856.94,428.2,2854.87Z" transform="translate(-273.59 -2809.44)"/><path class="cls-1" d="M283.25,2963s5.77-3,6.14-11.85c0,0,.26,8.36,6.05,11.85a14.9,14.9,0,0,0-6.06,11.55S288.43,2965,283.25,2963Z" transform="translate(-273.59 -2809.44)"/><path class="cls-1" d="M463.6,3032.69s5.78-3,6.14-11.85c0,0,.27,8.35,6.06,11.85a14.89,14.89,0,0,0-6.07,11.55S468.78,3034.76,463.6,3032.69Z" transform="translate(-273.59 -2809.44)"/><path class="cls-2" d="M431,3186.91a4.66,4.66,0,0,1-3.74,3.5,10.1,10.1,0,0,1-5.21-.68,32.54,32.54,0,0,1-17.31-13.5c-2.75-4.51-4.3-9.72-5.5-14.95a134,134,0,0,1-2.71-42.46,3.77,3.77,0,0,0,1.7.21,61.7,61.7,0,0,1,25.33-1.34c0,12.85.12,25.93.12,38.79,0,8.32.17,17.26,4.72,24.06C429.71,3182.48,431.43,3184.56,431,3186.91Z" transform="translate(-273.59 -2809.44)"/><path class="cls-2" d="M353.14,3166.83c-1,7.54-3.66,15.12-8.87,20.33-4.36,4.35-10.11,6.72-15.84,8.49a3.78,3.78,0,0,1-2.82.12c-1.34-.64-1.65-2.61-1.15-4.08a18.26,18.26,0,0,1,2.44-3.87c3.45-5.11,3.22-11.93,2.83-18.19q-1.39-22.9-2.77-45.78a32.89,32.89,0,0,1,26-3l.1,0c-.27,7.64-.1,15.53.19,23.19S354.11,3159.29,353.14,3166.83Z" transform="translate(-273.59 -2809.44)"/><path class="cls-3" d="M430.71,3074.27c-.49,15.26-1.74,30.76-7.09,44.91a61.88,61.88,0,0,0-25.35.63,3.66,3.66,0,0,1-1.7-.25,5.73,5.73,0,0,1-2.56-2,13.36,13.36,0,0,1-2-5.12,97.81,97.81,0,0,1-1.84-15.47c-1.28-19.76-2.2-40.6-2.5-60.41a26.85,26.85,0,0,1-8.53.21q-5.79,28.5-11.63,57c-1.08,5.33-2.19,10.72-4.34,15.67s-5.47,9.49-10,12a32.86,32.86,0,0,0-26.11,2.32v0c-3-.93-4.74-4.17-5.53-7.35s-.52-6.5-.24-9.77q1-13,2.09-25.91c2.09-25.93,4.35-52.59,12-77.32,4.28,4.47,13.49,7.41,41.1,6.84.41,0,1.05,0,1.84.07,9.43.26,42.78.35,48.34-5.47a12.54,12.54,0,0,0,1.47-1.88A519.94,519.94,0,0,1,430.71,3074.27Z" transform="translate(-273.59 -2809.44)"/><path class="cls-4" d="M329.88,2844.46a18,18,0,0,1-1.07,3.77,40.08,40.08,0,0,1-2.5,5.19c-.46.84-.94,1.67-1.41,2.51q-14.2,25.35-28.42,50.68,2.64-1.23,5.28-2.49a259.5,259.5,0,0,0-1.82,26.72c-4.91.12-10.1.19-14.81-1.32s-9.18-4.86-10.82-9.78c-2.36-7.11,1.55-14.67,5.3-21,10.85-18.33,21.73-36.75,34.68-53.44,1.34-1.73,2.69-3.46,4.09-5.15.34-.43.71-.86,1.08-1.28a9.83,9.83,0,0,1,4.18-3.06c2.06-.66,4.69.22,5.39,2.32a7.49,7.49,0,0,1,.52,1.16A10.07,10.07,0,0,1,329.88,2844.46Z" transform="translate(-273.59 -2809.44)"/><path class="cls-1" d="M378.48,3013.27c-.8,0-1.44,0-1.84,0-27.59,1.34-36.87-1.33-41.26-5.68a15.73,15.73,0,0,1-3-4.25c-1.92-3.64-2.06-8-2.13-12.23-.41-20-.8-40.63-1.2-60.59-9.67,1.52-19.56,2.35-29.15,3,0-.87,0-1.73,0-2.62a259.5,259.5,0,0,1,1.82-26.72c16.13-7.58,32.2-15.27,48.35-22.83L381,2912.34C383,2948.14,381.48,2977.48,378.48,3013.27Z" transform="translate(-273.59 -2809.44)"/><path class="cls-5" d="M398.69,2855.5a10.26,10.26,0,0,0-2.26-7.5c-1.26-1.58-2.39-3.38-3.8-5.11-3.37,2.68-7.34,3.65-11.4,4.78s-8.27,2.37-11.54,5.19-5.52,7.13-4.07,11.36a16.42,16.42,0,0,1-4.53-6.29c-1.47-3.95-1-8.38-.47-12.61,1.67-.14,3.34-.3,5-.49,11.39-1.32,22.91-2.47,33.77-4.68A33.36,33.36,0,0,1,398.69,2855.5Z" transform="translate(-273.59 -2809.44)"/><path class="cls-6" d="M394.16,2824.87c-23.08,9.72-35.59,5.42-35.59,5.42a42.78,42.78,0,0,0-.46-13.5,2.09,2.09,0,0,1,1.7-2.49l8.73-1.13,6.39-3.73,7,2,7.19-.94a2,2,0,0,1,2.2,1.87C391.64,2815.51,392.42,2821.45,394.16,2824.87Z" transform="translate(-273.59 -2809.44)"/><path class="cls-4" d="M403.18,2876.51c-1.53,9.93-7.51,20.85-15.78,25.71a25.73,25.73,0,0,1-3.35,1.59L363,2882.61a31.32,31.32,0,0,1-1.16-6.65,14.17,14.17,0,0,0,5.26-3.55c1.38-1.68,1.92-4.34.68-6.13-.74-.73-1.47-1.38-2.15-2v0c-1.45-4.23.81-8.53,4.07-11.36s7.45-4.05,11.54-5.19,8-2.1,11.4-4.78c1.41,1.73,2.54,3.53,3.8,5.11a10.26,10.26,0,0,1,2.26,7.5s0,0,0,.06a26.07,26.07,0,0,1-2.5,6,33.64,33.64,0,0,0-2.24,4c-.58,1.42-1.47,3.09-1,4.57.48,2.08.48,2.08,1.35,2.92a7.79,7.79,0,0,0,3.12,1.69C399.33,2875.44,401.25,2876,403.18,2876.51Z" transform="translate(-273.59 -2809.44)"/><path class="cls-7" d="M486.53,2942.79c-.37.16-.72.33-1.09.51a197.64,197.64,0,0,1-21.84,8.49l-1.86.58a137.8,137.8,0,0,0-29-28.58c.79,10.1,1.59,20.44,1.82,30.58l-50.28-50.56a25.6,25.6,0,0,0,3.34-1.59c8.27-4.86,14.26-15.78,15.79-25.71,1.91.5,3.85.91,5.8,1.22,25.35,6.49,33.83,13.18,53.52,31.35C476.83,2922.08,485.33,2933.39,486.53,2942.79Z" transform="translate(-273.59 -2809.44)"/><path class="cls-4" d="M491.7,3023.5A7.66,7.66,0,0,1,490,3026a4,4,0,0,1-4,1,4.66,4.66,0,0,1-2.49-3.25,18.87,18.87,0,0,1-.39-4.33,30.5,30.5,0,0,0-.83-5.33Z" transform="translate(-273.59 -2809.44)"/><path class="cls-8" d="M319.46,2838.83c-.37.42-.74.85-1.08,1.28-1.4,1.69-2.75,3.42-4.09,5.15l-16.42-17.12s-2.88-2.9-.15-6,5.61-.17,5.61-.17Z" transform="translate(-273.59 -2809.44)"/><path class="cls-4" d="M494.6,3006.18c0,2.31-.31,5.64-.56,8l-13.79-13.86c-4.74-13.54-12-35.35-16.65-48.56a197.64,197.64,0,0,0,21.84-8.49,72.75,72.75,0,0,1,4.73,16.92C492.14,2975.32,494.89,2990.93,494.6,3006.18Z" transform="translate(-273.59 -2809.44)"/><path class="cls-7" d="M434.3,2966a155.27,155.27,0,0,1-2.75,25.63c-.87,4.49-1.24,9.23-3.47,12.94a11.84,11.84,0,0,1-1.41,1.92c-5.42,6-38.76,6.82-48.19,6.82,3-35.79,4.55-65.13,2.49-100.93Z" transform="translate(-273.59 -2809.44)"/><path class="cls-6" d="M388.91,2926.94a1.55,1.55,0,0,1-.74,1.16,2.08,2.08,0,0,1-2.05.25,1.66,1.66,0,0,1-.82-1.9,1.63,1.63,0,0,1,1.17-1c.51-.14.36-.08.87,0s.3.06.76.27A1.48,1.48,0,0,1,388.91,2926.94Z" transform="translate(-273.59 -2809.44)"/><path class="cls-6" d="M387.06,3003.93a1.41,1.41,0,0,1-.71,1.14,2,2,0,0,1-2.06.24,1.63,1.63,0,0,1-.82-1.89,1.69,1.69,0,0,1,1.17-1c.51-.13.36-.08.87,0s.3,0,.73.27A1.33,1.33,0,0,1,387.06,3003.93Z" transform="translate(-273.59 -2809.44)"/><path class="cls-6" d="M388.91,2978a1.53,1.53,0,0,1-.74,1.14,2,2,0,0,1-2.05.24,1.63,1.63,0,0,1-.82-1.89,1.58,1.58,0,0,1,1.17-1c.51-.14.36-.08.87,0s.3,0,.76.27A1.49,1.49,0,0,1,388.91,2978Z" transform="translate(-273.59 -2809.44)"/><path class="cls-6" d="M388.91,2952.49a1.56,1.56,0,0,1-.74,1.14,2,2,0,0,1-2.05.24,1.63,1.63,0,0,1-.82-1.89,1.7,1.7,0,0,1,1.17-1c.51-.11.36,0,.87,0s.3.05.76.27A1.49,1.49,0,0,1,388.91,2952.49Z" transform="translate(-273.59 -2809.44)"/><path class="cls-9" d="M363.21,2882.61l-4.26-4.28c1.14-.77,1.7-1.73,3.1-2.37A31.32,31.32,0,0,0,363.21,2882.61Z" transform="translate(-273.59 -2809.44)"/><path class="cls-8" d="M501.56,3032.54,482.07,3014,434.3,2966,381,2912.34l-30.86-31.05-25.21-25.36,1.42-2.51a41.38,41.38,0,0,0,2.49-5.19l29.92,30.1,4.26,4.28,21.06,21.2,50.29,50.56,45.69,46,23.88,22.9Z" transform="translate(-273.59 -2809.44)"/><path class="cls-10" d="M430.76,2826.78a4.41,4.41,0,0,1-2.39,3c-8.61,5.17-18.49,8.26-29,10.4-10.86,2.21-22.38,3.36-33.77,4.68-1.66.19-3.33.35-5,.49a132.27,132.27,0,0,1-30.74-.86,10.07,10.07,0,0,0-.33-5.21,135,135,0,0,0,29-9s12.51,4.3,35.59-5.42a122.94,122.94,0,0,1,31.46-1.88C428,2823.18,431.05,2824.31,430.76,2826.78Z" transform="translate(-273.59 -2809.44)"/><path class="cls-11" d="M497.15,3033.78c-.71-1.46.08-3.21.87-4.62q2.93-5.23,6-10.35c1.42-.66,3.05.41,4,1.73s1.48,2.94,2.59,4.09c1.87,1.95,5.2,2.46,6,5.1.53,1.7-.28,3.51-1.13,5a55.17,55.17,0,0,1-3.39,5.37,6.6,6.6,0,0,1-2,2.06c-3,1.65-5.7-1.33-7.11-3.76S498.31,3036.15,497.15,3033.78Z" transform="translate(-273.59 -2809.44)"/><path class="cls-12" d="M522.67,3032.51a3.94,3.94,0,0,1,1.84.48,3,3,0,0,1,1.11,2.9,8.38,8.38,0,0,1-1.18,3c-6,10.73-14.16,19.82-22.27,28.81l-7.72,8.56a3,3,0,0,1-1.93,1.24,2.9,2.9,0,0,1-1.74-.85l-13.35-10.93a4.17,4.17,0,0,1-1.77-2.41,4.07,4.07,0,0,1,1.25-3c9.31-11.11,24.72-14.77,33.76-26.13,1.42-1.78,3-3.87,5.47-3.25.74.19,1.36.81,2.1,1.05A21.09,21.09,0,0,0,522.67,3032.51Z" transform="translate(-273.59 -2809.44)"/></svg>