<svg id="Layer_6" data-name="Layer 6" xmlns="http://www.w3.org/2000/svg" viewBox="0 0 522.29 182.89"><defs><style>.cls-1{fill:#5e877e;}.cls-2{fill:#eaefe1;}.cls-3{fill:#4d4032;}.cls-4{fill:#598082;}.cls-5{fill:#ddd990;}</style></defs><title>6.7_2</title><path class="cls-1" d="M227.82,92s-3.08,2.46-3.82,12c-.46,6-2.6,26.36,2.58,30.36,3.82,3,20.94,3.59,26.73-.06,4.11-2.59,3-25.18,2.27-31.13-.67-5.75-2.39-11.61-10.76-12.35A63,63,0,0,0,227.82,92Z"/><path class="cls-2" d="M246.79,96s.43-2,2.44-.27c1.76,1.55,4.53,13.49,1.16,14.82-2,.8-1.39-5.61-2.33-9.42C247.37,98.36,246.54,97,246.79,96Z"/><path class="cls-1" d="M288.42,92.34s-3.09,2.46-3.82,12c-.47,6-2.6,26.35,2.58,30.36,3.82,3,20.94,3.59,26.73-.07,4.11-2.58,3-25.17,2.27-31.12-.68-5.76-2.39-11.61-10.77-12.35A62.94,62.94,0,0,0,288.42,92.34Z"/><path class="cls-2" d="M307.38,96.42s.44-2,2.45-.27c1.76,1.55,4.52,13.49,1.15,14.82-2,.8-1.39-5.61-2.32-9.42C308,98.76,307.14,97.41,307.38,96.42Z"/><path class="cls-2" d="M312.55,115.45c-.16,1.25-.84,1.9-1.68,1.8a1.75,1.75,0,0,1-1.37-2.08.29.29,0,0,1,0-.09c.16-1.25,1-2.19,1.79-2.08S312.7,114.2,312.55,115.45Z"/><path class="cls-3" d="M287,94.36a76.55,76.55,0,0,1,25.89,0s2.68-1.78.31-4.9c-3.26-4.29-22.38-3.81-26-.57S287,94.36,287,94.36Z"/><path class="cls-4" d="M125.66,125s-1.43,8.55,4.36,7.64,6,2.51,10.84,2,9.1-7.27,5.67-12.37,5.74-2.28,8.52-8.08-3.64-5.29-3.64-5.29,7-4.19,5-9.56S149.9,96,149.9,96s5.88-4,3.3-8.9-6.15.46-8.27-1.79,2.57-7-1.35-10.23-9.27,4.71-9.27,4.71S136,75.28,129.25,72s-9.21,4.13-8.09,9.69-3.66-2-7.41.79-4.29,7-.13,12.44c0,0-2.52-1.13-5.06,1.91s2.82,5.83,2.82,5.83,4.51,3.1,1,6.57S125.66,125,125.66,125Z"/><path class="cls-4" d="M40.77,106.12s-6.13-9.46,1.1-12c2.22-.79-.8-10.14,5.52-10.79,6.8-.71,7.84,5.33,7.84,5.33s1.82-9,10-7S70,91.25,70,91.25s4.36-5,8.44-1.21c5.1,4.68-1.28,9.53-1.28,9.53s7.48-1.94,8.48,3.25c1.21,6.22-4.39,5.21-4.6,7-.4,3.48,6.91.23,7.79,6.82S85.41,126.05,81,124s-.1,10.5-7.82,11-6.53-4.3-6.85-7.55-1.2,5-6.25,4.75-6.15-4.4-5.16-9.75Z"/><path class="cls-5" d="M139.31,119.29a235,235,0,0,0-22.85,12.6c-10.36,6.68-23.26.61-23-9.63s20.89-19,29-27.78c10.43-11.3,2.52,4.41-7.32,11.71,0,0,6.15.24,24.25-11.72,4.38-2.89-5.68,10.67-17.7,17.62s9.13-2.46,17.58-4.19-4.33,6.94-11.82,9.6S141.19,116,139.31,119.29Z"/><path class="cls-5" d="M70.28,122.29a236.12,236.12,0,0,0-23.91,10.47c-10.92,5.71-23.22-1.51-22-11.69s22.54-17,31.42-25c11.42-10.3,2.1,4.62-8.35,11,0,0,6.1.79,25.21-9.46,4.62-2.48-6.63,10.1-19.23,15.93s9.32-1.61,17.88-2.57-4.94,6.52-12.64,8.49S72.45,119.17,70.28,122.29Z"/><path class="cls-2" d="M249.33,115.06c-.16,1.25-.84,1.9-1.68,1.8a1.75,1.75,0,0,1-1.37-2.08.29.29,0,0,1,0-.09c.15-1.25.95-2.18,1.79-2.08S249.48,113.81,249.33,115.06Z"/><path class="cls-3" d="M226.06,94A76.55,76.55,0,0,1,252,94s2.68-1.78.31-4.9c-3.26-4.29-22.38-3.81-26-.57S226.06,94,226.06,94Z"/></svg>