<svg id="Layer_6" data-name="Layer 6" xmlns="http://www.w3.org/2000/svg" viewBox="0 0 522.29 182.89"><defs><style>.cls-1{fill:#eaefe1;}.cls-2{fill:#c2bfa5;}.cls-3{fill:#dfdcce;}.cls-4{fill:#4d4032;}</style></defs><title>6.7_2</title><path class="cls-1" d="M312.55,115.45c-.16,1.25-.84,1.9-1.68,1.8a1.75,1.75,0,0,1-1.37-2.08.29.29,0,0,1,0-.09c.16-1.25,1-2.19,1.79-2.08S312.7,114.2,312.55,115.45Z"/><path class="cls-2" d="M23.61,134.74H522.29V182.9H23.61A23.61,23.61,0,0,1,0,159.29H0v-.94a23.61,23.61,0,0,1,23.61-23.61Z"/><path class="cls-2" d="M152.39,0h40.48A22.11,22.11,0,0,1,215,22.09V134.74H130.3V22.11A22.11,22.11,0,0,1,152.39,0Z"/><path class="cls-1" d="M249.33,115.06c-.16,1.25-.84,1.9-1.68,1.8a1.75,1.75,0,0,1-1.37-2.08.29.29,0,0,1,0-.09c.15-1.25.95-2.18,1.79-2.08S249.48,113.81,249.33,115.06Z"/><circle class="cls-3" cx="27.09" cy="158.87" r="16.89"/><path class="cls-4" d="M198.39,11.76h.32a8,8,0,0,1,8,8v114.6H190.34V19.81a8,8,0,0,1,8-8Z"/></svg>