<svg id="Layer_6" data-name="Layer 6" xmlns="http://www.w3.org/2000/svg" viewBox="0 0 522.29 182.89"><defs><style>.cls-1{fill:#5e877e;}.cls-2{fill:#eaefe1;}.cls-3{fill:#4d4032;}.cls-4{fill:#c2bfa5;}.cls-5{fill:#598082;}.cls-6{fill:#ddd990;}.cls-7{fill:#dfdcce;}</style></defs><title>6.7</title><path class="cls-1" d="M455.94,1009.19s-3.08,2.46-3.82,11.95c-.46,6-2.6,26.36,2.58,30.36,3.82,3,20.94,3.59,26.73-.06,4.11-2.59,3-25.18,2.27-31.13-.67-5.75-2.39-11.61-10.76-12.35A62.81,62.81,0,0,0,455.94,1009.19Z" transform="translate(-228.12 -917.24)"/><path class="cls-2" d="M474.91,1013.27s.43-2,2.44-.27c1.76,1.55,4.53,13.49,1.16,14.82-2,.8-1.39-5.61-2.33-9.42C475.49,1015.6,474.66,1014.26,474.91,1013.27Z" transform="translate(-228.12 -917.24)"/><path class="cls-1" d="M516.54,1009.58s-3.09,2.46-3.82,11.95c-.47,6-2.6,26.35,2.58,30.36,3.82,3,20.94,3.59,26.73-.07,4.11-2.58,3-25.17,2.27-31.12-.68-5.76-2.39-11.61-10.77-12.35A62.77,62.77,0,0,0,516.54,1009.58Z" transform="translate(-228.12 -917.24)"/><path class="cls-2" d="M535.5,1013.66s.44-2,2.45-.27c1.76,1.55,4.52,13.49,1.15,14.82-2,.8-1.39-5.61-2.32-9.42C536.08,1016,535.26,1014.65,535.5,1013.66Z" transform="translate(-228.12 -917.24)"/><path class="cls-2" d="M540.67,1032.69c-.16,1.25-.84,1.9-1.68,1.8a1.76,1.76,0,0,1-1.35-2.17c.16-1.25,1-2.19,1.79-2.08S540.82,1031.44,540.67,1032.69Z" transform="translate(-228.12 -917.24)"/><path class="cls-3" d="M515.1,1011.6a76.34,76.34,0,0,1,25.89,0s2.68-1.78.31-4.9c-3.26-4.29-22.38-3.81-26-.57S515.1,1011.6,515.1,1011.6Z" transform="translate(-228.12 -917.24)"/><path class="cls-4" d="M23.61,134.74H522.29a0,0,0,0,1,0,0v48.16a0,0,0,0,1,0,0H23.61A23.61,23.61,0,0,1,0,159.28v-.94a23.61,23.61,0,0,1,23.61-23.61Z"/><path class="cls-5" d="M353.78,1042.24s-1.43,8.55,4.36,7.64,6,2.51,10.84,2,9.1-7.27,5.67-12.37,5.74-2.28,8.52-8.08-3.64-5.29-3.64-5.29,7-4.19,5-9.56-6.51-3.36-6.51-3.36,5.88-4,3.3-8.9-6.15.46-8.27-1.79,2.57-7-1.35-10.23-9.27,4.71-9.27,4.71,1.69-4.49-5.06-7.74-9.21,4.13-8.09,9.69-3.66-2-7.41.79-4.29,7-.13,12.44c0,0-2.52-1.13-5.06,1.91s2.82,5.83,2.82,5.83,4.51,3.1,1,6.57S353.78,1042.24,353.78,1042.24Z" transform="translate(-228.12 -917.24)"/><path class="cls-5" d="M268.89,1023.36s-6.13-9.46,1.1-12c2.22-.79-.8-10.14,5.52-10.79,6.8-.71,7.84,5.33,7.84,5.33s1.82-9,10-7,4.81,9.59,4.81,9.59,4.36-5,8.44-1.21c5.1,4.68-1.28,9.53-1.28,9.53s7.48-1.94,8.48,3.25c1.21,6.22-4.39,5.21-4.6,7-.4,3.48,6.91.23,7.79,6.82s-3.46,9.41-7.85,7.4-.1,10.5-7.82,11-6.53-4.3-6.85-7.55-1.2,5-6.25,4.75-6.15-4.4-5.16-9.75Z" transform="translate(-228.12 -917.24)"/><path class="cls-6" d="M367.43,1036.53a234.68,234.68,0,0,0-22.85,12.6c-10.36,6.68-23.26.61-23-9.63s20.89-19,29-27.78c10.43-11.3,2.52,4.41-7.32,11.71,0,0,6.15.24,24.25-11.72,4.38-2.89-5.68,10.67-17.7,17.62s9.13-2.46,17.58-4.19-4.33,6.94-11.82,9.6S369.31,1033.23,367.43,1036.53Z" transform="translate(-228.12 -917.24)"/><path class="cls-6" d="M298.4,1039.53A236.32,236.32,0,0,0,274.49,1050c-10.92,5.71-23.22-1.51-22-11.69s22.54-17,31.42-25c11.42-10.3,2.1,4.62-8.35,11,0,0,6.1.79,25.21-9.46,4.62-2.48-6.63,10.1-19.23,15.93s9.32-1.61,17.88-2.57-4.94,6.52-12.64,8.49S300.57,1036.41,298.4,1039.53Z" transform="translate(-228.12 -917.24)"/><path class="cls-4" d="M152.39,0h40.48A22.11,22.11,0,0,1,215,22.11V134.74a0,0,0,0,1,0,0h-84.7a0,0,0,0,1,0,0V22.11A22.11,22.11,0,0,1,152.39,0Z"/><path class="cls-2" d="M477.45,1032.3c-.16,1.25-.84,1.9-1.68,1.8a1.76,1.76,0,0,1-1.35-2.17c.15-1.25.95-2.18,1.79-2.08S477.6,1031.05,477.45,1032.3Z" transform="translate(-228.12 -917.24)"/><circle class="cls-7" cx="27.09" cy="158.87" r="16.89"/><path class="cls-3" d="M454.18,1011.21a76.34,76.34,0,0,1,25.89,0s2.68-1.78.31-4.9c-3.26-4.29-22.38-3.81-26-.57S454.18,1011.21,454.18,1011.21Z" transform="translate(-228.12 -917.24)"/><path class="cls-3" d="M198.39,11.76h.32a8,8,0,0,1,8,8V134.36a0,0,0,0,1,0,0H190.34a0,0,0,0,1,0,0V19.81a8,8,0,0,1,8-8Z"/></svg>