<svg id="Layer_7" data-name="Layer 7" xmlns="http://www.w3.org/2000/svg" viewBox="0 0 176.54 216.17"><defs><style>.cls-1{fill:#f8b517;}.cls-2{fill:#275e85;}.cls-3{fill:#fbd2c0;}.cls-4{fill:#4d4032;}.cls-5{fill:#b96733;}.cls-6{fill:#5e877e;}.cls-7{fill:#eaefe1;}.cls-8{fill:#f9da4a;}.cls-9{fill:#24302e;}</style></defs><title>6.8</title><path class="cls-1" d="M596.81,1010s-12.19,20.59-24.11,22.22-29.53-14.91-23-46.6,48.5-73.15,70.44-72.34S655,905.85,655,905.85s21.88,7.32,29.73,12.6,43.49,27.23,39.83,69.08-6.91,70.74-46.73,65.85-55.16-30.09-55.16-30.09S610.49,1004.87,596.81,1010Z" transform="translate(-548.27 -841.28)"/><path class="cls-2" d="M588.82,1051.33s-2.05-28.07,3.65-34.91,6-10.72,7.65-18.71-8.2-17.83-8.2-17.83l.92-56c2.17-2.71,9-4.52,9-4.52s-.54,28.9,4.42,29.71c8.24,1.35,57.71,4.79,68.55,1,0,0,1.44-29.26,5.69-34.77,0,0,7.13,1,8.76,5.33,0,0-3.56,68-1.93,91.86,0,0-9.33,4.57-25.8,4.31s-6.23,31.16-6.23,31.16,16.58,5.15,29.59,6C684.92,1053.92,635.77,1063.37,588.82,1051.33Z" transform="translate(-548.27 -841.28)"/><path class="cls-3" d="M617.9,912.34s1-8.73-3.09-12.78-14.23-3.1-10.86-19,22.61-18.77,35.12-10.59,12.51,36.09,12.51,36.09S641,923.41,617.9,912.34Z" transform="translate(-548.27 -841.28)"/><path class="cls-4" d="M616.94,870s-14.24,7.64-11.07,14.92c2.9,6.65,10,15.94,10,15.94s-3.75,2.82-14.82,3.78-11.55-6.73-4.33-15.87-1.92-18.77,2.41-25.5,45.7-11.55,55.32,0,28.87,25-3.85,33.19C650.61,896.46,641.47,871.45,616.94,870Z" transform="translate(-548.27 -841.28)"/><path class="cls-5" d="M596.73,870s43.3-2.88,53.88-7.69c0,0,5.3,6.73,11.07,5.77s-1-8.66-8.66-8.66c0,0,9.14,0,9.62-5.77S651.1,857,651.1,857s-7.41-21.1-36.09-14.43C594.33,847.39,596.73,870,596.73,870Z" transform="translate(-548.27 -841.28)"/><path class="cls-6" d="M604.75,976.1s-1.06,6.44-1.18,9.51,2.54,27.8,8.83,31.06,24.66-.86,28.42-5.59-5-27.77-6.55-32.06-6.61-7.64-7-8.51S604.75,976.1,604.75,976.1Z" transform="translate(-548.27 -841.28)"/><path class="cls-4" d="M604.63,977.17s9.17-6.09,24.7-4.89c0,0,2.47-2.52-.67-4.86-5.06-3.78-22.49-.81-26.13,4.27S604.63,977.17,604.63,977.17Z" transform="translate(-548.27 -841.28)"/><path class="cls-7" d="M655.33,1048s7.86-18.15,6.23-31.16c0,0-16-2.44-17.34-6s-.79-16.94-5.94-20.19c0,0,1.07,16.4-4.35,16.67s-21.13-16-23.84-12.73,1.62,6.77,1.62,6.77-9.66-6.77-8.15,1.9c0,0-4.67.27-.29,7,0,0-3.3,1.36,2.75,10.3C611.74,1029,639.89,1048.22,655.33,1048Z" transform="translate(-548.27 -841.28)"/><path class="cls-7" d="M598.85,992.9s-9-13.49-20.6-18.78c0,0,6.37-18.42,19.28-26.41,15.18-9.4,36.13,14.49,32.15,18.87-3.1,3.43-6.18-3.16-12.1-6.77,0,0,5.6,3.07,4.7,7.22s-9.39-1.32-9.39-1.32,4.15,3.85-.91,4.94-5.6-2.71-9.57-3.8c0,0,3.21,2,3.48,4.59S602,973,602,973s-1.84,3.3,2.67,4.18a52.49,52.49,0,0,0-.75,13.75S601.28,996.23,598.85,992.9Z" transform="translate(-548.27 -841.28)"/><path class="cls-8" d="M615.84,912.34s1,13.7,5.95,14.6S633.38,917,633.38,917s11.5,12.11,17.92,11.38,6.83-22.74,3.38-23.66-11.6,13.55-21.87,10.57S615.08,907,615.84,912.34Z" transform="translate(-548.27 -841.28)"/><path class="cls-4" d="M578.25,974.12s-12.17,15.42-17.23,27.16C561,1001.28,562.08,985.44,578.25,974.12Z" transform="translate(-548.27 -841.28)"/><path class="cls-7" d="M624.55,975.22s-.08-2.08,2.3-.85c2.09,1.07,7.68,12,4.74,14.08-1.76,1.27-2.72-5.1-4.56-8.57C625.68,977.33,624.55,976.24,624.55,975.22Z" transform="translate(-548.27 -841.28)"/><path class="cls-9" d="M624.77,973.28" transform="translate(-548.27 -841.28)"/><path class="cls-7" d="M634.18,992.19c.15,1.25-.35,2-1.19,2.16s-1.68-.53-1.84-1.78.4-2.35,1.23-2.46S634,990.94,634.18,992.19Z" transform="translate(-548.27 -841.28)"/></svg>