<svg id="Layer_5" data-name="Layer 5" xmlns="http://www.w3.org/2000/svg" viewBox="0 0 208.15 247.62"><defs><style>.cls-1{fill:#598082;}.cls-2{fill:#ddd990;}.cls-3{fill:#be7c3f;}.cls-4{fill:#fbd2c0;}.cls-5{fill:#d75b4d;}.cls-6{fill:#4d4032;}.cls-7{fill:#f8b517;}</style></defs><title>6.9</title><path class="cls-1" d="M209.9,1039.32s2.37,6.06,6.68,2,6.84-.22,10.61-3.37,4.57-10.68-1.39-12.85,3.45-5.16,2.28-11.48-6.24-2.2-6.24-2.2,3.32-7.44-1.62-10.63-7.49,1-7.49,1,2.5-6.67-2.61-9.14-4.89,3.92-8,3.31-2-7.14-7.31-7.53-4.93,9.19-4.93,9.19-1.3-4.63-8.93-3.37-5.24,8.67-.94,12.55-4.31.46-5.74,4.92.62,8.18,7.4,10.19c0,0-2.8.54-3.1,4.47s5.89,3.12,5.89,3.12,5.65-.09,4.82,4.75S209.9,1039.32,209.9,1039.32Z" transform="translate(-22 -870.34)"/><path class="cls-2" d="M217.31,1027.31a242.5,242.5,0,0,0-11.65,24.34c-4.7,11.85-19.2,14.51-25.13,5.72s6.15-28.54,7.69-40.81c2-15.78,4.77,2.2.89,14.25,0,0,5.31-3.5,13.35-24.45,1.94-5.06,1.63,12.4-4.29,25.48s6.2-7.56,12.26-14.1.54,8.44-4.16,15.18S216.9,1023.4,217.31,1027.31Z" transform="translate(-22 -870.34)"/><path class="cls-3" d="M162.25,1018.73s1.64-2.81,8.68,3.52,7.51,4.93,12.09,5.52,6.92-.62,10.91,7.2,3.4,13.1-2.11,10.52-4-8.59-8.67-8.94c0,0-1.59,6-2.72,10.35-1.7,6.61-29.45-12.56-29.45-12.56S162.6,1025.54,162.25,1018.73Z" transform="translate(-22 -870.34)"/><path class="cls-4" d="M135.83,994.44S130,977.9,118.05,983.53s-9.85,13-8.8,29.57-2.82,20.42,18.31,32.74,52.29,27.34,59.33,21.48,3.52-18.08-12.67-23.71-39.72-21.36-39.72-21.36S139.7,1008.41,135.83,994.44Z" transform="translate(-22 -870.34)"/><path class="cls-4" d="M139,994.32s-2.58,6.11,8.92,12.21,17.69,13.31,17.84,20.18c.08,3.84.23,11.74-19.72,5.17S124.46,994.09,139,994.32Z" transform="translate(-22 -870.34)"/><path class="cls-3" d="M179.46,1044.55s.47,16.27-9.23,23.31c0,0,22.21,10,36.61,10.33s16.43-6.1,15.8-8.29c0,0,4.85-4.07,1.72-7.83,0,0,4.85-3.59,1.72-6.88,0,0,6.42-6.42.16-6.42S212.78,1058.94,205,1055c0,0,12.52,0,12.67-4.69s-18.77-.31-24.56-1.1S181.54,1044.24,179.46,1044.55Z" transform="translate(-22 -870.34)"/><path class="cls-5" d="M136.55,1000.19s-1.46,13-3.18,19.78c0,0,10.37,8.81,16,11.48s-11.77-9.2-13.88-12C135.49,1019.44,138.1,1007.92,136.55,1000.19Z" transform="translate(-22 -870.34)"/><path class="cls-5" d="M108.55,995.83a186.42,186.42,0,0,1,31.87,1.55s3.05-36.15-8.92-55.16-22.3-29.33-40.84-24.87-47.6,27.59-56.39,80C24.81,1053.8,22,1118,22,1118l107.39-39.76-1.83-32.36s-17.46-10.68-17.89-21.71-1.12-28.3-1.12-28.3" transform="translate(-22 -870.34)"/><path class="cls-4" d="M164.44,916.52a50.8,50.8,0,0,0-5,9.65C157.3,931.71,153,928,153,928s-9.12,6.61-22,2.14c0,0-6.08,1.25-8.58,6.08s-26.63-4.83-22.7-16.09,28.6-41.46,39.32-40.75S170.16,897.75,164.44,916.52Z" transform="translate(-22 -870.34)"/><path class="cls-6" d="M157.73,903.34c-1.24,1.07-10.35,7.84-10.35,7.84s3.53-5.92-4.23-5.72-8.8,9.22-8.8,9.22-4.91,6.21-14,.53-13.73-10.86-6.91-19.44,10.55-13.53,22-13.66S157.73,903.34,157.73,903.34Z" transform="translate(-22 -870.34)"/><path class="cls-7" d="M126.92,883.51s24.7,18.82,42,36.69,34.82,18.63,7.45-7.45c0,0,9.12-19-4.28-33.42S137.6,869,126.92,883.51Z" transform="translate(-22 -870.34)"/></svg>