<svg id="Layer_12" data-name="Layer 12" xmlns="http://www.w3.org/2000/svg" viewBox="0 0 107.74 119.11"><defs><style>.cls-1{fill:#785b42;}.cls-2{fill:#d85b4d;}.cls-3{fill:#fef7df;}.cls-4{fill:#76a075;}.cls-5{fill:none;stroke:#fef7df;stroke-miterlimit:10;stroke-width:2px;}.cls-6{fill:#2a5f86;}.cls-7{fill:#f3b744;}</style></defs><title>0.1</title><path class="cls-1" d="M155.24,133.8l2.19-4,1,.54-2,3.76a.48.48,0,0,0-.07.37.46.46,0,0,0,.25.27l.42.23-.43.79-.85-.47A1,1,0,0,1,155.24,133.8Z" transform="translate(-136.53 -27.15)"/><path class="cls-1" d="M158.73,134.61a1.18,1.18,0,0,1,1.29-.83l-.9-.73.49-1.06a3.87,3.87,0,0,1,1.35-.14,4.21,4.21,0,0,1,1.52.41,3,3,0,0,1,1.53,1.3,2.08,2.08,0,0,1-.14,1.83l-1.48,3.18-1-.48,1.49-3.21a1.3,1.3,0,0,0,.12-1.06,1.78,1.78,0,0,0-.92-.75,3.24,3.24,0,0,0-.94-.27,1.9,1.9,0,0,0-.81,0l-.08.17.95.78-.32.68a1,1,0,0,0-.66.06,1.15,1.15,0,0,0-.44.56l-.86,1.84-1-.48Z" transform="translate(-136.53 -27.15)"/><path class="cls-1" d="M164.77,139a2.19,2.19,0,0,1,0-1.85l1.18-3.24,1.07.38-1.2,3.29a1.29,1.29,0,0,0,0,1.09,1.56,1.56,0,0,0,.91.68,1.6,1.6,0,0,0,1.13.06,1.36,1.36,0,0,0,.69-.84l.25-.7-1.27-.46.3-.82,1.27.47.64-1.78,1.07.39-.64,1.78.58.21-.38.78-.5-.18-.24.66a2.12,2.12,0,0,1-1.22,1.39,2.84,2.84,0,0,1-2-.11A2.8,2.8,0,0,1,164.77,139Z" transform="translate(-136.53 -27.15)"/><path class="cls-1" d="M171.21,141.1a3.13,3.13,0,0,1-.07-2.23,4.24,4.24,0,0,1,1-2,1.54,1.54,0,0,1,1.53-.41,1.51,1.51,0,0,1,.61.3,1.42,1.42,0,0,1,.34.52,1.67,1.67,0,0,1,.66-.24,1.84,1.84,0,0,1,.74,0,1.26,1.26,0,0,1,.87.64,1.69,1.69,0,0,1,0,1.17l-1.07,4.1-1.11-.29,1-3.94a1.08,1.08,0,0,0,0-.6c0-.13-.17-.22-.38-.28a.64.64,0,0,0-.41,0,.7.7,0,0,0-.34.28l-.61-.16a1,1,0,0,0-.17-.42.56.56,0,0,0-.33-.21.74.74,0,0,0-.83.34,4.7,4.7,0,0,0-.6,1.46,2.46,2.46,0,0,0,0,1.52,1.26,1.26,0,0,0,.91.71,2.47,2.47,0,0,0,.72.1l-.22.84a3,3,0,0,1-.92-.11A2.14,2.14,0,0,1,171.21,141.1Z" transform="translate(-136.53 -27.15)"/><path class="cls-1" d="M178.37,143.45a3.39,3.39,0,0,1-.8-.35l.16-.94a4.23,4.23,0,0,0,.8.38,4.81,4.81,0,0,0,.84.23,3.34,3.34,0,0,0,1.1,0,.56.56,0,0,0,.41-.48.63.63,0,0,0-.06-.42.72.72,0,0,0-.3-.3,6.24,6.24,0,0,0-.63-.36l-.38-.2a4,4,0,0,1-1.15-.85,1.21,1.21,0,0,1-.26-1,1.4,1.4,0,0,1,.77-1.08,2.84,2.84,0,0,1,1.74-.13,6.57,6.57,0,0,1,1.66.53l-.15.93a4.85,4.85,0,0,0-.72-.32,5.05,5.05,0,0,0-.78-.21,2.66,2.66,0,0,0-1,0,.51.51,0,0,0-.42.45.5.5,0,0,0,.08.38,1,1,0,0,0,.34.31l.68.39.29.14a3.84,3.84,0,0,1,1.17.88,1.54,1.54,0,0,1-.59,2.18,3.13,3.13,0,0,1-1.74.1A8.07,8.07,0,0,1,178.37,143.45Z" transform="translate(-136.53 -27.15)"/><path class="cls-1" d="M183.67,138.55l1,.09v.62a3,3,0,0,1,2.06-.56,1.81,1.81,0,0,1,1.35.65,2.12,2.12,0,0,1,.38,1.53l-.3,3.71-1.13-.09.3-3.66a1.17,1.17,0,0,0-.22-.9,1.21,1.21,0,0,0-.86-.35,1.84,1.84,0,0,0-.87.12,2.18,2.18,0,0,0-.74.43l-.33,4.14-1.14-.09Z" transform="translate(-136.53 -27.15)"/><path class="cls-1" d="M193.86,141.05a1.31,1.31,0,0,0-.35-1,1.79,1.79,0,0,0-1.16-.27,3.46,3.46,0,0,0-1,.17,1.79,1.79,0,0,0-.71.4v.19l1.2.28v.75a1,1,0,0,0-.57.35,1.19,1.19,0,0,0-.16.69l0,.68a.49.49,0,0,0,.11.35.45.45,0,0,0,.33.09h.58l0,.9-1.13,0a1,1,0,0,1-.75-.28,1.1,1.1,0,0,1-.29-.76l0-1a1.19,1.19,0,0,1,.81-1.31L189.7,141l0-1.18a3.87,3.87,0,0,1,1.16-.71,4.17,4.17,0,0,1,1.53-.3,3,3,0,0,1,1.95.5,2.09,2.09,0,0,1,.68,1.71l.09,5.18-1.14,0Z" transform="translate(-136.53 -27.15)"/><path class="cls-1" d="M197.47,143.89a2.15,2.15,0,0,1-.88-1.63l-.41-3.43,1.12-.13.42,3.47a1.34,1.34,0,0,0,.49,1,1.56,1.56,0,0,0,1.12.19,1.53,1.53,0,0,0,1-.46,1.29,1.29,0,0,0,.24-1.05l-.09-.74-1.34.16-.11-.86,1.34-.16-.22-1.87,1.13-.14.23,1.87.61-.08,0,.88-.53.06.09.7a2.16,2.16,0,0,1-.47,1.79,3.41,3.41,0,0,1-3.79.46Z" transform="translate(-136.53 -27.15)"/><path class="cls-1" d="M205.25,144.37a4,4,0,0,1,1.65-.76,3.75,3.75,0,0,1,.8-.11,2.13,2.13,0,0,1,.66.08l-1-4.5a1.37,1.37,0,0,0-.54-.91,1.68,1.68,0,0,0-1.14,0,3.11,3.11,0,0,0-.92.37,1.87,1.87,0,0,0-.6.53l0,.18,1.26,0,.17.73a.86.86,0,0,0-.43.44,1.47,1.47,0,0,0,0,.71l.17.73a1.11,1.11,0,0,1-.92,1.52l-.69.16-.2-.88.38-.08a.42.42,0,0,0,.28-.17.5.5,0,0,0,0-.35l-.16-.69a2,2,0,0,1,0-.83,1,1,0,0,1,.47-.6l-1.19,0-.26-1.14a4.12,4.12,0,0,1,1-.93,4.32,4.32,0,0,1,1.45-.61,2.81,2.81,0,0,1,2,.11,2.12,2.12,0,0,1,1,1.52l1.24,5.4-1.11.25a3.13,3.13,0,0,0-1.58,0,3.73,3.73,0,0,0-.83.29,3.31,3.31,0,0,0-.71.45Z" transform="translate(-136.53 -27.15)"/><path class="cls-1" d="M203.29,136.32l3.24-.92-.24-.84.91-.26.46,1.6-4.2,1.2Z" transform="translate(-136.53 -27.15)"/><path class="cls-1" d="M210.37,140.78l-.72-2.31a1.87,1.87,0,0,1-.07-.95,4.07,4.07,0,0,1,.35-.89,4.27,4.27,0,0,0,.2-.46.58.58,0,0,0-.27-.67,1,1,0,0,0-.54.06,2.41,2.41,0,0,0-1,.63l-.24-.8a2.11,2.11,0,0,1,.6-.48,3.27,3.27,0,0,1,.74-.34,1.68,1.68,0,0,1,1.15,0,1.07,1.07,0,0,1,.62.74,1.24,1.24,0,0,1,0,.63,3.77,3.77,0,0,1-.27.7,5,5,0,0,0-.27.8,1.37,1.37,0,0,0,.05.74l.62,2c.06.18.12.3.2.34a.56.56,0,0,0,.38,0l.46-.14.27.86-.93.28A1,1,0,0,1,210.37,140.78Z" transform="translate(-136.53 -27.15)"/><path class="cls-1" d="M212,135.5l1.07-.41.64,1.66,1.52-.58a1.24,1.24,0,0,0,.7-.54,1.12,1.12,0,0,0-.06-.83l-.26-.69,1.05-.4.25.65a1.38,1.38,0,0,1-.25,1.7,1,1,0,0,1,.76.25,1.94,1.94,0,0,1,.48.75l.74,1.94-1,.41-.7-1.82a1.17,1.17,0,0,0-.51-.69,1.19,1.19,0,0,0-.88.09l-1.48.57,1.08,2.81-1.07.41Z" transform="translate(-136.53 -27.15)"/><path class="cls-1" d="M222,137.35a3.08,3.08,0,0,1-1-.09l.22.58-.93.45-2.48-5.08,1-.5,1.83,3.75a2.37,2.37,0,0,0,.85.13,1.93,1.93,0,0,0,.85-.2,1.22,1.22,0,0,0,.67-.65,1.2,1.2,0,0,0-.14-.94l-1.6-3.29,1-.49,1.62,3.33a2.12,2.12,0,0,1,.21,1.58,1.9,1.9,0,0,1-1,1.11A3.08,3.08,0,0,1,222,137.35Z" transform="translate(-136.53 -27.15)"/><path class="cls-1" d="M220,129.27l1-.54.81,1.51-1,.54Z" transform="translate(-136.53 -27.15)"/><polygon class="cls-2" points="5.91 51.14 6.18 27.16 15.03 21.34 23.31 27.39 23.04 51.34 5.91 51.14"/><polygon class="cls-2" points="17.28 51.27 17.4 40.95 26.25 35.13 34.52 41.19 34.33 58.2 17.28 51.27"/><rect class="cls-3" x="160.08" y="67.35" width="4.79" height="4.79" transform="matrix(1, 0.01, -0.01, 1, -135.73, -28.98)"/><rect class="cls-3" x="148.86" y="53.56" width="4.79" height="4.79" transform="matrix(1, 0.01, -0.01, 1, -135.89, -28.85)"/><path class="cls-2" d="M152.21,71.61l11.2-7.93h-1.09l10.76,8.17c1.1.84,2.18-1,1.09-1.85l-10.76-8.18a1,1,0,0,0-1.09,0l-11.19,7.93c-1.12.79,0,2.66,1.08,1.86Z" transform="translate(-136.53 -27.15)"/><path class="cls-2" d="M140.82,57.82,152,49.89h-1.09l10.76,8.17c1.1.84,2.17-1,1.08-1.85L152,48a1,1,0,0,0-1.09,0L139.74,56c-1.12.79-.05,2.66,1.08,1.86Z" transform="translate(-136.53 -27.15)"/><path class="cls-4" d="M179.75,131.94a53.88,53.88,0,0,0,58-78.57A88.34,88.34,0,0,0,179.75,131.94Z" transform="translate(-136.53 -27.15)"/><path class="cls-5" d="M216.69,91.05s-11-11.5-8-27.26" transform="translate(-136.53 -27.15)"/><path class="cls-3" d="M208.71,95.89c3.1-3.4,6.13-7.06,9-10.74s5.67-7.51,8.31-11.41,5.08-7.93,7.37-12.06a108.67,108.67,0,0,0,5.91-12.88,108.44,108.44,0,0,1-4.79,13.43q-2.9,6.52-6.36,12.82t-7.39,12.28c-2.62,4-5.3,7.92-8.27,11.8Z" transform="translate(-136.53 -27.15)"/><path class="cls-6" d="M190.4,93.56a87.86,87.86,0,0,1-53.71-18.23c-.09,1.26-.15,2.53-.15,3.8a53.87,53.87,0,1,0,107.73,0c0-1.27-.06-2.54-.15-3.8A87.87,87.87,0,0,1,190.4,93.56Z" transform="translate(-136.53 -27.15)"/><path class="cls-7" d="M137.24,70.44a53.9,53.9,0,0,0,76.34,57.34A88.38,88.38,0,0,0,137.24,70.44Z" transform="translate(-136.53 -27.15)"/><path class="cls-3" d="M147.62,80.64A16.22,16.22,0,0,1,150.17,83a27.86,27.86,0,0,1,2.08,2.65l-1.66,0a24.52,24.52,0,0,1,2-2.65,15.42,15.42,0,0,1,2.49-2.34,15.84,15.84,0,0,1-1.18,3.2,26.52,26.52,0,0,1-1.64,2.89L151.44,88l-.84-1.23a24,24,0,0,1-1.73-2.89A15.29,15.29,0,0,1,147.62,80.64Z" transform="translate(-136.53 -27.15)"/><path class="cls-3" d="M151.31,79.08a5.43,5.43,0,0,1,.81,1.76,7.71,7.71,0,0,1,.25,1.77,7.14,7.14,0,0,1-.19,1.78,5.39,5.39,0,0,1-.76,1.79,5.43,5.43,0,0,1-.81-1.76,6.74,6.74,0,0,1-.24-1.77,7.63,7.63,0,0,1,.18-1.78A5.39,5.39,0,0,1,151.31,79.08Z" transform="translate(-136.53 -27.15)"/><path class="cls-3" d="M166.21,89.29a16.22,16.22,0,0,1,2.55,2.32,26.34,26.34,0,0,1,2.08,2.65l-1.66,0a24.61,24.61,0,0,1,2-2.65,15,15,0,0,1,2.48-2.34,15.82,15.82,0,0,1-1.17,3.2,26.6,26.6,0,0,1-1.65,2.89L170,96.62l-.84-1.23a26.92,26.92,0,0,1-1.73-2.89A15.86,15.86,0,0,1,166.21,89.29Z" transform="translate(-136.53 -27.15)"/><path class="cls-3" d="M169.9,87.73a5.22,5.22,0,0,1,.81,1.76,7.27,7.27,0,0,1,.06,3.55,5.39,5.39,0,0,1-.76,1.79,5.64,5.64,0,0,1-.81-1.76,7.43,7.43,0,0,1,0-3.55A5.57,5.57,0,0,1,169.9,87.73Z" transform="translate(-136.53 -27.15)"/><path class="cls-3" d="M154.16,100.6a15.39,15.39,0,0,1,2.55,2.33,24.86,24.86,0,0,1,2.08,2.64l-1.65,0a25.55,25.55,0,0,1,2-2.65,16.28,16.28,0,0,1,2.48-2.34,15,15,0,0,1-1.17,3.2,24.83,24.83,0,0,1-1.65,2.89l-.81,1.24-.84-1.22a24.8,24.8,0,0,1-1.73-2.89A15.4,15.4,0,0,1,154.16,100.6Z" transform="translate(-136.53 -27.15)"/><path class="cls-3" d="M157.86,99.05a5.45,5.45,0,0,1,.81,1.76,7.69,7.69,0,0,1,.24,1.77,7.6,7.6,0,0,1-.18,1.77,5.3,5.3,0,0,1-.76,1.79,5.05,5.05,0,0,1-.81-1.76,7.2,7.2,0,0,1-.25-1.77,7.76,7.76,0,0,1,.19-1.78A5.26,5.26,0,0,1,157.86,99.05Z" transform="translate(-136.53 -27.15)"/><path class="cls-3" d="M169.12,114.83a15.79,15.79,0,0,1,2.55,2.32,25,25,0,0,1,2.08,2.65l-1.65,0a24.52,24.52,0,0,1,2-2.65,15.35,15.35,0,0,1,2.48-2.34,15.24,15.24,0,0,1-1.17,3.2,26.6,26.6,0,0,1-1.65,2.89l-.81,1.24-.84-1.23a24,24,0,0,1-1.73-2.89A15.32,15.32,0,0,1,169.12,114.83Z" transform="translate(-136.53 -27.15)"/><path class="cls-3" d="M172.82,113.27a5.64,5.64,0,0,1,.81,1.76,7.61,7.61,0,0,1,.06,3.55,5.39,5.39,0,0,1-.76,1.79,5.22,5.22,0,0,1-.81-1.76,7.2,7.2,0,0,1-.25-1.77,7.7,7.7,0,0,1,.19-1.78A5.39,5.39,0,0,1,172.82,113.27Z" transform="translate(-136.53 -27.15)"/><path class="cls-3" d="M182.94,101.29a15.37,15.37,0,0,1,2.56,2.32,25.16,25.16,0,0,1,2.07,2.65h-1.65a25.55,25.55,0,0,1,2-2.65,16.19,16.19,0,0,1,2.48-2.33,15.15,15.15,0,0,1-1.17,3.19,24.76,24.76,0,0,1-1.64,2.89l-.82,1.24-.84-1.22a24.8,24.8,0,0,1-1.73-2.89A15.88,15.88,0,0,1,182.94,101.29Z" transform="translate(-136.53 -27.15)"/><path class="cls-3" d="M186.64,99.73a5.45,5.45,0,0,1,.81,1.76,7.18,7.18,0,0,1,.24,1.77,6.77,6.77,0,0,1-.18,1.78,5.34,5.34,0,0,1-.76,1.78,5.05,5.05,0,0,1-.81-1.76,6.74,6.74,0,0,1-.24-1.77,7.74,7.74,0,0,1,.18-1.78A5.34,5.34,0,0,1,186.64,99.73Z" transform="translate(-136.53 -27.15)"/><path class="cls-3" d="M195,117.83a15.34,15.34,0,0,1,2.55,2.32,24,24,0,0,1,2.08,2.65H198a25.64,25.64,0,0,1,2-2.65,15.74,15.74,0,0,1,2.48-2.33,16,16,0,0,1-1.17,3.2,25.55,25.55,0,0,1-1.65,2.88l-.81,1.24-.85-1.22A26.2,26.2,0,0,1,196.3,121,15.32,15.32,0,0,1,195,117.83Z" transform="translate(-136.53 -27.15)"/><path class="cls-3" d="M198.74,116.27a5.45,5.45,0,0,1,.81,1.76,7.61,7.61,0,0,1,.06,3.55,5.34,5.34,0,0,1-.76,1.78,5.28,5.28,0,0,1-.82-1.76,7.69,7.69,0,0,1-.24-1.77,7.24,7.24,0,0,1,.19-1.78A5.34,5.34,0,0,1,198.74,116.27Z" transform="translate(-136.53 -27.15)"/><path class="cls-2" d="M154.76,37.23c.1-3.33,1.85-4.58,4.52-4.51a3.73,3.73,0,0,1,2.88,1.09l0-1.45c0-1.48-.71-2.29-2.54-2.34a4.68,4.68,0,0,0-3.34,1.12l-1.17-1.69A7.55,7.55,0,0,1,160.07,28a6.87,6.87,0,0,1,2.61.53,2.26,2.26,0,0,0,.69-1.12l2.35.57a3.3,3.3,0,0,1-1.2,2,3.72,3.72,0,0,1,.66,2.42L165,40.16l-2.89-.08c.1-3.88-.63-5.29-2.77-5.35-1.08,0-1.75.28-1.86,1.27,1.63-.09,2.34.66,2.3,2.18s-.63,2.15-2.58,2.1S154.71,39.22,154.76,37.23Zm3.42.84c0-.61-.17-.82-.86-.84s-.88.18-.9.8.2.88.86.9S158.17,38.74,158.18,38.07Z" transform="translate(-136.53 -27.15)"/><path class="cls-2" d="M162,45.24a1.84,1.84,0,0,1-2-2.11c0-1.41.57-2.19,2.48-2.14s2.41.89,2.36,2.58l-.1,3.6L162,47.09Zm1.2-2c0-.66-.18-.86-.86-.88s-.89.17-.9.83.17.83.86.84S163.21,43.86,163.23,43.24Z" transform="translate(-136.53 -27.15)"/><path class="cls-7" d="M167.15,36.33l0-.9a4,4,0,0,1,1.36-2.88c-1.32-.12-1.74-.77-1.71-2.18s.61-2.15,2.55-2.1,2.5.65,2.46,2.3l0,.77c0,1.48-1.6,1.77-1.65,3.82l0,1.39c0,1.23.16,2.08,1.91,2.12s2-.78,2-2l.22-7.91,3,.08L177,36.47c-.07,2.47-1.29,4.31-5.06,4.21S167.09,38.52,167.15,36.33Zm3-5.81c0-.66-.17-.86-.85-.88s-.91.17-.93.84.2.82.88.84S170.16,31.14,170.17,30.52Z" transform="translate(-136.53 -27.15)"/><path class="cls-4" d="M181.29,34.48a1.87,1.87,0,0,1-2.4-1.66c-.25-1.43.16-2.27,2.09-2.61s2.63.31,2.94,2l.91,5.1.87-4.18,1.12-.21,2.33,3.62-1.29-7.25,2.93-.52,2.05,11.48-3,.54-3-4.49-1.2,5.23-3,.54Zm.89-2.22c-.12-.65-.35-.81-1-.69s-.84.35-.72,1,.34.77,1,.65S182.28,32.87,182.18,32.26Z" transform="translate(-136.53 -27.15)"/><path class="cls-6" d="M193.92,36.42l-.23-1.31c-.31-1.71.14-2.58,2.05-2.92s2.61.3,2.86,1.73-.6,2-1.81,2.26l.05.3c.16.89.87,1.23,2.3,1s2.11-.91,1.94-1.85l-.8-4.49C200,29.6,199,29,197.1,29.38a4.94,4.94,0,0,0-3,1.72l-1.48-1.37a7.71,7.71,0,0,1,4.55-2.4c3.91-.7,5.61.7,6.07,3.24l.77,4.37c.27,1.52-.49,3.78-4.48,4.49S194.28,38.46,193.92,36.42Zm3.15-2.2c-.12-.65-.35-.81-1-.69s-.84.35-.72,1,.34.77,1,.65S197.18,34.83,197.07,34.22Z" transform="translate(-136.53 -27.15)"/><path class="cls-4" d="M169.69,57.16a1.89,1.89,0,0,1-2.44-1.63c-.27-1.43.14-2.27,2.07-2.63s2.65.28,3,2l.5,2.67,1.2-3.48c.54-1.57,1.19-2.29,2.51-2.54a2.05,2.05,0,0,1,2.55,1.87l1.8,9.51-2.92.56-1.56-8.24c0-.24-.1-.31-.28-.28s-.26.18-.4.61l-2.12,6.11.48,2.53-2.93.55Zm.84-2.23c-.12-.65-.35-.8-1-.68s-.83.36-.7,1,.34.77,1,.64S170.65,55.54,170.53,54.93Z" transform="translate(-136.53 -27.15)"/><path class="cls-6" d="M172.27,47a4.8,4.8,0,0,1,3,.29l-.3-1.59,2.53-.47.93,4.89-10.55,2C167.59,49.36,169.5,47.56,172.27,47Zm3.18,2.18c-.52-.69-1.66-.81-2.87-.58s-2.15.75-2.23,1.55Z" transform="translate(-136.53 -27.15)"/><path class="cls-7" d="M174.26,42l2.54-.48.56,2.94-2.54.48Z" transform="translate(-136.53 -27.15)"/><path class="cls-2" d="M184.83,53.05a2.18,2.18,0,0,1-2.14-2.64c.19-1.69.93-2.49,3.2-2.23s2.84,1.22,2.62,3.24l-.68,6L190.19,53l1.33.15,1.4,4.81,1-8.54,3.45.39-1.52,13.53-3.53-.4-1.83-6-3.08,5.46-3.55-.4Zm1.72-2.18c.09-.77-.12-1-.91-1.12s-1,.12-1.14.89.13,1,.92,1.06S186.47,51.58,186.55,50.87Z" transform="translate(-136.53 -27.15)"/><path class="cls-4" d="M194.51,43.71l3.45.38-.48,4.22L194,47.92Z" transform="translate(-136.53 -27.15)"/><path class="cls-7" d="M198.31,59.41l.17-1.53c.23-2,1-2.84,3.27-2.59s2.82,1.2,2.63,2.89-1.35,2.08-2.78,1.91l0,.36c-.12,1,.56,1.67,2.25,1.86s2.65-.32,2.77-1.42l.6-5.3c.2-1.79-.73-2.75-3-3a5.79,5.79,0,0,0-4,.93l-1.2-2a9,9,0,0,1,5.88-1.17c4.61.51,6.05,2.64,5.72,5.64l-.58,5.14c-.2,1.79-1.81,4.07-6.51,3.54S198,61.82,198.31,59.41ZM202.56,58c.08-.77-.12-1-.91-1.11s-1.05.11-1.14.88.13,1,.92,1.06S202.48,58.72,202.56,58Z" transform="translate(-136.53 -27.15)"/><path class="cls-6" d="M213,56l-1.7-5.75c-.63-2.14,1.66-4,1.15-5.75-.22-.76-.71-1-1.6-.74s-1.21.81-1,1.6l.21.72-2.86.84-.22-.74c-.6-2,1-3.69,3.31-4.36,2.84-.84,4.38,0,4.92,1.86.62,2.07-1.59,4-1.05,5.83l1.17,4a1.86,1.86,0,0,1,2.57,1.38c.41,1.39.1,2.27-1.78,2.82S213.48,57.65,213,56Zm3.42-.71c-.17-.59-.42-.73-1.07-.53s-.79.44-.62,1,.44.77,1.09.57S216.59,55.9,216.4,55.27Z" transform="translate(-136.53 -27.15)"/><path class="cls-4" d="M220.16,48.06a1.88,1.88,0,0,1-2.59-1.37c-.41-1.4-.1-2.27,1.79-2.83s2.67,0,3.16,1.69l1.54,5.18,1.17-3.82a1.76,1.76,0,0,1,.38-.71c-.69-.08-1.19-.48-1.48-1.43-.41-1.39-.14-2.28,1.74-2.84s2.57-.18,3,1.43a1.68,1.68,0,0,1-.5,2c.56.11.94.53,1.17,1.31l1.81,6.11-2.86.85-1.44-4.87c-.06-.23-.13-.3-.26-.26s-.18.17-.27.47l-1.69,5.74-2.51.75Zm.61-2.29c-.19-.64-.43-.77-1.09-.58s-.79.44-.6,1.08.42.72,1.08.53S221,46.36,220.77,45.77Zm6.6-2c-.19-.63-.46-.76-1.11-.57s-.79.45-.6,1.08.42.73,1.07.53S227.55,44.41,227.37,43.81Z" transform="translate(-136.53 -27.15)"/><path class="cls-2" d="M221.84,40.57c.57-.16.91-.31.94-.69a1.43,1.43,0,0,1-2.17-1c-.36-1.2.12-1.83,1.5-2.23s2.09-.09,2.45,1.13a2.32,2.32,0,0,1,0,1.68c1.24-.55,1.42-1.34,1-2.77l-.11-.38,2.11-.63.13.44a3.8,3.8,0,0,1-2.66,5l-2.77.82Zm1.47-2.48c-.16-.53-.39-.62-.92-.46s-.68.36-.52.89.35.63.92.46S223.46,38.6,223.31,38.09Z" transform="translate(-136.53 -27.15)"/><path class="cls-5" d="M226.12,75.7s-6.79-7.12-5-16.87" transform="translate(-136.53 -27.15)"/><path class="cls-5" d="M230.87,67.91s7.38.21,12.41-3.46" transform="translate(-136.53 -27.15)"/></svg>