<svg id="ต้นไม้4" xmlns="http://www.w3.org/2000/svg" viewBox="0 0 400.41 602.57"><defs><style>.cls-1{fill:#bad28b;}.cls-2{fill:#76a075;}.cls-3{fill:#4d4032;}.cls-4{fill:#f05937;}.cls-5{fill:#96c19c;}.cls-6{fill:#f3b744;}.cls-7{fill:#f7d94a;}</style></defs><title>10</title><path class="cls-1" d="M131.84,455s-37.29-5.56-30-31,30,0,30,0-13.4-36.57,5.8-37.5,18.74,17.68,18.74,17.68-2.78-23.7,19-26,13.42,33.5,13.42,33.5,8.8-21.47,33.34-16.84,17.13,32.76-12,39.3c0,0,19.91-1.8,20.37,11.63s-19.44,18.51-37,6.94c0,0-10.06,10.19-23.08,1.39C170.33,454.09,158.23,457.33,131.84,455Z" transform="translate(102.19 -125.67)"/><path class="cls-2" d="M40.31,359.91s-95,10.76-130.7-53.56,19-56.72,41.82-44.55c0,0-47.15-50.19-16.73-80.61S-6.74,201-6.74,201s-8.37-75.29,56.28-75.29,66.73,64.2,66.73,64.2,16.11-61.91,62.14-59.63,27.79,59.63,27.79,59.63,35.74-17.81,62.36,14.13-11.41,57.8-11.41,57.8,41.07-8.12,41.07,34.35-29.66,56.74-66.16,64.43c0,0,6.84,27.46-84.89,2.37C147.17,363,29.23,399.23,40.31,359.91Z" transform="translate(102.19 -125.67)"/><path class="cls-3" d="M110.11,724.65s-12.13,8.08-23.24,0,7.07-55.18,6.06-215.86,1.52-304.46,8.53-301.28,1.78,121.46,3.69,215.78S117.62,715.89,110.11,724.65Z" transform="translate(102.19 -125.67)"/><path class="cls-3" d="M98,451.91s-31.12,11.6-45.82-11.6S44.46,386.94,36,386.94,25.55,480.05,98,463.15Z" transform="translate(102.19 -125.67)"/><path class="cls-3" d="M95.07,474.37s31.13,11.6,45.83-11.6,7.73-53.37,16.24-53.37,10.4,93.11-62.07,76.21Z" transform="translate(102.19 -125.67)"/><path class="cls-3" d="M98,309.59" transform="translate(102.19 -125.67)"/><path class="cls-3" d="M99.48,302.39S68.36,314,53.66,290.79s-7.73-53.37-16.24-53.37S27,330.53,99.48,313.63Z" transform="translate(102.19 -125.67)"/><path class="cls-3" d="M96.54,324.85s31.13,11.6,45.83-11.6,7.73-53.37,16.24-53.37S169,353,96.54,336.09Z" transform="translate(102.19 -125.67)"/><path class="cls-4" d="M99.48,160.07" transform="translate(102.19 -125.67)"/><path class="cls-3" d="M102.2,239.76s14.92,5.22,22.11-6.42,7.08-17.41,10.35-15.33c1.85,1.18-7.33,33.13-29.52,27.8" transform="translate(102.19 -125.67)"/><path class="cls-3" d="M42.59,274.11s14.92,5.21,22.11-6.42S71.78,250.27,75,252.35c1.86,1.19-7.33,33.14-29.52,27.81" transform="translate(102.19 -125.67)"/><path class="cls-3" d="M150.89,433.83S165.81,439,173,427.41s7.08-17.41,10.34-15.33c1.86,1.18-7.32,33.13-29.52,27.8" transform="translate(102.19 -125.67)"/><path class="cls-3" d="M95.07,570.44s19,8,27.43-5.73,8.71-19.49,12.11-16.46c3.21,2.84-8.62,39-34.73,32.71" transform="translate(102.19 -125.67)"/><path class="cls-3" d="M56.41,302.41s-8.84,8-27.31,3.22S11.44,287.16,7.42,287.56s2.31,22.31,25.89,24.89a45.17,45.17,0,0,0,30.05-7.05" transform="translate(102.19 -125.67)"/><path class="cls-3" d="M151.56,307.64S187,323,206.9,292.86c0,0,2.42-4.56,4.84-2.41s-17.42,39.81-62.29,23.71Z" transform="translate(102.19 -125.67)"/><path class="cls-3" d="M45.88,433.83S31,439,23.77,427.41,16.69,410,13.43,412.08c-1.86,1.18,7.33,33.13,29.52,27.8" transform="translate(102.19 -125.67)"/><path class="cls-5" d="M24.55,422.17s-61.43,5.81-60.5-29.35S.28,380,.28,380s-21.47-27.92,0-36.3S24.55,367,24.55,367s-2.08-22.37,23.16-24.68,10.35,31.2,10.35,31.2,22.32-26.06,42.8-2.79S69.07,404.2,69.07,404.2,91.57,430.83,24.55,422.17Z" transform="translate(102.19 -125.67)"/><path class="cls-6" d="M-36.22,352.59c-6,17.36-27.26,22.12-36,18.5-13-5.41,1.77-17.4,3.17-23.57,2.21-9.7-6.78-30.9,10.55-34.93C-41.91,308.73-28,328.75-36.22,352.59Z" transform="translate(102.19 -125.67)"/><path class="cls-7" d="M265.76,326.11c-6,17.36-27.26,22.12-36,18.5-13-5.41,1.76-17.4,3.17-23.57,2.2-9.71-6.78-30.9,10.54-34.94C260.06,282.25,274,302.27,265.76,326.11Z" transform="translate(102.19 -125.67)"/><path class="cls-7" d="M149.91,479.59C154.59,493.15,171.2,496.86,178,494c10.18-4.22-1.38-13.58-2.47-18.4-1.72-7.58,5.29-24.13-8.23-27.28C154.36,445.35,143.5,461,149.91,479.59Z" transform="translate(102.19 -125.67)"/><path class="cls-7" d="M196.27,205.94c-.52,14.33-15.33,22.72-22.66,22-11-1.07-2.64-13.4-3-18.32-.56-7.75-12.09-21.54-.07-28.49C182,174.48,197,186.26,196.27,205.94Z" transform="translate(102.19 -125.67)"/></svg>