<svg id="พุ่ม1" xmlns="http://www.w3.org/2000/svg" viewBox="0 0 474.59 533.27"><defs><style>.cls-1{fill:#162c53;}</style></defs><title>11</title><path class="cls-1" d="M158.27,1076.62s-19.2,54.78-76.79,47.55-33.16-30.7-33.16-30.7-44.51,19.87-78.54-3S5.56,1061,5.56,1061s-87.62-7.67-91.79-51.8,52.85-24,52.85-24-79.27-39.33-69.54-81.54,54.24-14.39,54.24-14.39-33.38-30.7-18.08-50.84,45.89,0,45.89,0S-63,716.7,15.29,735.76c0,0-19-86.2,49.77-49.76,0,0-5.16-84.33,60.21-84.33s54.57,94.43,54.57,94.43S186.23,653,221,665.46s4.28,83.73,4.28,83.73,29.12-38.34,68.82-14.61,10.59,95,10.59,95,10.59-16.44,39.71-16.44,10.59,54.79-21.18,67.57c0,0,73.48-11.26,7,63.31,0,0,26.61-17.21,38.25,6.88s-20,61.95-68.19,76.86c0,0,38.25-14.91,38.25,22.94S267,1085.08,267,1085.08s51.56,15.25,16.63,39.75S189.26,1127.81,158.27,1076.62Z" transform="translate(103.74 -601.67)"/></svg>