<svg id="พุ่ม2" xmlns="http://www.w3.org/2000/svg" viewBox="0 0 319.52 350.33"><defs><style>.cls-1{fill:#162c53;}</style></defs><title>12</title><path class="cls-1" d="M1986.38,258.29s-4.2,38.79-43,42.87-26.4-15-26.4-15-26.09,19.8-51.87,10S1884,271.39,1884,271.39s-58.52,8.36-68-19.89S1847,227.73,1847,227.73s-57.9-13.63-58-42.75,33.3-17.7,33.3-17.7-26.54-15-19.61-30.52,30-7,30-7-46.21-73.22,8-72.71c0,0-25.59-53.52,25-40.18,0,0-16.26-54.41,26.52-64.4s50.15,53.47,50.15,53.47-2.41-29.2,22.26-26.35,15.59,54.16,15.59,54.16S1993.4,4.19,2023,13.66s21.44,60.53,21.44,60.53,4.42-12.37,23.48-16.82,15.3,34.24-3.54,47.46c0,0,46.38-18.6,14.23,40.37,0,0,14.79-15.33,26.09-1.34s-3.6,43.6-32.88,60.73c0,0,22.75-15.6,28.54,9.18s-41.55,33.45-41.55,33.45,36.08,2.11,17,23.48S2014.48,287.07,1986.38,258.29Z" transform="translate(-1788.98 48.6)"/></svg>