<svg id="พุ่ม4" xmlns="http://www.w3.org/2000/svg" viewBox="0 0 349.61 392.83"><defs><style>.cls-1{fill:#162c53;}</style></defs><title>14</title><path class="cls-1" d="M1885.27,730s-14.14,40.35-56.57,35-24.43-22.62-24.43-22.62-32.78,14.64-57.86-2.21,26.36-21.73,26.36-21.73-64.54-5.66-67.61-38.16,38.93-17.67,38.93-17.67-58.39-29-51.22-60.07,40-10.6,40-10.6-24.59-22.61-13.32-37.45,33.81,0,33.81,0-31.08-89.66,26.63-75.61c0,0-14-63.5,36.67-36.66,0,0-3.8-62.12,44.35-62.12s40.2,69.56,40.2,69.56,4.71-31.76,30.32-22.58,3.15,61.69,3.15,61.69,21.45-28.25,50.7-10.76,7.8,70,7.8,70,7.8-12.11,29.25-12.11,7.8,40.35-15.6,49.77c0,0,54.13-8.3,5.13,46.64,0,0,19.6-12.68,28.17,5.07S2025.38,683,1989.86,694c0,0,28.17-11,28.17,16.9s-52.68,25.35-52.68,25.35,38,11.24,12.25,29.28S1908.1,767.69,1885.27,730Z" transform="translate(-1692.26 -380.11)"/></svg>