<svg id="ต้นกล้วย" xmlns="http://www.w3.org/2000/svg" viewBox="0 0 739.87 887.93"><defs><style>.cls-1{fill:#547d41;}.cls-2{fill:#f8bf40;}.cls-3{fill:#ee624f;}.cls-4{fill:#adad55;}.cls-5{fill:#b2d47f;}.cls-6{fill:#9dc86a;}.cls-7{fill:#b0af5a;}.cls-8{fill:#39977c;}.cls-9{fill:#c6c683;}.cls-10{fill:#f2a759;}.cls-11{fill:#069548;}.cls-12{fill:none;stroke:#231a14;stroke-miterlimit:10;stroke-width:1.15px;}</style></defs><title>15</title><path class="cls-1" d="M1840.39,388.67c-24.65,65.45-20.14,150.2-20.14,150.2,19.31-75.33,86.72-77.4,86.72-77.4-82.46,40.81-77,103-77,103l-10.38,71.85-35.51-52.06s-27.53-61.88-93.11-77.21,15.55-28.87,93.67,38.47c0,0,18.63-62.3-165.59-258.08,0,0,160.2,144,181.21,246.73,0,0,14.25-83.15,28.9-119.21Z" transform="translate(-1403.87 -220.29)"/><path class="cls-2" d="M1915.21,540.6l18.09,11.19c-165-43.35-82,201.76-82,201.76l-7.94,101.77-28.33-34.63s-10.55-98.88-14-138.24-9.68-41.38-9.68-41.38-46.05-46.29-63.05,30.73c-13,58.71,23,116.9,6.41,114.7-24.86-3.31-18.12-106.56-18.12-106.56s4.79-88.07,63.33-65.22c0,0-31.23-80.44-102.38-37s-2.36-9.91-2.36-9.91,74-48.95,129.37,31.06C1804.59,598.86,1833,514.92,1915.21,540.6Z" transform="translate(-1403.87 -220.29)"/><path class="cls-3" d="M1760.63,810.27c.9,8.56-12.34,31.66-12.34,31.66-12.13-4.75-17.75-19.84-18.65-28.4a15.58,15.58,0,0,1,31-3.26Z" transform="translate(-1403.87 -220.29)"/><path class="cls-4" d="M1869.23,863.64s-15.45-100.92-.86-182.39c0,0-9.43,7.76-19.89,24-14.69,22.82-31.51,61-27,119.42C1821.45,824.68,1836.35,889.89,1869.23,863.64Z" transform="translate(-1403.87 -220.29)"/><path class="cls-5" d="M1915.45,1093.18s-35.23,27.24-79.8,8.39c0,0,11.84-47.19-.7-134.4S1822,854.79,1803.31,820.89c0,0,50,8.38,68.09,45.32S1897.14,1025.62,1915.45,1093.18Z" transform="translate(-1403.87 -220.29)"/><path class="cls-6" d="M1697.38,557.72s30.46,41.2-2.54,79c0,0-14.94-34.82-7.52-53.75,0,0-17.29,23.86-.76,60.22,0,0-36,31-49.88,47.83,0,0-23.51-35.25-26.1-49.17,0,0,9.14,37.14,21.92,55.59l-35.24,55.63s-15.78-31.89-24.94-44.37c0,0,17.16,41.46,16.19,53.51,0,0-22.12-44.76-28.8-50,0,0,14.6,47.32,22.66,62.61,0,0-12.1,19.95-32.58,34.81S1527,824,1527,824l-9.74-25.13s5.6,24.82.74,28.32-17.52.35-17.52.35c34.11-123.13,97.47-179.48,138.73-224.08,39-40,58.15-45.75,58.15-45.75" transform="translate(-1403.87 -220.29)"/><path class="cls-7" d="M1500.5,827.55c46.94-165.64,196.88-269.83,196.88-269.83s-61.69,22.78-105.59,74.19a71.43,71.43,0,0,1,11.21-3.29,95,95,0,0,0-19.66,11.55,405.44,405.44,0,0,0-44.3,68.17l8.41-2.56A56.49,56.49,0,0,0,1530,727.72c-6.51,14.5-23.19,65.47-29.51,99.83h0" transform="translate(-1403.87 -220.29)"/><path class="cls-6" d="M1891.06,535.91s-15.47,40.59,14.83,58.41c0,0,22.77-32.37,33.72-37.45,0,0-24.17,33.92-26.09,42.25,0,0,25.94,14.92,32.36,17.33s28-32,35.42-33.43-20.52,31.3-18.12,43.37l21,18.8,14-26.37s1.89,19.94-8.87,29.48c0,0,40.26,49.83,68.25,62.86s34.26,11.42,34.26,11.42c-42.82-115.77-122.36-180-200.75-186.67" transform="translate(-1403.87 -220.29)"/><path class="cls-8" d="M2091.81,722.58s3.46-38.09-6.81-64.65c0,0-12-7.7-21.64-10.42a61.66,61.66,0,0,1,18,1.09s-32.71-41-54.68-58.13-35.46-27.18-35.46-27.18-10.22-1.36-19.39,2c0,0,3.37-5.21,14.18-6.34,0,0-35.24-23.4-48.26-22s-15.48,3-15.48,3S1924.14,535,1933,534c0,0-21.5-8.47-41.94,1.88C1891.06,535.91,2020.29,548.72,2091.81,722.58Z" transform="translate(-1403.87 -220.29)"/><path class="cls-4" d="M1875.34,470.12s2.24,35.5,51.11,41.94c0,0-19.45-28.58-24.17-41.54,0,0,22.3,23.81,30.82,40.84l46.51,1.83s-24.75-32.88-32.41-56c0,0,24.11,25.94,44,55.6,0,0,25.11,4.44,63.08,14.6,29.25,7.83,6.73-21.3,4.39-43.46,0,0,17.25,32.55,16.14,46.86,0,0,49.51-1.64,68.89-9.2,0,0-116.37-83.49-227.5-63.95" transform="translate(-1403.87 -220.29)"/><path class="cls-8" d="M2143.74,521.61c-43.32-49.56-112.32-76.53-172.35-75.91-53.77.54-96.05,24.42-96.05,24.42s89.63-18.08,134.09-6.8S2143.74,521.61,2143.74,521.61Z" transform="translate(-1403.87 -220.29)"/><path class="cls-9" d="M1719,509.52s2.66,28.86-70.67,38.44c0,0,24.17-38.93,36.58-41.73,0,0-17.91-1-44.53,40.7,0,0-23.56-.27-36.66-4,0,0,37.38-42.32,58.19-50.5,0,0-28.9,2.28-69,47.22,0,0-35.06-2.11-64.19-2,0,0,18.31-32.7,35.09-43.83,0,0-25.81,6.81-45.39,44.36,0,0-29.07,4.18-35.55,3s19.74-36.07,16.3-43.93c0,0-20.77,22.73-31.72,42.93,0,0-51.8,4.71-63.54-28.8,0,0,35.41-32.41,190.37-29.74,118.85,2.05,124.72,28,124.72,28" transform="translate(-1403.87 -220.29)"/><path class="cls-6" d="M1967.9,220.55s4.95,27.5,2.07,41.81c0,0-31.49-4.53-46.16-.18l44.25,5.14s-10.49,29.87-32.35,56.45c0,0-36.42-8.87-53.16-1.13,0,0,27.73,15,41.46,17.68l-10.49,17.54s-30.33,2.82-53.18,2.23c0,0,22.76,13.67,44.75,15.09,0,0-16.84,19.33-24.29,44.4s-15.09,62.47-59,56.64c0,0,1-83.54,58.52-163.75C1938.32,231.56,1967.9,220.55,1967.9,220.55Z" transform="translate(-1403.87 -220.29)"/><path class="cls-10" d="M1723.39,743.6s-13.1-9.08-17.55-37.19,6.13-34.08,10.76-27.28S1736.77,753.59,1723.39,743.6Z" transform="translate(-1403.87 -220.29)"/><path class="cls-10" d="M1736.58,742.35s10-12.43,6.26-40.64-15.55-30.93-18.07-23.1S1726.59,755.73,1736.58,742.35Z" transform="translate(-1403.87 -220.29)"/><path class="cls-10" d="M1740.3,735c.42,8.6,2.07,11.42,6.13,7.7,0,0,12.12-10.34,13.73-38.76s-9.51-33.29-13.44-26.06c-1.17,2.15-3.8,7.13-5.13,16.5" transform="translate(-1403.87 -220.29)"/><path class="cls-10" d="M1751.35,736.45c.17,4.79,1.49,7.11,4.63,4.87,0,0,12-7.9,16.52-33.09s-4.82-30.76-9.13-24.74c-.81,1.13-2,4.23-3.37,8.44" transform="translate(-1403.87 -220.29)"/><path class="cls-10" d="M1764.92,730.39c-1.65,8.76-1.65,15.18,2.41,12.54,0,0,9.59-5.76,14-25.24s-2.73-24.15-6.29-19.6a8,8,0,0,0-1.44,1.85" transform="translate(-1403.87 -220.29)"/><path class="cls-10" d="M1722.05,742.49c.74,5-4.6,4-6.77,3.23,0,0-10.8-4.13-20.94-30.68s-1.55-34.54,4.23-28.85a35.88,35.88,0,0,1,6.21,8.76" transform="translate(-1403.87 -220.29)"/><path class="cls-10" d="M1712.32,743.54c1.23,4.46.69,7-2.77,5.8,0,0-13.27-3.93-25.1-26.52s-5-30.74.72-26.3c1.11.85,3.22,3.53,5.8,7.25" transform="translate(-1403.87 -220.29)"/><path class="cls-10" d="M1701,744.21c2.79,6,3.49,10.13-.35,9,0,0-10.87-2.71-21.2-20.61s-5.09-24.74-.29-21.35" transform="translate(-1403.87 -220.29)"/><path class="cls-2" d="M1730.24,777.67s-11.76-8.16-15.76-33.4,5.5-30.61,9.67-24.51S1742.26,786.64,1730.24,777.67Z" transform="translate(-1403.87 -220.29)"/><path class="cls-2" d="M1742.09,776.55s9-11.16,5.62-36.51-14-27.78-16.23-20.75S1733.12,788.56,1742.09,776.55Z" transform="translate(-1403.87 -220.29)"/><path class="cls-2" d="M1745.43,770c.38,7.73,1.86,10.26,5.5,6.92,0,0,10.89-9.29,12.34-34.81s-8.54-29.91-12.07-23.42c-1.06,1.94-3.41,6.41-4.61,14.83" transform="translate(-1403.87 -220.29)"/><path class="cls-2" d="M1755.36,771.25c.15,4.3,1.34,6.38,4.15,4.38,0,0,10.74-7.1,14.85-29.73s-4.34-27.63-8.21-22.23a36.07,36.07,0,0,0-3,7.59" transform="translate(-1403.87 -220.29)"/><path class="cls-2" d="M1767.55,765.8c-1.48,7.87-1.48,13.64,2.16,11.27,0,0,8.61-5.18,12.56-22.68s-2.46-21.68-5.65-17.6a6.8,6.8,0,0,0-1.29,1.67" transform="translate(-1403.87 -220.29)"/><path class="cls-2" d="M1729,776.67c.66,4.48-4.14,3.63-6.09,2.9,0,0-9.69-3.7-18.8-27.55s-1.39-31,3.8-25.92a32.43,32.43,0,0,1,5.57,7.87" transform="translate(-1403.87 -220.29)"/><path class="cls-2" d="M1720.3,777.62c1.1,4,.62,6.25-2.49,5.2,0,0-11.92-3.52-22.55-23.82s-4.51-27.6.65-23.62c1,.77,2.89,3.17,5.21,6.51" transform="translate(-1403.87 -220.29)"/><path class="cls-2" d="M1710.14,778.21c2.5,5.42,3.13,9.11-.32,8.12,0,0-9.76-2.43-19-18.51s-4.56-22.23-.26-19.18" transform="translate(-1403.87 -220.29)"/><path class="cls-6" d="M1736.52,814.21s-10.31-7.14-13.81-29.26,4.82-26.82,8.47-21.47S1747,822.07,1736.52,814.21Z" transform="translate(-1403.87 -220.29)"/><path class="cls-6" d="M1746.9,813.23s7.85-9.78,4.92-32-12.24-24.34-14.22-18.18S1739,823.76,1746.9,813.23Z" transform="translate(-1403.87 -220.29)"/><path class="cls-6" d="M1765.79,479.29s-34.41-2.9-57.76-22.48-57.44-70.16-57.44-70.16c10.61-5.6,42.12-.88,42.12-.88-22.21-12.6-49-11.1-49-11.1s-14.39-23.14-22.09-32.41-27.06-37.12-27.33-39.71,35.25-2.22,35.25-2.22c-17.08-6.44-36.38-8.49-36.38-8.49-16.53-29.27-12.11-54.76-12.11-54.76S1720,381.68,1765.79,479.29Z" transform="translate(-1403.87 -220.29)"/><path class="cls-6" d="M1749.82,807.46c.33,6.77,1.63,9,4.83,6.06,0,0,9.53-8.14,10.8-30.5s-7.48-26.2-10.57-20.51a36,36,0,0,0-4,13" transform="translate(-1403.87 -220.29)"/><path class="cls-6" d="M1758.52,808.59c.13,3.76,1.17,5.59,3.64,3.83,0,0,9.41-6.22,13-26s-3.8-24.21-7.19-19.47a31.58,31.58,0,0,0-2.65,6.64" transform="translate(-1403.87 -220.29)"/><path class="cls-6" d="M1769.2,803.82c-1.3,6.89-1.3,11.94,1.9,9.87,0,0,7.54-4.54,11-19.87s-2.16-19-4.95-15.42a6.24,6.24,0,0,0-1.14,1.46" transform="translate(-1403.87 -220.29)"/><path class="cls-6" d="M1735.47,813.34c.58,3.92-3.63,3.18-5.34,2.54,0,0-8.49-3.24-16.47-24.14s-1.22-27.19,3.32-22.7a28,28,0,0,1,4.89,6.89" transform="translate(-1403.87 -220.29)"/><path class="cls-6" d="M1727.8,814.17c1,3.51.55,5.47-2.18,4.56,0,0-10.43-3.09-19.75-20.87s-3.95-24.19.57-20.7a33,33,0,0,1,4.56,5.71" transform="translate(-1403.87 -220.29)"/><path class="cls-6" d="M1718.91,814.69c2.19,4.75,2.74,8-.28,7.11,0,0-8.55-2.13-16.68-16.22s-4-19.47-.23-16.8" transform="translate(-1403.87 -220.29)"/><path class="cls-8" d="M1581.06,237.08c62.32-.58,50.51,47,50.51,47l1.42-32.65s30.84,23.28,36.87,30.86,2.86,44.9,2.86,44.9c3.78-7.46,6.94-37,6.94-37l46.07,58.29s24.84,29.88,34.76,52-1.89,43.94-1.89,43.94c9.08-9.54,11.05-23.24,11.05-23.24,15,36.52,4,48.44,4,48.44l-192.6-232.55" transform="translate(-1403.87 -220.29)"/><path class="cls-4" d="M1967.9,220.55c-35.55-2.42-29.24,12.33-29.24,12.33-4-2.28-3-8.94-3-8.94s-15.26,6.43-21.38,14.92-2.32,20.08-2.32,20.08c-5.94-.3-4.89-17.14-4.89-17.14s-27.24,23.32-30.87,34.07,6.11,23.45,6.11,23.45c-9.15,1-14-13.37-14-13.37-13.47,15.7-2.39,41.15-2.39,41.15l-11.57-16.71s-26,34.68-29.54,49.33,10.51,33.36,10.51,33.36c-5.28-2.25-17.34-18.35-17.34-18.35s-4.39,3.54-10.55,40.61,4.79,59.06,4.79,59.06,63.24-199.33,155.67-253.85" transform="translate(-1403.87 -220.29)"/><path class="cls-11" d="M1967.9,220.55" transform="translate(-1403.87 -220.29)"/><path class="cls-12" d="M1911.4,459.32" transform="translate(-1403.87 -220.29)"/></svg>