<svg id="ผัก5" xmlns="http://www.w3.org/2000/svg" viewBox="0 0 221.93 261.7"><defs><style>.cls-1{fill:#22689b;}.cls-2{fill:#f9f1dd;}.cls-3{fill:#6ba67c;}.cls-4{fill:#64aa45;}</style></defs><title>16</title><path class="cls-1" d="M1896.72,843.6s-45.31-7.79-54.6-40.34,21.79-41.12,14.47-60-4.47-43.2,6.24-45.34-.71-18.57,11.43-27.85,25.46-12.85,27.37,0,7.62,25,20.47,23.56,1.43,16.42,6.42,24.28,23.57-1.32,23.57,22.14.71,31.41,10.71,42.84S1925.88,854.36,1896.72,843.6Z" transform="translate(-1783.54 -661.67)"/><path class="cls-2" d="M1876,913.71s6.09,15.34,19,7.36,10.51-90.17,10.51-90.17,34.87-15.95,41-43.56c0,0-17.49,27.83-42.55,36.42l-.24-17.14s39.4-19.89,46.17-50.56c0,0-20,37.47-47.6,39.79l-.82-17.09s34.88-15.34,37.59-44.17c0,0-21.33,30.06-38.94,34.35l-2.11-27.66s20.73-7.92,23.44-20.19c0,0-12.9,13.53-24.42,14.76,0,0-8.77-17.83,16-40.52,0,0-12.12,3.95-17.35,15.61,0,0-4.66-35.24-10.08-42.6a464.63,464.63,0,0,1,5.75,49.68s-28.78-6.74-32.84-17.78c0,0,5.6,18.1,32.16,24.1l2.71,26.81s-27.42-6.13-38.94-15.34c0,0,10.85,13.8,39.62,24.54,0,0,3.39,13.5,2,22.09,0,0-28.78-.62-47.06-16.57,0,0,5.07,11,46.38,23.93,0,0,.78,8.59,0,25.76,0,0-30.81-11-41-22.7,0,0,9.14,18.41,40.3,30.68C1894.6,823.54,1896,889.22,1876,913.71Z" transform="translate(-1783.54 -661.67)"/><path class="cls-3" d="M1862.39,860.63a123,123,0,0,0-36.25-18.12c-21.73-6.71-36.46-19.52-23.65-35.09s-10-5.83-17.14-32.83,8.84-22.62,15.26-25.88-16.73-14.65-4.78-28.57,34.76-15.17,40.34,4.72,5.34,27.23,21,26.2,29.56,8.14,30.3,28.41,14.63,15,7.88,37.27S1884.49,873.39,1862.39,860.63Z" transform="translate(-1783.54 -661.67)"/><path class="cls-2" d="M1880,917.73s9.22,10,15.61.1-18.33-74-18.33-74,15.63-21,10.94-44.08c0,0,1.85,24.24-12.85,38.21L1870,825.18s15.65-24.93,10.44-50.54c0,0-1.31,33.91-14.64,44.52l-8.25-14.32s15.83-20.56,8.38-43.56c0,0-1.61,27.92-12.5,36.39l-10.51-18.38s8.44-13,6.36-23.24c0,0-3,14.05-10.63,18.37,0,0-13.52-11-3.62-35.73,0,0-8.55,4.15-8.31,17.94,0,0-13.41-26.61-19.57-30.69,0,0,7.47,19.1,16.56,38.08,0,0-18.72,1.75-25.13-5.56,0,0,6.23,13.79,26.7,10.62l10.58,19.86s-17.58,1.83-28.6-1.88c0,0,8.5,8.93,32,8.77,0,0,6.73,9.4,8.57,16.41,0,0-16.74,6.48-34.66-.44,0,0,3.57,8.5,36.57,6.31a88.37,88.37,0,0,1,8.34,19.84s-21.53-1-32.39-7c0,0,8.79,13,34.5,13.29C1860.25,844.29,1882.57,896.07,1880,917.73Z" transform="translate(-1783.54 -661.67)"/><path class="cls-4" d="M1905.53,865.84s17.45-15.29,35-14.39,42-8.48,45.93-30.72,4.49-34.52,16.1-40.9-14.32-30.19-32.25-16.94-38.12-.7-51.49,16.53S1883.81,872.31,1905.53,865.84Z" transform="translate(-1783.54 -661.67)"/><path class="cls-2" d="M1892.88,918s5-52.78,27.44-76.82c5.13-5.5,42.62-5,42.62-5a123.84,123.84,0,0,0-37.1-1s9.15-19.42,17.75-18c3.41.54,33.29.82,39-6.15,0,0-28.25,4.51-38.16-1.51,0,0,10.68-14.52,17.4-12.7,5.42,1.47,23.84-2,23.74-8.88a47.5,47.5,0,0,1-23.78,4.08s13.15-12.25,25.81-19.06c0,0-10.67-1.87-31.34,19.09,0,0-4.61-2.49-3.87-15.81a30.65,30.65,0,0,0,.4,19.06s-9.24,6.73-14.22,12.46a55.73,55.73,0,0,1-4.22-22.31s-1.94,7.82,0,25.35c0,0-9.23,9.93-12.36,16.65s-4-15.63-1.18-25.52c0,0-6.92,9.7-4.09,29.67,0,0-19.59,23-29.63,54.46S1887,929.37,1892.88,918Z" transform="translate(-1783.54 -661.67)"/></svg>