<svg id="ผัก4" xmlns="http://www.w3.org/2000/svg" viewBox="0 0 221.93 261.7"><defs><style>.cls-1{fill:#22689b;}.cls-2{fill:#f9f1dd;}.cls-3{fill:#6ba67c;}.cls-4{fill:#64aa45;}</style></defs><title>17</title><path class="cls-1" d="M1819,1005.6s45.32-7.79,54.6-40.34-21.79-41.12-14.46-60,4.46-43.2-6.25-45.34.72-18.57-11.42-27.85-25.47-12.85-27.37,0-7.62,25-20.47,23.56-1.43,16.42-6.43,24.28-23.56-1.32-23.56,22.14-.72,31.41-10.71,42.84S1789.85,1016.36,1819,1005.6Z" transform="translate(-1710.26 -823.67)"/><path class="cls-2" d="M1839.76,1075.71s-6.1,15.34-19,7.36-10.5-90.17-10.5-90.17-34.88-15.95-41-43.56c0,0,17.49,27.83,42.55,36.42l.24-17.14s-39.41-19.89-46.18-50.56c0,0,20,37.47,47.6,39.79l.82-17.09s-34.87-15.34-37.58-44.17c0,0,21.32,30.06,38.93,34.35l2.12-27.66s-20.73-7.92-23.44-20.19c0,0,12.9,13.53,24.41,14.76,0,0,8.77-17.83-16-40.52,0,0,12.12,3.95,17.36,15.61,0,0,4.66-35.24,10.07-42.6a464.63,464.63,0,0,0-5.75,49.68s28.78-6.74,32.85-17.78c0,0-5.61,18.1-32.17,24.1l-2.71,26.81s27.43-6.13,38.94-15.34c0,0-10.84,13.8-39.61,24.54,0,0-3.39,13.5-2,22.09,0,0,28.78-.62,47.07-16.57,0,0-5.07,11-46.39,23.93,0,0-.78,8.59,0,25.76,0,0,30.81-11,41-22.7,0,0-9.14,18.41-40.29,30.68C1821.14,985.54,1819.72,1051.22,1839.76,1075.71Z" transform="translate(-1710.26 -823.67)"/><path class="cls-3" d="M1853.34,1022.63a123.15,123.15,0,0,1,36.25-18.12c21.73-6.71,36.46-19.52,23.65-35.09s10-5.83,17.14-32.83-8.84-22.62-15.25-25.88,16.72-14.65,4.78-28.57-34.77-15.17-40.35,4.72-5.33,27.23-21,26.2-29.56,8.14-30.29,28.41-14.64,15-7.89,37.27S1831.25,1035.39,1853.34,1022.63Z" transform="translate(-1710.26 -823.67)"/><path class="cls-2" d="M1835.73,1079.73s-9.21,10-15.61.1,18.33-74,18.33-74-15.62-21-10.94-44.08c0,0-1.85,24.24,12.85,38.21l5.37-12.76s-15.66-24.93-10.45-50.54c0,0,1.31,33.91,14.65,44.52l8.24-14.32s-15.82-20.56-8.38-43.56c0,0,1.61,27.92,12.51,36.39l10.5-18.38s-8.43-13-6.35-23.24c0,0,3,14.05,10.63,18.37,0,0,13.51-11,3.62-35.73,0,0,8.54,4.15,8.3,17.94,0,0,13.41-26.61,19.57-30.69,0,0-7.47,19.1-16.56,38.08,0,0,18.73,1.75,25.14-5.56,0,0-6.24,13.79-26.71,10.62l-10.57,19.86s17.58,1.83,28.59-1.88c0,0-8.49,8.93-32,8.77,0,0-6.74,9.4-8.57,16.41,0,0,16.73,6.48,34.66-.44,0,0-3.58,8.5-36.57,6.31a88.16,88.16,0,0,0-8.35,19.84s21.53-1,32.4-7c0,0-8.8,13-34.51,13.29C1855.48,1006.29,1833.16,1058.07,1835.73,1079.73Z" transform="translate(-1710.26 -823.67)"/><path class="cls-4" d="M1810.2,1027.84s-17.45-15.29-35-14.39-42-8.48-45.93-30.72-4.49-34.52-16.1-40.9,14.32-30.19,32.25-16.94,38.12-.7,51.49,16.53S1831.92,1034.31,1810.2,1027.84Z" transform="translate(-1710.26 -823.67)"/><path class="cls-2" d="M1822.85,1080s-5-52.78-27.44-76.82c-5.13-5.5-42.62-5-42.62-5a123.87,123.87,0,0,1,37.1-1s-9.14-19.42-17.75-18c-3.4.54-33.29.82-39-6.15,0,0,28.26,4.51,38.17-1.51,0,0-10.69-14.52-17.4-12.7-5.43,1.47-23.84-2-23.75-8.88a47.53,47.53,0,0,0,23.78,4.08s-13.15-12.25-25.81-19.06c0,0,10.67-1.87,31.34,19.09,0,0,4.61-2.49,3.88-15.81a30.69,30.69,0,0,1-.41,19.06s9.25,6.73,14.22,12.46a55.73,55.73,0,0,0,4.22-22.31s1.94,7.82,0,25.35c0,0,9.22,9.93,12.35,16.65s4-15.63,1.19-25.52c0,0,6.91,9.7,4.08,29.67,0,0,19.6,23,29.63,54.46S1828.73,1091.37,1822.85,1080Z" transform="translate(-1710.26 -823.67)"/></svg>