<svg id="ผัก3" xmlns="http://www.w3.org/2000/svg" viewBox="0 0 219.93 453.03"><defs><style>.cls-1{fill:#2f4a3d;}.cls-2{fill:#5e867e;}.cls-3{fill:#478971;}.cls-4{fill:#dcd98f;}.cls-5{fill:#547d41;}</style></defs><title>18</title><path class="cls-1" d="M484.68,1048.51S521.55,894.16,495,889.87s-7.1,45.67-26.58,46.31,29.79-110.62,6.75-130.34S465,835,451.24,835s18-120-24.87-120-42.9,65.16,0,122.62c0,0-18.86-17.15-25.72-6.86s5.14,66,38.58,104.61-24-4.29-28.29,21.44S484.68,1048.51,484.68,1048.51Z" transform="translate(-357.94 -714.95)"/><path class="cls-2" d="M498.89,1071.89s-32.63-51.65-41.06-144.7-36.59-124.77-39-173.51c0,0-3.48,22.35,8.23,52.69,16.71,43.29,24.86,91.75,27,128.14C456.89,980.82,471.56,1076.35,498.89,1071.89Z" transform="translate(-357.94 -714.95)"/><path class="cls-3" d="M475.14,1168s-15.79-61.73-12.92-106.23,8.61-89-12.92-64.59c0,0,7.9-69-9.42-76.89s-12.61,15-18.91,15-5.51-95.3-45.67-92.15S374.51,921.85,395,940s-21.26-13.39-28.35,3.15,34.65,63,53.56,70.1-17.33-7.09-19.69,4.72,1.9,22.69,32.81,56.62S475.14,1168,475.14,1168Z" transform="translate(-357.94 -714.95)"/><path class="cls-4" d="M469.12,1138.9s13.34-34.81-25.7-103.45-36.13-87.34-49.21-143.7c0,0,8,24.27,12.27,45,7.85,38.43,27,75.67,43.06,102C469.94,1072.22,490.23,1128.81,469.12,1138.9Z" transform="translate(-357.94 -714.95)"/><path class="cls-5" d="M475.14,1168s7.29-70.11,42-104.82,20.41-48,5.1-45.93,34.71-18.37,41.85-51-12.25-29.6-24.5-23.48,15.33-40.82,26-70.43,28.21-95-18.89-104.11c-20.63-4-61.25,3.06-42.87,131.67s5.1,0-19.4,4.09,6.13,89.82,0,90.84S475.78,975.2,463,980.48,457.13,1143.39,475.14,1168Z" transform="translate(-357.94 -714.95)"/><path class="cls-4" d="M475.14,1168s-6.64-60.74,26.62-148S528.23,911.29,533.36,843c0,0-5,29.83-6.23,54.84-2.23,46.35-17.94,93.36-31.93,127C477.38,1067.72,448.63,1160,475.14,1168Z" transform="translate(-357.94 -714.95)"/></svg>