<svg id="ผัก2" xmlns="http://www.w3.org/2000/svg" viewBox="0 0 395.45 326.89"><defs><style>.cls-1{fill:#64a1a0;}.cls-2{fill:#c6d07a;}.cls-3{fill:#406f71;}.cls-4{fill:#92c1b3;}.cls-5{fill:#658269;}.cls-6{fill:#fff;}</style></defs><title>19</title><path class="cls-1" d="M461.79,899.27c-10.85,40.16-28.49,80.84-61.87,105.61-1,.75-1.91,1.41-2.93,2.11l-.06,0c-23.44,16.35-51.82,24.06-78.21,35.4,0,0,0,0-.1,0a11.72,11.72,0,0,0-1.32.53c-27.87,12.13-55.76,31.3-64.18,60.55.21.77-1.78,2.12-4.39,3.42h0c-4.31,2.19-10.18,4.07-10.9,2.94-1-1.67-.3-3.88.58-5.67.08-.12.1-.21.17-.3,5.6-11.07,13.75-21,17-33,2.37-8.75,1.92-18,2.45-27.14a64.26,64.26,0,0,1,1.62-12.3c4-16.61,17.06-29.84,32-38.12a106.71,106.71,0,0,1,11-5.33h.05c12-4.93,24.66-8.15,37.23-11.45,2.82-.72,5.65-1.49,8.48-2.27C394,961.58,441.79,941.65,461.79,899.27Z" transform="translate(-80.54 -808.25)"/><path class="cls-2" d="M255.52,1071c-3.23,11.94-11.38,21.88-17,33-.07.09-.09.18-.17.3-3.43-13.47-9.54-30.33-13.62-43.08s-12.53-25-24.88-29.39a345.6,345.6,0,0,0-85.84,25.1c-4.71,2.1-10.37,4.27-14.81,1.64-4.17-2.52-5.19-8.4-3.58-13s5.23-8.11,8.7-11.55c16.59-16.17,34.81-33.14,57.72-36.46.85-.11,1.64-.22,2.48-.28,17.89-1.82,35.56,4.81,52.42,11.35,7,2.73,14.09,5.5,20.47,9.43h0a47,47,0,0,1,8.42,6.27,35,35,0,0,1,5.33,6.25,65.46,65.46,0,0,1,6.75,13.34C257.44,1052.92,257.89,1062.2,255.52,1071Z" transform="translate(-80.54 -808.25)"/><path class="cls-3" d="M348.38,974.35c-2.83.78-5.66,1.55-8.48,2.27-12.57,3.3-25.26,6.52-37.23,11.45h-.05a106.71,106.71,0,0,0-11,5.33c-14.93,8.28-28,21.51-32,38.12a64.26,64.26,0,0,0-1.62,12.3,65.46,65.46,0,0,0-6.75-13.34c7.73-17.41,3.32-38,2.68-57.34-.1-2.82-.1-5.62,0-8.44,0-.05,0-.1,0-.15A140.75,140.75,0,0,1,284,882.32c6.22-7.8,13.2-14.85,20.19-22q23.46-23.72,46.92-47.47c2.06-2.1,4.34-4.3,7.26-4.62,7.26-.71,9.69,9.45,9.33,16.76C365.26,873.1,362.46,928.14,348.38,974.35Z" transform="translate(-80.54 -808.25)"/><path class="cls-4" d="M251.22,1030.47a35,35,0,0,0-5.33-6.25,47,47,0,0,0-8.42-6.27h0c-6.38-3.93-13.44-6.7-20.47-9.43-16.86-6.54-34.53-13.17-52.42-11.35-22.16-12.5-44.73-25.53-60.85-45.2-21.19-26-28.57-62.59-19.07-94.74,1.14-3.8,2.71-7.85,6.13-9.94,2.67-1.59,5.93-1.68,9-1.77,11.38-.13,23-.31,33.85,3.13,18.59,5.91,32.32,21.33,48.52,32.17,13.36,9,28.82,15.15,40.15,26.56a96.34,96.34,0,0,1,10.29,13.3c9.55,14.2,20.41,34.29,21.32,43.87,0,.05,0,.1,0,.15-.14,2.82-.14,5.62,0,8.44C254.54,992.46,259,1013.06,251.22,1030.47Z" transform="translate(-80.54 -808.25)"/><path class="cls-5" d="M476,1129.09c-29.33,11.31-62.7,5.35-91.91-6.3-11.22-4.52-22.46-10.06-30.44-19.13-5.06-5.72-8.65-12.65-13.9-18.16-10.65-11.21-26.1-15-42-16-15,5.61-36.23,24.77-36,38.34,0,0-5.76,6.36-13-.91,2.61-1.3,4.6-2.65,4.39-3.42,8.42-29.25,36.31-48.42,64.18-60.55a11.72,11.72,0,0,1,1.32-.53c.06,0,.06,0,.1,0,26.39-11.34,54.77-19.05,78.21-35.4l.06,0c15.56.84,29.77,10,42.83,18.83,6.52,4.4,13.18,9,17.53,15.49,3.71,5.51,5.44,12.08,7,18.57A482.54,482.54,0,0,1,476,1129.09Z" transform="translate(-80.54 -808.25)"/><path class="cls-6" d="M235.87,1020.6a18,18,0,0,0-3.25-12.24,48.34,48.34,0,0,0-8.71-9.49c-3.26-2.83-6.71-5.66-10.08-8.5s-6.67-5.78-10-8.67q-19.87-17.52-38.63-36.26T129,906.78c-11.66-13.26-22.91-26.9-33.41-41.11,12.46,12.53,24.67,25.22,37,37.83s24.65,25.11,37.08,37.56,24.93,24.81,37.52,37.11l9.46,9.2c3.15,3.11,6.31,6.1,9.46,9.31,1.54,1.63,3,3.33,4.41,5.11a34.54,34.54,0,0,1,3.68,5.71,22,22,0,0,1,2.16,6.44A15.56,15.56,0,0,1,235.87,1020.6Z" transform="translate(-80.54 -808.25)"/><path class="cls-6" d="M142.27,918a71.77,71.77,0,0,1,.39-13,120.88,120.88,0,0,1,2.12-12.6,116.47,116.47,0,0,1,3.41-12.31,70.19,70.19,0,0,1,5.14-11.92,70,70,0,0,1-.39,13,115.82,115.82,0,0,1-2.12,12.6,120.57,120.57,0,0,1-3.41,12.3A71.56,71.56,0,0,1,142.27,918Z" transform="translate(-80.54 -808.25)"/><path class="cls-6" d="M173.51,951.35c1.41-4.31,3-8.32,4.5-12.33s3-7.95,4.37-11.94,2.74-8,4.05-12.05,2.6-8.19,4.21-12.43A42.69,42.69,0,0,1,191.2,916a58.5,58.5,0,0,1-8.85,25.19A43.13,43.13,0,0,1,173.51,951.35Z" transform="translate(-80.54 -808.25)"/><path class="cls-6" d="M197,973.36a144,144,0,0,0,11.45-12.16A104.88,104.88,0,0,0,225,933.46a149.44,149.44,0,0,0,5.28-15.85,44.09,44.09,0,0,1-.63,17.3,56.32,56.32,0,0,1-17.73,29.69A44.19,44.19,0,0,1,197,973.36Z" transform="translate(-80.54 -808.25)"/><path class="cls-6" d="M143.91,917a65.46,65.46,0,0,1-11.18.13c-3.64-.23-7.23-.63-10.8-1.17s-7.13-1.22-10.67-2.08a64.12,64.12,0,0,1-10.63-3.44,44.72,44.72,0,0,1,11.18-1.4,68,68,0,0,1,11,.8,69.37,69.37,0,0,1,10.78,2.52A45.38,45.38,0,0,1,143.91,917Z" transform="translate(-80.54 -808.25)"/><path class="cls-6" d="M173.88,949.71A33.81,33.81,0,0,1,162,956.9a44.11,44.11,0,0,1-27.66.73,33.53,33.53,0,0,1-12.22-6.57c4.59.72,8.89,1.4,13.19,1.79a107,107,0,0,0,12.76.45,105.53,105.53,0,0,0,12.72-1.11C165.07,951.58,169.34,950.68,173.88,949.71Z" transform="translate(-80.54 -808.25)"/><path class="cls-6" d="M197.93,973.57a50.76,50.76,0,0,1-10.6,2.45,84,84,0,0,1-10.61.68,82.21,82.21,0,0,1-10.61-.64,49.66,49.66,0,0,1-10.61-2.42,49.53,49.53,0,0,1,10.6-2.45,82.28,82.28,0,0,1,10.61-.68,83.94,83.94,0,0,1,10.61.65A50.1,50.1,0,0,1,197.93,973.57Z" transform="translate(-80.54 -808.25)"/><path class="cls-6" d="M445.78,1112c-8-10.67-16.22-21-25.1-30.69-1.1-1.21-2.23-2.41-3.37-3.59l-3.39-3.57c-2.3-2.35-4.59-4.65-7-6.93l-3.53-3.35c-1.23-1.15-2.42-2.23-3.64-3.31-2.43-2.16-4.9-4.23-7.47-6.11-10.08-7.72-22.54-11.56-35.43-12.54s-26.16.16-39.43,1.29a173.57,173.57,0,0,1,19.51-4.5q5-.81,10-1.27c3.37-.3,6.75-.37,10.15-.35a72.38,72.38,0,0,1,20.35,3c1.66.49,3.3,1.11,4.91,1.75l2.36,1c.83.36,1.63.74,2.42,1.13a65,65,0,0,1,8.84,5.54,100.21,100.21,0,0,1,7.88,6.55c1.24,1.14,2.48,2.32,3.65,3.47s2.46,2.42,3.58,3.61a192.68,192.68,0,0,1,13.29,15.09A179.71,179.71,0,0,1,445.78,1112Z" transform="translate(-80.54 -808.25)"/><path class="cls-6" d="M380.83,1046a70,70,0,0,1,10.76-7.07,118.1,118.1,0,0,1,11.42-5.45,115,115,0,0,1,11.94-4.22,69.27,69.27,0,0,1,12.61-2.58,68.73,68.73,0,0,1-10.75,7.08,114.8,114.8,0,0,1-11.43,5.44,118.13,118.13,0,0,1-11.94,4.21A70.13,70.13,0,0,1,380.83,1046Z" transform="translate(-80.54 -808.25)"/><path class="cls-6" d="M406.9,1064.16a49.66,49.66,0,0,1,13.84-5.27,67.17,67.17,0,0,1,29.46-.09,49.79,49.79,0,0,1,13.87,5.2c-5,0-9.75-.24-14.49-.37s-9.41-.23-14.1-.22-9.37.11-14.1.29S411.88,1064.13,406.9,1064.16Z" transform="translate(-80.54 -808.25)"/><path class="cls-6" d="M353.77,1039.41a56.48,56.48,0,0,0,.3,6.71l.14,1.63.2,1.64.18,1.62c.07.55.16,1.09.22,1.63.55,4.33,1.16,8.64,1.78,12.95s1.29,8.61,2,12.92c.09.53.17,1.08.25,1.62l.3,1.61c.18,1.08.36,2.16.6,3.22a56.39,56.39,0,0,0,1.62,6.52,16.1,16.1,0,0,1-2.45-2.5c-.37-.46-.72-.94-1.07-1.41s-.62-1-.93-1.49-.6-1-.88-1.52l-.77-1.56a32.93,32.93,0,0,1-1.37-3.19,64.2,64.2,0,0,1-3.94-27.08,31.19,31.19,0,0,1,.41-3.45l.28-1.71c.13-.57.27-1.15.41-1.71s.29-1.13.47-1.69.39-1.11.62-1.66A16.37,16.37,0,0,1,353.77,1039.41Z" transform="translate(-80.54 -808.25)"/><path class="cls-6" d="M405,1060.17c0,.48-.07.92-.1,1.37a7.84,7.84,0,0,0-.08,1.29c0,.87-.05,1.67.05,2.52s.06,1.64.17,2.47c.05.41.07.81.1,1.22s.13.81.16,1.21c.4,3.24,1,6.45,1.54,9.67s1.29,6.43,2,9.66,1.49,6.46,2.55,10a21.38,21.38,0,0,1-7.11-8.25,36.17,36.17,0,0,1-3.54-10.24,33.8,33.8,0,0,1-.3-10.91,18.47,18.47,0,0,1,.55-2.72,16.84,16.84,0,0,1,.89-2.65A13,13,0,0,1,405,1060.17Z" transform="translate(-80.54 -808.25)"/><path class="cls-6" d="M301.35,988.9c1.81-6.17,3.89-12.21,5.92-18.29l6.25-18.1q6.27-18.06,12.43-36.13c4.08-12,8.14-24.1,11.92-36.25l2.77-9.12c.95-3,1.82-6.1,2.69-9.17s1.72-6.13,2.52-9.21,1.59-6.19,2.23-9.33a83.76,83.76,0,0,1-.54,9.63c-.3,3.2-.78,6.38-1.24,9.57q-1.56,9.51-3.76,18.9c-3,12.51-6.59,24.84-10.72,37s-8.76,24.1-13.81,35.87S307.43,977.59,301.35,988.9Z" transform="translate(-80.54 -808.25)"/><path class="cls-6" d="M307.31,974.57a29.22,29.22,0,0,1-7.11-4.09,45.08,45.08,0,0,1-5.81-5.3,44.44,44.44,0,0,1-4.84-6.2,28.94,28.94,0,0,1-3.54-7.4,29,29,0,0,1,7.11,4.09,45.08,45.08,0,0,1,5.81,5.3,45.85,45.85,0,0,1,4.83,6.21A29.39,29.39,0,0,1,307.31,974.57Z" transform="translate(-80.54 -808.25)"/><path class="cls-6" d="M331.28,912.94a29.11,29.11,0,0,1-5.75-5.84,45,45,0,0,1-4.2-6.65,43.69,43.69,0,0,1-3-7.26,28.72,28.72,0,0,1-1.44-8.08,28.9,28.9,0,0,1,5.76,5.84,44.16,44.16,0,0,1,4.19,6.65,46.35,46.35,0,0,1,3,7.27A29.45,29.45,0,0,1,331.28,912.94Z" transform="translate(-80.54 -808.25)"/><path class="cls-6" d="M317.41,951.29a48,48,0,0,1-8.31-8,74.09,74.09,0,0,1-6.6-9.23,62.58,62.58,0,0,1-5-10.28c-.32-.91-.62-1.84-.91-2.76s-.48-1.9-.69-2.85a18.11,18.11,0,0,1-.29-5.92c.29.43.53.85.78,1.25a12.6,12.6,0,0,0,.75,1.2c.58.77,1,1.55,1.58,2.31l1.56,2.28q.81,1.14,1.56,2.28c2.08,3,4.08,6.13,6,9.3s3.69,6.41,5.34,9.77A66.09,66.09,0,0,1,317.41,951.29Z" transform="translate(-80.54 -808.25)"/></svg>