<svg id="ผัก" xmlns="http://www.w3.org/2000/svg" viewBox="0 0 260.7 522.83"><defs><style>.cls-1{fill:#2f4a3d;}.cls-2{fill:#5e867e;}.cls-3{fill:#478971;}.cls-4{fill:#dcd98f;}.cls-5{fill:#547d41;}</style></defs><title>20</title><path class="cls-1" d="M55.64,962.86S39.87,775.31,71.8,775s.2,54.8,22.93,59S79.48,699,110,680s6.75,36,22.84,38.44.24-144,50.52-136.34,38.7,84-21.82,143.78c0,0,25.17-16.75,31.38-3.47s-17.78,76.51-63.86,115.81,28.92-.76,29.37,30.17S55.64,962.86,55.64,962.86Z" transform="translate(23.03 -581.82)"/><path class="cls-2" d="M34.82,987.75S82.27,933,108.72,825.39s65.09-139.8,76.62-196.53c0,0,.11,26.84-19,60.32C139,737,120.84,792.35,111.79,834.63,100.27,888.44,66.07,997.84,34.82,987.75Z" transform="translate(23.03 -581.82)"/><path class="cls-3" d="M45.57,1104.65s29.5-69.57,34.05-122.26,5.74-105.89,26.64-73.45c0,0,3-82.32,24.74-88.47s12.11,19.78,19.5,20.91,23.42-110.77,70-99.92-13.09,92.48-40.33,110.08,27.32-11.91,32.69,8.74S161,928,137.55,932.94s21.57-5.23,22.24,9-6.26,26.27-48.55,60.55S45.57,1104.65,45.57,1104.65Z" transform="translate(23.03 -581.82)"/><path class="cls-4" d="M57.8,1071.62s-9.44-43.19,48.55-116.72,57.9-96,83.27-159.76c0,0-13.75,27-22.4,50.59-16,43.67-45.15,83.92-68.63,111.92C68.71,993.28,34.85,1056,57.8,1071.62Z" transform="translate(23.03 -581.82)"/><path class="cls-5" d="M45.57,1104.65s3.92-83.51-30.6-130.38-15.4-59.89,2.19-54.77-37.42-27.72-40-67.29S-3.2,819.68,10.07,829s-10.7-50.61-18-87.22S-24.1,625.38,32.75,623.09c24.91-1,71.27,14.49,26.84,162s-6-.9,22,8.24S58.44,897.6,65.44,899.89,79.12,878.49,93.12,887,71.06,1079,45.57,1104.65Z" transform="translate(23.03 -581.82)"/><path class="cls-4" d="M45.57,1104.65s18.59-70-4.88-178.33S29,794.21,35.12,713.24c0,0,.58,35.88-2.46,65.42C27,833.41,37.09,891.32,47.51,933.29,60.78,986.68,78.07,1100,45.57,1104.65Z" transform="translate(23.03 -581.82)"/></svg>