<svg id="หัว1" xmlns="http://www.w3.org/2000/svg" viewBox="0 0 232.71 208.45"><defs><style>.cls-1{fill:#f9eed7;}.cls-2{fill:#64a1a0;}.cls-3{fill:#c6d07a;}.cls-4{fill:#406f71;}.cls-5{fill:#92c1b3;}.cls-6{fill:#658269;}.cls-7{fill:#fff;}</style></defs><title>21</title><path class="cls-1" d="M699.18,1007.65s-3.57,29.15-45.85,21.57c-44.55-8-45.91-27.61-45.28-32.73,3.1-25.33,26.88-43.27,53.1-40.06S702.29,982.32,699.18,1007.65Z" transform="translate(-556.95 -822.03)"/><path class="cls-2" d="M618.8,836.17c-5.14,19.69-7.53,41.26.63,59.89.24.55.47,1.06.74,1.6v0c6,12.64,16.17,22.81,24.63,34l0,0a5.35,5.35,0,0,1,.43.54c8.89,11.92,16.08,26.84,12.56,41.31-.28.28.24,1.33,1,2.52h0c1.3,2,3.34,4.2,3.92,3.89a3,3,0,0,0,1.13-2.54c0-.08,0-.12,0-.17.31-6.07-.74-12.27.79-18.12,1.11-4.3,3.56-8.13,5.55-12.13a31.46,31.46,0,0,0,2.3-5.62c2.34-8,0-16.82-4.33-24a52.85,52.85,0,0,0-3.4-5h0a142.55,142.55,0,0,0-13-13.9c-1-1-2-2-3-3C632.45,879.09,617,859,618.8,836.17Z" transform="translate(-556.95 -822.03)"/><path class="cls-3" d="M664.73,959.2c-1.53,5.85-.48,12-.79,18.12,0,0,0,.09,0,.17,4.73-4.89,11.42-10.57,16.25-15s11.38-7.56,17.71-6.44a169.39,169.39,0,0,1,30.36,31.51c1.5,2,3.37,4.33,5.9,4.29s4.24-2.3,4.68-4.66-.25-4.71-.89-7c-3.12-10.9-6.74-22.53-15.66-29.51-.34-.25-.65-.49-1-.71-7.16-5.12-16.27-6.6-25-7.91a60.84,60.84,0,0,0-11-1h0a23,23,0,0,0-5.1.62,17.6,17.6,0,0,0-3.78,1.36,32,32,0,0,0-6.11,4C668.29,951.07,665.84,954.9,664.73,959.2Z" transform="translate(-556.95 -822.03)"/><path class="cls-4" d="M648.74,895.6c1,1,2,2,3,3a142.55,142.55,0,0,1,13,13.9h0a52.85,52.85,0,0,1,3.4,5c4.33,7.14,6.67,15.94,4.33,24a31.46,31.46,0,0,1-2.3,5.62,32,32,0,0,1,6.11-4c.94-9.27,7.82-16.95,12.78-25,.73-1.17,1.42-2.36,2-3.59,0,0,0,0,0-.06a69,69,0,0,0,7.19-42.24,138.22,138.22,0,0,0-3.25-14.23q-4.2-15.76-8.4-31.56c-.37-1.39-.8-2.88-2-3.73-2.91-2.06-6.41,1.66-8,4.86C666.16,848.49,654,872.56,648.74,895.6Z" transform="translate(-556.95 -822.03)"/><path class="cls-5" d="M676.39,943a17.6,17.6,0,0,1,3.78-1.36,23,23,0,0,1,5.1-.62h0a60.84,60.84,0,0,1,11,1c8.75,1.31,17.86,2.79,25,7.91,12.45.07,25.2,0,36.83-4.43a51.51,51.51,0,0,0,31.11-35.61c.44-1.9.75-4-.19-5.72a9,9,0,0,0-3.41-2.94c-4.81-2.82-9.68-5.71-15.14-6.9-9.34-2-18.91,1.22-28.43,1.89-7.86.58-15.92-.57-23.5,1.53a47,47,0,0,0-7.6,3.15c-7.51,3.71-17,9.61-19.72,13.46,0,0,0,0,0,.06-.62,1.23-1.31,2.42-2,3.59C684.21,926.09,677.33,933.77,676.39,943Z" transform="translate(-556.95 -822.03)"/><path class="cls-6" d="M557,930.34c9.71,11.94,25.34,17.51,40.57,19.65,5.87.81,12,1.18,17.58-.73,3.54-1.2,6.75-3.27,10.32-4.34,7.24-2.18,14.72,0,21.71,3.4,5,6,9.37,19.32,6,25,0,0,.9,4.1,5.76,2.78-.79-1.19-1.31-2.24-1-2.52,3.52-14.47-3.67-29.39-12.56-41.31a5.35,5.35,0,0,0-.43-.54l0,0c-8.46-11.22-18.64-21.39-24.63-34v0c-6.82-3.42-15.08-3-22.77-2.4-3.84.28-7.78.61-11.21,2.32-2.91,1.44-5.25,3.81-7.5,6.18A236.61,236.61,0,0,0,557,930.34Z" transform="translate(-556.95 -822.03)"/><path class="cls-7" d="M685.3,942.57a8,8,0,0,1,1.46-2.92,10.92,10.92,0,0,1,2.48-2.21,23.44,23.44,0,0,1,6.06-2.63c4.22-1.15,8.36-2.19,12.54-3.27l12.49-3.29c4.16-1.1,8.32-2.19,12.46-3.36,8.31-2.23,16.59-4.6,24.87-6.95s16.55-4.8,24.89-7.1c-7.92,3.49-16,6.55-24.18,9.36-4.08,1.43-8.21,2.7-12.33,4s-8.29,2.45-12.45,3.6S725.23,930,721,931s-8.42,2-12.66,2.81c-2.12.41-4.23.87-6.36,1.25s-4.27.75-6.35,1.16a23.49,23.49,0,0,0-6,1.92A8.78,8.78,0,0,0,685.3,942.57Z" transform="translate(-556.95 -822.03)"/><path class="cls-7" d="M750,921.72a35.34,35.34,0,0,1,.71-6.31,61.78,61.78,0,0,1,1.54-6.06,56.59,56.59,0,0,1,2.16-5.87,34.45,34.45,0,0,1,3-5.61,35.45,35.45,0,0,1-.71,6.32A59.11,59.11,0,0,1,753,916.11,35.18,35.18,0,0,1,750,921.72Z" transform="translate(-556.95 -822.03)"/><path class="cls-7" d="M728.61,928.31a21.38,21.38,0,0,1-1.29-6.45,28.39,28.39,0,0,1,.44-6.57,27.72,27.72,0,0,1,1.92-6.29,20.91,20.91,0,0,1,3.5-5.57c-.35,2.2-.82,4.25-1.23,6.31s-.83,4.07-1.21,6.1-.72,4.07-1,6.13S729.07,926.13,728.61,928.31Z" transform="translate(-556.95 -822.03)"/><path class="cls-7" d="M713.29,932a21.9,21.9,0,0,1-4.21-7.34,27.58,27.58,0,0,1-.32-16.92,21.59,21.59,0,0,1,3.94-7.5,72.81,72.81,0,0,0-1.61,8,51.89,51.89,0,0,0,.29,15.8A73.22,73.22,0,0,0,713.29,932Z" transform="translate(-556.95 -822.03)"/><path class="cls-7" d="M749.54,920.89a22.2,22.2,0,0,1,5.49.53,34,34,0,0,1,10.08,3.89,22.12,22.12,0,0,1,4.41,3.31,31.3,31.3,0,0,1-5.35-1.12c-1.72-.5-3.39-1.07-5-1.71s-3.27-1.34-4.88-2.13A31.16,31.16,0,0,1,749.54,920.89Z" transform="translate(-556.95 -822.03)"/><path class="cls-7" d="M728.86,927.52c1.69,1.51,3.28,2.94,4.95,4.23a51.54,51.54,0,0,0,10.67,6.47c1.91.88,3.91,1.63,6,2.44a16.32,16.32,0,0,1-6.78-.18,21.07,21.07,0,0,1-6.36-2.58,21.4,21.4,0,0,1-5.22-4.45A16.5,16.5,0,0,1,728.86,927.52Z" transform="translate(-556.95 -822.03)"/><path class="cls-7" d="M712.84,931.81a24.78,24.78,0,0,1,5.1,1.56,39.52,39.52,0,0,1,4.66,2.3,41.13,41.13,0,0,1,4.34,2.86,23.76,23.76,0,0,1,3.91,3.62,24.67,24.67,0,0,1-5.09-1.55,41.28,41.28,0,0,1-4.67-2.3,42.85,42.85,0,0,1-4.34-2.87A25.07,25.07,0,0,1,712.84,931.81Z" transform="translate(-556.95 -822.03)"/><path class="cls-7" d="M573.92,930.44a88.24,88.24,0,0,1,17.32-9.16,96.33,96.33,0,0,1,9.31-3.18c.76-.23,1.59-.45,2.4-.66s1.59-.4,2.39-.58c1.62-.36,3.26-.67,4.94-.88a27.09,27.09,0,0,1,5.1-.16,28.63,28.63,0,0,1,5.06.67,35.36,35.36,0,0,1,9.37,3.67,67,67,0,0,1,15.36,12.23c-5.37-3.7-10.67-7.44-16.44-10.12a32.42,32.42,0,0,0-18.1-3.28c-1.55.17-3.1.44-4.66.77-.78.16-1.54.33-2.35.52l-2.31.58c-3.14.75-6.19,1.68-9.27,2.64A193.87,193.87,0,0,0,573.92,930.44Z" transform="translate(-556.95 -822.03)"/><path class="cls-7" d="M617.55,918.16a33.77,33.77,0,0,1-4.73-4.16,59,59,0,0,1-7.58-9.77,34,34,0,0,1-2.85-5.62,33.3,33.3,0,0,1,4.74,4.16,59.16,59.16,0,0,1,7.57,9.78A34.34,34.34,0,0,1,617.55,918.16Z" transform="translate(-556.95 -822.03)"/><path class="cls-7" d="M602.07,919.54c-2.11-1.22-4.06-2.5-6-3.71s-3.93-2.41-5.92-3.55-4-2.24-6-3.33-4.13-2.14-6.25-3.36a24.44,24.44,0,0,1,7.16,1.16,32.37,32.37,0,0,1,6.64,2.9,32.83,32.83,0,0,1,5.85,4.29A24.77,24.77,0,0,1,602.07,919.54Z" transform="translate(-556.95 -822.03)"/><path class="cls-7" d="M630.65,921.93a14.23,14.23,0,0,1-1.61,6.59,30.92,30.92,0,0,1-3.56,5.72,30.53,30.53,0,0,1-4.69,4.82,14.15,14.15,0,0,1-6,3.15,46.36,46.36,0,0,0,4.33-4.84l4-5c1.31-1.68,2.61-3.36,3.9-5.07A46.38,46.38,0,0,0,630.65,921.93Z" transform="translate(-556.95 -822.03)"/><path class="cls-7" d="M603.86,918.32a8.26,8.26,0,0,1-.49,5.34,16.49,16.49,0,0,1-2.79,4.56,17.54,17.54,0,0,1-4,3.49,10.44,10.44,0,0,1-5,1.78c1.31-1.23,2.4-2.41,3.5-3.62s2.17-2.39,3.21-3.61,2-2.46,3-3.74A21.41,21.41,0,0,0,603.86,918.32Z" transform="translate(-556.95 -822.03)"/><path class="cls-7" d="M665.19,913.2q.24-9.42,1.34-18.76c.32-3.12.79-6.22,1.24-9.32s1.05-6.18,1.6-9.27,1.27-6.15,2-9.21,1.52-6.09,2.44-9.1A89.6,89.6,0,0,1,680.7,840c-1.88,6-3.22,12-4.61,18.12-.63,3-1.33,6.08-1.92,9.14s-1.25,6.09-1.82,9.15-1.19,6.12-1.76,9.18l-1.73,9.19C667.7,900.92,666.6,907.08,665.19,913.2Z" transform="translate(-556.95 -822.03)"/><path class="cls-7" d="M666.14,905.67a14.46,14.46,0,0,1,3.3-2.28,22.39,22.39,0,0,1,3.56-1.46,21.65,21.65,0,0,1,3.75-.84,14.23,14.23,0,0,1,4,0,14.51,14.51,0,0,1-3.3,2.29,23.07,23.07,0,0,1-7.32,2.29A14.16,14.16,0,0,1,666.14,905.67Z" transform="translate(-556.95 -822.03)"/><path class="cls-7" d="M670.92,873.67a14.46,14.46,0,0,1,2.57-3.08,23,23,0,0,1,3-2.36,22,22,0,0,1,3.39-1.8,14,14,0,0,1,3.87-1.08,14.46,14.46,0,0,1-2.57,3.08,22.13,22.13,0,0,1-3.05,2.35,22.52,22.52,0,0,1-3.4,1.81A14.74,14.74,0,0,1,670.92,873.67Z" transform="translate(-556.95 -822.03)"/><path class="cls-7" d="M667.5,893.33a32.92,32.92,0,0,1,4.38-3.48c1.52-1,3.07-2,4.65-2.85s3.17-1.72,4.79-2.5,3.24-1.51,4.91-2.45a12.4,12.4,0,0,1-3.6,4.44,31.14,31.14,0,0,1-4.62,3.15,35.89,35.89,0,0,1-5,2.32A23.58,23.58,0,0,1,667.5,893.33Z" transform="translate(-556.95 -822.03)"/></svg>