<svg id="หัว2" xmlns="http://www.w3.org/2000/svg" viewBox="0 0 263.03 233.52"><defs><style>.cls-1{fill:#f9eed7;}.cls-2{fill:#64a1a0;}.cls-3{fill:#c6d07a;}.cls-4{fill:#406f71;}.cls-5{fill:#92c1b3;}.cls-6{fill:#658269;}.cls-7{fill:#fff;}</style></defs><title>22</title><path class="cls-1" d="M870.73,1032.32s-5.69,32.57-52.8,21.62c-49.64-11.54-50-33.69-49-39.41,5-28.31,32.71-47.11,62-42S875.68,1004,870.73,1032.32Z" transform="translate(-715.25 -822.67)"/><path class="cls-2" d="M790.21,834.87c-6.92,21.85-10.84,46-2.73,67.38.23.64.46,1.22.73,1.85v0c6,14.55,16.88,26.57,25.74,39.68,0,0,0,0,0,.05a7.42,7.42,0,0,1,.46.64c9.31,13.91,16.53,31.1,11.74,47.17-.33.29.19,1.51,1,2.89h0c1.34,2.29,3.51,4.91,4.18,4.6,1-.47,1.29-1.71,1.41-2.8,0-.08,0-.13,0-.19.7-6.8-.13-13.83,1.93-20.33,1.5-4.76,4.47-8.93,6.94-13.31a35.6,35.6,0,0,0,2.9-6.19c3.1-8.88,1-18.91-3.49-27.2a61.49,61.49,0,0,0-3.53-5.75h0c-4.08-5.85-9-11.12-13.86-16.39-1.09-1.17-2.17-2.37-3.25-3.57C803.09,883.93,786.87,860.47,790.21,834.87Z" transform="translate(-715.25 -822.67)"/><path class="cls-3" d="M834.78,975.85c-2.06,6.5-1.23,13.53-1.93,20.33,0,.06,0,.11,0,.19,5.6-5.22,13.46-11.23,19.14-15.92s13.24-7.85,20.28-6.23a190.43,190.43,0,0,1,32.33,37.18c1.57,2.38,3.54,5.07,6.38,5.17,2.69.07,4.91-2.35,5.54-5s0-5.32-.6-8c-2.88-12.43-6.28-25.72-15.91-34.08-.37-.3-.7-.59-1.07-.86-7.76-6.17-17.92-8.36-27.68-10.34a68.72,68.72,0,0,0-12.3-1.72h0a26.47,26.47,0,0,0-5.76.4,19.58,19.58,0,0,0-4.34,1.32,35.36,35.36,0,0,0-7.09,4.18C839.25,966.92,836.28,971.09,834.78,975.85Z" transform="translate(-715.25 -822.67)"/><path class="cls-4" d="M820.46,903.43c1.08,1.2,2.16,2.4,3.25,3.57,4.85,5.27,9.78,10.54,13.86,16.39h0a61.49,61.49,0,0,1,3.53,5.75c4.46,8.29,6.59,18.32,3.49,27.2a35.6,35.6,0,0,1-2.9,6.19,35.36,35.36,0,0,1,7.09-4.18c1.6-10.38,9.78-18.61,15.82-27.38.89-1.29,1.72-2.58,2.5-3.93,0,0,0,0,0-.07a77.62,77.62,0,0,0,10.51-47.08,158.24,158.24,0,0,0-2.84-16.18q-3.81-18-7.63-36c-.33-1.59-.73-3.29-2-4.31-3.16-2.48-7.31,1.5-9.31,5C842.76,851.46,827.68,877.81,820.46,903.43Z" transform="translate(-715.25 -822.67)"/><path class="cls-5" d="M848.81,958.36a19.58,19.58,0,0,1,4.34-1.32,26.47,26.47,0,0,1,5.76-.4h0a68.72,68.72,0,0,1,12.3,1.72c9.76,2,19.92,4.17,27.68,10.34,14,.79,28.34,1.46,41.66-2.86a58,58,0,0,0,37-38.26c.61-2.1,1.08-4.44.12-6.43a10.22,10.22,0,0,0-3.67-3.51c-5.24-3.44-10.56-7-16.62-8.62-10.38-2.79-21.34.27-32.07.48-8.88.2-17.87-1.55-26.52.37a52.46,52.46,0,0,0-8.73,3.1c-8.66,3.75-19.67,9.83-22.94,14,0,0,0,0,0,.07-.78,1.35-1.61,2.64-2.5,3.93C858.59,939.75,850.41,948,848.81,958.36Z" transform="translate(-715.25 -822.67)"/><path class="cls-6" d="M715.25,937.21c10.23,14,27.48,21.14,44.49,24.42,6.55,1.25,13.4,2,19.81.19,4-1.14,7.77-3.29,11.84-4.28,8.28-2,16.56.82,24.22,5.07,5.29,7.07,9.43,22.26,5.29,28.49,0,0,.78,4.66,6.31,3.46-.82-1.38-1.34-2.6-1-2.89,4.79-16.07-2.43-33.26-11.74-47.17a7.42,7.42,0,0,0-.46-.64s0,0,0-.05c-8.86-13.11-19.73-25.13-25.74-39.68v0c-7.47-4.24-16.78-4.23-25.47-4-4.32.1-8.78.23-12.73,2-3.36,1.46-6.12,4-8.79,6.52A265.92,265.92,0,0,0,715.25,937.21Z" transform="translate(-715.25 -822.67)"/><path class="cls-7" d="M858.87,958.35a8.74,8.74,0,0,1,1.8-3.21,12.27,12.27,0,0,1,2.92-2.34,26.69,26.69,0,0,1,7-2.61c4.8-1.05,9.52-2,14.28-3l14.23-3c4.74-1,9.49-2,14.21-3.07s9.46-2.08,14.19-3.14l14.18-3.24c9.44-2.19,18.88-4.44,28.39-6.55-9.1,3.47-18.37,6.44-27.73,9.13-4.66,1.38-9.38,2.57-14.09,3.8s-9.46,2.28-14.21,3.34-9.53,2-14.31,2.89-9.58,1.72-14.39,2.43c-2.41.34-4.81.73-7.23,1s-4.85.6-7.2.94a26.7,26.7,0,0,0-6.86,1.81A9.86,9.86,0,0,0,858.87,958.35Z" transform="translate(-715.25 -822.67)"/><path class="cls-7" d="M932.8,938.62a39.87,39.87,0,0,1,1.17-7.06,67.77,67.77,0,0,1,2.07-6.72,66.93,66.93,0,0,1,2.77-6.47,39.13,39.13,0,0,1,3.68-6.14,38.83,38.83,0,0,1-1.16,7.06,63.78,63.78,0,0,1-2.08,6.72,66.93,66.93,0,0,1-2.77,6.47A39.91,39.91,0,0,1,932.8,938.62Z" transform="translate(-715.25 -822.67)"/><path class="cls-7" d="M908.39,944.79a23.4,23.4,0,0,1-1.08-7.32,32.12,32.12,0,0,1,3.38-14.32,23.62,23.62,0,0,1,4.26-6.06c-.52,2.45-1.16,4.73-1.75,7s-1.17,4.53-1.71,6.79-1,4.53-1.52,6.84S909,942.37,908.39,944.79Z" transform="translate(-715.25 -822.67)"/><path class="cls-7" d="M891,948a24.49,24.49,0,0,1-4.31-8.5,31.07,31.07,0,0,1,.61-19,24.51,24.51,0,0,1,4.86-8.21,81.07,81.07,0,0,0-2.27,8.92,57.7,57.7,0,0,0-.58,17.79A79.84,79.84,0,0,0,891,948Z" transform="translate(-715.25 -822.67)"/><path class="cls-7" d="M932.34,937.66a25.44,25.44,0,0,1,6.14.91,39.25,39.25,0,0,1,11.12,4.95,25.22,25.22,0,0,1,4.76,4,35.33,35.33,0,0,1-6-1.57c-1.9-.65-3.75-1.39-5.57-2.21s-3.6-1.69-5.36-2.67A36.16,36.16,0,0,1,932.34,937.66Z" transform="translate(-715.25 -822.67)"/><path class="cls-7" d="M908.71,943.92c1.81,1.8,3.52,3.49,5.32,5.05a59.84,59.84,0,0,0,5.57,4.29,58,58,0,0,0,6,3.59c2.11,1.1,4.31,2.07,6.65,3.1a18.54,18.54,0,0,1-7.62-.59,24.24,24.24,0,0,1-12.61-8.57A18.51,18.51,0,0,1,908.71,943.92Z" transform="translate(-715.25 -822.67)"/><path class="cls-7" d="M890.45,947.83a28,28,0,0,1,5.64,2,45.4,45.4,0,0,1,5.11,2.85,46.92,46.92,0,0,1,4.72,3.47,27.57,27.57,0,0,1,4.19,4.3,27.18,27.18,0,0,1-5.64-2,43.15,43.15,0,0,1-5.11-2.86,44,44,0,0,1-4.72-3.47A28.41,28.41,0,0,1,890.45,947.83Z" transform="translate(-715.25 -822.67)"/><path class="cls-7" d="M734.33,938.3a98.85,98.85,0,0,1,20-9.31A107.72,107.72,0,0,1,765,926c.87-.22,1.8-.41,2.73-.61s1.81-.35,2.73-.51c1.83-.31,3.7-.57,5.6-.71a31.52,31.52,0,0,1,5.74.12c1,.12,2,.22,2.85.4s1.88.37,2.8.64A40,40,0,0,1,797.76,930a75.55,75.55,0,0,1,16.56,14.64c-5.81-4.47-11.57-9-17.9-12.33a41.84,41.84,0,0,0-9.81-3.85c-.85-.2-1.69-.38-2.56-.53s-1.73-.22-2.59-.32a27.35,27.35,0,0,0-5.2,0c-1.75.1-3.51.31-5.28.59-.89.14-1.76.29-2.67.46l-2.63.52c-3.58.66-7.07,1.53-10.59,2.43C748.09,933.39,741.2,935.72,734.33,938.3Z" transform="translate(-715.25 -822.67)"/><path class="cls-7" d="M784.09,927a39.05,39.05,0,0,1-5.08-5,65,65,0,0,1-4.28-5.51,62.94,62.94,0,0,1-3.68-5.92,37.86,37.86,0,0,1-2.88-6.48,37.81,37.81,0,0,1,5.08,5,65.9,65.9,0,0,1,8,11.43A39,39,0,0,1,784.09,927Z" transform="translate(-715.25 -822.67)"/><path class="cls-7" d="M766.6,927.66c-2.3-1.5-4.42-3-6.58-4.52s-4.28-2.93-6.45-4.33-4.36-2.76-6.6-4.1-4.52-2.65-6.83-4.13a27.56,27.56,0,0,1,8,1.71,36.36,36.36,0,0,1,7.3,3.65,37,37,0,0,1,6.34,5.16A27.44,27.44,0,0,1,766.6,927.66Z" transform="translate(-715.25 -822.67)"/><path class="cls-7" d="M798.6,932a11.21,11.21,0,0,1-.66,3.8,16.29,16.29,0,0,1-.69,1.8c-.25.59-.54,1.16-.84,1.72a35.54,35.54,0,0,1-9.88,11.38c-.51.38-1,.74-1.59,1.07a16.1,16.1,0,0,1-1.68.94,11.35,11.35,0,0,1-3.67,1.18,53.48,53.48,0,0,0,5.14-5.19c1.62-1.79,3.19-3.59,4.78-5.4s3.13-3.63,4.67-5.47A52.44,52.44,0,0,0,798.6,932Z" transform="translate(-715.25 -822.67)"/><path class="cls-7" d="M768.68,926.38a9.25,9.25,0,0,1-.86,6,18.54,18.54,0,0,1-3.39,5,19.6,19.6,0,0,1-4.69,3.7,11.83,11.83,0,0,1-5.75,1.71c1.54-1.31,2.84-2.58,4.15-3.87s2.57-2.57,3.81-3.88,2.44-2.64,3.59-4A24.06,24.06,0,0,0,768.68,926.38Z" transform="translate(-715.25 -822.67)"/><path class="cls-7" d="M837.94,924.16q.82-10.57,2.58-21c.55-3.49,1.25-6.95,1.93-10.42s1.54-6.89,2.35-10.33,1.77-6.84,2.76-10.23,2.06-6.77,3.26-10.1,2.48-6.64,3.89-9.89a71.31,71.31,0,0,1,4.88-9.43c-2.45,6.62-4.32,13.37-6.22,20.12-.89,3.39-1.85,6.75-2.69,10.16s-1.75,6.78-2.57,10.19-1.7,6.81-2.51,10.22l-2.48,10.23C841.47,910.5,839.88,917.36,837.94,924.16Z" transform="translate(-715.25 -822.67)"/><path class="cls-7" d="M839.44,915.75a16.09,16.09,0,0,1,3.84-2.37,24.55,24.55,0,0,1,4.09-1.44,24.27,24.27,0,0,1,4.27-.73,15.73,15.73,0,0,1,4.51.22,16.26,16.26,0,0,1-3.84,2.38A26,26,0,0,1,844,916,16.1,16.1,0,0,1,839.44,915.75Z" transform="translate(-715.25 -822.67)"/><path class="cls-7" d="M846.66,880a15.73,15.73,0,0,1,3.07-3.31,25.59,25.59,0,0,1,7.48-4.32,16,16,0,0,1,4.41-1,16.06,16.06,0,0,1-3.07,3.32,25.42,25.42,0,0,1-3.56,2.47,25,25,0,0,1-3.92,1.83A16.33,16.33,0,0,1,846.66,880Z" transform="translate(-715.25 -822.67)"/><path class="cls-7" d="M841.68,902a37.39,37.39,0,0,1,5.13-3.66c1.77-1.07,3.56-2,5.39-2.94s3.66-1.75,5.53-2.54,3.73-1.51,5.66-2.46A10.33,10.33,0,0,1,861.5,893a22,22,0,0,1-2.41,2.13,35,35,0,0,1-5.38,3.28,40.32,40.32,0,0,1-5.8,2.32A26.66,26.66,0,0,1,841.68,902Z" transform="translate(-715.25 -822.67)"/></svg>