<svg id="หัว3" xmlns="http://www.w3.org/2000/svg" viewBox="0 0 229.47 209.61"><defs><style>.cls-1{fill:#f9eed7;}.cls-2{fill:#64a1a0;}.cls-3{fill:#c6d07a;}.cls-4{fill:#406f71;}.cls-5{fill:#92c1b3;}.cls-6{fill:#658269;}.cls-7{fill:#fff;}</style></defs><title>23</title><path class="cls-1" d="M1001.24,1064.27s-.64,29.39-43.51,26.08c-45.18-3.49-48.49-22.9-48.38-28.06.55-25.55,22.44-45.79,48.88-45.22S1001.79,1038.73,1001.24,1064.27Z" transform="translate(-851.83 -881)"/><path class="cls-2" d="M904,901.53c-3.15,20.13-3.37,41.85,6.62,59.58.3.54.58,1,.9,1.53v0c7.23,12,18.4,21.09,27.94,31.43,0,0,0,0,0,0a4.62,4.62,0,0,1,.49.5c10,11,18.71,25.12,16.65,39.88-.25.3.37,1.3,1.28,2.41h0c1.49,1.84,3.74,3.85,4.29,3.49a3,3,0,0,0,.87-2.65c0-.07,0-.12,0-.17-.3-6.07-2-12.14-1-18.13.68-4.39,2.73-8.45,4.31-12.63a31.24,31.24,0,0,0,1.73-5.83c1.53-8.22-1.69-16.75-6.72-23.43a51.43,51.43,0,0,0-3.88-4.59h0a142.24,142.24,0,0,0-14.38-12.54c-1.11-.89-2.23-1.8-3.34-2.71C921.89,942.92,904.49,924.48,904,901.53Z" transform="translate(-851.83 -881)"/><path class="cls-3" d="M962.07,1019.46c-.94,6,.73,12.06,1,18.13,0,.05,0,.1,0,.17,4.22-5.34,10.32-11.67,14.68-16.56s10.59-8.67,17-8.19a169.47,169.47,0,0,1,33.4,28.34c1.69,1.88,3.78,4,6.3,3.69,2.37-.3,4-2.73,4.19-5.12s-.72-4.67-1.59-6.9c-4.19-10.54-9-21.77-18.55-27.82-.36-.22-.7-.42-1.06-.62-7.64-4.38-16.87-4.94-25.71-5.37a60.71,60.71,0,0,0-11,.14h0a23.12,23.12,0,0,0-5,1.13,17.32,17.32,0,0,0-3.63,1.74,31.87,31.87,0,0,0-5.68,4.62C964.8,1011,962.75,1015.07,962.07,1019.46Z" transform="translate(-851.83 -881)"/><path class="cls-4" d="M939.77,957.73c1.11.91,2.23,1.82,3.34,2.71A142.24,142.24,0,0,1,957.49,973h0a51.43,51.43,0,0,1,3.88,4.59c5,6.68,8.25,15.21,6.72,23.43a31.24,31.24,0,0,1-1.73,5.83,31.87,31.87,0,0,1,5.68-4.62c0-9.34,6.09-17.67,10.23-26.19.61-1.25,1.17-2.5,1.67-3.79,0,0,0,0,0-.06a69,69,0,0,0,2.93-42.79,140.78,140.78,0,0,0-4.66-13.85q-5.78-15.28-11.54-30.59c-.5-1.35-1.08-2.79-2.32-3.51-3.11-1.77-6.22,2.29-7.52,5.64C952.4,909.06,942.68,934.25,939.77,957.73Z" transform="translate(-851.83 -881)"/><path class="cls-5" d="M972.06,1002.21a17.32,17.32,0,0,1,3.63-1.74,23.12,23.12,0,0,1,5-1.13h0a60.71,60.71,0,0,1,11-.14c8.84.43,18.07,1,25.71,5.37,12.41-1.18,25.11-2.51,36.24-8.09a51.59,51.59,0,0,0,27.42-38.59c.25-1.93.35-4.06-.76-5.67a9,9,0,0,0-3.69-2.59c-5.07-2.33-10.22-4.72-15.77-5.36-9.5-1-18.72,3.11-28.13,4.73-7.77,1.37-15.91,1-23.26,3.88a47.35,47.35,0,0,0-7.25,3.9c-7.11,4.45-16,11.27-18.29,15.38,0,0,0,0,0,.06-.5,1.29-1.06,2.54-1.67,3.79C978.15,984.54,972.07,992.87,972.06,1002.21Z" transform="translate(-851.83 -881)"/><path class="cls-6" d="M851.83,1001.53c10.87,10.91,27,14.89,42.38,15.5,5.92.21,12,0,17.43-2.49,3.41-1.55,6.39-3.94,9.84-5.36,7-2.89,14.66-1.5,22,1.21,5.61,5.51,11.28,18.31,8.47,24.34,0,0,1.31,4,6,2.19-.91-1.11-1.53-2.11-1.28-2.41,2.06-14.76-6.6-28.9-16.65-39.88a4.62,4.62,0,0,0-.49-.5s0,0,0,0c-9.54-10.34-20.71-19.45-27.94-31.43v0c-7.14-2.72-15.31-1.46-22.92-.11-3.79.67-7.69,1.38-10.93,3.44-2.76,1.72-4.84,4.32-6.85,6.9A236.68,236.68,0,0,0,851.83,1001.53Z" transform="translate(-851.83 -881)"/><path class="cls-7" d="M980.89,1000.85a7.93,7.93,0,0,1,1.11-3.09,10.89,10.89,0,0,1,2.24-2.5,23.75,23.75,0,0,1,5.77-3.32c4.08-1.61,8.08-3.09,12.13-4.61l12.08-4.59c4-1.52,8.06-3,12.06-4.61s8-3.09,12.06-4.65l12-4.69c8-3.14,16-6.3,24.19-9.29-7.47,4.41-15.19,8.34-23,12-3.91,1.87-7.89,3.55-11.86,5.29s-8,3.28-12,4.86-8.11,3-12.2,4.44-8.21,2.77-12.35,4c-2.08.61-4.14,1.26-6.23,1.84s-4.2,1.14-6.22,1.73a24,24,0,0,0-5.79,2.42A8.83,8.83,0,0,0,980.89,1000.85Z" transform="translate(-851.83 -881)"/><path class="cls-7" d="M1043.23,973.6a29,29,0,0,1-.21-6.42,49.58,49.58,0,0,1,.85-6.21,46.14,46.14,0,0,1,1.64-6,28.6,28.6,0,0,1,2.7-5.83,28.36,28.36,0,0,1,.21,6.42,45.91,45.91,0,0,1-.85,6.21,49.5,49.5,0,0,1-1.64,6A29.72,29.72,0,0,1,1043.23,973.6Z" transform="translate(-851.83 -881)"/><path class="cls-7" d="M1022.6,982.3a18.87,18.87,0,0,1-2.22-6.28,26.11,26.11,0,0,1,1.06-13.12,18.76,18.76,0,0,1,3.22-5.83c0,2.27-.16,4.37-.32,6.46l-.5,6.17-.51,6.17C1023.15,978,1023,980.06,1022.6,982.3Z" transform="translate(-851.83 -881)"/><path class="cls-7" d="M1007.71,987.46a20,20,0,0,1-5.2-6.79,26.39,26.39,0,0,1-2-17,20.2,20.2,0,0,1,3.46-7.82c-.26,2.85-.48,5.52-.51,8.18a61.91,61.91,0,0,0,.41,7.84,59.37,59.37,0,0,0,1.45,7.73C1005.93,982.21,1006.78,984.76,1007.71,987.46Z" transform="translate(-851.83 -881)"/><path class="cls-7" d="M1042.7,972.82a18.87,18.87,0,0,1,5.58-.31,29,29,0,0,1,10.46,2.87,18.8,18.8,0,0,1,4.63,3.13,25.09,25.09,0,0,1-5.53-.3,42.91,42.91,0,0,1-5.2-1.12,46.66,46.66,0,0,1-5-1.7A25.89,25.89,0,0,1,1042.7,972.82Z" transform="translate(-851.83 -881)"/><path class="cls-7" d="M1022.76,981.49c2,1.24,3.73,2.42,5.54,3.49s3.6,2,5.45,2.92,3.74,1.67,5.7,2.4,4,1.36,6.2,2.11a15.29,15.29,0,0,1-6.84.79,20.46,20.46,0,0,1-12.35-5.9A15.31,15.31,0,0,1,1022.76,981.49Z" transform="translate(-851.83 -881)"/><path class="cls-7" d="M1007.24,987.37a20.57,20.57,0,0,1,5.35.77,32.89,32.89,0,0,1,4.91,1.75,33.33,33.33,0,0,1,4.58,2.49,20.36,20.36,0,0,1,4.14,3.48,20.15,20.15,0,0,1-5.35-.77,31.81,31.81,0,0,1-4.91-1.75,33.4,33.4,0,0,1-4.58-2.5A20.91,20.91,0,0,1,1007.24,987.37Z" transform="translate(-851.83 -881)"/><path class="cls-7" d="M868.74,999.92A82.46,82.46,0,0,1,885,988.8a94.27,94.27,0,0,1,8.95-4.17c.73-.31,1.54-.61,2.33-.91l2.34-.82c1.58-.53,3.19-1,4.85-1.39a28.14,28.14,0,0,1,5.13-.67c.87,0,1.77-.06,2.58,0s1.73.08,2.58.2a35.63,35.63,0,0,1,9.77,2.8,63.89,63.89,0,0,1,16.42,10.92c-5.8-3-11.5-6.15-17.49-8.17a32.53,32.53,0,0,0-18.17-1.36c-1.51.32-3,.73-4.53,1.21-.76.24-1.5.49-2.28.76l-2.24.79c-3.06,1-6,2.26-9,3.49C880.3,994,874.53,996.86,868.74,999.92Z" transform="translate(-851.83 -881)"/><path class="cls-7" d="M911,983.32a28.18,28.18,0,0,1-5.34-3.47,45.48,45.48,0,0,1-4.56-4.21,46.57,46.57,0,0,1-4-4.76,28.21,28.21,0,0,1-3.19-5.52,28.18,28.18,0,0,1,5.34,3.47,47.35,47.35,0,0,1,8.53,9A28.94,28.94,0,0,1,911,983.32Z" transform="translate(-851.83 -881)"/><path class="cls-7" d="M895.69,986.25c-2.32-.89-4.44-1.89-6.55-2.85l-6.25-2.85-6.28-2.77c-2.12-.94-4.27-1.85-6.47-3a21.92,21.92,0,0,1,7.32.15,30.31,30.31,0,0,1,13.24,6A22,22,0,0,1,895.69,986.25Z" transform="translate(-851.83 -881)"/><path class="cls-7" d="M924.39,985.76a9.32,9.32,0,0,1,.1,3.49,13.42,13.42,0,0,1-.31,1.7c-.13.57-.29,1.12-.47,1.66a28.52,28.52,0,0,1-7.2,11.39,15.34,15.34,0,0,1-1.29,1.13,13,13,0,0,1-1.41,1,9.39,9.39,0,0,1-3.19,1.4c1.4-1.83,2.45-3.63,3.6-5.44l3.38-5.39,3.43-5.37C922.17,989.54,923.35,987.82,924.39,985.76Z" transform="translate(-851.83 -881)"/><path class="cls-7" d="M897.34,984.85a7.9,7.9,0,0,1,.32,5.48,15.47,15.47,0,0,1-2.28,4.92,16.47,16.47,0,0,1-3.72,3.87,9.83,9.83,0,0,1-5,2.07c1.09-1.5,2-2.82,2.92-4.16l2.72-3.93c.9-1.3,1.79-2.59,2.66-3.92A26.34,26.34,0,0,0,897.34,984.85Z" transform="translate(-851.83 -881)"/><path class="cls-7" d="M957.92,973.61a179.61,179.61,0,0,1-.84-18.83c0-3.15.13-6.28.24-9.42s.42-6.27.65-9.41.66-6.26,1.08-9.37.93-6.23,1.58-9.32a84.24,84.24,0,0,1,5.4-18.11c-1.12,6.19-1.77,12.38-2.49,18.56-.29,3.1-.67,6.19-.93,9.29s-.62,6.19-.88,9.29L960,954.92C959.42,961.13,958.86,967.38,957.92,973.61Z" transform="translate(-851.83 -881)"/><path class="cls-7" d="M958.11,966a12.31,12.31,0,0,1,2.94-2.88,18.31,18.31,0,0,1,3.37-1.88,17.66,17.66,0,0,1,3.68-1.14,12.22,12.22,0,0,1,4.12-.15,12.16,12.16,0,0,1-3,2.88,17.66,17.66,0,0,1-3.36,1.88,18.58,18.58,0,0,1-3.69,1.14A12.69,12.69,0,0,1,958.11,966Z" transform="translate(-851.83 -881)"/><path class="cls-7" d="M959.66,933.66a12.22,12.22,0,0,1,2.08-3.55,17.61,17.61,0,0,1,2.74-2.72,18.53,18.53,0,0,1,3.25-2.08,12.24,12.24,0,0,1,3.93-1.23,12.62,12.62,0,0,1-2.07,3.56,18.32,18.32,0,0,1-6,4.78A12.58,12.58,0,0,1,959.66,933.66Z" transform="translate(-851.83 -881)"/><path class="cls-7" d="M958.23,953.59a25.68,25.68,0,0,1,3.86-4.16,45.44,45.44,0,0,1,4.28-3.36c1.47-1,3-2,4.55-2.9s3.14-1.69,4.83-2.7a8.41,8.41,0,0,1-1.18,2.73,18.09,18.09,0,0,1-1.78,2.28,26.41,26.41,0,0,1-4.25,3.68,30.5,30.5,0,0,1-4.85,2.76A20.41,20.41,0,0,1,958.23,953.59Z" transform="translate(-851.83 -881)"/></svg>