<svg id="หัว4" xmlns="http://www.w3.org/2000/svg" viewBox="0 0 238.31 221.98"><defs><style>.cls-1{fill:#f9eed7;}.cls-2{fill:#64a1a0;}.cls-3{fill:#c6d07a;}.cls-4{fill:#406f71;}.cls-5{fill:#92c1b3;}.cls-6{fill:#658269;}.cls-7{fill:#fff;}</style></defs><title>24</title><path class="cls-1" d="M761.46,1104.53s2,31.1-43.61,31.47c-48,.39-53.28-19.83-53.63-25.29-1.72-27,19.57-50.39,47.55-52.17S759.74,1077.49,761.46,1104.53Z" transform="translate(-597.98 -914.02)"/><path class="cls-2" d="M644.07,941.39c-1.51,21.55.21,44.51,12.37,62.34.36.53.7,1,1.08,1.53l0,0c8.71,12,21.33,20.62,32.34,30.68,0,0,0,0,.05,0a5.07,5.07,0,0,1,.56.48c11.6,10.69,22,24.85,21.18,40.63-.24.34.51,1.34,1.57,2.43h0c1.74,1.8,4.3,3.73,4.84,3.3a3.13,3.13,0,0,0,.68-2.88c0-.08,0-.13,0-.18-.87-6.39-3.17-12.65-2.73-19.06.33-4.69,2.13-9.17,3.42-13.73a33.2,33.2,0,0,0,1.3-6.31c.88-8.82-3.29-17.54-9.21-24.15A56.2,56.2,0,0,0,707,1012h0c-5-4.46-10.72-8.2-16.32-12-1.26-.83-2.52-1.7-3.77-2.56C666.71,983.49,646.66,965.58,644.07,941.39Z" transform="translate(-597.98 -914.02)"/><path class="cls-3" d="M716,1060.72c-.44,6.41,1.86,12.67,2.73,19.06,0,0,0,.1,0,.18,4-6,9.85-13.26,14-18.82S743.21,1051,750,1051a179.47,179.47,0,0,1,37.84,26.93c2,1.83,4.36,3.86,7,3.33,2.47-.53,4-3.24,4-5.78s-1.19-4.87-2.3-7.15c-5.39-10.76-11.44-22.19-22.11-27.72-.4-.19-.77-.38-1.17-.55-8.47-3.94-18.26-3.7-27.65-3.35a62.94,62.94,0,0,0-11.65,1.14h0a24.94,24.94,0,0,0-5.2,1.64,18.44,18.44,0,0,0-3.68,2.17,33.91,33.91,0,0,0-5.58,5.39C718.17,1051.55,716.37,1056,716,1060.72Z" transform="translate(-597.98 -914.02)"/><path class="cls-4" d="M686.93,997.52c1.25.86,2.51,1.73,3.77,2.56,5.6,3.76,11.29,7.5,16.32,12h0a56.2,56.2,0,0,1,4.51,4.49c5.92,6.61,10.09,15.33,9.21,24.15a33.2,33.2,0,0,1-1.3,6.31,33.91,33.91,0,0,1,5.58-5.39c-.83-9.86,4.85-19.22,8.45-28.59.53-1.37,1-2.74,1.42-4.15,0,0,0-.05,0-.07a73.05,73.05,0,0,0-.77-45.46A149,149,0,0,0,728,949.12c-5-10.41-10-20.86-14.94-31.27-.65-1.39-1.4-2.85-2.78-3.51-3.44-1.58-6.36,3-7.42,6.64C695.88,945,687.89,972.46,686.93,997.52Z" transform="translate(-597.98 -914.02)"/><path class="cls-5" d="M725,1041.6a18.44,18.44,0,0,1,3.68-2.17,24.94,24.94,0,0,1,5.2-1.64h0a62.94,62.94,0,0,1,11.65-1.14c9.39-.35,19.18-.59,27.65,3.35,13-2.36,26.29-4.92,37.54-11.82A54.67,54.67,0,0,0,836.27,985c.09-2.06,0-4.32-1.32-5.93a9.58,9.58,0,0,0-4.13-2.4c-5.56-2-11.22-4.06-17.14-4.23-10.13-.26-19.49,5-29.28,7.53-8.09,2.14-16.72,2.52-24.22,6.19a50.6,50.6,0,0,0-7.31,4.77c-7.1,5.34-15.85,13.36-17.93,17.9,0,0,0,0,0,.07-.41,1.41-.89,2.78-1.42,4.15C729.89,1022.38,724.21,1031.74,725,1041.6Z" transform="translate(-597.98 -914.02)"/><path class="cls-6" d="M598,1051.72c12.47,10.54,29.85,13.3,46.16,12.55,6.28-.31,12.74-1.11,18.2-4.2,3.45-1.94,6.39-4.73,9.91-6.55,7.13-3.68,15.35-2.9,23.31-.7,6.41,5.31,13.55,18.32,11.13,24.94,0,0,1.75,4.1,6.56,1.78-1.06-1.09-1.81-2.09-1.57-2.43.84-15.78-9.58-29.94-21.18-40.63a5.07,5.07,0,0,0-.56-.48s0,0-.05,0c-11-10.06-23.63-18.67-32.34-30.68l0,0c-7.78-2.23-16.3-.16-24.22,2-3.94,1-8,2.16-11.23,4.62-2.76,2.07-4.73,5-6.62,7.91A250.73,250.73,0,0,0,598,1051.72Z" transform="translate(-597.98 -914.02)"/><path class="cls-7" d="M734.25,1039.36a8.27,8.27,0,0,1,1-3.33,11.18,11.18,0,0,1,2.16-2.78,24.77,24.77,0,0,1,5.81-3.93c4.17-2,8.29-3.91,12.44-5.85l12.38-5.88c4.12-2,8.25-3.91,12.34-5.94s8.22-4,12.31-6l12.27-6.1c8.17-4.1,16.32-8.25,24.56-12.29-7.57,5.18-15.42,10-23.4,14.47-4,2.29-8,4.42-12.07,6.59s-8.17,4.18-12.29,6.2-8.28,3.93-12.47,5.81-8.39,3.69-12.65,5.41c-2.13.85-4.24,1.73-6.39,2.55s-4.3,1.62-6.39,2.45a25.14,25.14,0,0,0-5.88,3.19A9.34,9.34,0,0,0,734.25,1039.36Z" transform="translate(-597.98 -914.02)"/><path class="cls-7" d="M797.64,1005a38.36,38.36,0,0,1-.47-6.73,66.16,66.16,0,0,1,1.52-13.16,38.16,38.16,0,0,1,2-6.43,36.48,36.48,0,0,1,.47,6.72,63.35,63.35,0,0,1-1.53,13.16A37.6,37.6,0,0,1,797.64,1005Z" transform="translate(-597.98 -914.02)"/><path class="cls-7" d="M776.63,1016a22.81,22.81,0,0,1-2.58-6.48,30.42,30.42,0,0,1-.06-13.86,22.55,22.55,0,0,1,2.54-6.5c.06,2.36,0,4.59-.07,6.81s-.08,4.42-.08,6.61,0,4.39.12,6.6S776.67,1013.65,776.63,1016Z" transform="translate(-597.98 -914.02)"/><path class="cls-7" d="M761.37,1022.81a22.94,22.94,0,0,1-5.8-6.85,29,29,0,0,1-3.21-8.5,28.55,28.55,0,0,1-.43-9.08,22.94,22.94,0,0,1,2.6-8.59,79.19,79.19,0,0,0-.14,8.68,56.75,56.75,0,0,0,1.07,8.35,55.09,55.09,0,0,0,2.33,8.08A76.67,76.67,0,0,0,761.37,1022.81Z" transform="translate(-597.98 -914.02)"/><path class="cls-7" d="M797,1004.18a24,24,0,0,1,5.82-.5,35.23,35.23,0,0,1,5.72.6,37.05,37.05,0,0,1,5.56,1.48,23.86,23.86,0,0,1,5.25,2.57,34.84,34.84,0,0,1-5.8-.14q-2.82-.29-5.59-.8c-1.84-.35-3.67-.76-5.5-1.26A34.68,34.68,0,0,1,797,1004.18Z" transform="translate(-597.98 -914.02)"/><path class="cls-7" d="M776.73,1015.14c2.06,1.25,4,2.44,6,3.46a55.37,55.37,0,0,0,6.06,2.72,56.08,56.08,0,0,0,6.34,1.95c2.18.54,4.41.92,6.78,1.34a17.52,17.52,0,0,1-7.11,1.12,22.38,22.38,0,0,1-7.12-1.46,22.89,22.89,0,0,1-6.32-3.6A17.89,17.89,0,0,1,776.73,1015.14Z" transform="translate(-597.98 -914.02)"/><path class="cls-7" d="M760.87,1022.75a27.08,27.08,0,0,1,5.61.64,43.51,43.51,0,0,1,5.31,1.5,42.74,42.74,0,0,1,5.09,2.13,25.85,25.85,0,0,1,4.8,3,27.08,27.08,0,0,1-5.61-.64,44.18,44.18,0,0,1-5.32-1.5,42.54,42.54,0,0,1-5.09-2.14A26.6,26.6,0,0,1,760.87,1022.75Z" transform="translate(-597.98 -914.02)"/><path class="cls-7" d="M615.7,1048.5A94.24,94.24,0,0,1,632,1035.57c2.93-1.88,6-3.56,9.09-5.13.76-.39,1.57-.78,2.38-1.16s1.58-.72,2.38-1.07c1.61-.69,3.27-1.34,5-1.89a30.21,30.21,0,0,1,5.29-1.16c.9-.09,1.83-.22,2.69-.26s1.81-.08,2.71,0a37.83,37.83,0,0,1,10.49,2,71.67,71.67,0,0,1,18.42,9.73c-6.32-2.82-12.58-5.69-19.12-7.36a39.57,39.57,0,0,0-9.85-1.36c-.83,0-1.64,0-2.46.08s-1.64.18-2.45.27a27.14,27.14,0,0,0-4.78,1.12c-1.58.48-3.15,1.07-4.71,1.72-.78.32-1.55.65-2.34,1l-2.3,1c-3.14,1.4-6.14,3-9.16,4.57C627.22,1041,621.43,1044.61,615.7,1048.5Z" transform="translate(-597.98 -914.02)"/><path class="cls-7" d="M658.81,1027.15a35.61,35.61,0,0,1-5.73-3.43,61.56,61.56,0,0,1-5.14-4.1,59.85,59.85,0,0,1-4.68-4.61,37.51,37.51,0,0,1-4.09-5.28,36.86,36.86,0,0,1,5.74,3.42,64.19,64.19,0,0,1,9.81,8.72A37.51,37.51,0,0,1,658.81,1027.15Z" transform="translate(-597.98 -914.02)"/><path class="cls-7" d="M642.93,1031.62c-2.43-.87-4.72-1.83-7-2.71s-4.57-1.74-6.87-2.55-4.61-1.55-7-2.28-4.73-1.42-7.17-2.26a26.38,26.38,0,0,1,7.68-.18A35.33,35.33,0,0,1,637,1026.7,26.27,26.27,0,0,1,642.93,1031.62Z" transform="translate(-597.98 -914.02)"/><path class="cls-7" d="M673.21,1028.53a15.14,15.14,0,0,1-.42,7.17,33.27,33.27,0,0,1-6.54,12.61,15.08,15.08,0,0,1-5.63,4.47,49.78,49.78,0,0,0,3.59-5.88c1.08-2,2.13-4,3.19-6s2.07-4,3.07-6.05A48.56,48.56,0,0,0,673.21,1028.53Z" transform="translate(-597.98 -914.02)"/><path class="cls-7" d="M644.55,1030a8.83,8.83,0,0,1,.52,5.67,17.57,17.57,0,0,1-2,5.29,18.32,18.32,0,0,1-3.47,4.42,11.14,11.14,0,0,1-4.87,2.85c1.12-1.53,2-3,3-4.44s1.8-2.92,2.64-4.4,1.66-3,2.4-4.48A22.31,22.31,0,0,0,644.55,1030Z" transform="translate(-597.98 -914.02)"/><path class="cls-7" d="M707.52,1012.66q-1.56-9.87-2.25-19.83c-.27-3.31-.39-6.64-.52-10s-.12-6.66-.14-10,.12-6.66.27-10,.39-6.65.76-10,.79-6.63,1.36-9.92a67.89,67.89,0,0,1,2.38-9.72c-.79,6.61-1,13.21-1.28,19.81-.07,3.3-.21,6.6-.22,9.9s-.11,6.61-.11,9.91,0,6.61,0,9.92v9.92C707.72,999.37,707.79,1006,707.52,1012.66Z" transform="translate(-597.98 -914.02)"/><path class="cls-7" d="M707,1004.62a15.54,15.54,0,0,1,3-3,23.62,23.62,0,0,1,3.43-2.22,24.1,24.1,0,0,1,3.75-1.62,15.5,15.5,0,0,1,4.17-.81,15.28,15.28,0,0,1-3,3,23.64,23.64,0,0,1-3.44,2.21,23.15,23.15,0,0,1-3.75,1.61A15.06,15.06,0,0,1,707,1004.62Z" transform="translate(-597.98 -914.02)"/><path class="cls-7" d="M705.77,970.31a15.14,15.14,0,0,1,2.1-3.7,23.91,23.91,0,0,1,2.71-3.05,23.38,23.38,0,0,1,3.19-2.56,15.33,15.33,0,0,1,3.8-1.89,15.45,15.45,0,0,1-2.09,3.7,24.68,24.68,0,0,1-2.72,3,24,24,0,0,1-3.19,2.56A15.71,15.71,0,0,1,705.77,970.31Z" transform="translate(-597.98 -914.02)"/><path class="cls-7" d="M706.05,991.48A36.75,36.75,0,0,1,710,987c1.39-1.37,2.82-2.65,4.29-3.88s3-2.41,4.51-3.55,3.08-2.21,4.63-3.53a13.19,13.19,0,0,1-2.91,5.32,32,32,0,0,1-4.2,4.19,38.59,38.59,0,0,1-4.8,3.41A25.76,25.76,0,0,1,706.05,991.48Z" transform="translate(-597.98 -914.02)"/></svg>