<svg id="กะหล่ำ2" xmlns="http://www.w3.org/2000/svg" viewBox="0 0 157.45 114.17"><defs><style>.cls-1{fill:#b4bd6d;}.cls-2{fill:#36684d;}.cls-3{fill:#b7ba6e;}.cls-4{fill:#e1dc89;}.cls-5{fill:#5a8f54;}.cls-6{fill:#608157;}.cls-7{fill:#eae160;}.cls-8{fill:#f6efaf;}.cls-9{fill:#bad28b;}.cls-10{fill:#dcd98f;}.cls-11{fill:#76a075;}</style></defs><title>26</title><path class="cls-1" d="M1494.5,898.72s11.66-8.4,19.11-4.53,20.2,8.88,12.85,25.46,1.2,21.37-20.26,28.53-33,26.06-35.6,2.56S1494.5,898.72,1494.5,898.72Z" transform="translate(-1371.21 -859.67)"/><path class="cls-2" d="M1406.28,898.18c-.27-.08-11.51-9.5-18.67-6.08-7.58,3.62-20.87,7.19-14.9,24.31s-3,21.21,17.84,30.1,30.75,28.69,35.27,5.48S1406.28,898.18,1406.28,898.18Z" transform="translate(-1371.21 -859.67)"/><path class="cls-3" d="M1489.7,892.7q-15.37-2.31-31-3.36a16,16,0,0,0-8.53-.64,33.86,33.86,0,0,0-9.11,3.42c-11.08,5.48-22.53,11.77-27.47,20a33.8,33.8,0,0,1-5.18,1.68c-3.26-5-2.78-15.71,1.16-19.7a19.8,19.8,0,0,1,5.52-3.4l20.21-9.67h0c2.84-1.38,5.73-2.75,8.58-4.12,3.55-1.71,7.37-3.47,11.83-3.57,6.81-.15,12.53,3.55,16.31,7.3C1475.13,883.7,1483.58,889.39,1489.7,892.7Z" transform="translate(-1371.21 -859.67)"/><path class="cls-4" d="M1471,933.57a21.88,21.88,0,0,1-4.7.9,5.62,5.62,0,0,1-1.18-.06,3.41,3.41,0,0,1-.55-.14,23,23,0,0,1-5.32-3c-3.89-2.68-7.79-5.36-11.66-8a18.16,18.16,0,0,0-3.85-2.18c-2.92-1.13-6.59-1.1-9.51-2.23a27.56,27.56,0,0,0-3.85-1.53,5.4,5.4,0,0,0-.74-.12,7.13,7.13,0,0,0-1.21,0,10.18,10.18,0,0,0-4.15,1.08h0a2.18,2.18,0,0,0-1.85.44c.26-2.51,2.73-4.81,5.93-6.23,3.73-1.65,8.32-2.32,12.87-2.74a54,54,0,0,1,11.78,0,26.8,26.8,0,0,1,3.33.64c7.64,2,12.4,7.49,12.38,12.74,0,3.59-1.71,7.62,1.78,10.5Z" transform="translate(-1371.21 -859.67)"/><path class="cls-4" d="M1465,934.4a3.05,3.05,0,0,1-.63-.14,22.88,22.88,0,0,1-5.31-3q-5.85-4-11.67-8a17.84,17.84,0,0,0-3.84-2.18c-2.93-1.13-6.59-1.1-9.52-2.23a27.08,27.08,0,0,0-3.85-1.53,5.94,5.94,0,0,0-.67-.12,5,5,0,0,1,.74.12,27.08,27.08,0,0,1,3.85,1.53c2.93,1.13,6.59,1.1,9.52,2.23a18.27,18.27,0,0,1,3.84,2.18q5.82,4,11.67,8a22.88,22.88,0,0,0,5.31,3A3.28,3.28,0,0,0,1465,934.4Z" transform="translate(-1371.21 -859.67)"/><path class="cls-1" d="M1487.48,948.29c-1.1,3.49-6.93,5.41-12.4,5.86s-11.18-.06-16.53.78-10.21,3.15-15.75,3.84c-7.56.93-14.9-1.18-21.61-4.15-3.1-1.35-6.06-2.9-8.85-4.41-7-3.84-14.87-9-12.84-14.66,1.45-4.09,10-8.26,13-12.45a19.47,19.47,0,0,0,5,4.69c-.5,4.25,1.38,8.85,6.33,11.78a31.18,31.18,0,0,0,6.81,2.75,53.93,53.93,0,0,0,22.29,2c6.55-.94,17.25-6.15,21.22-10.52a62.92,62.92,0,0,0,9.61,0c-1,1.75-.59,4.09.5,6C1485.87,942.59,1488.38,945.45,1487.48,948.29Z" transform="translate(-1371.21 -859.67)"/><path class="cls-5" d="M1421.19,954.62c-.77.24-1.58.45-2.37.67a46.52,46.52,0,0,1-13.25,1.85,29.91,29.91,0,0,1-11.67-2.69h0c-4.82-2.23-8.4-5.61-9.37-9.36-.81-3.13,0-6.48-2.18-9.36-1.16-1.5-3-2.74-4.33-4.17-3.82-4.14-2.66-9.26-1.38-13.89a6.12,6.12,0,0,1,1.4-2.87,6.44,6.44,0,0,1,2.73-1.5,19.56,19.56,0,0,1,8.06-.25c3.89.6,7.68,1.82,11.65,1.82a34.94,34.94,0,0,0,7.91-1.09,33.8,33.8,0,0,0,5.18-1.68,17,17,0,0,0-2.09,5.1,7.21,7.21,0,0,0,1.08,5.9c-3.06,4.19-11.59,8.36-13,12.45-2,5.65,5.81,10.82,12.84,14.66C1415.13,951.72,1418.09,953.27,1421.19,954.62Z" transform="translate(-1371.21 -859.67)"/><path class="cls-6" d="M1505.65,953.06h0c-.5,3.23-2.67,6.3-6.37,8.43-3.28,1.91-7.45,3-11.53,4.17l-19.88,5.43c-8.68,2.38-19.63,4.56-27.13.53a14.44,14.44,0,0,1-3.76-2.92c-1.88-2-3.14-4.34-4.77-6.47-2.15-2.83-8.21-6.29-13.37-6.93.79-.22,1.6-.43,2.37-.67,6.71,3,14,5.08,21.61,4.15,5.54-.69,10.28-2.95,15.75-3.84s11-.33,16.53-.78,11.3-2.37,12.4-5.86c.9-2.84-1.61-5.7-3.18-8.47-1.09-1.89-1.55-4.23-.5-6a12,12,0,0,0,5.54-1.54,22.48,22.48,0,0,0,2.75-2.67,13.09,13.09,0,0,1,1.19-1c.28,1.94.41,5,.55,5.9.6,3.91,6.07,6.76,9.15,10.2A10,10,0,0,1,1505.65,953.06Z" transform="translate(-1371.21 -859.67)"/><path class="cls-2" d="M1437,968.69c-2.52.37-5.8.78-7.73,1.09-1.68.26-3.38.51-5.1.61-7.12.34-13.87-2.28-20-4.81a19.89,19.89,0,0,1-4.37-2.22,11,11,0,0,1-3-3.87c-1-1.68-1.89-3.37-2.82-5a29.91,29.91,0,0,0,11.67,2.69,46.52,46.52,0,0,0,13.25-1.85c5.16.64,11.22,4.1,13.37,6.93C1433.82,964.35,1435.08,966.68,1437,968.69Z" transform="translate(-1371.21 -859.67)"/><path class="cls-7" d="M1476.4,907.09c-7.46-1.15-16.77.15-23.42,2.55a53.34,53.34,0,0,0-11.78,0c-4.55.42-9.14,1.08-12.87,2.73-3.2,1.43-5.67,3.73-5.93,6.23l-.25.22a16,16,0,0,0-4.5,8.25c-.05.22-.08.46-.11.69a19.47,19.47,0,0,1-5-4.69,7.21,7.21,0,0,1-1.08-5.9,17,17,0,0,1,2.09-5.1c4.94-8.21,16.39-14.5,27.47-20a33.86,33.86,0,0,1,9.11-3.42,16,16,0,0,1,8.53.64,7.47,7.47,0,0,1,1.54.8c2.51,1.7,2.8,4.25,4.11,6.43C1466.32,900,1471.57,904.17,1476.4,907.09Z" transform="translate(-1371.21 -859.67)"/><path class="cls-5" d="M1510.69,929.35c-1.83,2-4.5,3.51-6.78,5.28h0c-.52.41-1,.84-1.5,1.28a30.18,30.18,0,0,1-3.48,3.38c-1.51,1.08-4.06,1.67-7,2a80.78,80.78,0,0,1-12.15,0c-1.48-.09-2.86-.2-4.07-.31-.22,0-.43,0-.64-.06-4.41-3.65-2.25-8.74-2.25-13.29,0-6.63-6-13.59-15.66-16.1a33.27,33.27,0,0,0-4.21-.81c8.41-3,20.19-4.68,29.62-3.23a29.78,29.78,0,0,1,7.37,2.05c3.69,1.64,7.13,3.82,11.49,4.3a38.85,38.85,0,0,1,4.23.41,9,9,0,0,1,4.21,2.35C1513.9,920.3,1514.21,925.55,1510.69,929.35Z" transform="translate(-1371.21 -859.67)"/><path class="cls-8" d="M1422.15,918.85h0c.73-1.56,3.23-2.43,5.69-2l1.7.3a5,5,0,0,1,.74.12,27.08,27.08,0,0,1,3.85,1.53c2.93,1.13,6.59,1.1,9.52,2.23a18.27,18.27,0,0,1,3.84,2.18q5.82,4,11.67,8a22.88,22.88,0,0,0,5.31,3,3.28,3.28,0,0,0,.56.14,5.62,5.62,0,0,0,1.18.06,20.78,20.78,0,0,0,4.76-.9c1,.08,2,.18,3.22.25-4,4.37-14.68,9.58-21.22,10.52a53.92,53.92,0,0,1-22.29-2,31.18,31.18,0,0,1-6.81-2.75c-4.95-2.93-6.83-7.53-6.33-11.78,0-.24.06-.47.1-.69a16.11,16.11,0,0,1,4.51-8.26Z" transform="translate(-1371.21 -859.67)"/><path class="cls-9" d="M1424.94,876.53s6.25-13.62,14.42-13.29,16.87,2.48,23.35-2.24,17.16,3.56,14.44,17.68S1420.32,893.77,1424.94,876.53Z" transform="translate(-1371.21 -859.67)"/><path class="cls-10" d="M1426.79,895.68s1.57-24,22.44-19.22c14.62,3.38,18.19-4.59,26.91-3.87s17.81,13.4,12.58,28.2-17.39,33.5-35.28,27.43S1422.8,906.19,1426.79,895.68Z" transform="translate(-1371.21 -859.67)"/><path class="cls-11" d="M1463.82,932.92s13,3.1,26-9.39,10.39-23.35,7.16-35.92c-2-8-6.67-13-13.06-13.28s-9.78,12.76-15.1,12.54-16.41-3.13-14.75,12.49S1451.1,930.61,1463.82,932.92Z" transform="translate(-1371.21 -859.67)"/><path class="cls-1" d="M1414.55,927.66s-12.7-.44-16.55-12.94c-4.93-16,5.93-25.44,6.83-36.25s18.88-14.71,23.53-6.84,12.31-.09,14.6,12.48c1.13,6.21,11.12,5,7.37,19.27S1414.55,927.66,1414.55,927.66Z" transform="translate(-1371.21 -859.67)"/><path class="cls-9" d="M1441,949s-28.35,1.64-33.83-22.26,10.56-15.93,12.63-24.45,12.94-11.09,18.78-6.55,10-1.74,18.47,1.19,5.27,18.3,11.29,18.55,9.9,0,8.1,12.39S1462.06,946.65,1441,949Z" transform="translate(-1371.21 -859.67)"/></svg>