<svg id="กะหล่ำ3" xmlns="http://www.w3.org/2000/svg" viewBox="0 0 128.35 93.09"><defs><style>.cls-1{fill:#36684d;}.cls-2{fill:#b4bd6d;}.cls-3{fill:#b7ba6e;}.cls-4{fill:#e1dc89;}.cls-5{fill:#5a8f54;}.cls-6{fill:#608157;}.cls-7{fill:#eae160;}.cls-8{fill:#f6efaf;}.cls-9{fill:#bad28b;}.cls-10{fill:#dcd98f;}.cls-11{fill:#76a075;}</style></defs><title>27</title><path class="cls-1" d="M1589.26,842.76s-10-6.22-15.83-2.66-16,8.33-9.11,21.45.17,17.5,18,22.18,28.32,19.48,29.17.17S1589.26,842.76,1589.26,842.76Z" transform="translate(-1562.01 -808.67)"/><path class="cls-2" d="M1661.17,837.58c.22-.08,8.88-8.36,14.9-6,6.38,2.55,17.41,4.74,13.46,19s3.55,17.13-12.93,25.5-23.54,25.05-28.47,6.37S1661.17,837.58,1661.17,837.58Z" transform="translate(-1562.01 -808.67)"/><path class="cls-3" d="M1592.85,837.59q12.42-2.7,25.13-4.41a13.11,13.11,0,0,1,6.92-1,27.43,27.43,0,0,1,7.62,2.3c9.33,3.87,19,8.38,23.47,14.81a26.75,26.75,0,0,0,4.32,1.1c2.39-4.23,1.42-13-2-16a16.25,16.25,0,0,0-4.69-2.47l-17-6.8h0l-7.22-2.9c-3-1.2-6.2-2.43-9.85-2.27-5.55.24-10,3.57-12.9,6.83C1604.25,829.48,1597.66,834.57,1592.85,837.59Z" transform="translate(-1562.01 -808.67)"/><path class="cls-4" d="M1610.32,869.92a17.45,17.45,0,0,0,3.88.48,4.77,4.77,0,0,0,1-.11,4.56,4.56,0,0,0,.44-.14,19,19,0,0,0,4.18-2.73l9.08-7.19a14.91,14.91,0,0,1,3-2c2.32-1.07,5.31-1.25,7.64-2.32a22,22,0,0,1,3-1.46,5.13,5.13,0,0,1,.6-.14,6.81,6.81,0,0,1,1-.11,8.29,8.29,0,0,1,3.43.66h0a1.81,1.81,0,0,1,1.53.26c-.35-2-2.49-3.77-5.17-4.76a34.49,34.49,0,0,0-10.65-1.54,44.14,44.14,0,0,0-9.61.61,21.13,21.13,0,0,0-2.68.7c-6.12,2-9.71,6.77-9.41,11.05.19,2.93,1.8,6.12-.89,8.66Z" transform="translate(-1562.01 -808.67)"/><path class="cls-4" d="M1615.21,870.28a3,3,0,0,0,.5-.15,18.63,18.63,0,0,0,4.18-2.73q4.54-3.58,9.08-7.19a14.88,14.88,0,0,1,3-2c2.32-1.08,5.31-1.26,7.64-2.33a22.09,22.09,0,0,1,3.06-1.46l.53-.13a4.56,4.56,0,0,0-.59.14,22,22,0,0,0-3.06,1.45c-2.33,1.08-5.32,1.26-7.64,2.33a14.91,14.91,0,0,0-3,2l-9.08,7.19a19.15,19.15,0,0,1-4.17,2.73Z" transform="translate(-1562.01 -808.67)"/><path class="cls-2" d="M1597.65,882.81c1.08,2.79,5.94,4,10.43,4.11s9.11-.65,13.52-.25,8.49,2,13,2.29c6.22.35,12.1-1.76,17.41-4.55,2.45-1.27,4.79-2.69,7-4.07,5.54-3.51,11.65-8.15,9.69-12.65-1.4-3.25-8.58-6.19-11.3-9.45a15.81,15.81,0,0,1-3.83,4.09c.64,3.45-.65,7.3-4.53,9.95a25.11,25.11,0,0,1-5.41,2.61,44,44,0,0,1-18.06,2.84c-5.39-.42-14.4-4.09-17.88-7.44a52.57,52.57,0,0,1-7.83.54c1,1.37.7,3.3-.08,4.91C1598.66,878.08,1596.76,880.54,1597.65,882.81Z" transform="translate(-1562.01 -808.67)"/><path class="cls-5" d="M1652.05,884.41c.64.16,1.31.29,2,.42a38.06,38.06,0,0,0,10.91.8,24.37,24.37,0,0,0,9.37-2.83h0c3.81-2.07,6.55-5,7.14-8.13.49-2.6-.35-5.29,1.28-7.75.86-1.29,2.3-2.4,3.3-3.64,2.89-3.58,1.67-7.69.38-11.39a4.94,4.94,0,0,0-1.3-2.27,5.23,5.23,0,0,0-2.3-1.08,16.22,16.22,0,0,0-6.59.23c-3.14.7-6.16,1.9-9.4,2.11a28.9,28.9,0,0,1-6.51-.46,26.75,26.75,0,0,1-4.32-1.1,14.53,14.53,0,0,1,2,4,6,6,0,0,1-.57,4.87c2.72,3.26,9.9,6.2,11.3,9.45,2,4.5-4.15,9.14-9.69,12.65C1656.84,881.72,1654.5,883.14,1652.05,884.41Z" transform="translate(-1562.01 -808.67)"/><path class="cls-6" d="M1583.09,887.67h0a9.92,9.92,0,0,0,5.65,6.53,40.37,40.37,0,0,0,9.63,2.78q8.23,1.69,16.5,3.36c7.21,1.47,16.26,2.67,22.16-1a11.61,11.61,0,0,0,2.9-2.58,65.49,65.49,0,0,0,3.55-5.53c1.6-2.42,6.35-5.57,10.52-6.37-.65-.13-1.32-.26-2-.42-5.31,2.79-11.19,4.9-17.41,4.55-4.55-.27-8.53-1.86-13-2.29s-9,.33-13.52.25-9.35-1.32-10.43-4.11c-.89-2.27,1-4.73,2.14-7.07.78-1.61,1-3.54.08-4.91a9.85,9.85,0,0,1-4.6-1,19.67,19.67,0,0,1-2.39-2,11.69,11.69,0,0,0-1-.75c-.12,1.6-.06,4.08-.13,4.84-.28,3.22-4.58,5.84-6.91,8.81A8.13,8.13,0,0,0,1583.09,887.67Z" transform="translate(-1562.01 -808.67)"/><path class="cls-1" d="M1639.94,896.73c2.08.16,4.77.33,6.37.47,1.38.12,2.78.24,4.19.23,5.82-.11,11.18-2.61,16.08-5a16.45,16.45,0,0,0,3.44-2,9.28,9.28,0,0,0,2.25-3.32c.68-1.42,1.36-2.85,2-4.27a24.37,24.37,0,0,1-9.37,2.83,38.06,38.06,0,0,1-10.91-.8c-4.17.8-8.92,3.95-10.52,6.37A65.49,65.49,0,0,1,1639.94,896.73Z" transform="translate(-1562.01 -808.67)"/><path class="cls-7" d="M1604.47,848.62a42.3,42.3,0,0,1,19.23.82,43.52,43.52,0,0,1,9.61-.61,34.49,34.49,0,0,1,10.65,1.54c2.68,1,4.82,2.73,5.17,4.76.08,0,.14.11.21.16a13.13,13.13,0,0,1,4.12,6.49c0,.18.08.37.12.55a15.81,15.81,0,0,0,3.83-4.09,6,6,0,0,0,.57-4.87,14.53,14.53,0,0,0-2-4c-4.47-6.43-14.14-10.94-23.47-14.81a27.43,27.43,0,0,0-7.62-2.3,13.11,13.11,0,0,0-6.92,1,6.3,6.3,0,0,0-1.21.74c-2,1.53-2.06,3.62-3,5.47C1612.3,842.28,1608.25,846,1604.47,848.62Z" transform="translate(-1562.01 -808.67)"/><path class="cls-5" d="M1577.7,868.62c1.6,1.5,3.86,2.61,5.81,3.93v0a14.33,14.33,0,0,1,1.29.95,24.58,24.58,0,0,0,3,2.57,12.34,12.34,0,0,0,5.82,1.21,67,67,0,0,0,9.9-.68c1.21-.16,2.32-.32,3.3-.48l.52-.08c3.4-3.21,1.37-7.25,1.12-11-.37-5.41,4.16-11.4,11.91-14a26.41,26.41,0,0,1,3.39-.89c-7-2-16.72-2.73-24.33-1a24.54,24.54,0,0,0-5.9,2.07c-2.92,1.53-5.61,3.5-9.14,4.12a33.87,33.87,0,0,0-3.42.56,7.46,7.46,0,0,0-3.31,2.15C1574.59,861.41,1574.62,865.7,1577.7,868.62Z" transform="translate(-1562.01 -808.67)"/><path class="cls-8" d="M1649.34,855.29h0c-.68-1.23-2.76-1.81-4.75-1.32l-1.37.34a4.56,4.56,0,0,0-.59.14,22,22,0,0,0-3.06,1.45c-2.33,1.08-5.32,1.26-7.64,2.33a14.91,14.91,0,0,0-3,2l-9.08,7.19a19.15,19.15,0,0,1-4.17,2.73l-.45.14a4.69,4.69,0,0,1-1,.11,17.37,17.37,0,0,1-3.93-.48l-2.61.38c3.47,3.35,12.48,7,17.87,7.43a44,44,0,0,0,18.07-2.83,25.74,25.74,0,0,0,5.4-2.61c3.89-2.66,5.17-6.51,4.53-9.95a4.44,4.44,0,0,0-.12-.55,13.06,13.06,0,0,0-4.12-6.49Z" transform="translate(-1562.01 -808.67)"/><path class="cls-9" d="M1603.11,829.34s8.89,8.42,15,5.67,12-7,18.39-5.42,11.93-7.93,5.56-17.8S1594.34,817.68,1603.11,829.34Z" transform="translate(-1562.01 -808.67)"/><path class="cls-10" d="M1644.32,836.65s-2.58-19.53-19.34-14.47c-11.74,3.54-15.08-2.77-22.16-1.71s-13.8,11.88-8.74,23.67,16,26.39,30.25,20.47S1648.14,845,1644.32,836.65Z" transform="translate(-1562.01 -808.67)"/><path class="cls-2" d="M1616.12,869s-10.47,3.24-21.71-6.25-9.73-18.49-7.77-28.91c1.24-6.59,4.74-11,9.94-11.53s8.65,9.88,13,9.41,13.21-3.44,12.69,9.39S1626.36,866.44,1616.12,869Z" transform="translate(-1562.01 -808.67)"/><path class="cls-11" d="M1656,862.06s10.33-1,12.8-11.43c3.15-13.3-6.21-20.44-7.52-29.2s-16.19-11-19.56-4.31-10,.59-11.23,11c-.59,5.13-8.8,4.65-5,16.11S1656,862.06,1656,862.06Z" transform="translate(-1562.01 -808.67)"/><path class="cls-9" d="M1635.59,880.91s23.21-.19,26.39-20-9.46-12.41-11.61-19.25-11.15-8.35-15.67-4.33-8.23-.89-15,2-3.32,15.21-8.21,15.73-8.08.52-5.94,10.54S1618.29,880.11,1635.59,880.91Z" transform="translate(-1562.01 -808.67)"/></svg>