<svg id="กะหล่ำ4" xmlns="http://www.w3.org/2000/svg" viewBox="0 0 183.15 133.87"><defs><style>.cls-1{fill:#36684d;}.cls-2{fill:#b4bd6d;}.cls-3{fill:#b7ba6e;}.cls-4{fill:#e1dc89;}.cls-5{fill:#5a8f54;}.cls-6{fill:#608157;}.cls-7{fill:#eae160;}.cls-8{fill:#f6efaf;}.cls-9{fill:#bad28b;}.cls-10{fill:#dcd98f;}.cls-11{fill:#76a075;}</style></defs><title>28</title><path class="cls-1" d="M1372.9,1078.05s-14.72-8.17-22.85-2.64-22.29,13.09-11.46,31.37,1.53,25,27.46,30.41,42,25.8,41.77-1.89S1372.9,1078.05,1372.9,1078.05Z" transform="translate(-1334.66 -1025.95)"/><path class="cls-2" d="M1475.45,1065.35c.3-.13,12.09-12.63,20.89-9.63,9.31,3.18,25.26,5.51,20.66,26.24s6.34,24.27-16.63,37.46-31.85,37.59-40.28,11.21S1475.45,1065.35,1475.45,1065.35Z" transform="translate(-1334.66 -1025.95)"/><path class="cls-3" d="M1377.66,1070.39q17.56-4.79,35.64-8.16a18.77,18.77,0,0,1,9.84-1.9,39.41,39.41,0,0,1,11.07,2.73c13.64,4.85,27.81,10.6,34.69,19.48a39.5,39.5,0,0,0,6.25,1.25c3.11-6.23,1.09-18.66-4-22.77-1.77-1.43-4.37-2.32-6.89-3.2q-12.43-4.23-24.83-8.48h-.05c-3.5-1.21-7-2.41-10.54-3.61-4.37-1.5-9.06-3-14.26-2.53-7.94.75-14.09,5.84-18,10.72C1393.37,1057.93,1384.32,1065.71,1377.66,1070.39Z" transform="translate(-1334.66 -1025.95)"/><path class="cls-4" d="M1405,1115.37a25.38,25.38,0,0,0,5.59.41,6.22,6.22,0,0,0,1.36-.23,3.92,3.92,0,0,0,.63-.24,26.89,26.89,0,0,0,5.77-4.21q6.25-5.47,12.47-10.95a21.32,21.32,0,0,1,4.17-3.07c3.25-1.71,7.52-2.19,10.77-3.9a30.59,30.59,0,0,1,4.27-2.3,7.22,7.22,0,0,1,.84-.25,7.78,7.78,0,0,1,1.41-.22,11.86,11.86,0,0,1,5,.69h0a2.57,2.57,0,0,1,2.21.25c-.65-2.88-3.84-5.21-7.75-6.43-4.56-1.41-10-1.56-15.35-1.42a61.87,61.87,0,0,0-13.71,1.58,29.63,29.63,0,0,0-3.78,1.2c-8.62,3.36-13.4,10.41-12.66,16.5.49,4.19,3,8.64-.63,12.47Z" transform="translate(-1334.66 -1025.95)"/><path class="cls-4" d="M1412.06,1115.53a4.33,4.33,0,0,0,.72-.25,27.23,27.23,0,0,0,5.77-4.21c4.16-3.65,8.33-7.3,12.47-11a21.38,21.38,0,0,1,4.17-3.06c3.25-1.72,7.52-2.19,10.77-3.9a31.72,31.72,0,0,1,4.27-2.31c.26-.09.51-.16.76-.23a8,8,0,0,0-.85.25,31.76,31.76,0,0,0-4.27,2.3c-3.25,1.71-7.51,2.19-10.76,3.9a20.73,20.73,0,0,0-4.17,3.07l-12.48,10.95a26.64,26.64,0,0,1-5.77,4.21A3.92,3.92,0,0,1,1412.06,1115.53Z" transform="translate(-1334.66 -1025.95)"/><path class="cls-2" d="M1387.85,1134.76c1.76,3.91,8.8,5.34,15.23,5.12s13-1.6,19.33-1.35c6.49.28,12.31,2.26,18.84,2.3,8.93.05,17.18-3.41,24.58-7.78,3.42-2,6.66-4.21,9.69-6.35,7.66-5.42,16.07-12.51,12.93-18.81-2.25-4.55-12.74-8.23-16.87-12.7a22.63,22.63,0,0,1-5.18,6.15c1.16,4.88-.39,10.48-5.75,14.57a36.1,36.1,0,0,1-7.55,4.13,63.11,63.11,0,0,1-25.65,5.39c-7.74-.2-20.91-4.79-26.13-9.33a74.72,74.72,0,0,1-11.17,1.35c1.47,1.89,1.24,4.67.24,7C1388.94,1127.91,1386.41,1131.58,1387.85,1134.76Z" transform="translate(-1334.66 -1025.95)"/><path class="cls-5" d="M1465.83,1133.05c.93.17,1.9.31,2.85.45a54.33,54.33,0,0,0,15.67.34,35,35,0,0,0,13.21-4.73h0c5.3-3.25,9-7.67,9.61-12.17.52-3.76-.88-7.54,1.27-11.19,1.13-1.9,3.12-3.59,4.46-5.44,3.87-5.34,1.83-11.13-.29-16.34a7.25,7.25,0,0,0-2-3.15,7.6,7.6,0,0,0-3.38-1.38,23.36,23.36,0,0,0-9.41.81c-4.44,1.24-8.68,3.18-13.3,3.72a41.45,41.45,0,0,1-9.36-.18,39.5,39.5,0,0,1-6.25-1.25,20.21,20.21,0,0,1,3.13,5.64,8.48,8.48,0,0,1-.45,7c4.13,4.47,14.62,8.15,16.87,12.7,3.14,6.3-5.27,13.39-12.93,18.81C1472.49,1128.84,1469.25,1131.05,1465.83,1133.05Z" transform="translate(-1334.66 -1025.95)"/><path class="cls-6" d="M1367.37,1142.79h0c1,3.68,4,7,8.56,8.93,4.08,1.77,9.08,2.53,14,3.27l23.86,3.59c10.43,1.58,23.47,2.62,31.64-3.1a16.94,16.94,0,0,0,4-3.9c1.91-2.6,3.06-5.49,4.67-8.19,2.11-3.58,8.69-8.43,14.6-9.89-1-.14-1.92-.28-2.85-.45-7.4,4.37-15.65,7.83-24.58,7.78-6.53,0-12.35-2-18.84-2.3-6.33-.25-12.9,1.13-19.33,1.35s-13.47-1.21-15.23-5.12c-1.44-3.18,1.09-6.85,2.54-10.28,1-2.36,1.23-5.14-.24-7-2.74.06-5.14-.2-6.65-1a28.24,28.24,0,0,1-3.57-2.73,16.7,16.7,0,0,0-1.52-1c-.06,2.3.21,5.85.17,6.94-.17,4.63-6.13,8.69-9.25,13.12A11.67,11.67,0,0,0,1367.37,1142.79Z" transform="translate(-1334.66 -1025.95)"/><path class="cls-1" d="M1449.41,1151.58c3,.08,6.85.11,9.15.2,2,.07,4,.14,6,0,8.33-.58,15.82-4.55,22.65-8.33a23.58,23.58,0,0,0,4.77-3.18,13,13,0,0,0,3-4.91c.87-2.09,1.74-4.18,2.59-6.26a35,35,0,0,1-13.21,4.73,54.33,54.33,0,0,1-15.67-.34c-5.91,1.46-12.49,6.31-14.6,9.89C1452.47,1146.09,1451.32,1149,1449.41,1151.58Z" transform="translate(-1334.66 -1025.95)"/><path class="cls-7" d="M1395.1,1085.31c8.51-2.35,19.53-2.11,27.59-.24a63,63,0,0,1,13.71-1.58c5.35-.13,10.78,0,15.35,1.43,3.91,1.22,7.1,3.55,7.75,6.43a2.77,2.77,0,0,1,.31.22,18.77,18.77,0,0,1,6.38,9c.08.25.15.52.21.79a22.63,22.63,0,0,0,5.18-6.15,8.48,8.48,0,0,0,.45-7,20.21,20.21,0,0,0-3.13-5.64c-6.88-8.88-21.05-14.63-34.69-19.48a39.41,39.41,0,0,0-11.07-2.73,18.77,18.77,0,0,0-9.84,1.9,8.74,8.74,0,0,0-1.68,1.15c-2.68,2.32-2.68,5.32-3.9,8C1405.85,1075.67,1400.32,1081.26,1395.1,1085.31Z" transform="translate(-1334.66 -1025.95)"/><path class="cls-5" d="M1358.26,1115.91c2.39,2,5.71,3.46,8.6,5.21v0a20.59,20.59,0,0,1,1.92,1.27,36.16,36.16,0,0,0,4.52,3.46c1.91,1,5,1.38,8.41,1.3a94.33,94.33,0,0,0,14.13-1.71c1.72-.31,3.3-.63,4.69-.92l.74-.16c4.63-4.84,1.43-10.47.8-15.76-.93-7.72,5.12-16.64,16-20.89a40.31,40.31,0,0,1,4.79-1.51c-10.19-2.38-24.13-2.68-34.9.3a34.93,34.93,0,0,0-8.29,3.4c-4.07,2.4-7.78,5.42-12.78,6.57a44.53,44.53,0,0,0-4.86,1,10.71,10.71,0,0,0-4.58,3.31C1353.28,1105.82,1353.63,1112,1358.26,1115.91Z" transform="translate(-1334.66 -1025.95)"/><path class="cls-8" d="M1459.81,1091.57h0c-1-1.71-4.08-2.39-6.89-1.54l-1.93.58a8,8,0,0,0-.85.25,31.76,31.76,0,0,0-4.27,2.3c-3.25,1.71-7.51,2.19-10.76,3.9a20.73,20.73,0,0,0-4.17,3.07l-12.48,10.95a26.64,26.64,0,0,1-5.77,4.21,3.92,3.92,0,0,1-.63.24,6.22,6.22,0,0,1-1.36.23,24.45,24.45,0,0,1-5.67-.4c-1.1.23-2.35.49-3.7.73,5.21,4.54,18.38,9.14,26.13,9.33,8.71.21,17.78-2,25.65-5.38a36.48,36.48,0,0,0,7.54-4.13c5.36-4.09,6.92-9.7,5.75-14.58-.06-.26-.13-.53-.21-.78a18.84,18.84,0,0,0-6.37-9Z" transform="translate(-1334.66 -1025.95)"/><path class="cls-9" d="M1391.73,1057.82s13.35,11.4,21.87,7,16.71-10.94,25.91-9.11,16.49-12.23,6.66-25.9S1378.33,1041.77,1391.73,1057.82Z" transform="translate(-1334.66 -1025.95)"/><path class="cls-10" d="M1451.25,1065.25s-5.12-27.76-28.74-19.29c-16.54,5.93-21.78-2.85-31.84-.82s-18.88,18-10.77,34.53,24.82,36.6,44.8,27.08S1457.33,1076.93,1451.25,1065.25Z" transform="translate(-1334.66 -1025.95)"/><path class="cls-2" d="M1413.27,1113.64s-14.74,5.39-31.53-7.36-15.28-25.75-13.25-40.81c1.29-9.52,6-16,13.37-17.24s13.12,13.51,19.29,12.53,18.66-5.9,18.86,12.5S1427.75,1109.22,1413.27,1113.64Z" transform="translate(-1334.66 -1025.95)"/><path class="cls-11" d="M1469.87,1100.77s14.71-2.24,17.48-17.31c3.54-19.26-10.39-28.79-12.91-41.24s-24-14.52-28.31-4.73-14.33,1.58-15.28,16.51c-.46,7.39-12.25,7.31-5.93,23.43S1469.87,1100.77,1469.87,1100.77Z" transform="translate(-1334.66 -1025.95)"/><path class="cls-9" d="M1442,1129.25s33.21-2,36.3-30.54-14.46-17.07-18-26.71-16.57-11.13-22.74-5-11.84-.66-21.32,3.91-3.63,22-10.59,23.12-11.52,1.33-7.73,15.52S1417.2,1129.38,1442,1129.25Z" transform="translate(-1334.66 -1025.95)"/></svg>