<svg id="กะหล่ำ5" xmlns="http://www.w3.org/2000/svg" viewBox="0 0 179.52 130.17"><defs><style>.cls-1{fill:#b4bd6d;}.cls-2{fill:#36684d;}.cls-3{fill:#b7ba6e;}.cls-4{fill:#e1dc89;}.cls-5{fill:#5a8f54;}.cls-6{fill:#608157;}.cls-7{fill:#eae160;}.cls-8{fill:#f6efaf;}.cls-9{fill:#bad28b;}.cls-10{fill:#dcd98f;}.cls-11{fill:#76a075;}</style></defs><title>29</title><path class="cls-1" d="M1667.71,967.19s13.3-9.58,21.79-5.16,23,10.12,14.65,29,1.37,24.37-23.1,32.53-37.63,29.72-40.59,2.92S1667.71,967.19,1667.71,967.19Z" transform="translate(-1527.15 -922.67)"/><path class="cls-2" d="M1567.13,966.58c-.31-.09-13.13-10.83-21.29-6.93-8.64,4.12-23.79,8.19-17,27.71s-3.36,24.18,20.34,34.32,35.06,32.71,40.21,6.25S1567.13,966.58,1567.13,966.58Z" transform="translate(-1527.15 -922.67)"/><path class="cls-3" d="M1662.24,960.33q-17.54-2.62-35.39-3.84a18.2,18.2,0,0,0-9.72-.72,38.38,38.38,0,0,0-10.39,3.9c-12.64,6.25-25.69,13.41-31.32,22.78a39.73,39.73,0,0,1-5.91,1.92c-3.71-5.67-3.17-17.92,1.32-22.47,1.55-1.59,4-2.75,6.3-3.88l23-11s0,0,0,0c3.25-1.58,6.54-3.14,9.78-4.7,4-1.94,8.41-3.95,13.5-4.06,7.76-.18,14.28,4,18.59,8.32C1645.63,950.07,1655.26,956.55,1662.24,960.33Z" transform="translate(-1527.15 -922.67)"/><path class="cls-4" d="M1640.88,1006.92a24.29,24.29,0,0,1-5.35,1,6.45,6.45,0,0,1-1.34-.06,6,6,0,0,1-.64-.16,26.28,26.28,0,0,1-6.06-3.42q-6.66-4.57-13.3-9.17a21.07,21.07,0,0,0-4.38-2.49c-3.34-1.28-7.51-1.26-10.85-2.54a30.62,30.62,0,0,0-4.39-1.74,7.12,7.12,0,0,0-.84-.15,9.33,9.33,0,0,0-1.39-.05,11.6,11.6,0,0,0-4.72,1.23h0a2.51,2.51,0,0,0-2.11.5c.31-2.86,3.12-5.48,6.76-7.1,4.26-1.88,9.5-2.64,14.68-3.12a61,61,0,0,1,13.44,0,32.9,32.9,0,0,1,3.79.73c8.71,2.27,14.13,8.54,14.12,14.52,0,4.1-2,8.69,2,12Z" transform="translate(-1527.15 -922.67)"/><path class="cls-4" d="M1634.11,1007.87a3,3,0,0,1-.71-.16,25.85,25.85,0,0,1-6.06-3.41q-6.67-4.57-13.31-9.17a20,20,0,0,0-4.38-2.49c-3.34-1.29-7.51-1.26-10.85-2.55a31.34,31.34,0,0,0-4.39-1.74c-.27-.06-.51-.1-.76-.14a6.46,6.46,0,0,1,.84.15,30.74,30.74,0,0,1,4.4,1.74c3.33,1.28,7.51,1.25,10.84,2.54a20.71,20.71,0,0,1,4.39,2.49q6.63,4.61,13.3,9.17a26.28,26.28,0,0,0,6.06,3.42A4.14,4.14,0,0,0,1634.11,1007.87Z" transform="translate(-1527.15 -922.67)"/><path class="cls-1" d="M1659.71,1023.71c-1.26,4-7.9,6.16-14.14,6.68s-12.75-.07-18.85.89-11.63,3.59-18,4.38c-8.62,1.06-17-1.35-24.64-4.73-3.54-1.55-6.91-3.32-10.09-5-8-4.37-17-10.26-14.64-16.71,1.66-4.66,11.38-9.41,14.86-14.19a22.28,22.28,0,0,0,5.71,5.35c-.57,4.84,1.57,10.09,7.22,13.43a35.67,35.67,0,0,0,7.76,3.13,61.4,61.4,0,0,0,25.41,2.29c7.46-1.07,19.68-7,24.2-12a74.12,74.12,0,0,0,11,0c-1.2,2-.67,4.66.57,6.82C1657.87,1017.21,1660.73,1020.47,1659.71,1023.71Z" transform="translate(-1527.15 -922.67)"/><path class="cls-5" d="M1584.13,1030.93c-.88.27-1.8.51-2.7.76a53,53,0,0,1-15.11,2.11,34.16,34.16,0,0,1-13.31-3.07h0c-5.49-2.54-9.57-6.39-10.68-10.67-.92-3.57,0-7.39-2.49-10.67-1.32-1.71-3.43-3.12-4.93-4.76-4.35-4.72-3-10.55-1.58-15.83a6.92,6.92,0,0,1,1.6-3.27,7.21,7.21,0,0,1,3.11-1.71,22.4,22.4,0,0,1,9.19-.29c4.43.69,8.76,2.08,13.28,2.08a40.82,40.82,0,0,0,9-1.24,39.73,39.73,0,0,0,5.91-1.92,19.77,19.77,0,0,0-2.39,5.81,8.3,8.3,0,0,0,1.23,6.73c-3.48,4.78-13.2,9.53-14.86,14.19-2.31,6.45,6.62,12.34,14.64,16.71C1577.22,1027.61,1580.59,1029.38,1584.13,1030.93Z" transform="translate(-1527.15 -922.67)"/><path class="cls-6" d="M1680.42,1029.14h0c-.56,3.68-3,7.18-7.26,9.61-3.74,2.18-8.49,3.48-13.15,4.75l-22.66,6.19c-9.9,2.71-22.39,5.2-30.94.6a16.17,16.17,0,0,1-4.28-3.32c-2.14-2.29-3.58-5-5.44-7.38-2.45-3.23-9.36-7.17-15.24-7.9.9-.25,1.82-.49,2.7-.76,7.65,3.38,16,5.79,24.64,4.73,6.32-.79,11.71-3.37,18-4.38s12.61-.37,18.85-.89,12.88-2.7,14.14-6.68c1-3.24-1.84-6.5-3.63-9.65-1.24-2.16-1.77-4.83-.57-6.82,2.66-.25,5-.79,6.31-1.76a26,26,0,0,0,3.15-3.05c.41-.39.88-.77,1.35-1.14.32,2.21.46,5.68.63,6.73.68,4.46,6.91,7.7,10.43,11.63A11.37,11.37,0,0,1,1680.42,1029.14Z" transform="translate(-1527.15 -922.67)"/><path class="cls-2" d="M1602.11,1047c-2.87.41-6.61.89-8.82,1.24a58.33,58.33,0,0,1-5.81.69c-8.12.39-15.81-2.6-22.84-5.48a22.57,22.57,0,0,1-5-2.53,12.56,12.56,0,0,1-3.43-4.41c-1.08-1.91-2.16-3.84-3.22-5.75a34.16,34.16,0,0,0,13.31,3.07,53,53,0,0,0,15.11-2.11c5.88.73,12.79,4.67,15.24,7.9C1598.53,1042,1600,1044.68,1602.11,1047Z" transform="translate(-1527.15 -922.67)"/><path class="cls-7" d="M1647.07,976.73c-8.5-1.31-19.12.18-26.69,2.91a61.63,61.63,0,0,0-13.44,0c-5.18.48-10.42,1.24-14.67,3.12-3.64,1.63-6.46,4.25-6.76,7.11a1.68,1.68,0,0,0-.28.24,18.27,18.27,0,0,0-5.14,9.41c0,.25-.09.52-.12.79a22.28,22.28,0,0,1-5.71-5.35,8.3,8.3,0,0,1-1.23-6.73,19.77,19.77,0,0,1,2.39-5.81c5.63-9.37,18.68-16.53,31.32-22.78a38.38,38.38,0,0,1,10.39-3.9,18.2,18.2,0,0,1,9.72.72,8.38,8.38,0,0,1,1.76.92c2.86,1.94,3.19,4.84,4.68,7.33C1635.59,968.64,1641.57,973.41,1647.07,976.73Z" transform="translate(-1527.15 -922.67)"/><path class="cls-5" d="M1686.17,1002.12c-2.08,2.24-5.13,4-7.73,6v0a22.28,22.28,0,0,0-1.7,1.45,34.73,34.73,0,0,1-4,3.86c-1.72,1.22-4.63,1.9-8,2.22a92.8,92.8,0,0,1-13.85,0c-1.69-.1-3.26-.24-4.64-.36l-.73-.06c-5-4.16-2.57-10-2.56-15.16,0-7.56-6.84-15.49-17.86-18.36a37.62,37.62,0,0,0-4.8-.92c9.58-3.46,23-5.34,33.77-3.68a33.77,33.77,0,0,1,8.4,2.34c4.21,1.86,8.14,4.35,13.11,4.9a44.52,44.52,0,0,1,4.81.46,10.56,10.56,0,0,1,4.81,2.68C1689.83,991.8,1690.19,997.78,1686.17,1002.12Z" transform="translate(-1527.15 -922.67)"/><path class="cls-8" d="M1585.23,990.14h0c.82-1.77,3.67-2.77,6.48-2.27l1.94.34a6.46,6.46,0,0,1,.84.15,30.74,30.74,0,0,1,4.4,1.74c3.33,1.28,7.51,1.25,10.84,2.54a20.71,20.71,0,0,1,4.39,2.49q6.63,4.61,13.3,9.17a26.28,26.28,0,0,0,6.06,3.42,4.14,4.14,0,0,0,.63.15,6.46,6.46,0,0,0,1.34.07,24.12,24.12,0,0,0,5.44-1c1.09.1,2.33.2,3.67.29-4.53,5-16.74,10.92-24.2,12a61.39,61.39,0,0,1-25.41-2.29,35,35,0,0,1-7.76-3.14c-5.65-3.34-7.79-8.58-7.22-13.43,0-.26.06-.53.11-.78a18.35,18.35,0,0,1,5.14-9.41Z" transform="translate(-1527.15 -922.67)"/><path class="cls-9" d="M1588.4,941.89s7.13-15.53,16.45-15.14,19.23,2.82,26.61-2.56,19.57,4,16.47,20.15S1583.13,961.55,1588.4,941.89Z" transform="translate(-1527.15 -922.67)"/><path class="cls-10" d="M1590.51,963.73s1.79-27.42,25.59-21.92c16.66,3.85,20.73-5.23,30.68-4.41s20.31,15.28,14.34,32.15-19.82,38.2-40.23,31.28S1586,975.71,1590.51,963.73Z" transform="translate(-1527.15 -922.67)"/><path class="cls-11" d="M1632.73,1006.18s14.86,3.54,29.65-10.7,11.84-26.62,8.16-41c-2.33-9.07-7.6-14.85-14.89-15.15s-11.15,14.55-17.22,14.3-18.71-3.57-16.81,14.24S1618.23,1003.56,1632.73,1006.18Z" transform="translate(-1527.15 -922.67)"/><path class="cls-1" d="M1576.55,1000.18s-14.47-.49-18.86-14.74c-5.62-18.22,6.76-29,7.78-41.33s21.54-16.77,26.83-7.8,14-.1,16.65,14.22c1.29,7.09,12.67,5.67,8.4,22S1576.55,1000.18,1576.55,1000.18Z" transform="translate(-1527.15 -922.67)"/><path class="cls-9" d="M1606.71,1024.54s-32.32,1.87-38.56-25.38,12-18.16,14.4-27.88,14.75-12.64,21.41-7.46,11.37-2,21,1.36,6,20.86,12.87,21.14,11.29,0,9.24,14.13S1630.72,1021.84,1606.71,1024.54Z" transform="translate(-1527.15 -922.67)"/></svg>