<svg id="Logo" xmlns="http://www.w3.org/2000/svg" viewBox="0 0 107.74 119.1"><defs><style>.cls-1{fill:#775a41;}.cls-2{fill:#d75b4d;}.cls-3{fill:#fff;}.cls-4{fill:#76a075;}.cls-5{fill:none;stroke:#fff;stroke-miterlimit:10;stroke-width:2px;}.cls-6{fill:#285e85;}.cls-7{fill:#f3b744;}</style></defs><title>30</title><path class="cls-1" d="M154.9,179.54l2.18-4,1,.54-2,3.76a.5.5,0,0,0-.08.37.49.49,0,0,0,.25.27l.43.23-.43.79-.86-.47A1,1,0,0,1,154.9,179.54Z" transform="translate(-136.18 -72.9)"/><path class="cls-1" d="M158.38,180.35a1.19,1.19,0,0,1,1.3-.83l-.91-.73.5-1.06a3.87,3.87,0,0,1,1.35-.14,4.17,4.17,0,0,1,1.51.41,3,3,0,0,1,1.53,1.3,2.11,2.11,0,0,1-.13,1.83l-1.48,3.18-1-.48,1.5-3.21a1.3,1.3,0,0,0,.12-1.06,1.71,1.71,0,0,0-.93-.74,3,3,0,0,0-.94-.28,1.93,1.93,0,0,0-.81.05l-.08.17,1,.78-.32.68a1,1,0,0,0-.67.06,1.2,1.2,0,0,0-.44.56l-.85,1.84-1-.48Z" transform="translate(-136.18 -72.9)"/><path class="cls-1" d="M164.43,184.75a2.13,2.13,0,0,1,0-1.84l1.18-3.25,1.06.39-1.2,3.28a1.37,1.37,0,0,0,0,1.09,2,2,0,0,0,2,.74,1.34,1.34,0,0,0,.69-.84l.25-.7-1.27-.46.3-.81,1.27.46.65-1.77,1.07.39-.65,1.77.58.21-.37.79-.5-.19-.24.66a2.14,2.14,0,0,1-1.23,1.39,3.44,3.44,0,0,1-3.59-1.31Z" transform="translate(-136.18 -72.9)"/><path class="cls-1" d="M170.86,186.84a3.08,3.08,0,0,1-.06-2.23,4.23,4.23,0,0,1,1-2,1.55,1.55,0,0,1,1.53-.41,1.45,1.45,0,0,1,.61.3,1.64,1.64,0,0,1,.35.52,1.63,1.63,0,0,1,.65-.24,2,2,0,0,1,.74,0,1.22,1.22,0,0,1,.87.64,1.58,1.58,0,0,1,0,1.17l-1.07,4.1-1.1-.29,1-3.94a1.18,1.18,0,0,0,0-.6.53.53,0,0,0-.39-.28.72.72,0,0,0-.41,0,.74.74,0,0,0-.34.28l-.6-.15a1.19,1.19,0,0,0-.17-.43.55.55,0,0,0-.34-.2.72.72,0,0,0-.83.33,4.59,4.59,0,0,0-.59,1.46,2.4,2.4,0,0,0,0,1.52,1.28,1.28,0,0,0,.92.71,2.47,2.47,0,0,0,.72.1l-.22.84a2.74,2.74,0,0,1-.93-.11A2.16,2.16,0,0,1,170.86,186.84Z" transform="translate(-136.18 -72.9)"/><path class="cls-1" d="M178,189.19a3.3,3.3,0,0,1-.79-.35l.15-.94a3.94,3.94,0,0,0,.8.38,4.81,4.81,0,0,0,.84.23,3.08,3.08,0,0,0,1.1.05.52.52,0,0,0,.41-.48.58.58,0,0,0-.06-.42.76.76,0,0,0-.29-.3,6.16,6.16,0,0,0-.64-.35l-.37-.21A4,4,0,0,1,178,186a1.19,1.19,0,0,1-.25-1,1.39,1.39,0,0,1,.76-1.08,2.86,2.86,0,0,1,1.75-.13,6,6,0,0,1,.9.23,4.39,4.39,0,0,1,.76.31l-.16.93a4.41,4.41,0,0,0-.72-.33,4.87,4.87,0,0,0-.77-.2,2.51,2.51,0,0,0-1,0,.5.5,0,0,0-.42.45.53.53,0,0,0,.07.39,1.12,1.12,0,0,0,.34.3l.69.39.28.14a3.75,3.75,0,0,1,1.17.88,1.33,1.33,0,0,1,.21,1.1,1.32,1.32,0,0,1-.8,1.08,3,3,0,0,1-1.73.1A6.58,6.58,0,0,1,178,189.19Z" transform="translate(-136.18 -72.9)"/><path class="cls-1" d="M183.32,184.3l1,.08,0,.62a3,3,0,0,1,2.06-.56,1.82,1.82,0,0,1,1.34.65,2,2,0,0,1,.38,1.53l-.3,3.72-1.13-.1.3-3.66a1.21,1.21,0,0,0-.21-.9,1.25,1.25,0,0,0-.86-.35,1.84,1.84,0,0,0-.87.12,2.09,2.09,0,0,0-.74.43L184,190l-1.14-.09Z" transform="translate(-136.18 -72.9)"/><path class="cls-1" d="M193.51,186.79a1.28,1.28,0,0,0-.35-1,1.78,1.78,0,0,0-1.16-.26,3,3,0,0,0-1,.16,1.84,1.84,0,0,0-.71.4v.19l1.2.28v.75a1,1,0,0,0-.57.35,1.12,1.12,0,0,0-.15.69V189a.49.49,0,0,0,.11.35.46.46,0,0,0,.34.1h.57l0,.9-1.13,0a1,1,0,0,1-.75-.28,1.09,1.09,0,0,1-.28-.76l0-1a1.18,1.18,0,0,1,.8-1.31l-1.13-.26,0-1.17a3.81,3.81,0,0,1,1.16-.72,4.18,4.18,0,0,1,1.54-.3,3,3,0,0,1,1.94.5,2.09,2.09,0,0,1,.68,1.71l.1,5.18-1.14,0Z" transform="translate(-136.18 -72.9)"/><path class="cls-1" d="M197.12,189.63a2.14,2.14,0,0,1-.87-1.63l-.42-3.43,1.12-.13.42,3.47a1.32,1.32,0,0,0,.49,1,2,2,0,0,0,2.16-.26,1.32,1.32,0,0,0,.23-1.06l-.09-.74-1.34.16-.1-.86,1.34-.16-.23-1.87L201,184l.23,1.87.61-.07,0,.87-.52.06.08.7a2.16,2.16,0,0,1-.46,1.79,3.43,3.43,0,0,1-3.8.46Z" transform="translate(-136.18 -72.9)"/><path class="cls-1" d="M204.9,190.11a4.17,4.17,0,0,1,1.65-.76,3.93,3.93,0,0,1,.8-.11,2.13,2.13,0,0,1,.66.08l-1-4.5a1.25,1.25,0,0,0-.54-.9,1.55,1.55,0,0,0-1.13,0,2.82,2.82,0,0,0-.93.36,1.87,1.87,0,0,0-.6.53l0,.19,1.27,0,.16.73a.94.94,0,0,0-.43.44,1.47,1.47,0,0,0,0,.71l.17.73a1.11,1.11,0,0,1-.92,1.52l-.68.16-.2-.88.37-.08c.15,0,.24-.09.28-.17a.5.5,0,0,0,0-.35l-.15-.69a1.7,1.7,0,0,1,0-.83,1,1,0,0,1,.46-.6H203l-.26-1.15a4,4,0,0,1,1-.92,4.08,4.08,0,0,1,1.44-.62,2.81,2.81,0,0,1,2,.11,2.14,2.14,0,0,1,1,1.52l1.24,5.4-1.1.25a3.29,3.29,0,0,0-1.59,0,3.65,3.65,0,0,0-.82.29,3.39,3.39,0,0,0-.72.45Z" transform="translate(-136.18 -72.9)"/><path class="cls-1" d="M202.94,182.06l3.24-.92-.23-.84.9-.26.46,1.61-4.2,1.19Z" transform="translate(-136.18 -72.9)"/><path class="cls-1" d="M210,186.52l-.72-2.31a1.86,1.86,0,0,1-.06-1,4,4,0,0,1,.34-.89,2.89,2.89,0,0,0,.2-.46.53.53,0,0,0,0-.33c-.06-.18-.15-.3-.28-.33a.9.9,0,0,0-.54.05,2.32,2.32,0,0,0-1,.63l-.25-.8a2.44,2.44,0,0,1,.6-.48,3.15,3.15,0,0,1,.75-.34,1.65,1.65,0,0,1,1.14,0,1.07,1.07,0,0,1,.62.74,1.25,1.25,0,0,1,0,.63,3.65,3.65,0,0,1-.26.7,4.57,4.57,0,0,0-.28.8,1.48,1.48,0,0,0,0,.74l.62,2a.6.6,0,0,0,.2.33.51.51,0,0,0,.38,0l.46-.14.27.86-.93.28A1,1,0,0,1,210,186.52Z" transform="translate(-136.18 -72.9)"/><path class="cls-1" d="M211.67,181.24l1.07-.41.64,1.66,1.52-.58a1.21,1.21,0,0,0,.7-.54,1.12,1.12,0,0,0-.06-.83l-.26-.69,1.05-.4.26.65a1.39,1.39,0,0,1-.26,1.7,1,1,0,0,1,.76.25,1.94,1.94,0,0,1,.48.75l.75,1.94-1.06.41-.7-1.82a1.09,1.09,0,0,0-.51-.69,1.17,1.17,0,0,0-.87.09l-1.49.57,1.08,2.81-1.06.41Z" transform="translate(-136.18 -72.9)"/><path class="cls-1" d="M221.69,183.1a3.28,3.28,0,0,1-1-.1l.21.58-.93.46L217.46,179l1-.5,1.82,3.75a2.2,2.2,0,0,0,.85.13,1.93,1.93,0,0,0,.85-.2,1.24,1.24,0,0,0,.67-.64,1.22,1.22,0,0,0-.14-1l-1.6-3.28,1-.5,1.62,3.33a2.08,2.08,0,0,1,.21,1.58,1.85,1.85,0,0,1-1,1.11A3,3,0,0,1,221.69,183.1Z" transform="translate(-136.18 -72.9)"/><path class="cls-1" d="M219.68,175l1-.54.81,1.51-1,.54Z" transform="translate(-136.18 -72.9)"/><polygon class="cls-2" points="5.91 51.14 6.18 27.16 15.03 21.33 23.31 27.39 23.04 51.34 5.91 51.14"/><polygon class="cls-2" points="17.28 51.27 17.4 40.95 26.25 35.12 34.52 41.18 34.33 58.2 17.28 51.27"/><rect class="cls-3" x="159.73" y="113.1" width="4.79" height="4.79" transform="translate(-134.87 -74.72) rotate(0.64)"/><rect class="cls-3" x="148.52" y="99.31" width="4.79" height="4.79" transform="translate(-135.03 -74.59) rotate(0.64)"/><path class="cls-2" d="M151.87,117.35l11.19-7.93H162l10.76,8.18c1.1.83,2.17-1,1.08-1.86l-10.76-8.17a1,1,0,0,0-1.08,0l-11.2,7.92c-1.12.8,0,2.66,1.09,1.86Z" transform="translate(-136.18 -72.9)"/><path class="cls-2" d="M140.48,103.56l11.19-7.93h-1.08l10.75,8.18c1.11.83,2.18-1,1.09-1.86l-10.76-8.17a1,1,0,0,0-1.08,0l-11.2,7.92c-1.12.8,0,2.66,1.09,1.86Z" transform="translate(-136.18 -72.9)"/><path class="cls-4" d="M179.4,177.69a53.93,53.93,0,0,0,64.52-52.81,53.56,53.56,0,0,0-6.55-25.76A88.36,88.36,0,0,0,179.4,177.69Z" transform="translate(-136.18 -72.9)"/><path class="cls-5" d="M216.34,136.79s-11-11.49-8-27.25" transform="translate(-136.18 -72.9)"/><path class="cls-3" d="M208.36,141.63c3.1-3.4,6.13-7,9-10.74s5.67-7.51,8.31-11.4,5.08-7.94,7.37-12.07A107.94,107.94,0,0,0,239,94.54,107.87,107.87,0,0,1,234.18,108q-2.9,6.54-6.35,12.82t-7.39,12.28c-2.62,4-5.31,7.93-8.27,11.81Z" transform="translate(-136.18 -72.9)"/><path class="cls-6" d="M190.06,139.3a88,88,0,0,1-53.72-18.22c-.09,1.25-.15,2.52-.15,3.8a53.87,53.87,0,0,0,107.73,0c0-1.28-.06-2.55-.14-3.8A88,88,0,0,1,190.06,139.3Z" transform="translate(-136.18 -72.9)"/><path class="cls-7" d="M136.89,116.18a53.9,53.9,0,0,0,76.34,57.34A88.35,88.35,0,0,0,136.89,116.18Z" transform="translate(-136.18 -72.9)"/><path class="cls-3" d="M147.27,126.38a10.86,10.86,0,0,1,1.56,1,16,16,0,0,1,1.32,1.13,17.67,17.67,0,0,1,2.16,2.59l-2.48,0a17.69,17.69,0,0,1,2.09-2.59,14.36,14.36,0,0,1,1.29-1.14,9.92,9.92,0,0,1,1.52-1,9.83,9.83,0,0,1-.3,1.79,14.18,14.18,0,0,1-.55,1.63,16.92,16.92,0,0,1-1.55,2.95l-1.22,1.85-1.27-1.83a18,18,0,0,1-1.64-3,14.44,14.44,0,0,1-.58-1.64A9.11,9.11,0,0,1,147.27,126.38Z" transform="translate(-136.18 -72.9)"/><path class="cls-3" d="M151,124.83a4.66,4.66,0,0,1,1.21,1.75,5.08,5.08,0,0,1,.06,3.55,4.71,4.71,0,0,1-1.15,1.79,4.62,4.62,0,0,1-1.21-1.75,5,5,0,0,1-.05-3.55A4.6,4.6,0,0,1,151,124.83Z" transform="translate(-136.18 -72.9)"/><path class="cls-3" d="M165.86,135a10.33,10.33,0,0,1,1.56,1,14.51,14.51,0,0,1,1.32,1.13,17.67,17.67,0,0,1,2.16,2.59l-2.48,0a17.69,17.69,0,0,1,2.09-2.59c.41-.39.83-.78,1.29-1.14a9.92,9.92,0,0,1,1.52-1,9.83,9.83,0,0,1-.3,1.79,14.15,14.15,0,0,1-.54,1.63,17.67,17.67,0,0,1-1.56,3l-1.22,1.85-1.27-1.83a18,18,0,0,1-1.64-2.95,15,15,0,0,1-.58-1.63A10.18,10.18,0,0,1,165.86,135Z" transform="translate(-136.18 -72.9)"/><path class="cls-3" d="M169.56,133.48a4.62,4.62,0,0,1,1.2,1.75,5.08,5.08,0,0,1,.06,3.55,4.71,4.71,0,0,1-1.15,1.79,4.74,4.74,0,0,1-1.21-1.75,5.07,5.07,0,0,1-.35-1.77,5.28,5.28,0,0,1,.3-1.78A4.64,4.64,0,0,1,169.56,133.48Z" transform="translate(-136.18 -72.9)"/><path class="cls-3" d="M153.82,146.35a10,10,0,0,1,1.56,1,14.46,14.46,0,0,1,1.31,1.14,16.58,16.58,0,0,1,2.17,2.58l-2.49,0a17.25,17.25,0,0,1,2.1-2.59,12.69,12.69,0,0,1,1.28-1.14,9.77,9.77,0,0,1,1.53-1,9.87,9.87,0,0,1-.3,1.78,13.56,13.56,0,0,1-.55,1.63,16.88,16.88,0,0,1-1.55,3l-1.23,1.86-1.26-1.84a16.61,16.61,0,0,1-1.64-2.95,13.65,13.65,0,0,1-.59-1.63A10.07,10.07,0,0,1,153.82,146.35Z" transform="translate(-136.18 -72.9)"/><path class="cls-3" d="M157.51,144.79a4.86,4.86,0,0,1,1.21,1.75,5.3,5.3,0,0,1,.35,1.77,5,5,0,0,1-.29,1.78,4.67,4.67,0,0,1-1.16,1.79,4.62,4.62,0,0,1-1.2-1.75,5.08,5.08,0,0,1-.06-3.55A4.83,4.83,0,0,1,157.51,144.79Z" transform="translate(-136.18 -72.9)"/><path class="cls-3" d="M168.78,160.57a10.86,10.86,0,0,1,1.56,1,14.37,14.37,0,0,1,1.31,1.13,17.13,17.13,0,0,1,2.17,2.59l-2.49,0a17.25,17.25,0,0,1,2.1-2.59,15.73,15.73,0,0,1,1.28-1.14,9.77,9.77,0,0,1,1.53-1,9.83,9.83,0,0,1-.3,1.79,14.18,14.18,0,0,1-.55,1.63,17.15,17.15,0,0,1-1.55,2.94l-1.23,1.86L171.35,167a16.61,16.61,0,0,1-1.64-3,14.48,14.48,0,0,1-.59-1.64A9.9,9.9,0,0,1,168.78,160.57Z" transform="translate(-136.18 -72.9)"/><path class="cls-3" d="M172.47,159a4.78,4.78,0,0,1,1.21,1.75,5.3,5.3,0,0,1,.35,1.77,5.07,5.07,0,0,1-.29,1.78,4.74,4.74,0,0,1-1.16,1.79,4.65,4.65,0,0,1-1.2-1.76,5,5,0,0,1-.35-1.76,5,5,0,0,1,.29-1.78A4.76,4.76,0,0,1,172.47,159Z" transform="translate(-136.18 -72.9)"/><path class="cls-3" d="M182.6,147a10,10,0,0,1,1.56,1,14.46,14.46,0,0,1,1.31,1.14,17.06,17.06,0,0,1,2.17,2.58l-2.49,0a17.25,17.25,0,0,1,2.1-2.59,14,14,0,0,1,1.28-1.14,9.77,9.77,0,0,1,1.53-1,10.13,10.13,0,0,1-.3,1.79,14,14,0,0,1-.55,1.62,16.88,16.88,0,0,1-1.55,2.95l-1.23,1.86-1.26-1.84a16.61,16.61,0,0,1-1.64-2.95,13.65,13.65,0,0,1-.59-1.63A10.07,10.07,0,0,1,182.6,147Z" transform="translate(-136.18 -72.9)"/><path class="cls-3" d="M186.29,145.47a4.8,4.8,0,0,1,1.21,1.76,5.2,5.2,0,0,1,.35,1.76,5,5,0,0,1-.29,1.78,4.67,4.67,0,0,1-1.16,1.79,4.62,4.62,0,0,1-1.2-1.75,5.07,5.07,0,0,1-.35-1.77,4.86,4.86,0,0,1,.3-1.78A4.67,4.67,0,0,1,186.29,145.47Z" transform="translate(-136.18 -72.9)"/><path class="cls-3" d="M194.7,163.57a9.45,9.45,0,0,1,1.55,1,13.35,13.35,0,0,1,1.32,1.14,17.66,17.66,0,0,1,2.17,2.58l-2.49,0a16.65,16.65,0,0,1,2.1-2.59,14,14,0,0,1,1.28-1.14,9.32,9.32,0,0,1,1.53-1,9.29,9.29,0,0,1-.31,1.79,12.31,12.31,0,0,1-.54,1.62,16.92,16.92,0,0,1-1.56,3l-1.22,1.86L197.27,170a16.61,16.61,0,0,1-1.64-2.95,12.11,12.11,0,0,1-.59-1.63A9.26,9.26,0,0,1,194.7,163.57Z" transform="translate(-136.18 -72.9)"/><path class="cls-3" d="M198.39,162a4.65,4.65,0,0,1,1.2,1.76,5,5,0,0,1,.35,1.76,4.82,4.82,0,0,1-.29,1.78,4.52,4.52,0,0,1-1.15,1.79,4.66,4.66,0,0,1-1.21-1.75,4.83,4.83,0,0,1-.34-1.77,5.07,5.07,0,0,1,.29-1.78A4.71,4.71,0,0,1,198.39,162Z" transform="translate(-136.18 -72.9)"/><path class="cls-2" d="M154.42,83c.09-3.33,1.85-4.59,4.51-4.51a3.77,3.77,0,0,1,2.89,1.09l0-1.46c0-1.47-.71-2.29-2.54-2.34A4.7,4.7,0,0,0,156,76.88l-1.17-1.68a7.43,7.43,0,0,1,4.91-1.43,6.43,6.43,0,0,1,2.61.53,2.31,2.31,0,0,0,.7-1.13l2.34.57a3.3,3.3,0,0,1-1.2,2,3.71,3.71,0,0,1,.66,2.43l-.21,7.71-2.89-.08c.11-3.88-.62-5.29-2.76-5.35-1.08,0-1.75.29-1.87,1.28,1.64-.09,2.34.66,2.3,2.18s-.63,2.14-2.57,2.09S154.37,85,154.42,83Zm3.42.84c0-.62-.18-.82-.86-.84s-.89.17-.91.79.2.89.86.91S157.82,84.48,157.84,83.82Z" transform="translate(-136.18 -72.9)"/><path class="cls-2" d="M161.68,91a1.84,1.84,0,0,1-2-2.1c0-1.41.57-2.19,2.49-2.14s2.4.88,2.36,2.58l-.1,3.59-2.76-.07Zm1.2-2c0-.66-.17-.87-.85-.89s-.89.18-.91.84.18.82.86.84S162.87,89.61,162.88,89Z" transform="translate(-136.18 -72.9)"/><path class="cls-7" d="M166.8,82.08l0-.91a4,4,0,0,1,1.35-2.87c-1.32-.13-1.74-.78-1.7-2.19S167.09,74,169,74s2.5.64,2.45,2.3l0,.77c0,1.47-1.59,1.76-1.65,3.81l0,1.39c0,1.24.17,2.08,1.91,2.13s2-.79,2-2l.21-7.92,3,.09-.21,7.65c-.07,2.47-1.28,4.31-5.05,4.2C167.7,86.32,166.74,84.26,166.8,82.08Zm3-5.81c0-.66-.18-.87-.86-.88s-.91.17-.93.83.2.82.88.84S169.81,76.89,169.83,76.27Z" transform="translate(-136.18 -72.9)"/><path class="cls-4" d="M181,80.22a1.85,1.85,0,0,1-2.4-1.65c-.26-1.44.15-2.27,2.09-2.62s2.63.32,2.93,2l.91,5.11.87-4.19,1.13-.2,2.32,3.62-1.29-7.25,2.93-.53L192.49,86l-3,.53-3-4.49-1.2,5.24-3,.53Zm.88-2.22c-.12-.65-.35-.81-1-.69s-.83.35-.72,1,.34.77,1,.65S181.94,78.61,181.83,78Z" transform="translate(-136.18 -72.9)"/><path class="cls-6" d="M193.57,82.16l-.23-1.3c-.31-1.72.15-2.58,2.06-2.92s2.6.3,2.86,1.73-.6,2-1.82,2.25l.06.3c.15.89.86,1.24,2.3,1s2.1-.91,1.93-1.84l-.8-4.5c-.27-1.52-1.27-2.08-3.18-1.74a5,5,0,0,0-3,1.73l-1.47-1.37a7.68,7.68,0,0,1,4.54-2.4c3.91-.7,5.62.7,6.07,3.24l.78,4.36c.27,1.52-.49,3.79-4.49,4.5S193.94,84.2,193.57,82.16ZM196.72,80c-.12-.66-.35-.82-1-.7s-.83.35-.72,1,.34.76,1,.64S196.83,80.57,196.72,80Z" transform="translate(-136.18 -72.9)"/><path class="cls-4" d="M169.35,102.9a1.88,1.88,0,0,1-2.44-1.63c-.27-1.43.13-2.26,2.06-2.63s2.66.28,3,2l.5,2.66,1.21-3.48c.53-1.56,1.18-2.29,2.5-2.54a2.07,2.07,0,0,1,2.56,1.88l1.8,9.51-2.93.55L176,101c0-.24-.1-.32-.27-.29s-.26.19-.4.62l-2.13,6.1.48,2.54-2.92.55Zm.83-2.22c-.12-.65-.35-.81-1-.68s-.83.36-.71,1,.35.76,1,.63S170.3,101.28,170.18,100.68Z" transform="translate(-136.18 -72.9)"/><path class="cls-6" d="M171.93,92.78a4.84,4.84,0,0,1,3,.29l-.3-1.58,2.54-.48.92,4.9-10.55,2C167.25,95.11,169.15,93.31,171.93,92.78ZM175.1,95c-.51-.69-1.66-.81-2.87-.58s-2.15.74-2.22,1.54Z" transform="translate(-136.18 -72.9)"/><path class="cls-7" d="M173.92,87.76l2.53-.48.56,3-2.54.48Z" transform="translate(-136.18 -72.9)"/><path class="cls-2" d="M184.48,98.8a2.18,2.18,0,0,1-2.14-2.65c.19-1.69.93-2.49,3.21-2.23s2.84,1.23,2.61,3.25l-.67,6,2.35-4.4,1.33.15,1.4,4.82,1-8.54,3.46.38-1.52,13.53-3.53-.39-1.84-6L187,108.17l-3.56-.4Zm1.72-2.19c.09-.77-.11-1-.91-1.11s-1,.11-1.13.88.12,1,.91,1.06S186.12,97.33,186.2,96.61Z" transform="translate(-136.18 -72.9)"/><path class="cls-4" d="M194.16,89.45l3.45.39-.47,4.22-3.46-.39Z" transform="translate(-136.18 -72.9)"/><path class="cls-7" d="M198,105.16l.17-1.54c.23-2,1-2.83,3.27-2.58s2.82,1.2,2.63,2.88-1.35,2.08-2.78,1.92l0,.36c-.12,1,.56,1.67,2.25,1.86s2.65-.33,2.78-1.43l.59-5.29c.2-1.79-.72-2.75-3-3a5.75,5.75,0,0,0-4,.92l-1.19-2a9,9,0,0,1,5.88-1.18c4.6.52,6,2.65,5.71,5.64l-.58,5.14c-.2,1.79-1.8,4.07-6.51,3.54S197.69,107.56,198,105.16Zm4.25-1.42c.09-.76-.12-1-.91-1.11s-1.05.12-1.13.88.12,1,.91,1.07S202.13,104.46,202.21,103.74Z" transform="translate(-136.18 -72.9)"/><path class="cls-6" d="M212.63,101.73,210.93,96c-.63-2.13,1.67-4,1.15-5.74-.22-.76-.71-1-1.6-.75a1.2,1.2,0,0,0-1,1.6l.21.72-2.85.85-.22-.74c-.61-2.06,1-3.7,3.31-4.37,2.83-.83,4.37,0,4.92,1.86.61,2.07-1.59,4-1.06,5.83l1.17,4a1.87,1.87,0,0,1,2.57,1.38c.42,1.4.1,2.27-1.78,2.83S213.13,103.4,212.63,101.73Zm3.43-.72c-.18-.59-.42-.72-1.08-.53s-.79.44-.62,1,.44.77,1.09.58S216.24,101.65,216.06,101Z" transform="translate(-136.18 -72.9)"/><path class="cls-4" d="M219.81,93.81a1.88,1.88,0,0,1-2.59-1.38c-.41-1.39-.09-2.27,1.79-2.82s2.67,0,3.16,1.68l1.54,5.18,1.17-3.82a1.73,1.73,0,0,1,.39-.71c-.69-.07-1.2-.47-1.48-1.42-.42-1.4-.15-2.28,1.73-2.84s2.57-.19,3,1.42a1.71,1.71,0,0,1-.51,2c.56.11.94.52,1.17,1.31L231,98.56l-2.85.84-1.44-4.86c-.07-.23-.14-.31-.27-.27s-.18.17-.27.47l-1.68,5.75-2.52.74Zm.61-2.3c-.18-.63-.43-.77-1.09-.57s-.79.44-.6,1.07.42.73,1.08.53S220.6,92.1,220.42,91.51Zm6.6-2c-.19-.64-.45-.76-1.11-.57s-.79.44-.6,1.08.42.72,1.08.53S227.2,90.15,227,89.56Z" transform="translate(-136.18 -72.9)"/><path class="cls-2" d="M221.49,86.32c.57-.17.92-.32.94-.69a1.43,1.43,0,0,1-2.17-1c-.36-1.21.13-1.83,1.5-2.24s2.09-.09,2.45,1.14a2.27,2.27,0,0,1,0,1.68c1.24-.55,1.43-1.34,1-2.78l-.11-.38,2.11-.63.13.45a3.8,3.8,0,0,1-2.66,5l-2.77.81ZM223,83.84c-.15-.53-.39-.62-.92-.47s-.67.36-.52.89.35.63.92.47S223.11,84.34,223,83.84Z" transform="translate(-136.18 -72.9)"/><path class="cls-5" d="M225.77,121.44s-6.79-7.12-5-16.87" transform="translate(-136.18 -72.9)"/><path class="cls-5" d="M230.52,113.65s7.38.21,12.41-3.45" transform="translate(-136.18 -72.9)"/></svg>