<svg id="ข้อความ" xmlns="http://www.w3.org/2000/svg" viewBox="0 0 501.12 89.52"><defs><style>.cls-1{fill:#0f2b53;}</style></defs><title>32</title><path class="cls-1" d="M417.21,485.88h1l-1.2,4.45h-1.32Zm3.28,0h1l-1.19,4.45H419Z" transform="translate(-415.71 -477.64)"/><path class="cls-1" d="M435.39,496.57a2.92,2.92,0,0,1,.54-1.78,3,3,0,0,1,1.62-1.06l-3.07-.67V491a8,8,0,0,1,2.66-1.72,9.54,9.54,0,0,1,3.68-.68,6.52,6.52,0,0,1,4.44,1.29,4.89,4.89,0,0,1,1.44,3.84v9.17h-1.43v-9.25a3.63,3.63,0,0,0-1-2.93,5.35,5.35,0,0,0-3.4-.87,8.82,8.82,0,0,0-2.95.48,5,5,0,0,0-2.09,1.27v.72l3.12.68v1.25a2.86,2.86,0,0,0-1.56.8,2.29,2.29,0,0,0-.52,1.61v6.24h-1.43Z" transform="translate(-415.71 -477.64)"/><path class="cls-1" d="M456.55,493.6a6.64,6.64,0,0,0-.28-2.17,2.07,2.07,0,0,0-1.08-1.19,5.28,5.28,0,0,0-2.33-.41A11.21,11.21,0,0,0,451,490a8.43,8.43,0,0,0-1.77.48v-1.22a8.92,8.92,0,0,1,1.81-.49,11.73,11.73,0,0,1,2-.19,4.17,4.17,0,0,1,4.86,4.89v9.41h-1.43Z" transform="translate(-415.71 -477.64)"/><path class="cls-1" d="M463.69,503a9.51,9.51,0,0,1-2-.48v-1.28a12.12,12.12,0,0,0,4.21.7,7.11,7.11,0,0,0,3.16-.53,2,2,0,0,0,1-2,2.19,2.19,0,0,0-.41-1.39,2.76,2.76,0,0,0-1.09-.83,19.24,19.24,0,0,0-1.93-.69,7.71,7.71,0,0,0-.78-.26,22.82,22.82,0,0,1-2.4-.91,4.44,4.44,0,0,1-1.54-1.18,3,3,0,0,1-.63-2q0-3.59,5.22-3.59a13.62,13.62,0,0,1,2.1.17,12,12,0,0,1,1.88.46v1.27a10.62,10.62,0,0,0-3.77-.65,6.88,6.88,0,0,0-3.08.51,1.88,1.88,0,0,0-.95,1.81,1.91,1.91,0,0,0,.49,1.36,3.83,3.83,0,0,0,1.32.89c.54.23,1.36.52,2.45.87a17.93,17.93,0,0,1,2.41.92,4.34,4.34,0,0,1,1.52,1.22,3.61,3.61,0,0,1-.82,4.86,7.58,7.58,0,0,1-4,.87A17.84,17.84,0,0,1,463.69,503Z" transform="translate(-415.71 -477.64)"/><path class="cls-1" d="M474.88,491.26a2.53,2.53,0,0,1,.61-1.74,2.13,2.13,0,0,1,1.65-.68h2l.05,1.23h-1.48a1.42,1.42,0,0,0-1.07.35,1.61,1.61,0,0,0-.33,1.13V501l4.49-7.86h.86l4.5,7.86V488.84h1.4v14H486l-4.73-8.29-4.76,8.29h-1.59Z" transform="translate(-415.71 -477.64)"/><path class="cls-1" d="M492.13,502.14a3.69,3.69,0,0,1-1.23-3.05,3.81,3.81,0,0,1,1.3-3.08,6,6,0,0,1,4-1.11h4.94v-1.38a5,5,0,0,0-.39-2.17,2.36,2.36,0,0,0-1.32-1.15,7,7,0,0,0-2.58-.37,14,14,0,0,0-4.42.65v-1.22a14.94,14.94,0,0,1,4.73-.68,5.91,5.91,0,0,1,4.13,1.2,5,5,0,0,1,1.28,3.8v9.3h-1.43v-6.75h-4.84a5.1,5.1,0,0,0-3,.71,2.63,2.63,0,0,0-1,2.25,2.56,2.56,0,0,0,.87,2.16,4.38,4.38,0,0,0,2.69.67,6.71,6.71,0,0,0,1.77-.21v1.23a9.8,9.8,0,0,1-2.16.2A5.12,5.12,0,0,1,492.13,502.14Z" transform="translate(-415.71 -477.64)"/><path class="cls-1" d="M492.8,485.15h9.72v1.12h-9.8Z" transform="translate(-415.71 -477.64)"/><path class="cls-1" d="M507.34,501.35a8.59,8.59,0,0,1-1.44-5.43,11.57,11.57,0,0,1,1-5.44,3.33,3.33,0,0,1,3.07-1.9,3.52,3.52,0,0,1,1.61.33,4.15,4.15,0,0,1,1.25,1,4,4,0,0,1,1.4-1,4.37,4.37,0,0,1,1.67-.34,2.82,2.82,0,0,1,2.15.8,3.34,3.34,0,0,1,.76,2.4v11.1h-1.43V491.94a2.47,2.47,0,0,0-.42-1.64,1.83,1.83,0,0,0-1.43-.47,2.62,2.62,0,0,0-1.28.33,2.41,2.41,0,0,0-1,1h-.91a3.71,3.71,0,0,0-1-1,2.35,2.35,0,0,0-1.24-.3,2.28,2.28,0,0,0-2.22,1.59,12.11,12.11,0,0,0-.67,4.5,7.57,7.57,0,0,0,1.1,4.6,3.8,3.8,0,0,0,3.22,1.4,5.84,5.84,0,0,0,1.77-.21v1.23a8.05,8.05,0,0,1-2.06.2A4.84,4.84,0,0,1,507.34,501.35Z" transform="translate(-415.71 -477.64)"/><path class="cls-1" d="M523.31,502.25a2.47,2.47,0,0,1-.59-1.73V488.84h1.43v11.42a1.51,1.51,0,0,0,.34,1.08,1.36,1.36,0,0,0,1,.35h1.28v1.19H525A2.14,2.14,0,0,1,523.31,502.25Z" transform="translate(-415.71 -477.64)"/><path class="cls-1" d="M531.63,501.79a5.14,5.14,0,0,1-1.5-4v-8.92h1.43v9.1c0,2.66,1.49,4,4.47,4s4.45-1.32,4.45-4V484.68h1.43v13.08a5.19,5.19,0,0,1-1.49,4,7.81,7.81,0,0,1-8.79,0Z" transform="translate(-415.71 -477.64)"/><path class="cls-1" d="M530.89,485.62a2.53,2.53,0,0,1-.78-2,2.76,2.76,0,0,1,.83-2.13,3.31,3.31,0,0,1,2.36-.78h5.52l-.08,1h-5.33a2.47,2.47,0,0,0-1.64.45,1.81,1.81,0,0,0-.52,1.44c0,1.13.61,1.69,1.82,1.69a2.25,2.25,0,0,0,1.25-.27,1,1,0,0,0,.39-.87v-.73h1.06v.73a1,1,0,0,0,.32.83,1.71,1.71,0,0,0,1,.24h1.24v1h-1.3a3.1,3.1,0,0,1-1.14-.19,1.19,1.19,0,0,1-.68-.62,1.58,1.58,0,0,1-.89.64,4.1,4.1,0,0,1-1.37.22A3,3,0,0,1,530.89,485.62Z" transform="translate(-415.71 -477.64)"/><path class="cls-1" d="M546.94,501.88a5.34,5.34,0,0,1-1.16-3.73v-9.31h1.43v9.39a3.94,3.94,0,0,0,.86,2.8,3.7,3.7,0,0,0,2.76.89,6.54,6.54,0,0,0,4.83-2.18v-10.9h1.43v14h-1.24l-.13-1.84a8,8,0,0,1-2.37,1.56,7.74,7.74,0,0,1-3,.54A4.41,4.41,0,0,1,546.94,501.88Z" transform="translate(-415.71 -477.64)"/><path class="cls-1" d="M561.36,496.57a2.92,2.92,0,0,1,.54-1.78,3,3,0,0,1,1.62-1.06l-3.07-.67V491a8,8,0,0,1,2.66-1.72,9.54,9.54,0,0,1,3.68-.68,6.52,6.52,0,0,1,4.44,1.29,4.89,4.89,0,0,1,1.44,3.84v9.17h-1.43v-9.25a3.63,3.63,0,0,0-1-2.93,5.35,5.35,0,0,0-3.4-.87,8.82,8.82,0,0,0-2.95.48,5,5,0,0,0-2.09,1.27v.72l3.12.68v1.25a2.82,2.82,0,0,0-1.56.8,2.29,2.29,0,0,0-.52,1.61v6.24h-1.43Z" transform="translate(-415.71 -477.64)"/><path class="cls-1" d="M582.52,493.6a6.64,6.64,0,0,0-.28-2.17,2.07,2.07,0,0,0-1.08-1.19,5.28,5.28,0,0,0-2.33-.41A11.21,11.21,0,0,0,577,490a8.43,8.43,0,0,0-1.77.48v-1.22a8.92,8.92,0,0,1,1.81-.49,11.73,11.73,0,0,1,2-.19,4.18,4.18,0,0,1,4.86,4.89v9.41h-1.43Z" transform="translate(-415.71 -477.64)"/><path class="cls-1" d="M589.66,503a9.51,9.51,0,0,1-2-.48v-1.28a12.12,12.12,0,0,0,4.21.7,7.11,7.11,0,0,0,3.16-.53,2,2,0,0,0,1-2,2.19,2.19,0,0,0-.41-1.39,2.76,2.76,0,0,0-1.09-.83,19.24,19.24,0,0,0-1.93-.69,7.71,7.71,0,0,0-.78-.26,22.82,22.82,0,0,1-2.4-.91,4.44,4.44,0,0,1-1.54-1.18,3,3,0,0,1-.63-2q0-3.59,5.22-3.59a13.62,13.62,0,0,1,2.1.17,12,12,0,0,1,1.88.46v1.27a10.62,10.62,0,0,0-3.77-.65,6.88,6.88,0,0,0-3.08.51,1.88,1.88,0,0,0-.95,1.81,2,2,0,0,0,.49,1.36,3.83,3.83,0,0,0,1.32.89c.54.23,1.36.52,2.45.87a17.93,17.93,0,0,1,2.41.92,4.34,4.34,0,0,1,1.52,1.22,3.61,3.61,0,0,1-.82,4.86,7.58,7.58,0,0,1-4,.87A17.84,17.84,0,0,1,589.66,503Z" transform="translate(-415.71 -477.64)"/><path class="cls-1" d="M600.85,491.26a2.53,2.53,0,0,1,.61-1.74,2.13,2.13,0,0,1,1.65-.68h2l0,1.23h-1.48a1.41,1.41,0,0,0-1.07.35,1.61,1.61,0,0,0-.33,1.13V501l4.49-7.86h.86l4.5,7.86V488.84h1.4v14h-1.58l-4.73-8.29-4.76,8.29h-1.59Z" transform="translate(-415.71 -477.64)"/><path class="cls-1" d="M618.1,502.14a3.69,3.69,0,0,1-1.23-3.05,3.81,3.81,0,0,1,1.3-3.08,6,6,0,0,1,4-1.11h4.94v-1.38a5,5,0,0,0-.39-2.17,2.36,2.36,0,0,0-1.32-1.15,7,7,0,0,0-2.58-.37,14,14,0,0,0-4.42.65v-1.22a15,15,0,0,1,4.73-.68,5.91,5.91,0,0,1,4.13,1.2,5,5,0,0,1,1.28,3.8v9.3h-1.43v-6.75h-4.84a5.1,5.1,0,0,0-3,.71,2.63,2.63,0,0,0-1,2.25,2.56,2.56,0,0,0,.87,2.16,4.36,4.36,0,0,0,2.69.67,6.71,6.71,0,0,0,1.77-.21v1.23a9.8,9.8,0,0,1-2.16.2A5.12,5.12,0,0,1,618.1,502.14Z" transform="translate(-415.71 -477.64)"/><path class="cls-1" d="M618.77,485.15h9.72v1.12h-9.8Z" transform="translate(-415.71 -477.64)"/><path class="cls-1" d="M633.31,501.35a8.59,8.59,0,0,1-1.44-5.43,11.57,11.57,0,0,1,1-5.44,3.33,3.33,0,0,1,3.07-1.9,3.52,3.52,0,0,1,1.61.33,4.15,4.15,0,0,1,1.25,1,4,4,0,0,1,1.4-1,4.37,4.37,0,0,1,1.67-.34,2.82,2.82,0,0,1,2.15.8,3.34,3.34,0,0,1,.76,2.4v11.1h-1.43V491.94a2.47,2.47,0,0,0-.42-1.64,1.83,1.83,0,0,0-1.43-.47,2.62,2.62,0,0,0-1.28.33,2.41,2.41,0,0,0-1,1h-.91a3.71,3.71,0,0,0-1-1,2.35,2.35,0,0,0-1.24-.3,2.28,2.28,0,0,0-2.22,1.59,12.11,12.11,0,0,0-.67,4.5,7.57,7.57,0,0,0,1.1,4.6,3.8,3.8,0,0,0,3.22,1.4,5.84,5.84,0,0,0,1.77-.21v1.23a8.05,8.05,0,0,1-2.06.2A4.84,4.84,0,0,1,633.31,501.35Z" transform="translate(-415.71 -477.64)"/><path class="cls-1" d="M648.94,502.25a2.47,2.47,0,0,1-.59-1.73v-6.76a4.55,4.55,0,0,1,.32-1.77,4.31,4.31,0,0,1,.74-1.25,13.2,13.2,0,0,1,1.13-1.14,8.81,8.81,0,0,0,1-1.05,1.64,1.64,0,0,0,.32-1,1.41,1.41,0,0,0-.49-1.25,2.93,2.93,0,0,0-1.59-.34,5.9,5.9,0,0,0-2.94.81v-1.17a5.88,5.88,0,0,1,1.58-.64,7.21,7.21,0,0,1,1.7-.22,3.53,3.53,0,0,1,2.39.7,2.6,2.6,0,0,1,.78,2,2.33,2.33,0,0,1-.39,1.37,7.87,7.87,0,0,1-1.2,1.28,8.52,8.52,0,0,0-1.45,1.62,3.53,3.53,0,0,0-.5,2v6.53a1.55,1.55,0,0,0,.34,1.08,1.39,1.39,0,0,0,1,.35h1.27v1.19h-1.82A2.14,2.14,0,0,1,648.94,502.25Z" transform="translate(-415.71 -477.64)"/><path class="cls-1" d="M655.89,488.84h1.43v4.74h5.23a3.57,3.57,0,0,0,2.6-.76,3.15,3.15,0,0,0,.75-2.31v-1.67h1.43v1.67q0,3-2.34,3.66a2.6,2.6,0,0,1,1.73,1.28,5.41,5.41,0,0,1,.43,2.36v5.07h-1.43v-5a4.8,4.8,0,0,0-.3-1.9,1.73,1.73,0,0,0-1-.95,5.79,5.79,0,0,0-2-.27h-5.1v8.08h-1.43Z" transform="translate(-415.71 -477.64)"/><path class="cls-1" d="M661.82,483.75h-2.05v-1.09H663v2.49h5.74l-.08,1.12h-6.81Z" transform="translate(-415.71 -477.64)"/><path class="cls-1" d="M670.3,488.84h1.45l2.63,12.2,3.35-10.66v-1.54h1.07l3.51,12.2,2.6-12.2h1.43l-3.15,14h-1.56L678.46,492,675,502.88h-1.56Z" transform="translate(-415.71 -477.64)"/><path class="cls-1" d="M675.26,485.15h6.3a1.28,1.28,0,0,1-.29-.86,1.87,1.87,0,0,1,.56-1.41,2,2,0,0,1,1.44-.54,1.93,1.93,0,0,1,1.47.56,2,2,0,0,1,0,2.8,2.06,2.06,0,0,1-1.5.57h-8Zm8.81-.1a1.09,1.09,0,0,0,.29-.76,1.16,1.16,0,0,0-.29-.8,1.16,1.16,0,0,0-1.58,0,1.09,1.09,0,0,0-.31.8,1,1,0,0,0,.31.76,1.16,1.16,0,0,0,1.58,0Z" transform="translate(-415.71 -477.64)"/><path class="cls-1" d="M683.66,477.64h1.25v3.59h-1.25Z" transform="translate(-415.71 -477.64)"/><path class="cls-1" d="M692.87,502.91l-4-9.62h1.41l3.56,8.63a5.43,5.43,0,0,0,.65,0q4.65,0,4.65-6.58a11,11,0,0,0-.36-3.15,2.82,2.82,0,0,0-1.22-1.65,4.8,4.8,0,0,0-2.39-.5h-.84v-1.23h.94c1.92,0,3.28.52,4.08,1.55s1.2,2.68,1.2,4.95c0,2.66-.53,4.62-1.57,5.89a5.12,5.12,0,0,1-4.18,1.91A5.78,5.78,0,0,1,692.87,502.91Z" transform="translate(-415.71 -477.64)"/><path class="cls-1" d="M704.87,501.35a8.52,8.52,0,0,1-1.45-5.43,11.57,11.57,0,0,1,1-5.44,3.34,3.34,0,0,1,3.07-1.9,3.52,3.52,0,0,1,1.61.33,4,4,0,0,1,1.25,1,4,4,0,0,1,1.4-1,4.41,4.41,0,0,1,1.67-.34,2.86,2.86,0,0,1,2.16.8,3.38,3.38,0,0,1,.75,2.4v11.1h-1.43V491.94a2.47,2.47,0,0,0-.42-1.64,1.83,1.83,0,0,0-1.43-.47,2.62,2.62,0,0,0-1.28.33,2.47,2.47,0,0,0-1,1h-.91a3.71,3.71,0,0,0-1-1,2.32,2.32,0,0,0-1.24-.3,2.28,2.28,0,0,0-2.22,1.59,12.14,12.14,0,0,0-.66,4.5,7.57,7.57,0,0,0,1.09,4.6,3.82,3.82,0,0,0,3.22,1.4,5.8,5.8,0,0,0,1.77-.21v1.23a8,8,0,0,1-2,.2A4.82,4.82,0,0,1,704.87,501.35Z" transform="translate(-415.71 -477.64)"/><path class="cls-1" d="M721.4,501.88a5.34,5.34,0,0,1-1.16-3.73v-9.31h1.43v9.39a3.94,3.94,0,0,0,.86,2.8,3.7,3.7,0,0,0,2.76.89,6.54,6.54,0,0,0,4.83-2.18v-10.9h1.43v14h-1.24l-.13-1.84a8,8,0,0,1-2.37,1.56,7.74,7.74,0,0,1-3,.54A4.41,4.41,0,0,1,721.4,501.88Z" transform="translate(-415.71 -477.64)"/><path class="cls-1" d="M736,502.25a2.46,2.46,0,0,1-.58-1.73V488.84h1.43v11.42a1.51,1.51,0,0,0,.34,1.08,1.34,1.34,0,0,0,1,.35h1.27v1.19h-1.82A2.14,2.14,0,0,1,736,502.25Z" transform="translate(-415.71 -477.64)"/><path class="cls-1" d="M744.68,502.87a14.37,14.37,0,0,1-2.36-.66v-6.92h4.73l.08,1.22h-3.38v4.79a11.14,11.14,0,0,0,3.64.62,6.18,6.18,0,0,0,2.91-.59,3.48,3.48,0,0,0,1.59-1.92,12.89,12.89,0,0,0,0-7.11,3.37,3.37,0,0,0-1.67-1.88,7.33,7.33,0,0,0-3.23-.59,14.11,14.11,0,0,0-4.44.65v-1.22a15,15,0,0,1,4.83-.68q3.43,0,4.93,1.77c1,1.18,1.49,3,1.49,5.54s-.49,4.26-1.49,5.46-2.6,1.79-4.82,1.79A14.27,14.27,0,0,1,744.68,502.87Z" transform="translate(-415.71 -477.64)"/><path class="cls-1" d="M760.57,502.91l-4-9.62H758l3.56,8.63a5.55,5.55,0,0,0,.65,0q4.66,0,4.66-6.58a10.59,10.59,0,0,0-.37-3.15,2.82,2.82,0,0,0-1.22-1.65,4.8,4.8,0,0,0-2.39-.5h-.83v-1.23H763c1.93,0,3.29.52,4.09,1.55a8.19,8.19,0,0,1,1.19,4.95q0,4-1.57,5.89a5.12,5.12,0,0,1-4.17,1.91A5.88,5.88,0,0,1,760.57,502.91Z" transform="translate(-415.71 -477.64)"/><path class="cls-1" d="M772.7,502.25a2.47,2.47,0,0,1-.59-1.73v-9.73a5.66,5.66,0,0,1,.69-2.86,5.19,5.19,0,0,1,1.86-1.89H770v-1.2h6.5v1.25a4.71,4.71,0,0,0-2.23,1.9,6.29,6.29,0,0,0-.69,3.17v9.1a1.55,1.55,0,0,0,.34,1.08,1.39,1.39,0,0,0,1,.35h1.27v1.19h-1.82A2.14,2.14,0,0,1,772.7,502.25Z" transform="translate(-415.71 -477.64)"/><path class="cls-1" d="M780,501.35a8.59,8.59,0,0,1-1.44-5.43,7.9,7.9,0,0,1,1.69-5.41,6.51,6.51,0,0,1,5.15-1.93,6.18,6.18,0,0,1,4.6,1.55,5.36,5.36,0,0,1,1.51,3.91v8.84H790V494a4.1,4.1,0,0,0-1.13-3,4.93,4.93,0,0,0-3.58-1.13c-3.6,0-5.41,2-5.41,6.09a7.68,7.68,0,0,0,1.08,4.59,3.83,3.83,0,0,0,3.24,1.41,5.84,5.84,0,0,0,1.77-.21v1.23a8.05,8.05,0,0,1-2.06.2A4.84,4.84,0,0,1,780,501.35Z" transform="translate(-415.71 -477.64)"/><path class="cls-1" d="M786.08,483.75H784v-1.09h3.2v2.49H793l-.08,1.12h-6.81Z" transform="translate(-415.71 -477.64)"/><path class="cls-1" d="M796.26,501.35a8.52,8.52,0,0,1-1.45-5.43,8,8,0,0,1,1.69-5.41,6.51,6.51,0,0,1,5.15-1.93,6.16,6.16,0,0,1,4.6,1.55,5.36,5.36,0,0,1,1.51,3.91v8.84h-1.43V494a4.1,4.1,0,0,0-1.13-3,4.91,4.91,0,0,0-3.58-1.13q-5.4,0-5.4,6.09a7.68,7.68,0,0,0,1.08,4.59,3.79,3.79,0,0,0,3.23,1.41,5.84,5.84,0,0,0,1.77-.21v1.23a8,8,0,0,1-2,.2A4.82,4.82,0,0,1,796.26,501.35Z" transform="translate(-415.71 -477.64)"/><path class="cls-1" d="M802.38,483.75h-2.06v-1.09h3.2v2.49h5.75l-.08,1.12h-6.81Z" transform="translate(-415.71 -477.64)"/><path class="cls-1" d="M811.11,502.47v-1.22a8.74,8.74,0,0,0,3.31.67,6.44,6.44,0,0,0,3.14-.63,3.38,3.38,0,0,0,1.56-1.94,11,11,0,0,0,.44-3.48,7.13,7.13,0,0,0-1.2-4.59c-.81-1-2.16-1.45-4.05-1.45a8,8,0,0,0-3.2.68v-1.25a8.79,8.79,0,0,1,1.55-.51,9.53,9.53,0,0,1,1.91-.17,6.08,6.08,0,0,1,4.85,1.82,8.19,8.19,0,0,1,1.57,5.47,8.86,8.86,0,0,1-1.41,5.46q-1.43,1.82-4.83,1.81A8.9,8.9,0,0,1,811.11,502.47Z" transform="translate(-415.71 -477.64)"/><path class="cls-1" d="M825.35,502.09a3.52,3.52,0,0,1-1.52-3.08,3.73,3.73,0,0,1,.61-2.2,3.42,3.42,0,0,1,1.7-1.26,2.87,2.87,0,0,1-1.62-1.06,3.39,3.39,0,0,1-.61-2.11,3.58,3.58,0,0,1,1.08-2.83,4.07,4.07,0,0,1,2.82-1,8,8,0,0,1,2.05.26v1.23a5.65,5.65,0,0,0-1.77-.24c-1.84,0-2.75.85-2.75,2.55s1,2.58,3.09,2.58h1.51l.13,1.14h-1.72a3.28,3.28,0,0,0-2.31.75,2.83,2.83,0,0,0-.81,2.16q0,2.91,4.47,2.91A5.09,5.09,0,0,0,833,501a3.32,3.32,0,0,0,1.08-2.73v-9.47h1.43v8.64a6.13,6.13,0,0,1-1.3,4.26c-.87.94-2.35,1.4-4.45,1.4A7.66,7.66,0,0,1,825.35,502.09Z" transform="translate(-415.71 -477.64)"/><path class="cls-1" d="M838.83,502.47v-1.22a8.73,8.73,0,0,0,3.3.67,6.51,6.51,0,0,0,3.15-.63,3.45,3.45,0,0,0,1.56-1.94,11.3,11.3,0,0,0,.44-3.48,7.06,7.06,0,0,0-1.21-4.59c-.8-1-2.15-1.45-4-1.45a8,8,0,0,0-3.2.68v-1.25a8.52,8.52,0,0,1,1.55-.51,9.46,9.46,0,0,1,1.91-.17,6.09,6.09,0,0,1,4.85,1.82,8.19,8.19,0,0,1,1.57,5.47,8.79,8.79,0,0,1-1.42,5.46q-1.41,1.82-4.82,1.81A8.9,8.9,0,0,1,838.83,502.47Z" transform="translate(-415.71 -477.64)"/><path class="cls-1" d="M838.44,485.15h9.72v1.12h-9.8Z" transform="translate(-415.71 -477.64)"/><path class="cls-1" d="M854.17,502.87a14.8,14.8,0,0,1-2.37-.66v-5.38h1.36v4.47a11.33,11.33,0,0,0,3.71.62,5.25,5.25,0,0,0,3-.67,2.53,2.53,0,0,0,1-2.24,3.34,3.34,0,0,0-.48-1.95,2.66,2.66,0,0,0-1.3-1,22.3,22.3,0,0,0-2.59-.69c-1.19-.26-2.08-.49-2.66-.68a3.88,3.88,0,0,1-1.55-1,2.57,2.57,0,0,1-.68-1.9,2.64,2.64,0,0,1,1.43-2.51,8.92,8.92,0,0,1,4.11-.77,16.51,16.51,0,0,1,2.46.2,11,11,0,0,1,2.07.48v1.28a11.47,11.47,0,0,0-2.06-.51,14.12,14.12,0,0,0-2.26-.2,10.15,10.15,0,0,0-3.28.41,1.55,1.55,0,0,0-1.11,1.59,1.57,1.57,0,0,0,.41,1.16,2.52,2.52,0,0,0,1.09.65c.45.15,1.15.34,2.08.56a5.76,5.76,0,0,1,.6.12l.47.11a14.29,14.29,0,0,1,2.53.81,3.62,3.62,0,0,1,1.53,1.3,4.44,4.44,0,0,1,.59,2.47,3.6,3.6,0,0,1-1.37,3.12,6.36,6.36,0,0,1-3.85,1A14.32,14.32,0,0,1,854.17,502.87Z" transform="translate(-415.71 -477.64)"/><path class="cls-1" d="M851.93,485.15h8.45v-2.26h1.28v3.38h-9.8Z" transform="translate(-415.71 -477.64)"/><path class="cls-1" d="M869,502.91l-4-9.62h1.4l3.56,8.63a5.55,5.55,0,0,0,.65,0q4.67,0,4.66-6.58a10.59,10.59,0,0,0-.37-3.15,2.82,2.82,0,0,0-1.22-1.65,4.8,4.8,0,0,0-2.39-.5h-.83v-1.23h.93c1.93,0,3.29.52,4.09,1.55a8.19,8.19,0,0,1,1.19,4.95q0,4-1.57,5.89a5.12,5.12,0,0,1-4.17,1.91A5.88,5.88,0,0,1,869,502.91Z" transform="translate(-415.71 -477.64)"/><path class="cls-1" d="M874.76,482.11h1.43v4.16h-1.43Z" transform="translate(-415.71 -477.64)"/><path class="cls-1" d="M886.05,493.6a6.6,6.6,0,0,0-.29-2.17,2.07,2.07,0,0,0-1.08-1.19,5.25,5.25,0,0,0-2.33-.41,11.21,11.21,0,0,0-1.82.17,8.5,8.5,0,0,0-1.76.48v-1.22a9,9,0,0,1,1.8-.49,11.92,11.92,0,0,1,2-.19,4.18,4.18,0,0,1,4.87,4.89v9.41h-1.43Z" transform="translate(-415.71 -477.64)"/><path class="cls-1" d="M892.35,502.09a3.52,3.52,0,0,1-1.52-3.08,3.73,3.73,0,0,1,.61-2.2,3.46,3.46,0,0,1,1.7-1.26,2.9,2.9,0,0,1-1.62-1.06,3.39,3.39,0,0,1-.61-2.11,3.58,3.58,0,0,1,1.08-2.83,4.09,4.09,0,0,1,2.82-1,7.94,7.94,0,0,1,2.05.26v1.23a5.65,5.65,0,0,0-1.77-.24c-1.83,0-2.75.85-2.75,2.55s1,2.58,3.09,2.58h1.51l.13,1.14h-1.72a3.28,3.28,0,0,0-2.31.75,2.83,2.83,0,0,0-.81,2.16q0,2.91,4.48,2.91A5.07,5.07,0,0,0,900,501a3.32,3.32,0,0,0,1.08-2.73v-9.47h1.43v8.64a6.13,6.13,0,0,1-1.3,4.26c-.87.94-2.35,1.4-4.45,1.4A7.7,7.7,0,0,1,892.35,502.09Z" transform="translate(-415.71 -477.64)"/><path class="cls-1" d="M915.4,491.89a3.46,3.46,0,0,0-.21-1.33,1,1,0,0,0-.78-.62,2.69,2.69,0,0,0-.44-.06,3.76,3.76,0,0,0-.68.11,2.09,2.09,0,0,0-1.45,1.17H911a3.46,3.46,0,0,0-.74-1,1.51,1.51,0,0,0-1-.3,1.65,1.65,0,0,0-1.43.74,4,4,0,0,0-.52,2.31,2.39,2.39,0,0,0,2.7,2.78,6,6,0,0,0,1.79-.21v1.22a7.67,7.67,0,0,1-2.05.23,3.8,3.8,0,0,1-2.83-1,4.08,4.08,0,0,1-1-3,5,5,0,0,1,.89-3.19,2.79,2.79,0,0,1,2.28-1.11,2.88,2.88,0,0,1,1.42.3,2.93,2.93,0,0,1,1,1,3.22,3.22,0,0,1,2.7-1.3,2.33,2.33,0,0,1,2.16.93,6.22,6.22,0,0,1,.57,3.11v10.26H915.4Z" transform="translate(-415.71 -477.64)"/><path class="cls-1" d="M416.23,524.78a4.76,4.76,0,0,1,1.41-3.75,6.53,6.53,0,0,1,4.38-1.24,6.44,6.44,0,0,1,4.35,1.24,4.79,4.79,0,0,1,1.4,3.75v9.3h-1.43v-9.51a3.2,3.2,0,0,0-1.08-2.69,6.68,6.68,0,0,0-6.52,0,3.2,3.2,0,0,0-1.08,2.69v3.61A5.12,5.12,0,0,1,421,527h1.74l.08,1.2h-1.85a4.87,4.87,0,0,0-1.73.29,5.35,5.35,0,0,0-1.54.88v4.7h-1.43Z" transform="translate(-415.71 -477.64)"/><path class="cls-1" d="M426.34,513.31h1.43v4.16h-1.43Z" transform="translate(-415.71 -477.64)"/><path class="cls-1" d="M433.49,534.07a14.8,14.8,0,0,1-2.37-.66v-6.92h4.74l.07,1.22h-3.38v4.79a10.92,10.92,0,0,0,3.64.62,6.2,6.2,0,0,0,2.92-.59,3.51,3.51,0,0,0,1.58-1.92,12.77,12.77,0,0,0,0-7.11,3.42,3.42,0,0,0-1.68-1.88,7.29,7.29,0,0,0-3.22-.59,14.13,14.13,0,0,0-4.45.65v-1.22a15.11,15.11,0,0,1,4.84-.67c2.29,0,3.93.58,4.93,1.76s1.49,3,1.49,5.54-.5,4.26-1.49,5.46-2.61,1.79-4.83,1.79A14.17,14.17,0,0,1,433.49,534.07Z" transform="translate(-415.71 -477.64)"/><path class="cls-1" d="M447,533.29a3.5,3.5,0,0,1-1.53-3.08A3.74,3.74,0,0,1,446,528a3.37,3.37,0,0,1,1.7-1.26,2.89,2.89,0,0,1-1.63-1.06,3.45,3.45,0,0,1-.61-2.11,3.58,3.58,0,0,1,1.08-2.83,4.09,4.09,0,0,1,2.82-1,8.08,8.08,0,0,1,2.06.25v1.23a5.74,5.74,0,0,0-1.77-.24q-2.76,0-2.76,2.55c0,1.72,1,2.58,3.1,2.58h1.5l.13,1.14H450a3.29,3.29,0,0,0-2.32.75,2.86,2.86,0,0,0-.8,2.16q0,2.91,4.47,2.91a5.05,5.05,0,0,0,3.26-.88,3.32,3.32,0,0,0,1.08-2.73V520h1.43v8.64a6.08,6.08,0,0,1-1.3,4.26c-.86.94-2.35,1.4-4.44,1.4A7.66,7.66,0,0,1,447,533.29Z" transform="translate(-415.71 -477.64)"/><path class="cls-1" d="M461.53,533.45a2.46,2.46,0,0,1-.58-1.73V520h1.43v11.42a1.55,1.55,0,0,0,.33,1.08,1.39,1.39,0,0,0,1,.35H465v1.19h-1.82A2.14,2.14,0,0,1,461.53,533.45Z" transform="translate(-415.71 -477.64)"/><path class="cls-1" d="M469.85,533a5.14,5.14,0,0,1-1.49-4V520h1.43v9.1c0,2.66,1.49,4,4.47,4s4.44-1.32,4.44-4V515.88h1.43V529a5.16,5.16,0,0,1-1.49,4,6.3,6.3,0,0,1-4.38,1.36A6.39,6.39,0,0,1,469.85,533Z" transform="translate(-415.71 -477.64)"/><path class="cls-1" d="M485.17,533.08a5.29,5.29,0,0,1-1.16-3.73V520h1.43v9.39a3.9,3.9,0,0,0,.86,2.8,3.69,3.69,0,0,0,2.75.89,6.58,6.58,0,0,0,4.84-2.18V520h1.43v14h-1.25l-.13-1.84a7.8,7.8,0,0,1-2.37,1.56,7.71,7.71,0,0,1-3,.54A4.4,4.4,0,0,1,485.17,533.08Z" transform="translate(-415.71 -477.64)"/><path class="cls-1" d="M499.19,524.78a4.73,4.73,0,0,1,1.42-3.75,6.49,6.49,0,0,1,4.38-1.24,6.39,6.39,0,0,1,4.34,1.24,4.76,4.76,0,0,1,1.41,3.75v9.3h-1.43v-9.51a3.2,3.2,0,0,0-1.08-2.69A5.16,5.16,0,0,0,505,521a5.26,5.26,0,0,0-3.29.85,3.2,3.2,0,0,0-1.08,2.69v3.61a5.12,5.12,0,0,1,3.3-1.17h1.75l.07,1.2H503.9a4.83,4.83,0,0,0-1.73.29,5.53,5.53,0,0,0-1.55.88v4.7h-1.43Z" transform="translate(-415.71 -477.64)"/><path class="cls-1" d="M509.31,513.31h1.43v4.16h-1.43Z" transform="translate(-415.71 -477.64)"/><path class="cls-1" d="M516.46,534.07a14.51,14.51,0,0,1-2.37-.66v-6.92h4.73l.08,1.22h-3.38v4.79a10.92,10.92,0,0,0,3.64.62,6.18,6.18,0,0,0,2.91-.59,3.48,3.48,0,0,0,1.59-1.92,10.22,10.22,0,0,0,.49-3.52,10.43,10.43,0,0,0-.5-3.59,3.42,3.42,0,0,0-1.68-1.88,7.33,7.33,0,0,0-3.23-.59,14.11,14.11,0,0,0-4.44.65v-1.22a15.09,15.09,0,0,1,4.83-.67c2.29,0,3.93.58,4.93,1.76s1.5,3,1.5,5.54-.5,4.26-1.5,5.46-2.6,1.79-4.82,1.79A14.17,14.17,0,0,1,516.46,534.07Z" transform="translate(-415.71 -477.64)"/><path class="cls-1" d="M529.91,533.29a3.52,3.52,0,0,1-1.52-3.08A3.73,3.73,0,0,1,529,528a3.46,3.46,0,0,1,1.7-1.26,2.9,2.9,0,0,1-1.62-1.06,3.39,3.39,0,0,1-.61-2.11,3.58,3.58,0,0,1,1.08-2.83,4.09,4.09,0,0,1,2.82-1,7.94,7.94,0,0,1,2,.25v1.23a5.65,5.65,0,0,0-1.77-.24c-1.83,0-2.75.85-2.75,2.55s1,2.58,3.09,2.58h1.51l.13,1.14h-1.72a3.28,3.28,0,0,0-2.31.75,2.83,2.83,0,0,0-.81,2.16c0,1.94,1.5,2.91,4.48,2.91a5.07,5.07,0,0,0,3.26-.88,3.32,3.32,0,0,0,1.08-2.73V520H540v8.64a6.13,6.13,0,0,1-1.3,4.26c-.87.94-2.35,1.4-4.45,1.4A7.7,7.7,0,0,1,529.91,533.29Z" transform="translate(-415.71 -477.64)"/><path class="cls-1" d="M545,533.45a2.47,2.47,0,0,1-.59-1.73V522a5.67,5.67,0,0,1,.69-2.87,5.26,5.26,0,0,1,1.86-1.89h-4.71V516h6.5v1.25a4.73,4.73,0,0,0-2.22,1.9,6.29,6.29,0,0,0-.69,3.17v9.1a1.51,1.51,0,0,0,.34,1.08,1.34,1.34,0,0,0,1,.35h1.28v1.19h-1.82A2.14,2.14,0,0,1,545,533.45Z" transform="translate(-415.71 -477.64)"/><path class="cls-1" d="M552.79,533a5.14,5.14,0,0,1-1.49-4V520h1.43v9.1c0,2.66,1.49,4,4.47,4s4.44-1.32,4.44-4V515.88h1.43V529a5.16,5.16,0,0,1-1.49,4,6.3,6.3,0,0,1-4.38,1.36A6.39,6.39,0,0,1,552.79,533Z" transform="translate(-415.71 -477.64)"/><path class="cls-1" d="M567.87,532.55a8.59,8.59,0,0,1-1.44-5.43,11.45,11.45,0,0,1,1-5.44,3.31,3.31,0,0,1,3.07-1.89,3.56,3.56,0,0,1,1.61.32,4.15,4.15,0,0,1,1.25,1,3.81,3.81,0,0,1,1.4-1,4.35,4.35,0,0,1,1.66-.33,2.82,2.82,0,0,1,2.16.79,3.34,3.34,0,0,1,.76,2.4v11.1H578V523.14a2.47,2.47,0,0,0-.42-1.64,1.85,1.85,0,0,0-1.43-.47,2.69,2.69,0,0,0-1.29.33,2.45,2.45,0,0,0-1,1h-.91a3.73,3.73,0,0,0-1-1,2.43,2.43,0,0,0-3.45,1.29,11.91,11.91,0,0,0-.67,4.5,7.64,7.64,0,0,0,1.09,4.6,3.84,3.84,0,0,0,3.23,1.4,6.24,6.24,0,0,0,1.77-.2v1.22a8.11,8.11,0,0,1-2.06.2A4.82,4.82,0,0,1,567.87,532.55Z" transform="translate(-415.71 -477.64)"/><path class="cls-1" d="M589.23,524.8a6.6,6.6,0,0,0-.29-2.17,2.11,2.11,0,0,0-1.07-1.19,5.28,5.28,0,0,0-2.33-.41,11.11,11.11,0,0,0-1.82.17,8.43,8.43,0,0,0-1.77.48v-1.22a8.92,8.92,0,0,1,1.81-.49,11.72,11.72,0,0,1,2-.18,4.17,4.17,0,0,1,4.86,4.88v9.41h-1.43Z" transform="translate(-415.71 -477.64)"/><path class="cls-1" d="M598.24,533.81a8,8,0,0,1-2.33-1.57l-.13,1.84h-1.25V520H596v10.9a6.49,6.49,0,0,0,4.76,2.18,3.86,3.86,0,0,0,2.8-.89,3.81,3.81,0,0,0,.89-2.8V520h1.43v9.31a5.21,5.21,0,0,1-1.19,3.73,4.55,4.55,0,0,1-3.46,1.26A7.34,7.34,0,0,1,598.24,533.81Z" transform="translate(-415.71 -477.64)"/><path class="cls-1" d="M610.11,527.77a2.92,2.92,0,0,1,.54-1.78,3,3,0,0,1,1.62-1.06l-3.07-.67v-2.08a8,8,0,0,1,2.66-1.72,9.54,9.54,0,0,1,3.68-.67,6.52,6.52,0,0,1,4.44,1.28,4.89,4.89,0,0,1,1.44,3.84v9.17H620v-9.25a3.63,3.63,0,0,0-1-2.93,5.35,5.35,0,0,0-3.4-.87,8.82,8.82,0,0,0-2.95.48,5,5,0,0,0-2.09,1.27v.72l3.12.68v1.25a2.82,2.82,0,0,0-1.56.8,2.29,2.29,0,0,0-.52,1.61v6.24h-1.43Z" transform="translate(-415.71 -477.64)"/><path class="cls-1" d="M618.82,517.22a2.33,2.33,0,0,1-.73-1.75,2.37,2.37,0,0,1,.73-1.76,2.47,2.47,0,0,1,1.79-.71,2.44,2.44,0,0,1,1.77.71,2.37,2.37,0,0,1,.73,1.76,2.33,2.33,0,0,1-.73,1.75,2.41,2.41,0,0,1-1.77.72A2.44,2.44,0,0,1,618.82,517.22Zm2.82-.72a1.45,1.45,0,0,0,0-2.06,1.44,1.44,0,0,0-1-.43,1.47,1.47,0,0,0-1.05.43,1.45,1.45,0,0,0,0,2.06,1.46,1.46,0,0,0,1.05.42A1.43,1.43,0,0,0,621.64,516.5Z" transform="translate(-415.71 -477.64)"/><path class="cls-1" d="M631.27,524.8a6.64,6.64,0,0,0-.28-2.17,2.1,2.1,0,0,0-1.08-1.19,5.28,5.28,0,0,0-2.33-.41,11.21,11.21,0,0,0-1.82.17,8.43,8.43,0,0,0-1.77.48v-1.22a8.92,8.92,0,0,1,1.81-.49,11.72,11.72,0,0,1,2-.18,4.17,4.17,0,0,1,4.86,4.88v9.41h-1.43Z" transform="translate(-415.71 -477.64)"/><path class="cls-1" d="M637.29,533.34a3.69,3.69,0,0,1-1.23-3.05,3.81,3.81,0,0,1,1.3-3.08,6,6,0,0,1,4-1.11h4.94v-1.38a5,5,0,0,0-.39-2.17,2.34,2.34,0,0,0-1.31-1.15A7.11,7.11,0,0,0,642,521a14.07,14.07,0,0,0-4.42.65v-1.22a15.06,15.06,0,0,1,4.74-.67,5.91,5.91,0,0,1,4.13,1.19,5,5,0,0,1,1.27,3.8v9.3h-1.43v-6.75h-4.83a5.1,5.1,0,0,0-3,.71,2.61,2.61,0,0,0-1,2.25,2.54,2.54,0,0,0,.88,2.16,4.36,4.36,0,0,0,2.69.67,7,7,0,0,0,1.76-.2v1.22a9.65,9.65,0,0,1-2.15.2A5.1,5.1,0,0,1,637.29,533.34Z" transform="translate(-415.71 -477.64)"/><path class="cls-1" d="M642.5,514.38h1.28v2H651l-.08,1.12H642.5Z" transform="translate(-415.71 -477.64)"/><path class="cls-1" d="M655,534.11l-4-9.62h1.4l3.56,8.63a5.55,5.55,0,0,0,.65,0q4.67,0,4.66-6.58a10.59,10.59,0,0,0-.37-3.15,2.82,2.82,0,0,0-1.22-1.65,4.8,4.8,0,0,0-2.39-.5h-.83V520h.93c1.93,0,3.29.52,4.09,1.55a8.19,8.19,0,0,1,1.19,4.95q0,4-1.57,5.89a5.12,5.12,0,0,1-4.17,1.91A5.88,5.88,0,0,1,655,534.11Z" transform="translate(-415.71 -477.64)"/><path class="cls-1" d="M666.33,533.45a2.46,2.46,0,0,1-.58-1.73V525a4.55,4.55,0,0,1,.31-1.77,4.8,4.8,0,0,1,.74-1.25,14.84,14.84,0,0,1,1.13-1.14,8.81,8.81,0,0,0,1-1,1.58,1.58,0,0,0,.32-1,1.41,1.41,0,0,0-.49-1.25,2.93,2.93,0,0,0-1.59-.34,5.87,5.87,0,0,0-2.93.81v-1.17a5.81,5.81,0,0,1,1.57-.64,7.28,7.28,0,0,1,1.7-.22,3.46,3.46,0,0,1,2.39.71,2.56,2.56,0,0,1,.78,2,2.33,2.33,0,0,1-.39,1.37,7.74,7.74,0,0,1-1.19,1.28,8.61,8.61,0,0,0-1.46,1.62,3.53,3.53,0,0,0-.49,2v6.53a1.51,1.51,0,0,0,.34,1.08,1.34,1.34,0,0,0,1,.35h1.27v1.19H668A2.14,2.14,0,0,1,666.33,533.45Z" transform="translate(-415.71 -477.64)"/><path class="cls-1" d="M673.29,520h1.43v4.74h5.22a3.57,3.57,0,0,0,2.6-.76,3.11,3.11,0,0,0,.76-2.31V520h1.43v1.67q0,3-2.34,3.67a2.61,2.61,0,0,1,1.73,1.27,5.56,5.56,0,0,1,.43,2.36v5.07h-1.43v-5a4.8,4.8,0,0,0-.3-1.9,1.76,1.76,0,0,0-1-1,5.85,5.85,0,0,0-2-.27h-5.09v8.08h-1.43Z" transform="translate(-415.71 -477.64)"/><path class="cls-1" d="M679.22,515h-2.06v-1.09h3.2v2.49h5.75l-.08,1.12h-6.81Z" transform="translate(-415.71 -477.64)"/><path class="cls-1" d="M687.69,520h1.46l2.62,12.2,3.36-10.66V520h1.06l3.51,12.2,2.6-12.2h1.43l-3.14,14H699l-3.17-10.91-3.44,10.91h-1.56Z" transform="translate(-415.71 -477.64)"/><path class="cls-1" d="M708.67,534.07a14.37,14.37,0,0,1-2.36-.66v-6.92H711l.08,1.22h-3.38v4.79a10.88,10.88,0,0,0,3.64.62,6.18,6.18,0,0,0,2.91-.59,3.48,3.48,0,0,0,1.59-1.92,12.89,12.89,0,0,0,0-7.11,3.37,3.37,0,0,0-1.67-1.88A7.33,7.33,0,0,0,711,521a14.11,14.11,0,0,0-4.44.65v-1.22a15,15,0,0,1,4.83-.67c2.29,0,3.93.58,4.93,1.76s1.49,3,1.49,5.54-.49,4.26-1.49,5.46-2.61,1.79-4.82,1.79A14.27,14.27,0,0,1,708.67,534.07Z" transform="translate(-415.71 -477.64)"/><path class="cls-1" d="M724.83,533.81a7.8,7.8,0,0,1-2.32-1.57l-.13,1.84h-1.25V520h1.43v10.9a6.47,6.47,0,0,0,4.76,2.18,3.21,3.21,0,0,0,3.69-3.69V520h1.43v9.31a5.21,5.21,0,0,1-1.2,3.73,4.53,4.53,0,0,1-3.46,1.26A7.37,7.37,0,0,1,724.83,533.81Z" transform="translate(-415.71 -477.64)"/><path class="cls-1" d="M722.69,516.35h8.45v-2.26h1.27v3.38h-9.8Z" transform="translate(-415.71 -477.64)"/><path class="cls-1" d="M736.7,527.77a2.86,2.86,0,0,1,.55-1.78,2.92,2.92,0,0,1,1.61-1.06l-3.07-.67v-2.08a8,8,0,0,1,2.67-1.72,9.51,9.51,0,0,1,3.68-.67,6.49,6.49,0,0,1,4.43,1.28,4.89,4.89,0,0,1,1.44,3.84v9.17h-1.43v-9.25a3.63,3.63,0,0,0-1.05-2.93,5.3,5.3,0,0,0-3.39-.87,8.82,8.82,0,0,0-2.95.48,5.1,5.1,0,0,0-2.1,1.27v.72l3.12.68v1.25a2.9,2.9,0,0,0-1.56.8,2.34,2.34,0,0,0-.52,1.61v6.24H736.7Z" transform="translate(-415.71 -477.64)"/><path class="cls-1" d="M738.26,516.35H748v1.12h-9.81Z" transform="translate(-415.71 -477.64)"/><path class="cls-1" d="M753,533.08a5.34,5.34,0,0,1-1.15-3.73V520h1.43v9.39a3.94,3.94,0,0,0,.85,2.8,3.74,3.74,0,0,0,2.76.89,6.58,6.58,0,0,0,4.84-2.18V520h1.43v14H762l-.13-1.84a7.8,7.8,0,0,1-2.37,1.56,7.71,7.71,0,0,1-3,.54A4.41,4.41,0,0,1,753,533.08Z" transform="translate(-415.71 -477.64)"/><path class="cls-1" d="M768.12,533.45a2.46,2.46,0,0,1-.58-1.73V522a5.67,5.67,0,0,1,.69-2.87,5.26,5.26,0,0,1,1.86-1.89h-4.71V516h6.5v1.25a4.73,4.73,0,0,0-2.22,1.9,6.29,6.29,0,0,0-.69,3.17v9.1a1.51,1.51,0,0,0,.34,1.08,1.34,1.34,0,0,0,1,.35h1.27v1.19h-1.82A2.14,2.14,0,0,1,768.12,533.45Z" transform="translate(-415.71 -477.64)"/><path class="cls-1" d="M778.16,533.81a8,8,0,0,1-2.33-1.57l-.13,1.84h-1.25V520h1.43v10.9a6.49,6.49,0,0,0,4.76,2.18,3.86,3.86,0,0,0,2.8-.89,3.81,3.81,0,0,0,.89-2.8V520h1.43v9.31a5.21,5.21,0,0,1-1.19,3.73,4.55,4.55,0,0,1-3.46,1.26A7.34,7.34,0,0,1,778.16,533.81Z" transform="translate(-415.71 -477.64)"/><path class="cls-1" d="M784.33,513.31h1.43v4.16h-1.43Z" transform="translate(-415.71 -477.64)"/><path class="cls-1" d="M791.48,534.07a14.37,14.37,0,0,1-2.36-.66v-6.92h4.73l.08,1.22h-3.38v4.79a10.88,10.88,0,0,0,3.64.62,6.18,6.18,0,0,0,2.91-.59,3.48,3.48,0,0,0,1.59-1.92,12.89,12.89,0,0,0,0-7.11,3.37,3.37,0,0,0-1.67-1.88,7.33,7.33,0,0,0-3.23-.59,14.11,14.11,0,0,0-4.44.65v-1.22a15,15,0,0,1,4.83-.67c2.29,0,3.93.58,4.93,1.76s1.49,3,1.49,5.54-.49,4.26-1.49,5.46-2.6,1.79-4.82,1.79A14.27,14.27,0,0,1,791.48,534.07Z" transform="translate(-415.71 -477.64)"/><path class="cls-1" d="M804.86,532.55a8.59,8.59,0,0,1-1.44-5.43,7.9,7.9,0,0,1,1.69-5.41,6.49,6.49,0,0,1,5.15-1.92,6.17,6.17,0,0,1,4.6,1.54,5.41,5.41,0,0,1,1.51,3.92v8.83h-1.43v-8.91a4.1,4.1,0,0,0-1.13-3,4.93,4.93,0,0,0-3.58-1.13c-3.6,0-5.41,2-5.41,6.09a7.68,7.68,0,0,0,1.08,4.59,3.83,3.83,0,0,0,3.24,1.41,6.24,6.24,0,0,0,1.77-.2v1.22a8.11,8.11,0,0,1-2.06.2A4.82,4.82,0,0,1,804.86,532.55Z" transform="translate(-415.71 -477.64)"/><path class="cls-1" d="M822.09,534.07a14.51,14.51,0,0,1-2.37-.66v-6.92h4.73l.08,1.22h-3.38v4.79a10.92,10.92,0,0,0,3.64.62,6.18,6.18,0,0,0,2.91-.59,3.48,3.48,0,0,0,1.59-1.92,10.22,10.22,0,0,0,.49-3.52,10.43,10.43,0,0,0-.5-3.59,3.42,3.42,0,0,0-1.68-1.88,7.33,7.33,0,0,0-3.23-.59,14.11,14.11,0,0,0-4.44.65v-1.22a15.09,15.09,0,0,1,4.83-.67c2.29,0,3.93.58,4.93,1.76s1.5,3,1.5,5.54-.5,4.26-1.5,5.46-2.6,1.79-4.82,1.79A14.17,14.17,0,0,1,822.09,534.07Z" transform="translate(-415.71 -477.64)"/><path class="cls-1" d="M835.54,533.29a3.52,3.52,0,0,1-1.52-3.08,3.73,3.73,0,0,1,.61-2.2,3.46,3.46,0,0,1,1.7-1.26,2.9,2.9,0,0,1-1.62-1.06,3.39,3.39,0,0,1-.61-2.11,3.58,3.58,0,0,1,1.08-2.83,4.09,4.09,0,0,1,2.82-1,7.94,7.94,0,0,1,2,.25v1.23a5.65,5.65,0,0,0-1.77-.24c-1.83,0-2.75.85-2.75,2.55s1,2.58,3.09,2.58h1.51l.13,1.14h-1.72a3.28,3.28,0,0,0-2.31.75,2.83,2.83,0,0,0-.81,2.16c0,1.94,1.5,2.91,4.48,2.91a5.07,5.07,0,0,0,3.26-.88,3.32,3.32,0,0,0,1.08-2.73V520h1.43v8.64a6.13,6.13,0,0,1-1.3,4.26c-.87.94-2.35,1.4-4.45,1.4A7.7,7.7,0,0,1,835.54,533.29Z" transform="translate(-415.71 -477.64)"/><path class="cls-1" d="M855.52,524.8a6.64,6.64,0,0,0-.28-2.17,2.1,2.1,0,0,0-1.08-1.19,5.28,5.28,0,0,0-2.33-.41,11.21,11.21,0,0,0-1.82.17,8.43,8.43,0,0,0-1.77.48v-1.22a8.92,8.92,0,0,1,1.81-.49,11.72,11.72,0,0,1,2-.18,4.17,4.17,0,0,1,4.86,4.88v9.41h-1.43Z" transform="translate(-415.71 -477.64)"/><path class="cls-1" d="M861.22,527.77a2.92,2.92,0,0,1,.54-1.78,3,3,0,0,1,1.61-1.06l-3.06-.67v-2.08a8,8,0,0,1,2.66-1.72,9.51,9.51,0,0,1,3.68-.67,6.49,6.49,0,0,1,4.43,1.28,4.86,4.86,0,0,1,1.45,3.84v9.17H871.1v-9.25A3.6,3.6,0,0,0,870,521.9a5.3,5.3,0,0,0-3.39-.87,8.82,8.82,0,0,0-2.95.48,5,5,0,0,0-2.09,1.27v.72l3.12.68v1.25a2.82,2.82,0,0,0-1.56.8,2.29,2.29,0,0,0-.52,1.61v6.24h-1.43Z" transform="translate(-415.71 -477.64)"/><path class="cls-1" d="M877.08,517.08h1.32l-1.51,4.45h-1Zm3.27,0h1.33l-1.51,4.45h-1Z" transform="translate(-415.71 -477.64)"/><path class="cls-1" d="M416.55,563a18.27,18.27,0,0,1-.84-5.54,18.08,18.08,0,0,1,.84-5.51,8.76,8.76,0,0,1,2.77-4.24H421q-3.85,3.2-3.85,9.75a16,16,0,0,0,.92,5.64,9.73,9.73,0,0,0,2.93,4.11h-1.64A8.67,8.67,0,0,1,416.55,563Z" transform="translate(-415.71 -477.64)"/><path class="cls-1" d="M423,551.25h1.46l2.62,12.19,3.36-10.66v-1.53h1.06L435,563.44l2.6-12.19h1.43l-3.14,14h-1.56l-3.17-10.92-3.44,10.92h-1.56Z" transform="translate(-415.71 -477.64)"/><path class="cls-1" d="M444,565.38a9.51,9.51,0,0,1-2-.48v-1.28a12.16,12.16,0,0,0,4.21.7,7.11,7.11,0,0,0,3.16-.53,2,2,0,0,0,1-2,2.19,2.19,0,0,0-.42-1.39,2.76,2.76,0,0,0-1.09-.83,18.36,18.36,0,0,0-1.93-.69,7.71,7.71,0,0,0-.78-.26,22.82,22.82,0,0,1-2.4-.91,4.32,4.32,0,0,1-1.53-1.18,3,3,0,0,1-.64-2q0-3.59,5.22-3.58a13.5,13.5,0,0,1,2.1.16,12,12,0,0,1,1.88.46v1.27a10.62,10.62,0,0,0-3.77-.65,6.88,6.88,0,0,0-3.08.51,1.88,1.88,0,0,0-1,1.81,1.92,1.92,0,0,0,.5,1.36,3.78,3.78,0,0,0,1.31.89c.55.23,1.36.52,2.46.87a17.73,17.73,0,0,1,2.4.92,4.26,4.26,0,0,1,1.52,1.22,3.61,3.61,0,0,1-.82,4.86,7.55,7.55,0,0,1-4,.87A17.84,17.84,0,0,1,444,565.38Z" transform="translate(-415.71 -477.64)"/><path class="cls-1" d="M454.65,553.77h1.28V555h4.24l-.06,1.17h-5.46Zm0,7.28h1.28v1.3h4.24l-.06,1.14h-5.46Z" transform="translate(-415.71 -477.64)"/><path class="cls-1" d="M465.35,565.38a9.51,9.51,0,0,1-2-.48v-1.28a12.16,12.16,0,0,0,4.21.7,7.09,7.09,0,0,0,3.16-.53,2,2,0,0,0,1-2,2.19,2.19,0,0,0-.42-1.39,2.76,2.76,0,0,0-1.09-.83,18.9,18.9,0,0,0-1.92-.69c-.18-.07-.44-.16-.78-.26a22.27,22.27,0,0,1-2.41-.91,4.32,4.32,0,0,1-1.53-1.18,3,3,0,0,1-.64-2q0-3.59,5.23-3.58a13.47,13.47,0,0,1,2.09.16,12,12,0,0,1,1.88.46v1.27a10.62,10.62,0,0,0-3.77-.65,6.9,6.9,0,0,0-3.08.51,1.88,1.88,0,0,0-1,1.81,1.92,1.92,0,0,0,.5,1.36,3.88,3.88,0,0,0,1.31.89q.82.35,2.46.87a17.22,17.22,0,0,1,2.4.92,4.17,4.17,0,0,1,1.52,1.22,3.62,3.62,0,0,1-.81,4.86,7.62,7.62,0,0,1-4,.87A17.84,17.84,0,0,1,465.35,565.38Z" transform="translate(-415.71 -477.64)"/><path class="cls-1" d="M482.53,556a6.6,6.6,0,0,0-.29-2.17,2.1,2.1,0,0,0-1.08-1.19,5.25,5.25,0,0,0-2.33-.41,11.21,11.21,0,0,0-1.82.17,8.5,8.5,0,0,0-1.76.48v-1.22a9,9,0,0,1,1.8-.49,11.89,11.89,0,0,1,2-.18,4.17,4.17,0,0,1,4.87,4.88v9.42h-1.43Z" transform="translate(-415.71 -477.64)"/><path class="cls-1" d="M489,564.3a4.59,4.59,0,0,1-1.42-3.64v-2.39a3,3,0,0,1,.39-1.42,13.21,13.21,0,0,1,1.09-1.65c.37-.51.63-.9.81-1.2a1.63,1.63,0,0,0,.26-.8.86.86,0,0,0-.17-.63,1.09,1.09,0,0,0-.69-.15h-1.95l.13-1.17h2.5a1.62,1.62,0,0,1,1.21.42,1.75,1.75,0,0,1,.4,1.21,2.71,2.71,0,0,1-.33,1.28,11.31,11.31,0,0,1-1,1.48,14.41,14.41,0,0,0-1,1.51,2.63,2.63,0,0,0-.31,1.25v2.49a3.07,3.07,0,0,0,1.08,2.6,5.73,5.73,0,0,0,5.94,0,3.12,3.12,0,0,0,1.07-2.62V559a3.71,3.71,0,0,0-.55-2.33,2.56,2.56,0,0,0-2-.64h-.73l.1-1.17h.63a2.41,2.41,0,0,0,2-.68,3.64,3.64,0,0,0,.54-2.23v-1h1.43v1a5.22,5.22,0,0,1-.42,2.3,1.27,1.27,0,1,0,0,2.44,5.75,5.75,0,0,1,.38,2.33v1.64a4.55,4.55,0,0,1-1.46,3.64,6,6,0,0,1-4,1.24A5.92,5.92,0,0,1,489,564.3Z" transform="translate(-415.71 -477.64)"/><path class="cls-1" d="M503.34,563.75a8.59,8.59,0,0,1-1.44-5.43,7.9,7.9,0,0,1,1.69-5.41,6.48,6.48,0,0,1,5.14-1.92,6.18,6.18,0,0,1,4.61,1.54,5.4,5.4,0,0,1,1.5,3.92v8.84h-1.43v-8.92a4.06,4.06,0,0,0-1.13-3,4.88,4.88,0,0,0-3.57-1.13q-5.41,0-5.41,6.09a7.68,7.68,0,0,0,1.08,4.59,3.83,3.83,0,0,0,3.24,1.41,6.11,6.11,0,0,0,1.76-.2v1.22a8,8,0,0,1-2.05.2A4.82,4.82,0,0,1,503.34,563.75Z" transform="translate(-415.71 -477.64)"/><path class="cls-1" d="M512.24,548.42a2.36,2.36,0,0,1-.72-1.75,2.4,2.4,0,0,1,.72-1.76,2.51,2.51,0,0,1,1.8-.71,2.47,2.47,0,0,1,1.77.71,2.4,2.4,0,0,1,.72,1.76,2.36,2.36,0,0,1-.72,1.75,2.44,2.44,0,0,1-1.77.72A2.47,2.47,0,0,1,512.24,548.42Zm2.83-.72a1.46,1.46,0,0,0-2.08-2.06,1.45,1.45,0,0,0,0,2.06,1.47,1.47,0,0,0,2.08,0Z" transform="translate(-415.71 -477.64)"/><path class="cls-1" d="M524.7,556a6.6,6.6,0,0,0-.29-2.17,2.1,2.1,0,0,0-1.08-1.19,5.24,5.24,0,0,0-2.32-.41,11,11,0,0,0-1.82.17,8.43,8.43,0,0,0-1.77.48v-1.22a8.92,8.92,0,0,1,1.81-.49,11.72,11.72,0,0,1,2-.18,4.17,4.17,0,0,1,4.86,4.88v9.42H524.7Z" transform="translate(-415.71 -477.64)"/><path class="cls-1" d="M531.83,565.38a9.68,9.68,0,0,1-2-.48v-1.28a12.16,12.16,0,0,0,4.21.7,7.06,7.06,0,0,0,3.16-.53,2,2,0,0,0,1-2,2.19,2.19,0,0,0-.42-1.39,2.69,2.69,0,0,0-1.09-.83,18.9,18.9,0,0,0-1.92-.69c-.17-.07-.44-.16-.78-.26a22.27,22.27,0,0,1-2.41-.91,4.41,4.41,0,0,1-1.53-1.18,3,3,0,0,1-.64-2q0-3.59,5.23-3.58a13.47,13.47,0,0,1,2.09.16,12.46,12.46,0,0,1,1.89.46v1.27a10.66,10.66,0,0,0-3.77-.65,7,7,0,0,0-3.09.51,1.87,1.87,0,0,0-.94,1.81,1.91,1.91,0,0,0,.49,1.36,3.88,3.88,0,0,0,1.31.89q.82.35,2.46.87a17.93,17.93,0,0,1,2.41.92,4.34,4.34,0,0,1,1.52,1.22,3.16,3.16,0,0,1,.59,2,3.13,3.13,0,0,1-1.41,2.89,7.62,7.62,0,0,1-4,.87A17.84,17.84,0,0,1,531.83,565.38Z" transform="translate(-415.71 -477.64)"/><path class="cls-1" d="M534,545.58h1.28v2h7.25l-.08,1.12H534Z" transform="translate(-415.71 -477.64)"/><path class="cls-1" d="M543.74,564.54a3.69,3.69,0,0,1-1.23-3,3.81,3.81,0,0,1,1.3-3.08,6,6,0,0,1,4-1.11h4.94v-1.38a5,5,0,0,0-.39-2.17A2.36,2.36,0,0,0,551,552.6a7,7,0,0,0-2.58-.37,14,14,0,0,0-4.42.65v-1.22a15,15,0,0,1,4.73-.67,8.79,8.79,0,0,1,2.34.26h4.24l-.08,1.22h-2.11a5.22,5.22,0,0,1,1,3.51v9.31h-1.43v-6.76h-4.84a5.1,5.1,0,0,0-3,.71,2.63,2.63,0,0,0-1,2.25,2.56,2.56,0,0,0,.87,2.16,4.36,4.36,0,0,0,2.69.67,7.19,7.19,0,0,0,1.77-.2v1.22a9.8,9.8,0,0,1-2.16.2A5.12,5.12,0,0,1,543.74,564.54Z" transform="translate(-415.71 -477.64)"/><path class="cls-1" d="M569.41,564.65a2.47,2.47,0,0,1-.59-1.73V551.25h1.43v11.41a1.51,1.51,0,0,0,.34,1.08,1.34,1.34,0,0,0,1,.35h1.28v1.2h-1.82A2.15,2.15,0,0,1,569.41,564.65Z" transform="translate(-415.71 -477.64)"/><path class="cls-1" d="M579.94,565a7.85,7.85,0,0,1-2.33-1.57l-.13,1.85h-1.25v-14h1.43v10.89a6.47,6.47,0,0,0,4.76,2.18,3.21,3.21,0,0,0,3.69-3.69v-9.38h1.43v9.3a5.21,5.21,0,0,1-1.2,3.73,4.49,4.49,0,0,1-3.45,1.26A7.3,7.3,0,0,1,579.94,565Z" transform="translate(-415.71 -477.64)"/><path class="cls-1" d="M577.79,547.55h5.62v-2.26h1.17v2.26h1.76v-2.26h1.17v3.38h-9.8Z" transform="translate(-415.71 -477.64)"/><path class="cls-1" d="M586.19,540h1.25v3.59h-1.25Z" transform="translate(-415.71 -477.64)"/><path class="cls-1" d="M593.26,565.27a14.8,14.8,0,0,1-2.37-.66v-6.92h4.74l.07,1.23h-3.38v4.78a10.92,10.92,0,0,0,3.64.62,6.2,6.2,0,0,0,2.92-.59,3.51,3.51,0,0,0,1.58-1.92,12.77,12.77,0,0,0,0-7.11,3.42,3.42,0,0,0-1.68-1.88,7.29,7.29,0,0,0-3.22-.59,14.13,14.13,0,0,0-4.45.65v-1.22a15.11,15.11,0,0,1,4.84-.67c2.29,0,3.93.58,4.93,1.76s1.49,3,1.49,5.54-.5,4.26-1.49,5.46-2.61,1.79-4.83,1.79A14.17,14.17,0,0,1,593.26,565.27Z" transform="translate(-415.71 -477.64)"/><path class="cls-1" d="M605.19,564.87v-1.22a8.74,8.74,0,0,0,3.31.67,6.44,6.44,0,0,0,3.14-.63,3.38,3.38,0,0,0,1.56-1.94,11,11,0,0,0,.44-3.48,7.13,7.13,0,0,0-1.2-4.59c-.81-1-2.16-1.45-4.05-1.45a8,8,0,0,0-3.2.68v-1.25a8.79,8.79,0,0,1,1.55-.51,9.6,9.6,0,0,1,1.91-.16,6.07,6.07,0,0,1,4.85,1.81,8.19,8.19,0,0,1,1.57,5.47,8.86,8.86,0,0,1-1.41,5.46q-1.42,1.82-4.83,1.81A8.9,8.9,0,0,1,605.19,564.87Z" transform="translate(-415.71 -477.64)"/><path class="cls-1" d="M609.35,545.58h1.28v2h7.25l-.08,1.12h-8.45Z" transform="translate(-415.71 -477.64)"/><path class="cls-1" d="M619.58,564.28a5.34,5.34,0,0,1-1.15-3.73v-9.3h1.43v9.38a3.9,3.9,0,0,0,.86,2.8,3.69,3.69,0,0,0,2.75.89,6.58,6.58,0,0,0,4.84-2.18V551.25h1.43v14h-1.25l-.13-1.85A7.8,7.8,0,0,1,626,565a7.71,7.71,0,0,1-3,.54A4.4,4.4,0,0,1,619.58,564.28Z" transform="translate(-415.71 -477.64)"/><path class="cls-1" d="M633.61,551.25h1.25l.13,1.84a8.69,8.69,0,0,1,2.34-1.56,7.42,7.42,0,0,1,3-.54,4.48,4.48,0,0,1,3.44,1.27,5.28,5.28,0,0,1,1.19,3.72v9.31h-1.43V555.9a3.79,3.79,0,0,0-.89-2.78,3.86,3.86,0,0,0-2.8-.89,6.46,6.46,0,0,0-4.76,2.19v10.87h-1.43Z" transform="translate(-415.71 -477.64)"/><path class="cls-1" d="M635.17,547.55h8.45v-2.26h1.28v3.38h-9.81Z" transform="translate(-415.71 -477.64)"/><path class="cls-1" d="M643.57,540h1.25v3.59h-1.25Z" transform="translate(-415.71 -477.64)"/><path class="cls-1" d="M661,549.69l-2.62.44v-1.2l4.05-.65v17H661Z" transform="translate(-415.71 -477.64)"/><path class="cls-1" d="M667.78,565.38a8.07,8.07,0,0,1-1.88-.48v-1.31a11.4,11.4,0,0,0,4.14.73c3.12,0,4.68-1.31,4.68-4a3.86,3.86,0,0,0-.91-2.85,4.65,4.65,0,0,0-3.25-.89h-4.73v-1.22l.44-6.87h8.6l-.15,1.17h-7.28l-.37,5.75h3.46a6.33,6.33,0,0,1,4.27,1.19,5.69,5.69,0,0,1-.22,7.54,6.57,6.57,0,0,1-4.44,1.35A16.81,16.81,0,0,1,667.78,565.38Z" transform="translate(-415.71 -477.64)"/><path class="cls-1" d="M693.32,565a8,8,0,0,1-2.33-1.57l-.13,1.85h-1.24v-14h1.43v10.89a6.47,6.47,0,0,0,4.75,2.18,3.86,3.86,0,0,0,2.8-.89,3.81,3.81,0,0,0,.9-2.8v-9.38h1.43v9.3a5.21,5.21,0,0,1-1.2,3.73,4.51,4.51,0,0,1-3.46,1.26A7.34,7.34,0,0,1,693.32,565Z" transform="translate(-415.71 -477.64)"/><path class="cls-1" d="M691.18,547.55h8.45v-2.26h1.27v3.38h-9.8Z" transform="translate(-415.71 -477.64)"/><path class="cls-1" d="M706,564.28a5.34,5.34,0,0,1-1.16-3.73v-9.3h1.43v9.38a3.94,3.94,0,0,0,.86,2.8,3.69,3.69,0,0,0,2.75.89,6.56,6.56,0,0,0,4.84-2.18V551.25h1.43v14h-1.25l-.13-1.85a7.88,7.88,0,0,1-2.36,1.56,7.78,7.78,0,0,1-3,.54A4.38,4.38,0,0,1,706,564.28Z" transform="translate(-415.71 -477.64)"/><path class="cls-1" d="M726,556a6.64,6.64,0,0,0-.28-2.17,2.1,2.1,0,0,0-1.08-1.19,5.28,5.28,0,0,0-2.33-.41,11.21,11.21,0,0,0-1.82.17,8.43,8.43,0,0,0-1.77.48v-1.22a9.11,9.11,0,0,1,1.81-.49,11.89,11.89,0,0,1,2-.18,4.16,4.16,0,0,1,4.86,4.88v9.42H726Z" transform="translate(-415.71 -477.64)"/><path class="cls-1" d="M731.27,556a4.73,4.73,0,0,1,1.42-3.75,8.29,8.29,0,0,1,8.72,0,4.79,4.79,0,0,1,1.4,3.75v9.31h-1.43v-9.52a3.2,3.2,0,0,0-1.08-2.69,5.15,5.15,0,0,0-3.23-.85,5.24,5.24,0,0,0-3.29.85,3.2,3.2,0,0,0-1.08,2.69v3.61a5.12,5.12,0,0,1,3.3-1.17h1.74l.08,1.2H736a4.78,4.78,0,0,0-1.72.29,5.4,5.4,0,0,0-1.55.88v4.71h-1.43Z" transform="translate(-415.71 -477.64)"/><path class="cls-1" d="M750.39,565a8,8,0,0,1-2.33-1.57l-.13,1.85h-1.24v-14h1.43v10.89a6.47,6.47,0,0,0,4.75,2.18,3.86,3.86,0,0,0,2.8-.89,3.81,3.81,0,0,0,.9-2.8v-9.38H758v9.3a5.21,5.21,0,0,1-1.2,3.73,4.51,4.51,0,0,1-3.46,1.26A7.34,7.34,0,0,1,750.39,565Z" transform="translate(-415.71 -477.64)"/><path class="cls-1" d="M771.49,564.4a9.12,9.12,0,0,1,1.76-2.87,28.53,28.53,0,0,1,3-2.85,28.78,28.78,0,0,0,2.32-2.17,5.91,5.91,0,0,0,1.13-1.68,4.86,4.86,0,0,0,.35-1.89c0-2.27-1.35-3.41-4-3.41a10.68,10.68,0,0,0-3.85.7v-1.3a11.22,11.22,0,0,1,1.9-.47,12.65,12.65,0,0,1,2.05-.18A5.76,5.76,0,0,1,780,549.5a4.36,4.36,0,0,1,1.38,3.44,5.4,5.4,0,0,1-.44,2.22,6.39,6.39,0,0,1-1.2,1.79c-.5.55-1.19,1.22-2.08,2l-.59.54a32.11,32.11,0,0,0-2.5,2.37,7.75,7.75,0,0,0-1.46,2.26h8.45v1.15H771.49Z" transform="translate(-415.71 -477.64)"/><path class="cls-1" d="M786.39,565.38a7.84,7.84,0,0,1-1.87-.48v-1.31a11.31,11.31,0,0,0,4.13.73c3.12,0,4.68-1.31,4.68-4a3.86,3.86,0,0,0-.91-2.85,4.65,4.65,0,0,0-3.25-.89h-4.73v-1.22l.44-6.87h8.61l-.16,1.17h-7.28l-.36,5.75h3.45a6.33,6.33,0,0,1,4.27,1.19,5.69,5.69,0,0,1-.22,7.54,6.55,6.55,0,0,1-4.44,1.35A16.91,16.91,0,0,1,786.39,565.38Z" transform="translate(-415.71 -477.64)"/><path class="cls-1" d="M799.48,565.36a9.07,9.07,0,0,1-1.91-.46v-1.28a11.83,11.83,0,0,0,4.11.7,6.06,6.06,0,0,0,3.61-.86,3.12,3.12,0,0,0,1.17-2.7,3,3,0,0,0-1.1-2.56,5.15,5.15,0,0,0-3.16-.84h-2.29l.15-1.12H802a4.4,4.4,0,0,0,3-.93,3.3,3.3,0,0,0,1-2.61,2.81,2.81,0,0,0-1-2.39,5.44,5.44,0,0,0-3.25-.78,11.15,11.15,0,0,0-3.9.7V549a8.53,8.53,0,0,1,1.82-.48,13.15,13.15,0,0,1,2.21-.2,6.37,6.37,0,0,1,4.19,1.18,4.07,4.07,0,0,1,1.37,3.24,4.52,4.52,0,0,1-.75,2.56,3.62,3.62,0,0,1-2.26,1.5,4.25,4.25,0,0,1,2.56,1.43,4,4,0,0,1,.84,2.57,4.24,4.24,0,0,1-1.58,3.58,7.29,7.29,0,0,1-4.47,1.2A15.43,15.43,0,0,1,799.48,565.36Z" transform="translate(-415.71 -477.64)"/><path class="cls-1" d="M819.54,549.71h-9.1v-1.17H821v1.17l-6.58,15.58H813Z" transform="translate(-415.71 -477.64)"/><path class="cls-1" d="M826.84,557.41q0-6.55-3.82-9.75h1.64a8.76,8.76,0,0,1,2.77,4.24,18.08,18.08,0,0,1,.84,5.51,18.27,18.27,0,0,1-.84,5.54,8.67,8.67,0,0,1-2.77,4.21H823Q826.85,564,826.84,557.41Z" transform="translate(-415.71 -477.64)"/></svg>