<svg id="M1" xmlns="http://www.w3.org/2000/svg" viewBox="0 0 106.33 26.6"><defs><style>.cls-1{fill:#0f2b53;}</style></defs><title>33</title><path class="cls-1" d="M773.14,122.94c-1.19-.8-3.06-1.19-3.79-2.26a1.7,1.7,0,0,1-.25-.94v-.62a8.2,8.2,0,0,1,0-1,2.79,2.79,0,0,1,.71-1.69c.53-.69,2-.62,2.83-.73a2.74,2.74,0,0,1,.51,0c1.14,0,3,.42,3.15,1a1.32,1.32,0,0,1,0,.28c0,.84-.89,1-1.64,1a5.94,5.94,0,0,0-2-.57,7.68,7.68,0,0,0-1.26.12,4.38,4.38,0,0,0-.41,1.48,1.23,1.23,0,0,0,0,.32c.09.53,1.16,1,1.82,1.37,1.47.69,3.41,1.63,3.61,3.5a1.23,1.23,0,0,1,0,.32,4.72,4.72,0,0,1-.76,2.1,4.83,4.83,0,0,1-3.33,1,6,6,0,0,1-2.72-.57c-.41-.23-1-.78-1-1.19s.78-1,1.3-1,.85.55,1.35.73a4.23,4.23,0,0,0,1.6.32c.75,0,1.39-.27,1.53-1A3.07,3.07,0,0,0,773.14,122.94Z" transform="translate(-768.71 -107.17)"/><path class="cls-1" d="M774.63,131.73c0-.29,0-1.18-.07-1.5a5.22,5.22,0,0,1,0-.58.73.73,0,0,1,.18-.57,1.79,1.79,0,0,1,.83-.13c.64.11.71.93.71,1.5s.06.9.06,1.67c0,.6-.52,1.65-2.21,1.65-1.94,0-2.36-.76-2.36-1.4v-.64a1.81,1.81,0,0,0-.09-.75.46.46,0,0,0-.13,0c-.23,0-.16,0-.37,0a.61.61,0,0,1-.57-.25,1.68,1.68,0,0,1-.21-.89,1.1,1.1,0,0,1,.21-.73,1.72,1.72,0,0,1,.57-.18c.57,0,1.1.09,1.49.09l.45.09c.32.39.19.55.25,1.32a14.07,14.07,0,0,1,.07,1.67c0,.18.12.37.64.37s.6-.28.6-.44Z" transform="translate(-768.71 -107.17)"/><path class="cls-1" d="M770.86,113.41c0-.73.68-1,.7-1.83-.52-.09-1.07-.43-1.07-.89a.8.8,0,0,1,.3-.57,1.56,1.56,0,0,1,1.16-.41c.92,0,1.92.55,1.92,1.44a1.62,1.62,0,0,1-.32.91h.23c1.76,0,2.13-1.76,4-1.76h.11a.88.88,0,0,1,.51.71c0,.59-.87,1.14-1.49,1.53l-.09,0a8.86,8.86,0,0,1-4.25,1.44,3,3,0,0,1-1.71-.46Z" transform="translate(-768.71 -107.17)"/><path class="cls-1" d="M778.92,123.05v-.18c0-.92.82-1.3,1.69-1.3a2.27,2.27,0,0,1,1.62.57,9.12,9.12,0,0,0,1.06,3l.09.21a5.53,5.53,0,0,0,1.23-3.68c0-.19,0-.39,0-.6a7.94,7.94,0,0,0-.48-2.35,2.8,2.8,0,0,0-2.47-1.3l-.3,0c-1,.11-1.66,1-2.74,1h-.16a.8.8,0,0,1-.82-.73A1,1,0,0,1,778,117a6.4,6.4,0,0,1,2.06-1,7.31,7.31,0,0,1,1.89-.23c.3,0,.6,0,.87,0a4.69,4.69,0,0,1,3.32,1.8,11.75,11.75,0,0,1,.41,1.76,8.82,8.82,0,0,1,.25,2.17,8.61,8.61,0,0,1-1.1,4.28,4.69,4.69,0,0,1-1.92,1.76,3.6,3.6,0,0,1-.73.11c-1.16,0-1.51-1-2-2.06a20.77,20.77,0,0,1-.77-2C779.58,123.6,779,123.53,778.92,123.05Z" transform="translate(-768.71 -107.17)"/><path class="cls-1" d="M780.68,113.55a1.49,1.49,0,0,1-.11-.57c0-.23,0-.46,0-.67v-.8a.93.93,0,0,1,.3-.84.83.83,0,0,1,.43-.12c.64,0,1.37.12,1.39.73a.9.9,0,0,1,0,.23.62.62,0,0,0,0,.23,3.1,3.1,0,0,0,0,.44l.69-.07H785c.37,0-.06,0,.8,0a3.76,3.76,0,0,1,2.08.46,1.35,1.35,0,0,1,.12.57c0,1-.53.73-1.85.84-.3,0-.71,0-1.12,0-.85,0-1.78,0-2.31,0A3.89,3.89,0,0,1,780.68,113.55Z" transform="translate(-768.71 -107.17)"/><path class="cls-1" d="M792.58,117.59a6,6,0,0,0-1.41.16c0,.34.25.43.3.73,0,.71,0,1.53,0,2.42,0,.67,0,1.35,0,2v.66c0,.64,0,1.28,0,1.92,0,.27.12.55.12.8v.11a1.47,1.47,0,0,1-1.4,1,1.12,1.12,0,0,1-.87-.39c0-1.42.09-2.86.09-4.3,0-1.12,0-2.23-.13-3.38-.46-.13-1-.11-1.12-.61v-.1c0-.66,1.55-2.26,2-2.44a8.88,8.88,0,0,1,2.58-.32c1.33,0,3.22.21,3.7.66a8.22,8.22,0,0,1,1.08,2.65,18.3,18.3,0,0,1,.27,3.45c0,1.21.25,2,.25,2.84,0,.11,0,.25,0,.36s.07.16.11.23a.61.61,0,0,1,0,.23c0,.68-.87,1.23-1.51,1.23a.9.9,0,0,1-.44-.11c-.25-.16-.29-.48-.29-.85v-.8c0-.2,0-.43,0-.66-.07-2.67-.11-5.69-1.21-7.27A7.46,7.46,0,0,0,792.58,117.59Z" transform="translate(-768.71 -107.17)"/><path class="cls-1" d="M807.46,126.64c0-.28.07-.6.09-.89.07-.87.05-1.94.14-3,.07-.75.11-1.48.11-2.17a4.32,4.32,0,0,0-.73-2.76,2,2,0,0,0-.78-.16c-.84,0-1.28.68-1.62,1.6a18.44,18.44,0,0,0-1.1,5.43c0,.6.21,1.31.21,1.79a1.14,1.14,0,0,1,0,.27,1.41,1.41,0,0,1-1.4.78,1.75,1.75,0,0,1-1-.3c0-2.81-.06-6.08-.11-9.35a2.06,2.06,0,0,0-.36,0c-.3,0-.1,0-.37,0-.43,0-.48-.27-.53-.7,0,0,0-.07,0-.12s0-.13,0-.2c0-.85.16-.87.87-.87h.11l.87,0c1.3,0,1.58,1.17,1.58,2.35a3.82,3.82,0,0,1,0,.6l.07-.25a6.14,6.14,0,0,1,1-2.42,4.19,4.19,0,0,1,2.11-.48,5.67,5.67,0,0,1,1.5.2c1.56.5,1.92,2.22,1.92,4.11,0,1.72-.29,3.59-.29,4.92v.13c0,.39.16.89.16,1.26a.92.92,0,0,1,0,.25,1.48,1.48,0,0,1-1.39.76,1.72,1.72,0,0,1-.6-.1A.81.81,0,0,1,807.46,126.64Z" transform="translate(-768.71 -107.17)"/><path class="cls-1" d="M822.33,130.82c0,.69-.87,1.23-1.51,1.23a.83.83,0,0,1-.43-.11c-.25-.16-.3-.48-.3-.85v-.8c0-.2,0-.43,0-.66-.07-2.67.18-11.42-1.21-11.79a7.5,7.5,0,0,0-2.15-.27,5.63,5.63,0,0,0-1.42.16c0,.34.26.43.3.73,0,.71,0,1.53,0,2.42,0,.66,0,1.35,0,2v.67c0,.5,0,1.48,0,2a7.1,7.1,0,0,1,.78-.27h.21c.8,0,1.12.18,1.12.82v.12c-.09.61-1.67,1-2.2,1.09a9.08,9.08,0,0,1-1.16.1,1.12,1.12,0,0,1-.87-.39c0-1.42.09-2.86.09-4.3a32.06,32.06,0,0,0-.14-3.38c-.45-.14-1-.11-1.12-.62v-.09c0-.66,1.56-2.26,2-2.44a8.91,8.91,0,0,1,2.59-.32c1.32,0,3.22.2,3.7.66a8.21,8.21,0,0,1,1.07,2.65,17.4,17.4,0,0,1,.28,3.45c0,1.21.25,6.51.25,7.36,0,.11,0,.25,0,.36s.07.16.12.23A.9.9,0,0,1,822.33,130.82Z" transform="translate(-768.71 -107.17)"/><path class="cls-1" d="M834.4,119.88c.77,0,1.53.25,1.53,1s-.35,1-1.24,1.08c-.11,0-.29,0-.48,0,0,1.76-.13,3.7-1,4.91-.82.62-2.94.78-4.25.78a4.68,4.68,0,0,1-1.53-.23c-1.28-.45-1.92-2.44-2.1-4.11,0-.27,0-.55,0-.85,0-1,.12-1.78.12-2.74a5.81,5.81,0,0,0-.23-1.8c-.5-.14-1.05-.07-1.23-.57a.54.54,0,0,1-.05-.21,1.29,1.29,0,0,1,.62-1,1.83,1.83,0,0,1,.84-.18,2.92,2.92,0,0,1,1.74.52,3.39,3.39,0,0,1,.36,1.92c0,.5,0,1,0,1.3v.44c0,.73,0,1.16,0,1.82a5.94,5.94,0,0,0,.82,3.52,5.36,5.36,0,0,0,1.81.3,1.9,1.9,0,0,0,1.14-.3,5.28,5.28,0,0,0,.91-2.76,4.65,4.65,0,0,0,.09-.82l-2,0c-.64,0-1.14-.16-1.23-.76V121a1.5,1.5,0,0,1,1.23-1.28l.16,0c.25,0,.55.07.94.09h.84c0-.11,0-.23,0-.37,0-.77-.18-1.85-.18-2.46a.82.82,0,0,1,0-.23,1.29,1.29,0,0,1,2.15-.34c0,1.37.07,1.8.07,2.19s0,.59,0,1.26Z" transform="translate(-768.71 -107.17)"/><path class="cls-1" d="M838.46,130.41v-.12c0-.13,0-.27,0-.41a.79.79,0,0,1,.84-.87l.21.07h3.11a3,3,0,0,1,2,.62c-.07-2.67-.09-10.28-1.19-11.86a7.43,7.43,0,0,0-2.14-.27,5.63,5.63,0,0,0-1.42.16c0,.34.25.43.3.73,0,.71,0,1.53,0,2.42,0,.66,0,1.35,0,2v3.5c0,1-.25,1-.48,1s-.55,0-1,0c-.23,0-.53,0-.89,0-.53,0-1.08,0-1.19-.43v-.12c0-.13,0-.27,0-.41,0-.5.11-.93.73-1l.2,0,.62.16c0-.94.05-1.9.05-2.86,0-1.12,0-2.24-.14-3.38-.46-.14-1-.11-1.12-.62v-.09c0-.66,1.55-2.26,2-2.44a8.88,8.88,0,0,1,2.58-.32c1.33,0,3.22.2,3.7.66a8.22,8.22,0,0,1,1.08,2.65,18.23,18.23,0,0,1,.27,3.45c0,1.21.25,6.44.25,7.29,0,.11,0,.25,0,.36s.07.16.11.23a.61.61,0,0,1,0,.23c0,.69-.87,1.23-1.51,1.23-1.24,0-2.45-1.21-3.13-1.21-.09,0-2.47,0-2.56.07C839.12,130.84,838.58,130.8,838.46,130.41Z" transform="translate(-768.71 -107.17)"/><path class="cls-1" d="M846.3,113a1.35,1.35,0,0,1-.12.57,3.84,3.84,0,0,1-2.08.45l-3.47,0h-.34c-1.07,0-1.46.11-2.35.11a2.73,2.73,0,0,1-1.26-.27,2,2,0,0,1-.07-.51c0-1.34,1.21-1.18,2.83-1.28.48,0,1,0,1.56,0,.77,0,1.6,0,2.49.09l.68.05a2.08,2.08,0,0,0,0-.44c0-.11,0-.2,0-.23a.9.9,0,0,1,0-.23c0-.61.75-.73,1.39-.73a.9.9,0,0,1,.44.12.93.93,0,0,1,.3.84v.8C846.28,112.52,846.3,112.75,846.3,113Z" transform="translate(-768.71 -107.17)"/><path class="cls-1" d="M850.23,127.42a1,1,0,0,1-.82-.35v-.93c0-3.29-.19-8.39-.19-11.38,0-.44-.13-.92-.13-1.3,0-.07,0-.14,0-.21.09-.82.91-1.44,1.14-2.13a1.73,1.73,0,0,0,.07-.5,1.79,1.79,0,0,0-1.76-1.78,1.51,1.51,0,0,0-.62.11c-.61.26-.55,1.42-1.19,1.88a1.52,1.52,0,0,1-.89.25,1.48,1.48,0,0,1-1.05-.37,4.63,4.63,0,0,1,1-2.24,4.57,4.57,0,0,1,3.34-1.3,3.33,3.33,0,0,1,3.24,1.78,5.66,5.66,0,0,1,.23,1.33v.14c-.09.93-1.1,1.71-1.3,2.83a3.91,3.91,0,0,0-.07.91c0,.37,0,.73,0,1.08a4.35,4.35,0,0,1,0,.52,14.84,14.84,0,0,0,0,1.53c0,2.61.32,6.08.32,8.41,0,.37,0,.71,0,1A1.51,1.51,0,0,1,850.23,127.42Z" transform="translate(-768.71 -107.17)"/><path class="cls-1" d="M861.86,127c0-.34.09-.73.11-1.1v-.16c0-2.26-.48-4.73-2.35-5.23a13.93,13.93,0,0,1-2.7,1.6,5.19,5.19,0,0,0-.11,1c0,.73.11,1.51.11,2.22a2.9,2.9,0,0,1-.23,1.3,1.53,1.53,0,0,1-1.39.8,1.65,1.65,0,0,1-.57-.11,1.46,1.46,0,0,1-.14-.71c0-.46.12-1,.16-1.44.07-.91.09-1.85.09-2.77s0-1.57,0-2.37,0-1.33.07-2.08a5.46,5.46,0,0,1-.57,0c-.76,0-.87-.25-.87-1.18,0-.6.55-.67,1.21-.67h.11c.23,0,.48,0,.71,0a9.17,9.17,0,0,1,1-.16.61.61,0,0,1,.53.23,4.83,4.83,0,0,1,.09.94c0,.93-.21,1.71-.21,2.69v.28a6.78,6.78,0,0,0,2.77-1.81c.66-.68,1-1.92,1.82-2.31a1.35,1.35,0,0,1,.64-.13c.39,0,.78.13.85.43a.75.75,0,0,1,0,.21c0,.55-.52,1.07-.75,1.37a8.5,8.5,0,0,1-.82.89,5.76,5.76,0,0,1,2.17,2.81,21.48,21.48,0,0,1,.5,4.77,1.49,1.49,0,0,1-1.55,1.35,1.32,1.32,0,0,1-.53-.11A1,1,0,0,1,861.86,127Z" transform="translate(-768.71 -107.17)"/><path class="cls-1" d="M866.43,120.06v-.41a6.64,6.64,0,0,0-.19-1.76c-.5-.14-1-.07-1.23-.57a.8.8,0,0,1,0-.21,1.29,1.29,0,0,1,.62-1,1.87,1.87,0,0,1,.85-.18,2.91,2.91,0,0,1,1.73.52,4.43,4.43,0,0,1,.32,2.17c0,2.15.53,7,2.95,7a2.26,2.26,0,0,0,.78-.16,4.36,4.36,0,0,0,.73-2.77c0-.68-.05-1.42-.12-2.17-.09-1.07-.06-2.15-.13-3,0-.29-.09-.61-.09-.89a.81.81,0,0,1,.27-.68,1.66,1.66,0,0,1,.59-.09,1.49,1.49,0,0,1,1.4.75.93.93,0,0,1,0,.25c0,.37-.16.87-.16,1.26v.14c0,1.32.3,3.19.3,4.91,0,1.89-.37,3.61-1.92,4.11a5.39,5.39,0,0,1-1.51.21c-1.82,0-2.72-.44-3.26-2.4l-.07-.25a.18.18,0,0,0,0,.11s0,0,0,.07,0,.25,0,.36,0,.69,0,1a1.19,1.19,0,0,1,0,.28,1.22,1.22,0,0,1-1.26.78.83.83,0,0,1-.68-.28Z" transform="translate(-768.71 -107.17)"/><path class="cls-1" d="M872.46,111.72a9,9,0,0,1-.09-1.3s0-.12,0-.16c.11-.48.71-.64,1.32-.64a1,1,0,0,1,.39.07c.62.25.44,1.8.53,2.76v.21c0,.84-.09,1.37-.94,1.37a2.24,2.24,0,0,1-.41,0C872.27,114,872.62,112.66,872.46,111.72Z" transform="translate(-768.71 -107.17)"/></svg>