<svg id="M2" xmlns="http://www.w3.org/2000/svg" viewBox="0 0 98.4 24.88"><defs><style>.cls-1{fill:#0f2b53;}</style></defs><title>34</title><path class="cls-1" d="M912.08,116.33a2.17,2.17,0,0,0-.44,0c-.45.06-1.39.68-2,.68a.65.65,0,0,1-.69-.62s0-.11,0-.16c0-1,1.78-1.5,3-1.62.22,0,.43,0,.66,0a4.88,4.88,0,0,1,3.43,1.07c1.09,1.24.93,3.34,1.16,5.21a5,5,0,0,1,0,.85c0,2.58-1.47,4.59-3.89,4.59a3.81,3.81,0,0,1-.75-.07c-.53-.07-2.1-.48-2.19-1.09v-.12c0-.64.77-1.1,1.57-1.1h.21c.73.07.87.53,1.41.53a1.11,1.11,0,0,0,.3,0c.78-.16,1-1.89,1-3.61a12.16,12.16,0,0,0-.3-2.87,4,4,0,0,0-.68-1.35A16.66,16.66,0,0,0,912.08,116.33Z" transform="translate(-906.78 -106.03)"/><path class="cls-1" d="M914.27,112.86l-3.47,0h-.35c-1.07,0-1.46.12-2.35.12a2.64,2.64,0,0,1-1.26-.28,2.27,2.27,0,0,1-.06-.5c0-1.35,1.21-1.19,2.83-1.28.48,0,1,0,1.55,0,.78,0,1.6,0,2.49.09,1.33.11,2.81-.14,2.81.84a1.49,1.49,0,0,1-.11.57A3.8,3.8,0,0,1,914.27,112.86Z" transform="translate(-906.78 -106.03)"/><path class="cls-1" d="M928.34,125.15c0,.69-.86,1.24-1.5,1.24a.9.9,0,0,1-.44-.12c-.25-.16-.29-.48-.29-.84v-.8c0-.21,0-.44,0-.67-.07-2.67-.11-5.68-1.21-7.26a7.16,7.16,0,0,0-2.15-.28,6,6,0,0,0-1.41.16c0,.35.25.44.29.74,0,.7,0,1.53,0,2.42,0,.66,0,1.35,0,2v.66c0,.51,0,1.49,0,2a6.91,6.91,0,0,1,.77-.27h.21c.8,0,1.12.18,1.12.82v.11c-.09.62-1.67,1-2.19,1.1a9.36,9.36,0,0,1-1.17.09,1.09,1.09,0,0,1-.87-.39c0-1.41.09-2.85.09-4.29,0-1.12,0-2.24-.13-3.38-.46-.14-1-.12-1.12-.62v-.09c0-.66,1.55-2.26,2-2.45a9.19,9.19,0,0,1,2.58-.32c1.32,0,3.22.21,3.7.67a8.12,8.12,0,0,1,1.08,2.65,18.16,18.16,0,0,1,.27,3.45c0,1.21.25,2,.25,2.83,0,.11,0,.25,0,.37s.07.16.11.22A.9.9,0,0,1,928.34,125.15Z" transform="translate(-906.78 -106.03)"/><path class="cls-1" d="M927.93,111.83a1.49,1.49,0,0,1-.11.57,3.8,3.8,0,0,1-2.08.46l-3.47,0h-.35c-1.07,0-1.46.12-2.35.12a2.64,2.64,0,0,1-1.26-.28,2.27,2.27,0,0,1-.06-.5c0-1.35,1.21-1.19,2.83-1.28.48,0,1,0,1.55,0,.78,0,1.6,0,2.49.09l.69,0a2.89,2.89,0,0,0,0-.43.57.57,0,0,0,0-.23.9.9,0,0,1,0-.23c0-.62.75-.73,1.39-.73a.94.94,0,0,1,.43.11c.25.16.3.48.3.85v.8C927.91,111.38,927.93,111.6,927.93,111.83Z" transform="translate(-906.78 -106.03)"/><path class="cls-1" d="M937.6,125.5c0-.28.07-.6.09-.9.07-.86,0-1.94.14-3,.06-.76.11-1.49.11-2.17a4.35,4.35,0,0,0-.73-2.77,2.26,2.26,0,0,0-.78-.16c-.84,0-1.28.69-1.62,1.6a18.51,18.51,0,0,0-1.1,5.44c0,.59.21,1.3.21,1.78a1.19,1.19,0,0,1,0,.28,1.41,1.41,0,0,1-1.4.77,1.82,1.82,0,0,1-1-.29c0-2.81-.06-6.08-.11-9.35a2.12,2.12,0,0,0-.37,0c-.29,0-.09,0-.36,0-.43,0-.48-.27-.53-.71,0,0,0-.07,0-.11s0-.14,0-.21c0-.84.16-.86.87-.86H931l.87,0c1.3,0,1.58,1.16,1.58,2.35a3.89,3.89,0,0,1,0,.6l.07-.26a6.21,6.21,0,0,1,1-2.42,4.29,4.29,0,0,1,2.11-.48,5.31,5.31,0,0,1,1.5.21c1.56.5,1.92,2.21,1.92,4.11,0,1.71-.29,3.59-.29,4.91V124c0,.39.16.89.16,1.26a.92.92,0,0,1,0,.25,1.47,1.47,0,0,1-1.39.75,1.68,1.68,0,0,1-.6-.09A.81.81,0,0,1,937.6,125.5Z" transform="translate(-906.78 -106.03)"/><path class="cls-1" d="M952.47,129.68c0,.68-.87,1.23-1.51,1.23a.94.94,0,0,1-.43-.11c-.25-.16-.3-.48-.3-.85v-.8c0-.2,0-.43,0-.66-.07-2.67.18-11.43-1.21-11.79a7.16,7.16,0,0,0-2.15-.28,6.12,6.12,0,0,0-1.42.16c0,.35.26.44.3.74,0,.7,0,1.53,0,2.42,0,.66,0,1.35,0,2v.66c0,.51,0,1.49,0,2a7.1,7.1,0,0,1,.78-.27h.21c.8,0,1.12.18,1.12.82v.11c-.1.62-1.67,1-2.2,1.1a9.06,9.06,0,0,1-1.16.09,1.09,1.09,0,0,1-.87-.39c0-1.41.09-2.85.09-4.29a32.06,32.06,0,0,0-.14-3.38c-.45-.14-1-.12-1.12-.62v-.09c0-.66,1.56-2.26,2-2.45a9.27,9.27,0,0,1,2.59-.32c1.32,0,3.22.21,3.7.67a8.12,8.12,0,0,1,1.07,2.65,17.33,17.33,0,0,1,.28,3.45c0,1.21.25,6.51.25,7.35,0,.12,0,.26,0,.37s.07.16.12.23A.9.9,0,0,1,952.47,129.68Z" transform="translate(-906.78 -106.03)"/><path class="cls-1" d="M964.53,118.73c.78,0,1.54.25,1.54,1s-.35,1-1.24,1.07l-.48,0c0,1.76-.14,3.7-1,4.91-.82.62-2.95.78-4.25.78a4.68,4.68,0,0,1-1.53-.23c-1.28-.46-1.92-2.45-2.1-4.11,0-.28,0-.55,0-.85,0-1,.12-1.78.12-2.74a5.87,5.87,0,0,0-.23-1.81c-.5-.13-1.05-.06-1.23-.57a.49.49,0,0,1,0-.2,1.29,1.29,0,0,1,.62-1,1.83,1.83,0,0,1,.84-.19,2.91,2.91,0,0,1,1.74.53,3.39,3.39,0,0,1,.36,1.92c0,.5,0,1,0,1.3V119c0,.73,0,1.17,0,1.83a6,6,0,0,0,.82,3.52,5.62,5.62,0,0,0,1.81.3,1.92,1.92,0,0,0,1.14-.3,5.31,5.31,0,0,0,.91-2.76,4.81,4.81,0,0,0,.09-.83c-.73,0-1.46,0-2,0s-1.14-.16-1.23-.76v-.11a1.5,1.5,0,0,1,1.23-1.28l.16,0c.25,0,.55.06.94.09h.84c0-.12,0-.23,0-.37-.05-.78-.18-1.85-.18-2.47a.82.82,0,0,1,0-.23,1.17,1.17,0,0,1,1.19-.77,1.19,1.19,0,0,1,1,.43c0,1.37.06,1.81.06,2.2s0,.59,0,1.25Z" transform="translate(-906.78 -106.03)"/><path class="cls-1" d="M968.6,129.27v-.12c0-.14,0-.27,0-.41a.79.79,0,0,1,.84-.87l.21.07h3.11a3,3,0,0,1,2,.62c-.07-2.68-.09-10.28-1.19-11.86a7.1,7.1,0,0,0-2.14-.28,6.12,6.12,0,0,0-1.42.16c0,.35.25.44.3.74,0,.7,0,1.53,0,2.42,0,.66,0,1.35,0,2v3.5c0,1-.26,1-.48,1l-1,0c-.23,0-.53,0-.89,0-.53,0-1.08,0-1.19-.43v-.12c0-.14,0-.27,0-.41,0-.5.11-.94.73-1l.2,0,.62.16c0-.93,0-1.89,0-2.85,0-1.12,0-2.24-.14-3.38-.46-.14-1-.12-1.12-.62v-.09c0-.66,1.55-2.26,2-2.45a9.24,9.24,0,0,1,2.58-.32c1.33,0,3.22.21,3.7.67a8.12,8.12,0,0,1,1.08,2.65,18.16,18.16,0,0,1,.27,3.45c0,1.21.25,6.44.25,7.29,0,.11,0,.25,0,.36s.07.16.11.23a.61.61,0,0,1,0,.23c0,.68-.87,1.23-1.51,1.23-1.24,0-2.45-1.21-3.13-1.21-.09,0-2.47,0-2.56.07C969.26,129.7,968.72,129.65,968.6,129.27Z" transform="translate(-906.78 -106.03)"/><path class="cls-1" d="M976.44,111.83a1.53,1.53,0,0,1-.12.57,3.76,3.76,0,0,1-2.08.46l-3.47,0h-.34c-1.08,0-1.46.12-2.35.12a2.61,2.61,0,0,1-1.26-.28,1.82,1.82,0,0,1-.07-.5c0-1.35,1.21-1.19,2.83-1.28.48,0,1,0,1.56,0,.77,0,1.6,0,2.49.09l.68,0a1.94,1.94,0,0,0,0-.43c0-.12,0-.21,0-.23a.9.9,0,0,1,0-.23c0-.62.75-.73,1.39-.73a1,1,0,0,1,.44.11c.25.16.29.48.29.85v.8C976.41,111.38,976.44,111.6,976.44,111.83Z" transform="translate(-906.78 -106.03)"/><path class="cls-1" d="M980.37,126.27a1,1,0,0,1-.83-.34V125c0-3.29-.18-8.38-.18-11.38,0-.43-.13-.91-.13-1.3,0-.07,0-.14,0-.2.09-.83.91-1.44,1.14-2.13a1.73,1.73,0,0,0,.07-.5,1.79,1.79,0,0,0-1.76-1.78,1.51,1.51,0,0,0-.62.11c-.61.25-.55,1.42-1.19,1.87a1.46,1.46,0,0,1-.89.26,1.48,1.48,0,0,1-1-.37,4,4,0,0,1,4.37-3.54,3.33,3.33,0,0,1,3.24,1.78,5.57,5.57,0,0,1,.23,1.33v.13c-.09.94-1.1,1.72-1.3,2.84a3.86,3.86,0,0,0-.07.91c0,.37,0,.73,0,1.07a4.44,4.44,0,0,1,0,.53,14.74,14.74,0,0,0,0,1.53c0,2.61.32,6.08.32,8.41,0,.36,0,.71,0,1A1.51,1.51,0,0,1,980.37,126.27Z" transform="translate(-906.78 -106.03)"/><path class="cls-1" d="M992,125.84c0-.34.09-.73.11-1.1v-.16c0-2.26-.48-4.73-2.35-5.23a13.93,13.93,0,0,1-2.7,1.6,5.12,5.12,0,0,0-.11,1c0,.73.11,1.51.11,2.22a2.9,2.9,0,0,1-.23,1.3,1.55,1.55,0,0,1-1.39.8,1.66,1.66,0,0,1-.57-.12,1.4,1.4,0,0,1-.14-.7c0-.46.12-1,.16-1.44.07-.92.09-1.85.09-2.77s0-1.58,0-2.37,0-1.33.07-2.08a5.46,5.46,0,0,1-.57,0c-.76,0-.87-.25-.87-1.19,0-.59.55-.66,1.21-.66h.11c.23,0,.48,0,.71,0a7.34,7.34,0,0,1,1-.16.59.59,0,0,1,.53.23,4.66,4.66,0,0,1,.09.93c0,.94-.21,1.72-.21,2.7V119a6.66,6.66,0,0,0,2.77-1.8c.66-.69,1-1.92,1.82-2.31a1.35,1.35,0,0,1,.64-.14c.39,0,.78.14.85.44a.71.71,0,0,1,0,.2c0,.55-.52,1.08-.75,1.37a8.74,8.74,0,0,1-.82.9,5.76,5.76,0,0,1,2.17,2.81,21.48,21.48,0,0,1,.5,4.77,1.49,1.49,0,0,1-1.55,1.35,1.33,1.33,0,0,1-.53-.12A.94.94,0,0,1,992,125.84Z" transform="translate(-906.78 -106.03)"/><path class="cls-1" d="M996.57,118.92v-.42a6.73,6.73,0,0,0-.19-1.76c-.5-.13-1-.06-1.23-.57a.73.73,0,0,1,0-.2,1.29,1.29,0,0,1,.62-1,1.87,1.87,0,0,1,.85-.19,2.9,2.9,0,0,1,1.73.53,4.43,4.43,0,0,1,.32,2.17c0,2.15.53,7,3,7a2,2,0,0,0,.78-.16,4.33,4.33,0,0,0,.73-2.76c0-.69-.05-1.42-.12-2.17-.09-1.08-.07-2.15-.13-3,0-.3-.1-.62-.1-.89a.82.82,0,0,1,.28-.68,1.66,1.66,0,0,1,.59-.1,1.5,1.5,0,0,1,1.4.76.93.93,0,0,1,0,.25c0,.36-.16.87-.16,1.26v.13c0,1.33.3,3.2.3,4.92,0,1.89-.37,3.61-1.92,4.11a5.82,5.82,0,0,1-1.51.2c-1.83,0-2.72-.43-3.26-2.4l-.07-.25a.21.21,0,0,0,0,.12s0,0,0,.07,0,.25,0,.36,0,.69,0,1a1.23,1.23,0,0,1,0,.28,1.21,1.21,0,0,1-1.26.77.86.86,0,0,1-.68-.27Z" transform="translate(-906.78 -106.03)"/><path class="cls-1" d="M1002.6,110.58a9,9,0,0,1-.09-1.31s0-.11,0-.16c.11-.48.71-.64,1.32-.64a1.18,1.18,0,0,1,.39.07c.62.25.44,1.81.53,2.77v.2c0,.85-.09,1.37-.94,1.37a3.34,3.34,0,0,1-.41,0C1002.41,112.86,1002.76,111.51,1002.6,110.58Z" transform="translate(-906.78 -106.03)"/></svg>