<svg id="M3" xmlns="http://www.w3.org/2000/svg" viewBox="0 0 121.3 27.21"><defs><style>.cls-1{fill:#0f2b53;}</style></defs><title>35</title><path class="cls-1" d="M1046.36,123.66c0-.27.07-.59.09-.89.07-.87,0-1.94.14-3,.07-.75.11-1.48.11-2.17a4.33,4.33,0,0,0-.73-2.76,2,2,0,0,0-.78-.16c-.84,0-1.28.68-1.62,1.6a18.44,18.44,0,0,0-1.09,5.44c0,.59.2,1.3.2,1.78a1.14,1.14,0,0,1,0,.27,1.41,1.41,0,0,1-1.4.78,1.7,1.7,0,0,1-1-.3c0-2.81-.07-6.08-.12-9.34a1.38,1.38,0,0,0-.36,0c-.3,0-.1,0-.37,0-.43,0-.48-.28-.52-.71,0-.05,0-.07,0-.12s0-.13,0-.2c0-.85.16-.87.87-.87h.11l.87,0c1.3,0,1.58,1.17,1.58,2.36a3.76,3.76,0,0,1,0,.59l.07-.25a6.14,6.14,0,0,1,1-2.42,4.24,4.24,0,0,1,2.11-.48,5.67,5.67,0,0,1,1.5.2c1.56.51,1.92,2.22,1.92,4.12,0,1.71-.29,3.58-.29,4.91v.14c0,.38.16.89.16,1.25a.92.92,0,0,1-.05.25,1.45,1.45,0,0,1-1.39.76,2,2,0,0,1-.6-.09A.87.87,0,0,1,1046.36,123.66Z" transform="translate(-1038.82 -101.86)"/><path class="cls-1" d="M1061.23,127.84c0,.69-.87,1.24-1.5,1.24a.9.9,0,0,1-.44-.12.93.93,0,0,1-.3-.84v-.8c0-.21,0-.44,0-.67-.07-2.67.18-11.42-1.21-11.79a7.5,7.5,0,0,0-2.15-.27,6,6,0,0,0-1.41.16c0,.34.25.43.29.73,0,.71,0,1.53,0,2.42,0,.67,0,1.35,0,2v.66c0,.5,0,1.48,0,2a6.89,6.89,0,0,1,.77-.28h.21c.8,0,1.12.19,1.12.82v.12c-.09.62-1.67,1-2.2,1.1a11.32,11.32,0,0,1-1.16.09,1.12,1.12,0,0,1-.87-.39c0-1.42.09-2.86.09-4.3,0-1.12,0-2.24-.13-3.38-.46-.14-1-.11-1.12-.61v-.1c0-.66,1.55-2.26,2-2.44a8.83,8.83,0,0,1,2.58-.32c1.32,0,3.22.2,3.7.66a8.21,8.21,0,0,1,1.07,2.65,17.4,17.4,0,0,1,.28,3.45c0,1.21.25,6.51.25,7.36,0,.11,0,.25,0,.36s.06.16.11.23A.9.9,0,0,1,1061.23,127.84Z" transform="translate(-1038.82 -101.86)"/><path class="cls-1" d="M1073.3,116.9c.77,0,1.53.25,1.53,1s-.35,1-1.24,1.07a3.55,3.55,0,0,1-.48,0c0,1.76-.13,3.71-1,4.92-.82.61-2.94.77-4.25.77a4.72,4.72,0,0,1-1.53-.23c-1.28-.45-1.92-2.44-2.1-4.11,0-.27,0-.55,0-.84,0-1,.11-1.79.11-2.75a5.81,5.81,0,0,0-.23-1.8c-.5-.14-1-.07-1.23-.57a.54.54,0,0,1-.05-.21,1.29,1.29,0,0,1,.62-1,2,2,0,0,1,.84-.18,2.92,2.92,0,0,1,1.74.52,3.42,3.42,0,0,1,.37,1.92c0,.51,0,1,0,1.3v.44c0,.73,0,1.16,0,1.83a6,6,0,0,0,.82,3.52,5.63,5.63,0,0,0,1.81.29,2,2,0,0,0,1.14-.29,5.23,5.23,0,0,0,.91-2.77,5.39,5.39,0,0,0,.1-.82l-2,0c-.64,0-1.14-.16-1.23-.75v-.12a1.5,1.5,0,0,1,1.23-1.28l.16,0c.25,0,.55.07.94.09h.84c0-.11,0-.23,0-.36,0-.78-.18-1.85-.18-2.47a.82.82,0,0,1,0-.23,1.29,1.29,0,0,1,2.15-.34c0,1.37.07,1.8.07,2.19s0,.59,0,1.26Z" transform="translate(-1038.82 -101.86)"/><path class="cls-1" d="M1076.68,128.6v-.12c0-.14,0-.27,0-.41a.82.82,0,0,1,.85-.91l.34.16c.69,0,2.81-1.56,3-1.56a18.57,18.57,0,0,1,2.58,1c-.07-2.67-.09-10.28-1.18-11.86a7.5,7.5,0,0,0-2.15-.27,6.12,6.12,0,0,0-1.42.16c0,.34.25.43.3.73,0,.71,0,1.53,0,2.42,0,.67,0,1.35,0,2v3.49c0,1-.25,1-.48,1s-.55,0-1,0c-.23,0-.53,0-.89,0-.53,0-1.08,0-1.19-.43v-.11c0-.14,0-.28,0-.42,0-.5.11-.93.73-1l.2,0,.62.16c0-.94,0-1.9,0-2.86,0-1.12,0-2.24-.14-3.38-.46-.14-1-.11-1.12-.61v-.1c0-.66,1.55-2.26,2-2.44a8.88,8.88,0,0,1,2.58-.32c1.33,0,3.22.2,3.7.66a8.22,8.22,0,0,1,1.08,2.65,18.23,18.23,0,0,1,.27,3.45c0,1.21.25,6.45.25,7.29,0,.11,0,.25,0,.37s.07.16.12.22a.9.9,0,0,1,0,.23c0,.69-.87,1.24-1.51,1.24-1.23,0-2.58-1.21-3.27-1.21a6.64,6.64,0,0,1-2.81,1.21C1077.64,129,1076.81,128.92,1076.68,128.6Z" transform="translate(-1038.82 -101.86)"/><path class="cls-1" d="M1085.2,110a1.35,1.35,0,0,1-.12.57,3.83,3.83,0,0,1-2.07.46l-3.48,0h-.34c-1.07,0-1.46.11-2.35.11a2.73,2.73,0,0,1-1.26-.27,1.82,1.82,0,0,1-.07-.5c0-1.35,1.21-1.19,2.83-1.28.48,0,1,0,1.56,0,.78,0,1.6,0,2.49.09l.68,0a2.08,2.08,0,0,0,0-.44c0-.11,0-.2,0-.22a.9.9,0,0,1,0-.23c0-.62.76-.73,1.4-.73a.83.83,0,0,1,.43.11c.25.16.3.48.3.85v.79C1085.18,109.54,1085.2,109.77,1085.2,110Z" transform="translate(-1038.82 -101.86)"/><path class="cls-1" d="M1089.13,124.44a1,1,0,0,1-.82-.35v-.93c0-3.29-.19-8.39-.19-11.38,0-.43-.13-.91-.13-1.3,0-.07,0-.14,0-.21.09-.82.91-1.44,1.14-2.12a1.79,1.79,0,0,0-1.69-2.29,1.4,1.4,0,0,0-.62.12c-.61.25-.54,1.41-1.18,1.87a1.56,1.56,0,0,1-.89.25,1.5,1.5,0,0,1-1.06-.36,4.06,4.06,0,0,1,4.37-3.55,3.34,3.34,0,0,1,3.24,1.79,5.57,5.57,0,0,1,.23,1.32v.14c-.09.94-1.1,1.71-1.3,2.83a4,4,0,0,0-.07.92c0,.36,0,.73,0,1.07a4.35,4.35,0,0,1,0,.52,14.94,14.94,0,0,0,0,1.54c0,2.6.32,6.07.32,8.4,0,.37,0,.71,0,1A1.51,1.51,0,0,1,1089.13,124.44Z" transform="translate(-1038.82 -101.86)"/><path class="cls-1" d="M1100.76,124c0-.34.09-.73.11-1.09v-.16c0-2.27-.48-4.73-2.35-5.24a13,13,0,0,1-2.7,1.6,5.27,5.27,0,0,0-.11,1c0,.74.11,1.51.11,2.22a2.9,2.9,0,0,1-.23,1.3,1.53,1.53,0,0,1-1.39.8,1.65,1.65,0,0,1-.57-.11,1.58,1.58,0,0,1-.14-.71c0-.46.12-1,.16-1.44.07-.91.09-1.85.09-2.76s0-1.58,0-2.38,0-1.32.07-2.08a5.48,5.48,0,0,1-.57,0c-.76,0-.87-.25-.87-1.19,0-.6.55-.66,1.21-.66h.12a5.47,5.47,0,0,0,.7,0,9.17,9.17,0,0,1,1-.16.61.61,0,0,1,.53.23,4.16,4.16,0,0,1,.09.94c0,.94-.21,1.71-.21,2.69v.28a6.65,6.65,0,0,0,2.77-1.81c.66-.68,1-1.92,1.83-2.3a1.22,1.22,0,0,1,.64-.14c.38,0,.77.14.84.43a.75.75,0,0,1,0,.21c0,.55-.52,1.07-.75,1.37a8.5,8.5,0,0,1-.82.89,5.76,5.76,0,0,1,2.17,2.81,21.57,21.57,0,0,1,.5,4.78,1.48,1.48,0,0,1-1.55,1.34,1.32,1.32,0,0,1-.53-.11A1,1,0,0,1,1100.76,124Z" transform="translate(-1038.82 -101.86)"/><path class="cls-1" d="M1105.33,117.08v-.41a6.64,6.64,0,0,0-.19-1.76c-.5-.14-1.05-.07-1.23-.57a.78.78,0,0,1,0-.21,1.31,1.31,0,0,1,.61-1,2,2,0,0,1,.85-.18,2.86,2.86,0,0,1,1.73.52,4.48,4.48,0,0,1,.32,2.17c0,2.15.53,7,2.95,7a2.26,2.26,0,0,0,.78-.16,4.35,4.35,0,0,0,.73-2.77c0-.68,0-1.41-.11-2.17-.1-1.07-.07-2.14-.14-3,0-.3-.09-.62-.09-.89a.83.83,0,0,1,.27-.69,1.66,1.66,0,0,1,.59-.09,1.48,1.48,0,0,1,1.4.75.93.93,0,0,1,0,.25c0,.37-.16.87-.16,1.26v.14c0,1.32.3,3.2.3,4.91,0,1.9-.36,3.61-1.92,4.11a5.33,5.33,0,0,1-1.51.21c-1.82,0-2.71-.44-3.26-2.4l-.07-.25a.26.26,0,0,0,0,.11s0,.05,0,.07,0,.25,0,.37,0,.68,0,1a1.14,1.14,0,0,1,0,.27,1.22,1.22,0,0,1-1.26.78.83.83,0,0,1-.68-.28Z" transform="translate(-1038.82 -101.86)"/><path class="cls-1" d="M1111.36,108.74a8.88,8.88,0,0,1-.09-1.3s0-.12,0-.16c.11-.48.71-.64,1.33-.64a1,1,0,0,1,.38.07c.62.25.44,1.8.53,2.76v.21c0,.84-.09,1.37-.94,1.37a3.34,3.34,0,0,1-.41,0C1111.18,111,1111.52,109.68,1111.36,108.74Z" transform="translate(-1038.82 -101.86)"/><path class="cls-1" d="M1116.32,115a.63.63,0,0,1-.51-.23.65.65,0,0,1-.16-.41c0-.73,1.31-1.51,2.2-1.58h.25c1.19,0,1.69.8,1.85,2l-.07.2a14.77,14.77,0,0,0-1.14,4.78,4,4,0,0,0,.8,2.56,2.45,2.45,0,0,0,1,.32c1.07,0,1.39-1.4,1.39-3a14.57,14.57,0,0,0-.14-2c-.13-1.12-.13-2.26-.23-3-.06-.39-.27-.64-.27-1a.44.44,0,0,1,0-.16,1.18,1.18,0,0,1,1.19-.78,1.19,1.19,0,0,1,1,.44c.14,1.57.46,3.33.58,5,0,.35,0,.69,0,1,0,2.84-1,5.17-3.84,5.17-2.35,0-3.68-2.15-3.68-4.64a7.81,7.81,0,0,1,.14-1.44c.23-1.19,1-2.26,1-3.34a2.76,2.76,0,0,0-.06-.57A4.33,4.33,0,0,1,1116.32,115Z" transform="translate(-1038.82 -101.86)"/><path class="cls-1" d="M1118.05,110.57a1.49,1.49,0,0,1-.11-.57c0-.23,0-.46,0-.67v-.79c0-.37,0-.69.3-.85a.83.83,0,0,1,.43-.11c.64,0,1.37.11,1.4.73a.61.61,0,0,1,0,.23.53.53,0,0,0,0,.22,3.1,3.1,0,0,0,0,.44l.69-.07h1.67c.36,0-.07,0,.8,0a3.89,3.89,0,0,1,2.08.46,1.49,1.49,0,0,1,.11.57c0,1-.53.73-1.85.85-.3,0-.71,0-1.12,0l-2.31,0A3.89,3.89,0,0,1,1118.05,110.57Z" transform="translate(-1038.82 -101.86)"/><path class="cls-1" d="M1119.06,105.54c0-.73.3-1,.32-1.8-.53-.09-1.08-.44-1.08-.89a.86.86,0,0,1,.3-.58,1.63,1.63,0,0,1,1.17-.41c.91,0,1.92.55,1.92,1.44a1.73,1.73,0,0,1-.32.92h.22c1.76,0,2.13-1.76,4-1.76h.12a.89.89,0,0,1,.5.71c0,.59-.87,1.14-1.49,1.53l-.09,0a8.72,8.72,0,0,1-4.25,1.44,1.91,1.91,0,0,1-1.32-.48Z" transform="translate(-1038.82 -101.86)"/><path class="cls-1" d="M1133.38,115.18a1.58,1.58,0,0,0,0-.41c0-.29,0-.61,0-.87a.92.92,0,0,1,0-.25,1.47,1.47,0,0,1,1.39-.75,1.71,1.71,0,0,1,.6.09.83.83,0,0,1,.27.69c0,.27-.07.59-.09.89s0,.73,0,1.12c0,.59,0,1.25.1,1.89v6.58c-.28.21-.32.28-.69.28a1.19,1.19,0,0,1-1.26-.76,1.14,1.14,0,0,1,0-.27c0-.28,0-.87,0-1s0-.36,0-.36,0-.05,0-.07a.26.26,0,0,0,0-.11,3.06,3.06,0,0,1-3.34,2.67,5.39,5.39,0,0,1-1.51-.21c-1.55-.5-1.92-2.21-1.92-4.11,0-.8.07-1.6.14-2.4l.07-1.14c0-.12,0-.21,0-.32a5.37,5.37,0,0,0-.2-1.44c-.51-.14-1.06-.07-1.24-.57a.78.78,0,0,1,0-.21,1.31,1.31,0,0,1,.61-1,2,2,0,0,1,.85-.18,2.86,2.86,0,0,1,1.73.52,4.15,4.15,0,0,1,.55,2.15c-.07.75-.39,3.43-.39,4.11a4.29,4.29,0,0,0,.74,2.77,2.16,2.16,0,0,0,.77.16c2.42,0,2.93-4.85,2.93-7Z" transform="translate(-1038.82 -101.86)"/><path class="cls-1" d="M1147,124.64a1,1,0,0,1-.61-.18.83.83,0,0,1-.21-.59c0-.16,0-.37,0-.55,0-1.1-.18-2.38-.18-3.63v-.23c0-.71.09-1.6.09-2.45,0-1.12-.13-2.15-.75-2.56-.82.39-1.33,1-1.78,1-.73,0-1.76-1.07-2.45-1.07a.63.63,0,0,0-.27,0c-.3.12-.48.92-.48,1.78a12.51,12.51,0,0,0,.2,2.38c.16.66.16.78.3,1.21a1.59,1.59,0,0,0,.78-1.32v-.12c0-.71,0-1,.36-1.39a1.19,1.19,0,0,1,.87-.32,1.75,1.75,0,0,1,1,.32c0,.25,0,.46,0,.66,0,1.53-1.94,3-2,4.41v.12c0,.22,0,.5,0,.75a2,2,0,0,1-.18.94,2,2,0,0,1-1.33.57,1.43,1.43,0,0,1-.66-.16,24.21,24.21,0,0,1-1.35-5.6c0-.05,0-.11,0-.16-.07-.73-.14-1.6-.14-2.38a5,5,0,0,1,.32-1.73,3.05,3.05,0,0,1,3-1.69,3.29,3.29,0,0,1,2.06.66,3.19,3.19,0,0,1,2-.71,2.53,2.53,0,0,1,2.38,1.44,2.91,2.91,0,0,1,.16,1.17c0,.41,0,.82,0,1.23v.3c0,1.76,0,3.81.18,5.37a11.66,11.66,0,0,1,.27,1.39,1,1,0,0,1-.27.71A3.45,3.45,0,0,1,1147,124.64Z" transform="translate(-1038.82 -101.86)"/><path class="cls-1" d="M1143,110.43c0-.73.68-1,.71-1.83-.53-.09-1.08-.43-1.08-.89a.86.86,0,0,1,.3-.57,1.59,1.59,0,0,1,1.17-.41c.91,0,1.92.55,1.92,1.44a1.7,1.7,0,0,1-.32.91h.22c1.76,0,2.13-1.76,4-1.76h.12a.89.89,0,0,1,.5.71c0,.6-.87,1.14-1.49,1.53l-.09,0a8.72,8.72,0,0,1-4.25,1.44,3,3,0,0,1-1.71-.46Z" transform="translate(-1038.82 -101.86)"/><path class="cls-1" d="M1157.81,115.18a2.27,2.27,0,0,0,0-.41c0-.29,0-.61,0-.87a.93.93,0,0,1,0-.25,1.49,1.49,0,0,1,1.4-.75,1.66,1.66,0,0,1,.59.09.84.84,0,0,1,.28.69c0,.27-.07.59-.1.89s0,.73,0,1.12c0,.59,0,1.25.09,1.89v6.58a.84.84,0,0,1-.69.28,1.19,1.19,0,0,1-1.25-.76.77.77,0,0,1,0-.27c0-.28,0-.87,0-1s0-.36,0-.36,0-.05,0-.07a.26.26,0,0,0,0-.11,3.06,3.06,0,0,1-3.34,2.67,5.26,5.26,0,0,1-1.5-.21c-1.56-.5-1.92-2.21-1.92-4.11,0-.8.06-1.6.13-2.4l.07-1.14c0-.12,0-.21,0-.32a5.37,5.37,0,0,0-.2-1.44c-.5-.14-1-.07-1.23-.57a.54.54,0,0,1,0-.21,1.29,1.29,0,0,1,.62-1,1.93,1.93,0,0,1,.84-.18,2.92,2.92,0,0,1,1.74.52,4.15,4.15,0,0,1,.55,2.15c-.07.75-.39,3.43-.39,4.11a4.35,4.35,0,0,0,.73,2.77,2.26,2.26,0,0,0,.78.16c2.42,0,2.92-4.85,2.92-7Z" transform="translate(-1038.82 -101.86)"/></svg>