<svg id="M4" xmlns="http://www.w3.org/2000/svg" viewBox="0 0 159.98 27.21"><defs><style>.cls-1{fill:#0f2b53;}</style></defs><title>36</title><path class="cls-1" d="M1200.16,122.66c0-.27.07-.59.09-.89.07-.87,0-1.94.14-3,.06-.75.11-1.48.11-2.17a4.33,4.33,0,0,0-.73-2.76,2,2,0,0,0-.78-.16c-.84,0-1.28.68-1.62,1.6a18.44,18.44,0,0,0-1.1,5.44c0,.59.21,1.3.21,1.78a1.14,1.14,0,0,1,0,.27,1.41,1.41,0,0,1-1.4.78,1.75,1.75,0,0,1-1-.3c0-2.81-.06-6.08-.11-9.34a1.42,1.42,0,0,0-.37,0c-.29,0-.09,0-.36,0-.43,0-.48-.28-.53-.71,0-.05,0-.07,0-.12s0-.13,0-.2c0-.85.16-.87.87-.87h.11l.87,0c1.3,0,1.58,1.17,1.58,2.36a3.76,3.76,0,0,1,0,.59l.07-.25a6.14,6.14,0,0,1,1-2.42,4.19,4.19,0,0,1,2.11-.48,5.67,5.67,0,0,1,1.5.2c1.56.51,1.92,2.22,1.92,4.12,0,1.71-.29,3.58-.29,4.91v.14c0,.38.16.89.16,1.25a.92.92,0,0,1,0,.25,1.46,1.46,0,0,1-1.39.76,1.93,1.93,0,0,1-.6-.09A.84.84,0,0,1,1200.16,122.66Z" transform="translate(-1192.62 -100.86)"/><path class="cls-1" d="M1215,126.84c0,.69-.87,1.24-1.51,1.24a.83.83,0,0,1-.43-.12.93.93,0,0,1-.3-.84v-.8c0-.21,0-.44,0-.67-.07-2.67.18-11.42-1.21-11.79a7.5,7.5,0,0,0-2.15-.27,6.12,6.12,0,0,0-1.42.16c0,.34.26.43.3.73,0,.71,0,1.53,0,2.42,0,.67,0,1.35,0,2v.66c0,.5,0,1.48,0,2a7.08,7.08,0,0,1,.78-.28h.21c.8,0,1.12.19,1.12.82v.12c-.1.62-1.67,1-2.2,1.1a11.32,11.32,0,0,1-1.16.09,1.12,1.12,0,0,1-.87-.39c0-1.42.09-2.86.09-4.3a32.06,32.06,0,0,0-.14-3.38c-.45-.14-1-.11-1.12-.61v-.1c0-.66,1.56-2.26,2-2.44a8.91,8.91,0,0,1,2.59-.32c1.32,0,3.22.2,3.7.66a8.21,8.21,0,0,1,1.07,2.65,17.4,17.4,0,0,1,.28,3.45c0,1.21.25,6.51.25,7.36,0,.11,0,.25,0,.36s.07.16.12.23A.9.9,0,0,1,1215,126.84Z" transform="translate(-1192.62 -100.86)"/><path class="cls-1" d="M1227.09,115.9c.78,0,1.54.25,1.54,1s-.35,1-1.24,1.07a3.4,3.4,0,0,1-.48,0c0,1.76-.14,3.71-1,4.92-.82.61-2.94.77-4.25.77a4.68,4.68,0,0,1-1.53-.23c-1.28-.45-1.92-2.44-2.1-4.11,0-.27,0-.55,0-.84,0-1,.12-1.79.12-2.75a5.81,5.81,0,0,0-.23-1.8c-.5-.14-1.05-.07-1.23-.57a.54.54,0,0,1,0-.21,1.29,1.29,0,0,1,.62-1,2,2,0,0,1,.84-.18,2.92,2.92,0,0,1,1.74.52,3.42,3.42,0,0,1,.36,1.92c0,.51,0,1,0,1.3v.44c0,.73,0,1.16,0,1.83a6,6,0,0,0,.82,3.52,5.63,5.63,0,0,0,1.81.29,2,2,0,0,0,1.14-.29,5.32,5.32,0,0,0,.91-2.77,4.65,4.65,0,0,0,.09-.82l-2,0c-.64,0-1.14-.16-1.23-.75v-.12a1.5,1.5,0,0,1,1.23-1.28l.16,0c.25,0,.55.07.94.09h.84c0-.11,0-.23,0-.36-.05-.78-.18-1.85-.18-2.47a.82.82,0,0,1,0-.23,1.29,1.29,0,0,1,2.15-.34c0,1.37.06,1.8.06,2.19s0,.59,0,1.26Z" transform="translate(-1192.62 -100.86)"/><path class="cls-1" d="M1231.16,126.43v-.11c0-.14,0-.28,0-.42a.78.78,0,0,1,.84-.86l.21.07h3.11a3,3,0,0,1,2,.61c-.07-2.67-.09-10.28-1.19-11.86a7.43,7.43,0,0,0-2.14-.27,6.12,6.12,0,0,0-1.42.16c0,.34.25.43.3.73,0,.71,0,1.53,0,2.42,0,.67,0,1.35,0,2v3.49c0,1-.25,1-.48,1s-.55,0-1,0c-.23,0-.53,0-.89,0-.53,0-1.08,0-1.19-.43v-.11c0-.14,0-.28,0-.42,0-.5.11-.93.73-1l.2,0,.62.16c0-.94,0-1.9,0-2.86,0-1.12,0-2.24-.14-3.38-.46-.14-1-.11-1.12-.61v-.1c0-.66,1.55-2.26,2-2.44a8.88,8.88,0,0,1,2.58-.32c1.33,0,3.22.2,3.7.66a8.22,8.22,0,0,1,1.08,2.65,18.23,18.23,0,0,1,.27,3.45c0,1.21.25,6.45.25,7.29,0,.11,0,.25,0,.37s.07.16.11.22a.61.61,0,0,1,0,.23c0,.69-.87,1.24-1.51,1.24-1.24,0-2.45-1.21-3.13-1.21-.09,0-2.47,0-2.56.06C1231.82,126.86,1231.28,126.82,1231.16,126.43Z" transform="translate(-1192.62 -100.86)"/><path class="cls-1" d="M1239,109a1.53,1.53,0,0,1-.12.57,3.84,3.84,0,0,1-2.08.46l-3.47,0H1233c-1.08,0-1.46.11-2.35.11a2.73,2.73,0,0,1-1.26-.27,1.82,1.82,0,0,1-.07-.5c0-1.35,1.21-1.19,2.83-1.28.48,0,1,0,1.56,0,.77,0,1.6,0,2.49.09l.68,0a2.08,2.08,0,0,0,0-.44c0-.11,0-.2,0-.22a.9.9,0,0,1,0-.23c0-.62.75-.73,1.39-.73a.9.9,0,0,1,.44.11c.25.16.29.48.29.85v.79C1239,108.54,1239,108.77,1239,109Z" transform="translate(-1192.62 -100.86)"/><path class="cls-1" d="M1242.93,123.44a1,1,0,0,1-.82-.35v-.93c0-3.29-.19-8.39-.19-11.38,0-.43-.13-.91-.13-1.3,0-.07,0-.14,0-.21.09-.82.91-1.44,1.14-2.12a1.79,1.79,0,0,0-1.69-2.29,1.37,1.37,0,0,0-.62.12c-.61.25-.55,1.41-1.19,1.87a1.52,1.52,0,0,1-.89.25,1.48,1.48,0,0,1-1-.36,4.06,4.06,0,0,1,4.37-3.55,3.34,3.34,0,0,1,3.24,1.79,5.57,5.57,0,0,1,.23,1.32v.14c-.09.94-1.1,1.71-1.3,2.83a4,4,0,0,0-.07.92c0,.36,0,.73,0,1.07a4.35,4.35,0,0,1,0,.52,14.94,14.94,0,0,0,0,1.54c0,2.6.32,6.07.32,8.4,0,.37,0,.71,0,1A1.51,1.51,0,0,1,1242.93,123.44Z" transform="translate(-1192.62 -100.86)"/><path class="cls-1" d="M1254.56,123c0-.34.09-.73.11-1.09v-.16c0-2.27-.48-4.73-2.35-5.24a13,13,0,0,1-2.7,1.6,5.27,5.27,0,0,0-.11,1c0,.74.11,1.51.11,2.22a2.9,2.9,0,0,1-.23,1.3,1.53,1.53,0,0,1-1.39.8,1.65,1.65,0,0,1-.57-.11,1.46,1.46,0,0,1-.14-.71c0-.46.12-1,.16-1.44.07-.91.09-1.85.09-2.76s0-1.58,0-2.38,0-1.32.07-2.08a5.48,5.48,0,0,1-.57,0c-.76,0-.87-.25-.87-1.19,0-.6.55-.66,1.21-.66h.11a5.62,5.62,0,0,0,.71,0,9.17,9.17,0,0,1,1-.16.61.61,0,0,1,.53.23,4.83,4.83,0,0,1,.09.94c0,.94-.21,1.71-.21,2.69v.28a6.78,6.78,0,0,0,2.77-1.81c.66-.68,1-1.92,1.82-2.3a1.24,1.24,0,0,1,.64-.14c.39,0,.78.14.85.43a.75.75,0,0,1,0,.21c0,.55-.52,1.07-.75,1.37a8.5,8.5,0,0,1-.82.89,5.76,5.76,0,0,1,2.17,2.81,21.57,21.57,0,0,1,.5,4.78,1.48,1.48,0,0,1-1.55,1.34,1.32,1.32,0,0,1-.53-.11A1,1,0,0,1,1254.56,123Z" transform="translate(-1192.62 -100.86)"/><path class="cls-1" d="M1259.13,116.08v-.41a6.64,6.64,0,0,0-.19-1.76c-.5-.14-1-.07-1.23-.57a.8.8,0,0,1,0-.21,1.29,1.29,0,0,1,.62-1,2,2,0,0,1,.85-.18,2.91,2.91,0,0,1,1.73.52,4.48,4.48,0,0,1,.32,2.17c0,2.15.53,7,3,7a2.26,2.26,0,0,0,.78-.16,4.35,4.35,0,0,0,.73-2.77c0-.68-.05-1.41-.12-2.17-.09-1.07-.07-2.14-.13-3,0-.3-.09-.62-.09-.89a.83.83,0,0,1,.27-.69,1.66,1.66,0,0,1,.59-.09,1.49,1.49,0,0,1,1.4.75.93.93,0,0,1,0,.25c0,.37-.16.87-.16,1.26v.14c0,1.32.3,3.2.3,4.91,0,1.9-.37,3.61-1.92,4.11a5.39,5.39,0,0,1-1.51.21c-1.83,0-2.72-.44-3.26-2.4l-.07-.25a.18.18,0,0,0,0,.11s0,.05,0,.07,0,.25,0,.37,0,.68,0,1a1.14,1.14,0,0,1,0,.27,1.22,1.22,0,0,1-1.26.78.83.83,0,0,1-.68-.28Z" transform="translate(-1192.62 -100.86)"/><path class="cls-1" d="M1265.16,107.74a8.88,8.88,0,0,1-.09-1.3s0-.12,0-.16c.11-.48.71-.64,1.32-.64a1,1,0,0,1,.39.07c.62.25.44,1.8.53,2.76v.21c0,.84-.09,1.37-.94,1.37a3.34,3.34,0,0,1-.41,0C1265,110,1265.32,108.68,1265.16,107.74Z" transform="translate(-1192.62 -100.86)"/><path class="cls-1" d="M1270.12,114a.63.63,0,0,1-.51-.23.65.65,0,0,1-.16-.41c0-.73,1.31-1.51,2.2-1.58h.25c1.19,0,1.69.8,1.85,2l-.07.2a14.77,14.77,0,0,0-1.14,4.78,4,4,0,0,0,.8,2.56,2.45,2.45,0,0,0,1,.32c1.07,0,1.39-1.4,1.39-3a14.57,14.57,0,0,0-.14-2c-.14-1.12-.14-2.26-.23-3a6.82,6.82,0,0,1-.27-1,.44.44,0,0,1,0-.16,1.18,1.18,0,0,1,1.19-.78,1.19,1.19,0,0,1,1,.44c.14,1.57.46,3.33.57,5,0,.35,0,.69,0,1,0,2.84-1,5.17-3.84,5.17-2.35,0-3.68-2.15-3.68-4.64a7.81,7.81,0,0,1,.14-1.44c.23-1.19,1-2.26,1-3.34a2.22,2.22,0,0,0-.07-.57A4.18,4.18,0,0,1,1270.12,114Z" transform="translate(-1192.62 -100.86)"/><path class="cls-1" d="M1271.85,109.57a1.49,1.49,0,0,1-.11-.57c0-.23,0-.46,0-.67v-.79c0-.37,0-.69.3-.85a.83.83,0,0,1,.43-.11c.64,0,1.37.11,1.4.73a.61.61,0,0,1,0,.23.53.53,0,0,0,0,.22,3.1,3.1,0,0,0,0,.44l.69-.07h1.67c.36,0-.07,0,.8,0a3.83,3.83,0,0,1,2.07.46,1.35,1.35,0,0,1,.12.57c0,1-.53.73-1.85.85-.3,0-.71,0-1.12,0l-2.31,0A3.89,3.89,0,0,1,1271.85,109.57Z" transform="translate(-1192.62 -100.86)"/><path class="cls-1" d="M1272.86,104.54c0-.73.29-1,.32-1.8-.53-.09-1.08-.44-1.08-.89a.82.82,0,0,1,.3-.58,1.63,1.63,0,0,1,1.17-.41c.91,0,1.91.55,1.91,1.44a1.65,1.65,0,0,1-.32.92h.23c1.76,0,2.13-1.76,4-1.76h.12a.89.89,0,0,1,.5.71c0,.59-.87,1.14-1.49,1.53l-.09,0a8.72,8.72,0,0,1-4.25,1.44,1.91,1.91,0,0,1-1.32-.48Z" transform="translate(-1192.62 -100.86)"/><path class="cls-1" d="M1287.18,114.18a1.58,1.58,0,0,0,0-.41c0-.29,0-.61,0-.87a.92.92,0,0,1,0-.25,1.46,1.46,0,0,1,1.39-.75,1.71,1.71,0,0,1,.6.09.86.86,0,0,1,.27.69c0,.27-.07.59-.09.89s-.05.73-.05,1.12c0,.59.05,1.25.09,1.89v6.58a.83.83,0,0,1-.68.28,1.19,1.19,0,0,1-1.26-.76,1.14,1.14,0,0,1,0-.27c0-.28,0-.87,0-1s0-.36,0-.36,0-.05,0-.07a.18.18,0,0,0,0-.11,3.05,3.05,0,0,1-3.33,2.67,5.39,5.39,0,0,1-1.51-.21c-1.55-.5-1.92-2.21-1.92-4.11,0-.8.07-1.6.14-2.4l.07-1.14c0-.12,0-.21,0-.32a5,5,0,0,0-.21-1.44c-.5-.14-1-.07-1.23-.57a.8.8,0,0,1,0-.21,1.29,1.29,0,0,1,.62-1,2,2,0,0,1,.85-.18,2.91,2.91,0,0,1,1.73.52,4.15,4.15,0,0,1,.55,2.15c-.07.75-.39,3.43-.39,4.11a4.35,4.35,0,0,0,.73,2.77,2.26,2.26,0,0,0,.78.16c2.42,0,2.93-4.85,2.93-7Z" transform="translate(-1192.62 -100.86)"/><path class="cls-1" d="M1295.61,113.61a6,6,0,0,0-1.41.16c0,.35.25.44.29.73,0,.71,0,1.53,0,2.43,0,.66,0,1.34,0,2v.66c0,.64,0,1.28,0,1.92,0,.28.11.55.11.8v.11a1.45,1.45,0,0,1-1.39,1,1.09,1.09,0,0,1-.87-.39c0-1.41.09-2.85.09-4.29,0-1.12,0-2.24-.13-3.39-.46-.13-1-.11-1.12-.61v-.09c0-.67,1.55-2.27,2-2.45a9.19,9.19,0,0,1,2.58-.32c1.32,0,3.22.21,3.7.66a8.31,8.31,0,0,1,1.07,2.65,17.5,17.5,0,0,1,.28,3.46c0,1.21.25,2,.25,2.83,0,.11,0,.25,0,.36s.07.16.11.23a.9.9,0,0,1,0,.23c0,.69-.86,1.23-1.5,1.23a.9.9,0,0,1-.44-.11c-.25-.16-.3-.48-.3-.85v-.79c0-.21,0-.44,0-.67-.07-2.67-.11-5.69-1.21-7.26A7.16,7.16,0,0,0,1295.61,113.61Z" transform="translate(-1192.62 -100.86)"/><path class="cls-1" d="M1295.66,109.43c0-.73.68-1,.71-1.83-.53-.09-1.08-.43-1.08-.89a.82.82,0,0,1,.3-.57,1.59,1.59,0,0,1,1.17-.41c.91,0,1.91.55,1.91,1.44a1.62,1.62,0,0,1-.32.91h.23c1.76,0,2.13-1.76,4-1.76h.12a.89.89,0,0,1,.5.71c0,.6-.87,1.14-1.49,1.53l-.09,0a8.72,8.72,0,0,1-4.25,1.44,3,3,0,0,1-1.71-.46Z" transform="translate(-1192.62 -100.86)"/><path class="cls-1" d="M1303.13,115a1.35,1.35,0,0,1-.73-.23,2,2,0,0,1-.05-.34c0-1.21,1.65-2.38,3-2.49l2.1,0c2.06,0,2.54,2.19,2.63,4.18,0,.36,0,.71,0,1,0,1-.07,2-.07,3.06,0,.41,0,.82,0,1.21s.18.62.18.87a1.55,1.55,0,0,1-1.44,1.14.84.84,0,0,1-.48-.14,1.13,1.13,0,0,1-.32-1v-.75c0-1.56-.11-3.06-.11-5.1,0-2.46-.69-3-1.42-3a9.17,9.17,0,0,0-1.32.25C1304.43,113.77,1303.93,115,1303.13,115Z" transform="translate(-1192.62 -100.86)"/><path class="cls-1" d="M1315.08,113.5a3.24,3.24,0,0,0-.44,0c-.45.07-1.39.69-2.05.69a.65.65,0,0,1-.69-.62s0-.11,0-.16c0-1,1.78-1.51,2.95-1.62a6.15,6.15,0,0,1,4.09,1c1.09,1.23.93,3.33,1.16,5.21a4.91,4.91,0,0,1,.05.84c0,2.59-1.46,4.6-3.89,4.6a4.76,4.76,0,0,1-.75-.07c-.53-.07-2.1-.48-2.19-1.1v-.11c0-.64.77-1.1,1.57-1.1h.21c.73.07.87.53,1.42.53a1.77,1.77,0,0,0,.29,0c.78-.16,1-1.9,1-3.61a12.25,12.25,0,0,0-.3-2.88,4.18,4.18,0,0,0-.68-1.35C1316.27,113.73,1315.74,113.5,1315.08,113.5Z" transform="translate(-1192.62 -100.86)"/><path class="cls-1" d="M1329.91,123c0-.34.09-.73.11-1.09v-.16c0-2.27-.48-4.73-2.35-5.24a13,13,0,0,1-2.7,1.6,5.27,5.27,0,0,0-.11,1c0,.74.11,1.51.11,2.22a2.9,2.9,0,0,1-.23,1.3,1.53,1.53,0,0,1-1.39.8,1.65,1.65,0,0,1-.57-.11,1.46,1.46,0,0,1-.14-.71c0-.46.12-1,.16-1.44.07-.91.09-1.85.09-2.76s0-1.58,0-2.38,0-1.32.07-2.08a5.48,5.48,0,0,1-.57,0c-.76,0-.87-.25-.87-1.19,0-.6.55-.66,1.21-.66h.11a5.62,5.62,0,0,0,.71,0,9.17,9.17,0,0,1,1-.16.61.61,0,0,1,.53.23,4.83,4.83,0,0,1,.09.94c0,.94-.21,1.71-.21,2.69v.28a6.78,6.78,0,0,0,2.77-1.81c.66-.68,1-1.92,1.82-2.3a1.24,1.24,0,0,1,.64-.14c.39,0,.78.14.85.43a.75.75,0,0,1,0,.21c0,.55-.52,1.07-.75,1.37a8.5,8.5,0,0,1-.82.89,5.76,5.76,0,0,1,2.17,2.81,21.57,21.57,0,0,1,.5,4.78,1.48,1.48,0,0,1-1.55,1.34,1.32,1.32,0,0,1-.53-.11A1,1,0,0,1,1329.91,123Z" transform="translate(-1192.62 -100.86)"/><path class="cls-1" d="M1341,114.18a2.18,2.18,0,0,0,0-.41c0-.29,0-.61,0-.87a.66.66,0,0,1,0-.25,1.46,1.46,0,0,1,1.39-.75,1.62,1.62,0,0,1,.59.09.84.84,0,0,1,.28.69c0,.27-.07.59-.09.89s0,.73,0,1.12c0,.59,0,1.25.09,1.89v6.58a.83.83,0,0,1-.68.28,1.19,1.19,0,0,1-1.26-.76,1.14,1.14,0,0,1,0-.27c0-.28,0-.87,0-1s0-.36,0-.36,0-.05,0-.07a.26.26,0,0,0,0-.11,3.06,3.06,0,0,1-3.33,2.67,5.39,5.39,0,0,1-1.51-.21c-1.56-.5-1.92-2.21-1.92-4.11,0-.8.07-1.6.14-2.4l.06-1.14c0-.12,0-.21,0-.32a5,5,0,0,0-.21-1.44c-.5-.14-1-.07-1.23-.57a.8.8,0,0,1,0-.21,1.29,1.29,0,0,1,.62-1,2,2,0,0,1,.84-.18,2.92,2.92,0,0,1,1.74.52,4.15,4.15,0,0,1,.55,2.15c-.07.75-.39,3.43-.39,4.11a4.35,4.35,0,0,0,.73,2.77,2.26,2.26,0,0,0,.78.16c2.42,0,2.92-4.85,2.92-7Z" transform="translate(-1192.62 -100.86)"/><path class="cls-1" d="M1338,109.43c0-.73.69-1,.71-1.83-.53-.09-1.08-.43-1.08-.89a.86.86,0,0,1,.3-.57,1.59,1.59,0,0,1,1.17-.41c.91,0,1.92.55,1.92,1.44a1.7,1.7,0,0,1-.32.91h.22c1.76,0,2.13-1.76,4-1.76h.12a.89.89,0,0,1,.5.71c0,.6-.87,1.14-1.49,1.53l-.09,0a8.72,8.72,0,0,1-4.25,1.44,3,3,0,0,1-1.71-.46Z" transform="translate(-1192.62 -100.86)"/><path class="cls-1" d="M1345.51,115a1.35,1.35,0,0,1-.73-.23,2,2,0,0,1,0-.34c0-1.21,1.65-2.38,3-2.49l2.1,0c2.06,0,2.54,2.19,2.63,4.18,0,.36,0,.71,0,1,0,1-.06,2-.06,3.06,0,.41,0,.82,0,1.21s.18.62.18.87a1.55,1.55,0,0,1-1.44,1.14.81.81,0,0,1-.47-.14c-.28-.18-.32-.57-.32-1v-.75c0-1.56-.12-3.06-.12-5.1,0-2.46-.68-3-1.42-3a9.17,9.17,0,0,0-1.32.25C1346.81,113.77,1346.31,115,1345.51,115Z" transform="translate(-1192.62 -100.86)"/></svg>