<svg id="M5" xmlns="http://www.w3.org/2000/svg" viewBox="0 0 150.74 27.83"><defs><style>.cls-1{fill:#0f2b53;}</style></defs><title>37</title><path class="cls-1" d="M1399.31,110.43a.64.64,0,0,1-.09.34,5.24,5.24,0,0,1-.51.68,3.14,3.14,0,0,1-.48.53,2.61,2.61,0,0,1-.8.5l-.06,0a11.19,11.19,0,0,1,.66,1.55,5.09,5.09,0,0,1,0,.55c0,.46-.06.94-.06,1.42s0,1,0,1.53,0,.77,0,1.14c.07,1,.2,1.67.23,2.7a1.79,1.79,0,0,1-1.42.7.81.81,0,0,1-.66-.25,2.53,2.53,0,0,1-.28-1.44c0-.68.07-1.48.07-2.08a3.54,3.54,0,0,0,0-.48,8.81,8.81,0,0,0-2.83-.5c-1,0-1.83.3-1.83,1.21a1.67,1.67,0,0,0,0,.3,2,2,0,0,0,.85,1.14c.66.41,1.57.39,1.57,1.17v.11c0,.5-.75.89-1.39.89a2,2,0,0,1-.34,0,3.58,3.58,0,0,1-2.88-3.2v-.12c.09-2.35,2.08-3.17,4.45-3.17a17.46,17.46,0,0,1,2.15.13v-.16c0-2-.78-3.1-2.47-3.4-.13,0-.5,0-.61,0-1,0-1.69.75-2.61.75a2.05,2.05,0,0,1-.93-.27V112a5.81,5.81,0,0,1,3.06-1.42h.23c.38,0,.77.09,1.16.09a9.16,9.16,0,0,1,2.47.5.74.74,0,0,0,.2-.16c.57-.52.64-1,1.31-1.34a.71.71,0,0,1,.41-.1,2.27,2.27,0,0,1,.91.23.84.84,0,0,1,.44.48A.62.62,0,0,1,1399.31,110.43Z" transform="translate(-1389.1 -100.56)"/><path class="cls-1" d="M1400.15,113.56a1.35,1.35,0,0,1-.73-.23,2.09,2.09,0,0,1,0-.35c0-1.21,1.64-2.37,2.94-2.49l2.11,0c2,0,2.53,2.19,2.62,4.18,0,.37,0,.71,0,1,0,1-.07,2.06-.07,3.06,0,.42,0,.83,0,1.22s.19.61.19.86a1.57,1.57,0,0,1-1.44,1.15.9.9,0,0,1-.48-.14c-.28-.18-.32-.57-.32-1v-.76c0-1.55-.12-3.06-.12-5.09,0-2.47-.68-3-1.41-3a8.11,8.11,0,0,0-1.33.25C1401.46,112.37,1401,113.56,1400.15,113.56Z" transform="translate(-1389.1 -100.56)"/><path class="cls-1" d="M1413.75,117.55c-1.19-.8-3.06-1.18-3.8-2.26a1.65,1.65,0,0,1-.25-.93v-.62a6.57,6.57,0,0,1,0-1,2.77,2.77,0,0,1,.71-1.69c.52-.69,2-.62,2.83-.74a4,4,0,0,1,.5,0c1.15,0,3,.41,3.16,1a1.23,1.23,0,0,1,0,.27c0,.85-.89,1-1.65,1a5.82,5.82,0,0,0-2-.57,8.93,8.93,0,0,0-1.26.11,4.5,4.5,0,0,0-.41,1.49,1.83,1.83,0,0,0,0,.32c.09.53,1.17,1.05,1.83,1.37,1.46.69,3.4,1.62,3.61,3.5a1.77,1.77,0,0,1,0,.32,4.71,4.71,0,0,1-.75,2.1,4.89,4.89,0,0,1-3.34,1,6.15,6.15,0,0,1-2.72-.57c-.41-.23-1-.78-1-1.19s.78-1,1.31-1,.84.55,1.35.73a4.22,4.22,0,0,0,1.59.32c.76,0,1.4-.27,1.54-1A3.15,3.15,0,0,0,1413.75,117.55Z" transform="translate(-1389.1 -100.56)"/><path class="cls-1" d="M1422.18,114l.57,0c.66,0,.32,0,.94,0h.38a1,1,0,0,1,.74.23,1.34,1.34,0,0,1,.22.73c0,.67-.29.76-1.64.76h-.66c-1.4,0-3.16,0-3.16-1,0-.34,0-.39,0-.82,0-.67.16-1.17,1-1.17,1.19,0,1,.12,1.19,1.1,0,0,0,.11,0,.16A.94.94,0,0,0,1422.18,114Zm0,4.91.57,0c.66,0,.32,0,.94,0h.38a1,1,0,0,1,.74.22,1.38,1.38,0,0,1,.22.74c0,.66-.29.75-1.64.75h-.66c-1.4,0-3.16,0-3.16-1,0-.34,0-.39,0-.82,0-.66.16-1.17,1-1.17,1.19,0,1,.12,1.19,1.1,0,0,0,.11,0,.16A.94.94,0,0,0,1422.18,118.9Z" transform="translate(-1389.1 -100.56)"/><path class="cls-1" d="M1434.29,112.78a2.37,2.37,0,0,0,0-.41c0-.3,0-.62,0-.87a.93.93,0,0,1,0-.25,1.5,1.5,0,0,1,1.4-.76,1.66,1.66,0,0,1,.59.1.81.81,0,0,1,.27.68c0,.27-.06.59-.09.89s0,.73,0,1.12c0,.6,0,1.26.09,1.9v6.58a.88.88,0,0,1-.69.27,1.19,1.19,0,0,1-1.25-.75.8.8,0,0,1,0-.28c0-.27,0-.86,0-1s0-.37,0-.37,0,0,0-.07a.28.28,0,0,0,0-.11,3.05,3.05,0,0,1-3.34,2.67,5.82,5.82,0,0,1-1.51-.2c-1.55-.5-1.91-2.22-1.91-4.11,0-.8.06-1.6.13-2.4l.07-1.15c0-.11,0-.2,0-.32a5.44,5.44,0,0,0-.2-1.44c-.5-.13-1-.06-1.24-.57a.71.71,0,0,1,0-.2,1.29,1.29,0,0,1,.62-1,1.8,1.8,0,0,1,.84-.19,2.91,2.91,0,0,1,1.74.53,4.22,4.22,0,0,1,.55,2.15c-.07.75-.39,3.42-.39,4.11a4.32,4.32,0,0,0,.73,2.76,2,2,0,0,0,.78.16c2.42,0,2.92-4.84,2.92-7Z" transform="translate(-1389.1 -100.56)"/><path class="cls-1" d="M1434.31,106.34a9,9,0,0,1-.09-1.31s0-.11,0-.16c.12-.48.71-.64,1.33-.64a1.17,1.17,0,0,1,.38.07c.62.25.44,1.81.53,2.77v.2c0,.85-.09,1.37-.94,1.37a3.34,3.34,0,0,1-.41,0C1434.13,108.62,1434.47,107.27,1434.31,106.34Z" transform="translate(-1389.1 -100.56)"/><path class="cls-1" d="M1438.79,113.56a1.35,1.35,0,0,1-.73-.23,1.41,1.41,0,0,1,0-.35c0-1.21,1.65-2.37,3-2.49l2.1,0c2.06,0,2.54,2.19,2.63,4.18,0,.37,0,.71,0,1,0,1-.07,2.06-.07,3.06,0,.42,0,.83,0,1.22s.18.61.18.86a1.57,1.57,0,0,1-1.44,1.15.92.92,0,0,1-.48-.14,1.13,1.13,0,0,1-.32-1v-.76c0-1.55-.11-3.06-.11-5.09,0-2.47-.69-3-1.42-3a8,8,0,0,0-1.32.25C1440.09,112.37,1439.59,113.56,1438.79,113.56Z" transform="translate(-1389.1 -100.56)"/><path class="cls-1" d="M1452.38,117.55c-1.19-.8-3.06-1.18-3.79-2.26a1.65,1.65,0,0,1-.25-.93v-.62a8.2,8.2,0,0,1,0-1,2.77,2.77,0,0,1,.71-1.69c.53-.69,2-.62,2.83-.74a4.1,4.1,0,0,1,.51,0c1.14,0,3,.41,3.15,1a1.23,1.23,0,0,1,0,.27c0,.85-.89,1-1.64,1a5.94,5.94,0,0,0-2-.57,8.93,8.93,0,0,0-1.26.11,4.5,4.5,0,0,0-.41,1.49,1.23,1.23,0,0,0,0,.32c.09.53,1.16,1.05,1.82,1.37,1.47.69,3.41,1.62,3.61,3.5a1.19,1.19,0,0,1,0,.32,4.6,4.6,0,0,1-.76,2.1,4.88,4.88,0,0,1-3.33,1,6.12,6.12,0,0,1-2.72-.57c-.41-.23-1-.78-1-1.19s.78-1,1.3-1,.85.55,1.35.73a4.23,4.23,0,0,0,1.6.32c.75,0,1.39-.27,1.53-1A3.12,3.12,0,0,0,1452.38,117.55Z" transform="translate(-1389.1 -100.56)"/><path class="cls-1" d="M1453.87,126.35c0-.3,0-1.19-.07-1.51a4.94,4.94,0,0,1,0-.57.72.72,0,0,1,.19-.57,1.69,1.69,0,0,1,.82-.14c.64.12.71.94.71,1.51,0,.41.06.89.06,1.67,0,.59-.52,1.64-2.21,1.64-1.94,0-2.36-.75-2.36-1.39v-.64a1.79,1.79,0,0,0-.09-.75.33.33,0,0,0-.13,0c-.23,0-.16.05-.37.05a.63.63,0,0,1-.57-.25,1.7,1.7,0,0,1-.21-.89,1.08,1.08,0,0,1,.21-.73,1.49,1.49,0,0,1,.57-.19c.57,0,1.1.09,1.49.09l.45.1c.32.38.19.54.25,1.32a13.85,13.85,0,0,1,.07,1.67c0,.18.12.36.64.36s.6-.27.6-.43Z" transform="translate(-1389.1 -100.56)"/><path class="cls-1" d="M1450.1,108c0-.73.68-1,.7-1.83-.52-.09-1.07-.44-1.07-.89a.79.79,0,0,1,.3-.57,1.58,1.58,0,0,1,1.16-.41c.92,0,1.92.54,1.92,1.43a1.62,1.62,0,0,1-.32.92h.23c1.76,0,2.13-1.76,4-1.76h.11a.88.88,0,0,1,.51.71c0,.59-.87,1.14-1.49,1.53l-.09,0a8.76,8.76,0,0,1-4.25,1.44,3,3,0,0,1-1.71-.45Z" transform="translate(-1389.1 -100.56)"/><path class="cls-1" d="M1469.15,121.26c0-.28.07-.6.09-.9.07-.86,0-1.94.14-3,.07-.76.11-1.49.11-2.17a4.35,4.35,0,0,0-.73-2.77,2.21,2.21,0,0,0-.77-.16c-.85,0-1.28.69-1.63,1.6a18.51,18.51,0,0,0-1.09,5.44c0,.59.2,1.3.2,1.78a1.19,1.19,0,0,1,0,.28,1.4,1.4,0,0,1-1.39.77,1.78,1.78,0,0,1-1-.29c0-2.81-.07-6.08-.12-9.35a2,2,0,0,0-.36,0c-.3,0-.09,0-.37,0-.43,0-.48-.27-.52-.71,0,0,0-.07,0-.11s0-.14,0-.21c0-.84.16-.86.87-.86h.11l.87,0c1.31,0,1.58,1.16,1.58,2.35a5.82,5.82,0,0,1,0,.6l.06-.26a6,6,0,0,1,1-2.42,4.28,4.28,0,0,1,2.1-.48,5.39,5.39,0,0,1,1.51.21c1.55.5,1.92,2.21,1.92,4.11,0,1.71-.3,3.59-.3,4.91v.14c0,.39.16.89.16,1.26a.66.66,0,0,1,0,.25,1.46,1.46,0,0,1-1.39.75,1.62,1.62,0,0,1-.59-.09A.82.82,0,0,1,1469.15,121.26Z" transform="translate(-1389.1 -100.56)"/><path class="cls-1" d="M1471.32,107.59a1.46,1.46,0,0,1-.11.57,3.8,3.8,0,0,1-2.08.46l-3.47,0h-.35c-1.07,0-1.46.12-2.35.12a2.64,2.64,0,0,1-1.26-.28,2.31,2.31,0,0,1-.07-.5c0-1.35,1.22-1.19,2.84-1.28.48,0,1,0,1.55,0,.78,0,1.6,0,2.49.09l.69,0a2.89,2.89,0,0,0,0-.43.57.57,0,0,0,0-.23.61.61,0,0,1,0-.23c0-.62.76-.73,1.4-.73a.94.94,0,0,1,.43.11c.25.16.3.48.3.85v.8C1471.3,107.14,1471.32,107.36,1471.32,107.59Z" transform="translate(-1389.1 -100.56)"/><path class="cls-1" d="M1469.27,103.14a4.93,4.93,0,0,0,0-.8,5.33,5.33,0,0,1-.09-1s0-.11,0-.16c.12-.47.71-.63,1.33-.63a1.16,1.16,0,0,1,.38.06c.42.16.44.39.44.78,0,.21,0,.48,0,.82v.21c0,.84-.09,1.37-.93,1.37a3.49,3.49,0,0,1-.42,0C1469.31,103.78,1469.27,103.57,1469.27,103.14Z" transform="translate(-1389.1 -100.56)"/><path class="cls-1" d="M1474.11,112.57a.6.6,0,0,1-.5-.23.58.58,0,0,1-.16-.41c0-.73,1.3-1.5,2.19-1.57h.25c1.19,0,1.69.8,1.85,2l-.07.21a14.77,14.77,0,0,0-1.14,4.77,4,4,0,0,0,.8,2.56,2.31,2.31,0,0,0,1,.32c1.07,0,1.39-1.39,1.39-3a14.57,14.57,0,0,0-.13-2c-.14-1.11-.14-2.26-.23-3-.07-.38-.28-.64-.28-1a.29.29,0,0,1,0-.16,1.16,1.16,0,0,1,1.18-.78,1.2,1.2,0,0,1,1,.43c.13,1.58.45,3.34.57,5,0,.34,0,.68,0,1,0,2.83-1,5.16-3.84,5.16-2.35,0-3.67-2.15-3.67-4.64a7.79,7.79,0,0,1,.13-1.44c.23-1.18,1-2.26,1-3.33a2.69,2.69,0,0,0-.07-.57A4.26,4.26,0,0,1,1474.11,112.57Z" transform="translate(-1389.1 -100.56)"/><path class="cls-1" d="M1483.82,113.56a1.35,1.35,0,0,1-.73-.23,2.11,2.11,0,0,1,0-.35c0-1.21,1.65-2.37,3-2.49l2.1,0c2.06,0,2.54,2.19,2.63,4.18,0,.37,0,.71,0,1,0,1-.07,2.06-.07,3.06,0,.42,0,.83,0,1.22s.18.61.18.86a1.56,1.56,0,0,1-1.44,1.15.92.92,0,0,1-.48-.14,1.13,1.13,0,0,1-.32-1v-.76c0-1.55-.11-3.06-.11-5.09,0-2.47-.69-3-1.42-3a8,8,0,0,0-1.32.25C1485.12,112.37,1484.62,113.56,1483.82,113.56Z" transform="translate(-1389.1 -100.56)"/><path class="cls-1" d="M1500.8,118.65c0-3.24,0-3.43,0-3.61,0-1.28-.41-3-1.94-3-2.31,0-3.64.8-3.73,3v.09a7.23,7.23,0,0,0,1.24,3.91,12.89,12.89,0,0,0,.66-3.47,2.26,2.26,0,0,1,1.48-.62.74.74,0,0,1,.64.3.47.47,0,0,1,0,.25v.11a16.62,16.62,0,0,1-.53,2.74,16.15,16.15,0,0,1-.68,3.13,1.74,1.74,0,0,1-1.35.62,1.54,1.54,0,0,1-.46,0,4.06,4.06,0,0,1-1.3-1.19,9.32,9.32,0,0,1-1.78-5.4v-.16c.16-3.56,2.63-4.82,5.89-4.82,1.49,0,3.59.74,3.93,2.36a6.33,6.33,0,0,1,.09,1.35c0,2.17,0,3.56,0,4.5s.09,1.53.09,2.12a1.23,1.23,0,0,1-1.23,1.21,1.75,1.75,0,0,1-1-.36C1500.8,120.68,1500.8,119.68,1500.8,118.65Z" transform="translate(-1389.1 -100.56)"/><path class="cls-1" d="M1503.9,106.06a4,4,0,0,1-2.88-1,4.24,4.24,0,0,1-.59-1A2.82,2.82,0,0,1,1500,103c0-.48.94-1,1.51-1l.16,0c.77.16.71,1.39,1.39,1.87a2.87,2.87,0,0,0,1.49.44,2,2,0,0,0,.5-.07c.91-.25,1.46-1.76,2.63-1.76.25,0,.32.07.64.25a4,4,0,0,1,.22,1.39c0,.64-.09,1.3-.09,2,0,1.32,0,3.65,0,5.87,0,1.67,0,3.24.07,4.27,0,.21,0,.39,0,.57,0,.83-.09,1.58-.09,2.36a5.77,5.77,0,0,0,.14,1.41.65.65,0,0,1,0,.19,1.34,1.34,0,0,1-1.35,1.32,1,1,0,0,1-.75-.3,1.5,1.5,0,0,1-.25-1c0-.6.09-1.31.11-1.7,0-.68,0-1.53,0-2.46,0-2.54-.09-5.78-.09-8.39,0-1,0-1.87,0-2.6A6.94,6.94,0,0,1,1503.9,106.06Z" transform="translate(-1389.1 -100.56)"/><path class="cls-1" d="M1511.56,114.68v-.42a6.73,6.73,0,0,0-.19-1.76c-.5-.13-1-.06-1.23-.57a.73.73,0,0,1-.05-.2,1.29,1.29,0,0,1,.62-1,1.87,1.87,0,0,1,.85-.19,2.9,2.9,0,0,1,1.73.53,4.43,4.43,0,0,1,.32,2.17c0,2.15.53,7,3,7a2,2,0,0,0,.78-.16,4.32,4.32,0,0,0,.73-2.76c0-.69,0-1.42-.12-2.17-.09-1.08-.07-2.15-.13-3,0-.3-.1-.62-.1-.89a.82.82,0,0,1,.28-.68,1.66,1.66,0,0,1,.59-.1,1.5,1.5,0,0,1,1.4.76.93.93,0,0,1,0,.25c0,.36-.16.87-.16,1.26v.13c0,1.33.3,3.2.3,4.92,0,1.89-.37,3.61-1.92,4.11a5.82,5.82,0,0,1-1.51.2c-1.83,0-2.72-.43-3.27-2.4l-.06-.25a.21.21,0,0,0,0,.12s0,0,0,.07,0,.25,0,.36,0,.69,0,1a1.23,1.23,0,0,1,0,.28,1.21,1.21,0,0,1-1.26.77.86.86,0,0,1-.68-.27Z" transform="translate(-1389.1 -100.56)"/><path class="cls-1" d="M1517.59,106.34a9,9,0,0,1-.09-1.31s0-.11,0-.16c.11-.48.71-.64,1.32-.64a1.18,1.18,0,0,1,.39.07c.62.25.44,1.81.53,2.77v.2c0,.85-.09,1.37-.94,1.37a3.34,3.34,0,0,1-.41,0C1517.4,108.62,1517.75,107.27,1517.59,106.34Z" transform="translate(-1389.1 -100.56)"/><path class="cls-1" d="M1520.67,106.06a4,4,0,0,1-2.88-1,4.24,4.24,0,0,1-.59-1,2.82,2.82,0,0,1-.48-1.07c0-.48.94-1,1.51-1l.16,0c.77.16.71,1.39,1.39,1.87a2.87,2.87,0,0,0,1.49.44,2,2,0,0,0,.5-.07c.91-.25,1.46-1.76,2.63-1.76.25,0,.32.07.64.25a4,4,0,0,1,.22,1.39c0,.64-.09,1.3-.09,2,0,1.32,0,3.65,0,5.87,0,1.67,0,3.24.07,4.27,0,.21,0,.39,0,.57,0,.83-.09,1.58-.09,2.36a5.77,5.77,0,0,0,.14,1.41.65.65,0,0,1,0,.19,1.34,1.34,0,0,1-1.35,1.32,1,1,0,0,1-.75-.3,1.45,1.45,0,0,1-.25-1c0-.6.09-1.31.11-1.7,0-.68.05-1.53.05-2.46,0-2.54-.09-5.78-.09-8.39,0-1,0-1.87,0-2.6A6.94,6.94,0,0,1,1520.67,106.06Z" transform="translate(-1389.1 -100.56)"/><path class="cls-1" d="M1535.27,118.65c0-3.24,0-3.43,0-3.61,0-1.28-.41-3-1.94-3-2.31,0-3.63.8-3.72,3v.09a7.23,7.23,0,0,0,1.23,3.91,12.52,12.52,0,0,0,.66-3.47A2.28,2.28,0,0,1,1533,115a.75.75,0,0,1,.64.3.63.63,0,0,1,0,.25v.11a16.62,16.62,0,0,1-.52,2.74,16.1,16.1,0,0,1-.69,3.13,1.7,1.7,0,0,1-1.34.62,1.54,1.54,0,0,1-.46,0,3.86,3.86,0,0,1-1.3-1.19,9.26,9.26,0,0,1-1.79-5.4v-.16c.16-3.56,2.63-4.82,5.9-4.82,1.48,0,3.59.74,3.93,2.36a6.33,6.33,0,0,1,.09,1.35c0,2.17,0,3.56,0,4.5s.09,1.53.09,2.12a1.24,1.24,0,0,1-1.24,1.21,1.8,1.8,0,0,1-1-.36C1535.27,120.68,1535.27,119.68,1535.27,118.65Z" transform="translate(-1389.1 -100.56)"/><path class="cls-1" d="M1532.3,108c0-.73.69-1,.71-1.83-.53-.09-1.08-.44-1.08-.89a.82.82,0,0,1,.3-.57,1.59,1.59,0,0,1,1.17-.41c.91,0,1.92.54,1.92,1.43a1.7,1.7,0,0,1-.32.92h.22c1.76,0,2.13-1.76,4-1.76h.12a.89.89,0,0,1,.5.71c0,.59-.87,1.14-1.49,1.53l-.09,0a8.72,8.72,0,0,1-4.25,1.44,3,3,0,0,1-1.71-.45Z" transform="translate(-1389.1 -100.56)"/></svg>