<svg id="M6" xmlns="http://www.w3.org/2000/svg" viewBox="0 0 166.85 20.54"><defs><style>.cls-1{fill:#0f2b53;}</style></defs><title>38</title><path class="cls-1" d="M1581.55,121c0-.34.1-.73.12-1.1v-.16c0-2.26-.48-4.73-2.35-5.23a13.93,13.93,0,0,1-2.7,1.6,5.12,5.12,0,0,0-.11,1c0,.73.11,1.51.11,2.22a3,3,0,0,1-.23,1.3,1.56,1.56,0,0,1-1.39.8,1.62,1.62,0,0,1-.57-.12,1.4,1.4,0,0,1-.14-.7c0-.46.11-1,.16-1.44.07-.92.09-1.85.09-2.77s0-1.57,0-2.37,0-1.33.07-2.08a5.65,5.65,0,0,1-.58,0c-.75,0-.86-.25-.86-1.19,0-.59.54-.66,1.21-.66h.11c.23,0,.48,0,.71,0a7.34,7.34,0,0,1,1-.16.57.57,0,0,1,.52.23,4,4,0,0,1,.1.93c0,.94-.21,1.72-.21,2.7v.27a6.57,6.57,0,0,0,2.76-1.8c.67-.69,1-1.92,1.83-2.31a1.35,1.35,0,0,1,.64-.14c.39,0,.78.14.85.44a.71.71,0,0,1,0,.2c0,.55-.53,1.08-.75,1.38a9.58,9.58,0,0,1-.83.89,5.76,5.76,0,0,1,2.17,2.81,20.92,20.92,0,0,1,.51,4.77,1.49,1.49,0,0,1-1.56,1.35,1.51,1.51,0,0,1-.52-.11A1,1,0,0,1,1581.55,121Z" transform="translate(-1573.15 -101.2)"/><path class="cls-1" d="M1592.66,112.19a2.37,2.37,0,0,0,0-.41c0-.3,0-.62,0-.87a.93.93,0,0,1,0-.25,1.5,1.5,0,0,1,1.4-.76,1.66,1.66,0,0,1,.59.1.82.82,0,0,1,.28.68c0,.28-.07.6-.1.89s0,.73,0,1.12c0,.6,0,1.26.09,1.9v6.58a.86.86,0,0,1-.69.27,1,1,0,0,1-1.27-1c0-.27,0-.86,0-1s0-.37,0-.37,0,0,0-.06a.3.3,0,0,0,0-.12,3.05,3.05,0,0,1-3.34,2.67,5.67,5.67,0,0,1-1.5-.2c-1.56-.5-1.92-2.22-1.92-4.11,0-.8.07-1.6.13-2.4l.07-1.15c0-.11,0-.2,0-.32a5.27,5.27,0,0,0-.21-1.43c-.5-.14-1.05-.07-1.23-.58a.46.46,0,0,1,0-.2,1.29,1.29,0,0,1,.62-1,1.83,1.83,0,0,1,.84-.19,2.91,2.91,0,0,1,1.74.53,4.13,4.13,0,0,1,.55,2.15c-.07.75-.39,3.42-.39,4.11a4.32,4.32,0,0,0,.73,2.76,2,2,0,0,0,.78.16c2.42,0,2.92-4.84,2.92-7Z" transform="translate(-1573.15 -101.2)"/><path class="cls-1" d="M1592.68,105.75a9,9,0,0,1-.09-1.31s0-.11,0-.16c.12-.48.71-.64,1.33-.64a1.28,1.28,0,0,1,.39.07c.61.25.43,1.81.52,2.77v.2c0,.85-.09,1.37-.94,1.37a3.42,3.42,0,0,1-.41,0C1592.5,108,1592.84,106.68,1592.68,105.75Z" transform="translate(-1573.15 -101.2)"/><path class="cls-1" d="M1599.9,111.5a2,2,0,0,0-.43,0c-.46.07-1.4.68-2.06.68a.66.66,0,0,1-.69-.61s0-.12,0-.16c0-1,1.78-1.51,3-1.63.23,0,.43,0,.66,0a4.87,4.87,0,0,1,3.43,1.07c1.1,1.24.94,3.34,1.16,5.21a5,5,0,0,1,0,.85c0,2.58-1.46,4.59-3.88,4.59a3.84,3.84,0,0,1-.76-.07c-.52-.07-2.1-.48-2.19-1.09v-.12c0-.64.78-1.09,1.58-1.09h.2c.73.06.87.52,1.42.52a1.1,1.1,0,0,0,.29,0c.78-.16,1-1.89,1-3.61a12.32,12.32,0,0,0-.29-2.87,4.22,4.22,0,0,0-.69-1.35A16.66,16.66,0,0,0,1599.9,111.5Z" transform="translate(-1573.15 -101.2)"/><path class="cls-1" d="M1608.88,113.58a1.33,1.33,0,0,0,.84,1.4c.26.11.48,0,.78.13,0,.1.12,1.08.12,1.19a.24.24,0,0,1,0,.14,1.68,1.68,0,0,0-1,.59,2,2,0,0,0-.54,1.33c.09,1.3,1,1.35,2.35,1.35s2.44-.42,2.44-1.21c0-2.72,0-4.51.07-5.69,0-.78-.14-1.35-.14-2a.56.56,0,0,1,0-.23,1.3,1.3,0,0,1,2.15-.34v.55c0,1-.1,1.39-.1,1.73,0,1.15-.06,2.24-.06,3.36v2.4c0,.76,0,3.25-4.3,3.25h-.14c-3.38,0-4.41-1.76-4.41-3.18a3.37,3.37,0,0,1,.94-2.47,2.91,2.91,0,0,1-1.14-2.33,7.84,7.84,0,0,1,.16-1.32,2.69,2.69,0,0,1,.39-1.72,2.86,2.86,0,0,1,1.73-.52,2,2,0,0,1,.85.18,1.33,1.33,0,0,1,.61,1,.78.78,0,0,1,0,.21c-.18.5-.73.43-1.23.57A3.26,3.26,0,0,0,1608.88,113.58Z" transform="translate(-1573.15 -101.2)"/><path class="cls-1" d="M1617.52,117.33c0-.66,1-1.42,1.71-1.42.57,0,.78.48,1.07.85a15.59,15.59,0,0,0,2.79,2.58c0-.07,0-.14,0-.2a40.28,40.28,0,0,0,.3-4.23c0-.41,0-.8-.05-1.17a2.78,2.78,0,0,0-1.25-2.17,3.9,3.9,0,0,1-1.26.23c-.48,0-.89-.14-.91-.52,0-.58.66-1.1,1.07-1.26a4.75,4.75,0,0,1,1.67-.28,3.64,3.64,0,0,1,1.12.14c.87.34,1.64,1.94,1.76,3,0,.29,0,.68,0,1v.41a39.77,39.77,0,0,1-.36,4.39,7.48,7.48,0,0,1-.34,2,2.31,2.31,0,0,1-2,.85,2.07,2.07,0,0,1-.77-.14,8.83,8.83,0,0,1-2.27-1.8,11.87,11.87,0,0,0-2.21-1.85A.62.62,0,0,1,1617.52,117.33Z" transform="translate(-1573.15 -101.2)"/><path class="cls-1" d="M1627.5,113a1.35,1.35,0,0,1-.73-.23,2.11,2.11,0,0,1,0-.35c0-1.21,1.65-2.37,3-2.49l2.1,0c2.06,0,2.54,2.19,2.63,4.18,0,.37,0,.71,0,1,0,1-.07,2.06-.07,3.07,0,.41,0,.82.05,1.21s.18.61.18.86a1.56,1.56,0,0,1-1.44,1.15.92.92,0,0,1-.48-.14,1.13,1.13,0,0,1-.32-1v-.76c0-1.55-.11-3.06-.11-5.09,0-2.47-.69-3-1.42-3a8,8,0,0,0-1.32.25C1628.8,111.78,1628.3,113,1627.5,113Z" transform="translate(-1573.15 -101.2)"/><path class="cls-1" d="M1644.06,112.19a1.64,1.64,0,0,0,0-.41c0-.3,0-.62,0-.87a.92.92,0,0,1,0-.25,1.48,1.48,0,0,1,1.39-.76,1.68,1.68,0,0,1,.6.1.81.81,0,0,1,.27.68c0,.28-.07.6-.09.89s0,.73,0,1.12c0,.6,0,1.26.09,1.9v6.58a.88.88,0,0,1-.69.27,1,1,0,0,1-1.28-1c0-.27,0-.86,0-1s0-.37,0-.37,0,0,0-.06a.3.3,0,0,0,0-.12,3.05,3.05,0,0,1-3.34,2.67,5.82,5.82,0,0,1-1.51-.2c-1.55-.5-1.92-2.22-1.92-4.11,0-.8.07-1.6.14-2.4l.07-1.15c0-.11,0-.2,0-.32a5.3,5.3,0,0,0-.2-1.43c-.51-.14-1.06-.07-1.24-.58a.65.65,0,0,1,0-.2,1.31,1.31,0,0,1,.61-1,1.87,1.87,0,0,1,.85-.19,2.85,2.85,0,0,1,1.73.53,4.13,4.13,0,0,1,.55,2.15c-.07.75-.39,3.42-.39,4.11a4.26,4.26,0,0,0,.74,2.76,2,2,0,0,0,.77.16c2.42,0,2.93-4.84,2.93-7Z" transform="translate(-1573.15 -101.2)"/><path class="cls-1" d="M1650.19,121.44a1,1,0,0,1-.83-.34v-.94c0-3.29-.18-8.38-.18-11.38,0-.43-.13-.91-.13-1.3,0-.07,0-.13,0-.2.09-.83.91-1.44,1.14-2.13a1.73,1.73,0,0,0,.07-.5,1.79,1.79,0,0,0-1.76-1.78,1.51,1.51,0,0,0-.62.11c-.61.25-.55,1.42-1.19,1.88a1.52,1.52,0,0,1-.89.25,1.48,1.48,0,0,1-1-.37,4.63,4.63,0,0,1,1-2.24,4.57,4.57,0,0,1,3.34-1.3,3.33,3.33,0,0,1,3.24,1.78,5.57,5.57,0,0,1,.23,1.33v.13c-.09.94-1.1,1.72-1.3,2.84a3.86,3.86,0,0,0-.07.91c0,.37,0,.73,0,1.07a4.44,4.44,0,0,1,0,.53,14.74,14.74,0,0,0,0,1.53c0,2.61.32,6.08.32,8.41,0,.36,0,.71,0,1A1.51,1.51,0,0,1,1650.19,121.44Z" transform="translate(-1573.15 -101.2)"/><path class="cls-1" d="M1661.82,121c0-.34.09-.73.11-1.1v-.16c0-2.26-.48-4.73-2.35-5.23a13.93,13.93,0,0,1-2.7,1.6,5.12,5.12,0,0,0-.11,1c0,.73.11,1.51.11,2.22a2.9,2.9,0,0,1-.23,1.3,1.55,1.55,0,0,1-1.39.8,1.66,1.66,0,0,1-.57-.12,1.4,1.4,0,0,1-.14-.7c0-.46.12-1,.16-1.44.07-.92.09-1.85.09-2.77s0-1.57,0-2.37,0-1.33.07-2.08a5.46,5.46,0,0,1-.57,0c-.76,0-.87-.25-.87-1.19,0-.59.55-.66,1.21-.66h.11c.23,0,.48,0,.71,0a7.34,7.34,0,0,1,1-.16.59.59,0,0,1,.53.23,4.66,4.66,0,0,1,.09.93c0,.94-.21,1.72-.21,2.7v.27a6.66,6.66,0,0,0,2.77-1.8c.66-.69,1-1.92,1.82-2.31a1.35,1.35,0,0,1,.64-.14c.39,0,.78.14.85.44a.71.71,0,0,1,0,.2c0,.55-.52,1.08-.75,1.38a9.65,9.65,0,0,1-.82.89,5.76,5.76,0,0,1,2.17,2.81,21.48,21.48,0,0,1,.5,4.77,1.49,1.49,0,0,1-1.55,1.35,1.52,1.52,0,0,1-.53-.11A1,1,0,0,1,1661.82,121Z" transform="translate(-1573.15 -101.2)"/><path class="cls-1" d="M1658.09,107.44c0-.73.69-1,.71-1.83-.52-.09-1.07-.44-1.07-.89a.83.83,0,0,1,.29-.57,1.59,1.59,0,0,1,1.17-.41c.91,0,1.92.54,1.92,1.43a1.62,1.62,0,0,1-.32.92h.23c1.76,0,2.12-1.76,4-1.76h.11a.86.86,0,0,1,.5.71c0,.59-.87,1.14-1.48,1.53l-.09,0a8.76,8.76,0,0,1-4.25,1.44,3,3,0,0,1-1.72-.45Z" transform="translate(-1573.15 -101.2)"/><path class="cls-1" d="M1669.54,114.36a2.1,2.1,0,0,1,1.35-.48,1.87,1.87,0,0,1,1.44.55s0,.07,0,.09c0,.21.07.43.07.62a.68.68,0,0,1-.44.73c-.38.16-1,0-1.37.25a3.58,3.58,0,0,0-1.44,1.62,17.66,17.66,0,0,1-.5,3c-.23.55-.59.8-.94.8s-.84-.34-1.09-1a3.08,3.08,0,0,1-.35-1.26,30.35,30.35,0,0,1-.22-3.88,25.11,25.11,0,0,1,.16-3.09c.84-1.69,3-2.47,5.39-2.47h.39c2.1,0,3.1,1.63,3.49,3.57.35,1.71.14,4.13.55,5.91.14.67.41.51.41.85v.11a1.46,1.46,0,0,1-1.37,1.19,1.27,1.27,0,0,1-.43-.09c-.83-.32-.76-1.74-.85-3.06-.14-2.22.21-5.71-1.44-6.49a3.28,3.28,0,0,0-1.3-.25c-1.12,0-2.33.41-2.63,1a3.27,3.27,0,0,0-.25,1.3c0,.53.07,1.1.09,1.85A3.46,3.46,0,0,1,1669.54,114.36Z" transform="translate(-1573.15 -101.2)"/><path class="cls-1" d="M1673.74,108.05c-.61,0-1.57-.09-1.83-.68a3.3,3.3,0,0,1-.22-1.28,2.34,2.34,0,0,1,.66-1.94,2.28,2.28,0,0,1,1.85-.78,1.9,1.9,0,0,1,2,1.85A2.8,2.8,0,0,1,1673.74,108.05Zm-.36-2.42c0,.82.27.82.5.82a.47.47,0,0,0,.5-.48v-.34c0-.34-.25-.71-.48-.71S1673.38,105.11,1673.38,105.63ZM1678,113a1.41,1.41,0,0,1-.74-.23,2.09,2.09,0,0,1,0-.35c0-1.21,1.64-2.37,3-2.49l2.1,0c2,0,2.53,2.19,2.63,4.18,0,.37,0,.71,0,1,0,1-.07,2.06-.07,3.07,0,.41,0,.82.05,1.21s.18.61.18.86a1.57,1.57,0,0,1-1.44,1.15.92.92,0,0,1-.48-.14c-.28-.18-.32-.57-.32-1v-.76c0-1.55-.12-3.06-.12-5.09,0-2.47-.68-3-1.41-3a8.32,8.32,0,0,0-1.33.25C1679.32,111.78,1678.82,113,1678,113Z" transform="translate(-1573.15 -101.2)"/><path class="cls-1" d="M1687,111.34a.65.65,0,0,1,0-.2,1.31,1.31,0,0,1,.61-1,1.87,1.87,0,0,1,.85-.19,2.85,2.85,0,0,1,1.73.53,3.38,3.38,0,0,1,.37,1.92c0,.5,0,1,0,1.3v.43c0,.74,0,1.17,0,1.83a6,6,0,0,0,.83,3.52,4.11,4.11,0,0,0,1.55.3,1.88,1.88,0,0,0,1.14-.3,5.28,5.28,0,0,0,.92-2.76c0-.28,0-.53,0-.8,0-1.6-.3-3-.32-4.87,0-.41,0-.85,0-1.3a9.33,9.33,0,0,0-.11-1.58,8.62,8.62,0,0,1-.09-1.55v-.92a.82.82,0,0,1,0-.23,1.16,1.16,0,0,1,1.19-.77,1.19,1.19,0,0,1,1,.43A78.91,78.91,0,0,1,1697,115v.91c0,1.78-.14,3.75-1,5-.83.62-2.7.78-4,.78a4.64,4.64,0,0,1-1.53-.23c-1.28-.46-1.92-2.44-2.1-4.11a7.77,7.77,0,0,1,0-.85c0-1,.11-1.78.11-2.74a5.77,5.77,0,0,0-.22-1.8C1687.7,111.78,1687.15,111.85,1687,111.34Z" transform="translate(-1573.15 -101.2)"/><path class="cls-1" d="M1703.6,117c-1.18-.8-3.06-1.18-3.79-2.26a1.65,1.65,0,0,1-.25-.93v-.62a6.57,6.57,0,0,1,0-1,2.76,2.76,0,0,1,.7-1.69c.53-.69,2-.62,2.84-.74a4,4,0,0,1,.5,0c1.14,0,3,.41,3.15,1a.83.83,0,0,1,0,.27c0,.85-.89,1-1.65,1a5.94,5.94,0,0,0-2-.57,7.56,7.56,0,0,0-1.25.12,4.38,4.38,0,0,0-.41,1.48,1.83,1.83,0,0,0,0,.32c.09.53,1.16,1,1.83,1.37,1.46.69,3.4,1.62,3.61,3.5a1.83,1.83,0,0,1,0,.32,4.6,4.6,0,0,1-.76,2.1,4.86,4.86,0,0,1-3.33,1,6.15,6.15,0,0,1-2.72-.57c-.41-.23-1-.78-1-1.19s.78-1,1.3-1,.85.55,1.35.73a4.27,4.27,0,0,0,1.6.32c.76,0,1.4-.27,1.53-1A3.08,3.08,0,0,0,1703.6,117Z" transform="translate(-1573.15 -101.2)"/><path class="cls-1" d="M1706.41,107.09c-.32.8-1.05,1-1.85,1l-.29,0-3.48,0h-.34c-1.07,0-1.46.12-2.35.12a2.61,2.61,0,0,1-1.26-.28,2.31,2.31,0,0,1-.07-.5c0-1.35,1.21-1.19,2.84-1.28.48,0,1,0,1.55,0s1,0,1.53,0a.34.34,0,0,1,0-.14,2.1,2.1,0,0,1,2.2-1.41c.89,0,1.71.43,1.71,1.41a3,3,0,0,1-.18,1.08A.06.06,0,0,1,1706.41,107.09Z" transform="translate(-1573.15 -101.2)"/><path class="cls-1" d="M1712.72,111.62a5.63,5.63,0,0,0-1.42.16c0,.34.26.43.3.73,0,.71,0,1.53,0,2.42,0,.66,0,1.35,0,2v.67c0,.64,0,1.28.05,1.92,0,.27.11.54.11.8v.11a1.45,1.45,0,0,1-1.39,1,1.12,1.12,0,0,1-.87-.39c0-1.42.09-2.86.09-4.3a32.06,32.06,0,0,0-.14-3.38c-.45-.14-1-.11-1.12-.62v-.09c0-.66,1.56-2.26,2-2.44a8.91,8.91,0,0,1,2.59-.32c1.32,0,3.22.2,3.7.66a8.21,8.21,0,0,1,1.07,2.65,17.4,17.4,0,0,1,.28,3.45c0,1.21.25,2,.25,2.83,0,.12,0,.25,0,.37s.07.16.12.23a.9.9,0,0,1,0,.23c0,.68-.87,1.23-1.51,1.23a.94.94,0,0,1-.43-.11c-.25-.16-.3-.48-.3-.85v-.8c0-.21,0-.43,0-.66-.07-2.68-.12-5.69-1.21-7.27A7.5,7.5,0,0,0,1712.72,111.62Z" transform="translate(-1573.15 -101.2)"/><path class="cls-1" d="M1730.4,113.9c.78,0,1.54.25,1.54,1s-.35,1-1.24,1.07l-.48,0c0,1.76-.14,3.7-1,4.91-.82.62-3,.78-4.25.78a4.68,4.68,0,0,1-1.53-.23c-1.28-.46-1.92-2.44-2.1-4.11,0-.28-.05-.55-.05-.85,0-1,.12-1.78.12-2.74a5.77,5.77,0,0,0-.23-1.8c-.5-.14-1-.07-1.23-.58a.46.46,0,0,1,0-.2,1.29,1.29,0,0,1,.62-1,1.83,1.83,0,0,1,.84-.19,2.91,2.91,0,0,1,1.74.53,3.39,3.39,0,0,1,.36,1.92c0,.5,0,1,0,1.3v.43c0,.74,0,1.17,0,1.83a6,6,0,0,0,.82,3.52,5.62,5.62,0,0,0,1.81.3,1.92,1.92,0,0,0,1.14-.3,5.28,5.28,0,0,0,.91-2.76,4.81,4.81,0,0,0,.09-.83c-.73,0-1.46,0-2,0s-1.14-.16-1.23-.76v-.11a1.5,1.5,0,0,1,1.23-1.28l.16,0c.25,0,.55.06.94.09h.84c0-.12,0-.23,0-.37,0-.78-.18-1.85-.18-2.47a.72.72,0,0,1,0-.22,1.17,1.17,0,0,1,1.19-.78,1.19,1.19,0,0,1,1,.43c0,1.37.06,1.81.06,2.2s0,.59,0,1.25Z" transform="translate(-1573.15 -101.2)"/><path class="cls-1" d="M1732.92,113a1.35,1.35,0,0,1-.73-.23,1.41,1.41,0,0,1,0-.35c0-1.21,1.65-2.37,2.95-2.49l2.1,0c2.06,0,2.54,2.19,2.63,4.18,0,.37,0,.71,0,1,0,1-.07,2.06-.07,3.07,0,.41,0,.82,0,1.21s.18.61.18.86a1.57,1.57,0,0,1-1.44,1.15.92.92,0,0,1-.48-.14,1.13,1.13,0,0,1-.32-1v-.76c0-1.55-.11-3.06-.11-5.09,0-2.47-.69-3-1.42-3a8.32,8.32,0,0,0-1.33.25C1734.22,111.78,1733.72,113,1732.92,113Z" transform="translate(-1573.15 -101.2)"/></svg>