<svg id="Layer_39" data-name="Layer 39" xmlns="http://www.w3.org/2000/svg" viewBox="0 0 2054 525.05"><defs><style>.cls-1{fill:#f5b843;}</style></defs><title>39</title><path class="cls-1" d="M1878.22,1289.09s-4.2,38.79-43,42.87-26.4-15-26.4-15-26.09,19.8-51.87,10,18.92-24.78,18.92-24.78-58.52,8.37-68-19.88,30.93-23.77,30.93-23.77-57.9-13.63-58-42.75,33.3-17.7,33.3-17.7-26.54-15-19.61-30.52,30-7,30-7-46.21-73.22,8-72.72c0,0-25.59-53.52,25-40.17,0,0-16.26-54.41,26.52-64.4s50.15,53.47,50.15,53.47-2.41-29.2,22.26-26.35,15.59,54.16,15.59,54.16,13.2-29.55,42.82-20.08S1936.3,1105,1936.3,1105s4.42-12.37,23.48-16.82,15.3,34.24-3.53,47.46c0,0,46.37-18.6,14.22,40.37,0,0,14.79-15.33,26.09-1.34s-3.59,43.6-32.88,60.73c0,0,22.75-15.6,28.54,9.17s-41.55,33.46-41.55,33.46,36.08,2.11,17,23.48S1906.32,1317.86,1878.22,1289.09Z" transform="translate(53.65 -982.19)"/><path class="cls-1" d="M481.87,1402.69s-11.3,37.34-50.19,34.16-23.16-19.65-23.16-19.65-29.31,14.64-52.83.27,23.17-20.85,23.17-20.85-59.06-2.61-63.14-32.12,34.79-17.64,34.79-17.64-54.38-24.11-49.07-52.73,36-11.25,36-11.25-23.3-19.64-13.62-33.61,30.82-1.34,30.82-1.34-31.87-80.5,21.3-70c0,0-15.26-57.33,32-34.86,0,0-5.92-56.48,38-58.38s39.39,61.82,39.39,61.82,3-29.14,26.75-21.77,5.31,56.1,5.31,56.1,18.44-26.59,45.79-11.81,9.87,63.46,9.87,63.46,6.64-11.35,26.19-12.19,8.7,36.48-12.25,46c0,0,49-9.7,6.51,42.31,0,0,17.37-12.33,25.88,3.51s-11.59,42.18-43.55,53.6c0,0,25.26-11.13,26.36,14.3s-47,25.19-47,25.19,35.06,8.74,12.32,26.21S504.16,1436.16,481.87,1402.69Z" transform="translate(53.65 -982.19)"/><path class="cls-1" d="M591.2,1391.16s-15.94,31.12-49.73,22.1-17.28-21-17.28-21-28.19,8.22-46.63-8.22,23.77-14.68,23.77-14.68-51.67-11.75-50.55-38.43,33.51-10,33.51-10-44.1-30-34.83-54.36,33.54-4.15,33.54-4.15-17.4-21.05-6.63-31.83,27.4,3.76,27.4,3.76-15.22-76.1,30-58.31c0,0-4.28-53,33.78-25.63,0,0,3.82-50.75,42.83-45.4s24.85,60.83,24.85,60.83,7.34-25.22,27.07-14.93-4.3,50.33-4.3,50.33,20.52-20.5,42.28-3.09-1.45,57.55-1.45,57.55,7.67-9,25.05-6.56,1.83,33.56-18.17,38.59c0,0,44.78-.71-1,38.36,0,0,17.29-8.1,22.27,7.23s-17,35.35-47,40.3c0,0,24-5.77,20.95,16.83s-45.5,14.69-45.5,14.69,29.53,13.32,6.68,25.08S605.5,1424.25,591.2,1391.16Z" transform="translate(53.65 -982.19)"/><path class="cls-1" d="M1133.87,1470.69s-11.3,37.34-50.19,34.16-23.16-19.65-23.16-19.65-29.31,14.64-52.83.27,23.17-20.85,23.17-20.85-59.06-2.61-63.14-32.12,34.79-17.64,34.79-17.64-54.38-24.11-49.07-52.73,36-11.25,36-11.25-23.3-19.64-13.62-33.61,30.82-1.34,30.82-1.34-31.87-80.5,21.3-70c0,0-15.26-57.33,32-34.86,0,0-5.92-56.48,38-58.38s39.39,61.82,39.39,61.82,3-29.14,26.75-21.77,5.31,56.1,5.31,56.1,18.44-26.59,45.79-11.81,9.87,63.46,9.87,63.46,6.64-11.35,26.19-12.19,8.7,36.48-12.25,46c0,0,49-9.7,6.51,42.31,0,0,17.37-12.33,25.88,3.51s-11.59,42.18-43.55,53.6c0,0,25.26-11.13,26.36,14.3s-47,25.19-47,25.19,35.06,8.74,12.32,26.21S1156.16,1504.16,1133.87,1470.69Z" transform="translate(53.65 -982.19)"/><path class="cls-1" d="M1471.87,1399.69s-11.3,37.34-50.19,34.16-23.16-19.65-23.16-19.65-29.31,14.64-52.83.27,23.17-20.85,23.17-20.85-59.06-2.61-63.14-32.12,34.79-17.64,34.79-17.64-54.38-24.11-49.07-52.73,36-11.25,36-11.25-23.3-19.64-13.62-33.61,30.82-1.34,30.82-1.34-31.87-80.5,21.3-70c0,0-15.26-57.33,32-34.86,0,0-5.92-56.48,38-58.38s39.39,61.82,39.39,61.82,3-29.14,26.75-21.77,5.31,56.1,5.31,56.1,18.44-26.59,45.79-11.81,9.87,63.46,9.87,63.46,6.64-11.35,26.19-12.19,8.7,36.48-12.25,46c0,0,49-9.7,6.51,42.31,0,0,17.37-12.33,25.88,3.51s-11.59,42.18-43.55,53.6c0,0,25.26-11.13,26.36,14.3s-47,25.19-47,25.19,35.06,8.74,12.32,26.21S1494.16,1433.16,1471.87,1399.69Z" transform="translate(53.65 -982.19)"/><path class="cls-1" d="M1696.87,1399.69s-11.3,37.34-50.19,34.16-23.16-19.65-23.16-19.65-29.31,14.64-52.83.27,23.17-20.85,23.17-20.85-59.06-2.61-63.14-32.12,34.79-17.64,34.79-17.64-54.38-24.11-49.07-52.73,36-11.25,36-11.25-23.3-19.64-13.62-33.61,30.82-1.34,30.82-1.34-31.87-80.5,21.3-70c0,0-15.26-57.33,32-34.86,0,0-5.92-56.48,38-58.38s39.39,61.82,39.39,61.82,3-29.14,26.75-21.77,5.31,56.1,5.31,56.1,18.44-26.59,45.79-11.81,9.87,63.46,9.87,63.46,6.64-11.35,26.19-12.19,8.7,36.48-12.25,46c0,0,49-9.7,6.51,42.31,0,0,17.37-12.33,25.88,3.51s-11.59,42.18-43.55,53.6c0,0,25.26-11.13,26.36,14.3s-47,25.19-47,25.19,35.06,8.74,12.32,26.21S1719.16,1433.16,1696.87,1399.69Z" transform="translate(53.65 -982.19)"/><path class="cls-1" d="M214.84,1314.82s10.95,31.24,43.8,27.12,18.92-17.51,18.92-17.51,25.39,11.33,44.8-1.72S302,1305.89,302,1305.89s50-4.38,52.36-29.55-30.15-13.68-30.15-13.68,45.22-22.44,39.67-46.52-30.94-8.2-30.94-8.2,19-17.52,10.31-29-26.17,0-26.17,0,24.06-69.42-20.63-58.55c0,0,10.83-49.17-28.39-28.38,0,0,2.94-48.11-34.34-48.11s-31.14,53.87-31.14,53.87-3.64-24.6-23.47-17.48-2.44,47.76-2.44,47.76-16.61-21.87-39.26-8.33-6,54.16-6,54.16-6-9.37-22.66-9.37-6,31.25,12.09,38.54c0,0-41.92-6.42-4,36.11,0,0-15.18-9.81-21.82,3.93s11.38,35.34,38.89,43.84c0,0-21.82-8.5-21.82,13.09s40.8,19.63,40.8,19.63-29.41,8.71-9.49,22.68S197.16,1344,214.84,1314.82Z" transform="translate(53.65 -982.19)"/><path class="cls-1" d="M788.84,1387.82s10.95,31.24,43.8,27.12,18.92-17.51,18.92-17.51,25.39,11.33,44.8-1.72S876,1378.89,876,1378.89s50-4.38,52.36-29.55-30.15-13.68-30.15-13.68,45.22-22.44,39.67-46.52-30.94-8.2-30.94-8.2,19-17.52,10.31-29-26.17,0-26.17,0,24.06-69.42-20.63-58.55c0,0,10.83-49.17-28.39-28.38,0,0,2.94-48.11-34.34-48.11s-31.14,53.87-31.14,53.87-3.64-24.6-23.47-17.48-2.44,47.76-2.44,47.76-16.61-21.87-39.26-8.33-6,54.16-6,54.16-6-9.37-22.66-9.37-6,31.25,12.09,38.54c0,0-41.92-6.42-4,36.11,0,0-15.18-9.81-21.82,3.93s11.38,35.34,38.89,43.84c0,0-21.82-8.5-21.82,13.09s40.8,19.63,40.8,19.63-29.41,8.71-9.49,22.68S771.16,1417,788.84,1387.82Z" transform="translate(53.65 -982.19)"/><path class="cls-1" d="M952.59,1370.24s17.8,28,49.95,16.68,15.22-21.33,15.22-21.33,28,5.38,44.69-11.71-24.18-11.85-24.18-11.85,49.32-15.46,46.25-40.56-33.3-6.61-33.3-6.61,40.61-32,29.8-54.28-32.9-1.09-32.9-1.09,15.34-21.35,4.07-30.62-26.33,5.86-26.33,5.86,9.12-73.15-33.46-52.54c0,0,.21-50.42-34.73-21.35,0,0-7.49-47.61-45-39.27s-19.61,59.55-19.61,59.55-9-23.2-27.41-11.81,7.92,47.17,7.92,47.17-21.46-17.64-41.3.65,5.68,54.23,5.68,54.23-8.11-7.8-24.81-4.09.71,31.86,20.52,34.92c0,0-43.56,3.11,3.85,36.14,0,0-17.4-6.19-21.1,8.71s19.13,32,48.65,34.1c0,0-23.8-3.42-19.11,17.66s45.3,10,45.3,10-27.69,15.08-4.62,24.26S941.15,1402.7,952.59,1370.24Z" transform="translate(53.65 -982.19)"/><path class="cls-1" d="M1252.9,1421.71s5.5,32.65,38.58,34.16,21.61-14.06,21.61-14.06,23.1,15.47,44.44,5.9-17.26-20-17.26-20,50,4.16,56.61-20.25-27.39-18.59-27.39-18.59,48.36-14.45,47-39.12-29.1-13.33-29.1-13.33,21.73-14,15.08-26.83-25.8-4.44-25.8-4.44,35.48-64.34-10.4-61.2c0,0,19-46.62-23.17-32.79,0,0,11-46.91-25.69-53.23s-39.81,47.81-39.81,47.81.57-24.85-20.18-21.2-10.5,46.66-10.5,46.66-12.66-24.38-37.28-14.87-15.13,52.36-15.13,52.36-4.37-10.26-20.74-13.08-11.25,29.77,5.38,40c0,0-40.22-13.43-10,34.92,0,0-13.29-12.25-22.17.17s5.23,36.76,30.91,49.8c0,0-20.07-12.08-23.73,9.2S1191,1416,1191,1416s-30.46,3.6-13.19,20.74S1230.53,1447.49,1252.9,1421.71Z" transform="translate(53.65 -982.19)"/><path class="cls-1" d="M21.68,1287.36S19.6,1315.14,46.31,1323s20.49-7.13,20.49-7.13,15.75,17.29,35.11,13.77-10.07-19.85-10.07-19.85,40,13.46,50.32-5.14-18.63-20.7-18.63-20.7,42.41-2.06,46.24-22.5-21.08-16.74-21.08-16.74,20.58-7.09,17.72-18.89-20.18-8.82-20.18-8.82,41.94-45.41,3.82-52.08c0,0,24.92-34.26-12.32-31.44,0,0,18.47-36.1-10.27-48.66s-42.14,31-42.14,31,5.47-20.19-12.21-21.38-18,36-18,36-5.44-22.45-27.46-19.64-22.9,39.72-22.9,39.72-1.5-9.27-14.31-14.86-15.18,22-3.67,33.78c0,0-30.14-19.07-15.22,26.5,0,0-8.4-12.68-18.14-4.32s-3.13,31.07,15.21,46.9c0,0-13.95-13.91-21.23,2.74s24.83,28.87,24.83,28.87-25.6-3.2-15,14.28S-1.78,1303.91,21.68,1287.36Z" transform="translate(53.65 -982.19)"/></svg>