<svg id="T1" xmlns="http://www.w3.org/2000/svg" viewBox="0 0 543.42 422.44"><defs><style>.cls-1{font-size:27px;fill:#fff;font-family:Kanit-Light, Kanit;font-weight:300;}.cls-2{fill:#fff7dd;}</style></defs><title>41</title><text class="cls-1" transform="translate(0 213.56)">พื้นที่ซึ่งเฉลี่ยแล้วเกษตรกรไทยมีเนื้อที่ถือครอง <tspan x="0" y="36.4">10-15 ไร่/ ครอบครัว </tspan><tspan x="0" y="72.8" xml:space="preserve">โดยแบ่งออกเป็น 4  ส่วน คือ </tspan><tspan x="0" y="109.2" xml:space="preserve">แหล่งน้ำ  : นาข้าว  : พืชผสมผสาน  :  โครงสร้าง</tspan><tspan x="0" y="145.6">พื้นฐาน</tspan><tspan x="0" y="182">ในอัตราส่วน 30 : 30 : 30 : 10 ดังนี้</tspan></text><path class="cls-2" d="M987.15,1436.71a3.34,3.34,0,0,1-1.77.55,2.33,2.33,0,0,1-1.68-.6,2.08,2.08,0,0,1-.62-1.55,42.82,42.82,0,0,1,.37-5q.38-3.08.93-5.72a4.36,4.36,0,0,1-2,.4,5.59,5.59,0,0,1-4-1.55,5.38,5.38,0,0,1-.15-7.5,5,5,0,0,1,3.85-1.55,6.76,6.76,0,0,1,3.9,1.07,5.85,5.85,0,0,1,2.15,3.63,10.67,10.67,0,0,1,3.37-3.5,9.11,9.11,0,0,1,5-1.3,5.52,5.52,0,0,1,4.75,2.17,15.34,15.34,0,0,1,2.35,6.28,81.18,81.18,0,0,1,.65,12.15,2,2,0,0,1-.85,1.82,3.39,3.39,0,0,1-1.8.53,2.63,2.63,0,0,1-1.5-.58,1.91,1.91,0,0,1-.8-1.67c0-.7,0-1.32.05-1.85.06-1.6.1-3.09.1-4.45,0-1.8-.07-3.39-.2-4.75a10.67,10.67,0,0,0-1-3.83,2.72,2.72,0,0,0-2.57-1.62c-2,0-3.92,1.41-5.75,4.25q-1.86,2.75-1.85,12.65A1.69,1.69,0,0,1,987.15,1436.71Zm-3.3-15.55a1.71,1.71,0,0,0,.68-1.25,3.26,3.26,0,0,0-.53-2,2.46,2.46,0,0,0-2.07-.7,1.8,1.8,0,0,0-1.53.77,2.72,2.72,0,0,0-.57,1.63,1.91,1.91,0,0,0,.75,1.52,2.85,2.85,0,0,0,1.9.63A2.05,2.05,0,0,0,983.85,1421.16Z" transform="translate(-975.06 -1389.56)"/><path class="cls-2" d="M1012.73,1423.53a17.28,17.28,0,0,0-2.2-.17,1.16,1.16,0,0,1-.93-.45,1.59,1.59,0,0,1-.37-1.05,4.8,4.8,0,0,1,1.3-3.1,13.68,13.68,0,0,1,6.6-4.2,20.26,20.26,0,0,1,2.1-.5,13.37,13.37,0,0,1,2.25-.15,10.65,10.65,0,0,1,5.07,1.15,8.21,8.21,0,0,1,3.38,3.25,18.78,18.78,0,0,1,2,7.35q.35,2.85.35,19.5,0,2.85-2.55,2.85a2.68,2.68,0,0,1-1.9-.58,2.9,2.9,0,0,1-.6-2.12c0-2.2,0-3.9,0-5.1l.05-6c0-3.2-.09-5.89-.25-8.05a13.22,13.22,0,0,0-1-4.6,6,6,0,0,0-2.08-2.45,5.5,5.5,0,0,0-3.17-.9,8.83,8.83,0,0,0-4,.87,5.39,5.39,0,0,0-2.47,2.38,12.35,12.35,0,0,1,5.65,1.7,1.52,1.52,0,0,1,.62.7,1.26,1.26,0,0,1,.1.6c0,.16,0,.28,0,.35,0,.66-.47,1-1.4,1a5.34,5.34,0,0,0-3.2.9,3.61,3.61,0,0,0-.7.67,1.28,1.28,0,0,0-.35.68,4.7,4.7,0,0,1,3.22,1.22,4.06,4.06,0,0,1,1.38,3.18,5.92,5.92,0,0,1-.25,1.7,3,3,0,0,1-.6,1.15,4.45,4.45,0,0,1-1.65,1.32,4.41,4.41,0,0,1-1.9.48,5.8,5.8,0,0,1-4.18-1.5,5.46,5.46,0,0,1-1.57-4.15,7.47,7.47,0,0,1,1.45-4.63,7.75,7.75,0,0,1,4-2.72A12.72,12.72,0,0,0,1012.73,1423.53Zm.82,7.63a1.83,1.83,0,0,0-.52,1.4,1.85,1.85,0,0,0,.47,1.3,1.76,1.76,0,0,0,1.33.5,2.1,2.1,0,0,0,1.47-.48,1.69,1.69,0,0,0,.53-1.32,1.93,1.93,0,0,0-.5-1.38,2,2,0,0,0-1.5-.52A1.76,1.76,0,0,0,1013.55,1431.16Z" transform="translate(-975.06 -1389.56)"/><path class="cls-2" d="M1062,1435.41a4.29,4.29,0,0,1-3.65,1.65,28,28,0,0,1-2.8-.2,31.2,31.2,0,0,0-4.2-.3c-.4,0-1.1,0-2.1.1-1.2.06-2.27.1-3.2.1a2.82,2.82,0,0,1-2-.9,2.53,2.53,0,0,1-.9-1.7l.1-3.9c.06-1.14.13-3,.2-5.65q-.26.09-1,.3a6.74,6.74,0,0,1-1.6.2,4.13,4.13,0,0,1-3.38-1.68,6.07,6.07,0,0,1-1.32-3.87,4.66,4.66,0,0,1,.9-2.8,6,6,0,0,1,2.35-2,6.85,6.85,0,0,1,3.05-.7,5.33,5.33,0,0,1,4.27,1.65,6.66,6.66,0,0,1,1.43,4.5q0,3-.15,6.5l-.1,5a1.49,1.49,0,0,0,.17.77.52.52,0,0,0,.43.28l1.45,0c1.87,0,3.48.11,4.85.25,1.2.06,2,.1,2.25.1a1.38,1.38,0,0,0,1.5-.88,11.21,11.21,0,0,0,.3-3.17c0-.8,0-1.9.1-3.3h-.75a7.28,7.28,0,0,1-5.2-1.63,5.52,5.52,0,0,1-.9-6.85,6.11,6.11,0,0,1,2.22-2.15,6.33,6.33,0,0,1,3.23-.82,5.42,5.42,0,0,1,4,1.37q1.39,1.38,1.8,5a7,7,0,0,1,2.85-.9,1.35,1.35,0,0,1,1,.52,1.83,1.83,0,0,1,.48,1.28,2.76,2.76,0,0,1-1.08,1.77,7.88,7.88,0,0,1-3.12,1.68q-.11,4.1-.1,6A7.23,7.23,0,0,1,1062,1435.41ZM1040,1418a2.64,2.64,0,0,0-.57,1.58,2.83,2.83,0,0,0,.65,1.8,2,2,0,0,0,1.65.8,3,3,0,0,0,1.72-.6,1.73,1.73,0,0,0,.88-1.45,3.1,3.1,0,0,0-.68-2.15,2.33,2.33,0,0,0-1.82-.75A2.16,2.16,0,0,0,1040,1418Zm17.13-.52a2,2,0,0,0-1.6.7,2.43,2.43,0,0,0-.6,1.65,2.2,2.2,0,0,0,.72,1.67,2.47,2.47,0,0,0,1.73.68c.43,0,1,0,1.55-.1,0-.7,0-1.37-.05-2a4.44,4.44,0,0,0-.25-1.4A1.62,1.62,0,0,0,1057.08,1417.51Z" transform="translate(-975.06 -1389.56)"/><path class="cls-2" d="M1082.53,1440.53a22.93,22.93,0,0,1,3.4,2.08c.67.46,1.2.8,1.6,1a2.19,2.19,0,0,0,1,.33c.4,0,.72-.65,1-2a41.51,41.51,0,0,0,.5-7.4V1432c0-5.27-.44-8.77-1.3-10.5a6,6,0,0,0-2.08-2.45,5.5,5.5,0,0,0-3.17-.9,9.43,9.43,0,0,0-2.33.3,6.1,6.1,0,0,0-2.37,1.3,6.7,6.7,0,0,0-1.13,1,2.62,2.62,0,0,0-.67,1.2,12.88,12.88,0,0,1,4.65,1.8,4,4,0,0,1,.82.75,1.37,1.37,0,0,1,.18.8.92.92,0,0,1-.3.72,3.8,3.8,0,0,1-.75.53,6.6,6.6,0,0,0-.6.35,2.53,2.53,0,0,0-1.1,1.52,10,10,0,0,0-.38,2.13q-.08,1.1-.12,1.5c-.33,3.3-2.17,5-5.5,5a5.44,5.44,0,0,1-3.28-1.08,3.72,3.72,0,0,1-1.47-3.22,4.64,4.64,0,0,1,1.37-3.48A5,5,0,0,1,1074,1428a4.82,4.82,0,0,1,.8,0l.45,0a3.91,3.91,0,0,1,.85-1.63,3.35,3.35,0,0,1,1.55-1,11,11,0,0,0-2.85-.9,15.37,15.37,0,0,1-1.7-.5,2.38,2.38,0,0,1-.88-.8,1.76,1.76,0,0,1-.37-.9,4,4,0,0,1,.27-1.08,9.94,9.94,0,0,1,.58-1.32,7.91,7.91,0,0,1,2-2.45,17.2,17.2,0,0,1,2.73-2,9.16,9.16,0,0,1,2.2-1,20.26,20.26,0,0,1,2.1-.5,13.37,13.37,0,0,1,2.25-.15q5.89,0,8.45,4.4a16.65,16.65,0,0,1,1.9,5.85,64.11,64.11,0,0,1,.5,7.8,93.8,93.8,0,0,1-.55,11.75,6.13,6.13,0,0,1-1.25,3.17,3.18,3.18,0,0,1-2.45,1,7.74,7.74,0,0,1-2.63-.4,13.18,13.18,0,0,1-1.92-.9l-1.25-.75c-.24.16-.58.43-1,.8a7.43,7.43,0,0,1-1.35.85,9.36,9.36,0,0,1-3.65.6,5.07,5.07,0,0,1-3.45-1.13,3.42,3.42,0,0,1-1.3-2.67c0-1.64.47-2.72,1.4-3.25a11.16,11.16,0,0,1,1.82-1,5.58,5.58,0,0,1,2-.3A7.54,7.54,0,0,1,1082.53,1440.53Zm-7.43-6.4a1.84,1.84,0,0,0,.58-1.37c0-1.4-.62-2.1-1.85-2.1a2,2,0,0,0-1.43.57,1.85,1.85,0,0,0-.57,1.33,2.26,2.26,0,0,0,.52,1.52,1.65,1.65,0,0,0,1.33.63A1.89,1.89,0,0,0,1075.1,1434.13Zm7.13,9.88a12.07,12.07,0,0,0-1.8-1,3.94,3.94,0,0,0-1.6-.32,1.83,1.83,0,0,0-1.2.4,1.2,1.2,0,0,0-.5,1,.93.93,0,0,0,.47.87,2.37,2.37,0,0,0,1.18.28A5.51,5.51,0,0,0,1082.23,1444Z" transform="translate(-975.06 -1389.56)"/><path class="cls-2" d="M1094,1405.71l-.1,3.45a2.05,2.05,0,0,1-.43,1.27,1.3,1.3,0,0,1-1.12.58,19.87,19.87,0,0,1-3.35-.5,40.8,40.8,0,0,0-6.7-.8c-1.6,0-3,.06-4.2.17s-1.93.19-2.2.23l-1,.1c-.3,0-.55,0-.75,0-.9,0-1.35-.69-1.35-2a5,5,0,0,1,1.22-2.38,11.79,11.79,0,0,1,3.53-2.95,10.64,10.64,0,0,1,5.4-1.32,8.37,8.37,0,0,1,4.3,1.1,10.19,10.19,0,0,1,3.2,2.9c0-.27-.07-.9-.2-1.9l-.1-1.05a1.76,1.76,0,0,1,.57-1.43,2.16,2.16,0,0,1,1.38-.47,1.72,1.72,0,0,1,1.95,2Zm-5.4,2.1a10,10,0,0,0-2.68-2.48,6.26,6.26,0,0,0-3.12-.72,6.15,6.15,0,0,0-3,.77,7.08,7.08,0,0,0-2.17,1.83,32.74,32.74,0,0,1,4.65-.35A46,46,0,0,1,1088.63,1407.81Z" transform="translate(-975.06 -1389.56)"/><path class="cls-2" d="M1113.23,1398.06a6.13,6.13,0,0,1,.9,3,8.54,8.54,0,0,1-.85,4,18.38,18.38,0,0,1-2.35,3.38,16.28,16.28,0,0,0-1.23,1.6,3.32,3.32,0,0,0-.52,1.3c-.17.93-.29,1.75-.35,2.45s-.12,1.53-.15,2.5c0,.8,0,2.19,0,4.17s.13,3.88.23,5.68c0,0,.24-.13.72-.28a5.75,5.75,0,0,1,1.68-.22,4.48,4.48,0,0,1,3.52,1.7,5.67,5.67,0,0,1,1.48,3.85,4.87,4.87,0,0,1-.9,2.87,6.26,6.26,0,0,1-2.35,2,6.65,6.65,0,0,1-3,.73,5.51,5.51,0,0,1-4.18-1.73,6.34,6.34,0,0,1-1.62-4.52q0-2.36-.15-5.4c0-.8-.07-1.74-.1-2.8s0-2.22,0-3.45l0-1.65.15-2.4a31,31,0,0,1,.3-3.4,6.84,6.84,0,0,1,.85-2.13,26.17,26.17,0,0,1,1.8-2.47,22.83,22.83,0,0,0,2-2.78,4.8,4.8,0,0,0,.65-2.42,3.54,3.54,0,0,0-1.2-2.83,4,4,0,0,0-2.65-1,5.56,5.56,0,0,0-3.35,1,2.83,2.83,0,0,0-1.35,2.33,3,3,0,0,0,.25,1.47,1.57,1.57,0,0,0,.5.58l.35.2a1.66,1.66,0,0,1,.65,1.45,1.69,1.69,0,0,1-.58,1.22,2,2,0,0,1-1.52.58,3.21,3.21,0,0,1-1.63-.63,5.37,5.37,0,0,1-1.7-1.87,6,6,0,0,1-.72-3,6.29,6.29,0,0,1,1.32-3.3,8.69,8.69,0,0,1,2.63-2.7,11.32,11.32,0,0,1,5.5-1.3,7.88,7.88,0,0,1,3.35.72,8.16,8.16,0,0,1,2.15,1.33A10.79,10.79,0,0,1,1113.23,1398.06Zm-1.25,35a2,2,0,0,0,.75-1.57,2.88,2.88,0,0,0-.58-1.65,1.67,1.67,0,0,0-1.42-.85,3.13,3.13,0,0,0-2,.62,2.19,2.19,0,0,0-.75,1.78,2,2,0,0,0,.75,1.77,2.74,2.74,0,0,0,1.6.53A2.58,2.58,0,0,0,1112,1433Z" transform="translate(-975.06 -1389.56)"/><path class="cls-2" d="M1146.28,1431.53a10.44,10.44,0,0,1,.7,3.43,1.75,1.75,0,0,1-.78,1.4,2.73,2.73,0,0,1-1.72.6,3.11,3.11,0,0,1-2-.55,2.25,2.25,0,0,1-.82-1.35,30.52,30.52,0,0,0-.78-3.78,7.07,7.07,0,0,0-1.42-2.47,21.71,21.71,0,0,1-2.23,2.67c-.68.69-1.55,1.48-2.62,2.38a26.7,26.7,0,0,1-3.48,2.5,6,6,0,0,1-2.82.6,3.24,3.24,0,0,1-2.45-.85,2.58,2.58,0,0,1-.8-1.75c0-.67.05-1.55.15-2.65q.35-4.31.3-6.8l-.63.27a5.28,5.28,0,0,1-1.87.23,4.46,4.46,0,0,1-2.6-.85,6.33,6.33,0,0,1-1.9-2.15,5.43,5.43,0,0,1-.7-2.6,5,5,0,0,1,1.75-4.18,7.57,7.57,0,0,1,4.8-1.37,5.08,5.08,0,0,1,4.12,1.75,6.81,6.81,0,0,1,1.53,4.45c0,.66,0,1.65,0,3,0,3-.13,6-.4,9a20.7,20.7,0,0,0,3.62-2.75,43.35,43.35,0,0,0,3.33-3.8,9.15,9.15,0,0,1-2.8-3.15,7.44,7.44,0,0,1-.95-3.45,4.31,4.31,0,0,1,.95-2.65,6.88,6.88,0,0,1,2.4-2,6.1,6.1,0,0,1,2.8-.75,8.28,8.28,0,0,1,2.5.45,6.39,6.39,0,0,1,2,.9,5,5,0,0,1,2,4,7.52,7.52,0,0,1-.73,3.35,6.68,6.68,0,0,1-2.07,2.5,11.6,11.6,0,0,1,1.17,1.37,7.93,7.93,0,0,1,.93,1.48A27.12,27.12,0,0,1,1146.28,1431.53Zm-20.88-9.7a2.28,2.28,0,0,0,.73-2,2.11,2.11,0,0,0-.8-1.83,2.77,2.77,0,0,0-1.6-.57,2.81,2.81,0,0,0-1.85.65,2,2,0,0,0-.8,1.65,2.91,2.91,0,0,0,.62,1.77,1.88,1.88,0,0,0,1.53.83A3.67,3.67,0,0,0,1125.4,1421.83Zm12-.45a14.35,14.35,0,0,0,2.13,1.58c1.4-1.34,2.1-2.55,2.1-3.65a1.88,1.88,0,0,0-.75-1.45,2.27,2.27,0,0,0-1.5-.65,3.11,3.11,0,0,0-2,.6,2.21,2.21,0,0,0-.72,1.8A2.34,2.34,0,0,0,1137.45,1421.38Z" transform="translate(-975.06 -1389.56)"/><path class="cls-2" d="M1175.6,1414.66a1.87,1.87,0,0,1,.63,1.4c0,1.16-.07,3.15-.2,6q-.26,6.6-.25,9.45a5.89,5.89,0,0,1-1.38,4,5,5,0,0,1-4,1.55,5.09,5.09,0,0,1-2.7-.65,18.6,18.6,0,0,1-2.6-2.1,14,14,0,0,0-2.1-1.9,5.21,5.21,0,0,1-2.18,3.37,6.49,6.49,0,0,1-3.87,1.28,5.79,5.79,0,0,1-4-1.43,4.55,4.55,0,0,1-1.57-3.52,5.17,5.17,0,0,1,1.77-4.13,6.63,6.63,0,0,1,4.48-1.52,8.45,8.45,0,0,1,2.2.35,5.51,5.51,0,0,0,0-1.43,5.23,5.23,0,0,0-.3-1.42,7.29,7.29,0,0,1-2.35.65,6,6,0,0,1-4.3-1.48,5.69,5.69,0,0,1-1.55-4.32,4,4,0,0,1,1.75-3.5,6.44,6.44,0,0,1,3.85-1.25,7.53,7.53,0,0,1,3.15.5,6.28,6.28,0,0,1,2.15,1.9,10.61,10.61,0,0,1,1.22,2.8,11.63,11.63,0,0,1,.63,3.55l.05,2.6a16.44,16.44,0,0,1-.15,2.6c.4.33,1.2,1.1,2.4,2.3a15.61,15.61,0,0,0,1.9,1.82,2.47,2.47,0,0,0,1.55.58c.43,0,.79-.39,1.07-1.15a8.33,8.33,0,0,0,.43-2.9c0-3-.07-6.15-.2-9.35l-.05-2.2a3.33,3.33,0,0,1,.65-2.45,3.3,3.3,0,0,1,2.25-.6A2.24,2.24,0,0,1,1175.6,1414.66Zm-20.45,3.2a2.08,2.08,0,0,0-.57,1.4,2.45,2.45,0,0,0,.65,1.75,2.06,2.06,0,0,0,1.55.7c1.57,0,2.35-.75,2.35-2.25s-.78-2.25-2.35-2.25A2.05,2.05,0,0,0,1155.15,1417.86Zm3.78,14.87a4.45,4.45,0,0,0,.75-2.62,8.12,8.12,0,0,0-.88-.33,4.32,4.32,0,0,0-1.37-.22,3.28,3.28,0,0,0-1.85.6,1.72,1.72,0,0,0-.9,1.45,2.19,2.19,0,0,0,.57,1.62,2.12,2.12,0,0,0,1.58.58A2.41,2.41,0,0,0,1158.93,1432.73Z" transform="translate(-975.06 -1389.56)"/><path class="cls-2" d="M1171.48,1410.58a1.81,1.81,0,0,1-.65-1.42c-.07-1-.12-2.1-.15-3.4s0-2.3,0-3a1.82,1.82,0,0,1,.5-1.28,1.72,1.72,0,0,1,1.4-.67c1.87,0,2.8.63,2.8,1.9,0,.9,0,2-.1,3.35s-.12,2.36-.15,3.1a2.32,2.32,0,0,1-.6,1.4,2,2,0,0,1-1.45.5A2.41,2.41,0,0,1,1171.48,1410.58Z" transform="translate(-975.06 -1389.56)"/><path class="cls-2" d="M1200.33,1425.11c0-.94,0-2.25,0-3.95a37.84,37.84,0,0,1,.25-5,2.72,2.72,0,0,1,.87-1.7,2.69,2.69,0,0,1,1.88-.65,1.86,1.86,0,0,1,1.57.67,2.57,2.57,0,0,1,.53,1.63,78.9,78.9,0,0,0-.3,8.85c0,1.1,0,2,0,2.75s0,1.21,0,1.45c0,3.1-.68,5.21-2.05,6.35s-3.47,1.7-6.3,1.7q-3.85,0-5.55-1.53a5.23,5.23,0,0,1-1.7-4.12,5.65,5.65,0,0,1,.37-2.1c.25-.64.63-1.45,1.13-2.45a22,22,0,0,0,1.3-2.78,7.67,7.67,0,0,0,.45-2.67,4.69,4.69,0,0,0-1-3.08,3.84,3.84,0,0,0-3.15-1.27,4.49,4.49,0,0,0-1.93.47,1.85,1.85,0,0,0-1.12,1.38,2.31,2.31,0,0,1,.75-.1,3.36,3.36,0,0,1,2.77,1.25,5.24,5.24,0,0,1,1,3.45,4.3,4.3,0,0,1-1.38,3.22,5.1,5.1,0,0,1-3.72,1.33,4.24,4.24,0,0,1-3.63-1.65,6.4,6.4,0,0,1-1.22-3.9,8.07,8.07,0,0,1,1.12-3.93,9.65,9.65,0,0,1,3.15-3.37A8.08,8.08,0,0,1,1189,1414c2.7,0,4.7.7,6,2.12a8.38,8.38,0,0,1,2,5.88,10.48,10.48,0,0,1-.4,3,23.7,23.7,0,0,1-1.15,2.9c-.34.8-.58,1.41-.73,1.82a3.75,3.75,0,0,0-.22,1.28,2.08,2.08,0,0,0,2.35,2.35,4.36,4.36,0,0,0,2.72-.7c.59-.47.88-1.42.88-2.85Zm-13.5-3.15a1.85,1.85,0,0,0-1.55-.7,2.38,2.38,0,0,0-1.5.47,1.78,1.78,0,0,0-.6,1.48,2.1,2.1,0,0,0,1.9,2.25,2.52,2.52,0,0,0,1.62-.55,1.79,1.79,0,0,0,.68-1.45A2.34,2.34,0,0,0,1186.83,1422Z" transform="translate(-975.06 -1389.56)"/><path class="cls-2" d="M1208.73,1406.78a15.27,15.27,0,0,1-3.2,2.28,14.42,14.42,0,0,1-6.9,1.8q-3.6,0-5-1.55a5.5,5.5,0,0,1-1.6-3.5,3.92,3.92,0,0,1,1.37-3,4.57,4.57,0,0,1,3.18-1.25,5.77,5.77,0,0,1,3.77,1.12,4.11,4.11,0,0,1,1.38,3.38,3.9,3.9,0,0,0,2.22-.58,28,28,0,0,0,2.58-2,2.44,2.44,0,0,1,.87-.6,3,3,0,0,1,1-.15,1.69,1.69,0,0,1,1.12.45,1.39,1.39,0,0,1,.53,1.1A3.58,3.58,0,0,1,1208.73,1406.78Zm-13.1.65a1.43,1.43,0,0,0,1.2.58q2.1,0,2.1-2a1.91,1.91,0,0,0-.6-1.4,2,2,0,0,0-1.5-.6,1.5,1.5,0,0,0-1.15.57,2,2,0,0,0-.5,1.33A2.3,2.3,0,0,0,1195.63,1407.43Z" transform="translate(-975.06 -1389.56)"/><path class="cls-2" d="M1208.65,1391.66a1.34,1.34,0,0,1,.58,1.2,4.36,4.36,0,0,1-1.15,2.62,9.37,9.37,0,0,1-3.18,2.43,10.26,10.26,0,0,1-4.57,1c-2.67,0-4-.45-4-1.35,0-.17.17-.33.5-.48a5.33,5.33,0,0,0,1-.55,1.54,1.54,0,0,0,.6-.87,6.57,6.57,0,0,1-1,.15,2.24,2.24,0,0,1-1.93-.93,3.72,3.72,0,0,1-.67-2.27,2.68,2.68,0,0,1,1.07-2.2,4,4,0,0,1,2.53-.85,4.37,4.37,0,0,1,2.82.9,3,3,0,0,1,1.13,2.5,4.89,4.89,0,0,1-1,3.4q2.85,0,4.25-3.35a4.15,4.15,0,0,1,.8-1.23,1.44,1.44,0,0,1,1.05-.52A2.13,2.13,0,0,1,1208.65,1391.66Zm-8.72,1.15a1.08,1.08,0,0,0-.45-.9,1.71,1.71,0,0,0-1.1-.35,1.66,1.66,0,0,0-1.05.32,1,1,0,0,0-.4.78c0,1,.45,1.55,1.35,1.55C1199.38,1394.21,1199.93,1393.74,1199.93,1392.81Z" transform="translate(-975.06 -1389.56)"/><path class="cls-2" d="M1237.7,1427.61a5.13,5.13,0,0,1,1.83,4.2,4.8,4.8,0,0,1-.68,2.35,5.94,5.94,0,0,1-1.75,2,3.73,3.73,0,0,1-2.22.78c-2,0-3.49-.45-4.38-1.35a8,8,0,0,1-1.72-4.65,16.9,16.9,0,0,0-2.58,1.55,22.62,22.62,0,0,0-2.47,2.2,9.53,9.53,0,0,1-2,1.67,5.54,5.54,0,0,1-2.52.58,3,3,0,0,1-2.1-.83,2.25,2.25,0,0,1-.9-1.57,17.73,17.73,0,0,1,.15-2c.26-3.44.45-6,.55-7.55a8.92,8.92,0,0,1-1.05.27,7.34,7.34,0,0,1-1.6.18,4.43,4.43,0,0,1-3.5-1.73,5.84,5.84,0,0,1-1.45-3.87,4.58,4.58,0,0,1,1-2.83,6.58,6.58,0,0,1,2.47-2,7.15,7.15,0,0,1,3.08-.72,5.31,5.31,0,0,1,4.27,1.67,6.78,6.78,0,0,1,1.43,4.53c0,1.76-.08,3.8-.23,6.1s-.29,4-.42,5.15a21.37,21.37,0,0,1,7.8-4.85q-.3-3.21-.3-9.1a4.57,4.57,0,0,1,.77-2.93,3,3,0,0,1,2.38-.92,1.74,1.74,0,0,1,1.55.65,2.56,2.56,0,0,1,.45,1.5c0,1.46,0,3-.15,4.45,0,.46,0,1.3-.08,2.5s0,2.25,0,3.15A6.8,6.8,0,0,1,1237.7,1427.61ZM1217,1418a2.75,2.75,0,0,0-1.6-.57,2.66,2.66,0,0,0-1.75.65,2,2,0,0,0-.8,1.65,3.14,3.14,0,0,0,.57,1.72,1.68,1.68,0,0,0,1.43.88,3.19,3.19,0,0,0,2.17-.68,2.29,2.29,0,0,0,.78-1.82A2.11,2.11,0,0,0,1217,1418Zm18.62,15.35a1.48,1.48,0,0,0,.53-1.22,3.86,3.86,0,0,0-.43-1.95,1.75,1.75,0,0,0-1.67-.75,4,4,0,0,0-1.65.35,6.33,6.33,0,0,0-.1,1.1,4.22,4.22,0,0,0,.47,2.05,1.64,1.64,0,0,0,1.53.85A2,2,0,0,0,1235.6,1433.33Z" transform="translate(-975.06 -1389.56)"/><path class="cls-2" d="M1270.18,1436a2.25,2.25,0,0,1-1.9,1.08,2.8,2.8,0,0,1-1.9-.7,2.3,2.3,0,0,1-.8-1.8c0-1,0-2.3.1-3.9s.1-2.52.1-3.15a31.53,31.53,0,0,0-.65-6.25,4.35,4.35,0,0,0-.7-1.88,1.69,1.69,0,0,0-1.45-.67,1.8,1.8,0,0,0-1,.35c-.35.23-.87.61-1.57,1.15-.37.3-.73.57-1.08.82a1.65,1.65,0,0,1-.87.38,4.61,4.61,0,0,1-3.1-1.65,6.42,6.42,0,0,0-1.65-1.35,3.71,3.71,0,0,0-1.7-.35,3.64,3.64,0,0,0-1.8.92,5.94,5.94,0,0,0-1.7,1.88,13.49,13.49,0,0,0-1,2.77,12.66,12.66,0,0,0-.35,3.08,9.27,9.27,0,0,0,1.12,4.82,3.5,3.5,0,0,0,3.13,1.88,3.12,3.12,0,0,0,1.87-.63,1.81,1.81,0,0,0,.88-1.52,4.31,4.31,0,0,1-3.53-1.48,5,5,0,0,1-1.22-3.22,3.85,3.85,0,0,1,1.6-3.13,5.56,5.56,0,0,1,3.55-1.27,5,5,0,0,1,3.65,1.45,4.68,4.68,0,0,1,1.5,3.5,11.21,11.21,0,0,1-1.08,4.77,10.07,10.07,0,0,1-2.92,3.78,6.62,6.62,0,0,1-4.15,1.45,10.61,10.61,0,0,1-3.28-.48,6.43,6.43,0,0,1-2-.92,8.29,8.29,0,0,1-2.83-4,15.9,15.9,0,0,1-.92-5.2,14.47,14.47,0,0,1,1.77-6.88,11.08,11.08,0,0,1,4.73-4.82,7.09,7.09,0,0,1,3.2-.9,4.91,4.91,0,0,1,3.6,1.5,16.34,16.34,0,0,0,2.5,2,22.19,22.19,0,0,0,2.1-1.55,17.81,17.81,0,0,1,1.9-1.33,3.32,3.32,0,0,1,1.65-.42,4.92,4.92,0,0,1,3.55,1.2,8.75,8.75,0,0,1,2,3.7,28.81,28.81,0,0,1,1.12,5.77q.33,3.23.33,7.93A5.84,5.84,0,0,1,1270.18,1436Zm-17.1-10.45a1.86,1.86,0,0,0-.6,1.28,2.23,2.23,0,0,0,.57,1.5,1.76,1.76,0,0,0,1.33.65,2.31,2.31,0,0,0,1.47-.58,1.62,1.62,0,0,0,.73-1.27,2,2,0,0,0-2.25-2.2A1.75,1.75,0,0,0,1253.08,1425.58Z" transform="translate(-975.06 -1389.56)"/><path class="cls-2" d="M1270.05,1402.88a1.59,1.59,0,0,1,.68,1.38,5.44,5.44,0,0,1-1.23,3,10.14,10.14,0,0,1-3.55,3,11.41,11.41,0,0,1-5.47,1.25,22.35,22.35,0,0,1-3.5-.25c-1-.17-1.5-.6-1.5-1.3a.48.48,0,0,1,.22-.38,3.71,3.71,0,0,1,.53-.32,7.46,7.46,0,0,0,1-.7,1.81,1.81,0,0,0,.55-1,1.46,1.46,0,0,0-.4.07,1.92,1.92,0,0,1-.55.08,2.8,2.8,0,0,1-2.15-1.1,3.82,3.82,0,0,1-1-2.55,3,3,0,0,1,1.2-2.53,4.57,4.57,0,0,1,2.85-.92,4.94,4.94,0,0,1,3.2,1,3.43,3.43,0,0,1,1.25,2.85,6,6,0,0,1-1.2,4q3.3,0,5.75-4.4c.07-.1.18-.31.35-.63a2.31,2.31,0,0,1,.62-.75,1.48,1.48,0,0,1,.88-.27A2.46,2.46,0,0,1,1270.05,1402.88Zm-10.47,1.38a1.33,1.33,0,0,0-.5-1,1.87,1.87,0,0,0-1.25-.42,1.94,1.94,0,0,0-1.23.37,1.11,1.11,0,0,0-.47.88c0,1.2.52,1.8,1.55,1.8C1259,1405.86,1259.58,1405.32,1259.58,1404.26Z" transform="translate(-975.06 -1389.56)"/><path class="cls-2" d="M1303.3,1427.61a5.13,5.13,0,0,1,1.83,4.2,4.8,4.8,0,0,1-.68,2.35,5.94,5.94,0,0,1-1.75,2,3.71,3.71,0,0,1-2.22.78q-3,0-4.38-1.35a8,8,0,0,1-1.72-4.65,16.9,16.9,0,0,0-2.58,1.55,22.62,22.62,0,0,0-2.47,2.2,9.53,9.53,0,0,1-2,1.67,5.54,5.54,0,0,1-2.52.58,3,3,0,0,1-2.1-.83,2.25,2.25,0,0,1-.9-1.57,17.73,17.73,0,0,1,.15-2c.27-3.44.45-6,.55-7.55a8.92,8.92,0,0,1-1,.27,7.34,7.34,0,0,1-1.6.18,4.41,4.41,0,0,1-3.5-1.73,5.84,5.84,0,0,1-1.45-3.87,4.64,4.64,0,0,1,.95-2.83,6.58,6.58,0,0,1,2.47-2,7.15,7.15,0,0,1,3.08-.72,5.31,5.31,0,0,1,4.27,1.67,6.78,6.78,0,0,1,1.43,4.53c0,1.76-.08,3.8-.23,6.1s-.29,4-.42,5.15a21.37,21.37,0,0,1,7.8-4.85q-.3-3.21-.3-9.1a4.57,4.57,0,0,1,.77-2.93,3,3,0,0,1,2.38-.92,1.74,1.74,0,0,1,1.55.65,2.56,2.56,0,0,1,.45,1.5c0,1.46,0,3-.15,4.45,0,.46,0,1.3-.08,2.5s-.06,2.25,0,3.15A6.8,6.8,0,0,1,1303.3,1427.61Zm-20.72-9.63a2.77,2.77,0,0,0-1.6-.57,2.66,2.66,0,0,0-1.75.65,2,2,0,0,0-.8,1.65,3.14,3.14,0,0,0,.57,1.72,1.68,1.68,0,0,0,1.43.88,3.19,3.19,0,0,0,2.17-.68,2.29,2.29,0,0,0,.78-1.82A2.11,2.11,0,0,0,1282.58,1418Zm18.62,15.35a1.48,1.48,0,0,0,.53-1.22,3.86,3.86,0,0,0-.43-1.95,1.75,1.75,0,0,0-1.67-.75,4,4,0,0,0-1.65.35,6.33,6.33,0,0,0-.1,1.1,4.22,4.22,0,0,0,.47,2.05,1.64,1.64,0,0,0,1.53.85A2,2,0,0,0,1301.2,1433.33Z" transform="translate(-975.06 -1389.56)"/><path class="cls-2" d="M1337.88,1436.58a3.38,3.38,0,0,1-.55-2.22v-3.3c0-2.2-.08-4.1-.23-5.68a11,11,0,0,0-1-3.87,5.91,5.91,0,0,0-2.13-2.45,5.83,5.83,0,0,0-3.27-.9,7.21,7.21,0,0,0-4,1.22,4.86,4.86,0,0,0-2.27,2.83,19.23,19.23,0,0,1,2.35.8,24.06,24.06,0,0,1,2.4,1.2,1.09,1.09,0,0,1,.55.55,2.78,2.78,0,0,1,.15,1,1.43,1.43,0,0,1-.35.92,2.13,2.13,0,0,1-.9.63l-.73.3a3.2,3.2,0,0,0-1.15.8,3.41,3.41,0,0,0-.77,1.3,7.72,7.72,0,0,0-.48,2.1c0,.66-.07,1.61-.07,2.85,0,1.63-.89,2.45-2.65,2.45a2.79,2.79,0,0,1-1.8-.6,1.69,1.69,0,0,1-.75-1.3,18.39,18.39,0,0,1,.85-5.85,6.63,6.63,0,0,1,3.65-3.85,22.87,22.87,0,0,0-2.75-1l-.83-.3c-.28-.1-.54-.2-.77-.3a2.26,2.26,0,0,1-.83-.7,1.43,1.43,0,0,1-.32-.75,4.63,4.63,0,0,1,.8-2.45,12.88,12.88,0,0,1,11.2-6.1q5.85,0,8.4,4.4a19.45,19.45,0,0,1,2.2,7.35,85.75,85.75,0,0,1,.35,8.6,3.39,3.39,0,0,1-.63,2.15,2.29,2.29,0,0,1-1.92.8A2.26,2.26,0,0,1,1337.88,1436.58Z" transform="translate(-975.06 -1389.56)"/><path class="cls-2" d="M1352,1418.73a5,5,0,0,0-1.47.58,12.92,12.92,0,0,0-1.25.75,8.51,8.51,0,0,1-1,.57,1.94,1.94,0,0,1-.85.23,1.84,1.84,0,0,1-1.2-.53,1.68,1.68,0,0,1-.6-1.32,3.39,3.39,0,0,1,1.35-2.58,10,10,0,0,1,3.25-1.85,10.13,10.13,0,0,1,3.35-.67c3.16,0,5.47,1,6.92,3a14.25,14.25,0,0,1,2.33,8c.13,4.06.2,7.2.2,9.4a3.39,3.39,0,0,1-.7,2.32,2.9,2.9,0,0,1-2.25.78,2.11,2.11,0,0,1-1.6-.7,2.26,2.26,0,0,1-.65-1.6q0-2.51.15-4.8c.06-2,.1-3.57.1-4.7q0-7-4.65-7.05A8.45,8.45,0,0,0,1352,1418.73Z" transform="translate(-975.06 -1389.56)"/><path class="cls-2" d="M1384.08,1433.33a7.21,7.21,0,0,1-2.5,2.7,6.67,6.67,0,0,1-3.65,1,7.91,7.91,0,0,1-1.88-.25,4.19,4.19,0,0,1-1.37-.55c-.77-.57-1.29-1-1.58-1.25a2.41,2.41,0,0,1-.62-1.1,7.94,7.94,0,0,1-.2-2.1,3.87,3.87,0,0,1,1.47-3.15,5.35,5.35,0,0,1,3.48-1.2,7.46,7.46,0,0,1,1.52.15,8.3,8.3,0,0,1,1.18.32c.3.12.48.19.55.23a2.58,2.58,0,0,0-.35-1.43,3.34,3.34,0,0,0-1-.92,4.56,4.56,0,0,0-1.83-.63,13.2,13.2,0,0,0-2.27-.22,9.49,9.49,0,0,0-2.25.4,11.43,11.43,0,0,1-2.4.4,2.45,2.45,0,0,1-2.08-1.2,4.5,4.5,0,0,1-.82-2.6,7.93,7.93,0,0,1,.65-3.08,11.33,11.33,0,0,1,1.7-2.87,6.19,6.19,0,0,1,5-2.1,7.18,7.18,0,0,1,2,.32,21.67,21.67,0,0,1,2.43.93q1.09.49,1.77.72a3,3,0,0,0,1.18.18,1.85,1.85,0,0,0,1.32-.5,4.08,4.08,0,0,1,.63-.55,5.63,5.63,0,0,1,.92-.73,1.9,1.9,0,0,1,1-.22,1.69,1.69,0,0,1,1.2.42,1.77,1.77,0,0,1,.45,1.33,3.64,3.64,0,0,1-.78,2,7.09,7.09,0,0,1-1.92,1.9,4,4,0,0,1-2.2.78,6.92,6.92,0,0,1-2.1-.3,18.68,18.68,0,0,1-2.3-1c-.74-.34-1.36-.59-1.88-.78a4.87,4.87,0,0,0-1.62-.27,2.59,2.59,0,0,0-2.25,1.12,4.78,4.78,0,0,0-.85,2.73,12,12,0,0,1,1.8-.35,14.54,14.54,0,0,1,2-.15,10.58,10.58,0,0,1,6.4,1.85,6.72,6.72,0,0,1,2.1,2.65,8.72,8.72,0,0,1,.8,3.75A7.45,7.45,0,0,1,1384.08,1433.33Zm-5.13.43a1.41,1.41,0,0,0,.73-1.35,2.37,2.37,0,0,0-.48-1.48,1.68,1.68,0,0,0-1.42-.62,3.4,3.4,0,0,0-1.55.4,1.25,1.25,0,0,0-.8,1.15,2.85,2.85,0,0,0,.45,1.62,1.56,1.56,0,0,0,1.4.68A3.46,3.46,0,0,0,1379,1433.76Z" transform="translate(-975.06 -1389.56)"/><path class="cls-2" d="M1402.8,1436.58a2.33,2.33,0,0,1-1.27-1.57,14.23,14.23,0,0,0-.8-2.2,4.25,4.25,0,0,0-1.2-1.55,7.35,7.35,0,0,1-3.85,1,4.5,4.5,0,0,1-3.2-1.33,4.13,4.13,0,0,1-1.4-3.12,5,5,0,0,1,1.32-3.43,4.36,4.36,0,0,1,3.38-1.47,7.6,7.6,0,0,1,3.07.72,5.93,5.93,0,0,1,2.48,1.93,18.28,18.28,0,0,1,1.67,3,19.22,19.22,0,0,1,1.33,3.65,4.28,4.28,0,0,1,.35-.33l.45-.42a10.62,10.62,0,0,0,1.4-3.1,12.38,12.38,0,0,0,.6-3.45,9,9,0,0,0-.48-2.88,4.93,4.93,0,0,0-1.37-2.22,5,5,0,0,0-2.28-1.25,10.81,10.81,0,0,0-3-.4,5,5,0,0,0-2,.4,14.86,14.86,0,0,0-2.1,1.1,9.94,9.94,0,0,1-1.1.6,2.46,2.46,0,0,1-.9.25,2.34,2.34,0,0,1-1.33-.4,1.48,1.48,0,0,1-.57-1.3,3.12,3.12,0,0,1,1.47-2.43,11.9,11.9,0,0,1,3.58-1.8,12.4,12.4,0,0,1,3.75-.67,13.66,13.66,0,0,1,4.62.8,8.76,8.76,0,0,1,3.93,2.8,10.44,10.44,0,0,1,1.9,3.4,12.17,12.17,0,0,1,.7,4,14.46,14.46,0,0,1-1,5.47,34.53,34.53,0,0,1-3.1,5.58,2,2,0,0,1-.38.35,4.16,4.16,0,0,1-1,.5,5,5,0,0,1-1.67.25A4.64,4.64,0,0,1,1402.8,1436.58Zm-5.27-7.45a2.23,2.23,0,0,0,.6-1.52,2,2,0,0,0-.55-1.38,1.76,1.76,0,0,0-1.35-.62,2.28,2.28,0,0,0-1.55.62,1.92,1.92,0,0,0-.7,1.48,2,2,0,0,0,.57,1.57,2.21,2.21,0,0,0,1.53.53A1.89,1.89,0,0,0,1397.53,1429.13Z" transform="translate(-975.06 -1389.56)"/><path class="cls-2" d="M1413.83,1406.78a15.27,15.27,0,0,1-3.2,2.28,14.42,14.42,0,0,1-6.9,1.8q-3.6,0-5-1.55a5.5,5.5,0,0,1-1.6-3.5,3.92,3.92,0,0,1,1.37-3,4.57,4.57,0,0,1,3.18-1.25,5.77,5.77,0,0,1,3.77,1.12,4.11,4.11,0,0,1,1.38,3.38,3.9,3.9,0,0,0,2.22-.58,29.46,29.46,0,0,0,2.58-2,2.44,2.44,0,0,1,.87-.6,3,3,0,0,1,1-.15,1.69,1.69,0,0,1,1.12.45,1.39,1.39,0,0,1,.53,1.1A3.58,3.58,0,0,1,1413.83,1406.78Zm-13.1.65a1.43,1.43,0,0,0,1.2.58q2.1,0,2.1-2a1.91,1.91,0,0,0-.6-1.4,2,2,0,0,0-1.5-.6,1.5,1.5,0,0,0-1.15.57,2,2,0,0,0-.5,1.33A2.3,2.3,0,0,0,1400.73,1407.43Z" transform="translate(-975.06 -1389.56)"/><path class="cls-2" d="M1424.4,1419.31a7.52,7.52,0,0,0-2.92,3.3,10,10,0,0,0-.9,4.15,9.08,9.08,0,0,0,1.15,4.82,3.53,3.53,0,0,0,3.15,1.88,3.14,3.14,0,0,0,1.87-.63,1.81,1.81,0,0,0,.88-1.52,4.31,4.31,0,0,1-3.53-1.48,5,5,0,0,1-1.22-3.22,3.85,3.85,0,0,1,1.6-3.13,5.54,5.54,0,0,1,3.55-1.27,5,5,0,0,1,3.65,1.45,4.68,4.68,0,0,1,1.5,3.5,11.73,11.73,0,0,1-1.08,4.85,10.49,10.49,0,0,1-2.92,3.92,6.36,6.36,0,0,1-4.15,1.53,8.64,8.64,0,0,1-3.2-.58,7.84,7.84,0,0,1-2.1-1.12,8.29,8.29,0,0,1-2.83-4,15.9,15.9,0,0,1-.92-5.2,11.64,11.64,0,0,1,1.25-5.5,12.23,12.23,0,0,1,3.45-4.1,16,16,0,0,1,9.7-3,13.52,13.52,0,0,1,5.8,1.15,8.64,8.64,0,0,1,3.75,3.2,15.93,15.93,0,0,1,2,6.12,66.59,66.59,0,0,1,.53,9.18,4.6,4.6,0,0,1-.68,3,2.38,2.38,0,0,1-1.87.75,2.74,2.74,0,0,1-1.88-.7,2.34,2.34,0,0,1-.77-1.8l0-2.35c.06-1.54.1-2.79.1-3.75s0-1.65,0-2.15a20.65,20.65,0,0,0-.45-3.38,7.53,7.53,0,0,0-1-2.42,5.94,5.94,0,0,0-2.58-1.93,9.28,9.28,0,0,0-3.72-.77A9.61,9.61,0,0,0,1424.4,1419.31Zm2.23,6.27a1.86,1.86,0,0,0-.6,1.28,2.23,2.23,0,0,0,.57,1.5,1.76,1.76,0,0,0,1.33.65,2.31,2.31,0,0,0,1.47-.58,1.62,1.62,0,0,0,.73-1.27,2,2,0,0,0-2.25-2.2A1.75,1.75,0,0,0,1426.63,1425.58Z" transform="translate(-975.06 -1389.56)"/><path class="cls-2" d="M1454.6,1426.56a3.32,3.32,0,0,0-.92.5,1.34,1.34,0,0,0-.35.35,4.77,4.77,0,0,1,1.72.32,6,6,0,0,1,1.33.7l.65.48c.06.1.21.31.42.65a6.82,6.82,0,0,1,.63,1.27,4.34,4.34,0,0,1,.3,1.58,4.27,4.27,0,0,1-.65,2.15,5.8,5.8,0,0,1-1.7,1.82,3.92,3.92,0,0,1-2.25.73,6.47,6.47,0,0,1-4.65-1.58,6.23,6.23,0,0,1-1.65-4.72,7.8,7.8,0,0,1,2.9-6.15,9.61,9.61,0,0,1,11.75-.38,10.93,10.93,0,0,1,3.7,4.73,9.88,9.88,0,0,0,.2-2.15,9.61,9.61,0,0,0-1-4,8.55,8.55,0,0,0-2.37-3.2,5.11,5.11,0,0,0-1.8-.75,10.91,10.91,0,0,0-2.65-.3,12.43,12.43,0,0,0-1.85.15,4.87,4.87,0,0,0-1.65.5l-1.15.65a9.42,9.42,0,0,1-1.38.8,3.13,3.13,0,0,1-1.22.25,1.88,1.88,0,0,1-1.25-.53,1.68,1.68,0,0,1-.6-1.32,3.27,3.27,0,0,1,1.67-2.7,13.4,13.4,0,0,1,4-1.8,14,14,0,0,1,7.63-.23,10.91,10.91,0,0,1,2.9,1.28,5.13,5.13,0,0,0,1.27-.73c.42-.31.81-.62,1.18-.92a13.58,13.58,0,0,1,1.27-1,1.9,1.9,0,0,1,1-.3,1.41,1.41,0,0,1,1.1.45,1.77,1.77,0,0,1,.4,1.2,5.14,5.14,0,0,1-.9,2.35,7.43,7.43,0,0,1-2.15,2.35q2.14,3.8,2.15,10.35a16.4,16.4,0,0,1-.85,5.15c-.57,1.7-1.4,2.55-2.5,2.55a2.91,2.91,0,0,1-1.9-.55,4.25,4.25,0,0,1-1.1-1.9,20.94,20.94,0,0,0-3.1-6.05,5.92,5.92,0,0,0-5-2.3A4.4,4.4,0,0,0,1454.6,1426.56Zm.05,4.1a2,2,0,0,0-1.62-.7,2.41,2.41,0,0,0-1.58.55,2.17,2.17,0,0,0-.67,1.8,2,2,0,0,0,.62,1.52,2.34,2.34,0,0,0,1.63.58,2.31,2.31,0,0,0,1.52-.58,1.84,1.84,0,0,0,.68-1.47A2.54,2.54,0,0,0,1454.65,1430.66Z" transform="translate(-975.06 -1389.56)"/><path class="cls-2" d="M1491.63,1433.33a7.21,7.21,0,0,1-2.5,2.7,6.67,6.67,0,0,1-3.65,1,7.91,7.91,0,0,1-1.88-.25,4.1,4.1,0,0,1-1.37-.55c-.77-.57-1.29-1-1.58-1.25a2.41,2.41,0,0,1-.62-1.1,7.94,7.94,0,0,1-.2-2.1,3.87,3.87,0,0,1,1.47-3.15,5.35,5.35,0,0,1,3.48-1.2,7.46,7.46,0,0,1,1.52.15,8.3,8.3,0,0,1,1.18.32c.3.12.48.19.55.23a2.58,2.58,0,0,0-.35-1.43,3.34,3.34,0,0,0-1-.92,4.56,4.56,0,0,0-1.83-.63,13.2,13.2,0,0,0-2.27-.22,9.49,9.49,0,0,0-2.25.4,11.43,11.43,0,0,1-2.4.4,2.45,2.45,0,0,1-2.08-1.2,4.5,4.5,0,0,1-.82-2.6,7.93,7.93,0,0,1,.65-3.08,11.33,11.33,0,0,1,1.7-2.87,6.19,6.19,0,0,1,5-2.1,7.18,7.18,0,0,1,2,.32,21.67,21.67,0,0,1,2.43.93q1.1.49,1.77.72a3,3,0,0,0,1.18.18,1.85,1.85,0,0,0,1.32-.5,4.08,4.08,0,0,1,.63-.55,5.63,5.63,0,0,1,.92-.73,1.9,1.9,0,0,1,1-.22,1.69,1.69,0,0,1,1.2.42,1.77,1.77,0,0,1,.45,1.33,3.64,3.64,0,0,1-.78,2,7.09,7.09,0,0,1-1.92,1.9,4,4,0,0,1-2.2.78,6.92,6.92,0,0,1-2.1-.3,18.06,18.06,0,0,1-2.3-1c-.74-.34-1.36-.59-1.88-.78a4.87,4.87,0,0,0-1.62-.27,2.59,2.59,0,0,0-2.25,1.12,4.78,4.78,0,0,0-.85,2.73,12,12,0,0,1,1.8-.35,14.54,14.54,0,0,1,2-.15,10.58,10.58,0,0,1,6.4,1.85,6.81,6.81,0,0,1,2.1,2.65,8.72,8.72,0,0,1,.8,3.75A7.45,7.45,0,0,1,1491.63,1433.33Zm-5.13.43a1.41,1.41,0,0,0,.73-1.35,2.37,2.37,0,0,0-.48-1.48,1.68,1.68,0,0,0-1.42-.62,3.4,3.4,0,0,0-1.55.4,1.23,1.23,0,0,0-.8,1.15,2.85,2.85,0,0,0,.45,1.62,1.56,1.56,0,0,0,1.4.68A3.46,3.46,0,0,0,1486.5,1433.76Z" transform="translate(-975.06 -1389.56)"/><path class="cls-2" d="M1514.73,1433.33a7.21,7.21,0,0,1-2.5,2.7,6.67,6.67,0,0,1-3.65,1,7.91,7.91,0,0,1-1.88-.25,4.1,4.1,0,0,1-1.37-.55c-.77-.57-1.29-1-1.58-1.25a2.41,2.41,0,0,1-.62-1.1,7.94,7.94,0,0,1-.2-2.1,3.87,3.87,0,0,1,1.47-3.15,5.35,5.35,0,0,1,3.48-1.2,7.46,7.46,0,0,1,1.52.15,8.3,8.3,0,0,1,1.18.32c.3.12.48.19.55.23a2.58,2.58,0,0,0-.35-1.43,3.34,3.34,0,0,0-1-.92,4.56,4.56,0,0,0-1.83-.63,13.2,13.2,0,0,0-2.27-.22,9.49,9.49,0,0,0-2.25.4,11.43,11.43,0,0,1-2.4.4,2.45,2.45,0,0,1-2.08-1.2,4.5,4.5,0,0,1-.82-2.6,7.93,7.93,0,0,1,.65-3.08,11.33,11.33,0,0,1,1.7-2.87,6.19,6.19,0,0,1,5-2.1,7.18,7.18,0,0,1,2,.32,21.67,21.67,0,0,1,2.43.93q1.1.49,1.77.72a3,3,0,0,0,1.18.18,1.85,1.85,0,0,0,1.32-.5,4.08,4.08,0,0,1,.63-.55,5.63,5.63,0,0,1,.92-.73,1.9,1.9,0,0,1,1-.22,1.69,1.69,0,0,1,1.2.42,1.77,1.77,0,0,1,.45,1.33,3.64,3.64,0,0,1-.78,2,7.09,7.09,0,0,1-1.92,1.9,4,4,0,0,1-2.2.78,6.92,6.92,0,0,1-2.1-.3,18.06,18.06,0,0,1-2.3-1c-.74-.34-1.36-.59-1.88-.78a4.87,4.87,0,0,0-1.62-.27,2.59,2.59,0,0,0-2.25,1.12,4.78,4.78,0,0,0-.85,2.73,12,12,0,0,1,1.8-.35,14.54,14.54,0,0,1,1.95-.15,10.58,10.58,0,0,1,6.4,1.85,6.81,6.81,0,0,1,2.1,2.65,8.72,8.72,0,0,1,.8,3.75A7.45,7.45,0,0,1,1514.73,1433.33Zm-5.13.43a1.41,1.41,0,0,0,.73-1.35,2.37,2.37,0,0,0-.48-1.48,1.68,1.68,0,0,0-1.42-.62,3.4,3.4,0,0,0-1.55.4,1.23,1.23,0,0,0-.8,1.15,2.85,2.85,0,0,0,.45,1.62,1.56,1.56,0,0,0,1.4.68A3.46,3.46,0,0,0,1509.6,1433.76Z" transform="translate(-975.06 -1389.56)"/><path class="cls-2" d="M987.15,1496.71a3.34,3.34,0,0,1-1.77.55,2.33,2.33,0,0,1-1.68-.6,2.08,2.08,0,0,1-.62-1.55,42.82,42.82,0,0,1,.37-5q.38-3.08.93-5.72a4.36,4.36,0,0,1-2,.4,5.59,5.59,0,0,1-4-1.55,5.38,5.38,0,0,1-.15-7.5,5,5,0,0,1,3.85-1.55,6.76,6.76,0,0,1,3.9,1.07,5.85,5.85,0,0,1,2.15,3.63,10.67,10.67,0,0,1,3.37-3.5,9.11,9.11,0,0,1,5-1.3,5.52,5.52,0,0,1,4.75,2.17,15.34,15.34,0,0,1,2.35,6.28,81.18,81.18,0,0,1,.65,12.15,2,2,0,0,1-.85,1.82,3.39,3.39,0,0,1-1.8.53,2.63,2.63,0,0,1-1.5-.58,1.91,1.91,0,0,1-.8-1.67c0-.7,0-1.32.05-1.85.06-1.6.1-3.09.1-4.45,0-1.8-.07-3.39-.2-4.75a10.67,10.67,0,0,0-1-3.83,2.72,2.72,0,0,0-2.57-1.62c-2,0-3.92,1.41-5.75,4.25q-1.86,2.75-1.85,12.65A1.69,1.69,0,0,1,987.15,1496.71Zm-3.3-15.55a1.71,1.71,0,0,0,.68-1.25,3.26,3.26,0,0,0-.53-2,2.46,2.46,0,0,0-2.07-.7,1.8,1.8,0,0,0-1.53.77,2.72,2.72,0,0,0-.57,1.63,1.91,1.91,0,0,0,.75,1.52,2.85,2.85,0,0,0,1.9.63A2.05,2.05,0,0,0,983.85,1481.16Z" transform="translate(-975.06 -1389.56)"/><path class="cls-2" d="M1003.08,1465.71l-.1,3.45a2.05,2.05,0,0,1-.43,1.27,1.3,1.3,0,0,1-1.12.58,19.87,19.87,0,0,1-3.35-.5,40.8,40.8,0,0,0-6.7-.8c-1.6,0-3,.06-4.2.17s-1.93.19-2.2.23l-1,.1c-.3,0-.55,0-.75,0-.9,0-1.35-.69-1.35-2a5,5,0,0,1,1.22-2.38,11.79,11.79,0,0,1,3.53-2.95,10.64,10.64,0,0,1,5.4-1.32,8.37,8.37,0,0,1,4.3,1.1,10.19,10.19,0,0,1,3.2,2.9c0-.27-.07-.9-.2-1.9l-.1-1.05a1.76,1.76,0,0,1,.57-1.43,2.16,2.16,0,0,1,1.38-.47,1.72,1.72,0,0,1,2,2Zm-5.4,2.1a10,10,0,0,0-2.68-2.48,6.26,6.26,0,0,0-3.12-.72,6.15,6.15,0,0,0-3,.77,7.08,7.08,0,0,0-2.17,1.83,32.74,32.74,0,0,1,4.65-.35A46,46,0,0,1,997.68,1467.81Z" transform="translate(-975.06 -1389.56)"/><path class="cls-2" d="M999.75,1458.68a1.45,1.45,0,0,1-.57-1.17l-.15-3.4-.1-1.9a1.58,1.58,0,0,1,.5-1,1.66,1.66,0,0,1,1.3-.55q2.4,0,2.4,1.5c0,.76,0,1.7-.1,2.8s-.12,2-.15,2.55a2,2,0,0,1-.48,1.17,1.67,1.67,0,0,1-1.22.38A2.43,2.43,0,0,1,999.75,1458.68Z" transform="translate(-975.06 -1389.56)"/><path class="cls-2" d="M1029.93,1480.73a13.37,13.37,0,0,1,.85,4.53,12.32,12.32,0,0,1-3,8.67q-3,3.28-8.45,3.28a14.41,14.41,0,0,1-4.73-.73,7.92,7.92,0,0,1-3.57-2.57,7.17,7.17,0,0,1-1.33-2.5,10.58,10.58,0,0,1-.47-3.15,5.54,5.54,0,0,1,.85-3,6.16,6.16,0,0,1,2.3-2.23,6,6,0,0,1,3-.82,5.2,5.2,0,0,1,3.32,1.17,3.68,3.68,0,0,1,1.48,3,5.13,5.13,0,0,1-1.25,3.32,3.81,3.81,0,0,1-3.05,1.53,6.94,6.94,0,0,1-1.9-.25,3.64,3.64,0,0,0,2.17,1.82,9.57,9.57,0,0,0,3.13.53,6.46,6.46,0,0,0,2.72-.63,6.28,6.28,0,0,0,2.23-1.62,6,6,0,0,0,1.22-2.55,15.48,15.48,0,0,0,.33-3.4,6.78,6.78,0,0,0-.45-2.5,12.23,12.23,0,0,0-1.45-2.55,4.14,4.14,0,0,0-2-1.33,7.57,7.57,0,0,0-2.57-.57,11.4,11.4,0,0,0-2.68.37,7,7,0,0,0-2.37,1c-.74.5-1.27.85-1.6,1.05a2.22,2.22,0,0,1-1.15.3,1.75,1.75,0,0,1-1.38-.6,2.19,2.19,0,0,1-.52-1.5,2.63,2.63,0,0,1,1.07-2.18,18.6,18.6,0,0,1,3.13-1.82,11.25,11.25,0,0,1,5-.95,16.54,16.54,0,0,1,5,.62,10.1,10.1,0,0,1,6,6.2Zm-14.5,4.18a2,2,0,0,0-1.55.6,2.33,2.33,0,0,0-.55,1.65,1.47,1.47,0,0,0,.6,1.22,2.11,2.11,0,0,0,1.35.48,1.92,1.92,0,0,0,1.4-.6,2,2,0,0,0,.6-1.45A1.66,1.66,0,0,0,1015.43,1484.91Z" transform="translate(-975.06 -1389.56)"/><path class="cls-2" d="M1043.08,1491.61c0,1.36,1.58,2.05,4.75,2.05a9,9,0,0,0,4.47-1,3.74,3.74,0,0,0,1.73-3.57q0-4.56.15-8.08c.1-2.35.2-3.87.3-4.57a3.47,3.47,0,0,1,.85-1.85,2.68,2.68,0,0,1,2-.6,2.13,2.13,0,0,1,1.57.45,2,2,0,0,1,.43,1.45l-.1,1.65q-.6,7.05-.6,13.15a5.28,5.28,0,0,1-1,3,7.79,7.79,0,0,1-3.53,2.52,17.35,17.35,0,0,1-6.52,1,15.59,15.59,0,0,1-3.85-.53,10,10,0,0,1-3.48-1.57,3.18,3.18,0,0,1-1.42-2.65,3.44,3.44,0,0,1,1.5-2.7,7.51,7.51,0,0,1-3.53-3.23,9.62,9.62,0,0,1-1.27-4.87,7.78,7.78,0,0,1,1-4,7.41,7.41,0,0,1,2.63-2.7,6.31,6.31,0,0,1,3.3-1,6.1,6.1,0,0,1,4.37,1.37,4.76,4.76,0,0,1,1.43,3.58,6.15,6.15,0,0,1-1.55,4.2,5.71,5.71,0,0,1-4.5,1.75,7.37,7.37,0,0,1-1.2-.1,9,9,0,0,1-1.25-.35,3.22,3.22,0,0,0,1.2,2.1,3.5,3.5,0,0,0,2.25.8,8.77,8.77,0,0,0,1.82-.15,7.91,7.91,0,0,0,1.38-.45,5.67,5.67,0,0,1,.55-.23,3.36,3.36,0,0,1,1.15-.17.85.85,0,0,1,.82.4,2.22,2.22,0,0,1,.23,1.1,1.79,1.79,0,0,1-.55,1.07,4.41,4.41,0,0,1-1.73,1.1,8.06,8.06,0,0,1-3,.48h-.3A1.72,1.72,0,0,0,1043.08,1491.61Zm-2.78-10.28a2.11,2.11,0,0,0,1.68.68,2.9,2.9,0,0,0,2-.7,2.41,2.41,0,0,0,.8-1.9,2,2,0,0,0-2.25-2.25,2.86,2.86,0,0,0-1.93.72,2.33,2.33,0,0,0-.82,1.83A2.43,2.43,0,0,0,1040.3,1481.33Z" transform="translate(-975.06 -1389.56)"/><path class="cls-2" d="M1043.45,1507.11a4,4,0,0,1-.87-2.55,3.86,3.86,0,0,1,1.37-3.23,5.56,5.56,0,0,1,3.53-1.07,3.6,3.6,0,0,1,3.17,1.3,6.28,6.28,0,0,1,.93,3.7v1.67a3.27,3.27,0,0,0,.27,1.63,1.13,1.13,0,0,0,1,.4,1.35,1.35,0,0,0,1.05-.55,3,3,0,0,0,.6-1.45,17,17,0,0,0,.15-2.6v-1.65a2.83,2.83,0,0,1,.5-1.63,1.7,1.7,0,0,1,1.5-.72,1.61,1.61,0,0,1,1.55.72,4.06,4.06,0,0,1,.4,2,34.44,34.44,0,0,1-.45,4.45,6.21,6.21,0,0,1-1.5,3,3.74,3.74,0,0,1-2.9,1.28,6.9,6.9,0,0,1-3.9-.9,4.91,4.91,0,0,1-1.8-3.15,7.21,7.21,0,0,1-.88.27,5.26,5.26,0,0,1-1.37.18A2.84,2.84,0,0,1,1043.45,1507.11Zm2.3-4a1.85,1.85,0,0,0-.57,1.43,1.46,1.46,0,0,0,.45,1.15,1.56,1.56,0,0,0,1,.4,1.81,1.81,0,0,0,1.3-.55,1.67,1.67,0,0,0,.55-1.2c0-1.17-.48-1.75-1.45-1.75A1.93,1.93,0,0,0,1045.75,1503.08Z" transform="translate(-975.06 -1389.56)"/><path class="cls-2" d="M1053.73,1470.58a1.81,1.81,0,0,1-.65-1.42c-.07-1-.12-2.1-.15-3.4s0-2.3,0-3a1.82,1.82,0,0,1,.5-1.28,1.72,1.72,0,0,1,1.4-.67c1.87,0,2.8.63,2.8,1.9,0,.9,0,2-.1,3.35s-.12,2.36-.15,3.1a2.32,2.32,0,0,1-.6,1.4,2,2,0,0,1-1.45.5A2.41,2.41,0,0,1,1053.73,1470.58Z" transform="translate(-975.06 -1389.56)"/><path class="cls-2" d="M1084.68,1480.73a13.37,13.37,0,0,1,.85,4.53,12.32,12.32,0,0,1-3,8.67q-3,3.28-8.45,3.28a14.41,14.41,0,0,1-4.73-.73,7.92,7.92,0,0,1-3.57-2.57,7.17,7.17,0,0,1-1.33-2.5,10.58,10.58,0,0,1-.47-3.15,5.54,5.54,0,0,1,.85-3,6.16,6.16,0,0,1,2.3-2.23,6,6,0,0,1,3-.82,5.2,5.2,0,0,1,3.32,1.17,3.68,3.68,0,0,1,1.48,3,5.13,5.13,0,0,1-1.25,3.32,3.81,3.81,0,0,1-3,1.53,6.94,6.94,0,0,1-1.9-.25,3.64,3.64,0,0,0,2.17,1.82,9.57,9.57,0,0,0,3.13.53,6.46,6.46,0,0,0,2.72-.63,6.28,6.28,0,0,0,2.23-1.62,6,6,0,0,0,1.22-2.55,15.48,15.48,0,0,0,.33-3.4,6.78,6.78,0,0,0-.45-2.5,12.23,12.23,0,0,0-1.45-2.55,4.14,4.14,0,0,0-2-1.33,7.57,7.57,0,0,0-2.57-.57,11.4,11.4,0,0,0-2.68.37,7,7,0,0,0-2.37,1c-.74.5-1.27.85-1.6,1.05a2.22,2.22,0,0,1-1.15.3,1.75,1.75,0,0,1-1.38-.6,2.19,2.19,0,0,1-.52-1.5,2.63,2.63,0,0,1,1.07-2.18,18.6,18.6,0,0,1,3.13-1.82,11.25,11.25,0,0,1,5.05-.95,16.54,16.54,0,0,1,5,.62,10.1,10.1,0,0,1,6,6.2Zm-14.5,4.18a2,2,0,0,0-1.55.6,2.33,2.33,0,0,0-.55,1.65,1.47,1.47,0,0,0,.6,1.22,2.11,2.11,0,0,0,1.35.48,1.92,1.92,0,0,0,1.4-.6,2,2,0,0,0,.6-1.45A1.66,1.66,0,0,0,1070.18,1484.91Z" transform="translate(-975.06 -1389.56)"/><path class="cls-2" d="M1094.85,1478.73a5,5,0,0,0-1.47.58,14.25,14.25,0,0,0-1.25.75,8.51,8.51,0,0,1-1,.57,1.91,1.91,0,0,1-.85.23,1.84,1.84,0,0,1-1.2-.53,1.68,1.68,0,0,1-.6-1.32,3.39,3.39,0,0,1,1.35-2.58,10,10,0,0,1,3.25-1.85,10.13,10.13,0,0,1,3.35-.67c3.16,0,5.47,1,6.92,3a14.25,14.25,0,0,1,2.33,8c.13,4.06.2,7.2.2,9.4a3.34,3.34,0,0,1-.7,2.32,2.9,2.9,0,0,1-2.25.78,2.12,2.12,0,0,1-1.6-.7,2.31,2.31,0,0,1-.65-1.6q0-2.51.15-4.8c.07-2,.1-3.57.1-4.7q0-7-4.65-7.05A8.45,8.45,0,0,0,1094.85,1478.73Z" transform="translate(-975.06 -1389.56)"/><path class="cls-2" d="M1118.1,1480.13a8.06,8.06,0,0,0-2.42,6.23,15.74,15.74,0,0,0,.85,4.4,24.68,24.68,0,0,0,1.7-3.65,24.09,24.09,0,0,1,1-2.28,4.25,4.25,0,0,1,1-1.27,6.06,6.06,0,0,1,1.67-.88,5.3,5.3,0,0,1,5.45,1,4.15,4.15,0,0,1,1.43,3.23,4.85,4.85,0,0,1-1.43,3.57,4.56,4.56,0,0,1-3.32,1.43,5.56,5.56,0,0,1-1.8-.25,4.15,4.15,0,0,1-1.4-.9,12.92,12.92,0,0,1-1,1.35,7.34,7.34,0,0,0-1,1.52,9.16,9.16,0,0,0-.55,2,1.51,1.51,0,0,1-1,1.3,4.83,4.83,0,0,1-1.6.3,3.69,3.69,0,0,1-1.78-.43,1.27,1.27,0,0,1-.77-1.12,10.86,10.86,0,0,0-.2-2.13c-.14-.65-.35-1.44-.65-2.37a20.49,20.49,0,0,1-.75-2.78,14.75,14.75,0,0,1-.25-2.87q0-5.55,3.47-8.55t9.58-3a14.25,14.25,0,0,1,7.15,1.6l1.6-1.35c.73-.64,1.3-1.1,1.7-1.4a2,2,0,0,1,1.25-.45c1,0,1.45.61,1.45,1.85q0,2.14-2.75,4.7a17.83,17.83,0,0,1,1.8,8.65c0,3.16,0,5.08,0,5.75a6.63,6.63,0,0,1-.85,3.07,2,2,0,0,1-1.7.78,2.88,2.88,0,0,1-1.88-.63,2.1,2.1,0,0,1-.77-1.72c0-.44.1-1.42.3-3a38.42,38.42,0,0,0,.4-5.3,11.27,11.27,0,0,0-2-6.4q-1.76-2.2-5.75-2.2A9,9,0,0,0,1118.1,1480.13Zm7.35,5.53a2.23,2.23,0,0,0-1.42-.45,2.66,2.66,0,0,0-1.73.5,1.81,1.81,0,0,0-.62,1.5,1.73,1.73,0,0,0,.65,1.52,2.69,2.69,0,0,0,1.65.48,2.06,2.06,0,0,0,1.47-.55,2,2,0,0,0,.58-1.55A1.71,1.71,0,0,0,1125.45,1485.66Z" transform="translate(-975.06 -1389.56)"/><path class="cls-2" d="M1140,1466.78a15.27,15.27,0,0,1-3.2,2.28,14.39,14.39,0,0,1-6.9,1.8q-3.6,0-5-1.55a5.5,5.5,0,0,1-1.6-3.5,3.92,3.92,0,0,1,1.37-3,4.57,4.57,0,0,1,3.18-1.25,5.77,5.77,0,0,1,3.77,1.12,4.11,4.11,0,0,1,1.38,3.38,3.9,3.9,0,0,0,2.22-.58,28,28,0,0,0,2.58-2,2.44,2.44,0,0,1,.87-.6,3,3,0,0,1,1-.15,1.69,1.69,0,0,1,1.12.45,1.39,1.39,0,0,1,.53,1.1A3.58,3.58,0,0,1,1140,1466.78Zm-13.1.65a1.43,1.43,0,0,0,1.2.58q2.1,0,2.1-2a1.91,1.91,0,0,0-.6-1.4,2,2,0,0,0-1.5-.6,1.5,1.5,0,0,0-1.15.57,2,2,0,0,0-.5,1.33A2.3,2.3,0,0,0,1126.93,1467.43Z" transform="translate(-975.06 -1389.56)"/><path class="cls-2" d="M1149.58,1491.61c0,1.36,1.58,2.05,4.75,2.05a9,9,0,0,0,4.47-1,3.74,3.74,0,0,0,1.73-3.57q0-4.56.15-8.08c.1-2.35.2-3.87.3-4.57a3.47,3.47,0,0,1,.85-1.85,2.68,2.68,0,0,1,2-.6,2.13,2.13,0,0,1,1.57.45,2,2,0,0,1,.43,1.45l-.1,1.65q-.6,7.05-.6,13.15a5.28,5.28,0,0,1-1,3,7.79,7.79,0,0,1-3.53,2.52,17.35,17.35,0,0,1-6.52,1,15.59,15.59,0,0,1-3.85-.53,10,10,0,0,1-3.48-1.57,3.18,3.18,0,0,1-1.42-2.65,3.44,3.44,0,0,1,1.5-2.7,7.51,7.51,0,0,1-3.53-3.23,9.62,9.62,0,0,1-1.27-4.87,7.78,7.78,0,0,1,1-4,7.41,7.41,0,0,1,2.63-2.7,6.31,6.31,0,0,1,3.3-1,6.1,6.1,0,0,1,4.37,1.37,4.76,4.76,0,0,1,1.43,3.58,6.15,6.15,0,0,1-1.55,4.2,5.71,5.71,0,0,1-4.5,1.75,7.37,7.37,0,0,1-1.2-.1,9,9,0,0,1-1.25-.35,3.22,3.22,0,0,0,1.2,2.1,3.5,3.5,0,0,0,2.25.8,8.77,8.77,0,0,0,1.82-.15,7.91,7.91,0,0,0,1.38-.45,5.67,5.67,0,0,1,.55-.23,3.36,3.36,0,0,1,1.15-.17.85.85,0,0,1,.82.4,2.22,2.22,0,0,1,.23,1.1,1.79,1.79,0,0,1-.55,1.07,4.41,4.41,0,0,1-1.73,1.1,8.06,8.06,0,0,1-3,.48h-.3A1.72,1.72,0,0,0,1149.58,1491.61Zm-2.78-10.28a2.11,2.11,0,0,0,1.68.68,2.9,2.9,0,0,0,2-.7,2.41,2.41,0,0,0,.8-1.9,2,2,0,0,0-2.25-2.25,2.86,2.86,0,0,0-1.93.72,2.33,2.33,0,0,0-.82,1.83A2.43,2.43,0,0,0,1146.8,1481.33Z" transform="translate(-975.06 -1389.56)"/><path class="cls-2" d="M1172.75,1474.78a2.06,2.06,0,0,1,1.78-.87c.86,0,1.42.24,1.65.72a4.15,4.15,0,0,1,.35,1.78q0,1.1-.15,3.3c-.17,3.26-.27,5.45-.3,6.55a5.77,5.77,0,0,1,1-.3,6,6,0,0,1,1.58-.2,4.12,4.12,0,0,1,3.37,1.67,6,6,0,0,1,1.33,3.83,4.83,4.83,0,0,1-.88,2.82,6.09,6.09,0,0,1-2.27,2,6.25,6.25,0,0,1-3,.73,5.27,5.27,0,0,1-4.08-1.73,6.37,6.37,0,0,1-1.57-4.47q0-10.3.35-13.15A5.85,5.85,0,0,1,1172.75,1474.78Zm6.75,18.18a2.93,2.93,0,0,0,.53-1.6,2.83,2.83,0,0,0-.6-1.78,1.93,1.93,0,0,0-1.6-.77,2.93,2.93,0,0,0-1.68.57,1.7,1.7,0,0,0-.82,1.43,3.48,3.48,0,0,0,.6,2.17,2.13,2.13,0,0,0,1.8.78A2,2,0,0,0,1179.5,1493Zm8.83-19c.87,0,1.42.24,1.67.72a3.87,3.87,0,0,1,.38,1.78q0,1.1-.15,3.3c-.17,3.26-.27,5.45-.3,6.55a7.22,7.22,0,0,1,2.5-.5,4.21,4.21,0,0,1,3.4,1.67,5.93,5.93,0,0,1,1.35,3.83,4.83,4.83,0,0,1-.88,2.82,6,6,0,0,1-2.3,2,6.39,6.39,0,0,1-3,.73,5.18,5.18,0,0,1-4-1.73,6.45,6.45,0,0,1-1.55-4.47q0-10.3.3-13.15C1186,1475.09,1186.86,1473.91,1188.33,1473.91Zm5,19a2.93,2.93,0,0,0,.53-1.6,2.83,2.83,0,0,0-.6-1.78,1.94,1.94,0,0,0-1.6-.77,2.93,2.93,0,0,0-1.68.57,1.7,1.7,0,0,0-.82,1.43,3.42,3.42,0,0,0,.62,2.17,2.15,2.15,0,0,0,1.78.78A2,2,0,0,0,1193.3,1493Z" transform="translate(-975.06 -1389.56)"/><path class="cls-2" d="M1213.2,1488.68a5.85,5.85,0,0,0-4.87-2.27,4.41,4.41,0,0,0-1.6.25,3.14,3.14,0,0,0-1,.5,1.34,1.34,0,0,0-.35.35,4.78,4.78,0,0,1,1.75.32,6.76,6.76,0,0,1,1.3.68,6.08,6.08,0,0,1,.6.45c.06.1.21.31.42.65a6.82,6.82,0,0,1,.63,1.27,4.11,4.11,0,0,1-.33,3.73,5.23,5.23,0,0,1-1.67,1.8,4,4,0,0,1-2.25.7,6.32,6.32,0,0,1-4.58-1.58,6.23,6.23,0,0,1-1.62-4.67,7.64,7.64,0,0,1,2.85-6,9.14,9.14,0,0,1,6.2-2.2,9,9,0,0,1,5.42,1.8,10.76,10.76,0,0,1,3.68,4.7,14.61,14.61,0,0,0,.15-2.15,10.53,10.53,0,0,0-1-4.15,8.1,8.1,0,0,0-2.3-3.25,5.76,5.76,0,0,0-1.8-.75,10.56,10.56,0,0,0-2.65-.3,12.07,12.07,0,0,0-1.83.15,4.83,4.83,0,0,0-1.62.5c-.37.2-.75.43-1.15.7-.64.36-1.12.62-1.45.77a2.67,2.67,0,0,1-1.1.23,1.9,1.9,0,0,1-1.25-.53,1.62,1.62,0,0,1-.6-1.27,3.33,3.33,0,0,1,1.65-2.68,12.77,12.77,0,0,1,3.9-1.82,14.11,14.11,0,0,1,3.9-.65,12.82,12.82,0,0,1,4.27.6,12.32,12.32,0,0,1,3.33,1.85,9.79,9.79,0,0,1,3.25,5.2,28.66,28.66,0,0,1,1,7.9,16.23,16.23,0,0,1-.85,5.1c-.57,1.7-1.4,2.55-2.5,2.55a2.74,2.74,0,0,1-1.83-.55,4.77,4.77,0,0,1-1.12-1.9A21,21,0,0,0,1213.2,1488.68Zm-6.55,5.15a1.8,1.8,0,0,0,.68-1.42,2.54,2.54,0,0,0-.58-1.7,2,2,0,0,0-1.62-.7,2.3,2.3,0,0,0-1.55.55,2.2,2.2,0,0,0-.65,1.8,1.92,1.92,0,0,0,.62,1.47,2.26,2.26,0,0,0,1.58.58A2.29,2.29,0,0,0,1206.65,1493.83Z" transform="translate(-975.06 -1389.56)"/><path class="cls-2" d="M1237.23,1480.91a3.49,3.49,0,0,0,1.7-.6,7.12,7.12,0,0,0,2-1.85,2.44,2.44,0,0,1,1.9-1,1.24,1.24,0,0,1,.92.47,1.56,1.56,0,0,1,.43,1.08,3.4,3.4,0,0,1-.7,2.35,9.13,9.13,0,0,1-4,2.87,16.07,16.07,0,0,1-4.9.68,8.35,8.35,0,0,1-2.78-.53,7.81,7.81,0,0,1-2.42-1.32,4.72,4.72,0,0,1-1.25-1.63,6.36,6.36,0,0,1-.35-2.37,3.73,3.73,0,0,1,1.35-3,4.9,4.9,0,0,1,3.3-1.15,6.36,6.36,0,0,1,3.95,1.07,4,4,0,0,1,1.4,3.33A3.3,3.3,0,0,1,1237.23,1480.91Zm0,11.9a3.38,3.38,0,0,0,1.7-.63,7.38,7.38,0,0,0,2-1.87,2.46,2.46,0,0,1,1.9-1,1.21,1.21,0,0,1,.92.47,1.5,1.5,0,0,1,.43,1,3.73,3.73,0,0,1-.7,2.4,9.24,9.24,0,0,1-4,2.82,15.93,15.93,0,0,1-4.92.68,8.68,8.68,0,0,1-2.8-.5,7.1,7.1,0,0,1-2.4-1.35,4.25,4.25,0,0,1-1.25-1.58,6.55,6.55,0,0,1-.35-2.42,3.78,3.78,0,0,1,1.37-3,4.9,4.9,0,0,1,3.28-1.17,6.23,6.23,0,0,1,3.95,1.1,4,4,0,0,1,1.4,3.35A3.3,3.3,0,0,1,1237.23,1492.81Zm-6.4-13.3a1.86,1.86,0,0,0,.5,1.35,1.7,1.7,0,0,0,1.25.5c1.46,0,2.2-.59,2.2-1.75a1.74,1.74,0,0,0-.53-1.4,2.73,2.73,0,0,0-1.77-.45C1231.38,1477.76,1230.83,1478.34,1230.83,1479.51Zm.45,10.5a1.63,1.63,0,0,0-.45,1.35,1.92,1.92,0,0,0,.5,1.4,1.7,1.7,0,0,0,1.25.5c1.46,0,2.2-.59,2.2-1.75a1.74,1.74,0,0,0-.53-1.4,2.73,2.73,0,0,0-1.77-.45A1.86,1.86,0,0,0,1231.28,1490Z" transform="translate(-975.06 -1389.56)"/><path class="cls-2" d="M1257.05,1496.71a3.34,3.34,0,0,1-1.77.55,2.33,2.33,0,0,1-1.68-.6,2.08,2.08,0,0,1-.62-1.55,42.82,42.82,0,0,1,.37-5q.38-3.08.93-5.72a4.36,4.36,0,0,1-2,.4,5.58,5.58,0,0,1-4-1.55,5.38,5.38,0,0,1-.15-7.5,5,5,0,0,1,3.85-1.55,6.76,6.76,0,0,1,3.9,1.07,5.85,5.85,0,0,1,2.15,3.63,10.67,10.67,0,0,1,3.37-3.5,9.11,9.11,0,0,1,5-1.3,5.52,5.52,0,0,1,4.75,2.17,15.2,15.2,0,0,1,2.35,6.28,81.18,81.18,0,0,1,.65,12.15,2,2,0,0,1-.85,1.82,3.39,3.39,0,0,1-1.8.53,2.63,2.63,0,0,1-1.5-.58,1.93,1.93,0,0,1-.8-1.67c0-.7,0-1.32,0-1.85.06-1.6.1-3.09.1-4.45,0-1.8-.07-3.39-.2-4.75a10.67,10.67,0,0,0-1-3.83,2.71,2.71,0,0,0-2.57-1.62c-2,0-3.92,1.41-5.75,4.25q-1.86,2.75-1.85,12.65A1.69,1.69,0,0,1,1257.05,1496.71Zm-3.3-15.55a1.71,1.71,0,0,0,.68-1.25,3.26,3.26,0,0,0-.53-2,2.46,2.46,0,0,0-2.07-.7,1.82,1.82,0,0,0-1.53.77,2.72,2.72,0,0,0-.57,1.63,1.91,1.91,0,0,0,.75,1.52,2.85,2.85,0,0,0,1.9.63A2.07,2.07,0,0,0,1253.75,1481.16Z" transform="translate(-975.06 -1389.56)"/><path class="cls-2" d="M1274.13,1463.16a3.94,3.94,0,0,1,1.55,3.2,4.53,4.53,0,0,1-1.2,3.55,5.28,5.28,0,0,1-1.78.95,6.87,6.87,0,0,1-2.12.35,6.56,6.56,0,0,1-4.08-1.28,4,4,0,0,1-1.67-3.32,4.43,4.43,0,0,1,1.45-3.4,4.35,4.35,0,0,1,1.77-1,7.22,7.22,0,0,1,2.18-.37A6.18,6.18,0,0,1,1274.13,1463.16Zm-1.7,3.4a1.78,1.78,0,0,0-.55-1.4,1.91,1.91,0,0,0-1.35-.5,2.87,2.87,0,0,0-1.85.52,1.86,1.86,0,0,0-.65,1.53,1.42,1.42,0,0,0,.7,1.32,3.27,3.27,0,0,0,1.75.43A1.7,1.7,0,0,0,1272.43,1466.56Z" transform="translate(-975.06 -1389.56)"/><path class="cls-2" d="M1283.55,1478.73a5,5,0,0,0-1.47.58,12.92,12.92,0,0,0-1.25.75,8.51,8.51,0,0,1-.95.57,1.94,1.94,0,0,1-.85.23,1.84,1.84,0,0,1-1.2-.53,1.68,1.68,0,0,1-.6-1.32,3.39,3.39,0,0,1,1.35-2.58,10,10,0,0,1,3.25-1.85,10.13,10.13,0,0,1,3.35-.67c3.16,0,5.47,1,6.92,3a14.25,14.25,0,0,1,2.33,8c.13,4.06.2,7.2.2,9.4a3.39,3.39,0,0,1-.7,2.32,2.9,2.9,0,0,1-2.25.78,2.11,2.11,0,0,1-1.6-.7,2.26,2.26,0,0,1-.65-1.6q0-2.51.15-4.8c.06-2,.1-3.57.1-4.7q0-7-4.65-7.05A8.45,8.45,0,0,0,1283.55,1478.73Z" transform="translate(-975.06 -1389.56)"/><path class="cls-2" d="M1318.58,1496.58a3.38,3.38,0,0,1-.55-2.22v-3.3c0-2.2-.08-4.1-.23-5.68a11,11,0,0,0-1-3.87,5.91,5.91,0,0,0-2.13-2.45,5.81,5.81,0,0,0-3.27-.9,7.21,7.21,0,0,0-4,1.22,4.9,4.9,0,0,0-2.27,2.83,19.84,19.84,0,0,1,2.35.8,24.06,24.06,0,0,1,2.4,1.2,1.05,1.05,0,0,1,.55.55,2.78,2.78,0,0,1,.15,1,1.43,1.43,0,0,1-.35.92,2.07,2.07,0,0,1-.9.63l-.73.3a3.2,3.2,0,0,0-1.15.8,3.28,3.28,0,0,0-.77,1.3,7.72,7.72,0,0,0-.48,2.1c0,.66-.07,1.61-.07,2.85,0,1.63-.89,2.45-2.65,2.45a2.79,2.79,0,0,1-1.8-.6,1.69,1.69,0,0,1-.75-1.3,18.39,18.39,0,0,1,.85-5.85,6.6,6.6,0,0,1,3.65-3.85,22.19,22.19,0,0,0-2.75-1l-.83-.3c-.28-.1-.54-.2-.77-.3a2.26,2.26,0,0,1-.83-.7,1.43,1.43,0,0,1-.32-.75,4.72,4.72,0,0,1,.8-2.45,12.88,12.88,0,0,1,11.2-6.1q5.85,0,8.4,4.4a19.27,19.27,0,0,1,2.2,7.35,85.75,85.75,0,0,1,.35,8.6,3.39,3.39,0,0,1-.63,2.15,2.79,2.79,0,0,1-3.72.17Z" transform="translate(-975.06 -1389.56)"/><path class="cls-2" d="M1321.3,1467.33a5.93,5.93,0,0,1,.6.8,1.6,1.6,0,0,1,.23.83,2.54,2.54,0,0,1-.4,1.45,1.3,1.3,0,0,1-1.15.6,18.82,18.82,0,0,1-3.35-.5,40.63,40.63,0,0,0-6.3-.8q-2.55,0-6.8.4c-.4,0-.74.06-1,.1a7.07,7.07,0,0,1-.72,0c-.9,0-1.35-.69-1.35-2a4.87,4.87,0,0,1,1.32-2.38,12.81,12.81,0,0,1,3.75-2.95,11.5,11.5,0,0,1,5.58-1.32,9.38,9.38,0,0,1,5.6,1.52,14.08,14.08,0,0,1,3.45,3.53A6.26,6.26,0,0,0,1321.3,1467.33Zm-13.17-1.95a6.7,6.7,0,0,0-2.3,1.83,35.81,35.81,0,0,1,5.1-.35,47.81,47.81,0,0,1,6.2,1,10.34,10.34,0,0,0-2.63-2.48,5.73,5.73,0,0,0-3-.72A7.37,7.37,0,0,0,1308.13,1465.38Z" transform="translate(-975.06 -1389.56)"/><path class="cls-2" d="M1355.1,1487.61a5.13,5.13,0,0,1,1.83,4.2,4.8,4.8,0,0,1-.68,2.35,5.94,5.94,0,0,1-1.75,2,3.73,3.73,0,0,1-2.22.78c-2,0-3.49-.45-4.38-1.35a8,8,0,0,1-1.72-4.65,16.9,16.9,0,0,0-2.58,1.55,22.62,22.62,0,0,0-2.47,2.2,9.53,9.53,0,0,1-2,1.67,5.54,5.54,0,0,1-2.52.58,3,3,0,0,1-2.1-.83,2.25,2.25,0,0,1-.9-1.57,17.73,17.73,0,0,1,.15-2c.26-3.44.45-6,.55-7.55a8.92,8.92,0,0,1-1,.27,7.27,7.27,0,0,1-1.6.18,4.41,4.41,0,0,1-3.5-1.73,5.84,5.84,0,0,1-1.45-3.87,4.58,4.58,0,0,1,1-2.83,6.58,6.58,0,0,1,2.47-2,7.15,7.15,0,0,1,3.08-.72,5.31,5.31,0,0,1,4.27,1.67,6.78,6.78,0,0,1,1.43,4.53c0,1.76-.08,3.8-.23,6.1s-.29,4-.42,5.15a21.37,21.37,0,0,1,7.8-4.85q-.3-3.21-.3-9.1a4.57,4.57,0,0,1,.77-2.93,3,3,0,0,1,2.38-.92,1.74,1.74,0,0,1,1.55.65,2.56,2.56,0,0,1,.45,1.5c0,1.46-.05,3-.15,4.45,0,.46,0,1.3-.08,2.5s-.06,2.25,0,3.15A6.8,6.8,0,0,1,1355.1,1487.61Zm-20.72-9.63a2.77,2.77,0,0,0-1.6-.57,2.66,2.66,0,0,0-1.75.65,2,2,0,0,0-.8,1.65,3.14,3.14,0,0,0,.57,1.72,1.68,1.68,0,0,0,1.43.88,3.19,3.19,0,0,0,2.17-.68,2.29,2.29,0,0,0,.78-1.82A2.11,2.11,0,0,0,1334.38,1478Zm18.62,15.35a1.48,1.48,0,0,0,.53-1.22,3.86,3.86,0,0,0-.43-1.95,1.75,1.75,0,0,0-1.67-.75,4,4,0,0,0-1.65.35,6.33,6.33,0,0,0-.1,1.1,4.22,4.22,0,0,0,.47,2.05,1.64,1.64,0,0,0,1.53.85A2,2,0,0,0,1353,1493.33Z" transform="translate(-975.06 -1389.56)"/><rect class="cls-2" x="0.94" y="154.44" width="528" height="3"/></svg>