<svg id="เงา1" xmlns="http://www.w3.org/2000/svg" viewBox="0 0 480 469.85"><defs><style>.cls-1{opacity:0.62;}</style></defs><title>42</title><g class="cls-1"><polygon points="167.93 0.86 167.93 0.86 167.93 0.86 167.93 0.86"/><polygon points="479.96 227.05 479.96 227.05 479.96 227.05 479.96 227.05"/><path d="M462.93,1377c.94-.3,1.89-.58,2.84-.87C464.82,1376.44,463.87,1376.72,462.93,1377Z" transform="translate(-295 -1376.15)"/><path d="M775,1603.2c-.27-5.35-.57-8.43-.57-8.43l-233.9.23-73-217.94c-1.52-.06-3.05-.07-4.58,0C365.6,1407.62,295,1498.56,295,1606c0,132.55,107.45,240,240,240s240-107.45,240-240C775,1605.07,775,1604.14,775,1603.2Z" transform="translate(-295 -1376.15)"/><path d="M774.06,1585q.78,9,.9,18.17-.11-9.17-.9-18.17Z" transform="translate(-295 -1376.15)"/></g></svg>