<svg id="เงา2" xmlns="http://www.w3.org/2000/svg" viewBox="0 0 480.12 474.06"><defs><style>.cls-1{opacity:0.62;}</style></defs><title>44</title><g class="cls-1"><polygon points="480.12 241.6 480.12 241.6 480.12 241.6 480.12 241.6"/><polygon points="169.22 469.35 169.22 469.35 169.22 469.35 169.22 469.35"/><path d="M772.88,1590.17c0,1,0,2,0,3C772.86,1592.15,772.88,1591.16,772.88,1590.17Z" transform="translate(-292.77 -1348.57)"/><path d="M462,1817.92c5.18,1.38,4,2.08,4,2.08l75-225,230.44-.49c.52-1.42,1-2.87,1.44-4.34.69-102-64.26-197.09-166.53-230-126.17-40.6-261.38,28.77-302,154.94s28.77,261.38,154.94,302C460.2,1817.38,461.1,1817.64,462,1817.92Z" transform="translate(-292.77 -1348.57)"/><path d="M479.56,1822.62q-8.81-2-17.57-4.7,8.76,2.7,17.57,4.7Z" transform="translate(-292.77 -1348.57)"/></g></svg>