<svg id="T3" xmlns="http://www.w3.org/2000/svg" viewBox="0 0 670.17 322.79"><defs><style>.cls-1{fill:#fff;}.cls-2{font-size:50px;font-family:Itim-Regular, Itim;}.cls-2,.cls-3{fill:#fff7dd;}</style></defs><title>45</title><path class="cls-1" d="M985.55,1601.47a3.53,3.53,0,0,0,1.05-2.84v-13.55h2.22v13.39a5.46,5.46,0,0,1-1.65,4.32,8.46,8.46,0,0,1-9.5,0,5.46,5.46,0,0,1-1.65-4.32v-9.07h2.21v9.23a3.51,3.51,0,0,0,1.06,2.84,5.95,5.95,0,0,0,6.26,0Z" transform="translate(-974.83 -1390.66)"/><path class="cls-1" d="M993.62,1591.72v-1.83a13.69,13.69,0,0,1,2.38-.56,18.87,18.87,0,0,1,2.7-.2,6.58,6.58,0,0,1,4.49,1.28,5.22,5.22,0,0,1,1.42,4.07v9.5h-2.21v-6.7h-4.65a4.69,4.69,0,0,0-2.71.62,2.31,2.31,0,0,0-.85,2,2.21,2.21,0,0,0,.77,1.91,4.48,4.48,0,0,0,2.52.55,6.72,6.72,0,0,0,1.84-.22V1604a9.7,9.7,0,0,1-2.43.27,5.47,5.47,0,0,1-3.54-1.07,4,4,0,0,1-1.32-3.28,4.07,4.07,0,0,1,1.4-3.28,6.42,6.42,0,0,1,4.19-1.17h4.78v-1.14a4.25,4.25,0,0,0-.38-2,2.2,2.2,0,0,0-1.26-1,7.61,7.61,0,0,0-2.47-.31A14.8,14.8,0,0,0,993.62,1591.72Z" transform="translate(-974.83 -1390.66)"/><path class="cls-1" d="M1004.58,1605.68v3a2,2,0,0,1-.78,1.65,3.2,3.2,0,0,1-2.1.65,3,3,0,0,1-2-.67,2,2,0,0,1-.77-1.63v-1.51h-1.43l.08-1.46h3v2.84a.85.85,0,0,0,.3.7,1.67,1.67,0,0,0,1.76,0,.84.84,0,0,0,.32-.68v-2.84Z" transform="translate(-974.83 -1390.66)"/><path class="cls-1" d="M1011.39,1596.42a2.59,2.59,0,0,0-.49,1.7V1604h-2.21v-5.91a3.68,3.68,0,0,1,.52-2,2.82,2.82,0,0,1,1.67-1.14l-3.06-.7v-2.6a9.09,9.09,0,0,1,2.88-1.78,10.3,10.3,0,0,1,3.9-.7,7.26,7.26,0,0,1,4.81,1.36,5.24,5.24,0,0,1,1.59,4.2V1604h-2.21v-9.37a3.49,3.49,0,0,0-.95-2.79,5.09,5.09,0,0,0-3.24-.8,9.16,9.16,0,0,0-2.82.42,4.93,4.93,0,0,0-2,1.12v.57l3.16.75v1.68A2.76,2.76,0,0,0,1011.39,1596.42Z" transform="translate(-974.83 -1390.66)"/><path class="cls-1" d="M1025.83,1588.86a4.79,4.79,0,0,1,1.73-1.84H1023v-1.78h7.29V1587a4.23,4.23,0,0,0-2.24,1.91,7.7,7.7,0,0,0-.62,3.46v8.48a1.39,1.39,0,0,0,.31,1,1.27,1.27,0,0,0,1,.32h1.54V1604h-2.53a2.36,2.36,0,0,1-1.83-.72,2.64,2.64,0,0,1-.66-1.87v-9.75A5.85,5.85,0,0,1,1025.83,1588.86Z" transform="translate(-974.83 -1390.66)"/><path class="cls-1" d="M1043.75,1602.9a4.78,4.78,0,0,1-3.63,1.35,7.71,7.71,0,0,1-2.93-.51,8.23,8.23,0,0,1-2.37-1.52l-.13,1.76h-2V1589.4h2.21v11a7.09,7.09,0,0,0,2,1.46,5.64,5.64,0,0,0,2.46.54,3.64,3.64,0,0,0,2.6-.8,3.46,3.46,0,0,0,.83-2.58v-9.58H1045V1599A5.46,5.46,0,0,1,1043.75,1602.9Z" transform="translate(-974.83 -1390.66)"/><path class="cls-1" d="M1040.9,1585.35h5.91l-.11,1.59h-7.39v-2.54h-2.14v-1.59h3.73Z" transform="translate(-974.83 -1390.66)"/><path class="cls-1" d="M1049.48,1590.16a2.41,2.41,0,0,1,1.87-.76h2.32l.08,1.84h-1.43a1.38,1.38,0,0,0-1,.32,1.57,1.57,0,0,0-.31,1.11v8.23l4.08-7.05h1l4.08,7.05v-11.5h2.16V1604h-2.27l-4.48-7.86-4.54,7.86h-2.27v-11.91A2.72,2.72,0,0,1,1049.48,1590.16Z" transform="translate(-974.83 -1390.66)"/><path class="cls-1" d="M1067.14,1591.72v-1.83a13.69,13.69,0,0,1,2.38-.56,18.87,18.87,0,0,1,2.7-.2,6.58,6.58,0,0,1,4.49,1.28,5.22,5.22,0,0,1,1.42,4.07v9.5h-2.21v-6.7h-4.65a4.69,4.69,0,0,0-2.71.62,2.31,2.31,0,0,0-.85,2,2.21,2.21,0,0,0,.77,1.91,4.48,4.48,0,0,0,2.52.55,6.68,6.68,0,0,0,1.84-.22V1604a9.64,9.64,0,0,1-2.43.27,5.47,5.47,0,0,1-3.54-1.07,4,4,0,0,1-1.32-3.28,4.07,4.07,0,0,1,1.4-3.28,6.42,6.42,0,0,1,4.19-1.17h4.78v-1.14a4.25,4.25,0,0,0-.38-2,2.2,2.2,0,0,0-1.26-1,7.57,7.57,0,0,0-2.47-.31A14.8,14.8,0,0,0,1067.14,1591.72Z" transform="translate(-974.83 -1390.66)"/><path class="cls-1" d="M1093.22,1588.86A4.79,4.79,0,0,1,1095,1587h-4.56v-1.78h7.29V1587a4.23,4.23,0,0,0-2.24,1.91,7.7,7.7,0,0,0-.62,3.46v8.48a1.39,1.39,0,0,0,.31,1,1.28,1.28,0,0,0,1,.32h1.54V1604h-2.54a2.34,2.34,0,0,1-1.82-.72,2.6,2.6,0,0,1-.67-1.87v-9.75A5.85,5.85,0,0,1,1093.22,1588.86Z" transform="translate(-974.83 -1390.66)"/><path class="cls-1" d="M1111.14,1602.9a4.78,4.78,0,0,1-3.63,1.35,7.75,7.75,0,0,1-2.93-.51,8.05,8.05,0,0,1-2.36-1.52l-.14,1.76h-2V1589.4h2.22v11a7,7,0,0,0,2,1.46,5.67,5.67,0,0,0,2.46.54,3.63,3.63,0,0,0,2.6-.8,3.46,3.46,0,0,0,.83-2.58v-9.58h2.21V1599A5.46,5.46,0,0,1,1111.14,1602.9Z" transform="translate(-974.83 -1390.66)"/><path class="cls-1" d="M1108.29,1585.35h5.91l-.1,1.59h-7.4v-2.54h-2.14v-1.59h3.73Z" transform="translate(-974.83 -1390.66)"/><path class="cls-1" d="M1117.93,1593.21a2,2,0,0,0,.76,1.72,3.35,3.35,0,0,0,2.07.57h1.54l.14,1.68h-1.76a3,3,0,0,0-2.13.67,2.6,2.6,0,0,0-.7,2,2.1,2.1,0,0,0,1,1.92,6.19,6.19,0,0,0,3.12.62,5,5,0,0,0,3.13-.81,3.06,3.06,0,0,0,1-2.54v-9.61h2.21v9.23a5.4,5.4,0,0,1-1.54,4.2,6.8,6.8,0,0,1-4.75,1.42,8.62,8.62,0,0,1-4.73-1.11,3.7,3.7,0,0,1-1.7-3.32,3.82,3.82,0,0,1,.58-2.12,3.68,3.68,0,0,1,1.64-1.33,2.88,2.88,0,0,1-1.55-1.11,3.43,3.43,0,0,1-.58-2,3.83,3.83,0,0,1,1.18-3,4.58,4.58,0,0,1,3.14-1,7.45,7.45,0,0,1,2.24.3v1.83a6,6,0,0,0-1.84-.24C1118.77,1591,1117.93,1591.75,1117.93,1593.21Z" transform="translate(-974.83 -1390.66)"/><path class="cls-1" d="M1123.22,1583.05h1.68v2.3h1.72v-2.3h1.68v3.89h-10.72l.11-1.59h5.53Z" transform="translate(-974.83 -1390.66)"/><path class="cls-1" d="M1134.32,1589.4V1599a2.9,2.9,0,0,0,3.37,3.38,5.88,5.88,0,0,0,2.5-.54,6.62,6.62,0,0,0,2-1.46v-11h2.21V1604h-2l-.14-1.76a7.71,7.71,0,0,1-5.35,2,4.68,4.68,0,0,1-3.6-1.35,5.5,5.5,0,0,1-1.26-3.89v-9.61Z" transform="translate(-974.83 -1390.66)"/><path class="cls-1" d="M1159.06,1591.45a1.54,1.54,0,0,0-1.28-.43,1.91,1.91,0,0,0-1.92,1.27h-1.48a3.06,3.06,0,0,0-.81-1,1.9,1.9,0,0,0-1.11-.28,2,2,0,0,0-2,1.47,12.61,12.61,0,0,0-.57,4.33,7.06,7.06,0,0,0,1,4.27,3.55,3.55,0,0,0,3,1.27,6,6,0,0,0,1.86-.22V1604a7.83,7.83,0,0,1-2.24.27,5.32,5.32,0,0,1-4.24-1.85q-1.59-1.85-1.59-5.58a11.36,11.36,0,0,1,1.17-5.69,3.95,3.95,0,0,1,5.06-1.65,3.79,3.79,0,0,1,1.25,1.08,4,4,0,0,1,1.47-1,4.5,4.5,0,0,1,1.79-.38,3,3,0,0,1,2.39.93,3.94,3.94,0,0,1,.83,2.69V1604h-2.22V1593A2.67,2.67,0,0,0,1159.06,1591.45Z" transform="translate(-974.83 -1390.66)"/><path class="cls-1" d="M1157.48,1585.35h5.92l-.11,1.59h-7.4v-2.54h-2.13v-1.59h3.72Z" transform="translate(-974.83 -1390.66)"/><path class="cls-1" d="M1167.58,1589.4V1599a2.9,2.9,0,0,0,3.38,3.38,6,6,0,0,0,2.5-.54,6.46,6.46,0,0,0,2-1.46v-11h2.22V1604h-2l-.14-1.76a7.69,7.69,0,0,1-5.34,2,4.69,4.69,0,0,1-3.61-1.35,5.54,5.54,0,0,1-1.25-3.89v-9.61Z" transform="translate(-974.83 -1390.66)"/><path class="cls-1" d="M1192.8,1588.86a4.71,4.71,0,0,1,1.73-1.84H1190v-1.78h7.29V1587a4.31,4.31,0,0,0-2.24,1.91,7.84,7.84,0,0,0-.62,3.46v8.48a1.44,1.44,0,0,0,.31,1,1.31,1.31,0,0,0,1,.32h1.54V1604h-2.54a2.35,2.35,0,0,1-1.82-.72,2.64,2.64,0,0,1-.66-1.87v-9.75A5.85,5.85,0,0,1,1192.8,1588.86Z" transform="translate(-974.83 -1390.66)"/><path class="cls-1" d="M1210.71,1602.9a4.75,4.75,0,0,1-3.63,1.35,7.78,7.78,0,0,1-2.93-.51,8.32,8.32,0,0,1-2.36-1.52l-.13,1.76h-2V1589.4h2.21v11a7.09,7.09,0,0,0,2,1.46,5.6,5.6,0,0,0,2.45.54,3.66,3.66,0,0,0,2.61-.8,3.46,3.46,0,0,0,.82-2.58v-9.58H1212V1599A5.42,5.42,0,0,1,1210.71,1602.9Z" transform="translate(-974.83 -1390.66)"/><path class="cls-1" d="M1207.87,1585.35h5.91l-.11,1.59h-7.4v-2.54h-2.13v-1.59h3.73Z" transform="translate(-974.83 -1390.66)"/><path class="cls-1" d="M1216,1592.29a9.65,9.65,0,0,1,1.61-1.92,9,9,0,0,0,.94-1.07,1.5,1.5,0,0,0,.3-.9,1.22,1.22,0,0,0-.47-1.11,3,3,0,0,0-1.5-.29,6.24,6.24,0,0,0-3,.83v-1.72a6.76,6.76,0,0,1,1.76-.71,7.87,7.87,0,0,1,1.91-.24,3.86,3.86,0,0,1,2.66.81,2.91,2.91,0,0,1,.91,2.27,2.71,2.71,0,0,1-.39,1.48,10,10,0,0,1-1.21,1.41,8.48,8.48,0,0,0-1.4,1.63,3.71,3.71,0,0,0-.49,2v6.1a1.44,1.44,0,0,0,.31,1,1.31,1.31,0,0,0,1,.32h1.54V1604h-2.54a2.35,2.35,0,0,1-1.82-.72,2.64,2.64,0,0,1-.66-1.87v-6.67A4.55,4.55,0,0,1,1216,1592.29Z" transform="translate(-974.83 -1390.66)"/><path class="cls-1" d="M1233.56,1602.87a7.74,7.74,0,0,1-8.78,0,5,5,0,0,1-1.52-3.92v-2a3.11,3.11,0,0,1,.39-1.5,16.64,16.64,0,0,1,1.12-1.71c.36-.52.62-.92.78-1.19a1.53,1.53,0,0,0,.24-.78.69.69,0,0,0-.18-.57,1.32,1.32,0,0,0-.71-.13H1223l.19-1.73h3a1.63,1.63,0,0,1,1.86,1.84,3.36,3.36,0,0,1-.34,1.52,11.46,11.46,0,0,1-1,1.63,12.31,12.31,0,0,0-.91,1.46,2.72,2.72,0,0,0-.28,1.24v2.14q0,3.13,3.7,3.13t3.75-3.19v-1.86a3.26,3.26,0,0,0-.48-2,2.28,2.28,0,0,0-1.79-.57h-.75l.11-1.75h.59a2.27,2.27,0,0,0,1.82-.61,3.16,3.16,0,0,0,.5-2v-1.19h2.22v1.16a5.11,5.11,0,0,1-.42,2.27,2.62,2.62,0,0,1-1.58,1.24,2.76,2.76,0,0,1,1.61,1.28,5.6,5.6,0,0,1,.39,2.28v1.6A4.92,4.92,0,0,1,1233.56,1602.87Z" transform="translate(-974.83 -1390.66)"/><path class="cls-1" d="M1231,1585.35h5.92l-.11,1.59h-7.4v-2.54h-2.13v-1.59H1231Z" transform="translate(-974.83 -1390.66)"/><path class="cls-1" d="M1250.93,1594.48v9.5h-2.21v-6.7h-4.65a4.69,4.69,0,0,0-2.71.62,2.31,2.31,0,0,0-.85,2,2.21,2.21,0,0,0,.77,1.91,4.48,4.48,0,0,0,2.52.55,6.72,6.72,0,0,0,1.84-.22V1604a9.64,9.64,0,0,1-2.43.27,5.47,5.47,0,0,1-3.54-1.07,4,4,0,0,1-1.32-3.28,4.07,4.07,0,0,1,1.4-3.28,6.42,6.42,0,0,1,4.19-1.17h4.78v-1.14a4.25,4.25,0,0,0-.38-2,2.2,2.2,0,0,0-1.26-1,7.61,7.61,0,0,0-2.47-.31,14.8,14.8,0,0,0-4.67.7v-1.83a13.69,13.69,0,0,1,2.38-.56,18.87,18.87,0,0,1,2.7-.2,11.42,11.42,0,0,1,2.48.27h4.65l-.11,1.81h-2A5.41,5.41,0,0,1,1250.93,1594.48Z" transform="translate(-974.83 -1390.66)"/><path class="cls-1" d="M1254.5,1591.72v-1.83a14,14,0,0,1,2.44-.56,20.56,20.56,0,0,1,2.85-.2c2.44,0,4.23.62,5.34,1.86s1.68,3.15,1.68,5.73-.56,4.4-1.68,5.65-2.87,1.88-5.26,1.88a15.92,15.92,0,0,1-3-.28,12.48,12.48,0,0,1-2.55-.75v-7.34h5.35l.1,1.81h-3.24v4.13a10.14,10.14,0,0,0,3.32.54,6.08,6.08,0,0,0,2.81-.54,3.16,3.16,0,0,0,1.5-1.77,9.42,9.42,0,0,0,.47-3.33,9.19,9.19,0,0,0-.51-3.42,3.2,3.2,0,0,0-1.66-1.75,7.88,7.88,0,0,0-3.2-.53A15,15,0,0,0,1254.5,1591.72Z" transform="translate(-974.83 -1390.66)"/><path class="cls-1" d="M1271.78,1593.21a2,2,0,0,0,.75,1.72,3.4,3.4,0,0,0,2.08.57h1.54l.13,1.68h-1.75a3,3,0,0,0-2.13.67,2.61,2.61,0,0,0-.71,2,2.09,2.09,0,0,0,1,1.92,6.14,6.14,0,0,0,3.12.62,5,5,0,0,0,3.13-.81,3.05,3.05,0,0,0,1-2.54v-9.61h2.22v9.23a5.44,5.44,0,0,1-1.54,4.2,6.81,6.81,0,0,1-4.75,1.42,8.62,8.62,0,0,1-4.73-1.11,3.7,3.7,0,0,1-1.7-3.32,3.74,3.74,0,0,1,.58-2.12,3.65,3.65,0,0,1,1.63-1.33,3,3,0,0,1-1.55-1.11,3.43,3.43,0,0,1-.58-2,3.84,3.84,0,0,1,1.19-3,4.54,4.54,0,0,1,3.13-1,7.41,7.41,0,0,1,2.24.3v1.83a5.93,5.93,0,0,0-1.83-.24C1272.61,1591,1271.78,1591.75,1271.78,1593.21Z" transform="translate(-974.83 -1390.66)"/><path class="cls-1" d="M1297.29,1588.86A4.71,4.71,0,0,1,1299,1587h-4.56v-1.78h7.29V1587a4.29,4.29,0,0,0-2.25,1.91,7.84,7.84,0,0,0-.62,3.46v8.48a1.44,1.44,0,0,0,.31,1,1.31,1.31,0,0,0,1,.32h1.54V1604h-2.54a2.35,2.35,0,0,1-1.82-.72,2.64,2.64,0,0,1-.66-1.87v-9.75A5.85,5.85,0,0,1,1297.29,1588.86Z" transform="translate(-974.83 -1390.66)"/><path class="cls-1" d="M1315.2,1602.9a4.75,4.75,0,0,1-3.63,1.35,7.78,7.78,0,0,1-2.93-.51,8.32,8.32,0,0,1-2.36-1.52l-.13,1.76h-2V1589.4h2.21v11a7.09,7.09,0,0,0,2,1.46,5.6,5.6,0,0,0,2.45.54,3.66,3.66,0,0,0,2.61-.8,3.46,3.46,0,0,0,.82-2.58v-9.58h2.22V1599A5.42,5.42,0,0,1,1315.2,1602.9Z" transform="translate(-974.83 -1390.66)"/><path class="cls-1" d="M1312.36,1585.35h5.91l-.11,1.59h-7.4v-2.54h-2.13v-1.59h3.73Z" transform="translate(-974.83 -1390.66)"/><path class="cls-1" d="M1330.37,1604v-9.61a3.38,3.38,0,0,0-.84-2.55,3.65,3.65,0,0,0-2.59-.8,5.61,5.61,0,0,0-2.46.54,7,7,0,0,0-2,1.48V1604h-2.21V1589.4h2l.13,1.75a8.14,8.14,0,0,1,2.38-1.49,7.64,7.64,0,0,1,3-.53,4.69,4.69,0,0,1,3.59,1.35,5.41,5.41,0,0,1,1.27,3.86V1604Z" transform="translate(-974.83 -1390.66)"/><path class="cls-1" d="M1329.41,1582.83a2.75,2.75,0,0,1,2-.8,2.71,2.71,0,0,1,2,.8,2.63,2.63,0,0,1,.81,2,2.6,2.6,0,0,1-.81,2,2.78,2.78,0,0,1-2,.78,2.82,2.82,0,0,1-2-.78,2.58,2.58,0,0,1-.83-2A2.61,2.61,0,0,1,1329.41,1582.83Zm1,2.88a1.28,1.28,0,0,0,1,.4,1.24,1.24,0,0,0,.93-.4,1.27,1.27,0,0,0,.39-.93,1.31,1.31,0,0,0-.39-.94,1.25,1.25,0,0,0-.93-.41,1.28,1.28,0,0,0-1,.41,1.31,1.31,0,0,0-.39.94A1.27,1.27,0,0,0,1330.46,1585.71Z" transform="translate(-974.83 -1390.66)"/><path class="cls-1" d="M1342.19,1594.56a6.21,6.21,0,0,0-.26-2.06,1.94,1.94,0,0,0-1-1.1,5.14,5.14,0,0,0-2.23-.38,10,10,0,0,0-1.88.19,10.59,10.59,0,0,0-1.85.51v-1.83a12.44,12.44,0,0,1,4.13-.76,5.61,5.61,0,0,1,4,1.23,5.33,5.33,0,0,1,1.25,4V1604h-2.21Z" transform="translate(-974.83 -1390.66)"/><path class="cls-1" d="M1350.37,1589.4v11.45a1.44,1.44,0,0,0,.31,1,1.31,1.31,0,0,0,1,.32h1.54V1604h-2.54a2.35,2.35,0,0,1-1.82-.72,2.64,2.64,0,0,1-.66-1.87v-12Z" transform="translate(-974.83 -1390.66)"/><path class="cls-1" d="M1366.45,1602.87a7.74,7.74,0,0,1-8.78,0,5,5,0,0,1-1.52-3.92v-2a3.11,3.11,0,0,1,.39-1.5,18.51,18.51,0,0,1,1.12-1.71c.36-.52.62-.92.78-1.19a1.46,1.46,0,0,0,.25-.78.69.69,0,0,0-.19-.57,1.3,1.3,0,0,0-.7-.13h-2l.19-1.73h3a1.63,1.63,0,0,1,1.86,1.84,3.36,3.36,0,0,1-.34,1.52,11.46,11.46,0,0,1-1,1.63,13.43,13.43,0,0,0-.9,1.46,2.73,2.73,0,0,0-.29,1.24v2.14c0,2.09,1.24,3.13,3.7,3.13s3.76-1.06,3.76-3.19v-1.86a3.25,3.25,0,0,0-.49-2,2.26,2.26,0,0,0-1.78-.57h-.76l.11-1.75h.59a2.3,2.3,0,0,0,1.83-.61,3.22,3.22,0,0,0,.5-2v-1.19H1368v1.16a5.11,5.11,0,0,1-.42,2.27,2.59,2.59,0,0,1-1.58,1.24,2.73,2.73,0,0,1,1.61,1.28,5.44,5.44,0,0,1,.39,2.28v1.6A4.92,4.92,0,0,1,1366.45,1602.87Z" transform="translate(-974.83 -1390.66)"/><path class="cls-1" d="M1362.9,1583.05h1.67v2.3h1.73v-2.3H1368v3.89h-10.72l.11-1.59h5.53Z" transform="translate(-974.83 -1390.66)"/><path class="cls-1" d="M1365.9,1580H1370l-.08,1.51h-5.59v-2.13h-1.65v-1.49h3.19Z" transform="translate(-974.83 -1390.66)"/><path class="cls-1" d="M1371.46,1591.72v-1.83a14,14,0,0,1,2.44-.56,20.56,20.56,0,0,1,2.85-.2q3.68,0,5.35,1.86t1.67,5.73q0,3.78-1.67,5.65c-1.12,1.25-2.87,1.88-5.27,1.88a16.07,16.07,0,0,1-3-.28,12.48,12.48,0,0,1-2.55-.75v-7.34h5.35l.11,1.81h-3.24v4.13a10.09,10.09,0,0,0,3.32.54,6.1,6.1,0,0,0,2.81-.54,3.18,3.18,0,0,0,1.49-1.77,9.39,9.39,0,0,0,.48-3.33,9,9,0,0,0-.52-3.42,3.17,3.17,0,0,0-1.66-1.75,7.84,7.84,0,0,0-3.2-.53A15,15,0,0,0,1371.46,1591.72Z" transform="translate(-974.83 -1390.66)"/><path class="cls-1" d="M1389.2,1589.4v11.45a1.39,1.39,0,0,0,.31,1,1.29,1.29,0,0,0,1,.32H1392V1604h-2.54a2.34,2.34,0,0,1-1.82-.72,2.6,2.6,0,0,1-.67-1.87v-12Z" transform="translate(-974.83 -1390.66)"/><path class="cls-1" d="M1399.94,1604h-2.18l-3.35-14.58h2.27l2.4,11.47,3.08-9.63v-1.84h1.64l3.3,11.47,2.37-11.47h2.25l-3.33,14.58h-2.21l-3-10.26Z" transform="translate(-974.83 -1390.66)"/><path class="cls-1" d="M1415.71,1591.72v-1.83a13.69,13.69,0,0,1,2.38-.56,18.87,18.87,0,0,1,2.7-.2,6.58,6.58,0,0,1,4.49,1.28,5.22,5.22,0,0,1,1.42,4.07v9.5h-2.21v-6.7h-4.65a4.69,4.69,0,0,0-2.71.62,2.31,2.31,0,0,0-.85,2,2.21,2.21,0,0,0,.77,1.91,4.48,4.48,0,0,0,2.52.55,6.72,6.72,0,0,0,1.84-.22V1604a9.7,9.7,0,0,1-2.43.27,5.47,5.47,0,0,1-3.54-1.07,4,4,0,0,1-1.32-3.28,4.07,4.07,0,0,1,1.4-3.28,6.42,6.42,0,0,1,4.19-1.17h4.78v-1.14a4.25,4.25,0,0,0-.38-2,2.2,2.2,0,0,0-1.26-1,7.61,7.61,0,0,0-2.47-.31A14.8,14.8,0,0,0,1415.71,1591.72Z" transform="translate(-974.83 -1390.66)"/><path class="cls-1" d="M1415.93,1586.94l.11-1.59h10.61v1.59Z" transform="translate(-974.83 -1390.66)"/><path class="cls-1" d="M1435.77,1589.4H1437a5.47,5.47,0,0,1,4.43,1.65q1.38,1.64,1.38,5.13,0,4.1-1.75,6.08a5.83,5.83,0,0,1-4.63,2,7,7,0,0,1-2.37-.3l-4.11-10h2.16l3.46,8.4.54,0a3.89,3.89,0,0,0,3.39-1.53,8,8,0,0,0,1.09-4.66,10.23,10.23,0,0,0-.35-3,2.52,2.52,0,0,0-1.17-1.52,4.75,4.75,0,0,0-2.31-.46h-1Z" transform="translate(-974.83 -1390.66)"/><path class="cls-1" d="M1457.32,1588.86a4.71,4.71,0,0,1,1.73-1.84h-4.57v-1.78h7.29V1587a4.27,4.27,0,0,0-2.24,1.91,7.84,7.84,0,0,0-.62,3.46v8.48a1.39,1.39,0,0,0,.31,1,1.31,1.31,0,0,0,1,.32h1.54V1604h-2.54a2.35,2.35,0,0,1-1.82-.72,2.64,2.64,0,0,1-.66-1.87v-9.75A5.74,5.74,0,0,1,1457.32,1588.86Z" transform="translate(-974.83 -1390.66)"/><path class="cls-1" d="M1475.23,1602.9a4.75,4.75,0,0,1-3.63,1.35,7.78,7.78,0,0,1-2.93-.51,8.18,8.18,0,0,1-2.36-1.52l-.14,1.76h-2V1589.4h2.21v11a7,7,0,0,0,2,1.46,5.6,5.6,0,0,0,2.45.54,3.66,3.66,0,0,0,2.61-.8,3.46,3.46,0,0,0,.82-2.58v-9.58h2.22V1599A5.42,5.42,0,0,1,1475.23,1602.9Z" transform="translate(-974.83 -1390.66)"/><path class="cls-1" d="M1472.38,1585.35h5.92l-.11,1.59h-7.4v-2.54h-2.13v-1.59h3.72Z" transform="translate(-974.83 -1390.66)"/><path class="cls-1" d="M988.06,1630.88v9.5h-2.21v-6.7H981.2a4.69,4.69,0,0,0-2.71.62,2.31,2.31,0,0,0-.85,2,2.18,2.18,0,0,0,.77,1.91,4.4,4.4,0,0,0,2.52.55,6.72,6.72,0,0,0,1.84-.22v1.84a9.7,9.7,0,0,1-2.43.27,5.47,5.47,0,0,1-3.54-1.07,4,4,0,0,1-1.32-3.28,4.07,4.07,0,0,1,1.4-3.28,6.42,6.42,0,0,1,4.19-1.17h4.78v-1.14a4.25,4.25,0,0,0-.38-2,2.2,2.2,0,0,0-1.26-1,7.61,7.61,0,0,0-2.47-.31,14.8,14.8,0,0,0-4.67.7v-1.83a13.47,13.47,0,0,1,2.38-.56,18.87,18.87,0,0,1,2.7-.2,11.42,11.42,0,0,1,2.48.27h4.64l-.1,1.81h-1.95A5.43,5.43,0,0,1,988.06,1630.88Z" transform="translate(-974.83 -1390.66)"/><path class="cls-1" d="M999.76,1635.41a2.51,2.51,0,0,0-1-.73A17.29,17.29,0,0,0,997,1634l-1-.33a17,17,0,0,1-2.43-1,4.42,4.42,0,0,1-1.55-1.28,3.17,3.17,0,0,1-.61-2,3.36,3.36,0,0,1,1.43-2.93,7.31,7.31,0,0,1,4.21-1,13.9,13.9,0,0,1,2.3.19,12.83,12.83,0,0,1,2,.46v1.94a10.81,10.81,0,0,0-4-.7,7.21,7.21,0,0,0-2.87.42,1.58,1.58,0,0,0-.89,1.58,1.7,1.7,0,0,0,.47,1.23,3.51,3.51,0,0,0,1.22.75c.49.19,1.33.48,2.5.85a14.33,14.33,0,0,1,2.47,1,4.26,4.26,0,0,1,1.51,1.33,3.52,3.52,0,0,1,.55,2c0,2.68-1.92,4-5.78,4a17.59,17.59,0,0,1-2.65-.19,10.47,10.47,0,0,1-2.12-.51v-2a12,12,0,0,0,4.4.78,7.79,7.79,0,0,0,3-.42,1.66,1.66,0,0,0,.91-1.69A1.91,1.91,0,0,0,999.76,1635.41Z" transform="translate(-974.83 -1390.66)"/><path class="cls-1" d="M997.67,1621.75h5.91l-.1,1.59h-7.4v-2.54H994v-1.59h3.72Z" transform="translate(-974.83 -1390.66)"/><path class="cls-1" d="M1011.42,1631a6.42,6.42,0,0,0-.26-2,1.94,1.94,0,0,0-1-1.11,5.14,5.14,0,0,0-2.23-.38,9.88,9.88,0,0,0-1.87.19,11,11,0,0,0-1.85.51v-1.83a10.54,10.54,0,0,1,1.94-.54,11,11,0,0,1,2.19-.22,5.59,5.59,0,0,1,4,1.23,5.34,5.34,0,0,1,1.26,4v9.67h-2.21Z" transform="translate(-974.83 -1390.66)"/><path class="cls-1" d="M1022.7,1625.8h1.19a5.47,5.47,0,0,1,4.43,1.65q1.37,1.63,1.37,5.13,0,4.1-1.74,6.09a5.85,5.85,0,0,1-4.63,2,7,7,0,0,1-2.37-.3l-4.11-10H1019l3.46,8.4.54,0a3.89,3.89,0,0,0,3.39-1.53,8,8,0,0,0,1.09-4.66,10.23,10.23,0,0,0-.35-3,2.57,2.57,0,0,0-1.18-1.52,4.73,4.73,0,0,0-2.3-.46h-.95Z" transform="translate(-974.83 -1390.66)"/><path class="cls-1" d="M1042.44,1637.87a3.53,3.53,0,0,0,1-2.84v-9.23h2.22v9.07a5.46,5.46,0,0,1-1.65,4.32,8.47,8.47,0,0,1-9.51,0,5.48,5.48,0,0,1-1.64-4.32v-9.07h2.21V1635a3.53,3.53,0,0,0,1.05,2.84,6,6,0,0,0,6.27,0Z" transform="translate(-974.83 -1390.66)"/><path class="cls-1" d="M1041.57,1621.75h5.92l-.11,1.59H1040v-2.54h-2.13v-1.59h3.72Z" transform="translate(-974.83 -1390.66)"/><path class="cls-1" d="M1055.32,1631a6.42,6.42,0,0,0-.26-2,1.91,1.91,0,0,0-1-1.11,5.11,5.11,0,0,0-2.23-.38,9.88,9.88,0,0,0-1.87.19,11.27,11.27,0,0,0-1.85.51v-1.83a10.77,10.77,0,0,1,1.94-.54,11,11,0,0,1,2.19-.22,5.63,5.63,0,0,1,4,1.23,5.38,5.38,0,0,1,1.25,4v9.67h-2.21Z" transform="translate(-974.83 -1390.66)"/><path class="cls-1" d="M1063.5,1625.8v9.58a2.89,2.89,0,0,0,3.37,3.38,5.92,5.92,0,0,0,2.5-.54,6.62,6.62,0,0,0,2-1.46v-11h2.21v14.58h-2l-.14-1.75a7.75,7.75,0,0,1-5.35,2,4.68,4.68,0,0,1-3.6-1.35,5.5,5.5,0,0,1-1.26-3.89v-9.61Z" transform="translate(-974.83 -1390.66)"/><path class="cls-1" d="M1092.22,1640.38H1090l-3.35-14.58H1089l2.4,11.47,3.08-9.63v-1.84h1.65l3.29,11.47,2.38-11.47H1104l-3.32,14.58h-2.21l-3-10.26Z" transform="translate(-974.83 -1390.66)"/><path class="cls-1" d="M1097.24,1619.46h1.67v2.29h1.73v-2.29h1.68v3.88H1091.6l.11-1.59h5.53Z" transform="translate(-974.83 -1390.66)"/><path class="cls-1" d="M1117,1639.27a7.73,7.73,0,0,1-8.77,0,5,5,0,0,1-1.53-3.92v-2a3,3,0,0,1,.39-1.49,17.24,17.24,0,0,1,1.12-1.72c.36-.52.62-.92.79-1.19a1.53,1.53,0,0,0,.24-.78c0-.29-.06-.48-.19-.57a1.3,1.3,0,0,0-.7-.13h-1.95l.19-1.73h3a1.63,1.63,0,0,1,1.86,1.84,3.36,3.36,0,0,1-.34,1.52,10.93,10.93,0,0,1-1,1.63,14.47,14.47,0,0,0-.9,1.46,2.74,2.74,0,0,0-.29,1.25v2.13c0,2.09,1.24,3.13,3.7,3.13s3.76-1.06,3.76-3.19v-1.86a3.25,3.25,0,0,0-.49-2,2.26,2.26,0,0,0-1.78-.57h-.76l.11-1.75h.59a2.3,2.3,0,0,0,1.83-.61,3.22,3.22,0,0,0,.5-2v-1.19h2.21v1.16a5.11,5.11,0,0,1-.42,2.27,2.59,2.59,0,0,1-1.58,1.24,2.73,2.73,0,0,1,1.61,1.28,5.44,5.44,0,0,1,.39,2.28v1.6A4.92,4.92,0,0,1,1117,1639.27Z" transform="translate(-974.83 -1390.66)"/><path class="cls-1" d="M1133.14,1626.56a2.41,2.41,0,0,1,1.87-.76h2.32l.08,1.84H1136a1.38,1.38,0,0,0-1,.32,1.57,1.57,0,0,0-.31,1.11v8.23l4.08-7h1l4.07,7v-11.5H1146v14.58h-2.27l-4.48-7.86-4.54,7.86h-2.27v-11.91A2.68,2.68,0,0,1,1133.14,1626.56Z" transform="translate(-974.83 -1390.66)"/><path class="cls-1" d="M1142,1619.78v2h7.26l-.1,1.59h-9v-3.56Z" transform="translate(-974.83 -1390.66)"/><path class="cls-1" d="M1152.77,1632.82a2.65,2.65,0,0,0-.48,1.7v5.86h-2.22v-5.91a3.62,3.62,0,0,1,.53-2,2.74,2.74,0,0,1,1.66-1.15l-3-.7V1628a8.93,8.93,0,0,1,2.87-1.78,10.3,10.3,0,0,1,3.9-.7,7.23,7.23,0,0,1,4.81,1.36,5.24,5.24,0,0,1,1.59,4.2v9.29h-2.21V1631a3.49,3.49,0,0,0-1-2.79,5.09,5.09,0,0,0-3.24-.8,9.25,9.25,0,0,0-2.82.42,4.93,4.93,0,0,0-2,1.12v.57l3.16.75V1632A2.83,2.83,0,0,0,1152.77,1632.82Z" transform="translate(-974.83 -1390.66)"/><path class="cls-1" d="M1181,1640.38h-2.19l-3.35-14.58h2.27l2.41,11.47,3.07-9.63v-1.84h1.65l3.29,11.47,2.38-11.47h2.24l-3.32,14.58h-2.21l-3-10.26Z" transform="translate(-974.83 -1390.66)"/><path class="cls-1" d="M1186,1619.46h1.68v2.29h1.72v-2.29h1.68v3.88h-10.72l.11-1.59H1186Z" transform="translate(-974.83 -1390.66)"/><path class="cls-1" d="M1205.75,1639.27a7.73,7.73,0,0,1-8.77,0,5,5,0,0,1-1.53-3.92v-2a3,3,0,0,1,.39-1.49,17.24,17.24,0,0,1,1.12-1.72c.36-.52.62-.92.79-1.19a1.53,1.53,0,0,0,.24-.78c0-.29-.06-.48-.19-.57a1.3,1.3,0,0,0-.7-.13h-1.95l.19-1.73h3a1.63,1.63,0,0,1,1.86,1.84,3.49,3.49,0,0,1-.33,1.52,12,12,0,0,1-1,1.63,14.47,14.47,0,0,0-.9,1.46,2.73,2.73,0,0,0-.28,1.25v2.13q0,3.13,3.69,3.13t3.76-3.19v-1.86a3.18,3.18,0,0,0-.49-2,2.26,2.26,0,0,0-1.78-.57h-.76l.11-1.75h.6a2.29,2.29,0,0,0,1.82-.61,3.22,3.22,0,0,0,.5-2v-1.19h2.21v1.16a5.11,5.11,0,0,1-.42,2.27,2.59,2.59,0,0,1-1.58,1.24,2.73,2.73,0,0,1,1.61,1.28,5.44,5.44,0,0,1,.39,2.28v1.6A4.92,4.92,0,0,1,1205.75,1639.27Z" transform="translate(-974.83 -1390.66)"/><path class="cls-1" d="M1212.17,1625.26a4.69,4.69,0,0,1,1.72-1.84h-4.56v-1.78h7.29v1.76a4.27,4.27,0,0,0-2.24,1.91,7.7,7.7,0,0,0-.62,3.46v8.48a1.39,1.39,0,0,0,.31,1,1.28,1.28,0,0,0,1,.32h1.54v1.81H1214a2.34,2.34,0,0,1-1.82-.72,2.6,2.6,0,0,1-.67-1.87V1628A5.74,5.74,0,0,1,1212.17,1625.26Z" transform="translate(-974.83 -1390.66)"/><path class="cls-1" d="M1226.84,1635.41a2.59,2.59,0,0,0-1-.73,18.55,18.55,0,0,0-1.83-.64l-1-.33a17,17,0,0,1-2.43-1,4.52,4.52,0,0,1-1.55-1.28,3.23,3.23,0,0,1-.61-2,3.38,3.38,0,0,1,1.43-2.93,7.34,7.34,0,0,1,4.22-1,13.78,13.78,0,0,1,2.29.19,13.26,13.26,0,0,1,2,.46v1.94a10.86,10.86,0,0,0-4-.7,7.15,7.15,0,0,0-2.86.42,1.57,1.57,0,0,0-.89,1.58,1.66,1.66,0,0,0,.47,1.23,3.46,3.46,0,0,0,1.21.75c.5.19,1.33.48,2.5.85a14,14,0,0,1,2.47,1,4.18,4.18,0,0,1,1.51,1.33,3.52,3.52,0,0,1,.56,2q0,4-5.78,4a17.62,17.62,0,0,1-2.66-.19,10.82,10.82,0,0,1-2.12-.51v-2a12,12,0,0,0,4.4.78,7.85,7.85,0,0,0,3-.42,1.67,1.67,0,0,0,.9-1.69A2,2,0,0,0,1226.84,1635.41Z" transform="translate(-974.83 -1390.66)"/><path class="cls-1" d="M1226.66,1623.34V1619h2.22v4.37Z" transform="translate(-974.83 -1390.66)"/><path class="cls-1" d="M1247.47,1640.38h-2.18l-3.35-14.58h2.27l2.4,11.47,3.08-9.63v-1.84h1.64l3.3,11.47,2.37-11.47h2.25l-3.33,14.58h-2.21l-3-10.26Z" transform="translate(-974.83 -1390.66)"/><path class="cls-1" d="M1252.5,1619.46h1.67v2.29h1.73v-2.29h1.67v3.88h-10.72l.11-1.59h5.54Z" transform="translate(-974.83 -1390.66)"/><path class="cls-1" d="M1272.25,1639.27a7.74,7.74,0,0,1-8.78,0,5,5,0,0,1-1.52-3.92v-2a3,3,0,0,1,.39-1.49,15.61,15.61,0,0,1,1.12-1.72c.36-.52.62-.92.78-1.19a1.53,1.53,0,0,0,.24-.78c0-.29-.06-.48-.19-.57a1.28,1.28,0,0,0-.7-.13h-1.94l.19-1.73h3a1.64,1.64,0,0,1,1.87,1.84,3.49,3.49,0,0,1-.34,1.52,11.83,11.83,0,0,1-1,1.63,13.18,13.18,0,0,0-.91,1.46,2.73,2.73,0,0,0-.28,1.25v2.13q0,3.13,3.7,3.13t3.75-3.19v-1.86a3.26,3.26,0,0,0-.48-2,2.28,2.28,0,0,0-1.79-.57h-.75l.11-1.75h.59a2.27,2.27,0,0,0,1.82-.61,3.22,3.22,0,0,0,.5-2v-1.19h2.22v1.16a5.11,5.11,0,0,1-.42,2.27,2.62,2.62,0,0,1-1.58,1.24,2.71,2.71,0,0,1,1.6,1.28,5.42,5.42,0,0,1,.4,2.28v1.6A4.92,4.92,0,0,1,1272.25,1639.27Z" transform="translate(-974.83 -1390.66)"/><path class="cls-1" d="M1289.62,1630.88v9.5h-2.21v-6.7h-4.65a4.69,4.69,0,0,0-2.71.62,2.31,2.31,0,0,0-.85,2,2.21,2.21,0,0,0,.77,1.91,4.4,4.4,0,0,0,2.52.55,6.72,6.72,0,0,0,1.84-.22v1.84a9.7,9.7,0,0,1-2.43.27,5.47,5.47,0,0,1-3.54-1.07,4,4,0,0,1-1.32-3.28,4.07,4.07,0,0,1,1.4-3.28,6.42,6.42,0,0,1,4.19-1.17h4.78v-1.14a4.25,4.25,0,0,0-.38-2,2.2,2.2,0,0,0-1.26-1,7.61,7.61,0,0,0-2.47-.31,14.8,14.8,0,0,0-4.67.7v-1.83a13.69,13.69,0,0,1,2.38-.56,18.87,18.87,0,0,1,2.7-.2,11.42,11.42,0,0,1,2.48.27h4.64l-.1,1.81h-2A5.43,5.43,0,0,1,1289.62,1630.88Z" transform="translate(-974.83 -1390.66)"/><path class="cls-1" d="M1304.56,1639.3a4.75,4.75,0,0,1-3.63,1.35,7.78,7.78,0,0,1-2.93-.51,8.5,8.5,0,0,1-2.36-1.51l-.13,1.75h-2V1625.8h2.21v11a7.09,7.09,0,0,0,2,1.46,5.6,5.6,0,0,0,2.45.54,3.66,3.66,0,0,0,2.61-.8,3.46,3.46,0,0,0,.82-2.58v-9.58h2.22v9.61A5.42,5.42,0,0,1,1304.56,1639.3Z" transform="translate(-974.83 -1390.66)"/><path class="cls-1" d="M1305.82,1642.08v5.05h-1.92v-3.54h-1.78l.11-1.51Z" transform="translate(-974.83 -1390.66)"/><path class="cls-1" d="M1311.81,1625.8v9.58a2.9,2.9,0,0,0,3.38,3.38,6,6,0,0,0,2.5-.54,6.62,6.62,0,0,0,2-1.46v-11h2.21v14.58h-2l-.13-1.75a7.76,7.76,0,0,1-5.35,2,4.65,4.65,0,0,1-3.6-1.35,5.5,5.5,0,0,1-1.26-3.89v-9.61Z" transform="translate(-974.83 -1390.66)"/><path class="cls-1" d="M1326.77,1625.26a4.79,4.79,0,0,1,1.73-1.84h-4.56v-1.78h7.29v1.76a4.27,4.27,0,0,0-2.24,1.91,7.7,7.7,0,0,0-.62,3.46v8.48a1.39,1.39,0,0,0,.31,1,1.27,1.27,0,0,0,1,.32h1.54v1.81h-2.54a2.35,2.35,0,0,1-1.82-.72,2.64,2.64,0,0,1-.66-1.87V1628A5.85,5.85,0,0,1,1326.77,1625.26Z" transform="translate(-974.83 -1390.66)"/><path class="cls-1" d="M1338.36,1640.38h-2.19l-3.35-14.58h2.27l2.4,11.47,3.08-9.63v-1.84h1.65l3.29,11.47,2.38-11.47h2.24l-3.32,14.58h-2.22l-3-10.26Z" transform="translate(-974.83 -1390.66)"/><path class="cls-1" d="M1360.89,1635.41a2.63,2.63,0,0,0-1-.73,17.29,17.29,0,0,0-1.82-.64l-1-.33a17,17,0,0,1-2.43-1,4.42,4.42,0,0,1-1.55-1.28,3.17,3.17,0,0,1-.61-2,3.38,3.38,0,0,1,1.43-2.93,7.33,7.33,0,0,1,4.21-1,13.9,13.9,0,0,1,2.3.19,13.26,13.26,0,0,1,2,.46v1.94a10.86,10.86,0,0,0-4-.7,7.21,7.21,0,0,0-2.87.42,1.58,1.58,0,0,0-.89,1.58,1.67,1.67,0,0,0,.48,1.23,3.46,3.46,0,0,0,1.21.75c.5.19,1.33.48,2.5.85a14,14,0,0,1,2.47,1,4.26,4.26,0,0,1,1.51,1.33,3.52,3.52,0,0,1,.55,2q0,4-5.77,4a17.62,17.62,0,0,1-2.66-.19,10.65,10.65,0,0,1-2.12-.51v-2a12,12,0,0,0,4.4.78,7.88,7.88,0,0,0,3-.42,1.67,1.67,0,0,0,.9-1.69A2,2,0,0,0,1360.89,1635.41Z" transform="translate(-974.83 -1390.66)"/><path class="cls-1" d="M1375.08,1630.12v-4.32h2.21v14.58h-2.21V1632a6.82,6.82,0,0,1-1.75.77,7.43,7.43,0,0,1-2.09.28,5.05,5.05,0,0,1-3.51-1.18,4,4,0,0,1-1.32-3.11,7.19,7.19,0,0,1,.62-3h2.27a6.39,6.39,0,0,0-.52,1.36,7.35,7.35,0,0,0-.16,1.61,2.31,2.31,0,0,0,.68,1.8,3.15,3.15,0,0,0,2.13.6A5.88,5.88,0,0,0,1375.08,1630.12Z" transform="translate(-974.83 -1390.66)"/><path class="cls-1" d="M1382.09,1628.12v-1.83a13.69,13.69,0,0,1,2.38-.56,18.87,18.87,0,0,1,2.7-.2,6.63,6.63,0,0,1,4.5,1.28,5.26,5.26,0,0,1,1.41,4.07v9.5h-2.21v-6.7h-4.64a4.71,4.71,0,0,0-2.72.62,2.33,2.33,0,0,0-.85,2,2.21,2.21,0,0,0,.77,1.91,4.43,4.43,0,0,0,2.53.55,6.65,6.65,0,0,0,1.83-.22v1.84a9.59,9.59,0,0,1-2.43.27,5.46,5.46,0,0,1-3.53-1.07,3.94,3.94,0,0,1-1.33-3.28,4,4,0,0,1,1.41-3.28,6.39,6.39,0,0,1,4.18-1.17h4.78v-1.14a4.25,4.25,0,0,0-.38-2,2.21,2.21,0,0,0-1.25-1,7.66,7.66,0,0,0-2.47-.31A14.87,14.87,0,0,0,1382.09,1628.12Z" transform="translate(-974.83 -1390.66)"/><path class="cls-1" d="M1405.23,1630.12v-4.32h2.22v14.58h-2.22V1632a6.6,6.6,0,0,1-1.74.77,7.48,7.48,0,0,1-2.09.28,5.05,5.05,0,0,1-3.51-1.18,4,4,0,0,1-1.32-3.11,7.19,7.19,0,0,1,.62-3h2.27a6.39,6.39,0,0,0-.52,1.36,6.78,6.78,0,0,0-.16,1.61,2.31,2.31,0,0,0,.68,1.8,3.15,3.15,0,0,0,2.13.6A5.83,5.83,0,0,0,1405.23,1630.12Z" transform="translate(-974.83 -1390.66)"/><path class="cls-1" d="M1423.53,1625.8v11.45a1.44,1.44,0,0,0,.31,1,1.31,1.31,0,0,0,1,.32h1.54v1.81h-2.54a2.35,2.35,0,0,1-1.82-.72,2.64,2.64,0,0,1-.66-1.87v-12Z" transform="translate(-974.83 -1390.66)"/><path class="cls-1" d="M1434.28,1640.38h-2.19l-3.35-14.58H1431l2.41,11.47,3.07-9.63v-1.84h1.65l3.29,11.47,2.38-11.47h2.24l-3.32,14.58h-2.21l-3-10.26Z" transform="translate(-974.83 -1390.66)"/><path class="cls-1" d="M1439.3,1619.46H1441v2.29h1.73v-2.29h1.68v3.88h-10.72l.11-1.59h5.53Z" transform="translate(-974.83 -1390.66)"/><path class="cls-1" d="M1442.49,1618.13v-3.75h1.86v3.75Z" transform="translate(-974.83 -1390.66)"/><path class="cls-1" d="M1448.67,1628.12v-1.83a14.22,14.22,0,0,1,2.44-.56,20.56,20.56,0,0,1,2.85-.2q3.68,0,5.35,1.86t1.67,5.73q0,3.78-1.67,5.65c-1.12,1.25-2.87,1.88-5.27,1.88a16.07,16.07,0,0,1-3-.28,12.48,12.48,0,0,1-2.55-.75v-7.34h5.35l.11,1.81h-3.24v4.13a10.09,10.09,0,0,0,3.32.54,6.1,6.1,0,0,0,2.81-.54,3.18,3.18,0,0,0,1.49-1.77,9.39,9.39,0,0,0,.48-3.33,9,9,0,0,0-.52-3.42,3.17,3.17,0,0,0-1.66-1.75,7.84,7.84,0,0,0-3.2-.53A15,15,0,0,0,1448.67,1628.12Z" transform="translate(-974.83 -1390.66)"/><path class="cls-1" d="M1467.22,1632.82a2.59,2.59,0,0,0-.49,1.7v5.86h-2.21v-5.91a3.62,3.62,0,0,1,.52-2,2.79,2.79,0,0,1,1.67-1.15l-3.06-.7V1628a9.09,9.09,0,0,1,2.88-1.78,10.3,10.3,0,0,1,3.9-.7,7.26,7.26,0,0,1,4.81,1.36,5.24,5.24,0,0,1,1.59,4.2v9.29h-2.21V1631a3.49,3.49,0,0,0-.95-2.79,5.09,5.09,0,0,0-3.24-.8,9.16,9.16,0,0,0-2.82.42,4.93,4.93,0,0,0-2,1.12v.57l3.16.75V1632A2.8,2.8,0,0,0,1467.22,1632.82Z" transform="translate(-974.83 -1390.66)"/><path class="cls-1" d="M1486.44,1631a6.47,6.47,0,0,0-.25-2,2,2,0,0,0-1-1.11,5.14,5.14,0,0,0-2.23-.38,10,10,0,0,0-1.88.19,11.55,11.55,0,0,0-1.85.51v-1.83a12.44,12.44,0,0,1,4.13-.76,5.61,5.61,0,0,1,4,1.23,5.34,5.34,0,0,1,1.26,4v9.67h-2.22Z" transform="translate(-974.83 -1390.66)"/><path class="cls-1" d="M1500.23,1635.41a2.63,2.63,0,0,0-1-.73,17.29,17.29,0,0,0-1.82-.64l-1-.33a17,17,0,0,1-2.43-1,4.42,4.42,0,0,1-1.55-1.28,3.17,3.17,0,0,1-.61-2,3.38,3.38,0,0,1,1.43-2.93,7.31,7.31,0,0,1,4.21-1,13.9,13.9,0,0,1,2.3.19,13.26,13.26,0,0,1,2,.46v1.94a10.86,10.86,0,0,0-4-.7,7.21,7.21,0,0,0-2.87.42,1.58,1.58,0,0,0-.89,1.58,1.67,1.67,0,0,0,.48,1.23,3.46,3.46,0,0,0,1.21.75c.5.19,1.33.48,2.5.85a14,14,0,0,1,2.47,1,4.26,4.26,0,0,1,1.51,1.33,3.52,3.52,0,0,1,.55,2q0,4-5.77,4a17.62,17.62,0,0,1-2.66-.19,10.65,10.65,0,0,1-2.12-.51v-2a12,12,0,0,0,4.4.78,7.88,7.88,0,0,0,3-.42,1.67,1.67,0,0,0,.9-1.69A2,2,0,0,0,1500.23,1635.41Z" transform="translate(-974.83 -1390.66)"/><path class="cls-1" d="M985.55,1674.27a3.53,3.53,0,0,0,1.05-2.84v-9.23h2.22v9.07a5.46,5.46,0,0,1-1.65,4.32,8.46,8.46,0,0,1-9.5,0,5.46,5.46,0,0,1-1.65-4.32v-9.07h2.21v9.23a3.51,3.51,0,0,0,1.06,2.84,5.95,5.95,0,0,0,6.26,0Z" transform="translate(-974.83 -1390.66)"/><path class="cls-1" d="M1000.38,1671.81a2.51,2.51,0,0,0-1-.73,17.29,17.29,0,0,0-1.82-.64l-1-.33a17,17,0,0,1-2.43-1,4.42,4.42,0,0,1-1.55-1.28,3.15,3.15,0,0,1-.61-2,3.36,3.36,0,0,1,1.43-2.93,7.31,7.31,0,0,1,4.21-1,13.9,13.9,0,0,1,2.3.19,14.09,14.09,0,0,1,2,.46v1.94a10.77,10.77,0,0,0-4-.7,7.21,7.21,0,0,0-2.87.42,1.58,1.58,0,0,0-.89,1.58,1.7,1.7,0,0,0,.47,1.23,3.51,3.51,0,0,0,1.22.75c.49.19,1.33.48,2.5.85a14,14,0,0,1,2.47,1,4.26,4.26,0,0,1,1.51,1.33,3.52,3.52,0,0,1,.55,2q0,4-5.77,4a17.62,17.62,0,0,1-2.66-.19,9.84,9.84,0,0,1-2.12-.51v-2a12,12,0,0,0,4.4.78,7.79,7.79,0,0,0,3-.42,1.66,1.66,0,0,0,.91-1.69A1.91,1.91,0,0,0,1000.38,1671.81Z" transform="translate(-974.83 -1390.66)"/><path class="cls-1" d="M991.65,1659.74l.11-1.59h10.61v1.59Z" transform="translate(-974.83 -1390.66)"/><path class="cls-1" d="M1006.62,1661.35a5.23,5.23,0,0,0-2.2-1.53V1658h7.48v1.78h-4.67a4,4,0,0,1,1.78,1.73,7.51,7.51,0,0,1,.49,3.11v9a1.39,1.39,0,0,0,.31,1,1.28,1.28,0,0,0,1,.32h1.54v1.81h-2.54a2.34,2.34,0,0,1-1.82-.72,2.6,2.6,0,0,1-.67-1.87V1664A4.34,4.34,0,0,0,1006.62,1661.35Z" transform="translate(-974.83 -1390.66)"/><path class="cls-1" d="M1020.35,1668.36a2.36,2.36,0,0,0-1.36.83,3.2,3.2,0,0,0-.37,1.73v2.89c0,2-.92,3-2.78,3h-1.67V1675h1.08a1.12,1.12,0,0,0,.89-.31,1.48,1.48,0,0,0,.27-1v-2.8a4.28,4.28,0,0,1,.42-2,2.43,2.43,0,0,1,1.47-1.15l-3.21-.7v-2.6a8.93,8.93,0,0,1,2.87-1.78,10.3,10.3,0,0,1,3.9-.7,7.23,7.23,0,0,1,4.81,1.36,5.24,5.24,0,0,1,1.59,4.2v9.29h-2.21v-9.37a3.49,3.49,0,0,0-1-2.79,5.09,5.09,0,0,0-3.24-.8,9.25,9.25,0,0,0-2.82.42,4.93,4.93,0,0,0-2,1.12v.57l3.32.75Z" transform="translate(-974.83 -1390.66)"/><path class="cls-1" d="M1035.24,1664.6a3,3,0,0,0-1,2.49v3.37a4.59,4.59,0,0,1,3.13-1.1h1.78l.11,1.8h-1.94a4.61,4.61,0,0,0-3.08,1.06v4.56H1032v-9.45q0-5.4,6.31-5.4t6.27,5.4v9.45h-2.22v-9.69a2.94,2.94,0,0,0-1-2.49,4.93,4.93,0,0,0-3-.78A5.06,5.06,0,0,0,1035.24,1664.6Z" transform="translate(-974.83 -1390.66)"/><path class="cls-1" d="M1050.56,1662.2v11.45a1.4,1.4,0,0,0,.32,1,1.27,1.27,0,0,0,.95.32h1.27v1.81h-2.27a2.35,2.35,0,0,1-1.82-.72,2.64,2.64,0,0,1-.66-1.87v-12Zm6.19,0v11.45a1.39,1.39,0,0,0,.31,1,1.28,1.28,0,0,0,1,.32h1.27v1.81H1057a2.34,2.34,0,0,1-1.82-.72,2.6,2.6,0,0,1-.67-1.87v-12Z" transform="translate(-974.83 -1390.66)"/><path class="cls-1" d="M1063.55,1664.52v-1.83a13.69,13.69,0,0,1,2.38-.56,18.87,18.87,0,0,1,2.7-.2,6.58,6.58,0,0,1,4.49,1.28,5.22,5.22,0,0,1,1.42,4.07v9.5h-2.21v-6.7h-4.65a4.61,4.61,0,0,0-2.71.63,2.29,2.29,0,0,0-.85,2,2.21,2.21,0,0,0,.77,1.91,4.4,4.4,0,0,0,2.52.55,6.72,6.72,0,0,0,1.84-.22v1.84a9.7,9.7,0,0,1-2.43.27,5.42,5.42,0,0,1-3.54-1.07,4,4,0,0,1-1.32-3.28,4.07,4.07,0,0,1,1.4-3.28,6.42,6.42,0,0,1,4.19-1.17h4.78v-1.14a4.25,4.25,0,0,0-.38-2,2.2,2.2,0,0,0-1.26-1,7.61,7.61,0,0,0-2.47-.31A14.8,14.8,0,0,0,1063.55,1664.52Z" transform="translate(-974.83 -1390.66)"/><path class="cls-1" d="M1079.67,1664.58v1.32h4.19l-.09,1.7h-6v-3Zm0,7.45v1.35h4.19l-.09,1.67h-6v-3Z" transform="translate(-974.83 -1390.66)"/><path class="cls-1" d="M1097.56,1665.09a9.57,9.57,0,0,1,1.6-1.92,9.2,9.2,0,0,0,.95-1.06,1.53,1.53,0,0,0,.3-.91,1.2,1.2,0,0,0-.48-1.11,3,3,0,0,0-1.49-.29,6.24,6.24,0,0,0-3,.83v-1.72a6.69,6.69,0,0,1,1.75-.71,8,8,0,0,1,1.92-.24,3.86,3.86,0,0,1,2.66.81,2.9,2.9,0,0,1,.9,2.27,2.63,2.63,0,0,1-.39,1.48,9.23,9.23,0,0,1-1.2,1.41,8.48,8.48,0,0,0-1.4,1.63,3.65,3.65,0,0,0-.49,2v6.1a1.39,1.39,0,0,0,.31,1,1.31,1.31,0,0,0,1,.32H1102v1.81h-2.54a2.35,2.35,0,0,1-1.82-.72,2.64,2.64,0,0,1-.66-1.87v-6.67A4.55,4.55,0,0,1,1097.56,1665.09Z" transform="translate(-974.83 -1390.66)"/><path class="cls-1" d="M1115.13,1675.67a7.73,7.73,0,0,1-8.77,0,4.93,4.93,0,0,1-1.53-3.91v-2a3,3,0,0,1,.4-1.49,15.61,15.61,0,0,1,1.12-1.72c.36-.52.62-.92.78-1.19a1.53,1.53,0,0,0,.24-.78c0-.29-.06-.48-.19-.57a1.28,1.28,0,0,0-.7-.13h-1.94l.19-1.73h3a1.64,1.64,0,0,1,1.87,1.84,3.49,3.49,0,0,1-.34,1.52,12.48,12.48,0,0,1-1,1.64,12.33,12.33,0,0,0-.91,1.45,2.76,2.76,0,0,0-.28,1.25V1672q0,3.13,3.7,3.13t3.75-3.19v-1.86a3.18,3.18,0,0,0-.49-2,2.24,2.24,0,0,0-1.78-.57h-.75l.1-1.75h.6a2.24,2.24,0,0,0,1.82-.61,3.22,3.22,0,0,0,.5-2v-1.19h2.21v1.16a5.26,5.26,0,0,1-.41,2.27,2.62,2.62,0,0,1-1.58,1.24,2.71,2.71,0,0,1,1.6,1.28,5.46,5.46,0,0,1,.39,2.29v1.59A4.89,4.89,0,0,1,1115.13,1675.67Z" transform="translate(-974.83 -1390.66)"/><path class="cls-1" d="M1112.58,1658.15h5.92l-.11,1.59H1111v-2.53h-2.13v-1.6h3.72Z" transform="translate(-974.83 -1390.66)"/><path class="cls-1" d="M1132.51,1667.28v9.5h-2.22v-6.7h-4.64a4.59,4.59,0,0,0-2.71.63,2.29,2.29,0,0,0-.85,2,2.18,2.18,0,0,0,.77,1.91,4.4,4.4,0,0,0,2.52.55,6.72,6.72,0,0,0,1.84-.22v1.84a9.7,9.7,0,0,1-2.43.27,5.42,5.42,0,0,1-3.54-1.07,4,4,0,0,1-1.32-3.28,4.07,4.07,0,0,1,1.4-3.28,6.42,6.42,0,0,1,4.19-1.17h4.77v-1.14a4.27,4.27,0,0,0-.37-2,2.2,2.2,0,0,0-1.26-1,7.61,7.61,0,0,0-2.47-.31,14.8,14.8,0,0,0-4.67.7v-1.83a13.47,13.47,0,0,1,2.38-.56,18.87,18.87,0,0,1,2.7-.2,11.42,11.42,0,0,1,2.48.27h4.64l-.1,1.81h-1.95A5.43,5.43,0,0,1,1132.51,1667.28Z" transform="translate(-974.83 -1390.66)"/><path class="cls-1" d="M1136.07,1664.52v-1.83a14.35,14.35,0,0,1,2.45-.56,20.34,20.34,0,0,1,2.85-.2c2.44,0,4.23.62,5.34,1.86s1.68,3.15,1.68,5.73-.56,4.4-1.68,5.65-2.87,1.88-5.26,1.88a15.92,15.92,0,0,1-3-.28,12.48,12.48,0,0,1-2.55-.75v-7.34h5.34l.11,1.81h-3.24v4.13a10.14,10.14,0,0,0,3.32.54,6.08,6.08,0,0,0,2.81-.54,3.24,3.24,0,0,0,1.5-1.77,9.65,9.65,0,0,0,.47-3.33,9.19,9.19,0,0,0-.51-3.42,3.2,3.2,0,0,0-1.66-1.75,7.88,7.88,0,0,0-3.2-.53A15.05,15.05,0,0,0,1136.07,1664.52Z" transform="translate(-974.83 -1390.66)"/><path class="cls-1" d="M1153.35,1666a2,2,0,0,0,.76,1.73,3.45,3.45,0,0,0,2.08.56h1.54l.13,1.68h-1.75a3,3,0,0,0-2.14.67,2.64,2.64,0,0,0-.7,2,2.08,2.08,0,0,0,1,1.92,6.12,6.12,0,0,0,3.11.62,5,5,0,0,0,3.14-.81,3.05,3.05,0,0,0,1-2.54v-9.61h2.22v9.23a5.44,5.44,0,0,1-1.54,4.2,6.82,6.82,0,0,1-4.76,1.42,8.58,8.58,0,0,1-4.72-1.11,3.69,3.69,0,0,1-1.7-3.32,3.74,3.74,0,0,1,.58-2.12,3.65,3.65,0,0,1,1.63-1.33,2.91,2.91,0,0,1-1.55-1.11,3.43,3.43,0,0,1-.58-2,3.85,3.85,0,0,1,1.19-3,4.54,4.54,0,0,1,3.13-1,7.45,7.45,0,0,1,2.24.3v1.83a6,6,0,0,0-1.84-.24C1154.19,1663.82,1153.35,1664.55,1153.35,1666Z" transform="translate(-974.83 -1390.66)"/><path class="cls-1" d="M1167.2,1664.52v-1.83a14.35,14.35,0,0,1,2.45-.56,20.45,20.45,0,0,1,2.85-.2c2.44,0,4.23.62,5.34,1.86s1.68,3.15,1.68,5.73-.56,4.4-1.68,5.65-2.87,1.88-5.26,1.88a15.92,15.92,0,0,1-3-.28,12.48,12.48,0,0,1-2.55-.75v-7.34h5.34l.11,1.81h-3.24v4.13a10.14,10.14,0,0,0,3.32.54,6.08,6.08,0,0,0,2.81-.54,3.2,3.2,0,0,0,1.5-1.77,9.65,9.65,0,0,0,.47-3.33,9.19,9.19,0,0,0-.51-3.42,3.2,3.2,0,0,0-1.66-1.75,7.88,7.88,0,0,0-3.2-.53A15.05,15.05,0,0,0,1167.2,1664.52Z" transform="translate(-974.83 -1390.66)"/><path class="cls-1" d="M1184.48,1666a2,2,0,0,0,.76,1.73,3.45,3.45,0,0,0,2.08.56h1.54l.13,1.68h-1.75a2.94,2.94,0,0,0-2.13.67,2.61,2.61,0,0,0-.71,2,2.08,2.08,0,0,0,1,1.92,6.12,6.12,0,0,0,3.11.62,5,5,0,0,0,3.14-.81,3.05,3.05,0,0,0,1-2.54v-9.61h2.22v9.23a5.44,5.44,0,0,1-1.54,4.2,6.81,6.81,0,0,1-4.75,1.42,8.6,8.6,0,0,1-4.73-1.11,3.69,3.69,0,0,1-1.7-3.32,3.74,3.74,0,0,1,.58-2.12,3.65,3.65,0,0,1,1.63-1.33,3,3,0,0,1-1.55-1.11,3.43,3.43,0,0,1-.58-2,3.85,3.85,0,0,1,1.19-3,4.54,4.54,0,0,1,3.13-1,7.41,7.41,0,0,1,2.24.3v1.83a5.93,5.93,0,0,0-1.83-.24Q1184.48,1663.82,1184.48,1666Z" transform="translate(-974.83 -1390.66)"/><path class="cls-1" d="M1192.69,1659.74v-4.37h2.22v4.37Z" transform="translate(-974.83 -1390.66)"/><path class="cls-1" d="M1204.52,1667.36a6.42,6.42,0,0,0-.26-2,1.91,1.91,0,0,0-1-1.11,5.06,5.06,0,0,0-2.22-.38,9.9,9.9,0,0,0-1.88.19,11.27,11.27,0,0,0-1.85.51v-1.83a10.77,10.77,0,0,1,1.94-.54,11,11,0,0,1,2.19-.22,5.63,5.63,0,0,1,4,1.23,5.38,5.38,0,0,1,1.25,3.95v9.67h-2.21Z" transform="translate(-974.83 -1390.66)"/><path class="cls-1" d="M1215.8,1662.2H1217a5.45,5.45,0,0,1,4.43,1.65q1.38,1.65,1.38,5.13,0,4.1-1.74,6.09a5.88,5.88,0,0,1-4.63,2,7,7,0,0,1-2.38-.3l-4.1-10h2.16l3.45,8.4.54,0a3.89,3.89,0,0,0,3.39-1.53,8,8,0,0,0,1.09-4.66,9.94,9.94,0,0,0-.35-3,2.52,2.52,0,0,0-1.17-1.52,4.75,4.75,0,0,0-2.31-.46h-1Z" transform="translate(-974.83 -1390.66)"/><path class="cls-1" d="M1230.74,1676.78h-2.19l-3.35-14.58h2.27l2.4,11.47L1233,1664v-1.84h1.65l3.29,11.47,2.38-11.47h2.24l-3.32,14.58H1237l-3-10.26Z" transform="translate(-974.83 -1390.66)"/><path class="cls-1" d="M1245.13,1664.52v-1.83a14,14,0,0,1,2.44-.56,20.56,20.56,0,0,1,2.85-.2q3.67,0,5.34,1.86c1.12,1.25,1.68,3.15,1.68,5.73s-.56,4.4-1.68,5.65-2.87,1.88-5.26,1.88a16,16,0,0,1-3-.28,12.48,12.48,0,0,1-2.55-.75v-7.34h5.35l.1,1.81h-3.24v4.13a10.2,10.2,0,0,0,3.33.54,6.06,6.06,0,0,0,2.8-.54,3.16,3.16,0,0,0,1.5-1.77,9.42,9.42,0,0,0,.47-3.33,9.19,9.19,0,0,0-.51-3.42,3.17,3.17,0,0,0-1.66-1.75,7.84,7.84,0,0,0-3.2-.53A15,15,0,0,0,1245.13,1664.52Z" transform="translate(-974.83 -1390.66)"/><path class="cls-1" d="M1262.87,1662.2v11.45a1.39,1.39,0,0,0,.31,1,1.27,1.27,0,0,0,1,.32h1.54v1.81h-2.53a2.36,2.36,0,0,1-1.83-.72,2.64,2.64,0,0,1-.66-1.87v-12Z" transform="translate(-974.83 -1390.66)"/><path class="cls-1" d="M1273.61,1676.78h-2.19l-3.34-14.58h2.26l2.41,11.47,3.08-9.63v-1.84h1.64l3.3,11.47,2.37-11.47h2.24l-3.32,14.58h-2.21l-3-10.26Z" transform="translate(-974.83 -1390.66)"/><path class="cls-1" d="M1281.85,1655.86h1.86v3.88H1273l.11-1.59h8.75Z" transform="translate(-974.83 -1390.66)"/><path class="cls-1" d="M1290.08,1666a2,2,0,0,0,.76,1.73,3.43,3.43,0,0,0,2.08.56h1.54l.13,1.68h-1.76a3,3,0,0,0-2.13.67,2.6,2.6,0,0,0-.7,2,2.09,2.09,0,0,0,1,1.92,6.19,6.19,0,0,0,3.12.62,5,5,0,0,0,3.13-.81,3,3,0,0,0,1-2.54v-9.61h2.21v9.23a5.4,5.4,0,0,1-1.54,4.2,6.8,6.8,0,0,1-4.75,1.42,8.58,8.58,0,0,1-4.72-1.11,3.67,3.67,0,0,1-1.7-3.32,3.74,3.74,0,0,1,.58-2.12,3.6,3.6,0,0,1,1.63-1.33,2.88,2.88,0,0,1-1.55-1.11,3.43,3.43,0,0,1-.58-2,3.82,3.82,0,0,1,1.19-3,4.54,4.54,0,0,1,3.13-1,7.45,7.45,0,0,1,2.24.3v1.83a6,6,0,0,0-1.84-.24C1290.92,1663.82,1290.08,1664.55,1290.08,1666Z" transform="translate(-974.83 -1390.66)"/><path class="cls-1" d="M1309.58,1662.2h1.18a5.45,5.45,0,0,1,4.43,1.65q1.38,1.65,1.38,5.13,0,4.1-1.74,6.09a5.87,5.87,0,0,1-4.63,2,7,7,0,0,1-2.38-.3l-4.1-10h2.16l3.45,8.4.54,0a3.89,3.89,0,0,0,3.39-1.53,8,8,0,0,0,1.09-4.66,9.94,9.94,0,0,0-.35-3,2.52,2.52,0,0,0-1.17-1.52,4.75,4.75,0,0,0-2.31-.46h-.94Z" transform="translate(-974.83 -1390.66)"/><path class="cls-1" d="M1331.71,1666.92h4.84a3.33,3.33,0,0,0,2.43-.71,3.07,3.07,0,0,0,.7-2.23v-1.78h2.21V1664c0,2.07-.77,3.34-2.32,3.83a2.71,2.71,0,0,1,1.72,1.31,5.46,5.46,0,0,1,.44,2.36v5.32h-2.21v-5a4.61,4.61,0,0,0-.29-1.81,1.67,1.67,0,0,0-.94-.92,5.16,5.16,0,0,0-1.88-.27h-4.7v8h-2.21V1662.2h2.21Z" transform="translate(-974.83 -1390.66)"/><path class="cls-1" d="M1350.8,1667.36a6.47,6.47,0,0,0-.25-2,1.94,1.94,0,0,0-1-1.11,5.14,5.14,0,0,0-2.23-.38,10.06,10.06,0,0,0-1.88.19,11.55,11.55,0,0,0-1.85.51v-1.83a12.44,12.44,0,0,1,4.14-.76,5.59,5.59,0,0,1,4,1.23,5.34,5.34,0,0,1,1.26,3.95v9.67h-2.22Z" transform="translate(-974.83 -1390.66)"/><path class="cls-1" d="M1359.25,1669.22a2.65,2.65,0,0,0-.48,1.7v5.86h-2.22v-5.91a3.67,3.67,0,0,1,.53-2,2.77,2.77,0,0,1,1.66-1.15l-3-.7v-2.6a9.09,9.09,0,0,1,2.88-1.78,10.3,10.3,0,0,1,3.9-.7,7.22,7.22,0,0,1,4.8,1.36,5.21,5.21,0,0,1,1.6,4.2v9.29h-2.22v-9.37a3.49,3.49,0,0,0-.94-2.79,5.09,5.09,0,0,0-3.24-.8,9.16,9.16,0,0,0-2.82.42,4.91,4.91,0,0,0-2,1.12v.57l3.16.75v1.68A2.83,2.83,0,0,0,1359.25,1669.22Z" transform="translate(-974.83 -1390.66)"/><path class="cls-1" d="M1374.29,1662.2v11.45a1.44,1.44,0,0,0,.31,1,1.31,1.31,0,0,0,1,.32h1.54v1.81h-2.54a2.35,2.35,0,0,1-1.82-.72,2.64,2.64,0,0,1-.66-1.87v-12Z" transform="translate(-974.83 -1390.66)"/><path class="cls-1" d="M1382,1666.92h4.83a3.33,3.33,0,0,0,2.43-.71,3.07,3.07,0,0,0,.7-2.23v-1.78h2.22V1664c0,2.07-.78,3.34-2.32,3.83a2.72,2.72,0,0,1,1.71,1.31,5.31,5.31,0,0,1,.45,2.36v5.32h-2.22v-5a4.64,4.64,0,0,0-.28-1.81,1.72,1.72,0,0,0-1-.92,5.1,5.1,0,0,0-1.87-.27H1382v8h-2.21V1662.2H1382Z" transform="translate(-974.83 -1390.66)"/><path class="cls-1" d="M1396.27,1664.52v-1.83a13.69,13.69,0,0,1,2.38-.56,18.87,18.87,0,0,1,2.7-.2,6.58,6.58,0,0,1,4.49,1.28,5.22,5.22,0,0,1,1.42,4.07v9.5h-2.21v-6.7h-4.65a4.61,4.61,0,0,0-2.71.63,2.29,2.29,0,0,0-.85,2,2.21,2.21,0,0,0,.77,1.91,4.4,4.4,0,0,0,2.52.55,6.72,6.72,0,0,0,1.84-.22v1.84a9.64,9.64,0,0,1-2.43.27A5.42,5.42,0,0,1,1396,1676a4,4,0,0,1-1.32-3.28,4.07,4.07,0,0,1,1.4-3.28,6.42,6.42,0,0,1,4.19-1.17h4.78v-1.14a4.25,4.25,0,0,0-.38-2,2.2,2.2,0,0,0-1.26-1,7.61,7.61,0,0,0-2.47-.31A14.8,14.8,0,0,0,1396.27,1664.52Z" transform="translate(-974.83 -1390.66)"/><path class="cls-1" d="M1402.13,1655.86h1.68v2.29h1.72v-2.29h1.68v3.88h-10.72l.11-1.59h5.53Z" transform="translate(-974.83 -1390.66)"/><path class="cls-1" d="M1410.15,1664.52v-1.83a14.22,14.22,0,0,1,2.44-.56,20.56,20.56,0,0,1,2.85-.2q3.68,0,5.35,1.86c1.11,1.25,1.67,3.15,1.67,5.73s-.56,4.4-1.67,5.65-2.87,1.88-5.27,1.88a15.89,15.89,0,0,1-3-.28,12.4,12.4,0,0,1-2.56-.75v-7.34h5.35l.11,1.81h-3.24v4.13a10.09,10.09,0,0,0,3.32.54,6.1,6.1,0,0,0,2.81-.54,3.24,3.24,0,0,0,1.5-1.77,9.65,9.65,0,0,0,.47-3.33,9.19,9.19,0,0,0-.51-3.42,3.24,3.24,0,0,0-1.66-1.75,7.91,7.91,0,0,0-3.2-.53A15,15,0,0,0,1410.15,1664.52Z" transform="translate(-974.83 -1390.66)"/><path class="cls-1" d="M1434.67,1674.27a3.53,3.53,0,0,0,1-2.84v-9.23h2.21v9.07a5.48,5.48,0,0,1-1.64,4.32,8.47,8.47,0,0,1-9.51,0,5.46,5.46,0,0,1-1.65-4.32v-9.07h2.22v9.23a3.53,3.53,0,0,0,1.05,2.84,6,6,0,0,0,6.27,0Z" transform="translate(-974.83 -1390.66)"/><path class="cls-1" d="M1449,1671.81a2.51,2.51,0,0,0-1-.73,17.29,17.29,0,0,0-1.82-.64l-1-.33a17,17,0,0,1-2.43-1,4.55,4.55,0,0,1-1.56-1.28,3.2,3.2,0,0,1-.6-2,3.36,3.36,0,0,1,1.43-2.93,7.29,7.29,0,0,1,4.21-1,13.78,13.78,0,0,1,2.29.19,14.26,14.26,0,0,1,2,.46v1.94a10.82,10.82,0,0,0-4-.7,7.15,7.15,0,0,0-2.86.42,1.58,1.58,0,0,0-.89,1.58,1.7,1.7,0,0,0,.47,1.23,3.51,3.51,0,0,0,1.22.75c.49.19,1.32.48,2.49.85a14.14,14.14,0,0,1,2.48,1A4.35,4.35,0,0,1,1451,1671a3.52,3.52,0,0,1,.55,2c0,2.68-1.92,4-5.78,4a17.72,17.72,0,0,1-2.66-.19,10.15,10.15,0,0,1-2.12-.51v-2a12,12,0,0,0,4.4.78,7.81,7.81,0,0,0,3-.42,1.66,1.66,0,0,0,.91-1.69A1.91,1.91,0,0,0,1449,1671.81Z" transform="translate(-974.83 -1390.66)"/><path class="cls-1" d="M1440.23,1659.74l.11-1.59H1451v1.59Z" transform="translate(-974.83 -1390.66)"/><path class="cls-1" d="M1454.66,1661.35a5.23,5.23,0,0,0-2.2-1.53V1658h7.48v1.78h-4.67a4,4,0,0,1,1.78,1.73,7.68,7.68,0,0,1,.49,3.11v9a1.39,1.39,0,0,0,.31,1,1.27,1.27,0,0,0,1,.32h1.54v1.81h-2.54a2.35,2.35,0,0,1-1.82-.72,2.64,2.64,0,0,1-.66-1.87V1664A4.34,4.34,0,0,0,1454.66,1661.35Z" transform="translate(-974.83 -1390.66)"/><path class="cls-1" d="M1467.85,1668.36a2.32,2.32,0,0,0-1.36.83,3.11,3.11,0,0,0-.37,1.73v2.89c0,2-.93,3-2.78,3h-1.67V1675h1.08a1.12,1.12,0,0,0,.89-.31,1.48,1.48,0,0,0,.27-1v-2.8a4.28,4.28,0,0,1,.42-2,2.37,2.37,0,0,1,1.47-1.15l-3.22-.7v-2.6a9.09,9.09,0,0,1,2.88-1.78,10.3,10.3,0,0,1,3.9-.7,7.26,7.26,0,0,1,4.81,1.36,5.24,5.24,0,0,1,1.59,4.2v9.29h-2.21v-9.37a3.49,3.49,0,0,0-1-2.79,5.09,5.09,0,0,0-3.24-.8,9.16,9.16,0,0,0-2.82.42,4.93,4.93,0,0,0-2,1.12v.57l3.32.75Z" transform="translate(-974.83 -1390.66)"/><path class="cls-1" d="M1482.2,1664.6a2.94,2.94,0,0,0-1,2.49v3.37a4.57,4.57,0,0,1,3.13-1.1h1.78l.11,1.8h-1.94a4.59,4.59,0,0,0-3.08,1.06v4.56H1479v-9.45q0-5.4,6.32-5.4t6.27,5.4v9.45h-2.22v-9.69a3,3,0,0,0-1-2.49,5,5,0,0,0-3-.78A5.06,5.06,0,0,0,1482.2,1664.6Z" transform="translate(-974.83 -1390.66)"/><path class="cls-1" d="M979,1705.62a2.65,2.65,0,0,0-.48,1.7v5.86h-2.22v-5.91a3.68,3.68,0,0,1,.53-2,2.77,2.77,0,0,1,1.66-1.14l-3-.7v-2.6a8.93,8.93,0,0,1,2.87-1.78,10.3,10.3,0,0,1,3.9-.7,7.23,7.23,0,0,1,4.81,1.36,5.24,5.24,0,0,1,1.59,4.2v9.29h-2.21v-9.37a3.49,3.49,0,0,0-.94-2.79,5.14,5.14,0,0,0-3.25-.8,9.25,9.25,0,0,0-2.82.42,4.93,4.93,0,0,0-2,1.12v.57l3.16.75v1.68A2.83,2.83,0,0,0,979,1705.62Z" transform="translate(-974.83 -1390.66)"/><path class="cls-1" d="M978.68,1691a3.56,3.56,0,0,1,2.55-.86h6.48l-.11,1.44h-6.18a2.36,2.36,0,0,0-1.53.4,1.67,1.67,0,0,0-.47,1.32,1.49,1.49,0,0,0,.45,1.21,2,2,0,0,0,1.3.36,1.91,1.91,0,0,0,1.19-.3,1,1,0,0,0,.38-.89V1693h1.46v.62a1,1,0,0,0,.31.87,1.67,1.67,0,0,0,1,.24h1.73v1.4h-1.86a3.22,3.22,0,0,1-1.22-.2,1.22,1.22,0,0,1-.7-.63,1.78,1.78,0,0,1-1,.66,4.79,4.79,0,0,1-1.46.23,3.48,3.48,0,0,1-2.4-.77,2.77,2.77,0,0,1-.87-2.18A3,3,0,0,1,978.68,1691Z" transform="translate(-974.83 -1390.66)"/><path class="cls-1" d="M994.08,1698.6v9.58a2.9,2.9,0,0,0,3.38,3.38,5.87,5.87,0,0,0,2.49-.54,6.39,6.39,0,0,0,2-1.46v-11h2.22v14.58h-2l-.14-1.76a7.69,7.69,0,0,1-5.34,2,4.69,4.69,0,0,1-3.61-1.35,5.54,5.54,0,0,1-1.25-3.89v-9.61Z" transform="translate(-974.83 -1390.66)"/><path class="cls-1" d="M1001,1692a2.75,2.75,0,0,1,2-.8,2.7,2.7,0,0,1,2,.8,2.63,2.63,0,0,1,.81,2,2.6,2.6,0,0,1-.81,2,2.76,2.76,0,0,1-2,.78,2.82,2.82,0,0,1-2-.78,2.57,2.57,0,0,1-.82-2A2.6,2.6,0,0,1,1001,1692Zm1.06,2.88a1.27,1.27,0,0,0,.95.4,1.25,1.25,0,0,0,.94-.4,1.27,1.27,0,0,0,.39-.93,1.31,1.31,0,0,0-.39-.94,1.26,1.26,0,0,0-.94-.41,1.28,1.28,0,0,0-.95.41,1.32,1.32,0,0,0-.4.94A1.28,1.28,0,0,0,1002.09,1694.91Z" transform="translate(-974.83 -1390.66)"/><path class="cls-1" d="M1013.28,1703.76a6.42,6.42,0,0,0-.26-2,1.91,1.91,0,0,0-1-1.11,5.11,5.11,0,0,0-2.23-.38,9.88,9.88,0,0,0-1.87.19,11.27,11.27,0,0,0-1.85.51v-1.83a10.77,10.77,0,0,1,1.94-.54,11,11,0,0,1,2.19-.22,5.63,5.63,0,0,1,4,1.23,5.38,5.38,0,0,1,1.25,4v9.67h-2.21Z" transform="translate(-974.83 -1390.66)"/><path class="cls-1" d="M1019.79,1698.06a4.69,4.69,0,0,1,1.72-1.84H1017v-1.78h7.29v1.76a4.27,4.27,0,0,0-2.24,1.91,7.7,7.7,0,0,0-.62,3.46v8.48a1.39,1.39,0,0,0,.31,1,1.28,1.28,0,0,0,1,.32h1.54v1.81h-2.54a2.34,2.34,0,0,1-1.82-.72,2.6,2.6,0,0,1-.67-1.87v-9.75A5.74,5.74,0,0,1,1019.79,1698.06Z" transform="translate(-974.83 -1390.66)"/><path class="cls-1" d="M1035.63,1710.67a3.51,3.51,0,0,0,1.06-2.84v-13.55h2.21v13.39a5.46,5.46,0,0,1-1.65,4.32,8.46,8.46,0,0,1-9.5,0,5.46,5.46,0,0,1-1.65-4.32v-9.07h2.22v9.23a3.53,3.53,0,0,0,1,2.84,5.95,5.95,0,0,0,6.26,0Z" transform="translate(-974.83 -1390.66)"/><path class="cls-1" d="M1051.56,1700.92v-1.83a16.24,16.24,0,0,1,5.19-.76q7.2,0,7.21,7.4a9.17,9.17,0,0,1-.89,4.2,6.35,6.35,0,0,1-2.41,2.63,6.45,6.45,0,0,1-3.32.89,9.05,9.05,0,0,1-1.11-.08,4.68,4.68,0,0,1-.94-.22l-2.27-6.05h-1.73l.11-1.8h3l2.35,6.26.46,0a4.05,4.05,0,0,0,3.21-1.45,6.5,6.5,0,0,0,1.27-4.41,8,8,0,0,0-.54-3.24,3.36,3.36,0,0,0-1.75-1.73,8.28,8.28,0,0,0-3.3-.54A14.43,14.43,0,0,0,1051.56,1700.92Z" transform="translate(-974.83 -1390.66)"/><path class="cls-1" d="M1060.24,1692a2.76,2.76,0,0,1,2-.8,2.69,2.69,0,0,1,2,.8,2.63,2.63,0,0,1,.81,2,2.6,2.6,0,0,1-.81,2,2.75,2.75,0,0,1-2,.78,2.82,2.82,0,0,1-2-.78,2.6,2.6,0,0,1-.82-2A2.64,2.64,0,0,1,1060.24,1692Zm1.06,2.88a1.28,1.28,0,0,0,1,.4,1.24,1.24,0,0,0,.93-.4,1.27,1.27,0,0,0,.39-.93,1.31,1.31,0,0,0-.39-.94,1.25,1.25,0,0,0-.93-.41,1.28,1.28,0,0,0-1,.41,1.31,1.31,0,0,0-.39.94A1.27,1.27,0,0,0,1061.3,1694.91Z" transform="translate(-974.83 -1390.66)"/><path class="cls-1" d="M1072.49,1703.76a6.42,6.42,0,0,0-.26-2,1.91,1.91,0,0,0-1-1.11,5.06,5.06,0,0,0-2.22-.38,9.9,9.9,0,0,0-1.88.19,11.27,11.27,0,0,0-1.85.51v-1.83a12.31,12.31,0,0,1,4.13-.76,5.63,5.63,0,0,1,4,1.23,5.38,5.38,0,0,1,1.25,4v9.67h-2.21Z" transform="translate(-974.83 -1390.66)"/><path class="cls-1" d="M1080.13,1703.32H1085a3.33,3.33,0,0,0,2.43-.71,3.07,3.07,0,0,0,.7-2.23v-1.78h2.22v1.75c0,2.07-.78,3.35-2.32,3.84a2.72,2.72,0,0,1,1.71,1.31,5.31,5.31,0,0,1,.45,2.36v5.32h-2.22v-5a4.64,4.64,0,0,0-.28-1.81,1.72,1.72,0,0,0-1-.92,5.1,5.1,0,0,0-1.87-.27h-4.7v8h-2.21V1698.6h2.21Z" transform="translate(-974.83 -1390.66)"/><path class="cls-1" d="M1095.57,1698.6v9.58a2.9,2.9,0,0,0,3.38,3.38,6,6,0,0,0,2.5-.54,6.46,6.46,0,0,0,2-1.46v-11h2.22v14.58h-2l-.13-1.76a7.73,7.73,0,0,1-5.35,2,4.65,4.65,0,0,1-3.6-1.35,5.5,5.5,0,0,1-1.26-3.89v-9.61Z" transform="translate(-974.83 -1390.66)"/><path class="cls-1" d="M1103.48,1696.14v-4.37h2.22v4.37Z" transform="translate(-974.83 -1390.66)"/><path class="cls-1" d="M1114.77,1703.76a6.42,6.42,0,0,0-.26-2,1.91,1.91,0,0,0-1-1.11,5.06,5.06,0,0,0-2.22-.38,10,10,0,0,0-1.88.19,11.55,11.55,0,0,0-1.85.51v-1.83a12.31,12.31,0,0,1,4.13-.76,5.61,5.61,0,0,1,4,1.23,5.33,5.33,0,0,1,1.25,4v9.67h-2.21Z" transform="translate(-974.83 -1390.66)"/><path class="cls-1" d="M1122,1702.41a2,2,0,0,0,.76,1.72,3.38,3.38,0,0,0,2.08.57h1.54l.13,1.68h-1.75a3,3,0,0,0-2.14.67,2.64,2.64,0,0,0-.7,2,2.1,2.1,0,0,0,1,1.92,6.19,6.19,0,0,0,3.12.62,5,5,0,0,0,3.13-.81,3,3,0,0,0,1-2.54v-9.61h2.21v9.23a5.4,5.4,0,0,1-1.54,4.2,6.78,6.78,0,0,1-4.75,1.42,8.58,8.58,0,0,1-4.72-1.11,3.68,3.68,0,0,1-1.7-3.32,3.74,3.74,0,0,1,.58-2.12,3.65,3.65,0,0,1,1.63-1.33,2.91,2.91,0,0,1-1.55-1.11,3.43,3.43,0,0,1-.58-2,3.8,3.8,0,0,1,1.19-3,4.54,4.54,0,0,1,3.13-1.05,7.45,7.45,0,0,1,2.24.3v1.83a6,6,0,0,0-1.84-.24C1122.79,1700.22,1122,1701,1122,1702.41Z" transform="translate(-974.83 -1390.66)"/><path class="cls-1" d="M1137.8,1698.6v11.45a1.44,1.44,0,0,0,.31,1,1.31,1.31,0,0,0,1,.32h1.54v1.81h-2.54a2.35,2.35,0,0,1-1.82-.72,2.64,2.64,0,0,1-.66-1.87v-12Z" transform="translate(-974.83 -1390.66)"/><path class="cls-1" d="M1152.81,1710.67a3.51,3.51,0,0,0,1.06-2.84v-13.55h2.21v13.39a5.46,5.46,0,0,1-1.65,4.32,8.46,8.46,0,0,1-9.5,0,5.46,5.46,0,0,1-1.65-4.32v-9.07h2.22v9.23a3.53,3.53,0,0,0,1,2.84,5.95,5.95,0,0,0,6.26,0Z" transform="translate(-974.83 -1390.66)"/><path class="cls-1" d="M1144,1691a3.56,3.56,0,0,1,2.55-.86h5.83l-.11,1.44h-5.53a2.32,2.32,0,0,0-1.53.4,1.63,1.63,0,0,0-.47,1.32,1.51,1.51,0,0,0,.44,1.21,2.06,2.06,0,0,0,1.31.36,1.91,1.91,0,0,0,1.19-.3,1.05,1.05,0,0,0,.38-.89V1693h1.46v.62a1,1,0,0,0,.31.87,1.65,1.65,0,0,0,1,.24H1152v1.4h-1.22a3.2,3.2,0,0,1-1.21-.2,1.19,1.19,0,0,1-.7-.63,1.82,1.82,0,0,1-1,.66,4.79,4.79,0,0,1-1.46.23,3.52,3.52,0,0,1-2.41-.77,2.8,2.8,0,0,1-.86-2.18A3,3,0,0,1,1144,1691Z" transform="translate(-974.83 -1390.66)"/><path class="cls-1" d="M1161.51,1698.6v9.58a2.89,2.89,0,0,0,3.37,3.38,5.92,5.92,0,0,0,2.5-.54,6.62,6.62,0,0,0,2-1.46v-11h2.21v14.58h-2l-.13-1.76a7.73,7.73,0,0,1-5.35,2,4.68,4.68,0,0,1-3.6-1.35,5.5,5.5,0,0,1-1.26-3.89v-9.61Z" transform="translate(-974.83 -1390.66)"/><path class="cls-1" d="M1182.66,1708.21a2.59,2.59,0,0,0-1-.73c-.4-.18-1-.39-1.82-.65l-1-.32a17.15,17.15,0,0,1-2.44-1,4.63,4.63,0,0,1-1.55-1.28,3.22,3.22,0,0,1-.6-2,3.36,3.36,0,0,1,1.43-2.93,7.29,7.29,0,0,1,4.21-1,13.78,13.78,0,0,1,2.29.19,13,13,0,0,1,2,.46v1.94a10.82,10.82,0,0,0-4-.7,7.15,7.15,0,0,0-2.86.42,1.58,1.58,0,0,0-.89,1.58,1.7,1.7,0,0,0,.47,1.23,3.51,3.51,0,0,0,1.22.75c.49.19,1.32.47,2.49.85a13.69,13.69,0,0,1,2.47,1,4.3,4.3,0,0,1,1.52,1.33,3.52,3.52,0,0,1,.55,2q0,4-5.78,4a17.72,17.72,0,0,1-2.66-.19,10.82,10.82,0,0,1-2.12-.51v-2a12,12,0,0,0,4.4.78,7.81,7.81,0,0,0,3-.42,1.68,1.68,0,0,0,.91-1.69A1.91,1.91,0,0,0,1182.66,1708.21Z" transform="translate(-974.83 -1390.66)"/><path class="cls-1" d="M1193.77,1703.76a6.47,6.47,0,0,0-.25-2,2,2,0,0,0-1-1.11,5.14,5.14,0,0,0-2.23-.38,10,10,0,0,0-1.88.19,11.55,11.55,0,0,0-1.85.51v-1.83a12.44,12.44,0,0,1,4.13-.76,5.61,5.61,0,0,1,4,1.23,5.34,5.34,0,0,1,1.26,4v9.67h-2.22Z" transform="translate(-974.83 -1390.66)"/><path class="cls-1" d="M1201,1702.41a2,2,0,0,0,.76,1.72,3.38,3.38,0,0,0,2.08.57h1.54l.13,1.68h-1.75a2.94,2.94,0,0,0-2.13.67,2.61,2.61,0,0,0-.71,2,2.09,2.09,0,0,0,1,1.92,6.12,6.12,0,0,0,3.11.62,5,5,0,0,0,3.14-.81,3.05,3.05,0,0,0,1-2.54v-9.61h2.22v9.23a5.44,5.44,0,0,1-1.54,4.2,6.82,6.82,0,0,1-4.76,1.42,8.58,8.58,0,0,1-4.72-1.11,3.7,3.7,0,0,1-1.7-3.32,3.74,3.74,0,0,1,.58-2.12,3.65,3.65,0,0,1,1.63-1.33,3,3,0,0,1-1.55-1.11,3.43,3.43,0,0,1-.58-2,3.84,3.84,0,0,1,1.19-3,4.54,4.54,0,0,1,3.13-1.05,7.45,7.45,0,0,1,2.24.3v1.83a6,6,0,0,0-1.84-.24C1201.79,1700.22,1201,1701,1201,1702.41Z" transform="translate(-974.83 -1390.66)"/><path class="cls-1" d="M1215.67,1698.06a4.71,4.71,0,0,1,1.73-1.84h-4.57v-1.78h7.29v1.76a4.31,4.31,0,0,0-2.24,1.91,7.84,7.84,0,0,0-.62,3.46v8.48a1.44,1.44,0,0,0,.31,1,1.31,1.31,0,0,0,1,.32h1.54v1.81h-2.54a2.35,2.35,0,0,1-1.82-.72,2.64,2.64,0,0,1-.66-1.87v-9.75A5.74,5.74,0,0,1,1215.67,1698.06Z" transform="translate(-974.83 -1390.66)"/><path class="cls-1" d="M1232.5,1699.13a5.09,5.09,0,0,1,2.2,2.1,6,6,0,0,1,.71,2.9v9h-2.22v-9a3.88,3.88,0,0,0-1.06-2.89,4.78,4.78,0,0,0-3.45-1,4.64,4.64,0,0,0-3.83,1.47,6.79,6.79,0,0,0-1.19,4.33,7.06,7.06,0,0,0,1,4.27,3.55,3.55,0,0,0,3,1.27,6,6,0,0,0,1.86-.22v1.84a7.83,7.83,0,0,1-2.24.27,5.32,5.32,0,0,1-4.24-1.85q-1.59-1.85-1.59-5.58a8.17,8.17,0,0,1,1.82-5.67,7,7,0,0,1,5.47-2A8,8,0,0,1,1232.5,1699.13Z" transform="translate(-974.83 -1390.66)"/><path class="cls-1" d="M1231.28,1694.55h5.91l-.11,1.59h-7.4v-2.54h-2.13V1692h3.73Z" transform="translate(-974.83 -1390.66)"/><path class="cls-1" d="M1249.49,1700.65a1.58,1.58,0,0,0-1.29-.43,1.89,1.89,0,0,0-1.91,1.27h-1.49a3.06,3.06,0,0,0-.81-1,1.9,1.9,0,0,0-1.11-.28,2,2,0,0,0-2,1.47,12.61,12.61,0,0,0-.57,4.33,7.06,7.06,0,0,0,1,4.27,3.57,3.57,0,0,0,3,1.27,6,6,0,0,0,1.86-.22v1.84a7.83,7.83,0,0,1-2.24.27,5.33,5.33,0,0,1-4.24-1.85q-1.59-1.85-1.59-5.58a11.36,11.36,0,0,1,1.17-5.69,4,4,0,0,1,5.07-1.65,3.88,3.88,0,0,1,1.24,1.08,4,4,0,0,1,1.47-1,4.51,4.51,0,0,1,1.8-.38,3,3,0,0,1,2.38.93,3.94,3.94,0,0,1,.83,2.69v11.23h-2.22v-10.93A2.78,2.78,0,0,0,1249.49,1700.65Z" transform="translate(-974.83 -1390.66)"/><path class="cls-1" d="M1249.82,1696.14v-4.37H1252v4.37Z" transform="translate(-974.83 -1390.66)"/><path class="cls-1" d="M1254.93,1700.92v-1.83a14,14,0,0,1,2.44-.56,20.56,20.56,0,0,1,2.85-.2q3.67,0,5.35,1.86t1.67,5.73q0,3.78-1.67,5.65t-5.27,1.88a16,16,0,0,1-3-.28,12.48,12.48,0,0,1-2.55-.75v-7.34h5.35l.11,1.81h-3.24V1711a10.09,10.09,0,0,0,3.32.54,6.06,6.06,0,0,0,2.8-.54,3.16,3.16,0,0,0,1.5-1.77,9.39,9.39,0,0,0,.48-3.33,9.16,9.16,0,0,0-.52-3.42,3.17,3.17,0,0,0-1.66-1.75,7.84,7.84,0,0,0-3.2-.53A15,15,0,0,0,1254.93,1700.92Z" transform="translate(-974.83 -1390.66)"/><path class="cls-1" d="M1271,1698.06a4.79,4.79,0,0,1,1.73-1.84h-4.56v-1.78h7.29v1.76a4.27,4.27,0,0,0-2.24,1.91,7.69,7.69,0,0,0-.63,3.46v8.48a1.4,1.4,0,0,0,.32,1,1.27,1.27,0,0,0,.95.32h1.54v1.81h-2.53a2.36,2.36,0,0,1-1.83-.72,2.64,2.64,0,0,1-.66-1.87v-9.75A5.85,5.85,0,0,1,1271,1698.06Z" transform="translate(-974.83 -1390.66)"/><path class="cls-1" d="M1286.84,1710.67a3.53,3.53,0,0,0,1.05-2.84v-13.55h2.22v13.39a5.46,5.46,0,0,1-1.65,4.32,8.46,8.46,0,0,1-9.5,0,5.46,5.46,0,0,1-1.65-4.32v-9.07h2.21v9.23a3.54,3.54,0,0,0,1.06,2.84,5.95,5.95,0,0,0,6.26,0Z" transform="translate(-974.83 -1390.66)"/><text class="cls-2" transform="translate(1.15 46.15)"><tspan xml:space="preserve"> 2  30  </tspan><tspan x="0" y="60"></tspan></text><rect class="cls-3" x="1.17" y="153.34" width="528" height="3"/></svg>