<svg id="เงา3" xmlns="http://www.w3.org/2000/svg" viewBox="0 0 444.11 480.02"><defs><style>.cls-1{opacity:0.62;}</style></defs><title>46</title><g class="cls-1"><polygon points="124.85 466.61 124.85 466.61 124.84 466.61 124.85 466.61"/><polygon points="10.15 98.68 10.15 98.69 10.15 98.68 10.15 98.68"/><path d="M471.71,1817.74l-2.79-1Z" transform="translate(-346.86 -1351.13)"/><path d="M357,1449.81c-3,4.46-4.58,7.11-4.58,7.11L540,1596.67,468.07,1815c1.18,1,2.4,1.87,3.64,2.77,96.3,33.71,207.28,3.08,271.56-83,79.3-106.21,57.49-256.6-48.71-335.9s-256.6-57.49-335.9,48.71C358.1,1448.3,357.56,1449.06,357,1449.81Z" transform="translate(-346.86 -1351.13)"/><path d="M346.86,1464.91q4.77-7.67,10.15-15.09-5.4,7.41-10.15,15.09Z" transform="translate(-346.86 -1351.13)"/></g></svg>