<svg id="T4" xmlns="http://www.w3.org/2000/svg" viewBox="0 0 540 490.09"><defs><style>.cls-1{font-size:27px;fill:#fff;font-family:Kanit-Light, Kanit;font-weight:300;}.cls-2{letter-spacing:0.45em;}.cls-3{fill:#fff7dd;}</style></defs><title>47</title><text class="cls-1" x="-974.56" y="-1390.66"><tspan x="0.19" y="141.62"> </tspan><tspan x="0.15" y="214.42">เนื่องจากคนไทยบริโภคข้าวเป็นอาหารหลักโดยมี</tspan><tspan x="0.14" y="250.83">หลักเกณฑ์เฉลี่ยเกษตรกรบริโภคข้าว คนละ 200 </tspan><tspan x="0.12" y="287.22">กิโลกรัมข้าวเปลือก/ปี ซึ่งเพียงพอต่อการบริโภค</tspan><tspan x="0.1" y="323.62">ตลอดปี เพื่อยึดหลักพึ่งตนเองได้อย่างมีอิสรภาพ</tspan><tspan class="cls-2" x="517.46" y="323.62">	</tspan></text><path class="cls-3" d="M984.9,1426.56a3.32,3.32,0,0,0-.92.5,1.34,1.34,0,0,0-.35.35,4.77,4.77,0,0,1,1.72.32,6,6,0,0,1,1.33.7l.65.48c.06.1.21.31.42.65a6.82,6.82,0,0,1,.63,1.27,4.34,4.34,0,0,1,.3,1.58,4.27,4.27,0,0,1-.65,2.15,5.8,5.8,0,0,1-1.7,1.82,3.92,3.92,0,0,1-2.25.73,6.47,6.47,0,0,1-4.65-1.58,6.23,6.23,0,0,1-1.65-4.72,7.8,7.8,0,0,1,2.9-6.15,9.61,9.61,0,0,1,11.75-.38,10.93,10.93,0,0,1,3.7,4.73,9.88,9.88,0,0,0,.2-2.15,9.61,9.61,0,0,0-1-4,8.55,8.55,0,0,0-2.37-3.2,5.11,5.11,0,0,0-1.8-.75,10.91,10.91,0,0,0-2.65-.3,12.43,12.43,0,0,0-1.85.15,4.87,4.87,0,0,0-1.65.5l-1.15.65a9.42,9.42,0,0,1-1.38.8,3.13,3.13,0,0,1-1.22.25,1.88,1.88,0,0,1-1.25-.53,1.68,1.68,0,0,1-.6-1.32,3.27,3.27,0,0,1,1.67-2.7,13.4,13.4,0,0,1,3.95-1.8,14,14,0,0,1,7.63-.23,10.91,10.91,0,0,1,2.9,1.28,5.13,5.13,0,0,0,1.27-.73c.42-.31.81-.62,1.18-.92a13.58,13.58,0,0,1,1.27-1,1.9,1.9,0,0,1,1-.3,1.41,1.41,0,0,1,1.1.45,1.72,1.72,0,0,1,.4,1.2,5.14,5.14,0,0,1-.9,2.35,7.43,7.43,0,0,1-2.15,2.35q2.15,3.8,2.15,10.35a16.4,16.4,0,0,1-.85,5.15c-.57,1.7-1.4,2.55-2.5,2.55a2.91,2.91,0,0,1-1.9-.55,4.25,4.25,0,0,1-1.1-1.9,20.94,20.94,0,0,0-3.1-6.05,5.92,5.92,0,0,0-5-2.3A4.4,4.4,0,0,0,984.9,1426.56Zm.05,4.1a2,2,0,0,0-1.62-.7,2.41,2.41,0,0,0-1.58.55,2.17,2.17,0,0,0-.67,1.8,2,2,0,0,0,.62,1.52,2.34,2.34,0,0,0,1.63.58,2.31,2.31,0,0,0,1.52-.58,1.84,1.84,0,0,0,.68-1.47A2.54,2.54,0,0,0,985,1430.66Z" transform="translate(-974.56 -1390.66)"/><path class="cls-3" d="M996,1410.58a1.81,1.81,0,0,1-.65-1.42c-.07-1-.12-2.1-.15-3.4s-.05-2.3-.05-3a1.82,1.82,0,0,1,.5-1.28,1.71,1.71,0,0,1,1.4-.67c1.87,0,2.8.63,2.8,1.9,0,.9,0,2-.1,3.35s-.12,2.36-.15,3.1a2.32,2.32,0,0,1-.6,1.4,2,2,0,0,1-1.45.5A2.41,2.41,0,0,1,996,1410.58Z" transform="translate(-974.56 -1390.66)"/><path class="cls-3" d="M1011,1418.53a16.56,16.56,0,0,0-2,1.08,9.79,9.79,0,0,1-1,.6,2.13,2.13,0,0,1-.85.25,1.76,1.76,0,0,1-1.23-.48,1.74,1.74,0,0,1-.52-1.37,3.1,3.1,0,0,1,1.25-2.38,8.91,8.91,0,0,1,3.1-1.67,11.34,11.34,0,0,1,3.5-.6,8.24,8.24,0,0,1,6.87,3q2.43,3,2.43,8.55a17.83,17.83,0,0,1-.85,5.47,9.68,9.68,0,0,1-2.8,4.35,7.28,7.28,0,0,1-5,1.73,6.31,6.31,0,0,1-4.33-1.45,4.91,4.91,0,0,1,.13-7.4,6.06,6.06,0,0,1,4.2-1.55,8.73,8.73,0,0,1,2,.27,5.87,5.87,0,0,1,1.68.63,4,4,0,0,0,.12-.65,14.22,14.22,0,0,0,.08-1.75,9.28,9.28,0,0,0-1.25-5.15,4.14,4.14,0,0,0-3.7-1.9A4.5,4.5,0,0,0,1011,1418.53Zm4.72,11.85a2.19,2.19,0,0,0-1.62-.57,2.76,2.76,0,0,0-1.9.65,2.43,2.43,0,0,0-.75,2,1.56,1.56,0,0,0,.82,1.3,3,3,0,0,0,1.63.55,2.47,2.47,0,0,0,1.67-.63,2.14,2.14,0,0,0,.73-1.72A2.05,2.05,0,0,0,1015.7,1430.38Z" transform="translate(-974.56 -1390.66)"/><path class="cls-3" d="M1054.45,1427.61a5.13,5.13,0,0,1,1.83,4.2,4.8,4.8,0,0,1-.68,2.35,5.94,5.94,0,0,1-1.75,2,3.73,3.73,0,0,1-2.22.78c-2,0-3.49-.45-4.38-1.35a8,8,0,0,1-1.72-4.65,16.9,16.9,0,0,0-2.58,1.55,22.62,22.62,0,0,0-2.47,2.2,9.53,9.53,0,0,1-2,1.67,5.54,5.54,0,0,1-2.52.58,3,3,0,0,1-2.1-.83,2.25,2.25,0,0,1-.9-1.57,17.73,17.73,0,0,1,.15-2c.26-3.44.45-6,.55-7.55a8.92,8.92,0,0,1-1.05.27,7.34,7.34,0,0,1-1.6.18,4.43,4.43,0,0,1-3.5-1.73,5.84,5.84,0,0,1-1.45-3.87,4.58,4.58,0,0,1,1-2.83,6.58,6.58,0,0,1,2.47-2,7.15,7.15,0,0,1,3.08-.72,5.31,5.31,0,0,1,4.27,1.67,6.78,6.78,0,0,1,1.43,4.53c0,1.76-.08,3.8-.23,6.1s-.29,4-.42,5.15a21.37,21.37,0,0,1,7.8-4.85q-.3-3.21-.3-9.1a4.57,4.57,0,0,1,.77-2.93,3,3,0,0,1,2.38-.92,1.74,1.74,0,0,1,1.55.65,2.56,2.56,0,0,1,.45,1.5c0,1.46,0,3-.15,4.45,0,.46,0,1.3-.08,2.5s0,2.25,0,3.15A6.8,6.8,0,0,1,1054.45,1427.61Zm-20.72-9.63a2.75,2.75,0,0,0-1.6-.57,2.66,2.66,0,0,0-1.75.65,2,2,0,0,0-.8,1.65,3.14,3.14,0,0,0,.57,1.72,1.68,1.68,0,0,0,1.43.88,3.19,3.19,0,0,0,2.17-.68,2.29,2.29,0,0,0,.78-1.82A2.11,2.11,0,0,0,1033.73,1418Zm18.62,15.35a1.48,1.48,0,0,0,.53-1.22,3.86,3.86,0,0,0-.43-1.95,1.75,1.75,0,0,0-1.67-.75,4,4,0,0,0-1.65.35,6.33,6.33,0,0,0-.1,1.1,4.22,4.22,0,0,0,.47,2.05,1.64,1.64,0,0,0,1.53.85A2,2,0,0,0,1052.35,1433.33Z" transform="translate(-974.56 -1390.66)"/><path class="cls-3" d="M1068.1,1436.71a3.34,3.34,0,0,1-1.77.55,2.33,2.33,0,0,1-1.68-.6,2.08,2.08,0,0,1-.62-1.55,42.82,42.82,0,0,1,.37-5q.38-3.08.93-5.72a4.36,4.36,0,0,1-2,.4,5.61,5.61,0,0,1-4-1.55,5.38,5.38,0,0,1-.15-7.5,5,5,0,0,1,3.85-1.55,6.74,6.74,0,0,1,3.9,1.07,5.85,5.85,0,0,1,2.15,3.63,10.67,10.67,0,0,1,3.37-3.5,9.11,9.11,0,0,1,5-1.3,5.52,5.52,0,0,1,4.75,2.17,15.2,15.2,0,0,1,2.35,6.28,81.18,81.18,0,0,1,.65,12.15,2,2,0,0,1-.85,1.82,3.39,3.39,0,0,1-1.8.53,2.63,2.63,0,0,1-1.5-.58,1.93,1.93,0,0,1-.8-1.67c0-.7,0-1.32,0-1.85.07-1.6.1-3.09.1-4.45,0-1.8-.07-3.39-.2-4.75a10.67,10.67,0,0,0-1-3.83,2.71,2.71,0,0,0-2.57-1.62c-2,0-3.92,1.41-5.75,4.25q-1.85,2.75-1.85,12.65A1.69,1.69,0,0,1,1068.1,1436.71Zm-3.3-15.55a1.71,1.71,0,0,0,.68-1.25,3.26,3.26,0,0,0-.53-2,2.46,2.46,0,0,0-2.07-.7,1.82,1.82,0,0,0-1.53.77,2.72,2.72,0,0,0-.57,1.63,1.91,1.91,0,0,0,.75,1.52,2.85,2.85,0,0,0,1.9.63A2.07,2.07,0,0,0,1064.8,1421.16Z" transform="translate(-974.56 -1390.66)"/><path class="cls-3" d="M1084,1405.71l-.1,3.45a2.05,2.05,0,0,1-.43,1.27,1.3,1.3,0,0,1-1.12.58,19.87,19.87,0,0,1-3.35-.5,40.8,40.8,0,0,0-6.7-.8c-1.6,0-3,.06-4.2.17s-1.93.19-2.2.23l-1,.1c-.3,0-.55,0-.75,0-.9,0-1.35-.69-1.35-2a5,5,0,0,1,1.22-2.38,11.79,11.79,0,0,1,3.53-2.95,10.64,10.64,0,0,1,5.4-1.32,8.37,8.37,0,0,1,4.3,1.1,10.19,10.19,0,0,1,3.2,2.9c0-.27-.07-.9-.2-1.9l-.1-1.05a1.76,1.76,0,0,1,.57-1.43,2.16,2.16,0,0,1,1.38-.47,1.72,1.72,0,0,1,1.95,2Zm-5.4,2.1a10,10,0,0,0-2.68-2.48,6.26,6.26,0,0,0-3.12-.72,6.15,6.15,0,0,0-3,.77,7.08,7.08,0,0,0-2.17,1.83,32.74,32.74,0,0,1,4.65-.35A46,46,0,0,1,1078.63,1407.81Z" transform="translate(-974.56 -1390.66)"/><path class="cls-3" d="M1080.7,1398.68a1.45,1.45,0,0,1-.57-1.17l-.15-3.4-.1-1.9a1.58,1.58,0,0,1,.5-1,1.66,1.66,0,0,1,1.3-.55q2.4,0,2.4,1.5c0,.76,0,1.7-.1,2.8s-.12,2-.15,2.55a2,2,0,0,1-.48,1.17,1.67,1.67,0,0,1-1.22.38A2.43,2.43,0,0,1,1080.7,1398.68Z" transform="translate(-974.56 -1390.66)"/><path class="cls-3" d="M1121.73,1420.36a8.34,8.34,0,0,1,2.7,6.15,9.18,9.18,0,0,1-1,4.1,10.53,10.53,0,0,1-4.78,4.8,16.13,16.13,0,0,1-7.32,1.6,10.66,10.66,0,0,1-4.65-1,19.46,19.46,0,0,1-4-2.62,6.27,6.27,0,0,1-1.33-2,5.68,5.68,0,0,1-.57-2.15,2.54,2.54,0,0,1,.62-1.78,2.19,2.19,0,0,1,1.68-.67,2.46,2.46,0,0,1,1.65.5,10.22,10.22,0,0,1,1.45,1.6,13.25,13.25,0,0,0,1.45,1.67,5.34,5.34,0,0,0,1.75,1.08,7.29,7.29,0,0,0,2.75.45,7.75,7.75,0,0,0,5.25-1.65,5.85,5.85,0,0,0,1.9-4.65,3.32,3.32,0,0,0-1.25-2.33,9.12,9.12,0,0,0-2.35-1.67,9.35,9.35,0,0,0-2.4-.7,19,19,0,0,1-3.53-1.18,1.9,1.9,0,0,1-1.17-1.82,2.5,2.5,0,0,1,.75-1.68,23.11,23.11,0,0,1,2.25-2.07,24.3,24.3,0,0,0,2.25-2.08,2.5,2.5,0,0,0,.75-1.67,11.89,11.89,0,0,0-2.85-.25c-.57,0-1.42,0-2.55.1s-1.77.1-2.3.1a7.2,7.2,0,0,1-3.08-.6c-.85-.4-1.27-.92-1.27-1.55a5.5,5.5,0,0,1,.2-1.68,1.06,1.06,0,0,1,.75-.77,3.55,3.55,0,0,1,1.25-.15c1.63,0,3,0,4.25.15s2.35.1,3,.1l4.15,0c3.4,0,5.1.81,5.1,2.45a7,7,0,0,1-1.88,4.17,23.18,23.18,0,0,1-4.42,4.18A13.63,13.63,0,0,1,1121.73,1420.36Z" transform="translate(-974.56 -1390.66)"/><path class="cls-3" d="M1155.53,1433.33a7.21,7.21,0,0,1-2.5,2.7,6.67,6.67,0,0,1-3.65,1,7.91,7.91,0,0,1-1.88-.25,4.1,4.1,0,0,1-1.37-.55c-.77-.57-1.29-1-1.58-1.25a2.41,2.41,0,0,1-.62-1.1,7.94,7.94,0,0,1-.2-2.1,3.87,3.87,0,0,1,1.47-3.15,5.35,5.35,0,0,1,3.48-1.2,7.46,7.46,0,0,1,1.52.15,8.3,8.3,0,0,1,1.18.32c.3.12.48.19.55.23a2.58,2.58,0,0,0-.35-1.43,3.34,3.34,0,0,0-.95-.92,4.56,4.56,0,0,0-1.83-.63,13.2,13.2,0,0,0-2.27-.22,9.49,9.49,0,0,0-2.25.4,11.43,11.43,0,0,1-2.4.4,2.45,2.45,0,0,1-2.08-1.2,4.5,4.5,0,0,1-.82-2.6,7.93,7.93,0,0,1,.65-3.08,11.33,11.33,0,0,1,1.7-2.87,6.19,6.19,0,0,1,5.05-2.1,7.18,7.18,0,0,1,2,.32,21.67,21.67,0,0,1,2.43.93q1.1.49,1.77.72a3,3,0,0,0,1.18.18,1.85,1.85,0,0,0,1.32-.5,4.08,4.08,0,0,1,.63-.55,5.63,5.63,0,0,1,.92-.73,1.9,1.9,0,0,1,1-.22,1.69,1.69,0,0,1,1.2.42,1.77,1.77,0,0,1,.45,1.33,3.64,3.64,0,0,1-.78,2,7.09,7.09,0,0,1-1.92,1.9,4,4,0,0,1-2.2.78,6.92,6.92,0,0,1-2.1-.3,18.06,18.06,0,0,1-2.3-1c-.74-.34-1.36-.59-1.88-.78a4.87,4.87,0,0,0-1.62-.27,2.59,2.59,0,0,0-2.25,1.12,4.78,4.78,0,0,0-.85,2.73,12,12,0,0,1,1.8-.35,14.54,14.54,0,0,1,2-.15,10.58,10.58,0,0,1,6.4,1.85,6.81,6.81,0,0,1,2.1,2.65,8.72,8.72,0,0,1,.8,3.75A7.45,7.45,0,0,1,1155.53,1433.33Zm-5.13.43a1.43,1.43,0,0,0,.73-1.35,2.37,2.37,0,0,0-.48-1.48,1.68,1.68,0,0,0-1.42-.62,3.4,3.4,0,0,0-1.55.4,1.23,1.23,0,0,0-.8,1.15,2.85,2.85,0,0,0,.45,1.62,1.56,1.56,0,0,0,1.4.68A3.46,3.46,0,0,0,1150.4,1433.76Z" transform="translate(-974.56 -1390.66)"/><path class="cls-3" d="M1156.55,1402.88a1.59,1.59,0,0,1,.68,1.38,5.44,5.44,0,0,1-1.23,3,10.14,10.14,0,0,1-3.55,3,11.41,11.41,0,0,1-5.47,1.25,22.25,22.25,0,0,1-3.5-.25c-1-.17-1.5-.6-1.5-1.3a.48.48,0,0,1,.22-.38,3.71,3.71,0,0,1,.53-.32,7.46,7.46,0,0,0,1-.7,1.88,1.88,0,0,0,.55-1,1.4,1.4,0,0,0-.4.07,1.92,1.92,0,0,1-.55.08,2.8,2.8,0,0,1-2.15-1.1,3.78,3.78,0,0,1-1-2.55,3,3,0,0,1,1.2-2.53,4.57,4.57,0,0,1,2.85-.92,5,5,0,0,1,3.2,1,3.43,3.43,0,0,1,1.25,2.85,6,6,0,0,1-1.2,4c2.2,0,4.11-1.47,5.75-4.4.06-.1.18-.31.35-.63a2.19,2.19,0,0,1,.62-.75,1.46,1.46,0,0,1,.88-.27A2.46,2.46,0,0,1,1156.55,1402.88Zm-10.47,1.38a1.33,1.33,0,0,0-.5-1,1.89,1.89,0,0,0-1.25-.42,1.94,1.94,0,0,0-1.23.37,1.11,1.11,0,0,0-.47.88c0,1.2.51,1.8,1.55,1.8C1145.45,1405.86,1146.08,1405.32,1146.08,1404.26Z" transform="translate(-974.56 -1390.66)"/><path class="cls-3" d="M1183.68,1420.73a13.62,13.62,0,0,1,.85,4.53,12.32,12.32,0,0,1-3,8.67q-3,3.28-8.45,3.28a14.41,14.41,0,0,1-4.73-.73,7.92,7.92,0,0,1-3.57-2.57,7.17,7.17,0,0,1-1.33-2.5,10.27,10.27,0,0,1-.47-3.15,5.54,5.54,0,0,1,.85-3,6.16,6.16,0,0,1,2.3-2.23,6,6,0,0,1,3-.82,5.2,5.2,0,0,1,3.32,1.17,3.68,3.68,0,0,1,1.48,3,5.13,5.13,0,0,1-1.25,3.32,3.81,3.81,0,0,1-3,1.53,6.94,6.94,0,0,1-1.9-.25,3.64,3.64,0,0,0,2.17,1.82,9.57,9.57,0,0,0,3.13.53,6.49,6.49,0,0,0,2.72-.63,6.28,6.28,0,0,0,2.23-1.62,6,6,0,0,0,1.22-2.55,15.48,15.48,0,0,0,.33-3.4,6.78,6.78,0,0,0-.45-2.5,12.23,12.23,0,0,0-1.45-2.55,4.14,4.14,0,0,0-2-1.33,7.62,7.62,0,0,0-2.57-.57,11.4,11.4,0,0,0-2.68.37,7,7,0,0,0-2.37,1c-.74.5-1.27.85-1.6,1.05a2.22,2.22,0,0,1-1.15.3,1.75,1.75,0,0,1-1.38-.6,2.19,2.19,0,0,1-.52-1.5,2.63,2.63,0,0,1,1.07-2.18,18.6,18.6,0,0,1,3.13-1.82,11.25,11.25,0,0,1,5.05-.95,16.59,16.59,0,0,1,5,.62,10.1,10.1,0,0,1,6,6.2Zm-14.5,4.18a2,2,0,0,0-1.55.6,2.33,2.33,0,0,0-.55,1.65,1.47,1.47,0,0,0,.6,1.22,2.11,2.11,0,0,0,1.35.48,1.92,1.92,0,0,0,1.4-.6,2,2,0,0,0,.6-1.45A1.66,1.66,0,0,0,1169.18,1424.91Z" transform="translate(-974.56 -1390.66)"/><path class="cls-3" d="M1196.83,1431.61c0,1.36,1.58,2.05,4.75,2.05a9,9,0,0,0,4.47-1,3.74,3.74,0,0,0,1.73-3.57q0-4.56.15-8.08c.1-2.35.2-3.87.3-4.57a3.47,3.47,0,0,1,.85-1.85,2.68,2.68,0,0,1,2-.6,2.13,2.13,0,0,1,1.57.45,2,2,0,0,1,.43,1.45l-.1,1.65q-.6,7.05-.6,13.15a5.28,5.28,0,0,1-1,3,7.79,7.79,0,0,1-3.53,2.52,17.35,17.35,0,0,1-6.52,1,15.53,15.53,0,0,1-3.85-.53,10,10,0,0,1-3.48-1.57,3.18,3.18,0,0,1-1.42-2.65,3.44,3.44,0,0,1,1.5-2.7,7.51,7.51,0,0,1-3.53-3.23,9.62,9.62,0,0,1-1.27-4.87,7.78,7.78,0,0,1,1-4,7.41,7.41,0,0,1,2.63-2.7,6.29,6.29,0,0,1,3.3-1,6.12,6.12,0,0,1,4.37,1.37,4.76,4.76,0,0,1,1.43,3.58,6.15,6.15,0,0,1-1.55,4.2,5.74,5.74,0,0,1-4.5,1.75,7.27,7.27,0,0,1-1.2-.1,9,9,0,0,1-1.25-.35,3.22,3.22,0,0,0,1.2,2.1,3.5,3.5,0,0,0,2.25.8,8.77,8.77,0,0,0,1.82-.15,7.91,7.91,0,0,0,1.38-.45,5.67,5.67,0,0,1,.55-.23,3.36,3.36,0,0,1,1.15-.17.85.85,0,0,1,.82.4,2.22,2.22,0,0,1,.23,1.1,1.79,1.79,0,0,1-.55,1.07,4.41,4.41,0,0,1-1.73,1.1,8.06,8.06,0,0,1-3,.48h-.3A1.72,1.72,0,0,0,1196.83,1431.61Zm-2.78-10.28a2.09,2.09,0,0,0,1.68.68,2.91,2.91,0,0,0,2-.7,2.41,2.41,0,0,0,.8-1.9,2,2,0,0,0-2.25-2.25,2.84,2.84,0,0,0-1.93.72,2.33,2.33,0,0,0-.82,1.83A2.43,2.43,0,0,0,1194.05,1421.33Z" transform="translate(-974.56 -1390.66)"/><path class="cls-3" d="M1230.8,1428.68a5.85,5.85,0,0,0-4.87-2.27,4.37,4.37,0,0,0-1.6.25,3.14,3.14,0,0,0-.95.5,1.34,1.34,0,0,0-.35.35,4.78,4.78,0,0,1,1.75.32,6.76,6.76,0,0,1,1.3.68,6.08,6.08,0,0,1,.6.45l.42.65a6.82,6.82,0,0,1,.63,1.27,4.11,4.11,0,0,1-.33,3.73,5.23,5.23,0,0,1-1.67,1.8,4,4,0,0,1-2.25.7,6.32,6.32,0,0,1-4.58-1.58,6.23,6.23,0,0,1-1.62-4.67,7.64,7.64,0,0,1,2.85-6,9.14,9.14,0,0,1,6.2-2.2,9,9,0,0,1,5.42,1.8,10.76,10.76,0,0,1,3.68,4.7,14.61,14.61,0,0,0,.15-2.15,10.53,10.53,0,0,0-.95-4.15,8.1,8.1,0,0,0-2.3-3.25,5.87,5.87,0,0,0-1.8-.75,10.56,10.56,0,0,0-2.65-.3,12.07,12.07,0,0,0-1.83.15,4.83,4.83,0,0,0-1.62.5c-.37.2-.75.43-1.15.7-.64.36-1.12.62-1.45.77a2.67,2.67,0,0,1-1.1.23,1.88,1.88,0,0,1-1.25-.53,1.62,1.62,0,0,1-.6-1.27,3.33,3.33,0,0,1,1.65-2.68,12.77,12.77,0,0,1,3.9-1.82,14.11,14.11,0,0,1,3.9-.65,12.82,12.82,0,0,1,4.27.6,12.32,12.32,0,0,1,3.33,1.85,9.79,9.79,0,0,1,3.25,5.2,28.66,28.66,0,0,1,1,7.9,16.23,16.23,0,0,1-.85,5.1c-.57,1.7-1.4,2.55-2.5,2.55a2.74,2.74,0,0,1-1.83-.55,4.77,4.77,0,0,1-1.12-1.9A21,21,0,0,0,1230.8,1428.68Zm-6.55,5.15a1.8,1.8,0,0,0,.68-1.42,2.54,2.54,0,0,0-.58-1.7,2,2,0,0,0-1.62-.7,2.3,2.3,0,0,0-1.55.55,2.2,2.2,0,0,0-.65,1.8,1.92,1.92,0,0,0,.62,1.47,2.26,2.26,0,0,0,1.58.58A2.31,2.31,0,0,0,1224.25,1433.83Z" transform="translate(-974.56 -1390.66)"/><path class="cls-3" d="M1254.83,1420.91a3.52,3.52,0,0,0,1.7-.6,7.41,7.41,0,0,0,2-1.85,2.42,2.42,0,0,1,1.9-1,1.24,1.24,0,0,1,.92.47,1.56,1.56,0,0,1,.43,1.08,3.4,3.4,0,0,1-.7,2.35,9.13,9.13,0,0,1-4,2.87,16.07,16.07,0,0,1-4.9.68,8.35,8.35,0,0,1-2.78-.53,7.81,7.81,0,0,1-2.42-1.32,4.72,4.72,0,0,1-1.25-1.63,6.16,6.16,0,0,1-.35-2.37,3.73,3.73,0,0,1,1.35-3,4.9,4.9,0,0,1,3.3-1.15,6.36,6.36,0,0,1,4,1.07,4,4,0,0,1,1.4,3.33A3.3,3.3,0,0,1,1254.83,1420.91Zm0,11.9a3.41,3.41,0,0,0,1.7-.63,7.69,7.69,0,0,0,2-1.87,2.45,2.45,0,0,1,1.9-1,1.21,1.21,0,0,1,.92.47,1.5,1.5,0,0,1,.43,1,3.73,3.73,0,0,1-.7,2.4,9.24,9.24,0,0,1-4,2.82,15.93,15.93,0,0,1-4.92.68,8.63,8.63,0,0,1-2.8-.5,7.1,7.1,0,0,1-2.4-1.35,4.25,4.25,0,0,1-1.25-1.58,6.35,6.35,0,0,1-.35-2.42,3.78,3.78,0,0,1,1.37-3,4.9,4.9,0,0,1,3.28-1.17,6.23,6.23,0,0,1,4,1.1,4,4,0,0,1,1.4,3.35A3.3,3.3,0,0,1,1254.83,1432.81Zm-6.4-13.3a1.82,1.82,0,0,0,.5,1.35,1.7,1.7,0,0,0,1.25.5c1.46,0,2.2-.59,2.2-1.75a1.74,1.74,0,0,0-.53-1.4,2.73,2.73,0,0,0-1.77-.45C1249,1417.76,1248.43,1418.34,1248.43,1419.51Zm.45,10.5a1.63,1.63,0,0,0-.45,1.35,1.88,1.88,0,0,0,.5,1.4,1.7,1.7,0,0,0,1.25.5c1.46,0,2.2-.59,2.2-1.75a1.74,1.74,0,0,0-.53-1.4,2.73,2.73,0,0,0-1.77-.45A1.86,1.86,0,0,0,1248.88,1430Z" transform="translate(-974.56 -1390.66)"/><path class="cls-3" d="M1297.28,1420.36a8.34,8.34,0,0,1,2.7,6.15,9.18,9.18,0,0,1-1,4.1,10.53,10.53,0,0,1-4.78,4.8,16.16,16.16,0,0,1-7.32,1.6,10.66,10.66,0,0,1-4.65-1,19.46,19.46,0,0,1-4-2.62,6.11,6.11,0,0,1-1.33-2,5.68,5.68,0,0,1-.57-2.15,2.49,2.49,0,0,1,.62-1.78,2.19,2.19,0,0,1,1.68-.67,2.46,2.46,0,0,1,1.65.5,10.22,10.22,0,0,1,1.45,1.6,13.25,13.25,0,0,0,1.45,1.67,5.34,5.34,0,0,0,1.75,1.08,7.29,7.29,0,0,0,2.75.45,7.75,7.75,0,0,0,5.25-1.65,5.85,5.85,0,0,0,1.9-4.65,3.32,3.32,0,0,0-1.25-2.33,9.12,9.12,0,0,0-2.35-1.67,9.49,9.49,0,0,0-2.4-.7,19,19,0,0,1-3.53-1.18,1.9,1.9,0,0,1-1.17-1.82,2.5,2.5,0,0,1,.75-1.68,23.11,23.11,0,0,1,2.25-2.07,24.3,24.3,0,0,0,2.25-2.08,2.5,2.5,0,0,0,.75-1.67,12,12,0,0,0-2.85-.25c-.57,0-1.42,0-2.55.1s-1.77.1-2.3.1a7.2,7.2,0,0,1-3.08-.6c-.85-.4-1.27-.92-1.27-1.55a5.5,5.5,0,0,1,.2-1.68,1.06,1.06,0,0,1,.75-.77,3.55,3.55,0,0,1,1.25-.15c1.63,0,3,0,4.25.15s2.35.1,3,.1l4.15,0c3.4,0,5.1.81,5.1,2.45a7,7,0,0,1-1.88,4.17,23.18,23.18,0,0,1-4.42,4.18A13.63,13.63,0,0,1,1297.28,1420.36Z" transform="translate(-974.56 -1390.66)"/><path class="cls-3" d="M1329,1414.43a23,23,0,0,1,1,6.68,21.62,21.62,0,0,1-1.38,7.7,14.19,14.19,0,0,1-4.1,6,9.94,9.94,0,0,1-6.62,2.3,12.53,12.53,0,0,1-6.7-1.88,13.66,13.66,0,0,1-4.6-4.37,14.93,14.93,0,0,1-1.75-4.18,18.64,18.64,0,0,1-.6-4.67,19.56,19.56,0,0,1,1.72-8,15.66,15.66,0,0,1,4.78-6.25,10.82,10.82,0,0,1,6.65-2.15,16.88,16.88,0,0,1,9,3A23.18,23.18,0,0,1,1329,1414.43Zm-17-1a18.72,18.72,0,0,0-1.6,2.77,14.77,14.77,0,0,0-.9,3.43,12.63,12.63,0,0,0-.2,2.45,12.47,12.47,0,0,0,1.42,6.12,7.22,7.22,0,0,0,3.93,3.48,7.65,7.65,0,0,0,2.7.45,6.17,6.17,0,0,0,5.67-3.33,16.2,16.2,0,0,0,1.93-8.22,14.76,14.76,0,0,0-1.7-7.48,5.67,5.67,0,0,0-5.25-2.92,6.17,6.17,0,0,0-2.48.45,21.07,21.07,0,0,0-2.62,1.45A15.81,15.81,0,0,1,1312.08,1413.41Z" transform="translate(-974.56 -1390.66)"/><path class="cls-3" d="M991.28,1458.06a6.13,6.13,0,0,1,.9,3,8.67,8.67,0,0,1-.85,4,18.38,18.38,0,0,1-2.35,3.38,18,18,0,0,0-1.23,1.6,3.18,3.18,0,0,0-.52,1.3c-.17.93-.28,1.75-.35,2.45s-.12,1.53-.15,2.5c0,.8,0,2.19,0,4.17s.13,3.88.23,5.68c0,0,.24-.13.72-.28a5.75,5.75,0,0,1,1.68-.22,4.48,4.48,0,0,1,3.52,1.7,5.67,5.67,0,0,1,1.48,3.85,4.87,4.87,0,0,1-.9,2.87,6.26,6.26,0,0,1-2.35,2,6.68,6.68,0,0,1-3,.73,5.51,5.51,0,0,1-4.18-1.73,6.34,6.34,0,0,1-1.62-4.52q0-2.36-.15-5.4c0-.8-.07-1.74-.1-2.8s0-2.22,0-3.45l0-1.65.15-2.4a31,31,0,0,1,.3-3.4,6.61,6.61,0,0,1,.85-2.13,26.17,26.17,0,0,1,1.8-2.47,21.78,21.78,0,0,0,2-2.78,4.8,4.8,0,0,0,.65-2.42,3.54,3.54,0,0,0-1.2-2.83,4,4,0,0,0-2.65-1,5.56,5.56,0,0,0-3.35,1,2.83,2.83,0,0,0-1.35,2.33,3,3,0,0,0,.25,1.47,1.48,1.48,0,0,0,.5.58l.35.2a1.66,1.66,0,0,1,.65,1.45,1.69,1.69,0,0,1-.58,1.22,2,2,0,0,1-1.52.58,3.24,3.24,0,0,1-1.63-.63,5.37,5.37,0,0,1-1.7-1.87,6,6,0,0,1-.72-3,6.29,6.29,0,0,1,1.32-3.3,8.69,8.69,0,0,1,2.63-2.7,11.32,11.32,0,0,1,5.5-1.3,7.88,7.88,0,0,1,3.35.72,8.16,8.16,0,0,1,2.15,1.33A10.79,10.79,0,0,1,991.28,1458.06ZM990,1493a2,2,0,0,0,.75-1.57,2.88,2.88,0,0,0-.58-1.65,1.67,1.67,0,0,0-1.42-.85,3.13,3.13,0,0,0-2,.62,2.19,2.19,0,0,0-.75,1.78,2,2,0,0,0,.75,1.77,2.74,2.74,0,0,0,1.6.53A2.58,2.58,0,0,0,990,1493Z" transform="translate(-974.56 -1390.66)"/><path class="cls-3" d="M1024.33,1491.53a10.71,10.71,0,0,1,.7,3.43,1.75,1.75,0,0,1-.78,1.4,2.73,2.73,0,0,1-1.72.6,3.11,3.11,0,0,1-2-.55,2.25,2.25,0,0,1-.82-1.35,30.52,30.52,0,0,0-.78-3.78,7.07,7.07,0,0,0-1.42-2.47,21.71,21.71,0,0,1-2.23,2.67c-.68.69-1.55,1.48-2.62,2.38a26.7,26.7,0,0,1-3.48,2.5,6,6,0,0,1-2.82.6,3.24,3.24,0,0,1-2.45-.85,2.53,2.53,0,0,1-.8-1.75c0-.67,0-1.55.15-2.65q.35-4.31.3-6.8l-.63.27a5.28,5.28,0,0,1-1.87.23,4.44,4.44,0,0,1-2.6-.85,6.23,6.23,0,0,1-1.9-2.15,5.43,5.43,0,0,1-.7-2.6,5,5,0,0,1,1.75-4.18,7.53,7.53,0,0,1,4.8-1.37,5.07,5.07,0,0,1,4.12,1.75,6.86,6.86,0,0,1,1.53,4.45c0,.66,0,1.65,0,3,0,3-.13,6-.4,9a20.33,20.33,0,0,0,3.62-2.75,43.35,43.35,0,0,0,3.33-3.8,9.25,9.25,0,0,1-2.8-3.15,7.44,7.44,0,0,1-1-3.45,4.31,4.31,0,0,1,1-2.65,6.88,6.88,0,0,1,2.4-2,6.1,6.1,0,0,1,2.8-.75,8.33,8.33,0,0,1,2.5.45,6.39,6.39,0,0,1,1.95.9,5,5,0,0,1,2,4,7.52,7.52,0,0,1-.73,3.35,6.68,6.68,0,0,1-2.07,2.5,12.62,12.62,0,0,1,1.17,1.37,7.93,7.93,0,0,1,.93,1.48A27.12,27.12,0,0,1,1024.33,1491.53Zm-20.88-9.7a2.28,2.28,0,0,0,.73-2,2.11,2.11,0,0,0-.8-1.83,2.77,2.77,0,0,0-1.6-.57,2.81,2.81,0,0,0-1.85.65,2,2,0,0,0-.8,1.65,2.91,2.91,0,0,0,.62,1.77,1.88,1.88,0,0,0,1.53.83A3.67,3.67,0,0,0,1003.45,1481.83Zm12-.45a14.35,14.35,0,0,0,2.13,1.58c1.4-1.34,2.1-2.55,2.1-3.65a1.88,1.88,0,0,0-.75-1.45,2.27,2.27,0,0,0-1.5-.65,3.11,3.11,0,0,0-2,.6,2.21,2.21,0,0,0-.72,1.8A2.34,2.34,0,0,0,1015.5,1481.38Z" transform="translate(-974.56 -1390.66)"/><path class="cls-3" d="M1022.8,1462.88a1.59,1.59,0,0,1,.68,1.38,5.44,5.44,0,0,1-1.23,3,10.14,10.14,0,0,1-3.55,3,11.41,11.41,0,0,1-5.47,1.25,22.35,22.35,0,0,1-3.5-.25c-1-.17-1.5-.6-1.5-1.3a.48.48,0,0,1,.22-.38,3.71,3.71,0,0,1,.53-.32,7.46,7.46,0,0,0,1-.7,1.81,1.81,0,0,0,.55-1,1.46,1.46,0,0,0-.4.07,1.92,1.92,0,0,1-.55.08,2.8,2.8,0,0,1-2.15-1.1,3.82,3.82,0,0,1-.95-2.55,3,3,0,0,1,1.2-2.53,4.57,4.57,0,0,1,2.85-.92,4.94,4.94,0,0,1,3.2,1,3.43,3.43,0,0,1,1.25,2.85,6,6,0,0,1-1.2,4q3.3,0,5.75-4.4c.07-.1.18-.31.35-.63a2.31,2.31,0,0,1,.62-.75,1.48,1.48,0,0,1,.88-.27A2.46,2.46,0,0,1,1022.8,1462.88Zm-10.47,1.38a1.33,1.33,0,0,0-.5-1,1.87,1.87,0,0,0-1.25-.42,1.94,1.94,0,0,0-1.23.37,1.11,1.11,0,0,0-.47.88c0,1.2.52,1.8,1.55,1.8C1011.7,1465.86,1012.33,1465.32,1012.33,1464.26Z" transform="translate(-974.56 -1390.66)"/><path class="cls-3" d="M1038.15,1496.71a3.34,3.34,0,0,1-1.77.55,2.33,2.33,0,0,1-1.68-.6,2.08,2.08,0,0,1-.62-1.55,42.82,42.82,0,0,1,.37-5q.38-3.08.93-5.72a4.36,4.36,0,0,1-2,.4,5.59,5.59,0,0,1-4.05-1.55,5.38,5.38,0,0,1-.15-7.5,5,5,0,0,1,3.85-1.55,6.76,6.76,0,0,1,3.9,1.07,5.85,5.85,0,0,1,2.15,3.63,10.67,10.67,0,0,1,3.37-3.5,9.11,9.11,0,0,1,5-1.3,5.52,5.52,0,0,1,4.75,2.17,15.34,15.34,0,0,1,2.35,6.28,81.18,81.18,0,0,1,.65,12.15,2,2,0,0,1-.85,1.82,3.39,3.39,0,0,1-1.8.53,2.63,2.63,0,0,1-1.5-.58,1.91,1.91,0,0,1-.8-1.67c0-.7,0-1.32,0-1.85.06-1.6.1-3.09.1-4.45,0-1.8-.07-3.39-.2-4.75a10.67,10.67,0,0,0-1-3.83,2.72,2.72,0,0,0-2.57-1.62c-2,0-3.92,1.41-5.75,4.25q-1.86,2.75-1.85,12.65A1.69,1.69,0,0,1,1038.15,1496.71Zm-3.3-15.55a1.71,1.71,0,0,0,.68-1.25,3.26,3.26,0,0,0-.53-2,2.46,2.46,0,0,0-2.07-.7,1.8,1.8,0,0,0-1.53.77,2.72,2.72,0,0,0-.57,1.63,1.91,1.91,0,0,0,.75,1.52,2.85,2.85,0,0,0,1.9.63A2.05,2.05,0,0,0,1034.85,1481.16Z" transform="translate(-974.56 -1390.66)"/><path class="cls-3" d="M1055.23,1463.16a3.94,3.94,0,0,1,1.55,3.2,4.53,4.53,0,0,1-1.2,3.55,5.28,5.28,0,0,1-1.78.95,6.87,6.87,0,0,1-2.12.35,6.56,6.56,0,0,1-4.08-1.28,4,4,0,0,1-1.67-3.32,4.43,4.43,0,0,1,1.45-3.4,4.35,4.35,0,0,1,1.77-1,7.22,7.22,0,0,1,2.18-.37A6.16,6.16,0,0,1,1055.23,1463.16Zm-1.7,3.4a1.78,1.78,0,0,0-.55-1.4,1.91,1.91,0,0,0-1.35-.5,2.87,2.87,0,0,0-1.85.52,1.86,1.86,0,0,0-.65,1.53,1.42,1.42,0,0,0,.7,1.32,3.27,3.27,0,0,0,1.75.43A1.7,1.7,0,0,0,1053.53,1466.56Z" transform="translate(-974.56 -1390.66)"/><path class="cls-3" d="M1064.65,1478.73a5,5,0,0,0-1.47.58,14.25,14.25,0,0,0-1.25.75,8.51,8.51,0,0,1-1,.57,1.94,1.94,0,0,1-.85.23,1.84,1.84,0,0,1-1.2-.53,1.68,1.68,0,0,1-.6-1.32,3.39,3.39,0,0,1,1.35-2.58,10,10,0,0,1,3.25-1.85,10.17,10.17,0,0,1,3.35-.67c3.17,0,5.47,1,6.92,3a14.25,14.25,0,0,1,2.33,8c.13,4.06.2,7.2.2,9.4a3.34,3.34,0,0,1-.7,2.32,2.9,2.9,0,0,1-2.25.78,2.11,2.11,0,0,1-1.6-.7,2.31,2.31,0,0,1-.65-1.6q0-2.51.15-4.8c.07-2,.1-3.57.1-4.7q0-7-4.65-7.05A8.45,8.45,0,0,0,1064.65,1478.73Z" transform="translate(-974.56 -1390.66)"/><path class="cls-3" d="M1107.9,1487.61a5.13,5.13,0,0,1,1.83,4.2,4.8,4.8,0,0,1-.68,2.35,5.94,5.94,0,0,1-1.75,2,3.71,3.71,0,0,1-2.22.78c-2,0-3.49-.45-4.38-1.35a8,8,0,0,1-1.72-4.65,16.9,16.9,0,0,0-2.58,1.55,22.62,22.62,0,0,0-2.47,2.2,9.29,9.29,0,0,1-2,1.67,5.51,5.51,0,0,1-2.52.58,3,3,0,0,1-2.1-.83,2.25,2.25,0,0,1-.9-1.57,17.73,17.73,0,0,1,.15-2c.26-3.44.45-6,.55-7.55a8.92,8.92,0,0,1-1,.27,7.27,7.27,0,0,1-1.6.18,4.41,4.41,0,0,1-3.5-1.73,5.84,5.84,0,0,1-1.45-3.87,4.58,4.58,0,0,1,1-2.83,6.58,6.58,0,0,1,2.47-2,7.18,7.18,0,0,1,3.08-.72,5.31,5.31,0,0,1,4.27,1.67,6.78,6.78,0,0,1,1.43,4.53c0,1.76-.08,3.8-.23,6.1s-.29,4-.42,5.15a21.37,21.37,0,0,1,7.8-4.85q-.3-3.21-.3-9.1a4.57,4.57,0,0,1,.77-2.93,3,3,0,0,1,2.38-.92,1.74,1.74,0,0,1,1.55.65,2.56,2.56,0,0,1,.45,1.5c0,1.46,0,3-.15,4.45,0,.46,0,1.3-.08,2.5s-.06,2.25,0,3.15A6.78,6.78,0,0,1,1107.9,1487.61Zm-20.72-9.63a2.77,2.77,0,0,0-1.6-.57,2.68,2.68,0,0,0-1.75.65,2,2,0,0,0-.8,1.65,3.14,3.14,0,0,0,.57,1.72,1.68,1.68,0,0,0,1.43.88,3.19,3.19,0,0,0,2.17-.68,2.29,2.29,0,0,0,.78-1.82A2.11,2.11,0,0,0,1087.18,1478Zm18.62,15.35a1.48,1.48,0,0,0,.53-1.22,3.86,3.86,0,0,0-.43-1.95,1.75,1.75,0,0,0-1.67-.75,4,4,0,0,0-1.65.35,6.33,6.33,0,0,0-.1,1.1,4.22,4.22,0,0,0,.47,2.05,1.64,1.64,0,0,0,1.53.85A2,2,0,0,0,1105.8,1493.33Z" transform="translate(-974.56 -1390.66)"/><path class="cls-3" d="M1117.05,1478.73a5,5,0,0,0-1.47.58,12.92,12.92,0,0,0-1.25.75,8.51,8.51,0,0,1-.95.57,1.94,1.94,0,0,1-.85.23,1.84,1.84,0,0,1-1.2-.53,1.68,1.68,0,0,1-.6-1.32,3.39,3.39,0,0,1,1.35-2.58,10,10,0,0,1,3.25-1.85,10.13,10.13,0,0,1,3.35-.67c3.16,0,5.47,1,6.92,3a14.25,14.25,0,0,1,2.33,8c.13,4.06.2,7.2.2,9.4a3.39,3.39,0,0,1-.7,2.32,2.9,2.9,0,0,1-2.25.78,2.11,2.11,0,0,1-1.6-.7,2.26,2.26,0,0,1-.65-1.6q0-2.51.15-4.8c.06-2,.1-3.57.1-4.7q0-7-4.65-7.05A8.45,8.45,0,0,0,1117.05,1478.73Z" transform="translate(-974.56 -1390.66)"/><path class="cls-3" d="M1152.08,1485.11c0-.94,0-2.25,0-3.95a37.84,37.84,0,0,1,.25-5,2.72,2.72,0,0,1,.87-1.7,2.69,2.69,0,0,1,1.88-.65,1.86,1.86,0,0,1,1.57.67,2.57,2.57,0,0,1,.53,1.63,78.9,78.9,0,0,0-.3,8.85c0,1.1,0,2,0,2.75s0,1.21,0,1.45c0,3.1-.68,5.21-2.05,6.35s-3.47,1.7-6.3,1.7q-3.85,0-5.55-1.53a5.23,5.23,0,0,1-1.7-4.12,5.65,5.65,0,0,1,.37-2.1c.25-.64.63-1.45,1.13-2.45a22,22,0,0,0,1.3-2.78,7.67,7.67,0,0,0,.45-2.67,4.69,4.69,0,0,0-1-3.08,3.84,3.84,0,0,0-3.15-1.27,4.49,4.49,0,0,0-1.93.47,1.85,1.85,0,0,0-1.12,1.38,2.31,2.31,0,0,1,.75-.1,3.36,3.36,0,0,1,2.77,1.25,5.24,5.24,0,0,1,1,3.45,4.3,4.3,0,0,1-1.38,3.22,5.1,5.1,0,0,1-3.72,1.33,4.24,4.24,0,0,1-3.63-1.65,6.4,6.4,0,0,1-1.22-3.9,8.07,8.07,0,0,1,1.12-3.93,9.65,9.65,0,0,1,3.15-3.37,8.08,8.08,0,0,1,4.58-1.35c2.7,0,4.7.7,6,2.12a8.38,8.38,0,0,1,2,5.88,10.48,10.48,0,0,1-.4,3,23.7,23.7,0,0,1-1.15,2.9c-.34.8-.58,1.41-.73,1.82a3.75,3.75,0,0,0-.22,1.28,2.08,2.08,0,0,0,2.35,2.35,4.36,4.36,0,0,0,2.72-.7c.59-.47.88-1.42.88-2.85Zm-13.5-3.15a1.85,1.85,0,0,0-1.55-.7,2.38,2.38,0,0,0-1.5.47,1.78,1.78,0,0,0-.6,1.48,2.1,2.1,0,0,0,1.9,2.25,2.52,2.52,0,0,0,1.62-.55,1.79,1.79,0,0,0,.68-1.45A2.34,2.34,0,0,0,1138.58,1482Z" transform="translate(-974.56 -1390.66)"/><path class="cls-3" d="M1156.2,1462.88a1.59,1.59,0,0,1,.68,1.38,5.44,5.44,0,0,1-1.23,3,10.14,10.14,0,0,1-3.55,3,11.41,11.41,0,0,1-5.47,1.25,22.25,22.25,0,0,1-3.5-.25c-1-.17-1.5-.6-1.5-1.3a.48.48,0,0,1,.22-.38,3.71,3.71,0,0,1,.53-.32,7.46,7.46,0,0,0,1-.7,1.81,1.81,0,0,0,.55-1,1.46,1.46,0,0,0-.4.07,1.92,1.92,0,0,1-.55.08,2.8,2.8,0,0,1-2.15-1.1,3.82,3.82,0,0,1-.95-2.55,3,3,0,0,1,1.2-2.53,4.57,4.57,0,0,1,2.85-.92,5,5,0,0,1,3.2,1,3.43,3.43,0,0,1,1.25,2.85,6,6,0,0,1-1.2,4c2.2,0,4.11-1.47,5.75-4.4.07-.1.18-.31.35-.63a2.31,2.31,0,0,1,.62-.75,1.48,1.48,0,0,1,.88-.27A2.46,2.46,0,0,1,1156.2,1462.88Zm-10.47,1.38a1.33,1.33,0,0,0-.5-1,1.87,1.87,0,0,0-1.25-.42,1.94,1.94,0,0,0-1.23.37,1.11,1.11,0,0,0-.47.88c0,1.2.51,1.8,1.55,1.8C1145.1,1465.86,1145.73,1465.32,1145.73,1464.26Z" transform="translate(-974.56 -1390.66)"/><path class="cls-3" d="M1167.05,1478.73a5,5,0,0,0-1.47.58,12.92,12.92,0,0,0-1.25.75,8.51,8.51,0,0,1-.95.57,1.94,1.94,0,0,1-.85.23,1.84,1.84,0,0,1-1.2-.53,1.68,1.68,0,0,1-.6-1.32,3.39,3.39,0,0,1,1.35-2.58,10,10,0,0,1,3.25-1.85,10.13,10.13,0,0,1,3.35-.67c3.16,0,5.47,1,6.92,3a14.25,14.25,0,0,1,2.33,8c.13,4.06.2,7.2.2,9.4a3.39,3.39,0,0,1-.7,2.32,2.9,2.9,0,0,1-2.25.78,2.11,2.11,0,0,1-1.6-.7,2.26,2.26,0,0,1-.65-1.6q0-2.51.15-4.8c.06-2,.1-3.57.1-4.7q0-7-4.65-7.05A8.45,8.45,0,0,0,1167.05,1478.73Z" transform="translate(-974.56 -1390.66)"/><path class="cls-3" d="M1188.18,1478.53a17.34,17.34,0,0,0-2,1.08,9.79,9.79,0,0,1-1,.6,2.13,2.13,0,0,1-.85.25,1.76,1.76,0,0,1-1.23-.48,1.74,1.74,0,0,1-.52-1.37,3.13,3.13,0,0,1,1.25-2.38,9,9,0,0,1,3.1-1.67,11.34,11.34,0,0,1,3.5-.6,8.25,8.25,0,0,1,6.87,3q2.43,3,2.43,8.55a17.53,17.53,0,0,1-.85,5.47,9.68,9.68,0,0,1-2.8,4.35,7.28,7.28,0,0,1-5,1.73,6.31,6.31,0,0,1-4.33-1.45,4.91,4.91,0,0,1,.13-7.4,6.08,6.08,0,0,1,4.2-1.55,8.73,8.73,0,0,1,2,.27,5.87,5.87,0,0,1,1.68.63,4,4,0,0,0,.12-.65,14.22,14.22,0,0,0,.08-1.75,9.28,9.28,0,0,0-1.25-5.15,4.15,4.15,0,0,0-3.7-1.9A4.53,4.53,0,0,0,1188.18,1478.53Zm4.72,11.85a2.19,2.19,0,0,0-1.62-.57,2.76,2.76,0,0,0-1.9.65,2.43,2.43,0,0,0-.75,2,1.56,1.56,0,0,0,.82,1.3,3,3,0,0,0,1.63.55,2.47,2.47,0,0,0,1.67-.63,2.14,2.14,0,0,0,.73-1.72A2.05,2.05,0,0,0,1192.9,1490.38Z" transform="translate(-974.56 -1390.66)"/><rect class="cls-3" x="1.44" y="153.34" width="528" height="3"/></svg>