<svg id="เงา4" xmlns="http://www.w3.org/2000/svg" viewBox="0 0 480.12 482.53"><defs><style>.cls-1{opacity:0.62;}</style></defs><title>48</title><g class="cls-1"><polygon points="1.17 218.78 1.17 218.78 1.17 218.78 1.17 218.78"/><polygon points="331.76 20.7 331.76 20.7 331.76 20.7 331.76 20.7"/><path d="M309.45,1580.39c.09-1,.21-2,.32-3C309.66,1578.43,309.54,1579.41,309.45,1580.39Z" transform="translate(-308.28 -1361.62)"/><path d="M640,1382.31C556,1342,466,1373,466,1373l74.37,221.71L355,1455c-.66,1.37-48,67-45.55,125.4-10.1,101.53,45.79,202.18,144.59,244.38,121.89,52.08,262.92-4.52,315-126.41s-4.52-262.92-126.41-315C641.76,1383,640.9,1382.67,640,1382.31Z" transform="translate(-308.28 -1361.62)"/><path d="M623,1376q8.58,2.81,17.06,6.3-8.47-3.49-17.06-6.31Z" transform="translate(-308.28 -1361.62)"/></g></svg>