<svg id="ต้นไม้1" xmlns="http://www.w3.org/2000/svg" viewBox="0 0 235.35 351.29"><defs><style>.cls-1{fill:#547d41;}.cls-2{fill:#bad28b;}.cls-3{fill:#4d4032;}.cls-4{fill:#5e867e;}.cls-5{fill:#f3b744;}.cls-6{fill:#f7d94a;}</style></defs><title>7</title><path class="cls-1" d="M1293.92,686.35s55.81,6.33,76.82-31.48-11.18-33.34-24.59-26.18c0,0,27.72-29.5,9.84-47.38s-34.42,11.62-34.42,11.62,4.92-44.26-33.08-44.26-39.22,37.74-39.22,37.74-9.47-36.4-36.53-35-16.33,35-16.33,35-21-10.47-36.65,8.31,6.7,34,6.7,34-24.14-4.78-24.14,20.18,17.44,33.36,38.89,37.88c0,0-4,16.14,49.9,1.39C1231.11,688.14,1300.43,709.46,1293.92,686.35Z" transform="translate(-1142.32 -548.67)"/><path class="cls-2" d="M1201.89,728s-27.19-4-21.86-22.62,21.86,0,21.86,0-9.77-26.66,4.23-27.33S1219.77,691,1219.77,691s-2-17.28,13.84-19,9.79,24.43,9.79,24.43,6.41-15.65,24.3-12.28,12.49,23.88-8.77,28.65c0,0,14.51-1.31,14.85,8.48s-14.18,13.5-27,5.06a13.12,13.12,0,0,1-16.83,1S1221.12,729.7,1201.89,728Z" transform="translate(-1142.32 -548.67)"/><path class="cls-3" d="M1256.14,897.86s7.13,4.75,13.67,0-4.16-32.44-3.57-126.88-.89-179-5-177.08-1,71.38-2.16,126.82S1251.73,892.71,1256.14,897.86Z" transform="translate(-1142.32 -548.67)"/><path class="cls-3" d="M1262.39,765.16s18.29,6.82,26.93-6.82,4.55-31.37,9.55-31.37,6.11,54.73-36.48,44.8Z" transform="translate(-1142.32 -548.67)"/><path class="cls-3" d="M1264.67,744s-18.29,6.82-26.93-6.82-4.54-31.37-9.55-31.37-6.11,54.73,36.48,44.8Z" transform="translate(-1142.32 -548.67)"/><path class="cls-3" d="M1263.25,653.89" transform="translate(-1142.32 -548.67)"/><path class="cls-3" d="M1262.39,649.66s18.29,6.82,26.93-6.82,4.55-31.37,9.55-31.37,6.11,54.73-36.48,44.8Z" transform="translate(-1142.32 -548.67)"/><path class="cls-3" d="M1260,675.84s-18.3,6.82-26.94-6.82-4.54-31.37-9.54-31.37-6.12,54.73,36.48,44.8Z" transform="translate(-1142.32 -548.67)"/><path class="cls-3" d="M1260.79,633s-8.77,3.06-13-3.78-4.16-10.23-6.07-9c-1.1.7,4.3,19.48,17.35,16.34" transform="translate(-1142.32 -548.67)"/><path class="cls-3" d="M1295.83,633s-8.77,3.06-13-3.78-4.17-10.23-6.08-9c-1.09.7,4.3,19.48,17.35,16.34" transform="translate(-1142.32 -548.67)"/><path class="cls-3" d="M1231.87,720.21s-8.77,3.07-13-3.77-4.16-10.24-6.08-9c-1.09.69,4.31,19.47,17.35,16.34" transform="translate(-1142.32 -548.67)"/><path class="cls-3" d="M1265,807.22s-11.14,4.67-16.12-3.37-5.12-11.46-7.12-9.68,5.07,22.92,20.41,19.23" transform="translate(-1142.32 -548.67)"/><path class="cls-3" d="M1287.71,649.67s5.19,4.72,16,1.89,10.38-10.85,12.74-10.62-1.36,13.12-15.21,14.63a26.56,26.56,0,0,1-17.67-4.14" transform="translate(-1142.32 -548.67)"/><path class="cls-3" d="M1227.66,665.73s-20.84,9-32.53-8.69c0,0-1.42-2.68-2.84-1.42s10.24,23.4,36.61,13.94Z" transform="translate(-1142.32 -548.67)"/><path class="cls-4" d="M1300.89,751.85s-36.11,3.42-35.56-17.25,21.3-7.54,21.3-7.54-12.62-16.41,0-21.33,14.26,13.67,14.26,13.67-1.22-13.14,13.62-14.5,6.08,18.33,6.08,18.33,13.12-15.31,25.16-1.64-18.69,19.7-18.69,19.7S1340.28,757,1300.89,751.85Z" transform="translate(-1142.32 -548.67)"/><path class="cls-5" d="M1186,660c-3.52,10.21-16,13-21.15,10.87-7.66-3.18,1-10.22,1.86-13.85,1.3-5.7-4-18.16,6.2-20.53C1182.68,634.24,1190.86,646,1186,660Z" transform="translate(-1142.32 -548.67)"/><path class="cls-6" d="M1360,689.78c-3.51,10.21-16,13-21.14,10.88-7.67-3.18,1-10.23,1.86-13.86,1.29-5.7-4-18.16,6.2-20.53C1356.63,664,1364.8,675.77,1360,689.78Z" transform="translate(-1142.32 -548.67)"/><path class="cls-6" d="M1302.56,767.19c2.74,8,12.51,10.15,16.51,8.49,6-2.49-.81-8-1.46-10.82-1-4.45,3.11-14.18-4.84-16C1305.17,747.06,1298.79,756.25,1302.56,767.19Z" transform="translate(-1142.32 -548.67)"/><path class="cls-6" d="M1310.6,667.57c-.31,8.42-9,13.35-13.32,12.93-6.45-.63-1.55-7.87-1.76-10.77-.33-4.55-7.11-12.66,0-16.74C1302.23,649.08,1311,656,1310.6,667.57Z" transform="translate(-1142.32 -548.67)"/><path class="cls-6" d="M1234.93,742.65c-.3,8.42-9,13.35-13.31,12.93-6.45-.63-1.56-7.87-1.77-10.77-.33-4.55-7.1-12.66,0-16.75C1226.57,724.16,1235.35,731.08,1234.93,742.65Z" transform="translate(-1142.32 -548.67)"/></svg>