<svg id="ต้นไม้2" xmlns="http://www.w3.org/2000/svg" viewBox="0 0 167.51 386.62"><defs><style>.cls-1{fill:#b4bd6d;}.cls-2{fill:#162c53;}.cls-3{fill:#d75b4d;}.cls-4{fill:#f3b744;}</style></defs><title>8</title><path class="cls-1" d="M1392.92,724.54s-6.78,28-27.11,24.33-11.7-15.7-11.7-15.7-15.71,10.16-27.72-1.54,12.62-15.1,12.62-15.1-30.92-3.92-32.39-26.5,18.65-12.27,18.65-12.27-28-20.13-24.54-41.73,19.14-7.36,19.14-7.36-11.78-15.71-6.38-26,16.2,0,16.2,0-14.89-62.28,12.76-52.52c0,0-13.75-58.91,13-42.71,0,0-2.69-39.76,20.38-39.76s21.6,36.82,21.6,36.82,3.92-13.26,16.19-6.87,3,59.39,3,59.39,10.28-19.62,24.29-7.48,3.74,48.59,3.74,48.59a15.44,15.44,0,0,1,14-8.41c10.28,0,3.74,28-7.47,34.57,0,0,25.93-5.76,2.45,32.39,0,0,9.4-8.8,13.51,3.52s-7,31.7-24.07,39.33c0,0,13.5-7.63,13.5,11.74s-25.24,17.61-25.24,17.61,18.2,7.81,5.87,20.34S1403.85,750.73,1392.92,724.54Z" transform="translate(-1300.44 -467.67)"/><path class="cls-2" d="M1373.37,649.09c-.27-17.71-9.23-26.5-14.85-32.53s-6.43-16.46-2.81-11.64,14.89,23.05,11.13,6.77c-4.44-19.26-.29-35.68,1.31-32.07s-2.81,8.83,2.09,31.17S1380.75,675,1383.05,659c3.83-26.8,3.1-71.75,3.1-81.24s4.29-17.13,3.37,0-.43,30.85,2.45,19c2-8.23,11-17.7,9.79-12.24-.41,1.82-4.16,9-4.16,9-16.63,38.46-6,135-6,135s6.9-14.5,15.27-32.46c7.74-16.61,6.51-38.95,6.51-38.95-8.9.71-7.54-38.26-6.47-48.94s5-10,4.27-5-2,19,.36,37.39c1.88,14.84,4.27,10,5.34,1.78s-2.49-24.21,1.41-17.51,3.69,58-12.83,87.62c-15.94,28.56-11.17,48-10.61,84.84s6.14,53,6.14,53c-7.25,6.7-12.53,3-12.53,3-5.54-3,.15-110.6-8.28-113.41s-10.44-17.67-11.24-29.44-6.45-11.1-10-13.93c-7.29-5.75-7.33-12.92-.56-4.35,3.83,4.85,10.21,3.7,6.12-6.63-4.59-11.61-3.55-27.17,4.48,7a122.32,122.32,0,0,1,4.53,24.14c.82,12.09,7.69,20.6,10.17,15.38s.27-42.31-3-55.5S1373.53,659.35,1373.37,649.09Z" transform="translate(-1300.44 -467.67)"/><circle class="cls-3" cx="51.18" cy="87.26" r="8.36"/><path class="cls-2" d="M1351.62,548.81s2.55-3.86,1-7.8c0,0,1-1.14,1.63.82C1355.11,544.61,1352.58,550.39,1351.62,548.81Z" transform="translate(-1300.44 -467.67)"/><circle class="cls-3" cx="113.29" cy="289.66" r="8.36"/><path class="cls-2" d="M1413.73,751.21s2.55-3.86.94-7.8c0,0,1-1.14,1.64.82C1417.21,747,1414.69,752.79,1413.73,751.21Z" transform="translate(-1300.44 -467.67)"/><circle class="cls-3" cx="104.94" cy="90.17" r="8.36"/><path class="cls-2" d="M1405.37,551.72s-2.54-3.86-.94-7.8c0,0-1-1.14-1.64.82C1401.89,547.51,1404.41,553.29,1405.37,551.72Z" transform="translate(-1300.44 -467.67)"/><circle class="cls-3" cx="34.91" cy="160.96" r="8.36"/><path class="cls-2" d="M1335.34,622.51s-2.54-3.86-.94-7.8c0,0-1-1.14-1.64.82C1331.86,618.3,1334.38,624.08,1335.34,622.51Z" transform="translate(-1300.44 -467.67)"/><circle class="cls-4" cx="136.43" cy="222.2" r="8.36"/><path class="cls-2" d="M1436.87,684.44s2.55-3.85.94-7.8c0,0,1-1.14,1.64.82C1440.35,680.24,1437.83,686,1436.87,684.44Z" transform="translate(-1300.44 -467.67)"/><circle class="cls-4" cx="32.83" cy="197.92" r="8.36"/><path class="cls-2" d="M1333.26,660.17s-2.55-3.86-.94-7.8c0,0-1-1.14-1.64.82C1329.78,656,1332.3,661.75,1333.26,660.17Z" transform="translate(-1300.44 -467.67)"/><circle class="cls-4" cx="139.21" cy="149.65" r="8.36"/><path class="cls-2" d="M1439.64,611.9s-2.54-3.86-.94-7.8c0,0-1-1.14-1.64.82C1436.16,607.7,1438.68,613.47,1439.64,611.9Z" transform="translate(-1300.44 -467.67)"/><circle class="cls-4" cx="59.54" cy="289.31" r="8.36"/><path class="cls-2" d="M1360,751.56s2.54-3.86.94-7.8c0,0,1-1.14,1.64.82C1363.46,747.36,1360.94,753.13,1360,751.56Z" transform="translate(-1300.44 -467.67)"/><circle class="cls-4" cx="83.76" cy="50.43" r="8.36"/><path class="cls-2" d="M1384.19,512.67s2.55-3.85,1-7.8c0,0,1-1.14,1.64.82C1387.68,508.47,1385.16,514.25,1384.19,512.67Z" transform="translate(-1300.44 -467.67)"/></svg>