<svg id="ต้นไม้3" xmlns="http://www.w3.org/2000/svg" viewBox="0 0 179.92 407.77"><defs><style>.cls-1{fill:#5e867e;}.cls-2{fill:#162c53;}.cls-3{fill:#d75b4d;}.cls-4{fill:#f3b744;}</style></defs><title>9</title><path class="cls-1" d="M1498.42,675.92s8.49,30,30.3,25.15,12-17.47,12-17.47,17.4,10.33,29.88-2.82S1556.31,665,1556.31,665s33.25-5.54,33.89-30-20.67-12.47-20.67-12.47,29.38-22.92,24.76-46.11-21-7.15-21-7.15,12.07-17.46,5.8-28.37-17.5.68-17.5.68,13.47-67.9-16-56.2c0,0,12.38-64.22-15.84-45.59,0,0,1.24-43.07-23.69-42.1s-21.78,40.68-21.78,40.68-4.8-14.15-17.79-6.74-.69,64.29-.69,64.29-11.92-20.77-26.56-7.06-2,52.65-2,52.65a16.69,16.69,0,0,0-15.5-8.5c-11.1.43-2.86,30.44,9.53,37,0,0-28.26-5.14-1.29,35.09,0,0-10.52-9.11-14.44,4.38s8.94,34,27.66,41.47c0,0-14.91-7.67-14.1,13.26s28,18,28,18-19.33,9.2-5.48,22.22S1487.7,704.67,1498.42,675.92Z" transform="translate(-1414.87 -397.67)"/><path class="cls-2" d="M1511.6,582.61c-1.32-19.1,7.53-29.4,13-36.4s5.42-18.32,2-12.8-13.94,26.19-11.38,8.31c3-21.16-3-38.47-4.35-34.43s3.84,9.26.61,33.77-5.46,70.18-9.4,53.09c-6.58-28.52-9.9-77-10.77-87.24s-6.18-18.07-3.62.31,3.28,33.19-.91,20.66c-2.89-8.68-13.47-18.05-11.66-12.29.6,1.93,5.3,9.31,5.3,9.31,21.43,39.92,18.78,144.9,18.78,144.9s-8.76-15-19.41-33.57c-9.86-17.19-10.58-41.37-10.58-41.37,9.65,0,4.62-41.9,2.5-53.31s-6.28-10.29-5.06-5,3.86,20.25,3,40.31c-.66,16.16-3.69,11.13-5.59,2.4s.47-26.31-3.12-18.74,1.33,62.84,21.84,93.23c19.77,29.31,16.41,50.69,19.17,90.43s-1.76,57.68-1.76,57.68c8.42,6.55,13.77,2.06,13.77,2.06,5.7-3.68-10.28-119.13-1.45-122.93s9.63-20,9.42-32.74,5.93-12.55,9.55-15.93c7.32-6.86,6.71-14.59.2-4.73-3.68,5.57-10.66,4.91-7.21-6.59,3.89-12.93,1.36-29.6-4.18,7.91a133,133,0,0,0-2.68,26.41c.22,13.1-6.4,22.91-9.54,17.51s-4.17-45.56-1.82-60.07S1512.37,593.68,1511.6,582.61Z" transform="translate(-1414.87 -397.67)"/><circle class="cls-3" cx="50.83" cy="323.47" r="9.03"/><path class="cls-2" d="M1465.44,714.53s2.59-4.27.7-8.46c0,0,1-1.28,1.8.82C1469,709.85,1466.55,716.2,1465.44,714.53Z" transform="translate(-1414.87 -397.67)"/><circle class="cls-3" cx="77.05" cy="62.69" r="9.03"/><path class="cls-2" d="M1491.66,453.75s2.59-4.28.69-8.47c0,0,1-1.27,1.8.82C1495.24,449.06,1492.76,455.41,1491.66,453.75Z" transform="translate(-1414.87 -397.67)"/><circle class="cls-3" cx="119.67" cy="245.12" r="9.03"/><path class="cls-2" d="M1534.28,636.18s-2.92-4.06-1.35-8.38c0,0-1.13-1.2-1.74,1C1530.34,631.79,1533.3,637.92,1534.28,636.18Z" transform="translate(-1414.87 -397.67)"/><circle class="cls-3" cx="139.73" cy="180.72" r="9.03"/><path class="cls-2" d="M1554.34,571.78s2.59-4.27.69-8.47c0,0,1-1.27,1.81.82C1557.92,567.09,1555.44,573.44,1554.34,571.78Z" transform="translate(-1414.87 -397.67)"/><circle class="cls-4" cx="91.94" cy="94.34" r="9.03"/><path class="cls-2" d="M1506.58,486.15s2.59-4.27.69-8.47c0,0,1-1.27,1.81.82C1510.17,481.46,1507.69,487.81,1506.58,486.15Z" transform="translate(-1414.87 -397.67)"/><circle class="cls-4" cx="132.79" cy="127.41" r="9.03"/><path class="cls-2" d="M1547.43,519.22s2.59-4.27.69-8.47c0,0,1-1.27,1.81.82C1551,514.53,1548.54,520.88,1547.43,519.22Z" transform="translate(-1414.87 -397.67)"/><circle class="cls-4" cx="31.22" cy="134.17" r="9.03"/><path class="cls-2" d="M1445.86,526s2.59-4.27.7-8.46c0,0,1-1.28,1.8.81C1449.45,521.3,1447,527.64,1445.86,526Z" transform="translate(-1414.87 -397.67)"/><circle class="cls-4" cx="42.15" cy="250.47" r="9.03"/><path class="cls-2" d="M1456.79,642.28s-2.92-4.06-1.35-8.39c0,0-1.13-1.19-1.74,1C1452.84,637.88,1455.81,644,1456.79,642.28Z" transform="translate(-1414.87 -397.67)"/><circle class="cls-4" cx="118.82" cy="314.45" r="9.03"/><path class="cls-2" d="M1533.46,706.26s-2.92-4.06-1.35-8.39c0,0-1.13-1.19-1.74,1C1529.52,701.87,1532.48,708,1533.46,706.26Z" transform="translate(-1414.87 -397.67)"/></svg>