<svg id="hand" xmlns="http://www.w3.org/2000/svg" viewBox="0 0 126.45 137.19"><defs><style>.cls-1{fill:#fff8dd;}.cls-2{fill:#775a41;}</style></defs><title>12</title><path class="cls-1" d="M401.66,2656.9s6.7,6.08,1.69,13.59-16.42,15.13-16.42,15.13l-20.22,12.66s14.3-1.53,13.55,16.8c0,0,23.72.15,12.78,23.94,0,0,10.25,8,4.67,18.66s-20.26,13.07-20.26,13.07l-11.08-1.4s-16.07,14.64-31.59,14.73l-8-2.49s-4.7,12.57-22,3.69-23.68-31.59-23.68-31.59,1.89-17.21,10.52-13.33c0,0-2.8-13.79,8.77-21s15.7-8.81,15.7-8.81l20.79-17.14L364,2669.6s15.36-16.13,23.48-16.2A30.27,30.27,0,0,1,401.66,2656.9Z" transform="translate(-279.9 -2651.69)"/><path class="cls-2" d="M315.45,2712.82c5.87-4.3,11.54-8.89,17.15-13.52q9-7.46,17.76-15.3c6.62-6,12.88-12.36,19.84-17.94,4.84-3.9,10.17-7.69,16.06-9.85,3.52-1.3,7.52-2.11,11-.65a10.45,10.45,0,0,1,6,9.11c0,5.57-4.88,10.12-8.83,13.4a84.31,84.31,0,0,1-12.93,8.86c-6.25,3.48-12.55,6.84-18.13,11.35a53.16,53.16,0,0,0-4.25,3.84,1.54,1.54,0,0,0,2.18,2.18c5.48-5.52,12.19-9.44,19-13.16a108.65,108.65,0,0,0,14-9c4.66-3.59,9.66-7.89,11.53-13.68a13.13,13.13,0,0,0-4.18-13.81c-7.71-6.49-18.73-1.08-25.87,3.56s-13.34,10.4-19.52,16.2q-9.68,9.07-19.8,17.66c-7.22,6.14-14.59,12.13-22.17,17.8l-.35.26c-1.59,1.16-.05,3.84,1.56,2.66Z" transform="translate(-279.9 -2651.69)"/><path class="cls-2" d="M366.19,2700.2c4.09-.38,8.95,1.05,11.12,4.88,3.55,6.27.45,14.74-3.71,19.86a33,33,0,0,1-12.33,9.13c-1.81.81-.24,3.47,1.56,2.67,8.48-3.8,16.09-10.83,18.36-20.12a19.14,19.14,0,0,0-.54-11.69,12.36,12.36,0,0,0-7.86-7,17,17,0,0,0-6.6-.81c-2,.18-2,3.27,0,3.08Z" transform="translate(-279.9 -2651.69)"/><path class="cls-2" d="M342.8,2725.26a32.14,32.14,0,0,1,5.13-10.15,47.36,47.36,0,0,1,7.41-8,46,46,0,0,0-5.28,9.2,28.69,28.69,0,0,0-2.43,9.76Z" transform="translate(-279.9 -2651.69)"/><path class="cls-2" d="M381.51,2717.21a5.42,5.42,0,0,1,.57,0l.63.05.41.05s-.08,0,.2,0a16.69,16.69,0,0,1,4.58,1.37,12.38,12.38,0,0,1,7.11,10.73c0,4.18-2.57,8.26-5.06,11.42a39.47,39.47,0,0,1-11.51,10c-3.52,2-8.48,3.95-12.24,1.67-1.7-1-3.26,1.64-1.56,2.67,4.11,2.49,9.17,1.29,13.26-.6a39.88,39.88,0,0,0,13.15-10.23c3.3-3.82,6.36-8.45,7-13.57.61-5.29-2.38-10.75-6.7-13.67a17.77,17.77,0,0,0-9.8-3,1.55,1.55,0,0,0,0,3.09Z" transform="translate(-279.9 -2651.69)"/><path class="cls-2" d="M392,2741.71c.2.11.41.23.6.36s.4.26.59.39l.19.14.43.36a10.31,10.31,0,0,1,3,4.21c2,5.42-1.25,11.81-5.1,15.58a24,24,0,0,1-12.84,6.23c-3.89.66-8.44.46-11.78-1.73a6.6,6.6,0,0,1-2.95-4.3c-.47-2.3.31-4.95,1.32-7.13.83-1.79-1.82-3.36-2.66-1.55-2.12,4.55-3,10.12.8,14.07,3.29,3.44,8.61,4.28,13.15,4a27.94,27.94,0,0,0,15.49-5.92c5.08-4.06,9.08-11.15,8.09-17.79a13.2,13.2,0,0,0-6.82-9.55c-1.77-.89-3.33,1.77-1.55,2.66Z" transform="translate(-279.9 -2651.69)"/><path class="cls-2" d="M318.25,2739.37c4.23-.69,8.6.46,12.47,2.29a37.21,37.21,0,0,1,5.54,3.34c.84.66,1.71,1.34,2.52,2s1.63,1.31,2.47,1.93a35.71,35.71,0,0,0,10.87,5.8,16.32,16.32,0,0,0,5.84.73,10.08,10.08,0,0,0,5.26-1.87,13.2,13.2,0,0,0,3.69-4.3,7.51,7.51,0,0,0,.54-5.13,9.81,9.81,0,0,0-2.91-4.57,21.2,21.2,0,0,0-4.9-3.28c-.91-.48-1.8-.84-2.79-1.29s-2-.87-3-1.39a42.25,42.25,0,0,1-5.71-3.36,35.79,35.79,0,0,1-5-4.36c-1.51-1.55-2.92-3-4.46-4.34-6.18-5.07-14.05-9.16-21.94-8.54s-15,6.13-19.82,12.39a22.29,22.29,0,0,0-3.82,11.27,25.44,25.44,0,0,0,2.3,11.91,33.74,33.74,0,0,0,3,5.45,43.68,43.68,0,0,0,3.87,5,55.58,55.58,0,0,0,4.47,4.48c.76.73,1.58,1.4,2.38,2.11l2.47,2-2.64-1.8c-.85-.64-1.73-1.24-2.56-1.91a56.61,56.61,0,0,1-4.8-4.24,43.62,43.62,0,0,1-4.27-4.83,34,34,0,0,1-3.5-5.48,27.23,27.23,0,0,1-3-12.74,23.44,23.44,0,0,1,1-6.59,24.22,24.22,0,0,1,2.79-6.1,21.36,21.36,0,0,1,2-2.72c.73-.83,1.46-1.62,2.24-2.4a39.78,39.78,0,0,1,5.05-4.26,25.86,25.86,0,0,1,12.53-4.81,27.77,27.77,0,0,1,13.21,2.3,41.47,41.47,0,0,1,5.89,3,38,38,0,0,1,5.39,3.87c1.69,1.45,3.2,3.07,4.65,4.56a31.8,31.8,0,0,0,4.55,4,39,39,0,0,0,5.24,3.12c.9.49,1.86.89,2.8,1.34s2,.9,3,1.43a24.13,24.13,0,0,1,5.56,3.91,12.83,12.83,0,0,1,3.69,6.13,10.35,10.35,0,0,1-.94,7.24c-.18.34-.34.53-.49.77s-.3.48-.48.7a14.29,14.29,0,0,1-1.09,1.35,13.38,13.38,0,0,1-2.65,2.32,12.94,12.94,0,0,1-3.19,1.56,14.19,14.19,0,0,1-3.46.6,18,18,0,0,1-6.68-1.07,37.13,37.13,0,0,1-11.23-6.62c-.83-.69-1.64-1.4-2.42-2.14s-1.55-1.41-2.34-2.11a36.47,36.47,0,0,0-5.14-3.56,26.77,26.77,0,0,0-5.8-2.4A17.33,17.33,0,0,0,318.25,2739.37Z" transform="translate(-279.9 -2651.69)"/><path class="cls-2" d="M367.45,2770.41a63,63,0,0,1-5.72,4.42,69.12,69.12,0,0,1-6.08,3.77,46.73,46.73,0,0,1-13.36,5.09,23.89,23.89,0,0,1-14.14-1.14,24.3,24.3,0,0,1-10.46-9.18,23.81,23.81,0,0,0,10.84,8.2,22.31,22.31,0,0,0,13.29.07A44,44,0,0,0,354,2775.9a66.28,66.28,0,0,0,10.49-8.5Z" transform="translate(-279.9 -2651.69)"/><path class="cls-2" d="M290.57,2738a15.75,15.75,0,0,0-6.3,3.5c-3.81,3.4-4.95,8.4-4.11,13.32a33,33,0,0,0,4.81,11.47,60.22,60.22,0,0,0,8.62,10.93c5.09,5.08,11.49,9.53,18.62,11.11,5.82,1.29,12.33.36,15.81-5,1.09-1.67-1.58-3.21-2.67-1.56-2.41,3.7-7.1,4.48-11.22,3.77-6.3-1.08-12-4.69-16.67-8.92a54.46,54.46,0,0,1-8.11-9.31,39,39,0,0,1-5.61-10.82c-1.3-4.33-1.06-9,2-12.19a12.21,12.21,0,0,1,3.82-2.68l.48-.22c.23-.1-.29.11.06,0s.45-.18.67-.25.39-.13.58-.18a1.55,1.55,0,0,0-.82-3Z" transform="translate(-279.9 -2651.69)"/></svg>