<svg id="Text" xmlns="http://www.w3.org/2000/svg" viewBox="0 0 838.59 550.59"><defs><style>.cls-1,.cls-2,.cls-4,.cls-7{isolation:isolate;}.cls-2{font-size:50px;}.cls-2,.cls-4,.cls-7{fill:#4d4032;}.cls-2,.cls-5,.cls-7,.cls-8{font-family:ArialUnicodeMS, Arial Unicode MS;}.cls-3,.cls-4{font-family:ArialMT, Arial;}.cls-4,.cls-7{font-size:35px;}.cls-6{letter-spacing:0em;}.cls-8,.cls-9{letter-spacing:0em;}</style></defs><title>newnew 41</title><g class="cls-1"><text class="cls-2" transform="translate(35.35 67.98)">แนวทางสำคัญในการดำเนินงาน</text><text class="cls-2" transform="translate(35.35 127.98)">เกษตรตามแนว<tspan class="cls-3" x="304.3" y="0" xml:space="preserve"> &quot;</tspan><tspan x="335.94" y="0">ทฤษฎีใหม่</tspan><tspan class="cls-3" x="549.66" y="0">&quot;</tspan></text></g><g class="cls-1"><text class="cls-4" transform="translate(33.98 211.41)">- <tspan class="cls-5" x="21.38" y="0">เป็นระบบการผลิตแบบเศรษฐกิจพอเพียง</tspan><tspan class="cls-6" x="580.53" y="0"> </tspan></text><text class="cls-7" transform="translate(33.98 247.81)">ที่เกษตรกรสามารถเลี้ยงตัวเองได้ในระดับที่ประหยัด</text><text class="cls-4" transform="translate(33.98 284.21)">- <tspan class="cls-5" x="21.38" y="0">ต้องมีพื้นที่ส่วนหนึ่งทำนาข้าว</tspan><tspan x="430.83" y="0"> </tspan><tspan class="cls-8" x="440.56" y="0">เพื่อให้มีบริโภคตลอดทั้งปี</tspan></text><text class="cls-4" transform="translate(33.98 320.61)">- <tspan class="cls-5" x="21.38" y="0">ต้องมีน้ำสำรองไว้ใช้เพียงพอตลอดปี</tspan><tspan x="527.31" y="0"> </tspan></text><text class="cls-7" transform="translate(33.98 357.01)">เพื่อการเพาะปลูกในระยะฝนทิ้งช่วง<tspan class="cls-3" x="493.11" y="0"> </tspan><tspan class="cls-9" x="502.83" y="0">หรือในฤดูแล้ง</tspan></text><text class="cls-4" transform="translate(33.98 393.41)">- <tspan class="cls-5" x="21.38" y="0">ใช้อัตราส่วนดังนี้ในการแบ่งพื้นที่ออกเป็น</tspan><tspan x="599.15" y="0" xml:space="preserve"> 4 </tspan><tspan class="cls-5" x="638.07" y="0">ส่วน</tspan></text><text class="cls-4" transform="translate(33.98 429.81)"><tspan xml:space="preserve">  30  % </tspan><tspan class="cls-5" x="118.67" y="0">ใช้ขุดสระเก็บกักน้ำ</tspan><tspan x="391.53" y="0"> </tspan></text><text class="cls-4" transform="translate(33.98 466.21)"><tspan xml:space="preserve">  30  %  </tspan><tspan class="cls-5" x="128.4" y="0">ใช้ปลูกข้าว</tspan></text><text class="cls-4" transform="translate(33.98 502.61)"><tspan xml:space="preserve">  30  %  </tspan><tspan class="cls-5" x="128.4" y="0">ใช้ปลูกพืชผัก</tspan><tspan class="cls-6" x="322.13" y="0"> </tspan><tspan class="cls-5" x="331.85" y="0">ผลไม้</tspan><tspan x="412.17" y="0"> </tspan><tspan class="cls-8" x="421.9" y="0">พืชไร่</tspan><tspan x="505.02" y="0"> </tspan><tspan class="cls-5" x="514.75" y="0">ไม้ยืนต้น</tspan></text><text class="cls-4" transform="translate(33.98 539.01)"><tspan xml:space="preserve">  10  %   </tspan><tspan class="cls-5" x="138.12" y="0">ใช้เป็นที่อยู่อาศัยและอื่นๆ</tspan></text></g></svg>