<svg xmlns="http://www.w3.org/2000/svg" viewBox="0 0 239.01 143.05"><defs><style>.cls-1{fill:#f3a95a;}.cls-2{fill:#e9dc82;}.cls-3{fill:#010101;}.cls-4{fill:#89be86;}.cls-5{fill:#fabc15;}.cls-6{fill:#d1dc87;}.cls-7{fill:#f3d263;}.cls-8{fill:#fbcf66;}.cls-9{fill:#f5d068;}</style></defs><title>p4me</title><g id="รวม"><path class="cls-1" d="M103.21,139.22a1.59,1.59,0,0,0,.17,1A1.59,1.59,0,0,1,103.21,139.22Z"/><path class="cls-1" d="M77.32,128.48c0,.67,0,1.36,0,2.06,0-.7,0-1.39,0-2.06v0c0-1.09,0-2.13-.14-3.09.09,1,.13,2,.14,3.09Z"/><path class="cls-1" d="M76,118c.32,1.79.61,3.45.83,4.84C76.63,121.44,76.34,119.78,76,118Z"/><path class="cls-1" d="M104.54,133.48c-.09.3-.19.6-.27.88-.16.54-.3,1-.43,1.55.13-.5.27-1,.43-1.55C104.35,134.08,104.45,133.78,104.54,133.48Z"/><path class="cls-1" d="M104.43,139.88a1.29,1.29,0,0,1-.52.44A1.29,1.29,0,0,0,104.43,139.88Z"/><path class="cls-1" d="M145.66,143l-.14.05H239l-.06-.18h0L50.62,1.18h0L49.05,0S3.6,63.12,0,143.05H145.51ZM122.54,95.69a.51.51,0,0,1-.14.34,5.86,5.86,0,0,1-1.3,1c-.23-.45.12-1,.5-1.38a.93.93,0,0,1,.5-.3A.36.36,0,0,1,122.54,95.69Zm-1.4,1.46H121l.12-.07A.25.25,0,0,0,121.14,97.15Zm-20,5a33.57,33.57,0,0,1,4.08-8.75,20.9,20.9,0,0,1,3.16-3.67,15.54,15.54,0,0,1,4-2.69A16,16,0,0,1,117,85.74a21,21,0,0,1,4.82.1,20.92,20.92,0,0,0-4.81,0,15.82,15.82,0,0,0-4.62,1.34,15.25,15.25,0,0,0-4,2.68,21.35,21.35,0,0,0-3.12,3.66,33.34,33.34,0,0,0-4.11,8.7,47.91,47.91,0,0,0-1.23,4.67,45.61,45.61,0,0,0-.79,4.77A46.39,46.39,0,0,1,101.11,102.17Zm18-5-.13-.07.07,0a1.74,1.74,0,0,1-.11-1.76.61.61,0,0,1,.31-.32.52.52,0,0,1,.61.4,1.6,1.6,0,0,1-.08.81,1.64,1.64,0,0,1-.73.87Zm.41-4.87a1.73,1.73,0,0,1-.8-.69c.58-.21,1.4-.47,1.83,0a.4.4,0,0,1,.11.2.39.39,0,0,1-.13.33A1,1,0,0,1,119.55,92.35Zm-4.21,5.75a1.38,1.38,0,0,1-.26-1.66.6.6,0,0,1,.5-.35c.33,0,.49.42.45.75S115.42,97.75,115.34,98.1Zm.08.07h-.09a.15.15,0,0,1,0-.07Zm-1.55.46h-.22l0-.06a1.2,1.2,0,0,1-.69-.72,2,2,0,0,1,0-1.21.71.71,0,0,1,.16-.28.42.42,0,0,1,.58.16,1.26,1.26,0,0,1,.13.66,3.85,3.85,0,0,1-.21,1.39A.53.53,0,0,0,113.87,98.63Zm-1-3.9.09.07h0Zm.09.07a11.39,11.39,0,0,1,1.31-.13.94.94,0,0,1,.59.13.33.33,0,0,1,0,.52.37.37,0,0,1-.18,0A2.39,2.39,0,0,1,113,94.8Zm2.31-.44c-.23-.1-.42-.72-.4-1l1.4.08a.63.63,0,0,1,.43.13.44.44,0,0,1-.07.61,1.09,1.09,0,0,1-.64.21A1.46,1.46,0,0,1,115.31,94.36Zm1.38-1.54a2.37,2.37,0,0,1,1.16-.53c.43,0,.9.3.86.73s-.57.67-1,.57A2.29,2.29,0,0,1,116.69,92.82Zm-2.54.89a26.23,26.23,0,0,0-5,5,37.67,37.67,0,0,0-3.8,6c-1,2-1.93,4.08-2.77,6.18a35.52,35.52,0,0,0,.29,11h0a32.3,32.3,0,0,1,.35,6.1c0,.14,0,.28-.08.42-.48-2.41-1-4.8-1.54-7.19q-.67-3-1.44-6a31,31,0,0,1,4.39-14.57,88.88,88.88,0,0,0-2,10.18,60.35,60.35,0,0,1,2.68-6.18A39.09,39.09,0,0,1,109,98.63a26.84,26.84,0,0,1,5.09-5,19.54,19.54,0,0,1,6.35-3.18A20.51,20.51,0,0,0,114.15,93.71Zm-4.05.19a.59.59,0,0,1,.91,0,1,1,0,0,1,.1.33,3.19,3.19,0,0,1-.17,1.47,1.56,1.56,0,0,1-.94-.75A1.11,1.11,0,0,1,110.1,93.9Zm1.76-1.08c0-.29,0-.64.32-.73a.5.5,0,0,1,.59.31,1.35,1.35,0,0,1,0,.72,5.91,5.91,0,0,1-.3,1.15A2.35,2.35,0,0,1,111.86,92.82Zm2.53-.14a1.81,1.81,0,0,1-.4-1.53.82.82,0,0,1,.32-.55.41.41,0,0,1,.57.1.59.59,0,0,1,0,.35A4.12,4.12,0,0,1,114.39,92.68Zm0,0,0,0,0,0Zm-39.7,8.93a33.21,33.21,0,0,1,2.17-9.27,17.75,17.75,0,0,1,5.65-7.57l1-.68c.34-.21.69-.39,1-.59a13.58,13.58,0,0,1,2.19-.93,18.76,18.76,0,0,1,4.68-.87,18.83,18.83,0,0,0-4.65.94,14.05,14.05,0,0,0-2.18.94c-.34.2-.7.38-1,.59l-1,.68A17.66,17.66,0,0,0,77,92.43a32.86,32.86,0,0,0-2.21,9.22,47.08,47.08,0,0,0-.25,4.75,42,42,0,0,0,.2,4.76A45.22,45.22,0,0,1,74.72,101.64ZM66,96.85a1.86,1.86,0,0,1-1.25.58,4.64,4.64,0,0,1,.92-1.3.53.53,0,0,1,.24-.11.35.35,0,0,1,.32.36A.73.73,0,0,1,66,96.85Zm1-1.59a1.59,1.59,0,0,1-.6.17.5.5,0,0,1-.49-.32,3.64,3.64,0,0,1,1-.64.4.4,0,0,1,.51.3C67.45,95,67.2,95.16,67,95.26Zm1.72-2.42a1.38,1.38,0,0,1-1.71.74c.4-.31,1-.93,1.54-1,.07,0,.14,0,.18.06S68.74,92.78,68.71,92.84Zm-1.81.42a31.28,31.28,0,0,0-2.68,4.34c-.79,1.51-1.49,3.07-2.13,4.64s-1.19,3-1.77,4.52c0,.16-.06.34-.1.49v0a28.31,28.31,0,0,0-1.09,3.61v.05c-.88,2.36-2,4.56-2.88,7.69-1.67,5.63-2.41,7-2.09,12.54a33.35,33.35,0,0,1,1.92-5.66c.32-.77.65-1.51,1-2.22.15-.34.29-.68.43-1A55.24,55.24,0,0,0,62,107c.45,4.56-1.06,8-1.93,12.46-1.26,6.61-3.84,12.26-5.84,18.74a29.92,29.92,0,0,0-.41-5.42c0-.11.05-.21.07-.32,0,.11,0,.21-.07.32,0-.19,0-.38-.07-.57v0c0,.19.05.38.07.57a29.92,29.92,0,0,1,.41,5.42h-.5a.56.56,0,0,1-.56-.52c0-.66-.12-1.73-.12-1.79a2.93,2.93,0,0,0,0-.66h0c-1.14-8.59-4.1-13.39-5-22.17-.37-3.71-1.37-9.61,0-13.1-.07.17.13.69.16.88.07.35.13.7.2,1,.13.67.25,1.34.38,2,.25,1.36.5,2.72.74,4.08.51,2.82.81,3.26,1.25,6.1.2,1.27.39,2.54.58,3.81h0c.15,1.1.3,2.19.44,3.28.32,2.42.8,4.8,1.28,7.21v0c0,.14,0,.28.08.42,0-.14,0-.28-.08-.42v0c0-1.37-.05-2.75,0-4.16,0-.29,0-.58,0-.87,0,.29,0,.58,0,.87-.58-6.47-.6-13.46-.52-20.44-.13,1-.25,2-.36,3-.4,3.62-.67,7.27-.82,10.91.09-3.65.32-7.29.72-10.92.14-1.28.3-2.55.47-3.81.08-5.79.21-11.56.15-17,.68,3.15,1.31,6.34,1.86,9.56a38,38,0,0,1,2.36-4.29c1-1.54,2-3.08,3.07-4.54.27-.36.56-.72.85-1.07l.91-1a17.7,17.7,0,0,1,2-1.88,14,14,0,0,1,4.79-2.6,14.14,14.14,0,0,0-4.74,2.66,17.51,17.51,0,0,0-2,1.88l-.91,1c-.29.35-.57.71-.84,1.07-1.1,1.46-2.07,3-3,4.55a34,34,0,0,0-2.42,4.48c.62,3.64,1.12,7.31,1.45,11-1.19,4.85-2.32,7.27-2.75,12.43,0,.23,0,.44-.05.66,0-.22,0-.43.05-.66.43-5.16,1.56-7.58,2.75-12.43.67-2.77,1.43-5.55,2.22-8.4,1.07-3.94,2-8.39,3.79-12a128.49,128.49,0,0,1-1.63,19.85c0,.2-.07.39-.11.59.52-1.51,1.07-3,1.66-4.5s1.32-3.16,2.1-4.68c.22-.43.48-.84.72-1.26h-.08v-.05l.09,0a29.09,29.09,0,0,1,2-3,19.28,19.28,0,0,1,3.58-3.64A22.28,22.28,0,0,0,66.9,93.26Zm.29-.68a1.3,1.3,0,0,1-.86-.75c-.11-.37.22-.86.6-.76S67.27,92.15,67.19,92.58ZM66,94.36c-.34,0-.56-.38-.65-.71a.89.89,0,0,1,0-.68c.12-.2.45-.27.58-.08a.42.42,0,0,1,.06.31,3.3,3.3,0,0,1-.22,1.08Zm-1.24,1.85a1.28,1.28,0,0,1-.54-.4.73.73,0,0,1-.07-.83.5.5,0,0,1,.76-.08C65.16,95.26,64.72,95.76,64.73,96.21Zm23-1.67a4.08,4.08,0,0,1-1.36-.47,21.19,21.19,0,0,0-2.87,3.85,32.46,32.46,0,0,0-3.14,7.32,50.48,50.48,0,0,0-1.62,7.82h0q-.06,3.36-.12,7.3c1.33-7.79,3.16-17.88,3.18-18.75,1.73,18.21-4.94,36.89-5.09,37.31,0-.14,0-.31.05-.46,0,.15,0,.32-.05.46h0c0,.28-.06.55-.09.79l-.22-.05a1.45,1.45,0,0,1-.29-.11l-.33-.16C74.29,132.85,70.43,115,71,106.26l2.4,12.39s3.16,17.72,3.47,19.2h0s0,0,0-.08c-1.44-8.6-4.32-34.06-4.21-37.05,0,0,1.06,5,2.17,10.66,0,0,0,0,0,0v0c.32,1.66.65,3.38,1,5,.11-3.81.67-18.26,3.41-23.28,0,0-.16,6.5-.4,19.88h0c.14-1.33.34-2.65.58-4s.57-2.61.94-3.89a32.41,32.41,0,0,1,3.11-7.36,20.78,20.78,0,0,1,3.68-4.66.85.85,0,0,1-.66-.71,2.46,2.46,0,0,1,.12-1,1.52,1.52,0,0,1,.42,1.7l.12,0a18.08,18.08,0,0,1,1.57-1.33,16,16,0,0,1,3.44-2,17.54,17.54,0,0,1,1.88-.68c.63-.2,1.29-.33,1.94-.49a17.54,17.54,0,0,0-7.2,3.3,19.14,19.14,0,0,0-2.11,1.92,1.57,1.57,0,0,1,1.28-.19.6.6,0,0,1,.39.28C88.36,94.23,88,94.54,87.73,94.54Zm-5.93,7.08v0Zm6-8.69h0a.13.13,0,0,0,.07.1Zm2.15.23a2.41,2.41,0,0,1-2.15-.23.23.23,0,0,1,.06-.21.51.51,0,0,1,.33-.15,3.53,3.53,0,0,1,1-.12,1.11,1.11,0,0,1,.85.43.24.24,0,0,1,0,.16A.21.21,0,0,1,89.94,93.16Zm19,28.24c-.71,1.55-2.12,13.86-4.07,17.77h0c-.15.9-.66,1.39-1.3,1.17h0s0,0,0,0a2.34,2.34,0,0,1-1-.92,6.19,6.19,0,0,1-.77-2.36c.27-2.64.73-5.6,1.33-8.61h0c-.6,3-1.06,6-1.33,8.61l0-.21L95.3,98.67c.62,3.64,2.33,7.37,3.33,10.94.19.67.37,1.35.56,2h0c.06,0,.06,0,.07,0l-.05,0c.32,1.18.63,2.36.93,3.55q.77,3,1.44,6c.55,2.39,1.06,4.78,1.54,7.19h0c0-.14,0-.28.08-.41,1.66-8.14,4.36-16.6,7.3-20.26a113.35,113.35,0,0,0-5.43,24C106.58,127.24,108.51,122.36,109,121.4ZM114,101.56a1,1,0,0,1-1,.2,3,3,0,0,1-.88-.49,6,6,0,0,1,1.11-.6.88.88,0,0,1,.64,0A.59.59,0,0,1,114,101.56Zm1.1-1a1.52,1.52,0,0,1-1-.74l-.08,0v-.14a.36.36,0,0,0,.07.1,4.09,4.09,0,0,1,1.49-.45.63.63,0,0,1,.41.07.45.45,0,0,1,.15.43A.91.91,0,0,1,115.11,100.55Zm2.88-1.2a1.83,1.83,0,0,1-.9,0c-.29-.11-.76-.4-.7-.69a1.67,1.67,0,0,1,1.85.15.41.41,0,0,1,.16.29C118.38,99.27,118.17,99.33,118,99.35Zm.72-1,.08-.15a.22.22,0,0,1,0,.08Zm1.38,1a1.18,1.18,0,0,1-.63-.29,1.41,1.41,0,0,1-.65-.78c.43-.29,1.51-.35,1.77,0A.69.69,0,0,1,120.09,99.37Zm2.74-.42a.68.68,0,0,1-1-.1,1.65,1.65,0,0,1-.26-1.14,1.71,1.71,0,0,1,1,.21A.72.72,0,0,1,122.83,99Zm-1.41-1.24.18-.08s0,.05,0,.08Zm-2.66,0a17,17,0,0,0-4.32,1.17,11.87,11.87,0,0,0-3.69,2.5,17.14,17.14,0,0,0-2.73,3.54,32.64,32.64,0,0,0-2,4c-.58,1.38-1.14,2.77-1.59,4.2a32.59,32.59,0,0,0-1.1,4.35,26.79,26.79,0,0,0-.47,4.47,29.63,29.63,0,0,1,1.47-8.85c.45-1.44,1-2.84,1.57-4.23a32.14,32.14,0,0,1,2-4,17.37,17.37,0,0,1,2.77-3.56,12,12,0,0,1,3.74-2.5,14.28,14.28,0,0,1,2.4-.77l-.1-.22s.06,0,.09,0c0-.3-.06-.6-.08-.91a1.55,1.55,0,0,1,.12-1c.19-.29.66-.39.85-.11a.66.66,0,0,1,.09.31,2,2,0,0,1-.15,1.12,1,1,0,0,1-.83.57l0,.22c.64-.15,1.29-.27,1.94-.36,1.49-.21,3-.29,4.48-.36C121.74,97.34,120.24,97.44,118.76,97.67Zm4.65-.2-.08,0h.1S123.42,97.45,123.41,97.47Zm1.43-.13a6.27,6.27,0,0,1-1.41.09,2.28,2.28,0,0,1,1.26-1.34A.72.72,0,0,1,125,96a.56.56,0,0,1,.47.69A.94.94,0,0,1,124.84,97.34Z"/><path class="cls-1" d="M77.53,127c.22-1.44.53-3.35.88-5.38C78.06,123.64,77.75,125.55,77.53,127Z"/><path class="cls-2" d="M101.21,102.2a33.34,33.34,0,0,1,4.11-8.7,21.35,21.35,0,0,1,3.12-3.66,15.25,15.25,0,0,1,4-2.68A15.82,15.82,0,0,1,117,85.82a20.92,20.92,0,0,1,4.81,0,21,21,0,0,0-4.82-.1,16,16,0,0,0-4.65,1.32,15.54,15.54,0,0,0-4,2.69,20.9,20.9,0,0,0-3.16,3.67,33.57,33.57,0,0,0-4.08,8.75,46.39,46.39,0,0,0-1.92,9.47,45.61,45.61,0,0,1,.79-4.77A47.91,47.91,0,0,1,101.21,102.2Z"/><path class="cls-3" d="M99.26,111.69s0,0-.07,0h0l0,.08Z"/><path class="cls-4" d="M103.12,128.43c-.48-2.41-1-4.8-1.54-7.19q-.67-3-1.44-6c-.3-1.19-.61-2.37-.93-3.55h0c-.06,0-.06,0-.07,0s0,0,.08,0h0c-.19-.68-.37-1.36-.56-2-1-3.57-2.71-7.3-3.33-10.94l6.45,38.16,0,.21c.27-2.64.73-5.6,1.33-8.61Z"/><path class="cls-4" d="M99.18,111.72h0l0-.08c-.07,0-.07,0-.08,0S99.12,111.7,99.18,111.72Z"/><path class="cls-5" d="M102.56,110.88a88.88,88.88,0,0,1,2-10.18,31,31,0,0,0-4.39,14.57q.77,3,1.44,6c.55,2.39,1.06,4.78,1.54,7.19,0-.14,0-.28.08-.42a32.3,32.3,0,0,0-.35-6.1h0a35.52,35.52,0,0,1-.29-11c0,.11-.1.22-.14.33C102.46,111.13,102.51,111,102.56,110.88Z"/><path class="cls-6" d="M103.2,128c0,.13,0,.27-.08.41h0c-.6,3-1.06,6-1.33,8.61a6.19,6.19,0,0,0,.77,2.36,2.34,2.34,0,0,0,1,.92.38.38,0,0,1-.16-.13,1.59,1.59,0,0,1-.17-1,16.83,16.83,0,0,1,.63-3.31c.13-.5.27-1,.43-1.55.08-.28.18-.58.27-.88.17-.55.35-1.11.53-1.67h0a113.35,113.35,0,0,1,5.43-24C107.56,111.42,104.86,119.88,103.2,128Z"/><path class="cls-6" d="M103.91,140.32a.62.62,0,0,1-.33,0c.64.22,1.15-.27,1.3-1.17a4.38,4.38,0,0,1-.45.71A1.29,1.29,0,0,1,103.91,140.32Z"/><path class="cls-7" d="M103.57,140.34s0,0,0,0h0s0,0,0,0h0Z"/><path class="cls-7" d="M104.54,133.48c-.09.3-.19.6-.27.88-.16.54-.3,1-.43,1.55a16.83,16.83,0,0,0-.63,3.31,1.59,1.59,0,0,0,.17,1,.38.38,0,0,0,.16.13l0,0a.62.62,0,0,0,.33,0,1.29,1.29,0,0,0,.52-.44,4.38,4.38,0,0,0,.45-.71h0c2-3.91,3.36-16.22,4.07-17.77-.44,1-2.37,5.84-3.88,10.41h0C104.89,132.37,104.71,132.93,104.54,133.48Z"/><path class="cls-7" d="M104.43,139.88a4.38,4.38,0,0,0,.45-.71h0A4.38,4.38,0,0,1,104.43,139.88Z"/><path class="cls-7" d="M104.54,133.48c.17-.55.35-1.11.53-1.67h0C104.89,132.37,104.71,132.93,104.54,133.48Z"/><path class="cls-7" d="M103.38,140.19a.38.38,0,0,0,.16.13h0A.38.38,0,0,1,103.38,140.19Z"/><path class="cls-7" d="M103.21,139.22a16.83,16.83,0,0,1,.63-3.31A16.83,16.83,0,0,0,103.21,139.22Z"/><path class="cls-7" d="M103.58,140.34h0a.62.62,0,0,0,.33,0A.62.62,0,0,1,103.58,140.34Z"/><path class="cls-7" d="M103.58,140.34l0,0s0,0,0,0Z"/><path class="cls-2" d="M116.81,98V98l0,0a14.28,14.28,0,0,0-2.4.77,12,12,0,0,0-3.74,2.5,17.37,17.37,0,0,0-2.77,3.56,32.14,32.14,0,0,0-2,4c-.57,1.39-1.12,2.79-1.57,4.23a29.63,29.63,0,0,0-1.47,8.85,26.79,26.79,0,0,1,.47-4.47,32.59,32.59,0,0,1,1.1-4.35c.45-1.43,1-2.82,1.59-4.2a32.64,32.64,0,0,1,2-4,17.14,17.14,0,0,1,2.73-3.54,11.87,11.87,0,0,1,3.69-2.5,17,17,0,0,1,4.32-1.17c1.48-.23,3-.33,4.47-.43-1.49.07-3,.15-4.48.36C118.1,97.69,117.45,97.81,116.81,98Z"/><path class="cls-8" d="M125,96a.72.72,0,0,0-.32.08,2.28,2.28,0,0,0-1.26,1.34,6.27,6.27,0,0,0,1.41-.09.94.94,0,0,0,.64-.64A.56.56,0,0,0,125,96Z"/><path class="cls-8" d="M123.41,97.47s0,0,0,0h-.1Z"/><path class="cls-8" d="M121.1,97.08a5.86,5.86,0,0,0,1.3-1,.51.51,0,0,0,.14-.34.36.36,0,0,0-.44-.29.93.93,0,0,0-.5.3C121.22,96.06,120.87,96.63,121.1,97.08Z"/><path class="cls-8" d="M121,97.15h.16a.25.25,0,0,1,0-.07Z"/><path class="cls-8" d="M119.14,97.22l-.06-.1-.07,0Z"/><path class="cls-8" d="M119.81,96.25a1.6,1.6,0,0,0,.08-.81.52.52,0,0,0-.61-.4.61.61,0,0,0-.31.32,1.74,1.74,0,0,0,.11,1.76A1.64,1.64,0,0,0,119.81,96.25Z"/><path class="cls-8" d="M122.59,97.92a1.71,1.71,0,0,0-1-.21,1.65,1.65,0,0,0,.26,1.14.68.68,0,0,0,1,.1A.72.72,0,0,0,122.59,97.92Z"/><path class="cls-8" d="M121.6,97.63l-.18.08h.17S121.6,97.66,121.6,97.63Z"/><path class="cls-8" d="M118.81,98.3a1.41,1.41,0,0,0,.65.78,1.18,1.18,0,0,0,.63.29.69.69,0,0,0,.49-1.06C120.32,98,119.24,98,118.81,98.3Z"/><path class="cls-8" d="M118.71,98.37l.09-.07a.22.22,0,0,0,0-.08Z"/><path class="cls-8" d="M116.79,97.74s-.06,0-.09,0l.1.22h0Z"/><path class="cls-8" d="M117.62,97.17a2,2,0,0,0,.15-1.12.66.66,0,0,0-.09-.31c-.19-.28-.66-.18-.85.11a1.55,1.55,0,0,0-.12,1c0,.31.05.61.08.91A1,1,0,0,0,117.62,97.17Z"/><path class="cls-8" d="M116.81,98h0l0,0Z"/><path class="cls-8" d="M116.39,98.65c-.06.29.41.58.7.69a1.83,1.83,0,0,0,.9,0c.18,0,.39-.08.41-.26a.41.41,0,0,0-.16-.29A1.67,1.67,0,0,0,116.39,98.65Z"/><path class="cls-8" d="M115.58,96.09a.6.6,0,0,0-.5.35,1.38,1.38,0,0,0,.26,1.66c.08-.35.64-1,.69-1.26S115.91,96.1,115.58,96.09Z"/><path class="cls-8" d="M115.42,98.17l-.08-.07a.15.15,0,0,0,0,.07Z"/><path class="cls-8" d="M115.6,99.36a4.09,4.09,0,0,0-1.49.45,1.52,1.52,0,0,0,1,.74.91.91,0,0,0,1-.69.45.45,0,0,0-.15-.43A.63.63,0,0,0,115.6,99.36Z"/><path class="cls-8" d="M114,99.85l.08,0a.36.36,0,0,1-.07-.1Z"/><path class="cls-8" d="M113.77,96.53a.42.42,0,0,0-.58-.16.71.71,0,0,0-.16.28,2,2,0,0,0,0,1.21,1.2,1.2,0,0,0,.69.72h0a3.85,3.85,0,0,0,.21-1.39A1.26,1.26,0,0,0,113.77,96.53Z"/><path class="cls-8" d="M113.68,98.58l0,.06h.22a.53.53,0,0,1-.18,0h0Z"/><polygon class="cls-8" points="113.69 98.58 113.69 98.58 113.69 98.58 113.69 98.58 113.69 98.58"/><path class="cls-8" d="M113.29,100.67a6,6,0,0,0-1.11.6,3,3,0,0,0,.88.49,1,1,0,0,0,1-.2.59.59,0,0,0-.08-.88A.88.88,0,0,0,113.29,100.67Z"/><path class="cls-2" d="M114.09,93.62a26.84,26.84,0,0,0-5.09,5,39.09,39.09,0,0,0-3.76,6.07,60.35,60.35,0,0,0-2.68,6.18v.05c.84-2.1,1.74-4.17,2.77-6.18a37.67,37.67,0,0,1,3.8-6,26.23,26.23,0,0,1,5-5,20.51,20.51,0,0,1,6.29-3.27A19.54,19.54,0,0,0,114.09,93.62Z"/><path class="cls-2" d="M102.56,110.88c0,.13-.1.25-.14.38,0-.11.09-.22.14-.33v-.05Z"/><path class="cls-8" d="M120.69,91.84a.4.4,0,0,0-.11-.2c-.43-.45-1.25-.19-1.83,0a1.73,1.73,0,0,0,.8.69,1,1,0,0,0,1-.18A.39.39,0,0,0,120.69,91.84Z"/><path class="cls-8" d="M114.92,95.32a.33.33,0,0,0,0-.52.94.94,0,0,0-.59-.13,11.39,11.39,0,0,0-1.31.13,2.39,2.39,0,0,0,1.74.56A.37.37,0,0,0,114.92,95.32Z"/><path class="cls-8" d="M116.67,94.21a.44.44,0,0,0,.07-.61.63.63,0,0,0-.43-.13l-1.4-.08c0,.25.17.87.4,1a1.46,1.46,0,0,0,.72.06A1.09,1.09,0,0,0,116.67,94.21Z"/><path class="cls-8" d="M117.72,93.59c.42.1,1-.14,1-.57s-.43-.75-.86-.73a2.37,2.37,0,0,0-1.16.53A2.29,2.29,0,0,0,117.72,93.59Z"/><path class="cls-8" d="M114.37,92.73l0,0,0,0Z"/><path class="cls-8" d="M112.77,92.4a.5.5,0,0,0-.59-.31c-.27.09-.34.44-.32.73a2.35,2.35,0,0,0,.66,1.45,5.91,5.91,0,0,0,.3-1.15A1.35,1.35,0,0,0,112.77,92.4Z"/><path class="cls-8" d="M114.88,90.7a.41.41,0,0,0-.57-.1.82.82,0,0,0-.32.55,1.81,1.81,0,0,0,.4,1.53,4.12,4.12,0,0,0,.53-1.63A.59.59,0,0,0,114.88,90.7Z"/><path class="cls-8" d="M110.94,95.67a3.19,3.19,0,0,0,.17-1.47,1,1,0,0,0-.1-.33.59.59,0,0,0-.91,0,1.11,1.11,0,0,0-.1,1A1.56,1.56,0,0,0,110.94,95.67Z"/><path class="cls-8" d="M112.91,94.73l0,.08h0Z"/><path class="cls-9" d="M76.82,137.85c-.31-1.48-3.47-19.2-3.47-19.2L71,106.26c-.52,8.69,3.34,26.59,4.83,33.14l.33.16a1.45,1.45,0,0,0,.29.11l.22.05c0-.24.06-.51.09-.79h0c0-.14,0-.31.05-.46l.06-.61Z"/><path class="cls-4" d="M77.32,128.48v0c0-1.09,0-2.13-.14-3.09,0-.32-.06-.63-.1-.93-.06-.48-.14-1-.23-1.61-.22-1.39-.51-3-.83-4.84-.09-.5-.19-1-.29-1.52h0c-.31-1.65-.64-3.37-1-5v0s0,0,0,0c-1.11-5.63-2.17-10.66-2.17-10.66-.11,3,2.77,28.45,4.21,37.05,0,0,0,.06,0,.08.2-2.07.41-4.71.47-7.31C77.31,129.84,77.32,129.15,77.32,128.48Z"/><path class="cls-5" d="M77.53,127c-.09.58-.16,1.08-.21,1.49,0,.67,0,1.36,0,2.06-.06,2.6-.27,5.24-.47,7.32h0l-.06.61c0,.15,0,.32-.05.46.15-.42,6.82-19.1,5.09-37.31,0,.87-1.85,11-3.18,18.75l-.21,1.24C78.06,123.64,77.75,125.55,77.53,127Z"/><path class="cls-5" d="M76.82,137.85h0l-.06.61.06-.61Z"/><path class="cls-5" d="M77.29,130.54c-.06,2.6-.27,5.24-.47,7.31h0C77,135.78,77.23,133.14,77.29,130.54Z"/><path class="cls-7" d="M79.14,93.18c-2.74,5-3.3,19.47-3.41,23.28h0c.1.51.2,1,.29,1.52.32,1.79.61,3.45.83,4.84.09.59.17,1.13.23,1.61,0,.3.07.61.1.93.09,1,.13,2,.14,3.09v0c.05-.41.12-.91.21-1.49.22-1.44.53-3.35.88-5.38l.21-1.24q.06-3.95.12-7.3h0C79,99.68,79.14,93.18,79.14,93.18Z"/><path class="cls-7" d="M76,118c-.09-.5-.19-1-.29-1.52h0C75.83,117,75.93,117.49,76,118Z"/><path class="cls-7" d="M77.18,125.37c0-.32-.06-.63-.1-.93-.06-.48-.14-1-.23-1.61.09.59.17,1.13.23,1.61C77.12,124.74,77.15,125.05,77.18,125.37Z"/><path class="cls-2" d="M86.57,93.86a19.14,19.14,0,0,1,2.11-1.92,17.54,17.54,0,0,1,7.2-3.3c-.65.16-1.31.29-1.94.49a17.54,17.54,0,0,0-1.88.68,16,16,0,0,0-3.44,2,18.08,18.08,0,0,0-1.57,1.33h0a20.78,20.78,0,0,0-3.68,4.66,32.41,32.41,0,0,0-3.11,7.36c-.37,1.28-.67,2.58-.94,3.89s-.44,2.63-.58,4a50.48,50.48,0,0,1,1.62-7.82,32.46,32.46,0,0,1,3.14-7.32,21.19,21.19,0,0,1,2.87-3.85l0,0A1.31,1.31,0,0,1,86.57,93.86Z"/><path class="cls-2" d="M74.57,106.4a47.08,47.08,0,0,1,.25-4.75A32.86,32.86,0,0,1,77,92.43a17.66,17.66,0,0,1,5.57-7.55l1-.68c.33-.21.69-.39,1-.59a14.05,14.05,0,0,1,2.18-.94,18.83,18.83,0,0,1,4.65-.94,18.76,18.76,0,0,0-4.68.87,13.58,13.58,0,0,0-2.19.93c-.35.2-.7.38-1,.59l-1,.68a17.75,17.75,0,0,0-5.65,7.57,33.21,33.21,0,0,0-2.17,9.27,45.22,45.22,0,0,0,0,9.52A42,42,0,0,1,74.57,106.4Z"/><path class="cls-8" d="M87.79,92.93h0l.07.1A.13.13,0,0,1,87.79,92.93Z"/><path class="cls-8" d="M87.85,93.67a1.57,1.57,0,0,0-1.28.19l-.2.21a4.08,4.08,0,0,0,1.36.47c.31,0,.63-.31.51-.59A.6.6,0,0,0,87.85,93.67Z"/><path class="cls-8" d="M86.33,94l0,0,.2-.21A1.31,1.31,0,0,0,86.33,94Z"/><path class="cls-8" d="M89.15,92.45a3.53,3.53,0,0,0-1,.12.51.51,0,0,0-.33.15.23.23,0,0,0-.06.21,2.41,2.41,0,0,0,2.15.23.21.21,0,0,0,.11-.12.24.24,0,0,0,0-.16A1.11,1.11,0,0,0,89.15,92.45Z"/><path class="cls-8" d="M86.93,93.14a1.52,1.52,0,0,0-.42-1.7,2.46,2.46,0,0,0-.12,1,.85.85,0,0,0,.66.71h0Z"/><path class="cls-8" d="M87.05,93.19Z"/><path class="cls-9" d="M53.18,128.83c0-.14,0-.28-.08-.42v0c-.48-2.41-1-4.79-1.28-7.21-.14-1.09-.29-2.18-.44-3.28h0c-.19-1.27-.38-2.54-.58-3.81-.44-2.84-.74-3.28-1.25-6.1-.24-1.36-.49-2.72-.74-4.08-.13-.67-.25-1.34-.38-2-.07-.35-.13-.7-.2-1,0-.19-.23-.71-.16-.88-1.38,3.49-.38,9.39,0,13.1.87,8.78,3.83,13.58,5,22.17h0a2.93,2.93,0,0,1,0,.66c0,.06.08,1.13.12,1.79a.56.56,0,0,0,.56.52h.5a29.92,29.92,0,0,0-.41-5.42c0-.19,0-.38-.07-.57v0c-.06-.42-.12-.83-.19-1.25C53.45,130.23,53.31,129.53,53.18,128.83Z"/><path class="cls-4" d="M53.9,132.47c0,.11,0,.21-.07.32a29.92,29.92,0,0,1,.41,5.42c2-6.48,4.58-12.13,5.84-18.74C61,115,62.46,111.57,62,107a55.24,55.24,0,0,1-4.55,15.26c-.14.33-.28.67-.43,1-.3.71-.63,1.45-1,2.22a33.35,33.35,0,0,0-1.92,5.66h0C54.06,131.58,54,132,53.9,132.47Z"/><path class="cls-5" d="M53.31,119.15c.43-5.16,1.56-7.58,2.75-12.43-.33-3.67-.83-7.34-1.45-11l-.15.34a20.92,20.92,0,0,0-1.54,5.22c-.15.82-.27,1.64-.38,2.47-.08,7-.06,14,.52,20.44,0-.29,0-.58,0-.87,0-1.15.08-2.32.17-3.53C53.28,119.59,53.29,119.38,53.31,119.15Z"/><path class="cls-5" d="M54.32,96c.07-.19.16-.36.24-.54-.55-3.22-1.18-6.41-1.86-9.56.06,5.42-.07,11.19-.15,17,.08-.55.15-1.09.24-1.62A21.32,21.32,0,0,1,54.32,96Z"/><path class="cls-2" d="M52.08,106.71c-.4,3.63-.63,7.27-.72,10.92.15-3.64.42-7.29.82-10.91.11-1,.23-2,.36-3,0-.29,0-.58,0-.87C52.38,104.16,52.22,105.43,52.08,106.71Z"/><path class="cls-2" d="M57,91.26c1-1.55,1.94-3.09,3-4.55.27-.36.55-.72.84-1.07l.91-1a17.51,17.51,0,0,1,2-1.88,14.14,14.14,0,0,1,4.74-2.66,14,14,0,0,0-4.79,2.6,17.7,17.7,0,0,0-2,1.88l-.91,1c-.29.35-.58.71-.85,1.07-1.11,1.46-2.09,3-3.07,4.54a38,38,0,0,0-2.36,4.29c0,.08,0,.17,0,.26A34,34,0,0,1,57,91.26Z"/><path class="cls-2" d="M54.46,96.08l.15-.34c0-.09,0-.18,0-.26-.08.18-.17.35-.24.54a21.32,21.32,0,0,0-1.53,5.26c-.09.53-.16,1.07-.24,1.62,0,.29,0,.58,0,.87.11-.83.23-1.65.38-2.47A20.92,20.92,0,0,1,54.46,96.08Z"/><path class="cls-7" d="M60.33,106.71c0-.2.08-.39.11-.59a128.49,128.49,0,0,0,1.63-19.85c-1.74,3.66-2.72,8.11-3.79,12-.79,2.85-1.55,5.63-2.22,8.4-1.19,4.85-2.32,7.27-2.75,12.43,0,.23,0,.44-.05.66-.09,1.21-.14,2.38-.17,3.53,0,.29,0,.58,0,.87,0,1.41,0,2.79,0,4.16v0c0,.14,0,.28.08.42.13.7.27,1.4.39,2.1.07.42.13.83.19,1.25v0c0,.19.05.38.07.57,0-.11.05-.21.07-.32.08-.45.16-.89.26-1.3h0c-.32-5.49.42-6.91,2.09-12.54.93-3.13,2-5.33,2.88-7.69v-.05a28.31,28.31,0,0,1,1.09-3.61v0c0-.15.07-.33.1-.49,0,.08-.07.16-.1.25Z"/><path class="cls-7" d="M53.18,128.83c.13.7.27,1.4.39,2.1.07.42.13.83.19,1.25-.06-.42-.12-.83-.19-1.25C53.45,130.23,53.31,129.53,53.18,128.83Z"/><path class="cls-7" d="M53.9,132.47c.08-.45.16-.89.26-1.3h0C54.06,131.58,54,132,53.9,132.47Z"/><path class="cls-7" d="M53.09,123.34c0-1.15.08-2.32.17-3.53C53.17,121,53.12,122.19,53.09,123.34Z"/><path class="cls-2" d="M66.82,93.2a29.09,29.09,0,0,0-2,3l.1,0-.11,0c-.24.42-.5.83-.72,1.26-.78,1.52-1.46,3.09-2.1,4.68s-1.14,3-1.66,4.5v.05c.58-1.51,1.16-3,1.77-4.52s1.34-3.13,2.13-4.64a31.28,31.28,0,0,1,2.68-4.34,22.28,22.28,0,0,1,3.5-3.7A19.28,19.28,0,0,0,66.82,93.2Z"/><path class="cls-2" d="M60.22,107c0-.09.07-.17.1-.25v-.05Z"/><path class="cls-8" d="M65.92,92.89c-.13-.19-.46-.12-.58.08a.89.89,0,0,0,0,.68c.09.33.31.7.65.71l-.21-.08A3.3,3.3,0,0,0,66,93.2.42.42,0,0,0,65.92,92.89Z"/><path class="cls-8" d="M64.12,95a.73.73,0,0,0,.07.83,1.28,1.28,0,0,0,.54.4c0-.45.43-.95.15-1.31A.5.5,0,0,0,64.12,95Z"/><path class="cls-8" d="M66.33,91.83a1.3,1.3,0,0,0,.86.75c.08-.43.16-1.4-.26-1.51S66.22,91.46,66.33,91.83Z"/><path class="cls-8" d="M64.73,96.21v.05h.08v0Z"/><path class="cls-8" d="M64.82,96.25v0l.11,0Z"/><path class="cls-8" d="M65.89,96a.53.53,0,0,0-.24.11,4.64,4.64,0,0,0-.92,1.3A1.86,1.86,0,0,0,66,96.85a.73.73,0,0,0,.23-.47A.35.35,0,0,0,65.89,96Z"/><path class="cls-8" d="M66.92,94.47a3.64,3.64,0,0,0-1,.64.5.5,0,0,0,.49.32,1.59,1.59,0,0,0,.6-.17c.21-.1.46-.26.44-.49A.4.4,0,0,0,66.92,94.47Z"/><path class="cls-8" d="M68.54,92.61c-.51,0-1.14.66-1.54,1a1.38,1.38,0,0,0,1.71-.74c0-.06.05-.13,0-.17S68.61,92.61,68.54,92.61Z"/></g></svg>