<svg xmlns="http://www.w3.org/2000/svg" viewBox="0 0 75.4 235.59"><defs><style>.cls-1{fill:#76a075;}.cls-2{fill:#faefd8;}.cls-3{fill:#c7d17b;}.cls-4{fill:#93c2b4;}.cls-5{fill:#fff;}</style></defs><title>p4me</title><g id="รวม"><path class="cls-1" d="M72.55,154c.69.11,1.4.22,2.08.4-.68-.18-1.39-.29-2.08-.4a19,19,0,0,0-5.2-.29A19,19,0,0,1,72.55,154Z"/><path class="cls-1" d="M66.37,174.08a12.76,12.76,0,0,1,9-12.83V161c-.17-.27-.33-.55-.48-.8a5.56,5.56,0,0,0-3.83-2.91,43.15,43.15,0,0,0-9.78,5.38,2.1,2.1,0,0,1-1.76.6,1.37,1.37,0,0,1-.79-1.49,4.12,4.12,0,0,1,.74-1.64c1.59-2.42,3.35-5,6-6l.3-.1c-3-.92-6.14-1.9-8.64-3.86a13.15,13.15,0,0,1-4.89-11,2,2,0,0,1,.48-1.37,2.17,2.17,0,0,1,1.05-.46,13.39,13.39,0,0,1,4.21-.54c2.43.22,4.52,1.73,6.79,2.61,1.87.74,3.92,1.07,5.61,2.15a11.92,11.92,0,0,1,1.61,1.34,23.15,23.15,0,0,1,3.33,3.87V0L0,225.09c4.07,1.21,34.65,9.89,75.4,10.5V180.37C67.43,179.25,66.44,175.28,66.37,174.08Z"/><path class="cls-2" d="M66.37,174.08c.07,1.2,1.06,5.17,9,6.29V161.25A12.76,12.76,0,0,0,66.37,174.08Z"/><path class="cls-3" d="M75.3,154.55h0l-.14,0a1.85,1.85,0,0,1,0,.41,1.93,1.93,0,0,0-.09-.43l-.46-.14c-.68-.18-1.39-.29-2.08-.4a19,19,0,0,0-5.2-.29,8.55,8.55,0,0,0-1.5.33h0l-.3.1c-2.7,1-4.46,3.59-6,6a4.12,4.12,0,0,0-.74,1.64,1.37,1.37,0,0,0,.79,1.49,2.1,2.1,0,0,0,1.76-.6,43.15,43.15,0,0,1,9.78-5.38,5.56,5.56,0,0,1,3.83,2.91c.15.25.31.53.48.8v-6.37Z"/><path class="cls-4" d="M72.07,142.82a11.92,11.92,0,0,0-1.61-1.34c-1.69-1.08-3.74-1.41-5.61-2.15-2.27-.88-4.36-2.39-6.79-2.61a13.39,13.39,0,0,0-4.21.54,2.17,2.17,0,0,0-1.05.46,2,2,0,0,0-.48,1.37,13.15,13.15,0,0,0,4.89,11c2.5,2,5.6,2.94,8.64,3.86h0a8.55,8.55,0,0,1,1.5-.33,19,19,0,0,1,5.2.29c.69.11,1.4.22,2.08.4l.46.14a2.49,2.49,0,0,0-.64-1,5.57,5.57,0,0,0-1.32-.92c-1-.51-1.95-1-2.91-1.55-.41-.22-.8-.46-1.2-.69a6.44,6.44,0,0,1-1,.44,9.28,9.28,0,0,1-1.27.38,9.64,9.64,0,0,1-1.31.2,6.18,6.18,0,0,1-1.36,0,5.77,5.77,0,0,1,1.23-.59,10.89,10.89,0,0,1,1.27-.37,9.64,9.64,0,0,1,1.31-.2,5.17,5.17,0,0,1,.79,0c-1.1-.63-2.18-1.28-3.25-1.94a4.6,4.6,0,0,1-1,.91,5.48,5.48,0,0,1-1.61.69,5.11,5.11,0,0,1-1.74.14,4,4,0,0,1-1.67-.46c.58,0,1.12-.07,1.66-.14a13.41,13.41,0,0,0,1.56-.29,14.24,14.24,0,0,0,1.53-.48c.36-.14.73-.31,1.11-.48l-.76-.46c-1.36-.87-2.7-1.78-4-2.71l-.71.13c-.45.07-.89.12-1.34.15s-.91,0-1.36,0a7.36,7.36,0,0,1-1.39-.14,6,6,0,0,1,1.32-.47,9.24,9.24,0,0,1,1.37-.2,8.08,8.08,0,0,1,1.39,0h.07c-2.06-1.47-4.07-3-6-4.67,2.34,1.51,4.65,3,7,4.54a9,9,0,0,1-.17-1c-.06-.53-.08-1.06-.09-1.59a14.17,14.17,0,0,1,.09-1.6,8.9,8.9,0,0,1,.3-1.59,8.09,8.09,0,0,1,.3,1.59,14.18,14.18,0,0,1,0,3.19,9.54,9.54,0,0,1-.2,1.17c1.28.84,2.56,1.68,3.85,2.49l.85.53c0-.33.08-.67.13-1l.21-1.58.17-1.57c0-.54.09-1.07.17-1.63a5,5,0,0,1,.43,1.62,7,7,0,0,1-.4,3.31,6.17,6.17,0,0,1-.49,1l3.4,2.13a15.45,15.45,0,0,0,.82-1.4,13.2,13.2,0,0,0,.78-1.87,12.77,12.77,0,0,0,.49-2,19.52,19.52,0,0,0,.21-2.08,5.51,5.51,0,0,1,.39,2.13,7.13,7.13,0,0,1-1.36,4.1,5.5,5.5,0,0,1-1.19,1.17l1,.61c.94.58,1.87,1.15,2.81,1.75a6.37,6.37,0,0,1,1.28,1.1,2.43,2.43,0,0,1,.55,1.14l.14,0h0l.1,0v-7.9A23.15,23.15,0,0,0,72.07,142.82Z"/><path class="cls-4" d="M67.35,153.66a8.55,8.55,0,0,0-1.5.33h0A8.55,8.55,0,0,1,67.35,153.66Z"/><path class="cls-5" d="M60.86,144.37c-2.33-1.51-4.64-3-7-4.54,1.91,1.65,3.92,3.2,6,4.67a5.15,5.15,0,0,1,1.08.21A3.38,3.38,0,0,1,60.86,144.37Z"/><path class="cls-5" d="M74.61,153.37a6.37,6.37,0,0,0-1.28-1.1c-.94-.6-1.87-1.17-2.81-1.75l-1-.61a3.47,3.47,0,0,1-.38.29h.11a2.26,2.26,0,0,1-.26.14c.4.23.79.47,1.2.69,1,.54,2,1,2.91,1.55a5.57,5.57,0,0,1,1.32.92,2.49,2.49,0,0,1,.64,1l.07,0A2.43,2.43,0,0,0,74.61,153.37Z"/><path class="cls-5" d="M69.41,149.82,66,147.69a4.76,4.76,0,0,1-.31.47c0-.21.06-.41.09-.62l-.85-.53c-1.29-.81-2.57-1.65-3.85-2.49,0,.08,0,.15-.05.22l.12,0-.14,0,0,.13,0-.11-.45.13c1.32.93,2.66,1.84,4,2.71l.76.46.41-.18a3.36,3.36,0,0,1-.24.29c1.07.66,2.15,1.31,3.25,1.94l.46,0Z"/><path class="cls-5" d="M61.29,143.35a14.18,14.18,0,0,0,0-3.19,8.09,8.09,0,0,0-.3-1.59,8.9,8.9,0,0,0-.3,1.59,14.17,14.17,0,0,0-.09,1.6c0,.53,0,1.06.09,1.59a9,9,0,0,0,.17,1l.23.15A9.54,9.54,0,0,0,61.29,143.35Z"/><path class="cls-5" d="M61,144.74c0-.07,0-.14.05-.22l-.23-.15a3.38,3.38,0,0,0,.08.34Z"/><path class="cls-5" d="M61,144.94l0-.13-.06,0Z"/><path class="cls-5" d="M66.5,146.69a7,7,0,0,0,.4-3.31,5,5,0,0,0-.43-1.62c-.08.56-.12,1.09-.17,1.63L66.13,145l-.21,1.58c0,.33-.09.67-.13,1l.22.15A6.17,6.17,0,0,0,66.5,146.69Z"/><path class="cls-5" d="M66,147.69l-.22-.15c0,.21-.07.41-.09.62A4.76,4.76,0,0,0,66,147.69Z"/><path class="cls-5" d="M70.74,148.74a7.13,7.13,0,0,0,1.36-4.1,5.51,5.51,0,0,0-.39-2.13,19.52,19.52,0,0,1-.21,2.08,12.77,12.77,0,0,1-.49,2,13.2,13.2,0,0,1-.78,1.87,15.45,15.45,0,0,1-.82,1.4l.14.09A5.5,5.5,0,0,0,70.74,148.74Z"/><path class="cls-5" d="M69.17,150.2a3.47,3.47,0,0,0,.38-.29l-.14-.09-.24.38Z"/><path class="cls-5" d="M59.79,144.49a8.08,8.08,0,0,0-1.39,0,9.24,9.24,0,0,0-1.37.2,6,6,0,0,0-1.32.47,7.36,7.36,0,0,0,1.39.14c.45,0,.91,0,1.36,0s.89-.08,1.34-.15l.71-.13-.65-.46Z"/><path class="cls-5" d="M61.16,144.77l-.12,0s0,0,0,.07Z"/><path class="cls-5" d="M60.94,144.71a5.15,5.15,0,0,0-1.08-.21l.65.46.45-.13S61,144.75,60.94,144.71Z"/><path class="cls-5" d="M61,144.83l.06,0s0-.05,0-.07l-.1,0S61,144.79,61,144.83Z"/><path class="cls-5" d="M64.18,148.61a14.24,14.24,0,0,1-1.53.48,13.41,13.41,0,0,1-1.56.29c-.54.07-1.08.1-1.66.14a4,4,0,0,0,1.67.46,5.11,5.11,0,0,0,1.74-.14,5.48,5.48,0,0,0,1.61-.69,4.6,4.6,0,0,0,1-.91l-.17-.11C64.91,148.3,64.54,148.47,64.18,148.61Z"/><path class="cls-5" d="M65.29,148.13l.17.11a3.36,3.36,0,0,0,.24-.29Z"/><path class="cls-5" d="M67.92,150.21a9.64,9.64,0,0,0-1.31.2,10.89,10.89,0,0,0-1.27.37,5.77,5.77,0,0,0-1.23.59,6.18,6.18,0,0,0,1.36,0,9.64,9.64,0,0,0,1.31-.2,9.28,9.28,0,0,0,1.27-.38,6.44,6.44,0,0,0,1-.44,3.07,3.07,0,0,1-.31-.17A5.17,5.17,0,0,0,67.92,150.21Z"/><path class="cls-5" d="M69.17,150.2h0l-.46,0a3.07,3.07,0,0,0,.31.17,2.26,2.26,0,0,0,.26-.14Z"/><polygon class="cls-5" points="69.16 150.21 69.17 150.2 69.17 150.2 69.16 150.21"/></g></svg>