<svg xmlns="http://www.w3.org/2000/svg" viewBox="0 0 239.6 237.36"><defs><style>.cls-1{fill:#285e85;}.cls-2{fill:#76a075;}.cls-3{fill:#f3a95a;}.cls-4{fill:#f4b845;}.cls-5{fill:#2f4b3d;}.cls-6{fill:#5f887f;}.cls-7{fill:#488a71;}.cls-8{fill:#ddda91;}.cls-9{fill:#557e41;}.cls-10{fill:#6ca77d;}.cls-11{fill:#0b9648;}.cls-12{fill:#f9c041;}.cls-13{fill:#ef644e;}.cls-14{fill:#faefd8;}.cls-15{fill:#23689c;}.cls-16{fill:#faf2de;}.cls-17{fill:#65ab45;}.cls-18{fill:#64a2a1;}.cls-19{fill:#c7d17b;}.cls-20{fill:#406f72;}.cls-21{fill:#93c2b4;}.cls-22{fill:#66846a;}.cls-23{fill:#fff;}</style></defs><title>p4me</title><g id="รวม"><path class="cls-1" d="M.77.29.94.42l238.3.31s0-.19,0-.55H.77Z"/><polygon class="cls-1" points="0.78 0.18 0.63 0.18 0.78 0.29 0.78 0.18"/><path class="cls-2" d="M.77,162.7V163l.15,0Z"/><path class="cls-2" d="M129.12,45.82h0c.06.35.14.69.23,1,.17.69.39,1.38.6,2.08-.21-.7-.43-1.39-.6-2.08C129.26,46.51,129.18,46.17,129.12,45.82Z"/><path class="cls-2" d="M68.45,170.51l.34.11c.89-1.69,2.76-5.29,3.1-6.27.13-.69.24-1.34.35-2a12.61,12.61,0,0,0-1-3.06,10.43,10.43,0,0,1-2,3.32C69.06,165.46,68.69,168.61,68.45,170.51Z"/><path class="cls-2" d="M2.69,157.44h0a4.11,4.11,0,0,0-.82-.62,4.74,4.74,0,0,0-.5-.26,4.74,4.74,0,0,1,.5.26A4.11,4.11,0,0,1,2.69,157.44Z"/><path class="cls-2" d="M136.51,46.83c.76-.47,1.54-.91,2.33-1.32C138.05,45.92,137.27,46.35,136.51,46.83Z"/><path class="cls-2" d="M129.75,53.3a5.06,5.06,0,0,0-.46-.24,5.06,5.06,0,0,1,.46.24,4.11,4.11,0,0,1,.82.62h0A3.85,3.85,0,0,0,129.75,53.3Z"/><path class="cls-2" d="M120.6,51.87a18.62,18.62,0,0,1,5.2.3,18.35,18.35,0,0,1,2.21.43,18.35,18.35,0,0,0-2.21-.43A18.62,18.62,0,0,0,120.6,51.87Z"/><path class="cls-2" d="M131.62,53.82h0a7.32,7.32,0,0,1,1.93-4.56A7.32,7.32,0,0,0,131.62,53.82Z"/><path class="cls-2" d="M1.24,149.35v0c.06.34.14.69.23,1,.17.68.39,1.38.6,2.07-.21-.69-.43-1.39-.6-2.07C1.38,150,1.3,149.69,1.24,149.35Z"/><path class="cls-2" d="M65.93,160.33a33,33,0,0,0-.81,4.26A6.14,6.14,0,0,0,64,160.72a17.11,17.11,0,0,0,2.46,6.43,5.5,5.5,0,0,1,.78,2.32c0-1.84,0-4.6-.09-7.59C66.77,161.43,66.36,160.91,65.93,160.33Z"/><path class="cls-2" d="M8.63,150.35c.76-.47,1.54-.9,2.33-1.32C10.17,149.45,9.39,149.88,8.63,150.35Z"/><path class="cls-2" d="M2.81,157.56a8,8,0,0,1,.73.84A8,8,0,0,0,2.81,157.56Z"/><path class="cls-2" d="M3.74,157.34h0a7.37,7.37,0,0,1,2-4.66A7.37,7.37,0,0,0,3.74,157.34Z"/><path class="cls-2" d="M239.24.73H1.11l-.34,1V148.42a4.41,4.41,0,0,1,.47.91,17.53,17.53,0,0,1,1.44-10.84,35.5,35.5,0,0,1,1.87-3.22L9,128.21a1.65,1.65,0,0,1,.76-.76c.87-.28,1.44.89,1.59,1.79,1,5.93,2.15,12.71,1.69,18.73,5.22-2.79,10.5-6.52,11.79-12.22-.24,5.18-1.28,10.62-4.68,14.54l-.3.34c1.92-.32,3.9.41,5.73,1.14a7.49,7.49,0,0,1,2.55,1.41,7.24,7.24,0,0,1,1.37,2.07,60.07,60.07,0,0,1,3.28,8.13c-3.27,2.17-7.5,2.35-11.37,1.72a9.83,9.83,0,0,1-4.23-1.51c-.77-.56-1.4-1.31-2.19-1.84a7.6,7.6,0,0,0-5.55-.81,8.18,8.18,0,0,0-1.78,1.69c5.32,1.2,8.92,5.86,9.27,11.65,0,0,.49,8.05-11.3,8.11a34.38,34.38,0,0,1-4.84-.29v55.22C84.92,238.58,212.46,205.38,239.6.73ZM36.71,98.28c-2.52,3.11-5.08,1.8-5.26,3s-2,3.46-3.43,5.3-1.68.77-1.68.77,1,.69.87-3-2.77-4.75-4.08-6.82-2.66-3.83-.11-9.87c1.81-4.32,5.94-4.28,8.2-3.9l-1.48-2.46c-1.34-2.23-2.25-6-3-9-2.51-2.51-5.88-4.56-6.75-6.65-1.48-3.52-6.14-3.69-7.61-7s-4.31-1-7.57-5.17.86-2.94-.79-8.67.11-3.79.86-6.33,4-.21,5.83.31,1.78,4.88,2.16,6.66c.26,1.2,1.86,1.33,3.2,2.06-1.32-4.08.82-2.18-.3-7C14.55,35.44,18,34.12,19.69,35S20.46,39.7,25.2,39s7.44,8.08,6.73,13c-.53,3.67-.14,4.54,1.09,5.76,0-1.39.2-2.45.73-2.83,1.81-1.3-.15-3.38,1.53-3.81s-.23,2.4,4.54,4.82,2.45,6.16,1.83,8.63-2.78,2.3-1.91,5.37-3.37,9.39-3.37,9.39a7,7,0,0,0,.38-1.59,34.11,34.11,0,0,1-2.48,7.06,6.71,6.71,0,0,1,4,4.6A10.25,10.25,0,0,1,36.71,98.28Zm40.46,52.5c-.63,2.47-2.77,2.3-1.91,5.37s-3.36,9.39-3.36,9.39a7.46,7.46,0,0,0,.37-1.6A34.82,34.82,0,0,1,69.8,171a6.74,6.74,0,0,1,4,4.6c.52,1.71,1,5.82-1.55,8.94s-5.08,1.8-5.26,3-2,3.45-3.42,5.3-1.68.77-1.68.77,1,.68.86-3-2.77-4.75-4.07-6.82S56,180,58.54,174c1.81-4.32,5.94-4.28,8.2-3.9l-1.48-2.46c-1.34-2.23-2.25-6-3-9-2.51-2.51-5.87-4.57-6.75-6.65-1.48-3.52-6.13-3.69-7.6-7s-4.32-1-7.58-5.17.86-2.94-.78-8.67.1-3.79.85-6.33,4-.21,5.84.31S48,130,48.38,131.74c.25,1.2,1.86,1.33,3.19,2-1.32-4.07.82-2.17-.3-7-1.2-5.12,2.26-6.44,3.94-5.51s.77,4.66,5.51,3.94,7.44,8.08,6.73,13c-.53,3.67-.14,4.54,1.09,5.76,0-1.4.2-2.45.73-2.83,1.81-1.3-.15-3.38,1.53-3.81s-.23,2.4,4.55,4.82S77.79,148.3,77.17,150.78ZM93.18,46c.93,2.15-4.52,8.21-7,9.14s2.26-.93,2.56.61-.24,3-4.28,7.39a21.76,21.76,0,0,0-4,7l-.09.5c6.29.41,10.66,5.41,11,11.78,0,0,.49,8-11.17,8-12.28.07-13.61-5.11-13.69-6.5A12.72,12.72,0,0,1,78.13,70.7c-.78-3-2.17-6.65-4.58-9.06-4.52-4.52-2.66-6.25-.66-6S68.36,53.26,67.43,49s1.6-3.86,3.19-3.07-2-5.32-3.39-9.18-3.68-12.39,2.46-13.58c2.69-.52,8,.4,5.59,17.17-1.6,11.24-1.35,7.42-.06,3.84-.14-2.83.13-5,1.22-5.14,1.52-.24,1.88.86,2,2.19.57.6.67,1.86.56,3.33a1,1,0,0,0,.88.52c2.54.08-3.89-14.43-.88-17s1.33,3.8,3.12,3.8S79.8,16.23,85.39,16.23s5.59,8.5,0,16c0,0,2.46-2.24,3.35-.89.37.55.32,2.12-.18,4.12.79-1.56,1.89-2.63,3.49-2.51,5.24.41.1,10.27-2.57,12.63S92.26,43.83,93.18,46Zm35.52,79.16c.93,2.16-4.52,8.22-7,9.14s2.26-.92,2.57.62-.25,3-4.28,7.38a22,22,0,0,0-4,7l-.09.51c6.29.4,10.66,5.4,11,11.78,0,0,.48,7.95-11.18,8-12.28.07-13.61-5.1-13.69-6.5a12.73,12.73,0,0,1,11.52-13.23c-.78-3-2.17-6.65-4.58-9.05-4.52-4.53-2.66-6.26-.66-6s-4.53-2.4-5.46-6.66,1.6-3.86,3.2-3.06-2-5.33-3.4-9.19-3.68-12.39,2.46-13.58c2.69-.52,8,.4,5.59,17.18-1.6,11.23-1.35,7.42,0,3.83-.15-2.83.12-5,1.22-5.13,1.51-.25,1.88.86,2,2.18.57.6.67,1.86.56,3.34a1,1,0,0,0,.88.52c2.54.08-3.88-14.43-.88-17s1.33,3.8,3.12,3.8-2.35-15.66,3.24-15.66,5.6,8.5,0,16c0,0,2.46-2.23,3.36-.89.37.55.31,2.12-.18,4.12.78-1.55,1.88-2.63,3.48-2.51,5.24.42.11,10.28-2.56,12.64S127.78,123,128.7,125.15Zm16.09-54.39s.49,8-11.3,8.11c-12.43.07-13.78-5.17-13.86-6.58a12.77,12.77,0,0,1,9.17-12.88l-.63-1a5.57,5.57,0,0,0-3.82-2.91,43.4,43.4,0,0,0-9.79,5.38,2.08,2.08,0,0,1-1.76.61A1.39,1.39,0,0,1,112,60a4.14,4.14,0,0,1,.75-1.64c1.58-2.42,3.35-5,6-6l.29-.1c-3-.92-6.14-1.9-8.64-3.86a13.19,13.19,0,0,1-4.89-11,2.09,2.09,0,0,1,.48-1.38,2.21,2.21,0,0,1,1.06-.46,13.68,13.68,0,0,1,4.21-.54c2.42.22,4.52,1.73,6.78,2.61,1.88.74,3.93,1.07,5.62,2.15A12,12,0,0,1,125.33,41c1.55,1.47,3.42,3.62,3.79,4.77A17.53,17.53,0,0,1,130.56,35a35.5,35.5,0,0,1,1.87-3.22l4.43-7.06a1.69,1.69,0,0,1,.76-.76c.87-.28,1.44.89,1.59,1.79,1,5.93,2.15,12.71,1.69,18.73,5.22-2.8,10.5-6.52,11.79-12.23-.24,5.19-1.28,10.63-4.68,14.55l-.3.34c1.92-.32,3.9.41,5.73,1.13A7.51,7.51,0,0,1,156,49.66a7.11,7.11,0,0,1,1.37,2.07,59.42,59.42,0,0,1,3.28,8.12c-3.27,2.18-7.5,2.36-11.37,1.72a9.68,9.68,0,0,1-4.23-1.5c-.77-.56-1.4-1.31-2.19-1.84a7.58,7.58,0,0,0-5.54-.81,8,8,0,0,0-1.79,1.69C140.84,60.3,144.44,65,144.79,70.76Zm45.79,28.71c-2.37,1.3-2.48,3.8-3.28,8.32s-5.77,6.43-9.34,6.25-7.12,2.92-7.13,2.93l-.05.12c-.16,4.74-.66,10.22-2.1,11.11-2.62,1.63-3.86-1.49-3.86-1.49a9,9,0,0,0,.78-1.16,44.54,44.54,0,0,0-2.5-9.21,4.66,4.66,0,0,1-1-.43,24.78,24.78,0,0,0-7.37-3.69c-4.42-1.37-7.42-4-4.81-7.14s-2-1.19-3.49-6.68,1.8-4.6,3.1-5.26-3.4-3-1-5.82,7.07-3.08,8.21,1,1.08,5.54,4.28,5.33h.06a3.1,3.1,0,0,0-.19-1.59c-1.26-3.25-1-7.27.38-8.71l0,0a.08.08,0,0,1,0,0,1.81,1.81,0,0,1,.89-.52c2.18-.43-.14-3.77,2.33-5.66s5.18-2.62,5.57,0,1.55,5.08,4.16,4.79.29,3.34,1.31,4.94,4.79-.27,4.79,4.5a20.13,20.13,0,0,0,.5,5.89A6.64,6.64,0,0,0,184,96C187.66,93.32,192.94,98.17,190.58,99.47Z"/><path class="cls-2" d="M136,56.23a21.17,21.17,0,0,1,1.84-1.7A21.17,21.17,0,0,0,136,56.23Z"/><path class="cls-2" d="M167.36,112a11.73,11.73,0,0,1-1.33,3c.46,1.29,1,2.94,1.54,4.61,0-.1.07-.19.11-.29a51.77,51.77,0,0,0,.83-7.06C168.22,112.26,167.83,112.17,167.36,112Z"/><path class="cls-2" d="M139,53.64l.12-.09h0Z"/><path class="cls-2" d="M33.27,84.35c.89-1.69,2.76-5.29,3.09-6.27.14-.69.25-1.34.36-2a12.61,12.61,0,0,0-1-3.06,10.43,10.43,0,0,1-2,3.32c-.16,2.83-.52,6-.76,7.88Z"/><path class="cls-2" d="M30.41,74.06a33,33,0,0,0-.81,4.26,6.14,6.14,0,0,0-1.11-3.87A17.07,17.07,0,0,0,31,80.89a5.46,5.46,0,0,1,.78,2.31c0-1.84,0-4.6-.1-7.59C31.25,75.16,30.84,74.64,30.41,74.06Z"/><path class="cls-2" d="M86.09,45c.41,0,.59-3,1.28-6a24.14,24.14,0,0,1-2.24,4.12C85.63,43.72,85.56,45,86.09,45Z"/><path class="cls-2" d="M131.68,55.25a8,8,0,0,0-1-1.18A8,8,0,0,1,131.68,55.25Z"/><path class="cls-2" d="M3.88,158.88c0-.25-.08-.51-.11-.77,0,.26.06.52.11.77h0c.09.58.21,1.16.31,1.74C4.1,160,4,159.46,3.88,158.88Z"/><path class="cls-2" d="M121.62,124.12c.4,0,.58-3,1.27-6a23.54,23.54,0,0,1-2.24,4.13C121.15,122.88,121.08,124.12,121.62,124.12Z"/><path class="cls-2" d="M10.94,157.28A21.49,21.49,0,0,0,7.87,160,21.49,21.49,0,0,1,10.94,157.28Z"/><path class="cls-2" d="M131.65,54.59c0,.26.06.51.11.77h0c.09.58.22,1.16.31,1.73-.09-.57-.22-1.15-.31-1.73C131.71,55.1,131.68,54.85,131.65,54.59Z"/><path class="cls-2" d="M11.24,157.07h0l-.14.1.14-.1Z"/><polygon class="cls-2" points="1.16 0.58 1.11 0.73 239.24 0.73 239.24 0.73 0.94 0.41 1.16 0.58"/><polygon class="cls-3" points="0.94 0.41 0.78 0.29 0.78 0.41 0.94 0.41"/><polygon class="cls-3" points="0.39 0 0.45 0.18 0.63 0.18 0.39 0"/><polygon class="cls-3" points="0.78 0.41 0.78 0.29 0.63 0.18 0.45 0.18 0.59 0.62 0.66 0.41 0.78 0.41"/><polygon class="cls-3" points="0.78 1.74 1.11 0.73 0.78 0.73 0.78 1.74"/><polygon class="cls-3" points="0.94 0.41 0.78 0.41 0.78 0.73 1.11 0.73 1.16 0.58 0.94 0.41"/><polygon class="cls-3" points="0.66 0.41 0.59 0.62 0.63 0.73 0.78 0.73 0.78 0.41 0.66 0.41"/><path class="cls-4" d="M79,75.31a35.53,35.53,0,0,0-.9-4.61A12.72,12.72,0,0,0,66.61,83.93c.08,1.39,1.41,6.57,13.69,6.5,11.66-.06,11.17-8,11.17-8C91.09,76,86.72,71,80.43,70.63c0,.1,0,.21-.05.31C80.56,73.24,80.24,75,79,75.31Z"/><path class="cls-5" d="M77.81,52.72c.74.13,1.08-2.15,2.44-2a56.83,56.83,0,0,0,1-6.85c1.1-12.14,4.77-16.27,5.09-22.63a14.62,14.62,0,0,1-1.08,6.87,58.66,58.66,0,0,0-3.53,16.71c-.11,1.83-.36,4.25-.76,6.71a5.44,5.44,0,0,1,.13.57c.31,0,.71.28,1.26.89,0,0-1-9,1.23-10,.8-.37,1.23-.22,1.5.1A24.14,24.14,0,0,0,87.37,39a16.36,16.36,0,0,1,1.19-3.54c.5-2,.55-3.57.18-4.12-.89-1.35-3.35.89-3.35.89,5.59-7.49,5.59-16,0-16s-1.45,15.65-3.24,15.65S82,25.51,79,28.08s3.42,17.08.88,17a1,1,0,0,1-.88-.52C78.76,48,77.3,52.64,77.81,52.72Z"/><path class="cls-5" d="M77.81,40.88a1.12,1.12,0,0,1,.66.35c-.15-1.33-.51-2.43-2-2.19-1.09.18-1.36,2.31-1.22,5.14C75.86,42.41,76.76,40.7,77.81,40.88Z"/><path class="cls-6" d="M81,51.57c.4-2.46.65-4.88.76-6.71A58.66,58.66,0,0,1,85.3,28.15a14.62,14.62,0,0,0,1.08-6.87c-.32,6.36-4,10.49-5.09,22.63a56.83,56.83,0,0,1-1,6.85,2,2,0,0,1,.36.1C80.77,50.93,80.9,51.17,81,51.57Z"/><path class="cls-7" d="M89.48,45.57c2.67-2.36,7.81-12.22,2.57-12.63-1.6-.12-2.7,1-3.49,2.51A23,23,0,0,1,87.37,39c-.69,3-.87,6-1.28,6s-.46-1.24-1-1.85A19.45,19.45,0,0,1,83.71,45c-4.28,4.94,2.85-.35,3.65,2.62.24-.8.46-1.61.62-2.43.56-2.71,1.6-5.87,1.6-5.87-1.7,7.35-1.32,9.79-6.41,18.74a35.67,35.67,0,0,0-1.83,3.67,80.08,80.08,0,0,1-.82,8.43,21.76,21.76,0,0,1,4-7c4-4.43,4.59-5.85,4.28-7.39s-5,.31-2.56-.61,7.91-7,7-9.14S86.81,47.94,89.48,45.57Z"/><path class="cls-7" d="M81.41,60.17c.31-.61.64-1.18,1-1.71A53.08,53.08,0,0,0,86.16,51a38.73,38.73,0,0,1-4.71,5.36C81.47,57.54,81.46,58.82,81.41,60.17Z"/><path class="cls-7" d="M83.63,43c-2.26,1-1.23,10-1.23,10-.55-.61-1-.88-1.26-.89a27.33,27.33,0,0,1,.31,4.23A38.73,38.73,0,0,0,86.16,51a35.43,35.43,0,0,0,1.2-3.42c-.8-3-7.93,2.32-3.65-2.62a19.45,19.45,0,0,0,1.42-1.86C84.86,42.79,84.43,42.64,83.63,43Z"/><path class="cls-7" d="M88.56,35.45A16.36,16.36,0,0,0,87.37,39,23,23,0,0,0,88.56,35.45Z"/><path class="cls-8" d="M86.16,51a53.08,53.08,0,0,1-3.79,7.45c-.32.53-.65,1.1-1,1.71,0,.5,0,1-.07,1.53A35.67,35.67,0,0,1,83.17,58c5.09-9,4.71-11.39,6.41-18.74,0,0-1,3.16-1.6,5.87-.16.82-.38,1.63-.62,2.43,0,.06,0,.11,0,.18A5.16,5.16,0,0,1,86.16,51Z"/><path class="cls-8" d="M87.4,47.77c0-.07,0-.12,0-.18A35.43,35.43,0,0,1,86.16,51,5.16,5.16,0,0,0,87.4,47.77Z"/><path class="cls-9" d="M79,70.62a4.94,4.94,0,0,1-.27-2.52,53.77,53.77,0,0,0-1.18-6,1.81,1.81,0,0,1-1.59.65,21.25,21.25,0,0,0,1.15-2.21c-.42-1.45-.92-3-1.52-4.56-4.34-11.39-3.46-14.17-4.12-23.08,0,0,.65,3.89.81,7.15.29,6.05,2.34,12.18,4.16,16.57.35.84.74,1.83,1.12,2.9,0-.1.09-.21.14-.32a105,105,0,0,1-2.45-15c-1.29,3.58-1.54,7.4.06-3.84,2.4-16.77-2.9-17.69-5.59-17.17-6.14,1.19-3.86,9.72-2.46,13.58s5,10,3.39,9.18S66.5,44.74,67.43,49s7.45,6.92,5.46,6.65-3.86,1.47.66,6c2.41,2.41,3.8,6.11,4.58,9.06l.67-.08Z"/><path class="cls-9" d="M78.47,41.23c.13,1.21.09,2.6.56,3.33C79.14,43.09,79,41.83,78.47,41.23Z"/><path class="cls-9" d="M80.43,57.35l-.92.86a14.38,14.38,0,0,1-1.37,3.12c.42,1.26.82,2.6,1.17,3.92a28.38,28.38,0,0,1,1.41-3.66.53.53,0,0,0,0-.13C80.62,60,80.51,58.63,80.43,57.35Z"/><path class="cls-9" d="M80.35,70.63h.08l.09-.5c-.06.15-.12.31-.17.46Z"/><path class="cls-9" d="M80.2,69.41a43.58,43.58,0,0,0,.55-6.22,22,22,0,0,0-1,3.79C79.92,67.81,80.08,68.63,80.2,69.41Z"/><path class="cls-9" d="M80.38,70.94c0-.1,0-.21.05-.31h-.08Z"/><path class="cls-9" d="M79,70.65v0H78.8l-.67.08a35.53,35.53,0,0,1,.9,4.61A28.32,28.32,0,0,0,79,70.65Z"/><path class="cls-9" d="M80.34,55.1c-.25,1.1-.52,2.15-.83,3.11l.92-.86Q80.35,56.12,80.34,55.1Z"/><path class="cls-9" d="M80.25,50.76c-1.36-.19-1.7,2.09-2.44,2-.51-.08,1-4.71,1.22-8.16-.47-.73-.43-2.12-.56-3.33a1.12,1.12,0,0,0-.66-.35c-1-.18-2,1.53-2.59,3.3a105,105,0,0,0,2.45,15A49.19,49.19,0,0,0,80.25,50.76Z"/><path class="cls-9" d="M81.14,52.14a5.44,5.44,0,0,0-.13-.57c0,.21-.06.41-.1.62A.46.46,0,0,1,81.14,52.14Z"/><path class="cls-9" d="M75.93,62.78a1.81,1.81,0,0,0,1.59-.65c-.14-.5-.28-1-.44-1.56A21.25,21.25,0,0,1,75.93,62.78Z"/><path class="cls-9" d="M79.51,58.21c-1,.93-1.73,1.52-1.73,1.52l-.11-.5c0,.11-.09.22-.14.32.2.57.41,1.17.61,1.78A14.38,14.38,0,0,0,79.51,58.21Z"/><path class="cls-9" d="M79.51,58.21c.31-1,.58-2,.83-3.11,0-1.55.11-2.66.57-2.91,0-.21.07-.41.1-.62-.11-.4-.24-.64-.4-.71a2,2,0,0,0-.36-.1,49.19,49.19,0,0,1-2.58,8.47l.11.5S78.49,59.14,79.51,58.21Z"/><path class="cls-9" d="M80.75,63.19a43.58,43.58,0,0,1-.55,6.22c.06.41.11.8.15,1.18.05-.15.11-.31.17-.46a80.08,80.08,0,0,0,.82-8.43C81.12,62.22,80.93,62.71,80.75,63.19Z"/><path class="cls-9" d="M80.71,61.46a.53.53,0,0,1,0,.13c.22-.49.45-1,.69-1.42,0-1.35.06-2.63,0-3.8l-1,1C80.51,58.63,80.62,60,80.71,61.46Z"/><path class="cls-9" d="M80.34,55.1q0,1,.09,2.25l1-1a27.33,27.33,0,0,0-.31-4.23.46.46,0,0,0-.23,0C80.74,53.17,80.55,54.15,80.34,55.1Z"/><path class="cls-9" d="M80.34,55.1c.21-1,.4-1.93.57-2.91C80.45,52.44,80.32,53.55,80.34,55.1Z"/><path class="cls-9" d="M80.72,61.59a28.38,28.38,0,0,0-1.41,3.66c.15.58.3,1.16.42,1.73a22,22,0,0,1,1-3.79C80.76,62.65,80.75,62.11,80.72,61.59Z"/><path class="cls-9" d="M78.7,68.1A4.94,4.94,0,0,0,79,70.62h0C78.92,69.86,78.83,69,78.7,68.1Z"/><path class="cls-9" d="M79,70.62v0Z"/><path class="cls-9" d="M80.72,61.59c0,.52,0,1.06,0,1.6.18-.48.37-1,.59-1.49,0-.52,0-1,.07-1.53C81.17,60.62,80.94,61.1,80.72,61.59Z"/><path class="cls-8" d="M80.38,70.94A12.38,12.38,0,0,1,79,75.31C80.24,75,80.56,73.24,80.38,70.94Z"/><path class="cls-8" d="M79.61,70.61c.13,0,.27,0,.39,0,.07-.39.14-.79.2-1.2-.12-.78-.28-1.6-.47-2.43A12.54,12.54,0,0,0,79.61,70.61Z"/><path class="cls-8" d="M78.14,61.33a5.42,5.42,0,0,1-.62.8,53.77,53.77,0,0,1,1.18,6,15.24,15.24,0,0,1,.61-2.85C79,63.93,78.56,62.59,78.14,61.33Z"/><path class="cls-8" d="M80.35,70.63v0Z"/><path class="cls-8" d="M76.41,56.65c-1.82-4.39-3.87-10.52-4.16-16.57-.16-3.26-.81-7.15-.81-7.15.66,8.91-.22,11.69,4.12,23.08.6,1.59,1.1,3.11,1.52,4.56l.45-1C77.15,58.48,76.76,57.49,76.41,56.65Z"/><path class="cls-8" d="M80,70.61c-.12,0-.26,0-.39,0a5.41,5.41,0,0,0,.2.91,1.8,1.8,0,0,1-.83-.87,28.32,28.32,0,0,1,0,4.66s.12-.65.39-1.68C79.59,72.83,79.8,71.79,80,70.61Z"/><path class="cls-8" d="M79.42,73.63c-.23,1-.39,1.68-.39,1.68a12.38,12.38,0,0,0,1.35-4.37l0-.31h0C79.93,71.78,79.63,72.82,79.42,73.63Z"/><path class="cls-8" d="M77.53,59.55l-.45,1c.16.53.3,1.06.44,1.56a5.42,5.42,0,0,0,.62-.8C77.94,60.72,77.73,60.12,77.53,59.55Z"/><path class="cls-8" d="M80.34,70.63v0c0-.38-.09-.77-.15-1.18-.06.41-.13.81-.2,1.2Z"/><path class="cls-8" d="M79,75.31s.16-.64.39-1.68C79.15,74.66,79,75.31,79,75.31Z"/><path class="cls-8" d="M80.34,70.63l-.34,0c-.2,1.18-.41,2.22-.58,3C79.63,72.82,79.93,71.78,80.34,70.63Z"/><path class="cls-8" d="M79.61,70.61A12.54,12.54,0,0,1,79.73,67c-.12-.57-.27-1.15-.42-1.73a15.24,15.24,0,0,0-.61,2.85c.13.92.22,1.76.28,2.52Z"/><path class="cls-8" d="M79.81,71.52a5.41,5.41,0,0,1-.2-.91H79v0A1.8,1.8,0,0,0,79.81,71.52Z"/><path class="cls-10" d="M36,70.48A6.55,6.55,0,0,1,35.67,73a12.61,12.61,0,0,1,1,3.06C39,62.41,35,58.08,35.5,57.65s2.62,4.53,2.23,13.12a37.29,37.29,0,0,1-1,6.91,7,7,0,0,1-.38,1.59S40.6,73,39.74,69.88,41,67,41.65,64.51s3-6.22-1.83-8.63S37,50.63,35.28,51.06s.28,2.51-1.53,3.81c-.53.38-.72,1.44-.73,2.83.41.4.9.84,1.49,1.43C36.87,61.52,35.8,66.88,36,70.48Z"/><path class="cls-10" d="M30.41,74.06c-.76-1-1.57-2.21-2.4-3.52a7.59,7.59,0,0,1,.19,1.18,22.67,22.67,0,0,0,.29,2.73,6.14,6.14,0,0,1,1.11,3.87A33,33,0,0,1,30.41,74.06Z"/><path class="cls-10" d="M13.24,55.06c-6.56-4.55-9.95-13.79-9.65-14s3,4.92,4.84,7.78,4.89,4.81,8.81,7.66a36.12,36.12,0,0,1,5.83,5.64,133.89,133.89,0,0,1-6.71-13.7c-.12-.33-.22-.63-.31-.9-1.34-.73-2.94-.86-3.2-2.06-.38-1.78-.36-6.13-2.16-6.66S5.61,36,4.86,38.5s-2.5.6-.86,6.33-2.48,4.52.79,8.67,6.1,1.86,7.57,5.17,6.13,3.49,7.61,7c.87,2.09,4.24,4.14,6.75,6.65a29.41,29.41,0,0,0-1.22-4.09C24.4,65.75,19.8,59.61,13.24,55.06Z"/><path class="cls-11" d="M17.6,49.17c1,2.49,1.06,4,3,6.7s2.09,1.78,7.59,1.82a5.61,5.61,0,0,1,1.12.15C26.83,54.06,22,48,20,45.28a31.61,31.61,0,0,1-4.31-7.91c.13-.09,5.14,8.86,11.67,16.54a26.87,26.87,0,0,1,3.08,4.43c2.33,1.46,3,5.13,2.55,8.17.24,1.92.27,3.54.55,4.78a22.49,22.49,0,0,1,.13,5.07,10.43,10.43,0,0,0,2-3.32,13.66,13.66,0,0,1-1.14-3.64C34.14,66.56,33,61.11,33,57.7c-1.23-1.22-1.62-2.09-1.09-5.76.71-4.88-2-13.69-6.73-13S21.38,36,19.69,35s-5.14.4-3.94,5.52c1.12,4.79-1,2.89.3,7A3.19,3.19,0,0,1,17.6,49.17Z"/><path class="cls-11" d="M31.51,70.78a23.41,23.41,0,0,0-1.1,3.28c.43.58.84,1.1,1.22,1.55C31.6,74,31.56,72.39,31.51,70.78Z"/><path class="cls-11" d="M34.53,69.4A13.66,13.66,0,0,0,35.67,73,6.55,6.55,0,0,0,36,70.48c-.24-3.6.83-9-1.53-11.35-.59-.59-1.08-1-1.49-1.43C33,61.11,34.14,66.56,34.53,69.4Z"/><path class="cls-11" d="M23.07,62.13C25.38,64.87,27.4,68,28,70.54c.83,1.31,1.64,2.5,2.4,3.52a23.41,23.41,0,0,1,1.1-3.28c-.15-4.89-.41-9.38-.85-10.51a16,16,0,0,0-1.37-2.43,5.61,5.61,0,0,0-1.12-.15c-5.5,0-5.67.89-7.59-1.82s-1.95-4.21-3-6.7a3.19,3.19,0,0,0-1.55-1.64c.09.27.19.57.31.9A133.89,133.89,0,0,0,23.07,62.13Z"/><path class="cls-11" d="M30.46,58.34A22,22,0,0,1,33,66.51C33.44,63.47,32.79,59.8,30.46,58.34Z"/><path class="cls-12" d="M31.73,83.2A5.46,5.46,0,0,0,31,80.89a17.07,17.07,0,0,1-2.46-6.44,12.93,12.93,0,0,0-1.77-2.12c.77,3,1.68,6.79,3,9l1.48,2.46.51.1Z"/><path class="cls-12" d="M28.2,71.72A7.59,7.59,0,0,0,28,70.54c-1.62-2.52-3.33-5.47-4.94-8.41a36.12,36.12,0,0,0-5.83-5.64c-3.92-2.85-7-4.79-8.81-7.66s-4.54-8-4.84-7.78,3.09,9.46,9.65,14S24.4,65.75,25.5,68.24a29.41,29.41,0,0,1,1.22,4.09,12.93,12.93,0,0,1,1.77,2.12A22.67,22.67,0,0,1,28.2,71.72Z"/><path class="cls-12" d="M28,70.54c-.61-2.56-2.63-5.67-4.94-8.41C24.68,65.07,26.39,68,28,70.54Z"/><path class="cls-12" d="M31.74,83.91c.61.14,1,.27,1,.28l.15,0c.24-1.89.6-5,.76-7.88a9.13,9.13,0,0,1-.64.68,11.26,11.26,0,0,1-1.42-1.43c.06,3,.08,5.75.1,7.59A4.29,4.29,0,0,1,31.74,83.91Z"/><path class="cls-12" d="M33.05,77a9.13,9.13,0,0,0,.64-.68,22.49,22.49,0,0,0-.13-5.07c-.28-1.24-.31-2.86-.55-4.78a9.24,9.24,0,0,1-.94,3.12c-.2.37-.38.75-.56,1.15,0,1.61.09,3.25.12,4.83A11.26,11.26,0,0,0,33.05,77Z"/><path class="cls-12" d="M27.38,53.91c-6.53-7.68-11.54-16.63-11.67-16.54A31.61,31.61,0,0,0,20,45.28c2,2.69,6.81,8.78,9.27,12.56a4.54,4.54,0,0,1,1.17.5A26.87,26.87,0,0,0,27.38,53.91Z"/><path class="cls-12" d="M33,66.51a22,22,0,0,0-2.55-8.17,4.54,4.54,0,0,0-1.17-.5,16,16,0,0,1,1.37,2.43c.44,1.13.7,5.62.85,10.51.18-.4.36-.78.56-1.15A9.24,9.24,0,0,0,33,66.51Z"/><path class="cls-12" d="M31.73,83.2v.71h0A4.29,4.29,0,0,0,31.73,83.2Z"/><path class="cls-12" d="M36.72,76.1c-.11.64-.22,1.29-.36,2-.33,1-2.2,4.58-3.09,6.27a9.49,9.49,0,0,1,1,.39,34.11,34.11,0,0,0,2.48-7.06A6.35,6.35,0,0,0,36.72,76.1Z"/><path class="cls-12" d="M35.5,57.65C35,58.08,39,62.41,36.72,76.1a6.35,6.35,0,0,1,0,1.58,37.29,37.29,0,0,0,1-6.91C38.12,62.18,36.08,57.2,35.5,57.65Z"/><path class="cls-13" d="M34.27,84.74l-.3.6-1.17-.1c-.06.45-.1.71-.1.71l-1-.48V84.7l-.1-.13,0,0-.43-.71c-2.26-.38-6.39-.42-8.2,3.9-2.55,6-1.19,7.8.11,9.87s3.91,3.13,4.08,6.82-.87,3-.87,3,.26,1.08,1.68-.77,3.24-4,3.43-5.3,2.74.06,5.26-3a10.25,10.25,0,0,0,1.54-8.94A6.71,6.71,0,0,0,34.27,84.74Z"/><path class="cls-13" d="M32.8,85.24l.47-.89-.34-.11C32.88,84.63,32.83,85,32.8,85.24Z"/><path class="cls-13" d="M31.73,84a3.38,3.38,0,0,1-.08.48l.08.14Z"/><path class="cls-13" d="M31.65,84.52l0,0,.1.13v0Z"/><path class="cls-13" d="M31.73,84v-.13l-.51-.1.43.71A3.38,3.38,0,0,0,31.73,84Z"/><path class="cls-13" d="M32.8,85.24c0-.27.08-.61.13-1l-.15,0s-.43-.14-1-.28c0,0,0,.09,0,.13v.62l.1.16-.1-.12v.77l1,.48s0-.26.1-.71Z"/><path class="cls-13" d="M31.73,84.66v0l.1.12Z"/><path class="cls-13" d="M31.73,83.91V84s0-.08,0-.13Z"/><path class="cls-13" d="M32.8,85.24h0l1.17.1.3-.6a9.49,9.49,0,0,0-1-.39Z"/><polygon class="cls-13" points="32.8 85.24 32.8 85.24 32.8 85.23 32.8 85.24"/><path class="cls-4" d="M114.55,154.48a33.55,33.55,0,0,0-.9-4.62,12.73,12.73,0,0,0-11.52,13.23c.08,1.4,1.41,6.57,13.69,6.5,11.66-.06,11.18-8,11.18-8-.39-6.38-4.76-11.38-11-11.78,0,.1,0,.2,0,.3C116.09,152.4,115.76,154.11,114.55,154.48Z"/><path class="cls-5" d="M113.33,131.89c.74.12,1.09-2.16,2.44-2a57.32,57.32,0,0,0,1-6.86c1.1-12.13,4.77-16.27,5.09-22.63a14.62,14.62,0,0,1-1.08,6.87A58.61,58.61,0,0,0,117.3,124c-.11,1.83-.37,4.24-.76,6.7q.06.26.12.57c.31,0,.72.28,1.26.9,0,0-1-9,1.23-10,.8-.36,1.23-.22,1.5.11a23.54,23.54,0,0,0,2.24-4.13,15.85,15.85,0,0,1,1.2-3.54c.49-2,.55-3.57.18-4.12-.9-1.34-3.36.89-3.36.89,5.6-7.49,5.59-16,0-16s-1.45,15.66-3.24,15.66-.11-6.38-3.12-3.8,3.42,17.08.88,17a1,1,0,0,1-.88-.52C114.28,127.18,112.82,131.8,113.33,131.89Z"/><path class="cls-5" d="M113.33,120a1.12,1.12,0,0,1,.66.35c-.14-1.32-.51-2.43-2-2.18-1.1.17-1.37,2.3-1.22,5.13C111.39,121.57,112.28,119.86,113.33,120Z"/><path class="cls-6" d="M116.54,130.73c.39-2.46.65-4.87.76-6.7a58.61,58.61,0,0,1,3.52-16.72,14.62,14.62,0,0,0,1.08-6.87c-.32,6.36-4,10.5-5.09,22.63a57.32,57.32,0,0,1-1,6.86,1.27,1.27,0,0,1,.36.09C116.29,130.09,116.42,130.34,116.54,130.73Z"/><path class="cls-7" d="M116.93,139.33c.32-.6.64-1.18,1-1.71a52.92,52.92,0,0,0,3.79-7.44,38,38,0,0,1-4.71,5.35C117,136.7,117,138,116.93,139.33Z"/><path class="cls-7" d="M125,124.74c2.67-2.36,7.8-12.22,2.56-12.64-1.6-.12-2.7,1-3.48,2.51a22.78,22.78,0,0,1-1.2,3.54c-.69,3-.87,6-1.27,6s-.47-1.24-1-1.84a17.82,17.82,0,0,1-1.42,1.85c-4.28,4.94,2.86-.35,3.65,2.63.24-.81.46-1.62.63-2.44.55-2.7,1.6-5.87,1.6-5.87-1.71,7.35-1.33,9.79-6.42,18.74a36.47,36.47,0,0,0-1.82,3.67,82.73,82.73,0,0,1-.83,8.43,22,22,0,0,1,4-7c4-4.42,4.58-5.84,4.28-7.38s-5,.31-2.57-.62,7.91-7,7-9.14S122.33,127.1,125,124.74Z"/><path class="cls-7" d="M124.09,114.61a15.85,15.85,0,0,0-1.2,3.54A22.78,22.78,0,0,0,124.09,114.61Z"/><path class="cls-7" d="M119.15,122.17c-2.26,1-1.23,10-1.23,10-.54-.62-1-.89-1.26-.9a26.12,26.12,0,0,1,.31,4.23,38,38,0,0,0,4.71-5.35c.45-1.11.86-2.26,1.2-3.42-.79-3-7.93,2.31-3.65-2.63a17.82,17.82,0,0,0,1.42-1.85C120.38,122,120,121.81,119.15,122.17Z"/><path class="cls-8" d="M121.68,130.18a52.92,52.92,0,0,1-3.79,7.44c-.32.53-.64,1.11-1,1.71,0,.5,0,1-.06,1.53a36.47,36.47,0,0,1,1.82-3.67c5.09-8.95,4.71-11.39,6.42-18.74,0,0-1,3.17-1.6,5.87-.17.82-.39,1.63-.63,2.44,0,0,0,.11.05.17A5.28,5.28,0,0,1,121.68,130.18Z"/><path class="cls-8" d="M122.93,126.93c0-.06,0-.12-.05-.17-.34,1.16-.75,2.31-1.2,3.42A5.28,5.28,0,0,0,122.93,126.93Z"/><path class="cls-9" d="M114.49,149.78a4.91,4.91,0,0,1-.27-2.52,49.4,49.4,0,0,0-1.18-6,1.82,1.82,0,0,1-1.59.65,22.32,22.32,0,0,0,1.15-2.22c-.42-1.45-.91-3-1.52-4.56-4.34-11.39-3.45-14.17-4.12-23.07,0,0,.65,3.89.81,7.15a51.47,51.47,0,0,0,4.17,16.56c.35.85.73,1.83,1.11,2.91l.14-.33a103.58,103.58,0,0,1-2.44-15c-1.3,3.59-1.55,7.4,0-3.83,2.4-16.78-2.9-17.7-5.59-17.18-6.14,1.19-3.86,9.72-2.46,13.58s5,10,3.4,9.19-4.13-1.2-3.2,3.06,7.46,6.92,5.46,6.66-3.86,1.46.66,6c2.41,2.4,3.8,6.1,4.58,9.05.22,0,.44-.06.67-.07Z"/><path class="cls-9" d="M114,120.39c.14,1.22.09,2.6.56,3.34C114.66,122.25,114.56,121,114,120.39Z"/><path class="cls-9" d="M116,136.51c-.32.31-.63.6-.92.86a13.91,13.91,0,0,1-1.37,3.12c.42,1.27.82,2.6,1.17,3.92a30.56,30.56,0,0,1,1.41-3.66v-.13C116.15,139.21,116,137.8,116,136.51Z"/><path class="cls-9" d="M115.87,149.79H116l.09-.51-.17.47Z"/><path class="cls-9" d="M115.72,148.57a44.93,44.93,0,0,0,.56-6.21,20.44,20.44,0,0,0-1,3.78C115.45,147,115.6,147.8,115.72,148.57Z"/><path class="cls-9" d="M114.5,149.81v0h-.17c-.23,0-.45,0-.67.07a33.55,33.55,0,0,1,.9,4.62A28.47,28.47,0,0,0,114.5,149.81Z"/><path class="cls-9" d="M115.9,150.1c0-.1,0-.2,0-.3h-.08Z"/><path class="cls-9" d="M115.86,134.26c-.24,1.1-.52,2.15-.83,3.11.29-.26.6-.55.92-.86C115.9,135.7,115.87,134.94,115.86,134.26Z"/><path class="cls-9" d="M116.66,131.3q-.06-.31-.12-.57c0,.21-.07.42-.11.62A.59.59,0,0,1,116.66,131.3Z"/><path class="cls-9" d="M115.77,129.93c-1.35-.2-1.7,2.08-2.44,2-.51-.09,1-4.71,1.22-8.16-.47-.74-.42-2.12-.56-3.34a1.12,1.12,0,0,0-.66-.35c-1-.18-1.94,1.53-2.58,3.3a103.58,103.58,0,0,0,2.44,15A47.32,47.32,0,0,0,115.77,129.93Z"/><path class="cls-9" d="M115,137.37c-1,.93-1.72,1.53-1.72,1.53s0-.18-.12-.51l-.14.33c.21.57.41,1.16.61,1.77A13.91,13.91,0,0,0,115,137.37Z"/><path class="cls-9" d="M111.45,142a1.82,1.82,0,0,0,1.59-.65c-.13-.51-.28-1-.44-1.57A22.32,22.32,0,0,1,111.45,142Z"/><path class="cls-9" d="M115,137.37c.31-1,.59-2,.83-3.11,0-1.55.12-2.65.57-2.91,0-.2.07-.41.11-.62-.12-.39-.25-.64-.41-.71a1.27,1.27,0,0,0-.36-.09,47.32,47.32,0,0,1-2.58,8.46c.07.33.12.51.12.51S114,138.3,115,137.37Z"/><path class="cls-9" d="M116.28,142.36a44.93,44.93,0,0,1-.56,6.21c.06.41.11.81.15,1.19l.17-.47a82.73,82.73,0,0,0,.83-8.43C116.64,141.38,116.45,141.88,116.28,142.36Z"/><path class="cls-9" d="M116.24,140.62v.13c.22-.48.45-1,.69-1.42,0-1.34.06-2.63,0-3.8-.35.35-.69.67-1,1C116,137.8,116.15,139.21,116.24,140.62Z"/><path class="cls-9" d="M115.86,134.26c0,.68,0,1.44.09,2.25.33-.31.67-.63,1-1a26.12,26.12,0,0,0-.31-4.23.59.59,0,0,0-.23,0C116.27,132.33,116.08,133.31,115.86,134.26Z"/><path class="cls-9" d="M115.86,134.26c.22-.95.41-1.93.57-2.91C116,131.61,115.85,132.71,115.86,134.26Z"/><path class="cls-9" d="M114.22,147.26a4.91,4.91,0,0,0,.27,2.52h0C114.44,149,114.35,148.18,114.22,147.26Z"/><path class="cls-9" d="M116.24,140.75a30.56,30.56,0,0,0-1.41,3.66c.16.58.3,1.16.43,1.73a20.44,20.44,0,0,1,1-3.78C116.28,141.81,116.27,141.27,116.24,140.75Z"/><path class="cls-9" d="M114.49,149.78v0Z"/><path class="cls-9" d="M116.24,140.75c0,.52,0,1.06,0,1.61.17-.48.36-1,.59-1.5,0-.52,0-1,.06-1.53C116.69,139.79,116.46,140.27,116.24,140.75Z"/><path class="cls-8" d="M115.9,150.1a12.45,12.45,0,0,1-1.35,4.38C115.76,154.11,116.09,152.4,115.9,150.1Z"/><path class="cls-8" d="M111.94,135.81a51.47,51.47,0,0,1-4.17-16.56c-.16-3.26-.81-7.15-.81-7.15.67,8.9-.22,11.68,4.12,23.07.61,1.6,1.1,3.11,1.52,4.56.15-.3.3-.64.45-1C112.67,137.64,112.29,136.66,111.94,135.81Z"/><path class="cls-8" d="M115.87,149.79v0Z"/><path class="cls-8" d="M113.66,140.49a4.92,4.92,0,0,1-.62.81,49.4,49.4,0,0,1,1.18,6,16.08,16.08,0,0,1,.61-2.85C114.48,143.09,114.08,141.76,113.66,140.49Z"/><path class="cls-8" d="M115.14,149.78h.39c.06-.38.13-.79.19-1.2-.12-.77-.27-1.59-.46-2.43A11.92,11.92,0,0,0,115.14,149.78Z"/><path class="cls-8" d="M114.94,152.79c-.22,1-.39,1.69-.39,1.69a12.45,12.45,0,0,0,1.35-4.38l0-.31h0C115.45,150.94,115.15,152,114.94,152.79Z"/><path class="cls-8" d="M115.53,149.77h-.39a4.38,4.38,0,0,0,.2.91,1.84,1.84,0,0,1-.84-.88,28.47,28.47,0,0,1,0,4.67s.12-.66.39-1.69C115.11,152,115.32,151,115.53,149.77Z"/><path class="cls-8" d="M113.05,138.72c-.15.37-.3.71-.45,1,.16.53.31,1.06.44,1.57a4.92,4.92,0,0,0,.62-.81C113.46,139.88,113.26,139.29,113.05,138.72Z"/><path class="cls-8" d="M115.86,149.79v0c0-.38-.09-.78-.15-1.19-.06.41-.13.82-.19,1.2Z"/><path class="cls-8" d="M115.86,149.79l-.33,0c-.21,1.19-.42,2.22-.59,3C115.15,152,115.45,150.94,115.86,149.79Z"/><path class="cls-8" d="M114.55,154.48s.17-.65.39-1.69C114.67,153.82,114.55,154.48,114.55,154.48Z"/><path class="cls-8" d="M115.14,149.78a11.92,11.92,0,0,1,.12-3.64c-.13-.57-.27-1.15-.43-1.73a16.08,16.08,0,0,0-.61,2.85c.13.92.22,1.76.28,2.52Z"/><path class="cls-8" d="M115.34,150.69a4.38,4.38,0,0,1-.2-.91h-.64v0A1.84,1.84,0,0,0,115.34,150.69Z"/><path class="cls-10" d="M75.35,142.15c-4.78-2.42-2.86-5.25-4.55-4.82s.28,2.51-1.53,3.81c-.53.38-.72,1.43-.73,2.83.41.4.9.84,1.49,1.43,2.36,2.39,1.29,7.75,1.53,11.35a6.2,6.2,0,0,1-.37,2.56,12.61,12.61,0,0,1,1,3.06c2.23-13.69-1.77-18-1.22-18.45s2.62,4.53,2.23,13.12a37.18,37.18,0,0,1-1,6.9,7.46,7.46,0,0,1-.37,1.6s4.22-6.32,3.36-9.39,1.28-2.9,1.91-5.37S80.12,144.56,75.35,142.15Z"/><path class="cls-10" d="M48.76,141.33c-6.56-4.55-9.94-13.79-9.65-14s3,4.93,4.84,7.79,4.9,4.81,8.82,7.66a36.52,36.52,0,0,1,5.82,5.64,133.89,133.89,0,0,1-6.71-13.7c-.12-.33-.22-.63-.31-.91-1.33-.72-2.94-.85-3.19-2C48,130,48,125.6,46.22,125.08s-5.09-2.85-5.84-.31-2.49.6-.85,6.33-2.48,4.52.78,8.67,6.11,1.86,7.58,5.17,6.12,3.49,7.6,7c.88,2.08,4.24,4.14,6.75,6.65A29,29,0,0,0,61,154.51C59.92,152,55.32,145.87,48.76,141.33Z"/><path class="cls-10" d="M65.93,160.33c-.75-1-1.56-2.21-2.4-3.52a6.56,6.56,0,0,1,.19,1.18,24.91,24.91,0,0,0,.29,2.73,6.14,6.14,0,0,1,1.11,3.87A33,33,0,0,1,65.93,160.33Z"/><path class="cls-11" d="M67,157.05a22.24,22.24,0,0,0-1.11,3.28c.43.58.84,1.1,1.23,1.55C67.13,160.3,67.09,158.65,67,157.05Z"/><path class="cls-11" d="M53.12,135.44c1,2.49,1.06,4,3,6.7s2.09,1.78,7.59,1.82a5.51,5.51,0,0,1,1.12.15c-2.46-3.78-7.27-9.87-9.27-12.56a32,32,0,0,1-4.31-7.91c.13-.1,5.14,8.86,11.67,16.53A25.75,25.75,0,0,1,66,144.61c2.33,1.46,3,5.12,2.55,8.17.24,1.92.27,3.54.55,4.78a22.49,22.49,0,0,1,.13,5.07,10.43,10.43,0,0,0,2-3.32,13.66,13.66,0,0,1-1.14-3.64c-.39-2.84-1.52-8.3-1.51-11.7-1.23-1.22-1.62-2.09-1.09-5.76.71-4.88-2-13.69-6.73-13s-3.82-3-5.51-3.94-5.14.39-3.94,5.51c1.12,4.8-1,2.9.3,7A3.25,3.25,0,0,1,53.12,135.44Z"/><path class="cls-11" d="M70.05,155.67a13.66,13.66,0,0,0,1.14,3.64,6.2,6.2,0,0,0,.37-2.56c-.24-3.6.83-9-1.53-11.35-.59-.59-1.08-1-1.49-1.43C68.53,147.37,69.66,152.83,70.05,155.67Z"/><path class="cls-11" d="M58.59,148.4c2.31,2.74,4.34,5.85,4.94,8.41.84,1.31,1.65,2.5,2.4,3.52A22.24,22.24,0,0,1,67,157.05c-.16-4.89-.41-9.38-.85-10.51a16.23,16.23,0,0,0-1.38-2.43,5.51,5.51,0,0,0-1.12-.15c-5.5,0-5.66.88-7.59-1.82s-2-4.21-3-6.7a3.25,3.25,0,0,0-1.55-1.65c.09.28.19.58.31.91A133.89,133.89,0,0,0,58.59,148.4Z"/><path class="cls-11" d="M66,144.61a22,22,0,0,1,2.55,8.17C69,149.73,68.31,146.07,66,144.61Z"/><path class="cls-12" d="M67.25,169.47a5.5,5.5,0,0,0-.78-2.32A17.11,17.11,0,0,1,64,160.72a12.93,12.93,0,0,0-1.77-2.12c.77,3.05,1.68,6.79,3,9l1.48,2.46.51.1Z"/><path class="cls-12" d="M63.72,158a6.56,6.56,0,0,0-.19-1.18c-1.61-2.53-3.32-5.47-4.94-8.41a36.52,36.52,0,0,0-5.82-5.64c-3.92-2.85-7-4.8-8.82-7.66s-4.54-8-4.84-7.79,3.09,9.47,9.65,14S59.92,152,61,154.51a29,29,0,0,1,1.22,4.09A12.93,12.93,0,0,1,64,160.72,24.91,24.91,0,0,1,63.72,158Z"/><path class="cls-12" d="M63.53,156.81c-.6-2.56-2.63-5.67-4.94-8.41C60.21,151.34,61.92,154.28,63.53,156.81Z"/><path class="cls-12" d="M67.26,170.18a7.91,7.91,0,0,1,1,.28l.15,0c.24-1.9.61-5,.76-7.88a9.13,9.13,0,0,1-.64.68,10.64,10.64,0,0,1-1.41-1.43c0,3,.08,5.75.09,7.59A4.29,4.29,0,0,1,67.26,170.18Z"/><path class="cls-12" d="M62.9,140.17c-6.53-7.67-11.54-16.63-11.67-16.53a32,32,0,0,0,4.31,7.91c2,2.69,6.81,8.78,9.27,12.56a4.09,4.09,0,0,1,1.17.5A25.75,25.75,0,0,0,62.9,140.17Z"/><path class="cls-12" d="M68.57,163.31a9.13,9.13,0,0,0,.64-.68,22.49,22.49,0,0,0-.13-5.07c-.28-1.24-.31-2.86-.55-4.78a9.09,9.09,0,0,1-.94,3.12,12.23,12.23,0,0,0-.55,1.15c0,1.6.09,3.25.12,4.83A10.64,10.64,0,0,0,68.57,163.31Z"/><path class="cls-12" d="M68.53,152.78A22,22,0,0,0,66,144.61a4.09,4.09,0,0,0-1.17-.5,16.23,16.23,0,0,1,1.38,2.43c.44,1.13.69,5.62.85,10.51a12.23,12.23,0,0,1,.55-1.15A9.09,9.09,0,0,0,68.53,152.78Z"/><path class="cls-12" d="M67.25,169.47v.71h0A4.29,4.29,0,0,0,67.25,169.47Z"/><path class="cls-12" d="M72.24,162.37c-.11.64-.22,1.29-.35,2-.34,1-2.21,4.58-3.1,6.27a10.65,10.65,0,0,1,1,.39,34.82,34.82,0,0,0,2.47-7.07A5.84,5.84,0,0,0,72.24,162.37Z"/><path class="cls-12" d="M71,143.92c-.55.42,3.45,4.76,1.22,18.45a5.84,5.84,0,0,1,0,1.57,37.18,37.18,0,0,0,1-6.9C73.64,148.45,71.6,143.47,71,143.92Z"/><path class="cls-13" d="M68.32,171.5c-.06.46-.1.72-.1.72l-1-.48V171l-.1-.13v-.05l-.43-.71c-2.26-.38-6.39-.42-8.2,3.9-2.54,6-1.18,7.8.12,9.87s3.91,3.13,4.07,6.82-.86,3-.86,3,.25,1.07,1.68-.77,3.24-4,3.42-5.3,2.74.06,5.26-3,2.07-7.23,1.55-8.94a6.74,6.74,0,0,0-4-4.6c-.19.39-.31.6-.31.6Z"/><path class="cls-13" d="M68.32,171.5s.19-.34.47-.88l-.34-.11C68.4,170.9,68.36,171.23,68.32,171.5Z"/><path class="cls-13" d="M67.25,170.31a2.47,2.47,0,0,1-.08.48l.09.14C67.25,170.75,67.25,170.55,67.25,170.31Z"/><path class="cls-13" d="M67.25,170.31v-.13l-.51-.1.43.71A2.47,2.47,0,0,0,67.25,170.31Z"/><path class="cls-13" d="M67.17,170.79v.05l.1.13v0Z"/><path class="cls-13" d="M68.3,170.46a7.91,7.91,0,0,0-1-.28.57.57,0,0,1,0,.13c0,.24,0,.44,0,.62l.09.16-.09-.12v.77l1,.48s0-.26.1-.72h0c0-.27.08-.6.13-1Z"/><path class="cls-13" d="M67.26,170.93v0l.09.12Z"/><path class="cls-13" d="M67.25,170.18v.13a.57.57,0,0,0,0-.13Z"/><path class="cls-13" d="M68.32,171.5h0l1.17.11s.12-.21.31-.6a10.65,10.65,0,0,0-1-.39C68.51,171.16,68.32,171.5,68.32,171.5Z"/><polygon class="cls-13" points="68.32 171.5 68.32 171.5 68.32 171.5 68.32 171.5"/><path class="cls-14" d="M134,63.07a1.06,1.06,0,0,1-1.61.24h0c-.46.38-1.13.77-1.25.65a.77.77,0,0,1-.08-.71v0c-.6-1.2-1.46-2.59-2.2-3.84a12.77,12.77,0,0,0-9.17,12.88c.08,1.41,1.43,6.65,13.86,6.58,11.79-.06,11.3-8.11,11.3-8.11-.35-5.79-3.95-10.46-9.27-11.65C134.48,60.4,133.7,62,134,63.07Z"/><path class="cls-14" d="M132.77,62.84s0-.05,0-.07c0-.19,0-.37.06-.55,0,.18-.05.36-.06.55C132.79,62.79,132.78,62.81,132.77,62.84Z"/><path class="cls-15" d="M170.44,104.92l0,1.45c.19-.61.39-1.21.6-1.79C170.68,104.8,170.44,104.92,170.44,104.92Z"/><path class="cls-15" d="M168.51,112.33c.13-2.34.1-4,.1-4l-.21-.09c-.33,1.23-.66,2.55-1,3.76C167.83,112.17,168.22,112.26,168.51,112.33Z"/><path class="cls-15" d="M167.92,86.89a95.47,95.47,0,0,0-1.17-10.11c1.1,1.5,2.05,8.67,2.05,8.67a6.41,6.41,0,0,1,3.53-3.18c-5,4.62-3.25,8.25-3.25,8.25,2.35-.25,5-3,5-3-.55,2.49-4.77,4.1-4.77,4.1l.43,5.63c3.58-.87,7.92-7,7.92-7-.55,5.87-7.64,9-7.64,9l.16,3.48a7.84,7.84,0,0,0,1.8-.41,14.16,14.16,0,0,1,1.59-2.94,5.32,5.32,0,0,1,4.44-2,23,23,0,0,0,1.86-2.79,10.15,10.15,0,0,1-1.1,2.76,20.56,20.56,0,0,0,2.06-.14,20.13,20.13,0,0,1-.5-5.89c0-4.77-3.77-2.9-4.79-4.5s1.31-5.23-1.31-4.94-3.78-2.18-4.16-4.79-3.1-1.89-5.57,0-.15,5.23-2.33,5.66a1.81,1.81,0,0,0-.89.52C162.13,85.53,167.92,86.89,167.92,86.89Z"/><path class="cls-15" d="M167.16,99.39c0,.16,0,.3,0,.45,1,.14,1.69.16,1.69.16a14.38,14.38,0,0,0-.41-4.5c-5.86-2.18-8.06-5-8.06-5,2.34,1.87,7.92,3.12,7.92,3.12l-.55-5.45c-5.08-1.15-6.39-4.47-6.53-4.87-1.41,1.44-1.64,5.46-.38,8.71a3.1,3.1,0,0,1,.19,1.59C164.22,93.43,167,95.3,167.16,99.39Z"/><path class="cls-15" d="M168.74,101.49l-1.31-.42a12.34,12.34,0,0,0,1.38,2.43C168.8,102.17,168.74,101.49,168.74,101.49Z"/><path class="cls-16" d="M161.23,83.27l0,0h0A.08.08,0,0,0,161.23,83.27Z"/><path class="cls-16" d="M168.81,127.54a1.61,1.61,0,0,1-1.49.89h-.1a3.05,3.05,0,0,1-1.58-.9,8.81,8.81,0,0,0,0-2,9,9,0,0,1-.78,1.16s1.24,3.12,3.86,1.49c1.44-.89,1.94-6.37,2.1-11.11a38.48,38.48,0,0,0-2,7.16C169.06,125.8,169.14,127,168.81,127.54Z"/><path class="cls-16" d="M169.08,112.45h0l-.53-.11a51.77,51.77,0,0,1-.83,7.06c.46-1.19,1-2.31,1.5-3.34A9,9,0,0,1,169.08,112.45Z"/><path class="cls-16" d="M179.84,94.63A23,23,0,0,1,178,97.42l.76,0A10.15,10.15,0,0,0,179.84,94.63Z"/><path class="cls-16" d="M167.78,88.18l.55,5.45s-5.58-1.25-7.92-3.12c0,0,2.2,2.81,8.06,5a14.38,14.38,0,0,1,.41,4.5s-.67,0-1.69-.16a6.23,6.23,0,0,0,.24,1.23l1.31.42s.06.68.07,2c.37.72.51,1.63-.05,3.48-.12.41-.24.85-.36,1.29l.21.09s0,1.63-.1,4l.53.11h0a37.15,37.15,0,0,1,1.38-6.08l0-1.45s.24-.12.62-.34c.28-.8.58-1.57.89-2.26a7.84,7.84,0,0,1-1.8.41L170,99.25s7.09-3.12,7.64-9c0,0-4.34,6.12-7.92,7l-.43-5.63s4.22-1.61,4.77-4.1c0,0-2.62,2.75-5,3,0,0-1.78-3.63,3.25-8.25a6.41,6.41,0,0,0-3.53,3.18s-1-7.17-2.05-8.67a95.47,95.47,0,0,1,1.17,10.11s-5.79-1.36-6.67-3.58h0C161.39,83.71,162.7,87,167.78,88.18Z"/><path class="cls-10" d="M165.72,111.47a9.78,9.78,0,0,1-.64,1s.41,1,.95,2.59a11.73,11.73,0,0,0,1.33-3C166.88,111.89,166.32,111.7,165.72,111.47Z"/><path class="cls-10" d="M154.6,109.88c2.21,1.22,6.59,1.41,6.59,1.41a18,18,0,0,0-1.7-4c-6.71.45-7.44-1.28-7.44-1.28a10.73,10.73,0,0,0,6.73.2,8.27,8.27,0,0,1-.85-1.94,9.71,9.71,0,0,1-.22-1c-.2-.32-.35-.53-.35-.53-4.79,0-6.52-1.78-6.52-1.78a17.33,17.33,0,0,0,5.82.38l-2.15-4c-4.17.64-5.44-2.16-5.44-2.16,1.31,1.49,5.12,1.13,5.12,1.13-1.85-3.86-3.37-7.75-3.37-7.75,1.25.83,4,6.25,4,6.25-.05-2.81,1.69-3.65,1.69-3.65-2,5,.73,7.27.73,7.27,1.56-.88,2.17-3.74,2.17-3.74a5.37,5.37,0,0,1-.36,2.8c.13-.21.27-.41.4-.61a1.06,1.06,0,0,1-.12-.19l.16.13a8,8,0,0,0,1.59-3.15H161c-3.2.21-3.14-1.28-4.28-5.33s-5.78-3.79-8.21-1,2.28,5.15,1,5.82-4.56-.23-3.1,5.26,6.09,3.51,3.49,6.68.39,5.77,4.81,7.14a24.78,24.78,0,0,1,7.37,3.69,4.66,4.66,0,0,0,1,.43c-.8-2.18-1.48-3.76-1.48-3.76C156.39,112.52,154.6,109.88,154.6,109.88Z"/><path class="cls-10" d="M164.69,111.29c.06-.06.11-.12.17-.17l-.29-.13Z"/><path class="cls-10" d="M168.4,108.27c-.42-.17-.82-.35-1.2-.53a14.32,14.32,0,0,1-1.48,3.73c.6.23,1.16.42,1.64.56C167.74,110.82,168.07,109.5,168.4,108.27Z"/><path class="cls-10" d="M165.15,105.22c.73.35,1.43.65,2,.89a12.71,12.71,0,0,0,.15-2.59,9.24,9.24,0,0,1,.13,2.71c.78.32,1.3.51,1.3.51.06-1.34.08-2.41.07-3.24a12.34,12.34,0,0,1-1.38-2.43l-1.49-.53A14.87,14.87,0,0,1,165.15,105.22Z"/><path class="cls-10" d="M161.6,103.74a7.28,7.28,0,0,1-.53.81l1.68,2.92a5.16,5.16,0,0,0,1.25-1.59A15,15,0,0,1,161.6,103.74Z"/><path class="cls-10" d="M164.46,104.88a19.64,19.64,0,0,0,1.08-4.5c-.94-.36-1.75-.71-2.43-1a11.47,11.47,0,0,1-1.28,4A20.88,20.88,0,0,0,164.46,104.88Z"/><path class="cls-10" d="M162.38,98.53a22.36,22.36,0,0,0,.4-2.84,8.58,8.58,0,0,1,.38,3.15,18.68,18.68,0,0,0,2.48.72c.07-.7.09-1.15.09-1.15a9.87,9.87,0,0,1,.16,1.2c.48.1.92.17,1.3.23,0-.15,0-.29,0-.45-.15-4.09-2.94-6-6.1-5.78a8,8,0,0,1-1.59,3.15A12.74,12.74,0,0,0,162.38,98.53Z"/><path class="cls-10" d="M160.23,103.1a3.63,3.63,0,0,0,.48-.48c-.2-.31-.3-.5-.3-.5a4.78,4.78,0,0,0,.39.39,9.28,9.28,0,0,0,1.49-3.59,8.8,8.8,0,0,1-2.86-2.1c-.13.2-.27.4-.4.61a10.54,10.54,0,0,1-.94,1.93Z"/><path class="cls-10" d="M164.73,106.38a15.82,15.82,0,0,1-1.13,2.31l1,2.3.29.13a8.3,8.3,0,0,0,2-3.55A21.19,21.19,0,0,1,164.73,106.38Z"/><path class="cls-10" d="M157.71,103.25a9.71,9.71,0,0,0,.22,1,8.27,8.27,0,0,0,.85,1.94l.32-.11A11,11,0,0,0,157.71,103.25Z"/><path class="cls-10" d="M159.31,96.63a1.06,1.06,0,0,0,.12.19l0-.06Z"/><path class="cls-10" d="M165.94,100.54l1.49.53a6.23,6.23,0,0,1-.24-1.23c-.38-.06-.82-.13-1.3-.23C165.92,99.92,165.94,100.23,165.94,100.54Z"/><path class="cls-10" d="M168.74,106.74s-.52-.19-1.3-.51a11.9,11.9,0,0,1-.24,1.51c.38.18.78.36,1.2.53.12-.44.24-.88.36-1.29.56-1.85.42-2.76.05-3.48C168.82,104.33,168.8,105.4,168.74,106.74Z"/><path class="cls-10" d="M165.54,100.38c0-.3.08-.58.1-.82a18.68,18.68,0,0,1-2.48-.72c0,.17,0,.33,0,.5C163.79,99.67,164.6,100,165.54,100.38Z"/><path class="cls-10" d="M160.41,102.12s.1.19.3.5l.09-.11A4.78,4.78,0,0,1,160.41,102.12Z"/><path class="cls-10" d="M161.83,103.34l-.23.4a15,15,0,0,0,2.4,2.14,9.19,9.19,0,0,0,.46-1A20.88,20.88,0,0,1,161.83,103.34Z"/><path class="cls-10" d="M165.15,105.22a11.89,11.89,0,0,1-.42,1.16,21.19,21.19,0,0,0,2.11,1.19c.14-.51.24-1,.32-1.46C166.58,105.87,165.88,105.57,165.15,105.22Z"/><path class="cls-10" d="M162.29,98.92l.09-.39a12.74,12.74,0,0,1-2.91-1.77l0,.06A8.8,8.8,0,0,0,162.29,98.92Z"/><path class="cls-16" d="M167.09,121.06q.22-.7.48-1.38c-.52-1.67-1.08-3.32-1.54-4.61a2.53,2.53,0,0,1-2.93,1.27,44.54,44.54,0,0,1,2.5,9.21,12.64,12.64,0,0,0,.78-1.61A19.33,19.33,0,0,1,167.09,121.06Z"/><path class="cls-16" d="M165.64,127.52a3.05,3.05,0,0,0,1.58.9c-.73-.09-1.3-1.63-.84-4.48a12.64,12.64,0,0,1-.78,1.61A8.81,8.81,0,0,1,165.64,127.52Z"/><path class="cls-16" d="M167.32,128.43a1.61,1.61,0,0,0,1.49-.89c.33-.51.25-1.74-.05-3.29-.37,2-.5,3.33-.5,3.33C168,128.13,167.64,128.41,167.32,128.43Z"/><path class="cls-16" d="M166,115.07c-.54-1.54-.95-2.59-.95-2.59a9.78,9.78,0,0,0,.64-1c-.28-.11-.57-.22-.86-.35-.06,0-.11.11-.17.17l-.12-.3a12.56,12.56,0,0,1-5.79-4.82,10.73,10.73,0,0,1-6.73-.2s.73,1.73,7.44,1.28a18,18,0,0,1,1.7,4s-4.38-.19-6.59-1.41c0,0,1.79,2.64,7,2.7,0,0,.68,1.58,1.48,3.76A2.53,2.53,0,0,0,166,115.07Z"/><path class="cls-16" d="M159,97.43a5.37,5.37,0,0,0,.36-2.8s-.61,2.86-2.17,3.74c0,0-2.75-2.24-.73-7.27,0,0-1.74.84-1.69,3.65,0,0-2.73-5.42-4-6.25,0,0,1.52,3.89,3.37,7.75,0,0-3.81.36-5.12-1.13,0,0,1.27,2.8,5.44,2.16l2.15,4a17.33,17.33,0,0,1-5.82-.38s1.73,1.81,6.52,1.78c0,0,.15.21.35.53A7.66,7.66,0,0,1,159,97.43Z"/><path class="cls-16" d="M167.31,103.52a12.71,12.71,0,0,1-.15,2.59l.28.12A9.24,9.24,0,0,0,167.31,103.52Z"/><path class="cls-16" d="M161.83,103.34a11.47,11.47,0,0,0,1.28-4c-.29-.14-.57-.28-.82-.42a9.28,9.28,0,0,1-1.49,3.59A8.27,8.27,0,0,0,161.83,103.34Z"/><path class="cls-16" d="M166.84,107.57a8.3,8.3,0,0,1-2,3.55c.29.13.58.24.86.35a14.32,14.32,0,0,0,1.48-3.73A4,4,0,0,1,166.84,107.57Z"/><path class="cls-16" d="M164.73,106.38c-.26-.17-.5-.33-.73-.5a5.16,5.16,0,0,1-1.25,1.59l-1.68-2.92a7.28,7.28,0,0,0,.53-.81,10.07,10.07,0,0,1-.89-1.12,3.63,3.63,0,0,1-.48.48l-2.14-3.74a10.54,10.54,0,0,0,.94-1.93,7.66,7.66,0,0,0-1.32,5.82,11,11,0,0,1,1.39,2.81l-.32.11a12.56,12.56,0,0,0,5.79,4.82l-1-2.3A15.82,15.82,0,0,0,164.73,106.38Z"/><path class="cls-16" d="M165.15,105.22a14.87,14.87,0,0,0,.79-4.68l-.4-.16a19.64,19.64,0,0,1-1.08,4.5Z"/><path class="cls-16" d="M165.73,98.41s0,.45-.09,1.15l.25,0A9.87,9.87,0,0,0,165.73,98.41Z"/><path class="cls-16" d="M162.78,95.69a22.36,22.36,0,0,1-.4,2.84l.78.31A8.58,8.58,0,0,0,162.78,95.69Z"/><path class="cls-16" d="M164.46,104.88a9.19,9.19,0,0,1-.46,1c.23.17.47.33.73.5a11.89,11.89,0,0,0,.42-1.16Z"/><path class="cls-16" d="M163.11,99.34c0-.17,0-.33,0-.5l-.78-.31-.09.39C162.54,99.06,162.82,99.2,163.11,99.34Z"/><path class="cls-16" d="M160.8,102.51l-.09.11a10.07,10.07,0,0,0,.89,1.12l.23-.4A8.27,8.27,0,0,1,160.8,102.51Z"/><path class="cls-16" d="M165.94,100.54c0-.31,0-.62-.05-.93l-.25,0c0,.24-.06.52-.1.82Z"/><path class="cls-16" d="M167.16,106.11c-.08.46-.18,1-.32,1.46a4,4,0,0,0,.36.17,11.9,11.9,0,0,0,.24-1.51Z"/><path class="cls-17" d="M184,96a6.64,6.64,0,0,1-3.21,1.23,7.52,7.52,0,0,0,1.68,2.83,1.14,1.14,0,0,1,.21.41c3.2-2.73,4.84-2.44,4.84-2.44a29.47,29.47,0,0,0-4.84,3.5c0,.13-.05.25-.08.38a9.77,9.77,0,0,0,4.51-.84c0,1.41-3.73,2.11-4.83,1.81h0a16.62,16.62,0,0,1-1.87,3.09,24.68,24.68,0,0,0,6.12-.2c-.94,1.14-5.07,1.33-7,1.3a21.78,21.78,0,0,1-3.77,3.54,25.51,25.51,0,0,1,6.77.29s-7.63-.09-8.67,1a16.68,16.68,0,0,0-3,5s3.55-3.12,7.13-2.93,8.54-1.73,9.34-6.25.91-7,3.28-8.32S187.66,93.32,184,96Z"/><path class="cls-17" d="M170.85,113.15l.32-.49-.32,0Z"/><path class="cls-17" d="M178,97.42a5.32,5.32,0,0,0-4.44,2,14.16,14.16,0,0,0-1.59,2.94A14.38,14.38,0,0,0,178,97.42Z"/><path class="cls-17" d="M173.63,108.18c.08,1,.27,1.56.56.95a18.31,18.31,0,0,1,2.51-3.39c0-.07,0-.14,0-.22A17.38,17.38,0,0,1,173.63,108.18Z"/><path class="cls-17" d="M171.06,104.58c-.21.58-.41,1.18-.6,1.79l0,2a11.61,11.61,0,0,0,2.53-1.23,7.08,7.08,0,0,1,.92-3.23,12.34,12.34,0,0,0-.34,2.84,19.55,19.55,0,0,0,3-2.57,13.58,13.58,0,0,1,.13-3.62,11.89,11.89,0,0,0,.37,3.08,22,22,0,0,0,2.08-2.68,9.47,9.47,0,0,1-1.77,3.68c.1.29.18.46.18.46a21.24,21.24,0,0,1,2.89-2.54,6.24,6.24,0,0,1-.08-3.88c-.15,2.71.79,3.22.79,3.22q.81-.83,1.53-1.44a1.14,1.14,0,0,0-.21-.41,7.52,7.52,0,0,1-1.68-2.83,20.56,20.56,0,0,1-2.06.14C176.65,101.11,172.59,103.7,171.06,104.58Z"/><path class="cls-17" d="M173,108.62a18.56,18.56,0,0,1-2.18,1.24s0,1.13,0,2.83l.32,0a28.93,28.93,0,0,1,1.94-2.68C173,109.49,173,109,173,108.62Z"/><path class="cls-17" d="M175,110.71l.78-.08a21.78,21.78,0,0,0,3.77-3.54c-.46,0-.8,0-.94,0C176.82,106.76,175,110.71,175,110.71Z"/><path class="cls-17" d="M182.61,101.93c0-.13.06-.25.08-.38l-.41.37Z"/><path class="cls-17" d="M178.75,105.48a4.4,4.4,0,0,0,1.64.51,16.62,16.62,0,0,0,1.87-3.09C180.89,102.58,178.75,105.48,178.75,105.48Z"/><path class="cls-17" d="M170.85,112.69a4.39,4.39,0,0,1-1.77-.24,9,9,0,0,0,.1,3.6c.57-1.09,1.14-2.07,1.67-2.9Z"/><path class="cls-17" d="M170.85,112.69c0-1.7,0-2.83,0-2.83a18.56,18.56,0,0,0,2.18-1.24,11.32,11.32,0,0,1,0-1.45,11.61,11.61,0,0,1-2.53,1.23l0-2a37.15,37.15,0,0,0-1.38,6.08A4.39,4.39,0,0,0,170.85,112.69Z"/><path class="cls-17" d="M173.63,108.18a17.38,17.38,0,0,0,3.05-2.66c-.05-.47-.09-.91-.11-1.31a19.55,19.55,0,0,1-3,2.57C173.59,107.29,173.6,107.77,173.63,108.18Z"/><path class="cls-17" d="M179.15,101a22,22,0,0,1-2.08,2.68c.11.42.22.76.31,1A9.47,9.47,0,0,0,179.15,101Z"/><path class="cls-17" d="M178.74,97.39l-.76,0a14.38,14.38,0,0,1-6,4.9c-.31.69-.61,1.46-.89,2.26C172.59,103.7,176.65,101.11,178.74,97.39Z"/><path class="cls-16" d="M170.78,117v.12l.05-.12h-.05Z"/><path class="cls-16" d="M167.6,119.79c0-.13.05-.27.08-.4,0,.1-.08.19-.11.29Z"/><path class="cls-16" d="M169.18,116.05c-.52,1-1,2.15-1.5,3.34,0,.13-.05.27-.08.4.47,1.55.9,3.12,1.16,4.46a38.48,38.48,0,0,1,2-7.16V117A1.2,1.2,0,0,1,169.18,116.05Z"/><path class="cls-16" d="M167.32,128.43h0Z"/><path class="cls-16" d="M167.09,121.06a19.33,19.33,0,0,0-.71,2.88,24.49,24.49,0,0,0,1.22-4.15l0-.11Q167.32,120.35,167.09,121.06Z"/><path class="cls-16" d="M167.22,128.42h.1c.32,0,.65-.3.94-.85,0,0,.13-1.36.5-3.33-.26-1.34-.69-2.91-1.16-4.46a24.49,24.49,0,0,1-1.22,4.15C165.92,126.79,166.49,128.33,167.22,128.42Z"/><path class="cls-16" d="M182.29,102.9c1.1.3,4.85-.4,4.83-1.81a9.77,9.77,0,0,1-4.51.84,7.66,7.66,0,0,1-.35,1Z"/><path class="cls-16" d="M182.51,110.92a25.51,25.51,0,0,0-6.77-.29,10.13,10.13,0,0,1-4.57,2l-.32.49c0,1.12,0,2.44-.07,3.82h.05a16.68,16.68,0,0,1,3-5C174.88,110.83,182.51,110.92,182.51,110.92Z"/><path class="cls-16" d="M182.69,101.55a29.47,29.47,0,0,1,4.84-3.5s-1.64-.29-4.84,2.44A2.35,2.35,0,0,1,182.69,101.55Z"/><path class="cls-16" d="M186.51,105.79a24.68,24.68,0,0,1-6.12.2c-.28.37-.57.74-.88,1.1C181.44,107.12,185.57,106.93,186.51,105.79Z"/><path class="cls-16" d="M173.94,103.94a7.08,7.08,0,0,0-.92,3.23c.2-.12.39-.25.58-.39A12.34,12.34,0,0,1,173.94,103.94Z"/><path class="cls-16" d="M176.7,100.59a13.58,13.58,0,0,0-.13,3.62c.18-.18.34-.36.5-.54A11.89,11.89,0,0,1,176.7,100.59Z"/><path class="cls-16" d="M180.37,98.71a6.24,6.24,0,0,0,.08,3.88,21.24,21.24,0,0,0-2.89,2.54s-.08-.17-.18-.46c-.23.3-.46.58-.7.85,0,.08,0,.15,0,.22a18.31,18.31,0,0,0-2.51,3.39c-.29.61-.48,0-.56-.95l-.64.44c0,.42,0,.87.12,1.36a28.93,28.93,0,0,0-1.94,2.68,10.13,10.13,0,0,0,4.57-2l-.78.08s1.86-3.95,3.61-3.67c.14,0,.48,0,.94,0,.31-.36.6-.73.88-1.1a4.4,4.4,0,0,1-1.64-.51s2.14-2.9,3.51-2.58a7.66,7.66,0,0,0,.35-1h-.33l.41-.37a2.35,2.35,0,0,0,0-1.06q-.72.62-1.53,1.44S180.22,101.42,180.37,98.71Z"/><path class="cls-16" d="M170.78,117c.05-1.38.07-2.7.07-3.82-.53.83-1.1,1.81-1.67,2.9A1.2,1.2,0,0,0,170.78,117Z"/><path class="cls-16" d="M177.38,104.67c-.09-.24-.2-.58-.31-1-.16.18-.32.36-.5.54,0,.4.06.84.11,1.31C176.92,105.25,177.15,105,177.38,104.67Z"/><path class="cls-16" d="M173,108.62l.64-.44c0-.41,0-.89,0-1.4-.19.14-.38.27-.58.39A11.32,11.32,0,0,0,173,108.62Z"/><path class="cls-18" d="M139.93,45l-1.09.56c-.79.41-1.57.85-2.33,1.32-.27.17-.55.34-.81.53h0l-.12.09v0a12.35,12.35,0,0,0-1.07.84,12.18,12.18,0,0,0-.94,1,7.32,7.32,0,0,0-1.93,4.56c0,.26,0,.51,0,.77s.06.51.11.77c.09.58.22,1.16.31,1.73a7.64,7.64,0,0,1,.12,1.65.25.25,0,0,1,0,.08,13.64,13.64,0,0,1,1.82,0,14.28,14.28,0,0,1,2-2.64,21.17,21.17,0,0,1,1.84-1.7c.37-.31.75-.6,1.14-.88h0l.12-.09h0c2.9-2.1,6.16-3.81,8.57-6.44h0l.3-.34c3.4-3.92,4.44-9.36,4.68-14.55-1.29,5.71-6.57,9.43-11.79,12.23h0Z"/><path class="cls-18" d="M132.18,58.82A23.74,23.74,0,0,1,131,63.21v0a.77.77,0,0,0,.08.71c.12.12.79-.27,1.25-.65h0a1.39,1.39,0,0,0,.43-.47s0-.05,0-.07c0-.19,0-.37.06-.55A9.28,9.28,0,0,1,134,58.87,13.64,13.64,0,0,0,132.18,58.82Z"/><path class="cls-19" d="M132.18,58.82a.22.22,0,0,0,0-.08,7.64,7.64,0,0,0-.12-1.65c-.09-.57-.22-1.15-.31-1.73l-.08-.11a8,8,0,0,0-1-1.18c-.05,0-.1-.11-.15-.15h0a4.11,4.11,0,0,0-.82-.62,5.06,5.06,0,0,0-.46-.24,6.59,6.59,0,0,0-.73-.3h0l-.14,0a1.41,1.41,0,0,1,0,.41,1.57,1.57,0,0,0-.09-.43l-.33-.1a18.35,18.35,0,0,0-2.21-.43,18.62,18.62,0,0,0-5.2-.3,8.75,8.75,0,0,0-1.5.33h0l-.29.1c-2.7,1-4.47,3.59-6,6A4.14,4.14,0,0,0,112,60a1.39,1.39,0,0,0,.79,1.5,2.08,2.08,0,0,0,1.76-.61,43.4,43.4,0,0,1,9.79-5.38,5.57,5.57,0,0,1,3.82,2.91l.63,1a13.16,13.16,0,0,1,3.17-.58Z"/><path class="cls-19" d="M131,63.23v0a23.74,23.74,0,0,0,1.17-4.39H132a13.16,13.16,0,0,0-3.17.58c.74,1.25,1.6,2.64,2.2,3.84Z"/><path class="cls-19" d="M132.19,58.74a7.64,7.64,0,0,0-.12-1.65,7.64,7.64,0,0,1,.12,1.65.22.22,0,0,1,0,.08h0A.25.25,0,0,0,132.19,58.74Z"/><path class="cls-19" d="M132.18,58.82h0A23.74,23.74,0,0,1,131,63.21v0A23.74,23.74,0,0,0,132.18,58.82Z"/><path class="cls-20" d="M129.12,45.81h0c.06.35.14.69.23,1,.17.69.39,1.38.6,2.08a10.16,10.16,0,0,1,.62,5h0c.05,0,.1.1.15.15a8,8,0,0,1,1,1.18l.08.11h0c0-.26-.08-.51-.11-.77s0-.51,0-.77h0a7.32,7.32,0,0,1,1.93-4.56,12.18,12.18,0,0,1,.94-1,12.35,12.35,0,0,1,1.07-.84c.06-.64.12-1.28.17-1.91a4.81,4.81,0,0,1-.81-.27,6.47,6.47,0,0,1-.85-.49,5.09,5.09,0,0,1-.76-.63,3.65,3.65,0,0,1-.63-.8,3.34,3.34,0,0,1,1,.31,5.13,5.13,0,0,1,.86.48,5,5,0,0,1,.75.63,4,4,0,0,1,.49.59c.08-.89.17-1.77.27-2.65,0-.16,0-.31,0-.47a6.16,6.16,0,0,1-.8-.53,7.83,7.83,0,0,1-1.05-.94,7,7,0,0,1-.89-1.12,3.08,3.08,0,0,1-.54-1.35c.33.35.67.64,1,1s.66.63,1,1,.62.68.91,1l.43.57.18-1.51.17-1.18.12-1.18c0-.28.06-.56.09-.83a3.68,3.68,0,0,1-.39-.3,5.62,5.62,0,0,1-.69-.69,5.07,5.07,0,0,1-.56-.81,3.46,3.46,0,0,1-.4-.94,3.45,3.45,0,0,1,.86.56,5.6,5.6,0,0,1,1.25,1.49c.11-1.08.22-2.15.32-3.23.11-1.58.26-3.16.24-4.76a23.28,23.28,0,0,1,.36,4.79c0,1.61-.14,3.21-.31,4.8s-.47,3.17-.75,4.74c-.14.79-.3,1.57-.46,2.35s-.37,1.53-.58,2.29l.12-.09h0c.26-.19.54-.36.81-.53.76-.48,1.54-.91,2.33-1.32l1.09-.56,1-.5h0c.46-6-.69-12.8-1.69-18.73-.15-.9-.72-2.07-1.59-1.79a1.69,1.69,0,0,0-.76.76l-4.43,7.06A35.5,35.5,0,0,0,130.56,35a17.53,17.53,0,0,0-1.44,10.84Z"/><path class="cls-20" d="M131.62,53.82c0,.26,0,.51,0,.77,0-.26,0-.51,0-.77Z"/><path class="cls-20" d="M135.69,47.36h0c.26-.19.54-.36.81-.53-.27.17-.55.34-.81.53h0l-.12.09h0Z"/><path class="cls-20" d="M134.49,48.3a12.35,12.35,0,0,1,1.07-.84h0a12.35,12.35,0,0,0-1.07.84,12.18,12.18,0,0,0-.94,1A12.18,12.18,0,0,1,134.49,48.3Z"/><path class="cls-20" d="M139.93,45l-1.09.56,1.09-.56,1-.5h0Z"/><path class="cls-20" d="M130.57,53.92h0c.05,0,.1.1.15.15s-.1-.11-.15-.15Z"/><path class="cls-20" d="M131.68,55.25l.08.11h0Z"/><path class="cls-21" d="M120.6,51.87a18.62,18.62,0,0,1,5.2.3,18.35,18.35,0,0,1,2.21.43l.33.1a2.37,2.37,0,0,0-.63-1,6.12,6.12,0,0,0-1.32-.92c-1-.5-2-1-2.92-1.54l-1.2-.69a6.92,6.92,0,0,1-1,.44,11.49,11.49,0,0,1-1.27.37,9.8,9.8,0,0,1-1.32.21,6.1,6.1,0,0,1-1.35,0,5.91,5.91,0,0,1,1.22-.58,9.86,9.86,0,0,1,1.28-.38,11.17,11.17,0,0,1,1.31-.2,6.78,6.78,0,0,1,.78,0c-1.09-.63-2.17-1.27-3.25-1.94a4.34,4.34,0,0,1-1,.91,5.23,5.23,0,0,1-1.61.69,5.42,5.42,0,0,1-1.75.15,4.17,4.17,0,0,1-1.66-.47c.58,0,1.12-.07,1.65-.14a13.19,13.19,0,0,0,1.57-.29,14.07,14.07,0,0,0,1.52-.48c.37-.14.74-.31,1.11-.47l-.76-.47c-1.36-.87-2.7-1.78-4-2.71-.23,0-.47.1-.7.13-.45.08-.9.12-1.35.16s-.9,0-1.36,0a8.46,8.46,0,0,1-1.39-.13,5.16,5.16,0,0,1,1.33-.47,9.07,9.07,0,0,1,1.37-.21,8,8,0,0,1,1.38,0h.07c-2.06-1.47-4.06-3-6-4.67,2.34,1.51,4.66,3,7,4.55a9.54,9.54,0,0,1-.16-1,12.11,12.11,0,0,1-.09-1.59,14.11,14.11,0,0,1,.08-1.59,8.87,8.87,0,0,1,.31-1.6,8.84,8.84,0,0,1,.3,1.6,15.84,15.84,0,0,1,0,3.18,9.69,9.69,0,0,1-.2,1.18c1.28.83,2.56,1.67,3.85,2.49l.84.53c0-.34.09-.68.14-1l.2-1.57.17-1.58c0-.53.1-1.07.18-1.63a5.62,5.62,0,0,1,.43,1.62,7.26,7.26,0,0,1,0,1.68,6.92,6.92,0,0,1-.39,1.63,6.17,6.17,0,0,1-.49,1L122.66,48a14.19,14.19,0,0,0,.82-1.4,12,12,0,0,0,.78-1.86,13.19,13.19,0,0,0,.49-2,19.6,19.6,0,0,0,.21-2.07,5.26,5.26,0,0,1,.39,2.12A7.23,7.23,0,0,1,125,45,7.44,7.44,0,0,1,124,47a6.33,6.33,0,0,1-1.19,1.18l1,.61c.93.58,1.86,1.14,2.8,1.74a6.42,6.42,0,0,1,1.28,1.1,2.43,2.43,0,0,1,.55,1.14l.14,0h0a6.59,6.59,0,0,1,.73.3,5.06,5.06,0,0,1,.46.24,3.85,3.85,0,0,1,.82.62,10.4,10.4,0,0,0-.62-5c-.21-.7-.43-1.39-.6-2.08-.09-.34-.17-.68-.23-1h0c-.37-1.15-2.24-3.3-3.79-4.77a12,12,0,0,0-1.61-1.35c-1.69-1.08-3.74-1.41-5.62-2.15-2.26-.88-4.36-2.39-6.78-2.61a13.68,13.68,0,0,0-4.21.54,2.21,2.21,0,0,0-1.06.46,2.09,2.09,0,0,0-.48,1.38,13.19,13.19,0,0,0,4.89,11c2.5,2,5.6,2.94,8.64,3.86h0A8.75,8.75,0,0,1,120.6,51.87Z"/><path class="cls-21" d="M128.55,52.76l-.14,0h0l.14,0h0a6.59,6.59,0,0,1,.73.3,6.59,6.59,0,0,0-.73-.3Z"/><path class="cls-21" d="M120.6,51.87a8.75,8.75,0,0,0-1.5.33h0A8.75,8.75,0,0,1,120.6,51.87Z"/><path class="cls-21" d="M128,52.6l.33.1h0Z"/><path class="cls-21" d="M130,48.93a10.4,10.4,0,0,1,.62,5h0A10.16,10.16,0,0,0,130,48.93Z"/><polygon class="cls-21" points="129.12 45.81 129.12 45.81 129.12 45.81 129.12 45.81 129.12 45.81"/><path class="cls-22" d="M137.31,57.42a7.58,7.58,0,0,1,5.54.81c.79.53,1.42,1.28,2.19,1.84a9.68,9.68,0,0,0,4.23,1.5c3.87.64,8.1.46,11.37-1.72a59.42,59.42,0,0,0-3.28-8.12A7.11,7.11,0,0,0,156,49.66a7.51,7.51,0,0,0-2.55-1.42c-1.83-.72-3.81-1.45-5.73-1.13h0c-2.41,2.63-5.66,4.34-8.57,6.44h0l-.12.09h0c-.39.28-.77.57-1.14.88a21.17,21.17,0,0,0-1.84,1.7,14.28,14.28,0,0,0-2,2.64,12.35,12.35,0,0,1,1.52.24A8,8,0,0,1,137.31,57.42Zm6.35-5.56a8.75,8.75,0,0,1,2.56-.18,6.67,6.67,0,0,1,1,.16c.23-.24.47-.47.71-.69a14.42,14.42,0,0,1,1.25-1,11.58,11.58,0,0,1,1.34-.84,8.53,8.53,0,0,1,1.47-.66,8.22,8.22,0,0,1-1.12,1.16,14.42,14.42,0,0,1-1.25,1,13,13,0,0,1-1.34.83l-.6.31a7.5,7.5,0,0,1,1.07.37,18.11,18.11,0,0,1,2.12,1.19,7.25,7.25,0,0,1,1.16-.72,8,8,0,0,1,1.75-.6,7.58,7.58,0,0,1,1.84-.2,6.36,6.36,0,0,1,1.83.25c-.61.14-1.2.24-1.78.35l-1.72.35-1.72.42-1.15.29c.66.44,1.29.91,1.91,1.4a22.72,22.72,0,0,1,3.53,3.54c-1.26-1.09-2.55-2.11-3.89-3.06-.68-.46-1.35-.92-2.06-1.34l-.31-.18c.06.2.12.39.19.59.14.38.29.76.45,1.13s.33.75.51,1.13.35.74.58,1.14a2.59,2.59,0,0,1-1.09-.81,4.58,4.58,0,0,1-.71-1.15,4,4,0,0,1-.33-1.32,2.73,2.73,0,0,1,.08-.9,13.46,13.46,0,0,0-1.5-.79,8.22,8.22,0,0,0-4.66-.57l-.37.06c.12.45.26.87.41,1.3l.57,1.53.59,1.52a12.51,12.51,0,0,0,.69,1.5,3.56,3.56,0,0,1-1.22-1.22,7.12,7.12,0,0,1-.78-1.53,7.4,7.4,0,0,1-.44-1.66,4.17,4.17,0,0,1,0-1.41A32.81,32.81,0,0,0,139,53.68,17.31,17.31,0,0,1,143.66,51.86Z"/><path class="cls-22" d="M132.84,62.22c0,.18-.05.36-.06.55,0,0,0,0,0,.07a1.39,1.39,0,0,1-.43.47,1.06,1.06,0,0,0,1.61-.24c-.25-1.07.53-2.67,1.57-4a12.35,12.35,0,0,0-1.52-.24A9.28,9.28,0,0,0,132.84,62.22Z"/><path class="cls-22" d="M137.83,54.53c.37-.31.75-.6,1.14-.88h0C138.58,53.93,138.2,54.22,137.83,54.53Z"/><path class="cls-22" d="M147.7,47.11c-2.41,2.63-5.67,4.34-8.57,6.44h0c2.91-2.1,6.16-3.81,8.57-6.44h0Z"/><path class="cls-22" d="M134,58.87a14.28,14.28,0,0,1,2-2.64,14.28,14.28,0,0,0-2,2.64Z"/><path class="cls-22" d="M132.84,62.22A9.28,9.28,0,0,1,134,58.87h0A9.28,9.28,0,0,0,132.84,62.22Z"/><path class="cls-22" d="M132.34,63.31h0a1.39,1.39,0,0,0,.43-.47A1.39,1.39,0,0,1,132.34,63.31Z"/><path class="cls-23" d="M128.43,53.13a1.41,1.41,0,0,0,0-.41l-.07,0A1.57,1.57,0,0,1,128.43,53.13Z"/><path class="cls-23" d="M114.11,42.59c-2.32-1.52-4.64-3-7-4.55,1.92,1.65,3.92,3.2,6,4.67a6.86,6.86,0,0,1,1.08.21C114.16,42.81,114.14,42.7,114.11,42.59Z"/><path class="cls-23" d="M127.86,51.58a6.42,6.42,0,0,0-1.28-1.1c-.94-.6-1.87-1.16-2.8-1.74l-1-.61c-.13.09-.25.2-.39.29h.12l-.27.15,1.2.69c1,.53,2,1,2.92,1.54a6.12,6.12,0,0,1,1.32.92,2.37,2.37,0,0,1,.63,1l.07,0A2.43,2.43,0,0,0,127.86,51.58Z"/><path class="cls-23" d="M122.66,48l-3.39-2.13a4.9,4.9,0,0,1-.31.48c0-.22.05-.42.08-.62l-.84-.53c-1.29-.82-2.57-1.66-3.85-2.49l-.06.21.13,0-.14,0a.53.53,0,0,0,0,.12.35.35,0,0,1,0-.11,4,4,0,0,1-.46.13c1.32.93,2.66,1.84,4,2.71l.76.47.42-.18a3.33,3.33,0,0,1-.25.28c1.08.67,2.16,1.31,3.25,1.94a3.55,3.55,0,0,1,.46,0C122.51,48.29,122.58,48.16,122.66,48Z"/><path class="cls-23" d="M128.34,52.7h0l.07,0h0Z"/><path class="cls-23" d="M114.55,41.56a15.84,15.84,0,0,0,0-3.18,8.84,8.84,0,0,0-.3-1.6,8.87,8.87,0,0,0-.31,1.6,14.11,14.11,0,0,0-.08,1.59,12.11,12.11,0,0,0,.09,1.59,9.54,9.54,0,0,0,.16,1l.24.15A9.69,9.69,0,0,0,114.55,41.56Z"/><path class="cls-23" d="M114.29,43l.06-.21-.24-.15c0,.11,0,.22.08.33Z"/><path class="cls-23" d="M114.25,43.15a.53.53,0,0,1,0-.12h-.06A.35.35,0,0,0,114.25,43.15Z"/><path class="cls-23" d="M119.76,44.9a6.92,6.92,0,0,0,.39-1.63,7.26,7.26,0,0,0,0-1.68,5.62,5.62,0,0,0-.43-1.62c-.08.56-.13,1.1-.18,1.63l-.17,1.58-.2,1.57c-.05.33-.09.67-.14,1l.23.14A6.17,6.17,0,0,0,119.76,44.9Z"/><path class="cls-23" d="M119.27,45.9l-.23-.14c0,.2-.06.4-.08.62A4.9,4.9,0,0,0,119.27,45.9Z"/><path class="cls-23" d="M124,47A7.44,7.44,0,0,0,125,45a7.23,7.23,0,0,0,.35-2.16,5.26,5.26,0,0,0-.39-2.12,19.6,19.6,0,0,1-.21,2.07,13.19,13.19,0,0,1-.49,2,12,12,0,0,1-.78,1.86,14.19,14.19,0,0,1-.82,1.4l.15.1A6.33,6.33,0,0,0,124,47Z"/><path class="cls-23" d="M122.42,48.42c.14-.09.26-.2.39-.29l-.15-.1c-.08.13-.15.26-.24.39Z"/><path class="cls-23" d="M113,42.7a8,8,0,0,0-1.38,0,9.07,9.07,0,0,0-1.37.21,5.16,5.16,0,0,0-1.33.47,8.46,8.46,0,0,0,1.39.13c.46,0,.91,0,1.36,0s.9-.08,1.35-.16c.23,0,.47-.08.7-.13l-.65-.46Z"/><path class="cls-23" d="M114.42,43l-.13,0s0,0,0,.08Z"/><path class="cls-23" d="M114.19,42.92a6.86,6.86,0,0,0-1.08-.21l.65.46a4,4,0,0,0,.46-.13Z"/><path class="cls-23" d="M114.22,43h.06s0-.05,0-.08l-.1,0Z"/><path class="cls-23" d="M117.43,46.82a14.07,14.07,0,0,1-1.52.48,13.19,13.19,0,0,1-1.57.29c-.53.07-1.07.11-1.65.14a4.17,4.17,0,0,0,1.66.47,5.42,5.42,0,0,0,1.75-.15,5.23,5.23,0,0,0,1.61-.69,4.34,4.34,0,0,0,1-.91l-.17-.1C118.17,46.51,117.8,46.68,117.43,46.82Z"/><path class="cls-23" d="M118.54,46.35l.17.1a3.33,3.33,0,0,0,.25-.28Z"/><path class="cls-23" d="M121.18,48.42a11.17,11.17,0,0,0-1.31.2,9.86,9.86,0,0,0-1.28.38,5.91,5.91,0,0,0-1.22.58,6.1,6.1,0,0,0,1.35,0,9.8,9.8,0,0,0,1.32-.21,11.49,11.49,0,0,0,1.27-.37,6.92,6.92,0,0,0,1-.44l-.31-.18A6.78,6.78,0,0,0,121.18,48.42Z"/><path class="cls-23" d="M122.42,48.42h0a3.55,3.55,0,0,0-.46,0l.31.18.27-.15Z"/><polygon class="cls-23" points="122.42 48.42 122.42 48.42 122.42 48.42 122.42 48.42"/><path class="cls-23" d="M143.32,52.23c0,.1.05.19.07.29l.37-.06a8.22,8.22,0,0,1,4.66.57,13.46,13.46,0,0,1,1.5.79,1.6,1.6,0,0,1,.2-.44,5.86,5.86,0,0,0,.12.63l.31.18c.71.42,1.38.88,2.06,1.34,1.34.95,2.63,2,3.89,3.06A22.72,22.72,0,0,0,153,55.05c-.62-.49-1.25-1-1.91-1.4l-.6.16c.12-.11.26-.2.39-.3a18.11,18.11,0,0,0-2.12-1.19,7.5,7.5,0,0,0-1.07-.37,7.52,7.52,0,0,1-.87.35c.13-.16.27-.31.41-.46a6.67,6.67,0,0,0-1-.16,8.75,8.75,0,0,0-2.56.18A17.31,17.31,0,0,0,139,53.68a32.81,32.81,0,0,1,4.24-1.13A1.92,1.92,0,0,1,143.32,52.23Z"/><path class="cls-23" d="M148.26,51.64a13,13,0,0,0,1.34-.83,14.42,14.42,0,0,0,1.25-1A8.22,8.22,0,0,0,152,48.68a8.53,8.53,0,0,0-1.47.66,11.58,11.58,0,0,0-1.34.84,14.42,14.42,0,0,0-1.25,1c-.24.22-.48.45-.71.69l.46.11Z"/><path class="cls-23" d="M147.66,52l-.46-.11c-.14.15-.28.3-.41.46A7.52,7.52,0,0,0,147.66,52Z"/><path class="cls-23" d="M152.21,53.36l1.72-.42,1.72-.35c.58-.11,1.17-.21,1.78-.35A6.36,6.36,0,0,0,155.6,52a7.58,7.58,0,0,0-1.84.2,8,8,0,0,0-1.75.6,7.25,7.25,0,0,0-1.16.72l.21.14Z"/><path class="cls-23" d="M151.06,53.65l-.21-.14c-.13.1-.27.19-.39.3Z"/><path class="cls-23" d="M143.21,54a7.4,7.4,0,0,0,.44,1.66,7.12,7.12,0,0,0,.78,1.53,3.56,3.56,0,0,0,1.22,1.22,12.51,12.51,0,0,1-.69-1.5l-.59-1.52-.57-1.53c-.15-.43-.29-.85-.41-1.3l-.16,0A4.17,4.17,0,0,0,143.21,54Z"/><path class="cls-23" d="M143.23,52.55l.16,0c0-.1,0-.19-.07-.29A1.92,1.92,0,0,0,143.23,52.55Z"/><path class="cls-23" d="M149.84,54.72a4,4,0,0,0,.33,1.32,4.58,4.58,0,0,0,.71,1.15A2.59,2.59,0,0,0,152,58c-.23-.4-.4-.77-.58-1.14s-.35-.75-.51-1.13-.31-.75-.45-1.13c-.07-.2-.13-.39-.19-.59a3.37,3.37,0,0,0-.32-.19A2.73,2.73,0,0,0,149.84,54.72Z"/><path class="cls-23" d="M149.92,53.82a3.37,3.37,0,0,1,.32.19,5.86,5.86,0,0,1-.12-.63A1.6,1.6,0,0,0,149.92,53.82Z"/><path class="cls-23" d="M135.56,47.49v0h0Z"/><path class="cls-23" d="M136.15,45.16c.16-.78.32-1.56.46-2.35.28-1.57.59-3.15.75-4.74s.29-3.19.31-4.8a23.28,23.28,0,0,0-.36-4.79c0,1.6-.13,3.18-.24,4.76-.1,1.08-.21,2.15-.32,3.23h0a3.29,3.29,0,0,1,.4.94,2.37,2.37,0,0,1-.47-.26c0,.27-.05.55-.09.83l-.12,1.18-.17,1.18-.18,1.51c.13.2.26.4.38.61a3.48,3.48,0,0,1-.43-.22c0,.16,0,.31,0,.47-.1.88-.19,1.76-.27,2.65l.15.21a1,1,0,0,1-.17,0c0,.63-.11,1.27-.17,1.91h0C135.78,46.69,136,45.93,136.15,45.16Z"/><polygon class="cls-23" points="135.57 47.45 135.57 47.45 135.56 47.46 135.56 47.46 135.57 47.45"/><path class="cls-23" d="M135.26,44.78a5,5,0,0,0-.75-.63,5.13,5.13,0,0,0-.86-.48,3.34,3.34,0,0,0-1-.31,3.65,3.65,0,0,0,.63.8,5.09,5.09,0,0,0,.76.63,6.47,6.47,0,0,0,.85.49,4.81,4.81,0,0,0,.81.27l0-.18A4,4,0,0,0,135.26,44.78Z"/><path class="cls-23" d="M135.75,45.37l0,.18a1,1,0,0,0,.17,0Z"/><path class="cls-23" d="M136.19,35.67a5,5,0,0,0-.69-.69,3.45,3.45,0,0,0-.86-.56,3.46,3.46,0,0,0,.4.94,5.07,5.07,0,0,0,.56.81,5.62,5.62,0,0,0,.69.69,3.68,3.68,0,0,0,.39.3c0-.23,0-.46.07-.69A5,5,0,0,0,136.19,35.67Z"/><path class="cls-23" d="M136.75,36.48h0c0,.23-.05.46-.07.69a2.37,2.37,0,0,0,.47.26A3.29,3.29,0,0,0,136.75,36.48Z"/><path class="cls-23" d="M135.69,41.29c-.29-.36-.6-.71-.91-1s-.64-.66-1-1-.68-.62-1-1a3.08,3.08,0,0,0,.54,1.35,7,7,0,0,0,.89,1.12,7.83,7.83,0,0,0,1.05.94,6.16,6.16,0,0,0,.8.53c0-.13,0-.26.05-.39Z"/><path class="cls-23" d="M136.12,41.86c0,.13,0,.26-.05.39a3.48,3.48,0,0,0,.43.22C136.38,42.26,136.25,42.06,136.12,41.86Z"/><path class="cls-14" d="M6.07,166.59a1.06,1.06,0,0,1-1.61.24h0c-.46.38-1.13.77-1.25.65a.74.74,0,0,1-.08-.7v0c-.6-1.2-1.46-2.6-2.2-3.84l-.15,0V182.1a34.38,34.38,0,0,0,4.84.29c11.79-.06,11.3-8.11,11.3-8.11-.35-5.79-3.95-10.45-9.27-11.65C6.6,163.92,5.82,165.52,6.07,166.59Z"/><path class="cls-14" d="M4.89,166.38a.1.1,0,0,0,0-.09c0-.18,0-.37.06-.55,0,.18,0,.37-.06.55A.1.1,0,0,1,4.89,166.38Z"/><path class="cls-18" d="M12.05,148.47,11,149c-.79.42-1.57.85-2.33,1.32-.27.17-.55.34-.81.53h0l-.12.09v0a12.46,12.46,0,0,0-1.07.85,9.74,9.74,0,0,0-.85.85,7.37,7.37,0,0,0-2,4.66,6.52,6.52,0,0,0,0,.77c0,.26.06.52.11.77.09.58.22,1.16.31,1.74a7.51,7.51,0,0,1,.12,1.64.19.19,0,0,1,0,.08,15.56,15.56,0,0,1,1.82,0A13.74,13.74,0,0,1,7.87,160a21.49,21.49,0,0,1,3.07-2.73l.15-.11h0l.14-.1h0c2.91-2.1,6.17-3.81,8.58-6.43h0l.3-.34c3.4-3.92,4.44-9.36,4.68-14.54-1.29,5.7-6.57,9.43-11.79,12.22h0Z"/><path class="cls-18" d="M3.13,166.75v0a.74.74,0,0,0,.08.7c.12.12.79-.27,1.25-.65h0a1.69,1.69,0,0,0,.43-.45.1.1,0,0,0,0-.09c0-.18,0-.37.06-.55a9.28,9.28,0,0,1,1.16-3.35,15.56,15.56,0,0,0-1.82,0,23.74,23.74,0,0,1-1.17,4.39Z"/><path class="cls-19" d="M4.09,162.35H4.3a.19.19,0,0,0,0-.08,7.51,7.51,0,0,0-.12-1.64c-.1-.58-.22-1.16-.31-1.74l-.34-.48a8,8,0,0,0-.73-.84l-.12-.12h0a4.11,4.11,0,0,0-.82-.62,4.74,4.74,0,0,0-.5-.26,5.36,5.36,0,0,0-.6-.24v6.38l.15.24A13.17,13.17,0,0,1,4.09,162.35Z"/><path class="cls-19" d="M4.3,162.34H4.09a13.17,13.17,0,0,0-3.17.59c.74,1.24,1.6,2.64,2.2,3.84v-.05A23.74,23.74,0,0,0,4.3,162.34Z"/><path class="cls-19" d="M4.3,162.34h0a.19.19,0,0,0,0-.08,7.51,7.51,0,0,0-.12-1.64,7.51,7.51,0,0,1,.12,1.64A.19.19,0,0,1,4.3,162.34Z"/><path class="cls-19" d="M3.13,166.73v0a23.74,23.74,0,0,0,1.17-4.39h0A23.74,23.74,0,0,1,3.13,166.73Z"/><path class="cls-20" d="M1.24,149.33v0c.06.34.14.69.23,1,.17.68.39,1.38.6,2.07a10.41,10.41,0,0,1,.62,5h0l.12.12a8,8,0,0,1,.73.84l.34.48h0c0-.25-.08-.51-.11-.77a6.52,6.52,0,0,1,0-.77h0a7.37,7.37,0,0,1,2-4.66,9.74,9.74,0,0,1,.85-.85A12.46,12.46,0,0,1,7.68,151c.06-.64.12-1.28.17-1.91A4.05,4.05,0,0,1,7,148.8a5.51,5.51,0,0,1-.85-.49,5,5,0,0,1-.76-.62,3.65,3.65,0,0,1-.63-.81,3.34,3.34,0,0,1,1,.31,4.55,4.55,0,0,1,.86.49,5.49,5.49,0,0,1,.75.62,4,4,0,0,1,.49.59c.08-.88.17-1.77.27-2.65,0-.15,0-.31,0-.47a7.32,7.32,0,0,1-.8-.52,8.66,8.66,0,0,1-1-.95,7,7,0,0,1-.89-1.12,3.08,3.08,0,0,1-.54-1.35c.33.35.67.65,1,1s.66.63,1,1,.62.68.91,1c.15.18.29.37.43.57l.18-1.52.17-1.18.12-1.18c0-.28.06-.56.09-.83a4,4,0,0,1-.39-.29,5.7,5.7,0,0,1-.69-.7,5,5,0,0,1-.56-.8,3.53,3.53,0,0,1-.4-.95,3.45,3.45,0,0,1,.86.56,5.07,5.07,0,0,1,.69.7,4.5,4.5,0,0,1,.56.79c.11-1.08.22-2.15.32-3.22.11-1.59.26-3.17.24-4.77a23.37,23.37,0,0,1,.36,4.8c0,1.6-.14,3.2-.31,4.79s-.47,3.17-.75,4.74c-.14.79-.3,1.57-.46,2.36s-.37,1.53-.58,2.28l.12-.09h0c.26-.19.54-.36.81-.53.76-.47,1.54-.9,2.33-1.32l1.09-.56,1-.5h0c.46-6-.69-12.8-1.69-18.73-.15-.9-.72-2.07-1.59-1.79a1.65,1.65,0,0,0-.76.76l-4.43,7.06a35.5,35.5,0,0,0-1.87,3.22,17.53,17.53,0,0,0-1.44,10.84Z"/><path class="cls-20" d="M3.74,157.34a6.52,6.52,0,0,0,0,.77,6.52,6.52,0,0,1,0-.77Z"/><path class="cls-20" d="M6.61,151.83A12.46,12.46,0,0,1,7.68,151h0a12.46,12.46,0,0,0-1.07.85,9.74,9.74,0,0,0-.85.85A9.74,9.74,0,0,1,6.61,151.83Z"/><path class="cls-20" d="M12.05,148.47,11,149l1.09-.56,1-.5h0Z"/><path class="cls-20" d="M7.81,150.88h0c.26-.19.54-.36.81-.53-.27.17-.55.34-.81.53h0l-.12.09h0Z"/><path class="cls-20" d="M3.88,158.88l-.34-.48.34.48Z"/><path class="cls-20" d="M2.81,157.56l-.12-.12h0Z"/><path class="cls-21" d="M1.37,156.56a4.74,4.74,0,0,1,.5.26,4.11,4.11,0,0,1,.82.62,10.41,10.41,0,0,0-.62-5c-.21-.69-.43-1.39-.6-2.07-.09-.34-.17-.69-.23-1v0h0a4.41,4.41,0,0,0-.47-.91v7.9A5.36,5.36,0,0,1,1.37,156.56Z"/><path class="cls-21" d="M.67,156.29h0l.09,0h0l-.09,0h0l-.14,0h0Z"/><path class="cls-21" d="M.46,156.22,0,156.08l.46.14Z"/><path class="cls-21" d="M1.37,156.56a5.36,5.36,0,0,0-.6-.24h0A5.36,5.36,0,0,1,1.37,156.56Z"/><polygon class="cls-21" points="1.24 149.34 1.24 149.33 1.24 149.33 1.24 149.33 1.24 149.34"/><path class="cls-21" d="M2.07,152.45a10.41,10.41,0,0,1,.62,5h0A10.41,10.41,0,0,0,2.07,152.45Z"/><path class="cls-22" d="M19.82,150.64c-2.41,2.62-5.67,4.33-8.58,6.43h0l-.14.1h0l-.15.11A21.49,21.49,0,0,0,7.87,160a13.74,13.74,0,0,0-1.75,2.38,12.35,12.35,0,0,1,1.52.24,8.18,8.18,0,0,1,1.78-1.69,7.6,7.6,0,0,1,5.55.81c.79.53,1.42,1.28,2.19,1.84a9.83,9.83,0,0,0,4.23,1.51c3.87.63,8.1.45,11.37-1.72a60.07,60.07,0,0,0-3.28-8.13,7.24,7.24,0,0,0-1.37-2.07,7.49,7.49,0,0,0-2.55-1.41c-1.83-.73-3.81-1.46-5.73-1.14h0Zm1.46,3.06a13.12,13.12,0,0,1,1.34-.84,8.5,8.5,0,0,1,1.47-.65A9.39,9.39,0,0,1,23,153.36a14.42,14.42,0,0,1-1.25,1,13.12,13.12,0,0,1-1.34.84l-.6.3a7.5,7.5,0,0,1,1.07.37A18.11,18.11,0,0,1,23,157a6.55,6.55,0,0,1,1.16-.71,8.17,8.17,0,0,1,3.59-.81,6,6,0,0,1,1.83.26c-.61.13-1.2.23-1.78.34s-1.15.23-1.72.36-1.14.27-1.72.41l-1.15.3c.66.43,1.29.9,1.91,1.39a22.79,22.79,0,0,1,3.53,3.55,49,49,0,0,0-3.89-3.07c-.68-.46-1.35-.92-2.06-1.34l-.31-.18c.06.2.12.39.19.59.14.38.29.76.45,1.13s.33.75.5,1.13.36.75.59,1.15a2.69,2.69,0,0,1-1.09-.82,4.25,4.25,0,0,1-.71-1.15,4,4,0,0,1-.33-1.32,2.73,2.73,0,0,1,.08-.9,13.46,13.46,0,0,0-1.5-.79,8.31,8.31,0,0,0-4.66-.57l-.37.06c.12.45.26.87.41,1.3l.57,1.53.59,1.52a12,12,0,0,0,.69,1.51,3.5,3.5,0,0,1-1.22-1.23,7.39,7.39,0,0,1-.79-1.53,7.79,7.79,0,0,1-.43-1.66,4.18,4.18,0,0,1,0-1.41,32.39,32.39,0,0,0-4.24,1.13,17.31,17.31,0,0,1,4.67-1.82,9.11,9.11,0,0,1,2.56-.18,8.37,8.37,0,0,1,1,.17c.23-.25.47-.48.71-.7A14.42,14.42,0,0,1,21.28,153.7Z"/><path class="cls-22" d="M5,165.74c0,.18,0,.37-.06.55a.1.1,0,0,1,0,.09,1.69,1.69,0,0,1-.43.45,1.06,1.06,0,0,0,1.61-.24c-.25-1.07.53-2.67,1.57-4a12.35,12.35,0,0,0-1.52-.24A9.28,9.28,0,0,0,5,165.74Z"/><path class="cls-22" d="M11.09,157.17h0l-.15.11.15-.11Z"/><path class="cls-22" d="M7.87,160a13.74,13.74,0,0,0-1.75,2.38h0A13.74,13.74,0,0,1,7.87,160Z"/><path class="cls-22" d="M19.82,150.64c-2.41,2.62-5.67,4.33-8.58,6.43h0c2.91-2.1,6.17-3.81,8.58-6.43h0Z"/><path class="cls-22" d="M4.46,166.83h0a1.69,1.69,0,0,0,.43-.45A1.69,1.69,0,0,1,4.46,166.83Z"/><path class="cls-22" d="M6.12,162.39h0A9.28,9.28,0,0,0,5,165.74,9.28,9.28,0,0,1,6.12,162.39Z"/><path class="cls-23" d="M.55,156.65a1.41,1.41,0,0,0,0-.41l-.07,0A1.57,1.57,0,0,1,.55,156.65Z"/><path class="cls-23" d="M.53,156.24h0l-.07,0h0Z"/><path class="cls-23" d="M19.32,155.37a8.37,8.37,0,0,0-1-.17,9.11,9.11,0,0,0-2.56.18,17.31,17.31,0,0,0-4.67,1.82,32.39,32.39,0,0,1,4.24-1.13,2.23,2.23,0,0,1,.09-.32c0,.1.05.2.07.29l.37-.06a8.31,8.31,0,0,1,4.66.57,13.46,13.46,0,0,1,1.5.79,1.6,1.6,0,0,1,.2-.44,5.86,5.86,0,0,0,.12.63l.31.18c.71.42,1.38.88,2.06,1.34a49,49,0,0,1,3.89,3.07,22.79,22.79,0,0,0-3.53-3.55c-.62-.49-1.25-1-1.91-1.39l-.6.15c.12-.11.26-.2.39-.3a18.11,18.11,0,0,0-2.12-1.19,7.5,7.5,0,0,0-1.07-.37,6.08,6.08,0,0,1-.87.35A5.92,5.92,0,0,1,19.32,155.37Z"/><path class="cls-23" d="M19.32,155.37l.46.1.6-.3a13.12,13.12,0,0,0,1.34-.84,14.42,14.42,0,0,0,1.25-1,9.39,9.39,0,0,0,1.12-1.15,8.5,8.5,0,0,0-1.47.65,13.12,13.12,0,0,0-1.34.84,14.42,14.42,0,0,0-1.25,1C19.79,154.89,19.55,155.12,19.32,155.37Z"/><path class="cls-23" d="M18.91,155.82a6.08,6.08,0,0,0,.87-.35l-.46-.1A5.92,5.92,0,0,0,18.91,155.82Z"/><path class="cls-23" d="M24.33,156.88c.58-.14,1.15-.29,1.72-.41s1.14-.25,1.72-.36,1.17-.21,1.78-.34a6,6,0,0,0-1.83-.26,8.17,8.17,0,0,0-3.59.81A6.55,6.55,0,0,0,23,157l.21.15Z"/><path class="cls-23" d="M23.18,157.18,23,157c-.13.1-.27.19-.39.3Z"/><path class="cls-23" d="M15.33,157.48a7.79,7.79,0,0,0,.43,1.66,7.39,7.39,0,0,0,.79,1.53,3.5,3.5,0,0,0,1.22,1.23,12,12,0,0,1-.69-1.51l-.59-1.52-.57-1.53c-.15-.43-.29-.85-.41-1.3l-.16,0A4.18,4.18,0,0,0,15.33,157.48Z"/><path class="cls-23" d="M15.35,156.07l.16,0c0-.09,0-.19-.07-.29A2.23,2.23,0,0,0,15.35,156.07Z"/><path class="cls-23" d="M22,158.24a4,4,0,0,0,.33,1.32,4.25,4.25,0,0,0,.71,1.15,2.69,2.69,0,0,0,1.09.82c-.23-.4-.4-.77-.59-1.15s-.34-.75-.5-1.13-.31-.75-.45-1.13c-.07-.2-.13-.39-.19-.59l-.32-.19A2.73,2.73,0,0,0,22,158.24Z"/><path class="cls-23" d="M22,157.34l.32.19a5.86,5.86,0,0,1-.12-.63A1.6,1.6,0,0,0,22,157.34Z"/><path class="cls-23" d="M7.68,151v0h0Z"/><path class="cls-23" d="M8.27,148.69c.16-.79.32-1.57.46-2.36.28-1.57.59-3.14.75-4.74s.29-3.19.31-4.79a23.37,23.37,0,0,0-.36-4.8c0,1.6-.13,3.18-.24,4.77-.1,1.07-.21,2.14-.32,3.22h0a3.29,3.29,0,0,1,.4.94,2.37,2.37,0,0,1-.47-.26c0,.27-.05.55-.09.83l-.12,1.18-.17,1.18-.18,1.52a7.07,7.07,0,0,1,.38.61c-.15-.07-.29-.15-.43-.23,0,.16,0,.32,0,.47-.1.88-.19,1.77-.27,2.65l.15.22-.17,0c0,.63-.11,1.27-.17,1.91h0C7.9,150.22,8.09,149.45,8.27,148.69Z"/><polygon class="cls-23" points="7.69 150.97 7.69 150.97 7.68 150.98 7.68 150.98 7.69 150.97"/><path class="cls-23" d="M7.38,148.3a5.49,5.49,0,0,0-.75-.62,4.55,4.55,0,0,0-.86-.49,3.34,3.34,0,0,0-1-.31,3.65,3.65,0,0,0,.63.81,5,5,0,0,0,.76.62,5.51,5.51,0,0,0,.85.49,4.05,4.05,0,0,0,.81.27l0-.18A4,4,0,0,0,7.38,148.3Z"/><path class="cls-23" d="M7.87,148.89l0,.18.17,0Z"/><path class="cls-23" d="M8.31,139.2a5.07,5.07,0,0,0-.69-.7,3.45,3.45,0,0,0-.86-.56,3.53,3.53,0,0,0,.4.95,5,5,0,0,0,.56.8,5.7,5.7,0,0,0,.69.7,4,4,0,0,0,.39.29c0-.23,0-.46.07-.69A4.5,4.5,0,0,0,8.31,139.2Z"/><path class="cls-23" d="M8.87,140h0c0,.23,0,.46-.07.69a2.37,2.37,0,0,0,.47.26A3.29,3.29,0,0,0,8.87,140Z"/><path class="cls-23" d="M7.81,144.82c-.29-.37-.6-.72-.91-1s-.64-.66-1-1-.68-.62-1-1a3.08,3.08,0,0,0,.54,1.35,7,7,0,0,0,.89,1.12,8.66,8.66,0,0,0,1,.95,7.32,7.32,0,0,0,.8.52c0-.13,0-.26.05-.38C8.1,145.19,8,145,7.81,144.82Z"/><path class="cls-23" d="M8.24,145.39c0,.12,0,.25-.05.38.14.08.28.16.43.23A7.07,7.07,0,0,0,8.24,145.39Z"/></g></svg>