<svg xmlns="http://www.w3.org/2000/svg" viewBox="0 0 75.7 234.28"><defs><style>.cls-1{fill:#285e85;}.cls-2{fill:#77a275;}.cls-3{fill:#ddda91;}.cls-4{fill:#faf2de;}</style></defs><title>p4me</title><g id="รวม"><path class="cls-1" d="M1.46,12.52,75.32,234.09l.24.19h.14v-122l-10.93,3a5.27,5.27,0,0,1-2.84,0c-2.5-.75-2.56-3.2-2.41-5.27a88.45,88.45,0,0,1,1.4-10.62c.58-3,1.45-6.25,5.44-7.08a8,8,0,0,1,4.85.61,14.52,14.52,0,0,1,4.49,3.38V75.68a9,9,0,0,1-2-1,26.59,26.59,0,0,0-9.27-4.24l-1.07-.23c-2.12-.43-2.88-.58-2.69-3.11a2.38,2.38,0,0,1,.84-1.48,7.25,7.25,0,0,1,.64-.54,12.47,12.47,0,0,1,1.17-.74A51.69,51.69,0,0,1,69,61.88h0l.07,0h.19l.16,0,.1,0,.19,0,.12,0,.23.06.13,0,.28.08.13,0,.32.09.13,0,.37.12.11,0,.43.14.08,0,.49.17h0c.94.31,2,.68,3.06,1V0A423.07,423.07,0,0,0,0,8.14l1,2.95H1Z"/><path class="cls-1" d="M69.08,61.88l.07,0Z"/><path class="cls-1" d="M69.26,61.87h0Z"/><path class="cls-1" d="M69.5,61.9l.1,0Z"/><path class="cls-1" d="M69.79,62l.12,0Z"/><path class="cls-1" d="M71,62.29l.13,0Z"/><path class="cls-1" d="M71.5,62.45l.11,0Z"/><path class="cls-1" d="M72,62.62l.08,0Z"/><path class="cls-1" d="M72.61,62.81h0Z"/><path class="cls-1" d="M70.55,62.16l.13,0Z"/><path class="cls-1" d="M70.14,62.05l.13,0Z"/><path class="cls-1" d="M73.74,74.73a26.69,26.69,0,0,0-9.28-4.24h0a26.59,26.59,0,0,1,9.27,4.24,9,9,0,0,0,2,1h0A8.72,8.72,0,0,1,73.74,74.73Z"/><path class="cls-1" d="M60.7,67.15a2.38,2.38,0,0,1,.84-1.48h0a2.38,2.38,0,0,0-.84,1.48c-.19,2.53.57,2.68,2.69,3.11h0C61.27,69.83,60.51,69.68,60.7,67.15Z"/><path class="cls-2" d="M70.33,64.19A14.32,14.32,0,0,1,75.7,66V63.87c-1.07-.37-2.12-.74-3.06-1h0l-.49-.17-.08,0-.43-.14-.11,0-.37-.12-.13,0-.32-.09-.13,0-.28-.08-.13,0L69.91,62l-.12,0-.19,0-.1,0-.16,0h-.19l-.07,0h0a51.69,51.69,0,0,0-5.68,2.51A22.13,22.13,0,0,1,70.33,64.19Z"/><path class="cls-2" d="M69.57,69.63c1.94.71,3.44,2.23,5.38,2.89.25.08.5.14.75.2V67A13.91,13.91,0,0,0,69.34,65a21.21,21.21,0,0,0-7.56.7.49.49,0,0,1-.24,0,2.38,2.38,0,0,0-.84,1.48c-.19,2.53.57,2.68,2.69,3.11a.37.37,0,0,1,.13-.22C65.18,68.73,67.71,69,69.57,69.63Z"/><path class="cls-2" d="M75.64,73.62c-1.94-.41-3.31-1.67-5-2.56s-4.54-1.53-6.16-.57a26.69,26.69,0,0,1,9.28,4.24,8.72,8.72,0,0,0,2,1V73.63Z"/><path class="cls-3" d="M62.18,65.13a7.25,7.25,0,0,0-.64.54h0A7.25,7.25,0,0,1,62.18,65.13Z"/><path class="cls-3" d="M61.54,65.67a.49.49,0,0,0,.24,0,21.21,21.21,0,0,1,7.56-.7A13.91,13.91,0,0,1,75.7,67V66a14.32,14.32,0,0,0-5.37-1.82,22.13,22.13,0,0,0-7,.2,12.47,12.47,0,0,0-1.17.74A7.25,7.25,0,0,0,61.54,65.67Z"/><path class="cls-3" d="M63.39,70.26h0l1.07.23h0Z"/><path class="cls-3" d="M70.62,71.06c1.71.89,3.08,2.15,5,2.56h.06v-.91c-.25-.06-.5-.12-.75-.2-1.94-.66-3.44-2.18-5.38-2.89s-4.39-.9-6,.41a.37.37,0,0,0-.13.22l1.07.23C66.08,69.53,68.89,70.16,70.62,71.06Z"/><path class="cls-4" d="M71.21,93a8,8,0,0,0-4.85-.61c-4,.83-4.86,4.07-5.44,7.08a88.45,88.45,0,0,0-1.4,10.62c-.15,2.07-.09,4.52,2.41,5.27a5.27,5.27,0,0,0,2.84,0l10.93-3V96.34A14.52,14.52,0,0,0,71.21,93Z"/></g></svg>