<svg xmlns="http://www.w3.org/2000/svg" viewBox="0 0 239.56 227.02"><defs><style>.cls-1{fill:#f3a95a;}.cls-2{fill:#e9dc82;}.cls-3{fill:#010101;}.cls-4{fill:#89be86;}.cls-5{fill:#fabc15;}.cls-6{fill:#d1dc87;}.cls-7{fill:#f3d263;}.cls-8{fill:#fbcf66;}.cls-9{fill:#f5d068;}</style></defs><title>p4me</title><g id="รวม"><path class="cls-1" d="M239.38.49l-.14-.44h-93.5a14.34,14.34,0,0,0-4.59,2.61,17.51,17.51,0,0,0-2,1.88l-.91,1c-.29.35-.57.71-.84,1.07-1.1,1.46-2.07,3-3,4.55A34,34,0,0,0,132,15.67c.62,3.64,1.12,7.31,1.45,11-.82,3.33-1.61,5.52-2.16,8.24.55-2.72,1.34-4.91,2.16-8.24.67-2.77,1.43-5.55,2.21-8.4,1.08-3.94,2.06-8.39,3.8-12a128.49,128.49,0,0,1-1.63,19.85c0,.2-.07.39-.11.59.52-1.51,1.07-3,1.66-4.5s1.32-3.16,2.1-4.68c.22-.43.48-.84.72-1.26h-.08v-.05h0a1.28,1.28,0,0,1-.54-.4.73.73,0,0,1-.07-.83.5.5,0,0,1,.76-.08c.28.36-.16.86-.15,1.31l.09,0a29.09,29.09,0,0,1,2-3,19.28,19.28,0,0,1,3.58-3.64,21.88,21.88,0,0,0-3.5,3.7,30.35,30.35,0,0,0-2.68,4.34c-.79,1.51-1.49,3.07-2.13,4.64s-1.19,3-1.77,4.52c0,.16-.06.34-.1.49v0a28.31,28.31,0,0,0-1.09,3.61v.05c-.87,2.36-1.95,4.56-2.87,7.69-1.67,5.63-2.41,7.05-2.09,12.54a33.35,33.35,0,0,1,1.92-5.66c.32-.77.65-1.51.95-2.22.15-.34.29-.68.43-1a55.24,55.24,0,0,0,4.55-15.26c.45,4.56-1.06,8-1.93,12.47-1.26,6.6-3.84,12.25-5.84,18.73a15.42,15.42,0,0,0-.1-2.88,15.42,15.42,0,0,1,.1,2.88h-.5a.56.56,0,0,1-.56-.52c0-.66-.12-1.73-.12-1.79a2.93,2.93,0,0,0,0-.66h0c-1.14-8.59-4.1-13.39-5-22.17-.37-3.71-1.37-9.61,0-13.1-.07.17.13.69.16.88.07.35.13.7.2,1,.13.67.25,1.34.38,2,.25,1.36.5,2.72.74,4.08.51,2.82.81,3.26,1.25,6.1q.3,1.91.57,3.81h0c.16,1.1.31,2.19.45,3.28.32,2.42.8,4.8,1.28,7.21v0c0,.14,0,.28.08.42,0-.14,0-.28-.08-.42v0c0-1.37,0-2.75,0-4.16,0-.29,0-.58,0-.87,0,.29,0,.58,0,.87-.58-6.47-.6-13.46-.52-20.44-.13,1-.25,2-.36,2.95q-.6,5.45-.82,10.91c.09-3.65.32-7.29.72-10.92.14-1.28.29-2.55.47-3.81.08-5.79.21-11.56.15-17,.68,3.15,1.31,6.34,1.86,9.56a38,38,0,0,1,2.36-4.29c1-1.54,2-3.08,3.07-4.54.27-.36.56-.72.85-1.07l.91-1a17.7,17.7,0,0,1,2-1.88A14.23,14.23,0,0,1,145.74.05H.23C-3.08,73.49,29,161.12,164.05,227l.11-.33-.46-.14Zm-96,13.8c-.34,0-.56-.38-.65-.71a.89.89,0,0,1,0-.68c.12-.2.45-.27.58-.08a.47.47,0,0,1,.06.31,3.3,3.3,0,0,1-.22,1.08Zm1.22-1.78a1.3,1.3,0,0,1-.86-.75c-.11-.37.22-.86.6-.76S144.63,12.08,144.55,12.51Zm22.75.58a2.41,2.41,0,0,1-2.15-.23.23.23,0,0,1,.06-.21.51.51,0,0,1,.33-.15,3.53,3.53,0,0,1,1-.12,1.11,1.11,0,0,1,.85.43.24.24,0,0,1,0,.16A.21.21,0,0,1,167.3,13.09ZM165.22,13l-.07-.1h0A.13.13,0,0,0,165.22,13Zm26.15,8.53a1,1,0,0,1-1,.2,2.77,2.77,0,0,1-.88-.5,6.23,6.23,0,0,1,1.11-.59.88.88,0,0,1,.64,0A.59.59,0,0,1,191.37,21.49Zm0-1.71v-.14a.36.36,0,0,0,.07.1Zm1.08.7a1.52,1.52,0,0,1-1-.74,4.09,4.09,0,0,1,1.49-.45.64.64,0,0,1,.41.07.45.45,0,0,1,.15.43A.91.91,0,0,1,192.47,20.48Zm2.88-1.2a1.83,1.83,0,0,1-.9,0c-.29-.11-.76-.4-.7-.69a1.67,1.67,0,0,1,1.85.15.41.41,0,0,1,.16.29C195.74,19.2,195.53,19.26,195.35,19.28Zm.72-1,.08-.15a.22.22,0,0,1,0,.08Zm1.38,1a1.18,1.18,0,0,1-.63-.29,1.47,1.47,0,0,1-.66-.78c.44-.29,1.52-.35,1.78,0A.69.69,0,0,1,197.45,19.3Zm2.74-.42a.68.68,0,0,1-1-.1,1.65,1.65,0,0,1-.26-1.14,1.71,1.71,0,0,1,1,.21A.72.72,0,0,1,200.19,18.88Zm-1.41-1.24.18-.08s0,.05,0,.08ZM202.05,16a.72.72,0,0,1,.32-.08.56.56,0,0,1,.47.69.94.94,0,0,1-.64.64,6.27,6.27,0,0,1-1.41.09A2.28,2.28,0,0,1,202.05,16Zm-1.26,1.34,0,0-.08,0Zm-4.67.24a17,17,0,0,0-4.32,1.17,11.75,11.75,0,0,0-3.69,2.5,17.14,17.14,0,0,0-2.73,3.54,31.28,31.28,0,0,0-2,4c-.58,1.38-1.14,2.77-1.6,4.2a34.16,34.16,0,0,0-1.09,4.35,26.79,26.79,0,0,0-.47,4.47A29.63,29.63,0,0,1,181.68,33c.45-1.44,1-2.84,1.57-4.23a32.14,32.14,0,0,1,2-4A17.37,17.37,0,0,1,188,21.17a12,12,0,0,1,3.74-2.5,14.28,14.28,0,0,1,2.4-.77l-.1-.22a.14.14,0,0,0,.09,0c0-.3-.06-.6-.08-.91a1.55,1.55,0,0,1,.12-1c.19-.29.66-.39.85-.11a.66.66,0,0,1,.09.31A2,2,0,0,1,195,17.1a1,1,0,0,1-.83.57l0,.22c.64-.15,1.29-.27,1.94-.36,1.49-.21,3-.29,4.48-.36C199.1,17.27,197.6,17.37,196.12,17.6Zm-2-4.07a.44.44,0,0,1-.07.61,1.09,1.09,0,0,1-.64.21,1.46,1.46,0,0,1-.72-.06c-.23-.1-.42-.72-.4-1l1.4.08A.69.69,0,0,1,194.1,13.53Zm0-.78a2.37,2.37,0,0,1,1.16-.53c.43,0,.9.3.86.73s-.57.67-1,.57A2.29,2.29,0,0,1,194.05,12.75ZM192.7,18a1.37,1.37,0,0,1-.26-1.66.6.6,0,0,1,.5-.35c.33,0,.49.42.44.75S192.78,17.68,192.7,18Zm.08.07h-.09a.15.15,0,0,1,0-.07Zm-.5-2.85a.37.37,0,0,1-.18,0,2.38,2.38,0,0,1-1.74-.56,11.39,11.39,0,0,1,1.31-.13.89.89,0,0,1,.58.13A.32.32,0,0,1,192.28,15.25Zm-1.89,1.33a.71.71,0,0,1,.16-.28.42.42,0,0,1,.58.16,1.26,1.26,0,0,1,.13.66,3.65,3.65,0,0,1-.22,1.39.67.67,0,0,0,.19,0H191a.33.33,0,0,0,0-.06,1.2,1.2,0,0,1-.69-.72A2,2,0,0,1,190.39,16.58Zm-.07-1.84,0-.08.09.07Zm6.18,2.41-.13-.07.07,0a1.74,1.74,0,0,1-.11-1.76.61.61,0,0,1,.31-.32.52.52,0,0,1,.61.4,1.6,1.6,0,0,1-.08.81,1.64,1.64,0,0,1-.73.87Zm.41-4.87a1.73,1.73,0,0,1-.8-.69c.58-.21,1.4-.47,1.83,0a.4.4,0,0,1,.11.2.39.39,0,0,1-.13.33A1,1,0,0,1,196.91,12.28Zm1.43,4.8.12-.07a.25.25,0,0,0,0,.07Zm1.56-1.46a.51.51,0,0,1-.14.34,5.86,5.86,0,0,1-1.3,1.05c-.23-.45.12-1,.5-1.38a.93.93,0,0,1,.5-.3A.36.36,0,0,1,199.9,15.62ZM178.47,22.1a33.25,33.25,0,0,1,4.08-8.75,20.9,20.9,0,0,1,3.16-3.67,15.54,15.54,0,0,1,4-2.69,16,16,0,0,1,4.65-1.32,21,21,0,0,1,4.82.1,20.92,20.92,0,0,0-4.81,0,15.82,15.82,0,0,0-4.62,1.34,15.25,15.25,0,0,0-4,2.68,21.35,21.35,0,0,0-3.12,3.66,33.34,33.34,0,0,0-4.11,8.7,47.91,47.91,0,0,0-1.23,4.67,45.61,45.61,0,0,0-.79,4.77A46.39,46.39,0,0,1,178.47,22.1Zm13.28-9.49a1.81,1.81,0,0,1-.4-1.53.82.82,0,0,1,.32-.55.41.41,0,0,1,.57.1.59.59,0,0,1,0,.35A4.12,4.12,0,0,1,191.75,12.61Zm0,0,0,0,0-.05Zm-1.59.41a5.91,5.91,0,0,1-.3,1.15,2.35,2.35,0,0,1-.66-1.45c0-.29.05-.64.32-.73a.5.5,0,0,1,.59.31A1.35,1.35,0,0,1,190.18,13.05ZM188.3,15.6a1.56,1.56,0,0,1-.94-.75,1.11,1.11,0,0,1,.1-1,.59.59,0,0,1,.91,0,1,1,0,0,1,.1.33A3.19,3.19,0,0,1,188.3,15.6Zm-11.75,16h0c.06,0,.06,0,.07.05l-.05,0c.32,1.18.63,2.36.93,3.55q.76,3,1.44,6c.55,2.39,1.06,4.78,1.54,7.19h0c-.48-2.41-1-4.8-1.54-7.19q-.67-3-1.44-6a31,31,0,0,1,4.39-14.57,89.29,89.29,0,0,0-2,10.18,60.35,60.35,0,0,1,2.68-6.18,39.09,39.09,0,0,1,3.76-6.07,26.84,26.84,0,0,1,5.09-5,19.54,19.54,0,0,1,6.35-3.18,20.4,20.4,0,0,0-6.29,3.27,26.23,26.23,0,0,0-5,5,37.67,37.67,0,0,0-3.8,6c-1,2-1.93,4.08-2.77,6.18a35.52,35.52,0,0,0,.29,11h0a32.3,32.3,0,0,1,.35,6.1c1.66-8.13,4.36-16.59,7.3-20.25a113.35,113.35,0,0,0-5.43,24.05c1.51-4.57,3.44-9.45,3.88-10.41-.71,1.55-2.12,13.86-4.07,17.77h0c-.15.9-.66,1.39-1.3,1.17h0s0,0,0,0a2.34,2.34,0,0,1-1-.92,6.19,6.19,0,0,1-.77-2.36l0-.21L172.66,18.6C173.28,22.24,175,26,176,29.54,176.18,30.21,176.36,30.89,176.55,31.57Zm-24.47-10a33.21,33.21,0,0,1,2.17-9.27,17.75,17.75,0,0,1,5.65-7.57l1-.68c.34-.21.69-.39,1-.59a13.58,13.58,0,0,1,2.19-.93,18.76,18.76,0,0,1,4.68-.87,18.83,18.83,0,0,0-4.65.94,14.05,14.05,0,0,0-2.18.94c-.34.2-.7.38-1,.59l-1,.68a17.66,17.66,0,0,0-5.57,7.55,32.86,32.86,0,0,0-2.21,9.22,47.08,47.08,0,0,0-.25,4.75,42,42,0,0,0,.2,4.76A45.22,45.22,0,0,1,152.08,21.57Zm-6.18-9c.07,0,.14,0,.18.06s0,.11,0,.17a1.38,1.38,0,0,1-1.71.74C144.76,13.2,145.39,12.58,145.9,12.54Zm-2.25,80.59c-.23-.45.12-1,.5-1.38a1,1,0,0,1,.51-.3.37.37,0,0,1,.44.29.53.53,0,0,1-.15.34A5.64,5.64,0,0,1,143.65,93.13Zm0,.07h-.16l.12-.07Zm.59-78.8a.4.4,0,0,1,.51.3c0,.23-.23.39-.44.49a1.59,1.59,0,0,1-.6.17.5.5,0,0,1-.49-.32A3.64,3.64,0,0,1,144.28,14.4ZM143,16.06a.53.53,0,0,1,.24-.11.35.35,0,0,1,.32.36.73.73,0,0,1-.23.47,1.8,1.8,0,0,1-1.25.57A4.74,4.74,0,0,1,143,16.06ZM123.67,98.22a32.94,32.94,0,0,1,4.08-8.75,20.85,20.85,0,0,1,3.15-3.67,15.6,15.6,0,0,1,4-2.69,15.91,15.91,0,0,1,4.64-1.32,21.09,21.09,0,0,1,4.83.1,21,21,0,0,0-4.82,0A15.67,15.67,0,0,0,135,83.21a15.3,15.3,0,0,0-4,2.68,21.41,21.41,0,0,0-3.12,3.66,33.32,33.32,0,0,0-4.1,8.7,46.5,46.5,0,0,0-1.24,4.67,45.17,45.17,0,0,0-.79,4.77A46.41,46.41,0,0,1,123.67,98.22Zm18-5-.12-.07s0,0,.06,0a1.78,1.78,0,0,1-.11-1.77.62.62,0,0,1,.31-.31.53.53,0,0,1,.62.4,1.5,1.5,0,0,1-.09.81,1.6,1.6,0,0,1-.73.87A.53.53,0,0,1,141.69,93.27Zm.41-4.87a1.78,1.78,0,0,1-.8-.69c.59-.21,1.41-.47,1.84,0a.49.49,0,0,1,.11.2.4.4,0,0,1-.14.33A1,1,0,0,1,142.1,88.4Zm-5.15.33a1.79,1.79,0,0,1-.4-1.54.81.81,0,0,1,.31-.54.41.41,0,0,1,.57.1.52.52,0,0,1,0,.35A4,4,0,0,1,137,88.73Zm0,0-.05,0,0,0Zm-1.6.41a6.68,6.68,0,0,1-.29,1.15,2.37,2.37,0,0,1-.66-1.45c0-.29,0-.64.31-.73a.51.51,0,0,1,.6.31A1.26,1.26,0,0,1,135.37,89.17Zm-1.87,2.54a1.51,1.51,0,0,1-.95-.74,1.11,1.11,0,0,1,.1-1,.59.59,0,0,1,.91,0,.67.67,0,0,1,.1.33A3.13,3.13,0,0,1,133.5,91.71Zm-36.18,15.5a45.9,45.9,0,0,1,0-9.52,33.57,33.57,0,0,1,2.17-9.27,17.93,17.93,0,0,1,5.65-7.58l1-.67c.34-.21.7-.39,1-.59a13.32,13.32,0,0,1,2.2-.93,18.6,18.6,0,0,1,4.67-.87,18.47,18.47,0,0,0-4.65.94,14.48,14.48,0,0,0-2.18.94c-.34.2-.69.38-1,.59l-1,.68a17.64,17.64,0,0,0-5.56,7.55,33.22,33.22,0,0,0-2.22,9.22c-.16,1.58-.24,3.16-.25,4.75A44.47,44.47,0,0,0,97.32,107.21ZM99,24.53a1,1,0,0,1-1,.21,2.81,2.81,0,0,1-.87-.5,6.6,6.6,0,0,1,1.11-.6.91.91,0,0,1,.63,0A.59.59,0,0,1,99,24.53Zm0-1.7,0-.14s0,.06.06.1Zm.08,0a4,4,0,0,1,1.5-.45.6.6,0,0,1,.4.06.49.49,0,0,1,.16.43.92.92,0,0,1-1.06.7A1.56,1.56,0,0,1,99.11,22.79Zm2.28-1.17a1.67,1.67,0,0,1,1.85.16.37.37,0,0,1,.16.29c0,.17-.23.23-.4.26a2,2,0,0,1-.91,0C101.8,22.21,101.33,21.92,101.39,21.62Zm2.32-.27.08-.16s0,.06,0,.08A.39.39,0,0,0,103.71,21.35Zm.1-.08c.43-.29,1.51-.35,1.77,0a.68.68,0,0,1-.49,1.06,1.16,1.16,0,0,1-.63-.28A1.43,1.43,0,0,1,103.81,21.27Zm2.78-.59h-.16l.17-.07S106.59,20.66,106.59,20.68Zm1,.21a.72.72,0,0,1,.24,1,.68.68,0,0,1-1-.09,1.69,1.69,0,0,1-.27-1.15A1.71,1.71,0,0,1,107.59,20.89Zm2.1-1.83A.72.72,0,0,1,110,19a.57.57,0,0,1,.46.69.89.89,0,0,1-.64.63,6.27,6.27,0,0,1-1.41.09A2.34,2.34,0,0,1,109.69,19.06Zm-1.26,1.34s0,0,0,0l-.09,0Zm-4.67.24a17,17,0,0,0-4.32,1.17,11.87,11.87,0,0,0-3.69,2.5A17,17,0,0,0,93,27.85a31.34,31.34,0,0,0-2,4c-.58,1.38-1.13,2.78-1.59,4.2a34.34,34.34,0,0,0-1.1,4.36,26.68,26.68,0,0,0-.47,4.46A29.63,29.63,0,0,1,89.32,36c.45-1.43,1-2.83,1.57-4.22a31.6,31.6,0,0,1,2-4,17,17,0,0,1,2.77-3.55,12.09,12.09,0,0,1,3.74-2.5,14.31,14.31,0,0,1,2.4-.78l-.1-.21h.09c0-.31-.05-.61-.08-.91a1.52,1.52,0,0,1,.13-1c.18-.28.65-.39.84-.11a.73.73,0,0,1,.09.32,1.87,1.87,0,0,1-.15,1.12,1,1,0,0,1-.83.57l0,.22a18.42,18.42,0,0,1,1.94-.37c1.49-.2,3-.28,4.49-.35C106.74,20.31,105.24,20.42,103.76,20.64Zm-2-4.06a.43.43,0,0,1-.07.61,1.16,1.16,0,0,1-.64.21,1.46,1.46,0,0,1-.72-.07c-.23-.09-.42-.72-.4-1l1.4.08A.58.58,0,0,1,101.74,16.58Zm0-.78a2.28,2.28,0,0,1,1.16-.53c.43,0,.9.3.86.72s-.57.67-1,.57A2.34,2.34,0,0,1,101.69,15.8Zm-1.35,5.27a1.4,1.4,0,0,1-.26-1.66.6.6,0,0,1,.5-.35c.33,0,.49.42.45.75S100.42,20.72,100.34,21.07Zm.08.07h-.09a.17.17,0,0,1,0-.07A.27.27,0,0,0,100.42,21.14Zm-.5-2.85a.53.53,0,0,1-.18.05A2.45,2.45,0,0,1,98,17.78a9.69,9.69,0,0,1,1.31-.13.9.9,0,0,1,.59.12C100.06,17.9,100.1,18.19,99.92,18.29ZM98,19.62a.67.67,0,0,1,.16-.27.42.42,0,0,1,.58.16,1.23,1.23,0,0,1,.13.66,3.64,3.64,0,0,1-.21,1.39.58.58,0,0,0,.19,0l-.23,0a.21.21,0,0,1,0-.06,1.14,1.14,0,0,1-.69-.73A1.93,1.93,0,0,1,98,19.62ZM98,17.79l0-.09a.3.3,0,0,0,.08.08Zm6.18,2.41-.13-.07.07,0a1.74,1.74,0,0,1-.11-1.76.62.62,0,0,1,.31-.31.51.51,0,0,1,.61.4,1.42,1.42,0,0,1-.08.81,1.66,1.66,0,0,1-.73.86S104.12,20.17,104.14,20.2Zm.41-4.88a1.72,1.72,0,0,1-.8-.69c.59-.21,1.4-.47,1.83,0a.39.39,0,0,1,.12.19.42.42,0,0,1-.14.34A1,1,0,0,1,104.55,15.32ZM106,20.13l.12-.08,0,.08Zm1.57-1.47a.55.55,0,0,1-.15.35,5.83,5.83,0,0,1-1.3,1c-.23-.45.12-1,.5-1.38a1,1,0,0,1,.5-.3A.38.38,0,0,1,107.55,18.66ZM86.12,25.15a33.28,33.28,0,0,1,4.07-8.76,21.71,21.71,0,0,1,3.16-3.67,15.58,15.58,0,0,1,8.67-4,21.09,21.09,0,0,1,4.83.09,21,21,0,0,0-4.82,0,15.67,15.67,0,0,0-4.61,1.34,15.17,15.17,0,0,0-4,2.69,21,21,0,0,0-3.12,3.66,33,33,0,0,0-4.11,8.7A46.45,46.45,0,0,0,85,29.85a45,45,0,0,0-.79,4.76A45.66,45.66,0,0,1,86.12,25.15ZM99.4,15.66A1.8,1.8,0,0,1,99,14.12a.84.84,0,0,1,.32-.54.41.41,0,0,1,.57.09.6.6,0,0,1,0,.35A4.37,4.37,0,0,1,99.4,15.66Zm0,0,0,0,0-.05Zm-1.6.41a6.25,6.25,0,0,1-.29,1.15,2.33,2.33,0,0,1-.67-1.45c0-.29,0-.64.32-.73a.52.52,0,0,1,.59.31A1.26,1.26,0,0,1,97.82,16.09Zm-1.88,2.55a1.5,1.5,0,0,1-.94-.75,1.11,1.11,0,0,1,.1-1,.6.6,0,0,1,.91,0,.79.79,0,0,1,.1.34A3.15,3.15,0,0,1,95.94,18.64Zm-11.75,16h0c.06,0,.07,0,.07,0s0,0-.05,0c.32,1.18.63,2.37.94,3.56.21.85.41,1.7.61,2.56-.2-.86-.4-1.71-.61-2.56a30.93,30.93,0,0,1,4.39-14.57,87,87,0,0,0-2,10.17,62.47,62.47,0,0,1,2.68-6.17A38,38,0,0,1,94,21.61a26.21,26.21,0,0,1,5.08-5,19.37,19.37,0,0,1,6.35-3.19,20.85,20.85,0,0,0-6.29,3.27,26.52,26.52,0,0,0-5,5,38.39,38.39,0,0,0-3.8,6c-1,2-1.93,4.09-2.77,6.18a35.52,35.52,0,0,0,.29,11h0A31.48,31.48,0,0,1,88.2,51c1.66-8.14,4.36-16.59,7.3-20.25a113.12,113.12,0,0,0-5.43,24c1.51-4.57,3.44-9.45,3.88-10.4-.71,1.54-2.12,13.86-4.07,17.76h0c-.15.9-.66,1.4-1.3,1.17h0l0,0a2.24,2.24,0,0,1-1-.91A6.43,6.43,0,0,1,86.79,60c.28-2.64.73-5.6,1.33-8.62h0c-.6,3-1.05,6-1.33,8.62l0-.22Q83.52,40.74,80.3,21.65c.62,3.64,2.33,7.36,3.33,10.93C83.82,33.26,84,33.94,84.19,34.61Zm-24.47-10a33.14,33.14,0,0,1,2.17-9.26,17.72,17.72,0,0,1,5.65-7.58l1-.67c.34-.21.69-.39,1-.59a14.59,14.59,0,0,1,2.19-.94,18.75,18.75,0,0,1,4.68-.86,18.45,18.45,0,0,0-4.65.93,13.2,13.2,0,0,0-2.18,1c-.34.2-.69.38-1,.59l-1,.67A17.72,17.72,0,0,0,62,15.4a32.86,32.86,0,0,0-2.21,9.22c-.16,1.58-.24,3.17-.25,4.76a44.39,44.39,0,0,0,.2,4.75A45.21,45.21,0,0,1,59.72,24.61ZM51,19.82a1.81,1.81,0,0,1-1.25.58,4.64,4.64,0,0,1,.92-1.3.43.43,0,0,1,.24-.1.34.34,0,0,1,.32.35A.73.73,0,0,1,51,19.82Zm1-1.59a1.29,1.29,0,0,1-.6.17.48.48,0,0,1-.48-.32,3.93,3.93,0,0,1,1-.64.41.41,0,0,1,.51.3C52.45,18,52.2,18.13,52,18.23Zm1.73-2.41a1.4,1.4,0,0,1-1.72.74c.41-.32,1-.93,1.54-1,.07,0,.14,0,.18.05A.19.19,0,0,1,53.72,15.82Zm-1.82.42a30.7,30.7,0,0,0-2.68,4.34c-.79,1.51-1.48,3.06-2.13,4.64s-1.19,3-1.77,4.52c0,.16-.06.33-.1.49h0a27.18,27.18,0,0,0-1.08,3.61v0c-.88,2.36-2,4.56-2.88,7.69-1.67,5.63-2.41,7.06-2.09,12.55a33.93,33.93,0,0,1,1.92-5.66c.33-.78.65-1.51,1-2.23.14-.34.29-.67.43-1A55.4,55.4,0,0,0,47,30c.45,4.55-1.06,8-1.92,12.46-1.26,6.6-3.85,12.26-5.84,18.73a30.94,30.94,0,0,0-.42-5.42c0-.11.05-.21.07-.32,0,.11,0,.21-.07.32,0-.18,0-.37-.07-.56v0c0,.19.05.38.07.56a30.94,30.94,0,0,1,.42,5.42h-.51a.55.55,0,0,1-.56-.51c0-.67-.12-1.74-.12-1.79a3,3,0,0,0,0-.67h0c-1.14-8.59-4.1-13.4-5-22.17-.37-3.71-1.36-9.62,0-13.1-.07.17.13.69.17.88.06.35.13.69.19,1,.13.67.25,1.34.38,2,.25,1.36.5,2.72.74,4.08.51,2.82.81,3.26,1.25,6.09.2,1.27.39,2.54.58,3.82h0c.15,1.09.3,2.18.44,3.27.32,2.43.81,4.81,1.28,7.21v0c0,.14,0,.28.08.42,0-.14,0-.28-.08-.42v0c0-1.37-.05-2.74,0-4.16,0-.42,0-.86,0-1.29,0,.43,0,.87,0,1.29-.58-6.46-.6-13.46-.52-20.44-.13,1-.25,2-.36,3q-.6,5.44-.81,10.92c.08-3.65.32-7.3.71-10.93q.21-1.91.48-3.81c.07-5.79.21-11.55.14-17,.68,3.16,1.32,6.35,1.87,9.56a36.25,36.25,0,0,1,2.35-4.28c1-1.55,2-3.09,3.07-4.54.27-.37.56-.72.85-1.08l.91-1a17.79,17.79,0,0,1,2-1.89A14.41,14.41,0,0,1,53.53,3,14.14,14.14,0,0,0,48.79,5.7a16.75,16.75,0,0,0-2,1.89l-.91,1c-.28.36-.57.71-.84,1.08-1.1,1.46-2.07,3-3,4.55a34.41,34.41,0,0,0-2.42,4.47c.62,3.64,1.13,7.31,1.45,11-.74,3-1.46,5.11-2,7.5.54-2.39,1.26-4.48,2-7.5.68-2.77,1.43-5.55,2.22-8.4,1.08-3.94,2-8.39,3.79-12a129.7,129.7,0,0,1-1.62,19.84c0,.21-.08.4-.12.59.53-1.51,1.07-3,1.67-4.5s1.31-3.15,2.09-4.67c.22-.43.48-.85.72-1.27h-.07a.06.06,0,0,1,0,0h0a1.28,1.28,0,0,1-.54-.4.74.74,0,0,1-.07-.84.5.5,0,0,1,.76-.07c.29.35-.16.85-.15,1.31l.09,0a28,28,0,0,1,2-3,19.28,19.28,0,0,1,3.58-3.64A21.53,21.53,0,0,0,51.9,16.24Zm.29-.68a1.3,1.3,0,0,1-.85-.75c-.12-.38.21-.87.59-.77S52.27,15.13,52.19,15.56ZM51,17.33c-.34,0-.56-.38-.65-.71a.89.89,0,0,1,0-.68.38.38,0,0,1,.59-.08.56.56,0,0,1,.06.31,3.72,3.72,0,0,1-.23,1.09ZM61.71,61.9c0-.12,0-.26,0-.39,0,.13,0,.27,0,.39h0c0,.28-.06.55-.08.8l-.23-.06a1,1,0,0,1-.29-.11,1.37,1.37,0,0,1-.32-.16c-1.5-6.54-5.36-24.45-4.83-33.14l2.39,12.4s3.16,17.7,3.47,19.2a.25.25,0,0,1,0-.08c-1.45-8.61-4.33-34.06-4.22-37.06,0,0,1.06,5,2.17,10.67a0,0,0,0,1,0,0v0c.33,1.67.66,3.38,1,5,.1-3.82.66-18.27,3.4-23.28,0,0-.16,6.5-.4,19.87h0q-.06,3.36-.12,7.31c-.43,2.49-.83,4.89-1.09,6.61.26-1.72.66-4.12,1.09-6.61,1.33-7.8,3.16-17.88,3.19-18.75C68.53,42.8,61.86,61.48,61.71,61.9ZM66.8,24.54s0,0,0,.06S66.81,24.54,66.8,24.54Zm-1.44,3.67A52.19,52.19,0,0,0,63.74,36c.15-1.32.34-2.64.59-4s.56-2.6.94-3.88a31.82,31.82,0,0,1,3.1-7.37,20.77,20.77,0,0,1,3.69-4.66.83.83,0,0,1-.66-.71,2.31,2.31,0,0,1,.11-1,1.56,1.56,0,0,1,.43,1.71l.12,0a19.89,19.89,0,0,1,1.56-1.33,15.92,15.92,0,0,1,3.44-2,15.66,15.66,0,0,1,1.88-.69c.63-.2,1.29-.33,1.94-.48a17.58,17.58,0,0,0-7.2,3.29,20.09,20.09,0,0,0-2.1,1.92,1.57,1.57,0,0,1,1.27-.18.56.56,0,0,1,.39.27c.13.28-.2.6-.51.59A3.76,3.76,0,0,1,71.38,17,20.85,20.85,0,0,0,68.5,20.9,32.39,32.39,0,0,0,65.36,28.21Zm7.44-12.3a.23.23,0,0,1,0-.22.63.63,0,0,1,.33-.15,3.22,3.22,0,0,1,1-.11,1.12,1.12,0,0,1,.85.42.17.17,0,0,1,0,.16.21.21,0,0,1-.11.12A2.36,2.36,0,0,1,72.8,15.91Zm.07.1-.08-.1h0A.12.12,0,0,0,72.87,16ZM88.53,92.9a1.8,1.8,0,0,1-1.24.57,4.35,4.35,0,0,1,.92-1.29.49.49,0,0,1,.23-.11.35.35,0,0,1,.32.36A.68.68,0,0,1,88.53,92.9Zm1-1.59a1.59,1.59,0,0,1-.6.17.48.48,0,0,1-.48-.32,3.46,3.46,0,0,1,1-.64c.22-.06.5.07.51.29S89.75,91.21,89.54,91.31Zm1.73-2.42a1.38,1.38,0,0,1-1.72.74c.41-.31,1-.93,1.55-1,.06,0,.14,0,.17.06S91.29,88.83,91.27,88.89Zm-1.82.42a30.28,30.28,0,0,0-2.67,4.34c-.8,1.51-1.49,3.07-2.14,4.64s-1.19,3-1.77,4.52l-.09.49v0a26.74,26.74,0,0,0-1.08,3.61v0c-.88,2.36-2,4.56-2.88,7.69-1.67,5.63-2.4,7-2.09,12.54a33.93,33.93,0,0,1,1.92-5.66l1-2.22c.15-.34.29-.68.43-1a55.57,55.57,0,0,0,4.54-15.26c.45,4.56-1.06,8-1.92,12.46-1.26,6.61-3.85,12.26-5.84,18.74a29.93,29.93,0,0,0-.42-5.42c0-.11.05-.21.07-.32,0,.11,0,.21-.07.32,0-.19,0-.38-.06-.57v0c0,.19.05.38.06.57a29.93,29.93,0,0,1,.42,5.42h-.51a.57.57,0,0,1-.56-.52c0-.66-.12-1.73-.12-1.79a3.61,3.61,0,0,0,0-.66h0c-1.14-8.59-4.11-13.39-5-22.17-.37-3.71-1.36-9.61,0-13.1-.07.17.13.69.17.88.06.35.13.7.19,1.05.13.67.26,1.34.38,2L72.1,104c.5,2.82.8,3.26,1.25,6.1.19,1.27.39,2.54.57,3.81h0l.45,3.28c.32,2.42.8,4.8,1.27,7.21v0a1.06,1.06,0,0,0,0,.19,1.06,1.06,0,0,1,0-.19v0c0-1.37,0-2.75,0-4.16l0-.87,0,.87a204.31,204.31,0,0,1-.51-20.44c-.13,1-.25,2-.37,3-.4,3.62-.67,7.27-.81,10.91q.12-5.48.71-10.92c.14-1.28.3-2.55.48-3.82.08-5.79.21-11.55.14-17,.68,3.15,1.32,6.34,1.87,9.55a35.68,35.68,0,0,1,2.36-4.28c1-1.54,2-3.08,3.06-4.54.28-.36.56-.72.85-1.07l.91-1a18.6,18.6,0,0,1,2-1.88,14.15,14.15,0,0,1,4.79-2.6,14.23,14.23,0,0,0-4.74,2.66,17.51,17.51,0,0,0-2,1.88l-.9,1c-.29.35-.58.71-.85,1.07-1.09,1.46-2.07,3-3,4.55a36.5,36.5,0,0,0-2.42,4.48c.62,3.64,1.13,7.31,1.45,11-1.19,4.84-2.31,7.27-2.75,12.43,0,.23,0,.44,0,.66,0-.22,0-.43,0-.66.44-5.16,1.56-7.59,2.75-12.43.68-2.77,1.44-5.55,2.22-8.4,1.08-3.94,2-8.39,3.79-12.05A128.48,128.48,0,0,1,83,102.17l-.12.59c.53-1.52,1.07-3,1.67-4.5s1.31-3.16,2.09-4.68c.23-.43.48-.84.72-1.26l-.07,0v0h0a1.37,1.37,0,0,1-.55-.4.75.75,0,0,1-.07-.83.5.5,0,0,1,.76-.08c.29.36-.15.85-.14,1.31l.09,0a29,29,0,0,1,2-3A19.34,19.34,0,0,1,93,85.61,22.34,22.34,0,0,0,89.45,89.31Zm.3-.68a1.27,1.27,0,0,1-.86-.75c-.12-.37.21-.86.59-.76S89.83,88.2,89.75,88.63Zm-1.22,1.78c-.35,0-.57-.38-.66-.72a.86.86,0,0,1,0-.67c.12-.2.45-.27.58-.08a.54.54,0,0,1,.06.31,3.66,3.66,0,0,1-.23,1.08ZM99.26,135l0-.31,0,.31h0c0,.28-.06.54-.08.79l-.22-.05a1.33,1.33,0,0,1-.3-.11l-.32-.16C96.84,128.9,93,111,93.51,102.31L95.9,114.7s3.16,17.7,3.47,19.2c0,0,0-.05,0-.08-1.44-8.6-4.33-34.06-4.22-37,0,0,1.06,5,2.18,10.66v0c.33,1.66.66,3.38,1,5,.1-3.82.66-18.27,3.4-23.28,0,0-.16,6.5-.4,19.87v0c0,2.24-.08,4.67-.12,7.3-.14.83-.28,1.65-.41,2.44.13-.79.27-1.61.41-2.44,1.34-7.79,3.16-17.88,3.19-18.75C106.08,115.88,99.42,134.56,99.26,135Zm5.09-37.37s0,0,0,.06S104.36,97.61,104.35,97.61Zm5.93-7a4,4,0,0,1-1.35-.47A20.78,20.78,0,0,0,106.05,94a32.43,32.43,0,0,0-3.13,7.32,50.63,50.63,0,0,0-1.63,7.81c.15-1.32.35-2.64.59-3.95s.56-2.61.94-3.89a32.37,32.37,0,0,1,3.1-7.36,20.54,20.54,0,0,1,3.69-4.66.83.83,0,0,1-.66-.71,2.51,2.51,0,0,1,.12-1,1.57,1.57,0,0,1,.42,1.71l.12,0a18.08,18.08,0,0,1,1.57-1.33,15.66,15.66,0,0,1,3.43-2c.61-.26,1.24-.49,1.88-.69s1.29-.32,1.94-.48a17.5,17.5,0,0,0-7.19,3.3,18.28,18.28,0,0,0-2.11,1.92,1.57,1.57,0,0,1,1.28-.19.58.58,0,0,1,.38.28C110.92,90.28,110.59,90.59,110.28,90.59Zm.06-1.61h0a.13.13,0,0,0,.07.1Zm2.16.23a2.41,2.41,0,0,1-2.15-.23.25.25,0,0,1,.05-.22.55.55,0,0,1,.33-.14,3.58,3.58,0,0,1,1-.12,1.09,1.09,0,0,1,.85.43.16.16,0,0,1,0,.16A.23.23,0,0,1,112.5,89.21Zm19,28.24c-.72,1.55-2.13,13.86-4.08,17.77h0c-.14.9-.66,1.39-1.29,1.17h0l0,0a2.33,2.33,0,0,1-1-.92,6.08,6.08,0,0,1-.77-2.36l0-.21-6.45-38.16c.61,3.64,2.32,7.37,3.32,10.94.19.67.38,1.35.56,2h0c.06,0,.07,0,.08,0l-.06,0c.32,1.18.63,2.36.94,3.55s.55,2.28.82,3.41c-.27-1.13-.53-2.27-.82-3.41a31,31,0,0,1,4.39-14.57,87.12,87.12,0,0,0-2,10.18,62.64,62.64,0,0,1,2.68-6.18,38.4,38.4,0,0,1,3.77-6.07,26.78,26.78,0,0,1,5.08-5A19.77,19.77,0,0,1,143,86.48a20.87,20.87,0,0,0-6.29,3.28,26.52,26.52,0,0,0-5,5,37.18,37.18,0,0,0-3.79,6c-1,2-1.93,4.08-2.78,6.18a35.45,35.45,0,0,0,.3,11h0a33.16,33.16,0,0,1,.35,6.1c0,.12-.05.23-.07.34,0-.11,0-.22.07-.34,1.65-8.13,4.35-16.59,7.29-20.25a112.63,112.63,0,0,0-5.42,24C129.13,123.29,131.07,118.41,131.51,117.45Zm6.38-23.31a1.38,1.38,0,0,1-.26-1.65.6.6,0,0,1,.5-.35c.33,0,.5.42.45.75S138,93.8,137.89,94.14Zm.08.08h-.09a.22.22,0,0,1,0-.08Zm-1.54.46h-.23s0,0,0-.06a1.17,1.17,0,0,1-.69-.72,1.93,1.93,0,0,1,0-1.21.53.53,0,0,1,.16-.28.43.43,0,0,1,.58.16,1.26,1.26,0,0,1,.12.66,3.46,3.46,0,0,1-.21,1.39A.59.59,0,0,0,136.43,94.68Zm-1-3.9.08.07h0Zm.08.07a11.62,11.62,0,0,1,1.31-.13.91.91,0,0,1,.59.13c.16.12.2.41,0,.51a.34.34,0,0,1-.19,0A2.41,2.41,0,0,1,135.55,90.85Zm2.31-.44c-.23-.1-.42-.72-.4-1l1.41.08a.6.6,0,0,1,.42.13.43.43,0,0,1-.06.61,1.14,1.14,0,0,1-.65.21A1.6,1.6,0,0,1,137.86,90.41Zm1.38-1.54a2.28,2.28,0,0,1,1.17-.53c.42,0,.89.3.86.72a.78.78,0,0,1-1,.57A2.17,2.17,0,0,1,139.24,88.87Zm-2.68,8.74a.94.94,0,0,1-.94.2,2.57,2.57,0,0,1-.88-.5,6.23,6.23,0,0,1,1.11-.59.81.81,0,0,1,.63,0A.58.58,0,0,1,136.56,97.61Zm0-1.71v-.14l.06.1Zm1.08.7a1.55,1.55,0,0,1-1-.74,4.14,4.14,0,0,1,1.5-.45.6.6,0,0,1,.4.07.46.46,0,0,1,.16.43A.92.92,0,0,1,137.67,96.6Zm2.88-1.2a2,2,0,0,1-.91,0c-.28-.11-.76-.4-.7-.69a1.67,1.67,0,0,1,1.85.15c.09.08.18.18.16.29S140.72,95.38,140.55,95.4Zm.71-1,.09-.15a.22.22,0,0,0,0,.08Zm1.38,1a1.21,1.21,0,0,1-.63-.29,1.41,1.41,0,0,1-.65-.78c.43-.29,1.51-.35,1.77,0A.69.69,0,0,1,142.64,95.42Zm2.74-.42a.67.67,0,0,1-1-.1,1.67,1.67,0,0,1-.27-1.15H144l.17-.08s0,0,0,.07a1.8,1.8,0,0,1,1,.22A.72.72,0,0,1,145.38,95Zm-4.07-1.28A17.36,17.36,0,0,0,137,94.88a11.91,11.91,0,0,0-3.68,2.51,16.48,16.48,0,0,0-2.73,3.54,31.22,31.22,0,0,0-2,4c-.58,1.38-1.13,2.78-1.59,4.21a34.2,34.2,0,0,0-1.1,4.35,26.78,26.78,0,0,0-.46,4.47,29.37,29.37,0,0,1,1.46-8.86c.45-1.43,1-2.83,1.57-4.22a30.89,30.89,0,0,1,2-4,17,17,0,0,1,2.77-3.56,12,12,0,0,1,3.73-2.5,14.58,14.58,0,0,1,2.4-.77l-.09-.22h.08c0-.3-.05-.6-.08-.91a1.56,1.56,0,0,1,.13-1c.18-.29.66-.39.84-.11a.81.81,0,0,1,.1.31,2,2,0,0,1-.16,1.12,1,1,0,0,1-.83.57l0,.22c.64-.15,1.29-.27,1.94-.37,1.49-.2,3-.28,4.49-.35C144.29,93.39,142.79,93.49,141.31,93.72Zm4.66-.2-.09,0h.1S146,93.5,146,93.52Zm2.07-.77a1,1,0,0,1-.65.64,6.23,6.23,0,0,1-1.41.09,2.28,2.28,0,0,1,1.26-1.34.64.64,0,0,1,.33-.08A.58.58,0,0,1,148,92.75Zm6-33.89c0-.14,0-.3.05-.45,0,.15,0,.31-.05.45h0c0,.28-.06.55-.09.79l-.22,0a1.45,1.45,0,0,1-.29-.11l-.33-.16c-1.49-6.55-5.35-24.45-4.83-33.14l2.4,12.39s3.16,17.7,3.47,19.2c0,0,0-.05,0-.08-1.44-8.6-4.32-34.05-4.21-37.05,0,0,1.06,5,2.17,10.66,0,0,0,0,0,0v0c.32,1.66.65,3.38,1,5,.11-3.82.67-18.26,3.41-23.28,0,0-.16,6.5-.4,19.88h0q-.06,3.36-.12,7.3c-.15.83-.28,1.65-.42,2.44.14-.79.27-1.61.42-2.44,1.33-7.79,3.16-17.88,3.18-18.75C160.89,39.76,154.22,58.44,154.07,58.86Zm5.09-37.37v0Zm-1.44,3.68A50.48,50.48,0,0,0,156.1,33c.14-1.33.34-2.65.58-4s.57-2.61.94-3.89a32.41,32.41,0,0,1,3.11-7.36,20.78,20.78,0,0,1,3.68-4.66.85.85,0,0,1-.66-.71,2.46,2.46,0,0,1,.12-1,1.52,1.52,0,0,1,.42,1.7l.12,0A18.08,18.08,0,0,1,166,11.79a15.73,15.73,0,0,1,3.44-2,17.54,17.54,0,0,1,1.88-.68c.63-.2,1.29-.33,1.94-.49a17.54,17.54,0,0,0-7.2,3.3,19.14,19.14,0,0,0-2.11,1.92,1.57,1.57,0,0,1,1.28-.19.6.6,0,0,1,.39.28c.12.28-.2.59-.51.59a4.08,4.08,0,0,1-1.36-.47,21.19,21.19,0,0,0-2.87,3.85A32.46,32.46,0,0,0,157.72,25.17Z"/><path class="cls-1" d="M180.62,58.6c-.1.82-.05,1.38.19,1.58C180.57,60,180.52,59.42,180.62,58.6Z"/><path class="cls-1" d="M181.9,53.41c-.09.3-.19.6-.27.88-.22.74-.41,1.43-.57,2.08.16-.65.35-1.34.57-2.08C181.71,54,181.81,53.71,181.9,53.41Z"/><path class="cls-1" d="M154.68,48.39c0-1.17-.06-2.28-.16-3.3.1,1,.15,2.13.16,3.3v0c0,.82,0,1.66,0,2.5,0-.84,0-1.68,0-2.5.16-1.23.49-3.3.88-5.67-.39,2.37-.72,4.44-.88,5.67Z"/><path class="cls-1" d="M99.42,119c-.2-1.3-.47-2.85-.77-4.52C99,116.14,99.22,117.69,99.42,119Z"/><path class="cls-1" d="M61.85,45.8c-.19-1.23-.44-2.69-.73-4.26C61.41,43.11,61.66,44.57,61.85,45.8Z"/><path class="cls-1" d="M62.18,48.34c.09,1,.13,2,.14,3.09v0c0,.61,0,1.24,0,1.87,0-.63,0-1.26,0-1.87v0C62.31,50.35,62.27,49.31,62.18,48.34Z"/><path class="cls-1" d="M99.87,124.51c0-1.08-.05-2.11-.13-3.07.08,1,.12,2,.13,3.07h0c0,.68,0,1.37,0,2.06,0-.69,0-1.38,0-2,.16-1.23.49-3.3.89-5.67-.4,2.37-.73,4.44-.89,5.66Z"/><path class="cls-1" d="M124.35,133.09c.25-2.43.66-5.14,1.19-7.91C125,128,124.6,130.66,124.35,133.09Z"/><path class="cls-1" d="M125.67,124.48h0c-.24-1.21-.51-2.4-.76-3.6C125.16,122.08,125.43,123.27,125.67,124.48Z"/><path class="cls-1" d="M127.09,129.53l-.27.88c-.14.47-.26.92-.38,1.36.12-.44.24-.89.38-1.36Z"/><path class="cls-1" d="M88.27,61.59a2.56,2.56,0,0,0,.11,1.58A2.56,2.56,0,0,1,88.27,61.59Z"/><path class="cls-1" d="M89.5,56.58c-.08.25-.16.51-.23.76-.24.8-.45,1.57-.62,2.26.17-.69.38-1.46.62-2.26C89.34,57.09,89.42,56.83,89.5,56.58Z"/><path class="cls-1" d="M181.6,60a.92.92,0,0,1-.42.21A.92.92,0,0,0,181.6,60Z"/><path class="cls-1" d="M89.43,62.85a1.23,1.23,0,0,1-.53.44A1.23,1.23,0,0,0,89.43,62.85Z"/><path class="cls-1" d="M38.24,43.2c0-.36,0-.71.07-1.07a34,34,0,0,1,.75-4.93,34,34,0,0,0-.75,4.93C38.28,42.49,38.26,42.84,38.24,43.2Z"/><path class="cls-1" d="M88.12,51.4c-.24-1.2-.51-2.39-.77-3.59.26,1.2.53,2.39.77,3.59h0c0-.11,0-.23.07-.35C88.17,51.17,88.14,51.29,88.12,51.4Z"/><path class="cls-1" d="M154.27,43.18c-.2-1.32-.47-2.92-.79-4.67C153.8,40.26,154.07,41.86,154.27,43.18Z"/><path class="cls-1" d="M179.15,57c.27-2.64.73-5.6,1.33-8.61C179.88,51.37,179.42,54.33,179.15,57Z"/><path class="cls-1" d="M125.76,135.27c0,.58.07.94.29,1.06C125.83,136.21,125.74,135.85,125.76,135.27Z"/><path class="cls-1" d="M126.94,136a1,1,0,0,1-.56.39A1,1,0,0,0,126.94,136Z"/><path class="cls-1" d="M131.19,52.72c0,.34.08.68.13,1,0-.34-.09-.68-.13-1,0-.11,0-.21.07-.32,0,.11,0,.21-.07.32,0-.19,0-.38-.07-.57v0C131.15,52.34,131.17,52.53,131.19,52.72Z"/><path class="cls-1" d="M239.56.6h-.14l0-.11L163.7,226.55l.46.14L239.56,1.61Z"/><path class="cls-2" d="M86.21,25.18a33,33,0,0,1,4.11-8.7,21,21,0,0,1,3.12-3.66,15.17,15.17,0,0,1,4-2.69A15.67,15.67,0,0,1,102,8.79a21,21,0,0,1,4.82,0A21.09,21.09,0,0,0,102,8.72a15.58,15.58,0,0,0-8.67,4,21.71,21.71,0,0,0-3.16,3.67,33.28,33.28,0,0,0-4.07,8.76,45.66,45.66,0,0,0-1.93,9.46A45,45,0,0,1,85,29.85,46.45,46.45,0,0,1,86.21,25.18Z"/><path class="cls-3" d="M84.26,34.66s0,0-.07,0h0l0,.07S84.26,34.67,84.26,34.66Z"/><path class="cls-4" d="M86.76,59.8l0,.22c.28-2.64.73-5.6,1.33-8.62h0c-.24-1.2-.51-2.39-.77-3.59s-.49-2.4-.76-3.59-.55-2.28-.83-3.41c-.2-.86-.4-1.71-.61-2.56-.31-1.19-.62-2.38-.94-3.56h0a.1.1,0,0,1-.07-.05s0,0,.08,0h0c-.18-.67-.37-1.35-.56-2-1-3.57-2.71-7.29-3.33-10.93Q83.54,40.73,86.76,59.8Z"/><path class="cls-4" d="M84.18,34.7h0l0-.07c-.07,0-.07,0-.08,0A.1.1,0,0,0,84.18,34.7Z"/><path class="cls-5" d="M87.35,47.81c.26,1.2.53,2.39.77,3.59,0-.11,0-.23.07-.35V51h0a31.48,31.48,0,0,0-.35-6.1h0a35.52,35.52,0,0,1-.29-11c0,.11-.1.22-.14.33,0-.12.1-.25.14-.38a87,87,0,0,1,2-10.17,30.93,30.93,0,0,0-4.39,14.57c.21.85.41,1.7.61,2.56.28,1.13.57,2.27.83,3.41S87.1,46.61,87.35,47.81Z"/><path class="cls-5" d="M87.35,47.81c-.25-1.2-.49-2.4-.76-3.59s-.55-2.28-.83-3.41c.28,1.13.57,2.27.83,3.41S87.1,46.61,87.35,47.81Z"/><path class="cls-6" d="M88.9,63.29a.5.5,0,0,1-.32,0c.64.23,1.15-.27,1.3-1.17a4,4,0,0,1-.45.71A1.23,1.23,0,0,1,88.9,63.29Z"/><path class="cls-6" d="M88.19,51.05c0,.12,0,.24-.07.35h0c-.6,3-1.05,6-1.33,8.62a6.43,6.43,0,0,0,.77,2.36,2.24,2.24,0,0,0,1,.91.36.36,0,0,1-.16-.12,2.56,2.56,0,0,1-.11-1.58,19.29,19.29,0,0,1,.38-2c.17-.69.38-1.46.62-2.26.07-.25.15-.51.23-.76q.27-.88.57-1.8h0a113.12,113.12,0,0,1,5.43-24C92.56,34.4,89.86,42.85,88.2,51h0Z"/><path class="cls-6" d="M88.19,51.05V51h0Z"/><path class="cls-7" d="M88.57,63.31l0,0h0l0,0h0Z"/><path class="cls-7" d="M89.5,56.58c-.08.25-.16.51-.23.76-.24.8-.45,1.57-.62,2.26a19.29,19.29,0,0,0-.38,2,2.56,2.56,0,0,0,.11,1.58.36.36,0,0,0,.16.12l0,0a.5.5,0,0,0,.32,0,1.23,1.23,0,0,0,.53-.44,4,4,0,0,0,.45-.71h0c2-3.9,3.36-16.22,4.07-17.76-.44.95-2.37,5.83-3.88,10.4h0Q89.77,55.7,89.5,56.58Z"/><path class="cls-7" d="M88.27,61.59a19.29,19.29,0,0,1,.38-2A19.29,19.29,0,0,0,88.27,61.59Z"/><path class="cls-7" d="M88.38,63.17a.36.36,0,0,0,.16.12h0A.36.36,0,0,1,88.38,63.17Z"/><path class="cls-7" d="M89.5,56.58q.27-.88.57-1.8h0Q89.77,55.7,89.5,56.58Z"/><path class="cls-7" d="M88.58,63.31l0,0,0,0Z"/><path class="cls-7" d="M89.43,62.85a4,4,0,0,0,.45-.71h0A4,4,0,0,1,89.43,62.85Z"/><path class="cls-7" d="M88.58,63.31h0a.5.5,0,0,0,.32,0A.5.5,0,0,1,88.58,63.31Z"/><path class="cls-2" d="M101.81,20.94v0l0,0a14.31,14.31,0,0,0-2.4.78,12.09,12.09,0,0,0-3.74,2.5,17,17,0,0,0-2.77,3.55,31.6,31.6,0,0,0-2,4c-.57,1.39-1.12,2.79-1.57,4.22a29.63,29.63,0,0,0-1.47,8.85,26.68,26.68,0,0,1,.47-4.46,34.34,34.34,0,0,1,1.1-4.36c.46-1.42,1-2.82,1.59-4.2a31.34,31.34,0,0,1,2-4,17,17,0,0,1,2.72-3.54,11.87,11.87,0,0,1,3.69-2.5,17,17,0,0,1,4.32-1.17c1.48-.22,3-.33,4.48-.42-1.5.07-3,.15-4.49.35A18.42,18.42,0,0,0,101.81,20.94Z"/><path class="cls-8" d="M109.84,20.31a.89.89,0,0,0,.64-.63A.57.57,0,0,0,110,19a.72.72,0,0,0-.33.07,2.34,2.34,0,0,0-1.26,1.34A6.27,6.27,0,0,0,109.84,20.31Z"/><path class="cls-8" d="M108.43,20.4h-.1l.09,0S108.43,20.41,108.43,20.4Z"/><path class="cls-8" d="M106.1,20.05a5.83,5.83,0,0,0,1.3-1,.55.55,0,0,0,.15-.35.38.38,0,0,0-.45-.29,1,1,0,0,0-.5.3C106.22,19,105.87,19.6,106.1,20.05Z"/><path class="cls-8" d="M106,20.13h.16l0-.08Z"/><path class="cls-8" d="M104.81,19.23a1.42,1.42,0,0,0,.08-.81.51.51,0,0,0-.61-.4.62.62,0,0,0-.31.31,1.74,1.74,0,0,0,.11,1.76A1.66,1.66,0,0,0,104.81,19.23Z"/><path class="cls-8" d="M104.14,20.2s0-.07-.06-.11l-.07,0Z"/><path class="cls-8" d="M106.86,21.83a.68.68,0,0,0,1,.09.72.72,0,0,0-.24-1,1.71,1.71,0,0,0-1-.21A1.69,1.69,0,0,0,106.86,21.83Z"/><path class="cls-8" d="M106.59,20.68s0-.05,0-.07l-.17.07Z"/><path class="cls-8" d="M105.09,22.34a.68.68,0,0,0,.49-1.06c-.26-.36-1.34-.3-1.77,0a1.43,1.43,0,0,0,.65.79A1.16,1.16,0,0,0,105.09,22.34Z"/><path class="cls-8" d="M103.71,21.35a.39.39,0,0,1,.1-.08s0-.05,0-.08Z"/><path class="cls-8" d="M102.62,20.15a1.87,1.87,0,0,0,.15-1.12.73.73,0,0,0-.09-.32c-.19-.28-.66-.17-.84.11a1.52,1.52,0,0,0-.13,1c0,.3.05.6.08.91A1,1,0,0,0,102.62,20.15Z"/><path class="cls-8" d="M101.79,20.72h-.09l.1.21h0Z"/><path class="cls-8" d="M101.81,20.94h0l0,0Z"/><path class="cls-8" d="M103,22.33c.17,0,.38-.09.4-.26a.37.37,0,0,0-.16-.29,1.67,1.67,0,0,0-1.85-.16c-.06.3.41.59.7.69A2,2,0,0,0,103,22.33Z"/><path class="cls-8" d="M100.58,19.06a.6.6,0,0,0-.5.35,1.4,1.4,0,0,0,.26,1.66c.08-.35.64-.95.69-1.26S100.91,19.07,100.58,19.06Z"/><path class="cls-8" d="M100.42,21.14a.27.27,0,0,1-.08-.07.17.17,0,0,0,0,.07Z"/><path class="cls-8" d="M100.11,23.53a.92.92,0,0,0,1.06-.7.49.49,0,0,0-.16-.43.6.6,0,0,0-.4-.06,4,4,0,0,0-1.5.45A1.56,1.56,0,0,0,100.11,23.53Z"/><path class="cls-8" d="M99,22.83l.08,0s0-.07-.06-.1Z"/><path class="cls-8" d="M98,20.83a1.14,1.14,0,0,0,.69.73h0a3.64,3.64,0,0,0,.21-1.39,1.23,1.23,0,0,0-.13-.66.42.42,0,0,0-.58-.16.67.67,0,0,0-.16.27A1.93,1.93,0,0,0,98,20.83Z"/><path class="cls-8" d="M98.69,21.56a.21.21,0,0,0,0,.06l.23,0a.58.58,0,0,1-.19,0Z"/><polygon class="cls-8" points="98.69 21.56 98.69 21.56 98.69 21.56 98.69 21.56 98.69 21.56"/><path class="cls-8" d="M98.3,23.64a6.6,6.6,0,0,0-1.11.6,2.81,2.81,0,0,0,.87.5,1,1,0,0,0,1-.21.59.59,0,0,0-.08-.88A.91.91,0,0,0,98.3,23.64Z"/><path class="cls-2" d="M87.56,33.9c.84-2.09,1.74-4.17,2.77-6.18a38.39,38.39,0,0,1,3.8-6,26.52,26.52,0,0,1,5-5,20.85,20.85,0,0,1,6.29-3.27,19.37,19.37,0,0,0-6.35,3.19,26.21,26.21,0,0,0-5.08,5,38,38,0,0,0-3.77,6.07,62.47,62.47,0,0,0-2.68,6.17v0Z"/><path class="cls-2" d="M87.56,33.9v0c0,.13-.09.26-.14.38C87.46,34.12,87.51,34,87.56,33.9Z"/><path class="cls-8" d="M105.7,14.81a.39.39,0,0,0-.12-.19c-.43-.46-1.24-.2-1.83,0a1.72,1.72,0,0,0,.8.69,1,1,0,0,0,1-.17A.42.42,0,0,0,105.7,14.81Z"/><path class="cls-8" d="M99.31,17.65a9.69,9.69,0,0,0-1.31.13,2.45,2.45,0,0,0,1.74.56.53.53,0,0,0,.18-.05c.18-.1.14-.39,0-.52A.9.9,0,0,0,99.31,17.65Z"/><path class="cls-8" d="M99.91,16.37c0,.24.17.87.4,1a1.46,1.46,0,0,0,.72.07,1.16,1.16,0,0,0,.64-.21.43.43,0,0,0,.07-.61.58.58,0,0,0-.43-.13Z"/><path class="cls-8" d="M102.72,16.56c.42.1,1-.14,1-.57s-.43-.75-.86-.72a2.28,2.28,0,0,0-1.16.53A2.34,2.34,0,0,0,102.72,16.56Z"/><path class="cls-8" d="M99.37,15.71l0,0,0,0Z"/><path class="cls-8" d="M97.18,15.06c-.27.09-.34.44-.32.73a2.33,2.33,0,0,0,.67,1.45,6.25,6.25,0,0,0,.29-1.15,1.26,1.26,0,0,0,0-.72A.52.52,0,0,0,97.18,15.06Z"/><path class="cls-8" d="M99.88,13.67a.41.41,0,0,0-.57-.09.84.84,0,0,0-.32.54,1.8,1.8,0,0,0,.41,1.54A4.37,4.37,0,0,0,99.92,14,.6.6,0,0,0,99.88,13.67Z"/><path class="cls-8" d="M95.1,16.87a1.11,1.11,0,0,0-.1,1,1.5,1.5,0,0,0,.94.75,3.15,3.15,0,0,0,.17-1.46.79.79,0,0,0-.1-.34A.6.6,0,0,0,95.1,16.87Z"/><path class="cls-8" d="M98,17.79h0a.3.3,0,0,1-.08-.08Z"/><path class="cls-9" d="M61.82,60.83h0c-.31-1.5-3.47-19.2-3.47-19.2L56,29.23c-.53,8.69,3.33,26.6,4.83,33.14a1.37,1.37,0,0,0,.32.16,1,1,0,0,0,.29.11l.23.06c0-.25,0-.52.08-.8h0c0-.12,0-.26,0-.39s0-.44.07-.68Z"/><path class="cls-4" d="M62.3,53.32c0-.63,0-1.26,0-1.87v0c0-1.08,0-2.12-.14-3.09,0-.32-.06-.63-.1-.93-.06-.48-.14-1-.23-1.61-.19-1.23-.44-2.69-.73-4.26-.12-.69-.25-1.39-.38-2.1h0c-.31-1.66-.64-3.37-1-5v0a0,0,0,0,0,0,0c-1.11-5.64-2.17-10.67-2.17-10.67-.11,3,2.77,28.45,4.22,37.06a.25.25,0,0,0,0,.08h0C62,58.7,62.24,56,62.3,53.32Z"/><polygon class="cls-4" points="61.82 60.83 61.82 60.83 61.82 60.83 61.82 60.83"/><path class="cls-5" d="M63.62,43.35c-.43,2.49-.83,4.89-1.09,6.61-.09.58-.16,1.08-.21,1.49,0,.61,0,1.24,0,1.87-.06,2.66-.27,5.39-.48,7.51h0c0,.24,0,.45-.07.68s0,.27,0,.39c.15-.42,6.82-19.1,5.1-37.3C66.78,25.47,65,35.55,63.62,43.35Z"/><path class="cls-5" d="M61.82,60.83h0c0,.24,0,.45-.07.68,0-.23,0-.44.07-.68Z"/><path class="cls-5" d="M61.82,60.83c.21-2.12.42-4.85.48-7.51-.06,2.66-.27,5.38-.48,7.51Z"/><polygon class="cls-5" points="61.82 60.83 61.82 60.83 61.82 60.83 61.82 60.83 61.82 60.83"/><path class="cls-7" d="M61.12,41.54c.29,1.57.54,3,.73,4.26.09.59.17,1.13.23,1.61,0,.3.08.61.1.93.09,1,.13,2,.14,3.09v0c0-.41.12-.91.21-1.49.26-1.72.66-4.12,1.09-6.61q.06-3.94.12-7.31h0c.24-13.37.4-19.87.4-19.87-2.74,5-3.3,19.46-3.4,23.28h0C60.87,40.15,61,40.85,61.12,41.54Z"/><path class="cls-7" d="M61.85,45.8c.09.59.17,1.13.23,1.61,0,.3.08.61.1.93,0-.32-.06-.63-.1-.93C62,46.93,61.94,46.39,61.85,45.8Z"/><path class="cls-7" d="M61.12,41.54c-.12-.69-.25-1.39-.38-2.1h0C60.87,40.15,61,40.85,61.12,41.54Z"/><path class="cls-2" d="M71.33,17a1.6,1.6,0,0,1,.25-.18,20.09,20.09,0,0,1,2.1-1.92,17.58,17.58,0,0,1,7.2-3.29c-.65.15-1.31.28-1.94.48a15.66,15.66,0,0,0-1.88.69,15.92,15.92,0,0,0-3.44,2,19.89,19.89,0,0,0-1.56,1.33h0a20.77,20.77,0,0,0-3.69,4.66,31.82,31.82,0,0,0-3.1,7.37c-.38,1.28-.68,2.58-.94,3.88s-.44,2.64-.59,4a52.19,52.19,0,0,1,1.62-7.82A32.39,32.39,0,0,1,68.5,20.9,20.85,20.85,0,0,1,71.38,17Z"/><path class="cls-2" d="M59.57,29.38c0-1.59.09-3.18.25-4.76A32.86,32.86,0,0,1,62,15.4,17.72,17.72,0,0,1,67.6,7.85l1-.67c.34-.21.69-.39,1-.59a13.2,13.2,0,0,1,2.18-1,18.45,18.45,0,0,1,4.65-.93,18.75,18.75,0,0,0-4.68.86,14.59,14.59,0,0,0-2.19.94c-.35.2-.7.38-1,.59l-1,.67a17.72,17.72,0,0,0-5.65,7.58,33.14,33.14,0,0,0-2.17,9.26,45.21,45.21,0,0,0,.05,9.52A44.39,44.39,0,0,1,59.57,29.38Z"/><path class="cls-8" d="M72.79,15.91l.08.1a.12.12,0,0,1-.07-.1Z"/><path class="cls-8" d="M72.73,17.51c.31,0,.64-.31.51-.59a.56.56,0,0,0-.39-.27,1.57,1.57,0,0,0-1.27.18l-.2.21A3.76,3.76,0,0,0,72.73,17.51Z"/><path class="cls-8" d="M71.38,17l.2-.21a1.6,1.6,0,0,0-.25.18Z"/><path class="cls-8" d="M74.94,16.13a.21.21,0,0,0,.11-.12.17.17,0,0,0,0-.16,1.12,1.12,0,0,0-.85-.42,3.22,3.22,0,0,0-1,.11.63.63,0,0,0-.33.15.23.23,0,0,0,0,.22A2.36,2.36,0,0,0,74.94,16.13Z"/><path class="cls-8" d="M71.94,16.12a1.56,1.56,0,0,0-.43-1.71,2.31,2.31,0,0,0-.11,1,.83.83,0,0,0,.66.71h0Z"/><path class="cls-8" d="M72.06,16.16Z"/><path class="cls-9" d="M38.18,51.81c0-.14,0-.28-.08-.42v0c-.47-2.4-1-4.78-1.28-7.21-.14-1.09-.29-2.18-.44-3.27h0c-.19-1.28-.38-2.55-.58-3.82-.44-2.83-.74-3.27-1.25-6.09-.24-1.36-.49-2.72-.74-4.08-.13-.68-.25-1.35-.38-2-.06-.35-.13-.69-.19-1,0-.19-.24-.71-.17-.88-1.37,3.48-.38,9.39,0,13.1.87,8.77,3.83,13.58,5,22.17h0a3,3,0,0,1,0,.67s.08,1.12.12,1.79a.55.55,0,0,0,.56.51h.51a30.94,30.94,0,0,0-.42-5.42c0-.18,0-.37-.07-.56v-.05c-.06-.41-.12-.83-.19-1.24C38.45,53.2,38.31,52.51,38.18,51.81Z"/><path class="cls-4" d="M38.9,55.44c0,.11,0,.21-.07.32a30.94,30.94,0,0,1,.42,5.42c2-6.47,4.58-12.13,5.84-18.73C46,37.94,47.46,34.54,47,30a55.4,55.4,0,0,1-4.54,15.25c-.14.34-.29.67-.43,1-.31.72-.63,1.45-1,2.23a33.93,33.93,0,0,0-1.92,5.66h0C39.06,54.56,39,55,38.9,55.44Z"/><path class="cls-5" d="M39.32,19c.08-.18.16-.36.25-.54-.55-3.21-1.19-6.4-1.87-9.56.07,5.43-.07,11.19-.14,17,.07-.54.14-1.08.23-1.62A21.44,21.44,0,0,1,39.32,19Z"/><path class="cls-5" d="M38.31,42.13a34,34,0,0,1,.75-4.93c.54-2.39,1.26-4.48,2-7.5-.32-3.68-.83-7.35-1.45-11l-.15.34a21.61,21.61,0,0,0-1.54,5.22c-.15.82-.26,1.65-.38,2.47-.08,7-.06,14,.52,20.44,0-.42,0-.86,0-1.29,0-.88.08-1.78.14-2.69C38.26,42.84,38.28,42.49,38.31,42.13Z"/><path class="cls-2" d="M37.08,29.68c-.39,3.63-.63,7.28-.71,10.93q.21-5.47.81-10.92c.11-1,.23-2,.36-3,0-.29,0-.58,0-.87Q37.29,27.78,37.08,29.68Z"/><path class="cls-2" d="M42,14.24c1-1.55,1.94-3.09,3-4.55.27-.37.56-.72.84-1.08l.91-1a16.75,16.75,0,0,1,2-1.89A14.14,14.14,0,0,1,53.53,3a14.41,14.41,0,0,0-4.79,2.6,17.79,17.79,0,0,0-2,1.89l-.91,1c-.29.36-.58.71-.85,1.08-1.11,1.45-2.09,3-3.07,4.54a36.25,36.25,0,0,0-2.35,4.28c0,.09,0,.18,0,.26A34.41,34.41,0,0,1,42,14.24Z"/><path class="cls-2" d="M39.46,19.05l.15-.34c0-.08,0-.17,0-.26-.09.18-.17.36-.25.54a21.44,21.44,0,0,0-1.53,5.26c-.09.54-.16,1.08-.23,1.62,0,.29,0,.58,0,.87.12-.82.23-1.65.38-2.47A21.61,21.61,0,0,1,39.46,19.05Z"/><path class="cls-7" d="M45.33,29.68c0-.19.08-.38.12-.59A129.7,129.7,0,0,0,47.07,9.25c-1.74,3.66-2.71,8.11-3.79,12.05-.79,2.85-1.54,5.63-2.22,8.4-.74,3-1.46,5.11-2,7.5a34,34,0,0,0-.75,4.93c0,.36-.05.71-.07,1.07-.06.91-.11,1.81-.14,2.69,0,.43,0,.87,0,1.29,0,1.42,0,2.79,0,4.16v0c0,.14,0,.28.08.42.13.7.27,1.39.39,2.1.07.41.13.83.19,1.24v.05c0,.19.05.38.07.56,0-.11.05-.21.07-.32.08-.44.16-.88.26-1.3h0c-.32-5.49.42-6.92,2.09-12.55.93-3.13,2-5.33,2.88-7.69v0a27.18,27.18,0,0,1,1.08-3.61h0c0-.16.07-.33.1-.49a2.44,2.44,0,0,1-.1.24C45.26,29.88,45.3,29.78,45.33,29.68Z"/><path class="cls-7" d="M38.18,51.81c.13.7.27,1.39.39,2.1.07.41.13.83.19,1.24-.06-.41-.12-.83-.19-1.24C38.45,53.2,38.31,52.51,38.18,51.81Z"/><path class="cls-7" d="M38.9,55.44c.08-.44.16-.88.26-1.3h0C39.06,54.56,39,55,38.9,55.44Z"/><path class="cls-7" d="M38.1,45.89c0-.88.08-1.78.14-2.69C38.18,44.11,38.13,45,38.1,45.89Z"/><path class="cls-2" d="M51.82,16.18a28,28,0,0,0-2,3l.11,0-.12,0c-.24.42-.5.84-.72,1.27C48.31,22,47.63,23.6,47,25.18s-1.14,3-1.67,4.5v.06c.58-1.51,1.16-3,1.77-4.52s1.34-3.13,2.13-4.64a30.7,30.7,0,0,1,2.68-4.34,21.53,21.53,0,0,1,3.5-3.7A19.28,19.28,0,0,0,51.82,16.18Z"/><path class="cls-2" d="M45.22,30a2.44,2.44,0,0,0,.1-.24v-.06C45.3,29.78,45.26,29.88,45.22,30Z"/><path class="cls-8" d="M50.93,15.86a.38.38,0,0,0-.59.08.89.89,0,0,0,0,.68c.09.33.31.71.65.71l-.21-.07A3.72,3.72,0,0,0,51,16.17.56.56,0,0,0,50.93,15.86Z"/><path class="cls-8" d="M49.88,17.88a.5.5,0,0,0-.76.07.74.74,0,0,0,.07.84,1.28,1.28,0,0,0,.54.4h0C49.72,18.73,50.17,18.23,49.88,17.88Z"/><path class="cls-8" d="M51.34,14.81a1.3,1.3,0,0,0,.85.75c.08-.43.16-1.41-.26-1.52S51.22,14.43,51.34,14.81Z"/><path class="cls-8" d="M49.73,19.19h0a.06.06,0,0,0,0,0h.07v0Z"/><path class="cls-8" d="M49.82,19.22v0l.12,0Z"/><polygon class="cls-8" points="49.73 19.19 49.73 19.19 49.73 19.19 49.73 19.19"/><path class="cls-8" d="M50.89,19a.43.43,0,0,0-.24.1,4.64,4.64,0,0,0-.92,1.3A1.81,1.81,0,0,0,51,19.82a.73.73,0,0,0,.23-.47A.34.34,0,0,0,50.89,19Z"/><path class="cls-8" d="M51.92,17.44a3.93,3.93,0,0,0-1,.64.48.48,0,0,0,.48.32,1.29,1.29,0,0,0,.6-.17c.21-.1.46-.26.44-.49A.41.41,0,0,0,51.92,17.44Z"/><path class="cls-8" d="M53.54,15.59c-.51,0-1.13.65-1.54,1a1.4,1.4,0,0,0,1.72-.74.19.19,0,0,0,0-.18C53.68,15.59,53.61,15.59,53.54,15.59Z"/><path class="cls-2" d="M123.77,98.25a33.32,33.32,0,0,1,4.1-8.7A21.41,21.41,0,0,1,131,85.89a15.3,15.3,0,0,1,4-2.68,15.67,15.67,0,0,1,4.61-1.34,21,21,0,0,1,4.82,0,21.09,21.09,0,0,0-4.83-.1,15.91,15.91,0,0,0-4.64,1.32,15.6,15.6,0,0,0-4,2.69,20.85,20.85,0,0,0-3.15,3.67,32.94,32.94,0,0,0-4.08,8.75,46.41,46.41,0,0,0-1.93,9.47,45.17,45.17,0,0,1,.79-4.77A46.5,46.5,0,0,1,123.77,98.25Z"/><path class="cls-3" d="M121.82,107.74s0,0-.08,0h0l0,.08Z"/><path class="cls-4" d="M125.67,124.48h0c-.24-1.21-.51-2.4-.76-3.6s-.5-2.4-.77-3.59c-.2-.85-.42-1.7-.62-2.56-.27-1.13-.53-2.27-.82-3.41s-.62-2.37-.94-3.55h0c-.07,0-.07,0-.08,0s0,0,.08,0h0c-.18-.68-.37-1.36-.56-2-1-3.57-2.71-7.3-3.32-10.94l6.45,38.16,0,.21c.25-2.43.66-5.14,1.19-7.91C125.59,125,125.63,124.72,125.67,124.48Z"/><path class="cls-4" d="M121.74,107.77h0l0-.08c-.06,0-.07,0-.08,0S121.67,107.75,121.74,107.77Z"/><path class="cls-5" d="M124.91,120.88c.25,1.2.52,2.39.76,3.6l0-.08c0-.11,0-.22.07-.34a33.16,33.16,0,0,0-.35-6.1h0a35.45,35.45,0,0,1-.3-11,3.27,3.27,0,0,0-.14.33c0-.13.1-.26.14-.38a87.12,87.12,0,0,1,2-10.18,31,31,0,0,0-4.39,14.57c.29,1.14.55,2.28.82,3.41.2.86.42,1.71.62,2.56C124.41,118.48,124.65,119.69,124.91,120.88Z"/><path class="cls-5" d="M124.91,120.88c-.26-1.19-.5-2.4-.77-3.59-.2-.85-.42-1.7-.62-2.56.2.86.42,1.71.62,2.56C124.41,118.48,124.65,119.69,124.91,120.88Z"/><path class="cls-6" d="M126.38,136.37a.65.65,0,0,1-.24,0c.63.22,1.15-.27,1.29-1.17a3.7,3.7,0,0,1-.49.76A1,1,0,0,1,126.38,136.37Z"/><path class="cls-6" d="M125.76,124.06c0,.12-.05.23-.07.34l0,.08h0c0,.24-.08.47-.13.7-.53,2.77-.94,5.48-1.19,7.91a6.08,6.08,0,0,0,.77,2.36,2.33,2.33,0,0,0,1,.92l0,0c-.22-.12-.31-.48-.29-1.06a19,19,0,0,1,.68-3.5c.12-.44.24-.89.38-1.36l.27-.88c.17-.55.35-1.11.54-1.67h0a112.63,112.63,0,0,1,5.42-24C130.11,107.47,127.41,115.93,125.76,124.06Z"/><path class="cls-6" d="M125.67,124.48c0,.24-.08.47-.13.7,0-.23.09-.46.13-.7Z"/><path class="cls-6" d="M125.67,124.48l0-.08,0,.08Z"/><path class="cls-7" d="M127.09,129.53l-.27.88c-.14.47-.26.92-.38,1.36a19,19,0,0,0-.68,3.5c0,.58.07.94.29,1.06l0,0,0,0a.65.65,0,0,0,.24,0,1,1,0,0,0,.56-.39,3.7,3.7,0,0,0,.49-.76h0c1.95-3.91,3.36-16.22,4.08-17.77-.44,1-2.38,5.84-3.88,10.4h0C127.44,128.42,127.26,129,127.09,129.53Z"/><path class="cls-7" d="M126.12,136.39l0,0h0l0,0h0Z"/><path class="cls-7" d="M126.94,136a3.7,3.7,0,0,0,.49-.76h0A3.7,3.7,0,0,1,126.94,136Z"/><path class="cls-7" d="M126.05,136.33l0,0h0Z"/><path class="cls-7" d="M125.76,135.27a19,19,0,0,1,.68-3.5A19,19,0,0,0,125.76,135.27Z"/><path class="cls-7" d="M127.09,129.53c.17-.55.35-1.11.54-1.67h0C127.44,128.42,127.26,129,127.09,129.53Z"/><path class="cls-7" d="M126.14,136.39h0a.65.65,0,0,0,.24,0A.65.65,0,0,1,126.14,136.39Z"/><path class="cls-7" d="M126.14,136.39l0,0,0,0Z"/><path class="cls-2" d="M139.36,94v0l0,0a14.58,14.58,0,0,0-2.4.77,12,12,0,0,0-3.73,2.5,17,17,0,0,0-2.77,3.56,30.89,30.89,0,0,0-2,4c-.57,1.39-1.12,2.79-1.57,4.22a29.37,29.37,0,0,0-1.46,8.86,26.78,26.78,0,0,1,.46-4.47,34.2,34.2,0,0,1,1.1-4.35c.46-1.43,1-2.83,1.59-4.21a31.22,31.22,0,0,1,2-4,16.48,16.48,0,0,1,2.73-3.54A11.91,11.91,0,0,1,137,94.88a17.36,17.36,0,0,1,4.32-1.16c1.48-.23,3-.33,4.48-.43-1.5.07-3,.15-4.49.35C140.65,93.74,140,93.86,139.36,94Z"/><path class="cls-8" d="M147.57,92.06a.64.64,0,0,0-.33.08A2.28,2.28,0,0,0,146,93.48a6.23,6.23,0,0,0,1.41-.09,1,1,0,0,0,.65-.64A.58.58,0,0,0,147.57,92.06Z"/><path class="cls-8" d="M146,93.52s0,0,0,0h-.1Z"/><path class="cls-8" d="M145,92.08a.53.53,0,0,0,.15-.34.37.37,0,0,0-.44-.29,1,1,0,0,0-.51.3c-.38.36-.73.93-.5,1.38A5.64,5.64,0,0,0,145,92.08Z"/><path class="cls-8" d="M143.53,93.2h.16l0-.07Z"/><path class="cls-8" d="M141.69,93.27a.53.53,0,0,0-.06-.1s0,0-.06,0Z"/><path class="cls-8" d="M142.36,92.3a1.5,1.5,0,0,0,.09-.81.53.53,0,0,0-.62-.4.62.62,0,0,0-.31.31,1.78,1.78,0,0,0,.11,1.77A1.6,1.6,0,0,0,142.36,92.3Z"/><path class="cls-8" d="M145.14,94a1.8,1.8,0,0,0-1-.22h0a1.67,1.67,0,0,0,.27,1.15.67.67,0,0,0,1,.1A.72.72,0,0,0,145.14,94Z"/><path class="cls-8" d="M144.14,93.75s0,0,0-.07l-.17.08Z"/><path class="cls-8" d="M141.36,94.35a1.41,1.41,0,0,0,.65.78,1.21,1.21,0,0,0,.63.29.69.69,0,0,0,.49-1.06C142.87,94,141.79,94.06,141.36,94.35Z"/><path class="cls-8" d="M141.26,94.42l.1-.07a.22.22,0,0,1,0-.08Z"/><path class="cls-8" d="M140.17,93.22a2,2,0,0,0,.16-1.12.81.81,0,0,0-.1-.31c-.18-.28-.66-.18-.84.11a1.56,1.56,0,0,0-.13,1c0,.31.06.61.08.91A1,1,0,0,0,140.17,93.22Z"/><path class="cls-8" d="M139.34,93.79h-.08l.09.22h0Z"/><path class="cls-8" d="M139.36,94h0l0,0Z"/><path class="cls-8" d="M138.94,94.7c-.06.29.42.58.7.69a2,2,0,0,0,.91,0c.17,0,.38-.09.4-.26s-.07-.21-.16-.29A1.67,1.67,0,0,0,138.94,94.7Z"/><path class="cls-8" d="M138.13,92.14a.6.6,0,0,0-.5.35,1.38,1.38,0,0,0,.26,1.65c.08-.34.64-1,.69-1.25S138.46,92.15,138.13,92.14Z"/><path class="cls-8" d="M138,94.22l-.08-.08a.22.22,0,0,0,0,.08Z"/><path class="cls-8" d="M138.16,95.41a4.14,4.14,0,0,0-1.5.45,1.55,1.55,0,0,0,1,.74.92.92,0,0,0,1.05-.69.46.46,0,0,0-.16-.43A.6.6,0,0,0,138.16,95.41Z"/><path class="cls-8" d="M136.59,95.9l.07,0-.06-.1Z"/><path class="cls-8" d="M136.33,92.58a.43.43,0,0,0-.58-.16.53.53,0,0,0-.16.28,1.93,1.93,0,0,0,0,1.21,1.17,1.17,0,0,0,.69.72h0a3.46,3.46,0,0,0,.21-1.39A1.26,1.26,0,0,0,136.33,92.58Z"/><path class="cls-8" d="M136.24,94.63s0,0,0,.06h.23a.59.59,0,0,1-.19-.05Z"/><polygon class="cls-8" points="136.24 94.63 136.24 94.63 136.24 94.63 136.24 94.63 136.24 94.63"/><path class="cls-8" d="M135.85,96.72a6.23,6.23,0,0,0-1.11.59,2.57,2.57,0,0,0,.88.5.94.94,0,0,0,.94-.2.58.58,0,0,0-.08-.88A.81.81,0,0,0,135.85,96.72Z"/><path class="cls-2" d="M125.11,107c.85-2.1,1.75-4.17,2.78-6.18a37.18,37.18,0,0,1,3.79-6,26.52,26.52,0,0,1,5-5A20.87,20.87,0,0,1,143,86.48a19.77,19.77,0,0,0-6.35,3.19,26.78,26.78,0,0,0-5.08,5,38.4,38.4,0,0,0-3.77,6.07,62.64,62.64,0,0,0-2.68,6.18v0Z"/><path class="cls-2" d="M125.11,107v0c0,.12-.09.25-.14.38A3.27,3.27,0,0,1,125.11,107Z"/><path class="cls-8" d="M143.25,87.89a.49.49,0,0,0-.11-.2c-.43-.45-1.25-.19-1.84,0a1.78,1.78,0,0,0,.8.69,1,1,0,0,0,1-.18A.4.4,0,0,0,143.25,87.89Z"/><path class="cls-8" d="M137.48,91.36c.17-.1.13-.39,0-.51a.91.91,0,0,0-.59-.13,11.62,11.62,0,0,0-1.31.13,2.41,2.41,0,0,0,1.74.56A.34.34,0,0,0,137.48,91.36Z"/><path class="cls-8" d="M139.23,90.26a.43.43,0,0,0,.06-.61.6.6,0,0,0-.42-.13l-1.41-.08c0,.25.17.87.4,1a1.6,1.6,0,0,0,.72.06A1.14,1.14,0,0,0,139.23,90.26Z"/><path class="cls-8" d="M140.28,89.63a.78.78,0,0,0,1-.57c0-.42-.44-.74-.86-.72a2.28,2.28,0,0,0-1.17.53A2.17,2.17,0,0,0,140.28,89.63Z"/><path class="cls-8" d="M136.92,88.78l.05,0,0,0Z"/><path class="cls-8" d="M134.73,88.14c-.27.09-.34.44-.31.73a2.37,2.37,0,0,0,.66,1.45,6.68,6.68,0,0,0,.29-1.15,1.26,1.26,0,0,0,0-.72A.51.51,0,0,0,134.73,88.14Z"/><path class="cls-8" d="M137.43,86.75a.41.41,0,0,0-.57-.1.81.81,0,0,0-.31.54,1.79,1.79,0,0,0,.4,1.54,4,4,0,0,0,.52-1.63A.52.52,0,0,0,137.43,86.75Z"/><path class="cls-8" d="M132.65,90a1.11,1.11,0,0,0-.1,1,1.51,1.51,0,0,0,.95.74,3.13,3.13,0,0,0,.16-1.46.67.67,0,0,0-.1-.33A.59.59,0,0,0,132.65,90Z"/><path class="cls-8" d="M135.47,90.78l.05.08h0Z"/><path class="cls-9" d="M99.37,133.9h0c-.31-1.5-3.47-19.2-3.47-19.2l-2.39-12.39C93,111,96.84,128.9,98.34,135.45l.32.16a1.33,1.33,0,0,0,.3.11l.22.05c0-.25,0-.51.08-.79h0l0-.31c0-.25.06-.5.08-.77Z"/><path class="cls-4" d="M99.85,126.58c0-.69,0-1.38,0-2.06h0c0-1.08-.05-2.11-.13-3.07,0-.33-.06-.65-.1-1s-.14-1-.22-1.5c-.2-1.3-.47-2.85-.77-4.52-.12-.64-.24-1.29-.36-2h0c-.31-1.65-.64-3.37-1-5v0c-1.12-5.63-2.18-10.66-2.18-10.66-.11,3,2.78,28.45,4.22,37.05,0,0,0,.06,0,.08h0C99.58,131.83,99.78,129.19,99.85,126.58Z"/><polygon class="cls-4" points="99.37 133.9 99.37 133.9 99.37 133.9 99.37 133.9"/><path class="cls-5" d="M101.17,116.42c-.14.83-.28,1.65-.41,2.44-.4,2.37-.73,4.44-.89,5.67,0,.67,0,1.36,0,2-.07,2.61-.27,5.25-.48,7.32h0c0,.27-.05.52-.08.77l0,.31c.16-.42,6.82-19.1,5.1-37.31C104.33,98.54,102.51,108.63,101.17,116.42Z"/><path class="cls-5" d="M99.37,133.9h0c0,.27-.05.52-.08.77,0-.25.06-.5.08-.77Z"/><path class="cls-5" d="M99.37,133.9c.21-2.07.41-4.71.48-7.32-.07,2.61-.27,5.25-.48,7.32Z"/><polygon class="cls-5" points="99.37 133.9 99.37 133.91 99.37 133.91 99.37 133.9 99.37 133.9"/><path class="cls-7" d="M98.65,114.47c.3,1.67.57,3.22.77,4.52.08.54.16,1.05.22,1.5s.07.62.1,1c.08,1,.12,2,.13,3.07h0c.16-1.22.49-3.29.89-5.66.13-.79.27-1.61.41-2.44,0-2.63.09-5.06.12-7.3v0c.24-13.37.4-19.87.4-19.87-2.74,5-3.3,19.46-3.4,23.28h0C98.41,113.18,98.53,113.83,98.65,114.47Z"/><path class="cls-7" d="M98.65,114.47c-.12-.64-.24-1.29-.36-2h0C98.41,113.18,98.53,113.83,98.65,114.47Z"/><path class="cls-7" d="M99.42,119c.08.54.16,1.05.22,1.5s.07.62.1,1c0-.33-.06-.65-.1-1S99.5,119.53,99.42,119Z"/><path class="cls-2" d="M109.13,89.91A18.28,18.28,0,0,1,111.24,88a17.5,17.5,0,0,1,7.19-3.3c-.65.16-1.3.28-1.94.48s-1.27.43-1.88.69a15.66,15.66,0,0,0-3.43,2,18.08,18.08,0,0,0-1.57,1.33h0a20.54,20.54,0,0,0-3.69,4.66,32.37,32.37,0,0,0-3.1,7.36c-.38,1.28-.68,2.58-.94,3.89s-.44,2.63-.59,3.95a50.63,50.63,0,0,1,1.63-7.81A32.43,32.43,0,0,1,106.05,94a20.78,20.78,0,0,1,2.88-3.85l-.05,0A1.1,1.1,0,0,1,109.13,89.91Z"/><path class="cls-2" d="M99.59,88.48a17.64,17.64,0,0,1,5.56-7.55l1-.68c.34-.21.69-.39,1-.59a14.48,14.48,0,0,1,2.18-.94,18.47,18.47,0,0,1,4.65-.94,18.6,18.6,0,0,0-4.67.87,13.32,13.32,0,0,0-2.2.93c-.34.2-.7.38-1,.59l-1,.67a17.93,17.93,0,0,0-5.65,7.58,33.57,33.57,0,0,0-2.17,9.27,45.9,45.9,0,0,0,0,9.52,44.47,44.47,0,0,1-.2-4.76c0-1.59.09-3.17.25-4.75A33.22,33.22,0,0,1,99.59,88.48Z"/><path class="cls-8" d="M110.35,89h0l.08.1A.13.13,0,0,1,110.35,89Z"/><path class="cls-8" d="M110.41,89.72a1.57,1.57,0,0,0-1.28.19l-.2.21a4,4,0,0,0,1.35.47c.31,0,.64-.31.51-.59A.58.58,0,0,0,110.41,89.72Z"/><path class="cls-8" d="M108.88,90.08l.05,0,.2-.21A1.1,1.1,0,0,0,108.88,90.08Z"/><path class="cls-8" d="M111.7,88.5a3.58,3.58,0,0,0-1,.12.55.55,0,0,0-.33.14.25.25,0,0,0-.05.22,2.41,2.41,0,0,0,2.15.23.23.23,0,0,0,.1-.12.16.16,0,0,0,0-.16A1.09,1.09,0,0,0,111.7,88.5Z"/><path class="cls-8" d="M109.49,89.19a1.57,1.57,0,0,0-.42-1.71,2.51,2.51,0,0,0-.12,1,.83.83,0,0,0,.66.71h0Z"/><path class="cls-8" d="M109.61,89.24Z"/><path class="cls-9" d="M75.69,124.65a1.06,1.06,0,0,1,0-.19v0c-.47-2.41-1-4.79-1.27-7.21l-.45-3.28h0c-.18-1.27-.38-2.54-.57-3.81-.45-2.84-.75-3.28-1.25-6.1l-.75-4.08c-.12-.67-.25-1.34-.38-2-.06-.35-.13-.7-.19-1.05,0-.19-.24-.71-.17-.88-1.37,3.49-.38,9.39,0,13.1.87,8.78,3.84,13.58,5,22.17h0a3.61,3.61,0,0,1,0,.66c0,.06.08,1.13.12,1.79a.57.57,0,0,0,.56.52h.51a29.93,29.93,0,0,0-.42-5.42c0-.19,0-.38-.06-.57v0c-.06-.42-.12-.83-.19-1.25C76,126.2,75.84,125.43,75.69,124.65Z"/><path class="cls-4" d="M76.45,128.52c0,.11,0,.21-.07.32a29.93,29.93,0,0,1,.42,5.42c2-6.48,4.58-12.13,5.84-18.74.86-4.5,2.37-7.9,1.92-12.46A55.57,55.57,0,0,1,80,118.32c-.14.33-.28.67-.43,1l-1,2.22a33.93,33.93,0,0,0-1.92,5.66h0C76.62,127.63,76.53,128.07,76.45,128.52Z"/><path class="cls-5" d="M76.87,92.07c.08-.19.17-.36.25-.55-.55-3.21-1.19-6.4-1.87-9.55.07,5.42-.06,11.18-.14,17,.07-.54.14-1.08.24-1.62A21.79,21.79,0,0,1,76.87,92.07Z"/><path class="cls-5" d="M75.86,115.2c.44-5.16,1.56-7.59,2.75-12.43-.32-3.67-.83-7.34-1.45-11,0,.11-.1.22-.15.34a21.79,21.79,0,0,0-1.54,5.22c-.14.82-.26,1.64-.37,2.47a204.31,204.31,0,0,0,.51,20.44l0-.87c0-1.15.09-2.32.18-3.53C75.84,115.64,75.84,115.43,75.86,115.2Z"/><path class="cls-2" d="M79.58,87.31c1-1.55,2-3.09,3-4.55.27-.36.56-.72.85-1.07l.9-1a17.51,17.51,0,0,1,2-1.88,14.23,14.23,0,0,1,4.74-2.66,14.15,14.15,0,0,0-4.79,2.6,18.6,18.6,0,0,0-2,1.88l-.91,1c-.29.35-.57.71-.85,1.07-1.1,1.46-2.09,3-3.06,4.54a35.68,35.68,0,0,0-2.36,4.28c0,.09,0,.18,0,.27A36.5,36.5,0,0,1,79.58,87.31Z"/><path class="cls-2" d="M74.63,102.76q-.59,5.44-.71,10.92c.14-3.64.41-7.29.81-10.91.12-1,.24-2,.37-3,0-.3,0-.59,0-.88C74.93,100.21,74.77,101.48,74.63,102.76Z"/><path class="cls-2" d="M77,92.13c0-.12.11-.23.15-.34s0-.18,0-.27c-.08.19-.17.36-.25.55a21.79,21.79,0,0,0-1.52,5.25c-.1.54-.17,1.08-.24,1.62,0,.29,0,.58,0,.88.11-.83.23-1.65.37-2.47A21.79,21.79,0,0,1,77,92.13Z"/><path class="cls-7" d="M82.88,102.76l.12-.59a128.48,128.48,0,0,0,1.62-19.85c-1.74,3.66-2.71,8.11-3.79,12.05-.78,2.85-1.54,5.63-2.22,8.4-1.19,4.84-2.31,7.27-2.75,12.43,0,.23,0,.44,0,.66-.09,1.21-.15,2.38-.18,3.53l0,.87c0,1.41,0,2.79,0,4.16v0a1.06,1.06,0,0,0,0,.19c.15.78.3,1.55.43,2.33.07.42.13.83.19,1.25v0c0,.19.05.38.06.57,0-.11.05-.21.07-.32.08-.45.16-.89.26-1.31h0c-.31-5.49.42-6.91,2.09-12.54.93-3.13,2-5.33,2.88-7.69v0a26.74,26.74,0,0,1,1.08-3.61v0l.09-.49-.09.25C82.81,103,82.85,102.86,82.88,102.76Z"/><path class="cls-7" d="M75.69,124.65c.15.78.3,1.55.43,2.33.07.42.13.83.19,1.25-.06-.42-.12-.83-.19-1.25C76,126.2,75.84,125.43,75.69,124.65Z"/><path class="cls-7" d="M76.45,128.52c.08-.45.17-.89.26-1.31h0C76.61,127.63,76.53,128.07,76.45,128.52Z"/><path class="cls-7" d="M75.64,119.39c0-1.15.09-2.32.18-3.53C75.73,117.07,75.67,118.24,75.64,119.39Z"/><path class="cls-2" d="M89.37,89.25a29,29,0,0,0-2,3l.1,0-.12,0c-.24.42-.49.83-.72,1.26-.78,1.52-1.46,3.09-2.09,4.68s-1.14,3-1.67,4.5v0c.58-1.51,1.16-3,1.77-4.52s1.34-3.13,2.14-4.64a30.28,30.28,0,0,1,2.67-4.34A22.34,22.34,0,0,1,93,85.61,19.34,19.34,0,0,0,89.37,89.25Z"/><path class="cls-2" d="M82.78,103.06l.09-.25v0C82.85,102.86,82.81,103,82.78,103.06Z"/><path class="cls-8" d="M88.48,88.94c-.13-.19-.46-.12-.58.08a.86.86,0,0,0,0,.67c.09.34.31.71.66.72l-.22-.08a3.66,3.66,0,0,0,.23-1.08A.54.54,0,0,0,88.48,88.94Z"/><path class="cls-8" d="M87.43,91a.5.5,0,0,0-.76.08.75.75,0,0,0,.07.83,1.37,1.37,0,0,0,.55.4h0C87.28,91.8,87.72,91.31,87.43,91Z"/><path class="cls-8" d="M88.89,87.88a1.27,1.27,0,0,0,.86.75c.08-.43.16-1.4-.27-1.51S88.77,87.51,88.89,87.88Z"/><path class="cls-8" d="M87.29,92.26h0v0l.07,0,0,0Z"/><path class="cls-8" d="M87.38,92.3l0,0,.12,0Z"/><polygon class="cls-8" points="87.28 92.26 87.28 92.26 87.28 92.26 87.28 92.26"/><path class="cls-8" d="M88.44,92.07a.49.49,0,0,0-.23.11,4.35,4.35,0,0,0-.92,1.29,1.8,1.8,0,0,0,1.24-.57.68.68,0,0,0,.23-.47A.35.35,0,0,0,88.44,92.07Z"/><path class="cls-8" d="M89.47,90.52a3.46,3.46,0,0,0-1,.64.48.48,0,0,0,.48.32,1.59,1.59,0,0,0,.6-.17c.21-.1.46-.26.44-.5S89.69,90.46,89.47,90.52Z"/><path class="cls-8" d="M91.1,88.66c-.52,0-1.14.66-1.55,1a1.38,1.38,0,0,0,1.72-.74c0-.06,0-.13,0-.17S91.16,88.66,91.1,88.66Z"/><path class="cls-2" d="M178.57,22.13a33.34,33.34,0,0,1,4.11-8.7,21.35,21.35,0,0,1,3.12-3.66,15.25,15.25,0,0,1,4-2.68,15.82,15.82,0,0,1,4.62-1.34,20.92,20.92,0,0,1,4.81,0,21,21,0,0,0-4.82-.1A16,16,0,0,0,189.73,7a15.54,15.54,0,0,0-4,2.69,20.9,20.9,0,0,0-3.16,3.67,33.25,33.25,0,0,0-4.08,8.75,46.39,46.39,0,0,0-1.92,9.47,45.61,45.61,0,0,1,.79-4.77A47.91,47.91,0,0,1,178.57,22.13Z"/><path class="cls-3" d="M176.62,31.62s0,0-.07-.05h0l0,.08Z"/><path class="cls-4" d="M179.11,56.76l0,.21c.27-2.64.73-5.6,1.33-8.61h0c-.48-2.41-1-4.8-1.54-7.19q-.67-3-1.44-6c-.3-1.19-.61-2.37-.93-3.55h0c-.06,0-.06,0-.07,0s0,0,.08,0h0c-.19-.68-.37-1.36-.56-2-1-3.57-2.71-7.3-3.33-10.94Z"/><path class="cls-4" d="M176.54,31.65h0l0-.08c-.07,0-.07,0-.08,0S176.48,31.63,176.54,31.65Z"/><path class="cls-5" d="M180.56,47.94a32.3,32.3,0,0,0-.35-6.1h0a35.52,35.52,0,0,1-.29-11c0,.11-.1.22-.14.33,0-.13.09-.25.14-.38a89.29,89.29,0,0,1,2-10.18A31,31,0,0,0,177.5,35.2q.76,3,1.44,6c.55,2.39,1.06,4.78,1.54,7.19,0-.14.05-.28.08-.41Z"/><path class="cls-6" d="M179.15,57a6.19,6.19,0,0,0,.77,2.36,2.34,2.34,0,0,0,1,.92s-.06,0-.09-.07c-.24-.2-.29-.76-.19-1.58a21.1,21.1,0,0,1,.44-2.23c.16-.65.35-1.34.57-2.08.08-.28.18-.58.27-.88.17-.55.35-1.11.53-1.67h0a113.35,113.35,0,0,1,5.43-24c-2.94,3.66-5.64,12.12-7.3,20.25h0c0,.14-.05.28-.08.42h0C179.88,51.37,179.42,54.33,179.15,57Z"/><path class="cls-6" d="M181.6,60a.92.92,0,0,1-.42.21.65.65,0,0,1-.24,0c.64.22,1.15-.27,1.3-1.17A3.55,3.55,0,0,1,181.6,60Z"/><path class="cls-6" d="M180.56,47.94h0c0,.13-.05.27-.08.41h0C180.51,48.22,180.53,48.08,180.56,47.94Z"/><path class="cls-7" d="M181.9,53.41c-.09.3-.19.6-.27.88-.22.74-.41,1.43-.57,2.08a21.1,21.1,0,0,0-.44,2.23c-.1.82-.05,1.38.19,1.58,0,0,.05.06.09.07l0,0a.65.65,0,0,0,.24,0,.92.92,0,0,0,.42-.21,3.55,3.55,0,0,0,.64-.94h0c1.95-3.91,3.36-16.22,4.07-17.77-.44,1-2.37,5.84-3.88,10.41h0C182.25,52.3,182.07,52.86,181.9,53.41Z"/><path class="cls-7" d="M180.92,60.27s0,0,0,0h0s0,0,0,0h0Z"/><path class="cls-7" d="M180.94,60.27l0,0s0,0,0,0Z"/><path class="cls-7" d="M180.62,58.6a21.1,21.1,0,0,1,.44-2.23A21.1,21.1,0,0,0,180.62,58.6Z"/><path class="cls-7" d="M180.81,60.18s.05.06.09.07h0S180.84,60.2,180.81,60.18Z"/><path class="cls-7" d="M180.94,60.27h0a.65.65,0,0,0,.24,0A.65.65,0,0,1,180.94,60.27Z"/><path class="cls-7" d="M181.6,60a3.55,3.55,0,0,0,.64-.94h0A3.55,3.55,0,0,1,181.6,60Z"/><path class="cls-7" d="M181.9,53.41c.17-.55.35-1.11.53-1.67h0C182.25,52.3,182.07,52.86,181.9,53.41Z"/><path class="cls-2" d="M194.17,17.89v0a14.28,14.28,0,0,0-2.4.77,12,12,0,0,0-3.74,2.5,17.37,17.37,0,0,0-2.77,3.56,32.14,32.14,0,0,0-2,4c-.58,1.39-1.12,2.79-1.57,4.23a29.63,29.63,0,0,0-1.47,8.85,26.79,26.79,0,0,1,.47-4.47A34.16,34.16,0,0,1,181.77,33c.46-1.43,1-2.82,1.6-4.2a31.28,31.28,0,0,1,2-4,17.14,17.14,0,0,1,2.73-3.54,11.75,11.75,0,0,1,3.69-2.5,17,17,0,0,1,4.32-1.17c1.48-.23,3-.33,4.47-.43-1.49.07-3,.15-4.48.36C195.46,17.62,194.81,17.74,194.17,17.89Z"/><path class="cls-8" d="M202.2,17.27a.94.94,0,0,0,.64-.64.56.56,0,0,0-.47-.69.72.72,0,0,0-.32.08,2.28,2.28,0,0,0-1.26,1.34A6.27,6.27,0,0,0,202.2,17.27Z"/><path class="cls-8" d="M200.79,17.36h-.1l.08,0Z"/><path class="cls-8" d="M198.46,17a5.86,5.86,0,0,0,1.3-1.05.51.51,0,0,0,.14-.34.36.36,0,0,0-.44-.29.93.93,0,0,0-.5.3C198.58,16,198.23,16.56,198.46,17Z"/><path class="cls-8" d="M198.34,17.08h.16a.25.25,0,0,1,0-.07Z"/><path class="cls-8" d="M196.5,17.15l-.06-.1-.07,0Z"/><path class="cls-8" d="M197.17,16.18a1.6,1.6,0,0,0,.08-.81.52.52,0,0,0-.61-.4.61.61,0,0,0-.31.32,1.74,1.74,0,0,0,.11,1.76A1.64,1.64,0,0,0,197.17,16.18Z"/><path class="cls-8" d="M200,17.85a1.71,1.71,0,0,0-1-.21,1.65,1.65,0,0,0,.26,1.14.68.68,0,0,0,1,.1A.72.72,0,0,0,200,17.85Z"/><path class="cls-8" d="M199,17.56l-.18.08H199S199,17.59,199,17.56Z"/><path class="cls-8" d="M196.16,18.23a1.47,1.47,0,0,0,.66.78,1.18,1.18,0,0,0,.63.29.69.69,0,0,0,.49-1.06C197.68,17.88,196.6,17.94,196.16,18.23Z"/><path class="cls-8" d="M196.07,18.3l.09-.07a.22.22,0,0,0,0-.08Z"/><path class="cls-8" d="M194.15,17.67a.14.14,0,0,1-.09,0l.1.22h0Z"/><path class="cls-8" d="M195,17.1a2,2,0,0,0,.15-1.12.66.66,0,0,0-.09-.31c-.19-.28-.66-.18-.85.11a1.55,1.55,0,0,0-.12,1c0,.31.05.61.08.91A1,1,0,0,0,195,17.1Z"/><path class="cls-8" d="M194.17,17.89h0v0Z"/><path class="cls-8" d="M193.75,18.58c-.06.29.41.58.7.69a1.83,1.83,0,0,0,.9,0c.18,0,.39-.08.41-.26a.41.41,0,0,0-.16-.29A1.67,1.67,0,0,0,193.75,18.58Z"/><path class="cls-8" d="M192.94,16a.6.6,0,0,0-.5.35A1.37,1.37,0,0,0,192.7,18c.08-.35.64-1,.68-1.26S193.27,16,192.94,16Z"/><path class="cls-8" d="M192.78,18.1,192.7,18a.15.15,0,0,0,0,.07Z"/><path class="cls-8" d="M193,19.29a4.09,4.09,0,0,0-1.49.45,1.52,1.52,0,0,0,1,.74.91.91,0,0,0,1.05-.69.45.45,0,0,0-.15-.43A.64.64,0,0,0,193,19.29Z"/><path class="cls-8" d="M191.39,19.78l.08,0a.36.36,0,0,1-.07-.1Z"/><path class="cls-8" d="M190.35,17.79a1.2,1.2,0,0,0,.69.72h0a3.65,3.65,0,0,0,.22-1.39,1.26,1.26,0,0,0-.13-.66.42.42,0,0,0-.58-.16.71.71,0,0,0-.16.28A2,2,0,0,0,190.35,17.79Z"/><path class="cls-8" d="M191,18.51a.33.33,0,0,1,0,.06h.22a.67.67,0,0,1-.19,0Z"/><polygon class="cls-8" points="191.04 18.51 191.04 18.52 191.04 18.51 191.04 18.51 191.04 18.51"/><path class="cls-8" d="M190.65,20.6a6.23,6.23,0,0,0-1.11.59,2.77,2.77,0,0,0,.88.5,1,1,0,0,0,1-.2.59.59,0,0,0-.08-.88A.88.88,0,0,0,190.65,20.6Z"/><path class="cls-2" d="M179.92,30.86c.84-2.1,1.74-4.17,2.77-6.18a37.67,37.67,0,0,1,3.8-6,26.23,26.23,0,0,1,5-5,20.4,20.4,0,0,1,6.29-3.27,19.54,19.54,0,0,0-6.35,3.18,26.84,26.84,0,0,0-5.09,5,39.09,39.09,0,0,0-3.76,6.07,60.35,60.35,0,0,0-2.68,6.18v.05Z"/><path class="cls-2" d="M179.92,30.86v-.05c0,.13-.1.25-.14.38C179.82,31.08,179.87,31,179.92,30.86Z"/><path class="cls-8" d="M198.05,11.77a.4.4,0,0,0-.11-.2c-.43-.45-1.25-.19-1.83,0a1.73,1.73,0,0,0,.8.69,1,1,0,0,0,1-.18A.39.39,0,0,0,198.05,11.77Z"/><path class="cls-8" d="M191.67,14.6a11.39,11.39,0,0,0-1.31.13,2.38,2.38,0,0,0,1.74.56.37.37,0,0,0,.18,0,.32.32,0,0,0,0-.52A.89.89,0,0,0,191.67,14.6Z"/><path class="cls-8" d="M192.27,13.32c0,.25.17.87.4,1a1.46,1.46,0,0,0,.72.06,1.09,1.09,0,0,0,.64-.21.44.44,0,0,0,.07-.61.69.69,0,0,0-.43-.13Z"/><path class="cls-8" d="M195.08,13.52c.42.1,1-.14,1-.57s-.43-.75-.86-.73a2.37,2.37,0,0,0-1.16.53A2.29,2.29,0,0,0,195.08,13.52Z"/><path class="cls-8" d="M191.73,12.66l0,0,0,0Z"/><path class="cls-8" d="M189.54,12c-.27.09-.34.44-.32.73a2.35,2.35,0,0,0,.66,1.45,5.91,5.91,0,0,0,.3-1.15,1.35,1.35,0,0,0-.05-.72A.5.5,0,0,0,189.54,12Z"/><path class="cls-8" d="M192.24,10.63a.41.41,0,0,0-.57-.1.82.82,0,0,0-.32.55,1.81,1.81,0,0,0,.4,1.53,4.12,4.12,0,0,0,.53-1.63A.59.59,0,0,0,192.24,10.63Z"/><path class="cls-8" d="M187.46,13.83a1.11,1.11,0,0,0-.1,1,1.56,1.56,0,0,0,.94.75,3.19,3.19,0,0,0,.17-1.47,1,1,0,0,0-.1-.33A.59.59,0,0,0,187.46,13.83Z"/><path class="cls-8" d="M190.32,14.74h0l-.09-.07Z"/><path class="cls-9" d="M154.18,57.78h0c-.31-1.5-3.47-19.2-3.47-19.2l-2.4-12.39c-.52,8.69,3.34,26.59,4.83,33.14l.33.16a1.45,1.45,0,0,0,.29.11l.22,0c0-.24.06-.51.09-.79h0c0-.14,0-.3.05-.45l.06-.62Z"/><path class="cls-4" d="M154.64,50.91c0-.84,0-1.68,0-2.5v0c0-1.17-.06-2.28-.16-3.3,0-.24-.05-.49-.08-.72s-.1-.77-.17-1.19c-.2-1.32-.47-2.92-.79-4.67-.12-.69-.25-1.39-.39-2.11h0c-.31-1.65-.64-3.37-1-5v0s0,0,0,0C151,25.68,150,20.65,150,20.65c-.11,3,2.77,28.45,4.21,37.05,0,0,0,.06,0,.08h0C154.37,55.83,154.57,53.37,154.64,50.91Z"/><polygon class="cls-4" points="154.18 57.78 154.18 57.78 154.18 57.78 154.18 57.78"/><path class="cls-5" d="M156,40.3c-.15.83-.28,1.65-.42,2.44-.39,2.37-.72,4.44-.88,5.67,0,.82,0,1.66,0,2.5-.07,2.46-.27,4.92-.46,6.88h0l-.06.62c0,.15,0,.31-.05.45.15-.42,6.82-19.1,5.09-37.31C159.14,22.42,157.31,32.51,156,40.3Z"/><path class="cls-5" d="M154.18,57.79h0l-.06.62.06-.62Z"/><path class="cls-5" d="M154.18,57.79c.19-2,.39-4.42.46-6.88-.07,2.46-.27,4.92-.46,6.87Z"/><polygon class="cls-5" points="154.18 57.78 154.18 57.78 154.18 57.78 154.18 57.78 154.18 57.78"/><path class="cls-7" d="M153.48,38.51c.32,1.75.59,3.35.79,4.67.07.42.12.83.17,1.19s.06.48.08.72c.1,1,.15,2.13.16,3.3v0c.16-1.23.49-3.3.88-5.67.14-.79.27-1.61.42-2.44q.06-3.94.12-7.3h0c.24-13.38.4-19.88.4-19.88-2.74,5-3.3,19.46-3.41,23.28h0C153.23,37.12,153.36,37.82,153.48,38.51Z"/><path class="cls-7" d="M154.27,43.18c.07.42.12.83.17,1.19s.06.48.08.72c0-.24-.05-.49-.08-.72S154.34,43.6,154.27,43.18Z"/><path class="cls-7" d="M153.48,38.51c-.12-.69-.25-1.39-.39-2.11h0C153.23,37.12,153.36,37.82,153.48,38.51Z"/><path class="cls-2" d="M163.69,14a1.31,1.31,0,0,1,.24-.17A19.14,19.14,0,0,1,166,11.87a17.54,17.54,0,0,1,7.2-3.3c-.65.16-1.31.29-1.94.49a17.54,17.54,0,0,0-1.88.68,15.73,15.73,0,0,0-3.44,2,18.08,18.08,0,0,0-1.57,1.33h0a20.78,20.78,0,0,0-3.68,4.66,32.41,32.41,0,0,0-3.11,7.36c-.37,1.28-.67,2.58-.94,3.89s-.44,2.63-.58,4a50.48,50.48,0,0,1,1.62-7.82,32.46,32.46,0,0,1,3.14-7.32A21.19,21.19,0,0,1,163.73,14Z"/><path class="cls-2" d="M151.93,26.33a47.08,47.08,0,0,1,.25-4.75,32.86,32.86,0,0,1,2.21-9.22A17.66,17.66,0,0,1,160,4.81l1-.68c.33-.21.69-.39,1-.59a14.05,14.05,0,0,1,2.18-.94,18.83,18.83,0,0,1,4.65-.94,18.76,18.76,0,0,0-4.68.87,13.58,13.58,0,0,0-2.19.93c-.35.2-.7.38-1,.59l-1,.68a17.75,17.75,0,0,0-5.65,7.57,33.21,33.21,0,0,0-2.17,9.27,45.22,45.22,0,0,0,0,9.52A42,42,0,0,1,151.93,26.33Z"/><path class="cls-8" d="M165.15,12.86l.07.1a.13.13,0,0,1-.07-.1Z"/><path class="cls-8" d="M165.09,14.47c.31,0,.63-.31.51-.59a.6.6,0,0,0-.39-.28,1.57,1.57,0,0,0-1.28.19l-.2.21A4.08,4.08,0,0,0,165.09,14.47Z"/><path class="cls-8" d="M163.73,14l.2-.21a1.31,1.31,0,0,0-.24.17Z"/><path class="cls-8" d="M166.51,12.38a3.53,3.53,0,0,0-1,.12.51.51,0,0,0-.33.15.23.23,0,0,0-.06.21,2.41,2.41,0,0,0,2.15.23.21.21,0,0,0,.11-.12.24.24,0,0,0,0-.16A1.11,1.11,0,0,0,166.51,12.38Z"/><path class="cls-8" d="M164.29,13.07a1.52,1.52,0,0,0-.42-1.7,2.46,2.46,0,0,0-.12,1,.85.85,0,0,0,.66.71h0Z"/><path class="cls-8" d="M164.41,13.12Z"/><path class="cls-9" d="M131.19,52.72c0-.19,0-.38-.07-.57v0c-.06-.41-.12-.83-.19-1.25-.12-.7-.26-1.4-.39-2.1,0-.14,0-.28-.08-.42v0c-.48-2.41-1-4.79-1.28-7.21-.14-1.09-.29-2.18-.45-3.28h0q-.27-1.91-.57-3.81c-.44-2.84-.74-3.28-1.25-6.1-.24-1.36-.49-2.72-.74-4.08-.13-.67-.25-1.34-.38-2-.07-.35-.13-.7-.2-1,0-.19-.23-.71-.16-.88-1.38,3.49-.38,9.39,0,13.1.87,8.78,3.83,13.58,5,22.17h0a2.93,2.93,0,0,1,0,.66c0,.06.07,1.13.12,1.79a.56.56,0,0,0,.56.52h.5a15.42,15.42,0,0,0-.1-2.88l-.18-1.52C131.27,53.4,131.23,53.06,131.19,52.72Z"/><path class="cls-4" d="M131.26,52.4c0,.11,0,.21-.07.32,0,.34.08.68.13,1l.18,1.52a15.42,15.42,0,0,1,.1,2.88c2-6.48,4.58-12.13,5.84-18.73.87-4.51,2.38-7.91,1.93-12.47a55.24,55.24,0,0,1-4.55,15.26c-.14.33-.28.67-.43,1-.3.71-.63,1.45-.95,2.22a33.35,33.35,0,0,0-1.92,5.66h0C131.42,51.51,131.34,52,131.26,52.4Z"/><path class="cls-4" d="M131.5,55.26l-.18-1.52Z"/><path class="cls-5" d="M130.28,21.23c-.15.82-.27,1.64-.38,2.47-.08,7-.06,14,.52,20.44,0-.29,0-.58,0-.87,0-1.36.1-2.74.22-4.19a34.63,34.63,0,0,1,.59-4.19c.55-2.72,1.34-4.91,2.16-8.24-.33-3.67-.83-7.34-1.45-11l-.15.34A20.92,20.92,0,0,0,130.28,21.23Z"/><path class="cls-5" d="M131.68,16c.07-.19.16-.36.24-.54-.55-3.22-1.18-6.41-1.86-9.56.06,5.42-.07,11.19-.15,17,.08-.55.15-1.09.24-1.62A21.32,21.32,0,0,1,131.68,16Z"/><path class="cls-2" d="M129.44,26.64c-.4,3.63-.63,7.27-.72,10.92q.22-5.46.82-10.91c.11-1,.23-2,.36-2.95,0-.29,0-.58,0-.87C129.73,24.09,129.58,25.36,129.44,26.64Z"/><path class="cls-2" d="M141.1,2.6a17.7,17.7,0,0,0-2,1.88l-.91,1c-.29.35-.58.71-.85,1.07-1.11,1.46-2.09,3-3.07,4.54a38,38,0,0,0-2.36,4.29c0,.08,0,.17.05.26a34,34,0,0,1,2.42-4.48c1-1.55,1.94-3.09,3-4.55.27-.36.55-.72.84-1.07l.91-1a17.51,17.51,0,0,1,2-1.88A14.34,14.34,0,0,1,145.74.05h0A14.23,14.23,0,0,0,141.1,2.6Z"/><path class="cls-2" d="M145.74.05h0l.15,0Z"/><path class="cls-2" d="M131.68,16a21.32,21.32,0,0,0-1.53,5.26c-.09.53-.16,1.07-.24,1.62,0,.29,0,.58,0,.87.11-.83.23-1.65.38-2.47A20.92,20.92,0,0,1,131.82,16l.15-.34c0-.09,0-.18-.05-.26C131.84,15.59,131.75,15.76,131.68,16Z"/><path class="cls-7" d="M130.45,43.27c0,.29,0,.58,0,.87,0,1.41,0,2.79,0,4.16v0c0,.14,0,.28.08.42.13.7.27,1.4.39,2.1.07.42.13.84.19,1.25v0c0,.19,0,.38.07.57,0-.11,0-.21.07-.32.08-.45.16-.89.26-1.3h0c-.32-5.49.42-6.91,2.09-12.54.92-3.13,2-5.33,2.87-7.69v-.05a28.31,28.31,0,0,1,1.09-3.61v0c0-.15.07-.33.1-.49,0,.08-.07.16-.1.25l.11-.3c0-.2.08-.39.11-.59A128.49,128.49,0,0,0,139.43,6.2c-1.74,3.66-2.72,8.11-3.8,12.05-.78,2.85-1.54,5.63-2.21,8.4-.82,3.33-1.61,5.52-2.16,8.24a34.63,34.63,0,0,0-.59,4.19C130.55,40.53,130.48,41.91,130.45,43.27Z"/><path class="cls-7" d="M131.12,52.11c-.06-.41-.12-.83-.19-1.25-.12-.7-.26-1.4-.39-2.1.13.7.27,1.4.39,2.1C131,51.28,131.06,51.7,131.12,52.11Z"/><path class="cls-7" d="M131.26,52.4c.08-.45.16-.89.26-1.3h0C131.42,51.51,131.34,52,131.26,52.4Z"/><path class="cls-7" d="M130.45,43.27c0-1.36.1-2.74.22-4.19a34.63,34.63,0,0,1,.59-4.19,34.63,34.63,0,0,0-.59,4.19C130.55,40.53,130.48,41.91,130.45,43.27Z"/><path class="cls-2" d="M139.45,22.17c.64-1.57,1.34-3.13,2.13-4.64a30.35,30.35,0,0,1,2.68-4.34,21.88,21.88,0,0,1,3.5-3.7,19.28,19.28,0,0,0-3.58,3.64,29.09,29.09,0,0,0-2,3l.1,0-.11,0c-.24.42-.5.83-.72,1.26-.78,1.52-1.46,3.09-2.1,4.68s-1.14,3-1.66,4.5v.05C138.26,25.18,138.84,23.67,139.45,22.17Z"/><path class="cls-2" d="M137.68,26.69v-.05l-.11.3C137.61,26.85,137.65,26.77,137.68,26.69Z"/><path class="cls-8" d="M143.28,12.82c-.13-.19-.46-.12-.58.08a.89.89,0,0,0,0,.68c.09.33.31.7.65.71l-.21-.08a3.3,3.3,0,0,0,.22-1.08A.47.47,0,0,0,143.28,12.82Z"/><path class="cls-8" d="M142.24,14.83a.5.5,0,0,0-.76.08.73.73,0,0,0,.07.83,1.28,1.28,0,0,0,.54.4h0C142.08,15.69,142.52,15.19,142.24,14.83Z"/><path class="cls-8" d="M144.29,11c-.38-.1-.71.39-.6.76a1.3,1.3,0,0,0,.86.75C144.63,12.08,144.71,11.11,144.29,11Z"/><path class="cls-8" d="M142.09,16.14h0v.05h.08v0Z"/><path class="cls-8" d="M142.18,16.18v0l.11,0Z"/><path class="cls-8" d="M143.57,16.31a.35.35,0,0,0-.32-.36.53.53,0,0,0-.24.11,4.74,4.74,0,0,0-.92,1.29,1.8,1.8,0,0,0,1.25-.57A.73.73,0,0,0,143.57,16.31Z"/><path class="cls-8" d="M143.75,15.36a1.59,1.59,0,0,0,.6-.17c.21-.1.46-.26.44-.49a.4.4,0,0,0-.51-.3,3.64,3.64,0,0,0-1,.64A.5.5,0,0,0,143.75,15.36Z"/><path class="cls-8" d="M146.07,12.77c0-.06.05-.13,0-.17s-.11-.06-.18-.06c-.51,0-1.14.66-1.54,1A1.38,1.38,0,0,0,146.07,12.77Z"/></g></svg>