<svg xmlns="http://www.w3.org/2000/svg" viewBox="0 0 188.33 223.01"><defs><style>.cls-1{fill:none;}.cls-2{fill:#d75b4d;}.cls-3{fill:#fff2e1;}.cls-4{fill:#f3a95a;}.cls-5{fill:#f9c241;}.cls-6{fill:#b05226;}.cls-7{fill:#f26350;}.cls-8{fill:#23689c;}.cls-9{fill:#f0644f;}.cls-10{fill:#ac6a28;}.cls-11{fill:#faf2de;}.cls-12{fill:#172d55;}.cls-13{fill:#ce2127;}.cls-14{fill:#fcda0d;}.cls-15{fill:#e65145;}.cls-16{fill:#e7f0df;}.cls-17{fill:#487f3b;}.cls-18{fill:#195a3a;}.cls-19{fill:#dfdbd0;}.cls-20{fill:#b2bf61;}.cls-21{fill:#e8eede;}.cls-22{fill:#503e30;}</style></defs><title>p4me</title><g id="รวม"><polygon class="cls-1" points="188.34 223.01 188.34 223.01 114.48 1.44 188.34 223.01"/><polygon class="cls-2" points="43.86 87.74 43.52 87.88 43.52 93.72 43.86 93.57 43.86 87.74"/><path class="cls-2" d="M110.68,76.65c-4.54,0-9.39-.1-13.65-.13,1.93,0,4.15.09,6.73.11S108.62,76.65,110.68,76.65Z"/><path class="cls-2" d="M52.59,84.32l-.57.22v5.55l.49-.22h.08V77.71c-3.44,0-6.57-.07-9.07-.11v9l9.07-3.37Z"/><path class="cls-2" d="M114.12,127.14a2.47,2.47,0,0,1-.4.9A2.47,2.47,0,0,0,114.12,127.14Z"/><polygon class="cls-2" points="50.4 85.18 50.4 90.78 51.07 90.49 51.07 84.92 50.4 85.18"/><polygon class="cls-2" points="91.2 60.31 90.95 60.81 90.95 60.81 91.2 60.31 91.2 60.31"/><path class="cls-2" d="M115.5,112.57h0l.12,0Z"/><path class="cls-2" d="M134.8,119.34a1.9,1.9,0,0,1,.25,0A1.9,1.9,0,0,0,134.8,119.34Z"/><polygon class="cls-2" points="54.49 89.84 55.4 89.83 55.4 84.26 56.62 84.26 56.62 89.81 57.64 89.79 57.64 84.26 58.86 84.26 58.86 89.77 59.57 89.75 59.57 90.03 59.57 84.26 54.49 84.26 54.49 89.84"/><path class="cls-2" d="M59.57,83.25V77.76l-5.08,0v5.53Z"/><polygon class="cls-2" points="48.53 85.91 48.53 91.58 49.45 91.19 49.45 85.55 48.53 85.91"/><path class="cls-2" d="M135.68,122.22c.46.63-.24,2.35-.6,3.15.36-.8,1.06-2.52.6-3.15-.26-.36-.88-.37-1.5-.28C134.8,121.85,135.42,121.86,135.68,122.22Z"/><polygon class="cls-2" points="44.81 87.37 44.81 93.17 45.72 92.78 45.72 87.01 44.81 87.37"/><polygon class="cls-2" points="131.98 120.55 131.71 119.65 131.71 119.65 131.98 120.55 132.28 121.57 131.98 120.55 131.98 120.55"/><path class="cls-2" d="M114.48,1.44,114,0A239.06,239.06,0,0,0,0,81.32L188.33,223Zm-76.06,100V99.66h0l1.66-.86h0V97.11h0l1.54-.85h0V94.54h0v-17c-2.21,0-3.64-.1-3.91-.16-1.68-.36,8.12-15.74,8.12-15.74v-1.3h0l45.36-.06V58.74h.12l29.5,0v1.44h0c1.87,6.56,7.2,15.43,6.06,15.93a15.52,15.52,0,0,1-4,.48l-.12,27.32h-36v-.15h0v-2.3H38.42Zm74.47,13.52,1.08,2.72a7.41,7.41,0,0,0-2.37-.48A12.79,12.79,0,0,1,112.89,114.92Zm-11,10.58a4,4,0,0,0-1.23.71s1.09,1.19.21,2.17-1.2-.61-1.2-.61l1-1.55c-2.32,2-1.33,6.23-2.47,8.72a6.78,6.78,0,0,1-4.49,3.56l-.39,2.41,1.47.32a.15.15,0,0,1,.11.17.14.14,0,0,1-.14.1h0l-1.36-.29.4,1a.14.14,0,0,1-.08.18h0a.17.17,0,0,1-.13-.09L93,141.07s0,0,0,0v0l.39-2.41a16,16,0,0,1-2.7.52L90.32,143l.78.86a.13.13,0,0,1,0,.19.18.18,0,0,1-.09,0,.12.12,0,0,1-.1-.05l-.68-.74-.42,1.12a.13.13,0,0,1-.12.08h-.05a.13.13,0,0,1-.08-.17L90,143l.39-3.86a30.92,30.92,0,0,1-3.3.16c-5.6,0-10.07-11.17-9.42-10.61a5.21,5.21,0,0,0,2.51.52c-1.59-.83-1.61-3.39-1.56-4.29a.13.13,0,0,1,.22-.09c.81.85,4,3.64,9.68,2.14,6.66-1.76,3.5-4.87,7.82-6.22a3.45,3.45,0,0,1,1.27-.14l-.11,0s-.79-1.79-.36-2.2.87,1,.87,1,0-.66.54-.79.89,1.23.89,1.23.22-.71.69,0-.09,1.41-.26,1.67h0a11.56,11.56,0,0,1,2.21,1.78h0a16.09,16.09,0,0,1,1.65,2,6.47,6.47,0,0,0-1.87.36Zm12.87,9.84-2.28,2.11a3.22,3.22,0,0,0,0-1.65,3.22,3.22,0,0,1,0,1.65,4.16,4.16,0,0,1-2.42,2.71.24.24,0,0,1,0,.08l-.27,2.06,1.15.26a.14.14,0,0,1,.11.16.15.15,0,0,1-.14.11h0l-1.27-.28a.13.13,0,0,1-.1-.15l.27-2.1-.27.12a5.1,5.1,0,0,1-1.2.34v2.41l1.16.26a.14.14,0,0,1,.1.17.13.13,0,0,1-.13.1h0l-1.27-.29a.14.14,0,0,1-.11-.13v-2.48c-2.75.23-4.32-2.39-5.16-2.94a.23.23,0,0,1,.11-.43c1.27-.12,1.33.9,3.76-1.84,2.77-3.13,5.27-.53,5.27-.53h2.62A.17.17,0,0,1,114.77,135.34Zm.67-6.68h-2.27a2.28,2.28,0,0,0,.22-.22,2.28,2.28,0,0,1-.22.22,3.29,3.29,0,0,1-2,.69v0l-.15,1.16,1,.23a.13.13,0,0,1,.1.16.13.13,0,0,1-.13.11h0l-1.13-.26a.13.13,0,0,1-.1-.15l.16-1.28a4.58,4.58,0,0,1-.86-.09l-.09,1.8,1,.23a.15.15,0,0,1,.11.17.14.14,0,0,1-.14.1h0l-1.12-.26a.13.13,0,0,1-.11-.14l.1-1.93v0l-.26-.06c-3.43-.9-2.47-4.55-2.81-5.53a.21.21,0,0,1,.31-.24c1,.6,0,1.49,3.16.88,3.63-.71,4,2.47,4,2.47a.57.57,0,0,1,0,.23h0l1.31,1.63A0,0,0,0,1,115.44,128.66Zm23.13.91h0c.05-.17,1.94-8,0-10.95s-7.16.28-7.75.64h0c.59-.36,5.9-3.46,7.75-.64s.05,10.78,0,10.95a11.34,11.34,0,0,0-1.77-2.32h0c0-.17,1.93-6.31,0-7.56a2.64,2.64,0,0,0-1.58-.39,2.72,2.72,0,0,1,1.58.39c1.93,1.25,0,7.39,0,7.56a8.93,8.93,0,0,0-1.92-1.46h0a5.87,5.87,0,0,0-1.53-.64l-.4-1.35.4,1.35c-1.9,1.58-4,3.1-5.76,3.46l1,5h0v0s0,0,0,0a.06.06,0,0,1,0,0l-.88,1.42a.15.15,0,0,1-.12.07l-.07,0a.14.14,0,0,1,0-.19l.76-1.22h-1.95a.13.13,0,0,1-.13-.13.13.13,0,0,1,.13-.14h2l-1-4.84h0a2.59,2.59,0,0,1-.47,0,10.82,10.82,0,0,1-5.84-2.37l-.06,5.08.74,1.61a.14.14,0,0,1-.07.18h-.06a.13.13,0,0,1-.12-.08l-.68-1.47-1.33,1.1a.16.16,0,0,1-.09,0,.11.11,0,0,1-.1,0,.13.13,0,0,1,0-.19l1.42-1.17.06-5.15a.11.11,0,0,1,0-.08,9.67,9.67,0,0,1-2.7-2.94c-.46-.93-.82-2.12-1.45-3.19,0,0,.09,3-1,2.85-.78-.11-.9-1.26-.91-1.86a0,0,0,0,0-.09,0c-.13.4-.41.91-.88.33-1.13-1.4,1-3.29,1-3.29a4.27,4.27,0,0,0-.77-.39l-1.08-2.72a7.12,7.12,0,0,1,2.61-2.35h0c-.13-.11-2.86-2.55-.71-3.63S117,110,117,110a1.08,1.08,0,0,1,1.1-1.1c1.1,0,2.19,1.1,1.1,2.19.09,0,2.19-1.07,2.19,0s-2,1.87-2,1.89h0a3.78,3.78,0,0,0-2.36-.79,4.6,4.6,0,0,0-.52.06,4.88,4.88,0,0,1,.52-.06,3.76,3.76,0,0,1,2.36.79h0c1.54,1.11,2.93,3.17,7.52,4.7,1.06.36,1.94.69,2.73,1,0,0,4.08-6.24,9.89-2.67,4,2.44,0,15.37,0,15.37A12.06,12.06,0,0,0,138.57,129.57Z"/><polygon class="cls-2" points="46.67 86.64 46.67 92.37 47.58 91.98 47.58 86.28 46.67 86.64"/><polygon class="cls-2" points="188.34 223.01 188.34 223.01 0 81.32 0 81.32 188.34 223.01"/><polygon class="cls-3" points="62.76 89.17 61.47 89.17 61.47 94.44 61.47 94.48 62.76 94.48 62.76 89.17"/><polygon class="cls-3" points="73.91 92.86 73.91 94.49 75.32 94.49 75.32 92.88 73.91 92.86"/><path class="cls-3" d="M61.47,77.77v10H70l0-5.43,8.81,0,0,5.39h7.89v1.35h0v2.25h0l.06-13.54C84.8,77.88,73,77.85,61.47,77.77ZM69,83.58l-6.36,0c0-.38,0-3.42,0-3.42l6.36,0Zm17.22.07-6.36,0c0-.38,0-3.42,0-3.42l6.35,0Z"/><rect class="cls-3" x="67.43" y="89.17" width="1.58" height="5.32"/><rect class="cls-3" x="64.3" y="89.17" width="1.6" height="5.32"/><polygon class="cls-3" points="85.1 94.46 85.1 89.17 83.29 89.17 83.29 94.46 81.75 94.46 81.75 89.17 80.11 89.17 80.11 94.47 78.57 94.47 78.57 92.93 76.86 92.91 76.86 94.49 86.71 94.5 86.71 94.46 85.1 94.46"/><polygon class="cls-3" points="86.71 97.58 86.71 95.71 61.47 95.71 61.47 96.26 61.42 96.26 61.42 96.26 61.47 96.26 61.47 97.11 61.45 97.11 61.45 98.8 61.42 98.8 61.42 98.8 61.42 98.8 61.42 99.66 61.42 99.66 61.42 101.4 86.69 101.4 86.71 97.58"/><polygon class="cls-3" points="70.55 92.81 70.55 94.49 72.37 94.49 72.37 92.84 70.55 92.81"/><polygon class="cls-4" points="76.86 94.49 76.86 94.56 75.32 94.56 75.32 94.49 73.91 94.49 73.91 94.51 72.37 94.51 72.37 94.49 70.55 94.49 70.55 94.51 69.01 94.51 69.01 94.49 67.43 94.49 67.43 94.56 65.89 94.56 65.89 94.48 64.3 94.48 64.3 94.52 62.76 94.52 62.76 94.48 61.47 94.48 61.47 95.71 86.71 95.71 86.71 94.5 76.86 94.49"/><polygon class="cls-4" points="73.91 89.17 73.91 92.86 75.32 92.88 75.32 89.17 73.91 89.17"/><polygon class="cls-4" points="70.55 89.17 70.55 92.81 72.37 92.84 72.37 89.17 70.55 89.17"/><polygon class="cls-4" points="78.87 82.43 70.06 82.39 70.04 87.82 78.85 87.82 78.87 82.43"/><polygon class="cls-4" points="76.86 89.17 76.86 92.91 78.57 92.93 78.57 89.17 76.86 89.17"/><path class="cls-5" d="M43.52,77.55v0c2.5,0,5.63.08,9.07.11h1.9v0l5.08,0h1.85V76.19H72.59a1.16,1.16,0,0,1-.38-.35,3.35,3.35,0,0,1-.47-1.49,3.39,3.39,0,0,1-.69,1.57.61.61,0,0,1-1-.19,3.62,3.62,0,0,1-.18-1.93l0-.19a4.13,4.13,0,0,1-.34.54,2.37,2.37,0,0,1-1.79,1.1c-.45,0-.53-.43-.47-.8a7.65,7.65,0,0,1,1.33-2.66c.11-.16.37,0,.26.15-.23.35-.45.71-.65,1.08a8.38,8.38,0,0,0-.47,1,1.67,1.67,0,0,0-.18.79c0,.3.4.17.61.1a2.47,2.47,0,0,0,1.12-.9,4.43,4.43,0,0,0,.74-1.45.15.15,0,0,1,.29.08c-.09.46-.58,3.33.3,3.22.24,0,.39-.39.48-.59a6.66,6.66,0,0,0,.34-1.07,13.45,13.45,0,0,0,.26-1.41c0-.19.32-.2.3,0a9.22,9.22,0,0,0,0,1.39c0,.56.15,1.67.81,1.88,1.26.39,1.25-2.19,1.2-2.9,0-.2.29-.19.31,0,.07.82.44,2.17,1.44,2.21s.2-1.71-.08-2.17c-.1-.17.17-.32.27-.15.37.61,1.29,2.5,0,2.62-.84.08-1.35-.56-1.63-1.29l0,.33a2.16,2.16,0,0,1-.74,1.53H85.86c-3.38-.49-2.06-1.34-2.06-1.34l7.15-14h0l-.44.86H45.84l44.33.39-44.33-.39h0v-1.3h0v1.3S36,77.05,37.7,77.41c.27.06,1.7.11,3.91.16v0ZM76,65.34a7.63,7.63,0,0,1,1.32-2.66c.11-.16.38,0,.27.16-.24.34-.45.71-.66,1.07a8.31,8.31,0,0,0-.46,1,1.56,1.56,0,0,0-.19.79c.06.3.41.17.62.1a2.51,2.51,0,0,0,1.12-.89,4.65,4.65,0,0,0,.73-1.46.16.16,0,0,1,.3.08c-.09.46-.59,3.34.29,3.22.25,0,.4-.39.48-.58A5,5,0,0,0,80.2,65a13,13,0,0,0,.26-1.41c0-.19.32-.2.31,0a9.33,9.33,0,0,0,0,1.4c0,.56.15,1.66.81,1.87,1.26.39,1.25-2.19,1.19-2.9,0-.19.29-.19.31,0,.07.83.44,2.17,1.45,2.21s.19-1.71-.08-2.17a.15.15,0,0,1,.26-.15c.37.62,1.29,2.5,0,2.62-.83.08-1.34-.55-1.63-1.29,0,.11,0,.22,0,.33a2.08,2.08,0,0,1-.76,1.55,1,1,0,0,1-1.34-.37,3.48,3.48,0,0,1-.47-1.49,3.29,3.29,0,0,1-.69,1.57.61.61,0,0,1-1-.19,3.51,3.51,0,0,1-.17-1.93c0-.06,0-.12,0-.18a6,6,0,0,1-.33.54,2.36,2.36,0,0,1-1.8,1.09C76.05,66.12,76,65.71,76,65.34Zm-18.33,3.1c.1-.61.23-1.21.38-1.81a.15.15,0,0,1,.29.08c-.1.4-.78,2.78-.3,2.89s.88-1,1-1.26a10.27,10.27,0,0,0,.46-1.13.16.16,0,0,1,.3.09c-.07.35-.35,2.88.49,2.38.45-.27.6-1.19.71-1.66s.18-.87.22-1.18a.16.16,0,0,1,.31,0,10.34,10.34,0,0,0,.56,3c.12.26.21.3.45.09a1.91,1.91,0,0,0,.47-.83,6.23,6.23,0,0,0,.31-1.29c0-.18.29-.12.31,0A5.92,5.92,0,0,0,64,69.28c.14.42.71,1.45,1.16.72a5.17,5.17,0,0,0,.49-2c0-.44.08-.89.09-1.33a.16.16,0,0,1,.31,0,8.54,8.54,0,0,0,.12,1.23c.09.48.23,1.35.74,1.59.94.45.58-1.94.5-2.35,0-.2.25-.28.29-.08.14.65.55,2.94-.69,2.78-.68-.09-.94-1-1.07-1.54,0,0,0-.06,0-.09-.08.7-.3,2.81-1.44,2.29a2.23,2.23,0,0,1-1-1.72,5.2,5.2,0,0,1-.29.78c-.16.34-.71,1.15-1.16.71a1.73,1.73,0,0,1-.31-.69,9.68,9.68,0,0,1-.25-1.19c0-.18,0-.36-.08-.54,0,.23-.1.46-.16.68-.13.48-.36,1.41-1,1.52-.79.15-.92-.8-.87-1.67-.07.15-.13.29-.2.43C59,69.17,58.57,70,58,69.9S57.65,68.84,57.71,68.44Zm-14.1,1.08a7.85,7.85,0,0,1,1.32-2.65c.11-.17.38,0,.27.15-.24.35-.45.71-.66,1.08a8.31,8.31,0,0,0-.46,1,1.67,1.67,0,0,0-.19.79c.06.3.41.17.62.1a2.53,2.53,0,0,0,1.12-.9,4.6,4.6,0,0,0,.73-1.45.16.16,0,0,1,.3.08c-.09.46-.59,3.33.29,3.22.25,0,.4-.39.48-.59a5.12,5.12,0,0,0,.34-1.07A9.71,9.71,0,0,0,48,67.82c0-.19.32-.2.31,0a9.22,9.22,0,0,0,0,1.39c0,.56.15,1.67.81,1.87,1.26.4,1.25-2.19,1.19-2.89,0-.2.29-.19.31,0,.07.82.44,2.17,1.45,2.21s.19-1.71-.08-2.17c-.1-.17.16-.33.26-.16.37.62,1.29,2.51,0,2.63-.83.08-1.34-.56-1.63-1.3,0,.11,0,.23,0,.33a2.06,2.06,0,0,1-.76,1.55,1,1,0,0,1-1.34-.36A3.48,3.48,0,0,1,48,69.43,3.21,3.21,0,0,1,47.35,71a.61.61,0,0,1-1-.18,3.52,3.52,0,0,1-.17-1.93,1.48,1.48,0,0,1,0-.19,4.93,4.93,0,0,1-.34.54,2.4,2.4,0,0,1-1.79,1.1C43.63,70.31,43.54,69.9,43.61,69.52Z"/><path class="cls-5" d="M61.47,77.77c11.54.08,23.33.11,25.32.11V76.3l-.93-.11H73.57l0,0a.9.9,0,0,1-1,0H61.42v1.57h0Z"/><polygon class="cls-5" points="86.69 101.4 86.68 103.7 86.71 103.7 86.71 101.4 86.69 101.4"/><path class="cls-5" d="M110.68,76.65c-2.06,0-4.37,0-6.92,0S99,76.57,97,76.52l-4.35,0c-2.2,0-3.87,0-5.15-.14V91.42h35.22v12.43h0l.12-27.32C119.81,76.67,115.42,76.68,110.68,76.65ZM100,87.91l-9.24,0,0-5.69,9.24,0Zm18.78.08-9.24,0,0-5.69,9.24,0Z"/><path class="cls-5" d="M87.08,77.88h-.29l-.06,13.54h.8V76.36h-.09Z"/><polygon class="cls-5" points="86.71 97.58 86.69 101.4 86.71 101.4 86.71 97.58"/><path class="cls-5" d="M87.44,76.35l-.65,0v1.58h.29Z"/><path class="cls-5" d="M62.67,83.55l6.36,0,0-3.42-6.36,0S62.68,83.17,62.67,83.55Z"/><path class="cls-6" d="M90.8,87.87l9.24,0,0-5.69-9.24,0Zm.85-4.81,7.46,0v3.75l-7.47,0Z"/><polygon class="cls-4" points="120.82 60.12 120.83 58.68 91.33 58.73 120.82 58.73 120.82 60.12 91.21 60.12 91.21 58.74 91.2 60.31 91.2 60.31 120.82 60.12"/><path class="cls-4" d="M91.2,60.31h0l-.25.5h.16L87.53,76c1.25.13,4.23.38,9.5.53,4.26,0,9.11.1,13.65.13,7.91,0,12.19-.13,12.19-.13h0a15.52,15.52,0,0,0,4-.48c1.14-.5-4.19-9.37-6.06-15.93h0l-29.62.19Zm18,5.63c.08-.46.19-.93.3-1.39a.16.16,0,0,1,.3.08c-.13.5-.24,1-.33,1.52,0,.27-.42,1.67,0,1.76s1-1.11,1.15-1.43.37-.84.52-1.27a.16.16,0,0,1,.3.08c-.08.41-.42,3.22.55,2.73.26-.13.41-.53.51-.79a7.33,7.33,0,0,0,.31-1c.11-.44.22-1,.27-1.41a.15.15,0,0,1,.3,0c0,.46.11.92.18,1.37a8.61,8.61,0,0,0,.47,2c.13.28.25.32.51.1a2.26,2.26,0,0,0,.55-.93,7.61,7.61,0,0,0,.36-1.48c0-.19.28-.12.3,0a7.2,7.2,0,0,0,.34,1.66c.16.47.8,1.61,1.32.82a5.48,5.48,0,0,0,.56-2.29c.05-.5.09-1,.11-1.52a.16.16,0,0,1,.31,0,9,9,0,0,0,.14,1.37c.1.56.25,1.55.84,1.83,1.09.5.68-2.2.58-2.68,0-.19.26-.27.3-.08a8.42,8.42,0,0,1,.18,1.51c0,.47,0,1.18-.43,1.48a.88.88,0,0,1-1.19-.33,3.73,3.73,0,0,1-.56-1.39c-.09.79-.31,3.12-1.56,2.6-.6-.25-.85-1-1-1.58a4.64,4.64,0,0,1-.11-.51c-.07.25-.15.51-.24.75-.18.46-.49,1.12-1.06,1.18-.42,0-.57-.49-.66-.81a13.5,13.5,0,0,1-.43-2.12c0,.18-.05.35-.09.52a4.37,4.37,0,0,1-.73,1.78.69.69,0,0,1-1.08,0,2.44,2.44,0,0,1-.3-1.66s0-.07,0-.11-.08.23-.14.34a3.2,3.2,0,0,1-1,1.43.52.52,0,0,1-.83-.3A5,5,0,0,1,109.18,65.94Zm-5.57,4.76a9,9,0,0,0,.26-1.17c0-.17.32-.13.3,0a11.31,11.31,0,0,0-.06,1.3c0,.53,0,1.46.41,1.86.82.73,1.35-2,1.4-2.43a.16.16,0,0,1,.31,0,6,6,0,0,0,.38,1.61c.13.35.9,1.66,1.27.88a5.53,5.53,0,0,0,.31-2.1c0-.46,0-.92,0-1.39,0-.17.28-.21.3,0A4.53,4.53,0,0,0,109.64,72a.61.61,0,0,0,.79.06,1.2,1.2,0,0,0,.26-.82,4.35,4.35,0,0,0-.08-1.14c0-.19.26-.27.3-.08.15.78.26,2.83-1.09,2.42-.68-.2-1-1-1.23-1.61,0-.1-.06-.2-.1-.3a1.92,1.92,0,0,1,0,.24c0,.62,0,2.94-1.17,2.45a2.66,2.66,0,0,1-1.26-2c-.21,1-.66,2.19-1.52,1.86-.61-.24-.68-1.18-.72-1.74a2.62,2.62,0,0,1,0-.28l-.06.19c-.17.52-.46,1.4-1.08,1.53-1,.2-.83-1.23-.61-2.26-.13.19-.24.39-.38.57-.34.46-.85,1.18-1.48,1.25s-.9-.83-.84-1.37a5.48,5.48,0,0,1,.61-1.8c.1-.17.36,0,.27.16a5.18,5.18,0,0,0-.53,1.42c-.1.49,0,1.62.73,1.18a4.54,4.54,0,0,0,1.26-1.39c.21-.31.41-.63.6-1a.15.15,0,0,1,.28.11,10.18,10.18,0,0,0-.33,1.53c0,.31-.15,1.63.53,1.17A3.15,3.15,0,0,0,103.61,70.7Zm-11.5-7a14.89,14.89,0,0,0-.7,1.38A9.4,9.4,0,0,0,91,66.34a1.53,1.53,0,0,0,0,1c.54.92,2.14-1.81,2.37-2.23.08-.17.31,0,.28.11a5.55,5.55,0,0,0-.13,1.52,1.76,1.76,0,0,0,.33,1.09.43.43,0,0,0,.67,0A3.78,3.78,0,0,0,95.11,66a11,11,0,0,0,.14-1.27.16.16,0,0,1,.31,0,11.65,11.65,0,0,0,0,1.32,4.27,4.27,0,0,0,.5,2.09c.53.73,1-.43,1.18-.84a9.73,9.73,0,0,0,.33-1.46.15.15,0,0,1,.3,0,5.77,5.77,0,0,0,.49,1.83c.27.57,1,1.37,1.42.51a5.94,5.94,0,0,0,.41-2.25c0-.47,0-1,0-1.42a.16.16,0,0,1,.31,0,9,9,0,0,0,.14,1.37c.1.57.26,1.56.85,1.83,1.09.5.68-2.2.58-2.68,0-.19.25-.27.29-.08a7.78,7.78,0,0,1,.18,1.51c0,.48,0,1.18-.43,1.49a.88.88,0,0,1-1.18-.34,3.31,3.31,0,0,1-.48-1.1c-.07.94-.27,2.55-1.25,2.37s-1.3-1.21-1.5-2.14c-.06.23-.12.45-.19.68-.16.45-.41,1.12-.94,1.25s-.8-.32-1-.72a5.69,5.69,0,0,1-.34-1.45c-.18.87-.63,2.37-1.6,1.67A2.37,2.37,0,0,1,93.18,66c-.16.25-.32.5-.5.74-.32.42-.77,1-1.34,1.1s-.77-.51-.75-1a7.74,7.74,0,0,1,1.25-3.31C91.94,63.38,92.21,63.53,92.11,63.7Z"/><path class="cls-4" d="M86.8,75.91s.24,0,.73.08l3.58-15.18H91l-7.15,14s-1.32.85,2.06,1.34h.94Z"/><path class="cls-4" d="M86.8,76.19h-.94l.93.11Z"/><path class="cls-4" d="M87.53,76.19v.17c1.28.09,3,.15,5.15.14l4.35,0c-5.27-.15-8.25-.4-9.5-.53l0,.2Z"/><path class="cls-4" d="M110.68,76.65c4.74,0,9.13,0,12.19-.12h0S118.59,76.64,110.68,76.65Z"/><path class="cls-4" d="M87.48,76.19l0,.16h.09v-.17Z"/><path class="cls-4" d="M86.8,76.19h.68l0-.2c-.49,0-.73-.08-.73-.08Z"/><path class="cls-4" d="M87.48,76.19H86.8v.11l.65,0Z"/><rect class="cls-5" x="93.5" y="81.21" width="3.75" height="7.46" transform="matrix(0, -1, 1, 0, 10.03, 179.97)"/><path class="cls-7" d="M109.58,88l9.24,0,0-5.69-9.24,0Zm.85-4.82,7.46,0,0,3.76-7.46,0Z"/><path class="cls-5" d="M79.89,83.62l6.36,0V80.23l-6.35,0S79.89,83.24,79.89,83.62Z"/><rect class="cls-4" x="112.27" y="81.29" width="3.75" height="7.46" transform="translate(28.65 198.82) rotate(-89.76)"/><path class="cls-8" d="M74.34,74.33c.28.73.79,1.37,1.63,1.29,1.32-.12.4-2,0-2.62-.1-.17-.37,0-.27.15.28.46,1.19,2.21.08,2.17s-1.37-1.39-1.44-2.21A8.32,8.32,0,0,1,74.34,74.33Z"/><path class="cls-8" d="M74.31,74.66l0-.33a4.45,4.45,0,0,1-.28-1.22c0,.71.06,3.29-1.2,2.9-.66-.21-.76-1.32-.81-1.88a9.22,9.22,0,0,1,0-1.39,12.58,12.58,0,0,1-.27,1.49s0,.08,0,.12a3.35,3.35,0,0,0,.47,1.49,1.16,1.16,0,0,0,.38.35h1A2.16,2.16,0,0,0,74.31,74.66Z"/><path class="cls-8" d="M72,72.74h-.3a8.68,8.68,0,0,0,0,1.61s0-.08,0-.12A12.58,12.58,0,0,0,72,72.74Z"/><path class="cls-8" d="M71.73,72.74a13.45,13.45,0,0,1-.26,1.41,6.66,6.66,0,0,1-.34,1.07c-.09.2-.24.56-.48.59-.88.11-.39-2.76-.3-3.22a4.23,4.23,0,0,1-.45,1l0,.19a3.62,3.62,0,0,0,.18,1.93.61.61,0,0,0,1,.19,3.39,3.39,0,0,0,.69-1.57A8.68,8.68,0,0,1,71.73,72.74Z"/><path class="cls-8" d="M74.37,73.11h-.31a4.45,4.45,0,0,0,.28,1.22A8.32,8.32,0,0,0,74.37,73.11Z"/><path class="cls-8" d="M74.06,73.11h.31C74.35,72.92,74,72.91,74.06,73.11Z"/><path class="cls-8" d="M70.06,72.51a10,10,0,0,0-.16,1.1,4.23,4.23,0,0,0,.45-1Z"/><path class="cls-8" d="M70.06,72.51l.29.08A.15.15,0,0,0,70.06,72.51Z"/><path class="cls-8" d="M71.73,72.74H72C72.05,72.54,71.75,72.55,71.73,72.74Z"/><path class="cls-8" d="M69.32,74a2.47,2.47,0,0,1-1.12.9c-.21.07-.56.2-.61-.1a1.67,1.67,0,0,1,.18-.79,8.38,8.38,0,0,1,.47-1c.2-.37.42-.73.65-1.08.11-.16-.15-.31-.26-.15a7.65,7.65,0,0,0-1.33,2.66c-.06.37,0,.78.47.8a2.37,2.37,0,0,0,1.79-1.1,4.13,4.13,0,0,0,.34-.54,10,10,0,0,1,.16-1.1A4.43,4.43,0,0,1,69.32,74Z"/><path class="cls-8" d="M73.54,76.21l0,0h-1A.9.9,0,0,0,73.54,76.21Z"/><path class="cls-8" d="M46.18,68.88a3.52,3.52,0,0,0,.17,1.93.61.61,0,0,0,1,.18A3.21,3.21,0,0,0,48,69.43a9.65,9.65,0,0,1,0-1.61,9.71,9.71,0,0,1-.26,1.41,5.12,5.12,0,0,1-.34,1.07c-.08.2-.23.55-.48.59-.88.11-.38-2.76-.29-3.22a4.65,4.65,0,0,1-.45,1A1.48,1.48,0,0,0,46.18,68.88Z"/><path class="cls-8" d="M46.66,67.67l-.3-.08a10,10,0,0,0-.15,1.1A4.65,4.65,0,0,0,46.66,67.67Z"/><path class="cls-8" d="M44.08,70.33a2.4,2.4,0,0,0,1.79-1.1,4.93,4.93,0,0,0,.34-.54,10,10,0,0,1,.15-1.1A4.6,4.6,0,0,1,45.63,69a2.53,2.53,0,0,1-1.12.9c-.21.07-.56.2-.62-.1a1.67,1.67,0,0,1,.19-.79,8.31,8.31,0,0,1,.46-1c.21-.37.42-.73.66-1.08.11-.16-.16-.32-.27-.15a7.85,7.85,0,0,0-1.32,2.65C43.54,69.9,43.63,70.31,44.08,70.33Z"/><path class="cls-8" d="M48,69.43l0-.12a12.58,12.58,0,0,0,.27-1.49H48A9.65,9.65,0,0,0,48,69.43Z"/><path class="cls-8" d="M48,69.43a3.48,3.48,0,0,0,.47,1.49,1,1,0,0,0,1.34.36,2.06,2.06,0,0,0,.76-1.55c0-.1,0-.22,0-.33a5.13,5.13,0,0,1-.28-1.21c.06.7.07,3.29-1.19,2.89-.66-.2-.76-1.31-.81-1.87a9.22,9.22,0,0,1,0-1.39,12.58,12.58,0,0,1-.27,1.49Z"/><path class="cls-8" d="M46.36,67.59l.3.08A.16.16,0,0,0,46.36,67.59Z"/><path class="cls-8" d="M50.36,68.19h.31C50.65,68,50.35,68,50.36,68.19Z"/><path class="cls-8" d="M48,67.82h.31C48.35,67.62,48.06,67.63,48,67.82Z"/><path class="cls-8" d="M50.64,69.4c.29.74.8,1.38,1.63,1.3,1.32-.12.4-2,0-2.63-.1-.17-.36,0-.26.16.27.46,1.19,2.21.08,2.17S50.74,69,50.67,68.19A7,7,0,0,1,50.64,69.4Z"/><path class="cls-8" d="M50.67,68.19h-.31a5.13,5.13,0,0,0,.28,1.21A7,7,0,0,0,50.67,68.19Z"/><path class="cls-8" d="M78.79,63.4l.3.08A.16.16,0,0,0,78.79,63.4Z"/><path class="cls-8" d="M80.47,65.24a3.48,3.48,0,0,0,.47,1.49,1,1,0,0,0,1.34.37A2.08,2.08,0,0,0,83,65.55c0-.11,0-.22,0-.33A4.45,4.45,0,0,1,82.79,64c.06.71.07,3.29-1.19,2.9-.66-.21-.76-1.31-.81-1.87a9.33,9.33,0,0,1,0-1.4,13.12,13.12,0,0,1-.27,1.5Z"/><path class="cls-8" d="M80.47,65.24l0-.11a13.12,13.12,0,0,0,.27-1.5h-.31A9.65,9.65,0,0,0,80.47,65.24Z"/><path class="cls-8" d="M83.1,64h-.31a4.45,4.45,0,0,0,.28,1.22A7.08,7.08,0,0,0,83.1,64Z"/><path class="cls-8" d="M80.46,63.63h.31C80.78,63.43,80.49,63.44,80.46,63.63Z"/><path class="cls-8" d="M83.07,65.22c.29.74.8,1.37,1.63,1.29,1.32-.12.4-2,0-2.62a.15.15,0,0,0-.26.15c.27.46,1.19,2.21.08,2.17S83.17,64.83,83.1,64A7.08,7.08,0,0,1,83.07,65.22Z"/><path class="cls-8" d="M82.79,64h.31C83.08,63.81,82.78,63.81,82.79,64Z"/><path class="cls-8" d="M79.09,63.48l-.3-.08c-.07.37-.12.74-.16,1.11A5,5,0,0,0,79.09,63.48Z"/><path class="cls-8" d="M76.5,66.14a2.36,2.36,0,0,0,1.8-1.09,6,6,0,0,0,.33-.54c0-.37.09-.74.16-1.11a4.65,4.65,0,0,1-.73,1.46,2.51,2.51,0,0,1-1.12.89c-.21.07-.56.2-.62-.1a1.56,1.56,0,0,1,.19-.79,8.31,8.31,0,0,1,.46-1c.21-.36.42-.73.66-1.07.11-.17-.16-.32-.27-.16A7.63,7.63,0,0,0,76,65.34C76,65.71,76.05,66.12,76.5,66.14Z"/><path class="cls-8" d="M78.61,64.69a3.51,3.51,0,0,0,.17,1.93.61.61,0,0,0,1,.19,3.29,3.29,0,0,0,.69-1.57,9.65,9.65,0,0,1,0-1.61A13,13,0,0,1,80.2,65a5,5,0,0,1-.34,1.08c-.08.19-.23.55-.48.58-.88.12-.38-2.76-.29-3.22a5,5,0,0,1-.46,1C78.63,64.57,78.61,64.63,78.61,64.69Z"/><path class="cls-9" d="M95.4,66.1c.07-.46.13-.93.16-1.39h-.31a13.26,13.26,0,0,0,.08,1.77C95.36,66.33,95.38,66.2,95.4,66.1Z"/><path class="cls-9" d="M97.92,65.82h-.3a7.13,7.13,0,0,0,.14.9C97.83,66.42,97.88,66.12,97.92,65.82Z"/><path class="cls-9" d="M99.26,68.86c1,.18,1.18-1.43,1.25-2.37a8.86,8.86,0,0,1-.26-2c0,.47,0,1,0,1.42a5.94,5.94,0,0,1-.41,2.25c-.41.86-1.15.06-1.42-.51a5.77,5.77,0,0,1-.49-1.83c0,.3-.09.6-.16.9C98,67.65,98.38,68.7,99.26,68.86Z"/><path class="cls-9" d="M93.32,65.13c0,.24-.1.54-.14.85.15-.24.29-.48.42-.73Z"/><path class="cls-9" d="M91.34,67.82c.57-.06,1-.68,1.34-1.1.18-.24.34-.49.5-.74s.09-.61.14-.85l.28.12c-.13.25-.27.49-.42.73a2.37,2.37,0,0,0,.55,2.17c1,.7,1.42-.8,1.6-1.67a13.26,13.26,0,0,1-.08-1.77A11,11,0,0,1,95.11,66a3.78,3.78,0,0,1-.62,1.87.43.43,0,0,1-.67,0,1.76,1.76,0,0,1-.33-1.09,5.55,5.55,0,0,1,.13-1.52c0-.16-.2-.28-.28-.11-.23.42-1.83,3.15-2.37,2.23a1.53,1.53,0,0,1,0-1,9.4,9.4,0,0,1,.44-1.26,14.89,14.89,0,0,1,.7-1.38c.1-.17-.17-.32-.27-.15a7.74,7.74,0,0,0-1.25,3.31C90.57,67.31,90.79,67.88,91.34,67.82Z"/><path class="cls-9" d="M95.25,64.71h.31A.16.16,0,0,0,95.25,64.71Z"/><path class="cls-9" d="M97.62,65.82h.3A.15.15,0,0,0,97.62,65.82Z"/><path class="cls-9" d="M100.25,64.49h.31A.16.16,0,0,0,100.25,64.49Z"/><path class="cls-9" d="M95.33,66.48a5.69,5.69,0,0,0,.34,1.45c.16.4.47.84,1,.72s.78-.8.94-1.25c.07-.23.13-.45.19-.68a7.13,7.13,0,0,1-.14-.9,9.73,9.73,0,0,1-.33,1.46c-.14.41-.65,1.57-1.18.84a4.27,4.27,0,0,1-.5-2.09,11.65,11.65,0,0,1,0-1.32c0,.46-.09.93-.16,1.39C95.38,66.2,95.36,66.33,95.33,66.48Z"/><path class="cls-9" d="M100.54,66c0-.51,0-1,0-1.53h-.31a8.86,8.86,0,0,0,.26,2C100.52,66.3,100.53,66.14,100.54,66Z"/><path class="cls-9" d="M100.51,66.49a3.31,3.31,0,0,0,.48,1.1.88.88,0,0,0,1.18.34c.44-.31.44-1,.43-1.49a7.78,7.78,0,0,0-.18-1.51c0-.19-.33-.11-.29.08.1.48.51,3.18-.58,2.68-.59-.27-.75-1.26-.85-1.83a9,9,0,0,1-.14-1.37c0,.51,0,1,0,1.53C100.53,66.14,100.52,66.3,100.51,66.49Z"/><path class="cls-9" d="M115.43,65.9c0,.3.08.59.14.89a8.46,8.46,0,0,0,.16-.85Z"/><path class="cls-9" d="M111.43,65.29l-.3-.08a10.57,10.57,0,0,0-.14,1.13A9.69,9.69,0,0,0,111.43,65.29Z"/><path class="cls-9" d="M111,66.45a2.44,2.44,0,0,0,.3,1.66.69.69,0,0,0,1.08,0,4.37,4.37,0,0,0,.73-1.78c0-.17.06-.34.09-.52,0-.33-.08-.67-.11-1,0,.38-.16,1-.27,1.41a7.33,7.33,0,0,1-.31,1c-.1.26-.25.66-.51.79-1,.49-.63-2.32-.55-2.73a9.69,9.69,0,0,1-.44,1S111,66.41,111,66.45Z"/><path class="cls-9" d="M113.37,64.78h-.3c0,.34.07.68.11,1C113.25,65.46,113.33,65.12,113.37,64.78Z"/><path class="cls-9" d="M113.61,67.91c.09.32.24.86.66.81.57-.06.88-.72,1.06-1.18.09-.24.17-.5.24-.75s-.11-.59-.14-.89l.3,0a8.46,8.46,0,0,1-.16.85,4.64,4.64,0,0,0,.11.51c.15.56.4,1.33,1,1.58,1.25.52,1.47-1.81,1.56-2.6a9.43,9.43,0,0,1-.17-1.71c0,.51-.06,1-.11,1.52a5.48,5.48,0,0,1-.56,2.29c-.52.79-1.16-.35-1.32-.82a7.2,7.2,0,0,1-.34-1.66c0-.16-.28-.23-.3,0a7.61,7.61,0,0,1-.36,1.48,2.26,2.26,0,0,1-.55.93c-.26.22-.38.18-.51-.1a8.61,8.61,0,0,1-.47-2c-.07-.45-.13-.91-.18-1.37,0,.34-.12.68-.19,1A13.5,13.5,0,0,0,113.61,67.91Z"/><path class="cls-9" d="M109.83,68.11a3.2,3.2,0,0,0,1-1.43c.06-.11.09-.23.14-.34a10.57,10.57,0,0,1,.14-1.13c-.15.43-.33.86-.52,1.27S110,68,109.46,67.91s-.06-1.49,0-1.76c.09-.51.2-1,.33-1.52a.16.16,0,0,0-.3-.08c-.11.46-.22.93-.3,1.39a5,5,0,0,0-.18,1.87A.52.52,0,0,0,109.83,68.11Z"/><path class="cls-9" d="M111.13,65.21l.3.08A.16.16,0,0,0,111.13,65.21Z"/><path class="cls-9" d="M118.24,66.28a3.73,3.73,0,0,0,.56,1.39A.88.88,0,0,0,120,68c.43-.3.44-1,.43-1.48a8.42,8.42,0,0,0-.18-1.51c0-.19-.34-.11-.3.08.1.48.51,3.18-.58,2.68-.59-.28-.74-1.27-.84-1.83a9,9,0,0,1-.14-1.37c0,.55-.06,1.1-.13,1.65Z"/><path class="cls-9" d="M118.25,66.22c.07-.55.11-1.1.13-1.65h-.31a9.43,9.43,0,0,0,.17,1.71Z"/><path class="cls-9" d="M113.07,64.78h.3A.15.15,0,0,0,113.07,64.78Z"/><path class="cls-9" d="M118.07,64.57h.31A.16.16,0,0,0,118.07,64.57Z"/><path class="cls-8" d="M65.71,66.65H66A.16.16,0,0,0,65.71,66.65Z"/><path class="cls-8" d="M65.9,68.19s0,.06,0,.09c.13.56.39,1.45,1.07,1.54,1.24.16.83-2.13.69-2.78,0-.2-.34-.12-.29.08.08.41.44,2.8-.5,2.35-.51-.24-.65-1.11-.74-1.59A8.54,8.54,0,0,1,66,66.65q0,.75-.12,1.5Z"/><path class="cls-8" d="M65.9,68.15q.09-.75.12-1.5h-.31a7.91,7.91,0,0,0,.19,1.54Z"/><path class="cls-8" d="M59.55,67.21l.3.09A.16.16,0,0,0,59.55,67.21Z"/><path class="cls-8" d="M61.27,66.84h.31A.16.16,0,0,0,61.27,66.84Z"/><path class="cls-8" d="M61.48,68.37a9.68,9.68,0,0,0,.25,1.19,1.73,1.73,0,0,0,.31.69c.45.44,1-.37,1.16-.71a5.2,5.2,0,0,0,.29-.78c-.06-.34-.1-.67-.12-.93l.3,0a7,7,0,0,1-.18.89,2.23,2.23,0,0,0,1,1.72c1.14.52,1.36-1.59,1.44-2.29a7.91,7.91,0,0,1-.19-1.54c0,.44,0,.89-.09,1.33a5.17,5.17,0,0,1-.49,2c-.45.73-1-.3-1.16-.72a5.92,5.92,0,0,1-.29-1.45c0-.16-.28-.22-.31,0a6.23,6.23,0,0,1-.31,1.29,1.91,1.91,0,0,1-.47.83c-.24.21-.33.17-.45-.09a10.34,10.34,0,0,1-.56-3q-.07.5-.18,1C61.43,68,61.45,68.19,61.48,68.37Z"/><path class="cls-8" d="M63.37,67.83c0,.26.06.59.12.93a7,7,0,0,0,.18-.89Z"/><path class="cls-8" d="M59.85,67.3l-.3-.09a9,9,0,0,0-.14,1.15C59.57,68,59.72,67.66,59.85,67.3Z"/><path class="cls-8" d="M58,69.9c.57.13,1-.73,1.21-1.11.07-.14.13-.28.2-.43a9,9,0,0,1,.14-1.15,10.27,10.27,0,0,1-.46,1.13c-.13.27-.59,1.36-1,1.26s.2-2.49.3-2.89a.15.15,0,0,0-.29-.08c-.15.6-.28,1.2-.38,1.81C57.65,68.84,57.43,69.76,58,69.9Z"/><path class="cls-8" d="M60.28,70c.6-.11.83-1,1-1.52.06-.22.11-.45.16-.68s-.1-.66-.13-1c0,.31-.13.81-.22,1.18s-.26,1.39-.71,1.66c-.84.5-.56-2-.49-2.38-.13.36-.28.71-.44,1.06C59.36,69.23,59.49,70.18,60.28,70Z"/><path class="cls-8" d="M61.58,66.84h-.31c0,.33.09.66.13,1Q61.51,67.34,61.58,66.84Z"/><path class="cls-9" d="M105.92,70.3h.31A.16.16,0,0,0,105.92,70.3Z"/><path class="cls-9" d="M102.26,71.25a10.18,10.18,0,0,1,.33-1.53.15.15,0,0,0-.28-.11c-.19.32-.39.64-.6,1A4.54,4.54,0,0,1,100.45,72c-.77.44-.83-.69-.73-1.18a5.18,5.18,0,0,1,.53-1.42c.09-.18-.17-.33-.27-.16a5.48,5.48,0,0,0-.61,1.8c-.06.54.11,1.46.84,1.37s1.14-.79,1.48-1.25c.14-.18.25-.38.38-.57.08-.4.18-.74.22-.9l.28.12c-.15.27-.33.52-.5.78-.22,1-.37,2.46.61,2.26.62-.13.91-1,1.08-1.53l.06-.19a9.53,9.53,0,0,1,.05-1.51l.3,0a10.48,10.48,0,0,1-.35,1.47,2.62,2.62,0,0,0,0,.28c0,.56.11,1.5.72,1.74.86.33,1.31-.89,1.52-1.86-.07-.34-.11-.66-.14-.94,0,.38-.58,3.16-1.4,2.43-.44-.4-.41-1.33-.41-1.86a11.31,11.31,0,0,1,.06-1.3c0-.17-.27-.21-.3,0a9,9,0,0,1-.26,1.17,3.15,3.15,0,0,1-.82,1.72C102.11,72.88,102.22,71.56,102.26,71.25Z"/><path class="cls-9" d="M107.32,73.26c1.16.49,1.15-1.83,1.17-2.45a1.92,1.92,0,0,0,0-.24,8.46,8.46,0,0,1-.29-1.23l.3,0c0,.43,0,.85,0,1.27,0,.1.06.2.1.3.21.6.55,1.41,1.23,1.61,1.35.41,1.24-1.64,1.09-2.42,0-.19-.34-.11-.3.08a4.35,4.35,0,0,1,.08,1.14,1.2,1.2,0,0,1-.26.82.61.61,0,0,1-.79-.06,4.53,4.53,0,0,1-1.15-2.78c0-.17-.31-.13-.3,0,0,.47,0,.93,0,1.39a5.53,5.53,0,0,1-.31,2.1c-.37.78-1.14-.53-1.27-.88a6,6,0,0,1-.38-1.61c0,.2-.08.55-.17.94A2.66,2.66,0,0,0,107.32,73.26Z"/><path class="cls-9" d="M103.87,69.57a9.53,9.53,0,0,0-.05,1.51,10.48,10.48,0,0,0,.35-1.47Z"/><path class="cls-9" d="M106.23,70.3h-.31c0,.28.07.6.14.94C106.15,70.85,106.2,70.5,106.23,70.3Z"/><path class="cls-9" d="M102.29,69.64c0,.16-.14.5-.22.9.17-.26.35-.51.5-.78Z"/><path class="cls-9" d="M108.2,69.34a8.46,8.46,0,0,0,.29,1.23c0-.42,0-.84,0-1.27Z"/><rect class="cls-10" x="62.76" y="89.17" width="1.54" height="5.32"/><rect class="cls-10" x="62.76" y="94.48" width="1.54" height="0.03"/><rect class="cls-10" x="65.89" y="89.17" width="1.54" height="5.32"/><rect class="cls-10" x="65.89" y="94.49" width="1.54" height="0.07"/><polygon class="cls-10" points="70.02 92.8 70.03 89.17 69.01 89.17 69.01 94.49 70.55 94.49 70.55 92.81 70.02 92.8"/><rect class="cls-10" x="69.01" y="94.49" width="1.54" height="0.02"/><polygon class="cls-10" points="70.03 89.17 70.02 92.8 70.55 92.81 70.55 89.17 70.03 89.17"/><polygon class="cls-10" points="72.37 92.84 72.37 94.49 73.91 94.49 73.91 92.86 72.37 92.84"/><rect class="cls-10" x="72.37" y="94.49" width="1.54" height="0.02"/><polygon class="cls-10" points="72.37 89.17 72.37 92.84 73.91 92.86 73.91 89.17 72.37 89.17"/><polygon class="cls-10" points="75.32 92.88 75.32 94.49 76.86 94.49 76.86 92.91 75.32 92.88"/><rect class="cls-10" x="75.32" y="94.49" width="1.54" height="0.06"/><polygon class="cls-10" points="75.32 89.17 75.32 92.88 76.86 92.91 76.86 89.17 75.32 89.17"/><polygon class="cls-10" points="78.83 92.94 78.57 92.93 78.57 94.47 80.11 94.47 80.11 89.17 78.84 89.17 78.83 92.94"/><polygon class="cls-10" points="78.84 89.17 78.57 89.17 78.57 92.93 78.83 92.94 78.84 89.17"/><rect class="cls-10" x="81.75" y="89.17" width="1.54" height="5.29"/><polygon class="cls-10" points="85.1 94.46 86.71 94.46 86.71 91.42 86.72 91.42 86.72 89.17 85.1 89.17 85.1 94.46"/><polygon class="cls-10" points="64.3 89.06 64.3 89.17 65.89 89.17 65.89 89.1 67.43 89.1 67.43 89.17 69.01 89.17 69.01 89.06 70.04 89.06 70.04 87.82 61.47 87.82 61.47 89.17 62.76 89.17 62.76 89.06 64.3 89.06"/><polygon class="cls-10" points="80.11 89.02 80.11 89.17 81.75 89.17 81.75 89 83.29 89 83.29 89.17 85.1 89.17 85.1 89 86.72 89 86.72 89.17 86.74 89.17 86.74 87.82 78.85 87.82 78.84 89.02 80.11 89.02"/><polygon class="cls-10" points="70.55 89.06 70.55 89.17 72.37 89.17 72.37 89.06 73.91 89.06 73.91 89.17 75.32 89.17 75.32 89.1 76.86 89.1 76.86 89.17 78.57 89.17 78.57 89.02 78.84 89.02 78.85 87.82 70.04 87.82 70.04 89.06 70.55 89.06"/><rect class="cls-10" x="62.76" y="89.06" width="1.54" height="0.1"/><rect class="cls-10" x="65.89" y="89.1" width="1.54" height="0.06"/><rect class="cls-10" x="69.01" y="89.06" width="1.02" height="0.11"/><rect class="cls-10" x="70.04" y="89.06" width="0.52" height="0.11"/><rect class="cls-10" x="72.37" y="89.06" width="1.54" height="0.11"/><rect class="cls-10" x="75.32" y="89.1" width="1.54" height="0.06"/><rect class="cls-10" x="79.4" y="88.46" width="0.15" height="1.27" transform="translate(-9.94 168.2) rotate(-89.76)"/><rect class="cls-10" x="78.57" y="89.02" width="0.27" height="0.15"/><rect class="cls-10" x="81.75" y="89.01" width="1.54" height="0.16"/><rect class="cls-10" x="85.1" y="89.01" width="1.62" height="0.16"/><polygon class="cls-10" points="86.71 103.85 122.69 103.85 86.71 103.7 86.71 103.85"/><polygon class="cls-10" points="86.71 95.71 86.71 97.58 86.71 95.71 86.71 95.71"/><polygon class="cls-10" points="86.72 94.46 86.71 94.46 86.71 94.5 86.72 94.5 86.73 91.42 86.72 91.42 86.72 94.46"/><rect class="cls-10" x="86.71" y="94.5" width="0.01" height="1.21"/><polygon class="cls-10" points="122.75 91.42 87.53 91.42 87.53 101.4 86.71 101.4 86.71 103.7 122.69 103.85 122.75 103.85 122.75 91.42"/><polygon class="cls-10" points="87.53 101.4 87.53 91.42 86.73 91.42 86.72 94.5 86.74 94.5 86.74 95.71 86.71 95.71 86.71 97.58 86.71 101.4 87.53 101.4"/><rect class="cls-10" x="86.72" y="94.5" width="0.02" height="1.21"/><rect class="cls-10" x="86.71" y="91.42" width="0.01" height="3.04"/><path class="cls-6" d="M54.49,89.84V77.72h-1.9V89.87Z"/><path class="cls-6" d="M54.49,77.7h0Z"/><path class="cls-6" d="M43.52,93.72V77.6l-1.91,0V94.44h.24Z"/><path class="cls-6" d="M43.52,77.55H41.61v0l1.91,0Z"/><path class="cls-6" d="M59.57,77.76V94.44h1.85V77.77Z"/><path class="cls-6" d="M61.47,87.82v-10h0V94.44h0V87.82Z"/><path class="cls-6" d="M61.42,77.76h0Z"/><path class="cls-6" d="M61.47,77.77h0Z"/><polygon class="cls-5" points="59.57 89.75 58.86 89.77 58.86 90.07 57.64 90.07 57.64 89.79 56.62 89.81 56.62 90.07 55.4 90.07 55.4 89.83 54.49 89.84 54.49 90.07 52.59 90.07 52.59 89.87 52.51 89.87 52.02 90.09 52.02 90.52 51.07 90.52 51.07 90.49 50.4 90.78 50.4 91.34 49.45 91.34 49.45 91.19 48.53 91.58 48.53 92.36 47.58 92.36 47.58 91.98 46.67 92.37 46.67 93.01 45.72 93.01 45.72 92.78 44.81 93.17 44.81 93.77 43.86 93.77 43.86 93.57 43.52 93.72 43.52 94.44 59.57 94.44 59.57 90.03 59.57 89.75"/><polygon class="cls-5" points="52.59 90.07 54.49 90.07 54.49 89.84 52.59 89.87 52.59 90.07"/><polygon class="cls-5" points="41.85 94.44 43.52 94.44 43.52 93.72 41.85 94.44"/><polygon class="cls-5" points="59.57 94.44 59.57 94.44 59.57 90.03 59.57 94.44"/><rect class="cls-10" x="54.49" y="83.25" width="5.08" height="1.01"/><polygon class="cls-6" points="59.57 94.44 59.57 94.44 41.61 94.54 41.61 96.26 61.42 96.26 61.42 94.44 59.57 94.44"/><polygon class="cls-6" points="41.61 94.52 41.61 94.54 41.64 94.52 41.61 94.52"/><polygon class="cls-6" points="61.47 95.71 61.47 95.71 61.47 94.48 61.47 94.48 61.47 94.44 61.42 94.44 61.42 96.26 61.47 96.26 61.47 95.71"/><rect class="cls-6" x="61.47" y="94.48" height="1.23"/><polygon class="cls-6" points="41.85 94.44 41.61 94.44 41.61 94.52 41.64 94.52 41.85 94.44"/><polygon class="cls-6" points="59.57 94.44 59.57 94.44 43.52 94.44 43.52 94.52 41.64 94.52 41.61 94.54 41.61 94.54 59.57 94.44 59.57 94.44"/><polygon class="cls-6" points="41.64 94.52 43.52 94.52 43.52 94.44 41.85 94.44 41.64 94.52"/><polygon class="cls-5" points="61.42 96.26 41.61 96.26 40.07 97.11 61.42 97.11 61.42 96.26"/><polygon class="cls-5" points="40.07 97.11 40.07 97.11 40.07 97.11 40.07 97.11"/><polygon class="cls-5" points="61.45 97.11 61.45 97.11 61.47 97.11 61.47 96.26 61.42 96.26 61.42 97.11 61.45 97.11"/><polygon class="cls-5" points="61.42 98.8 40.08 98.8 38.42 99.66 61.42 99.66 61.42 98.8"/><polygon class="cls-5" points="61.42 99.66 61.42 99.66 61.42 98.8 61.42 98.8 61.42 99.66 61.42 99.66"/><polygon class="cls-11" points="40.07 97.11 40.07 97.11 40.07 97.11 40.07 97.11"/><rect class="cls-11" x="40.07" y="97.11" width="21.35" height="1.69"/><rect class="cls-11" x="61.42" y="97.11" width="0.03" height="1.69"/><polygon class="cls-11" points="61.42 97.11 40.07 97.11 40.07 97.11 40.07 97.11 61.42 97.11 61.42 97.11"/><rect class="cls-11" x="61.42" y="97.11" width="0.03"/><polygon class="cls-11" points="38.42 99.66 38.42 99.66 38.42 99.66 38.42 101.4 61.42 101.4 61.42 99.66 38.42 99.66"/><polygon class="cls-7" points="91.2 60.31 91.2 60.31 45.84 60.37 90.95 60.81 91.2 60.31"/><polygon class="cls-7" points="45.83 61.67 45.84 61.67 90.51 61.67 90.95 60.81 45.84 60.37 45.83 60.37 45.83 61.67"/><polygon class="cls-7" points="91.2 60.31 91.2 60.31 91.2 60.31 91.2 60.31"/><polygon class="cls-8" points="91.33 58.73 91.21 58.73 91.21 58.74 91.21 58.73 91.33 58.73"/><polygon class="cls-8" points="120.82 60.12 120.82 58.73 91.33 58.73 91.21 58.73 91.21 58.74 91.21 60.12 120.82 60.12"/><polygon class="cls-5" points="55.4 84.26 55.4 89.83 56.62 89.81 56.62 84.26 55.4 84.26"/><polygon class="cls-5" points="55.4 90.07 56.62 90.07 56.62 89.81 55.4 89.83 55.4 90.07"/><polygon class="cls-5" points="57.64 84.26 57.64 89.79 58.86 89.77 58.86 84.26 57.64 84.26"/><polygon class="cls-5" points="57.64 90.07 58.86 90.07 58.86 89.77 57.64 89.79 57.64 90.07"/><polygon class="cls-5" points="51.07 84.92 51.07 90.49 52.02 90.09 52.02 84.55 51.07 84.92"/><polygon class="cls-5" points="51.07 90.52 52.02 90.52 52.02 90.09 51.07 90.49 51.07 90.52"/><polygon class="cls-5" points="49.45 85.55 49.45 91.19 50.4 90.78 50.4 85.18 49.45 85.55"/><polygon class="cls-5" points="49.45 91.34 50.4 91.34 50.4 90.78 49.45 91.19 49.45 91.34"/><polygon class="cls-5" points="47.58 86.28 47.58 91.98 48.53 91.58 48.53 85.91 47.58 86.28"/><polygon class="cls-5" points="47.58 92.36 48.53 92.36 48.53 91.58 47.58 91.98 47.58 92.36"/><polygon class="cls-5" points="45.72 87.01 45.72 92.78 46.67 92.37 46.67 86.64 45.72 87.01"/><polygon class="cls-5" points="45.72 93.01 46.67 93.01 46.67 92.37 45.72 92.78 45.72 93.01"/><polygon class="cls-5" points="43.86 87.74 43.86 93.57 44.81 93.17 44.81 87.37 43.86 87.74"/><polygon class="cls-5" points="43.86 93.77 44.81 93.77 44.81 93.17 43.86 93.57 43.86 93.77"/><polygon class="cls-10" points="43.86 87.26 44.81 87.26 44.81 87.37 45.72 87.01 45.72 86.5 46.67 86.5 46.67 86.64 47.58 86.28 47.58 85.85 48.53 85.85 48.53 85.91 49.45 85.55 49.45 85.14 50.4 85.14 50.4 85.18 51.07 84.92 51.07 84.32 52.02 84.32 52.02 84.55 52.59 84.32 52.59 83.25 43.52 86.62 43.52 87.88 43.86 87.74 43.86 87.26"/><polygon class="cls-10" points="52.02 84.32 51.07 84.32 51.07 84.92 52.02 84.55 52.02 84.32"/><polygon class="cls-10" points="50.4 85.14 49.45 85.14 49.45 85.55 50.4 85.18 50.4 85.14"/><polygon class="cls-10" points="48.53 85.85 47.58 85.85 47.58 86.28 48.53 85.91 48.53 85.85"/><polygon class="cls-10" points="46.67 86.5 45.72 86.5 45.72 87.01 46.67 86.64 46.67 86.5"/><polygon class="cls-10" points="44.81 87.26 43.86 87.26 43.86 87.74 44.81 87.37 44.81 87.26"/><path class="cls-12" d="M109.81,140.29l-.27,2.1a.13.13,0,0,0,.1.15l1.27.28h0a.15.15,0,0,0,.14-.11.14.14,0,0,0-.11-.16l-1.15-.26.27-2.06a.24.24,0,0,0,0-.08l-.12.06Z"/><path class="cls-12" d="M108.06,140.79v2.48a.14.14,0,0,0,.11.13l1.27.29h0a.13.13,0,0,0,.13-.1.14.14,0,0,0-.1-.17l-1.16-.26v-2.41l-.14,0Z"/><path class="cls-12" d="M93.41,138.59,93,141v0a.13.13,0,0,1,.07-.14.14.14,0,0,1,.18.08l.09.24,1.36.29h0a.14.14,0,0,0,.14-.1.15.15,0,0,0-.11-.17l-1.47-.32.39-2.41-.15.05Z"/><path class="cls-12" d="M90.43,139.14,90,143h0a.13.13,0,0,1,.25.09l-.08.21.68.74a.12.12,0,0,0,.1.05.18.18,0,0,0,.09,0,.13.13,0,0,0,0-.19l-.78-.86.39-3.88-.14,0Z"/><path class="cls-12" d="M93,141s0,0,0,0l.48,1.25a.17.17,0,0,0,.13.09h0a.14.14,0,0,0,.08-.18l-.4-1-.24-.06A.13.13,0,0,1,93,141Z"/><path class="cls-12" d="M93.1,140.89a.14.14,0,0,0,0,.26l.24.06-.09-.24A.14.14,0,0,0,93.1,140.89Z"/><path class="cls-12" d="M90,143v0l-.49,1.31a.13.13,0,0,0,.08.17h.05a.13.13,0,0,0,.12-.08l.42-1.12-.15-.16A.2.2,0,0,1,90,143Z"/><path class="cls-12" d="M90.22,142.91a.13.13,0,0,0-.17.08h0v0a.2.2,0,0,0,0,.11l.15.16.08-.21A.13.13,0,0,0,90.22,142.91Z"/><path class="cls-13" d="M112.89,114.92a12.79,12.79,0,0,0-1.29,2.24,7.41,7.41,0,0,1,2.37.48Z"/><path class="cls-13" d="M100.17,119.72c-.47-.66-.69,0-.69,0s-.39-1.36-.89-1.23-.54.79-.54.79-.43-1.36-.87-1,.36,2.2.36,2.2l.11,0a5.31,5.31,0,0,1,2.26.78C100.08,121.13,100.57,120.27,100.17,119.72Z"/><path class="cls-14" d="M112,135.05s-2.5-2.6-5.27.53c-2.43,2.74-2.49,1.72-3.76,1.84a.23.23,0,0,0-.11.43c.84.55,2.41,3.17,5.16,2.94v-.2a.14.14,0,0,1,.14-.14.14.14,0,0,1,.14.14v.16a5.1,5.1,0,0,0,1.2-.34l.27-.12v-.08a.13.13,0,0,1,.15-.12.11.11,0,0,1,.1.07,4.16,4.16,0,0,0,2.42-2.71,3.22,3.22,0,0,0,0-1.65,1.66,1.66,0,0,0-.41-.75Zm-.78,1.71a.35.35,0,0,1-.37-.33.35.35,0,0,1,.33-.37c.19,0,.45.13.46.32S111.45,136.74,111.26,136.76Z"/><path class="cls-14" d="M110,140.09a.13.13,0,0,0-.15.12v.08l.14-.07.12-.06A.11.11,0,0,0,110,140.09Z"/><path class="cls-14" d="M108.2,140.45a.14.14,0,0,0-.14.14v.2h.14l.14,0v-.16A.14.14,0,0,0,108.2,140.45Z"/><path class="cls-15" d="M114.66,135.05H112a1.66,1.66,0,0,1,.41.75,3.22,3.22,0,0,1,0,1.65l2.28-2.11A.17.17,0,0,0,114.66,135.05Z"/><path class="cls-15" d="M112,135.05h0a1.66,1.66,0,0,1,.41.75,1.66,1.66,0,0,0-.41-.75Z"/><path class="cls-13" d="M103.77,125.14a16.09,16.09,0,0,0-1.65-2h0l-.22,2.33h0A6.47,6.47,0,0,1,103.77,125.14Z"/><path class="cls-16" d="M99.91,121.39h0l-.06.08-2.2-.86a3.45,3.45,0,0,0-1.27.14c-4.32,1.35-1.16,4.46-7.82,6.22-5.68,1.5-8.87-1.29-9.68-2.14a.13.13,0,0,0-.22.09c0,.9,0,3.46,1.56,4.29a5.21,5.21,0,0,1-2.51-.52c-.65-.56,3.82,10.61,9.42,10.61a30.92,30.92,0,0,0,3.3-.16l0-.15a.12.12,0,0,1,.14-.12.13.13,0,0,1,.13.14v.1a16,16,0,0,0,2.7-.52l.06-.4a.14.14,0,0,1,.16-.11.13.13,0,0,1,.11.15l0,.27a6.78,6.78,0,0,0,4.49-3.56c1.14-2.49.15-6.72,2.47-8.72h0a4,4,0,0,1,1.23-.71h0l.22-2.33A11.56,11.56,0,0,0,99.91,121.39Zm-1.16,2.45a.5.5,0,0,1,0-1c.28,0,.63.22.63.5S99,123.84,98.75,123.84Z"/><path class="cls-16" d="M93.63,138.08a.14.14,0,0,0-.16.11l-.06.4.14,0,.15-.05,0-.27A.13.13,0,0,0,93.63,138.08Z"/><path class="cls-16" d="M90.59,138.87a.12.12,0,0,0-.14.12l0,.15h.14l.14,0V139A.13.13,0,0,0,90.59,138.87Z"/><path class="cls-16" d="M99.91,121.39a5.31,5.31,0,0,0-2.26-.78l2.2.86Z"/><polygon class="cls-16" points="102.12 123.17 102.12 123.17 101.9 125.5 101.9 125.5 102.12 123.17"/><path class="cls-13" d="M100.66,126.22l-1,1.55s.32,1.6,1.2.61-.19-2.15-.21-2.17h0Z"/><path class="cls-13" d="M100.66,126.22h0Z"/><path class="cls-12" d="M128.51,133.77h-.25L127.5,135a.14.14,0,0,0,0,.19l.07,0a.15.15,0,0,0,.12-.07l.88-1.42a.06.06,0,0,0,0,0A.13.13,0,0,1,128.51,133.77Z"/><path class="cls-12" d="M127.33,128.65h0l1,4.84h.17a.13.13,0,0,1,.13.12h0l-1-5-.13,0Z"/><path class="cls-12" d="M128.64,133.64v0s0,0,0,0S128.64,133.65,128.64,133.64Z"/><path class="cls-12" d="M128.34,133.5h-2a.13.13,0,0,0-.13.14.13.13,0,0,0,.13.13h1.95l.1-.16Z"/><path class="cls-12" d="M128.51,133.5h-.17l0,.11-.1.16h.25a.13.13,0,0,0,.12-.1s0,0,0,0A.13.13,0,0,0,128.51,133.5Z"/><path class="cls-12" d="M120.78,126.15a.11.11,0,0,0,0,.08l-.06,5.15-1.42,1.17a.13.13,0,0,0,0,.19.11.11,0,0,0,.1,0,.16.16,0,0,0,.09,0l1.33-1.1-.07-.16a.14.14,0,0,1,.07-.18.14.14,0,0,1,.18.06v0l.06-5.08-.14-.1Z"/><path class="cls-12" d="M120.91,131.55l-.14.11.68,1.47a.13.13,0,0,0,.12.08h.06a.14.14,0,0,0,.07-.18l-.74-1.61v0A.16.16,0,0,1,120.91,131.55Z"/><path class="cls-12" d="M120.77,131.32a.14.14,0,0,0-.07.18l.07.16.14-.11a.16.16,0,0,0,0-.11v-.06A.14.14,0,0,0,120.77,131.32Z"/><path class="cls-13" d="M115.62,112.53a3.51,3.51,0,0,1,.84-.24,4.6,4.6,0,0,1,.52-.06,3.78,3.78,0,0,1,2.36.79h0c.06,0,2-.8,2-1.89s-2.1,0-2.19,0c1.09-1.09,0-2.19-1.1-2.19A1.08,1.08,0,0,0,117,110s0-2.2-2.19-1.1.58,3.52.71,3.63h0Z"/><path class="cls-17" d="M139.48,116.07c-5.81-3.57-9.89,2.67-9.89,2.67l1.23.52c.59-.36,5.9-3.46,7.75-.64s.05,10.78,0,10.95h0a12.06,12.06,0,0,1,.91,1.87S143.45,118.51,139.48,116.07Z"/><path class="cls-18" d="M131.71,119.65h0l.27.9a7.29,7.29,0,0,1,2.82-1.21,1.9,1.9,0,0,1,.25,0h.17a2.64,2.64,0,0,1,1.58.39c1.93,1.25,0,7.39,0,7.56h0a11.34,11.34,0,0,1,1.77,2.32c.05-.17,1.94-8,0-10.95s-7.16.28-7.75.64l.89.39Z"/><path class="cls-19" d="M126.86,117.72c-4.59-1.53-6-3.59-7.52-4.7h0a3.76,3.76,0,0,0-2.36-.79,4.88,4.88,0,0,0-.52.06,4,4,0,0,0-.84.24l-.12,0h0a7.12,7.12,0,0,0-2.61,2.35l1.08,2.72a4.27,4.27,0,0,1,.77.39h0a5.43,5.43,0,0,1,1.89,2h0c.63,1.07,1,2.26,1.45,3.19a9.67,9.67,0,0,0,2.7,2.94.15.15,0,0,1,.1-.06h0a.15.15,0,0,1,.13.14v.1a10.82,10.82,0,0,0,5.84,2.37,2.59,2.59,0,0,0,.47,0,.13.13,0,0,1,.1-.15.13.13,0,0,1,.16.1h0c1.73-.36,3.86-1.88,5.76-3.46l-.4-1.35-.43-1.42h0l-.24-.81-.3-1-.27-.9-.89-.39h0l-1.23-.52C128.8,118.41,127.92,118.08,126.86,117.72ZM115.55,116c-.28,0-.63-.22-.63-.49s.35-.5.63-.5a.5.5,0,0,1,0,1Zm16.53,5.55c-3.67,6.81-7.87,2.56-9.64.2a.87.87,0,0,1,.63-1.39C126.17,120.08,133,119.75,132.08,121.51Z"/><path class="cls-19" d="M127.43,128.5a.13.13,0,0,0-.1.15h.13l.13,0h0A.13.13,0,0,0,127.43,128.5Z"/><path class="cls-19" d="M120.89,126.09h0a.15.15,0,0,0-.1.06l.1.08.14.1v-.1A.15.15,0,0,0,120.89,126.09Z"/><path class="cls-19" d="M116.46,112.29a3.51,3.51,0,0,0-.84.24A4,4,0,0,1,116.46,112.29Z"/><path class="cls-19" d="M131.71,119.65h0l-.89-.39h0Z"/><path class="cls-20" d="M134.8,119.34a7.29,7.29,0,0,0-2.82,1.21h0l.3,1,.24.81a9.89,9.89,0,0,1,1.66-.44c.62-.09,1.24-.08,1.5.28.46.63-.24,2.35-.6,3.15l-.2.42a8.93,8.93,0,0,1,1.92,1.46c0-.17,1.93-6.31,0-7.56a2.72,2.72,0,0,0-1.58-.39h-.17A1.9,1.9,0,0,0,134.8,119.34Z"/><path class="cls-20" d="M134.8,119.34a7.29,7.29,0,0,0-2.82,1.21h0A7.29,7.29,0,0,1,134.8,119.34Z"/><path class="cls-20" d="M135.05,119.31h0Z"/><polygon class="cls-20" points="132.28 121.57 132.52 122.38 132.52 122.38 132.28 121.57"/><path class="cls-17" d="M135.08,125.37c.36-.8,1.06-2.52.6-3.15-.26-.36-.88-.37-1.5-.28a9.89,9.89,0,0,0-1.66.44l.43,1.42.4,1.35a5.87,5.87,0,0,1,1.53.64h0Z"/><polygon class="cls-17" points="132.52 122.38 132.52 122.38 132.52 122.38 132.95 123.8 132.52 122.38 132.52 122.38"/><path class="cls-17" d="M134.88,125.79h0l.2-.42Z"/><path class="cls-17" d="M132.52,122.38a9.89,9.89,0,0,1,1.66-.44,9.89,9.89,0,0,0-1.66.44Z"/><polygon class="cls-17" points="132.52 122.38 132.52 122.38 132.52 122.38 132.52 122.38 132.52 122.38 132.52 122.38"/><path class="cls-13" d="M114.74,118h0s-2.1,1.89-1,3.29c.47.58.75.07.88-.33a0,0,0,0,1,.09,0c0,.6.13,1.75.91,1.86,1.07.13,1-2.84,1-2.85h0A5.43,5.43,0,0,0,114.74,118Z"/><path class="cls-13" d="M114.74,118h0a5.43,5.43,0,0,1,1.89,2h0A5.43,5.43,0,0,0,114.74,118Z"/><path class="cls-21" d="M123.07,120.32a.87.87,0,0,0-.63,1.39c1.77,2.36,6,6.61,9.64-.2C133,119.75,126.17,120.08,123.07,120.32Z"/><path class="cls-12" d="M109.76,129.21v0l-.1,1.93a.13.13,0,0,0,.11.14l1.12.26h0a.14.14,0,0,0,.14-.1.15.15,0,0,0-.11-.17l-1-.23.09-1.8-.13,0Z"/><path class="cls-12" d="M110.88,129.35l-.16,1.28a.13.13,0,0,0,.1.15L112,131h0a.13.13,0,0,0,.13-.11.13.13,0,0,0-.1-.16l-1-.23.15-1.16v0h-.27Z"/><path class="cls-14" d="M114.12,127.14a.65.65,0,0,0,0-.18h0a.57.57,0,0,0,0-.23s-.36-3.18-4-2.47c-3.18.61-2.21-.28-3.16-.88a.21.21,0,0,0-.31.24c.34,1-.62,4.63,2.81,5.53l.26.06c0-.06.06-.12.14-.11a.14.14,0,0,1,.12.15h0a4.58,4.58,0,0,0,.86.09h0a.14.14,0,0,1,.16-.11c.06,0,.1.06.11.12a3.29,3.29,0,0,0,2-.69,2.28,2.28,0,0,0,.22-.22,2.41,2.41,0,0,0,.33-.4A2.47,2.47,0,0,0,114.12,127.14Zm-1.71-.44a.35.35,0,1,1,0-.69c.19,0,.45.12.46.32S112.6,126.69,112.41,126.7Z"/><path class="cls-14" d="M109.9,129.1c-.08,0-.12.05-.14.11l.13,0,.13,0h0A.14.14,0,0,0,109.9,129.1Z"/><path class="cls-14" d="M111,129.23a.14.14,0,0,0-.16.11h.27C111.14,129.29,111.1,129.23,111,129.23Z"/><path class="cls-15" d="M114.16,127a.65.65,0,0,1,0,.18,2.47,2.47,0,0,1-.4.9,2.41,2.41,0,0,1-.33.4,2.28,2.28,0,0,1-.22.22h2.27a0,0,0,0,0,0-.07Z"/><path class="cls-15" d="M114.12,127.14a.65.65,0,0,0,0-.18h0A.65.65,0,0,1,114.12,127.14Z"/><path class="cls-15" d="M113.39,128.44a2.41,2.41,0,0,0,.33-.4A2.41,2.41,0,0,1,113.39,128.44Z"/><path class="cls-22" d="M98.75,122.85a.5.5,0,0,0,0,1c.28,0,.63-.22.63-.49S99,122.85,98.75,122.85Z"/><path class="cls-22" d="M115.55,115c-.28,0-.63.22-.63.5s.35.49.63.49a.5.5,0,0,0,0-1Z"/><path class="cls-22" d="M111.22,136.06a.35.35,0,0,0-.33.37.35.35,0,0,0,.37.33c.19,0,.43-.19.42-.38S111.41,136.05,111.22,136.06Z"/><path class="cls-22" d="M112.37,126a.35.35,0,1,0,0,.69c.19,0,.43-.18.42-.37S112.56,126,112.37,126Z"/></g></svg>