<svg id="Layer_1" data-name="Layer 1" xmlns="http://www.w3.org/2000/svg" viewBox="0 0 1920 5614"><defs><style>.cls-1{fill:#fbd2c0;}.cls-2{fill:#152d53;}.cls-3{fill:#eaefe1;}.cls-4{fill:#4f3d2f;}.cls-5{fill:#dfdbd0;}.cls-6{fill:#e8eede;}.cls-7{fill:#5e877e;}.cls-8{fill:#fdda0e;}.cls-9{fill:#c6742b;}.cls-10{fill:#185939;}</style></defs><title>10</title><path class="cls-1" d="M611.55,3275.88c-7.46,8.23-15.71,16.36-19.24,26.89,8.57,2.1,17.06-3.41,23.69-9.23a138.7,138.7,0,0,0,22.55-25.29c3.83-5.54,17.58-23.72,15.12-30.72-4.26-12.16-14.23,1.45-17.07,5.82A255.35,255.35,0,0,1,611.55,3275.88Z"/><path class="cls-1" d="M735,3255.69c11.64,21.68,24.21,44.39,45.23,57.18,4.46,2.71,11.26,4.43,14.07,0,2.57-4-.89-9.12-4.12-12.65a576,576,0,0,1-45.26-56.31c-3.47-4.92-10-20.33-17.69-12.24C721.32,3237.88,731.89,3249.93,735,3255.69Z"/><path class="cls-1" d="M641.9,3147.49c8.34,12.46,27.2,15.7,39.89,7.73,22.63-14.22,18.47-53.42-6.91-62.85C645.83,3081.59,627.35,3125.76,641.9,3147.49Z"/><path class="cls-1" d="M660.75,3447.66c-3.78,21.32-7,43.37-14.57,63.77-.76,2-1.56,4.05-2.41,6l-18.57-.78c-.45,0-.91,0-1.35-.06.06-1.12.13-2.32.22-3.58,1.86-29.77,6.64-96.76,35.44-101.64C674.27,3408.91,662.57,3437.4,660.75,3447.66Z"/><path class="cls-1" d="M673.29,3132.86c1.37,6.1.23,12.45-.37,18.69s-.54,12.93,2.85,18.19,11.21,8.06,16.16,4.22l.73-29.14a10.62,10.62,0,0,0-.71-5.05c-2.1-4.17-8.1-3.73-12.65-2.66Z"/><path class="cls-1" d="M782.67,3506.1l-20.14,11.84c-2.76-4.72-5.58-9.53-8.13-14.47a105.42,105.42,0,0,1-5.73-12.86c-4.18-11.53-31.18-59.79-13.74-67.44,6.6-2.9,14.59.08,19.6,5.27s7.66,12.13,10.11,18.9q6.45,17.94,12.12,36.15c1.84,5.91,3.63,11.92,5,18C782.09,3503,782.4,3504.56,782.67,3506.1Z"/><path class="cls-2" d="M588,3436.15l74.1,14.51c13.09,2.56,26.24,5.13,39.57,5.61a128,128,0,0,0,87.44-30.88,168.15,168.15,0,0,1-31.59-55c-5.2-15.14-8.22-31-13.14-46.19-8.74-27-23.32-51.71-37.78-76.15-.83-1.41-1.83-2.94-3.43-3.32a6.12,6.12,0,0,0-3.86.79c-13.57,6.08-34.81,11.22-44.13,23.47-8.74,11.5-12.69,33.65-18.11,46.92C632.76,3326.35,591.62,3436.86,588,3436.15Z"/><path class="cls-3" d="M643.77,3517.47c-1.44,3.39-3,6.73-4.77,10-2.41,4.5-7,9.53-11.7,7.45-4-1.78-4.3-7.31-3.91-11.71.15-1.71.28-3.94.46-6.57.44,0,.9,0,1.35.06Z"/><path class="cls-3" d="M783.79,3528.11c-.16,1.55-.52,3.29-1.84,4.13s-9.18,4.7-9.9,3.15c-2.69-5.75-6.07-11.54-9.52-17.45l20.14-11.84A75.33,75.33,0,0,1,783.79,3528.11Z"/><path class="cls-4" d="M587.22,3536.21c3.19-.88,33.93-9.32,51.11-9.88a2,2,0,0,1,1.72.93c3.84,6.14-.83,15.28-7.74,18.17-7.29,3-20.32,4.07-28,2.3-5.95-1.36-9.88-2-14.1-3.45-1.64-.57-5-6.91-3.49-7.84h0A1.81,1.81,0,0,1,587.22,3536.21Z"/><path class="cls-4" d="M772.07,3526.52a28.24,28.24,0,0,1,12.31-6.94c3.64,4.45,4.15,10.6,4.51,16.34.15,2.41.27,5-.89,7.08-2.19,4-7.58,4.46-12.1,4.48l-25.15.11c-3.08,0-6.38,0-8.92-1.77s-3.68-5.84-1.39-7.9a7.7,7.7,0,0,1,4.2-1.48C756.56,3534.73,763.34,3535.25,772.07,3526.52Z"/><path class="cls-3" d="M644,3215l3.12-19.22c6.57-40.37,44.13-42.31,45.61,2.34l1.29,38.88c.08,2.62-.18,5.84-2.57,6.93a6.71,6.71,0,0,1-3.75.18c-13.48-1.91-27.25-3.91-39.33-10.17-5-2.62-10.36-7.55-8.8-13a13.08,13.08,0,0,1,3.32-5,100.13,100.13,0,0,1,14.81-13.09Z"/><path class="cls-5" d="M632.86,3324.06s1.64-3.72,3.39-13.52c5.89-32.89,14.51-65.35,17-98.66,4.23-55.61,68.82-58.71,68.26-.81-.2,21.12-3.52,42.83,2.93,62.94,3.06,9.55,16.16,29.87,16.2,39.89Z"/><path class="cls-6" d="M698.49,3249.83c-.6,6.31,6.33,11.33,12.66,10.92s11.73-4.62,16.19-9.12a86.26,86.26,0,0,0,12.56-16.11,16.79,16.79,0,0,0,2.76-6.9c.34-3.62-1.44-7-3.17-10.25l-19.42-35.85c-2.91-5.38-6.2-11.12-11.79-13.62s-13.86.56-14,6.68c-2.69,3.89-3.46,7-4.47,11.59C685.35,3207.54,700.48,3229.08,698.49,3249.83Z"/><path class="cls-4" d="M674.13,3133.24a44.6,44.6,0,0,1-25.78-35.16,6.07,6.07,0,0,1,.34-3.49,6,6,0,0,1,2.18-2.08,35.89,35.89,0,0,1,53.61,18.58c3.12,9.24,2.36,19.3,4.07,28.9s7.21,19.81,16.74,21.87l-30.94,1.67a109,109,0,0,0-20-31.48l5.14,2.07Z"/><path class="cls-6" d="M674.66,3175.65q13.38-3.06,26.55-7c-5.34-1.3-10.8-2.61-16.28-2.18-2.53.19-5,.77-7.59.68-1.94-.07-4.54-1.9-5.74.16C670.7,3168.91,674,3174.17,674.66,3175.65Z"/><path class="cls-2" d="M679.6,3203a1.54,1.54,0,0,0,2.37,1l2.73-1.88a.82.82,0,0,0,.42-1.2c-2.68-7.47-4.85-15.6-8.24-22.77a1.54,1.54,0,0,0-1.52-.87C668.16,3177.87,678,3195.89,679.6,3203Z"/><path class="cls-2" d="M656.36,3197.86a1.06,1.06,0,0,0,.56,1.45l3,1.2a1.7,1.7,0,0,0,.88.18c.57-.08.88-.7,1.1-1.24,3-7.17,8.07-13.65,11.13-20.56a1.07,1.07,0,0,0-1.15-1.49C666.24,3178.47,658.85,3192.65,656.36,3197.86Z"/><path class="cls-7" d="M677.43,3174.25a1.85,1.85,0,0,0-1.85-1.52c-1.71,0-4.32.27-5.23,1.58a3.73,3.73,0,0,0-.46,3.2,4.1,4.1,0,1,0,7.68-2.85,2,2,0,0,1-.14-.41Z"/><path class="cls-8" d="M578.45,3280.93s1.71-6.46,5.63-8,7.09-3.35,8.23-4.46,19.87,3.85,23.75,30.27-4.65,25-24.53,12.7S578.45,3280.93,578.45,3280.93Z"/><path class="cls-9" d="M589.3,3271.38s-4.15-8.57-6.28-10.12a1.78,1.78,0,0,1,2-.24c1,.67,5.52,7.67,5.71,9.34S589.3,3271.38,589.3,3271.38Z"/><path class="cls-10" d="M586,3265.18s.2-.61-2.69.45-3.57-1.16-6-.53-8.91,3.28-9.86,13.26-3.36,12.73-3.36,12.73,4.76-2.55,5.37-5.39S570.56,3272.86,586,3265.18Z"/></svg>