<svg id="Layer_1" data-name="Layer 1" xmlns="http://www.w3.org/2000/svg" xmlns:xlink="http://www.w3.org/1999/xlink" viewBox="0 0 1920 5614"><defs><style>.cls-1{fill:none;}.cls-2{clip-path:url(#clip-path);}.cls-3{fill:#e9eddf;}.cls-4{fill:#bad28b;}.cls-5{fill:#547d41;}.cls-6{fill:#4d4032;}.cls-7{fill:#96c19c;}.cls-8{fill:#f7d94a;}.cls-9{fill:#162c53;}.cls-10{fill:#64a1a0;}.cls-11{fill:#c6d07a;}.cls-12{fill:#406f71;}.cls-13{fill:#92c1b3;}.cls-14{fill:#658269;}.cls-15{fill:#fff;}.cls-16{fill:#2f4a3d;}.cls-17{fill:#5e867e;}.cls-18{fill:#478971;}.cls-19{fill:#dcd98f;}</style><clipPath id="clip-path"><rect class="cls-1" y="1079.58" width="581.2" height="1113.23"/></clipPath></defs><title>11</title><g class="cls-2"><path class="cls-3" d="M158.88,1740.43s-20.75,33-57.42,19.73S84.3,1735.1,84.3,1735.1s-32.13,6.39-51-13.67,27.84-14,27.84-14S4.83,1689.34,8.67,1659.8,46.88,1652,46.88,1652s-46.09-37.59-33.43-63.8,37.7-1.35,37.7-1.35-17.31-25.1-4.28-36S77,1557.61,77,1557.61s-9.52-86,39-61.89c0,0,.4-59.32,40-25.2,0,0,9.19-56,52-46.3s21.7,70,21.7,70,10.61-27.31,31.54-14-9.67,55.52-9.67,55.52,24.8-20.8,47.29.68-7.21,63.81-7.21,63.81,9.39-9.19,28.48-4.86-1.22,37.49-23.95,41.13c0,0,49.84,3.57-4.87,42.53,0,0,20-7.31,24.05,10.21s-22.31,37.63-56.14,40.22c0,0,27.29-4.07,21.65,20.74s-52,11.9-52,11.9,31.52,17.68,5,28.53S171.56,1778.6,158.88,1740.43Z"/><path class="cls-4" d="M119.6,1432.51s-37.29-5.55-30-31,30,0,30,0-13.4-36.57,5.8-37.5,18.73,17.69,18.73,17.69-2.77-23.7,19-26,13.43,33.5,13.43,33.5,8.8-21.46,33.33-16.83,17.13,32.75-12,39.29c0,0,19.9-1.79,20.37,11.63s-19.45,18.52-37,7c0,0-10.06,10.18-23.08,1.38C158.09,1431.58,146,1434.83,119.6,1432.51Z"/><path class="cls-5" d="M28.06,1337.4s-95,10.76-130.7-53.56,19-56.71,41.83-44.54c0,0-47.15-50.19-16.73-80.61S-19,1178.46-19,1178.46s-8.37-75.29,56.27-75.29S104,1167.36,104,1167.36s16.11-61.91,62.15-59.63S194,1167.36,194,1167.36s35.75-17.8,62.37,14.14-11.41,57.8-11.41,57.8,41.06-8.13,41.06,34.34-29.65,56.75-66.16,64.44c0,0,6.85,27.46-84.89,2.36C134.92,1340.44,17,1376.72,28.06,1337.4Z"/><path class="cls-6" d="M97.87,1702.14s-12.13,8.09-23.25,0,7.08-55.18,6.07-215.86,1.52-304.46,8.53-301.27S91,1306.46,92.9,1400.79,105.38,1693.38,97.87,1702.14Z"/><path class="cls-6" d="M85.77,1429.41S54.65,1441,40,1417.8s-7.73-53.37-16.24-53.37-10.4,93.12,62.06,76.22Z"/><path class="cls-6" d="M82.83,1451.86s31.13,11.6,45.82-11.6,7.74-53.37,16.24-53.37,10.41,93.11-62.06,76.22Z"/><path class="cls-6" d="M87.24,1279.89s-31.12,11.6-45.82-11.61-7.73-53.37-16.24-53.37-10.4,93.12,62.06,76.22Z"/><path class="cls-6" d="M84.3,1302.34s31.13,11.61,45.82-11.6,7.74-53.37,16.24-53.37,10.41,93.12-62.06,76.22Z"/><path class="cls-6" d="M90,1217.26s14.92,5.21,22.11-6.42,7.08-17.42,10.34-15.34c1.86,1.19-7.32,33.14-29.52,27.81"/><path class="cls-6" d="M30.34,1251.6s14.92,5.22,22.11-6.42,7.08-17.41,10.35-15.33c1.85,1.18-7.33,33.13-29.52,27.8"/><path class="cls-6" d="M138.64,1411.33s14.92,5.21,22.12-6.42,7.08-17.42,10.34-15.34c1.85,1.19-7.33,33.14-29.52,27.8"/><path class="cls-6" d="M82.83,1547.94s19,8,27.42-5.73,8.72-19.49,12.12-16.47c3.2,2.85-8.62,39-34.73,32.71"/><path class="cls-6" d="M44.16,1279.91s-8.83,8-27.3,3.21-17.67-18.47-21.68-18.07,2.31,22.32,25.89,24.9a45.16,45.16,0,0,0,30.05-7.06"/><path class="cls-6" d="M139.31,1285.14s35.47,15.31,55.35-14.78c0,0,2.42-4.57,4.84-2.42s-17.43,39.82-62.3,23.71Z"/><path class="cls-6" d="M33.64,1411.33s-14.92,5.21-22.11-6.42-7.08-17.42-10.34-15.34c-1.86,1.19,7.32,33.14,29.52,27.8"/><path class="cls-7" d="M12.31,1399.66s-61.44,5.81-60.51-29.35S-12,1357.49-12,1357.49s-21.47-27.93,0-36.3,24.27,23.27,24.27,23.27-2.09-22.37,23.16-24.68S45.81,1351,45.81,1351s22.32-26.06,42.81-2.79-31.79,33.51-31.79,33.51S79.32,1408.33,12.31,1399.66Z"/><path class="cls-8" d="M253.51,1303.6c-6,17.37-27.26,22.12-36,18.51-13-5.41,1.77-17.41,3.17-23.58,2.21-9.7-6.77-30.9,10.55-34.93C247.82,1259.74,261.73,1279.76,253.51,1303.6Z"/><path class="cls-8" d="M137.67,1457.09c4.67,13.56,21.28,17.27,28.09,14.45,10.18-4.23-1.38-13.59-2.47-18.41-1.73-7.57,5.29-24.12-8.24-27.27C142.12,1422.85,131.26,1438.48,137.67,1457.09Z"/><path class="cls-8" d="M184,1183.43c-.52,14.33-15.33,22.72-22.66,22-11-1.08-2.64-13.4-3-18.33-.56-7.75-12.09-21.53-.07-28.49C169.79,1152,184.74,1163.76,184,1183.43Z"/><path class="cls-9" d="M206.15,1922.23s-15.89,45.34-63.56,39.36-27.45-25.41-27.45-25.41-36.83,16.44-65-2.49,29.61-24.41,29.61-24.41-72.5-6.35-76-42.87,43.74-19.85,43.74-19.85S-18.07,1814-10,1779.08s44.89-11.91,44.89-11.91-27.62-25.41-15-42.08,38,0,38,0S23,1624.36,87.81,1640.14c0,0-15.71-71.34,41.19-41.18,0,0-4.26-69.79,49.83-69.79S224,1607.32,224,1607.32s5.28-35.69,34.06-25.37,3.54,69.3,3.54,69.3,24.1-31.73,57-12.09,8.76,78.59,8.76,78.59,8.77-13.6,32.87-13.6,8.76,45.34-17.53,55.91c0,0,60.81-9.32,5.76,52.4,0,0,22-14.24,31.65,5.69s-16.51,51.27-56.43,63.62c0,0,31.66-12.35,31.66,19s-59.18,28.48-59.18,28.48,42.66,12.62,13.76,32.9S231.79,1964.6,206.15,1922.23Z"/><path class="cls-10" d="M449.54,1876.77c-10.85,40.16-28.48,80.84-61.86,105.61-1,.74-1.91,1.41-2.93,2.1l-.06,0c-23.44,16.34-51.82,24-78.21,35.39-.05,0-.05,0-.1,0a9.7,9.7,0,0,0-1.33.53c-27.86,12.12-55.75,31.3-64.18,60.54.22.77-1.77,2.12-4.38,3.43h-.05c-4.3,2.18-10.18,4.06-10.89,2.94-1-1.68-.3-3.88.58-5.67.08-.13.1-.22.16-.3,5.6-11.08,13.75-21,17-33,2.38-8.75,1.93-18,2.45-27.15a64.27,64.27,0,0,1,1.62-12.29c4-16.61,17.07-29.85,32-38.13a106.64,106.64,0,0,1,11-5.32h.05c12-4.93,24.66-8.15,37.23-11.45,2.82-.73,5.65-1.5,8.48-2.27C381.78,1939.08,429.55,1919.15,449.54,1876.77Z"/><path class="cls-11" d="M243.27,2048.45c-3.23,11.94-11.38,21.87-17,33-.06.08-.08.17-.16.3-3.44-13.47-9.55-30.34-13.63-43.08s-12.53-25-24.88-29.4a346,346,0,0,0-85.83,25.11c-4.72,2.09-10.37,4.27-14.81,1.64-4.18-2.52-5.19-8.4-3.58-13s5.23-8.12,8.7-11.55c16.59-16.18,34.8-33.15,57.72-36.47.84-.1,1.64-.21,2.47-.27,17.9-1.82,35.56,4.8,52.42,11.35,7,2.72,14.1,5.5,20.47,9.43h0a47.31,47.31,0,0,1,8.42,6.26A35.4,35.4,0,0,1,239,2008a64.11,64.11,0,0,1,6.75,13.33C245.2,2030.42,245.65,2039.7,243.27,2048.45Z"/><path class="cls-12" d="M336.14,1951.85c-2.83.77-5.66,1.54-8.48,2.27-12.57,3.3-25.27,6.52-37.23,11.45h-.05a106.64,106.64,0,0,0-11,5.32c-14.93,8.28-28,21.52-32,38.13a64.27,64.27,0,0,0-1.62,12.29A64.11,64.11,0,0,0,239,2008c7.74-17.42,3.32-38,2.69-57.34-.1-2.82-.11-5.63,0-8.45,0,0,0-.1,0-.15a140.76,140.76,0,0,1,30.09-82.22c6.23-7.8,13.21-14.85,20.2-22q23.44-23.7,46.92-47.46c2.06-2.1,4.34-4.31,7.26-4.62,7.26-.71,9.69,9.45,9.32,16.76C353,1850.6,350.21,1905.64,336.14,1951.85Z"/><path class="cls-13" d="M239,2008a35.4,35.4,0,0,0-5.32-6.26,47.31,47.31,0,0,0-8.42-6.26h0c-6.37-3.93-13.44-6.71-20.47-9.43-16.86-6.55-34.52-13.17-52.42-11.35-22.15-12.51-44.72-25.54-60.84-45.21-21.2-26-28.58-62.58-19.07-94.73,1.14-3.81,2.71-7.86,6.12-10,2.67-1.58,5.93-1.68,9-1.76,11.39-.13,23-.31,33.86,3.12,18.59,5.92,32.32,21.33,48.52,32.18,13.36,9,28.81,15.14,40.15,26.55a97,97,0,0,1,10.28,13.3c9.56,14.2,20.41,34.3,21.33,43.87,0,0,0,.11,0,.15-.14,2.82-.13,5.63,0,8.45C242.29,1970,246.71,1990.55,239,2008Z"/><path class="cls-14" d="M463.74,2106.58c-29.33,11.32-62.7,5.36-91.9-6.3-11.22-4.52-22.46-10.06-30.45-19.13-5.06-5.71-8.64-12.64-13.89-18.16-10.66-11.2-26.1-15-42-16-15,5.6-36.23,24.76-36,38.34,0,0-5.76,6.35-13-.91,2.61-1.31,4.6-2.66,4.38-3.43,8.43-29.24,36.32-48.42,64.18-60.54a9.7,9.7,0,0,1,1.33-.53c.05,0,.05,0,.1,0,26.39-11.34,54.77-19.05,78.21-35.39l.06,0c15.56.85,29.76,10,42.83,18.84,6.51,4.39,13.18,9,17.53,15.49,3.7,5.51,5.43,12.07,7,18.57A482.38,482.38,0,0,1,463.74,2106.58Z"/><path class="cls-15" d="M223.63,1998.09a18,18,0,0,0-3.25-12.24,48.62,48.62,0,0,0-8.71-9.49c-3.26-2.83-6.72-5.66-10.08-8.5s-6.68-5.78-10-8.66q-19.87-17.52-38.63-36.27t-36.24-38.65c-11.66-13.27-22.9-26.9-33.4-41.12,12.45,12.54,24.67,25.23,37,37.83s24.65,25.12,37.07,37.56,24.93,24.81,37.52,37.11l9.47,9.21c3.14,3.1,6.31,6.09,9.46,9.31,1.54,1.63,3,3.32,4.41,5.11a34.07,34.07,0,0,1,3.67,5.71,22.3,22.3,0,0,1,2.17,6.43A15.71,15.71,0,0,1,223.63,1998.09Z"/><path class="cls-15" d="M130,1895.49a70.84,70.84,0,0,1,.39-13,122.52,122.52,0,0,1,5.52-24.91,70.33,70.33,0,0,1,5.15-11.93,70.08,70.08,0,0,1-.39,13,122.66,122.66,0,0,1-5.54,24.9A71.87,71.87,0,0,1,130,1895.49Z"/><path class="cls-15" d="M161.27,1928.85c1.41-4.32,3-8.32,4.5-12.33s3-8,4.37-11.94,2.73-8,4.05-12,2.6-8.19,4.2-12.44a42.41,42.41,0,0,1,.57,13.43,58.35,58.35,0,0,1-8.86,25.19A42.91,42.91,0,0,1,161.27,1928.85Z"/><path class="cls-15" d="M184.75,1950.86a147.38,147.38,0,0,0,11.45-12.17A104.22,104.22,0,0,0,212.74,1911a145,145,0,0,0,5.28-15.85,44,44,0,0,1-.62,17.29,56.32,56.32,0,0,1-17.73,29.69A44.21,44.21,0,0,1,184.75,1950.86Z"/><path class="cls-15" d="M131.66,1894.48a65.33,65.33,0,0,1-11.17.13c-3.64-.23-7.24-.63-10.81-1.17s-7.12-1.22-10.67-2.08a64.78,64.78,0,0,1-10.63-3.45,45.23,45.23,0,0,1,11.18-1.39,68,68,0,0,1,11,.79,69.26,69.26,0,0,1,10.79,2.53A45.51,45.51,0,0,1,131.66,1894.48Z"/><path class="cls-15" d="M161.63,1927.21a33.65,33.65,0,0,1-11.86,7.18,43.92,43.92,0,0,1-27.66.73,33.41,33.41,0,0,1-12.23-6.56c4.59.72,8.9,1.4,13.19,1.79a107.13,107.13,0,0,0,12.76.44,105.49,105.49,0,0,0,12.73-1.1C152.83,1929.08,157.09,1928.17,161.63,1927.21Z"/><path class="cls-15" d="M185.69,1951.07a50.19,50.19,0,0,1-10.61,2.44,84.89,84.89,0,0,1-21.21,0,50.61,50.61,0,0,1-10.61-2.42,49.56,49.56,0,0,1,10.6-2.46,82.16,82.16,0,0,1,10.61-.68,84.07,84.07,0,0,1,10.61.66A50.24,50.24,0,0,1,185.69,1951.07Z"/><path class="cls-15" d="M433.53,2089.54a395.62,395.62,0,0,0-25.09-30.69q-1.67-1.82-3.37-3.6l-3.39-3.56c-2.3-2.36-4.59-4.65-7-6.93l-3.52-3.36c-1.24-1.14-2.42-2.23-3.65-3.3-2.42-2.17-4.89-4.23-7.46-6.12-10.09-7.71-22.55-11.55-35.44-12.54s-26.16.17-39.43,1.3a174.63,174.63,0,0,1,19.51-4.51c3.31-.53,6.65-1,10-1.26s6.75-.38,10.14-.36a72.29,72.29,0,0,1,20.35,3c1.67.48,3.31,1.1,4.92,1.74l2.35,1c.83.35,1.64.73,2.42,1.13a65.46,65.46,0,0,1,8.85,5.53,102.19,102.19,0,0,1,7.88,6.56c1.24,1.14,2.48,2.32,3.65,3.46s2.45,2.43,3.58,3.61a198.81,198.81,0,0,1,13.29,15.09A179.55,179.55,0,0,1,433.53,2089.54Z"/><path class="cls-15" d="M368.59,2023.5a70.12,70.12,0,0,1,10.75-7.07,120.67,120.67,0,0,1,11.43-5.45,118,118,0,0,1,11.93-4.21,69.61,69.61,0,0,1,12.61-2.58,69,69,0,0,1-10.75,7.08,119.93,119.93,0,0,1-23.36,9.65A69.61,69.61,0,0,1,368.59,2023.5Z"/><path class="cls-15" d="M394.65,2041.65a50.21,50.21,0,0,1,13.84-5.27,67.55,67.55,0,0,1,14.73-1.67,66.35,66.35,0,0,1,14.74,1.58,49.93,49.93,0,0,1,13.87,5.21c-5,0-9.75-.24-14.49-.37s-9.42-.23-14.1-.22-9.37.11-14.1.28S399.64,2041.62,394.65,2041.65Z"/><path class="cls-15" d="M341.52,2016.91a54.59,54.59,0,0,0,.31,6.71l.14,1.63.2,1.63.17,1.63c.08.54.16,1.08.22,1.62.55,4.33,1.17,8.64,1.78,13s1.29,8.61,2,12.91c.1.54.18,1.08.26,1.63l.29,1.6c.19,1.08.37,2.17.61,3.23a56.39,56.39,0,0,0,1.62,6.52,16.16,16.16,0,0,1-2.45-2.51c-.38-.45-.72-.93-1.08-1.41s-.61-1-.92-1.48-.6-1-.88-1.52l-.77-1.57a31.9,31.9,0,0,1-1.37-3.19,62.43,62.43,0,0,1-3.44-13.32,63.17,63.17,0,0,1-.5-13.75,33.75,33.75,0,0,1,.4-3.45l.29-1.72c.12-.57.27-1.14.41-1.71s.28-1.12.46-1.68.4-1.12.63-1.66A15.74,15.74,0,0,1,341.52,2016.91Z"/><path class="cls-15" d="M392.73,2037.67c0,.48-.07.92-.09,1.36a7,7,0,0,0-.08,1.29c0,.88-.05,1.68,0,2.53s.07,1.63.17,2.46c.05.41.08.82.11,1.22s.12.82.16,1.22c.39,3.24.94,6.44,1.54,9.66s1.28,6.43,2,9.67,1.49,6.46,2.55,10a21.26,21.26,0,0,1-7.11-8.24,36.28,36.28,0,0,1-3.54-10.24,34.09,34.09,0,0,1-.31-10.91,20,20,0,0,1,.56-2.73,16.51,16.51,0,0,1,.89-2.65A12.86,12.86,0,0,1,392.73,2037.67Z"/><path class="cls-15" d="M289.11,1966.39c1.81-6.17,3.89-12.2,5.92-18.28l6.24-18.1q6.28-18.08,12.44-36.14c4.07-12,8.13-24.1,11.92-36.24l2.77-9.13c1-3,1.81-6.1,2.68-9.16s1.72-6.13,2.53-9.22,1.58-6.18,2.23-9.33a85.94,85.94,0,0,1-.54,9.63c-.31,3.21-.78,6.39-1.25,9.57q-1.55,9.52-3.76,18.91c-3,12.5-6.58,24.83-10.72,37s-8.75,24.1-13.81,35.88S295.19,1955.08,289.11,1966.39Z"/><path class="cls-15" d="M295.06,1952.07a29.51,29.51,0,0,1-7.1-4.1,46.26,46.26,0,0,1-10.66-11.49,28.92,28.92,0,0,1-3.53-7.4,28.9,28.9,0,0,1,7.11,4.09,45.08,45.08,0,0,1,5.81,5.3,46.38,46.38,0,0,1,4.83,6.2A29.28,29.28,0,0,1,295.06,1952.07Z"/><path class="cls-15" d="M319,1890.44a29.44,29.44,0,0,1-5.76-5.84,45.81,45.81,0,0,1-4.19-6.65,45.34,45.34,0,0,1-3-7.26,29.15,29.15,0,0,1-1.44-8.08,29,29,0,0,1,5.77,5.84,46.4,46.4,0,0,1,7.2,13.92A29.38,29.38,0,0,1,319,1890.44Z"/><path class="cls-15" d="M305.16,1928.79a48.76,48.76,0,0,1-8.31-8,74.87,74.87,0,0,1-6.59-9.24,62.92,62.92,0,0,1-5-10.27q-.48-1.38-.9-2.76c-.28-.93-.48-1.91-.69-2.86a17.79,17.79,0,0,1-.29-5.91c.28.42.52.84.78,1.25a9.89,9.89,0,0,0,.75,1.19c.57.78,1,1.56,1.57,2.31l1.57,2.29q.81,1.13,1.56,2.28c2.08,3,4.07,6.12,6,9.29s3.7,6.41,5.35,9.77A66.55,66.55,0,0,1,305.16,1928.79Z"/><path class="cls-16" d="M43.4,1940.36s-15.77-187.55,16.16-187.85.19,54.81,22.93,59-15.26-135,15.27-154,6.76,36,22.84,38.44.25-144,50.52-136.34,38.71,84-21.82,143.78c0,0,25.18-16.75,31.39-3.46s-17.78,76.5-63.86,115.8,28.91-.75,29.36,30.17S43.4,1940.36,43.4,1940.36Z"/><path class="cls-17" d="M22.58,1965.25S70,1910.48,96.47,1802.88s65.1-139.8,76.63-196.52c0,0,.1,26.83-19,60.32-27.3,47.79-45.47,103.17-54.53,145.45C88,1865.93,53.82,1975.33,22.58,1965.25Z"/><path class="cls-18" d="M33.33,2082.14s29.49-69.56,34.05-122.25S73.11,1854,94,1886.44c0,0,3-82.33,24.73-88.48s12.12,19.79,19.5,20.91,23.42-110.76,70-99.92-13.09,92.49-40.32,110.09,27.31-11.92,32.68,8.74-51.84,67.71-75.27,72.66,21.58-5.23,22.25,9S141.29,1945.75,99,1980,33.33,2082.14,33.33,2082.14Z"/><path class="cls-19" d="M45.56,2049.12s-9.45-43.2,48.54-116.73,57.9-96,83.28-159.75c0,0-13.75,27-22.4,50.59-16,43.66-45.16,83.92-68.64,111.92C56.46,1970.78,22.6,2033.53,45.56,2049.12Z"/><path class="cls-5" d="M33.33,2082.14s3.92-83.5-30.6-130.37-15.4-59.89,2.19-54.77-37.43-27.72-40-67.3,19.63-32.53,32.9-23.17-10.7-50.6-18-87.22-16.17-116.43,40.68-118.72c24.9-1,71.27,14.49,26.84,162s-6-.91,22,8.24S46.2,1875.1,53.2,1877.38s13.68-21.39,27.68-12.94S58.82,2056.51,33.33,2082.14Z"/><path class="cls-19" d="M33.33,2082.14s18.58-70-4.88-178.32-11.71-132.12-5.58-213.09c0,0,.59,35.88-2.45,65.42-5.63,54.76,4.43,112.67,14.85,154.63C48.53,1964.18,65.83,2077.49,33.33,2082.14Z"/><path class="cls-16" d="M472.43,2026s36.88-154.34,10.29-158.63-7.09,45.66-26.58,46.3,29.8-110.61,6.75-130.33-10.18,29.15-23.9,29.15,18-120-24.86-120-42.9,65.17,0,122.62c0,0-18.87-17.15-25.73-6.86s5.15,66,38.59,104.62-24-4.29-28.3,21.43S472.43,2026,472.43,2026Z"/><path class="cls-17" d="M486.64,2049.39s-32.62-51.66-41.06-144.7-36.58-124.77-39-173.52c0,0-3.48,22.36,8.23,52.69,16.72,43.29,24.86,91.76,27.06,128.15C444.65,1958.32,459.32,2053.84,486.64,2049.39Z"/><path class="cls-18" d="M462.89,2145.47S447.1,2083.75,450,2039.25s8.61-89-12.92-64.6c0,0,7.9-69-9.43-76.88s-12.6,15-18.9,15-5.51-95.29-45.68-92.14-.79,78.75,19.69,96.87-21.26-13.39-28.35,3.15,34.65,63,53.55,70.09-17.32-7.09-19.69,4.73,1.9,22.69,32.82,56.62S462.89,2145.47,462.89,2145.47Z"/><path class="cls-19" d="M456.88,2116.39s13.33-34.81-25.71-103.44-36.12-87.34-49.21-143.71c0,0,8.05,24.27,12.28,45,7.84,38.43,27,75.67,43.05,102C457.7,2049.71,478,2106.3,456.88,2116.39Z"/><path class="cls-5" d="M462.89,2145.47s7.3-70.11,42-104.81,20.42-48,5.11-45.94,34.7-18.37,41.85-51-12.25-29.6-24.5-23.48,15.32-40.83,26-70.43,28.22-95-18.89-104.12c-20.63-4-61.24,3.07-42.87,131.68s5.11,0-19.39,4.08,6.12,89.83,0,90.85-8.7-19.57-21.44-14.29S444.89,2120.88,462.89,2145.47Z"/><path class="cls-19" d="M462.89,2145.47s-6.63-60.73,26.63-148,26.47-108.66,31.6-176.93c0,0-5,29.84-6.23,54.85-2.24,46.35-17.94,93.35-31.94,127C465.14,2045.21,436.39,2137.48,462.89,2145.47Z"/></g></svg>