<svg id="Layer_1" data-name="Layer 1" xmlns="http://www.w3.org/2000/svg" viewBox="0 0 1920 5614"><defs><style>.cls-1{fill:#f1817f;}.cls-2{fill:none;stroke:#4f3d2f;stroke-linecap:round;stroke-linejoin:round;stroke-width:8.18px;}.cls-3{fill:#f07071;}.cls-4{fill:#976334;}.cls-5{fill:#7e5a3f;}</style></defs><title>12</title><path class="cls-1" d="M523.41,3179a45,45,0,0,1-18.37-3,399.17,399.17,0,0,0,4.53-59.62c-5.2,0-10.41-.06-15.57,0-2.36,13-4.69,26-7.05,39-.85,4.5-1.71,9.21-4.4,12.92s-7.74,6.11-11.95,4.33a6.15,6.15,0,0,1-3.75-4.21,10.67,10.67,0,0,1,0-3.24,343.06,343.06,0,0,0,1.35-55.41l-39.27-1.94a41.09,41.09,0,0,0-3.14,6.68A321.79,321.79,0,0,0,413.27,3154c-1.51,6.11-3.43,13-9.07,15.79s-12.1.18-17.7-2.36c.18-7.37,4-14.09,6.15-21.19,3.23-10.81,2.57-22.4,1.85-33.67a2.36,2.36,0,0,0-.83-2,2.51,2.51,0,0,0-1.43-.12c-4.5.67-11.55,2.18-16.05,2.81a274.79,274.79,0,0,1-23,50.38,7.46,7.46,0,0,1-2.53,3,7.06,7.06,0,0,1-4.08.48c-2.45-.16-4.86-.41-7.26-.7-1.71-.22-3.65-.65-4.47-2.16a5,5,0,0,1-.43-2.81c.45-10.92,3.06-21.68,5.63-32.32,1.3-5.3,2.6-10.56,3.86-15.86-14-2.91-28.65-1.34-42.88.53-9.12,1.24-18.54,2.55-27.48.36-8.73-2.18-18.52-12.48-20.3-21.47l-7.62-.77c-2-.18-4.16-.42-5.77-1.65-1.86-1.41-2.63-3.75-3.21-6a78.92,78.92,0,0,1-.26-38.12,5.14,5.14,0,0,1,1.47-2.91c1.79-1.39,4.34,0,6.61-.23a8.81,8.81,0,0,0,4.34-2.4A522.49,522.49,0,0,0,288.72,3003c4.25-4.53,8.34-9.07,12.14-13.54.35-1.17.78-2.33,1.21-3.5a75.3,75.3,0,0,1,10.87-19c9.64-12.56,22.64-22.9,35.28-32.73,2.52,7.39,10.11,12,13.17,19.17a30.87,30.87,0,0,1,2,8.22c.26,1.94.49,3.84.68,5.77,11.86-7.36,30.8-7.64,44.53-8.48,16.36-.94,32.17-6.18,48.26-9.14,18.95-3.51,38.72-3.83,57.2,1.65s35.44,17.18,45,33.87c6.91,12,9.7,26,10.08,39.87C570.54,3078.94,537.28,3126.94,523.41,3179Z"/><path class="cls-2" d="M282.94,3042l1,10.16"/><path class="cls-3" d="M312.94,2966.91a75.3,75.3,0,0,0-10.87,19c-.43,1.17-.86,2.33-1.21,3.5-3.8,4.47-7.89,9-12.14,13.54-4-17.5-5.18-39.48-.79-55.93C297.47,2950.2,307.07,2958.58,312.94,2966.91Z"/><path class="cls-3" d="M319.8,3014.79a35.83,35.83,0,0,0,19.23-4.43,6.87,6.87,0,0,0,3.05-2.73,7.61,7.61,0,0,0,.27-4.24q-2.19-17.08-4.37-34.18c-10.2,12.16-17.73,29.71-18.18,45.58Z"/><path class="cls-4" d="M577.65,3044.39a14.43,14.43,0,0,1-7.85-2.8,11,11,0,0,1-4.48-7.85,4.09,4.09,0,1,1,8.16-.65,2.9,2.9,0,0,0,1.25,2,6.21,6.21,0,0,0,4.64,1.08c3.65-.74,6.78-4,9.1-6.81,4.78-5.75,7.67-11.08,8.78-16.23a15.83,15.83,0,0,1-14.76-3.91,14.76,14.76,0,0,1-1.3-19.32,9.92,9.92,0,0,1,7.8-4,10.82,10.82,0,0,1,4.23,1.06,21,21,0,0,1,9.4,8.88,36.78,36.78,0,0,0,.58-9.5c-.27-4.45-1-9.92-4-13.36a4.09,4.09,0,0,1-6.58-3.22,5.38,5.38,0,0,1,3.29-5.05,8.26,8.26,0,0,1,8.43,1.81c5.55,5.36,6.69,13.15,7.05,19.34.57,9.6-1.3,17-5.44,21.87a26.4,26.4,0,0,1-.09,3.32c-.69,7.72-4.32,15.43-11.07,23.54-3.18,3.82-7.62,8.36-13.78,9.6A13.22,13.22,0,0,1,577.65,3044.39Zm11.21-50.34h0a2.38,2.38,0,0,0-1.29.95c-1.8,2.24-1.48,6.23.68,8.37a7.87,7.87,0,0,0,9,1c-1-4.21-3.43-8.2-7.42-10A2.88,2.88,0,0,0,588.86,2994.05Z"/><path class="cls-5" d="M405.7,2971s8.07,5.67,10,10.66-.09,1.59-.09,1.59S482.69,2969.21,505,2970c0,0-7.4-12.71-13.7-11.46Z"/></svg>