<svg id="Layer_1" data-name="Layer 1" xmlns="http://www.w3.org/2000/svg" viewBox="0 0 891.06 908.5"><defs><style>.cls-1{fill:#ebc081;}.cls-2{fill:#a16c44;}</style></defs><title>13_2</title><path class="cls-1" d="M0,158.72c27.64-8.94,501.67,121.43,530.66,119.4s59.53,3.59,82.5,21.38c30,23.25,42.07,62.3,62.74,94.16A192.09,192.09,0,0,0,761,465.25c20.92,8.94,43.26,14.07,64.49,22.24s42,20.07,54.76,38.9,15.47,45.8,1.62,63.83c-10.39,13.52-28,19.8-45,21s-34-2-50.94-3.81A331.76,331.76,0,0,0,610,636.81c-26.15,12.29-50.64,28-77.27,39.21S30,908.5,1.14,908.5Z"/><path class="cls-2" d="M417.36,656.48c7.66,0,7.67-11.9,0-11.9S409.68,656.48,417.36,656.48Z"/><path class="cls-2" d="M529.7,632c7.66,0,7.67-11.9,0-11.9S522,632,529.7,632Z"/><path class="cls-2" d="M435.74,556.4c7.66,0,7.68-11.91,0-11.91S428.07,556.4,435.74,556.4Z"/><path class="cls-2" d="M441.87,423.63c7.66,0,7.67-11.91,0-11.91S434.2,423.63,441.87,423.63Z"/><path class="cls-2" d="M588.93,578.87c7.66,0,7.68-11.91,0-11.91S581.26,578.87,588.93,578.87Z"/><path class="cls-2" d="M495,585c7.66,0,7.67-11.9,0-11.9S487.32,585,495,585Z"/><path class="cls-2" d="M472.51,676.91c7.66,0,7.67-11.91,0-11.91S464.83,676.91,472.51,676.91Z"/><path class="cls-2" d="M378.55,723.89c7.66,0,7.67-11.91,0-11.91S370.88,723.89,378.55,723.89Z"/></svg>