<svg id="Layer_1" data-name="Layer 1" xmlns="http://www.w3.org/2000/svg" viewBox="0 0 891.06 908.5"><defs><style>.cls-1{fill:#175a39;}.cls-2{fill:#7e5a3f;}.cls-3{fill:#fbd2c0;}.cls-4{fill:#f5b843;}.cls-5{fill:#4f3d2f;}.cls-6{fill:#fbd901;}.cls-7{fill:#f9da4a;}.cls-8{fill:#c56428;}.cls-9{fill:#68a270;}.cls-10{fill:#f8b517;}.cls-11{fill:#c2bfa5;}.cls-12{fill:#eaefe1;}</style></defs><title>13_2</title><path class="cls-1" d="M625.82,527.3c-.49,2.56-3,4.4-5.55,4.89a15.86,15.86,0,0,1-7.74-1c-10.34-3.28-19.8-9.78-25.73-18.85-4.09-6.3-6.39-13.58-8.18-20.89a175.64,175.64,0,0,1-4-59.31,5.72,5.72,0,0,0,2.53.28,97.81,97.81,0,0,1,37.64-1.87c0,18,.17,36.24.17,54.19,0,11.63.26,24.12,7,33.62C623.89,521.11,626.45,524,625.82,527.3Z"/><path class="cls-1" d="M510.09,499.25c-1.47,10.54-5.44,21.13-13.18,28.41-6.48,6.07-15,9.38-23.54,11.85a6.1,6.1,0,0,1-4.21.18c-2-.9-2.44-3.66-1.69-5.7s2.36-3.63,3.62-5.41c5.12-7.14,4.78-16.67,4.2-25.41q-2.07-32-4.11-64a51.66,51.66,0,0,1,38.71-4.26H510c-.4,10.68-.14,21.7.29,32.4S511.53,488.72,510.09,499.25Z"/><path class="cls-2" d="M625.38,370c-.73,21.32-2.59,43-10.54,62.74a97.48,97.48,0,0,0-37.67.89,5.9,5.9,0,0,1-2.53-.36,8.58,8.58,0,0,1-3.81-2.8,18.06,18.06,0,0,1-3-7.16c-1.72-7.07-2.24-14.37-2.74-21.61-1.9-27.6-3.27-56.71-3.72-84.39a42.78,42.78,0,0,1-12.68.3q-8.6,39.81-17.28,79.61c-1.61,7.44-3.25,15-6.45,21.88s-8.12,13.26-14.86,16.74A51.64,51.64,0,0,0,471.29,439h0c-4.4-1.29-7-5.82-8.22-10.26s-.77-9.09-.36-13.65q1.55-18.11,3.11-36.19c3.11-36.23,6.47-73.48,17.77-108,6.37,6.24,20.05,10.34,61.1,9.55.6,0,1.55.06,2.73.1,14,.36,63.58.48,71.85-7.65a15.58,15.58,0,0,0,2.17-2.62A679.61,679.61,0,0,1,625.38,370Z"/><path class="cls-3" d="M475.51,48.93a23.62,23.62,0,0,1-1.58,5.26,56.37,56.37,0,0,1-3.71,7.26c-.69,1.17-1.41,2.33-2.1,3.51l-42.25,70.79c2.62-1.15,5.24-2.3,7.86-3.48A335.16,335.16,0,0,0,431,169.59c-7.31.18-15,.26-22-1.84s-13.64-6.79-16.09-13.67c-3.51-9.93,2.3-20.49,7.88-29.38,16.12-25.61,32.29-51.34,51.55-74.65,2-2.42,4-4.84,6.07-7.2.52-.6,1.06-1.2,1.61-1.78a14.57,14.57,0,0,1,6.22-4.29c3.05-.92,7,.32,8,3.25a9.61,9.61,0,0,1,.77,1.62A13.18,13.18,0,0,1,475.51,48.93Z"/><path class="cls-4" d="M547.75,284.74H545c-41,1.87-54.79-1.87-61.32-8a22.06,22.06,0,0,1-4.46-5.92c-2.85-5.1-3.05-11.23-3.17-17.1-.6-27.88-1.18-56.75-1.78-84.64-14.36,2.13-29.07,3.29-43.32,4.15,0-1.21,0-2.42.06-3.66a335.16,335.16,0,0,1,2.71-37.32c24-10.59,47.86-21.33,71.86-31.89l45.87,43.37C554.51,193.77,552.21,234.75,547.75,284.74Z"/><path class="cls-5" d="M577.79,64.35a13.68,13.68,0,0,0-3.37-10.47c-1.87-2.22-3.54-4.72-5.64-7.14-5,3.74-10.9,5.09-16.95,6.68s-12.28,3.31-17.15,7.25-8.2,10-6,15.85c-2.82-2.5-5.24-5-6.74-8.77-2.18-5.53-1.52-11.72-.69-17.61,2.48-.21,5-.44,7.43-.7,16.92-1.84,34-3.45,50.19-6.53A43.88,43.88,0,0,1,577.79,64.35Z"/><path class="cls-6" d="M571.06,21.56c-34.31,13.58-52.9,7.57-52.9,7.57a56,56,0,0,0-.69-18.85,3,3,0,0,1,2.43-3.47l.1,0,13-1.58L542.5,0,553,2.77l10.67-1.33A2.93,2.93,0,0,1,566.89,4v.06C567.32,8.49,568.47,16.78,571.06,21.56Z"/><path class="cls-3" d="M584.47,93.71c-2.28,13.87-11.17,29.12-23.46,35.91a42,42,0,0,1-5,2.22l-31.32-29.62A41.92,41.92,0,0,1,523,92.93c2.85-1.27,5.81-2.59,7.83-5s2.84-6.07,1-8.58c-1.09-1-2.18-1.93-3.19-2.85h0c-2.16-5.89,1.21-11.91,6-15.85S545.69,55,551.76,53.4s12-2.94,17-6.68c2.1,2.42,3.77,4.92,5.64,7.14a13.68,13.68,0,0,1,3.37,10.47v.09A35.61,35.61,0,0,1,574,72.79a45.69,45.69,0,0,0-3.34,5.64c-.86,2-2.19,4.32-1.44,6.39.72,2.91.72,2.91,2,4.09a11.78,11.78,0,0,0,4.63,2.36C578.74,92.21,581.59,93,584.47,93.71Z"/><path class="cls-7" d="M708.34,186.29l-1.61.71a307.21,307.21,0,0,1-32.46,11.86l-2.76.81a199.64,199.64,0,0,0-43.11-39.92c1.18,14.1,2.36,28.55,2.7,42.71l-74.74-70.62a41.33,41.33,0,0,0,5-2.22c12.29-6.79,21.18-22,23.46-35.91,2.85.69,5.72,1.26,8.63,1.69,37.67,9.07,50.28,18.42,79.54,43.8C693.93,157.36,706.56,173.16,708.34,186.29Z"/><path class="cls-3" d="M716,299a10.89,10.89,0,0,1-2.56,3.42,6.16,6.16,0,0,1-5.9,1.38,6.61,6.61,0,0,1-3.72-4.54,25.65,25.65,0,0,1-.57-6c-.09-3.1-.69-4.46-1.24-7.45Z"/><path class="cls-8" d="M460,41.07c-.55.58-1.09,1.18-1.61,1.78-2.07,2.36-4.09,4.78-6.07,7.2L427.91,26.13s-4.29-4-.23-8.34,8.35-.23,8.35-.23Z"/><path class="cls-3" d="M720.34,274.84c-.05,3.22-.46,7.88-.83,11.22L699,266.69c-7-18.91-17.87-49.38-24.75-67.83A309.66,309.66,0,0,0,706.73,187a96,96,0,0,1,7,23.63C716.69,231.73,720.78,253.54,720.34,274.84Z"/><path class="cls-7" d="M630.72,218.66a207.09,207.09,0,0,1-4.09,35.8c-1.3,6.28-1.84,12.89-5.15,18.07a17,17,0,0,1-2.1,2.68c-8.06,8.35-57.62,9.53-71.63,9.53,4.46-50,6.76-91,3.71-141Z"/><path class="cls-6" d="M563.26,164.15a2.23,2.23,0,0,1-1.1,1.62,3.24,3.24,0,0,1-3.06.34,2.23,2.23,0,0,1-1.21-2.64,2.4,2.4,0,0,1,1.74-1.44c.76-.19.53-.11,1.28,0a2.42,2.42,0,0,1,1.14.38A2,2,0,0,1,563.26,164.15Z"/><path class="cls-6" d="M560.5,271.7a2,2,0,0,1-1.06,1.59,3.19,3.19,0,0,1-3.06.34,2.24,2.24,0,0,1-1.21-2.65,2.44,2.44,0,0,1,1.74-1.39c.76-.19.53-.12,1.28,0s.46,0,1.1.38A1.87,1.87,0,0,1,560.5,271.7Z"/><path class="cls-6" d="M563.26,235.41a2.14,2.14,0,0,1-1.1,1.58,3.14,3.14,0,0,1-3.06.34,2.23,2.23,0,0,1-1.21-2.64,2.35,2.35,0,0,1,1.74-1.4c.76-.19.53-.11,1.28,0a2.42,2.42,0,0,1,1.14.38A2.09,2.09,0,0,1,563.26,235.41Z"/><path class="cls-6" d="M563.26,199.84a2.25,2.25,0,0,1-1.1,1.59,3.19,3.19,0,0,1-3.06.34,2.24,2.24,0,0,1-1.21-2.65,2.54,2.54,0,0,1,1.74-1.43,2.42,2.42,0,0,1,1.28,0c.75.08.46.07,1.14.37A2.11,2.11,0,0,1,563.26,199.84Z"/><path class="cls-9" d="M525.05,102.22l-6.33-6c1.7-1.07,2.54-2.42,4.61-3.31A42.1,42.1,0,0,0,525.05,102.22Z"/><path class="cls-8" d="M730.69,311.66l-29-25.86-71-67.14-79.26-74.91-45.87-43.37L468.09,65c.69-1.18,1.41-2.34,2.1-3.51a56.37,56.37,0,0,0,3.71-7.26l44.46,42,6.33,6L556,131.84l74.73,70.62,67.92,64.23,35.48,32Z"/><path class="cls-10" d="M625.45,24.23c-.23,1.88-1.9,3.2-3.54,4.15-12.81,7.22-27.48,11.54-43.08,14.53-16.15,3.08-33.27,4.69-50.19,6.53-2.48.26-4.95.49-7.43.7a210.38,210.38,0,0,1-45.7-1.21,13.28,13.28,0,0,0-.49-7.28,210.21,210.21,0,0,0,43.14-12.52s18.59,6,52.9-7.57a193.8,193.8,0,0,1,46.76-2.62C621.3,19.2,625.88,20.78,625.45,24.23Z"/><path class="cls-11" d="M724.13,313.39c-1.06-2,.12-4.47,1.3-6.45q4.35-7.31,9-14.45c2.1-.93,4.53.57,5.9,2.42s2.2,4.1,3.84,5.7c2.79,2.72,7.73,3.43,9,7.13.77,2.37-.42,4.89-1.69,7a77,77,0,0,1-5,7.5,9.35,9.35,0,0,1-3,2.87c-4.46,2.31-8.46-1.85-10.57-5.25S725.85,316.7,724.13,313.39Z"/><path class="cls-12" d="M762.06,311.62a6.22,6.22,0,0,1,2.74.67,4.13,4.13,0,0,1,1.64,4.06,11.29,11.29,0,0,1-1.75,4.24c-8.88,15-21,27.69-33.1,40.25l-11.47,12a3.31,3.31,0,0,1-5.45.54l-19.85-15.26c-1.16-.89-2.41-1.93-2.63-3.38s.82-3,1.86-4.15C707.88,335,730.8,329.91,744.23,314c2.1-2.49,4.48-5.4,8.12-4.54,1.1.26,2,1.13,3.13,1.46C757.52,311.56,759.94,311.45,762.06,311.62Z"/></svg>