<svg id="Layer_1" data-name="Layer 1" xmlns="http://www.w3.org/2000/svg" viewBox="0 0 891.06 908.5"><defs><style>.cls-1{fill:#ebc081;}.cls-2{fill:#175a39;}.cls-3{fill:#7e5a3f;}.cls-4{fill:#fbd2c0;}.cls-5{fill:#f5b843;}.cls-6{fill:#4f3d2f;}.cls-7{fill:#fbd901;}.cls-8{fill:#f9da4a;}.cls-9{fill:#c56428;}.cls-10{fill:#68a270;}.cls-11{fill:#f8b517;}.cls-12{fill:#c2bfa5;}.cls-13{fill:#eaefe1;}.cls-14{fill:#a16c44;}</style></defs><title>13</title><path class="cls-1" d="M1,2081.7c27.64-8.94,501.67,121.43,530.66,119.4s59.53,3.59,82.5,21.38c30,23.25,42.07,62.3,62.74,94.16A192.08,192.08,0,0,0,762,2388.23c20.92,8.94,43.26,14.07,64.49,22.24s42,20.07,54.76,38.9,15.47,45.8,1.62,63.83c-10.39,13.52-28,19.8-45,21s-34-2-50.94-3.81A331.78,331.78,0,0,0,611,2559.79c-26.15,12.29-50.64,28-77.27,39.21S31,2831.48,2.14,2831.48Z" transform="translate(-1 -1922.98)"/><path class="cls-2" d="M626.82,2450.28c-.49,2.56-3,4.4-5.55,4.89a15.86,15.86,0,0,1-7.74-1c-10.34-3.28-19.8-9.78-25.73-18.85-4.09-6.3-6.39-13.58-8.18-20.89a175.58,175.58,0,0,1-4-59.31,5.68,5.68,0,0,0,2.53.28,97.79,97.79,0,0,1,37.64-1.87c0,18,.17,36.24.17,54.19,0,11.63.26,24.12,7,33.62C624.89,2444.09,627.45,2447,626.82,2450.28Z" transform="translate(-1 -1922.98)"/><path class="cls-2" d="M511.09,2422.23c-1.47,10.54-5.44,21.13-13.18,28.41-6.48,6.07-15,9.38-23.54,11.85a6.07,6.07,0,0,1-4.21.18c-2-.9-2.44-3.66-1.69-5.7s2.36-3.63,3.62-5.41c5.12-7.14,4.78-16.67,4.2-25.41q-2.07-32-4.11-64a51.66,51.66,0,0,1,38.71-4.26c.05,0,.08,0,.14,0-.4,10.68-.14,21.7.29,32.4S512.53,2411.7,511.09,2422.23Z" transform="translate(-1 -1922.98)"/><path class="cls-3" d="M626.38,2292.93c-.73,21.32-2.59,43-10.54,62.74a97.47,97.47,0,0,0-37.67.89,5.86,5.86,0,0,1-2.53-.36,8.6,8.6,0,0,1-3.81-2.8,18.13,18.13,0,0,1-3-7.16c-1.72-7.07-2.24-14.37-2.74-21.61-1.9-27.6-3.27-56.71-3.72-84.39a42.47,42.47,0,0,1-12.68.3q-8.6,39.81-17.28,79.61c-1.61,7.44-3.25,15-6.45,21.88s-8.12,13.26-14.86,16.74a51.65,51.65,0,0,0-38.81,3.24v0c-4.4-1.29-7-5.82-8.22-10.26s-.77-9.09-.36-13.65q1.54-18.11,3.11-36.19c3.11-36.23,6.47-73.48,17.77-108,6.37,6.24,20.05,10.34,61.1,9.55.6,0,1.55.06,2.73.1,14,.36,63.58.48,71.85-7.65a15.81,15.81,0,0,0,2.17-2.62A680.2,680.2,0,0,1,626.38,2292.93Z" transform="translate(-1 -1922.98)"/><path class="cls-4" d="M476.51,1971.91a23.46,23.46,0,0,1-1.58,5.26,56.26,56.26,0,0,1-3.71,7.26c-.69,1.17-1.41,2.33-2.1,3.51q-21.12,35.38-42.25,70.79c2.62-1.15,5.24-2.3,7.86-3.48a335.33,335.33,0,0,0-2.71,37.32c-7.31.18-15,.26-22-1.84s-13.64-6.79-16.09-13.67c-3.51-9.93,2.3-20.49,7.88-29.38,16.12-25.61,32.29-51.34,51.55-74.65,2-2.42,4-4.84,6.07-7.2.52-.6,1.06-1.2,1.61-1.78a14.51,14.51,0,0,1,6.22-4.29c3.05-.92,7,.32,8,3.25a9.58,9.58,0,0,1,.77,1.62A13.2,13.2,0,0,1,476.51,1971.91Z" transform="translate(-1 -1922.98)"/><path class="cls-5" d="M548.75,2207.72c-1.18,0-2.13,0-2.74,0-41,1.87-54.79-1.87-61.32-8a22.12,22.12,0,0,1-4.46-5.92c-2.85-5.1-3.05-11.23-3.17-17.1-.6-27.88-1.18-56.75-1.78-84.64-14.36,2.13-29.07,3.29-43.32,4.15,0-1.21,0-2.42.06-3.66a335.33,335.33,0,0,1,2.71-37.32c24-10.59,47.86-21.33,71.86-31.89l45.87,43.37C555.51,2116.75,553.21,2157.73,548.75,2207.72Z" transform="translate(-1 -1922.98)"/><path class="cls-6" d="M578.79,1987.33a13.7,13.7,0,0,0-3.37-10.47c-1.87-2.22-3.54-4.72-5.64-7.14-5,3.74-10.9,5.09-16.95,6.68s-12.28,3.31-17.15,7.25-8.2,10-6,15.85c-2.82-2.5-5.24-5-6.74-8.77-2.18-5.53-1.52-11.72-.69-17.61,2.48-.21,4.95-.44,7.43-.7,16.92-1.84,34-3.45,50.19-6.53A43.84,43.84,0,0,1,578.79,1987.33Z" transform="translate(-1 -1922.98)"/><path class="cls-7" d="M572.06,1944.54c-34.31,13.58-52.9,7.57-52.9,7.57a56.06,56.06,0,0,0-.69-18.85,3,3,0,0,1,2.53-3.49l13-1.58,9.5-5.21,10.45,2.77,10.67-1.33a2.94,2.94,0,0,1,3.28,2.62C568.32,1931.47,569.47,1939.76,572.06,1944.54Z" transform="translate(-1 -1922.98)"/><path class="cls-4" d="M585.47,2016.69c-2.28,13.87-11.17,29.12-23.46,35.91a41.25,41.25,0,0,1-5,2.22l-31.32-29.62a41.87,41.87,0,0,1-1.72-9.29c2.85-1.27,5.81-2.59,7.83-5s2.84-6.07,1-8.58c-1.09-1-2.18-1.93-3.19-2.85v0c-2.16-5.89,1.21-11.91,6-15.85s11.08-5.67,17.15-7.25,11.95-2.94,16.95-6.68c2.1,2.42,3.77,4.92,5.64,7.14a13.7,13.7,0,0,1,3.37,10.47s0,.06,0,.09a35.52,35.52,0,0,1-3.71,8.37,46.21,46.21,0,0,0-3.34,5.64c-.86,2-2.19,4.32-1.44,6.39.72,2.91.72,2.91,2,4.09a11.77,11.77,0,0,0,4.63,2.36C579.74,2015.19,582.59,2016,585.47,2016.69Z" transform="translate(-1 -1922.98)"/><path class="cls-8" d="M709.34,2109.27l-1.61.71a307.81,307.81,0,0,1-32.46,11.86c-.92.26-1.84.55-2.76.81a199.45,199.45,0,0,0-43.11-39.92c1.18,14.1,2.36,28.55,2.7,42.71l-74.74-70.62a40.7,40.7,0,0,0,5-2.22c12.29-6.79,21.18-22,23.46-35.91,2.85.69,5.72,1.26,8.63,1.69,37.67,9.07,50.28,18.42,79.54,43.8C694.93,2080.34,707.56,2096.14,709.34,2109.27Z" transform="translate(-1 -1922.98)"/><path class="cls-4" d="M717,2222a10.89,10.89,0,0,1-2.56,3.42,6.15,6.15,0,0,1-5.9,1.38,6.6,6.6,0,0,1-3.72-4.54,25.4,25.4,0,0,1-.57-6.05c-.09-3.1-.69-4.46-1.24-7.45Z" transform="translate(-1 -1922.98)"/><path class="cls-9" d="M461,1964.05c-.55.58-1.09,1.18-1.61,1.78-2.07,2.36-4.09,4.78-6.07,7.2l-24.41-23.92s-4.29-4-.23-8.34,8.35-.23,8.35-.23Z" transform="translate(-1 -1922.98)"/><path class="cls-4" d="M721.34,2197.82c-.05,3.22-.46,7.88-.83,11.22L700,2189.67c-7-18.91-17.87-49.38-24.75-67.83A307.81,307.81,0,0,0,707.73,2110a96.1,96.1,0,0,1,7,23.63C717.69,2154.71,721.78,2176.52,721.34,2197.82Z" transform="translate(-1 -1922.98)"/><path class="cls-8" d="M631.72,2141.64a206.56,206.56,0,0,1-4.09,35.8c-1.3,6.28-1.84,12.89-5.15,18.07a17.33,17.33,0,0,1-2.1,2.68c-8.06,8.35-57.62,9.53-71.63,9.53,4.46-50,6.76-91,3.71-141Z" transform="translate(-1 -1922.98)"/><path class="cls-7" d="M564.26,2087.13a2.22,2.22,0,0,1-1.1,1.62,3.26,3.26,0,0,1-3.06.34,2.24,2.24,0,0,1-1.21-2.64,2.4,2.4,0,0,1,1.74-1.44c.76-.19.53-.11,1.28,0s.46.08,1.14.38A2,2,0,0,1,564.26,2087.13Z" transform="translate(-1 -1922.98)"/><path class="cls-7" d="M561.5,2194.68a2,2,0,0,1-1.06,1.59,3.2,3.2,0,0,1-3.06.34,2.24,2.24,0,0,1-1.21-2.65,2.45,2.45,0,0,1,1.74-1.39c.76-.19.53-.12,1.28,0,.72,0,.46,0,1.1.38A1.87,1.87,0,0,1,561.5,2194.68Z" transform="translate(-1 -1922.98)"/><path class="cls-7" d="M564.26,2158.39a2.15,2.15,0,0,1-1.1,1.58,3.15,3.15,0,0,1-3.06.34,2.23,2.23,0,0,1-1.21-2.64,2.35,2.35,0,0,1,1.74-1.4c.76-.19.53-.11,1.28,0s.46.08,1.14.38A2.1,2.1,0,0,1,564.26,2158.39Z" transform="translate(-1 -1922.98)"/><path class="cls-7" d="M564.26,2122.82a2.24,2.24,0,0,1-1.1,1.59,3.2,3.2,0,0,1-3.06.34,2.24,2.24,0,0,1-1.21-2.65,2.51,2.51,0,0,1,1.74-1.43c.76-.15.53-.08,1.28,0s.46.07,1.14.37A2.11,2.11,0,0,1,564.26,2122.82Z" transform="translate(-1 -1922.98)"/><path class="cls-10" d="M526.05,2025.2l-6.33-6c1.7-1.07,2.54-2.42,4.61-3.31A41.87,41.87,0,0,0,526.05,2025.2Z" transform="translate(-1 -1922.98)"/><path class="cls-9" d="M731.69,2234.64l-29-25.86-71-67.14-79.26-74.91-45.87-43.37-37.47-35.42c.69-1.18,1.41-2.34,2.1-3.51a56.26,56.26,0,0,0,3.71-7.26l44.46,42,6.33,6L557,2054.82l74.73,70.62,67.92,64.23,35.48,32Z" transform="translate(-1 -1922.98)"/><path class="cls-11" d="M626.45,1947.21c-.23,1.88-1.9,3.2-3.54,4.15-12.81,7.22-27.48,11.54-43.08,14.53-16.15,3.08-33.27,4.69-50.19,6.53-2.48.26-4.95.49-7.43.7a210.35,210.35,0,0,1-45.7-1.21,13.2,13.2,0,0,0-.49-7.28,210.48,210.48,0,0,0,43.14-12.52s18.59,6,52.9-7.57a193.77,193.77,0,0,1,46.76-2.62C622.3,1942.18,626.88,1943.76,626.45,1947.21Z" transform="translate(-1 -1922.98)"/><path class="cls-12" d="M725.13,2236.37c-1.06-2,.12-4.47,1.3-6.45q4.35-7.3,9-14.45c2.1-.93,4.53.57,5.9,2.42s2.2,4.1,3.84,5.7c2.79,2.72,7.73,3.43,9,7.13.77,2.37-.42,4.89-1.69,7a76.74,76.74,0,0,1-5,7.5,9.41,9.41,0,0,1-3,2.87c-4.46,2.31-8.46-1.85-10.57-5.25S726.85,2239.68,725.13,2236.37Z" transform="translate(-1 -1922.98)"/><path class="cls-13" d="M763.06,2234.6a6.13,6.13,0,0,1,2.74.67,4.14,4.14,0,0,1,1.64,4.06,11.33,11.33,0,0,1-1.75,4.24c-8.88,15-21,27.69-33.1,40.25l-11.47,11.95a3.3,3.3,0,0,1-5.45.54l-19.85-15.26c-1.16-.89-2.41-1.93-2.63-3.38s.82-3,1.86-4.15c13.83-15.52,36.75-20.63,50.18-36.5,2.1-2.49,4.48-5.4,8.12-4.54,1.1.26,2,1.13,3.13,1.46C758.52,2234.54,760.94,2234.43,763.06,2234.6Z" transform="translate(-1 -1922.98)"/><path class="cls-14" d="M418.36,2579.46c7.66,0,7.67-11.9,0-11.9s-7.68,11.9,0,11.9Z" transform="translate(-1 -1922.98)"/><path class="cls-14" d="M530.7,2555c7.66,0,7.67-11.9,0-11.9s-7.67,11.9,0,11.9Z" transform="translate(-1 -1922.98)"/><path class="cls-14" d="M436.74,2479.38c7.66,0,7.68-11.91,0-11.91s-7.67,11.91,0,11.91Z" transform="translate(-1 -1922.98)"/><path class="cls-14" d="M442.87,2346.61c7.66,0,7.67-11.91,0-11.91s-7.67,11.91,0,11.91Z" transform="translate(-1 -1922.98)"/><path class="cls-14" d="M589.93,2501.85c7.66,0,7.68-11.91,0-11.91s-7.67,11.91,0,11.91Z" transform="translate(-1 -1922.98)"/><path class="cls-14" d="M496,2508c7.66,0,7.67-11.9,0-11.9s-7.68,11.9,0,11.9Z" transform="translate(-1 -1922.98)"/><path class="cls-14" d="M473.51,2599.89c7.66,0,7.67-11.91,0-11.91s-7.68,11.91,0,11.91Z" transform="translate(-1 -1922.98)"/><path class="cls-14" d="M379.55,2646.87c7.66,0,7.67-11.91,0-11.91s-7.67,11.91,0,11.91Z" transform="translate(-1 -1922.98)"/></svg>