<svg id="Layer_1" data-name="Layer 1" xmlns="http://www.w3.org/2000/svg" viewBox="0 0 1920 5614"><defs><style>.cls-1{fill:#e45044;}.cls-2{fill:#fbd2c0;}.cls-3{fill:#c87936;}.cls-4{fill:#fbd90a;}.cls-5{fill:none;stroke:#231a14;stroke-miterlimit:10;stroke-width:0.79px;}.cls-6{fill:#4f3d2f;}.cls-7{fill:#b3d284;}.cls-8{fill:#68a270;}.cls-9{fill:#f7b617;}.cls-10{fill:#f8b517;}.cls-11{fill:#0c5d87;}.cls-12{fill:#7e5a3f;}</style></defs><title>14</title><path class="cls-1" d="M785.59,2496.85c-1.14,15.1-1,30.24-1,45.41a402.06,402.06,0,0,0-40.95-28.63c-3-1.87-7.17-3.57-9.7-1.14-2.08,2-1.51,5.4-.72,8.18a138.34,138.34,0,0,0,11.09,27.15l-29.83-28.69c-5.85-5.6-12.8-11.6-20.83-10.78-1.92,13.05,5.12,25.56,11.89,36.84,8.34,13.94,16.74,27.94,25.75,41.43a103.48,103.48,0,0,0-.1,11.69,105.92,105.92,0,0,0,1.3,12.2,1.88,1.88,0,0,0,.09.57,120.21,120.21,0,0,0,15.61,42.65c-1-1.2-3-1.8-4.45-2.18-3.45-.91-6.89-1.77-10.37-2.56-2-.44-2.94-.34-4.83-1.1q-19.38-7.92-38.74-15.8c-10-4.08-19.69-8.22-29.77-11.47l-.22-.79a158.07,158.07,0,0,1-3-26.32,3.33,3.33,0,0,0,.07-.54l-.07-.06c-8.75-7.43-21.14-14.88-32.16-18,17.6-26.89,39-51.16,61.42-74.32l.13-.13h0a11.86,11.86,0,0,0,1.86-2.46c.51.47,1.05.92,1.58,1.33a30.88,30.88,0,0,0,17.89,6.16,42.85,42.85,0,0,0,20.79-5.15c7.58-4,14.6-10.49,15.86-18.93,1.58.16,3.19.25,4.74.32,12.64.53,25.79,1.64,38.33,3.12A61.75,61.75,0,0,0,785.59,2496.85Z"/><path class="cls-2" d="M900.26,2614.93c-1.39,12.61-4.83,24.93-9.23,36.84-1.23,3.32-2.68,6.83-5.53,9a7.69,7.69,0,0,1-3.47,1.45l0,0a6,6,0,0,1-6-2.14,10.32,10.32,0,0,1-1.23-5.28q-.53-9.63-1.52-19.21v0a382,382,0,0,0-5.87-37.92c-1.17-5.82-2.5-11.6-4-17.38v-.1l-.13-1v0a375.79,375.79,0,0,0,18.39-41l1.29-2.84C894.13,2559.64,903.17,2588.36,900.26,2614.93Z"/><path class="cls-3" d="M792.26,2548.45a126,126,0,0,0-9.76,36.05q-19.07-18.39-38.14-36.68a138.34,138.34,0,0,1-11.09-27.15c-.79-2.78-1.36-6.19.72-8.18,2.53-2.43,6.7-.73,9.7,1.14a402.06,402.06,0,0,1,40.95,28.63C787.2,2544.28,789.76,2546.36,792.26,2548.45Z"/><path class="cls-4" d="M896.25,2495.36a22.21,22.21,0,0,1-1.52,6.51c-4.08,12-8.37,24.24-13.08,36.31a375.79,375.79,0,0,1-18.39,41l-.06-.34-.1.22a.94.94,0,0,1,.06.28c-.31.63-.63,1.23-.94,1.83,0,0,0,0,0,0-13.21,9.89-29.39,14.44-46,16.46,6.25-13,12.61-25.94,20.19-38.17,1.2-2,2.46-3.89,3.73-5.79,5.27-7.86,11.15-15.29,17.09-22.65v0l1.71-2.12c5.34-6.7,10.68-13.33,16.05-20v0c.47-.54.89-1.08,1.33-1.61,5.21-6.55,10.55-13.15,17.47-17.86A7.35,7.35,0,0,1,896.25,2495.36Z"/><path class="cls-3" d="M875,2508.86v0c-5.37,6.67-10.71,13.3-16.05,20l-1.71,2.12v0c-5.94,7.36-11.82,14.79-17.09,22.65-1.27,1.9-2.53,3.83-3.73,5.79,1.29-11.22,3.13-23.92,6.7-34.48a82.62,82.62,0,0,1,10.65-21.42,60.84,60.84,0,0,1,7.14-8.59c1.83-1.81,4.26-3.61,6.7-2.85,2.08.63,3.16,2.88,3.91,4.93A88,88,0,0,1,875,2508.86Z"/><path class="cls-5" d="M670.8,2440.64v-.07"/><path class="cls-6" d="M732.89,2437.45v.19a134.72,134.72,0,0,1-1.62,20.85c-.12.7-.22,1.39-.34,2.12-1-3.67-2.63-7.74-5.15-10.59-2.28-2.49-4.59-5.05-7.49-6.76a32.56,32.56,0,0,0-6.1-2.53c-2.72-.95-2.75-.95-5.4-1.83,8.43-1.9,16.21-4.74,25.75-8.94C732.82,2432.39,732.82,2435.08,732.89,2437.45Z"/><line class="cls-5" x1="675.57" y1="2426.92" x2="674.37" y2="2426.92"/><path class="cls-7" d="M732.54,2430c-9.54,4.2-17.32,7-25.75,8.94a121.54,121.54,0,0,1-13.62,2.27c-5.22.6-16.21.67-22.37-.53-.67-.13-1.27-.26-1.81-.41-2.68-.79-5.59-2.72-5.49-5.5.06-2,1.67-3.6,3.31-4.71a19.23,19.23,0,0,1,4.59-2.21,21.22,21.22,0,0,1,4.17-.89H732A21.63,21.63,0,0,1,732.54,2430Z"/><path class="cls-8" d="M732,2426.92h-56.4a21.22,21.22,0,0,0-4.17.89c.75-6.13,1.58-13.24,4.8-18.52,2.72-4.48,6.95-7.9,11.5-10.55a31.65,31.65,0,0,1,9.51-4c9.7-2.09,20.29,2.75,25.79,11a42.21,42.21,0,0,1,3.6,6.77C729.19,2418.33,730.48,2420.76,732,2426.92Z"/><path class="cls-5" d="M671.4,2427.81c0,.06,0,.16,0,.22"/><path class="cls-2" d="M744.29,2481.43c-1.26,8.44-8.28,15-15.86,18.93a42.85,42.85,0,0,1-20.79,5.15,30.88,30.88,0,0,1-17.89-6.16c-.53-.41-1.07-.86-1.58-1.33a18.32,18.32,0,0,0,3.58-10.9,10.91,10.91,0,0,0-1-4.81c-2-3.88-6.6-5.43-9.73-8.46s-4.55-7.24-5.72-11.38a150.32,150.32,0,0,1-4.45-21.83c6.16,1.2,17.15,1.13,22.37.53a121.54,121.54,0,0,0,13.62-2.27c2.65.88,2.68.88,5.4,1.83a32.56,32.56,0,0,1,6.1,2.53c2.9,1.71,5.21,4.27,7.49,6.76,2.52,2.85,4.1,6.92,5.15,10.59-.86,5.65-1.42,11.72,2.15,16C735.76,2479.82,740,2481,744.29,2481.43Z"/><path class="cls-4" d="M818.48,2505.48c-10.17,13.46-19.49,27.45-26.22,43-2.5-2.09-5.06-4.17-7.62-6.19-.09-15.17-.19-30.31,1-45.41a61.75,61.75,0,0,1,1.77-12,25,25,0,0,1,3.7-8,5.7,5.7,0,0,1,2.84-2.43c2.12-.7,4.3.79,5.94,2.27a57.38,57.38,0,0,1,9.29,11.22A130.68,130.68,0,0,1,818.48,2505.48Z"/><path class="cls-1" d="M828.5,2492.71c-3.38,4.23-6.73,8.47-10,12.77a130.68,130.68,0,0,0-9.35-17.57C815.67,2488.54,822.88,2489.33,828.5,2492.71Z"/><path class="cls-2" d="M768.75,2672.85a21.5,21.5,0,0,1-4.61,1.77c-16.06,4.46-54.76,3.13-90.63-7.65-17.09-5.12-33.55-12.38-46.6-22.18-10-7.46-19.53-16.4-19.06-28.82.54-13.68,7.37-26.25,14.76-37.79.69-1.07,1.39-2.18,2.12-3.25,11,3.1,23.41,10.55,32.16,18a2,2,0,0,0,0,.6,47.07,47.07,0,0,1-3.66,13.17c-1.74,4.37-4.68,8.85-9.26,9.83a129.28,129.28,0,0,1,16.11,4.11c10.08,3.25,19.82,7.39,29.77,11.47q19.38,7.86,38.74,15.8c1.89.76,2.87.66,4.83,1.1,3.48.79,6.92,1.65,10.37,2.56,1.48.38,3.44,1,4.45,2.18.13.19.22.35.35.54,1.26,2.12,2.62,4.17,4,6.19,5.09.32,8.16.48,13.24.95S784.8,2664.07,768.75,2672.85Z"/><path class="cls-9" d="M781.67,2599.16l0,0c-4.14-.1-8.28-.32-12.39-.79a112.15,112.15,0,0,1-37.38-10.91c0-.06-.1-.12-.13-.18-.16-.23-.31-.48-.47-.7-9-13.49-17.41-27.49-25.75-41.43-6.77-11.28-13.81-23.79-11.89-36.84,8-.82,15,5.18,20.83,10.78l29.83,28.69q19,18.34,38.14,36.68A129.18,129.18,0,0,0,781.67,2599.16Z"/><path class="cls-9" d="M853.72,2503.58A82.62,82.62,0,0,0,843.07,2525c-3.57,10.56-5.41,23.26-6.7,34.48-7.58,12.23-13.94,25.21-20.19,38.17a222.64,222.64,0,0,1-23.86,1.51c-3.54.07-7.08.1-10.61,0l0,0a129.18,129.18,0,0,1,.83-14.66,126,126,0,0,1,9.76-36.05c6.73-15.52,16-29.51,26.22-43,3.29-4.3,6.64-8.54,10-12.77,5.69-7.11,11.47-14.16,17.1-21.26a3.49,3.49,0,0,1,2.18-1.65c1.8-.16,2.62,2.18,2.81,4,1,9.77,2,19.53,3.06,29.29Z"/><path class="cls-3" d="M882,2662.23c-5.5,7.27-13.65,13.21-22.53,17.79a112.9,112.9,0,0,1-21.55,8.22c-5.18,1.39-10.4,2.68-15.67,3.7a86.58,86.58,0,0,1-24,1.61c-.41,0-.82-.07-1.23-.13a52.33,52.33,0,0,1-8-1.55h0c-1.39-.38-2.74-.79-4.1-1.26-8.35-3-16.06-8.56-20.76-16a21.5,21.5,0,0,0,4.61-1.77c16-8.78,2.18-10.93-2.88-11.44s-8.15-.63-13.24-.95c-1.42-2-2.78-4.07-4-6.19-.13-.19-.22-.35-.35-.54a120.21,120.21,0,0,1-15.61-42.65,134.51,134.51,0,0,0,17.35,4.07,183.1,183.1,0,0,0,26.26,2.66,191.69,191.69,0,0,0,48.82-4.81c1.48-.34,3-.72,4.45-1.1a191.91,191.91,0,0,0,20.57-6.57c5.69-2.22,11.44-4.74,17.26-7.68a382,382,0,0,1,5.87,37.92v0q1,9.57,1.52,19.21a10.32,10.32,0,0,0,1.23,5.28A6,6,0,0,0,882,2662.23Z"/><path class="cls-10" d="M852.71,2853c0,3.54-1.49,5.88-3.57,8.75,0,0,0,0,0,.07a40.36,40.36,0,0,1-38.26,15.89c-1-.16-2.25-.79-2.15-1.83a63.82,63.82,0,0,1-7.36-11c-2.06-3.82-3.89-7.8-6-11.91q-5.26-10.2-10.58-20.38c-7.11-13.72-14.25-27.49-19.66-42-5.18-14-8.72-28.56-12.95-42.88-1.05-3.53-2.34-7.36-5.44-9.28s-6.35-1-6.38,2.65a199.78,199.78,0,0,0-1.42,24.68c-.13,8.21-.07,16.46-.63,24.74a313.41,313.41,0,0,1-6,40.48c-2.65,12.82-8.72,28.28-17.28,38.17a55,55,0,0,1-8.75,8.15c-10.81,8.15-24.37,12.13-40.73,12.95-.19,0-.41,0-.64,0-2.3.22-5.08.75-6.32-1.14-4.83-33.4-4.36-67-1.48-100.55,2.81-33.08,7.77-66.86,23.51-96.12a1,1,0,0,1,.12-.25,315.73,315.73,0,0,0,97-.32c2.46-.38,4.87-.82,7.27-1.26,1.36.47,2.71.88,4.1,1.26h0a52.33,52.33,0,0,0,8,1.55c.41.06.82.1,1.23.13a86.58,86.58,0,0,0,24-1.61h.18C838.17,2744.67,854.35,2798,852.71,2853Z"/><path class="cls-1" d="M784.9,2690.61c-2.4.44-4.81.88-7.27,1.26a315.73,315.73,0,0,1-97,.32.58.58,0,0,1-.22,0,104.49,104.49,0,0,1-6.92-25.19c35.87,10.78,74.57,12.11,90.63,7.65C768.84,2682.05,776.55,2687.64,784.9,2690.61Z"/><path class="cls-11" d="M704.76,2955.87c-1.1,6.8-2.27,13.72-5.56,19.75-5.84,10.78-17.47,17-28.72,21.84a30.84,30.84,0,0,1-8.75,2.75,11.42,11.42,0,0,1-8.69-2.12,3.15,3.15,0,0,1-1.17-1.61,3.86,3.86,0,0,1,1-3,145.84,145.84,0,0,1,10.93-13.27c4.55-5.06,6.13-12.17,6-18.93s-1.8-13.4-3.07-20.07a172.65,172.65,0,0,1-1.93-51c.23,0,.45,0,.64,0,16.36-.82,29.92-4.8,40.73-12.95C710.58,2903.33,709,2929.74,704.76,2955.87Z"/><path class="cls-5" d="M737.78,3003.65c0-.25-.09-.47-.12-.73"/><path class="cls-11" d="M847.49,2957.61a37,37,0,0,1-5.65,10.27,42.41,42.41,0,0,1-6.51,6,104.56,104.56,0,0,1-14.19,9.14,10.89,10.89,0,0,1-5,1.64c-1.77,0-3.7-1-4.11-2.72a5.91,5.91,0,0,1,.6-3.48c3.16-7.93,7.27-15.7,7.84-24.2a56.42,56.42,0,0,0-.7-11.53c-2.75-21.68-5.81-43.39-9-65a40.36,40.36,0,0,0,38.26-15.89c.83,10.23,1.52,23.16,2.4,33C853.37,2915.87,855.14,2937.86,847.49,2957.61Z"/><path class="cls-12" d="M867.34,2597.65c-5.82,2.94-11.57,5.46-17.26,7.68a191.91,191.91,0,0,1-20.57,6.57c-1.48.38-3,.76-4.45,1.1a191.69,191.69,0,0,1-48.82,4.81,183.1,183.1,0,0,1-26.26-2.66,134.51,134.51,0,0,1-17.35-4.07,1.88,1.88,0,0,1-.09-.57,105.92,105.92,0,0,1-1.3-12.2,103.48,103.48,0,0,1,.1-11.69c.16.22.31.47.47.7h-.28l.41.18a112.15,112.15,0,0,0,37.38,10.91c4.11.47,8.25.69,12.39.79,3.53.06,7.07,0,10.61,0a222.64,222.64,0,0,0,23.86-1.51c16.62-2,32.8-6.57,46-16.46,0,0,0,0,0,0,.41-.28.79-.57,1.17-.88C864.84,2586.05,866.17,2591.83,867.34,2597.65Z"/></svg>