<svg xmlns="http://www.w3.org/2000/svg" xmlns:xlink="http://www.w3.org/1999/xlink" data-name="Layer 1" width="2612" height="450" style=""><rect id="backgroundrect" width="100%" height="100%" x="0" y="0" fill="none" stroke="none" class="selected" style=""/><defs><style>.cls-1{fill:none;}.cls-2{clip-path:url(#clip-path);}.cls-3{clip-path:url(#clip-path-2);}.cls-4{fill:#bbd38d;}.cls-5{fill:#ddda91;}.cls-6{fill:#98c29c;}.cls-7{fill:#b5be6d;}.cls-8{fill:#ddd990;}.cls-9{fill:#537d41;}.cls-10{fill:#658369;}.cls-11{fill:#547d41;}.cls-12{fill:#77a275;}</style><clipPath id="clip-path" transform="translate(692.2999877929688,-5164.33984375) "><rect class="cls-1" x="0.25999999046325684" y="5165.97021484375" width="1919.469970703125" height="448.0299987792969" id="svg_1"/></clipPath><clipPath id="clip-path-2" transform="translate(692.2999877929688,-5164.33984375) "><rect class="cls-1" x="-2.880000114440918" y="5153.8701171875" width="1922.6099853515625" height="398.3999938964844" id="svg_2"/></clipPath></defs><title>15</title><g class="currentLayer" style=""><title>Layer 1</title><g class="cls-2" id="svg_3"><g class="cls-3" id="svg_4"><path class="cls-4" d="M2678.9442017606475,126.57722799301155 c20.4,45.94 39.45,103.83 7.24,142.46 c-17.94,21.53 -46.89,29.79 -74,36.94 c-161.18,42.46 -324.93,85.24 -491.6,81.75 c-51.53,-1.08 -105.52,-7.51 -147.7,-37 c-32.87,-23 -68.21,-78.67 -50.29,-120.42 c19.12,-44.53 96.44,-40.52 136.15,-46.33 q198.06,-29 397.78,-44.42 C2478.7042017606473,137.7972279930118 2673.114201760647,113.44722799301144 2678.9442017606475,126.57722799301155 z" id="svg_5"/><path class="cls-5" d="M1617.1742017606475,269.1072279930113 c-81.31,-79.57 -195.26,-117.31 -307.81,-134.69 s-227.25,-16.9 -340,-33.08 a1162.27,1162.27 0 0 1 -330.26,-99.15 c-22.52,-10.63 -25.43,19.66 -30.49,44 c-15.5,74.52 13.38,156.52 72.19,205 C734.6442017606474,295.5572279930111 807.2942017606474,310.6572279930115 877.1342017606474,311.5572279930111 s139.19,-10.72 209,-13 c148.75,-4.85 295.85,32.86 444.64,35.92 c24.09,0.5 49.51,-0.27 70.13,-12.71 S1634.3742017606473,285.9372279930112 1617.1742017606475,269.1072279930113 z" id="svg_6"/><path class="cls-6" d="M2285.614201760647,249.72722799301118 c-228.93,-104.76 -489.52,-171 -732.67,-105.46 c-109.69,29.56 -214.74,85.46 -328.36,85.57 c-18.33,0 -29.27,14.24 -29.55,32.52 s11.83,34.53 25.66,46.52 c44.6,38.65 107.55,46.42 166.49,50.34 C1690.2942017606474,379.3472279930111 1996.4142017606473,342.52722799301137 2285.614201760647,249.72722799301118 z" id="svg_7"/></g><path class="cls-7" d="M1887.2942017606474,246.33722799301177 c3.31,2.52 2.07,-5.54 -1.94,-6.6400000000000015 a138.64,138.64 0 0 0 -37.75,-4.83 c-6.6,0.06000000000000003 -14.12,0 -20.54,1.7200000000000002 c-4.34,1.1600000000000001 -10.93,6.29 -15,5.74 c-3.36,-0.46 -6.3,-2.48 -9.56,-3.39 c-8.21,-2.29 -18,2.49 -25.06,-2.25 c-6.39,-4.28 -6.29,3.72 -12,3.71 c-5.88,0 -9.35,-3.6100000000000003 -15.07,-4.41 c-17.51,-2.46 -53.27,-1.78 -69.09,7 c-2.18,1.21 -4.42,2.77 -6.91,2.58 c-3.14,-0.24000000000000007 -5.78,-3.24 -8.89,-2.7600000000000002 c-2.45,0.38000000000000017 -4.38,2.88 -6.85,2.62 c-4.08,-0.43000000000000016 -4.91,-7.71 -9,-7.59 c-2.29,0.07 -3.79,2.59 -6,3.09 c-2.8,0.6400000000000003 -5.11,-2 -7.28,-3.87 c-12.3,-10.68 -40.28,0 -56,-1.23 c-13.16,-1 -39,4.6 -51.14,-3.42 a5,5 0 0 0 -5.68,0.1 c-2,1.48 -4.6400000000000015,2.07 -7,0.49000000000000016 c-1.6300000000000003,-1.11 -2.72,-3 -4.53,-3.75 c-4.13,-1.7400000000000002 -7.82,3.14 -9.68,7.22 l-7,-6.67 c-1.11,-1.06 -2.43,-2.21 -4.26,-1.11 a4.69,4.69 0 0 0 -2,2.6100000000000003 c-3.06,9.52 -14.16,2.93 -21.89,5.3100000000000005 a25,25 0 0 1 -3.9,1.26 c-2.14,0.28 -4.21,-0.7100000000000003 -6.14,-1.6800000000000006 l-12.23,-6.11 c-2.1,-1.05 -4.42,-2.13 -6.71,-1.6 c-1.84,0.43000000000000016 -3.2800000000000002,1.81 -4.95,2.68 a9.44,9.44 0 0 1 -7.42,0.44000000000000017 a2.39,2.39 0 0 0 -2.84,1 c-1.62,2.5300000000000002 -5.78,3.43 -9.14,3.59 c-9,0.44000000000000017 -38.69,2.51 -45.2,-5.24 a8.37,8.37 0 0 0 -8.16,-2.7800000000000002 c-16.55,3.46 -29,-0.29000000000000015 -44.86,1.15 c-11.5,1.05 -22.86,3.89 -34.41,3.83 c-8.69,0 -17.28,-1.7400000000000002 -26,-2.34 a104,104 0 0 0 -28.6,2 c-6.87,6.5 -19.52,5.1 -24.8,-2.75 a96.43,96.43 0 0 1 -31.93,0.92 l-5.44,6.39 c-1.3,-3.19 -5.5600000000000005,-3.6 -9,-3.51 c-8.54,0.23 -24.66,4.24 -28.91,-4.95 c3.89,8.42 -36.23,1.81 -38.43,1.1400000000000001 c-8.69,-2.6500000000000004 -20.6,-11.81 -28.7,-4.45 a17.16,17.16 0 0 0 -10,-6.63 c-1.79,5.8100000000000005 -9.42,7.21 -15.44,6.44 s-12.6,-2.58 -17.85,0.49000000000000016 c-0.07,-3.7800000000000002 -5.25,-4.91 -9,-4.26 a26.93,26.93 0 0 1 -6.48,0.6700000000000006 l-18.65,0.5900000000000003 l-4.93,0.8700000000000003 c-8.3,1.47 -16.66,3 -25.08,2.7600000000000002 c-6.19,-0.15000000000000008 -12.54,-1.18 -18.48,0.5800000000000003 c-3,0.8900000000000003 -5.91,2.51 -9.06,2.5300000000000002 s-6.06,-1.53 -9.17,-1.81 s-6.94,1.6800000000000006 -6.66,4.8 c-3.43,-3.74 -8.43,-7.82 -13,-5.58 c-1.53,0.7500000000000003 -2.7,2.15 -4.29,2.8 c-4.15,1.7000000000000002 -8.26,-2.35 -10.94,-6 c5,6.76 -36.72,4.46 -37.18,4.41 c-18.38,-1.79 -36.71,-4.13 -55.16,-5.07 c-33.38,-1.6900000000000006 -67.18,-3.36 -99.93,3.3200000000000003 c-29.13,5.93 -57.76,19.28 -77.27,41.39 a8.34,8.34 0 0 0 3.15,13.27 c22,8.68 46.71,9.620000000000001 70.59,10.35 l215.06,6.55 l645,19.65 c24.52,0.7500000000000003 49.19,1.49 73.49,-1.8800000000000003 c25.34,-3.5 49.95,-11.43 75.38,-14.19 c32.26,-3.51 64.82,1.3900000000000001 97.27,0.77 s66.88,-7.8900000000000015 89.74,-30.92 C1884.7242017606475,267.2372279930114 1890.9742017606475,241.59722799301107 1887.2942017606474,246.33722799301177 z" id="svg_8"/><path class="cls-7" d="M1296.4142017606473,403.5972279930111 c3.3200000000000003,2.52 -15.75,-11.46 -19.76,-12.56 a138.69,138.69 0 0 0 -37.75,-4.83 c-6.6,0.06000000000000003 -14.12,0 -20.54,1.7200000000000002 c-4.35,1.1600000000000001 -10.93,6.29 -15,5.74 c-3.35,-0.46 -6.29,-2.48 -9.55,-3.39 c-8.21,-2.29 -18,2.49 -25.07,-2.25 c-6.38,-4.28 -6.28,3.72 -12,3.71 c-5.88,0 -9.35,-3.6100000000000003 -15.07,-4.41 c-17.52,-2.46 -53.28,-1.78 -69.09,7 c-2.19,1.21 -4.42,2.77 -6.92,2.58 c-3.13,-0.24000000000000007 -5.78,-3.24 -8.88,-2.7600000000000002 c-2.45,0.38000000000000017 -4.38,2.88 -6.85,2.62 c-4.09,-0.43000000000000016 -4.92,-7.71 -9,-7.59 c-2.29,0.07 -3.79,2.59 -6,3.09 c-2.8,0.6400000000000003 -5.11,-2 -7.28,-3.87 c-12.31,-10.68 -40.29,-0.05000000000000003 -56,-1.23 c-13.16,-1 -39,4.6 -51.14,-3.42 a5,5 0 0 0 -5.68,0.1 c-2,1.48 -4.6400000000000015,2.07 -7,0.49000000000000016 c-1.6300000000000003,-1.11 -2.72,-3 -4.53,-3.75 c-4.13,-1.7400000000000002 -7.83,3.14 -9.68,7.22 l-7,-6.67 c-1.11,-1.06 -2.43,-2.21 -4.26,-1.11 a4.69,4.69 0 0 0 -2,2.6100000000000003 c-3.06,9.52 -14.16,2.93 -21.89,5.3100000000000005 a25.3,25.3 0 0 1 -3.9,1.26 c-2.14,0.28 -4.22,-0.7100000000000003 -6.14,-1.6800000000000006 l-12.24,-6.11 c-2.1,-1.05 -4.42,-2.13 -6.7,-1.6 c-1.84,0.43000000000000016 -3.2800000000000002,1.81 -5,2.68 a9.44,9.44 0 0 1 -7.42,0.44000000000000017 a2.39,2.39 0 0 0 -2.84,1 c-1.62,2.5300000000000002 -5.78,3.43 -9.14,3.59 c-9,0.44000000000000017 -38.69,2.51 -45.2,-5.24 a8.38,8.38 0 0 0 -8.16,-2.7800000000000002 c-16.55,3.46 -29,-0.29000000000000015 -44.86,1.15 c-11.5,1.05 -22.86,3.89 -34.41,3.83 c-8.69,0 -17.29,-1.7400000000000002 -26,-2.34 a104,104 0 0 0 -28.6,2 c-6.87,6.5 -19.52,5.1 -24.8,-2.75 a96.43,96.43 0 0 1 -31.93,0.92 l-5.44,6.39 c-1.3,-3.19 -5.5600000000000005,-3.6 -9,-3.51 c-8.53,0.23 -24.66,4.24 -28.9,-4.95 c3.89,8.42 -36.23,1.81 -38.43,1.1400000000000001 c-8.69,-2.6500000000000004 -20.6,-11.81 -28.7,-4.45 a17.16,17.16 0 0 0 -10,-6.63 c-1.79,5.8100000000000005 -9.42,7.21 -15.45,6.44 s-12.6,-2.58 -17.84,0.49000000000000016 c-0.07,-3.7800000000000002 -5.26,-4.91 -9,-4.26 a26.8,26.8 0 0 1 -6.47,0.6700000000000006 l-18.66,0.5900000000000003 l-4.92,0.8700000000000003 c-8.3,1.47 -16.66,2.95 -25.08,2.7600000000000002 c-6.19,-0.15000000000000008 -12.54,-1.18 -18.48,0.5800000000000003 c-3,0.8900000000000003 -5.91,2.51 -9.06,2.5300000000000002 s-6.06,-1.53 -9.18,-1.81 s-6.94,1.6800000000000006 -6.66,4.8 c-3.42,-3.74 -8.42,-7.82 -13,-5.58 c-1.54,0.7500000000000003 -2.7,2.15 -4.29,2.8 c-4.16,1.7000000000000002 -8.26,-2.35 -10.94,-6 c5,6.76 -36.72,4.46 -37.19,4.41 c-18.37,-1.79 -36.7,-4.13 -55.15,-5.07 c-33.38,-1.6900000000000006 -67.19,-3.36 -99.94,3.3200000000000003 c-29.12,5.93 -57.75,19.29 -77.27,41.39 a8.35,8.35 0 0 0 3.16,13.27 c22,8.68 46.71,9.620000000000001 70.59,10.35 l215.05,6.55 l645,19.65 c24.52,0.7500000000000003 49.18,1.49 73.49,-1.8800000000000003 c25.34,-3.5 49.95,-11.43 75.38,-14.19 c32.26,-3.51 64.82,-6.22 97.27,-6.84 s66.88,-7.8900000000000015 89.73,-30.93 C1276.0242017606474,410.9672279930119 1300.1042017606474,398.8672279930115 1296.4142017606473,403.5972279930111 z" id="svg_9"/><path class="cls-8" d="M1316.0042017606474,409.5572279930111 s-952.28,-7.77 -952.28,-16.52 s226.41,-114.66 485.86,-120.49 c0,0 945.48,-7.77 930.9,5.83 S1316.0042017606474,409.5572279930111 1316.0042017606474,409.5572279930111 z" id="svg_10"/><path class="cls-9" d="M787.3642017606473,303.06722799301133 h0 a3.94,3.94 0 0 1 -3.5700000000000003,-4.25 c0.6600000000000005,-8 1.61,-25.84 -2.5300000000000002,-30.81 a28.92,28.92 0 0 1 6.6400000000000015,14.54 s2.75,-15.68 2.39,-19 a32,32 0 0 1 1.62,18.73 s2.93,-10.35 9.69,-11.73 c0,0 -7.8,7.59 -10,29 A3.94,3.94 0 0 1 787.3642017606473,303.06722799301133 z" id="svg_11"/><path class="cls-10" d="M707.0842017606474,319.1872279930112 h0 a5,5 0 0 1 -4.8100000000000005,-5.61 c0.9,-7 1.8900000000000001,-18.75 -0.8900000000000003,-23.08 c0,0 2.81,5.5600000000000005 3.17,8.91 c0,0 2.39,-11.73 -1.8,-16.75 c0,0 3.6500000000000004,3.6500000000000004 5.33,14.42 c0,0 3.29,-14.3 3,-18.31 a48.33,48.33 0 0 1 0.36000000000000015,18 s4.19,-9.58 9.15,-13.11 c0,0 -5.62,10.77 -6.15,16.7 c0,0 3.8200000000000003,-5.63 6.57,-6.71 c0,0 -6.69,8 -7.8900000000000015,13.89 a53.84,53.84 0 0 0 -0.92,7.05 A5,5 0 0 1 707.0842017606474,319.1872279930112 z" id="svg_12"/><path class="cls-11" d="M912.9242017606474,327.6572279930115 h0 a5.7,5.7 0 0 1 -5.19,-6 c0.36000000000000015,-6.87 0.26,-18.5 -3.67,-24.7 c0,0 4,7 5,10.41 c0,0 -0.06000000000000003,-13.94 -0.6600000000000005,-14.66 a90.48,90.48 0 0 1 4.91,19 s4.06,-22.86 3,-25.61 c0,0 3.54,12.26 0.6100000000000003,22.61 c0,0 6,-14.72 10.82,-16.93 c0,0 -7,11.31 -7.59,17.89 c0,0 6.1,-8.74 8,-7.9 a47.14,47.14 0 0 0 -9.11,21.06 A5.72,5.72 0 0 1 912.9242017606474,327.6572279930115 z" id="svg_13"/><path class="cls-12" d="M834.1042017606474,348.76722799301115 h0 a3.93,3.93 0 0 1 -3.5700000000000003,-4.25 c0.6600000000000005,-8 1.61,-25.84 -2.5300000000000002,-30.81 a29,29 0 0 1 6.6400000000000015,14.54 s2.75,-15.67 2.39,-19 a32,32 0 0 1 1.62,18.73 s2.93,-10.35 9.69,-11.73 c0,0 -7.8,7.6 -10,29 A3.92,3.92 0 0 1 834.1042017606474,348.76722799301115 z" id="svg_14"/><path class="cls-10" d="M747.5042017606474,370.6572279930115 h0 a5,5 0 0 1 -4.8100000000000005,-5.62 c0.9,-7 1.8900000000000001,-18.75 -0.8900000000000003,-23.08 c0,0 2.81,5.5600000000000005 3.17,8.91 c0,0 2.39,-11.73 -1.8,-16.75 c0,0 3.6500000000000004,3.6500000000000004 5.33,14.42 c0,0 3.29,-14.3 3,-18.31 a48.33,48.33 0 0 1 0.36000000000000015,18 s4.19,-9.58 9.15,-13.11 c0,0 -5.62,10.77 -6.16,16.7 c0,0 3.83,-5.63 6.58,-6.71 c0,0 -6.69,8 -7.8900000000000015,13.89 a53.84,53.84 0 0 0 -0.92,7.05 A5,5 0 0 1 747.5042017606474,370.6572279930115 z" id="svg_15"/><path class="cls-11" d="M627.8042017606474,343.08722799301177 h0 a5.71,5.71 0 0 1 -5.18,-6 c0.35000000000000014,-6.87 0.26,-18.5 -3.67,-24.7 c0,0 4,7 5,10.41 c0,0 -0.07,-13.94 -0.6700000000000006,-14.66 a90.17,90.17 0 0 1 4.92,19 s4.06,-22.86 3,-25.61 c0,0 3.5300000000000002,12.26 0.6100000000000003,22.62 c0,0 6,-14.73 10.82,-16.94 c0,0 -7,11.31 -7.59,17.89 c0,0 6.1,-8.74 8,-7.9 a47.21,47.21 0 0 0 -9.12,21.06 A5.71,5.71 0 0 1 627.8042017606474,343.08722799301177 z" id="svg_16"/><path class="cls-12" d="M548.6642017606474,362.9272279930119 h0 a4,4 0 0 1 -3.58,-4.25 c0.6600000000000005,-8 1.61,-25.84 -2.5300000000000002,-30.81 a28.89,28.89 0 0 1 6.65,14.54 s2.74,-15.68 2.38,-19 a31.93,31.93 0 0 1 1.6300000000000003,18.73 s2.92,-10.35 9.68,-11.73 c0,0 -7.8,7.59 -10,29 A3.93,3.93 0 0 1 548.6642017606474,362.9272279930119 z" id="svg_17"/><path class="cls-10" d="M462.0542017606474,384.8472279930111 h0 a5,5 0 0 1 -4.8100000000000005,-5.61 c0.91,-7 1.9,-18.75 -0.8900000000000003,-23.08 c0,0 2.8200000000000003,5.5600000000000005 3.18,8.91 c0,0 2.39,-11.73 -1.8,-16.75 c0,0 3.6500000000000004,3.6500000000000004 5.33,14.42 c0,0 3.2800000000000002,-14.31 3,-18.31 a48.15,48.15 0 0 1 0.37000000000000016,17.95 s4.18,-9.58 9.15,-13.11 c0,0 -5.62,10.77 -6.16,16.69 c0,0 3.83,-5.62 6.58,-6.7 c0,0 -6.7,8 -7.8900000000000015,13.88 a54,54 0 0 0 -0.92,7.06 A5,5 0 0 1 462.0542017606474,384.8472279930111 z" id="svg_18"/><path class="cls-11" d="M666.4042017606474,393.14722799301126 h0 a5.71,5.71 0 0 1 -5.18,-6 c0.35000000000000014,-6.86 0.26,-18.5 -3.67,-24.7 c0,0 4,7 5,10.41 c0,0 -0.07,-13.94 -0.6700000000000006,-14.66 a90.38,90.38 0 0 1 4.92,19 s4.06,-22.86 3,-25.61 c0,0 3.5300000000000002,12.27 0.6100000000000003,22.62 c0,0 6,-14.72 10.82,-16.94 c0,0 -7,11.31 -7.59,17.89 c0,0 6.1,-8.73 8,-7.9 a47.22,47.22 0 0 0 -9.12,21.07 A5.71,5.71 0 0 1 666.4042017606474,393.14722799301126 z" id="svg_19"/><path class="cls-12" d="M866.1942017606474,278.6572279930115 h0 a4,4 0 0 1 -3.58,-4.26 c0.6600000000000005,-8 1.62,-25.83 -2.5300000000000002,-30.8 a28.89,28.89 0 0 1 6.65,14.54 s2.74,-15.68 2.38,-19 a31.91,31.91 0 0 1 1.6300000000000003,18.73 s2.92,-10.36 9.68,-11.73 c0,0 -7.8,7.59 -10,29 A3.94,3.94 0 0 1 866.1942017606474,278.6572279930115 z" id="svg_20"/><path class="cls-11" d="M990.4142017606474,305.01722799301115 h0 a5.72,5.72 0 0 1 -5.19,-6 c0.35000000000000014,-6.86 0.26,-18.5 -3.67,-24.7 c0,0 4,7 5,10.41 c0,0 -0.06000000000000003,-13.94 -0.6600000000000005,-14.66 a90.68,90.68 0 0 1 4.91,19 s4.06,-22.86 3,-25.61 c0,0 3.54,12.27 0.6100000000000003,22.62 c0,0 6,-14.72 10.82,-16.94 c0,0 -7,11.31 -7.59,17.89 c0,0 6.1,-8.73 8,-7.9 a47.14,47.14 0 0 0 -9.11,21.07 A5.72,5.72 0 0 1 990.4142017606474,305.01722799301115 z" id="svg_21"/><path class="cls-9" d="M1181.7642017606474,299.4172279930117 h0 a3.93,3.93 0 0 1 -3.84,-4 c0.14,-8 -0.08000000000000004,-25.88 -4.54,-30.57 a28.91,28.91 0 0 1 7.58,14.07 s1.7200000000000002,-15.82 1.1400000000000001,-19.14 a31.9,31.9 0 0 1 2.84,18.58 s2.25,-10.52 8.9,-12.34 c0,0 -7.29,8.09 -8,29.63 A3.94,3.94 0 0 1 1181.7642017606474,299.4172279930117 z" id="svg_22"/><path class="cls-10" d="M1102.7042017606475,320.7472279930116 h0 a5,5 0 0 1 -5.17,-5.29 c0.45,-7 0.6700000000000006,-18.83 -2.39,-23 c0,0 3.17,5.37 3.75,8.69 c0,0 1.62,-11.86 -2.89,-16.6 c0,0 3.88,3.4 6.26,14 c0,0 2.34,-14.49 1.78,-18.47 a48.26,48.26 0 0 1 1.54,17.89 s3.55,-9.83 8.27,-13.68 c0,0 -4.9,11.12 -5.05,17.06 c0,0 3.45,-5.86 6.13,-7.11 c0,0 -6.17,8.44 -7,14.37 a55.84,55.84 0 0 0 -0.45,7.09 A5,5 0 0 1 1102.7042017606475,320.7472279930116 z" id="svg_23"/><path class="cls-11" d="M1335.2942017606474,316.9972279930116 h0 a5.7,5.7 0 0 1 -5.5600000000000005,-5.62 c-0.1,-6.87 -1,-18.47 -5.28,-24.4 c0,0 4.46,6.72 5.7,10.06 c0,0 -1,-13.91 -1.62,-14.58 a90.4,90.4 0 0 1 6.14,18.66 s2.5700000000000003,-23.07 1.31,-25.75 c0,0 4.33,12 2.08,22.53 c0,0 5,-15.08 9.7,-17.61 c0,0 -6.25,11.75 -6.41,18.35 c0,0 5.51,-9.11 7.48,-8.4 a47.2,47.2 0 0 0 -7.73,21.61 A5.7,5.7 0 0 1 1335.2942017606474,316.9972279930116 z" id="svg_24"/><path class="cls-12" d="M1258.0242017606474,343.2472279930116 h0 a4,4 0 0 1 -3.84,-4 c0.14,-8 -0.08000000000000004,-25.89 -4.54,-30.58 a29,29 0 0 1 7.58,14.07 s1.7200000000000002,-15.82 1.1400000000000001,-19.14 a31.92,31.92 0 0 1 2.84,18.58 s2.25,-10.52 8.91,-12.33 c0,0 -7.3,8.08 -8.05,29.63 A3.94,3.94 0 0 1 1258.0242017606474,343.2472279930116 z" id="svg_25"/><path class="cls-10" d="M1173.0342017606474,370.76722799301115 h0 a5,5 0 0 1 -5.16,-5.29 c0.44000000000000017,-7 0.6600000000000005,-18.83 -2.4,-23 c0,0 3.17,5.37 3.75,8.69 c0,0 1.62,-11.86 -2.89,-16.6 c0,0 3.88,3.4 6.26,14 c0,0 2.35,-14.49 1.79,-18.47 a48.19,48.19 0 0 1 1.53,17.89 s3.55,-9.83 8.28,-13.67 c0,0 -4.91,11.11 -5.06,17.06 c0,0 3.45,-5.87 6.13,-7.12 c0,0 -6.16,8.44 -7,14.37 a56,56 0 0 0 -0.46,7.1 A5,5 0 0 1 1173.0342017606474,370.76722799301115 z" id="svg_26"/><path class="cls-11" d="M1025.1542017606475,349.75722799301184 h0 a5.7,5.7 0 0 1 -5.5600000000000005,-5.61 c-0.1,-6.87 -0.9500000000000003,-18.48 -5.28,-24.4 c0,0 4.46,6.72 5.7,10.05 c0,0 -1,-13.9 -1.62,-14.58 a90.36,90.36 0 0 1 6.15,18.66 s2.56,-23.07 1.3,-25.75 c0,0 4.33,12 2.08,22.53 c0,0 5,-15.08 9.7,-17.6 c0,0 -6.25,11.74 -6.41,18.35 c0,0 5.52,-9.12 7.48,-8.41 a47.12,47.12 0 0 0 -7.72,21.61 A5.71,5.71 0 0 1 1025.1542017606475,349.75722799301184 z" id="svg_27"/><path class="cls-12" d="M947.4742017606475,374.7272279930112 h0 a3.93,3.93 0 0 1 -3.84,-4 c0.13,-8 -0.08000000000000004,-25.88 -4.54,-30.57 a28.91,28.91 0 0 1 7.58,14.07 s1.7200000000000002,-15.82 1.1400000000000001,-19.14 a32,32 0 0 1 2.84,18.58 s2.25,-10.52 8.9,-12.34 c0,0 -7.29,8.09 -8.05,29.63 A3.92,3.92 0 0 1 947.4742017606475,374.7272279930112 z" id="svg_28"/><path class="cls-10" d="M867.9242017606474,397.2372279930114 h0 a5,5 0 0 1 -5.17,-5.29 c0.45,-7.05 0.6700000000000006,-18.83 -2.39,-23 c0,0 3.17,5.37 3.75,8.69 c0,0 1.62,-11.86 -2.89,-16.6 c0,0 3.88,3.4 6.26,14 c0,0 2.34,-14.48 1.78,-18.46 a48.22,48.22 0 0 1 1.54,17.88 s3.55,-9.82 8.27,-13.67 c0,0 -4.9,11.11 -5.05,17.06 c0,0 3.45,-5.86 6.13,-7.12 c0,0 -6.16,8.44 -7,14.37 a54.21,54.21 0 0 0 -0.46,7.1 A5,5 0 0 1 867.9242017606474,397.2372279930114 z" id="svg_29"/><path class="cls-11" d="M1093.5842017606474,398.4672279930119 h0 a5.7,5.7 0 0 1 -5.5600000000000005,-5.62 c-0.1,-6.87 -1,-18.47 -5.28,-24.4 c0,0 4.46,6.72 5.7,10.06 c0,0 -1,-13.91 -1.62,-14.59 a90.61,90.61 0 0 1 6.14,18.67 s2.56,-23.07 1.31,-25.75 c0,0 4.33,12 2.08,22.53 c0,0 5,-15.08 9.7,-17.61 c0,0 -6.25,11.75 -6.41,18.35 c0,0 5.51,-9.11 7.48,-8.4 a47.06,47.06 0 0 0 -7.73,21.61 A5.7,5.7 0 0 1 1093.5842017606474,398.4672279930119 z" id="svg_30"/><path class="cls-12" d="M1257.7342017606475,279.58722799301177 h0 a3.93,3.93 0 0 1 -3.84,-4 c0.13,-8 -0.08000000000000004,-25.88 -4.54,-30.57 a28.91,28.91 0 0 1 7.58,14.07 s1.7200000000000002,-15.82 1.1400000000000001,-19.14 a31.9,31.9 0 0 1 2.84,18.58 s2.25,-10.52 8.9,-12.34 c0,0 -7.29,8.09 -8,29.63 A3.92,3.92 0 0 1 1257.7342017606475,279.58722799301177 z" id="svg_31"/><path class="cls-12" d="M1584.7042017606473,299.4172279930117 h0 a3.93,3.93 0 0 1 -3.84,-4 c0.13,-8 -0.08000000000000004,-25.88 -4.54,-30.57 a28.91,28.91 0 0 1 7.58,14.07 s1.7200000000000002,-15.82 1.1400000000000001,-19.14 a31.9,31.9 0 0 1 2.84,18.58 s2.25,-10.52 8.9,-12.34 c0,0 -7.29,8.09 -8,29.63 A3.92,3.92 0 0 1 1584.7042017606473,299.4172279930117 z" id="svg_32"/><path class="cls-10" d="M1505.6342017606476,320.7472279930116 h0 a5,5 0 0 1 -5.16,-5.29 c0.44000000000000017,-7 0.6700000000000006,-18.83 -2.39,-23 c0,0 3.17,5.37 3.75,8.69 c0,0 1.61,-11.86 -2.89,-16.6 c0,0 3.88,3.4 6.25,14 c0,0 2.35,-14.49 1.79,-18.47 a48.15,48.15 0 0 1 1.53,17.89 s3.56,-9.83 8.28,-13.68 c0,0 -4.91,11.12 -5,17.06 c0,0 3.45,-5.86 6.12,-7.11 c0,0 -6.16,8.44 -7,14.37 a54.05,54.05 0 0 0 -0.45,7.09 A5,5 0 0 1 1505.6342017606476,320.7472279930116 z" id="svg_33"/><path class="cls-11" d="M1428.0942017606474,349.75722799301184 h0 a5.69,5.69 0 0 1 -5.5600000000000005,-5.61 c-0.1,-6.87 -1,-18.48 -5.28,-24.4 c0,0 4.46,6.72 5.7,10.05 c0,0 -1,-13.9 -1.62,-14.58 a90.66,90.66 0 0 1 6.14,18.66 s2.5700000000000003,-23.07 1.31,-25.75 c0,0 4.33,12 2.08,22.53 c0,0 5,-15.08 9.7,-17.6 c0,0 -6.25,11.74 -6.41,18.35 c0,0 5.51,-9.12 7.48,-8.41 a47.12,47.12 0 0 0 -7.72,21.61 A5.71,5.71 0 0 1 1428.0942017606474,349.75722799301184 z" id="svg_34"/><path class="cls-9" d="M1350.4142017606473,374.7272279930112 h0 a3.94,3.94 0 0 1 -3.85,-4 c0.14,-8 -0.07,-25.88 -4.53,-30.57 a28.91,28.91 0 0 1 7.58,14.07 s1.71,-15.82 1.1400000000000001,-19.14 A32,32 0 0 1 1353.5942017606474,353.6572279930115 s2.24,-10.52 8.9,-12.34 c0,0 -7.29,8.09 -8.05,29.63 A3.92,3.92 0 0 1 1350.4142017606473,374.7272279930112 z" id="svg_35"/><path class="cls-10" d="M1270.8542017606474,397.2372279930114 h0 a5,5 0 0 1 -5.16,-5.29 c0.45,-7.05 0.6700000000000006,-18.83 -2.39,-23 c0,0 3.17,5.37 3.75,8.69 c0,0 1.62,-11.86 -2.89,-16.6 c0,0 3.88,3.4 6.26,14 c0,0 2.34,-14.48 1.78,-18.46 a48.22,48.22 0 0 1 1.54,17.88 s3.55,-9.82 8.27,-13.67 c0,0 -4.9,11.11 -5.05,17.06 c0,0 3.45,-5.86 6.12,-7.12 c0,0 -6.16,8.44 -7,14.37 a54.09,54.09 0 0 0 -0.45,7.1 A5,5 0 0 1 1270.8542017606474,397.2372279930114 z" id="svg_36"/><path class="cls-9" d="M1660.6742017606475,279.6572279930115 h0 a3.94,3.94 0 0 1 -3.84,-4 c0.13,-8 -0.08000000000000004,-25.89 -4.54,-30.58 a29,29 0 0 1 7.58,14.08 s1.7200000000000002,-15.83 1.1400000000000001,-19.15 a32,32 0 0 1 2.84,18.58 s2.24,-10.52 8.9,-12.33 c0,0 -7.29,8.08 -8.05,29.63 A3.93,3.93 0 0 1 1660.6742017606475,279.6572279930115 z" id="svg_37"/><path class="cls-11" d="M1411.1442017606473,289.37722799301173 h0 a5.69,5.69 0 0 1 -5.5600000000000005,-5.61 c-0.1,-6.87 -0.9500000000000003,-18.48 -5.28,-24.4 c0,0 4.46,6.72 5.7,10.05 c0,0 -1,-13.9 -1.62,-14.58 a90.4,90.4 0 0 1 6.14,18.66 s2.56,-23.07 1.31,-25.75 c0,0 4.33,12 2.08,22.53 c0,0 5,-15.08 9.7,-17.6 c0,0 -6.25,11.74 -6.41,18.35 c0,0 5.51,-9.12 7.48,-8.41 a47.06,47.06 0 0 0 -7.73,21.61 A5.69,5.69 0 0 1 1411.1442017606473,289.37722799301173 z" id="svg_38"/><path class="cls-7" d="M1965.7142017606475,235.1672279930117 c3.81,1.6800000000000006 0.7400000000000003,-5.87 -3.42,-6 a138.19,138.19 0 0 0 -37.84,4.08 c-6.4,1.59 -13.73,3.29 -19.57,6.45 c-4,2.13 -9.18,8.66 -13.3,9.07 c-3.37,0.3400000000000003 -6.69,-0.9400000000000003 -10.08,-1.07 c-8.51,-0.3200000000000002 -16.91,6.6 -24.9,3.63 c-7.21,-2.67 -5.24,5.09 -10.77,6.4 c-5.72,1.36 -9.94,-1.34 -15.69,-0.79 c-17.6,1.6800000000000006 -52.23,10.65 -65.56,22.87 c-1.85,1.6900000000000006 -3.66,3.72 -6.13,4.12 c-3.11,0.49000000000000016 -6.38,-1.81 -9.29,-0.6200000000000003 c-2.29,0.9400000000000003 -3.59,3.8200000000000003 -6,4.14 c-4.07,0.53 -6.57,-6.36 -10.54,-5.28 c-2.2,0.6000000000000003 -3.08,3.39 -5.13,4.4 c-2.5700000000000003,1.27 -5.44,-0.7500000000000003 -8,-2.07 c-14.45,-7.53 -39.2,9.32 -54.79,11.83 c-13,2.1 -36.86,13.54 -50.53,8.56 a5,5 0 0 0 -5.51,1.42 c-1.6400000000000001,1.9100000000000001 -4,3.09 -6.68,2.1 c-1.85,-0.7000000000000003 -3.34,-2.27 -5.28,-2.59 c-4.42,-0.7300000000000003 -6.88,4.87 -7.73,9.27 l-8.39,-4.86 c-1.33,-0.77 -2.88,-1.58 -4.4,-0.09000000000000007 a4.66,4.66 0 0 0 -1.33,3 c-0.77,10 -13.1,6.14 -20.06,10.25 a25.15,25.15 0 0 1 -3.5,2.13 c-2,0.77 -4.27,0.29000000000000015 -6.36,-0.2 l-13.32,-3.1 c-2.29,-0.53 -4.8,-1 -6.9,0 c-1.6800000000000006,0.8400000000000003 -2.7600000000000002,2.52 -4.19,3.75 a9.44,9.44 0 0 1 -7.11,2.15 a2.4,2.4 0 0 0 -2.54,1.6300000000000003 c-1,2.83 -4.82,4.68 -8,5.61 c-8.620000000000001,2.51 -37.06,11.43 -45.19,5.42 a8.37,8.37 0 0 0 -8.58,-0.8200000000000003 c-15.29,7.22 -28.31,6.48 -43.37,11.55 c-10.94,3.6900000000000004 -21.32,9.1 -32.57,11.73 c-8.46,2 -17.22,2.3200000000000003 -25.79,3.75 a104.13,104.13 0 0 0 -27.36,8.57 c-5.18,7.92 -17.8,9.5 -24.76,3.09 a96.51,96.51 0 0 1 -30.84,8.32 l-3.81,7.48 c-2,-2.8 -6.25,-2.21 -9.57,-1.32 c-8.25,2.21 -23,9.86 -29.27,1.9100000000000001 c5.74,7.28 -34.81,10.18 -37.11,10 c-9.07,-0.56 -22.78,-6.7 -29,2.34 a17.13,17.13 0 0 0 -11.31,-4.11 c-0.38000000000000017,6.07 -7.48,9.2 -13.52,9.85 s-12.86,0.42000000000000015 -17.24,4.62 c-0.9500000000000003,-3.6500000000000004 -6.25,-3.55 -9.72,-2.05 a26.69,26.69 0 0 1 -6.14,2.15 l-18,4.91 l-4.59,2 c-7.72,3.36 -15.51,6.74 -23.75,8.51 c-6.05,1.3 -12.47,1.77 -17.84,4.86 c-2.73,1.57 -5.16,3.81 -8.22,4.57 s-6.25,-0.08000000000000004 -9.34,0.37000000000000016 s-6.36,3.25 -5.37,6.21 c-4.2,-2.83 -10,-5.6400000000000015 -13.91,-2.41 c-1.32,1.1 -2.13,2.73 -3.52,3.73 c-3.6500000000000004,2.62 -8.59,-0.37000000000000016 -12,-3.25 c6.45,5.41 -34.68,12.870000000000001 -35.14,12.93 c-18.29,2.5300000000000002 -36.66,4.52 -54.82,7.8900000000000015 c-32.86,6.11 -66.13,12.35 -96.43,26.46 c-26.95,12.54 -51.69,32.18 -65.53,58.22 a8.35,8.35 0 0 0 6.15,12.18 c23.41,3.3200000000000003 47.67,-1.51 71.06,-6.35 l210.69,-43.63 l631.93,-130.84 c24,-5 48.19,-10 71,-18.91 c23.83,-9.3 45.92,-22.73 70,-31.33 c30.56,-10.91 63.37,-13.71 94.78,-21.86 s63.21,-23.22 80.09,-50.94 C1968.0842017606474,256.08722799301177 1968.1942017606475,229.70722799301166 1965.7142017606475,235.1672279930117 z" id="svg_39"/><polygon class="cls-1" points="865.6242430453203,614.4870550632477 865.6242430453203,209.50705933570862 1920.8642332796953,209.50705933570862 1920.8642332796953,593.6670477390289 865.6242430453203,614.4870550632477 " id="svg_40"/><path class="cls-7" d="M3042.9442017606475,257.89722799301126 l-1131.57,-4.07 a4.79,4.79 0 0 0 -1.19,0.15000000000000008 l-1160.27,299 c-5.32,1.37 -4.39,9.19 1.1,9.27 l2291.84,34.36 a4.71,4.71 0 0 0 4.78,-4.71 V262.6572279930115 A4.71,4.71 0 0 0 3042.9442017606475,257.89722799301126 z" id="svg_41"/><path class="cls-7" d="M3085.7142017606475,255.34722799301107 c3.3200000000000003,2.52 2.08,-5.54 -1.9300000000000002,-6.63 a138.26,138.26 0 0 0 -37.75,-4.84 c-6.6,0.07 -14.12,0 -20.54,1.73 c-4.34,1.15 -10.93,6.29 -15,5.73 c-3.36,-0.45 -6.3,-2.47 -9.56,-3.39 c-8.21,-2.29 -18,2.49 -25.07,-2.25 c-6.38,-4.28 -6.28,3.72 -12,3.72 c-5.88,0 -9.35,-3.62 -15.07,-4.42 c-17.51,-2.45 -53.27,-1.78 -69.09,7 c-2.18,1.22 -4.42,2.7800000000000002 -6.91,2.58 c-3.14,-0.24000000000000007 -5.78,-3.23 -8.89,-2.75 c-2.45,0.38000000000000017 -4.38,2.88 -6.85,2.62 c-4.08,-0.44000000000000017 -4.92,-7.72 -9,-7.59 c-2.29,0.07 -3.79,2.58 -6,3.09 c-2.8,0.6300000000000003 -5.11,-2 -7.28,-3.88 c-12.3,-10.67 -40.29,0 -56,-1.23 c-13.16,-1 -39,4.6 -51.14,-3.42 a5,5 0 0 0 -5.68,0.11000000000000004 c-2,1.47 -4.6400000000000015,2.07 -7,0.48000000000000015 c-1.6300000000000003,-1.1 -2.72,-3 -4.53,-3.74 c-4.13,-1.7400000000000002 -7.83,3.14 -9.68,7.22 l-7,-6.68 c-1.11,-1.06 -2.43,-2.21 -4.26,-1.11 a4.71,4.71 0 0 0 -2,2.62 c-3.06,9.51 -14.16,2.93 -21.89,5.3 a25,25 0 0 1 -3.9,1.26 c-2.14,0.28 -4.21,-0.7100000000000003 -6.14,-1.6700000000000006 l-12.23,-6.11 c-2.1,-1 -4.42,-2.13 -6.71,-1.6 c-1.84,0.42000000000000015 -3.2800000000000002,1.81 -5,2.67 a9.48,9.48 0 0 1 -7.42,0.45 a2.37,2.37 0 0 0 -2.84,1 c-1.62,2.52 -5.78,3.43 -9.14,3.59 c-9,0.43000000000000016 -38.69,2.5 -45.2,-5.24 a8.4,8.4 0 0 0 -8.16,-2.79 c-16.55,3.47 -29,-0.28 -44.86,1.15 c-11.5,1.05 -22.86,3.9 -34.41,3.84 c-8.69,-0.05000000000000003 -17.29,-1.7400000000000002 -26,-2.35 a103.64,103.64 0 0 0 -28.6,2 c-6.87,6.5 -19.52,5.09 -24.8,-2.7600000000000002 a96.43,96.43 0 0 1 -31.93,0.92 l-5.44,6.4 c-1.3,-3.19 -5.5600000000000005,-3.6100000000000003 -9,-3.52 c-8.54,0.23 -24.66,4.25 -28.91,-4.94 c3.89,8.42 -36.23,1.81 -38.43,1.13 c-8.69,-2.64 -20.6,-11.8 -28.7,-4.44 a17.11,17.11 0 0 0 -10,-6.63 c-1.79,5.8100000000000005 -9.42,7.21 -15.45,6.43 s-12.6,-2.58 -17.84,0.49000000000000016 c-0.07,-3.7800000000000002 -5.25,-4.91 -9,-4.25 a26.79,26.79 0 0 1 -6.47,0.6600000000000005 l-18.66,0.5900000000000003 l-4.92,0.8800000000000003 c-8.3,1.47 -16.66,2.95 -25.08,2.75 c-6.19,-0.14 -12.54,-1.18 -18.48,0.5800000000000003 c-3,0.9 -5.91,2.51 -9.06,2.5300000000000002 s-6.06,-1.53 -9.17,-1.8 s-6.94,1.6800000000000006 -6.67,4.79 c-3.42,-3.74 -8.42,-7.82 -13,-5.58 c-1.54,0.7600000000000003 -2.7,2.16 -4.29,2.81 c-4.15,1.7000000000000002 -8.26,-2.36 -10.94,-6 c5,6.76 -36.72,4.45 -37.18,4.41 c-18.38,-1.79 -36.71,-4.13 -55.16,-5.07 c-33.38,-1.7000000000000002 -67.18,-3.37 -99.93,3.31 c-29.13,5.94 -57.76,19.29 -77.27,41.39 a8.35,8.35 0 0 0 3.15,13.28 c22,8.67 46.71,9.620000000000001 70.59,10.34 l215.06,6.55 l645,19.65 c24.52,0.7500000000000003 49.19,1.49 73.49,-1.87 c25.34,-3.51 49.95,-11.44 75.38,-14.2 c32.26,-3.51 64.82,1.3900000000000001 97.27,0.77 s66.88,-7.88 89.74,-30.92 C3083.1542017606475,276.2472279930116 3089.4042017606475,250.65722799301147 3085.7142017606475,255.34722799301107 z" id="svg_42"/><path class="cls-8" d="M2510.9642017606475,416.44722799301144 s-952.28,-7.77 -952.28,-16.52 s226.41,-114.66 485.86,-120.49 c0,0 945.48,-7.77 930.9,5.83 S2510.9642017606475,416.44722799301144 2510.9642017606475,416.44722799301144 z" id="svg_43"/><path class="cls-9" d="M1982.2942017606474,309.95722799301166 h0 a3.93,3.93 0 0 1 -3.5700000000000003,-4.25 c0.6600000000000005,-8 1.61,-25.84 -2.54,-30.81 a28.89,28.89 0 0 1 6.65,14.54 s2.75,-15.68 2.39,-19 a32,32 0 0 1 1.62,18.73 s2.93,-10.35 9.69,-11.73 c0,0 -7.8100000000000005,7.59 -10,29 A3.93,3.93 0 0 1 1982.2942017606474,309.95722799301166 z" id="svg_44"/><path class="cls-10" d="M1902.0442017606474,326.08722799301177 h0 a5,5 0 0 1 -4.8100000000000005,-5.62 c0.91,-7 1.9,-18.75 -0.8900000000000003,-23.08 c0,0 2.8200000000000003,5.5600000000000005 3.18,8.91 c0,0 2.39,-11.72 -1.8,-16.75 c0,0 3.6500000000000004,3.6500000000000004 5.33,14.42 c0,0 3.2800000000000002,-14.3 3,-18.31 a48.18,48.18 0 0 1 0.37000000000000016,17.95 s4.18,-9.58 9.15,-13.11 c0,0 -5.62,10.77 -6.16,16.7 c0,0 3.83,-5.63 6.58,-6.71 c0,0 -6.7,8 -7.8900000000000015,13.89 a53.84,53.84 0 0 0 -0.92,7.05 A5,5 0 0 1 1902.0442017606474,326.08722799301177 z" id="svg_45"/><path class="cls-11" d="M2107.8842017606476,334.51722799301115 h0 a5.7,5.7 0 0 1 -5.18,-6 c0.35000000000000014,-6.86 0.26,-18.5 -3.67,-24.7 c0,0 4,7 5,10.41 c0,0 -0.06000000000000003,-13.94 -0.6600000000000005,-14.66 a90.68,90.68 0 0 1 4.91,19 s4.07,-22.86 3,-25.61 c0,0 3.5300000000000002,12.26 0.6000000000000003,22.62 c0,0 6,-14.72 10.83,-16.94 c0,0 -7,11.31 -7.6,17.89 c0,0 6.1,-8.74 8,-7.9 a47.21,47.21 0 0 0 -9.12,21.06 A5.71,5.71 0 0 1 2107.8842017606476,334.51722799301115 z" id="svg_46"/><path class="cls-12" d="M2029.0642017606474,355.6572279930115 h0 a4,4 0 0 1 -3.5700000000000003,-4.26 c0.6600000000000005,-8 1.61,-25.83 -2.5300000000000002,-30.8 a28.88,28.88 0 0 1 6.65,14.53 s2.74,-15.67 2.38,-19 a31.93,31.93 0 0 1 1.62,18.72 s2.93,-10.35 9.69,-11.73 c0,0 -7.8,7.6 -10,29.05 A3.94,3.94 0 0 1 2029.0642017606474,355.6572279930115 z" id="svg_47"/><path class="cls-10" d="M1942.4642017606475,377.58722799301177 h0 a5,5 0 0 1 -4.8100000000000005,-5.62 c0.91,-7 1.9,-18.75 -0.8900000000000003,-23.08 c0,0 2.8200000000000003,5.5600000000000005 3.18,8.91 c0,0 2.39,-11.72 -1.8,-16.75 c0,0 3.6500000000000004,3.6500000000000004 5.33,14.42 c0,0 3.2800000000000002,-14.3 3,-18.31 a48.18,48.18 0 0 1 0.37000000000000016,17.95 s4.18,-9.57 9.15,-13.11 c0,0 -5.62,10.77 -6.16,16.7 c0,0 3.83,-5.63 6.58,-6.7 c0,0 -6.7,8 -7.8900000000000015,13.88 a53.84,53.84 0 0 0 -0.92,7.05 A5,5 0 0 1 1942.4642017606475,377.58722799301177 z" id="svg_48"/><path class="cls-11" d="M1822.7742017606474,349.9772279930112 h0 a5.7,5.7 0 0 1 -5.18,-6 c0.35000000000000014,-6.86 0.25,-18.5 -3.68,-24.7 c0,0 4,7 5,10.41 c0,0 -0.06000000000000003,-13.94 -0.6600000000000005,-14.66 a90.68,90.68 0 0 1 4.91,19 s4.06,-22.86 3,-25.61 c0,0 3.54,12.27 0.6100000000000003,22.62 c0,0 6,-14.72 10.82,-16.94 c0,0 -7,11.31 -7.59,17.89 c0,0 6.1,-8.73 8,-7.9 a47.09,47.09 0 0 0 -9.12,21.07 A5.71,5.71 0 0 1 1822.7742017606474,349.9772279930112 z" id="svg_49"/><path class="cls-12" d="M1743.6242017606473,369.81722799301133 h0 a3.93,3.93 0 0 1 -3.5700000000000003,-4.25 c0.6600000000000005,-8 1.61,-25.84 -2.5300000000000002,-30.81 a29,29 0 0 1 6.6400000000000015,14.54 s2.75,-15.68 2.39,-19 a32,32 0 0 1 1.62,18.73 s2.93,-10.35 9.69,-11.73 c0,0 -7.8,7.59 -10,29 A3.92,3.92 0 0 1 1743.6242017606473,369.81722799301133 z" id="svg_50"/><path class="cls-10" d="M1657.0242017606474,391.7372279930114 h0 a5,5 0 0 1 -4.8100000000000005,-5.61 c0.9,-7 1.8900000000000001,-18.75 -0.8900000000000003,-23.08 c0,0 2.81,5.5600000000000005 3.17,8.91 c0,0 2.39,-11.73 -1.8,-16.75 c0,0 3.6500000000000004,3.6500000000000004 5.33,14.42 c0,0 3.29,-14.3 3,-18.31 a48.33,48.33 0 0 1 0.36000000000000015,17.95 s4.19,-9.58 9.15,-13.11 c0,0 -5.62,10.77 -6.16,16.7 c0,0 3.83,-5.63 6.58,-6.71 c0,0 -6.69,8 -7.8900000000000015,13.89 a53.84,53.84 0 0 0 -0.92,7.05 A5,5 0 0 1 1657.0242017606474,391.7372279930114 z" id="svg_51"/><path class="cls-11" d="M1861.3742017606473,400.0372279930116 h0 a5.7,5.7 0 0 1 -5.18,-6 c0.35000000000000014,-6.86 0.26,-18.5 -3.68,-24.69 c0,0 4,7 5,10.41 c0,0 -0.06000000000000003,-13.95 -0.6600000000000005,-14.66 a90.5,90.5 0 0 1 4.91,19 s4.06,-22.86 3,-25.61 c0,0 3.5300000000000002,12.27 0.6000000000000003,22.62 c0,0 6,-14.72 10.82,-16.94 c0,0 -7,11.31 -7.59,17.9 c0,0 6.1,-8.74 8,-7.9 a47,47 0 0 0 -9.12,21.06 A5.71,5.71 0 0 1 1861.3742017606473,400.0372279930116 z" id="svg_52"/><path class="cls-12" d="M2061.154201760647,285.51722799301115 h0 a3.94,3.94 0 0 1 -3.5700000000000003,-4.25 c0.6600000000000005,-8 1.61,-25.84 -2.5300000000000002,-30.81 a28.92,28.92 0 0 1 6.6400000000000015,14.54 s2.75,-15.68 2.39,-19 a32,32 0 0 1 1.62,18.73 s2.93,-10.35 9.69,-11.73 c0,0 -7.8,7.59 -10,29 A3.93,3.93 0 0 1 2061.154201760647,285.51722799301115 z" id="svg_53"/><path class="cls-11" d="M2185.3742017606473,311.9072279930115 h0 a5.7,5.7 0 0 1 -5.18,-6 c0.35000000000000014,-6.86 0.26,-18.5 -3.68,-24.69 c0,0 4,7 5,10.41 c0,0 -0.06000000000000003,-13.95 -0.6600000000000005,-14.66 a90.5,90.5 0 0 1 4.91,19 s4.06,-22.86 3,-25.61 c0,0 3.5300000000000002,12.27 0.6000000000000003,22.62 c0,0 6,-14.72 10.83,-16.94 c0,0 -7,11.31 -7.6,17.9 c0,0 6.1,-8.74 8,-7.9 a47,47 0 0 0 -9.12,21.06 A5.71,5.71 0 0 1 2185.3742017606473,311.9072279930115 z" id="svg_54"/><path class="cls-9" d="M2376.7242017606477,306.3072279930111 h0 a3.94,3.94 0 0 1 -3.84,-4 c0.14,-8 -0.08000000000000004,-25.88 -4.54,-30.57 a28.82,28.82 0 0 1 7.58,14.07 s1.7200000000000002,-15.82 1.15,-19.14 a32,32 0 0 1 2.84,18.58 s2.24,-10.52 8.9,-12.34 c0,0 -7.29,8.09 -8,29.63 A3.92,3.92 0 0 1 2376.7242017606477,306.3072279930111 z" id="svg_55"/><path class="cls-10" d="M2297.6642017606473,327.6572279930115 h0 a5,5 0 0 1 -5.17,-5.29 c0.45,-7 0.6700000000000006,-18.83 -2.39,-23 c0,0 3.17,5.37 3.75,8.69 c0,0 1.62,-11.86 -2.89,-16.6 c0,0 3.88,3.4 6.26,14 c0,0 2.35,-14.49 1.79,-18.47 a48.19,48.19 0 0 1 1.53,17.89 s3.55,-9.83 8.28,-13.67 c0,0 -4.91,11.11 -5.06,17.06 c0,0 3.45,-5.87 6.13,-7.12 c0,0 -6.16,8.44 -7,14.37 a56,56 0 0 0 -0.46,7.1 A5,5 0 0 1 2297.6642017606473,327.6572279930115 z" id="svg_56"/><path class="cls-11" d="M2530.2942017606474,323.88722799301104 h0 a5.7,5.7 0 0 1 -5.5600000000000005,-5.61 c-0.09000000000000007,-6.88 -1,-18.48 -5.27,-24.41 c0,0 4.45,6.72 5.69,10.06 c0,0 -1,-13.91 -1.61,-14.58 a90.4,90.4 0 0 1 6.14,18.66 s2.56,-23.07 1.31,-25.75 c0,0 4.32,12 2.07,22.53 c0,0 5,-15.08 9.7,-17.61 c0,0 -6.24,11.75 -6.41,18.35 c0,0 5.52,-9.11 7.48,-8.4 a47.12,47.12 0 0 0 -7.72,21.61 A5.71,5.71 0 0 1 2530.2942017606474,323.88722799301104 z" id="svg_57"/><path class="cls-12" d="M2452.9942017606472,350.13722799301104 h0 a4,4 0 0 1 -3.85,-4 c0.14,-8 -0.07,-25.89 -4.53,-30.58 a29,29 0 0 1 7.58,14.08 s1.71,-15.83 1.1400000000000001,-19.15 a32,32 0 0 1 2.84,18.59 s2.24,-10.53 8.9,-12.34 c0,0 -7.29,8.08 -8,29.63 A3.93,3.93 0 0 1 2452.9942017606472,350.13722799301104 z" id="svg_58"/><path class="cls-10" d="M2368.0042017606474,377.6572279930115 h0 a5,5 0 0 1 -5.17,-5.3 c0.45,-7 0.6700000000000006,-18.82 -2.39,-23 c0,0 3.17,5.37 3.75,8.69 c0,0 1.62,-11.86 -2.89,-16.6 c0,0 3.88,3.4 6.26,14 c0,0 2.34,-14.48 1.78,-18.47 a48.3,48.3 0 0 1 1.54,17.89 s3.55,-9.82 8.27,-13.67 c0,0 -4.9,11.11 -5,17.06 c0,0 3.45,-5.86 6.12,-7.12 c0,0 -6.16,8.44 -7,14.37 a55.88,55.88 0 0 0 -0.45,7.1 A5,5 0 0 1 2368.0042017606474,377.6572279930115 z" id="svg_59"/><path class="cls-11" d="M2220.1242017606473,356.6572279930115 h0 a5.7,5.7 0 0 1 -5.5600000000000005,-5.62 c-0.1,-6.87 -1,-18.47 -5.28,-24.4 c0,0 4.46,6.72 5.7,10.06 c0,0 -1,-13.91 -1.62,-14.59 a90.61,90.61 0 0 1 6.14,18.67 s2.56,-23.08 1.31,-25.75 c0,0 4.32,12 2.08,22.53 c0,0 5,-15.08 9.69,-17.61 c0,0 -6.24,11.74 -6.41,18.35 c0,0 5.52,-9.12 7.49,-8.41 a47.14,47.14 0 0 0 -7.73,21.62 A5.71,5.71 0 0 1 2220.1242017606473,356.6572279930115 z" id="svg_60"/><path class="cls-12" d="M2142.4342017606477,381.6572279930115 h0 a4,4 0 0 1 -3.84,-4 c0.14,-8 -0.08000000000000004,-25.88 -4.54,-30.57 a28.82,28.82 0 0 1 7.58,14.07 s1.7200000000000002,-15.82 1.1400000000000001,-19.14 a31.9,31.9 0 0 1 2.84,18.58 s2.25,-10.52 8.91,-12.34 c0,0 -7.29,8.09 -8,29.63 A4,4 0 0 1 2142.4342017606477,381.6572279930115 z" id="svg_61"/><path class="cls-10" d="M2062.8842017606476,404.12722799301173 h0 a5,5 0 0 1 -5.16,-5.29 c0.44000000000000017,-7 0.6600000000000005,-18.83 -2.4,-23 c0,0 3.18,5.37 3.75,8.69 c0,0 1.62,-11.86 -2.89,-16.6 c0,0 3.88,3.41 6.26,14 c0,0 2.35,-14.48 1.79,-18.46 a48.11,48.11 0 0 1 1.53,17.88 s3.55,-9.82 8.28,-13.67 c0,0 -4.91,11.11 -5.06,17.06 c0,0 3.46,-5.86 6.13,-7.12 c0,0 -6.16,8.44 -7,14.37 a56,56 0 0 0 -0.46,7.1 A5,5 0 0 1 2062.8842017606476,404.12722799301173 z" id="svg_62"/><path class="cls-11" d="M2288.5442017606474,405.3572279930113 h0 a5.7,5.7 0 0 1 -5.5600000000000005,-5.61 c-0.1,-6.88 -1,-18.48 -5.28,-24.41 c0,0 4.46,6.72 5.7,10.06 c0,0 -1,-13.91 -1.62,-14.58 a90.11,90.11 0 0 1 6.15,18.66 s2.56,-23.07 1.3,-25.75 c0,0 4.33,12 2.08,22.53 c0,0 5,-15.08 9.7,-17.61 c0,0 -6.24,11.75 -6.41,18.35 c0,0 5.52,-9.11 7.48,-8.4 a47.12,47.12 0 0 0 -7.72,21.61 A5.71,5.71 0 0 1 2288.5442017606474,405.3572279930113 z" id="svg_63"/><path class="cls-12" d="M2452.6942017606475,286.4872279930114 h0 a4,4 0 0 1 -3.84,-4 c0.14,-8 -0.08000000000000004,-25.89 -4.54,-30.58 a28.82,28.82 0 0 1 7.58,14.07 s1.7200000000000002,-15.82 1.1400000000000001,-19.14 a31.9,31.9 0 0 1 2.84,18.58 s2.25,-10.52 8.91,-12.34 c0,0 -7.29,8.09 -8,29.64 A3.94,3.94 0 0 1 2452.6942017606475,286.4872279930114 z" id="svg_64"/><path class="cls-12" d="M2779.6642017606473,306.3072279930111 h0 a3.94,3.94 0 0 1 -3.84,-4 c0.14,-8 -0.08000000000000004,-25.88 -4.54,-30.57 a28.82,28.82 0 0 1 7.58,14.07 s1.7200000000000002,-15.82 1.1400000000000001,-19.14 a31.9,31.9 0 0 1 2.84,18.58 s2.25,-10.52 8.91,-12.34 c0,0 -7.29,8.09 -8.05,29.63 A3.93,3.93 0 0 1 2779.6642017606473,306.3072279930111 z" id="svg_65"/><path class="cls-10" d="M2700.6042017606474,327.6572279930115 h0 a5,5 0 0 1 -5.17,-5.29 c0.45,-7 0.6700000000000006,-18.83 -2.39,-23 c0,0 3.17,5.37 3.75,8.69 c0,0 1.62,-11.86 -2.89,-16.6 c0,0 3.88,3.4 6.26,14 c0,0 2.35,-14.49 1.78,-18.47 a48.3,48.3 0 0 1 1.54,17.89 s3.55,-9.83 8.27,-13.67 c0,0 -4.9,11.11 -5,17.06 c0,0 3.45,-5.87 6.13,-7.12 c0,0 -6.16,8.44 -7,14.37 a54.21,54.21 0 0 0 -0.46,7.1 A5,5 0 0 1 2700.6042017606474,327.6572279930115 z" id="svg_66"/><path class="cls-11" d="M2623.0542017606476,356.6572279930115 h0 a5.71,5.71 0 0 1 -5.5600000000000005,-5.62 c-0.09000000000000007,-6.87 -1,-18.47 -5.27,-24.4 c0,0 4.46,6.72 5.69,10.06 c0,0 -1,-13.91 -1.61,-14.59 a90.61,90.61 0 0 1 6.14,18.67 s2.56,-23.08 1.31,-25.75 c0,0 4.32,12 2.08,22.53 c0,0 5,-15.08 9.69,-17.61 c0,0 -6.24,11.74 -6.41,18.35 c0,0 5.52,-9.12 7.48,-8.41 a47.19,47.19 0 0 0 -7.72,21.62 A5.72,5.72 0 0 1 2623.0542017606476,356.6572279930115 z" id="svg_67"/><path class="cls-9" d="M2545.3742017606473,381.6572279930115 h0 a3.94,3.94 0 0 1 -3.84,-4 c0.14,-8 -0.08000000000000004,-25.88 -4.54,-30.57 a28.91,28.91 0 0 1 7.58,14.07 s1.7200000000000002,-15.82 1.1400000000000001,-19.14 a31.9,31.9 0 0 1 2.84,18.58 s2.25,-10.52 8.9,-12.34 c0,0 -7.29,8.09 -8,29.63 A4,4 0 0 1 2545.3742017606473,381.6572279930115 z" id="svg_68"/><path class="cls-10" d="M2465.824201760647,404.12722799301173 h0 a5,5 0 0 1 -5.17,-5.29 c0.45,-7 0.6700000000000006,-18.83 -2.39,-23 c0,0 3.17,5.37 3.75,8.69 c0,0 1.62,-11.86 -2.89,-16.6 c0,0 3.88,3.41 6.26,14 c0,0 2.35,-14.48 1.79,-18.46 a48.11,48.11 0 0 1 1.53,17.88 s3.55,-9.82 8.28,-13.67 c0,0 -4.91,11.11 -5.06,17.06 c0,0 3.45,-5.86 6.13,-7.12 c0,0 -6.16,8.44 -7,14.37 a54.21,54.21 0 0 0 -0.46,7.1 A5,5 0 0 1 2465.824201760647,404.12722799301173 z" id="svg_69"/><path class="cls-9" d="M2855.6342017606476,286.51722799301115 h0 a3.94,3.94 0 0 1 -3.84,-4 c0.14,-8 -0.08000000000000004,-25.89 -4.54,-30.57 a28.91,28.91 0 0 1 7.58,14.07 s1.7200000000000002,-15.82 1.1400000000000001,-19.14 a31.9,31.9 0 0 1 2.84,18.58 s2.25,-10.52 8.9,-12.34 c0,0 -7.29,8.09 -8,29.63 A3.94,3.94 0 0 1 2855.6342017606476,286.51722799301115 z" id="svg_70"/><path class="cls-11" d="M2606.1042017606474,296.27722799301137 h0 a5.71,5.71 0 0 1 -5.5600000000000005,-5.62 c-0.1,-6.87 -1,-18.47 -5.28,-24.4 c0,0 4.46,6.72 5.7,10.06 c0,0 -1,-13.91 -1.62,-14.59 a90.32,90.32 0 0 1 6.15,18.67 s2.56,-23.08 1.3,-25.75 c0,0 4.33,12 2.08,22.53 c0,0 5,-15.08 9.7,-17.61 c0,0 -6.24,11.74 -6.41,18.35 c0,0 5.52,-9.12 7.48,-8.41 a47.19,47.19 0 0 0 -7.72,21.62 A5.72,5.72 0 0 1 2606.1042017606474,296.27722799301137 z" id="svg_71"/><path class="cls-7" d="M2641.5042017606474,409.0972279930111 c3.3200000000000003,2.51 2.08,-5.54 -1.94,-6.6400000000000015 a138.56,138.56 0 0 0 -37.74,-4.83 c-6.6,0.06000000000000003 -14.12,0 -20.54,1.7200000000000002 c-4.35,1.1600000000000001 -10.93,6.29 -15,5.73 c-3.36,-0.45 -6.29,-2.47 -9.55,-3.38 c-8.21,-2.29 -18,2.48 -25.07,-2.26 c-6.39,-4.27 -6.28,3.73 -12,3.72 c-5.88,0 -9.35,-3.62 -15.07,-4.42 c-17.52,-2.45 -53.28,-1.77 -69.09,7 c-2.19,1.21 -4.42,2.77 -6.92,2.58 c-3.13,-0.25 -5.78,-3.24 -8.88,-2.7600000000000002 c-2.45,0.38000000000000017 -4.39,2.88 -6.85,2.62 c-4.09,-0.43000000000000016 -4.92,-7.72 -9,-7.59 c-2.2800000000000002,0.07 -3.7800000000000002,2.59 -6,3.09 c-2.8,0.6300000000000003 -5.11,-2 -7.28,-3.87 c-12.31,-10.68 -40.29,-0.05000000000000003 -56,-1.23 c-13.17,-1 -39,4.6 -51.14,-3.42 a5,5 0 0 0 -5.68,0.1 c-2,1.48 -4.6400000000000015,2.07 -7,0.48000000000000015 c-1.6400000000000001,-1.1 -2.72,-3 -4.54,-3.74 c-4.13,-1.7400000000000002 -7.82,3.14 -9.67,7.22 l-7,-6.67 c-1.12,-1.06 -2.43,-2.21 -4.26,-1.12 a4.71,4.71 0 0 0 -2,2.62 c-3.07,9.51 -14.17,2.93 -21.9,5.3 a24.84,24.84 0 0 1 -3.89,1.26 c-2.14,0.29000000000000015 -4.22,-0.7100000000000003 -6.15,-1.6700000000000006 l-12.23,-6.11 c-2.1,-1.05 -4.42,-2.13 -6.71,-1.6 c-1.83,0.43000000000000016 -3.27,1.81 -4.94,2.68 a9.52,9.52 0 0 1 -7.42,0.44000000000000017 a2.39,2.39 0 0 0 -2.85,1 c-1.61,2.52 -5.77,3.43 -9.13,3.59 c-9,0.44000000000000017 -38.7,2.51 -45.2,-5.24 a8.4,8.4 0 0 0 -8.16,-2.79 c-16.55,3.47 -29,-0.28 -44.86,1.1600000000000001 c-11.51,1 -22.86,3.89 -34.41,3.83 c-8.69,-0.05000000000000003 -17.29,-1.7400000000000002 -26,-2.35 a104,104 0 0 0 -28.6,2 c-6.88,6.5 -19.52,5.1 -24.8,-2.75 a96.45,96.45 0 0 1 -31.93,0.92 l-5.44,6.39 c-1.3,-3.19 -5.57,-3.6100000000000003 -9,-3.51 c-8.53,0.23 -24.66,4.24 -28.9,-4.95 c3.89,8.42 -36.23,1.81 -38.44,1.1400000000000001 c-8.69,-2.6500000000000004 -20.59,-11.81 -28.69,-4.45 a17.11,17.11 0 0 0 -10,-6.63 c-1.78,5.8100000000000005 -9.41,7.21 -15.44,6.43 s-12.6,-2.5700000000000003 -17.84,0.5 c-0.08000000000000004,-3.7800000000000002 -5.26,-4.92 -9,-4.26 a26.85,26.85 0 0 1 -6.47,0.6700000000000006 l-18.66,0.5800000000000003 l-4.93,0.8800000000000003 c-8.29,1.47 -16.65,2.95 -25.07,2.75 c-6.19,-0.14 -12.54,-1.17 -18.48,0.5900000000000003 c-3,0.8900000000000003 -5.91,2.5 -9.07,2.5300000000000002 s-6.06,-1.53 -9.17,-1.81 s-6.94,1.6800000000000006 -6.66,4.79 c-3.43,-3.73 -8.42,-7.82 -13,-5.58 c-1.54,0.7600000000000003 -2.71,2.16 -4.29,2.81 c-4.16,1.7000000000000002 -8.26,-2.35 -10.94,-6 c5,6.76 -36.72,4.45 -37.19,4.41 c-18.38,-1.79 -36.7,-4.13 -55.15,-5.07 c-33.38,-1.7000000000000002 -67.19,-3.37 -99.94,3.31 c-29.12,5.94 -57.75,19.29 -77.27,41.39 a8.36,8.36 0 0 0 3.15,13.28 c22,8.68 46.72,9.620000000000001 70.59,10.35 l215.06,6.55 l645,19.65 c24.53,0.7400000000000003 49.19,1.49 73.5,-1.8800000000000003 c25.33,-3.51 50,-11.43 75.38,-14.2 c32.26,-3.5 64.82,1.4 97.26,0.78 s66.89,-7.8900000000000015 89.74,-30.93 C2638.9442017606475,429.9872279930114 2645.1842017606477,404.3572279930113 2641.5042017606474,409.0972279930111 z" id="svg_72"/><path class="cls-7" d="M2167.7142017606475,560.1272279930117 c29.18,-8.18 60.31,-10.35 87.63,-23.47 c13.42,-6.43 25.59,-15.38 39.43,-20.87 c12.91,-5.13 26.84,-7.07 40.61,-9 l61.53,-8.48 c32.07,-4.41 67.14,-10.4 88.15,-35 c2.06,-2.42 4,-5.1 4.66,-8.21 c1.57,-7.38 -4.88,-14.53 -12.15,-16.59 s-15,-0.41000000000000014 -22.39,1.09 a594.43,594.43 0 0 1 -128.11,11.81 c-21.15,-0.35000000000000014 -42.1,-2.13 -63.11,-4.41 c-14.92,-1.61 -33.51,-2.26 -46.76,5.73 c-9.33,5.63 -15.11,9.18 -26.29,9.36 c-7.91,0.13 -19,-2.67 -23.28,6.37 c-1.07,2.29 -1.7400000000000002,5.21 -4.1,6.1 c-3.17,1.2 -7.08,-2.34 -9.870000000000001,-0.4 c-1.6700000000000006,1.1600000000000001 -1.79,3.66 -3.19,5.14 c-2.7,2.8600000000000003 -7.4,0.2 -11.33,0.41000000000000014 c-5.13,0.28 -8.47,5.55 -13.2,7.55 a22.07,22.07 0 0 1 -7.63,1.27 l-32.25,1.53 a8.28,8.28 0 0 0 -4.54,1.1 c-1.29,0.9400000000000003 -1.92,2.5 -2.7600000000000002,3.85 c-4.45,7.2 -14.44,8.09 -22.89,7.68 s-18,-0.9400000000000003 -24.1,5 c-8.71,8.48 -20,4.7 -31.37,6.6 c-13.09,2.19 -24.18,11 -37.42,12.43 c-9,1 -14.06,-0.6500000000000004 -21.53,5.52 c-3.5300000000000002,2.91 -4.1,7.24 -9.14,7.79 c-4.47,0.5 -7.47,-6.1 -12.46,-4.68 c-3.81,1.08 -4.94,6.58 -8.73,7.7 c-2.77,0.81 -5.51,-1.08 -8,-2.49 s-6.2,-2.15 -7.8900000000000015,0.2 c-0.7200000000000003,1 -0.8500000000000003,2.31 -1.54,3.3200000000000003 c-2.83,4.15 -10.7,-0.7200000000000003 -14,3 c-1.42,1.61 -1.34,4.28 -3,5.6 c-2.23,1.75 -5.75,-0.12000000000000002 -8.23,1.25 c-1.4,0.7600000000000003 -2.09,2.35 -3.21,3.48 c-3.92,3.95 -10.42,0.93 -15.85,-0.26 c-8.83,-1.94 -13.59,2.68 -21.18,5.41 s-16.15,3.81 -23.95,5.6 c-16,3.6900000000000004 -33.94,8.42 -42.15,22.67 " id="svg_73"/></g></g></svg>