<svg id="Layer_1" data-name="Layer 1" xmlns="http://www.w3.org/2000/svg" viewBox="0 0 1920 5614"><defs><style>.cls-1{fill:#775a41;}.cls-2{fill:#d75b4d;}.cls-3{fill:#fff;}.cls-4{fill:#76a075;}.cls-5{fill:none;stroke:#fff;stroke-miterlimit:10;stroke-width:2px;}.cls-6{fill:#285e85;}.cls-7{fill:#f3b744;}</style></defs><title>16</title><path class="cls-1" d="M152.25,175.79l2.18-4,1,.54-2.05,3.76a.53.53,0,0,0-.08.37.51.51,0,0,0,.26.27l.42.23-.43.79-.86-.47A1,1,0,0,1,152.25,175.79Z"/><path class="cls-1" d="M155.73,176.6a1.2,1.2,0,0,1,1.3-.83l-.91-.73.5-1.07a3.88,3.88,0,0,1,1.35-.13,4.3,4.3,0,0,1,1.51.4,3.11,3.11,0,0,1,1.54,1.3,2.14,2.14,0,0,1-.14,1.84l-1.48,3.18-1-.49,1.49-3.2a1.3,1.3,0,0,0,.12-1.06,1.78,1.78,0,0,0-.92-.75,3.33,3.33,0,0,0-.94-.27,1.81,1.81,0,0,0-.82.05l-.08.17,1,.77-.32.69a1,1,0,0,0-.66.06,1.16,1.16,0,0,0-.45.56l-.85,1.84-1-.48Z"/><path class="cls-1" d="M161.78,181a2.15,2.15,0,0,1,0-1.85l1.18-3.24,1.06.38-1.19,3.29a1.31,1.31,0,0,0,0,1.08,1.59,1.59,0,0,0,.91.68,1.56,1.56,0,0,0,1.13.07,1.3,1.3,0,0,0,.69-.84l.26-.7-1.27-.46.29-.82,1.27.46.65-1.77,1.07.39-.64,1.77.58.21-.38.79-.5-.18-.24.66a2.17,2.17,0,0,1-1.22,1.39,2.87,2.87,0,0,1-2-.11A2.81,2.81,0,0,1,161.78,181Z"/><path class="cls-1" d="M168.21,183.09a3.2,3.2,0,0,1-.06-2.23,4.23,4.23,0,0,1,1-2,1.55,1.55,0,0,1,1.53-.41,1.39,1.39,0,0,1,.61.3,1.36,1.36,0,0,1,.35.51,1.77,1.77,0,0,1,.66-.23,1.63,1.63,0,0,1,.73,0,1.26,1.26,0,0,1,.88.64,1.69,1.69,0,0,1,.05,1.17l-1.08,4.1-1.1-.29,1-3.94a1.18,1.18,0,0,0,0-.6.49.49,0,0,0-.38-.28.63.63,0,0,0-.41,0,.66.66,0,0,0-.34.28l-.61-.16a1.16,1.16,0,0,0-.17-.43.6.6,0,0,0-.34-.2.75.75,0,0,0-.83.34,4.52,4.52,0,0,0-.59,1.45,2.5,2.5,0,0,0,0,1.53,1.28,1.28,0,0,0,.92.71,2.47,2.47,0,0,0,.72.1l-.22.84a3,3,0,0,1-.92-.11A2.16,2.16,0,0,1,168.21,183.09Z"/><path class="cls-1" d="M175.37,185.44a4,4,0,0,1-.79-.35l.16-.94a4.14,4.14,0,0,0,.79.38,5.16,5.16,0,0,0,.85.23,3.28,3.28,0,0,0,1.09.05.54.54,0,0,0,.41-.49.65.65,0,0,0,0-.42,1.07,1.07,0,0,0-.3-.3l-.63-.35-.38-.2a4.19,4.19,0,0,1-1.16-.85,1.22,1.22,0,0,1-.25-1,1.38,1.38,0,0,1,.77-1.07,2.75,2.75,0,0,1,1.74-.13,6.32,6.32,0,0,1,.91.22,5.71,5.71,0,0,1,.75.31l-.16.93a3.6,3.6,0,0,0-.71-.32,4.13,4.13,0,0,0-.78-.21,2.94,2.94,0,0,0-1,0,.52.52,0,0,0-.42.46.46.46,0,0,0,.08.38,1,1,0,0,0,.33.31l.69.39.28.14a3.75,3.75,0,0,1,1.17.87,1.4,1.4,0,0,1,.22,1.11,1.33,1.33,0,0,1-.8,1.08,3.14,3.14,0,0,1-1.74.1A8.64,8.64,0,0,1,175.37,185.44Z"/><path class="cls-1" d="M180.67,180.54l1,.09v.62a3,3,0,0,1,2.06-.56,1.85,1.85,0,0,1,1.35.64,2.16,2.16,0,0,1,.38,1.54l-.31,3.71-1.12-.09.3-3.66a1.18,1.18,0,0,0-.22-.91,1.27,1.27,0,0,0-.86-.35,2.14,2.14,0,0,0-.87.12,2.38,2.38,0,0,0-.74.44l-.34,4.14-1.13-.09Z"/><path class="cls-1" d="M190.87,183a1.27,1.27,0,0,0-.36-1,1.74,1.74,0,0,0-1.15-.27,3,3,0,0,0-1,.17,1.79,1.79,0,0,0-.71.4v.18l1.2.29,0,.75a.94.94,0,0,0-.57.35,1.17,1.17,0,0,0-.16.69v.68a.49.49,0,0,0,.11.34.45.45,0,0,0,.34.1h.58v.9l-1.13,0a.94.94,0,0,1-.75-.28,1.06,1.06,0,0,1-.28-.76l0-1a1.19,1.19,0,0,1,.8-1.31l-1.13-.27,0-1.17a3.94,3.94,0,0,1,1.15-.71,4.22,4.22,0,0,1,1.54-.3,3,3,0,0,1,2,.5A2.12,2.12,0,0,1,192,183l.09,5.19-1.14,0Z"/><path class="cls-1" d="M194.47,185.88a2.14,2.14,0,0,1-.87-1.63l-.42-3.43,1.12-.14.43,3.47a1.26,1.26,0,0,0,.48,1,1.95,1.95,0,0,0,2.16-.26,1.3,1.3,0,0,0,.23-1.05l-.09-.74-1.34.16-.1-.86,1.34-.17-.23-1.87,1.14-.13.22,1.87.62-.08,0,.88-.53.06.08.7a2.16,2.16,0,0,1-.46,1.79,3.48,3.48,0,0,1-3.8.46Z"/><path class="cls-1" d="M202.25,186.36a4.19,4.19,0,0,1,1.65-.77,4.71,4.71,0,0,1,.81-.1,2.21,2.21,0,0,1,.66.08l-1-4.5a1.34,1.34,0,0,0-.54-.91,1.69,1.69,0,0,0-1.14,0,3.27,3.27,0,0,0-.92.36,1.94,1.94,0,0,0-.61.54l.05.18,1.26,0,.17.74a.82.82,0,0,0-.43.44,1.29,1.29,0,0,0,0,.7l.17.74a1.11,1.11,0,0,1-.92,1.52l-.68.16-.2-.88.38-.09a.36.36,0,0,0,.27-.16.5.5,0,0,0,0-.35l-.16-.69a1.7,1.7,0,0,1,0-.83,1,1,0,0,1,.46-.6l-1.18,0-.26-1.14a3.94,3.94,0,0,1,1-.93,4.07,4.07,0,0,1,1.44-.61,2.8,2.8,0,0,1,2,.11,2.13,2.13,0,0,1,1,1.52l1.23,5.4-1.1.25a3.17,3.17,0,0,0-1.59,0,3.94,3.94,0,0,0-1.54.74Z"/><path class="cls-1" d="M200.29,178.31l3.25-.93-.24-.83.91-.26.45,1.6-4.2,1.2Z"/><path class="cls-1" d="M207.37,182.77l-.71-2.31a1.87,1.87,0,0,1-.07-1,4,4,0,0,1,.34-.89,4.78,4.78,0,0,0,.21-.47.58.58,0,0,0,0-.32.47.47,0,0,0-.27-.34,1,1,0,0,0-.54,0,2.37,2.37,0,0,0-1,.64l-.25-.8a2.72,2.72,0,0,1,.6-.49,4.08,4.08,0,0,1,.75-.33,1.69,1.69,0,0,1,1.15,0,1.1,1.1,0,0,1,.61.74,1.18,1.18,0,0,1,0,.64,2.86,2.86,0,0,1-.26.69,4.63,4.63,0,0,0-.28.81,1.39,1.39,0,0,0,.06.74l.62,2a.62.62,0,0,0,.19.34.59.59,0,0,0,.39,0l.46-.15.26.86-.93.29A1,1,0,0,1,207.37,182.77Z"/><path class="cls-1" d="M209,177.49l1.06-.41.64,1.66,1.53-.59a.91.91,0,0,0,.64-1.37l-.27-.68,1.06-.41.25.66a1.41,1.41,0,0,1-.25,1.7,1,1,0,0,1,.76.25,1.82,1.82,0,0,1,.47.75l.75,1.94-1.06.41-.69-1.82a1.2,1.2,0,0,0-.52-.7,1.23,1.23,0,0,0-.87.1l-1.49.57,1.08,2.81-1.06.41Z"/><path class="cls-1" d="M219,179.34a3,3,0,0,1-1-.09l.21.58-.93.45-2.48-5.08,1-.5,1.83,3.75a2.31,2.31,0,0,0,.84.13,2,2,0,0,0,.86-.21,1.2,1.2,0,0,0,.67-.64,1.24,1.24,0,0,0-.14-.94l-1.6-3.29,1-.49,1.63,3.33a2.11,2.11,0,0,1,.2,1.58,1.84,1.84,0,0,1-1,1.11A3,3,0,0,1,219,179.34Z"/><path class="cls-1" d="M217,171.26l1-.54.82,1.51-1,.54Z"/><polygon class="cls-2" points="139.45 120.29 139.72 96.31 148.57 90.48 156.84 96.54 156.57 120.48 139.45 120.29"/><polygon class="cls-2" points="150.82 120.42 150.93 110.1 159.78 104.27 168.06 110.33 167.87 127.34 150.82 120.42"/><rect class="cls-3" x="157.08" y="109.34" width="4.79" height="4.79" transform="translate(1.27 -1.79) rotate(0.64)"/><rect class="cls-3" x="145.87" y="95.55" width="4.79" height="4.79" transform="translate(1.11 -1.66) rotate(0.64)"/><path class="cls-2" d="M149.22,113.6l11.2-7.93h-1.09l10.76,8.17c1.1.84,2.17-1,1.08-1.85l-10.75-8.18a1.07,1.07,0,0,0-1.09,0l-11.19,7.93c-1.12.79,0,2.66,1.08,1.86Z"/><path class="cls-2" d="M137.83,99.81,149,91.88h-1.09l10.76,8.17c1.1.84,2.17-1,1.08-1.85L149,90a1.07,1.07,0,0,0-1.09,0L136.75,98c-1.12.79-.05,2.66,1.08,1.86Z"/><path class="cls-4" d="M176.75,173.93a53.89,53.89,0,0,0,64.53-52.8,53.72,53.72,0,0,0-6.55-25.77A88.36,88.36,0,0,0,176.75,173.93Z"/><path class="cls-5" d="M213.69,133s-11-11.5-8-27.25"/><path class="cls-3" d="M205.71,137.88c3.11-3.4,6.13-7.06,9-10.74s5.66-7.51,8.31-11.41,5.07-7.93,7.36-12.06a106.39,106.39,0,0,0,5.91-12.88,106.28,106.28,0,0,1-4.79,13.43c-1.93,4.35-4,8.64-6.35,12.82s-4.79,8.26-7.39,12.28-5.31,7.92-8.27,11.8Z"/><path class="cls-6" d="M187.41,135.55a87.91,87.91,0,0,1-53.72-18.23c-.08,1.26-.14,2.53-.14,3.81a53.87,53.87,0,0,0,107.73,0c0-1.28-.06-2.55-.15-3.81A87.89,87.89,0,0,1,187.41,135.55Z"/><path class="cls-7" d="M134.25,112.43a53.89,53.89,0,0,0,76.33,57.34A88.35,88.35,0,0,0,134.25,112.43Z"/><path class="cls-3" d="M144.62,122.63a9,9,0,0,1,1.56,1,12.07,12.07,0,0,1,1.32,1.13,17.84,17.84,0,0,1,2.17,2.59l-2.49,0a16.65,16.65,0,0,1,2.1-2.59,14,14,0,0,1,1.28-1.14,9.22,9.22,0,0,1,1.52-1,9.29,9.29,0,0,1-.3,1.79,14.82,14.82,0,0,1-.54,1.63,17.19,17.19,0,0,1-1.56,2.94l-1.22,1.86L147.19,129a18.83,18.83,0,0,1-1.64-3,14.44,14.44,0,0,1-.58-1.64A10.07,10.07,0,0,1,144.62,122.63Z"/><path class="cls-3" d="M148.32,121.07a4.65,4.65,0,0,1,1.2,1.76,5.07,5.07,0,0,1,.35,1.77,5,5,0,0,1-.29,1.77,4.55,4.55,0,0,1-1.15,1.8,4.69,4.69,0,0,1-1.21-1.76,5.07,5.07,0,0,1-.35-1.77,5.23,5.23,0,0,1,.3-1.77A4.66,4.66,0,0,1,148.32,121.07Z"/><path class="cls-3" d="M163.22,131.28a8.85,8.85,0,0,1,1.55,1,12.07,12.07,0,0,1,1.32,1.13,16.65,16.65,0,0,1,2.17,2.59l-2.49,0a17.25,17.25,0,0,1,2.1-2.59,14,14,0,0,1,1.28-1.14,9.32,9.32,0,0,1,1.53-1,9.29,9.29,0,0,1-.31,1.79,13,13,0,0,1-.54,1.63,17.19,17.19,0,0,1-1.56,2.94l-1.22,1.86-1.26-1.83a17.34,17.34,0,0,1-1.64-2.95,12.77,12.77,0,0,1-.59-1.64A9.26,9.26,0,0,1,163.22,131.28Z"/><path class="cls-3" d="M166.91,129.72a4.65,4.65,0,0,1,1.2,1.76,5.32,5.32,0,0,1,.36,1.77,5,5,0,0,1-.3,1.77,4.55,4.55,0,0,1-1.15,1.8,4.8,4.8,0,0,1-1.21-1.76,5.13,5.13,0,0,1-.05-3.54A4.79,4.79,0,0,1,166.91,129.72Z"/><path class="cls-3" d="M151.17,142.59a10.86,10.86,0,0,1,1.56,1,16,16,0,0,1,1.32,1.13,17.67,17.67,0,0,1,2.16,2.59l-2.48,0a17.69,17.69,0,0,1,2.09-2.59,14.36,14.36,0,0,1,1.29-1.14,9.92,9.92,0,0,1,1.52-1,9.83,9.83,0,0,1-.3,1.79,16.38,16.38,0,0,1-.54,1.63,17.67,17.67,0,0,1-1.56,3L155,150.81,153.74,149A18,18,0,0,1,152.1,146a15,15,0,0,1-.58-1.63A9.36,9.36,0,0,1,151.17,142.59Z"/><path class="cls-3" d="M154.86,141a4.66,4.66,0,0,1,1.21,1.75,5.08,5.08,0,0,1,.06,3.55,4.71,4.71,0,0,1-1.15,1.79,4.62,4.62,0,0,1-1.21-1.75,5,5,0,0,1-.05-3.55A4.6,4.6,0,0,1,154.86,141Z"/><path class="cls-3" d="M166.13,156.82a9.34,9.34,0,0,1,1.56,1,14.29,14.29,0,0,1,1.32,1.13,17.16,17.16,0,0,1,2.16,2.59l-2.48,0a17.18,17.18,0,0,1,2.09-2.59,13,13,0,0,1,1.29-1.14,9.22,9.22,0,0,1,1.52-1,10.13,10.13,0,0,1-.3,1.79,14.86,14.86,0,0,1-.55,1.63,16.48,16.48,0,0,1-1.55,2.94L170,165l-1.27-1.83a18.06,18.06,0,0,1-1.64-3,14.44,14.44,0,0,1-.58-1.64A9.26,9.26,0,0,1,166.13,156.82Z"/><path class="cls-3" d="M169.82,155.26A4.69,4.69,0,0,1,171,157a5.06,5.06,0,0,1,.06,3.54,4.74,4.74,0,0,1-1.15,1.8,4.65,4.65,0,0,1-1.21-1.76,5,5,0,0,1,0-3.55A4.67,4.67,0,0,1,169.82,155.26Z"/><path class="cls-3" d="M180,143.27a10.86,10.86,0,0,1,1.56,1c.47.36.9.74,1.32,1.13A17.67,17.67,0,0,1,185,148l-2.48,0a17.1,17.1,0,0,1,2.09-2.58,11.8,11.8,0,0,1,1.29-1.14,9.26,9.26,0,0,1,1.52-1,9.83,9.83,0,0,1-.3,1.79,15.56,15.56,0,0,1-.54,1.63,17.67,17.67,0,0,1-1.56,2.95l-1.22,1.85-1.27-1.83a18,18,0,0,1-1.64-2.95,15,15,0,0,1-.58-1.63A9.21,9.21,0,0,1,180,143.27Z"/><path class="cls-3" d="M183.64,141.72a4.66,4.66,0,0,1,1.21,1.75,5.08,5.08,0,0,1,.06,3.55,4.71,4.71,0,0,1-1.15,1.79,4.62,4.62,0,0,1-1.21-1.75,5,5,0,0,1-.05-3.55A4.6,4.6,0,0,1,183.64,141.72Z"/><path class="cls-3" d="M192.05,159.81a10.86,10.86,0,0,1,1.56,1,16.13,16.13,0,0,1,1.31,1.13,17.13,17.13,0,0,1,2.17,2.59l-2.49,0a17.76,17.76,0,0,1,2.1-2.59,15.73,15.73,0,0,1,1.28-1.14,10.55,10.55,0,0,1,1.53-1,9.83,9.83,0,0,1-.3,1.79,13.56,13.56,0,0,1-.55,1.63,17.62,17.62,0,0,1-1.55,3L195.88,168l-1.26-1.83a16.61,16.61,0,0,1-1.64-2.95,15,15,0,0,1-.59-1.63A10.18,10.18,0,0,1,192.05,159.81Z"/><path class="cls-3" d="M195.74,158.26A4.78,4.78,0,0,1,197,160a5.3,5.3,0,0,1,.35,1.77,5.07,5.07,0,0,1-.29,1.78,4.74,4.74,0,0,1-1.16,1.79,4.7,4.7,0,0,1-1.2-1.75,5.08,5.08,0,0,1-.06-3.55A4.76,4.76,0,0,1,195.74,158.26Z"/><path class="cls-2" d="M151.77,79.22c.09-3.33,1.85-4.58,4.52-4.51a3.74,3.74,0,0,1,2.88,1.1l0-1.46c0-1.48-.71-2.29-2.54-2.34a4.68,4.68,0,0,0-3.34,1.12l-1.17-1.69A7.55,7.55,0,0,1,157.08,70a6.68,6.68,0,0,1,2.61.54,2.41,2.41,0,0,0,.69-1.13l2.35.57a3.32,3.32,0,0,1-1.21,2,3.7,3.7,0,0,1,.66,2.42L162,82.15l-2.88-.08c.1-3.88-.63-5.29-2.77-5.35-1.08,0-1.75.28-1.87,1.27,1.64-.08,2.35.66,2.3,2.18s-.63,2.15-2.57,2.1S151.72,81.21,151.77,79.22Zm3.42.85c0-.62-.17-.82-.86-.84s-.89.17-.9.79.19.89.86.9S155.17,80.73,155.19,80.07Z"/><path class="cls-2" d="M159,87.23a1.84,1.84,0,0,1-2-2.11c0-1.41.56-2.19,2.48-2.13s2.4.88,2.36,2.58l-.1,3.59L159,89.08Zm1.21-2c0-.66-.18-.86-.86-.88s-.89.17-.91.84.18.82.86.84S160.22,85.85,160.24,85.23Z"/><path class="cls-7" d="M164.15,78.32l0-.9a3.94,3.94,0,0,1,1.36-2.87c-1.32-.13-1.75-.78-1.71-2.19s.61-2.15,2.55-2.09,2.5.64,2.45,2.29l0,.77c0,1.48-1.59,1.77-1.65,3.82l0,1.39c0,1.23.16,2.08,1.9,2.12s2-.78,2-2l.22-7.92,3,.08L174,78.46c-.06,2.47-1.28,4.31-5.05,4.21C165.05,82.56,164.09,80.51,164.15,78.32Zm3-5.8c0-.66-.17-.87-.86-.89s-.91.18-.92.84.19.82.88.84S167.16,73.13,167.18,72.52Z"/><path class="cls-4" d="M178.3,76.47a1.86,1.86,0,0,1-2.4-1.66c-.26-1.43.16-2.26,2.09-2.61s2.63.32,2.94,2l.91,5.1.86-4.18,1.13-.2,2.33,3.61-1.3-7.25,2.94-.52,2,11.49-3,.53-3-4.49-1.19,5.23-3,.54Zm.88-2.22c-.11-.65-.34-.81-1-.69s-.83.35-.72,1,.34.77,1,.65S179.29,74.86,179.18,74.25Z"/><path class="cls-6" d="M190.92,78.41l-.23-1.3c-.3-1.72.15-2.58,2.06-2.92s2.61.29,2.86,1.73-.6,2-1.82,2.25l.06.3c.16.89.87,1.24,2.3,1s2.1-.91,1.93-1.85l-.8-4.49C197,71.59,196,71,194.11,71.37a4.93,4.93,0,0,0-3,1.73l-1.48-1.38a7.68,7.68,0,0,1,4.54-2.4c3.91-.69,5.62.7,6.07,3.25l.78,4.36c.27,1.52-.49,3.78-4.49,4.5S191.29,80.45,190.92,78.41Zm3.15-2.2c-.11-.65-.34-.81-1-.69s-.83.35-.71,1,.33.77,1,.65S194.18,76.82,194.07,76.21Z"/><path class="cls-4" d="M166.7,99.15a1.88,1.88,0,0,1-2.44-1.63c-.27-1.43.13-2.27,2.06-2.63s2.66.28,3,2l.51,2.67,1.2-3.48c.54-1.56,1.18-2.29,2.51-2.54a2.05,2.05,0,0,1,2.55,1.87l1.8,9.52-2.93.55-1.55-8.24c0-.24-.11-.31-.28-.28s-.26.18-.4.61l-2.13,6.11.48,2.53-2.92.55Zm.84-2.22c-.13-.66-.36-.81-1-.69s-.83.36-.71,1,.35.77,1,.64S167.65,97.53,167.54,96.93Z"/><path class="cls-6" d="M169.28,89a4.77,4.77,0,0,1,3,.29L172,87.74l2.53-.48.93,4.89-10.56,2C164.6,91.35,166.51,89.56,169.28,89Zm3.17,2.18c-.51-.68-1.65-.8-2.87-.58s-2.15.75-2.22,1.55Z"/><path class="cls-7" d="M171.27,84l2.54-.48.55,3-2.53.48Z"/><path class="cls-2" d="M181.83,95.05a2.18,2.18,0,0,1-2.13-2.65c.19-1.69.92-2.49,3.2-2.23s2.84,1.22,2.61,3.24l-.67,6L187.2,95l1.33.15,1.4,4.82,1-8.55,3.45.39-1.52,13.53-3.53-.4-1.84-6-3.07,5.45-3.56-.4Zm1.73-2.19c.08-.77-.12-1-.91-1.12s-1.05.12-1.14.89.12,1,.92,1.06S183.48,93.57,183.56,92.86Z"/><path class="cls-4" d="M191.51,85.7l3.45.38-.47,4.22L191,89.92Z"/><path class="cls-7" d="M195.31,101.4l.18-1.53c.22-2,1-2.84,3.26-2.58s2.82,1.19,2.63,2.88-1.34,2.08-2.78,1.92l0,.35c-.11,1,.57,1.67,2.25,1.86s2.66-.32,2.78-1.42l.6-5.29c.2-1.8-.73-2.75-3-3a5.76,5.76,0,0,0-4,.93l-1.2-2a9,9,0,0,1,5.88-1.17c4.6.52,6,2.65,5.71,5.64l-.58,5.14c-.2,1.79-1.8,4.07-6.51,3.54S195,103.81,195.31,101.4Zm4.25-1.41c.09-.77-.11-1-.91-1.11s-1.05.11-1.13.88.12,1,.91,1.06S199.48,100.71,199.56,100Z"/><path class="cls-6" d="M210,98l-1.7-5.75c-.64-2.14,1.66-4,1.15-5.75-.23-.76-.72-1-1.6-.74s-1.21.82-1,1.6l.21.72-2.85.84-.22-.74c-.61-2.05,1.05-3.69,3.31-4.36,2.83-.84,4.37,0,4.92,1.86.61,2.07-1.59,4-1.06,5.83l1.18,4a1.86,1.86,0,0,1,2.57,1.38c.41,1.39.09,2.27-1.79,2.82S210.48,99.64,210,98Zm3.42-.71c-.18-.59-.42-.73-1.08-.53s-.79.44-.61,1,.43.77,1.09.57S213.6,97.89,213.41,97.26Z"/><path class="cls-4" d="M217.17,90.05a1.88,1.88,0,0,1-2.59-1.37c-.42-1.4-.1-2.27,1.78-2.83s2.67,0,3.17,1.69l1.53,5.18,1.17-3.82a1.67,1.67,0,0,1,.39-.71c-.69-.07-1.2-.48-1.48-1.43-.41-1.39-.15-2.28,1.74-2.83s2.56-.19,3,1.42a1.71,1.71,0,0,1-.5,2c.56.11.93.53,1.17,1.31l1.8,6.12-2.85.84-1.44-4.86c-.07-.24-.14-.31-.26-.27s-.18.17-.28.47l-1.68,5.74-2.52.75Zm.61-2.29c-.19-.64-.44-.77-1.09-.58s-.79.44-.61,1.08.43.72,1.08.53S218,88.35,217.78,87.76Zm6.59-2c-.18-.64-.45-.77-1.11-.57s-.79.44-.6,1.07.42.73,1.08.53S224.55,86.4,224.37,85.81Z"/><path class="cls-2" d="M218.84,82.57c.57-.17.92-.32.95-.7-1.14.45-1.87.07-2.18-1-.35-1.2.13-1.83,1.5-2.23s2.09-.09,2.46,1.13a2.4,2.4,0,0,1,0,1.69c1.24-.55,1.42-1.34,1-2.78l-.11-.38,2.12-.63.13.45a3.79,3.79,0,0,1-2.67,5l-2.77.82Zm1.47-2.49c-.15-.53-.39-.62-.91-.46s-.68.36-.52.89.34.63.92.46S220.46,80.59,220.31,80.08Z"/><path class="cls-5" d="M223.13,117.69s-6.79-7.12-5-16.87"/><path class="cls-5" d="M227.87,109.9s7.38.21,12.41-3.46"/></svg>