<svg id="Layer_1" data-name="Layer 1" xmlns="http://www.w3.org/2000/svg" xmlns:xlink="http://www.w3.org/1999/xlink" viewBox="0 0 1920 5614"><defs><style>.cls-1{fill:none;}.cls-2{clip-path:url(#clip-path);}.cls-3{fill:#77a275;}.cls-4{fill:#add483;}.cls-5{fill:#275e85;}</style><clipPath id="clip-path"><rect class="cls-1" x="0.02" y="2137.22" width="342.66" height="1095.37"/></clipPath></defs><title>17</title><g class="cls-2"><path class="cls-3" d="M163,2192.71s21.16,2.43,24.66-9.17,35.93-38.53,67-4.3,44.29,159.73,51.77,175.25,65.56,56.86,17.24,152.63-34.64,82.68-14.58,113-1.71,94.46,18.34,124.76-2.5,89-90.63,90.91-13.18,51.81-16.18,102.13-98.92,70-124.86,35-24.65,9.17-37.23-5.61-25.14-29.55-18.95-58.17-33.43-50.5-37.42-77.62,1.41-61.16-13.56-92.21,19.07-47.14,20.17-75-46-65.27-30.92-139.53,60.1-86.42,32.06-171,49.12-90.35,69-132.06S140.26,2179.43,163,2192.71Z"/><path class="cls-4" d="M-10.54,2922s-7.3,56.49-45.82,6.74-66.66-29-77.94.38-41.82,33.86-58.39-8-30.23-28.8-40.11-60.6-38-11-39-88.47-52.08-142-59.56-157.49-32-111.66-3.87-132.43,52-35.35,51.51-74.07,54.39-19.08,56.29-41.53-6.08-76.69,35.44-77.25,48-62.48,80.34,15.89,40,165.91,67.84,178.44,18.16,52.75,30.43,100.82,46.3,32,39.81,93.89-28.76,87.35-9.8,145.52S-7.85,2905-10.54,2922Z"/><path class="cls-5" d="M-44.56,3168.07S-57.21,2976-96.22,2887.51s-40.19-237.92-32.9-294.41,48.93-162.36,48.93-162.36C-173.52,2538.67-144,2739.37-144,2739.37c-17.36-47.32-88.27-352.76-88.27-352.76-.61,66.59,97.54,451.15,97.54,451.15C-185,2778.65-306.85,2480.7-306.85,2480.7c3.68,60.41,123.41,308.8,161.93,358.55s46.5,104,65.15,195.46,13.44,197.52-26.79,242.23-79.77,200.14-82.77,250.46,33.68,69.86,58.33,60.69,10.29-106.8,29.17-226,159.62-223,209.72-235.88,77.57-144.41,72.48-143.66-19.56,8.42-19.56,8.42-15.88,68.84-33,93.53-105.6,59.86-105.6,59.86c38.33-22.26,37.45-205,42.05-244.47s132.46-124.77,184-198.85,35.74-110.54,21-69.58S84.38,2824.93,84.38,2824.93s-8.28-20.95,6-100.63,111.91-193.79,163.42-267.86,36.05-143.84,36.05-143.84-78.42,191.63-161.27,264.77c0,0,36.85-138.41,27.27-203.51s-24.23-129.43-23.93-162.72c0,0-27-7.11-6.8,95.2s-6.72,272.53-25.49,286.37-79.46,166.85-71.3,293.11S-6.54,3179.11-44.56,3168.07Z"/></g></svg>