<svg id="Layer_1" data-name="Layer 1" xmlns="http://www.w3.org/2000/svg" xmlns:xlink="http://www.w3.org/1999/xlink" viewBox="0 0 1920 5614"><defs><style>.cls-1{fill:none;}.cls-2{clip-path:url(#clip-path);}.cls-3{fill:#bf7c40;}.cls-4{fill:#a16c44;}.cls-5{fill:#b5be6e;}.cls-6{fill:#36684d;}.cls-7{fill:#b9bc6e;}.cls-8{fill:#e2dd8a;}.cls-9{fill:#5a9055;}.cls-10{fill:#618257;}.cls-11{fill:#ebe261;}.cls-12{fill:#f7f0b1;}.cls-13{fill:#bcd38c;}.cls-14{fill:#ddda91;}.cls-15{fill:#77a275;}.cls-16{fill:#add483;}.cls-17{fill:#3b9a7f;}.cls-18{fill:#275e85;}</style><clipPath id="clip-path"><rect class="cls-1" x="1504.07" y="1844.79" width="415.93" height="1535.94"/></clipPath></defs><title>18</title><g class="cls-2"><path class="cls-3" d="M2215.46,3060.21c-24.87-13.5-49.83-27.05-76.28-37.13-53.43-20.38-111.84-26.23-164.07-49.54-19.62-8.76-38.1-19.88-57.42-29.29-91.85-44.74-202.81-48.39-297.4-9.77-8.3,3.39-17.34,7.15-25.93,4.58-5.32-1.59-9.65-5.42-14.69-7.74-17.64-8.14-39.21,5.06-47.07,22.82s-5.76,38.15-3.24,57.41c3.59,27.46,8.63,56.81,28,76.62,12.76,13.08,30.93,21,40.34,36.66,7.64,12.74,8.09,28.34,10.57,43s8.54,30.51,22.09,36.63c6.71,3,14.29,3.19,21.62,3.92,18.62,1.84,36.61,7.6,54.3,13.67,63.25,21.69,125.33,48,181.38,84.44,41.33,26.88,79.68,59.42,125.45,77.76,55.23,22.14,123.66,19.67,168.51-19.43,11.34-9.89,21.22-22.52,23.66-37.37,2.77-16.9-4.14-35.68,4.24-50.62,9.72-17.32,33.26-19,52.52-23.82,35.1-8.85,113-64.78,99.79-109-6.72-22.42-37.2-27.45-55.42-35.49C2275.13,3094.74,2245.47,3076.5,2215.46,3060.21Z"/><path class="cls-4" d="M1644.66,3018.79l521.49,148.44c11.2,3.19,25.16,5.65,32.88-3.08,3.58-4.06,4.79-9.63,5.87-14.94q7.32-35.91,14.63-71.82c1.45-7.12,2.62-15.43-2.2-20.87-3.12-3.54-8-4.86-12.55-6l-387.23-97.79c-56.29-14.22-112.14-30-168.3-44.54-31.31-8.12-71.5-19.59-86.12,18.15C1542.16,2980.47,1605.87,3005.86,1644.66,3018.79Z"/><path class="cls-5" d="M1856.52,2985.89s-10-7.84-16.72-4.69-18.18,7.11-12.28,22-1.84,18.84,16.86,25.95,28.22,24.23,31.36,3.56-19.22-46.85-19.22-46.85"/><path class="cls-6" d="M1934.5,2988.63c.24-.06,10.52-8,16.72-4.69,6.56,3.47,18.18,7.11,12.28,22s1.84,18.85-16.86,25.95-28.22,24.24-31.37,3.56,19.23-46.84,19.23-46.84"/><path class="cls-7" d="M1861,2980.75q13.68-1.47,27.55-1.84a14.11,14.11,0,0,1,7.56-.25A30,30,0,0,1,1904,2982c9.59,5.25,19.48,11.22,23.55,18.66a29.25,29.25,0,0,0,4.51,1.67c3.06-4.27,3-13.78-.3-17.45a17.57,17.57,0,0,0-4.76-3.21q-8.77-4.63-17.51-9.28h0l-7.43-3.95c-3.08-1.64-6.39-3.33-10.33-3.58-6-.39-11.2,2.68-14.67,5.85-2.87,2.62-10.54,7.34-16.07,10"/><path class="cls-8" d="M1876.05,3017.54a19.17,19.17,0,0,0,4.11,1,5.12,5.12,0,0,0,1,0,2.61,2.61,0,0,0,.5-.11,20.51,20.51,0,0,0,4.81-2.45q5.31-3.33,10.6-6.68a15.83,15.83,0,0,1,3.48-1.79c2.62-.89,5.86-.74,8.49-1.63a24.24,24.24,0,0,1,3.45-1.21,5.38,5.38,0,0,1,.66-.08,6.37,6.37,0,0,1,1.07,0,8.85,8.85,0,0,1,3.62,1.11h0a1.93,1.93,0,0,1,1.62.45c-.15-2.22-2.25-4.34-5-5.72-3.24-1.59-7.28-2.35-11.28-2.89a47.78,47.78,0,0,0-10.41-.45,22.87,22.87,0,0,0-3,.44c-6.82,1.48-11.22,6.17-11.4,10.8-.13,3.18,1.23,6.8-2,9.22l-.44,0"/><path class="cls-8" d="M1881.26,3018.5a3,3,0,0,0,.56-.1,20,20,0,0,0,4.81-2.46q5.31-3.33,10.6-6.68a15.83,15.83,0,0,1,3.48-1.79c2.62-.89,5.86-.73,8.49-1.62a21.75,21.75,0,0,1,3.46-1.21l.59-.09a5.47,5.47,0,0,0-.66.09,22.47,22.47,0,0,0-3.46,1.21c-2.62.89-5.86.73-8.49,1.62a15.76,15.76,0,0,0-3.47,1.79q-5.3,3.36-10.61,6.68a19.89,19.89,0,0,1-4.8,2.46,3.69,3.69,0,0,1-.5.1"/><path class="cls-5" d="M1860.92,3030c.85,3.12,5.92,5,10.75,5.62s9.88.36,14.57,1.3,8.91,3.15,13.77,4c6.65,1.1,13.22-.5,19.26-2.88,2.79-1.08,5.46-2.34,8-3.58,6.35-3.13,13.47-7.41,11.88-12.48-1.14-3.67-8.52-7.66-11.07-11.48a16.76,16.76,0,0,1-4.6,4c.29,3.78-1.53,7.77-6,10.19a27.64,27.64,0,0,1-6.12,2.18,47.67,47.67,0,0,1-19.76,1c-5.75-1.06-15-6.06-18.37-10.07a56,56,0,0,1-8.49-.32c.86,1.59.37,3.63-.66,5.27-1.49,2.39-3.81,4.82-3.12,7.37"/><path class="cls-9" d="M1919.27,3038c.67.24,1.37.46,2.06.68a40.91,40.91,0,0,0,11.65,2.12,26.37,26.37,0,0,0,10.41-2h0c4.34-1.79,7.62-4.64,8.61-7.92.84-2.74.24-5.74,2.28-8.2,1.07-1.28,2.75-2.3,4-3.53,3.52-3.51,2.69-8.08,1.73-12.21a5.37,5.37,0,0,0-1.14-2.59,5.57,5.57,0,0,0-2.35-1.43,17.62,17.62,0,0,0-7.11-.52c-3.46.4-6.86,1.34-10.37,1.19a31.64,31.64,0,0,1-7-1.25,29.76,29.76,0,0,1-4.52-1.67,15.05,15.05,0,0,1,1.67,4.58,6.38,6.38,0,0,1-1.17,5.17c2.55,3.82,9.93,7.81,11.07,11.48,1.59,5.07-5.53,9.35-11.89,12.48-2.51,1.24-5.19,2.5-8,3.58"/><path class="cls-10" d="M1844.69,3033.51h0a10.71,10.71,0,0,0,5.31,7.67c2.84,1.81,6.48,3,10,4.11l17.36,5.51c7.59,2.43,17.19,4.75,24,1.46a12.88,12.88,0,0,0,3.43-2.44,70.65,70.65,0,0,0,4.45-5.55c2-2.42,7.48-5.25,12.07-5.63-.69-.22-1.4-.44-2.07-.68-6,2.38-12.61,4-19.25,2.88-4.87-.81-9-3-13.78-4s-9.75-.7-14.58-1.3-9.89-2.5-10.74-5.62c-.69-2.55,1.63-5,3.12-7.37,1-1.64,1.52-3.68.66-5.27a10.63,10.63,0,0,1-4.84-1.56,20.78,20.78,0,0,1-2.34-2.46,12.94,12.94,0,0,0-1-.93c-.32,1.7-.54,4.38-.7,5.19-.68,3.44-5.61,5.75-8.46,8.68a8.84,8.84,0,0,0-2.66,7.27"/><path class="cls-6" d="M1904.82,3049.82c2.21.42,5.09.9,6.79,1.24,1.48.29,3,.58,4.49.73,6.28.56,12.33-1.51,17.87-3.52a18.07,18.07,0,0,0,3.94-1.8,9.8,9.8,0,0,0,2.81-3.31c.89-1.45,1.79-2.91,2.67-4.36a26.37,26.37,0,0,1-10.41,2,40.91,40.91,0,0,1-11.65-2.12c-4.58.38-10,3.21-12.06,5.64-1.52,1.82-2.72,3.83-4.45,5.54"/><path class="cls-11" d="M1872.21,2994a46,46,0,0,1,20.6,3.1,47.17,47.17,0,0,1,10.41.46c4,.54,8,1.29,11.28,2.89,2.77,1.37,4.86,3.49,5,5.72.08.06.14.13.21.19a14.24,14.24,0,0,1,3.68,7.46c0,.2,0,.41.07.62a17.07,17.07,0,0,0,4.59-4,6.37,6.37,0,0,0,1.17-5.17,15.05,15.05,0,0,0-1.67-4.58c-4.06-7.44-13.94-13.41-23.54-18.66a30,30,0,0,0-7.93-3.35,14.11,14.11,0,0,0-7.56.25,6.12,6.12,0,0,0-1.39.65c-2.28,1.42-2.63,3.65-3.86,5.53-1.91,2.95-6.7,6.46-11.07,8.86"/><path class="cls-9" d="M1841.1,3012.38c1.54,1.8,3.85,3.26,5.79,4.91h0a14.55,14.55,0,0,1,1.28,1.18,26.12,26.12,0,0,0,3,3.11c1.3,1,3.53,1.62,6.12,2a71.3,71.3,0,0,0,10.74.4c1.31,0,2.53-.07,3.6-.13l.57,0c4-3.07,2.31-7.65,2.47-11.67.23-5.86,5.8-11.79,14.43-13.66a31.7,31.7,0,0,1,3.75-.56c-7.32-3-17.67-4.87-26.06-3.93a26.11,26.11,0,0,0-6.58,1.55c-3.33,1.31-6.45,3.11-10.32,3.37a35.79,35.79,0,0,0-3.75.21,8.11,8.11,0,0,0-3.81,1.93c-3.7,3.2-4.17,7.82-1.19,11.32"/><path class="cls-12" d="M1919.72,3006.31h0c-.59-1.39-2.76-2.26-5-2l-1.51.2a5.47,5.47,0,0,0-.66.09,22.47,22.47,0,0,0-3.46,1.21c-2.62.89-5.86.73-8.49,1.62a15.76,15.76,0,0,0-3.47,1.79q-5.3,3.36-10.61,6.68a19.89,19.89,0,0,1-4.8,2.46,3.69,3.69,0,0,1-.5.1,5.12,5.12,0,0,1-1,0,18.72,18.72,0,0,1-4.18-1c-.85,0-1.81.08-2.85.1,3.35,4,12.62,9,18.37,10.07a47.72,47.72,0,0,0,19.77-1,27.66,27.66,0,0,0,6.12-2.19c4.48-2.41,6.31-6.4,6-10.18,0-.2,0-.41-.07-.61a14.14,14.14,0,0,0-3.68-7.46Z"/><path class="cls-13" d="M1918.8,2968.81s-5-12.26-12.27-12.26-15,1.58-20.54-2.83-15.3,2.52-13.41,15.09,49.67,15.41,46.22,0"/><path class="cls-14" d="M1916.47,2985.68s-.52-21.31-19.14-17.81c-13,2.46-15.9-4.72-23.64-4.4s-16.23,11.19-12.14,24.46,14.15,30.24,30.18,25.53,27.88-18.35,24.74-27.78"/><path class="cls-15" d="M1882.39,3017.23s-11.63,2.27-22.64-9.24-8.33-21-5-32c2.1-6.95,6.37-11.26,12-11.26s8.18,11.63,12.9,11.63,14.61-2.17,12.57,11.57,1.49,27.73-9.83,29.3"/><path class="cls-5" d="M1926.12,3014.38s11.24.07,15.09-10.83c4.94-13.94-4.31-22.7-4.71-32.28s-16.16-13.69-20.55-6.9-10.87-.53-13.35,10.49c-1.23,5.45-10,4-7.22,16.76s30.74,22.76,30.74,22.76"/><path class="cls-13" d="M1902,3032.29s25,2.48,30.7-18.44-8.75-14.46-10.27-22.06-11-10.28-16.36-6.47-8.75-1.9-16.36.38-5.33,16-10.65,16-8.75-.38-7.61,10.65,12,17.1,30.55,20"/><path class="cls-5" d="M1640.45,2930.64s-10-7.85-16.72-4.69-18.18,7.11-12.28,22-1.84,18.85,16.86,26,28.22,24.23,31.36,3.56-19.22-46.84-19.22-46.84"/><path class="cls-6" d="M1718.43,2933.38c.24-.06,10.52-8,16.72-4.7,6.56,3.48,18.18,7.11,12.28,22s1.84,18.85-16.86,25.95-28.22,24.23-31.37,3.56,19.23-46.84,19.23-46.84"/><path class="cls-7" d="M1644.91,2925.49q13.68-1.47,27.55-1.84a14.31,14.31,0,0,1,7.56-.25,30,30,0,0,1,7.93,3.36c9.59,5.24,19.48,11.21,23.54,18.65a30.88,30.88,0,0,0,4.52,1.68c3.06-4.28,3-13.78-.3-17.46a17.78,17.78,0,0,0-4.76-3.2l-17.51-9.28s0,0,0,0l-7.43-4c-3.08-1.63-6.39-3.33-10.33-3.58-6-.38-11.2,2.68-14.67,5.86-2.87,2.62-10.54,7.33-16.07,10"/><path class="cls-8" d="M1660,2962.29a18.56,18.56,0,0,0,4.11,1,5.12,5.12,0,0,0,1,0,3.69,3.69,0,0,0,.5-.1,20.51,20.51,0,0,0,4.81-2.45c3.54-2.23,7.07-4.45,10.6-6.69a16.28,16.28,0,0,1,3.48-1.79c2.62-.89,5.86-.73,8.49-1.62a24.24,24.24,0,0,1,3.45-1.21,5.38,5.38,0,0,1,.66-.08,4.78,4.78,0,0,1,1.07,0,8.84,8.84,0,0,1,3.62,1.1h0a2,2,0,0,1,1.62.46c-.15-2.23-2.25-4.35-5-5.72-3.23-1.6-7.27-2.35-11.27-2.89a47.17,47.17,0,0,0-10.41-.46,24.75,24.75,0,0,0-3,.45c-6.82,1.48-11.22,6.16-11.4,10.8-.13,3.18,1.23,6.8-2,9.22l-.44,0"/><path class="cls-8" d="M1665.19,2963.25a4,4,0,0,0,.56-.11,20.51,20.51,0,0,0,4.81-2.45q5.31-3.33,10.6-6.68a15.41,15.41,0,0,1,3.48-1.79c2.62-.89,5.86-.74,8.49-1.63a23.94,23.94,0,0,1,3.46-1.21c.2,0,.4-.06.59-.08a5.38,5.38,0,0,0-.66.08,24.81,24.81,0,0,0-3.46,1.21c-2.62.89-5.86.74-8.49,1.63a15.34,15.34,0,0,0-3.47,1.79l-10.61,6.68a20.24,20.24,0,0,1-4.8,2.45l-.5.11"/><path class="cls-5" d="M1644.85,2974.7c.85,3.13,5.92,5,10.75,5.63s9.88.35,14.57,1.29,8.91,3.16,13.77,4c6.65,1.09,13.22-.5,19.26-2.88,2.78-1.09,5.46-2.35,8-3.58,6.36-3.13,13.48-7.42,11.89-12.49-1.14-3.66-8.52-7.65-11.07-11.47a17.1,17.1,0,0,1-4.6,4c.29,3.78-1.53,7.77-6,10.18a27.15,27.15,0,0,1-6.12,2.18,47.5,47.5,0,0,1-19.76,1c-5.75-1.07-15-6.07-18.37-10.07a57.3,57.3,0,0,1-8.49-.32c.86,1.58.37,3.63-.66,5.27-1.49,2.38-3.81,4.82-3.12,7.36"/><path class="cls-9" d="M1703.2,2982.71c.67.24,1.37.46,2.06.67a40.91,40.91,0,0,0,11.65,2.12,26.37,26.37,0,0,0,10.41-1.95h0c4.34-1.79,7.62-4.65,8.61-7.93.84-2.74.24-5.73,2.28-8.19,1.07-1.28,2.75-2.31,4-3.53,3.52-3.52,2.69-8.08,1.73-12.22a5.41,5.41,0,0,0-1.14-2.59,5.55,5.55,0,0,0-2.35-1.42,17.27,17.27,0,0,0-7.11-.52c-3.46.39-6.86,1.33-10.37,1.19a31.64,31.64,0,0,1-7-1.25,30.88,30.88,0,0,1-4.52-1.68,15.05,15.05,0,0,1,1.67,4.58,6.4,6.4,0,0,1-1.17,5.18c2.55,3.81,9.93,7.81,11.07,11.47,1.59,5.07-5.53,9.36-11.89,12.49-2.51,1.23-5.19,2.49-8,3.58"/><path class="cls-10" d="M1628.62,2978.25h0c.32,2.87,2.13,5.66,5.31,7.68,2.84,1.81,6.48,3,10,4.11l17.36,5.51c7.59,2.42,17.19,4.75,24,1.46a12.88,12.88,0,0,0,3.43-2.44c1.73-1.71,2.93-3.73,4.45-5.55,2-2.42,7.48-5.25,12.06-5.64-.68-.21-1.39-.43-2.06-.67-6,2.38-12.61,4-19.26,2.88-4.86-.81-9-3-13.77-4s-9.76-.69-14.58-1.29-9.89-2.5-10.74-5.63c-.69-2.54,1.63-5,3.12-7.36,1-1.64,1.52-3.69.66-5.27a10.75,10.75,0,0,1-4.84-1.56,22.44,22.44,0,0,1-2.34-2.46,11.34,11.34,0,0,0-1-.94c-.32,1.71-.54,4.39-.7,5.2-.68,3.43-5.61,5.75-8.46,8.68a8.83,8.83,0,0,0-2.66,7.26"/><path class="cls-6" d="M1688.75,2994.57c2.21.41,5.09.9,6.79,1.24a44.21,44.21,0,0,0,4.49.72c6.28.56,12.33-1.51,17.87-3.51a18.07,18.07,0,0,0,3.94-1.8,10,10,0,0,0,2.81-3.32c.89-1.44,1.79-2.9,2.67-4.35a26.37,26.37,0,0,1-10.41,1.95,40.91,40.91,0,0,1-11.65-2.12c-4.58.39-10,3.22-12.06,5.64-1.52,1.82-2.72,3.84-4.45,5.55"/><path class="cls-11" d="M1656.14,2938.7a45.77,45.77,0,0,1,20.6,3.1,47.17,47.17,0,0,1,10.41.46c4,.53,8,1.29,11.28,2.88,2.77,1.38,4.86,3.5,5,5.72l.21.2a14.21,14.21,0,0,1,3.68,7.46,6,6,0,0,1,.06.61,17.1,17.1,0,0,0,4.6-4,6.38,6.38,0,0,0,1.17-5.17,15,15,0,0,0-1.67-4.59c-4.06-7.44-14-13.41-23.54-18.65a30,30,0,0,0-7.93-3.36,14.31,14.31,0,0,0-7.56.25,7.11,7.11,0,0,0-1.39.65c-2.28,1.42-2.63,3.66-3.86,5.54-1.91,2.95-6.7,6.46-11.07,8.86"/><path class="cls-9" d="M1625,2957.12c1.54,1.81,3.85,3.26,5.79,4.91v0a16,16,0,0,1,1.28,1.17,25.46,25.46,0,0,0,3,3.12,13.54,13.54,0,0,0,6.12,2,71.31,71.31,0,0,0,10.74.41c1.31,0,2.53-.08,3.6-.13.21,0,.39,0,.57,0,4-3.06,2.31-7.64,2.47-11.66.23-5.86,5.8-11.79,14.43-13.66a27.8,27.8,0,0,1,3.75-.56c-7.32-3-17.67-4.88-26.06-3.93a26.29,26.29,0,0,0-6.59,1.54c-3.32,1.31-6.44,3.12-10.31,3.38a35.64,35.64,0,0,0-3.75.21,8.09,8.09,0,0,0-3.81,1.92c-3.7,3.21-4.17,7.83-1.19,11.32"/><path class="cls-12" d="M1703.65,2951.06h0c-.59-1.4-2.76-2.26-5-2l-1.51.21a5.38,5.38,0,0,0-.66.08,24.81,24.81,0,0,0-3.46,1.21c-2.63.89-5.86.74-8.49,1.63a15.34,15.34,0,0,0-3.47,1.79l-10.61,6.68a20.24,20.24,0,0,1-4.8,2.45l-.5.11a5.12,5.12,0,0,1-1,0,18.75,18.75,0,0,1-4.18-1c-.85,0-1.81.09-2.85.11,3.35,4,12.62,9,18.37,10.07a47.89,47.89,0,0,0,19.77-1,27.83,27.83,0,0,0,6.12-2.18c4.48-2.41,6.31-6.41,6-10.18a5.68,5.68,0,0,0-.07-.61,14.1,14.1,0,0,0-3.68-7.46Z"/><path class="cls-13" d="M1702.73,2913.56s-5-12.26-12.27-12.26-15,1.57-20.54-2.83-15.3,2.52-13.41,15.09,49.67,15.41,46.22,0"/><path class="cls-14" d="M1700.4,2930.42s-.52-21.31-19.14-17.8c-13,2.45-15.9-4.72-23.64-4.4s-16.23,11.19-12.14,24.46,14.15,30.24,30.18,25.52,27.88-18.34,24.74-27.78"/><path class="cls-15" d="M1666.32,2962s-11.63,2.27-22.64-9.24-8.33-21-5-32c2.1-6.95,6.37-11.27,12-11.27s8.18,11.64,12.89,11.64,14.62-2.18,12.58,11.57,1.49,27.73-9.83,29.3"/><path class="cls-5" d="M1710.05,2959.12s11.24.08,15.09-10.82c4.93-13.94-4.31-22.71-4.71-32.29s-16.16-13.68-20.55-6.9-10.87-.52-13.35,10.49c-1.23,5.46-10,4-7.22,16.77s30.74,22.75,30.74,22.75"/><path class="cls-13" d="M1685.9,2977s25,2.48,30.7-18.45-8.75-14.45-10.27-22.06-11-10.27-16.36-6.47-8.75-1.9-16.36.38-5.33,16-10.65,16-8.75-.38-7.61,10.65,12,17.11,30.55,20"/><path class="cls-4" d="M1644.66,3228.37l521.49,148.44c11.2,3.19,25.16,5.65,32.88-3.08,3.58-4.06,4.79-9.63,5.87-14.93q7.32-35.91,14.63-71.82c1.45-7.13,2.62-15.43-2.2-20.88-3.12-3.54-8-4.86-12.55-6l-387.23-97.79c-56.29-14.22-112.14-30-168.3-44.53-31.31-8.13-71.5-19.6-86.12,18.15C1542.16,3190.05,1605.87,3215.44,1644.66,3228.37Z"/><path class="cls-5" d="M1856.52,3195.47s-10-7.84-16.72-4.69-18.18,7.11-12.28,22-1.84,18.84,16.86,26,28.22,24.23,31.36,3.56-19.22-46.85-19.22-46.85"/><path class="cls-6" d="M1934.5,3198.21c.24-.06,10.52-8,16.72-4.69,6.56,3.47,18.18,7.11,12.28,22s1.84,18.84-16.86,25.94-28.22,24.24-31.37,3.57,19.23-46.85,19.23-46.85"/><path class="cls-7" d="M1861,3190.33q13.68-1.47,27.55-1.84a14.11,14.11,0,0,1,7.56-.25,30,30,0,0,1,7.93,3.35c9.59,5.25,19.48,11.22,23.55,18.66a29.25,29.25,0,0,0,4.51,1.67c3.06-4.27,3-13.78-.3-17.45a17.8,17.8,0,0,0-4.76-3.21q-8.77-4.64-17.51-9.28h0l-7.43-3.95c-3.08-1.64-6.39-3.33-10.33-3.58-6-.38-11.2,2.68-14.67,5.86-2.87,2.61-10.54,7.33-16.07,10"/><path class="cls-8" d="M1876.05,3227.13a19.14,19.14,0,0,0,4.11,1,5.12,5.12,0,0,0,1,0,2.61,2.61,0,0,0,.5-.11,20.13,20.13,0,0,0,4.81-2.45q5.31-3.33,10.6-6.68a15.83,15.83,0,0,1,3.48-1.79c2.62-.89,5.86-.74,8.49-1.62a23.09,23.09,0,0,1,3.45-1.22,5.38,5.38,0,0,1,.66-.08,6.37,6.37,0,0,1,1.07,0,8.85,8.85,0,0,1,3.62,1.11h0a1.93,1.93,0,0,1,1.62.45c-.15-2.22-2.25-4.34-5-5.72-3.24-1.59-7.28-2.35-11.28-2.89a47.78,47.78,0,0,0-10.41-.45,22.89,22.89,0,0,0-3,.45c-6.82,1.47-11.22,6.16-11.4,10.8-.13,3.17,1.23,6.79-2,9.21-.14,0-.28,0-.44,0"/><path class="cls-8" d="M1881.26,3228.08a3,3,0,0,0,.56-.1,20.31,20.31,0,0,0,4.81-2.45c3.54-2.23,7.08-4.45,10.6-6.69a16.28,16.28,0,0,1,3.48-1.79c2.62-.89,5.86-.73,8.49-1.62a23.94,23.94,0,0,1,3.46-1.21l.59-.09-.66.09a24.81,24.81,0,0,0-3.46,1.21c-2.62.89-5.86.73-8.49,1.62a16.2,16.2,0,0,0-3.47,1.79c-3.53,2.24-7.07,4.46-10.61,6.69a20.24,20.24,0,0,1-4.8,2.45,3.69,3.69,0,0,1-.5.1"/><path class="cls-5" d="M1860.92,3239.54c.85,3.12,5.92,5,10.75,5.63s9.88.35,14.57,1.29,8.91,3.16,13.77,4c6.65,1.1,13.22-.49,19.26-2.88,2.79-1.08,5.46-2.34,8-3.57,6.35-3.14,13.47-7.42,11.88-12.49-1.14-3.66-8.52-7.66-11.07-11.48a17,17,0,0,1-4.6,4c.29,3.77-1.53,7.77-6,10.18a27.64,27.64,0,0,1-6.12,2.18,47.67,47.67,0,0,1-19.76,1c-5.75-1.06-15-6.06-18.37-10.06a57.3,57.3,0,0,1-8.49-.32c.86,1.58.37,3.63-.66,5.26-1.49,2.39-3.81,4.82-3.12,7.37"/><path class="cls-9" d="M1919.27,3247.55c.67.23,1.37.45,2.06.67a40.91,40.91,0,0,0,11.65,2.12,26.37,26.37,0,0,0,10.41-2h0c4.34-1.79,7.62-4.64,8.61-7.92.84-2.74.24-5.73,2.28-8.2,1.07-1.28,2.75-2.3,4-3.52,3.52-3.52,2.69-8.08,1.73-12.22a5.41,5.41,0,0,0-1.14-2.59,5.57,5.57,0,0,0-2.35-1.43,17.45,17.45,0,0,0-7.11-.51c-3.46.39-6.86,1.33-10.37,1.19a31.71,31.71,0,0,1-7-1.26,29.76,29.76,0,0,1-4.52-1.67,15.05,15.05,0,0,1,1.67,4.58,6.37,6.37,0,0,1-1.17,5.17c2.55,3.82,9.93,7.82,11.07,11.48,1.59,5.07-5.53,9.35-11.89,12.49-2.51,1.23-5.19,2.49-8,3.58"/><path class="cls-10" d="M1844.69,3243.09h0a10.71,10.71,0,0,0,5.31,7.67c2.84,1.81,6.48,3,10,4.11l17.36,5.52c7.59,2.42,17.19,4.75,24,1.46a13.13,13.13,0,0,0,3.43-2.45,70.51,70.51,0,0,0,4.45-5.54c2-2.42,7.48-5.26,12.07-5.64-.69-.22-1.4-.44-2.07-.68-6,2.39-12.61,4-19.25,2.88-4.87-.8-9-3-13.78-4s-9.75-.69-14.58-1.29-9.89-2.51-10.74-5.63c-.69-2.55,1.63-5,3.12-7.37,1-1.63,1.52-3.68.66-5.26a10.62,10.62,0,0,1-4.84-1.57,20.78,20.78,0,0,1-2.34-2.46,12.94,12.94,0,0,0-1-.93c-.32,1.71-.54,4.39-.7,5.19-.68,3.44-5.61,5.76-8.46,8.68a8.84,8.84,0,0,0-2.66,7.27"/><path class="cls-6" d="M1904.82,3259.4c2.21.42,5.09.9,6.79,1.24,1.48.29,3,.58,4.49.73,6.28.56,12.33-1.51,17.87-3.52a17.61,17.61,0,0,0,3.94-1.8,9.8,9.8,0,0,0,2.81-3.31c.89-1.45,1.79-2.91,2.67-4.36a26.37,26.37,0,0,1-10.41,2,40.91,40.91,0,0,1-11.65-2.12c-4.58.38-10,3.22-12.06,5.64a70.51,70.51,0,0,1-4.45,5.54"/><path class="cls-11" d="M1872.21,3203.53a45.91,45.91,0,0,1,20.6,3.11,47.78,47.78,0,0,1,10.41.45c4,.54,8,1.3,11.28,2.89,2.77,1.37,4.86,3.5,5,5.72a2,2,0,0,1,.21.2,14.17,14.17,0,0,1,3.68,7.46c0,.19,0,.4.07.61a17.07,17.07,0,0,0,4.59-4,6.37,6.37,0,0,0,1.17-5.17,15.05,15.05,0,0,0-1.67-4.58c-4.06-7.44-13.94-13.41-23.54-18.66a30,30,0,0,0-7.93-3.35,14.11,14.11,0,0,0-7.56.25,6.12,6.12,0,0,0-1.39.65c-2.28,1.42-2.63,3.65-3.86,5.54-1.91,2.94-6.7,6.45-11.07,8.85"/><path class="cls-9" d="M1841.1,3222c1.54,1.81,3.85,3.26,5.79,4.91h0a14.55,14.55,0,0,1,1.28,1.18,26.12,26.12,0,0,0,3,3.11c1.3,1,3.53,1.63,6.12,2a71.31,71.31,0,0,0,10.74.41c1.31,0,2.53-.08,3.6-.13l.57,0c4-3.06,2.31-7.65,2.47-11.66.23-5.87,5.8-11.8,14.43-13.67a31.7,31.7,0,0,1,3.75-.56c-7.32-3-17.67-4.87-26.06-3.93a26.54,26.54,0,0,0-6.58,1.55c-3.33,1.31-6.45,3.11-10.32,3.38a33.27,33.27,0,0,0-3.75.21,8.09,8.09,0,0,0-3.81,1.92c-3.7,3.2-4.17,7.83-1.19,11.32"/><path class="cls-12" d="M1919.72,3215.9h0c-.59-1.4-2.76-2.27-5-2l-1.51.2-.66.09a24.81,24.81,0,0,0-3.46,1.21c-2.62.89-5.86.73-8.49,1.62a16.2,16.2,0,0,0-3.47,1.79c-3.53,2.24-7.07,4.46-10.61,6.69a20.24,20.24,0,0,1-4.8,2.45,3.69,3.69,0,0,1-.5.1,5.12,5.12,0,0,1-1,0,18.72,18.72,0,0,1-4.18-1c-.85,0-1.81.08-2.85.1,3.35,4,12.62,9,18.37,10.07a47.72,47.72,0,0,0,19.77-1,27.64,27.64,0,0,0,6.12-2.18c4.48-2.42,6.31-6.41,6-10.19,0-.2,0-.41-.07-.61a14.17,14.17,0,0,0-3.68-7.46Z"/><path class="cls-13" d="M1918.8,3178.4s-5-12.26-12.27-12.26-15,1.57-20.54-2.83-15.3,2.51-13.41,15.09,49.67,15.4,46.22,0"/><path class="cls-14" d="M1916.47,3195.26s-.52-21.31-19.14-17.81c-13,2.46-15.9-4.71-23.64-4.4s-16.23,11.2-12.14,24.46,14.15,30.25,30.18,25.53,27.88-18.35,24.74-27.78"/><path class="cls-15" d="M1882.39,3226.81s-11.63,2.27-22.64-9.24-8.33-21-5-32c2.1-7,6.37-11.26,12-11.26s8.18,11.63,12.9,11.63,14.61-2.17,12.57,11.57,1.49,27.73-9.83,29.3"/><path class="cls-5" d="M1926.12,3224s11.24.08,15.09-10.83c4.94-13.94-4.31-22.7-4.71-32.28s-16.16-13.69-20.55-6.9-10.87-.53-13.35,10.49c-1.23,5.45-10,4-7.22,16.77s30.74,22.75,30.74,22.75"/><path class="cls-13" d="M1902,3241.88s25,2.47,30.7-18.45-8.75-14.46-10.27-22.06-11-10.27-16.36-6.47-8.75-1.9-16.36.38-5.33,16-10.65,16-8.75-.38-7.61,10.65,12,17.11,30.55,20"/><path class="cls-5" d="M1640.45,3140.22s-10-7.85-16.72-4.69-18.18,7.11-12.28,22-1.84,18.85,16.86,25.95,28.22,24.24,31.36,3.57-19.22-46.85-19.22-46.85"/><path class="cls-6" d="M1718.43,3143c.24-.06,10.52-8,16.72-4.69,6.56,3.47,18.18,7.11,12.28,22s1.84,18.85-16.86,25.95-28.22,24.23-31.37,3.56,19.23-46.84,19.23-46.84"/><path class="cls-7" d="M1644.91,3135.08q13.68-1.48,27.55-1.85a14.21,14.21,0,0,1,7.56-.24,30,30,0,0,1,7.93,3.35c9.59,5.24,19.48,11.21,23.54,18.66a30.87,30.87,0,0,0,4.52,1.67c3.06-4.27,3-13.78-.3-17.45A17.57,17.57,0,0,0,1711,3136l-17.51-9.28h0c-2.47-1.33-5-2.64-7.43-4-3.08-1.63-6.39-3.33-10.33-3.58-6-.38-11.2,2.68-14.67,5.86-2.87,2.62-10.54,7.34-16.07,10"/><path class="cls-8" d="M1660,3171.87a18.56,18.56,0,0,0,4.11,1,4,4,0,0,0,1,0,3.69,3.69,0,0,0,.5-.1,20.51,20.51,0,0,0,4.81-2.45l10.6-6.68a15.86,15.86,0,0,1,3.48-1.8c2.62-.88,5.86-.73,8.49-1.62a24.24,24.24,0,0,1,3.45-1.21,5.38,5.38,0,0,1,.66-.08,6.37,6.37,0,0,1,1.07,0,9,9,0,0,1,3.62,1.1h0a2,2,0,0,1,1.62.46c-.15-2.22-2.25-4.35-5-5.72-3.23-1.6-7.27-2.35-11.27-2.89a47.78,47.78,0,0,0-10.41-.45,22.87,22.87,0,0,0-3,.44c-6.82,1.48-11.22,6.17-11.4,10.8-.13,3.18,1.23,6.8-2,9.22l-.44,0"/><path class="cls-8" d="M1665.19,3172.83a2.32,2.32,0,0,0,.56-.11,20.51,20.51,0,0,0,4.81-2.45q5.31-3.33,10.6-6.68a15.83,15.83,0,0,1,3.48-1.79c2.62-.89,5.86-.74,8.49-1.63a23.94,23.94,0,0,1,3.46-1.21c.2,0,.4-.06.59-.08a5.38,5.38,0,0,0-.66.08,24.81,24.81,0,0,0-3.46,1.21c-2.62.89-5.86.74-8.49,1.63a15.76,15.76,0,0,0-3.47,1.79l-10.61,6.68a20.24,20.24,0,0,1-4.8,2.45,2.61,2.61,0,0,1-.5.11"/><path class="cls-5" d="M1644.85,3184.28c.85,3.13,5.92,5,10.75,5.63s9.88.36,14.57,1.3,8.91,3.15,13.77,4c6.65,1.1,13.22-.5,19.26-2.88,2.78-1.08,5.46-2.35,8-3.58,6.36-3.13,13.48-7.41,11.89-12.49-1.14-3.66-8.52-7.65-11.07-11.47a16.93,16.93,0,0,1-4.6,4c.29,3.78-1.53,7.77-6,10.18a27.16,27.16,0,0,1-6.12,2.19,47.67,47.67,0,0,1-19.76,1c-5.75-1.07-15-6.06-18.37-10.07a56,56,0,0,1-8.49-.32c.86,1.58.37,3.63-.66,5.27-1.49,2.39-3.81,4.82-3.12,7.36"/><path class="cls-9" d="M1703.2,3192.29c.67.24,1.37.46,2.06.68a41.61,41.61,0,0,0,11.65,2.12,26.55,26.55,0,0,0,10.41-2h0c4.34-1.79,7.62-4.64,8.61-7.93.84-2.74.24-5.73,2.28-8.19,1.07-1.28,2.75-2.31,4-3.53,3.52-3.52,2.69-8.08,1.73-12.22a5.33,5.33,0,0,0-1.14-2.58,5.57,5.57,0,0,0-2.35-1.43,17.45,17.45,0,0,0-7.11-.52c-3.46.39-6.86,1.34-10.37,1.19a31.64,31.64,0,0,1-7-1.25,29.78,29.78,0,0,1-4.52-1.68,15,15,0,0,1,1.67,4.59,6.38,6.38,0,0,1-1.17,5.17c2.55,3.82,9.93,7.81,11.07,11.47,1.59,5.07-5.53,9.36-11.89,12.49-2.51,1.23-5.19,2.5-8,3.58"/><path class="cls-10" d="M1628.62,3187.83h0c.32,2.87,2.13,5.66,5.31,7.68,2.84,1.81,6.48,3,10,4.11l17.36,5.51c7.59,2.42,17.19,4.75,24,1.46a12.88,12.88,0,0,0,3.43-2.44c1.73-1.71,2.93-3.73,4.45-5.55,2-2.42,7.48-5.25,12.06-5.64-.68-.21-1.39-.43-2.06-.67-6,2.38-12.61,4-19.26,2.88-4.86-.81-9-3-13.77-4s-9.76-.7-14.58-1.3-9.89-2.5-10.74-5.63c-.69-2.54,1.63-5,3.12-7.36,1-1.64,1.52-3.69.66-5.27a10.63,10.63,0,0,1-4.84-1.56,22.44,22.44,0,0,1-2.34-2.46,12.94,12.94,0,0,0-1-.93c-.32,1.7-.54,4.38-.7,5.19-.68,3.44-5.61,5.75-8.46,8.68a8.83,8.83,0,0,0-2.66,7.26"/><path class="cls-6" d="M1688.75,3204.15c2.21.41,5.09.9,6.79,1.24,1.48.29,3,.58,4.49.73,6.28.55,12.33-1.52,17.87-3.52a18.07,18.07,0,0,0,3.94-1.8,9.85,9.85,0,0,0,2.81-3.32c.89-1.44,1.79-2.9,2.67-4.35a26.55,26.55,0,0,1-10.41,2,41.61,41.61,0,0,1-11.65-2.12c-4.58.38-10,3.21-12.06,5.63-1.52,1.82-2.72,3.84-4.45,5.55"/><path class="cls-11" d="M1656.14,3148.28a45.77,45.77,0,0,1,20.6,3.1,47.17,47.17,0,0,1,10.41.46c4,.54,8,1.29,11.28,2.88,2.77,1.38,4.86,3.5,5,5.73.08.06.14.13.21.19a14.21,14.21,0,0,1,3.68,7.46c0,.2.05.41.06.61a17.1,17.1,0,0,0,4.6-4,6.38,6.38,0,0,0,1.17-5.17,15,15,0,0,0-1.67-4.59c-4.06-7.44-14-13.41-23.54-18.65A30,30,0,0,0,1680,3133a14.11,14.11,0,0,0-7.56.25,6.12,6.12,0,0,0-1.39.65c-2.28,1.41-2.63,3.65-3.86,5.53-1.91,2.95-6.7,6.46-11.07,8.86"/><path class="cls-9" d="M1625,3166.71c1.54,1.8,3.85,3.25,5.79,4.9v0a16.12,16.12,0,0,1,1.28,1.18,26.12,26.12,0,0,0,3,3.11c1.3,1,3.52,1.62,6.12,2a72.64,72.64,0,0,0,10.74.4c1.31,0,2.53-.08,3.6-.13.21,0,.39,0,.57,0,4-3.06,2.31-7.64,2.47-11.66.23-5.86,5.8-11.79,14.43-13.66a27.8,27.8,0,0,1,3.75-.56c-7.32-3-17.67-4.87-26.06-3.93a26.29,26.29,0,0,0-6.59,1.54c-3.32,1.31-6.44,3.12-10.31,3.38a35.64,35.64,0,0,0-3.75.21,8,8,0,0,0-3.81,1.93c-3.7,3.2-4.17,7.82-1.19,11.32"/><path class="cls-12" d="M1703.65,3160.64h0c-.59-1.4-2.76-2.26-5-2l-1.51.2a5.38,5.38,0,0,0-.66.08,24.81,24.81,0,0,0-3.46,1.21c-2.63.89-5.86.74-8.49,1.63a15.76,15.76,0,0,0-3.47,1.79l-10.61,6.68a20.24,20.24,0,0,1-4.8,2.45,2.61,2.61,0,0,1-.5.11,5.12,5.12,0,0,1-1,0,18.21,18.21,0,0,1-4.18-1c-.85,0-1.81.09-2.85.11,3.35,4,12.62,9,18.37,10.07a47.56,47.56,0,0,0,19.77-1,27.32,27.32,0,0,0,6.12-2.18c4.48-2.41,6.31-6.4,6-10.18a6,6,0,0,0-.07-.61,14.14,14.14,0,0,0-3.68-7.46Z"/><path class="cls-13" d="M1702.73,3123.14s-5-12.26-12.27-12.26-15,1.57-20.54-2.83-15.3,2.52-13.41,15.09,49.67,15.41,46.22,0"/><path class="cls-14" d="M1700.4,3140s-.52-21.31-19.14-17.81c-13,2.45-15.9-4.72-23.64-4.4s-16.23,11.19-12.14,24.46,14.15,30.24,30.18,25.53,27.88-18.35,24.74-27.78"/><path class="cls-15" d="M1666.32,3171.56s-11.63,2.27-22.64-9.24-8.33-21-5-32c2.1-7,6.37-11.26,12-11.26s8.18,11.63,12.89,11.63,14.62-2.17,12.58,11.57,1.49,27.73-9.83,29.3"/><path class="cls-5" d="M1710.05,3168.7s11.24.08,15.09-10.82c4.93-13.94-4.31-22.71-4.71-32.29s-16.16-13.68-20.55-6.89-10.87-.53-13.35,10.49c-1.23,5.45-10,4-7.22,16.76s30.74,22.75,30.74,22.75"/><path class="cls-13" d="M1685.9,3186.62s25,2.48,30.7-18.44-8.75-14.46-10.27-22.07-11-10.27-16.36-6.46-8.75-1.91-16.36.38-5.33,16-10.65,16-8.75-.38-7.61,10.66,12,17.1,30.55,20"/><path class="cls-16" d="M1669.61,1919.2s-17.42,2.45-20.55-7-30.47-31.05-55.36-2.15-33.19,132.78-39,145.76-52.91,48.31-11,126.34,30.34,67.51,14.42,92.94,3.41,77.93-12.51,103.36,4,73.44,76.73,73.13,12,42.49,15.51,83.95,83.12,55.66,103.8,26.25,20.54,7,30.6-5.42,20.14-24.92,14.42-48.41,26.53-42.39,29.25-64.86-2.45-50.45,9.24-76.4-16.73-38.5-18.23-61.48,36.59-54.85,22.58-115.83-51.42-70.06-30.07-140.43-42.45-73.54-59.72-107.55S1688.11,1907.76,1669.61,1919.2Z"/><path class="cls-17" d="M1828.25,2517.51s7.21,46.47,38,4.59,54.42-25.33,64.35-1.33,35.23,27.06,48-7.87,24.35-24.41,31.83-50.86,31.15-9.91,30.33-73.85,40-118.28,45.84-131.25,24.08-92.84.4-109.38-43.66-28.09-44.07-60.06-45.3-14.6-47.35-33.09,3.4-63.42-30.88-63-41-50.56-66,14.81-29.51,137.78-52.23,148.71-13.87,43.92-23,83.86-37.55,27.37-30.88,78.34,25.58,71.49,11.16,119.91S1825.66,2503.51,1828.25,2517.51Z"/><path class="cls-18" d="M1861.52,2719.89s6.39-158.82,36.72-232.67,28.15-197.23,20.94-243.7-43.81-133-43.81-133c79.31,87.12,59.19,253.4,59.19,253.4,13.33-39.43,65.42-293,65.42-293,1.9,55-71,374.43-71,374.43,40.27-49.84,134.53-298.35,134.53-298.35-1.77,50-95.35,257.5-126.09,299.37s-36.19,86.82-49.65,162.71-6.93,163.32,27.22,199.37,70.06,163.51,73.6,205-26.32,58.37-46.86,51.33-10.75-87.94-28.85-185.89-136.45-180.67-178.08-190.27-67.07-117.55-62.85-117,16.32,6.53,16.32,6.53,14.56,56.48,29.25,76.5,88.43,47.18,88.43,47.18c-32.11-17.56-35.24-168.42-39.87-200.9s-112-100.19-156-160.24-31.84-90.49-18.77-57,156.58,155.75,156.58,155.75,6.39-17.47-7.08-82.94-96.45-157.59-140.53-217.64-32.79-118-32.79-118,68.77,156.52,138.7,215.15c0,0-33.34-113.48-26.81-167.4s17.27-107.35,16.32-134.82c0,0,22.17-6.44,7.62,78.44s11.3,224.8,27.08,235.83,69.11,136,65,240.42S1830.37,2729.8,1861.52,2719.89Z"/></g></svg>