<svg id="Layer_1" data-name="Layer 1" xmlns="http://www.w3.org/2000/svg" viewBox="0 0 722 856"><defs><style>.cls-1{fill:#d5e5ca;}</style></defs><title>20_2</title><path id="svg_3" data-name="svg 3" class="cls-1" d="M724.26,635.58c-45,14.56-90.53,29.22-137.7,32.53s-96.89-5.85-134.28-34.8c-48.89-37.84-68.46-101.39-102.11-153.25A312.5,312.5,0,0,0,211.74,363.55c-34-14.54-70.4-22.89-104.94-36.2s-68.36-32.66-89.13-63.3S-7.52,189.51,15,160.16c16.91-22,45.51-32.22,73.2-34.17s55.3,3.2,82.9,6.2A540,540,0,0,0,457.47,84.34c42.56-20,82.43-45.57,125.77-63.82S674.66,0,721.69,0Z"/></svg>