<svg id="Layer_1" data-name="Layer 1" xmlns="http://www.w3.org/2000/svg" viewBox="0 0 722 856"><defs><style>.cls-1,.cls-21,.cls-39,.cls-59{fill:none;}.cls-2{fill:#b1bf60;}.cls-3{fill:#df5145;}.cls-4{fill:#467f3a;}.cls-5{fill:#dfdbcf;}.cls-6{fill:#b8bb6e;}.cls-7{fill:#e1dc8a;}.cls-8{fill:#c5d081;}.cls-9{fill:#5a9054;}.cls-10{fill:#618257;}.cls-11{fill:#35674c;}.cls-12{fill:#ebe261;}.cls-13{fill:#d0cf75;}.cls-14{fill:#d5d784;}.cls-15{fill:#9ab870;}.cls-16{fill:#f8f0b1;}.cls-17{fill:#f5d068;}.cls-18{fill:#89be86;}.cls-19{fill:#fcbc03;}.cls-20{fill:#f3d261;}.cls-21,.cls-39{stroke:#000;}.cls-21{stroke-linecap:round;stroke-linejoin:round;stroke-width:0.31px;}.cls-22{fill:#fbcf66;}.cls-23{fill:#e9db82;}.cls-24{fill:#547d41;}.cls-25{fill:#be7c3f;}.cls-26{fill:#f3b744;}.cls-27{fill:#2f4a3d;}.cls-28{fill:#5e867e;}.cls-29{fill:#478971;}.cls-30{fill:#dcd98f;}.cls-31{fill:#6ba67c;}.cls-32{fill:#069548;}.cls-33{fill:#f8bf40;}.cls-34{fill:#ee634e;}.cls-35{fill:#fdda0e;}.cls-36{fill:#ce1a19;}.cls-37{fill:#fbefd7;}.cls-38{fill:#2e4a3c;}.cls-39,.cls-59{stroke-miterlimit:10;}.cls-39{stroke-width:0.47px;}.cls-40{fill:#89bf85;}.cls-41{fill:#26805c;}.cls-42{fill:#518e52;}.cls-43{fill:#6bad7f;}.cls-44{fill:#c4bfa2;}.cls-45{fill:#e8efdf;}.cls-46{fill:#51897e;}.cls-47{fill:#477e3a;}.cls-48{fill:#69a370;}.cls-49{fill:#e75045;}.cls-50{fill:#f7d5c5;}.cls-51{fill:#d75a4c;}.cls-52{fill:#275e85;}.cls-53{fill:#d75b4d;}.cls-54{fill:#76a276;}.cls-55{fill:#f7d949;}.cls-56{fill:#f0b744;}.cls-57{fill:#795b43;}.cls-58{fill:#bf7d44;}.cls-59{stroke:#fff;stroke-width:0.53px;}</style></defs><title>20_2</title><rect id="backgroundrect" class="cls-1" width="722" height="856"/><rect class="cls-1" x="-17.32" y="-17.79" width="739.19" height="891.55"/><path id="svg_4" data-name="svg 4" class="cls-2" d="M454.54,160.6a8.79,8.79,0,0,0-6-10.9,8.42,8.42,0,0,0-1.23-.27c-1.42-.2-3.19-.24-3.79-1.54l6.44-.17a.2.2,0,0,0,.2-.18c.18-1.62-1.23-3.09-2.76-3.74s-3.36-.76-5-1.36c-3.5-1.28-6.22-8.8-5.54-8.8s3.6,5.76,6.65,7.11a.2.2,0,0,0,.26-.1.17.17,0,0,0,0-.17s-3-5.2-3-6.1,4.55,4.58,4.55,4.58a.22.22,0,0,0,.3,0,.25.25,0,0,0,0-.07,6.34,6.34,0,0,0-3.27-7.54,24.47,24.47,0,0,0-3.36-1,4.87,4.87,0,0,1-2.9-1.83,2.31,2.31,0,0,1,.45-3.12,5.23,5.23,0,0,0,5,2.67,13,13,0,0,1-5.55-12l5.76,10a.2.2,0,0,0,.27.09.21.21,0,0,0,.11-.16c.24-2.17-.46-6.59.51-6.59s1.27,3.08,1.9,4.62c0-2.9-1-8.71.07-8.71s2,8.55,3,12.82c.67,3,1.33,5.92,2,8.88.12.53.3,1.14.8,1.35.77.33.67-.42.68-1.65a16.7,16.7,0,0,0,0-2.45,1.54,1.54,0,0,1,1.38-1.69h0c.9,1.43.24,3.31-.63,4.75s-2,2.88-2,4.56c0,2.46,2.27,4.2,3.89,6a13.8,13.8,0,0,1,3.22,11.25,3.51,3.51,0,0,1-1.45,2.63c-.92.49-2.38-.2-2.17-1.22h1.17Z"/><path id="svg_5" data-name="svg 5" class="cls-2" d="M457.72,139.37a13.44,13.44,0,0,0,1.44-4.13,8.82,8.82,0,0,0-1.59-5.09A23.77,23.77,0,0,1,455,125.4a5.14,5.14,0,0,1,.8-5.1c.83,1.61,1.66,3.22,2.51,4.83.35.67.85,1.45,1.61,1.46s1.25-.68,1.64-1.31l7-11.15a3.09,3.09,0,0,1,.83-1,1.07,1.07,0,0,1,1.23,0c.44.34.4,1,.3,1.56a30.19,30.19,0,0,1-5.41,12.48c-1.28,1.74-2.8,3.46-3.12,5.59l4.55-4.14c.39-.36,1.08-.68,1.35-.23s-.16.8-.49,1.07a25.74,25.74,0,0,0-9.27,18c-.18,2.63.05,5.27-.14,7.9-.15,2-.64,6-2.57,7.17-.4-.57-.05-1.91-.08-2.61-.07-1.68-.24-3.36-.29-5a44.13,44.13,0,0,1,.65-10.07,26.09,26.09,0,0,1,1.67-5.39Z"/><path id="svg_6" data-name="svg 6" class="cls-2" d="M456.17,162.34a6.85,6.85,0,0,1,5.08-6.84c1.15-.28,2.36-.25,3.52-.49a3.72,3.72,0,0,0,2.81-1.94c.29-.69.24-1.48.52-2.17s1.13-1.28,1.74-.86a1.27,1.27,0,0,1,0,1.79,19.7,19.7,0,0,1-1.5,1.33,1.37,1.37,0,0,0-.22,1.8,1.13,1.13,0,0,0,1.33.1,2.26,2.26,0,0,0,.89-1.11,9.09,9.09,0,0,1,1-2.28c.53-.64,1.69-.88,2.15-.18a1.63,1.63,0,0,1-.25,1.74,4.13,4.13,0,0,0-.9,1.61,2,2,0,0,0,.92,1.88,6,6,0,0,0,2,.81,9.86,9.86,0,0,0,3.89.49A3.37,3.37,0,0,0,482,155.7a16.78,16.78,0,0,1,.25-1.71c.19-.55.82-1,1.33-.75.81.43.12,1.86.75,2.54s1.53.1,2.16-.42a41.7,41.7,0,0,0,8.32-9.55,4.7,4.7,0,0,1,1.45-1.65,1.5,1.5,0,0,1,2,.3,1.63,1.63,0,0,1-.43,1.89,20.23,20.23,0,0,1-1.69,1.23,1.89,1.89,0,0,0-.82,1.8c.24,1,1.52,1.24,2.54,1.2s2.23-.07,2.8.77a1.87,1.87,0,0,1-.86,2.5l-.21.09a4.43,4.43,0,0,1-3.14-.26,10.67,10.67,0,0,0-3.07-.92,4,4,0,0,0-3.26,1.53,4.27,4.27,0,0,0-.77,3.54c.49,2.09,2.43,3.54,4.42,4.35,1,.43,2.36,1.07,2.25,2.19a1.59,1.59,0,0,1-1.59,1.28,3.36,3.36,0,0,1-2-.84c-1.33-1-2.28-2.51-3.62-3.54s-3.4-1.48-4.66-.35l2.12,1.76c.75.63,1.59,1.56,1.22,2.47a1.66,1.66,0,0,1-2.28.57l-.05,0a5.77,5.77,0,0,1-1.77-2,3.64,3.64,0,0,0-2-1.72c-.88-.2-2,.52-1.8,1.41s1.08,1.27.91,2a1,1,0,0,1-1.28.61l-.05,0a3,3,0,0,1-1.26-1q-1.95-2.26-3.89-4.54c-.47-.55-1.09-1.15-1.79-1-.9.19-1.07,1.5-.55,2.26a7.88,7.88,0,0,0,2.14,1.67,3,3,0,0,1,1.16,1.37,1.47,1.47,0,0,1-.39,1.65,1.58,1.58,0,0,1-1.72,0,4.31,4.31,0,0,1-1.2-1.35,31.21,31.21,0,0,0-2.85-4,7.29,7.29,0,0,0-4.17-2.46,4.21,4.21,0,0,0-4.25,1.85c-.32.56-.47,1.2-.74,1.77a2,2,0,0,1-1.39,1.23,1.39,1.39,0,0,1-1.41-.73,1.47,1.47,0,0,1,.21-1.59Z"/><path id="svg_7" data-name="svg 7" class="cls-3" d="M457.62,161.18c-1.65-.45-12.33-3-15.72,3.74-3.68,7.35-3.68,27-4.9,31.87s-6.13,42.9-2.46,55.15c0,0,13.49-30.64,15.94-39.22s8.58-35.54,9.8-36.77c1.4-1.4,1.47-4.93,1.53-6.73.08-2.65-.26-6.38-3-7.67-.65-.3-2.75-.6-2,.83Z"/><path id="svg_8" data-name="svg 8" class="cls-4" d="M324.3,156.47s1.69-3.6,6-1.29,2.73,8,10.13,10.62,2.41,9.26,7.68,8.22,8.34,0,10.47,10.67,6.56,10.52,3.64,19.82-12.22,11.09-12.14,15-4.31,14.6-7.66,15.22-8.26,4.15-10.66,6.37-12.63,2.17-13.31,4.58-2.33-2-5.51-6-8.79,2.9-12-2.91-6.24-3.22-7.69-9.55S286,222.74,286.63,217s-2.37-7.07-6.23-10.46-2.86-5-2.06-9.92,2.39-10.55-.18-14.1-6.7-5.76,0-9.29,3.84-6,4-9.7,1.11-5.69,4.06-5.79-3.36-7.36,1.31-6.67,6.47,2.74,9.83.07,3.08.56,7.28,2.2,3.22-1.29,7,2.91,12.6.14,12.6.14Z"/><path id="svg_9" data-name="svg 9" class="cls-5" d="M340.25,162.27a8.6,8.6,0,0,0,2.6,1.7l2.79,1.45a31.48,31.48,0,0,0,5.68,2.39,23,23,0,0,0,6.06.85c2.09.07,4.2.16,6.3.39-2.1.29-4.19.47-6.3.59a24.56,24.56,0,0,1-3.21,0,16.57,16.57,0,0,1-3.2-.6,23.23,23.23,0,0,1-5.81-2.74c-.9-.56-1.77-1.17-2.63-1.78a6.91,6.91,0,0,1-2.28-2.22Z"/><path id="svg_10" data-name="svg 10" class="cls-5" d="M336.7,168.63a5.29,5.29,0,0,0,2.4,2.73,13,13,0,0,0,3.44,1.34c2.42.63,4.88,1.06,7.35,1.55a54.86,54.86,0,0,1,7.37,1.87,24,24,0,0,1,6.79,3.62,36.41,36.41,0,0,1,5.44,5.38c1.62,2,3.13,4,4.63,6q4.53,6,8.88,12.19-4.92-5.72-9.65-11.59c-1.6-1.94-3.12-3.93-4.76-5.8a36.94,36.94,0,0,0-5.3-5.16,23.08,23.08,0,0,0-6.43-3.5,63.48,63.48,0,0,0-7.17-2c-2.45-.57-4.91-1.14-7.32-1.92a13.36,13.36,0,0,1-3.45-1.65,6.4,6.4,0,0,1-1.4-1.3,4.48,4.48,0,0,1-.82-1.7Z"/><path id="svg_11" data-name="svg 11" class="cls-5" d="M333.87,176.51c2.08,1.34,4.15,2.7,6.34,3.82A47.4,47.4,0,0,0,347,183.2a31.84,31.84,0,0,1,6.91,3,25.69,25.69,0,0,1,5.66,5,51.31,51.31,0,0,1,4.34,6.12l3.82,6.35a47.63,47.63,0,0,0,4.27,6c1.57,1.89,3.36,3.61,5.12,5.35a59.39,59.39,0,0,1-5.57-4.94,41.72,41.72,0,0,1-4.64-5.87c-2.78-4.12-5.13-8.49-8.3-12.19a24.64,24.64,0,0,0-5.34-4.85,33.28,33.28,0,0,0-6.6-3.07,41,41,0,0,1-6.74-3.26,56.91,56.91,0,0,1-6-4.35Z"/><path id="svg_12" data-name="svg 12" class="cls-5" d="M336.64,168.18a8.73,8.73,0,0,0-7.87-3.89,37.46,37.46,0,0,0-4.59.85,14,14,0,0,1-4.92.26,21.29,21.29,0,0,1-4.7-1.3c-1.48-.61-2.94-1.25-4.36-2a84.56,84.56,0,0,1-8.23-4.81c2.91,1.28,5.75,2.67,8.64,3.93,1.45.61,2.9,1.22,4.37,1.75a20.85,20.85,0,0,0,4.45,1.17A13.26,13.26,0,0,0,324,164a29.59,29.59,0,0,1,4.77-.66,8.58,8.58,0,0,1,4.73,1.29,8.27,8.27,0,0,1,3.18,3.57Z"/><path id="svg_13" data-name="svg 13" class="cls-5" d="M332.87,175.76a25.73,25.73,0,0,0-4.49-2.87,6.67,6.67,0,0,0-4.92-.5,18.52,18.52,0,0,0-4.34,2.83l-4.32,3.21c-1.46,1-2.87,2.14-4.44,3.12a15.53,15.53,0,0,1-5.17,2c-1.79.37-3.58.52-5.37.72s-3.57.36-5.36.48c1.75-.4,3.51-.74,5.28-1.09s3.53-.63,5.23-1.06a18,18,0,0,0,2.48-.82,13.14,13.14,0,0,0,2.28-1.22c1.46-.94,2.88-2.06,4.33-3.12l4.36-3.15c.73-.52,1.45-1,2.21-1.55a8.87,8.87,0,0,1,2.54-1.26,6.33,6.33,0,0,1,2.87-.11,8.71,8.71,0,0,1,2.61,1,20.36,20.36,0,0,1,4.22,3.41Z"/><path id="svg_14" data-name="svg 14" class="cls-5" d="M294.33,195.52a13,13,0,0,0,4.85-.22c1.6-.32,3.21-.7,4.82-1,3.22-.68,6.45-1.29,9.69-1.89l4.85-.84c1.62-.27,3.21-.6,4.79-1a35.67,35.67,0,0,0,4.6-1.58c1.52-.62,3-1.31,4.49-2a38.83,38.83,0,0,1-4.23,2.58,28.34,28.34,0,0,1-4.59,2,82,82,0,0,1-9.69,2.12c-3.24.57-6.48,1.13-9.74,1.61-1.63.24-3.25.49-4.9.68a11.62,11.62,0,0,1-4.94-.39Z"/><path id="svg_15" data-name="svg 15" class="cls-5" d="M332.54,186.71a2.13,2.13,0,0,1,.87,0,3.41,3.41,0,0,1,.82.32,14.6,14.6,0,0,0,1.55.73l3.16,1.39c2.1.94,4.2,1.88,6.28,2.85,1,.49,2.09,1,3.14,1.46a10.15,10.15,0,0,1,3,2.06,11.14,11.14,0,0,1,1.85,3.11c.23.53.48,1,.72,1.55s.49,1,.76,1.53a56.54,56.54,0,0,0,7.58,11.3,62.75,62.75,0,0,0,10,9.34,47.45,47.45,0,0,1-10.76-8.69,49.4,49.4,0,0,1-4.39-5.41,56,56,0,0,1-3.59-6c-.26-.52-.52-1-.76-1.57s-.49-1.06-.72-1.58a10.26,10.26,0,0,0-1.61-2.82,8.66,8.66,0,0,0-2.62-1.87l-3.06-1.56q-3.08-1.57-6.12-3.18l-3-1.64a15.13,15.13,0,0,1-1.51-.87,3.09,3.09,0,0,0-.74-.39,2,2,0,0,0-.85,0Z"/><path id="svg_16" data-name="svg 16" class="cls-5" d="M294.13,209.67c3.21-1.53,6.49-2.92,9.8-4.24s6.67-2.49,10.06-3.6q2.53-.83,5.1-1.59c1.71-.51,3.42-1,5.06-1.57a22.74,22.74,0,0,0,2.39-1,10.86,10.86,0,0,0,2.14-1.35c.66-.53,1.29-1.17,2-1.75a8.34,8.34,0,0,1,2.52-1.37l.36-.12.26.28c3.31,3.38,7.17,6.32,10.32,10.08a42.89,42.89,0,0,1,4,6.06c1.22,2.08,2.38,4.17,3.69,6.15a63.28,63.28,0,0,0,9,11.06,69.14,69.14,0,0,0,5.36,4.75,66.76,66.76,0,0,0,5.86,4.16,60,60,0,0,1-11.68-8.43,63.89,63.89,0,0,1-9.44-11c-1.36-2-2.56-4.1-3.79-6.14a46.11,46.11,0,0,0-4-5.88c-3-3.59-6.88-6.52-10.25-10l.62.16a6.55,6.55,0,0,0-2.14,1.16c-.66.51-1.3,1.14-2,1.72a11.56,11.56,0,0,1-2.38,1.45,24.92,24.92,0,0,1-2.52,1c-1.71.6-3.44,1-5.16,1.5s-3.42.93-5.12,1.43c-3.4,1-6.77,2.12-10.13,3.28s-6.67,2.44-10,3.75Z"/><path id="svg_17" data-name="svg 17" class="cls-5" d="M302.09,216.18a11.12,11.12,0,0,0,4.16-.64,24.39,24.39,0,0,0,3.81-1.77c1.23-.7,2.47-1.42,3.77-2.08a22.42,22.42,0,0,1,4.12-1.53c2.8-.69,5.53-1.35,8.26-2.15s5.43-1.7,8.13-2.67a47.66,47.66,0,0,1-7.82,3.59c-1.35.51-2.73.93-4.11,1.34s-2.78.73-4.14,1.1a22.65,22.65,0,0,0-3.93,1.39c-1.28.57-2.53,1.26-3.84,1.87a19.26,19.26,0,0,1-4.09,1.49A9.41,9.41,0,0,1,302.09,216.18Z"/><path id="svg_18" data-name="svg 18" class="cls-5" d="M334.6,205.46a13.63,13.63,0,0,1,3.58,3.68,47,47,0,0,1,2,4.68,67.31,67.31,0,0,0,4.75,8.86c.88,1.43,1.8,2.84,2.74,4.24l2.84,4.2,2.88,4.18c.48.7.94,1.41,1.45,2.07a6.42,6.42,0,0,0,1.85,1.67,5.76,5.76,0,0,1-2.11-1.44c-.6-.62-1.13-1.29-1.68-1.93-1.09-1.33-2.15-2.67-3.18-4a99,99,0,0,1-5.85-8.36,50,50,0,0,1-4.59-9.16c-.63-1.6-1-3.27-1.68-4.76a15.48,15.48,0,0,0-3-4Z"/><path id="svg_19" data-name="svg 19" class="cls-5" d="M340.44,228.84A51.47,51.47,0,0,1,343,234c.79,1.74,1.51,3.5,2.34,5.18a34.38,34.38,0,0,0,2.88,4.81c1.08,1.55,2.25,3.06,3.34,4.65a34.51,34.51,0,0,1-4.11-4,24.92,24.92,0,0,1-1.77-2.32,27.81,27.81,0,0,1-1.46-2.54,49.49,49.49,0,0,1-2.12-5.37c-.62-1.81-1.2-3.64-1.67-5.51Z"/><path id="svg_20" data-name="svg 20" class="cls-5" d="M340,228.89a15.3,15.3,0,0,0-7.33-2.53,22.73,22.73,0,0,0-3.87,0,36.13,36.13,0,0,0-3.88.51c-1.3.22-2.59.5-3.88.78s-2.6.55-3.93.75a25,25,0,0,1-8,.27,42.15,42.15,0,0,0,7.82-1.22c2.56-.62,5.13-1.33,7.78-1.81a24.22,24.22,0,0,1,8.1-.24,12.87,12.87,0,0,1,7.2,3.49Z"/><path id="svg_21" data-name="svg 21" class="cls-1" d="M316.94,151.75c-3.36,2.67-5.16.62-9.83-.07s1.65,6.56-1.31,6.66-3.92,2.13-4.07,5.8,2.74,6.17-4,9.7-2.59,5.74,0,9.28,1,9.22.18,14.11-1.8,6.52,2.06,9.91,6.86,4.77,6.23,10.47,5.18,3.85,6.62,10.18,4.52,3.75,7.69,9.55c1.71,3.13,4.13,2.57,6.49,2,2-.48,4-1,5.48.89,3.17,4,4.81,8.37,5.5,6s10.93-2.36,13.32-4.58,7.31-5.75,10.66-6.37,7.74-11.32,7.66-15.22,9.21-5.7,12.13-15-1.5-9.14-3.63-19.82-5.2-11.72-10.47-10.67-.28-5.58-7.68-8.22-5.82-8.31-10.13-10.62-6,1.29-6,1.29-8.81,4.06-12.6-.14c-2.31-2.56-2.85-2.47-3.87-2.38a6.19,6.19,0,0,1-3.15-.53c-3-1.19-3.73-3.22-5.16-3.22a3.69,3.69,0,0,0-2.11,1"/><path id="svg_22" data-name="svg 22" class="cls-5" d="M325.79,151.5s-4.05-2.08-4.5-1.23.23,7-4.31,16.34-8.56,14.63-.09,45.33,1,31.86,1,31.86,4.73.47,4.14-12.64-7.45-30.07-7.78-42.08,5.8-23.47,7.7-26.79,3.87-10.79,3.87-10.79Z"/><path id="svg_23" data-name="svg 23" class="cls-6" d="M428.48,191.82a136.44,136.44,0,0,0-13.24-11.12,5.87,5.87,0,0,0-3.77-2.84,16.09,16.09,0,0,0-5.91-.1c-7.8.84-16.14,2.16-22.27,6.68a14.74,14.74,0,0,1-3.25-.24c.74-4.48,5.91-12.08,9.62-13.85a12.39,12.39,0,0,1,4.2-.9l14.07-1.3h0c2-.2,4-.38,6-.57,2.48-.23,5.11-.42,7.28.76,3.31,1.79,4.33,6.06,4.41,9.82.06,3.09,1.47,9.55,2.86,13.65Z"/><path id="svg_24" data-name="svg 24" class="cls-7" d="M400.76,216a8.4,8.4,0,0,1-2.65-.67,2,2,0,0,1-.54-.37,1.64,1.64,0,0,1-.2-.26,11.89,11.89,0,0,1-1.15-3.64c-.62-3-1.25-6-1.86-9.06a9.86,9.86,0,0,0-.82-2.64c-.88-1.64-2.63-2.64-3.51-4.28a11.77,11.77,0,0,0-1.13-2.17,2.13,2.13,0,0,0-.3-.3,2.57,2.57,0,0,0-.55-.38,4.47,4.47,0,0,0-2.47-.38h0c-.14-.3-.66-.33-1.08-.2a7.69,7.69,0,0,1,5.69-2.83,17.18,17.18,0,0,1,7.39,1.64,18.89,18.89,0,0,1,5.62,3.28,10.05,10.05,0,0,1,1.3,1.39c2.72,3.58,2.46,8.87,0,12.64-1.65,2.58-4.32,5-4,8l.22.18Z"/><path id="svg_25" data-name="svg 25" class="cls-7" d="M397.55,214.92a1.61,1.61,0,0,1-.24-.28,12.32,12.32,0,0,1-1.15-3.65c-.62-3-1.25-6-1.86-9a9.48,9.48,0,0,0-.82-2.65c-.88-1.63-2.63-2.64-3.51-4.27a11.85,11.85,0,0,0-1.13-2.18,3.45,3.45,0,0,0-.26-.28,2.76,2.76,0,0,1,.29.3,12.18,12.18,0,0,1,1.13,2.18c.88,1.63,2.63,2.64,3.51,4.27a9.18,9.18,0,0,1,.83,2.65c.61,3,1.22,6,1.85,9.06a11.91,11.91,0,0,0,1.16,3.64,1.64,1.64,0,0,0,.2.26Z"/><path id="svg_26" data-name="svg 26" class="cls-8" d="M401.87,231.18c-2.13,2.2-5.78,2-8.6.74s-5.3-3.18-8.23-4.07-6.31-.59-9.27-1.65c-4-1.45-6.56-5-8.39-9a56.8,56.8,0,0,1-2.18-5.65c-1.59-4.74-2.94-10.65.63-14.15,2.57-2.53,8.55-3.14,11.93-5.3a13.9,13.9,0,0,0,.23,4.77c-2.19,2.92-3.41,6.76-2.4,10.26a13.62,13.62,0,0,0,2,3.88,19.57,19.57,0,0,0,9.69,7.69c3.54,1.16,11,.41,14.94-1.62a23.55,23.55,0,0,0,4.56,2.71,7.69,7.69,0,0,0-2.51,4.44c-.53,2.44-.64,5.2-2.38,7Z"/><path id="svg_27" data-name="svg 27" class="cls-9" d="M367.36,217.18a9.31,9.31,0,0,1-1.43-.18,17.9,17.9,0,0,1-7.17-2.38,11.61,11.61,0,0,1-4.31-5.21h0a12,12,0,0,1-.16-9.36c1-2.49,3-4.67,3.26-7.35.14-1.4-.17-2.81-.14-4.21.09-4,3-7.41,5.73-10.38a6.71,6.71,0,0,1,2-1.67,3.63,3.63,0,0,1,2-.32,7.18,7.18,0,0,1,4,2.07c1.58,1.53,2.82,3.47,4.71,4.58a13.71,13.71,0,0,0,4.27,1.43,14.74,14.74,0,0,0,3.25.24,20.44,20.44,0,0,0-3.35,3.09,9,9,0,0,0-2.2,4.54c-3.38,2.17-9.36,2.78-11.93,5.31-3.57,3.5-2.22,9.41-.63,14.15a56.8,56.8,0,0,0,2.18,5.65Z"/><path id="svg_28" data-name="svg 28" class="cls-10" d="M408.31,239.72h0a11.49,11.49,0,0,1-6.9,4.28,23.1,23.1,0,0,1-7.42-.23l-12-1.66c-5.23-.72-11.45-2.22-13.17-7.22a9.41,9.41,0,0,1-.45-3.16c0-2,.51-4,.71-6,.27-2.64-1-6.82-3.18-8.73.47.07,1,.14,1.43.18,1.83,4,4.36,7.59,8.39,9,3,1.06,6.25.76,9.27,1.65s5.41,2.86,8.23,4.07,6.47,1.46,8.6-.74c1.74-1.79,1.85-4.55,2.38-7a7.69,7.69,0,0,1,2.51-4.45,5.31,5.31,0,0,0,3.35.45A21.47,21.47,0,0,0,412.6,219a9.47,9.47,0,0,1,1-.4c-.76,1.48-2.1,3.7-2.45,4.4-1.52,3-.22,6.57-.34,9.91a11.56,11.56,0,0,1-2.56,6.74Z"/><path id="svg_29" data-name="svg 29" class="cls-11" d="M368.4,231.72c-1.36-.44-3.12-1.06-4.18-1.38a18.74,18.74,0,0,1-2.71-1c-3.54-1.75-5.55-5.52-7.33-9.07a10.11,10.11,0,0,1-1.06-2.82,9.9,9.9,0,0,1,.35-3.63c.32-1.47.65-3,1-4.42a11.57,11.57,0,0,0,4.32,5.21A17.7,17.7,0,0,0,366,217c2.16,1.91,3.45,6.09,3.18,8.73-.2,2-.68,4-.71,6Z"/><path id="svg_30" data-name="svg 30" class="cls-12" d="M415.53,198.45c-3-2.92-8.06-4.59-12.33-4.73a18.89,18.89,0,0,0-5.62-3.28,17.18,17.18,0,0,0-7.39-1.64,7.71,7.71,0,0,0-5.7,2.83l-.21.08a17.26,17.26,0,0,0-5.94,4.68c-.13.15-.25.3-.37.46a14,14,0,0,1-.23-4.78,9,9,0,0,1,2.2-4.54,20.44,20.44,0,0,1,3.35-3.09c6.13-4.52,14.47-5.84,22.27-6.68a16.09,16.09,0,0,1,5.91.1,5.87,5.87,0,0,1,3.77,2.84,3.54,3.54,0,0,1,.37,1c.41,1.93-.62,3.84-1,5.78-.62,3,0,7.51.92,11Z"/><path id="svg_31" data-name="svg 31" class="cls-13" d="M418.13,217.18a31.71,31.71,0,0,1-4.47,1.5h0a9.47,9.47,0,0,0-1,.4,21.47,21.47,0,0,1-2.54,1.15,5.31,5.31,0,0,1-3.35-.45,23.55,23.55,0,0,1-4.56-2.71c-.52-.38-1-.75-1.41-1.08l-.22-.18c-.34-3,2.33-5.47,4-8,2.42-3.77,2.69-9.06,0-12.64a10.62,10.62,0,0,0-1.29-1.39c4.27.14,9.3,1.81,12.33,4.73a9.09,9.09,0,0,1,2,2.8c.8,1.74,1.3,3.75,2.77,5a11.42,11.42,0,0,1,1.44,1.16,3.74,3.74,0,0,1,.73,2.28,8.15,8.15,0,0,1-4.36,7.48Z"/><path id="svg_32" data-name="svg 32" class="cls-14" d="M408.31,239.72a11.56,11.56,0,0,0,2.56-6.74c.12-3.34-1.18-6.92.34-9.91.35-.7,1.69-2.92,2.45-4.4h0a31.71,31.71,0,0,0,4.47-1.5,8.15,8.15,0,0,0,4.36-7.48,3.74,3.74,0,0,0-.73-2.28,11.42,11.42,0,0,0-1.44-1.16c-1.47-1.24-2-3.25-2.76-5a9.43,9.43,0,0,0-2-2.8c-1-3.45-1.54-7.93-.92-11,.38-1.94,1.41-3.85,1-5.78a4,4,0,0,0-.36-1,137.76,137.76,0,0,1,13.23,11.12h0l1,.94a11.87,11.87,0,0,1,2.22,2.62c2.25,4-.27,8.83-.69,13.37-.18,2,.06,4,.06,6.07,0,12.33-10.49,23.74-22.74,24.9Z"/><path id="svg_33" data-name="svg 33" class="cls-15" d="M407.93,168.18l-14.07,1.3a12.39,12.39,0,0,0-4.2.9c-3.71,1.77-8.88,9.37-9.62,13.85a13.71,13.71,0,0,1-4.27-1.43c-1.89-1.11-3.13-3-4.71-4.58a7.18,7.18,0,0,0-4-2.07c.07-.38.12-.7.14-.76.54-1.88,1.41-4.08,3.33-4.42a18.4,18.4,0,0,0,8.71-4.16,14,14,0,0,1,3.54-2.13c5.41-2.48,11.93-3.69,17.22-.94,2.69,1.4,4.93,3.75,7.88,4.44Z"/><path id="svg_34" data-name="svg 34" class="cls-16" d="M384.28,191.71h0a2.65,2.65,0,0,1,3.63.16l.67.69a2.76,2.76,0,0,1,.29.3A12.18,12.18,0,0,1,390,195c.88,1.63,2.63,2.64,3.51,4.27a9.18,9.18,0,0,1,.83,2.65c.61,3,1.22,6,1.85,9.06a11.91,11.91,0,0,0,1.16,3.64,1.64,1.64,0,0,0,.2.26,2.4,2.4,0,0,0,.53.37,8.08,8.08,0,0,0,2.69.68c.41.33.89.7,1.41,1.08-3.9,2-11.4,2.79-14.94,1.63a19.64,19.64,0,0,1-9.7-7.69,13.93,13.93,0,0,1-2-3.89c-1-3.5.21-7.33,2.4-10.25l.36-.47a17.54,17.54,0,0,1,6-4.67Z"/><path id="svg_35" data-name="svg 35" class="cls-17" d="M275.1,225.7s60.73,20.5,65.78,22.4c1.34,0,2.62,0,3.81-.09h0l2.82-.07a8.44,8.44,0,0,0-.09-1,7.63,7.63,0,0,0-.24-1.35,9.43,9.43,0,0,0-.43-1.49c-22.26-9-83.31-32.64-114-33.49Z"/><path id="svg_36" data-name="svg 36" class="cls-18" d="M340.87,248.1l-.28-.09c-29.52-9.53-117.51-31.6-128.07-32.21,0,0,17.16,6.54,36.41,13.53h.16c5.69,2,11.56,4.14,17.23,6.12,10.76,3.77,20.76,7.07,27.34,8.88a95.06,95.06,0,0,0,14,2.5h.06A258.26,258.26,0,0,0,340.86,248Z"/><path id="svg_37" data-name="svg 37" class="cls-19" d="M344.69,248c-1.19,0-2.47.07-3.81.09a258.26,258.26,0,0,1-33.14-1.21c-5.81.36-17.11,1.5-29,2.82-28,3.07-64.18,7.5-67.25,7.3,63.07,14.28,131.7-8.48,133.23-9Z"/><path id="svg_38" data-name="svg 38" class="cls-20" d="M183.08,242.12s22.87,1.64,69.9,5.46H253l25.68,2.13c11.92-1.32,23.22-2.46,29-2.82h-.06a96.39,96.39,0,0,1-14-2.5c-6.58-1.81-16.58-5.11-27.34-8.88-13.44-.93-64.41-3.71-83.25,6.62Z"/><path id="svg_39" data-name="svg 39" class="cls-21" d="M211.25,257h0Z"/><path id="svg_40" data-name="svg 40" class="cls-22" d="M157.52,323.18a.63.63,0,0,1,.07-.35c.43-2.28.92-4.5,1.46-6.64Z"/><path id="svg_41" data-name="svg 41" class="cls-23" d="M253,247.58a145.13,145.13,0,0,0-15.42,1.58,126.56,126.56,0,0,0-15.15,3.28,99.39,99.39,0,0,0-28.14,12.67,80.82,80.82,0,0,0-22,21.5,92.09,92.09,0,0,0-12.79,28.09l1.09-3.72.55-1.86.61-1.84c.85-2.45,1.78-4.86,2.82-7.23a84,84,0,0,1,7.55-13.56,81,81,0,0,1,22-21.64,99.78,99.78,0,0,1,28.26-12.61q3.73-1.05,7.54-1.84c2.54-.53,5.08-1,7.64-1.39A145.23,145.23,0,0,1,253,247.58Z"/><path id="svg_42" data-name="svg 42" class="cls-23" d="M248.16,229.27c-3-.73-6-1.28-9-1.75s-6-.84-9.08-1.09a129.42,129.42,0,0,0-18.26-.4,102.19,102.19,0,0,0-18.09,2.44,80.66,80.66,0,0,0-17.2,6,66.06,66.06,0,0,0-15.18,10L159.67,246l-.84.77c-.28.26-.53.55-.79.83l-1.56,1.66c-.51.57-1.07,1.09-1.52,1.7-1,1.19-1.91,2.37-2.85,3.57l-2.57,3.77-.32.48-.29.49-.57,1-1.14,2c-.78,1.31-1.47,2.66-2.12,4a86.25,86.25,0,0,0-3.46,8.46,105.12,105.12,0,0,0-4.43,17.72,105.3,105.3,0,0,1,4.29-17.77,83.28,83.28,0,0,1,3.44-8.49,39.9,39.9,0,0,1,2.11-4l1.14-2,.57-1,.28-.49.32-.48,2.57-3.79c.94-1.21,1.9-2.39,2.85-3.59a20.61,20.61,0,0,1,1.52-1.71l1.56-1.68c.27-.27.52-.56.79-.83l.84-.78,1.69-1.55a66.84,66.84,0,0,1,15.21-10.12,80.86,80.86,0,0,1,17.29-6,102.58,102.58,0,0,1,18.13-2.4,131.39,131.39,0,0,1,18.29.45c3,.28,6.06.69,9.07,1.17s6,1.07,9,1.83Z"/><path id="svg_43" data-name="svg 43" class="cls-22" d="M159.05,316.23a4.5,4.5,0,0,0,.48-1.21Z"/><path id="svg_44" data-name="svg 44" class="cls-22" d="M162.14,306.05c-1.72-1.32-4,.2-5.74,1.68a1.55,1.55,0,0,0-.56.77c-.17.76.61,1.19,1.21,1.31a5.32,5.32,0,0,0,3.11,0,3.06,3.06,0,0,0,1.86-2.9Z"/><path id="svg_45" data-name="svg 45" class="cls-22" d="M172.06,286.18a1.37,1.37,0,0,1,.23.19,4.59,4.59,0,0,1,.55.53c.07-.1.14-.19.2-.29Z"/><path id="svg_46" data-name="svg 46" class="cls-22" d="M170.64,288.31a1.77,1.77,0,0,0,.08-.94l1-.38Z"/><path id="svg_47" data-name="svg 47" class="cls-22" d="M175.07,280.69a3.06,3.06,0,0,0-.14-1c.17-.09.35-.18.52-.29Z"/><path id="svg_48" data-name="svg 48" class="cls-22" d="M181.57,282.74c.92.67,2.18-.66,2.29-2a19.73,19.73,0,0,0-1.11-6.41,8.57,8.57,0,0,0-2,6.64,2.61,2.61,0,0,0,.8,1.8Z"/><path id="svg_49" data-name="svg 49" class="cls-22" d="M169.35,303.63a5.16,5.16,0,0,0,.55-4.58,12.75,12.75,0,0,0-2.72-3.9c-.39,1.92-.75,3.83-1.06,5.77a5.07,5.07,0,0,0,0,2.26,1.81,1.81,0,0,0,2.3,1.16,1.79,1.79,0,0,0,.94-.71Z"/><path id="svg_50" data-name="svg 50" class="cls-22" d="M164,312.49a1.72,1.72,0,0,0,2.36-1.6,3.74,3.74,0,0,0-.56-1.84c-.57-1.11-1.51-2.41-2.08-3.51a12,12,0,0,0-1,3.72,3.51,3.51,0,0,0,1.29,3.23Z"/><path id="svg_51" data-name="svg 51" class="cls-22" d="M162.93,322.8c1.21-.34,1.47-2.53.92-3.87a3.7,3.7,0,0,0-4.5-2.35c-.14,1.42,1,2.84,1.43,4.15.36,1.15,1.16,2.33,2.15,2.07Z"/><path id="svg_52" data-name="svg 52" class="cls-22" d="M177,290.18c.14.16.33.32.53.27A.92.92,0,0,0,178,290c1.65-2.71,1-6.45.21-9.61a.74.74,0,0,0-.8.17,2.93,2.93,0,0,0-.66,1.4,18.3,18.3,0,0,0-.87,4.27A5.56,5.56,0,0,0,177,290.18Z"/><path id="svg_53" data-name="svg 53" class="cls-22" d="M164,297.65a6.43,6.43,0,0,0-6.29,2.79,2.45,2.45,0,0,0-.55,1.2,1.47,1.47,0,0,0,.93,1.46,2.94,2.94,0,0,0,1.61-.06,5.86,5.86,0,0,0,3.05-1.47C163.64,300.69,164.59,298.78,164,297.65Z"/><path id="svg_54" data-name="svg 54" class="cls-22" d="M173,294c1-.43,1.46-2.12,1.32-3.47a6.37,6.37,0,0,0-1.51-3.62c-.84,1.23-2,2.79-2.09,4.27s1,3.33,2.28,2.82Z"/><path id="svg_55" data-name="svg 55" class="cls-22" d="M169,284.58a3.85,3.85,0,0,0-3,.44c-.9.71-1.29,2.55-.46,3.27a1.92,1.92,0,0,0,1.8.13c1.15-.31,2.28-.65,3.4-1a6.11,6.11,0,0,0-.51-2.3,1.89,1.89,0,0,0-1.19-.49Z"/><path id="svg_56" data-name="svg 56" class="cls-22" d="M172.71,277.6a6.78,6.78,0,0,0-3.73.71,2.19,2.19,0,0,0-1.09.7,1.17,1.17,0,0,0-.06,1.36,1,1,0,0,0,.46.21,9.51,9.51,0,0,0,6.64-.89,3.08,3.08,0,0,0-2.22-2.09Z"/><path id="svg_57" data-name="svg 57" class="cls-22" d="M159.05,316.23c.12-.52.25-1,.39-1.53a1.51,1.51,0,0,0-1.19-1,2.8,2.8,0,0,0-2,.88,10.22,10.22,0,0,0-2.68,3.87c1.74.9,4.32-.19,5.47-2.22Z"/><path id="svg_58" data-name="svg 58" class="cls-22" d="M157.93,327.9c.48-1.44,1.11-4.06.16-5a1.4,1.4,0,0,0-.5-.06c-1.28,0-2.45,1.57-3.1,3.12a6.71,6.71,0,0,0-.61,2.64,2.3,2.3,0,0,0,1.1,2.12c1.26.53,2.43-1.26,3-2.85Z"/><path id="svg_59" data-name="svg 59" class="cls-22" d="M163.16,293.85a2.94,2.94,0,1,0,.62-4.11,2.84,2.84,0,0,0-1,1.28,1.87,1.87,0,0,0-.91,1.34A1.53,1.53,0,0,0,163.16,293.85Z"/><path id="svg_60" data-name="svg 60" class="cls-22" d="M179.34,276.68a4.75,4.75,0,0,1-5.79-2.5,6.94,6.94,0,0,1,3.7-.14,3.36,3.36,0,0,1,2.2,3.25Z"/><path id="svg_61" data-name="svg 61" class="cls-22" d="M135.35,301.38A8.73,8.73,0,0,0,137,300a6.51,6.51,0,0,0,1.84-3.79c.14-1.46-.52-3-1.63-3.38a27.88,27.88,0,0,0-2.77,7.4c-.1.5-.13,1.18.24,1.33a.59.59,0,0,0,.61-.16Z"/><path id="svg_62" data-name="svg 62" class="cls-22" d="M139.55,284.85a9.35,9.35,0,0,1-7.25,3.53,8.53,8.53,0,0,1,5.71-4.79,1.35,1.35,0,0,1,1.17.16,1,1,0,0,1,.19,1.29Z"/><path id="svg_63" data-name="svg 63" class="cls-22" d="M143.61,284.89c1.3,0,2.07-2.16,1.72-3.71a11.75,11.75,0,0,0-2.17-3.89,20,20,0,0,0-1.26,5.28c.08,1.17.77,2.32,1.71,2.32Z"/><path id="svg_64" data-name="svg 64" class="cls-22" d="M158.2,255.3c.37.55,1.09.32,1.59-.09a6.12,6.12,0,0,0,1.15-7,8.66,8.66,0,0,0-2.91,6,1.89,1.89,0,0,0,.17,1.12Z"/><path id="svg_65" data-name="svg 65" class="cls-22" d="M152.87,262.69a.59.59,0,0,0,.44-.15,5.07,5.07,0,0,0,2-3.86,4.77,4.77,0,0,0-1.58-4c-1.21,1.74-1.54,4.74-1.39,7,0,.43.15.93.48,1Z"/><path id="svg_66" data-name="svg 66" class="cls-22" d="M146.15,276.47c1.37.07,2.12-2.35,1.63-3.93s-1.66-2.62-2.51-4a23.24,23.24,0,0,0-.7,5.51c0,1.15.66,2.33,1.58,2.37Z"/><path id="svg_67" data-name="svg 67" class="cls-22" d="M148.64,267.33c.74.92,2.15-.24,2.28-1.57a10,10,0,0,0-1.3-4.75,9.65,9.65,0,0,0-1.35,4.59,2.76,2.76,0,0,0,.37,1.73Z"/><path id="svg_68" data-name="svg 68" class="cls-22" d="M134.87,279.81A21.16,21.16,0,0,0,140,278a3.26,3.26,0,0,0-2.62-1.87,3.7,3.7,0,0,0-3.24,2.4,1.26,1.26,0,0,0,0,1.19.74.74,0,0,0,.77.12Z"/><path id="svg_69" data-name="svg 69" class="cls-22" d="M139.87,272.18c.94-.42,2-1,2.87-.62a3.27,3.27,0,0,0-2.61-3.12,3.08,3.08,0,0,0-2.27.63,2.44,2.44,0,0,0-.66,2.58c.47,1.06,1.73,1,2.67.53Z"/><path id="svg_70" data-name="svg 70" class="cls-22" d="M142.12,265.78c.45.32,1,.1,1.54-.1.9-.37,2.45-1.24,3.41-1.67.07-.13.14-.26.22-.39a2.09,2.09,0,0,0-1.31-2.1,3.31,3.31,0,0,0-2.54.51,3.64,3.64,0,0,0-1.6,1.53,1.91,1.91,0,0,0,.28,2.22Z"/><path id="svg_71" data-name="svg 71" class="cls-22" d="M151.57,249.74c1,.31,3.56.4,4.53-.21a2.28,2.28,0,0,0-.92-2.34,3.75,3.75,0,0,0-2.2-.45,2.65,2.65,0,0,0-1.74.51,1.71,1.71,0,0,0-.45,2,1.41,1.41,0,0,0,.78.53Z"/><path id="svg_72" data-name="svg 72" class="cls-22" d="M147.2,258.46c.89,0,3-2,3.73-2.61a1.27,1.27,0,0,0-.26-1.62,1.8,1.8,0,0,0-1.47-.15A8.17,8.17,0,0,0,147,255a2.33,2.33,0,0,0-1.26,1.37,1.7,1.7,0,0,0,1.23,2.08,1.28,1.28,0,0,0,.27,0Z"/><path id="svg_73" data-name="svg 73" class="cls-19" d="M265.23,268.31c5.84,1.81,11.23,4.61,16.9,6.78,6.76,2.59,14.18,6.12,21.48,8.4l4.09.29c2.88.2,5.87.36,9,.59a106.25,106.25,0,0,1,21.7,3.47c-16-11.57-22-11.48-43-15.84-11.7-2.42-20.9-2.54-30.14-3.69Z"/><path id="svg_74" data-name="svg 74" class="cls-17" d="M359.62,301.47l1.19-1.91a2.31,2.31,0,0,0-.27-3.07c-1.91-1.42-5-3.74-5.16-3.84a9.68,9.68,0,0,1-1.92-1.39h0c-23.45-20.53-31.11-40.78-55.75-60.66-10.42-8.4-26-23.3-39.86-24.72.69.07,1.8,1.8,2.29,2.29l2.72,2.71c1.74,1.76,3.49,3.49,5.24,5.24q5.31,5.28,10.66,10.52c7.4,7.23,8,9.21,15.6,16.23q5.1,4.73,10.26,9.37h0q4.42,4,8.89,7.88c6.63,5.78,12.75,12.1,18.94,18.44l.12.12c2.16,2.2,4.32,4.41,6.56,6.53,1.13,1.09,2.29,2.14,3.46,3.17.52.45,1,.9,1.57,1.32,5,4.16,9.71,8.88,15.5,11.8Z"/><path id="svg_75" data-name="svg 75" class="cls-18" d="M289,288.09c23,7.73,46.28,8.67,70.64,13.38-5.79-2.92-10.51-7.64-15.5-11.8-1.94-.69-3.85-1.31-5.71-1.83a106.25,106.25,0,0,0-21.7-3.47c-3.14-.23-6.13-.39-9-.59l-4.09-.29c-21-1.56-37.39-3.63-57-11.72,12.8,10.32,26.68,11.05,42.4,16.32Z"/><path id="svg_76" data-name="svg 76" class="cls-19" d="M259.64,248.8c17.51,4.68,27.52,5,44.23,13.13,5.69,2.76,11,5.64,16,8.62-34.25-27-78.73-50-115.59-73.73,17.29,18.42,35.53,36.41,55.39,52Z"/><path id="svg_77" data-name="svg 77" class="cls-23" d="M149.39,245.43a66,66,0,0,1,8-6.64,73.56,73.56,0,0,1,8.9-5.34,86.51,86.51,0,0,1,19.56-6.9,177.36,177.36,0,0,1,20.5-3.26,161.43,161.43,0,0,1,20.73-1.35,70.27,70.27,0,0,1,10.35.86,74.39,74.39,0,0,1,10.1,2.47A201.72,201.72,0,0,1,266.82,233q9.49,4.2,18.76,8.9t18.26,9.88q-9-5.1-18.33-9.75t-18.77-8.84a196.19,196.19,0,0,0-19.29-7.63,72.26,72.26,0,0,0-10.06-2.43,69.84,69.84,0,0,0-10.32-.84,166.33,166.33,0,0,0-20.69,1.29,177.09,177.09,0,0,0-20.49,3.22,86.09,86.09,0,0,0-19.53,6.83,73.35,73.35,0,0,0-8.93,5.26,66.29,66.29,0,0,0-8,6.58Z"/><path id="svg_78" data-name="svg 78" class="cls-22" d="M169.17,237.36a.74.74,0,0,0,.56.48c1.68.45,3.91-1.52,4-3.52,0-.72-.13-1.56.4-2.09a19,19,0,0,0-4.62,4.19,1.34,1.34,0,0,0-.31.94Z"/><path id="svg_79" data-name="svg 79" class="cls-22" d="M157.13,247a2.91,2.91,0,0,0,1.52-1.45,10.38,10.38,0,0,0,1.44-5c-1,.76-3.76,2.82-4.22,4s.14,2.72,1.26,2.43Z"/><path id="svg_80" data-name="svg 80" class="cls-22" d="M149.36,250.7a6.36,6.36,0,0,0,2.75-2.41,2.59,2.59,0,0,0,.07-2.53,7.32,7.32,0,0,0-5.07,3.44,2.08,2.08,0,0,0-.31,1.08C146.87,251.38,148.36,251.22,149.36,250.7Z"/><path id="svg_81" data-name="svg 81" class="cls-22" d="M176.73,234.85a3.44,3.44,0,0,0,2.9-1.43,9.91,9.91,0,0,0,1.62-3.21c-1.25-.2-5,.76-5.65,2.14a1.77,1.77,0,0,0,.77,2.37A2.6,2.6,0,0,0,176.73,234.85Z"/><path id="svg_82" data-name="svg 82" class="cls-22" d="M151.59,245.28a1,1,0,0,1,.59.48h.23Z"/><path id="svg_83" data-name="svg 83" class="cls-20" d="M183.39,232.8c20.85,12.33,41,23,64.14,31.39,1.35.49,2.67.93,4,1.31h0a84.15,84.15,0,0,1,13.52,2.74l.16.05c9.24,1.16,18.44,1.27,30.14,3.69,21,4.36,27.08,4.27,43,15.84,1.86.52,3.77,1.14,5.71,1.83-.53-.42-1-.87-1.57-1.32-1.17-1-2.33-2.08-3.46-3.17-2.24-2.12-4.4-4.33-6.56-6.53l-.12-.12c-4.08-2.73-8.23-5.39-12.57-8-5-3-10.28-5.86-16-8.61-16.71-8.12-26.72-8.46-44.23-13.14-10-2.69-20.23-5.08-30.74-7.52-14.49-3.37-30.31-8.11-45.51-8.48Z"/><path id="svg_84" data-name="svg 84" class="cls-22" d="M171.15,225.28a1.19,1.19,0,0,0,.65.45,12.77,12.77,0,0,0,5.22.89c.06.38.69.18.81-.22a1.14,1.14,0,0,0-.27-1.06,5,5,0,0,0-4.37-2.43,2.52,2.52,0,0,0-1.64.68A1.5,1.5,0,0,0,171.15,225.28Z"/><path id="svg_85" data-name="svg 85" class="cls-22" d="M152.75,235.18c.14.69.76,1,1.34,1.3,1,.49,2.55,1.15,3.7,1.67a3.45,3.45,0,0,0,.85-2.71,3.31,3.31,0,0,0-2.33-2.49A2.94,2.94,0,0,0,154,233,2.26,2.26,0,0,0,152.75,235.18Z"/><path id="svg_86" data-name="svg 86" class="cls-22" d="M159,230.55c.67,1.88,3.57,3,5.43,3.37a3.14,3.14,0,0,0-.74-3.4,6.66,6.66,0,0,0-3-1.35c-.57-.15-1.39-.17-1.67.49a1.24,1.24,0,0,0,0,.89Z"/><path id="svg_87" data-name="svg 87" class="cls-22" d="M180.26,225.25a15.21,15.21,0,0,0,4.37,2.33h0l.59-.14A5.8,5.8,0,0,0,183,222.3a2,2,0,0,0-2.47-.1,2.29,2.29,0,0,0-.29,3Z"/><path id="svg_88" data-name="svg 88" class="cls-22" d="M166,230.18c1.17.45,3.08,1.5,4.26,2,.46-1.24.2-4-.7-4.65a3.77,3.77,0,0,0-3.29-.18,2.1,2.1,0,0,0-1.52,1.42c-.13.8.61,1.22,1.25,1.46Z"/><path id="svg_89" data-name="svg 89" class="cls-22" d="M145.75,242c1.71.66,4.58.2,6.67-.46a2.58,2.58,0,0,0-1.84-1.92,7.89,7.89,0,0,0-4,.34c-.71.18-1.69.77-1.52,1.48a1,1,0,0,0,.64.56Z"/><path id="svg_90" data-name="svg 90" class="cls-22" d="M152.42,242.69a2.44,2.44,0,0,0,0-1.14c.2-.07.37-.12.54-.19Z"/><path id="svg_91" data-name="svg 91" class="cls-22" d="M156.79,238.86a2.38,2.38,0,0,0,1-.68l.47.22Z"/><path id="svg_92" data-name="svg 92" class="cls-23" d="M185.23,227.45v.3a4,4,0,0,1-.57-.16Z"/><path id="svg_93" data-name="svg 93" class="cls-22" d="M166.64,235.69a11.32,11.32,0,0,0-2.71,2c-.94.94-1.78,2.5-1.13,3.41s2.6-.06,3.2-1.45.47-2.89.75-4.34Z"/><path id="svg_94" data-name="svg 94" class="cls-23" d="M250.75,265c-3.24-.4-6.47-.79-9.71-1.14s-6.49-.72-9.73-1a172,172,0,0,0-19.53-.7,106.17,106.17,0,0,0-19.39,2.12,83.83,83.83,0,0,0-18.52,6.12l4.46-2,4.57-1.73c1.56-.48,3.12-1,4.68-1.45s3.16-.82,4.76-1.17a104.87,104.87,0,0,1,19.43-2.2,175,175,0,0,1,19.56.82c6.49.59,13,1.43,19.42,2.34Z"/><path id="svg_95" data-name="svg 95" class="cls-22" d="M173.39,270.28c-.2.4-.4.81-.63,1.21q.63-.17,1.26-.27Z"/><path id="svg_96" data-name="svg 96" class="cls-22" d="M183,265.39a3,3,0,0,0,.19-.5h.45Z"/><path id="svg_97" data-name="svg 97" class="cls-22" d="M199.09,261.85a10.1,10.1,0,0,1-3.82-1.2,1.46,1.46,0,0,1-.81-.81,1.8,1.8,0,0,1,1.61-2,2.61,2.61,0,0,1,2.12,1.19,3.32,3.32,0,0,1,.62,3.81Z"/><path id="svg_98" data-name="svg 98" class="cls-22" d="M203,259.72c.42,1.74,3,1,4.33,1.91a6.07,6.07,0,0,0,.06-2.81,2.26,2.26,0,0,0-2.36-1.84,2.56,2.56,0,0,0-2,2.74Z"/><path id="svg_99" data-name="svg 99" class="cls-22" d="M178.43,260.46c.15,2.23,2.57,4.3,4.72,4.43a3.23,3.23,0,0,0-1-3.32,7.12,7.12,0,0,0-3.69-1.11Z"/><path id="svg_100" data-name="svg 100" class="cls-22" d="M174.24,267.79a3,3,0,0,0,2.83-1.12,12.19,12.19,0,0,0-3.6-2.07c-.9-.32-2.52.11-2.37,1.16a1.25,1.25,0,0,0,.59.76A6.25,6.25,0,0,0,174.24,267.79Z"/><path id="svg_101" data-name="svg 101" class="cls-22" d="M190.55,264.05c.46-1.65.63-3.51-.25-4.65a2.27,2.27,0,0,0-3.2,0,2.37,2.37,0,0,0-.53.82c-.66,1.8,2.49,3.34,4,3.86Z"/><path id="svg_102" data-name="svg 102" class="cls-22" d="M207.15,262.5c.08-.28.16-.59.22-.87l.12.09Z"/><path id="svg_103" data-name="svg 103" class="cls-22" d="M204.4,267.51a2.49,2.49,0,0,0,2,0,9,9,0,0,0,4.68-3.62c-1.4,0-4.72.28-6.1,1a2.11,2.11,0,0,0-.87.69,1.37,1.37,0,0,0,.32,1.88Z"/><path id="svg_104" data-name="svg 104" class="cls-22" d="M167.1,276.3a1.22,1.22,0,0,0,.88.06c2.09-.46,3.62-2.65,4.78-4.87a16.68,16.68,0,0,0-4.37,1.91c-1,.66-2.17,2.33-1.29,2.9Z"/><path id="svg_105" data-name="svg 105" class="cls-22" d="M175.21,274.68a1.84,1.84,0,0,0,1.52-.33,6,6,0,0,0,2.66-4.3c-.88.47-3.84,1.21-4.41,2.1s-.58,2.23.23,2.53Z"/><path id="svg_106" data-name="svg 106" class="cls-22" d="M196.64,269.07c.67.51,1.74-.13,2.53-.75a7.19,7.19,0,0,0,1.93-1.92,2.23,2.23,0,0,0,.15-2.44,17.71,17.71,0,0,0-4.31,2.61c-.67.71-.94,2-.3,2.5Z"/><path id="svg_107" data-name="svg 107" class="cls-22" d="M180.53,271.79c0,.73,1,.78,1.65.5a6.8,6.8,0,0,0,3.88-5c-1.43.45-4.46,2.15-5.26,3.6a1.65,1.65,0,0,0-.27.86Z"/><path id="svg_108" data-name="svg 108" class="cls-22" d="M187.24,270c.06.23.32.29.55.31,2.54.23,5.51-2.16,6.27-5.06-1.91.92-5.25,2.13-6.57,4a1,1,0,0,0-.25.76Z"/><path id="svg_109" data-name="svg 109" class="cls-17" d="M308.49,214s44.45,46.18,48.05,50.2c1.21.59,2.35,1.16,3.43,1.67h0l2.53,1.23a6.26,6.26,0,0,0,.38-.93,7.41,7.41,0,0,0,.42-1.31,10,10,0,0,0,.3-1.52C348,245.08,304.7,196,277.83,181.08Z"/><path id="svg_110" data-name="svg 110" class="cls-18" d="M356.54,264.18c-.06-.08-.14-.14-.2-.22-21.81-22.06-89.73-82.19-98.82-87.59,0,0,12.22,13.7,26.07,28.78l.07.06v.06c4.11,4.44,8.36,9,12.48,13.37,7.81,8.3,15.16,15.84,20.18,20.48a93.73,93.73,0,0,0,11.27,8.67h0a260.17,260.17,0,0,0,28.85,16.35Z"/><path id="svg_111" data-name="svg 111" class="cls-19" d="M360,265.88c-1.08-.51-2.22-1.08-3.43-1.67a260.17,260.17,0,0,1-28.85-16.35c-5.33-2.36-15.87-6.55-27.06-10.88-26.24-10.15-60.42-22.92-63-24.5C287,254.21,358.42,265.64,360,265.88Z"/><path id="svg_112" data-name="svg 112" class="cls-20" d="M219.25,186.18s19.54,12,59.52,37h0q10,6.33,21.82,13.72c11.19,4.33,21.73,8.52,27.06,10.88h0a93.73,93.73,0,0,1-11.27-8.67c-5-4.64-12.37-12.18-20.18-20.48-11.5-7-55.45-33-76.94-32.48Z"/><path id="svg_113" data-name="svg 113" class="cls-21" d="M237.41,212.34a.82.82,0,0,0,.17.14Z"/><path id="svg_114" data-name="svg 114" class="cls-22" d="M159.2,246.38c.07-.1.14-.18.22-.28,1.43-1.82,2.89-3.56,4.35-5.22Z"/><path id="svg_115" data-name="svg 115" class="cls-23" d="M278.77,223.24a143.79,143.79,0,0,0-14.41-5.7,123.52,123.52,0,0,0-15-4.07,99,99,0,0,0-30.81-1.72,80.53,80.53,0,0,0-29.47,8.92,92,92,0,0,0-24.29,19l2.68-2.8,1.34-1.4,1.4-1.35c1.87-1.79,3.82-3.5,5.83-5.12A83.73,83.73,0,0,1,189,220.45a80.7,80.7,0,0,1,29.53-9,99.62,99.62,0,0,1,30.9,1.83c2.53.52,5.05,1.14,7.54,1.83s5,1.46,7.41,2.29a143.19,143.19,0,0,1,14.37,5.85Z"/><path id="svg_116" data-name="svg 116" class="cls-23" d="M282.93,204.76c-2.29-2-4.71-3.88-7.16-5.68s-5-3.53-7.55-5.16a129.92,129.92,0,0,0-16-8.76A101.69,101.69,0,0,0,235,179a81.06,81.06,0,0,0-18-2.61A66.77,66.77,0,0,0,199,178.3l-2.21.59-1.1.3c-.37.1-.72.25-1.08.37l-2.15.76c-.71.27-1.45.47-2.14.8L186.1,183l-4,2.16-.5.27-.48.31-1,.62-1.93,1.23a43.88,43.88,0,0,0-3.74,2.61,82.2,82.2,0,0,0-7,5.91,105.53,105.53,0,0,0-12.1,13.68,105,105,0,0,1,12-13.79,82.55,82.55,0,0,1,7-5.94,42.71,42.71,0,0,1,3.75-2.63l1.92-1.24,1-.62.48-.31L182,185l4-2.18c1.39-.64,2.79-1.25,4.18-1.87.69-.34,1.43-.55,2.14-.82l2.16-.77c.36-.12.72-.26,1.09-.37l1.1-.3,2.21-.6a66.63,66.63,0,0,1,18.17-2,80.76,80.76,0,0,1,18.09,2.67,102.13,102.13,0,0,1,17.2,6.23,129.08,129.08,0,0,1,16,8.83c2.57,1.64,5.07,3.4,7.51,5.22s4.84,3.71,7.12,5.74Z"/><path id="svg_117" data-name="svg 117" class="cls-22" d="M163.77,240.88a4.29,4.29,0,0,0,1-.85Z"/><path id="svg_118" data-name="svg 118" class="cls-22" d="M171.21,233.27c-.92-2-3.63-1.66-5.87-1.15a1.46,1.46,0,0,0-.85.42c-.5.6,0,1.34.47,1.73a5.46,5.46,0,0,0,2.75,1.43,3,3,0,0,0,3-1.71Z"/><path id="svg_119" data-name="svg 119" class="cls-22" d="M189.18,220.18c0,.1.09.18.12.28a4.34,4.34,0,0,1,.24.72l.31-.16Z"/><path id="svg_120" data-name="svg 120" class="cls-22" d="M186.92,221.45a1.85,1.85,0,0,0,.52-.8l1.07.14Z"/><path id="svg_121" data-name="svg 121" class="cls-22" d="M194.37,216.72a3.2,3.2,0,0,0,.34-1h.59Z"/><path id="svg_122" data-name="svg 122" class="cls-22" d="M199.19,221.54c.51,1,2.25.42,3-.74a19.39,19.39,0,0,0,2-6.21,8.59,8.59,0,0,0-4.81,5,2.57,2.57,0,0,0-.13,2Z"/><path id="svg_123" data-name="svg 123" class="cls-22" d="M178.72,234.44a5.12,5.12,0,0,0,2.6-3.8,12.59,12.59,0,0,0-.61-4.72c-1.23,1.52-2.44,3.06-3.6,4.63a5.09,5.09,0,0,0-1.06,2,1.82,1.82,0,0,0,1.52,2.08,1.84,1.84,0,0,0,1.15-.2Z"/><path id="svg_124" data-name="svg 124" class="cls-22" d="M169.87,239.83a1.72,1.72,0,0,0,2.43.18,1.81,1.81,0,0,0,.4-.51,3.78,3.78,0,0,0,.36-1.9c0-1.25-.23-2.83-.23-4.07a12,12,0,0,0-2.61,2.84A3.54,3.54,0,0,0,169.87,239.83Z"/><path id="svg_125" data-name="svg 125" class="cls-22" d="M164.19,248.5c1.24.26,2.47-1.56,2.6-3a3.72,3.72,0,0,0-2.9-4.16c-.79,1.19-.4,3-.65,4.34-.22,1.19,0,2.61,1,2.83Z"/><path id="svg_126" data-name="svg 126" class="cls-22" d="M191.72,226c.05.21.15.43.34.48a.86.86,0,0,0,.62-.16c2.71-1.65,3.83-5.28,4.61-8.43a.74.74,0,0,0-.78-.22,2.88,2.88,0,0,0-1.24.94,18.53,18.53,0,0,0-2.73,3.39,5.48,5.48,0,0,0-.82,4Z"/><path id="svg_127" data-name="svg 127" class="cls-22" d="M176.76,226.69a6.47,6.47,0,0,0-6.87-.42,2.33,2.33,0,0,0-1,.81,1.46,1.46,0,0,0,.15,1.73,2.86,2.86,0,0,0,1.46.68,5.81,5.81,0,0,0,3.38.1c1.17-.39,2.9-1.64,2.92-2.9Z"/><path id="svg_128" data-name="svg 128" class="cls-22" d="M186.45,227.56c1.12.1,2.27-1.21,2.77-2.47a6.46,6.46,0,0,0,.32-3.91c-1.31.7-3.06,1.56-3.82,2.83S185.12,227.45,186.45,227.56Z"/><path id="svg_129" data-name="svg 129" class="cls-22" d="M187.2,217.39a3.8,3.8,0,0,0-2.89-1c-1.12.22-2.33,1.68-1.92,2.7a1.92,1.92,0,0,0,1.54.94c1.16.26,2.32.48,3.51.64a5.83,5.83,0,0,0,.59-2.28,1.82,1.82,0,0,0-.83-1Z"/><path id="svg_130" data-name="svg 130" class="cls-22" d="M193.7,212.89a6.83,6.83,0,0,0-3.64-1.09,2.12,2.12,0,0,0-1.29.13,1.18,1.18,0,0,0-.68,1.18,1.07,1.07,0,0,0,.31.39,9.47,9.47,0,0,0,6.31,2.27,3.12,3.12,0,0,0-1-2.88Z"/><path id="svg_131" data-name="svg 131" class="cls-22" d="M163.77,240.88c.35-.4.7-.79,1.06-1.17a1.52,1.52,0,0,0-.6-1.44,2.87,2.87,0,0,0-2.17-.14,10.2,10.2,0,0,0-4.16,2.2c1.12,1.61,3.92,1.82,5.87.55Z"/><path id="svg_132" data-name="svg 132" class="cls-22" d="M157.4,250.73c1.09-1.06,2.86-3.1,2.43-4.34a1.46,1.46,0,0,0-.41-.29c-1.14-.57-2.9.27-4.19,1.34a6.74,6.74,0,0,0-1.76,2.07,2.33,2.33,0,0,0,0,2.39c.88,1,2.74,0,3.93-1.17Z"/><path id="svg_133" data-name="svg 133" class="cls-22" d="M177.74,222.91a4.88,4.88,0,0,0,5.79.09,5,5,0,0,0-4.82-2.77,1.86,1.86,0,0,0-1.42.77,1.51,1.51,0,0,0,.45,1.91Z"/><path id="svg_134" data-name="svg 134" class="cls-22" d="M200,215.18a4.74,4.74,0,0,1-4-4.89,7,7,0,0,1,3.35,1.58,3.37,3.37,0,0,1,.45,3.9Z"/><path id="svg_135" data-name="svg 135" class="cls-22" d="M149.59,216.79a9.76,9.76,0,0,0,2.14-.48,6.55,6.55,0,0,0,3.39-2.5c.8-1.23,1-2.94.12-3.75a27.67,27.67,0,0,0-5.87,5.3c-.32.39-.66,1-.4,1.28S149.36,216.8,149.59,216.79Z"/><path id="svg_136" data-name="svg 136" class="cls-22" d="M160.93,204.05a9.37,9.37,0,0,1-8.06-.21,8.53,8.53,0,0,1,7.27-1.62,1.37,1.37,0,0,1,1,.68,1,1,0,0,1-.43,1.23Z"/><path id="svg_137" data-name="svg 137" class="cls-22" d="M164.51,206c1.15.59,2.84-1,3.24-2.51a11.69,11.69,0,0,0-.14-4.45,20.78,20.78,0,0,0-3.55,4.11c-.46,1.07-.38,2.41.45,2.85Z"/><path id="svg_138" data-name="svg 138" class="cls-22" d="M191.1,186.42c.07.65.82.79,1.45.65a6.14,6.14,0,0,0,4.27-5.73,8.65,8.65,0,0,0-5.36,4A1.89,1.89,0,0,0,191.1,186.42Z"/><path id="svg_139" data-name="svg 139" class="cls-22" d="M183,190.52a.57.57,0,0,0,.46.07,5.06,5.06,0,0,0,3.59-2.47,4.79,4.79,0,0,0,.44-4.26c-1.89,1-3.55,3.5-4.46,5.57-.17.39-.3.9,0,1.09Z"/><path id="svg_140" data-name="svg 140" class="cls-22" d="M170.65,199.65c1.18.7,3-1.11,3.25-2.74s-.27-3.09-.4-4.66a23.61,23.61,0,0,0-3.17,4.57c-.5,1-.48,2.37.32,2.83Z"/><path id="svg_141" data-name="svg 141" class="cls-22" d="M177.07,192.69c.23,1.16,2,.77,2.74-.34a10.05,10.05,0,0,0,1-4.82A9.77,9.77,0,0,0,177.5,191a2.6,2.6,0,0,0-.47,1.71Z"/><path id="svg_142" data-name="svg 142" class="cls-22" d="M159.11,197.42a21.36,21.36,0,0,0,5.39.74,3.21,3.21,0,0,0-1.46-2.87,3.72,3.72,0,0,0-4,.63c-.32.27-.65.68-.57,1s.36.4.62.46Z"/><path id="svg_143" data-name="svg 143" class="cls-22" d="M167.09,192.91c1,.06,2.23,0,2.83.78a3.29,3.29,0,0,0-.88-4,3,3,0,0,0-2.31-.48,2.43,2.43,0,0,0-1.78,2C164.88,192.37,166.05,192.86,167.09,192.91Z"/><path id="svg_144" data-name="svg 144" class="cls-22" d="M172,188.3c.25.5.87.58,1.41.63,1,.08,2.74,0,3.8.09l.37-.25a2.12,2.12,0,0,0-.19-2.46,3.32,3.32,0,0,0-2.5-.72,3.56,3.56,0,0,0-2.12.62c-.65.5-1.1,1.49-.77,2.09Z"/><path id="svg_145" data-name="svg 145" class="cls-22" d="M187.77,178.42c.77.75,3,2,4.13,1.91a2.3,2.3,0,0,0,.25-2.5,3.7,3.7,0,0,0-1.74-1.41,2.64,2.64,0,0,0-1.78-.36,1.73,1.73,0,0,0-1.3,1.54A1.36,1.36,0,0,0,187.77,178.42Z"/><path id="svg_146" data-name="svg 146" class="cls-22" d="M179.87,184.18c.79.43,3.56-.37,4.53-.6a1.24,1.24,0,0,0,.5-1.55,1.72,1.72,0,0,0-1.23-.81,8.35,8.35,0,0,0-2.39-.26,2.39,2.39,0,0,0-1.75.64,1.72,1.72,0,0,0,.12,2.42Z"/><path id="svg_147" data-name="svg 147" class="cls-19" d="M280.1,247.28c4.34,4.3,7.84,9.26,11.87,13.81,4.8,5.41,9.76,12,15.19,17.35,1.14.71,2.31,1.42,3.49,2.14,2.47,1.51,5,3,7.73,4.67A106.53,106.53,0,0,1,336,298.34c-8.83-17.63-14.25-20.34-30.9-33.9-9.27-7.53-17.38-11.88-25-17.16Z"/><path id="svg_148" data-name="svg 148" class="cls-17" d="M348.58,320.18l1.94-1.15a2.3,2.3,0,0,0,1.18-2.84c-1-2.15-2.7-5.62-2.81-5.8a10,10,0,0,1-1.07-2.11h0c-11.35-29-8.81-50.53-21.53-79.53-5.38-12.26-12.37-32.67-24-40.31.58.38.77,2.43,1,3.09.4,1.23.78,2.45,1.17,3.66.74,2.36,1.49,4.71,2.24,7.07q2.28,7.13,4.61,14.25c3.24,9.82,2.88,11.86,6.37,21.59q2.34,6.54,4.78,13h0q2.1,5.57,4.27,11.08c3.21,8.19,5.73,16.62,8.31,25.1v.16c.9,3,1.8,5.9,2.81,8.82.51,1.49,1,3,1.61,4.41.25.63.5,1.27.78,1.89,2.52,6,4.53,12.36,8.32,17.62Z"/><path id="svg_149" data-name="svg 149" class="cls-18" d="M292.06,275.78c16.88,17.47,37.07,29,56.52,44.43-3.79-5.26-5.8-11.63-8.32-17.62q-2.1-2.26-4.22-4.25a106.53,106.53,0,0,0-17.66-13.09c-2.68-1.64-5.26-3.16-7.73-4.67-1.18-.72-2.35-1.43-3.49-2.14-18-11.09-31.51-20.45-45.22-36.68,6.61,15.05,18.59,22.1,30.12,34Z"/><path id="svg_150" data-name="svg 150" class="cls-19" d="M284.12,227.39c13.39,12.22,22.11,17.14,33.21,32,3.77,5.07,7.11,10,10.19,15-18-39.74-46.81-80.71-68.6-118.7,6.85,24.31,14.74,48.68,25.2,71.65Z"/><path id="svg_151" data-name="svg 151" class="cls-23" d="M187.87,173.6A64.91,64.91,0,0,1,198,171.38a71.79,71.79,0,0,1,10.36-.64,86.83,86.83,0,0,1,20.53,2.89,177.78,177.78,0,0,1,19.71,6.55,164.58,164.58,0,0,1,19,8.35,70.35,70.35,0,0,1,8.8,5.54,71.67,71.67,0,0,1,7.82,6.85,202.62,202.62,0,0,1,13.58,15.7q6.49,8.12,12.55,16.55T322,250.36q-5.69-8.7-11.78-17.1c-4.06-5.6-8.24-11.12-12.58-16.5A198.48,198.48,0,0,0,284,201.1a73.16,73.16,0,0,0-7.81-6.8,72.41,72.41,0,0,0-8.77-5.5,164.78,164.78,0,0,0-19-8.38,176.49,176.49,0,0,0-19.66-6.59,86.4,86.4,0,0,0-20.48-2.94,73,73,0,0,0-10.35.56,65.09,65.09,0,0,0-10.14,2.15Z"/><path id="svg_152" data-name="svg 152" class="cls-22" d="M209.1,175.55a.72.72,0,0,0,.28.68c1.28,1.18,4.17.46,5.14-1.29.35-.63.6-1.45,1.32-1.67a19,19,0,0,0-6,1.59c-.29.16-.62.38-.7.69Z"/><path id="svg_153" data-name="svg 153" class="cls-22" d="M194,178.58a2.82,2.82,0,0,0,2-.58,10.38,10.38,0,0,0,3.59-3.77c-1.25.21-4.64.77-5.6,1.62s-1.13,2.48,0,2.73Z"/><path id="svg_154" data-name="svg 154" class="cls-22" d="M185.37,178.25a6.34,6.34,0,0,0,3.56-.86,2.61,2.61,0,0,0,1.22-2.21,7.33,7.33,0,0,0-6.09.72,2.22,2.22,0,0,0-.77.81c-.44,1,1,1.55,2.08,1.54Z"/><path id="svg_155" data-name="svg 155" class="cls-22" d="M217,176.8a3.42,3.42,0,0,0,3.24.07,10.11,10.11,0,0,0,2.92-2.1c-1-.75-4.82-1.64-6-.71a1.77,1.77,0,0,0-.39,2.47,1.55,1.55,0,0,0,.24.27Z"/><path id="svg_156" data-name="svg 156" class="cls-22" d="M189.87,174.48a1,1,0,0,1,.31.7l.21.09Z"/><path id="svg_157" data-name="svg 157" class="cls-20" d="M223.87,178.06c12.82,20.55,25.79,39.32,42.46,57.41,1,1.06,1.94,2.06,2.92,3h0A84.35,84.35,0,0,1,280,247.13l.12.12c7.66,5.28,15.77,9.63,25,17.16,16.65,13.56,22.07,16.27,30.9,33.9,1.41,1.33,2.81,2.75,4.22,4.25-.28-.62-.53-1.26-.78-1.89-.56-1.46-1.1-2.92-1.61-4.41-1-2.92-1.91-5.87-2.81-8.82v-.16c-2.37-4.31-4.83-8.58-7.49-12.87-3.08-5-6.42-9.94-10.19-15-11.1-14.9-19.82-19.82-33.21-32-7.64-7-15.61-13.83-23.81-20.84-11.31-9.67-23.17-21.16-36.49-28.49Z"/><path id="svg_158" data-name="svg 158" class="cls-22" d="M216.42,165.74a1.2,1.2,0,0,0,.37.7,13.12,13.12,0,0,0,4.22,3.2c-.11.36.54.47.83.17a1.17,1.17,0,0,0,.25-1.06,5.06,5.06,0,0,0-2.76-4.17,2.57,2.57,0,0,0-1.77-.16C216.94,164.61,216.36,165.2,216.42,165.74Z"/><path id="svg_159" data-name="svg 159" class="cls-22" d="M195.52,166.08a2,2,0,0,0,.59,1.76c.68.92,1.73,2.2,2.51,3.2a3.52,3.52,0,0,0,2-2,3.32,3.32,0,0,0-.93-3.28,2.93,2.93,0,0,0-2.06-1,2.27,2.27,0,0,0-2.12,1.34Z"/><path id="svg_160" data-name="svg 160" class="cls-22" d="M203.19,164.81c-.27,2,1.79,4.3,3.26,5.49a3.1,3.1,0,0,0,.92-3.36,7,7,0,0,0-2.08-2.6c-.44-.39-1.16-.79-1.71-.33a1.27,1.27,0,0,0-.39.8Z"/><path id="svg_161" data-name="svg 161" class="cls-22" d="M224.53,169.91a15.09,15.09,0,0,0,2.8,4.09h0l.59.14a5.76,5.76,0,0,0,.4-5.58,2,2,0,0,0-2.14-1.22,2.29,2.29,0,0,0-1.65,2.56Z"/><path id="svg_162" data-name="svg 162" class="cls-22" d="M209.59,167.69c.84.94,2,2.76,2.88,3.7,1-.89,2.05-3.5,1.53-4.45a3.8,3.8,0,0,0-2.83-1.68,2.14,2.14,0,0,0-2,.56c-.48.65,0,1.37.43,1.87Z"/><path id="svg_163" data-name="svg 163" class="cls-22" d="M186.18,168.88c1.21,1.38,4,2.29,6.12,2.67a2.59,2.59,0,0,0-.74-2.55,7.85,7.85,0,0,0-3.67-1.52c-.71-.17-1.85-.1-2,.61a.91.91,0,0,0,.32.79Z"/><path id="svg_164" data-name="svg 164" class="cls-22" d="M191.77,172.56a2.26,2.26,0,0,0,.53-1l.57.08Z"/><path id="svg_165" data-name="svg 165" class="cls-22" d="M197.43,171.18a2.3,2.3,0,0,0,1.19-.13l.32.4Z"/><path id="svg_166" data-name="svg 166" class="cls-23" d="M227.92,174.18a2.26,2.26,0,0,1-.16.26,3.24,3.24,0,0,1-.43-.4Z"/><path id="svg_167" data-name="svg 167" class="cls-22" d="M207.62,172.91a11.17,11.17,0,0,0-3.34.54c-1.26.41-2.72,1.4-2.57,2.5.17,1.26,2.33,1.16,3.51.19s1.74-2.34,2.66-3.5Z"/><path id="svg_168" data-name="svg 168" class="cls-23" d="M268.75,237.71q-4-2.78-8.1-5.49c-2.71-1.82-5.42-3.63-8.17-5.37a175.41,175.41,0,0,0-17-9.62,105.69,105.69,0,0,0-18.19-7.06,84.25,84.25,0,0,0-19.25-3.1l4.88.27,4.86.57c1.61.3,3.22.57,4.82.88s3.18.73,4.76,1.15a104.86,104.86,0,0,1,18.26,7,173.14,173.14,0,0,1,17,9.73c5.49,3.52,10.85,7.24,16.16,11Z"/><path id="svg_169" data-name="svg 169" class="cls-22" d="M197.67,206.71c-.36.27-.72.53-1.11.78.42.1.84.22,1.24.35Z"/><path id="svg_170" data-name="svg 170" class="cls-22" d="M208.42,206.78a2,2,0,0,0,.4-.36,3.17,3.17,0,0,0,.41.21Z"/><path id="svg_171" data-name="svg 171" class="cls-22" d="M224.37,211.07a10.17,10.17,0,0,1-2.84-2.82,1.48,1.48,0,0,1-.35-1.09,1.88,1.88,0,0,1,2.37-1.07,2.58,2.58,0,0,1,1.34,2,3.38,3.38,0,0,1-1.2,3.68Z"/><path id="svg_172" data-name="svg 172" class="cls-22" d="M228.87,211c-.43,1.74,2.16,2.26,3,3.69a6,6,0,0,0,1.35-2.47A2.24,2.24,0,0,0,232,209.5a2.58,2.58,0,0,0-3.06,1.5Z"/><path id="svg_173" data-name="svg 173" class="cls-22" d="M206.67,200.31c-.89,2,.3,5,2.15,6.11a3.19,3.19,0,0,0,.61-3.42A7.2,7.2,0,0,0,206.67,200.31Z"/><path id="svg_174" data-name="svg 174" class="cls-22" d="M199.58,204.89a3,3,0,0,0,3,.31,12.49,12.49,0,0,0-2.25-3.49c-.65-.7-2.28-1.07-2.63-.07a1.22,1.22,0,0,0,.17,1,6.17,6.17,0,0,0,1.68,2.3Z"/><path id="svg_175" data-name="svg 175" class="cls-22" d="M215.78,209.09c1.16-1.25,2.18-2.83,1.92-4.25a2.26,2.26,0,0,0-3.67-1c-1.42,1.29.66,4.11,1.75,5.26Z"/><path id="svg_176" data-name="svg 176" class="cls-22" d="M231.22,215.36c.21-.21.41-.45.59-.67a.61.61,0,0,1,.07.14Z"/><path id="svg_177" data-name="svg 177" class="cls-22" d="M226.47,218.54a2.51,2.51,0,0,0,1.74.94,9,9,0,0,0,5.82-1.06,17,17,0,0,0-5.88-1.91,2.06,2.06,0,0,0-1.09.22,1.38,1.38,0,0,0-.59,1.81Z"/><path id="svg_178" data-name="svg 178" class="cls-22" d="M189.32,209.18a1.15,1.15,0,0,0,.75.46c2.07.56,4.44-.68,6.49-2.12a16.19,16.19,0,0,0-4.76-.31c-1.23.09-3,1.07-2.48,2Z"/><path id="svg_179" data-name="svg 179" class="cls-22" d="M197.26,211.46a1.89,1.89,0,0,0,1.5.4,5.92,5.92,0,0,0,4.34-2.59c-1,0-4-.69-4.88-.17s-1.54,1.71-1,2.36Z"/><path id="svg_180" data-name="svg 180" class="cls-22" d="M218.87,216.35c.36.76,1.6.69,2.59.5a7.44,7.44,0,0,0,2.6-.81,2.24,2.24,0,0,0,1.26-2.1,17.49,17.49,0,0,0-5,.33c-.92.33-1.77,1.35-1.42,2.08Z"/><path id="svg_181" data-name="svg 181" class="cls-22" d="M203.31,211.34c-.29.67.51,1.14,1.24,1.21a6.85,6.85,0,0,0,5.73-2.62c-1.48-.26-5-.14-6.32.77a1.67,1.67,0,0,0-.65.64Z"/><path id="svg_182" data-name="svg 182" class="cls-22" d="M210.11,212.81a.63.63,0,0,0,.35.53c2.15,1.37,5.88.61,7.9-1.61-2.13-.06-5.64-.52-7.67.52C210.44,212.38,210.16,212.57,210.11,212.81Z"/><path id="svg_183" data-name="svg 183" class="cls-24" d="M476.44,156.25c1.34-2.33,1.57-5.21,2.7-7.67a21.81,21.81,0,0,1,3.18-4.56c2-2.34,4.15-4.81,7-5.28,3.34-.54,6.55,1.76,9.93,1.77,4.06,0,7.41-3.2,10.32-6.22.56-.57,1.16-1.38.85-2.13a1.29,1.29,0,0,0-1.77-.49l-.17.11a4.57,4.57,0,0,0-1.29,1.92,4.71,4.71,0,0,1-2,2.48,1.73,1.73,0,0,1-2.31-.77,2.3,2.3,0,0,1-.14-.42c-.12-1.3,1.39-2,2.19-3a3.28,3.28,0,0,0-.14-4.14c-1.07,2.1-2.14,4.2-3.23,6.3A4.36,4.36,0,0,1,500.1,136a3.93,3.93,0,0,1-2,.32l-7.23-.17,9.32-6.72c.57-.42,1.22-1,1-1.73a1.16,1.16,0,0,0-1.46-.72h0a3.43,3.43,0,0,0-1.43,1.18,17.41,17.41,0,0,0,4-8.88c-.9,0-1.57.92-1.89,1.81s-.41,1.88-.81,2.73a2,2,0,0,1-2.13,1.38l4-10.13c.35-.87.51-2.18-.33-2.45s-1.3.62-1.59,1.36c-1.45,3.63-2.19,7.54-3.58,11.21s-3.58,7.22-6.94,8.89q1.39-4.87,2.78-9.75c.27-.94.35-2.29-.53-2.58a1.22,1.22,0,0,0-1.37.8,4.72,4.72,0,0,0-.26,1.79,21,21,0,0,1-4.5,12.47c-1.8,2.25-4,4-5.85,6.29a21.37,21.37,0,0,0-4.57,14.11Z"/><path id="svg_184" data-name="svg 184" class="cls-24" d="M472.32,155.26a9.14,9.14,0,0,0-1-7,8.09,8.09,0,0,0-5.6-3.82c-1.29-.19-2.91-.24-3.45-1.5l5.87-.16a.19.19,0,0,0,.18-.18A3.92,3.92,0,0,0,465.8,139c-1.44-.64-3.06-.74-4.53-1.32-3.19-1.25-5.67-8.54-5-8.54s3.28,5.59,6.06,6.9a.19.19,0,0,0,.24-.12.16.16,0,0,0,0-.15s-2.76-5-2.76-5.92,4.15,4.46,4.15,4.46a.19.19,0,0,0,.27,0,.16.16,0,0,0,0-.07,6.31,6.31,0,0,0-3-7.32,20.73,20.73,0,0,0-3.06-.93,4.45,4.45,0,0,1-2.64-1.78,2.33,2.33,0,0,1,.41-3,4.71,4.71,0,0,0,4.51,2.59,13,13,0,0,1-5.06-11.65l5.25,9.71a.18.18,0,0,0,.24.08.18.18,0,0,0,.1-.16c.23-2.1-.41-6.39.47-6.39s1.15,3,1.73,4.49c0-2.82-.87-8.47.07-8.47s1.79,8.31,2.69,12.46l1.86,8.62c.11.51.27,1.1.73,1.31.7.32.61-.41.61-1.6a15.76,15.76,0,0,0,0-2.38,1.49,1.49,0,0,1,1.3-1.64c.81,1.38.22,3.21-.58,4.61s-1.82,2.79-1.83,4.42c0,2.4,2.07,4.08,3.55,5.88A14,14,0,0,1,474.55,154a3.47,3.47,0,0,1-1.33,2.55c-.83.48-2.16-.19-2-1.18h1.07Z"/><path id="svg_185" data-name="svg 185" class="cls-24" d="M474.48,134.18a9.83,9.83,0,0,0,1-2.94,6.58,6.58,0,0,0-1.06-3.63,17.11,17.11,0,0,1-1.73-3.38,3.84,3.84,0,0,1,.53-3.63L474.9,124c.23.48.56,1,1.08,1s.84-.49,1.09-.93l4.66-8a2.41,2.41,0,0,1,.56-.71.69.69,0,0,1,.82,0,1.17,1.17,0,0,1,.2,1.11,22.24,22.24,0,0,1-3.62,8.9,9.73,9.73,0,0,0-2.08,4l3-3c.26-.26.72-.49.9-.16s-.1.56-.32.76A18.73,18.73,0,0,0,475,139.83c-.11,1.87,0,3.75-.09,5.62-.1,1.43-.42,4.28-1.72,5.11-.26-.4,0-1.35,0-1.85,0-1.2-.16-2.4-.19-3.6a33.12,33.12,0,0,1,.43-7.17,19.75,19.75,0,0,1,1.12-3.85Z"/><path id="svg_186" data-name="svg 186" class="cls-24" d="M473.81,157a6.61,6.61,0,0,1,4.63-6.65c1-.27,2.15-.24,3.21-.47a3.43,3.43,0,0,0,2.56-1.89c.26-.67.22-1.44.47-2.11s1-1.24,1.59-.83.38,1.23,0,1.73-1,.82-1.37,1.29a1.41,1.41,0,0,0-.2,1.75,1,1,0,0,0,1.22.11,2.28,2.28,0,0,0,.81-1.08,8.47,8.47,0,0,1,.92-2.22,1.29,1.29,0,0,1,2-.18,1.67,1.67,0,0,1-.22,1.69,4.22,4.22,0,0,0-.82,1.57,2,2,0,0,0,.84,1.82,5.24,5.24,0,0,0,1.85.79,8.52,8.52,0,0,0,3.54.48,3.12,3.12,0,0,0,2.64-2.25,15.59,15.59,0,0,1,.23-1.67c.17-.53.74-1,1.2-.73.74.43.12,1.81.69,2.47s1.4.1,2-.41a40,40,0,0,0,7.59-9.26,4.44,4.44,0,0,1,1.31-1.61,1.31,1.31,0,0,1,1.81.29,1.65,1.65,0,0,1-.39,1.84c-.49.42-1,.82-1.54,1.19a1.92,1.92,0,0,0-.75,1.75c.22,1,1.39,1.2,2.31,1.17s2-.07,2.56.74a1.87,1.87,0,0,1-.91,2.48l-.09,0a3.84,3.84,0,0,1-2.86-.25,8.66,8.66,0,0,0-2.8-.9,3.55,3.55,0,0,0-3,1.49,4.34,4.34,0,0,0-.69,3.43,6.49,6.49,0,0,0,4,4.23c1,.42,2.15,1,2,2.12a1.47,1.47,0,0,1-1.45,1.24,2.93,2.93,0,0,1-1.85-.81c-1.21-1-2.07-2.44-3.3-3.43s-3.1-1.45-4.24-.35l1.93,1.72c.69.61,1.45,1.5,1.11,2.39a1.47,1.47,0,0,1-2,.62l-.16-.1a5.59,5.59,0,0,1-1.61-2,3.4,3.4,0,0,0-1.83-1.67c-.81-.19-1.81.51-1.64,1.38.14.71,1,1.23.82,1.94a.92.92,0,0,1-1.15.6l-.06,0a2.85,2.85,0,0,1-1.15-1L490.06,155c-.43-.53-1-1.11-1.63-1-.82.2-1,1.46-.51,2.2a7,7,0,0,0,2,1.62,3,3,0,0,1,1.06,1.33,1.51,1.51,0,0,1-.36,1.61,1.35,1.35,0,0,1-1.57-.05,4.07,4.07,0,0,1-1.09-1.31,29.71,29.71,0,0,0-2.6-3.9,6.53,6.53,0,0,0-3.79-2.39,3.73,3.73,0,0,0-3.88,1.79c-.29.54-.42,1.16-.68,1.72a1.88,1.88,0,0,1-1.26,1.19,1.25,1.25,0,0,1-1.29-.71,1.51,1.51,0,0,1,.19-1.54Z"/><path id="svg_187" data-name="svg 187" class="cls-25" d="M477.64,156.47c-1.48-.52-11-3.6-14.51,2.79-3.76,6.94-4.86,26-6.25,30.64s-8,41.26-5.33,53.34c0,0,14-29,16.7-37.19s9.8-34,11-35.12c1.35-1.29,1.61-4.71,1.76-6.45.23-2.56.13-6.2-2.3-7.59-.57-.32-2.47-.73-1.88.7Z"/><path id="svg_188" data-name="svg 188" class="cls-26" d="M435.87,219.55s.84,13.76-19.33,13.87c-21.26.11-23.56-8.84-23.71-11.25-.73-12,8.72-22.28,21.11-23s21.2,8.44,21.93,20.41Z"/><path id="svg_189" data-name="svg 189" class="cls-27" d="M412.18,180.29s-8.32-34.84-2.32-35.81,1.6,10.31,6,10.46-6.73-25-1.53-29.42,2.3,6.58,5.4,6.58-4.06-27.1,5.61-27.1,9.68,14.71,0,27.68c0,0,4.26-3.87,5.81-1.55S430,146,422.44,154.74s5.42-1,6.39,4.84-16.65,20.71-16.65,20.71Z"/><path id="svg_190" data-name="svg 190" class="cls-28" d="M409,185.57s7.37-11.66,9.27-32.66,8.26-28.17,8.81-39.17a25.33,25.33,0,0,1-1.86,11.89,101.28,101.28,0,0,0-6.11,28.93c-.63,10.45-3.94,32-10.11,31Z"/><path id="svg_191" data-name="svg 191" class="cls-29" d="M414.33,207.26s3.57-13.94,2.92-24-1.94-20.09,2.92-14.58c0,0-1.79-15.58,2.12-17.35s2.85,3.37,4.27,3.37,1.24-21.51,10.31-20.8.18,17.78-4.44,21.87,4.8-3,6.4.71S431,170.7,426.74,172.3s3.91-1.6,4.44,1.07-.43,5.12-7.41,12.78-9.44,21.09-9.44,21.09Z"/><path id="svg_192" data-name="svg 192" class="cls-30" d="M415.69,200.69s-3-7.85,5.8-23.35,8.16-19.71,11.11-32.43c0,0-1.81,5.48-2.77,10.16-1.77,8.67-6.1,17.07-9.72,23-4.6,7.56-9.18,20.33-4.42,22.61Z"/><path id="svg_193" data-name="svg 193" class="cls-24" d="M414.33,207.26s-1.64-15.83-9.48-23.66-4.6-10.83-1.15-10.37-7.83-4.15-9.44-11.52,2.76-6.68,5.53-5.3-3.46-9.21-5.88-15.9-6.37-21.44,4.26-23.5c4.66-.9,13.83.69,9.68,29.72s-1.15,0,4.38.93-1.38,20.27,0,20.5,2-4.42,4.84-3.22,1.33,36.77-2.74,42.32Z"/><path id="svg_194" data-name="svg 194" class="cls-30" d="M414.33,207.26s1.5-13.71-6-33.42-6-24.52-7.14-39.93a122.43,122.43,0,0,1,1.41,12.38c.5,10.46,4,21.07,7.21,28.67,4,9.67,10.51,30.49,4.52,32.3Z"/><path id="svg_195" data-name="svg 195" class="cls-31" d="M388,203.78s7.32-10.95,5.83-16.26,2.21-5,3.3-9.3,5.11-10.76-3.15-14.93-5-9.08-7.87-8.34.48,4.34-2.65,6.59.4,18.22,1.35,25.14,5.71,10,3.19,17.1Z"/><path id="svg_196" data-name="svg 196" class="cls-31" d="M376.27,202.18s1-9,4.28-15,2.77-20.58-6.75-20.65-9.81,1.53-13.14-3.15-3.37-7.3-5.15-11.61-7.57-3.33-8.22-6.4-.63-10.61-3.74-11.51-8.8-4.94-10.1-.55-4.32,1-1.48,11-4.29,7.81,1.36,15,10.57,3.21,13.11,9,10.6,6,13.16,12.12,17.42,12,16.67,21.88Z"/><path id="svg_197" data-name="svg 197" class="cls-32" d="M382.24,199.91s5.6-5.12,5.18-11.35,1.44-15.51-2.66-19.64-5.68-4-4.45-12.45-3.46-23.68-11.66-22.43-6.61-5.21-9.53-6.81-8.9.68-6.83,9.54-2.27,4.51,1.07,13.63,21.23,43.45,28.88,49.51Z"/><path id="svg_198" data-name="svg 198" class="cls-33" d="M379.79,213a8.21,8.21,0,0,0-1.18-6.38,30.34,30.34,0,0,1-4.77-15.86c-.41-8.21-12.17-21.42-19-26.36s-12-8.3-15.26-13.25-7.86-13.88-8.37-13.48,5.34,16.37,16.69,24.25,19.32,18.5,21.23,22.81,3.72,16.68,7.33,22.69l3.61,6Z"/><path id="svg_199" data-name="svg 199" class="cls-33" d="M381.63,215.33s2.81-19.42,1.49-25.37.61-16.8-10.69-30.09-20-28.78-20.19-28.61,3.08,7.81,7.45,13.69,16.58,21.22,18.42,26S380,214.56,380,214.56Z"/><path id="svg_200" data-name="svg 200" class="cls-33" d="M381.8,214.1S387.22,204,388,201.71c5.15-26.41-2.5-34.59-1.5-35.36s4.54,7.84,3.86,22.71a61.63,61.63,0,0,1-6.51,25.21Z"/><path id="svg_201" data-name="svg 201" class="cls-34" d="M381.78,212.28c-.21-.06-12.51-4.37-16.91,6.09s-2,13.51.21,17.09,6.77,5.41,7,11.8-1.49,5.19-1.49,5.19.43,1.87,2.9-1.33,5.61-7,5.93-9.16,4.74.09,9.1-5.29,3.59-12.51,2.68-15.47-2.54-6.85-9.47-8.92Z"/><path id="svg_202" data-name="svg 202" class="cls-35" d="M342.71,214.28s7.82,0,10.7,4,5.91,7,7.5,8,1.6,23.64-27.15,35.93-29.7,2.24-21.71-24,30.66-24,30.66-24Z"/><path id="svg_203" data-name="svg 203" class="cls-36" d="M284.4,225a21.17,21.17,0,0,0-6.86,11.76c-1.54,7.82,1.95,16.22,8.13,21.25s14.71,6.77,22.55,5.32c8.17-1.51,16.18-7.16,17.74-15.33.72-3.75,0-7.63-1-11.32-1.45-5.18-3.7-10.34-7.69-14-8.13-7.36-25.15-4.49-32.87,2.28Z"/><path id="svg_204" data-name="svg 204" class="cls-4" d="M291.69,232c2.27-3.71,4.83-7.67,8.92-9.16a10.09,10.09,0,0,1,12.31,5.43c-1.29-3.1-3-6.22-5.79-8a9.26,9.26,0,0,0,3.36-7.21l-7.58,6.3,2.67-8.92-5.92,8.85,1.91-9.63L297.24,219a18.51,18.51,0,0,0-10.09-8l6.8,6.16-11.28.85a22,22,0,0,0,6,2.68c1.54.42,3.89.46,5.14,1.58,1.52,1.35.9,2.15.16,3.81s-1.32,4.29-2.31,5.91Z"/><path id="svg_205" data-name="svg 205" class="cls-36" d="M322.61,219.77A21.26,21.26,0,0,0,319,232.9c.52,8,6,15.18,13.32,18.45a28,28,0,0,0,23.15-.65c7.51-3.56,13.8-11.08,13.22-19.37-.28-3.82-1.94-7.39-3.89-10.69-2.73-4.63-6.22-9-11-11.51-9.76-5-25.46,2.13-31.18,10.64Z"/><path id="svg_206" data-name="svg 206" class="cls-4" d="M331.44,224.66c1.24-4.17,2.71-8.65,6.27-11.14A10.08,10.08,0,0,1,351,215.6c-2-2.67-4.47-5.25-7.66-6.28a9.31,9.31,0,0,0,1.39-7.83l-5.7,8c.09-3.1.19-6.21.28-9.31l-3.44,10.08c-.21-3.27-.42-6.53-.64-9.8l-1.77,10.14a18.53,18.53,0,0,0-11.81-5.1l8.16,4.21-10.68,3.71a21.47,21.47,0,0,0,6.51,1c1.6,0,3.88-.55,5.38.21,1.81.91,1.42,1.85,1.13,3.64s-.17,4.48-.72,6.31Z"/><path id="svg_207" data-name="svg 207" class="cls-37" d="M471.71,186.47l-3.3,17.26c-.54,2.81-1.7,6.23-4.54,6.55-2.46.29-4.38-2.08-5.46-4.31a42.06,42.06,0,0,1-3.32-10.85c-.37-1.94-.67-3.89-1-5.83-.69-4.63-1.34-9.57.06-13.93a13.49,13.49,0,0,1,1-2.35l.31-.55c1-1.68,2-2.45,3.56-2.56a.76.76,0,0,0,.38.28c.39.17.79.34,1.19.49h0a7.76,7.76,0,0,0,2.56.58,4,4,0,0,0,.84-.06,3.52,3.52,0,0,0,2.29-1.24h0l.2-.34c2.8.8,4.94,3.57,5.66,6.48.83,3.4.18,7-.48,10.4Z"/><path id="svg_208" data-name="svg 208" class="cls-38" d="M472.37,153.18a64.71,64.71,0,0,1-2.56,9.38,41.89,41.89,0,0,1-3.28,7.06l-.2.34h0A3.52,3.52,0,0,1,464,171.2a16.25,16.25,0,0,1,1.84-3.47,13.63,13.63,0,0,0,2-4.26c.23-.7.49-1.36.77-2h0c1.21-2.81,2.72-5.3,3.74-8.3Z"/><line id="svg_209" data-name="svg 209" class="cls-39" x1="459.84" y1="153.48" x2="459.84" y2="153.41"/><path id="svg_210" data-name="svg 210" class="cls-39" d="M459.66,150.18v0"/><line id="svg_211" data-name="svg 211" class="cls-39" x1="459.84" y1="153.48" x2="459.84" y2="153.41"/><path id="svg_212" data-name="svg 212" class="cls-38" d="M461.87,170a5.64,5.64,0,0,1-1.27.65h0c-.4-.15-.8-.32-1.19-.49a.76.76,0,0,1-.38-.28c-.07-.15,0-.36.16-.37a22.65,22.65,0,0,1-2.7-5.47c-1-2.6-1.66-5.33-2.62-7.87a44,44,0,0,0-8.33-13.7c4.37,3.67,8.12,8.28,9.65,13.78a31.84,31.84,0,0,0,1.33,4.26c.78,2.06.45,1.48,2.06,3,0,2,1.58,5.4,3.29,6.45Z"/><path id="svg_213" data-name="svg 213" class="cls-40" d="M465.46,147.81c-.17-2.35-.35-4.7-.52-7.05a8.79,8.79,0,0,0-.11-1.14h0a5.88,5.88,0,0,0-.36-1.43c-.43-1.06-1.28-1.91-1.7-3s-.35-2-.65-3S461,130.25,460,130.3a2.89,2.89,0,0,0-2,1.48,29.34,29.34,0,0,0-4.75,10.51,2.33,2.33,0,0,1-.1.44,2.11,2.11,0,0,0,0,1c.28.88,1.57,1.06,1.9,1.91A2.24,2.24,0,0,1,455,147c-.26,1.12-.28,2.52.67,3.18a2.72,2.72,0,0,1,.78.56c.32.48,0,1.11-.18,1.66a3.07,3.07,0,0,0,1.54,3.53,2.89,2.89,0,0,0,.8,4,3.29,3.29,0,0,0,.49.26c.18-.87.38-1.73.52-2.61a23.36,23.36,0,0,0,.25-4.18c.14,2.73.25,5.3.28,7.29a8.48,8.48,0,0,0,.11,1.13c.69-1.36,1.7-3,2.39-4.37l.17-.35a8.61,8.61,0,0,0,1-2.77A13.42,13.42,0,0,1,464,152c.31-1.13,1.36-2,1.55-3.13a4.05,4.05,0,0,0,0-1.1Zm-5.92.95c-.36-4.15-.71-7.95-1.07-12.1.09-1.56.73,5.84,1.18,13.42,0-.45-.07-.88-.11-1.32Zm.12,1.44c.09,1.07.16,2.15.18,3.22Z"/><path id="svg_214" data-name="svg 214" class="cls-41" d="M472.22,140.58c-.33,1.79-1.21,4.36-1.2,6.42h0c-.68,1.39-2.4,2.14-3.17,3.53a4.5,4.5,0,0,0-.48,2.19h0a50,50,0,0,0-.8,6.09,14.29,14.29,0,0,1-.24,2.06,21,21,0,0,1-.74,2.2c-.18.52-.33,1-.48,1.58a13.84,13.84,0,0,1-2.49-7.15l.17-.35a8.61,8.61,0,0,0,1-2.77,13.42,13.42,0,0,1,.15-2.37c.31-1.13,1.36-2,1.55-3.13a5.06,5.06,0,0,0,0-1.1c-.17-2.35-.35-4.7-.52-7.05a8.79,8.79,0,0,0-.11-1.14h0c.53-.8,1.6-1.77,1.94-2.35.75-1.29-.44-3.39.79-4.21.55-.37,1.46-.33,1.67-.95.09-.26,0-.55.12-.8.19-.5,1-.51,1.35-.14a2.44,2.44,0,0,1,.57,1.46c.28,1.74.55,3.48.83,5.21a8.46,8.46,0,0,1,.12,2.75Z"/><path id="svg_215" data-name="svg 215" class="cls-42" d="M459.07,160.27a17.6,17.6,0,0,0-.47,3.31c-1.61-1.57-1.28-1-2.06-3.05a31.84,31.84,0,0,1-1.33-4.26c-1.53-5.5-5.28-10.11-9.65-13.78a44.17,44.17,0,0,1,8.31,13.69c1,2.54,1.67,5.27,2.62,7.87a4.57,4.57,0,0,1-3.93-4,1.88,1.88,0,0,0-.19-.84c-.27-.39-.82-.42-1.25-.61-1.29-.58-1.3-2.37-1.9-3.66-.91-2-3.39-2.81-4.45-4.72s-.53-4.13-1.6-5.86c-.44-.72-1.11-1.27-1.62-2A2.48,2.48,0,0,1,441,140c.47-1.1,1.92-1.3,3.12-1.34,1.42,0,3,0,4,1.1a7.25,7.25,0,0,0,.68.87c1,.87,3.62.69,4.46,1.67a2.33,2.33,0,0,1-.1.44,2.11,2.11,0,0,0,0,1c.28.88,1.57,1.06,1.9,1.91a2.24,2.24,0,0,1-.07,1.4c-.26,1.12-.28,2.52.67,3.18a2.72,2.72,0,0,1,.78.56c.32.48,0,1.11-.18,1.66a3.07,3.07,0,0,0,1.54,3.53,2.89,2.89,0,0,0,.8,4,3.29,3.29,0,0,0,.49.26Z"/><path id="svg_217" data-name="svg 217" class="cls-43" d="M481.87,148.77c.1,2.11-3.14,3.1-3.29,5.21a10,10,0,0,1,0,1.55c-.35,1.25-2.14,1.33-3,2.28a15.29,15.29,0,0,0-1,1.69,4.48,4.48,0,0,1-1.32,1c-1.13.68-2.27,1.35-3.41,2a64.71,64.71,0,0,0,2.56-9.38c-1,3-2.53,5.49-3.74,8.3-1.52-2.13-.83-4.38-1.13-7h0a15.81,15.81,0,0,1-.12-1.68h0a4.5,4.5,0,0,1,.48-2.19c.77-1.39,2.48-2.14,3.17-3.53h0a1.14,1.14,0,0,0,.15-.36,14.38,14.38,0,0,1,.52-2.13c.62-1.17,2.19-1.36,3.41-1.89.76-.34,1.44-.85,2.22-1.15a2.29,2.29,0,0,1,2.35.21c1,.94.4,2.68.82,4,.32,1.08,1.37,1.92,1.42,3.06Z"/><path id="svg_218" data-name="svg 218" class="cls-38" d="M463.74,168.18a1.43,1.43,0,0,1-.14.2,6.14,6.14,0,0,1-1.7,1.67h0c-1.71-1-3.33-4.45-3.29-6.45a17.5,17.5,0,0,1,.47-3.3c.18-.87.38-1.73.52-2.61a23.36,23.36,0,0,0,.25-4.18c.14,2.73.25,5.3.28,7.29a8.48,8.48,0,0,0,.11,1.13c.39,2.14,2.07,4.48,3.51,6.25Z"/><path id="svg_219" data-name="svg 219" class="cls-38" d="M468.63,161.45h0c-.28.65-.54,1.31-.77,2a13.42,13.42,0,0,1-2,4.26,16.25,16.25,0,0,0-1.84,3.47,4,4,0,0,1-.84.06,7.76,7.76,0,0,1-2.56-.58,5.44,5.44,0,0,0,1.27-.65h0a6.14,6.14,0,0,0,1.7-1.67,1.43,1.43,0,0,0,.14-.2h0a12.73,12.73,0,0,0,1.36-3.46c.15-.54.3-1.06.48-1.58a21,21,0,0,0,.74-2.2,14.29,14.29,0,0,0,.24-2.06,50,50,0,0,1,.8-6.09,15.81,15.81,0,0,0,.12,1.68h0c.3,2.6-.39,4.85,1.13,7Z"/><path id="svg_220" data-name="svg 220" class="cls-44" d="M282.14,233.35a9.57,9.57,0,0,1-2.85,2.71c-2.62-1.58-4.84-7-4.77-10a24.21,24.21,0,0,1,.85-5,18.76,18.76,0,0,0,.65-4c.13-4.74-.57-8.88-1-13.41-.54-6.33-.2-12.34-.75-18.68.22-3.62,2.32,24.3,2.52,36.84a10.73,10.73,0,0,0,.26,2.18,23.6,23.6,0,0,0,5,9.39Z"/><path id="svg_221" data-name="svg 221" class="cls-45" d="M279.29,236.06a8.28,8.28,0,0,1-1.69.83h0c-.61-.23-1.21-.48-1.81-.74a1.09,1.09,0,0,1-.58-.43h0c-.11-.21,0-.55.24-.56a35.31,35.31,0,0,1-4.13-8.35h0c-1.45-4-2.54-8.13-4-12a67.07,67.07,0,0,0-12.72-20.93c6.67,5.61,12.41,12.65,14.74,21a50.83,50.83,0,0,0,2,6.5c1.2,3.15.68,2.26,3.16,4.66-.07,3,2.15,8.42,4.77,10Z"/><path id="svg_222" data-name="svg 222" class="cls-46" d="M285,203.65c-.31,1.77-1.89,3.06-2.38,4.79a20.9,20.9,0,0,0-.23,3.62,12.67,12.67,0,0,1-1.45,4.22l-.27.56c-1.1,2.25-2.51,4.95-3.56,7.12a10.73,10.73,0,0,1-.26-2.18c-.2-12.54-2.3-40.46-2.52-36.84.55,6.34.2,12.35.75,18.68.39,4.53,1.09,8.67,1,13.41a18.76,18.76,0,0,1-.65,4h-.14c-2.43-.87-3.65-4.43-2-6.51a4.68,4.68,0,0,1-2.33-5.39c.26-.84.77-1.81.26-2.54a4.16,4.16,0,0,0-1.18-.86c-1.45-1-1.43-3.15-1-4.86a3.48,3.48,0,0,0,.11-2.14c-.53-1.3-2.5-1.57-2.92-2.91a2.8,2.8,0,0,1,0-1.35h0v-.15a44.44,44.44,0,0,1,7.41-16.73c.76-1.07,1.74-2.19,3-2.26,1.55-.07,2.76,1.41,3.21,2.89s.43,3.09,1,4.54c.62,1.63,1.93,2.92,2.59,4.55a8.69,8.69,0,0,1,.55,2.19c.08.59.13,1.17.16,1.75.27,3.58.53,7.18.8,10.76a7.86,7.86,0,0,1,0,1.68Z"/><path id="svg_223" data-name="svg 223" class="cls-44" d="M295.55,210.18a106.11,106.11,0,0,1-3.62,14.16,52.34,52.34,0,0,1-5.3,11,5.16,5.16,0,0,1-3.42,2.38,9.93,9.93,0,0,0,2-2.68,21.78,21.78,0,0,0,1.85-5h0a35.53,35.53,0,0,0,1.57-4.09c.35-1,.76-2.07,1.18-3,1.84-4.3,4.16-8.1,5.72-12.7Z"/><path id="svg_224" data-name="svg 224" class="cls-47" d="M310.13,203.44c.14,3.23-4.81,4.73-5,8a11.63,11.63,0,0,1,0,2.36c-.51,1.91-3.25,2-4.6,3.49-.7.74-1,1.8-1.62,2.6a7.33,7.33,0,0,1-2,1.54c-1.65,1-3.29,1.94-4.93,2.9a103.14,103.14,0,0,0,3.62-14.16c-1.56,4.6-3.88,8.4-5.72,12.7-2.32-3.26-1.27-6.71-1.72-10.67v-.08c.06-1.51.13-3,.2-4.53q-.21.94-.39,1.89a7,7,0,0,1,.74-3.29c1-1.89,3.24-3,4.45-4.74h0a4.33,4.33,0,0,0,.62-1.21c.36-1.06.26-2.26.79-3.25.95-1.8,3.35-2.07,5.21-2.89,1.17-.52,2.2-1.3,3.38-1.76a3.55,3.55,0,0,1,3.61.33c1.59,1.42.61,4.09,1.23,6.14.51,1.66,2.1,3,2.19,4.68Z"/><path id="svg_225" data-name="svg 225" class="cls-48" d="M295.32,190.94c-.63,3.37-3.18,7.16-2.22,10.46h0c-1.21,1.73-3.41,2.85-4.45,4.74a7,7,0,0,0-.74,3.29,82.32,82.32,0,0,0-1.23,9.39,20.81,20.81,0,0,1-.36,3.15,30.83,30.83,0,0,1-1.13,3.36c-.23.67-.44,1.36-.63,2a18.85,18.85,0,0,1-3.91-10.55c.1-.19.18-.37.27-.56a12.67,12.67,0,0,0,1.45-4.22,23.09,23.09,0,0,1,.23-3.62c.49-1.73,2.08-3,2.38-4.79a5.91,5.91,0,0,0,0-1.68c-.27-3.58-.52-7.17-.79-10.76a15,15,0,0,0-.16-1.75c.24-1.28,2.3-2.48,3-3.61,1.14-2-.68-5.17,1.21-6.43.84-.56,2.23-.49,2.55-1.45.14-.39,0-.83.16-1.22.3-.77,1.49-.78,2.08-.21a3.87,3.87,0,0,1,.88,2.23c.42,2.66.84,5.32,1.26,8a12.41,12.41,0,0,1,.18,4.21Z"/><path id="svg_226" data-name="svg 226" class="cls-48" d="M275.37,221.05a24.21,24.21,0,0,0-.85,5c-2.48-2.4-2-1.51-3.16-4.66a50.83,50.83,0,0,1-2-6.5c-2.33-8.4-8.07-15.44-14.74-21a67.07,67.07,0,0,1,12.72,20.93c1.46,3.88,2.55,8.05,4,12h0a7,7,0,0,1-6-6.14,2.55,2.55,0,0,0-.28-1.3c-.41-.59-1.25-.65-1.91-.94-2-.88-2-3.62-2.9-5.58-1.4-3-5.19-4.3-6.8-7.21-1.51-2.72-.81-6.31-2.45-9-.68-1.1-1.7-1.94-2.47-3a3.77,3.77,0,0,1-.82-3.62c.7-1.69,2.93-2,4.76-2,2.17-.06,4.66,0,6.07,1.67a11.85,11.85,0,0,0,1,1.33c1.62,1.47,5.86,1.35,6.63,3.38h0a2.8,2.8,0,0,0,0,1.35c.43,1.34,2.39,1.61,2.92,2.91a3.48,3.48,0,0,1-.11,2.14c-.41,1.71-.43,3.85,1,4.86a4.16,4.16,0,0,1,1.18.86c.51.73,0,1.7-.26,2.54a4.68,4.68,0,0,0,2.33,5.39c-1.66,2.08-.44,5.64,2,6.51h.14Z"/><path id="svg_227" data-name="svg 227" class="cls-48" d="M289.87,222.83c-.42,1-.83,2-1.18,3a35.53,35.53,0,0,1-1.57,4.09c.3-1,.56-2.12.83-3.17,1.1-4.15-.08-8.63.11-12.93,0-.6.06-1.2.08-1.79v.08c.45,4-.6,7.41,1.72,10.67Z"/><path id="svg_228" data-name="svg 228" class="cls-5" d="M287.87,226.8c-.27,1-.53,2.12-.83,3.17h0a10.79,10.79,0,0,1-1.46,2.38,12.12,12.12,0,0,0-1.53,2.51c-.45.92-.84,1.9-1.27,2.82h0a7.79,7.79,0,0,1-1.28.08,11.92,11.92,0,0,1-3.9-.9,8.28,8.28,0,0,0,1.69-.83,9.66,9.66,0,0,0,2.84-2.71,2.35,2.35,0,0,0,.23-.32,20.77,20.77,0,0,0,2.19-5.63h0c.19-.69.4-1.38.63-2a30.83,30.83,0,0,0,1.13-3.36,20.81,20.81,0,0,0,.36-3.15,82.32,82.32,0,0,1,1.23-9.39,23.43,23.43,0,0,0,.19,2.64,13.48,13.48,0,0,1-.08,1.79c-.19,4.3,1,8.78-.11,12.93Z"/><path id="svg_229" data-name="svg 229" class="cls-49" d="M295.26,257.07c-21,7.91-28.66-.86-28.66-.86a33,33,0,0,1,1.16-12.15h0a22,22,0,0,1,1.52-3.57c.17-.3.32-.59.48-.84,1.51-2.57,3-3.76,5.45-3.93h0a1,1,0,0,0,.57.43c.6.26,1.2.51,1.82.74h0a11.92,11.92,0,0,0,3.9.9,7.79,7.79,0,0,0,1.28-.08h0l.41-.08a5.11,5.11,0,0,0,3.41-2.38c4.29,1.23,7.56,5.45,8.65,9.9,1,3.9.63,7.94,0,11.92Z"/><path id="svg_230" data-name="svg 230" class="cls-49" d="M285.21,235a9.93,9.93,0,0,1-2,2.68l-.41.08c.43-.92.82-1.9,1.27-2.82a7.2,7.2,0,0,1,1.14.06Z"/><path id="svg_231" data-name="svg 231" class="cls-50" d="M579.55,178.09c-33.25-16.88-80.74-3.16-80.74-3.16l5,29.29,24.28,14.25,51.72-13.2Z"/><path id="svg_232" data-name="svg 232" class="cls-51" d="M444.61,732.43l47.1-15s6.26,74.38-2.67,117c0,0-31.17,30.75-59.11,24.81,0,0-10-5,26.86-40.28,0,0,4.28-18.83-12.18-86.46Z"/><path id="svg_233" data-name="svg 233" class="cls-51" d="M599.37,712.85l46.69-16.25s8.2,74.19.38,117c0,0-30.36,31.56-58.44,26.34,0,0-10.12-4.73,25.79-41,0,0,3.8-18.94-14.42-86.11Z"/><path id="svg_234" data-name="svg 234" class="cls-52" d="M403.55,325.77s1,338.13,31.66,415.18c0,0,22.17,39.58,61.22-5.81,0,0,12.14-218,49.08-214.27s30.08,67,30.08,67-6.86,159.38,54.89,147.24c0,0,39.06,11.61,49.61-193.68S684.84,343,684.84,343l-1.06-49.61-38-25.86L646.3,191l-16.88-5.27-12.67,71.77-213.21,4.75Z"/><path id="svg_235" data-name="svg 235" class="cls-53" d="M403.55,368.35V304L327,349.35,303.8,387.88l-7.92-9-38.52,33.3s36.41,66,61.22,47,85-90.78,85-90.78Z"/><path id="svg_236" data-name="svg 236" class="cls-53" d="M552.37,290.77,536,339.85s65.44,27.45,153,28.5,111.36-40.64,96.58-81.27-85-89.19-139.33-96l-.79,76.26L675,288.92Z"/><path id="svg_237" data-name="svg 237" class="cls-53" d="M505.67,194.46s7.91,6.33,39.58,5.27,28.5-8.44,34.3-21.64l50,7.84.16,80.3H465l11.61-91.3h22.17s-1.06,15.3,6.86,19.53Z"/><path id="svg_238" data-name="svg 238" class="cls-54" d="M257.09,411.89,298.26,376s-35.36-37.47-36.42-43.27,7.39-43.81-12.66-22.7c0,0-12.67,21.11-10.56,5.81S249.18,300,251.29,300s9-20.59-20.06-12.14-26.39,67.55,25.86,124Z"/><path id="svg_239" data-name="svg 239" class="cls-50" d="M535.75,181.79s-23.75,10-24.81-25.86,0-41.17,0-41.17l66,13.2s-2.63,51.19-13.72,54.88-27.44-1.05-27.44-1.05Z"/><path id="svg_240" data-name="svg 240" class="cls-55" d="M517.28,99.31s18.52,25.21,66.35,17.38c0,0,11.25-24.48-28.61-37.2C521.2,68.69,517.28,99.31,517.28,99.31Z"/><path id="svg_241" data-name="svg 241" class="cls-56" d="M515.69,100,465,97.88s6.33,14.25,73.89,30.08,98.69,10.55,98.69,10.55-13.2-11.08-54.36-21.63S515.69,100,515.69,100Z"/><path id="svg_242" data-name="svg 242" class="cls-57" d="M496.69,184.43c-2-24.86-17.41-17.42-17.41-17.42l-2.64,7.92s-1.32.79-3.43,9.23S431.78,214,353.67,238.79s-115,20-128.24,24.8S222.79,280,222.79,280s103.17,25.6,180.76,0,95.52-66.76,93.14-95.52Z"/><path id="svg_243" data-name="svg 243" class="cls-58" d="M282.87,359.29S332,356.48,415.39,322.7,522.52,292.09,503.53,204l-6.87-19.53s-19,34.83-124.55,67-149.35,28.5-149.35,28.5,3.59,54.19,60.11,79.34Z"/><path id="svg_244" data-name="svg 244" class="cls-54" d="M475.32,266.49c.67.31,4-13.32,5.93-12.46.09,0,4,3.94,4.1,4,21.84,24.62,61,25.45,67.93,26.05a.75.75,0,0,1,.68.81.58.58,0,0,1,0,.19l-21,63.17a.75.75,0,0,1-.93.48l-.13-.06c-35.21-18.93-81.28-39.43-97.12-53.68,0,0-22.69-15.3-16.89-33.25,3.79-11.71,31.14-20,61.75,4.75s-4.22,0-4.22,0Z"/><path id="svg_245" data-name="svg 245" class="cls-54" d="M465,248.35c5.12-5.18,20.85,9.7,20.85,9.7l-6.34,8.44h-4.22S460,253.42,465,248.35Z"/><line id="svg_246" data-name="svg 246" class="cls-59" x1="305.38" y1="389.99" x2="264.22" y2="429.57"/><path id="svg_247" data-name="svg 247" class="cls-59" d="M357.87,423.5s-42.22-43.8-47-44.86"/><path id="svg_248" data-name="svg 248" class="cls-59" d="M374.78,396.59s-27.28-40.91-50-44.47"/><path id="svg_249" data-name="svg 249" class="cls-59" d="M396.42,374.42S388,349.09,370,339.59"/><path id="svg_250" data-name="svg 250" class="cls-59" d="M713.6,367s12.14-39.58-4.22-72.3"/><path id="svg_253" data-name="svg 253" class="cls-59" d="M766.87,257.79s-79.17,8.44-57.53,36.94"/><path id="svg_254" data-name="svg 254" class="cls-59" d="M750.55,245.12S674,256.2,678.77,290c0,0,8.45,72.3,1.06,77"/><path id="svg_255" data-name="svg 255" class="cls-59" d="M733.66,228.76s-35.36,0-78.57,45.12"/><path id="svg_256" data-name="svg 256" class="cls-59" d="M713.6,215.57s-44.86,5.8-67.75,42.22"/><line id="svg_257" data-name="svg 257" class="cls-59" x1="679.83" y1="202.37" x2="645.85" y2="232.64"/><path id="svg_258" data-name="svg 258" class="cls-59" d="M629.69,238.79s-89.6,18.1-119.22,6.15"/><path id="svg_259" data-name="svg 259" class="cls-59" d="M508.6,232.64s91.53,6.68,120.56-23.41"/><path id="svg_260" data-name="svg 260" class="cls-59" d="M629.69,188.12S600.14,227.18,508.6,214"/><path id="svg_261" data-name="svg 261" class="cls-59" d="M600.14,182.32s-45.92,34.3-98.7,15.83"/><line id="svg_262" data-name="svg 262" class="cls-59" x1="655.02" y1="193.92" x2="645.85" y2="203.95"/><line id="svg_263" data-name="svg 263" class="cls-59" x1="546.83" y1="343.28" x2="573.22" y2="291.56"/><path id="svg_264" data-name="svg 264" class="cls-59" d="M573.22,349.09c-2.11-2.64,26.92-57.53,26.92-57.53"/><line id="svg_265" data-name="svg 265" class="cls-59" x1="624.94" y1="291.56" x2="600.13" y2="359.11"/><line id="svg_266" data-name="svg 266" class="cls-59" x1="646.05" y1="289.98" x2="624.94" y2="359.11"/><path id="svg_267" data-name="svg 267" class="cls-59" d="M655,367s18-69.66,12.67-77"/><path id="svg_268" data-name="svg 268" class="cls-59" d="M291.4,451.47s19.52-36.94,19.52-54.88,22.7,29.55,13.73,54.88"/></svg>