<svg id="Layer_1" data-name="Layer 1" xmlns="http://www.w3.org/2000/svg" viewBox="0 0 445 997.24"><defs><style>.cls-1{fill:#ebc081;}.cls-2{fill:#bf7c40;}.cls-3{fill:#a16c44;}.cls-4{fill:#77a275;}.cls-5{fill:#537d41;}</style></defs><title>21_2</title><path class="cls-1" d="M445,976.85c-27.65,9-55.62,18-84.61,20s-59.53-3.59-82.5-21.38c-30-23.26-42.07-62.3-62.74-94.17a192.08,192.08,0,0,0-85.06-71.58c-20.91-8.94-43.25-14.07-64.48-22.25s-42-20.06-54.76-38.89-15.47-45.8-1.62-63.83c10.39-13.53,28-19.8,45-21s34,2,50.93,3.81a331.8,331.8,0,0,0,175.94-29.41c26.15-12.29,50.64-28,77.27-39.21s56.18-12.61,85.07-12.61Z"/><path class="cls-2" d="M229.17,761.64a71.25,71.25,0,0,0,50.31,41.61c16.78,3.44,34.11.65,51-2.22,8.57-8.6,20.59-12.65,32.19-16.4a84.09,84.09,0,0,1,13.51-3.6l.4-.08.78-.11h0a30.88,30.88,0,0,1,7.06-.3h0a2.38,2.38,0,0,0,2.15-3.72c-4.76-6.87-13.75-19.56-19.79-26.53-1.25-1.44-2.45-2.91-3.58-4.45v-.05c-4.54-4.64-18.78-10.57-29.83-14a65.88,65.88,0,0,0-11-2.6c-10.77-1.15-21.45,2.23-32.25,3.19-13.07,1.21-26.79-1-39,3.81C244,739,238,744.06,232.12,749c-1.58,1.37-3.23,2.81-4,4.78C227.24,756.36,228.15,759.16,229.17,761.64Z"/><path class="cls-3" d="M238.45,761.41c11.54,3,23.22,5.35,35,7.34,1.68.3,3.36.58,5,.85,1.45.23,2.89.44,4.33.65,2.76.42,5.52.81,8.28,1.21q8.83,1.17,17.72,2.13l4.81.46,1.19.11c3.92.36,7.85.71,11.78,1l8.24.54c.73,0,1.44.07,2.15.12,2.47.13,5,.26,7.43.34,3,.09,5.94.23,8.91.27s6,.08,8.88.16a33.81,33.81,0,0,1,8.6,1.27,13.1,13.1,0,0,1,5.41,3.18l.4-.08a13.23,13.23,0,0,0-1.54-1.72,15.27,15.27,0,0,0-3.88-2.46,32,32,0,0,0-8.82-2.22c-6-.62-11.83-1.12-17.76-1.66l-6-.57-1.06-.1-10.66-1q-5.42-.5-10.81-1.05l-1.57-.15-5.3-.59c-5.89-.56-11.79-1.24-17.66-1.89l-6.86-.78-1.59-.18-9.23-1.05C262.07,764.14,250.29,762.68,238.45,761.41Z"/><path class="cls-3" d="M285.13,769a48.77,48.77,0,0,0-2.41-8.45,79.41,79.41,0,0,0-3.46-7.92,78.47,78.47,0,0,0-4.26-7.52,46.51,46.51,0,0,0-5.33-7,47.87,47.87,0,0,0,2.4,8.45,78.48,78.48,0,0,0,3.47,7.92A83,83,0,0,0,279.8,762,48.24,48.24,0,0,0,285.13,769Z"/><path class="cls-3" d="M315.64,773.14a29.18,29.18,0,0,0,.28-9.09,40.19,40.19,0,0,0-6.07-17,28.93,28.93,0,0,0-6-6.82c1,2.92,2.07,5.62,3.11,8.33s2,5.37,3,8.05,1.9,5.39,2.81,8.14,1.8,5.52,2.91,8.39Z"/><path class="cls-3" d="M337.26,774.68a30.11,30.11,0,0,0,4-11,38.38,38.38,0,0,0-3.41-23.15,30.16,30.16,0,0,0-7-9.35,99.91,99.91,0,0,1,4,10.58A71,71,0,0,1,338,763.38a98.78,98.78,0,0,1-.79,11.27Z"/><path class="cls-3" d="M285.55,767.72a30.51,30.51,0,0,0-7.33,2,46.62,46.62,0,0,0-12.8,7.57,30.34,30.34,0,0,0-5.24,5.5,42.8,42.8,0,0,0,7-2.72c2.22-1.07,4.36-2.22,6.45-3.46s4.14-2.57,6.14-4a43.77,43.77,0,0,0,5.77-4.84Z"/><path class="cls-3" d="M315.13,772.12c-2,2.45-3.8,4.74-5.76,6.89a74.34,74.34,0,0,1-6.17,6,67.89,67.89,0,0,1-6.85,5.21c-2.4,1.63-4.94,3.11-7.63,4.69a22.53,22.53,0,0,0,9.17-1.76A29.63,29.63,0,0,0,312,781a22.9,22.9,0,0,0,3.13-8.84Z"/><path class="cls-3" d="M337.84,774.39a34,34,0,0,0-6.56,3.26,56.64,56.64,0,0,0-11.06,9.07,34.08,34.08,0,0,0-4.48,5.81,34,34,0,0,0,6.56-3.26,57.31,57.31,0,0,0,11.05-9.07A34.65,34.65,0,0,0,337.84,774.39Z"/><path class="cls-4" d="M292.74,926a63,63,0,0,1,28.12-50.46c12.73-8.23,27.91-11.49,42.75-14.54,9.82,4.34,21,3.83,31.8,3.19a73.63,73.63,0,0,0,12.3-1.37l.34-.06.68-.16h0a28.58,28.58,0,0,0,5.91-2,21,21,0,0,0,4.17-2.58c1.2,11.34-5.07,22.27-9,33.16-.57,1.59-1.08,3.18-1.52,4.81V896c-2.28,5.29-12.1,14.73-20.1,21.06a57.71,57.71,0,0,1-8.27,5.68c-8.51,4.4-18.4,5.05-27.62,7.73-11.16,3.19-21.76,9.44-33.39,9.38-6.78,0-13.33-2.28-19.76-4.45a11.15,11.15,0,0,1-4.8-2.68C292.85,930.92,292.69,928.33,292.74,926Z"/><path class="cls-5" d="M300.46,923.17c8.56-6.17,17.43-11.87,26.46-17.28q1.93-1.17,3.88-2.31c1.12-.66,2.24-1.3,3.37-1.93,2.13-1.23,4.29-2.44,6.43-3.66q6.91-3.79,13.93-7.44l3.81-1.92,1-.48c3.12-1.55,6.25-3.1,9.4-4.59,2.2-1,4.41-2.07,6.61-3.09l1.74-.79c2-.9,4-1.8,6-2.67,2.42-1,4.82-2.09,7.25-3.08s4.91-2,7.28-3a30,30,0,0,0,6.67-3.81,11.56,11.56,0,0,0,3.45-4.36l.34-.06a10,10,0,0,1-.71,1.91,13.36,13.36,0,0,1-2.41,3.27,28.36,28.36,0,0,1-6.56,4.67c-4.73,2.43-9.39,4.72-14.1,7.06l-4.75,2.4-.85.42-8.46,4.26q-4.29,2.14-8.57,4.34l-1.25.63-4.18,2.18c-4.67,2.36-9.32,4.81-14,7.23l-5.4,2.84-1.26.66-7.27,3.83C319.06,913.34,309.82,918.31,300.46,923.17Z"/><path class="cls-5" d="M336.52,902a41.84,41.84,0,0,1,.73,7.74,69.79,69.79,0,0,1-.3,7.65,74,74,0,0,1-1.1,7.56,42.26,42.26,0,0,1-2.16,7.47,41.84,41.84,0,0,1-.73-7.74,69.61,69.61,0,0,1,.31-7.64,74.2,74.2,0,0,1,1.1-7.57A44.92,44.92,0,0,1,336.52,902Z"/><path class="cls-5" d="M360.33,888.72a25.92,25.92,0,0,1,3.16,7.4,35.16,35.16,0,0,1,.42,16,26.08,26.08,0,0,1-2.78,7.55c-.13-2.72-.09-5.3-.11-7.86s0-5.09-.1-7.61-.16-5-.29-7.61-.29-5.14-.3-7.85Z"/><path class="cls-5" d="M377.66,880.53a26.34,26.34,0,0,1,6.86,7.74,34,34,0,0,1,4.63,20.18,26.44,26.44,0,0,1-2.81,10,87.8,87.8,0,0,0-.1-10,63.53,63.53,0,0,0-1.43-9.6,62.31,62.31,0,0,0-2.88-9.25,85.09,85.09,0,0,0-4.27-9Z"/><path class="cls-5" d="M337.27,902.84a26.72,26.72,0,0,1-6.67.75,41.76,41.76,0,0,1-13-2.13,26.38,26.38,0,0,1-6.08-2.86,39,39,0,0,1,6.66,0c2.17.16,4.3.43,6.43.78s4.23.79,6.34,1.33a39,39,0,0,1,6.31,2.13Z"/><path class="cls-5" d="M360.24,889.72c-2.4-1.39-4.65-2.69-7-3.83a63.52,63.52,0,0,0-7-3,64.32,64.32,0,0,0-7.32-2.1c-2.51-.57-5.07-1-7.8-1.41a19.82,19.82,0,0,1,8.12-1.49,26.16,26.16,0,0,1,15.56,5.52,20.4,20.4,0,0,1,5.41,6.28Z"/><path class="cls-5" d="M378.23,880.53a30.36,30.36,0,0,1-6.45-.58,49.85,49.85,0,0,1-6.14-1.59,48,48,0,0,1-5.88-2.34,29.73,29.73,0,0,1-5.57-3.35,29.82,29.82,0,0,1,6.46.58,46.37,46.37,0,0,1,6.13,1.59,48.12,48.12,0,0,1,5.89,2.34,29.66,29.66,0,0,1,5.56,3.35Z"/></svg>