<svg id="Layer_1" data-name="Layer 1" xmlns="http://www.w3.org/2000/svg" viewBox="0 0 445 997.24"><defs><style>.cls-1{fill:#fbd2c0;}.cls-2{fill:#f8b517;}</style></defs><title>21_2</title><path class="cls-1" d="M243.34,682.53c5.55-2.83,11.48-6,14.15-11.67,2.18-4.59,1.76-9.94,1.3-15Q255.86,624,253,592.21c-1.81-19.79-7.07-128.56-36.6-128.52-24.34,0-22.24,64.33-17.92,79.4,7.27,25.35,23.06,46.55,26.84,73.25,2.25,15.85,3.46,39.12-4.72,53.4-5.26,9.18-17.59,14.88-26.2,22.26-6.42,5.49.23,15.6,7.82,11.9C216,697.1,229.67,689.53,243.34,682.53Z"/><path class="cls-1" d="M287.5,675.08a9.84,9.84,0,0,0,10.12,12.58c6.72-.47,12.93-2.07,16.86-7.53,6-8.42,10.54-18.06,18-25.26,4.21-4.08,9.48-7.54,11.54-13,1.41-3.75,1.08-7.9.73-11.89-3.79-43.35-1.49-93.83-16.44-135-8.78-24.21-23.52-47-30.31-12.23-5.62,28.77,1.58,61.94,6.32,90.32,3.91,23.4,17.44,39.69,8.75,62C306.68,651.38,291.84,660.47,287.5,675.08Z"/><path class="cls-2" d="M333.94,120.24l-.4.82a2.22,2.22,0,0,0-.28-.74Z"/><path class="cls-1" d="M338.52,50.61l-.34,3.72v.23c-.5,3-1.4,6.17-2.13,9l-.06.24a169.55,169.55,0,0,1-9.07,24.51c-.39.79-.74,1.59-1.14,2.43-3,6.5-5.72,13.6-2.88,20,1.74,3.93,5.19,6.52,9.17,8.46a2.71,2.71,0,0,1,1.22,1.17,2.22,2.22,0,0,1,.28.74l-2.3,4.73-4.76,9.77a95.89,95.89,0,0,1-31.34,30.22l-2.26,1.3c-6,3.37-12.47,6.22-18.85,9.09l-2.5,1.12-2.18,1c-.63.28-1.25.57-1.86.86-1.86.87-3.71,1.76-5.52,2.68-.6.3-1.19.6-1.78.92-.85.44-1.69.9-2.53,1.37-.61.33-1.21.66-1.8,1l-.31.19c-.78.45-1.56.92-2.32,1.4l-1.7,1.1-1,.65-1,.67-.3.22c-.54.39-1.08.78-1.61,1.2s-1,.77-1.49,1.18-.7.56-1,.86-.94.81-1.4,1.24l-.36.33c-.36.32-.71.66-1.05,1s-.92.91-1.36,1.38c-.21.21-.41.43-.6.65s-.63.68-.93,1C233.29,205.3,229.3,214,226,222.85L208.48,336.41l-7.25,46.88q-1.08,4.45-2.38,8.9c-9.89-17.7-11.11-39.74-8.48-60.15,3-23.47,10.48-46.23,12.9-69.76,3-29-1.76-58.88,5.16-87.24,5.36-21.95,21.39-46.23,41.76-54.1,5.93-2.29,18.75-2.23,18.75-2.23h0c5.28-2.16,12.42-4.56,13.18-7.31.53-2,1.22-6.81.81-8.82-1-5.34-19-8.35-21.77-13.06s-3-10.26-3-15.64a189.05,189.05,0,0,1,2.07-27.51,2.07,2.07,0,0,1,.12-.49l5-14.87c0-.07,0-.13.07-.2,3-7.09,6.42-15.3,12.07-20.51,4.8-4.47,11.06-7.12,17.43-8.76A39.85,39.85,0,0,1,307.72,0C320.09.82,331.16,10.25,335,22a54.35,54.35,0,0,1,2,9.36C338.12,39.33,338.85,42.69,338.52,50.61Z"/><path class="cls-1" d="M333.17,123.15a24.77,24.77,0,0,1-1.93,2.64l2.3-4.73A2.7,2.7,0,0,1,333.17,123.15Z"/><path class="cls-2" d="M426,379.18c-9.5,25.33-32.63,42.81-58.73,51.3q.69,83.87,1.36,167.73c.06,8.79-.37,18.77-7,24.53-4.29,3.71-10.23,4.73-15.87,5.3a156.49,156.49,0,0,1-61.88-6.21c-13.37-4.15-26.7-10.17-40.67-9.25C222,614,204.28,631.21,183,633c-1.74.15-3.68.13-5-1-1.61-1.39-1.64-3.82-1.54-6q3.78-83.73,13.07-167.1l11.68-75.57,7.25-46.88L226,222.9c3.26-8.83,7.25-17.55,13.42-24.66.3-.35.61-.69.93-1s.4-.44.6-.65c.44-.47.9-.93,1.36-1.38s.69-.68,1.05-1l.36-.33c.46-.42.93-.84,1.4-1.24s.69-.58,1-.86,1-.8,1.49-1.18,1.06-.81,1.61-1.2l.3-.22,1-.67,1-.65,1.7-1.1c.76-.48,1.54-.95,2.32-1.4l.31-.19c.59-.35,1.19-.69,1.8-1,.84-.47,1.68-.93,2.53-1.37.59-.31,1.18-.62,1.78-.92,1.81-.92,3.66-1.81,5.52-2.68.61-.29,1.23-.58,1.86-.86l2.18-1,2.5-1.12c6.38-2.87,12.81-5.72,18.85-9.09l2.26-1.3a95.89,95.89,0,0,0,31.34-30.22l4.76-9.77,2.3-4.73.4-.82.66-.07c3.4-.35,6.8-.61,10.2-.72,6.45-1.14,13.55-2.34,19.19,1,4,2.38,6.49,6.68,8.49,10.91,6.22,13.24,9.4,27.59,11.18,42.18q22.53,60.53,38.95,123.08C429.71,323.72,435.84,353,426,379.18Z"/></svg>