<svg id="Layer_1" data-name="Layer 1" xmlns="http://www.w3.org/2000/svg" viewBox="0 0 445 997.24"><defs><style>.cls-1{fill:#ebc081;}.cls-2{fill:#bf7c40;}.cls-3{fill:#a16c44;}.cls-4{fill:#77a275;}.cls-5{fill:#537d41;}.cls-6{fill:#fbd2c0;}.cls-7{fill:#f8b517;}</style></defs><title>21</title><path class="cls-1" d="M1920,4514.32c-27.65,9-55.62,18-84.61,20s-59.53-3.59-82.5-21.38c-30-23.26-42.07-62.3-62.74-94.17a192.09,192.09,0,0,0-85.06-71.58c-20.91-8.94-43.25-14.07-64.48-22.25s-42-20.06-54.76-38.89-15.47-45.8-1.62-63.83c10.39-13.53,28-19.8,45-21s34,2,50.93,3.81a331.8,331.8,0,0,0,175.94-29.41c26.15-12.29,50.64-28,77.27-39.21s56.18-12.61,85.07-12.61Z" transform="translate(-1474.99 -3537.47)"/><path class="cls-2" d="M1704.16,4299.11a71.23,71.23,0,0,0,50.31,41.61c16.78,3.44,34.11.65,51-2.22,8.57-8.6,20.59-12.65,32.19-16.4a83.88,83.88,0,0,1,13.51-3.6l.4-.08.78-.11,0,0a31.48,31.48,0,0,1,7.06-.3h0a2.38,2.38,0,0,0,2.15-3.72c-4.76-6.87-13.75-19.56-19.79-26.53-1.25-1.44-2.45-2.91-3.58-4.45l0-.05c-4.54-4.64-18.78-10.57-29.83-14a65.55,65.55,0,0,0-11-2.6c-10.77-1.15-21.45,2.23-32.25,3.19-13.07,1.21-26.79-1-39,3.81-7.13,2.84-13.11,7.87-19,12.8-1.58,1.37-3.23,2.81-4,4.78C1702.23,4293.83,1703.14,4296.63,1704.16,4299.11Z" transform="translate(-1474.99 -3537.47)"/><path class="cls-3" d="M1713.44,4298.88c11.54,3,23.22,5.35,35,7.34,1.68.3,3.36.58,5,.85,1.45.23,2.89.44,4.33.65,2.76.42,5.52.81,8.28,1.21q8.84,1.17,17.72,2.13l4.81.46,1.19.11c3.92.36,7.85.71,11.78,1l8.24.54c.73,0,1.44.07,2.15.12,2.47.13,5,.26,7.43.34,3,.09,5.94.23,8.91.27s6,.08,8.88.16a33.55,33.55,0,0,1,8.6,1.27,13.07,13.07,0,0,1,5.41,3.18l.4-.08a13.15,13.15,0,0,0-1.54-1.72,15.38,15.38,0,0,0-3.88-2.46,32,32,0,0,0-8.82-2.22c-6-.62-11.83-1.12-17.76-1.66l-6-.57-1.06-.1-10.66-1q-5.41-.49-10.81-1.05l-1.57-.15-5.3-.59c-5.89-.56-11.79-1.24-17.66-1.89l-6.86-.78-1.59-.18-9.23-1.05C1737.06,4301.61,1725.28,4300.15,1713.44,4298.88Z" transform="translate(-1474.99 -3537.47)"/><path class="cls-3" d="M1760.12,4306.42a48.89,48.89,0,0,0-2.41-8.45,79.7,79.7,0,0,0-3.46-7.92,78.47,78.47,0,0,0-4.26-7.52,46.92,46.92,0,0,0-5.33-7,47.76,47.76,0,0,0,2.4,8.45,77.51,77.51,0,0,0,3.47,7.92,83.33,83.33,0,0,0,4.26,7.52,48.31,48.31,0,0,0,5.33,7Z" transform="translate(-1474.99 -3537.47)"/><path class="cls-3" d="M1790.63,4310.61a29.2,29.2,0,0,0,.28-9.09,39.68,39.68,0,0,0-2.07-8.85,39.17,39.17,0,0,0-4-8.15,29,29,0,0,0-6-6.82c1,2.92,2.07,5.62,3.11,8.33s2,5.37,3,8.05,1.9,5.39,2.81,8.14,1.8,5.52,2.91,8.39Z" transform="translate(-1474.99 -3537.47)"/><path class="cls-3" d="M1812.25,4312.15a30.07,30.07,0,0,0,4-11,38.43,38.43,0,0,0-3.41-23.15,30.05,30.05,0,0,0-7-9.35,100.29,100.29,0,0,1,4,10.58,71.07,71.07,0,0,1,3.19,21.62,97.57,97.57,0,0,1-.79,11.27Z" transform="translate(-1474.99 -3537.47)"/><path class="cls-3" d="M1760.54,4305.19a30.22,30.22,0,0,0-7.33,2,46.68,46.68,0,0,0-12.8,7.57,30.45,30.45,0,0,0-5.24,5.5,42.86,42.86,0,0,0,7-2.72c2.22-1.07,4.36-2.22,6.45-3.46s4.14-2.57,6.14-4a43.93,43.93,0,0,0,5.77-4.84Z" transform="translate(-1474.99 -3537.47)"/><path class="cls-3" d="M1790.12,4309.59c-2,2.45-3.8,4.74-5.76,6.89a72.64,72.64,0,0,1-6.17,6,69,69,0,0,1-6.85,5.21c-2.4,1.63-4.94,3.11-7.63,4.69a22.49,22.49,0,0,0,9.17-1.76,29.65,29.65,0,0,0,14.11-12.19,22.86,22.86,0,0,0,3.13-8.84Z" transform="translate(-1474.99 -3537.47)"/><path class="cls-3" d="M1812.83,4311.86a33.72,33.72,0,0,0-6.56,3.26,56.8,56.8,0,0,0-11.06,9.07,33.83,33.83,0,0,0-4.48,5.81,33.72,33.72,0,0,0,6.56-3.26,53.55,53.55,0,0,0,5.81-4.19,56.07,56.07,0,0,0,5.24-4.88,34.67,34.67,0,0,0,4.49-5.81Z" transform="translate(-1474.99 -3537.47)"/><path class="cls-4" d="M1767.73,4463.43a63,63,0,0,1,28.12-50.46c12.73-8.23,27.91-11.49,42.75-14.54,9.82,4.34,21,3.83,31.8,3.19a74.46,74.46,0,0,0,12.3-1.37l.34-.06.68-.16h0a28.24,28.24,0,0,0,5.91-2,21.13,21.13,0,0,0,4.17-2.58c1.2,11.34-5.07,22.27-9,33.16-.57,1.59-1.08,3.18-1.52,4.81,0,0,0,.06,0,.09-2.28,5.29-12.1,14.73-20.1,21.06a57.77,57.77,0,0,1-8.27,5.68c-8.51,4.4-18.4,5.05-27.62,7.73-11.16,3.19-21.76,9.44-33.39,9.38-6.78-.05-13.33-2.28-19.76-4.45a11.11,11.11,0,0,1-4.8-2.68C1767.84,4468.39,1767.68,4465.8,1767.73,4463.43Z" transform="translate(-1474.99 -3537.47)"/><path class="cls-5" d="M1775.45,4460.64c8.56-6.17,17.43-11.87,26.46-17.28q1.93-1.17,3.88-2.31c1.12-.66,2.24-1.3,3.37-1.93,2.13-1.23,4.29-2.44,6.43-3.66q6.92-3.79,13.93-7.44c1.27-.65,2.54-1.28,3.81-1.92l1-.48c3.12-1.55,6.25-3.1,9.4-4.59,2.2-1,4.41-2.07,6.61-3.09l1.74-.79c2-.9,4-1.8,6-2.67,2.42-1,4.82-2.09,7.25-3.08s4.91-2,7.28-3a29.71,29.71,0,0,0,6.67-3.81,11.61,11.61,0,0,0,3.45-4.36l.34-.06a9.79,9.79,0,0,1-.71,1.91,13.49,13.49,0,0,1-2.41,3.27,28.4,28.4,0,0,1-6.56,4.67c-4.73,2.43-9.39,4.72-14.1,7.06l-4.75,2.4-.85.42-8.46,4.26q-4.29,2.14-8.57,4.34l-1.25.63-4.18,2.18c-4.67,2.36-9.32,4.81-14,7.23l-5.4,2.84-1.26.66-7.27,3.83C1794.05,4450.81,1784.81,4455.78,1775.45,4460.64Z" transform="translate(-1474.99 -3537.47)"/><path class="cls-5" d="M1811.51,4439.43a41.79,41.79,0,0,1,.73,7.74,72.15,72.15,0,0,1-.3,7.65,74.82,74.82,0,0,1-1.1,7.56,42.52,42.52,0,0,1-2.16,7.47,41.79,41.79,0,0,1-.73-7.74,69.41,69.41,0,0,1,.31-7.64,74.61,74.61,0,0,1,1.1-7.57,44.53,44.53,0,0,1,2.15-7.47Z" transform="translate(-1474.99 -3537.47)"/><path class="cls-5" d="M1835.32,4426.19a25.76,25.76,0,0,1,3.16,7.4,35.16,35.16,0,0,1,.42,16,26,26,0,0,1-2.78,7.55c-.13-2.72-.09-5.3-.11-7.86s0-5.09-.1-7.61-.16-5-.29-7.61-.29-5.14-.3-7.85Z" transform="translate(-1474.99 -3537.47)"/><path class="cls-5" d="M1852.65,4418a26.4,26.4,0,0,1,6.86,7.74,33.84,33.84,0,0,1,3.89,9.73,33.42,33.42,0,0,1,.74,10.45,26.45,26.45,0,0,1-2.81,10,87.33,87.33,0,0,0-.1-10,62.79,62.79,0,0,0-1.43-9.6,61.43,61.43,0,0,0-2.88-9.25,85.75,85.75,0,0,0-4.27-9Z" transform="translate(-1474.99 -3537.47)"/><path class="cls-5" d="M1812.26,4440.31a26.77,26.77,0,0,1-6.67.75,40.21,40.21,0,0,1-6.58-.55,40.81,40.81,0,0,1-6.41-1.58,26.7,26.7,0,0,1-6.08-2.86,39,39,0,0,1,6.66,0c2.17.16,4.3.43,6.43.78s4.23.79,6.34,1.33a39.07,39.07,0,0,1,6.31,2.13Z" transform="translate(-1474.99 -3537.47)"/><path class="cls-5" d="M1835.23,4427.19c-2.4-1.39-4.65-2.69-7-3.83a62.9,62.9,0,0,0-7-3,64,64,0,0,0-7.32-2.1c-2.51-.57-5.07-1-7.8-1.41a19.92,19.92,0,0,1,8.12-1.49,26.2,26.2,0,0,1,15.56,5.52,20.38,20.38,0,0,1,5.41,6.28Z" transform="translate(-1474.99 -3537.47)"/><path class="cls-5" d="M1853.22,4418a30.42,30.42,0,0,1-6.45-.58,49.39,49.39,0,0,1-6.14-1.59,47,47,0,0,1-5.88-2.34,29.42,29.42,0,0,1-5.57-3.35,29.82,29.82,0,0,1,6.46.58,47.13,47.13,0,0,1,6.13,1.59,48.76,48.76,0,0,1,5.89,2.34,29.88,29.88,0,0,1,5.56,3.35Z" transform="translate(-1474.99 -3537.47)"/><path class="cls-6" d="M1718.33,4220c5.55-2.83,11.48-6,14.15-11.67,2.18-4.59,1.76-9.94,1.3-15q-2.92-31.81-5.84-63.65c-1.81-19.79-7.07-128.56-36.6-128.52-24.34,0-22.24,64.33-17.92,79.4,7.27,25.35,23.06,46.55,26.84,73.25,2.25,15.85,3.46,39.12-4.72,53.4-5.26,9.18-17.59,14.88-26.2,22.26-6.42,5.49.23,15.6,7.82,11.9C1691,4234.57,1704.66,4227,1718.33,4220Z" transform="translate(-1474.99 -3537.47)"/><path class="cls-6" d="M1762.49,4212.55a9.83,9.83,0,0,0,10.12,12.58c6.72-.47,12.93-2.07,16.86-7.53,6-8.42,10.54-18.06,18-25.26,4.21-4.08,9.48-7.54,11.54-13,1.41-3.75,1.08-7.9.73-11.89-3.79-43.35-1.49-93.83-16.44-135-8.78-24.21-23.52-47-30.31-12.23-5.62,28.77,1.58,61.94,6.32,90.32,3.91,23.4,17.44,39.69,8.75,62C1781.67,4188.85,1766.83,4197.94,1762.49,4212.55Z" transform="translate(-1474.99 -3537.47)"/><path class="cls-7" d="M1808.93,3657.71l-.4.82a2.22,2.22,0,0,0-.28-.74Z" transform="translate(-1474.99 -3537.47)"/><path class="cls-6" d="M1813.51,3588.08l-.34,3.72,0,.23c-.5,3-1.4,6.17-2.13,9l-.06.24a169.11,169.11,0,0,1-9.07,24.51c-.39.79-.74,1.59-1.14,2.43-3,6.5-5.72,13.6-2.88,19.95,1.74,3.93,5.19,6.52,9.17,8.46a2.77,2.77,0,0,1,1.22,1.17,2.22,2.22,0,0,1,.28.74l-2.3,4.73-4.76,9.77a95.89,95.89,0,0,1-31.34,30.22l-2.26,1.3c-6,3.37-12.47,6.22-18.85,9.09l-2.5,1.12-2.18,1c-.63.28-1.25.57-1.86.86-1.86.87-3.71,1.76-5.52,2.68-.6.3-1.19.6-1.78.92-.85.44-1.69.9-2.53,1.37q-.92.49-1.8,1l-.31.19c-.78.45-1.56.92-2.32,1.4l-1.7,1.1-1,.65-1,.67-.3.22c-.54.39-1.08.78-1.61,1.2s-1,.77-1.49,1.18-.7.56-1,.86-.94.81-1.4,1.24l-.36.33c-.36.32-.71.66-1.05,1s-.92.91-1.36,1.38c-.21.21-.41.43-.6.65s-.63.68-.93,1c-6.17,7.11-10.16,15.83-13.42,24.66l-17.56,113.56-7.25,46.88q-1.08,4.46-2.38,8.9c-9.89-17.7-11.11-39.74-8.48-60.15,3-23.47,10.48-46.23,12.9-69.76,3-29-1.76-58.88,5.16-87.24,5.36-21.95,21.39-46.23,41.76-54.1,5.93-2.29,18.75-2.23,18.75-2.23h0c5.28-2.16,12.42-4.56,13.18-7.31.53-2,1.22-6.81.81-8.82-1-5.34-19-8.35-21.77-13.06s-3-10.26-3-15.64a189.26,189.26,0,0,1,2.07-27.51,2.07,2.07,0,0,1,.12-.49l5-14.87c0-.07.05-.13.07-.2,3-7.09,6.42-15.3,12.07-20.51,4.8-4.47,11.06-7.12,17.43-8.76a39.92,39.92,0,0,1,12.8-1.53c12.37.81,23.44,10.24,27.23,22a53.65,53.65,0,0,1,2,9.36C1813.11,3576.8,1813.84,3580.16,1813.51,3588.08Z" transform="translate(-1474.99 -3537.47)"/><path class="cls-6" d="M1808.16,3660.62a24.14,24.14,0,0,1-1.93,2.64l2.3-4.73A2.7,2.7,0,0,1,1808.16,3660.62Z" transform="translate(-1474.99 -3537.47)"/><path class="cls-7" d="M1901,3916.65c-9.5,25.33-32.63,42.81-58.73,51.3q.69,83.87,1.36,167.73c.06,8.79-.37,18.77-7,24.53-4.29,3.71-10.23,4.73-15.87,5.3a156.47,156.47,0,0,1-61.88-6.21c-13.37-4.15-26.7-10.17-40.67-9.25-21.27,1.41-38.94,18.63-60.18,20.4-1.74.15-3.68.13-5-1-1.61-1.39-1.64-3.82-1.54-6q3.78-83.73,13.07-167.1l11.68-75.57,7.25-46.88L1701,3760.37c3.26-8.83,7.25-17.55,13.42-24.66.3-.35.61-.69.93-1s.4-.44.6-.65c.44-.47.9-.93,1.36-1.38s.69-.68,1.05-1l.36-.33c.46-.42.93-.84,1.4-1.24s.69-.58,1-.86,1-.8,1.49-1.18,1.06-.81,1.61-1.2l.3-.22,1-.67,1-.65,1.7-1.1c.76-.48,1.54-.95,2.32-1.4l.31-.19q.89-.53,1.8-1c.84-.47,1.68-.93,2.53-1.37.59-.31,1.18-.62,1.78-.92,1.81-.92,3.66-1.81,5.52-2.68.61-.29,1.23-.58,1.86-.86l2.18-1,2.5-1.12c6.38-2.87,12.81-5.72,18.85-9.09l2.26-1.3a95.89,95.89,0,0,0,31.34-30.22l4.76-9.77,2.3-4.73.4-.82.66-.07c3.4-.35,6.8-.61,10.2-.72,6.45-1.14,13.55-2.34,19.19,1,4,2.38,6.49,6.68,8.49,10.91,6.22,13.24,9.4,27.59,11.18,42.18q22.53,60.52,38.95,123.08C1904.7,3861.19,1910.83,3890.43,1901,3916.65Z" transform="translate(-1474.99 -3537.47)"/></svg>