<svg id="Layer_1" data-name="Layer 1" xmlns="http://www.w3.org/2000/svg" viewBox="0 0 1920 5614"><defs><style>.cls-1{fill:#172d55;}.cls-2{fill:none;stroke:#010101;stroke-linecap:round;stroke-linejoin:round;stroke-width:1.1px;}.cls-3{fill:#ce2127;}.cls-4{fill:#fcda0d;}.cls-5{fill:#e65145;}.cls-6{fill:#e7f0df;}.cls-7{fill:#487f3b;}.cls-8{fill:#195a3a;}.cls-9{fill:#dfdbd0;}.cls-10{fill:#b2bf61;}.cls-11{fill:#e8eede;}.cls-12{fill:#503e30;}.cls-13{fill:#8bc298;}.cls-14{fill:#fbd2c0;}.cls-15{fill:#2b8a70;}.cls-16{fill:#7e5a3f;}.cls-17{fill:#f8b517;}.cls-18{fill:#295f86;}.cls-19{fill:#c87936;}.cls-20{fill:#fbd90a;}.cls-21{fill:#fbd901;}</style></defs><title>22</title><path class="cls-1" d="M549.43,4320.46a1,1,0,0,1-.24,0l-10.2-2.31a1.09,1.09,0,0,1-.84-1.21l2.25-17.52a1.09,1.09,0,0,1,2.17.27l-2.13,16.54,9.23,2.1a1.09,1.09,0,0,1-.24,2.16Z"/><path class="cls-1" d="M537.59,4327.4a1.07,1.07,0,0,1-.25,0l-10.2-2.32a1.08,1.08,0,0,1-.85-1.06v-21.54a1.1,1.1,0,1,1,2.19,0v20.66l9.35,2.13a1.09,1.09,0,0,1-.24,2.16Z"/><path class="cls-1" d="M419.37,4309.81l-.23,0-12.85-2.8a1.1,1.1,0,0,1-.85-1.24l3.64-22.55a1.07,1.07,0,0,1,1.25-.9,1.08,1.08,0,0,1,.91,1.25l-3.48,21.52,11.85,2.58a1.09,1.09,0,0,1-.24,2.16Z"/><path class="cls-1" d="M389.2,4330.49a1.07,1.07,0,0,1-.81-.36l-6.61-7.26a1.1,1.1,0,0,1-.28-.85l3.25-32.42a1.09,1.09,0,0,1,1.2-1,1.08,1.08,0,0,1,1,1.19l-3.21,31.93,6.29,6.9a1.09,1.09,0,0,1-.08,1.55,1,1,0,0,1-.73.29Z"/><path class="cls-1" d="M410.43,4317.08a1.1,1.1,0,0,1-1-.7l-3.91-10.06a1.1,1.1,0,0,1,2-.8l3.91,10.06a1.09,1.09,0,0,1-.62,1.42,1.14,1.14,0,0,1-.4.08Z"/><path class="cls-1" d="M378.58,4333.84a1.07,1.07,0,0,1-.39-.07,1.09,1.09,0,0,1-.63-1.41l4-10.62a1.1,1.1,0,0,1,2.05.78l-4,10.61a1.09,1.09,0,0,1-1,.71Z"/><line class="cls-2" x1="586.08" y1="4077.39" x2="586.05" y2="4077.37"/><path class="cls-3" d="M573.73,4118.1a58.25,58.25,0,0,0-19-3.85,104.64,104.64,0,0,1,10.4-18Z"/><path class="cls-3" d="M460.33,4148.9s6.35-8.79,2.57-14.1-5.57.44-5.57.44-3.11-11-7.13-9.9-4.37,6.32-4.37,6.32-3.47-10.95-6.95-7.68,2.88,17.67,2.88,17.67Z"/><path class="cls-4" d="M561.88,4277.25c-1.77,7.57-7.33,15.91-20.4,22.28-1.05.52-2.17,1-3.33,1.51a39.33,39.33,0,0,1-10.76,2.95c-22.81,2.74-35.72-19-42.59-23.53a1.89,1.89,0,0,1,.87-3.46c10.2-1,10.74,7.23,30.22-14.75,22.26-25.15,42.38-4.31,42.38-4.31,2.27,1.8,5.82,9.94,3.61,19.31Z"/><path class="cls-5" d="M580.18,4260.3l-18.3,16.95c2.21-9.37-1.34-17.51-3.61-19.31h21a1.36,1.36,0,0,1,.92,2.36Z"/><path class="cls-3" d="M491.83,4178.33a52.57,52.57,0,0,0-15,2.93l1.75-18.71a127.8,127.8,0,0,1,13.29,15.78Z"/><path class="cls-6" d="M478.54,4162.55l-1.75,18.71,0,0a32.29,32.29,0,0,0-9.85,5.67c-18.76,16-10.75,50.06-20,70.17-6.66,14.49-19.43,23.69-37.21,29a133.86,133.86,0,0,1-24,4.64,253,253,0,0,1-27.6,1.38c-45,0-80.9-89.76-75.69-85.29s20.11,4.24,20.11,4.24c-12.71-6.7-12.89-27.27-12.54-34.51a1.06,1.06,0,0,1,1.84-.68c6.5,6.8,32.11,29.24,77.76,17.14,53.47-14.16,28.13-39.11,62.77-49.92,9.75-3.05,19.59-.14,28.39,5.09a90.81,90.81,0,0,1,17.75,14.34Z"/><path class="cls-3" d="M466.9,4186.92s8.83,9.49,1.73,17.46-9.72-4.92-9.72-4.92Z"/><path class="cls-1" d="M683.42,4259.15a1,1,0,0,1-.58-.17,1.09,1.09,0,0,1-.35-1.5l6.89-11.07-8.33-39.78a1.09,1.09,0,0,1,.85-1.29,1.08,1.08,0,0,1,1.29.84l8.43,40.21a1.08,1.08,0,0,1-.15.8l-7.13,11.45a1.08,1.08,0,0,1-.92.51Z"/><path class="cls-1" d="M690.55,4247.71H672.91a1.1,1.1,0,0,1,0-2.2h17.64a1.1,1.1,0,0,1,0,2.2Z"/><path class="cls-1" d="M617,4239.82a1,1,0,0,1-.84-.39,1.09,1.09,0,0,1,.15-1.54l11.42-9.44.47-41.34a1.1,1.1,0,0,1,1.1-1.09h0a1.1,1.1,0,0,1,1.08,1.11l-.47,41.86a1.16,1.16,0,0,1-.4.83l-11.82,9.75a1.07,1.07,0,0,1-.7.25Z"/><path class="cls-1" d="M634.83,4243.21a1.11,1.11,0,0,1-1-.64l-6-13.14a1.09,1.09,0,1,1,2-.91l6,13.13a1.11,1.11,0,0,1-.54,1.46,1.22,1.22,0,0,1-.45.1Z"/><path class="cls-3" d="M633.22,4065.83c0,8.69-15.8,15-16.28,15.15h0a30.17,30.17,0,0,0-19-6.33,28.19,28.19,0,0,0-11.9,2.72h0c-1-.9-23-20.53-5.71-29.15C598,4039.4,598,4057,598,4057s0-8.82,8.82-8.82,17.62,8.79,8.85,17.59c.69-.32,17.59-8.6,17.59,0Z"/><path class="cls-7" d="M778.72,4229a111.56,111.56,0,0,0-7.3-15v0c.35-1.38,15.58-64.19,0-87.94-14.87-22.65-57.52,2.26-62.32,5.12-3.17-1.38-6.41-2.76-9.82-4.18,0,0,32.74-50.1,79.44-21.41,31.87,19.59,0,123.47,0,123.47Z"/><path class="cls-8" d="M771.41,4213.92a89.26,89.26,0,0,0-14.27-18.58v0c.44-1.38,15.54-50.71,0-60.72-15.75-10.13-38.71,6.9-38.71,6.9l-2.17-7.27c-2.39-1-4.75-2.08-7.16-3.13,4.79-2.86,47.45-27.77,62.31-5.12,15.59,23.75.35,86.56,0,87.94Z"/><path class="cls-9" d="M729.44,4178.44c-15.61,13-33.23,25.56-47.3,28a26.17,26.17,0,0,1-4.82.46c-15.34,0-33.64-8.89-48-19.81-10.44-7.9-18.8-16.88-22.52-24.3s-6.59-17-11.62-25.58a43.71,43.71,0,0,0-15.19-16,39.9,39.9,0,0,0-6.24-3.11l-8.62-21.86c5.25-7.31,12.34-14.93,20.92-18.87h0a28.24,28.24,0,0,1,11.91-2.72,30.1,30.1,0,0,1,18.95,6.33h0c12.34,8.91,23.5,25.48,60.38,37.78,8.52,2.84,15.56,5.53,22,8.16,3.41,1.42,6.65,2.8,9.82,4.18,2.41,1,4.78,2.1,7.16,3.13l2.16,7.27,4.38,14.71Z"/><path class="cls-10" d="M757.14,4195.32a72.18,72.18,0,0,0-15.41-11.78c.42-.83,11.21-22.06,6.42-28.67-4.36-6-21.65,0-25.35,1.34l-4.38-14.71s23-17,38.72-6.9c15.54,10,.44,59.34,0,60.72Z"/><path class="cls-7" d="M741.74,4183.54a47.11,47.11,0,0,0-12.3-5.1l-6.64-22.23c3.7-1.38,21-7.36,25.35-1.34,4.79,6.61-6,27.84-6.41,28.67Z"/><path class="cls-3" d="M587.28,4160.08c-6.3-.83-7.29-10.07-7.38-14.93a.34.34,0,0,0-.67-.11c-1.06,3.18-3.29,7.31-7.07,2.65-9.13-11.32,7.81-26.48,7.81-26.48a43.63,43.63,0,0,1,15.19,16s.68,23.95-7.88,22.83Z"/><path class="cls-11" d="M719.25,4149.23c-29.45,54.67-63.26,20.52-77.46,1.57a7,7,0,0,1,5-11.17c25-1.9,80-4.57,72.42,9.6Z"/><path class="cls-1" d="M549.19,4230l-.24,0-9-2.05a1.1,1.1,0,0,1-.85-1.13l.82-15.53a1,1,0,0,1,1.14-1,1.09,1.09,0,0,1,1,1.15l-.77,14.6,8.15,1.85a1.1,1.1,0,0,1-.25,2.17Z"/><path class="cls-1" d="M557.75,4225.75a1,1,0,0,1-.24,0l-9-2.05a1.1,1.1,0,0,1-.84-1.21l1.33-10.34a1.09,1.09,0,0,1,1.22-.95,1.11,1.11,0,0,1,1,1.23l-1.21,9.35,8.07,1.83a1.1,1.1,0,0,1-.24,2.17Z"/><path class="cls-4" d="M575.29,4193c-.3,3.37-2.58,9.26-7.94,13.63-3.94,3.22-9.56,5.65-17.31,5.65a45.53,45.53,0,0,1-9.06-1c-1-.2-2.08-.44-3.16-.72-27.57-7.23-19.8-36.51-22.56-44.42a1.67,1.67,0,0,1,2.47-1.95c7.68,4.84-.17,12,25.39,7.05,29.22-5.64,32.11,19.88,32.11,19.88a5.46,5.46,0,0,1,.06,1.86Z"/><path class="cls-5" d="M585.56,4206.62H567.35c5.36-4.37,7.64-10.26,7.94-13.63l10.51,13.06a.34.34,0,0,1-.24.57Z"/><path class="cls-12" d="M456.55,4163.94c0,2.21-2.85,4-5.05,4a4,4,0,0,1,0-8c2.2,0,5.05,1.79,5.05,4Z"/><path class="cls-12" d="M581.37,4100.64c0,2.2,2.85,4,5,4a4,4,0,0,0,0-8c-2.2,0-5,1.79-5,4Z"/><path class="cls-12" d="M555.34,4268.67c.1,1.54-1.81,2.92-3.35,3a2.79,2.79,0,1,1-.37-5.57c1.54-.11,3.62,1,3.72,2.55Z"/><path class="cls-12" d="M564.59,4187.88c.1,1.53-1.8,2.92-3.34,3a2.8,2.8,0,0,1-.37-5.58c1.54-.1,3.61,1,3.71,2.56Z"/><path class="cls-4" d="M218.7,4080.23c7.66,0,7.67-11.91,0-11.91s-7.67,11.91,0,11.91Z"/><path class="cls-4" d="M235.55,4144.57c7.66,0,7.67-11.91,0-11.91s-7.67,11.91,0,11.91Z"/><path class="cls-4" d="M263.12,4293.16c7.67,0,7.68-11.9,0-11.9s-7.67,11.9,0,11.9Z"/><path class="cls-4" d="M218.7,4184.4c7.66,0,7.67-11.91,0-11.91s-7.67,11.91,0,11.91Z"/><path class="cls-4" d="M508.23,4357.5c7.66,0,7.67-11.9,0-11.9s-7.67,11.9,0,11.9Z"/><path class="cls-4" d="M318.27,4388.14c7.66,0,7.68-11.9,0-11.9s-7.67,11.9,0,11.9Z"/><path class="cls-4" d="M198.78,4343.72c7.67,0,7.68-11.91,0-11.91s-7.67,11.91,0,11.91Z"/><path class="cls-4" d="M545,4365.16c7.66,0,7.67-11.9,0-11.9s-7.68,11.9,0,11.9Z"/><path class="cls-13" d="M340.31,3734.89a7.43,7.43,0,0,0-.74,2.5,38.36,38.36,0,0,1-14.29-7c-8.44-6.74-10.68-15.89-11.18-23.13-1.07-15.63-.6-31.32-.14-47q1.56-52.09,3.14-104.2A98.12,98.12,0,0,1,268.76,3570a200.79,200.79,0,0,1-24.27,68.51l-.61,0-35,1.83-.8,0c-8.38-35,4.71-73.08,29.15-99.52s58.93-42,94.28-48.78l2.21-.4,1.9-.33C330.46,3572,335.13,3655.43,340.31,3734.89Z"/><path class="cls-14" d="M443.27,3722.83a2.55,2.55,0,0,1-.7-3c.6-1.17,2.2-1.4,3.54-1.4a31.08,31.08,0,0,1,6.84.83,42.54,42.54,0,0,1,8.38,2.84c2.31,7.48,4.61,15,6.91,22.51a5.68,5.68,0,0,0,1.71,3,63.35,63.35,0,0,1-23,.27c-4.3-.8-8.58-2.17-12-4.91a14.2,14.2,0,0,1-5-7.61,3.12,3.12,0,0,1-.14-.5,11.49,11.49,0,0,1-.16-3.21,10.2,10.2,0,0,1,.63-2.63,11.05,11.05,0,0,1,3.27-4.44,9.63,9.63,0,0,1,2.87-1.71,10.8,10.8,0,0,1,6.88-.1c0,.07.1.1.17.17Z"/><path class="cls-15" d="M492.22,3746.07c-5.65.67-12.76,1.54-18.27,2.2a5.5,5.5,0,0,1-3.87-.46s-.1-.07-.13-.14a5.68,5.68,0,0,1-1.71-3c-2.3-7.48-4.6-15-6.91-22.51-.2-.67-.4-1.3-.6-2a2,2,0,0,1,1.61-3.07c2.57-.8,5.44-1.7,8.24-2.6,1.91-.6,3.77-1.21,5.51-1.74l16,32.92Z"/><path class="cls-13" d="M575.05,3636.19c-15.16-58.79-54.65-109.57-107-139.82q-8.2-4.71-16.83-8.78c-.43-.27-1-.57-1.53-.87-4.28-2.2-12.09-4.94-18.5-7.44a54.15,54.15,0,0,1-37.49,22c-14.73,1.7-30.32-3.54-41.47-13.29-2.34.67-4.71,1.17-7.11,1.67v.17c-1.3,80.63-.47,158.62,3.64,242.15,1.27,1,2.17,3.37,2.64,5.61,25.94-.73,52.62-1.47,78.56-2.17a3.12,3.12,0,0,1-.14-.5,11.49,11.49,0,0,1-.16-3.21,10.2,10.2,0,0,1,.63-2.63,11.05,11.05,0,0,1,3.27-4.44,9.63,9.63,0,0,1,2.87-1.71,10.8,10.8,0,0,1,6.88-.1,2.55,2.55,0,0,1-.7-3c.6-1.17,2.2-1.4,3.54-1.4a31.08,31.08,0,0,1,6.84.83,42.54,42.54,0,0,1,8.38,2.84c-.2-.67-.4-1.3-.6-2a2,2,0,0,1,1.61-3.07c2.57-.8,5.44-1.7,8.24-2.6,1.91-.6,3.77-1.21,5.51-1.74l16,32.92.17.4.43.87c4.67-1.14,8.45-2.2,11.62-3.24,11.38-3.74,15.36-7.54,26.84-16.39,14.69-11.29,26.75-23.67,38.36-38.1,7.82-9.78,8.22-19.46,8.78-27.91S577.19,3644.41,575.05,3636.19Zm-64.87,37.16c2.9-17.86,2.54-36,.23-54a357.13,357.13,0,0,0,23.84,30.22C526,3657.06,518,3665,510.18,3673.35Z"/><path class="cls-15" d="M244.22,3651.09l-.23,0h0a139.47,139.47,0,0,1-30.95,2.3c-.47,0-1,0-1.43-.06a63.32,63.32,0,0,1-2.71-13l35-1.83C244.09,3642.44,244,3647.38,244.22,3651.09Z"/><path class="cls-14" d="M252.13,3665.61a5,5,0,0,1-1.67,3.24,2.83,2.83,0,0,1-3.54.06,28.28,28.28,0,0,1,.67,8.55,14.5,14.5,0,0,1-1.3,5.34,7.91,7.91,0,0,1-1.47,2.14,9.17,9.17,0,0,1-7,2.44,15.65,15.65,0,0,1-9.81-4.74,38.81,38.81,0,0,1-6.48-9,102,102,0,0,1-8.55-20.2,139.47,139.47,0,0,0,30.95-2.3h0c2.8,3.34,5.67,6.78,7.34,10.78A9,9,0,0,1,252.13,3665.61Z"/><path class="cls-16" d="M500.9,3972.57l-1.44.47-39.46,13-1,.33a449.47,449.47,0,0,1-37-196.62l-24.6,2A1630.11,1630.11,0,0,0,339.71,3950c-5.45,17.76-10.82,36.09-22.37,50.65l-1.57-.1v-.5c0,.17,0,.33-.07.5l-33.65-2.1-1.24-.07c-8.51-21.6-11.28-45.07-11.75-68.31-1.37-69.85,18.83-140.53,56.16-199.55,0,0,0-.1.06-.14a38.36,38.36,0,0,0,14.29,7,10.11,10.11,0,0,0,2,7,6.39,6.39,0,0,0,4.54,2.94c3,.2,5.48-2.9,5.68-5.94a14.57,14.57,0,0,0-.4-3.84c25.94-.73,52.62-1.47,78.56-2.17a14.2,14.2,0,0,0,5,7.61c3.4,2.74,7.68,4.11,12,4.91a63.35,63.35,0,0,0,23-.27c0,.07.1.1.13.14a5.5,5.5,0,0,0,3.87.46c5.51-.66,12.62-1.53,18.27-2.2l.43.87c4.67-1.14,8.45-2.2,11.62-3.24C509.78,3819.59,515.12,3897.81,500.9,3972.57Z"/><path class="cls-17" d="M505.77,4012.43a153.38,153.38,0,0,1-33.59,16.43,47.55,47.55,0,0,0-2.23-10.25c-3.17-10.45-6.78-22.07-9.95-32.55l39.46-13a184.46,184.46,0,0,1,6.28,38.66C505.74,4011.93,505.77,4012.2,505.77,4012.43Z"/><path class="cls-17" d="M315.77,4000.58c-.54,14.66-1.37,30.68-1.91,45.27a69.53,69.53,0,0,1-.63,7.88c-10.92-.37-23.87.3-34.86,0a11.21,11.21,0,0,0,2.34-2.7c2-3.34,2.07-7.48,2-11.35-.16-13.39-.46-27.78-.66-41.2l33.65,2.1Z"/><path class="cls-18" d="M313.23,4053.73a22.3,22.3,0,0,1-3.31,9.55c-2.6,3.84-6.77,6.44-11.15,8a68.17,68.17,0,0,1-13.69,2.64l-21.86,2.6c-2,.23-4.28.37-5.65-1a4.41,4.41,0,0,1-.56-4.81,12,12,0,0,1,3.3-3.91,93.07,93.07,0,0,1,12.05-8.88,37.47,37.47,0,0,0,6-4.14C289.36,4054,302.31,4053.36,313.23,4053.73Z"/><path class="cls-18" d="M500.73,4035.77c-3.81,5-9.68,7.84-15.36,10.52-6.24,2.93-12.65,5.94-19.43,7a2.59,2.59,0,0,1-2.77-3.48c1.9-4.8,6.44-8.78,8.21-13.78a17.46,17.46,0,0,0,.8-7.18,153.38,153.38,0,0,0,33.59-16.43C506.14,4020.58,505.7,4029.33,500.73,4035.77Z"/><path class="cls-14" d="M431.15,3479.28a54.15,54.15,0,0,1-37.49,22c-14.73,1.7-30.32-3.54-41.47-13.29,6.88-1.87,13.26-4.71,18.73-9.88,2.11-3.47-.3-7.81-2.4-11.29-7.08-11.72-10-25-11.29-38.56,14,1,28,1.44,42.07,1.2-1,11.39,6,23.27,16.23,28.42a22.92,22.92,0,0,0-.64,2.23,13,13,0,0,0,.64,8.72c1.47,2.9,4.34,4.8,7.11,6.54A59.93,59.93,0,0,0,431.15,3479.28Z"/><path class="cls-16" d="M417.93,3451.73c-.8,2-1.7,4-2.4,6.15-10.22-5.15-17.23-17-16.23-28.42-14,.24-28.08-.2-42.07-1.2-.3-3.14-.5-6.28-.63-9.41l.17-.3,41.66-.71,23.47-.4.34,0A68.07,68.07,0,0,1,417.93,3451.73Z"/><path class="cls-19" d="M348.72,3732c-2.7-2.2-13-1.51-14.34,1.23-5.18-79.46-3.92-161.25,1.22-241.81l13.12-2.53C347.42,3569.5,344.61,3648.45,348.72,3732Z"/><path class="cls-20" d="M351.71,3741.43c-.3,4.5-3.92,9.11-8.43,8.81-2.77-.14-5.1-2.13-6.74-4.36a15,15,0,0,1-2.92-10.45,11.21,11.21,0,0,1,1.09-3.72c2-4.06,8.47-7.58,12.49-4.31,1.88,1.54,3.22,5,3.91,8.33A20.78,20.78,0,0,1,351.71,3741.43Z"/><path class="cls-19" d="M460.7,3718.09a2.61,2.61,0,0,0,0,2.07c.2.67.4,1.3.6,2a42.54,42.54,0,0,0-8.38-2.84,1248,1248,0,0,1-3.3-232.57c.57.3,1.1.6,1.53.87,5.75,2.7,8.82,4.21,14.29,7.35a1050.76,1050.76,0,0,0,2.31,220.45c-2.81.9-2.87.9-5.44,1.7A2.63,2.63,0,0,0,460.7,3718.09Z"/><polygon class="cls-17" points="352.19 3398.17 309.76 3420.33 467.78 3419.41 425.13 3398.17 352.19 3398.17"/><path class="cls-21" d="M424.79,3398.08c-6.73-1.54-7.12-19.21-7-27a3.6,3.6,0,0,0-3.62-3.67H401l-12.35-4.92-12.35,4.92H360.2a3.62,3.62,0,0,0-3.6,3.86c1.44,21.24-4.74,26.82-4.74,26.82S433.46,3400.07,424.79,3398.08Z"/></svg>