<svg id="Layer_1" data-name="Layer 1" xmlns="http://www.w3.org/2000/svg" viewBox="0 0 971.29 33.21"><defs><style>.cls-1{fill:#0f2b53;}</style></defs><title>23</title><path class="cls-1" d="M909.43,112.58a3,3,0,0,0-.43,0c-.46.07-1.4.69-2.06.69-.34,0-.59-.16-.69-.62,0,0,0-.11,0-.16,0-1,1.78-1.51,2.95-1.62.23,0,.43,0,.66,0a4.84,4.84,0,0,1,3.43,1.07c1.1,1.23.94,3.34,1.16,5.21a4.91,4.91,0,0,1,.05.84c0,2.59-1.46,4.6-3.88,4.6a4.77,4.77,0,0,1-.76-.07c-.52-.07-2.1-.48-2.19-1.1v-.11c0-.64.78-1.1,1.57-1.1h.21c.73.07.87.53,1.42.53a1.77,1.77,0,0,0,.29,0c.78-.16,1-1.9,1-3.61a12.36,12.36,0,0,0-.29-2.88,4.44,4.44,0,0,0-.69-1.35C910.62,112.81,910.09,112.58,909.43,112.58Z" transform="translate(-766.06 -96.8)"/><path class="cls-1" d="M911.62,109.11l-3.47,0h-.34c-1.08,0-1.46.11-2.36.11a2.59,2.59,0,0,1-1.25-.27,1.82,1.82,0,0,1-.07-.5c0-1.35,1.21-1.19,2.83-1.28.48,0,1,0,1.56,0q1.15,0,2.49.09c1.32.12,2.81-.13,2.81.85a1.53,1.53,0,0,1-.12.57A3.84,3.84,0,0,1,911.62,109.11Z" transform="translate(-766.06 -96.8)"/><path class="cls-1" d="M925.7,121.4c0,.68-.87,1.23-1.51,1.23a.83.83,0,0,1-.43-.11c-.26-.16-.3-.48-.3-.85v-.8c0-.2,0-.43,0-.66-.07-2.67-.12-5.69-1.22-7.26a7.06,7.06,0,0,0-2.14-.28,6.12,6.12,0,0,0-1.42.16c0,.34.25.44.3.73,0,.71,0,1.53,0,2.42,0,.67,0,1.35,0,2v.66c0,.5,0,1.49,0,2a6.41,6.41,0,0,1,.78-.28h.2c.8,0,1.12.19,1.12.83v.11c-.09.62-1.67,1-2.19,1.1a11.52,11.52,0,0,1-1.17.09,1.09,1.09,0,0,1-.86-.39c0-1.42.09-2.86.09-4.29,0-1.12,0-2.24-.14-3.39-.46-.13-1-.11-1.12-.61v-.09c0-.67,1.55-2.27,2-2.45a8.88,8.88,0,0,1,2.58-.32c1.33,0,3.22.21,3.7.66a8.31,8.31,0,0,1,1.08,2.65,18.3,18.3,0,0,1,.27,3.45c0,1.21.25,2,.25,2.84,0,.11,0,.25,0,.36s.07.16.11.23A.61.61,0,0,1,925.7,121.4Z" transform="translate(-766.06 -96.8)"/><path class="cls-1" d="M925.29,108.08a1.53,1.53,0,0,1-.12.57,3.84,3.84,0,0,1-2.08.46l-3.47,0h-.34c-1.08,0-1.47.11-2.36.11a2.59,2.59,0,0,1-1.25-.27,1.82,1.82,0,0,1-.07-.5c0-1.35,1.21-1.19,2.83-1.28.48,0,1,0,1.56,0,.77,0,1.59,0,2.49.09l.68,0a3,3,0,0,0,0-.43.57.57,0,0,0,0-.23.9.9,0,0,1,0-.23c0-.62.75-.73,1.39-.73a.9.9,0,0,1,.44.11c.25.16.29.48.29.85v.8C925.26,107.62,925.29,107.85,925.29,108.08Z" transform="translate(-766.06 -96.8)"/><path class="cls-1" d="M935,121.74c0-.27.07-.59.09-.89.07-.87.05-1.94.14-3,.07-.76.11-1.49.11-2.18a4.33,4.33,0,0,0-.73-2.76,2.21,2.21,0,0,0-.77-.16c-.85,0-1.28.69-1.63,1.6a18.44,18.44,0,0,0-1.09,5.44c0,.59.2,1.3.2,1.78a1.14,1.14,0,0,1,0,.27,1.39,1.39,0,0,1-1.39.78,1.71,1.71,0,0,1-1-.3c0-2.81-.07-6.07-.12-9.34a2.06,2.06,0,0,0-.36,0c-.3,0-.09,0-.37,0-.43,0-.48-.28-.52-.71,0-.05,0-.07,0-.11s0-.14,0-.21c0-.85.16-.87.87-.87h.11l.87,0c1.3,0,1.58,1.17,1.58,2.36a5.62,5.62,0,0,1,0,.59l.06-.25c.3-1.05.64-2.22,1-2.42a4.28,4.28,0,0,1,2.1-.48,5.82,5.82,0,0,1,1.51.2c1.55.51,1.92,2.22,1.92,4.12,0,1.71-.3,3.58-.3,4.91v.14c0,.39.16.89.16,1.25a.62.62,0,0,1,0,.25,1.45,1.45,0,0,1-1.39.76,1.71,1.71,0,0,1-.6-.09A.87.87,0,0,1,935,121.74Z" transform="translate(-766.06 -96.8)"/><path class="cls-1" d="M949.82,125.92c0,.69-.86,1.24-1.5,1.24a.9.9,0,0,1-.44-.12c-.25-.16-.29-.48-.29-.84v-.8c0-.21,0-.44,0-.66-.07-2.68.18-11.43-1.21-11.79a7.16,7.16,0,0,0-2.15-.28,6,6,0,0,0-1.41.16c0,.34.25.44.29.73,0,.71,0,1.53,0,2.42,0,.67,0,1.35,0,2v.66c0,.5,0,1.49,0,2a6.89,6.89,0,0,1,.77-.28h.21c.8,0,1.12.19,1.12.83v.11c-.09.62-1.67,1-2.19,1.1-.26,0-.92.09-1.17.09a1.12,1.12,0,0,1-.87-.39c0-1.42.09-2.86.09-4.29,0-1.12,0-2.24-.13-3.39-.46-.13-1-.11-1.12-.61v-.09c0-.67,1.55-2.27,2-2.45a8.83,8.83,0,0,1,2.58-.32c1.32,0,3.22.21,3.7.66a8.31,8.31,0,0,1,1.07,2.65,17.46,17.46,0,0,1,.28,3.45c0,1.21.25,6.52.25,7.36,0,.11,0,.25,0,.37s.07.16.11.22A.9.9,0,0,1,949.82,125.92Z" transform="translate(-766.06 -96.8)"/><path class="cls-1" d="M961.89,115c.77,0,1.53.25,1.53,1s-.34,1-1.24,1.07l-.48,0c0,1.75-.13,3.7-1,4.91-.83.61-3,.77-4.25.77a4.74,4.74,0,0,1-1.54-.22c-1.27-.46-1.91-2.45-2.1-4.12,0-.27,0-.54,0-.84,0-1,.11-1.78.11-2.74a5.59,5.59,0,0,0-.23-1.81c-.5-.14-1.05-.07-1.23-.57a.8.8,0,0,1-.05-.21,1.31,1.31,0,0,1,.62-1,2,2,0,0,1,.85-.18,2.91,2.91,0,0,1,1.73.52,3.42,3.42,0,0,1,.37,1.92c0,.51,0,1,0,1.31v.43c0,.73,0,1.17,0,1.83a6,6,0,0,0,.82,3.52,5.68,5.68,0,0,0,1.81.29,2,2,0,0,0,1.14-.29,5.32,5.32,0,0,0,.92-2.77c0-.18.06-.32.09-.82l-2,0c-.64,0-1.14-.16-1.23-.75v-.12a1.51,1.51,0,0,1,1.23-1.28l.16,0c.25,0,.55.07.94.09h.84c0-.11,0-.23,0-.36,0-.78-.18-1.85-.18-2.47a.82.82,0,0,1,0-.23,1.29,1.29,0,0,1,2.15-.34c0,1.37.07,1.8.07,2.19s0,.6,0,1.26Z" transform="translate(-766.06 -96.8)"/><path class="cls-1" d="M966,125.51v-.11c0-.14,0-.28,0-.41a.78.78,0,0,1,.85-.87l.2.07h3.11a3,3,0,0,1,2,.61c-.06-2.67-.09-10.28-1.18-11.85a7.16,7.16,0,0,0-2.15-.28,6.12,6.12,0,0,0-1.42.16c0,.34.25.44.3.73,0,.71,0,1.53,0,2.42,0,.67,0,1.35,0,2v3.49c0,1-.25,1-.48,1l-1,0c-.23,0-.52,0-.89,0-.53,0-1.07,0-1.19-.44V122c0-.14,0-.28,0-.41,0-.51.11-.94.73-1l.21,0,.61.16c0-.94.05-1.9.05-2.85a32.36,32.36,0,0,0-.14-3.39c-.46-.13-1-.11-1.12-.61v-.09c0-.67,1.56-2.27,2-2.45a8.88,8.88,0,0,1,2.58-.32c1.33,0,3.23.21,3.71.66a8.54,8.54,0,0,1,1.07,2.65,17.5,17.5,0,0,1,.27,3.45c0,1.21.25,6.45.25,7.29,0,.12,0,.25,0,.37s.07.16.12.23a.82.82,0,0,1,0,.22c0,.69-.87,1.24-1.51,1.24-1.23,0-2.44-1.21-3.13-1.21-.09,0-2.47,0-2.56.07C966.62,126,966.07,125.9,966,125.51Z" transform="translate(-766.06 -96.8)"/><path class="cls-1" d="M973.79,108.08a1.49,1.49,0,0,1-.11.57,3.89,3.89,0,0,1-2.08.46l-3.48,0h-.34c-1.07,0-1.46.11-2.35.11a2.61,2.61,0,0,1-1.26-.27,2.31,2.31,0,0,1-.07-.5c0-1.35,1.21-1.19,2.84-1.28.48,0,1,0,1.55,0,.78,0,1.6,0,2.49.09l.69,0a3,3,0,0,0,0-.43.57.57,0,0,0,0-.23.61.61,0,0,1,0-.23c0-.62.76-.73,1.4-.73a.83.83,0,0,1,.43.11c.25.16.3.48.3.85v.8C973.77,107.62,973.79,107.85,973.79,108.08Z" transform="translate(-766.06 -96.8)"/><path class="cls-1" d="M977.72,122.52a1,1,0,0,1-.82-.34v-.94c0-3.29-.19-8.39-.19-11.38,0-.43-.13-.91-.13-1.3,0-.07,0-.14,0-.21.09-.82.91-1.44,1.14-2.12a1.73,1.73,0,0,0,.07-.5,1.8,1.8,0,0,0-1.76-1.79,1.47,1.47,0,0,0-.61.12c-.62.25-.55,1.41-1.19,1.87a1.52,1.52,0,0,1-.89.25,1.48,1.48,0,0,1-1.05-.36,4.45,4.45,0,0,1,1-2.24,4.54,4.54,0,0,1,3.34-1.3,3.33,3.33,0,0,1,3.24,1.78,5.11,5.11,0,0,1,.23,1.32v.14c-.09.94-1.09,1.71-1.3,2.83a4,4,0,0,0-.07.92c0,.36,0,.73,0,1.07a4.52,4.52,0,0,1,0,.53c0,.45,0,1,0,1.53,0,2.6.32,6.07.32,8.41,0,.36,0,.7,0,1A1.51,1.51,0,0,1,977.72,122.52Z" transform="translate(-766.06 -96.8)"/><path class="cls-1" d="M989.35,122.08c0-.34.09-.73.11-1.09v-.16c0-2.26-.48-4.73-2.35-5.23a13.93,13.93,0,0,1-2.7,1.6,5.93,5.93,0,0,0-.11,1c0,.73.11,1.5.11,2.21a3,3,0,0,1-.22,1.3,1.56,1.56,0,0,1-1.4.8,1.65,1.65,0,0,1-.57-.11,1.58,1.58,0,0,1-.14-.71c0-.45.12-1,.16-1.44.07-.91.1-1.85.1-2.76s0-1.58,0-2.38,0-1.32.07-2.08a3.66,3.66,0,0,1-.57,0c-.75,0-.87-.25-.87-1.19,0-.59.55-.66,1.21-.66h.12a5.39,5.39,0,0,0,.7,0,9.17,9.17,0,0,1,1-.16.61.61,0,0,1,.53.23,4.16,4.16,0,0,1,.09.94c0,.94-.21,1.71-.21,2.7v.27a6.54,6.54,0,0,0,2.77-1.8c.66-.69,1-1.92,1.83-2.31a1.35,1.35,0,0,1,.64-.14c.38,0,.77.14.84.43a.75.75,0,0,1,0,.21c0,.55-.52,1.07-.75,1.37a8.5,8.5,0,0,1-.82.89,5.81,5.81,0,0,1,2.17,2.81,21.57,21.57,0,0,1,.5,4.78,1.49,1.49,0,0,1-1.55,1.35,1.37,1.37,0,0,1-.53-.12A1,1,0,0,1,989.35,122.08Z" transform="translate(-766.06 -96.8)"/><path class="cls-1" d="M993.92,115.16v-.41a7.22,7.22,0,0,0-.18-1.76c-.51-.14-1-.07-1.24-.57a.78.78,0,0,1,0-.21,1.33,1.33,0,0,1,.61-1,2,2,0,0,1,.85-.18,2.92,2.92,0,0,1,1.74.52,4.62,4.62,0,0,1,.32,2.18c0,2.14.52,7,2.94,7a2.26,2.26,0,0,0,.78-.16,4.33,4.33,0,0,0,.73-2.76c0-.69,0-1.42-.11-2.18-.1-1.07-.07-2.14-.14-3,0-.3-.09-.62-.09-.89a.84.84,0,0,1,.27-.69,1.68,1.68,0,0,1,.6-.09,1.47,1.47,0,0,1,1.39.75.92.92,0,0,1,0,.26c0,.36-.16.86-.16,1.25v.14c0,1.32.29,3.2.29,4.91,0,1.9-.36,3.61-1.92,4.11a5.31,5.31,0,0,1-1.5.21c-1.83,0-2.72-.43-3.27-2.4l-.07-.25a.28.28,0,0,0,0,.11s0,.05,0,.07,0,.25,0,.37,0,.68,0,1a1.14,1.14,0,0,1,0,.27,1.22,1.22,0,0,1-1.26.78.83.83,0,0,1-.68-.28Z" transform="translate(-766.06 -96.8)"/><path class="cls-1" d="M1000,106.82a8.88,8.88,0,0,1-.09-1.3s0-.11,0-.16c.12-.48.71-.64,1.33-.64a1,1,0,0,1,.39.07c.61.25.43,1.8.52,2.76v.21c0,.84-.09,1.37-.94,1.37a3.42,3.42,0,0,1-.41,0C999.77,109.11,1000.11,107.76,1000,106.82Z" transform="translate(-766.06 -96.8)"/><path class="cls-1" d="M1043.71,119.91c0-.28.07-.6.09-.89.07-.87,0-2,.14-3,.07-.75.11-1.48.11-2.17a4.26,4.26,0,0,0-.73-2.76,2,2,0,0,0-.77-.16c-.85,0-1.28.68-1.63,1.59a18.51,18.51,0,0,0-1.09,5.44c0,.6.2,1.3.2,1.78a1.19,1.19,0,0,1,0,.28,1.41,1.41,0,0,1-1.39.78,1.78,1.78,0,0,1-1-.3c0-2.81-.07-6.08-.12-9.35a2,2,0,0,0-.36,0c-.3,0-.09,0-.37,0-.43,0-.48-.27-.52-.7,0-.05,0-.07,0-.12s0-.14,0-.2c0-.85.16-.87.87-.87h.11l.87,0c1.31,0,1.58,1.17,1.58,2.35a5.82,5.82,0,0,1,0,.6l.07-.25a6.12,6.12,0,0,1,1-2.43,4.28,4.28,0,0,1,2.1-.48,5.78,5.78,0,0,1,1.51.21c1.55.5,1.92,2.22,1.92,4.11,0,1.72-.3,3.59-.3,4.92v.13c0,.39.16.89.16,1.26a.66.66,0,0,1,0,.25,1.46,1.46,0,0,1-1.39.75,1.62,1.62,0,0,1-.59-.09A.82.82,0,0,1,1043.71,119.91Z" transform="translate(-766.06 -96.8)"/><path class="cls-1" d="M1058.59,124.09c0,.68-.87,1.23-1.51,1.23a.9.9,0,0,1-.44-.11c-.25-.16-.29-.48-.29-.85v-.8c0-.2,0-.43,0-.66-.06-2.67.19-11.42-1.21-11.79a7.43,7.43,0,0,0-2.14-.27,5.63,5.63,0,0,0-1.42.16c0,.34.25.43.3.73,0,.71,0,1.53,0,2.42,0,.66,0,1.35,0,2v.67c0,.5,0,1.48,0,2a6.44,6.44,0,0,1,.78-.27h.2c.8,0,1.12.18,1.12.82v.12c-.09.61-1.67,1-2.19,1.09a9.22,9.22,0,0,1-1.17.09,1.11,1.11,0,0,1-.87-.38c0-1.42.09-2.86.09-4.3,0-1.12,0-2.24-.13-3.38-.46-.14-1-.12-1.12-.62v-.09c0-.66,1.55-2.26,2-2.44a8.88,8.88,0,0,1,2.58-.32c1.33,0,3.22.2,3.7.66a8.22,8.22,0,0,1,1.08,2.65,18.23,18.23,0,0,1,.27,3.45c0,1.21.25,6.51.25,7.36,0,.11,0,.25,0,.36s.07.16.11.23A.61.61,0,0,1,1058.59,124.09Z" transform="translate(-766.06 -96.8)"/><path class="cls-1" d="M1070.65,113.14c.78,0,1.53.26,1.53,1s-.34,1-1.23,1.08c-.12,0-.3,0-.48,0,0,1.76-.14,3.7-1,4.91-.83.62-3,.78-4.25.78a4.64,4.64,0,0,1-1.53-.23c-1.28-.46-1.92-2.44-2.11-4.11,0-.28,0-.55,0-.85,0-1,.11-1.78.11-2.74a5.49,5.49,0,0,0-.23-1.8c-.5-.14-1-.07-1.23-.57a.8.8,0,0,1,0-.21,1.29,1.29,0,0,1,.62-1,1.87,1.87,0,0,1,.85-.19,2.88,2.88,0,0,1,1.73.53,3.38,3.38,0,0,1,.37,1.92c0,.5,0,1,0,1.3v.44c0,.73,0,1.16,0,1.82a6,6,0,0,0,.83,3.52,5.56,5.56,0,0,0,1.8.3,1.88,1.88,0,0,0,1.14-.3,5.28,5.28,0,0,0,.92-2.76,6.19,6.19,0,0,0,.09-.83c-.73,0-1.46,0-2,0s-1.14-.16-1.23-.76v-.11a1.51,1.51,0,0,1,1.23-1.28l.16,0c.25,0,.55.07.94.09h.85c0-.12,0-.23,0-.37,0-.77-.18-1.85-.18-2.46a.79.79,0,0,1,0-.23,1.29,1.29,0,0,1,2.15-.35c0,1.38.07,1.81.07,2.2s0,.59,0,1.25Z" transform="translate(-766.06 -96.8)"/><path class="cls-1" d="M1074,124.84v-.11c0-.14,0-.28,0-.41a.82.82,0,0,1,.84-.92l.35.16c.68,0,2.81-1.55,3-1.55a17.84,17.84,0,0,1,2.59,1c-.07-2.67-.1-10.28-1.19-11.86a7.5,7.5,0,0,0-2.15-.27,5.63,5.63,0,0,0-1.42.16c0,.34.25.43.3.73,0,.71,0,1.53,0,2.42,0,.66,0,1.35,0,2v3.5c0,1-.25,1-.48,1l-1,0c-.23,0-.52,0-.89,0-.52,0-1.07,0-1.19-.43v-.12c0-.13,0-.27,0-.41,0-.5.12-.94.73-1l.21,0,.61.16c0-.94,0-1.9,0-2.86a32.06,32.06,0,0,0-.14-3.38c-.45-.14-1-.12-1.12-.62v-.09c0-.66,1.56-2.26,2-2.44a8.91,8.91,0,0,1,2.59-.32c1.32,0,3.22.2,3.7.66a8.21,8.21,0,0,1,1.07,2.65,17.4,17.4,0,0,1,.28,3.45c0,1.21.25,6.44.25,7.29,0,.11,0,.25,0,.36s.07.16.12.23a.9.9,0,0,1,0,.23c0,.69-.87,1.23-1.51,1.23-1.23,0-2.58-1.21-3.26-1.21a6.57,6.57,0,0,1-2.81,1.21C1075,125.25,1074.17,125.16,1074,124.84Z" transform="translate(-766.06 -96.8)"/><path class="cls-1" d="M1082.55,106.24a1.54,1.54,0,0,1-.11.58,3.89,3.89,0,0,1-2.08.45l-3.47,0h-.35c-1.07,0-1.46.11-2.35.11a2.75,2.75,0,0,1-1.26-.27,2.49,2.49,0,0,1-.07-.51c0-1.35,1.22-1.19,2.84-1.28.48,0,1,0,1.55,0,.78,0,1.6,0,2.49.09l.69,0a2.89,2.89,0,0,0,0-.43.59.59,0,0,0,0-.23.61.61,0,0,1,0-.23c0-.61.76-.73,1.4-.73a.83.83,0,0,1,.43.12.93.93,0,0,1,.3.84v.8C1082.53,105.79,1082.55,106,1082.55,106.24Z" transform="translate(-766.06 -96.8)"/><path class="cls-1" d="M1086.48,120.68a1,1,0,0,1-.82-.34v-.94c0-3.29-.18-8.38-.18-11.37,0-.44-.14-.92-.14-1.31,0-.06,0-.13,0-.2.09-.82.92-1.44,1.14-2.13a1.73,1.73,0,0,0,.07-.5,1.79,1.79,0,0,0-1.76-1.78,1.46,1.46,0,0,0-.61.11c-.62.25-.55,1.42-1.19,1.88a1.52,1.52,0,0,1-.89.25,1.48,1.48,0,0,1-1-.37,4.46,4.46,0,0,1,1-2.24,4.54,4.54,0,0,1,3.33-1.3,3.36,3.36,0,0,1,3.25,1.78,5.59,5.59,0,0,1,.22,1.33v.14c-.09.93-1.09,1.71-1.3,2.83a3.91,3.91,0,0,0-.07.91c0,.37,0,.73,0,1.08a2.91,2.91,0,0,1,0,.52c0,.46,0,1,0,1.53,0,2.61.32,6.08.32,8.41,0,.37,0,.71,0,1A1.5,1.5,0,0,1,1086.48,120.68Z" transform="translate(-766.06 -96.8)"/><path class="cls-1" d="M1098.11,120.25c0-.34.09-.73.12-1.1V119c0-2.26-.48-4.73-2.36-5.23a14.15,14.15,0,0,1-2.69,1.6,5.2,5.2,0,0,0-.12,1c0,.73.12,1.51.12,2.22a3,3,0,0,1-.23,1.3,1.58,1.58,0,0,1-1.4.8,2,2,0,0,1-.57-.11,1.57,1.57,0,0,1-.13-.71c0-.46.11-1,.16-1.44.06-.92.09-1.85.09-2.77s0-1.57,0-2.37,0-1.33.07-2.08a5.46,5.46,0,0,1-.57,0c-.75,0-.87-.25-.87-1.18,0-.6.55-.67,1.21-.67h.12c.23,0,.48,0,.71,0a7.2,7.2,0,0,1,1-.16.61.61,0,0,1,.53.23,4.16,4.16,0,0,1,.09.94c0,.93-.2,1.71-.2,2.69v.28a6.68,6.68,0,0,0,2.76-1.81c.66-.68,1-1.92,1.83-2.31a1.35,1.35,0,0,1,.64-.13c.39,0,.78.13.84.43a.51.51,0,0,1,0,.21c0,.54-.53,1.07-.76,1.37a9.65,9.65,0,0,1-.82.89,5.76,5.76,0,0,1,2.17,2.81,20.91,20.91,0,0,1,.5,4.77,1.48,1.48,0,0,1-1.55,1.35,1.36,1.36,0,0,1-.53-.11A1,1,0,0,1,1098.11,120.25Z" transform="translate(-766.06 -96.8)"/><path class="cls-1" d="M1102.68,113.33v-.41a7.11,7.11,0,0,0-.18-1.76c-.5-.14-1-.07-1.24-.57a.78.78,0,0,1,0-.21,1.29,1.29,0,0,1,.62-1,1.8,1.8,0,0,1,.84-.19,2.91,2.91,0,0,1,1.74.53,4.55,4.55,0,0,1,.32,2.17c0,2.15.52,7,2.94,7a2,2,0,0,0,.78-.16,4.32,4.32,0,0,0,.73-2.76c0-.69,0-1.42-.11-2.17-.09-1.07-.07-2.15-.14-3,0-.29-.09-.61-.09-.89a.84.84,0,0,1,.27-.68,1.71,1.71,0,0,1,.6-.09,1.46,1.46,0,0,1,1.39.75.92.92,0,0,1,.05.25c0,.37-.16.87-.16,1.26v.13c0,1.33.29,3.2.29,4.92,0,1.89-.36,3.61-1.92,4.11a5.64,5.64,0,0,1-1.5.21c-1.83,0-2.72-.44-3.27-2.4l-.07-.25a.26.26,0,0,0,0,.11s0,.05,0,.07,0,.25,0,.36,0,.69,0,1a.8.8,0,0,1,0,.28,1.21,1.21,0,0,1-1.25.77.83.83,0,0,1-.69-.27Z" transform="translate(-766.06 -96.8)"/><path class="cls-1" d="M1108.71,105a9,9,0,0,1-.09-1.3s0-.12,0-.16c.12-.48.71-.64,1.33-.64a1.23,1.23,0,0,1,.39.06c.61.26.43,1.81.52,2.77v.2c0,.85-.09,1.38-.93,1.38a2.34,2.34,0,0,1-.42,0C1108.53,107.27,1108.87,105.92,1108.71,105Z" transform="translate(-766.06 -96.8)"/><path class="cls-1" d="M1113.67,111.23a.6.6,0,0,1-.5-.23.61.61,0,0,1-.16-.41c0-.74,1.3-1.51,2.19-1.58h.25c1.19,0,1.69.8,1.85,2l-.07.21a14.77,14.77,0,0,0-1.14,4.77,4,4,0,0,0,.8,2.56,2.35,2.35,0,0,0,1,.32c1.07,0,1.39-1.39,1.39-3a14.42,14.42,0,0,0-.13-2c-.14-1.12-.14-2.27-.23-3-.07-.39-.28-.64-.28-1a.29.29,0,0,1,0-.16,1.16,1.16,0,0,1,1.18-.78,1.2,1.2,0,0,1,1,.43c.13,1.58.45,3.34.57,5,0,.34,0,.69,0,1,0,2.83-1,5.16-3.83,5.16-2.36,0-3.68-2.15-3.68-4.64a7.61,7.61,0,0,1,.13-1.43c.23-1.19,1-2.27,1-3.34a2.78,2.78,0,0,0-.07-.57A4.24,4.24,0,0,1,1113.67,111.23Z" transform="translate(-766.06 -96.8)"/><path class="cls-1" d="M1115.41,106.82a1.39,1.39,0,0,1-.12-.58c0-.22,0-.45,0-.66v-.8a.93.93,0,0,1,.3-.84.9.9,0,0,1,.44-.12c.64,0,1.37.12,1.39.73a.9.9,0,0,1,0,.23s0,.12,0,.23a1.94,1.94,0,0,0,0,.43l.68-.06h1.67c.37,0-.07,0,.8,0a3.8,3.8,0,0,1,2.08.46,1.46,1.46,0,0,1,.11.57c0,1-.52.73-1.85.84-.29,0-.71,0-1.12,0-.84,0-1.78,0-2.3,0A3.84,3.84,0,0,1,1115.41,106.82Z" transform="translate(-766.06 -96.8)"/><path class="cls-1" d="M1116.41,101.79c0-.73.3-1,.32-1.81-.52-.09-1.07-.43-1.07-.89a.84.84,0,0,1,.29-.57,1.59,1.59,0,0,1,1.17-.41c.91,0,1.92.55,1.92,1.44a1.62,1.62,0,0,1-.32.91h.23c1.76,0,2.12-1.76,4-1.76h.11a.86.86,0,0,1,.5.71c0,.6-.87,1.15-1.48,1.53l-.09,0a8.76,8.76,0,0,1-4.25,1.44,1.92,1.92,0,0,1-1.33-.48Z" transform="translate(-766.06 -96.8)"/><path class="cls-1" d="M1130.74,111.43a2.27,2.27,0,0,0,0-.41c0-.3,0-.62,0-.87a.93.93,0,0,1,0-.25,1.49,1.49,0,0,1,1.4-.75,1.66,1.66,0,0,1,.59.09.81.81,0,0,1,.27.68c0,.28-.06.6-.09.89s0,.73,0,1.12c0,.6,0,1.26.09,1.9v6.58a.84.84,0,0,1-.69.27,1.19,1.19,0,0,1-1.25-.75.77.77,0,0,1,0-.27c0-.28,0-.87,0-1s0-.36,0-.36,0-.05,0-.07a.3.3,0,0,0,0-.12,3.06,3.06,0,0,1-3.34,2.68,5.78,5.78,0,0,1-1.51-.21c-1.55-.5-1.91-2.22-1.91-4.11,0-.8.06-1.6.13-2.4l.07-1.14c0-.12,0-.21,0-.32a5.32,5.32,0,0,0-.2-1.44c-.5-.14-1-.07-1.24-.57a.78.78,0,0,1,0-.21,1.29,1.29,0,0,1,.62-1,1.8,1.8,0,0,1,.84-.19,2.91,2.91,0,0,1,1.74.53,4.22,4.22,0,0,1,.55,2.15c-.07.75-.39,3.42-.39,4.11a4.32,4.32,0,0,0,.73,2.76,2,2,0,0,0,.78.16c2.42,0,2.92-4.84,2.92-7Z" transform="translate(-766.06 -96.8)"/><path class="cls-1" d="M1144.38,120.89a1.07,1.07,0,0,1-.62-.18.85.85,0,0,1-.21-.6c0-.16,0-.36,0-.55,0-1.09-.19-2.37-.19-3.63v-.23c0-.71.1-1.6.1-2.44,0-1.12-.14-2.15-.76-2.56-.82.39-1.32,1-1.78,1-.73,0-1.76-1.08-2.44-1.08a.54.54,0,0,0-.28,0c-.3.11-.48.91-.48,1.78a12.38,12.38,0,0,0,.21,2.38c.16.66.16.77.29,1.21a1.59,1.59,0,0,0,.78-1.33v-.11c0-.71,0-1,.37-1.39a1.15,1.15,0,0,1,.86-.32,1.71,1.71,0,0,1,1,.32c0,.25,0,.45,0,.66,0,1.53-2,3-2,4.41v.11c0,.23,0,.5,0,.76a1.93,1.93,0,0,1-.18.93,2,2,0,0,1-1.32.57,1.33,1.33,0,0,1-.67-.16,23.64,23.64,0,0,1-1.34-5.59c0-.05,0-.12,0-.16-.07-.73-.13-1.6-.13-2.38a4.86,4.86,0,0,1,.32-1.74,3,3,0,0,1,2.94-1.69,3.3,3.3,0,0,1,2.06.67,3.19,3.19,0,0,1,2-.71,2.52,2.52,0,0,1,2.37,1.44,2.85,2.85,0,0,1,.16,1.16c0,.41,0,.82,0,1.24v.29c0,1.76,0,3.82.18,5.37a11.94,11.94,0,0,1,.28,1.4,1,1,0,0,1-.28.7A3.41,3.41,0,0,1,1144.38,120.89Z" transform="translate(-766.06 -96.8)"/><path class="cls-1" d="M1140.33,106.68c0-.73.69-1,.71-1.83-.52-.09-1.07-.43-1.07-.89a.83.83,0,0,1,.29-.57,1.59,1.59,0,0,1,1.17-.41c.91,0,1.92.55,1.92,1.44a1.62,1.62,0,0,1-.32.91h.23c1.76,0,2.12-1.76,4-1.76h.11a.86.86,0,0,1,.5.71c0,.59-.87,1.14-1.48,1.53l-.09,0a8.86,8.86,0,0,1-4.25,1.44,3,3,0,0,1-1.72-.46Z" transform="translate(-766.06 -96.8)"/><path class="cls-1" d="M1155.16,111.43a2.18,2.18,0,0,0,0-.41c0-.3,0-.62,0-.87a.66.66,0,0,1,0-.25,1.46,1.46,0,0,1,1.39-.75,1.62,1.62,0,0,1,.59.09.82.82,0,0,1,.28.68c0,.28-.07.6-.09.89s-.05.73-.05,1.12c0,.6.05,1.26.09,1.9v6.58a.82.82,0,0,1-.68.27,1.2,1.2,0,0,1-1.26-.75,1.14,1.14,0,0,1,0-.27c0-.28,0-.87,0-1s0-.36,0-.36,0-.05,0-.07a.3.3,0,0,0,0-.12,3.06,3.06,0,0,1-3.33,2.68,5.72,5.72,0,0,1-1.51-.21c-1.56-.5-1.92-2.22-1.92-4.11,0-.8.07-1.6.14-2.4l.06-1.14c0-.12,0-.21,0-.32a4.92,4.92,0,0,0-.21-1.44c-.5-.14-1.05-.07-1.23-.57a.8.8,0,0,1,0-.21,1.29,1.29,0,0,1,.62-1,1.83,1.83,0,0,1,.84-.19,2.91,2.91,0,0,1,1.74.53,4.13,4.13,0,0,1,.55,2.15c-.07.75-.39,3.42-.39,4.11a4.32,4.32,0,0,0,.73,2.76,2,2,0,0,0,.78.16c2.42,0,2.92-4.84,2.92-7Z" transform="translate(-766.06 -96.8)"/><path class="cls-1" d="M1197.51,118.91c0-.28.07-.6.09-.89.07-.87.05-2,.14-3,.07-.75.11-1.48.11-2.17a4.32,4.32,0,0,0-.73-2.76,2,2,0,0,0-.77-.16c-.85,0-1.28.68-1.63,1.59a18.51,18.51,0,0,0-1.09,5.44c0,.6.2,1.3.2,1.78a1.19,1.19,0,0,1,0,.28,1.41,1.41,0,0,1-1.39.78,1.78,1.78,0,0,1-1-.3c0-2.81-.07-6.08-.12-9.35a2.06,2.06,0,0,0-.36,0c-.3,0-.09,0-.37,0-.43,0-.48-.27-.52-.7,0-.05,0-.07,0-.12s0-.14,0-.2c0-.85.16-.87.87-.87h.11l.87,0c1.3,0,1.58,1.17,1.58,2.35a5.82,5.82,0,0,1,0,.6l.06-.25a6.1,6.1,0,0,1,1-2.43,4.28,4.28,0,0,1,2.1-.48,5.78,5.78,0,0,1,1.51.21c1.55.5,1.92,2.22,1.92,4.11,0,1.72-.3,3.59-.3,4.92v.13c0,.39.16.89.16,1.26a.66.66,0,0,1,0,.25,1.46,1.46,0,0,1-1.39.75,1.71,1.71,0,0,1-.6-.09A.84.84,0,0,1,1197.51,118.91Z" transform="translate(-766.06 -96.8)"/><path class="cls-1" d="M1212.38,123.09c0,.68-.86,1.23-1.5,1.23a.9.9,0,0,1-.44-.11c-.25-.16-.29-.48-.29-.85v-.8c0-.2,0-.43,0-.66-.07-2.67.19-11.42-1.21-11.79a7.5,7.5,0,0,0-2.15-.27,5.5,5.5,0,0,0-1.41.16c0,.34.25.43.29.73,0,.71,0,1.53,0,2.42,0,.66,0,1.35,0,2v.67c0,.5,0,1.48,0,2a6.91,6.91,0,0,1,.77-.27h.21c.8,0,1.12.18,1.12.82v.12c-.09.61-1.67,1-2.19,1.09a9.36,9.36,0,0,1-1.17.09,1.11,1.11,0,0,1-.87-.38c0-1.42.09-2.86.09-4.3,0-1.12,0-2.24-.13-3.38-.46-.14-1-.12-1.12-.62v-.09c0-.66,1.55-2.26,2-2.44a8.83,8.83,0,0,1,2.58-.32c1.32,0,3.22.2,3.7.66a8.21,8.21,0,0,1,1.07,2.65,17.4,17.4,0,0,1,.28,3.45c0,1.21.25,6.51.25,7.36,0,.11,0,.25,0,.36s.07.16.11.23A.9.9,0,0,1,1212.38,123.09Z" transform="translate(-766.06 -96.8)"/><path class="cls-1" d="M1224.45,112.14c.77,0,1.53.26,1.53,1s-.34,1-1.24,1.08c-.11,0-.29,0-.48,0,0,1.76-.13,3.7-1,4.91-.83.62-3,.78-4.25.78a4.74,4.74,0,0,1-1.54-.23c-1.27-.46-1.91-2.44-2.1-4.11,0-.28,0-.55,0-.85,0-1,.11-1.78.11-2.74a5.49,5.49,0,0,0-.23-1.8c-.5-.14-1-.07-1.23-.57a.8.8,0,0,1,0-.21,1.29,1.29,0,0,1,.62-1,1.87,1.87,0,0,1,.85-.19,2.9,2.9,0,0,1,1.73.53,3.38,3.38,0,0,1,.37,1.92c0,.5,0,1,0,1.3v.44c0,.73,0,1.16,0,1.82a6,6,0,0,0,.82,3.52,5.67,5.67,0,0,0,1.81.3,1.88,1.88,0,0,0,1.14-.3,5.28,5.28,0,0,0,.92-2.76c0-.19.06-.32.09-.83-.73,0-1.47,0-2,0s-1.14-.16-1.23-.76v-.11a1.5,1.5,0,0,1,1.23-1.28l.16,0c.25,0,.55.07.94.09h.84c0-.12,0-.23,0-.37,0-.77-.18-1.85-.18-2.46a.79.79,0,0,1,0-.23,1.29,1.29,0,0,1,2.15-.35c0,1.38.07,1.81.07,2.2s0,.59,0,1.25Z" transform="translate(-766.06 -96.8)"/><path class="cls-1" d="M1228.51,122.68v-.12c0-.13,0-.27,0-.41,0-.5.23-.82.85-.87l.2.07h3.11a3,3,0,0,1,2,.62c-.06-2.67-.09-10.28-1.18-11.86a7.5,7.5,0,0,0-2.15-.27,5.63,5.63,0,0,0-1.42.16c0,.34.25.43.3.73,0,.71,0,1.53,0,2.42,0,.66,0,1.35,0,2v3.5c0,1-.25,1-.48,1l-1,0c-.23,0-.52,0-.89,0-.53,0-1.07,0-1.19-.43v-.12c0-.13,0-.27,0-.41,0-.5.11-.94.73-1l.21,0,.61.16c0-.94.05-1.9.05-2.86a32.06,32.06,0,0,0-.14-3.38c-.46-.14-1-.12-1.12-.62v-.09c0-.66,1.56-2.26,2-2.44a8.88,8.88,0,0,1,2.58-.32c1.33,0,3.23.2,3.71.66a8.44,8.44,0,0,1,1.07,2.65,17.44,17.44,0,0,1,.27,3.45c0,1.21.26,6.44.26,7.29,0,.11,0,.25,0,.36s.07.16.12.23a.9.9,0,0,1,0,.23c0,.69-.87,1.23-1.51,1.23-1.23,0-2.44-1.21-3.13-1.21-.09,0-2.47,0-2.56.07C1229.18,123.11,1228.63,123.07,1228.51,122.68Z" transform="translate(-766.06 -96.8)"/><path class="cls-1" d="M1236.35,105.24a1.54,1.54,0,0,1-.11.58,3.89,3.89,0,0,1-2.08.45l-3.48,0h-.34c-1.07,0-1.46.11-2.35.11a2.73,2.73,0,0,1-1.26-.27,2.49,2.49,0,0,1-.07-.51c0-1.35,1.21-1.19,2.84-1.28.48,0,1,0,1.55,0,.78,0,1.6,0,2.49.09l.69,0a2.89,2.89,0,0,0,0-.43.59.59,0,0,0,0-.23.61.61,0,0,1,0-.23c0-.61.76-.73,1.4-.73a.83.83,0,0,1,.43.12.93.93,0,0,1,.3.84v.8C1236.33,104.79,1236.35,105,1236.35,105.24Z" transform="translate(-766.06 -96.8)"/><path class="cls-1" d="M1240.28,119.68a1,1,0,0,1-.82-.34v-.94c0-3.29-.18-8.38-.18-11.37,0-.44-.14-.92-.14-1.31,0-.06,0-.13,0-.2.09-.82.91-1.44,1.14-2.13a1.73,1.73,0,0,0,.07-.5,1.79,1.79,0,0,0-1.76-1.78,1.46,1.46,0,0,0-.61.11c-.62.25-.55,1.42-1.19,1.88a1.52,1.52,0,0,1-.89.25,1.48,1.48,0,0,1-1.05-.37,4.53,4.53,0,0,1,1-2.24,4.58,4.58,0,0,1,3.34-1.3,3.33,3.33,0,0,1,3.24,1.78,5.11,5.11,0,0,1,.23,1.33v.14c-.09.93-1.09,1.71-1.3,2.83a3.91,3.91,0,0,0-.07.91c0,.37,0,.73,0,1.08a4.35,4.35,0,0,1,0,.52c0,.46,0,1,0,1.53,0,2.61.32,6.08.32,8.41,0,.37,0,.71,0,1A1.53,1.53,0,0,1,1240.28,119.68Z" transform="translate(-766.06 -96.8)"/><path class="cls-1" d="M1251.91,119.25c0-.34.09-.73.11-1.1V118c0-2.26-.48-4.73-2.35-5.23a13.93,13.93,0,0,1-2.7,1.6,6,6,0,0,0-.11,1c0,.73.11,1.51.11,2.22a3,3,0,0,1-.22,1.3,1.58,1.58,0,0,1-1.4.8,1.92,1.92,0,0,1-.57-.11,1.58,1.58,0,0,1-.14-.71c0-.46.12-1,.16-1.44.07-.92.1-1.85.1-2.77s0-1.57,0-2.37,0-1.33.07-2.08a5.46,5.46,0,0,1-.57,0c-.75,0-.87-.25-.87-1.18,0-.6.55-.67,1.21-.67h.12c.23,0,.48,0,.71,0a7.2,7.2,0,0,1,1-.16.61.61,0,0,1,.53.23,4.16,4.16,0,0,1,.09.94c0,.93-.21,1.71-.21,2.69v.28a6.65,6.65,0,0,0,2.77-1.81c.66-.68,1-1.92,1.83-2.31a1.35,1.35,0,0,1,.64-.13c.39,0,.77.13.84.43a.75.75,0,0,1,0,.21c0,.54-.52,1.07-.75,1.37a9.65,9.65,0,0,1-.82.89,5.76,5.76,0,0,1,2.17,2.81,21.48,21.48,0,0,1,.5,4.77,1.48,1.48,0,0,1-1.55,1.35,1.36,1.36,0,0,1-.53-.11A1,1,0,0,1,1251.91,119.25Z" transform="translate(-766.06 -96.8)"/><path class="cls-1" d="M1256.48,112.33v-.41a7.11,7.11,0,0,0-.18-1.76c-.51-.14-1-.07-1.24-.57a.78.78,0,0,1,0-.21,1.31,1.31,0,0,1,.61-1,1.87,1.87,0,0,1,.85-.19,2.91,2.91,0,0,1,1.74.53,4.55,4.55,0,0,1,.32,2.17c0,2.15.52,7,2.94,7a2,2,0,0,0,.78-.16A4.32,4.32,0,0,0,1263,115c0-.69,0-1.42-.11-2.17-.09-1.07-.07-2.15-.14-3,0-.29-.09-.61-.09-.89a.81.81,0,0,1,.27-.68,1.68,1.68,0,0,1,.6-.09,1.47,1.47,0,0,1,1.39.75.92.92,0,0,1,0,.25c0,.37-.16.87-.16,1.26v.13c0,1.33.29,3.2.29,4.92,0,1.89-.36,3.61-1.92,4.11a5.64,5.64,0,0,1-1.5.21c-1.83,0-2.72-.44-3.27-2.4l-.07-.25a.26.26,0,0,0,0,.11s0,.05,0,.07,0,.25,0,.36,0,.69,0,1a1.19,1.19,0,0,1,0,.28,1.21,1.21,0,0,1-1.26.77.82.82,0,0,1-.68-.27Z" transform="translate(-766.06 -96.8)"/><path class="cls-1" d="M1262.51,104a9,9,0,0,1-.09-1.3s0-.12,0-.16c.12-.48.71-.64,1.33-.64a1.27,1.27,0,0,1,.39.06c.61.26.43,1.81.52,2.77v.2c0,.85-.09,1.38-.94,1.38a2.29,2.29,0,0,1-.41,0C1262.33,106.27,1262.67,104.92,1262.51,104Z" transform="translate(-766.06 -96.8)"/><path class="cls-1" d="M1267.47,110.23a.6.6,0,0,1-.5-.23.61.61,0,0,1-.16-.41c0-.74,1.3-1.51,2.19-1.58h.25c1.19,0,1.69.8,1.85,2l-.07.21a14.77,14.77,0,0,0-1.14,4.77,4,4,0,0,0,.8,2.56,2.31,2.31,0,0,0,1,.32c1.07,0,1.39-1.39,1.39-3a13,13,0,0,0-.14-2c-.13-1.12-.13-2.27-.22-3-.07-.39-.28-.64-.28-1a.41.41,0,0,1,0-.16,1.18,1.18,0,0,1,1.19-.78,1.21,1.21,0,0,1,1,.43c.13,1.58.45,3.34.57,5,0,.34,0,.69,0,1,0,2.83-1,5.16-3.84,5.16-2.35,0-3.67-2.15-3.67-4.64a7.61,7.61,0,0,1,.13-1.43c.23-1.19,1-2.27,1-3.34a2.76,2.76,0,0,0-.06-.57A4.24,4.24,0,0,1,1267.47,110.23Z" transform="translate(-766.06 -96.8)"/><path class="cls-1" d="M1269.2,105.82a1.54,1.54,0,0,1-.11-.58c0-.22,0-.45,0-.66v-.8a.93.93,0,0,1,.3-.84.83.83,0,0,1,.43-.12c.64,0,1.38.12,1.4.73a.9.9,0,0,1,0,.23s0,.12,0,.23a1.94,1.94,0,0,0,0,.43l.68-.06h1.67c.36,0-.07,0,.8,0a3.8,3.8,0,0,1,2.08.46,1.46,1.46,0,0,1,.11.57c0,1-.52.73-1.85.84-.3,0-.71,0-1.12,0-.84,0-1.78,0-2.31,0A3.89,3.89,0,0,1,1269.2,105.82Z" transform="translate(-766.06 -96.8)"/><path class="cls-1" d="M1270.21,100.79c0-.73.3-1,.32-1.81-.53-.09-1.07-.43-1.07-.89a.84.84,0,0,1,.29-.57,1.59,1.59,0,0,1,1.17-.41c.91,0,1.92.55,1.92,1.44a1.62,1.62,0,0,1-.32.91h.23c1.76,0,2.12-1.76,4-1.76h.12a.89.89,0,0,1,.5.71c0,.6-.87,1.15-1.48,1.53l-.1,0a8.69,8.69,0,0,1-4.25,1.44,1.91,1.91,0,0,1-1.32-.48Z" transform="translate(-766.06 -96.8)"/><path class="cls-1" d="M1284.54,110.43a2.27,2.27,0,0,0,0-.41c0-.3,0-.62,0-.87a.93.93,0,0,1,0-.25,1.47,1.47,0,0,1,1.39-.75,1.68,1.68,0,0,1,.6.09.81.81,0,0,1,.27.68c0,.28-.07.6-.09.89s0,.73,0,1.12c0,.6,0,1.26.09,1.9v6.58a.84.84,0,0,1-.69.27,1.19,1.19,0,0,1-1.25-.75.77.77,0,0,1,0-.27c0-.28,0-.87,0-1s0-.36,0-.36,0-.05,0-.07a.3.3,0,0,0,0-.12,3.06,3.06,0,0,1-3.34,2.68,5.78,5.78,0,0,1-1.51-.21c-1.55-.5-1.92-2.22-1.92-4.11,0-.8.07-1.6.14-2.4l.07-1.14c0-.12,0-.21,0-.32a5.32,5.32,0,0,0-.2-1.44c-.51-.14-1-.07-1.24-.57a.78.78,0,0,1,0-.21,1.31,1.31,0,0,1,.61-1,1.87,1.87,0,0,1,.85-.19,2.91,2.91,0,0,1,1.74.53,4.23,4.23,0,0,1,.54,2.15c-.06.75-.38,3.42-.38,4.11a4.32,4.32,0,0,0,.73,2.76,2,2,0,0,0,.77.16c2.43,0,2.93-4.84,2.93-7Z" transform="translate(-766.06 -96.8)"/><path class="cls-1" d="M1293,109.86a6.12,6.12,0,0,0-1.42.16c0,.34.25.43.3.73,0,.71,0,1.53,0,2.42,0,.67,0,1.35,0,2v.66c0,.64,0,1.28,0,1.92,0,.27.12.55.12.8v.11a1.46,1.46,0,0,1-1.4,1,1.12,1.12,0,0,1-.87-.39c0-1.42.1-2.86.1-4.3,0-1.12,0-2.24-.14-3.38-.46-.14-1-.11-1.12-.62v-.09c0-.66,1.55-2.26,2-2.44a8.88,8.88,0,0,1,2.58-.32c1.33,0,3.22.2,3.7.66a8.22,8.22,0,0,1,1.08,2.65,18.23,18.23,0,0,1,.27,3.45c0,1.21.25,2,.25,2.83,0,.12,0,.26,0,.37s.07.16.11.23a.61.61,0,0,1,0,.23c0,.68-.87,1.23-1.51,1.23a.9.9,0,0,1-.44-.11c-.25-.16-.29-.48-.29-.85v-.8c0-.2,0-.43,0-.66-.06-2.67-.11-5.69-1.21-7.27A7.43,7.43,0,0,0,1293,109.86Z" transform="translate(-766.06 -96.8)"/><path class="cls-1" d="M1293,105.68c0-.73.69-1,.71-1.83-.53-.09-1.07-.43-1.07-.89a.83.83,0,0,1,.29-.57,1.59,1.59,0,0,1,1.17-.41c.91,0,1.92.55,1.92,1.44a1.62,1.62,0,0,1-.32.91h.23c1.76,0,2.12-1.76,4-1.76h.12a.89.89,0,0,1,.5.71c0,.59-.87,1.14-1.48,1.53l-.1,0a8.79,8.79,0,0,1-4.25,1.44,3,3,0,0,1-1.71-.46Z" transform="translate(-766.06 -96.8)"/><path class="cls-1" d="M1300.48,111.21a1.35,1.35,0,0,1-.73-.23,2.09,2.09,0,0,1,0-.34c0-1.21,1.64-2.38,2.94-2.49l2.11,0c2,0,2.53,2.2,2.62,4.18,0,.37,0,.71,0,1.06,0,1-.07,2-.07,3.06,0,.41,0,.82,0,1.21s.19.61.19.87a1.57,1.57,0,0,1-1.44,1.14.9.9,0,0,1-.48-.14c-.28-.18-.32-.57-.32-1v-.76c0-1.55-.12-3.06-.12-5.09,0-2.47-.68-3-1.41-3a9.33,9.33,0,0,0-1.33.25C1301.78,110,1301.28,111.21,1300.48,111.21Z" transform="translate(-766.06 -96.8)"/><path class="cls-1" d="M1312.43,109.75a3,3,0,0,0-.43,0c-.46.07-1.4.68-2.06.68a.64.64,0,0,1-.68-.61s0-.12,0-.16c0-1,1.79-1.51,3-1.63.23,0,.43,0,.66,0a4.82,4.82,0,0,1,3.43,1.08c1.1,1.23.94,3.33,1.17,5.2a6.26,6.26,0,0,1,0,.85c0,2.58-1.46,4.59-3.88,4.59a3.91,3.91,0,0,1-.76-.07c-.52-.06-2.1-.48-2.19-1.09v-.12c0-.64.78-1.09,1.58-1.09h.2c.73.07.87.52,1.42.52a1.92,1.92,0,0,0,.3,0c.77-.16,1-1.9,1-3.61a12.36,12.36,0,0,0-.29-2.88,4.22,4.22,0,0,0-.69-1.35A16.75,16.75,0,0,0,1312.43,109.75Z" transform="translate(-766.06 -96.8)"/><path class="cls-1" d="M1327.26,119.25c0-.34.09-.73.11-1.1V118c0-2.26-.48-4.73-2.35-5.23a13.93,13.93,0,0,1-2.7,1.6,6,6,0,0,0-.11,1c0,.73.11,1.51.11,2.22a3,3,0,0,1-.22,1.3,1.58,1.58,0,0,1-1.4.8,1.92,1.92,0,0,1-.57-.11,1.58,1.58,0,0,1-.14-.71c0-.46.12-1,.16-1.44.07-.92.1-1.85.1-2.77s0-1.57,0-2.37,0-1.33.07-2.08a5.46,5.46,0,0,1-.57,0c-.75,0-.87-.25-.87-1.18,0-.6.55-.67,1.21-.67h.12c.23,0,.48,0,.71,0a7,7,0,0,1,1-.16.61.61,0,0,1,.53.23,4.16,4.16,0,0,1,.09.94c0,.93-.21,1.71-.21,2.69v.28a6.65,6.65,0,0,0,2.77-1.81c.66-.68,1-1.92,1.83-2.31a1.35,1.35,0,0,1,.64-.13c.39,0,.77.13.84.43a.51.51,0,0,1,0,.21c0,.54-.53,1.07-.76,1.37a9.65,9.65,0,0,1-.82.89,5.76,5.76,0,0,1,2.17,2.81,21.48,21.48,0,0,1,.5,4.77A1.48,1.48,0,0,1,1328,120a1.36,1.36,0,0,1-.53-.11A1,1,0,0,1,1327.26,119.25Z" transform="translate(-766.06 -96.8)"/><path class="cls-1" d="M1338.36,110.43a1.58,1.58,0,0,0,.05-.41c0-.3-.05-.62-.05-.87a.92.92,0,0,1,.05-.25,1.46,1.46,0,0,1,1.39-.75,1.71,1.71,0,0,1,.6.09.81.81,0,0,1,.27.68c0,.28-.07.6-.09.89s0,.73,0,1.12c0,.6,0,1.26.1,1.9v6.58a.84.84,0,0,1-.69.27,1.2,1.2,0,0,1-1.26-.75,1.14,1.14,0,0,1,0-.27c0-.28,0-.87,0-1s0-.36,0-.36,0-.05,0-.07a.21.21,0,0,0,0-.12,3,3,0,0,1-3.33,2.68,5.78,5.78,0,0,1-1.51-.21c-1.55-.5-1.92-2.22-1.92-4.11,0-.8.07-1.6.14-2.4l.07-1.14c0-.12,0-.21,0-.32a4.92,4.92,0,0,0-.21-1.44c-.5-.14-1-.07-1.23-.57a.78.78,0,0,1,0-.21,1.31,1.31,0,0,1,.61-1,1.87,1.87,0,0,1,.85-.19,2.85,2.85,0,0,1,1.73.53,4.13,4.13,0,0,1,.55,2.15c-.07.75-.39,3.42-.39,4.11a4.32,4.32,0,0,0,.73,2.76,2,2,0,0,0,.78.16c2.42,0,2.93-4.84,2.93-7Z" transform="translate(-766.06 -96.8)"/><path class="cls-1" d="M1335.39,105.68c0-.73.69-1,.71-1.83-.52-.09-1.07-.43-1.07-.89a.83.83,0,0,1,.29-.57,1.59,1.59,0,0,1,1.17-.41c.91,0,1.92.55,1.92,1.44a1.62,1.62,0,0,1-.32.91h.23c1.76,0,2.12-1.76,4-1.76h.11a.86.86,0,0,1,.5.71c0,.59-.87,1.14-1.48,1.53l-.09,0a8.86,8.86,0,0,1-4.25,1.44,3,3,0,0,1-1.72-.46Z" transform="translate(-766.06 -96.8)"/><path class="cls-1" d="M1342.86,111.21a1.38,1.38,0,0,1-.73-.23,2.09,2.09,0,0,1,0-.34c0-1.21,1.64-2.38,2.94-2.49l2.11,0c2,0,2.53,2.2,2.62,4.18,0,.37,0,.71,0,1.06,0,1-.07,2-.07,3.06,0,.41,0,.82,0,1.21s.19.61.19.87a1.57,1.57,0,0,1-1.44,1.14.92.92,0,0,1-.48-.14c-.28-.18-.32-.57-.32-1v-.76c0-1.55-.12-3.06-.12-5.09,0-2.47-.68-3-1.41-3a9.33,9.33,0,0,0-1.33.25C1344.17,110,1343.66,111.21,1342.86,111.21Z" transform="translate(-766.06 -96.8)"/><path class="cls-1" d="M1396.66,106.67a.6.6,0,0,1-.09.34,7.48,7.48,0,0,1-.5.69,5.18,5.18,0,0,1-.48.53,2.87,2.87,0,0,1-.8.5l-.07,0a10.17,10.17,0,0,1,.66,1.56,4.89,4.89,0,0,1,0,.55c0,.45-.07.93-.07,1.41s0,1,0,1.53,0,.78,0,1.15c.07,1,.21,1.66.23,2.69a1.77,1.77,0,0,1-1.42.71.84.84,0,0,1-.66-.25,2.64,2.64,0,0,1-.27-1.44c0-.69.07-1.49.07-2.08a2.37,2.37,0,0,0,0-.48,8.76,8.76,0,0,0-2.83-.5c-1,0-1.83.3-1.83,1.21a1.67,1.67,0,0,0,0,.3,2.08,2.08,0,0,0,.85,1.14c.66.41,1.58.39,1.58,1.16v.12c0,.5-.76.89-1.4.89a1.33,1.33,0,0,1-.34,0,3.59,3.59,0,0,1-2.88-3.2v-.11c.09-2.35,2.08-3.18,4.46-3.18a17.34,17.34,0,0,1,2.14.14v-.16c0-2-.77-3.11-2.46-3.4a4.5,4.5,0,0,0-.62,0c-1,0-1.69.76-2.61.76a2,2,0,0,1-.93-.28v-.73a5.8,5.8,0,0,1,3.06-1.41h.23c.39,0,.77.09,1.16.09a8.77,8.77,0,0,1,2.47.5,1.46,1.46,0,0,0,.21-.16c.57-.52.64-1,1.3-1.35a.71.71,0,0,1,.41-.09,2.08,2.08,0,0,1,.91.23.81.81,0,0,1,.44.48A.55.55,0,0,1,1396.66,106.67Z" transform="translate(-766.06 -96.8)"/><path class="cls-1" d="M1397.51,109.8a1.41,1.41,0,0,1-.74-.23,1.86,1.86,0,0,1,0-.34c0-1.21,1.64-2.37,3-2.49l2.1,0c2,0,2.53,2.19,2.63,4.18,0,.36,0,.71,0,1,0,1-.07,2.06-.07,3.06,0,.41,0,.82.05,1.21s.18.62.18.87a1.56,1.56,0,0,1-1.44,1.14.91.91,0,0,1-.48-.13,1.15,1.15,0,0,1-.32-1v-.75c0-1.55-.11-3.06-.11-5.1,0-2.46-.69-3-1.42-3a8.25,8.25,0,0,0-1.33.26C1398.81,108.61,1398.31,109.8,1397.51,109.8Z" transform="translate(-766.06 -96.8)"/><path class="cls-1" d="M1411.1,113.8c-1.19-.8-3.06-1.19-3.79-2.26a1.62,1.62,0,0,1-.25-.94V110a8.45,8.45,0,0,1,0-1,2.82,2.82,0,0,1,.71-1.69c.53-.68,2-.61,2.83-.73a4.1,4.1,0,0,1,.51,0c1.14,0,3,.41,3.15,1a1.23,1.23,0,0,1,0,.27c0,.85-.89,1-1.64,1a5.72,5.72,0,0,0-2-.57,7.66,7.66,0,0,0-1.26.11,4.5,4.5,0,0,0-.41,1.49,1.89,1.89,0,0,0,0,.32c.1.52,1.17,1.05,1.83,1.37,1.46.68,3.41,1.62,3.61,3.49a1.89,1.89,0,0,1,0,.32,4.75,4.75,0,0,1-.75,2.11,4.89,4.89,0,0,1-3.34,1,6,6,0,0,1-2.71-.57c-.42-.23-1-.77-1-1.19s.77-1,1.3-1,.85.54,1.35.73a4.43,4.43,0,0,0,1.6.32c.75,0,1.39-.28,1.53-1A3.12,3.12,0,0,0,1411.1,113.8Z" transform="translate(-766.06 -96.8)"/><path class="cls-1" d="M1419.53,110.24c.18,0,.37,0,.57,0,.66,0,.32,0,.94,0h.39a.94.94,0,0,1,.73.23,1.3,1.3,0,0,1,.23.73c0,.66-.3.75-1.65.75h-.66c-1.39,0-3.15,0-3.15-1,0-.35,0-.39,0-.83,0-.66.16-1.16,1-1.16,1.18,0,1,.11,1.18,1.1,0,0,0,.11,0,.16A1,1,0,0,0,1419.53,110.24Zm0,4.91.57,0c.66,0,.32,0,.94,0h.39a1,1,0,0,1,.73.23,1.33,1.33,0,0,1,.23.73c0,.67-.3.76-1.65.76h-.66c-1.39,0-3.15,0-3.15-1,0-.34,0-.39,0-.82,0-.67.16-1.17,1-1.17,1.18,0,1,.12,1.18,1.1,0,0,0,.11,0,.16A.88.88,0,0,0,1419.53,115.15Z" transform="translate(-766.06 -96.8)"/><path class="cls-1" d="M1431.64,109a2.42,2.42,0,0,0,0-.42c0-.29,0-.61,0-.86a.67.67,0,0,1,0-.26,1.46,1.46,0,0,1,1.39-.75,1.66,1.66,0,0,1,.59.09.85.85,0,0,1,.28.69c0,.27-.07.59-.09.89s0,.73,0,1.12c0,.59,0,1.25.09,1.89V118a.83.83,0,0,1-.68.28,1.2,1.2,0,0,1-1.26-.75,1.23,1.23,0,0,1,0-.28c0-.27,0-.87,0-1s0-.37,0-.37,0,0,0-.07a.26.26,0,0,0,0-.11,3.06,3.06,0,0,1-3.33,2.67,5.33,5.33,0,0,1-1.51-.21c-1.56-.5-1.92-2.21-1.92-4.11,0-.8.07-1.6.14-2.4l.06-1.14c0-.11,0-.2,0-.32a5,5,0,0,0-.21-1.44c-.5-.14-1.05-.07-1.23-.57a.54.54,0,0,1-.05-.21,1.31,1.31,0,0,1,.62-1,2,2,0,0,1,.84-.18,2.92,2.92,0,0,1,1.74.52,4.18,4.18,0,0,1,.55,2.15c-.07.76-.39,3.43-.39,4.12a4.33,4.33,0,0,0,.73,2.76,2.26,2.26,0,0,0,.78.16c2.42,0,2.92-4.84,2.92-7Z" transform="translate(-766.06 -96.8)"/><path class="cls-1" d="M1431.66,102.58a8.88,8.88,0,0,1-.09-1.3s0-.11,0-.16c.12-.48.71-.64,1.33-.64a1,1,0,0,1,.39.07c.61.25.43,1.8.52,2.76v.21c0,.84-.09,1.37-.93,1.37a3.49,3.49,0,0,1-.42,0C1431.48,104.87,1431.82,103.52,1431.66,102.58Z" transform="translate(-766.06 -96.8)"/><path class="cls-1" d="M1436.14,109.8a1.35,1.35,0,0,1-.73-.23,1.86,1.86,0,0,1-.05-.34c0-1.21,1.65-2.37,3-2.49l2.1,0c2.06,0,2.54,2.19,2.63,4.18,0,.36,0,.71,0,1,0,1-.07,2.06-.07,3.06,0,.41,0,.82,0,1.21s.18.62.18.87a1.55,1.55,0,0,1-1.44,1.14.91.91,0,0,1-.48-.13,1.15,1.15,0,0,1-.32-1v-.75c0-1.55-.11-3.06-.11-5.1,0-2.46-.69-3-1.42-3a7.9,7.9,0,0,0-1.32.26C1437.44,108.61,1436.94,109.8,1436.14,109.8Z" transform="translate(-766.06 -96.8)"/><path class="cls-1" d="M1449.73,113.8c-1.18-.8-3.06-1.19-3.79-2.26a1.7,1.7,0,0,1-.25-.94V110a6.77,6.77,0,0,1,0-1,2.81,2.81,0,0,1,.7-1.69c.53-.68,2-.61,2.84-.73a4,4,0,0,1,.5,0c1.14,0,3,.41,3.15,1a.83.83,0,0,1,0,.27c0,.85-.89,1-1.65,1a5.72,5.72,0,0,0-2-.57,7.54,7.54,0,0,0-1.25.11,4.5,4.5,0,0,0-.41,1.49,1.89,1.89,0,0,0,0,.32c.09.52,1.16,1.05,1.83,1.37,1.46.68,3.4,1.62,3.61,3.49a1.89,1.89,0,0,1,0,.32,4.75,4.75,0,0,1-.75,2.11,4.91,4.91,0,0,1-3.34,1,6,6,0,0,1-2.72-.57c-.41-.23-1-.77-1-1.19s.78-1,1.3-1,.85.54,1.35.73a4.52,4.52,0,0,0,1.6.32c.76,0,1.4-.28,1.53-1A3.09,3.09,0,0,0,1449.73,113.8Z" transform="translate(-766.06 -96.8)"/><path class="cls-1" d="M1451.22,122.6c0-.3,0-1.19-.07-1.51,0,0,0-.34,0-.57a.72.72,0,0,1,.18-.57,1.71,1.71,0,0,1,.82-.14c.64.11.71.94.71,1.51a16.34,16.34,0,0,1,.07,1.67c0,.59-.53,1.64-2.22,1.64-1.94,0-2.35-.75-2.35-1.39v-.64a1.84,1.84,0,0,0-.09-.76.71.71,0,0,0-.14,0c-.23,0-.16.05-.37.05a.63.63,0,0,1-.57-.26,1.75,1.75,0,0,1-.2-.89,1.18,1.18,0,0,1,.2-.73,1.81,1.81,0,0,1,.57-.18c.57,0,1.1.09,1.49.09l.46.09c.32.39.18.55.25,1.33A16.34,16.34,0,0,1,1450,123c0,.18.11.36.64.36s.59-.27.59-.43Z" transform="translate(-766.06 -96.8)"/><path class="cls-1" d="M1447.45,104.27c0-.73.68-1,.71-1.82-.53-.1-1.08-.44-1.08-.9a.86.86,0,0,1,.3-.57,1.63,1.63,0,0,1,1.17-.41c.91,0,1.92.55,1.92,1.44a1.73,1.73,0,0,1-.32.92h.22c1.76,0,2.13-1.76,4-1.76h.12a.87.87,0,0,1,.5.7c0,.6-.87,1.15-1.49,1.53l-.09,0a8.72,8.72,0,0,1-4.25,1.44,2.92,2.92,0,0,1-1.71-.46Z" transform="translate(-766.06 -96.8)"/><path class="cls-1" d="M1466.5,117.5c0-.27.07-.59.1-.89.06-.87,0-1.94.13-3,.07-.76.12-1.49.12-2.18a4.33,4.33,0,0,0-.73-2.76,2.26,2.26,0,0,0-.78-.16c-.85,0-1.28.69-1.62,1.6a18.13,18.13,0,0,0-1.1,5.44c0,.59.21,1.3.21,1.78a.77.77,0,0,1,0,.27,1.38,1.38,0,0,1-1.39.78,1.73,1.73,0,0,1-1-.3c0-2.81-.07-6.07-.11-9.34a2.17,2.17,0,0,0-.37,0c-.3,0-.09,0-.36,0-.44,0-.48-.28-.53-.71,0,0,0-.07,0-.11s0-.14,0-.21c0-.84.16-.87.87-.87h.12c.32,0,.61,0,.87,0,1.3,0,1.57,1.16,1.57,2.35a5.62,5.62,0,0,1,0,.59l.07-.25a6,6,0,0,1,1-2.42,4.28,4.28,0,0,1,2.1-.48,5.39,5.39,0,0,1,1.51.21c1.55.5,1.92,2.21,1.92,4.11,0,1.71-.3,3.58-.3,4.91V116c0,.39.16.89.16,1.25a1,1,0,0,1,0,.26,1.49,1.49,0,0,1-1.4.75,1.66,1.66,0,0,1-.59-.09A.85.85,0,0,1,1466.5,117.5Z" transform="translate(-766.06 -96.8)"/><path class="cls-1" d="M1468.67,103.84a1.49,1.49,0,0,1-.11.57,3.89,3.89,0,0,1-2.08.46l-3.47,0h-.34c-1.08,0-1.47.11-2.36.11a2.57,2.57,0,0,1-1.25-.27,1.82,1.82,0,0,1-.07-.5c0-1.35,1.21-1.19,2.83-1.28.48,0,1,0,1.55,0,.78,0,1.6,0,2.49.09l.69.05a3,3,0,0,0,0-.43.57.57,0,0,0,0-.23.9.9,0,0,1,0-.23c0-.62.75-.73,1.39-.73a.83.83,0,0,1,.43.11c.26.16.3.48.3.85v.8C1468.65,103.38,1468.67,103.61,1468.67,103.84Z" transform="translate(-766.06 -96.8)"/><path class="cls-1" d="M1466.62,99.38a5,5,0,0,0,0-.8,5.16,5.16,0,0,1-.09-1s0-.11,0-.16c.12-.48.71-.64,1.33-.64a1,1,0,0,1,.39.07c.41.16.43.39.43.78,0,.2,0,.48,0,.82v.21c0,.84-.09,1.37-.93,1.37a2.18,2.18,0,0,1-.41,0C1466.66,100,1466.62,99.82,1466.62,99.38Z" transform="translate(-766.06 -96.8)"/><path class="cls-1" d="M1471.46,108.82a.62.62,0,0,1-.5-.23.65.65,0,0,1-.16-.41c0-.73,1.3-1.51,2.19-1.58h.25c1.19,0,1.7.8,1.86,2l-.07.2a14.84,14.84,0,0,0-1.15,4.78,4,4,0,0,0,.8,2.56,2.49,2.49,0,0,0,1,.32c1.08,0,1.4-1.4,1.4-3a14.57,14.57,0,0,0-.14-2c-.14-1.12-.14-2.26-.23-3a6.82,6.82,0,0,1-.27-1,.47.47,0,0,1,0-.16,1.16,1.16,0,0,1,1.19-.77,1.19,1.19,0,0,1,1,.43c.14,1.58.46,3.34.57,5,0,.34,0,.68,0,1,0,2.84-1,5.17-3.84,5.17-2.36,0-3.68-2.15-3.68-4.64a7,7,0,0,1,.14-1.44c.22-1.19,1-2.26,1-3.34a2.28,2.28,0,0,0-.07-.57A4.24,4.24,0,0,1,1471.46,108.82Z" transform="translate(-766.06 -96.8)"/><path class="cls-1" d="M1481.17,109.8a1.35,1.35,0,0,1-.73-.23,1.86,1.86,0,0,1,0-.34c0-1.21,1.64-2.37,2.94-2.49l2.1,0c2.06,0,2.54,2.19,2.63,4.18,0,.36,0,.71,0,1,0,1-.07,2.06-.07,3.06,0,.41,0,.82,0,1.21s.19.62.19.87a1.56,1.56,0,0,1-1.44,1.14.89.89,0,0,1-.48-.13c-.28-.19-.32-.57-.32-1v-.75c0-1.55-.12-3.06-.12-5.1,0-2.46-.68-3-1.41-3a8,8,0,0,0-1.33.26C1482.47,108.61,1482,109.8,1481.17,109.8Z" transform="translate(-766.06 -96.8)"/><path class="cls-1" d="M1498.15,114.9c0-3.25,0-3.43,0-3.61,0-1.28-.41-3-1.94-3-2.31,0-3.63.8-3.73,3v.09a7.23,7.23,0,0,0,1.24,3.91,12.52,12.52,0,0,0,.66-3.48,2.31,2.31,0,0,1,1.49-.61.77.77,0,0,1,.64.29.72.72,0,0,1,0,.25v.12a18,18,0,0,1-.52,2.74,16.87,16.87,0,0,1-.69,3.13,1.72,1.72,0,0,1-1.35.62,1.19,1.19,0,0,1-.45,0,3.89,3.89,0,0,1-1.31-1.19,9.31,9.31,0,0,1-1.78-5.39v-.16c.16-3.56,2.63-4.82,5.9-4.82,1.48,0,3.58.73,3.93,2.35a6.42,6.42,0,0,1,.09,1.35c0,2.17,0,3.57,0,4.5s.1,1.53.1,2.13a1.25,1.25,0,0,1-1.24,1.21,1.81,1.81,0,0,1-1-.37C1498.15,116.93,1498.15,115.93,1498.15,114.9Z" transform="translate(-766.06 -96.8)"/><path class="cls-1" d="M1501.25,102.31a4,4,0,0,1-2.87-1,5.09,5.09,0,0,1-.6-1,2.82,2.82,0,0,1-.48-1.07c0-.48.94-1,1.51-1l.16,0c.78.16.71,1.4,1.39,1.88a2.87,2.87,0,0,0,1.49.43,1.63,1.63,0,0,0,.5-.07c.92-.25,1.46-1.76,2.63-1.76.25,0,.32.07.64.26a4,4,0,0,1,.23,1.39c0,.64-.09,1.3-.09,2,0,1.33,0,3.66,0,5.88,0,1.66,0,3.24.07,4.27,0,.2,0,.39,0,.57,0,.82-.09,1.58-.09,2.35a6.33,6.33,0,0,0,.14,1.42.61.61,0,0,1,.05.18,1.35,1.35,0,0,1-1.35,1.33,1,1,0,0,1-.76-.3,1.53,1.53,0,0,1-.25-1c0-.59.09-1.3.12-1.69,0-.68,0-1.53,0-2.47,0-2.53-.09-5.78-.09-8.38,0-1,0-1.87,0-2.61A6.82,6.82,0,0,1,1501.25,102.31Z" transform="translate(-766.06 -96.8)"/><path class="cls-1" d="M1508.91,110.92v-.41a7.22,7.22,0,0,0-.18-1.76c-.51-.14-1.06-.07-1.24-.57a.78.78,0,0,1,0-.21,1.33,1.33,0,0,1,.61-1,2,2,0,0,1,.85-.18,2.92,2.92,0,0,1,1.74.52,4.62,4.62,0,0,1,.32,2.18c0,2.14.52,7,2.94,7a2.26,2.26,0,0,0,.78-.16,4.33,4.33,0,0,0,.73-2.76c0-.69-.05-1.42-.11-2.18-.1-1.07-.07-2.14-.14-3,0-.3-.09-.62-.09-.89a.84.84,0,0,1,.27-.69,1.68,1.68,0,0,1,.6-.09,1.47,1.47,0,0,1,1.39.75.92.92,0,0,1,.05.26c0,.36-.16.86-.16,1.25v.14c0,1.33.29,3.2.29,4.91,0,1.9-.36,3.61-1.92,4.11a5.31,5.31,0,0,1-1.5.21c-1.83,0-2.72-.43-3.27-2.4l-.07-.25a.28.28,0,0,0,0,.11s0,0,0,.07,0,.25,0,.37,0,.68,0,1a1.14,1.14,0,0,1,0,.27,1.22,1.22,0,0,1-1.26.78.83.83,0,0,1-.68-.28Z" transform="translate(-766.06 -96.8)"/><path class="cls-1" d="M1514.94,102.58a8.88,8.88,0,0,1-.09-1.3s0-.11,0-.16c.12-.48.71-.64,1.33-.64a1,1,0,0,1,.38.07c.62.25.44,1.8.53,2.76v.21c0,.84-.09,1.37-.94,1.37a3.42,3.42,0,0,1-.41,0C1514.76,104.87,1515.1,103.52,1514.94,102.58Z" transform="translate(-766.06 -96.8)"/><path class="cls-1" d="M1518,102.31a4,4,0,0,1-2.87-1,5.09,5.09,0,0,1-.6-1,2.82,2.82,0,0,1-.48-1.07c0-.48.94-1,1.51-1l.16,0c.78.16.71,1.4,1.39,1.88a2.87,2.87,0,0,0,1.49.43,1.63,1.63,0,0,0,.5-.07c.91-.25,1.46-1.76,2.63-1.76.25,0,.32.07.64.26a4,4,0,0,1,.23,1.39c0,.64-.09,1.3-.09,2,0,1.33,0,3.66,0,5.88,0,1.66,0,3.24.07,4.27,0,.2,0,.39,0,.57,0,.82-.09,1.58-.09,2.35a6.33,6.33,0,0,0,.14,1.42.61.61,0,0,1,0,.18,1.35,1.35,0,0,1-1.35,1.33,1,1,0,0,1-.76-.3,1.53,1.53,0,0,1-.25-1c0-.59.09-1.3.12-1.69,0-.68,0-1.53,0-2.47,0-2.53-.09-5.78-.09-8.38,0-1,0-1.87,0-2.61A6.82,6.82,0,0,1,1518,102.31Z" transform="translate(-766.06 -96.8)"/><path class="cls-1" d="M1532.62,114.9c0-3.25,0-3.43,0-3.61,0-1.28-.41-3-2-3-2.3,0-3.63.8-3.72,3v.09a7.23,7.23,0,0,0,1.23,3.91,12.88,12.88,0,0,0,.67-3.48,2.3,2.3,0,0,1,1.48-.61.77.77,0,0,1,.64.29.68.68,0,0,1,0,.25v.12a16.82,16.82,0,0,1-.53,2.74,16.93,16.93,0,0,1-.68,3.13,1.74,1.74,0,0,1-1.35.62,1.24,1.24,0,0,1-.46,0,3.76,3.76,0,0,1-1.3-1.19,9.24,9.24,0,0,1-1.78-5.39v-.16c.16-3.56,2.62-4.82,5.89-4.82,1.49,0,3.59.73,3.93,2.35a6.42,6.42,0,0,1,.09,1.35c0,2.17,0,3.57,0,4.5s.09,1.53.09,2.13a1.23,1.23,0,0,1-1.23,1.21,1.77,1.77,0,0,1-1-.37C1532.62,116.93,1532.62,115.93,1532.62,114.9Z" transform="translate(-766.06 -96.8)"/><path class="cls-1" d="M1529.65,104.27c0-.73.69-1,.71-1.82-.52-.1-1.07-.44-1.07-.9a.84.84,0,0,1,.29-.57,1.63,1.63,0,0,1,1.17-.41c.91,0,1.92.55,1.92,1.44a1.65,1.65,0,0,1-.32.92h.23c1.76,0,2.12-1.76,4-1.76h.11a.85.85,0,0,1,.5.7c0,.6-.87,1.15-1.48,1.53l-.09,0a8.76,8.76,0,0,1-4.25,1.44,3,3,0,0,1-1.72-.46Z" transform="translate(-766.06 -96.8)"/><path class="cls-1" d="M1578.91,117.26c0-.35.09-.74.11-1.1V116c0-2.26-.48-4.73-2.35-5.23a13.93,13.93,0,0,1-2.7,1.6,5.12,5.12,0,0,0-.11,1c0,.73.11,1.5.11,2.21a2.94,2.94,0,0,1-.23,1.31,1.55,1.55,0,0,1-1.39.8,1.66,1.66,0,0,1-.57-.12,1.46,1.46,0,0,1-.14-.71c0-.45.12-1,.16-1.44.07-.91.09-1.85.09-2.76s0-1.58,0-2.38,0-1.32.07-2.08a3.66,3.66,0,0,1-.57,0c-.76,0-.87-.25-.87-1.19,0-.59.55-.66,1.21-.66h.11c.23,0,.48,0,.71,0a7.34,7.34,0,0,1,1-.16.6.6,0,0,1,.53.22,4.16,4.16,0,0,1,.09.94c0,.94-.21,1.71-.21,2.7v.27a6.66,6.66,0,0,0,2.77-1.8c.66-.69,1-1.92,1.82-2.31a1.35,1.35,0,0,1,.64-.14c.39,0,.78.14.85.44a.65.65,0,0,1,0,.2c0,.55-.52,1.07-.75,1.37a8.5,8.5,0,0,1-.82.89,5.85,5.85,0,0,1,2.17,2.81,21.57,21.57,0,0,1,.5,4.78,1.49,1.49,0,0,1-1.55,1.35,1.33,1.33,0,0,1-.53-.12A1,1,0,0,1,1578.91,117.26Z" transform="translate(-766.06 -96.8)"/><path class="cls-1" d="M1590,108.44a2.42,2.42,0,0,0,0-.42c0-.29,0-.61,0-.86a.62.62,0,0,1,0-.25,1.45,1.45,0,0,1,1.39-.76,1.62,1.62,0,0,1,.59.09.85.85,0,0,1,.28.69c0,.27-.07.59-.09.89s0,.73,0,1.12c0,.59,0,1.26.09,1.89v6.59a.86.86,0,0,1-.68.27,1.2,1.2,0,0,1-1.26-.75,1.23,1.23,0,0,1,0-.28c0-.27,0-.87,0-1s0-.37,0-.37,0-.05,0-.07a.18.18,0,0,0,0-.11,3.06,3.06,0,0,1-3.33,2.67,5.82,5.82,0,0,1-1.51-.2c-1.55-.51-1.92-2.22-1.92-4.12,0-.8.07-1.6.14-2.4l.07-1.14c0-.11,0-.2,0-.32a5,5,0,0,0-.21-1.44c-.5-.14-1-.07-1.23-.57a.84.84,0,0,1,0-.2,1.33,1.33,0,0,1,.62-1,2,2,0,0,1,.85-.18,2.83,2.83,0,0,1,1.73.53,4.11,4.11,0,0,1,.55,2.14c-.07.76-.39,3.43-.39,4.12a4.33,4.33,0,0,0,.73,2.76,2.26,2.26,0,0,0,.78.16c2.42,0,2.92-4.84,2.92-7Z" transform="translate(-766.06 -96.8)"/><path class="cls-1" d="M1590,102a10.53,10.53,0,0,1-.09-1.3s0-.11,0-.16c.11-.48.7-.64,1.32-.64a1,1,0,0,1,.39.07c.62.25.43,1.8.52,2.76v.21c0,.85-.09,1.37-.93,1.37a3.26,3.26,0,0,1-.41,0C1589.85,104.28,1590.19,102.93,1590,102Z" transform="translate(-766.06 -96.8)"/><path class="cls-1" d="M1597.25,107.75a3.17,3.17,0,0,0-.43,0c-.46.07-1.39.69-2.06.69-.34,0-.59-.16-.68-.62,0,0,0-.11,0-.16,0-1,1.78-1.51,2.94-1.62.23,0,.44,0,.66,0a4.87,4.87,0,0,1,3.43,1.07c1.1,1.23.94,3.34,1.17,5.21a6.19,6.19,0,0,1,0,.85c0,2.58-1.46,4.59-3.88,4.59a4,4,0,0,1-.76-.07c-.52-.07-2.1-.48-2.19-1.1v-.11c0-.64.78-1.1,1.58-1.1h.2c.73.07.87.53,1.42.53a2.07,2.07,0,0,0,.3,0c.77-.16,1-1.89,1-3.61a12.32,12.32,0,0,0-.3-2.88A4.44,4.44,0,0,0,1599,108C1598.44,108,1597.92,107.75,1597.25,107.75Z" transform="translate(-766.06 -96.8)"/><path class="cls-1" d="M1606.23,109.83a1.31,1.31,0,0,0,.85,1.39c.25.12.48,0,.77.14,0,.09.12,1.07.12,1.19a.36.36,0,0,1,0,.14,1.6,1.6,0,0,0-1,.59,1.93,1.93,0,0,0-.55,1.32c.09,1.31,1,1.35,2.35,1.35s2.45-.41,2.45-1.21c0-2.72,0-4.5.06-5.69,0-.77-.13-1.35-.13-2a.82.82,0,0,1,0-.23,1.29,1.29,0,0,1,2.15-.34v.55c0,1-.09,1.39-.09,1.73,0,1.14-.07,2.24-.07,3.36v2.4c0,.75,0,3.24-4.3,3.24h-.13c-3.39,0-4.41-1.76-4.41-3.17a3.33,3.33,0,0,1,.93-2.47,2.92,2.92,0,0,1-1.14-2.33,7.83,7.83,0,0,1,.16-1.33,2.66,2.66,0,0,1,.39-1.71,2.92,2.92,0,0,1,1.74-.52,1.83,1.83,0,0,1,.84.18,1.29,1.29,0,0,1,.62,1,.8.8,0,0,1-.05.21c-.18.5-.73.43-1.23.57A3.24,3.24,0,0,0,1606.23,109.83Z" transform="translate(-766.06 -96.8)"/><path class="cls-1" d="M1614.87,113.58c0-.67,1-1.42,1.71-1.42.57,0,.78.48,1.08.85a15.57,15.57,0,0,0,2.78,2.58c0-.07,0-.14,0-.21.13-1.25.29-2.83.29-4.23,0-.41,0-.79,0-1.16a2.82,2.82,0,0,0-1.26-2.17,3.85,3.85,0,0,1-1.26.23c-.48,0-.89-.14-.91-.53,0-.57.66-1.09,1.07-1.25A4.53,4.53,0,0,1,1620,106a3.64,3.64,0,0,1,1.12.14c.87.34,1.65,1.94,1.76,3,0,.3,0,.69,0,1.06v.41a42.17,42.17,0,0,1-.37,4.38,7.24,7.24,0,0,1-.34,2,2.31,2.31,0,0,1-1.94.85,2.09,2.09,0,0,1-.78-.14,8.87,8.87,0,0,1-2.26-1.81,12.32,12.32,0,0,0-2.22-1.85A.58.58,0,0,1,1614.87,113.58Z" transform="translate(-766.06 -96.8)"/><path class="cls-1" d="M1624.85,109.21a1.35,1.35,0,0,1-.73-.23,1.86,1.86,0,0,1,0-.34c0-1.21,1.64-2.37,2.94-2.49l2.11,0c2,0,2.53,2.19,2.62,4.18,0,.37,0,.71,0,1,0,1-.07,2.06-.07,3.06,0,.41,0,.82,0,1.21s.19.62.19.87a1.56,1.56,0,0,1-1.44,1.14.89.89,0,0,1-.48-.13c-.28-.19-.32-.57-.32-1v-.75c0-1.55-.12-3.06-.12-5.09,0-2.47-.68-3-1.41-3a8,8,0,0,0-1.33.26C1626.16,108,1625.65,109.21,1624.85,109.21Z" transform="translate(-766.06 -96.8)"/><path class="cls-1" d="M1641.42,108.44a2.5,2.5,0,0,0,0-.42c0-.29,0-.61,0-.86a.87.87,0,0,1,0-.25,1.48,1.48,0,0,1,1.4-.76,1.66,1.66,0,0,1,.59.09.85.85,0,0,1,.28.69c0,.27-.07.59-.1.89s0,.73,0,1.12c0,.59,0,1.26.09,1.89v6.59a.86.86,0,0,1-.69.27,1.19,1.19,0,0,1-1.25-.75.83.83,0,0,1,0-.28c0-.27,0-.87,0-1s0-.37,0-.37,0-.05,0-.07a.26.26,0,0,0,0-.11,3.06,3.06,0,0,1-3.34,2.67,5.82,5.82,0,0,1-1.51-.2c-1.55-.51-1.91-2.22-1.91-4.12,0-.8.06-1.6.13-2.4l.07-1.14c0-.11,0-.2,0-.32a5.44,5.44,0,0,0-.2-1.44c-.5-.14-1-.07-1.24-.57a.79.79,0,0,1,0-.2,1.33,1.33,0,0,1,.62-1,1.93,1.93,0,0,1,.84-.18,2.84,2.84,0,0,1,1.74.53,4.21,4.21,0,0,1,.55,2.14c-.07.76-.39,3.43-.39,4.12a4.33,4.33,0,0,0,.73,2.76,2.26,2.26,0,0,0,.78.16c2.42,0,2.92-4.84,2.92-7Z" transform="translate(-766.06 -96.8)"/><path class="cls-1" d="M1647.54,117.69a1,1,0,0,1-.82-.34v-.94c0-3.29-.19-8.39-.19-11.38,0-.43-.13-.91-.13-1.3,0-.07,0-.14,0-.21.09-.82.91-1.44,1.14-2.12a1.73,1.73,0,0,0,.07-.5,1.8,1.8,0,0,0-1.76-1.79,1.47,1.47,0,0,0-.61.12c-.62.25-.55,1.41-1.19,1.87a1.52,1.52,0,0,1-.89.25,1.48,1.48,0,0,1-1-.36,4.45,4.45,0,0,1,1-2.24,4.54,4.54,0,0,1,3.34-1.3,3.33,3.33,0,0,1,3.24,1.78,5.11,5.11,0,0,1,.23,1.32v.14c-.09.94-1.09,1.71-1.3,2.83a4,4,0,0,0-.07.92c0,.36,0,.73,0,1.07a4.52,4.52,0,0,1,0,.53c0,.45,0,1,0,1.53,0,2.6.32,6.08.32,8.41,0,.36,0,.7,0,1A1.51,1.51,0,0,1,1647.54,117.69Z" transform="translate(-766.06 -96.8)"/><path class="cls-1" d="M1659.17,117.26c0-.35.09-.74.11-1.1V116c0-2.26-.48-4.73-2.35-5.23a13.93,13.93,0,0,1-2.7,1.6,5.93,5.93,0,0,0-.11,1c0,.73.11,1.5.11,2.21a3.09,3.09,0,0,1-.22,1.31,1.58,1.58,0,0,1-1.4.8,1.66,1.66,0,0,1-.57-.12,1.58,1.58,0,0,1-.14-.71c0-.45.12-1,.16-1.44.07-.91.1-1.85.1-2.76s0-1.58,0-2.38,0-1.32.07-2.08a3.66,3.66,0,0,1-.57,0c-.75,0-.87-.25-.87-1.19,0-.59.55-.66,1.21-.66h.12c.23,0,.48,0,.71,0a7,7,0,0,1,1-.16.6.6,0,0,1,.53.22,4.16,4.16,0,0,1,.09.94c0,.94-.21,1.71-.21,2.7v.27a6.54,6.54,0,0,0,2.77-1.8c.66-.69,1-1.92,1.83-2.31a1.35,1.35,0,0,1,.64-.14c.38,0,.77.14.84.44a.65.65,0,0,1,0,.2c0,.55-.52,1.07-.75,1.37a8.5,8.5,0,0,1-.82.89,5.85,5.85,0,0,1,2.17,2.81,21.57,21.57,0,0,1,.5,4.78,1.49,1.49,0,0,1-1.55,1.35,1.37,1.37,0,0,1-.53-.12A1,1,0,0,1,1659.17,117.26Z" transform="translate(-766.06 -96.8)"/><path class="cls-1" d="M1655.45,103.68c0-.73.68-1,.7-1.82-.52-.1-1.07-.44-1.07-.9a.82.82,0,0,1,.3-.57,1.59,1.59,0,0,1,1.16-.41c.92,0,1.92.55,1.92,1.44a1.65,1.65,0,0,1-.32.92h.23c1.76,0,2.12-1.76,4-1.76h.11a.85.85,0,0,1,.5.7c0,.6-.86,1.15-1.48,1.54l-.09,0a8.76,8.76,0,0,1-4.25,1.44,2.9,2.9,0,0,1-1.71-.46Z" transform="translate(-766.06 -96.8)"/><path class="cls-1" d="M1666.89,110.61a2.1,2.1,0,0,1,1.35-.48,1.86,1.86,0,0,1,1.44.55s0,.06,0,.09c0,.2.07.43.07.61a.67.67,0,0,1-.43.73c-.39.16-1,0-1.37.26a3.52,3.52,0,0,0-1.44,1.62,18.88,18.88,0,0,1-.51,3,1.1,1.1,0,0,1-.93.8c-.41,0-.85-.35-1.1-1a2.85,2.85,0,0,1-.34-1.25,30.36,30.36,0,0,1-.23-3.89,24.94,24.94,0,0,1,.16-3.08c.84-1.69,3-2.47,5.39-2.47h.39c2.1,0,3.11,1.62,3.5,3.56.34,1.72.13,4.14.54,5.92.14.66.41.5.41.85v.11a1.45,1.45,0,0,1-1.37,1.19,1.74,1.74,0,0,1-.43-.09c-.82-.32-.75-1.74-.85-3.06-.13-2.22.21-5.72-1.44-6.49a3.28,3.28,0,0,0-1.3-.25c-1.12,0-2.33.41-2.62,1a3.08,3.08,0,0,0-.26,1.3c0,.53.07,1.1.1,1.85A3.44,3.44,0,0,1,1666.89,110.61Z" transform="translate(-766.06 -96.8)"/><path class="cls-1" d="M1671.1,104.3c-.62,0-1.58-.09-1.83-.68a3.15,3.15,0,0,1-.23-1.28,2.39,2.39,0,0,1,.66-2,2.27,2.27,0,0,1,1.85-.77,1.89,1.89,0,0,1,2,1.85A2.79,2.79,0,0,1,1671.1,104.3Zm-.37-2.42c0,.82.27.82.5.82a.48.48,0,0,0,.51-.48v-.34c0-.34-.26-.71-.48-.71S1670.73,101.35,1670.73,101.88Zm4.64,7.33a1.35,1.35,0,0,1-.73-.23,1.27,1.27,0,0,1-.05-.34c0-1.21,1.65-2.37,3-2.49l2.1,0c2.06,0,2.54,2.19,2.63,4.18,0,.37,0,.71,0,1,0,1-.07,2.06-.07,3.06,0,.41,0,.82,0,1.21s.18.62.18.87a1.55,1.55,0,0,1-1.44,1.14.91.91,0,0,1-.48-.13,1.15,1.15,0,0,1-.32-1v-.75c0-1.55-.11-3.06-.11-5.09,0-2.47-.69-3-1.42-3a7.9,7.9,0,0,0-1.32.26C1676.67,108,1676.17,109.21,1675.37,109.21Z" transform="translate(-766.06 -96.8)"/><path class="cls-1" d="M1684.32,107.59a.79.79,0,0,1,0-.2,1.33,1.33,0,0,1,.62-1,1.93,1.93,0,0,1,.84-.18,2.84,2.84,0,0,1,1.74.53,3.45,3.45,0,0,1,.36,1.91c0,.51,0,1,0,1.31v.43c0,.73,0,1.17,0,1.83a6,6,0,0,0,.82,3.52,4.16,4.16,0,0,0,1.55.29,2,2,0,0,0,1.15-.29,5.32,5.32,0,0,0,.91-2.77c0-.27,0-.52,0-.8,0-1.6-.29-3-.32-4.86,0-.41,0-.85,0-1.31a9.23,9.23,0,0,0-.12-1.57,8.68,8.68,0,0,1-.09-1.56V102a.82.82,0,0,1,0-.23A1.18,1.18,0,0,1,1693,101a1.16,1.16,0,0,1,1,.44,78.74,78.74,0,0,1,.39,9.82v.92c0,1.78-.14,3.74-1,5-.82.62-2.7.78-4,.78a4.68,4.68,0,0,1-1.53-.23c-1.28-.46-1.92-2.45-2.1-4.12,0-.27,0-.54,0-.84,0-1,.12-1.78.12-2.74a5.87,5.87,0,0,0-.23-1.81C1685.06,108,1684.51,108.09,1684.32,107.59Z" transform="translate(-766.06 -96.8)"/><path class="cls-1" d="M1701,113.21c-1.19-.8-3.06-1.19-3.8-2.26a1.66,1.66,0,0,1-.25-.94v-.61a6.77,6.77,0,0,1,0-1,2.82,2.82,0,0,1,.71-1.69c.52-.68,2-.61,2.83-.73a4,4,0,0,1,.5,0c1.15,0,3,.41,3.16,1a1.23,1.23,0,0,1,0,.27c0,.85-.89,1-1.65,1a5.6,5.6,0,0,0-2-.57,7.66,7.66,0,0,0-1.26.11,4.5,4.5,0,0,0-.41,1.49,1.89,1.89,0,0,0,0,.32c.09.52,1.17,1,1.83,1.37,1.46.68,3.4,1.62,3.61,3.49a1.89,1.89,0,0,1,0,.32,4.75,4.75,0,0,1-.75,2.11,4.89,4.89,0,0,1-3.34,1,6,6,0,0,1-2.72-.57c-.41-.23-1-.77-1-1.19s.78-1,1.31-1,.84.54,1.35.73a4.42,4.42,0,0,0,1.59.32c.76,0,1.4-.28,1.54-1A3.16,3.16,0,0,0,1701,113.21Z" transform="translate(-766.06 -96.8)"/><path class="cls-1" d="M1703.77,103.34c-.32.8-1,1-1.85,1l-.3,0-3.47,0h-.35c-1.07,0-1.46.11-2.35.11a2.63,2.63,0,0,1-1.26-.27,2.27,2.27,0,0,1-.06-.5c0-1.35,1.21-1.19,2.83-1.28.48,0,1,0,1.55,0s1,0,1.53,0a.22.22,0,0,1,0-.14,2.09,2.09,0,0,1,2.19-1.42c.89,0,1.71.44,1.71,1.42a2.91,2.91,0,0,1-.18,1.07A.08.08,0,0,1,1703.77,103.34Z" transform="translate(-766.06 -96.8)"/><path class="cls-1" d="M1710.07,107.86a6,6,0,0,0-1.41.16c0,.35.25.44.29.74,0,.7,0,1.53,0,2.42,0,.66,0,1.35,0,2v.66c0,.64,0,1.28,0,1.92,0,.28.11.55.11.8v.12a1.45,1.45,0,0,1-1.39,1,1.09,1.09,0,0,1-.87-.39c.05-1.41.09-2.85.09-4.29,0-1.12,0-2.24-.13-3.38-.46-.14-1-.12-1.12-.62v-.09c0-.66,1.55-2.26,2-2.45a9.19,9.19,0,0,1,2.58-.32c1.32,0,3.22.21,3.7.67a8.21,8.21,0,0,1,1.07,2.65,17.33,17.33,0,0,1,.28,3.45c0,1.21.25,2,.25,2.83,0,.11,0,.25,0,.37s.07.16.11.22a.9.9,0,0,1,0,.23c0,.69-.86,1.24-1.5,1.24a.9.9,0,0,1-.44-.12.93.93,0,0,1-.3-.84v-.8c0-.21,0-.44,0-.67-.07-2.67-.11-5.68-1.21-7.26A7.16,7.16,0,0,0,1710.07,107.86Z" transform="translate(-766.06 -96.8)"/><path class="cls-1" d="M1727.76,110.15c.77,0,1.53.25,1.53,1s-.34,1-1.24,1.07l-.48,0c0,1.76-.13,3.7-1,4.91-.82.62-2.94.78-4.25.78a4.72,4.72,0,0,1-1.53-.23c-1.28-.46-1.92-2.45-2.1-4.12,0-.27,0-.54,0-.84,0-1,.11-1.78.11-2.74a5.87,5.87,0,0,0-.23-1.81c-.5-.14-1-.07-1.23-.57a.84.84,0,0,1,0-.2,1.33,1.33,0,0,1,.62-1,2,2,0,0,1,.84-.18,2.84,2.84,0,0,1,1.74.53,3.36,3.36,0,0,1,.37,1.91c0,.51,0,1,0,1.31v.43c0,.73,0,1.17,0,1.83a6,6,0,0,0,.82,3.52,5.68,5.68,0,0,0,1.81.29,2,2,0,0,0,1.14-.29,5.32,5.32,0,0,0,.92-2.77c0-.18.06-.32.09-.82l-2,0c-.64,0-1.14-.16-1.23-.75v-.12a1.5,1.5,0,0,1,1.23-1.27c.05,0,.09,0,.16,0,.25,0,.55.07.94.09h.84c0-.11,0-.22,0-.36,0-.78-.18-1.85-.18-2.47a.82.82,0,0,1,0-.23,1.3,1.3,0,0,1,2.15-.34c0,1.37.07,1.8.07,2.19s0,.6,0,1.26Z" transform="translate(-766.06 -96.8)"/><path class="cls-1" d="M1730.27,109.21a1.35,1.35,0,0,1-.73-.23,1.86,1.86,0,0,1,0-.34c0-1.21,1.65-2.37,3-2.49l2.1,0c2.06,0,2.54,2.19,2.63,4.18,0,.37,0,.71,0,1,0,1-.07,2.06-.07,3.06,0,.41,0,.82.05,1.21s.18.62.18.87a1.55,1.55,0,0,1-1.44,1.14.91.91,0,0,1-.48-.13,1.15,1.15,0,0,1-.32-1v-.75c0-1.55-.11-3.06-.11-5.09,0-2.47-.69-3-1.42-3a7.9,7.9,0,0,0-1.32.26C1731.57,108,1731.07,109.21,1730.27,109.21Z" transform="translate(-766.06 -96.8)"/><path class="cls-1" d="M770.49,119.18c-1.18-.8-3.06-1.18-3.79-2.26a1.65,1.65,0,0,1-.25-.93v-.62a6.57,6.57,0,0,1,0-1,2.76,2.76,0,0,1,.7-1.69c.53-.69,2-.62,2.84-.74a4,4,0,0,1,.5,0c1.14,0,3,.41,3.15,1a.83.83,0,0,1,0,.27c0,.85-.89,1-1.65,1a5.94,5.94,0,0,0-2-.57,8.79,8.79,0,0,0-1.25.11,4.5,4.5,0,0,0-.41,1.49,1.83,1.83,0,0,0,0,.32c.09.53,1.16,1,1.83,1.37,1.46.69,3.4,1.62,3.61,3.5a1.77,1.77,0,0,1,0,.32,4.6,4.6,0,0,1-.76,2.1,4.86,4.86,0,0,1-3.33,1,6.15,6.15,0,0,1-2.72-.57c-.41-.23-1-.78-1-1.19s.78-1,1.3-1,.85.55,1.35.73a4.31,4.31,0,0,0,1.6.32c.76,0,1.4-.27,1.53-1A3.08,3.08,0,0,0,770.49,119.18Z" transform="translate(-766.06 -96.8)"/><path class="cls-1" d="M772,128c0-.3,0-1.19-.07-1.51a4.94,4.94,0,0,1,0-.57.72.72,0,0,1,.19-.57,1.71,1.71,0,0,1,.82-.14c.64.12.71.94.71,1.51a16.34,16.34,0,0,1,.07,1.67c0,.59-.53,1.64-2.22,1.64-1.94,0-2.35-.75-2.35-1.39V128a1.79,1.79,0,0,0-.09-.75s0,0-.14,0-.16,0-.37,0a.63.63,0,0,1-.57-.25,1.8,1.8,0,0,1-.2-.89,1.14,1.14,0,0,1,.2-.73,1.56,1.56,0,0,1,.57-.19c.57,0,1.1.09,1.49.09l.46.1c.32.38.18.54.25,1.32a16.34,16.34,0,0,1,.07,1.67c0,.18.11.36.64.36s.59-.27.59-.43Z" transform="translate(-766.06 -96.8)"/><path class="cls-1" d="M768.21,109.66c0-.73.68-1,.71-1.83-.53-.09-1.08-.44-1.08-.89a.82.82,0,0,1,.3-.57,1.59,1.59,0,0,1,1.17-.42c.91,0,1.92.55,1.92,1.44a1.7,1.7,0,0,1-.32.92h.22c1.76,0,2.13-1.76,4-1.76h.12a.89.89,0,0,1,.5.71c0,.59-.87,1.14-1.49,1.53l-.09,0a8.72,8.72,0,0,1-4.25,1.44,3,3,0,0,1-1.71-.45Z" transform="translate(-766.06 -96.8)"/><path class="cls-1" d="M776.27,119.3v-.18c0-.92.83-1.31,1.7-1.31a2.33,2.33,0,0,1,1.62.57,8.86,8.86,0,0,0,1,3l.09.2A5.53,5.53,0,0,0,782,117.9c0-.18,0-.38,0-.59a7.64,7.64,0,0,0-.48-2.35,2.78,2.78,0,0,0-2.47-1.31c-.09,0-.18,0-.29,0-1,.11-1.67,1-2.75,1h-.16a.81.81,0,0,1-.82-.73,1,1,0,0,1,.35-.66,6.15,6.15,0,0,1,2-1,7.33,7.33,0,0,1,1.9-.23,8.3,8.3,0,0,1,.87,0,4.63,4.63,0,0,1,3.31,1.8,11.47,11.47,0,0,1,.41,1.76,8.82,8.82,0,0,1,.25,2.17,8.44,8.44,0,0,1-1.1,4.27,4.73,4.73,0,0,1-1.91,1.76,3.23,3.23,0,0,1-.74.12c-1.16,0-1.5-1-2-2.06a21,21,0,0,1-.78-2C776.94,119.85,776.32,119.78,776.27,119.3Z" transform="translate(-766.06 -96.8)"/><path class="cls-1" d="M778,109.79a1.49,1.49,0,0,1-.11-.57c0-.23,0-.45,0-.66v-.8c0-.37,0-.69.3-.85a.94.94,0,0,1,.43-.11c.64,0,1.37.11,1.4.73a.61.61,0,0,1,0,.23.57.57,0,0,0,0,.23,2.89,2.89,0,0,0,0,.43l.69-.07h1.67c.36,0-.07,0,.8,0a3.89,3.89,0,0,1,2.08.45,1.49,1.49,0,0,1,.11.57c0,1-.52.74-1.85.85-.3,0-.71,0-1.12,0l-2.31,0A3.8,3.8,0,0,1,778,109.79Z" transform="translate(-766.06 -96.8)"/><path class="cls-1" d="M789.94,113.84a5.63,5.63,0,0,0-1.42.16c0,.34.25.43.3.73,0,.71,0,1.53,0,2.42,0,.66,0,1.35,0,2v.67c0,.64,0,1.28,0,1.92a7.74,7.74,0,0,1,.12.8v.11a1.45,1.45,0,0,1-1.4,1,1.08,1.08,0,0,1-.86-.38c0-1.42.09-2.86.09-4.3,0-1.12,0-2.24-.14-3.38-.46-.14-1-.11-1.12-.62v-.09c0-.66,1.55-2.26,2-2.44a8.88,8.88,0,0,1,2.58-.32c1.33,0,3.22.2,3.7.66a8.22,8.22,0,0,1,1.08,2.65,18.23,18.23,0,0,1,.27,3.45c0,1.21.25,2,.25,2.83,0,.12,0,.25,0,.37s.07.16.12.23a.9.9,0,0,1,0,.23c0,.68-.87,1.23-1.51,1.23a.83.83,0,0,1-.43-.12c-.26-.15-.3-.47-.3-.84V122c0-.21,0-.43,0-.66-.07-2.68-.12-5.69-1.21-7.27A7.5,7.5,0,0,0,789.94,113.84Z" transform="translate(-766.06 -96.8)"/><path class="cls-1" d="M804.81,122.89c0-.28.07-.6.09-.9.07-.86.05-1.94.14-3,.07-.76.11-1.49.11-2.17a4.35,4.35,0,0,0-.73-2.77,2.21,2.21,0,0,0-.77-.16c-.85,0-1.28.69-1.63,1.6a18.51,18.51,0,0,0-1.09,5.44c0,.59.2,1.3.2,1.78a1.19,1.19,0,0,1,0,.28,1.4,1.4,0,0,1-1.39.77,1.78,1.78,0,0,1-1-.29c0-2.81-.07-6.08-.12-9.35a2,2,0,0,0-.36,0c-.3,0-.09,0-.37,0-.43,0-.48-.27-.52-.71,0,0,0-.07,0-.11s0-.14,0-.21c0-.84.16-.86.87-.86h.11l.87,0c1.3,0,1.58,1.16,1.58,2.35a5.82,5.82,0,0,1,0,.6l.06-.26a6,6,0,0,1,1-2.42,4.28,4.28,0,0,1,2.1-.48,5.39,5.39,0,0,1,1.51.21c1.55.5,1.92,2.21,1.92,4.11,0,1.71-.3,3.59-.3,4.91v.14c0,.39.16.89.16,1.26a.66.66,0,0,1,0,.25,1.46,1.46,0,0,1-1.39.75,1.62,1.62,0,0,1-.59-.09A.82.82,0,0,1,804.81,122.89Z" transform="translate(-766.06 -96.8)"/><path class="cls-1" d="M819.68,127.07c0,.68-.86,1.23-1.5,1.23a1,1,0,0,1-.44-.11c-.25-.16-.29-.48-.29-.85v-.8c0-.2,0-.43,0-.66-.07-2.67.19-11.43-1.21-11.79a7.16,7.16,0,0,0-2.15-.28,6,6,0,0,0-1.41.16c0,.35.25.44.29.74,0,.7,0,1.53,0,2.42,0,.66,0,1.35,0,2v.66c0,.51,0,1.49,0,2a6.91,6.91,0,0,1,.77-.27H814c.8,0,1.12.18,1.12.82v.11c-.09.62-1.67,1-2.19,1.1a9.36,9.36,0,0,1-1.17.09,1.09,1.09,0,0,1-.87-.39c0-1.41.09-2.85.09-4.29,0-1.12,0-2.24-.13-3.38-.46-.14-1-.12-1.12-.62v-.09c0-.66,1.55-2.26,2-2.45a9.19,9.19,0,0,1,2.58-.32c1.32,0,3.22.21,3.7.67a8.12,8.12,0,0,1,1.07,2.65,17.33,17.33,0,0,1,.28,3.45c0,1.21.25,6.51.25,7.35,0,.12,0,.26,0,.37s.07.16.11.23A.9.9,0,0,1,819.68,127.07Z" transform="translate(-766.06 -96.8)"/><path class="cls-1" d="M831.75,116.12c.77,0,1.53.25,1.53,1s-.34,1-1.24,1.07l-.47,0c0,1.76-.14,3.7-1,4.91-.83.62-3,.78-4.25.78a4.74,4.74,0,0,1-1.54-.23c-1.27-.46-1.91-2.45-2.1-4.11,0-.28,0-.55,0-.85,0-1,.11-1.78.11-2.74a5.59,5.59,0,0,0-.23-1.81c-.5-.13-1-.06-1.23-.57a.73.73,0,0,1-.05-.2,1.29,1.29,0,0,1,.62-1,1.87,1.87,0,0,1,.85-.19,2.9,2.9,0,0,1,1.73.53,3.38,3.38,0,0,1,.37,1.92c0,.5,0,1,0,1.3v.43c0,.73,0,1.17,0,1.83a6,6,0,0,0,.82,3.52,5.67,5.67,0,0,0,1.81.3,1.88,1.88,0,0,0,1.14-.3,5.32,5.32,0,0,0,.92-2.76c0-.19.06-.32.09-.83-.73,0-1.46,0-2,0s-1.14-.16-1.23-.76v-.11a1.5,1.5,0,0,1,1.23-1.28l.16,0c.25,0,.55.06.94.09h.84c0-.12,0-.23,0-.37,0-.78-.18-1.85-.18-2.47a.82.82,0,0,1,0-.23,1.3,1.3,0,0,1,2.15-.34c.05,1.37.07,1.81.07,2.2s0,.59,0,1.25Z" transform="translate(-766.06 -96.8)"/><path class="cls-1" d="M835.81,126.66v-.12c0-.14,0-.27,0-.41,0-.5.23-.82.85-.87l.2.07H840a3,3,0,0,1,2,.62c-.06-2.68-.09-10.28-1.18-11.86a7.16,7.16,0,0,0-2.15-.28,6.12,6.12,0,0,0-1.42.16c0,.35.25.44.3.74,0,.7,0,1.53,0,2.42,0,.66,0,1.35,0,2v3.5c0,1-.25,1-.48,1l-1,0c-.23,0-.52,0-.89,0-.53,0-1.07,0-1.19-.43v-.12c0-.14,0-.27,0-.41,0-.5.11-.94.73-1l.21,0,.61.16c0-.93.05-1.89.05-2.85a32.06,32.06,0,0,0-.14-3.38c-.46-.14-1-.12-1.12-.62v-.09c0-.66,1.56-2.26,2-2.45a9.24,9.24,0,0,1,2.58-.32c1.33,0,3.23.21,3.71.67a8.34,8.34,0,0,1,1.07,2.65,17.38,17.38,0,0,1,.27,3.45c0,1.21.26,6.44.26,7.29,0,.11,0,.25,0,.36s.07.16.12.23a.9.9,0,0,1,0,.23c0,.68-.87,1.23-1.51,1.23-1.23,0-2.44-1.21-3.13-1.21-.09,0-2.47,0-2.56.07C836.48,127.09,835.93,127,835.81,126.66Z" transform="translate(-766.06 -96.8)"/><path class="cls-1" d="M843.65,109.22a1.49,1.49,0,0,1-.11.57,3.8,3.8,0,0,1-2.08.46l-3.48,0h-.34c-1.07,0-1.46.12-2.35.12a2.61,2.61,0,0,1-1.26-.28,2.31,2.31,0,0,1-.07-.5c0-1.35,1.21-1.19,2.84-1.28.48,0,1,0,1.55,0,.78,0,1.6,0,2.49.09l.69,0a2.89,2.89,0,0,0,0-.43.57.57,0,0,0,0-.23.61.61,0,0,1,0-.23c0-.62.76-.73,1.4-.73a.94.94,0,0,1,.43.11c.25.16.3.48.3.85v.8C843.63,108.77,843.65,109,843.65,109.22Z" transform="translate(-766.06 -96.8)"/><path class="cls-1" d="M847.58,123.66a1,1,0,0,1-.82-.34v-.94c0-3.29-.18-8.38-.18-11.38,0-.43-.14-.91-.14-1.3,0-.07,0-.14,0-.2.09-.83.92-1.44,1.14-2.13a1.73,1.73,0,0,0,.07-.5,1.79,1.79,0,0,0-1.76-1.78,1.46,1.46,0,0,0-.61.11c-.62.25-.55,1.42-1.19,1.87a1.46,1.46,0,0,1-.89.26,1.48,1.48,0,0,1-1.05-.37,4.49,4.49,0,0,1,1-2.24,4.58,4.58,0,0,1,3.34-1.3,3.33,3.33,0,0,1,3.24,1.78,5.11,5.11,0,0,1,.23,1.33v.13c-.09.94-1.09,1.72-1.3,2.84a3.86,3.86,0,0,0-.07.91c0,.37,0,.73,0,1.07a4.44,4.44,0,0,1,0,.53c0,.46,0,1,0,1.53,0,2.61.32,6.08.32,8.41,0,.36,0,.71,0,1A1.51,1.51,0,0,1,847.58,123.66Z" transform="translate(-766.06 -96.8)"/><path class="cls-1" d="M859.21,123.23c0-.34.09-.73.11-1.1V122c0-2.26-.48-4.73-2.35-5.23a13.93,13.93,0,0,1-2.7,1.6,5.93,5.93,0,0,0-.11,1c0,.73.11,1.51.11,2.22a3,3,0,0,1-.22,1.3,1.58,1.58,0,0,1-1.4.8,1.66,1.66,0,0,1-.57-.12,1.51,1.51,0,0,1-.14-.7c0-.46.12-1,.16-1.44.07-.92.1-1.85.1-2.77s0-1.58,0-2.37,0-1.33.07-2.08a5.46,5.46,0,0,1-.57,0c-.75,0-.87-.25-.87-1.19,0-.59.55-.66,1.21-.66h.12c.23,0,.48,0,.71,0a7.2,7.2,0,0,1,1-.16.59.59,0,0,1,.53.23,4,4,0,0,1,.09.93c0,.94-.21,1.72-.21,2.7v.27a6.54,6.54,0,0,0,2.77-1.8c.66-.69,1-1.92,1.83-2.31a1.35,1.35,0,0,1,.64-.14c.39,0,.77.14.84.44a.49.49,0,0,1,0,.2c0,.55-.53,1.08-.76,1.37a8.74,8.74,0,0,1-.82.9,5.76,5.76,0,0,1,2.17,2.81,21.48,21.48,0,0,1,.5,4.77,1.48,1.48,0,0,1-1.55,1.35,1.37,1.37,0,0,1-.53-.12A1,1,0,0,1,859.21,123.23Z" transform="translate(-766.06 -96.8)"/><path class="cls-1" d="M863.78,116.31v-.42a7.22,7.22,0,0,0-.18-1.76c-.51-.13-1.05-.06-1.24-.57a.71.71,0,0,1,0-.2,1.31,1.31,0,0,1,.61-1,1.87,1.87,0,0,1,.85-.19,2.91,2.91,0,0,1,1.74.53,4.55,4.55,0,0,1,.32,2.17c0,2.15.52,7,2.94,7a2,2,0,0,0,.78-.16,4.33,4.33,0,0,0,.73-2.76c0-.69,0-1.42-.11-2.17-.09-1.08-.07-2.15-.14-3,0-.3-.09-.62-.09-.89a.81.81,0,0,1,.27-.68,1.72,1.72,0,0,1,.6-.1,1.48,1.48,0,0,1,1.39.76.92.92,0,0,1,0,.25c0,.36-.16.87-.16,1.26v.13c0,1.33.29,3.2.29,4.92,0,1.89-.36,3.61-1.92,4.11a5.67,5.67,0,0,1-1.5.2c-1.83,0-2.72-.43-3.27-2.4l-.07-.25a.3.3,0,0,0,0,.12s0,0,0,.07,0,.25,0,.36,0,.69,0,1a1.23,1.23,0,0,1,0,.28,1.21,1.21,0,0,1-1.26.77.86.86,0,0,1-.68-.27Z" transform="translate(-766.06 -96.8)"/><path class="cls-1" d="M869.81,108a9,9,0,0,1-.09-1.31s0-.11,0-.16c.12-.48.71-.64,1.33-.64a1.28,1.28,0,0,1,.39.07c.61.25.43,1.81.52,2.77v.2c0,.85-.09,1.37-.94,1.37a3.42,3.42,0,0,1-.41,0C869.63,110.25,870,108.9,869.81,108Z" transform="translate(-766.06 -96.8)"/></svg>