<svg id="Layer_1" data-name="Layer 1" xmlns="http://www.w3.org/2000/svg" viewBox="0 0 1920 5614"><defs><style>.cls-1,.cls-2{fill:#0f2b53;}.cls-2{font-size:93px;font-family:Itim-Regular, Itim;}</style></defs><title>24</title><path class="cls-1" d="M415,498.5a2.49,2.49,0,0,1-.59-1.73V485.09h1.43v11.42a1.46,1.46,0,0,0,.34,1.07,1.31,1.31,0,0,0,1,.36h1.28v1.19H416.6A2.14,2.14,0,0,1,415,498.5Z"/><path class="cls-1" d="M425.48,498.86a8,8,0,0,1-2.33-1.57l-.13,1.84h-1.25v-14h1.43V496a6.49,6.49,0,0,0,4.76,2.18,3.22,3.22,0,0,0,3.69-3.69v-9.39h1.43v9.31a5.25,5.25,0,0,1-1.19,3.73,4.55,4.55,0,0,1-3.46,1.26A7.48,7.48,0,0,1,425.48,498.86Z"/><path class="cls-1" d="M423.33,481.4H429v-2.26h1.17v2.26h1.77v-2.26h1.17v3.38h-9.81Z"/><path class="cls-1" d="M431.73,473.89H433v3.58h-1.25Z"/><path class="cls-1" d="M438.8,499.12a14.37,14.37,0,0,1-2.36-.66v-6.92h4.73l.08,1.22h-3.38v4.79a11.09,11.09,0,0,0,3.64.62,6.06,6.06,0,0,0,2.91-.6,3.45,3.45,0,0,0,1.58-1.91,12.77,12.77,0,0,0,0-7.11,3.36,3.36,0,0,0-1.68-1.88,7.15,7.15,0,0,0-3.22-.59,14.17,14.17,0,0,0-4.45.65v-1.22a15.09,15.09,0,0,1,4.84-.68q3.43,0,4.93,1.77t1.49,5.54a8.45,8.45,0,0,1-1.49,5.46q-1.5,1.78-4.83,1.79A14.17,14.17,0,0,1,438.8,499.12Z"/><path class="cls-1" d="M451.84,498.5a2.48,2.48,0,0,1-.58-1.73V485.09h1.43v11.42a1.51,1.51,0,0,0,.33,1.07,1.35,1.35,0,0,0,1,.36h1.27v1.19h-1.82A2.14,2.14,0,0,1,451.84,498.5Z"/><path class="cls-1" d="M459.06,492.81a3,3,0,0,1,.54-1.78,3,3,0,0,1,1.61-1l-3.06-.68v-2.08a8.13,8.13,0,0,1,2.66-1.71,9.5,9.5,0,0,1,3.68-.68,6.49,6.49,0,0,1,4.43,1.29,4.87,4.87,0,0,1,1.45,3.83v9.18h-1.43v-9.25a3.62,3.62,0,0,0-1.06-2.93,5.3,5.3,0,0,0-3.39-.87,8.82,8.82,0,0,0-2.95.48,5.09,5.09,0,0,0-2.09,1.26v.73l3.12.68v1.24a2.9,2.9,0,0,0-1.56.81,2.29,2.29,0,0,0-.52,1.61v6.24h-1.43Z"/><path class="cls-1" d="M475.73,498a5.19,5.19,0,0,1-1.49-4v-8.92h1.43v9.1q0,4,4.47,4t4.45-4v-2.44h-4.08v-1.2h4.08v-5.46H486v5.46h1.69l-.13,1.2H486V494a5.16,5.16,0,0,1-1.5,4,6.26,6.26,0,0,1-4.38,1.36A6.39,6.39,0,0,1,475.73,498Z"/><path class="cls-1" d="M491.33,497.6a8.6,8.6,0,0,1-1.44-5.44,11.55,11.55,0,0,1,1-5.43,3.32,3.32,0,0,1,3.07-1.9,3.52,3.52,0,0,1,1.61.33,4.1,4.1,0,0,1,1.25,1,4,4,0,0,1,1.4-1,4.23,4.23,0,0,1,1.67-.34,2.86,2.86,0,0,1,2.16.8,3.37,3.37,0,0,1,.75,2.4v11.1h-1.43V488.19a2.47,2.47,0,0,0-.42-1.64,1.83,1.83,0,0,0-1.43-.47,2.62,2.62,0,0,0-1.28.33,2.35,2.35,0,0,0-1,1h-.91a3.57,3.57,0,0,0-1-1,2.32,2.32,0,0,0-1.24-.3,2.28,2.28,0,0,0-2.22,1.59,12,12,0,0,0-.66,4.49,7.59,7.59,0,0,0,1.09,4.61,3.84,3.84,0,0,0,3.22,1.4,5.84,5.84,0,0,0,1.77-.21v1.22a8,8,0,0,1-2.05.21A4.88,4.88,0,0,1,491.33,497.6Z"/><path class="cls-1" d="M508.55,499.22a8.47,8.47,0,0,1-2-.48v-1.27a12.21,12.21,0,0,0,4.22.7,7.18,7.18,0,0,0,3.15-.53,2,2,0,0,0,1-2,2.23,2.23,0,0,0-.41-1.39,2.81,2.81,0,0,0-1.1-.84c-.45-.19-1.09-.42-1.92-.68a7.71,7.71,0,0,0-.78-.26,24.61,24.61,0,0,1-2.41-.91,4.43,4.43,0,0,1-1.53-1.19,3,3,0,0,1-.64-2c0-2.39,1.75-3.59,5.23-3.59a13.49,13.49,0,0,1,2.09.17,11.38,11.38,0,0,1,1.89.46v1.27a10.66,10.66,0,0,0-3.77-.65,6.88,6.88,0,0,0-3.08.51,1.84,1.84,0,0,0-.95,1.8,1.93,1.93,0,0,0,.49,1.37,3.86,3.86,0,0,0,1.31.88,25.83,25.83,0,0,0,2.46.87,17.8,17.8,0,0,1,2.41.93,4.34,4.34,0,0,1,1.52,1.22,3.09,3.09,0,0,1,.6,2,3.15,3.15,0,0,1-1.42,2.9,7.62,7.62,0,0,1-4,.87A17.56,17.56,0,0,1,508.55,499.22Z"/><path class="cls-1" d="M520.13,492.81a2.9,2.9,0,0,1,.55-1.78,3,3,0,0,1,1.61-1l-3.07-.68v-2.08a8.13,8.13,0,0,1,2.66-1.71,9.54,9.54,0,0,1,3.68-.68,6.52,6.52,0,0,1,4.44,1.29,4.87,4.87,0,0,1,1.44,3.83v9.18H530v-9.25a3.62,3.62,0,0,0-1-2.93,5.35,5.35,0,0,0-3.4-.87,8.86,8.86,0,0,0-2.95.48,5.09,5.09,0,0,0-2.09,1.26v.73l3.12.68v1.24a3,3,0,0,0-1.56.81,2.29,2.29,0,0,0-.52,1.61v6.24h-1.43Z"/><path class="cls-1" d="M537.15,499.22a8.47,8.47,0,0,1-2-.48v-1.27a12.21,12.21,0,0,0,4.22.7,7.18,7.18,0,0,0,3.15-.53,2,2,0,0,0,1-2,2.23,2.23,0,0,0-.41-1.39,2.81,2.81,0,0,0-1.1-.84c-.45-.19-1.09-.42-1.92-.68a7.71,7.71,0,0,0-.78-.26,24.61,24.61,0,0,1-2.41-.91,4.43,4.43,0,0,1-1.53-1.19,3,3,0,0,1-.64-2c0-2.39,1.75-3.59,5.23-3.59a13.49,13.49,0,0,1,2.09.17,11.38,11.38,0,0,1,1.89.46v1.27a10.66,10.66,0,0,0-3.77-.65,6.88,6.88,0,0,0-3.08.51,1.84,1.84,0,0,0-.95,1.8,1.93,1.93,0,0,0,.49,1.37,3.86,3.86,0,0,0,1.31.88,25.83,25.83,0,0,0,2.46.87,17.8,17.8,0,0,1,2.41.93,4.34,4.34,0,0,1,1.52,1.22,3.09,3.09,0,0,1,.6,2,3.15,3.15,0,0,1-1.42,2.9,7.62,7.62,0,0,1-4,.87A17.67,17.67,0,0,1,537.15,499.22Z"/><path class="cls-1" d="M548.92,498.5a2.48,2.48,0,0,1-.58-1.73V485.09h1.43v11.42a1.46,1.46,0,0,0,.34,1.07,1.31,1.31,0,0,0,1,.36h1.28v1.19h-1.82A2.15,2.15,0,0,1,548.92,498.5Z"/><path class="cls-1" d="M556.88,498.14a4.62,4.62,0,0,1-1.39-3.64v-2.39a2.89,2.89,0,0,1,.39-1.41A14,14,0,0,1,557,489c.37-.5.63-.9.81-1.19A1.66,1.66,0,0,0,558,487a.85.85,0,0,0-.17-.62,1,1,0,0,0-.69-.16h-1.95l.13-1.17h2.5a1.54,1.54,0,0,1,1.2.43,1.7,1.7,0,0,1,.41,1.21,2.67,2.67,0,0,1-.33,1.27,11.32,11.32,0,0,1-.95,1.49,14.45,14.45,0,0,0-1,1.5,2.66,2.66,0,0,0-.31,1.25v2.5a3.14,3.14,0,0,0,1,2.6,4.56,4.56,0,0,0,2.91.83,4.63,4.63,0,0,0,2.94-.84,3.16,3.16,0,0,0,1.07-2.62v-9.62h1.43v9.41a4.6,4.6,0,0,1-1.42,3.64,5.87,5.87,0,0,1-4,1.25A5.75,5.75,0,0,1,556.88,498.14Z"/><path class="cls-1" d="M560.92,480h-2v-1.1h3.2v2.5h5.74l-.07,1.12h-6.82Z"/><path class="cls-1" d="M576.16,489.85a6.6,6.6,0,0,0-.29-2.17,2.12,2.12,0,0,0-1.08-1.2,5.22,5.22,0,0,0-2.32-.4,11.11,11.11,0,0,0-1.82.17,8.43,8.43,0,0,0-1.77.48v-1.22a9.6,9.6,0,0,1,1.81-.5,11.72,11.72,0,0,1,2-.18,4.18,4.18,0,0,1,4.86,4.89v9.41h-1.43Z"/><path class="cls-1" d="M581.71,498.5a2.48,2.48,0,0,1-.58-1.73V490a4.52,4.52,0,0,1,1-3,13.2,13.2,0,0,1,1.13-1.14,8.08,8.08,0,0,0,1-1.06,1.59,1.59,0,0,0,.32-1,1.4,1.4,0,0,0-.49-1.25,2.85,2.85,0,0,0-1.59-.34,5.93,5.93,0,0,0-2.94.81v-1.17a6,6,0,0,1,1.58-.64,6.73,6.73,0,0,1,1.7-.22,3.48,3.48,0,0,1,2.39.7,2.6,2.6,0,0,1,.78,2,2.3,2.3,0,0,1-.39,1.36,7.79,7.79,0,0,1-1.19,1.29,8.25,8.25,0,0,0-1.46,1.61,3.59,3.59,0,0,0-.49,2v6.53a1.51,1.51,0,0,0,.33,1.07,1.35,1.35,0,0,0,1,.36h1.27v1.19h-1.82A2.14,2.14,0,0,1,581.71,498.5Z"/><path class="cls-1" d="M592.05,499.16l-2.34-6.24h-1.56l.07-1.22h2.42l2.42,6.47a4.54,4.54,0,0,0,.6,0,4.32,4.32,0,0,0,2.3-.65,4.63,4.63,0,0,0,1.7-2.07,8.59,8.59,0,0,0,.65-3.55,9,9,0,0,0-.53-3.39,3.59,3.59,0,0,0-1.74-1.86,7.52,7.52,0,0,0-3.29-.6,13.85,13.85,0,0,0-4.4.65v-1.22a15.51,15.51,0,0,1,4.79-.68q3.4,0,5,1.8a7.75,7.75,0,0,1,1.59,5.3,9.51,9.51,0,0,1-.8,4.08,5.75,5.75,0,0,1-2.17,2.54,5.83,5.83,0,0,1-3.09.84A4.62,4.62,0,0,1,592.05,499.16Z"/><path class="cls-1" d="M603.07,485.09h1.43v4.73h5.23a3.64,3.64,0,0,0,2.6-.75,3.15,3.15,0,0,0,.75-2.31v-1.67h1.43v1.67q0,3-2.34,3.66a2.62,2.62,0,0,1,1.73,1.28,5.53,5.53,0,0,1,.43,2.36v5.07H612.9v-5a4.8,4.8,0,0,0-.3-1.9,1.73,1.73,0,0,0-1-.95,5.83,5.83,0,0,0-2-.27h-5.1v8.08h-1.43Z"/><path class="cls-1" d="M619,498.39a3.7,3.7,0,0,1-1.24-3.05,3.87,3.87,0,0,1,1.3-3.09,6.1,6.1,0,0,1,4-1.1H628v-1.38a5,5,0,0,0-.39-2.17,2.39,2.39,0,0,0-1.31-1.16,7.4,7.4,0,0,0-2.59-.36,14,14,0,0,0-4.42.65v-1.22a15,15,0,0,1,4.73-.68,5.92,5.92,0,0,1,4.14,1.2,5,5,0,0,1,1.27,3.79v9.31H628v-6.76h-4.83a5.13,5.13,0,0,0-3,.72,2.6,2.6,0,0,0-1,2.25,2.56,2.56,0,0,0,.87,2.15,4.38,4.38,0,0,0,2.69.68,6.61,6.61,0,0,0,1.77-.21v1.22a9.69,9.69,0,0,1-2.16.21A5.09,5.09,0,0,1,619,498.39Z"/><path class="cls-1" d="M624.18,479.42h1.28v2h7.25l-.08,1.12h-8.45Z"/><path class="cls-1" d="M633.65,492.81a3,3,0,0,1,.54-1.78,3,3,0,0,1,1.61-1l-3.06-.68v-2.08a8.13,8.13,0,0,1,2.66-1.71,9.5,9.5,0,0,1,3.68-.68,6.49,6.49,0,0,1,4.43,1.29A4.87,4.87,0,0,1,645,490v9.18h-1.43v-9.25a3.62,3.62,0,0,0-1.06-2.93,5.3,5.3,0,0,0-3.39-.87,8.82,8.82,0,0,0-3,.48,5.09,5.09,0,0,0-2.09,1.26v.73l3.12.68v1.24a2.9,2.9,0,0,0-1.56.81,2.29,2.29,0,0,0-.52,1.61v6.24h-1.43Z"/><path class="cls-1" d="M649.22,492.81a2.9,2.9,0,0,1,.55-1.78,3,3,0,0,1,1.61-1l-3.07-.68v-2.08a8.13,8.13,0,0,1,2.66-1.71,9.54,9.54,0,0,1,3.68-.68,6.5,6.5,0,0,1,4.44,1.29,4.87,4.87,0,0,1,1.44,3.83v9.18H659.1v-9.25a3.62,3.62,0,0,0-1.05-2.93,5.35,5.35,0,0,0-3.4-.87,8.86,8.86,0,0,0-2.95.48,5.09,5.09,0,0,0-2.09,1.26v.73l3.12.68v1.24a3,3,0,0,0-1.56.81,2.29,2.29,0,0,0-.52,1.61v6.24h-1.43Z"/><path class="cls-1" d="M670.38,489.85a6.64,6.64,0,0,0-.28-2.17,2.12,2.12,0,0,0-1.08-1.2,5.3,5.3,0,0,0-2.33-.4,11.21,11.21,0,0,0-1.82.17,8.43,8.43,0,0,0-1.77.48v-1.22a9.81,9.81,0,0,1,1.81-.5,11.89,11.89,0,0,1,2-.18,4.17,4.17,0,0,1,4.86,4.89v9.41h-1.43Z"/><path class="cls-1" d="M677.52,499.22a8.38,8.38,0,0,1-2-.48v-1.27a12.12,12.12,0,0,0,4.21.7,7.26,7.26,0,0,0,3.16-.53,2,2,0,0,0,1-2,2.17,2.17,0,0,0-.42-1.39,2.78,2.78,0,0,0-1.09-.84c-.45-.19-1.09-.42-1.93-.68a7.71,7.71,0,0,0-.78-.26,25.3,25.3,0,0,1-2.4-.91,4.47,4.47,0,0,1-1.54-1.19,3,3,0,0,1-.63-2q0-3.59,5.22-3.59a13.62,13.62,0,0,1,2.1.17,11,11,0,0,1,1.88.46v1.27a10.62,10.62,0,0,0-3.77-.65,6.88,6.88,0,0,0-3.08.51,1.86,1.86,0,0,0-.95,1.8,1.94,1.94,0,0,0,.5,1.37,3.67,3.67,0,0,0,1.31.88,23.93,23.93,0,0,0,2.46.87,17.6,17.6,0,0,1,2.4.93,4.26,4.26,0,0,1,1.52,1.22,3.09,3.09,0,0,1,.6,2,3.13,3.13,0,0,1-1.42,2.9,7.55,7.55,0,0,1-4,.87A17.82,17.82,0,0,1,677.52,499.22Z"/><path class="cls-1" d="M689.3,498.5a2.49,2.49,0,0,1-.59-1.73V485.09h1.43v11.42a1.51,1.51,0,0,0,.34,1.07,1.33,1.33,0,0,0,1,.36h1.14v1.19H691A2.14,2.14,0,0,1,689.3,498.5Zm5.59,0a2.49,2.49,0,0,1-.59-1.73V485.09h1.43v10.84a3.08,3.08,0,0,0,.28,1.55,1.16,1.16,0,0,0,1.08.46h1.14v1.19h-1.69A2.14,2.14,0,0,1,694.89,498.5Z"/><path class="cls-1" d="M702.3,498.39a3.7,3.7,0,0,1-1.24-3.05,3.87,3.87,0,0,1,1.3-3.09,6.1,6.1,0,0,1,4-1.1h4.94v-1.38a5,5,0,0,0-.39-2.17,2.39,2.39,0,0,0-1.31-1.16,7.4,7.4,0,0,0-2.59-.36,14,14,0,0,0-4.42.65v-1.22a15,15,0,0,1,4.73-.68,5.92,5.92,0,0,1,4.14,1.2,5,5,0,0,1,1.27,3.79v9.31h-1.43v-6.76h-4.83a5.13,5.13,0,0,0-3.05.72,2.6,2.6,0,0,0-1,2.25,2.56,2.56,0,0,0,.87,2.15,4.38,4.38,0,0,0,2.69.68,6.61,6.61,0,0,0,1.77-.21v1.22a9.69,9.69,0,0,1-2.16.21A5.09,5.09,0,0,1,702.3,498.39Z"/><path class="cls-1" d="M716.07,487.61h1.27v1.28h4.24l-.05,1.17h-5.46Zm0,7.28h1.27v1.3h4.24l-.05,1.15h-5.46Z"/><path class="cls-1" d="M726,498.5a2.48,2.48,0,0,1-.58-1.73V487a5.63,5.63,0,0,1,.69-2.86,5.21,5.21,0,0,1,1.86-1.9h-4.71v-1.19h6.5v1.25a4.71,4.71,0,0,0-2.22,1.89,6.36,6.36,0,0,0-.69,3.18v9.1a1.46,1.46,0,0,0,.34,1.07,1.31,1.31,0,0,0,1,.36h1.28v1.19h-1.82A2.16,2.16,0,0,1,726,498.5Z"/><path class="cls-1" d="M733.24,497.6a8.6,8.6,0,0,1-1.44-5.44,7.89,7.89,0,0,1,1.69-5.4,6.45,6.45,0,0,1,5.14-1.93,6.19,6.19,0,0,1,4.61,1.55,5.38,5.38,0,0,1,1.5,3.91v8.84h-1.43v-8.92a4,4,0,0,0-1.13-3,4.88,4.88,0,0,0-3.57-1.13q-5.42,0-5.41,6.08a7.64,7.64,0,0,0,1.08,4.59,3.8,3.8,0,0,0,3.24,1.42,5.72,5.72,0,0,0,1.76-.21v1.22a7.9,7.9,0,0,1-2,.21A4.85,4.85,0,0,1,733.24,497.6Z"/><path class="cls-1" d="M739.36,480h-2.05v-1.1h3.2v2.5h5.74l-.08,1.12h-6.81Z"/><path class="cls-1" d="M749.33,498.39a3.7,3.7,0,0,1-1.23-3.05,3.83,3.83,0,0,1,1.3-3.09,6.06,6.06,0,0,1,4-1.1h4.94v-1.38a5,5,0,0,0-.39-2.17,2.38,2.38,0,0,0-1.32-1.16,7.34,7.34,0,0,0-2.58-.36,14,14,0,0,0-4.42.65v-1.22a14.94,14.94,0,0,1,4.73-.68,5.91,5.91,0,0,1,4.13,1.2,5,5,0,0,1,1.28,3.79v9.31h-1.43v-6.76h-4.84a5.1,5.1,0,0,0-3,.72,2.6,2.6,0,0,0-1,2.25,2.56,2.56,0,0,0,.87,2.15,4.36,4.36,0,0,0,2.69.68,6.71,6.71,0,0,0,1.77-.21v1.22a9.75,9.75,0,0,1-2.16.21A5.12,5.12,0,0,1,749.33,498.39Z"/><path class="cls-1" d="M767.05,499.16l-3.95-9.62h1.4l3.57,8.63a5.32,5.32,0,0,0,.65,0c3.1,0,4.65-2.2,4.65-6.58a10.88,10.88,0,0,0-.36-3.15,2.83,2.83,0,0,0-1.23-1.65,4.69,4.69,0,0,0-2.39-.51h-.83v-1.22h.94c1.92,0,3.28.52,4.08,1.55s1.19,2.68,1.19,4.95c0,2.65-.52,4.62-1.57,5.89a5.15,5.15,0,0,1-4.17,1.91A6.16,6.16,0,0,1,767.05,499.16Z"/><path class="cls-1" d="M781.83,498.86a8,8,0,0,1-2.32-1.57l-.13,1.84h-1.25v-14h1.43V496a6.47,6.47,0,0,0,4.76,2.18,3.22,3.22,0,0,0,3.69-3.69v-9.39h1.43v9.31a5.21,5.21,0,0,1-1.2,3.73,4.55,4.55,0,0,1-3.46,1.26A7.55,7.55,0,0,1,781.83,498.86Z"/><path class="cls-1" d="M779.69,481.4h5.61v-2.26h1.17v2.26h1.77v-2.26h1.17v3.38h-9.8Z"/><path class="cls-1" d="M795.16,499.12a14.8,14.8,0,0,1-2.37-.66v-6.92h4.73l.08,1.22h-3.38v4.79a11.18,11.18,0,0,0,3.64.62,6,6,0,0,0,2.91-.6,3.46,3.46,0,0,0,1.59-1.91,10.22,10.22,0,0,0,.49-3.52,10.39,10.39,0,0,0-.5-3.59,3.36,3.36,0,0,0-1.68-1.88,7.18,7.18,0,0,0-3.22-.59,14.13,14.13,0,0,0-4.45.65v-1.22a15.09,15.09,0,0,1,4.84-.68c2.28,0,3.93.59,4.92,1.77s1.5,3,1.5,5.54-.5,4.26-1.5,5.46-2.6,1.79-4.82,1.79A14.17,14.17,0,0,1,795.16,499.12Z"/><path class="cls-1" d="M809.11,498a5.16,5.16,0,0,1-1.5-4v-8.92H809v9.1q0,4,4.47,4t4.45-4V480.93h1.43V494a5.16,5.16,0,0,1-1.5,4,6.26,6.26,0,0,1-4.38,1.36A6.35,6.35,0,0,1,809.11,498Z"/><path class="cls-1" d="M831.3,503.88a2.46,2.46,0,0,1-1-.82,2,2,0,0,1-.89.82,3.28,3.28,0,0,1-1.48.3h-2.16l.11-1.28h1.84a2.75,2.75,0,0,0,1.25-.24,2.42,2.42,0,0,0,.86-.88h.86a2.24,2.24,0,0,0,2.08,1.17,1.86,1.86,0,0,0,1.44-.48,2.36,2.36,0,0,0,.43-1.6v-11a3.62,3.62,0,0,0-1.05-2.93,5.35,5.35,0,0,0-3.4-.87,9,9,0,0,0-3,.48,5.35,5.35,0,0,0-2.15,1.26v.73l3.2.68v1.24a2.33,2.33,0,0,0-1.34.8,2.8,2.8,0,0,0-.38,1.62v3.69a2.73,2.73,0,0,1-.58,1.9,2.19,2.19,0,0,1-1.73.65h-1.46v-1.19h1.12a1.18,1.18,0,0,0,.92-.34,1.59,1.59,0,0,0,.3-1.07v-3.72a3.6,3.6,0,0,1,.41-1.8,2.3,2.3,0,0,1,1.39-1l-3.15-.68v-2.08a8.23,8.23,0,0,1,2.69-1.7,9.72,9.72,0,0,1,3.73-.69,6.5,6.5,0,0,1,4.44,1.29A4.87,4.87,0,0,1,836,490V501a3.22,3.22,0,0,1-.83,2.4,3.27,3.27,0,0,1-2.34.8A3.78,3.78,0,0,1,831.3,503.88Z"/><path class="cls-1" d="M826.28,481.4H836v1.12h-9.8Z"/><path class="cls-1" d="M841.4,498a5.16,5.16,0,0,1-1.5-4v-8.92h1.43v9.1q0,4,4.48,4t4.44-4v-9.1h1.43V494a5.19,5.19,0,0,1-1.49,4,6.3,6.3,0,0,1-4.38,1.36A6.38,6.38,0,0,1,841.4,498Z"/><path class="cls-1" d="M846.48,479.42h1.28v2H855l-.08,1.12h-8.45Z"/><path class="cls-1" d="M856.48,497.6a8.6,8.6,0,0,1-1.44-5.44,11.43,11.43,0,0,1,1-5.43,3.3,3.3,0,0,1,3.06-1.9,3.6,3.6,0,0,1,1.62.33,4.07,4.07,0,0,1,1.24,1,3.9,3.9,0,0,1,1.41-1,4.15,4.15,0,0,1,1.66-.34,2.83,2.83,0,0,1,2.16.8A3.37,3.37,0,0,1,868,488v11.1h-1.43V488.19a2.47,2.47,0,0,0-.41-1.64,1.86,1.86,0,0,0-1.43-.47,2.69,2.69,0,0,0-1.29.33,2.33,2.33,0,0,0-1,1h-.91a3.59,3.59,0,0,0-1-1,2.44,2.44,0,0,0-3.46,1.29,12,12,0,0,0-.66,4.49,7.59,7.59,0,0,0,1.09,4.61,3.85,3.85,0,0,0,3.23,1.4,5.72,5.72,0,0,0,1.76-.21v1.22a7.9,7.9,0,0,1-2,.21A4.85,4.85,0,0,1,856.48,497.6Z"/><path class="cls-1" d="M858.23,481.4H868v1.12h-9.8Z"/><path class="cls-1" d="M872.78,497.6a8.6,8.6,0,0,1-1.44-5.44,11.43,11.43,0,0,1,1-5.43,3.3,3.3,0,0,1,3.07-1.9,3.55,3.55,0,0,1,1.61.33,4.1,4.1,0,0,1,1.25,1,3.78,3.78,0,0,1,1.4-1,4.18,4.18,0,0,1,1.66-.34,2.83,2.83,0,0,1,2.16.8,3.37,3.37,0,0,1,.76,2.4v11.1h-1.43V488.19a2.47,2.47,0,0,0-.42-1.64,1.85,1.85,0,0,0-1.43-.47,2.69,2.69,0,0,0-1.29.33,2.38,2.38,0,0,0-1,1h-.91a3.59,3.59,0,0,0-1-1,2.44,2.44,0,0,0-3.46,1.29,12,12,0,0,0-.66,4.49,7.66,7.66,0,0,0,1.09,4.61,3.86,3.86,0,0,0,3.23,1.4,5.84,5.84,0,0,0,1.77-.21v1.22a8,8,0,0,1-2.06.21A4.85,4.85,0,0,1,872.78,497.6Z"/><path class="cls-1" d="M894.14,489.85a6.6,6.6,0,0,0-.29-2.17,2.12,2.12,0,0,0-1.08-1.2,5.22,5.22,0,0,0-2.32-.4,11.11,11.11,0,0,0-1.82.17,8.43,8.43,0,0,0-1.77.48v-1.22a9.6,9.6,0,0,1,1.81-.5,11.72,11.72,0,0,1,2-.18,4.18,4.18,0,0,1,4.86,4.89v9.41h-1.43Z"/><path class="cls-1" d="M903.15,498.86a8.18,8.18,0,0,1-2.33-1.57l-.13,1.84h-1.25v-14h1.43V496a6.49,6.49,0,0,0,4.76,2.18,3.21,3.21,0,0,0,3.69-3.69v-9.39h1.43v9.31a5.25,5.25,0,0,1-1.19,3.73,4.55,4.55,0,0,1-3.46,1.26A7.51,7.51,0,0,1,903.15,498.86Z"/><path class="cls-1" d="M915.76,498.14a4.62,4.62,0,0,1-1.39-3.64v-2.39a2.89,2.89,0,0,1,.39-1.41,14,14,0,0,1,1.09-1.66c.36-.5.63-.9.81-1.19a1.66,1.66,0,0,0,.26-.81.85.85,0,0,0-.17-.62,1.06,1.06,0,0,0-.69-.16h-1.95l.13-1.17h2.49a1.57,1.57,0,0,1,1.21.43,1.7,1.7,0,0,1,.41,1.21A2.67,2.67,0,0,1,918,488a12.48,12.48,0,0,1-.95,1.49,14.45,14.45,0,0,0-1,1.5,2.66,2.66,0,0,0-.31,1.25v2.5a3.12,3.12,0,0,0,1,2.6,4.56,4.56,0,0,0,2.91.83,4.63,4.63,0,0,0,2.94-.84,3.15,3.15,0,0,0,1.06-2.62v-9.62h1.43v9.41a4.59,4.59,0,0,1-1.41,3.64,5.87,5.87,0,0,1-4,1.25A5.75,5.75,0,0,1,915.76,498.14Z"/><path class="cls-1" d="M920,479.42h1.28v2h7.25l-.08,1.12H920Z"/><path class="cls-1" d="M922.12,475.89h-1.59v-1h2.68v2h4l-.06,1.07h-5Z"/><path class="cls-1" d="M930.21,498.13a5.34,5.34,0,0,1-1.15-3.73v-9.31h1.43v9.39a3.89,3.89,0,0,0,.86,2.79,3.65,3.65,0,0,0,2.75.9,6.58,6.58,0,0,0,4.84-2.18v-10.9h1.43v14h-1.25l-.13-1.84a8,8,0,0,1-2.37,1.56,7.71,7.71,0,0,1-3,.54A4.44,4.44,0,0,1,930.21,498.13Z"/><path class="cls-1" d="M414.36,516.29h1.25l.13,1.85a8.25,8.25,0,0,1,2.34-1.56,7.24,7.24,0,0,1,3-.55,4.5,4.5,0,0,1,3.44,1.28,5.25,5.25,0,0,1,1.19,3.71v9.31h-1.43V521a3.77,3.77,0,0,0-.9-2.79,3.87,3.87,0,0,0-2.79-.88,6.49,6.49,0,0,0-4.76,2.18v10.87h-1.43Z"/><path class="cls-1" d="M415.92,512.6h8.45v-2.26h1.28v3.38h-9.81Z"/><path class="cls-1" d="M424.32,505.09h1.25v3.58h-1.25Z"/><path class="cls-1" d="M429.55,516.29H431V521h5.22a3.62,3.62,0,0,0,2.6-.75,3.15,3.15,0,0,0,.76-2.31v-1.67H441V518q0,3-2.34,3.66a2.65,2.65,0,0,1,1.73,1.28,5.54,5.54,0,0,1,.42,2.36v5.07h-1.43v-5a4.8,4.8,0,0,0-.3-1.9,1.7,1.7,0,0,0-1-1,5.75,5.75,0,0,0-2-.27H431v8.08h-1.43Z"/><path class="cls-1" d="M445.89,529.33a5.34,5.34,0,0,1-1.16-3.73v-9.31h1.43v9.39a3.92,3.92,0,0,0,.86,2.79,3.65,3.65,0,0,0,2.75.9,6.56,6.56,0,0,0,4.84-2.18v-10.9H456v14h-1.25l-.13-1.84a8.07,8.07,0,0,1-2.36,1.56,7.78,7.78,0,0,1-3,.54A4.41,4.41,0,0,1,445.89,529.33Z"/><path class="cls-1" d="M446.29,512.6h6.29a1.27,1.27,0,0,1-.28-.86,1.85,1.85,0,0,1,.55-1.41,2,2,0,0,1,1.45-.54,2,2,0,0,1,1.47.56,2,2,0,0,1-.06,2.8,2,2,0,0,1-1.49.57h-8Zm8.8-.1a1.06,1.06,0,0,0,.3-.76,1.09,1.09,0,0,0-.3-.8,1,1,0,0,0-.79-.32,1.08,1.08,0,0,0-1.09,1.12,1,1,0,0,0,.31.76,1.1,1.1,0,0,0,.78.31A1.07,1.07,0,0,0,455.09,512.5Z"/><path class="cls-1" d="M454.69,505.09h1.25v3.58h-1.25Z"/><path class="cls-1" d="M463.35,530.36l-4-9.62h1.41l3.56,8.63a5.43,5.43,0,0,0,.65,0c3.1,0,4.65-2.2,4.65-6.58a10.88,10.88,0,0,0-.36-3.15,2.82,2.82,0,0,0-1.22-1.65,4.69,4.69,0,0,0-2.39-.51h-.84v-1.22h.94c1.92,0,3.28.52,4.08,1.55s1.2,2.68,1.2,4.95c0,2.65-.53,4.62-1.58,5.89a5.1,5.1,0,0,1-4.17,1.91A6,6,0,0,1,463.35,530.36Z"/><path class="cls-1" d="M474.67,529.7a2.49,2.49,0,0,1-.59-1.73v-6.76a4.55,4.55,0,0,1,.32-1.77,4.31,4.31,0,0,1,.74-1.25,13.2,13.2,0,0,1,1.13-1.14,7.29,7.29,0,0,0,1-1.06,1.54,1.54,0,0,0,.33-1,1.41,1.41,0,0,0-.49-1.25,2.85,2.85,0,0,0-1.59-.34,5.88,5.88,0,0,0-2.94.81v-1.17a6,6,0,0,1,1.57-.64,6.8,6.8,0,0,1,1.71-.22,3.48,3.48,0,0,1,2.39.7,2.6,2.6,0,0,1,.78,2,2.3,2.3,0,0,1-.39,1.36,7.49,7.49,0,0,1-1.2,1.29A8.49,8.49,0,0,0,476,519.2a3.59,3.59,0,0,0-.5,2v6.53a1.55,1.55,0,0,0,.34,1.08,1.39,1.39,0,0,0,1,.35h1.27v1.19h-1.82A2.14,2.14,0,0,1,474.67,529.7Z"/><path class="cls-1" d="M482.78,529.33a5.34,5.34,0,0,1-1.16-3.73v-9.31h1.43v9.39a3.92,3.92,0,0,0,.86,2.79,3.66,3.66,0,0,0,2.76.9,6.54,6.54,0,0,0,4.83-2.18v-10.9h1.43v14h-1.24l-.13-1.84a8.12,8.12,0,0,1-2.37,1.56,7.74,7.74,0,0,1-3,.54A4.41,4.41,0,0,1,482.78,529.33Z"/><path class="cls-1" d="M496.81,516.29h1.25l.13,1.85a8,8,0,0,1,2.34-1.56,7.24,7.24,0,0,1,3-.55,4.48,4.48,0,0,1,3.43,1.28,5.21,5.21,0,0,1,1.2,3.71v9.31h-1.43V521a3.77,3.77,0,0,0-.9-2.79,3.89,3.89,0,0,0-2.79-.88,6.47,6.47,0,0,0-4.76,2.18v10.87h-1.43Z"/><path class="cls-1" d="M498.37,512.6h8.45v-2.26h1.27v3.38h-9.8Z"/><path class="cls-1" d="M506.77,505.09H508v3.58h-1.24Z"/><path class="cls-1" d="M512.91,528.8a8.6,8.6,0,0,1-1.44-5.44,7.89,7.89,0,0,1,1.69-5.4,6.48,6.48,0,0,1,5.15-1.93,6.16,6.16,0,0,1,4.6,1.55,5.36,5.36,0,0,1,1.51,3.91v8.84H523v-8.92a4.09,4.09,0,0,0-1.13-3,4.93,4.93,0,0,0-3.58-1.13q-5.4,0-5.4,6.08A7.72,7.72,0,0,0,514,528a3.8,3.8,0,0,0,3.24,1.42,5.84,5.84,0,0,0,1.77-.21v1.22a8,8,0,0,1-2.05.21A4.88,4.88,0,0,1,512.91,528.8Z"/><path class="cls-1" d="M514.67,512.6h9.72v1.12h-9.8Z"/><path class="cls-1" d="M529.45,529.33a5.34,5.34,0,0,1-1.16-3.73v-9.31h1.43v9.39a3.92,3.92,0,0,0,.86,2.79,3.66,3.66,0,0,0,2.76.9,6.54,6.54,0,0,0,4.83-2.18v-10.9h1.43v14h-1.24l-.13-1.84a8.12,8.12,0,0,1-2.37,1.56,7.74,7.74,0,0,1-3,.54A4.41,4.41,0,0,1,529.45,529.33Z"/><path class="cls-1" d="M544.61,529.34a4.62,4.62,0,0,1-1.39-3.64v-2.39a2.89,2.89,0,0,1,.39-1.41,14,14,0,0,1,1.09-1.66c.36-.5.63-.9.81-1.19a1.66,1.66,0,0,0,.26-.81.85.85,0,0,0-.17-.62,1.06,1.06,0,0,0-.69-.16H543l.13-1.17h2.49a1.57,1.57,0,0,1,1.21.43,1.7,1.7,0,0,1,.41,1.21,2.67,2.67,0,0,1-.33,1.27,12.48,12.48,0,0,1-1,1.49,14.45,14.45,0,0,0-1,1.5,2.66,2.66,0,0,0-.31,1.25v2.5a3.12,3.12,0,0,0,1,2.6,4.56,4.56,0,0,0,2.91.83,4.63,4.63,0,0,0,2.94-.84,3.15,3.15,0,0,0,1.06-2.62v-9.62H554v9.41a4.59,4.59,0,0,1-1.41,3.64,5.87,5.87,0,0,1-4,1.25A5.75,5.75,0,0,1,544.61,529.34Z"/><path class="cls-1" d="M559.75,530.32a14.37,14.37,0,0,1-2.36-.66v-6.92h4.73l.08,1.22h-3.38v4.79a11.14,11.14,0,0,0,3.64.62,6.06,6.06,0,0,0,2.91-.6,3.46,3.46,0,0,0,1.59-1.91,10.47,10.47,0,0,0,.49-3.52,10.13,10.13,0,0,0-.51-3.59,3.34,3.34,0,0,0-1.67-1.88,7.19,7.19,0,0,0-3.23-.59,14.11,14.11,0,0,0-4.44.65v-1.22a15,15,0,0,1,4.83-.68q3.44,0,4.93,1.77t1.49,5.54a8.45,8.45,0,0,1-1.49,5.46q-1.5,1.79-4.82,1.79A14.19,14.19,0,0,1,559.75,530.32Z"/><path class="cls-1" d="M575.64,530.36l-3.95-9.62h1.4l3.56,8.63a5.55,5.55,0,0,0,.65,0c3.11,0,4.66-2.2,4.66-6.58a10.5,10.5,0,0,0-.37-3.15,2.82,2.82,0,0,0-1.22-1.65,4.69,4.69,0,0,0-2.39-.51h-.83v-1.22h.93c1.93,0,3.29.52,4.09,1.55a8.19,8.19,0,0,1,1.19,4.95c0,2.65-.52,4.62-1.57,5.89a5.12,5.12,0,0,1-4.17,1.91A6.16,6.16,0,0,1,575.64,530.36Z"/><path class="cls-1" d="M587.64,528.8a8.6,8.6,0,0,1-1.44-5.44,11.43,11.43,0,0,1,1-5.43,3.31,3.31,0,0,1,3.06-1.9,3.6,3.6,0,0,1,1.62.33,4.07,4.07,0,0,1,1.24,1,3.9,3.9,0,0,1,1.41-1,4.15,4.15,0,0,1,1.66-.34,2.83,2.83,0,0,1,2.16.8,3.37,3.37,0,0,1,.75,2.4v11.1h-1.43V519.39a2.53,2.53,0,0,0-.41-1.64,1.86,1.86,0,0,0-1.43-.47,2.69,2.69,0,0,0-1.29.33,2.33,2.33,0,0,0-1,1h-.91a3.59,3.59,0,0,0-1-1,2.44,2.44,0,0,0-3.46,1.29,12,12,0,0,0-.66,4.49,7.59,7.59,0,0,0,1.09,4.61,3.85,3.85,0,0,0,3.23,1.4,5.72,5.72,0,0,0,1.76-.21v1.22a7.9,7.9,0,0,1-2,.21A4.85,4.85,0,0,1,587.64,528.8Z"/><path class="cls-1" d="M604.17,529.33A5.34,5.34,0,0,1,603,525.6v-9.31h1.43v9.39a3.87,3.87,0,0,0,.86,2.79,3.65,3.65,0,0,0,2.75.9,6.58,6.58,0,0,0,4.84-2.18v-10.9h1.43v14h-1.25l-.13-1.84a8,8,0,0,1-2.37,1.56,7.71,7.71,0,0,1-3,.54A4.44,4.44,0,0,1,604.17,529.33Z"/><path class="cls-1" d="M621.58,530.36l-2.34-6.24h-1.56l.08-1.22h2.42l2.42,6.47a4.61,4.61,0,0,0,2.89-.62,4.65,4.65,0,0,0,1.71-2.07,8.59,8.59,0,0,0,.65-3.55,8.77,8.77,0,0,0-.54-3.39,3.52,3.52,0,0,0-1.74-1.86,7.46,7.46,0,0,0-3.29-.6,13.79,13.79,0,0,0-4.39.65v-1.22a15.49,15.49,0,0,1,4.78-.68q3.41,0,5,1.8a7.8,7.8,0,0,1,1.58,5.3,9.52,9.52,0,0,1-.79,4.08,5.75,5.75,0,0,1-2.17,2.54,5.84,5.84,0,0,1-3.1.84A4.7,4.7,0,0,1,621.58,530.36Z"/><path class="cls-1" d="M633.76,529.33a5.34,5.34,0,0,1-1.15-3.73v-9.31H634v9.39a3.91,3.91,0,0,0,.85,2.79,3.68,3.68,0,0,0,2.76.9,6.58,6.58,0,0,0,4.84-2.18v-10.9h1.43v14h-1.25l-.13-1.84a8,8,0,0,1-2.37,1.56,7.74,7.74,0,0,1-3,.54A4.41,4.41,0,0,1,633.76,529.33Z"/><path class="cls-1" d="M648.84,529.7a2.48,2.48,0,0,1-.58-1.73v-9.73a5.63,5.63,0,0,1,.69-2.86,5.21,5.21,0,0,1,1.86-1.9H646.1v-1.19h6.5v1.25a4.71,4.71,0,0,0-2.22,1.89,6.36,6.36,0,0,0-.69,3.18v9.1a1.51,1.51,0,0,0,.34,1.08,1.34,1.34,0,0,0,1,.35h1.27v1.19h-1.82A2.14,2.14,0,0,1,648.84,529.7Z"/><path class="cls-1" d="M656.1,528.8a8.54,8.54,0,0,1-1.45-5.44,7.94,7.94,0,0,1,1.69-5.4,6.49,6.49,0,0,1,5.15-1.93,6.16,6.16,0,0,1,4.6,1.55,5.36,5.36,0,0,1,1.51,3.91v8.84h-1.43v-8.92a4.09,4.09,0,0,0-1.13-3,4.9,4.9,0,0,0-3.57-1.13q-5.41,0-5.41,6.08a7.64,7.64,0,0,0,1.08,4.59,3.79,3.79,0,0,0,3.23,1.42,5.75,5.75,0,0,0,1.77-.21v1.22a8,8,0,0,1-2,.21A4.85,4.85,0,0,1,656.1,528.8Z"/><path class="cls-1" d="M662.22,511.2h-2.05v-1.1h3.19v2.5h5.75l-.08,1.12h-6.81Z"/><path class="cls-1" d="M671.48,518.71a2.48,2.48,0,0,1,.61-1.74,2.1,2.1,0,0,1,1.65-.68h2l.06,1.22h-1.49a1.39,1.39,0,0,0-1.06.36,1.56,1.56,0,0,0-.34,1.13v9.43l4.5-7.85h.86l4.49,7.85V516.29h1.41v14h-1.59L677.82,522l-4.76,8.29h-1.58Z"/><path class="cls-1" d="M688.73,529.59a3.67,3.67,0,0,1-1.24-3.05,3.8,3.8,0,0,1,1.3-3.08,6,6,0,0,1,4-1.11h4.94V521a5,5,0,0,0-.39-2.17,2.39,2.39,0,0,0-1.31-1.16,7.4,7.4,0,0,0-2.59-.36,14,14,0,0,0-4.42.65v-1.22a15,15,0,0,1,4.73-.68,5.92,5.92,0,0,1,4.14,1.2,5,5,0,0,1,1.27,3.79v9.31h-1.43v-6.76h-4.84a5.12,5.12,0,0,0-3,.72,2.6,2.6,0,0,0-1,2.25,2.56,2.56,0,0,0,.87,2.15,4.38,4.38,0,0,0,2.69.68,6.61,6.61,0,0,0,1.77-.21v1.22a9.75,9.75,0,0,1-2.16.21A5.07,5.07,0,0,1,688.73,529.59Z"/><path class="cls-1" d="M703.6,529.7A2.49,2.49,0,0,1,703,528V516.29h1.43v11.42a1.55,1.55,0,0,0,.34,1.08,1.37,1.37,0,0,0,1,.35h1.14v1.19h-1.69A2.14,2.14,0,0,1,703.6,529.7Zm5.59,0a2.49,2.49,0,0,1-.59-1.73V516.29H710v10.84a3.2,3.2,0,0,0,.28,1.55,1.16,1.16,0,0,0,1.08.46h1.14v1.19h-1.69A2.14,2.14,0,0,1,709.19,529.7Z"/><path class="cls-1" d="M716.6,529.59a3.7,3.7,0,0,1-1.24-3.05,3.83,3.83,0,0,1,1.3-3.08,6,6,0,0,1,4-1.11h4.94V521a5,5,0,0,0-.39-2.17,2.39,2.39,0,0,0-1.31-1.16,7.4,7.4,0,0,0-2.59-.36,14,14,0,0,0-4.42.65v-1.22a15,15,0,0,1,4.73-.68,5.92,5.92,0,0,1,4.14,1.2A5,5,0,0,1,727,521v9.31h-1.43v-6.76h-4.83a5.13,5.13,0,0,0-3,.72,2.6,2.6,0,0,0-1,2.25,2.56,2.56,0,0,0,.87,2.15,4.38,4.38,0,0,0,2.69.68,6.61,6.61,0,0,0,1.77-.21v1.22a9.69,9.69,0,0,1-2.16.21A5.09,5.09,0,0,1,716.6,529.59Z"/><path class="cls-1" d="M721.63,511.2h-2v-1.1h3.19v2.5h5.75l-.08,1.12h-6.81Z"/><path class="cls-1" d="M730.37,529.92v-1.23a8.7,8.7,0,0,0,3.3.68,6.32,6.32,0,0,0,3.14-.64,3.35,3.35,0,0,0,1.56-1.93,11,11,0,0,0,.45-3.49,7.12,7.12,0,0,0-1.21-4.59,5,5,0,0,0-4.05-1.44,8,8,0,0,0-3.19.68v-1.25a7.13,7.13,0,0,1,1.54-.51,9.53,9.53,0,0,1,1.91-.17,6.08,6.08,0,0,1,4.85,1.82,8.18,8.18,0,0,1,1.58,5.46,8.82,8.82,0,0,1-1.42,5.46c-1,1.22-2.55,1.82-4.82,1.82A8.83,8.83,0,0,1,730.37,529.92Z"/><path class="cls-1" d="M751.23,529.7a2.49,2.49,0,0,1-.59-1.73V516.29h1.43v11.42a1.51,1.51,0,0,0,.34,1.08,1.34,1.34,0,0,0,1,.35h1.28v1.19h-1.82A2.14,2.14,0,0,1,751.23,529.7Z"/><path class="cls-1" d="M758.44,524a2.9,2.9,0,0,1,.55-1.78,3,3,0,0,1,1.61-1.05l-3.07-.68v-2.08a8.08,8.08,0,0,1,2.67-1.71,9.5,9.5,0,0,1,3.68-.68,6.49,6.49,0,0,1,4.43,1.29,4.88,4.88,0,0,1,1.44,3.83v9.18h-1.43v-9.25a3.62,3.62,0,0,0-1.05-2.93,5.3,5.3,0,0,0-3.39-.87,8.88,8.88,0,0,0-3,.48,5.16,5.16,0,0,0-2.09,1.26v.73l3.12.68v1.24a3,3,0,0,0-1.56.81,2.29,2.29,0,0,0-.52,1.61v6.24h-1.43Z"/><path class="cls-1" d="M775.12,529.24a5.14,5.14,0,0,1-1.49-4v-8.92h1.42v9.1c0,2.65,1.5,4,4.48,4s4.44-1.33,4.44-4V523h-4.08v-1.2H784v-5.46h1.43v5.46h1.69L787,523H785.4v2.26a5.19,5.19,0,0,1-1.49,4,6.3,6.3,0,0,1-4.38,1.36A6.39,6.39,0,0,1,775.12,529.24Z"/><path class="cls-1" d="M790.72,528.8a8.6,8.6,0,0,1-1.44-5.44,11.43,11.43,0,0,1,1-5.43,3.31,3.31,0,0,1,3.06-1.9,3.57,3.57,0,0,1,1.62.33,4.1,4.1,0,0,1,1.25,1,3.78,3.78,0,0,1,1.4-1,4.18,4.18,0,0,1,1.66-.34,2.83,2.83,0,0,1,2.16.8,3.37,3.37,0,0,1,.75,2.4v11.1h-1.43V519.39a2.47,2.47,0,0,0-.41-1.64,1.85,1.85,0,0,0-1.43-.47,2.69,2.69,0,0,0-1.29.33,2.33,2.33,0,0,0-1,1h-.91a3.59,3.59,0,0,0-1-1,2.44,2.44,0,0,0-3.46,1.29,12,12,0,0,0-.66,4.49,7.59,7.59,0,0,0,1.09,4.61,3.86,3.86,0,0,0,3.23,1.4,5.72,5.72,0,0,0,1.76-.21v1.22a7.9,7.9,0,0,1-2,.21A4.85,4.85,0,0,1,790.72,528.8Z"/><path class="cls-1" d="M807.93,530.42a8.38,8.38,0,0,1-2-.48v-1.27a12.16,12.16,0,0,0,4.21.7,7.23,7.23,0,0,0,3.16-.53,2,2,0,0,0,1-2,2.17,2.17,0,0,0-.42-1.39,2.67,2.67,0,0,0-1.09-.83,18.36,18.36,0,0,0-1.93-.69c-.17-.07-.43-.16-.77-.26a24.61,24.61,0,0,1-2.41-.91,4.34,4.34,0,0,1-1.53-1.19,2.93,2.93,0,0,1-.64-2q0-3.58,5.22-3.59a13.52,13.52,0,0,1,2.1.17,11,11,0,0,1,1.88.46v1.27a10.62,10.62,0,0,0-3.77-.65,6.88,6.88,0,0,0-3.08.51,1.87,1.87,0,0,0-.95,1.8,1.94,1.94,0,0,0,.5,1.37,3.77,3.77,0,0,0,1.31.88,25.83,25.83,0,0,0,2.46.87,17.6,17.6,0,0,1,2.4.93,4.26,4.26,0,0,1,1.52,1.22,3.09,3.09,0,0,1,.6,2,3.13,3.13,0,0,1-1.42,2.9,7.55,7.55,0,0,1-4,.87A16.38,16.38,0,0,1,807.93,530.42Z"/><path class="cls-1" d="M819.52,524a2.76,2.76,0,0,1,2.15-2.83l-3.07-.68v-2.08a8.29,8.29,0,0,1,2.67-1.71A9.5,9.5,0,0,1,825,516a6.49,6.49,0,0,1,4.43,1.29,4.89,4.89,0,0,1,1.45,3.83v9.18H829.4v-9.25a3.62,3.62,0,0,0-1.06-2.93,5.3,5.3,0,0,0-3.39-.87,8.82,8.82,0,0,0-3,.48,5.09,5.09,0,0,0-2.09,1.26v.73l3.12.68v1.24a3,3,0,0,0-1.57.81,2.34,2.34,0,0,0-.51,1.61v6.24h-1.43Z"/><path class="cls-1" d="M836.53,530.42a8.38,8.38,0,0,1-2-.48v-1.27a12.16,12.16,0,0,0,4.21.7,7.26,7.26,0,0,0,3.16-.53,2,2,0,0,0,1-2,2.17,2.17,0,0,0-.42-1.39,2.67,2.67,0,0,0-1.09-.83,18.9,18.9,0,0,0-1.92-.69c-.18-.07-.44-.16-.79-.26a25.3,25.3,0,0,1-2.4-.91,4.34,4.34,0,0,1-1.53-1.19,2.93,2.93,0,0,1-.64-2q0-3.58,5.23-3.59a13.49,13.49,0,0,1,2.09.17,11,11,0,0,1,1.88.46v1.27a10.62,10.62,0,0,0-3.77-.65,6.88,6.88,0,0,0-3.08.51,1.87,1.87,0,0,0-.95,1.8,1.94,1.94,0,0,0,.5,1.37,3.77,3.77,0,0,0,1.31.88,24.85,24.85,0,0,0,2.46.87,17.6,17.6,0,0,1,2.4.93,4.26,4.26,0,0,1,1.52,1.22,3.09,3.09,0,0,1,.6,2,3.13,3.13,0,0,1-1.42,2.9,7.55,7.55,0,0,1-4,.87A16.38,16.38,0,0,1,836.53,530.42Z"/><path class="cls-1" d="M848.12,524a2.76,2.76,0,0,1,2.15-2.83l-3.06-.68v-2.08a8.13,8.13,0,0,1,2.66-1.71,9.5,9.5,0,0,1,3.68-.68,6.49,6.49,0,0,1,4.43,1.29,4.88,4.88,0,0,1,1.44,3.83v9.18H858v-9.25a3.62,3.62,0,0,0-1.06-2.93,5.3,5.3,0,0,0-3.39-.87,8.82,8.82,0,0,0-2.95.48,5.2,5.2,0,0,0-2.1,1.26v.73l3.13.68v1.24a3,3,0,0,0-1.57.81,2.34,2.34,0,0,0-.52,1.61v6.24h-1.42Z"/><path class="cls-1" d="M850.16,513a2.51,2.51,0,0,1-.8-2,2.76,2.76,0,0,1,.84-2.13,3.31,3.31,0,0,1,2.36-.78h6.09l-.11,1h-5.9a2.37,2.37,0,0,0-1.63.46,1.86,1.86,0,0,0-.5,1.44c0,1.13.64,1.69,1.92,1.69a2.32,2.32,0,0,0,1.28-.27,1,1,0,0,0,.39-.87v-.73h1.06v.73a1,1,0,0,0,.31.83,1.84,1.84,0,0,0,1,.23h1.69v1h-1.76a3.11,3.11,0,0,1-1.15-.2,1.13,1.13,0,0,1-.67-.61,1.53,1.53,0,0,1-.88.64,4.31,4.31,0,0,1-1.36.22A3.28,3.28,0,0,1,850.16,513Z"/><path class="cls-1" d="M864,529.59a3.7,3.7,0,0,1-1.23-3.05,3.8,3.8,0,0,1,1.3-3.08,6,6,0,0,1,4-1.11H873V521a5,5,0,0,0-.39-2.17,2.38,2.38,0,0,0-1.32-1.16,7.3,7.3,0,0,0-2.58-.36,14,14,0,0,0-4.42.65v-1.22A15,15,0,0,1,869,516a9.22,9.22,0,0,1,2.34.26h4.24l-.08,1.22h-2.11a5.22,5.22,0,0,1,1,3.51v9.31H873v-6.76h-4.84a5.1,5.1,0,0,0-3,.72,2.6,2.6,0,0,0-1,2.25,2.56,2.56,0,0,0,.87,2.15,4.38,4.38,0,0,0,2.69.68,6.66,6.66,0,0,0,1.77-.21v1.22a9.75,9.75,0,0,1-2.16.21A5.12,5.12,0,0,1,864,529.59Z"/><path class="cls-1" d="M884.93,521.05a6.64,6.64,0,0,0-.28-2.17,2.19,2.19,0,0,0-1.08-1.2,5.3,5.3,0,0,0-2.33-.4,11.11,11.11,0,0,0-1.82.17,8.43,8.43,0,0,0-1.77.48v-1.22a9.6,9.6,0,0,1,1.81-.5,11.72,11.72,0,0,1,2-.18,4.18,4.18,0,0,1,4.86,4.89v9.41h-1.43Z"/><path class="cls-1" d="M893.94,530.06a8.18,8.18,0,0,1-2.33-1.57l-.13,1.84h-1.25v-14h1.44v10.9a6.47,6.47,0,0,0,4.75,2.18,3.22,3.22,0,0,0,3.7-3.69v-9.39h1.42v9.31a5.21,5.21,0,0,1-1.19,3.73,4.55,4.55,0,0,1-3.46,1.26A7.51,7.51,0,0,1,893.94,530.06Z"/><path class="cls-1" d="M911.4,521.05a6.6,6.6,0,0,0-.29-2.17,2.12,2.12,0,0,0-1.08-1.2,5.25,5.25,0,0,0-2.32-.4,11.11,11.11,0,0,0-1.82.17,8.43,8.43,0,0,0-1.77.48v-1.22a9.6,9.6,0,0,1,1.81-.5,11.72,11.72,0,0,1,2-.18,4.18,4.18,0,0,1,4.86,4.89v9.41H911.4Z"/><path class="cls-1" d="M918.54,530.42a8.47,8.47,0,0,1-2-.48v-1.27a12.21,12.21,0,0,0,4.22.7,7.18,7.18,0,0,0,3.15-.53,2,2,0,0,0,1-2,2.17,2.17,0,0,0-.42-1.39,2.61,2.61,0,0,0-1.09-.83,18.9,18.9,0,0,0-1.92-.69,7.71,7.71,0,0,0-.78-.26,24.61,24.61,0,0,1-2.41-.91,4.43,4.43,0,0,1-1.53-1.19,3,3,0,0,1-.64-2q0-3.58,5.23-3.59a13.49,13.49,0,0,1,2.09.17,11.38,11.38,0,0,1,1.89.46v1.27a10.66,10.66,0,0,0-3.77-.65,6.88,6.88,0,0,0-3.08.51,1.85,1.85,0,0,0-.95,1.8,1.93,1.93,0,0,0,.49,1.37,3.86,3.86,0,0,0,1.31.88,25.83,25.83,0,0,0,2.46.87,17.8,17.8,0,0,1,2.41.93,4.34,4.34,0,0,1,1.52,1.22,3.09,3.09,0,0,1,.6,2,3.15,3.15,0,0,1-1.42,2.9,7.62,7.62,0,0,1-4,.87A16.16,16.16,0,0,1,918.54,530.42Z"/><path class="cls-1" d="M930.7,529.7a2.48,2.48,0,0,1-.58-1.73v-4a2.9,2.9,0,0,1,.55-1.78,3,3,0,0,1,1.61-1.05l-3.07-.68v-2.08a8.18,8.18,0,0,1,2.68-1.7,9.66,9.66,0,0,1,3.74-.69,6.33,6.33,0,0,1,4.38,1.29,4.91,4.91,0,0,1,1.42,3.83v9.18H940v-9.25a3.63,3.63,0,0,0-1-2.94,5.25,5.25,0,0,0-3.37-.86,9.07,9.07,0,0,0-3,.48,5.08,5.08,0,0,0-2.12,1.26v.73l3.12.68v1.24a2.34,2.34,0,0,0-2.08,2.42v3.62a1.51,1.51,0,0,0,.34,1.08,1.34,1.34,0,0,0,1,.35h1.54v1.19h-2.09A2.14,2.14,0,0,1,930.7,529.7Z"/><path class="cls-1" d="M413.58,547.49H415l2.62,12.2L421,549v-1.54h1.06l3.51,12.2,2.6-12.2h1.43l-3.14,14h-1.56l-3.17-10.92-3.44,10.92h-1.56Z"/><path class="cls-1" d="M423.1,541.82h1.27v2h7.26l-.08,1.12H423.1Z"/><path class="cls-1" d="M433.64,560a8.6,8.6,0,0,1-1.44-5.44,11.71,11.71,0,0,1,1-5.43,3.25,3.25,0,0,1,3-1.9,3.43,3.43,0,0,1,1.54.31,4.6,4.6,0,0,1,1.22,1,3.93,3.93,0,0,1,3-1.35,2.62,2.62,0,0,1,2.06.8,3.46,3.46,0,0,1,.72,2.4v8a8.52,8.52,0,0,0,2.11,1.61,5.17,5.17,0,0,0,2.44.57,3.52,3.52,0,0,0,2.66-.88,3.94,3.94,0,0,0,.85-2.81v-9.39h1.43v9.31a5.39,5.39,0,0,1-1.14,3.73,4.29,4.29,0,0,1-3.33,1.26,6.63,6.63,0,0,1-2.78-.53,9,9,0,0,1-2.27-1.57l-.13,1.84h-1.24V550.59a2.61,2.61,0,0,0-.39-1.64,1.73,1.73,0,0,0-1.38-.47,2.36,2.36,0,0,0-2.16,1.3h-.91a3.45,3.45,0,0,0-.94-1,2.16,2.16,0,0,0-1.19-.29,2.19,2.19,0,0,0-2.12,1.59,12.32,12.32,0,0,0-.64,4.49,7.66,7.66,0,0,0,1.09,4.61,3.86,3.86,0,0,0,3.23,1.4,5.84,5.84,0,0,0,1.77-.21v1.22a8,8,0,0,1-2.06.21A4.85,4.85,0,0,1,433.64,560Z"/><path class="cls-1" d="M459.25,560.53a5.34,5.34,0,0,1-1.16-3.73v-9.31h1.43v9.39a3.92,3.92,0,0,0,.86,2.79,3.66,3.66,0,0,0,2.76.9,6.54,6.54,0,0,0,4.83-2.18v-10.9h1.43v14h-1.24l-.13-1.84a8.12,8.12,0,0,1-2.37,1.56,7.74,7.74,0,0,1-3,.54A4.41,4.41,0,0,1,459.25,560.53Z"/><path class="cls-1" d="M479.26,552.25a6.6,6.6,0,0,0-.29-2.17,2.12,2.12,0,0,0-1.08-1.2,5.25,5.25,0,0,0-2.32-.4,11,11,0,0,0-1.82.17,8.43,8.43,0,0,0-1.77.48v-1.22a9.7,9.7,0,0,1,1.8-.5,11.92,11.92,0,0,1,2.05-.18,4.18,4.18,0,0,1,4.86,4.89v9.41h-1.43Z"/><path class="cls-1" d="M485.48,560a8.6,8.6,0,0,1-1.44-5.44,11.55,11.55,0,0,1,1-5.43,3.33,3.33,0,0,1,3.07-1.9,3.52,3.52,0,0,1,1.61.33,4.1,4.1,0,0,1,1.25,1,4,4,0,0,1,1.4-1,4.23,4.23,0,0,1,1.67-.34,2.86,2.86,0,0,1,2.16.8,3.37,3.37,0,0,1,.75,2.4v11.1h-1.43V550.59a2.47,2.47,0,0,0-.42-1.64,1.83,1.83,0,0,0-1.43-.47,2.62,2.62,0,0,0-1.28.33,2.35,2.35,0,0,0-1,1h-.91a3.57,3.57,0,0,0-1-1,2.32,2.32,0,0,0-1.24-.3,2.28,2.28,0,0,0-2.22,1.59,12,12,0,0,0-.66,4.49,7.59,7.59,0,0,0,1.09,4.61,3.84,3.84,0,0,0,3.22,1.4,5.84,5.84,0,0,0,1.77-.21v1.22a8,8,0,0,1-2,.21A4.88,4.88,0,0,1,485.48,560Z"/><path class="cls-1" d="M502,560.53a5.34,5.34,0,0,1-1.16-3.73v-9.31h1.43v9.39a3.92,3.92,0,0,0,.86,2.79,3.66,3.66,0,0,0,2.76.9,6.54,6.54,0,0,0,4.83-2.18v-10.9h1.43v14h-1.24l-.13-1.84a8.12,8.12,0,0,1-2.37,1.56,7.74,7.74,0,0,1-3,.54A4.41,4.41,0,0,1,502,560.53Z"/><path class="cls-1" d="M516.63,560.9a2.48,2.48,0,0,1-.58-1.73V547.49h1.43v11.42a1.51,1.51,0,0,0,.34,1.08,1.34,1.34,0,0,0,1,.35h1.27v1.19h-1.82A2.14,2.14,0,0,1,516.63,560.9Z"/><path class="cls-1" d="M525.3,561.52a14.37,14.37,0,0,1-2.36-.66v-6.92h4.73l.08,1.22h-3.38V560a11.14,11.14,0,0,0,3.64.62,6.06,6.06,0,0,0,2.91-.6,3.46,3.46,0,0,0,1.59-1.91,10.47,10.47,0,0,0,.49-3.52,10.13,10.13,0,0,0-.51-3.59,3.37,3.37,0,0,0-1.67-1.88,7.19,7.19,0,0,0-3.23-.59,14.11,14.11,0,0,0-4.44.65v-1.22a15,15,0,0,1,4.83-.68q3.43,0,4.93,1.77c1,1.18,1.49,3,1.49,5.54s-.49,4.26-1.49,5.46-2.61,1.79-4.82,1.79A14.19,14.19,0,0,1,525.3,561.52Z"/><path class="cls-1" d="M541.19,561.56l-4-9.62h1.4l3.56,8.63a5.55,5.55,0,0,0,.65,0c3.11,0,4.66-2.2,4.66-6.58a10.5,10.5,0,0,0-.37-3.15,2.82,2.82,0,0,0-1.22-1.65,4.69,4.69,0,0,0-2.39-.51h-.83v-1.22h.93c1.93,0,3.29.52,4.09,1.55a8.19,8.19,0,0,1,1.19,5c0,2.65-.52,4.62-1.57,5.89a5.12,5.12,0,0,1-4.17,1.91A6.16,6.16,0,0,1,541.19,561.56Z"/><path class="cls-1" d="M553.32,560.9a2.49,2.49,0,0,1-.59-1.73v-9.73a5.63,5.63,0,0,1,.69-2.86,5.29,5.29,0,0,1,1.86-1.9h-4.7v-1.19h6.5v1.25a4.69,4.69,0,0,0-2.23,1.89,6.36,6.36,0,0,0-.69,3.18v9.1a1.55,1.55,0,0,0,.34,1.08,1.37,1.37,0,0,0,1,.35h1.27v1.19H555A2.14,2.14,0,0,1,553.32,560.9Z"/><path class="cls-1" d="M561.14,560.44a5.17,5.17,0,0,1-1.49-4v-8.92h1.43v9.1q0,4,4.47,4t4.45-4V543.33h1.43v13.08a5.16,5.16,0,0,1-1.5,4,6.26,6.26,0,0,1-4.38,1.36A6.39,6.39,0,0,1,561.14,560.44Z"/><path class="cls-1" d="M576,560.79a3.67,3.67,0,0,1-1.24-3,3.8,3.8,0,0,1,1.3-3.08,6,6,0,0,1,4-1.11H585v-1.38a5,5,0,0,0-.39-2.17,2.39,2.39,0,0,0-1.31-1.16,7.4,7.4,0,0,0-2.59-.36,14,14,0,0,0-4.42.65v-1.22a15,15,0,0,1,4.73-.68,9.22,9.22,0,0,1,2.34.26h4.24l-.08,1.22h-2.1a5.27,5.27,0,0,1,1,3.51v9.31H585v-6.76h-4.84a5.12,5.12,0,0,0-3,.72,2.6,2.6,0,0,0-1,2.25,2.56,2.56,0,0,0,.87,2.15,4.38,4.38,0,0,0,2.69.68,6.61,6.61,0,0,0,1.77-.21v1.22a9.75,9.75,0,0,1-2.16.21A5.07,5.07,0,0,1,576,560.79Z"/><path class="cls-1" d="M582.28,567.62a1.76,1.76,0,0,1-.63-1.38v-1.87h-1.36l.06-1h2.44v2.86a.84.84,0,0,0,.31.69,1.43,1.43,0,0,0,.89.24,1.61,1.61,0,0,0,.92-.24.82.82,0,0,0,.35-.69v-2.86h1.17v2.91a1.72,1.72,0,0,1-.68,1.38,2.74,2.74,0,0,1-1.76.54A2.58,2.58,0,0,1,582.28,567.62Z"/><path class="cls-1" d="M585.05,540.76h1.43v4.16h-1.43Z"/><path class="cls-1" d="M592.08,560.54a4.65,4.65,0,0,1-1.39-3.64v-2.39a2.89,2.89,0,0,1,.39-1.41,14.24,14.24,0,0,1,1.1-1.66c.36-.5.63-.9.8-1.19a1.66,1.66,0,0,0,.26-.81.81.81,0,0,0-.17-.62,1,1,0,0,0-.69-.16h-2l.13-1.17h2.5a1.57,1.57,0,0,1,1.21.43,1.7,1.7,0,0,1,.4,1.21,2.78,2.78,0,0,1-.32,1.27,13.9,13.9,0,0,1-1,1.49,11.71,11.71,0,0,0-1,1.5,2.67,2.67,0,0,0-.32,1.25v2.5a3.14,3.14,0,0,0,1,2.6,5.54,5.54,0,0,0,5.85,0,3.16,3.16,0,0,0,1.07-2.62v-9.62h1.43v9.41a4.57,4.57,0,0,1-1.42,3.64,5.82,5.82,0,0,1-4,1.25A5.76,5.76,0,0,1,592.08,560.54Z"/><path class="cls-1" d="M596.31,541.82h1.27v2h7.26l-.08,1.12h-8.45Z"/><path class="cls-1" d="M598.44,538.29h-1.58v-1h2.67v2h4l0,1.07h-5Z"/><path class="cls-1" d="M606.54,560.53a5.34,5.34,0,0,1-1.16-3.73v-9.31h1.43v9.39a3.92,3.92,0,0,0,.86,2.79,3.66,3.66,0,0,0,2.76.9,6.54,6.54,0,0,0,4.83-2.18v-10.9h1.43v14h-1.24l-.13-1.84a8.12,8.12,0,0,1-2.37,1.56,7.74,7.74,0,0,1-3,.54A4.41,4.41,0,0,1,606.54,560.53Z"/><path class="cls-1" d="M619.79,547.49h1.45l2.63,12.2L627.22,549v-1.54h1.07l3.51,12.2,2.6-12.2h1.43l-3.15,14h-1.56L628,550.61l-3.43,10.92H623Z"/><path class="cls-1" d="M640.77,561.52a14.8,14.8,0,0,1-2.37-.66v-6.92h4.74l.07,1.22h-3.38V560a11.18,11.18,0,0,0,3.64.62,6.07,6.07,0,0,0,2.92-.6,3.49,3.49,0,0,0,1.58-1.91,12.77,12.77,0,0,0,0-7.11,3.39,3.39,0,0,0-1.68-1.88,7.15,7.15,0,0,0-3.22-.59,14.13,14.13,0,0,0-4.45.65v-1.22a15.09,15.09,0,0,1,4.84-.68q3.43,0,4.92,1.77t1.5,5.54q0,3.66-1.5,5.46t-4.82,1.79A14.17,14.17,0,0,1,640.77,561.52Z"/><path class="cls-1" d="M655.07,561.52a14.8,14.8,0,0,1-2.37-.66v-6.92h4.74l.07,1.22h-3.38V560a11.18,11.18,0,0,0,3.64.62,6.07,6.07,0,0,0,2.92-.6,3.49,3.49,0,0,0,1.58-1.91,12.77,12.77,0,0,0,0-7.11,3.39,3.39,0,0,0-1.68-1.88,7.15,7.15,0,0,0-3.22-.59,14.13,14.13,0,0,0-4.45.65v-1.22a15.09,15.09,0,0,1,4.84-.68q3.43,0,4.92,1.77t1.5,5.54q0,3.66-1.5,5.46t-4.82,1.79A14.17,14.17,0,0,1,655.07,561.52Z"/><path class="cls-1" d="M668.52,560.74a3.52,3.52,0,0,1-1.52-3.08,3.78,3.78,0,0,1,.61-2.2,3.44,3.44,0,0,1,1.71-1.26,2.86,2.86,0,0,1-1.63-1.07,3.4,3.4,0,0,1-.61-2.1,3.62,3.62,0,0,1,1.08-2.84,4.09,4.09,0,0,1,2.82-1,8.07,8.07,0,0,1,2.06.26v1.22a6.08,6.08,0,0,0-1.77-.23q-2.76,0-2.76,2.55c0,1.71,1,2.57,3.1,2.57h1.5l.13,1.15h-1.71a3.29,3.29,0,0,0-2.32.75,2.83,2.83,0,0,0-.8,2.16q0,2.91,4.47,2.91a5.05,5.05,0,0,0,3.26-.88,3.32,3.32,0,0,0,1.08-2.73v-9.47h1.43v8.63a6.09,6.09,0,0,1-1.3,4.27c-.87.93-2.35,1.4-4.44,1.4A7.72,7.72,0,0,1,668.52,560.74Z"/><path class="cls-1" d="M674.48,567.62a1.74,1.74,0,0,1-.64-1.38v-1.87h-1.35l0-1H675v2.86a.84.84,0,0,0,.31.69,1.42,1.42,0,0,0,.88.24,1.59,1.59,0,0,0,.92-.24.8.8,0,0,0,.36-.69v-2.86h1.17v2.91a1.72,1.72,0,0,1-.68,1.38,2.75,2.75,0,0,1-1.77.54A2.53,2.53,0,0,1,674.48,567.62Z"/><path class="cls-1" d="M677.22,540.76h1.43v4.16h-1.43Z"/><path class="cls-1" d="M681.75,547.49h1.45l2.63,12.2L689.18,549v-1.54h1.07l3.51,12.2,2.6-12.2h1.43l-3.15,14h-1.56l-3.17-10.92-3.43,10.92h-1.56Z"/><path class="cls-1" d="M702.73,561.52a14.8,14.8,0,0,1-2.37-.66v-6.92h4.73l.08,1.22h-3.38V560a11.18,11.18,0,0,0,3.64.62,6,6,0,0,0,2.91-.6,3.46,3.46,0,0,0,1.59-1.91,10.22,10.22,0,0,0,.49-3.52,10.39,10.39,0,0,0-.5-3.59,3.39,3.39,0,0,0-1.68-1.88,7.18,7.18,0,0,0-3.22-.59,14.13,14.13,0,0,0-4.45.65v-1.22a15.09,15.09,0,0,1,4.84-.68c2.28,0,3.93.59,4.92,1.77s1.5,3,1.5,5.54-.5,4.26-1.5,5.46-2.6,1.79-4.82,1.79A14.17,14.17,0,0,1,702.73,561.52Z"/><path class="cls-1" d="M715.57,555.21a2.9,2.9,0,0,1,.55-1.78,3,3,0,0,1,1.61-1l-3.07-.68v-2.08a8.08,8.08,0,0,1,2.67-1.71,9.5,9.5,0,0,1,3.68-.68,6.49,6.49,0,0,1,4.43,1.29,4.88,4.88,0,0,1,1.44,3.83v9.18h-1.43v-9.25a3.62,3.62,0,0,0-1.05-2.93,5.3,5.3,0,0,0-3.39-.87,8.88,8.88,0,0,0-3,.48,5.16,5.16,0,0,0-2.09,1.26V551l3.12.68v1.24a3,3,0,0,0-1.56.81,2.29,2.29,0,0,0-.52,1.61v6.24h-1.43Z"/><path class="cls-1" d="M717.13,543.8h9.73v1.12h-9.81Z"/><path class="cls-1" d="M731.91,560.53a5.34,5.34,0,0,1-1.15-3.73v-9.31h1.43v9.39a3.91,3.91,0,0,0,.85,2.79,3.68,3.68,0,0,0,2.76.9,6.58,6.58,0,0,0,4.84-2.18v-10.9h1.43v14h-1.25l-.13-1.84a8,8,0,0,1-2.37,1.56,7.71,7.71,0,0,1-3,.54A4.41,4.41,0,0,1,731.91,560.53Z"/><path class="cls-1" d="M756.66,560.9a2.48,2.48,0,0,1-.58-1.73V547.49h1.43v11.42a1.51,1.51,0,0,0,.34,1.08,1.34,1.34,0,0,0,1,.35H760v1.19h-1.69A2.15,2.15,0,0,1,756.66,560.9Zm5.59,0a2.48,2.48,0,0,1-.58-1.73V547.49h1.43v10.84a3.22,3.22,0,0,0,.27,1.55,1.16,1.16,0,0,0,1.08.46h1.15v1.19h-1.69A2.15,2.15,0,0,1,762.25,560.9Z"/><path class="cls-1" d="M769.66,560.79a3.7,3.7,0,0,1-1.23-3,3.8,3.8,0,0,1,1.3-3.08,6,6,0,0,1,4-1.11h4.94v-1.38a5,5,0,0,0-.39-2.17,2.38,2.38,0,0,0-1.32-1.16,7.3,7.3,0,0,0-2.58-.36,14,14,0,0,0-4.42.65v-1.22a15,15,0,0,1,4.73-.68,5.89,5.89,0,0,1,4.13,1.2,5,5,0,0,1,1.28,3.79v9.31h-1.43v-6.76h-4.84a5.1,5.1,0,0,0-3,.72,2.6,2.6,0,0,0-1,2.25,2.56,2.56,0,0,0,.87,2.15,4.38,4.38,0,0,0,2.69.68,6.66,6.66,0,0,0,1.77-.21v1.22a9.75,9.75,0,0,1-2.16.21A5.12,5.12,0,0,1,769.66,560.79Z"/><path class="cls-1" d="M783.43,550h1.28v1.28h4.23l-.05,1.17h-5.46Zm0,7.28h1.28v1.3h4.23l-.05,1.15h-5.46Z"/><path class="cls-1" d="M793.22,560a8.6,8.6,0,0,1-1.44-5.44,11.43,11.43,0,0,1,1-5.43,3.32,3.32,0,0,1,3.07-1.9,3.55,3.55,0,0,1,1.61.33,4.1,4.1,0,0,1,1.25,1,3.78,3.78,0,0,1,1.4-1,4.18,4.18,0,0,1,1.66-.34,2.83,2.83,0,0,1,2.16.8,3.37,3.37,0,0,1,.76,2.4v11.1H803.3V550.59a2.47,2.47,0,0,0-.42-1.64,1.85,1.85,0,0,0-1.43-.47,2.69,2.69,0,0,0-1.29.33,2.33,2.33,0,0,0-1,1h-.91a3.59,3.59,0,0,0-1-1,2.44,2.44,0,0,0-3.46,1.29,12,12,0,0,0-.66,4.49,7.66,7.66,0,0,0,1.09,4.61,3.86,3.86,0,0,0,3.23,1.4,5.84,5.84,0,0,0,1.77-.21v1.22a8,8,0,0,1-2.06.21A4.85,4.85,0,0,1,793.22,560Z"/><path class="cls-1" d="M799.53,541.82h1.27v2h7.25l-.07,1.12h-8.45Z"/><path class="cls-1" d="M809.52,560a8.6,8.6,0,0,1-1.44-5.44,7.89,7.89,0,0,1,1.69-5.4,6.48,6.48,0,0,1,5.15-1.93,6.18,6.18,0,0,1,4.6,1.55,5.4,5.4,0,0,1,1.51,3.91v8.84H819.6v-8.92a4.09,4.09,0,0,0-1.13-3,4.93,4.93,0,0,0-3.58-1.13c-3.6,0-5.41,2-5.41,6.08a7.64,7.64,0,0,0,1.08,4.59,3.8,3.8,0,0,0,3.24,1.42,5.84,5.84,0,0,0,1.77-.21v1.22a8,8,0,0,1-2.06.21A4.85,4.85,0,0,1,809.52,560Z"/><path class="cls-1" d="M824.9,552.22a4.7,4.7,0,0,1,1.42-3.74,6.49,6.49,0,0,1,4.38-1.25,6.39,6.39,0,0,1,4.34,1.25,4.73,4.73,0,0,1,1.41,3.74v9.31H835V552a3.2,3.2,0,0,0-1.08-2.69,5.16,5.16,0,0,0-3.24-.85,5.26,5.26,0,0,0-3.29.85,3.2,3.2,0,0,0-1.08,2.69v3.61a5.12,5.12,0,0,1,3.3-1.17h1.75l.07,1.2h-1.84a5.06,5.06,0,0,0-1.73.28,5.44,5.44,0,0,0-1.55.89v4.7H824.9Z"/><path class="cls-1" d="M835,540.76h1.43v4.16H835Z"/><path class="cls-1" d="M846.3,552.25a6.6,6.6,0,0,0-.29-2.17,2.12,2.12,0,0,0-1.08-1.2,5.22,5.22,0,0,0-2.32-.4,11.11,11.11,0,0,0-1.82.17,8.43,8.43,0,0,0-1.77.48v-1.22a9.6,9.6,0,0,1,1.81-.5,11.72,11.72,0,0,1,2-.18,4.18,4.18,0,0,1,4.86,4.89v9.41H846.3Z"/><path class="cls-1" d="M851.85,560.9a2.48,2.48,0,0,1-.58-1.73v-6.76a4.52,4.52,0,0,1,1.05-3,13.2,13.2,0,0,1,1.13-1.14,8.08,8.08,0,0,0,1-1.06,1.59,1.59,0,0,0,.32-1,1.41,1.41,0,0,0-.49-1.25,2.93,2.93,0,0,0-1.59-.34,5.93,5.93,0,0,0-2.94.81v-1.17a6,6,0,0,1,1.58-.64,6.73,6.73,0,0,1,1.7-.22,3.48,3.48,0,0,1,2.39.7,2.6,2.6,0,0,1,.78,2,2.3,2.3,0,0,1-.39,1.36,7.79,7.79,0,0,1-1.19,1.29,8.25,8.25,0,0,0-1.46,1.61,3.59,3.59,0,0,0-.49,2v6.53A1.55,1.55,0,0,0,853,560a1.39,1.39,0,0,0,1,.35h1.27v1.19H853.5A2.14,2.14,0,0,1,851.85,560.9Z"/><path class="cls-1" d="M860,560.54a4.59,4.59,0,0,1-1.41-3.64v-2.39a2.89,2.89,0,0,1,.39-1.41,14,14,0,0,1,1.09-1.66c.36-.5.63-.9.8-1.19a1.56,1.56,0,0,0,.26-.81.81.81,0,0,0-.17-.62,1,1,0,0,0-.68-.16h-2l.13-1.17h2.49a1.57,1.57,0,0,1,1.21.43,1.7,1.7,0,0,1,.4,1.21,2.66,2.66,0,0,1-.32,1.27,12.48,12.48,0,0,1-1,1.49,14.45,14.45,0,0,0-1,1.5,2.66,2.66,0,0,0-.31,1.25v2.5a3.07,3.07,0,0,0,1.07,2.6,5.75,5.75,0,0,0,6,0,3.13,3.13,0,0,0,1.06-2.63v-1.84a3.7,3.7,0,0,0-.54-2.33,2.56,2.56,0,0,0-2-.64h-.72l.1-1.17h.62a2.44,2.44,0,0,0,2-.69,3.7,3.7,0,0,0,.53-2.22v-1h1.43v1a5.43,5.43,0,0,1-.41,2.31,2.47,2.47,0,0,1-1.59,1.2,2.53,2.53,0,0,1,1.62,1.24,5.59,5.59,0,0,1,.38,2.33v1.63a4.52,4.52,0,0,1-1.45,3.64,6,6,0,0,1-4,1.25A5.9,5.9,0,0,1,860,560.54Z"/><path class="cls-1" d="M864.14,542.4h-2.06v-1.1h3.2v2.5H871l-.08,1.12h-6.81Z"/><path class="cls-1" d="M876.77,561.56l-2.34-6.24h-1.56l.08-1.22h2.42l2.42,6.47a4.61,4.61,0,0,0,2.89-.62,4.65,4.65,0,0,0,1.71-2.07,8.59,8.59,0,0,0,.65-3.55,8.77,8.77,0,0,0-.54-3.39,3.52,3.52,0,0,0-1.74-1.86,7.46,7.46,0,0,0-3.29-.6,13.79,13.79,0,0,0-4.39.65v-1.22a15.49,15.49,0,0,1,4.78-.68q3.4,0,5,1.8a7.8,7.8,0,0,1,1.58,5.3,9.52,9.52,0,0,1-.79,4.08,5.75,5.75,0,0,1-2.17,2.54,5.84,5.84,0,0,1-3.1.84A4.7,4.7,0,0,1,876.77,561.56Z"/><path class="cls-1" d="M882.49,540.76h1.43v4.16h-1.43Z"/><path class="cls-1" d="M893.78,552.25a6.6,6.6,0,0,0-.29-2.17,2.12,2.12,0,0,0-1.08-1.2,5.27,5.27,0,0,0-2.33-.4,11.21,11.21,0,0,0-1.82.17,8.33,8.33,0,0,0-1.76.48v-1.22a9.7,9.7,0,0,1,1.8-.5,11.89,11.89,0,0,1,2-.18,4.18,4.18,0,0,1,4.87,4.89v9.41h-1.43Z"/><path class="cls-1" d="M900.08,560.74a3.52,3.52,0,0,1-1.52-3.08,3.71,3.71,0,0,1,.61-2.2,3.46,3.46,0,0,1,1.7-1.26,2.86,2.86,0,0,1-1.62-1.07,3.34,3.34,0,0,1-.61-2.1,3.62,3.62,0,0,1,1.08-2.84,4.09,4.09,0,0,1,2.82-1,7.94,7.94,0,0,1,2.05.26v1.22a6,6,0,0,0-1.77-.23c-1.83,0-2.75.85-2.75,2.55s1,2.57,3.09,2.57h1.51l.13,1.15h-1.72a3.28,3.28,0,0,0-2.31.75,2.8,2.8,0,0,0-.81,2.16q0,2.91,4.48,2.91a5.07,5.07,0,0,0,3.26-.88,3.32,3.32,0,0,0,1.08-2.73v-9.47h1.43v8.63a6.14,6.14,0,0,1-1.3,4.27c-.87.93-2.35,1.4-4.45,1.4A7.66,7.66,0,0,1,900.08,560.74Z"/><path class="cls-1" d="M914.8,560.79a3.67,3.67,0,0,1-1.24-3,3.8,3.8,0,0,1,1.3-3.08,6,6,0,0,1,4-1.11h4.94v-1.38a5,5,0,0,0-.39-2.17,2.39,2.39,0,0,0-1.31-1.16,7.4,7.4,0,0,0-2.59-.36,14,14,0,0,0-4.42.65v-1.22a15,15,0,0,1,4.73-.68,5.92,5.92,0,0,1,4.14,1.2,5,5,0,0,1,1.27,3.79v9.31h-1.43v-6.76h-4.84a5.12,5.12,0,0,0-3,.72,2.6,2.6,0,0,0-1,2.25,2.56,2.56,0,0,0,.87,2.15,4.38,4.38,0,0,0,2.69.68,6.61,6.61,0,0,0,1.77-.21v1.22a9.75,9.75,0,0,1-2.16.21A5.07,5.07,0,0,1,914.8,560.79Z"/><path class="cls-1" d="M932.52,561.56l-4-9.62H930l3.56,8.63a5.43,5.43,0,0,0,.65,0c3.1,0,4.65-2.2,4.65-6.58a10.88,10.88,0,0,0-.36-3.15,2.82,2.82,0,0,0-1.22-1.65,4.69,4.69,0,0,0-2.39-.51H934v-1.22H935c1.92,0,3.28.52,4.08,1.55s1.2,2.68,1.2,5c0,2.65-.53,4.62-1.58,5.89a5.1,5.1,0,0,1-4.17,1.91A6,6,0,0,1,932.52,561.56Z"/><path class="cls-1" d="M415,592.1a2.49,2.49,0,0,1-.59-1.73V578.69h1.43v11.42a1.51,1.51,0,0,0,.34,1.08,1.34,1.34,0,0,0,1,.35h1.28v1.19H416.6A2.14,2.14,0,0,1,415,592.1Z"/><path class="cls-1" d="M422.16,586.41a2.9,2.9,0,0,1,.55-1.78,3,3,0,0,1,1.61-1l-3.07-.68v-2.08a8.08,8.08,0,0,1,2.67-1.71,9.5,9.5,0,0,1,3.68-.68,6.49,6.49,0,0,1,4.43,1.29,4.88,4.88,0,0,1,1.44,3.83v9.18H432v-9.25a3.62,3.62,0,0,0-1.05-2.93,5.3,5.3,0,0,0-3.39-.87,8.88,8.88,0,0,0-3,.48,5.16,5.16,0,0,0-2.09,1.26v.73l3.12.68v1.24a3,3,0,0,0-1.56.81,2.29,2.29,0,0,0-.52,1.61v6.24h-1.43Z"/><path class="cls-1" d="M423.72,575h5.62v-2.26h1.17V575h1.77v-2.26h1.17v3.38h-9.81Z"/><path class="cls-1" d="M439.19,592.72a14.37,14.37,0,0,1-2.36-.66v-6.92h4.73l.08,1.22h-3.38v4.79a11.09,11.09,0,0,0,3.64.62,6.06,6.06,0,0,0,2.91-.6,3.45,3.45,0,0,0,1.58-1.91,12.77,12.77,0,0,0,0-7.11,3.39,3.39,0,0,0-1.68-1.88,7.29,7.29,0,0,0-3.22-.59,14.17,14.17,0,0,0-4.45.65v-1.22a15.09,15.09,0,0,1,4.84-.68q3.44,0,4.93,1.77t1.49,5.54a8.45,8.45,0,0,1-1.49,5.46Q445.3,593,442,593A14.17,14.17,0,0,1,439.19,592.72Z"/><path class="cls-1" d="M453.14,591.64a5.14,5.14,0,0,1-1.49-4v-8.92h1.43v9.1q0,4,4.47,4t4.44-4v-9.1h1.43v8.92a5.19,5.19,0,0,1-1.49,4,6.3,6.3,0,0,1-4.38,1.36A6.39,6.39,0,0,1,453.14,591.64Z"/><path class="cls-1" d="M467.3,578.69h1.25l.13,1.85A8,8,0,0,1,471,579a7.24,7.24,0,0,1,3-.55,4.48,4.48,0,0,1,3.43,1.28,5.21,5.21,0,0,1,1.2,3.71v9.31h-1.43v-9.38a3.77,3.77,0,0,0-.9-2.79,3.89,3.89,0,0,0-2.79-.88,6.47,6.47,0,0,0-4.76,2.18v10.87H467.3Z"/><path class="cls-1" d="M473.41,573h1.27v2h7.26l-.08,1.12h-8.45Z"/><path class="cls-1" d="M475.54,569.49H474v-1h2.68v2h4l-.05,1.07h-5Z"/><path class="cls-1" d="M485.91,592.76l-4-9.62h1.41l3.56,8.63a5.32,5.32,0,0,0,.65,0c3.1,0,4.65-2.2,4.65-6.58a10.88,10.88,0,0,0-.36-3.15,2.82,2.82,0,0,0-1.22-1.65,4.73,4.73,0,0,0-2.4-.51h-.83v-1.22h.94c1.92,0,3.28.52,4.08,1.55s1.2,2.68,1.2,5c0,2.65-.53,4.62-1.58,5.89a5.12,5.12,0,0,1-4.17,1.91A6.16,6.16,0,0,1,485.91,592.76Z"/><path class="cls-1" d="M497,578.69h1.43v4.73h5.23a3.64,3.64,0,0,0,2.6-.75,3.15,3.15,0,0,0,.75-2.31v-1.67h1.43v1.67q0,3-2.34,3.66a2.62,2.62,0,0,1,1.73,1.28,5.53,5.53,0,0,1,.43,2.36v5.07h-1.43v-5a4.8,4.8,0,0,0-.3-1.9,1.73,1.73,0,0,0-1-1,5.83,5.83,0,0,0-2-.27h-5.1v8.08H497Z"/><path class="cls-1" d="M515.88,592.46a8.18,8.18,0,0,1-2.33-1.57l-.13,1.84h-1.25v-14h1.43v10.9a6.49,6.49,0,0,0,4.76,2.18,3.21,3.21,0,0,0,3.69-3.69v-9.39h1.43V588a5.25,5.25,0,0,1-1.19,3.73,4.55,4.55,0,0,1-3.46,1.26A7.51,7.51,0,0,1,515.88,592.46Z"/><path class="cls-1" d="M528.28,591.2a8.6,8.6,0,0,1-1.44-5.44,7.89,7.89,0,0,1,1.69-5.4,6.46,6.46,0,0,1,5.15-1.93,6.18,6.18,0,0,1,4.6,1.55,5.4,5.4,0,0,1,1.51,3.91v8.84h-1.43v-8.92a4.06,4.06,0,0,0-1.14-3,4.88,4.88,0,0,0-3.57-1.13q-5.42,0-5.41,6.08a7.64,7.64,0,0,0,1.08,4.59,3.8,3.8,0,0,0,3.24,1.42,5.84,5.84,0,0,0,1.77-.21v1.22a8,8,0,0,1-2.06.21A4.85,4.85,0,0,1,528.28,591.2Z"/><path class="cls-1" d="M551.26,592.46a8,8,0,0,1-2.32-1.57l-.13,1.84h-1.25v-14H549v10.9a6.47,6.47,0,0,0,4.76,2.18,3.22,3.22,0,0,0,3.69-3.69v-9.39h1.43V588a5.21,5.21,0,0,1-1.2,3.73,4.55,4.55,0,0,1-3.46,1.26A7.55,7.55,0,0,1,551.26,592.46Z"/><path class="cls-1" d="M549.12,575h8.45v-2.26h1.27v3.38H549Z"/><path class="cls-1" d="M564.59,592.72a14.8,14.8,0,0,1-2.37-.66v-6.92H567l.08,1.22h-3.38v4.79a11.18,11.18,0,0,0,3.64.62,6,6,0,0,0,2.91-.6,3.46,3.46,0,0,0,1.59-1.91,10.22,10.22,0,0,0,.49-3.52,10.39,10.39,0,0,0-.5-3.59,3.39,3.39,0,0,0-1.68-1.88,7.32,7.32,0,0,0-3.22-.59,14.13,14.13,0,0,0-4.45.65v-1.22a15.09,15.09,0,0,1,4.84-.68c2.28,0,3.93.59,4.92,1.77s1.5,3,1.5,5.54-.5,4.26-1.5,5.46-2.6,1.79-4.82,1.79A14.17,14.17,0,0,1,564.59,592.72Z"/><path class="cls-1" d="M563.42,575h9.72v1.12h-9.8Z"/><path class="cls-1" d="M577.76,592a3.67,3.67,0,0,1-1.24-3,3.8,3.8,0,0,1,1.3-3.08,6,6,0,0,1,4-1.11h4.94v-1.38a5,5,0,0,0-.39-2.17A2.39,2.39,0,0,0,585,580a7.4,7.4,0,0,0-2.59-.36,14,14,0,0,0-4.42.65v-1.22a15,15,0,0,1,4.73-.68,9.22,9.22,0,0,1,2.34.26h4.24l-.08,1.22h-2.1a5.27,5.27,0,0,1,1,3.51v9.31h-1.43V586H581.9a5.12,5.12,0,0,0-3,.72,2.6,2.6,0,0,0-1,2.25,2.56,2.56,0,0,0,.87,2.15,4.38,4.38,0,0,0,2.69.68,6.61,6.61,0,0,0,1.77-.21v1.22a9.75,9.75,0,0,1-2.16.21A5.07,5.07,0,0,1,577.76,592Z"/><path class="cls-1" d="M594.53,592.82a8.47,8.47,0,0,1-2-.48v-1.27a12.21,12.21,0,0,0,4.22.7,7.18,7.18,0,0,0,3.15-.53,2,2,0,0,0,1-2,2.23,2.23,0,0,0-.41-1.39,2.7,2.7,0,0,0-1.1-.83,18.9,18.9,0,0,0-1.92-.69,7.71,7.71,0,0,0-.78-.26,24.61,24.61,0,0,1-2.41-.91,4.32,4.32,0,0,1-1.53-1.19,3,3,0,0,1-.64-2c0-2.39,1.75-3.59,5.23-3.59a13.49,13.49,0,0,1,2.09.17,11.38,11.38,0,0,1,1.89.46v1.27a10.66,10.66,0,0,0-3.77-.65,6.88,6.88,0,0,0-3.08.51,1.85,1.85,0,0,0-.95,1.8,1.93,1.93,0,0,0,.49,1.37,3.86,3.86,0,0,0,1.31.88,25.83,25.83,0,0,0,2.46.87,17.8,17.8,0,0,1,2.41.93,4.34,4.34,0,0,1,1.52,1.22,3.09,3.09,0,0,1,.6,2,3.15,3.15,0,0,1-1.42,2.9,7.62,7.62,0,0,1-4,.87A16.16,16.16,0,0,1,594.53,592.82Z"/><path class="cls-1" d="M605.2,581.21h1.27v1.28h4.24l-.05,1.17H605.2Zm0,7.28h1.27v1.3h4.24l-.05,1.15H605.2Z"/><path class="cls-1" d="M621.34,592.76,619,586.52h-1.56l.08-1.22h2.42l2.42,6.47a4.43,4.43,0,0,0,.6,0,4.35,4.35,0,0,0,2.3-.65,4.63,4.63,0,0,0,1.7-2.07,8.59,8.59,0,0,0,.65-3.55,9,9,0,0,0-.53-3.39,3.57,3.57,0,0,0-1.75-1.86,7.46,7.46,0,0,0-3.29-.6,13.79,13.79,0,0,0-4.39.65v-1.22a15.51,15.51,0,0,1,4.79-.68q3.4,0,5,1.8a7.8,7.8,0,0,1,1.58,5.3,9.49,9.49,0,0,1-.79,4.08,5.75,5.75,0,0,1-2.17,2.54A5.83,5.83,0,0,1,623,593,4.72,4.72,0,0,1,621.34,592.76Z"/><path class="cls-1" d="M638.35,583.45a6.6,6.6,0,0,0-.29-2.17,2.12,2.12,0,0,0-1.08-1.2,5.25,5.25,0,0,0-2.32-.4,11.22,11.22,0,0,0-1.83.17,8.5,8.5,0,0,0-1.76.48v-1.22a9.7,9.7,0,0,1,1.8-.5,11.92,11.92,0,0,1,2-.18,4.18,4.18,0,0,1,4.86,4.89v9.41h-1.43Z"/><path class="cls-1" d="M644,586.41a2.9,2.9,0,0,1,.55-1.78,3,3,0,0,1,1.61-1l-3.07-.68v-2.08a8.08,8.08,0,0,1,2.67-1.71,9.49,9.49,0,0,1,3.67-.68,6.5,6.5,0,0,1,4.44,1.29,4.88,4.88,0,0,1,1.44,3.83v9.18h-1.43v-9.25a3.62,3.62,0,0,0-1-2.93,5.31,5.31,0,0,0-3.4-.87,8.86,8.86,0,0,0-3,.48,5.16,5.16,0,0,0-2.09,1.26v.73l3.12.68v1.24a3,3,0,0,0-1.56.81,2.29,2.29,0,0,0-.52,1.61v6.24H644Z"/><path class="cls-1" d="M659.94,592a3.7,3.7,0,0,1-1.23-3,3.82,3.82,0,0,1,1.29-3.08,6,6,0,0,1,4-1.11h4.94v-1.38a5,5,0,0,0-.39-2.17,2.39,2.39,0,0,0-1.31-1.16,7.4,7.4,0,0,0-2.59-.36,14.07,14.07,0,0,0-4.42.65v-1.22a15,15,0,0,1,4.73-.68,9.36,9.36,0,0,1,2.35.26h4.23l-.08,1.22h-2.1a5.27,5.27,0,0,1,1,3.51v9.31h-1.43V586h-4.83a5.15,5.15,0,0,0-3.05.72,2.6,2.6,0,0,0-1,2.25,2.56,2.56,0,0,0,.87,2.15,4.39,4.39,0,0,0,2.7.68,6.58,6.58,0,0,0,1.76-.21v1.22a9.63,9.63,0,0,1-2.16.21A5.09,5.09,0,0,1,659.94,592Z"/><path class="cls-1" d="M674.36,591.54h1.12a1.19,1.19,0,0,0,.92-.34,1.59,1.59,0,0,0,.3-1.07v-3.72a3.61,3.61,0,0,1,.4-1.8,2.3,2.3,0,0,1,1.39-1l-3.15-.68v-2.08a8.28,8.28,0,0,1,2.7-1.7,9.68,9.68,0,0,1,3.73-.69,6.37,6.37,0,0,1,4.4,1.29,4.91,4.91,0,0,1,1.42,3.83v9.18h-1.43v-9.25a3.63,3.63,0,0,0-1-2.94,5.26,5.26,0,0,0-3.35-.86,9.08,9.08,0,0,0-3,.48,5.3,5.3,0,0,0-2.14,1.26v.73l3.19.68v1.24a2.33,2.33,0,0,0-1.34.8,2.81,2.81,0,0,0-.37,1.62v3.69a2.74,2.74,0,0,1-.59,1.9,2.18,2.18,0,0,1-1.73.65h-1.45Z"/><path class="cls-1" d="M697.44,583.45a6.64,6.64,0,0,0-.28-2.17,2.12,2.12,0,0,0-1.08-1.2,5.27,5.27,0,0,0-2.33-.4,11.21,11.21,0,0,0-1.82.17,8.17,8.17,0,0,0-1.76.48v-1.22a9.48,9.48,0,0,1,1.8-.5,11.89,11.89,0,0,1,2-.18,4.18,4.18,0,0,1,4.87,4.89v9.41h-1.44Z"/><path class="cls-1" d="M702,578.69h1.45l2.63,12.2,3.36-10.66v-1.54h1.06l3.51,12.2,2.6-12.2H718l-3.14,14h-1.56l-3.18-10.92-3.43,10.92h-1.56Z"/><path class="cls-1" d="M722.6,591.64a5.14,5.14,0,0,1-1.5-4v-8.92h1.44v9.1q0,4,4.47,4t4.44-4V574.53h1.43v13.08a5.19,5.19,0,0,1-1.49,4A6.3,6.3,0,0,1,727,593,6.39,6.39,0,0,1,722.6,591.64Z"/><path class="cls-1" d="M721.44,573h1.25v2h6.11l0,1.12h-7.31Z"/><path class="cls-1" d="M740.14,592.76l-2.34-6.24h-1.56l.07-1.22h2.42l2.42,6.47a4.54,4.54,0,0,0,.6,0,4.32,4.32,0,0,0,2.3-.65,4.63,4.63,0,0,0,1.7-2.07,8.44,8.44,0,0,0,.65-3.55,9,9,0,0,0-.53-3.39,3.59,3.59,0,0,0-1.74-1.86,7.49,7.49,0,0,0-3.29-.6,13.85,13.85,0,0,0-4.4.65v-1.22a15.56,15.56,0,0,1,4.79-.68q3.4,0,5,1.8a7.75,7.75,0,0,1,1.59,5.3,9.48,9.48,0,0,1-.8,4.08,5.75,5.75,0,0,1-2.17,2.54,5.83,5.83,0,0,1-3.09.84A4.66,4.66,0,0,1,740.14,592.76Z"/><path class="cls-1" d="M754.54,592.76l-2.34-6.24h-1.56l.08-1.22h2.42l2.41,6.47a4.54,4.54,0,0,0,.6,0,4.32,4.32,0,0,0,2.3-.65,4.65,4.65,0,0,0,1.71-2.07,8.59,8.59,0,0,0,.65-3.55,8.77,8.77,0,0,0-.54-3.39,3.52,3.52,0,0,0-1.74-1.86,7.46,7.46,0,0,0-3.29-.6,13.79,13.79,0,0,0-4.39.65v-1.22a15.49,15.49,0,0,1,4.78-.68q3.4,0,5,1.8a7.8,7.8,0,0,1,1.58,5.3,9.49,9.49,0,0,1-.79,4.08,5.75,5.75,0,0,1-2.17,2.54,5.84,5.84,0,0,1-3.1.84A4.7,4.7,0,0,1,754.54,592.76Z"/><path class="cls-1" d="M756.49,573h1.27v2H765l-.08,1.12h-8.45Z"/><path class="cls-1" d="M766.57,591.94a3.5,3.5,0,0,1-1.53-3.08,3.71,3.71,0,0,1,.62-2.2,3.37,3.37,0,0,1,1.7-1.26,2.86,2.86,0,0,1-1.63-1.07,3.4,3.4,0,0,1-.61-2.1,3.62,3.62,0,0,1,1.08-2.84,4.09,4.09,0,0,1,2.82-1,8,8,0,0,1,2.06.26v1.22a6.08,6.08,0,0,0-1.77-.23q-2.76,0-2.76,2.55c0,1.71,1,2.57,3.1,2.57h1.51l.13,1.15h-1.72a3.29,3.29,0,0,0-2.32.75,2.83,2.83,0,0,0-.8,2.16q0,2.91,4.47,2.91a5.05,5.05,0,0,0,3.26-.88,3.32,3.32,0,0,0,1.08-2.73v-9.47h1.43v8.63a6.09,6.09,0,0,1-1.3,4.27c-.86.93-2.35,1.4-4.44,1.4A7.66,7.66,0,0,1,766.57,591.94Z"/><path class="cls-1" d="M780.05,591.54h1.12a1.19,1.19,0,0,0,.92-.34,1.59,1.59,0,0,0,.3-1.07v-3.72a3.61,3.61,0,0,1,.4-1.8,2.3,2.3,0,0,1,1.39-1L781,582.9v-2.08a8.12,8.12,0,0,1,2.69-1.7,9.68,9.68,0,0,1,3.73-.69,6.37,6.37,0,0,1,4.4,1.29,4.91,4.91,0,0,1,1.42,3.83v9.18h-1.43v-9.25a3.63,3.63,0,0,0-1-2.94,5.26,5.26,0,0,0-3.35-.86,9.08,9.08,0,0,0-3,.48,5.42,5.42,0,0,0-2.15,1.26v.73l3.2.68v1.24a2.36,2.36,0,0,0-1.34.8,2.81,2.81,0,0,0-.37,1.62v3.69a2.74,2.74,0,0,1-.59,1.9,2.18,2.18,0,0,1-1.73.65h-1.45Z"/><path class="cls-1" d="M803.13,583.45a6.64,6.64,0,0,0-.28-2.17,2.12,2.12,0,0,0-1.08-1.2,5.27,5.27,0,0,0-2.33-.4,11.21,11.21,0,0,0-1.82.17,8.6,8.6,0,0,0-1.77.48v-1.22a10,10,0,0,1,1.81-.5,11.89,11.89,0,0,1,2-.18,4.18,4.18,0,0,1,4.87,4.89v9.41h-1.44Z"/><path class="cls-1" d="M809.44,591.94a3.52,3.52,0,0,1-1.52-3.08,3.71,3.71,0,0,1,.61-2.2,3.42,3.42,0,0,1,1.7-1.26,2.86,2.86,0,0,1-1.62-1.07,3.34,3.34,0,0,1-.61-2.1,3.62,3.62,0,0,1,1.08-2.84,4.07,4.07,0,0,1,2.82-1,7.94,7.94,0,0,1,2.05.26v1.22a6,6,0,0,0-1.77-.23c-1.83,0-2.75.85-2.75,2.55s1,2.57,3.09,2.57H814l.13,1.15h-1.72a3.28,3.28,0,0,0-2.31.75,2.8,2.8,0,0,0-.81,2.16q0,2.91,4.47,2.91a5.09,5.09,0,0,0,3.27-.88,3.32,3.32,0,0,0,1.08-2.73v-9.47h1.43v8.63a6.14,6.14,0,0,1-1.3,4.27c-.87.93-2.35,1.4-4.45,1.4A7.66,7.66,0,0,1,809.44,591.94Z"/><path class="cls-1" d="M824.6,591.73a5.34,5.34,0,0,1-1.16-3.73v-9.31h1.43v9.39a3.92,3.92,0,0,0,.86,2.79,3.65,3.65,0,0,0,2.75.9,6.56,6.56,0,0,0,4.84-2.18v-10.9h1.43v14H833.5l-.13-1.84a8.07,8.07,0,0,1-2.36,1.56,7.78,7.78,0,0,1-3,.54A4.41,4.41,0,0,1,824.6,591.73Z"/><path class="cls-1" d="M840.47,592.72a14.8,14.8,0,0,1-2.37-.66v-6.92h4.74l.08,1.22h-3.38v4.79a11.08,11.08,0,0,0,3.63.62,6.07,6.07,0,0,0,2.92-.6,3.49,3.49,0,0,0,1.58-1.91,12.77,12.77,0,0,0,0-7.11,3.39,3.39,0,0,0-1.68-1.88,7.29,7.29,0,0,0-3.22-.59,14.13,14.13,0,0,0-4.45.65v-1.22a15.09,15.09,0,0,1,4.84-.68q3.44,0,4.93,1.77t1.49,5.54a8.45,8.45,0,0,1-1.49,5.46q-1.5,1.78-4.83,1.79A14.17,14.17,0,0,1,840.47,592.72Z"/><path class="cls-1" d="M853.32,586.41a3,3,0,0,1,.54-1.78,3,3,0,0,1,1.61-1l-3.06-.68v-2.08a8.13,8.13,0,0,1,2.66-1.71,9.5,9.5,0,0,1,3.68-.68,6.49,6.49,0,0,1,4.43,1.29,4.89,4.89,0,0,1,1.45,3.83v9.18H863.2v-9.25a3.62,3.62,0,0,0-1.06-2.93,5.3,5.3,0,0,0-3.39-.87,8.82,8.82,0,0,0-3,.48,5.09,5.09,0,0,0-2.09,1.26v.73l3.12.68v1.24a2.9,2.9,0,0,0-1.56.81,2.29,2.29,0,0,0-.52,1.61v6.24h-1.43Z"/><path class="cls-1" d="M869.08,592.1a2.48,2.48,0,0,1-.58-1.73V578.69h1.43v11.42a1.51,1.51,0,0,0,.34,1.08,1.34,1.34,0,0,0,1,.35h1.14v1.19h-1.68A2.15,2.15,0,0,1,869.08,592.1Zm5.59,0a2.48,2.48,0,0,1-.58-1.73V578.69h1.43v10.84a3.22,3.22,0,0,0,.27,1.55,1.16,1.16,0,0,0,1.08.46H878v1.19h-1.69A2.15,2.15,0,0,1,874.67,592.1Z"/><path class="cls-1" d="M882.08,592a3.7,3.7,0,0,1-1.23-3,3.8,3.8,0,0,1,1.3-3.08,6,6,0,0,1,4-1.11h4.94v-1.38a5,5,0,0,0-.39-2.17,2.38,2.38,0,0,0-1.32-1.16,7.3,7.3,0,0,0-2.58-.36,14,14,0,0,0-4.42.65v-1.22a15,15,0,0,1,4.73-.68,5.89,5.89,0,0,1,4.13,1.2,5,5,0,0,1,1.28,3.79v9.31h-1.43V586h-4.84a5.1,5.1,0,0,0-3,.72,2.6,2.6,0,0,0-1,2.25,2.56,2.56,0,0,0,.87,2.15,4.38,4.38,0,0,0,2.69.68,6.71,6.71,0,0,0,1.77-.21v1.22a9.75,9.75,0,0,1-2.16.21A5.12,5.12,0,0,1,882.08,592Z"/><path class="cls-1" d="M887.12,573.6h-2.06v-1.1h3.2V575H894l-.07,1.12h-6.81Z"/><path class="cls-1" d="M895.85,592.32v-1.23a8.74,8.74,0,0,0,3.3.68,6.38,6.38,0,0,0,3.15-.64,3.43,3.43,0,0,0,1.56-1.93,11.32,11.32,0,0,0,.44-3.49,7.08,7.08,0,0,0-1.21-4.59c-.8-1-2.15-1.44-4-1.44a8,8,0,0,0-3.2.68v-1.25a7.22,7.22,0,0,1,1.55-.51,9.46,9.46,0,0,1,1.91-.17,6.09,6.09,0,0,1,4.85,1.82,8.18,8.18,0,0,1,1.57,5.46,8.75,8.75,0,0,1-1.42,5.46c-.94,1.22-2.55,1.82-4.82,1.82A8.9,8.9,0,0,1,895.85,592.32Z"/><path class="cls-1" d="M909.67,592.1a2.49,2.49,0,0,1-.59-1.73V578.69h1.43v11.42a1.55,1.55,0,0,0,.34,1.08,1.39,1.39,0,0,0,1,.35H913v1.19h-1.69A2.14,2.14,0,0,1,909.67,592.1Zm5.59,0a2.49,2.49,0,0,1-.59-1.73V578.69h1.43v10.84a3.2,3.2,0,0,0,.28,1.55,1.16,1.16,0,0,0,1.08.46h1.14v1.19h-1.69A2.14,2.14,0,0,1,915.26,592.1Z"/><path class="cls-1" d="M922.67,592a3.7,3.7,0,0,1-1.24-3,3.83,3.83,0,0,1,1.3-3.08,6,6,0,0,1,4-1.11h4.94v-1.38a5,5,0,0,0-.39-2.17A2.39,2.39,0,0,0,930,580a7.4,7.4,0,0,0-2.59-.36,14.07,14.07,0,0,0-4.42.65v-1.22a15,15,0,0,1,4.73-.68,5.92,5.92,0,0,1,4.14,1.2,5,5,0,0,1,1.27,3.79v9.31h-1.43V586h-4.83a5.15,5.15,0,0,0-3.05.72,2.6,2.6,0,0,0-1,2.25,2.56,2.56,0,0,0,.87,2.15,4.39,4.39,0,0,0,2.7.68,6.58,6.58,0,0,0,1.76-.21v1.22A9.63,9.63,0,0,1,926,593,5.09,5.09,0,0,1,922.67,592Z"/><path class="cls-1" d="M936.44,581.21h1.27v1.28H942l-.05,1.17h-5.46Zm0,7.28h1.27v1.3H942l-.05,1.15h-5.46Z"/><path class="cls-1" d="M415,623.3a2.49,2.49,0,0,1-.59-1.73V609.89h1.43v11.42a1.51,1.51,0,0,0,.34,1.08,1.34,1.34,0,0,0,1,.35h1.28v1.19H416.6A2.14,2.14,0,0,1,415,623.3Z"/><path class="cls-1" d="M421,609.89h1.46l2.62,12.2,3.36-10.66v-1.54h1.06l3.51,12.2,2.6-12.2H437l-3.14,14h-1.56L429.16,613l-3.44,10.92h-1.56Z"/><path class="cls-1" d="M426,606.2h5.61v-2.26h1.17v2.26h1.77v-2.26h1.17v3.38h-9.8Z"/><path class="cls-1" d="M434.36,598.69h1.24v3.59h-1.24Z"/><path class="cls-1" d="M442,623.92a14.37,14.37,0,0,1-2.36-.66v-6.92h4.73l.08,1.22H441v4.79a11.14,11.14,0,0,0,3.64.62,6.06,6.06,0,0,0,2.91-.6,3.46,3.46,0,0,0,1.59-1.91,10.47,10.47,0,0,0,.49-3.52,10.13,10.13,0,0,0-.51-3.59,3.37,3.37,0,0,0-1.67-1.88,7.33,7.33,0,0,0-3.23-.59,14.11,14.11,0,0,0-4.44.65v-1.22a15,15,0,0,1,4.83-.68q3.44,0,4.93,1.77c1,1.18,1.49,3,1.49,5.54s-.49,4.26-1.49,5.46-2.61,1.79-4.82,1.79A14.27,14.27,0,0,1,442,623.92Z"/><path class="cls-1" d="M454.67,623.3a2.48,2.48,0,0,1-.58-1.73v-6.76a4.55,4.55,0,0,1,.31-1.77,4.8,4.8,0,0,1,.74-1.25c.29-.33.67-.71,1.13-1.14a8.08,8.08,0,0,0,1-1.06,1.54,1.54,0,0,0,.33-1,1.41,1.41,0,0,0-.5-1.25,2.92,2.92,0,0,0-1.58-.34,5.88,5.88,0,0,0-2.94.81v-1.17a6,6,0,0,1,1.57-.64,6.78,6.78,0,0,1,1.7-.22,3.49,3.49,0,0,1,2.4.7,2.6,2.6,0,0,1,.78,2,2.35,2.35,0,0,1-.39,1.37,7.87,7.87,0,0,1-1.2,1.28A8.59,8.59,0,0,0,456,612.8a3.59,3.59,0,0,0-.49,2v6.53a1.51,1.51,0,0,0,.34,1.08,1.34,1.34,0,0,0,1,.35h1.28v1.19h-1.82A2.15,2.15,0,0,1,454.67,623.3Z"/><path class="cls-1" d="M461.63,609.89h1.43v4.74h5.23a3.64,3.64,0,0,0,2.6-.76,3.15,3.15,0,0,0,.75-2.31v-1.67h1.43v1.67q0,3-2.34,3.66a2.62,2.62,0,0,1,1.73,1.28,5.56,5.56,0,0,1,.43,2.36v5.07h-1.43v-5a4.8,4.8,0,0,0-.3-1.9,1.73,1.73,0,0,0-1-1,5.83,5.83,0,0,0-2-.27h-5.1v8.08h-1.43Z"/><path class="cls-1" d="M467.56,604.8H465.5v-1.09h3.2v2.49h5.75l-.08,1.12h-6.81Z"/><path class="cls-1" d="M480.52,623.66a8.18,8.18,0,0,1-2.33-1.57l-.13,1.84h-1.25v-14h1.43v10.9A6.49,6.49,0,0,0,483,623a3.21,3.21,0,0,0,3.69-3.69v-9.39h1.43v9.31a5.25,5.25,0,0,1-1.19,3.73,4.55,4.55,0,0,1-3.46,1.26A7.51,7.51,0,0,1,480.52,623.66Z"/><path class="cls-1" d="M478.37,606.2h8.45v-2.26h1.28v3.38h-9.8Z"/><path class="cls-1" d="M492,612.31a2.48,2.48,0,0,1,.61-1.74,2.13,2.13,0,0,1,1.65-.68h2l.05,1.22h-1.48a1.4,1.4,0,0,0-1.07.36,1.56,1.56,0,0,0-.34,1.13V622l4.5-7.85h.86l4.5,7.85V609.89h1.4v14h-1.59l-4.73-8.29-4.76,8.29H492Z"/><path class="cls-1" d="M509.25,623.19a3.7,3.7,0,0,1-1.24-3.05,3.83,3.83,0,0,1,1.3-3.08,6,6,0,0,1,4-1.11h4.94v-1.38a5,5,0,0,0-.39-2.17,2.39,2.39,0,0,0-1.31-1.16,7.4,7.4,0,0,0-2.59-.36,14,14,0,0,0-4.42.65v-1.22a15,15,0,0,1,4.73-.68,5.92,5.92,0,0,1,4.14,1.2,5,5,0,0,1,1.27,3.8v9.3h-1.43v-6.76H513.4a5.15,5.15,0,0,0-3,.72,2.6,2.6,0,0,0-1,2.25,2.54,2.54,0,0,0,.87,2.15A4.31,4.31,0,0,0,513,623a6.61,6.61,0,0,0,1.77-.21V624a9.69,9.69,0,0,1-2.16.21A5.09,5.09,0,0,1,509.25,623.19Z"/><path class="cls-1" d="M524.25,623.19a3.7,3.7,0,0,1-1.23-3.05,3.8,3.8,0,0,1,1.3-3.08,6,6,0,0,1,4-1.11h4.94v-1.38a5,5,0,0,0-.39-2.17,2.36,2.36,0,0,0-1.31-1.16,7.36,7.36,0,0,0-2.59-.36,14.07,14.07,0,0,0-4.42.65v-1.22a15,15,0,0,1,4.74-.68,9.33,9.33,0,0,1,2.34.26h4.23l-.07,1.22h-2.11a5.23,5.23,0,0,1,1,3.52v9.3h-1.43v-6.76H528.4a5.1,5.1,0,0,0-3,.72,2.58,2.58,0,0,0-1,2.25,2.54,2.54,0,0,0,.87,2.15,4.35,4.35,0,0,0,2.7.68,6.58,6.58,0,0,0,1.76-.21V624a9.6,9.6,0,0,1-2.15.21A5.1,5.1,0,0,1,524.25,623.19Z"/><path class="cls-1" d="M542.89,623.66a8,8,0,0,1-2.32-1.57l-.13,1.84h-1.25v-14h1.43v10.9a6.47,6.47,0,0,0,4.76,2.18,3.22,3.22,0,0,0,3.69-3.69v-9.39h1.43v9.31a5.21,5.21,0,0,1-1.2,3.73,4.55,4.55,0,0,1-3.46,1.26A7.55,7.55,0,0,1,542.89,623.66Z"/><path class="cls-1" d="M555.87,622.84a5.14,5.14,0,0,1-1.5-4v-8.92h1.43V619q0,4,4.47,4t4.45-4v-9.1h1.43v8.92a5.16,5.16,0,0,1-1.5,4,6.26,6.26,0,0,1-4.38,1.36A6.35,6.35,0,0,1,555.87,622.84Z"/><path class="cls-1" d="M562,630a1.74,1.74,0,0,1-.64-1.38v-1.87H560l0-1h2.44v2.86a.85.85,0,0,0,.32.69,1.4,1.4,0,0,0,.88.24,1.59,1.59,0,0,0,.92-.24.79.79,0,0,0,.35-.69v-2.86h1.17v2.91a1.71,1.71,0,0,1-.67,1.38,2.75,2.75,0,0,1-1.77.54A2.53,2.53,0,0,1,562,630Z"/><path class="cls-1" d="M571.86,624a8.47,8.47,0,0,1-2-.48v-1.27a12.21,12.21,0,0,0,4.22.7,7.18,7.18,0,0,0,3.15-.53,2,2,0,0,0,1-2,2.23,2.23,0,0,0-.41-1.39,2.7,2.7,0,0,0-1.1-.83,18.9,18.9,0,0,0-1.92-.69,7.71,7.71,0,0,0-.78-.26,24.61,24.61,0,0,1-2.41-.91,4.41,4.41,0,0,1-1.53-1.19,3,3,0,0,1-.64-2c0-2.39,1.75-3.59,5.23-3.59a13.49,13.49,0,0,1,2.09.17,12.46,12.46,0,0,1,1.89.46v1.27a10.66,10.66,0,0,0-3.77-.65,6.88,6.88,0,0,0-3.08.51,1.85,1.85,0,0,0-1,1.8,1.93,1.93,0,0,0,.49,1.37,3.72,3.72,0,0,0,1.31.88,25.83,25.83,0,0,0,2.46.87,17.8,17.8,0,0,1,2.41.93,4.34,4.34,0,0,1,1.52,1.22,3.09,3.09,0,0,1,.6,2,3.15,3.15,0,0,1-1.42,2.9,7.62,7.62,0,0,1-4,.87A16.25,16.25,0,0,1,571.86,624Z"/><path class="cls-1" d="M594.09,622.93A5.49,5.49,0,0,1,593,619.2v-4.52a3.72,3.72,0,0,0-1-2.94,5,5,0,0,0-3.27-.86,8.14,8.14,0,0,0-2.84.48,5.42,5.42,0,0,0-2,1.26v.73L587,614v1.24a2.34,2.34,0,0,0-2.08,2.42v3.62a1.51,1.51,0,0,0,.34,1.08,1.34,1.34,0,0,0,1,.35h1.54v1.19h-2.08a2.15,2.15,0,0,1-1.66-.63,2.48,2.48,0,0,1-.58-1.73v-4a2.9,2.9,0,0,1,.55-1.78,3,3,0,0,1,1.61-1.05l-3.07-.68V612a8.21,8.21,0,0,1,2.61-1.71,9.06,9.06,0,0,1,3.6-.68,6.09,6.09,0,0,1,4.29,1.28,5,5,0,0,1,1.36,3.84v4.53a4.06,4.06,0,0,0,.81,2.79,3.39,3.39,0,0,0,2.62.9,6.37,6.37,0,0,0,4.63-2.18v-10.9h1.43v14H602.6l-.13-1.84a8.29,8.29,0,0,1-2.29,1.57,7,7,0,0,1-2.83.53A4.09,4.09,0,0,1,594.09,622.93Z"/><path class="cls-1" d="M598.68,604.15h7l0,1.09H600v2.08h-1.27Z"/><path class="cls-1" d="M608.75,623.14a3.52,3.52,0,0,1-1.52-3.08,3.71,3.71,0,0,1,.61-2.2,3.46,3.46,0,0,1,1.7-1.26,2.86,2.86,0,0,1-1.62-1.07,3.34,3.34,0,0,1-.61-2.1,3.62,3.62,0,0,1,1.08-2.84,4.09,4.09,0,0,1,2.82-1,7.94,7.94,0,0,1,2,.26v1.22a6,6,0,0,0-1.77-.23c-1.83,0-2.75.85-2.75,2.55s1,2.57,3.09,2.57h1.51l.13,1.15h-1.72a3.28,3.28,0,0,0-2.31.75,2.8,2.8,0,0,0-.81,2.16q0,2.91,4.48,2.91a5.07,5.07,0,0,0,3.26-.88,3.32,3.32,0,0,0,1.08-2.73v-9.47h1.43v8.63a6.14,6.14,0,0,1-1.3,4.27c-.87.93-2.35,1.4-4.45,1.4A7.66,7.66,0,0,1,608.75,623.14Z"/><path class="cls-1" d="M609.13,606.2h9.72v1.12h-9.8Z"/><path class="cls-1" d="M617.53,600.84h1.24v3.59h-1.24Z"/><path class="cls-1" d="M626.18,624l-3.95-9.62h1.41L627.2,623a5.32,5.32,0,0,0,.65,0c3.1,0,4.65-2.2,4.65-6.58a10.93,10.93,0,0,0-.36-3.15,2.86,2.86,0,0,0-1.22-1.65,4.73,4.73,0,0,0-2.4-.51h-.83v-1.22h.94c1.92,0,3.28.52,4.08,1.55s1.2,2.68,1.2,4.95c0,2.65-.53,4.62-1.58,5.89a5.12,5.12,0,0,1-4.17,1.91A6.16,6.16,0,0,1,626.18,624Z"/><path class="cls-1" d="M638.39,622.94A4.62,4.62,0,0,1,637,619.3v-2.39a2.89,2.89,0,0,1,.39-1.41,14,14,0,0,1,1.09-1.66c.37-.5.63-.9.81-1.19a1.66,1.66,0,0,0,.26-.81.85.85,0,0,0-.17-.62,1,1,0,0,0-.69-.16h-2l.13-1.17h2.5a1.58,1.58,0,0,1,1.2.43,1.7,1.7,0,0,1,.41,1.21,2.67,2.67,0,0,1-.33,1.27,11.32,11.32,0,0,1-.95,1.49,14.45,14.45,0,0,0-1,1.5,2.66,2.66,0,0,0-.31,1.25v2.5a3.14,3.14,0,0,0,1,2.6,4.56,4.56,0,0,0,2.91.83,4.63,4.63,0,0,0,2.94-.84,3.16,3.16,0,0,0,1.07-2.62v-9.62h1.43v9.41a4.6,4.6,0,0,1-1.42,3.64,5.87,5.87,0,0,1-4,1.25A5.75,5.75,0,0,1,638.39,622.94Z"/><path class="cls-1" d="M638.07,606.2h6.29a1.28,1.28,0,0,1-.29-.86,1.85,1.85,0,0,1,.56-1.41,2,2,0,0,1,1.44-.54,1.93,1.93,0,0,1,1.47.56,1.89,1.89,0,0,1,.54,1.37,1.92,1.92,0,0,1-.59,1.43,2.05,2.05,0,0,1-1.49.57h-8Zm8.8-.1a1.06,1.06,0,0,0,.3-.76,1.09,1.09,0,0,0-.3-.8,1.14,1.14,0,0,0-1.58,0,1.09,1.09,0,0,0-.31.8,1.07,1.07,0,0,0,.31.76,1.16,1.16,0,0,0,1.58,0Z"/><path class="cls-1" d="M644.75,600.2h-1.59v-1h2.68v2.05h4l-.05,1.07h-5Z"/><path class="cls-1" d="M652.85,622.93a5.34,5.34,0,0,1-1.16-3.73v-9.31h1.43v9.39a3.92,3.92,0,0,0,.86,2.79,3.65,3.65,0,0,0,2.75.9,6.56,6.56,0,0,0,4.84-2.18v-10.9H663v14h-1.25l-.13-1.84a8.07,8.07,0,0,1-2.36,1.56,7.78,7.78,0,0,1-3,.54A4.41,4.41,0,0,1,652.85,622.93Z"/><path class="cls-1" d="M670.25,624l-2.34-6.24h-1.56l.08-1.22h2.42l2.42,6.47a4.54,4.54,0,0,0,.6,0,4.35,4.35,0,0,0,2.3-.65,4.63,4.63,0,0,0,1.7-2.07,8.59,8.59,0,0,0,.65-3.55,9,9,0,0,0-.53-3.39,3.57,3.57,0,0,0-1.75-1.86,7.45,7.45,0,0,0-3.28-.6,13.81,13.81,0,0,0-4.4.65v-1.22a15.51,15.51,0,0,1,4.79-.68q3.4,0,5,1.8a7.8,7.8,0,0,1,1.58,5.3,9.49,9.49,0,0,1-.79,4.08,5.75,5.75,0,0,1-2.17,2.54,5.83,5.83,0,0,1-3.09.84A4.72,4.72,0,0,1,670.25,624Z"/><path class="cls-1" d="M667.65,606.2H674a1.23,1.23,0,0,1-.29-.86,1.85,1.85,0,0,1,.56-1.41,2,2,0,0,1,1.44-.54,1.93,1.93,0,0,1,1.47.56,1.89,1.89,0,0,1,.53,1.37,1.91,1.91,0,0,1-.58,1.43,2.06,2.06,0,0,1-1.5.57h-8Zm8.8-.1a1.06,1.06,0,0,0,.3-.76,1.09,1.09,0,0,0-.3-.8,1,1,0,0,0-.79-.32,1.08,1.08,0,0,0-1.09,1.12,1,1,0,0,0,.31.76,1.1,1.1,0,0,0,.78.31A1.05,1.05,0,0,0,676.45,606.1Z"/><path class="cls-1" d="M684.71,624l-4-9.62h1.4l3.56,8.63a5.55,5.55,0,0,0,.65,0c3.11,0,4.66-2.2,4.66-6.58a10.54,10.54,0,0,0-.37-3.15,2.82,2.82,0,0,0-1.22-1.65,4.69,4.69,0,0,0-2.39-.51h-.83v-1.22h.93c1.93,0,3.29.52,4.09,1.55a8.19,8.19,0,0,1,1.19,4.95c0,2.65-.52,4.62-1.57,5.89a5.12,5.12,0,0,1-4.17,1.91A6.16,6.16,0,0,1,684.71,624Z"/><path class="cls-1" d="M695.79,614.63a4.74,4.74,0,0,1,1.41-3.75,6.52,6.52,0,0,1,4.38-1.25,6.44,6.44,0,0,1,4.35,1.25,4.77,4.77,0,0,1,1.4,3.75v9.3H705.9v-9.51a3.2,3.2,0,0,0-1.08-2.69,5.16,5.16,0,0,0-3.24-.85,5.26,5.26,0,0,0-3.29.85,3.23,3.23,0,0,0-1.07,2.69V618a5.12,5.12,0,0,1,3.3-1.17h1.74l.08,1.2h-1.85a5.1,5.1,0,0,0-1.73.28,5.39,5.39,0,0,0-1.54.89v4.7h-1.43Z"/><path class="cls-1" d="M710.68,623.52v-1.23A8.56,8.56,0,0,0,714,623a6.32,6.32,0,0,0,3.14-.64,3.35,3.35,0,0,0,1.56-1.93,11,11,0,0,0,.44-3.49,7.1,7.1,0,0,0-1.21-4.59c-.8-1-2.15-1.44-4-1.44a8,8,0,0,0-3.2.68v-1.25a8,8,0,0,1,1.55-.51,9.53,9.53,0,0,1,1.91-.17,6.08,6.08,0,0,1,4.85,1.82,8.18,8.18,0,0,1,1.57,5.46,8.82,8.82,0,0,1-1.41,5.46c-.95,1.22-2.56,1.82-4.83,1.82A8.9,8.9,0,0,1,710.68,623.52Z"/><path class="cls-1" d="M725.75,624a8.38,8.38,0,0,1-2-.48v-1.27a12.12,12.12,0,0,0,4.21.7,7.26,7.26,0,0,0,3.16-.53,2,2,0,0,0,1-2,2.17,2.17,0,0,0-.42-1.39,2.67,2.67,0,0,0-1.09-.83,18.36,18.36,0,0,0-1.93-.69,7.71,7.71,0,0,0-.78-.26,25.3,25.3,0,0,1-2.4-.91,4.35,4.35,0,0,1-1.54-1.19,3,3,0,0,1-.63-2q0-3.59,5.22-3.59a13.62,13.62,0,0,1,2.1.17,12,12,0,0,1,1.88.46v1.27a10.62,10.62,0,0,0-3.77-.65,6.88,6.88,0,0,0-3.08.51,1.87,1.87,0,0,0-1,1.8,1.94,1.94,0,0,0,.5,1.37,3.55,3.55,0,0,0,1.31.88,23.93,23.93,0,0,0,2.46.87,18.13,18.13,0,0,1,2.4.93,4.26,4.26,0,0,1,1.52,1.22,3.09,3.09,0,0,1,.6,2,3.13,3.13,0,0,1-1.42,2.9,7.55,7.55,0,0,1-4,.87A16.38,16.38,0,0,1,725.75,624Z"/><path class="cls-1" d="M736.94,609.89h1.25l.13,1.85a8.25,8.25,0,0,1,2.34-1.56,7.26,7.26,0,0,1,3-.55,4.48,4.48,0,0,1,3.43,1.28,5.28,5.28,0,0,1,1.19,3.72v9.3h-1.43v-9.38a3.81,3.81,0,0,0-.89-2.79,3.9,3.9,0,0,0-2.8-.88,6.49,6.49,0,0,0-4.76,2.18v10.87h-1.43Z"/><path class="cls-1" d="M738.5,606.2H747v-2.26h1.28v3.38h-9.8Z"/><path class="cls-1" d="M746.9,598.69h1.25v3.59H746.9Z"/><path class="cls-1" d="M755.51,624l-2.34-6.24h-1.56l.08-1.22h2.41l2.42,6.47a4.54,4.54,0,0,0,.6,0,4.32,4.32,0,0,0,2.3-.65,4.63,4.63,0,0,0,1.7-2.07,8.44,8.44,0,0,0,.65-3.55,8.79,8.79,0,0,0-.53-3.39,3.55,3.55,0,0,0-1.74-1.86,7.49,7.49,0,0,0-3.29-.6,13.74,13.74,0,0,0-4.39.65v-1.22a15.45,15.45,0,0,1,4.78-.68q3.4,0,5,1.8a7.75,7.75,0,0,1,1.59,5.3,9.48,9.48,0,0,1-.8,4.08,5.69,5.69,0,0,1-2.17,2.54,5.83,5.83,0,0,1-3.09.84A4.66,4.66,0,0,1,755.51,624Z"/><path class="cls-1" d="M766,612.42h1.28v1.27h4.23l0,1.17H766Zm0,7.27h1.28V621h4.23l0,1.15H766Z"/><path class="cls-1" d="M775.8,622.4a8.6,8.6,0,0,1-1.44-5.44,11.43,11.43,0,0,1,1-5.43,3.32,3.32,0,0,1,3.07-1.9,3.55,3.55,0,0,1,1.61.33,4.1,4.1,0,0,1,1.25,1,3.78,3.78,0,0,1,1.4-1,4.36,4.36,0,0,1,1.66-.34,2.83,2.83,0,0,1,2.16.8,3.37,3.37,0,0,1,.76,2.4v11.1h-1.43V613a2.47,2.47,0,0,0-.42-1.64,1.85,1.85,0,0,0-1.43-.47,2.69,2.69,0,0,0-1.29.33,2.33,2.33,0,0,0-1,1h-.91a3.59,3.59,0,0,0-1-1,2.44,2.44,0,0,0-3.46,1.29,12,12,0,0,0-.66,4.49,7.66,7.66,0,0,0,1.09,4.61,3.86,3.86,0,0,0,3.23,1.4,5.84,5.84,0,0,0,1.77-.21V624a8,8,0,0,1-2.06.21A4.85,4.85,0,0,1,775.8,622.4Z"/><path class="cls-1" d="M781.92,604.8h-2v-1.09h3.2v2.49h5.74l-.07,1.12h-6.82Z"/><path class="cls-1" d="M793,623.92a14.51,14.51,0,0,1-2.37-.66v-6.92h4.73l.08,1.22h-3.38v4.79a11.18,11.18,0,0,0,3.64.62,6.06,6.06,0,0,0,2.91-.6,3.46,3.46,0,0,0,1.59-1.91,12.89,12.89,0,0,0,0-7.11,3.34,3.34,0,0,0-1.67-1.88,7.33,7.33,0,0,0-3.23-.59,14.11,14.11,0,0,0-4.44.65v-1.22a15,15,0,0,1,4.83-.68q3.43,0,4.93,1.77t1.5,5.54q0,3.66-1.5,5.46c-1,1.19-2.6,1.79-4.82,1.79A14.09,14.09,0,0,1,793,623.92Z"/><path class="cls-1" d="M808.91,624,805,614.34h1.4l3.57,8.63a5.32,5.32,0,0,0,.65,0c3.1,0,4.65-2.2,4.65-6.58a10.93,10.93,0,0,0-.36-3.15,2.83,2.83,0,0,0-1.23-1.65,4.69,4.69,0,0,0-2.39-.51h-.83v-1.22h.94c1.92,0,3.28.52,4.08,1.55a8.19,8.19,0,0,1,1.19,4.95c0,2.65-.52,4.62-1.57,5.89a5.12,5.12,0,0,1-4.17,1.91A6.16,6.16,0,0,1,808.91,624Z"/><path class="cls-1" d="M820.91,622.4a8.6,8.6,0,0,1-1.44-5.44,7.89,7.89,0,0,1,1.69-5.4,6.46,6.46,0,0,1,5.15-1.93,6.18,6.18,0,0,1,4.6,1.55,5.4,5.4,0,0,1,1.51,3.91v8.84H831V615a4.06,4.06,0,0,0-1.14-3,4.88,4.88,0,0,0-3.57-1.13q-5.41,0-5.41,6.08a7.64,7.64,0,0,0,1.08,4.59,3.8,3.8,0,0,0,3.24,1.42,5.84,5.84,0,0,0,1.77-.21V624a8,8,0,0,1-2.06.21A4.85,4.85,0,0,1,820.91,622.4Z"/><path class="cls-1" d="M829.82,607.07a2.47,2.47,0,0,1,0-3.51,2.59,2.59,0,0,1,3.56,0,2.47,2.47,0,0,1,0,3.51,2.56,2.56,0,0,1-3.56,0Zm2.82-.73a1.4,1.4,0,0,0,.43-1,1.44,1.44,0,0,0-.43-1,1.47,1.47,0,0,0-2.51,1,1.36,1.36,0,0,0,.43,1,1.47,1.47,0,0,0,2.08,0Z"/><path class="cls-1" d="M842.27,614.65a6.6,6.6,0,0,0-.29-2.17,2.12,2.12,0,0,0-1.08-1.2,5.22,5.22,0,0,0-2.32-.4,11.11,11.11,0,0,0-1.82.17,8.43,8.43,0,0,0-1.77.48v-1.22a9.6,9.6,0,0,1,1.81-.5,11.72,11.72,0,0,1,2-.18,4.18,4.18,0,0,1,4.86,4.89v9.41h-1.43Z"/><path class="cls-1" d="M848.16,623.3a2.49,2.49,0,0,1-.59-1.73V609.89H849v11.42a1.55,1.55,0,0,0,.34,1.08,1.37,1.37,0,0,0,1,.35h1.27v1.19h-1.82A2.14,2.14,0,0,1,848.16,623.3Z"/><path class="cls-1" d="M856.14,622.93A5.34,5.34,0,0,1,855,619.2v-9.31h1.43v9.39a3.92,3.92,0,0,0,.86,2.79,3.66,3.66,0,0,0,2.76.9,6.54,6.54,0,0,0,4.83-2.18v-10.9h1.43v14h-1.24l-.13-1.84a8,8,0,0,1-2.37,1.56,7.74,7.74,0,0,1-3,.54A4.41,4.41,0,0,1,856.14,622.93Z"/><path class="cls-1" d="M856.54,606.2h9.73v1.12h-9.8Z"/><path class="cls-1" d="M871.32,622.93a5.34,5.34,0,0,1-1.15-3.73v-9.31h1.43v9.39a3.87,3.87,0,0,0,.86,2.79,3.65,3.65,0,0,0,2.75.9,6.58,6.58,0,0,0,4.84-2.18v-10.9h1.43v14h-1.25l-.13-1.84a8,8,0,0,1-2.37,1.56,7.71,7.71,0,0,1-3,.54A4.44,4.44,0,0,1,871.32,622.93Z"/><path class="cls-1" d="M885.74,617.61a2.9,2.9,0,0,1,.55-1.78,3,3,0,0,1,1.61-1.05l-3.07-.68V612a8.08,8.08,0,0,1,2.67-1.71,9.5,9.5,0,0,1,3.68-.68,6.49,6.49,0,0,1,4.43,1.29,4.88,4.88,0,0,1,1.44,3.83v9.18h-1.43v-9.25a3.62,3.62,0,0,0-1-2.93,5.3,5.3,0,0,0-3.39-.87,8.88,8.88,0,0,0-3,.48,5.16,5.16,0,0,0-2.09,1.26v.73l3.12.68v1.24a3,3,0,0,0-1.56.81,2.29,2.29,0,0,0-.52,1.61v6.24h-1.43Z"/><path class="cls-1" d="M906.91,614.65a6.6,6.6,0,0,0-.29-2.17,2.12,2.12,0,0,0-1.08-1.2,5.27,5.27,0,0,0-2.33-.4,11.21,11.21,0,0,0-1.82.17,8.33,8.33,0,0,0-1.76.48v-1.22a9.7,9.7,0,0,1,1.8-.5,11.89,11.89,0,0,1,2-.18,4.18,4.18,0,0,1,4.87,4.89v9.41h-1.43Z"/><path class="cls-1" d="M914,624a8.38,8.38,0,0,1-2-.48v-1.27a12.16,12.16,0,0,0,4.21.7,7.23,7.23,0,0,0,3.16-.53,2,2,0,0,0,1-2,2.17,2.17,0,0,0-.42-1.39,2.67,2.67,0,0,0-1.09-.83,18.9,18.9,0,0,0-1.92-.69c-.18-.07-.44-.16-.78-.26a24.61,24.61,0,0,1-2.41-.91,4.23,4.23,0,0,1-1.53-1.19,2.93,2.93,0,0,1-.64-2q0-3.59,5.23-3.59a13.49,13.49,0,0,1,2.09.17,12,12,0,0,1,1.88.46v1.27a10.62,10.62,0,0,0-3.77-.65,6.9,6.9,0,0,0-3.08.51,1.87,1.87,0,0,0-.95,1.8,1.94,1.94,0,0,0,.5,1.37,3.63,3.63,0,0,0,1.31.88,25.83,25.83,0,0,0,2.46.87,17.09,17.09,0,0,1,2.4.93,4.26,4.26,0,0,1,1.52,1.22,3.09,3.09,0,0,1,.6,2,3.13,3.13,0,0,1-1.42,2.9,7.55,7.55,0,0,1-4,.87A16.38,16.38,0,0,1,914,624Z"/><path class="cls-1" d="M415.28,653.6a8.6,8.6,0,0,1-1.44-5.44,11.55,11.55,0,0,1,1-5.43,3.31,3.31,0,0,1,3.07-1.9,3.52,3.52,0,0,1,1.61.33,4.1,4.1,0,0,1,1.25,1,4,4,0,0,1,1.4-1,4.23,4.23,0,0,1,1.67-.34,2.86,2.86,0,0,1,2.16.8,3.37,3.37,0,0,1,.75,2.4v11.1h-1.43V644.19a2.47,2.47,0,0,0-.42-1.64,1.83,1.83,0,0,0-1.43-.47,2.62,2.62,0,0,0-1.28.33,2.35,2.35,0,0,0-1,1h-.91a3.57,3.57,0,0,0-1-1,2.32,2.32,0,0,0-1.24-.3,2.28,2.28,0,0,0-2.22,1.59,12,12,0,0,0-.66,4.49,7.59,7.59,0,0,0,1.09,4.61,3.84,3.84,0,0,0,3.22,1.4,5.84,5.84,0,0,0,1.77-.21v1.22a8,8,0,0,1-2.05.21A4.88,4.88,0,0,1,415.28,653.6Z"/><path class="cls-1" d="M436.64,645.85a6.64,6.64,0,0,0-.28-2.17,2.12,2.12,0,0,0-1.08-1.2,5.3,5.3,0,0,0-2.33-.4,11.21,11.21,0,0,0-1.82.17,8.43,8.43,0,0,0-1.77.48v-1.22a9.81,9.81,0,0,1,1.81-.5,11.89,11.89,0,0,1,2-.18,4.17,4.17,0,0,1,4.86,4.89v9.41h-1.43Z"/><path class="cls-1" d="M445.65,654.86a8,8,0,0,1-2.32-1.57l-.13,1.84H442v-14h1.43V652a6.47,6.47,0,0,0,4.76,2.18,3.22,3.22,0,0,0,3.69-3.69v-9.39h1.43v9.31a5.21,5.21,0,0,1-1.2,3.73,4.55,4.55,0,0,1-3.46,1.26A7.55,7.55,0,0,1,445.65,654.86Z"/><path class="cls-1" d="M458.26,654.14a4.62,4.62,0,0,1-1.39-3.64v-2.39a2.89,2.89,0,0,1,.39-1.41,15.39,15.39,0,0,1,1.09-1.66,14.33,14.33,0,0,0,.81-1.19,1.66,1.66,0,0,0,.26-.81.85.85,0,0,0-.17-.62,1,1,0,0,0-.69-.16h-1.95l.13-1.17h2.5a1.58,1.58,0,0,1,1.21.43,1.75,1.75,0,0,1,.4,1.21,2.67,2.67,0,0,1-.33,1.27,12.23,12.23,0,0,1-.94,1.49,13.25,13.25,0,0,0-1,1.5,2.78,2.78,0,0,0-.31,1.25v2.5a3.14,3.14,0,0,0,1,2.6,4.58,4.58,0,0,0,2.91.83,4.63,4.63,0,0,0,2.94-.84,3.16,3.16,0,0,0,1.07-2.62v-9.62h1.43v9.41a4.6,4.6,0,0,1-1.42,3.64,5.83,5.83,0,0,1-4,1.25A5.75,5.75,0,0,1,458.26,654.14Z"/><path class="cls-1" d="M462.49,635.42h1.27v2H471l-.08,1.12h-8.45Z"/><path class="cls-1" d="M464.62,631.89H463v-1h2.68v2h4l-.05,1.07h-5Z"/><path class="cls-1" d="M472.72,654.13a5.34,5.34,0,0,1-1.16-3.73v-9.31H473v9.39a3.93,3.93,0,0,0,.86,2.79,3.66,3.66,0,0,0,2.76.9,6.54,6.54,0,0,0,4.83-2.18v-10.9h1.43v14h-1.25l-.13-1.84a8.07,8.07,0,0,1-2.36,1.56,7.78,7.78,0,0,1-3,.54A4.41,4.41,0,0,1,472.72,654.13Z"/><path class="cls-1" d="M486.75,641.09H488l.13,1.85a8.25,8.25,0,0,1,2.34-1.56,7.29,7.29,0,0,1,3-.55,4.48,4.48,0,0,1,3.43,1.28,5.21,5.21,0,0,1,1.2,3.71v9.31h-1.43v-9.38a3.77,3.77,0,0,0-.9-2.79,3.9,3.9,0,0,0-2.8-.88,6.47,6.47,0,0,0-4.75,2.18v10.87h-1.43Z"/><path class="cls-1" d="M488.31,637.4h8.45v-2.26H498v3.38h-9.8Z"/><path class="cls-1" d="M496.7,629.89H498v3.58H496.7Z"/><path class="cls-1" d="M502.64,654.39a3.7,3.7,0,0,1-1.23-3,3.83,3.83,0,0,1,1.3-3.09,6.08,6.08,0,0,1,4-1.1h4.94v-1.38a5,5,0,0,0-.39-2.17,2.38,2.38,0,0,0-1.32-1.16,7.3,7.3,0,0,0-2.58-.36,14,14,0,0,0-4.42.65v-1.22a15,15,0,0,1,4.73-.68,9.22,9.22,0,0,1,2.34.26h4.24l-.08,1.22H512a5.22,5.22,0,0,1,1,3.51v9.31h-1.43v-6.76h-4.84a5.1,5.1,0,0,0-3,.72,2.6,2.6,0,0,0-1,2.25,2.56,2.56,0,0,0,.87,2.15,4.38,4.38,0,0,0,2.69.68,6.66,6.66,0,0,0,1.77-.21v1.22a9.75,9.75,0,0,1-2.16.21A5.12,5.12,0,0,1,502.64,654.39Z"/><path class="cls-1" d="M519.43,655.12a14.8,14.8,0,0,1-2.37-.66v-6.92h4.73l.08,1.22h-3.38v4.79a11.18,11.18,0,0,0,3.64.62,6,6,0,0,0,2.91-.6,3.46,3.46,0,0,0,1.59-1.91,10.22,10.22,0,0,0,.49-3.52,10.39,10.39,0,0,0-.5-3.59,3.36,3.36,0,0,0-1.68-1.88,7.18,7.18,0,0,0-3.22-.59,14.13,14.13,0,0,0-4.45.65v-1.22a15.09,15.09,0,0,1,4.84-.68c2.28,0,3.93.59,4.92,1.77s1.5,3,1.5,5.54-.5,4.26-1.5,5.46-2.6,1.79-4.82,1.79A14.17,14.17,0,0,1,519.43,655.12Z"/><path class="cls-1" d="M535.31,655.16l-3.95-9.62h1.41l3.56,8.63a5.32,5.32,0,0,0,.65,0c3.1,0,4.65-2.2,4.65-6.58a10.88,10.88,0,0,0-.36-3.15,2.86,2.86,0,0,0-1.22-1.65,4.73,4.73,0,0,0-2.4-.51h-.83v-1.22h.94c1.92,0,3.28.52,4.08,1.55s1.2,2.68,1.2,5c0,2.65-.53,4.62-1.58,5.89a5.15,5.15,0,0,1-4.17,1.91A6.16,6.16,0,0,1,535.31,655.16Z"/><text class="cls-2" transform="translate(411.63 432.03)"></text></svg>