<svg id="Layer_1" data-name="Layer 1" xmlns="http://www.w3.org/2000/svg" viewBox="0 0 1924.78 642.64"><defs><style>.cls-1{fill:#478a71;}.cls-2{fill:#414841;}.cls-3{fill:#77a275;}.cls-4{fill:#6aa4a2;}</style></defs><title>5</title><path class="cls-1" d="M0,792.91s406.52,45.5,623.09,89.61c163.64,33.33,326.64,74.71,482.57,134.3,180.66,69,336.77,177.79,531,213.79,113.72,21.09,214,26.37,288.16,113.62C1262.57,1392.23,664,1435.55,0,1435.55Z" transform="translate(0 -792.91)"/><path class="cls-2" d="M1056.59,1152.5h11s-.92-39.28,7.3-47.5a40,40,0,0,0-11,19.18s-1.82-21.92-.91-26.49a44.12,44.12,0,0,0-4.57,25.58s-2.74-14.62-11.87-17.36C1046.55,1105.91,1057.51,1118.7,1056.59,1152.5Z" transform="translate(0 -792.91)"/><path class="cls-3" d="M995.15,992.41l14.62.92s-2.75-31.06,3.65-39.28c0,0-4.57,7.31-5.48,11.87,0,0-1.83-16.44,4.57-22.83,0,0-5.49,4.56-9.14,19.18,0,0-2.74-20.1-1.83-25.58,0,0-3.65,10-2.74,24.67,0,0-4.56-13.71-11-19.19,0,0,6.4,15.53,6.4,23.75,0,0-4.57-8.22-8.22-10,0,0,8.22,11.87,9.13,20.09A85.31,85.31,0,0,1,995.15,992.41Z" transform="translate(0 -792.91)"/><path class="cls-4" d="M389.34,1211.19h15.53s-.92-29.23,8.22-41.1c0,0-6.4,9.13-8.22,13.7,0,0,1.82-19.18,2.74-20.1,0,0-6.4,12.79-9.14,25.58,0,0-2.74-32-.91-35.63,0,0-6.4,16.45-3.66,31.06,0,0-6.39-21-12.78-24.66,0,0,8.22,16.44,8.22,25.57,0,0-7.31-12.78-10-11.87A65.57,65.57,0,0,1,389.34,1211.19Z" transform="translate(0 -792.91)"/></svg>