<svg id="Layer_1" data-name="Layer 1" xmlns="http://www.w3.org/2000/svg" xmlns:xlink="http://www.w3.org/1999/xlink" viewBox="0 0 1920 5614"><defs><style>.cls-1,.cls-18,.cls-58{fill:none;}.cls-2{fill:#64a2a1;}.cls-3{fill:#c7d17b;}.cls-4{fill:#406f72;}.cls-5{fill:#93c2b4;}.cls-6{fill:#66846a;}.cls-7{fill:#fff;}.cls-8{fill:#467f3a;}.cls-9{clip-path:url(#clip-path);}.cls-10{fill:#dfdbcf;}.cls-11{fill:#b1bf60;}.cls-12{fill:#df5145;}.cls-13{fill:#77a275;}.cls-14{fill:#687854;}.cls-15{fill:#e75045;}.cls-16{fill:#fbefd7;}.cls-17{fill:#2e4a3c;}.cls-18{stroke:#000;stroke-width:0.89px;}.cls-18,.cls-58{stroke-miterlimit:10;}.cls-19{fill:#89bf85;}.cls-20{fill:#26805c;}.cls-21{fill:#518e52;}.cls-22{fill:#6bad7f;}.cls-23{fill:#b8bb6e;}.cls-24{fill:#e1dc8a;}.cls-25{fill:#c5d081;}.cls-26{fill:#5a9054;}.cls-27{fill:#618257;}.cls-28{fill:#35674c;}.cls-29{fill:#ebe261;}.cls-30{fill:#d0cf75;}.cls-31{fill:#d5d784;}.cls-32{fill:#9ab870;}.cls-33{fill:#f8f0b1;}.cls-34{fill:#fffabb;}.cls-35{fill:#f6eb99;}.cls-36{fill:#e7db91;}.cls-37{fill:#658369;}.cls-38{fill:#f5e997;}.cls-39{fill:#b7ca79;}.cls-40{fill:#62906b;}.cls-41{fill:#ce1a19;}.cls-42{fill:#23689c;}.cls-43{fill:#faf2de;}.cls-44{fill:#6ca77d;}.cls-45{fill:#65ab45;}.cls-46{fill:#fdda0e;}.cls-47{fill:#c6742b;}.cls-48{fill:#185939;}.cls-49{fill:#f4b845;}.cls-50{fill:#488a71;}.cls-51{fill:#b5d486;}.cls-52{fill:#241b14;}.cls-53{fill:#f9c241;}.cls-54{fill:#f0644f;}.cls-55{fill:#b05226;}.cls-56{fill:#f3a95a;}.cls-57{fill:#403228;}.cls-58{stroke:#fffabb;stroke-width:0.77px;}.cls-59{fill:#4e4133;}.cls-60{fill:#bd3426;}.cls-61{fill:#d85b4d;}.cls-62{fill:#eaeee0;}.cls-63{fill:#c2bfa5;}.cls-64{fill:#a16d45;}.cls-65{fill:#ebc080;}</style><clipPath id="clip-path"><path class="cls-1" d="M345.74,798.66s7.53-.39,7.53,8.89-10.89,11.7-8.68,26.42-13.31,12.31-6.85,20.18,7.46,13.91-8.48,27-11.7,20.37-29.85,23.8S270,894.49,263.5,898.12s-28.24,5.85-32.27.81-14.32-10.09-20.17-12.11-14.93-19.15-19.57-18.15,1.21-5.65,5-14.52-12.71-12.11-5.85-22.6-.2-13.31,9.08-21.38,1-16.14,11.09-20.17,9.69-10.29,11.91-19.77,5.85-9.28,14.72-12.31,19.77-5.44,23.4-12.91,3.63-16.33,15.53-8.27,13.52,1,19.77-2,10.49-3.23,13.32,1.61,9.27-12.2,12.3-3.78,1.21,13.26,8.67,16.49,1.82,5.65,2.83,14.12,5,4.24,1.41,14.32S345.74,798.66,345.74,798.66Z"/></clipPath></defs><title>9</title><path class="cls-2" d="M441.22,667.07c-.79,17.47-4.32,35.78-15.76,49-.34.4-.66.76-1,1.14h0c-8.13,8.85-19.07,14.6-28.87,21.66l0,0a4.39,4.39,0,0,0-.5.34c-10.33,7.52-20,17.93-20.82,30.7.16.3-.54,1-1.49,1.8h0c-1.57,1.29-3.81,2.6-4.2,2.21a2.54,2.54,0,0,1-.28-2.38,1.27,1.27,0,0,1,0-.14c1.29-5.06,3.73-9.88,4-15.07.18-3.81-.85-7.58-1.46-11.37a26.64,26.64,0,0,1-.46-5.19c.12-7.18,4.28-13.81,9.66-18.57A44.35,44.35,0,0,1,384,718h0a122.46,122.46,0,0,1,14.25-8.09l3.27-1.71c17.57-9.4,35.36-21.93,39.7-41.15Z"/><path class="cls-3" d="M372.2,756.34c-.23,5.19-2.67,10-4,15.07a1.27,1.27,0,0,0,0,.14c-2.64-5.22-6.69-11.59-9.52-16.44s-7.42-9.11-12.89-9.8a145.4,145.4,0,0,0-32.94,18.12c-1.75,1.29-3.87,2.7-5.94,2s-2.89-3-2.65-5a13.88,13.88,0,0,1,2.52-5.53c5.33-8.15,11.26-16.78,20.36-20.23.34-.12.66-.24,1-.34,7.18-2.38,15-1.27,22.55-.12a52.66,52.66,0,0,1,9.26,2h0a20.19,20.19,0,0,1,4,1.81,14.37,14.37,0,0,1,2.76,2.08,27.36,27.36,0,0,1,4,4.86c.61,3.79,1.64,7.56,1.46,11.37Z"/><path class="cls-4" d="M401.52,708.22l-3.27,1.71A121,121,0,0,0,384,718h0a44.35,44.35,0,0,0-4.05,3.19c-5.38,4.76-9.54,11.38-9.66,18.56a26.68,26.68,0,0,0,.46,5.2,27.36,27.36,0,0,0-4-4.86c1.59-7.85-2.1-15.9-4.12-23.78-.3-1.15-.56-2.3-.76-3.47,0,0,0,0,0-.06a59.21,59.21,0,0,1,4.86-36.49A119.49,119.49,0,0,1,373,665.46q7.47-11.87,14.93-23.76a5.48,5.48,0,0,1,2.56-2.56c2.92-.95,4.84,3,5.35,6,3.38,20,7.24,42.8,5.68,63.05Z"/><path class="cls-5" d="M366.75,740.11A14.37,14.37,0,0,0,364,738a19.36,19.36,0,0,0-4-1.8h0a51.79,51.79,0,0,0-9.26-2c-7.52-1.15-15.37-2.26-22.55.12-10.24-3.11-20.69-6.41-29.1-13a44.27,44.27,0,0,1-16.46-37.15c.12-1.66.4-3.47,1.61-4.64a7.69,7.69,0,0,1,3.55-1.54c4.66-1.1,9.4-2.23,14.18-1.81,8.17.73,15.21,5.81,22.84,8.79,6.31,2.48,13.21,3.59,18.91,7.24a40.32,40.32,0,0,1,5.43,4.52c5.21,5,11.5,12.21,12.75,16.06,0,0,0,0,0,.06.2,1.17.46,2.32.75,3.47,2,7.87,5.72,15.93,4.13,23.78Z"/><path class="cls-6" d="M468,760.1c-11,7.32-25.25,7.92-38.3,5.79-5-.83-10.13-2.08-14.24-5.07-2.6-1.89-4.7-4.41-7.36-6.19-5.39-3.63-12.08-3.77-18.68-2.74-5.65,3.67-12.61,13.47-11.29,19,0,0-1.78,3.14-5.43.81.95-.77,1.65-1.5,1.49-1.8.79-12.77,10.49-23.18,20.82-30.7a4.39,4.39,0,0,1,.5-.34l0,0c9.79-7.06,20.74-12.81,28.87-21.65l0,0c6.47-1.08,13.13,1.38,19.3,3.82,3.08,1.21,6.23,2.48,8.61,4.76a24.33,24.33,0,0,1,4.58,7A204.28,204.28,0,0,1,468,760.1Z"/><path class="cls-7" d="M359.55,737.46a7.62,7.62,0,0,0-2.44-4.74,19.77,19.77,0,0,0-4.45-3.09c-3.24-1.71-6.57-3.42-9.81-5.22-6.51-3.57-12.89-7.39-19.16-11.36a311.81,311.81,0,0,1-35.86-26.39c12.48,8.05,24.75,16.28,37.26,24.19,6.22,4,12.5,7.9,18.78,11.81,3.15,2,6.29,3.86,9.45,5.88a20.84,20.84,0,0,1,4.3,3.71,7.44,7.44,0,0,1,1.93,5.21Z"/><path class="cls-7" d="M311.78,703.87a28.89,28.89,0,0,1-1-5.36,46,46,0,0,1-.29-5.36,48.29,48.29,0,0,1,.28-5.37,28.92,28.92,0,0,1,1-5.36,28.92,28.92,0,0,1,1,5.36,48.29,48.29,0,0,1,.28,5.37,46,46,0,0,1-.29,5.36,28.89,28.89,0,0,1-1,5.36Z"/><path class="cls-7" d="M327.64,714.72c.19-1.9.48-3.69.74-5.47l.69-5.3.57-5.32c.17-1.79.32-3.6.59-5.48a17.87,17.87,0,0,1,1.45,5.46,24.36,24.36,0,0,1-1.34,11.14,17.79,17.79,0,0,1-2.7,5Z"/><path class="cls-7" d="M339.29,721.61a65.62,65.62,0,0,0,3.6-6,44.74,44.74,0,0,0,4.26-12.9,64.36,64.36,0,0,0,.72-7,18.48,18.48,0,0,1,1.31,7.15,23.68,23.68,0,0,1-4.57,13.8,18.48,18.48,0,0,1-5.32,5Z"/><path class="cls-7" d="M312.36,703.31a25.75,25.75,0,0,1-4.57,1.06c-1.52.26-3,.41-4.55.52s-3,.15-4.57.11a26,26,0,0,1-4.67-.44,18.59,18.59,0,0,1,4.46-1.59,29.19,29.19,0,0,1,9.26-.62,18.44,18.44,0,0,1,4.64,1Z"/><path class="cls-7" d="M327.64,714a13.81,13.81,0,0,1-4.21,4,18.35,18.35,0,0,1-11.29,2.82,13.86,13.86,0,0,1-5.61-1.57c2-.12,3.77-.24,5.57-.46a44.59,44.59,0,0,0,10.41-2.59c1.69-.65,3.36-1.41,5.13-2.22Z"/><path class="cls-7" d="M339.69,721.61a20.46,20.46,0,0,1-4.13,2,34.86,34.86,0,0,1-8.7,2,20.65,20.65,0,0,1-4.58,0,20.23,20.23,0,0,1,4.13-2,34.41,34.41,0,0,1,4.29-1.25,32.53,32.53,0,0,1,4.42-.69,20.55,20.55,0,0,1,4.57,0Z"/><path class="cls-7" d="M454.05,755.86A166.05,166.05,0,0,0,441,745.55c-2.28-1.57-4.55-3.11-6.94-4.53a59.59,59.59,0,0,0-7.17-3.91,27.85,27.85,0,0,0-15.69-1.91,96.76,96.76,0,0,0-16.07,4.12,58.34,58.34,0,0,1,15.72-6.13,30.35,30.35,0,0,1,8.63-.62,26.64,26.64,0,0,1,8.46,2.16,73.37,73.37,0,0,1,14.28,9.2,76.58,76.58,0,0,1,11.88,11.93Z"/><path class="cls-7" d="M421.37,734.68a28.3,28.3,0,0,1,3.77-3.88,45.56,45.56,0,0,1,4.19-3.29,47.43,47.43,0,0,1,4.52-2.81,28.25,28.25,0,0,1,4.94-2.21,28.3,28.3,0,0,1-3.77,3.88,49.89,49.89,0,0,1-8.72,6.09,28.94,28.94,0,0,1-4.93,2.22Z"/><path class="cls-7" d="M433.72,739.75a20.8,20.8,0,0,1,5.2-3.42,27.37,27.37,0,0,1,5.89-2,27,27,0,0,1,6.2-.69,20.86,20.86,0,0,1,6.17.86c-2.05.46-4,.8-6,1.16s-3.88.77-5.8,1.21-3.84.91-5.77,1.39-3.86,1-5.9,1.52Z"/><path class="cls-7" d="M409.66,734.43a41.51,41.51,0,0,0,1.62,5.34l1.92,5.15,2,5.13a43.2,43.2,0,0,0,2.33,5.07A12,12,0,0,1,413.4,751a26.7,26.7,0,0,1-4.09-10.75,12.1,12.1,0,0,1,.35-5.82Z"/><path class="cls-7" d="M432.57,738.29a18.46,18.46,0,0,0,1,4.11c.47,1.29,1,2.56,1.52,3.82s1.12,2.52,1.7,3.79,1.2,2.51,2,3.86a8.91,8.91,0,0,1-3.67-2.74,14.93,14.93,0,0,1-2.39-3.88,13.8,13.8,0,0,1-1.11-4.45,7,7,0,0,1,.95-4.51Z"/><path class="cls-7" d="M383.54,718.48c.49-5.37.93-10.74,1.54-16.06.27-2.67.64-5.32,1-8l.55-4,.43-4c.6-5.32,1.12-10.64,1.59-16s.88-10.67.83-16a78.61,78.61,0,0,1,1.2,16.14c-.06,5.4-.47,10.79-1,16.15s-1.6,10.66-2.54,16c-.48,2.65-1,5.29-1.56,7.93s-1.24,5.24-2,7.84Z"/><path class="cls-7" d="M384.68,712.06a12.31,12.31,0,0,1-3.29-1,18,18,0,0,1-2.87-1.63,18.92,18.92,0,0,1-2.55-2.11,12.11,12.11,0,0,1-2.13-2.71,11.84,11.84,0,0,1,3.29,1,19,19,0,0,1,5.41,3.75,11.86,11.86,0,0,1,2.14,2.71Z"/><path class="cls-7" d="M388.9,684.57a11.71,11.71,0,0,1-2.89-1.88,17.76,17.76,0,0,1-2.33-2.34,17.26,17.26,0,0,1-1.89-2.71,11.8,11.8,0,0,1-1.34-3.18,12.07,12.07,0,0,1,2.9,1.88,18.82,18.82,0,0,1,4.22,5.06,12,12,0,0,1,1.33,3.17Z"/><path class="cls-7" d="M386.7,701.58a20,20,0,0,1-4.13-2.52,29.84,29.84,0,0,1-3.55-3.18,25.4,25.4,0,0,1-3-3.77,10.69,10.69,0,0,1-1.83-4.56c1.14,1.2,2.29,2.18,3.4,3.26s2.24,2.14,3.31,3.27,2.1,2.29,3.08,3.53a26.92,26.92,0,0,1,2.71,4Z"/><path class="cls-8" d="M345.74,798.66s7.53-.39,7.53,8.89-10.89,11.7-8.68,26.42-13.31,12.31-6.85,20.18,7.46,13.91-8.48,27-11.7,20.37-29.85,23.8S270,894.49,263.5,898.12s-28.24,5.85-32.27.81-14.32-10.09-20.17-12.11-14.93-19.15-19.57-18.15,1.21-5.65,5-14.52-12.71-12.11-5.85-22.6-.2-13.31,9.08-21.38,1-16.14,11.09-20.17,9.69-10.29,11.91-19.77,5.85-9.28,14.72-12.31,19.77-5.44,23.4-12.91,3.63-16.33,15.53-8.27,13.52,1,19.77-2,10.49-3.23,13.32,1.61,9.27-12.2,12.3-3.78,1.21,13.26,8.67,16.49,1.82,5.65,2.83,14.12,5,4.24,1.41,14.32S345.74,798.66,345.74,798.66Z"/><g class="cls-9"><path class="cls-10" d="M333.74,797.41a16.25,16.25,0,0,0-.52,5.86l.07,6a62.13,62.13,0,0,0,1.09,11.63,44.23,44.23,0,0,0,4,10.88c1.75,3.55,3.49,7.16,5,10.88-2.36-3.25-4.53-6.58-6.61-10a47.3,47.3,0,0,1-2.82-5.38,31.78,31.78,0,0,1-1.87-5.89,44.39,44.39,0,0,1-.61-12.15c.13-2,.37-4,.62-6S332.57,799.09,333.74,797.41Z"/><path class="cls-10" d="M320,797.15a10.08,10.08,0,0,0-2.42,6.46,25.16,25.16,0,0,0,.84,6.95c1.11,4.59,2.59,9.1,4,13.66a103.46,103.46,0,0,1,3.47,14,45.14,45.14,0,0,1,0,14.58,69.47,69.47,0,0,1-4.13,13.89c-1.81,4.45-3.82,8.78-5.83,13.09q-6,13-12.42,25.73,5.16-13.34,10.72-26.48c1.82-4.41,3.79-8.74,5.44-13.16a69.13,69.13,0,0,0,3.89-13.46,43.83,43.83,0,0,0,.09-13.86,117.76,117.76,0,0,0-3-13.8c-1.24-4.59-2.48-9.22-3.34-13.94a25.41,25.41,0,0,1-.33-7.23,12.14,12.14,0,0,1,.93-3.51A8.47,8.47,0,0,1,320,797.15Z"/><path class="cls-10" d="M304.28,799.52a137.21,137.21,0,0,0-.71,14,90.88,90.88,0,0,0,1.25,13.88c.74,4.6,1.56,9.36,1.18,14.22a48.23,48.23,0,0,1-3.35,14,97.9,97.9,0,0,1-6.34,12.72l-7.2,12.07a92.37,92.37,0,0,0-6.19,12.49c-1.75,4.32-3,8.84-4.34,13.34a106.93,106.93,0,0,1,3.25-13.73,79.29,79.29,0,0,1,5.66-13c4.4-8.34,9.61-16.16,13-24.77a46.94,46.94,0,0,0,3.32-13.26c.48-4.52-.24-9.11-.78-13.78a78.87,78.87,0,0,1-.57-14.16A105.66,105.66,0,0,1,304.28,799.52Z"/><path class="cls-10" d="M320.67,796.64a16.51,16.51,0,0,0-.54-16.63,69.3,69.3,0,0,0-5.52-6.91,26.74,26.74,0,0,1-4.83-8,40.13,40.13,0,0,1-2-9c-.32-3-.55-6-.6-9.06a164.37,164.37,0,0,1,.67-18c.46,6,.69,12,1.18,18,.27,3,.54,5.94,1,8.86a39.15,39.15,0,0,0,2,8.48,25,25,0,0,0,4.35,7.4,56.9,56.9,0,0,1,5.37,7.39,16.21,16.21,0,0,1,2.08,9.06A15.69,15.69,0,0,1,320.67,796.64Z"/><path class="cls-10" d="M304.6,797.13a47.05,47.05,0,0,0,.78-10.07,12.52,12.52,0,0,0-3.56-8.65c-2.3-2.1-5.55-3.26-8.61-4.73L284,769.33c-3-1.51-6.14-2.87-9.17-4.63a28.83,28.83,0,0,1-7.93-6.85c-2.22-2.67-4.08-5.53-6-8.33s-3.79-5.65-5.61-8.53c2.24,2.57,4.39,5.21,6.54,7.84s4.21,5.35,6.46,7.8a37.08,37.08,0,0,0,3.58,3.41,26.33,26.33,0,0,0,4.08,2.72c2.88,1.59,6,3,9.08,4.44l9.16,4.46c1.52.77,3,1.49,4.58,2.31a17.05,17.05,0,0,1,4.37,3.13,12.14,12.14,0,0,1,2.75,4.69,16.58,16.58,0,0,1,.67,5.25A37.65,37.65,0,0,1,304.6,797.13Z"/><path class="cls-10" d="M237.14,750.41a24.71,24.71,0,0,0,4.7,7.92c2,2.38,4,4.73,6,7.13,4,4.77,7.92,9.63,11.81,14.51l5.75,7.35q2.85,3.69,5.93,7.11a66,66,0,0,0,6.76,6.27c2.39,2,4.87,3.86,7.41,5.68a67.92,67.92,0,0,1-8.11-4.75,53.34,53.34,0,0,1-7.39-5.91c-4.54-4.43-8.31-9.45-12.21-14.28s-7.68-9.83-11.39-14.83c-1.86-2.51-3.73-5-5.51-7.59A21.78,21.78,0,0,1,237.14,750.41Z"/><path class="cls-10" d="M286,806.38a3.89,3.89,0,0,1,.84,1.41,5.85,5.85,0,0,1,.2,1.66,29.29,29.29,0,0,0,.16,3.24l.52,6.52q.47,6.52.85,13c.13,2.18.27,4.33.36,6.54a18.66,18.66,0,0,1-.75,6.85,21.26,21.26,0,0,1-3.54,5.88c-.68.86-1.31,1.72-2,2.59s-1.28,1.73-1.88,2.63a108.36,108.36,0,0,0-12.1,22.78,117.64,117.64,0,0,0-6.61,25.1A90.25,90.25,0,0,1,267,878.89a93,93,0,0,1,5.12-12.15,99.82,99.82,0,0,1,6.77-11.34c.62-.91,1.26-1.81,1.94-2.68s1.32-1.77,2-2.61a20,20,0,0,0,3.26-5.21,16.61,16.61,0,0,0,.79-6l-.13-6.52q-.13-6.54-.16-13.07v-6.54a27.88,27.88,0,0,1,.1-3.29,5.64,5.64,0,0,0,0-1.59A3.73,3.73,0,0,0,286,806.38Z"/><path class="cls-10" d="M213.32,762.74c5.43,4,10.69,8.23,15.85,12.57s10.12,8.93,15,13.59q3.65,3.51,7.21,7.11c2.38,2.4,4.67,4.84,7.14,7a43.39,43.39,0,0,0,3.85,3.09,20.6,20.6,0,0,0,4.17,2.37c1.48.62,3.1,1.1,4.73,1.81a15.23,15.23,0,0,1,4.54,3l.51.5-.21.69c-2.71,8.54-4.15,17.62-7.63,26.25A83.18,83.18,0,0,1,262,852.89c-2.39,3.88-4.84,7.69-7,11.65a120.4,120.4,0,0,0-10.41,24.94,126.35,126.35,0,0,0-4.85,26.71,107.19,107.19,0,0,1,1-13.62,112.14,112.14,0,0,1,2.62-13.43,120.79,120.79,0,0,1,9.87-25.56c2.12-4.06,4.55-7.94,6.86-11.83a87.27,87.27,0,0,0,6.26-11.89c3.28-8.3,4.74-17.33,7.57-26.09l.3,1.18a13.25,13.25,0,0,0-3.85-2.55c-1.46-.63-3.08-1.13-4.69-1.84a22,22,0,0,1-4.56-2.67,43.86,43.86,0,0,1-4-3.29c-2.53-2.32-4.82-4.82-7.11-7.28s-4.62-4.87-7-7.27c-4.71-4.79-9.6-9.42-14.53-14S218.47,767.09,213.32,762.74Z"/><path class="cls-10" d="M209.65,781.81a20.64,20.64,0,0,0,4.78,6.37,44.85,44.85,0,0,0,6.38,4.79c2.26,1.44,4.57,2.87,6.83,4.45a41.37,41.37,0,0,1,6.24,5.5c3.65,4.07,7.19,8,11,11.88s7.69,7.54,11.72,11.19a91.41,91.41,0,0,1-13-9.85c-2.05-1.8-4-3.72-5.9-5.65s-3.71-4-5.54-6a40.84,40.84,0,0,0-5.84-5.32c-2.1-1.62-4.37-3.09-6.55-4.74a36.91,36.91,0,0,1-6.16-5.5A17.84,17.84,0,0,1,209.65,781.81Z"/><path class="cls-10" d="M256.54,826.58a25.39,25.39,0,0,1-2.94,9.26c-1.76,2.84-4.08,5.11-6,7.61a125.74,125.74,0,0,0-10.55,15.85c-1.61,2.76-3.14,5.56-4.64,8.38s-3,5.66-4.48,8.49l-4.4,8.55c-.74,1.42-1.51,2.84-2.15,4.28a11.7,11.7,0,0,0-1.16,4.58,11,11,0,0,1,.54-4.81c.48-1.57,1.13-3,1.71-4.54,1.21-3,2.46-5.94,3.79-8.87,2.65-5.87,5.54-11.62,8.73-17.24a95.64,95.64,0,0,1,11.2-15.86c2.12-2.48,4.6-4.56,6.44-7.06S255.51,829.62,256.54,826.58Z"/><path class="cls-10" d="M222.7,857.25c-2,3.08-4.09,6-6.29,8.89s-4.51,5.66-6.56,8.55a65.12,65.12,0,0,0-5.47,9.1c-1.63,3.19-3.1,6.5-4.79,9.74a66.41,66.41,0,0,1,3.1-10.49,50.46,50.46,0,0,1,2.29-5,45.86,45.86,0,0,1,3-4.71A90.42,90.42,0,0,1,215,865C217.47,862.3,220,859.7,222.7,857.25Z"/><path class="cls-10" d="M222.18,856.49a28.87,28.87,0,0,0-2.32-14.5,42.53,42.53,0,0,0-3.46-6.49,64.3,64.3,0,0,0-4.33-6c-1.52-2-3.14-3.87-4.76-5.79s-3.24-3.86-4.77-5.89a47.81,47.81,0,0,1-7.61-13.13,78.31,78.31,0,0,0,9,12c3.33,3.73,6.8,7.38,10,11.38a45.49,45.49,0,0,1,7.65,13.32C223.25,846.2,223.76,851.64,222.18,856.49Z"/></g><path class="cls-10" d="M355.39,796.71s-.15-8.63-2-8.63-11.5,6.66-31.17,7.42-32.07-1.22-75.79,40.39S194.11,866,194.11,866s3.43,8.32,24.81-4.39,43.57-39.34,63.34-50.63,44.38-11.3,51.64-11.1S355.39,796.71,355.39,796.71Z"/><path class="cls-11" d="M215,669.66c2-3.26,2.33-7.28,4-10.7a28.93,28.93,0,0,1,4.72-6.36c2.9-3.26,6.16-6.72,10.47-7.37,5-.75,9.73,2.46,14.75,2.47,6,0,11-4.46,15.34-8.66.83-.81,1.73-1.93,1.26-3s-1.95-1.14-2.88-.53a6.39,6.39,0,0,0-1.92,2.68,6.76,6.76,0,0,1-3,3.46c-1.43.62-3.5-.11-3.64-1.66-.17-1.82,2.06-2.76,3.26-4.14a4.39,4.39,0,0,0-.21-5.78l-4.8,8.78a4.54,4.54,0,0,1-5.22,3.08l-10.82-.27,13.86-9.38c.84-.57,1.8-1.41,1.55-2.41a1.74,1.74,0,0,0-2.21-1,5,5,0,0,0-2.12,1.65,23.67,23.67,0,0,0,6-12.38,3.52,3.52,0,0,0-2.8,2.53c-.48,1.24-.62,2.61-1.21,3.81s-1.87,2.23-3.16,1.91l6-14.12c.51-1.21.75-3-.5-3.42-1.06-.33-1.93.87-2.36,1.89-2.15,5.07-3.26,10.53-5.32,15.64s-5.33,10.07-10.32,12.39l4.14-13.59c.4-1.31.52-3.19-.79-3.6a1.83,1.83,0,0,0-2,1.12,6.11,6.11,0,0,0-.38,2.49A28.28,28.28,0,0,1,228,642.61c-2.68,3.14-6,5.65-8.7,8.78a28.64,28.64,0,0,0-6.79,19.67Z"/><path class="cls-11" d="M208.89,668.27a11.91,11.91,0,0,0-9.75-15.11c-1.92-.28-4.32-.34-5.14-2.1l8.73-.22a.3.3,0,0,0,.27-.25c.24-2.2-1.67-4.18-3.74-5.06s-4.55-1-6.73-1.84c-4.74-1.74-8.43-11.91-7.52-11.91s4.88,7.8,9,9.62a.27.27,0,0,0,.35-.37s-4.1-7-4.1-8.26,6.16,6.21,6.16,6.21a.28.28,0,0,0,.46-.1,8.58,8.58,0,0,0-4.42-10.21,33.52,33.52,0,0,0-4.56-1.3,6.65,6.65,0,0,1-3.92-2.48c-.86-1.33-.73-3.38.61-4.22a7.09,7.09,0,0,0,6.7,3.62,17.59,17.59,0,0,1-7.51-16.24l7.8,13.53a.27.27,0,0,0,.5-.1c.34-2.93-.61-8.92.69-8.92s1.72,4.17,2.58,6.26c0-3.93-1.29-11.8.1-11.8s2.66,11.58,4,17.36l2.76,12c.17.72.41,1.53,1.09,1.82,1,.45.91-.57.91-2.23a19.37,19.37,0,0,0,0-3.32,2.1,2.1,0,0,1,1.92-2.28c1.22,1.93.33,4.48-.86,6.42s-2.7,3.9-2.71,6.18c0,3.33,3.08,5.68,5.28,8.18a18.72,18.72,0,0,1,4.36,15.23c-.24,1.39-.74,2.9-2,3.57s-3.22-.28-2.94-1.66C208,668.27,208.17,668.32,208.89,668.27Z"/><path class="cls-11" d="M213.2,639.53c.79-1.82,1.78-3.62,1.94-5.59.2-2.44-.88-4.8-2.15-6.9s-2.75-4.09-3.5-6.42-.63-5.14,1.07-6.9l3.4,6.53c.48.92,1.15,2,2.19,2s1.69-.93,2.22-1.77l9.43-15.1a4.23,4.23,0,0,1,1.13-1.35,1.46,1.46,0,0,1,1.66-.06c.6.46.54,1.36.4,2.11A41,41,0,0,1,223.67,623c-1.73,2.35-3.8,4.67-4.22,7.56l6.15-5.61c.53-.48,1.48-.92,1.84-.31s-.22,1.08-.66,1.45a34.87,34.87,0,0,0-12.56,24.36c-.24,3.56.07,7.13-.19,10.69-.2,2.72-.86,8.12-3.48,9.71-.54-.77-.06-2.58-.1-3.53-.1-2.28-.32-4.55-.4-6.83a59.86,59.86,0,0,1,.89-13.63A34.67,34.67,0,0,1,213.2,639.53Z"/><path class="cls-11" d="M211.1,670.64a9.27,9.27,0,0,1,6.87-9.27c1.56-.38,3.2-.33,4.77-.66a5,5,0,0,0,3.81-2.63c.39-.94.32-2,.69-2.94s1.54-1.74,2.37-1.16.57,1.71,0,2.42-1.41,1.13-2,1.8a1.85,1.85,0,0,0-.3,2.43,1.53,1.53,0,0,0,1.81.15,3.1,3.1,0,0,0,1.2-1.51,12.05,12.05,0,0,1,1.37-3.08c.72-.87,2.28-1.2,2.91-.26a2.23,2.23,0,0,1-.34,2.36,5.88,5.88,0,0,0-1.22,2.19,2.79,2.79,0,0,0,1.25,2.54,8.14,8.14,0,0,0,2.75,1.1,13.18,13.18,0,0,0,5.26.66,4.53,4.53,0,0,0,3.92-3.14,22.35,22.35,0,0,1,.34-2.32c.26-.74,1.11-1.39,1.8-1,1.1.59.16,2.52,1,3.44s2.08.14,2.92-.57a56.63,56.63,0,0,0,11.28-12.93,6.3,6.3,0,0,1,1.95-2.24,2,2,0,0,1,2.68.41,2.19,2.19,0,0,1-.58,2.56,26.64,26.64,0,0,1-2.28,1.67,2.58,2.58,0,0,0-1.12,2.44c.33,1.33,2.06,1.67,3.44,1.62s3-.09,3.8,1-.1,3-1.46,3.51a5.94,5.94,0,0,1-4.25-.35,13.49,13.49,0,0,0-4.16-1.25,5.43,5.43,0,0,0-4.41,2.07,5.77,5.77,0,0,0-1,4.79c.65,2.84,3.28,4.8,6,5.9,1.41.58,3.19,1.44,3,3a2.15,2.15,0,0,1-2.15,1.73,4.57,4.57,0,0,1-2.75-1.13c-1.79-1.42-3.08-3.4-4.9-4.79s-4.61-2-6.31-.48l2.87,2.39c1,.85,2.16,2.1,1.66,3.33s-2.1,1.34-3.17.73a7.84,7.84,0,0,1-2.39-2.74,4.9,4.9,0,0,0-2.73-2.33c-1.2-.27-2.68.71-2.44,1.91.21,1,1.46,1.72,1.23,2.72a1.4,1.4,0,0,1-1.8.8,4,4,0,0,1-1.71-1.38L235.28,668c-.63-.74-1.47-1.55-2.42-1.34-1.21.26-1.44,2-.74,3.05A10.15,10.15,0,0,0,235,672a4.08,4.08,0,0,1,1.57,1.85,2,2,0,0,1-.54,2.24,2.09,2.09,0,0,1-2.32-.06,5.83,5.83,0,0,1-1.62-1.83,42.56,42.56,0,0,0-3.86-5.45,9.91,9.91,0,0,0-5.64-3.33,5.7,5.7,0,0,0-5.77,2.51c-.42.75-.62,1.61-1,2.39A2.78,2.78,0,0,1,214,672a1.88,1.88,0,0,1-1.91-1,2,2,0,0,1,.28-2.16Z"/><path class="cls-12" d="M213.06,669.11c-2.23-.6-16.7-4.12-21.29,5.06-5,10-5,36.51-6.63,43.15s-8.3,58.08-3.32,74.68c0,0,18.25-41.49,21.57-53.11s11.62-48.12,13.28-49.78c1.89-1.9,2-6.68,2.06-9.12.11-3.58-.35-8.63-4.08-10.37-.87-.41-3.72-.82-2.72,1.12Z"/><path class="cls-13" d="M356,714.55s17.59-20.66,15.92-31.37,5.77-9.63,9.05-17.94,13.08-20.6-2.56-30-7.69-18.62-13.77-17.55-.15,8.66-7.05,12.68-3.85,36.1-3.68,49.92S362.86,700.87,356,714.55Z"/><path class="cls-13" d="M332.68,709.7s4.23-17.65,12.5-29.18,10.86-40.34-8.38-41.76-20.22,1.69-25.76-8-5-14.89-7.47-23.66-14.45-7.61-15-13.77S290,572.23,284,570s-16.53-11-20.28-2.44-9,1.48-5.79,21.48-10.67,14.87-1.09,29.87,20.56,7.77,24.24,19.47,19.89,13.36,23.51,25.76S336.71,690.3,332.68,709.7Z"/><path class="cls-11" d="M345.32,706.11s12.64-9.35,13.37-21.73,6.87-30.5-.36-39.22-10.46-8.69-5.83-25.23-.94-47.31-17.85-45.95-12-11.2-17.53-14.76-18.16.15-16.24,17.95-5.75,8.62-1.32,27.1S331.4,693.1,345.32,706.11Z"/><path class="cls-14" d="M337.05,731.58s2.61-5.4-.77-12.78-6.86-15.71-5.59-32-19.14-44-31.6-54.71S276.84,614,271.62,603.8s-12.36-28.51-13.5-27.79,6.63,33.11,27.58,50.22,34.34,39.22,37.1,48,3.28,33.5,9,45.87l5.77,12.37Z"/><path class="cls-14" d="M340.16,736.54s10.64-38,9.48-50,5.53-33.16-13.93-61-33-59.63-33.54-59.32,4.24,15.85,11.58,28.08,28.11,44.22,30.63,53.81S337,734.69,337,734.69Z"/><path class="cls-14" d="M340.82,734.12s13.54-19.33,15.65-23.66c17.16-51.56,3.78-68.75,6-70.14s7.18,16.12,2,45.43-19.59,49-19.59,49Z"/><path class="cls-15" d="M341.23,730.53c-.4-.14-24.17-10.34-35.73,9.77s-7.58,26.43-3.94,33.82,12.3,11.62,11.25,24.29-4.35,10.07-4.35,10.07.4,3.75,6.21-2.23,13.12-13.08,14.32-17.33,9.56.83,19.75-9.24,10.46-24.24,9.37-30.23S354.73,735.57,341.23,730.53Z"/><path class="cls-16" d="M195.81,721.74q4.91,15.91,9.8,31.83c1.59,5.18,2.68,11.94-1.78,15-3.87,2.66-9.18.41-13-2.36A80.9,80.9,0,0,1,175.66,751c-2.33-2.91-4.56-5.91-6.77-8.9-5.27-7.13-10.75-14.82-12.27-23.36a24.91,24.91,0,0,1-.42-4.82c0-.42,0-.82,0-1.2.17-3.69,1.09-5.83,3.69-7.45a1.46,1.46,0,0,0,.88.14c.81-.07,1.62-.14,2.42-.24h0a14.68,14.68,0,0,0,4.8-1.3,7.9,7.9,0,0,0,1.36-.84,6.7,6.7,0,0,0,2.73-4.12h0s0,0,0,0c0-.25,0-.5,0-.74,5.4-1.15,11.45,1.57,15.24,5.81C191.8,708.86,193.86,715.41,195.81,721.74Z"/><path class="cls-17" d="M167.33,665.39a122.56,122.56,0,0,1,4,18,79.85,79.85,0,0,1,.77,14.74c0,.24,0,.49,0,.74,0,0,0,0,0,0h0a6.7,6.7,0,0,1-2.73,4.12c-.11-2.46-.49-5,0-7.45.58-2.84,0-6-.43-8.9-.23-1.37-.38-2.71-.49-4h0C168,676.83,168.3,671.31,167.33,665.39Z"/><path class="cls-18" d="M146.66,677.06l-.06-.1"/><path class="cls-18" d="M143.44,671.73c0-.07-.09-.13-.12-.19s.08.12.12.19"/><path class="cls-18" d="M146.66,677.06l-.06-.1"/><path class="cls-17" d="M164.77,702.93a11,11,0,0,1-1.55,2.21h0c-.8.1-1.61.17-2.42.24a1.46,1.46,0,0,1-.88-.14c-.25-.18-.32-.61-.06-.76a43.87,43.87,0,0,1-9.39-6.76c-3.88-3.51-7.5-7.44-11.36-10.84A83,83,0,0,0,113,671.35c10.57,2.26,20.94,6.65,28.37,14.5a61.47,61.47,0,0,0,6,5.94c3.12,2.76,2,2.08,6.14,3.27C155.24,698.44,161,702.7,164.77,702.93Z"/><path class="cls-19" d="M151,662.58l-7.12-11.33c-.38-.61-.77-1.22-1.19-1.82h0a11.22,11.22,0,0,0-1.87-2.08c-1.68-1.39-3.85-2.05-5.49-3.47-1.45-1.27-2.37-3-3.73-4.4s-3.53-2.28-5.18-1.3c-1.41.83-1.83,2.64-2.05,4.25a55.52,55.52,0,0,0,1.38,21.81c.07.28.15.55.23.83a3.68,3.68,0,0,0,.82,1.68c1.24,1.22,3.56.38,4.88,1.51a4.41,4.41,0,0,1,1.13,2.4c.55,2.11,1.76,4.47,3.94,4.73a5.13,5.13,0,0,1,1.8.25c1,.52,1,1.86,1.18,2.94a5.8,5.8,0,0,0,5.7,4.55c-.62,3.25,2.78,6.45,5.95,6-.46-1.61-.89-3.23-1.44-4.82a46.12,46.12,0,0,0-3.29-7.23c2.66,4.45,5.12,8.66,6.94,12a12.93,12.93,0,0,0,1.19,1.79c-.06-2.9.18-6.52.12-9.44,0-.25,0-.5,0-.74a16.36,16.36,0,0,0-.85-5.48c-.58-1.39-1.54-2.63-1.86-4.1-.48-2.17.52-4.51-.18-6.62A8.17,8.17,0,0,0,151,662.58ZM142,669.43c-4.28-6.63-8.25-12.68-12.53-19.3-1.23-2.7,6.4,9.12,13.89,21.41Zm1.48,2.3c1.09,1.71,2.17,3.46,3.16,5.23C145.56,675.23,144.5,673.47,143.44,671.73Z"/><path class="cls-20" d="M155.93,644.49c1,3.28,1.84,8.37,3.69,11.8h0c.08,3-2.12,5.71-2.17,8.73a8.39,8.39,0,0,0,1.13,4.09l0,0a95.91,95.91,0,0,0,4.07,10.91,24.41,24.41,0,0,1,1.42,3.67,39.93,39.93,0,0,1,.73,4.33c.15,1,.37,2,.59,3.06a26.08,26.08,0,0,1-10.51-9.75c0-.25,0-.5,0-.74a16.36,16.36,0,0,0-.85-5.48c-.58-1.39-1.54-2.63-1.86-4.1-.48-2.17.52-4.51-.18-6.62a8.17,8.17,0,0,0-1-1.85l-7.12-11.33c-.38-.61-.77-1.22-1.19-1.82h0c.17-1.8,1.1-4.39,1.15-5.67.12-2.81-3.73-5.27-2.41-7.75.6-1.1,2.16-1.84,2-3.07-.09-.51-.47-.93-.53-1.44-.12-1,1.17-1.71,2.14-1.43a4.69,4.69,0,0,1,2.27,1.94l6,8A15.65,15.65,0,0,1,155.93,644.49Z"/><path class="cls-21" d="M151.39,689.11a33.52,33.52,0,0,0,2.15,5.95c-4.09-1.19-3-.51-6.14-3.27a61.47,61.47,0,0,1-6-5.94c-7.43-7.85-17.8-12.24-28.37-14.5a83,83,0,0,1,26.1,15.54c3.86,3.4,7.48,7.33,11.36,10.84a8.62,8.62,0,0,1-10.14-3.25,3.37,3.37,0,0,0-1.06-1.24c-.8-.41-1.75,0-2.64.08-2.67.18-4.29-2.81-6.42-4.43-3.29-2.49-8.18-1.7-11.64-3.95-3.24-2.11-4.56-6.44-7.89-8.4-1.39-.81-3-1.14-4.44-1.82s-2.85-1.87-3-3.47c-.2-2.26,2.06-3.89,4-5,2.34-1.32,5.11-2.68,7.62-1.69a15.51,15.51,0,0,0,1.92.84c2.39.61,6.68-2,9-1.16.07.28.15.55.23.83a3.68,3.68,0,0,0,.82,1.68c1.24,1.22,3.56.38,4.88,1.51a4.41,4.41,0,0,1,1.13,2.4c.55,2.11,1.76,4.47,3.94,4.73a5.13,5.13,0,0,1,1.8.25c1,.52,1,1.86,1.18,2.94a5.8,5.8,0,0,0,5.7,4.55C144.82,686.37,148.22,689.57,151.39,689.11Z"/><path class="cls-18" d="M150.53,697.71l-.07,0"/><path class="cls-22" d="M179.42,649.59c2.05,3.45-2.52,8-.88,11.64a14.9,14.9,0,0,1,1.36,2.59c.54,2.4-2.38,4.13-3,6.5-.33,1.22,0,2.54-.26,3.78A8.49,8.49,0,0,1,175.3,677q-2,3.21-3.92,6.41a122.56,122.56,0,0,0-4-18c1,5.92.64,11.44,1.11,17.21-4.42-2.21-5.28-6.59-8.09-10.68a.13.13,0,0,0,0-.06,30.87,30.87,0,0,1-1.69-2.71l0,0a8.39,8.39,0,0,1-1.13-4.09c0-3,2.25-5.78,2.17-8.73h0a3,3,0,0,0-.06-.73c-.23-1.37-1-2.64-1-4,0-2.52,2.47-4.22,4-6.19,1-1.24,1.65-2.7,2.69-3.89a4.38,4.38,0,0,1,4.13-1.75c2.59.64,3.05,4.14,4.93,6C175.82,647.25,178.32,647.73,179.42,649.59Z"/><path class="cls-17" d="M166.2,698.17a2.3,2.3,0,0,1,0,.45,11.77,11.77,0,0,1-1.37,4.3h0c-3.8-.23-9.53-4.49-11.23-7.87a33.52,33.52,0,0,1-2.15-5.95c-.46-1.61-.89-3.23-1.44-4.82a46.12,46.12,0,0,0-3.29-7.23c2.66,4.45,5.12,8.66,6.94,12a12.93,12.93,0,0,0,1.19,1.79C157.33,694.06,162.22,696.48,166.2,698.17Z"/><path class="cls-17" d="M168.44,682.6h0c.11,1.33.26,2.67.49,4,.48,2.86,1,6.06.43,8.9-.47,2.4-.09,5,0,7.45a7.9,7.9,0,0,1-1.36.84,14.68,14.68,0,0,1-4.8,1.3,11,11,0,0,0,1.55-2.21h0a11.77,11.77,0,0,0,1.37-4.3,2.3,2.3,0,0,0,0-.45s0,0,0,0a24.24,24.24,0,0,0-.79-7c-.22-1-.44-2-.59-3.06a39.93,39.93,0,0,0-.73-4.33,24.41,24.41,0,0,0-1.42-3.67,95.91,95.91,0,0,1-4.07-10.91,30.87,30.87,0,0,0,1.69,2.71.13.13,0,0,1,0,.06C163.16,676,164,680.39,168.44,682.6Z"/><path class="cls-16" d="M351.22,834.9l-16.46,29c-2.67,4.71-6.85,10.14-12.14,9-4.58-1-6.58-6.4-7.17-11.06a80.74,80.74,0,0,1,.67-21.5c.51-3.69,1.18-7.37,1.83-11,1.58-8.73,3.42-18,8.6-25a26,26,0,0,1,3.21-3.61c.31-.28.61-.56.89-.8,2.81-2.41,5-3.21,8-2.42a1.46,1.46,0,0,0,.5.73c.61.54,1.21,1.09,1.84,1.6h0a14.57,14.57,0,0,0,4.23,2.61,8,8,0,0,0,1.55.41,6.73,6.73,0,0,0,4.87-.84h0l0,0c.2-.16.38-.32.56-.49,4.54,3.15,6.71,9.42,6.22,15.08C357.84,823.14,354.49,829.14,351.22,834.9Z"/><path class="cls-17" d="M372.71,775.53A122.7,122.7,0,0,1,362.4,790.8a79.07,79.07,0,0,1-10.2,10.66c-.18.17-.36.33-.56.49l0,0h0a6.73,6.73,0,0,1-4.87.84c1.72-1.77,3.34-3.82,5.41-5.12,2.46-1.53,4.43-4.12,6.19-6.42.84-1.11,1.7-2.14,2.6-3.12h0C364.82,783.83,369.06,780.3,372.71,775.53Z"/><path class="cls-18" d="M350,768.48l0-.11"/><path class="cls-18" d="M351.71,762.48c0-.08,0-.15.06-.22s0,.14-.06.22"/><path class="cls-18" d="M350,768.48l0-.11"/><path class="cls-17" d="M343.63,799.4a11,11,0,0,1-2.67.39h0c-.63-.51-1.23-1.06-1.84-1.6a1.46,1.46,0,0,1-.5-.73c-.05-.31.22-.66.51-.57a43.15,43.15,0,0,1-1.51-11.47c-.12-5.23.27-10.56.09-15.7a83.21,83.21,0,0,0-6.58-29.66c5.61,9.25,9.52,19.81,8.9,30.6a62.87,62.87,0,0,0-.2,8.46c.14,4.16-.1,2.92,1.84,6.72C340.36,789.39,341.19,796.48,343.63,799.4Z"/><path class="cls-19" d="M363.57,761.73q1.69-6.48,3.37-13c.18-.7.36-1.4.5-2.12h0a11.4,11.4,0,0,0,.23-2.79c-.14-2.17-1.15-4.2-1.24-6.37-.07-1.93.59-3.81.65-5.73s-.76-4.14-2.61-4.67c-1.57-.46-3.17.47-4.5,1.43a55.23,55.23,0,0,0-14.92,16c-.16.25-.31.49-.45.74A3.58,3.58,0,0,0,344,747c0,1.74,2.16,2.85,2.24,4.58a4.44,4.44,0,0,1-1,2.47c-1.16,1.85-2.05,4.35-.74,6.11a5.34,5.34,0,0,1,1,1.48c.29,1.07-.68,2-1.33,2.88a5.8,5.8,0,0,0,.6,7.27c-2.8,1.77-2.8,6.44-.28,8.44.85-1.44,1.73-2.87,2.52-4.35a46.17,46.17,0,0,0,3-7.36c-1.41,5-2.79,9.67-4,13.26a13,13,0,0,0-.48,2.09c2.06-2,4.87-4.35,6.95-6.39l.52-.53a16,16,0,0,0,3.4-4.37c.62-1.38.87-2.92,1.72-4.16,1.25-1.84,3.64-2.72,4.69-4.68A8.06,8.06,0,0,0,363.57,761.73Zm-11.19-1.9c1.89-7.66,3.57-14.7,5.46-22.35,1.12-2.75-2.26,10.91-6.07,24.78C352,761.44,352.18,760.64,352.38,759.83Zm-.67,2.65c-.49,2-1,4-1.64,5.89C350.62,766.43,351.17,764.45,351.71,762.48Z"/><path class="cls-20" d="M380.11,752.89c-1.68,3-4.83,7.09-6.06,10.79h0c-2.09,2.08-5.62,2.37-7.85,4.41a8.41,8.41,0,0,0-2.2,3.63v0a99.11,99.11,0,0,0-5.15,10.44,24.72,24.72,0,0,1-1.7,3.56,39.06,39.06,0,0,1-2.65,3.49c-.64.82-1.23,1.67-1.82,2.53a26,26,0,0,1-.11-14.34l.52-.53a16,16,0,0,0,3.4-4.37c.62-1.38.87-2.92,1.72-4.16,1.25-1.84,3.64-2.72,4.69-4.68a8.06,8.06,0,0,0,.68-2q1.69-6.48,3.37-13c.18-.7.36-1.4.5-2.12h0c1.43-1.12,3.95-2.21,4.91-3,2.13-1.84,1.28-6.33,4-7.06,1.21-.33,2.81.3,3.57-.69.31-.41.36-1,.69-1.37.65-.78,2-.32,2.51.58a4.73,4.73,0,0,1,.14,3c-.57,3.28-1.13,6.57-1.7,9.85A15.59,15.59,0,0,1,380.11,752.89Z"/><path class="cls-21" d="M344.52,780.19a32.57,32.57,0,0,0-2.86,5.65c-1.94-3.8-1.7-2.56-1.84-6.72a62.87,62.87,0,0,1,.2-8.46c.62-10.79-3.29-21.35-8.9-30.6a83.21,83.21,0,0,1,6.58,29.66c.18,5.14-.21,10.47-.09,15.7a8.63,8.63,0,0,1-4.6-9.61,3.38,3.38,0,0,0,.18-1.63c-.25-.86-1.21-1.26-1.87-1.86-2-1.82-.89-5-1.17-7.71-.45-4.1-4.38-7.12-5.11-11.18-.69-3.81,1.56-7.73.7-11.51-.35-1.56-1.22-2.95-1.72-4.47s-.58-3.36.48-4.56c1.5-1.71,4.24-1.18,6.41-.5,2.57.8,5.46,1.88,6.46,4.39a17.23,17.23,0,0,0,.7,2c1.2,2.15,6.08,3.45,7,5.71-.16.25-.31.49-.45.74A3.58,3.58,0,0,0,344,747c0,1.74,2.16,2.85,2.24,4.58a4.44,4.44,0,0,1-1,2.47c-1.16,1.85-2.05,4.35-.74,6.11a5.34,5.34,0,0,1,1,1.48c.29,1.07-.68,2-1.33,2.88a5.8,5.8,0,0,0,.6,7.27C342,773.52,342,778.19,344.52,780.19Z"/><path class="cls-18" d="M337.67,785.46s-.05,0-.06,0"/><path class="cls-22" d="M392.51,773.49c-1.11,3.86-7.54,3.64-9.08,7.34a15.11,15.11,0,0,1-1,2.77c-1.38,2-4.64,1.1-6.81,2.26-1.12.59-1.86,1.72-2.93,2.39a8.57,8.57,0,0,1-3,1l-7.36,1.54a122.7,122.7,0,0,0,10.31-15.27c-3.65,4.77-7.89,8.3-11.77,12.61-1.42-4.74,1.18-8.37,2.23-13.22a.15.15,0,0,0,0-.07,31.24,31.24,0,0,1,.81-3.09v0a8.41,8.41,0,0,1,2.2-3.63c2.23-2,5.76-2.33,7.85-4.41h0a4.28,4.28,0,0,0,.49-.55c.84-1.1,1.22-2.55,2.22-3.51,1.84-1.73,4.76-1.1,7.28-1.31,1.57-.14,3.1-.65,4.67-.71a4.36,4.36,0,0,1,4.1,1.81c1.32,2.32-.91,5.05-1,7.72C391.74,769.28,393.1,771.42,392.51,773.49Z"/><path class="cls-17" d="M348.08,797.18a3.58,3.58,0,0,1-.37.28,11.77,11.77,0,0,1-4.07,1.94h0c-2.44-2.92-3.27-10-2-13.56a32.57,32.57,0,0,1,2.86-5.65c.85-1.44,1.73-2.87,2.52-4.35a46.17,46.17,0,0,0,3-7.36c-1.41,5-2.79,9.67-4,13.26a13,13,0,0,0-.48,2.09C345,787.91,346.58,793.13,348.08,797.18Z"/><path class="cls-17" d="M360.94,788.14h0c-.9,1-1.76,2-2.6,3.12-1.76,2.3-3.73,4.89-6.19,6.42-2.07,1.3-3.69,3.35-5.41,5.12a8,8,0,0,1-1.55-.41,14.57,14.57,0,0,1-4.23-2.61,11,11,0,0,0,2.67-.39h0a11.77,11.77,0,0,0,4.07-1.94,3.58,3.58,0,0,0,.37-.28h0a24.69,24.69,0,0,0,4.56-5.39c.59-.86,1.18-1.71,1.82-2.53a39.06,39.06,0,0,0,2.65-3.49,24.72,24.72,0,0,0,1.7-3.56A99.11,99.11,0,0,1,364,771.76a31.24,31.24,0,0,0-.81,3.09.15.15,0,0,1,0,.07C362.12,779.77,359.52,783.4,360.94,788.14Z"/><path class="cls-23" d="M172.88,729.24a164,164,0,0,0-20.39-2.11,6.92,6.92,0,0,0-5.59-.29,19.41,19.41,0,0,0-5.87,3.84c-7.1,6-14.41,12.85-17.42,21.37a17.47,17.47,0,0,1-3.34,1.92c-2.26-4.89-2.24-15.78.23-20a14.43,14.43,0,0,1,3.52-3.67l13-10.64h0l5.5-4.52c2.28-1.88,4.73-3.82,7.65-4.1,4.44-.44,8.28,3.06,10.85,6.7C163.11,720.74,168.79,726.15,172.88,729.24Z"/><path class="cls-24" d="M161.73,771.39a10.44,10.44,0,0,1-3,1.11,2.82,2.82,0,0,1-.77,0,2.17,2.17,0,0,1-.36-.12,14.2,14.2,0,0,1-3.56-2.81q-3.93-3.82-7.84-7.66a11.31,11.31,0,0,0-2.58-2c-1.94-1-4.33-.84-6.28-1.86a13.78,13.78,0,0,0-2.56-1.38,2.16,2.16,0,0,0-.48-.1,3.57,3.57,0,0,0-.8,0,5.06,5.06,0,0,0-2.67,1.27h0c-.33-.2-.86.12-1.19.52a9.07,9.07,0,0,1,3.71-6.55,20.35,20.35,0,0,1,8.34-3.31,22.76,22.76,0,0,1,7.7-.52,12,12,0,0,1,2.19.51c5.05,1.69,8.31,7.06,8.44,12.37.1,3.64-.91,7.79,1.45,10.56Z"/><path class="cls-24" d="M157.87,772.48a1.39,1.39,0,0,1-.41-.12,14,14,0,0,1-3.56-2.81q-3.93-3.81-7.84-7.65a11.31,11.31,0,0,0-2.58-2c-1.94-1-4.33-.84-6.28-1.86a13.83,13.83,0,0,0-2.56-1.39,2.29,2.29,0,0,0-.44-.09,2.21,2.21,0,0,1,.49.09,13.83,13.83,0,0,1,2.56,1.39c1.94,1,4.34.84,6.28,1.86a11,11,0,0,1,2.57,2q3.92,3.84,7.85,7.65a14.11,14.11,0,0,0,3.55,2.81A1.6,1.6,0,0,0,157.87,772.48Z"/><path class="cls-25" d="M172.92,785.6c-.62,3.58-4.38,5.76-7.95,6.45s-7.31.4-10.78,1.48-6.59,3.62-10.19,4.54c-4.92,1.26-9.78-.57-14.25-3.29a70.21,70.21,0,0,1-5.9-4.11c-4.71-3.59-10-8.49-8.79-14.3.84-4.19,6.3-8.77,8.19-13.14a16.46,16.46,0,0,0,3.4,4.54c-.22,4.32,1.13,8.9,4.45,11.66a16.57,16.57,0,0,0,4.53,2.5,23.25,23.25,0,0,0,14.62,1.1c4.26-1.22,11.12-6.94,13.6-11.53a27,27,0,0,0,6.28-.37,9.08,9.08,0,0,0,.48,6C171.72,779.9,173.43,782.69,172.92,785.6Z"/><path class="cls-26" d="M129.75,794.78c-.5.27-1,.52-1.53.77a21.13,21.13,0,0,1-8.61,2.42,13.73,13.73,0,0,1-7.71-2.23h0a14.23,14.23,0,0,1-6.37-9.08c-.62-3.14-.18-6.57-1.69-9.39-.79-1.47-2-2.64-2.94-4-2.6-4-2-9.26-1.28-14a8.15,8.15,0,0,1,.85-3,4.26,4.26,0,0,1,1.74-1.63,8.48,8.48,0,0,1,5.26-.6c2.56.45,5.07,1.53,7.67,1.37a16.16,16.16,0,0,0,5.14-1.44,17.47,17.47,0,0,0,3.34-1.92,24.19,24.19,0,0,0-1.23,5.25,10.62,10.62,0,0,0,.87,5.93c-1.89,4.37-7.35,8.95-8.19,13.14-1.18,5.81,4.08,10.71,8.79,14.3A70.21,70.21,0,0,0,129.75,794.78Z"/><path class="cls-27" d="M184.93,789.67h0a13.7,13.7,0,0,1-3.94,8.79,27.57,27.57,0,0,1-7.43,4.71l-12.84,6.31c-5.62,2.78-12.72,5.44-17.73,1.67a11.07,11.07,0,0,1-2.54-2.79c-1.28-2-2.17-4.27-3.29-6.36-1.48-2.77-5.54-6-8.93-6.45.51-.25,1-.5,1.53-.77,4.47,2.72,9.33,4.55,14.25,3.29,3.6-.92,6.63-3.41,10.19-4.54s7.22-.79,10.78-1.48,7.33-2.87,7.95-6.45c.51-2.91-1.2-5.7-2.31-8.44a9.08,9.08,0,0,1-.48-6,6.25,6.25,0,0,0,3.58-1.79,22.4,22.4,0,0,0,1.73-2.82,11.16,11.16,0,0,1,.74-1.06c.24,1.95.41,5,.53,5.94.49,3.94,4.14,6.59,6.25,10A13.72,13.72,0,0,1,184.93,789.67Z"/><path class="cls-28" d="M140.44,808.36c-1.63.47-3.77,1-5,1.42a24.05,24.05,0,0,1-3.32.83c-4.65.64-9.13-1.73-13.23-4a11.79,11.79,0,0,1-2.91-2.06,11.53,11.53,0,0,1-2.08-3.8l-2-5a13.73,13.73,0,0,0,7.71,2.23,21.13,21.13,0,0,0,8.61-2.42c3.39.43,7.45,3.68,8.93,6.45C138.27,804.09,139.16,806.4,140.44,808.36Z"/><path class="cls-29" d="M164.57,744.36c-4.91-.85-11,.85-15.24,3.56a22.74,22.74,0,0,0-7.7.52,20.38,20.38,0,0,0-8.35,3.3,9.15,9.15,0,0,0-3.71,6.56c-.06.07-.1.15-.15.22a20.9,20.9,0,0,0-2.73,8.55c0,.22,0,.46,0,.7a16.46,16.46,0,0,1-3.4-4.54,10.62,10.62,0,0,1-.87-5.93,24.19,24.19,0,0,1,1.23-5.25c3-8.52,10.32-15.36,17.42-21.37a19.41,19.41,0,0,1,5.87-3.84,6.92,6.92,0,0,1,5.59.29,4.18,4.18,0,0,1,1,.75c1.69,1.62,1.95,4.18,2.86,6.34C157.79,737.59,161.33,741.61,164.57,744.36Z"/><path class="cls-30" d="M179.57,761a37,37,0,0,1-3.39,4.44v0a11.16,11.16,0,0,0-.74,1.06,22.4,22.4,0,0,1-1.73,2.82,6.25,6.25,0,0,1-3.58,1.79,27,27,0,0,1-6.28.37c-.77,0-1.48-.07-2.11-.12l-.33,0c-2.36-2.78-1.36-6.92-1.45-10.56-.13-5.31-3.39-10.68-8.44-12.37a11.39,11.39,0,0,0-2.19-.51c4.28-2.71,10.33-4.41,15.24-3.56a11.1,11.1,0,0,1,3.85,1.4c1.94,1.18,3.77,2.82,6,3.06a13.42,13.42,0,0,1,2.2.19,4.42,4.42,0,0,1,2.22,1.74A9.69,9.69,0,0,1,179.57,761Z"/><path class="cls-31" d="M184.93,789.67a13.72,13.72,0,0,0-2-8.32c-2.11-3.36-5.76-6-6.25-10-.12-.92-.29-4-.53-5.94v0a37,37,0,0,0,3.39-4.44,9.69,9.69,0,0,0-.7-10.25,4.42,4.42,0,0,0-2.22-1.74,13.42,13.42,0,0,0-2.2-.19c-2.26-.24-4.09-1.88-6-3.06a11.1,11.1,0,0,0-3.85-1.4c-3.24-2.75-6.78-6.77-8.19-10.14-.91-2.16-1.17-4.72-2.86-6.34a4.18,4.18,0,0,0-1-.75,164,164,0,0,1,20.39,2.11h0l1.58.27a14.19,14.19,0,0,1,3.92,1.1c4.85,2.41,5.6,8.84,8.21,13.58,1.16,2.1,2.75,3.94,4.09,5.92C198.88,762.22,196.19,780.39,184.93,789.67Z"/><path class="cls-32" d="M137,719.67l-13,10.64A14.43,14.43,0,0,0,120.5,734c-2.47,4.21-2.49,15.1-.23,20a16.16,16.16,0,0,1-5.14,1.44c-2.6.16-5.11-.92-7.67-1.37a8.48,8.48,0,0,0-5.26.6c-.18-.42-.35-.77-.37-.85-.72-2.2-1.33-4.94.33-6.55a21.73,21.73,0,0,0,5.79-9.87,16.77,16.77,0,0,1,2-4.45c3.66-6,9.26-11.55,16.28-12.37C129.85,720.14,133.61,721,137,719.67Z"/><path class="cls-33" d="M129.42,758.52h0a3.14,3.14,0,0,1,3.67-2.25l1.11.24a2.21,2.21,0,0,1,.49.09,13.83,13.83,0,0,1,2.56,1.39c1.94,1,4.34.84,6.28,1.86a11,11,0,0,1,2.57,2q3.92,3.84,7.85,7.65a14.11,14.11,0,0,0,3.55,2.81,1.6,1.6,0,0,0,.37.12,2.2,2.2,0,0,0,.77,0,9.69,9.69,0,0,0,3.09-1.11c.63,0,1.34.09,2.11.12-2.47,4.58-9.33,10.31-13.59,11.53a23.25,23.25,0,0,1-14.62-1.1,16.34,16.34,0,0,1-4.53-2.51c-3.32-2.76-4.67-7.33-4.46-11.66,0-.23,0-.47,0-.7a20.76,20.76,0,0,1,2.73-8.54Z"/><path class="cls-23" d="M310.43,837.24a163.87,163.87,0,0,0-20.38-2.11,6.94,6.94,0,0,0-5.6-.29,19.37,19.37,0,0,0-5.86,3.84c-7.1,6-14.41,12.85-17.42,21.37a17.55,17.55,0,0,1-3.35,1.92c-2.26-4.89-2.24-15.78.23-20a14.43,14.43,0,0,1,3.52-3.67l12.95-10.64h0c1.82-1.51,3.67-3,5.49-4.52,2.28-1.88,4.73-3.82,7.65-4.1,4.44-.44,8.28,3.06,10.85,6.7C300.67,828.74,306.34,834.15,310.43,837.24Z"/><path class="cls-24" d="M299.28,879.39a10.38,10.38,0,0,1-3,1.11,2.81,2.81,0,0,1-.77,0,2.29,2.29,0,0,1-.37-.12,14.39,14.39,0,0,1-3.56-2.81l-7.84-7.66a11.48,11.48,0,0,0-2.57-2c-1.95-1-4.34-.84-6.28-1.86a14.44,14.44,0,0,0-2.56-1.38,2.37,2.37,0,0,0-.49-.1,3.48,3.48,0,0,0-.79,0,5.12,5.12,0,0,0-2.68,1.27h0c-.34-.2-.87.12-1.2.52a9.11,9.11,0,0,1,3.71-6.55,20.35,20.35,0,0,1,8.34-3.31,22.82,22.82,0,0,1,7.71-.52,12.38,12.38,0,0,1,2.19.51c5.05,1.69,8.31,7.06,8.44,12.37.09,3.64-.92,7.79,1.44,10.56Z"/><path class="cls-24" d="M295.42,880.48a1.39,1.39,0,0,1-.41-.12,14.16,14.16,0,0,1-3.56-2.81q-3.92-3.81-7.84-7.65a11.48,11.48,0,0,0-2.57-2c-2-1-4.34-.84-6.28-1.86a14.5,14.5,0,0,0-2.56-1.39,2.65,2.65,0,0,0-.44-.09,2.13,2.13,0,0,1,.48.09A13.83,13.83,0,0,1,274.8,866c1.95,1,4.34.84,6.28,1.86a11.31,11.31,0,0,1,2.58,2q3.9,3.84,7.84,7.65a14,14,0,0,0,3.56,2.81A1.52,1.52,0,0,0,295.42,880.48Z"/><path class="cls-25" d="M310.48,893.6c-.63,3.58-4.39,5.76-8,6.45s-7.32.4-10.79,1.48-6.59,3.62-10.19,4.54c-4.92,1.26-9.78-.57-14.25-3.29a70.21,70.21,0,0,1-5.9-4.11c-4.7-3.59-10-8.49-8.79-14.3.84-4.19,6.3-8.77,8.19-13.14a16.46,16.46,0,0,0,3.4,4.54c-.21,4.32,1.14,8.9,4.46,11.66a16.37,16.37,0,0,0,4.52,2.5,23.28,23.28,0,0,0,14.63,1.1c4.25-1.22,11.11-6.94,13.59-11.53a27,27,0,0,0,6.28-.37,9,9,0,0,0,.49,6C309.27,887.9,311,890.69,310.48,893.6Z"/><path class="cls-26" d="M267.3,902.78c-.49.27-1,.52-1.52.77a21.17,21.17,0,0,1-8.62,2.42,13.7,13.7,0,0,1-7.7-2.23h0a14.23,14.23,0,0,1-6.37-9.08c-.62-3.14-.18-6.57-1.68-9.39-.8-1.47-2-2.64-2.94-4-2.61-4-2-9.26-1.28-14a8.14,8.14,0,0,1,.84-3,4.32,4.32,0,0,1,1.74-1.63A8.49,8.49,0,0,1,245,862c2.56.45,5.07,1.53,7.67,1.37a16.16,16.16,0,0,0,5.14-1.44,17.55,17.55,0,0,0,3.35-1.92,24.2,24.2,0,0,0-1.24,5.25,10.62,10.62,0,0,0,.87,5.93c-1.89,4.37-7.35,8.95-8.19,13.14-1.17,5.81,4.09,10.71,8.79,14.3A70.21,70.21,0,0,0,267.3,902.78Z"/><path class="cls-27" d="M322.48,897.67h0a13.74,13.74,0,0,1-3.93,8.79,27.88,27.88,0,0,1-7.43,4.71l-12.85,6.31c-5.62,2.78-12.72,5.44-17.73,1.67a11.07,11.07,0,0,1-2.54-2.79c-1.28-2-2.16-4.27-3.29-6.36-1.48-2.77-5.54-6-8.92-6.45.51-.25,1-.5,1.52-.77,4.47,2.72,9.33,4.55,14.25,3.29,3.6-.92,6.64-3.41,10.19-4.54s7.22-.79,10.79-1.48,7.32-2.87,8-6.45c.51-2.91-1.21-5.7-2.31-8.44a9,9,0,0,1-.49-6,6.22,6.22,0,0,0,3.58-1.79,22.4,22.4,0,0,0,1.73-2.82c.23-.37.49-.72.75-1.06.23,1.95.4,5,.52,5.94.5,3.94,4.15,6.59,6.26,10A13.71,13.71,0,0,1,322.48,897.67Z"/><path class="cls-28" d="M278,916.36c-1.63.47-3.76,1-5,1.42a23.7,23.7,0,0,1-3.32.83c-4.64.64-9.12-1.73-13.22-4a11.85,11.85,0,0,1-2.92-2.06,11.32,11.32,0,0,1-2.07-3.8c-.67-1.65-1.33-3.33-2-5a13.7,13.7,0,0,0,7.7,2.23,21.17,21.17,0,0,0,8.62-2.42c3.38.43,7.44,3.68,8.92,6.45C275.83,912.09,276.71,914.4,278,916.36Z"/><path class="cls-29" d="M302.12,852.36c-4.9-.85-11,.85-15.24,3.56a22.76,22.76,0,0,0-7.7.52,20.34,20.34,0,0,0-8.34,3.3,9.11,9.11,0,0,0-3.71,6.56c-.06.07-.11.15-.16.22a20.89,20.89,0,0,0-2.72,8.55c0,.22,0,.46-.05.7a16.46,16.46,0,0,1-3.4-4.54,10.62,10.62,0,0,1-.87-5.93,24.2,24.2,0,0,1,1.24-5.25c3-8.52,10.32-15.36,17.42-21.37a19.37,19.37,0,0,1,5.86-3.84,6.94,6.94,0,0,1,5.6.29,4.59,4.59,0,0,1,1,.75c1.68,1.62,1.94,4.18,2.85,6.34C295.34,845.59,298.89,849.61,302.12,852.36Z"/><path class="cls-30" d="M317.13,869a38,38,0,0,1-3.39,4.44v0c-.26.34-.52.69-.75,1.06a22.4,22.4,0,0,1-1.73,2.82,6.22,6.22,0,0,1-3.58,1.79,27,27,0,0,1-6.28.37c-.77,0-1.48-.07-2.11-.12l-.33,0c-2.36-2.78-1.35-6.92-1.45-10.56-.13-5.31-3.39-10.68-8.44-12.37a11.22,11.22,0,0,0-2.19-.51c4.28-2.71,10.34-4.41,15.24-3.56a11.1,11.1,0,0,1,3.85,1.4c1.95,1.18,3.77,2.82,6,3.06a13.3,13.3,0,0,1,2.19.19,4.49,4.49,0,0,1,2.23,1.74A9.71,9.71,0,0,1,317.13,869Z"/><path class="cls-31" d="M322.48,897.67a13.71,13.71,0,0,0-2-8.32c-2.11-3.36-5.76-6-6.26-10-.12-.92-.29-4-.52-5.94v0a38,38,0,0,0,3.39-4.44,9.71,9.71,0,0,0-.7-10.25A4.49,4.49,0,0,0,314.2,857a13.3,13.3,0,0,0-2.19-.19c-2.27-.24-4.09-1.88-6-3.06a11.1,11.1,0,0,0-3.85-1.4c-3.23-2.75-6.78-6.77-8.19-10.14-.91-2.16-1.17-4.72-2.85-6.34a4.59,4.59,0,0,0-1-.75,163.87,163.87,0,0,1,20.38,2.11h0l1.58.27a14.19,14.19,0,0,1,3.92,1.1c4.85,2.41,5.61,8.84,8.21,13.58,1.17,2.1,2.75,3.94,4.09,5.92C336.43,870.22,333.74,888.39,322.48,897.67Z"/><path class="cls-32" d="M274.52,827.67l-12.95,10.64a14.43,14.43,0,0,0-3.52,3.67c-2.47,4.21-2.49,15.1-.23,20a16.16,16.16,0,0,1-5.14,1.44c-2.6.16-5.11-.92-7.67-1.37a8.49,8.49,0,0,0-5.26.6c-.18-.42-.34-.77-.37-.85-.72-2.2-1.32-4.94.34-6.55a21.72,21.72,0,0,0,5.78-9.87,17.09,17.09,0,0,1,2.05-4.45c3.66-6,9.27-11.55,16.28-12.37C267.4,828.14,271.17,829,274.52,827.67Z"/><path class="cls-33" d="M267,866.52h0a3.14,3.14,0,0,1,3.67-2.25l1.12.24a2.13,2.13,0,0,1,.48.09A13.83,13.83,0,0,1,274.8,866c1.95,1,4.34.84,6.28,1.86a11.31,11.31,0,0,1,2.58,2q3.9,3.84,7.84,7.65a14,14,0,0,0,3.56,2.81,1.52,1.52,0,0,0,.36.12,2.2,2.2,0,0,0,.77,0,9.74,9.74,0,0,0,3.1-1.11c.63,0,1.34.09,2.11.12-2.48,4.58-9.34,10.31-13.6,11.53a23.25,23.25,0,0,1-14.62-1.1,16.34,16.34,0,0,1-4.53-2.51c-3.32-2.76-4.67-7.33-4.45-11.66,0-.23,0-.47,0-.7a20.9,20.9,0,0,1,2.73-8.54Z"/><path class="cls-34" d="M231.38,713.27a.67.67,0,0,1,.39-.17h.64l-.83.61a.21.21,0,0,1-.25,0,.71.71,0,0,1-.28-.35.6.6,0,0,1,.27-.36.28.28,0,0,1,.28,0l-.19.62A.83.83,0,0,1,231.38,713.27Z"/><path class="cls-35" d="M295.81,788.19a1.61,1.61,0,0,1,.17.54h0v0c0,.18,0,.35,0,.52,0,0,0,0,0,0a3.33,3.33,0,0,1-3.27,2.7c-2-.06-3.6-1.48-4.94-2.92-7.3-7.93-10.89-18.45-15.28-28.29-.58-1.3-1.16-2.59-1.79-3.87-8.66-18-21.35-34.69-39.15-43.54,7.17.08,14.77,5.85,19.68,11.06a192.52,192.52,0,0,1,19.86,24.89,7.41,7.41,0,0,0,1.92,2.92h0l0,0q5.3,8.22,9.76,17c.62,1.21,1.23,2.45,1.83,3.69,2.43,5,4.84,10.42,9.4,13.66A5,5,0,0,1,295.81,788.19Z"/><path class="cls-34" d="M280.29,747.94a1.48,1.48,0,0,1-.66-1.87,1.45,1.45,0,0,1,.66,1.87Z"/><path class="cls-34" d="M263.47,694.63h-.06l.13,0h0v0c.21-.06.28,0,.3,0s0,.16-.28.29-.38,0-.41,0,0-.07.18-.22v0l.05,0,.12,0Z"/><path class="cls-34" d="M282.32,765.51a1.09,1.09,0,0,1-.65-1.53,1.07,1.07,0,0,1,.68.61A1.1,1.1,0,0,1,282.32,765.51Z"/><path class="cls-36" d="M295.62,671.51q-5.39,22.59-8.81,45.59a122.7,122.7,0,0,0-1.53,15.07c0,2,0,4.05.14,6v0c.64,11,3.6,21.83,6.88,32.4A77.22,77.22,0,0,1,296,788.73a1.61,1.61,0,0,0-.17-.54,5,5,0,0,0-1.74-1.62c-4.56-3.24-7-8.63-9.4-13.66-.6-1.24-1.21-2.48-1.83-3.69-.44-1.74-.84-3.48-1.18-5.24a112.15,112.15,0,0,1-2-17.91,131.72,131.72,0,0,1,.9-20.77,164.49,164.49,0,0,1,6.71-30.39C289.77,687,292.55,679.2,295.62,671.51Z"/><path class="cls-37" d="M231.59,713.38c17.8,8.85,30.49,25.54,39.15,43.54-3.15.12-7.37-2.1-8.39-5-3,1-6.28-3.06-4.58-5.79a5.33,5.33,0,0,1-7-.79c-1.17-1.37-1.82-3.5-3.59-3.84-1.59-.3-3.3,1.12-4.74.4-1.07-.54-1.38-2-2.35-2.65-1.94-1.36-4.65,1.08-6.86.25s-2.4-4.44-4.65-5.3c-1.75-.66-3.64.74-5.47.53-2.49-.3-3.66-3.24-3.85-5.72s0-5.26-1.56-7.18a16.86,16.86,0,0,0-2.4-2.05c-3.91-3.23-4.92-8.72-5.69-13.74a4.64,4.64,0,0,1,.11-2.54c1-2.31,4.87-1.57,6.49-3.52.87-1.06.85-2.71,1.83-3.69,2.46-2.4,6.44,2.1,9.72,1.1.93-.29,1.75-1,2.71-.92,1.3.12,2,1.56,2.86,2.49a2.22,2.22,0,0,0,2.42.39,20.9,20.9,0,0,1,3.24,3.5c1.68,2.79,1,6.79,3.32,9s5.73,1.39,8.74,1,6.93.1,7.76,3c.43,1.5-.18,3.08-.33,4.63-.67,7,7.48,11.38,10.18,17.85,1.32,3.14,1.22,7.63,2.52,11a192.52,192.52,0,0,0-19.86-24.89C246.36,719.23,238.76,713.46,231.59,713.38Z"/><path class="cls-34" d="M236.13,698.47a.5.5,0,1,1-.43.9C235.75,698.65,235.61,699,236.13,698.47Z"/><path class="cls-34" d="M271.2,756.9c0,.3-.12.38-.2.39s-.18-.07-.25-.37.13-.38.2-.4S271.08,756.6,271.2,756.9Z"/><path class="cls-38" d="M279.87,746.45c0,6.13,1.18,12.31,2.33,18.35-4.76-10.34-11.89-25.11-13.5-35.86-1.72-11.37-.43-23.75-5.1-34.05A100.48,100.48,0,0,1,274,729.79C274.75,737.12,277.53,740.81,279.87,746.45Z"/><path class="cls-39" d="M278.32,672c-2.26-1.35-5.34-1.33-7.2-3.15-.09-.08-.17-.17-.25-.25-.73-.83-1.14-1.94-2-2.64-2.1-1.7-5.2,0-7.12,1.92s-4.18,4.23-6.84,3.67a7,7,0,0,0-2-.41c-3.17.32-1.39,7.12-4.56,7.53a8,8,0,0,1-2.42-.49c-2.29-.35-4.13,2-4.75,4.22s-.64,4.71-1.92,6.63c-1.64,2.44-5.2,3.82-5.33,6.76-.08,1.62.88,2.84,2.08,4a21,21,0,0,1,3.24,3.51c1.68,2.78,1,6.78,3.33,9,2.2,2.09,5.72,1.39,8.73,1s6.93.1,7.76,3c.43,1.5-.18,3.08-.33,4.63-.67,7,7.48,11.38,10.18,17.85,1.32,3.14,1.22,7.63,2.52,11,.65,1,1.29,1.94,1.92,2.92h0l0,0q5.3,8.22,9.76,17c-.44-1.74-.84-3.48-1.18-5.24-4.4-10.33-11-25.12-12.69-35.68-1.82-11.17-1-23.12-5.37-33.41a115.62,115.62,0,0,1,9.93,34.53c.89,7.19,3.92,11,6.1,16.65a131.54,131.54,0,0,1,.9-20.76,20.07,20.07,0,0,0-2.34-3.83c-1.16-1.76-2-4.2-.73-5.88.79-1,2.23-1.51,2.8-2.68.92-1.88-1-4-.87-6a14.81,14.81,0,0,1,.71-2.69c.76-2.93-.63-5.94-.91-9a19.83,19.83,0,0,1,.87-7c.45-1.79,1-3.55,1.35-5.35C282.47,679.18,281.91,674.15,278.32,672Zm-15.89,20.35a27.54,27.54,0,0,1,1.28,2.69C263.3,694.09,262.87,693.2,262.43,692.31Z"/><path class="cls-40" d="M304.91,670.55c-1.36,2.59-3.45,4.93-3.82,7.83-.35,2.53.67,5.21-.13,7.63-1.19,3.53-5.76,5.11-6.79,8.69-.77,2.68.7,5.77-.6,8.24a21.64,21.64,0,0,1-2.23,2.77c-2.86,3.84-.7,9.22-.69,14,0,6-4.12,12.41-5.23,18.48-.15-2-.19-4-.14-6a122.7,122.7,0,0,1,1.53-15.07q3.42-23,8.81-45.59c-3.07,7.69-5.85,15.51-8.38,23.4a164.49,164.49,0,0,0-6.71,30.39,20.31,20.31,0,0,0-2.34-3.82c-1.16-1.76-2-4.2-.73-5.88.79-1,2.23-1.51,2.8-2.68.92-1.88-1-4-.87-6a15.65,15.65,0,0,1,.7-2.69c.77-2.93-.62-5.94-.9-9a19.6,19.6,0,0,1,.87-7c.45-1.79,1-3.55,1.35-5.35.82-4.12.25-9.15-3.34-11.34-2.25-1.35-5.33-1.33-7.19-3.15,1.62-3.26,3.25-6.5,4.87-9.76.89-1.78,2-3.75,4-4.18,2.61-.58,4.94,2,7.6,2.09,3.1.14,6-3,8.92-2s3.25,4.91,5.68,6.58c.76.52,1.67.79,2.4,1.33C306.66,664.26,306.26,668,304.91,670.55Z"/><path class="cls-34" d="M292.35,677.91c-.6-1.61-1.14-3.23-1.69-4.85l-1.6-4.87-1.54-4.89c-.5-1.64-1-3.27-1.46-4.93.75,1.55,1.4,3.14,2,4.73s1.19,3.22,1.72,4.85,1,3.28,1.43,4.94S292.05,676.22,292.35,677.91Z"/><path class="cls-34" d="M288.92,686.94a26.88,26.88,0,0,1-2.36-3.6,33.16,33.16,0,0,1-3.2-8,27.75,27.75,0,0,1-.78-4.24c.45,1.37.88,2.73,1.35,4.07s.95,2.67,1.49,4,1.09,2.62,1.67,3.92S288.3,685.65,288.92,686.94Z"/><path class="cls-34" d="M285.3,698.77a30.66,30.66,0,0,1-3.25-5.26,32,32,0,0,1-2.23-5.77c1.09,1.77,2,3.59,2.92,5.42S284.54,696.84,285.3,698.77Z"/><path class="cls-34" d="M263.94,694.87c0-1.7.15-3.39.28-5.07s.3-3.37.48-5.06.4-3.35.66-5,.52-3.34.87-5c0,1.7-.15,3.39-.28,5.08s-.3,3.37-.48,5.05-.41,3.36-.67,5S264.28,693.21,263.94,694.87Z"/><path class="cls-34" d="M267.56,702.33a32.16,32.16,0,0,1,2.06-4.83c.78-1.57,1.62-3.09,2.36-4.66a27.79,27.79,0,0,0,1.83-4.82,15.76,15.76,0,0,0,.53-5.13,12,12,0,0,1,.05,5.26,21.4,21.4,0,0,1-1.71,5c-.77,1.59-1.64,3.11-2.54,4.61S268.37,700.78,267.56,702.33Z"/><path class="cls-34" d="M270.89,715c.42-1.35.89-2.67,1.34-4l1.38-4,1.4-4c.47-1.32.92-2.65,1.44-4a41.89,41.89,0,0,1-.87,4.15c-.35,1.37-.78,2.71-1.24,4s-1,2.65-1.56,3.94A38.06,38.06,0,0,1,270.89,715Z"/><path class="cls-34" d="M263.83,694.83a21.78,21.78,0,0,1-4.43-2.8,33.34,33.34,0,0,1-3.81-3.61,50.78,50.78,0,0,1-3.27-4.08c-1-1.42-2-2.86-2.89-4.36,1.15,1.31,2.24,2.66,3.35,4s2.22,2.66,3.39,3.93,2.36,2.51,3.62,3.68A41,41,0,0,0,263.83,694.83Z"/><path class="cls-34" d="M265.73,705.64a32.07,32.07,0,0,1-6.14-1.53,39,39,0,0,1-5.77-2.64,38.28,38.28,0,0,1-5.23-3.61,32.15,32.15,0,0,1-4.47-4.49,57.61,57.61,0,0,0,4.84,4,46.09,46.09,0,0,0,5.24,3.41,44.15,44.15,0,0,0,5.61,2.75A57.67,57.67,0,0,0,265.73,705.64Z"/><path class="cls-34" d="M267,717.73a13.46,13.46,0,0,1-4.28-1.45,13.65,13.65,0,0,1-3.63-2.69c1.39.62,2.68,1.33,4,2S265.67,717,267,717.73Z"/><path class="cls-34" d="M238.7,719.19a8.58,8.58,0,0,1-4.27.28,20.88,20.88,0,0,1-4.14-1.18c-1.33-.5-2.63-1-3.95-1.5a17.24,17.24,0,0,0-4.09-.94,11.38,11.38,0,0,1,4.26.37,40.9,40.9,0,0,1,4.05,1.35,37.09,37.09,0,0,0,4,1.32A11.17,11.17,0,0,0,238.7,719.19Z"/><path class="cls-34" d="M249.45,726.89a24.91,24.91,0,0,1-4.87,1.92,28.37,28.37,0,0,1-5.17,1,28,28,0,0,1-5.26,0,25.67,25.67,0,0,1-5.14-1c1.73.21,3.45.36,5.18.4a44.14,44.14,0,0,0,10.25-.94C246.12,727.88,247.79,727.41,249.45,726.89Z"/><path class="cls-34" d="M257.84,736.56a36.55,36.55,0,0,1-11.58,3.65,57.45,57.45,0,0,1,5.71-2.08A60.3,60.3,0,0,1,257.84,736.56Z"/><path class="cls-34" d="M237,713.66a2,2,0,0,0-.83-1.93c-.54-.49-1.18-1-1.78-1.41-1.21-.9-2.45-1.78-3.72-2.6s-2.58-1.59-3.9-2.33-2.7-1.41-4.07-2.09a26,26,0,0,1,4.33,1.56,30.09,30.09,0,0,1,4.06,2.21,31,31,0,0,1,3.68,2.8,21,21,0,0,1,1.67,1.61,3.64,3.64,0,0,1,.61,1A1.42,1.42,0,0,1,237,713.66Z"/><path class="cls-34" d="M130.3,878.64a.69.69,0,0,1,.06-.5l.36-.73.14,1.29a.26.26,0,0,1-.13.27.86.86,0,0,1-.52.07.68.68,0,0,1-.2-.48.33.33,0,0,1,.19-.28l.5.56A.94.94,0,0,1,130.3,878.64Z"/><path class="cls-35" d="M244.7,857.57a2,2,0,0,1,.66.14h0a5.52,5.52,0,0,0,.54.28l0,0a3.91,3.91,0,0,1,.8,4.92c-1.22,2-3.64,2.78-5.9,3.29-12.38,2.72-25.22.13-37.83-1.25-1.66-.18-3.32-.34-5-.47-23.45-1.87-47.94,1.13-67.51,14,4.34-7.25,14.72-11.56,22.93-13.46a226.5,226.5,0,0,1,37.08-5.43,8.61,8.61,0,0,0,4.11-.22h0a226.42,226.42,0,0,1,23,.14c1.61.08,3.23.19,4.85.32,6.56.52,13.47,1.26,19.46-1.45A5.84,5.84,0,0,1,244.7,857.57Z"/><path class="cls-34" d="M194.57,849.47a1.79,1.79,0,0,1-1.23.23,1.69,1.69,0,0,1-1.06-.67,1.71,1.71,0,0,1,2.29.44Z"/><path class="cls-34" d="M130.38,834.94l0,.08,0-.16,0-.06h0c.06-.24.14-.29.21-.28s.14.13.12.47-.17.4-.21.43-.07-.07-.12-.32h0V835l0-.16Z"/><path class="cls-34" d="M213.64,857.83a1.34,1.34,0,0,1-1,.33,1.29,1.29,0,0,1-.92-.57,1.27,1.27,0,0,1,1-.33A1.26,1.26,0,0,1,213.64,857.83Z"/><path class="cls-36" d="M125.94,788.54q19.77,18.87,41.13,36A145.32,145.32,0,0,0,181.49,835c2,1.25,4.11,2.41,6.23,3.45l0,0c11.58,5.88,24.34,9.29,37,12.22,6.85,1.59,14.28,3.77,20.58,7a2,2,0,0,0-.66-.14,5.84,5.84,0,0,0-2.68.81c-6,2.71-12.9,2-19.46,1.45-1.62-.13-3.24-.24-4.85-.32-2-.59-4-1.22-6-1.92A131.06,131.06,0,0,1,192.28,849a157,157,0,0,1-20.59-13.24,192.8,192.8,0,0,1-26.92-24.86C138.24,803.69,131.94,796.23,125.94,788.54Z"/><path class="cls-37" d="M130.53,878.5c19.57-12.86,44.06-15.86,67.51-14-1.75,3.27-6.51,6.25-10,5.57-.74,3.71-6.84,4.58-8.6,1.23a6.27,6.27,0,0,1-5,6.7c-2.08.37-4.64-.22-6,1.37s-.82,4-2.4,5.06c-1.19.77-2.83.24-4.1.81-2.53,1.17-1.65,5.38-3.81,7.13s-5.95-.19-8.15,1.59c-1.71,1.38-1.4,4.14-2.71,5.88-1.78,2.35-5.46,1.79-8.09.51s-5.34-3.14-8.23-2.67a19.51,19.51,0,0,0-3.51,1.23c-5.61,2.06-11.79-.17-17.35-2.37a5.46,5.46,0,0,1-2.52-1.61c-1.73-2.43,1.3-5.89.27-8.69-.56-1.52-2.25-2.48-2.66-4.06-1-3.92,6-5.3,6.88-9.22.26-1.12,0-2.39.67-3.31.89-1.25,2.75-1.06,4.23-1.43a2.63,2.63,0,0,0,1.84-2.22,23.88,23.88,0,0,1,5.48-1.22c3.83-.06,7.47,3.05,11.15,2,3.44-1,4.8-5,6.15-8.32s4.21-7,7.69-6.09c1.78.45,3,2,4.52,3.09,6.69,4.82,16-.86,24.19.23,4,.52,8.48,3.29,12.63,3.94A226.5,226.5,0,0,0,153.46,865C145.25,866.94,134.87,871.25,130.53,878.5Z"/><path class="cls-34" d="M118.07,865a.59.59,0,1,1,.66,1C118,865.53,118.25,865.85,118.07,865Z"/><path class="cls-34" d="M198.29,864c.29.21.31.34.28.44s-.18.14-.53,0-.31-.36-.28-.43S197.91,864,198.29,864Z"/><path class="cls-38" d="M192.81,849c6.24,3.62,13.21,6.1,20,8.51-13.34-1.29-32.58-2.81-44.47-7.54-12.58-5-24.4-13.66-37.66-15a118.16,118.16,0,0,1,41.66,10.14C180.28,848.68,185.68,848.05,192.81,849Z"/><path class="cls-39" d="M116.14,806.41c-2.72,1.48-4.53,4.63-7.48,5.45a3,3,0,0,1-.41.09c-1.27.27-2.64,0-3.87.49-3,1.13-3.09,5.29-2.28,8.39s1.82,6.76-.32,9.13a8.13,8.13,0,0,0-1.63,1.84c-1.55,3.41,6.41,5.64,4.95,9.11-.37.9-1.32,1.42-1.94,2.17-1.71,2.12-.43,5.38,1.47,7.32s4.42,3.45,5.6,5.9c1.52,3.12.81,7.55,3.72,9.43,1.6,1,3.42.78,5.31.26a23.88,23.88,0,0,1,5.48-1.22c3.83-.06,7.47,3.05,11.15,2,3.44-1,4.8-5,6.15-8.32s4.21-7,7.69-6.09c1.78.45,3,2,4.52,3.09,6.69,4.82,16-.86,24.19.23,4,.52,8.48,3.29,12.63,3.94,1.37-.09,2.74-.16,4.11-.22h0a226.42,226.42,0,0,1,23,.14c-2-.59-4-1.22-6-1.92-13.12-1.65-32.05-3.74-43.81-8.26C156,844.54,144.28,836.66,131.24,835a136,136,0,0,1,41,10.38c7.83,3.36,13.54,2.56,20.55,3.68a157,157,0,0,1-20.59-13.24,24,24,0,0,0-5.28.1c-2.47.14-5.46-.44-6.41-2.74-.59-1.41-.21-3.16-1.06-4.43-1.37-2.05-4.6-1.37-6.65-2.7a16.88,16.88,0,0,1-2.32-2.31c-2.52-2.51-6.41-2.88-9.64-4.38a23.34,23.34,0,0,1-6.58-5c-1.54-1.52-3-3.12-4.63-4.55C125.94,806.47,120.48,804.05,116.14,806.41Zm11.26,28.23a33.51,33.51,0,0,1,3.49.28C129.73,834.81,128.57,834.71,127.4,834.64Z"/><path class="cls-40" d="M130.47,778.53c1.83,2.92,3,6.43,5.7,8.53,2.37,1.85,5.7,2.4,7.68,4.65,2.89,3.31,1.79,8.89,4.82,12.06,2.26,2.37,6.27,2.72,8,5.5.76,1.18.94,2.62,1.5,3.92,2.21,5.18,9,6.17,13.85,9,6.14,3.58,10.17,11.56,15.69,16.29-2.12-1-4.2-2.2-6.23-3.45a145.32,145.32,0,0,1-14.42-10.49q-21.31-17.12-41.13-36c6,7.69,12.3,15.15,18.83,22.4a192.8,192.8,0,0,0,26.92,24.86,24,24,0,0,0-5.28.1c-2.47.14-5.46-.44-6.41-2.74-.59-1.41-.22-3.16-1.06-4.43-1.37-2.05-4.6-1.37-6.65-2.7a16.88,16.88,0,0,1-2.32-2.31c-2.52-2.51-6.41-2.89-9.64-4.38a23.34,23.34,0,0,1-6.58-5c-1.54-1.52-3-3.12-4.64-4.55-3.7-3.27-9.16-5.69-13.5-3.33-2.72,1.48-4.53,4.63-7.48,5.45l-7-10.75c-1.28-2-2.61-4.28-1.91-6.51,1-3,4.94-3.86,6.63-6.48,2-3.08.5-7.88,3.29-10.25,2.64-2.26,6.92-.39,10.06-1.87,1-.47,1.78-1.23,2.78-1.66C125.12,773,128.63,775.61,130.47,778.53Z"/><path class="cls-34" d="M130.51,795.67c-4-.71-7.91-1.58-11.84-2.43s-7.85-1.73-11.76-2.77a91.26,91.26,0,0,1,12,1.88A90.8,90.8,0,0,1,130.51,795.67Z"/><path class="cls-34" d="M137.66,804.51a38.59,38.59,0,0,1-19.86-3c3.3.72,6.56,1.42,9.87,1.89S134.29,804.25,137.66,804.51Z"/><path class="cls-34" d="M147.54,815.21a36.18,36.18,0,0,1-7.28.18,36.54,36.54,0,0,1-7.19-1.16c2.44-.05,4.84.1,7.25.25S145.13,814.83,147.54,815.21Z"/><path class="cls-34" d="M130.9,834.62c-3.4-2.1-6.64-4.41-9.84-6.79s-6.33-4.84-9.31-7.51c3.41,2.1,6.65,4.41,9.85,6.79S127.92,832,130.9,834.62Z"/><path class="cls-34" d="M140.64,835.36c-2.79-3.07-4.73-6.78-7-10.12a32.31,32.31,0,0,0-3.82-4.72,18.39,18.39,0,0,0-4.9-3.59,14.12,14.12,0,0,1,5.38,3.07,25.18,25.18,0,0,1,4.09,4.72C136.69,828.17,138.43,831.88,140.64,835.36Z"/><path class="cls-34" d="M155.52,839.51c-2.24-2.47-4.35-5-6.5-7.51s-4.31-5-6.4-7.59a54.53,54.53,0,0,1,7.09,7A55.12,55.12,0,0,1,155.52,839.51Z"/><path class="cls-34" d="M130.8,834.71a31.49,31.49,0,0,1-11.41,4.56,65.52,65.52,0,0,1-12.24,1.27c4-.78,8.08-1.31,12-2.16A53.58,53.58,0,0,0,130.8,834.71Z"/><path class="cls-34" d="M142.92,839.18a37.42,37.42,0,0,1-5.2,5.33A42.08,42.08,0,0,1,124.83,852a37.5,37.5,0,0,1-7.21,1.88,72.09,72.09,0,0,0,7-2.53,62.12,62.12,0,0,0,6.57-3.31,60.87,60.87,0,0,0,6.13-4.07A71,71,0,0,0,142.92,839.18Z"/><path class="cls-34" d="M156,845.1a17.37,17.37,0,0,1-8.9,5.58c1.45-1,2.94-1.93,4.4-2.87S154.37,846,156,845.1Z"/><path class="cls-34" d="M140.66,874.71a10.11,10.11,0,0,1-2.25,4.52,26.23,26.23,0,0,1-3.65,3.5c-2.59,2.11-5.31,4-7.26,6.73a13.36,13.36,0,0,1,2.91-4.12,45.57,45.57,0,0,1,3.78-3.32,41.24,41.24,0,0,0,3.7-3.26A13.56,13.56,0,0,0,140.66,874.71Z"/><path class="cls-34" d="M154.87,868.35a33,33,0,0,1-10.21,21.9,53.48,53.48,0,0,0,10.21-21.9Z"/><path class="cls-34" d="M169.67,865.55a39.29,39.29,0,0,1-1,7.1,38.52,38.52,0,0,1-2.16,6.84,68.66,68.66,0,0,1,1.27-7A71.24,71.24,0,0,1,169.67,865.55Z"/><path class="cls-34" d="M134,873.15a2.37,2.37,0,0,0-2.46-.29c-.82.26-1.66.64-2.48,1-1.65.69-3.27,1.43-4.86,2.24a86.59,86.59,0,0,0-9.23,5.49,34.62,34.62,0,0,1,8.82-6.3,37.19,37.19,0,0,1,5-2.09,22.3,22.3,0,0,1,2.64-.74,4.11,4.11,0,0,1,1.4,0A1.7,1.7,0,0,1,134,873.15Z"/><path class="cls-41" d="M341.93,870a26.38,26.38,0,0,0-8.49,14.55c-1.9,9.67,2.41,20.07,10.06,26.3s18.2,8.37,27.89,6.58c10.11-1.87,20-8.87,22-19,.89-4.65,0-9.45-1.24-14-1.8-6.41-4.57-12.8-9.51-17.27C372.53,858,351.48,861.6,341.93,870Z"/><path class="cls-8" d="M350.29,878c2.81-4.59,6-9.48,11-11.33a12.47,12.47,0,0,1,15.23,6.72c-1.59-3.83-3.67-7.7-7.16-9.94a11.48,11.48,0,0,0,4.15-8.92l-9.37,7.8,3.3-11-7.32,11,2.36-11.91-5.35,11.55A22.92,22.92,0,0,0,344.68,852l8.41,7.62-13.95,1A26.56,26.56,0,0,0,346.6,864c1.91.52,4.81.57,6.36,1.95,1.87,1.67,1.11,2.67.19,4.72C352.17,872.87,351.52,876,350.29,878Z"/><path class="cls-42" d="M398.35,855.57s-22.57-3.88-27.19-20.08S382,815,378.36,805.6s-2.22-21.51,3.11-22.58-.35-9.24,5.69-13.86,12.68-6.4,13.63,0,3.79,12.44,10.19,11.73.71,8.17,3.2,12.08,11.73-.65,11.73,11,.35,15.64,5.33,21.32-18.38,35.61-32.89,30.25Z"/><path class="cls-43" d="M388,890.47s3,7.64,9.44,3.67,5.23-44.89,5.23-44.89,17.36-7.94,20.4-21.69c0,0-8.71,13.86-21.19,18.13l-.12-8.53s19.62-9.9,23-25.17c0,0-9.95,18.65-23.7,19.81l-.4-8.51s17.36-7.64,18.71-22c0,0-10.62,15-19.39,17.1l-1.05-13.77s10.32-3.94,11.67-10c0,0-6.42,6.74-12.16,7.35,0,0-4.36-8.88,7.95-20.18a15.69,15.69,0,0,0-8.65,7.78s-2.31-17.55-5-21.21a229.52,229.52,0,0,1,2.86,24.73s-14.33-3.36-16.35-8.85c0,0,2.79,9,16,12l1.35,13.34s-13.65-3-19.38-7.63c0,0,5.39,6.87,19.72,12.21,0,0,1.69,6.72,1,11,0,0-14.33-.31-23.43-8.25,0,0,2.52,5.5,23.09,11.91a105.67,105.67,0,0,1,0,12.83s-15.33-5.5-20.39-11.3c0,0,4.55,9.16,20.06,15.27,0,0,.7,32.7-9.27,44.89Z"/><path class="cls-44" d="M381.25,864.05a61.26,61.26,0,0,0-18-9c-10.82-3.34-18.15-9.72-11.78-17.47s-4.95-2.9-8.53-16.35,4.4-11.26,7.6-12.88-8.33-7.29-2.39-14.22,17.31-7.56,20.09,2.35,2.66,13.55,10.47,13,14.71,4,15.08,14.14,7.28,7.46,3.92,18.56-5.42,28.2-16.42,21.85Z"/><path class="cls-43" d="M390,892.47s4.59,5,7.77.06-9.12-36.86-9.12-36.86,7.78-10.46,5.44-21.94c0,0,.92,12.07-6.4,19l-2.66-6.35s7.79-12.41,5.19-25.16c0,0-.65,16.88-7.29,22.16l-4.1-7.13S386.73,826,383,814.59c0,0-.8,13.9-6.22,18.11l-5.23-9.15s4.2-6.47,3.16-11.57c0,0-1.49,7-5.29,9.15,0,0-6.73-5.48-1.81-17.79,0,0-4.25,2.06-4.13,8.93,0,0-6.68-13.24-9.74-15.28,0,0,3.72,9.51,8.24,19,0,0-9.32.87-12.51-2.77,0,0,3.1,6.87,13.3,5.29l5.26,9.88s-8.75.92-14.24-.93c0,0,4.23,4.44,16,4.37,0,0,3.35,4.68,4.26,8.17a26.14,26.14,0,0,1-17.25-.22s1.78,4.23,18.2,3.14a43.61,43.61,0,0,1,4.16,9.88s-10.72-.48-16.13-3.46c0,0,4.38,6.46,17.18,6.62,0,0,11.11,25.77,9.83,36.55Z"/><path class="cls-45" d="M402.73,866.64s8.69-7.61,17.44-7.16,20.9-4.22,22.86-15.29,2.24-17.19,8-20.37-7.13-15-16.06-8.43-19-.35-25.63,8.23-17.44,46.24-6.63,43Z"/><path class="cls-43" d="M396.43,892.62s2.51-26.28,13.66-38.25c2.56-2.74,21.22-2.51,21.22-2.51a61.89,61.89,0,0,0-18.47-.51s4.55-9.67,8.84-9c1.69.27,16.57.41,19.42-3.06,0,0-14.06,2.25-19-.75,0,0,5.31-7.23,8.66-6.32,2.7.73,11.87-1,11.82-4.43a23.63,23.63,0,0,1-11.84,2,74.92,74.92,0,0,1,12.85-9.48s-5.31-.93-15.6,9.5c0,0-2.3-1.24-1.93-7.87a15.24,15.24,0,0,0,.2,9.49,52.82,52.82,0,0,0-7.08,6.2,27.7,27.7,0,0,1-2.1-11.1s-1,3.89,0,12.61c0,0-4.59,5-6.15,8.29s-2-7.78-.59-12.7c0,0-3.44,4.83-2,14.77a87.73,87.73,0,0,0-14.75,27.11c-5,15.65-.06,21.62,2.86,16Z"/><path class="cls-46" d="M421.1,730.85s11.66,0,15.94,5.95,8.81,10.47,11.19,11.9,2.38,35.21-40.45,53.54-44.26,3.33-32.37-35.7S421.1,730.85,421.1,730.85Z"/><path class="cls-47" d="M442,744.89s12.61-10.83,14.28-15.11c0,0,2,1.43,1.31,3.33s-10.47,12.73-13.21,13.8S442,744.89,442,744.89Z"/><path class="cls-48" d="M451,736.5s1.12.06-2-4.34.37-6.55-1.77-10.35-9.52-13.57-26.77-10.71-23,0-23,0S404,718,409,717.76,431.19,714,451,736.5Z"/><path class="cls-1" d="M295.93,778.88a5.48,5.48,0,0,0,3.51-7.4,5.55,5.55,0,0,0,2.6-3,4.75,4.75,0,0,0-.06-4.24,5.54,5.54,0,0,0,2.63-3,5.17,5.17,0,0,0,.2-3.72,5.78,5.78,0,0,0,2.12-2.93c.65-1.89.32-3.69-.68-4.5a5.59,5.59,0,0,0,2.58-3.39c.57-1.95.13-3.75-1-4.46a5.52,5.52,0,0,0,1.67-3.09c.35-1.85-.28-3.42-1.42-3.88a5.83,5.83,0,0,0,1-2.29c.41-2.19-.53-4-2.09-4h0a5.64,5.64,0,0,0,.13-1.37c-.08-1.93-1.22-3.2-2.61-3.09a2.52,2.52,0,0,0-1.48-2.13,2.85,2.85,0,0,0-2.69.72s0,0,0,0c-.87-1.34-2.85-1.18-4.43.34a6.07,6.07,0,0,0-.91,1.14c-1.19-.53-2.89.24-4,1.93a5.9,5.9,0,0,0-.91,2.31c-1.18-.38-2.76.4-3.83,2a5.48,5.48,0,0,0-.95,3.34c-1.33-.16-2.93.9-3.89,2.72a5.22,5.22,0,0,0-.49,4.14c-1.33,0-2.85,1.11-3.72,2.92a5.5,5.5,0,0,0-.5,3.51,5.65,5.65,0,0,0-2.5,2.9,5.11,5.11,0,0,0-.15,3.86,5.15,5.15,0,0,0-3.06,3.11,5.07,5.07,0,0,0-.17,3.84,5.17,5.17,0,0,0-3,3.1c-.76,1.85-.56,3.69.35,4.6a5.48,5.48,0,0,0-3.6,3.68c-.76,2.14-.38,4.21.81,5.06a5.93,5.93,0,0,0-2.95,3.64c-.67,2.12-.24,4.1.94,4.91a6.26,6.26,0,0,0-2.1,4.22c-.18,2,.58,3.56,1.8,4.07a5.68,5.68,0,0,0-.11,3.51c.58,2,2.18,2.94,3.76,2.44a4.81,4.81,0,0,0,3,3,5.29,5.29,0,0,0,4.75-.6c.63,1.8,2.72,2.28,4.76,1.07a6.21,6.21,0,0,0,2.41-2.68c1.28.38,3-.32,4.25-1.91a6.14,6.14,0,0,0,1.43-4.46c1.46.13,3.19-1.07,4.19-3.07a5.53,5.53,0,0,0,.4-4.55c1.49.11,3.25-1.2,4.2-3.27.88-1.91.8-3.89-.07-5m-10.85,13.6-.18,0,.14-.14s0,.1,0,.16"/><path class="cls-49" d="M273.75,798c-1.4.44-2.82-.43-3.35-2.17a5.11,5.11,0,0,1,.11-3.12c-1.09-.45-1.77-1.86-1.61-3.62a5.58,5.58,0,0,1,1.87-3.75c-1-.72-1.43-2.49-.83-4.37a5.26,5.26,0,0,1,2.62-3.24c-1.06-.76-1.4-2.6-.72-4.5A4.87,4.87,0,0,1,275,770a3.88,3.88,0,0,1-.31-4.09,4.6,4.6,0,0,1,2.67-2.76,4.54,4.54,0,0,1,.16-3.41,4.6,4.6,0,0,1,2.72-2.78,4.48,4.48,0,0,1,.14-3.43,5.8,5.8,0,0,0,2.66-5.7,4.09,4.09,0,0,1,3.31-2.6,4.62,4.62,0,0,1,.43-3.68c.85-1.61,2.28-2.55,3.47-2.41a4.83,4.83,0,0,1,.84-3c.95-1.42,2.36-2.11,3.4-1.78a5.23,5.23,0,0,1,.82-2.05c1-1.5,2.51-2.19,3.58-1.72a4.81,4.81,0,0,1,.8-1c1.19-1.15,2.63-1.41,3.51-.75a2.09,2.09,0,0,0-1.24-1.61,2.52,2.52,0,0,0-2.39.64s0,0,0-.05c-.77-1.19-2.53-1-3.94.3a5.13,5.13,0,0,0-.8,1c-1.07-.48-2.58.21-3.58,1.72a5.25,5.25,0,0,0-.82,2c-1.05-.33-2.45.37-3.4,1.79a4.8,4.8,0,0,0-.84,3c-1.18-.14-2.62.8-3.47,2.42a4.62,4.62,0,0,0-.43,3.68,4.09,4.09,0,0,0-3.31,2.6,4.87,4.87,0,0,0-.44,3.12,5,5,0,0,0-2.22,2.58,4.48,4.48,0,0,0-.14,3.43,5.12,5.12,0,0,0-2.88,6.19,4.62,4.62,0,0,0-2.68,2.75,3.92,3.92,0,0,0,.32,4.1,4.85,4.85,0,0,0-3.2,3.27c-.68,1.9-.34,3.74.72,4.5a5.26,5.26,0,0,0-2.62,3.23c-.6,1.89-.22,3.65.83,4.38a5.58,5.58,0,0,0-1.87,3.75c-.16,1.76.52,3.16,1.6,3.62a5.19,5.19,0,0,0-.1,3.12c.53,1.74,1.95,2.61,3.35,2.16a4.28,4.28,0,0,0,2.63,2.63,4.54,4.54,0,0,0,2.27.21,4.46,4.46,0,0,1-.82-1.37Z"/><path class="cls-50" d="M272.29,806.33s-5.87-15.07,5.27-46.62c5.56-15.77-7-17.91-7-17.91s4.23,7.5-4.76,17.42-29,43,6.53,47.11Z"/><path class="cls-13" d="M263.83,804.5s25.14-23.15,31.46-37.61S309.75,736,315,736.8a40.73,40.73,0,0,0-7.49,21.39c-1.24,23.63-17.57,67.17-43.68,46.31Z"/><path class="cls-51" d="M323.38,843.91s-14.26-23.09-25-24.79S291,810.67,284.12,805s-15.59-18.77-29.31-6.76-20.09,1.59-20.94,7.71,8.2,2.8,9.91,10.6,33.17,14.75,46.37,18.83S312.48,833.15,323.38,843.91Z"/><path class="cls-51" d="M311.61,864.58s-15.49-9.44-23.93-20.86-35.05-22.72-42.32-4.85-4.6,19.77-15.53,22.06-15.7.15-24.81-.16-11.68,11.41-17.71,10S167.69,863,163.73,868s-15.51,12.37-8.55,18.55-1.35,9,18.66,12.1,10.88,14.73,28.09,10.21,13.71-17.17,26-17.08,18.82-14.83,31.73-14.46S294.39,854.79,311.61,864.58Z"/><path class="cls-11" d="M312.08,851.45s-5-14.9-16.58-19.4-26.91-15.9-37.43-11.7-11.48,7.28-25.8-2.2S187,804.51,183.06,821s-14.36,8-19.43,12.15-5.44,17.33,12.09,21,6.44,8.12,25.39,9.58S295.42,860.7,312.08,851.45Z"/><path class="cls-14" d="M333.77,867.15s-4.33-4.15-12.39-3.2-17.06,1.71-32.19-4.51-47.76,4.69-61.76,13.27-24,15.63-35.35,17.45-30.93,3-30.6,4.31,33.55,3.87,56.27-10.82,47.87-20.63,57.07-20.56,32.89,7.17,46.43,5.48l13.55-1.68Z"/><path class="cls-14" d="M339.45,865.7s-32.93-21.8-44.65-24.36-29.86-15.45-62.29-5.47-66.9,13.13-66.76,13.7,16.38.83,30.28-2.41,50.72-13.16,60.62-12.61,80.07,33.6,80.07,33.6Z"/><path class="cls-14" d="M337.36,864.33s-14.25-18.81-17.72-22.16c-43.79-32.16-64.27-24.71-64.91-27.24s17.55-1.88,43.86,12,40.6,33.7,40.6,33.7Z"/><path class="cls-15" d="M334.06,862.85c-.26.33-17.26,19.82-1.68,37s22.83,15.33,31,14.14,14.84-8.14,26.57-3.25,8.25,7.24,8.25,7.24,3.69.76-.22-6.6-8.41-16.51-12.09-19,3.73-8.85-2.73-21.64-19.86-17.4-25.89-18.2S343,851.54,334.06,862.85Z"/><path class="cls-52" d="M201.39,709.69s.09.08.1,0l-.08-.11Z"/><path class="cls-1" d="M201.78,709.55a.29.29,0,0,0-.2-.23c.07.11,0,.09.11.23s-.08.05-.12,0-.06.05,0,.12.17-.06.15-.18,0,0,.07,0"/><path class="cls-1" d="M202.6,704.66v0"/><path class="cls-1" d="M200.87,702h0s0,0,0,0"/><path class="cls-1" d="M200.51,701.51l0,0s0,0,0,0"/><path class="cls-1" d="M202.6,704.66l0-.09c-.05,0,0,0,0,.09"/><path class="cls-52" d="M201.84,708.81a.09.09,0,0,0,0,.05v0Z"/><polygon class="cls-52" points="202.98 706.05 202.99 706.08 203.04 706.1 202.98 706.05"/><path class="cls-1" d="M203,707.16s-.1,0-.15-.06a.14.14,0,0,1,.07.06H203"/><path class="cls-52" d="M202.34,708.79v0Z"/><path class="cls-52" d="M202.89,705.26l0,0Z"/><path class="cls-1" d="M200.43,710.36h0"/><polygon class="cls-52" points="201.63 709.87 201.62 709.88 201.67 709.92 201.63 709.87"/><path class="cls-1" d="M199.67,700.85h0s0,0,0,0"/><path class="cls-1" d="M191.46,704c.13-.06,0,.22.21.11,0,0-.1-.21-.21-.11"/><path class="cls-1" d="M201.86,708.79l0,0,0,0"/><polygon class="cls-52" points="191.67 704.07 191.67 704.07 191.69 704.06 191.67 704.07"/><path class="cls-1" d="M197.28,700.34l0,0,0,0"/><path class="cls-1" d="M199,700.83l0,0,0,0"/><path class="cls-1" d="M196.36,700.54s0,0-.06,0h0s0,0,.05,0"/><polygon class="cls-52" points="195.42 700.72 195.45 700.74 195.47 700.73 195.42 700.72"/><path class="cls-1" d="M198.24,711.54l.06.09c0-.07.08-.13-.06-.09"/><path class="cls-1" d="M201.9,708.84s0,0,0-.05v0l0,0"/><path class="cls-1" d="M196.43,701.41h0"/><path class="cls-1" d="M192.91,709.65l0,0,0,0"/><path class="cls-52" d="M195.92,701.5a.18.18,0,0,0-.09-.07s0,0,0,0Z"/><path class="cls-1" d="M199,711.1c-.12,0,0,.16,0,.24s-.1-.07-.17-.12-.1.23-.17.24,0,0,0-.06c-.06.14-.28.09-.36.26l0,0a.58.58,0,0,1,.06.19c-.05,0-.08.11-.13,0s0,0,0-.07l-.05.05c-.08-.12.07-.06.05-.16-.1.07-.22.2-.32.19s.2-.09.06-.18l.15,0c-.15-.19.08,0-.06-.21-.18,0-.18.12-.36.1s0,.11,0,.19c-.24.15-.23-.32-.4-.12s-.06.26-.2.17l0-.15c-.17,0-.1.21-.28.11,0-.06.14,0,.11-.06s-.08.08-.18.08v-.13a5.39,5.39,0,0,1-.61.07s.06-.07,0-.12a1.13,1.13,0,0,1-.75-.28l-.13.09s0-.07,0-.08,0,.07-.09.09,0-.09,0-.11c-.19,0-.54,0-.65-.19l.05,0c-.1-.1-.25.14-.32,0h0c-.23-.2-.59-.31-.66-.61-.14.1-.18-.25-.35-.1,0-.21,0-.2-.1-.43,0-.05-.17,0-.24,0l.09-.08h-.17l.08-.13-.07,0a.11.11,0,0,1,0,.1.24.24,0,0,1-.06-.32l-.24-.18c.05,0,.09,0,.13,0-.18-.06.1-.09-.07-.14,0,0-.07,0-.09,0a.42.42,0,0,0-.13-.32l.08,0c-.08-.19-.22-.38-.3-.59a.12.12,0,0,1-.19.06l.11-.07c-.09,0,0,.09-.15,0s.12-.1.18-.07l-.07-.09s.06,0,.1,0,.08-.21-.08-.23h0c-.07-.22-.12-.32-.17-.5-.11,0-.1-.06-.2-.11a1.22,1.22,0,0,0,.07-.47c-.06-.12-.1,0-.17-.09.11,0,.1-.18.17-.09a3.26,3.26,0,0,0-.09-.53s-.07.06-.1,0a.09.09,0,0,1,.1-.09h0c-.13-.32.38-.61.23-.87h0l0-.26c.05-.1.06.09.14,0-.1-.31.16-.37.13-.61.34,0,.24-.54.53-.62l-.06,0c0-.09.07,0,.1-.07s-.08,0-.09,0a2.47,2.47,0,0,1,1.09-1c.15-.1-.14-.35.14-.36l0,.14c.21-.34.62-.4.88-.67,0,0,0,.07,0,.09s.25-.1.23-.17,0,.06.08.08.13-.19.2-.11,0,0,0,0,.22-.06.15-.15c.14,0,.23-.12.35-.09,0-.13.24,0,.23-.16,0,.18.25.09.33,0s.08.05.05.13.18-.06.16-.14c.18.18.35-.19.46.08a2.23,2.23,0,0,1,.83-.14c0,.17-.29,0-.3.17.25-.06.42-.16.65-.08.06,0-.05.07-.07.09.25,0,.45.14.69.12l-.06,0s.08.06.11,0h0c0-.14.25-.17.28-.22-.15.19.19.14,0,.36a.1.1,0,0,0,.1-.07s0,.06,0,.1c.16,0,.15-.07.27,0s-.05,0-.08.07.2-.07.29,0,0,.05-.05,0c.19.08.41,0,.57.2-.16.1,0,.09,0,.22l.13,0v-.09c.08.07.23,0,.27.14h-.1l.17.11-.05-.12c.13,0,.11-.15.2,0s.09.07.07.17h0c.07,0,.15,0,.18.1s-.12.1-.14.14c.13-.05.21.15.35.11a.21.21,0,0,0-.1.08l.1,0a.09.09,0,0,1-.05.11c.08.13.11-.15.16,0,0,0,0,0-.05,0,.08.17.28.24.33.41-.1.13-.11-.1-.18,0,.15.18.42.32.49.55v-.05c.2-.06,0,.2.13.26,0,0-.12,0-.1,0,0,.16.17.27.32.48h-.06c0,.11,0,.25,0,.35s.07.07.14,0c-.23.37.3.56.07.88,0,0-.06-.07-.06,0l.08.23c.09,0,0,0,.11-.09a.24.24,0,0,1,.12.16c-.08-.11-.15,0-.2.05h.09c-.16.14.18,0,.07.2h0c0,.06.08.12.07.19s-.05-.07-.14-.07.21.2.09.28,0-.1,0-.14-.1.1-.12.17h0l-.07.16,0,0c.26.15,0,.25.18.44-.14-.19-.1,0-.21-.08s-.09.09-.12.07-.1.11,0,.24c0,0,0,.08-.11,0s.07,0,.12,0c.09.19-.25.3-.14.56s.11.28.1.48c-.08,0-.11-.1-.11-.1a.29.29,0,0,0-.11.24s-.05,0-.1,0,.1.11,0,.17a.71.71,0,0,1-.1-.14c0,.09,0,.2,0,.3s-.06-.1-.08-.15-.07.26,0,.34l.07,0s-.09,0-.09-.06.09-.09.12-.08v.07c.23,0,.09-.25.17-.35l.12.12-.06-.18s.14,0,.13.08,0-.1.1-.14l0,0v-.11s.12,0,.07.07c.15-.12,0-.29.13-.31v0c0-.24-.11-.07-.19-.28l.32,0-.11-.06s0-.06.07,0,0,0-.11-.07c.14-.08,0-.32.22-.3-.08-.06-.09.09-.13,0,.21,0,0-.15.1-.24s0,.14.14.05c-.16-.09.08-.2.05-.3s0-.2-.07-.36c0,0,.08-.28.13-.42h0c-.14,0-.11-.17-.15-.27a.14.14,0,0,1,.16.07v-.1a.17.17,0,0,1-.09-.12l.11,0c0-.14-.15-.26-.11-.44-.1,0-.25.17-.35,0,.05,0,.14,0,.17,0s-.05,0,0-.08l.11,0c0-.08-.09,0-.09-.09s.05-.05.11-.05,0,.06,0,.07a.28.28,0,0,1,.08-.2s-.1,0-.12,0,.08-.07.11-.15,0-.12-.15-.09.05-.06.07-.08-.11-.31-.2-.2v0h0c-.17-.18-.11-.46-.23-.66h0c-.09-.11-.16-.26-.27-.3a.11.11,0,0,1,.06-.13c-.07-.07-.11-.06-.14-.22.12.05,0-.06.1.06,0-.13,0-.19-.17-.25.11,0,0-.16,0-.19v.12a.55.55,0,0,1-.11-.17l.12-.05c-.05-.33-.52-.23-.46-.56-.12,0,.06.15-.07.18s0-.33-.06-.36-.25,0-.35-.14a.15.15,0,0,1-.21.1c-.09-.09,0-.24.09-.22s0,0,0,.05.1,0,.09,0l0,0c0-.07-.16-.18-.08-.21-.11,0-.08,0,0,.09-.09-.15-.2-.17-.31-.29,0,0,0,.09,0,.07-.17-.18-.14,0-.29-.06s.12-.12-.05-.17,0-.11.1-.12c-.18,0-.23-.2-.3-.26h.09a.39.39,0,0,1-.13,0v.11s-.08-.06-.05-.09,0,.15-.17.18-.19,0-.16-.16c.16.12,0-.13.2-.07a.14.14,0,0,1-.11-.06l0,0c-.14-.18-.14.09-.33,0,0-.06,0-.14,0-.14s0,.12-.09.14-.15,0-.21,0l.07,0c-.05,0-.11,0-.2,0s.09,0,.07,0-.18-.19-.33-.15,0-.13,0-.17-.15-.14-.33-.1c0,.1,0,.08-.09.15h.28l-.2.1c.08,0,.18,0,.22,0s-.08,0-.06.12c-.08-.16-.23,0-.33-.08l0-.23c-.17-.14-.35.06-.59,0l.07,0c0,.09-.15,0-.23,0s0-.11-.07-.16-.19,0-.21.15l-.11-.1c-.21,0-.22.22-.41.21,0-.09,0-.13.08-.21-.06,0-.12,0-.12,0s-.17.13-.23.06,0,.12-.1.12v0s-.1.07,0,.14c-.23-.19-.52.11-.73,0-.13.07-.28.13-.4.18s0,0,0,0c-.19,0,0,.25-.23.25s.07-.1,0-.12c-.13-.22-.21.12-.39,0l0,0c-.13,0-.18.21-.34.27,0,0,0,0,0,0a1,1,0,0,1-.3.44c0-.11,0-.08-.05-.15s.11.12,0,.22-.19,0-.26-.08l.11-.08c-.14-.08-.14.11-.21.13l0-.05c-.16.15-.06.27-.24.4l.05,0c0,.19-.13,0-.14.17l-.13-.08a3.08,3.08,0,0,1-.17.42,1.2,1.2,0,0,1,.07-.42c-.05.06-.19.21-.16.29s0-.09.06-.1a.56.56,0,0,1-.12.41c-.22-.21-.32.26-.57.23-.07.3-.35.46-.48.78.26,0,0,.08.18.17,0,.07,0,.1-.05.1l-.22.16c-.08,0,0-.09-.07-.1-.08.15-.12,0-.23.11.09,0,.1.1,0,.18l.16-.09c0,.26-.26.13-.22.41l-.05-.1c0,.13-.13.45,0,.61,0,0-.1,0-.11,0-.09.29.11.68,0,.9l-.05,0c0,.06.09.1,0,.17s-.06,0-.07,0,.11.15.07.22l-.06-.06c-.08.3.16.44.23.67-.17,0-.21.25-.21.37h0a2,2,0,0,0,.42.81c-.14.25.14.65.19,1,0-.06.12,0,.16,0s.2.12.06.18v0c-.11.12,0,.24.06.34l.18-.09c-.09.43.55.58.45.87a1.75,1.75,0,0,0,.24.11l-.09.07a1.54,1.54,0,0,0,.4.41l-.09,0c.1.1.35-.12.45,0l-.08.16c.19.16.33.41.62.42,0,0,0,.06-.09,0s.35.33.42.11c-.07.13.22.14.37.13l-.07.09c.16-.08.18-.12.34-.09s0,.09,0,0,.13-.06.24,0l-.07.05c.11,0,.11,0,.21,0a.2.2,0,0,1,.2.19c0-.05.12-.11.19-.06s0,.05-.05.06c.18.14.33-.06.45.08s0,.06,0,.07a1.83,1.83,0,0,1-.28-.07c0,.1.11.14,0,.26.13-.06.35-.18.47-.11s0,0,0,0h0a.1.1,0,0,0,.09,0l.11,0c0,.08.15.05.22.07s.09-.09,0-.19,0,0-.06,0h-.19c.06-.06.11-.1.18,0l.11-.17c.08.16.25.26.28.35.21-.06.5,0,.61-.26.05,0,.07,0,.09.08s-.07,0-.08.06.34-.06.35-.2c.15,0-.07.14.13.09l0,0c.45.15.55-.49,1-.34a.06.06,0,0,1-.06,0c.52,0,.89-.49,1.4-.59.14-.05.1-.13.13-.24l.09.08,0-.2c.09-.21.48,0,.54-.32l-.08,0c.08-.05.18-.24.23-.16s0-.08,0-.08l.05,0a2.17,2.17,0,0,0,.07-.24c.15-.11.17.18.35,0s0-.33,0-.33a.12.12,0,0,1-.14,0l0-.09c-.14-.12-.25-.28-.48-.2v.17l-.1,0,.07-.09c-.11,0-.08.07-.07.14a.15.15,0,0,0-.11,0l.05.22c-.06,0-.07-.14-.16-.1s.16.06.13.17-.14-.07-.15,0a.09.09,0,0,1,0-.1c0,.09-.11.14-.07.24s-.15.18-.26,0a.33.33,0,0,1-.05.23c0-.24-.19.13-.3-.06,0,.2-.19.23-.26.4,0,0,0-.05,0-.05s-.12,0-.19,0,0,.23,0,.34c-.17-.08,0-.19-.13-.29.07.1-.1.19,0,.26-.11,0-.08,0-.17-.1.07.18,0,.07-.06.19-.15,0-.1-.15-.19,0s0-.14,0-.14m-2.85.68h0m-.25,0,.11,0s0,.08,0,.07,0-.06-.07-.09m.45.84s-.06,0-.06,0h.09l0,.05"/><polygon class="cls-52" points="196.49 712.44 196.51 712.44 196.48 712.41 196.46 712.44 196.49 712.44"/><polygon class="cls-52" points="202.6 704.71 202.6 704.7 202.59 704.72 202.6 704.71"/><polygon class="cls-52" points="193.12 709.83 193.1 709.85 193.13 709.85 193.12 709.83"/><path class="cls-1" d="M202.49,706.22l0,0,0,0"/><path class="cls-1" d="M202.46,706.84l-.05.08a.25.25,0,0,0,.05-.08"/><path class="cls-52" d="M202.35,707.3h0Z"/><path class="cls-1" d="M198.8,701.54h0s0,0,0,0"/><path class="cls-1" d="M200.8,702.46h-.08s0,.06.08,0"/><polygon class="cls-52" points="196.44 701.41 196.44 701.41 196.43 701.41 196.44 701.41"/><path class="cls-1" d="M200.64,702.38a.09.09,0,0,0,.08.07s0-.06-.08-.07"/><polygon class="cls-52" points="201.64 709.17 201.62 709.19 201.64 709.2 201.64 709.17"/><path class="cls-1" d="M201.64,709.2v0s0,0,0,0"/><path class="cls-1" d="M201.63,709.28v0a0,0,0,0,0,0,0"/><path class="cls-1" d="M202,708.64l0,0a0,0,0,0,0,0,0"/><path class="cls-1" d="M202,708.47s-.12.07-.12.13l0,0c-.05,0,.14-.09.09-.15"/><path class="cls-1" d="M202.75,707.84l-.08.15c.05,0,.11,0,.1,0,.19-.18-.1,0,0-.19"/><path class="cls-1" d="M202.91,707.32c0,.1.06,0,.08,0s0-.08-.08,0"/><path class="cls-1" d="M202.2,703.57l.09,0c0-.06,0,0-.09,0"/><polygon class="cls-52" points="201.38 703.25 201.37 703.34 201.46 703.31 201.38 703.25"/><polygon class="cls-52" points="201.67 702.48 201.7 702.49 201.59 702.42 201.67 702.48"/><path class="cls-1" d="M195.56,700.58l.05.12s0-.17-.05-.12"/><path class="cls-1" d="M193.11,702c-.07,0-.15,0-.15.08s.13-.05.15-.08"/><polygon class="cls-52" points="191.9 709.85 191.83 709.83 191.92 709.9 191.9 709.85"/><path class="cls-1" d="M195.52,706.39c-.07-.06-.27,0-.24,0a1.22,1.22,0,0,0,.33,0l-.09,0"/><path class="cls-52" d="M195.15,707a.73.73,0,0,0,.62-.42c-.26.19-.17.1-.54.23-.09-.07,0-.19.13-.22-.09,0,0-.11-.17-.11s-.14.4.13.39c0,.07-.12.1-.17.13Z"/><path class="cls-1" d="M196.54,704l-.07,0,.07,0"/><path class="cls-1" d="M198.17,706.81a.06.06,0,0,0,0-.09s0,.08,0,.09"/><path class="cls-1" d="M197.21,707h0s0,0,0,0"/><path class="cls-1" d="M196.54,704l.19,0c-.06-.09-.11,0-.19,0"/><path class="cls-52" d="M196.51,706.67a.26.26,0,0,0-.07.1l.07,0Z"/><path class="cls-52" d="M196.9,705.06h0a.78.78,0,0,1,0-.14Z"/><path class="cls-1" d="M198.39,704.38s.22.16.31.24a.57.57,0,0,1-.13-.16l-.18-.08"/><path class="cls-1" d="M197.23,707.68l-.07.06.07-.06"/><path class="cls-52" d="M196.35,704.87h0Z"/><path class="cls-1" d="M197.79,705.23s0,0,0,0,0,.06,0,0"/><polygon class="cls-52" points="197.59 703.34 197.55 703.33 197.47 703.47 197.59 703.34"/><path class="cls-1" d="M196.09,706.52h0"/><path class="cls-52" d="M196.61,704.07c0-.29.39-.27.4-.61-.08.11-.41.42-.4.61Z"/><path class="cls-1" d="M196.57,706.7h0"/><polygon class="cls-52" points="197.01 703.46 197.01 703.46 197.01 703.43 197.01 703.46"/><path class="cls-1" d="M195.54,704.13a.32.32,0,0,0-.09-.08l.09.08"/><path class="cls-1" d="M195.14,706.18l0-.1s0,.08,0,.1"/><path class="cls-1" d="M196.85,703.38s.06.06.12,0v0s-.06,0-.11,0"/><polygon class="cls-52" points="198.01 703.54 198.06 703.48 198.03 703.46 198.01 703.54"/><path class="cls-52" d="M195.31,704.78a.57.57,0,0,1,.25-.26c-.2.1-.22-.76-.25.26Z"/><path class="cls-1" d="M196.53,706.83c0-.07,0-.11,0-.13l-.06,0a.36.36,0,0,0,0,.11"/><path class="cls-1" d="M196.88,701.19l.45,0a1.82,1.82,0,0,0-.45,0"/><path class="cls-1" d="M197.68,707.58l-.09.08a.11.11,0,0,0,.09-.08"/><path class="cls-1" d="M199.15,701.44a.91.91,0,0,0,.13.28l.11,0a2.72,2.72,0,0,0-.24-.24"/><path class="cls-52" d="M195.56,704.52Z"/><path class="cls-1" d="M197.24,706.25c.56-.09.74-.36.67-.45s-.19-.19-.15-.33c.43-.39.46-.49.6-.46s.2.15.39,0a1.64,1.64,0,0,0-.24-1.44,1.66,1.66,0,0,0-1.11-.65c0-.07-.16-.11,0-.16a2.37,2.37,0,0,0-1.37.55,1.1,1.1,0,0,0-.37,1.16.22.22,0,0,1-.1.08.71.71,0,0,1,.51,0c0,.25.25.37.06.53,0-.15-.14-.14-.23-.2a1.08,1.08,0,0,0,.18.24c-.21.41-.26-.35-.46-.33a1.28,1.28,0,0,0,.63.81c.28.14.51.17.69.26,0,.17-.24.16-.44.08s-.35-.15-.12.16a1.65,1.65,0,0,1-.53-.66c0,.92-.31-.54-.39.38a1.58,1.58,0,0,0,1.2.77,2.82,2.82,0,0,0,1.36-.17c.19-.31-.2-.2-.05-.5a7.38,7.38,0,0,1,.9-1c.21-.21.45-.53,0-1.06-.38-.2-.66-.1-1.17-.61a1.54,1.54,0,0,1,.43-.2c-.54-.33-.74-.15-.89-.07s-.14.14-.25,0-.09.11-.15.12h-.23c0-.12.19-.08.29-.25s.11-.06.15,0,0,0,0,0c-.58-.17-.35.27-.68.41l-.18-.29a1.81,1.81,0,0,0-.63,2.3c-.13-.06-.28-.26-.35,0a2.32,2.32,0,0,0,.94,1.26,2.6,2.6,0,0,0,.82.31,2.34,2.34,0,0,0,.87-.1,3.27,3.27,0,0,0,.9-.52,2.3,2.3,0,0,0,.74-.86,6.2,6.2,0,0,0,.47-.85l-.33-.15c0-.06.14-.19.2-.15.09-.35-.19.09-.31,0s.13-.32.23-.26a3.07,3.07,0,0,0-.86-.77c-.4-.22-.83-.33-1.15-.5l.16-.07c-.57-.16-.66.59-1.11.42l.08-.07a2.61,2.61,0,0,0-1.52.88c-.41.46-.64.95-.94,1.33.34.2-.24,1.19.39,1.18a3.56,3.56,0,0,0-.14.68,1,1,0,0,0,.16.49,1.66,1.66,0,0,0,1,.71c.44.08.5-.33.8-.42l0,.3a3.23,3.23,0,0,0,.35-.4c.1.1.21.19.32.28l.26-.19c-.12,0-.29,0-.3-.11a1.9,1.9,0,0,1,1.19-.31,3.5,3.5,0,0,0,.32-.56,3.59,3.59,0,0,0,.18-.59c.1.07.06.28,0,.47,0-.75.38,0,.33-.69-.09.06-.16-.09-.21-.12a1.42,1.42,0,0,0,.09-1.46l.23,0a2.44,2.44,0,0,0-.88-1.41,3.17,3.17,0,0,0-1.6-.61c.42.16.21.49-.06.49a2,2,0,0,0-.1-.32c-.2.19.31.13-.09.36-.36,0-.31-.35-.05-.47a2,2,0,0,0-.52.19c-.05-.09.06-.17.08-.3-.17.19-1.15.08-1.19.62l-.09,0a3,3,0,0,0-.93,2.09c.27.06.17.32.39.52a2.09,2.09,0,0,0,.18,1.86c.54.43.31,0,.61.08-.18.26.72.66.19.61a1.94,1.94,0,0,0,1.17.14,3.23,3.23,0,0,0,1.09-.42c-.15-.06-.28-.07-.26-.16s.42,0,.47.07l0,0c.19-.16.39-.29.61-.46a2.47,2.47,0,0,0,.83-1.24,2,2,0,0,0,.06-.76.62.62,0,0,0-.2-.42l0,0-.35-.6c0-.46.22.24.33-.12a6,6,0,0,1-.41-1.32c-.1-.33-.26-.75-.76-.73-.09-.42-.71-.69-1.44-.55s-1.41.45-1.86.45l.13.13c-.1.26-.28,0-.45.13.1.09.29,0,.23.14a3.58,3.58,0,0,0-1.26,4,2.59,2.59,0,0,0,1.55,1.38c.9.21.66-.75,1.6-.39a2.93,2.93,0,0,1-.28.36c.51-.15.69-.25,1-.35a8,8,0,0,0,.9-.36,2.61,2.61,0,0,0,1.45-1.53c0,.11.11.17,0,.3.44-.17.58-1.19.35-1.19.08-.23.19,0,.33-.17.22-.37-.21-.81,0-1,0,0,.08.08.1.14-.09-.2-.1-1-.33-.69a1.08,1.08,0,0,0-.51-.89,1.25,1.25,0,0,1-.24-.21c-.38.12-.82-.4-1.11,0,.3-.43-1.08-.46-1.2-.22.08-.14-.23-.14-.13-.33-.31,0-.6.13-.52.35-.68-.46-1,.63-1.58.16a4.18,4.18,0,0,0-1.62,2.45c-.45-.21.41-1,0-1.18a4.69,4.69,0,0,0-.15,2.5c0,.24-.21-.09-.3-.17a3.94,3.94,0,0,0,1.06,2s-.12,0-.17,0,.12.3.27.17l-.12-.08c.14-.32.81.07.93,0-.29.1-.23.24-.19.4s.14.32-.28.42c.1.06.27.08.34,0,.08.13.08.23-.14.23.53.29.48,0,.9.22,0,.08-.15.08-.25.15a1.48,1.48,0,0,1,.95,0c0,.06,0,.14-.12.11.72.12,1.14-.37,1.82-.38-.07.47.27.05.45.37a2.8,2.8,0,0,0,.31-.28l-.22-.09c.32-.15.39-.53.67-.61l-.09.27a3.47,3.47,0,0,0,.41-.45l-.34.12c.11-.35-.33-.32,0-.51,0,.08.2-.2.46-.19,0-.19,0-.37.16-.51.13,0,.33.25.42.25-.18-.27.26-.72,0-1a.44.44,0,0,0,.28.13l-.2-.19c.11-.12.15-.14.3-.08.12-.45-.48.06-.2-.43,0,0,.05,0,.08.12.17-.55-.16-1.05-.31-1.53.25-.34.3.4.5.1-.45-.87-1.41-1-2-1.27l.12.07c-.2.48-.46-.38-.88-.11.09,0,.11-.3.09-.24a1.92,1.92,0,0,0-1.53.84V703c-.31.06-.63.42-.86.64.05.16-.06.3.16.31a1,1,0,0,0-.29,1.52c.43.46.86.48,1.26.86-.11,0-.3.06-.2.09a2.34,2.34,0,0,0,.77-.08c-.07-.22-.1-.13-.24-.31a.64.64,0,0,1,.39-.26c-.25.18,0,.37.18.48,0-.07,0-.15,0-.22.39.34,0-.45.45-.28v.12c.15-.1.24-.29.4-.33.17.22-.11.18-.05.39.27-.11.25-.64.57-.55,0,.12-.19.21-.26.32.39.15.39,0,.6,0h0a2.16,2.16,0,0,0,.49-.3.76.76,0,0,1-.16.06.86.86,0,0,1,0-.75l.14-.34-.39,0c-.29,0-.58.27-.45.54-.08-.66-.16-.22-.41-.38-.18.12-.34.35-.4.25.14.33-.29.58.06.83-.1,0,0,.19-.26.14.07.2.18,0,.29,0,.17.19.06.3-.06.41s-.23.14-.2.4-.07.65-.45.92c-.18-.11,0-.36,0-.36a.56.56,0,0,0-.58.12c0-.09,0-.15-.1-.25s-.07.36-.28.23a2.91,2.91,0,0,1,.12-.39,1.69,1.69,0,0,1-.49.33c0-.18.14-.24.2-.34a1.25,1.25,0,0,0-.56.25l.06.14c-.07,0,.08-.21.13-.24s.16.14.15.24l-.13,0c0,.61.57,0,.8,0l-.09.42a3.28,3.28,0,0,0,.27-.38c.08.1.17.32,0,.4.26.16.16-.18.41,0a0,0,0,0,1,0,.07l.19-.17c0,.09.11.26,0,.25.5.1.55-.53.85-.36l0,.05c.44-.5-.09-.28-.06-.79a2.61,2.61,0,0,0,.78.18l-.23-.2s.1-.16.2-.1c-.11-.3-.13,0-.27-.2.35-.23-.05-.78.43-.81-.23-.1-.18.25-.34,0,.52-.06-.09-.33.23-.49.22.16.06.23.32.17-.17-.09-.15-.17-.1-.15s-.06-.14,0,0l-.53-.6a.07.07,0,0,0,0,.06c.33.17,0,.35-.18.59,0-.09-.57.1-.88,0V705c0,.37-.28.36-.5.45a.44.44,0,0,1,.13-.41l-.2,0a.28.28,0,0,1-.21.22l.05-.27c-.17,0-.47.26-.51,0-.23.13-.21.76-.68.56.09-.11.27-.26.37-.24s-.16,0-.15-.09a.7.7,0,0,0,.25-.05c0-.14-.19.08-.23,0,.17-.09.1-.12.24-.17s0,.09,0,.07.1-.17.25-.18c-.11,0-.27,0-.29,0s.24,0,.35,0c-.12-.07.05-.11-.2-.25,0-.06.15,0,.23,0-.06-.16.32-.41,0-.54h0v0h0c.17-.55.86-.38,1.19-.52v.09c.23-.14.51,0,.76-.17.08,0,.1.23,0,.32.18,0,.29-.06.38.22-.24,0-.05.15-.21,0,.13.2,0,.3.35.31-.24.09-.2.26-.11.29a.78.78,0,0,0,.11-.18.32.32,0,0,1,.09.26l-.33.05c-.15.17,0,.25.14.45s.15.42-.22.45c.17.2.24-.17.45,0-.12.22-.65.2-.67.24-.3.13.25.5-.06.68.11.05.39.22.26.51s-.55-.17-.51-.33.08,0,.11,0,0-.19-.1-.22l.06.11c-.16,0-.37.17-.43,0-.06.17,0,.2.19.17-.31,0-.36.23-.64.22.06,0,.15.16.11.17-.42,0-.1.28-.39.38-.18-.16,0-.42-.25-.26-.15-.12,0-.3,0-.4-.21.23-.34-.19-.39-.25l.1-.07a.11.11,0,0,1-.13,0l0,.24s-.08-.08,0-.16c-.12.11-.09.38-.31.51,0-.13-.33,0-.17-.31.15.23.16-.26.34-.21-.05,0-.08,0-.09-.07s0,0,.06-.05c0-.33-.27.27-.45,0,.16-.08.22-.27.16-.29s-.19.24-.37.21c0-.26-.23-.14-.29-.28l0,.17c-.18.06-.24-.08-.38-.21.11-.09.17.09.19,0-.38,0,0-.55-.23-.67.07-.14.3-.13.35-.24-.28-.13.17-.24,0-.33s-.18.08-.4-.06a1.08,1.08,0,0,0,.19.3,2.48,2.48,0,0,1-.37-.17c0,.12.18.21.16.29-.22-.07-.16-.08-.33,0,.3-.24-.27-.36,0-.59l.58.09c.26-.06-.19-.45.19-.67l-.15,0c-.15-.19.14-.2.18-.35.11.16.22.16.33.24-.09-.13.22-.13.08-.49a2.26,2.26,0,0,1,.26.16c.31,0,.22-.65.63-.64-.09.22.09.33-.11.52.11,0,.21,0,.2-.13.07.11.32-.29.44-.1.05-.09.07-.29.22-.28a.16.16,0,0,1,0,.1c0-.1.18-.12.1-.34.19.51.66.19.87.39,0,0,0,.13-.08.24a.59.59,0,0,1,.21.49c-.06,0-.11,0-.08,0-.23.22.61.09.28.44-.38.1-.12-.18-.28-.1-.34,0-.33,0-.31.11s0,.24-.16.18v0c-.21-.08,0,.42-.29.54a.21.21,0,0,0-.06-.08c0,.38-.32.67-.63.83,0-.27.11-.17,0-.39-.12.07.16.38-.12.52-.13-.11-.36-.2-.38-.47l.21,0c-.22-.31-.23,0-.34,0l0-.16c-.18.05-.34.46-.66.32l0,.12c-.46.26,0-.25-.37-.14l.32-.32a.93.93,0,0,1-.19,0,.56.56,0,0,1-.48-.36,2.51,2.51,0,0,0,.71.23h.06l0,0a.38.38,0,0,0-.31-.21s.15,0,.09.11c-.36,0-.54-.24-.44-.52.4.07.48-.05.58-.16a.28.28,0,0,1,.46,0c0-.2.29-.31.37-.27s.21.11.31.09c.13-.63.08,0,.37-.66.13,0,.17,0,.15,0a.74.74,0,0,1-.08.51c-.15.19-.14.06-.26.19s-.21.25-.35.38c.19-.16.29-.18.21-.1a1.27,1.27,0,0,0,.25-.22c.17,0,.05.11-.07.18l-.14.09s0,0,.08.16c-.07,0-.14-.11-.21-.12.14.18.13,1,.6,1a.52.52,0,0,1-.28,0s.13.2.12.37a.15.15,0,0,1-.26.11l0-.14c0,.05,0,.28-.07.15a.51.51,0,0,0,0-.16c0,.06-.08.27-.14.18l.06-.16,0,0h0l0,.19a1,1,0,0,1-.05.16s0,0,0,0,0,0-.08,0a.25.25,0,0,1-.19-.15.84.84,0,0,0,.63-.49h.06c.1-.38-.22-.66-.13-.93.14.2.12.26.19.29s.12.08,0,.16c.07,0,.31-.15.37-.11s.33.14-.07.16v0c-.38.07-.28.11-.31.17l.48.19-.3,0c-.13,0-.15.2-.28.32s-.3.15-.38-.12c0,.07-.08.08-.08.14a1.61,1.61,0,0,1-.13.62h0c-.08.14,0,0,.25-.15l.24-.12.27-.11v0a1.37,1.37,0,0,0-.07-.24l.2,0c0-.07-.8-.22-.76-.44l.41.07c.13-.3.37,0,.34-.44a.79.79,0,0,1,0,.22c.09,0,.14.27.22-.4-.06.44.13,0,.41-.08l-.2.29c.31-.34.45-.44.62-.34,0,.08-.19.22-.14.11-.1.24.28-.07.09.23l-.14,0c-.06.15,0,.08.13.09s-.31.28-.45.31c.08,0,.1,0,0,.12s0,0,0,0a.52.52,0,0,1-.53,0,0,0,0,0,0,0,0,.65.65,0,0,0,.31,0c-.07,0-.13,0-.12-.07s-.22,0-.27-.08h0l0-.06s0,0,0-.05,0,0,.07-.07c-.15-.17-.09-.22-.24-.3,0,0,0,0,0,.09a.09.09,0,0,0,0,0v0a.4.4,0,0,0,0,.18c-.09-.09-.17-.24-.08-.25a2.42,2.42,0,0,1-.19-.42c.26.09.51.22.56.45l0-.06,0,0h0v-.24a.39.39,0,0,1,0-.14c.07-.08,0,0-.06,0a.73.73,0,0,1,.24,0c.07.05-.16.05-.24,0H197a.52.52,0,0,1,.17.06c.07.07,0,0,.09.16a.32.32,0,0,1-.08-.2s0,0,0-.06h0c0-.13,0,0-.07,0s0,0,.05,0a.17.17,0,0,1-.13-.23s.06,0,.08,0,0-.22.07-.17l0,0c.05-.09.07,0-.13,0s-.13-.09-.06,0c-.08-.25,0-.08,0-.12a.22.22,0,0,1-.13,0c-.1-.07-.14-.12-.09-.21a.21.21,0,0,1,.32,0c.05.1,0-.14.14-.29l-.06.14,0,0a.42.42,0,0,1,.12-.14c.08,0-.12.11-.31,0s-.34-.11-.42.15a.46.46,0,0,0,.08.19c-.08,0,0,0,0,0a1.06,1.06,0,0,1-.09.27v0a.59.59,0,0,1,.16-.08c.11,0,0-.1.19-.07,0,0-.21-.07-.09-.09l.15,0a.43.43,0,0,1-.09-.34c.14,0,.19.12.26.25a.52.52,0,0,1,.09.2.37.37,0,0,1,.06-.18c0-.11.16-.19.17-.25a.37.37,0,0,1,0-.29h.19a5.12,5.12,0,0,0,.39-.56c.09-.17.07-.5-.47-.76a1.83,1.83,0,0,0-.71.31,2.75,2.75,0,0,0-.3-.14,2.06,2.06,0,0,1,.64-.15c-.4-.19-.64.09-.8.32a.41.41,0,0,0-.42,0,1.63,1.63,0,0,0-.16.84c-.21,0-.14-.49-.48-.07,0,.4.48-.1.41.42-.28.23-.45.16-.28.58-.11.07-.2,0-.24-.21a2.31,2.31,0,0,0,.39,1,1,1,0,0,0,.44.33.91.91,0,0,0,.32.06.66.66,0,0,0,.45-.11c.4.22.84-.37,1,0a4.94,4.94,0,0,1,.42-.86c0,.39.24.25.47-.29a1.92,1.92,0,0,0,.06-1c-.06-.3-.13-.49,0-.5a3,3,0,0,0-1.62-.59,1.52,1.52,0,0,0-1.29.57c0-.06,0-.17.12-.19a5.08,5.08,0,0,0-.86.48c.25.26,0,1,.39,1.35-.12.3-.24.28-.39.14s-.26-.39-.44-.26c.16,0,.25.33.42.55s.35.37.4.21c.07.5.14.36.11.77.35-.34.42.22.92,0a1.82,1.82,0,0,1,.45.35c.06,0,.16.11.62-.12.31-.06.24.07,0,.22a1.36,1.36,0,0,1-.39.2m-1.56-1.07h0a1.33,1.33,0,0,1-.08-.24.93.93,0,0,0,.09.24m1.28,1.14a1.62,1.62,0,0,1-.92-.54.24.24,0,0,1,.32,0c-.13-.06,0,.32.6.5m-.06-1.07s0,0,0,0l0-.07v0l.07.08"/><polygon class="cls-52" points="196.71 704.99 196.7 704.96 196.67 704.95 196.71 705.02 196.71 704.99"/><path class="cls-52" d="M196.45,704.05h0l-.05,0Z"/><polygon class="cls-52" points="196.67 708.04 196.66 707.97 196.58 708.04 196.67 708.04"/><path class="cls-1" d="M197.34,706.29l.06.06s0,0-.06-.06"/><path class="cls-1" d="M199,705.7l.28-.12-.28.12"/><path class="cls-52" d="M198.2,704.39a.24.24,0,0,0,.08.11h0Z"/><path class="cls-1" d="M193.6,707.22l0,0c-.1-.07,0,0,0,0"/><path class="cls-1" d="M199.38,707.06a.66.66,0,0,1,0,.24c.09-.08.15-.14,0-.24"/><polygon class="cls-52" points="196.84 701.19 196.84 701.19 196.88 701.19 196.84 701.19"/><path class="cls-1" d="M199.15,707.51a.28.28,0,0,0,.2-.21.67.67,0,0,0-.2.21"/><path class="cls-52" d="M195.93,706.6h0l0,0Z"/><path class="cls-1" d="M195.9,706.62l0,0s0,0,0,0"/><path class="cls-1" d="M195.78,706.67l.08,0s0,0-.08,0"/><path class="cls-1" d="M196.94,706.7v-.1a.46.46,0,0,0,0,.1"/><path class="cls-52" d="M197.29,706.57c-.08,0-.26-.14-.37-.05v.08c0-.16.34.16.36,0Z"/><path class="cls-52" d="M199.13,705.88a2.44,2.44,0,0,1-.15.48c.12-.05.29-.15.26.11.44-.62-.23.07-.11-.59Z"/><path class="cls-1" d="M199.17,705c.21.2,0,0,0,0s-.06-.09,0,0"/><path class="cls-1" d="M198.41,703.87l-.12.22c.1,0,.05-.09.12-.22"/><path class="cls-52" d="M200.35,704.45a1.86,1.86,0,0,0,.1-.25l-.25,0a1.51,1.51,0,0,1,.15.28Z"/><path class="cls-52" d="M198.56,705.3l0,0a1.16,1.16,0,0,1,0,.18Z"/><path class="cls-1" d="M197.65,703.67l.25-.3c-.11,0-.39.37-.25.3"/><path class="cls-1" d="M195.59,705.46c0-.16.08-.27-.09-.17,0,.05,0,.19.09.17"/><path class="cls-52" d="M196.84,705.28l-.08-.07a.18.18,0,0,1,.05.07h0Z"/><path class="cls-53" d="M183.54,693a37,37,0,0,0,10.07,3.11c6.43,1.17,24.33,3.47,41.65,26.58s17.49,32.4,34.09,39.88c0,0,4.59,4.1-1.6,5s-45.15-4.91-61.56-20.29-21.2-24.14-24.41-33.15S180,693.46,183.54,693Z"/><path class="cls-54" d="M202,719.14s13.26,9.34,14.76,14.18c0,0-4-2-7-.09s-5.86,3.06-6.91,2.57-2.55-4.21-3-8.34c-.22-2.09-.05-6.23-.35-7.47,0,0-.59-2.66,2.48-.85Z"/><path class="cls-55" d="M196.16,737.18s1,12,6.94,17.45a6.22,6.22,0,0,0,2.68-7.72Z"/><path class="cls-54" d="M247.4,740.52c-3.66-16.84-13.23-31.61-13.23-31.61-2.59-1.56-13.3-1.15-13.3-1.15s6.45,4.49,14.39,14.93c3,4,12.14,17.83,12.14,17.83Z"/><path class="cls-54" d="M269.35,762.57s15-18.34,29.95-10.6c0,0-3.48,9.27-10.52,12.21s-14.18,2.31-11.88,5.91,5.64,16.55-1.24,25.84c0,0-9-6.86-10-16.38s3.24-8.45.93-11.87Z"/><path class="cls-55" d="M225.71,719.22c-.66.6-1.93.27-2.83-.73s-1.11-2.29-.45-2.89,1.93-.27,2.83.73,1.11,2.29.45,2.89Z"/><path class="cls-55" d="M227.83,725.92a2.12,2.12,0,1,1-.29-2.44,1.79,1.79,0,0,1,.29,2.44Z"/><path class="cls-55" d="M235.9,730.44a2.12,2.12,0,0,1-2.7-3,2.12,2.12,0,0,1,2.7,3Z"/><path class="cls-55" d="M238.81,737.31c-.49.45-1.4.24-2-.45a1.28,1.28,0,1,1,2,.45Z"/><path class="cls-55" d="M245.34,742.14a1.54,1.54,0,0,1-2-.45c-.62-.69-.74-1.62-.24-2.06a1.79,1.79,0,0,1,2.28,2.51Z"/><path class="cls-56" d="M211.19,701.59s-6.68,22.68-24.44,23.22c0,0-5.79-9.29-6.38-16.39s0-16.75,3.95-15.17,11.28,3,15.6,4,11.27,4.32,11.27,4.32Z"/><path class="cls-55" d="M229.6,733.07a1.79,1.79,0,0,1-2.28-2.51,1.8,1.8,0,0,1,2.28,2.51Z"/><path class="cls-55" d="M217.37,718.11c-.49.45-1.4.24-2-.45a1.28,1.28,0,1,1,2,.45Z"/><path class="cls-43" d="M201,707.09a3.41,3.41,0,1,1,.54-5.07,3.63,3.63,0,0,1-.54,5.07Z"/><path class="cls-57" d="M199.58,705.34a2.32,2.32,0,1,1-.14-3.62,2.61,2.61,0,0,1,.14,3.62Z"/><path class="cls-34" d="M166.3,797.1a.65.65,0,0,1,.42,0l.61.19-1,.34a.25.25,0,0,1-.25-.06.82.82,0,0,1-.15-.43.59.59,0,0,1,.36-.25.29.29,0,0,1,.27.11l-.38.52A1,1,0,0,1,166.3,797.1Z"/><path class="cls-35" d="M204.7,888.14a1.37,1.37,0,0,1,0,.57v0c0,.17-.09.33-.13.5v0a3.33,3.33,0,0,1-3.93,1.57c-1.85-.66-3-2.52-3.81-4.3-4.53-9.77-4.73-20.89-5.89-31.6-.15-1.41-.32-2.82-.52-4.23-2.74-19.79-9.71-39.56-23.95-53.44,6.8,2.28,12.28,10.1,15.36,16.56A192.63,192.63,0,0,1,193.1,843.6,7.23,7.23,0,0,0,194,847h0s0,0,0,0a194.49,194.49,0,0,1,4.1,19.11c.23,1.35.43,2.72.62,4.08.77,5.53,1.42,11.4,4.76,15.88A4.92,4.92,0,0,1,204.7,888.14Z"/><path class="cls-34" d="M202.25,845.08a1.48,1.48,0,0,1-.06-2,1.45,1.45,0,0,1,.06,2Z"/><path class="cls-34" d="M202.56,789.18l-.07,0h.14l.05,0v0c.22,0,.27.07.27.13s-.08.13-.36.18-.37-.07-.39-.1,0-.07.24-.16v0l.05,0h.13Z"/><path class="cls-34" d="M198.8,862.43a1.14,1.14,0,0,1-.46-.79,1.12,1.12,0,0,1,.31-.87,1.06,1.06,0,0,1,.46.79A1.08,1.08,0,0,1,198.8,862.43Z"/><path class="cls-36" d="M240.23,777q-12,19.85-22.34,40.7a123.82,123.82,0,0,0-6.07,13.88c-.66,1.91-1.24,3.85-1.71,5.8l0,0c-2.76,10.68-3.25,21.89-3.36,33a77.49,77.49,0,0,1-2,18.34,1.37,1.37,0,0,0,0-.57,4.92,4.92,0,0,0-1.16-2.07c-3.34-4.48-4-10.35-4.76-15.88-.19-1.36-.39-2.73-.62-4.08.12-1.79.27-3.56.49-5.34a111.24,111.24,0,0,1,3.54-17.67,131.82,131.82,0,0,1,7.22-19.5,163.46,163.46,0,0,1,15.69-26.87Q232.33,786.61,240.23,777Z"/><path class="cls-37" d="M166.46,797.27c14.24,13.88,21.21,33.65,23.95,53.44-3-.86-6.38-4.26-6.46-7.31-3.21.05-5-4.84-2.59-6.91a5.35,5.35,0,0,1-6.48-2.92c-.68-1.66-.66-3.89-2.24-4.75-1.42-.77-3.48.06-4.63-1.07-.85-.84-.71-2.3-1.42-3.25-1.44-1.88-4.77-.39-6.61-1.86s-.93-5-2.81-6.47c-1.46-1.16-3.69-.4-5.37-1.17-2.28-1-2.49-4.2-1.91-6.61s1.64-5,.71-7.31a16.32,16.32,0,0,0-1.66-2.7c-2.73-4.27-2-9.81-1.21-14.82a4.68,4.68,0,0,1,.88-2.38c1.7-1.89,5.12,0,7.25-1.37,1.17-.74,1.65-2.32,2.88-2.95,3.07-1.54,5.49,4,8.92,4,1,0,2-.44,2.86,0,1.2.51,1.38,2.09,2,3.25a2.21,2.21,0,0,0,2.18,1.11,20.64,20.64,0,0,1,2,4.33c.75,3.16-1.16,6.76.41,9.61,1.45,2.67,5,3.07,8,3.58s6.57,2.22,6.46,5.26c-.05,1.57-1.11,2.88-1.73,4.32-2.77,6.43,3.64,13.12,4.23,20.11.3,3.39-1.17,7.63-1,11.2a192.63,192.63,0,0,0-11.28-29.77C178.74,807.37,173.26,799.55,166.46,797.27Z"/><path class="cls-34" d="M175.35,784.47a.5.5,0,1,1-.69.72C174.93,784.53,174.7,784.77,175.35,784.47Z"/><path class="cls-34" d="M190.85,850.83c-.12.28-.22.32-.31.31s-.15-.12-.13-.43c.17-.27.25-.33.32-.32S190.83,850.51,190.85,850.83Z"/><path class="cls-38" d="M202.3,843.54c-1.86,5.83-2.64,12.07-3.39,18.17-1.37-11.3-3.64-27.54-1.88-38.27,1.84-11.34,6.86-22.74,5.56-34a100.4,100.4,0,0,1-.8,36.41C200.29,833.08,201.8,837.45,202.3,843.54Z"/><path class="cls-39" d="M223.62,772.14c-1.73-2-4.67-2.9-5.89-5.2a3.13,3.13,0,0,1-.15-.32c-.45-1-.5-2.19-1.11-3.13-1.49-2.26-5-1.59-7.38-.35s-5.27,2.75-7.63,1.41a6.57,6.57,0,0,0-1.82-1c-3.12-.67-3.51,6.35-6.65,5.77-.82-.14-1.42-.83-2.16-1.21-2.07-1-4.54.63-5.81,2.56s-2.05,4.29-3.86,5.73c-2.31,1.82-6.11,2-7.15,4.81-.56,1.51,0,3,.76,4.44a20.45,20.45,0,0,1,2,4.33c.74,3.16-1.16,6.75.4,9.61,1.46,2.66,5,3.07,8,3.58s6.57,2.21,6.46,5.26c0,1.56-1.11,2.88-1.73,4.31-2.77,6.44,3.64,13.12,4.23,20.11.3,3.39-1.17,7.64-1,11.2.34,1.12.64,2.24.94,3.37h0v0a191.82,191.82,0,0,1,4.1,19.12c.12-1.79.28-3.57.49-5.34-1-11.19-2.76-27.27-1.16-37.86,1.68-11.18,6.08-22.32,5.11-33.45a115.76,115.76,0,0,1-1.12,35.92c-1.35,7.11.36,11.69.71,17.72a132.53,132.53,0,0,1,7.22-19.5,20.65,20.65,0,0,0-1.05-4.36c-.57-2-.63-4.61,1.1-5.82,1.06-.75,2.58-.76,3.48-1.69,1.45-1.51.3-4.07,1-6a14.79,14.79,0,0,1,1.49-2.35c1.63-2.55,1.23-5.84,1.88-8.79a19.83,19.83,0,0,1,3-6.38c1-1.56,2-3.08,2.93-4.68C225.37,780.29,226.37,775.32,223.62,772.14Zm-21.35,14.51a27.12,27.12,0,0,1,.4,3C202.55,788.62,202.42,787.63,202.27,786.65Z"/><path class="cls-40" d="M249.37,778.94c-2.09,2-4.79,3.64-6,6.28-1.11,2.31-1,5.17-2.46,7.23-2.21,3-7,3.1-9.12,6.2-1.55,2.31-1.1,5.7-3.1,7.65a22.43,22.43,0,0,1-3,2c-3.9,2.78-3.48,8.57-4.94,13.14-1.85,5.75-7.73,10.55-10.64,16,.47-1.95,1-3.89,1.71-5.8a123.82,123.82,0,0,1,6.07-13.88q10.29-20.81,22.34-40.7-7.9,9.57-15.13,19.72a163.46,163.46,0,0,0-15.69,26.87,21,21,0,0,0-1.06-4.36c-.57-2-.63-4.61,1.1-5.82,1.07-.74,2.59-.75,3.49-1.69,1.44-1.51.29-4.07,1-6a14.54,14.54,0,0,1,1.49-2.35c1.62-2.54,1.22-5.84,1.87-8.79a19.74,19.74,0,0,1,3-6.38c1-1.56,2-3.08,2.92-4.68,2-3.67,3-8.64.3-11.81-1.73-2-4.67-2.91-5.89-5.2l7.63-7.8c1.39-1.42,3.07-3,5.05-2.78,2.65.25,4.1,3.39,6.59,4.32,2.91,1.09,6.62-1,9.1.85s1.59,5.67,3.39,8c.57.72,1.35,1.26,1.88,2C253,773.49,251.45,776.88,249.37,778.94Z"/><path class="cls-58" d="M217.62,766.51l-.67.68"/><path class="cls-34" d="M235.16,782.1c-.08-1.71-.1-3.43-.12-5.14l0-5.12,0-5.13c0-1.71,0-3.42.11-5.13.24,1.7.38,3.41.48,5.12s.14,3.42.15,5.14,0,3.43-.15,5.14S235.4,780.4,235.16,782.1Z"/><path class="cls-34" d="M229.13,789.65A27.12,27.12,0,0,1,228,785.5a33.2,33.2,0,0,1-.6-8.59,26.55,26.55,0,0,1,.56-4.27c0,1.44,0,2.86,0,4.28s.09,2.84.2,4.25.24,2.82.39,4.24S228.94,788.23,229.13,789.65Z"/><path class="cls-34" d="M222.06,799.8a34,34,0,0,1-1.83-12.18c.49,2,.8,4,1.12,6.06S221.93,797.73,222.06,799.8Z"/><path class="cls-34" d="M202.92,789.55c.55-1.61,1.18-3.18,1.82-4.74s1.32-3.12,2-4.67,1.41-3.07,2.17-4.58,1.52-3,2.36-4.51c-.55,1.61-1.18,3.18-1.82,4.75s-1.32,3.12-2,4.66-1.41,3.08-2.17,4.59S203.76,788.08,202.92,789.55Z"/><path class="cls-34" d="M204.09,797.76a32.54,32.54,0,0,1,3.44-4c1.22-1.26,2.49-2.45,3.67-3.71a28.31,28.31,0,0,0,3.22-4,15.36,15.36,0,0,0,2.07-4.72,12.07,12.07,0,0,1-1.56,5,21.28,21.28,0,0,1-3.17,4.25c-1.21,1.28-2.51,2.46-3.82,3.61S205.34,796.53,204.09,797.76Z"/><path class="cls-34" d="M203.37,810.86c.81-1.15,1.67-2.27,2.51-3.4l2.53-3.36,2.54-3.35c.85-1.12,1.69-2.25,2.59-3.34-.63,1.27-1.35,2.48-2.1,3.68s-1.57,2.34-2.41,3.48-1.74,2.22-2.69,3.27A40.32,40.32,0,0,1,203.37,810.86Z"/><path class="cls-34" d="M202.83,789.48a22,22,0,0,1-3.35-4,31.73,31.73,0,0,1-2.52-4.61,45.06,45.06,0,0,1-1.88-4.88c-.53-1.66-1-3.33-1.42-5,.71,1.59,1.33,3.22,2,4.82s1.3,3.21,2,4.78,1.48,3.11,2.32,4.61A40.91,40.91,0,0,0,202.83,789.48Z"/><path class="cls-34" d="M201.34,800.36A31.58,31.58,0,0,1,196,797a37.19,37.19,0,0,1-4.69-4.27,37.67,37.67,0,0,1-3.87-5,31.23,31.23,0,0,1-2.88-5.64,59.53,59.53,0,0,0,3.37,5.31,47,47,0,0,0,3.94,4.84,46.08,46.08,0,0,0,4.5,4.34A60.57,60.57,0,0,0,201.34,800.36Z"/><path class="cls-34" d="M198.81,812.25a14.81,14.81,0,0,1-6.26-6.37c1.14,1,2.14,2.09,3.19,3.13S197.81,811.1,198.81,812.25Z"/><path class="cls-34" d="M171.45,805a8.55,8.55,0,0,1-4.15-1,21.88,21.88,0,0,1-3.58-2.39c-1.11-.89-2.18-1.79-3.3-2.64a17,17,0,0,0-3.61-2.14,11.53,11.53,0,0,1,3.95,1.65A39.55,39.55,0,0,1,164.2,801a34.87,34.87,0,0,0,3.39,2.47A11.17,11.17,0,0,0,171.45,805Z"/><path class="cls-34" d="M179.33,815.6a24.7,24.7,0,0,1-5.23.34,28.76,28.76,0,0,1-10.22-2.28,25,25,0,0,1-4.59-2.52c1.59.73,3.18,1.41,4.81,2a44.74,44.74,0,0,0,10.05,2.24C175.86,815.53,177.59,815.59,179.33,815.6Z"/><path class="cls-34" d="M184.36,827.37a36,36,0,0,1-12.14-.07,58.75,58.75,0,0,1,6.07-.23C180.31,827.1,182.32,827.14,184.36,827.37Z"/><path class="cls-34" d="M171.53,799.19a2,2,0,0,0-.21-2.08c-.36-.64-.82-1.27-1.25-1.89-.88-1.24-1.79-2.45-2.75-3.62s-2-2.3-3-3.41-2.14-2.17-3.24-3.24a26.84,26.84,0,0,1,3.65,2.81,31.43,31.43,0,0,1,3.18,3.35,30,30,0,0,1,2.65,3.79,20.05,20.05,0,0,1,1.1,2.05,3.51,3.51,0,0,1,.27,1.16A1.4,1.4,0,0,1,171.53,799.19Z"/><path class="cls-41" d="M206.93,748.68a26.32,26.32,0,0,0-8.49,14.54c-1.9,9.68,2.41,20.08,10.06,26.3s18.2,8.37,27.89,6.58c10.11-1.87,20-8.86,22-19,.89-4.65,0-9.45-1.24-14-1.8-6.42-4.57-12.8-9.51-17.27C237.53,736.75,216.48,740.31,206.93,748.68Z"/><path class="cls-8" d="M215.29,756.68c2.81-4.59,6-9.49,11-11.34a12.47,12.47,0,0,1,15.23,6.72c-1.59-3.83-3.67-7.7-7.16-9.94a11.44,11.44,0,0,0,4.15-8.91L229.18,741l3.3-11-7.32,11L227.52,729l-5.35,11.56a22.89,22.89,0,0,0-12.49-9.85l8.41,7.62-14,1a26.82,26.82,0,0,0,7.46,3.31c1.91.52,4.81.58,6.36,2,1.87,1.67,1.11,2.66.19,4.71C217.17,751.58,216.52,754.67,215.29,756.68Z"/><polygon class="cls-59" points="712.92 1135.44 343.74 1121.37 351 930.9 720.18 944.96 712.92 1135.44"/><path class="cls-60" d="M691.27,1095.49s-99.23,8.23-151.86,4.24-86.62,6.41-83.2-71.29-9.4-281.34,39.05-288.23,123.88,4,154.15,10.25,62.13,86.51,77,111.18c0,0,128.77,3.58,171.65,43.34s15.54,88.36,15.54,88.36-230.85,47.89-222.33,102.15Z"/><path class="cls-60" d="M451.79,936.43s4.44,129.33-13.59,129.33h-96s-43.44-98-112.8-91.29-113.56,68.47-113.56,68.47-28.2,7.61-28.2-20.92c0,0-16,7.61-15.24-10s-6.1-88,17.53-90.82,361.89,15.22,361.89,15.22Z"/><path class="cls-61" d="M753.74,1117.57s-1.55,35.73-54,32.17c-58.91-4-19.15-110.12-3.14-142.31,19.65-39.54,109.15-40,123.59-39.54,61.38,2,144.71,5.94,111,85.35,0,0,31.89,78.31-1.47,84.67-63.29,12.08-26-103.37-97.1-98.69s-78.94,78.35-78.94,78.35Z"/><path class="cls-61" d="M134.18,1100.67s-33.89,0-29.33-38c6-49.74,47.57-105.57,153.15-100.24s129.92,152.73,95.8,166.44c-28.16,11.31-35.77-7.85-46.93-52.5-11.32-45.34-73-56.31-99.05-35s-29.33,67.72-73.64,59.34Z"/><path class="cls-61" d="M460.57,940.24,77.8,925.66a6,6,0,1,1,.46-12L461,928.19a6,6,0,0,1-.46,12Z"/><path class="cls-62" d="M513,814.87s-1.37-43.64,18.31-45.41c22.36-2,103.69-7.07,126.52,24.92,22,30.79,50,75.56,14.07,77.14s-104.83,0-104.83,0-53,.71-53.34-18.2Z"/><path class="cls-59" d="M320,1099.72a79,79,0,1,1-79-79,79,79,0,0,1,79,79Z"/><path class="cls-63" d="M289.92,1099.72A48.89,48.89,0,1,1,241,1050.83a48.89,48.89,0,0,1,48.89,48.89Z"/><path class="cls-62" d="M269.09,1099.72A28.06,28.06,0,1,1,241,1071.66a28.06,28.06,0,0,1,28.06,28.06Z"/><path class="cls-59" d="M904,1107.28a79,79,0,1,1-79-79,79,79,0,0,1,79,79Z"/><path class="cls-63" d="M873.87,1107.28a48.89,48.89,0,1,1-48.89-48.9,48.89,48.89,0,0,1,48.89,48.9Z"/><path class="cls-62" d="M853,1107.28A28.06,28.06,0,1,1,825,1079.21,28.06,28.06,0,0,1,853,1107.28Z"/><path class="cls-62" d="M563.08,911.31c0,4.45-11.85,5.7-26.46,5.7s-26.46,1-26.46-5.7c0-8.61,11.88-6.75,26.46-5.7,15.81,1.13,26.46,2.55,26.46,5.7Z"/><rect class="cls-64" x="118.83" y="836.18" width="105.36" height="16.82" transform="translate(-678.97 984.05) rotate(-87.83)"/><rect class="cls-64" x="225.96" y="842.99" width="105.36" height="16.82" transform="translate(-582.69 1097.66) rotate(-87.83)"/><rect class="cls-64" x="333.1" y="847.07" width="105.36" height="16.82" transform="matrix(0.04, -1, 1, 0.04, -483.68, 1208.65)"/><path class="cls-62" d="M732.64,864.83c-1.48.22-.34,0,.1,0,.73-.05,1.45-.1,2.18-.11a20.17,20.17,0,0,1,6,.65,10.11,10.11,0,0,1,5.67,3.31c1.31,1.65,2.47,5,1.6,7.14-.78,1.87-4.6,2.56-6.59,3-4.19.89-8.47,1.36-12.67,2.24-7.37,1.55-15,4.72-16.39,13a14.63,14.63,0,0,0,10.84,16.62c4,1,5.65-5.14,1.68-6.11-5.08-1.24-8.07-7-5.5-11.75,1.69-3.12,5-4.2,8.27-5,4.41-1.13,8.93-1.67,13.4-2.48,3.51-.63,7.3-1.4,10.15-3.68s3.62-5.65,3.18-9.21c-.81-6.47-5.1-11.1-11.25-13a28.71,28.71,0,0,0-12.37-.75c-1.71.25-2.61,2.39-2.21,3.9.47,1.82,2.21,2.46,3.89,2.21Z"/><rect class="cls-65" x="253.9" y="726.99" width="31.04" height="355.98" transform="translate(-645.16 1139.75) rotate(-87.82)"/><path class="cls-63" d="M744,858.6c0,13.33-9.81,18.24-14.65,18.24s-8.76-10.8-8.76-24.13,3.92-24.12,8.76-24.12S744,845.27,744,858.6Z"/><rect class="cls-65" x="255.89" y="674.73" width="31.04" height="355.98" transform="translate(-591.02 1091.47) rotate(-87.82)"/><rect class="cls-65" x="257.92" y="621.27" width="31.04" height="355.98" transform="matrix(0.04, -1, 1, 0.04, -535.65, 1042.08)"/></svg>