<?xml version="1.0" encoding="utf-8"?>
<!-- Generator: Adobe Illustrator 22.0.1, SVG Export Plug-In . SVG Version: 6.00 Build 0)  -->
<svg version="1.1" id="Layer_1" xmlns="http://www.w3.org/2000/svg" xmlns:xlink="http://www.w3.org/1999/xlink" x="0px" y="0px"
	 viewBox="0 0 100 100" style="enable-background:new 0 0 100 100;" xml:space="preserve">
<style type="text/css">
	.st0{fill:#BCD38C;}
	.st1{fill:#2F593D;}
	.st2{fill:#557E41;}
	.st3{fill:#77A275;}
	.st4{fill:#DDDA91;}
	.st5{fill:#5F887F;}
	.st6{fill:#B5BE6E;}
	.st7{fill:#BA6832;}
</style>
<g id="crop2">
	<g>
		<g>
			<path class="st0" d="M50.8,59.9c0,0-2.9-0.6-4.7-2.1c-1.8-1.6-4.6-1.5-4.6-1.5s2.1-1.8,4.4-0.6C48.1,56.8,50.1,56.5,50.8,59.9"/>
			<path class="st1" d="M50.7,77.8c0,0-3.7-6.7-6.8-3.8c-3.6,3.4-4.2,9.1-4.2,9.1s3-7.1,5.8-6.6C47.3,76.7,47.7,77.7,50.7,77.8"/>
			<path class="st2" d="M50.6,73.4c0,0,1.9-6.9,5.3-5c4,2.3,5.9,7.3,5.9,7.3S57.4,70,54.9,71C53.4,71.7,53.3,72.7,50.6,73.4"/>
			<path class="st2" d="M50.4,46.7c1,2.3,1.5,28.4,0.9,42.4c0,0.8-1.7,0.1-1.7,0.1s0.1-1.6,0.3-7.1C50.4,63.9,50.4,46.7,50.4,46.7"
				/>
			<path class="st1" d="M50.7,75.7c0,0,2-5.3,5.6-0.5c2,2.6,2.5,9.5,2.5,9.5S54.9,73.8,50.7,75.7"/>
			<path class="st3" d="M50.5,58.2c0,0,3.9-0.7,5.2-3.1c1.3-2.3,3.1-2.4,3.1-2.4s-2.5-1.3-4.5,0.8C52.9,55.1,50,56.7,50.5,58.2"/>
			<path class="st4" d="M50.6,47.5c0,0-0.8-1.5-0.8-3.3S50.7,46.8,50.6,47.5"/>
			<path class="st4" d="M50.6,47.5c0,0-0.6-2.3-2.8-2.4C45.5,45.1,49.5,45.7,50.6,47.5"/>
			<path class="st4" d="M50.4,47.1c0,0,0-0.1,0.1-0.2c0.3-0.5,1.3-2,2.8-1.7c1.8,0.3-2.2,0.1-2.8,2.1C50.6,47.4,50.4,47.2,50.4,47.1
				"/>
			<path class="st5" d="M50.8,68.3c0,0-2.1-2.8-5.6-1.2c-3.5,1.7-3.5,2.4-5.6,3.4c0,0,3,0,5.1-1.1C46.8,68.3,49.9,69.3,50.8,68.3"/>
			<path class="st0" d="M50.8,63.1c0,0,1.6-3.1,4.4-2c2.8,1.2,4.2,0.9,4.2,0.9s-0.5,1.1-2.2,1.1C55.6,63.1,52,62.1,50.8,63.1"/>
			<path class="st1" d="M52.3,68.6c0,0,2-2.4,4.2-1.7c0,0-1,0.1-1.4,0.9c-0.5,0.8-2.5,3.7-3.5,2.5C50.5,69.1,52.3,68.6,52.3,68.6"/>
			<path class="st6" d="M49.9,67.4c0,0-2-2-1.7-6.1C48.5,57.1,52.4,69.4,49.9,67.4"/>
			<path class="st5" d="M49.4,77.7c0,0-2.2-2-1.9-6.3C47.9,67,52,79.8,49.4,77.7"/>
			<path class="st7" d="M47.6,60.9c0,0-0.2,0-0.3,0.2c0,0.2,0.2,0.2,0.2,0.2s-0.3,0.1-0.3,0.2c0,0.2,0.2,0.1,0.2,0.1
				s-0.3,0.3-0.2,0.4c0.1,0.2,0.3-0.1,0.3-0.1s-0.1,0.4,0.1,0.4c0.3,0,0.2-0.4,0.2-0.4s0.2,0.3,0.3,0.1c0.1-0.1,0-0.4,0-0.4
				s0.2,0.1,0.2,0c0.1-0.1-0.1-0.4-0.1-0.4s0.2,0.1,0.2,0c0.1-0.1-0.1-0.3-0.1-0.3s0.2,0.1,0.3,0s-0.2-0.2-0.2-0.2s0.2-0.1,0.2-0.3
				s-0.3-0.1-0.3-0.1s0.1-0.2,0-0.3s-0.2,0.1-0.2,0.1s0.1-0.3-0.1-0.3c-0.2,0-0.2,0.2-0.2,0.2s-0.1-0.3-0.2-0.2
				c-0.1,0-0.1,0.2-0.1,0.2s-0.2-0.2-0.3-0.1c-0.1,0.1,0,0.2,0,0.2s-0.2,0-0.2,0.1s0.2,0.1,0.2,0.1s-0.2,0-0.2,0.1s0.2,0.1,0.2,0.1
				s-0.1,0-0.1,0.1C47.5,60.9,47.6,60.9,47.6,60.9"/>
			<path class="st7" d="M47.8,71.9c0,0,0.2-0.1,0.2-0.2c0-0.2-0.2-0.1-0.2-0.1s0.3-0.1,0.2-0.2c0-0.2-0.2-0.1-0.2-0.1
				s0.3-0.3,0.1-0.4c-0.1-0.2-0.2,0.2-0.2,0.2s0.1-0.4-0.2-0.4s-0.1,0.4-0.1,0.4S47.2,70.8,47,71c-0.1,0.1,0,0.4,0,0.4
				s-0.2-0.1-0.2,0c-0.1,0.1,0.1,0.3,0.1,0.3s-0.2-0.1-0.2,0s0.1,0.3,0.1,0.3s-0.2-0.1-0.3,0.1c-0.1,0.1,0.2,0.2,0.3,0.2
				c0,0-0.2,0.2-0.2,0.3c0,0.2,0.3,0,0.3,0s-0.1,0.2,0,0.3c0.1,0.1,0.2-0.1,0.2-0.1s0,0.3,0.1,0.3c0.2,0,0.1-0.2,0.1-0.2
				s0.1,0.2,0.2,0.2c0.1,0,0.1-0.2,0.1-0.2s0.2,0.1,0.3,0s-0.1-0.2-0.1-0.2s0.2,0,0.2-0.1s-0.2-0.1-0.2-0.1s0.2,0,0.2-0.2
				c0-0.1-0.2,0-0.2,0s0.1,0,0.1-0.1C47.9,71.9,47.8,71.9,47.8,71.9"/>
			<path class="st3" d="M49.6,67.1c0,0-0.6-0.9-0.4-2.4c0.2-1.5,0.9-1.8,0.8-2.9c0,0,0.6,0.4,0.4,1.3c-0.1,0.8,0.4,2.5,0.5,3.1
				C51.1,67.3,50.3,68.5,49.6,67.1"/>
			<path class="st6" d="M51.8,70.4c0,0,2.8-1.2,3.9-5.5C56.9,60.6,48.6,71.5,51.8,70.4"/>
			<path class="st7" d="M56.9,64.6c0,0,0.3,0.1,0.3,0.2C57.2,65,57,65,57,65s0.3,0.1,0.3,0.2c0,0.2-0.2,0.1-0.2,0.1s0.3,0.3,0.2,0.5
				S57,65.6,57,65.6s0,0.4-0.3,0.4s-0.2-0.4-0.2-0.4s-0.2,0.3-0.4,0.1c-0.1-0.1,0-0.4,0-0.4s-0.2,0.1-0.3,0s0.1-0.4,0.1-0.4
				s-0.2,0.1-0.2,0c-0.1-0.1,0.1-0.3,0.1-0.3s-0.2,0.1-0.3-0.1c-0.1-0.1,0.2-0.2,0.3-0.2c0,0-0.2-0.2-0.2-0.3c0-0.2,0.3,0,0.3,0
				s-0.1-0.2,0-0.3s0.2,0.1,0.2,0.1s0-0.3,0.1-0.3c0.2,0,0.2,0.2,0.2,0.2s0.1-0.3,0.2-0.2c0.1,0,0.1,0.2,0.1,0.2s0.2-0.1,0.3,0
				s-0.1,0.2-0.1,0.2s0.2,0,0.2,0.1c0,0.1-0.2,0.1-0.2,0.1s0.2,0,0.2,0.2c0,0.1-0.3,0-0.3,0s0.1,0,0.1,0.1S56.9,64.6,56.9,64.6"/>
			<path class="st3" d="M52.3,70.2c0,0-0.4-0.6,0.6-1.8c1.5-1.7,0.4-2.5,0.9-3.6c0,0-1.1,0.6-1.3,1.5s-1,2-1.3,2.5
				C50.6,69.8,51.1,71.4,52.3,70.2"/>
		</g>
	</g>
</g>
</svg>
