<?xml version="1.0" encoding="utf-8"?>
<!-- Generator: Adobe Illustrator 22.0.1, SVG Export Plug-In . SVG Version: 6.00 Build 0)  -->
<svg version="1.1" id="Layer_1" xmlns="http://www.w3.org/2000/svg" xmlns:xlink="http://www.w3.org/1999/xlink" x="0px" y="0px"
	 viewBox="0 0 100 100" style="enable-background:new 0 0 100 100;" xml:space="preserve">
<style type="text/css">
	.st0{fill:#BCD38C;}
	.st1{fill:#2F593D;}
	.st2{fill:#488A71;}
	.st3{fill:#557E41;}
	.st4{fill:#B5BE6E;}
</style>
<g id="crop1">
	<g>
		<g>
			<path class="st0" d="M45.9,68.7c0,0-0.1-2.5,1.7-3.2c0,0-1.7,1.4-1.5,5.1L45.9,68.7z"/>
			<path class="st1" d="M45.5,80c0,0,5-0.9,6.6-3.9s4-3.1,4-3.1s-3.2-1.7-5.7,1C48.5,76.1,44.8,78.2,45.5,80"/>
			<path class="st2" d="M47.5,77.5c0,0-3.7-7.2-11.3-7.1c0,0,1.9,0.1,4,3.6C42.3,77.4,45.5,80.2,47.5,77.5"/>
			<path class="st3" d="M45.3,64.8c1.1,2.4,1.9,12.3,2.2,24.6c0,0.9-1.8,0.1-1.8,0.1s0.3-1.7,0.3-7.4C45.8,65.1,45.3,64.8,45.3,64.8
				"/>
			<path class="st4" d="M46.2,84.7c0,0-2.1-1.4,0.6-7.3s2.3-8,2.3-8s1.4,2.4,0.5,6.7C48.7,80.4,49.9,82.8,46.2,84.7"/>
		</g>
	</g>
</g>
</svg>
