<?xml version="1.0" encoding="utf-8"?>
<!-- Generator: Adobe Illustrator 22.0.1, SVG Export Plug-In . SVG Version: 6.00 Build 0)  -->
<svg version="1.1" id="Layer_1" xmlns="http://www.w3.org/2000/svg" xmlns:xlink="http://www.w3.org/1999/xlink" x="0px" y="0px"
	 viewBox="0 0 100 100" style="enable-background:new 0 0 100 100;" xml:space="preserve">
<style type="text/css">
	.st0{fill:#2F593D;}
	.st1{fill:#557E41;}
	.st2{fill:#BCD38C;}
	.st3{fill:#77A275;}
	.st4{fill:#F8DA4B;}
	.st5{fill:#98C39D;}
	.st6{fill:#F4B845;}
	.st7{fill:#5F887F;}
	.st8{fill:#488A71;}
</style>
<g id="crop3">
	<g>
		<g>
			<path class="st0" d="M50.4,39.7c0,0-4.5-8.1-8.2-4.6c-4.3,4.1-5.1,11.1-5.1,11.1s3.7-8.6,7.1-8C46.3,38.4,46.7,39.6,50.4,39.7"/>
			<path class="st1" d="M49.1,54.5c0,0,2.5-9.3,7.1-6.7c5.3,3.1,7.8,9.9,7.8,9.9s-5.8-7.7-9.1-6.3C53,52.2,52.8,53.5,49.1,54.5"/>
			<path class="st1" d="M49.7,17.6c1.4,3.1,1.8,53,0.9,71.7c-0.1,1.1-2.3,0.1-2.3,0.1s0.1-2.1,0.3-9.5
				C49.4,55.7,49.7,17.6,49.7,17.6"/>
			<path class="st2" d="M50.2,32.2c0,0,3.6-0.7,5.9-2.7c2.3-2,5.8-1.9,5.8-1.9s-2.6-2.2-5.5-0.7C53.6,28.4,51.1,28,50.2,32.2"/>
			<path class="st3" d="M49.9,29.6c0,0-5-0.9-6.6-3.9s-4-3.1-4-3.1s3.2-1.7,5.7,1C46.9,25.7,50.5,27.8,49.9,29.6"/>
			<path class="st3" d="M50.5,62.2c0,0-2.2-6.9-8.9-2.8s-5.3,14-5.3,14s2.4-2.5,4.1-7C42.2,61.8,46.7,64.7,50.5,62.2"/>
			<path class="st4" d="M49.9,18.9c0,0-1.3-5-0.4-6.6C50.3,10.5,49.5,16.8,49.9,18.9"/>
			<path class="st4" d="M49.5,17.2c0,0-0.9-3.6-4-3.9C42.4,13,47.9,14,49.6,18c0,0,0.8-2.5,4.4-3.6c2.4-0.7-2.1-1.6-4.3,3"/>
			<path class="st4" d="M49.8,17.6c0,0-3-3.1-6.1-2C40.6,16.6,46.4,15.1,49.8,17.6"/>
			<path class="st4" d="M49.7,17.5c0,0,3-3.1,6.1-2C58.8,16.5,53,15,49.7,17.5"/>
			<path class="st0" d="M49.7,58.1c0,0,4.7-4.2,8.4,0.6c3.7,4.8,2.9,3.4,4.9,4.9c2.8,2.3,1.2,5.8,1.2,5.8s-1.6-3.1-5.2-4.7
				C56.4,63.5,51,61.6,49.7,58.1"/>
			<path class="st1" d="M50.5,46.6c0,0-2.8-5.1-7.6-2.2c-4.9,2.9-3.2,10.3-5.8,11c0,0,3,1,4.4-3.7C42.9,47,49,50.7,50.5,46.6"/>
			<path class="st5" d="M49.9,35.4c0,0,3.2-3.9,7.6,0s3.9,9.8,3.9,9.8s-1.9-4.5-5.7-6.3C53.6,37.9,51.4,38.7,49.9,35.4"/>
			<path class="st1" d="M49.9,71.1c0,0,7.6-2.6,8.6,3c1,5.5,2.5,10.2,7,11.4c0,0-2.9-3.8-2.1-7.5s0.6-11.8-6.9-10.9
				C48.9,68.1,49.9,71.1,49.9,71.1"/>
			<path class="st0" d="M50.2,68.7c0,0-3.3-4.2-7.4,0.1c-4.1,4.3-1.6,11.9-10.9,13.8c0,0,6.8,2.5,10-2.5
				C45.1,74.8,47.6,69,50.2,68.7"/>
			<path class="st4" d="M47.2,41c0.1-0.2,0-0.4-0.2-0.6c-0.2-0.2-0.4-0.3-0.5-0.3c0-0.2-0.1-0.3-0.2-0.5c-0.2-0.2-0.4-0.3-0.5-0.3
				c0-0.2-0.1-0.3-0.2-0.5c-0.1-0.2-0.3-0.2-0.5-0.3c0-0.1-0.1-0.3-0.2-0.4c-0.2-0.2-0.4-0.3-0.6-0.2c0-0.2-0.1-0.4-0.2-0.5
				c-0.2-0.2-0.5-0.2-0.6-0.2c0-0.1-0.1-0.3-0.3-0.4c-0.2-0.2-0.5-0.2-0.6-0.1c0-0.1-0.1-0.2-0.2-0.3c-0.2-0.2-0.5-0.2-0.7,0l0,0
				c0,0-0.1-0.1-0.2-0.1c-0.2-0.1-0.5-0.1-0.6,0.1c-0.1,0-0.3,0-0.4,0c-0.1,0.1-0.1,0.2-0.1,0.4l0,0c-0.2,0-0.3,0.3-0.3,0.6
				c0,0.1,0,0.1,0.1,0.2c-0.2,0.1-0.2,0.4,0,0.6c0.1,0.1,0.1,0.2,0.2,0.3c-0.1,0.1-0.1,0.4,0,0.6c0.1,0.2,0.2,0.3,0.4,0.3
				c-0.1,0.2-0.1,0.4,0.1,0.6c0.1,0.2,0.3,0.3,0.5,0.3c-0.1,0.2-0.1,0.4,0.1,0.6c0.1,0.1,0.3,0.2,0.4,0.3c0,0.2,0.1,0.3,0.2,0.5
				c0.1,0.2,0.3,0.3,0.5,0.3c0,0.2,0,0.4,0.2,0.6c0.1,0.2,0.3,0.3,0.5,0.3c0,0.2,0,0.4,0.2,0.6c0.2,0.2,0.4,0.3,0.6,0.2
				c-0.1,0.2,0,0.5,0.2,0.7s0.5,0.3,0.7,0.2c0,0.2,0.1,0.4,0.3,0.6c0.2,0.2,0.5,0.3,0.7,0.2c0,0.2,0.2,0.4,0.4,0.5s0.5,0.2,0.6,0
				c0.1,0.1,0.3,0.2,0.4,0.2c0.3,0.1,0.5-0.1,0.6-0.3c0.2,0,0.4,0,0.6-0.2c0.2-0.2,0.3-0.4,0.3-0.6c0.3,0,0.5-0.2,0.5-0.5
				c0-0.2-0.1-0.3-0.2-0.5c0.1-0.1,0.2-0.4,0.1-0.6c-0.1-0.2-0.3-0.4-0.5-0.5c0.1-0.2,0.1-0.5-0.1-0.7c-0.1-0.2-0.4-0.3-0.5-0.3
				c0.1-0.2,0.1-0.5-0.1-0.7C47.6,41.1,47.4,41,47.2,41 M48.1,43.2L48.1,43.2L48.1,43.2L48.1,43.2"/>
			<path class="st6" d="M41.5,37L41.5,37L41.5,37L41.5,37L41.5,37"/>
			<path class="st6" d="M48,44.9c0,0.2-0.3,0.3-0.5,0.3c-0.1,0-0.3-0.1-0.4-0.2c-0.1,0.1-0.4,0.1-0.6,0c-0.2-0.1-0.3-0.3-0.3-0.5
				c-0.2,0.1-0.4,0-0.6-0.2c-0.2-0.2-0.2-0.4-0.2-0.5c-0.2,0.1-0.4,0-0.6-0.2c-0.2-0.2-0.2-0.4-0.2-0.6c-0.2,0-0.4,0-0.5-0.2
				s-0.2-0.4-0.2-0.5c-0.1,0-0.3-0.1-0.4-0.2c-0.1-0.2-0.2-0.4-0.2-0.5c-0.1,0-0.3-0.1-0.4-0.2c-0.1-0.1-0.2-0.3-0.2-0.4
				c-0.1,0-0.3-0.1-0.4-0.2c-0.1-0.2-0.2-0.4-0.1-0.6c-0.2,0-0.3-0.1-0.4-0.3c-0.1-0.2-0.2-0.4-0.1-0.6c-0.1,0-0.2-0.1-0.3-0.3
				s-0.1-0.4,0-0.5c-0.1-0.1-0.1-0.1-0.2-0.2c-0.1-0.2-0.1-0.4,0-0.5c0,0-0.1-0.1-0.1-0.2c-0.1-0.2,0-0.4,0.2-0.5
				c-0.1,0-0.2,0-0.3,0.1c0-0.1,0,0.1,0,0.2l0,0c-0.2,0-0.3,0.2-0.2,0.5c0,0.1,0,0.1,0.1,0.2c-0.1,0.1-0.2,0.3,0,0.5
				c0.1,0.1,0.1,0.2,0.2,0.2c-0.1,0.1-0.1,0.3,0,0.5c0.1,0.1,0.2,0.2,0.3,0.3c-0.1,0.1-0.1,0.4,0.1,0.6c0.1,0.2,0.3,0.3,0.4,0.3
				c-0.1,0.1-0.1,0.4,0.1,0.6c0.1,0.1,0.2,0.2,0.4,0.2c0,0.1,0.1,0.3,0.2,0.4c0.1,0.1,0.3,0.2,0.4,0.2c0,0.1,0,0.3,0.2,0.5
				c0.1,0.1,0.3,0.2,0.4,0.2c0,0.1,0,0.3,0.2,0.5s0.4,0.3,0.5,0.2c-0.1,0.2,0,0.4,0.2,0.6c0.2,0.2,0.4,0.3,0.6,0.2
				c0,0.2,0.1,0.4,0.2,0.5c0.2,0.2,0.4,0.3,0.6,0.2c0,0.2,0.2,0.3,0.3,0.5c0.2,0.1,0.4,0.1,0.6,0c0.1,0.1,0.2,0.2,0.4,0.2
				c0.3,0,0.5-0.1,0.5-0.3c0.2,0,0.4,0,0.5-0.2c0.1-0.1,0.1-0.2,0.2-0.3C48.2,44.9,48.1,44.9,48,44.9"/>
			<path class="st7" d="M49,44.9c0,0-1.5-2-3.9-1.5s-3.7-0.8-3.7-0.8s0.6,2.7,2.3,2.6C45.5,45.2,47.9,47.9,49,44.9"/>
			<path class="st1" d="M48.4,45.7c0,0-2.5-1.9-2.2-4.7s-0.7-3.9-0.7-3.9s1.2,0.4,1.7,2C47.9,40.7,51.3,44.6,48.4,45.7"/>
			<path class="st4" d="M55.7,55c0.2,0,0.4-0.1,0.5-0.4c0.1-0.2,0.1-0.4,0-0.5c0.1,0,0.3-0.2,0.4-0.3c0.1-0.2,0.1-0.4,0-0.5
				c0.1,0,0.3-0.2,0.4-0.3c0.1-0.2,0.1-0.3,0.1-0.5c0.1-0.1,0.2-0.2,0.3-0.3c0.1-0.2,0.1-0.5,0-0.6c0.1-0.1,0.3-0.2,0.4-0.4
				c0.1-0.2,0.1-0.5-0.1-0.6c0.1-0.1,0.2-0.2,0.2-0.4c0.1-0.2,0-0.4-0.1-0.5c0.1-0.1,0.1-0.2,0.1-0.3c0.1-0.3,0-0.5-0.2-0.5l0,0
				c0-0.1,0-0.1,0-0.2c0-0.2-0.1-0.4-0.3-0.4c0-0.1-0.1-0.2-0.2-0.3c-0.1,0-0.2,0-0.3,0.1l0,0c-0.1-0.2-0.3-0.2-0.6,0l-0.1,0.1
				c-0.1-0.1-0.4,0-0.5,0.2c-0.1,0.1-0.1,0.2-0.1,0.3c-0.1-0.1-0.4,0-0.5,0.2c-0.1,0.1-0.2,0.3-0.2,0.4c-0.2,0-0.4,0.1-0.5,0.3
				s-0.1,0.4-0.1,0.5c-0.2,0-0.4,0.1-0.5,0.3c-0.1,0.1-0.1,0.3-0.1,0.4c-0.1,0.1-0.3,0.2-0.3,0.3c-0.1,0.2-0.1,0.4-0.1,0.5
				c-0.2,0-0.3,0.2-0.4,0.4c-0.1,0.2-0.1,0.3-0.1,0.5c-0.2,0-0.3,0.2-0.4,0.4c-0.1,0.2-0.1,0.5,0,0.6c-0.2,0-0.4,0.2-0.5,0.4
				c-0.1,0.3-0.1,0.5,0,0.6c-0.2,0.1-0.3,0.2-0.4,0.4c-0.1,0.3-0.1,0.5,0.1,0.6c-0.1,0.1-0.3,0.3-0.3,0.5s0,0.5,0.2,0.5
				c-0.1,0.1-0.1,0.3-0.1,0.4c0.1,0.3,0.2,0.4,0.4,0.3c0,0.2,0.2,0.3,0.3,0.4c0.2,0.1,0.4,0.1,0.6,0c0.1,0.2,0.3,0.3,0.6,0.2
				c0.1-0.1,0.3-0.2,0.3-0.3c0.2,0.1,0.4,0,0.6-0.2c0.2-0.2,0.2-0.4,0.2-0.5c0.2,0,0.4-0.1,0.6-0.3c0.1-0.2,0.2-0.4,0.1-0.6
				c0.2,0,0.4-0.1,0.6-0.4C55.8,55.4,55.8,55.1,55.7,55 M54.2,56.6L54.2,56.6L54.2,56.6L54.2,56.6"/>
			<path class="st6" d="M57.3,48.8C57.2,48.8,57.2,48.8,57.3,48.8C57.2,48.8,57.2,48.8,57.3,48.8C57.2,48.8,57.2,48.8,57.3,48.8
				C57.2,48.8,57.2,48.8,57.3,48.8"/>
			<path class="st6" d="M52.7,57.2c-0.2,0-0.4-0.1-0.4-0.3c0-0.1,0-0.3,0-0.4c-0.1-0.1-0.2-0.3-0.2-0.5s0.1-0.4,0.3-0.5
				c-0.1-0.1-0.2-0.3-0.1-0.6c0.1-0.2,0.2-0.3,0.4-0.4c-0.1-0.1-0.1-0.3,0-0.6c0.1-0.2,0.3-0.4,0.4-0.4c-0.1-0.1-0.1-0.3,0-0.5
				s0.2-0.3,0.4-0.3c0-0.1,0-0.3,0.1-0.4c0.1-0.2,0.2-0.3,0.4-0.3c0-0.1,0-0.3,0.1-0.4c0.1-0.1,0.2-0.3,0.3-0.3c0-0.1,0-0.3,0.1-0.4
				c0.1-0.2,0.3-0.3,0.4-0.3c0-0.1,0-0.3,0.1-0.5s0.3-0.3,0.5-0.3c0-0.1,0-0.2,0.1-0.4s0.3-0.2,0.4-0.2c0-0.1,0.1-0.2,0.1-0.2
				c0.1-0.2,0.3-0.2,0.5-0.2l0.1-0.1c0.2-0.1,0.3-0.1,0.4-0.1c0-0.1-0.1-0.2-0.1-0.2c-0.1,0-0.2,0-0.3,0.1l0,0
				c-0.1-0.2-0.3-0.2-0.5,0l-0.1,0.1c-0.1-0.1-0.3,0-0.5,0.2c-0.1,0.1-0.1,0.2-0.1,0.2c-0.1-0.1-0.3,0-0.4,0.2
				C55,49.3,55,49.4,55,49.6c-0.1,0-0.3,0.1-0.5,0.3c-0.1,0.2-0.1,0.3-0.1,0.5c-0.1,0-0.3,0.1-0.4,0.3c-0.1,0.1-0.1,0.3-0.1,0.4
				c-0.1,0-0.2,0.2-0.3,0.3c-0.1,0.2-0.1,0.3-0.1,0.4c-0.1,0-0.3,0.1-0.4,0.3C53,52.3,53,52.4,53,52.5c-0.1,0-0.3,0.1-0.4,0.3
				c-0.1,0.2-0.1,0.4,0,0.5c-0.2,0-0.3,0.2-0.4,0.4c-0.1,0.2-0.1,0.5,0,0.6c-0.1,0.1-0.3,0.2-0.4,0.4c-0.1,0.2-0.1,0.5,0.1,0.6
				c-0.1,0.1-0.2,0.3-0.3,0.5c0,0.2,0,0.4,0.2,0.5c-0.1,0.1-0.1,0.3,0,0.4c0,0.2,0.2,0.3,0.4,0.3c0,0.2,0.1,0.3,0.3,0.4
				c0.1,0,0.2,0.1,0.3,0.1C52.8,57.3,52.7,57.2,52.7,57.2"/>
			<path class="st8" d="M52.5,58.2c0,0-0.6-2,1.2-5.8c0.9-1.9-0.7-2.3-0.7-2.3s0.5,1-0.8,2.1S48,57.3,52.5,58.2"/>
			<path class="st3" d="M51.4,57.9c0,0,3.4-2.6,4.4-4.4c0.9-1.7,2.1-3.7,2.8-3.6c0,0-0.9,1-1.2,2.6C57,55.5,54.5,60.8,51.4,57.9"/>
			<path class="st4" d="M52.8,31.5c0.2,0,0.3-0.2,0.4-0.5c0.1-0.2,0-0.4-0.1-0.6c0.1-0.1,0.2-0.2,0.3-0.4c0.1-0.2,0-0.4-0.1-0.6
				c0.1-0.1,0.2-0.2,0.3-0.4c0-0.2,0-0.4,0-0.5c0.1-0.1,0.2-0.2,0.2-0.4c0-0.3,0-0.5-0.2-0.6c0.1-0.1,0.2-0.3,0.3-0.5
				c0-0.3-0.1-0.5-0.2-0.6c0.1-0.1,0.2-0.3,0.2-0.4c0-0.3-0.1-0.4-0.3-0.5c0-0.1,0.1-0.2,0.1-0.3c0-0.3-0.1-0.5-0.4-0.5l0,0
				c0-0.1,0-0.1,0-0.2c0-0.3-0.2-0.4-0.4-0.4c0-0.1-0.1-0.2-0.2-0.3c-0.1,0-0.2,0-0.3,0.1l0,0c-0.1-0.2-0.4-0.1-0.6,0.1
				c0,0.1-0.1,0.1-0.1,0.2c-0.2,0-0.4,0.1-0.5,0.3c-0.1,0.1-0.1,0.2-0.1,0.3c-0.2,0-0.4,0.1-0.5,0.3c-0.1,0.2-0.1,0.3-0.1,0.5
				c-0.2,0-0.4,0.2-0.5,0.4c-0.1,0.2-0.1,0.4,0,0.6c-0.2,0-0.4,0.2-0.4,0.5c-0.1,0.2,0,0.3,0,0.5c-0.1,0.1-0.2,0.2-0.3,0.4
				c0,0.2,0,0.4,0.1,0.5c-0.2,0.1-0.3,0.2-0.3,0.5c0,0.2,0,0.4,0.1,0.5c-0.1,0.1-0.3,0.2-0.3,0.5c-0.1,0.3,0,0.5,0.1,0.6
				c-0.2,0.1-0.3,0.3-0.4,0.6c-0.1,0.3,0,0.6,0.2,0.7c-0.2,0.1-0.3,0.3-0.3,0.5c0,0.3,0,0.5,0.2,0.6c-0.1,0.1-0.2,0.4-0.2,0.6
				c0,0.3,0.1,0.5,0.3,0.5c0,0.2,0,0.3,0.1,0.5s0.3,0.3,0.5,0.2c0.1,0.2,0.2,0.3,0.4,0.3s0.5,0,0.6-0.2c0.1,0.2,0.4,0.2,0.7,0
				c0.1-0.1,0.2-0.3,0.3-0.4c0.2,0,0.4-0.1,0.5-0.3s0.2-0.4,0.1-0.6c0.2,0,0.4-0.2,0.5-0.5c0.1-0.2,0.1-0.5,0-0.6
				c0.2,0,0.4-0.2,0.5-0.5C53,31.8,52.9,31.6,52.8,31.5 M51.6,33.5L51.6,33.5C51.6,33.5,51.6,33.4,51.6,33.5
				C51.6,33.4,51.6,33.5,51.6,33.5"/>
			<path class="st6" d="M52.9,24.7L52.9,24.7L52.9,24.7C52.9,24.8,52.9,24.8,52.9,24.7L52.9,24.7"/>
			<path class="st6" d="M50.2,34.4c-0.2,0.1-0.4,0-0.5-0.2c-0.1-0.1-0.1-0.3,0-0.4c-0.2,0-0.3-0.2-0.3-0.4s0.1-0.4,0.2-0.5
				c-0.2-0.1-0.2-0.3-0.2-0.6c0-0.2,0.1-0.4,0.3-0.5c-0.2-0.1-0.2-0.3-0.2-0.6c0-0.2,0.2-0.4,0.4-0.5c-0.1-0.1-0.2-0.3-0.1-0.5
				c0-0.2,0.2-0.4,0.3-0.4c-0.1-0.1-0.1-0.3,0-0.5c0-0.2,0.2-0.4,0.3-0.4c-0.1-0.1-0.1-0.3,0-0.5c0-0.2,0.1-0.3,0.2-0.4
				c0-0.1,0-0.3,0-0.4c0.1-0.2,0.2-0.4,0.4-0.4c-0.1-0.1-0.1-0.3,0-0.5s0.3-0.4,0.4-0.4c0-0.1,0-0.3,0.1-0.4
				c0.1-0.2,0.3-0.3,0.4-0.3c0-0.1,0-0.2,0.1-0.3c0.1-0.2,0.3-0.3,0.4-0.3c0-0.1,0.1-0.1,0.1-0.1c0.1-0.2,0.3-0.2,0.4-0.2
				c0-0.1-0.1-0.2-0.2-0.2c-0.1,0-0.2,0-0.3,0.1l0,0c-0.1-0.1-0.4-0.1-0.5,0.1l-0.1,0.1c-0.2,0-0.3,0.1-0.4,0.3
				c0,0.1-0.1,0.2-0.1,0.3c-0.1,0-0.3,0.1-0.4,0.3c-0.1,0.1-0.1,0.3-0.1,0.4c-0.2,0-0.3,0.2-0.4,0.4c-0.1,0.2-0.1,0.4,0,0.5
				c-0.2,0-0.3,0.2-0.4,0.4c0,0.2,0,0.3,0,0.4c-0.1,0.1-0.2,0.2-0.2,0.4c0,0.2,0,0.3,0,0.5c-0.1,0.1-0.3,0.2-0.3,0.4
				c0,0.2,0,0.3,0,0.5c-0.1,0.1-0.3,0.2-0.3,0.4c-0.1,0.2,0,0.4,0.1,0.5c-0.2,0.1-0.3,0.2-0.4,0.5c-0.1,0.3,0,0.5,0.2,0.6
				c-0.1,0.1-0.2,0.3-0.3,0.5c0,0.3,0,0.5,0.2,0.6c-0.1,0.1-0.2,0.3-0.2,0.5s0.1,0.4,0.3,0.4c0,0.1,0,0.3,0,0.4
				c0.1,0.2,0.3,0.3,0.5,0.2c0.1,0.1,0.2,0.3,0.4,0.3c0.1,0,0.2,0,0.3,0C50.3,34.5,50.3,34.5,50.2,34.4"/>
			<path class="st8" d="M48.9,27c0,0,1.4,1,0.9,3.7c-0.4,2.6-0.3,4.4,1.2,4.4c0,0-2.4,1.3-3.4-1.5C46.6,30.8,48.9,27,48.9,27"/>
			<path class="st0" d="M47.2,59.9c0,0-2.7-8.2-0.2-9.8c0,0,0.8,1.2,1,3.7C48,54.9,51.1,61.3,47.2,59.9"/>
			<path class="st4" d="M47.6,55.3c0.1-0.2,0.1-0.4,0-0.7c-0.1-0.2-0.3-0.4-0.5-0.4c0-0.2,0-0.4-0.1-0.6c-0.1-0.2-0.3-0.4-0.5-0.4
				c0-0.2,0-0.4-0.1-0.6c-0.1-0.2-0.3-0.3-0.4-0.4c0-0.2,0-0.3-0.1-0.5c-0.2-0.2-0.4-0.4-0.6-0.3c0-0.2,0-0.4-0.1-0.6
				c-0.2-0.2-0.4-0.4-0.6-0.3c0-0.2-0.1-0.3-0.2-0.5c-0.2-0.2-0.4-0.3-0.6-0.2c0-0.1-0.1-0.2-0.2-0.3c-0.2-0.2-0.5-0.3-0.6-0.1l0,0
				c0-0.1-0.1-0.1-0.1-0.1c-0.2-0.2-0.5-0.2-0.6,0c-0.1-0.1-0.3-0.1-0.4,0c-0.1,0.1-0.2,0.2-0.2,0.4l0,0c-0.2,0-0.4,0.2-0.4,0.5
				c0,0.1,0,0.1,0,0.2c-0.2,0.1-0.2,0.3-0.1,0.6c0,0.1,0.1,0.2,0.2,0.3c-0.1,0.1-0.2,0.3-0.1,0.6c0.1,0.2,0.2,0.3,0.3,0.4
				c-0.1,0.1-0.2,0.4,0,0.7c0.1,0.2,0.3,0.4,0.4,0.4c-0.1,0.1-0.1,0.4,0,0.7c0.1,0.2,0.2,0.3,0.3,0.4c0,0.2,0,0.4,0.1,0.5
				c0.1,0.2,0.3,0.3,0.4,0.4c-0.1,0.2,0,0.4,0.1,0.6c0.1,0.2,0.3,0.3,0.4,0.4c-0.1,0.2,0,0.4,0.1,0.6c0.1,0.3,0.4,0.4,0.6,0.4
				c-0.1,0.2-0.1,0.5,0.1,0.7c0.2,0.3,0.4,0.4,0.6,0.4c-0.1,0.2,0,0.4,0.1,0.7c0.2,0.3,0.4,0.4,0.6,0.3c0,0.2,0.1,0.4,0.3,0.6
				c0.2,0.2,0.5,0.3,0.6,0.2c0.1,0.1,0.2,0.3,0.4,0.3c0.3,0.1,0.5,0,0.6-0.2c0.2,0.1,0.4,0.1,0.6-0.1c0.2-0.1,0.3-0.4,0.4-0.6
				c0.3,0.1,0.5-0.1,0.6-0.4c0-0.2,0-0.4-0.1-0.5c0.2-0.1,0.2-0.4,0.2-0.7c-0.1-0.3-0.2-0.5-0.4-0.6c0.1-0.2,0.2-0.5,0-0.8
				c-0.1-0.2-0.3-0.4-0.5-0.5c0.1-0.2,0.2-0.5,0-0.8C48,55.5,47.8,55.3,47.6,55.3 M48.2,57.7L48.2,57.7
				C48.1,57.7,48.1,57.7,48.2,57.7C48.1,57.7,48.2,57.7,48.2,57.7"/>
			<path class="st6" d="M42.7,49.9L42.7,49.9L42.7,49.9L42.7,49.9L42.7,49.9"/>
			<path class="st6" d="M47.8,59.5c-0.1,0.2-0.3,0.3-0.5,0.2c-0.1-0.1-0.3-0.2-0.3-0.3c-0.1,0.1-0.4,0-0.6-0.1
				c-0.2-0.2-0.3-0.4-0.3-0.6c-0.2,0.1-0.4-0.1-0.6-0.3c-0.1-0.2-0.2-0.4-0.1-0.6c-0.2,0.1-0.4-0.1-0.6-0.3
				c-0.1-0.2-0.2-0.5-0.1-0.7c-0.2,0-0.4-0.1-0.5-0.3s-0.1-0.4-0.1-0.6c-0.1,0-0.3-0.2-0.4-0.3c-0.1-0.2-0.1-0.4-0.1-0.6
				c-0.1,0-0.3-0.2-0.4-0.3c-0.1-0.2-0.1-0.3-0.1-0.5c-0.1-0.1-0.2-0.2-0.3-0.3c-0.1-0.2-0.1-0.5,0-0.6c-0.1,0-0.3-0.2-0.4-0.4
				c-0.1-0.2-0.1-0.5,0-0.6c-0.1-0.1-0.2-0.2-0.3-0.4s0-0.5,0.1-0.5c-0.1-0.1-0.1-0.2-0.2-0.3c-0.1-0.2,0-0.5,0.1-0.6
				c0-0.1,0-0.1,0-0.2c0-0.2,0.1-0.4,0.2-0.5c-0.1,0-0.2-0.1-0.3,0s-0.1,0.2-0.1,0.3l0,0c-0.2,0-0.3,0.2-0.3,0.5c0,0.1,0,0.1,0,0.2
				c-0.2,0.1-0.2,0.3-0.1,0.6c0,0.1,0.1,0.2,0.2,0.3c-0.1,0.1-0.2,0.3-0.1,0.5c0.1,0.2,0.1,0.3,0.3,0.4c-0.1,0.1-0.1,0.4,0,0.6
				c0.1,0.2,0.2,0.3,0.4,0.4c-0.1,0.1-0.1,0.4,0,0.6c0.1,0.2,0.2,0.3,0.3,0.3c0,0.1,0,0.3,0.1,0.5s0.2,0.3,0.4,0.3
				c-0.1,0.1,0,0.4,0.1,0.6c0.1,0.2,0.2,0.3,0.4,0.3c-0.1,0.1,0,0.4,0.1,0.6c0.1,0.2,0.3,0.4,0.5,0.3c-0.1,0.2-0.1,0.4,0.1,0.7
				c0.2,0.2,0.4,0.4,0.6,0.3c0,0.2,0,0.4,0.1,0.6c0.2,0.2,0.4,0.4,0.6,0.3c0,0.2,0.1,0.4,0.3,0.6c0.2,0.2,0.4,0.2,0.6,0.1
				c0.1,0.1,0.2,0.2,0.3,0.3c0.2,0.1,0.5,0,0.5-0.2c0.2,0.1,0.4,0,0.5-0.1s0.2-0.1,0.2-0.2C47.9,59.5,47.8,59.5,47.8,59.5"/>
			<path class="st8" d="M41.4,54.4c0,0,1.9-0.2,3.5,2.3c1.6,2.4,2.8,3.7,4,2.6c0,0,0.5,2.3-3.6,1.4C42.1,59.9,41.4,54.4,41.4,54.4"
				/>
		</g>
	</g>
</g>
</svg>
