<?xml version="1.0" encoding="utf-8"?>
<!-- Generator: Adobe Illustrator 22.0.1, SVG Export Plug-In . SVG Version: 6.00 Build 0)  -->
<svg version="1.1" id="Layer_1" xmlns="http://www.w3.org/2000/svg" xmlns:xlink="http://www.w3.org/1999/xlink" x="0px" y="0px"
	 viewBox="0 0 100 100" style="enable-background:new 0 0 100 100;" xml:space="preserve">
<style type="text/css">
	.st0{fill:#D75B4D;}
	.st1{fill:#285E85;}
	.st2{fill:#76A075;}
	.st3{fill:#F3B744;}
	.st4{fill:#FFF8DD;}
</style>
<g id="Layer_1_1_">
	<g>
		<circle class="st0" cx="50.2" cy="50.2" r="37"/>
		<path class="st1" d="M38.4,14.7l11.7,35.1h37C87.1,49.8,86.2,5.5,38.4,14.7z"/>
		<path class="st2" d="M87.2,49.8h-37L38.4,84.9C38.4,84.9,80.8,98.1,87.2,49.8z"/>
		<path class="st3" d="M38.5,84.9l11.8-35.1L20.7,27.6C20.7,27.6-5.3,63.6,38.5,84.9z"/>
		<path class="st4" d="M50,91C27.4,91,9,72.6,9,50S27.4,9,50,9s41,18.4,41,41S72.6,91,50,91z M50,14.2c-19.7,0-35.8,16-35.8,35.8
			s16,35.8,35.8,35.8s35.8-16,35.8-35.8S69.7,14.2,50,14.2z"/>
	</g>
</g>
</svg>
