<?xml version="1.0" encoding="utf-8"?>
<!-- Generator: Adobe Illustrator 22.0.1, SVG Export Plug-In . SVG Version: 6.00 Build 0)  -->
<svg version="1.1" id="Layer_1" xmlns="http://www.w3.org/2000/svg" xmlns:xlink="http://www.w3.org/1999/xlink" x="0px" y="0px"
	 viewBox="0 0 100 100" style="enable-background:new 0 0 100 100;" xml:space="preserve">
<style type="text/css">
	.st0{fill:#FFF8DD;}
	.st1{fill:#F4B844;}
	.st2{fill:#D75B4D;}
	.st3{fill:#537D41;}
</style>
<g id="Layer_3">
	<g>
		<polygon class="st0" points="95.3,78.5 95.1,21.3 64.4,21.4 64.5,35.1 34.9,35.1 35,49.6 4.7,49.7 4.8,78.7 35.1,78.6 35.1,78.6 
			64.6,78.5 64.6,78.6 		"/>
		<path class="st1" d="M19.6,68.7c0-1.9,0.1-3.7,0.1-5.6c0-0.8,0-1.7-0.1-2.6c-0.5,0.5-1,1.4-2,1.5c-0.1,0-0.3,0-0.4,0
			c-0.8,0-1.3-0.3-1.4-0.9c0-0.1,0-0.1,0-0.2c0-0.9,1.3-1.9,1.8-2.5c0.8-0.8,1.3-1.7,2-2.3c0.4-0.1,0.7-0.2,1-0.2
			c2.1,0,2.3,3.6,2.3,6.9v1.5c0,1.9-0.2,3.3-0.2,4.5c0,0.7,0.1,1.4,0.2,2.1c0,0.1,0,0.2,0,0.3c0,0.4-0.1,0.9-0.3,1.1
			c-0.4,0.4-1.1,0.6-1.7,0.6c-0.5,0-0.9-0.1-1.1-0.4C19.6,71.3,19.6,70,19.6,68.7z"/>
		<path class="st2" d="M47.4,52.6c-0.1,0-0.3,0-0.4,0c-0.3-0.2-0.5-0.5-0.7-0.7c0.1-2.5,2.1-3.7,4.1-3.7c2.1,0,6.8,1.3,6.8,4
			c0,0.2,0,0.4,0,0.6c0,3.7-7.3,6.4-7.3,9.2v0.3c0.4,0.2,1.1,0.3,1.6,0.3c1.4,0,2.5-0.5,3.8-0.5c0.5,0,1,0.1,1.4,0.2
			c0.4,0.2,0.8,0.6,0.8,1.2v0.2c-0.3,1.5-2.6,1.6-4.8,1.6c-0.7,0-1.4,0-2.1,0c-0.4,0-0.9,0-1.4,0c-1.6,0-3.3-0.2-3.4-1.2
			c0-1,0.2-1.8,0.5-2.6c1.2-3.2,7.5-5.7,7.5-8.7c0-1,0-2-3.9-2C49.2,51.6,48.8,52.6,47.4,52.6z"/>
		<path class="st3" d="M76.7,54.5c0-2,3.6-0.7,5-1.5c0.6-0.4,1.1-2.9,1.2-3.9c0-0.2,0-0.4,0-0.5c0-0.5-0.1-0.8-0.2-1.1
			c-0.5-0.9-3.1-0.6-3.4-1.8c0-0.1,0-0.2,0-0.3c0-1.2,2.1-1.7,2.1-3.1c0-0.1,0-0.3-0.1-0.4c-0.3-0.3-0.6-0.5-1-0.5
			c-0.8,0-1.9,0.6-2.7,0.6c-0.1,0-0.2,0-0.2,0c-0.5-0.1-1-0.4-1.1-1c0-1.4,2.3-2.1,4.2-2.1c0.2,0,0.5,0,0.7,0c1.4,0.2,3.2,1,3.3,2.4
			v0.2c0,1-0.7,1.9-1.1,3c1.1,0.7,2.5,1.3,2.6,3.2V48c0,2-0.9,5.2-1.7,6.2c-0.8,1-2.7,1.8-4.5,1.8c-1,0-2-0.2-2.8-0.7
			C76.7,54.9,76.7,54.6,76.7,54.5z"/>
	</g>
</g>
</svg>
