<?xml version="1.0" encoding="utf-8"?>
<!-- Generator: Adobe Illustrator 22.0.1, SVG Export Plug-In . SVG Version: 6.00 Build 0)  -->
<svg version="1.1" id="Layer_1" xmlns="http://www.w3.org/2000/svg" xmlns:xlink="http://www.w3.org/1999/xlink" x="0px" y="0px"
	 viewBox="0 0 1920 1500" style="enable-background:new 0 0 1920 1500;" xml:space="preserve">
<style type="text/css">
	.st0{clip-path:url(#SVGID_2_);}
	.st1{fill:#64A2A1;}
	.st2{fill:#C7D17B;}
	.st3{fill:#3F6F71;}
	.st4{fill:#92C2B4;}
	.st5{fill:#658369;}
	.st6{fill:#FFFFFF;}
	.st7{fill:#DFDCCE;}
	.st8{fill:#B5BE6D;}
	.st9{fill:#2E583C;}
	.st10{clip-path:url(#SVGID_4_);fill:none;}
</style>
<g id="Layer_1_1_">
	<g>
		<g>
			<defs>
				<rect id="SVGID_1_" width="1920" height="1500"/>
			</defs>
			<clipPath id="SVGID_2_">
				<use xlink:href="#SVGID_1_"  style="overflow:visible;"/>
			</clipPath>
			<g class="st0">
				<g>
					<path class="st1" d="M248.1,198.8c-13.7,42.6-34.7,85.5-71.8,110.5c-1.1,0.8-2.1,1.4-3.3,2.1h-0.1
						c-26,16.4-56.9,23.3-85.9,34.2c0,0,0,0-0.1,0c-0.5,0.1-1,0.3-1.5,0.5C55,357.8,24,377,13.5,408.1c0.2,0.8-2,2.2-4.9,3.5l0,0
						c-4.7,2.1-11.2,3.9-11.9,2.6c-1-1.9-0.1-4.2,0.9-6.1c0.1-0.1,0.1-0.2,0.2-0.3c6.6-11.6,15.8-21.9,19.9-34.6
						c3-9.3,3-19.3,4-29.1c0.4-4.5,1.1-8.9,2.4-13.1c5.1-17.7,19.8-31.2,36.3-39.4c4-2,8-3.7,12.1-5.2l0,0
						c13.1-4.7,26.9-7.5,40.6-10.5c3.1-0.6,6.1-1.3,9.2-2C172.2,262.4,224.5,243.4,248.1,198.8z"/>
					<path class="st2" d="M17.7,373.2c-4.1,12.7-13.3,23-19.9,34.6c-0.1,0.1-0.1,0.2-0.2,0.3c-3-14.7-8.8-33.1-12.5-47
						c-3.7-13.8-12.2-27.5-25.3-32.9c-32,3.5-63.5,11.1-93.6,22.7c-5.2,2-11.4,4.1-16,1c-4.4-2.9-5.2-9.3-3.2-14.2
						c2-4.8,6-8.5,9.9-12c18.6-16.6,39.1-33.9,63.9-36.3c0.9-0.1,1.8-0.1,2.7-0.2c19.3-1.1,38,6.9,55.8,14.8
						c7.4,3.3,14.9,6.6,21.5,11.2l0,0c3.2,2.1,6.1,4.4,8.7,7.2c2.1,2.1,3.9,4.5,5.4,7c2.3,3.8,4.9,9.2,6.6,14.7
						C20.7,353.9,20.7,363.9,17.7,373.2z"/>
					<path class="st3" d="M122.4,273.9c-3.1,0.7-6.2,1.4-9.2,2c-13.7,2.9-27.5,5.7-40.6,10.5l0,0c-4.1,1.5-8.2,3.2-12.1,5.2
						C44,299.8,29.3,313.3,24.2,331c-1.3,4.3-1.9,8.7-2.4,13.1c-1.7-5.5-4.3-10.9-6.6-14.7c9.2-18.3,5.5-40.7,5.7-61.5
						c0-3,0.2-6.1,0.5-9.1c0,0,0-0.1,0-0.2c2.5-31.9,15.5-62.9,36.5-86.9c7.1-8.1,14.9-15.3,22.8-22.6
						c17.6-16.2,35.2-32.5,52.8-48.7c2.3-2.2,4.9-4.4,8-4.6c7.8-0.4,10,10.6,9.2,18.5C145.6,165.9,139.9,224.9,122.4,273.9z"/>
					<path class="st4" d="M15.1,329.4c-1.5-2.5-3.4-4.9-5.4-7c-2.6-2.7-5.6-5.1-8.7-7.2l0,0c-6.7-4.5-14.1-7.9-21.5-11.2
						c-17.8-7.9-36.5-15.9-55.8-14.8c-23.2-14.6-46.8-29.7-63.2-51.7c-21.5-29-27.6-68.7-15.8-102.8c1.4-4,3.3-8.3,7.1-10.4
						c3-1.6,6.5-1.5,9.8-1.4c12.2,0.4,24.7,0.8,36.3,5c19.7,7.3,33.7,24.6,50.6,37c13.9,10.4,30.2,17.7,41.9,30.6
						c2.8,3.1,6.5,8.4,10.4,14.8c9.6,15.8,20.2,37.9,20.7,48.3c0,0,0,0.1,0,0.2c-0.3,3-0.4,6-0.5,9.1
						C20.6,288.7,24.3,311.1,15.1,329.4z"/>
					<path class="st5" d="M251.9,446.7c-32.1,10.7-67.7,2.6-98.5-11.4c-11.8-5.4-23.6-11.9-31.8-22.1c-5.2-6.4-8.7-14-14-20.2
						c-10.9-12.6-27.3-17.4-44.3-19.3C46.8,379,23,398.5,22.6,413.2c0,0-6.5,6.5-14-1.6c2.9-1.3,5.1-2.6,4.9-3.5
						c10.5-31,41.5-50.3,72-61.9c0.5-0.2,0.9-0.4,1.5-0.5c0.1,0,0.1,0,0.1,0c28.9-10.9,59.9-17.8,85.9-34.2h0.1
						c16.7,1.7,31.5,12.2,45.1,22.4c6.8,5.1,13.7,10.3,18.1,17.5c3.7,6.1,5.2,13.3,6.6,20.3C247.7,396.4,250.8,421.5,251.9,446.7z"
						/>
					<g>
						<path class="st6" d="M-0.9,318c0.9-4.7-0.5-9.4-2.9-13.3c-2.4-4-5.5-7.4-8.9-10.6s-6.9-6.4-10.4-9.6s-6.9-6.5-10.3-9.8
							c-13.7-13.2-26.9-26.9-39.7-40.9c-12.8-14.1-25.2-28.5-37-43.4c-11.9-14.8-23.3-30.1-33.9-45.9c12.8,14.1,25.3,28.4,37.8,42.5
							c12.6,14.2,25.2,28.3,38,42.2c12.7,14,25.6,27.9,38.5,41.8l9.7,10.4c3.2,3.5,6.5,6.9,9.7,10.5c1.6,1.8,3.1,3.7,4.5,5.7
							s2.7,4.1,3.7,6.3c1,2.2,1.7,4.6,2,7C0.1,313.3-0.1,315.8-0.9,318z"/>
					</g>
					<g>
						<path class="st6" d="M-96.4,203c-0.1-4.8,0.4-9.4,1.1-13.9s1.7-9,2.9-13.4c1.2-4.4,2.6-8.8,4.3-13.1c1.7-4.3,3.6-8.5,6.1-12.6
							c0.1,4.8-0.4,9.4-1.1,13.9s-1.7,9-2.9,13.4c-1.2,4.4-2.6,8.8-4.3,13.1C-92,194.7-93.9,198.9-96.4,203z"/>
					</g>
					<g>
						<path class="st6" d="M-64.5,240.4c1.7-4.6,3.7-8.8,5.5-13s3.6-8.4,5.3-12.6c1.7-4.2,3.3-8.5,5-12.8c1.6-4.3,3.2-8.7,5.1-13.2
							c0.8,4.8,0.6,9.7-0.1,14.5c-0.7,4.8-2,9.5-3.9,13.9c-1.8,4.5-4.1,8.8-6.9,12.7C-57.3,233.9-60.6,237.5-64.5,240.4z"/>
					</g>
					<g>
						<path class="st6" d="M-40.3,265.3c4.7-4.1,9-8.1,12.9-12.5c3.9-4.3,7.5-8.9,10.7-13.8c3.2-4.8,6-9.9,8.5-15.2
							s4.5-10.9,6.5-16.8c0.8,6.2,0.1,12.5-1.5,18.6c-1.7,6.1-4.3,11.9-7.8,17.1c-3.5,5.3-7.8,10-12.7,13.9
							C-28.8,260.5-34.3,263.6-40.3,265.3z"/>
					</g>
					<g>
						<path class="st6" d="M-94.6,202c-4.2,0.3-8.1,0-12-0.4s-7.7-1-11.6-1.8c-3.8-0.8-7.6-1.7-11.4-2.8c-3.8-1.1-7.5-2.4-11.3-4.2
							c4.1-0.9,8.1-1.1,12.1-0.9c4,0.1,7.9,0.6,11.8,1.4c3.9,0.8,7.7,1.9,11.5,3.3C-101.7,197.9-98,199.6-94.6,202z"/>
					</g>
					<g>
						<path class="st6" d="M-64,238.7c-3.8,3.3-8.3,5.6-13.1,7.1c-4.8,1.5-9.9,2.2-14.9,2.1c-5.1-0.1-10.1-1-14.8-2.7
							c-4.7-1.7-9.2-4.2-12.8-7.7c4.9,1,9.5,2,14.1,2.6c4.6,0.7,9.1,1,13.7,1.1s9.1-0.1,13.7-0.6C-73.6,240.3-68.9,239.5-64,238.7z"
							/>
					</g>
					<g>
						<path class="st6" d="M-39.3,265.5c-3.9,1.2-7.7,1.7-11.5,2.1c-3.8,0.3-7.6,0.4-11.4,0.2c-3.8-0.2-7.6-0.6-11.4-1.2
							c-3.8-0.7-7.6-1.6-11.3-3.1c3.9-1.2,7.7-1.8,11.5-2.1c3.8-0.3,7.6-0.4,11.4-0.2c3.8,0.2,7.6,0.6,11.4,1.2
							C-46.9,263.1-43.1,264-39.3,265.5z"/>
					</g>
					<g>
						<path class="st6" d="M220.3,426.9c-8-11.9-16.4-23.4-25.4-34.3c-2.3-2.7-4.6-5.4-6.9-8c-2.4-2.6-4.7-5.2-7.2-7.8l-3.6-3.8
							c-1.3-1.3-2.5-2.5-3.8-3.7c-2.5-2.4-5.1-4.8-7.7-6.9c-2.7-2.2-5.4-4.2-8.3-5.9c-0.7-0.4-1.4-0.8-2.2-1.2l-2.3-1.2
							c-1.5-0.7-3.1-1.4-4.7-2.1c-3.2-1.3-6.4-2.2-9.8-3.1c-3.4-0.8-6.8-1.4-10.2-1.9c-13.9-1.8-28.1-1.1-42.5-0.6
							c7-1.7,14-3,21.2-3.9c3.6-0.4,7.2-0.7,10.8-0.9c3.6-0.2,7.3-0.1,10.9,0.1c7.3,0.4,14.7,1.7,21.7,4.2c1.8,0.6,3.5,1.4,5.2,2.1
							l2.5,1.2c0.9,0.4,1.7,0.9,2.5,1.3c3.3,1.9,6.4,4.1,9.2,6.4c2.9,2.4,5.6,4.9,8.1,7.4c1.3,1.3,2.6,2.6,3.8,3.9
							c1.3,1.4,2.5,2.7,3.7,4.1c4.8,5.4,9.3,11,13.5,16.9C207.4,401.1,214.7,413.6,220.3,426.9z"/>
					</g>
					<g>
						<path class="st6" d="M153.8,352.6c3.8-2.8,7.8-5,11.9-7.1c4.1-2,8.3-3.7,12.6-5.3c4.3-1.5,8.6-2.9,13-3.9
							c4.4-1.1,9-1.9,13.7-2.1c-3.8,2.8-7.8,5.1-11.9,7.1c-4.1,2-8.3,3.7-12.6,5.3c-4.3,1.5-8.6,2.9-13,3.9
							C163,351.5,158.5,352.3,153.8,352.6z"/>
					</g>
					<g>
						<path class="st6" d="M180.9,373.4c4.8-2.5,9.9-4,15.1-5c5.2-0.9,10.6-1.3,15.9-1.1c5.3,0.2,10.6,1,15.8,2.4
							c5.1,1.4,10.1,3.4,14.7,6.3c-5.4-0.2-10.5-0.8-15.6-1.1c-5.1-0.4-10.1-0.7-15.2-0.9c-5-0.2-10.1-0.3-15.2-0.4
							C191.4,373.6,186.2,373.6,180.9,373.4z"/>
					</g>
					<g>
						<path class="st6" d="M125,344.1c-0.1,2.5-0.2,4.8,0,7.2l0.1,1.8l0.1,1.8l0.1,1.8c0.1,0.6,0.1,1.2,0.2,1.8
							c0.4,4.7,0.8,9.3,1.3,14s1,9.3,1.5,14c0.1,0.6,0.1,1.2,0.2,1.8l0.2,1.7l0.2,1.8c0.1,0.6,0.2,1.2,0.3,1.7
							c0.3,2.4,0.8,4.6,1.4,7.1c-0.9-0.9-1.8-1.8-2.5-2.8c-0.4-0.5-0.7-1-1.1-1.6c-0.3-0.5-0.6-1.1-0.9-1.6
							c-0.3-0.6-0.6-1.1-0.9-1.7l-0.7-1.7c-0.5-1.2-0.9-2.3-1.3-3.5c-1.6-4.7-2.5-9.6-3-14.5s-0.5-9.9,0.1-14.8
							c0.1-1.2,0.3-2.5,0.6-3.7l0.4-1.8c0.2-0.6,0.3-1.2,0.5-1.8c0.2-0.6,0.4-1.2,0.6-1.8c0.2-0.6,0.5-1.2,0.8-1.8
							C123.5,346.2,124.3,345.1,125,344.1z"/>
					</g>
					<g>
						<path class="st6" d="M179,369c-0.6,3.9-0.4,7.3-0.2,10.9c0.3,3.5,0.7,7,1.2,10.5s1.1,7,1.7,10.5c0.6,3.5,1.3,7,2.3,10.8
							c-1.6-1.1-3-2.6-4.2-4.2s-2.2-3.3-3-5.1c-1.7-3.5-2.8-7.3-3.3-11.2c-0.5-3.9-0.5-7.8,0.2-11.7c0.2-1,0.4-1.9,0.7-2.9
							s0.7-1.9,1.1-2.8C176.3,372,177.5,370.3,179,369z"/>
					</g>
					<g>
						<path class="st6" d="M71.1,287.2c2.3-6.5,4.8-12.9,7.3-19.4l7.6-19.2l15.2-38.2c5-12.8,9.9-25.5,14.6-38.4l3.4-9.7
							c1.2-3.2,2.3-6.5,3.3-9.7c1.1-3.2,2.2-6.5,3.2-9.8s2-6.6,2.9-9.9c-0.1,3.5-0.6,6.9-1.1,10.3c-0.5,3.4-1.2,6.8-1.8,10.2
							c-1.4,6.8-3.1,13.5-5,20.1c-3.8,13.3-8.3,26.4-13.4,39.2s-10.6,25.5-16.6,37.9C84.8,263.2,78.2,275.3,71.1,287.2z"/>
					</g>
					<g>
						<path class="st6" d="M78.2,272.1c-2.9-1.3-5.2-3-7.4-4.8c-2.2-1.8-4.2-3.8-6-6c-1.8-2.1-3.5-4.4-4.9-6.9s-2.7-5.1-3.4-8.1
							c2.9,1.2,5.2,2.9,7.4,4.8c2.2,1.8,4.2,3.8,6,6s3.4,4.4,4.9,6.9C76.2,266.4,77.5,269,78.2,272.1z"/>
					</g>
					<g>
						<path class="st6" d="M107.1,207c-2.4-2-4.2-4.2-5.9-6.6c-1.6-2.4-3-4.8-4.2-7.4c-1.2-2.6-2.1-5.2-2.9-8
							c-0.7-2.8-1.2-5.6-1.1-8.8c2.4,2,4.3,4.2,5.9,6.6c1.6,2.4,3,4.8,4.2,7.4c1.2,2.6,2.1,5.2,2.9,8
							C106.7,201,107.2,203.9,107.1,207z"/>
					</g>
					<g>
						<path class="st6" d="M90.3,247.6c-3.3-2.7-6-5.8-8.5-9s-4.7-6.7-6.6-10.3s-3.6-7.4-4.9-11.3c-0.3-1-0.6-2-0.8-3
							c-0.3-1-0.4-2.1-0.6-3.1c-0.3-2.1-0.4-4.3,0-6.4c0.3,0.5,0.5,0.9,0.8,1.4c0.2,0.5,0.4,0.9,0.7,1.3c0.6,0.9,1,1.7,1.6,2.6
							l1.6,2.5c0.5,0.8,1.1,1.7,1.6,2.5c2.1,3.4,4.1,6.8,5.9,10.3c1.9,3.5,3.7,7.1,5.3,10.8C87.8,239.6,89.3,243.4,90.3,247.6z"/>
					</g>
				</g>
				<path class="st7" d="M-3.1,410.3c0,0,153.5-15.3,207.6,141.4s47.7-27,211.6,16.2c126.4,33.3-9,242.2,196.6,290.9
					c0,0,46.1,0,63.2,34.2c17.1,34.2,15,101.8-201.6,109s-140.4,184.6-233.7,215.2s-74.2-106.3-135.4-100.9S133.3,1464.8-3.1,1463"
					/>
				<path class="st8" d="M-3.1,600.1c0,0,129.9-33.4,250.2,107s383.3,92.4,462.5,223.8c0,0,40.8,101.5-399.8,44.6
					c-440.5-56.9-144.6,82-312.9,141.4C-3.1,1116.9-3.1,600.1-3.1,600.1z"/>
				<path class="st9" d="M-152.5,836.7c0,0-87.8-206.1,234.1-412.2C81.6,424.5,129.6,742.2-152.5,836.7z"/>
			</g>
		</g>
		<g>
			<defs>
				<rect id="SVGID_3_" width="1920" height="1500"/>
			</defs>
			<clipPath id="SVGID_4_">
				<use xlink:href="#SVGID_3_"  style="overflow:visible;"/>
			</clipPath>
			<rect class="st10" width="1920" height="1500"/>
		</g>
	</g>
</g>
</svg>
