<?xml version="1.0" encoding="utf-8"?>
<!-- Generator: Adobe Illustrator 22.0.1, SVG Export Plug-In . SVG Version: 6.00 Build 0)  -->
<svg version="1.1" id="Layer_1" xmlns="http://www.w3.org/2000/svg" xmlns:xlink="http://www.w3.org/1999/xlink" x="0px" y="0px"
	 viewBox="0 0 1920 1500" style="enable-background:new 0 0 1920 1500;" xml:space="preserve">
<style type="text/css">
	.st0{clip-path:url(#SVGID_2_);}
	.st1{fill:#B5BE6D;}
	.st2{fill:#DFDCCE;}
	.st3{fill:#0F2B53;}
	.st4{fill:#ADD483;}
	.st5{fill:#3B9A7F;}
	.st6{fill:#275E85;}
	.st7{fill:#64A2A1;}
	.st8{fill:#2E583C;}
	.st9{fill:#537D41;}
	.st10{fill:#658369;}
	.st11{fill:#FFFFFF;}
	.st12{fill:#F5B843;}
	.st13{fill:#4D4032;}
	.st14{clip-path:url(#SVGID_4_);fill:none;}
</style>
<g id="Layer_2_1_">
	<g>
		<g>
			<defs>
				<rect id="SVGID_1_" width="1920" height="1500"/>
			</defs>
			<clipPath id="SVGID_2_">
				<use xlink:href="#SVGID_1_"  style="overflow:visible;"/>
			</clipPath>
			<g class="st0">
				<path class="st1" d="M1922.6,541.7c0,0-174.3-28.3-401.3,107.4s-26.6,105.5,35.7,171c73,76.8-113.9,58.9-66.1,172.5
					c128.8,306.4,375.7,210.1,431.8,294.9L1922.6,541.7L1922.6,541.7z"/>
				<path class="st2" d="M1922.6,695.2c0,0-138.4,21.3-150.4,93.9c-12,72.7-145.4,48.7-196.6,114.3s190.8,11.3,216.6,62
					c30.3,59.4,24.1,124-223.7,159.5s-59.2,114.3,203.6,135.6c0,0,136.4-5.3,150.4,101.9L1922.6,695.2L1922.6,695.2z"/>
				<path class="st3" d="M2061.4,684.6c0,0-320.7,72.3-533.1-446.9C1528.3,237.7,1999.6,252.5,2061.4,684.6z"/>
				<g>
					<path class="st4" d="M1691.5,48.1c0,0-10.5,2.8-13.2-2.8c-2.6-5.6-21.1-16.9-34.3,2.8s-10.5,84.3-13.2,92.7
						c-2.6,8.4-29,33.7,2.6,78.6s23.7,39.3,15.8,56.2c-7.9,16.9,7.9,47.7,0,64.6s7.9,44.9,52.7,39.3c44.8-5.6,10.5,25.3,15.8,50.6
						s55.3,28.1,65.9,8.4s13.2,2.8,18.4-5.6c5.3-8.4,10.5-16.9,5.3-30.9c-5.3-14,13.2-28.1,13.2-42.1s-5.3-30.9,0-47.7
						c5.3-16.9-13.2-22.5-15.8-36.5c-2.6-14,18.4-36.5,5.3-73s-36.9-39.3-29-84.3c7.9-44.9-31.6-42.1-44.8-61.8
						C1723.1,36.9,1702,39.7,1691.5,48.1z"/>
					<path class="st5" d="M1833.8,404.8c0,0,7.9,28.1,23.7,0c15.8-28.1,31.6-19.7,39.5-5.6c7.9,14,23.7,14,29-8.4
						c5.3-22.5,13.2-16.9,15.8-33.7c2.6-16.9,18.4-8.4,13.2-47.7s15.8-75.8,18.4-84.3c2.6-8.4,7.9-59-7.9-67.4
						c-15.8-8.4-29-14-31.6-33.7s-29-5.6-31.6-16.9c-2.6-11.2-2.6-39.3-23.7-36.5c-21.1,2.8-29-28.1-39.5,14s-7.9,87.1-21.1,95.5
						s-5.3,28.1-7.9,53.4s-21.1,19.7-13.2,50.6s21.1,42.1,15.8,73C1807.5,387.9,1831.2,396.4,1833.8,404.8z"/>
					<path class="st6" d="M1869.4,526.9c0,0-7.9-98.3,5.3-146c13.2-47.7,2.6-123.6-5.3-151.7s-36.9-78.6-36.9-78.6
						c55.3,47.7,55.3,151.7,55.3,151.7c5.3-25.3,18.4-185.4,18.4-185.4c5.3,33.7-15.8,235.9-15.8,235.9
						C1911.5,319.1,1951,159,1951,159c2.6,30.9-39.5,165.7-55.3,193.8s-15.8,56.2-18.4,103.9s7.9,101.1,31.6,120.8
						s55.3,95.5,60.6,120.8s-11.9,37.9-25,35.1c-13.2-2.8-13.2-53.4-31.6-112.3c-18.4-59-97.5-101.1-123.9-103.9
						c-26.4-2.8-50.1-67.4-47.4-67.4c2.6,0,10.5,2.8,10.5,2.8s13.2,33.7,23.7,44.9s58,22.5,58,22.5c-21.1-8.4-34.3-101.1-39.5-120.8
						s-76.4-53.4-108-87.1s-26.4-53.4-15.8-33.7s108,84.3,108,84.3s2.6-11.2-10.5-50.6c-13.2-39.3-71.2-89.9-102.8-123.6
						s-29-70.2-29-70.2s54,91.3,101.5,122.2c0,0-29-67.4-29-101.1s2.6-67.4,0-84.3c0,0,13.2-5.6,10.5,47.7
						c-2.6,53.4,23.7,137.6,34.3,143.2s52.7,78.6,58,143.2S1850.9,535.4,1869.4,526.9z"/>
				</g>
				<path class="st7" d="M1870.2,348.8c21,39.6,37,84.6,28.9,128.6c-0.2,1.3-0.5,2.5-0.8,3.8v0.1c-6.4,30.1-23.1,57-35.5,85.3
					c0,0,0,0-0.1,0.1c-0.3,0.5-0.5,0.9-0.7,1.4c-13,30-20.9,65.6-6,94.8c0.7,0.5,0.2,3-0.9,5.9l0,0c-1.8,4.9-5,10.7-6.4,10.3
					c-2-0.6-3.1-2.8-3.7-4.9c0-0.2-0.1-0.2-0.1-0.4c-3.7-12.8-4.6-26.6-10.8-38.4c-4.6-8.6-11.7-15.6-18-23.2
					c-2.9-3.4-5.6-7-7.8-10.9c-9.1-16-8.5-36-2.8-53.5c1.3-4.2,3-8.3,4.8-12.3l0,0c5.8-12.7,13.4-24.5,20.9-36.4
					c1.7-2.6,3.3-5.3,5-8C1862.7,447.6,1885.6,396.9,1870.2,348.8z"/>
				<path class="st8" d="M1834,635.5c6.2,11.8,7.1,25.6,10.8,38.4c0,0.1,0.1,0.2,0.1,0.4c-12.6-8.1-29.8-16.9-42.4-23.9
					c-12.5-7-28.2-10.4-41.2-4.9c-19.9,25.3-36.4,53.2-49.1,82.8c-2.2,5.1-5,11-10.5,12.2c-5.1,1.1-10.3-2.8-12.4-7.6
					s-1.8-10.2-1.6-15.5c1.2-24.9,3-51.7,18.6-71.1c0.6-0.7,1.1-1.4,1.7-2c12.7-14.6,31.5-22.3,49.6-29.6c7.5-3,15.1-6,23-7.6l0,0
					c3.7-0.8,7.4-1.3,11.2-1.3c2.9,0,5.9,0.3,8.8,1c4.3,1,10,2.9,15.1,5.5C1822.3,619.9,1829.5,626.8,1834,635.5z"/>
				<path class="st1" d="M1836.2,491.2c-1.7,2.7-3.3,5.4-5,8c-7.5,11.8-15.1,23.7-20.9,36.4l0,0c-1.8,4-3.4,8.1-4.8,12.3
					c-5.7,17.5-6.2,37.5,2.8,53.5c2.2,3.9,4.9,7.5,7.8,10.9c-5.1-2.6-10.8-4.5-15.1-5.5c-6.7-19.4-25.3-32.4-40-47.1
					c-2.2-2.2-4.2-4.4-6.2-6.7l-0.1-0.1c-21-24.1-34.2-55-36.7-86.8c-0.8-10.7-0.5-21.4-0.2-32.1c0.7-23.9,1.4-47.9,2.1-71.8
					c0.1-3.2,0.3-6.6,2.3-9c5.2-5.9,14.6,0.3,19.7,6.3C1775,399.1,1813.3,444.5,1836.2,491.2z"/>
				<path class="st9" d="M1800.9,606.8c-2.9-0.7-5.9-1-8.8-1c-3.8,0-7.5,0.4-11.2,1.3l0,0c-7.9,1.6-15.5,4.6-23,7.6
					c-18.1,7.2-36.8,15-49.6,29.6c-26.6,6.4-54,12.8-81.1,9.1c-35.8-4.9-68.5-28.3-84.6-60.5c-1.9-3.8-3.6-8.2-2.5-12.3
					c0.9-3.2,3.4-5.7,5.8-8c8.9-8.5,17.9-17.1,28.9-22.4c19-9,41.1-7,61.8-10.3c17.1-2.7,33.8-9.3,51.1-8.6
					c4.2,0.1,10.6,1.2,17.9,2.9c18,4.2,41.3,12,49,18.9l0.1,0.1c2,2.3,4,4.5,6.2,6.7C1775.6,574.4,1794.2,587.4,1800.9,606.8z"/>
				<path class="st10" d="M2050.3,519.2c-14.8,30.5-45.4,50.3-77,62.6c-12.2,4.7-25.1,8.6-38,7.3c-8.2-0.8-16.1-3.6-24.3-4.1
					c-16.6-1-31.5,7.4-44.8,18.3c-7.7,15.4-10.3,46.1-0.2,56.6c0,0,0.1,9.2-10.9,8.9c1.1-2.9,1.7-5.5,0.9-5.9
					c-14.9-29.2-7-64.8,6-94.8c0.2-0.5,0.4-0.9,0.7-1.4c0-0.1,0-0.1,0.1-0.1c12.4-28.3,29.1-55.2,35.5-85.3v-0.1
					c12.9-10.8,30.8-14,47.5-16.6c8.4-1.3,17-2.6,25.2-0.7c7,1.6,13.2,5.5,19.2,9.4C2011.4,487.1,2031.4,502.5,2050.3,519.2z"/>
				<g>
					<path class="st11" d="M1781.6,610.3c-2.8-3.9-7.1-6.2-11.6-7.2c-4.5-1.1-9.2-1.2-13.8-1.1c-4.6,0.2-9.4,0.5-14.2,0.7
						c-4.7,0.3-9.5,0.4-14.3,0.5c-19,0.6-38,0.5-57-0.2s-38-1.9-56.9-3.8c-18.9-1.9-37.8-4.3-56.5-7.8c19,0.7,37.9,1.7,56.9,2.6
						c18.9,0.9,37.8,1.7,56.8,2.3c18.9,0.7,37.9,1.2,56.8,1.6l14.2,0.3c4.8,0.1,9.4,0.2,14.3,0.4c2.4,0.1,4.8,0.4,7.2,0.8
						c2.4,0.4,4.8,0.9,7.1,1.8c2.3,0.9,4.5,2,6.4,3.5C1778.9,606.3,1780.5,608.2,1781.6,610.3z"/>
				</g>
				<g>
					<path class="st11" d="M1632.5,598.3c-3.5-3.2-6.5-6.8-9.2-10.5s-5.3-7.5-7.6-11.5c-2.3-3.9-4.5-8-6.4-12.2s-3.6-8.5-4.7-13.2
						c3.5,3.2,6.5,6.8,9.2,10.5s5.3,7.5,7.6,11.5c2.3,3.9,4.4,8,6.4,12.2C1629.7,589.4,1631.4,593.7,1632.5,598.3z"/>
				</g>
				<g>
					<path class="st11" d="M1681.6,601.6c-2.1-4.4-3.7-8.8-5.5-13c-1.7-4.3-3.5-8.4-5.3-12.6c-1.8-4.2-3.7-8.3-5.7-12.5
						c-1.9-4.2-4-8.4-5.8-12.9c4,2.8,7.4,6.3,10.3,10.2s5.4,8.1,7.3,12.5s3.4,9.1,4.2,13.8C1682,591.9,1682.3,596.8,1681.6,601.6z"
						/>
				</g>
				<g>
					<path class="st11" d="M1716.3,601.7c0.3-6.2,0.4-12.1,0.1-18s-1.1-11.6-2.4-17.3c-1.2-5.7-2.9-11.2-5-16.7s-4.7-10.8-7.5-16.4
						c5,3.7,9,8.7,12.2,14.1c3.2,5.4,5.5,11.4,6.8,17.6c1.3,6.2,1.7,12.6,1.1,18.8C1720.9,590.1,1719.3,596.2,1716.3,601.7z"/>
				</g>
				<g>
					<path class="st11" d="M1633.1,596.3c-2.7,3.2-5.7,5.8-8.7,8.3s-6.2,4.8-9.4,7c-3.2,2.2-6.5,4.3-9.9,6.2s-7,3.7-10.9,5.1
						c2.2-3.5,4.9-6.5,7.8-9.3s6-5.2,9.3-7.5c3.3-2.2,6.7-4.2,10.3-5.9C1625.2,598.5,1629,597.1,1633.1,596.3z"/>
				</g>
				<g>
					<path class="st11" d="M1680.7,600c-0.3,5-1.8,9.9-4.1,14.4c-2.3,4.5-5.3,8.6-8.9,12.2c-3.6,3.6-7.8,6.5-12.3,8.7
						s-9.4,3.7-14.4,3.8c4.1-2.8,8-5.4,11.7-8.3c3.7-2.8,7.1-5.8,10.4-9s6.3-6.6,9.2-10.2C1675.2,608,1677.9,604.1,1680.7,600z"/>
				</g>
				<g>
					<path class="st11" d="M1717.2,601.2c-1.8,3.6-4.1,6.7-6.6,9.7c-2.4,3-5.1,5.7-7.8,8.3c-2.8,2.6-5.7,5-8.8,7.3
						c-3.1,2.2-6.4,4.3-10.1,5.9c1.8-3.6,4.1-6.7,6.5-9.7s5.1-5.7,7.9-8.3s5.7-5,8.8-7.3C1710.2,604.8,1713.5,602.7,1717.2,601.2z"
						/>
				</g>
				<g>
					<path class="st11" d="M2014,528c-14.1-2.5-28.2-4.6-42.3-5.7c-3.5-0.3-7.1-0.5-10.6-0.7c-3.5-0.1-7-0.3-10.6-0.3l-5.2-0.1
						c-1.8,0-3.5,0-5.3,0.1c-3.5,0.1-7,0.3-10.4,0.7s-6.8,1-10,1.9c-0.8,0.2-1.6,0.5-2.4,0.7l-2.5,0.9c-1.6,0.6-3.2,1.2-4.7,1.9
						c-3.1,1.4-6.1,3-9,4.8s-5.7,3.8-8.5,6c-11,8.7-20.5,19.4-30.1,30c3.7-6.2,7.7-12.1,12-17.9c2.2-2.9,4.5-5.6,6.9-8.3
						s5-5.3,7.7-7.7c5.4-5,11.5-9.3,18.2-12.6c1.7-0.8,3.4-1.6,5.1-2.2l2.6-1c0.9-0.3,1.8-0.6,2.7-0.9c3.6-1,7.3-1.7,11-2.1
						c3.7-0.4,7.4-0.6,11-0.6c1.8,0,3.7,0,5.4,0c1.9,0.1,3.7,0.1,5.5,0.2c7.2,0.3,14.4,1,21.5,2.1
						C1986.5,519.3,2000.6,522.8,2014,528z"/>
				</g>
				<g>
					<path class="st11" d="M1914.3,523.8c0.6-4.7,1.9-9.1,3.3-13.5c1.4-4.3,3.1-8.6,5-12.7s4-8.2,6.3-12.1s4.9-7.7,8-11.3
						c-0.6,4.7-1.8,9.1-3.3,13.5c-1.4,4.3-3.1,8.6-5,12.7s-4,8.2-6.3,12.1C1920,516.4,1917.5,520.2,1914.3,523.8z"/>
				</g>
				<g>
					<path class="st11" d="M1948.2,518.9c1.6-5.1,4.1-9.9,7-14.3c3-4.4,6.5-8.5,10.4-12.1c3.9-3.7,8.2-6.9,12.8-9.6
						c4.6-2.7,9.5-4.9,14.7-6.1c-3.9,3.7-7.9,7-11.7,10.3c-3.8,3.4-7.6,6.7-11.3,10.2c-3.7,3.5-7.3,7-10.9,10.6
						C1955.6,511.5,1952.1,515.2,1948.2,518.9z"/>
				</g>
				<g>
					<path class="st11" d="M1888.2,538.5c1.7,1.9,3.3,3.5,5.2,5.1l1.3,1.2l1.4,1.1l1.3,1.2c0.5,0.4,0.9,0.7,1.4,1.1
						c3.6,3,7.3,5.9,10.9,8.9c3.7,2.9,7.3,5.8,11.1,8.7c0.5,0.4,0.9,0.7,1.4,1.1l1.4,1l1.4,1.1c0.5,0.4,1,0.7,1.4,1
						c1.9,1.5,3.9,2.7,6.1,3.9c-1.2,0-2.5,0.1-3.8-0.2c-0.6-0.1-1.2-0.2-1.9-0.3c-0.6-0.1-1.2-0.3-1.8-0.5c-0.6-0.2-1.2-0.4-1.8-0.6
						l-1.7-0.7c-1.2-0.4-2.3-1-3.4-1.5c-4.5-2.2-8.6-4.9-12.5-8c-3.8-3.1-7.4-6.6-10.5-10.4c-0.8-1-1.5-2-2.2-3l-1-1.6
						c-0.3-0.5-0.6-1.1-0.9-1.6c-0.3-0.6-0.6-1.1-0.9-1.7c-0.2-0.6-0.5-1.2-0.7-1.8C1888.7,541,1888.4,539.7,1888.2,538.5z"/>
				</g>
				<g>
					<path class="st11" d="M1943.7,517.2c2.4,3.1,4.9,5.4,7.6,7.7s5.5,4.4,8.3,6.5s5.7,4.1,8.7,6.1s5.9,4,9.3,6
						c-1.9,0.4-4,0.4-5.9,0.1c-2-0.3-3.9-0.8-5.7-1.4c-3.7-1.3-7.2-3.1-10.3-5.5c-3.1-2.3-6-5.1-8.3-8.4c-0.6-0.8-1.1-1.7-1.6-2.6
						c-0.5-0.9-0.9-1.8-1.2-2.7C1944,521.2,1943.6,519.1,1943.7,517.2z"/>
				</g>
				<g>
					<path class="st11" d="M1809.8,537.2c-3.1-6.2-5.9-12.5-8.8-18.7l-8.4-18.8l-16.8-37.6c-5.6-12.5-11.3-24.9-17.3-37.3l-4.5-9.2
						c-1.5-3.1-3.1-6.1-4.6-9.2s-3.2-6.1-4.8-9.1c-1.6-3-3.3-6-5.1-9c2.4,2.5,4.6,5.2,6.7,8c2.1,2.7,4.1,5.6,6,8.4
						c3.8,5.8,7.5,11.6,10.9,17.6c6.9,12,13,24.4,18.7,37s10.9,25.4,15.5,38.4C1802.2,510.7,1806.3,523.9,1809.8,537.2z"/>
				</g>
				<g>
					<path class="st11" d="M1804,521.6c-2.9,1.2-5.8,1.7-8.6,2c-2.8,0.3-5.7,0.3-8.5,0.1s-5.6-0.6-8.4-1.3s-5.5-1.6-8.2-3.2
						c2.9-1.2,5.8-1.7,8.6-2c2.8-0.3,5.7-0.3,8.5-0.1s5.6,0.6,8.4,1.3C1798.5,519.1,1801.3,520,1804,521.6z"/>
				</g>
				<g>
					<path class="st11" d="M1777.6,455.5c-3.1,0.4-6,0.1-8.8-0.4s-5.5-1.2-8.2-2.2c-2.7-0.9-5.2-2.1-7.7-3.5s-4.9-3-7.1-5.3
						c3.1-0.4,6-0.1,8.8,0.4s5.5,1.2,8.2,2.2c2.6,0.9,5.2,2.1,7.7,3.5S1775.4,453.2,1777.6,455.5z"/>
				</g>
				<g>
					<path class="st11" d="M1794.8,495.8c-4.2,0.5-8.3,0.3-12.4-0.2s-8-1.3-12-2.4c-3.9-1.1-7.8-2.6-11.5-4.4
						c-0.9-0.5-1.8-1-2.7-1.5c-0.9-0.5-1.8-1.1-2.6-1.7c-1.7-1.2-3.4-2.7-4.6-4.4c0.5,0.1,1,0.3,1.5,0.4c0.5,0.2,0.9,0.3,1.5,0.4
						c1,0.2,1.9,0.5,2.9,0.7l2.9,0.6c1,0.2,1.9,0.4,2.9,0.7c3.9,0.9,7.7,1.8,11.5,2.9s7.6,2.3,11.4,3.8
						C1787.4,492.1,1791.2,493.7,1794.8,495.8z"/>
				</g>
				<g>
					<g>
						<path class="st12" d="M1487.1,677.3c-5-1.6-10.3-1.6-15.5,0.6c-16.5,7.1-16.5,0-16.5,0c8-1.3,16.1-10.3,24.5-18.6
							c0.4-0.2,2.6-0.7,2.6,5.6C1482.3,671.9,1487.1,677.3,1487.1,677.3z"/>
						<path class="st11" d="M1663,788.9c-36.8,34-72.7,32.3-99.7,22l0,0c-18.1-6.9-32.1-17.7-39.7-24.3
							c-18.9-16.5-11.8-70.9-14.2-85.1c-1.7-9.8-11.2-20.7-22.4-24.2c0,0-4.8-5.3-4.8-12.4c0-6.3-2.2-5.8-2.6-5.6
							c6.5-6.4,13.2-12.4,20.3-14.5c16.5-4.7,27.2,17.7,29.5,34.3c2.4,16.5,11.8,42.5,11.8,42.5c20.1-1.2,43.7,1.2,60.2,13
							s44.9,54.3,54.3,52C1665.4,784.2,1663,788.9,1663,788.9z"/>
					</g>
					<circle class="st13" cx="1498.9" cy="656.6" r="2.5"/>
				</g>
			</g>
		</g>
		<g>
			<defs>
				<rect id="SVGID_3_" width="1920" height="1500"/>
			</defs>
			<clipPath id="SVGID_4_">
				<use xlink:href="#SVGID_3_"  style="overflow:visible;"/>
			</clipPath>
			<rect class="st14" width="1920" height="1500"/>
		</g>
	</g>
</g>
</svg>
