<?xml version="1.0" encoding="utf-8"?>
<!-- Generator: Adobe Illustrator 22.0.1, SVG Export Plug-In . SVG Version: 6.00 Build 0)  -->
<svg version="1.1" xmlns="http://www.w3.org/2000/svg" xmlns:xlink="http://www.w3.org/1999/xlink" x="0px" y="0px"
	 viewBox="0 0 750 1334" style="enable-background:new 0 0 750 1334;" xml:space="preserve">
<style type="text/css">
	.st0{fill:#275E85;}
	.st1{fill:#CADDDA;}
	.st2{fill:#0F2B53;}
	.st3{fill:#5E877E;}
	.st4{fill:#B5BE6D;}
	.st5{fill:#F9D6C2;}
	.st6{fill:#BD3126;}
	.st7{fill:#D75B4D;}
	.st8{fill:#DDD990;}
	.st9{clip-path:url(#SVGID_2_);fill:#77A275;}
	.st10{clip-path:url(#SVGID_2_);}
	.st11{fill:#2E583C;}
	.st12{clip-path:url(#SVGID_4_);fill:#BBD38D;}
	.st13{clip-path:url(#SVGID_4_);}
	.st14{clip-path:url(#SVGID_6_);fill:#5E877E;}
	.st15{clip-path:url(#SVGID_6_);}
	.st16{fill:#98C29C;}
	.st17{fill:#77A275;}
	.st18{fill:#BBD38D;}
	.st19{fill:#F4B798;}
	.st20{fill:#F5B843;}
	.st21{fill:#FFFFFF;}
	.st22{fill:#4D4032;}
	.st23{display:none;}
	.st24{display:inline;}
	.st25{fill:#DFDCCE;}
	.st26{fill:#64A2A1;}
	.st27{fill:#C7D17B;}
	.st28{fill:#3F6F71;}
	.st29{fill:#92C2B4;}
	.st30{fill:#658369;}
	.st31{fill:#BF7C40;}
	.st32{fill:#A9693B;}
	.st33{fill:#C87936;}
	.st34{fill:#7E593E;}
	.st35{fill:none;stroke:#231A14;stroke-width:1.0823;stroke-miterlimit:10;}
	.st36{fill:#4F3D2F;}
	.st37{fill:#FFD4C1;}
	.st38{fill:#467F3A;}
	.st39{fill:#231A14;}
	.st40{fill:#B1BF60;}
	.st41{fill:#DCDA87;}
	.st42{fill:#F9DA4A;}
	.st43{fill:#CE1A19;}
	.st44{fill:#E75045;}
	.st45{fill:#CE211B;}
	.st46{fill:#8CC399;}
	.st47{fill:#69A370;}
	.st48{fill:#C5DEDB;}
	.st49{fill:#0C5D88;}
	.st50{fill:none;}
	.st51{fill:#ADD483;}
	.st52{fill:#3B9A7F;}
	.st53{fill:#537D41;}
</style>
<g id="Layer_4">
	<g>
		<path class="st0" d="M750.9,1092.2c-84.1-75.1-197.5-139.3-303.2-81.8s-146.5,42-248.2,0s-199.1-0.3-199.1-0.3v198.4l750.5,5.3
			V1092.2z"/>
	</g>
	<path class="st1" d="M751,1072.2v-19.9c0,0-62.2,20.2-177.5,14.2c-115.3-6-264.1-17.4-338.1-8s-172.1-4.3-234.9-15.2v18.1
		c0,0,52,7.1,140.1,11.5c88.1,4.4,207.3-17.4,316.6,4.4c109.2,21.9,226.6,36,293.8,21.9v-10.8c0,0-83.3,15.6-155.5,0
		S700.5,1091.9,751,1072.2z M77,1064.9c-13.5,0-27.1-0.3-27.1-3.9c0-3.7,10.9-2.1,24.4-2.1s24.4-1.6,24.4,2.1
		C98.8,1064.6,90.5,1064.9,77,1064.9z M495.6,1073.2c-54.6-1.2-70-12.2-53.5-11.3c0,0,24.4,1.7,58.8,4.2
		C535.2,1068.7,522.9,1073.8,495.6,1073.2z M570,1090.5c-7,2.2-70-10.9-50.2-14.5c0,0,15-5.2,32.6,0
		C570,1081.2,577,1088.3,570,1090.5z"/>
	<path class="st2" d="M0.5,1053.5c0,0,49.4,4.4,121.2,10.5s194.3-11,280.1,25.7c85.8,36.7-314.8,18.6-401.3,34.4L0.2,1102
		c0,0,171-6.1,260.3-1.7c89.2,4.4,97.2-15.4,57.6-17.4c-39.6-2-274.1-0.8-317.4-7.9L0.5,1053.5z"/>
	<g>
		<g>
			<g>
				<path class="st3" d="M261.5,956.7c4,11.5,4.4,26.7,1.7,38.4c-1.9,8.3-5.4,16.3-8.3,24.3c-9,24.7-19,49.8-23.7,75.8
					c-1.3,7-4.1,19.8,2.5,25.3c3,2.4,7.2-1.8,4.2-4.2c-4.8-4-1.7-16-0.7-21.1c2.5-12.7,6.4-25.1,10.4-37.4
					c4.1-12.5,8.6-24.8,13.1-37.2c2.8-7.8,6.3-15.7,8.1-23.8c2.9-12.8,2.7-29.1-1.7-41.6C266,951.5,260.2,953,261.5,956.7
					L261.5,956.7z"/>
			</g>
		</g>
		<g>
			<path class="st4" d="M263.3,958.4c0,0-2.9-10.6,15.4-7.4C274,957.7,270.4,962.7,263.3,958.4z"/>
			<path class="st5" d="M264.2,938.6c0,0-10.9,10.8-0.9,12.5C272.5,952.5,270.6,942.9,264.2,938.6z"/>
			<path class="st6" d="M264.8,959.7c0,0-10.7-2.3,0.5-17.1C269.1,949.9,271.8,955.4,264.8,959.7z"/>
			<path class="st6" d="M264.4,957.1c0,0-8.5,7-13.1-11C259.5,947.7,265.4,948.9,264.4,957.1z"/>
			<path class="st7" d="M264.8,959.7c-11.8-0.7-8.9-16.9-8.9-16.9s5,0.8,6.4,4.6"/>
			<path class="st7" d="M267.9,947.5c0,0-0.3-1.3,5.2-5.9c1.9,8.4,0.2,16.9-8.3,18.1"/>
		</g>
		<g>
			<g>
				<path class="st3" d="M236.6,971c8,7.6,6.4,21.3,3.3,30.6c-3,8.9-6.1,17.8-8.9,26.7c-7.6,24.3-15.2,50.6-14,76.3
					c0.5,10.5,2.8,22.3,11.5,29.2c3,2.4,7.3-1.8,4.2-4.2c-7.8-6.3-9.5-17-9.8-26.5c-0.4-13.1,1.8-26.2,4.6-38.9
					c2.8-12.7,6.4-25.3,10.3-37.7c3-9.5,7.1-18.9,9.4-28.6c2.3-10.1,1.6-23.5-6.4-31.1C238.1,964.1,233.8,968.3,236.6,971L236.6,971
					z"/>
			</g>
		</g>
		<g>
			<g>
				<path class="st2" d="M268.3,993c2.1,3.8,2.2,9.8,1.2,14.3c-2.6,12.6-12.3,21.5-20.6,30.6c-15.6,17.2-32.4,36.9-38.2,59.9
					c-3,11.7-2,23.7,4.1,34.2c1.9,3.3,7.1,0.3,5.2-3c-12.6-21.9,1.7-47,15-64.9c7.1-9.7,15.2-18.7,23.3-27.5
					c8-8.7,15.7-18.1,17.4-30.2c0.8-5.4,0.5-11.6-2.3-16.5C271.6,986.6,266.4,989.6,268.3,993L268.3,993z"/>
			</g>
		</g>
		<g>
			<g>
				<path class="st8" d="M245,995.4c2.7-1.3,6.4-1.2,8.2,2c0.9,1.7,3.5,0.2,2.6-1.5c-2.5-4.6-7.8-5.3-12.3-3.1
					C241.7,993.6,243.2,996.2,245,995.4L245,995.4z"/>
			</g>
		</g>
		<g>
			<g>
				<path class="st8" d="M286.4,998.9c1.5-2.7,4.8-0.6,7.1-0.8c1.9-0.1,3.6-1.4,4.1-3.2c0.5-1.9-2.4-2.7-2.9-0.8
					c-0.6,2.1-4.7,0.2-6.5,0.4c-1.8,0.2-3.6,1.3-4.5,2.9C282.8,999.1,285.4,1000.6,286.4,998.9L286.4,998.9z"/>
			</g>
		</g>
		<g>
			<defs>
				<path id="SVGID_1_" d="M297.4,996.7c-0.2,3.2-6.1,4.7-11.6,6.5c-5.9,1.9-26.5,3.7-33.3-1c-13.4-9.1-17.7-3.4-17.2-10
					c0.2-2.9,6.7-5.2,11-7c1.3-0.5,20,7.2,19.4,5.7c-0.4-1.1-9.2-8.1-7.8-8.3c3.9-0.6,6-0.4,11.2,0c4.7,0.4,9.9,3.3,13.8,4.5
					C292.3,989.7,297.8,992,297.4,996.7z"/>
			</defs>
			<clipPath id="SVGID_2_">
				<use xlink:href="#SVGID_1_"  style="overflow:visible;"/>
			</clipPath>
			<path class="st9" d="M297.4,996.7c-0.2,3.2-6.1,4.7-11.6,6.5c-5.9,1.9-26.5,3.7-33.3-1c-13.4-9.1-17.7-3.4-17.2-10
				c0.2-2.9,6.7-5.2,11-7c1.3-0.5,20,7.2,19.4,5.7c-0.4-1.1-9.2-8.1-7.8-8.3c3.9-0.6,6-0.4,11.2,0c4.7,0.4,9.9,3.3,13.8,4.5
				C292.3,989.7,297.8,992,297.4,996.7z"/>
			<g class="st10">
				<g>
					<path class="st8" d="M236.9,991.1c5.2-1.5,11.4-1.5,16.2,0.8c4.7,2.3,9.5,6.6,15.1,6.1c3.2-0.3,4.1-2.1,5.7-4.5
						c3.6-5.4,13.4-4.5,18.7-2.5c1.8,0.7,2.6-2.2,0.8-2.9c-5.3-2-12-2.2-17.3-0.2c-1.8,0.7-3.4,1.6-4.4,3.2
						c-1.1,1.7-1.1,3.3-3.4,3.9c-6.3,1.5-13.1-6.4-19.3-7.5c-4.2-0.8-8.8-0.5-13,0.7C234.2,988.7,235,991.6,236.9,991.1L236.9,991.1
						z"/>
				</g>
			</g>
			<g class="st10">
				<g>
					<path class="st8" d="M294.6,998.3c-3.1,0.6-7.3-1-10.3-1.8c-3.6-0.9-7.1-2-10.9-2.1c-3.5-0.1-4.7,0.8-7.6,2.2
						c-2.7,1.3-5.8,2.4-8.9,2.2c-3.8-0.2-6.2-3-9.5-4.2c-2.7-1-6.4-1.4-8.8,0.4c-1.5,1.1,0,3.8,1.5,2.6c4.2-3.2,9.1,2,12.9,3.4
						c4.4,1.7,9.4,0.5,13.5-1.4c1.3-0.6,2.6-1.7,3.9-2.2c2.5-0.8,6.9,0.2,9.4,0.9c4.7,1.2,10.6,3.8,15.6,2.8
						C297.3,1000.8,296.5,997.9,294.6,998.3L294.6,998.3z"/>
				</g>
			</g>
			<g class="st10">
				<g>
					<path class="st8" d="M268.6,982.2c-1.1,3.5-1.9,7.3-1.8,10.9c0.1,2,0.6,3.8,1.7,5.5c1.7,2.4,3.8,2.9,3.9,6.3
						c0.1,1.9,3.1,1.9,3,0c-0.1-1.8-0.3-3.5-1.4-5c-1.5-2-3.5-2.8-4.1-5.5c-0.8-3.7,0.4-7.9,1.5-11.4
						C272.1,981.2,269.2,980.4,268.6,982.2L268.6,982.2z"/>
				</g>
			</g>
			<g class="st10">
				<g>
					<path class="st8" d="M276.6,988.4C276.5,988.3,276.3,988.2,276.6,988.4c0,0-0.2-0.1-0.3-0.3c-0.4-0.3-0.7-0.7-1-1.1
						c-0.6-0.9-0.6-1.3,0.4-1.8c1.7-1,0.2-3.6-1.5-2.6c-2,1.2-2.9,3.2-1.8,5.4c0.6,1.2,1.7,2.2,2.7,3
						C276.6,992.1,278.1,989.5,276.6,988.4L276.6,988.4z"/>
				</g>
			</g>
			<g class="st10">
				<g>
					<path class="st8" d="M264.5,981.3c-0.9,3.6-0.6,8.5,3.5,9.8c1.8,0.6,2.6-2.3,0.8-2.9c-2.3-0.7-1.9-4.3-1.4-6.1
						C267.9,980.2,265,979.4,264.5,981.3L264.5,981.3z"/>
				</g>
			</g>
			<g class="st10">
				<g>
					<path class="st8" d="M269.6,999.6c0.2,0.8,0.3,1.5,0.4,2.2c0,1.2,0,1.9-1.2,1.9c-1.9-0.1-1.9,2.9,0,3c4.4,0.1,4.7-4.7,3.8-7.9
						C272,997,269.1,997.8,269.6,999.6L269.6,999.6z"/>
				</g>
			</g>
		</g>
		<g>
			<g>
				<path class="st11" d="M308.2,995.5c2.1,9.4-5.2,20.2-11.6,26.5c-5.3,5.2-11.1,10-16.6,15.1c-18.9,17.5-37,36.4-50.9,58.1
					c-8.4,13.1-15.3,27.4-18.5,42.8c-0.8,3.8,5,5.4,5.8,1.6c5.9-28.5,24.3-53.1,43.6-74.1c8.2-8.9,16.8-17.3,25.7-25.5
					c5.5-5,11.3-9.7,16.5-15.1c7.3-7.7,14.3-19.8,11.8-30.9C313.1,990.2,307.3,991.8,308.2,995.5L308.2,995.5z"/>
			</g>
		</g>
		<g>
			<g>
				<path class="st0" d="M208.8,984c-2.3,16.2-11,30.6-14,46.6c-3.5,18.6,0.1,37.3,12.8,51.8c10.6,12.1,25.5,19.6,40.4,25
					c3.6,1.3,5.2-4.5,1.6-5.8c-22.1-8-44.3-22-49.2-46.6c-2.8-13.8,0.6-28,5.5-41c3.5-9.2,7.3-18.7,8.7-28.5
					C215.2,981.8,209.4,980.2,208.8,984L208.8,984z"/>
			</g>
		</g>
		<g>
			<defs>
				<path id="SVGID_3_" d="M223.5,966.6c0.2-2.4,5.2-3.3,9.2-4.4c3.3-1,7.6-1.4,12.2-1c4.9,0.4,10.9,1,14.1,2.5
					c3.5,1.7,4,4.5,3.8,6.9c-0.2,2.2-2.3,4-5.6,5.2c-1.5,0.5-11.8-7.3-13.7-7.1c-1.4,0.2,8.2,8.1,6.7,8.2c-1.4,0-5.1,0.5-6.6,0.4
					c-4.7-0.4-9-1.5-12.2-3C227.8,972.5,223.3,969,223.5,966.6z"/>
			</defs>
			<clipPath id="SVGID_4_">
				<use xlink:href="#SVGID_3_"  style="overflow:visible;"/>
			</clipPath>
			<path class="st12" d="M223.5,966.6c0.2-2.4,5.2-3.3,9.2-4.4c3.3-1,7.6-1.4,12.2-1c4.9,0.4,10.9,1,14.1,2.5c3.5,1.7,4,4.5,3.8,6.9
				c-0.2,2.2-2.3,4-5.6,5.2c-1.5,0.5-11.8-7.3-13.7-7.1c-1.4,0.2,8.2,8.1,6.7,8.2c-1.4,0-5.1,0.5-6.6,0.4c-4.7-0.4-9-1.5-12.2-3
				C227.8,972.5,223.3,969,223.5,966.6z"/>
			<g class="st13">
				<g>
					<path class="st3" d="M226.8,963.2c2.9,0.3,6.2,0.8,8.8,2.2c2.3,1.2,4.2,2.9,6.7,3.7c6.3,2,14.1-1.3,19.9,2.3
						c1.1,0.7,2.2-1.1,1.1-1.8c-6.1-3.8-13.9-0.4-20.4-2.5c-2.9-1-5.1-3.1-7.9-4.2c-2.6-1-5.4-1.4-8.2-1.8
						C225.4,960.9,225.5,963,226.8,963.2L226.8,963.2z"/>
				</g>
			</g>
			<g class="st13">
				<g>
					<path class="st3" d="M247.1,961.2c-0.7,4.3-3,6.5-7.2,7.1c-4.4,0.7-8.9,0.7-13.2,2.1c-1.3,0.4-0.7,2.4,0.6,2
						c5.3-1.7,11.4-0.8,16.6-2.8c3.2-1.2,4.8-4.7,5.3-7.9C249.4,960.5,247.3,959.9,247.1,961.2L247.1,961.2z"/>
				</g>
			</g>
			<g class="st13">
				<g>
					<path class="st3" d="M237.8,965.5c1-1.6,0-3.5-1-4.8c-0.4-0.4-1.1-0.4-1.5,0c-0.4,0.4-0.4,1,0,1.5c0.4,0.5,0.8,1.2,0.8,1.9
						c0,0,0,0.2-0.1,0.4c0,0,0.1-0.2,0,0C235.2,965.6,237,966.6,237.8,965.5L237.8,965.5z"/>
				</g>
			</g>
			<g class="st13">
				<g>
					<path class="st3" d="M235.6,969.8c0-0.1,0.1-0.1,0,0.1c-0.1,0.2-0.2,0.5-0.3,0.7c-0.6,0.8-1.7,0.9-2.6,1.5
						c-1,0.7-1.6,1.9-1.1,3.1c0.6,1.2,2.4,0.2,1.8-1.1c0,0,0.1,0.3,0.1,0.1c0-0.1-0.1,0.1,0,0c0,0,0-0.2,0.1-0.3
						c0.7-0.7,1.8-0.8,2.5-1.4c0.8-0.7,1.5-1.7,1.5-2.8C237.8,968.5,235.7,968.5,235.6,969.8L235.6,969.8z"/>
				</g>
			</g>
			<g class="st13">
				<g>
					<path class="st3" d="M252.6,969.8c0.9-0.3,1.8-0.8,2.7-1.2c1.6-0.7,3.1-0.9,4.8-0.9c1,0,3.4,0,3-1.7c-0.4-1.3-2.4-0.7-2,0.6
						c0.7-0.9,0.8-1.2,0.3-1c-0.1,0-0.2,0-0.3,0c-0.4-0.1-1.1,0-1.6,0c-1,0-2,0.1-3,0.4c-1.5,0.4-2.9,1.4-4.3,1.8
						C250.7,968.1,251.3,970.2,252.6,969.8L252.6,969.8z"/>
				</g>
			</g>
			<g class="st13">
				<g>
					<path class="st3" d="M246.5,967.4c1.2-0.4,2.4-0.9,3.4-1.6c0.6-0.4,1.2-0.9,1.5-1.6c0.2-0.4,0.3-0.8,0.5-1.2
						c0.1-0.2,0.5,0,0-0.1c1.3,0.2,1.9-1.8,0.6-2c-0.6-0.1-1.1,0-1.6,0.3c-0.9,0.6-0.9,1.5-1.4,2.3c-0.7,1-2.4,1.6-3.5,2
						C244.7,965.8,245.2,967.9,246.5,967.4L246.5,967.4z"/>
				</g>
			</g>
		</g>
		<g>
			<defs>
				<path id="SVGID_5_" d="M359.9,981c-0.4,4.9-10.6,9.5-18.3,9.3c-18-0.5-14.3,7.1-24.6,6.3c-10.4-0.8-19.7-7.5-24.6-10
					c-8.4-4.2-15.8-7.1-15.5-11.9c0.4-4.9,1.2-9.7,10.4-12.1c4.2-1.1,10.5-6.3,16.8-6.5c6.4-0.2,12.8,4.7,17.9,5.1
					c7.7,0.6,14.7,2.1,20.6,4.2c2.7,1-23.6,8.5-21.5,9.7c2.5,1.4,33.3-3.6,34.9-2C358.7,975.4,360.1,978.2,359.9,981z"/>
			</defs>
			<clipPath id="SVGID_6_">
				<use xlink:href="#SVGID_5_"  style="overflow:visible;"/>
			</clipPath>
			<path class="st14" d="M359.9,981c-0.4,4.9-10.6,9.5-18.3,9.3c-18-0.5-14.3,7.1-24.6,6.3c-10.4-0.8-19.7-7.5-24.6-10
				c-8.4-4.2-15.8-7.1-15.5-11.9c0.4-4.9,1.2-9.7,10.4-12.1c4.2-1.1,10.5-6.3,16.8-6.5c6.4-0.2,12.8,4.7,17.9,5.1
				c7.7,0.6,14.7,2.1,20.6,4.2c2.7,1-23.6,8.5-21.5,9.7c2.5,1.4,33.3-3.6,34.9-2C358.7,975.4,360.1,978.2,359.9,981z"/>
			<g class="st15">
				<g>
					<path class="st11" d="M278.7,967c3.2,0.2,6.4,0.6,9.5,1.5c5.1,1.5,9.5,4.7,14.4,6.6c6.1,2.4,12,4,18.5,4
						c6.8,0.1,13.7-0.2,20.5,0c5.3,0.1,13.1-0.5,17.6,2.8c1.6,1.1,3.1-1.5,1.5-2.6c-4-2.9-10.4-2.9-15.2-3.1
						c-7.5-0.4-15.1-0.1-22.6-0.1c-7.4,0-14-1.6-20.9-4.5c-4.9-2.1-9.2-5.1-14.4-6.4c-2.9-0.7-5.9-1.1-8.9-1.3
						C276.7,963.9,276.7,966.9,278.7,967L278.7,967z"/>
				</g>
			</g>
			<g class="st15">
				<g>
					<path class="st11" d="M302.6,955.3c2.4,2.9,5,6.4,5.9,10.1c1,4,1.6,7.7,3.4,11.4c1.7,3.6,4,7.3,7.2,9.7c4,3.1,9.4,2.3,13.2,5.3
						c1.5,1.2,3.6-0.9,2.1-2.1c-3.5-2.7-6.8-2.3-10.7-4c-5.4-2.3-8.6-8.3-10.5-13.6c-1.3-3.5-1.3-7.3-2.9-10.7
						c-1.4-3-3.3-5.7-5.5-8.2C303.5,951.7,301.4,953.8,302.6,955.3L302.6,955.3z"/>
				</g>
			</g>
			<g class="st15">
				<g>
					<path class="st11" d="M317.9,960.2c-2.2,6-3,13.2-7.3,18.1c-4.3,4.8-10.5,5.6-15,9.7c-1.4,1.3,0.7,3.4,2.1,2.1
						c2.2-2,5.3-2.8,7.9-4.1c3.2-1.7,6.1-4.1,8.3-7c3.9-5.1,4.8-12,6.9-18C321.5,959.1,318.6,958.4,317.9,960.2L317.9,960.2z"/>
				</g>
			</g>
			<g class="st15">
				<g>
					<path class="st11" d="M277.5,970.9c2.9,0.8,6,1.4,9,1.8c4.4,0.5,8.8,0.2,13.2,1.1c1.9,0.4,2.7-2.5,0.8-2.9
						c-7.3-1.7-14.8-0.9-22.1-2.9C276.4,967.5,275.6,970.4,277.5,970.9L277.5,970.9z"/>
				</g>
			</g>
			<g class="st15">
				<g>
					<path class="st11" d="M298.3,957.2c0.8,2.4,2,4.8,3.6,6.6c2.1,2.3,5.4,2.6,7.2,5.3c1.1,1.6,3.7,0.1,2.6-1.5
						c-0.6-0.8-1.3-1.6-2-2.2c-1.4-1.2-3-1.7-4.6-2.6c-2-1.2-3.3-4.1-4-6.3C300.6,954.6,297.7,955.4,298.3,957.2L298.3,957.2z"/>
				</g>
			</g>
			<g class="st15">
				<g>
					<path class="st11" d="M317.7,982.7c-1.6,1.1-2.4,3-2,4.9c0.3,1.6,1.2,3,2.2,4.3c0.6,0.8,2.8,2.7,2.6,3.9
						c-0.4,1.9,2.5,2.7,2.9,0.8c0.4-2.1-0.9-3.6-2.1-5.2c-1-1.2-4.1-4.7-2-6.1C320.8,984.2,319.3,981.6,317.7,982.7L317.7,982.7z"/>
				</g>
			</g>
			<g class="st15">
				<g>
					<path class="st11" d="M293.2,986.2c0-2,5.6-3.1,7.2-3.5c2.5-0.5,7.7-3.2,10-1.7c1.7,1,3.2-1.6,1.5-2.6c-1.5-0.9-2.9-1-4.5-0.7
						c-3.4,0.7-7,1.7-10.4,2.6c-2.6,0.7-6.9,2.4-6.9,5.8C290.2,988.1,293.2,988.2,293.2,986.2L293.2,986.2z"/>
				</g>
			</g>
			<g class="st15">
				<g>
					<path class="st11" d="M349.4,978.9c1.3-1.1,5.5-4.2,7.7-2.8c1.6,1,3.1-1.6,1.5-2.6c-3.6-2.3-8.5,1-11.3,3.3
						C345.8,978,347.9,980.1,349.4,978.9L349.4,978.9z"/>
				</g>
			</g>
			<g class="st15">
				<g>
					<path class="st11" d="M317,973.1c1.2-2.4,2.9-5.1,5.5-6c2.8-0.9,5.1-2,6.6-4.7c0.9-1.7-1.7-3.2-2.6-1.5
						c-1.6,3.1-4.8,2.7-7.3,4.6c-2.1,1.5-3.7,3.8-4.8,6.1C313.6,973.4,316.1,974.9,317,973.1L317,973.1z"/>
				</g>
			</g>
			<g class="st15">
				<g>
					<path class="st11" d="M334.5,978.3c1.3,1.9,3.2,3.4,5.3,4.3c3.2,1.3,13.7-1,13.6,4.2c0,1.9,3,1.9,3,0c0-3.9-3.6-5.7-7-6.3
						c-4.5-0.8-9.3,0.9-12.4-3.6C336,975.2,333.4,976.7,334.5,978.3L334.5,978.3z"/>
				</g>
			</g>
		</g>
		<g>
			<path class="st16" d="M192.8,979.3c0,0,18.3-10.4,18.1,2.1C210.8,993,197.4,988.2,192.8,979.3z"/>
			<path class="st5" d="M212.7,966.8c0,0-15.6,15.6-1.3,17.9C224.5,986.8,221.8,972.9,212.7,966.8z"/>
			<path class="st4" d="M210.5,1001.4c0,0-11.1-17.9,1.4-18.2C223.4,982.8,219.1,996.4,210.5,1001.4z"/>
			<path class="st17" d="M192.2,987.5c0,0,12.9-16.6,17.6-5C214.1,993.2,199.8,993.9,192.2,987.5z"/>
			<path class="st18" d="M233.5,989.7c0,0-19.3,8.3-17.8-4C217.1,974.2,229.9,980.4,233.5,989.7z"/>
			<path class="st7" d="M220.5,971.8c0,0-18.9,14.9-4.5,16.2C221.2,988.5,229.6,978,220.5,971.8z"/>
			<path class="st7" d="M207.2,970.1c0,0-9,13.7,0.3,16.4C216.7,989.3,211.2,977.8,207.2,970.1z"/>
			<path class="st19" d="M212.7,970.3c0,0-15.6,15.6-1.3,17.9C224.5,990.4,221.8,976.5,212.7,970.3z"/>
			<path class="st5" d="M210.8,983"/>
		</g>
	</g>
	<g>
		<g>
			<path class="st20" d="M283.4,1067.1c-3.5,0-7.8-7.9-8-8.3v0c0.4-0.5,1.7-2,6.3-2.2C282.2,1063.9,286.7,1067.1,283.4,1067.1z"/>
			<path class="st21" d="M286.5,1079.6c0,7.4-6.2,13.8-16,12.9c-9.8-0.9-24-3.7-32.9-19.3c-8.9-15.7-5.3-23-4.4-23s7.1,5.5,11.6,5.5
				s17.5,3.8,20.8,6.5c-0.8-3.4-1.6-7.2-0.8-10.7c1.8-7.4,8.9-5.5,10.7-5.5s6.2,0.9,6.2,9.2c0,0.5,0,1,0.1,1.5
				c-4.6,0.2-5.9,1.7-6.3,2.2c-0.3,0-0.6,0-0.9-0.1c0,0-0.4,3.3,1.4,5.1S286.5,1072.2,286.5,1079.6z"/>
		</g>
		<circle class="st22" cx="275.4" cy="1052.1" r="1"/>
	</g>
	<g>
		<g>
			<path class="st20" d="M312.8,1070.8c-1.9,7.3-11,10.1-9.2,7.3c1.4-2.1,1.7-3.7,2.3-7.8c0,0,1,0,3.7,0.9
				C312.1,1072.1,312.7,1071,312.8,1070.8z"/>
			<path class="st21" d="M361.6,1104.8c-16.6,4.6-29.5-9.2-32.2-16.6s-2.8-11-6.4-14.7s-10.1-2.8-10.1-2.8s0,0,0,0
				c-0.1,0.2-0.7,1.3-3.2,0.4c-2.8-0.9-3.7-0.9-3.7-0.9c0.1-1.2,0.3-2.5,0.5-4.2c0.9-7.4,5.5-7.4,11-6.4
				c5.5,0.9,17.5,14.7,17.5,14.7c13.8-2.8,29.5,4.6,33.1,9.2c3.7,4.6,8.3,5.5,12,5.5S378.1,1100.2,361.6,1104.8z"/>
		</g>
		<circle class="st22" cx="310.1" cy="1065.2" r="1"/>
	</g>
	<g>
		<path class="st21" d="M670.9,984.9c-0.1,2-0.7,3.6-1.5,4.9c-0.7,1.4-1.7,2.6-2.8,3.6c-1.1,1-2.3,1.9-3.7,2.5c-1.4,0.6-3,1.1-5,1.1
			c0.1-2,0.7-3.6,1.5-5c0.7-1.4,1.7-2.6,2.8-3.6c1.1-1,2.3-1.9,3.7-2.5C667.3,985.4,668.8,984.9,670.9,984.9z"/>
	</g>
</g>
<g id="Layer_1" class="st23">
	<g class="st24">
		<path class="st2" d="M4.5,921.1c0,0-30.1-81.9,99.2-155.8C103.7,765.3,116.2,889.9,4.5,921.1z"/>
		<path class="st25" d="M1.5,910.5c0,0,59.8-6,80.9,55.1s18.6-10.5,82.5,6.3c49.2,13-3.5,94.4,76.6,113.3c0,0,18,0,24.6,13.3
			c6.6,13.3,5.9,39.7-78.6,42.5c-84.4,2.8-54.7,71.9-91.1,83.9s-28.9-41.4-52.8-39.3s10.9,135.8-42.2,135.1"/>
		<g>
			<path class="st26" d="M99.4,828.1c-5.3,16.6-13.5,33.3-28,43.1c-0.4,0.3-0.8,0.6-1.3,0.8l0,0c-10.1,6.4-22.2,9.1-33.5,13.3
				c0,0,0,0,0,0c-0.2,0-0.4,0.1-0.6,0.2c-11.9,4.5-24,12-28.1,24.1C8,910,7.2,910.5,6,911l0,0c-1.8,0.8-4.3,1.5-4.6,1
				c-0.4-0.7,0-1.6,0.4-2.4c0-0.1,0-0.1,0.1-0.1C4.4,905,8,901,9.6,896c1.2-3.6,1.2-7.5,1.6-11.3c0.2-1.7,0.4-3.5,0.9-5.1
				c2-6.9,7.7-12.2,14.2-15.4c1.5-0.8,3.1-1.4,4.7-2l0,0c5.1-1.8,10.5-2.9,15.8-4.1c1.2-0.2,2.4-0.5,3.6-0.8
				C69.8,852.9,90.2,845.5,99.4,828.1z"/>
			<path class="st27" d="M9.6,896C8,901,4.4,905,1.8,909.5c0,0,0,0.1-0.1,0.1c-1.2-5.7-3.4-12.9-4.9-18.3
				c-1.5-5.4-4.8-10.7-9.9-12.8c-12.5,1.4-24.8,4.3-36.5,8.9c-2,0.8-4.4,1.6-6.2,0.4c-1.7-1.1-2-3.6-1.2-5.5
				c0.8-1.9,2.4-3.3,3.9-4.7c7.3-6.5,15.2-13.2,24.9-14.2c0.4,0,0.7-0.1,1-0.1c7.5-0.4,14.8,2.7,21.7,5.8c2.9,1.3,5.8,2.6,8.4,4.3
				l0,0c1.2,0.8,2.4,1.7,3.4,2.8c0.8,0.8,1.5,1.7,2.1,2.7c0.9,1.5,1.9,3.6,2.6,5.7C10.7,888.5,10.8,892.4,9.6,896z"/>
			<path class="st28" d="M50.4,857.3c-1.2,0.3-2.4,0.5-3.6,0.8c-5.3,1.1-10.7,2.2-15.8,4.1l0,0c-1.6,0.6-3.2,1.2-4.7,2
				c-6.4,3.2-12.2,8.5-14.2,15.4c-0.5,1.7-0.8,3.4-0.9,5.1c-0.7-2.1-1.7-4.2-2.6-5.7c3.6-7.1,2.1-15.9,2.2-24c0-1.2,0.1-2.4,0.2-3.5
				c0,0,0,0,0-0.1c1-12.4,6-24.5,14.2-33.9c2.8-3.1,5.8-6,8.9-8.8c6.9-6.3,13.7-12.7,20.6-19c0.9-0.8,1.9-1.7,3.1-1.8
				c3.1-0.2,3.9,4.1,3.6,7.2C59.4,815.2,57.2,838.3,50.4,857.3z"/>
			<path class="st29" d="M8.6,879c-0.6-1-1.3-1.9-2.1-2.7c-1-1.1-2.2-2-3.4-2.8l0,0c-2.6-1.8-5.5-3.1-8.4-4.3
				c-6.9-3.1-14.2-6.2-21.7-5.8c-9-5.7-18.2-11.6-24.6-20.1c-8.4-11.3-10.8-26.8-6.1-40.1c0.5-1.6,1.3-3.2,2.8-4
				c1.2-0.6,2.5-0.6,3.8-0.6c4.8,0.2,9.6,0.3,14.1,2c7.7,2.8,13.1,9.6,19.7,14.4c5.4,4,11.8,6.9,16.3,11.9c1.1,1.2,2.5,3.3,4.1,5.8
				c3.7,6.1,7.9,14.8,8.1,18.8c0,0,0,0,0,0.1c-0.1,1.2-0.2,2.4-0.2,3.5C10.7,863.1,12.2,871.8,8.6,879z"/>
			<path class="st30" d="M100.9,924.7c-12.5,4.2-26.4,1-38.4-4.4c-4.6-2.1-9.2-4.7-12.4-8.6c-2-2.5-3.4-5.5-5.5-7.9
				c-4.2-4.9-10.6-6.8-17.3-7.5c-6.4,2.1-15.7,9.7-15.8,15.4c0,0-2.5,2.6-5.4-0.6c1.1-0.5,2-1,1.9-1.3C12,897.5,24.1,890,36,885.5
				c0.2-0.1,0.4-0.1,0.6-0.2c0,0,0,0,0,0c11.3-4.2,23.3-6.9,33.5-13.3l0,0c6.5,0.7,12.3,4.8,17.6,8.7c2.6,2,5.3,4,7,6.8
				c1.4,2.4,2,5.2,2.6,7.9C99.2,905.1,100.4,914.9,100.9,924.7z"/>
			<g>
				<path class="st21" d="M2.3,874.5c0.1-1.9-0.6-3.6-1.6-4.9c-1-1.4-2.3-2.6-3.7-3.7l-4.3-3.5c-1.4-1.2-2.8-2.4-4.2-3.6
					c-5.6-5-10.8-10.2-15.8-15.7c-5-5.5-9.7-11.2-14.2-17.2c-4.4-6-8.5-12.2-12-18.9c5.6,5,10.8,10.2,16,15.5
					c5.1,5.3,10.1,10.7,15.1,16.1c4.9,5.4,9.8,10.9,14.6,16.5l3.6,4.2c1.2,1.4,2.4,2.8,3.6,4.3c1.2,1.5,2.3,3.2,3,5.1
					c0.3,0.9,0.6,1.9,0.6,2.9C2.9,872.7,2.8,873.7,2.3,874.5z"/>
			</g>
			<g>
				<path class="st21" d="M-34.9,829.7c-0.9-2.1-1.1-4-1.1-5.8c0-1.8,0.2-3.6,0.7-5.4c0.5-1.7,1.1-3.4,2.1-5c1-1.6,2.1-3.1,3.9-4.5
					c0.9,2.1,1.1,4,1.1,5.9c0,1.8-0.2,3.6-0.7,5.4c-0.5,1.7-1.2,3.4-2.1,5C-31.9,826.8-33.1,828.3-34.9,829.7z"/>
			</g>
			<g>
				<path class="st21" d="M-22.5,844.3c0-2.3,0.3-4.1,0.7-5.9c0.4-1.7,0.9-3.3,1.6-4.9c0.6-1.6,1.4-3.1,2.3-4.6
					c0.9-1.5,2-3.1,3.5-4.7c1.2,2,1.5,4,1.5,6c0,2-0.4,4-1.2,5.8c-0.7,1.8-1.8,3.5-3.2,5C-18.6,842.4-20.2,843.7-22.5,844.3z"/>
			</g>
			<g>
				<path class="st21" d="M-13,854c1.4-2.3,2.7-4.2,4-6l3.6-5.3l3.5-5.4c1.2-1.9,2.4-3.8,4-6c1.2,2.5,1.3,5.2,0.9,7.8
					c-0.4,2.6-1.4,5.1-2.9,7.3c-1.4,2.2-3.3,4.1-5.6,5.5C-7.8,853.1-10.3,854.1-13,854z"/>
			</g>
			<g>
				<path class="st21" d="M-34.2,829.3c-1.8,0.9-3.5,1.2-5.1,1.4c-1.6,0.1-3.1,0-4.5-0.3c-1.5-0.3-2.9-0.8-4.3-1.5
					c-1.4-0.7-2.8-1.7-4.1-3.2c1.7-1.2,3.3-1.7,5-1.9c1.6-0.2,3.2-0.2,4.8,0.1c1.5,0.3,3,0.9,4.4,1.7
					C-36.6,826.5-35.3,827.6-34.2,829.3z"/>
			</g>
			<g>
				<path class="st21" d="M-22.3,843.6c-1.1,2.1-2.9,3.4-4.8,4.3c-1.9,0.9-4.1,1.3-6.2,1.3c-2.1,0-4.2-0.6-6.1-1.5
					c-1.9-1-3.6-2.4-4.6-4.5c2.3-0.4,4.1-0.5,5.9-0.5c1.7-0.1,3.4-0.1,5,0c1.6,0,3.2,0.1,5,0.3C-26.4,843-24.5,843.2-22.3,843.6z"/>
			</g>
			<g>
				<path class="st21" d="M-12.7,854.1c-1.5,1.3-3.1,2-4.6,2.4c-1.5,0.4-3,0.6-4.5,0.5c-1.5-0.1-3-0.4-4.4-0.9
					c-1.5-0.6-2.9-1.4-4.3-2.8c1.5-1.3,3.1-2,4.6-2.4c1.5-0.4,3-0.6,4.5-0.5c1.5,0.1,3,0.4,4.4,0.9
					C-15.5,851.9-14.1,852.6-12.7,854.1z"/>
			</g>
			<g>
				<path class="st21" d="M88.5,916.9c-3.9-4.2-7.4-8.4-11.2-12.4c-1.9-2-3.7-3.9-5.7-5.9l-1.4-1.4c-0.5-0.5-1-1-1.5-1.4
					c-1-0.9-1.9-1.8-2.9-2.6c-1-0.8-1.9-1.5-3-2.1c-0.5-0.3-1-0.6-1.6-0.9c-0.6-0.3-1.1-0.5-1.7-0.8c-2.2-1-4.7-1.6-7.3-2.1
					c-5.2-1-10.7-1.2-16.4-1.8c5.3-2.1,10.9-3.4,16.9-3.4c3,0,6,0.5,9,1.4c0.7,0.2,1.5,0.5,2.2,0.8c0.6,0.3,1.4,0.7,2.1,1
					c1.4,0.8,2.7,1.7,3.9,2.6c1.2,1,2.3,2,3.3,3.1c0.5,0.5,1,1.1,1.5,1.6c0.5,0.6,1,1.1,1.4,1.7c1.8,2.2,3.6,4.5,5.1,6.9
					C84.6,906.2,87.1,911.4,88.5,916.9z"/>
			</g>
			<g>
				<path class="st21" d="M62.6,888c1.2-1.9,2.6-3.2,4.1-4.2c1.5-1.1,3.1-1.9,4.7-2.5c1.7-0.6,3.4-1,5.2-1.1c1.8-0.1,3.7,0,5.9,0.7
					c-1.2,1.9-2.6,3.2-4.1,4.3c-1.5,1.1-3.1,1.9-4.7,2.5c-1.7,0.6-3.4,1-5.2,1.1C66.6,888.8,64.7,888.7,62.6,888z"/>
			</g>
			<g>
				<path class="st21" d="M73.2,896.1c1.7-1.8,3.7-2.8,5.8-3.5c2.1-0.7,4.3-1,6.4-0.9c2.2,0.1,4.3,0.6,6.3,1.4c2,0.9,3.9,2.1,5.4,4
					c-2.3,0.7-4.4,1-6.3,1.1c-2,0.2-3.8,0.2-5.7,0.1c-1.9-0.1-3.7-0.3-5.7-0.6C77.4,897.4,75.4,897,73.2,896.1z"/>
			</g>
			<g>
				<path class="st21" d="M51.4,884.7c0.4,1.1,0.6,2,1,2.9l0.4,1.3l0.4,1.3c0.4,1.7,0.8,3.5,0.9,5.2c0.2,1.7,0.2,3.5,0.1,5.3
					c0,0.5-0.1,0.9-0.1,1.4l-0.2,1.4c-0.1,1-0.3,1.9-0.4,3.1c-0.5-0.2-1.1-0.5-1.5-0.9c-0.5-0.3-0.9-0.7-1.2-1.2
					c-0.4-0.4-0.7-0.8-1-1.3c-0.3-0.4-0.6-0.9-0.8-1.4c-0.9-1.9-1.4-3.8-1.6-5.8c-0.2-2-0.1-4,0.5-6c0.1-0.5,0.3-1,0.5-1.5
					c0.2-0.5,0.4-1,0.7-1.5c0.3-0.5,0.6-0.9,1-1.4C50.4,885.4,50.9,885,51.4,884.7z"/>
			</g>
			<g>
				<path class="st21" d="M72.4,894.4l0.2,0.7c0.1,0.2,0.1,0.4,0.2,0.6c0.2,0.4,0.3,0.7,0.4,1.1c0.3,0.7,0.5,1.3,0.7,1.9
					c0.4,1.2,0.7,2.4,0.9,3.7c0.2,1.2,0.2,2.5,0.2,3.9c-0.1,1.4-0.3,2.8-0.6,4.7c-2-0.4-3.4-1.7-4.3-3.1c-1-1.4-1.6-3-1.8-4.6
					c-0.2-1.6-0.1-3.3,0.5-5c0.3-0.8,0.7-1.6,1.3-2.4C70.7,895.3,71.5,894.7,72.4,894.4z"/>
			</g>
			<g>
				<path class="st21" d="M30.4,862.5c0.5-2.7,1.2-5.3,1.9-8c0.7-2.6,1.5-5.2,2.3-7.7c0.8-2.5,1.8-5,2.7-7.5c0.5-1.2,1-2.5,1.5-3.7
					l1.4-3.7c1.9-4.9,4-9.8,6.1-14.7c2.1-4.9,4.3-9.7,6.5-14.7c0.2,1.4,0.2,2.8,0.1,4.1c0,1.4-0.2,2.8-0.3,4.1
					c-0.3,2.7-0.8,5.4-1.4,8.1c-1.2,5.3-2.9,10.5-4.9,15.5l-1.5,3.8c-0.6,1.2-1.1,2.4-1.7,3.7c-1.2,2.4-2.4,4.8-3.7,7.2
					c-1.3,2.4-2.7,4.7-4.1,7c-0.7,1.1-1.5,2.3-2.3,3.4C32.1,860.4,31.3,861.5,30.4,862.5z"/>
			</g>
			<g>
				<path class="st21" d="M33.2,856.6c-1.8,0-3-0.3-4.1-0.8c-1.1-0.5-2-1.2-2.7-2c-0.7-0.8-1.3-1.8-1.6-3c-0.3-1.2-0.5-2.5-0.1-4.2
					c1.8-0.1,3,0.3,4.1,0.8c1.1,0.5,2,1.2,2.7,2.1c0.7,0.8,1.2,1.8,1.6,3C33.4,853.6,33.5,854.9,33.2,856.6z"/>
			</g>
			<g>
				<path class="st21" d="M44.4,831.3c-1.7-0.4-2.8-1.1-3.7-1.9c-0.9-0.8-1.6-1.7-2-2.7c-0.5-1-0.7-2.1-0.7-3.3c0-1.2,0.2-2.5,1-4.1
					c1.7,0.4,2.8,1.1,3.8,1.9c0.9,0.8,1.6,1.7,2,2.7c0.5,1,0.7,2.1,0.7,3.3C45.4,828.4,45.2,829.7,44.4,831.3z"/>
			</g>
			<g>
				<path class="st21" d="M37.9,847.1c-2-0.6-3.4-1.6-4.7-2.7c-1.2-1.1-2.2-2.4-3-3.8c-0.8-1.4-1.3-3-1.6-4.7
					c-0.1-0.9-0.2-1.8,0-2.7c0.1-0.9,0.3-1.9,0.9-2.8l0.6,0.5c0.2,0.2,0.3,0.3,0.5,0.4c0.4,0.3,0.7,0.5,1,0.8
					c0.6,0.5,1.2,1.1,1.7,1.7c1.1,1.1,1.9,2.4,2.7,3.7c0.7,1.3,1.3,2.8,1.6,4.4C38,843.3,38.2,845,37.9,847.1z"/>
			</g>
		</g>
		<path class="st31" d="M1.5,984.5c0,0,50.6-13,97.5,41.7s149.4,36,180.2,87.2c0,0,15.9,39.6-155.8,17.4s-56.4,32-121.9,55.1V984.5z
			"/>
		<path class="st11" d="M-56.7,1076.7c0,0-34.2-80.3,91.2-160.6C34.5,916,53.2,1039.8-56.7,1076.7z"/>
	</g>
</g>
<g id="Layer_2" class="st23">
	<g class="st24">
		<path class="st32" d="M554.6,860.3c-4.6-1.1-11.5-1.8-19.3-2.2c-2.5-0.1-5-0.2-7.6-0.3c-7.1-0.2-14.5-0.3-21.3-0.3
			c-3.4,0-6.6,0-9.6,0.1c-8.4,0.1-14.8,0.3-16.7,0.4H480c-0.2,0-0.3-0.2-0.1-0.3c4-4.4,11.5-6.6,19.6-7.5
			c14.4-1.8,30.8,0.2,33.4,0.5c3.4,0.4,16.9,6.9,21.9,9.3C555,860.1,554.9,860.4,554.6,860.3z"/>
		<path class="st33" d="M532.9,850.7c-2.6-0.3-19-2.3-33.4-0.5c0-0.2,0-16.1,13.4-17.5C526.2,831.3,531.4,843.3,532.9,850.7z"/>
		<path class="st34" d="M497.4,862.7c-13.5-0.6-16.7-3.9-17.3-4.6c1.9-0.1,8.3-0.3,16.7-0.4C497,859.6,497.2,861.3,497.4,862.7z"/>
		<path class="st35" d="M497.6,862.7c-0.1,0-0.1,0-0.2,0"/>
		<path class="st35" d="M480.1,858.1c-0.1-0.1-0.1-0.2-0.1-0.2"/>
		<path class="st34" d="M554.6,860.3c0,0-4.7,4.6-20.2,3.8c0.3-2.6,0.7-5.4,0.9-6C543.2,858.5,550.1,859.2,554.6,860.3z"/>
		<path class="st35" d="M534.4,864.2c-0.2,0-0.4,0-0.5,0"/>
		<path class="st36" d="M535.3,858.1c-0.2,0.7-0.5,3.5-0.9,6c-0.2,1.6-0.4,3.1-0.5,3.9c0,0.2-0.3,0.2-0.4,0.1l-5.9-10.3
			C530.3,857.9,532.9,858,535.3,858.1z"/>
		<path class="st36" d="M499.4,867.8c0,0.2-0.3,0.4-0.4,0.2c-0.4-0.8-1.1-2.4-1.6-5.3c-0.2-1.4-0.4-3-0.6-5c3-0.1,6.2-0.1,9.6-0.1
			C506.5,857.6,498.8,860.2,499.4,867.8z"/>
		<path class="st35" d="M496.8,857.7C496.8,857.6,496.8,857.6,496.8,857.7"/>
		<path class="st37" d="M534,868.1l-0.5,4l-0.6,4.7c-7.1,4.9-14.3,17.3-15.5,19.2c-0.1,0.1-0.2,0.1-0.3,0c-4.5-8.6-17-19.2-17-19.2
			l-0.6-4.3L499,868c0.1,0.2,0.4,0.1,0.4-0.2c-0.6-7.6,7.1-10.3,7.1-10.3c6.8,0,14.2,0,21.3,0.3l5.9,10.3
			C533.7,868.3,533.9,868.3,534,868.1z"/>
		<path class="st35" d="M517.6,896c0,0-0.1,0.7-0.1,1.6"/>
		<path class="st38" d="M539.7,887.7c-4.9,5.7-15.1,19-19,17.6c-2.8-1-3.2-5.2-3.2-7.6c0,0,0,0,0,0c0-1-0.1-1.6-0.1-1.6
			c1.1-1.9,8.3-14.3,15.5-19.2l0.6-4.7c0.6,0.1,7.1,1.3,6.1,6.6c0,0,1.3,0.8,2,2.4C542.1,882.6,542.1,884.8,539.7,887.7z"/>
		<path class="st35" d="M533.5,872.1C533.4,872.1,533.4,872.1,533.5,872.1"/>
		<path class="st38" d="M517.5,897.6C517.5,897.6,517.5,897.6,517.5,897.6c0,0.3,0,0.7,0,1c-0.1,2.4-0.7,5.7-3.2,6.6
			c-3.9,1.4-14.1-11.8-19-17.6c-2.2-2.6-2.4-4.6-2-6.1c0.6-1.8,2.1-2.8,2.1-2.8c-1.1-5.6,4.1-6.2,4.1-6.2l0.6,4.3
			c0,0,12.5,10.6,17,19.2c0.1,0.1,0.2,0.1,0.3,0C517.4,896,517.5,896.7,517.5,897.6z"/>
		<g>
			<path class="st39" d="M461.2,943c0.4,0.1,0.5,0.2,0.6,0.3c0,0.1-0.1,0.2-0.5,0.4c-0.4-0.1-0.5-0.2-0.6-0.3
				C460.7,943.3,460.8,943.1,461.2,943z"/>
		</g>
		<g>
			<path class="st39" d="M465.4,930c1.2-3.8,2.8-7.4,4.6-10.9c1.8-3.5,3.7-7,6-10.2c-1.5,3.7-3.2,7.2-5,10.7
				C469.2,923.1,467.4,926.6,465.4,930z"/>
		</g>
		<path class="st35" d="M439.2,956c-0.1-0.1-0.1-0.2-0.1-0.2s0,0,0,0C439.1,955.9,439.2,955.9,439.2,956z"/>
		<path class="st40" d="M592.3,963.8c-0.9-13.8-14.8-18.8-18-19.8c-0.4-0.1-0.7-0.2-0.7-0.2s-0.1,0-0.4,0c0.3-0.3,0.6-0.6,0.8-0.8
			c8.3-8.4,14.9-17.7,19.7-25.6C607.2,945.4,592.3,963.8,592.3,963.8z"/>
		<path class="st41" d="M517.5,898.6v13.5c-14.5,8.9-32,23.3-49.2,41.4c-1-6-2.4-18.7-2.9-23.5c-2.4,5.4-4.2,10.4-4.2,13
			c0,0,0,0,0,0c-0.1,0-0.3,0-0.5,0.1c-0.1,0-0.3,0-0.4,0.1c-0.1,0-0.3,0-0.4,0.1c-0.1,0-0.2,0-0.3,0.1c-0.1,0-0.3,0.1-0.4,0.1
			c-0.5,0.1-1.1,0.2-1.8,0.4c-0.1,0-0.2,0.1-0.3,0.1c-0.7,0.2-1.4,0.4-2.2,0.6c-0.1,0-0.3,0.1-0.4,0.1c-1.2,0.4-2.5,0.9-3.9,1.5
			c-0.2,0.1-0.3,0.1-0.5,0.2c-0.2,0.1-0.3,0.1-0.5,0.2c-0.2,0.1-0.4,0.2-0.6,0.3c-0.3,0.1-0.5,0.3-0.8,0.4c-0.2,0.1-0.3,0.2-0.5,0.3
			c-0.5,0.3-1,0.6-1.4,0.9c-0.1,0.1-0.3,0.2-0.4,0.3c-0.2,0.1-0.3,0.2-0.5,0.3c-0.2,0.1-0.3,0.2-0.5,0.3c-0.2,0.1-0.3,0.2-0.4,0.3
			c-0.1,0.1-0.3,0.2-0.4,0.4c-0.1,0.1-0.2,0.2-0.3,0.2c-0.2,0.2-0.5,0.4-0.7,0.6c-0.2,0.2-0.5,0.5-0.7,0.7c-0.8,0.8-1.6,1.7-2.3,2.7
			c-0.1,0.2-0.2,0.3-0.3,0.5c-0.2,0.3-0.4,0.7-0.7,1c-8.5-19.2-3.6-36.1,11.5-56c13.7-18.1,38.4-18.4,42.8-18.3
			c-0.5,1.5-0.3,3.6,2,6.1c4.9,5.7,15.1,19,19,17.6C516.7,904.4,517.4,901,517.5,898.6z"/>
		<path class="st42" d="M572.7,893c-7,0.4-15,1.7-24,4.6c-9.4,3-19.8,7.6-31.2,14.5v-13.5c0-0.3,0-0.7,0-1c0,2.4,0.4,6.6,3.2,7.6
			c3.9,1.4,14.1-11.8,19-17.6c2.4-2.8,2.4-5,1.8-6.5C545.7,881.7,559.8,884.3,572.7,893z"/>
		<path class="st35" d="M468.3,953.7c0-0.1,0-0.1,0-0.2"/>
		<path class="st41" d="M517.5,971.2v11.9h-33.6c6.5-5.3,2.9-6.7,2.4-7.1c-0.1-0.1-0.6-0.4-1.4-0.7
			C493.5,974.8,505.2,973.7,517.5,971.2z"/>
		<path class="st42" d="M560.1,968.1c-0.5,5-1.2,10.1-1.8,15v0c0,0,0,0,0,0h-40.8v-11.9c11-2.2,22.3-5.4,32.2-10.3
			c1,3.6,3.4,6.4,7.8,6.9C558.4,967.9,559.3,968,560.1,968.1z"/>
		<path class="st42" d="M509.3,1024.5l-3.9,56c-16,10.1-31.4,0-31.4,0l-2.7-20.3l-5.5-41.8c6.5,0.7,25-14.6,36.6-25
			c0,1.9,0.4,3.5,1.6,4.2c0,0-9.2,22.4-9.2,27.3C494.9,1028.8,503.2,1029.8,509.3,1024.5z"/>
		<path class="st43" d="M471.4,1060.2c-5.7,0.2-13-5.4-13-5.4c-3.3-7.6,3.8-41.5,3.8-41.5c0.4,1.8,1.1,3.4,2.1,4.4
			c0.4,0.4,0.9,0.7,1.6,0.7L471.4,1060.2z"/>
		<path class="st44" d="M505,983.2c0,0-2.4,5.9-2.5,10.2c-11.6,10.4-30,25.7-36.6,25c-0.7-0.1-1.2-0.3-1.6-0.7c-1-1-1.7-2.6-2.1-4.4
			c-2.4-10,2.5-29.4,2.5-29.4c1.4,2.2,6.3,8.2,15.6,1.9c1.4-1,2.6-1.8,3.5-2.6H505z"/>
		<path class="st45" d="M563.1,1007.5c-1.6,1.9-4.6,2.6-9.7,1.4c-0.4-0.1-0.8-0.2-1.2-0.3c-12.5-3.5-22.7-10-29.7-15.4
			c1-3.4,1.7-7.8-0.4-10h36.2c0,0,0,0,0,0C559.6,985.4,568,1001.8,563.1,1007.5z"/>
		<path class="st44" d="M522.5,993.2c-0.8,2.7-1.8,4.8-1.8,4.8s-0.7,0.1-1.8,0.2c-1.1,0.1-2.7,0.2-4.5,0.3c-3.1,0.1-6.8,0.1-9.4-0.4
			c-0.3-0.1-0.6-0.2-0.9-0.3c-1.2-0.7-1.6-2.3-1.6-4.2c0.1-4.3,2.5-10.2,2.5-10.2h17.1C524.2,985.3,523.5,989.8,522.5,993.2z"/>
		<path class="st44" d="M513.1,1019.7c-1,2-2.4,3.6-3.8,4.8c-6.1,5.3-14.4,4.3-14.4,0.4c0-4.9,9.2-27.3,9.2-27.3
			c0.3,0.2,0.5,0.3,0.9,0.3c2.6,0.5,6.3,0.5,9.4,0.4C514.4,998.3,518.6,1009.2,513.1,1019.7z"/>
		<path class="st43" d="M529.6,1034.6c-1.8-3.5-9-9.3-13.2-12.6c-1.9-1.4-3.2-2.4-3.2-2.4c5.5-10.4,1.3-21.3,1.3-21.3
			c1.8-0.1,3.3-0.2,4.5-0.3c0,0,0.6,4.7,9.1,12.5C536.5,1018.4,532.2,1039.7,529.6,1034.6z"/>
		<path class="st45" d="M564.7,1054.6c0,0-3.1,3-11.3,2.6v-48.3c5.1,1.2,8.1,0.5,9.7-1.4C563.5,1008.8,568.4,1025.8,564.7,1054.6z"
			/>
		<path class="st20" d="M553.4,1008.9v70.6c-16.7,9-23.5-0.6-30.9,1.9l-6.2-59.4c4.2,3.2,11.4,9.1,13.2,12.6c2.6,5,7-16.2-1.6-24
			c-8.5-7.8-9.1-12.5-9.1-12.5c1.1-0.1,1.8-0.2,1.8-0.2s1-2.1,1.8-4.8c7,5.4,17.2,11.9,29.7,15.4
			C552.6,1008.7,553,1008.8,553.4,1008.9z"/>
		<path class="st46" d="M592.3,963.8c-4.7,7.9-19.4,5.8-32.1,4.3c-0.9-0.1-1.7-0.2-2.6-0.3c-4.5-0.5-6.9-3.3-7.8-6.9
			c-0.1-0.2-0.1-0.5-0.2-0.7c-1.5-6.9,1.8-16,5.2-15.7c0.7,0.1,1.4,0.1,2.3,0.1c1.5,0,3.3,0,5.1-0.1c4.7-0.2,9.7-0.6,11-0.7
			c0.2,0,0.4,0,0.4,0s0.2,0.1,0.7,0.2C577.4,945,591.3,950,592.3,963.8z"/>
		<path class="st47" d="M472.3,975.7c-1.2,4.7-4.4,7.1-8,7.4c-0.6,0.1-1.2,0.1-1.7,0.1c-1.6-0.1-3.3-0.9-5-2.2v0
			c-5.1-3.8-10.7-11.9-14.3-17.9c0,0,0,0,0,0c-2.2-3.5-3.6-6.3-4-7c0,0,0,0,0,0c0-0.1-0.1-0.1-0.1-0.2c0.2-0.3,0.4-0.7,0.7-1
			c0.1-0.2,0.2-0.3,0.3-0.5c0.7-1,1.5-1.8,2.3-2.7c0.2-0.2,0.5-0.5,0.7-0.7c0.2-0.2,0.5-0.4,0.7-0.6c0.1-0.1,0.2-0.2,0.3-0.2
			c0.1-0.1,0.3-0.2,0.4-0.4c0.1-0.1,0.3-0.2,0.4-0.3c0.2-0.1,0.3-0.2,0.5-0.3c0.2-0.1,0.3-0.2,0.5-0.3c0.1-0.1,0.3-0.2,0.4-0.3
			c0.5-0.3,1-0.6,1.4-0.9c0.2-0.1,0.3-0.2,0.5-0.3c0.3-0.2,0.5-0.3,0.8-0.4c0.2-0.1,0.4-0.2,0.6-0.3c0.2-0.1,0.3-0.2,0.5-0.2
			c0.2-0.1,0.3-0.1,0.5-0.2c1.3-0.6,2.6-1.1,3.9-1.5c0.1,0,0.3-0.1,0.4-0.1c0.8-0.3,1.5-0.5,2.2-0.6c0.1,0,0.2-0.1,0.3-0.1
			c0.7-0.2,1.3-0.3,1.8-0.4c0.2,0,0.3-0.1,0.4-0.1c0.1,0,0.2,0,0.3-0.1c0.2,0,0.3-0.1,0.4-0.1c0.2,0,0.3-0.1,0.4-0.1
			c0.2,0,0.3-0.1,0.5-0.1c0,0,0,0,0,0c0,0,0.1,0,0.1,0c0,0,0.1,0,0.1,0c0,0,0.1,0,0.1,0c0,0,0,0,0,0c0,0,0.1,0,0.1,0
			c2.6,4,4.6,7.6,6.2,11c0,0,0,0.1,0,0.1c0.4,0.7,0.7,1.5,1,2.2c0,0.1,0,0.1,0.1,0.2c0.1,0.3,0.3,0.6,0.4,0.9
			c1.9,4.4,2.9,8.2,3.3,11.4C472.9,971.4,472.8,973.7,472.3,975.7z"/>
		<path class="st18" d="M572.7,893L572.7,893c-7,0.4-15,1.7-24,4.6c-2.1,2.9-4.6,11.8-4.6,15.4c0,0.8,0,1.6,0,2.4
			c0.1,3.5,0.5,7.2,1.2,10.8c0.8,4.3,2.1,8.4,3.9,11.9c0.4,0.2,0.8,0.4,1.3,0.7c7.1,4.2,6.6,5.9,6.6,5.9c1.5,0,3.3,0,5.1-0.1
			c4.7-0.2,9.7-0.6,11-0.7c0.3-0.3,0.6-0.6,0.8-0.8c8.3-8.4,14.9-17.7,19.7-25.6c6.7-11,10.1-19.4,10.1-19.4S592.5,891.8,572.7,893z
			 M571.1,922.4c-6,0-10.9-4.9-10.9-11c0-6,4.9-10.9,10.9-10.9c6.1,0,11,4.9,11,10.9C582.1,917.5,577.2,922.4,571.1,922.4z"/>
		<path class="st37" d="M483.9,983.2c-1,0.8-2.1,1.6-3.5,2.6c-9.3,6.2-14.2,0.3-15.6-1.9c-0.3-0.4-0.4-0.7-0.4-0.7
			c3.6-0.4,6.9-2.8,8-7.4c0.5-1.9,0.6-4.2,0.3-7c1.1,1.8,8.9,5.1,12.2,6.6c0.8,0.4,1.3,0.6,1.4,0.7
			C486.7,976.5,490.3,977.8,483.9,983.2z"/>
		<path class="st7" d="M442.8,1009.5c-15-16.2,1.7-33.9,1.7-33.9c-32.3,1.7-33-22.2-33-22.2c13.9-5.1,30.7,8.9,31.6,9.6c0,0,0,0,0,0
			c3.7,6,9.2,14,14.3,17.9v0C458.9,1000.5,442.8,1009.5,442.8,1009.5z"/>
		<path class="st21" d="M571.1,900.5c-6,0-10.9,4.9-10.9,10.9c0,6.1,4.9,11,10.9,11c6.1,0,11-4.9,11-11
			C582.1,905.4,577.2,900.5,571.1,900.5z M572.7,912.1c-2.5,0-4.4-2-4.4-4.5c0-2.4,2-4.4,4.4-4.4c2.5,0,4.4,2,4.4,4.4
			C577.1,910.1,575.1,912.1,572.7,912.1z"/>
		<path class="st37" d="M557,944.6c-0.8,0-1.6-0.1-2.3-0.1c-3.5-0.4-6.8,8.7-5.2,15.7c0,0-14.1-5.4-14.1-14c0-8,6.9-11.2,13.7-8.1
			c0.4,0.2,0.8,0.4,1.3,0.7C557.6,943,557,944.6,557,944.6z"/>
		<path class="st48" d="M549.7,960.9c-9.9,4.9-21.3,8.1-32.2,10.3c-12.3,2.5-24,3.6-32.7,4c-3.3-1.5-11.1-4.7-12.2-6.6
			c-0.4-3.2-1.4-7-3.3-11.4c8.3-4.7,18.6-10.4,27-15.1c4.6-2.6,9.2-5.1,13.5-8.1c3.7-2.5,11.1-8.1,14.7-10.5
			c0.3,0.4,0.5,0.8,0.7,1.3c0.6,1.8-0.2,3.8-0.5,5.7c-0.3,1.9,0.2,4.4,2.1,4.8c1,0.2,2.1-0.2,2.9,0.5c0.9,0.9,0,2.5,0.4,3.7
			c0.4,1.3,2.2,1.7,3.4,1.2c1.2-0.6,2.1-1.7,2.8-2.9c2.7-3.9,6.1-7.7,8.8-11.7c0.8,4.3,2.1,8.4,3.9,11.9c-6.8-3.1-13.7,0.1-13.7,8.1
			c0,8.5,14.1,14,14.1,14C549.6,960.4,549.7,960.7,549.7,960.9z"/>
		<path class="st49" d="M544,913c0,0.8,0,1.6,0,2.4c-4.9-0.1-9.8-0.2-14.8-0.3c-1.6,0-3.2-0.1-4.7,0.6c-1.5,0.6-2.7,2-2.6,3.6
			c0.1,1.7,1.6,2.9,2.6,4.3c-3.7,2.5-11.1,8.1-14.7,10.5c-4.3,2.9-8.9,5.5-13.5,8.1c-8.4,4.7-18.7,10.4-27,15.1
			c-0.1-0.3-0.3-0.6-0.4-0.9c0-0.1-0.1-0.1-0.1-0.2c-0.3-0.7-0.6-1.5-1-2.2c17.4-18.4,35-32.9,49.7-41.9
			c11.3-6.9,21.7-11.6,31.2-14.5C546.5,900.5,544,909.4,544,913z"/>
		<g>
			<path class="st39" d="M548.7,897.6c0.4,0,0.5,0.2,0.4,0.4C548.9,898.1,548.6,898,548.7,897.6c0-0.4-0.3-0.5-0.4-0.4
				C548.2,897.4,548.2,897.6,548.7,897.6z"/>
		</g>
		<path class="st7" d="M545.2,926.2c-2.7,4-6.1,7.7-8.8,11.7c-0.8,1.1-1.6,2.3-2.8,2.9c-1.3,0.6-3,0.1-3.4-1.2
			c-0.4-1.2,0.5-2.8-0.4-3.7c-0.7-0.7-1.9-0.3-2.9-0.5c-1.9-0.4-2.5-2.9-2.1-4.8c0.3-1.9,1.2-3.9,0.5-5.7c-0.2-0.5-0.4-0.9-0.7-1.3
			c-1-1.4-2.5-2.6-2.6-4.3c-0.1-1.6,1.2-3,2.6-3.6c1.5-0.6,3.1-0.6,4.7-0.6c4.9,0.1,9.8,0.2,14.8,0.3
			C544.2,918.9,544.5,922.6,545.2,926.2z"/>
		<g>
			<path class="st50" d="M540.8,919.8"/>
		</g>
		<g>
			<path class="st1" d="M467,1072.6c-0.5,1.8-0.9,3.4-1,4.9c-0.1,1.5,0.1,2.8,0.6,3.6c0.5,0.8,1,1.4,2,2c0.9,0.6,2.1,1.2,3.3,1.8
				c2.5,1.1,5.5,2.2,8.5,3.3c3,1.2,6.2,2.3,9.4,4.3c-3.5,1.4-7,1.9-10.5,1.9c-3.5,0-7.2-0.6-10.7-2.2c-1.8-0.8-3.6-1.9-5.1-3.5
				c-1.6-1.6-2.9-4-3-6.5c-0.1-2.5,0.8-4.7,2-6.2C463.7,1074.4,465.2,1073.2,467,1072.6z"/>
		</g>
		<g>
			<path class="st1" d="M561.1,1075.4c1.4,0.3,2.8,0.7,4.1,1.4c1.3,0.7,2.7,1.7,3.6,3.4c0.5,0.9,0.7,2.1,0.5,3.2
				c-0.2,1.2-0.7,2.2-1.3,3c-1.2,1.6-2.6,2.6-3.9,3.4c-0.7,0.4-1.4,0.8-2.1,1.1c-0.7,0.3-1.4,0.6-2.1,0.9c-1.4,0.6-2.8,1-4.2,1.4
				c-1.4,0.4-2.8,0.7-4.2,1.1c-1.4,0.3-2.9,0.5-4.3,0.7c-5.8,0.6-11.9,0.3-17.5-1.5c-2.8-0.9-5.5-2.2-8-3.7
				c-1.2-0.8-2.4-1.7-3.5-2.7c-1.1-1-2.1-2.1-2.9-3.3c5.3,2.1,10.5,3,15.6,3.5c5.1,0.5,10.2,0.3,15.3-0.3c1.3-0.2,2.6-0.3,3.8-0.5
				c1.3-0.2,2.6-0.5,3.8-0.7c2.5-0.5,5.1-1,7.3-1.8c1.1-0.4,2.1-0.8,2.8-1.3c0.4-0.2,0.5-0.4,0.7-0.6c0.2-0.2,0.3-0.4,0.3-0.8
				c0-0.8-0.6-2-1.4-3C563,1077.5,562.1,1076.4,561.1,1075.4z"/>
		</g>
		<g>
			<path class="st1" d="M506.9,1089.7c0.4,0.9,0.3,1.9,0.1,2.8c-0.2,0.9-0.6,1.8-1.1,2.6c-0.2,0.4-0.5,0.8-0.8,1.2
				c-0.3,0.4-0.6,0.8-0.9,1.1c-0.3,0.3-0.6,0.7-1,1c-0.3,0.3-0.7,0.6-1.1,0.9c-2.9,2.3-6.5,3.6-10,4.1c-0.9,0.1-1.8,0.2-2.6,0.2
				c-0.9,0.1-1.7,0-2.6,0c-1.7,0-3.4-0.4-5.1-0.8c-1.7-0.4-3.3-1.1-4.8-1.7c-1.5-0.8-3-1.7-4.4-2.8c1.8-0.6,3.4-0.8,5-1.1
				c1.6-0.3,3.2-0.5,4.7-0.7c1.5-0.3,3-0.3,4.4-0.5c0.7-0.1,1.5-0.1,2.2-0.2c0.7-0.1,1.4-0.2,2.1-0.3c2.8-0.4,5.5-0.9,8.1-1.7
				c0.7-0.2,1.3-0.4,2-0.6c0.3-0.1,0.6-0.3,1-0.4c0.3-0.1,0.7-0.3,1-0.4c0.7-0.3,1.3-0.6,2-1c0.3-0.2,0.7-0.4,0.9-0.7
				c0.1-0.1,0.3-0.3,0.5-0.4C506.6,1090,506.8,1089.9,506.9,1089.7z"/>
		</g>
		<g>
			<path class="st1" d="M526.9,1098.2c1-0.4,2-0.6,2.9-0.8c1-0.2,1.9-0.3,2.8-0.5c1.9-0.3,3.7-0.5,5.5-0.7l10.5-1
				c3.4-0.3,6.8-0.7,10.2-1.1c3.5-0.5,6.9-1.2,10.9-1.7c-2.2,3.4-5.4,5.9-9,7.7c-3.6,1.7-7.5,2.7-11.4,3.1
				c-3.9,0.4-7.8,0.1-11.6-0.8c-1.9-0.4-3.7-1-5.5-1.7C530.3,1100.1,528.6,1099.2,526.9,1098.2z"/>
		</g>
		<path class="st2" d="M577.1,907.7c0,2.5-2,4.5-4.4,4.5c-2.5,0-4.4-2-4.4-4.5c0-2.4,2-4.4,4.4-4.4
			C575.1,903.2,577.1,905.2,577.1,907.7z"/>
	</g>
</g>
<g id="Layer_3" class="st23">
	<g class="st24">
		<path class="st4" d="M751.9,961.7c0,0-67.9-11-156.4,41.9c-88.5,52.9-10.4,41.1,13.9,66.6c28.4,29.9-44.4,22.9-25.8,67.2
			c50.2,119.4,146.4,81.9,168.3,114.9V961.7z"/>
		<path class="st25" d="M751.9,1021.5c0,0-53.9,8.3-58.6,36.6c-4.7,28.3-56.7,19-76.6,44.5c-19.9,25.6,74.3,4.4,84.4,24.2
			c11.8,23.1,9.4,48.3-87.2,62.2s-23.1,44.5,79.3,52.8c0,0,53.2-2.1,58.6,39.7V1021.5z"/>
		<path class="st2" d="M806,1017.4c0,0-125,28.2-207.8-174.1C598.2,843.2,781.9,849,806,1017.4z"/>
		<g>
			<g>
				<path class="st20" d="M582.2,1014.5c-2-0.6-4-0.6-6,0.2c-6.4,2.8-6.4,0-6.4,0c3.1-0.5,6.3-4,9.6-7.2c0.2-0.1,1-0.3,1,2.2
					C580.3,1012.5,582.2,1014.5,582.2,1014.5z"/>
				<path class="st21" d="M650.7,1058c-14.3,13.2-28.3,12.6-38.9,8.6v0c-7-2.7-12.5-6.9-15.5-9.5c-7.4-6.4-4.6-27.6-5.5-33.1
					c-0.6-3.8-4.4-8.1-8.7-9.4c0,0-1.9-2.1-1.9-4.8c0-2.5-0.8-2.3-1-2.2c2.5-2.5,5.1-4.8,7.9-5.6c6.4-1.8,10.6,6.9,11.5,13.4
					s4.6,16.6,4.6,16.6c7.8-0.5,17,0.5,23.5,5.1c6.4,4.6,17.5,21.2,21.2,20.3C651.7,1056.2,650.7,1058,650.7,1058z"/>
			</g>
			<circle class="st22" cx="586.8" cy="1006.5" r="1"/>
		</g>
		<g>
			<path class="st51" d="M661.9,769.4c0,0-4.1,1.1-5.1-1.1s-8.2-6.6-13.4,1.1c-5.1,7.7-4.1,32.8-5.1,36.1s-11.3,13.1,1,30.6
				s9.2,15.3,6.2,21.9c-3.1,6.6,3.1,18.6,0,25.2c-3.1,6.6,3.1,17.5,20.5,15.3c17.5-2.2,4.1,9.8,6.2,19.7c2.1,9.8,21.6,10.9,25.7,3.3
				c4.1-7.7,5.1,1.1,7.2-2.2c2.1-3.3,4.1-6.6,2.1-12s5.1-10.9,5.1-16.4s-2.1-12,0-18.6c2.1-6.6-5.1-8.8-6.2-14.2s7.2-14.2,2.1-28.5
				c-5.1-14.2-14.4-15.3-11.3-32.8c3.1-17.5-12.3-16.4-17.5-24.1C674.2,765,666,766.1,661.9,769.4z"/>
			<path class="st52" d="M717.3,908.3c0,0,3.1,10.9,9.2,0c6.2-10.9,12.3-7.7,15.4-2.2s9.2,5.5,11.3-3.3c2.1-8.8,5.1-6.6,6.2-13.1
				c1-6.6,7.2-3.3,5.1-18.6c-2.1-15.3,6.2-29.5,7.2-32.8s3.1-23-3.1-26.3c-6.2-3.3-11.3-5.5-12.3-13.1c-1-7.7-11.3-2.2-12.3-6.6
				c-1-4.4-1-15.3-9.2-14.2c-8.2,1.1-11.3-10.9-15.4,5.5c-4.1,16.4-3.1,33.9-8.2,37.2c-5.1,3.3-2.1,10.9-3.1,20.8
				c-1,9.8-8.2,7.7-5.1,19.7c3.1,12,8.2,16.4,6.2,28.5C707,901.8,716.3,905.1,717.3,908.3z"/>
			<path class="st0" d="M731.2,956c0,0-3.1-38.3,2.1-56.9c5.1-18.6,1-48.2-2.1-59.1c-3.1-10.9-14.4-30.6-14.4-30.6
				c21.6,18.6,21.6,59.1,21.6,59.1c2.1-9.8,7.2-72.2,7.2-72.2c2.1,13.1-6.2,91.9-6.2,91.9c8.2-13.1,23.6-75.5,23.6-75.5
				c1,12-15.4,64.6-21.6,75.5s-6.2,21.9-7.2,40.5c-1,18.6,3.1,39.4,12.3,47.1c9.2,7.7,21.6,37.2,23.6,47.1
				c2.1,9.8-4.6,14.8-9.8,13.7c-5.1-1.1-5.1-20.8-12.3-43.8c-7.2-23-38-39.4-48.3-40.5c-10.3-1.1-19.5-26.3-18.5-26.3
				c1,0,4.1,1.1,4.1,1.1s5.1,13.1,9.2,17.5c4.1,4.4,22.6,8.8,22.6,8.8c-8.2-3.3-13.4-39.4-15.4-47.1c-2.1-7.7-29.8-20.8-42.1-33.9
				c-12.3-13.1-10.3-20.8-6.2-13.1c4.1,7.7,42.1,32.8,42.1,32.8s1-4.4-4.1-19.7c-5.1-15.3-27.7-35-40.1-48.2
				c-12.3-13.1-11.3-27.4-11.3-27.4s21.1,35.6,39.5,47.6c0,0-11.3-26.3-11.3-39.4c0-13.1,1-26.3,0-32.8c0,0,5.1-2.2,4.1,18.6
				c-1,20.8,9.2,53.6,13.4,55.8c4.1,2.2,20.5,30.6,22.6,55.8C710.6,927.5,724,959.2,731.2,956z"/>
		</g>
		<path class="st26" d="M731.5,886.5c8.2,15.4,14.4,32.9,11.3,50.1c-0.1,0.5-0.2,1-0.3,1.5l0,0c-2.5,11.7-9,22.2-13.9,33.2
			c0,0,0,0,0,0c-0.1,0.2-0.2,0.4-0.3,0.5c-5.1,11.7-8.1,25.6-2.3,36.9c0.3,0.2,0.1,1.2-0.4,2.3l0,0c-0.7,1.9-2,4.2-2.5,4
			c-0.8-0.2-1.2-1.1-1.4-1.9c0-0.1,0-0.1,0-0.1c-1.5-5-1.8-10.4-4.2-15c-1.8-3.4-4.6-6.1-7-9c-1.1-1.3-2.2-2.7-3-4.2
			c-3.5-6.2-3.3-14-1.1-20.9c0.5-1.6,1.2-3.2,1.9-4.8l0,0c2.3-4.9,5.2-9.6,8.1-14.2c0.7-1,1.3-2.1,1.9-3.1
			C728.6,925,737.5,905.3,731.5,886.5z"/>
		<path class="st11" d="M717.4,998.2c2.4,4.6,2.8,10,4.2,15c0,0,0,0.1,0,0.1c-4.9-3.1-11.6-6.6-16.5-9.3c-4.9-2.7-11-4.1-16-1.9
			c-7.7,9.9-14.2,20.7-19.1,32.3c-0.8,2-2,4.3-4.1,4.7c-2,0.4-4-1.1-4.8-3c-0.8-1.9-0.7-4-0.6-6c0.5-9.7,1.2-20.1,7.3-27.7
			c0.2-0.3,0.4-0.5,0.7-0.8c5-5.7,12.3-8.7,19.3-11.5c2.9-1.2,5.9-2.3,9-3l0,0c1.4-0.3,2.9-0.5,4.4-0.5c1.1,0,2.3,0.1,3.4,0.4
			c1.7,0.4,3.9,1.1,5.9,2.2C712.8,992.2,715.6,994.9,717.4,998.2z"/>
		<path class="st4" d="M718.2,942c-0.6,1-1.3,2.1-1.9,3.1c-2.9,4.6-5.9,9.2-8.1,14.2l0,0c-0.7,1.6-1.3,3.2-1.9,4.8
			c-2.2,6.8-2.4,14.6,1.1,20.9c0.9,1.5,1.9,2.9,3,4.2c-2-1-4.2-1.8-5.9-2.2c-2.6-7.6-9.9-12.6-15.6-18.4c-0.8-0.8-1.6-1.7-2.4-2.6
			c0,0,0,0,0,0c-8.2-9.4-13.3-21.4-14.3-33.8c-0.3-4.2-0.2-8.3-0.1-12.5c0.3-9.3,0.5-18.7,0.8-28c0-1.2,0.1-2.6,0.9-3.5
			c2-2.3,5.7,0.1,7.7,2.5C694.4,906.2,709.3,923.8,718.2,942z"/>
		<path class="st53" d="M704.5,987.1c-1.1-0.3-2.3-0.4-3.4-0.4c-1.5,0-2.9,0.2-4.4,0.5l0,0c-3.1,0.6-6,1.8-9,3
			c-7,2.8-14.4,5.8-19.3,11.5c-10.4,2.5-21,5-31.6,3.6c-13.9-1.9-26.7-11-33-23.6c-0.7-1.5-1.4-3.2-1-4.8c0.4-1.2,1.3-2.2,2.3-3.1
			c3.5-3.3,7-6.7,11.3-8.7c7.4-3.5,16-2.7,24.1-4c6.7-1.1,13.2-3.6,19.9-3.4c1.6,0.1,4.1,0.5,7,1.1c7,1.6,16.1,4.7,19.1,7.3
			c0,0,0,0,0,0c0.8,0.9,1.6,1.8,2.4,2.6C694.6,974.5,701.9,979.5,704.5,987.1z"/>
		<path class="st30" d="M801.7,953c-5.8,11.9-17.7,19.6-30,24.4c-4.7,1.8-9.8,3.3-14.8,2.9c-3.2-0.3-6.3-1.4-9.5-1.6
			c-6.5-0.4-12.3,2.9-17.4,7.1c-3,6-4,18-0.1,22.1c0,0,0.1,3.6-4.3,3.5c0.4-1.1,0.7-2.1,0.4-2.3c-5.8-11.4-2.7-25.2,2.3-36.9
			c0.1-0.2,0.2-0.4,0.3-0.5c0,0,0,0,0,0c4.8-11,11.3-21.5,13.9-33.2l0,0c5-4.2,12-5.5,18.5-6.5c3.3-0.5,6.6-1,9.8-0.3
			c2.7,0.6,5.1,2.1,7.5,3.7C786.5,940.4,794.3,946.4,801.7,953z"/>
		<g>
			<path class="st21" d="M697,988.4c-1.3-1.4-3-2-4.7-2.3c-1.7-0.2-3.5-0.1-5.2,0l-5.5,0.6c-1.9,0.2-3.7,0.3-5.6,0.5
				c-7.4,0.5-14.9,0.6-22.3,0.4c-7.4-0.2-14.9-0.9-22.2-1.9c-7.4-1.1-14.7-2.4-21.9-4.6c7.5-0.6,14.9-0.6,22.3-0.6
				c7.4,0.1,14.7,0.2,22.1,0.5c7.3,0.3,14.7,0.6,22.1,1.1l5.5,0.4c1.9,0.1,3.7,0.3,5.6,0.5c1.9,0.3,3.9,0.6,5.7,1.5
				c0.9,0.4,1.8,1,2.5,1.6C696.1,986.7,696.6,987.5,697,988.4z"/>
		</g>
		<g>
			<path class="st21" d="M638.9,983.8c-2.1-0.8-3.6-2-5-3.3c-1.3-1.3-2.4-2.7-3.3-4.2c-0.9-1.5-1.6-3.2-2.1-5
				c-0.5-1.8-0.8-3.7-0.5-5.9c2.1,0.8,3.6,2,5,3.3c1.3,1.3,2.4,2.7,3.3,4.3c0.9,1.5,1.6,3.2,2.1,5
				C638.9,979.6,639.2,981.5,638.9,983.8z"/>
		</g>
		<g>
			<path class="st21" d="M658,985c-1.6-1.6-2.7-3.1-3.7-4.6c-0.9-1.5-1.7-3-2.4-4.5c-0.7-1.5-1.2-3.1-1.7-4.8
				c-0.5-1.7-0.8-3.6-0.9-5.8c2.2,0.6,3.9,1.7,5.4,3.1c1.4,1.4,2.5,3.1,3.3,4.9c0.8,1.8,1.3,3.8,1.3,5.8
				C659.4,981,659.1,983,658,985z"/>
		</g>
		<g>
			<path class="st21" d="M671.5,985.1c-0.7-2.6-1.1-4.9-1.6-7l-1.3-6.3l-1.4-6.2c-0.5-2.2-1-4.4-1.5-7.1c2.6,0.9,4.6,2.7,6.2,4.8
				c1.6,2.1,2.6,4.6,3.2,7.1c0.6,2.6,0.6,5.2,0,7.8C674.6,980.7,673.5,983.2,671.5,985.1z"/>
		</g>
		<g>
			<path class="st21" d="M639.1,983c-0.6,2-1.5,3.3-2.5,4.6c-1,1.2-2.1,2.2-3.4,3.1c-1.2,0.8-2.6,1.5-4.1,2
				c-1.5,0.5-3.1,0.8-5.2,0.7c0.3-2,1.1-3.6,2.1-4.9c1-1.3,2.1-2.4,3.4-3.3c1.3-0.9,2.7-1.6,4.3-2
				C635.4,982.8,637.1,982.6,639.1,983z"/>
		</g>
		<g>
			<path class="st21" d="M657.6,984.4c0.7,2.2,0.4,4.4-0.2,6.5c-0.7,2-1.9,3.8-3.4,5.3c-1.5,1.5-3.4,2.6-5.4,3.3
				c-2,0.6-4.2,0.9-6.5,0.1c1.3-1.9,2.6-3.3,3.7-4.6c1.2-1.3,2.3-2.5,3.5-3.6c1.2-1.1,2.4-2.2,3.7-3.4
				C654.3,986.9,655.7,985.8,657.6,984.4z"/>
		</g>
		<g>
			<path class="st21" d="M671.9,984.9c-0.1,2-0.7,3.6-1.5,4.9c-0.7,1.4-1.7,2.6-2.8,3.6c-1.1,1-2.3,1.9-3.7,2.5
				c-1.4,0.6-3,1.1-5,1.1c0.1-2,0.7-3.6,1.5-5c0.7-1.4,1.7-2.6,2.8-3.6c1.1-1,2.3-1.9,3.7-2.5C668.3,985.4,669.8,984.9,671.9,984.9z
				"/>
		</g>
		<g>
			<path class="st21" d="M787.5,956.4c-5.7-0.2-11.2-0.5-16.7-0.6c-2.7-0.1-5.4-0.1-8.2,0l-2,0c-0.7,0-1.4,0-2,0.1
				c-1.3,0-2.6,0.1-3.8,0.3c-1.2,0.1-2.5,0.3-3.6,0.7c-0.6,0.2-1.1,0.3-1.8,0.5c-0.6,0.2-1.1,0.4-1.7,0.6c-2.3,0.9-4.5,2.2-6.6,3.7
				c-4.3,3-8.3,6.8-12.8,10.5c2.2-5.3,5.2-10.2,9.4-14.5c2.1-2.1,4.5-4,7.3-5.4c0.7-0.4,1.4-0.7,2.1-1c0.7-0.3,1.5-0.5,2.2-0.8
				c1.5-0.5,3.1-0.8,4.6-0.9c1.5-0.2,3-0.2,4.5-0.2c0.7,0,1.5,0,2.1,0.1c0.8,0,1.5,0.1,2.2,0.1c2.8,0.2,5.7,0.6,8.5,1.2
				C777.1,951.7,782.5,953.5,787.5,956.4z"/>
		</g>
		<g>
			<path class="st21" d="M748.7,954.7c-0.5-2.2-0.4-4.1-0.2-5.9c0.3-1.8,0.8-3.5,1.5-5.1c0.7-1.6,1.7-3.1,2.8-4.5
				c1.2-1.4,2.6-2.7,4.6-3.7c0.5,2.2,0.4,4.1,0.2,5.9c-0.3,1.8-0.8,3.5-1.6,5.1c-0.7,1.6-1.7,3.1-2.9,4.5
				C752.1,952.4,750.7,953.7,748.7,954.7z"/>
		</g>
		<g>
			<path class="st21" d="M761.9,952.8c-0.1-2.4,0.6-4.6,1.5-6.6c1-2,2.3-3.7,3.9-5.2c1.6-1.5,3.4-2.7,5.4-3.6c2-0.8,4.2-1.3,6.7-1.1
				c-1.1,2.2-2.4,3.8-3.6,5.3c-1.3,1.5-2.6,2.9-3.9,4.2c-1.4,1.3-2.8,2.5-4.4,3.7C765.8,950.7,764.1,951.8,761.9,952.8z"/>
		</g>
		<g>
			<path class="st21" d="M738.5,960.4c1.1,0.5,1.9,0.9,2.8,1.4l1.3,0.6l1.2,0.7c1.6,0.9,3,1.9,4.4,3c1.4,1.1,2.7,2.3,3.9,3.6
				c0.3,0.3,0.6,0.7,0.9,1l0.9,1.1c0.6,0.8,1.2,1.5,1.9,2.4c-0.5,0.2-1.1,0.4-1.7,0.5c-0.6,0.1-1.1,0.1-1.7,0.1
				c-0.6,0-1.1-0.1-1.6-0.2c-0.5-0.1-1-0.2-1.5-0.4c-2-0.6-3.7-1.6-5.3-2.9c-1.6-1.3-2.9-2.8-4-4.5c-0.3-0.4-0.5-0.9-0.7-1.4
				c-0.2-0.5-0.4-1-0.6-1.5c-0.2-0.5-0.3-1.1-0.3-1.6C738.3,961.6,738.4,961,738.5,960.4z"/>
		</g>
		<g>
			<path class="st21" d="M760.1,952.2l0.6,0.3c0.2,0.1,0.4,0.2,0.6,0.3c0.4,0.2,0.7,0.3,1.1,0.5c0.7,0.3,1.3,0.6,1.9,0.8
				c1.2,0.6,2.2,1.2,3.3,1.9c1,0.7,2,1.6,2.9,2.6c0.9,1,1.8,2.1,2.9,3.8c-1.7,1.1-3.6,1.2-5.2,0.9c-1.7-0.3-3.2-0.9-4.5-1.9
				c-1.3-1-2.4-2.3-3.2-3.8c-0.4-0.8-0.7-1.7-0.8-2.6C759.6,954.1,759.7,953,760.1,952.2z"/>
		</g>
		<g>
			<path class="st21" d="M708,960c-1.6-2.3-3-4.6-4.4-6.9c-1.4-2.3-2.7-4.7-3.9-7.1c-1.2-2.4-2.4-4.8-3.5-7.2
				c-0.6-1.2-1.1-2.4-1.6-3.6l-1.7-3.6c-2.2-4.8-4.3-9.7-6.3-14.6c-2.1-4.9-3.9-9.9-6-15c1.1,0.8,2.1,1.8,3.1,2.8c1,1,1.9,2,2.7,3.1
				c1.7,2.1,3.3,4.4,4.8,6.6c3,4.6,5.5,9.4,7.7,14.3l1.6,3.7c0.5,1.3,1,2.5,1.4,3.8c0.9,2.5,1.8,5.1,2.5,7.7
				c0.8,2.6,1.5,5.2,2.1,7.8c0.3,1.3,0.6,2.7,0.8,4C707.6,957.2,707.8,958.6,708,960z"/>
		</g>
		<g>
			<path class="st21" d="M705.7,953.9c-1.2,1.3-2.3,1.9-3.5,2.4c-1.1,0.4-2.2,0.6-3.3,0.5c-1.1-0.1-2.2-0.4-3.2-0.9
				c-1.1-0.6-2.1-1.4-3.1-2.8c1.2-1.3,2.3-1.9,3.5-2.4c1.1-0.4,2.2-0.5,3.3-0.5c1.1,0.1,2.2,0.4,3.2,1
				C703.7,951.6,704.7,952.4,705.7,953.9z"/>
		</g>
		<g>
			<path class="st21" d="M695.4,928.1c-1.5,0.9-2.8,1.2-4,1.4c-1.2,0.1-2.3-0.1-3.3-0.4c-1-0.4-2-0.9-2.9-1.8
				c-0.9-0.9-1.7-1.9-2.2-3.6c1.5-0.9,2.8-1.2,4-1.4c1.2-0.1,2.3,0.1,3.3,0.4c1,0.4,2,0.9,2.9,1.8
				C694,925.4,694.8,926.4,695.4,928.1z"/>
		</g>
		<g>
			<path class="st21" d="M702.1,943.8c-1.8,1-3.5,1.4-5.2,1.5c-1.7,0.1-3.3-0.1-4.8-0.5c-1.6-0.4-3.1-1.2-4.5-2.2
				c-0.7-0.5-1.4-1.1-2-1.9c-0.6-0.7-1.2-1.6-1.4-2.6l0.8-0.1c0.2,0,0.4,0,0.7-0.1c0.5-0.1,0.9-0.1,1.3-0.2c0.8-0.1,1.6-0.1,2.4-0.1
				c1.6,0,3,0.3,4.5,0.7c1.5,0.4,2.9,1,4.3,1.9C699.5,941.1,700.9,942.2,702.1,943.8z"/>
		</g>
	</g>
</g>
</svg>
