<?xml version="1.0" encoding="utf-8"?>
<!-- Generator: Adobe Illustrator 22.0.1, SVG Export Plug-In . SVG Version: 6.00 Build 0)  -->
<svg version="1.1" xmlns="http://www.w3.org/2000/svg" xmlns:xlink="http://www.w3.org/1999/xlink" x="0px" y="0px"
	 viewBox="0 0 100 100" style="enable-background:new 0 0 100 100;" xml:space="preserve">
<style type="text/css">
	.st0{display:none;}
	.st1{display:inline;fill:#FFF8DD;}
	.st2{fill:#BCD38C;}
	.st3{fill:#2F593D;}
	.st4{fill:#488A71;}
	.st5{fill:#557E41;}
	.st6{fill:#B5BE6E;}
	.st7{display:inline;fill:#BCD38C;}
	.st8{display:inline;fill:#2F593D;}
	.st9{display:inline;fill:#557E41;}
	.st10{display:inline;fill:#77A275;}
	.st11{display:inline;fill:#DDDA91;}
	.st12{display:inline;fill:#5F887F;}
	.st13{display:inline;fill:#B5BE6E;}
	.st14{display:inline;fill:#BA6832;}
	.st15{display:inline;fill:#F8DA4B;}
	.st16{display:inline;fill:#98C39D;}
	.st17{display:inline;fill:#F4B845;}
	.st18{display:inline;fill:#488A71;}
</style>
<g id="Layer_3" class="st0">
	<path class="st1" d="M83.2,78.6c0,0,1.3,21.2-29.8,21.4c-32.8,0.2-36.3-13.6-36.6-17.4c-1.1-18.5,13.5-34.4,32.6-35.5
		C68.5,45.9,82.1,60.1,83.2,78.6"/>
</g>
<g id="Layer_2">
	<g>
		<path class="st2" d="M49.5,56.9c0,0-0.1-4.5,3.1-5.7c0,0-2.9,2.4-2.7,9L49.5,56.9z"/>
		<path class="st3" d="M48.8,76.9c0,0,8.9-1.6,11.8-6.9c2.9-5.3,7.1-5.5,7.1-5.5s-5.6-3-10.1,1.8C54.1,70,47.6,73.7,48.8,76.9"/>
		<path class="st4" d="M52.3,72.5c0,0-6.6-12.8-20-12.6c0,0,3.3,0.2,7.1,6.3C43.2,72.3,48.9,77.3,52.3,72.5"/>
		<path class="st5" d="M48.5,50c1.9,4.3,3.3,21.7,3.8,43.6c0,1.6-3.2,0.2-3.2,0.2s0.6-3,0.5-13.1C49.3,50.4,48.5,50,48.5,50"/>
		<path class="st6" d="M50,85.2c0,0-3.8-2.6,1-13c4.8-10.4,4.1-14.1,4.1-14.1s2.5,4.3,1,12C54.5,77.7,56.5,81.8,50,85.2"/>
	</g>
</g>
<g id="Layer_4" class="st0">
	<path class="st1" d="M83.2,78.6c0,0,1.3,21.2-29.8,21.4c-32.8,0.2-36.3-13.6-36.6-17.4c-1.1-18.5,13.5-34.4,32.6-35.5
		C68.5,45.9,82.1,60.1,83.2,78.6"/>
</g>
<g id="Layer_5" class="st0">
	<path class="st7" d="M51.1,47.5c0,0-4.1-0.8-6.8-3c-2.6-2.3-6.7-2.2-6.7-2.2s3-2.5,6.3-0.8C47.3,43.1,50.1,42.7,51.1,47.5"/>
	<path class="st8" d="M51,73.3c0,0-5.4-9.7-9.7-5.5C36.1,72.7,35.2,81,35.2,81s4.4-10.3,8.4-9.6C46.1,71.8,46.6,73.3,51,73.3"/>
	<path class="st9" d="M50.8,67c0,0,2.7-10,7.6-7.2c5.8,3.3,8.5,10.6,8.5,10.6s-6.3-8.3-9.8-6.8C54.9,64.5,54.7,66,50.8,67"/>
	<path class="st9" d="M50.6,28.5c1.5,3.3,2.2,40.9,1.2,61.1c-0.1,1.2-2.5,0.1-2.5,0.1s0.1-2.3,0.4-10.2
		C50.6,53.2,50.6,28.5,50.6,28.5"/>
	<path class="st8" d="M50.9,70.4c0,0,2.8-7.6,8.1-0.7c2.9,3.8,3.7,13.6,3.7,13.6S57,67.6,50.9,70.4"/>
	<path class="st10" d="M50.7,45c0,0,5.7-1,7.5-4.4c1.9-3.4,4.5-3.5,4.5-3.5s-3.6-1.9-6.5,1.2C54.1,40.6,49.9,42.9,50.7,45"/>
	<path class="st11" d="M50.8,29.6c0,0-1.1-2.1-1.1-4.8S51,28.6,50.8,29.6"/>
	<path class="st11" d="M50.8,29.6c0,0-0.8-3.3-4-3.4C43.5,26.1,49.3,27,50.8,29.6"/>
	<path class="st11" d="M50.6,29c0,0,0-0.1,0.1-0.2c0.4-0.7,1.9-2.8,4.1-2.4c2.6,0.5-3.2,0.2-4,3.1C50.8,29.5,50.5,29.2,50.6,29"/>
	<path class="st12" d="M51.1,59.6c0,0-3-4.1-8-1.7c-5,2.4-5,3.5-8.1,4.9c0,0,4.3,0,7.3-1.6C45.4,59.7,49.8,61,51.1,59.6"/>
	<path class="st7" d="M51.1,52.2c0,0,2.3-4.5,6.4-2.8c4.1,1.7,6.1,1.2,6.1,1.2s-0.8,1.6-3.2,1.6C58,52.2,52.8,50.7,51.1,52.2"/>
	<path class="st8" d="M53.3,60.1c0,0,2.9-3.5,6-2.4c0,0-1.4,0.2-2.1,1.3c-0.7,1.1-3.6,5.4-5.1,3.6S53.3,60.1,53.3,60.1"/>
	<path class="st13" d="M49.8,58.4c0,0-2.9-2.8-2.5-8.7C47.8,43.5,53.4,61.3,49.8,58.4"/>
	<path class="st12" d="M49.1,73.2c0,0-3.2-2.9-2.7-9.1C46.9,57.8,52.9,76.3,49.1,73.2"/>
	<path class="st14" d="M46.5,48.9c0,0-0.4,0-0.4,0.3c0,0.2,0.3,0.2,0.3,0.2S46,49.5,46,49.8c0,0.2,0.3,0.2,0.3,0.2s-0.5,0.4-0.3,0.6
		c0.2,0.2,0.4-0.2,0.4-0.2s-0.2,0.5,0.2,0.6c0.4,0.1,0.3-0.6,0.3-0.6s0.2,0.4,0.5,0.2c0.2-0.2,0-0.6,0-0.6s0.2,0.2,0.4,0
		c0.1-0.1-0.1-0.5-0.1-0.5s0.2,0.1,0.3,0c0.1-0.2-0.2-0.4-0.2-0.4s0.3,0.1,0.4,0c0.1-0.2-0.2-0.3-0.3-0.3c0,0,0.3-0.2,0.3-0.4
		c0-0.2-0.4-0.1-0.4-0.1s0.2-0.2,0-0.4c-0.1-0.2-0.3,0.2-0.3,0.2s0.1-0.4-0.1-0.4c-0.2,0-0.2,0.2-0.2,0.2s-0.1-0.4-0.3-0.3
		c-0.1,0-0.1,0.3-0.1,0.3s-0.2-0.2-0.4-0.1c-0.1,0.1,0.1,0.3,0.1,0.3s-0.3,0-0.3,0.1c0,0.2,0.3,0.2,0.3,0.2s-0.3,0-0.3,0.2
		c0,0.2,0.3,0.1,0.3,0.1s-0.1,0-0.1,0.1C46.3,48.9,46.5,48.9,46.5,48.9"/>
	<path class="st14" d="M46.8,64.8c0,0,0.4-0.1,0.3-0.3c0-0.2-0.3-0.2-0.3-0.2s0.4-0.1,0.3-0.4c0-0.2-0.3-0.1-0.3-0.1
		s0.4-0.4,0.2-0.6c-0.2-0.2-0.4,0.2-0.4,0.2s0.1-0.5-0.3-0.6c-0.4,0-0.2,0.6-0.2,0.6S46,63,45.7,63.3c-0.2,0.2,0,0.6,0,0.6
		s-0.3-0.2-0.4,0c-0.1,0.2,0.2,0.5,0.2,0.5s-0.2-0.1-0.3,0c-0.1,0.2,0.2,0.4,0.2,0.4s-0.3-0.1-0.4,0.1c-0.1,0.2,0.3,0.3,0.4,0.2
		c0,0-0.3,0.2-0.3,0.4c0,0.2,0.4,0,0.4,0s-0.1,0.2,0,0.4c0.1,0.2,0.3-0.2,0.3-0.2s0,0.4,0.2,0.4c0.2,0,0.2-0.3,0.2-0.3
		s0.1,0.3,0.3,0.3c0.1,0,0.1-0.3,0.1-0.3s0.3,0.2,0.4,0c0.1-0.1-0.1-0.3-0.1-0.3s0.3,0,0.3-0.2c0-0.2-0.3-0.2-0.3-0.2s0.3,0,0.2-0.2
		c0-0.2-0.4,0-0.4,0s0.1,0,0.1-0.2C47,64.8,46.8,64.8,46.8,64.8"/>
	<path class="st10" d="M49.3,57.9c0,0-0.9-1.3-0.6-3.4c0.3-2.2,1.2-2.6,1.1-4.1c0,0,0.8,0.6,0.6,1.8c-0.2,1.2,0.6,3.6,0.8,4.5
		C51.6,58.2,50.3,60,49.3,57.9"/>
	<path class="st13" d="M52.6,62.7c0,0,4-1.8,5.6-7.9C60,48.5,48,64.3,52.6,62.7"/>
	<path class="st14" d="M59.9,54.3c0,0,0.4,0.1,0.4,0.3c0,0.3-0.3,0.2-0.3,0.2s0.4,0.1,0.4,0.4c0,0.2-0.3,0.1-0.3,0.1
		s0.5,0.4,0.2,0.7c-0.2,0.2-0.4-0.2-0.4-0.2s0.1,0.6-0.3,0.6c-0.4,0-0.2-0.6-0.2-0.6s-0.3,0.4-0.5,0.2c-0.2-0.2,0-0.6,0-0.6
		s-0.3,0.2-0.4,0c-0.1-0.2,0.1-0.5,0.1-0.5s-0.3,0.1-0.3,0c-0.1-0.2,0.2-0.4,0.2-0.4s-0.3,0.1-0.4-0.1c-0.1-0.2,0.3-0.3,0.4-0.3
		c0,0-0.4-0.2-0.3-0.5c0-0.2,0.4,0,0.4,0s-0.1-0.3,0-0.4c0.2-0.2,0.3,0.2,0.3,0.2s-0.1-0.4,0.2-0.5c0.2,0,0.2,0.3,0.2,0.3
		s0.1-0.4,0.3-0.3c0.1,0,0.1,0.3,0.1,0.3s0.3-0.2,0.4-0.1c0.1,0.1-0.1,0.3-0.1,0.3s0.3,0,0.3,0.2c0,0.2-0.3,0.2-0.3,0.2
		s0.3,0,0.3,0.2c0,0.2-0.4,0.1-0.4,0.1s0.1,0,0.1,0.2S59.9,54.3,59.9,54.3"/>
	<path class="st10" d="M53.3,62.4c0,0-0.6-0.8,0.9-2.6c2.2-2.5,0.6-3.7,1.2-5.2c0,0-1.6,0.9-1.8,2.2c-0.2,1.3-1.4,2.8-1.9,3.6
		C50.8,61.9,51.5,64.1,53.3,62.4"/>
</g>
<g id="Layer_6" class="st0">
	<path class="st1" d="M76.4,83c0,0,1,16.9-23.7,17c-26.1,0.1-28.9-10.8-29.1-13.8C22.7,71.5,34.3,58.9,49.5,58
		C64.7,57,75.5,68.3,76.4,83"/>
</g>
<g id="Layer_7" class="st0">
	<path class="st8" d="M50.9,36.2c0,0-5-8.9-8.9-5.1c-4.7,4.5-5.6,12.1-5.6,12.1s4-9.4,7.7-8.8C46.4,34.8,46.9,36.1,50.9,36.2"/>
	<path class="st9" d="M49.5,52.4c0,0,2.8-10.2,7.7-7.3c5.8,3.4,8.6,10.8,8.6,10.8s-6.4-8.5-9.9-6.9C53.7,49.9,53.5,51.3,49.5,52.4"
		/>
	<path class="st9" d="M50.1,12c1.5,3.4,2,58.1,1,78.5c-0.1,1.2-2.5,0.1-2.5,0.1s0.1-2.3,0.4-10.4C49.9,53.7,50.1,12,50.1,12"/>
	<path class="st7" d="M50.7,28c0,0,4-0.8,6.5-2.9c2.5-2.2,6.4-2.1,6.4-2.1s-2.9-2.4-6-0.8C54.4,23.8,51.6,23.4,50.7,28"/>
	<path class="st10" d="M50.3,25.2c0,0-5.5-1-7.2-4.2c-1.8-3.2-4.3-3.4-4.3-3.4s3.5-1.8,6.2,1.1C47.1,20.9,51.1,23.2,50.3,25.2"/>
	<path class="st10" d="M51,60.8c0,0-2.4-7.6-9.7-3c-7.3,4.5-5.8,15.3-5.8,15.3s2.7-2.7,4.5-7.7C41.9,60.4,46.9,63.6,51,60.8"/>
	<path class="st15" d="M50.3,13.4c0,0-1.4-5.4-0.5-7.3C50.8,4.3,49.9,11.2,50.3,13.4"/>
	<path class="st15" d="M49.9,11.6c0,0-0.9-3.9-4.3-4.3c-3.4-0.4,2.6,0.8,4.5,5.1c0,0,0.9-2.8,4.8-4c2.6-0.8-2.3-1.8-4.7,3.3"/>
	<path class="st15" d="M50.2,12c0,0-3.3-3.4-6.6-2.2C40.2,11,46.6,9.3,50.2,12"/>
	<path class="st15" d="M50.1,11.9c0,0,3.3-3.4,6.6-2.2C60.2,10.8,53.7,9.2,50.1,11.9"/>
	<path class="st8" d="M50.1,56.3c0,0,5.1-4.6,9.2,0.6c4.1,5.2,3.2,3.7,5.4,5.4c3.1,2.5,1.3,6.3,1.3,6.3s-1.8-3.4-5.7-5.1
		C57.5,62.3,51.6,60.2,50.1,56.3"/>
	<path class="st9" d="M51,43.7c0,0-3-5.6-8.4-2.4c-5.3,3.2-3.5,11.3-6.3,12c0,0,3.3,1.1,4.9-4C42.7,44.2,49.3,48.2,51,43.7"/>
	<path class="st16" d="M50.3,31.5c0,0,3.5-4.3,8.3,0c4.8,4.3,4.3,10.7,4.3,10.7s-2.1-5-6.3-6.9C54.5,34.3,52,35.1,50.3,31.5"/>
	<path class="st9" d="M50.4,70.6c0,0,8.3-2.8,9.4,3.2c1.1,6.1,2.7,11.2,7.6,12.5c0,0-3.2-4.1-2.3-8.2c0.9-4.1,0.6-12.9-7.6-11.9
		C49.3,67.3,50.4,70.6,50.4,70.6"/>
	<path class="st8" d="M50.7,67.9c0,0-3.6-4.6-8.1,0.1c-4.5,4.7-1.8,13-11.9,15.1c0,0,7.5,2.7,10.9-2.8
		C45.1,74.6,47.9,68.3,50.7,67.9"/>
	<path class="st15" d="M47.4,37.7c0.1-0.2,0-0.5-0.2-0.7c-0.2-0.2-0.4-0.3-0.6-0.3c0-0.2-0.1-0.4-0.2-0.6c-0.2-0.2-0.4-0.3-0.6-0.3
		c0-0.2-0.1-0.4-0.2-0.6c-0.1-0.2-0.3-0.3-0.5-0.3c0-0.2-0.1-0.3-0.2-0.5c-0.2-0.2-0.5-0.3-0.7-0.2c0-0.2-0.1-0.4-0.3-0.6
		c-0.2-0.2-0.5-0.3-0.7-0.2c0-0.2-0.1-0.3-0.3-0.4c-0.2-0.2-0.5-0.2-0.6-0.1c-0.1-0.1-0.1-0.2-0.2-0.3c-0.3-0.2-0.6-0.2-0.7,0
		c0,0,0,0,0,0c-0.1,0-0.1-0.1-0.2-0.1c-0.3-0.1-0.5-0.1-0.6,0.1c-0.2,0-0.3,0-0.4,0.1c-0.1,0.1-0.1,0.2-0.1,0.4c0,0,0,0,0,0
		c-0.3,0-0.4,0.3-0.3,0.6c0,0.1,0.1,0.1,0.1,0.2c-0.2,0.1-0.2,0.4,0,0.7c0.1,0.1,0.2,0.2,0.2,0.3c-0.1,0.1-0.2,0.4,0,0.6
		c0.1,0.2,0.2,0.3,0.4,0.4c-0.1,0.2-0.1,0.5,0.1,0.7c0.1,0.2,0.3,0.3,0.5,0.3c-0.1,0.2-0.1,0.5,0.1,0.7c0.1,0.2,0.3,0.3,0.4,0.3
		c0,0.2,0.1,0.4,0.2,0.5c0.2,0.2,0.3,0.3,0.5,0.3c0,0.2,0,0.4,0.2,0.6c0.2,0.2,0.3,0.3,0.5,0.3c0,0.2,0,0.4,0.2,0.6
		c0.2,0.2,0.5,0.3,0.7,0.3c-0.1,0.2,0,0.5,0.2,0.7c0.2,0.2,0.5,0.3,0.8,0.2c0,0.2,0.1,0.4,0.3,0.6c0.2,0.2,0.5,0.3,0.7,0.2
		c0,0.2,0.2,0.4,0.4,0.6c0.3,0.2,0.5,0.2,0.7,0c0.1,0.1,0.3,0.2,0.5,0.3c0.3,0.1,0.6-0.1,0.6-0.3c0.2,0,0.5,0,0.6-0.2
		c0.2-0.2,0.3-0.4,0.3-0.7c0.3,0,0.5-0.2,0.5-0.6c0-0.2-0.1-0.4-0.2-0.5c0.2-0.1,0.2-0.4,0.1-0.7c-0.1-0.2-0.3-0.4-0.5-0.5
		c0.1-0.2,0.1-0.5-0.1-0.8c-0.2-0.2-0.4-0.4-0.6-0.4c0.1-0.2,0.1-0.5-0.1-0.8C47.9,37.7,47.6,37.6,47.4,37.7 M48.4,40
		C48.4,40.1,48.4,40.1,48.4,40C48.4,40.1,48.4,40,48.4,40C48.4,40,48.4,40,48.4,40"/>
	<path class="st17" d="M41.2,33.2C41.2,33.2,41.1,33.2,41.2,33.2C41.1,33.3,41.2,33.2,41.2,33.2C41.2,33.2,41.2,33.2,41.2,33.2
		C41.2,33.2,41.2,33.2,41.2,33.2"/>
	<path class="st17" d="M48.3,41.9c0,0.2-0.3,0.3-0.6,0.3c-0.2,0-0.3-0.1-0.4-0.2c-0.1,0.1-0.4,0.1-0.6,0c-0.2-0.1-0.3-0.3-0.4-0.5
		c-0.2,0.1-0.5,0-0.7-0.2c-0.2-0.2-0.3-0.4-0.2-0.6c-0.2,0.1-0.5,0-0.7-0.2c-0.2-0.2-0.3-0.5-0.2-0.7c-0.2,0.1-0.4,0-0.6-0.2
		c-0.2-0.2-0.2-0.4-0.2-0.5c-0.2,0-0.3-0.1-0.5-0.3c-0.2-0.2-0.2-0.4-0.2-0.6c-0.2,0-0.3-0.1-0.5-0.3c-0.1-0.1-0.2-0.3-0.2-0.5
		c-0.1,0-0.3-0.1-0.4-0.3c-0.2-0.2-0.2-0.5-0.1-0.6c-0.2,0-0.3-0.1-0.5-0.3c-0.2-0.2-0.2-0.5-0.1-0.6c-0.1-0.1-0.3-0.2-0.3-0.3
		c-0.1-0.2-0.1-0.5,0-0.6c-0.1-0.1-0.2-0.1-0.2-0.2c-0.1-0.2-0.1-0.5,0-0.6c0-0.1-0.1-0.1-0.1-0.2c-0.1-0.2,0-0.4,0.2-0.5
		c-0.1,0-0.2,0-0.3,0.1c-0.1,0.1-0.1,0.2-0.1,0.4c0,0,0,0,0,0c-0.2,0-0.3,0.3-0.3,0.5c0,0.1,0,0.1,0.1,0.2c-0.1,0.1-0.2,0.4,0,0.6
		c0.1,0.1,0.1,0.2,0.2,0.2c-0.1,0.1-0.1,0.4,0,0.6c0.1,0.2,0.2,0.3,0.3,0.3c-0.1,0.1-0.1,0.4,0.1,0.6c0.1,0.2,0.3,0.3,0.5,0.3
		c-0.1,0.2-0.1,0.4,0.1,0.6c0.1,0.1,0.3,0.2,0.4,0.3c0,0.1,0.1,0.3,0.2,0.5c0.1,0.2,0.3,0.2,0.5,0.3c0,0.2,0,0.4,0.2,0.6
		c0.1,0.2,0.3,0.2,0.5,0.3c0,0.2,0,0.4,0.2,0.5c0.2,0.2,0.4,0.3,0.6,0.2c-0.1,0.2,0,0.4,0.2,0.7c0.2,0.2,0.5,0.3,0.7,0.2
		c0,0.2,0.1,0.4,0.2,0.6c0.2,0.2,0.5,0.3,0.7,0.2c0,0.2,0.2,0.4,0.4,0.5c0.2,0.1,0.5,0.1,0.6,0c0.1,0.1,0.3,0.2,0.4,0.2
		c0.3,0,0.5-0.1,0.6-0.3c0.2,0,0.4,0,0.6-0.2c0.1-0.1,0.2-0.2,0.2-0.3C48.5,41.9,48.4,41.9,48.3,41.9"/>
	<path class="st12" d="M49.4,41.9c0,0-1.6-2.2-4.3-1.6c-2.6,0.6-4-0.9-4-0.9s0.6,3,2.6,2.9C45.5,42.3,48.2,45.2,49.4,41.9"/>
	<path class="st9" d="M48.8,42.8c0,0-2.7-2.1-2.4-5.1c0.3-3-0.7-4.3-0.7-4.3s1.3,0.4,1.9,2.2C48.1,37.3,51.9,41.5,48.8,42.8"/>
	<path class="st15" d="M56.7,53c0.2,0,0.4-0.2,0.5-0.4c0.1-0.2,0.1-0.4,0-0.6c0.1-0.1,0.3-0.2,0.4-0.4c0.1-0.2,0.1-0.4,0-0.6
		c0.1-0.1,0.3-0.2,0.4-0.4c0.1-0.2,0.1-0.4,0.1-0.5c0.1-0.1,0.3-0.2,0.3-0.4c0.1-0.3,0.1-0.5,0-0.6c0.2-0.1,0.3-0.2,0.4-0.4
		c0.1-0.3,0.1-0.5-0.1-0.6c0.1-0.1,0.2-0.2,0.3-0.4c0.1-0.3,0-0.5-0.2-0.6c0.1-0.1,0.1-0.2,0.2-0.3c0.1-0.3,0-0.6-0.2-0.6
		c0,0,0,0,0,0c0-0.1,0-0.1,0-0.2c0-0.3-0.1-0.5-0.3-0.5c0-0.1-0.1-0.3-0.2-0.3c-0.1-0.1-0.2,0-0.4,0.1c0,0,0,0,0,0
		c-0.1-0.2-0.4-0.2-0.6,0c-0.1,0-0.1,0.1-0.1,0.1c-0.2-0.1-0.4,0-0.6,0.2c-0.1,0.1-0.1,0.2-0.2,0.3c-0.2-0.1-0.4,0-0.5,0.2
		c-0.1,0.1-0.2,0.3-0.2,0.4c-0.2,0-0.4,0.1-0.6,0.3c-0.1,0.2-0.2,0.4-0.1,0.6c-0.2,0-0.4,0.1-0.5,0.4c-0.1,0.2-0.1,0.3-0.1,0.5
		c-0.1,0.1-0.3,0.2-0.4,0.4C54,49,54,49.2,54,49.3c-0.2,0-0.3,0.2-0.5,0.4c-0.1,0.2-0.1,0.4-0.1,0.5c-0.2,0-0.3,0.2-0.5,0.4
		c-0.1,0.2-0.1,0.5,0,0.6c-0.2,0-0.4,0.2-0.5,0.5c-0.1,0.3-0.1,0.6,0.1,0.7c-0.2,0.1-0.4,0.2-0.4,0.5c-0.1,0.3-0.1,0.6,0.1,0.7
		c-0.2,0.1-0.3,0.3-0.3,0.6c0,0.3,0,0.5,0.2,0.6C52,54.9,51.9,55,52,55.2c0.1,0.3,0.3,0.4,0.5,0.4c0,0.2,0.2,0.4,0.4,0.4
		c0.2,0.1,0.5,0.1,0.7,0c0.1,0.3,0.3,0.3,0.6,0.2c0.2-0.1,0.3-0.2,0.4-0.3c0.2,0.1,0.4,0,0.6-0.2c0.2-0.2,0.3-0.4,0.2-0.6
		c0.2,0,0.5-0.1,0.6-0.4c0.1-0.2,0.2-0.5,0.1-0.6c0.2,0,0.5-0.1,0.6-0.4C56.8,53.4,56.8,53.1,56.7,53 M55.1,54.7
		C55.1,54.7,55.1,54.7,55.1,54.7C55.1,54.7,55.1,54.7,55.1,54.7C55.1,54.7,55.1,54.7,55.1,54.7"/>
	<path class="st17" d="M58.4,46.2C58.4,46.2,58.4,46.2,58.4,46.2C58.4,46.2,58.4,46.2,58.4,46.2C58.4,46.2,58.4,46.2,58.4,46.2
		C58.4,46.2,58.4,46.2,58.4,46.2"/>
	<path class="st17" d="M53.5,55.3c-0.2,0-0.4-0.1-0.4-0.3c0-0.1,0-0.3,0.1-0.4c-0.1-0.1-0.2-0.3-0.2-0.5c0-0.2,0.2-0.4,0.3-0.5
		c-0.1-0.1-0.2-0.4-0.1-0.6c0.1-0.2,0.2-0.4,0.4-0.4c-0.1-0.1-0.2-0.4,0-0.6c0.1-0.2,0.3-0.4,0.5-0.4c-0.1-0.1-0.1-0.3,0-0.6
		c0.1-0.2,0.3-0.3,0.4-0.3c0-0.1,0-0.3,0.1-0.5c0.1-0.2,0.3-0.3,0.4-0.3c0-0.1,0-0.3,0.1-0.5c0.1-0.2,0.2-0.3,0.3-0.3
		c0-0.1,0-0.3,0.1-0.4c0.1-0.2,0.3-0.3,0.5-0.3c0-0.1,0-0.3,0.1-0.5c0.1-0.2,0.3-0.3,0.5-0.3c0-0.1,0.1-0.3,0.2-0.4
		c0.1-0.2,0.3-0.3,0.5-0.2c0-0.1,0.1-0.2,0.1-0.3c0.2-0.2,0.4-0.3,0.5-0.2c0,0,0.1-0.1,0.1-0.1c0.2-0.1,0.4-0.2,0.5-0.1
		c0-0.1-0.1-0.2-0.2-0.2c-0.1,0-0.2,0-0.3,0.1c0,0,0,0,0,0c-0.1-0.2-0.3-0.2-0.5,0c0,0-0.1,0.1-0.1,0.1c-0.1-0.1-0.4,0-0.5,0.2
		c-0.1,0.1-0.1,0.2-0.1,0.3c-0.1-0.1-0.3,0-0.5,0.2c-0.1,0.1-0.2,0.3-0.2,0.4c-0.2,0-0.4,0.1-0.5,0.3c-0.1,0.2-0.1,0.4-0.1,0.5
		c-0.2,0-0.4,0.1-0.5,0.3c-0.1,0.1-0.1,0.3-0.1,0.4c-0.1,0.1-0.3,0.2-0.3,0.3c-0.1,0.2-0.1,0.3-0.1,0.5c-0.1,0-0.3,0.2-0.4,0.3
		c-0.1,0.2-0.1,0.3-0.1,0.5c-0.1,0-0.3,0.2-0.4,0.3c-0.1,0.2-0.1,0.4,0,0.6c-0.2,0-0.4,0.2-0.5,0.4c-0.1,0.3-0.1,0.5,0,0.6
		c-0.2,0.1-0.3,0.2-0.4,0.4c-0.1,0.3-0.1,0.5,0.1,0.6c-0.1,0.1-0.3,0.3-0.3,0.5c0,0.2,0,0.4,0.2,0.5c-0.1,0.1-0.1,0.3-0.1,0.4
		c0.1,0.2,0.2,0.4,0.4,0.3c0,0.2,0.2,0.3,0.3,0.4c0.1,0,0.2,0.1,0.3,0.1C53.5,55.5,53.5,55.4,53.5,55.3"/>
	<path class="st18" d="M53.2,56.5c0,0-0.6-2.1,1.3-6.3c1-2.1-0.8-2.5-0.8-2.5s0.5,1.1-0.9,2.3C51.5,51.2,48.3,55.5,53.2,56.5"/>
	<path class="st10" d="M52,56.1c0,0,3.7-2.9,4.8-4.8c1-1.9,2.4-4.1,3.1-3.9c0,0-1,1.1-1.3,2.9C58.1,53.5,55.4,59.3,52,56.1"/>
	<path class="st15" d="M53.6,27.2c0.2,0,0.4-0.3,0.4-0.5c0.1-0.2,0-0.5-0.1-0.6c0.1-0.1,0.3-0.3,0.3-0.5c0.1-0.2,0-0.5-0.1-0.6
		c0.1-0.1,0.3-0.3,0.3-0.5c0.1-0.2,0-0.4,0-0.5c0.1-0.1,0.2-0.3,0.2-0.5c0.1-0.3,0-0.5-0.2-0.6c0.1-0.1,0.3-0.3,0.3-0.5
		c0-0.3-0.1-0.5-0.2-0.6c0.1-0.1,0.2-0.3,0.2-0.5c0-0.3-0.1-0.5-0.3-0.5c0.1-0.1,0.1-0.2,0.1-0.4c0-0.3-0.2-0.6-0.4-0.5c0,0,0,0,0,0
		c0-0.1,0-0.1,0-0.2c-0.1-0.3-0.2-0.4-0.4-0.4c0-0.1-0.1-0.3-0.3-0.3c-0.1,0-0.3,0-0.4,0.2c0,0,0,0,0,0c-0.2-0.2-0.4-0.1-0.6,0.1
		c0,0.1-0.1,0.1-0.1,0.2c-0.2-0.1-0.4,0.1-0.5,0.4c-0.1,0.1-0.1,0.2-0.1,0.4c-0.2,0-0.4,0.1-0.5,0.4C51,20.6,51,20.8,51.1,21
		c-0.2,0-0.4,0.2-0.5,0.5c-0.1,0.2-0.1,0.5,0,0.6c-0.2,0-0.4,0.2-0.5,0.5c-0.1,0.2-0.1,0.4,0,0.5c-0.1,0.1-0.2,0.3-0.3,0.5
		c-0.1,0.2,0,0.4,0.1,0.6c-0.2,0.1-0.3,0.3-0.4,0.5c-0.1,0.2,0,0.4,0.1,0.6c-0.2,0.1-0.3,0.3-0.4,0.5c-0.1,0.3,0,0.5,0.1,0.7
		c-0.2,0.1-0.4,0.3-0.4,0.6c-0.1,0.3,0,0.6,0.2,0.7c-0.2,0.1-0.3,0.3-0.3,0.6c-0.1,0.3,0.1,0.6,0.2,0.7c-0.1,0.2-0.2,0.4-0.2,0.7
		c0,0.3,0.2,0.5,0.3,0.6c0,0.2,0,0.4,0.1,0.5c0.1,0.3,0.4,0.4,0.6,0.3c0.1,0.2,0.3,0.3,0.5,0.4c0.2,0.1,0.5,0,0.7-0.2
		c0.1,0.2,0.4,0.3,0.7,0.1c0.1-0.1,0.2-0.3,0.3-0.4c0.2,0,0.4-0.1,0.6-0.4c0.1-0.2,0.2-0.5,0.1-0.7c0.2,0,0.4-0.2,0.5-0.5
		c0.1-0.3,0.1-0.5,0-0.7c0.2,0,0.4-0.2,0.5-0.6C53.8,27.6,53.7,27.3,53.6,27.2 M52.3,29.4C52.3,29.4,52.3,29.4,52.3,29.4
		C52.3,29.4,52.3,29.4,52.3,29.4C52.3,29.4,52.3,29.4,52.3,29.4"/>
	<path class="st17" d="M53.6,19.8C53.6,19.8,53.6,19.8,53.6,19.8C53.6,19.8,53.6,19.8,53.6,19.8C53.6,19.9,53.6,19.9,53.6,19.8
		C53.6,19.9,53.6,19.8,53.6,19.8"/>
	<path class="st17" d="M50.8,30.4c-0.2,0.1-0.4,0-0.5-0.2c-0.1-0.1-0.1-0.3-0.1-0.5c-0.2,0-0.3-0.2-0.3-0.5c0-0.2,0.1-0.4,0.2-0.6
		c-0.2-0.1-0.3-0.3-0.2-0.6c0-0.2,0.2-0.4,0.3-0.5c-0.2-0.1-0.3-0.3-0.2-0.6c0.1-0.3,0.2-0.5,0.4-0.5c-0.1-0.1-0.2-0.3-0.1-0.6
		c0.1-0.2,0.2-0.4,0.3-0.5c-0.1-0.1-0.1-0.3-0.1-0.5c0.1-0.2,0.2-0.4,0.3-0.5c-0.1-0.1-0.1-0.3-0.1-0.5c0-0.2,0.1-0.3,0.3-0.4
		c0-0.1-0.1-0.3,0-0.5c0.1-0.2,0.3-0.4,0.4-0.4c-0.1-0.1-0.1-0.3,0-0.5c0.1-0.3,0.3-0.4,0.4-0.4c0-0.1,0-0.3,0.1-0.4
		c0.1-0.2,0.3-0.4,0.5-0.3c0-0.1,0-0.2,0.1-0.3c0.1-0.2,0.3-0.4,0.5-0.3c0-0.1,0.1-0.1,0.1-0.2c0.1-0.2,0.4-0.3,0.5-0.2
		c0-0.1-0.1-0.2-0.2-0.2c-0.1,0-0.2,0-0.3,0.1c0,0,0,0,0,0c-0.1-0.2-0.4-0.1-0.6,0.1c0,0.1-0.1,0.1-0.1,0.2c-0.2,0-0.4,0.1-0.5,0.3
		c0,0.1-0.1,0.2-0.1,0.3c-0.2,0-0.3,0.1-0.5,0.3c-0.1,0.2-0.1,0.3-0.1,0.4c-0.2,0-0.4,0.2-0.4,0.4c-0.1,0.2-0.1,0.4,0,0.5
		c-0.2,0-0.3,0.2-0.4,0.4c-0.1,0.2,0,0.3,0,0.5c-0.1,0.1-0.2,0.2-0.3,0.4c0,0.2,0,0.4,0.1,0.5c-0.1,0.1-0.3,0.2-0.3,0.5
		c0,0.2,0,0.4,0.1,0.5c-0.1,0.1-0.3,0.2-0.3,0.5c-0.1,0.3,0,0.5,0.1,0.6c-0.2,0.1-0.3,0.3-0.4,0.5c-0.1,0.3,0,0.5,0.2,0.6
		c-0.1,0.1-0.3,0.3-0.3,0.5c0,0.3,0,0.5,0.2,0.6c-0.1,0.1-0.2,0.4-0.2,0.6c0,0.3,0.1,0.4,0.3,0.5c0,0.1,0,0.3,0.1,0.5
		c0.1,0.2,0.3,0.3,0.5,0.2c0.1,0.2,0.2,0.3,0.4,0.3c0.1,0,0.2,0,0.3,0C50.8,30.6,50.8,30.5,50.8,30.4"/>
	<path class="st18" d="M49.3,22.3c0,0,1.5,1.1,1,4c-0.5,2.9-0.3,4.9,1.3,4.8c0,0-2.6,1.4-3.7-1.6C46.7,26.5,49.3,22.3,49.3,22.3"/>
	<path class="st8" d="M47.4,58.4c0,0-3-9-0.3-10.8c0,0,0.8,1.3,1,4C48.3,52.9,51.7,59.9,47.4,58.4"/>
	<path class="st15" d="M47.9,53.3c0.1-0.2,0.1-0.5,0-0.8c-0.1-0.2-0.3-0.4-0.5-0.4c0-0.2,0-0.4-0.1-0.6c-0.1-0.2-0.3-0.4-0.5-0.4
		c0-0.2,0-0.4-0.1-0.6c-0.1-0.2-0.3-0.3-0.4-0.4c0-0.2,0-0.4-0.2-0.6c-0.2-0.3-0.4-0.4-0.6-0.4c0-0.2,0-0.4-0.2-0.7
		c-0.2-0.3-0.4-0.4-0.6-0.3c0-0.2-0.1-0.4-0.2-0.5c-0.2-0.2-0.4-0.3-0.6-0.2c0-0.1-0.1-0.2-0.2-0.3c-0.2-0.3-0.5-0.3-0.7-0.1
		c0,0,0,0,0,0c0-0.1-0.1-0.1-0.2-0.2c-0.2-0.2-0.5-0.2-0.6,0c-0.1-0.1-0.3-0.1-0.4,0c-0.1,0.1-0.2,0.2-0.2,0.4c0,0,0,0,0,0
		c-0.3,0-0.4,0.2-0.4,0.6c0,0.1,0,0.2,0.1,0.2c-0.2,0.1-0.3,0.4-0.2,0.7c0,0.1,0.1,0.3,0.2,0.3c-0.2,0.1-0.2,0.4-0.1,0.7
		c0.1,0.2,0.2,0.4,0.3,0.4c-0.2,0.1-0.2,0.5-0.1,0.7c0.1,0.2,0.3,0.4,0.5,0.5c-0.1,0.2-0.1,0.5,0,0.7c0.1,0.2,0.2,0.3,0.4,0.4
		c0,0.2,0,0.4,0.1,0.6c0.1,0.2,0.3,0.4,0.5,0.4c-0.1,0.2-0.1,0.4,0.1,0.7c0.1,0.2,0.3,0.4,0.5,0.4c-0.1,0.2,0,0.4,0.1,0.7
		c0.2,0.3,0.4,0.4,0.6,0.4c-0.1,0.2-0.1,0.5,0.1,0.8c0.2,0.3,0.5,0.5,0.7,0.4c-0.1,0.2,0,0.5,0.2,0.7c0.2,0.3,0.5,0.4,0.7,0.4
		c0,0.2,0.1,0.5,0.3,0.7c0.2,0.2,0.5,0.3,0.7,0.2c0.1,0.2,0.2,0.3,0.4,0.4c0.3,0.1,0.6,0,0.7-0.2c0.2,0.1,0.4,0.1,0.7-0.1
		c0.2-0.1,0.4-0.4,0.4-0.6c0.3,0.1,0.6-0.1,0.6-0.5c0-0.2,0-0.4-0.1-0.6c0.2-0.1,0.3-0.4,0.2-0.7c-0.1-0.3-0.2-0.5-0.4-0.6
		c0.2-0.2,0.2-0.5,0-0.8c-0.1-0.3-0.3-0.4-0.5-0.5c0.2-0.2,0.2-0.5,0-0.8C48.3,53.5,48.1,53.3,47.9,53.3 M48.5,56
		C48.5,56,48.5,56,48.5,56C48.4,56,48.4,56,48.5,56C48.5,56,48.5,56,48.5,56"/>
	<path class="st17" d="M42.5,47.4C42.5,47.4,42.5,47.4,42.5,47.4C42.5,47.4,42.5,47.4,42.5,47.4C42.5,47.4,42.5,47.4,42.5,47.4
		C42.5,47.4,42.5,47.4,42.5,47.4"/>
	<path class="st17" d="M48,57.9c-0.1,0.2-0.3,0.3-0.6,0.2c-0.2-0.1-0.3-0.2-0.4-0.3c-0.2,0.1-0.4,0-0.6-0.2
		c-0.2-0.2-0.3-0.4-0.3-0.6c-0.2,0.1-0.4-0.1-0.6-0.3c-0.1-0.2-0.2-0.5-0.1-0.6c-0.2,0.1-0.5-0.1-0.6-0.4c-0.2-0.3-0.2-0.5-0.1-0.7
		c-0.2,0-0.4-0.1-0.5-0.4C44,54.4,44,54.2,44.1,54c-0.1,0-0.3-0.2-0.4-0.4c-0.1-0.2-0.1-0.5-0.1-0.6c-0.1,0-0.3-0.2-0.4-0.4
		c-0.1-0.2-0.1-0.4-0.1-0.5c-0.1-0.1-0.3-0.2-0.3-0.4c-0.1-0.3-0.1-0.5,0-0.7c-0.2-0.1-0.3-0.2-0.4-0.4c-0.1-0.3-0.1-0.5,0-0.7
		c-0.1-0.1-0.2-0.2-0.3-0.4c-0.1-0.3,0-0.5,0.1-0.6c-0.1-0.1-0.1-0.2-0.2-0.3c-0.1-0.3,0-0.5,0.1-0.6c0-0.1,0-0.1,0-0.2
		c0-0.3,0.1-0.5,0.3-0.5c-0.1-0.1-0.2-0.1-0.3,0c-0.1,0.1-0.2,0.2-0.2,0.4c0,0,0,0,0,0c-0.2,0-0.4,0.2-0.4,0.5c0,0.1,0,0.1,0,0.2
		c-0.2,0.1-0.2,0.3-0.1,0.6c0,0.1,0.1,0.2,0.2,0.3c-0.1,0.1-0.2,0.3-0.1,0.6c0.1,0.2,0.2,0.3,0.3,0.4c-0.1,0.1-0.2,0.4,0,0.7
		c0.1,0.2,0.3,0.4,0.4,0.4c-0.1,0.1-0.1,0.4,0,0.7c0.1,0.2,0.2,0.3,0.3,0.4c0,0.2,0,0.3,0.1,0.5c0.1,0.2,0.3,0.3,0.4,0.4
		c-0.1,0.2,0,0.4,0.1,0.6c0.1,0.2,0.3,0.3,0.4,0.4c-0.1,0.2,0,0.4,0.1,0.6c0.1,0.2,0.4,0.4,0.5,0.4C44,55.5,44,55.8,44.2,56
		c0.2,0.3,0.4,0.4,0.6,0.4c0,0.2,0,0.4,0.1,0.6c0.2,0.3,0.4,0.4,0.6,0.3c0,0.2,0.1,0.4,0.3,0.6c0.2,0.2,0.4,0.3,0.6,0.2
		c0.1,0.1,0.2,0.3,0.4,0.3c0.3,0.1,0.5,0,0.6-0.2c0.2,0.1,0.4,0.1,0.6-0.1c0.1-0.1,0.2-0.2,0.3-0.3C48.2,57.9,48.1,57.9,48,57.9"/>
	<path class="st18" d="M41.1,52.3c0,0,2-0.2,3.8,2.5c1.7,2.7,3.1,4.1,4.4,2.8c0,0,0.5,2.5-4,1.5C41.8,58.3,41.1,52.3,41.1,52.3"/>
</g>
</svg>
