<?xml version="1.0" encoding="utf-8"?>
<!-- Generator: Adobe Illustrator 22.0.1, SVG Export Plug-In . SVG Version: 6.00 Build 0)  -->
<svg version="1.1" xmlns="http://www.w3.org/2000/svg" xmlns:xlink="http://www.w3.org/1999/xlink" x="0px" y="0px"
	 viewBox="0 0 100 100" style="enable-background:new 0 0 100 100;" xml:space="preserve">
<style type="text/css">
	.st0{display:none;}
	.st1{display:inline;fill:#FFF8DD;}
	.st2{display:inline;}
	.st3{fill:#BCD38C;}
	.st4{fill:#2F593D;}
	.st5{fill:#488A71;}
	.st6{fill:#557E41;}
	.st7{fill:#B5BE6E;}
	.st8{display:inline;fill:#BCD38C;}
	.st9{display:inline;fill:#2F593D;}
	.st10{display:inline;fill:#557E41;}
	.st11{display:inline;fill:#77A275;}
	.st12{display:inline;fill:#DDDA91;}
	.st13{display:inline;fill:#5F887F;}
	.st14{display:inline;fill:#B5BE6E;}
	.st15{display:inline;fill:#BA6832;}
	.st16{fill:#FFF8DD;}
	.st17{display:inline;fill:#F8DA4B;}
	.st18{display:inline;fill:#98C39D;}
	.st19{display:inline;fill:#F4B845;}
	.st20{display:inline;fill:#488A71;}
</style>
<g id="Layer_3" class="st0">
	<path class="st1" d="M76.5,82.9c0,0,1,16.9-23.8,17.1c-26.1,0.1-29-10.9-29.1-13.8c-0.9-14.7,10.7-27.4,25.9-28.3
		C64.7,56.9,75.6,68.2,76.5,82.9"/>
</g>
<g id="Layer_2" class="st0">
	<g class="st2">
		<path class="st3" d="M49.6,68.2c0,0-0.1-3.1,2.2-4c0,0-2,1.7-1.9,6.3L49.6,68.2z"/>
		<path class="st4" d="M49.2,82.2c0,0,6.2-1.1,8.2-4.8c2-3.7,4.9-3.8,4.9-3.8s-3.9-2.1-7.1,1.3C52.9,77.4,48.3,79.9,49.2,82.2"/>
		<path class="st5" d="M51.6,79.1c0,0-4.6-8.9-13.9-8.8c0,0,2.3,0.2,4.9,4.4C45.3,79,49.2,82.4,51.6,79.1"/>
		<path class="st6" d="M49,63.4c1.3,3,2.3,15.2,2.7,30.4c0,1.1-2.2,0.1-2.2,0.1s0.4-2.1,0.3-9.2C49.5,63.7,49,63.4,49,63.4"/>
		<path class="st7" d="M50,88c0,0-2.6-1.8,0.7-9c3.3-7.2,2.8-9.9,2.8-9.9s1.8,3,0.7,8.3C53.1,82.7,54.6,85.6,50,88"/>
	</g>
</g>
<g id="Layer_4" class="st0">
	<path class="st1" d="M76.5,82.9c0,0,1,16.9-23.8,17.1c-26.1,0.1-29-10.9-29.1-13.8c-0.9-14.7,10.7-27.4,25.9-28.3
		C64.7,56.9,75.6,68.2,76.5,82.9"/>
</g>
<g id="Layer_5" class="st0">
	<path class="st8" d="M55.3,58.2c0,0-3.3-0.6-5.4-2.4c-2.1-1.8-5.3-1.7-5.3-1.7s2.4-2,5-0.7C52.3,54.7,54.6,54.3,55.3,58.2"/>
	<path class="st9" d="M56.3,78.8c0,0-4.3-7.7-7.8-4.4c-4.1,3.9-4.8,10.5-4.8,10.5s3.5-8.2,6.7-7.6C52.4,77.5,52.8,78.7,56.3,78.8"/>
	<path class="st10" d="M43.6,73.7c0,0,2.1-8,6-5.8c4.6,2.6,6.8,8.4,6.8,8.4s-5-6.6-7.8-5.4C46.9,71.7,46.7,72.9,43.6,73.7"/>
	<path class="st10" d="M49.8,43c1.2,2.7,1.7,32.6,1,48.7c0,1-2,0.1-2,0.1s0.1-1.8,0.3-8.1C49.8,62.8,49.8,43,49.8,43"/>
	<path class="st9" d="M45.3,76.4c0,0,2.3-6.1,6.5-0.6c2.3,3,2.9,10.9,2.9,10.9S50.2,74.2,45.3,76.4"/>
	<path class="st11" d="M45.2,56.2c0,0,4.5-0.8,6-3.5c1.5-2.7,3.6-2.8,3.6-2.8s-2.9-1.5-5.2,0.9C47.9,52.7,44.6,54.5,45.2,56.2"/>
	<path class="st12" d="M50.4,44c0,0-0.9-1.7-0.9-3.8S50.6,43.1,50.4,44"/>
	<path class="st12" d="M52,44c0,0-0.6-2.7-3.2-2.7C46.2,41.1,50.8,41.9,52,44"/>
	<path class="st12" d="M48.1,43.5c0,0,0-0.1,0.1-0.2c0.3-0.6,1.5-2.2,3.3-1.9c2.1,0.4-2.5,0.2-3.2,2.4C48.2,43.8,48,43.6,48.1,43.5"
		/>
	<path class="st13" d="M56.4,67.8c0,0-2.4-3.3-6.4-1.3c-4,1.9-4,2.8-6.4,3.9c0,0,3.4,0,5.8-1.2C51.8,67.9,55.3,69,56.4,67.8"/>
	<path class="st8" d="M45.1,61.9c0,0,1.8-3.6,5.1-2.3c3.3,1.3,4.8,1,4.8,1s-0.6,1.3-2.5,1.3S46.4,60.7,45.1,61.9"/>
	<path class="st9" d="M48.2,68.2c0,0,2.3-2.8,4.8-1.9c0,0-1.1,0.1-1.7,1c-0.5,0.9-2.9,4.3-4,2.9S48.2,68.2,48.2,68.2"/>
	<path class="st14" d="M50.5,66.8c0,0-2.3-2.2-2-7C49,55,53.4,69.1,50.5,66.8"/>
	<path class="st13" d="M50.6,78.7c0,0-2.5-2.3-2.1-7.3C48.8,66.4,53.6,81.1,50.6,78.7"/>
	<path class="st15" d="M49.5,59.3c0,0-0.3,0-0.3,0.2c0,0.2,0.2,0.2,0.2,0.2s-0.3,0.1-0.3,0.2c0,0.2,0.2,0.1,0.2,0.1
		s-0.4,0.3-0.2,0.5c0.1,0.2,0.3-0.1,0.3-0.1s-0.1,0.4,0.2,0.5c0.3,0.1,0.2-0.4,0.2-0.4s0.2,0.3,0.4,0.2c0.1-0.1,0-0.4,0-0.4
		s0.2,0.2,0.3,0c0.1-0.1-0.1-0.4-0.1-0.4s0.2,0.1,0.3,0c0.1-0.1-0.1-0.3-0.1-0.3s0.2,0.1,0.3,0c0.1-0.1-0.2-0.3-0.3-0.2
		c0,0,0.3-0.1,0.3-0.3c0-0.2-0.3-0.1-0.3-0.1s0.1-0.2,0-0.3c-0.1-0.1-0.2,0.1-0.2,0.1s0.1-0.3-0.1-0.4c-0.2,0-0.2,0.2-0.2,0.2
		s-0.1-0.3-0.2-0.3c-0.1,0-0.1,0.2-0.1,0.2s-0.2-0.2-0.3-0.1c-0.1,0.1,0,0.2,0,0.2s-0.2,0-0.2,0.1c0,0.1,0.2,0.2,0.2,0.2
		s-0.2,0-0.2,0.1c0,0.1,0.3,0.1,0.3,0.1s-0.1,0-0.1,0.1C49.4,59.3,49.5,59.3,49.5,59.3"/>
	<path class="st15" d="M50.5,71.9c0,0,0.3-0.1,0.3-0.3c0-0.2-0.2-0.2-0.2-0.2s0.3-0.1,0.3-0.3c0-0.2-0.3-0.1-0.3-0.1
		s0.3-0.3,0.2-0.5c-0.2-0.2-0.3,0.2-0.3,0.2s0.1-0.4-0.2-0.4c-0.3,0-0.2,0.5-0.2,0.5s-0.2-0.3-0.4-0.1c-0.1,0.2,0,0.4,0,0.4
		s-0.2-0.1-0.3,0c-0.1,0.1,0.1,0.4,0.1,0.4s-0.2-0.1-0.2,0c0,0.1,0.2,0.3,0.2,0.3s-0.2-0.1-0.3,0.1c-0.1,0.1,0.2,0.2,0.3,0.2
		c0,0-0.3,0.2-0.2,0.4c0,0.2,0.3,0,0.3,0s-0.1,0.2,0,0.3c0.1,0.1,0.2-0.2,0.2-0.2s0,0.3,0.1,0.3c0.2,0,0.2-0.2,0.2-0.2
		s0.1,0.3,0.2,0.2c0.1,0,0.1-0.3,0.1-0.3s0.2,0.1,0.3,0c0.1-0.1-0.1-0.2-0.1-0.2s0.2,0,0.2-0.1c0-0.1-0.2-0.1-0.2-0.1s0.2,0,0.2-0.2
		c0-0.1-0.3,0-0.3,0s0.1,0,0.1-0.1C50.6,71.9,50.5,71.9,50.5,71.9"/>
	<path class="st11" d="M49.4,66.4c0,0-0.7-1-0.4-2.7c0.3-1.7,1-2,0.9-3.3c0,0,0.7,0.5,0.5,1.5c-0.2,1,0.5,2.9,0.6,3.6
		C51.3,66.7,50.3,68.1,49.4,66.4"/>
	<path class="st14" d="M48.1,70.3c0,0,3.2-1.4,4.5-6.3C54,59,44.4,71.5,48.1,70.3"/>
	<path class="st15" d="M50.6,63.6c0,0,0.3,0.1,0.3,0.3c0,0.2-0.3,0.2-0.3,0.2s0.3,0.1,0.3,0.3c0,0.2-0.3,0.1-0.3,0.1
		s0.4,0.3,0.2,0.5c-0.2,0.2-0.3-0.2-0.3-0.2s0.1,0.5-0.2,0.5c-0.3,0-0.2-0.5-0.2-0.5s-0.2,0.4-0.4,0.1c-0.1-0.2,0-0.5,0-0.5
		s-0.2,0.1-0.3,0c-0.1-0.1,0.1-0.4,0.1-0.4s-0.2,0.1-0.3,0c-0.1-0.1,0.2-0.4,0.2-0.4s-0.2,0.1-0.3-0.1c-0.1-0.1,0.2-0.3,0.3-0.2
		c0,0-0.3-0.2-0.3-0.4c0-0.2,0.3,0,0.3,0s-0.1-0.2,0-0.3c0.1-0.1,0.3,0.2,0.3,0.2s-0.1-0.3,0.1-0.4c0.2,0,0.2,0.2,0.2,0.2
		s0.1-0.3,0.2-0.3c0.1,0,0.1,0.3,0.1,0.3s0.2-0.2,0.3,0c0.1,0.1-0.1,0.2-0.1,0.2s0.3,0,0.2,0.1c0,0.2-0.2,0.1-0.2,0.1s0.2,0,0.2,0.2
		c0,0.2-0.3,0.1-0.3,0.1s0.1,0,0.1,0.1C50.7,63.6,50.6,63.6,50.6,63.6"/>
	<path class="st11" d="M49.9,70c0,0-0.5-0.7,0.7-2.1c1.7-2,0.4-2.9,1-4.1c0,0-1.2,0.7-1.4,1.7c-0.2,1-1.1,2.2-1.5,2.9
		C48,69.6,48.5,71.4,49.9,70"/>
</g>
<g id="Layer_6">
	<path class="st16" d="M76.5,82.9c0,0,1,16.9-23.8,17.1c-26.1,0.1-29-10.9-29.1-13.8c-0.9-14.7,10.7-27.4,25.9-28.3
		C64.7,56.9,75.6,68.2,76.5,82.9"/>
</g>
<g id="Layer_7" class="st0">
	<path class="st9" d="M57.3,36c0,0-5-8.9-9-5.1c-4.7,4.5-5.6,12.1-5.6,12.1s4-9.4,7.8-8.8C52.8,34.6,53.3,36,57.3,36"/>
	<path class="st10" d="M41.8,52.3c0,0,2.8-10.2,7.8-7.3c5.9,3.4,8.6,10.8,8.6,10.8s-6.4-8.5-10-7C46,49.7,45.8,51.2,41.8,52.3"/>
	<path class="st10" d="M50,11.8c1.5,3.4,2,58.2,1,78.7c-0.1,1.2-2.5,0.1-2.5,0.1s0.1-2.3,0.4-10.4C49.8,53.6,50,11.8,50,11.8"/>
	<path class="st8" d="M43.5,27.8c0,0,4-0.8,6.5-2.9c2.5-2.2,6.4-2.1,6.4-2.1s-2.9-2.4-6.1-0.8C47.2,23.6,44.5,23.2,43.5,27.8"/>
	<path class="st11" d="M55.8,25c0,0-5.5-1-7.3-4.2c-1.8-3.3-4.4-3.4-4.4-3.4s3.5-1.8,6.3,1.1C52.5,20.7,56.5,23,55.8,25"/>
	<path class="st11" d="M57.8,60.7c0,0-2.4-7.6-9.7-3c-7.3,4.5-5.8,15.4-5.8,15.4s2.7-2.7,4.5-7.7C48.8,60.3,53.7,63.5,57.8,60.7"/>
	<path class="st17" d="M50.4,13.2c0,0-1.4-5.4-0.5-7.3C50.9,4.1,50,11,50.4,13.2"/>
	<path class="st17" d="M49.8,11.4c0,0-0.9-3.9-4.3-4.3c-3.4-0.4,2.6,0.8,4.5,5.1c0,0,0.9-2.8,4.8-4c2.6-0.8-2.4-1.8-4.8,3.3"/>
	<path class="st17" d="M53.8,11.8c0,0-3.3-3.4-6.7-2.2C43.7,10.8,50.2,9.1,53.8,11.8"/>
	<path class="st17" d="M46.2,11.7c0,0,3.3-3.4,6.7-2.2C56.3,10.6,49.8,8.9,46.2,11.7"/>
	<path class="st9" d="M41.8,56.2c0,0,5.2-4.6,9.2,0.6c4.1,5.2,3.2,3.7,5.4,5.4c3.1,2.5,1.3,6.3,1.3,6.3s-1.8-3.4-5.7-5.2
		C49.2,62.2,43.2,60.1,41.8,56.2"/>
	<path class="st10" d="M57.4,43.6c0,0-3.1-5.6-8.4-2.4c-5.3,3.2-3.5,11.3-6.3,12.1c0,0,3.3,1.1,4.9-4S55.7,48.1,57.4,43.6"/>
	<path class="st18" d="M43.7,31.4c0,0,3.5-4.3,8.3,0c4.8,4.3,4.3,10.7,4.3,10.7s-2.1-5-6.3-7C47.8,34.1,45.4,35,43.7,31.4"/>
	<path class="st10" d="M41.5,70.6c0,0,8.3-2.8,9.4,3.2c1.1,6.1,2.7,11.2,7.7,12.5c0,0-3.2-4.1-2.3-8.2c0.9-4.1,0.6-13-7.6-11.9
		C40.4,67.2,41.5,70.6,41.5,70.6"/>
	<path class="st9" d="M60,67.9c0,0-3.6-4.6-8.1,0.1c-4.5,4.7-1.8,13-11.9,15.1c0,0,7.5,2.7,10.9-2.8C54.4,74.6,57.2,68.2,60,67.9"/>
	<path class="st17" d="M52.8,37.5c0.1-0.2,0-0.5-0.2-0.7c-0.2-0.2-0.4-0.3-0.6-0.3c0-0.2-0.1-0.4-0.2-0.6c-0.2-0.2-0.4-0.3-0.6-0.3
		c0-0.2-0.1-0.4-0.2-0.6c-0.1-0.2-0.3-0.3-0.5-0.3c0-0.2-0.1-0.3-0.2-0.5c-0.2-0.2-0.5-0.3-0.7-0.2c0-0.2-0.1-0.4-0.3-0.6
		c-0.2-0.2-0.5-0.3-0.7-0.2c0-0.2-0.1-0.3-0.3-0.4c-0.2-0.2-0.5-0.2-0.6-0.1c-0.1-0.1-0.1-0.2-0.2-0.3c-0.3-0.2-0.6-0.2-0.7,0
		c0,0,0,0,0,0c-0.1,0-0.1-0.1-0.2-0.1c-0.3-0.1-0.5-0.1-0.6,0.1c-0.2,0-0.3,0-0.4,0.1c-0.1,0.1-0.1,0.2-0.1,0.4c0,0,0,0,0,0
		c-0.3,0-0.4,0.3-0.3,0.6c0,0.1,0.1,0.1,0.1,0.2c-0.2,0.1-0.2,0.4,0,0.7c0.1,0.1,0.2,0.2,0.2,0.3c-0.1,0.1-0.2,0.4,0,0.6
		c0.1,0.2,0.2,0.3,0.4,0.4c-0.1,0.2-0.1,0.5,0.1,0.7c0.1,0.2,0.3,0.3,0.5,0.3c-0.1,0.2-0.1,0.5,0.1,0.7c0.1,0.2,0.3,0.3,0.4,0.3
		c0,0.2,0.1,0.4,0.2,0.5c0.2,0.2,0.3,0.3,0.5,0.3c0,0.2,0,0.4,0.2,0.6c0.2,0.2,0.3,0.3,0.5,0.3c0,0.2,0,0.4,0.2,0.6
		c0.2,0.2,0.5,0.3,0.7,0.3c-0.1,0.2,0,0.5,0.2,0.7c0.2,0.2,0.6,0.3,0.8,0.2c0,0.2,0.1,0.5,0.3,0.6c0.2,0.2,0.5,0.3,0.8,0.2
		c0,0.2,0.2,0.4,0.4,0.6c0.3,0.2,0.5,0.2,0.7,0c0.1,0.1,0.3,0.2,0.5,0.3c0.3,0.1,0.6-0.1,0.6-0.3c0.2,0,0.5,0,0.6-0.2
		c0.2-0.2,0.3-0.4,0.3-0.7c0.3,0,0.5-0.2,0.5-0.6c0-0.2-0.1-0.4-0.2-0.5c0.2-0.1,0.2-0.4,0.1-0.7c-0.1-0.2-0.3-0.4-0.5-0.5
		c0.1-0.2,0.1-0.5-0.1-0.8c-0.2-0.2-0.4-0.4-0.6-0.4c0.1-0.2,0.1-0.5-0.1-0.8C53.3,37.6,53,37.5,52.8,37.5 M53.8,39.9
		C53.8,39.9,53.8,39.9,53.8,39.9C53.8,39.9,53.8,39.9,53.8,39.9C53.8,39.9,53.8,39.9,53.8,39.9"/>
	<path class="st19" d="M50,33.1C50,33.1,50,33.1,50,33.1C50,33.1,50,33.1,50,33.1C50,33.1,50,33.1,50,33.1C50,33.1,50,33.1,50,33.1"
		/>
	<path class="st19" d="M53.9,41.8c0,0.2-0.3,0.4-0.6,0.3c-0.2,0-0.3-0.1-0.4-0.2c-0.1,0.1-0.4,0.1-0.6,0c-0.2-0.1-0.3-0.3-0.4-0.5
		c-0.2,0.1-0.5,0-0.7-0.2C51.1,41,51,40.8,51,40.6c-0.2,0.1-0.5,0-0.7-0.2c-0.2-0.2-0.3-0.5-0.2-0.7c-0.2,0.1-0.4,0-0.6-0.2
		c-0.2-0.2-0.2-0.4-0.2-0.5c-0.2,0-0.3-0.1-0.5-0.3c-0.2-0.2-0.2-0.4-0.2-0.6c-0.2,0-0.3-0.1-0.5-0.3c-0.1-0.1-0.2-0.3-0.2-0.5
		c-0.1,0-0.3-0.1-0.4-0.3c-0.2-0.2-0.2-0.5-0.1-0.6c-0.2,0-0.3-0.1-0.5-0.3c-0.2-0.2-0.2-0.5-0.1-0.6c-0.1-0.1-0.3-0.2-0.3-0.3
		c-0.1-0.2-0.1-0.5,0-0.6c-0.1-0.1-0.2-0.1-0.2-0.2c-0.1-0.2-0.1-0.5,0-0.6c0-0.1-0.1-0.1-0.1-0.2c-0.1-0.2,0-0.4,0.2-0.5
		c-0.1,0-0.2,0-0.3,0.1c-0.1,0.1-0.1,0.2-0.1,0.4c0,0,0,0,0,0c-0.2,0-0.3,0.3-0.3,0.5c0,0.1,0,0.1,0.1,0.2c-0.1,0.1-0.2,0.4,0,0.6
		c0.1,0.1,0.1,0.2,0.2,0.2c-0.1,0.1-0.1,0.4,0,0.6c0.1,0.2,0.2,0.3,0.3,0.3c-0.1,0.1-0.1,0.4,0.1,0.6c0.1,0.2,0.3,0.3,0.5,0.3
		c-0.1,0.2-0.1,0.4,0.1,0.6c0.1,0.1,0.3,0.2,0.4,0.3c0,0.1,0.1,0.3,0.2,0.5c0.1,0.2,0.3,0.2,0.5,0.3c0,0.2,0,0.4,0.2,0.6
		c0.1,0.2,0.3,0.2,0.5,0.3c0,0.2,0,0.4,0.2,0.5c0.2,0.2,0.4,0.3,0.6,0.2c-0.1,0.2,0,0.4,0.2,0.7c0.2,0.2,0.5,0.3,0.7,0.2
		c0,0.2,0.1,0.4,0.2,0.6c0.2,0.2,0.5,0.3,0.7,0.2c0,0.2,0.2,0.4,0.4,0.5c0.2,0.1,0.5,0.1,0.6,0c0.1,0.1,0.3,0.2,0.4,0.2
		c0.3,0,0.5-0.1,0.6-0.3c0.2,0,0.4,0,0.6-0.2c0.1-0.1,0.2-0.2,0.2-0.3C54,41.8,54,41.8,53.9,41.8"/>
	<path class="st13" d="M54.2,41.8c0,0-1.6-2.2-4.3-1.6c-2.6,0.6-4-0.9-4-0.9s0.6,3,2.6,2.9C50.3,42.1,52.9,45.1,54.2,41.8"/>
	<path class="st10" d="M51,42.7c0,0-2.7-2.1-2.4-5.1c0.3-3.1-0.7-4.3-0.7-4.3s1.3,0.4,1.9,2.2C50.3,37.2,54.1,41.4,51,42.7"/>
	<path class="st17" d="M51.3,52.9c0.2,0,0.4-0.2,0.5-0.4c0.1-0.2,0.1-0.4,0-0.6c0.1-0.1,0.3-0.2,0.4-0.4c0.1-0.2,0.1-0.4,0-0.6
		c0.1-0.1,0.3-0.2,0.4-0.4c0.1-0.2,0.1-0.4,0.1-0.5c0.1-0.1,0.3-0.2,0.3-0.4c0.1-0.3,0.1-0.5,0-0.6c0.2-0.1,0.3-0.2,0.4-0.4
		c0.1-0.3,0.1-0.5-0.1-0.6c0.1-0.1,0.2-0.2,0.3-0.4c0.1-0.3,0-0.5-0.2-0.6c0.1-0.1,0.1-0.2,0.2-0.3c0.1-0.3,0-0.6-0.2-0.6
		c0,0,0,0,0,0c0-0.1,0-0.1,0-0.2c0-0.3-0.1-0.5-0.3-0.5c0-0.1-0.1-0.3-0.2-0.3c-0.1-0.1-0.2,0-0.4,0.1c0,0,0,0,0,0
		c-0.1-0.2-0.4-0.2-0.6,0c-0.1,0-0.1,0.1-0.1,0.1c-0.2-0.1-0.4,0-0.6,0.2c-0.1,0.1-0.1,0.2-0.2,0.3c-0.2-0.1-0.4,0-0.6,0.2
		c-0.1,0.1-0.2,0.3-0.2,0.4c-0.2,0-0.4,0.1-0.6,0.3c-0.1,0.2-0.2,0.4-0.1,0.6c-0.2,0-0.4,0.1-0.5,0.4C49,48,49,48.1,49,48.3
		c-0.1,0.1-0.3,0.2-0.4,0.4c-0.1,0.2-0.1,0.4-0.1,0.5c-0.2,0-0.3,0.2-0.5,0.4C48,49.8,48,50,48,50.1c-0.2,0-0.3,0.2-0.5,0.4
		c-0.1,0.2-0.1,0.5,0,0.6c-0.2,0-0.4,0.2-0.5,0.5c-0.1,0.3-0.1,0.6,0.1,0.7c-0.2,0.1-0.4,0.2-0.4,0.5c-0.1,0.3-0.1,0.6,0.1,0.7
		c-0.2,0.1-0.3,0.3-0.3,0.6c0,0.3,0,0.5,0.2,0.6c-0.1,0.1-0.1,0.3-0.1,0.5c0.1,0.3,0.3,0.4,0.5,0.4c0,0.2,0.2,0.4,0.4,0.4
		c0.2,0.1,0.5,0.1,0.7,0c0.1,0.3,0.3,0.3,0.6,0.2c0.2-0.1,0.3-0.2,0.4-0.3c0.2,0.1,0.4,0,0.6-0.2c0.2-0.2,0.3-0.4,0.3-0.6
		c0.2,0,0.5-0.1,0.6-0.4c0.1-0.2,0.2-0.5,0.1-0.6c0.2,0,0.5-0.1,0.6-0.4C51.4,53.3,51.4,53,51.3,52.9 M49.6,54.6
		C49.6,54.6,49.6,54.6,49.6,54.6C49.6,54.6,49.6,54.6,49.6,54.6C49.6,54.6,49.6,54.6,49.6,54.6"/>
	<path class="st19" d="M50,46.1C50,46.1,50,46.1,50,46.1C50,46.1,50,46.1,50,46.1C50,46.1,50,46.1,50,46.1C50,46.1,50,46.1,50,46.1"
		/>
	<path class="st19" d="M48.1,55.2c-0.2,0-0.4-0.1-0.4-0.3c0-0.1,0-0.3,0.1-0.4c-0.1-0.1-0.2-0.3-0.2-0.5c0-0.2,0.2-0.4,0.3-0.5
		c-0.1-0.1-0.2-0.4-0.1-0.6c0.1-0.2,0.2-0.4,0.4-0.4c-0.1-0.1-0.2-0.4,0-0.6c0.1-0.2,0.3-0.4,0.5-0.4c-0.1-0.1-0.1-0.3,0-0.6
		c0.1-0.2,0.3-0.3,0.4-0.3c0-0.1,0-0.3,0.1-0.5c0.1-0.2,0.3-0.3,0.4-0.4c0-0.1,0-0.3,0.1-0.5c0.1-0.2,0.2-0.3,0.3-0.3
		c0-0.1,0-0.3,0.1-0.4c0.1-0.2,0.3-0.3,0.5-0.3c0-0.1,0-0.3,0.1-0.5c0.1-0.2,0.3-0.3,0.5-0.3c0-0.1,0.1-0.3,0.2-0.4
		c0.1-0.2,0.3-0.3,0.5-0.2c0-0.1,0.1-0.2,0.1-0.3c0.2-0.2,0.4-0.3,0.5-0.2c0,0,0.1-0.1,0.1-0.1c0.2-0.1,0.4-0.2,0.5-0.1
		c0-0.1-0.1-0.2-0.2-0.2c-0.1,0-0.2,0-0.3,0.1c0,0,0,0,0,0c-0.1-0.2-0.3-0.2-0.5,0c0,0-0.1,0.1-0.1,0.1c-0.1-0.1-0.4,0-0.5,0.2
		c-0.1,0.1-0.1,0.2-0.1,0.3c-0.1-0.1-0.3,0-0.5,0.2c-0.1,0.1-0.2,0.3-0.2,0.4c-0.2,0-0.4,0.1-0.5,0.3c-0.1,0.2-0.1,0.4-0.1,0.5
		c-0.2,0-0.4,0.1-0.5,0.3c-0.1,0.1-0.1,0.3-0.1,0.4c-0.1,0.1-0.3,0.2-0.3,0.3c-0.1,0.2-0.1,0.3-0.1,0.5c-0.1,0-0.3,0.2-0.4,0.4
		c-0.1,0.2-0.1,0.3-0.1,0.5c-0.1,0-0.3,0.2-0.4,0.3c-0.1,0.2-0.1,0.4,0,0.6c-0.2,0-0.4,0.2-0.5,0.4c-0.1,0.3-0.1,0.5,0,0.6
		c-0.2,0.1-0.3,0.2-0.4,0.4c-0.1,0.3-0.1,0.5,0.1,0.6c-0.1,0.1-0.3,0.3-0.3,0.5c0,0.2,0,0.4,0.2,0.5c-0.1,0.1-0.1,0.3-0.1,0.4
		c0.1,0.2,0.2,0.4,0.4,0.3c0,0.2,0.2,0.3,0.3,0.4c0.1,0,0.2,0.1,0.3,0.1C48.2,55.4,48.1,55.3,48.1,55.2"/>
	<path class="st20" d="M50.5,56.4c0,0-0.6-2.1,1.3-6.4c1-2.1-0.8-2.6-0.8-2.6s0.5,1.1-0.9,2.3C48.8,51,45.7,55.4,50.5,56.4"/>
	<path class="st11" d="M46.1,56c0,0,3.7-2.9,4.8-4.8c1-1.9,2.4-4.1,3.1-3.9c0,0-1,1.1-1.3,2.9C52.2,53.4,49.4,59.2,46.1,56"/>
	<path class="st17" d="M51.8,27c0.2,0,0.4-0.3,0.4-0.5c0.1-0.2,0-0.5-0.1-0.6c0.1-0.1,0.3-0.3,0.3-0.5c0.1-0.2,0-0.5-0.1-0.6
		c0.1-0.1,0.3-0.3,0.3-0.5c0.1-0.2,0-0.4,0-0.5c0.1-0.1,0.2-0.3,0.2-0.5c0.1-0.3,0-0.5-0.2-0.6c0.1-0.1,0.3-0.3,0.3-0.5
		c0-0.3-0.1-0.5-0.2-0.6c0.1-0.1,0.2-0.3,0.2-0.5c0-0.3-0.1-0.5-0.3-0.5c0.1-0.1,0.1-0.2,0.1-0.4c0-0.3-0.2-0.6-0.4-0.5c0,0,0,0,0,0
		c0-0.1,0-0.1,0-0.2c-0.1-0.3-0.2-0.4-0.4-0.4c0-0.1-0.1-0.3-0.3-0.3c-0.1,0-0.3,0-0.4,0.2c0,0,0,0,0,0c-0.2-0.2-0.4-0.1-0.6,0.1
		c0,0.1-0.1,0.1-0.1,0.2c-0.2-0.1-0.4,0.1-0.5,0.4c-0.1,0.1-0.1,0.2-0.1,0.4c-0.2,0-0.4,0.1-0.5,0.4c-0.1,0.2-0.1,0.4-0.1,0.5
		c-0.2,0-0.4,0.2-0.5,0.5c-0.1,0.2-0.1,0.5,0,0.6c-0.2,0-0.4,0.2-0.5,0.5c-0.1,0.2-0.1,0.4,0,0.5c-0.1,0.1-0.2,0.3-0.3,0.5
		c-0.1,0.2,0,0.4,0.1,0.6c-0.2,0.1-0.3,0.3-0.4,0.5c-0.1,0.2,0,0.4,0.1,0.6c-0.2,0.1-0.3,0.3-0.4,0.5c-0.1,0.3,0,0.5,0.1,0.7
		c-0.2,0.1-0.4,0.3-0.4,0.6c-0.1,0.3,0,0.6,0.2,0.7c-0.2,0.1-0.3,0.3-0.3,0.6c-0.1,0.3,0.1,0.6,0.2,0.7c-0.1,0.2-0.2,0.4-0.2,0.7
		c0,0.3,0.2,0.5,0.3,0.6c0,0.2,0,0.4,0.1,0.5c0.1,0.3,0.4,0.4,0.6,0.3c0.1,0.2,0.3,0.3,0.5,0.4c0.3,0.1,0.5,0,0.7-0.2
		c0.1,0.2,0.4,0.3,0.7,0.1c0.1-0.1,0.2-0.3,0.3-0.4c0.2,0,0.4-0.1,0.6-0.4c0.1-0.2,0.2-0.5,0.1-0.7c0.2,0,0.4-0.2,0.5-0.5
		c0.1-0.3,0.1-0.5,0-0.7c0.2,0,0.4-0.2,0.5-0.6C52,27.4,52,27.2,51.8,27 M50.5,29.2C50.5,29.2,50.5,29.2,50.5,29.2
		C50.5,29.2,50.5,29.2,50.5,29.2C50.5,29.2,50.5,29.2,50.5,29.2"/>
	<path class="st19" d="M50,19.7C50,19.7,50,19.6,50,19.7C50,19.7,50,19.7,50,19.7C50,19.7,50,19.7,50,19.7C50,19.7,50,19.7,50,19.7"
		/>
	<path class="st19" d="M49.4,30.3c-0.2,0.1-0.4,0-0.5-0.2c-0.1-0.1-0.1-0.3-0.1-0.5c-0.2,0-0.3-0.2-0.3-0.5c0-0.2,0.1-0.4,0.2-0.6
		c-0.2-0.1-0.3-0.3-0.2-0.6c0-0.2,0.2-0.4,0.3-0.5c-0.2-0.1-0.3-0.3-0.2-0.6c0.1-0.3,0.2-0.5,0.4-0.5c-0.1-0.1-0.2-0.3-0.1-0.6
		c0.1-0.2,0.2-0.4,0.3-0.5c-0.1-0.1-0.1-0.3-0.1-0.5c0.1-0.2,0.2-0.4,0.3-0.5c-0.1-0.1-0.1-0.3-0.1-0.5c0-0.2,0.1-0.3,0.3-0.4
		c0-0.1-0.1-0.3,0-0.5c0.1-0.2,0.3-0.4,0.4-0.4c-0.1-0.1-0.1-0.3,0-0.5c0.1-0.3,0.3-0.4,0.5-0.4c0-0.1,0-0.3,0.1-0.4
		c0.1-0.2,0.3-0.4,0.5-0.3c0-0.1,0-0.2,0.1-0.3c0.1-0.2,0.3-0.4,0.5-0.3c0-0.1,0.1-0.1,0.1-0.2c0.1-0.2,0.4-0.3,0.5-0.2
		c0-0.1-0.1-0.2-0.2-0.2c-0.1,0-0.2,0-0.3,0.1c0,0,0,0,0,0c-0.1-0.2-0.4-0.1-0.6,0.1c0,0.1-0.1,0.1-0.1,0.2c-0.2,0-0.4,0.1-0.5,0.3
		c0,0.1-0.1,0.2-0.1,0.3c-0.2,0-0.3,0.1-0.5,0.3c-0.1,0.2-0.1,0.3-0.1,0.4c-0.2,0-0.4,0.2-0.5,0.4c-0.1,0.2-0.1,0.4,0,0.5
		c-0.2,0-0.3,0.2-0.4,0.4c-0.1,0.2,0,0.3,0,0.5c-0.1,0.1-0.2,0.2-0.3,0.4c0,0.2,0,0.4,0.1,0.5c-0.1,0.1-0.3,0.2-0.3,0.5
		c0,0.2,0,0.4,0.1,0.5c-0.1,0.1-0.3,0.2-0.3,0.5c-0.1,0.3,0,0.5,0.1,0.6c-0.2,0.1-0.3,0.3-0.4,0.5c-0.1,0.3,0,0.5,0.2,0.6
		c-0.1,0.1-0.3,0.3-0.3,0.5c0,0.3,0,0.5,0.2,0.6c-0.1,0.1-0.2,0.4-0.2,0.6c0,0.3,0.1,0.4,0.3,0.5c0,0.1,0,0.3,0.1,0.5
		c0.1,0.2,0.3,0.3,0.5,0.2c0.1,0.2,0.2,0.3,0.4,0.3c0.1,0,0.2,0,0.3,0C49.5,30.4,49.4,30.3,49.4,30.3"/>
	<path class="st20" d="M49.7,22.1c0,0,1.5,1.1,1,4.1c-0.5,2.9-0.3,4.9,1.3,4.8c0,0-2.6,1.4-3.8-1.6C47.1,26.3,49.7,22.1,49.7,22.1"
		/>
	<path class="st9" d="M49.6,58.3c0,0-3-9.1-0.3-10.8c0,0,0.8,1.3,1,4C50.5,52.8,53.9,59.8,49.6,58.3"/>
	<path class="st17" d="M52.7,53.2c0.1-0.2,0.1-0.5,0-0.8c-0.1-0.2-0.3-0.4-0.5-0.4c0-0.2,0-0.4-0.1-0.6c-0.1-0.2-0.3-0.4-0.5-0.4
		c0-0.2,0-0.4-0.1-0.6c-0.1-0.2-0.3-0.3-0.4-0.4c0-0.2,0-0.4-0.2-0.6c-0.2-0.3-0.4-0.4-0.6-0.4c0-0.2,0-0.4-0.2-0.7
		c-0.2-0.3-0.4-0.4-0.6-0.3c0-0.2-0.1-0.4-0.2-0.5c-0.2-0.2-0.5-0.3-0.6-0.2c0-0.1-0.1-0.2-0.2-0.3c-0.2-0.3-0.5-0.3-0.7-0.1
		c0,0,0,0,0,0c0-0.1-0.1-0.1-0.2-0.2c-0.2-0.2-0.5-0.2-0.6,0c-0.1-0.1-0.3-0.1-0.4,0c-0.1,0.1-0.2,0.2-0.2,0.4c0,0,0,0,0,0
		c-0.3,0-0.4,0.2-0.4,0.6c0,0.1,0,0.2,0.1,0.2c-0.2,0.1-0.3,0.4-0.2,0.7c0,0.1,0.1,0.3,0.2,0.3c-0.2,0.1-0.2,0.4-0.1,0.7
		c0.1,0.2,0.2,0.4,0.3,0.5c-0.2,0.1-0.2,0.5-0.1,0.8c0.1,0.2,0.3,0.4,0.5,0.5c-0.1,0.2-0.1,0.5,0,0.8c0.1,0.2,0.2,0.3,0.4,0.4
		c0,0.2,0,0.4,0.1,0.6c0.1,0.2,0.3,0.4,0.5,0.4c-0.1,0.2-0.1,0.4,0.1,0.7c0.1,0.2,0.3,0.4,0.5,0.4c-0.1,0.2,0,0.4,0.1,0.7
		c0.2,0.3,0.4,0.4,0.6,0.4c-0.1,0.2-0.1,0.5,0.1,0.8c0.2,0.3,0.5,0.5,0.7,0.4c-0.1,0.2,0,0.5,0.2,0.7c0.2,0.3,0.5,0.4,0.7,0.4
		c0,0.2,0.1,0.5,0.3,0.7c0.2,0.2,0.5,0.3,0.7,0.2c0.1,0.2,0.2,0.3,0.4,0.4c0.3,0.1,0.6,0,0.7-0.2c0.2,0.1,0.4,0.1,0.7-0.1
		c0.2-0.1,0.4-0.4,0.4-0.6c0.3,0.1,0.6-0.1,0.6-0.5c0-0.2,0-0.4-0.1-0.6c0.2-0.1,0.3-0.4,0.2-0.7c-0.1-0.3-0.2-0.5-0.4-0.6
		c0.2-0.2,0.2-0.5,0-0.8c-0.1-0.3-0.3-0.4-0.5-0.5c0.2-0.2,0.2-0.5,0-0.8C53.2,53.4,53,53.2,52.7,53.2 M53.3,55.9
		C53.3,55.9,53.3,55.9,53.3,55.9C53.3,55.9,53.3,55.9,53.3,55.9C53.3,55.9,53.3,55.9,53.3,55.9"/>
	<path class="st19" d="M50,47.2C50,47.2,50,47.3,50,47.2C50,47.3,50,47.3,50,47.2C50,47.3,50,47.3,50,47.2C50,47.3,50,47.3,50,47.2"
		/>
	<path class="st19" d="M53.2,57.8c-0.1,0.2-0.3,0.3-0.6,0.2c-0.2-0.1-0.3-0.2-0.4-0.3c-0.2,0.1-0.4,0-0.6-0.2
		c-0.2-0.2-0.3-0.4-0.3-0.6c-0.2,0.1-0.5-0.1-0.6-0.3c-0.1-0.2-0.2-0.5-0.1-0.6c-0.2,0.1-0.5-0.1-0.6-0.4c-0.2-0.3-0.2-0.5-0.1-0.7
		c-0.2,0-0.4-0.1-0.5-0.4c-0.1-0.2-0.1-0.4-0.1-0.6c-0.1,0-0.3-0.2-0.4-0.4c-0.1-0.2-0.1-0.5-0.1-0.6c-0.1,0-0.3-0.2-0.4-0.4
		c-0.1-0.2-0.1-0.4-0.1-0.5c-0.1-0.1-0.3-0.2-0.3-0.4c-0.1-0.3-0.1-0.5,0-0.7c-0.2-0.1-0.3-0.2-0.4-0.4c-0.1-0.3-0.1-0.5,0-0.7
		c-0.1-0.1-0.2-0.2-0.3-0.4c-0.1-0.3,0-0.5,0.1-0.6c-0.1-0.1-0.1-0.2-0.2-0.3c-0.1-0.3,0-0.5,0.1-0.6c0-0.1,0-0.1,0-0.2
		c0-0.3,0.1-0.5,0.3-0.5c-0.1-0.1-0.2-0.1-0.3,0c-0.1,0.1-0.2,0.2-0.2,0.4c0,0,0,0,0,0c-0.2,0-0.4,0.2-0.4,0.5c0,0.1,0,0.1,0,0.2
		c-0.2,0.1-0.2,0.3-0.1,0.6c0,0.1,0.1,0.2,0.2,0.3c-0.1,0.1-0.2,0.3-0.1,0.6c0.1,0.2,0.2,0.3,0.3,0.4c-0.1,0.1-0.2,0.4,0,0.7
		c0.1,0.2,0.3,0.4,0.4,0.4c-0.1,0.1-0.1,0.4,0,0.7c0.1,0.2,0.2,0.3,0.3,0.4c0,0.2,0,0.3,0.1,0.5c0.1,0.2,0.3,0.3,0.4,0.4
		c-0.1,0.2,0,0.4,0.1,0.6c0.1,0.2,0.3,0.3,0.4,0.4c-0.1,0.2,0,0.4,0.1,0.6c0.1,0.2,0.4,0.4,0.5,0.4c-0.1,0.2-0.1,0.5,0.1,0.7
		c0.2,0.3,0.4,0.4,0.6,0.4c0,0.2,0,0.4,0.1,0.6c0.2,0.3,0.4,0.4,0.6,0.3c0,0.2,0.1,0.4,0.3,0.6c0.2,0.2,0.4,0.3,0.6,0.2
		c0.1,0.1,0.2,0.3,0.4,0.3c0.3,0.1,0.5,0,0.6-0.2c0.2,0.1,0.4,0.1,0.6-0.1c0.1-0.1,0.2-0.2,0.3-0.3C53.3,57.8,53.2,57.8,53.2,57.8"
		/>
	<path class="st20" d="M45.9,52.2c0,0,2-0.2,3.8,2.5c1.8,2.7,3.1,4.1,4.4,2.8c0,0,0.5,2.5-4,1.5C46.6,58.2,45.9,52.2,45.9,52.2"/>
</g>
</svg>
