<svg xmlns="http://www.w3.org/2000/svg" viewBox="0 0 499.45 383.85"><defs><style>.cls-1{fill:#fff8dd;}.cls-2{fill:#81a8a9;}.cls-3{fill:#162c53;}.cls-4{fill:#5f887f;}.cls-5{fill:#77a275;}.cls-6{fill:#a0bd61;}.cls-7{fill:#acdddd;}</style></defs><title>Asset 1</title><g id="Layer_2" data-name="Layer 2"><g id="Layer_54" data-name="Layer 54"><path class="cls-1" d="M.14,229c1.72-48.66,13.7-123.71,116.25-139.23S222.85,8.13,282,3.7,428.76-7.56,478.07,26.78s-2.63,138.69,1.31,183,3,163.11-137.47,172-130.36-13.14-215.68-19.72C98.29,359.9-4.32,355.29.14,229Z"/><path class="cls-2" d="M285.74,102.32S83.65,295.5,86.62,307.38s203.57,37.15,209.52,19.32,96.59-215.46,87.67-224.38S285.74,102.32,285.74,102.32Z"/><path class="cls-3" d="M242.4,121.3s-2.26,6.45-9,5.6-3.9-3.61-3.9-3.61-5.24,2.34-9.25-.36,4.21-3.47,4.21-3.47-10.31-.9-10.8-6.1,6.22-2.82,6.22-2.82-9.34-4.63-8.19-9.6,6.39-1.7,6.39-1.7-3.93-3.61-2.13-6,5.4,0,5.4,0-5-14.33,4.26-12.09c0,0-2.24-10.14,5.86-5.85,0,0-.61-9.93,7.09-9.93s6.42,11.11,6.42,11.11.75-5.07,4.85-3.6.5,9.86.5,9.86,3.43-4.52,8.1-1.72,1.25,11.17,1.25,11.17,1.25-1.93,4.68-1.93,1.24,6.45-2.5,8c0,0,8.65-1.32.82,7.46,0,0,3.13-2,4.5.81s-2.34,7.29-8,9c0,0,4.5-1.76,4.5,2.7s-8.42,4-8.42,4,6.07,1.8,2,4.68S246.05,127.33,242.4,121.3Z"/><path class="cls-3" d="M421.07,122.88s-2.26,6.45-9,5.6-3.91-3.61-3.91-3.61-5.24,2.34-9.24-.36,4.21-3.47,4.21-3.47-10.32-.9-10.81-6.1,6.22-2.82,6.22-2.82-9.33-4.63-8.18-9.6,6.38-1.7,6.38-1.7-3.93-3.61-2.13-6,5.41,0,5.41,0-5-14.33,4.25-12.09c0,0-2.23-10.14,5.86-5.85,0,0-.6-9.93,7.09-9.93s6.43,11.11,6.43,11.11.75-5.07,4.84-3.6.51,9.85.51,9.85,3.43-4.51,8.1-1.72,1.25,11.18,1.25,11.18,1.24-1.93,4.67-1.93,1.25,6.45-2.49,8c0,0,8.65-1.32.82,7.46,0,0,3.13-2,4.5.81s-2.35,7.29-8,9c0,0,4.51-1.76,4.51,2.7s-8.42,4-8.42,4,6.07,1.8,2,4.68S424.72,128.91,421.07,122.88Z"/><path class="cls-4" d="M244.41,125.42s-1.78,5.08-7.12,4.41-3.08-2.85-3.08-2.85-4.13,1.85-7.29-.27,3.32-2.74,3.32-2.74-8.13-.71-8.52-4.81,4.91-2.23,4.91-2.23-7.36-3.65-6.45-7.56,5-1.34,5-1.34-3.1-2.85-1.68-4.72,4.26,0,4.26,0-3.92-11.29,3.35-9.52c0,0-1.76-8,4.62-4.62,0,0-.47-7.83,5.59-7.83s5.07,8.77,5.07,8.77.59-4,3.81-2.85.4,7.77.4,7.77,2.7-3.55,6.39-1.35,1,8.81,1,8.81a4.3,4.3,0,0,1,3.69-1.52c2.7,0,1,5.08-2,6.27,0,0,6.82-1,.65,5.87,0,0,2.47-1.6,3.55.64s-1.85,5.75-6.33,7.13c0,0,3.55-1.38,3.55,2.13s-6.64,3.2-6.64,3.2,4.79,1.41,1.55,3.68-8.76.28-11.64-4.47"/><path class="cls-4" d="M426.37,133.51s-1.78,5.08-7.13,4.41-3.08-2.85-3.08-2.85-4.13,1.84-7.28-.28,3.32-2.74,3.32-2.74-8.13-.71-8.52-4.8,4.9-2.23,4.9-2.23-7.35-3.65-6.45-7.57,5-1.33,5-1.33-3.09-2.85-1.67-4.72,4.25,0,4.25,0-3.91-11.3,3.36-9.53c0,0-1.76-8,4.62-4.61,0,0-.48-7.83,5.59-7.83s5.06,8.76,5.06,8.76.59-4,3.82-2.84.4,7.77.4,7.77,2.7-3.56,6.38-1.36,1,8.82,1,8.82a4.28,4.28,0,0,1,3.68-1.53c2.7,0,1,5.09-2,6.27,0,0,6.82-1,.64,5.88,0,0,2.47-1.6,3.55.64s-1.85,5.74-6.33,7.13c0,0,3.55-1.39,3.55,2.13s-6.63,3.19-6.63,3.19,4.78,1.42,1.54,3.69-8.76.28-11.63-4.47"/><path class="cls-3" d="M412.57,145.71s-2.26,6.45-9,5.6-3.9-3.61-3.9-3.61-5.24,2.33-9.25-.36,4.21-3.47,4.21-3.47-10.31-.91-10.8-6.1S390,135,390,135s-9.33-4.64-8.19-9.6,6.39-1.7,6.39-1.7-3.93-3.61-2.13-6,5.4,0,5.4,0-5-14.33,4.26-12.09c0,0-2.24-10.15,5.86-5.86,0,0-.61-9.93,7.09-9.93s6.42,11.12,6.42,11.12.75-5.08,4.85-3.61.5,9.86.5,9.86,3.43-4.51,8.1-1.72,1.25,11.18,1.25,11.18,1.25-1.93,4.68-1.93,1.24,6.45-2.5,8c0,0,8.65-1.33.82,7.45,0,0,3.13-2,4.51.81s-2.35,7.3-8,9c0,0,4.5-1.75,4.5,2.71s-8.42,4.05-8.42,4.05,6.07,1.79,2,4.68S416.22,151.74,412.57,145.71Z"/><path class="cls-4" d="M417.87,156.33s-1.78,5.09-7.12,4.42-3.08-2.85-3.08-2.85-4.13,1.84-7.29-.28,3.32-2.74,3.32-2.74-8.13-.71-8.52-4.81,4.91-2.22,4.91-2.22-7.36-3.65-6.46-7.57,5-1.34,5-1.34-3.1-2.84-1.68-4.71,4.26,0,4.26,0-3.92-11.3,3.35-9.53c0,0-1.76-8,4.62-4.62,0,0-.48-7.82,5.59-7.82s5.06,8.76,5.06,8.76.6-4,3.82-2.84.4,7.77.4,7.77,2.7-3.56,6.39-1.36,1,8.81,1,8.81a4.3,4.3,0,0,1,3.69-1.52c2.7,0,1,5.08-2,6.27,0,0,6.82-1.05.65,5.87,0,0,2.47-1.59,3.55.64s-1.86,5.75-6.33,7.13c0,0,3.55-1.38,3.55,2.13s-6.64,3.2-6.64,3.2,4.79,1.41,1.54,3.69-8.75.27-11.63-4.48"/><path class="cls-3" d="M405,165.51s-2.26,6.45-9,5.6-3.9-3.62-3.9-3.62-5.24,2.34-9.25-.35,4.21-3.47,4.21-3.47-10.31-.91-10.8-6.1,6.22-2.83,6.22-2.83-9.33-4.63-8.19-9.6,6.39-1.69,6.39-1.69-3.93-3.62-2.13-6,5.4,0,5.4,0-5-14.33,4.26-12.08c0,0-2.24-10.15,5.86-5.86,0,0-.61-9.93,7.09-9.93s6.42,11.12,6.42,11.12.76-5.08,4.85-3.61.5,9.86.5,9.86,3.43-4.52,8.11-1.72,1.24,11.18,1.24,11.18,1.25-1.94,4.68-1.94,1.24,6.45-2.5,8c0,0,8.66-1.33.82,7.45,0,0,3.14-2,4.51.81s-2.35,7.3-8,9.05c0,0,4.5-1.75,4.5,2.7s-8.42,4.06-8.42,4.06,6.07,1.79,2,4.67S408.61,171.54,405,165.51Z"/><path class="cls-4" d="M410.26,176.13s-1.78,5.08-7.12,4.41-3.08-2.85-3.08-2.85-4.13,1.85-7.29-.27,3.32-2.74,3.32-2.74-8.13-.71-8.52-4.81,4.91-2.23,4.91-2.23-7.36-3.65-6.46-7.56,5-1.34,5-1.34-3.1-2.85-1.68-4.72,4.26,0,4.26,0-3.92-11.29,3.35-9.52c0,0-1.76-8,4.62-4.62,0,0-.47-7.83,5.59-7.83s5.07,8.77,5.07,8.77.59-4,3.81-2.85.4,7.77.4,7.77,2.7-3.55,6.39-1.35,1,8.81,1,8.81a4.3,4.3,0,0,1,3.69-1.52c2.7,0,1,5.08-2,6.27,0,0,6.82-1,.65,5.87,0,0,2.47-1.6,3.55.64s-1.86,5.75-6.33,7.13c0,0,3.55-1.38,3.55,2.13s-6.64,3.2-6.64,3.2,4.79,1.41,1.55,3.68-8.76.28-11.64-4.47"/><path class="cls-3" d="M396.47,185.92s-2.26,6.45-9,5.6-3.91-3.62-3.91-3.62-5.24,2.34-9.25-.35,4.22-3.47,4.22-3.47-10.32-.91-10.81-6.1,6.22-2.83,6.22-2.83-9.33-4.63-8.18-9.6,6.38-1.69,6.38-1.69-3.93-3.61-2.13-6,5.41,0,5.41,0-5-14.33,4.25-12.08c0,0-2.23-10.15,5.86-5.86,0,0-.6-9.93,7.09-9.93S399,141.12,399,141.12s.75-5.08,4.84-3.61.51,9.86.51,9.86,3.42-4.51,8.1-1.72,1.25,11.18,1.25,11.18,1.24-1.94,4.67-1.94,1.25,6.45-2.49,8c0,0,8.65-1.33.82,7.45,0,0,3.13-2,4.5.81s-2.35,7.3-8,9c0,0,4.51-1.75,4.51,2.7s-8.42,4.06-8.42,4.06,6.07,1.79,2,4.68S400.12,192,396.47,185.92Z"/><path class="cls-4" d="M401.77,196.54s-1.78,5.08-7.13,4.41-3.08-2.84-3.08-2.84-4.13,1.84-7.29-.28,3.32-2.74,3.32-2.74-8.13-.71-8.51-4.81,4.9-2.22,4.9-2.22-7.36-3.65-6.45-7.57,5-1.34,5-1.34-3.1-2.85-1.68-4.71,4.26,0,4.26,0-3.91-11.3,3.36-9.53c0,0-1.76-8,4.62-4.62,0,0-.48-7.82,5.58-7.82s5.07,8.76,5.07,8.76.59-4,3.82-2.85.4,7.78.4,7.78,2.7-3.56,6.38-1.36,1,8.81,1,8.81a4.29,4.29,0,0,1,3.68-1.52c2.7,0,1,5.08-2,6.27,0,0,6.82-1.05.65,5.87,0,0,2.47-1.6,3.55.64s-1.85,5.75-6.33,7.13c0,0,3.55-1.38,3.55,2.13s-6.63,3.2-6.63,3.2,4.78,1.41,1.54,3.69-8.76.27-11.63-4.48"/><path class="cls-3" d="M388.86,208.5s-2.26,6.45-9,5.59-3.91-3.61-3.91-3.61-5.24,2.34-9.24-.35,4.21-3.48,4.21-3.48-10.32-.9-10.81-6.1,6.22-2.82,6.22-2.82-9.33-4.63-8.18-9.6,6.38-1.69,6.38-1.69-3.93-3.62-2.13-6,5.41,0,5.41,0-5-14.33,4.25-12.09c0,0-2.23-10.14,5.86-5.85,0,0-.6-9.93,7.09-9.93s6.43,11.12,6.43,11.12.75-5.08,4.84-3.61.51,9.86.51,9.86,3.43-4.52,8.1-1.72,1.25,11.18,1.25,11.18,1.24-1.94,4.67-1.94,1.25,6.45-2.49,8c0,0,8.65-1.33.82,7.45,0,0,3.13-2,4.5.81s-2.35,7.29-8,9.05c0,0,4.51-1.76,4.51,2.7s-8.42,4.05-8.42,4.05,6.07,1.8,2,4.68S392.51,214.52,388.86,208.5Z"/><path class="cls-4" d="M392.23,219.12s-1.78,5.08-7.13,4.41-3.08-2.85-3.08-2.85-4.13,1.85-7.29-.28,3.32-2.74,3.32-2.74-8.13-.71-8.51-4.8,4.9-2.23,4.9-2.23-7.36-3.65-6.45-7.57,5-1.33,5-1.33-3.1-2.85-1.68-4.72,4.26,0,4.26,0-3.91-11.29,3.36-9.52c0,0-1.76-8,4.62-4.62,0,0-.48-7.83,5.58-7.83s5.07,8.76,5.07,8.76.59-4,3.82-2.84.4,7.77.4,7.77,2.7-3.56,6.38-1.35,1,8.81,1,8.81a4.28,4.28,0,0,1,3.68-1.53c2.7,0,1,5.09-2,6.27,0,0,6.82-1,.65,5.88,0,0,2.47-1.6,3.55.64s-1.85,5.75-6.33,7.13c0,0,3.55-1.38,3.55,2.13s-6.63,3.19-6.63,3.19,4.78,1.42,1.54,3.69-8.76.28-11.63-4.47"/><path class="cls-3" d="M372.75,229.82s-2.26,6.45-9,5.6-3.9-3.61-3.9-3.61-5.24,2.34-9.25-.36,4.21-3.47,4.21-3.47-10.31-.9-10.8-6.1,6.22-2.82,6.22-2.82-9.33-4.63-8.19-9.6,6.39-1.7,6.39-1.7-3.93-3.61-2.13-6,5.4,0,5.4,0-5-14.33,4.26-12.09c0,0-2.24-10.15,5.86-5.85,0,0-.61-9.93,7.09-9.93S375.29,185,375.29,185s.75-5.07,4.85-3.6.5,9.85.5,9.85,3.43-4.51,8.11-1.72S390,200.73,390,200.73s1.25-1.93,4.68-1.93,1.24,6.45-2.5,7.95c0,0,8.65-1.32.82,7.46,0,0,3.14-2,4.51.81s-2.35,7.29-8,9c0,0,4.5-1.76,4.5,2.7s-8.42,4-8.42,4,6.07,1.8,2,4.68S376.4,235.85,372.75,229.82Z"/><path class="cls-4" d="M378.05,240.45s-1.78,5.08-7.12,4.41-3.08-2.85-3.08-2.85-4.13,1.84-7.29-.28,3.32-2.74,3.32-2.74-8.13-.71-8.52-4.8,4.91-2.23,4.91-2.23-7.36-3.65-6.46-7.57,5-1.33,5-1.33-3.1-2.85-1.68-4.72,4.26,0,4.26,0-3.92-11.3,3.35-9.53c0,0-1.76-8,4.62-4.61,0,0-.48-7.83,5.59-7.83s5.06,8.76,5.06,8.76.6-4,3.82-2.84.4,7.77.4,7.77,2.7-3.56,6.39-1.36,1,8.82,1,8.82a4.29,4.29,0,0,1,3.69-1.53c2.7,0,1,5.09-2,6.27,0,0,6.82-1,.65,5.88,0,0,2.47-1.6,3.55.64s-1.86,5.74-6.33,7.13c0,0,3.55-1.39,3.55,2.13s-6.64,3.19-6.64,3.19,4.79,1.42,1.54,3.69-8.75.28-11.63-4.47"/><path class="cls-3" d="M360.92,257.76s-2.26,6.45-9,5.6-3.91-3.62-3.91-3.62-5.24,2.34-9.24-.35,4.21-3.47,4.21-3.47-10.32-.91-10.81-6.1,6.23-2.83,6.23-2.83-9.34-4.63-8.19-9.6,6.38-1.69,6.38-1.69-3.93-3.61-2.12-6,5.4,0,5.4,0-5-14.33,4.26-12.08c0,0-2.24-10.15,5.86-5.86,0,0-.61-9.93,7.08-9.93S363.46,213,363.46,213s.75-5.08,4.85-3.61.5,9.86.5,9.86,3.43-4.51,8.1-1.72,1.25,11.18,1.25,11.18,1.25-1.93,4.67-1.93,1.25,6.44-2.49,7.95c0,0,8.65-1.33.82,7.45,0,0,3.13-2,4.5.81s-2.35,7.3-8,9.05c0,0,4.5-1.75,4.5,2.7s-8.42,4.06-8.42,4.06,6.07,1.79,2,4.68S364.57,263.79,360.92,257.76Z"/><path class="cls-4" d="M366.22,268.38s-1.78,5.09-7.13,4.41S356,270,356,270s-4.13,1.84-7.29-.28,3.32-2.74,3.32-2.74-8.13-.71-8.52-4.81,4.9-2.22,4.9-2.22-7.35-3.65-6.45-7.57,5-1.34,5-1.34-3.09-2.85-1.67-4.71,4.26,0,4.26,0-3.92-11.3,3.35-9.53c0,0-1.76-8,4.62-4.62,0,0-.48-7.82,5.59-7.82s5.06,8.76,5.06,8.76.59-4,3.82-2.85.4,7.78.4,7.78,2.7-3.56,6.39-1.36,1,8.81,1,8.81a4.29,4.29,0,0,1,3.68-1.52c2.71,0,1,5.08-2,6.27,0,0,6.82-1,.64,5.87,0,0,2.47-1.59,3.55.64s-1.85,5.75-6.32,7.13c0,0,3.55-1.38,3.55,2.13s-6.64,3.2-6.64,3.2,4.78,1.41,1.54,3.69-8.75.27-11.63-4.48"/><path class="cls-3" d="M344.81,284.94s-2.26,6.45-9,5.6-3.9-3.62-3.9-3.62-5.24,2.34-9.25-.35,4.21-3.47,4.21-3.47-10.31-.91-10.8-6.1,6.22-2.83,6.22-2.83-9.33-4.63-8.19-9.6,6.39-1.69,6.39-1.69-3.93-3.61-2.13-6,5.4,0,5.4,0-5-14.33,4.26-12.08c0,0-2.23-10.15,5.86-5.86,0,0-.61-9.93,7.09-9.93s6.42,11.12,6.42,11.12.76-5.08,4.85-3.61.5,9.86.5,9.86,3.43-4.52,8.11-1.72,1.24,11.18,1.24,11.18,1.25-1.94,4.68-1.94,1.25,6.45-2.49,8c0,0,8.65-1.33.81,7.45,0,0,3.14-2,4.51.81s-2.35,7.3-8,9.05c0,0,4.5-1.75,4.5,2.7s-8.42,4.06-8.42,4.06,6.07,1.79,2,4.68S348.46,291,344.81,284.94Z"/><path class="cls-4" d="M354,295.56s-1.78,5.08-7.13,4.41-3.08-2.84-3.08-2.84-4.13,1.84-7.29-.28,3.32-2.74,3.32-2.74-8.13-.71-8.51-4.81,4.9-2.22,4.9-2.22-7.36-3.65-6.45-7.57,5-1.34,5-1.34-3.1-2.85-1.68-4.72,4.26,0,4.26,0-3.91-11.29,3.36-9.52c0,0-1.76-8,4.62-4.62,0,0-.48-7.83,5.58-7.83s5.07,8.77,5.07,8.77.59-4,3.82-2.85.4,7.77.4,7.77,2.7-3.55,6.38-1.35,1,8.81,1,8.81a4.29,4.29,0,0,1,3.68-1.52c2.7,0,1,5.08-2,6.27,0,0,6.82-1.05.65,5.87,0,0,2.47-1.6,3.55.64s-1.85,5.75-6.33,7.13c0,0,3.55-1.38,3.55,2.13s-6.63,3.2-6.63,3.2,4.78,1.41,1.54,3.69-8.76.27-11.63-4.48"/><path class="cls-3" d="M336.42,316.47s-2.62,7.49-10.5,6.5-4.54-4.2-4.54-4.2-6.09,2.72-10.75-.41,4.9-4,4.9-4-12-1.05-12.56-7.08S310.2,304,310.2,304s-10.84-5.39-9.51-11.16,7.42-2,7.42-2-4.57-4.2-2.47-7,6.28,0,6.28,0-5.78-16.65,4.94-14c0,0-2.6-11.79,6.81-6.81,0,0-.7-11.54,8.24-11.54s7.47,12.92,7.47,12.92.87-5.89,5.63-4.19.58,11.46.58,11.46,4-5.25,9.42-2,1.45,13,1.45,13,1.45-2.25,5.43-2.25,1.45,7.5-2.9,9.25c0,0,10.06-1.54.95,8.66,0,0,3.64-2.36,5.24.94s-2.73,8.48-9.33,10.52c0,0,5.23-2,5.23,3.13s-9.78,4.71-9.78,4.71,7.05,2.09,2.27,5.44S340.66,323.47,336.42,316.47Z"/><path class="cls-4" d="M340.49,329.21s-2.26,6.45-9,5.6-3.91-3.62-3.91-3.62-5.24,2.34-9.24-.35,4.21-3.47,4.21-3.47-10.31-.91-10.81-6.1,6.23-2.83,6.23-2.83-9.34-4.62-8.19-9.59,6.38-1.7,6.38-1.7-3.92-3.61-2.12-6,5.4,0,5.4,0-5-14.33,4.25-12.08c0,0-2.23-10.15,5.86-5.86,0,0-.6-9.93,7.09-9.93S343,284.42,343,284.42s.76-5.08,4.85-3.61.5,9.86.5,9.86,3.43-4.52,8.1-1.72,1.25,11.17,1.25,11.17,1.25-1.93,4.68-1.93,1.24,6.45-2.5,7.95c0,0,8.65-1.32.82,7.45,0,0,3.13-2,4.5.81s-2.35,7.3-8,9.05c0,0,4.5-1.75,4.5,2.7s-8.42,4.05-8.42,4.05,6.07,1.8,2,4.68-11.11.35-14.75-5.67"/><path class="cls-3" d="M223.58,138.7s-2.26,6.45-9,5.6-3.9-3.62-3.9-3.62-5.24,2.34-9.25-.35,4.21-3.47,4.21-3.47-10.31-.91-10.8-6.1,6.22-2.83,6.22-2.83-9.33-4.63-8.19-9.6,6.39-1.69,6.39-1.69-3.93-3.61-2.13-6,5.4,0,5.4,0-5-14.32,4.26-12.08c0,0-2.24-10.15,5.86-5.86,0,0-.61-9.93,7.09-9.93s6.42,11.12,6.42,11.12.76-5.08,4.85-3.61.5,9.86.5,9.86,3.43-4.51,8.11-1.72,1.24,11.18,1.24,11.18,1.25-1.93,4.68-1.93,1.24,6.45-2.5,7.95c0,0,8.66-1.33.82,7.45,0,0,3.14-2,4.51.81s-2.35,7.3-8,9c0,0,4.5-1.75,4.5,2.7s-8.42,4.06-8.42,4.06,6.07,1.79,2,4.68S227.23,144.73,223.58,138.7Z"/><path class="cls-4" d="M222.39,145.1s-1.78,5.08-7.12,4.41-3.08-2.84-3.08-2.84-4.13,1.84-7.29-.28,3.32-2.74,3.32-2.74-8.13-.71-8.52-4.81,4.91-2.22,4.91-2.22-7.36-3.65-6.46-7.57,5-1.34,5-1.34-3.1-2.85-1.68-4.72,4.26,0,4.26,0-3.92-11.29,3.35-9.52c0,0-1.76-8,4.62-4.62,0,0-.48-7.83,5.59-7.83s5.06,8.77,5.06,8.77.6-4,3.82-2.85.4,7.77.4,7.77,2.7-3.55,6.39-1.35,1,8.81,1,8.81a4.3,4.3,0,0,1,3.69-1.52c2.7,0,1,5.08-2,6.27,0,0,6.82-1,.65,5.87,0,0,2.47-1.6,3.55.64s-1.86,5.75-6.33,7.13c0,0,3.55-1.38,3.55,2.13s-6.64,3.2-6.64,3.2,4.79,1.41,1.54,3.69-8.75.27-11.63-4.48"/><path class="cls-3" d="M199.92,163.44s-2.26,6.45-9,5.6-3.91-3.61-3.91-3.61-5.24,2.34-9.24-.36,4.21-3.47,4.21-3.47-10.32-.9-10.81-6.1,6.22-2.82,6.22-2.82-9.33-4.63-8.18-9.6,6.38-1.7,6.38-1.7-3.93-3.61-2.13-6,5.41,0,5.41,0-5-14.33,4.25-12.09c0,0-2.23-10.14,5.86-5.85,0,0-.6-9.93,7.09-9.93s6.43,11.11,6.43,11.11.75-5.07,4.84-3.6.51,9.85.51,9.85,3.43-4.51,8.1-1.72,1.25,11.18,1.25,11.18,1.24-1.93,4.67-1.93,1.25,6.45-2.49,8c0,0,8.65-1.32.82,7.46,0,0,3.13-2,4.5.81s-2.35,7.29-8,9.05c0,0,4.51-1.76,4.51,2.7s-8.42,4.05-8.42,4.05,6.07,1.8,2,4.68S203.57,169.47,199.92,163.44Z"/><path class="cls-4" d="M197.82,166.2s-1.79,5.08-7.13,4.41-3.08-2.85-3.08-2.85-4.13,1.84-7.29-.28,3.32-2.74,3.32-2.74-8.13-.71-8.51-4.8,4.9-2.23,4.9-2.23-7.36-3.65-6.45-7.57,5-1.33,5-1.33-3.1-2.85-1.68-4.72,4.26,0,4.26,0-3.91-11.3,3.36-9.53c0,0-1.77-8,4.62-4.61,0,0-.48-7.83,5.58-7.83s5.07,8.76,5.07,8.76.59-4,3.82-2.84.39,7.77.39,7.77,2.71-3.56,6.39-1.36,1,8.82,1,8.82a4.31,4.31,0,0,1,3.69-1.53c2.7,0,1,5.08-2,6.27,0,0,6.82-1,.65,5.88,0,0,2.47-1.6,3.55.63s-1.85,5.75-6.33,7.14c0,0,3.55-1.39,3.55,2.13S207.9,167,207.9,167s4.79,1.42,1.55,3.69-8.76.28-11.63-4.47"/><path class="cls-3" d="M180.11,181.69s-2.26,6.45-9,5.6-3.9-3.62-3.9-3.62-5.24,2.34-9.25-.35,4.21-3.48,4.21-3.48-10.31-.9-10.8-6.09,6.22-2.83,6.22-2.83-9.33-4.63-8.19-9.6,6.39-1.69,6.39-1.69-3.93-3.62-2.13-6,5.4,0,5.4,0-5-14.33,4.26-12.08c0,0-2.24-10.15,5.86-5.86,0,0-.61-9.93,7.09-9.93s6.42,11.12,6.42,11.12.76-5.08,4.85-3.61.5,9.86.5,9.86,3.43-4.52,8.11-1.72,1.24,11.18,1.24,11.18,1.25-1.94,4.68-1.94,1.24,6.45-2.5,8c0,0,8.66-1.33.82,7.45,0,0,3.14-2,4.51.81s-2.35,7.29-8,9.05c0,0,4.5-1.76,4.5,2.7s-8.42,4.05-8.42,4.05,6.07,1.8,2,4.68S183.76,187.71,180.11,181.69Z"/><path class="cls-4" d="M180.32,184s-1.78,5.09-7.13,4.42-3.08-2.85-3.08-2.85-4.13,1.84-7.28-.28,3.32-2.74,3.32-2.74-8.13-.71-8.52-4.81,4.9-2.22,4.9-2.22-7.35-3.65-6.45-7.57,5-1.33,5-1.33-3.09-2.85-1.67-4.72,4.25,0,4.25,0-3.91-11.3,3.36-9.53c0,0-1.76-8,4.62-4.62,0,0-.48-7.82,5.59-7.82s5.06,8.76,5.06,8.76.59-4,3.82-2.84.4,7.77.4,7.77,2.7-3.56,6.38-1.36,1,8.82,1,8.82a4.28,4.28,0,0,1,3.68-1.53c2.7,0,1,5.08-2,6.27,0,0,6.82-1,.64,5.87,0,0,2.47-1.59,3.55.64s-1.85,5.75-6.33,7.14c0,0,3.55-1.39,3.55,2.13s-6.63,3.19-6.63,3.19,4.78,1.42,1.54,3.69-8.76.28-11.63-4.48"/><path class="cls-3" d="M157.43,197.15s-2.26,6.45-9,5.6-3.9-3.61-3.9-3.61-5.24,2.33-9.25-.36,4.21-3.47,4.21-3.47-10.31-.9-10.8-6.1,6.22-2.82,6.22-2.82-9.33-4.63-8.19-9.6,6.39-1.7,6.39-1.7-3.93-3.61-2.13-6,5.4,0,5.4,0-5-14.33,4.26-12.09c0,0-2.24-10.15,5.86-5.86,0,0-.61-9.93,7.09-9.93S160,152.35,160,152.35s.76-5.08,4.85-3.61.5,9.86.5,9.86,3.43-4.51,8.11-1.72,1.24,11.18,1.24,11.18,1.25-1.93,4.68-1.93,1.24,6.45-2.5,8c0,0,8.66-1.32.82,7.45,0,0,3.14-2,4.51.82s-2.35,7.29-8,9c0,0,4.5-1.75,4.5,2.71s-8.42,4.05-8.42,4.05,6.07,1.79,2,4.68S161.08,203.18,157.43,197.15Z"/><path class="cls-4" d="M159.61,200.77s-1.78,5.09-7.13,4.42-3.07-2.85-3.07-2.85-4.13,1.84-7.29-.28,3.32-2.74,3.32-2.74-8.13-.71-8.52-4.81,4.9-2.22,4.9-2.22-7.35-3.65-6.45-7.57,5-1.33,5-1.33-3.09-2.85-1.67-4.72,4.26,0,4.26,0-3.92-11.3,3.35-9.53c0,0-1.76-8,4.62-4.62,0,0-.48-7.82,5.59-7.82s5.06,8.76,5.06,8.76.6-4,3.82-2.84.4,7.77.4,7.77,2.7-3.56,6.39-1.36,1,8.81,1,8.81a4.29,4.29,0,0,1,3.68-1.52c2.71,0,1,5.08-2,6.27,0,0,6.82-1.05.64,5.87,0,0,2.47-1.59,3.55.64s-1.85,5.75-6.32,7.14c0,0,3.55-1.39,3.55,2.13s-6.64,3.19-6.64,3.19,4.78,1.41,1.54,3.69-8.75.27-11.63-4.48"/><path class="cls-3" d="M138.21,217.86s-2.27,6.45-9.05,5.6-3.9-3.62-3.9-3.62-5.24,2.34-9.25-.35,4.21-3.47,4.21-3.47-10.31-.91-10.8-6.1,6.22-2.83,6.22-2.83-9.33-4.63-8.19-9.6,6.39-1.69,6.39-1.69-3.93-3.61-2.13-6,5.4,0,5.4,0-5-14.33,4.26-12.08c0,0-2.23-10.15,5.86-5.86,0,0-.61-9.93,7.09-9.93s6.42,11.12,6.42,11.12.76-5.08,4.85-3.61.5,9.86.5,9.86,3.43-4.51,8.11-1.72,1.24,11.18,1.24,11.18,1.25-1.94,4.68-1.94,1.25,6.45-2.49,8c0,0,8.65-1.33.81,7.45,0,0,3.14-2,4.51.81s-2.35,7.3-8,9c0,0,4.5-1.75,4.5,2.7s-8.42,4.06-8.42,4.06,6.07,1.79,2,4.68S141.85,223.89,138.21,217.86Z"/><path class="cls-4" d="M137.59,221.48s-1.78,5.09-7.13,4.41-3.08-2.84-3.08-2.84-4.13,1.84-7.28-.28,3.32-2.74,3.32-2.74-8.13-.71-8.52-4.81,4.9-2.22,4.9-2.22-7.35-3.65-6.45-7.57,5-1.34,5-1.34-3.09-2.85-1.67-4.71,4.25,0,4.25,0-3.91-11.3,3.36-9.53c0,0-1.76-8,4.62-4.62,0,0-.48-7.82,5.59-7.82s5.06,8.76,5.06,8.76.59-4,3.82-2.85.4,7.78.4,7.78,2.7-3.56,6.38-1.36,1,8.81,1,8.81a4.29,4.29,0,0,1,3.68-1.52c2.7,0,1,5.08-2,6.27,0,0,6.82-1.05.64,5.87,0,0,2.47-1.59,3.55.64s-1.85,5.75-6.33,7.13c0,0,3.55-1.38,3.55,2.13s-6.63,3.2-6.63,3.2,4.78,1.41,1.54,3.69-8.76.27-11.63-4.48"/><path class="cls-3" d="M118,234.33s-2.26,6.45-9,5.6-3.91-3.62-3.91-3.62-5.24,2.34-9.24-.35,4.21-3.47,4.21-3.47-10.31-.91-10.81-6.1,6.23-2.83,6.23-2.83-9.34-4.63-8.19-9.6,6.38-1.69,6.38-1.69-3.92-3.61-2.12-6,5.4,0,5.4,0-5-14.32,4.26-12.08c0,0-2.24-10.15,5.86-5.86,0,0-.61-9.93,7.08-9.93s6.43,11.12,6.43,11.12.75-5.08,4.85-3.61.5,9.86.5,9.86,3.43-4.51,8.1-1.72,1.25,11.18,1.25,11.18,1.25-1.93,4.67-1.93,1.25,6.44-2.49,7.95c0,0,8.65-1.33.82,7.45,0,0,3.13-2,4.5.81s-2.35,7.3-8,9c0,0,4.5-1.75,4.5,2.7s-8.42,4.06-8.42,4.06,6.07,1.79,2,4.68S121.64,240.36,118,234.33Z"/><path class="cls-4" d="M118.69,238s-1.78,5.09-7.13,4.42-3.08-2.85-3.08-2.85-4.13,1.84-7.28-.28,3.32-2.74,3.32-2.74-8.13-.71-8.52-4.81,4.9-2.22,4.9-2.22-7.35-3.65-6.45-7.57,5-1.34,5-1.34-3.09-2.84-1.67-4.71,4.25,0,4.25,0-3.91-11.3,3.36-9.53c0,0-1.76-8,4.62-4.62,0,0-.48-7.82,5.59-7.82s5.06,8.76,5.06,8.76.59-4,3.82-2.84.4,7.77.4,7.77,2.7-3.56,6.38-1.36,1,8.81,1,8.81A4.29,4.29,0,0,1,136,213.5c2.7,0,1,5.08-2,6.27,0,0,6.82-1.05.64,5.87,0,0,2.47-1.59,3.55.64s-1.85,5.75-6.33,7.13c0,0,3.55-1.38,3.55,2.13s-6.63,3.2-6.63,3.2,4.78,1.41,1.54,3.69-8.76.27-11.63-4.48"/><path class="cls-3" d="M101.21,250.34s-2.27,6.45-9,5.59-3.9-3.61-3.9-3.61S83,254.66,79,252s4.22-3.48,4.22-3.48-10.32-.9-10.81-6.1,6.22-2.82,6.22-2.82-9.33-4.63-8.19-9.6,6.39-1.69,6.39-1.69-3.93-3.62-2.13-6,5.4,0,5.4,0-5-14.33,4.26-12.08c0,0-2.23-10.15,5.86-5.86,0,0-.61-9.93,7.09-9.93s6.42,11.12,6.42,11.12.76-5.08,4.85-3.61.5,9.86.5,9.86,3.43-4.52,8.11-1.72,1.24,11.18,1.24,11.18,1.25-1.94,4.68-1.94,1.25,6.45-2.49,8c0,0,8.65-1.33.81,7.45,0,0,3.14-2,4.51.81s-2.35,7.29-8,9.05c0,0,4.5-1.76,4.5,2.7s-8.42,4.05-8.42,4.05,6.07,1.8,2,4.68S104.85,256.36,101.21,250.34Z"/><path class="cls-4" d="M105.37,254.09s-1.78,5.08-7.13,4.41-3.07-2.84-3.07-2.84-4.13,1.84-7.29-.28,3.32-2.74,3.32-2.74-8.13-.71-8.52-4.81,4.9-2.22,4.9-2.22S80.23,242,81.13,238s5-1.34,5-1.34-3.1-2.85-1.68-4.71,4.26,0,4.26,0-3.92-11.3,3.35-9.53c0,0-1.76-8,4.62-4.62,0,0-.48-7.82,5.59-7.82s5.06,8.76,5.06,8.76.6-4,3.82-2.85.4,7.78.4,7.78,2.7-3.56,6.39-1.36,1,8.81,1,8.81a4.29,4.29,0,0,1,3.68-1.52c2.71,0,1,5.08-2,6.27,0,0,6.82-1,.64,5.87,0,0,2.47-1.6,3.55.64s-1.85,5.75-6.32,7.13c0,0,3.55-1.38,3.55,2.13s-6.64,3.2-6.64,3.2,4.78,1.41,1.54,3.69-8.75.27-11.63-4.48"/><path class="cls-3" d="M82.33,271.54s-2.26,6.45-9,5.6-3.91-3.62-3.91-3.62-5.24,2.34-9.24-.35,4.21-3.48,4.21-3.48-10.32-.9-10.81-6.1,6.22-2.82,6.22-2.82-9.33-4.63-8.18-9.6S58,249.48,58,249.48s-3.93-3.62-2.13-6,5.41,0,5.41,0-5-14.33,4.25-12.08c0,0-2.23-10.15,5.86-5.86,0,0-.6-9.93,7.09-9.93s6.43,11.12,6.43,11.12.75-5.08,4.84-3.61.51,9.86.51,9.86,3.43-4.52,8.1-1.72,1.25,11.18,1.25,11.18,1.24-1.94,4.67-1.94,1.25,6.45-2.49,8c0,0,8.65-1.33.82,7.45,0,0,3.13-2,4.5.81s-2.35,7.29-8,9c0,0,4.51-1.76,4.51,2.7s-8.42,4-8.42,4,6.07,1.8,2,4.68S86,277.56,82.33,271.54Z"/><path class="cls-4" d="M85.28,276.53s-1.78,5.09-7.13,4.42-3.07-2.85-3.07-2.85-4.13,1.84-7.29-.28,3.32-2.74,3.32-2.74-8.13-.71-8.52-4.81,4.9-2.22,4.9-2.22-7.35-3.65-6.45-7.57,5-1.33,5-1.33S63,256.3,64.4,254.43s4.26,0,4.26,0-3.92-11.3,3.35-9.53c0,0-1.76-8,4.62-4.62,0,0-.48-7.82,5.59-7.82s5.06,8.76,5.06,8.76.59-4,3.82-2.84.4,7.77.4,7.77,2.7-3.56,6.39-1.36,1,8.81,1,8.81a4.29,4.29,0,0,1,3.68-1.52c2.71,0,1,5.08-2,6.27,0,0,6.82-1.05.64,5.87,0,0,2.47-1.59,3.55.64s-1.85,5.75-6.32,7.14c0,0,3.55-1.39,3.55,2.13s-6.64,3.19-6.64,3.19,4.78,1.42,1.54,3.69-8.75.28-11.63-4.48"/><path class="cls-3" d="M62.11,293.23s-2.26,6.45-9,5.6-3.9-3.61-3.9-3.61-5.24,2.33-9.25-.36,4.21-3.47,4.21-3.47-10.31-.91-10.8-6.1,6.22-2.82,6.22-2.82-9.33-4.64-8.19-9.6,6.39-1.7,6.39-1.7-3.93-3.61-2.13-6,5.4,0,5.4,0-5-14.32,4.26-12.08c0,0-2.24-10.15,5.86-5.86,0,0-.61-9.93,7.09-9.93s6.42,11.12,6.42,11.12.76-5.08,4.85-3.61.5,9.86.5,9.86,3.43-4.51,8.11-1.72,1.24,11.18,1.24,11.18,1.25-1.93,4.68-1.93,1.24,6.45-2.5,8c0,0,8.66-1.33.82,7.45,0,0,3.14-2,4.51.81s-2.35,7.3-8,9.05c0,0,4.5-1.75,4.5,2.71s-8.42,4.05-8.42,4.05,6.07,1.79,2,4.68S65.76,299.26,62.11,293.23Z"/><path class="cls-4" d="M63.28,297.27s-1.79,5.08-7.13,4.41-3.08-2.85-3.08-2.85-4.13,1.84-7.29-.28,3.32-2.74,3.32-2.74S41,295.1,40.59,291s4.9-2.23,4.9-2.23-7.36-3.65-6.45-7.57,5-1.33,5-1.33S41,277,42.39,275.16s4.26,0,4.26,0-3.91-11.3,3.36-9.53c0,0-1.76-8,4.62-4.61,0,0-.48-7.83,5.58-7.83S65.28,262,65.28,262s.59-4,3.82-2.84.39,7.77.39,7.77,2.71-3.56,6.39-1.36,1,8.82,1,8.82a4.31,4.31,0,0,1,3.69-1.53c2.7,0,1,5.08-2,6.27,0,0,6.82-1,.65,5.88,0,0,2.47-1.6,3.55.63s-1.85,5.75-6.33,7.14c0,0,3.55-1.39,3.55,2.13s-6.63,3.19-6.63,3.19,4.78,1.42,1.54,3.69-8.76.28-11.63-4.47"/><path class="cls-5" d="M276.19,104.18s-.07-23.5-13.63-25.86a36.66,36.66,0,0,0-23.65,3.83S276.42,48.23,276.19,104.18Z"/><path class="cls-5" d="M302.69,67.42s-31.54-2.34-26.5,36.76C283.35,86.31,279.16,75.24,302.69,67.42Z"/><path class="cls-5" d="M260.26,45s19.11,37.18,15.93,59.22C285.19,62.14,260.26,45,260.26,45Z"/><path class="cls-5" d="M276.2,85.09s-1.35-23.32,12-29.38S311.84,53,311.84,53,272.59,29.67,276.2,85.09Z"/><path class="cls-5" d="M247.7,55.91s31.14-11,28.5,29.18C268,69.33,271.5,57.2,247.7,55.91Z"/><path class="cls-5" d="M288.42,22s-16.71,42.12-12.22,63.1C264.73,45.87,288.42,22,288.42,22Z"/><path class="cls-5" d="M367.32,103.87s-.07-23.5-13.63-25.86A36.66,36.66,0,0,0,330,81.84S367.55,47.91,367.32,103.87Z"/><path class="cls-5" d="M393.83,67.11s-31.55-2.35-26.51,36.76C374.49,86,370.3,74.92,393.83,67.11Z"/><path class="cls-5" d="M351.39,44.64s19.12,37.19,15.93,59.23C376.32,61.82,351.39,44.64,351.39,44.64Z"/><path class="cls-5" d="M367.33,84.77s-1.35-23.32,12-29.38S403,52.7,403,52.7,363.73,29.35,367.33,84.77Z"/><path class="cls-5" d="M338.83,55.59s31.14-11,28.5,29.18C359.15,69,362.63,56.88,338.83,55.59Z"/><path class="cls-5" d="M379.55,21.67s-16.71,42.12-12.22,63.1C355.87,45.55,379.55,21.67,379.55,21.67Z"/><path class="cls-3" d="M337.35,104.18s-.07-23.5-13.63-25.86a36.66,36.66,0,0,0-23.65,3.83S337.58,48.23,337.35,104.18Z"/><path class="cls-3" d="M363.86,67.42s-31.55-2.34-26.51,36.76C344.52,86.31,340.33,75.24,363.86,67.42Z"/><path class="cls-3" d="M321.42,45s19.12,37.18,15.93,59.22C346.35,62.14,321.42,45,321.42,45Z"/><path class="cls-3" d="M337.36,85.09s-1.34-23.32,12-29.38S373,53,373,53,333.76,29.67,337.36,85.09Z"/><path class="cls-3" d="M308.86,55.91s31.14-11,28.5,29.18C329.18,69.33,332.66,57.2,308.86,55.91Z"/><path class="cls-3" d="M349.58,22s-16.71,42.12-12.22,63.1C325.9,45.87,349.58,22,349.58,22Z"/><path class="cls-3" d="M385.58,101.5S385.51,78,372,75.64a36.66,36.66,0,0,0-23.65,3.83S385.81,45.55,385.58,101.5Z"/><path class="cls-3" d="M412.09,64.74s-31.55-2.35-26.51,36.76C392.75,83.63,388.56,72.55,412.09,64.74Z"/><path class="cls-3" d="M369.65,42.27s19.12,37.19,15.93,59.23C394.58,59.46,369.65,42.27,369.65,42.27Z"/><path class="cls-3" d="M385.59,82.4s-1.34-23.32,12-29.38,23.69-2.69,23.69-2.69S382,27,385.59,82.4Z"/><path class="cls-3" d="M357.09,53.22s31.14-11,28.5,29.18C377.41,66.65,380.89,54.52,357.09,53.22Z"/><path class="cls-3" d="M397.81,19.31S381.1,61.42,385.59,82.4C374.13,43.18,397.81,19.31,397.81,19.31Z"/><path class="cls-5" d="M305.87,104.18s-.07-23.5-13.63-25.86a36.66,36.66,0,0,0-23.65,3.83S306.1,48.23,305.87,104.18Z"/><path class="cls-5" d="M332.38,67.42s-31.55-2.34-26.51,36.76C313,86.31,308.85,75.24,332.38,67.42Z"/><path class="cls-5" d="M290,45s19.11,37.18,15.92,59.22C314.88,62.14,290,45,290,45Z"/><path class="cls-5" d="M305.89,85.09s-1.35-23.32,11.95-29.38S341.53,53,341.53,53,302.28,29.67,305.89,85.09Z"/><path class="cls-5" d="M277.38,55.91s31.14-11,28.51,29.18C297.7,69.33,301.19,57.2,277.38,55.91Z"/><path class="cls-5" d="M318.1,22s-16.7,42.12-12.21,63.1C294.42,45.87,318.1,22,318.1,22Z"/><path class="cls-6" d="M308.65,104.18s-.07-23.5-13.63-25.86a36.66,36.66,0,0,0-23.65,3.83S308.88,48.23,308.65,104.18Z"/><path class="cls-6" d="M335.16,67.42s-31.55-2.34-26.51,36.76C315.82,86.31,311.63,75.24,335.16,67.42Z"/><path class="cls-6" d="M292.73,45s19.11,37.18,15.92,59.22C317.66,62.14,292.73,45,292.73,45Z"/><path class="cls-6" d="M308.67,85.09s-1.35-23.32,11.95-29.38S344.31,53,344.31,53,305.06,29.67,308.67,85.09Z"/><path class="cls-6" d="M280.16,55.91s31.14-11,28.51,29.18C300.48,69.33,304,57.2,280.16,55.91Z"/><path class="cls-6" d="M320.88,22s-16.7,42.12-12.21,63.1C297.2,45.87,320.88,22,320.88,22Z"/><path class="cls-3" d="M295.8,104.18s-.07-23.5-13.63-25.86a36.66,36.66,0,0,0-23.65,3.83S296,48.23,295.8,104.18Z"/><path class="cls-3" d="M322.3,67.42s-31.54-2.34-26.5,36.76C303,86.31,298.77,75.24,322.3,67.42Z"/><path class="cls-3" d="M279.87,45S299,82.14,295.8,104.18C304.8,62.14,279.87,45,279.87,45Z"/><path class="cls-3" d="M295.81,85.09s-1.35-23.32,12-29.38S331.45,53,331.45,53,292.2,29.67,295.81,85.09Z"/><path class="cls-3" d="M267.31,55.91s31.14-11,28.5,29.18C287.63,69.33,291.11,57.2,267.31,55.91Z"/><path class="cls-3" d="M308,22s-16.71,42.12-12.22,63.1C284.34,45.87,308,22,308,22Z"/><path class="cls-6" d="M359.42,103.32s-.07-23.5-13.63-25.86a36.66,36.66,0,0,0-23.65,3.83S359.65,47.37,359.42,103.32Z"/><path class="cls-6" d="M385.92,66.56s-31.54-2.35-26.5,36.76C366.58,85.45,362.39,74.37,385.92,66.56Z"/><path class="cls-6" d="M343.49,44.1s19.11,37.18,15.93,59.22C368.42,61.28,343.49,44.1,343.49,44.1Z"/><path class="cls-6" d="M359.43,84.23s-1.35-23.33,12-29.39,23.68-2.69,23.68-2.69S355.82,28.8,359.43,84.23Z"/><path class="cls-6" d="M330.93,55s31.14-11,28.5,29.19C351.25,68.47,354.73,56.34,330.93,55Z"/><path class="cls-6" d="M371.65,21.13s-16.71,42.11-12.22,63.1C348,45,371.65,21.13,371.65,21.13Z"/><path class="cls-5" d="M316.7,103.87s-.07-23.5-13.63-25.86a36.68,36.68,0,0,0-23.66,3.83S316.93,47.91,316.7,103.87Z"/><path class="cls-5" d="M343.2,67.11s-31.54-2.35-26.5,36.76C323.86,86,319.67,74.92,343.2,67.11Z"/><path class="cls-5" d="M300.77,44.64s19.11,37.19,15.93,59.23C325.7,61.82,300.77,44.64,300.77,44.64Z"/><path class="cls-5" d="M316.71,84.77s-1.35-23.32,12-29.38,23.69-2.69,23.69-2.69S313.1,29.35,316.71,84.77Z"/><path class="cls-5" d="M288.2,55.59s31.14-11,28.51,29.18C308.52,69,312,56.88,288.2,55.59Z"/><path class="cls-5" d="M328.93,21.67s-16.71,42.12-12.22,63.1C305.24,45.55,328.93,21.67,328.93,21.67Z"/><path class="cls-6" d="M375.8,100.76s-.07-23.49-13.63-25.85a36.66,36.66,0,0,0-23.65,3.83S376,44.81,375.8,100.76Z"/><path class="cls-6" d="M402.3,64s-31.54-2.35-26.5,36.75C383,82.9,378.77,71.82,402.3,64Z"/><path class="cls-6" d="M359.87,41.54S379,78.73,375.8,100.76C384.8,58.72,359.87,41.54,359.87,41.54Z"/><path class="cls-6" d="M375.81,81.67s-1.35-23.32,12-29.38,23.68-2.69,23.68-2.69S372.2,26.25,375.81,81.67Z"/><path class="cls-6" d="M347.31,52.49s31.14-11,28.5,29.18C367.63,65.92,371.11,53.78,347.31,52.49Z"/><path class="cls-6" d="M388,18.57s-16.71,42.12-12.22,63.1C364.34,42.45,388,18.57,388,18.57Z"/><path class="cls-3" d="M279.6,106.16a4.3,4.3,0,0,1-4.52,2.8c-3.39-.43-1.95-1.81-1.95-1.81s-2.62,1.17-4.62-.18,2.11-1.73,2.11-1.73-5.16-.45-5.41-3,3.11-1.41,3.11-1.41-4.66-2.32-4.09-4.8,3.19-.85,3.19-.85-2-1.81-1.06-3,2.7,0,2.7,0-2.48-7.17,2.13-6c0,0-1.12-5.08,2.93-2.93,0,0-.31-5,3.54-5s3.21,5.56,3.21,5.56.38-2.54,2.43-1.8.25,4.93.25,4.93A3.12,3.12,0,0,1,287.6,86c2.33,1.39.62,5.59.62,5.59a2.72,2.72,0,0,1,2.34-1c1.71,0,.62,3.22-1.25,4,0,0,4.33-.67.41,3.72,0,0,1.57-1,2.25.41s-1.17,3.64-4,4.52c0,0,2.25-.88,2.25,1.35s-4.21,2-4.21,2,3,.89,1,2.34-5.55.17-7.38-2.84"/><path class="cls-3" d="M297.42,104.09a4.29,4.29,0,0,1-4.52,2.8c-3.39-.42-1.95-1.8-1.95-1.8s-2.62,1.17-4.62-.18,2.11-1.74,2.11-1.74-5.16-.45-5.41-3,3.11-1.41,3.11-1.41-4.66-2.31-4.09-4.8,3.19-.84,3.19-.84-2-1.81-1.06-3,2.7,0,2.7,0-2.48-7.16,2.13-6c0,0-1.12-5.07,2.93-2.93,0,0-.31-5,3.54-5s3.21,5.56,3.21,5.56.38-2.54,2.43-1.81.25,4.93.25,4.93a3.13,3.13,0,0,1,4.05-.86c2.34,1.4.62,5.59.62,5.59a2.72,2.72,0,0,1,2.34-1c1.71,0,.62,3.23-1.25,4,0,0,4.33-.66.41,3.73,0,0,1.57-1,2.25.4s-1.17,3.65-4,4.53c0,0,2.25-.88,2.25,1.35s-4.21,2-4.21,2,3,.9,1,2.34-5.55.18-7.38-2.84"/><path class="cls-3" d="M324.65,104.09a4.29,4.29,0,0,1-4.52,2.8c-3.39-.42-2-1.8-2-1.8s-2.61,1.17-4.62-.18,2.11-1.74,2.11-1.74-5.16-.45-5.4-3,3.11-1.41,3.11-1.41-4.67-2.31-4.1-4.8,3.2-.84,3.2-.84-2-1.81-1.07-3,2.7,0,2.7,0-2.48-7.16,2.13-6c0,0-1.12-5.07,2.93-2.93,0,0-.3-5,3.54-5s3.22,5.56,3.22,5.56.37-2.54,2.42-1.81.25,4.93.25,4.93a3.13,3.13,0,0,1,4.05-.86c2.34,1.4.62,5.59.62,5.59a2.74,2.74,0,0,1,2.34-1c1.71,0,.62,3.23-1.25,4,0,0,4.33-.66.41,3.73,0,0,1.57-1,2.26.4s-1.18,3.65-4,4.53c0,0,2.25-.88,2.25,1.35s-4.21,2-4.21,2,3,.9,1,2.34-5.55.18-7.37-2.84"/><path class="cls-3" d="M307.5,104.09a4.29,4.29,0,0,1-4.52,2.8c-3.39-.42-2-1.8-2-1.8s-2.62,1.17-4.63-.18,2.11-1.74,2.11-1.74-5.16-.45-5.4-3,3.11-1.41,3.11-1.41-4.67-2.31-4.09-4.8,3.19-.84,3.19-.84-2-1.81-1.07-3,2.71,0,2.71,0-2.49-7.16,2.12-6c0,0-1.11-5.07,2.93-2.93,0,0-.3-5,3.55-5s3.21,5.56,3.21,5.56.37-2.54,2.42-1.81.25,4.93.25,4.93a3.13,3.13,0,0,1,4.05-.86c2.34,1.4.63,5.59.63,5.59a2.71,2.71,0,0,1,2.33-1c1.72,0,.63,3.23-1.24,4,0,0,4.32-.66.41,3.73,0,0,1.56-1,2.25.4s-1.18,3.65-4,4.53c0,0,2.26-.88,2.26,1.35s-4.21,2-4.21,2,3,.9,1,2.34-5.56.18-7.38-2.84"/><path class="cls-3" d="M345,104.09a4.29,4.29,0,0,1-4.52,2.8c-3.39-.42-2-1.8-2-1.8s-2.62,1.17-4.62-.18,2.11-1.74,2.11-1.74-5.16-.45-5.4-3,3.11-1.41,3.11-1.41-4.67-2.31-4.1-4.8,3.2-.84,3.2-.84-2-1.81-1.07-3,2.7,0,2.7,0-2.48-7.16,2.13-6c0,0-1.12-5.07,2.93-2.93,0,0-.3-5,3.54-5s3.22,5.56,3.22,5.56.37-2.54,2.42-1.81.25,4.93.25,4.93a3.13,3.13,0,0,1,4.05-.86c2.34,1.4.62,5.59.62,5.59a2.74,2.74,0,0,1,2.34-1c1.71,0,.62,3.23-1.25,4,0,0,4.33-.66.41,3.73,0,0,1.57-1,2.26.4s-1.18,3.65-4,4.53c0,0,2.25-.88,2.25,1.35s-4.21,2-4.21,2,3,.9,1,2.34-5.55.18-7.37-2.84"/><path class="cls-3" d="M375.57,101.69a4.3,4.3,0,0,1-4.52,2.8c-3.39-.43-1.95-1.81-1.95-1.81s-2.62,1.17-4.62-.17,2.1-1.74,2.1-1.74-5.16-.45-5.4-3,3.11-1.41,3.11-1.41-4.67-2.32-4.09-4.8,3.19-.85,3.19-.85-2-1.8-1.06-3,2.7,0,2.7,0-2.49-7.16,2.12-6c0,0-1.11-5.07,2.93-2.93,0,0-.3-5,3.55-5s3.21,5.56,3.21,5.56.38-2.54,2.42-1.81.25,4.93.25,4.93a3.12,3.12,0,0,1,4.05-.86c2.34,1.4.63,5.59.63,5.59a2.71,2.71,0,0,1,2.33-1c1.72,0,.63,3.23-1.24,4,0,0,4.32-.66.41,3.72,0,0,1.56-1,2.25.41s-1.18,3.65-4,4.52c0,0,2.25-.87,2.25,1.35s-4.21,2-4.21,2,3,.9,1,2.34-5.56.17-7.38-2.84"/><path class="cls-3" d="M383.18,104.63a4.3,4.3,0,0,1-4.52,2.8c-3.39-.43-2-1.81-2-1.81s-2.62,1.17-4.63-.18,2.11-1.73,2.11-1.73-5.16-.46-5.4-3,3.11-1.41,3.11-1.41-4.67-2.32-4.09-4.8S371,93.6,371,93.6s-2-1.81-1.07-3,2.71,0,2.71,0-2.49-7.17,2.12-6c0,0-1.11-5.08,2.93-2.93,0,0-.3-5,3.55-5s3.21,5.56,3.21,5.56.37-2.54,2.42-1.8.25,4.93.25,4.93a3.12,3.12,0,0,1,4.05-.86c2.34,1.39.63,5.59.63,5.59a2.71,2.71,0,0,1,2.33-1c1.72,0,.63,3.22-1.24,4,0,0,4.32-.66.41,3.73,0,0,1.56-1,2.25.41s-1.18,3.64-4,4.52c0,0,2.26-.88,2.26,1.35s-4.21,2-4.21,2,3,.89,1,2.33-5.56.18-7.38-2.83"/><path class="cls-3" d="M355.15,104.51a4.3,4.3,0,0,1-4.52,2.8c-3.39-.43-1.95-1.81-1.95-1.81s-2.62,1.17-4.62-.18,2.11-1.73,2.11-1.73-5.16-.46-5.41-3,3.11-1.41,3.11-1.41-4.66-2.32-4.09-4.8,3.19-.85,3.19-.85-2-1.81-1.06-3,2.7,0,2.7,0-2.48-7.17,2.13-6c0,0-1.12-5.08,2.93-2.93,0,0-.31-5,3.54-5s3.21,5.56,3.21,5.56.38-2.54,2.43-1.8.25,4.93.25,4.93a3.12,3.12,0,0,1,4-.86c2.34,1.39.62,5.59.62,5.59a2.72,2.72,0,0,1,2.34-1c1.71,0,.62,3.22-1.25,4,0,0,4.33-.66.41,3.73,0,0,1.57-1,2.25.41s-1.17,3.64-4,4.52c0,0,2.25-.88,2.25,1.35s-4.21,2-4.21,2,3,.89,1,2.34-5.55.17-7.38-2.84"/><path class="cls-4" d="M279.14,109.1a2.92,2.92,0,0,1-3.07,1.9c-2.31-.29-1.33-1.23-1.33-1.23a3.58,3.58,0,0,1-3.14-.12c-1.36-.91,1.43-1.18,1.43-1.18s-3.51-.3-3.67-2.07,2.11-1,2.11-1-3.17-1.57-2.78-3.26,2.17-.58,2.17-.58-1.34-1.23-.72-2,1.83,0,1.83,0-1.69-4.87,1.45-4.11c0,0-.76-3.45,2-2,0,0-.21-3.37,2.41-3.37S280,93.88,280,93.88s.26-1.73,1.65-1.23.17,3.35.17,3.35a2.12,2.12,0,0,1,2.75-.58c1.59.94.43,3.79.43,3.79a1.84,1.84,0,0,1,1.58-.65c1.17,0,.43,2.19-.84,2.7,0,0,2.94-.45.27,2.53,0,0,1.07-.69,1.53.28s-.79,2.48-2.72,3.07c0,0,1.53-.59,1.53.92s-2.86,1.38-2.86,1.38,2.06.61.66,1.59-3.77.12-5-1.93"/><path class="cls-4" d="M299.88,106.69a2.92,2.92,0,0,1-3.07,1.9c-2.31-.28-1.33-1.22-1.33-1.22a3.61,3.61,0,0,1-3.14-.12c-1.36-.92,1.43-1.18,1.43-1.18s-3.51-.31-3.67-2.08,2.11-1,2.11-1-3.17-1.57-2.78-3.26,2.17-.57,2.17-.57-1.34-1.23-.72-2,1.83,0,1.83,0-1.69-4.87,1.45-4.1c0,0-.76-3.45,2-2,0,0-.21-3.38,2.41-3.38s2.18,3.78,2.18,3.78.26-1.72,1.65-1.23.17,3.35.17,3.35a2.12,2.12,0,0,1,2.75-.58c1.59.95.43,3.8.43,3.8a1.83,1.83,0,0,1,1.58-.66c1.17,0,.43,2.19-.84,2.7,0,0,2.94-.45.27,2.54,0,0,1.07-.69,1.54.27s-.8,2.48-2.73,3.08c0,0,1.53-.6,1.53.91s-2.86,1.38-2.86,1.38,2.06.61.66,1.59-3.77.12-5-1.93"/><path class="cls-4" d="M319.94,105.11a2.92,2.92,0,0,1-3.07,1.9c-2.3-.28-1.33-1.22-1.33-1.22a3.61,3.61,0,0,1-3.14-.12c-1.36-.92,1.43-1.18,1.43-1.18s-3.5-.31-3.67-2.08,2.12-1,2.12-1-3.18-1.57-2.79-3.26,2.17-.57,2.17-.57-1.33-1.23-.72-2,1.84,0,1.84,0-1.69-4.87,1.44-4.1c0,0-.76-3.45,2-2,0,0-.2-3.38,2.41-3.38s2.18,3.78,2.18,3.78.26-1.72,1.65-1.23.17,3.35.17,3.35a2.13,2.13,0,0,1,2.76-.58c1.58.95.42,3.8.42,3.8a1.84,1.84,0,0,1,1.59-.66c1.16,0,.42,2.19-.85,2.7,0,0,2.94-.45.28,2.54,0,0,1.06-.69,1.53.27s-.8,2.48-2.73,3.08c0,0,1.53-.6,1.53.91s-2.86,1.38-2.86,1.38,2.06.61.67,1.59-3.78.12-5-1.93"/><path class="cls-4" d="M342.9,105.11a2.92,2.92,0,0,1-3.08,1.9c-2.3-.28-1.32-1.22-1.32-1.22a3.63,3.63,0,0,1-3.15-.12c-1.36-.92,1.44-1.18,1.44-1.18s-3.51-.31-3.68-2.08,2.12-1,2.12-1-3.17-1.57-2.78-3.26,2.17-.57,2.17-.57-1.34-1.23-.73-2,1.84,0,1.84,0-1.69-4.87,1.45-4.1c0,0-.76-3.45,2-2,0,0-.21-3.38,2.4-3.38s2.19,3.78,2.19,3.78.25-1.72,1.64-1.23.18,3.35.18,3.35a2.12,2.12,0,0,1,2.75-.58c1.59.95.42,3.8.42,3.8a1.86,1.86,0,0,1,1.59-.66c1.17,0,.42,2.19-.85,2.7,0,0,2.94-.45.28,2.54,0,0,1.07-.69,1.53.27s-.8,2.48-2.73,3.08c0,0,1.53-.6,1.53.91s-2.86,1.38-2.86,1.38,2.07.61.67,1.59-3.78.12-5-1.93"/><path class="cls-4" d="M365.33,105.26a2.91,2.91,0,0,1-3.07,1.91c-2.3-.29-1.32-1.23-1.32-1.23a3.63,3.63,0,0,1-3.15-.12c-1.36-.92,1.43-1.18,1.43-1.18s-3.5-.31-3.67-2.07,2.12-1,2.12-1-3.17-1.58-2.78-3.27,2.17-.57,2.17-.57-1.34-1.23-.73-2,1.84,0,1.84,0-1.69-4.87,1.44-4.11c0,0-.76-3.45,2-2,0,0-.21-3.38,2.4-3.38S366.2,90,366.2,90s.25-1.72,1.64-1.22.17,3.35.17,3.35a2.13,2.13,0,0,1,2.76-.59c1.59,1,.42,3.8.42,3.8a1.86,1.86,0,0,1,1.59-.66c1.16,0,.42,2.19-.85,2.71,0,0,2.94-.45.28,2.53,0,0,1.07-.69,1.53.27s-.8,2.48-2.73,3.08c0,0,1.53-.6,1.53.92s-2.86,1.37-2.86,1.37,2.07.61.67,1.59-3.78.12-5-1.93"/><path class="cls-4" d="M386.94,106.69a2.92,2.92,0,0,1-3.08,1.9c-2.3-.28-1.32-1.22-1.32-1.22a3.61,3.61,0,0,1-3.14-.12c-1.37-.92,1.43-1.18,1.43-1.18s-3.51-.31-3.67-2.08,2.11-1,2.11-1-3.17-1.57-2.78-3.26,2.17-.57,2.17-.57-1.34-1.23-.73-2,1.84,0,1.84,0-1.69-4.87,1.45-4.1c0,0-.76-3.45,2-2,0,0-.21-3.38,2.41-3.38s2.18,3.78,2.18,3.78.26-1.72,1.65-1.23.17,3.35.17,3.35a2.12,2.12,0,0,1,2.75-.58c1.59.95.42,3.8.42,3.8a1.86,1.86,0,0,1,1.59-.66c1.17,0,.43,2.19-.84,2.7,0,0,2.94-.45.27,2.54,0,0,1.07-.69,1.53.27s-.79,2.48-2.72,3.08c0,0,1.53-.6,1.53.91s-2.86,1.38-2.86,1.38,2.06.61.66,1.59-3.77.12-5-1.93"/><path class="cls-7" d="M222.08,308.87s-84-1.86-86.46-17.69S282.26,121.47,292.53,121.49s20.31,8.15,6.41,42.55S292.07,316.59,222.08,308.87Z"/></g></g></svg>