<?xml version="1.0" encoding="utf-8"?>
<!-- Generator: Adobe Illustrator 22.0.1, SVG Export Plug-In . SVG Version: 6.00 Build 0)  -->
<svg version="1.1" id="Layer_1" xmlns="http://www.w3.org/2000/svg" xmlns:xlink="http://www.w3.org/1999/xlink" x="0px" y="0px"
	 viewBox="0 0 500 200" style="enable-background:new 0 0 500 200;" xml:space="preserve">
<style type="text/css">
	.st0{fill:#DFDCCE;}
	.st1{fill:#FBC241;}
	.st2{fill:#FFFFFF;}
	.st3{fill:#3F3128;}
	.st4{fill:#22689C;}
</style>
<g id="Layer_3">
	<g>
		<g>
			<g>
				<path class="st0" d="M53.4,144.4c2.3-5.6,13-9.6,19.1-10.1c2.7-0.2,5.5-1.3,8.2-1.5c3.1-0.3,6.2,0.4,8.9,1.8
					c2.7,1.5,4.5,5.3,2.6,7.8c-0.9,1.2-2.4,1.8-3.8,2.4c-3.5,1.4-7.1,2.8-10.6,4.2"/>
			</g>
			<g>
				<path class="st0" d="M91,167.1c4.1,3.7,7.5,8.1,10.1,12.9c-2.9,1.1-6.2,0.5-9.1-0.6c-5.6-2.1-10.5-6.3-13.4-11.5"/>
			</g>
			<g>
				<path class="st0" d="M65.4,170.8c2.2,1.4,2,5,0,6.7c-2,1.6-5.2,1-7.3,0.2c-2.4-0.9-4.9-2.7-6.3-4.8c-1.6-2.3-2.5-3.3-3.8-5.8"/>
			</g>
			<g>
				<path class="st1" d="M162.2,146.9c-1.7,2.2-7,7.9-7.9,10.9c-1.1,3.7,3.1,9.9,7.9,13.5c-8.4,1.6-18.1,1.4-25.9-2.1
					c-11.5-5.2-16.8-4.5-29.3-3.4c-11.8,1-23.3,4.9-35.2,5.4c-17.2,0.8-33.8-5.5-49.9-12.1c-1.3-0.5-1.4-2.2-0.3-3
					c13.5-9.3,29.9-15.4,45.8-12c6,1.3,11.6,3.9,17.3,6.1C111.4,160.4,134.5,153.4,162.2,146.9"/>
			</g>
			<g>
				<circle class="st2" cx="42.2" cy="152.7" r="3.6"/>
			</g>
			<ellipse class="st3" cx="40.8" cy="152.7" rx="2.2" ry="2.7"/>
			<path class="st4" d="M49.5,146.8c0,0,3,11.3-2.7,16.2C46.8,163,56.9,158.2,49.5,146.8z"/>
		</g>
	</g>
</g>
</svg>
