<?xml version="1.0" encoding="utf-8"?>
<!-- Generator: Adobe Illustrator 22.0.1, SVG Export Plug-In . SVG Version: 6.00 Build 0)  -->
<svg version="1.1" id="Layer_1" xmlns="http://www.w3.org/2000/svg" xmlns:xlink="http://www.w3.org/1999/xlink" x="0px" y="0px"
	 viewBox="0 0 500 200" style="enable-background:new 0 0 500 200;" xml:space="preserve">
<style type="text/css">
	.st0{fill:#3F3732;}
	.st1{fill:none;stroke:#3B332E;stroke-width:1.2462;stroke-miterlimit:10;}
	.st2{fill:#FBC241;}
	.st3{fill:#F1634E;}
	.st4{fill:#AF5126;}
	.st5{fill:#F4A95A;}
	.st6{fill:#FAF2DD;}
	.st7{fill:#3F3128;}
</style>
<g id="Layer_2_1_">
	<g>
		<g>
			<g>
				<g>
					<g>
						<g>
							<g>
								<path class="st0" d="M177.5,50c0,0,0.1,0,0.1-0.1L177.5,50L177.5,50z"/>
								<path class="st0" d="M177.8,49.6c-0.1-0.1-0.2-0.1-0.4-0.1C177.6,49.6,177.5,49.6,177.8,49.6c-0.1,0.1-0.1,0.2-0.2,0.2
									c0,0,0,0.1,0.1,0.1C177.8,49.8,177.8,49.7,177.8,49.6C177.7,49.6,177.8,49.6,177.8,49.6z"/>
								<path class="st0" d="M175,44L175,44L175,44z"/>
								<path class="st0" d="M171.2,42.6C171.2,42.6,171.2,42.5,171.2,42.6C171.2,42.5,171.2,42.6,171.2,42.6z"/>
								<path class="st0" d="M170.5,42.4L170.5,42.4L170.5,42.4z"/>
								<path class="st0" d="M175,44l-0.1-0.1C174.9,43.9,174.9,44,175,44z"/>
								<path class="st0" d="M177.3,48.8L177.3,48.8L177.3,48.8L177.3,48.8z"/>
								<path class="st0" d="M176.4,45.1L176.4,45.1C176.4,45.1,176.5,45.1,176.4,45.1L176.4,45.1z"/>
								<path class="st0" d="M177.2,46.3c0,0-0.1,0-0.2,0.1C177.1,46.3,177.1,46.3,177.2,46.3L177.2,46.3z"/>
								<path class="st0" d="M177.8,48.4L177.8,48.4L177.8,48.4z"/>
								<path class="st0" d="M175.7,44.4L175.7,44.4L175.7,44.4z"/>
								<path class="st0" d="M177,51.4L177,51.4C177.1,51.4,177,51.4,177,51.4z"/>
								<polygon class="st0" points="177.9,50 177.9,50 178,50 								"/>
								<path class="st0" d="M169.1,42.3L169.1,42.3C169.2,42.3,169.2,42.3,169.1,42.3z"/>
								<path class="st0" d="M163.1,51.7c0.1-0.2,0.2,0.2,0.3,0C163.4,51.6,163.2,51.5,163.1,51.7z"/>
								<path class="st0" d="M177.3,48.7L177.3,48.7L177.3,48.7z"/>
								<path class="st0" d="M163.4,51.6L163.4,51.6L163.4,51.6L163.4,51.6z"/>
								<path class="st0" d="M166.3,43.6C166.3,43.6,166.4,43.6,166.3,43.6C166.4,43.6,166.4,43.6,166.3,43.6z"/>
								<path class="st0" d="M168.4,42.8L168.4,42.8L168.4,42.8z"/>
								<path class="st0" d="M165.5,44.5L165.5,44.5L165.5,44.5L165.5,44.5z"/>
								<polygon class="st0" points="164.7,45.4 164.8,45.4 164.8,45.4 								"/>
								<path class="st0" d="M175.7,54.3h0.1C175.7,54.3,175.8,54.1,175.7,54.3z"/>
								<path class="st0" d="M177.4,48.8C177.4,48.8,177.3,48.8,177.4,48.8L177.4,48.8L177.4,48.8z"/>
								<path class="st0" d="M166.3,45.3l-0.1,0.1C166.2,45.4,166.2,45.4,166.3,45.3z"/>
								<path class="st0" d="M168.9,56.3L168.9,56.3L168.9,56.3z"/>
								<path class="st0" d="M165.8,45.8c-0.1,0-0.1,0-0.1,0l0,0H165.8z"/>
								<path class="st0" d="M175.8,54.3L175.8,54.3L175.8,54.3z"/>
								<path class="st0" d="M176.2,53.2c-0.1,0.1,0.1,0.2,0.2,0.2c-0.1,0.2-0.2,0-0.3,0c0,0.1,0.1,0.3,0,0.4c0,0,0,0-0.1,0
									c0,0.2-0.2,0.3-0.2,0.5l0,0c0.1,0,0.2,0.1,0.2,0.1c0,0.1,0,0.2-0.1,0.1v-0.1v0.1c-0.2-0.1,0-0.1-0.1-0.2
									c-0.1,0.1-0.1,0.4-0.2,0.4c-0.1-0.1,0.1-0.2-0.1-0.2l0.2-0.1c-0.3-0.1,0.1-0.1-0.2-0.2c-0.2,0.1-0.1,0.3-0.3,0.4
									c0,0.1,0.1,0.1,0.1,0.2c-0.1,0.3-0.5-0.1-0.5,0.2c0,0.1,0.1,0.3-0.1,0.3l-0.1-0.2c-0.2,0.1,0.1,0.3-0.2,0.3
									c0-0.1,0.1-0.2,0.1-0.2c-0.2,0,0,0.2-0.1,0.2l-0.1-0.1c-0.2,0.1-0.3,0.4-0.6,0.5c0-0.1,0-0.1-0.1-0.1
									c-0.3,0.2-0.6,0.3-1,0.3l-0.1,0.2c0,0-0.1,0,0-0.1c-0.1,0,0,0.1,0,0.2c-0.1,0-0.1-0.1-0.1-0.1c-0.2,0.2-0.5,0.4-0.8,0.3l0,0
									c-0.2,0-0.2,0.3-0.3,0.2l0,0c-0.4,0-0.8,0.1-1.1-0.1c-0.1,0.2-0.4-0.1-0.4,0.2c-0.2-0.2-0.1-0.2-0.4-0.4
									c-0.1,0-0.2,0.2-0.3,0.2v-0.1l-0.2,0.1v-0.2h-0.1c0,0,0.1,0.1,0,0.1c-0.2,0-0.3-0.2-0.3-0.3h-0.4c0-0.1,0.1-0.1,0.2-0.1
									c-0.2,0.1,0-0.2-0.2-0.1c0,0,0,0.1-0.1,0.1c0-0.1-0.2-0.2-0.4-0.2l0.1-0.1c-0.2-0.1-0.5-0.2-0.8-0.4
									c0.1,0.1-0.1,0.2-0.1,0.2l0.1-0.2c-0.1,0.1,0,0.1-0.1,0.1c-0.1-0.1,0-0.2,0.1-0.2h-0.1c0,0,0.1,0,0.1-0.1
									c-0.1,0-0.1-0.3-0.3-0.2l0,0c-0.2-0.2-0.4-0.2-0.5-0.4c-0.1,0.1-0.1,0-0.3,0c-0.1-0.2-0.1-0.4-0.3-0.5s-0.1,0-0.2,0
									c0.1-0.1,0-0.3,0.1-0.2c-0.2-0.2-0.2-0.2-0.5-0.5c0,0.1,0,0.1-0.1,0.1c0,0,0-0.1,0-0.2l0,0c-0.4-0.2-0.1-0.9-0.4-1.1l0,0
									l-0.2-0.2c0-0.1,0.1,0,0.2-0.1c-0.3-0.2-0.1-0.5-0.3-0.7c0.3-0.3-0.2-0.7,0.1-1h-0.1c-0.1-0.1,0-0.1,0.1-0.1
									c-0.1,0-0.1,0.1-0.1,0c-0.1-0.6,0.2-1.3,0.4-1.8c0.1-0.2-0.4-0.2-0.1-0.5l0.1,0.1c-0.1-0.5,0.3-0.9,0.4-1.3
									c0,0,0.1,0.1,0,0.1c0.1,0,0.2-0.3,0.1-0.3c0-0.1,0.1,0,0.1,0c0.1,0,0-0.3,0.1-0.3c0,0,0,0,0,0.1c0-0.1,0.2-0.2,0-0.3
									c0.2-0.1,0.1-0.3,0.3-0.4c-0.1-0.2,0.3-0.2,0.1-0.3c0.2,0.2,0.3-0.1,0.3-0.2c0,0.1,0.1,0,0.2,0.1c0.1-0.1,0.1-0.2,0-0.3
									c0.3,0,0.2-0.5,0.5-0.3c0.2-0.3,0.5-0.6,0.7-0.8c0.1,0.2-0.3,0.2-0.2,0.4c0.2-0.2,0.3-0.5,0.6-0.6c0.1,0,0,0.1,0,0.2
									c0.2-0.2,0.6-0.2,0.8-0.4c0,0,0,0,0,0.1c0.1,0,0.1,0,0.1-0.1l0,0c-0.1-0.1,0.1-0.4,0.1-0.4c0,0.3,0.3,0,0.2,0.4
									c0,0,0.1-0.1,0-0.2c0.1,0,0.1,0,0,0.1c0.2-0.1,0.1-0.2,0.3-0.2v0.1c0.1-0.1,0.2-0.2,0.3-0.2V43c0.3-0.1,0.4-0.3,0.7-0.2
									c-0.1,0.2,0.1,0.1,0.1,0.2c0.1,0,0.1,0,0.2-0.1l-0.1-0.1c0.1,0,0.3-0.1,0.4-0.1l-0.1,0.1h0.3l-0.1-0.1
									c0.1-0.1,0-0.2,0.2-0.2c0,0,0.1,0,0.2,0.1l0,0c0.1,0,0.2-0.1,0.3,0c0,0.1-0.1,0.2,0,0.2c0.1-0.1,0.3,0,0.4-0.1l-0.1,0.1
									l0.1-0.1c0.1,0.1,0.1,0.1,0,0.1c0.2,0.1,0-0.2,0.2-0.1c0,0,0,0-0.1,0c0.2,0.1,0.5,0,0.6,0.2c0,0.2-0.2,0-0.2,0.2
									c0.3,0.1,0.7,0,0.9,0.2l0,0c0.2-0.2,0.1,0.2,0.3,0.2l-0.1,0.1c0.1,0.1,0.4,0.2,0.7,0.3h-0.1c0.1,0.1,0.2,0.2,0.3,0.3
									c0.1,0,0.1,0,0.1-0.1c0.1,0.5,0.7,0.3,0.7,0.8h-0.1l0.2,0.2c0.1-0.1,0-0.1,0.1-0.2c0.1,0,0.2,0,0.2,0.1
									c-0.2-0.1-0.1,0.1-0.2,0.2c0,0,0.1,0,0.1-0.1c-0.1,0.3,0.2-0.1,0.2,0.1h-0.1c0.1,0,0.2,0.1,0.2,0.1c-0.1,0.1-0.1,0-0.2,0
									c0.1,0.1,0.4,0,0.3,0.2c-0.1,0-0.1-0.1-0.2-0.1c-0.1,0.2,0,0.2,0,0.3l0,0v0.2v-0.1c0.4,0,0.2,0.2,0.5,0.3
									c-0.3-0.1-0.1,0-0.3,0.1c0,0.1,0,0.2-0.1,0.2c0.2,0,0,0.2,0.2,0.2c0,0,0,0.1-0.1,0.1c0.1,0.1,0.1-0.1,0.1-0.1
									c0.2,0.1,0,0.5,0.3,0.7c0.2,0.2,0.3,0.2,0.5,0.4c-0.1,0.1-0.2,0-0.2,0c0,0.1,0,0.2,0.1,0.3c0,0-0.1,0-0.1,0.1s0.2,0,0.1,0.2
									c-0.1,0-0.1,0-0.2-0.1c0.1,0.1,0.2,0.2,0.2,0.3c-0.1,0-0.1-0.1-0.2-0.1c0.1,0.1,0.1,0.3,0.3,0.3v-0.1h-0.1
									c-0.1-0.1,0-0.2,0.1-0.2v0.1c0.3-0.1-0.1-0.3-0.1-0.5h0.2l-0.2-0.1c0,0,0.2-0.1,0.2,0c0.1-0.1-0.1-0.1,0-0.2l0,0l-0.1-0.1
									c0,0,0.1-0.1,0.1,0c0.1-0.2-0.2-0.3-0.1-0.4l0,0c-0.2-0.3-0.2,0-0.4-0.1l0.3-0.3h-0.2v-0.1c-0.1-0.1-0.1,0-0.2,0
									c0.1-0.2-0.2-0.3,0-0.5c-0.1,0,0,0.2-0.2,0.1c0.2-0.2-0.1-0.1-0.1-0.3c0.1,0,0.1,0.1,0.2-0.1c-0.2,0-0.1-0.3-0.2-0.3
									c-0.2,0.1-0.2-0.2-0.3-0.3c0.1,0-0.1-0.4-0.2-0.5l0,0c-0.2,0.1-0.2-0.1-0.4-0.2c0.1-0.1,0.1-0.1,0.2-0.1l-0.1-0.1
									c-0.1,0-0.1,0-0.2,0l0.1-0.1c-0.1-0.1-0.3-0.2-0.4-0.4c-0.1,0.1-0.1,0.4-0.3,0.3c0-0.1,0.1-0.1,0.2-0.1c0,0-0.1,0-0.1-0.1
									h0.1c0-0.1-0.1,0-0.2,0c0.1-0.1,0-0.1,0.1-0.1c0,0,0,0.1,0.1,0.1c-0.1-0.1-0.1-0.2-0.1-0.3l-0.1,0.1c-0.1-0.1,0-0.1,0-0.2
									c-0.1,0-0.1-0.1-0.2,0v-0.1c-0.1,0-0.3-0.2-0.4,0l0,0l0,0l0,0l0,0c-0.3-0.1-0.5-0.4-0.7-0.5l0,0c-0.2,0-0.4-0.1-0.5-0.1
									c0,0-0.1-0.1,0-0.2c-0.1,0-0.2,0-0.3-0.1c0.2,0,0-0.1,0.2,0c-0.1-0.1-0.2-0.2-0.4-0.1c0.1-0.1-0.1-0.2-0.2-0.2l0.1,0.1
									c-0.1,0-0.2-0.1-0.2-0.1l0.1-0.1c-0.3-0.3-0.7,0.2-0.9-0.2c-0.1,0.1,0.2,0.1,0.1,0.2c-0.2,0-0.3-0.3-0.3-0.3
									c-0.2-0.1-0.2,0.2-0.5,0.1c0,0.1,0,0.2-0.1,0.3c-0.2,0-0.2-0.3-0.1-0.3h0.1c0.1,0,0.1,0,0.1-0.1V42
									c-0.1-0.1-0.3-0.1-0.2-0.2c-0.1,0-0.1,0.1,0,0.1c-0.2-0.1-0.3,0-0.5-0.1c0,0,0.1,0.1,0,0.1c-0.3-0.1-0.1,0.1-0.3,0.2
									c-0.1-0.1,0-0.2-0.2-0.1c-0.1-0.1,0-0.2,0-0.2c-0.2,0.1-0.4,0-0.5,0l0.1-0.1c-0.1,0-0.1,0-0.2,0.1l0.1,0.1
									c-0.1,0-0.1,0-0.1-0.1c-0.1,0.1,0.1,0.2,0,0.3c-0.1,0-0.2,0.1-0.3,0c0.3,0-0.1-0.2,0.2-0.2c0,0-0.1,0-0.2,0l0,0
									c-0.3-0.1-0.1,0.2-0.3,0.3c0-0.1-0.1-0.1-0.1-0.1c0.1,0,0.1,0.1,0,0.2c-0.2,0-0.2,0.1-0.2,0.1h0.1c0,0.1-0.1,0.1-0.2,0.2
									c0-0.1,0.1-0.1,0-0.1c-0.1,0.2-0.3-0.1-0.4,0.1c-0.1,0-0.1-0.2-0.2-0.2c-0.1,0.2-0.2,0-0.4,0.1c0.1,0.1,0.1,0.1,0,0.2
									l0.3-0.2l-0.1,0.3c0.1,0,0.2-0.2,0.2-0.2c-0.1,0.1-0.1,0.1,0,0.2c-0.2-0.1-0.2,0.2-0.4,0.2l-0.1-0.3c-0.3,0-0.3,0.3-0.6,0.4
									h0.1c0,0.1-0.2,0.1-0.2,0.2c0-0.1-0.1-0.1-0.2-0.1c0,0.1-0.2,0.1-0.1,0.3h-0.2c-0.2,0.1-0.1,0.4-0.3,0.5
									c0-0.1-0.1-0.1-0.1-0.3c-0.1,0.1-0.1,0.1-0.1,0.1c-0.1,0-0.1,0.2-0.2,0.2c0,0.1,0.1,0.1,0,0.2l0,0c0,0-0.1,0.1,0.1,0.2
									c-0.4,0-0.5,0.5-0.8,0.5c-0.1,0.2-0.2,0.3-0.3,0.5l0,0c-0.2,0.1,0.2,0.3,0,0.4c-0.2,0,0-0.2-0.1-0.1
									c-0.3-0.1-0.1,0.3-0.4,0.3l0,0c-0.2,0.1,0,0.3-0.1,0.5l0,0c0.1,0.2,0,0.5,0,0.7c-0.1-0.1,0-0.1-0.2-0.1c0,0.1,0.2,0,0.2,0.2
									c-0.1,0-0.2,0.1-0.3,0.1c0-0.1,0-0.1,0-0.2c-0.2,0-0.1,0.2-0.1,0.3h-0.1c0,0.3,0.1,0.3,0.1,0.6h0.1c0.2,0.2-0.1,0.1,0,0.3
									h-0.2c0,0.1,0.1,0.4,0.1,0.6c-0.1-0.1-0.2-0.3-0.2-0.5c0,0.1,0,0.3,0.1,0.4c0,0-0.1-0.1,0-0.1c0.1,0.1,0.2,0.3,0.2,0.5
									c-0.4-0.1-0.1,0.5-0.4,0.7c0.1,0.4,0,0.7,0.1,1.1c0.3-0.2,0,0.1,0.3,0c0,0.1,0,0.1,0,0.1l-0.1,0.3c-0.1,0.1-0.1-0.1-0.2,0
									c0,0.2-0.1,0.1-0.1,0.3c0.1-0.1,0.2,0,0.2,0.2l0.1-0.2c0.2,0.2-0.2,0.3,0.1,0.6l-0.1-0.1c0.1,0.1,0.2,0.6,0.5,0.6L163,53
									c0.1,0.4,0.6,0.6,0.6,0.9h-0.1c0.1,0,0.2,0,0.2,0.1h-0.1c0,0,0.2,0.1,0.2,0.2h-0.1c0.1,0.4,0.5,0.3,0.7,0.5
									c-0.2,0.1,0,0.4,0.1,0.5l0,0c0.3,0.3,0.7,0.4,1,0.5c0.1,0.3,0.6,0.5,0.9,0.8c0-0.1,0.1-0.1,0.2-0.1c0.1,0.1,0.3,0,0.2,0.1
									l0,0c0,0.2,0.2,0.3,0.3,0.3l0.1-0.2c0.2,0.5,1,0.2,1.1,0.6c0.1,0,0.2,0,0.3-0.1v0.1c0.3,0.1,0.4,0.1,0.7,0.1l-0.1,0.1
									c0.2,0,0.3-0.4,0.4-0.4v0.2c0.3,0,0.6,0.2,0.9,0c0,0,0,0.1-0.1,0.1c0.1,0,0.6,0.1,0.5-0.2c0,0.2,0.3,0,0.5-0.1v0.1
									c0.1-0.2,0.1-0.3,0.3-0.4c0,0,0.1,0.1,0,0.1c0.2,0,0.1-0.2,0.3-0.1v0.1c0.2,0,0.1-0.1,0.2-0.2c0.1-0.1,0.3-0.1,0.4,0
									c0-0.1,0-0.2,0.1-0.2v0.1c0.3,0,0.3-0.3,0.5-0.3c0,0,0,0.1,0.1,0.1c-0.2,0.1-0.4,0.2-0.3,0.1c0,0.1,0.2,0.1,0.2,0.3
									c0.1-0.2,0.2-0.4,0.4-0.5l0,0l0,0c0,0,0.1,0,0.1-0.1c0.1,0,0.1,0,0.1,0c0.1,0.1,0.2-0.1,0.3-0.1c-0.1-0.1,0-0.2-0.1-0.2
									c0,0,0,0-0.1,0.1l0,0l0,0c0,0-0.1,0.1-0.2,0.1c0-0.1,0.1-0.2,0.2-0.2c0-0.1,0-0.2,0-0.3c0.2,0.1,0.5,0.1,0.5,0.1
									c0.2-0.2,0.5-0.4,0.4-0.7c0-0.1,0.1,0,0.2,0c0,0-0.1,0.1,0,0.1c0.1-0.2,0.3-0.3,0.2-0.5c0.2-0.1,0,0.2,0.2,0v0.1
									c0.6-0.2,0.2-0.9,0.8-1.1h-0.1c0.5-0.4,0.5-1.2,1-1.7c0.1-0.2,0-0.2,0-0.3h0.2l-0.1-0.2c-0.1-0.3,0.5-0.3,0.3-0.7h-0.1
									c0-0.1,0-0.4,0.1-0.3c0,0-0.1-0.1,0-0.1h0.1c0-0.1-0.1-0.2-0.1-0.3c0.1-0.2,0.3,0.1,0.3-0.3c0-0.1-0.2-0.4-0.3-0.3l-0.1,0.1
									v-0.1c-0.2,0-0.5-0.1-0.6,0.1l0.1,0.2h-0.1v-0.1c-0.1,0.1,0,0.1,0,0.2c-0.1,0-0.1,0-0.1,0.1l0.2,0.2c-0.1,0-0.2-0.1-0.2,0
									c0.1,0.1,0.2-0.1,0.3,0.1c-0.1,0.1-0.2,0-0.1,0.1c-0.1,0-0.1,0-0.1-0.1c0.1,0.1,0,0.2,0.1,0.3c-0.1,0.1,0,0.3-0.2,0.2
									c0,0,0.1,0.2,0.1,0.3c-0.2-0.2-0.1,0.3-0.3,0.2c0.2,0.2,0,0.4,0,0.6c0,0,0,0,0-0.1c-0.1,0.1-0.1,0.1-0.2,0.1
									c0.2,0.1,0.1,0.3,0.2,0.4c-0.2,0-0.2-0.2-0.4-0.2c0.1,0.1,0,0.3,0.2,0.3c-0.1,0-0.1,0.1-0.3,0c0.2,0.1,0,0.1,0.1,0.2
									c-0.2,0.1-0.2-0.1-0.2,0.1C176.2,53.4,176.2,53.2,176.2,53.2z M173.8,56L173.8,56C173.8,56,173.9,56,173.8,56
									C173.9,56,173.8,56,173.8,56z M173.5,56.2c0,0,0.1,0,0.1-0.1v0.1C173.7,56.2,173.6,56.2,173.5,56.2z M174.6,56.7
									C174.6,56.8,174.5,56.7,174.6,56.7C174.5,56.7,174.6,56.7,174.6,56.7L174.6,56.7L174.6,56.7z"/>
								<path class="st0" d="M174.6,56.5L174.6,56.5L174.6,56.5L174.6,56.5L174.6,56.5z"/>
								<path class="st0" d="M175,44.1L175,44.1L175,44.1L175,44.1z"/>
								<polygon class="st0" points="169.2,56.4 169.2,56.4 169.3,56.4 								"/>
								<path class="st0" d="M176,45.7L176,45.7L176,45.7z"/>
								<path class="st0" d="M176.5,46.3L176.5,46.3C176.5,46.4,176.5,46.3,176.5,46.3z"/>
								<path class="st0" d="M176.7,46.9L176.7,46.9L176.7,46.9L176.7,46.9z"/>
								<path class="st0" d="M168.8,43.7L168.8,43.7C168.7,43.7,168.7,43.7,168.8,43.7z"/>
								<path class="st0" d="M171.5,43.1C171.5,43.1,171.4,43.2,171.5,43.1C171.4,43.2,171.5,43.2,171.5,43.1z"/>
								<path class="st0" d="M166.3,45.3L166.3,45.3L166.3,45.3z"/>
								<path class="st0" d="M171.3,43.2h0.1C171.4,43.2,171.3,43.1,171.3,43.2z"/>
								<path class="st0" d="M177.4,49.3L177.4,49.3L177.4,49.3L177.4,49.3z"/>
								<path class="st0" d="M177.4,49.3L177.4,49.3L177.4,49.3z"/>
								<path class="st0" d="M177.5,49.4L177.5,49.4C177.4,49.4,177.4,49.4,177.5,49.4z"/>
								<path class="st0" d="M177.3,48.5L177.3,48.5L177.3,48.5z"/>
								<path class="st0" d="M177.2,48.3c0,0.1-0.1,0.2,0,0.2l0,0C177.2,48.5,177.3,48.3,177.2,48.3z"/>
								<path class="st0" d="M177.5,47.1v0.2c0-0.1,0.1-0.1,0.1,0C177.7,47,177.6,47.4,177.5,47.1z"/>
								<path class="st0" d="M177.3,46.5C177.4,46.6,177.3,46.4,177.3,46.5C177.3,46.4,177.3,46.4,177.3,46.5z"/>
								<path class="st0" d="M173.7,43.2l0.1-0.1C173.7,43.1,173.8,43.1,173.7,43.2z"/>
								<path class="st0" d="M172.7,43.5L172.7,43.5h0.1H172.7z"/>
								<polygon class="st0" points="172.4,42.5 172.4,42.5 172.3,42.5 								"/>
								<path class="st0" d="M164.8,45.1l0.1,0.1C164.9,45.2,164.8,45,164.8,45.1z"/>
								<path class="st0" d="M163.3,48.4c-0.1,0-0.2,0.1-0.1,0.2C163.3,48.6,163.3,48.5,163.3,48.4z"/>
								<polygon class="st0" points="168,57.3 167.9,57.3 168.1,57.3 								"/>
							</g>
						</g>
					</g>
				</g>
			</g>
			<g>
				<g>
					<path class="st1" d="M168.4,48.7"/>
				</g>
			</g>
			<g>
				<g>
					<g>
						<g>
							<g>
								<path class="st0" d="M169.1,51.1c-0.1,0-0.3,0.2-0.2,0.2c0.1-0.1,0.2-0.1,0.3-0.2C169.2,51.1,169.1,51.1,169.1,51.1z"/>
								<path class="st0" d="M169.2,52c0.2-0.2,0.4-0.5,0.3-0.9c-0.1,0.4-0.1,0.2-0.4,0.6c-0.1,0-0.1-0.2,0-0.3
									c-0.1,0.1,0-0.1-0.3,0c-0.1,0.3,0.2,0.5,0.4,0.3C169.3,51.8,169.2,51.9,169.2,52z"/>
								<path class="st0" d="M168.3,47.9L168.3,47.9C168.3,48,168.3,47.9,168.3,47.9z"/>
								<path class="st0" d="M172.1,49.5C172.1,49.5,172.1,49.4,172.1,49.5C172,49.5,172.1,49.5,172.1,49.5z"/>
								<path class="st0" d="M171.2,50.4C171.3,50.4,171.3,50.4,171.2,50.4L171.2,50.4z"/>
								<path class="st0" d="M168.3,47.9c0.1-0.1,0.1-0.1,0.2-0.2C168.4,47.7,168.4,47.8,168.3,47.9z"/>
								<path class="st0" d="M170.3,50.6L170.3,50.6C170.3,50.7,170.3,50.7,170.3,50.6L170.3,50.6z"/>
								<path class="st0" d="M169.5,48.7L169.5,48.7c0-0.1,0-0.1,0-0.2V48.7z"/>
								<path class="st0" d="M170.5,46.9c0,0,0.3,0,0.5,0c-0.1,0-0.2,0-0.3-0.1C170.7,46.8,170.6,46.9,170.5,46.9z"/>
								<path class="st0" d="M171.8,51.1L171.8,51.1C171.8,51.2,171.8,51.1,171.8,51.1z"/>
								<path class="st0" d="M168.8,48.9L168.8,48.9L168.8,48.9z"/>
								<path class="st0" d="M170.5,48.2L170.5,48.2L170.5,48.2z"/>
								<path class="st0" d="M168.9,46.4L168.9,46.4v0.2C168.9,46.6,168.9,46.5,168.9,46.4z"/>
								<path class="st0" d="M169.7,50.8L169.7,50.8C169.8,50.7,169.8,50.8,169.7,50.8z"/>
								<path class="st0" d="M168.4,47.9c-0.1-0.2,0-0.3,0-0.5c0-0.1,0.1-0.3,0-0.5C168.4,47.1,168.3,47.7,168.4,47.9z"/>
								<path class="st0" d="M170.4,50.6L170.4,50.6L170.4,50.6z"/>
								<path class="st0" d="M168.4,47L168.4,47L168.4,47C168.4,46.9,168.4,47,168.4,47z"/>
								<path class="st0" d="M167.4,48.8c-0.1,0-0.1,0-0.2,0C167.3,48.8,167.3,48.8,167.4,48.8z"/>
								<path class="st0" d="M168.5,51.2L168.5,51.2C168.5,51.1,168.5,51.1,168.5,51.2z"/>
								<path class="st0" d="M168.2,47c0.1,0,0.1,0,0.1-0.1C168.3,46.9,168.3,46.9,168.2,47C168.3,47,168.3,47,168.2,47z"/>
								<path class="st0" d="M169.5,46.3L169.5,46.3L169.5,46.3C169.4,46.3,169.5,46.3,169.5,46.3z"/>
								<path class="st0" d="M167.7,49.6c0-0.2,0-0.3,0.1-0.4c-0.1,0.1-0.3,0-0.3-0.1C167.3,49,167.2,49.1,167.7,49.6z"/>
								<path class="st0" d="M170.4,50.8c-0.1-0.1-0.1-0.1-0.1-0.2L170.4,50.8C170.4,50.7,170.4,50.7,170.4,50.8z"/>
								<path class="st0" d="M166.6,44.8l0.5-0.3C166.8,44.6,166.7,44.6,166.6,44.8z"/>
								<path class="st0" d="M172.2,50.7v0.2C172.2,50.8,172.2,50.7,172.2,50.7z"/>
								<path class="st0" d="M169.1,43.3c0.1,0.1,0.2,0.2,0.3,0.2l0.1-0.1C169.3,43.4,169.2,43.3,169.1,43.3z"/>
								<path class="st0" d="M167.7,49.1L167.7,49.1L167.7,49.1z"/>
								<path class="st0" d="M170.7,49.6c0.3-0.3,0.4-0.5,0.4-0.7s0-0.3-0.1-0.3c-0.1-0.1-0.3-0.1-0.4-0.2c0.1-0.7,0.1-0.8,0.3-0.9
									c0.1-0.1,0.3,0,0.4-0.3c-0.2-0.5-0.6-1.1-1.3-1.3s-1.3,0-1.6,0.2c-0.1,0-0.3,0-0.1-0.2c-0.2,0.2-0.4,0.5-0.6,0.7
									c-0.2,0.3-0.3,0.6-0.4,0.9c-0.1,0.6,0.1,1.2,0.5,1.5c0,0.1,0,0.1,0,0.2c0.1-0.2,0.3-0.4,0.5-0.4c0.2,0.3,0.5,0.2,0.5,0.5
									c-0.2-0.1-0.2,0-0.4,0c0.1,0.1,0.2,0.1,0.4,0.1c0,0.3-0.1,0.3-0.3,0.2s-0.3-0.3-0.5-0.2c0.3,0.3,0.9,0.4,1.2,0.4
									c0.4-0.1,0.6-0.2,0.9-0.3c0.1,0.2-0.1,0.3-0.4,0.4c-0.2,0.1-0.5,0.1,0,0.2c-0.3,0-0.7-0.1-1-0.3c0.3,0.5,0.2,0.4,0,0.3
									c-0.2-0.1-0.4-0.2-0.1,0.3c0.9,0.3,1.4,0.1,1.8-0.1c0.4-0.2,0.7-0.4,1.3-1.2c0-0.5-0.4-0.1-0.4-0.5c0.1-0.5,0-0.8,0.1-1.1
									c0-0.2,0.1-0.5,0.1-0.7c0.1-0.4,0.1-0.9-0.8-1.1c-0.3,0-0.5,0.2-0.7,0.2c-0.2,0.1-0.5,0.1-1,0c0.1-0.2,0.2-0.4,0.3-0.5
									c-0.8,0.1-0.9,0.4-1,0.6c-0.1,0.1,0,0.3-0.2,0.2c-0.1,0,0,0.2-0.1,0.2s-0.1,0.1-0.2,0.2c0-0.1,0-0.1,0-0.2
									c0-0.1,0.1-0.1,0.1-0.3c0,0,0-0.2,0-0.1c0.1,0,0.1,0,0.1,0c0.1,0,0.1,0,0,0c-0.7,0.3-0.2,0.5-0.4,0.9l-0.4-0.2
									c-0.5,1,0.1,2.2,1.1,2.8c-0.2,0-0.5-0.1-0.4,0.2c0.2,0.1,0.4,0.2,0.7,0.4c0.3,0.1,0.6,0.2,1.2,0.2c0.2,0,0.3,0,0.5-0.1
									l0.6-0.2c0.3-0.2,0.7-0.5,0.8-0.7c0.4-0.5,0.5-0.9,0.5-1.2c0.3-1.2,0.1-2.1-0.1-2.6c-0.2,0-0.3,0.1-0.4,0.1
									c0-0.1,0-0.3,0.1-0.3c-0.2-0.4-0.1,0.2-0.3,0.3c-0.1-0.1-0.1-0.4,0-0.4c-0.3-0.1-0.8-0.2-1.4-0.1c-0.6,0.1-1.1,0.3-1.5,0.4
									l0.1-0.2c-0.3,0.1-0.4,0.4-0.5,0.7c0,0.3-0.1,0.5-0.4,0.6v-0.1c-0.5,0.5-0.8,1.3-0.9,2c0,0.4,0,0.7,0,1.1c0,0.3,0,0.6,0,1
									c0.3,0,0.4,0.3,0.6,0.6c0.2,0.3,0.4,0.5,0.7,0.3c0.2,0.4,0.2,0.6,0.4,0.8c0.1,0.1,0.2,0.2,0.5,0.4s1,0.2,1.5,0
									s0.3-0.7,0.5-1l0.3,0.3c0-0.2,0.1-0.4,0.1-0.7c0.2,0,0.4,0,0.5,0c0-0.1,0.1-0.3,0.1-0.4c-0.1,0.1-0.3,0.2-0.4,0.1
									c0.1-0.3,0.3-0.5,0.5-0.8c0.2-0.2,0.4-0.4,0.5-0.4c0-0.5-0.1-1.1-0.4-1.5c0.2,0,0.3,0.2,0.4,0.4c-0.5-0.8,0.4-0.3-0.2-0.9
									c0,0.1-0.2,0-0.3,0c0.1-0.4-0.4-1.2-1-1.6l0.3-0.1c-0.5-0.4-1.2-0.8-2-0.8c-0.7,0-1.4,0.2-2.1,0.6c0.5-0.1,0.6,0.3,0.3,0.5
									c-0.1-0.1-0.2-0.2-0.4-0.3c-0.1,0.3,0.4-0.1,0.2,0.4c-0.4,0.3-0.6-0.1-0.4-0.4c-0.1,0.2-0.3,0.4-0.4,0.6
									c-0.1,0-0.1-0.2-0.1-0.4c0,0.2-0.3,0.4-0.5,0.7s-0.4,0.6-0.2,0.9h-0.1c-0.1,0.8,0,1.3,0.1,1.7s0.3,0.7,0.5,1.1
									c0.3-0.1,0.4,0.2,0.8,0.2c0.1,0.3,0.2,0.6,0.4,0.9c0.2,0.3,0.5,0.7,1.1,0.9c0.9,0,0.3-0.2,0.7-0.4c0,0.2,0.3,0.2,0.5,0.3
									c0.2,0,0.4,0,0.1,0.2c0.8-0.2,1-0.5,1.3-0.7c0.3-0.3,0.5-0.7,0.8-1.3c-0.2,0.1-0.3,0.1-0.4,0c0.1-0.2,0.4-0.3,0.5-0.3v0.1
									c0.1-0.3,0.2-0.6,0.3-0.9c0.2-0.6,0.2-1.3-0.1-1.9c-0.1-0.3-0.3-0.6-0.5-0.8s-0.3-0.2-0.5-0.3h0.1l-0.8-0.4
									c-0.4-0.5,0.4,0.1,0.3-0.4c-0.7-0.3-1-0.7-1.4-1s-0.8-0.5-1.3-0.2c-0.2-0.2-0.5-0.2-0.8-0.1c-0.3,0.1-0.7,0.4-1,0.7
									c-0.7,0.6-1.1,1.5-1.6,1.9h0.2c0.1,0.3-0.2,0.3-0.4,0.5c0.2,0,0.3-0.2,0.3,0c-0.2,0.8-0.2,1.9,0,2.8
									c0.3,0.9,0.8,1.8,1.7,2.3c0.8,0.4,1.7,0.5,2.6,0.2c0.5-0.2,0.6-0.6,0.6-0.9c0.1-0.3,0.1-0.5,0.7-0.7c0,0.2,0,0.4,0,0.6
									c0.4-0.5,0.5-0.8,0.8-1.1c0.2-0.3,0.4-0.7,0.6-1c0.2-0.4,0.4-0.8,0.4-1.2c0-0.2,0-0.5,0-0.7c0-0.1,0-0.2,0-0.4
									c0-0.1-0.1-0.2-0.1-0.4c0.1,0.1,0.2,0.1,0.2,0.3c0.1-0.2,0.1-0.7-0.1-1c-0.1-0.3-0.4-0.5-0.5-0.5c-0.1-0.3,0.2-0.2,0.2-0.4
									c0-0.5-0.8-0.7-0.7-1c0-0.1,0.1,0,0.2,0.1c-0.2-0.1-0.9-0.9-0.8-0.5c-0.3-0.4-0.8-0.5-1.2-0.5c-0.1,0-0.3,0-0.4,0
									c-0.2,0.2-0.4,0.3-0.7,0.3c-0.2,0.1-0.5,0.2-0.5,0.5c0-0.3-0.4-0.3-0.7,0c-0.2,0.1-0.3,0.2-0.5,0.4
									c-0.1,0.1-0.2,0.2-0.2,0.3c0-0.2-0.3,0-0.4-0.2c-0.3,0.2-0.5,0.6-0.3,0.7c-0.5,0-0.7,0.4-0.8,0.7s-0.2,0.6-0.7,0.6
									c-0.4,1.3-0.3,2.6,0.2,3.7c-0.3,0.1-0.4-0.3-0.5-0.6s-0.1-0.6-0.4-0.6c0.1,0.6,0.4,1.1,0.7,1.5s0.6,0.7,1,1.2
									c0.2,0.3-0.3,0.1-0.4,0.1c1,0.7,1.8,1.2,2.6,1.2c0,0-0.1,0.1-0.2,0.1c0.1,0,0.3,0.2,0.4,0h-0.2c-0.1-0.4,0.9-0.5,0.9-0.7
									c-0.2,0.3,0,0.4,0.1,0.5c0.2,0.1,0.4,0.2,0,0.6c0.2,0,0.3-0.1,0.3-0.3c0.2,0.1,0.3,0.2,0,0.3c0.8-0.1,0.5-0.4,1.1-0.5
									c0,0.1-0.1,0.2-0.1,0.3c0.3-0.3,0.5-0.6,1-0.7c0,0.1,0.1,0.1,0,0.2c0.4-0.2,0.6-0.5,0.8-0.8s0.4-0.6,0.7-0.9
									c0.3,0.5,0.3-0.1,0.7,0c0.1-0.2,0.1-0.4,0.1-0.5l-0.3,0.1c0.2-0.4,0-0.8,0.2-1.1c0,0.1,0.1,0.2,0.1,0.3
									c0-0.3,0.1-0.5,0.1-0.8c-0.1,0.1-0.2,0.3-0.3,0.4c-0.2-0.4-0.6-0.1-0.4-0.5c0,0.1,0.1-0.3,0.3-0.5l0,0
									c-0.1-0.2-0.3-0.4-0.2-0.6c0.1-0.1,0.5,0,0.6-0.1c-0.4-0.1-0.3-0.9-0.8-1c0.1,0,0.3,0,0.4-0.1h-0.4c0-0.2,0.1-0.3,0.2-0.3
									c-0.2-0.5-0.4,0.4-0.5-0.3c0,0,0.1,0,0.2,0.1c-0.2-0.7-1-0.9-1.5-1.3c0-0.5,0.6,0.2,0.6-0.3c-0.5-0.3-1.1-0.3-1.6-0.2
									s-0.9,0.3-1.4,0.4h0.2c0.1,0.3-0.1,0.3-0.3,0.3s-0.6,0-0.6,0.3c0.1-0.1-0.1-0.4-0.1-0.3c-0.6,0.3-0.9,1.1-0.9,2l-0.1-0.2
									c-0.3,0.3-0.3,0.9-0.4,1.3c0.2,0.1,0.2,0.3,0.4,0.2c-0.2,0.3-0.2,0.7-0.1,1c0.2,0.3,0.5,0.6,0.9,0.7
									c0.8,0.2,1.2-0.2,1.9-0.1c-0.1,0.1-0.3,0.3-0.1,0.2c0.3-0.2,0.5-0.4,0.7-0.7c-0.2-0.2-0.2-0.1-0.5-0.1
									c0-0.2,0.1-0.4,0.2-0.6c-0.1,0.4,0.3,0.4,0.5,0.3c-0.1,0-0.1-0.2-0.2-0.2c0.7,0.1-0.4-0.4,0.2-0.6l0.1,0.1
									c0.1-0.2,0-0.5,0.2-0.6c0.3,0.1,0,0.3,0.2,0.4c0.2-0.3-0.2-0.8,0.2-1c0,0.2,0,0.4,0,0.5c0.5-0.1,0.4-0.2,0.6-0.5l0,0
									c0.1-0.2,0.2-0.4,0.3-0.7c0,0.1-0.1,0.1-0.1,0.2c-0.4-0.3-0.5-0.5-0.5-0.8l-0.1-0.5l-0.4,0.3c-0.3,0.2-0.4,0.7-0.1,0.9
									c-0.3-0.2-0.4-0.4-0.4-0.3c-0.1,0.1-0.1,0.2-0.3,0.2c-0.1,0.3-0.1,0.6-0.2,0.6c0.2,0.1,0.2,0.3,0.3,0.5s0.1,0.3,0.4,0.3
									c-0.1,0.1,0.1,0.2-0.2,0.3c0.2,0.2,0.1-0.2,0.3-0.2c0.3,0.1,0.3,0.3,0.2,0.5c0,0.2-0.1,0.3,0.1,0.6c0.1,0.4,0.4,0.7,0.2,1.3
									c-0.3,0-0.3-0.4-0.3-0.4c-0.3,0.1-0.4,0.3-0.5,0.6c0-0.1-0.1-0.1-0.3-0.2c-0.1,0.1,0.2,0.4-0.1,0.4c0-0.1-0.1-0.3-0.2-0.5
									c-0.1,0.2-0.1,0.5-0.2,0.7c-0.1-0.2,0-0.3-0.1-0.5c-0.1,0.2-0.3,0.3-0.4,0.7c0.1,0,0.1,0.1,0.2,0.1c-0.1,0-0.1-0.3-0.1-0.3
									c0.1-0.3,0.3,0,0.3,0.1l-0.1,0.1c0.2,0.3,0.4,0.2,0.5,0s0.2-0.5,0.3-0.6c0.1,0.2,0.2,0.3,0.2,0.5c0-0.2,0-0.4,0-0.6
									c0.2,0,0.4,0.2,0.3,0.4c0.4,0,0-0.3,0.4-0.3c0.1,0,0.1,0,0.1,0.1l0.1-0.3c0.1,0.1,0.3,0.2,0.1,0.3c0.3-0.1,0.3-0.4,0.4-0.6
									c0-0.2,0-0.4,0.2-0.4v0.1c0.1-0.4-0.1-0.5-0.2-0.5c-0.1,0-0.3,0-0.5-0.3c0.3-0.1,0.6-0.2,0.9-0.4h-0.4c0-0.1,0-0.2,0.1-0.2
									c-0.4-0.2-0.1,0.1-0.4,0c0.1-0.2-0.1-0.4-0.2-0.6c-0.1-0.2-0.2-0.3,0-0.5c-0.3,0.1,0,0.4-0.4,0.2c0.2-0.2,0.2-0.3,0-0.3
									c-0.1-0.1-0.3-0.2-0.2-0.3c0.3,0,0.2,0.2,0.5-0.1c-0.2,0-0.3-0.1-0.2-0.1s-0.1,0-0.1,0l0,0l-1-0.2v0.1
									c0.5-0.1,0.3,0.4,0.3,0.7c-0.1-0.1-0.5,0.5-0.9,0.7l-0.1-0.1c0.3,0.3,0,0.6-0.2,0.8c-0.2-0.2-0.2-0.3-0.2-0.5l-0.2,0.2
									c0.1,0.1,0,0.3,0,0.4l-0.2-0.3c-0.2,0.2-0.3,0.6-0.5,0.4c0,0.2,0,0.4,0,0.6c0,0.2,0,0.4-0.3,0.5c0-0.2,0.1-0.5,0.2-0.5
									c0,0-0.2,0.1-0.2,0c0.1-0.1,0.2-0.2,0.2-0.2c-0.1-0.2-0.1,0.2-0.3,0.1c0.1-0.2,0-0.2,0.1-0.4c0,0,0,0.1,0.1,0
									c-0.1-0.1,0-0.2,0.1-0.4c-0.1,0.1-0.2,0.2-0.3,0.2c-0.1-0.2,0.2-0.2,0.3-0.3c-0.2,0,0-0.1-0.4-0.1c0-0.1,0.2-0.1,0.3-0.1
									c-0.2-0.1,0-0.7-0.4-0.6l0,0l0,0l0,0l0,0c-0.1-0.3,0-0.6,0.2-0.8s0.5-0.4,0.6-0.6l0.1,0.1c0.1-0.3,0.5-0.4,0.6-0.7
									c0.1,0,0.3,0.2,0.3,0.3c0.2-0.1,0.2-0.3,0.6-0.1c-0.2,0.2,0.1,0.2-0.2,0.2c0.3,0.1,0.2,0.3,0.6,0.1c-0.2,0.3,0,0.4,0.1,0.4
									c0-0.1,0-0.2,0-0.3c0.1,0,0.2,0.1,0.3,0.2c-0.1,0.1-0.2,0.2-0.3,0.3c0,0.3,0.2,0.2,0.5,0.4c0.3,0.1,0.5,0.3,0.1,0.6
									c0.3,0.1,0.1-0.4,0.5-0.3c0,0.3-0.5,0.7-0.5,0.8c-0.2,0.3,0.6,0.3,0.4,0.7c0.1,0,0.6-0.1,0.6,0.3c-0.1,0.3-0.7,0.2-0.8,0
									c0-0.1,0.1-0.1,0.1-0.1C170.9,49.6,170.8,49.5,170.7,49.6l0,0.1c-0.2,0.1-0.2,0.5-0.5,0.3c0.1,0.2,0.2,0.2,0.3,0
									c-0.3,0.3-0.2,0.5-0.5,0.7c0.1,0,0.3,0.1,0.2,0.1c-0.4,0.3,0.1,0.3-0.1,0.7c-0.3,0-0.3-0.4-0.4-0.1c-0.3,0-0.3-0.3-0.3-0.4
									c0,0.4-0.5,0.1-0.6,0v-0.1c0,0.1-0.1,0.1-0.1,0.1c0,0.1,0.1,0.2,0.1,0.3c-0.1,0-0.1,0-0.2-0.1c0,0.2,0.2,0.5,0.1,0.8
									c-0.1-0.1-0.4,0.2-0.4-0.2c0.3,0.1,0-0.4,0.2-0.5c0,0.1-0.1,0.1-0.1,0v-0.1c-0.2-0.4-0.1,0.5-0.4,0.4c0.1-0.2,0-0.4-0.1-0.4
									c0.1,0.1,0,0.4-0.2,0.5c-0.2-0.3-0.3,0-0.5-0.1l0.2,0.1c-0.1,0.2-0.3,0.1-0.5,0.1c0-0.2,0.2,0,0.2-0.1
									c-0.4,0.3-0.4-0.6-0.7-0.5c0-0.2,0.2-0.4,0.2-0.5c-0.4,0.1,0-0.4-0.3-0.3c-0.2,0.2-0.1,0.2-0.5,0.2c0.1,0.1,0.3,0.1,0.4,0.2
									c-0.2,0.1-0.3,0.1-0.5,0.1c0.1,0.1,0.3,0.1,0.4,0.2c-0.3,0.1-0.2,0-0.3,0.3c0-0.3-0.1-0.3-0.2-0.3c-0.1,0-0.3-0.1-0.2-0.3
									l0.7-0.3c0.1-0.2,0-0.2-0.1-0.3s-0.3-0.3-0.2-0.5l-0.1,0.1c-0.3-0.1,0-0.3-0.1-0.5c0.2,0.1,0.3,0,0.5,0
									c-0.2-0.1,0.1-0.3-0.3-0.6c0.1,0,0.3,0,0.4,0c0.3-0.2-0.3-0.8,0.1-1.1c0.1,0.3,0.3,0.3,0.3,0.6c0.1-0.1,0.2-0.2,0.1-0.3
									c0.2,0.1,0.1-0.5,0.4-0.4c0-0.1-0.1-0.3,0-0.4l0.1,0.1c-0.1-0.1,0.1-0.3-0.2-0.4c0.3,0.2,0.5,0.1,0.7,0s0.4-0.3,0.5-0.3
									s0.1,0.1,0.1,0.3c0.2,0,0.5,0.2,0.6,0.3c-0.1,0-0.1,0.1-0.1,0c-0.1,0.4,0.7-0.4,0.6,0.2c-0.3,0.4-0.3-0.1-0.4,0.1
									c-0.4,0.2-0.3,0.3-0.2,0.4c0.1,0.1,0.2,0.2,0,0.3l0,0c-0.3,0.1,0.3,0.4,0.1,0.8h-0.1c0.3,0.4,0.2,0.9,0,1.3
									c-0.2-0.3,0-0.2-0.3-0.4c-0.1,0.2,0.4,0.3,0.3,0.6c-0.2,0-0.5,0.1-0.7-0.2l0.2-0.2c-0.5-0.2-0.2,0.2-0.3,0.3l-0.1-0.2
									c-0.1,0.2,0,0.7-0.4,0.8v0.2c-0.3,0.6-0.2-0.3-0.5,0.1c0-0.2,0-0.4,0.1-0.6c0,0-0.1,0.1-0.2,0.1c-0.2,0.1-0.6,0.2-0.8,0
									c0.4-0.1,0.7-0.1,0.9-0.3c0,0,0,0,0.1,0l0,0c-0.1,0-0.3-0.1-0.5,0c0.1,0,0.2-0.1,0.2,0c-0.4,0.3-0.7,0.2-0.8-0.2
									c0.5-0.2,0.5-0.4,0.5-0.6c0-0.2,0.1-0.4,0.4-0.4c-0.1-0.2,0.1-0.5,0.2-0.6c0.1-0.1,0.3,0,0.4-0.1c-0.3-0.7,0.1-0.1-0.1-0.9
									c0.1-0.1,0.2-0.1,0.2-0.1c0.1,0.1,0.3,0.4,0.3,0.6c0,0.3-0.1,0.2-0.1,0.4c0.1,0.1,0,0.4-0.1,0.7c0.1-0.3,0.2-0.4,0.1-0.3
									c0-0.1,0.1-0.3,0.1-0.4c0.2-0.1,0.1,0.1,0.1,0.2c0,0.1-0.1,0.1-0.1,0.2l0,0c0,0,0.1,0.1,0.2,0.1c-0.1,0-0.2,0-0.3,0
									c0.3,0.1,0.9,0.9,1.3,0.5c-0.1,0.1-0.2,0.2-0.3,0.2c0,0.1,0.3,0.1,0.4,0.3c0.1,0.1,0,0.3-0.2,0.3l-0.1-0.1
									c0,0,0.2,0.3,0,0.2c-0.1-0.1-0.1-0.1-0.1-0.1s0.1,0.3,0,0.3c0-0.1,0-0.1-0.1-0.2l0,0l0,0l0,0l0.1,0.2c0,0.1,0.1,0.2,0.1,0.2
									s0,0.1,0,0c0.1-0.2,0,0-0.1,0s-0.2,0.1-0.3,0c0.4-0.4,0.3-0.8,0.3-1h0.1c-0.2-0.5-0.7-0.5-0.8-0.8c0.3,0.1,0.3,0.2,0.4,0.2
									h0.1l0,0c0,0.1,0,0.1,0,0.1c0-0.1,0.2-0.4,0.3-0.4c0,0.1,0.4-0.1,0,0.2l0,0c-0.3,0.4-0.2,0.3-0.2,0.4
									c0.2-0.1,0.4-0.1,0.6-0.2c-0.2,0.2-0.3,0.2-0.3,0.3s0,0.2,0,0.3c0,0.3-0.1,0.6-0.5,0.3c0,0.1,0,0.1,0,0.2
									c0.3,0.4,0.3,0.6,0.3,0.7l0,0v0.1c0,0,0,0,0-0.1s0.1-0.2,0.1-0.4c0-0.1,0.1-0.2,0.2-0.3l0.1-0.2v-0.1l0,0l0,0l0,0
									c-0.1-0.1-0.1-0.1-0.2-0.2c0.1,0,0.2-0.1,0.2-0.1c0-0.1-1,0.4-1.1,0.1c0.2-0.1,0.3-0.2,0.5-0.2c-0.1-0.2,0.1-0.3,0.1-0.3
									c0.1-0.1,0.1-0.1-0.1-0.4c0.1,0.1,0.2,0.2,0.2,0.2c0.1-0.1,0.3,0.2-0.1-0.6c0.3,0.5,0.1-0.1,0.4-0.4v0.4
									c0.1-0.6,0.1-0.8,0.4-0.8c0,0.1,0,0.4-0.1,0.2c0.1,0.3,0.2-0.3,0.3,0.2l-0.1,0.1c0,0.2,0.1,0.1,0.2,0
									c0.1,0.1-0.1,0.5-0.2,0.7c0.1-0.1,0.1,0,0.1,0.1h-0.1c-0.1,0.2-0.1,0.2-0.2,0.3c-0.1,0.1-0.2,0.1-0.3,0.1l0,0
									c0.2,0,0.4-0.2,0.3-0.2c-0.1,0-0.1,0.1-0.2,0c0,0,0,0-0.1,0.1c-0.1,0-0.2,0.1-0.3,0l0,0l0,0c0,0,0,0-0.1,0c0,0,0,0,0-0.1
									c0.2,0,0-0.1,0-0.1c-0.3-0.1-0.3-0.2-0.5-0.1c0,0,0,0,0.1,0.1l0,0l0,0c0,0.1,0.1,0.1,0.2,0.2c-0.2,0-0.3-0.1-0.3-0.2
									c-0.2-0.1-0.4-0.2-0.5-0.3c0.3-0.1,0.7-0.2,0.9,0v-0.1l0,0l-0.2-0.2c0-0.1-0.1-0.2-0.1-0.2v-0.1l0,0l0,0v0.1
									c0,0.1,0,0,0.1-0.1c0,0,0.1-0.1,0.2-0.1c0.1,0-0.1,0.2-0.2,0.2c0,0-0.1,0.1-0.1,0c0,0,0.1-0.1,0.2-0.1c0.1,0,0.1,0,0.1,0
									s0.1,0,0.2,0.1c-0.1,0-0.2-0.1-0.2-0.1s0,0-0.1-0.1l0,0c-0.1-0.1,0,0,0,0.1s0,0.1,0,0.1l0.1-0.1c-0.1,0.1-0.3,0-0.3-0.1
									c0,0,0-0.1,0.1-0.1l0,0c0,0,0-0.1-0.1-0.1c0-0.1,0-0.1,0-0.1s0,0,0,0.1v-0.1l0,0c0,0-0.1,0.1-0.2,0.1c-0.2,0.1-0.2,0,0,0.1
									l0,0l0,0l-0.2-0.1l0,0l0,0l-0.1,0.1c-0.2,0-0.2,0-0.2-0.1s0.1-0.3,0.3-0.3c0.1,0.1-0.1-0.1-0.1-0.4c0,0.1,0,0.1,0,0.2l0,0
									c0-0.2,0.1-0.3,0-0.2c0,0,0.1,0,0,0.1s-0.2,0.1-0.3,0.2c-0.2,0.1-0.4,0.1-0.3,0.5c0.1,0,0.2,0.1,0.2,0.1s0,0-0.1,0l0,0
									l0.1,0.1c0.1,0.1,0.1,0.1,0.1,0.1c0,0.1,0,0,0.1-0.2c0.1-0.1,0,0,0-0.1l0,0c0,0,0-0.1,0.1-0.1c0,0-0.3,0.1-0.2,0l0.2-0.1
									c-0.1,0-0.3-0.1-0.3-0.3c0.1-0.1,0.3,0,0.5,0.1s0.2,0.1,0.2,0.1l0,0c0-0.1-0.1-0.1-0.1-0.2c0-0.2,0-0.3,0-0.4
									c0,0-0.2-0.1-0.3-0.3c0.1-0.1,0.1-0.1,0.2-0.2c0-0.3,0-0.6,0-0.9c0-0.2-0.3-0.6-1.1-0.4c-0.2,0.3-0.4,0.6-0.5,0.9
									c-0.1,0-0.3,0-0.4,0.1c0.1-0.2,0.3-0.5,0.5-0.6c-0.5,0.1-0.6,0.6-0.6,0.9c-0.2,0-0.3,0.1-0.4,0.3c0.1,0.4,0.3,0.7,0.5,1
									c-0.2,0.2-0.5-0.4-0.5,0.3c0.2,0.2,0.3,0.1,0.4,0c0.1-0.1,0.2-0.1,0.4,0.1c-0.1,0.4-0.3,0.5,0.2,0.8c-0.1,0.2-0.2,0.1-0.4,0
									c0.1,0.1,0.2,0.2,0.4,0.3s0.4,0.3,0.8,0.4c0.4,0.1,1,0,1.2-0.2s0.2-0.3,0.2-0.4c0.2,0,0.4-0.3,0.5-0.5s0.2-0.4,0.5-0.3
									c-0.1-0.2-0.2-0.7-0.2-1.2c0.3,0.4,0.4,0.1,0.3-0.6c-0.1-0.4-0.4-0.8-0.7-1.1s-0.5-0.4-0.3-0.5c-0.8,0-1.5,0.2-2.1,0.6
									c-0.6,0.4-0.9,1-0.9,1.5c0-0.1-0.1-0.2,0-0.3c-0.2,0.5-0.4,0.7-0.5,1.1c0.2,0,0.4,0.3,0.6,0.5c0.2,0.3,0.5,0.5,0.8,0.5
									c0.1,0.4,0,0.5-0.3,0.4c-0.2,0-0.6-0.2-0.6,0.1c0.1-0.1,0.5,0.1,0.8,0.3c0.3,0.1,0.6,0.1,0.6-0.1c0.4,0.4,0.4,0.3,0.7,0.7
									c0.1-0.3,0.2-0.3,0.4-0.3s0.4,0,0.6-0.3c0.5,0,0.6,0,0.7,0c0.1,0,0.3,0,0.5-0.6c0.3-0.3,0.3-0.1,0.2,0.2
									C170.9,49.4,170.7,49.6,170.7,49.6z M168.3,49.7L168.3,49.7c-0.1-0.1-0.2-0.1-0.3-0.2C168.1,49.6,168.2,49.6,168.3,49.7z
									 M170.5,49.9c-0.5,0.3-1,0.2-1.3,0.1c0-0.1,0.2-0.2,0.4-0.2c-0.1,0,0,0.1,0.2,0.1c0.1,0,0.2,0,0.4,0
									C170.1,50,170.3,50,170.5,49.9z M169.6,48.9C169.7,48.9,169.6,48.9,169.6,48.9h-0.1l0,0H169.6z"/>
								<path class="st0" d="M169.2,48.8C169.2,48.8,169.2,48.7,169.2,48.8C169.2,48.7,169.2,48.7,169.2,48.8L169.2,48.8L169.2,48.8
									z"/>
								<path class="st0" d="M168.3,48L168.3,48C168.3,48,168.2,48,168.3,48C168.2,48,168.3,48,168.3,48z"/>
								<polygon class="st0" points="171.5,51.9 171.4,51.8 171.4,52 								"/>
								<path class="st0" d="M170.8,49.6h0.1C170.9,49.6,170.9,49.6,170.8,49.6z"/>
								<path class="st0" d="M172.1,47.7c0.1-0.1,0.1-0.2,0.2-0.3C172.2,47.5,172.2,47.6,172.1,47.7z"/>
								<path class="st0" d="M170.3,47c0.1,0,0.1,0,0.2,0.1l0,0L170.3,47z"/>
								<path class="st0" d="M167.7,53.4L167.7,53.4C167.5,53.4,167.6,53.4,167.7,53.4z"/>
								<path class="st0" d="M173.5,48.9c0.1,0.1,0.1,0.2,0.2,0.3C173.7,49,173.7,48.9,173.5,48.9z"/>
								<polygon class="st0" points="166.5,44.8 166.5,44.8 166.6,44.8 								"/>
								<path class="st0" d="M173.6,49.5c0.1-0.1,0.1-0.3,0-0.4C173.6,49.2,173.6,49.4,173.6,49.5z"/>
								<path class="st0" d="M169.7,51L169.7,51C169.6,51,169.6,51,169.7,51C169.6,51,169.7,51,169.7,51z"/>
								<path class="st0" d="M169.6,51L169.6,51C169.6,51.1,169.6,51.1,169.6,51z"/>
								<path class="st0" d="M169.6,51.2C169.6,51.1,169.6,51.1,169.6,51.2C169.6,51.1,169.6,51.1,169.6,51.2z"/>
								<path class="st0" d="M170.8,50.3L170.8,50.3C170.7,50.3,170.7,50.3,170.8,50.3z"/>
								<path class="st0" d="M171,49.9c-0.1,0.1-0.4,0.1-0.4,0.2l0.1,0.1C170.6,50.1,171.1,50.1,171,49.9z"/>
								<path class="st0" d="M172.4,47.8c0.1,0.2,0.2,0.4,0.2,0.6c0.1-0.1,0.2-0.4,0.3-0.1C172.9,47.4,172.7,48.6,172.4,47.8z"/>
								<path class="st0" d="M171.7,46.9C172.1,47,171.7,46.9,171.7,46.9L171.7,46.9L171.7,46.9z"/>
								<path class="st0" d="M170.1,46.3v0.3C170.3,46.6,170.1,46.5,170.1,46.3z"/>
								<path class="st0" d="M172.5,45.5c0-0.1,0-0.2-0.1-0.3c-0.1,0-0.2,0.1-0.3,0.2C172.3,45.4,172.4,45.4,172.5,45.5z"/>
								<path class="st0" d="M171.3,47.7L171.3,47.7l0.1,0.1L171.3,47.7z"/>
								<path class="st0" d="M169.2,46.7v-0.5C169.2,46.4,169.1,46.9,169.2,46.7z"/>
								<path class="st0" d="M168.4,50.1c-0.1-0.2-0.1-0.3-0.2-0.1C168.3,50,168.4,50.2,168.4,50.1z"/>
								<path class="st0" d="M169.6,49h-0.1C169.5,49,169.5,49,169.6,49L169.6,49z"/>
							</g>
						</g>
					</g>
				</g>
			</g>
			<g>
				<path class="st2" d="M146.9,46.5c0,0,5.2-0.8,12.6-4.4c7.4-3.7,27.3-14.7,62.2-4.3s42.1,19.8,64.6,14.9c0,0,7.7,0.7,2.1,6.3
					s-49.5,28.9-77.7,25.6S171,76,161,69.3S143.6,49.6,146.9,46.5z"/>
			</g>
			<g>
				<path class="st3" d="M185.2,59.2c0,0,20.5-0.5,25.6,3.3c0,0-5.5,1-7.2,5.2c-1.6,4.2-3.7,7.5-5.1,7.8c-1.4,0.3-5.8-2.4-9.3-6.2
					c-1.8-2-4.7-6.3-6-7.3C183.3,61.9,180.7,59.6,185.2,59.2z"/>
			</g>
			<g>
				<path class="st4" d="M192.9,81.9c0,0,9.9,11.4,20.1,12.5c0,0,2.8-6.1-3.1-9.9"/>
			</g>
			<g>
				<path class="st3" d="M247.4,46.8c-16.4-14.3-37.2-22.2-37.2-22.2c-3.8,0.4-14.4,8.8-14.4,8.8s9.9-0.3,25.8,4.3
					C227.7,39.5,247.4,46.8,247.4,46.8z"/>
			</g>
			<g>
				<path class="st3" d="M286.2,52.7c0,0,1.5-29.9,22.4-33.3c0,0,3.4,12-1.5,20.3s-12.7,13-7.6,14.9c5,1.9,18.1,12.6,18.1,27.2
					c0,0-14.3-0.2-22.4-9.1s-3.1-11-8-12.8"/>
			</g>
			
				<ellipse transform="matrix(0.1957 -0.9807 0.9807 0.1957 125.8766 235.1851)" class="st4" cx="206.3" cy="40.9" rx="2" ry="3.1"/>
			
				<ellipse transform="matrix(0.1957 -0.9807 0.9807 0.1957 126.9387 246.9912)" class="st4" cx="214" cy="46.1" rx="1.8" ry="2.5"/>
			
				<ellipse transform="matrix(0.1957 -0.9807 0.9807 0.1957 137.7569 257.2259)" class="st4" cx="225.7" cy="44.6" rx="1.8" ry="2.5"/>
			
				<ellipse transform="matrix(0.1957 -0.9807 0.9807 0.1957 139.6798 269.4518)" class="st4" cx="234.1" cy="49.6" rx="1.5" ry="2.1"/>
			
				<ellipse transform="matrix(0.1957 -0.9807 0.9807 0.1957 147.979 279.4815)" class="st4" cx="244.4" cy="49.5" rx="1.5" ry="2.1"/>
			<path class="st5" d="M181.4,34.4c0,0,10.2,28-7.4,41.9c0,0-12.9-5.1-18.8-11.9c-5.9-6.8-12.6-17-7.4-18.4
				c5.2-1.4,13.7-5.4,18.9-7.6C171.8,36.3,181.4,34.4,181.4,34.4z"/>
			
				<ellipse transform="matrix(0.1957 -0.9807 0.9807 0.1957 127.119 259.3401)" class="st4" cx="221.7" cy="52.2" rx="1.5" ry="2.1"/>
			
				<ellipse transform="matrix(0.1957 -0.9807 0.9807 0.1957 113.993 231.1797)" class="st4" cx="197.9" cy="46.1" rx="1.5" ry="2.1"/>
			<ellipse transform="matrix(0.1957 -0.9807 0.9807 0.1957 91.6362 205.3293)" class="st6" cx="171" cy="46.8" rx="4.8" ry="4.3"/>
			<ellipse class="st7" cx="169.6" cy="47" rx="2.9" ry="3.6"/>
		</g>
	</g>
</g>
</svg>
