<?xml version="1.0" encoding="utf-8"?>
<!-- Generator: Adobe Illustrator 22.0.1, SVG Export Plug-In . SVG Version: 6.00 Build 0)  -->
<svg version="1.1" id="Layer_1" xmlns="http://www.w3.org/2000/svg" xmlns:xlink="http://www.w3.org/1999/xlink" x="0px" y="0px"
	 viewBox="0 0 500 200" style="enable-background:new 0 0 500 200;" xml:space="preserve">
<style type="text/css">
	.st0{fill:#AF5126;}
	.st1{fill:#F1634E;}
	.st2{fill:#FAF2DD;}
	.st3{fill:#3F3128;}
</style>
<g id="Layer_4">
	<g>
		<g>
			<g>
				<path class="st0" d="M410.4,98.9c1.1,0,2.6,2.2,2.7,3.3c0,1.1-0.5,2.1-0.9,3c-5.2,0.5-10.6-2.2-13.3-6.7"/>
			</g>
			<g>
				<path class="st0" d="M432.9,89.7c2.6-0.5,5.9,0.5,7.9,2.2c0.5,0.4,0.9,0.8,1.1,1.4c0.4,1.3-0.7,2.6-1.9,3s-2.6,0.1-3.9-0.2
					c-2.8-0.6-5.7-1.3-8.5-1.9"/>
			</g>
			<g>
				<path class="st0" d="M417.9,74c0.8-2.1,1.5-4.2,2.3-6.4c0.2-0.5,0.4-1.1,0.1-1.6c-0.4-0.6-1.3-0.6-2-0.5c-3.1,0.5-6.3,1-9.1,2.5
					c-4.3,2.3-7.1,6.6-9.6,10.7"/>
			</g>
			<g>
				<path class="st1" d="M445.7,78.1c10.1-5.5,21.9-8,33.4-6.9c-3.9,5.3-6.6,11.4-8,17.8c-2.9-0.5-5.8-1-8.7-1.5
					c-5-0.8-9-3-12.9-3.5"/>
			</g>
			<g>
				<path class="st1" d="M449.5,84c-7.3-0.9-13.5,5-19.8,8.9c-8,4.9-17.6,6.9-27,7.1c-9.1,0.2-18.1-1.1-27.1-2.5
					c-0.6-0.1-0.9-0.6-0.7-1.2c1.1-3.8,4.6-6.6,7.9-8.8c18.9-12.7,43.8-18.1,64.9-9.5"/>
			</g>
			<g>
				<circle class="st2" cx="390.6" cy="88.7" r="3.6"/>
			</g>
			<ellipse class="st3" cx="389.6" cy="88.7" rx="2.6" ry="3.2"/>
			<path class="st0" d="M397.3,82.3c0,0,3.8,6.6,1.5,14.1C398.8,96.5,405.1,84.9,397.3,82.3z"/>
		</g>
	</g>
</g>
</svg>
