<?xml version="1.0" encoding="utf-8"?>
<!-- Generator: Adobe Illustrator 22.0.1, SVG Export Plug-In . SVG Version: 6.00 Build 0)  -->
<svg version="1.1" id="Layer_1" xmlns="http://www.w3.org/2000/svg" xmlns:xlink="http://www.w3.org/1999/xlink" x="0px" y="0px"
	 viewBox="0 0 500 200" style="enable-background:new 0 0 500 200;" xml:space="preserve">
<style type="text/css">
	.st0{fill:#FBC241;}
	.st1{fill:#FAF2DD;}
	.st2{fill:#FFFFFF;}
	.st3{fill:#3F3128;}
</style>
<g id="Layer_1_1_">
	<g>
		<g>
			<g>
				<path class="st0" d="M278.4,169.9c0.5,0.1,0.9,0.4,1.1,0.8c0.4,0.9-0.3,2-1.2,2.4s-1.9,0.5-2.9,0.8c-0.4,0.2-0.8,0.4-1.2,0.5
					c-0.9,0.3-1.8,0.2-2.7,0.1c-2.4-0.4-5-1.5-5.9-3.8"/>
			</g>
			<g>
				<path class="st0" d="M297.4,159.5c0.7,1.5,2.3,2.4,3.9,2.4c0.7,0,1.3-0.2,2-0.2s1.4,0.3,1.7,0.9c0.2,0.5,0,1.2-0.3,1.6
					s-0.9,0.7-1.4,1c-2.6,1.3-5.3,2.1-8.1,2.6c-0.4,0.1-0.8,0.1-1.2,0.1c-1.3-0.2-2.2-1.4-2.9-2.5"/>
			</g>
			<g>
				<path class="st0" d="M260.9,151c0.7-2.7,2.6-5,4.7-6.8c4.8-3.9,11.3-5.5,17.3-4.3c0.2,0,0.5,0.1,0.6,0.3s0,0.4,0,0.6
					c-0.5,1.5-1.8,2.5-3.1,3.4c-1,0.7-2,1.4-2.5,2.6"/>
			</g>
			<g>
				<path class="st1" d="M301.1,149.9c2.3-0.8,4.8,0.7,7.2,0.5c2.4-0.2,4.4-1.9,6-3.7c3.7-4.1,6.5-9.2,11.8-11.6
					c1.9-0.9,4-1.2,6-0.8c5,1,6.1,5.1,6.8,8.8c0.8,4.4,1.4,8.8,1.7,13.2c0.2,2.6,0.1,5.6-3,6.6c-1.1,0.3-2.4,0.3-3.5-0.1l-16.3-4.5
					c-2.2-0.6-4.5-1.2-6.7-1.1c-1.9,0.1-3.7,0.6-5.5,1.2c-3.2,1-6.5,1.9-9.3,3.7c-2.3,1.5-4.3,3.5-6.7,4.8c-1.6,0.8-3.4,1.3-5.2,1.8
					c-8.5,2.2-17.2,4.1-25.9,3.4c-6.5-0.5-12.7-2.5-18.9-4.4c3.7-6.6,9.9-11.6,16.7-14.9s14.2-5.2,21.6-6.7c2.6-0.5,5.2-1,7.8-0.9
					c2.7,0.1,5.3,0.8,7.9,1.5c3.7,1,7.3,1.9,11,2.9"/>
			</g>
			<g>
				<path class="st0" d="M263.4,163.8c-0.2-0.3-0.2-0.7-0.1-1c1.1,0.6,2.4-0.4,3.4-1.1c1-0.7,2-1.1,3.2-1.4c0.6-0.2,1.3-0.3,1.9-0.1
					s1.1,0.7,1.2,1.3c0,0.5-0.3,1-0.6,1.4c-0.4,0.6-0.8,1.2-1.3,1.8c-0.2,0.3-0.4,0.6-0.7,0.8c-0.3,0.2-0.7,0.3-1.1,0.4
					c-2,0.5-4.2,1-6.1,0.3"/>
			</g>
			<g>
				<circle class="st2" cx="253.1" cy="163.1" r="3.6"/>
			</g>
			<ellipse class="st3" cx="252.1" cy="163.1" rx="2.6" ry="3.2"/>
			<path class="st0" d="M260.6,154.1c0,0,6.8,9.6,1.1,17.4C261.6,171.5,264.5,166.5,260.6,154.1z"/>
		</g>
	</g>
</g>
</svg>
