<svg id="Layer_1" data-name="Layer 1" xmlns="http://www.w3.org/2000/svg" viewBox="0 0 1920 1080"><defs><style>.cls-1{fill:#fff;}.cls-2{fill:#775a41;}.cls-3{fill:#d75b4d;}.cls-4{fill:#76a075;}.cls-5{fill:none;stroke:#fff;stroke-miterlimit:10;stroke-width:1.47px;}.cls-6{fill:#285e85;}.cls-7{fill:#f3b744;}</style></defs><title>1.10</title><path class="cls-1" d="M170.07,153.92s14.24,31.44-45.06,31.46c-50.23,0-55.46-22.27-49-31.17,0,0-32.31-15.34-23-67.12,0,0-5.89-20.13,21-28.81,0,0-3.47-23,10.55-23s28.12,5.45,44.19,0c17.09-5.79,17.17,14.76,17.17,14.76s9.9-8.07,21.85-4.7,9,18.13,9,18.13S191.88,67,193.38,97.78C194.65,123.73,182.41,145.25,170.07,153.92Z"/><path class="cls-2" d="M81.07,166.12l2.55-4.68,1.16.63-2.39,4.39a.61.61,0,0,0-.09.43.56.56,0,0,0,.3.31l.49.27-.5.93-1-.55A1.13,1.13,0,0,1,81.07,166.12Z"/><path class="cls-2" d="M85.14,167.07a1.4,1.4,0,0,1,1.52-1l-1.06-.86.58-1.24a4.69,4.69,0,0,1,1.58-.16,5,5,0,0,1,1.77.48,3.52,3.52,0,0,1,1.79,1.52,2.46,2.46,0,0,1-.16,2.14l-1.73,3.71-1.21-.56L90,167.38a1.51,1.51,0,0,0,.15-1.24,2.09,2.09,0,0,0-1.08-.87,3.73,3.73,0,0,0-1.1-.32,2.07,2.07,0,0,0-1,.06l-.09.2,1.11.91-.37.8a1.16,1.16,0,0,0-.78.07,1.32,1.32,0,0,0-.51.65l-1,2.15-1.2-.56Z"/><path class="cls-2" d="M92.21,172.21a2.55,2.55,0,0,1,0-2.16l1.38-3.79,1.25.45-1.4,3.84a1.55,1.55,0,0,0,0,1.27,1.89,1.89,0,0,0,1.07.8,1.86,1.86,0,0,0,1.32.07,1.56,1.56,0,0,0,.8-1l.3-.82-1.48-.54.34-.95,1.49.54.75-2.07,1.25.45-.75,2.07.68.25-.44.92-.59-.21-.28.77a2.48,2.48,0,0,1-1.42,1.62,3.31,3.31,0,0,1-2.34-.12A3.35,3.35,0,0,1,92.21,172.21Z"/><path class="cls-2" d="M99.73,174.65a3.72,3.72,0,0,1-.08-2.61,5,5,0,0,1,1.22-2.38,1.78,1.78,0,0,1,1.78-.47,1.62,1.62,0,0,1,.72.35,1.66,1.66,0,0,1,.4.6,2,2,0,0,1,.77-.28,2.07,2.07,0,0,1,.86,0,1.45,1.45,0,0,1,1,.74,2,2,0,0,1,.06,1.37l-1.26,4.8-1.29-.34,1.21-4.61a1.24,1.24,0,0,0,0-.7.59.59,0,0,0-.44-.33.86.86,0,0,0-.48,0,.81.81,0,0,0-.4.34l-.71-.19a1.4,1.4,0,0,0-.2-.5.69.69,0,0,0-.39-.24.85.85,0,0,0-1,.4,5.28,5.28,0,0,0-.69,1.7,2.86,2.86,0,0,0-.05,1.78,1.5,1.5,0,0,0,1.07.83,3.18,3.18,0,0,0,.84.12l-.25,1a3.43,3.43,0,0,1-1.08-.13A2.49,2.49,0,0,1,99.73,174.65Z"/><path class="cls-2" d="M108.1,177.4a4.13,4.13,0,0,1-.93-.41l.19-1.1a5,5,0,0,0,.93.45,5.72,5.72,0,0,0,1,.26,3.67,3.67,0,0,0,1.28.06.61.61,0,0,0,.48-.56.71.71,0,0,0-.06-.49,1,1,0,0,0-.35-.35c-.16-.1-.4-.24-.74-.41l-.44-.24a5,5,0,0,1-1.35-1,1.45,1.45,0,0,1-.3-1.23,1.63,1.63,0,0,1,.9-1.25,3.3,3.3,0,0,1,2-.16,7.17,7.17,0,0,1,1.06.27,5.89,5.89,0,0,1,.88.36l-.19,1.08a4.93,4.93,0,0,0-.83-.37,5,5,0,0,0-.91-.25,3.41,3.41,0,0,0-1.18,0,.62.62,0,0,0-.5.53.63.63,0,0,0,.1.45,1.25,1.25,0,0,0,.39.36c.17.11.44.26.8.45l.33.17a4.44,4.44,0,0,1,1.37,1,1.57,1.57,0,0,1,.25,1.29,1.55,1.55,0,0,1-.93,1.26,3.53,3.53,0,0,1-2,.12A9.21,9.21,0,0,1,108.1,177.4Z"/><path class="cls-2" d="M114.3,171.68l1.2.1,0,.72a3.51,3.51,0,0,1,2.41-.65,2.16,2.16,0,0,1,1.57.75,2.46,2.46,0,0,1,.44,1.8l-.35,4.34-1.32-.11.35-4.28a1.37,1.37,0,0,0-.25-1.06,1.47,1.47,0,0,0-1-.41,2.52,2.52,0,0,0-1,.14,2.7,2.7,0,0,0-.87.51l-.39,4.84-1.33-.11Z"/><path class="cls-2" d="M126.21,174.59a1.47,1.47,0,0,0-.42-1.17,2.06,2.06,0,0,0-1.35-.32,3.53,3.53,0,0,0-1.13.2,2.25,2.25,0,0,0-.83.46V174l1.4.33,0,.88a1.19,1.19,0,0,0-.67.41,1.32,1.32,0,0,0-.18.81v.79a.62.62,0,0,0,.13.41.58.58,0,0,0,.4.11h.67l0,1-1.32,0a1.14,1.14,0,0,1-.88-.32,1.27,1.27,0,0,1-.33-.89l0-1.15a1.36,1.36,0,0,1,.94-1.53l-1.33-.31,0-1.37a4.48,4.48,0,0,1,1.35-.83,4.73,4.73,0,0,1,1.8-.35,3.49,3.49,0,0,1,2.28.58,2.44,2.44,0,0,1,.79,2l.11,6.06-1.33,0Z"/><path class="cls-2" d="M130.42,177.91a2.52,2.52,0,0,1-1-1.9l-.48-4,1.31-.16.49,4.06a1.49,1.49,0,0,0,.57,1.13,2.29,2.29,0,0,0,2.52-.3,1.52,1.52,0,0,0,.27-1.24l-.1-.86-1.57.19-.12-1,1.57-.19-.27-2.19,1.33-.16.26,2.19.72-.09,0,1-.62.08.1.81a2.52,2.52,0,0,1-.54,2.1,3.36,3.36,0,0,1-2.13.94A3.3,3.3,0,0,1,130.42,177.91Z"/><path class="cls-2" d="M139.52,178.48a4.78,4.78,0,0,1,1.93-.9,5.16,5.16,0,0,1,.93-.12,3,3,0,0,1,.78.09L142,172.29a1.51,1.51,0,0,0-.63-1.06,1.93,1.93,0,0,0-1.33,0,3.8,3.8,0,0,0-1.08.42,2.17,2.17,0,0,0-.7.62l0,.22,1.48,0,.19.85a1,1,0,0,0-.5.51,1.7,1.7,0,0,0,0,.83l.2.86a1.31,1.31,0,0,1-1.08,1.78l-.8.18-.23-1,.44-.1a.48.48,0,0,0,.33-.2.61.61,0,0,0,0-.41l-.18-.8a2.22,2.22,0,0,1,0-1,1.11,1.11,0,0,1,.54-.69l-1.38,0-.31-1.34a4.56,4.56,0,0,1,1.14-1.08,4.88,4.88,0,0,1,1.69-.72,3.26,3.26,0,0,1,2.29.13,2.46,2.46,0,0,1,1.17,1.77l1.45,6.31-1.29.3a3.78,3.78,0,0,0-1.86,0,4.4,4.4,0,0,0-1,.34,4.28,4.28,0,0,0-.84.52Z"/><path class="cls-2" d="M137.23,169.06,141,168l-.28-1,1.06-.3.53,1.87L137.42,170Z"/><path class="cls-2" d="M145.5,174.28l-.83-2.7a2.07,2.07,0,0,1-.08-1.11,4.4,4.4,0,0,1,.4-1c.11-.24.19-.42.23-.54a.55.55,0,0,0,0-.38.54.54,0,0,0-.32-.4,1.23,1.23,0,0,0-.63.06,2.79,2.79,0,0,0-1.17.75l-.28-.94a2.72,2.72,0,0,1,.7-.57,3.75,3.75,0,0,1,.87-.39,1.93,1.93,0,0,1,1.34,0,1.28,1.28,0,0,1,.72.87,1.36,1.36,0,0,1,0,.74,4.49,4.49,0,0,1-.31.81,5,5,0,0,0-.32.94,1.66,1.66,0,0,0,.06.87l.73,2.35a.68.68,0,0,0,.22.39.64.64,0,0,0,.45,0l.54-.17.31,1-1.09.33A1.12,1.12,0,0,1,145.5,174.28Z"/><path class="cls-2" d="M147.44,168.11l1.24-.48.75,1.94,1.78-.69a1.33,1.33,0,0,0,.81-.62,1.29,1.29,0,0,0-.06-1l-.31-.8,1.23-.48.3.77a1.64,1.64,0,0,1-.3,2,1.18,1.18,0,0,1,.89.28,2.43,2.43,0,0,1,.56.88l.87,2.27-1.23.47-.82-2.12a1.36,1.36,0,0,0-.6-.81,1.43,1.43,0,0,0-1,.11l-1.74.67,1.27,3.28-1.25.48Z"/><path class="cls-2" d="M159.14,170.27a3.34,3.34,0,0,1-1.21-.11l.26.68-1.09.53-2.9-5.94,1.2-.58,2.13,4.38a2.7,2.7,0,0,0,1,.15,2.17,2.17,0,0,0,1-.24,1.42,1.42,0,0,0,.79-.75,1.44,1.44,0,0,0-.17-1.1l-1.87-3.84,1.19-.58,1.9,3.89a2.5,2.5,0,0,1,.24,1.85,2.18,2.18,0,0,1-1.22,1.3A3.4,3.4,0,0,1,159.14,170.27Z"/><path class="cls-2" d="M156.79,160.82l1.17-.63.95,1.77-1.17.63Z"/><polygon class="cls-3" points="66.11 101.25 66.42 73.22 76.77 66.41 86.44 73.49 86.13 101.47 66.11 101.25"/><polygon class="cls-3" points="79.4 101.4 79.53 89.34 89.88 82.52 99.55 89.61 99.32 109.49 79.4 101.4"/><rect class="cls-1" x="86.72" y="88.46" width="5.6" height="5.6" transform="translate(1.03 -1) rotate(0.64)"/><rect class="cls-1" x="73.61" y="72.34" width="5.6" height="5.6" transform="translate(0.85 -0.86) rotate(0.64)"/><path class="cls-3" d="M77.64,93.61l13.08-9.27H89.24l12.58,9.56c1.5,1.14,3-1.41,1.48-2.53L90.72,81.81a1.41,1.41,0,0,0-1.48,0L76.16,91.08c-1.53,1.08-.07,3.62,1.48,2.53Z"/><path class="cls-3" d="M64.32,77.49l13.09-9.27H75.93L88.5,77.78c1.5,1.14,3-1.4,1.48-2.53L77.41,65.69a1.43,1.43,0,0,0-1.48,0L62.84,75c-1.52,1.08-.06,3.62,1.48,2.53Z"/><path class="cls-4" d="M109.71,164a63,63,0,0,0,75.42-61.72,62.55,62.55,0,0,0-7.66-30.11A103.27,103.27,0,0,0,109.71,164Z"/><path class="cls-5" d="M152.89,116.16s-9.83-7.61-9.91-23.53"/><path class="cls-1" d="M144.34,122.47c3.6-4.07,7.07-8.4,10.39-12.77s6.5-8.9,9.53-13.51,5.8-9.38,8.4-14.25a126.47,126.47,0,0,0,6.68-15.17,126.38,126.38,0,0,1-5.82,15.58q-3.5,7.58-7.64,14.83t-8.82,14.18c-3.12,4.63-6.33,9.14-9.82,13.58Z"/><path class="cls-6" d="M122.17,119.08a102.72,102.72,0,0,1-62.79-21.3c-.1,1.47-.17,3-.17,4.45a63,63,0,0,0,125.92,0c0-1.5-.07-3-.17-4.45A102.72,102.72,0,0,1,122.17,119.08Z"/><path class="cls-7" d="M60,92.06a63,63,0,0,0,89.23,67A103.31,103.31,0,0,0,60,92.06Z"/><path class="cls-1" d="M72.16,104A19.48,19.48,0,0,1,75,106.77c.45.48.84,1,1.25,1.52s.79,1,1.16,1.59h-1.7c.36-.53.73-1.07,1.12-1.58s.77-1,1.21-1.53a18.94,18.94,0,0,1,2.8-2.79,20.08,20.08,0,0,1-1.47,3.67c-.28.59-.62,1.14-.93,1.71s-.67,1.11-1,1.65l-.83,1.29L75.76,111c-.37-.54-.73-1.09-1.07-1.65s-.68-1.12-1-1.71A20.54,20.54,0,0,1,72.16,104Z"/><path class="cls-1" d="M76.48,102.17a6.75,6.75,0,0,1,.83,2.06,10.38,10.38,0,0,1,.26,2.07,9.67,9.67,0,0,1-.19,2.07,6.57,6.57,0,0,1-.77,2.09,6.64,6.64,0,0,1-.84-2.06,9.76,9.76,0,0,1-.25-2.07,10.51,10.51,0,0,1,.18-2.08A6.8,6.8,0,0,1,76.48,102.17Z"/><path class="cls-1" d="M93.89,114.1a19.48,19.48,0,0,1,2.88,2.78c.45.48.84,1,1.26,1.52s.78,1,1.15,1.59h-1.7c.36-.53.73-1.07,1.12-1.58s.77-1,1.21-1.53a19.44,19.44,0,0,1,2.8-2.79,20.08,20.08,0,0,1-1.47,3.67c-.28.59-.62,1.14-.93,1.71s-.66,1.11-1,1.65l-.83,1.29-.87-1.27c-.36-.54-.73-1.09-1.06-1.65s-.68-1.12-1-1.71A20.54,20.54,0,0,1,93.89,114.1Z"/><path class="cls-1" d="M98.21,112.28a6.75,6.75,0,0,1,.83,2.06,9.78,9.78,0,0,1,.26,2.07,9.67,9.67,0,0,1-.19,2.07,6.57,6.57,0,0,1-.77,2.09,6.64,6.64,0,0,1-.84-2.06,9.9,9.9,0,0,1-.06-4.15A6.6,6.6,0,0,1,98.21,112.28Z"/><path class="cls-1" d="M79.81,127.32a20,20,0,0,1,2.88,2.78c.45.49.84,1,1.26,1.52s.78,1,1.15,1.59l-1.7,0c.36-.54.73-1.07,1.12-1.59s.77-1,1.21-1.52a19.5,19.5,0,0,1,2.8-2.8A19.76,19.76,0,0,1,87.06,131c-.28.59-.62,1.14-.92,1.71s-.67,1.1-1,1.65l-.84,1.29-.87-1.28c-.36-.54-.72-1.08-1.06-1.65s-.68-1.12-1-1.71A19.59,19.59,0,0,1,79.81,127.32Z"/><path class="cls-1" d="M84.13,125.5a6.6,6.6,0,0,1,.83,2.06,9.17,9.17,0,0,1,.26,2.07,9.82,9.82,0,0,1-.19,2.08,6.6,6.6,0,0,1-.77,2.08,6.54,6.54,0,0,1-.84-2.06,9.85,9.85,0,0,1-.06-4.14A6.57,6.57,0,0,1,84.13,125.5Z"/><path class="cls-1" d="M97.3,144a20,20,0,0,1,2.88,2.78c.45.49.84,1,1.25,1.52s.79,1.05,1.16,1.59l-1.7,0c.36-.54.72-1.07,1.11-1.59s.78-1,1.22-1.52A18.53,18.53,0,0,1,106,144a20.08,20.08,0,0,1-1.47,3.67c-.28.59-.62,1.15-.93,1.72s-.67,1.1-1,1.64l-.83,1.29L100.9,151c-.37-.54-.73-1.09-1.07-1.65s-.68-1.12-1-1.71A19.84,19.84,0,0,1,97.3,144Z"/><path class="cls-1" d="M101.61,142.13a6.54,6.54,0,0,1,.84,2.06,9.76,9.76,0,0,1,.25,2.07,9.06,9.06,0,0,1-.18,2.07,6.82,6.82,0,0,1-.77,2.09,6.31,6.31,0,0,1-.84-2.06,9.17,9.17,0,0,1-.26-2.07,9.82,9.82,0,0,1,.19-2.08A7.14,7.14,0,0,1,101.61,142.13Z"/><path class="cls-1" d="M113.45,128.12a19.48,19.48,0,0,1,2.88,2.78c.45.48.84,1,1.26,1.52s.78,1.05,1.15,1.59H117c.36-.53.73-1.07,1.12-1.58s.77-1,1.21-1.53a19.44,19.44,0,0,1,2.8-2.79,19.4,19.4,0,0,1-1.47,3.67c-.28.59-.62,1.14-.92,1.71s-.67,1.11-1,1.65l-.84,1.29-.87-1.27c-.36-.54-.72-1.09-1.06-1.65s-.68-1.12-1-1.71A19.88,19.88,0,0,1,113.45,128.12Z"/><path class="cls-1" d="M117.77,126.3a6.51,6.51,0,0,1,.83,2.06,9.17,9.17,0,0,1,.26,2.07,9.67,9.67,0,0,1-.19,2.07,6.57,6.57,0,0,1-.77,2.09,6.64,6.64,0,0,1-.84-2.06,9.9,9.9,0,0,1-.06-4.15A6.52,6.52,0,0,1,117.77,126.3Z"/><path class="cls-1" d="M127.59,147.45a20,20,0,0,1,2.88,2.78c.45.49.84,1,1.26,1.52s.78,1.05,1.15,1.59l-1.7,0c.36-.54.73-1.07,1.12-1.59s.77-1,1.21-1.52a19,19,0,0,1,2.8-2.8,19.4,19.4,0,0,1-1.47,3.67c-.28.6-.62,1.15-.93,1.72s-.66,1.1-1,1.64l-.83,1.29-.87-1.27c-.36-.54-.73-1.09-1.06-1.65s-.68-1.12-1-1.71A19.88,19.88,0,0,1,127.59,147.45Z"/><path class="cls-1" d="M131.91,145.63a6.51,6.51,0,0,1,.83,2.06,9.17,9.17,0,0,1,.26,2.07,9.67,9.67,0,0,1-.19,2.07,6.57,6.57,0,0,1-.77,2.09,6.54,6.54,0,0,1-.84-2.06,9.9,9.9,0,0,1-.06-4.15A6.6,6.6,0,0,1,131.91,145.63Z"/><path class="cls-3" d="M80.51,53.25c.11-3.89,2.16-5.36,5.28-5.27a4.37,4.37,0,0,1,3.37,1.28l0-1.7c0-1.73-.83-2.68-3-2.74a5.5,5.5,0,0,0-3.91,1.31l-1.36-2a8.77,8.77,0,0,1,5.74-1.68,7.78,7.78,0,0,1,3.05.63,2.61,2.61,0,0,0,.81-1.32l2.75.67a4,4,0,0,1-1.41,2.36,4.32,4.32,0,0,1,.77,2.83l-.24,9-3.38-.09c.13-4.54-.73-6.19-3.23-6.25-1.26,0-2,.33-2.18,1.48,1.91-.1,2.74.77,2.69,2.55s-.74,2.51-3,2.45S80.45,55.57,80.51,53.25Zm4,1c0-.73-.21-1-1-1s-1,.21-1.06.93.23,1,1,1.06S84.49,55,84.51,54.24Z"/><path class="cls-3" d="M89,62.61a2.15,2.15,0,0,1-2.38-2.46c0-1.65.66-2.56,2.9-2.5s2.81,1,2.76,3l-.12,4.2-3.22-.09Zm1.41-2.33c0-.78-.21-1-1-1s-1,.21-1.05,1,.2,1,1,1S90.39,61,90.41,60.28Z"/><path class="cls-7" d="M95,52.2l0-1.06a4.65,4.65,0,0,1,1.59-3.36c-1.54-.14-2-.9-2-2.55s.71-2.51,3-2.45,2.92.75,2.87,2.68l0,.91c0,1.72-1.86,2.06-1.92,4.46l-.05,1.62c0,1.44.19,2.43,2.23,2.48s2.32-.91,2.36-2.36l.25-9.25,3.48.1-.24,8.94c-.08,2.89-1.51,5-5.92,4.92C96,57.15,94.92,54.75,95,52.2Zm3.53-6.79c0-.77-.2-1-1-1s-1.06.2-1.08,1,.23,1,1,1S98.5,46.13,98.52,45.41Z"/><path class="cls-4" d="M111.52,50a2.18,2.18,0,0,1-2.81-1.93c-.29-1.68.19-2.65,2.45-3.06s3.07.37,3.43,2.38l1.06,6,1-4.89,1.32-.24,2.71,4.23L119.19,44l3.43-.61L125,56.82l-3.5.62L118,52.2l-1.39,6.11-3.53.63Zm1-2.59c-.13-.76-.4-.95-1.19-.81s-1,.41-.84,1.17.4.9,1.18.76S112.68,48.15,112.55,47.44Z"/><path class="cls-6" d="M126.28,52.3,126,50.78c-.36-2,.17-3,2.4-3.42s3.05.35,3.34,2-.7,2.38-2.12,2.64l.06.35c.19,1,1,1.44,2.7,1.14s2.45-1.06,2.26-2.15l-.94-5.26c-.32-1.77-1.48-2.43-3.71-2a5.78,5.78,0,0,0-3.55,2l-1.72-1.61a9,9,0,0,1,5.31-2.8c4.57-.82,6.56.82,7.09,3.79l.91,5.1c.32,1.78-.57,4.42-5.24,5.25S126.7,54.68,126.28,52.3ZM130,49.73c-.14-.76-.41-.95-1.19-.81s-1,.41-.84,1.17.39.9,1.18.76S130.08,50.44,130,49.73Z"/><path class="cls-4" d="M98,76.54a2.2,2.2,0,0,1-2.85-1.9c-.31-1.67.16-2.65,2.41-3.08s3.11.33,3.48,2.33l.59,3.12L103,72.94c.63-1.83,1.38-2.68,2.93-3a2.41,2.41,0,0,1,3,2.19L111,83.28l-3.42.65-1.82-9.63c0-.28-.12-.37-.33-.33s-.3.21-.46.72l-2.49,7.13.56,3-3.42.65Zm1-2.6c-.14-.76-.41-.94-1.2-.8s-1,.42-.83,1.18.41.9,1.19.75S99.08,74.65,98.94,73.94Z"/><path class="cls-6" d="M101,64.71a5.63,5.63,0,0,1,3.5.34l-.35-1.85,3-.56,1.08,5.72L95.84,70.7C95.51,67.43,97.73,65.33,101,64.71Zm3.71,2.56c-.6-.81-1.94-1-3.36-.68s-2.51.87-2.6,1.8Z"/><path class="cls-7" d="M103.3,58.84l3-.56.65,3.45-3,.56Z"/><path class="cls-3" d="M115.65,71.74a2.54,2.54,0,0,1-2.5-3.09c.23-2,1.09-2.91,3.75-2.61s3.32,1.43,3,3.8l-.79,7,2.76-5.14,1.55.18,1.64,5.63,1.12-10,4,.45-1.78,15.81-4.12-.46-2.15-7-3.59,6.37-4.16-.46Zm2-2.55c.11-.9-.13-1.2-1.06-1.31s-1.23.14-1.33,1,.15,1.13,1.07,1.24S117.57,70,117.66,69.19Z"/><path class="cls-4" d="M127,60.82l4,.45-.56,4.93-4-.45Z"/><path class="cls-7" d="M131.41,79.18l.2-1.8c.26-2.36,1.19-3.31,3.82-3s3.29,1.4,3.07,3.37-1.57,2.43-3.25,2.24l0,.42c-.14,1.23.65,2,2.63,2.17s3.1-.38,3.24-1.66l.7-6.19c.23-2.09-.85-3.21-3.48-3.51a6.78,6.78,0,0,0-4.64,1.09l-1.39-2.37a10.54,10.54,0,0,1,6.87-1.38c5.38.61,7.07,3.1,6.68,6.6l-.68,6c-.23,2.1-2.11,4.76-7.61,4.14S131.09,82,131.41,79.18Zm5-1.65c.11-.9-.13-1.2-1.06-1.31s-1.23.14-1.33,1,.15,1.13,1.08,1.24S136.28,78.36,136.37,77.53Z"/><path class="cls-6" d="M148.56,75.17l-2-6.73c-.74-2.5,2-4.69,1.35-6.71-.27-.89-.84-1.18-1.88-.88a1.4,1.4,0,0,0-1.14,1.87l.25.84-3.33,1-.26-.86c-.71-2.4,1.22-4.32,3.87-5.1,3.31-1,5.11,0,5.75,2.17.72,2.42-1.86,4.72-1.24,6.82l1.38,4.65a2.18,2.18,0,0,1,3,1.61c.48,1.63.11,2.65-2.09,3.3S149.14,77.12,148.56,75.17Zm4-.84c-.21-.69-.49-.85-1.26-.62s-.92.51-.72,1.21.51.9,1.28.67S152.78,75.07,152.56,74.33Z"/><path class="cls-4" d="M157,65.91a2.2,2.2,0,0,1-3-1.61c-.48-1.63-.11-2.65,2.09-3.3s3.12,0,3.7,2L161.5,69l1.37-4.47a2,2,0,0,1,.45-.83,2,2,0,0,1-1.73-1.67c-.48-1.63-.17-2.66,2-3.31s3-.22,3.56,1.66a2,2,0,0,1-.59,2.38c.66.13,1.1.61,1.37,1.53l2.11,7.14-3.33,1-1.69-5.69c-.08-.27-.16-.35-.3-.31s-.21.2-.32.55l-2,6.72-2.94.87Zm.71-2.69c-.22-.74-.51-.89-1.27-.67s-.93.52-.71,1.26.5.85,1.26.62S157.87,63.92,157.66,63.22Zm7.72-2.28c-.22-.74-.54-.89-1.3-.66s-.93.51-.71,1.26.5.84,1.26.62S165.58,61.64,165.38,60.94Z"/><path class="cls-3" d="M158.91,57.16c.66-.2,1.07-.37,1.1-.81-1.32.52-2.18.08-2.54-1.13-.41-1.41.15-2.14,1.76-2.62s2.44-.1,2.86,1.33a2.73,2.73,0,0,1,0,2c1.45-.65,1.66-1.57,1.17-3.25l-.14-.45,2.48-.73.15.52a4.44,4.44,0,0,1-3.11,5.84l-3.24,1Zm1.72-2.91c-.18-.61-.46-.72-1.08-.54s-.78.42-.6,1,.41.74,1.07.54S160.81,54.85,160.63,54.25Z"/><path class="cls-5" d="M163.92,98.21s-7.94-8.32-5.81-19.72"/><path class="cls-5" d="M169.46,89.11s8.63.24,14.51-4"/></svg>