<svg id="Layer_7" data-name="Layer 7" xmlns="http://www.w3.org/2000/svg" viewBox="0 0 1920 4520"><defs><style>.cls-1{fill:#d85b4d;}.cls-2{fill:#152d53;}</style></defs><title>7.1-01</title><path class="cls-1" d="M470.4,426a19.47,19.47,0,0,1,1.3,6.37,3.23,3.23,0,0,1-1.44,2.6,5.08,5.08,0,0,1-3.21,1.12,5.65,5.65,0,0,1-3.67-1,4.08,4.08,0,0,1-1.53-2.51,55.09,55.09,0,0,0-1.45-7,13.1,13.1,0,0,0-2.65-4.6,41.87,41.87,0,0,1-4.13,5c-1.28,1.28-2.9,2.75-4.89,4.42a46.85,46.85,0,0,1-6.46,4.65,11,11,0,0,1-5.25,1.12,6,6,0,0,1-4.56-1.58,4.78,4.78,0,0,1-1.49-3.26c0-1.24.09-2.88.28-4.93q.64-8,.56-12.65c-.13.07-.51.24-1.17.52a9.93,9.93,0,0,1-3.48.41,8.16,8.16,0,0,1-4.84-1.58,11.33,11.33,0,0,1-3.53-4,10.07,10.07,0,0,1-1.3-4.83q0-5.21,3.25-7.77t8.93-2.55a9.49,9.49,0,0,1,7.67,3.25,12.78,12.78,0,0,1,2.84,8.28c.06,1.24.09,3.07.09,5.48q0,8.37-.74,16.84a38.33,38.33,0,0,0,6.74-5.12,75.38,75.38,0,0,0,6.18-7.07,17.1,17.1,0,0,1-5.2-5.85,13.79,13.79,0,0,1-1.77-6.42,8,8,0,0,1,1.77-4.93,12.94,12.94,0,0,1,4.46-3.72,11.33,11.33,0,0,1,5.21-1.4,15.4,15.4,0,0,1,4.65.84,11.71,11.71,0,0,1,3.62,1.68,9.23,9.23,0,0,1,3.63,7.44,14.13,14.13,0,0,1-1.35,6.23,12.41,12.41,0,0,1-3.86,4.65,25.75,25.75,0,0,1,2.19,2.55,15.67,15.67,0,0,1,1.72,2.75A49.73,49.73,0,0,1,470.4,426Zm-38.82-18.05c.89-.65,1.34-1.87,1.34-3.67a3.88,3.88,0,0,0-1.48-3.39,5.13,5.13,0,0,0-3-1.07A5.28,5.28,0,0,0,425,401a3.79,3.79,0,0,0-1.49,3.07,5.42,5.42,0,0,0,1.16,3.3,3.47,3.47,0,0,0,2.84,1.53A6.84,6.84,0,0,0,431.58,407.93ZM454,407.1a27.15,27.15,0,0,0,3.95,2.93c2.6-2.48,3.91-4.75,3.91-6.79a3.55,3.55,0,0,0-1.4-2.7,4.31,4.31,0,0,0-2.79-1.21,5.73,5.73,0,0,0-3.77,1.12,4.11,4.11,0,0,0-1.34,3.35A4.35,4.35,0,0,0,454,407.1Z"/><path class="cls-1" d="M529.41,418.68a9.56,9.56,0,0,1,3.4,7.81,8.85,8.85,0,0,1-1.26,4.37,11.2,11.2,0,0,1-3.26,3.67,6.91,6.91,0,0,1-4.13,1.44c-3.79,0-6.5-.83-8.14-2.51s-2.71-4.55-3.21-8.65A32,32,0,0,0,508,427.7a42.51,42.51,0,0,0-4.6,4.09,17.53,17.53,0,0,1-3.77,3.12A10.21,10.21,0,0,1,495,436a5.6,5.6,0,0,1-3.9-1.53,4.2,4.2,0,0,1-1.68-2.93,34.72,34.72,0,0,1,.28-3.81q.75-9.58,1-14.05a14.71,14.71,0,0,1-2,.52,14.28,14.28,0,0,1-3,.32,8.22,8.22,0,0,1-6.51-3.21,10.9,10.9,0,0,1-2.7-7.2,8.58,8.58,0,0,1,1.77-5.26,12.07,12.07,0,0,1,4.6-3.72,13.2,13.2,0,0,1,5.72-1.35q5.3,0,7.95,3.12t2.65,8.41q0,4.94-.42,11.35c-.27,4.28-.54,7.47-.79,9.58a39.88,39.88,0,0,1,14.51-9q-.56-6-.56-16.93,0-3.72,1.45-5.44a5.45,5.45,0,0,1,4.41-1.72,3.26,3.26,0,0,1,2.89,1.21,4.85,4.85,0,0,1,.83,2.79q0,4.09-.28,8.28c0,.87,0,2.41-.14,4.65s-.11,4.18,0,5.86A12.67,12.67,0,0,1,529.41,418.68Zm-38.55-17.91a4.83,4.83,0,0,0-6.23.14,3.8,3.8,0,0,0-1.49,3.07,5.83,5.83,0,0,0,1.07,3.21,3.11,3.11,0,0,0,2.65,1.63,6,6,0,0,0,4.05-1.26,4.25,4.25,0,0,0,1.44-3.39A3.92,3.92,0,0,0,490.86,400.77Zm34.64,28.56a2.75,2.75,0,0,0,1-2.28,7.29,7.29,0,0,0-.79-3.63,3.27,3.27,0,0,0-3.11-1.4,7.47,7.47,0,0,0-3.07.66,11.82,11.82,0,0,0-.19,2,7.67,7.67,0,0,0,.88,3.81,3,3,0,0,0,2.84,1.59A3.82,3.82,0,0,0,525.5,429.33Z"/><path class="cls-1" d="M516,386.64a3.46,3.46,0,0,1-1.21-2.65q-.18-2.7-.28-6.33t-.09-5.58a3.4,3.4,0,0,1,.93-2.37,3.23,3.23,0,0,1,2.61-1.25c3.47,0,5.2,1.17,5.2,3.53q0,2.5-.18,6.23t-.28,5.77a4.25,4.25,0,0,1-1.12,2.6,3.65,3.65,0,0,1-2.69.93A4.53,4.53,0,0,1,516,386.64Z"/><path class="cls-1" d="M546.94,401.8a32.57,32.57,0,0,0-3.72,2,15.19,15.19,0,0,1-1.86,1.11,3.72,3.72,0,0,1-1.58.47,3.29,3.29,0,0,1-2.28-.89,3.25,3.25,0,0,1-1-2.55,5.78,5.78,0,0,1,2.32-4.42,16.68,16.68,0,0,1,5.77-3.12,21.19,21.19,0,0,1,6.51-1.11q8.26,0,12.78,5.67t4.51,15.9a32.71,32.71,0,0,1-1.58,10.19,18,18,0,0,1-5.2,8.09,13.52,13.52,0,0,1-9.3,3.21,11.63,11.63,0,0,1-8.05-2.7,9.12,9.12,0,0,1,.23-13.76,11.36,11.36,0,0,1,7.82-2.89,16,16,0,0,1,3.76.51,10.94,10.94,0,0,1,3.12,1.17,6.16,6.16,0,0,0,.23-1.21,27.52,27.52,0,0,0,.14-3.26q0-6-2.33-9.58a7.71,7.71,0,0,0-6.88-3.53A8.36,8.36,0,0,0,546.94,401.8Zm8.79,22a4.09,4.09,0,0,0-3-1.07,5.19,5.19,0,0,0-3.54,1.21,4.52,4.52,0,0,0-1.39,3.62,2.91,2.91,0,0,0,1.53,2.42,5.39,5.39,0,0,0,3,1,4.61,4.61,0,0,0,3.11-1.16,4,4,0,0,0,1.35-3.21A3.84,3.84,0,0,0,555.73,423.84Z"/><path class="cls-1" d="M591.67,426.12q0,3.81,8.84,3.81a16.79,16.79,0,0,0,8.32-1.81q3.21-1.81,3.21-6.65,0-8.46.28-15c.19-4.37.37-7.21.56-8.51a6.61,6.61,0,0,1,1.58-3.44,5,5,0,0,1,3.63-1.12,4,4,0,0,1,2.93.84,3.86,3.86,0,0,1,.79,2.69l-.19,3.07q-1.11,13.13-1.12,24.46a9.84,9.84,0,0,1-2,5.68,14.52,14.52,0,0,1-6.55,4.69,32.26,32.26,0,0,1-12.14,1.91,29,29,0,0,1-7.16-1,18.53,18.53,0,0,1-6.47-2.93,5.91,5.91,0,0,1-2.65-4.93,6.4,6.4,0,0,1,2.79-5,13.93,13.93,0,0,1-6.55-6,17.93,17.93,0,0,1-2.37-9.07,14.41,14.41,0,0,1,1.9-7.43,13.87,13.87,0,0,1,4.88-5,12,12,0,0,1,6.14-1.76q5.49,0,8.14,2.55a8.84,8.84,0,0,1,2.65,6.65,11.36,11.36,0,0,1-2.88,7.81c-1.93,2.18-4.72,3.26-8.37,3.26a11.89,11.89,0,0,1-2.23-.19,14.44,14.44,0,0,1-2.33-.65,6,6,0,0,0,2.23,3.91,6.55,6.55,0,0,0,4.19,1.49,16.69,16.69,0,0,0,3.39-.28,15,15,0,0,0,2.56-.84q.18-.09,1-.42a6.15,6.15,0,0,1,2.14-.32,1.63,1.63,0,0,1,1.54.74,4.33,4.33,0,0,1,.41,2.05,3.33,3.33,0,0,1-1,2,8.46,8.46,0,0,1-3.21,2,15.11,15.11,0,0,1-5.62.89h-.56A3.24,3.24,0,0,0,591.67,426.12ZM586.51,407a3.86,3.86,0,0,0,3.12,1.26,5.34,5.34,0,0,0,3.63-1.3,4.47,4.47,0,0,0,1.48-3.54q0-4.19-4.18-4.18a5.23,5.23,0,0,0-3.58,1.35,4.34,4.34,0,0,0-1.54,3.39A4.5,4.5,0,0,0,586.51,407Z"/><path class="cls-1" d="M652.31,413.89a6.51,6.51,0,0,0-.56-2,13.58,13.58,0,0,1-5.86,1.11,8.65,8.65,0,0,1-4.65-1.39,10.73,10.73,0,0,1-3.62-3.82,10.39,10.39,0,0,1-1.4-5.3,7.23,7.23,0,0,1,1.58-4.41,11.73,11.73,0,0,1,8.93-4.51q7.35,0,10.93,5.95t3.58,15.72a69.92,69.92,0,0,1-.65,10.18,19.72,19.72,0,0,1-2.7,7.58,7.88,7.88,0,0,1-3.35,3.25,11.83,11.83,0,0,1-4.83.84,9.76,9.76,0,0,1-3.35-.51,4.26,4.26,0,0,1-2.23-1.91c-2.55-3.84-5.58-6.29-9.12-7.34-.37-.13-1.21-.36-2.51-.7a5.71,5.71,0,0,1-2.88-1.54,3.84,3.84,0,0,1-.93-2.69,3.9,3.9,0,0,1,1.49-3.35,5.82,5.82,0,0,1,3.62-1.12q4.19,0,8.93,3.44a29.63,29.63,0,0,1,7.44,7.54,32.31,32.31,0,0,0,2.33-13.12A14.89,14.89,0,0,0,652.31,413.89ZM650,406.54a3.13,3.13,0,0,0,1.2-2.56,5.08,5.08,0,0,0-1-3.3,3.94,3.94,0,0,0-3.25-1.25,4.42,4.42,0,0,0-3.07,1.07,3.47,3.47,0,0,0-1.21,2.74,4.18,4.18,0,0,0,1.25,3,4,4,0,0,0,2.93,1.31A4.92,4.92,0,0,0,650,406.54Z"/><path class="cls-1" d="M679.42,402.17a8.82,8.82,0,0,0-2.74,1.07c-.81.43-1.58.9-2.33,1.39a13.45,13.45,0,0,1-1.77,1.07,3.49,3.49,0,0,1-1.58.42,3.39,3.39,0,0,1-2.23-1,3.13,3.13,0,0,1-1.11-2.46,6.31,6.31,0,0,1,2.51-4.79,18.44,18.44,0,0,1,6-3.44,18.91,18.91,0,0,1,6.23-1.26q8.84,0,12.88,5.68t4.33,14.88q.36,11.34.37,17.48a6.33,6.33,0,0,1-1.3,4.33,5.41,5.41,0,0,1-4.19,1.44,3.9,3.9,0,0,1-3-1.3,4.26,4.26,0,0,1-1.21-3q0-4.65.28-8.93.18-5.58.18-8.74,0-13.11-8.65-13.11A14.67,14.67,0,0,0,679.42,402.17Z"/><path class="cls-1" d="M759.87,418.68a9.55,9.55,0,0,1,3.39,7.81,8.85,8.85,0,0,1-1.26,4.37,11.17,11.17,0,0,1-3.25,3.67,6.92,6.92,0,0,1-4.14,1.44c-3.78,0-6.49-.83-8.14-2.51s-2.71-4.55-3.21-8.65a32.56,32.56,0,0,0-4.79,2.89,43.48,43.48,0,0,0-4.6,4.09,17.29,17.29,0,0,1-3.77,3.12,10.16,10.16,0,0,1-4.69,1.06,5.62,5.62,0,0,1-3.91-1.53,4.22,4.22,0,0,1-1.67-2.93,32.39,32.39,0,0,1,.28-3.81q.74-9.58,1-14.05a16.34,16.34,0,0,1-4.93.84,8.23,8.23,0,0,1-6.51-3.21,10.9,10.9,0,0,1-2.7-7.2,8.58,8.58,0,0,1,1.77-5.26,12.1,12.1,0,0,1,4.61-3.72,13.16,13.16,0,0,1,5.71-1.35q5.31,0,8,3.12a12.59,12.59,0,0,1,2.65,8.41q0,4.94-.42,11.35c-.28,4.28-.55,7.47-.79,9.58a39.8,39.8,0,0,1,14.51-9q-.57-6-.56-16.93,0-3.72,1.44-5.44a5.46,5.46,0,0,1,4.42-1.72,3.25,3.25,0,0,1,2.88,1.21,4.79,4.79,0,0,1,.84,2.79c0,2.73-.1,5.49-.28,8.28,0,.87-.05,2.41-.14,4.65s-.11,4.18-.05,5.86A12.7,12.7,0,0,1,759.87,418.68Zm-38.55-17.91a5.13,5.13,0,0,0-3-1.07,5.06,5.06,0,0,0-3.25,1.21A3.77,3.77,0,0,0,713.6,404a5.75,5.75,0,0,0,1.07,3.21,3.1,3.1,0,0,0,2.65,1.63,5.94,5.94,0,0,0,4-1.26,4.25,4.25,0,0,0,1.44-3.39A3.91,3.91,0,0,0,721.32,400.77ZM756,429.33a2.78,2.78,0,0,0,1-2.28,7.4,7.4,0,0,0-.79-3.63c-.53-.93-1.57-1.4-3.12-1.4a7.47,7.47,0,0,0-3.07.66,12.9,12.9,0,0,0-.19,2,7.67,7.67,0,0,0,.89,3.81,3,3,0,0,0,2.83,1.59A3.83,3.83,0,0,0,756,429.33Z"/><path class="cls-1" d="M792.93,363.71a11.56,11.56,0,0,1,1.67,5.58,16.06,16.06,0,0,1-1.58,7.49,34.51,34.51,0,0,1-4.37,6.28,34.56,34.56,0,0,0-2.28,3,6.25,6.25,0,0,0-1,2.42c-.31,1.74-.52,3.26-.65,4.56s-.22,2.85-.28,4.65q-.09,2.23,0,7.76t.42,10.56a4.8,4.8,0,0,1,1.35-.51,10.4,10.4,0,0,1,3.11-.42,8.41,8.41,0,0,1,6.56,3.16,10.64,10.64,0,0,1,2.74,7.16,9.08,9.08,0,0,1-1.67,5.35,11.71,11.71,0,0,1-4.37,3.72,12.53,12.53,0,0,1-5.68,1.35,10.17,10.17,0,0,1-7.76-3.21,11.75,11.75,0,0,1-3-8.42c0-2.91-.1-6.26-.28-10-.07-1.49-.13-3.22-.19-5.21s-.09-4.12-.09-6.42l.09-3.06L776,395a58,58,0,0,1,.56-6.32,12.69,12.69,0,0,1,1.58-4,48.8,48.8,0,0,1,3.35-4.6,41.92,41.92,0,0,0,3.72-5.16,8.94,8.94,0,0,0,1.21-4.51,6.53,6.53,0,0,0-2.24-5.25,7.35,7.35,0,0,0-4.92-1.91,10.37,10.37,0,0,0-6.24,1.81,5.27,5.27,0,0,0-2.51,4.33,5.79,5.79,0,0,0,.47,2.74,3,3,0,0,0,.93,1.07,7.41,7.41,0,0,0,.65.37,3.6,3.6,0,0,1,.93,1.16,3.66,3.66,0,0,1,.28,1.54,3.22,3.22,0,0,1-1.07,2.28,3.85,3.85,0,0,1-2.84,1.07,6,6,0,0,1-3-1.17,9.88,9.88,0,0,1-3.16-3.48,10.93,10.93,0,0,1-1.35-5.58c0-1.68.82-3.72,2.46-6.14a16.06,16.06,0,0,1,4.89-5,21.13,21.13,0,0,1,10.23-2.42,14.54,14.54,0,0,1,6.23,1.35,15.06,15.06,0,0,1,4,2.46A20.87,20.87,0,0,1,792.93,363.71Zm-2.33,65.06a3.66,3.66,0,0,0,1.4-2.93,5.51,5.51,0,0,0-1.07-3.07,3.13,3.13,0,0,0-2.65-1.58,5.81,5.81,0,0,0-3.82,1.16,4.07,4.07,0,0,0-1.39,3.3,3.74,3.74,0,0,0,1.39,3.3,5.11,5.11,0,0,0,3,1A4.82,4.82,0,0,0,790.6,428.77Z"/><path class="cls-1" d="M854.4,426a19.47,19.47,0,0,1,1.3,6.37,3.23,3.23,0,0,1-1.44,2.6,5.08,5.08,0,0,1-3.21,1.12,5.63,5.63,0,0,1-3.67-1,4.14,4.14,0,0,1-1.54-2.51,53.72,53.72,0,0,0-1.44-7,13.26,13.26,0,0,0-2.65-4.6,42.82,42.82,0,0,1-4.14,5q-1.9,1.92-4.88,4.42a47.48,47.48,0,0,1-6.46,4.65,11,11,0,0,1-5.26,1.12,6,6,0,0,1-4.55-1.58,4.73,4.73,0,0,1-1.49-3.26c0-1.24.09-2.88.28-4.93q.64-8,.55-12.65c-.12.07-.51.24-1.16.52a10,10,0,0,1-3.49.41,8.16,8.16,0,0,1-4.83-1.58,11.45,11.45,0,0,1-3.54-4,10.19,10.19,0,0,1-1.3-4.83q0-5.21,3.26-7.77c2.17-1.7,5.14-2.55,8.93-2.55a9.49,9.49,0,0,1,7.67,3.25,12.77,12.77,0,0,1,2.83,8.28c.07,1.24.1,3.07.1,5.48q0,8.37-.75,16.84a38.06,38.06,0,0,0,6.75-5.12,78.41,78.41,0,0,0,6.18-7.07,17.24,17.24,0,0,1-5.21-5.85,13.77,13.77,0,0,1-1.76-6.42,8,8,0,0,1,1.76-4.93,13.07,13.07,0,0,1,4.47-3.72,11.29,11.29,0,0,1,5.2-1.4,15.29,15.29,0,0,1,4.65.84,11.68,11.68,0,0,1,3.63,1.68,9.23,9.23,0,0,1,3.63,7.44,14.13,14.13,0,0,1-1.35,6.23,12.5,12.5,0,0,1-3.86,4.65,25.75,25.75,0,0,1,2.19,2.55,16.29,16.29,0,0,1,1.72,2.75A49.73,49.73,0,0,1,854.4,426Zm-38.83-18.05c.9-.65,1.35-1.87,1.35-3.67a3.89,3.89,0,0,0-1.49-3.39,5.08,5.08,0,0,0-3-1.07A5.26,5.26,0,0,0,809,401a3.76,3.76,0,0,0-1.49,3.07,5.36,5.36,0,0,0,1.16,3.3,3.45,3.45,0,0,0,2.84,1.53A6.82,6.82,0,0,0,815.57,407.93ZM838,407.1a27.32,27.32,0,0,0,4,2.93c2.6-2.48,3.9-4.75,3.9-6.79a3.54,3.54,0,0,0-1.39-2.7,4.31,4.31,0,0,0-2.79-1.21,5.73,5.73,0,0,0-3.77,1.12,4.09,4.09,0,0,0-1.35,3.35A4.35,4.35,0,0,0,838,407.1Z"/><path class="cls-1" d="M851.56,372.69a2.93,2.93,0,0,1,1.26,2.56q0,2.33-2.28,5.53a18.83,18.83,0,0,1-6.6,5.53,21.23,21.23,0,0,1-10.19,2.33,40,40,0,0,1-6.51-.47c-1.86-.31-2.79-1.11-2.79-2.42a.89.89,0,0,1,.42-.69,6.09,6.09,0,0,1,1-.61,12.46,12.46,0,0,0,1.86-1.3,3.26,3.26,0,0,0,1-1.77,2.89,2.89,0,0,0-.74.14,3.33,3.33,0,0,1-1,.14,5.19,5.19,0,0,1-4-2,7.06,7.06,0,0,1-1.77-4.75,5.6,5.6,0,0,1,2.23-4.69,8.42,8.42,0,0,1,5.3-1.72,9.22,9.22,0,0,1,5.95,1.86,6.39,6.39,0,0,1,2.33,5.3c0,3.22-.75,5.7-2.23,7.44q6.13,0,10.69-8.19a12.73,12.73,0,0,0,.65-1.16,3.93,3.93,0,0,1,1.17-1.39,2.66,2.66,0,0,1,1.62-.52A4.51,4.51,0,0,1,851.56,372.69Zm-19.48,2.56a2.42,2.42,0,0,0-.93-1.91,3.46,3.46,0,0,0-2.33-.79,3.52,3.52,0,0,0-2.27.7,2,2,0,0,0-.89,1.62c0,2.24,1,3.35,2.89,3.35Q832.08,378.22,832.08,375.25Z"/><path class="cls-1" d="M876.21,404.77q-4.51,4.14-4.51,11.58a29.2,29.2,0,0,0,1.58,8.19,45.52,45.52,0,0,0,3.16-6.79c.81-1.92,1.46-3.34,1.95-4.24a8.67,8.67,0,0,1,2-2.37,11.42,11.42,0,0,1,3.11-1.62,9.91,9.91,0,0,1,3.4-.7,10.1,10.1,0,0,1,6.74,2.46,7.69,7.69,0,0,1,2.65,6,9,9,0,0,1-2.65,6.65,8.47,8.47,0,0,1-6.19,2.65,10.06,10.06,0,0,1-3.34-.46,7.69,7.69,0,0,1-2.61-1.68A21.31,21.31,0,0,1,879.7,427a14.44,14.44,0,0,0-1.77,2.84,17.37,17.37,0,0,0-1,3.67,2.79,2.79,0,0,1-1.86,2.42,9.07,9.07,0,0,1-3,.56,6.82,6.82,0,0,1-3.3-.79,2.36,2.36,0,0,1-1.44-2.09,19.57,19.57,0,0,0-.38-4,42.46,42.46,0,0,0-1.2-4.41,40.08,40.08,0,0,1-1.4-5.17,27.89,27.89,0,0,1-.46-5.34q0-10.33,6.46-15.91t17.81-5.58q12.55,0,17.62,6.61t5.07,18.69q0,8.83-.09,10.7c-.31,2.85-.84,4.75-1.58,5.72a3.78,3.78,0,0,1-3.17,1.44,5.34,5.34,0,0,1-3.48-1.17,3.85,3.85,0,0,1-1.44-3.2q0-1.22.55-5.49a70.52,70.52,0,0,0,.75-9.86q-.46-7.81-3.72-11.9t-10.7-4.1C883.14,400.63,879.21,402,876.21,404.77Zm13.67,10.28a4.16,4.16,0,0,0-2.65-.84,5,5,0,0,0-3.21.93,3.34,3.34,0,0,0-1.16,2.79,3.28,3.28,0,0,0,1.21,2.84,5,5,0,0,0,3.07.88,3.6,3.6,0,0,0,3.81-3.9A3.23,3.23,0,0,0,889.88,415.05Z"/><path class="cls-1" d="M911.69,373.2a7.31,7.31,0,0,1,2.88,5.95q0,4.65-2.23,6.6a9.43,9.43,0,0,1-3.3,1.77,12.58,12.58,0,0,1-4,.65,12.17,12.17,0,0,1-7.58-2.37,7.42,7.42,0,0,1-3.11-6.18,8.29,8.29,0,0,1,2.7-6.33,8,8,0,0,1,3.3-1.81,13.21,13.21,0,0,1,4-.7A11.59,11.59,0,0,1,911.69,373.2Zm-3.16,6.32a3.32,3.32,0,0,0-1-2.6A3.59,3.59,0,0,0,905,376a5.3,5.3,0,0,0-3.44,1,3.44,3.44,0,0,0-1.21,2.83,2.7,2.7,0,0,0,1.3,2.47,6.27,6.27,0,0,0,3.26.79Q908.53,383.06,908.53,379.52Z"/><path class="cls-1" d="M929.22,402.17a9,9,0,0,0-2.75,1.07c-.8.43-1.58.9-2.32,1.39a13.45,13.45,0,0,1-1.77,1.07,3.53,3.53,0,0,1-1.58.42,3.37,3.37,0,0,1-2.23-1,3.14,3.14,0,0,1-1.12-2.46,6.35,6.35,0,0,1,2.51-4.79,18.6,18.6,0,0,1,6-3.44,18.86,18.86,0,0,1,6.23-1.26q8.84,0,12.88,5.68t4.33,14.88q.36,11.34.37,17.48a6.33,6.33,0,0,1-1.3,4.33,5.41,5.41,0,0,1-4.19,1.44,3.94,3.94,0,0,1-3-1.3,4.29,4.29,0,0,1-1.2-3q0-4.65.27-8.93.2-5.58.19-8.74,0-13.11-8.65-13.11A14.59,14.59,0,0,0,929.22,402.17Z"/><path class="cls-1" d="M987.81,428.49c1.64.09,2.8.17,3.48.23a31.4,31.4,0,0,0,3.91.28,2,2,0,0,0,1.35-.37,2.29,2.29,0,0,0,.6-1.3,16.18,16.18,0,0,0,.75-3.49q.18-1.81.18-6,0-2.88-.18-7.07c-.13-2.79-.22-4.86-.28-6.23q-.64-9.3-.65-16.65,0-4,.28-8.18a3.71,3.71,0,0,1,1.39-3.07,5,5,0,0,1,3.16-1.12,6.94,6.94,0,0,1,3.68.89,2.82,2.82,0,0,1,1.25,2.93q-.56,7.07-.55,19.06,0,7.35.18,17.77l.1,8.83a13.41,13.41,0,0,1-2.33,8.28,8,8,0,0,1-6.79,3.07,24,24,0,0,1-2.88-.19c-1-.12-1.68-.22-2.05-.28a59.49,59.49,0,0,0-8-.56c-.74,0-1.92.07-3.53.19-2,.12-3.81.19-5.49.19a5.25,5.25,0,0,1-3.81-1.68,4.66,4.66,0,0,1-1.67-3.16l.18-7.25c.12-2.11.25-5.61.37-10.51a18.54,18.54,0,0,1-2,.55,12.12,12.12,0,0,1-3,.38,7.65,7.65,0,0,1-6.27-3.12,11.26,11.26,0,0,1-2.47-7.21,8.66,8.66,0,0,1,1.68-5.2,11.34,11.34,0,0,1,4.37-3.63,12.83,12.83,0,0,1,5.67-1.3c3.53,0,6.19,1,8,3.07s2.65,4.83,2.65,8.36q0,5.69-.28,12.1l-.18,9.3a2.65,2.65,0,0,0,.32,1.44.94.94,0,0,0,.79.51l2.7-.1C984.38,428.32,986.16,428.39,987.81,428.49ZM964,400.87a4.9,4.9,0,0,0-1.07,2.93,5.13,5.13,0,0,0,1.21,3.34,3.76,3.76,0,0,0,3.07,1.49,5.71,5.71,0,0,0,3.21-1.11,3.25,3.25,0,0,0,1.62-2.7,5.76,5.76,0,0,0-1.25-4,4.35,4.35,0,0,0-3.4-1.39A3.94,3.94,0,0,0,964,400.87Z"/><path class="cls-1" d="M1046.44,429.33a13.35,13.35,0,0,1-4.65,5,12.28,12.28,0,0,1-6.78,1.9,14,14,0,0,1-3.49-.46,7.77,7.77,0,0,1-2.56-1,36.65,36.65,0,0,1-2.93-2.33,4.41,4.41,0,0,1-1.16-2.05,15.12,15.12,0,0,1-.37-3.9,7.18,7.18,0,0,1,2.74-5.86,9.91,9.91,0,0,1,6.46-2.23,13.75,13.75,0,0,1,2.84.28,13.26,13.26,0,0,1,2.19.6l1,.42a4.74,4.74,0,0,0-.65-2.65,6.46,6.46,0,0,0-1.77-1.72,8.44,8.44,0,0,0-3.39-1.16,24.63,24.63,0,0,0-4.24-.42,18.23,18.23,0,0,0-4.18.74,20.25,20.25,0,0,1-4.46.75,4.54,4.54,0,0,1-3.86-2.24,8.3,8.3,0,0,1-1.54-4.83,14.85,14.85,0,0,1,1.21-5.72,21.75,21.75,0,0,1,3.16-5.35q3.26-3.9,9.4-3.91a13.14,13.14,0,0,1,3.76.61,39.37,39.37,0,0,1,4.51,1.72q2.05.93,3.3,1.35a5.21,5.21,0,0,0,2.19.32,3.42,3.42,0,0,0,2.46-.93,8.66,8.66,0,0,1,1.17-1,11.4,11.4,0,0,1,1.72-1.35,3.46,3.46,0,0,1,1.81-.42,3.15,3.15,0,0,1,2.23.79,3.25,3.25,0,0,1,.84,2.47,6.77,6.77,0,0,1-1.44,3.67,13.4,13.4,0,0,1-3.58,3.54,7.39,7.39,0,0,1-4.09,1.44,13,13,0,0,1-3.91-.56,32.31,32.31,0,0,1-4.28-1.77c-1.36-.62-2.53-1.1-3.49-1.44a9,9,0,0,0-3-.51,4.83,4.83,0,0,0-4.18,2.09,9,9,0,0,0-1.58,5.07,23.27,23.27,0,0,1,3.34-.65,26.71,26.71,0,0,1,3.63-.28,19.76,19.76,0,0,1,11.9,3.44,12.5,12.5,0,0,1,3.91,4.93,16.21,16.21,0,0,1,1.49,7A13.83,13.83,0,0,1,1046.44,429.33Zm-9.53.79a2.65,2.65,0,0,0,1.35-2.52,4.47,4.47,0,0,0-.88-2.74,3.14,3.14,0,0,0-2.65-1.16,6.53,6.53,0,0,0-2.89.74,2.32,2.32,0,0,0-1.48,2.14,5.28,5.28,0,0,0,.83,3,2.92,2.92,0,0,0,2.61,1.26A6.41,6.41,0,0,0,1036.91,430.12Z"/><path class="cls-1" d="M1048.07,374.08a7.05,7.05,0,0,1,2.28,5.44,8.45,8.45,0,0,1-2.14,6,7.67,7.67,0,0,1-2.65,1.67,8.42,8.42,0,0,1-3.11.65A23.31,23.31,0,0,1,1038,387c-2.42-.55-4.42-1-6-1.21a35,35,0,0,0-5.25-.37q-4.38,0-7.72.33l-4.19.42-1.86.18a11.28,11.28,0,0,1-1.39.1,2,2,0,0,1-2-1.26,6.76,6.76,0,0,1-.51-2.56q0-1.39,2.28-4.42a21.49,21.49,0,0,1,6.55-5.48,20,20,0,0,1,10.14-2.47,10.86,10.86,0,0,1,4.84,1.21,19,19,0,0,1,4.18,2.79,5.78,5.78,0,0,1,2.37-1.63,8.37,8.37,0,0,1,8.65,1.49Zm-12.69,7.67a7.45,7.45,0,0,0-3.54-4.64,11.14,11.14,0,0,0-5.76-1.59,10.49,10.49,0,0,0-5.58,1.59,15.15,15.15,0,0,0-4.19,3.62,61.57,61.57,0,0,1,8.37-.65A41,41,0,0,1,1035.38,381.75Zm10.51-2.23a3.13,3.13,0,0,0-.84-2.32,2.68,2.68,0,0,0-2-.84,4.49,4.49,0,0,0-2.33.56,2.61,2.61,0,0,0-1.21,1.67,4.6,4.6,0,0,0-.09,1c0,1.3.37,2.13,1.12,2.51a3.51,3.51,0,0,0,2,.65Q1045.88,382.78,1045.89,379.52Z"/><path class="cls-1" d="M1094.9,435.37c-.69-.77-1-2.15-1-4.14v-6.14c0-4.09-.15-7.61-.42-10.55a20.55,20.55,0,0,0-1.82-7.21,11.18,11.18,0,0,0-4-4.56,10.94,10.94,0,0,0-6.09-1.67,13.25,13.25,0,0,0-7.39,2.28,9.12,9.12,0,0,0-4.24,5.25,38.37,38.37,0,0,1,4.37,1.49q1.77.75,4.47,2.23a2,2,0,0,1,1,1,5.09,5.09,0,0,1,.28,1.95,2.68,2.68,0,0,1-.65,1.72,3.77,3.77,0,0,1-1.67,1.16l-1.35.56a6.06,6.06,0,0,0-2.14,1.49,6.37,6.37,0,0,0-1.44,2.42,14.73,14.73,0,0,0-.89,3.9c-.09,1.24-.14,3-.14,5.3q0,4.56-4.93,4.56a5.14,5.14,0,0,1-3.34-1.12,3.13,3.13,0,0,1-1.4-2.41,34.55,34.55,0,0,1,1.58-10.89,12.39,12.39,0,0,1,6.79-7.16,46.27,46.27,0,0,0-5.11-1.95l-1.54-.56c-.53-.18-1-.37-1.44-.56a4.1,4.1,0,0,1-1.53-1.3,2.56,2.56,0,0,1-.61-1.39,8.79,8.79,0,0,1,1.49-4.56q7.73-11.34,20.83-11.35,10.89,0,15.63,8.19a36,36,0,0,1,4.09,13.67,158.92,158.92,0,0,1,.65,16,6.34,6.34,0,0,1-1.16,4,5.21,5.21,0,0,1-6.93.33Z"/><path class="cls-1" d="M1158.23,433.18a8,8,0,0,1-6.79,3.07,49.71,49.71,0,0,1-5.21-.37,58.22,58.22,0,0,0-7.81-.56c-.74,0-2,.07-3.9.19-2.24.12-4.22.19-6,.19a5.25,5.25,0,0,1-3.81-1.68,4.66,4.66,0,0,1-1.67-3.16l.18-7.25q.2-3.17.37-10.51a18.54,18.54,0,0,1-2,.55,12.1,12.1,0,0,1-3,.38,7.65,7.65,0,0,1-6.28-3.12,11.26,11.26,0,0,1-2.47-7.21,8.66,8.66,0,0,1,1.68-5.2,11.34,11.34,0,0,1,4.37-3.63,12.87,12.87,0,0,1,5.67-1.3c3.53,0,6.19,1,8,3.07s2.65,4.83,2.65,8.36q0,5.69-.28,12.1l-.18,9.3a2.74,2.74,0,0,0,.32,1.44.94.94,0,0,0,.79.51l2.7-.1c3.47.07,6.48.22,9,.47,2.23.13,3.63.19,4.19.19,1.49,0,2.42-.55,2.79-1.63a21,21,0,0,0,.56-5.91c0-1.48.06-3.53.18-6.13H1151q-6.51,0-9.68-3a10.07,10.07,0,0,1-3.16-7.58,9.89,9.89,0,0,1,1.49-5.16,11.44,11.44,0,0,1,4.14-4,11.8,11.8,0,0,1,6-1.53q4.74,0,7.34,2.56t3.35,9.25a12.85,12.85,0,0,1,5.3-1.67,2.55,2.55,0,0,1,1.91,1,3.4,3.4,0,0,1,.88,2.37c0,.93-.66,2-2,3.3a14.62,14.62,0,0,1-5.81,3.12q-.18,7.62-.18,11.07A13.36,13.36,0,0,1,1158.23,433.18Zm-41.06-32.31a4.9,4.9,0,0,0-1.07,2.93,5.13,5.13,0,0,0,1.21,3.34,3.77,3.77,0,0,0,3.07,1.49,5.71,5.71,0,0,0,3.21-1.11,3.25,3.25,0,0,0,1.62-2.7,5.76,5.76,0,0,0-1.25-4,4.34,4.34,0,0,0-3.39-1.39A3.94,3.94,0,0,0,1117.17,400.87Zm31.85-1a3.73,3.73,0,0,0-3,1.3,4.54,4.54,0,0,0-1.12,3.07,4.1,4.1,0,0,0,1.35,3.12,4.58,4.58,0,0,0,3.21,1.25,27.47,27.47,0,0,0,2.88-.18c0-1.31,0-2.54-.09-3.72a7.75,7.75,0,0,0-.47-2.61C1151.19,400.63,1150.26,399.89,1149,399.89Z"/><path class="cls-1" d="M1181.9,402.17a8.82,8.82,0,0,0-2.74,1.07c-.81.43-1.59.9-2.33,1.39a13.45,13.45,0,0,1-1.77,1.07,3.49,3.49,0,0,1-1.58.42,3.37,3.37,0,0,1-2.23-1,3.14,3.14,0,0,1-1.12-2.46,6.33,6.33,0,0,1,2.52-4.79,18.44,18.44,0,0,1,6-3.44,18.91,18.91,0,0,1,6.23-1.26q8.83,0,12.88,5.68t4.33,14.88q.36,11.34.37,17.48a6.33,6.33,0,0,1-1.3,4.33A5.41,5.41,0,0,1,1197,437a3.9,3.9,0,0,1-3-1.3,4.26,4.26,0,0,1-1.21-3q0-4.65.28-8.93.18-5.58.18-8.74,0-13.11-8.65-13.11A14.67,14.67,0,0,0,1181.9,402.17Z"/><path class="cls-2" d="M419.32,486.54h1.25l.13,1.85a7.17,7.17,0,0,1,5.31-2.11c3,0,4.62,1.72,4.62,5v9.31H429.2V491.2c0-2.53-1.17-3.67-3.69-3.67a6.42,6.42,0,0,0-4.76,2.18v10.87h-1.43Z"/><path class="cls-2" d="M429.2,479.81h1.43V484H429.2Z"/><path class="cls-2" d="M439.43,491.3c0-2.55-.57-3.77-3.69-3.77a10.72,10.72,0,0,0-3.59.65V487a11.46,11.46,0,0,1,3.85-.68c3.38,0,4.86,1.41,4.86,4.89v9.41h-1.43Z"/><path class="cls-2" d="M443.68,495.85v-9.31h1.43v9.39c0,2.52,1.06,3.69,3.61,3.69a6.63,6.63,0,0,0,4.84-2.18v-10.9H455v14h-1.25l-.13-1.84a7.39,7.39,0,0,1-5.36,2.1C445.24,500.84,443.68,499.15,443.68,495.85Z"/><path class="cls-2" d="M457.81,486.54h1.24l.13,1.85a7.17,7.17,0,0,1,5.31-2.11c3,0,4.63,1.72,4.63,5v9.31h-1.43V491.2c0-2.53-1.17-3.67-3.7-3.67a6.39,6.39,0,0,0-4.75,2.18v10.87h-1.43Z"/><path class="cls-2" d="M459.37,482.85h8.45v-2.26h1.27V484h-9.8Z"/><path class="cls-2" d="M467.76,475.34H469v3.58h-1.25Z"/><path class="cls-2" d="M471.41,496.79c0-2.55,1.62-4.19,5.28-4.19h4.94v-1.38c0-2.68-1-3.69-4.29-3.69a14.09,14.09,0,0,0-4.42.65V487a15.6,15.6,0,0,1,4.73-.68,9.1,9.1,0,0,1,2.34.26h4.24l-.08,1.22h-2.1a5.21,5.21,0,0,1,1,3.51v9.31h-1.43v-6.76H476.8c-2.79,0-4,.94-4,3s1.17,2.83,3.56,2.83a7.16,7.16,0,0,0,1.77-.21v1.22a9.71,9.71,0,0,1-2.16.21C473.34,500.84,471.41,499.65,471.41,496.79Z"/><path class="cls-2" d="M486.53,495.85v-9.31H488v9.39c0,2.52,1.06,3.69,3.61,3.69a6.61,6.61,0,0,0,4.84-2.18v-10.9h1.43v14h-1.25l-.13-1.84a7.41,7.41,0,0,1-5.36,2.1C488.09,500.84,486.53,499.15,486.53,495.85Z"/><path class="cls-2" d="M500.32,498.22v-9.36c0-3.77,3.53-4.22,3.53-6.19,0-1.25-.67-1.59-2.08-1.59a5.9,5.9,0,0,0-2.93.81v-1.17a6.63,6.63,0,0,1,3.27-.86c2.19,0,3.17,1,3.17,2.73,0,2.6-3.53,2.81-3.53,6.24V498c0,1,.44,1.43,1.35,1.43h1.27v1.19h-1.82A2.12,2.12,0,0,1,500.32,498.22Z"/><path class="cls-2" d="M510.18,500.61l-2.34-6.24h-1.56l.08-1.22h2.42l2.42,6.47c2.57.31,5.25-1.38,5.25-6.24,0-4.16-1.41-5.85-5.57-5.85a14,14,0,0,0-4.39.65V487a15.76,15.76,0,0,1,4.78-.68c4.66,0,6.58,2.55,6.58,7.1,0,4.94-2.68,7.46-6.06,7.46A5.3,5.3,0,0,1,510.18,500.61Z"/><path class="cls-2" d="M520.15,498.22V486.54h1.43V498c0,1,.44,1.43,1.35,1.43h1.14v1.19h-1.69A2.11,2.11,0,0,1,520.15,498.22Zm5.59,0V486.54h1.43v10.84c0,1.36.21,2,1.35,2h1.15v1.19H528A2.12,2.12,0,0,1,525.74,498.22Z"/><path class="cls-2" d="M531.44,496.79c0-2.55,1.61-4.19,5.28-4.19h4.94v-1.38c0-2.68-1-3.69-4.29-3.69a14,14,0,0,0-4.42.65V487a15.56,15.56,0,0,1,4.73-.68c3.82,0,5.41,1.54,5.41,5v9.31h-1.43v-6.76h-4.84c-2.78,0-4,.94-4,3s1.17,2.83,3.56,2.83a7.16,7.16,0,0,0,1.77-.21v1.22a9.71,9.71,0,0,1-2.16.21C533.37,500.84,531.44,499.65,531.44,496.79Z"/><path class="cls-2" d="M545.39,489.06h1.27v1.28h4.24l0,1.17h-5.46Zm0,7.28h1.27v1.3h4.24l0,1.15h-5.46Z"/><path class="cls-2" d="M554.57,498.74l-.13,1.84H553.2v-14h1.43v10.9a6.39,6.39,0,0,0,4.75,2.18c2.53,0,3.7-1.14,3.7-3.69v-9.39h1.43v9.31c0,3.3-1.67,5-4.66,5A7.15,7.15,0,0,1,554.57,498.74Z"/><path class="cls-2" d="M554.76,482.85h8.45v-2.26h1.27V484h-9.8Z"/><path class="cls-2" d="M567.32,491.27c0-3.27,1.82-5,5.8-5s5.75,1.72,5.75,5v9.31h-1.43v-9.51c0-2.5-1.51-3.54-4.32-3.54s-4.37,1-4.37,3.54v3.61a5.26,5.26,0,0,1,3.31-1.17h1.74l.08,1.2H572a5,5,0,0,0-3.28,1.17v4.7h-1.43Z"/><path class="cls-2" d="M581.17,500.17v-1.23a9.08,9.08,0,0,0,3.3.68c4.13,0,5.15-1.9,5.15-6.06s-1.43-6-5.26-6a7.51,7.51,0,0,0-3.19.68V487a7.54,7.54,0,0,1,3.45-.68c4.42,0,6.43,2.47,6.43,7.28,0,4.6-1.51,7.28-6.24,7.28A8.93,8.93,0,0,1,581.17,500.17Z"/><path class="cls-2" d="M599.32,491.3c0-2.55-.57-3.77-3.69-3.77a10.72,10.72,0,0,0-3.59.65V487a11.46,11.46,0,0,1,3.85-.68c3.38,0,4.86,1.41,4.86,4.89v9.41h-1.43Z"/><path class="cls-2" d="M605,498.74l-.13,1.84h-1.25v-14H605v10.9a6.4,6.4,0,0,0,4.76,2.18c2.52,0,3.69-1.14,3.69-3.69v-9.39h1.43v9.31c0,3.3-1.66,5-4.65,5A7.11,7.11,0,0,1,605,498.74Z"/><path class="cls-2" d="M418.27,517.74h1.46l2.62,12.2,3.36-10.66v-1.54h1.06l3.51,12.2,2.6-12.2h1.43l-3.14,14h-1.56l-3.18-10.92L423,531.78h-1.56Z"/><path class="cls-2" d="M437.24,531.39v-1.27a12.44,12.44,0,0,0,4.21.7c2.63,0,4.19-.47,4.19-2.52s-1.77-2.37-4.21-3.17c-2.19-.73-4.58-1.49-4.58-4.06q0-3.59,5.23-3.59a13.15,13.15,0,0,1,4,.63v1.27a10.67,10.67,0,0,0-3.77-.65c-2.73,0-4,.52-4,2.31s1.64,2.29,4.27,3.12c2.39.76,4.52,1.56,4.52,4.11,0,2.84-2.21,3.77-5.38,3.77A12.92,12.92,0,0,1,437.24,531.39Z"/><path class="cls-2" d="M441.14,512.65h-2.05v-1.1h3.19v2.5H448l-.08,1.12h-6.81Z"/><path class="cls-2" d="M449.84,531.11v-6.92h4.73l.08,1.22h-3.38v4.79a11.61,11.61,0,0,0,3.64.62c3.61,0,5-1.64,5-6s-1.35-6.06-5.41-6.06a14.3,14.3,0,0,0-4.44.65v-1.22a15.76,15.76,0,0,1,4.83-.68c4.66,0,6.43,2.39,6.43,7.31S459.49,532,455,532A14.92,14.92,0,0,1,449.84,531.11Z"/><path class="cls-2" d="M466,529.94l-.13,1.84h-1.25v-14h1.43v10.9a6.4,6.4,0,0,0,4.76,2.18c2.52,0,3.69-1.14,3.69-3.69v-9.39h1.43v9.31c0,3.3-1.66,5-4.65,5A7.13,7.13,0,0,1,466,529.94Z"/><path class="cls-2" d="M479.77,517.74H481l.13,1.85a7.14,7.14,0,0,1,5.3-2.11c3,0,4.63,1.72,4.63,5v9.31h-1.43V522.4c0-2.53-1.17-3.67-3.69-3.67a6.4,6.4,0,0,0-4.76,2.18v10.87h-1.43Z"/><path class="cls-2" d="M481.33,514.05h8.45v-2.26h1.27v3.38h-9.8Z"/><path class="cls-2" d="M489.73,506.54H491v3.58h-1.25Z"/><path class="cls-2" d="M498.3,531.81,496,525.57H494.4l.08-1.22h2.41l2.42,6.47c2.58.31,5.25-1.38,5.25-6.24,0-4.16-1.4-5.85-5.56-5.85a14,14,0,0,0-4.39.65v-1.22a15.76,15.76,0,0,1,4.78-.68c4.65,0,6.58,2.55,6.58,7.1,0,4.94-2.68,7.46-6.06,7.46A5.3,5.3,0,0,1,498.3,531.81Z"/><path class="cls-2" d="M508.77,520.26H510v1.28h4.24l0,1.17h-5.46Zm0,7.28H510v1.3h4.24l0,1.15h-5.46Z"/><path class="cls-2" d="M517.08,524.81c0-4.47,2.08-7.33,6.83-7.33,4.37,0,6.11,2.58,6.11,5.46v8.84h-1.43v-8.92c0-2.28-1.27-4.13-4.7-4.13-3.93,0-5.41,2.37-5.41,6.08,0,4.37,1.53,6,4.32,6a5.9,5.9,0,0,0,1.76-.21v1.22a7.46,7.46,0,0,1-2,.21C519.23,532,517.08,529.83,517.08,524.81Z"/><path class="cls-2" d="M526.69,513.17a2.51,2.51,0,1,1,2.53,2.47A2.48,2.48,0,0,1,526.69,513.17Zm4,0a1.47,1.47,0,1,0-1.45,1.45A1.47,1.47,0,0,0,530.67,513.17Z"/><path class="cls-2" d="M539.84,522.5c0-2.55-.57-3.77-3.69-3.77a10.72,10.72,0,0,0-3.59.65v-1.22a11.41,11.41,0,0,1,3.85-.68c3.38,0,4.86,1.41,4.86,4.89v9.41h-1.43Z"/><path class="cls-2" d="M545.11,529.42V517.74h1.43v11.42c0,1,.44,1.43,1.35,1.43h1.27v1.19h-1.82A2.11,2.11,0,0,1,545.11,529.42Z"/><path class="cls-2" d="M552.48,527.05v-9.31h1.43v9.39c0,2.52,1.07,3.69,3.62,3.69a6.6,6.6,0,0,0,4.83-2.18v-10.9h1.43v14h-1.25l-.13-1.84a7.38,7.38,0,0,1-5.35,2.1C554,532,552.48,530.35,552.48,527.05Z"/><path class="cls-2" d="M554,514.05h9.73v1.12H554Z"/><path class="cls-2" d="M567.63,527.05v-9.31h1.43v9.39c0,2.52,1.07,3.69,3.61,3.69a6.61,6.61,0,0,0,4.84-2.18v-10.9h1.43v14h-1.25l-.13-1.84a7.38,7.38,0,0,1-5.35,2.1C569.19,532,567.63,530.35,567.63,527.05Z"/><path class="cls-2" d="M583.17,525.46a2.77,2.77,0,0,1,2.15-2.83l-3.06-.68v-2.08a8.94,8.94,0,0,1,6.34-2.39c4,0,5.88,1.77,5.88,5.12v9.18h-1.43v-9.25c0-2.81-1.41-3.8-4.45-3.8a7.21,7.21,0,0,0-5,1.74v.73l3.12.68v1.24a2.28,2.28,0,0,0-2.08,2.42v6.24h-1.43Z"/><path class="cls-2" d="M604.29,522.5c0-2.55-.57-3.77-3.69-3.77a10.72,10.72,0,0,0-3.59.65v-1.22a11.46,11.46,0,0,1,3.85-.68c3.38,0,4.86,1.41,4.86,4.89v9.41h-1.43Z"/><path class="cls-2" d="M609.43,531.39v-1.27a12.44,12.44,0,0,0,4.21.7c2.63,0,4.19-.47,4.19-2.52s-1.77-2.37-4.21-3.17c-2.19-.73-4.58-1.49-4.58-4.06q0-3.59,5.23-3.59a13.28,13.28,0,0,1,4,.63v1.27a10.71,10.71,0,0,0-3.77-.65c-2.73,0-4,.52-4,2.31s1.63,2.29,4.26,3.12c2.39.76,4.52,1.56,4.52,4.11,0,2.84-2.21,3.77-5.38,3.77A12.92,12.92,0,0,1,609.43,531.39Z"/><path class="cls-2" d="M622,524.81c0-4.68,1.38-7.33,4.11-7.33a3.35,3.35,0,0,1,2.86,1.35,4.17,4.17,0,0,1,3.07-1.35c1.84,0,2.91,1,2.91,3.2v11.1h-1.43V520.84c0-1.59-.49-2.11-1.85-2.11a2.55,2.55,0,0,0-2.26,1.3h-.91a2.38,2.38,0,0,0-2.21-1.3c-2.21,0-2.88,2.47-2.88,6.08,0,4.42,1.58,6,4.31,6a6,6,0,0,0,1.77-.21v1.22a7.51,7.51,0,0,1-2,.21C624.19,532,622,529.83,622,524.81Z"/><path class="cls-2" d="M644.8,522.5c0-2.55-.57-3.77-3.7-3.77a10.62,10.62,0,0,0-3.58.65v-1.22a11.41,11.41,0,0,1,3.85-.68c3.38,0,4.86,1.41,4.86,4.89v9.41H644.8Z"/><path class="cls-2" d="M651.44,529.94l-.13,1.84h-1.25v-14h1.43v10.9a6.42,6.42,0,0,0,4.76,2.18c2.52,0,3.69-1.14,3.69-3.69v-9.39h1.44v9.31c0,3.3-1.67,5-4.66,5A7.15,7.15,0,0,1,651.44,529.94Z"/><path class="cls-2" d="M665.21,529.42V517.74h1.43v11.42c0,1,.44,1.43,1.35,1.43h1.15v1.19h-1.69A2.11,2.11,0,0,1,665.21,529.42Zm5.59,0V517.74h1.43v10.84c0,1.36.21,2,1.35,2h1.15v1.19H673A2.12,2.12,0,0,1,670.8,529.42Z"/><path class="cls-2" d="M678.05,527.05v-9.31h1.43v9.39c0,2.52,1.06,3.69,3.61,3.69a6.64,6.64,0,0,0,4.84-2.18v-10.9h1.43v14h-1.25l-.13-1.84a7.42,7.42,0,0,1-5.36,2.1C679.61,532,678.05,530.35,678.05,527.05Z"/><path class="cls-2" d="M692.67,531.37v-1.23a9.17,9.17,0,0,0,3.31.68c4.13,0,5.14-1.9,5.14-6.06s-1.43-6-5.25-6a7.59,7.59,0,0,0-3.2.68v-1.25a7.62,7.62,0,0,1,3.46-.68c4.42,0,6.42,2.47,6.42,7.28,0,4.6-1.5,7.28-6.24,7.28A9,9,0,0,1,692.67,531.37Z"/><path class="cls-2" d="M705.87,517.74h1.25l.13,1.85a7.14,7.14,0,0,1,5.3-2.11c3,0,4.63,1.72,4.63,5v9.31h-1.43V522.4c0-2.53-1.17-3.67-3.69-3.67a6.4,6.4,0,0,0-4.76,2.18v10.87h-1.43Z"/><path class="cls-2" d="M731.37,522.53c0-2.81-1.41-3.8-4.48-3.8a7.4,7.4,0,0,0-5.09,1.74v.73l3.12.68v1.24a2.32,2.32,0,0,0-2.08,2.42v3.62c0,1,.44,1.43,1.35,1.43h1.53v1.19h-2.08a2.12,2.12,0,0,1-2.23-2.36v-4a2.77,2.77,0,0,1,2.16-2.83L720.5,522v-2.08a9.12,9.12,0,0,1,6.42-2.39c4,0,5.88,1.77,5.88,5.12v13.34h-1.43Z"/><path class="cls-2" d="M736.63,526.66v-8.92h1.43v9.1c0,2.76,1.62,4,4.48,4s4.44-1.22,4.44-4V524.4H742.9v-1.2H747v-5.46h1.43v5.46h1.69l-.13,1.2h-1.56v2.26c0,3.56-2,5.38-5.87,5.38S736.63,530.22,736.63,526.66Z"/><path class="cls-2" d="M755.58,535.6a10.13,10.13,0,0,1,4.47-1,7.78,7.78,0,0,1,4.06,1v-13c0-2.81-1.41-3.8-4.45-3.8a7.48,7.48,0,0,0-5.12,1.74v.73l3.2.68v1.24c-1.3.37-1.72,1-1.72,2.42v3.69c0,1.64-.78,2.55-2.31,2.55h-1.46v-1.19h1.12c.83,0,1.22-.45,1.22-1.41v-3.72a2.58,2.58,0,0,1,1.79-2.83l-3.14-.68v-2.08a9.16,9.16,0,0,1,6.42-2.39c4,0,5.88,1.77,5.88,5.12v14.23h-1.38a8.18,8.18,0,0,0-4.19-1,9.39,9.39,0,0,0-4.39,1Z"/><path class="cls-2" d="M755.78,514.05h8.46v-2.26h1.27v3.38h-9.8Z"/><path class="cls-2" d="M769,529.42v-9.36c0-3.77,3.54-4.22,3.54-6.19,0-1.25-.68-1.59-2.08-1.59a5.94,5.94,0,0,0-2.94.81v-1.17a6.67,6.67,0,0,1,3.28-.86c2.18,0,3.17,1,3.17,2.73,0,2.6-3.54,2.81-3.54,6.24v9.13c0,1,.45,1.43,1.36,1.43h1.27v1.19h-1.82A2.12,2.12,0,0,1,769,529.42Z"/><path class="cls-2" d="M776.54,517.74H778v4.73h5.22c2.55,0,3.36-1.09,3.36-3.06v-1.67H788v1.67c0,1.76-.6,3.17-2.34,3.66,1.87.57,2.16,1.9,2.16,3.64v5.07h-1.43v-5c0-2.42-.78-3.12-3.31-3.12H778v8.08h-1.43Z"/><path class="cls-2" d="M793.06,529.94l-.13,1.84h-1.24v-14h1.43v10.9a6.39,6.39,0,0,0,4.75,2.18c2.53,0,3.7-1.14,3.7-3.69v-9.39H803v9.31c0,3.3-1.67,5-4.66,5A7.15,7.15,0,0,1,793.06,529.94Z"/><path class="cls-2" d="M801.57,511H803v4.16h-1.43Z"/><path class="cls-2" d="M808.3,528c0-2.55,1.62-4.19,5.28-4.19h4.94v-1.38c0-2.68-1-3.69-4.29-3.69a14.09,14.09,0,0,0-4.42.65v-1.22a15.6,15.6,0,0,1,4.73-.68,9.23,9.23,0,0,1,2.35.26h4.23l-.07,1.22h-2.11a5.21,5.21,0,0,1,1,3.51v9.31h-1.43V525h-4.83c-2.79,0-4,.94-4,3s1.17,2.83,3.57,2.83a7.14,7.14,0,0,0,1.76-.21v1.22a9.71,9.71,0,0,1-2.16.21C810.23,532,808.3,530.85,808.3,528Z"/><path class="cls-2" d="M830.42,522.5c0-2.55-.57-3.77-3.69-3.77a10.72,10.72,0,0,0-3.59.65v-1.22a11.41,11.41,0,0,1,3.85-.68c3.38,0,4.86,1.41,4.86,4.89v9.41h-1.43Z"/><path class="cls-2" d="M837.07,529.94l-.13,1.84h-1.25v-14h1.43v10.9a6.4,6.4,0,0,0,4.76,2.18c2.52,0,3.69-1.14,3.69-3.69v-9.39H847v9.31c0,3.3-1.67,5-4.66,5A7.1,7.1,0,0,1,837.07,529.94Z"/><path class="cls-2" d="M856.82,522.5c0-2.55-.58-3.77-3.7-3.77a10.62,10.62,0,0,0-3.58.65v-1.22a11.4,11.4,0,0,1,3.84-.68c3.38,0,4.87,1.41,4.87,4.89v9.41h-1.43Z"/><path class="cls-2" d="M862,531.39v-1.27a12.5,12.5,0,0,0,4.22.7c2.62,0,4.18-.47,4.18-2.52s-1.77-2.37-4.21-3.17c-2.18-.73-4.58-1.49-4.58-4.06,0-2.39,1.75-3.59,5.23-3.59a13.28,13.28,0,0,1,4,.63v1.27a10.71,10.71,0,0,0-3.77-.65c-2.73,0-4,.52-4,2.31s1.64,2.29,4.26,3.12c2.39.76,4.53,1.56,4.53,4.11,0,2.84-2.21,3.77-5.39,3.77A13,13,0,0,1,862,531.39Z"/><path class="cls-2" d="M875.46,529.42v-4a2.77,2.77,0,0,1,2.16-2.83l-3.07-.68v-2.08a9.12,9.12,0,0,1,6.42-2.39c4,0,5.8,1.77,5.8,5.12v9.18h-1.43v-9.25c0-2.81-1.32-3.8-4.39-3.8a7.43,7.43,0,0,0-5.1,1.74v.73l3.12.68v1.24a2.32,2.32,0,0,0-2.08,2.42v3.62c0,1,.44,1.43,1.35,1.43h1.54v1.19H877.7A2.12,2.12,0,0,1,875.46,529.42Z"/><path class="cls-2" d="M890.35,527.15v-2.39c0-1.92,2.55-3.82,2.55-5.07,0-.62-.18-.78-.86-.78h-1.95l.13-1.17h2.5a1.46,1.46,0,0,1,1.61,1.64c0,2-2.55,3.54-2.55,5.51v2.5c0,2.44,1.59,3.43,4,3.43s4-1,4-3.46v-9.62h1.43v9.41c0,3.23-2,4.89-5.44,4.89S890.35,530.38,890.35,527.15Z"/><path class="cls-2" d="M904.48,531.11v-6.92h4.74l.07,1.22h-3.38v4.79a11.61,11.61,0,0,0,3.64.62c3.62,0,5-1.64,5-6s-1.36-6.06-5.41-6.06a14.36,14.36,0,0,0-4.45.65v-1.22a15.78,15.78,0,0,1,4.84-.68c4.65,0,6.42,2.39,6.42,7.31s-1.82,7.25-6.32,7.25A14.92,14.92,0,0,1,904.48,531.11Z"/><path class="cls-2" d="M919.27,522.47c0-3.27,1.82-5,5.8-5s5.74,1.72,5.74,5v9.31h-1.43v-9.51c0-2.5-1.51-3.54-4.31-3.54s-4.37,1-4.37,3.54v3.61a5.23,5.23,0,0,1,3.3-1.17h1.74l.08,1.2H924a5,5,0,0,0-3.27,1.17v4.7h-1.43Z"/><path class="cls-2" d="M927.48,513.17a2.51,2.51,0,1,1,2.52,2.47A2.48,2.48,0,0,1,927.48,513.17Zm4,0a1.47,1.47,0,1,0-1.46,1.45A1.47,1.47,0,0,0,931.46,513.17Z"/><path class="cls-2" d="M940.63,522.5c0-2.55-.57-3.77-3.69-3.77a10.68,10.68,0,0,0-3.59.65v-1.22a11.41,11.41,0,0,1,3.85-.68c3.38,0,4.86,1.41,4.86,4.89v9.41h-1.43Z"/><path class="cls-2" d="M418.78,557.86v-8.92h1.43V558c0,2.76,1.61,4,4.47,4s4.44-1.22,4.44-4V544.78h1.44v13.08c0,3.56-2,5.38-5.88,5.38S418.78,561.42,418.78,557.86Z"/><path class="cls-2" d="M434.3,562.59v-1.27a12.44,12.44,0,0,0,4.21.7c2.63,0,4.19-.47,4.19-2.52s-1.77-2.37-4.22-3.17c-2.18-.73-4.57-1.49-4.57-4.06q0-3.59,5.22-3.59a13.17,13.17,0,0,1,4,.63v1.27a10.67,10.67,0,0,0-3.77-.65c-2.73,0-4,.52-4,2.31s1.64,2.29,4.27,3.12c2.39.76,4.52,1.56,4.52,4.11,0,2.84-2.21,3.77-5.38,3.77A12.92,12.92,0,0,1,434.3,562.59Z"/><path class="cls-2" d="M433.83,545.25h6.29a1.39,1.39,0,0,1-.28-.86,2,2,0,0,1,4,0,2,2,0,0,1-2.08,2h-8Zm9.1-.86a1.06,1.06,0,0,0-1.09-1.12,1.08,1.08,0,0,0-1.09,1.12,1.06,1.06,0,0,0,1.09,1.07A1.05,1.05,0,0,0,442.93,544.39Z"/><path class="cls-2" d="M447.84,556.66a2.78,2.78,0,0,1,2.16-2.83l-3.07-.68v-2.08a9,9,0,0,1,6.35-2.39c4,0,5.88,1.77,5.88,5.12V563h-1.43v-9.25c0-2.81-1.41-3.8-4.45-3.8a7.25,7.25,0,0,0-5,1.74v.73l3.12.68v1.24a2.29,2.29,0,0,0-2.08,2.42V563h-1.43Z"/><path class="cls-2" d="M463,557.86v-8.92h1.43V558c0,2.76,1.61,4,4.47,4s4.45-1.22,4.45-4V555.6h-4.09v-1.2h4.09v-5.46h1.43v5.46h1.69l-.13,1.2h-1.56v2.26c0,3.56-2,5.38-5.88,5.38S463,561.42,463,557.86Z"/><path class="cls-2" d="M485.18,553.7c0-2.55-.57-3.77-3.69-3.77a10.72,10.72,0,0,0-3.59.65v-1.22a11.46,11.46,0,0,1,3.85-.68c3.38,0,4.86,1.41,4.86,4.89V563h-1.43Z"/><path class="cls-2" d="M490.22,558.35V556c0-1.92,2.55-3.82,2.55-5.07,0-.62-.18-.78-.85-.78h-2l.13-1.17h2.5a1.46,1.46,0,0,1,1.61,1.64c0,2-2.55,3.54-2.55,5.51v2.5c0,2.44,1.59,3.43,4,3.43s4-1,4-3.46v-9.62H501v9.41c0,3.23-2,4.89-5.43,4.89S490.22,561.58,490.22,558.35Z"/><path class="cls-2" d="M504.39,562.31v-6.92h4.74l.08,1.22h-3.39v4.79a11.61,11.61,0,0,0,3.64.62c3.62,0,5-1.64,5-6s-1.36-6.06-5.41-6.06a14.36,14.36,0,0,0-4.45.65v-1.22a15.78,15.78,0,0,1,4.84-.68c4.65,0,6.42,2.39,6.42,7.31s-1.82,7.25-6.32,7.25A14.92,14.92,0,0,1,504.39,562.31Z"/><path class="cls-2" d="M519,558.35V556c0-1.92,2.55-3.82,2.55-5.07,0-.62-.18-.78-.86-.78h-1.95l.13-1.17h2.5a1.46,1.46,0,0,1,1.61,1.64c0,2-2.55,3.54-2.55,5.51v2.5c0,2.44,1.59,3.43,4,3.43s4-1,4-3.46v-9.62h1.43v9.41c0,3.23-2,4.89-5.43,4.89S519,561.58,519,558.35Z"/><path class="cls-2" d="M524.39,543.85h-2.06v-1.1h3.2v2.5h5.75l-.08,1.12h-6.81Z"/><path class="cls-2" d="M533.12,562.31v-6.92h4.74l.07,1.22h-3.38v4.79a11.61,11.61,0,0,0,3.64.62c3.62,0,5-1.64,5-6s-1.36-6.06-5.41-6.06a14.36,14.36,0,0,0-4.45.65v-1.22a15.83,15.83,0,0,1,4.84-.68c4.65,0,6.42,2.39,6.42,7.31s-1.82,7.25-6.32,7.25A14.92,14.92,0,0,1,533.12,562.31Z"/><path class="cls-2" d="M549.32,561.14l-.13,1.84h-1.25v-14h1.44v10.9a6.38,6.38,0,0,0,4.75,2.18c2.53,0,3.7-1.14,3.7-3.69v-9.39h1.42v9.31c0,3.3-1.66,5-4.65,5A7.15,7.15,0,0,1,549.32,561.14Z"/><path class="cls-2" d="M554.44,567.69v-1.87h-1.35l0-1h2.45v2.86c0,.57.44.93,1.19.93s1.28-.36,1.28-.93v-2.86h1.17v2.91c0,1.09-1,1.92-2.45,1.92S554.44,568.78,554.44,567.69Z"/><path class="cls-2" d="M562.61,559.19c0-2.55,1.61-4.19,5.28-4.19h4.94v-1.38c0-2.68-1-3.69-4.29-3.69a14,14,0,0,0-4.42.65v-1.22a15.51,15.51,0,0,1,4.73-.68c3.82,0,5.41,1.54,5.41,5V563h-1.43v-6.76H568c-2.78,0-4,.94-4,3s1.17,2.83,3.56,2.83a7.22,7.22,0,0,0,1.77-.21V563a9.78,9.78,0,0,1-2.16.21C564.53,563.24,562.61,562.05,562.61,559.19Z"/><path class="cls-2" d="M587.41,560.62V548.94h1.42v11.42c0,1,.45,1.43,1.36,1.43h1.14V563h-1.69A2.11,2.11,0,0,1,587.41,560.62Zm5.59,0V548.94h1.43v10.84c0,1.36.2,2,1.35,2h1.14V563h-1.69A2.12,2.12,0,0,1,593,560.62Z"/><path class="cls-2" d="M599.75,559.19c0-2.55,1.62-4.19,5.28-4.19H610v-1.38c0-2.68-1-3.69-4.29-3.69a14.09,14.09,0,0,0-4.42.65v-1.22a15.63,15.63,0,0,1,4.74-.68c3.82,0,5.4,1.54,5.4,5V563H610v-6.76h-4.83c-2.79,0-4,.94-4,3S602.3,562,604.7,562a7.08,7.08,0,0,0,1.76-.21V563a9.68,9.68,0,0,1-2.15.21C601.68,563.24,599.75,562.05,599.75,559.19Z"/><path class="cls-2" d="M614.76,551.46H616v1.28h4.24l0,1.17h-5.46Zm0,7.28H616V560h4.24l0,1.15h-5.46Z"/><path class="cls-2" d="M623.62,560.62V548.94h1.43v11.42c0,1,.45,1.43,1.36,1.43h1.27V563h-1.82A2.11,2.11,0,0,1,623.62,560.62Z"/><path class="cls-2" d="M630.51,559.11a3.35,3.35,0,0,1,2.32-3.46,3,3,0,0,1-2.24-3.17c0-2.58,1.66-3.8,3.9-3.8a7.61,7.61,0,0,1,2.06.26v1.22a6.33,6.33,0,0,0-1.77-.23c-1.69,0-2.76.7-2.76,2.55,0,1.69,1,2.57,3.1,2.57h1.5l.13,1.15H635c-2,0-3.12,1-3.12,2.91s1.51,2.91,4.47,2.91,4.34-1.12,4.34-3.61v-9.47h1.43v8.63c0,3.64-1.4,5.67-5.74,5.67C632.62,563.24,630.51,561.81,630.51,559.11Z"/><path class="cls-2" d="M632.41,545.25h8.45V543h1.27v3.38h-9.8Z"/><path class="cls-2" d="M640.81,537.74h1.25v3.58h-1.25Z"/><path class="cls-2" d="M645.52,559.11a3.35,3.35,0,0,1,2.31-3.46,3,3,0,0,1-2.24-3.17c0-2.58,1.67-3.8,3.9-3.8a7.56,7.56,0,0,1,2.06.26v1.22a6.33,6.33,0,0,0-1.77-.23c-1.69,0-2.76.7-2.76,2.55,0,1.69,1,2.57,3.1,2.57h1.5l.14,1.15H650c-2,0-3.12,1-3.12,2.91s1.51,2.91,4.47,2.91,4.34-1.12,4.34-3.61v-9.47h1.43v8.63c0,3.64-1.4,5.67-5.74,5.67C647.62,563.24,645.52,561.81,645.52,559.11Z"/><path class="cls-2" d="M662.42,561.14l-.13,1.84H661v-14h1.43v10.9a6.4,6.4,0,0,0,4.76,2.18c2.52,0,3.69-1.14,3.69-3.69v-9.39h1.43v9.31c0,3.3-1.67,5-4.66,5A7.1,7.1,0,0,1,662.42,561.14Z"/><path class="cls-2" d="M676,558.35V556c0-1.92,2.55-3.82,2.55-5.07,0-.62-.18-.78-.86-.78H675.7l.13-1.17h2.5a1.46,1.46,0,0,1,1.61,1.64c0,2-2.55,3.54-2.55,5.51v2.5c0,2.44,1.67,3.43,4,3.43s4.06-1,4.06-3.46v-1.84c0-2.27-.63-3-2.55-3h-.73l.11-1.17h.62c2.08,0,2.55-1,2.55-2.91v-1h1.43v1c0,1.75-.31,3-2,3.51,1.82.6,2,1.82,2,3.57v1.63c0,3.23-2.11,4.89-5.49,4.89S676,561.58,676,558.35Z"/><path class="cls-2" d="M692.19,561.14l-.13,1.84h-1.25v-14h1.43v10.9A6.4,6.4,0,0,0,697,562c2.52,0,3.69-1.14,3.69-3.69v-9.39h1.43v9.31c0,3.3-1.67,5-4.66,5A7.1,7.1,0,0,1,692.19,561.14Z"/><path class="cls-2" d="M706,560.62V548.94h1.43v11.42c0,1,.44,1.43,1.35,1.43h1.15V563h-1.69A2.11,2.11,0,0,1,706,560.62Zm5.59,0V548.94H713v10.84c0,1.36.21,2,1.35,2h1.15V563h-1.69A2.12,2.12,0,0,1,711.58,560.62Z"/><path class="cls-2" d="M718.86,557.86v-8.92h1.43V558c0,2.76,1.61,4,4.47,4s4.45-1.22,4.45-4V544.78h1.43v13.08c0,3.56-2,5.38-5.88,5.38S718.86,561.42,718.86,557.86Z"/><path class="cls-2" d="M734,559.19c0-2.55,1.61-4.19,5.28-4.19h4.94v-1.38c0-2.68-1-3.69-4.29-3.69a14.09,14.09,0,0,0-4.42.65v-1.22a15.6,15.6,0,0,1,4.73-.68c3.83,0,5.41,1.54,5.41,5V563h-1.43v-6.76h-4.83c-2.79,0-4,.94-4,3s1.17,2.83,3.56,2.83a7.16,7.16,0,0,0,1.77-.21V563a9.71,9.71,0,0,1-2.16.21C735.92,563.24,734,562.05,734,559.19Z"/><path class="cls-2" d="M753,563l-4-9.62h1.4L754,562q5.31.47,5.31-6.55c0-3.9-.91-5.31-4-5.31h-.83v-1.22h.93c3.93,0,5.28,2.08,5.28,6.5,0,5.57-2.52,7.8-5.75,7.8A6.26,6.26,0,0,1,753,563Z"/><path class="cls-2" d="M763.5,559.19c0-2.55,1.62-4.19,5.28-4.19h4.94v-1.38c0-2.68-1-3.69-4.29-3.69a14.09,14.09,0,0,0-4.42.65v-1.22a15.6,15.6,0,0,1,4.73-.68,9.1,9.1,0,0,1,2.34.26h4.24l-.08,1.22h-2.1a5.21,5.21,0,0,1,1,3.51V563h-1.43v-6.76h-4.83c-2.79,0-4,.94-4,3s1.17,2.83,3.56,2.83a7.16,7.16,0,0,0,1.77-.21V563a9.71,9.71,0,0,1-2.16.21C765.43,563.24,763.5,562.05,763.5,559.19Z"/><path class="cls-2" d="M785.66,553.7c0-2.55-.58-3.77-3.7-3.77a10.62,10.62,0,0,0-3.58.65v-1.22a11.4,11.4,0,0,1,3.84-.68c3.38,0,4.87,1.41,4.87,4.89V563h-1.43Z"/><path class="cls-2" d="M790.7,562.31v-5.39h1.35v4.48a11.82,11.82,0,0,0,3.72.62c2.52,0,3.93-.75,3.93-2.91,0-2.68-1.59-3-4.37-3.62-2.32-.52-4.89-.91-4.89-3.53,0-2.42,2.13-3.28,5.54-3.28a15.43,15.43,0,0,1,4.52.68v1.27a14.15,14.15,0,0,0-4.31-.7c-2.53,0-4.4.29-4.4,2s1.87,1.93,4.66,2.6c2.54.63,4.65,1.22,4.65,4.58,0,2.91-2.05,4.13-5.23,4.13A15,15,0,0,1,790.7,562.31Z"/><path class="cls-2" d="M790.83,545.25h9.72v1.12h-9.8Z"/><path class="cls-2" d="M803.93,556c0-4.68,1.38-7.33,4.11-7.33A3.35,3.35,0,0,1,810.9,550a4.17,4.17,0,0,1,3.07-1.35c1.85,0,2.91,1,2.91,3.2V563h-1.43V552c0-1.59-.49-2.11-1.84-2.11a2.55,2.55,0,0,0-2.27,1.3h-.91a2.38,2.38,0,0,0-2.21-1.3c-2.21,0-2.88,2.47-2.88,6.08,0,4.42,1.58,6,4.31,6a6,6,0,0,0,1.77-.21V563a7.46,7.46,0,0,1-2,.21C806.09,563.24,803.93,561,803.93,556Z"/><path class="cls-2" d="M820.75,548.94H822l.13,1.85a7.17,7.17,0,0,1,5.31-2.11c3,0,4.63,1.72,4.63,5V563h-1.43V553.6c0-2.53-1.17-3.67-3.7-3.67a6.39,6.39,0,0,0-4.75,2.18V563h-1.44Z"/><path class="cls-2" d="M846.29,553.73c0-2.81-1.41-3.8-4.47-3.8a7.41,7.41,0,0,0-5.1,1.74v.73l3.12.68v1.24a2.32,2.32,0,0,0-2.08,2.42v3.62c0,1,.44,1.43,1.35,1.43h1.54V563h-2.08a2.12,2.12,0,0,1-2.24-2.36v-4a2.77,2.77,0,0,1,2.16-2.83l-3.07-.68v-2.08a9.12,9.12,0,0,1,6.42-2.39c4,0,5.88,1.77,5.88,5.12v13.34h-1.43Z"/><path class="cls-2" d="M851.59,557.86v-8.92H853V558c0,2.76,1.61,4,4.47,4s4.45-1.22,4.45-4V555.6h-4.08v-1.2h4.08v-5.46h1.43v5.46h1.69l-.13,1.2h-1.56v2.26c0,3.56-2,5.38-5.88,5.38S851.59,561.42,851.59,557.86Z"/><path class="cls-2" d="M870.57,566.8a10.17,10.17,0,0,1,4.47-1,7.78,7.78,0,0,1,4.06,1v-13c0-2.81-1.4-3.8-4.45-3.8a7.5,7.5,0,0,0-5.12,1.74v.73l3.2.68v1.24c-1.3.37-1.72,1-1.72,2.42v3.69c0,1.64-.78,2.55-2.31,2.55h-1.46v-1.19h1.12c.83,0,1.22-.45,1.22-1.41v-3.72a2.58,2.58,0,0,1,1.8-2.83l-3.15-.68v-2.08a9.18,9.18,0,0,1,6.42-2.39c4,0,5.88,1.77,5.88,5.12V568h-1.38a8.12,8.12,0,0,0-4.18-1,9.4,9.4,0,0,0-4.4,1Z"/><path class="cls-2" d="M870.78,545.25h8.45V543h1.27v3.38h-9.8Z"/><path class="cls-2" d="M884.07,560.62v-9.36c0-3.77,3.53-4.22,3.53-6.19,0-1.25-.67-1.59-2.08-1.59a5.94,5.94,0,0,0-2.94.81v-1.17a6.67,6.67,0,0,1,3.28-.86c2.18,0,3.17,1,3.17,2.73,0,2.6-3.53,2.81-3.53,6.24v9.13c0,1,.44,1.43,1.35,1.43h1.27V563H886.3A2.12,2.12,0,0,1,884.07,560.62Z"/><path class="cls-2" d="M891.6,548.94H893v4.73h5.22c2.55,0,3.36-1.09,3.36-3.06v-1.67h1.43v1.67c0,1.76-.6,3.17-2.34,3.66,1.87.57,2.15,1.9,2.15,3.64V563h-1.43v-5c0-2.42-.78-3.12-3.3-3.12H893V563H891.6Z"/><path class="cls-2" d="M908.17,561.14,908,563h-1.25v-14h1.43v10.9A6.4,6.4,0,0,0,913,562c2.52,0,3.69-1.14,3.69-3.69v-9.39h1.43v9.31c0,3.3-1.66,5-4.65,5A7.11,7.11,0,0,1,908.17,561.14Z"/><path class="cls-2" d="M916.67,542.21h1.43v4.16h-1.43Z"/><path class="cls-2" d="M922.44,560.62V548.29a5.23,5.23,0,0,1,2.55-4.76h-5v-1.19h6.76v1.25c-2,.93-2.91,2.44-2.91,5.07v11.7c0,1,.44,1.43,1.35,1.43h1.28V563h-1.82A2.12,2.12,0,0,1,922.44,560.62Z"/><path class="cls-2" d="M928.84,556c0-4.47,2.08-7.33,6.84-7.33,4.36,0,6.11,2.58,6.11,5.46V563h-1.43v-8.92c0-2.28-1.28-4.13-4.71-4.13-3.93,0-5.41,2.37-5.41,6.08,0,4.37,1.54,6,4.32,6a6,6,0,0,0,1.77-.21V563a7.59,7.59,0,0,1-2.06.21C931,563.24,928.84,561,928.84,556Z"/><path class="cls-2" d="M936.4,543.85h-2v-1.1h3.2v2.5h5.74l-.08,1.12H936.4Z"/><path class="cls-2" d="M418,587.21c0-4.47,2.08-7.33,6.84-7.33,4.37,0,6.11,2.58,6.11,5.46v8.84H429.5v-8.92c0-2.28-1.27-4.13-4.7-4.13-3.93,0-5.41,2.37-5.41,6.08,0,4.37,1.53,6,4.31,6a6,6,0,0,0,1.77-.21v1.22a7.46,7.46,0,0,1-2.05.21C420.14,594.44,418,592.23,418,587.21Z"/><path class="cls-2" d="M425.73,574.47H427v2h7.26l-.08,1.12h-8.45Z"/><path class="cls-2" d="M438.24,594.21l-3.95-9.62h1.4l3.56,8.63q5.31.46,5.31-6.55c0-3.9-.91-5.31-4-5.31h-.83v-1.22h.93c3.93,0,5.28,2.08,5.28,6.5,0,5.57-2.52,7.8-5.75,7.8A6.26,6.26,0,0,1,438.24,594.21Z"/><path class="cls-2" d="M449.31,589.45v-9.31h1.43v9.39c0,2.52,1.07,3.69,3.62,3.69a6.6,6.6,0,0,0,4.83-2.18v-10.9h1.43v14h-1.24l-.13-1.84a7.42,7.42,0,0,1-5.36,2.1C450.87,594.44,449.31,592.75,449.31,589.45Z"/><path class="cls-2" d="M450.87,576.45h8.45v-2.26h1.28v3.38h-9.81Z"/><path class="cls-2" d="M457.55,570.44H456v-1h2.68v2.06h4l-.05,1.06h-5Z"/></svg>