<svg id="Layer_6" data-name="Layer 6" xmlns="http://www.w3.org/2000/svg" viewBox="0 0 750 6733.2"><defs><style>.cls-1{fill:#4e4133;}.cls-2{fill:#bf7c40;}.cls-3{fill:#fad902;}.cls-4{fill:#414942;}.cls-5{fill:#66846a;}.cls-6{fill:#6aa5a3;}</style></defs><title>7.3</title><path class="cls-1" d="M494.11,822.57S472,782.4,429.9,793.19c0,0-27.4-31.89-68.29-16.5,0,0-39.87-25.86-74.52-11.36h0s-13.6,5.78-19.45,34.21c0,0-41.82,9.24-41.16,57.13,0,0-35.93,25.8-37.27,71,0,0,12.59,17.71,66.63,10.46,0,0,32.06,21.46,75.62,11.22,0,0,24.93,28.49,69.07,24,0,0,29.79-24.86,27.29-48.85,0,0,34-23,28.07-55.37C455.89,869.14,500,850.72,494.11,822.57Z"/><path class="cls-2" d="M247.57,751.92s-3.63,33.13-34.54,47.8c0,0-2.77,45.11-31.36,59,0,0,1,44.08-19.48,64.83,0,0-21.83,7.35-56-14.6,0,0-52.41,9-68.9-17,0,0-27,10.95-37.29-7.62L.61,775.64s24.38-26,56.44-14.18c0,0,31-23.17,63.6-8.36,0,0,26.31-21.79,58.4-5.09C179.05,748,225.73,737.34,247.57,751.92Z"/><path class="cls-3" d="M426,738.5a17.16,17.16,0,0,1-2.08,8.48,44.74,44.74,0,0,1-6.53,8.48,32.46,32.46,0,0,0-5.7,7.57,22.38,22.38,0,0,0-2.29,6.53q-.5,3-1.05,9.39a5.15,5.15,0,0,1-2.22,4.65,8.27,8.27,0,0,1-4.59,1.46q-6.26,0-6.25-7.5A40.2,40.2,0,0,1,396.7,768a47.8,47.8,0,0,1,5.14-12.09,24.42,24.42,0,0,1,3.27-4.45c1.34-1.48,2.2-2.46,2.57-2.92a28.82,28.82,0,0,0,3.75-4.93,9.17,9.17,0,0,0,1.53-4.52,7.9,7.9,0,0,0-.63-3.48,15.36,15.36,0,0,0-1.87-2.78,12.77,12.77,0,0,0-4.73-3.33,13.7,13.7,0,0,0-5.42-1.25,18.52,18.52,0,0,0-7.43,1.46,14.78,14.78,0,0,0-5.42,3.75,7,7,0,0,0-2,4.66c0,2.59.51,4.54,1.53,5.83a5.39,5.39,0,0,1,1.53,3.34,5.62,5.62,0,0,1-.42,1.94,5.8,5.8,0,0,1-5.7,3.9c-3.42,0-5.93-1.3-7.5-3.9a19.76,19.76,0,0,1,1.25-20.77,26.28,26.28,0,0,1,10.56-8.55,38,38,0,0,1,16.54-3.34A23.05,23.05,0,0,1,413.66,719a21.46,21.46,0,0,1,8.06,7A20.72,20.72,0,0,1,426,738.5Zm-17.78,54.76a7.74,7.74,0,0,1,2.08,5.7A6,6,0,0,1,407.4,804a11,11,0,0,1-6.39,2,9.57,9.57,0,0,1-4.87-1.39q-2.91-2.08-2.91-7.37a6.12,6.12,0,0,1,2.57-4.86,8.9,8.9,0,0,1,5.76-2.09A8.38,8.38,0,0,1,408.24,793.26Z"/><path class="cls-3" d="M100.54,802.25a17.29,17.29,0,0,1,2.83,8.26,44.74,44.74,0,0,1-.92,10.66,32.49,32.49,0,0,0-.7,9.46,22.25,22.25,0,0,0,1.6,6.73c.8,1.86,2.2,4.67,4.19,8.46a5.17,5.17,0,0,1,.64,5.12,8.19,8.19,0,0,1-3.07,3.7q-5.26,3.39-9.32-2.93a40.35,40.35,0,0,1-4-8.82,48,48,0,0,1-2.2-12.95,24.66,24.66,0,0,1,.34-5.51c.33-2,.53-3.26.59-3.85A28.6,28.6,0,0,0,91,814.4a9.16,9.16,0,0,0-1.15-4.62,7.84,7.84,0,0,0-2.41-2.59,14.63,14.63,0,0,0-3.08-1.32,12.77,12.77,0,0,0-5.78-.26,13.86,13.86,0,0,0-5.23,1.88,18.67,18.67,0,0,0-5.47,5.24,14.77,14.77,0,0,0-2.53,6.09,7,7,0,0,0,.82,5q2.1,3.27,4.44,4.08a5.44,5.44,0,0,1,3.08,2,5.56,5.56,0,0,1,.7,1.86,5.8,5.8,0,0,1-2.69,6.36q-4.32,2.77-8.42.78a19.75,19.75,0,0,1-10.17-18.16,26.27,26.27,0,0,1,4.27-12.9A37.93,37.93,0,0,1,69.5,796.09a23,23,0,0,1,10.08-3.59,21.46,21.46,0,0,1,10.58,1.55A20.75,20.75,0,0,1,100.54,802.25Zm14.61,55.69a7.71,7.71,0,0,1,4.84,3.67,6,6,0,0,1,.28,5.84A11,11,0,0,1,116,872.6a9.37,9.37,0,0,1-4.84,1.46c-2.39-.12-4.54-1.65-6.44-4.62a6.11,6.11,0,0,1-.46-5.48,8.9,8.9,0,0,1,3.72-4.87A8.34,8.34,0,0,1,115.15,857.94Z"/><path class="cls-4" d="M152.48,771.33l-14.38-.22s2-52.44-8.64-63.59a53.59,53.59,0,0,1,14,25.84s2.84-29.24,1.73-35.36a59.88,59.88,0,0,1,5.48,34.26s3.89-19.47,15.93-22.94C166.6,709.32,152,726.17,152.48,771.33Z"/><path class="cls-5" d="M302.8,860.82l-18.92,3.46s-1.11-41.64-10.69-51.57c0,0,7.06,9,8.94,14.92,0,0-.1-22.1-9.4-29.6,0,0,7.83,5.22,14.8,24.05,0,0,.55-27.09-1.47-34.22,0,0,6.28,12.77,7.29,32.31,0,0,3.89-18.88,11.4-27.14,0,0-6,21.59-4.76,32.5,0,0,4.72-11.61,9.21-14.6,0,0-8.93,17-8.88,28.07A115.58,115.58,0,0,0,302.8,860.82Z"/><path class="cls-6" d="M391.86,935l-20.37.61s.06-39.06-12.39-54.56c0,0,8.74,11.95,11.32,18,0,0-3.14-25.54-4.38-26.72,0,0,8.89,16.82,13,33.79,0,0,2.35-42.8-.18-47.6,0,0,9,21.7,6,41.32,0,0,7.57-28.31,15.82-33.44,0,0-10.15,22.28-9.79,34.48,0,0,9.09-17.37,12.72-16.26C403.59,884.61,389.81,905.78,391.86,935Z"/></svg>