<svg id="Layer_8" data-name="Layer 8" xmlns="http://www.w3.org/2000/svg" viewBox="0 0 1920 4520"><defs><style>.cls-1{fill:#4e4133;}.cls-2{fill:#bf7c40;}.cls-3{fill:#fad902;}.cls-4{fill:#414942;}.cls-5{fill:#66846a;}.cls-6{fill:#6aa5a3;}</style></defs><title>7.3</title><path class="cls-1" d="M863.15,842.71S824.48,772.53,751,791.39c0,0-47.86-55.71-119.3-28.84,0,0-69.64-45.16-130.18-19.84h0s-23.76,10.11-34,59.77c0,0-73.06,16.13-71.91,99.8,0,0-62.75,45.06-65.1,124.1,0,0,22,30.94,116.39,18.26,0,0,56,37.5,132.11,19.61,0,0,43.54,49.77,120.65,41.87,0,0,52.05-43.42,47.68-85.33,0,0,59.41-40.26,49-96.73C796.38,924.06,873.45,891.89,863.15,842.71Z"/><path class="cls-2" d="M432.46,719.29s-6.34,57.88-60.33,83.5c0,0-4.83,78.8-54.79,103.06,0,0,1.77,77-34,113.25,0,0-38.14,12.85-97.8-25.49,0,0-91.54,15.72-120.36-29.72,0,0-47.1,19.13-65.14-13.31l1-189.85S43.64,715.31,99.64,736c0,0,54.22-40.49,111.12-14.61,0,0,46-38.06,102-8.89C312.77,712.46,394.31,693.82,432.46,719.29Z"/><path class="cls-3" d="M744.21,695.85a29.93,29.93,0,0,1-3.64,14.81,77.71,77.71,0,0,1-11.41,14.81,57.56,57.56,0,0,0-10,13.23,39.5,39.5,0,0,0-4,11.41q-.86,5.24-1.82,16.39,0,5.6-3.89,8.14a14.4,14.4,0,0,1-8,2.54q-10.92,0-10.92-13.11A70.56,70.56,0,0,1,693,747.32a84.27,84.27,0,0,1,9-21.12,42.72,42.72,0,0,1,5.7-7.77c2.35-2.59,3.84-4.29,4.49-5.1a49.76,49.76,0,0,0,6.56-8.62q2.67-4.49,2.67-7.89a14,14,0,0,0-1.09-6.07A27.09,27.09,0,0,0,717,685.9a22.44,22.44,0,0,0-8.26-5.83,24.07,24.07,0,0,0-9.46-2.19,32.58,32.58,0,0,0-13,2.55,25.89,25.89,0,0,0-9.47,6.56q-3.52,4-3.52,8.13c0,4.54.89,7.93,2.67,10.2q2.67,3.16,2.67,5.83a9.83,9.83,0,0,1-.73,3.4q-2.91,6.8-9.95,6.79-9,0-13.11-6.79t-4.13-17.24a32.93,32.93,0,0,1,6.31-19.06q6.32-9.11,18.45-14.93t28.89-5.83a40.19,40.19,0,0,1,18.21,4.25A37.2,37.2,0,0,1,736.68,674,36.1,36.1,0,0,1,744.21,695.85Zm-31.08,95.66q3.64,3.65,3.65,10,0,5.34-5.1,8.86a19.24,19.24,0,0,1-11.17,3.52,16.64,16.64,0,0,1-8.5-2.42q-5.1-3.64-5.1-12.87,0-4.86,4.5-8.5a15.56,15.56,0,0,1,10.07-3.64A14.56,14.56,0,0,1,713.13,791.51Z"/><path class="cls-3" d="M175.62,807.21a30.06,30.06,0,0,1,4.94,14.43,77.93,77.93,0,0,1-1.6,18.63,56.9,56.9,0,0,0-1.23,16.51,39.6,39.6,0,0,0,2.79,11.77q2.11,4.86,7.33,14.77,3,4.71,1.12,8.95a14.44,14.44,0,0,1-5.36,6.47q-9.2,5.91-16.28-5.13a70.49,70.49,0,0,1-7-15.41,84.15,84.15,0,0,1-3.85-22.62,43.85,43.85,0,0,1,.6-9.63q.87-5.16,1-6.71a49.66,49.66,0,0,0,.86-10.8q-.18-5.22-2-8.08a13.89,13.89,0,0,0-4.2-4.52,27,27,0,0,0-5.38-2.31,22.29,22.29,0,0,0-10.09-.45,24.39,24.39,0,0,0-9.15,3.28,32.49,32.49,0,0,0-9.55,9.17,25.75,25.75,0,0,0-4.43,10.63c-.53,3.51,0,6.43,1.43,8.74q3.68,5.73,7.76,7.14,3.94,1.22,5.39,3.46a9.77,9.77,0,0,1,1.23,3.25q1.22,7.31-4.71,11.1-7.56,4.86-14.7,1.36T97.75,858.94a32.93,32.93,0,0,1-5-19.45q.39-11.07,7.46-22.53t21.16-20.51A40.18,40.18,0,0,1,139,790.18a37.38,37.38,0,0,1,18.47,2.71A36.15,36.15,0,0,1,175.62,807.21Zm25.53,97.29q5,1.1,8.44,6.41,2.9,4.49.5,10.21a19.21,19.21,0,0,1-7.49,9,16.51,16.51,0,0,1-8.47,2.55q-6.25-.3-11.24-8.07-2.62-4.08-.81-9.58a15.65,15.65,0,0,1,6.51-8.51A14.57,14.57,0,0,1,201.15,904.5Z"/><path class="cls-4" d="M266.36,753.21l-25.13-.39s3.47-91.62-15.1-111.09a93.53,93.53,0,0,1,24.47,45.14s5-51.08,3-61.77c0,0,14.27,25.8,9.57,59.84,0,0,6.8-34,27.84-40.08C291,644.86,265.45,674.31,266.36,753.21Z"/><path class="cls-5" d="M529,909.53l-33.06,6s-1.94-72.73-18.67-90.07c0,0,12.33,15.72,15.62,26.06,0,0-.17-38.61-16.42-51.71,0,0,13.68,9.11,25.86,42,0,0,1-47.31-2.58-59.77,0,0,11,22.31,12.74,56.43,0,0,6.8-33,19.92-47.4,0,0-10.48,37.71-8.31,56.77,0,0,8.24-20.29,16.08-25.5,0,0-15.6,29.73-15.52,49A201.75,201.75,0,0,0,529,909.53Z"/><path class="cls-6" d="M684.53,1039.15l-35.59,1.07S649,972,627.3,944.91c0,0,15.28,20.86,19.77,31.39,0,0-5.49-44.62-7.64-46.68,0,0,15.52,29.38,22.67,59,0,0,4.11-74.76-.32-83.16,0,0,15.77,37.91,10.48,72.19,0,0,13.23-49.44,27.64-58.41,0,0-17.73,38.92-17.11,60.23,0,0,15.88-30.34,22.23-28.39C705,951.1,681,988.07,684.53,1039.15Z"/></svg>