<svg id="Layer_1" data-name="Layer 1" xmlns="http://www.w3.org/2000/svg" viewBox="0 0 952.69 3408.78"><defs><style>.cls-1{font-size:35px;font-family:MNPaethai-Med, MN Paethai;}.cls-1,.cls-4{fill:#fff8de;}.cls-2{font-family:MNPaethai, MN Paethai;}.cls-3{font-family:MNPaethai-Italic, MN Paethai;font-style:italic;}</style></defs><title>7.3</title><text class="cls-1" transform="translate(1.38 28.21)">สำนักงานคณะกรรมการพิเศษเพื่อประสานงาน<tspan x="0" y="36.4" xml:space="preserve">โครงการอันเนื่องมาจากพระราชดำริ (สำนักงาน กปร.)  </tspan><tspan class="cls-2"><tspan x="0" y="109.2">มูลนิธิชัยพัฒนา </tspan><tspan x="0" y="145.6">ติดต่อ : กองประชาสัมพันธ์</tspan></tspan><tspan class="cls-3"><tspan x="0" y="182">โทรศัพท์ 028-061-930</tspan></tspan></text><text class="cls-1" transform="translate(2.45 356.91)">โครงการพัฒนาพื้นที่บริเวณวัดมงคลชัยพัฒนาโครงการอันเนื่องมาจากพระราชดำริ <tspan class="cls-2"><tspan x="0" y="72.8">อำเภอเฉลิมพระเกียรติ จังหวัดสระบุรี</tspan><tspan x="0" y="109.2">ติดต่อ : ผู้อำนวยการสถานีทดลองพืชไร่พระพุทธบาท</tspan></tspan><tspan class="cls-3"><tspan x="0" y="145.6">โทรศัพท์ 036-499-181</tspan></tspan></text><text class="cls-1" transform="translate(2.38 663.41)">ศูนย์ศึกษาการพัฒนาเขาหินซ้อนโครงการอันเนื่องมาจากพระราชดำริ<tspan class="cls-2"><tspan x="0" y="72.8">อำเภอพนมสารคาม จังหวัดฉะเชิงเทรา</tspan><tspan x="0" y="109.2">ติดต่อ : ผู้อำนวยการศูนย์ ฯ เขาหินซ้อน</tspan></tspan><tspan class="cls-3"><tspan x="0" y="145.6">โทรศัพท์ 038-599-105</tspan></tspan></text><text class="cls-1" transform="translate(3.38 967.89)">โครงการพัฒนาพื้นที่บริเวณอ่างเก็บน้ำคลองสีเสียด<tspan x="0" y="36.4">โครงการอันเนื่องมาจากพระราชดำริ </tspan><tspan class="cls-2"><tspan x="0" y="109.2">อำเภอปากพลี จังหวัดนครนายก</tspan><tspan x="0" y="145.6">ติดต่อ : นายอำเภอปากพลี </tspan></tspan><tspan class="cls-3"><tspan x="0" y="182">โทรศัพท์ 037-399-657 </tspan></tspan><tspan class="cls-2"><tspan x="0" y="218.4">ติดต่อ : ผู้จัดการโครงการเขื่อนคลองท่าด่าน</tspan></tspan><tspan class="cls-3"><tspan x="0" y="254.8">โทรศัพท์ 037-313-574</tspan></tspan></text><text class="cls-1" transform="translate(2.49 1377.23)">ศูนย์ศึกษาการพัฒนาห้วยทรายอันเนื่องมาจากพระราชดำริ<tspan x="0" y="36.4"> </tspan><tspan class="cls-2"><tspan x="0" y="72.8">อำเภอชะอำ จังหวัดเพชรบุรี</tspan><tspan x="0" y="109.2">ติดต่อ : ผู้อำนวยการศูนย์ ฯ ห้วยทราย</tspan></tspan><tspan class="cls-3"><tspan x="0" y="145.6">โทรศัพท์ 032-471-110</tspan></tspan></text><text class="cls-1" transform="translate(3.35 1674.46)">ศูนย์ศึกษาการพัฒนาอ่าวคุ้งกระเบนอันเนื่องมาจากพระราชดำริ<tspan class="cls-2"><tspan x="0" y="72.8">อำเภอท่าใหม่ จังหวัดจันทบุรี </tspan><tspan x="0" y="109.2">ติดต่อ : ผู้อำนวยการศูนย์ ฯ อ่าวคุ้งกระเบน </tspan></tspan><tspan class="cls-3"><tspan x="0" y="145.6">โทรศัพท์ 039-369-216-8</tspan></tspan></text><text class="cls-1" transform="translate(4.6 1980.25)">ศูนย์ศึกษาการพัฒนาภูพานอันเนื่องมาจากพระราชดำริ<tspan class="cls-2"><tspan x="0" y="72.8">อำเภอเมือง จังหวัดสกลนคร </tspan><tspan x="0" y="109.2">ติดต่อ : ผู้อำนวยการศูนย์ ฯ ภูพาน </tspan></tspan><tspan class="cls-3"><tspan x="0" y="145.6">โทรศัพท์ 042-712-975 </tspan></tspan><tspan class="cls-2"><tspan x="0" y="182">ติดต่อ : ผู้อำนวยการสถานีทดลองพืชไร่สกลนคร </tspan></tspan><tspan class="cls-3"><tspan x="0" y="218.4">โทรศัพท์ 042-711-008</tspan></tspan></text><text class="cls-1" transform="translate(4.87 2344.98)">โครงการสาธิตทฤษฎีใหม่บ้านแดนสามัคคี<tspan class="cls-2"><tspan x="0" y="36.4"> </tspan><tspan x="0" y="72.8">อำเภอเขาวง จังหวัดกาฬสินธุ์</tspan><tspan x="0" y="109.2">ติดต่อ : นายอำเภอเขาวง</tspan></tspan><tspan class="cls-3"><tspan x="0" y="145.6">โทรศัพท์ 043-589-089</tspan></tspan></text><text class="cls-1" transform="translate(4.59 2627.54)">โครงการสาธิตทฤษฎีใหม่อันเนื่องมาจากพระราชดำริ<tspan class="cls-2"><tspan x="0" y="72.8">อำเภอปักธงชัย จังหวัดนครราชสีมา </tspan><tspan x="0" y="109.2">ติดต่อ : ผู้อำนวยการสถานีทดลองพืชไร่บ้านใหม่สำโรง</tspan></tspan><tspan class="cls-3"><tspan x="0" y="145.6">โทรศัพท์ 044-325-048</tspan></tspan></text><text class="cls-1" transform="translate(5.25 2906.88)">ศูนย์ศึกษาการพัฒนาห้วยฮ่องไคร้อันเนื่องมาจากพระราชดำริ <tspan class="cls-2"><tspan x="0" y="72.8">อำเภอดอยสะเก็ด จังหวัดเชียงใหม่</tspan><tspan x="0" y="109.2">ติดต่อ : ผู้อำนวยการศูนย์ ฯ ห้วยฮ่องไคร้</tspan></tspan><tspan class="cls-3"><tspan x="0" y="145.6">โทรศัพท์ 053-246-402</tspan></tspan></text><text class="cls-1" transform="translate(5.44 3195.46) rotate(0.11)">ศูนย์ศึกษาการพัฒนาพิกุลทองอันเนื่องมาจากพระราชดำริ<tspan class="cls-2"><tspan x="0" y="72.8">อำเภอเมือง จังหวัดนราธิวาส</tspan><tspan x="0" y="109.2">ติดต่อ : ผู้อำนวยการศูนย์ ฯ พิกุลทอง</tspan></tspan><tspan class="cls-3"><tspan x="0" y="145.6">โทรศัพท์ 073-513-560</tspan></tspan></text><rect class="cls-4" x="2.11" y="276.9" width="808" height="4"/><rect class="cls-4" x="2.11" y="576.92" width="808" height="5"/><rect class="cls-4" x="3.11" y="877.94" width="808" height="4"/><rect class="cls-4" x="2.58" y="1287.57" width="808" height="4"/><rect class="cls-4" x="5.32" y="1586.75" width="808" height="4"/><rect class="cls-4" x="5.35" y="1885.85" width="808" height="4"/><rect class="cls-4" x="4.12" y="2259.26" width="808" height="4"/><rect class="cls-4" x="5.11" y="2555.24" width="808" height="4"/><rect class="cls-4" x="6.11" y="2827.53" width="808" height="4"/><rect class="cls-4" x="561.84" y="4539.39" width="808" height="4" transform="translate(-547.49 -1426.92) rotate(0.11)"/><rect class="cls-4" x="562.01" y="4829.08" width="808" height="4" transform="translate(-546.93 -1426.92) rotate(0.11)"/></svg>