<svg id="Layer_4" data-name="Layer 4" xmlns="http://www.w3.org/2000/svg" viewBox="0 0 1920 4520"><defs><style>.cls-1{fill:#295f86;}.cls-2{fill:#fff;}.cls-3{fill:#152d53;}.cls-4{fill:#f9d6c2;}.cls-5{fill:#4e4133;}.cls-6{fill:#cbddda;}.cls-7{fill:#dfdcce;}.cls-8{fill:#c2bfa5;}.cls-9{fill:#eaeee0;}.cls-10{fill:none;stroke:#eaeee0;stroke-miterlimit:10;stroke-width:2px;}</style></defs><title>7.4</title><path class="cls-1" d="M1456.91,832.08s-35.84,40.08-44.58,103.89,35.84,176.57,44.58,235.14c0,0,292,68.18,285-48.08s-80.42-286.49-80.42-286.49Z"/><path class="cls-2" d="M1664.08,756.77s21.53-35.84-17.65-54.2S1547,740.16,1547,740.16s-52-26.22-68,9.62,12.86,219.4,47,225.52S1608.14,915,1608.14,915,1647.57,789.23,1664.08,756.77Z"/><path class="cls-3" d="M1445.43,541.93c-1,1.16-64,97.9,9.44,97.9h3.49s6.49-10.24-8.41-11.33-30.61-19.49-2.14-68.12C1476.11,512,1445.43,541.93,1445.43,541.93Z"/><path class="cls-4" d="M1646.43,717.07s-17.59,45.53-74.51,52.78-72.44-44.5-72.44-44.5,20.7-17.6,22.77-44.5c0,0-50.71,3.1-65.2-54.85s-14.39-143.38,13.46-157.3c37.25-18.63,124.81-3.08,132.46,136.6C1607.11,680.85,1646.43,717.07,1646.43,717.07Z"/><path class="cls-5" d="M1468.44,486.29s20.69,68.3,122.11,70.37c0,0-1,38.29,32.08,26.91s42.43-72.44,21.73-118-77.61-90-145.91-64.16-88.93,93.75-50.64,159c0,0-.44-24.51,1-27.52C1451.24,527.55,1460.16,515.27,1468.44,486.29Z"/><circle class="cls-5" cx="1612.28" cy="423.16" r="70.37"/><path class="cls-1" d="M1590.55,537S1569.1,391.89,1450,435.47c0,0,8.14-21.62,31.94-26.79S1595.73,392.12,1619.53,537Z"/><path class="cls-3" d="M1569.85,570.12c0,25.72,11.49,44.41,35.19,46.57,22.77,2.07,41.39-20.85,41.39-46.57s-7.78-46.59-36.22-47.61C1581.24,521.48,1569.85,544.4,1569.85,570.12Z"/><ellipse class="cls-1" cx="1617.46" cy="567.53" rx="28.98" ry="43.98"/><path class="cls-1" d="M1565,957.24s-13.62-49.72-17.79-85.08-10.63-37.82-14.65-34.58-28.75,85.08-33,106.45,12.43,76.15,12.43,76.15S1585.41,1003.47,1565,957.24Z"/><path class="cls-1" d="M1651.84,856s69.06,169.1,69.06,267.88c0,0-174,14.56-241.89,17.48,0,0-24.14,80.42,5,103.73,0,0,153.84-2.91,246.5,0s111-37.3,93.53-167.54S1766.8,726.18,1670,742.78Z"/><path class="cls-1" d="M1479,749.78s-61.44,16.36-85.91,94.43S1410.58,1089,1362.79,1121c0,0-45.62,8.66-96.82,16.84s22.77,81.05,22.77,81.05,207.68,66.29,185.74-44.08S1479,749.78,1479,749.78Z"/><ellipse class="cls-6" cx="1621.6" cy="567.29" rx="13.45" ry="20.42"/><path class="cls-3" d="M1447.49,877s-33.68,78.36-25.79,143.19c11.21,92.1,60.3,134.39,60.3,134.39s-15.07,13.62-32.46-18.48S1366.51,1007.07,1447.49,877Z"/><path class="cls-1" d="M1445.67,635.83c1.11,4.73,9.5,8.8,21.21,8.8s20-4.11,21.22-8.8c2.07-7.76-9.5-8.8-21.22-8.8S1443.6,627,1445.67,635.83Z"/><path class="cls-3" d="M1629.69,695.36s10.53,16.53,16.74,21.71c0,0,5.18,0,5.18,12.42s-5.1,121-139.63,290.69c0,0,166.54-56.81,111.69-125.11,0,0,40.36-12.42,47.6-37.26s32.08-104.52,9.31-133.5S1636.75,686.07,1629.69,695.36Z"/><path class="cls-3" d="M1512,1020.18s-12.5-101.31-15.6-162.37,3.1-132.46,3.1-132.46-26.34-6.64-40.36,45.53c-18.62,69.34-18.62,90,8.28,106.59,20.9,12.86,17.59,11.39,17.59,11.39s-34.15,11.38-21.73,50.7S1512,1020.18,1512,1020.18Z"/><path class="cls-7" d="M1547,769.09s19.79,31.8,30.14,58.71,108.66-80.72,69.33-110.73C1646.43,717.07,1637.91,755.92,1547,769.09Z"/><path class="cls-3" d="M1465.16,1192.83c0,29,7.54,52.44,16.84,52.44s16.85-23.48,16.85-52.44-20.56-50-20.56-50C1469,1142.79,1465.16,1163.86,1465.16,1192.83Z"/><path class="cls-8" d="M1310.34,1240.46l-51.28-280.89s-3.2-24.48-30.3-24.48H880.27s-21,3.5-15.15,25.64,50.12,279.73,50.12,279.73Z"/><path class="cls-7" d="M1547,769.09s-30.92-5.45-47.48-43.74c0,0-12.42,50.71,2.07,89S1531.4,780.86,1547,769.09Z"/><path class="cls-1" d="M1576.37,811S1553.9,769.4,1547,769.09s-29.74,38-28.86,45.77,6.7,30.2,18.35,29.32S1565.59,815.63,1576.37,811Z"/><path class="cls-4" d="M1479,1141.39s42.29,51.94,8.49,70.8c-28.89,16.13-84.79-35.4-84.79-35.4s-19.23,3-37.59,28.31-37.58,13.21-14-24.38,27.3-48.07,77.59-43.7Z"/><rect class="cls-8" x="1284.7" y="1215.62" width="180.45" height="24.84" rx="11.05" transform="translate(2749.86 2456.08) rotate(-180)"/><path class="cls-9" d="M1284.7,1240.46l-51.28-280.89s-3.2-24.48-30.3-24.48H854.63s-21,3.5-15.15,25.64,50.12,279.73,50.12,279.73Z"/><path class="cls-8" d="M1023.2,1151.34l.81.49.24-.86-.4-.25a.59.59,0,0,1-.26-.29.68.68,0,0,1,0-.4l1.15-4.12-.94-.58-1.22,4.4A1.3,1.3,0,0,0,1023.2,1151.34Z"/><path class="cls-8" d="M1025.26,1152.59l1,.51.44-2a1.05,1.05,0,0,1,.29-.62.66.66,0,0,1,.56-.07l.16-.75-1-.84,0-.18a1.25,1.25,0,0,1,.69-.07,2.68,2.68,0,0,1,.85.29,2,2,0,0,1,.92.8,1.72,1.72,0,0,1,.07,1.15l-.76,3.52,1,.51.75-3.49a2.88,2.88,0,0,0-.19-2,4,4,0,0,0-2.89-1.81,2.59,2.59,0,0,0-1.14.17l-.25,1.17.9.78c-.5-.08-.83.23-1,.92Z"/><path class="cls-8" d="M1033.18,1156.55a2,2,0,0,0,1.73.08,1.86,1.86,0,0,0,.83-1.53l.1-.72.46.19.19-.86-.53-.22.26-1.94-1-.41-.27,1.94-1.16-.48-.12.89,1.16.48-.1.77a1.21,1.21,0,0,1-.46.92,1.1,1.1,0,0,1-1-.05,1.73,1.73,0,0,1-.89-.73,1.86,1.86,0,0,1-.18-1.18l.5-3.6-1-.4-.48,3.55a3,3,0,0,0,.33,2A3.19,3.19,0,0,0,1033.18,1156.55Z"/><path class="cls-8" d="M1038.91,1158.63a2.08,2.08,0,0,0,.81.1l0-.92a1.55,1.55,0,0,1-.64-.1,1.41,1.41,0,0,1-.9-.75,3.41,3.41,0,0,1-.21-1.66,5.24,5.24,0,0,1,.27-1.6c.14-.34.36-.47.65-.38a.71.71,0,0,1,.33.22,1.83,1.83,0,0,1,.21.46l.55.17a.56.56,0,0,1,.25-.32.44.44,0,0,1,.34,0,.53.53,0,0,1,.38.29,1.55,1.55,0,0,1,.06.66l-.24,4.31,1,.29.25-4.48a2.28,2.28,0,0,0-.24-1.27,1.37,1.37,0,0,0-.85-.69,1.39,1.39,0,0,0-.64,0,1.08,1.08,0,0,0-.52.27,1.8,1.8,0,0,0-.39-.55,1.22,1.22,0,0,0-.57-.32,1,1,0,0,0-1.25.46,4.56,4.56,0,0,0-.55,2.24,4.43,4.43,0,0,0,.42,2.43A2.36,2.36,0,0,0,1038.91,1158.63Z"/><path class="cls-8" d="M1045,1160.15a2,2,0,0,0,1.47-.14,1.27,1.27,0,0,0,.52-1.19,2,2,0,0,0-.37-1.2,4.34,4.34,0,0,0-1.15-.93l-.26-.15-.66-.41a1.29,1.29,0,0,1-.33-.33.68.68,0,0,1-.13-.42c0-.27.09-.44.28-.5a2,2,0,0,1,.88,0,4.63,4.63,0,0,1,.7.22,3.4,3.4,0,0,1,.66.34v-1a4.23,4.23,0,0,0-.7-.32,5.39,5.39,0,0,0-.82-.24,1.89,1.89,0,0,0-1.47.18,1.35,1.35,0,0,0-.49,1.18,1.74,1.74,0,0,0,.39,1.13,4.46,4.46,0,0,0,1.13.91l.36.22c.27.15.47.28.6.37a1.18,1.18,0,0,1,.31.32,1,1,0,0,1,.11.46c0,.29-.08.47-.27.53a2.1,2.1,0,0,1-1,0,3.61,3.61,0,0,1-.76-.23,4.46,4.46,0,0,1-.75-.4l0,1a3,3,0,0,0,.74.37A5.77,5.77,0,0,0,1045,1160.15Z"/><path class="cls-8" d="M1048.29,1160.62l1,.09-.38-4.52a1.44,1.44,0,0,1,.56-.48,1.3,1.3,0,0,1,.73-.15,1.1,1.1,0,0,1,.79.37,1.67,1.67,0,0,1,.34,1l.34,4,1,.08-.35-4a3.1,3.1,0,0,0-.57-1.67,1.74,1.74,0,0,0-1.26-.68,1.94,1.94,0,0,0-1.68.64l-.11-.68-.91-.07Z"/><path class="cls-8" d="M1057.86,1162.71l1,0-.92-5.64a3,3,0,0,0-.87-1.85,2.43,2.43,0,0,0-1.75-.51,2.73,2.73,0,0,0-2.15,1.14l.21,1.28,1,.27q-.66.3-.48,1.44l.18,1.07a1.63,1.63,0,0,0,.37.83.87.87,0,0,0,.69.29l1,0-.17-1-.49,0a.4.4,0,0,1-.3-.1.61.61,0,0,1-.15-.38l-.13-.74a1.68,1.68,0,0,1,0-.76.74.74,0,0,1,.44-.38l-.14-.82-1.07-.29,0-.21a1.31,1.31,0,0,1,.55-.44,2.1,2.1,0,0,1,.8-.2,1.49,1.49,0,0,1,1,.28,1.82,1.82,0,0,1,.46,1.09Z"/><path class="cls-8" d="M1062.24,1160.43a1.92,1.92,0,0,0,1.43-.91,2.64,2.64,0,0,0,.11-2l-.19-.76.45-.07-.16-1-.52.09-.5-2-.95.17.5,2-1.12.2.23.94,1.12-.2.2.8a1.71,1.71,0,0,1,0,1.16,1.06,1.06,0,0,1-.82.51,1.21,1.21,0,0,1-1-.19,1.87,1.87,0,0,1-.58-1l-.93-3.78-.94.17.92,3.73a3,3,0,0,0,1,1.76A2.19,2.19,0,0,0,1062.24,1160.43Z"/><path class="cls-8" d="M1067.57,1161.45a2.17,2.17,0,0,1,.54-.5,2.27,2.27,0,0,1,.66-.33,2.12,2.12,0,0,1,1.36,0l.9-.3-1.94-5.86a2.84,2.84,0,0,0-1.11-1.64,2.05,2.05,0,0,0-1.7-.09,2.87,2.87,0,0,0-1.14.69,3.18,3.18,0,0,0-.68,1l.41,1.24h1a.92.92,0,0,0-.3.66,2.6,2.6,0,0,0,.16.91l.24.74a.62.62,0,0,1,0,.38c0,.09-.09.15-.21.19l-.31.1.32.95.56-.18c.66-.21.84-.77.54-1.67l-.27-.8a2.27,2.27,0,0,1-.14-.77.75.75,0,0,1,.3-.48l-.26-.8h-1.09l-.06-.2a1.35,1.35,0,0,1,.43-.6,2.07,2.07,0,0,1,.73-.4,1.13,1.13,0,0,1,1,0,1.76,1.76,0,0,1,.61,1l1.62,4.89a1.48,1.48,0,0,0-.58-.08,2.33,2.33,0,0,0-.67.13,2.66,2.66,0,0,0-1.29.86Z"/><path class="cls-8" d="M1064.52,1152.59l3.42-1.36-.66-1.74-.73.29.34.91-2.64,1Z"/><path class="cls-8" d="M1072.35,1157.25l.75-.32-.36-.94-.38.16c-.14.07-.25.08-.32,0a.69.69,0,0,1-.22-.36l-.87-2.18a2,2,0,0,1-.16-.81,5.5,5.5,0,0,1,.1-.88,4.2,4.2,0,0,0,.12-.76,1.77,1.77,0,0,0-.14-.69,1.42,1.42,0,0,0-.65-.8,1.14,1.14,0,0,0-1,0,2.32,2.32,0,0,0-.59.37,1.87,1.87,0,0,0-.44.54l.35.87a1.69,1.69,0,0,1,.75-.71.64.64,0,0,1,.45-.06c.12,0,.21.16.29.36a.61.61,0,0,1,0,.35,3,3,0,0,1-.1.51,5.25,5.25,0,0,0-.14,1,2.66,2.66,0,0,0,.21,1l1,2.5C1071.35,1157.25,1071.79,1157.5,1072.35,1157.25Z"/><path class="cls-8" d="M1074.22,1156.44l.85-.47-1.38-3,1.18-.65a.8.8,0,0,1,.73-.12,1.5,1.5,0,0,1,.56.75l.9,2,.84-.46-1-2.1a2.7,2.7,0,0,0-.53-.81.9.9,0,0,0-.7-.26,1.77,1.77,0,0,0-.06-1.86l-.32-.7-.84.45.34.74a1.59,1.59,0,0,1,.18.91.87.87,0,0,1-.51.59l-1.21.67-.82-1.8-.85.46Z"/><path class="cls-8" d="M1081.38,1152.23a1.62,1.62,0,0,0,.72-1.22,3,3,0,0,0-.44-1.72l-1.94-3.61-.79.56,1.91,3.55a1.84,1.84,0,0,1,.28,1,1,1,0,0,1-.48.71,1.43,1.43,0,0,1-.7.24,1.74,1.74,0,0,1-.74-.14l-2.18-4.05-.8.56,3,5.5.73-.51-.28-.63a2.38,2.38,0,0,0,.9.09A1.94,1.94,0,0,0,1081.38,1152.23Z"/><path class="cls-8" d="M1078.42,1145.44l.78-.6-1-1.63-.77.6Z"/><polygon class="cls-7" points="1002.53 1089.47 998.85 1063.35 1005.5 1056.86 1013.6 1063.34 1017.27 1089.42 1002.53 1089.47"/><polygon class="cls-7" points="1012.32 1089.44 1010.73 1078.2 1017.38 1071.71 1025.48 1078.19 1028.09 1096.72 1012.32 1089.44"/><polygon class="cls-9" points="1020.77 1082.46 1016.64 1082.47 1015.91 1077.26 1020.03 1077.24 1020.77 1082.46"/><polygon class="cls-9" points="1008.89 1067.61 1004.76 1067.62 1004.03 1062.4 1008.15 1062.39 1008.89 1067.61"/><path class="cls-8" d="M1010.1,1081.92l8.32-8.81h-1.77l10.58,8.74c1.23,1,3-.74,1.76-1.77l-10.57-8.74a1.29,1.29,0,0,0-1.77,0l-8.32,8.81c-1.1,1.17.66,2.94,1.77,1.77Z"/><path class="cls-8" d="M998.07,1067.07l8.32-8.81h-1.77l10.57,8.74c1.23,1,3-.74,1.77-1.76l-10.57-8.74a1.28,1.28,0,0,0-1.77,0l-8.32,8.8c-1.11,1.17.66,2.94,1.77,1.77Z"/><path class="cls-8" d="M1043.32,1147.34a39.1,39.1,0,0,0,9.33,1c25.55-.45,42.33-27.09,37.48-59.49a79,79,0,0,0-9.83-28C1054.26,1074.29,1039,1107.85,1043.32,1147.34Z"/><path class="cls-10" d="M1068.38,1102.23s-11.3-12.35-11.34-29.56"/><path class="cls-9" d="M1062,1108.22c2.22-4,4.31-8.19,6.25-12.4s3.73-8.54,5.38-12.9,3.08-8.82,4.36-13.31a123,123,0,0,0,3-13.74,122.92,122.92,0,0,1-1.73,14c-.88,4.64-1.91,9.26-3.2,13.81s-2.7,9.07-4.29,13.54-3.3,8.86-5.28,13.28Z"/><path class="cls-7" d="M1046.21,1105.36c-17.36.31-34.46-6.81-49.11-19,.13,1.37.29,2.75.5,4.14,4.85,32.41,29.49,58.31,55.05,57.86s42.33-27.09,37.48-59.49c-.21-1.4-.47-2.77-.75-4.14C1078.46,1097.37,1063.57,1105.06,1046.21,1105.36Z"/><path class="cls-8" d="M996.78,1081a72.36,72.36,0,0,0,.81,9.48c4.85,32.41,29.5,58.31,55.05,57.86a34.43,34.43,0,0,0,19.06-6C1056.42,1108,1027.37,1083.22,996.78,1081Z"/><path class="cls-9" d="M1007.36,1092a10,10,0,0,1,1.67,1,15.24,15.24,0,0,1,1.41,1.24,18.24,18.24,0,0,1,2.31,2.82l-2.62.34a17.25,17.25,0,0,1,1.45-2.92,13.69,13.69,0,0,1,1-1.37,9.64,9.64,0,0,1,1.21-1.28,8.93,8.93,0,0,1,.1,1.77,15.24,15.24,0,0,1-.14,1.67,18.49,18.49,0,0,1-.79,3.16l-.93,2.69-1.7-2.35a18.24,18.24,0,0,1-1.85-3.14,14.11,14.11,0,0,1-.68-1.75A10.64,10.64,0,0,1,1007.36,1092Z"/><path class="cls-9" d="M1010.27,1090.19a5.36,5.36,0,0,1,1.48,1.75,6.15,6.15,0,0,1,.63,3.86,5.22,5.22,0,0,1-.85,2.12,5.32,5.32,0,0,1-1.48-1.74,6,6,0,0,1-.63-1.88,6.33,6.33,0,0,1,0-2A5.33,5.33,0,0,1,1010.27,1090.19Z"/><path class="cls-9" d="M1024.74,1101.09a10,10,0,0,1,1.67,1.05,15.24,15.24,0,0,1,1.41,1.24,18.24,18.24,0,0,1,2.31,2.82l-2.62.34a17.25,17.25,0,0,1,1.45-2.92,12.63,12.63,0,0,1,1-1.37,9.64,9.64,0,0,1,1.21-1.28,8.87,8.87,0,0,1,.1,1.76,15.22,15.22,0,0,1-.14,1.68,18.49,18.49,0,0,1-.79,3.16l-.93,2.69-1.7-2.35a18.24,18.24,0,0,1-1.85-3.14,14.11,14.11,0,0,1-.68-1.75A10.64,10.64,0,0,1,1024.74,1101.09Z"/><path class="cls-9" d="M1027.65,1099.33a5.36,5.36,0,0,1,1.48,1.75,5.88,5.88,0,0,1,.63,1.88,6,6,0,0,1,0,2,1.33,1.33,0,1,1-2.33.38,6.08,6.08,0,0,1-.62-3.87A5.33,5.33,0,0,1,1027.65,1099.33Z"/><path class="cls-9" d="M1016.24,1113.59a10.79,10.79,0,0,1,1.67,1.06,15.15,15.15,0,0,1,1.41,1.23,18.32,18.32,0,0,1,2.31,2.83l-2.62.34a17.58,17.58,0,0,1,1.44-2.92,14.29,14.29,0,0,1,1-1.37,9,9,0,0,1,1.21-1.28,8.83,8.83,0,0,1,.1,1.76,15,15,0,0,1-.14,1.67,18.37,18.37,0,0,1-.79,3.17l-.93,2.68-1.7-2.34a18.32,18.32,0,0,1-1.85-3.15,14.11,14.11,0,0,1-.68-1.75A10.46,10.46,0,0,1,1016.24,1113.59Z"/><path class="cls-9" d="M1019.15,1111.84a5.34,5.34,0,0,1,1.48,1.74,6.32,6.32,0,0,1,.63,1.88,6,6,0,0,1,0,2,5.3,5.3,0,0,1-.85,2.12,5.12,5.12,0,0,1-1.48-1.74,6.06,6.06,0,0,1-.62-3.86A5.27,5.27,0,0,1,1019.15,1111.84Z"/><path class="cls-9" d="M1031.4,1128.86a11.14,11.14,0,0,1,1.68,1.05,15.28,15.28,0,0,1,1.4,1.24,17.82,17.82,0,0,1,2.32,2.83l-2.62.34a17.21,17.21,0,0,1,1.44-2.92,14.29,14.29,0,0,1,1-1.37,8.53,8.53,0,0,1,1.21-1.28,8.83,8.83,0,0,1,.1,1.76,13.12,13.12,0,0,1-.15,1.67,17.9,17.9,0,0,1-.78,3.17l-.93,2.68-1.7-2.34a18.71,18.71,0,0,1-1.85-3.15,14.11,14.11,0,0,1-.68-1.75A10.46,10.46,0,0,1,1031.4,1128.86Z"/><path class="cls-9" d="M1034.32,1127.11a5.24,5.24,0,0,1,1.48,1.74,6.32,6.32,0,0,1,.63,1.88,6,6,0,0,1,0,2,5.3,5.3,0,0,1-.85,2.12,5.12,5.12,0,0,1-1.48-1.74,6,6,0,0,1-.63-1.88,6,6,0,0,1,0-2A5.13,5.13,0,0,1,1034.32,1127.11Z"/><path class="cls-9" d="M1041.07,1113.9a10,10,0,0,1,1.67,1,15.24,15.24,0,0,1,1.41,1.24,18.24,18.24,0,0,1,2.31,2.82l-2.62.34a17.25,17.25,0,0,1,1.45-2.92,12.63,12.63,0,0,1,1-1.37,9.64,9.64,0,0,1,1.21-1.28,8.87,8.87,0,0,1,.1,1.76,15.22,15.22,0,0,1-.14,1.68,18.49,18.49,0,0,1-.79,3.16l-.93,2.69-1.7-2.35a18.24,18.24,0,0,1-1.85-3.14,14.75,14.75,0,0,1-.68-1.75A10.64,10.64,0,0,1,1041.07,1113.9Z"/><path class="cls-9" d="M1044,1112.14a5.36,5.36,0,0,1,1.48,1.75,5.91,5.91,0,0,1,.63,1.87,6,6,0,0,1,0,2,5.36,5.36,0,0,1-.85,2.12,5.24,5.24,0,0,1-1.48-1.75,5.91,5.91,0,0,1-.63-1.87,6.33,6.33,0,0,1,0-2A5.33,5.33,0,0,1,1044,1112.14Z"/><path class="cls-9" d="M1054.15,1131.73a9.88,9.88,0,0,1,1.67,1,13,13,0,0,1,1.41,1.24,18.31,18.31,0,0,1,2.32,2.82l-2.63.34a18.89,18.89,0,0,1,1.45-2.92c.3-.46.61-.92,1-1.37a9.74,9.74,0,0,1,1.22-1.28,8.93,8.93,0,0,1,.1,1.77,13.12,13.12,0,0,1-.15,1.67,17.59,17.59,0,0,1-.78,3.16l-.93,2.69-1.7-2.35a18.24,18.24,0,0,1-1.85-3.14,14.11,14.11,0,0,1-.68-1.75A10.46,10.46,0,0,1,1054.15,1131.73Z"/><path class="cls-9" d="M1057.07,1130a5.36,5.36,0,0,1,1.48,1.75,6.23,6.23,0,0,1,.63,1.88,6,6,0,0,1,0,2,5.3,5.3,0,0,1-.85,2.12,5.1,5.1,0,0,1-1.48-1.74,6.08,6.08,0,0,1-.62-3.87A5.19,5.19,0,0,1,1057.07,1130Z"/><path class="cls-8" d="M1009,1047.83c1.68,0,2.07-.75,1.87-2.31s-.94-2.46-2.33-2.34c-.06-1.08.46-1.43,1.4-1.42,1.84,0,2.7,1.56,3.24,5.79l2.5,0-1.08-8.41a5.41,5.41,0,0,0-1-2.63,3.48,3.48,0,0,0,.7-2.22l-2.11-.58a2.31,2.31,0,0,1-.41,1.23,5.3,5.3,0,0,0-2.33-.54,4.87,4.87,0,0,0-4,1.64l1.28,1.82a3.08,3.08,0,0,1,2.69-1.28c1.58,0,2.35.91,2.56,2.52l.2,1.58a3.32,3.32,0,0,0-2.65-1.15c-2.3,0-3.61,1.36-3.14,5C1006.69,1046.72,1007.35,1047.81,1009,1047.83Zm-.13-1.46c-.57,0-.79-.28-.88-1s.07-.89.65-.88.78.23.87.9S1009.44,1046.38,1008.85,1046.37Z"/><path class="cls-8" d="M1014.22,1055.19l2.38,0-.5-3.92c-.24-1.85-.81-2.75-2.45-2.77s-2,.83-1.78,2.36.91,2.25,2.09,2.27Zm-.2-3.34c-.59,0-.79-.23-.88-.9s.06-.94.65-.93.79.23.88,1S1014.61,1051.86,1014,1051.85Z"/><path class="cls-8" d="M1021.76,1048.05c3.25,0,4-2,3.65-4.66l-1.06-8.34-2.57,0,1.1,8.62c.17,1.35.12,2.26-1.4,2.23s-1.81-.94-2-2.28l-.19-1.52c-.29-2.23,1-2.57.79-4.18l-.1-.84c-.24-1.8-.83-2.43-2.49-2.46s-2,.75-1.84,2.32.66,2.24,1.82,2.35a4.34,4.34,0,0,0-.7,3.15l.13,1C1017.21,1045.77,1018.37,1048,1021.76,1048.05Zm-3.85-10.16c-.59,0-.81-.23-.89-.9s.07-.93.66-.92.79.23.88,1S1018.5,1037.9,1017.91,1037.89Z"/><path class="cls-8" d="M1031.16,1049.43l2.51-.63.17-5.72,3.29,4.85,2.48-.63-3.63-12.48-2.43.61,2.29,7.88-2.58-3.9-.94.24-.06,4.57-1.62-5.55c-.54-1.86-1.27-2.56-2.85-2.16s-1.82,1.32-1.37,2.88,1.32,2,2.33,1.76Zm-2.48-9.65c-.56.14-.78,0-1-.69s-.11-1,.45-1.11.78,0,1,.74S1029.24,1039.64,1028.68,1039.78Z"/><path class="cls-8" d="M1045.2,1046.27c3.31-.83,3.6-3.31,3.12-5l-1.38-4.74c-.81-2.76-2.5-4.26-5.74-3.44a5.33,5.33,0,0,0-3.52,2.68l1.5,1.47a3.51,3.51,0,0,1,2.32-1.93c1.58-.4,2.53.2,3,1.85l1.42,4.89c.3,1-.17,1.74-1.36,2s-1.85-.07-2.14-1l-.09-.33c1-.26,1.63-1,1.19-2.48s-1.14-2.25-2.74-1.84-1.83,1.34-1.29,3.21l.41,1.41C1040.56,1045.29,1041.83,1047.12,1045.2,1046.27Zm-3.41-4.58c-.56.14-.78,0-1-.69s-.11-1,.45-1.11.78,0,1,.74S1042.35,1041.55,1041.79,1041.69Z"/><path class="cls-8" d="M1025,1074.3l2.43-.65-.83-2.76.83-6.68c0-.47.1-.63.24-.67s.21,0,.29.3l2.68,9,2.42-.65-3.09-10.33c-.44-1.46-1.34-2.32-2.5-2s-1.54,1.09-1.74,2.8l-.47,3.81-.87-2.9c-.55-1.85-1.3-2.54-2.88-2.12s-1.81,1.34-1.34,2.9,1.35,2,2.36,1.73Zm-2.57-9.64c-.56.15-.78,0-1-.68s-.11-1,.44-1.11.78,0,1,.73S1022.94,1064.51,1022.39,1064.66Z"/><path class="cls-8" d="M1020.11,1060.61l8.74-2.33-1.59-5.32-2.1.56.51,1.72a3.51,3.51,0,0,0-2.62-.27C1020.76,1055.59,1019.41,1057.57,1020.11,1060.61Zm1.81-2.18c-.07-.87.65-1.45,1.66-1.72a2.34,2.34,0,0,1,2.56.59Z"/><path class="cls-8" d="M1024.9,1052.67l2.1-.56-1-3.2-2.11.56Z"/><path class="cls-8" d="M1035.41,1071.13l3.12.38,1.75-6,2.56,6.51,3.1.38-.9-14.76-3-.37.57,9.32-2-5.23-1.17-.14-1.31,4.82-.4-6.55c-.13-2.21-.8-3.26-2.77-3.5s-2.5.64-2.39,2.48,1,2.7,2.27,2.85Zm-.3-11.29c-.7-.08-.92-.36-1-1.14s.13-1.06.83-1,.91.36,1,1.2S1035.8,1059.93,1035.11,1059.84Z"/><path class="cls-8" d="M1041.89,1055.61l3,.37-.29-4.61-3-.37Z"/><path class="cls-8" d="M1052.78,1073.67c4.13.5,5.14-2,5-4l-.34-5.61c-.2-3.26-1.79-5.56-5.83-6.06a5.84,5.84,0,0,0-4.86,1.38l1.36,2.18a3.79,3.79,0,0,1,3.25-1.07,3.07,3.07,0,0,1,3,3.23l.35,5.77c.07,1.2-.67,1.78-2.15,1.6s-2.17-.85-2.24-2l0-.39c1.26.15,2.18-.35,2.07-2.13s-.73-2.86-2.72-3.11-2.52.67-2.39,2.87l.1,1.67C1047.59,1070.68,1048.59,1073.15,1052.78,1073.67Zm-2.76-6.3c-.7-.08-.91-.36-1-1.14s.13-1.06.83-1,.91.36,1,1.2S1050.71,1067.46,1050,1067.37Z"/><path class="cls-8" d="M1062.45,1065.89c1.53-.64,1.66-1.6,1.08-3.11s-1.48-1.86-2.44-1.46l-1.66-4.32c-.75-2,.83-4.12,0-6.37-.77-2-2.23-2.9-4.53-1.94a3.59,3.59,0,0,0-2.13,4.8l.31.8,2.31-1-.29-.78c-.33-.85-.13-1.47.57-1.76s1.18,0,1.5.79c.72,1.88-.94,4-.05,6.27l2.4,6.24C1060.17,1065.91,1060.94,1066.52,1062.45,1065.89Zm-.49-1.45c-.53.23-.77.08-1-.61s-.17-.91.36-1.13.76-.08,1,.56S1062.49,1064.22,1062,1064.44Z"/><path class="cls-8" d="M1067.45,1063.41l2-.85.51-6.28c0-.33,0-.46.16-.52s.17,0,.27.29l2,5.28,2.32-1-2.55-6.63c-.33-.85-.72-1.3-1.22-1.41a2.05,2.05,0,0,0,.1-2.22c-.67-1.74-1.39-2.11-2.84-1.5s-1.62,1.6-1,3.11c.39,1,.9,1.46,1.5,1.53a1.94,1.94,0,0,0-.22.78l-.38,4.18-2.16-5.62c-.7-1.81-1.49-2.41-3-1.79s-1.65,1.6-1.07,3.11,1.49,1.86,2.45,1.46Zm-3.31-9.43c-.53.22-.76.08-1-.56s-.19-1,.34-1.18.77-.08,1,.61S1064.67,1053.76,1064.14,1054Zm5.33-2.22c-.53.22-.76.08-1-.56s-.19-1,.34-1.18.78-.09,1,.6S1070,1051.54,1069.47,1051.76Z"/><path class="cls-8" d="M1065.15,1048.69l2.25-.94c2-.83,2.34-3.21,1.47-5.48l-.19-.48-1.71.71.16.42c.6,1.56.57,2.42-.4,3a3.27,3.27,0,0,0-.27-1.83c-.51-1.33-1.13-1.69-2.29-1.2s-1.43,1.15-.93,2.46c.44,1.12,1.13,1.52,2,1,0,.41-.24.57-.7.77Zm0-3.26c-.46.19-.65,0-.87-.5s-.16-.78.3-1,.65-.09.87.49S1065.59,1045.23,1065.13,1045.43Z"/><path class="cls-10" d="M1074,1085.37s-7-7.65-7-18.3"/><path class="cls-10" d="M1076.78,1076.81s6.37.12,10.1-4"/><path class="cls-3" d="M1498.85,1140.39s163.58-8,214.82-30c0,0-29.84-147.54-38.67-191.88,0,0,47.68,118.11,60.45,214.78C1735.45,1133.31,1645,1144.89,1498.85,1140.39Z"/></svg>