<svg id="Layer_27" data-name="Layer 27" xmlns="http://www.w3.org/2000/svg" viewBox="0 0 124.36 139.74"><defs><style>.cls-1{fill:#162c53;}</style></defs><title>10</title><path class="cls-1" d="M674.7,1067.7s-5,14.35-20.13,12.46-8.69-8.05-8.69-8.05-11.66,5.21-20.58-.79,9.38-7.73,9.38-7.73-23-2-24-13.57,13.84-6.28,13.84-6.28-20.77-10.31-18.22-21.37,14.22-3.77,14.22-3.77-8.75-8.05-4.74-13.32,12,0,12,0-11-31.9,9.48-26.9c0,0-5-22.59,13-13,0,0-1.35-22.1,15.78-22.1S680.35,968,680.35,968s1.67-11.3,10.78-8,1.12,21.95,1.12,21.95,7.63-10,18-3.83,2.77,24.88,2.77,24.88,2.78-4.31,10.41-4.31,2.77,14.36-5.55,17.71c0,0,19.25-3,1.82,16.59,0,0,7-4.51,10,1.8s-5.23,16.24-17.87,20.14c0,0,10-3.9,10,6s-18.74,9-18.74,9,13.51,4,4.36,10.42S682.82,1081.11,674.7,1067.7Z" transform="translate(-606.04 -943.24)"/></svg>