<svg id="Layer_29" data-name="Layer 29" xmlns="http://www.w3.org/2000/svg" viewBox="0 0 176.39 195.82"><defs><style>.cls-1{fill:#5e867e;}.cls-2{fill:#162c53;}.cls-3{fill:#d75b4d;}.cls-4{fill:#f3b744;}.cls-5{fill:#547d41;}.cls-6{fill:#bad28b;}.cls-7{fill:#4d4032;}.cls-8{fill:#f7d94a;}.cls-9{fill:#b4bd6d;}</style></defs><title>11</title><path class="cls-1" d="M584.42,1046.71s3.31,11.7,11.81,9.81,4.68-6.81,4.68-6.81,6.78,4,11.65-1.1-5.57-6.15-5.57-6.15,13-2.16,13.21-11.7-8.06-4.86-8.06-4.86,11.46-8.93,9.66-18-8.19-2.79-8.19-2.79,4.71-6.81,2.27-11.06-6.83.26-6.83.26,5.25-26.47-6.23-21.91c0,0,4.82-25-6.18-17.77,0,0,.48-16.79-9.23-16.41s-8.5,15.85-8.5,15.85-1.87-5.51-6.93-2.62-.27,25.06-.27,25.06-4.65-8.1-10.35-2.75-.78,20.52-.78,20.52a6.5,6.5,0,0,0-6-3.31c-4.33.17-1.12,11.87,3.71,14.44,0,0-11-2-.5,13.68,0,0-4.1-3.55-5.63,1.71s3.49,13.23,10.78,16.17c0,0-5.81-3-5.49,5.16s10.92,7,10.92,7-7.54,3.58-2.14,8.66S580.24,1057.92,584.42,1046.71Z" transform="translate(-445.59 -938.24)"/><path class="cls-2" d="M589.56,1010.34c-.52-7.45,2.93-11.46,5.08-14.19s2.11-7.15.77-5S590,1001.37,591,994.4c1.18-8.25-1.15-15-1.69-13.43s1.49,3.61.23,13.17-2.13,27.36-3.66,20.7c-2.57-11.12-3.86-30-4.2-34s-2.41-7.05-1.41.12,1.27,12.94-.36,8c-1.13-3.38-5.25-7-4.54-4.79a33.52,33.52,0,0,0,2.06,3.63c8.36,15.56,7.33,56.49,7.33,56.49s-3.42-5.85-7.57-13.09c-3.85-6.7-4.13-16.13-4.13-16.13,3.76,0,1.81-16.33,1-20.78s-2.45-4-2-1.94a62.53,62.53,0,0,1,1.19,15.71c-.26,6.3-1.44,4.34-2.18.94s.18-10.26-1.22-7.31.52,24.5,8.51,36.35c7.71,11.43,6.4,19.76,7.48,35.25s-.69,22.49-.69,22.49c3.29,2.56,5.37.8,5.37.8,2.22-1.43-4-46.44-.56-47.92s3.75-7.8,3.67-12.77,2.31-4.89,3.72-6.21c2.85-2.67,2.62-5.68.08-1.84-1.44,2.17-4.16,1.91-2.81-2.57,1.52-5,.53-11.54-1.63,3.09a51.35,51.35,0,0,0-1,10.29c.08,5.11-2.5,8.93-3.73,6.83s-1.62-17.77-.7-23.42S589.86,1014.65,589.56,1010.34Z" transform="translate(-445.59 -938.24)"/><circle class="cls-3" cx="126.07" cy="126.11" r="3.52"/><path class="cls-2" d="M571.56,1061.77a3.88,3.88,0,0,0,.27-3.3s.41-.5.71.32C573,1059.94,572,1062.42,571.56,1061.77Z" transform="translate(-445.59 -938.24)"/><circle class="cls-3" cx="136.29" cy="24.44" r="3.52"/><path class="cls-2" d="M581.78,960.1a3.88,3.88,0,0,0,.27-3.3s.41-.5.71.32C583.18,958.27,582.22,960.75,581.78,960.1Z" transform="translate(-445.59 -938.24)"/><circle class="cls-3" cx="152.91" cy="95.56" r="3.52"/><path class="cls-2" d="M598.4,1031.22a3.87,3.87,0,0,1-.53-3.27s-.44-.46-.67.38C596.86,1029.51,598,1031.9,598.4,1031.22Z" transform="translate(-445.59 -938.24)"/><circle class="cls-3" cx="160.73" cy="70.45" r="3.52"/><path class="cls-2" d="M606.22,1006.11a3.87,3.87,0,0,0,.27-3.3s.4-.49.7.32C607.62,1004.29,606.65,1006.76,606.22,1006.11Z" transform="translate(-445.59 -938.24)"/><circle class="cls-4" cx="142.1" cy="36.78" r="3.52"/><path class="cls-2" d="M587.6,972.73a3.87,3.87,0,0,0,.27-3.3s.41-.5.71.32C589,970.9,588,973.38,587.6,972.73Z" transform="translate(-445.59 -938.24)"/><circle class="cls-4" cx="158.02" cy="49.67" r="3.52"/><path class="cls-2" d="M603.53,985.62a3.87,3.87,0,0,0,.27-3.3s.4-.49.7.32C604.92,983.8,604,986.27,603.53,985.62Z" transform="translate(-445.59 -938.24)"/><circle class="cls-4" cx="118.43" cy="52.31" r="3.52"/><path class="cls-2" d="M563.93,988.26a3.87,3.87,0,0,0,.27-3.3s.41-.5.71.32C565.33,986.43,564.36,988.91,563.93,988.26Z" transform="translate(-445.59 -938.24)"/><circle class="cls-4" cx="122.68" cy="97.65" r="3.52"/><path class="cls-2" d="M568.19,1033.6a3.87,3.87,0,0,1-.53-3.27s-.44-.46-.67.37C566.65,1031.89,567.81,1034.28,568.19,1033.6Z" transform="translate(-445.59 -938.24)"/><circle class="cls-4" cx="152.57" cy="122.59" r="3.52"/><path class="cls-2" d="M598.08,1058.54a3.87,3.87,0,0,1-.53-3.27s-.44-.46-.67.38C596.54,1056.83,597.7,1059.22,598.08,1058.54Z" transform="translate(-445.59 -938.24)"/><path class="cls-5" d="M504.69,1050.78s21.76,2.47,29.95-12.27-4.35-13-9.58-10.21c0,0,10.8-11.5,3.83-18.47s-13.42,4.53-13.42,4.53,1.92-17.25-12.89-17.25-15.29,14.71-15.29,14.71-3.69-14.19-14.24-13.67-6.37,13.67-6.37,13.67-8.19-4.08-14.29,3.24S455,1028.3,455,1028.3s-9.41-1.86-9.41,7.87,6.8,13,15.17,14.77c0,0-1.57,6.29,19.45.54C480.21,1051.48,507.23,1059.79,504.69,1050.78Z" transform="translate(-445.59 -938.24)"/><path class="cls-6" d="M468.82,1067s-10.6-1.58-8.53-8.81,8.53,0,8.53,0-3.81-10.4,1.64-10.66,5.33,5,5.33,5-.79-6.73,5.39-7.39,3.82,9.52,3.82,9.52a8.39,8.39,0,0,1,9.47-4.78c7,1.31,4.87,9.31-3.42,11.16,0,0,5.66-.51,5.79,3.31s-5.52,5.26-10.52,2a5.12,5.12,0,0,1-6.57.4S476.32,1067.68,468.82,1067Z" transform="translate(-445.59 -938.24)"/><path class="cls-7" d="M490,1133.24s2.78,1.85,5.32,0-1.62-12.65-1.39-49.47-.34-69.76-1.95-69-.41,27.83-.85,49.44S488.25,1131.23,490,1133.24Z" transform="translate(-445.59 -938.24)"/><path class="cls-7" d="M492.4,1081.5s7.13,2.66,10.5-2.65,1.77-12.23,3.72-12.23S509,1088,492.4,1084.08Z" transform="translate(-445.59 -938.24)"/><path class="cls-7" d="M493.29,1073.27s-7.13,2.66-10.5-2.66-1.77-12.23-3.72-12.23-2.38,21.34,14.22,17.47Z" transform="translate(-445.59 -938.24)"/><path class="cls-7" d="M492.74,1038.13" transform="translate(-445.59 -938.24)"/><path class="cls-7" d="M492.4,1036.48s7.13,2.66,10.5-2.66,1.77-12.23,3.72-12.23,2.39,21.34-14.22,17.46Z" transform="translate(-445.59 -938.24)"/><path class="cls-7" d="M491.47,1046.68s-7.13,2.66-10.5-2.66-1.77-12.22-3.72-12.22-2.38,21.33,14.22,17.46Z" transform="translate(-445.59 -938.24)"/><path class="cls-7" d="M491.78,1030s-3.42,1.19-5.07-1.47-1.62-4-2.37-3.52c-.42.27,1.68,7.59,6.77,6.37" transform="translate(-445.59 -938.24)"/><path class="cls-7" d="M505.44,1030s-3.42,1.19-5.07-1.47-1.62-4-2.37-3.52c-.42.27,1.68,7.59,6.77,6.37" transform="translate(-445.59 -938.24)"/><path class="cls-7" d="M480.5,1064s-3.41,1.2-5.06-1.47-1.62-4-2.37-3.51c-.43.27,1.68,7.59,6.76,6.37" transform="translate(-445.59 -938.24)"/><path class="cls-7" d="M493.41,1097.9s-4.34,1.82-6.28-1.31-2-4.47-2.78-3.78,2,8.94,8,7.5" transform="translate(-445.59 -938.24)"/><path class="cls-7" d="M502.27,1036.48s2,1.84,6.26.74,4.05-4.23,5-4.14-.53,5.11-5.93,5.7a10.38,10.38,0,0,1-6.89-1.61" transform="translate(-445.59 -938.24)"/><path class="cls-7" d="M478.86,1042.74s-8.12,3.51-12.68-3.39c0,0-.55-1-1.11-.55s4,9.12,14.28,5.43Z" transform="translate(-445.59 -938.24)"/><path class="cls-1" d="M507.41,1076.32s-14.07,1.33-13.86-6.73,8.3-2.94,8.3-2.94-4.92-6.4,0-8.32,5.56,5.34,5.56,5.34-.47-5.13,5.31-5.66,2.37,7.15,2.37,7.15,5.12-6,9.81-.64-7.28,7.68-7.28,7.68S522.77,1078.3,507.41,1076.32Z" transform="translate(-445.59 -938.24)"/><path class="cls-4" d="M462.63,1040.52c-1.37,4-6.24,5.06-8.24,4.24-3-1.24.4-4,.73-5.41.5-2.22-1.56-7.08,2.41-8C461.33,1030.47,464.52,1035.05,462.63,1040.52Z" transform="translate(-445.59 -938.24)"/><path class="cls-8" d="M530.45,1052.12c-1.37,4-6.25,5.07-8.25,4.24-3-1.24.41-4,.73-5.4.5-2.23-1.55-7.08,2.41-8C529.14,1042.07,532.33,1046.66,530.45,1052.12Z" transform="translate(-445.59 -938.24)"/><path class="cls-8" d="M508.06,1082.3a5.52,5.52,0,0,0,6.44,3.31c2.33-1-.32-3.12-.57-4.22-.39-1.74,1.21-5.53-1.88-6.25S506.59,1078,508.06,1082.3Z" transform="translate(-445.59 -938.24)"/><path class="cls-8" d="M511.2,1043.46a5.5,5.5,0,0,1-5.19,5c-2.52-.24-.61-3.07-.69-4.2-.13-1.77-2.77-4.93,0-6.53S511.36,1039,511.2,1043.46Z" transform="translate(-445.59 -938.24)"/><path class="cls-8" d="M481.7,1072.73a5.5,5.5,0,0,1-5.19,5c-2.52-.25-.61-3.07-.69-4.2-.13-1.77-2.77-4.93,0-6.53S481.86,1068.22,481.7,1072.73Z" transform="translate(-445.59 -938.24)"/><path class="cls-9" d="M543.29,1065.67s-2.64,10.93-10.57,9.49-4.56-6.13-4.56-6.13-6.12,4-10.81-.6,4.93-5.88,4.93-5.88-12.06-1.53-12.63-10.34,7.27-4.78,7.27-4.78-10.91-7.85-9.57-16.27,7.46-2.87,7.46-2.87-4.59-6.12-2.48-10.14,6.31,0,6.31,0-5.8-24.28,5-20.47c0,0-5.37-23,5.06-16.65,0,0-1-15.5,8-15.5s8.42,14.35,8.42,14.35,1.53-5.17,6.31-2.68,1.15,23.16,1.15,23.16,4-7.65,9.47-2.92,1.46,18.94,1.46,18.94a6,6,0,0,1,5.46-3.27c4,0,1.46,10.92-2.91,13.47,0,0,10.11-2.24,1,12.63,0,0,3.66-3.43,5.26,1.37s-2.75,12.36-9.38,15.34c0,0,5.26-3,5.26,4.57s-9.84,6.87-9.84,6.87,7.09,3,2.29,7.93S547.55,1075.88,543.29,1065.67Z" transform="translate(-445.59 -938.24)"/><path class="cls-2" d="M535.67,1036.26c-.11-6.91-3.6-10.34-5.79-12.69s-2.51-6.41-1.1-4.54,5.81,9,4.34,2.64c-1.73-7.51-.11-13.91.52-12.5s-1.1,3.45.81,12.15,4.1,25,5,18.79c1.5-10.45,1.21-28,1.21-31.67s1.67-6.68,1.31,0-.16,12,1,7.4c.78-3.21,4.29-6.9,3.82-4.78a31,31,0,0,1-1.63,3.51c-6.48,15-2.33,52.63-2.33,52.63s2.69-5.65,6-12.65c3-6.47,2.54-15.18,2.54-15.18-3.47.27-2.94-14.92-2.53-19.08s2-3.89,1.67-1.95a57.91,57.91,0,0,0,.14,14.58c.73,5.78,1.66,3.88,2.08.69s-1-9.44.55-6.83,1.44,22.62-5,34.17c-6.22,11.13-4.36,18.71-4.14,33.07s2.4,20.67,2.4,20.67c-2.83,2.61-4.89,1.16-4.89,1.16-2.16-1.15.06-43.12-3.23-44.21s-4.07-6.89-4.38-11.48-2.51-4.33-3.91-5.43c-2.85-2.24-2.86-5-.22-1.69,1.49,1.89,4,1.44,2.39-2.59-1.8-4.53-1.39-10.59,1.74,2.71a48.52,48.52,0,0,1,1.77,9.41c.32,4.72,3,8,4,6s.11-16.5-1.18-21.64S535.73,1040.26,535.67,1036.26Z" transform="translate(-445.59 -938.24)"/><circle class="cls-3" cx="81.6" cy="61.31" r="3.26"/><path class="cls-2" d="M527.19,997.16a3.6,3.6,0,0,0,.37-3s.39-.45.64.32C528.55,995.52,527.57,997.77,527.19,997.16Z" transform="translate(-445.59 -938.24)"/><circle class="cls-3" cx="105.81" cy="140.21" r="3.26"/><path class="cls-2" d="M551.4,1076.07a3.57,3.57,0,0,0,.37-3s.39-.45.64.32C552.76,1074.43,551.78,1076.68,551.4,1076.07Z" transform="translate(-445.59 -938.24)"/><circle class="cls-3" cx="102.55" cy="62.44" r="3.26"/><path class="cls-2" d="M548.15,998.29a3.56,3.56,0,0,1-.37-3s-.39-.44-.64.32C546.79,996.66,547.77,998.91,548.15,998.29Z" transform="translate(-445.59 -938.24)"/><circle class="cls-3" cx="75.25" cy="90.04" r="3.26"/><path class="cls-2" d="M520.84,1025.89a3.57,3.57,0,0,1-.36-3s-.4-.44-.64.32C519.49,1024.25,520.47,1026.51,520.84,1025.89Z" transform="translate(-445.59 -938.24)"/><circle class="cls-4" cx="114.83" cy="113.91" r="3.26"/><path class="cls-2" d="M560.42,1050a3.57,3.57,0,0,0,.37-3s.39-.45.64.32C561.78,1048.4,560.8,1050.65,560.42,1050Z" transform="translate(-445.59 -938.24)"/><circle class="cls-4" cx="74.44" cy="104.45" r="3.26"/><path class="cls-2" d="M520,1040.57a3.6,3.6,0,0,1-.37-3s-.39-.44-.63.32C518.67,1038.94,519.66,1041.19,520,1040.57Z" transform="translate(-445.59 -938.24)"/><circle class="cls-4" cx="115.91" cy="85.63" r="3.26"/><path class="cls-2" d="M561.51,1021.76a3.57,3.57,0,0,1-.37-3s-.39-.45-.64.32C560.15,1020.12,561.13,1022.37,561.51,1021.76Z" transform="translate(-445.59 -938.24)"/><circle class="cls-4" cx="84.85" cy="140.08" r="3.26"/><path class="cls-2" d="M530.45,1076.2a3.6,3.6,0,0,0,.37-3s.39-.44.63.32C531.81,1074.56,530.82,1076.82,530.45,1076.2Z" transform="translate(-445.59 -938.24)"/><circle class="cls-4" cx="94.29" cy="46.95" r="3.26"/><path class="cls-2" d="M539.89,983.07a3.6,3.6,0,0,0,.37-3s.39-.44.64.32C541.25,981.43,540.26,983.69,539.89,983.07Z" transform="translate(-445.59 -938.24)"/></svg>