<svg xmlns="http://www.w3.org/2000/svg" data-name="Layer 30" width="76" height="139"><rect id="backgroundrect" width="100%" height="100%" x="0" y="0" fill="none" stroke="none" class="selected" style=""/><defs><style>.cls-1{fill:#e9eddf;}</style></defs><title>12</title><g class="currentLayer" style=""><title>Layer 1</title><path class="cls-1" d="M-4.0736055326461695,110.79000488281247 s-12.18,9.11 -23.65,-0.880000000000008 S-30.45360553264618,98.3800048828125 -30.45360553264618,98.3800048828125 s-12.58,-2.19 -16.64,-12.14 s12.09,-1.18 12.09,-1.18 S-52.933605532646176,70.59000488281254 -47.39360553264618,60.3800048828125 s15,2.5 15,2.5 s-11.49,-20.14 -3.2,-27.89 s13.9,4.8 13.9,4.8 s-2.7800000000000002,-11.56 3.5,-13.7 s10,6.7 10,6.7 s8.61,-32.63 22.86,-17 c0,0 8.48,-21.52 18.1,-3.54 c0,0 11.21,-19.1 25.42,-9.54 s-1.9300000000000002,28.51 -1.9300000000000002,28.51 s7.69,-8.44 13.43,-0.650000000000009 S58.35639446735382,49.3800048828125 58.35639446735382,49.3800048828125 s11.94,-4.09 17.11,6.88 s-11.58,22.2 -11.58,22.2 s4.7,-2 11,2.23 s-5.71,13.46 -14.48,11.6 c0,0 17.62,8.29 -7.75,14.78 c0,0 8.31,0.15000000000000024 7.32,7.09 s-13.4,10.56 -26.07,6.75 c0,0 10.5,2.35 5,10.58 s-20.58,-3 -20.58,-3 s9,10.85 -2.2,11.07 S-4.8136055326461795,126.46000488281243 -4.0736055326461695,110.79000488281247 z" id="svg_1"/></g></svg>