<svg xmlns="http://www.w3.org/2000/svg" data-name="Layer 31" width="120" height="234" style=""><rect id="backgroundrect" width="100%" height="100%" x="0" y="0" fill="none" stroke="none" class="selected" style=""/><defs><style>.cls-1{fill:#bad28b;}.cls-2{fill:#76a075;}.cls-3{fill:#4d4032;}.cls-4{fill:#f05937;}.cls-5{fill:#96c19c;}.cls-6{fill:#f3b744;}.cls-7{fill:#f7d94a;}</style></defs><title>13</title><g class="currentLayer" style=""><title>Layer 1</title><path class="cls-1" d="M55.157529625892636,129.42091557025913 S40.617529625892644,127.26091557025904 43.49752962589264,117.3309155702591 s11.7,0 11.7,0 s-5.23,-14.26 2.26,-14.620000000000001 s7.3,6.9 7.3,6.9 s-1.08,-9.24 7.4,-10.15 s5.23,13.07 5.23,13.07 a11.53,11.53 0 0 1 13,-6.57 c9.56,1.81 6.68,12.77 -4.69,15.32 c0,0 7.76,-0.7000000000000006 7.94,4.53 s-7.58,7.22 -14.44,2.71 a7,7 0 0 1 -9,0.54 S65.43752962589264,130.3309155702591 55.157529625892636,129.42091557025913 z" id="svg_1"/><path class="cls-2" d="M19.49752962589264,92.35091557025908 S-17.50247037410736,96.54091557025913 -31.50247037410736,71.47091557025908 s7.41,-22.12 16.3,-17.37 c0,0 -18.38,-19.57 -6.52,-31.43 s22.83,7.71 22.83,7.71 S-2.1324703741073634,1.0309155702591397 23.06752962589264,1.0309155702591397 s26,25 26,25 S55.35752962589264,1.92091557025913 73.30752962589264,2.8309155702590942 s10.83,23.25 10.83,23.25 s13.94,-7 24.31,5.51 s-4.44,22.53 -4.44,22.53 s16,-3.17 16,13.39 S108.49752962589264,89.61091557025907 94.21752962589264,92.61091557025907 c0,0 2.67,10.71 -33.09,0.92 C61.127529625892635,93.53091557025914 15.147529625892638,107.67091557025913 19.49752962589264,92.35091557025908 z" id="svg_2"/><path class="cls-3" d="M46.677529625892646,234.54091557025913 s-4.72,3.15 -9.06,0 s2.7600000000000002,-21.51 2.37,-84.15 s0.5900000000000006,-118.7 3.3200000000000003,-117.45 s0.6900000000000068,47.34 1.44,84.12 S49.60752962589264,231.13091557025905 46.677529625892646,234.54091557025913 z" id="svg_3"/><path class="cls-3" d="M41.96752962589264,128.2109155702591 s-12.14,4.53 -17.87,-4.52 s-3,-20.81 -6.33,-20.81 s-4,36.3 24.2,29.72 z" id="svg_4"/><path class="cls-3" d="M40.81752962589263,136.97091557025908 s12.14,4.52 17.86,-4.52 s3,-20.81 6.34,-20.81 s4,36.3 -24.2,29.71 z" id="svg_5"/><path class="cls-3" d="M41.96752962589264,72.73091557025907 " id="svg_6"/><path class="cls-3" d="M42.49752962589264,69.92091557025913 s-12.13,4.53 -17.86,-4.52 s-3,-20.81 -6.34,-20.81 s-4.05,36.3 24.2,29.72 z" id="svg_7"/><path class="cls-3" d="M41.38752962589264,78.68091557025912 s12.14,4.52 17.87,-4.53 s3,-20.8 6.33,-20.8 s4.06,36.3 -24.2,29.71 z" id="svg_8"/><path class="cls-4" d="M42.49752962589264,14.440915570259108 " id="svg_9"/><path class="cls-3" d="M43.59752962589263,45.510915570259044 s5.82,2 8.620000000000001,-2.51 s2.7600000000000002,-6.78 4,-6 c0.7300000000000006,0.46 -2.85,12.91 -11.51,10.83 " id="svg_10"/><path class="cls-3" d="M20.35752962589264,58.900915570259144 s5.82,2 8.620000000000001,-2.51 s2.7600000000000002,-6.79 4,-6 c0.7200000000000006,0.46 -2.8600000000000003,12.91 -11.51,10.83 " id="svg_11"/><path class="cls-3" d="M62.57752962589264,121.17091557025913 s5.82,2 8.620000000000001,-2.51 s2.7600000000000002,-6.79 4,-6 c0.7300000000000006,0.4700000000000003 -2.85,12.92 -11.51,10.84 " id="svg_12"/><path class="cls-3" d="M40.81752962589263,174.42091557025913 s7.39,3.11 10.69,-2.23 s3.4,-7.6 4.73,-6.42 s-3.36,15.2 -13.54,12.75 " id="svg_13"/><path class="cls-3" d="M25.74752962589264,69.93091557025912 s-3.45,3.13 -10.65,1.25 s-6.8900000000000015,-7.2 -8.45,-7 s0.9,8.7 10.09,9.71 A17.65,17.65 0 0 0 28.49752962589264,71.09091557025909 " id="svg_14"/><path class="cls-3" d="M62.83752962589264,71.97091557025908 s13.83,6 21.58,-5.76 c0,0 0.9400000000000006,-1.78 1.8800000000000003,-0.9400000000000006 S79.49752962589264,80.8309155702591 62.01752962589265,74.51091557025904 z" id="svg_15"/><path class="cls-3" d="M21.63752962589264,121.17091557025913 s-5.8100000000000005,2 -8.620000000000001,-2.51 s-2.7600000000000002,-6.79 -4,-6 c-0.7200000000000006,0.4700000000000003 2.8600000000000003,12.92 11.51,10.84 " id="svg_16"/><path class="cls-5" d="M13.327529625892641,116.62091557025906 s-23.95,2.26 -23.59,-11.44 s14.13,-5 14.13,-5 S-4.502470374107361,89.29091557025913 3.8675296258926437,86.02091557025915 s9.46,9.08 9.46,9.08 s-0.81,-8.72 9,-9.63 s4,12.17 4,12.17 s8.7,-10.16 16.69,-1.09 s-12.4,13.06 -12.4,13.06 S39.49752962589264,120.00091557025905 13.327529625892641,116.62091557025906 z" id="svg_17"/><path class="cls-6" d="M-10.36247037410736,89.49091557025906 c-2.34,6.77 -10.63,8.63 -14,7.22 c-5.08,-2.11 0.6900000000000068,-6.79 1.23,-9.19 c0.8600000000000046,-3.79 -2.64,-12.05 4.12,-13.620000000000001 C-12.58247037410736,72.39091557025904 -7.162470374107361,80.2009155702591 -10.36247037410736,89.49091557025906 z" id="svg_18"/><path class="cls-7" d="M107.35752962589265,79.17091557025913 c-2.33,6.77 -10.63,8.620000000000001 -14,7.21 c-5.09,-2.11 0.6800000000000066,-6.78 1.23,-9.19 c0.8600000000000046,-3.7800000000000002 -2.64,-12 4.11,-13.620000000000001 C105.13752962589263,62.0709155702591 110.55752962589264,69.88091557025905 107.35752962589265,79.17091557025913 z" id="svg_19"/><path class="cls-7" d="M62.19752962589264,139.01091557025904 c1.82,5.28 8.3,6.73 11,5.63 c4,-1.6500000000000008 -0.54,-5.3 -1,-7.18 c-0.6700000000000065,-3 2.06,-9.4 -3.21,-10.63 C63.927529625892646,125.66091557025914 59.69752962589264,131.75091557025905 62.19752962589264,139.01091557025904 z" id="svg_20"/><path class="cls-7" d="M80.26752962589264,32.3209155702591 c-0.2,5.59 -6,8.86 -8.83,8.58 c-4.28,-0.4200000000000003 -1,-5.22 -1.17,-7.15 c-0.22000000000000094,-3 -4.71,-8.39 0,-11.1 C74.71752962589264,20.05091557025912 80.54752962589264,24.650915570259144 80.26752962589264,32.3209155702591 z" id="svg_21"/></g></svg>