<svg id="Layer_17" data-name="Layer 17" xmlns="http://www.w3.org/2000/svg" viewBox="0 0 198.85 126.27"><defs><style>.cls-1{fill:#36684d;}.cls-2{fill:#b4bd6d;}.cls-3{fill:#b7ba6e;}.cls-4{fill:#e1dc89;}.cls-5{fill:#5a8f54;}.cls-6{fill:#608157;}.cls-7{fill:#eae160;}.cls-8{fill:#f6efaf;}.cls-9{fill:#bad28b;}.cls-10{fill:#dcd98f;}.cls-11{fill:#76a075;}</style></defs><title>14</title><path class="cls-1" d="M444.45,1161s-5.29-2.94-8.22-1-8,4.7-4.12,11.28.55,9,9.88,10.93,15.09,9.28,15-.68S444.45,1161,444.45,1161Z" transform="translate(-430.7 -1090.73)"/><path class="cls-2" d="M481.33,1156.42c.11-.05,4.34-4.54,7.51-3.46,3.35,1.14,9.08,2,7.43,9.43s2.28,8.73-6,13.47-11.45,13.52-14.49,4S481.33,1156.42,481.33,1156.42Z" transform="translate(-430.7 -1090.73)"/><path class="cls-3" d="M446.16,1158.23q6.31-1.71,12.82-2.93a6.8,6.8,0,0,1,3.54-.69,14,14,0,0,1,4,1c4.9,1.74,10,3.81,12.47,7a15.18,15.18,0,0,0,2.25.45c1.12-2.24.39-6.71-1.45-8.19a8.75,8.75,0,0,0-2.48-1.15l-8.93-3h0l-3.79-1.3a12,12,0,0,0-5.13-.91,9.69,9.69,0,0,0-6.46,3.86A42.12,42.12,0,0,1,446.16,1158.23Z" transform="translate(-430.7 -1090.73)"/><path class="cls-4" d="M456,1174.41a9.15,9.15,0,0,0,2,.14,2.51,2.51,0,0,0,.49-.08.85.85,0,0,0,.22-.09,9.34,9.34,0,0,0,2.08-1.51l4.48-3.94a7.74,7.74,0,0,1,1.5-1.1c1.17-.62,2.71-.79,3.87-1.4a11.34,11.34,0,0,1,1.54-.83l.3-.09a3,3,0,0,1,.51-.08,4.12,4.12,0,0,1,1.78.25h0a.93.93,0,0,1,.8.09,3.79,3.79,0,0,0-2.79-2.31,18,18,0,0,0-5.52-.52,23.3,23.3,0,0,0-4.93.57,12.64,12.64,0,0,0-1.36.43c-3.1,1.21-4.82,3.75-4.55,5.94.17,1.5,1.09,3.1-.23,4.48Z" transform="translate(-430.7 -1090.73)"/><path class="cls-4" d="M458.53,1174.46a1,1,0,0,0,.26-.09,9.58,9.58,0,0,0,2.08-1.51l4.48-3.94a7.74,7.74,0,0,1,1.5-1.1c1.17-.62,2.7-.79,3.87-1.4a10.33,10.33,0,0,1,1.54-.83l.27-.09-.3.09a11.34,11.34,0,0,0-1.54.83c-1.17.62-2.7.79-3.87,1.4a7.85,7.85,0,0,0-1.5,1.1l-4.48,3.94a10,10,0,0,1-2.08,1.52A1.23,1.23,0,0,1,458.53,1174.46Z" transform="translate(-430.7 -1090.73)"/><path class="cls-2" d="M449.83,1181.38c.63,1.4,3.16,1.92,5.47,1.84s4.68-.58,7-.49,4.42.82,6.77.83a17.26,17.26,0,0,0,8.84-2.8c1.23-.72,2.39-1.51,3.48-2.28,2.76-2,5.78-4.5,4.65-6.76-.81-1.64-4.58-3-6.06-4.57a8.37,8.37,0,0,1-1.87,2.21,5,5,0,0,1-2.07,5.24,13.24,13.24,0,0,1-2.71,1.49,22.59,22.59,0,0,1-9.22,1.93c-2.79-.07-7.52-1.72-9.4-3.35a27.09,27.09,0,0,1-4,.48,2.58,2.58,0,0,1,.08,2.53C450.22,1178.92,449.31,1180.23,449.83,1181.38Z" transform="translate(-430.7 -1090.73)"/><path class="cls-5" d="M477.87,1180.76c.33.07.68.11,1,.16a19.68,19.68,0,0,0,5.64.13,12.83,12.83,0,0,0,4.75-1.7h0c1.91-1.17,3.24-2.76,3.46-4.38.19-1.35-.32-2.71.46-4,.4-.69,1.12-1.29,1.6-2,1.39-1.92.66-4-.11-5.88A2.51,2.51,0,0,0,494,1162a2.69,2.69,0,0,0-1.22-.49,8.22,8.22,0,0,0-3.38.29,33.39,33.39,0,0,1-4.79,1.34,15.42,15.42,0,0,1-3.36-.07,15.18,15.18,0,0,1-2.25-.45,7.25,7.25,0,0,1,1.13,2,3.07,3.07,0,0,1-.16,2.52c1.48,1.61,5.25,2.93,6.06,4.57,1.13,2.26-1.89,4.81-4.65,6.76C480.26,1179.25,479.1,1180,477.87,1180.76Z" transform="translate(-430.7 -1090.73)"/><path class="cls-6" d="M442.46,1184.27h0a5.12,5.12,0,0,0,3.08,3.22,20.82,20.82,0,0,0,5,1.17l8.58,1.29c3.75.57,8.44,1,11.38-1.11a6.39,6.39,0,0,0,1.43-1.41c.68-.93,1.09-2,1.67-2.94a9.83,9.83,0,0,1,5.25-3.56c-.34-.05-.69-.09-1-.16a17.26,17.26,0,0,1-8.84,2.8c-2.35,0-4.44-.73-6.77-.83s-4.64.41-7,.49-4.84-.44-5.47-1.84c-.52-1.15.39-2.46.91-3.7a2.58,2.58,0,0,0-.08-2.53,5,5,0,0,1-2.4-.37,9.62,9.62,0,0,1-1.28-1,5.21,5.21,0,0,0-.55-.36c0,.82.08,2.1.06,2.49-.06,1.67-2.2,3.13-3.32,4.72A4.22,4.22,0,0,0,442.46,1184.27Z" transform="translate(-430.7 -1090.73)"/><path class="cls-1" d="M472,1187.42l3.28.08c.72,0,1.44,0,2.17,0,3-.21,5.68-1.63,8.14-3a8.6,8.6,0,0,0,1.72-1.15,4.88,4.88,0,0,0,1.07-1.76l.93-2.25a12.83,12.83,0,0,1-4.75,1.7,19.68,19.68,0,0,1-5.64-.13,9.83,9.83,0,0,0-5.25,3.56C473.06,1185.45,472.65,1186.49,472,1187.42Z" transform="translate(-430.7 -1090.73)"/><path class="cls-7" d="M452.43,1163.6a21.89,21.89,0,0,1,9.92-.09,23.37,23.37,0,0,1,4.93-.57,18.24,18.24,0,0,1,5.52.51c1.41.44,2.56,1.28,2.79,2.32l.11.08a6.68,6.68,0,0,1,2.3,3.23,2.29,2.29,0,0,1,.07.28,8.37,8.37,0,0,0,1.87-2.21,3.07,3.07,0,0,0,.16-2.52,7.25,7.25,0,0,0-1.13-2c-2.47-3.19-7.57-5.26-12.47-7a14,14,0,0,0-4-1,6.8,6.8,0,0,0-3.54.69,3.25,3.25,0,0,0-.61.41c-1,.84-1,1.91-1.4,2.89C456.3,1160.13,454.31,1162.14,452.43,1163.6Z" transform="translate(-430.7 -1090.73)"/><path class="cls-5" d="M439.19,1174.6a24.35,24.35,0,0,0,3.09,1.87h0a6.89,6.89,0,0,1,.69.46,12.93,12.93,0,0,0,1.63,1.24,6.34,6.34,0,0,0,3,.47,33.25,33.25,0,0,0,5.08-.62c.62-.11,1.19-.22,1.69-.33l.26,0c1.67-1.75.52-3.77.29-5.67-.33-2.78,1.84-6,5.76-7.51a15,15,0,0,1,1.72-.55,27.73,27.73,0,0,0-12.55.11,12.73,12.73,0,0,0-3,1.22,16.16,16.16,0,0,1-4.6,2.37,16.27,16.27,0,0,0-1.74.38,3.77,3.77,0,0,0-1.65,1.19A3.67,3.67,0,0,0,439.19,1174.6Z" transform="translate(-430.7 -1090.73)"/><path class="cls-8" d="M475.7,1165.85h0a2.23,2.23,0,0,0-2.47-.56l-.7.21-.3.09a11.34,11.34,0,0,0-1.54.83c-1.17.62-2.7.79-3.87,1.4a7.85,7.85,0,0,0-1.5,1.1l-4.48,3.94a10,10,0,0,1-2.08,1.52,1.23,1.23,0,0,1-.23.08,2.27,2.27,0,0,1-.48.09,8.89,8.89,0,0,1-2-.15l-1.34.27c1.88,1.63,6.62,3.28,9.4,3.35a22.73,22.73,0,0,0,9.22-1.94,12.84,12.84,0,0,0,2.72-1.48,5,5,0,0,0,2.06-5.24,2.29,2.29,0,0,0-.07-.28,6.8,6.8,0,0,0-2.29-3.24Z" transform="translate(-430.7 -1090.73)"/><path class="cls-9" d="M451.22,1153.71s4.8,4.1,7.87,2.53,6-3.94,9.31-3.28,5.93-4.4,2.4-9.31S446.4,1147.94,451.22,1153.71Z" transform="translate(-430.7 -1090.73)"/><path class="cls-10" d="M472.63,1156.38s-1.85-10-10.34-6.93c-6,2.13-7.83-1-11.45-.3s-6.79,6.49-3.87,12.42,8.92,13.16,16.11,9.74S474.81,1160.58,472.63,1156.38Z" transform="translate(-430.7 -1090.73)"/><path class="cls-2" d="M459,1173.78s-5.3,1.94-11.34-2.64-5.49-9.26-4.76-14.68c.46-3.42,2.14-5.77,4.81-6.19s4.71,4.85,6.93,4.5,6.71-2.12,6.78,4.5S464.17,1172.19,459,1173.78Z" transform="translate(-430.7 -1090.73)"/><path class="cls-11" d="M479.32,1169.16a7.86,7.86,0,0,0,6.29-6.23c1.27-6.92-3.74-10.35-4.65-14.83s-8.62-5.22-10.18-1.7-5.15.57-5.49,5.94c-.17,2.65-4.4,2.63-2.13,8.42S479.32,1169.16,479.32,1169.16Z" transform="translate(-430.7 -1090.73)"/><path class="cls-9" d="M469.31,1179.4s11.94-.72,13.05-11-5.2-6.14-6.49-9.61-6-4-8.18-1.81-4.25-.24-7.66,1.41-1.3,7.91-3.81,8.31-4.14.48-2.78,5.58S460.38,1179.44,469.31,1179.4Z" transform="translate(-430.7 -1090.73)"/><path class="cls-2" d="M553.26,1123.11s4.19-3,6.87-1.63,7.27,3.2,4.62,9.16.43,7.68-7.28,10.26-11.87,9.37-12.8.92S553.26,1123.11,553.26,1123.11Z" transform="translate(-430.7 -1090.73)"/><path class="cls-1" d="M521.54,1122.92c-.1,0-4.14-3.42-6.72-2.19s-7.5,2.59-5.35,8.74-1.07,7.63,6.41,10.83,11.06,10.31,12.68,2S521.54,1122.92,521.54,1122.92Z" transform="translate(-430.7 -1090.73)"/><path class="cls-3" d="M551.53,1121c-3.68-.56-7.41-1-11.16-1.21a5.64,5.64,0,0,0-3.06-.23,11.86,11.86,0,0,0-3.28,1.23c-4,2-8.1,4.23-9.88,7.18a11.26,11.26,0,0,1-1.86.61c-1.17-1.79-1-5.65.42-7.09a7.23,7.23,0,0,1,2-1.22l7.27-3.48h0l3.09-1.48a10.21,10.21,0,0,1,4.25-1.28,8.26,8.26,0,0,1,5.87,2.62A36.08,36.08,0,0,0,551.53,1121Z" transform="translate(-430.7 -1090.73)"/><path class="cls-4" d="M544.8,1135.64a7.89,7.89,0,0,1-1.69.33,2.82,2.82,0,0,1-.42,0l-.2,0a8.18,8.18,0,0,1-1.91-1.08l-4.2-2.89a6.37,6.37,0,0,0-1.38-.79c-1-.4-2.37-.4-3.42-.8a9.35,9.35,0,0,0-1.39-.55,1.27,1.27,0,0,0-.26,0,2.2,2.2,0,0,0-.44,0,3.62,3.62,0,0,0-1.49.39h0a.81.81,0,0,0-.67.15,3.27,3.27,0,0,1,2.13-2.24,15.3,15.3,0,0,1,4.63-1,19.39,19.39,0,0,1,4.24,0,8.06,8.06,0,0,1,1.19.23c2.75.71,4.46,2.69,4.46,4.58,0,1.29-.62,2.74.64,3.78Z" transform="translate(-430.7 -1090.73)"/><path class="cls-4" d="M542.66,1135.94a.79.79,0,0,1-.22,0,7.84,7.84,0,0,1-1.91-1.08l-4.2-2.89a6.34,6.34,0,0,0-1.38-.78c-1.05-.41-2.37-.4-3.42-.81a10.54,10.54,0,0,0-1.39-.54l-.24,0,.27,0a8.82,8.82,0,0,1,1.38.55c1.06.4,2.37.39,3.43.8a6.59,6.59,0,0,1,1.38.78l4.19,2.9a8.59,8.59,0,0,0,1.91,1.07Z" transform="translate(-430.7 -1090.73)"/><path class="cls-2" d="M550.74,1140.94c-.4,1.25-2.49,1.94-4.46,2.1s-4,0-5.95.28-3.67,1.14-5.66,1.38a14.73,14.73,0,0,1-7.77-1.49c-1.11-.48-2.18-1-3.18-1.58-2.53-1.38-5.35-3.24-4.62-5.28.52-1.46,3.59-3,4.69-4.47a6.72,6.72,0,0,0,1.8,1.68,4.28,4.28,0,0,0,2.28,4.24,11.12,11.12,0,0,0,2.44,1,19.39,19.39,0,0,0,8,.72,16.18,16.18,0,0,0,7.63-3.78,23.37,23.37,0,0,0,3.45,0,2.17,2.17,0,0,0,.18,2.15C550.16,1138.89,551.06,1139.91,550.74,1140.94Z" transform="translate(-430.7 -1090.73)"/><path class="cls-5" d="M526.9,1143.21c-.28.09-.57.17-.85.24a16.71,16.71,0,0,1-4.77.67,10.87,10.87,0,0,1-4.19-1h0a5.75,5.75,0,0,1-3.37-3.36c-.29-1.13,0-2.34-.79-3.37-.41-.54-1.08-1-1.55-1.5-1.37-1.49-1-3.33-.5-5a2.18,2.18,0,0,1,.51-1,2.12,2.12,0,0,1,1-.54,7,7,0,0,1,2.9-.1,26.87,26.87,0,0,0,4.19.66,12.64,12.64,0,0,0,2.84-.39,11.26,11.26,0,0,0,1.86-.61,6.1,6.1,0,0,0-.75,1.84,2.59,2.59,0,0,0,.39,2.12c-1.1,1.51-4.17,3-4.69,4.47-.73,2,2.09,3.9,4.62,5.28C524.72,1142.17,525.79,1142.73,526.9,1143.21Z" transform="translate(-430.7 -1090.73)"/><path class="cls-6" d="M557.27,1142.65h0a4.37,4.37,0,0,1-2.29,3,17.54,17.54,0,0,1-4.15,1.5l-7.14,2c-3.13.86-7.06,1.64-9.76.19a5.18,5.18,0,0,1-1.35-1c-.67-.72-1.13-1.56-1.72-2.33a8.36,8.36,0,0,0-4.8-2.49c.28-.07.57-.15.85-.24a14.73,14.73,0,0,0,7.77,1.49c2-.24,3.7-1.06,5.66-1.38s4-.11,5.95-.28,4.06-.85,4.46-2.1c.32-1-.58-2-1.15-3a2.17,2.17,0,0,1-.18-2.15,4.42,4.42,0,0,0,2-.55,7.52,7.52,0,0,0,1-1,3.73,3.73,0,0,1,.43-.36c.1.69.15,1.79.2,2.12.22,1.4,2.18,2.43,3.29,3.66A3.6,3.6,0,0,1,557.27,1142.65Z" transform="translate(-430.7 -1090.73)"/><path class="cls-1" d="M532.57,1148.27c-.91.13-2.08.28-2.78.39a15.77,15.77,0,0,1-1.83.22,17.16,17.16,0,0,1-7.21-1.73,7.21,7.21,0,0,1-1.57-.79,4,4,0,0,1-1.08-1.4l-1-1.81a10.87,10.87,0,0,0,4.19,1,16.71,16.71,0,0,0,4.77-.67,8.36,8.36,0,0,1,4.8,2.49C531.44,1146.71,531.9,1147.55,532.57,1148.27Z" transform="translate(-430.7 -1090.73)"/><path class="cls-7" d="M546.75,1126.12a18.72,18.72,0,0,0-8.42.92,18.7,18.7,0,0,0-4.23,0,15.23,15.23,0,0,0-4.63,1,3.29,3.29,0,0,0-2.14,2.24l-.08.08a5.74,5.74,0,0,0-1.62,3,2,2,0,0,0,0,.24,6.72,6.72,0,0,1-1.8-1.68,2.59,2.59,0,0,1-.39-2.12,6.1,6.1,0,0,1,.75-1.84c1.78-3,5.89-5.21,9.88-7.18a11.86,11.86,0,0,1,3.28-1.23,5.64,5.64,0,0,1,3.06.23,2.29,2.29,0,0,1,.56.29c.9.61,1,1.52,1.47,2.31A14,14,0,0,0,546.75,1126.12Z" transform="translate(-430.7 -1090.73)"/><path class="cls-5" d="M559.08,1134.13a19.6,19.6,0,0,1-2.43,1.89h0c-.18.15-.37.3-.53.46a10.35,10.35,0,0,1-1.26,1.21,5.45,5.45,0,0,1-2.52.7,29,29,0,0,1-4.37,0c-.53,0-1-.08-1.46-.12l-.23,0c-1.58-1.31-.81-3.14-.81-4.77,0-2.39-2.15-4.89-5.63-5.8a13,13,0,0,0-1.51-.29,23.62,23.62,0,0,1,10.65-1.16,10.94,10.94,0,0,1,2.65.74,13.94,13.94,0,0,0,4.13,1.55,15.05,15.05,0,0,1,1.52.14,3.36,3.36,0,0,1,1.52.85A3.14,3.14,0,0,1,559.08,1134.13Z" transform="translate(-430.7 -1090.73)"/><path class="cls-8" d="M527.25,1130.35h0a1.92,1.92,0,0,1,2-.72l.61.11.27,0a8.82,8.82,0,0,1,1.38.55c1.06.4,2.37.39,3.43.8a6.59,6.59,0,0,1,1.38.78l4.19,2.9a8.59,8.59,0,0,0,1.91,1.07l.2,0a2,2,0,0,0,.43,0,7.55,7.55,0,0,0,1.71-.32l1.16.09a16.27,16.27,0,0,1-7.63,3.78,19.39,19.39,0,0,1-8-.72,11.41,11.41,0,0,1-2.45-1,4.29,4.29,0,0,1-2.27-4.24l0-.24a5.76,5.76,0,0,1,1.63-3Z" transform="translate(-430.7 -1090.73)"/><path class="cls-9" d="M528.25,1115.13s2.25-4.9,5.18-4.77,6.07.89,8.4-.81,6.17,1.28,5.19,6.35S526.59,1121.33,528.25,1115.13Z" transform="translate(-430.7 -1090.73)"/><path class="cls-10" d="M528.91,1122s.57-8.65,8.07-6.91c5.26,1.21,6.54-1.65,9.68-1.4s6.4,4.82,4.52,10.14-6.25,12.05-12.69,9.87S527.48,1125.8,528.91,1122Z" transform="translate(-430.7 -1090.73)"/><path class="cls-11" d="M542.23,1135.41s4.68,1.12,9.35-3.38,3.73-8.39,2.57-12.91c-.73-2.86-2.39-4.68-4.69-4.78s-3.52,4.59-5.43,4.51-5.91-1.13-5.31,4.49S537.66,1134.58,542.23,1135.41Z" transform="translate(-430.7 -1090.73)"/><path class="cls-2" d="M524.51,1133.52a6.7,6.7,0,0,1-6-4.65c-1.77-5.75,2.13-9.15,2.46-13s6.79-5.29,8.46-2.46,4.42,0,5.25,4.49c.4,2.23,4,1.79,2.65,6.93S524.51,1133.52,524.51,1133.52Z" transform="translate(-430.7 -1090.73)"/><path class="cls-9" d="M534,1141.2s-10.19.59-12.16-8,3.8-5.72,4.54-8.79a4.4,4.4,0,0,1,6.75-2.35c2.1,1.63,3.59-.63,6.64.43s1.9,6.58,4.06,6.67,3.56,0,2.91,4.45S541.59,1140.35,534,1141.2Z" transform="translate(-430.7 -1090.73)"/><path class="cls-1" d="M587.33,1103s-3.58-2.24-5.69-1-5.75,3-3.27,7.72.06,6.29,6.49,8,10.18,7,10.49.06S587.33,1103,587.33,1103Z" transform="translate(-430.7 -1090.73)"/><path class="cls-2" d="M613.19,1101.13c.08,0,3.2-3,5.36-2.14s6.26,1.7,4.84,6.84,1.28,6.16-4.65,9.17-8.46,9-10.24,2.29S613.19,1101.13,613.19,1101.13Z" transform="translate(-430.7 -1090.73)"/><path class="cls-3" d="M588.63,1101.13c3-.65,6-1.17,9-1.58a4.64,4.64,0,0,1,2.49-.35,9.83,9.83,0,0,1,2.74.82c3.36,1.4,6.83,3,8.44,5.33a9,9,0,0,0,1.55.39c.86-1.52.51-4.66-.72-5.75a5.81,5.81,0,0,0-1.68-.89l-6.12-2.45h0l-2.59-1a8.41,8.41,0,0,0-3.54-.82,6.74,6.74,0,0,0-4.64,2.46A30.18,30.18,0,0,1,588.63,1101.13Z" transform="translate(-430.7 -1090.73)"/><path class="cls-4" d="M594.91,1112.75a6.09,6.09,0,0,0,1.39.18,1.87,1.87,0,0,0,.35,0l.16-.05a6.94,6.94,0,0,0,1.5-1c1.09-.86,2.18-1.72,3.26-2.59a5,5,0,0,1,1.09-.71c.83-.39,1.91-.45,2.75-.84a7.93,7.93,0,0,1,1.1-.52l.21,0a1.45,1.45,0,0,1,.35,0,2.89,2.89,0,0,1,1.24.24h0a.62.62,0,0,1,.55.09,2.63,2.63,0,0,0-1.85-1.71,12.35,12.35,0,0,0-3.83-.56,16,16,0,0,0-3.46.22c-.32.07-.65.15-1,.25-2.2.73-3.49,2.44-3.39,4,.07,1.05.65,2.2-.31,3.11Z" transform="translate(-430.7 -1090.73)"/><path class="cls-4" d="M596.67,1112.89l.18-.06a6.94,6.94,0,0,0,1.5-1l3.26-2.58a5.42,5.42,0,0,1,1.09-.72c.83-.39,1.91-.45,2.75-.84a7.93,7.93,0,0,1,1.1-.52l.19,0-.22,0a7.42,7.42,0,0,0-1.1.53c-.83.38-1.91.45-2.74.83a5.42,5.42,0,0,0-1.09.72l-3.26,2.58a6.94,6.94,0,0,1-1.5,1Z" transform="translate(-430.7 -1090.73)"/><path class="cls-2" d="M590.35,1117.39c.39,1,2.14,1.45,3.75,1.48s3.28-.23,4.86-.09,3.06.73,4.69.82a12.07,12.07,0,0,0,6.26-1.63c.88-.46,1.72-1,2.51-1.47,2-1.26,4.19-2.93,3.48-4.55-.5-1.17-3.08-2.22-4.06-3.39a5.65,5.65,0,0,1-1.38,1.47,3.51,3.51,0,0,1-1.63,3.58,8.71,8.71,0,0,1-1.94.93,15.6,15.6,0,0,1-6.5,1,13.28,13.28,0,0,1-6.42-2.67,19,19,0,0,1-2.82.19,1.8,1.8,0,0,1,0,1.77C590.71,1115.69,590,1116.58,590.35,1117.39Z" transform="translate(-430.7 -1090.73)"/><path class="cls-5" d="M609.91,1118l.71.15a13.43,13.43,0,0,0,3.92.28,8.84,8.84,0,0,0,3.37-1h0a4.69,4.69,0,0,0,2.56-2.93c.18-.93-.12-1.9.46-2.78.31-.47.83-.86,1.19-1.31,1-1.29.6-2.77.14-4.1a1.55,1.55,0,0,0-1.3-1.2,5.79,5.79,0,0,0-2.37.08,22.66,22.66,0,0,1-3.38.76,10.47,10.47,0,0,1-2.34-.17,9,9,0,0,1-1.55-.39,4.94,4.94,0,0,1,.71,1.46,2.13,2.13,0,0,1-.2,1.75c1,1.17,3.56,2.22,4.06,3.39.71,1.62-1.49,3.29-3.48,4.55C611.63,1117,610.79,1117.51,609.91,1118Z" transform="translate(-430.7 -1090.73)"/><path class="cls-6" d="M585.12,1119.14h0a3.61,3.61,0,0,0,2,2.35,14.87,14.87,0,0,0,3.46,1l5.94,1.2c2.59.53,5.84,1,8-.36a4.56,4.56,0,0,0,1-.93c.51-.63.84-1.34,1.27-2a6.86,6.86,0,0,1,3.79-2.29l-.71-.15a12.07,12.07,0,0,1-6.26,1.63c-1.63-.09-3.07-.67-4.69-.82s-3.25.12-4.86.09-3.36-.48-3.75-1.48c-.32-.81.36-1.7.77-2.54a1.8,1.8,0,0,0,0-1.77,3.47,3.47,0,0,1-1.65-.34,6.88,6.88,0,0,1-.86-.73,2.51,2.51,0,0,0-.37-.27c0,.57,0,1.47,0,1.74-.1,1.16-1.65,2.1-2.48,3.17A2.9,2.9,0,0,0,585.12,1119.14Z" transform="translate(-430.7 -1090.73)"/><path class="cls-1" d="M605.56,1122.4c.74.06,1.71.11,2.29.17s1,.08,1.5.08a14,14,0,0,0,5.79-1.8,5.88,5.88,0,0,0,1.23-.73,3.15,3.15,0,0,0,.81-1.2c.25-.51.49-1,.73-1.53a8.84,8.84,0,0,1-3.37,1,13.43,13.43,0,0,1-3.92-.28,6.86,6.86,0,0,0-3.79,2.29C606.4,1121.06,606.07,1121.77,605.56,1122.4Z" transform="translate(-430.7 -1090.73)"/><path class="cls-7" d="M592.8,1105.1a15.19,15.19,0,0,1,6.92.29,15.93,15.93,0,0,1,3.45-.22,12.27,12.27,0,0,1,3.83.56,2.64,2.64,0,0,1,1.86,1.71l.08.06a4.7,4.7,0,0,1,1.48,2.33,1.18,1.18,0,0,1,0,.2,5.65,5.65,0,0,0,1.38-1.47,2.13,2.13,0,0,0,.2-1.75,4.94,4.94,0,0,0-.71-1.46c-1.61-2.31-5.08-3.93-8.44-5.33a9.83,9.83,0,0,0-2.74-.82,4.64,4.64,0,0,0-2.49.35,2.13,2.13,0,0,0-.44.26c-.7.55-.73,1.3-1.07,2A11.48,11.48,0,0,1,592.8,1105.1Z" transform="translate(-430.7 -1090.73)"/><path class="cls-5" d="M583.18,1112.29a16.22,16.22,0,0,0,2.09,1.41h0a5.48,5.48,0,0,1,.46.34,9,9,0,0,0,1.09.93,4.5,4.5,0,0,0,2.09.43,23.49,23.49,0,0,0,3.56-.25c.44-.05.84-.11,1.19-.17a1.08,1.08,0,0,0,.19,0c1.22-1.15.49-2.6.4-3.94-.13-1.94,1.5-4.1,4.28-5a8.77,8.77,0,0,1,1.22-.32,19.21,19.21,0,0,0-8.75-.37,8.67,8.67,0,0,0-2.12.74,11.16,11.16,0,0,1-3.29,1.48c-.41.07-.83.09-1.23.2a2.77,2.77,0,0,0-1.19.77A2.57,2.57,0,0,0,583.18,1112.29Z" transform="translate(-430.7 -1090.73)"/><path class="cls-8" d="M608.94,1107.5h0a1.57,1.57,0,0,0-1.71-.48l-.49.12-.22,0a7.42,7.42,0,0,0-1.1.53c-.83.38-1.91.45-2.74.83a5.42,5.42,0,0,0-1.09.72l-3.26,2.58a6.94,6.94,0,0,1-1.5,1l-.16.06-.35,0a6.34,6.34,0,0,1-1.41-.18l-.94.14a13.32,13.32,0,0,0,6.42,2.67,15.77,15.77,0,0,0,6.5-1,8.73,8.73,0,0,0,1.94-.94,3.49,3.49,0,0,0,1.63-3.57,1.18,1.18,0,0,0,0-.2,4.7,4.7,0,0,0-1.48-2.34Z" transform="translate(-430.7 -1090.73)"/><path class="cls-9" d="M592.31,1098.16s3.2,3,5.39,2,4.33-2.52,6.61-2,4.29-2.85,2-6.4S589.16,1094,592.31,1098.16Z" transform="translate(-430.7 -1090.73)"/><path class="cls-10" d="M607.13,1100.79s-.92-7-7-5.2c-4.22,1.27-5.42-1-8-.62s-5,4.28-3.14,8.52,5.75,9.49,10.88,7.36S608.5,1103.8,607.13,1100.79Z" transform="translate(-430.7 -1090.73)"/><path class="cls-2" d="M597,1112.43s-3.76,1.16-7.8-2.25-3.5-6.65-2.8-10.4c.45-2.37,1.71-3.94,3.57-4.15s3.12,3.56,4.68,3.39,4.75-1.24,4.56,3.38S600.68,1111.51,597,1112.43Z" transform="translate(-430.7 -1090.73)"/><path class="cls-11" d="M611.34,1109.93a5.47,5.47,0,0,0,4.6-4.11c1.14-4.78-2.23-7.35-2.7-10.5s-5.82-4-7-1.55-3.62.21-4,3.94c-.22,1.85-3.17,1.67-1.79,5.79S611.34,1109.93,611.34,1109.93Z" transform="translate(-430.7 -1090.73)"/><path class="cls-9" d="M604,1116.71s8.34-.07,9.48-7.19-3.4-4.46-4.17-6.92a3.61,3.61,0,0,0-5.64-1.56c-1.62,1.45-2.95-.31-5.39.71s-1.19,5.47-2.95,5.66-2.9.18-2.14,3.79S597.77,1116.42,604,1116.71Z" transform="translate(-430.7 -1090.73)"/><path class="cls-1" d="M509.54,1187.6s-5.3-2.94-8.22-1-8,4.71-4.12,11.28.55,9,9.87,10.94,15.09,9.28,15-.68S509.54,1187.6,509.54,1187.6Z" transform="translate(-430.7 -1090.73)"/><path class="cls-2" d="M546.41,1183c.11,0,4.35-4.54,7.51-3.46,3.35,1.14,9.08,2,7.43,9.43s2.28,8.73-6,13.47-11.45,13.52-14.48,4S546.41,1183,546.41,1183Z" transform="translate(-430.7 -1090.73)"/><path class="cls-3" d="M511.25,1184.84c4.21-1.14,8.49-2.12,12.81-2.93a6.72,6.72,0,0,1,3.54-.69,14.25,14.25,0,0,1,4,1c4.91,1.75,10,3.82,12.47,7a15.18,15.18,0,0,0,2.25.45c1.12-2.24.39-6.71-1.45-8.19a8.75,8.75,0,0,0-2.48-1.15l-8.93-3h0l-3.79-1.3a12,12,0,0,0-5.13-.91,9.65,9.65,0,0,0-6.46,3.86A42.56,42.56,0,0,1,511.25,1184.84Z" transform="translate(-430.7 -1090.73)"/><path class="cls-4" d="M521.09,1201a8.64,8.64,0,0,0,2,.15,2.39,2.39,0,0,0,.49-.08.92.92,0,0,0,.23-.09,9.28,9.28,0,0,0,2.07-1.51q2.25-2,4.49-3.94a7.45,7.45,0,0,1,1.5-1.1c1.17-.62,2.7-.79,3.87-1.4a10.74,10.74,0,0,1,1.53-.83l.31-.09a2.89,2.89,0,0,1,.5-.08,4.17,4.17,0,0,1,1.79.25h0a.93.93,0,0,1,.8.09,3.82,3.82,0,0,0-2.79-2.32,18.24,18.24,0,0,0-5.52-.51,23.3,23.3,0,0,0-4.93.57,13.39,13.39,0,0,0-1.36.43c-3.1,1.21-4.81,3.75-4.55,5.94.18,1.5,1.09,3.1-.23,4.48Z" transform="translate(-430.7 -1090.73)"/><path class="cls-4" d="M523.62,1201.07a.92.92,0,0,0,.25-.09,9.34,9.34,0,0,0,2.08-1.51l4.48-3.94a7.35,7.35,0,0,1,1.5-1.1c1.17-.62,2.71-.79,3.88-1.41a11.17,11.17,0,0,1,1.53-.82l.27-.09-.3.09a11.22,11.22,0,0,0-1.53.83c-1.17.61-2.71.78-3.88,1.4a8.18,8.18,0,0,0-1.5,1.1c-1.48,1.32-3,2.63-4.48,3.94a9.7,9.7,0,0,1-2.08,1.52Z" transform="translate(-430.7 -1090.73)"/><path class="cls-2" d="M514.91,1208c.63,1.4,3.17,1.92,5.48,1.84s4.67-.58,7-.49,4.42.82,6.77.83a17.26,17.26,0,0,0,8.84-2.8c1.23-.72,2.4-1.51,3.49-2.28,2.75-1.95,5.77-4.5,4.65-6.76-.81-1.64-4.59-3-6.07-4.57a8.33,8.33,0,0,1-1.86,2.21,5,5,0,0,1-2.07,5.24,12.84,12.84,0,0,1-2.72,1.48,22.73,22.73,0,0,1-9.22,1.94c-2.78-.07-7.52-1.72-9.39-3.35a27.23,27.23,0,0,1-4,.48,2.55,2.55,0,0,1,.09,2.53C515.31,1205.52,514.4,1206.84,514.91,1208Z" transform="translate(-430.7 -1090.73)"/><path class="cls-5" d="M543,1207.37l1,.16a19.6,19.6,0,0,0,5.63.13,12.77,12.77,0,0,0,4.75-1.7h0a6.7,6.7,0,0,0,3.45-4.37c.19-1.35-.31-2.71.46-4,.41-.69,1.12-1.3,1.6-2,1.4-1.92.66-4-.1-5.88a2.62,2.62,0,0,0-.73-1.13,2.69,2.69,0,0,0-1.21-.49,8.1,8.1,0,0,0-3.39.29,32,32,0,0,1-4.78,1.33,14.85,14.85,0,0,1-3.37-.06,15.18,15.18,0,0,1-2.25-.45,7,7,0,0,1,1.13,2,3,3,0,0,1-.16,2.52c1.48,1.6,5.26,2.93,6.07,4.57,1.12,2.26-1.9,4.81-4.65,6.76C545.35,1205.86,544.18,1206.65,543,1207.37Z" transform="translate(-430.7 -1090.73)"/><path class="cls-6" d="M507.55,1210.87h0a5.08,5.08,0,0,0,3.08,3.21,20.46,20.46,0,0,0,5,1.18l8.58,1.29c3.75.57,8.44.94,11.38-1.11a6.18,6.18,0,0,0,1.43-1.41c.68-.93,1.1-2,1.68-2.94a9.79,9.79,0,0,1,5.25-3.56l-1-.16a17.26,17.26,0,0,1-8.84,2.8c-2.35,0-4.44-.73-6.77-.83s-4.64.41-7,.49-4.85-.44-5.48-1.84c-.51-1.15.4-2.47.92-3.7a2.55,2.55,0,0,0-.09-2.53,4.94,4.94,0,0,1-2.39-.37,9.93,9.93,0,0,1-1.29-1,4.22,4.22,0,0,0-.54-.36c0,.82.07,2.1.06,2.49-.06,1.67-2.21,3.13-3.33,4.72A4.2,4.2,0,0,0,507.55,1210.87Z" transform="translate(-430.7 -1090.73)"/><path class="cls-1" d="M537.05,1214c1.07,0,2.46,0,3.29.08s1.43.05,2.16,0c3-.21,5.69-1.64,8.14-3a7.68,7.68,0,0,0,1.72-1.14,4.7,4.7,0,0,0,1.07-1.77l.93-2.24a12.77,12.77,0,0,1-4.75,1.7,19.6,19.6,0,0,1-5.63-.13,9.79,9.79,0,0,0-5.25,3.56C538.15,1212.06,537.73,1213.1,537.05,1214Z" transform="translate(-430.7 -1090.73)"/><path class="cls-7" d="M517.52,1190.21a21.88,21.88,0,0,1,9.92-.09,22.66,22.66,0,0,1,4.93-.57,18.27,18.27,0,0,1,5.52.51c1.4.44,2.55,1.28,2.78,2.32l.12.07a6.8,6.8,0,0,1,2.29,3.24c0,.09,0,.18.08.28a8.33,8.33,0,0,0,1.86-2.21,3,3,0,0,0,.16-2.52,7,7,0,0,0-1.13-2c-2.47-3.19-7.56-5.26-12.47-7a14.25,14.25,0,0,0-4-1,6.72,6.72,0,0,0-3.54.69,2.89,2.89,0,0,0-.6.41c-1,.84-1,1.91-1.4,2.89A16.45,16.45,0,0,1,517.52,1190.21Z" transform="translate(-430.7 -1090.73)"/><path class="cls-5" d="M504.27,1201.21a25.08,25.08,0,0,0,3.09,1.87h0a6.24,6.24,0,0,1,.68.46,13.69,13.69,0,0,0,1.63,1.24,6.36,6.36,0,0,0,3,.47,34.89,34.89,0,0,0,5.08-.62c.61-.11,1.18-.22,1.68-.33l.27,0c1.66-1.75.51-3.77.28-5.67-.33-2.78,1.84-6,5.76-7.51a15,15,0,0,1,1.72-.55,27.73,27.73,0,0,0-12.55.11,12.73,12.73,0,0,0-3,1.22,15.83,15.83,0,0,1-4.59,2.36c-.59.14-1.19.19-1.75.38a3.92,3.92,0,0,0-1.65,1.19A3.69,3.69,0,0,0,504.27,1201.21Z" transform="translate(-430.7 -1090.73)"/><path class="cls-8" d="M540.79,1192.45h0a2.26,2.26,0,0,0-2.48-.55l-.7.21-.3.09a11.22,11.22,0,0,0-1.53.83c-1.17.61-2.71.78-3.88,1.4a8.18,8.18,0,0,0-1.5,1.1c-1.48,1.32-3,2.63-4.48,3.94a9.7,9.7,0,0,1-2.08,1.52l-.22.08a2.37,2.37,0,0,1-.49.09,8.89,8.89,0,0,1-2-.15c-.4.09-.84.18-1.33.26,1.87,1.64,6.61,3.29,9.39,3.36a22.77,22.77,0,0,0,9.23-1.94,13,13,0,0,0,2.71-1.48,5,5,0,0,0,2.07-5.24c0-.1,0-.2-.08-.29a6.82,6.82,0,0,0-2.29-3.23Z" transform="translate(-430.7 -1090.73)"/><path class="cls-9" d="M516.31,1180.32s4.8,4.1,7.86,2.52,6-3.93,9.32-3.27,5.93-4.4,2.39-9.31S511.49,1174.55,516.31,1180.32Z" transform="translate(-430.7 -1090.73)"/><path class="cls-10" d="M537.71,1183s-1.84-10-10.34-6.93c-5.94,2.13-7.83-1-11.44-.3s-6.79,6.48-3.88,12.42,8.93,13.16,16.11,9.74S539.9,1187.19,537.71,1183Z" transform="translate(-430.7 -1090.73)"/><path class="cls-2" d="M524.05,1200.39s-5.3,1.94-11.34-2.64-5.49-9.26-4.76-14.68c.46-3.42,2.15-5.77,4.81-6.2s4.72,4.86,6.93,4.51,6.71-2.12,6.79,4.49S529.26,1198.8,524.05,1200.39Z" transform="translate(-430.7 -1090.73)"/><path class="cls-11" d="M544.4,1195.76a7.84,7.84,0,0,0,6.29-6.22c1.27-6.93-3.74-10.35-4.64-14.83s-8.63-5.22-10.18-1.7-5.16.57-5.49,5.94c-.17,2.65-4.41,2.63-2.14,8.42S544.4,1195.76,544.4,1195.76Z" transform="translate(-430.7 -1090.73)"/><path class="cls-9" d="M534.39,1206s11.94-.71,13.05-11-5.2-6.15-6.48-9.61-6-4-8.18-1.81-4.26-.24-7.67,1.4-1.3,7.92-3.81,8.32-4.14.48-2.77,5.58S525.46,1206.05,534.39,1206Z" transform="translate(-430.7 -1090.73)"/><path class="cls-2" d="M615.54,1147.73s4.78-3.44,7.84-1.85,8.28,3.64,5.27,10.43.49,8.77-8.31,11.7-13.53,10.68-14.59,1S615.54,1147.73,615.54,1147.73Z" transform="translate(-430.7 -1090.73)"/><path class="cls-1" d="M579.38,1147.51c-.11,0-4.72-3.89-7.66-2.49-3.1,1.48-8.55,3-6.11,10s-1.21,8.69,7.32,12.34,12.6,11.76,14.46,2.24S579.38,1147.51,579.38,1147.51Z" transform="translate(-430.7 -1090.73)"/><path class="cls-3" d="M613.58,1145.26q-6.32-.94-12.73-1.37a6.45,6.45,0,0,0-3.5-.26,13.6,13.6,0,0,0-3.73,1.4c-4.55,2.24-9.24,4.82-11.26,8.19a14.37,14.37,0,0,1-2.13.69c-1.33-2-1.14-6.44.48-8.08a8.09,8.09,0,0,1,2.26-1.39l8.29-4h0l3.52-1.69a11.71,11.71,0,0,1,4.85-1.46,9.41,9.41,0,0,1,6.69,3A40.36,40.36,0,0,0,613.58,1145.26Z" transform="translate(-430.7 -1090.73)"/><path class="cls-4" d="M605.9,1162a8.88,8.88,0,0,1-1.93.37,2.5,2.5,0,0,1-.48,0l-.23-.06a9.57,9.57,0,0,1-2.18-1.23c-1.6-1.1-3.19-2.19-4.78-3.3a7.53,7.53,0,0,0-1.58-.89c-1.2-.46-2.7-.45-3.9-.92a11.52,11.52,0,0,0-1.58-.62,1,1,0,0,0-.3,0,2.1,2.1,0,0,0-.5,0,4.07,4.07,0,0,0-1.69.44h0a.88.88,0,0,0-.76.18,3.72,3.72,0,0,1,2.43-2.56,17.75,17.75,0,0,1,5.28-1.12,22.29,22.29,0,0,1,4.83,0,10.21,10.21,0,0,1,1.36.26c3.14.82,5.09,3.07,5.08,5.22,0,1.48-.7,3.13.73,4.31Z" transform="translate(-430.7 -1090.73)"/><path class="cls-4" d="M603.46,1162.36a1.22,1.22,0,0,1-.26-.06,9.63,9.63,0,0,1-2.17-1.22l-4.79-3.3a7.48,7.48,0,0,0-1.57-.9c-1.2-.46-2.7-.45-3.9-.91a10.84,10.84,0,0,0-1.58-.63l-.28,0,.31,0a12.09,12.09,0,0,1,1.58.63c1.2.46,2.7.45,3.9.91a8,8,0,0,1,1.57.9l4.79,3.3a8.92,8.92,0,0,0,2.17,1.22A1,1,0,0,0,603.46,1162.36Z" transform="translate(-430.7 -1090.73)"/><path class="cls-2" d="M612.67,1168.06c-.46,1.43-2.84,2.21-5.09,2.4s-4.58,0-6.77.32-4.19,1.29-6.46,1.57a16.88,16.88,0,0,1-8.86-1.7c-1.27-.55-2.49-1.19-3.63-1.81-2.88-1.57-6.1-3.69-5.26-6,.59-1.67,4.09-3.38,5.34-5.1a8,8,0,0,0,2,1.92,4.91,4.91,0,0,0,2.6,4.83,12.92,12.92,0,0,0,2.79,1.13,22,22,0,0,0,9.14.82c2.68-.38,7.07-2.52,8.7-4.31a25.91,25.91,0,0,0,3.94,0,2.49,2.49,0,0,0,.2,2.45C612,1165.72,613,1166.89,612.67,1168.06Z" transform="translate(-430.7 -1090.73)"/><path class="cls-5" d="M585.49,1170.65c-.32.1-.65.19-1,.27a18.87,18.87,0,0,1-5.44.76,12.28,12.28,0,0,1-4.78-1.1h0a6.56,6.56,0,0,1-3.84-3.84c-.33-1.28,0-2.66-.89-3.83-.48-.62-1.24-1.13-1.78-1.71-1.56-1.7-1.09-3.8-.56-5.7a2.46,2.46,0,0,1,.57-1.17,2.7,2.7,0,0,1,1.12-.62,8.09,8.09,0,0,1,3.3-.1,32.33,32.33,0,0,0,4.78.75,15.28,15.28,0,0,0,3.24-.45,14.37,14.37,0,0,0,2.13-.69,6.9,6.9,0,0,0-.86,2.09,3,3,0,0,0,.44,2.42c-1.25,1.72-4.75,3.43-5.34,5.1-.84,2.32,2.38,4.44,5.26,6C583,1169.46,584.22,1170.1,585.49,1170.65Z" transform="translate(-430.7 -1090.73)"/><path class="cls-6" d="M620.11,1170h0a5,5,0,0,1-2.61,3.45,20.18,20.18,0,0,1-4.73,1.71l-8.15,2.23c-3.56,1-8,1.87-11.13.21a5.85,5.85,0,0,1-1.54-1.19c-.77-.83-1.28-1.78-2-2.65a9.56,9.56,0,0,0-5.48-2.85c.32-.08.65-.17,1-.27a16.88,16.88,0,0,0,8.86,1.7c2.27-.28,4.21-1.21,6.46-1.57s4.53-.14,6.77-.32,4.63-1,5.09-2.4c.36-1.17-.67-2.34-1.31-3.48a2.49,2.49,0,0,1-.2-2.45,5,5,0,0,0,2.27-.63,9.76,9.76,0,0,0,1.13-1.09,5,5,0,0,1,.48-.42c.12.8.17,2,.23,2.42.25,1.61,2.49,2.77,3.75,4.18A4.09,4.09,0,0,1,620.11,1170Z" transform="translate(-430.7 -1090.73)"/><path class="cls-1" d="M592,1176.42l-3.17.44a17.81,17.81,0,0,1-2.09.25c-2.92.14-5.68-.93-8.21-2a7.91,7.91,0,0,1-1.79-.91,4.56,4.56,0,0,1-1.23-1.58c-.39-.69-.78-1.38-1.16-2.07a12.28,12.28,0,0,0,4.78,1.1,18.87,18.87,0,0,0,5.44-.76,9.56,9.56,0,0,1,5.48,2.85C590.67,1174.64,591.18,1175.59,592,1176.42Z" transform="translate(-430.7 -1090.73)"/><path class="cls-7" d="M608.12,1151.16a21.33,21.33,0,0,0-9.6,1,22.29,22.29,0,0,0-4.83,0,17.37,17.37,0,0,0-5.27,1.12,3.74,3.74,0,0,0-2.44,2.56.87.87,0,0,1-.1.08,6.6,6.6,0,0,0-1.84,3.39c0,.09,0,.19,0,.28a8,8,0,0,1-2-1.92,3,3,0,0,1-.44-2.42,6.9,6.9,0,0,1,.86-2.09c2-3.37,6.71-6,11.26-8.19a13.6,13.6,0,0,1,3.73-1.4,6.45,6.45,0,0,1,3.5.26,2.86,2.86,0,0,1,.63.32c1,.7,1.15,1.75,1.69,2.64A15.67,15.67,0,0,0,608.12,1151.16Z" transform="translate(-430.7 -1090.73)"/><path class="cls-5" d="M622.18,1160.29a22,22,0,0,1-2.78,2.16h0a7.91,7.91,0,0,0-.61.52,12.58,12.58,0,0,1-1.43,1.39,6.34,6.34,0,0,1-2.87.8,34.49,34.49,0,0,1-5,0c-.61,0-1.18-.08-1.67-.13l-.26,0c-1.81-1.5-.93-3.59-.93-5.45,0-2.72-2.46-5.57-6.42-6.6a12.46,12.46,0,0,0-1.72-.34,27,27,0,0,1,12.14-1.32,12.7,12.7,0,0,1,3,.84,15.59,15.59,0,0,0,4.71,1.76,16.53,16.53,0,0,1,1.74.17,3.67,3.67,0,0,1,1.72,1A3.56,3.56,0,0,1,622.18,1160.29Z" transform="translate(-430.7 -1090.73)"/><path class="cls-8" d="M585.88,1156h0a2.21,2.21,0,0,1,2.34-.81l.69.12.31,0a12.09,12.09,0,0,1,1.58.63c1.2.46,2.7.45,3.9.91a8,8,0,0,1,1.57.9l4.79,3.3a8.92,8.92,0,0,0,2.17,1.22,1,1,0,0,0,.23.06,2.48,2.48,0,0,0,.48,0,9.14,9.14,0,0,0,2-.37l1.32.1c-1.63,1.79-6,3.93-8.7,4.31a22,22,0,0,1-9.14-.82,12.92,12.92,0,0,1-2.79-1.13,4.91,4.91,0,0,1-2.6-4.83c0-.1,0-.19,0-.28a6.62,6.62,0,0,1,1.85-3.39Z" transform="translate(-430.7 -1090.73)"/><path class="cls-9" d="M587,1138.63s2.56-5.58,5.91-5.44,6.92,1,9.57-.92,7,1.46,5.92,7.25S585.13,1145.7,587,1138.63Z" transform="translate(-430.7 -1090.73)"/><path class="cls-10" d="M587.78,1146.49s.65-9.86,9.21-7.88c6,1.38,7.45-1.88,11-1.59s7.3,5.49,5.15,11.56-7.12,13.74-14.46,11.25S586.15,1150.8,587.78,1146.49Z" transform="translate(-430.7 -1090.73)"/><path class="cls-11" d="M603,1161.75s5.35,1.28,10.67-3.85,4.25-9.57,2.93-14.72c-.84-3.26-2.73-5.34-5.35-5.45s-4,5.24-6.2,5.15-6.72-1.29-6,5.11S597.75,1160.81,603,1161.75Z" transform="translate(-430.7 -1090.73)"/><path class="cls-2" d="M582.77,1159.6a7.64,7.64,0,0,1-6.79-5.31c-2-6.55,2.43-10.43,2.8-14.86s7.74-6,9.65-2.8,5.05,0,6,5.11c.47,2.55,4.56,2,3,7.9S582.77,1159.6,582.77,1159.6Z" transform="translate(-430.7 -1090.73)"/><path class="cls-9" d="M593.61,1168.35s-11.62.68-13.87-9.12,4.33-6.53,5.18-10,5.31-4.54,7.7-2.68,4.09-.71,7.57.49,2.16,7.5,4.63,7.6,4.06,0,3.32,5.08S602.24,1167.38,593.61,1168.35Z" transform="translate(-430.7 -1090.73)"/></svg>