<svg id="Layer_18" data-name="Layer 18" xmlns="http://www.w3.org/2000/svg" viewBox="0 0 187.24 120"><defs><style>.cls-1{fill:#f9eed7;}.cls-2{fill:#64a1a0;}.cls-3{fill:#c6d07a;}.cls-4{fill:#406f71;}.cls-5{fill:#92c1b3;}.cls-6{fill:#658269;}.cls-7{fill:#fff;}</style></defs><title>15</title><path class="cls-1" d="M282.2,1180.49s-1.34,10.91-17.17,8.07c-16.68-3-17.18-10.34-16.95-12.25,1.16-9.49,10.06-16.2,19.88-15S283.36,1171,282.2,1180.49Z" transform="translate(-228.95 -1111)"/><path class="cls-2" d="M252.11,1116.29c-1.93,7.37-2.82,15.45.23,22.42.09.21.18.4.28.6h0c2.24,4.73,6.06,8.54,9.22,12.74l0,0a1.56,1.56,0,0,1,.16.2c3.33,4.46,6,10,4.7,15.46-.1.11.09.5.39,1h0c.49.74,1.25,1.57,1.47,1.46a1.11,1.11,0,0,0,.42-1s0,0,0-.06c.12-2.27-.27-4.59.3-6.78a23.82,23.82,0,0,1,2.08-4.54,12.13,12.13,0,0,0,.86-2.11,11.52,11.52,0,0,0-1.62-9,21,21,0,0,0-1.28-1.85h0a55.82,55.82,0,0,0-4.88-5.21c-.39-.37-.77-.75-1.15-1.13C257.22,1132.36,251.43,1124.85,252.11,1116.29Z" transform="translate(-228.95 -1111)"/><path class="cls-3" d="M269.3,1162.35c-.57,2.19-.18,4.51-.3,6.78,0,0,0,0,0,.06,1.77-1.83,4.28-4,6.09-5.61s4.26-2.83,6.62-2.41a63.24,63.24,0,0,1,11.37,11.8c.56.76,1.26,1.62,2.21,1.6a2,2,0,0,0,1.75-1.74,5.94,5.94,0,0,0-.33-2.63c-1.17-4.08-2.52-8.44-5.87-11l-.36-.27c-2.68-1.91-6.1-2.46-9.37-3a23.78,23.78,0,0,0-4.11-.36h0a8.68,8.68,0,0,0-1.91.23,6.51,6.51,0,0,0-1.42.51,11.62,11.62,0,0,0-2.28,1.51A23.82,23.82,0,0,0,269.3,1162.35Z" transform="translate(-228.95 -1111)"/><path class="cls-4" d="M263.31,1138.54c.38.38.76.76,1.15,1.13a55.82,55.82,0,0,1,4.88,5.21h0a21,21,0,0,1,1.28,1.85,11.52,11.52,0,0,1,1.62,9,12.13,12.13,0,0,1-.86,2.11,11.62,11.62,0,0,1,2.28-1.51c.36-3.47,2.93-6.35,4.79-9.36.27-.44.53-.89.76-1.35l0,0a25.82,25.82,0,0,0,2.69-15.81,51.37,51.37,0,0,0-1.22-5.33c-1.05-3.93-2.1-7.88-3.14-11.81a2.4,2.4,0,0,0-.74-1.4c-1.09-.77-2.4.62-3,1.82C269.84,1120.91,265.28,1129.91,263.31,1138.54Z" transform="translate(-228.95 -1111)"/><path class="cls-5" d="M273.66,1156.3a6.51,6.51,0,0,1,1.42-.51,8.68,8.68,0,0,1,1.91-.23h0a23.78,23.78,0,0,1,4.11.36c3.27.5,6.69,1,9.37,3,4.66,0,9.43,0,13.78-1.65a19.3,19.3,0,0,0,11.65-13.33,3.08,3.08,0,0,0-.07-2.14,3.26,3.26,0,0,0-1.28-1.1,19.79,19.79,0,0,0-5.67-2.59c-3.49-.75-7.08.46-10.64.71-2.94.22-6-.21-8.8.57a17.76,17.76,0,0,0-2.84,1.18c-2.81,1.39-6.37,3.6-7.38,5l0,0c-.23.46-.49.91-.76,1.35C276.59,1150,274,1152.83,273.66,1156.3Z" transform="translate(-228.95 -1111)"/><path class="cls-6" d="M229,1151.55c3.64,4.46,9.49,6.55,15.19,7.35a14.45,14.45,0,0,0,6.58-.27c1.33-.45,2.53-1.23,3.86-1.63,2.72-.81,5.51,0,8.13,1.28,1.88,2.25,3.51,7.23,2.24,9.37a1.57,1.57,0,0,0,2.16,1c-.3-.45-.49-.84-.39-1,1.32-5.41-1.37-11-4.7-15.46a1.56,1.56,0,0,0-.16-.2l0,0c-3.16-4.2-7-8-9.22-12.74h0c-2.56-1.28-5.65-1.12-8.53-.9a11.21,11.21,0,0,0-4.19.87,10.4,10.4,0,0,0-2.81,2.32A88.29,88.29,0,0,0,229,1151.55Z" transform="translate(-228.95 -1111)"/><path class="cls-7" d="M277,1156.12a3.27,3.27,0,0,1,1.34-2.14,8.84,8.84,0,0,1,2.29-1.21c1.59-.54,3.09-1,4.64-1.49,3.07-1,6.16-1.84,9.26-2.69s6.2-1.66,9.34-2.39,6.28-1.46,9.53-2a60.8,60.8,0,0,1-8.82,4.2,87.13,87.13,0,0,1-9.25,3.07,90.77,90.77,0,0,1-9.53,2c-1.59.27-3.25.46-4.81.64S277.87,1154.68,277,1156.12Z" transform="translate(-228.95 -1111)"/><path class="cls-7" d="M301.22,1148.32a6.71,6.71,0,0,1-.45-2.59,8.6,8.6,0,0,1,1.38-4.46,6.67,6.67,0,0,1,1.84-1.88,6.51,6.51,0,0,1,.44,2.59,8.47,8.47,0,0,1-.38,2.32,8.2,8.2,0,0,1-1,2.14A6.58,6.58,0,0,1,301.22,1148.32Z" transform="translate(-228.95 -1111)"/><path class="cls-7" d="M293.21,1150.78a5.07,5.07,0,0,1-1.22-2.45,6.84,6.84,0,0,1,0-2.59,6.66,6.66,0,0,1,.94-2.41,5.14,5.14,0,0,1,2-1.86,10.31,10.31,0,0,1,.25,2.59,13.37,13.37,0,0,1-.23,2.23,13.58,13.58,0,0,1-.58,2.16A10.43,10.43,0,0,1,293.21,1150.78Z" transform="translate(-228.95 -1111)"/><path class="cls-7" d="M287.48,1152.15a5.91,5.91,0,0,1-2.3-2.56,8,8,0,0,1-.78-3.33,7.9,7.9,0,0,1,.65-3.36,5.77,5.77,0,0,1,2.21-2.64c.09,1.2.1,2.19.12,3.16l.05,2.78.05,2.78C287.49,1150,287.53,1151,287.48,1152.15Z" transform="translate(-228.95 -1111)"/><path class="cls-7" d="M301.05,1148a4.9,4.9,0,0,1,2.29-.51,5.94,5.94,0,0,1,3.83,1.48,4.87,4.87,0,0,1,1.36,1.92,6.07,6.07,0,0,1-2.3.27,6.75,6.75,0,0,1-3.66-1.42A6.15,6.15,0,0,1,301.05,1148Z" transform="translate(-228.95 -1111)"/><path class="cls-7" d="M293.3,1150.49a21.61,21.61,0,0,1,2.38,1c.67.35,1.29.69,1.89,1s1.2.76,1.82,1.2a20.7,20.7,0,0,1,2,1.62,4.48,4.48,0,0,1-2.77.64,6.06,6.06,0,0,1-4.62-2.81A4.46,4.46,0,0,1,293.3,1150.49Z" transform="translate(-228.95 -1111)"/><path class="cls-7" d="M287.31,1152.1a5.09,5.09,0,0,1,2.28-.07,6.14,6.14,0,0,1,1.85.69A6,6,0,0,1,293,1154a5.33,5.33,0,0,1,1.09,2,5.22,5.22,0,0,1-2.28.06,6,6,0,0,1-1.84-.68,6.27,6.27,0,0,1-1.53-1.26A5.24,5.24,0,0,1,287.31,1152.1Z" transform="translate(-228.95 -1111)"/><path class="cls-7" d="M235.31,1151.58a23.47,23.47,0,0,1,6.23-4.13,28.55,28.55,0,0,1,3.49-1.35c.28-.1.61-.19.93-.28l.91-.24a16.88,16.88,0,0,1,1.93-.35,10.93,10.93,0,0,1,2.07-.06,10.47,10.47,0,0,1,2,.31,12.45,12.45,0,0,1,3.67,1.59,19.31,19.31,0,0,1,5.41,5.24c-2.27-1.08-4.35-2.3-6.5-3.12a12.53,12.53,0,0,0-6.32-1,65.12,65.12,0,0,0-6.82,1.45C240,1150.26,237.74,1151,235.31,1151.58Z" transform="translate(-228.95 -1111)"/><path class="cls-7" d="M251.64,1147a6.54,6.54,0,0,1-2.36-1.11,8.24,8.24,0,0,1-2.84-3.65,6.57,6.57,0,0,1-.48-2.56,6.22,6.22,0,0,1,2.36,1.1,8.13,8.13,0,0,1,1.68,1.63,8.43,8.43,0,0,1,1.16,2A6.49,6.49,0,0,1,251.64,1147Z" transform="translate(-228.95 -1111)"/><path class="cls-7" d="M245.84,1147.5a12.8,12.8,0,0,1-2.71-.8,18.6,18.6,0,0,1-2.24-1.09,19.09,19.09,0,0,1-2.07-1.38,12.68,12.68,0,0,1-2-2,5.83,5.83,0,0,1,3-.26,7.64,7.64,0,0,1,2.67,1,7.52,7.52,0,0,1,2.17,1.84A5.77,5.77,0,0,1,245.84,1147.5Z" transform="translate(-228.95 -1111)"/><path class="cls-7" d="M256.54,1148.4a4.23,4.23,0,0,1,0,2.85,7.28,7.28,0,0,1-1.23,2.34,6.91,6.91,0,0,1-2,1.75,4.16,4.16,0,0,1-2.78.65c.43-.93.7-1.64,1.1-2.34a12.61,12.61,0,0,1,1.27-1.93,13.85,13.85,0,0,1,1.57-1.69C255.12,1149.48,255.75,1149,256.54,1148.4Z" transform="translate(-228.95 -1111)"/><path class="cls-7" d="M246.51,1147a2.76,2.76,0,0,1,.47,2.36,4.51,4.51,0,0,1-1,2,4.42,4.42,0,0,1-1.74,1.26,3.13,3.13,0,0,1-2.36.09,18.22,18.22,0,0,1,.84-1.92,8,8,0,0,1,.95-1.4,8.59,8.59,0,0,1,1.19-1.14C245.35,1147.89,245.84,1147.63,246.51,1147Z" transform="translate(-228.95 -1111)"/><path class="cls-7" d="M269.47,1145.13a35.5,35.5,0,0,1-.18-7.13,53.29,53.29,0,0,1,.82-7,45.9,45.9,0,0,1,1.86-6.87,23.3,23.3,0,0,1,3.31-6.37c-.33,2.39-.64,4.68-1,7s-.75,4.57-1.2,6.84-.84,4.57-1.44,6.82A57.79,57.79,0,0,1,269.47,1145.13Z" transform="translate(-228.95 -1111)"/><path class="cls-7" d="M269.83,1142.31a3.74,3.74,0,0,1,1-1.56,3.24,3.24,0,0,1,1.27-.74,3.41,3.41,0,0,1,1.47-.13,3.8,3.8,0,0,1,1.72.71,3.71,3.71,0,0,1-1,1.57,3.36,3.36,0,0,1-1.27.74,3.59,3.59,0,0,1-1.47.12A3.87,3.87,0,0,1,269.83,1142.31Z" transform="translate(-228.95 -1111)"/><path class="cls-7" d="M271.62,1130.33a3.78,3.78,0,0,1,.56-1.78,3.42,3.42,0,0,1,1-1,3.47,3.47,0,0,1,1.38-.51,1.22,1.22,0,1,1,1.3,2,3.31,3.31,0,0,1-2.41,1.55A3.84,3.84,0,0,1,271.62,1130.33Z" transform="translate(-228.95 -1111)"/><path class="cls-7" d="M270.34,1137.69a6,6,0,0,1,1.3-2,7.23,7.23,0,0,1,1.61-1.24,7.43,7.43,0,0,1,1.85-.73,12.12,12.12,0,0,1,2.25-.29,3.68,3.68,0,0,1-.94,2.28,6,6,0,0,1-1.68,1.39,6.32,6.32,0,0,1-2,.7A5,5,0,0,1,270.34,1137.69Z" transform="translate(-228.95 -1111)"/><path class="cls-1" d="M346.41,1189.72s-2.13,12.19-19.76,8.09c-18.58-4.32-18.73-12.61-18.36-14.75,1.86-10.6,12.25-17.63,23.22-15.72S348.27,1179.12,346.41,1189.72Z" transform="translate(-228.95 -1111)"/><path class="cls-2" d="M316.27,1115.81c-2.59,8.18-4.06,17.2-1,25.22.09.24.17.46.27.69h0c2.25,5.45,6.31,10,9.63,14.86l0,0a2,2,0,0,1,.17.23c3.48,5.21,6.19,11.65,4.39,17.66-.12.11.08.57.38,1.08h0c.51.86,1.32,1.84,1.57,1.72a1.27,1.27,0,0,0,.53-1v-.07c.26-2.54,0-5.18.73-7.61a27.42,27.42,0,0,1,2.59-5,13.61,13.61,0,0,0,1.09-2.32c1.16-3.32.36-7.08-1.31-10.18A21.33,21.33,0,0,0,334,1149h0a60.3,60.3,0,0,0-5.19-6.13l-1.21-1.34C321.09,1134.17,315,1125.39,316.27,1115.81Z" transform="translate(-228.95 -1111)"/><path class="cls-3" d="M333,1168.58c-.77,2.43-.47,5.07-.73,7.61v.07c2.09-2,5-4.2,7.16-6s5-2.93,7.59-2.33a71.13,71.13,0,0,1,12.11,13.92c.58.89,1.32,1.9,2.38,1.93a2.29,2.29,0,0,0,2.08-1.86,6.84,6.84,0,0,0-.23-3c-1.07-4.66-2.35-9.63-5.95-12.76l-.4-.32c-2.91-2.31-6.71-3.13-10.37-3.87a24.85,24.85,0,0,0-4.6-.64h0a9.78,9.78,0,0,0-2.16.15,7.75,7.75,0,0,0-1.62.49,13.62,13.62,0,0,0-2.66,1.57A27.42,27.42,0,0,0,333,1168.58Z" transform="translate(-228.95 -1111)"/><path class="cls-4" d="M327.6,1141.47l1.21,1.34a60.3,60.3,0,0,1,5.19,6.13h0a21.33,21.33,0,0,1,1.32,2.15c1.67,3.1,2.47,6.86,1.31,10.18a13.61,13.61,0,0,1-1.09,2.32,13.62,13.62,0,0,1,2.66-1.57c.6-3.88,3.66-7,5.92-10.25.33-.48.65-1,.94-1.47v0a29.06,29.06,0,0,0,3.94-17.63,59.35,59.35,0,0,0-1.06-6.05q-1.44-6.73-2.86-13.47a2.59,2.59,0,0,0-.75-1.61c-1.18-.93-2.73.56-3.48,1.87C335.94,1122,330.3,1131.88,327.6,1141.47Z" transform="translate(-228.95 -1111)"/><path class="cls-5" d="M338.21,1162a7.75,7.75,0,0,1,1.62-.49,9.78,9.78,0,0,1,2.16-.15h0a24.85,24.85,0,0,1,4.6.64c3.66.74,7.46,1.56,10.37,3.87,5.23.29,10.6.55,15.59-1.07a21.71,21.71,0,0,0,13.86-14.32,3.4,3.4,0,0,0,.05-2.41,3.83,3.83,0,0,0-1.37-1.31,22.13,22.13,0,0,0-6.23-3.23c-3.88-1-8,.1-12,.18-3.33.07-6.69-.58-9.93.14a20.07,20.07,0,0,0-3.27,1.16c-3.24,1.4-7.36,3.68-8.59,5.24v0c-.29.51-.61,1-.94,1.47C341.87,1155.07,338.81,1158.15,338.21,1162Z" transform="translate(-228.95 -1111)"/><path class="cls-6" d="M288.21,1154.12c3.83,5.23,10.29,7.91,16.66,9.14a16,16,0,0,0,7.41.07c1.52-.43,2.91-1.23,4.43-1.6,3.1-.76,6.2.3,9.07,1.9,2,2.64,3.53,8.33,2,10.66a1.75,1.75,0,0,0,2.36,1.29c-.3-.51-.5-1-.38-1.08,1.8-6-.91-12.45-4.39-17.66a2,2,0,0,0-.17-.23l0,0c-3.32-4.91-7.38-9.41-9.63-14.86h0c-2.79-1.59-6.28-1.58-9.53-1.5a12.56,12.56,0,0,0-4.77.74,11.64,11.64,0,0,0-3.29,2.44A98.77,98.77,0,0,0,288.21,1154.12Z" transform="translate(-228.95 -1111)"/><path class="cls-7" d="M342,1162a3.68,3.68,0,0,1,1.64-2.34,10.05,10.05,0,0,1,2.64-1.23c1.81-.51,3.53-1,5.3-1.42,3.52-.88,7-1.7,10.56-2.48s7.07-1.49,10.64-2.16,7.15-1.27,10.84-1.63a69.74,69.74,0,0,1-10.17,4.23,101.49,101.49,0,0,1-10.58,2.9,103.82,103.82,0,0,1-10.82,1.78c-1.81.2-3.68.31-5.45.42a10.08,10.08,0,0,0-2.53.43A3.75,3.75,0,0,0,342,1162Z" transform="translate(-228.95 -1111)"/><path class="cls-7" d="M369.65,1154.64a7.49,7.49,0,0,1-.35-2.93,9.64,9.64,0,0,1,.56-2.59,9.34,9.34,0,0,1,1.25-2.35,7.27,7.27,0,0,1,2.17-2,7.31,7.31,0,0,1,.35,2.93,9.55,9.55,0,0,1-1.82,4.94A7.36,7.36,0,0,1,369.65,1154.64Z" transform="translate(-228.95 -1111)"/><path class="cls-7" d="M360.51,1157a5.85,5.85,0,0,1-1.24-2.83,7.74,7.74,0,0,1,.12-2.92,7.51,7.51,0,0,1,1.2-2.66,5.74,5.74,0,0,1,2.38-2,11.91,11.91,0,0,1,.13,2.92,15.23,15.23,0,0,1-.39,2.49,16.28,16.28,0,0,1-.77,2.4A12.22,12.22,0,0,1,360.51,1157Z" transform="translate(-228.95 -1111)"/><path class="cls-7" d="M354,1158.16a6.6,6.6,0,0,1-2.43-3,9.11,9.11,0,0,1-.69-3.79,9,9,0,0,1,.93-3.74,6.54,6.54,0,0,1,2.63-2.84c0,1.35,0,2.47,0,3.56l-.11,3.13-.1,3.13C354.13,1155.69,354.11,1156.81,354,1158.16Z" transform="translate(-228.95 -1111)"/><path class="cls-7" d="M369.48,1154.29a5.61,5.61,0,0,1,2.61-.44,6.62,6.62,0,0,1,4.22,1.88,5.43,5.43,0,0,1,1.41,2.24,6.59,6.59,0,0,1-2.6.17,7.62,7.62,0,0,1-2.15-.61,7.76,7.76,0,0,1-1.88-1.2A6.77,6.77,0,0,1,369.48,1154.29Z" transform="translate(-228.95 -1111)"/><path class="cls-7" d="M360.63,1156.63a25.09,25.09,0,0,1,2.61,1.32c.74.43,1.41.85,2.07,1.29s1.3.92,2,1.45a22.86,22.86,0,0,1,2.18,1.94,5,5,0,0,1-3.15.56,6.82,6.82,0,0,1-2.92-1.12,6.74,6.74,0,0,1-2.11-2.3A5,5,0,0,1,360.63,1156.63Z" transform="translate(-228.95 -1111)"/><path class="cls-7" d="M353.8,1158.09a5.87,5.87,0,0,1,2.56.06,6.67,6.67,0,0,1,2,.88,6.58,6.58,0,0,1,1.64,1.49,5.8,5.8,0,0,1,1.12,2.31,5.76,5.76,0,0,1-2.57-.06,6.65,6.65,0,0,1-2-.87,6.83,6.83,0,0,1-1.64-1.5A5.86,5.86,0,0,1,353.8,1158.09Z" transform="translate(-228.95 -1111)"/><path class="cls-7" d="M295.35,1154.52a26.49,26.49,0,0,1,7.24-4.29,34.33,34.33,0,0,1,4-1.32c.31-.09.69-.17,1.05-.25l1-.22a21.63,21.63,0,0,1,2.2-.29,12.1,12.1,0,0,1,2.32.06c.39,0,.81.1,1.15.18a11.46,11.46,0,0,1,1.12.28,14.06,14.06,0,0,1,4,2,21.47,21.47,0,0,1,5.78,6.21c-2.48-1.35-4.76-2.84-7.12-3.89a14.27,14.27,0,0,0-7.06-1.43c-.61,0-1.24.11-1.87.2l-1,.15-.95.16c-1.34.22-2.62.46-3.94.73C300.74,1153.31,298.12,1154,295.35,1154.52Z" transform="translate(-228.95 -1111)"/><path class="cls-7" d="M314,1150.29a7.4,7.4,0,0,1-2.59-1.37,9.59,9.59,0,0,1-1.79-1.93,9.11,9.11,0,0,1-1.19-2.35,7.17,7.17,0,0,1-.39-2.9,7.16,7.16,0,0,1,2.59,1.37,9.31,9.31,0,0,1,1.79,1.93,9.11,9.11,0,0,1,1.19,2.35A7.37,7.37,0,0,1,314,1150.29Z" transform="translate(-228.95 -1111)"/><path class="cls-7" d="M307.43,1150.54a14.77,14.77,0,0,1-3-1,22.86,22.86,0,0,1-2.45-1.36,21.9,21.9,0,0,1-2.26-1.67,14.43,14.43,0,0,1-2.19-2.31,6.46,6.46,0,0,1,3.34-.12,8.93,8.93,0,0,1,5.29,3.42A6.53,6.53,0,0,1,307.43,1150.54Z" transform="translate(-228.95 -1111)"/><path class="cls-7" d="M319.41,1152.16a4.69,4.69,0,0,1-.12,3.21,8.22,8.22,0,0,1-3.84,4.42,4.65,4.65,0,0,1-3.15.57c.53-1,.88-1.81,1.36-2.57a15.54,15.54,0,0,1,1.54-2.1,15.93,15.93,0,0,1,1.86-1.81C317.76,1153.3,318.49,1152.84,319.41,1152.16Z" transform="translate(-228.95 -1111)"/><path class="cls-7" d="M308.21,1150.06a3.06,3.06,0,0,1,.39,2.68,5.07,5.07,0,0,1-3.23,3.48,3.6,3.6,0,0,1-2.66,0,19.75,19.75,0,0,1,1.06-2.12,8.09,8.09,0,0,1,1.15-1.52,9.66,9.66,0,0,1,1.4-1.21C306.85,1151,307.43,1150.68,308.21,1150.06Z" transform="translate(-228.95 -1111)"/><path class="cls-7" d="M334.14,1149.23a39.81,39.81,0,0,1,.21-8c.14-1.32.33-2.64.54-4l.33-2,.45-2a52,52,0,0,1,2.49-7.61,26.33,26.33,0,0,1,4.08-7c-.51,2.66-1,5.22-1.52,7.78s-1.11,5.09-1.74,7.62c-.32,1.26-.63,2.53-.94,3.8s-.68,2.53-1.07,3.79A66.1,66.1,0,0,1,334.14,1149.23Z" transform="translate(-228.95 -1111)"/><path class="cls-7" d="M334.7,1146.08a4.37,4.37,0,0,1,1.23-1.7,4,4,0,0,1,1.47-.76,3.69,3.69,0,0,1,1.66,0,4.35,4.35,0,0,1,1.9.89,4.29,4.29,0,0,1-1.23,1.71,3.69,3.69,0,0,1-3.13.8A4.3,4.3,0,0,1,334.7,1146.08Z" transform="translate(-228.95 -1111)"/><path class="cls-7" d="M337.4,1132.72a4.32,4.32,0,0,1,.74-2,3.81,3.81,0,0,1,1.21-1.13,3.76,3.76,0,0,1,1.58-.49,1.37,1.37,0,1,1,1.34,2.33,3.89,3.89,0,0,1-1.21,1.12,3.8,3.8,0,0,1-1.59.49A4.37,4.37,0,0,1,337.4,1132.72Z" transform="translate(-228.95 -1111)"/><path class="cls-7" d="M335.54,1140.92a6.62,6.62,0,0,1,1.58-2.14,8,8,0,0,1,1.88-1.29,8.16,8.16,0,0,1,2.12-.72,15.52,15.52,0,0,1,2.55-.2,4.13,4.13,0,0,1-1.19,2.52,6.82,6.82,0,0,1-2,1.46,7,7,0,0,1-2.31.67A5.8,5.8,0,0,1,335.54,1140.92Z" transform="translate(-228.95 -1111)"/><path class="cls-1" d="M386.23,1219.77s-.24,11-16.29,9.76c-16.91-1.3-18.15-8.57-18.11-10.51.21-9.56,8.4-17.14,18.3-16.92S386.43,1210.21,386.23,1219.77Z" transform="translate(-228.95 -1111)"/><path class="cls-2" d="M349.82,1158.85c-1.17,7.53-1.26,15.66,2.49,22.3.11.2.21.38.33.57h0c2.7,4.49,6.88,7.9,10.46,11.77h0a1.07,1.07,0,0,1,.18.19c3.77,4.11,7,9.4,6.23,14.93-.09.11.14.48.48.9h0c.56.69,1.4,1.44,1.61,1.31a1.13,1.13,0,0,0,.32-1v-.06c-.11-2.27-.74-4.54-.39-6.79a24.94,24.94,0,0,1,1.62-4.73,11.85,11.85,0,0,0,.64-2.18c.58-3.07-.63-6.27-2.51-8.77a21.61,21.61,0,0,0-1.45-1.72h0a53.47,53.47,0,0,0-5.38-4.69c-.42-.33-.84-.68-1.25-1C356.52,1174.34,350,1167.44,349.82,1158.85Z" transform="translate(-228.95 -1111)"/><path class="cls-3" d="M371.56,1203c-.35,2.25.28,4.52.39,6.79v.06c1.58-2,3.87-4.37,5.5-6.2s4-3.24,6.36-3.06a63.09,63.09,0,0,1,12.5,10.61c.64.7,1.42,1.49,2.36,1.38a2,2,0,0,0,1.57-1.92,6,6,0,0,0-.59-2.58c-1.57-4-3.36-8.15-6.95-10.42l-.39-.23c-2.86-1.64-6.32-1.84-9.63-2a22.77,22.77,0,0,0-4.13,0h0a9.3,9.3,0,0,0-1.88.42,7.07,7.07,0,0,0-1.36.65,12.42,12.42,0,0,0-2.12,1.73A24.94,24.94,0,0,0,371.56,1203Z" transform="translate(-228.95 -1111)"/><path class="cls-4" d="M363.22,1179.88c.41.34.83.69,1.25,1a53.47,53.47,0,0,1,5.38,4.69h0a21.61,21.61,0,0,1,1.45,1.72c1.88,2.5,3.09,5.7,2.51,8.77a11.85,11.85,0,0,1-.64,2.18,12.42,12.42,0,0,1,2.12-1.73c0-3.49,2.28-6.61,3.83-9.8.23-.47.44-.93.63-1.42v0a25.87,25.87,0,0,0,1.1-16c-.47-1.77-1.11-3.47-1.75-5.18l-4.32-11.45a2.3,2.3,0,0,0-.87-1.32c-1.16-.66-2.33.86-2.81,2.11C368,1161.67,364.31,1171.09,363.22,1179.88Z" transform="translate(-228.95 -1111)"/><path class="cls-5" d="M375.3,1196.53a7.07,7.07,0,0,1,1.36-.65,9.3,9.3,0,0,1,1.88-.42h0a22.77,22.77,0,0,1,4.13,0c3.31.17,6.77.37,9.63,2,4.64-.44,9.39-.94,13.56-3A19.32,19.32,0,0,0,416.14,1180a3.06,3.06,0,0,0-.29-2.13,3.38,3.38,0,0,0-1.38-1,19.63,19.63,0,0,0-5.9-2c-3.56-.4-7,1.16-10.53,1.77-2.91.51-6,.39-8.71,1.45a18.2,18.2,0,0,0-2.71,1.46c-2.66,1.67-6,4.22-6.85,5.76v0c-.19.49-.4,1-.63,1.42C377.58,1189.92,375.31,1193,375.3,1196.53Z" transform="translate(-228.95 -1111)"/><path class="cls-6" d="M330.3,1196.28c4.06,4.08,10.1,5.58,15.86,5.8a14.43,14.43,0,0,0,6.53-.93c1.27-.58,2.39-1.47,3.68-2,2.62-1.09,5.49-.57,8.22.45,2.1,2.06,4.22,6.85,3.17,9.11a1.57,1.57,0,0,0,2.25.82c-.34-.42-.57-.79-.48-.9.78-5.53-2.46-10.82-6.23-14.93a1.07,1.07,0,0,0-.18-.19h0c-3.58-3.87-7.76-7.28-10.46-11.77h0c-2.67-1-5.73-.55-8.58,0A11.07,11.07,0,0,0,340,1183a10.5,10.5,0,0,0-2.57,2.58A88.93,88.93,0,0,0,330.3,1196.28Z" transform="translate(-228.95 -1111)"/><path class="cls-7" d="M378.61,1196a3.31,3.31,0,0,1,1.06-2.36,9.09,9.09,0,0,1,2.16-1.52c1.52-.77,2.95-1.4,4.43-2.07,2.95-1.3,5.92-2.51,8.92-3.66s6-2.24,9.07-3.25a86.64,86.64,0,0,1,9.43-2.62,53,53,0,0,1-8.26,5.35,76.43,76.43,0,0,1-8.89,4,79.86,79.86,0,0,1-9.31,3c-1.57.38-3.22.72-4.77,1a9.7,9.7,0,0,0-2.17.63A3.27,3.27,0,0,0,378.61,1196Z" transform="translate(-228.95 -1111)"/><path class="cls-7" d="M402,1185.82a6.08,6.08,0,0,1-1-2.58,7,7,0,0,1,.93-4.59,6.09,6.09,0,0,1,1.92-2,6.08,6.08,0,0,1,1,2.58,6.77,6.77,0,0,1-.07,2.38,7,7,0,0,1-.87,2.21A6.15,6.15,0,0,1,402,1185.82Z" transform="translate(-228.95 -1111)"/><path class="cls-7" d="M394.22,1189.08a4.88,4.88,0,0,1-1.75-2.3,6,6,0,0,1-.37-2.63,6.11,6.11,0,0,1,.78-2.53,4.84,4.84,0,0,1,2.11-2,9.62,9.62,0,0,1,.8,2.61,9.77,9.77,0,0,1,.08,2.21,10.23,10.23,0,0,1-.45,2.17A9.44,9.44,0,0,1,394.22,1189.08Z" transform="translate(-228.95 -1111)"/><path class="cls-7" d="M388.65,1191a5.56,5.56,0,0,1-2.82-2.22,7.59,7.59,0,0,1-1.21-3.3,7.42,7.42,0,0,1,.4-3.49,5.52,5.52,0,0,1,2.21-2.82,30.2,30.2,0,0,1,.74,3.18c.17.93.3,1.81.4,2.68s.18,1.76.24,2.71S388.7,1189.73,388.65,1191Z" transform="translate(-228.95 -1111)"/><path class="cls-7" d="M401.75,1185.53a4.83,4.83,0,0,1,2.3-1,5.14,5.14,0,0,1,2.11.12,4.92,4.92,0,0,1,3.33,3,5.77,5.77,0,0,1-2.36.78,5.14,5.14,0,0,1-2-.17,5.3,5.3,0,0,1-1.79-.87A5.78,5.78,0,0,1,401.75,1185.53Z" transform="translate(-228.95 -1111)"/><path class="cls-7" d="M394.28,1188.78a18.38,18.38,0,0,1,2.65.58,14.32,14.32,0,0,1,2,.75,12.76,12.76,0,0,1,1.82,1.06,16.49,16.49,0,0,1,2.12,1.7,4.3,4.3,0,0,1-2.76,1.2,5.72,5.72,0,0,1-5-2.39A4.37,4.37,0,0,1,394.28,1188.78Z" transform="translate(-228.95 -1111)"/><path class="cls-7" d="M388.47,1191a5.28,5.28,0,0,1,2.39-.56,4.82,4.82,0,0,1,3.55,1.59,5.08,5.08,0,0,1,1.17,2.15,5.15,5.15,0,0,1-2.39.56,4.88,4.88,0,0,1-3.54-1.59A5.21,5.21,0,0,1,388.47,1191Z" transform="translate(-228.95 -1111)"/><path class="cls-7" d="M336.63,1195.68a21.11,21.11,0,0,1,5.66-5,26.86,26.86,0,0,1,3.35-1.77c.26-.12.59-.25.9-.38l.89-.34c.61-.21,1.26-.4,1.93-.56a11.81,11.81,0,0,1,2.11-.27c.36,0,.75,0,1.06,0a9.55,9.55,0,0,1,1.05.1,12.6,12.6,0,0,1,3.88,1.3,17.73,17.73,0,0,1,5.8,5c-2.45-.73-4.68-1.65-6.88-2.18a12.9,12.9,0,0,0-6.21-.23c-2.06.49-4.38,1.29-6.6,2S339.07,1194.94,336.63,1195.68Z" transform="translate(-228.95 -1111)"/><path class="cls-7" d="M352.43,1189.46a6.14,6.14,0,0,1-2.67-.66,7,7,0,0,1-1.89-1.4,6.65,6.65,0,0,1-1.3-2,6.13,6.13,0,0,1-.52-2.71,6.1,6.1,0,0,1,2.67.66,6.69,6.69,0,0,1,1.89,1.4,6.84,6.84,0,0,1,1.3,2A6.14,6.14,0,0,1,352.43,1189.46Z" transform="translate(-228.95 -1111)"/><path class="cls-7" d="M346.71,1190.56a10.71,10.71,0,0,1-2.93-.28,12.84,12.84,0,0,1-2.34-.77,12.46,12.46,0,0,1-2.13-1.23,10.91,10.91,0,0,1-2.16-2,5.49,5.49,0,0,1,3-.84,7,7,0,0,1,2.83.63,7.11,7.11,0,0,1,2.34,1.7A5.53,5.53,0,0,1,346.71,1190.56Z" transform="translate(-228.95 -1111)"/><path class="cls-7" d="M357.46,1190.38a4.07,4.07,0,0,1,.58,3,6.48,6.48,0,0,1-.93,2.53,6.4,6.4,0,0,1-1.88,1.93,4.09,4.09,0,0,1-2.93.73,24.88,24.88,0,0,1,.63-2.62,9.34,9.34,0,0,1,1-2.06,9.23,9.23,0,0,1,1.44-1.77A25.31,25.31,0,0,1,357.46,1190.38Z" transform="translate(-228.95 -1111)"/><path class="cls-7" d="M347.33,1190a2.77,2.77,0,0,1,1,2.41,4.18,4.18,0,0,1-2.43,3.58,3.18,3.18,0,0,1-2.55.12,19.28,19.28,0,0,1,.43-2.21,5.41,5.41,0,0,1,.71-1.49,5.29,5.29,0,0,1,1.12-1.15C346,1190.93,346.57,1190.68,347.33,1190Z" transform="translate(-228.95 -1111)"/><path class="cls-7" d="M370,1185.83a29.69,29.69,0,0,1-1.18-7.1,45.61,45.61,0,0,1,0-7.11,41.46,41.46,0,0,1,1.25-7,21.26,21.26,0,0,1,2.95-6.63c.05,2.45.07,4.76,0,7.09s-.21,4.62-.42,6.92-.41,4.62-.84,6.92A45,45,0,0,1,370,1185.83Z" transform="translate(-228.95 -1111)"/><path class="cls-7" d="M370.08,1183a4.1,4.1,0,0,1,.74-1.93,2.77,2.77,0,0,1,2.64-1.14,1.49,1.49,0,0,1,1.17,2.74,2.76,2.76,0,0,1-1.16.93,2.83,2.83,0,0,1-1.49.19A4.16,4.16,0,0,1,370.08,1183Z" transform="translate(-228.95 -1111)"/><path class="cls-7" d="M370.66,1170.87a4.21,4.21,0,0,1,.2-2,2.92,2.92,0,0,1,.87-1.22,2.89,2.89,0,0,1,1.37-.58,4.1,4.1,0,0,1,2,.27,4.15,4.15,0,0,1-.19,2.06,2.72,2.72,0,0,1-2.25,1.78A4.09,4.09,0,0,1,370.66,1170.87Z" transform="translate(-228.95 -1111)"/><path class="cls-7" d="M370.13,1178.33a5.76,5.76,0,0,1,.94-2.33,5.64,5.64,0,0,1,1.43-1.45,5.46,5.46,0,0,1,1.79-.84,12.88,12.88,0,0,1,2.4-.29,3.69,3.69,0,0,1-.53,2.6,5.13,5.13,0,0,1-1.5,1.63,5.37,5.37,0,0,1-2,.84A5,5,0,0,1,370.13,1178.33Z" transform="translate(-228.95 -1111)"/><path class="cls-1" d="M312.91,1219.22s.74,11.64-16.33,11.78c-18,.14-19.94-7.42-20.07-9.47-.65-10.12,7.32-18.86,17.8-19.53S312.26,1209.1,312.91,1219.22Z" transform="translate(-228.95 -1111)"/><path class="cls-2" d="M269,1158.15c-.56,8.06.08,16.66,4.64,23.33.13.2.26.39.4.58h0c3.26,4.49,8,7.72,12.11,11.48h0l.21.18c4.35,4,8.25,9.31,7.93,15.21-.09.13.19.51.59.91h0c.65.68,1.61,1.4,1.81,1.24a1.2,1.2,0,0,0,.26-1.08.2.2,0,0,1,0-.07c-.33-2.39-1.19-4.73-1-7.13a25.27,25.27,0,0,1,1.28-5.14,12.83,12.83,0,0,0,.48-2.36c.33-3.31-1.23-6.57-3.44-9-.54-.6-1.1-1.15-1.69-1.69h0a58.71,58.71,0,0,0-6.11-4.47l-1.41-1C277.44,1173.91,269.93,1167.2,269,1158.15Z" transform="translate(-228.95 -1111)"/><path class="cls-3" d="M295.91,1202.82c-.17,2.4.69,4.74,1,7.13a.2.2,0,0,0,0,.07c1.49-2.26,3.68-5,5.24-7s3.9-3.79,6.45-3.82a67.49,67.49,0,0,1,14.16,10.08c.73.69,1.63,1.45,2.62,1.25a2.16,2.16,0,0,0,1.48-2.17,6.35,6.35,0,0,0-.86-2.67c-2-4-4.28-8.31-8.28-10.38l-.43-.2c-3.17-1.48-6.84-1.39-10.35-1.26a23.44,23.44,0,0,0-4.36.43h0a9,9,0,0,0-2,.61,6.77,6.77,0,0,0-1.37.81,12.22,12.22,0,0,0-2.09,2A25.27,25.27,0,0,0,295.91,1202.82Z" transform="translate(-228.95 -1111)"/><path class="cls-4" d="M285,1179.16l1.41,1a58.71,58.71,0,0,1,6.11,4.47h0c.59.54,1.15,1.09,1.69,1.69,2.21,2.47,3.77,5.73,3.44,9a12.83,12.83,0,0,1-.48,2.36,12.22,12.22,0,0,1,2.09-2c-.31-3.69,1.81-7.19,3.16-10.7.19-.51.37-1,.53-1.56v0a27.35,27.35,0,0,0-.29-17,54.43,54.43,0,0,0-2.31-5.32l-5.59-11.71a2.57,2.57,0,0,0-1-1.31c-1.29-.59-2.38,1.12-2.78,2.49C288.36,1159.49,285.37,1169.78,285,1179.16Z" transform="translate(-228.95 -1111)"/><path class="cls-5" d="M299.28,1195.66a6.77,6.77,0,0,1,1.37-.81,9,9,0,0,1,2-.61h0a23.44,23.44,0,0,1,4.36-.43c3.51-.13,7.18-.22,10.35,1.26,4.86-.89,9.84-1.84,14.05-4.43a20.45,20.45,0,0,0,9.54-16.18,3.21,3.21,0,0,0-.49-2.22,3.55,3.55,0,0,0-1.55-.9,20.85,20.85,0,0,0-6.41-1.58c-3.8-.1-7.3,1.85-11,2.81-3,.81-6.26,1-9.07,2.32a18.33,18.33,0,0,0-2.74,1.79c-2.66,2-5.93,5-6.71,6.7v0c-.16.53-.34,1-.53,1.56C301.09,1188.47,299,1192,299.28,1195.66Z" transform="translate(-228.95 -1111)"/><path class="cls-6" d="M251.71,1199.45c4.67,4,11.18,5,17.28,4.7a15.24,15.24,0,0,0,6.81-1.58c1.3-.72,2.4-1.77,3.71-2.45,2.67-1.37,5.75-1.08,8.73-.26,2.4,2,5.07,6.86,4.17,9.34a1.66,1.66,0,0,0,2.45.66c-.4-.4-.68-.78-.59-.91.32-5.9-3.58-11.2-7.93-15.21l-.21-.18h0c-4.13-3.76-8.85-7-12.11-11.48h0c-2.91-.84-6.1-.06-9.07.73a11.61,11.61,0,0,0-4.2,1.73,11.11,11.11,0,0,0-2.48,3A93.75,93.75,0,0,0,251.71,1199.45Z" transform="translate(-228.95 -1111)"/><path class="cls-7" d="M302.72,1194.82a3.5,3.5,0,0,1,1-2.49,9.42,9.42,0,0,1,2.15-1.7c1.55-.88,3-1.67,4.55-2.46,3-1.6,6.07-3.12,9.13-4.61s6.15-2.94,9.27-4.33,6.27-2.76,9.56-3.92a64.65,64.65,0,0,1-8.4,6.1,97.46,97.46,0,0,1-18.57,9c-1.61.59-3.3,1.11-4.9,1.61a9.55,9.55,0,0,0-2.22,1A3.49,3.49,0,0,0,302.72,1194.82Z" transform="translate(-228.95 -1111)"/><path class="cls-7" d="M326.45,1181.94a6.9,6.9,0,0,1-.94-2.6,9.14,9.14,0,0,1-.06-2.5,9.54,9.54,0,0,1,.62-2.43,7.24,7.24,0,0,1,1.52-2.32,6.86,6.86,0,0,1,1,2.61,8.75,8.75,0,0,1,0,2.5,9.08,9.08,0,0,1-.62,2.42A6.88,6.88,0,0,1,326.45,1181.94Z" transform="translate(-228.95 -1111)"/><path class="cls-7" d="M318.59,1186.08a5.44,5.44,0,0,1-1.74-2.32,7.36,7.36,0,0,1-.53-2.69,7.15,7.15,0,0,1,.51-2.7,5.35,5.35,0,0,1,1.72-2.34,11.39,11.39,0,0,1,.74,2.65,15.76,15.76,0,0,1,0,4.75A11.63,11.63,0,0,1,318.59,1186.08Z" transform="translate(-228.95 -1111)"/><path class="cls-7" d="M312.87,1188.63a6.25,6.25,0,0,1-2.87-2.24,8.59,8.59,0,0,1-1.47-3.31,8.5,8.5,0,0,1,0-3.62,6.2,6.2,0,0,1,1.75-3.19c.33,1.23.53,2.27.73,3.27l.59,2.9.61,2.89C312.45,1186.34,312.68,1187.37,312.87,1188.63Z" transform="translate(-228.95 -1111)"/><path class="cls-7" d="M326.22,1181.65a5.2,5.2,0,0,1,2.29-1,6.3,6.3,0,0,1,2.21,0,6.19,6.19,0,0,1,2.07.77,5.11,5.11,0,0,1,1.79,1.72,6.24,6.24,0,0,1-2.34.7,7,7,0,0,1-2.1-.08,7.45,7.45,0,0,1-2-.68A6.25,6.25,0,0,1,326.22,1181.65Z" transform="translate(-228.95 -1111)"/><path class="cls-7" d="M318.63,1185.76a23.63,23.63,0,0,1,2.66.65c.78.23,1.49.47,2.19.73s1.4.55,2.13.89a20.71,20.71,0,0,1,2.43,1.27,4.69,4.69,0,0,1-2.76,1.19,6.53,6.53,0,0,1-5.36-2A4.76,4.76,0,0,1,318.63,1185.76Z" transform="translate(-228.95 -1111)"/><path class="cls-7" d="M312.69,1188.6a5.6,5.6,0,0,1,2.35-.49,6.65,6.65,0,0,1,2.06.36,6.13,6.13,0,0,1,1.84,1,5.47,5.47,0,0,1,1.54,1.85,5.54,5.54,0,0,1-2.36.5,6.65,6.65,0,0,1-2.06-.36,6.34,6.34,0,0,1-1.83-1A5.36,5.36,0,0,1,312.69,1188.6Z" transform="translate(-228.95 -1111)"/><path class="cls-7" d="M258.35,1198.24a25.06,25.06,0,0,1,5.7-5.51,30.13,30.13,0,0,1,3.38-2.09c.27-.15.59-.31.91-.47l.9-.42a18.78,18.78,0,0,1,1.95-.75,11.29,11.29,0,0,1,2.14-.47,12.12,12.12,0,0,1,2.17-.07,13.74,13.74,0,0,1,4.13.93,20.55,20.55,0,0,1,6.68,4.4c-2.57-.7-5-1.57-7.38-2a13.43,13.43,0,0,0-6.8.24,69,69,0,0,0-6.83,2.85C263,1195.93,260.75,1197.11,258.35,1198.24Z" transform="translate(-228.95 -1111)"/><path class="cls-7" d="M274.48,1190.25a6.9,6.9,0,0,1-2.66-.7,9.24,9.24,0,0,1-3.68-3.26,7,7,0,0,1-1-2.56,6.85,6.85,0,0,1,2.66.7,9,9,0,0,1,3.68,3.27A6.92,6.92,0,0,1,274.48,1190.25Z" transform="translate(-228.95 -1111)"/><path class="cls-7" d="M268.54,1191.93a13.92,13.92,0,0,1-3-.33,20.31,20.31,0,0,1-2.55-.71,19.54,19.54,0,0,1-2.44-1,13.33,13.33,0,0,1-2.52-1.61,6.16,6.16,0,0,1,3-.82,8.14,8.14,0,0,1,3,.48,8.4,8.4,0,0,1,2.62,1.48A6.37,6.37,0,0,1,268.54,1191.93Z" transform="translate(-228.95 -1111)"/><path class="cls-7" d="M279.87,1190.77a4.36,4.36,0,0,1,.57,3,7.41,7.41,0,0,1-.82,2.68,7.6,7.6,0,0,1-1.71,2.22,4.44,4.44,0,0,1-2.75,1.23c.27-1,.43-1.84.7-2.65a14.61,14.61,0,0,1,1-2.26,15.28,15.28,0,0,1,1.3-2.08C278.62,1192.17,279.18,1191.59,279.87,1190.77Z" transform="translate(-228.95 -1111)"/><path class="cls-7" d="M269.14,1191.32a2.86,2.86,0,0,1,.93,2.36,4.69,4.69,0,0,1-.63,2.23,4.76,4.76,0,0,1-1.56,1.66,3.34,3.34,0,0,1-2.42.57A20.69,20.69,0,0,1,266,1196a8.86,8.86,0,0,1,1.75-3.07C268.11,1192.43,268.57,1192.05,269.14,1191.32Z" transform="translate(-228.95 -1111)"/><path class="cls-7" d="M292.72,1184.83a38.41,38.41,0,0,1-1.56-7.4c-.16-1.25-.28-2.5-.38-3.75l-.12-1.87,0-1.88a48.76,48.76,0,0,1,.59-7.52,25.27,25.27,0,0,1,2.18-7.3c.11,2.55.24,5,.3,7.47s.11,4.91.09,7.37c0,1.23,0,2.46,0,3.69s0,2.47-.13,3.71A65,65,0,0,1,292.72,1184.83Z" transform="translate(-228.95 -1111)"/><path class="cls-7" d="M292.54,1181.82a3.94,3.94,0,0,1,.76-1.81,3.67,3.67,0,0,1,1.18-1,3.72,3.72,0,0,1,1.5-.42,4.1,4.1,0,0,1,1.93.38,4,4,0,0,1-.76,1.82,3.52,3.52,0,0,1-1.18,1,3.73,3.73,0,0,1-1.51.42A4.06,4.06,0,0,1,292.54,1181.82Z" transform="translate(-228.95 -1111)"/><path class="cls-7" d="M292.06,1169a4.06,4.06,0,0,1,.25-1.94,3.56,3.56,0,0,1,2.21-2.1,3.91,3.91,0,0,1,2-.15,4.1,4.1,0,0,1-.25,2,3.5,3.5,0,0,1-.87,1.29,3.6,3.6,0,0,1-1.34.8A3.92,3.92,0,0,1,292.06,1169Z" transform="translate(-228.95 -1111)"/><path class="cls-7" d="M292.17,1176.9a6.44,6.44,0,0,1,1-2.29,8,8,0,0,1,3.23-2.73,15.79,15.79,0,0,1,2.27-.76,3.92,3.92,0,0,1-.55,2.56,6.48,6.48,0,0,1-1.47,1.76,6.69,6.69,0,0,1-2,1.13A5.53,5.53,0,0,1,292.17,1176.9Z" transform="translate(-228.95 -1111)"/></svg>