<svg id="Layer_19" data-name="Layer 19" xmlns="http://www.w3.org/2000/svg" viewBox="0 0 85.74 176.61"><defs><style>.cls-1{fill:#2f4a3d;}.cls-2{fill:#5e867e;}.cls-3{fill:#478971;}.cls-4{fill:#dcd98f;}.cls-5{fill:#547d41;}</style></defs><title>16</title><path class="cls-1" d="M189.21,1192s14.37-60.17,4-61.84-2.77,17.8-10.36,18,11.61-43.13,2.63-50.81-4,11.36-9.32,11.36,7-46.8-9.69-46.8-16.73,25.4,0,47.8c0,0-7.36-6.68-10-2.67s2,25.74,15,40.78-9.36-1.67-11,8.36S189.21,1192,189.21,1192Z" transform="translate(-139.8 -1061.93)"/><path class="cls-2" d="M194.75,1201.09s-12.72-20.14-16-56.42S164.48,1096,163.53,1077c0,0-1.36,8.71,3.21,20.54,6.51,16.88,9.69,35.77,10.55,50C178.38,1165.58,184.1,1202.82,194.75,1201.09Z" transform="translate(-139.8 -1061.93)"/><path class="cls-3" d="M185.49,1238.55s-6.16-24.07-5-41.42,3.36-34.69-5-25.18c0,0,3.08-26.9-3.68-30s-4.91,5.83-7.37,5.83-2.15-37.15-17.8-35.92-.31,30.7,7.67,37.76-8.29-5.22-11.05,1.23,13.51,24.56,20.88,27.33-6.76-2.77-7.68,1.84.74,8.85,12.8,22.07S185.49,1238.55,185.49,1238.55Z" transform="translate(-139.8 -1061.93)"/><path class="cls-4" d="M183.14,1227.21s5.2-13.57-10-40.33-14.08-34.05-19.18-56c0,0,3.13,9.46,4.78,17.54,3.06,15,10.54,29.5,16.79,39.76C183.46,1201.21,191.37,1223.27,183.14,1227.21Z" transform="translate(-139.8 -1061.93)"/><path class="cls-5" d="M185.49,1238.55s2.84-27.34,16.37-40.87,8-18.7,2-17.9,13.53-7.17,16.32-19.9-4.78-11.54-9.55-9.15,6-15.92,10.15-27.46,11-37-7.37-40.59c-8-1.56-23.87,1.19-16.71,51.33s2,0-7.56,1.59,2.39,35,0,35.42-3.39-7.63-8.36-5.57S178.47,1229,185.49,1238.55Z" transform="translate(-139.8 -1061.93)"/><path class="cls-4" d="M185.49,1238.55s-2.59-23.68,10.38-57.72,10.32-42.36,12.32-69c0,0-2,11.63-2.43,21.38-.87,18.07-7,36.39-12.45,49.52C186.37,1199.46,175.16,1235.43,185.49,1238.55Z" transform="translate(-139.8 -1061.93)"/></svg>