<svg xmlns="http://www.w3.org/2000/svg" data-name="Layer 21" width="140" height="207"><rect id="backgroundrect" width="100%" height="100%" x="0" y="0" fill="none" stroke="none" class="selected" style=""/><defs><style>.cls-1{fill:#162c53;}</style></defs><title>17</title><g class="currentLayer" style=""><title>Layer 1</title><path class="cls-1" d="M55.798248648643494,186.07814784763053 s-7.49,21.455864197015764 -29.94,18.631930782794953 s-12.93,-12.059502124786377 -12.93,-12.059502124786377 s-17.35,7.778378870487213 -30.62,-1.1758014571666717 s14,-11.557022869586945 14,-11.557022869586945 s-34.15,-3.0148755311965942 -35.78,-20.300161910057067 s20.6,-9.396362072229385 20.6,-9.396362072229385 s-30.9,-15.406013964414596 -27.11,-31.94763104557991 s21.15,-5.637817243337632 21.15,-5.637817243337632 s-13,-12.059502124786377 -7,-19.9182776761055 s17.89,0 17.89,0 s-16.45,-47.685281318426135 14.1,-40.19834041595459 c0,0 -7.4,-33.76660594940186 19.4,-19.48614551663399 c0,0 -2,-33.04303582191468 23.47,-33.04303582191468 s21.28,36.99252276778221 21.28,36.99252276778221 s2.49,-16.893352559804914 16,-11.999204614162444 s1.6700000000000008,32.80184577941895 1.6700000000000008,32.80184577941895 s11.35,-15.074377655982971 26.83,-5.71821392416954 s4.13,37.183464884757996 4.13,37.183464884757996 s4.13,-6.431734466552735 15.48,-6.431734466552735 s4.13,21.455864197015764 -8.25,26.4706071639061 c0,0 28.64,-4.411767860651016 2.71,24.80237603664398 c0,0 10.37,-6.743271604776383 14.91,2.693288807868958 s-7.78,24.269748026132582 -26.58,30.148755311965942 c0,0 14.91,-5.848858530521393 14.91,8.98432908296585 s-27.88,13.486543209552766 -27.88,13.486543209552766 s20.1,5.969453551769257 6.48,15.566807326078415 S67.7982486486435,206.12707013008793 55.798248648643494,186.07814784763053 z" id="svg_1"/></g></svg>