<svg xmlns="http://www.w3.org/2000/svg" data-name="Layer 39" width="93" height="203"><rect id="backgroundrect" width="100%" height="100%" x="0" y="0" fill="none" stroke="none" class="selected" style=""/><defs><style>.cls-1{fill:#2f4a3d;}.cls-2{fill:#5e867e;}.cls-3{fill:#478971;}.cls-4{fill:#dcd98f;}.cls-5{fill:#547d41;}</style></defs><title>18</title><g class="currentLayer" style=""><title>Layer 1</title><path class="cls-1" d="M22.472578048706055,148.54997070312493 s-6.15,-73.12 6.3,-73.23 s0.07,21.36 8.94,23 s-5.95,-52.63 6,-60 s2.64,14 8.91,15 s0.0900000000000002,-56.12 19.69,-53.15 s15.09,32.77 -8.5,56.06 c0,0 9.81,-6.54 12.23,-1.36 s-6.93,29.83 -24.89,45.15 s11.27,-0.2900000000000003 11.44,11.76 S22.472578048706055,148.54997070312493 22.472578048706055,148.54997070312493 z" id="svg_1"/><path class="cls-2" d="M14.302578048706053,158.24997070312497 s18.5,-21.35 28.81,-63.3 s25.38,-54.5 29.87,-76.61 c0,0 0,10.46 -7.41,23.51 c-10.65,18.64 -17.73,40.23 -21.26,56.71 C39.822578048706056,119.52997070312495 26.472578048706055,162.18997070312503 14.302578048706053,158.24997070312497 z" id="svg_2"/><path class="cls-3" d="M18.472578048706055,203.8299707031249 s11.5,-27.13 13.28,-47.67 s2.23,-41.28 10.38,-28.63 c0,0 1.18,-32.1 9.65,-34.49 s4.72,7.71 7.6,8.15 s9.13,-43.18 27.27,-39 s-5.1,36.06 -15.72,42.92 s10.65,-4.6400000000000015 12.74,3.41 S63.472578048706055,134.969970703125 54.35257804870606,136.88997070312507 s8.41,-2 8.67,3.52 s-2.44,10.24 -18.93,23.61 S18.472578048706055,203.8299707031249 18.472578048706055,203.8299707031249 z" id="svg_3"/><path class="cls-4" d="M23.262578048706054,190.969970703125 s-3.68,-16.84 18.93,-45.51 s22.57,-37.42 32.46,-62.28 a215.72,215.72 0 0 0 -8.73,19.73 c-6.25,17 -17.61,32.71 -26.76,43.63 C27.472578048706055,160.40997070312505 14.312578048706055,184.8699707031251 23.262578048706054,190.969970703125 z" id="svg_4"/><path class="cls-5" d="M18.472578048706055,203.8299707031249 S20.022578048706055,171.26997070312495 6.5625780487060545,152.969970703125 s-6,-23.35 0.860000000000001,-21.35 s-14.59,-10.81 -15.59,-26.24 s7.65,-12.68 12.82,-9 s-4.17,-19.73 -7,-34 S-8.667421951293946,16.969970703125 13.472578048706055,16.08997070312489 c9.7,-0.39000000000000057 27.78,5.65 10.46,63.17 s-2.33,-0.3600000000000003 8.58,3.21 s-9,40.64 -6.3,41.53 s5.33,-8.34 10.79,-5 S28.472578048706055,193.8299707031249 18.472578048706055,203.8299707031249 z" id="svg_5"/><path class="cls-4" d="M18.472578048706055,203.8299707031249 s7.25,-27.31 -1.9,-69.52 s-4.5600000000000005,-51.51 -2.17,-83.08 c0,0 0.22000000000000028,14 -1,25.51 c-2.19,21.34 1.73,43.92 5.79,60.28 C24.472578048706055,157.8399707031249 31.162578048706052,201.969970703125 18.472578048706055,203.8299707031249 z" id="svg_6"/></g></svg>