<svg id="Layer_20" data-name="Layer 20" xmlns="http://www.w3.org/2000/svg" viewBox="0 0 154.17 127.44"><defs><style>.cls-1{fill:#64a1a0;}.cls-2{fill:#c6d07a;}.cls-3{fill:#406f71;}.cls-4{fill:#92c1b3;}.cls-5{fill:#658269;}.cls-6{fill:#fff;}</style></defs><title>19</title><path class="cls-1" d="M180.28,1133.79c-4.23,15.66-11.1,31.52-24.11,41.17-.39.29-.75.55-1.15.82l0,0c-9.14,6.37-20.2,9.37-30.49,13.8,0,0,0,0,0,0a3.28,3.28,0,0,0-.52.2c-10.86,4.73-21.73,12.2-25,23.6.09.31-.69.83-1.7,1.34h0c-1.68.85-4,1.58-4.25,1.14a2.36,2.36,0,0,1,.23-2.21s0-.08.06-.11c2.18-4.32,5.36-8.2,6.62-12.85.93-3.41.75-7,1-10.58a24.19,24.19,0,0,1,.63-4.8c1.55-6.47,6.65-11.63,12.47-14.86a43.61,43.61,0,0,1,4.3-2.08h0a113.34,113.34,0,0,1,14.52-4.46l3.3-.89C153.87,1158.08,172.49,1150.31,180.28,1133.79Z" transform="translate(-31.65 -1098.3)"/><path class="cls-2" d="M99.87,1200.72c-1.26,4.65-4.44,8.53-6.62,12.85,0,0,0,.06-.06.11-1.34-5.25-3.73-11.82-5.32-16.79s-4.88-9.73-9.7-11.46a134.33,134.33,0,0,0-33.46,9.79c-1.84.81-4,1.66-5.77.63s-2-3.27-1.4-5.07a12.78,12.78,0,0,1,3.39-4.5c6.47-6.31,13.57-12.93,22.51-14.22l1-.11c7-.71,13.86,1.88,20.44,4.43a48.49,48.49,0,0,1,8,3.67h0a18.14,18.14,0,0,1,3.28,2.44,13.44,13.44,0,0,1,2.07,2.44,25.17,25.17,0,0,1,2.64,5.2C100.62,1193.69,100.8,1197.31,99.87,1200.72Z" transform="translate(-31.65 -1098.3)"/><path class="cls-3" d="M136.07,1163.06l-3.3.89a113.34,113.34,0,0,0-14.52,4.46h0a43.61,43.61,0,0,0-4.3,2.08c-5.82,3.23-10.92,8.39-12.47,14.86a24.19,24.19,0,0,0-.63,4.8,25.17,25.17,0,0,0-2.64-5.2c3-6.79,1.3-14.82,1-22.36,0-1.1,0-2.19,0-3.29,0,0,0,0,0-.06a54.83,54.83,0,0,1,11.73-32,113.82,113.82,0,0,1,7.87-8.56l18.3-18.5a5,5,0,0,1,2.83-1.8c2.83-.28,3.77,3.68,3.63,6.53C142.65,1123.59,141.56,1145.05,136.07,1163.06Z" transform="translate(-31.65 -1098.3)"/><path class="cls-4" d="M98.19,1184.94a13.44,13.44,0,0,0-2.07-2.44,18.14,18.14,0,0,0-3.28-2.44h0a48.49,48.49,0,0,0-8-3.67c-6.58-2.55-13.46-5.14-20.44-4.43-8.64-4.87-17.43-10-23.72-17.62a41,41,0,0,1-7.43-36.93c.44-1.49,1-3.07,2.38-3.88a7.19,7.19,0,0,1,3.53-.69c4.44,0,9-.12,13.2,1.22,7.25,2.3,12.6,8.32,18.91,12.54,5.21,3.51,11.24,5.91,15.65,10.35a37.14,37.14,0,0,1,4,5.19c3.73,5.54,8,13.37,8.32,17.1,0,0,0,0,0,.06,0,1.1,0,2.19,0,3.29C99.49,1170.12,101.21,1178.15,98.19,1184.94Z" transform="translate(-31.65 -1098.3)"/><path class="cls-5" d="M185.82,1223.38c-11.43,4.42-24.44,2.09-35.83-2.45-4.37-1.76-8.75-3.92-11.87-7.46-2-2.23-3.37-4.93-5.41-7.08-4.16-4.37-10.18-5.84-16.36-6.23-5.86,2.18-14.13,9.65-14,14.95,0,0-2.25,2.47-5.08-.36,1-.51,1.79-1,1.7-1.34,3.29-11.4,14.16-18.87,25-23.6a3.28,3.28,0,0,1,.52-.2s0,0,0,0c10.29-4.43,21.35-7.43,30.49-13.8l0,0c6.07.33,11.61,3.9,16.7,7.34,2.54,1.72,5.14,3.5,6.84,6a22.33,22.33,0,0,1,2.74,7.24A188,188,0,0,1,185.82,1223.38Z" transform="translate(-31.65 -1098.3)"/><path class="cls-6" d="M92.21,1181.09a7,7,0,0,0-1.72-4.51,21.25,21.25,0,0,0-3.58-3.3l-4.12-3.06c-1.39-1-2.74-2.12-4.09-3.2a198.61,198.61,0,0,1-15.38-13.9,194.82,194.82,0,0,1-13.89-15.39,135.42,135.42,0,0,1-11.93-17c5.46,4.37,10.51,9,15.51,13.73s9.86,9.49,14.69,14.32,9.6,9.73,14.3,14.71l3.51,3.77c1.18,1.27,2.31,2.5,3.5,3.88a18.32,18.32,0,0,1,3,4.62,8.83,8.83,0,0,1,.67,2.71A5.92,5.92,0,0,1,92.21,1181.09Z" transform="translate(-31.65 -1098.3)"/><path class="cls-6" d="M55.72,1141.09a14.34,14.34,0,0,1-1.29-5.38,18.42,18.42,0,0,1,.42-5,18.15,18.15,0,0,1,1.73-4.72,14,14,0,0,1,3.45-4.32,14,14,0,0,1,1.3,5.38,18.07,18.07,0,0,1-.43,5,18.84,18.84,0,0,1-1.73,4.71A14.37,14.37,0,0,1,55.72,1141.09Z" transform="translate(-31.65 -1098.3)"/><path class="cls-6" d="M67.9,1154.09a23.53,23.53,0,0,1,.43-5.47,34.33,34.33,0,0,1,1.24-4.62,32.57,32.57,0,0,1,1.91-4.37,23.1,23.1,0,0,1,3.1-4.54,10.87,10.87,0,0,1,1.67,5.54,14.27,14.27,0,0,1-.83,5.43,14.44,14.44,0,0,1-2.75,4.75A11,11,0,0,1,67.9,1154.09Z" transform="translate(-31.65 -1098.3)"/><path class="cls-6" d="M77.05,1162.67c1.21-2.23,2.35-4,3.41-5.78l3.08-5.08,3-5.13c1-1.78,2.08-3.62,3.48-5.74a12.47,12.47,0,0,1,1.17,7.18,17.4,17.4,0,0,1-7.27,12.17A12.51,12.51,0,0,1,77.05,1162.67Z" transform="translate(-31.65 -1098.3)"/><path class="cls-6" d="M56.36,1140.69a12.75,12.75,0,0,1-4.63,1.51,14.88,14.88,0,0,1-4.22,0,15.24,15.24,0,0,1-4-1.2,12.75,12.75,0,0,1-4-2.83,10.46,10.46,0,0,1,4.52-2,12.7,12.7,0,0,1,4.43-.08,13,13,0,0,1,4.19,1.4A10.56,10.56,0,0,1,56.36,1140.69Z" transform="translate(-31.65 -1098.3)"/><path class="cls-6" d="M68,1153.45a9.57,9.57,0,0,1-4.25,4.24,13,13,0,0,1-5.69,1.47,12.87,12.87,0,0,1-5.76-1.16,9.53,9.53,0,0,1-4.47-4,45.64,45.64,0,0,1,5.44-.76c1.61-.14,3.12-.23,4.63-.26s3,0,4.64,0A50.54,50.54,0,0,1,68,1153.45Z" transform="translate(-31.65 -1098.3)"/><path class="cls-6" d="M77.42,1162.76a11.19,11.19,0,0,1-4.13,2.43,13,13,0,0,1-4.14.68,12.69,12.69,0,0,1-4.13-.66,11,11,0,0,1-4.14-2.43,11,11,0,0,1,4.13-2.44,13,13,0,0,1,4.13-.67,13.26,13.26,0,0,1,4.14.66A11.08,11.08,0,0,1,77.42,1162.76Z" transform="translate(-31.65 -1098.3)"/><path class="cls-6" d="M174,1216.74c-3.78-3.75-7.27-7.47-10.91-11-1.82-1.77-3.62-3.48-5.51-5.2l-1.36-1.23-1.41-1.24c-.93-.81-1.85-1.57-2.79-2.25a18.29,18.29,0,0,0-2.84-1.81c-.5-.26-.93-.52-1.52-.78s-1-.44-1.57-.65a32.81,32.81,0,0,0-6.83-1.68c-4.84-.72-10-.65-15.3-1a41.1,41.1,0,0,1,15.53-3.88,27.06,27.06,0,0,1,8.42,1,20.74,20.74,0,0,1,2.06.69c.62.23,1.33.57,2,.88a23.06,23.06,0,0,1,3.73,2.28,40.57,40.57,0,0,1,3.2,2.69c.49.46,1,1,1.43,1.4s1,1,1.41,1.48a60.09,60.09,0,0,1,5,6.18A50.47,50.47,0,0,1,174,1216.74Z" transform="translate(-31.65 -1098.3)"/><path class="cls-6" d="M148.73,1191a14,14,0,0,1,3.62-4.12,18.12,18.12,0,0,1,4.3-2.5,17.59,17.59,0,0,1,4.81-1.27,13.74,13.74,0,0,1,5.48.37,13.92,13.92,0,0,1-3.62,4.13,18.08,18.08,0,0,1-4.3,2.49,18.44,18.44,0,0,1-4.81,1.27A14.11,14.11,0,0,1,148.73,1191Z" transform="translate(-31.65 -1098.3)"/><path class="cls-6" d="M158.89,1198.07a12.52,12.52,0,0,1,5.19-3.52,17.09,17.09,0,0,1,5.94-1.08,16.82,16.82,0,0,1,5.94,1,12.53,12.53,0,0,1,5.22,3.5,28.2,28.2,0,0,1-5.84,1.33,44.13,44.13,0,0,1-10.61,0A27.8,27.8,0,0,1,158.89,1198.07Z" transform="translate(-31.65 -1098.3)"/><path class="cls-6" d="M138.17,1188.42c.39,1,.7,1.85,1,2.7l.45,1.22.4,1.21a30.3,30.3,0,0,1,1.08,4.81,30.6,30.6,0,0,1,.35,4.91c0,.42,0,.85,0,1.27l-.08,1.3c-.09.92-.16,1.76-.24,2.88a4.8,4.8,0,0,1-1.42-.74,7.8,7.8,0,0,1-1.18-1,12.85,12.85,0,0,1-1.74-2.39,15.56,15.56,0,0,1-1.78-5.32,15.78,15.78,0,0,1,.19-5.6,10.7,10.7,0,0,1,.41-1.41,9.64,9.64,0,0,1,.58-1.38,7.51,7.51,0,0,1,.84-1.32A5.27,5.27,0,0,1,138.17,1188.42Z" transform="translate(-31.65 -1098.3)"/><path class="cls-6" d="M158.14,1196.52l.22.64a2.83,2.83,0,0,0,.21.55c.17.38.26.67.42,1,.28.62.52,1.2.75,1.77a19.08,19.08,0,0,1,1,3.38,18.21,18.21,0,0,1,.31,3.6,36.13,36.13,0,0,1-.4,4.41,6.78,6.78,0,0,1-4.16-2.69,9.88,9.88,0,0,1-1.59-8.8,7.31,7.31,0,0,1,1.14-2.24A4.48,4.48,0,0,1,158.14,1196.52Z" transform="translate(-31.65 -1098.3)"/><path class="cls-6" d="M117.74,1168.73c.32-2.56.91-5,1.42-7.48s1.14-4.88,1.81-7.28,1.41-4.76,2.19-7.11c.38-1.17.81-2.33,1.21-3.5l1.17-3.51c1.58-4.67,3.26-9.29,5-13.92s3.58-9.19,5.43-14a50.58,50.58,0,0,1-.72,15.25,101.35,101.35,0,0,1-3.83,14.62l-1.28,3.55c-.49,1.16-.95,2.32-1.46,3.47q-1.5,3.47-3.16,6.85c-1.12,2.25-2.29,4.48-3.54,6.67-.62,1.1-1.29,2.17-2,3.22S118.53,1167.71,117.74,1168.73Z" transform="translate(-31.65 -1098.3)"/><path class="cls-6" d="M120.06,1163.15a8.09,8.09,0,0,1-3.86-.6,7.27,7.27,0,0,1-2.56-1.78,7.17,7.17,0,0,1-1.59-2.69,8,8,0,0,1-.29-3.9,7.94,7.94,0,0,1,3.86.59,7.11,7.11,0,0,1,2.56,1.79,7.31,7.31,0,0,1,1.59,2.69A8.16,8.16,0,0,1,120.06,1163.15Z" transform="translate(-31.65 -1098.3)"/><path class="cls-6" d="M129.41,1139.12a8.07,8.07,0,0,1-3.56-1.6,7.44,7.44,0,0,1-2-2.4,7.28,7.28,0,0,1-.82-3,8.08,8.08,0,0,1,.76-3.83,8.06,8.06,0,0,1,3.57,1.59,7.36,7.36,0,0,1,2.8,5.43A8.14,8.14,0,0,1,129.41,1139.12Z" transform="translate(-31.65 -1098.3)"/><path class="cls-6" d="M124,1154.07a11,11,0,0,1-4.48-2.3,13.74,13.74,0,0,1-3-3.43,13,13,0,0,1-1.65-4.31,10.34,10.34,0,0,1-.16-2.51,6,6,0,0,1,.74-2.66l.59.42c.17.13.32.25.51.37.37.25.64.48,1,.71a17.58,17.58,0,0,1,1.69,1.46,16.09,16.09,0,0,1,2.62,3.33,15.54,15.54,0,0,1,1.7,4A12.78,12.78,0,0,1,124,1154.07Z" transform="translate(-31.65 -1098.3)"/></svg>