<svg xmlns="http://www.w3.org/2000/svg" data-name="Layer 23" width="64" height="104"><rect id="backgroundrect" width="100%" height="100%" x="0" y="0" fill="none" stroke="none" class="selected" style=""/><defs><style>.cls-1{fill:#22689b;}.cls-2{fill:#f9f1dd;}.cls-3{fill:#6ba67c;}.cls-4{fill:#64aa45;}</style></defs><title>20</title><g class="currentLayer" style=""><title>Layer 1</title><path class="cls-1" d="M44.129992675781295,70.91996582031243 s-17.67,-3 -21.29,-15.72 s8.5,-16 5.640000000000001,-23.41 s-1.7400000000000002,-16.84 2.44,-17.68 s-0.28,-7.23 4.45,-10.85 s9.93,-5 10.67,0 s3,9.74 8,9.18 s0.56,6.41 2.51,9.47 s9.18,-0.52 9.18,8.63 s0.28,12.25 4.18,16.7 S55.4999926757813,75.11996582031247 44.129992675781295,70.91996582031243 z" id="svg_1"/><path class="cls-2" d="M36.039992675781264,98.25996582031257 s2.38,6 7.4,2.87 s4.09,-35.16 4.09,-35.16 s13.6,-6.21 16,-17 c0,0 -6.8100000000000005,10.85 -16.58,14.2 l-0.1,-6.68 s15.36,-7.76 18,-19.71 c0,0 -7.79,14.61 -18.55,15.51 l-0.32000000000000006,-6.66 s13.59,-6 14.65,-17.22 c0,0 -8.32,11.71 -15.18,13.39 l-0.8200000000000001,-10.79 s8.08,-3.08 9.13,-7.86 c0,0 -5,5.27 -9.51,5.75 c0,0 -3.42,-6.95 6.21,-15.8 a12.26,12.26 0 0 0 -6.76,6.09 s-1.82,-13.74 -3.93,-16.61 a181.19,181.19 0 0 1 2.24,19.37 s-11.22,-2.63 -12.8,-6.94 c0,0 2.18,7.06 12.54,9.4 l1.05,10.45 s-10.69,-2.39 -15.18,-6 c0,0 4.23,5.38 15.45,9.57 c0,0 1.32,5.26 0.79,8.61 c0,0 -11.22,-0.24000000000000002 -18.35,-6.46 c0,0 2,4.3100000000000005 18.09,9.33 a84.12,84.12 0 0 1 0,10 s-12,-4.3 -16,-8.84 c0,0 3.56,7.17 15.71,12 C43.299992675781255,63.09996582031249 43.84999267578121,88.70996582031239 36.039992675781264,98.25996582031257 z" id="svg_2"/><path class="cls-3" d="M30.7499926757813,77.55996582031253 a48.25,48.25 0 0 0 -14.14,-7.06 C8.139992675781286,67.8399658203125 2.42999267578125,62.889965820312455 7.42999267578125,56.8399658203125 s-3.88,-2.27 -6.68,-12.8 s3.45,-8.82 6,-10.09 s-6.52,-5.71 -1.87,-11.13 s13.56,-5.92 15.74,1.84 s2.07,10.61 8.19,10.21 s11.52,3.17 11.81,11.07 s5.71,5.84 3.07,14.53 S39.3599926757812,82.53996582031255 30.7499926757813,77.55996582031253 z" id="svg_3"/><path class="cls-2" d="M37.6099926757812,99.8399658203125 s3.59,3.91 6.09,0 s-7.15,-28.86 -7.15,-28.86 s6.09,-8.2 4.27,-17.19 c0,0 0.7200000000000001,9.45 -5,14.9 l-2.1,-5 s6.11,-9.71 4.08,-19.7 c0,0 -0.51,13.22 -5.71,17.36 l-3.22,-5.59 s6.17,-8 3.27,-17 c0,0 -0.6300000000000001,10.89 -4.87,14.19 l-4.1,-7.16 s3.29,-5.07 2.48,-9.07 c0,0 -1.17,5.48 -4.15,7.16 c0,0 -5.27,-4.28 -1.4100000000000001,-13.93 c0,0 -3.33,1.62 -3.24,7 c0,0 -5.22,-10.37 -7.63,-12 c0,0 2.92,7.44 6.46,14.84 c0,0 -7.3,0.6800000000000002 -9.8,-2.17 c0,0 2.43,5.38 10.41,4.14 l4.12,7.74 s-6.85,0.7200000000000001 -11.14,-0.7300000000000001 c0,0 3.31,3.48 12.49,3.42 a25.32,25.32 0 0 1 3.34,6.4 a20.42,20.42 0 0 1 -13.51,-0.17 s1.3900000000000001,3.31 14.26,2.46 a34.6,34.6 0 0 1 3.25,7.73 s-8.4,-0.37000000000000005 -12.63,-2.71 c0,0 3.43,5.06 13.45,5.19 C29.909992675781268,71.1999658203124 38.6099926757812,91.37996582031246 37.6099926757812,99.8399658203125 z" id="svg_4"/><path class="cls-4" d="M47.559992675781245,79.59996582031249 s6.8100000000000005,-6 13.66,-5.62 s16.37,-3.3 17.9,-12 s1.75,-13.46 6.28,-15.94 s-5.58,-11.77 -12.57,-6.61 s-14.86,-0.27 -20.08,6.44 S39.09999267578121,82.11996582031247 47.559992675781245,79.59996582031249 z" id="svg_5"/><path class="cls-2" d="M42.629992675781295,99.93996582031241 s2,-20.58 10.7,-29.95 c2,-2.15 16.62,-2 16.62,-2 a48.27,48.27 0 0 0 -14.47,-0.4 s3.5700000000000003,-7.57 6.92,-7 c1.33,0.21000000000000002 13,0.32000000000000006 15.21,-2.4 c0,0 -11,1.7600000000000002 -14.870000000000001,-0.5800000000000001 c0,0 4.16,-5.66 6.78,-5 c2.11,0.5800000000000001 9.29,-0.7600000000000001 9.26,-3.46 a18.49,18.49 0 0 1 -9.27,1.59 a58.48,58.48 0 0 1 10.06,-7.43 s-4.16,-0.7300000000000001 -12.22,7.44 c0,0 -1.8,-1 -1.51,-6.16 a12,12 0 0 0 0.16000000000000003,7.43 a41.46,41.46 0 0 0 -5.55,4.86 a21.73,21.73 0 0 1 -1.6400000000000001,-8.7 s-0.7600000000000001,3.05 0,9.88 c0,0 -3.6,3.88 -4.82,6.49 s-1.56,-6.09 -0.46,-9.94 c0,0 -2.6900000000000004,3.7800000000000002 -1.59,11.57 A68.73,68.73 0 0 0 40.42999267578125,87.43996582031241 C36.479992675781205,99.68996582031241 40.33999267578122,104.35996582031248 42.629992675781295,99.93996582031241 z" id="svg_6"/></g></svg>