<svg xmlns="http://www.w3.org/2000/svg" data-name="Layer 24" width="81" height="104"><rect id="backgroundrect" width="100%" height="100%" x="0" y="0" fill="none" stroke="none" class="" style=""/><defs><style>.cls-1{fill:#22689b;}.cls-2{fill:#f9f1dd;}.cls-3{fill:#6ba67c;}.cls-4{fill:#64aa45;}</style></defs><title>21</title><g class="currentLayer" style=""><title>Layer 1</title><path class="cls-1" d="M42.38999023437498,70.92005371093751 s17.67,-3 21.29,-15.73 s-8.49,-16 -5.640000000000001,-23.4 s1.7400000000000002,-16.84 -2.43,-17.68 s0.28,-7.24 -4.46,-10.86 s-9.93,-5 -10.67,0 s-3,9.75 -8,9.19 s-0.56,6.4 -2.5,9.47 s-9.19,-0.52 -9.19,8.620000000000001 s-0.28,12.25 -4.18,16.71 S30.989990234375,75.12005371093755 42.38999023437498,70.92005371093751 z" id="svg_1"/><path class="cls-2" d="M50.47999023437501,98.25005371093744 s-2.37,6 -7.39,2.87 s-4.1,-35.15 -4.1,-35.15 s-13.59,-6.22 -16,-17 c0,0 6.82,10.85 16.59,14.2 l0.09000000000000002,-6.68 s-15.36,-7.76 -18,-19.72 c0,0 7.79,14.61 18.56,15.52 l0.32000000000000006,-6.67 s-13.6,-6 -14.66,-17.22 c0,0 8.32,11.72 15.18,13.4 l0.8300000000000001,-10.79 s-8.08,-3.09 -9.14,-7.87 c0,0 5,5.28 9.52,5.75 c0,0 3.42,-6.94 -6.22,-15.79 a12.27,12.27 0 0 1 6.77,6.08 s1.81,-13.74 3.92,-16.61 a181.58,181.58 0 0 0 -2.24,19.38 s11.22,-2.64 12.81,-6.94 c0,0 -2.19,7.06 -12.54,9.4 l-1.06,10.45 s10.69,-2.39 15.18,-6 c0,0 -4.23,5.38 -15.44,9.57 c0,0 -1.32,5.26 -0.79,8.61 c0,0 11.21,-0.24000000000000002 18.34,-6.46 c0,0 -2,4.3 -18.08,9.33 a84.12,84.12 0 0 0 0,10 s12,-4.3 16,-8.85 c0,0 -3.56,7.18 -15.71,12 C43.21999023437502,63.10005371093757 42.66999023437495,88.6800537109375 50.47999023437501,98.25005371093744 z" id="svg_2"/><path class="cls-3" d="M55.779990234374964,77.56005371093761 a47.82,47.82 0 0 1 14.13,-7.06 c8.47,-2.62 14.21,-7.61 9.22,-13.69 s3.88,-2.27 6.68,-12.79 s-3.44,-8.82 -6,-10.09 s6.52,-5.71 1.87,-11.14 S68.17999023437505,16.880053710937545 65.989990234375,24.6800537109375 s-2.08,10.620000000000001 -8.2,10.21 s-11.52,3.18 -11.8,11.08 s-5.71,5.84 -3.08,14.53 S47.15999023437496,82.5400537109374 55.779990234374964,77.56005371093761 z" id="svg_3"/><path class="cls-2" d="M48.90999023437496,99.8200537109376 s-3.59,3.91 -6.08,0 s7.14,-28.86 7.14,-28.86 s-6.09,-8.19 -4.26,-17.18 c0,0 -0.7200000000000001,9.45 5,14.89 l2.09,-5 s-6.1,-9.72 -4.07,-19.7 c0,0 0.51,13.22 5.71,17.35 l3.21,-5.58 s-6.17,-8 -3.27,-17 c0,0 0.6300000000000001,10.88 4.88,14.19 l4.09,-7.17 s-3.2800000000000002,-5.07 -2.47,-9.06 c0,0 1.1600000000000001,5.48 4.14,7.16 c0,0 5.27,-4.29 1.4100000000000001,-13.93 c0,0 3.33,1.62 3.24,7 c0,0 5.23,-10.38 7.63,-12 c0,0 -2.91,7.45 -6.46,14.85 c0,0 7.3,0.6800000000000002 9.8,-2.17 c0,0 -2.43,5.37 -10.41,4.14 l-4.12,7.74 s6.85,0.7100000000000001 11.15,-0.7300000000000001 c0,0 -3.31,3.48 -12.5,3.42 a25.47,25.47 0 0 0 -3.34,6.4 a20.46,20.46 0 0 0 13.51,-0.18000000000000002 s-1.3900000000000001,3.3200000000000003 -14.25,2.46 a34,34 0 0 0 -3.25,7.74 s8.39,-0.37000000000000005 12.620000000000001,-2.71 c0,0 -3.42,5.06 -13.45,5.18 C56.609990234375005,71.19005371093749 47.90999023437496,91.38005371093755 48.90999023437496,99.8200537109376 z" id="svg_4"/><path class="cls-4" d="M38.989990234375,79.59005371093758 s-6.8,-6 -13.65,-5.61 s-16.37,-3.31 -17.91,-12 s-1.75,-13.46 -6.27,-15.95 s5.58,-11.77 12.57,-6.6 s14.86,-0.27 20.07,6.44 S47.429990234375055,82.11005371093756 38.989990234375,79.59005371093758 z" id="svg_5"/><path class="cls-2" d="M43.88999023437498,99.9300537109375 s-2,-20.57 -10.7,-30 c-2,-2.14 -16.61,-2 -16.61,-2 a48.41,48.41 0 0 1 14.46,-0.41000000000000003 s-3.56,-7.57 -6.92,-7 c-1.33,0.21000000000000002 -13,0.32000000000000006 -15.21,-2.4 c0,0 11,1.7600000000000002 14.88,-0.5900000000000001 c0,0 -4.17,-5.66 -6.79,-5 c-2.11,0.5700000000000001 -9.29,-0.77 -9.25,-3.46 a18.45,18.45 0 0 0 9.27,1.59 a58.94,58.94 0 0 0 -10.06,-7.43 s4.16,-0.7300000000000001 12.21,7.44 c0,0 1.8,-1 1.52,-6.16 a12,12 0 0 1 -0.16000000000000003,7.43 a40.85,40.85 0 0 1 5.54,4.86 a21.89,21.89 0 0 0 1.6500000000000001,-8.7 s0.7500000000000001,3 0,9.88 c0,0 3.6,3.87 4.82,6.49 s1.56,-6.09 0.46,-10 c0,0 2.7,3.79 1.6,11.57 a69,69 0 0 1 11.55,21.23 C50.049990234374945,99.6800537109375 46.179990234375055,104.36005371093756 43.88999023437498,99.9300537109375 z" id="svg_6"/></g></svg>