<svg xmlns="http://www.w3.org/2000/svg" data-name="Layer 22" width="207" height="346"><rect id="backgroundrect" width="100%" height="100%" x="0" y="0" fill="none" stroke="none" class="selected" style=""/><defs><style>.cls-1{fill:#547d41;}.cls-2{fill:#f8bf40;}.cls-3{fill:#ee624f;}.cls-4{fill:#adad55;}.cls-5{fill:#b2d47f;}.cls-6{fill:#9dc86a;}.cls-7{fill:#b0af5a;}.cls-8{fill:#39977c;}.cls-9{fill:#c6c683;}.cls-10{fill:#f2a759;}.cls-11{fill:#069548;}.cls-12{fill:none;stroke:#231a14;stroke-miterlimit:10;stroke-width:1.15px;}</style></defs><title>22</title><g class="currentLayer" style=""><title>Layer 1</title><path class="cls-1" d="M170.18000244140626,65.64998291015627 c-9.61,25.52 -7.85,58.55 -7.85,58.55 c7.53,-29.36 33.81,-30.17 33.81,-30.17 c-32.15,15.91 -30,40.16 -30,40.16 l-4,28 L148.2300024414062,141.91998291015625 s-10.74,-24.13 -36.3,-30.1 s6.06,-11.26 36.51,15 c0,0 7.27,-24.29 -64.55,-100.62 c0,0 62.45,56.14 70.64,96.19 c0,0 5.5600000000000005,-32.42 11.27,-46.47 z" id="svg_1"/><path class="cls-2" d="M199.35000244140622,124.91998291015625 l7.05,4.36 c-64.33,-16.9 -32,78.66 -32,78.66 l-3.1,39.68 l-11,-13.51 s-4.11,-38.54 -5.46,-53.89 s-3.77,-16.13 -3.77,-16.13 s-18,-18.05 -24.59,12 c-5,22.89 9,45.57 2.51,44.71 c-9.7,-1.29 -7.07,-41.54 -7.07,-41.54 s1.87,-34.33 24.69,-25.42 c0,0 -12.18,-31.36 -39.91,-14.43 s-0.92,-3.87 -0.92,-3.87 s28.86,-19.08 50.43,12.11 C156.22000244140622,147.5899829101562 167.31000244140625,114.91998291015625 199.35000244140622,124.91998291015625 z" id="svg_2"/><path class="cls-3" d="M139.08000244140624,230.00998291015617 c0.35000000000000003,3.34 -4.8100000000000005,12.34 -4.8100000000000005,12.34 c-4.73,-1.85 -6.92,-7.73 -7.27,-11.07 a6.07,6.07 0 0 1 12.08,-1.27 z" id="svg_3"/><path class="cls-4" d="M181.44000244140625,250.81998291015634 s-6,-39.34 -0.33000000000000007,-71.11 a43.4,43.4 0 0 0 -7.76,9.36 c-5.72,8.9 -12.28,23.8 -10.54,46.56 C162.79000244140627,235.6299829101563 168.60000244140622,261.04998291015636 181.44000244140625,250.81998291015634 z" id="svg_4"/><path class="cls-5" d="M199.44000244140625,340.29998291015636 s-13.73,10.620000000000001 -31.11,3.2800000000000002 c0,0 4.62,-18.4 -0.27,-52.4 s-5,-43.81 -12.34,-57 c0,0 19.5,3.27 26.55,17.67 S192.30000244140626,313.9699829101562 199.44000244140625,340.29998291015636 z" id="svg_5"/><path class="cls-6" d="M114.44000244140625,131.54998291015625 s11.870000000000001,16.06 -1,30.82 c0,0 -5.83,-13.58 -2.94,-21 c0,0 -6.74,9.3 -0.29000000000000004,23.48 c0,0 -14,12.11 -19.45,18.65 c0,0 -9.16,-13.75 -10.17,-19.17 c0,0 3.56,14.48 8.54,21.67 L75.44000244140625,207.7299829101562 s-6.15,-12.43 -9.72,-17.3 c0,0 6.69,16.16 6.3100000000000005,20.86 c0,0 -8.620000000000001,-17.45 -11.22,-19.5 c0,0 5.69,18.45 8.83,24.41 a52.65,52.65 0 0 1 -12.7,13.57 c-8,5.79 -8.88,5.6 -8.88,5.6 l-3.8,-9.8 s2.19,9.68 0.29000000000000004,11 s-6.83,0.14 -6.83,0.14 c13.3,-48 38,-70 54.08,-87.36 c15.21,-15.58 22.68,-17.84 22.68,-17.84 " id="svg_6"/><path class="cls-7" d="M37.67000244140627,236.74998291015618 c18.3,-64.58 76.76,-105.2 76.76,-105.2 s-24,8.89 -41.17,28.93 a27.58,27.58 0 0 1 4.37,-1.28 a36.57,36.57 0 0 0 -7.66,4.5 a157.81,157.81 0 0 0 -17.27,26.58 l3.2800000000000002,-1 a22,22 0 0 0 -6.8,8.56 c-2.54,5.65 -9,25.52 -11.51,38.92 h0 " id="svg_7"/><path class="cls-6" d="M189.93000244140626,123.04998291015625 s-6,15.82 5.78,22.77 c0,0 8.88,-12.620000000000001 13.15,-14.6 c0,0 -9.42,13.23 -10.17,16.47 c0,0 10.11,5.82 12.61,6.76 s10.93,-12.49 13.81,-13 s-8,12.2 -7.06,16.91 l8.2,7.32 l5.44,-10.28 s0.7400000000000001,7.78 -3.46,11.5 c0,0 15.7,19.42 26.61,24.5 s13.35,4.46 13.35,4.46 c-16.69,-45.14 -47.7,-70.19 -78.26,-72.78 " id="svg_8"/><path class="cls-8" d="M268.19000244140625,195.82998291015633 s1.35,-14.85 -2.6500000000000004,-25.21 a39.37,39.37 0 0 0 -8.44,-4.06 a24.24,24.24 0 0 1 7,0.42000000000000004 s-12.75,-16 -21.32,-22.66 s-13.82,-10.6 -13.82,-10.6 a17.88,17.88 0 0 0 -7.5600000000000005,0.8 s1.32,-2 5.53,-2.47 c0,0 -13.74,-9.12 -18.82,-8.59 s-6,1.15 -6,1.15 s0.7100000000000001,-1.9300000000000002 4.16,-2.29 c0,0 -8.38,-3.31 -16.35,0.7300000000000001 C189.93000244140626,123.04998291015625 240.31000244140625,128.04998291015625 268.19000244140625,195.82998291015633 z" id="svg_9"/><path class="cls-4" d="M183.80000244140626,97.39998291015627 s0.8800000000000001,13.84 19.93,16.35 c0,0 -7.58,-11.14 -9.42,-16.19 c0,0 8.69,9.28 12,15.92 l18.13,0.7100000000000001 s-9.65,-12.82 -12.63,-21.82 a201,201 0 0 1 17.17,21.67 s9.79,1.7400000000000002 24.59,5.7 c11.4,3 2.62,-8.31 1.71,-17 c0,0 6.73,12.69 6.29,18.27 c0,0 19.31,-0.6400000000000001 26.86,-3.58 c0,0 -45.37,-32.55 -88.69,-24.93 " id="svg_10"/><path class="cls-8" d="M288.44000244140625,117.4799829101562 c-16.89,-19.32 -43.79,-29.84 -67.19,-29.6 a85.93,85.93 0 0 0 -37.45,9.52 s34.95,-7.05 52.28,-2.6500000000000004 S288.44000244140625,117.4799829101562 288.44000244140625,117.4799829101562 z" id="svg_11"/><path class="cls-9" d="M122.84000244140623,112.75998291015628 s1,11.25 -27.55,15 c0,0 9.42,-15.18 14.26,-16.27 c0,0 -7,-0.37000000000000005 -17.36,15.870000000000001 c0,0 -9.19,-0.11000000000000001 -14.29,-1.58 c0,0 14.57,-16.5 22.68,-19.69 c0,0 -11.26,0.8900000000000001 -26.9,18.41 c0,0 -13.67,-0.8200000000000001 -25,-0.79 c0,0 7.13,-12.75 13.68,-17.09 c0,0 -10.06,2.66 -17.7,17.3 c0,0 -11.33,1.6300000000000001 -13.86,1.1600000000000001 S38.44000244140625,111.00998291015628 37.140002441406295,107.91998291015625 c0,0 -8.1,8.86 -12.37,16.74 c0,0 -20.19,1.83 -24.77,-11.23 c0,0 13.8,-12.64 74.21,-11.6 c46.34,0.8 48.63,10.9 48.63,10.9 " id="svg_12"/><path class="cls-6" d="M219.8900024414063,0.10998291015630457 s1.9300000000000002,10.72 0.8,16.3 c0,0 -12.27,-1.77 -18,-0.08000000000000002 l17.25,2 a81.59,81.59 0 0 1 -12.61,22 S193.1400024414063,36.91998291015625 186.6100024414062,39.91998291015625 c0,0 10.81,5.85 16.17,6.890000000000001 l-4.09,6.84 s-11.83,1.1 -20.73,0.8700000000000001 c0,0 8.870000000000001,5.33 17.44,5.88 a52.56,52.56 0 0 0 -9.47,17.31 c-2.9,9.77 -5.88,24.36 -23,22.08 c0,0 0.38000000000000006,-32.57 22.81,-63.84 C208.3600024414062,4.399982910156268 219.8900024414063,0.10998291015630457 219.8900024414063,0.10998291015630457 z" id="svg_13"/><path class="cls-10" d="M124.56000244140625,204.01998291015616 s-5.1,-3.54 -6.84,-14.5 s2.39,-13.28 4.2,-10.63 S129.78000244140628,207.91998291015625 124.56000244140625,204.01998291015616 z" id="svg_14"/><path class="cls-10" d="M129.71000244140623,203.52998291015615 s3.89,-4.84 2.44,-15.84 s-6.07,-12.06 -7.05,-9 S125.81000244140625,208.74998291015618 129.71000244140623,203.52998291015615 z" id="svg_15"/><path class="cls-10" d="M131.16000244140628,200.66998291015625 c0.16000000000000003,3.36 0.81,4.46 2.39,3 c0,0 4.72,-4 5.35,-15.11 s-3.71,-13 -5.24,-10.16 a17.86,17.86 0 0 0 -2,6.43 " id="svg_16"/><path class="cls-10" d="M135.44000244140625,201.2299829101562 c0.06000000000000001,1.87 0.5800000000000001,2.77 1.8,1.9 c0,0 4.66,-3.08 6.44,-12.9 s-1.8800000000000001,-12 -3.56,-9.65 a15.46,15.46 0 0 0 -1.31,3.29 " id="svg_17"/><path class="cls-10" d="M140.7600024414063,198.91998291015625 c-0.6500000000000001,3.42 -0.6500000000000001,5.92 0.9400000000000001,4.890000000000001 c0,0 3.73,-2.25 5.45,-9.84 s-1.07,-9.42 -2.46,-7.640000000000001 a3.6,3.6 0 0 0 -0.56,0.7200000000000001 " id="svg_18"/><path class="cls-10" d="M124.04000244140627,203.58998291015632 c0.29000000000000004,1.94 -1.79,1.57 -2.64,1.25 c0,0 -4.21,-1.6 -8.16,-12 s-0.6000000000000001,-13.47 1.6500000000000001,-11.25 a14,14 0 0 1 2.42,3.41 " id="svg_19"/><path class="cls-10" d="M120.2500024414062,203.99998291015618 c0.48000000000000004,1.7400000000000002 0.27,2.71 -1.08,2.26 c0,0 -5.17,-1.53 -9.79,-10.34 s-2,-12 0.29000000000000004,-10.26 a17.13,17.13 0 0 1 2.26,2.83 " id="svg_20"/><path class="cls-10" d="M115.84000244140623,204.25998291015617 c1.09,2.35 1.36,4 -0.14,3.52 c0,0 -4.23,-1.06 -8.26,-8 s-2,-9.64 -0.11000000000000001,-8.32 " id="svg_21"/><path class="cls-2" d="M127.2400024414062,217.29998291015636 s-4.59,-3.18 -6.15,-13 s2.15,-11.93 3.77,-9.55 S131.92000244140627,220.79998291015636 127.2400024414062,217.29998291015636 z" id="svg_22"/><path class="cls-2" d="M131.8600024414062,216.8599829101563 s3.49,-4.35 2.19,-14.23 s-5.45,-10.83 -6.33,-8.09 S128.3600024414062,221.54998291015636 131.8600024414062,216.8599829101563 z" id="svg_23"/><path class="cls-2" d="M133.16000244140628,214.29998291015636 c0.15000000000000002,3 0.7200000000000001,4 2.14,2.7 c0,0 4.25,-3.63 4.8100000000000005,-13.58 s-3.33,-11.66 -4.7,-9.13 a16.22,16.22 0 0 0 -1.8,5.78 " id="svg_24"/><path class="cls-2" d="M137.03000244140628,214.79998291015636 c0.06000000000000001,1.6800000000000002 0.52,2.49 1.62,1.7000000000000002 c0,0 4.19,-2.7600000000000002 5.79,-11.58 s-1.6900000000000002,-10.78 -3.2,-8.67 a13.67,13.67 0 0 0 -1.18,3 " id="svg_25"/><path class="cls-2" d="M141.78000244140628,212.67998291015624 c-0.5800000000000001,3.06 -0.5800000000000001,5.3100000000000005 0.8400000000000001,4.39 c0,0 3.36,-2 4.9,-8.84 s-1,-8.46 -2.2,-6.86 a2.71,2.71 0 0 0 -0.51,0.6400000000000001 " id="svg_26"/><path class="cls-2" d="M126.77000244140629,216.91998291015625 c0.26,1.75 -1.61,1.42 -2.37,1.13 c0,0 -3.7800000000000002,-1.44 -7.34,-10.74 s-0.54,-12.1 1.48,-10.1 a12.37,12.37 0 0 1 2.18,3.07 " id="svg_27"/><path class="cls-2" d="M123.36000244140621,217.27998291015615 c0.43000000000000005,1.56 0.24000000000000002,2.44 -1,2 c0,0 -4.640000000000001,-1.37 -8.79,-9.29 s-1.7600000000000002,-10.76 0.25,-9.21 a14.64,14.64 0 0 1 2,2.54 " id="svg_28"/><path class="cls-2" d="M119.44000244140625,217.50998291015617 c1,2.12 1.22,3.55 -0.12000000000000001,3.17 c0,0 -3.81,-1 -7.43,-7.22 s-1.78,-8.66 -0.1,-7.48 " id="svg_29"/><path class="cls-6" d="M129.68000244140626,231.54998291015636 s-4,-2.79 -5.38,-11.41 s1.8800000000000001,-10.46 3.3,-8.37 S133.79000244140627,234.6099829101563 129.68000244140626,231.54998291015636 z" id="svg_30"/><path class="cls-6" d="M133.7300024414062,231.16998291015625 s3.06,-3.8200000000000003 1.92,-12.47 s-4.77,-9.49 -5.54,-7.09 S130.67000244140627,235.26998291015616 133.7300024414062,231.16998291015625 z" id="svg_31"/><path class="cls-6" d="M141.09000244140623,100.9799829101562 s-13.41,-1.13 -22.51,-8.77 s-22.4,-27.35 -22.4,-27.35 c4.14,-2.18 16.42,-0.3400000000000001 16.42,-0.3400000000000001 c-8.65,-4.92 -19.09,-4.33 -19.09,-4.33 s-5.61,-9 -8.61,-12.63 s-10.56,-14.48 -10.66,-15.48 s13.74,-0.8700000000000001 13.74,-0.8700000000000001 A66.16,66.16 0 0 0 73.80000244140626,27.91998291015625 c-6.44,-11.41 -4.72,-21.35 -4.72,-21.35 S123.2500024414062,62.91998291015625 141.09000244140623,100.9799829101562 z" id="svg_32"/><path class="cls-6" d="M134.8700024414062,228.91998291015625 c0.13,2.64 0.6400000000000001,3.5 1.8800000000000001,2.36 c0,0 3.72,-3.17 4.21,-11.89 s-2.91,-10.22 -4.12,-8 a14.15,14.15 0 0 0 -1.57,5.06 " id="svg_33"/><path class="cls-6" d="M138.2600024414063,229.3599829101563 c0,1.46 0.46,2.18 1.42,1.49 c0,0 3.67,-2.42 5.07,-10.15 s-1.48,-9.44 -2.8,-7.59 a12,12 0 0 0 -1,2.59 " id="svg_34"/><path class="cls-6" d="M142.44000244140625,227.49998291015618 c-0.51,2.68 -0.51,4.65 0.7300000000000001,3.84 c0,0 2.95,-1.7600000000000002 4.29,-7.74 s-0.8400000000000001,-7.41 -1.9300000000000002,-6 a2.34,2.34 0 0 0 -0.44000000000000006,0.5700000000000001 " id="svg_35"/><path class="cls-6" d="M129.2700024414063,231.2099829101562 c0.23,1.53 -1.4100000000000001,1.24 -2.08,1 c0,0 -3.31,-1.27 -6.42,-9.41 s-0.47000000000000003,-10.6 1.3,-8.85 a10.76,10.76 0 0 1 1.9,2.68 " id="svg_36"/><path class="cls-6" d="M126.29000244140627,231.52998291015615 c0.37000000000000005,1.37 0.21000000000000002,2.14 -0.8500000000000001,1.78 c0,0 -4.07,-1.21 -7.7,-8.14 s-1.54,-9.43 0.22000000000000003,-8.07 a13.34,13.34 0 0 1 1.78,2.23 " id="svg_37"/><path class="cls-6" d="M122.82000244140625,231.7299829101562 c0.8500000000000001,1.85 1.07,3.11 -0.11000000000000001,2.77 c0,0 -3.33,-0.8300000000000001 -6.5,-6.32 s-1.56,-7.59 -0.09000000000000002,-6.55 " id="svg_38"/><path class="cls-8" d="M69.08000244140624,6.5499829101562455 c24.29,-0.23 19.69,18.32 19.69,18.32 l0.55,-12.73 s12,9.07 14.38,12 s1.11,17.5 1.11,17.5 c1.48,-2.9 2.71,-14.41 2.71,-14.41 l18,22.72 s9.68,11.65 13.55,20.28 s-0.7400000000000001,17.13 -0.7400000000000001,17.13 a18.59,18.59 0 0 0 4.3100000000000005,-9.06 c5.87,14.23 1.56,18.88 1.56,18.88 l-75.08,-90.66 " id="svg_39"/><path class="cls-4" d="M219.8900024414063,0.10998291015630457 c-13.86,-1 -11.4,4.8 -11.4,4.8 c-1.56,-0.8900000000000001 -1.1600000000000001,-3.48 -1.1600000000000001,-3.48 s-5.95,2.51 -8.33,5.82 s-0.91,7.82 -0.91,7.82 c-2.31,-0.11000000000000001 -1.9,-6.68 -1.9,-6.68 s-10.620000000000001,9.09 -12,13.28 s2.38,9.15 2.38,9.15 c-3.56,0.37000000000000005 -5.46,-5.22 -5.46,-5.22 c-5.26,6.12 -0.93,16.05 -0.93,16.05 l-4.51,-6.52 S165.44000244140625,48.64998291015627 164.1100024414062,54.359982910156305 s4.1,13 4.1,13 c-2.06,-0.8800000000000001 -6.76,-7.16 -6.76,-7.16 s-1.7200000000000002,1.3900000000000001 -4.12,15.84 s1.87,23 1.87,23 s24.65,-77.71 60.69,-99 " id="svg_40"/><path class="cls-11" d="M219.8900024414063,0.10998291015630457 " id="svg_41"/><path class="cls-12" d="M197.8600024414062,93.18998291015623 " id="svg_42"/></g></svg>