<svg id="Layer_32" data-name="Layer 32" xmlns="http://www.w3.org/2000/svg" viewBox="0 0 800.76 204.69"><defs><style>.cls-1{fill:#f5b843;}</style></defs><title>23</title><path class="cls-1" d="M743.79,1294s-1.63,15.12-16.76,16.71-10.29-5.86-10.29-5.86-10.18,7.72-20.22,3.91,7.37-9.66,7.37-9.66-22.81,3.27-26.51-7.75,12.06-9.26,12.06-9.26-22.57-5.32-22.6-16.67,13-6.9,13-6.9-10.35-5.85-7.64-11.9,11.71-2.73,11.71-2.73-18-28.55,3.11-28.35c0,0-10-20.87,9.74-15.66,0,0-6.34-21.21,10.34-25.11s19.55,20.85,19.55,20.85-.94-11.39,8.67-10.28,6.09,21.12,6.09,21.12,5.14-11.52,16.69-7.83,8.36,23.6,8.36,23.6,1.72-4.83,9.15-6.56,6,13.35-1.38,18.5c0,0,18.08-7.25,5.55,15.74,0,0,5.76-6,10.17-.52s-1.4,17-12.82,23.68c0,0,8.87-6.09,11.13,3.57s-16.2,13-16.2,13,14.06.83,6.61,9.16S754.75,1305.2,743.79,1294Z" transform="translate(9.35 -1174.34)"/><path class="cls-1" d="M199.42,1338.27s-4.41,14.55-19.57,13.32-9-7.66-9-7.66-11.42,5.7-20.59.1,9-8.13,9-8.13-23-1-24.61-12.52,13.56-6.88,13.56-6.88-21.2-9.4-19.13-20.56,14-4.38,14-4.38-9.09-7.66-5.31-13.1,12-.52,12-.52-12.42-31.39,8.3-27.29c0,0-6-22.35,12.47-13.59,0,0-2.31-22,14.8-22.76s15.36,24.1,15.36,24.1,1.18-11.36,10.43-8.49,2.07,21.88,2.07,21.88,7.19-10.37,17.85-4.61,3.85,24.74,3.85,24.74,2.59-4.42,10.21-4.75,3.39,14.22-4.78,17.93c0,0,19.11-3.79,2.54,16.49,0,0,6.77-4.81,10.09,1.37s-4.52,16.44-17,20.89c0,0,9.85-4.33,10.28,5.58s-18.33,9.82-18.33,9.82,13.67,3.41,4.8,10.22S208.11,1351.32,199.42,1338.27Z" transform="translate(9.35 -1174.34)"/><path class="cls-1" d="M279.65,1336.33s-6.21,12.14-19.38,8.62-6.74-8.2-6.74-8.2-11,3.2-18.18-3.21,9.27-5.72,9.27-5.72-20.14-4.58-19.71-15,13.06-3.9,13.06-3.9-17.19-11.68-13.57-21.19,13.07-1.62,13.07-1.62-6.78-8.21-2.58-12.41,10.68,1.47,10.68,1.47-5.94-29.67,11.69-22.73c0,0-1.67-20.67,13.17-10,0,0,1.49-19.78,16.69-17.7s9.69,23.72,9.69,23.72,2.86-9.83,10.56-5.82-1.68,19.62-1.68,19.62,8-8,16.48-1.2-.56,22.43-.56,22.43,3-3.49,9.76-2.56.72,13.09-7.08,15c0,0,17.46-.28-.4,15,0,0,6.74-3.15,8.68,2.82s-6.62,13.78-18.32,15.71c0,0,9.38-2.25,8.17,6.56s-17.74,5.73-17.74,5.73,11.51,5.19,2.6,9.78S285.23,1349.23,279.65,1336.33Z" transform="translate(9.35 -1174.34)"/><path class="cls-1" d="M453.6,1364.78s-4.4,14.55-19.56,13.32-9-7.66-9-7.66-11.43,5.7-20.6.1,9-8.13,9-8.13-23-1-24.62-12.52,13.56-6.88,13.56-6.88-21.2-9.4-19.13-20.56,14-4.38,14-4.38-9.09-7.66-5.31-13.1,12-.52,12-.52-12.42-31.39,8.31-27.29c0,0-5.95-22.35,12.46-13.59,0,0-2.3-22,14.81-22.76s15.36,24.1,15.36,24.1,1.18-11.36,10.42-8.49,2.07,21.88,2.07,21.88,7.19-10.37,17.86-4.61,3.84,24.74,3.84,24.74,2.59-4.42,10.21-4.75,3.4,14.22-4.77,17.93c0,0,19.1-3.79,2.53,16.49,0,0,6.78-4.81,10.1,1.37s-4.53,16.44-17,20.89c0,0,9.84-4.33,10.27,5.58s-18.33,9.82-18.33,9.82,13.67,3.41,4.8,10.22S462.3,1377.83,453.6,1364.78Z" transform="translate(9.35 -1174.34)"/><path class="cls-1" d="M585.37,1337.1s-4.4,14.55-19.56,13.32-9-7.66-9-7.66-11.43,5.7-20.6.1,9-8.13,9-8.13-23-1-24.62-12.52,13.56-6.88,13.56-6.88-21.19-9.4-19.13-20.56,14-4.38,14-4.38-9.09-7.66-5.31-13.1,12-.52,12-.52-12.42-31.39,8.31-27.29c0,0-6-22.35,12.46-13.59,0,0-2.3-22,14.81-22.76s15.36,24.1,15.36,24.1,1.18-11.36,10.42-8.49,2.07,21.88,2.07,21.88,7.19-10.37,17.86-4.61,3.84,24.74,3.84,24.74,2.59-4.42,10.21-4.75,3.4,14.22-4.77,17.93c0,0,19.1-3.78,2.53,16.49,0,0,6.78-4.81,10.1,1.37s-4.53,16.44-17,20.9c0,0,9.84-4.34,10.27,5.57s-18.33,9.82-18.33,9.82,13.67,3.41,4.81,10.22S594.07,1350.15,585.37,1337.1Z" transform="translate(9.35 -1174.34)"/><path class="cls-1" d="M673.09,1337.1s-4.4,14.55-19.56,13.32-9-7.66-9-7.66-11.43,5.7-20.6.1,9-8.13,9-8.13-23-1-24.61-12.52,13.56-6.88,13.56-6.88-21.2-9.4-19.13-20.56,14-4.38,14-4.38-9.09-7.66-5.31-13.1,12-.52,12-.52-12.42-31.39,8.3-27.29c0,0-5.94-22.35,12.47-13.59,0,0-2.31-22,14.8-22.76s15.36,24.1,15.36,24.1,1.19-11.36,10.43-8.49,2.07,21.88,2.07,21.88,7.19-10.37,17.85-4.61,3.85,24.74,3.85,24.74,2.59-4.42,10.21-4.75,3.39,14.22-4.78,17.93c0,0,19.11-3.78,2.54,16.49,0,0,6.77-4.81,10.09,1.37s-4.52,16.44-17,20.9c0,0,9.85-4.34,10.28,5.57s-18.33,9.82-18.33,9.82,13.67,3.41,4.8,10.22S681.78,1350.15,673.09,1337.1Z" transform="translate(9.35 -1174.34)"/><path class="cls-1" d="M95.32,1304s4.27,12.18,17.08,10.58,7.37-6.83,7.37-6.83,9.9,4.42,17.47-.67-8-6.56-8-6.56,19.48-1.71,20.41-11.52-11.75-5.33-11.75-5.33,17.63-8.75,15.46-18.14-12.06-3.2-12.06-3.2,7.42-6.83,4-11.31-10.2,0-10.2,0,9.38-27.06-8-22.82c0,0,4.23-19.17-11.06-11.07,0,0,1.14-18.75-13.39-18.75s-12.14,21-12.14,21-1.42-9.59-9.15-6.82-1,18.62-1,18.62-6.48-8.52-15.31-3.24-2.35,21.11-2.35,21.11-2.36-3.65-8.83-3.65-2.36,12.18,4.7,15c0,0-16.34-2.5-1.54,14.08,0,0-5.92-3.83-8.51,1.53s4.44,13.78,15.16,17.1c0,0-8.5-3.32-8.5,5.1s15.9,7.65,15.9,7.65-11.46,3.39-3.7,8.84S88.43,1315.39,95.32,1304Z" transform="translate(9.35 -1174.34)"/><path class="cls-1" d="M318.7,1356.25s4.27,12.18,17.08,10.58,7.38-6.83,7.38-6.83,9.89,4.42,17.46-.67-7.95-6.56-7.95-6.56,19.48-1.71,20.41-11.52-11.76-5.33-11.76-5.33,17.63-8.75,15.47-18.14-12.06-3.2-12.06-3.2,7.42-6.82,4-11.3-10.21,0-10.21,0,9.38-27.07-8-22.83c0,0,4.22-19.17-11.07-11.07,0,0,1.15-18.75-13.39-18.75s-12.13,21-12.13,21-1.42-9.59-9.16-6.82-.95,18.63-.95,18.63-6.47-8.53-15.3-3.25-2.36,21.11-2.36,21.11-2.35-3.65-8.83-3.65-2.35,12.18,4.71,15c0,0-16.34-2.5-1.55,14.08,0,0-5.91-3.82-8.5,1.53s4.44,13.78,15.16,17.1c0,0-8.51-3.32-8.51,5.1s15.91,7.65,15.91,7.65-11.47,3.39-3.7,8.84S311.81,1367.63,318.7,1356.25Z" transform="translate(9.35 -1174.34)"/><path class="cls-1" d="M399.93,1332.62s6.94,10.93,19.48,6.5,5.93-8.32,5.93-8.32,10.92,2.1,17.42-4.56-9.42-4.62-9.42-4.62,19.22-6,18-15.81-13-2.58-13-2.58,15.83-12.48,11.61-21.16-12.83-.43-12.83-.43,6-8.32,1.59-11.93S428.5,1272,428.5,1272s3.55-28.52-13.05-20.48c0,0,.08-19.66-13.54-8.33,0,0-2.92-18.56-17.54-15.31s-7.64,23.22-7.64,23.22-3.51-9-10.69-4.61,3.09,18.4,3.09,18.4-8.37-6.88-16.1.25,2.22,21.14,2.22,21.14-3.17-3-9.68-1.59.28,12.42,8,13.61c0,0-17,1.21,1.5,14.09,0,0-6.78-2.41-8.22,3.4s7.45,12.45,19,13.29c0,0-9.27-1.34-7.45,6.88s17.66,3.91,17.66,3.91-10.79,5.88-1.8,9.46S395.47,1345.27,399.93,1332.62Z" transform="translate(9.35 -1174.34)"/><path class="cls-1" d="M500,1345.68s2.14,12.73,15,13.32,8.42-5.48,8.42-5.48,9,6,17.33,2.3-6.73-7.81-6.73-7.81,19.49,1.62,22.07-7.9-10.68-7.25-10.68-7.25,18.86-5.63,18.31-15.25-11.34-5.19-11.34-5.19,8.47-5.47,5.88-10.47-10.06-1.72-10.06-1.72,13.83-25.09-4.06-23.86c0,0,7.41-18.18-9-12.79,0,0,4.31-18.28-10-20.75s-15.52,18.64-15.52,18.64.22-9.69-7.87-8.27-4.09,18.19-4.09,18.19-4.94-9.5-14.54-5.79-5.9,20.41-5.9,20.41-1.7-4-8.08-5.1-4.39,11.61,2.09,15.61c0,0-15.68-5.24-3.91,13.61,0,0-5.18-4.77-8.64.07s2,14.33,12.05,19.41c0,0-7.82-4.71-9.25,3.59s14.38,10.24,14.38,10.24-11.88,1.4-5.15,8.08S491.29,1355.73,500,1345.68Z" transform="translate(9.35 -1174.34)"/><path class="cls-1" d="M20,1293.3s-.81,10.83,9.61,13.91,8-2.78,8-2.78,6.14,6.74,13.69,5.37-3.92-7.74-3.92-7.74,15.59,5.25,19.61-2-7.26-8.07-7.26-8.07,16.54-.81,18-8.77-8.22-6.53-8.22-6.53,8-2.76,6.91-7.36-7.87-3.44-7.87-3.44,16.35-17.71,1.49-20.31c0,0,9.71-13.35-4.8-12.25,0,0,7.2-14.08-4-19s-16.43,12.1-16.43,12.1,2.14-7.87-4.76-8.34-7,14-7,14-2.12-8.75-10.71-7.66S13.42,1240,13.42,1240s-.58-3.61-5.57-5.79-5.92,8.6-1.43,13.17c0,0-11.76-7.44-5.94,10.33,0,0-3.27-5-7.07-1.69s-1.22,12.12,5.93,18.29c0,0-5.44-5.43-8.28,1.06s9.68,11.26,9.68,11.26-10-1.25-5.82,5.57S10.87,1299.76,20,1293.3Z" transform="translate(9.35 -1174.34)"/></svg>