<svg xmlns="http://www.w3.org/2000/svg" data-name="Text 3" width="527" height="319"><rect id="backgroundrect" width="100%" height="100%" x="0" y="0" fill="none" stroke="none" class="selected" style=""/><defs><style>.cls-1{font-size:48px;fill:#fff8dd;font-family:Itim-Regular, Itim;}.cls-2{fill:#fff;}</style></defs><title>26</title><g class="currentLayer" style=""><title>Layer 1</title><text class="cls-1" y="39.2400016784668" x="1.100000023841858" id="svg_1"><tspan xml:space="preserve" x="1.100000023841858" y="39.2400016784668" id="svg_2">ส่วนที่ 2 ร้อยละ 30  </tspan><tspan x="1.100000023841858" y="96.84000167846679" id="svg_3">ให้ปลูกพืชผสมผสาน</tspan></text><path class="cls-2" d="M4.120002746582031,209.6600292968751 a6,6 0 0 1 -1.7200000000000002,-4.66 v-10.29 H4.120002746582031 v10.5 c0,3.07 1.7200000000000002,4.59 5.16,4.59 s5.13,-1.52 5.13,-4.59 v-15.3 h1.6500000000000001 v15.09 a6,6 0 0 1 -1.73,4.640000000000001 a7.24,7.24 0 0 1 -5,1.57 A7.36,7.36 0 0 1 4.120002746582031,209.6600292968751 z" id="svg_4"/><path class="cls-2" d="M21.31000274658203,210.0600292968752 a4.28,4.28 0 0 1 -1.42,-3.5300000000000002 a4.42,4.42 0 0 1 1.5,-3.55 a7,7 0 0 1 4.59,-1.28 h5.7 v-1.59 a5.76,5.76 0 0 0 -0.45,-2.5 a2.72,2.72 0 0 0 -1.52,-1.33 a8.16,8.16 0 0 0 -3,-0.42000000000000004 a16.09,16.09 0 0 0 -5.1,0.7500000000000001 v-1.4100000000000001 a17,17 0 0 1 5.46,-0.79 q3.3,0 4.77,1.3800000000000001 a5.78,5.78 0 0 1 1.47,4.38 v10.74 h-1.6500000000000001 v-7.8 H26.12000274658203 a5.93,5.93 0 0 0 -3.51,0.8300000000000001 a3,3 0 0 0 -1.11,2.59 a3,3 0 0 0 1,2.5 a5.14,5.14 0 0 0 3.11,0.77 a7.74,7.74 0 0 0 2,-0.23 v1.4 a11.3,11.3 0 0 1 -2.49,0.24000000000000002 A5.91,5.91 0 0 1 21.31000274658203,210.0600292968752 z" id="svg_5"/><path class="cls-2" d="M28.510002746582018,217.9300292968751 a2,2 0 0 1 -0.7300000000000001,-1.59 v-2.16 H26.220002746582026 l0.06000000000000001,-1.19 H29.12000274658203 v3.29 a1,1 0 0 0 0.36000000000000004,0.8 a1.61,1.61 0 0 0 1,0.28 a1.8,1.8 0 0 0 1.06,-0.28 a0.93,0.93 0 0 0 0.41000000000000003,-0.8 v-3.29 h1.35 v3.35 a2,2 0 0 1 -0.78,1.59 a3.09,3.09 0 0 1 -2,0.6400000000000001 A2.88,2.88 0 0 1 28.510002746582018,217.9300292968751 z" id="svg_6"/><path class="cls-2" d="M38.25000274658203,203.62002929687515 a3.2,3.2 0 0 1 2.49,-3.26 l-3.54,-0.79 v-2.4 a9.34,9.34 0 0 1 3.07,-2 a10.81,10.81 0 0 1 4.25,-0.79 a7.5,7.5 0 0 1 5.11,1.49 a5.61,5.61 0 0 1 1.6700000000000002,4.42 v10.59 h-1.6500000000000001 v-10.67 a4.17,4.17 0 0 0 -1.22,-3.38 a6.11,6.11 0 0 0 -3.91,-1 a10.2,10.2 0 0 0 -3.41,0.55 a5.91,5.91 0 0 0 -2.41,1.45 v0.8400000000000001 l3.6,0.79 v1.4300000000000002 a3.36,3.36 0 0 0 -1.8,0.9400000000000001 a2.62,2.62 0 0 0 -0.6000000000000001,1.85 v7.2 h-1.6500000000000001 z" id="svg_7"/><path class="cls-2" d="M56.980002746582045,210.1800292968751 a2.83,2.83 0 0 1 -0.6700000000000002,-2 v-11.22 a6.53,6.53 0 0 1 0.79,-3.3 a6,6 0 0 1 2.15,-2.19 H53.82000274658202 v-1.3800000000000001 h7.5 v1.44 a5.52,5.52 0 0 0 -2.5700000000000003,2.19 a7.33,7.33 0 0 0 -0.79,3.66 v10.5 a1.73,1.73 0 0 0 0.39000000000000007,1.25 a1.55,1.55 0 0 0 1.17,0.4 h1.47 v1.3800000000000001 h-2.1 A2.47,2.47 0 0 1 56.980002746582045,210.1800292968751 z" id="svg_8"/><path class="cls-2" d="M68.56000274658203,210.60002929687516 a9.16,9.16 0 0 1 -2.68,-1.82 l-0.15000000000000002,2.13 h-1.44 v-16.2 h1.6500000000000001 v12.57 a7.46,7.46 0 0 0 5.49,2.52 a3.7,3.7 0 0 0 4.26,-4.26 v-10.83 h1.6500000000000001 v10.74 a6,6 0 0 1 -1.3800000000000001,4.3100000000000005 a5.24,5.24 0 0 1 -4,1.45 A8.59,8.59 0 0 1 68.56000274658203,210.60002929687516 z" id="svg_9"/><path class="cls-2" d="M71.12000274658203,188.83002929687518 h-2.37 v-1.26 h3.6900000000000004 v2.88 H79.12000274658203 l-0.09000000000000002,1.29 H71.12000274658203 z" id="svg_10"/><path class="cls-2" d="M81.81000274658203,197.5000292968748 a2.91,2.91 0 0 1 0.7000000000000001,-2 a2.49,2.49 0 0 1 1.9100000000000001,-0.78 h2.2800000000000002 l0.06000000000000001,1.4100000000000001 h-1.71 a1.6400000000000001,1.6400000000000001 0 0 0 -1.23,0.41000000000000003 a1.84,1.84 0 0 0 -0.39000000000000007,1.3 v10.89 l5.19,-9.06 h1 l5.19,9.06 v-14 h1.62 v16.2 h-1.83 l-5.46,-9.57 l-5.49,9.57 h-1.83 z" id="svg_11"/><path class="cls-2" d="M101.71000274658203,210.0600292968752 a4.28,4.28 0 0 1 -1.42,-3.5300000000000002 a4.42,4.42 0 0 1 1.5,-3.55 a7,7 0 0 1 4.59,-1.28 H112.12000274658203 v-1.59 a5.76,5.76 0 0 0 -0.45,-2.5 a2.72,2.72 0 0 0 -1.52,-1.33 a8.16,8.16 0 0 0 -3,-0.42000000000000004 a16.09,16.09 0 0 0 -5.1,0.7500000000000001 v-1.4100000000000001 a17,17 0 0 1 5.46,-0.79 q3.3,0 4.77,1.3800000000000001 a5.78,5.78 0 0 1 1.47,4.38 v10.74 H112.12000274658203 v-7.8 h-5.58 a5.93,5.93 0 0 0 -3.51,0.8300000000000001 a3,3 0 0 0 -1.11,2.59 a3,3 0 0 0 1,2.5 a5.14,5.14 0 0 0 3.11,0.77 a7.74,7.74 0 0 0 2,-0.23 v1.4 a11.3,11.3 0 0 1 -2.49,0.24000000000000002 A5.91,5.91 0 0 1 101.71000274658203,210.0600292968752 z" id="svg_12"/><path class="cls-2" d="M131.12000274658203,210.1800292968751 a2.83,2.83 0 0 1 -0.6700000000000002,-2 v-11.22 a6.53,6.53 0 0 1 0.79,-3.3 a6,6 0 0 1 2.15,-2.19 h-5.43 v-1.3800000000000001 h7.5 v1.44 a5.52,5.52 0 0 0 -2.5700000000000003,2.19 a7.33,7.33 0 0 0 -0.79,3.66 v10.5 a1.73,1.73 0 0 0 0.39000000000000007,1.25 a1.55,1.55 0 0 0 1.17,0.4 H135.12000274658203 v1.3800000000000001 h-2.1 A2.47,2.47 0 0 1 131.12000274658203,210.1800292968751 z" id="svg_13"/><path class="cls-2" d="M142.69000274658202,210.60002929687516 a9.16,9.16 0 0 1 -2.68,-1.82 l-0.15000000000000002,2.13 H138.42000274658204 v-16.2 H140.12000274658203 v12.57 a7.46,7.46 0 0 0 5.49,2.52 a3.7,3.7 0 0 0 4.26,-4.26 v-10.83 h1.6500000000000001 v10.74 A6,6 0 0 1 150.12000274658203,209.780029296875 a5.24,5.24 0 0 1 -4,1.45 A8.59,8.59 0 0 1 142.69000274658202,210.60002929687516 z" id="svg_14"/><path class="cls-2" d="M145.26000274658202,188.83002929687518 h-2.37 v-1.26 h3.6900000000000004 v2.88 h6.63 L153.12000274658203,191.780029296875 h-7.86 z" id="svg_15"/><path class="cls-2" d="M157.12000274658203,210.0000292968748 a4,4 0 0 1 -1.75,-3.55 a4.3,4.3 0 0 1 0.7000000000000001,-2.54 a4,4 0 0 1 2,-1.46 a3.33,3.33 0 0 1 -1.8800000000000001,-1.23 a3.9,3.9 0 0 1 -0.7000000000000001,-2.43 a4.14,4.14 0 0 1 1.24,-3.26 a4.68,4.68 0 0 1 3.26,-1.12 a9.49,9.49 0 0 1 2.37,0.30000000000000004 v1.4100000000000001 a7.08,7.08 0 0 0 -2,-0.26 c-2.12,0 -3.18,1 -3.18,2.93 s1.19,3 3.5700000000000003,3 h1.7400000000000002 l0.15000000000000002,1.32 h-2 a3.7600000000000002,3.7600000000000002 0 0 0 -2.67,0.8700000000000001 a3.25,3.25 0 0 0 -0.93,2.5 c0,2.24 1.7200000000000002,3.35 5.16,3.35 a5.84,5.84 0 0 0 3.7600000000000002,-1 a3.81,3.81 0 0 0 1.25,-3.15 v-10.92 h1.6500000000000001 v10 a7,7 0 0 1 -1.5,4.92 q-1.5,1.62 -5.13,1.62 A8.86,8.86 0 0 1 157.12000274658203,210.0000292968748 z" id="svg_16"/><path class="cls-2" d="M157.53000274658206,190.45002929687507 h6.48 v-2.6100000000000003 h1.35 v2.6100000000000003 h2 v-2.6100000000000003 h1.35 v3.9 H157.44000274658202 z" id="svg_17"/><path class="cls-2" d="M174.580002746582,209.780029296875 a6.16,6.16 0 0 1 -1.33,-4.3100000000000005 v-10.74 h1.6500000000000001 v10.83 a4.54,4.54 0 0 0 1,3.23 a4.24,4.24 0 0 0 3.18,1 a7.55,7.55 0 0 0 5.58,-2.52 v-12.57 h1.6500000000000001 v16.2 h-1.44 l-0.15000000000000002,-2.13 a8.48,8.48 0 0 1 -6.18,2.43 A5.1,5.1 0 0 1 174.580002746582,209.780029296875 z" id="svg_18"/><path class="cls-2" d="M191.830002746582,209.1500292968749 c-1.11,-1.3900000000000001 -1.6600000000000001,-3.47 -1.6600000000000001,-6.28 a13.25,13.25 0 0 1 1.2,-6.26 a3.83,3.83 0 0 1 3.54,-2.2 a4.13,4.13 0 0 1 1.86,0.38000000000000006 a4.66,4.66 0 0 1 1.44,1.18 a4.55,4.55 0 0 1 1.62,-1.17 a4.92,4.92 0 0 1 1.92,-0.39000000000000007 a3.2800000000000002,3.2800000000000002 0 0 1 2.49,0.92 a3.89,3.89 0 0 1 0.8700000000000001,2.7800000000000002 v12.8 h-1.6500000000000001 V198.280029296875 a2.8200000000000003,2.8200000000000003 0 0 0 -0.48000000000000004,-1.8800000000000001 a2.09,2.09 0 0 0 -1.6500000000000001,-0.54 a3.13,3.13 0 0 0 -1.49,0.37000000000000005 a2.77,2.77 0 0 0 -1.12,1.13 h-1.05 a4.17,4.17 0 0 0 -1.13,-1.1600000000000001 a2.83,2.83 0 0 0 -4,1.48 a14,14 0 0 0 -0.7600000000000001,5.19 c0,2.46 0.42000000000000004,4.24 1.26,5.3100000000000005 a4.42,4.42 0 0 0 3.72,1.62 a6.8,6.8 0 0 0 2,-0.23 v1.4 a9.28,9.28 0 0 1 -2.37,0.24000000000000002 A5.59,5.59 0 0 1 191.830002746582,209.1500292968749 z" id="svg_19"/><path class="cls-2" d="M198.900002746582,188.83002929687518 h-2.37 v-1.26 h3.6900000000000004 v2.88 h6.63 l-0.09000000000000002,1.29 h-7.86 z" id="svg_20"/><path class="cls-2" d="M210.91000274658205,209.780029296875 a6.16,6.16 0 0 1 -1.33,-4.3100000000000005 v-10.74 h1.6500000000000001 v10.83 a4.54,4.54 0 0 0 1,3.23 a4.24,4.24 0 0 0 3.18,1 a7.55,7.55 0 0 0 5.58,-2.52 v-12.57 h1.6500000000000001 v16.2 h-1.44 l-0.15000000000000002,-2.13 a8.48,8.48 0 0 1 -6.18,2.43 A5.1,5.1 0 0 1 210.91000274658205,209.780029296875 z" id="svg_21"/><path class="cls-2" d="M240.01000274658202,210.1800292968751 a2.83,2.83 0 0 1 -0.6700000000000002,-2 v-11.22 a6.53,6.53 0 0 1 0.79,-3.3 a6,6 0 0 1 2.15,-2.19 h-5.43 v-1.3800000000000001 h7.5 v1.44 a5.52,5.52 0 0 0 -2.5700000000000003,2.19 a7.33,7.33 0 0 0 -0.79,3.66 v10.5 a1.73,1.73 0 0 0 0.39000000000000007,1.25 a1.55,1.55 0 0 0 1.17,0.4 h1.47 v1.3800000000000001 h-2.1 A2.47,2.47 0 0 1 240.01000274658202,210.1800292968751 z" id="svg_22"/><path class="cls-2" d="M251.59000274658206,210.60002929687516 a9.16,9.16 0 0 1 -2.68,-1.82 l-0.15000000000000002,2.13 H247.32000274658202 v-16.2 h1.6500000000000001 v12.57 a7.46,7.46 0 0 0 5.49,2.52 a3.7,3.7 0 0 0 4.26,-4.26 v-10.83 h1.6500000000000001 v10.74 a6,6 0 0 1 -1.3800000000000001,4.3100000000000005 a5.24,5.24 0 0 1 -4,1.45 A8.59,8.59 0 0 1 251.59000274658206,210.60002929687516 z" id="svg_23"/><path class="cls-2" d="M254.12000274658203,188.83002929687518 h-2.37 v-1.26 h3.6900000000000004 v2.88 H262.12000274658203 l-0.09000000000000002,1.29 H254.12000274658203 z" id="svg_24"/><path class="cls-2" d="M265.12000274658203,210.1800292968751 a2.83,2.83 0 0 1 -0.6700000000000002,-2 v-7.8 a5.38,5.38 0 0 1 0.36000000000000004,-2 a5.15,5.15 0 0 1 0.8500000000000001,-1.4300000000000002 a17.62,17.62 0 0 1 1.31,-1.33 a8.53,8.53 0 0 0 1.18,-1.21 a1.83,1.83 0 0 0 0.38000000000000006,-1.13 a1.6400000000000001,1.6400000000000001 0 0 0 -0.5700000000000001,-1.44 a3.3200000000000003,3.3200000000000003 0 0 0 -1.83,-0.39000000000000007 a6.93,6.93 0 0 0 -3.39,0.93 v-1.35 a7.14,7.14 0 0 1 1.81,-0.7300000000000001 a8,8 0 0 1 2,-0.26 a4,4 0 0 1 2.7600000000000002,0.8200000000000001 a3,3 0 0 1 0.9,2.34 a2.67,2.67 0 0 1 -0.45,1.57 a8.88,8.88 0 0 1 -1.3800000000000001,1.48 a9.77,9.77 0 0 0 -1.6800000000000002,1.86 a4.13,4.13 0 0 0 -0.5700000000000001,2.29 v7.52 a1.73,1.73 0 0 0 0.39000000000000007,1.25 a1.55,1.55 0 0 0 1.17,0.4 H269.12000274658203 v1.3800000000000001 h-2.1 A2.47,2.47 0 0 1 265.12000274658203,210.1800292968751 z" id="svg_25"/><path class="cls-2" d="M274.48000274658204,209.780029296875 a5.32,5.32 0 0 1 -1.6300000000000001,-4.21 V202.780029296875 a3.41,3.41 0 0 1 0.45,-1.6400000000000001 a15.43,15.43 0 0 1 1.26,-1.9 q0.6300000000000001,-0.8700000000000001 0.93,-1.3800000000000001 a1.9,1.9 0 0 0 0.30000000000000004,-0.9400000000000001 a1,1 0 0 0 -0.2,-0.7200000000000001 a1.22,1.22 0 0 0 -0.79,-0.17 h-2.25 l0.15000000000000002,-1.36 h2.88 a1.82,1.82 0 0 1 1.3900000000000001,0.5 a2,2 0 0 1 0.47000000000000003,1.4 a3.12,3.12 0 0 1 -0.38000000000000006,1.46 a14,14 0 0 1 -1.09,1.71 a16.46,16.46 0 0 0 -1.11,1.75 a3.06,3.06 0 0 0 -0.36000000000000004,1.4300000000000002 v2.88 a3.55,3.55 0 0 0 1.24,3 a6.61,6.61 0 0 0 6.86,0 a3.58,3.58 0 0 0 1.23,-3 v-2.14 a4.22,4.22 0 0 0 -0.6300000000000001,-2.68 a2.94,2.94 0 0 0 -2.31,-0.7400000000000001 h-0.8400000000000001 l0.12000000000000001,-1.35 h0.7200000000000001 a2.79,2.79 0 0 0 2.3200000000000003,-0.79 a4.22,4.22 0 0 0 0.6200000000000001,-2.5700000000000003 v-1.1400000000000001 h1.6500000000000001 v1.12 a6.06,6.06 0 0 1 -0.48000000000000004,2.6500000000000004 a2.83,2.83 0 0 1 -1.83,1.3900000000000001 a3,3 0 0 1 1.87,1.4300000000000002 a6.6,6.6 0 0 1 0.44000000000000006,2.68 v1.8900000000000001 a5.25,5.25 0 0 1 -1.6800000000000002,4.21 a8.31,8.31 0 0 1 -9.32,0 z" id="svg_26"/><path class="cls-2" d="M279.30000274658204,188.83002929687518 h-2.37 v-1.26 h3.6900000000000004 v2.88 h6.63 L287.12000274658203,191.780029296875 h-7.86 z" id="svg_27"/><path class="cls-2" d="M290.80000274658204,210.0600292968752 a4.28,4.28 0 0 1 -1.42,-3.5300000000000002 a4.42,4.42 0 0 1 1.5,-3.55 a7,7 0 0 1 4.59,-1.28 h5.7 v-1.59 a5.76,5.76 0 0 0 -0.45,-2.5 a2.72,2.72 0 0 0 -1.52,-1.33 a8.16,8.16 0 0 0 -3,-0.42000000000000004 a16.09,16.09 0 0 0 -5.1,0.7500000000000001 v-1.4100000000000001 a17,17 0 0 1 5.46,-0.79 a10.94,10.94 0 0 1 2.7,0.30000000000000004 h4.890000000000001 l-0.09000000000000002,1.4100000000000001 h-2.43 a6.06,6.06 0 0 1 1.17,4 v10.74 h-1.6500000000000001 v-7.8 h-5.58 a5.93,5.93 0 0 0 -3.51,0.8300000000000001 a3,3 0 0 0 -1.11,2.59 a3,3 0 0 0 1,2.5 a5.14,5.14 0 0 0 3.11,0.77 a7.74,7.74 0 0 0 2,-0.23 v1.4 a11.3,11.3 0 0 1 -2.49,0.24000000000000002 A5.91,5.91 0 0 1 290.80000274658204,210.0600292968752 z" id="svg_28"/><path class="cls-2" d="M310.17000274658204,210.9000292968749 a17,17 0 0 1 -2.73,-0.77 v-8 h5.46 l0.09000000000000002,1.4100000000000001 H309.12000274658203 v5.51 a12.45,12.45 0 0 0 4.2,0.7200000000000001 a7,7 0 0 0 3.36,-0.6900000000000002 a4,4 0 0 0 1.83,-2.2 a11.86,11.86 0 0 0 0.5700000000000001,-4.07 a11.73,11.73 0 0 0 -0.5900000000000001,-4.14 a3.9,3.9 0 0 0 -1.9300000000000002,-2.17 a8.45,8.45 0 0 0 -3.72,-0.6700000000000002 a16.19,16.19 0 0 0 -5.13,0.7500000000000001 v-1.4100000000000001 a17.08,17.08 0 0 1 5.58,-0.79 q4,0 5.68,2 t1.73,6.39 q0,4.23 -1.73,6.3100000000000005 c-1.15,1.3800000000000001 -3,2.06 -5.5600000000000005,2.06 A16.18,16.18 0 0 1 310.17000274658204,210.9000292968749 z" id="svg_29"/><path class="cls-2" d="M325.690002746582,210.0000292968748 a4,4 0 0 1 -1.75,-3.55 a4.3,4.3 0 0 1 0.7000000000000001,-2.54 a4,4 0 0 1 2,-1.46 a3.33,3.33 0 0 1 -1.8800000000000001,-1.23 a3.9,3.9 0 0 1 -0.7000000000000001,-2.43 a4.14,4.14 0 0 1 1.24,-3.26 a4.68,4.68 0 0 1 3.26,-1.12 a9.49,9.49 0 0 1 2.37,0.30000000000000004 v1.4100000000000001 a7.08,7.08 0 0 0 -2,-0.26 c-2.12,0 -3.18,1 -3.18,2.93 s1.19,3 3.5700000000000003,3 h1.7400000000000002 l0.15000000000000002,1.32 h-2 a3.7600000000000002,3.7600000000000002 0 0 0 -2.67,0.8700000000000001 a3.25,3.25 0 0 0 -0.93,2.5 c0,2.24 1.7200000000000002,3.35 5.16,3.35 a5.84,5.84 0 0 0 3.7600000000000002,-1 a3.81,3.81 0 0 0 1.25,-3.15 v-10.92 h1.6500000000000001 v10 a7,7 0 0 1 -1.5,4.92 q-1.5,1.62 -5.13,1.62 A8.86,8.86 0 0 1 325.690002746582,210.0000292968748 z" id="svg_30"/><path class="cls-2" d="M354.760002746582,210.1800292968751 a2.83,2.83 0 0 1 -0.6700000000000002,-2 v-11.22 a6.53,6.53 0 0 1 0.79,-3.3 a6,6 0 0 1 2.15,-2.19 h-5.43 v-1.3800000000000001 H359.12000274658203 v1.44 a5.52,5.52 0 0 0 -2.5700000000000003,2.19 a7.33,7.33 0 0 0 -0.79,3.66 v10.5 a1.73,1.73 0 0 0 0.39000000000000007,1.25 a1.55,1.55 0 0 0 1.17,0.4 h1.47 v1.3800000000000001 h-2.1 A2.47,2.47 0 0 1 354.760002746582,210.1800292968751 z" id="svg_31"/><path class="cls-2" d="M366.34000274658206,210.60002929687516 a9.16,9.16 0 0 1 -2.68,-1.82 l-0.15000000000000002,2.13 H362.12000274658203 v-16.2 h1.6500000000000001 v12.57 a7.46,7.46 0 0 0 5.49,2.52 a3.7,3.7 0 0 0 4.26,-4.26 v-10.83 H375.12000274658203 v10.74 a6,6 0 0 1 -1.3800000000000001,4.3100000000000005 a5.24,5.24 0 0 1 -4,1.45 A8.59,8.59 0 0 1 366.34000274658206,210.60002929687516 z" id="svg_32"/><path class="cls-2" d="M368.91000274658205,188.83002929687518 h-2.37 v-1.26 h3.6900000000000004 v2.88 h6.63 l-0.09000000000000002,1.29 h-7.86 z" id="svg_33"/><path class="cls-2" d="M379.59000274658206,194.71002929687484 h1.44 l0.15000000000000002,2.13 a9.870000000000001,9.870000000000001 0 0 1 2.7,-1.8 a8.49,8.49 0 0 1 3.42,-0.6300000000000001 a5.21,5.21 0 0 1 4,1.47 a6,6 0 0 1 1.3800000000000001,4.29 v10.74 h-1.6500000000000001 V200.08002929687518 a4.36,4.36 0 0 0 -1,-3.21 a4.47,4.47 0 0 0 -3.22,-1 a7.48,7.48 0 0 0 -5.49,2.51 v12.54 h-1.6500000000000001 z" id="svg_34"/><path class="cls-2" d="M389.640002746582,191.46002929687484 a2.8600000000000003,2.8600000000000003 0 0 1 0,-4 a2.84,2.84 0 0 1 2.07,-0.8300000000000001 a2.81,2.81 0 0 1 2,0.8300000000000001 a2.8600000000000003,2.8600000000000003 0 0 1 0,4 a2.8,2.8 0 0 1 -2,0.8200000000000001 A2.84,2.84 0 0 1 389.640002746582,191.46002929687484 zm3.25,-0.8400000000000001 a1.6900000000000002,1.6900000000000002 0 0 0 -1.18,-2.87 a1.6700000000000002,1.6700000000000002 0 0 0 -1.22,0.5 a1.6800000000000002,1.6800000000000002 0 0 0 0,2.37 a1.6600000000000001,1.6600000000000001 0 0 0 1.22,0.49000000000000005 A1.6,1.6 0 0 0 392.890002746582,190.62002929687515 z" id="svg_35"/><path class="cls-2" d="M404.010002746582,200.20002929687507 a7.63,7.63 0 0 0 -0.33000000000000007,-2.5 a2.45,2.45 0 0 0 -1.25,-1.3800000000000001 a6.09,6.09 0 0 0 -2.68,-0.46 a12.49,12.49 0 0 0 -2.1,0.19000000000000003 a9.45,9.45 0 0 0 -2,0.56 v-1.4100000000000001 a10.54,10.54 0 0 1 2.08,-0.5800000000000001 a14.57,14.57 0 0 1 2.36,-0.21000000000000002 a5.890000000000001,5.890000000000001 0 0 1 4.27,1.33 c0.8900000000000001,0.8700000000000001 1.34,2.3200000000000003 1.34,4.3100000000000005 v10.86 h-1.6500000000000001 z" id="svg_36"/><path class="cls-2" d="M410.800002746582,210.1800292968751 a2.83,2.83 0 0 1 -0.6700000000000002,-2 v-13.47 h1.6500000000000001 v13.17 a1.73,1.73 0 0 0 0.39000000000000007,1.25 a1.55,1.55 0 0 0 1.17,0.4 h1.47 v1.3800000000000001 h-2.1 A2.47,2.47 0 0 1 410.800002746582,210.1800292968751 z" id="svg_37"/><path class="cls-2" d="M420.010002746582,209.780029296875 a5.32,5.32 0 0 1 -1.6300000000000001,-4.21 V202.780029296875 a3.41,3.41 0 0 1 0.45,-1.6400000000000001 a15.43,15.43 0 0 1 1.26,-1.9 q0.6300000000000001,-0.8700000000000001 0.93,-1.3800000000000001 a1.9,1.9 0 0 0 0.30000000000000004,-0.9400000000000001 a1,1 0 0 0 -0.2,-0.7200000000000001 a1.22,1.22 0 0 0 -0.79,-0.17 H418.12000274658203 l0.15000000000000002,-1.36 H421.12000274658203 a1.82,1.82 0 0 1 1.3900000000000001,0.5 a2,2 0 0 1 0.47000000000000003,1.4 a3.12,3.12 0 0 1 -0.38000000000000006,1.46 a14,14 0 0 1 -1.09,1.71 a16.46,16.46 0 0 0 -1.11,1.75 a3.06,3.06 0 0 0 -0.36000000000000004,1.4300000000000002 v2.88 a3.55,3.55 0 0 0 1.24,3 a6.61,6.61 0 0 0 6.86,0 a3.58,3.58 0 0 0 1.23,-3 v-2.14 a4.22,4.22 0 0 0 -0.6300000000000001,-2.68 a2.94,2.94 0 0 0 -2.31,-0.7400000000000001 h-0.8400000000000001 l0.12000000000000001,-1.35 h0.7200000000000001 a2.79,2.79 0 0 0 2.3200000000000003,-0.79 a4.22,4.22 0 0 0 0.6200000000000001,-2.5700000000000003 v-1.1400000000000001 h1.6500000000000001 v1.12 a6.06,6.06 0 0 1 -0.48000000000000004,2.6500000000000004 a2.83,2.83 0 0 1 -1.83,1.3900000000000001 a3,3 0 0 1 1.87,1.4300000000000002 a6.6,6.6 0 0 1 0.44000000000000006,2.68 v1.8900000000000001 a5.25,5.25 0 0 1 -1.6800000000000002,4.21 a8.31,8.31 0 0 1 -9.32,0 z" id="svg_38"/><path class="cls-2" d="M419.790002746582,190.45002929687507 h6.48 v-2.6100000000000003 h1.35 v2.6100000000000003 h2 v-2.6100000000000003 h1.35 v3.9 H419.7000027465821 z" id="svg_39"/><path class="cls-2" d="M427.500002746582,183.530029296875 h-1.83 v-1.21 h3.09 v2.38 h4.59 l-0.06000000000000001,1.22 h-5.79 z" id="svg_40"/><path class="cls-2" d="M437.640002746582,210.9000292968749 a17,17 0 0 1 -2.73,-0.77 v-8 h5.46 l0.09000000000000002,1.4100000000000001 h-3.9 v5.51 a12.45,12.45 0 0 0 4.2,0.7200000000000001 a7,7 0 0 0 3.36,-0.6900000000000002 a4,4 0 0 0 1.83,-2.2 a11.86,11.86 0 0 0 0.5700000000000001,-4.07 a11.73,11.73 0 0 0 -0.5900000000000001,-4.14 a3.9,3.9 0 0 0 -1.9300000000000002,-2.17 a8.45,8.45 0 0 0 -3.72,-0.6700000000000002 a16.19,16.19 0 0 0 -5.13,0.7500000000000001 v-1.4100000000000001 a17.08,17.08 0 0 1 5.58,-0.79 q4,0 5.68,2 t1.73,6.39 q0,4.23 -1.73,6.3100000000000005 c-1.15,1.3800000000000001 -3,2.06 -5.5600000000000005,2.06 A16.18,16.18 0 0 1 437.640002746582,210.9000292968749 z" id="svg_41"/><path class="cls-2" d="M452.680002746582,210.1800292968751 a2.83,2.83 0 0 1 -0.6700000000000002,-2 v-13.47 h1.6500000000000001 v13.17 a1.73,1.73 0 0 0 0.39000000000000007,1.25 a1.55,1.55 0 0 0 1.17,0.4 h1.47 v1.3800000000000001 h-2.1 A2.47,2.47 0 0 1 452.680002746582,210.1800292968751 z" id="svg_42"/><path class="cls-2" d="M459.660002746582,194.71002929687484 h1.6800000000000002 l3,14.07 l3.87,-12.29 v-1.78 h1.23 l4,14.07 l3,-14.07 h1.6500000000000001 l-3.63,16.2 h-1.8 L469.12000274658203,198.32002929687496 l-4,12.59 h-1.8 z" id="svg_43"/><path class="cls-2" d="M482.5600027465821,210.0600292968752 a4.28,4.28 0 0 1 -1.42,-3.5300000000000002 a4.42,4.42 0 0 1 1.5,-3.55 a7,7 0 0 1 4.59,-1.28 h5.7 v-1.59 a5.76,5.76 0 0 0 -0.45,-2.5 a2.72,2.72 0 0 0 -1.52,-1.33 a8.16,8.16 0 0 0 -3,-0.42000000000000004 a16.09,16.09 0 0 0 -5.1,0.7500000000000001 v-1.4100000000000001 a17,17 0 0 1 5.46,-0.79 q3.3,0 4.77,1.3800000000000001 a5.78,5.78 0 0 1 1.47,4.38 v10.74 h-1.6500000000000001 v-7.8 h-5.58 a5.93,5.93 0 0 0 -3.51,0.8300000000000001 a3,3 0 0 0 -1.11,2.59 a3,3 0 0 0 1,2.5 a5.14,5.14 0 0 0 3.11,0.77 a7.74,7.74 0 0 0 2,-0.23 v1.4 a11.3,11.3 0 0 1 -2.49,0.24000000000000002 A5.91,5.91 0 0 1 482.5600027465821,210.0600292968752 z" id="svg_44"/><path class="cls-2" d="M483.33000274658207,190.45002929687507 h11.22 V191.780029296875 H483.24000274658204 z" id="svg_45"/><path class="cls-2" d="M503.010002746582,210.95002929687507 l-4.5600000000000005,-11.11 H500.12000274658203 l4.11,10 a7.2,7.2 0 0 0 0.7500000000000001,0 c3.58,0 5.37,-2.52 5.37,-7.59 a12.44,12.44 0 0 0 -0.42000000000000004,-3.63 a3.26,3.26 0 0 0 -1.4100000000000001,-1.9 a5.44,5.44 0 0 0 -2.7600000000000002,-0.5900000000000001 h-1 v-1.4100000000000001 h1.08 q3.33,0 4.71,1.79 t1.3800000000000001,5.71 c0,3.07 -0.6100000000000001,5.33 -1.82,6.8 a5.91,5.91 0 0 1 -4.8100000000000005,2.2 A7.19,7.19 0 0 1 503.010002746582,210.95002929687507 z" id="svg_46"/><path class="cls-2" d="M3.6400027465820273,246.1800292968751 a2.83,2.83 0 0 1 -0.6700000000000002,-2 v-11.22 a6.53,6.53 0 0 1 0.79,-3.3 a6,6 0 0 1 2.15,-2.19 h-5.43 v-1.3800000000000001 h7.5 v1.44 a5.52,5.52 0 0 0 -2.5700000000000003,2.19 a7.33,7.33 0 0 0 -0.79,3.66 v10.5 a1.73,1.73 0 0 0 0.39000000000000007,1.25 a1.55,1.55 0 0 0 1.17,0.4 h1.47 v1.3800000000000001 h-2.1 A2.47,2.47 0 0 1 3.6400027465820273,246.1800292968751 z" id="svg_47"/><path class="cls-2" d="M15.220002746582026,246.60002929687516 a9.16,9.16 0 0 1 -2.68,-1.82 l-0.15000000000000002,2.13 h-1.44 v-16.2 h1.6500000000000001 v12.57 A7.46,7.46 0 0 0 18.12000274658203,245.780029296875 a3.7,3.7 0 0 0 4.26,-4.26 v-10.83 h1.6500000000000001 v10.74 a6,6 0 0 1 -1.3800000000000001,4.3100000000000005 a5.24,5.24 0 0 1 -4,1.45 A8.59,8.59 0 0 1 15.220002746582026,246.60002929687516 z" id="svg_48"/><path class="cls-2" d="M17.79000274658202,224.83002929687518 H15.420002746582043 v-1.26 H19.12000274658203 v2.88 h6.63 l-0.09000000000000002,1.29 h-7.86 z" id="svg_49"/><path class="cls-2" d="M29.29000274658202,246.0600292968752 a4.28,4.28 0 0 1 -1.42,-3.5300000000000002 a4.42,4.42 0 0 1 1.5,-3.55 a7,7 0 0 1 4.59,-1.28 h5.7 v-1.59 a5.76,5.76 0 0 0 -0.45,-2.5 a2.72,2.72 0 0 0 -1.52,-1.33 a8.16,8.16 0 0 0 -3,-0.42000000000000004 a16.09,16.09 0 0 0 -5.1,0.7500000000000001 v-1.4100000000000001 a17,17 0 0 1 5.46,-0.79 a10.94,10.94 0 0 1 2.7,0.30000000000000004 h4.890000000000001 l-0.09000000000000002,1.4100000000000001 H40.12000274658203 a6.06,6.06 0 0 1 1.17,4 v10.74 h-1.6500000000000001 v-7.8 H34.12000274658203 a5.93,5.93 0 0 0 -3.51,0.8300000000000001 a3,3 0 0 0 -1.11,2.59 a3,3 0 0 0 1,2.5 a5.14,5.14 0 0 0 3.11,0.77 a7.74,7.74 0 0 0 2,-0.23 v1.4 a11.3,11.3 0 0 1 -2.49,0.24000000000000002 A5.91,5.91 0 0 1 29.29000274658202,246.0600292968752 z" id="svg_50"/><path class="cls-2" d="M48.64000274658204,247.02002929687478 a9.92,9.92 0 0 1 -2.26,-0.56 v-1.47 a14.08,14.08 0 0 0 4.86,0.81 a8.24,8.24 0 0 0 3.64,-0.6100000000000001 a2.34,2.34 0 0 0 1.19,-2.29 a2.55,2.55 0 0 0 -0.48000000000000004,-1.61 a3.21,3.21 0 0 0 -1.26,-1 a21.86,21.86 0 0 0 -2.22,-0.8 c-0.2,-0.08000000000000002 -0.5,-0.17 -0.9,-0.29000000000000004 a26.15,26.15 0 0 1 -2.7800000000000002,-1.06 a5,5 0 0 1 -1.77,-1.36 a3.42,3.42 0 0 1 -0.7300000000000001,-2.27 q0,-4.14 6,-4.14 a15.17,15.17 0 0 1 2.41,0.2 a13.18,13.18 0 0 1 2.18,0.52 v1.48 a12.19,12.19 0 0 0 -4.35,-0.7500000000000001 a8,8 0 0 0 -3.56,0.5800000000000001 a2.16,2.16 0 0 0 -1.09,2.09 a2.23,2.23 0 0 0 0.5700000000000001,1.57 a4.36,4.36 0 0 0 1.51,1 c0.6300000000000001,0.27 1.58,0.6100000000000001 2.84,1 a21.36,21.36 0 0 1 2.77,1.07 a5,5 0 0 1 1.7600000000000002,1.4100000000000001 a3.58,3.58 0 0 1 0.6900000000000002,2.26 a3.63,3.63 0 0 1 -1.6400000000000001,3.35 a8.73,8.73 0 0 1 -4.57,1 A20.12,20.12 0 0 1 48.64000274658204,247.02002929687478 z" id="svg_51"/><path class="cls-2" d="M50.88000274658202,224.83002929687518 h-2.37 v-1.26 h3.6900000000000004 v2.88 h6.63 l-0.09000000000000002,1.29 h-7.86 z" id="svg_52"/><path class="cls-2" d="M68.46000274658203,236.20002929687507 a7.63,7.63 0 0 0 -0.33000000000000007,-2.5 a2.45,2.45 0 0 0 -1.25,-1.3800000000000001 a6.09,6.09 0 0 0 -2.68,-0.46 a12.49,12.49 0 0 0 -2.1,0.19000000000000003 a9.45,9.45 0 0 0 -2,0.56 v-1.4100000000000001 a10.54,10.54 0 0 1 2.08,-0.5800000000000001 a14.57,14.57 0 0 1 2.36,-0.21000000000000002 a5.890000000000001,5.890000000000001 0 0 1 4.27,1.33 c0.8900000000000001,0.8700000000000001 1.34,2.3200000000000003 1.34,4.3100000000000005 v10.86 h-1.6500000000000001 z" id="svg_53"/><path class="cls-2" d="M78.54000274658202,246.95002929687507 l-4.5600000000000005,-11.11 h1.62 l4.11,10 a7.2,7.2 0 0 0 0.7500000000000001,0 c3.58,0 5.37,-2.52 5.37,-7.59 a12.44,12.44 0 0 0 -0.42000000000000004,-3.63 a3.26,3.26 0 0 0 -1.4100000000000001,-1.9 a5.44,5.44 0 0 0 -2.7600000000000002,-0.5900000000000001 h-1 v-1.4100000000000001 h1.08 q3.33,0 4.71,1.79 t1.3800000000000001,5.71 c0,3.07 -0.6100000000000001,5.33 -1.82,6.8 a5.91,5.91 0 0 1 -4.8100000000000005,2.2 A7.19,7.19 0 0 1 78.54000274658202,246.95002929687507 z" id="svg_54"/><path class="cls-2" d="M93.04000274658202,245.6600292968751 a6,6 0 0 1 -1.7200000000000002,-4.66 v-10.29 h1.6500000000000001 v10.5 c0,3.07 1.7200000000000002,4.59 5.16,4.59 s5.13,-1.52 5.13,-4.59 v-10.5 h1.6500000000000001 v10.29 a6,6 0 0 1 -1.73,4.640000000000001 a7.24,7.24 0 0 1 -5.05,1.57 A7.36,7.36 0 0 1 93.04000274658202,245.6600292968751 z" id="svg_55"/><path class="cls-2" d="M98.70000274658204,224.83002929687518 h-2.37 v-1.26 h3.6900000000000004 v2.88 h6.63 l-0.09000000000000002,1.29 h-7.86 z" id="svg_56"/><path class="cls-2" d="M116.28000274658203,236.20002929687507 a7.63,7.63 0 0 0 -0.33000000000000007,-2.5 a2.45,2.45 0 0 0 -1.25,-1.3800000000000001 a6.09,6.09 0 0 0 -2.68,-0.46 a12.49,12.49 0 0 0 -2.1,0.19000000000000003 a9.45,9.45 0 0 0 -2,0.56 v-1.4100000000000001 a10.54,10.54 0 0 1 2.08,-0.5800000000000001 a14.57,14.57 0 0 1 2.36,-0.21000000000000002 a5.890000000000001,5.890000000000001 0 0 1 4.27,1.33 c0.8900000000000001,0.8700000000000001 1.34,2.3200000000000003 1.34,4.3100000000000005 v10.86 h-1.6500000000000001 z" id="svg_57"/><path class="cls-2" d="M123.73000274658204,245.780029296875 a6.16,6.16 0 0 1 -1.33,-4.3100000000000005 v-10.74 h1.6500000000000001 v10.83 a4.54,4.54 0 0 0 1,3.23 a4.24,4.24 0 0 0 3.18,1 a7.55,7.55 0 0 0 5.58,-2.52 v-12.57 h1.6500000000000001 v16.2 h-1.44 l-0.15000000000000002,-2.13 a8.48,8.48 0 0 1 -6.18,2.43 A5.1,5.1 0 0 1 123.73000274658204,245.780029296875 z" id="svg_58"/><path class="cls-2" d="M150.72000274658205,230.71002929687484 h1.6800000000000002 l3,14.07 l3.87,-12.29 v-1.78 h1.23 l4,14.07 l3,-14.07 h1.6500000000000001 l-3.63,16.2 h-1.8 L160.12000274658203,234.32002929687496 l-4,12.59 h-1.8 z" id="svg_59"/><path class="cls-2" d="M156.45000274658202,226.45002929687507 h6.48 v-2.6100000000000003 h1.35 v2.6100000000000003 h2 v-2.6100000000000003 h1.35 v3.9 H156.36000274658204 z" id="svg_60"/><path class="cls-2" d="M174.12000274658203,245.780029296875 a5.32,5.32 0 0 1 -1.6300000000000001,-4.21 V238.780029296875 a3.41,3.41 0 0 1 0.45,-1.6400000000000001 a15.43,15.43 0 0 1 1.26,-1.9 q0.6300000000000001,-0.8700000000000001 0.93,-1.3800000000000001 a1.9,1.9 0 0 0 0.30000000000000004,-0.9400000000000001 a1,1 0 0 0 -0.2,-0.7200000000000001 a1.22,1.22 0 0 0 -0.79,-0.17 h-2.25 l0.15000000000000002,-1.36 h2.88 a1.82,1.82 0 0 1 1.3900000000000001,0.5 a2,2 0 0 1 0.47000000000000003,1.4 a3.12,3.12 0 0 1 -0.38000000000000006,1.46 a14,14 0 0 1 -1.09,1.71 a16.46,16.46 0 0 0 -1.11,1.75 a3.06,3.06 0 0 0 -0.36000000000000004,1.4300000000000002 v2.88 a3.55,3.55 0 0 0 1.24,3 a6.61,6.61 0 0 0 6.86,0 a3.58,3.58 0 0 0 1.23,-3 v-2.14 a4.22,4.22 0 0 0 -0.6300000000000001,-2.68 a2.94,2.94 0 0 0 -2.31,-0.7400000000000001 h-0.8400000000000001 l0.12000000000000001,-1.35 h0.7200000000000001 a2.79,2.79 0 0 0 2.3200000000000003,-0.79 a4.22,4.22 0 0 0 0.6200000000000001,-2.5700000000000003 v-1.1400000000000001 H185.12000274658203 v1.12 a6.06,6.06 0 0 1 -0.48000000000000004,2.6500000000000004 a2.83,2.83 0 0 1 -1.83,1.3900000000000001 a3,3 0 0 1 1.87,1.4300000000000002 a6.6,6.6 0 0 1 0.44000000000000006,2.68 v1.8900000000000001 a5.25,5.25 0 0 1 -1.6800000000000002,4.21 a8.31,8.31 0 0 1 -9.32,0 z" id="svg_61"/><path class="cls-2" d="M201.330002746582,233.5000292968748 a2.91,2.91 0 0 1 0.7000000000000001,-2 a2.49,2.49 0 0 1 1.9100000000000001,-0.78 h2.2800000000000002 l0.06000000000000001,1.4100000000000001 h-1.71 a1.6400000000000001,1.6400000000000001 0 0 0 -1.23,0.41000000000000003 a1.84,1.84 0 0 0 -0.39000000000000007,1.3 v10.89 l5.19,-9.06 h1 l5.19,9.06 v-14 h1.62 v16.2 H214.12000274658203 l-5.46,-9.57 l-5.49,9.57 h-1.83 z" id="svg_62"/><path class="cls-2" d="M209.94000274658202,224.17002929687487 h1.47 v2.2800000000000002 h8.37 l-0.09000000000000002,1.29 h-9.75 z" id="svg_63"/><path class="cls-2" d="M220.86000274658204,239.62002929687515 a3.2,3.2 0 0 1 2.49,-3.26 l-3.54,-0.79 v-2.4 a9.34,9.34 0 0 1 3.07,-2 a10.81,10.81 0 0 1 4.25,-0.79 a7.5,7.5 0 0 1 5.11,1.49 a5.61,5.61 0 0 1 1.6700000000000002,4.42 v10.59 h-1.6500000000000001 v-10.67 a4.17,4.17 0 0 0 -1.22,-3.38 a6.11,6.11 0 0 0 -3.91,-1 a10.2,10.2 0 0 0 -3.41,0.55 a5.91,5.91 0 0 0 -2.41,1.45 v0.8400000000000001 l3.6,0.79 v1.4300000000000002 a3.36,3.36 0 0 0 -1.8,0.9400000000000001 a2.62,2.62 0 0 0 -0.6000000000000001,1.85 v7.2 h-1.6500000000000001 z" id="svg_64"/><path class="cls-2" d="M249.18000274658203,230.71002929687484 h1.6800000000000002 l3,14.07 l3.87,-12.29 v-1.78 h1.23 l4.05,14.07 l3,-14.07 h1.6500000000000001 l-3.63,16.2 h-1.8 l-3.66,-12.59 l-4,12.59 h-1.8 z" id="svg_65"/><path class="cls-2" d="M254.91000274658205,226.45002929687507 h6.48 v-2.6100000000000003 h1.35 v2.6100000000000003 h2 v-2.6100000000000003 H266.12000274658203 v3.9 H254.82000274658202 z" id="svg_66"/><path class="cls-2" d="M272.59000274658206,245.780029296875 a5.32,5.32 0 0 1 -1.6300000000000001,-4.21 V238.780029296875 a3.41,3.41 0 0 1 0.45,-1.6400000000000001 a15.43,15.43 0 0 1 1.26,-1.9 q0.6300000000000001,-0.8700000000000001 0.93,-1.3800000000000001 a1.9,1.9 0 0 0 0.30000000000000004,-0.9400000000000001 a1,1 0 0 0 -0.2,-0.7200000000000001 a1.22,1.22 0 0 0 -0.79,-0.17 h-2.25 l0.15000000000000002,-1.36 h2.88 a1.82,1.82 0 0 1 1.3900000000000001,0.5 a2,2 0 0 1 0.47000000000000003,1.4 a3.12,3.12 0 0 1 -0.38000000000000006,1.46 A14,14 0 0 1 274.12000274658203,235.780029296875 a16.46,16.46 0 0 0 -1.11,1.75 a3.06,3.06 0 0 0 -0.36000000000000004,1.4300000000000002 v2.88 a3.55,3.55 0 0 0 1.24,3 a6.61,6.61 0 0 0 6.86,0 a3.58,3.58 0 0 0 1.23,-3 v-2.14 a4.22,4.22 0 0 0 -0.6300000000000001,-2.68 a2.94,2.94 0 0 0 -2.31,-0.7400000000000001 H278.12000274658203 l0.12000000000000001,-1.35 h0.7200000000000001 a2.79,2.79 0 0 0 2.3200000000000003,-0.79 a4.22,4.22 0 0 0 0.6200000000000001,-2.5700000000000003 v-1.1400000000000001 h1.6500000000000001 v1.12 a6.06,6.06 0 0 1 -0.48000000000000004,2.6500000000000004 a2.83,2.83 0 0 1 -1.83,1.3900000000000001 a3,3 0 0 1 1.87,1.4300000000000002 a6.6,6.6 0 0 1 0.44000000000000006,2.68 v1.8900000000000001 a5.25,5.25 0 0 1 -1.6800000000000002,4.21 a8.31,8.31 0 0 1 -9.32,0 z" id="svg_67"/><path class="cls-2" d="M289.30000274658204,246.1800292968751 a2.83,2.83 0 0 1 -0.6700000000000002,-2 v-11.22 a6.53,6.53 0 0 1 0.79,-3.3 a6,6 0 0 1 2.15,-2.19 H286.12000274658203 v-1.3800000000000001 h7.5 v1.44 a5.52,5.52 0 0 0 -2.5700000000000003,2.19 a7.33,7.33 0 0 0 -0.79,3.66 v10.5 a1.73,1.73 0 0 0 0.39000000000000007,1.25 a1.55,1.55 0 0 0 1.17,0.4 h1.47 v1.3800000000000001 h-2.1 A2.47,2.47 0 0 1 289.30000274658204,246.1800292968751 z" id="svg_68"/><path class="cls-2" d="M298.72000274658205,247.02002929687478 a9.92,9.92 0 0 1 -2.26,-0.56 v-1.47 a14.08,14.08 0 0 0 4.86,0.81 a8.24,8.24 0 0 0 3.64,-0.6100000000000001 a2.34,2.34 0 0 0 1.19,-2.29 a2.55,2.55 0 0 0 -0.48000000000000004,-1.61 a3.21,3.21 0 0 0 -1.26,-1 a21.86,21.86 0 0 0 -2.22,-0.8 c-0.2,-0.08000000000000002 -0.5,-0.17 -0.9,-0.29000000000000004 a26.15,26.15 0 0 1 -2.7800000000000002,-1.06 a5,5 0 0 1 -1.77,-1.36 a3.42,3.42 0 0 1 -0.7300000000000001,-2.27 q0,-4.14 6,-4.14 a15.17,15.17 0 0 1 2.41,0.2 a13.18,13.18 0 0 1 2.18,0.52 v1.48 a12.19,12.19 0 0 0 -4.35,-0.7500000000000001 a8,8 0 0 0 -3.56,0.5800000000000001 a2.16,2.16 0 0 0 -1.09,2.09 a2.23,2.23 0 0 0 0.5700000000000001,1.57 a4.36,4.36 0 0 0 1.51,1 c0.6300000000000001,0.27 1.58,0.6100000000000001 2.84,1 a21.36,21.36 0 0 1 2.77,1.07 a5,5 0 0 1 1.7600000000000002,1.4100000000000001 a3.58,3.58 0 0 1 0.6900000000000002,2.26 a3.63,3.63 0 0 1 -1.6400000000000001,3.35 a8.73,8.73 0 0 1 -4.57,1 A20.12,20.12 0 0 1 298.72000274658205,247.02002929687478 z" id="svg_69"/><path class="cls-2" d="M305.520002746582,222.95002929687507 h1.6500000000000001 V227.780029296875 H305.520002746582 z" id="svg_70"/><path class="cls-2" d="M322.440002746582,230.71002929687484 H324.12000274658203 l3,14.07 l3.87,-12.29 v-1.78 h1.23 l4.05,14.07 l3,-14.07 h1.6500000000000001 l-3.63,16.2 h-1.8 l-3.66,-12.59 l-4,12.59 H326.12000274658203 z" id="svg_71"/><path class="cls-2" d="M328.17000274658204,226.45002929687507 h6.48 v-2.6100000000000003 h1.35 v2.6100000000000003 h2 v-2.6100000000000003 h1.35 v3.9 H328.12000274658203 z" id="svg_72"/><path class="cls-2" d="M345.85000274658205,245.780029296875 a5.32,5.32 0 0 1 -1.6300000000000001,-4.21 V238.780029296875 a3.41,3.41 0 0 1 0.45,-1.6400000000000001 a15.43,15.43 0 0 1 1.26,-1.9 q0.6300000000000001,-0.8700000000000001 0.93,-1.3800000000000001 a1.9,1.9 0 0 0 0.30000000000000004,-0.9400000000000001 a1,1 0 0 0 -0.2,-0.7200000000000001 a1.22,1.22 0 0 0 -0.79,-0.17 H343.92000274658204 l0.15000000000000002,-1.36 h2.88 a1.82,1.82 0 0 1 1.3900000000000001,0.5 a2,2 0 0 1 0.47000000000000003,1.4 a3.12,3.12 0 0 1 -0.38000000000000006,1.46 a14,14 0 0 1 -1.09,1.71 a16.46,16.46 0 0 0 -1.11,1.75 a3.06,3.06 0 0 0 -0.36000000000000004,1.4300000000000002 v2.88 a3.55,3.55 0 0 0 1.24,3 a6.61,6.61 0 0 0 6.86,0 a3.58,3.58 0 0 0 1.23,-3 v-2.14 a4.22,4.22 0 0 0 -0.6300000000000001,-2.68 a2.94,2.94 0 0 0 -2.31,-0.7400000000000001 h-0.8400000000000001 l0.12000000000000001,-1.35 h0.7200000000000001 a2.79,2.79 0 0 0 2.3200000000000003,-0.79 a4.22,4.22 0 0 0 0.6200000000000001,-2.5700000000000003 v-1.1400000000000001 h1.6500000000000001 v1.12 a6.06,6.06 0 0 1 -0.48000000000000004,2.6500000000000004 a2.83,2.83 0 0 1 -1.83,1.3900000000000001 a3,3 0 0 1 1.87,1.4300000000000002 a6.6,6.6 0 0 1 0.44000000000000006,2.68 v1.8900000000000001 a5.25,5.25 0 0 1 -1.6800000000000002,4.21 a8.31,8.31 0 0 1 -9.32,0 z" id="svg_73"/><path class="cls-2" d="M362.17000274658204,246.0600292968752 a4.28,4.28 0 0 1 -1.42,-3.5300000000000002 a4.42,4.42 0 0 1 1.5,-3.55 a7,7 0 0 1 4.59,-1.28 h5.7 v-1.59 a5.76,5.76 0 0 0 -0.45,-2.5 a2.72,2.72 0 0 0 -1.52,-1.33 a8.16,8.16 0 0 0 -3,-0.42000000000000004 a16.09,16.09 0 0 0 -5.1,0.7500000000000001 v-1.4100000000000001 a17,17 0 0 1 5.46,-0.79 a10.94,10.94 0 0 1 2.7,0.30000000000000004 h4.890000000000001 l-0.09000000000000002,1.4100000000000001 H373.020002746582 a6.06,6.06 0 0 1 1.17,4 v10.74 h-1.6500000000000001 v-7.8 h-5.58 a5.93,5.93 0 0 0 -3.51,0.8300000000000001 a3,3 0 0 0 -1.11,2.59 a3,3 0 0 0 1,2.5 a5.14,5.14 0 0 0 3.11,0.77 a7.74,7.74 0 0 0 2,-0.23 v1.4 a11.3,11.3 0 0 1 -2.49,0.24000000000000002 A5.91,5.91 0 0 1 362.17000274658204,246.0600292968752 z" id="svg_74"/><path class="cls-2" d="M383.68000274658203,246.60002929687516 a9.16,9.16 0 0 1 -2.68,-1.82 l-0.15000000000000002,2.13 h-1.44 v-16.2 h1.6500000000000001 v12.57 a7.46,7.46 0 0 0 5.49,2.52 a3.7,3.7 0 0 0 4.26,-4.26 v-10.83 h1.6500000000000001 v10.74 A6,6 0 0 1 391.12000274658203,245.780029296875 a5.24,5.24 0 0 1 -4,1.45 A8.59,8.59 0 0 1 383.68000274658203,246.60002929687516 z" id="svg_75"/><path class="cls-2" d="M390.93000274658203,250.21002929687484 h-2 l0.09000000000000002,-1.22 h3.45 v5.37 h-1.5 z" id="svg_76"/><path class="cls-2" d="M398.260002746582,245.780029296875 a6.16,6.16 0 0 1 -1.33,-4.3100000000000005 v-10.74 h1.6500000000000001 v10.83 a4.54,4.54 0 0 0 1,3.23 a4.24,4.24 0 0 0 3.18,1 a7.55,7.55 0 0 0 5.58,-2.52 v-12.57 h1.6500000000000001 v16.2 h-1.44 l-0.15000000000000002,-2.13 a8.48,8.48 0 0 1 -6.18,2.43 A5.1,5.1 0 0 1 398.260002746582,245.780029296875 z" id="svg_77"/><path class="cls-2" d="M415.660002746582,246.1800292968751 a2.83,2.83 0 0 1 -0.6700000000000002,-2 v-11.22 a6.53,6.53 0 0 1 0.79,-3.3 a6,6 0 0 1 2.15,-2.19 h-5.43 v-1.3800000000000001 h7.5 v1.44 a5.52,5.52 0 0 0 -2.5700000000000003,2.19 a7.33,7.33 0 0 0 -0.79,3.66 v10.5 a1.73,1.73 0 0 0 0.39000000000000007,1.25 a1.55,1.55 0 0 0 1.17,0.4 h1.47 v1.3800000000000001 h-2.1 A2.47,2.47 0 0 1 415.660002746582,246.1800292968751 z" id="svg_78"/><path class="cls-2" d="M422.12000274658203,230.71002929687484 h1.6800000000000002 l3,14.07 l3.87,-12.29 v-1.78 h1.23 l4,14.07 l3,-14.07 h1.6500000000000001 l-3.63,16.2 H435.12000274658203 l-3.66,-12.59 l-4,12.59 h-1.8 z" id="svg_79"/><path class="cls-2" d="M446.260002746582,247.02002929687478 a9.92,9.92 0 0 1 -2.26,-0.56 v-1.47 a14.08,14.08 0 0 0 4.86,0.81 a8.24,8.24 0 0 0 3.64,-0.6100000000000001 a2.34,2.34 0 0 0 1.19,-2.29 a2.55,2.55 0 0 0 -0.48000000000000004,-1.61 a3.21,3.21 0 0 0 -1.26,-1 a21.86,21.86 0 0 0 -2.22,-0.8 c-0.2,-0.08000000000000002 -0.5,-0.17 -0.9,-0.29000000000000004 a26.15,26.15 0 0 1 -2.7800000000000002,-1.06 a5,5 0 0 1 -1.77,-1.36 a3.42,3.42 0 0 1 -0.7300000000000001,-2.27 q0,-4.14 6,-4.14 a15.17,15.17 0 0 1 2.41,0.2 a13.18,13.18 0 0 1 2.18,0.52 v1.48 a12.19,12.19 0 0 0 -4.35,-0.7500000000000001 a8,8 0 0 0 -3.56,0.5800000000000001 a2.16,2.16 0 0 0 -1.09,2.09 a2.23,2.23 0 0 0 0.5700000000000001,1.57 a4.36,4.36 0 0 0 1.51,1 c0.6300000000000001,0.27 1.58,0.6100000000000001 2.84,1 a21.36,21.36 0 0 1 2.77,1.07 a5,5 0 0 1 1.7600000000000002,1.4100000000000001 a3.58,3.58 0 0 1 0.6900000000000002,2.26 a3.63,3.63 0 0 1 -1.6400000000000001,3.35 a8.73,8.73 0 0 1 -4.57,1 A20.12,20.12 0 0 1 446.260002746582,247.02002929687478 z" id="svg_80"/><path class="cls-2" d="M467.85000274658205,236.6600292968751 a7.36,7.36 0 0 1 -4.29,1.25 a5.3100000000000005,5.3100000000000005 0 0 1 -3.6500000000000004,-1.18 a3.92,3.92 0 0 1 -1.33,-3.07 a8,8 0 0 1 0.51,-3 h1.6500000000000001 a6.39,6.39 0 0 0 -0.5700000000000001,2.8600000000000003 a2.6900000000000004,2.6900000000000004 0 0 0 0.8700000000000001,2.14 a3.91,3.91 0 0 0 2.64,0.7600000000000001 a6.52,6.52 0 0 0 4.17,-1.26 v-4.5 h1.6500000000000001 v16.2 h-1.6500000000000001 z" id="svg_81"/><path class="cls-2" d="M474.790002746582,246.0600292968752 a4.28,4.28 0 0 1 -1.42,-3.5300000000000002 a4.42,4.42 0 0 1 1.5,-3.55 a7,7 0 0 1 4.59,-1.28 H485.12000274658203 v-1.59 a5.76,5.76 0 0 0 -0.45,-2.5 a2.72,2.72 0 0 0 -1.52,-1.33 a8.16,8.16 0 0 0 -3,-0.42000000000000004 a16.09,16.09 0 0 0 -5.1,0.7500000000000001 v-1.4100000000000001 a17,17 0 0 1 5.46,-0.79 q3.3,0 4.77,1.3800000000000001 a5.78,5.78 0 0 1 1.47,4.38 v10.74 H485.12000274658203 v-7.8 h-5.58 a5.93,5.93 0 0 0 -3.51,0.8300000000000001 a3,3 0 0 0 -1.11,2.59 a3,3 0 0 0 1,2.5 a5.14,5.14 0 0 0 3.11,0.77 a7.74,7.74 0 0 0 2,-0.23 v1.4 a11.3,11.3 0 0 1 -2.49,0.24000000000000002 A5.91,5.91 0 0 1 474.790002746582,246.0600292968752 z" id="svg_82"/><path class="cls-2" d="M499.9500027465821,236.6600292968751 a7.36,7.36 0 0 1 -4.29,1.25 a5.3100000000000005,5.3100000000000005 0 0 1 -3.6500000000000004,-1.18 a3.92,3.92 0 0 1 -1.33,-3.07 a8,8 0 0 1 0.51,-3 h1.6500000000000001 a6.39,6.39 0 0 0 -0.5700000000000001,2.8600000000000003 a2.6900000000000004,2.6900000000000004 0 0 0 0.8700000000000001,2.14 a3.91,3.91 0 0 0 2.64,0.7600000000000001 a6.52,6.52 0 0 0 4.17,-1.26 v-4.5 h1.6500000000000001 v16.2 h-1.6500000000000001 z" id="svg_83"/><path class="cls-2" d="M3.1200027465820312,282.1800292968751 a2.83,2.83 0 0 1 -0.6700000000000002,-2 v-13.47 H4.120002746582031 v13.17 a1.73,1.73 0 0 0 0.39000000000000007,1.25 a1.55,1.55 0 0 0 1.17,0.4 H7.120002746582031 v1.3800000000000001 h-2.1 A2.47,2.47 0 0 1 3.1200027465820312,282.1800292968751 z" id="svg_84"/><path class="cls-2" d="M10.120002746582031,266.71002929687484 h1.6800000000000002 l3,14.07 l3.87,-12.29 v-1.78 h1.23 l4,14.07 l3,-14.07 h1.6500000000000001 l-3.63,16.2 H23.12000274658203 l-3.66,-12.59 l-4,12.59 h-1.8 z" id="svg_85"/><path class="cls-2" d="M15.810002746582029,262.4500292968751 h6.48 v-2.6100000000000003 h1.35 v2.6100000000000003 h2 v-2.6100000000000003 h1.35 v3.9 H15.720002746582026 z" id="svg_86"/><path class="cls-2" d="M25.500002746582027,253.780029296875 h1.44 v4.14 h-1.44 z" id="svg_87"/><path class="cls-2" d="M34.29000274658202,282.9000292968749 a17,17 0 0 1 -2.73,-0.77 v-8 h5.46 l0.09000000000000002,1.4100000000000001 h-3.9 v5.51 a12.45,12.45 0 0 0 4.2,0.7200000000000001 a7,7 0 0 0 3.36,-0.6900000000000002 a4,4 0 0 0 1.83,-2.2 a11.86,11.86 0 0 0 0.5700000000000001,-4.07 a11.73,11.73 0 0 0 -0.5900000000000001,-4.14 a3.9,3.9 0 0 0 -1.9300000000000002,-2.17 a8.45,8.45 0 0 0 -3.72,-0.6700000000000002 a16.19,16.19 0 0 0 -5.13,0.7500000000000001 v-1.4100000000000001 a17.08,17.08 0 0 1 5.58,-0.79 q4,0 5.68,2 t1.73,6.39 q0,4.23 -1.73,6.3100000000000005 c-1.15,1.3800000000000001 -3,2.06 -5.5600000000000005,2.06 A16.18,16.18 0 0 1 34.29000274658202,282.9000292968749 z" id="svg_88"/><path class="cls-2" d="M49.12000274658203,275.62002929687515 a3.2,3.2 0 0 1 2.49,-3.26 l-3.54,-0.79 v-2.4 a9.34,9.34 0 0 1 3.07,-2 a10.81,10.81 0 0 1 4.25,-0.79 a7.5,7.5 0 0 1 5.11,1.49 a5.61,5.61 0 0 1 1.6700000000000002,4.42 v10.59 h-1.6500000000000001 v-10.67 a4.17,4.17 0 0 0 -1.22,-3.38 a6.11,6.11 0 0 0 -3.91,-1 a10.2,10.2 0 0 0 -3.41,0.55 a5.91,5.91 0 0 0 -2.41,1.45 v0.8400000000000001 l3.6,0.79 v1.4300000000000002 a3.36,3.36 0 0 0 -1.8,0.9400000000000001 a2.62,2.62 0 0 0 -0.6000000000000001,1.85 v7.2 H49.12000274658203 z" id="svg_89"/><path class="cls-2" d="M73.53000274658203,272.2000292968751 a7.63,7.63 0 0 0 -0.33000000000000007,-2.5 a2.45,2.45 0 0 0 -1.25,-1.3800000000000001 a6.09,6.09 0 0 0 -2.68,-0.46 a12.49,12.49 0 0 0 -2.1,0.19000000000000003 a9.45,9.45 0 0 0 -2,0.56 v-1.4100000000000001 a10.54,10.54 0 0 1 2.08,-0.5800000000000001 a14.57,14.57 0 0 1 2.36,-0.21000000000000002 a5.890000000000001,5.890000000000001 0 0 1 4.27,1.33 c0.8900000000000001,0.8700000000000001 1.34,2.3200000000000003 1.34,4.3100000000000005 v10.86 h-1.6500000000000001 z" id="svg_90"/><path class="cls-2" d="M81.76000274658202,283.0200292968748 a9.92,9.92 0 0 1 -2.26,-0.56 v-1.47 a14.08,14.08 0 0 0 4.86,0.81 a8.24,8.24 0 0 0 3.64,-0.6100000000000001 a2.34,2.34 0 0 0 1.19,-2.29 a2.55,2.55 0 0 0 -0.48000000000000004,-1.61 a3.21,3.21 0 0 0 -1.26,-1 a21.86,21.86 0 0 0 -2.22,-0.8 c-0.2,-0.08000000000000002 -0.5,-0.17 -0.9,-0.29000000000000004 a26.15,26.15 0 0 1 -2.7800000000000002,-1.06 a5,5 0 0 1 -1.77,-1.36 a3.42,3.42 0 0 1 -0.7300000000000001,-2.27 q0,-4.14 6,-4.14 a15.17,15.17 0 0 1 2.41,0.2 a13.18,13.18 0 0 1 2.18,0.52 v1.48 a12.19,12.19 0 0 0 -4.35,-0.7500000000000001 a8,8 0 0 0 -3.56,0.5800000000000001 a2.16,2.16 0 0 0 -1.09,2.09 a2.23,2.23 0 0 0 0.5700000000000001,1.57 a4.36,4.36 0 0 0 1.51,1 c0.6300000000000001,0.27 1.58,0.6100000000000001 2.84,1 a21.36,21.36 0 0 1 2.77,1.07 a5,5 0 0 1 1.7600000000000002,1.4100000000000001 a3.58,3.58 0 0 1 0.6900000000000002,2.26 a3.63,3.63 0 0 1 -1.6400000000000001,3.35 a8.73,8.73 0 0 1 -4.57,1 A20.12,20.12 0 0 1 81.76000274658202,283.0200292968748 z" id="svg_91"/><path class="cls-2" d="M96.40000274658203,281.6600292968751 a6,6 0 0 1 -1.7200000000000002,-4.66 v-10.29 h1.6500000000000001 v10.5 c0,3.07 1.7200000000000002,4.59 5.16,4.59 s5.13,-1.52 5.13,-4.59 v-10.5 h1.6500000000000001 v10.29 a6,6 0 0 1 -1.73,4.640000000000001 a7.24,7.24 0 0 1 -5,1.57 A7.36,7.36 0 0 1 96.40000274658203,281.6600292968751 z" id="svg_92"/><path class="cls-2" d="M114.85000274658202,283.0200292968748 a9.92,9.92 0 0 1 -2.26,-0.56 v-1.47 a14.08,14.08 0 0 0 4.86,0.81 a8.24,8.24 0 0 0 3.64,-0.6100000000000001 a2.34,2.34 0 0 0 1.19,-2.29 a2.55,2.55 0 0 0 -0.48000000000000004,-1.61 a3.21,3.21 0 0 0 -1.26,-1 a21.86,21.86 0 0 0 -2.22,-0.8 c-0.2,-0.08000000000000002 -0.5,-0.17 -0.9,-0.29000000000000004 a26.15,26.15 0 0 1 -2.7800000000000002,-1.06 a5,5 0 0 1 -1.77,-1.36 a3.42,3.42 0 0 1 -0.7300000000000001,-2.27 q0,-4.14 6,-4.14 a15.17,15.17 0 0 1 2.41,0.2 a13.18,13.18 0 0 1 2.18,0.52 v1.48 a12.19,12.19 0 0 0 -4.35,-0.7500000000000001 a8,8 0 0 0 -3.56,0.5800000000000001 a2.16,2.16 0 0 0 -1.09,2.09 a2.23,2.23 0 0 0 0.5700000000000001,1.57 a4.36,4.36 0 0 0 1.51,1 c0.6300000000000001,0.27 1.58,0.6100000000000001 2.84,1 a21.36,21.36 0 0 1 2.77,1.07 a5,5 0 0 1 1.7600000000000002,1.4100000000000001 a3.58,3.58 0 0 1 0.6900000000000002,2.26 a3.63,3.63 0 0 1 -1.6400000000000001,3.35 a8.73,8.73 0 0 1 -4.57,1 A20.12,20.12 0 0 1 114.85000274658202,283.0200292968748 z" id="svg_93"/><path class="cls-2" d="M112.05000274658204,262.4500292968751 h11.22 V263.780029296875 H111.96000274658203 z" id="svg_94"/><path class="cls-2" d="M129.76000274658202,282.1800292968751 a2.83,2.83 0 0 1 -0.6700000000000002,-2 v-11.15 a9.49,9.49 0 0 0 -0.30000000000000004,-2.6900000000000004 a3.41,3.41 0 0 0 -1,-1.58 a8,8 0 0 0 -2,-1.19 v-1.48 h7.68 v1.3800000000000001 h-5.55 a6,6 0 0 1 1.6900000000000002,1.28 a4.06,4.06 0 0 1 0.8400000000000001,1.77 a13.41,13.41 0 0 1 0.26,2.93 v9.77 a3.6900000000000004,3.6900000000000004 0 0 0 0.31000000000000005,1.79 a1.34,1.34 0 0 0 1.25,0.52 h1.47 v1.3800000000000001 h-2.1 A2.47,2.47 0 0 1 129.76000274658202,282.1800292968751 z" id="svg_95"/><path class="cls-2" d="M136.12000274658203,281.530029296875 h1.29 a1.33,1.33 0 0 0 1.06,-0.38000000000000006 a1.84,1.84 0 0 0 0.35000000000000003,-1.24 v-4.29 a4.19,4.19 0 0 1 0.46,-2.08 a2.62,2.62 0 0 1 1.61,-1.18 l-3.63,-0.79 v-2.4 a9.49,9.49 0 0 1 3.1,-2 a11.25,11.25 0 0 1 4.3100000000000005,-0.8 q3.45,0 5.08,1.49 a5.67,5.67 0 0 1 1.6400000000000001,4.42 v10.59 h-1.6500000000000001 v-10.67 a4.19,4.19 0 0 0 -1.2,-3.4 a6.07,6.07 0 0 0 -3.87,-1 a10.47,10.47 0 0 0 -3.44,0.55 a6.17,6.17 0 0 0 -2.47,1.45 v0.8400000000000001 l3.6900000000000004,0.79 v1.4300000000000002 a2.68,2.68 0 0 0 -1.55,0.92 a3.25,3.25 0 0 0 -0.43000000000000005,1.87 v4.26 a3.17,3.17 0 0 1 -0.6800000000000002,2.19 a2.54,2.54 0 0 1 -2,0.7500000000000001 H136.12000274658203 z" id="svg_96"/><path class="cls-2" d="M155.88000274658202,272.1700292968749 a5.43,5.43 0 0 1 1.6300000000000001,-4.3100000000000005 a7.51,7.51 0 0 1 5.06,-1.45 a7.38,7.38 0 0 1 5,1.45 a5.46,5.46 0 0 1 1.62,4.3100000000000005 v10.74 h-1.6500000000000001 v-11 a3.71,3.71 0 0 0 -1.25,-3.1 a6,6 0 0 0 -3.73,-1 a6.13,6.13 0 0 0 -3.8,1 a3.7,3.7 0 0 0 -1.24,3.1 v4.18 a5.87,5.87 0 0 1 3.81,-1.36 h2 l0.09000000000000002,1.3800000000000001 h-2.13 a5.87,5.87 0 0 0 -2,0.33000000000000007 a6.62,6.62 0 0 0 -1.78,1 v5.42 h-1.6500000000000001 z" id="svg_97"/><path class="cls-2" d="M174.34000274658206,282.1800292968751 a2.83,2.83 0 0 1 -0.6700000000000002,-2 v-13.47 h1.6500000000000001 v13.17 a1.73,1.73 0 0 0 0.39000000000000007,1.25 a1.55,1.55 0 0 0 1.17,0.4 h1.32 v1.3800000000000001 h-1.9500000000000002 A2.47,2.47 0 0 1 174.34000274658206,282.1800292968751 zm6.45,0 a2.83,2.83 0 0 1 -0.6700000000000002,-2 v-13.47 h1.6500000000000001 v12.51 a3.6900000000000004,3.6900000000000004 0 0 0 0.31000000000000005,1.79 a1.34,1.34 0 0 0 1.25,0.52 h1.32 v1.3800000000000001 h-1.9500000000000002 A2.47,2.47 0 0 1 180.79000274658205,282.1800292968751 z" id="svg_98"/><path class="cls-2" d="M189.34000274658206,282.0600292968752 a4.28,4.28 0 0 1 -1.42,-3.5300000000000002 a4.42,4.42 0 0 1 1.5,-3.55 a7,7 0 0 1 4.59,-1.28 h5.7 v-1.59 a5.76,5.76 0 0 0 -0.45,-2.5 a2.72,2.72 0 0 0 -1.52,-1.33 a8.16,8.16 0 0 0 -3,-0.42000000000000004 a16.09,16.09 0 0 0 -5.1,0.7500000000000001 v-1.4100000000000001 a17,17 0 0 1 5.46,-0.79 q3.3,0 4.77,1.3800000000000001 a5.78,5.78 0 0 1 1.47,4.38 v10.74 h-1.6500000000000001 v-7.8 H194.12000274658203 a5.93,5.93 0 0 0 -3.51,0.8300000000000001 a3,3 0 0 0 -1.11,2.59 a3,3 0 0 0 1,2.5 a5.14,5.14 0 0 0 3.11,0.77 a7.74,7.74 0 0 0 2,-0.23 v1.4 a11.3,11.3 0 0 1 -2.49,0.24000000000000002 A5.91,5.91 0 0 1 189.34000274658206,282.0600292968752 z" id="svg_99"/><path class="cls-2" d="M205.23000274658204,269.62002929687515 h1.47 v1.47 h4.890000000000001 l-0.06000000000000001,1.36 h-6.3 zm0,8.41 h1.47 v1.5 h4.890000000000001 l-0.06000000000000001,1.31 h-6.3 z" id="svg_100"/><path class="cls-2" d="M227.44000274658202,282.1800292968751 a2.83,2.83 0 0 1 -0.6700000000000002,-2 v-7.8 a5.38,5.38 0 0 1 0.36000000000000004,-2 a5.15,5.15 0 0 1 0.8500000000000001,-1.4300000000000002 a17.62,17.62 0 0 1 1.31,-1.33 a8.53,8.53 0 0 0 1.18,-1.21 a1.83,1.83 0 0 0 0.38000000000000006,-1.13 a1.6400000000000001,1.6400000000000001 0 0 0 -0.5700000000000001,-1.44 a3.3200000000000003,3.3200000000000003 0 0 0 -1.83,-0.39000000000000007 a6.93,6.93 0 0 0 -3.39,0.93 v-1.35 a7.14,7.14 0 0 1 1.81,-0.7300000000000001 a8,8 0 0 1 2,-0.26 a4,4 0 0 1 2.7600000000000002,0.8200000000000001 a3,3 0 0 1 0.9,2.34 a2.67,2.67 0 0 1 -0.45,1.57 a8.88,8.88 0 0 1 -1.3800000000000001,1.48 a9.77,9.77 0 0 0 -1.6800000000000002,1.86 a4.13,4.13 0 0 0 -0.5700000000000001,2.29 v7.52 a1.73,1.73 0 0 0 0.39000000000000007,1.25 a1.55,1.55 0 0 0 1.17,0.4 h1.47 v1.3800000000000001 h-2.1 A2.47,2.47 0 0 1 227.44000274658202,282.1800292968751 z" id="svg_101"/><path class="cls-2" d="M236.80000274658204,281.780029296875 a5.32,5.32 0 0 1 -1.6300000000000001,-4.21 V274.780029296875 a3.41,3.41 0 0 1 0.45,-1.6400000000000001 a15.43,15.43 0 0 1 1.26,-1.9 q0.6300000000000001,-0.8700000000000001 0.93,-1.3800000000000001 a1.9,1.9 0 0 0 0.30000000000000004,-0.9400000000000001 a1,1 0 0 0 -0.2,-0.7200000000000001 a1.22,1.22 0 0 0 -0.79,-0.17 h-2.25 l0.15000000000000002,-1.36 h2.88 a1.82,1.82 0 0 1 1.3900000000000001,0.5 a2,2 0 0 1 0.47000000000000003,1.4 a3.12,3.12 0 0 1 -0.38000000000000006,1.46 a14,14 0 0 1 -1.09,1.71 a16.46,16.46 0 0 0 -1.11,1.75 a3.06,3.06 0 0 0 -0.36000000000000004,1.4300000000000002 v2.88 a3.55,3.55 0 0 0 1.24,3 a6.61,6.61 0 0 0 6.86,0 a3.58,3.58 0 0 0 1.23,-3 v-2.14 a4.22,4.22 0 0 0 -0.6300000000000001,-2.68 a2.94,2.94 0 0 0 -2.31,-0.7400000000000001 h-0.8400000000000001 l0.12000000000000001,-1.35 h0.7200000000000001 a2.79,2.79 0 0 0 2.3200000000000003,-0.79 a4.22,4.22 0 0 0 0.6200000000000001,-2.5700000000000003 v-1.1400000000000001 h1.6500000000000001 v1.12 a6.06,6.06 0 0 1 -0.48000000000000004,2.6500000000000004 a2.83,2.83 0 0 1 -1.83,1.3900000000000001 a3,3 0 0 1 1.87,1.4300000000000002 a6.6,6.6 0 0 1 0.44000000000000006,2.68 v1.8900000000000001 A5.25,5.25 0 0 1 246.12000274658203,281.780029296875 a8.31,8.31 0 0 1 -9.32,0 z" id="svg_102"/><path class="cls-2" d="M241.62000274658203,260.8300292968752 h-2.37 v-1.26 h3.6900000000000004 v2.88 h6.63 l-0.09000000000000002,1.29 H241.62000274658203 z" id="svg_103"/><path class="cls-2" d="M253.12000274658203,282.0600292968752 a4.28,4.28 0 0 1 -1.42,-3.5300000000000002 a4.42,4.42 0 0 1 1.5,-3.55 a7,7 0 0 1 4.59,-1.28 h5.7 v-1.59 a5.76,5.76 0 0 0 -0.45,-2.5 a2.72,2.72 0 0 0 -1.52,-1.33 a8.16,8.16 0 0 0 -3,-0.42000000000000004 a16.09,16.09 0 0 0 -5.1,0.7500000000000001 v-1.4100000000000001 a17,17 0 0 1 5.46,-0.79 a10.94,10.94 0 0 1 2.7,0.30000000000000004 h4.890000000000001 l-0.09000000000000002,1.4100000000000001 h-2.43 a6.06,6.06 0 0 1 1.17,4 v10.74 h-1.6500000000000001 v-7.8 h-5.58 a5.93,5.93 0 0 0 -3.51,0.8300000000000001 a3,3 0 0 0 -1.11,2.59 a3,3 0 0 0 1,2.5 a5.14,5.14 0 0 0 3.11,0.77 a7.74,7.74 0 0 0 2,-0.23 v1.4 a11.3,11.3 0 0 1 -2.49,0.24000000000000002 A5.91,5.91 0 0 1 253.12000274658203,282.0600292968752 z" id="svg_104"/><path class="cls-2" d="M272.49000274658204,282.9000292968749 a17,17 0 0 1 -2.73,-0.77 v-8 h5.46 l0.09000000000000002,1.4100000000000001 h-3.9 v5.51 a12.45,12.45 0 0 0 4.2,0.7200000000000001 a7,7 0 0 0 3.36,-0.6900000000000002 a4,4 0 0 0 1.83,-2.2 a11.86,11.86 0 0 0 0.5700000000000001,-4.07 a11.73,11.73 0 0 0 -0.5900000000000001,-4.14 a3.9,3.9 0 0 0 -1.9300000000000002,-2.17 a8.45,8.45 0 0 0 -3.72,-0.6700000000000002 a16.19,16.19 0 0 0 -5.13,0.7500000000000001 v-1.4100000000000001 a17.08,17.08 0 0 1 5.58,-0.79 q4,0 5.68,2 t1.73,6.39 q0,4.23 -1.73,6.3100000000000005 c-1.15,1.3800000000000001 -3,2.06 -5.5600000000000005,2.06 A16.18,16.18 0 0 1 272.49000274658204,282.9000292968749 z" id="svg_105"/><path class="cls-2" d="M288.010002746582,282.0000292968748 a4,4 0 0 1 -1.75,-3.55 a4.3,4.3 0 0 1 0.7000000000000001,-2.54 a4,4 0 0 1 2,-1.46 a3.33,3.33 0 0 1 -1.8800000000000001,-1.23 a3.9,3.9 0 0 1 -0.7000000000000001,-2.43 a4.14,4.14 0 0 1 1.24,-3.26 a4.68,4.68 0 0 1 3.26,-1.12 a9.49,9.49 0 0 1 2.37,0.30000000000000004 v1.4100000000000001 a7.08,7.08 0 0 0 -2,-0.26 c-2.12,0 -3.18,1 -3.18,2.93 s1.19,3 3.5700000000000003,3 h1.7400000000000002 l0.15000000000000002,1.32 h-2 a3.7600000000000002,3.7600000000000002 0 0 0 -2.67,0.8700000000000001 a3.25,3.25 0 0 0 -0.93,2.5 c0,2.24 1.7200000000000002,3.35 5.16,3.35 a5.84,5.84 0 0 0 3.7600000000000002,-1 a3.81,3.81 0 0 0 1.25,-3.15 v-10.92 h1.6500000000000001 v10 a7,7 0 0 1 -1.5,4.92 q-1.5,1.62 -5.13,1.62 A8.86,8.86 0 0 1 288.010002746582,282.0000292968748 z" id="svg_106"/><path class="cls-2" d="M306.30000274658204,282.9000292968749 a17,17 0 0 1 -2.73,-0.77 v-8 h5.46 l0.09000000000000002,1.4100000000000001 h-3.9 v5.51 a12.45,12.45 0 0 0 4.2,0.7200000000000001 a7,7 0 0 0 3.36,-0.6900000000000002 a4,4 0 0 0 1.83,-2.2 a11.86,11.86 0 0 0 0.5700000000000001,-4.07 a11.73,11.73 0 0 0 -0.5900000000000001,-4.14 a3.9,3.9 0 0 0 -1.9300000000000002,-2.17 a8.45,8.45 0 0 0 -3.72,-0.6700000000000002 a16.19,16.19 0 0 0 -5.13,0.7500000000000001 v-1.4100000000000001 a17.08,17.08 0 0 1 5.58,-0.79 q4,0 5.68,2 t1.73,6.39 q0,4.23 -1.73,6.3100000000000005 c-1.15,1.3800000000000001 -3,2.06 -5.5600000000000005,2.06 A16.18,16.18 0 0 1 306.30000274658204,282.9000292968749 z" id="svg_107"/><path class="cls-2" d="M321.820002746582,282.0000292968748 a4,4 0 0 1 -1.75,-3.55 a4.3,4.3 0 0 1 0.7000000000000001,-2.54 a4,4 0 0 1 2,-1.46 a3.33,3.33 0 0 1 -1.8800000000000001,-1.23 a3.9,3.9 0 0 1 -0.7000000000000001,-2.43 a4.14,4.14 0 0 1 1.24,-3.26 a4.68,4.68 0 0 1 3.26,-1.12 a9.49,9.49 0 0 1 2.37,0.30000000000000004 v1.4100000000000001 a7.08,7.08 0 0 0 -2,-0.26 c-2.12,0 -3.18,1 -3.18,2.93 s1.19,3 3.5700000000000003,3 H327.12000274658203 l0.15000000000000002,1.32 h-2 a3.7600000000000002,3.7600000000000002 0 0 0 -2.67,0.8700000000000001 a3.25,3.25 0 0 0 -0.93,2.5 c0,2.24 1.7200000000000002,3.35 5.16,3.35 a5.84,5.84 0 0 0 3.7600000000000002,-1 a3.81,3.81 0 0 0 1.25,-3.15 v-10.92 h1.6500000000000001 v10 a7,7 0 0 1 -1.5,4.92 q-1.5,1.62 -5.13,1.62 A8.86,8.86 0 0 1 321.820002746582,282.0000292968748 z" id="svg_108"/><path class="cls-2" d="M331.86000274658204,258.9500292968751 h1.6500000000000001 V263.780029296875 h-1.6500000000000001 z" id="svg_109"/><path class="cls-2" d="M344.880002746582,272.2000292968751 a7.63,7.63 0 0 0 -0.33000000000000007,-2.5 a2.45,2.45 0 0 0 -1.25,-1.3800000000000001 a6.09,6.09 0 0 0 -2.68,-0.46 a12.49,12.49 0 0 0 -2.1,0.19000000000000003 a9.45,9.45 0 0 0 -2,0.56 v-1.4100000000000001 a10.54,10.54 0 0 1 2.08,-0.5800000000000001 a14.57,14.57 0 0 1 2.36,-0.21000000000000002 a5.890000000000001,5.890000000000001 0 0 1 4.27,1.33 c0.8900000000000001,0.8700000000000001 1.34,2.3200000000000003 1.34,4.3100000000000005 v10.86 h-1.6500000000000001 z" id="svg_110"/><path class="cls-2" d="M354.960002746582,282.9500292968751 l-4.5600000000000005,-11.11 h1.62 l4.11,10 a7.2,7.2 0 0 0 0.7500000000000001,0 c3.58,0 5.37,-2.52 5.37,-7.59 a12.44,12.44 0 0 0 -0.42000000000000004,-3.63 a3.26,3.26 0 0 0 -1.4100000000000001,-1.9 a5.44,5.44 0 0 0 -2.7600000000000002,-0.5900000000000001 h-1 v-1.4100000000000001 h1.08 q3.33,0 4.71,1.79 t1.3800000000000001,5.71 c0,3.07 -0.6100000000000001,5.33 -1.82,6.8 a5.91,5.91 0 0 1 -4.8100000000000005,2.2 A7.19,7.19 0 0 1 354.960002746582,282.9500292968751 z" id="svg_111"/><path class="cls-2" d="M366.84000274658206,266.71002929687484 h1.6800000000000002 l3,14.07 l3.87,-12.29 v-1.78 h1.23 l4.05,14.07 l3,-14.07 h1.6500000000000001 l-3.63,16.2 h-1.8 l-3.66,-12.59 l-4,12.59 h-1.8 z" id="svg_112"/><path class="cls-2" d="M391.05000274658204,282.9000292968749 a17,17 0 0 1 -2.73,-0.77 v-8 h5.46 l0.09000000000000002,1.4100000000000001 h-3.9 v5.51 a12.45,12.45 0 0 0 4.2,0.7200000000000001 a7,7 0 0 0 3.36,-0.6900000000000002 a4,4 0 0 0 1.83,-2.2 a11.86,11.86 0 0 0 0.5700000000000001,-4.07 a11.73,11.73 0 0 0 -0.5900000000000001,-4.14 a3.9,3.9 0 0 0 -1.9300000000000002,-2.17 a8.45,8.45 0 0 0 -3.72,-0.6700000000000002 a16.19,16.19 0 0 0 -5.13,0.7500000000000001 v-1.4100000000000001 a17.08,17.08 0 0 1 5.58,-0.79 q4,0 5.68,2 t1.73,6.39 q0,4.23 -1.73,6.3100000000000005 c-1.15,1.3800000000000001 -3,2.06 -5.5600000000000005,2.06 A16.18,16.18 0 0 1 391.05000274658204,282.9000292968749 z" id="svg_113"/><path class="cls-2" d="M406.12000274658203,282.1800292968751 a2.83,2.83 0 0 1 -0.6700000000000002,-2 v-13.47 H407.12000274658203 v13.17 a1.73,1.73 0 0 0 0.39000000000000007,1.25 a1.55,1.55 0 0 0 1.17,0.4 H410.12000274658203 v1.3800000000000001 h-2.1 A2.47,2.47 0 0 1 406.12000274658203,282.1800292968751 z" id="svg_114"/><path class="cls-2" d="M413.12000274658203,266.71002929687484 h1.6800000000000002 l3,14.07 l3.87,-12.29 v-1.78 h1.23 l4,14.07 l3,-14.07 h1.6500000000000001 l-3.63,16.2 H426.12000274658203 l-3.66,-12.59 l-4,12.59 h-1.8 z" id="svg_115"/><path class="cls-2" d="M418.800002746582,262.4500292968751 h9.75 v-2.6100000000000003 h1.47 v3.9 H418.71000274658206 z" id="svg_116"/><path class="cls-2" d="M436.300002746582,282.0000292968748 a4,4 0 0 1 -1.75,-3.55 a4.3,4.3 0 0 1 0.7000000000000001,-2.54 a4,4 0 0 1 2,-1.46 a3.33,3.33 0 0 1 -1.8800000000000001,-1.23 a3.9,3.9 0 0 1 -0.7000000000000001,-2.43 a4.14,4.14 0 0 1 1.24,-3.26 a4.68,4.68 0 0 1 3.26,-1.12 a9.49,9.49 0 0 1 2.37,0.30000000000000004 v1.4100000000000001 a7.08,7.08 0 0 0 -2,-0.26 c-2.12,0 -3.18,1 -3.18,2.93 s1.19,3 3.5700000000000003,3 h1.7400000000000002 l0.15000000000000002,1.32 h-2 a3.7600000000000002,3.7600000000000002 0 0 0 -2.67,0.8700000000000001 a3.25,3.25 0 0 0 -0.93,2.5 c0,2.24 1.7200000000000002,3.35 5.16,3.35 a5.84,5.84 0 0 0 3.7600000000000002,-1 a3.81,3.81 0 0 0 1.25,-3.15 v-10.92 h1.6500000000000001 v10 a7,7 0 0 1 -1.5,4.92 q-1.5,1.62 -5.13,1.62 A8.86,8.86 0 0 1 436.300002746582,282.0000292968748 z" id="svg_117"/><path class="cls-2" d="M456.420002746582,282.9500292968751 l-4.5600000000000005,-11.11 h1.62 l4.11,10 a7.2,7.2 0 0 0 0.7500000000000001,0 c3.58,0 5.37,-2.52 5.37,-7.59 a12.44,12.44 0 0 0 -0.42000000000000004,-3.63 a3.26,3.26 0 0 0 -1.4100000000000001,-1.9 a5.44,5.44 0 0 0 -2.7600000000000002,-0.5900000000000001 h-1 v-1.4100000000000001 h1.08 q3.33,0 4.71,1.79 t1.3800000000000001,5.71 c0,3.07 -0.6100000000000001,5.33 -1.82,6.8 a5.91,5.91 0 0 1 -4.8100000000000005,2.2 A7.19,7.19 0 0 1 456.420002746582,282.9500292968751 z" id="svg_118"/><path class="cls-2" d="M480.900002746582,266.71002929687484 h1.6500000000000001 v5.46 h6 a4.12,4.12 0 0 0 3,-0.8700000000000001 a3.62,3.62 0 0 0 0.8700000000000001,-2.67 v-1.92 H494.12000274658203 v1.92 c0,2.31 -0.9,3.71 -2.7,4.23 a3,3 0 0 1 2,1.47 a6.36,6.36 0 0 1 0.5,2.74 v5.84 h-1.6500000000000001 v-5.73 a5.59,5.59 0 0 0 -0.35000000000000003,-2.19 a2,2 0 0 0 -1.15,-1.09 a6.61,6.61 0 0 0 -2.31,-0.32000000000000006 h-5.88 v9.33 h-1.6500000000000001 z" id="svg_119"/><path class="cls-2" d="M505.3200027465821,272.2000292968751 a7.63,7.63 0 0 0 -0.33000000000000007,-2.5 a2.45,2.45 0 0 0 -1.25,-1.3800000000000001 a6.09,6.09 0 0 0 -2.68,-0.46 a12.49,12.49 0 0 0 -2.1,0.19000000000000003 a9.45,9.45 0 0 0 -2,0.56 v-1.4100000000000001 a10.54,10.54 0 0 1 2.08,-0.5800000000000001 a14.57,14.57 0 0 1 2.36,-0.21000000000000002 a5.890000000000001,5.890000000000001 0 0 1 4.27,1.33 c0.8900000000000001,0.8700000000000001 1.34,2.3200000000000003 1.34,4.3100000000000005 v10.86 H505.3200027465821 z" id="svg_120"/><path class="cls-2" d="M511.890002746582,275.62002929687515 a3.2,3.2 0 0 1 2.49,-3.26 l-3.54,-0.79 v-2.4 a9.34,9.34 0 0 1 3.07,-2 a10.81,10.81 0 0 1 4.25,-0.79 a7.5,7.5 0 0 1 5.11,1.49 a5.61,5.61 0 0 1 1.6700000000000002,4.42 v10.59 h-1.6500000000000001 v-10.67 a4.17,4.17 0 0 0 -1.22,-3.38 a6.11,6.11 0 0 0 -3.91,-1 a10.2,10.2 0 0 0 -3.41,0.55 a5.91,5.91 0 0 0 -2.41,1.45 v0.8400000000000001 l3.6,0.79 v1.4300000000000002 a3.36,3.36 0 0 0 -1.8,0.9400000000000001 a2.62,2.62 0 0 0 -0.6000000000000001,1.85 v7.2 h-1.6500000000000001 z" id="svg_121"/><path class="cls-2" d="M3.1200027465820312,318.1800292968751 a2.83,2.83 0 0 1 -0.6700000000000002,-2 v-13.47 H4.120002746582031 v13.17 a1.73,1.73 0 0 0 0.39000000000000007,1.25 a1.55,1.55 0 0 0 1.17,0.4 H7.120002746582031 v1.3800000000000001 h-2.1 A2.47,2.47 0 0 1 3.1200027465820312,318.1800292968751 z" id="svg_122"/><path class="cls-2" d="M10.98000274658203,302.71002929687484 h1.6500000000000001 v5.46 h6 a4.12,4.12 0 0 0 3,-0.8700000000000001 a3.62,3.62 0 0 0 0.8700000000000001,-2.67 v-1.92 h1.6500000000000001 v1.92 c0,2.31 -0.9,3.71 -2.7,4.23 a3,3 0 0 1 2,1.47 a6.36,6.36 0 0 1 0.5,2.74 v5.84 H22.32000274658202 v-5.73 a5.59,5.59 0 0 0 -0.35000000000000003,-2.19 a2,2 0 0 0 -1.15,-1.09 a6.61,6.61 0 0 0 -2.31,-0.32000000000000006 h-5.88 v9.33 h-1.6500000000000001 z" id="svg_123"/><path class="cls-2" d="M29.32000274658202,318.0600292968752 a4.28,4.28 0 0 1 -1.42,-3.5300000000000002 a4.42,4.42 0 0 1 1.5,-3.55 a7,7 0 0 1 4.59,-1.28 h5.7 v-1.59 a5.76,5.76 0 0 0 -0.45,-2.5 a2.72,2.72 0 0 0 -1.52,-1.33 a8.16,8.16 0 0 0 -3,-0.42000000000000004 a16.09,16.09 0 0 0 -5.1,0.7500000000000001 v-1.4100000000000001 a17,17 0 0 1 5.46,-0.79 q3.3,0 4.77,1.3800000000000001 a5.78,5.78 0 0 1 1.47,4.38 v10.74 h-1.6500000000000001 v-7.8 H34.12000274658203 a5.93,5.93 0 0 0 -3.51,0.8300000000000001 a3,3 0 0 0 -1.11,2.59 a3,3 0 0 0 1,2.5 a5.14,5.14 0 0 0 3.11,0.77 a7.74,7.74 0 0 0 2,-0.23 v1.4 a11.3,11.3 0 0 1 -2.49,0.24000000000000002 A5.91,5.91 0 0 1 29.32000274658202,318.0600292968752 z" id="svg_124"/><path class="cls-2" d="M30.12000274658203,298.4500292968751 h6.48 v-2.6100000000000003 h1.35 v2.6100000000000003 h2 v-2.6100000000000003 h1.35 v3.9 H30.000002746582027 z" id="svg_125"/><path class="cls-2" d="M47.940002746582024,318.9000292968749 a17,17 0 0 1 -2.73,-0.77 v-8 h5.46 l0.09000000000000002,1.4100000000000001 h-3.9 v5.51 a12.45,12.45 0 0 0 4.2,0.7200000000000001 a7,7 0 0 0 3.36,-0.6900000000000002 a4,4 0 0 0 1.83,-2.2 a11.86,11.86 0 0 0 0.5700000000000001,-4.07 a11.73,11.73 0 0 0 -0.5900000000000001,-4.14 a3.9,3.9 0 0 0 -1.9300000000000002,-2.17 a8.45,8.45 0 0 0 -3.72,-0.6700000000000002 a16.19,16.19 0 0 0 -5.13,0.7500000000000001 v-1.4100000000000001 a17.08,17.08 0 0 1 5.58,-0.79 q4,0 5.68,2 t1.73,6.39 q0,4.23 -1.73,6.3100000000000005 c-1.15,1.3800000000000001 -3,2.06 -5.5600000000000005,2.06 A16.18,16.18 0 0 1 47.940002746582024,318.9000292968749 z" id="svg_126"/><path class="cls-2" d="M64.03000274658203,317.6600292968751 a6,6 0 0 1 -1.7200000000000002,-4.66 v-10.29 h1.6500000000000001 v10.5 c0,3.07 1.7200000000000002,4.59 5.16,4.59 s5.13,-1.52 5.13,-4.59 v-10.5 h1.6500000000000001 v10.29 a6,6 0 0 1 -1.73,4.640000000000001 a7.24,7.24 0 0 1 -5.05,1.57 A7.36,7.36 0 0 1 64.03000274658203,317.6600292968751 z" id="svg_127"/><path class="cls-2" d="M82.48000274658204,319.0200292968748 a9.92,9.92 0 0 1 -2.26,-0.56 v-1.47 a14.08,14.08 0 0 0 4.86,0.81 a8.24,8.24 0 0 0 3.64,-0.6100000000000001 a2.34,2.34 0 0 0 1.19,-2.29 a2.55,2.55 0 0 0 -0.48000000000000004,-1.61 a3.21,3.21 0 0 0 -1.26,-1 a21.86,21.86 0 0 0 -2.22,-0.8 c-0.2,-0.08000000000000002 -0.5,-0.17 -0.9,-0.29000000000000004 a26.15,26.15 0 0 1 -2.7800000000000002,-1.06 a5,5 0 0 1 -1.77,-1.36 a3.42,3.42 0 0 1 -0.7300000000000001,-2.27 q0,-4.14 6,-4.14 a15.17,15.17 0 0 1 2.41,0.2 a13.18,13.18 0 0 1 2.18,0.52 v1.48 a12.19,12.19 0 0 0 -4.35,-0.7500000000000001 a8,8 0 0 0 -3.56,0.5800000000000001 a2.16,2.16 0 0 0 -1.09,2.09 a2.23,2.23 0 0 0 0.5700000000000001,1.57 a4.36,4.36 0 0 0 1.51,1 c0.6300000000000001,0.27 1.58,0.6100000000000001 2.84,1 a21.36,21.36 0 0 1 2.77,1.07 a5,5 0 0 1 1.7600000000000002,1.4100000000000001 a3.58,3.58 0 0 1 0.6900000000000002,2.26 a3.63,3.63 0 0 1 -1.6400000000000001,3.35 a8.73,8.73 0 0 1 -4.57,1 A20.12,20.12 0 0 1 82.48000274658204,319.0200292968748 z" id="svg_128"/><path class="cls-2" d="M79.68000274658203,298.4500292968751 h11.22 V299.780029296875 H79.59000274658203 z" id="svg_129"/><path class="cls-2" d="M97.39000274658204,318.1800292968751 a2.83,2.83 0 0 1 -0.6700000000000002,-2 v-11.15 a9.49,9.49 0 0 0 -0.30000000000000004,-2.6900000000000004 a3.41,3.41 0 0 0 -1,-1.58 a8,8 0 0 0 -2,-1.19 v-1.48 H101.12000274658203 v1.3800000000000001 h-5.55 a6,6 0 0 1 1.6900000000000002,1.28 a4.06,4.06 0 0 1 0.8400000000000001,1.77 a13.41,13.41 0 0 1 0.26,2.93 v9.77 a3.6900000000000004,3.6900000000000004 0 0 0 0.31000000000000005,1.79 a1.34,1.34 0 0 0 1.25,0.52 h1.47 v1.3800000000000001 h-2.1 A2.47,2.47 0 0 1 97.39000274658204,318.1800292968751 z" id="svg_130"/><path class="cls-2" d="M103.77000274658204,317.530029296875 h1.29 a1.33,1.33 0 0 0 1.06,-0.38000000000000006 a1.84,1.84 0 0 0 0.35000000000000003,-1.24 v-4.29 a4.19,4.19 0 0 1 0.46,-2.08 a2.62,2.62 0 0 1 1.61,-1.18 l-3.63,-0.79 v-2.4 a9.49,9.49 0 0 1 3.1,-2 a11.25,11.25 0 0 1 4.3100000000000005,-0.8 q3.45,0 5.08,1.49 a5.67,5.67 0 0 1 1.6400000000000001,4.42 v10.59 h-1.6500000000000001 v-10.67 a4.19,4.19 0 0 0 -1.2,-3.4 a6.07,6.07 0 0 0 -3.87,-1 a10.47,10.47 0 0 0 -3.44,0.55 a6.17,6.17 0 0 0 -2.47,1.45 v0.8400000000000001 l3.6900000000000004,0.79 v1.4300000000000002 a2.68,2.68 0 0 0 -1.55,0.92 a3.25,3.25 0 0 0 -0.43000000000000005,1.87 v4.26 a3.17,3.17 0 0 1 -0.6800000000000002,2.19 a2.54,2.54 0 0 1 -2,0.7500000000000001 h-1.6800000000000002 z" id="svg_131"/><path class="cls-2" d="M123.51000274658202,308.1700292968749 a5.43,5.43 0 0 1 1.6300000000000001,-4.3100000000000005 a7.51,7.51 0 0 1 5.06,-1.45 a7.38,7.38 0 0 1 5,1.45 a5.46,5.46 0 0 1 1.62,4.3100000000000005 v10.74 h-1.6500000000000001 v-11 a3.71,3.71 0 0 0 -1.25,-3.1 a6,6 0 0 0 -3.73,-1 a6.13,6.13 0 0 0 -3.8,1 a3.7,3.7 0 0 0 -1.24,3.1 v4.18 a5.87,5.87 0 0 1 3.81,-1.36 h2 l0.09000000000000002,1.3800000000000001 h-2.13 a5.87,5.87 0 0 0 -2,0.33000000000000007 a6.62,6.62 0 0 0 -1.78,1 v5.42 h-1.6500000000000001 z" id="svg_132"/><path class="cls-2" d="M141.75000274658203,311.62002929687515 a3.2,3.2 0 0 1 2.49,-3.26 l-3.54,-0.79 v-2.4 a9.34,9.34 0 0 1 3.07,-2 a10.81,10.81 0 0 1 4.25,-0.79 a7.5,7.5 0 0 1 5.11,1.49 a5.61,5.61 0 0 1 1.6700000000000002,4.42 v10.59 H153.12000274658203 v-10.67 a4.17,4.17 0 0 0 -1.22,-3.38 a6.11,6.11 0 0 0 -3.91,-1 a10.2,10.2 0 0 0 -3.41,0.55 a5.91,5.91 0 0 0 -2.41,1.45 v0.8400000000000001 l3.6,0.79 v1.4300000000000002 a3.36,3.36 0 0 0 -1.8,0.9400000000000001 a2.62,2.62 0 0 0 -0.6000000000000001,1.85 v7.2 h-1.6500000000000001 z" id="svg_133"/><path class="cls-2" d="M144.12000274658203,298.9300292968751 a2.8600000000000003,2.8600000000000003 0 0 1 -0.91,-2.27 a3.18,3.18 0 0 1 1,-2.46 a3.8,3.8 0 0 1 2.73,-0.91 h7 l-0.12000000000000001,1.17 h-6.8100000000000005 a2.7800000000000002,2.7800000000000002 0 0 0 -1.8800000000000001,0.53 a2.14,2.14 0 0 0 -0.5800000000000001,1.6700000000000002 c0,1.29 0.7400000000000001,1.9500000000000002 2.22,1.9500000000000002 a2.62,2.62 0 0 0 1.47,-0.32000000000000006 a1.15,1.15 0 0 0 0.45,-1 v-0.8300000000000001 h1.23 v0.8300000000000001 a1.12,1.12 0 0 0 0.36000000000000004,1 a2,2 0 0 0 1.2,0.27 h1.9500000000000002 v1.17 h-2 a3.58,3.58 0 0 1 -1.32,-0.22000000000000003 a1.34,1.34 0 0 1 -0.78,-0.7100000000000001 a1.7600000000000002,1.7600000000000002 0 0 1 -1,0.7400000000000001 a4.74,4.74 0 0 1 -1.57,0.25 A3.75,3.75 0 0 1 144.12000274658203,298.9300292968751 z" id="svg_134"/><path class="cls-2" d="M160.60000274658205,317.780029296875 a6.16,6.16 0 0 1 -1.33,-4.3100000000000005 v-10.74 h1.6500000000000001 v10.83 a4.54,4.54 0 0 0 1,3.23 a4.24,4.24 0 0 0 3.18,1 a7.55,7.55 0 0 0 5.58,-2.52 v-12.57 h1.6500000000000001 v16.2 h-1.44 l-0.15000000000000002,-2.13 a8.48,8.48 0 0 1 -6.18,2.43 A5.1,5.1 0 0 1 160.60000274658205,317.780029296875 z" id="svg_135"/><path class="cls-2" d="M169.32000274658202,299.46002929687484 a2.8600000000000003,2.8600000000000003 0 0 1 0,-4 a2.84,2.84 0 0 1 2.07,-0.8300000000000001 a2.81,2.81 0 0 1 2,0.8300000000000001 a2.8600000000000003,2.8600000000000003 0 0 1 0,4 a2.8,2.8 0 0 1 -2,0.8200000000000001 A2.84,2.84 0 0 1 169.32000274658202,299.46002929687484 zm3.25,-0.8400000000000001 a1.6900000000000002,1.6900000000000002 0 0 0 -1.18,-2.87 a1.6700000000000002,1.6700000000000002 0 0 0 -1.22,0.5 a1.6800000000000002,1.6800000000000002 0 0 0 0,2.37 a1.6600000000000001,1.6600000000000001 0 0 0 1.22,0.49000000000000005 A1.6,1.6 0 0 0 172.57000274658202,298.62002929687515 z" id="svg_136"/><path class="cls-2" d="M183.69000274658202,308.2000292968751 a7.63,7.63 0 0 0 -0.33000000000000007,-2.5 a2.45,2.45 0 0 0 -1.25,-1.3800000000000001 a6.09,6.09 0 0 0 -2.68,-0.46 a12.49,12.49 0 0 0 -2.1,0.19000000000000003 a9.45,9.45 0 0 0 -2,0.56 v-1.4100000000000001 a10.54,10.54 0 0 1 2.08,-0.5800000000000001 a14.57,14.57 0 0 1 2.36,-0.21000000000000002 a5.890000000000001,5.890000000000001 0 0 1 4.27,1.33 c0.8900000000000001,0.8700000000000001 1.34,2.3200000000000003 1.34,4.3100000000000005 v10.86 h-1.6500000000000001 z" id="svg_137"/><path class="cls-2" d="M191.020002746582,318.1800292968751 a2.83,2.83 0 0 1 -0.6700000000000002,-2 v-11.22 a6.53,6.53 0 0 1 0.79,-3.3 a6,6 0 0 1 2.15,-2.19 h-5.43 v-1.3800000000000001 h7.5 v1.44 a5.52,5.52 0 0 0 -2.5700000000000003,2.19 a7.33,7.33 0 0 0 -0.79,3.66 v10.5 a1.73,1.73 0 0 0 0.39000000000000007,1.25 a1.55,1.55 0 0 0 1.17,0.4 h1.47 v1.3800000000000001 h-2.1 A2.47,2.47 0 0 1 191.020002746582,318.1800292968751 z" id="svg_138"/><path class="cls-2" d="M200.05000274658204,317.6600292968751 a6,6 0 0 1 -1.7200000000000002,-4.66 v-10.29 h1.6500000000000001 v10.5 c0,3.07 1.7200000000000002,4.59 5.16,4.59 s5.13,-1.52 5.13,-4.59 v-15.3 h1.6500000000000001 v15.09 a6,6 0 0 1 -1.73,4.640000000000001 a7.24,7.24 0 0 1 -5.05,1.57 A7.36,7.36 0 0 1 200.05000274658204,317.6600292968751 z" id="svg_139"/><path class="cls-2" d="M231.99000274658204,318.9500292968751 l-2.7,-7.21 h-1.8 l0.09000000000000002,-1.4100000000000001 h2.79 L233.12000274658203,317.780029296875 a6,6 0 0 0 0.6900000000000002,0 a4.94,4.94 0 0 0 2.6500000000000004,-0.7500000000000001 a5.27,5.27 0 0 0 2,-2.38 a9.83,9.83 0 0 0 0.7500000000000001,-4.09 a10.27,10.27 0 0 0 -0.6200000000000001,-3.92 a4.1,4.1 0 0 0 -2,-2.15 a8.65,8.65 0 0 0 -3.79,-0.6800000000000002 a15.81,15.81 0 0 0 -5.07,0.7500000000000001 v-1.4100000000000001 a17.55,17.55 0 0 1 5.52,-0.79 c2.62,0 4.54,0.7000000000000001 5.76,2.08 s1.83,3.42 1.83,6.12 a11,11 0 0 1 -0.92,4.71 a6.41,6.41 0 0 1 -6.07,3.89 A5.49,5.49 0 0 1 231.99000274658204,318.9500292968751 z" id="svg_140"/><path class="cls-2" d="M237.24000274658204,299.46002929687484 a2.8600000000000003,2.8600000000000003 0 0 1 0,-4 a2.84,2.84 0 0 1 2.07,-0.8300000000000001 a2.81,2.81 0 0 1 2,0.8300000000000001 a2.8600000000000003,2.8600000000000003 0 0 1 0,4 a2.8,2.8 0 0 1 -2,0.8200000000000001 A2.84,2.84 0 0 1 237.24000274658204,299.46002929687484 zm3.25,-0.8400000000000001 a1.6900000000000002,1.6900000000000002 0 0 0 -1.18,-2.87 a1.6700000000000002,1.6700000000000002 0 0 0 -1.22,0.5 a1.6800000000000002,1.6800000000000002 0 0 0 0,2.37 a1.6600000000000001,1.6600000000000001 0 0 0 1.22,0.49000000000000005 A1.6,1.6 0 0 0 240.49000274658204,298.62002929687515 z" id="svg_141"/><path class="cls-2" d="M251.61000274658204,308.2000292968751 a7.63,7.63 0 0 0 -0.33000000000000007,-2.5 a2.45,2.45 0 0 0 -1.25,-1.3800000000000001 a6.09,6.09 0 0 0 -2.68,-0.46 a12.49,12.49 0 0 0 -2.1,0.19000000000000003 a9.45,9.45 0 0 0 -2,0.56 v-1.4100000000000001 a10.54,10.54 0 0 1 2.08,-0.5800000000000001 a14.57,14.57 0 0 1 2.36,-0.21000000000000002 a5.890000000000001,5.890000000000001 0 0 1 4.27,1.33 c0.8900000000000001,0.8700000000000001 1.34,2.3200000000000003 1.34,4.3100000000000005 v10.86 h-1.6500000000000001 z" id="svg_142"/><path class="cls-2" d="M257.73000274658204,302.71002929687484 h1.6500000000000001 v5.46 h6 a4.12,4.12 0 0 0 3,-0.8700000000000001 a3.62,3.62 0 0 0 0.8700000000000001,-2.67 v-1.92 h1.6500000000000001 v1.92 c0,2.31 -0.9,3.71 -2.7,4.23 a3,3 0 0 1 2,1.47 a6.36,6.36 0 0 1 0.5,2.74 v5.84 H269.12000274658203 v-5.73 a5.59,5.59 0 0 0 -0.35000000000000003,-2.19 a2,2 0 0 0 -1.15,-1.09 a6.61,6.61 0 0 0 -2.31,-0.32000000000000006 h-5.88 v9.33 h-1.6500000000000001 z" id="svg_143"/><path class="cls-2" d="M276.580002746582,317.780029296875 a6.16,6.16 0 0 1 -1.33,-4.3100000000000005 v-10.74 h1.6500000000000001 v10.83 a4.54,4.54 0 0 0 1,3.23 a4.24,4.24 0 0 0 3.18,1 a7.55,7.55 0 0 0 5.58,-2.52 v-12.57 h1.6500000000000001 v16.2 h-1.44 l-0.15000000000000002,-2.13 a8.48,8.48 0 0 1 -6.18,2.43 A5.1,5.1 0 0 1 276.580002746582,317.780029296875 z" id="svg_144"/><path class="cls-2" d="M286.650002746582,294.9500292968751 h1.6500000000000001 V299.780029296875 h-1.6500000000000001 z" id="svg_145"/><path class="cls-2" d="M299.67000274658204,308.2000292968751 a7.63,7.63 0 0 0 -0.33000000000000007,-2.5 a2.45,2.45 0 0 0 -1.25,-1.3800000000000001 a6.09,6.09 0 0 0 -2.68,-0.46 a12.49,12.49 0 0 0 -2.1,0.19000000000000003 a9.45,9.45 0 0 0 -2,0.56 v-1.4100000000000001 a10.54,10.54 0 0 1 2.08,-0.5800000000000001 a14.57,14.57 0 0 1 2.36,-0.21000000000000002 a5.890000000000001,5.890000000000001 0 0 1 4.27,1.33 c0.8900000000000001,0.8700000000000001 1.34,2.3200000000000003 1.34,4.3100000000000005 v10.86 h-1.6500000000000001 z" id="svg_146"/><path class="cls-2" d="M306.940002746582,318.0000292968748 a4,4 0 0 1 -1.75,-3.55 a4.3,4.3 0 0 1 0.7000000000000001,-2.54 a4,4 0 0 1 2,-1.46 a3.33,3.33 0 0 1 -1.8800000000000001,-1.23 a3.9,3.9 0 0 1 -0.7000000000000001,-2.43 a4.14,4.14 0 0 1 1.24,-3.26 a4.68,4.68 0 0 1 3.26,-1.12 a9.49,9.49 0 0 1 2.37,0.30000000000000004 v1.4100000000000001 a7.08,7.08 0 0 0 -2,-0.26 c-2.12,0 -3.18,1 -3.18,2.93 s1.19,3 3.5700000000000003,3 h1.7400000000000002 l0.15000000000000002,1.32 h-2 a3.7600000000000002,3.7600000000000002 0 0 0 -2.67,0.8700000000000001 a3.25,3.25 0 0 0 -0.93,2.5 c0,2.24 1.7200000000000002,3.35 5.16,3.35 a5.84,5.84 0 0 0 3.7600000000000002,-1 a3.81,3.81 0 0 0 1.25,-3.15 v-10.92 h1.6500000000000001 v10 a7,7 0 0 1 -1.5,4.92 q-1.5,1.62 -5.13,1.62 A8.86,8.86 0 0 1 306.940002746582,318.0000292968748 z" id="svg_147"/><path class="cls-2" d="M323.770002746582,318.1800292968751 a2.83,2.83 0 0 1 -0.6700000000000002,-2 v-13.47 h1.6500000000000001 v13.17 a1.73,1.73 0 0 0 0.39000000000000007,1.25 a1.55,1.55 0 0 0 1.17,0.4 h1.47 v1.3800000000000001 h-2.1 A2.47,2.47 0 0 1 323.770002746582,318.1800292968751 z" id="svg_148"/><path class="cls-2" d="M333.37000274658203,317.6600292968751 a6,6 0 0 1 -1.7200000000000002,-4.66 v-10.29 h1.6500000000000001 v10.5 c0,3.07 1.7200000000000002,4.59 5.16,4.59 s5.13,-1.52 5.13,-4.59 v-15.3 h1.6500000000000001 v15.09 a6,6 0 0 1 -1.73,4.640000000000001 a7.24,7.24 0 0 1 -5.05,1.57 A7.36,7.36 0 0 1 333.37000274658203,317.6600292968751 z" id="svg_149"/><path class="cls-2" d="M332.520002746582,298.99002929687504 a2.9,2.9 0 0 1 -0.9,-2.2800000000000002 a3.24,3.24 0 0 1 1,-2.46 a3.88,3.88 0 0 1 2.73,-0.8900000000000001 h6.36 l-0.09000000000000002,1.17 h-6.15 a2.83,2.83 0 0 0 -1.8900000000000001,0.52 a2.09,2.09 0 0 0 -0.6000000000000001,1.6600000000000001 c0,1.31 0.7000000000000001,2 2.1,2 a2.5700000000000003,2.5700000000000003 0 0 0 1.44,-0.31000000000000005 a1.1400000000000001,1.1400000000000001 0 0 0 0.45,-1 v-0.8400000000000001 H338.12000274658203 v0.8400000000000001 a1.12,1.12 0 0 0 0.36000000000000004,1 a2,2 0 0 0 1.2,0.27 H341.12000274658203 V299.780029296875 h-1.5 a3.58,3.58 0 0 1 -1.32,-0.22000000000000003 a1.36,1.36 0 0 1 -0.78,-0.7000000000000001 a2,2 0 0 1 -1,0.7300000000000001 a4.74,4.74 0 0 1 -1.57,0.25 A3.5,3.5 0 0 1 332.520002746582,298.99002929687504 z" id="svg_150"/><path class="cls-2" d="M351.04000274658205,317.780029296875 a6.16,6.16 0 0 1 -1.33,-4.3100000000000005 v-10.74 h1.6500000000000001 v10.83 a4.54,4.54 0 0 0 1,3.23 a4.24,4.24 0 0 0 3.18,1 a7.55,7.55 0 0 0 5.58,-2.52 v-12.57 h1.6500000000000001 v16.2 H361.320002746582 l-0.15000000000000002,-2.13 a8.48,8.48 0 0 1 -6.18,2.43 A5.1,5.1 0 0 1 351.04000274658205,317.780029296875 z" id="svg_151"/><path class="cls-2" d="M369.34000274658206,319.0200292968748 a9.92,9.92 0 0 1 -2.26,-0.56 v-1.47 a14.08,14.08 0 0 0 4.86,0.81 a8.24,8.24 0 0 0 3.64,-0.6100000000000001 a2.34,2.34 0 0 0 1.19,-2.29 a2.55,2.55 0 0 0 -0.48000000000000004,-1.61 a3.21,3.21 0 0 0 -1.26,-1 a21.86,21.86 0 0 0 -2.22,-0.8 c-0.2,-0.08000000000000002 -0.5,-0.17 -0.9,-0.29000000000000004 a26.15,26.15 0 0 1 -2.7800000000000002,-1.06 a5,5 0 0 1 -1.77,-1.36 a3.42,3.42 0 0 1 -0.7300000000000001,-2.27 q0,-4.14 6,-4.14 a15.17,15.17 0 0 1 2.41,0.2 a13.18,13.18 0 0 1 2.18,0.52 v1.48 a12.19,12.19 0 0 0 -4.35,-0.7500000000000001 a8,8 0 0 0 -3.56,0.5800000000000001 a2.16,2.16 0 0 0 -1.09,2.09 a2.23,2.23 0 0 0 0.5700000000000001,1.57 a4.36,4.36 0 0 0 1.51,1 c0.6300000000000001,0.27 1.58,0.6100000000000001 2.84,1 a21.36,21.36 0 0 1 2.77,1.07 a5,5 0 0 1 1.7600000000000002,1.4100000000000001 a3.58,3.58 0 0 1 0.6900000000000002,2.26 a3.63,3.63 0 0 1 -1.6400000000000001,3.35 a8.73,8.73 0 0 1 -4.57,1 A20.12,20.12 0 0 1 369.34000274658206,319.0200292968748 z" id="svg_152"/><path class="cls-2" d="M389.12000274658203,308.2000292968751 a7.63,7.63 0 0 0 -0.33000000000000007,-2.5 a2.45,2.45 0 0 0 -1.25,-1.3800000000000001 a6.09,6.09 0 0 0 -2.68,-0.46 a12.49,12.49 0 0 0 -2.1,0.19000000000000003 a9.45,9.45 0 0 0 -2,0.56 v-1.4100000000000001 a10.54,10.54 0 0 1 2.08,-0.5800000000000001 a14.57,14.57 0 0 1 2.36,-0.21000000000000002 a5.890000000000001,5.890000000000001 0 0 1 4.27,1.33 c0.8900000000000001,0.8700000000000001 1.34,2.3200000000000003 1.34,4.3100000000000005 v10.86 H389.12000274658203 z" id="svg_153"/><path class="cls-2" d="M396.43000274658203,318.0000292968748 a4,4 0 0 1 -1.75,-3.55 a4.3,4.3 0 0 1 0.7000000000000001,-2.54 a4,4 0 0 1 2,-1.46 a3.33,3.33 0 0 1 -1.8800000000000001,-1.23 a3.9,3.9 0 0 1 -0.7000000000000001,-2.43 a4.14,4.14 0 0 1 1.24,-3.26 a4.68,4.68 0 0 1 3.26,-1.12 a9.49,9.49 0 0 1 2.37,0.30000000000000004 v1.4100000000000001 a7.08,7.08 0 0 0 -2,-0.26 c-2.12,0 -3.18,1 -3.18,2.93 s1.19,3 3.5700000000000003,3 h1.7400000000000002 l0.15000000000000002,1.32 h-2 a3.7600000000000002,3.7600000000000002 0 0 0 -2.67,0.8700000000000001 a3.25,3.25 0 0 0 -0.93,2.5 c0,2.24 1.7200000000000002,3.35 5.16,3.35 a5.84,5.84 0 0 0 3.7600000000000002,-1 a3.81,3.81 0 0 0 1.25,-3.15 v-10.92 H408.12000274658203 v10 a7,7 0 0 1 -1.5,4.92 q-1.5,1.62 -5.13,1.62 A8.86,8.86 0 0 1 396.43000274658203,318.0000292968748 z" id="svg_154"/><path class="cls-2" d="M413.800002746582,318.1800292968751 a2.83,2.83 0 0 1 -0.6700000000000002,-2 v-11.22 a6.53,6.53 0 0 1 0.79,-3.3 a6,6 0 0 1 2.15,-2.19 h-5.43 v-1.3800000000000001 H418.12000274658203 v1.44 a5.52,5.52 0 0 0 -2.5700000000000003,2.19 a7.33,7.33 0 0 0 -0.79,3.66 v10.5 a1.73,1.73 0 0 0 0.39000000000000007,1.25 a1.55,1.55 0 0 0 1.17,0.4 h1.47 v1.3800000000000001 h-2.1 A2.47,2.47 0 0 1 413.800002746582,318.1800292968751 z" id="svg_155"/><path class="cls-2" d="M422.170002746582,317.1500292968749 c-1.11,-1.3900000000000001 -1.6600000000000001,-3.47 -1.6600000000000001,-6.28 a9.17,9.17 0 0 1 2,-6.24 c1.3,-1.47 3.2800000000000002,-2.22 5.94,-2.22 q3.5700000000000003,0 5.3100000000000005,1.79 a6.21,6.21 0 0 1 1.7400000000000002,4.51 v10.2 h-1.6500000000000001 v-10.29 a4.67,4.67 0 0 0 -1.31,-3.46 a5.63,5.63 0 0 0 -4.12,-1.3 q-6.24,0 -6.24,7 c0,2.45 0.41000000000000003,4.21 1.24,5.3 A4.41,4.41 0 0 0 427.12000274658203,317.780029296875 a6.8,6.8 0 0 0 2,-0.23 v1.4 a9.28,9.28 0 0 1 -2.37,0.24000000000000002 A5.59,5.59 0 0 1 422.170002746582,317.1500292968749 z" id="svg_156"/><path class="cls-2" d="M429.24000274658204,296.8300292968752 h-2.37 v-1.26 h3.6900000000000004 v2.88 h6.63 L437.12000274658203,299.780029296875 h-7.86 z" id="svg_157"/><path class="cls-2" d="M440.98000274658204,317.1500292968749 c-1.11,-1.3900000000000001 -1.6600000000000001,-3.47 -1.6600000000000001,-6.28 a13.25,13.25 0 0 1 1.2,-6.26 a3.83,3.83 0 0 1 3.54,-2.2 a4.13,4.13 0 0 1 1.86,0.38000000000000006 a4.66,4.66 0 0 1 1.44,1.18 a4.55,4.55 0 0 1 1.62,-1.17 a4.92,4.92 0 0 1 1.92,-0.39000000000000007 a3.2800000000000002,3.2800000000000002 0 0 1 2.49,0.92 a3.89,3.89 0 0 1 0.8700000000000001,2.7800000000000002 v12.8 h-1.6500000000000001 V306.280029296875 a2.8200000000000003,2.8200000000000003 0 0 0 -0.48000000000000004,-1.8800000000000001 a2.09,2.09 0 0 0 -1.6500000000000001,-0.54 a3.13,3.13 0 0 0 -1.49,0.37000000000000005 a2.77,2.77 0 0 0 -1.12,1.13 h-1 a4.17,4.17 0 0 0 -1.13,-1.1600000000000001 a2.83,2.83 0 0 0 -4,1.48 a14,14 0 0 0 -0.7600000000000001,5.19 c0,2.46 0.42000000000000004,4.24 1.26,5.3100000000000005 a4.42,4.42 0 0 0 3.72,1.62 a6.8,6.8 0 0 0 2,-0.23 v1.4 a9.28,9.28 0 0 1 -2.37,0.24000000000000002 A5.59,5.59 0 0 1 440.98000274658204,317.1500292968749 z" id="svg_158"/><path class="cls-2" d="M452.61000274658204,294.9500292968751 h1.6500000000000001 V299.780029296875 h-1.6500000000000001 z" id="svg_159"/><path class="cls-2" d="M460.86000274658204,318.9000292968749 a17,17 0 0 1 -2.73,-0.77 v-8 h5.46 l0.09000000000000002,1.4100000000000001 h-3.9 v5.51 a12.45,12.45 0 0 0 4.2,0.7200000000000001 a7,7 0 0 0 3.36,-0.6900000000000002 a4,4 0 0 0 1.83,-2.2 a11.86,11.86 0 0 0 0.5700000000000001,-4.07 a11.73,11.73 0 0 0 -0.5900000000000001,-4.14 a3.9,3.9 0 0 0 -1.9300000000000002,-2.17 a8.45,8.45 0 0 0 -3.72,-0.6700000000000002 a16.19,16.19 0 0 0 -5.13,0.7500000000000001 v-1.4100000000000001 a17.08,17.08 0 0 1 5.58,-0.79 q4,0 5.68,2 t1.73,6.39 q0,4.23 -1.73,6.3100000000000005 c-1.15,1.3800000000000001 -3,2.06 -5.5600000000000005,2.06 A16.18,16.18 0 0 1 460.86000274658204,318.9000292968749 z" id="svg_160"/><path class="cls-2" d="M476.4400027465821,318.1800292968751 a2.83,2.83 0 0 1 -0.6700000000000002,-2 v-11.22 a6.53,6.53 0 0 1 0.79,-3.3 a6,6 0 0 1 2.15,-2.19 h-5.43 v-1.3800000000000001 h7.5 v1.44 a5.52,5.52 0 0 0 -2.5700000000000003,2.19 a7.33,7.33 0 0 0 -0.79,3.66 v10.5 a1.73,1.73 0 0 0 0.39000000000000007,1.25 a1.55,1.55 0 0 0 1.17,0.4 h1.47 v1.3800000000000001 h-2.1 A2.47,2.47 0 0 1 476.4400027465821,318.1800292968751 z" id="svg_161"/><path class="cls-2" d="M485.47000274658205,317.6600292968751 a6,6 0 0 1 -1.7200000000000002,-4.66 v-10.29 h1.6500000000000001 v10.5 c0,3.07 1.7200000000000002,4.59 5.16,4.59 s5.13,-1.52 5.13,-4.59 v-15.3 h1.6500000000000001 v15.09 a6,6 0 0 1 -1.73,4.640000000000001 a7.24,7.24 0 0 1 -5,1.57 A7.36,7.36 0 0 1 485.47000274658205,317.6600292968751 z" id="svg_162"/></g></svg>