<svg id="พื้น" xmlns="http://www.w3.org/2000/svg" xmlns:xlink="http://www.w3.org/1999/xlink" viewBox="0 0 1209.21 240.65"><defs><style>.cls-1{fill:none;}.cls-2{clip-path:url(#clip-path);}.cls-3{clip-path:url(#clip-path-2);}.cls-4{fill:#bbd38d;}.cls-5{fill:#ddda91;}.cls-6{fill:#98c29c;}.cls-7{fill:#b5be6d;}.cls-8{fill:#ddd990;}.cls-9{fill:#537d41;}.cls-10{fill:#658369;}.cls-11{fill:#547d41;}.cls-12{fill:#77a275;}</style><clipPath id="clip-path" transform="translate(274.3 -2576.75)"><rect class="cls-1" x="-3.07" y="2577.38" width="751.72" height="175.46"/></clipPath><clipPath id="clip-path-2" transform="translate(274.3 -2576.75)"><rect class="cls-1" x="-4.3" y="2572.64" width="751.16" height="156.03"/></clipPath></defs><title>3</title><g class="cls-2"><g class="cls-3"><path class="cls-4" d="M773,2626.31c8,18,15.41,40.67,2.83,55.8-7,8.43-18.32,11.66-28.92,14.46-63,16.63-126.95,33.39-192.07,32-20.13-.42-41.23-2.94-57.71-14.51-12.84-9-26.65-30.81-19.64-47.16,7.47-17.44,37.68-15.87,53.19-18.14q77.38-11.36,155.41-17.4C694.78,2630.71,770.73,2621.18,773,2626.31Z" transform="translate(274.3 -2576.75)"/><path class="cls-5" d="M358.18,2682.13c-31.77-31.15-76.29-45.94-120.27-52.74s-88.78-6.62-132.83-13a453.27,453.27,0,0,1-129-38.83c-8.8-4.16-9.94,7.7-11.91,17.23-6,29.19,5.23,61.3,28.2,80.29,21,17.37,49.43,23.27,76.7,23.64s54.38-4.2,81.65-5.09c58.11-1.9,115.58,12.87,173.72,14.07,9.41.2,19.34-.11,27.4-5S364.9,2688.72,358.18,2682.13Z" transform="translate(274.3 -2576.75)"/><path class="cls-6" d="M619.34,2674.55c-89.45-41-191.26-67-286.26-41.31-42.85,11.58-83.9,33.47-128.29,33.52-7.16,0-11.43,5.57-11.54,12.73s4.62,13.52,10,18.22c17.42,15.14,42,18.18,65,19.72A944,944,0,0,0,619.34,2674.55Z" transform="translate(274.3 -2576.75)"/></g><path class="cls-7" d="M464.82,2673.22c1.3,1,.82-2.17-.75-2.6a53.94,53.94,0,0,0-14.79-1.89,33.32,33.32,0,0,0-8,.67c-1.7.45-4.28,2.46-5.89,2.25-1.31-.18-2.46-1-3.74-1.33-3.22-.9-7,1-9.82-.88-2.5-1.68-2.46,1.46-4.68,1.45s-3.67-1.41-5.9-1.73c-6.86-1-20.87-.69-27.06,2.75a5.19,5.19,0,0,1-2.71,1c-1.23-.1-2.26-1.27-3.48-1.08-1,.15-1.72,1.12-2.68,1-1.6-.17-1.93-3-3.54-3-.89,0-1.48,1-2.35,1.21-1.1.25-2-.78-2.85-1.52-4.82-4.18-15.78,0-22-.48-5.16-.39-15.27,1.8-20-1.34a2,2,0,0,0-2.22,0,2.31,2.31,0,0,1-2.74.19c-.64-.43-1.07-1.16-1.78-1.46-1.61-.69-3.06,1.23-3.78,2.82l-2.76-2.61c-.44-.42-.95-.87-1.67-.44a1.92,1.92,0,0,0-.78,1c-1.2,3.72-5.54,1.15-8.57,2.08a10.47,10.47,0,0,1-1.53.49,4.27,4.27,0,0,1-2.4-.66l-4.79-2.39a4,4,0,0,0-2.63-.62,8.67,8.67,0,0,0-1.94,1,3.71,3.71,0,0,1-2.9.18,1,1,0,0,0-1.12.38c-.63,1-2.26,1.35-3.57,1.41-3.51.17-15.16,1-17.71-2a3.27,3.27,0,0,0-3.19-1.09c-6.48,1.35-11.38-.11-17.57.45-4.51.41-8.95,1.52-13.48,1.5-3.4,0-6.77-.68-10.16-.92a40.86,40.86,0,0,0-11.2.77,6.7,6.7,0,0,1-9.72-1.07,38,38,0,0,1-12.5.36l-2.13,2.5c-.51-1.25-2.18-1.41-3.53-1.38-3.34.09-9.66,1.67-11.32-1.93,1.52,3.29-14.19.71-15.05.44-3.4-1-8.07-4.62-11.24-1.74a6.68,6.68,0,0,0-3.93-2.59c-.7,2.27-3.69,2.82-6.05,2.51s-4.94-1-7,.2c0-1.48-2.06-1.93-3.51-1.67a10.44,10.44,0,0,1-2.54.26l-7.31.23-1.93.34a49.22,49.22,0,0,1-9.82,1.08c-2.42-.05-4.91-.46-7.23.23a13.45,13.45,0,0,1-3.55,1c-1.23,0-2.38-.6-3.59-.71s-2.72.66-2.61,1.88c-1.35-1.46-3.3-3.06-5.08-2.18-.61.29-1.06.84-1.68,1.1-1.63.66-3.24-.93-4.29-2.34,2,2.65-14.38,1.75-14.56,1.73-7.2-.7-14.38-1.62-21.6-2-13.07-.66-26.31-1.32-39.14,1.3-11.41,2.33-22.62,7.55-30.26,16.21a3.28,3.28,0,0,0,1.23,5.2c8.62,3.4,18.3,3.77,27.65,4L78,2693.48l252.62,7.69c9.6.3,19.26.59,28.78-.73,9.92-1.38,19.56-4.48,29.52-5.56,12.63-1.38,25.39.54,38.09.3s26.19-3.09,35.15-12.11C463.82,2681.4,466.27,2671.36,464.82,2673.22Z" transform="translate(274.3 -2576.75)"/><path class="cls-7" d="M233.42,2734.81c1.3,1-6.17-4.49-7.74-4.92a54.21,54.21,0,0,0-14.78-1.9,33.92,33.92,0,0,0-8.05.68c-1.7.45-4.28,2.46-5.88,2.25-1.32-.18-2.47-1-3.75-1.33-3.21-.9-7,1-9.81-.88-2.51-1.68-2.46,1.46-4.69,1.45s-3.66-1.41-5.9-1.73c-6.86-1-20.87-.69-27.06,2.74a5.09,5.09,0,0,1-2.71,1c-1.22-.1-2.26-1.27-3.48-1.08-1,.14-1.71,1.12-2.68,1-1.6-.17-1.92-3-3.53-3-.9,0-1.49,1-2.36,1.21-1.1.25-2-.78-2.85-1.52-4.82-4.18-15.78,0-22-.48-5.15-.39-15.27,1.8-20-1.34a2,2,0,0,0-2.23,0,2.31,2.31,0,0,1-2.74.19c-.64-.43-1.06-1.17-1.77-1.46-1.62-.69-3.07,1.23-3.79,2.82L72.9,2726c-.44-.42-1-.87-1.67-.44a1.83,1.83,0,0,0-.78,1c-1.2,3.72-5.55,1.15-8.58,2.07a9.32,9.32,0,0,1-1.52.5,4.31,4.31,0,0,1-2.41-.66l-4.79-2.39a4.1,4.1,0,0,0-2.63-.63,8.84,8.84,0,0,0-1.93,1.05,3.73,3.73,0,0,1-2.91.18.94.94,0,0,0-1.11.38c-.64,1-2.27,1.35-3.58,1.41-3.51.17-15.15,1-17.7-2.05a3.28,3.28,0,0,0-3.2-1.09c-6.48,1.35-11.37-.11-17.57.45-4.5.41-8.95,1.52-13.47,1.5-3.41,0-6.77-.68-10.17-.92a40.89,40.89,0,0,0-11.2.77A6.69,6.69,0,0,1-42,2726.1a38.08,38.08,0,0,1-12.51.36l-2.13,2.5c-.51-1.25-2.18-1.41-3.53-1.38-3.34.09-9.65,1.67-11.32-1.93,1.53,3.29-14.18.71-15,.44-3.4-1-8.06-4.62-11.24-1.74a6.71,6.71,0,0,0-3.93-2.6c-.7,2.28-3.69,2.83-6.05,2.52s-4.93-1-7,.2c0-1.48-2-1.93-3.51-1.67a10.87,10.87,0,0,1-2.53.26l-7.31.23-1.93.34a49.3,49.3,0,0,1-9.82,1.08c-2.43-.05-4.91-.46-7.24.23a13.24,13.24,0,0,1-3.55,1c-1.22,0-2.37-.6-3.59-.71s-2.72.66-2.61,1.88c-1.34-1.46-3.3-3.06-5.08-2.18-.6.29-1.06.84-1.68,1.09-1.63.67-3.24-.92-4.28-2.33,2,2.65-14.38,1.75-14.57,1.73-7.2-.7-14.37-1.62-21.6-2-13.07-.66-26.31-1.32-39.14,1.3-11.4,2.33-22.61,7.55-30.26,16.21a3.27,3.27,0,0,0,1.24,5.2c8.61,3.4,18.29,3.77,27.64,4l84.23,2.57,252.61,7.69c9.6.29,19.26.58,28.78-.73,9.92-1.38,19.56-4.48,29.52-5.56,12.64-1.38,25.39-2.44,38.1-2.68s26.19-3.09,35.14-12.11C225.43,2737.69,234.86,2733,233.42,2734.81Z" transform="translate(274.3 -2576.75)"/><path class="cls-8" d="M241.09,2737.14s-372.94-3-372.94-6.47,88.67-44.9,190.28-47.19c0,0,370.27-3,364.57,2.29S241.09,2737.14,241.09,2737.14Z" transform="translate(274.3 -2576.75)"/><path class="cls-9" d="M34.06,2695.44h0a1.55,1.55,0,0,1-1.4-1.67c.26-3.12.63-10.12-1-12.06a11.32,11.32,0,0,1,2.6,5.69s1.08-6.14.94-7.45a12.5,12.5,0,0,1,.63,7.33s1.15-4.05,3.8-4.59c0,0-3.06,3-3.9,11.37A1.56,1.56,0,0,1,34.06,2695.44Z" transform="translate(274.3 -2576.75)"/><path class="cls-10" d="M2.62,2701.75h0a1.94,1.94,0,0,1-1.88-2.2c.35-2.74.74-7.34-.35-9A14,14,0,0,1,1.63,2694s.94-4.59-.7-6.56c0,0,1.43,1.43,2.08,5.65,0,0,1.29-5.6,1.17-7.17a18.81,18.81,0,0,1,.15,7s1.63-3.75,3.58-5.14c0,0-2.2,4.22-2.41,6.54,0,0,1.5-2.2,2.57-2.62,0,0-2.62,3.14-3.09,5.43a22.21,22.21,0,0,0-.36,2.77A2,2,0,0,1,2.62,2701.75Z" transform="translate(274.3 -2576.75)"/><path class="cls-11" d="M83.23,2705.05h0a2.24,2.24,0,0,1-2-2.34c.14-2.68.1-7.24-1.44-9.67a29.2,29.2,0,0,1,2,4.08s0-5.46-.26-5.74a35.44,35.44,0,0,1,1.93,7.45s1.59-8.95,1.17-10c0,0,1.38,4.8.23,8.86,0,0,2.34-5.77,4.24-6.64,0,0-2.74,4.43-3,7,0,0,2.39-3.42,3.14-3.09a18.46,18.46,0,0,0-3.57,8.25A2.24,2.24,0,0,1,83.23,2705.05Z" transform="translate(274.3 -2576.75)"/><path class="cls-12" d="M52.37,2713.33h0a1.54,1.54,0,0,1-1.4-1.66c.26-3.13.63-10.12-1-12.07a11.35,11.35,0,0,1,2.61,5.7s1.07-6.14.93-7.45a12.46,12.46,0,0,1,.64,7.33s1.14-4,3.79-4.59c0,0-3,3-3.9,11.37A1.53,1.53,0,0,1,52.37,2713.33Z" transform="translate(274.3 -2576.75)"/><path class="cls-10" d="M18.45,2721.92h0a2,2,0,0,1-1.89-2.2c.36-2.74.75-7.34-.34-9a14,14,0,0,1,1.24,3.49s.94-4.59-.7-6.56c0,0,1.43,1.43,2.08,5.65,0,0,1.29-5.6,1.17-7.17a18.7,18.7,0,0,1,.14,7s1.64-3.75,3.59-5.14c0,0-2.2,4.22-2.41,6.54,0,0,1.5-2.2,2.57-2.62,0,0-2.62,3.14-3.09,5.43a22.21,22.21,0,0,0-.36,2.77A2,2,0,0,1,18.45,2721.92Z" transform="translate(274.3 -2576.75)"/><path class="cls-11" d="M-28.43,2711.11h0a2.24,2.24,0,0,1-2-2.34c.14-2.69.11-7.24-1.43-9.67a28.63,28.63,0,0,1,2,4.07,50.54,50.54,0,0,0-.25-5.74,36,36,0,0,1,1.92,7.45s1.59-9,1.17-10c0,0,1.38,4.8.23,8.85,0,0,2.35-5.76,4.24-6.63,0,0-2.74,4.43-3,7,0,0,2.39-3.42,3.14-3.1a18.46,18.46,0,0,0-3.57,8.25A2.24,2.24,0,0,1-28.43,2711.11Z" transform="translate(274.3 -2576.75)"/><path class="cls-12" d="M-59.42,2718.88h0a1.54,1.54,0,0,1-1.4-1.67c.26-3.12.63-10.12-1-12.06a11.32,11.32,0,0,1,2.6,5.69s1.07-6.14.93-7.45a12.48,12.48,0,0,1,.64,7.33s1.15-4,3.79-4.59c0,0-3,3-3.9,11.37A1.54,1.54,0,0,1-59.42,2718.88Z" transform="translate(274.3 -2576.75)"/><path class="cls-10" d="M-93.34,2727.46h0a1.94,1.94,0,0,1-1.88-2.2c.35-2.74.74-7.34-.35-9a13.81,13.81,0,0,1,1.24,3.49s.94-4.6-.7-6.56c0,0,1.43,1.42,2.08,5.64,0,0,1.29-5.6,1.17-7.17a18.81,18.81,0,0,1,.15,7s1.64-3.75,3.58-5.13c0,0-2.2,4.22-2.41,6.54,0,0,1.5-2.21,2.57-2.63,0,0-2.62,3.14-3.09,5.44a23.83,23.83,0,0,0-.36,2.76A1.94,1.94,0,0,1-93.34,2727.46Z" transform="translate(274.3 -2576.75)"/><path class="cls-11" d="M-13.31,2730.71h0a2.24,2.24,0,0,1-2-2.33c.14-2.69.1-7.25-1.44-9.68a29.2,29.2,0,0,1,2,4.08s0-5.46-.26-5.74a35.44,35.44,0,0,1,1.93,7.45s1.59-8.95,1.16-10c0,0,1.39,4.8.24,8.86,0,0,2.34-5.77,4.24-6.63,0,0-2.74,4.43-3,7,0,0,2.39-3.42,3.14-3.09a18.34,18.34,0,0,0-3.57,8.25A2.24,2.24,0,0,1-13.31,2730.71Z" transform="translate(274.3 -2576.75)"/><path class="cls-12" d="M64.93,2685.86h0a1.54,1.54,0,0,1-1.4-1.66c.26-3.13.63-10.12-1-12.07a11.32,11.32,0,0,1,2.6,5.7s1.08-6.14.94-7.46a12.55,12.55,0,0,1,.63,7.34s1.15-4.06,3.8-4.6c0,0-3.06,3-3.9,11.38A1.54,1.54,0,0,1,64.93,2685.86Z" transform="translate(274.3 -2576.75)"/><path class="cls-11" d="M113.58,2696.2h0a2.23,2.23,0,0,1-2-2.34c.14-2.69.1-7.24-1.44-9.67a29.2,29.2,0,0,1,2,4.08s0-5.46-.26-5.74a35.44,35.44,0,0,1,1.93,7.45s1.59-9,1.16-10c0,0,1.39,4.8.24,8.85,0,0,2.34-5.76,4.24-6.63,0,0-2.74,4.43-3,7,0,0,2.39-3.42,3.14-3.1a18.41,18.41,0,0,0-3.58,8.25A2.23,2.23,0,0,1,113.58,2696.2Z" transform="translate(274.3 -2576.75)"/><path class="cls-9" d="M188.52,2694h0a1.54,1.54,0,0,1-1.5-1.57c0-3.14,0-10.14-1.78-12a11.4,11.4,0,0,1,3,5.51s.67-6.19.44-7.49a12.47,12.47,0,0,1,1.12,7.27s.88-4.12,3.48-4.83c0,0-2.85,3.17-3.15,11.61A1.54,1.54,0,0,1,188.52,2694Z" transform="translate(274.3 -2576.75)"/><path class="cls-10" d="M157.56,2702.36h0a2,2,0,0,1-2-2.07c.18-2.76.26-7.38-.93-9a13.76,13.76,0,0,1,1.46,3.4s.64-4.64-1.13-6.5c0,0,1.52,1.34,2.45,5.5,0,0,.92-5.67.7-7.23a18.67,18.67,0,0,1,.6,7s1.39-3.84,3.24-5.35c0,0-1.92,4.35-2,6.68,0,0,1.35-2.3,2.4-2.79,0,0-2.42,3.31-2.73,5.63a20.07,20.07,0,0,0-.18,2.78A2,2,0,0,1,157.56,2702.36Z" transform="translate(274.3 -2576.75)"/><path class="cls-11" d="M248.65,2700.89h0a2.24,2.24,0,0,1-2.18-2.2c0-2.69-.37-7.23-2.07-9.56a29.16,29.16,0,0,1,2.23,3.94,50.22,50.22,0,0,0-.63-5.71,35.66,35.66,0,0,1,2.41,7.31s1-9,.51-10.08c0,0,1.69,4.7.81,8.82,0,0,2-5.91,3.8-6.9,0,0-2.45,4.6-2.51,7.19,0,0,2.16-3.57,2.93-3.29a18.43,18.43,0,0,0-3,8.46A2.22,2.22,0,0,1,248.65,2700.89Z" transform="translate(274.3 -2576.75)"/><path class="cls-12" d="M218.39,2711.17h0a1.55,1.55,0,0,1-1.51-1.57c.06-3.13,0-10.14-1.78-12a11.25,11.25,0,0,1,3,5.51s.68-6.2.45-7.5a12.54,12.54,0,0,1,1.11,7.28s.88-4.12,3.49-4.83c0,0-2.86,3.16-3.15,11.6A1.54,1.54,0,0,1,218.39,2711.17Z" transform="translate(274.3 -2576.75)"/><path class="cls-10" d="M185.1,2722h0a2,2,0,0,1-2-2.07c.17-2.76.26-7.38-.94-9a14.06,14.06,0,0,1,1.47,3.4s.63-4.64-1.13-6.5c0,0,1.52,1.34,2.45,5.5,0,0,.92-5.67.7-7.23a18.93,18.93,0,0,1,.6,7s1.39-3.84,3.24-5.35c0,0-1.92,4.35-2,6.68,0,0,1.35-2.3,2.4-2.79,0,0-2.41,3.31-2.73,5.63A21.76,21.76,0,0,0,187,2720,2,2,0,0,1,185.1,2722Z" transform="translate(274.3 -2576.75)"/><path class="cls-11" d="M127.19,2713.72h0a2.24,2.24,0,0,1-2.18-2.2c0-2.69-.37-7.23-2.07-9.55a28.51,28.51,0,0,1,2.23,3.94,50.38,50.38,0,0,0-.63-5.72,35.66,35.66,0,0,1,2.41,7.31s1-9,.51-10.08c0,0,1.69,4.7.81,8.82,0,0,2-5.9,3.8-6.89,0,0-2.45,4.6-2.51,7.18,0,0,2.16-3.57,2.93-3.29a18.43,18.43,0,0,0-3,8.46A2.22,2.22,0,0,1,127.19,2713.72Z" transform="translate(274.3 -2576.75)"/><path class="cls-12" d="M96.76,2723.5h0a1.54,1.54,0,0,1-1.5-1.57c0-3.13,0-10.14-1.78-12a11.25,11.25,0,0,1,3,5.51s.67-6.2.45-7.5a12.54,12.54,0,0,1,1.11,7.28s.88-4.12,3.49-4.83c0,0-2.86,3.16-3.16,11.6A1.54,1.54,0,0,1,96.76,2723.5Z" transform="translate(274.3 -2576.75)"/><path class="cls-10" d="M65.61,2732.31h0a1.94,1.94,0,0,1-2-2.07c.17-2.76.26-7.37-.94-9a14.19,14.19,0,0,1,1.47,3.41s.63-4.65-1.13-6.5c0,0,1.52,1.33,2.45,5.49,0,0,.92-5.67.7-7.23a19,19,0,0,1,.6,7s1.39-3.85,3.24-5.36c0,0-1.92,4.36-2,6.68,0,0,1.35-2.29,2.4-2.78,0,0-2.41,3.3-2.73,5.62a20.17,20.17,0,0,0-.18,2.78A2,2,0,0,1,65.61,2732.31Z" transform="translate(274.3 -2576.75)"/><path class="cls-11" d="M154,2732.8h0a2.23,2.23,0,0,1-2.17-2.2c0-2.69-.37-7.24-2.07-9.56A28.51,28.51,0,0,1,152,2725a50,50,0,0,0-.63-5.71,35.28,35.28,0,0,1,2.4,7.31s1-9,.52-10.09c0,0,1.69,4.71.81,8.83,0,0,2-5.91,3.8-6.9,0,0-2.45,4.6-2.51,7.19,0,0,2.16-3.57,2.93-3.3a18.5,18.5,0,0,0-3,8.47A2.23,2.23,0,0,1,154,2732.8Z" transform="translate(274.3 -2576.75)"/><path class="cls-12" d="M218.27,2686.24h0a1.53,1.53,0,0,1-1.5-1.57c0-3.13,0-10.14-1.78-12a11.25,11.25,0,0,1,3,5.51s.67-6.2.44-7.5a12.49,12.49,0,0,1,1.12,7.28s.88-4.12,3.48-4.83c0,0-2.85,3.16-3.15,11.6A1.54,1.54,0,0,1,218.27,2686.24Z" transform="translate(274.3 -2576.75)"/><path class="cls-12" d="M346.32,2694h0a1.54,1.54,0,0,1-1.5-1.57c.05-3.14,0-10.14-1.78-12a11.31,11.31,0,0,1,3,5.51s.67-6.19.45-7.49a12.52,12.52,0,0,1,1.11,7.27s.88-4.12,3.48-4.83c0,0-2.85,3.17-3.15,11.61A1.54,1.54,0,0,1,346.32,2694Z" transform="translate(274.3 -2576.75)"/><path class="cls-10" d="M315.36,2702.36h0a1.94,1.94,0,0,1-2-2.07c.17-2.76.26-7.38-.94-9a14.06,14.06,0,0,1,1.47,3.4s.63-4.64-1.13-6.5c0,0,1.52,1.34,2.45,5.5,0,0,.92-5.67.7-7.23a18.93,18.93,0,0,1,.6,7s1.39-3.84,3.24-5.35c0,0-1.92,4.35-2,6.68,0,0,1.35-2.3,2.4-2.79,0,0-2.42,3.31-2.73,5.63a20.07,20.07,0,0,0-.18,2.78A2,2,0,0,1,315.36,2702.36Z" transform="translate(274.3 -2576.75)"/><path class="cls-11" d="M285,2713.72h0a2.24,2.24,0,0,1-2.18-2.2c0-2.69-.37-7.23-2.06-9.55a29.63,29.63,0,0,1,2.23,3.94s-.38-5.45-.64-5.72a35.66,35.66,0,0,1,2.41,7.31s1-9,.51-10.08c0,0,1.69,4.7.81,8.82,0,0,2-5.9,3.8-6.89,0,0-2.44,4.6-2.51,7.18,0,0,2.16-3.57,2.93-3.29a18.48,18.48,0,0,0-3,8.46A2.24,2.24,0,0,1,285,2713.72Z" transform="translate(274.3 -2576.75)"/><path class="cls-9" d="M254.57,2723.5h0a1.55,1.55,0,0,1-1.51-1.57c.06-3.13,0-10.14-1.78-12a11.25,11.25,0,0,1,3,5.51s.68-6.2.45-7.5a12.54,12.54,0,0,1,1.11,7.28s.88-4.12,3.49-4.83c0,0-2.86,3.16-3.15,11.6A1.54,1.54,0,0,1,254.57,2723.5Z" transform="translate(274.3 -2576.75)"/><path class="cls-10" d="M223.41,2732.31h0a2,2,0,0,1-2-2.07c.17-2.76.26-7.37-.94-9a14.19,14.19,0,0,1,1.47,3.41s.63-4.65-1.13-6.5c0,0,1.52,1.33,2.45,5.49,0,0,.92-5.67.7-7.23a19,19,0,0,1,.6,7s1.39-3.85,3.24-5.36c0,0-1.92,4.36-2,6.68,0,0,1.35-2.29,2.4-2.78,0,0-2.41,3.3-2.73,5.62a23.89,23.89,0,0,0-.18,2.78A2,2,0,0,1,223.41,2732.31Z" transform="translate(274.3 -2576.75)"/><path class="cls-9" d="M376.07,2686.26h0a1.55,1.55,0,0,1-1.5-1.58c.05-3.13,0-10.13-1.78-12a11.31,11.31,0,0,1,3,5.51s.67-6.2.45-7.5a12.56,12.56,0,0,1,1.11,7.28s.88-4.12,3.49-4.83c0,0-2.86,3.17-3.16,11.6A1.54,1.54,0,0,1,376.07,2686.26Z" transform="translate(274.3 -2576.75)"/><path class="cls-11" d="M278.35,2690.08h0a2.24,2.24,0,0,1-2.18-2.2c0-2.69-.37-7.24-2.06-9.56a29.63,29.63,0,0,1,2.23,3.94s-.38-5.45-.64-5.71a35.41,35.41,0,0,1,2.41,7.31s1-9,.51-10.09c0,0,1.7,4.7.82,8.82,0,0,2-5.9,3.79-6.89,0,0-2.44,4.6-2.51,7.19,0,0,2.16-3.57,2.93-3.3a18.49,18.49,0,0,0-3,8.47A2.25,2.25,0,0,1,278.35,2690.08Z" transform="translate(274.3 -2576.75)"/><path class="cls-7" d="M495.54,2668.84c1.49.66.29-2.3-1.34-2.35a54,54,0,0,0-14.82,1.6,33.64,33.64,0,0,0-7.67,2.52c-1.55.84-3.59,3.39-5.2,3.56-1.32.13-2.62-.37-3.95-.42-3.34-.13-6.62,2.58-9.75,1.42-2.83-1.05-2.06,2-4.22,2.5s-3.89-.52-6.14-.31c-6.9.67-20.46,4.18-25.68,9a5.05,5.05,0,0,1-2.4,1.61c-1.22.2-2.5-.7-3.64-.24-.9.37-1.4,1.5-2.37,1.62-1.59.21-2.57-2.49-4.13-2.06-.86.23-1.2,1.33-2,1.72-1,.5-2.12-.29-3.12-.81-5.66-2.95-15.35,3.65-21.46,4.63-5.1.82-14.44,5.3-19.79,3.35a2,2,0,0,0-2.15.56,2.31,2.31,0,0,1-2.62.82c-.72-.27-1.31-.89-2.07-1-1.73-.29-2.69,1.91-3,3.63l-3.28-1.9c-.52-.31-1.13-.62-1.73,0a1.91,1.91,0,0,0-.52,1.18c-.3,3.9-5.13,2.4-7.85,4a10.28,10.28,0,0,1-1.37.84,4.36,4.36,0,0,1-2.5-.08l-5.21-1.21a4,4,0,0,0-2.7,0,9.09,9.09,0,0,0-1.64,1.47,3.71,3.71,0,0,1-2.79.84.93.93,0,0,0-1,.64c-.39,1.11-1.89,1.83-3.15,2.2-3.38,1-14.51,4.47-17.7,2.12a3.26,3.26,0,0,0-3.36-.32c-6,2.82-11.09,2.53-17,4.52-4.29,1.45-8.36,3.56-12.76,4.59-3.31.78-6.74.91-10.1,1.47a40.86,40.86,0,0,0-10.72,3.36,6.68,6.68,0,0,1-9.69,1.21,37.87,37.87,0,0,1-12.08,3.26l-1.49,2.93c-.79-1.1-2.45-.87-3.75-.52-3.23.86-9,3.86-11.46.75,2.25,2.85-13.64,4-14.54,3.93-3.55-.22-8.92-2.62-11.33.92a6.68,6.68,0,0,0-4.43-1.61c-.15,2.37-2.93,3.6-5.3,3.85s-5,.17-6.75,1.81c-.37-1.43-2.45-1.39-3.81-.8a10.08,10.08,0,0,1-2.4.84l-7,1.93-1.8.78a50.33,50.33,0,0,1-9.3,3.33c-2.37.51-4.89.69-7,1.9a12.93,12.93,0,0,1-3.22,1.79c-1.19.3-2.45,0-3.66.15s-2.49,1.27-2.1,2.43c-1.64-1.11-3.92-2.21-5.45-.94-.52.43-.83,1.07-1.38,1.46-1.43,1-3.36-.15-4.71-1.28,2.53,2.12-13.58,5-13.76,5.07-7.16,1-14.36,1.77-21.47,3.09-12.87,2.39-25.9,4.83-37.76,10.36-10.56,4.91-20.25,12.61-25.67,22.8a3.27,3.27,0,0,0,2.41,4.77c9.17,1.3,18.67-.59,27.83-2.49L124,2778.47l247.49-51.24c9.41-1.95,18.87-3.91,27.82-7.41,9.33-3.64,18-8.9,27.42-12.27,12-4.27,24.82-5.37,37.12-8.56s24.76-9.09,31.36-19.95C496.47,2677,496.51,2666.7,495.54,2668.84Z" transform="translate(274.3 -2576.75)"/><polygon class="cls-1" points="339 240.65 339 82.05 752.27 82.05 752.27 232.5 339 240.65"/><path class="cls-7" d="M917.41,2677.75l-443.15-1.6a1.84,1.84,0,0,0-.47.06L19.39,2793.3a1.84,1.84,0,0,0,.43,3.63l897.56,13.45a1.84,1.84,0,0,0,1.87-1.84V2679.59A1.84,1.84,0,0,0,917.41,2677.75Z" transform="translate(274.3 -2576.75)"/><path class="cls-7" d="M934.17,2676.75c1.29,1,.81-2.17-.76-2.6a53.92,53.92,0,0,0-14.78-1.89,33.36,33.36,0,0,0-8,.67c-1.7.45-4.28,2.46-5.89,2.25-1.31-.18-2.46-1-3.74-1.33-3.21-.9-7,1-9.82-.88-2.5-1.68-2.46,1.46-4.68,1.45s-3.66-1.41-5.9-1.73c-6.86-1-20.87-.69-27.06,2.75a5.19,5.19,0,0,1-2.71,1c-1.23-.1-2.26-1.27-3.48-1.08-1,.15-1.72,1.13-2.68,1-1.6-.17-1.93-3-3.54-3-.89,0-1.48,1-2.35,1.21-1.1.25-2-.78-2.85-1.52-4.82-4.18-15.78,0-22-.48-5.16-.39-15.27,1.8-20-1.34a2,2,0,0,0-2.22,0,2.31,2.31,0,0,1-2.74.19c-.64-.43-1.06-1.16-1.78-1.46-1.61-.69-3.06,1.23-3.78,2.82l-2.76-2.61c-.43-.41-1-.87-1.67-.43a1.86,1.86,0,0,0-.78,1c-1.2,3.73-5.54,1.15-8.57,2.08a10.47,10.47,0,0,1-1.53.49,4.27,4.27,0,0,1-2.4-.66l-4.79-2.39a4,4,0,0,0-2.63-.62,8.67,8.67,0,0,0-1.94,1,3.7,3.7,0,0,1-2.9.18,1,1,0,0,0-1.12.38c-.63,1-2.26,1.35-3.57,1.41-3.51.17-15.16,1-17.71-2.05a3.27,3.27,0,0,0-3.19-1.09c-6.48,1.35-11.38-.11-17.57.45-4.51.41-9,1.52-13.48,1.5-3.4,0-6.77-.68-10.16-.92a40.86,40.86,0,0,0-11.2.77,6.7,6.7,0,0,1-9.72-1.07,38,38,0,0,1-12.5.36l-2.13,2.5c-.51-1.25-2.18-1.41-3.53-1.37-3.34.09-9.66,1.66-11.32-1.94,1.52,3.29-14.19.71-15.05.44-3.4-1-8.07-4.62-11.24-1.74A6.65,6.65,0,0,0,606,2666c-.7,2.27-3.69,2.82-6,2.51s-4.93-1-7,.2c0-1.48-2.06-1.93-3.51-1.67a10.44,10.44,0,0,1-2.54.26l-7.3.23-1.93.34a49.38,49.38,0,0,1-9.82,1.08c-2.43,0-4.92-.46-7.24.23a13.45,13.45,0,0,1-3.55,1c-1.23,0-2.37-.6-3.59-.71s-2.72.66-2.61,1.88c-1.34-1.46-3.3-3.06-5.08-2.18-.6.29-1.06.84-1.68,1.1-1.63.66-3.24-.93-4.29-2.34,2,2.65-14.38,1.75-14.56,1.73-7.2-.7-14.37-1.62-21.6-2-13.07-.66-26.31-1.32-39.14,1.3-11.4,2.33-22.62,7.55-30.26,16.21a3.28,3.28,0,0,0,1.23,5.2c8.62,3.4,18.3,3.77,27.65,4.05l84.22,2.57L800,2704.7c9.6.3,19.26.59,28.78-.73,9.92-1.38,19.56-4.48,29.52-5.56,12.63-1.38,25.39.54,38.09.3s26.2-3.09,35.15-12.11C933.16,2684.93,935.61,2674.89,934.17,2676.75Z" transform="translate(274.3 -2576.75)"/><path class="cls-8" d="M709.08,2739.84s-373-3-373-6.47,88.67-44.91,190.28-47.19c0,0,370.28-3,364.57,2.28S709.08,2739.84,709.08,2739.84Z" transform="translate(274.3 -2576.75)"/><path class="cls-9" d="M502.05,2698.13h0a1.54,1.54,0,0,1-1.4-1.66c.26-3.13.63-10.12-1-12.07a11.38,11.38,0,0,1,2.6,5.7s1.07-6.14.93-7.45a12.46,12.46,0,0,1,.64,7.33s1.14-4.05,3.79-4.59c0,0-3.05,3-3.9,11.37A1.53,1.53,0,0,1,502.05,2698.13Z" transform="translate(274.3 -2576.75)"/><path class="cls-10" d="M470.6,2704.45h0a2,2,0,0,1-1.88-2.2c.35-2.74.74-7.34-.35-9a14.28,14.28,0,0,1,1.25,3.49s.93-4.59-.71-6.56c0,0,1.43,1.43,2.09,5.65,0,0,1.28-5.6,1.17-7.17a19,19,0,0,1,.14,7s1.64-3.75,3.58-5.14c0,0-2.2,4.22-2.41,6.54,0,0,1.5-2.2,2.58-2.62,0,0-2.63,3.14-3.09,5.43a20.48,20.48,0,0,0-.36,2.77A2,2,0,0,1,470.6,2704.45Z" transform="translate(274.3 -2576.75)"/><path class="cls-11" d="M551.22,2707.75h0a2.23,2.23,0,0,1-2-2.34c.13-2.68.1-7.24-1.44-9.67a29.2,29.2,0,0,1,2,4.08,50.66,50.66,0,0,0-.26-5.74,35.06,35.06,0,0,1,1.92,7.45s1.59-9,1.17-10c0,0,1.38,4.8.24,8.86,0,0,2.34-5.77,4.24-6.64,0,0-2.74,4.43-3,7,0,0,2.39-3.42,3.14-3.09a18.46,18.46,0,0,0-3.57,8.25A2.23,2.23,0,0,1,551.22,2707.75Z" transform="translate(274.3 -2576.75)"/><path class="cls-12" d="M520.35,2716h0a1.54,1.54,0,0,1-1.4-1.66c.26-3.13.63-10.12-1-12.07a11.38,11.38,0,0,1,2.6,5.7s1.08-6.14.94-7.46a12.55,12.55,0,0,1,.63,7.34s1.15-4.06,3.8-4.6c0,0-3.06,3-3.91,11.38A1.53,1.53,0,0,1,520.35,2716Z" transform="translate(274.3 -2576.75)"/><path class="cls-10" d="M486.43,2724.62h0a2,2,0,0,1-1.88-2.2c.35-2.74.74-7.34-.35-9a14,14,0,0,1,1.24,3.49s.94-4.59-.7-6.56c0,0,1.43,1.43,2.09,5.65,0,0,1.28-5.6,1.17-7.17a18.93,18.93,0,0,1,.14,7s1.64-3.75,3.58-5.14c0,0-2.2,4.22-2.41,6.54,0,0,1.5-2.2,2.58-2.62,0,0-2.63,3.14-3.09,5.43a20.48,20.48,0,0,0-.36,2.77A2,2,0,0,1,486.43,2724.62Z" transform="translate(274.3 -2576.75)"/><path class="cls-11" d="M439.56,2713.81h0a2.23,2.23,0,0,1-2-2.34c.14-2.69.1-7.25-1.44-9.67a29.5,29.5,0,0,1,2,4.07,50.66,50.66,0,0,0-.26-5.74,35.06,35.06,0,0,1,1.92,7.45s1.59-8.95,1.17-10c0,0,1.39,4.81.24,8.86,0,0,2.34-5.76,4.24-6.63,0,0-2.74,4.43-3,7,0,0,2.39-3.43,3.14-3.1a18.46,18.46,0,0,0-3.57,8.25A2.24,2.24,0,0,1,439.56,2713.81Z" transform="translate(274.3 -2576.75)"/><path class="cls-12" d="M408.56,2721.58h0a1.55,1.55,0,0,1-1.4-1.67c.26-3.12.63-10.12-1-12.06a11.32,11.32,0,0,1,2.6,5.69s1.08-6.14.94-7.45a12.52,12.52,0,0,1,.63,7.33s1.15-4.05,3.8-4.59c0,0-3.06,3-3.91,11.37A1.54,1.54,0,0,1,408.56,2721.58Z" transform="translate(274.3 -2576.75)"/><path class="cls-10" d="M374.64,2730.16h0a2,2,0,0,1-1.88-2.2c.36-2.74.74-7.34-.35-9a14.24,14.24,0,0,1,1.25,3.5s.93-4.6-.71-6.57c0,0,1.43,1.43,2.09,5.65,0,0,1.29-5.6,1.17-7.17a19,19,0,0,1,.14,7s1.64-3.75,3.58-5.13c0,0-2.2,4.22-2.41,6.54,0,0,1.5-2.21,2.58-2.63,0,0-2.62,3.14-3.09,5.44a20.15,20.15,0,0,0-.36,2.76A2,2,0,0,1,374.64,2730.16Z" transform="translate(274.3 -2576.75)"/><path class="cls-11" d="M454.67,2733.41h0a2.22,2.22,0,0,1-2-2.34c.13-2.68.1-7.24-1.44-9.67a29.2,29.2,0,0,1,2,4.08,50.66,50.66,0,0,0-.26-5.74,35.75,35.75,0,0,1,1.92,7.45s1.59-9,1.17-10c0,0,1.38,4.8.24,8.86,0,0,2.34-5.77,4.24-6.64,0,0-2.75,4.43-3,7,0,0,2.39-3.42,3.14-3.09a18.46,18.46,0,0,0-3.57,8.25A2.23,2.23,0,0,1,454.67,2733.41Z" transform="translate(274.3 -2576.75)"/><path class="cls-12" d="M532.92,2688.56h0a1.54,1.54,0,0,1-1.4-1.66c.26-3.13.63-10.12-1-12.07a11.29,11.29,0,0,1,2.61,5.69s1.07-6.13.93-7.45a12.5,12.5,0,0,1,.64,7.34s1.14-4.06,3.79-4.6c0,0-3,3-3.9,11.38A1.53,1.53,0,0,1,532.92,2688.56Z" transform="translate(274.3 -2576.75)"/><path class="cls-11" d="M581.56,2698.9h0a2.24,2.24,0,0,1-2-2.34c.14-2.69.11-7.24-1.43-9.67a29.5,29.5,0,0,1,2,4.07,50.76,50.76,0,0,0-.26-5.74,36,36,0,0,1,1.92,7.45s1.59-9,1.17-10c0,0,1.38,4.8.23,8.85,0,0,2.35-5.76,4.24-6.63,0,0-2.74,4.43-3,7,0,0,2.39-3.42,3.14-3.1A18.46,18.46,0,0,0,584,2697,2.24,2.24,0,0,1,581.56,2698.9Z" transform="translate(274.3 -2576.75)"/><path class="cls-9" d="M656.5,2696.71h0a1.55,1.55,0,0,1-1.5-1.57c0-3.14,0-10.14-1.78-12a11.31,11.31,0,0,1,3,5.51s.67-6.19.45-7.49a12.52,12.52,0,0,1,1.11,7.27s.88-4.12,3.49-4.83c0,0-2.86,3.17-3.16,11.61A1.54,1.54,0,0,1,656.5,2696.71Z" transform="translate(274.3 -2576.75)"/><path class="cls-10" d="M625.54,2705.06h0a2,2,0,0,1-2-2.07c.17-2.76.26-7.38-.94-9a14.06,14.06,0,0,1,1.47,3.4s.63-4.64-1.13-6.5c0,0,1.52,1.33,2.45,5.5,0,0,.92-5.67.7-7.23a18.93,18.93,0,0,1,.6,7s1.39-3.84,3.24-5.35c0,0-1.92,4.35-2,6.68,0,0,1.35-2.3,2.4-2.79,0,0-2.41,3.31-2.73,5.63a20.07,20.07,0,0,0-.18,2.78A2,2,0,0,1,625.54,2705.06Z" transform="translate(274.3 -2576.75)"/><path class="cls-11" d="M716.63,2703.59h0a2.24,2.24,0,0,1-2.18-2.2c0-2.69-.37-7.24-2.06-9.56a30.33,30.33,0,0,1,2.23,3.94s-.38-5.44-.64-5.71a35.66,35.66,0,0,1,2.41,7.31s1-9,.51-10.08c0,0,1.7,4.7.82,8.82,0,0,2-5.91,3.79-6.9,0,0-2.44,4.6-2.51,7.19,0,0,2.16-3.57,2.93-3.29a18.48,18.48,0,0,0-3,8.46A2.24,2.24,0,0,1,716.63,2703.59Z" transform="translate(274.3 -2576.75)"/><path class="cls-12" d="M686.37,2713.87h0a1.53,1.53,0,0,1-1.5-1.57c0-3.14,0-10.14-1.78-12a11.4,11.4,0,0,1,3,5.52s.67-6.2.44-7.5a12.49,12.49,0,0,1,1.12,7.28s.88-4.12,3.48-4.84c0,0-2.85,3.17-3.15,11.61A1.54,1.54,0,0,1,686.37,2713.87Z" transform="translate(274.3 -2576.75)"/><path class="cls-10" d="M653.09,2724.65h0a2,2,0,0,1-2-2.07c.18-2.76.26-7.38-.93-9a13.76,13.76,0,0,1,1.46,3.4s.64-4.64-1.13-6.5c0,0,1.52,1.33,2.45,5.5,0,0,.92-5.67.7-7.23a18.67,18.67,0,0,1,.6,7s1.39-3.84,3.24-5.35c0,0-1.92,4.35-2,6.68,0,0,1.36-2.3,2.4-2.79,0,0-2.41,3.31-2.73,5.63a21.63,21.63,0,0,0-.17,2.78A2,2,0,0,1,653.09,2724.65Z" transform="translate(274.3 -2576.75)"/><path class="cls-11" d="M595.17,2716.42h0a2.24,2.24,0,0,1-2.18-2.2c0-2.69-.37-7.23-2.06-9.56a30.33,30.33,0,0,1,2.23,3.94s-.38-5.44-.64-5.71a35.66,35.66,0,0,1,2.41,7.31s1-9,.51-10.08c0,0,1.7,4.7.82,8.82,0,0,2-5.9,3.79-6.89,0,0-2.44,4.59-2.51,7.18,0,0,2.16-3.57,2.93-3.29a18.48,18.48,0,0,0-3,8.46A2.24,2.24,0,0,1,595.17,2716.42Z" transform="translate(274.3 -2576.75)"/><path class="cls-12" d="M564.75,2726.2h0a1.55,1.55,0,0,1-1.51-1.57c.06-3.14,0-10.14-1.77-12a11.34,11.34,0,0,1,3,5.52s.68-6.2.45-7.5A12.54,12.54,0,0,1,566,2718s.88-4.12,3.49-4.84c0,0-2.85,3.17-3.15,11.61A1.54,1.54,0,0,1,564.75,2726.2Z" transform="translate(274.3 -2576.75)"/><path class="cls-10" d="M533.59,2735h0a2,2,0,0,1-2-2.07c.18-2.76.26-7.37-.94-9a13.79,13.79,0,0,1,1.47,3.41s.64-4.65-1.13-6.5c0,0,1.52,1.33,2.45,5.49,0,0,.92-5.67.7-7.23a19,19,0,0,1,.6,7s1.39-3.85,3.24-5.36c0,0-1.92,4.35-2,6.68,0,0,1.35-2.29,2.4-2.78,0,0-2.41,3.3-2.73,5.62a23.89,23.89,0,0,0-.18,2.78A2,2,0,0,1,533.59,2735Z" transform="translate(274.3 -2576.75)"/><path class="cls-11" d="M622,2735.5h0a2.24,2.24,0,0,1-2.18-2.2c0-2.69-.37-7.24-2.07-9.56a29.35,29.35,0,0,1,2.24,3.94,50.11,50.11,0,0,0-.64-5.71,35.41,35.41,0,0,1,2.41,7.31s1-9,.51-10.09c0,0,1.69,4.7.81,8.82,0,0,2-5.9,3.8-6.89,0,0-2.44,4.6-2.51,7.19,0,0,2.16-3.57,2.93-3.3a18.49,18.49,0,0,0-3,8.47A2.25,2.25,0,0,1,622,2735.5Z" transform="translate(274.3 -2576.75)"/><path class="cls-12" d="M686.26,2688.94h0a1.55,1.55,0,0,1-1.51-1.57c0-3.13,0-10.14-1.78-12a11.25,11.25,0,0,1,3,5.51s.68-6.2.45-7.5a12.54,12.54,0,0,1,1.11,7.28s.88-4.12,3.49-4.83c0,0-2.86,3.16-3.15,11.6A1.54,1.54,0,0,1,686.26,2688.94Z" transform="translate(274.3 -2576.75)"/><path class="cls-12" d="M814.31,2696.71h0a1.56,1.56,0,0,1-1.51-1.57c.06-3.14,0-10.14-1.78-12a11.31,11.31,0,0,1,3,5.51s.68-6.19.45-7.49a12.52,12.52,0,0,1,1.11,7.27s.88-4.12,3.49-4.83c0,0-2.86,3.17-3.15,11.61A1.54,1.54,0,0,1,814.31,2696.71Z" transform="translate(274.3 -2576.75)"/><path class="cls-10" d="M783.34,2705.06h0a2,2,0,0,1-2-2.07c.17-2.76.26-7.38-.94-9a14.06,14.06,0,0,1,1.47,3.4s.64-4.64-1.13-6.5c0,0,1.52,1.33,2.45,5.5,0,0,.92-5.67.7-7.23a18.93,18.93,0,0,1,.6,7s1.39-3.84,3.24-5.35c0,0-1.92,4.35-2,6.68,0,0,1.35-2.3,2.4-2.79,0,0-2.41,3.31-2.73,5.63a23.75,23.75,0,0,0-.18,2.78A2,2,0,0,1,783.34,2705.06Z" transform="translate(274.3 -2576.75)"/><path class="cls-11" d="M753,2716.42h0a2.22,2.22,0,0,1-2.17-2.2c0-2.69-.38-7.23-2.07-9.56a29.16,29.16,0,0,1,2.23,3.94,50.22,50.22,0,0,0-.63-5.71,35.28,35.28,0,0,1,2.4,7.31s1-9,.51-10.08c0,0,1.7,4.7.82,8.82,0,0,2-5.9,3.8-6.89,0,0-2.45,4.59-2.51,7.18,0,0,2.16-3.57,2.93-3.29a18.43,18.43,0,0,0-3,8.46A2.24,2.24,0,0,1,753,2716.42Z" transform="translate(274.3 -2576.75)"/><path class="cls-9" d="M722.55,2726.2h0a1.53,1.53,0,0,1-1.5-1.57c.05-3.14,0-10.14-1.78-12a11.31,11.31,0,0,1,3,5.52s.67-6.2.44-7.5a12.49,12.49,0,0,1,1.12,7.28s.88-4.12,3.48-4.84c0,0-2.85,3.17-3.15,11.61A1.54,1.54,0,0,1,722.55,2726.2Z" transform="translate(274.3 -2576.75)"/><path class="cls-10" d="M691.4,2735h0a2,2,0,0,1-2-2.07c.18-2.76.26-7.37-.93-9a13.89,13.89,0,0,1,1.46,3.41s.64-4.65-1.13-6.5c0,0,1.52,1.33,2.45,5.49,0,0,.92-5.67.7-7.23a18.71,18.71,0,0,1,.6,7s1.4-3.85,3.25-5.36c0,0-1.93,4.35-2,6.68,0,0,1.35-2.29,2.4-2.78,0,0-2.42,3.3-2.73,5.62a20.17,20.17,0,0,0-.18,2.78A2,2,0,0,1,691.4,2735Z" transform="translate(274.3 -2576.75)"/><path class="cls-9" d="M844.06,2689h0a1.55,1.55,0,0,1-1.51-1.57c.06-3.13,0-10.13-1.77-12a11.34,11.34,0,0,1,3,5.51s.68-6.2.45-7.5a12.45,12.45,0,0,1,1.11,7.28s.88-4.12,3.49-4.83c0,0-2.85,3.17-3.15,11.6A1.53,1.53,0,0,1,844.06,2689Z" transform="translate(274.3 -2576.75)"/><path class="cls-11" d="M746.34,2692.77h0a2.23,2.23,0,0,1-2.18-2.19c0-2.7-.37-7.24-2.07-9.56a28.51,28.51,0,0,1,2.23,3.94,50,50,0,0,0-.63-5.71,35,35,0,0,1,2.4,7.31s1-9,.52-10.09c0,0,1.69,4.7.81,8.82,0,0,2-5.9,3.8-6.89,0,0-2.45,4.6-2.51,7.19,0,0,2.16-3.58,2.93-3.3a18.44,18.44,0,0,0-3,8.47A2.22,2.22,0,0,1,746.34,2692.77Z" transform="translate(274.3 -2576.75)"/><path class="cls-7" d="M760.2,2737c1.3,1,.81-2.17-.76-2.6a54.2,54.2,0,0,0-14.78-1.89,33.4,33.4,0,0,0-8,.67c-1.7.45-4.28,2.46-5.89,2.25-1.31-.18-2.46-1-3.74-1.33-3.21-.9-7,1-9.81-.88-2.51-1.68-2.46,1.46-4.69,1.45s-3.66-1.41-5.9-1.73c-6.86-1-20.87-.69-27.06,2.75a5.16,5.16,0,0,1-2.71,1c-1.22-.1-2.26-1.27-3.48-1.08-1,.15-1.71,1.13-2.68,1-1.6-.17-1.92-3-3.53-3-.9,0-1.49,1-2.36,1.21-1.1.25-2-.78-2.85-1.52-4.82-4.18-15.78,0-21.95-.48-5.15-.38-15.27,1.8-20-1.34a2,2,0,0,0-2.22,0,2.31,2.31,0,0,1-2.74.19c-.64-.43-1.06-1.16-1.77-1.46-1.62-.68-3.07,1.23-3.79,2.83l-2.75-2.62c-.44-.41-1-.86-1.67-.43a1.78,1.78,0,0,0-.78,1c-1.2,3.73-5.55,1.15-8.58,2.08a10.35,10.35,0,0,1-1.52.49,4.38,4.38,0,0,1-2.41-.65l-4.79-2.4a4,4,0,0,0-2.63-.62,8.8,8.8,0,0,0-1.93,1,3.73,3.73,0,0,1-2.91.18.94.94,0,0,0-1.11.38c-.64,1-2.27,1.35-3.58,1.41-3.51.17-15.15,1-17.7-2.05a3.28,3.28,0,0,0-3.2-1.09c-6.48,1.36-11.37-.11-17.57.45-4.5.41-8.95,1.52-13.47,1.5-3.41,0-6.77-.68-10.17-.92a40.48,40.48,0,0,0-11.2.78,6.69,6.69,0,0,1-9.71-1.08,38.08,38.08,0,0,1-12.51.36l-2.13,2.5c-.51-1.25-2.18-1.41-3.53-1.37-3.34.09-9.65,1.66-11.32-1.94,1.53,3.29-14.18.71-15.05.44-3.4-1-8.06-4.62-11.24-1.74a6.65,6.65,0,0,0-3.93-2.59c-.7,2.27-3.69,2.82-6,2.51s-4.93-1-7,.2c0-1.48-2.05-1.93-3.51-1.67a10.39,10.39,0,0,1-2.54.26l-7.3.23-1.93.34a49.3,49.3,0,0,1-9.82,1.08c-2.43,0-4.91-.46-7.24.23a13.24,13.24,0,0,1-3.55,1c-1.22,0-2.37-.6-3.59-.7s-2.72.65-2.61,1.87c-1.34-1.46-3.3-3.06-5.08-2.18-.6.29-1.06.84-1.68,1.1-1.63.66-3.24-.93-4.28-2.34,2,2.65-14.38,1.75-14.57,1.73-7.2-.7-14.37-1.62-21.6-2-13.07-.66-26.31-1.31-39.14,1.3-11.4,2.33-22.61,7.56-30.26,16.21a3.27,3.27,0,0,0,1.24,5.2c8.61,3.4,18.29,3.77,27.64,4.05l84.23,2.57L626,2764.91c9.6.3,19.26.59,28.78-.73,9.92-1.38,19.56-4.48,29.52-5.56,12.64-1.37,25.39.54,38.1.3s26.19-3.09,35.14-12.11C759.19,2745.14,761.64,2735.1,760.2,2737Z" transform="translate(274.3 -2576.75)"/><path class="cls-7" d="M574.65,2796.11c11.43-3.21,23.62-4.06,34.32-9.19,5.25-2.52,10-6,15.44-8.18,5.06-2,10.51-2.76,15.9-3.51l24.1-3.32c12.56-1.73,26.29-4.07,34.52-13.72a7.5,7.5,0,0,0,1.83-3.21c.61-2.89-1.91-5.69-4.76-6.5s-5.87-.16-8.77.43a232.19,232.19,0,0,1-50.17,4.62c-8.28-.13-16.49-.83-24.72-1.72-5.84-.64-13.12-.89-18.31,2.24-3.65,2.2-5.92,3.6-10.3,3.67-3.1.05-7.44-1-9.11,2.49-.42.9-.68,2-1.61,2.39-1.24.47-2.77-.92-3.86-.16-.66.46-.7,1.44-1.25,2-1.06,1.12-2.9.07-4.44.16-2,.11-3.32,2.17-5.17,3a8.61,8.61,0,0,1-3,.5l-12.63.6a3.27,3.27,0,0,0-1.78.43,5,5,0,0,0-1.08,1.51c-1.74,2.82-5.65,3.17-9,3s-7.07-.37-9.44,1.94c-3.41,3.32-7.85,1.84-12.28,2.58-5.13.86-9.47,4.31-14.66,4.87-3.51.38-5.51-.25-8.43,2.16-1.39,1.14-1.61,2.84-3.58,3.06-1.75.19-2.93-2.39-4.88-1.84-1.49.42-1.94,2.58-3.42,3-1.09.32-2.16-.43-3.15-1s-2.43-.84-3.09.08c-.28.39-.33.9-.6,1.3-1.11,1.62-4.19-.28-5.49,1.2-.56.63-.53,1.67-1.19,2.19-.87.68-2.25,0-3.22.49-.55.3-.82.92-1.26,1.36-1.53,1.55-4.08.37-6.21-.1-3.45-.76-5.32,1.05-8.29,2.12s-6.33,1.49-9.38,2.19c-6.28,1.45-13.3,3.3-16.51,8.88" transform="translate(274.3 -2576.75)"/></g></svg>