<svg id="เงา4" xmlns="http://www.w3.org/2000/svg" viewBox="0 0 480.12 482.53"><defs><style>.cls-1{opacity:0.62;}</style></defs><title>30</title><g class="cls-1"><polygon points="1.17 218.78 1.17 218.78 1.17 218.78 1.17 218.78"/><polygon points="331.76 20.7 331.76 20.7 331.76 20.7 331.76 20.7"/><path d="M157,1655.94c.1-1,.21-2,.32-3C157.18,1654,157.07,1655,157,1655.94Z" transform="translate(-155.8 -1437.16)"/><path d="M487.56,1457.86c-84-40.31-174-9.31-174-9.31l74.37,221.71L202.52,1530.55c-.65,1.37-48,67-45.55,125.39-10.1,101.53,45.8,202.18,144.59,244.39,121.89,52.08,262.92-4.52,315-126.41S612,1511,490.14,1458.93C489.28,1458.56,488.42,1458.22,487.56,1457.86Z" transform="translate(-155.8 -1437.16)"/><path d="M470.49,1451.55c5.72,1.88,11.42,4,17.07,6.31-5.65-2.34-11.35-4.43-17.07-6.31Z" transform="translate(-155.8 -1437.16)"/></g></svg>