<svg id="เงา3" xmlns="http://www.w3.org/2000/svg" viewBox="0 0 444.11 480.02"><defs><style>.cls-1{opacity:0.62;}</style></defs><title>31</title><g class="cls-1"><polygon points="124.85 466.61 124.85 466.61 124.84 466.61 124.85 466.61"/><polygon points="10.15 98.68 10.15 98.69 10.15 98.68 10.15 98.68"/><path d="M319.23,1893.29l-2.79-1Z" transform="translate(-194.39 -1426.68)"/><path d="M204.54,1525.36c-3,4.46-4.59,7.1-4.59,7.1L387.5,1672.22l-71.91,218.29c1.18,1,2.4,1.88,3.64,2.78,96.3,33.71,207.28,3.08,271.56-83,79.3-106.2,57.49-256.59-48.71-335.89s-256.6-57.5-335.9,48.71C205.62,1523.85,205.08,1524.61,204.54,1525.36Z" transform="translate(-194.39 -1426.68)"/><path d="M194.39,1540.46q4.76-7.68,10.14-15.1-5.4,7.41-10.14,15.1Z" transform="translate(-194.39 -1426.68)"/></g></svg>