<svg id="เงา2" xmlns="http://www.w3.org/2000/svg" viewBox="0 0 480.12 474.06"><defs><style>.cls-1{opacity:0.62;}</style></defs><title>32</title><g class="cls-1"><polygon points="480.12 241.6 480.12 241.6 480.12 241.6 480.12 241.6"/><polygon points="169.22 469.35 169.22 469.35 169.22 469.35 169.22 469.35"/><path d="M620.41,1665.72c0,1,0,2,0,3C620.38,1667.7,620.4,1666.71,620.41,1665.72Z" transform="translate(-140.29 -1424.11)"/><path d="M309.51,1893.46c5.18,1.39,4,2.09,4,2.09l75-225,230.44-.49c.53-1.42,1-2.88,1.45-4.34.68-102-64.27-197.09-166.54-230-126.17-40.61-261.37,28.76-302,154.94s28.77,261.38,155,302C307.73,1892.93,308.62,1893.19,309.51,1893.46Z" transform="translate(-140.29 -1424.11)"/><path d="M327.08,1898.17q-8.81-2-17.57-4.71,8.76,2.71,17.57,4.71Z" transform="translate(-140.29 -1424.11)"/></g></svg>