<svg id="เงา1" xmlns="http://www.w3.org/2000/svg" viewBox="0 0 480 469.85"><defs><style>.cls-1{opacity:0.62;}</style></defs><title>33</title><g class="cls-1"><polygon points="167.93 0.86 167.93 0.86 167.93 0.86 167.93 0.86"/><polygon points="479.96 227.05 479.96 227.05 479.96 227.05 479.96 227.05"/><path d="M310.45,1452.56l2.84-.86Z" transform="translate(-142.52 -1451.7)"/><path d="M622.49,1678.75c-.27-5.36-.58-8.43-.58-8.43l-233.9.23-73-217.94c-1.52-.06-3-.07-4.58,0-97.33,30.6-167.93,121.54-167.93,229,0,132.55,107.45,240,240,240s240-107.45,240-240C622.52,1680.61,622.5,1679.68,622.49,1678.75Z" transform="translate(-142.52 -1451.7)"/><path d="M621.58,1660.58q.79,9,.91,18.17-.11-9.18-.9-18.17Z" transform="translate(-142.52 -1451.7)"/></g></svg>