<svg id="Layer_34" data-name="Layer 34" xmlns="http://www.w3.org/2000/svg" viewBox="0 0 496.13 89.44"><defs><style>.cls-1{fill:#4d4032;}</style></defs><title>36</title><path class="cls-1" d="M128.39,534.77h2L129,539.84h-2.29Zm3.82,0h1.93l-1.36,5.07H130.5Z" transform="translate(-126.67 -526.6)"/><path class="cls-1" d="M145.71,546.7c0-1.73.68-2.81,2-3.22l-2.81-.71v-2.91a9.63,9.63,0,0,1,2.9-1.71,10.46,10.46,0,0,1,3.84-.68,7.42,7.42,0,0,1,4.81,1.33,5.21,5.21,0,0,1,1.61,4.26v8.71h-2.84V543a3.17,3.17,0,0,0-.83-2.51,4.46,4.46,0,0,0-2.86-.71,7.83,7.83,0,0,0-2.4.36,4.89,4.89,0,0,0-1.78,1v.47l3,.76v1.87a2.43,2.43,0,0,0-1.43.83,2.89,2.89,0,0,0-.42,1.72v5h-2.8Z" transform="translate(-126.67 -526.6)"/><path class="cls-1" d="M166.17,542.93a5.54,5.54,0,0,0-.24-1.81,1.76,1.76,0,0,0-.89-1,4.25,4.25,0,0,0-1.91-.35,10.59,10.59,0,0,0-3.57.67v-2.18a10.68,10.68,0,0,1,1.93-.56,11,11,0,0,1,2.18-.22,5.72,5.72,0,0,1,4.07,1.22,5.22,5.22,0,0,1,1.26,3.88v9.2h-2.83Z" transform="translate(-126.67 -526.6)"/><path class="cls-1" d="M173.67,551.85a8.69,8.69,0,0,1-2.09-.52V549a10.74,10.74,0,0,0,2.1.6,11.94,11.94,0,0,0,2.16.21,7.47,7.47,0,0,0,2.7-.34,1.32,1.32,0,0,0,.81-1.35,1.5,1.5,0,0,0-.31-1,2.23,2.23,0,0,0-.86-.61,17.83,17.83,0,0,0-1.69-.6l-1-.34a10.1,10.1,0,0,1-3.19-1.6,3,3,0,0,1-1-2.46,3.45,3.45,0,0,1,1.43-3,7.07,7.07,0,0,1,4.21-1,15.18,15.18,0,0,1,2.31.18,13.52,13.52,0,0,1,2,.44v2.34a10.91,10.91,0,0,0-1.88-.49,12,12,0,0,0-2-.18,6.9,6.9,0,0,0-2.49.35,1.28,1.28,0,0,0-.84,1.29,1.25,1.25,0,0,0,.35.91,2.83,2.83,0,0,0,1,.61c.4.16,1,.38,1.84.66l.76.23a9.4,9.4,0,0,1,3.22,1.66,3.8,3.8,0,0,1-.52,5.59,7.72,7.72,0,0,1-4.21,1A19.39,19.39,0,0,1,173.67,551.85Z" transform="translate(-126.67 -526.6)"/><path class="cls-1" d="M184.32,540.36a2.71,2.71,0,0,1,.65-1.9,2.29,2.29,0,0,1,1.82-.73h2.67l.13,2.18h-1.35a1.2,1.2,0,0,0-.92.3,1.45,1.45,0,0,0-.27,1V548l3.43-6h1.14l3.43,6V537.73h2.71v14H195l-3.93-6.94-4,6.94h-2.78Z" transform="translate(-126.67 -526.6)"/><path class="cls-1" d="M201.38,551a3.91,3.91,0,0,1-1.31-3.24,3.87,3.87,0,0,1,1.41-3.21,6.32,6.32,0,0,1,4.05-1.13h4.29v-.89a3.27,3.27,0,0,0-.34-1.63,1.86,1.86,0,0,0-1.11-.86,7.2,7.2,0,0,0-2.16-.26,15,15,0,0,0-4.58.67v-2.18a18.33,18.33,0,0,1,2.41-.56,15.85,15.85,0,0,1,2.64-.22,6.68,6.68,0,0,1,4.52,1.29,5.08,5.08,0,0,1,1.46,4v9h-2.84v-6.19h-4.11a4,4,0,0,0-2.22.5,1.86,1.86,0,0,0-.71,1.66,1.75,1.75,0,0,0,.65,1.57,3.86,3.86,0,0,0,2.18.46,6.71,6.71,0,0,0,1.79-.21v2.16a9.35,9.35,0,0,1-2.54.31A5.43,5.43,0,0,1,201.38,551Z" transform="translate(-126.67 -526.6)"/><path class="cls-1" d="M201.92,533.62h10.71v2H201.79Z" transform="translate(-126.67 -526.6)"/><path class="cls-1" d="M216.45,550.28a7.82,7.82,0,0,1-1.56-5.32,10.49,10.49,0,0,1,1.21-5.55,3.83,3.83,0,0,1,3.42-1.94,3.43,3.43,0,0,1,1.65.34,3.53,3.53,0,0,1,1.16,1,4,4,0,0,1,1.43-1,4.57,4.57,0,0,1,1.79-.38,3.13,3.13,0,0,1,2.5,1,4.11,4.11,0,0,1,.86,2.78v10.53h-2.84V541.66a2.77,2.77,0,0,0-.28-1.47,1.24,1.24,0,0,0-1.1-.43,1.64,1.64,0,0,0-1,.3,1.76,1.76,0,0,0-.64.89h-1.56a2.91,2.91,0,0,0-.67-.92,1.48,1.48,0,0,0-.94-.27,1.81,1.81,0,0,0-1.78,1.32,11.37,11.37,0,0,0-.51,3.88,6.09,6.09,0,0,0,.87,3.69,3.13,3.13,0,0,0,2.64,1.12,5.79,5.79,0,0,0,1.8-.21v2.16a7,7,0,0,1-2.29.31A5.33,5.33,0,0,1,216.45,550.28Z" transform="translate(-126.67 -526.6)"/><path class="cls-1" d="M231.71,549.07V537.73h2.81v10.63a1.26,1.26,0,0,0,.27.89,1.19,1.19,0,0,0,.88.28h1.19v2.24h-2.42A2.4,2.4,0,0,1,231.71,549.07Z" transform="translate(-126.67 -526.6)"/><path class="cls-1" d="M240.77,550.59a5.36,5.36,0,0,1-1.67-4.28v-8.58h2.83v8.68a3.27,3.27,0,0,0,.9,2.54,4.84,4.84,0,0,0,5.39,0,3.24,3.24,0,0,0,.91-2.54V533.57h2.81v12.74a5.35,5.35,0,0,1-1.66,4.28,8.57,8.57,0,0,1-9.51,0Z" transform="translate(-126.67 -526.6)"/><path class="cls-1" d="M239.57,534.9a2.81,2.81,0,0,1-.86-2.21,3,3,0,0,1,.91-2.3,3.59,3.59,0,0,1,2.57-.85h5.72l-.13,1.66h-5.33a2.08,2.08,0,0,0-1.34.36,1.39,1.39,0,0,0-.43,1.13c0,.92.49,1.37,1.46,1.37s1.35-.36,1.35-1.09v-.54h1.74V533a.94.94,0,0,0,.29.78,1.4,1.4,0,0,0,.91.24h1v1.63h-1.19a3.34,3.34,0,0,1-1.19-.19,1.27,1.27,0,0,1-.71-.61,1.65,1.65,0,0,1-.95.64,4.92,4.92,0,0,1-1.44.22A3.42,3.42,0,0,1,239.57,534.9Z" transform="translate(-126.67 -526.6)"/><path class="cls-1" d="M256,550.69a5.26,5.26,0,0,1-1.26-3.76v-9.2h2.83v9.07a3.16,3.16,0,0,0,.69,2.27,3,3,0,0,0,2.2.7,5.29,5.29,0,0,0,2.16-.47,5.39,5.39,0,0,0,1.74-1.22V537.73h2.81v14h-2.58l-.13-1.53a7.32,7.32,0,0,1-4.94,1.79A4.6,4.6,0,0,1,256,550.69Z" transform="translate(-126.67 -526.6)"/><path class="cls-1" d="M270.12,546.7c0-1.73.68-2.81,2.05-3.22l-2.81-.71v-2.91a9.63,9.63,0,0,1,2.9-1.71,10.46,10.46,0,0,1,3.84-.68,7.42,7.42,0,0,1,4.81,1.33,5.21,5.21,0,0,1,1.61,4.26v8.71h-2.84V543a3.17,3.17,0,0,0-.83-2.51,4.46,4.46,0,0,0-2.86-.71,7.83,7.83,0,0,0-2.4.36,4.89,4.89,0,0,0-1.78,1v.47l3,.76v1.87a2.43,2.43,0,0,0-1.43.83,2.89,2.89,0,0,0-.42,1.72v5h-2.8Z" transform="translate(-126.67 -526.6)"/><path class="cls-1" d="M290.58,542.93a5.54,5.54,0,0,0-.24-1.81,1.76,1.76,0,0,0-.89-1,4.25,4.25,0,0,0-1.91-.35,10.59,10.59,0,0,0-3.57.67v-2.18a10.68,10.68,0,0,1,1.93-.56,11,11,0,0,1,2.18-.22,5.72,5.72,0,0,1,4.07,1.22,5.22,5.22,0,0,1,1.26,3.88v9.2h-2.83Z" transform="translate(-126.67 -526.6)"/><path class="cls-1" d="M298.08,551.85a8.69,8.69,0,0,1-2.09-.52V549a10.74,10.74,0,0,0,2.1.6,11.94,11.94,0,0,0,2.16.21,7.47,7.47,0,0,0,2.7-.34,1.32,1.32,0,0,0,.81-1.35,1.5,1.5,0,0,0-.31-1,2.23,2.23,0,0,0-.86-.61,17.83,17.83,0,0,0-1.69-.6l-1-.34a10.1,10.1,0,0,1-3.19-1.6,3,3,0,0,1-1.05-2.46,3.45,3.45,0,0,1,1.43-3,7.07,7.07,0,0,1,4.21-1,15.18,15.18,0,0,1,2.31.18,13.52,13.52,0,0,1,2,.44v2.34a10.91,10.91,0,0,0-1.88-.49,12,12,0,0,0-2-.18,6.9,6.9,0,0,0-2.49.35,1.28,1.28,0,0,0-.84,1.29,1.29,1.29,0,0,0,.35.91,2.83,2.83,0,0,0,.95.61c.4.16,1,.38,1.84.66l.76.23a9.4,9.4,0,0,1,3.22,1.66,3.8,3.8,0,0,1-.52,5.59,7.72,7.72,0,0,1-4.21,1A19.39,19.39,0,0,1,298.08,551.85Z" transform="translate(-126.67 -526.6)"/><path class="cls-1" d="M308.73,540.36a2.71,2.71,0,0,1,.65-1.9,2.29,2.29,0,0,1,1.82-.73h2.67l.13,2.18h-1.35a1.2,1.2,0,0,0-.92.3,1.45,1.45,0,0,0-.27,1V548l3.43-6H316l3.43,6V537.73h2.71v14h-2.78l-3.93-6.94-3.95,6.94h-2.78Z" transform="translate(-126.67 -526.6)"/><path class="cls-1" d="M325.79,551a3.91,3.91,0,0,1-1.31-3.24,3.87,3.87,0,0,1,1.41-3.21,6.32,6.32,0,0,1,4.05-1.13h4.29v-.89a3.27,3.27,0,0,0-.34-1.63,1.86,1.86,0,0,0-1.11-.86,7.2,7.2,0,0,0-2.16-.26,15,15,0,0,0-4.58.67v-2.18a18.33,18.33,0,0,1,2.41-.56,15.85,15.85,0,0,1,2.64-.22,6.68,6.68,0,0,1,4.52,1.29,5.08,5.08,0,0,1,1.46,4v9h-2.84v-6.19h-4.11a4,4,0,0,0-2.22.5,1.86,1.86,0,0,0-.71,1.66,1.75,1.75,0,0,0,.65,1.57,3.86,3.86,0,0,0,2.18.46,6.71,6.71,0,0,0,1.79-.21v2.16a9.35,9.35,0,0,1-2.54.31A5.43,5.43,0,0,1,325.79,551Z" transform="translate(-126.67 -526.6)"/><path class="cls-1" d="M326.33,533.62H337v2H326.2Z" transform="translate(-126.67 -526.6)"/><path class="cls-1" d="M340.86,550.28A7.82,7.82,0,0,1,339.3,545a10.58,10.58,0,0,1,1.21-5.55,3.83,3.83,0,0,1,3.42-1.94,3.43,3.43,0,0,1,1.65.34,3.53,3.53,0,0,1,1.16,1,4,4,0,0,1,1.43-1,4.57,4.57,0,0,1,1.79-.38,3.13,3.13,0,0,1,2.5,1,4.11,4.11,0,0,1,.86,2.78v10.53h-2.84V541.66a2.77,2.77,0,0,0-.28-1.47,1.24,1.24,0,0,0-1.1-.43,1.66,1.66,0,0,0-1,.3,1.76,1.76,0,0,0-.64.89h-1.56a2.91,2.91,0,0,0-.67-.92,1.48,1.48,0,0,0-.94-.27,1.81,1.81,0,0,0-1.78,1.32A11.37,11.37,0,0,0,342,545a6.09,6.09,0,0,0,.87,3.69,3.13,3.13,0,0,0,2.64,1.12,5.79,5.79,0,0,0,1.8-.21v2.16a7,7,0,0,1-2.29.31A5.33,5.33,0,0,1,340.86,550.28Z" transform="translate(-126.67 -526.6)"/><path class="cls-1" d="M355.73,549.07v-6a4.44,4.44,0,0,1,.54-2.29,9.65,9.65,0,0,1,1.47-1.87,9.43,9.43,0,0,0,.82-.95,1.32,1.32,0,0,0,.24-.77,1.13,1.13,0,0,0-.4-1,2.44,2.44,0,0,0-1.31-.27,5.91,5.91,0,0,0-2.84.78v-2.08a6,6,0,0,1,1.78-.71,8.4,8.4,0,0,1,2-.25,4.15,4.15,0,0,1,2.74.78,2.72,2.72,0,0,1,.92,2.21,3,3,0,0,1-.37,1.53,8.28,8.28,0,0,1-1.13,1.46,12.35,12.35,0,0,0-1.25,1.7,3.54,3.54,0,0,0-.42,1.81v5.22a1.48,1.48,0,0,0,.22.94,1.31,1.31,0,0,0,.93.23h1.19v2.24h-2.42A2.4,2.4,0,0,1,355.73,549.07Z" transform="translate(-126.67 -526.6)"/><path class="cls-1" d="M363.17,537.73H366v4.42h4.06a2.87,2.87,0,0,0,2.09-.62,2.75,2.75,0,0,0,.61-2v-1.82h2.81v1.74q0,3-2.1,3.72a2.56,2.56,0,0,1,1.54,1.25,4.75,4.75,0,0,1,.43,2.16v5.17h-2.81v-4.84a2.87,2.87,0,0,0-.57-2.06,3,3,0,0,0-2.1-.56h-4v7.46h-2.83Z" transform="translate(-126.67 -526.6)"/><path class="cls-1" d="M369.59,533.21h-2v-2h4v2.36h5.62l-.11,2h-7.46Z" transform="translate(-126.67 -526.6)"/><path class="cls-1" d="M377.6,537.73h2.78l2.08,10,2.55-8v-2h2l2.83,10,2-10h2.76l-3.23,14h-2.6l-2.6-8.94-2.81,8.94h-2.57Z" transform="translate(-126.67 -526.6)"/><path class="cls-1" d="M382,533.62h6.45a3.27,3.27,0,0,1-.05-.57,1.89,1.89,0,0,1,.62-1.4,2.34,2.34,0,0,1,1.69-.6,2.3,2.3,0,0,1,1.77.65,2.21,2.21,0,0,1,.6,1.56,2.34,2.34,0,0,1-.65,1.68,2.43,2.43,0,0,1-1.82.66h-8.74Zm9.48.37a1,1,0,0,0,.27-.71,1,1,0,0,0-.28-.74,1,1,0,0,0-.73-.3,1,1,0,0,0-.71.29,1,1,0,0,0-.3.75,1,1,0,0,0,.28.71,1,1,0,0,0,.73.28A1,1,0,0,0,391.47,534Z" transform="translate(-126.67 -526.6)"/><path class="cls-1" d="M390.37,526.6h2.34v3.62h-2.34Z" transform="translate(-126.67 -526.6)"/><path class="cls-1" d="M399.57,551.69l-3.95-9.62h2.75l3.2,7.8a3.55,3.55,0,0,0,3.24-1.27,7.25,7.25,0,0,0,1-4.29,8.92,8.92,0,0,0-.32-2.68,2.2,2.2,0,0,0-1-1.36,4.25,4.25,0,0,0-2.05-.41h-1v-2.13h1.35a5.48,5.48,0,0,1,4.38,1.6,7.41,7.41,0,0,1,1.4,4.95q0,4-1.73,5.85a6,6,0,0,1-4.67,1.9A7.78,7.78,0,0,1,399.57,551.69Z" transform="translate(-126.67 -526.6)"/><path class="cls-1" d="M411.82,550.28a7.82,7.82,0,0,1-1.56-5.32,10.59,10.59,0,0,1,1.2-5.55,3.83,3.83,0,0,1,3.42-1.94,3.5,3.5,0,0,1,1.66.34,3.6,3.6,0,0,1,1.15,1,4.06,4.06,0,0,1,1.43-1,4.58,4.58,0,0,1,1.8-.38,3.11,3.11,0,0,1,2.49,1,4.11,4.11,0,0,1,.86,2.78v10.53h-2.83V541.66a2.75,2.75,0,0,0-.29-1.47,1.22,1.22,0,0,0-1.09-.43,1.67,1.67,0,0,0-1,.3,1.75,1.75,0,0,0-.63.89h-1.56a2.91,2.91,0,0,0-.68-.92,1.48,1.48,0,0,0-.94-.27,1.81,1.81,0,0,0-1.78,1.32A11.67,11.67,0,0,0,413,545a6.09,6.09,0,0,0,.87,3.69,3.13,3.13,0,0,0,2.64,1.12,5.77,5.77,0,0,0,1.79-.21v2.16A7,7,0,0,1,416,552,5.31,5.31,0,0,1,411.82,550.28Z" transform="translate(-126.67 -526.6)"/><path class="cls-1" d="M428.29,550.69a5.26,5.26,0,0,1-1.26-3.76v-9.2h2.83v9.07a3.16,3.16,0,0,0,.69,2.27,3,3,0,0,0,2.2.7,5.21,5.21,0,0,0,2.15-.47,5.33,5.33,0,0,0,1.75-1.22V537.73h2.8v14h-2.57l-.13-1.53a7.34,7.34,0,0,1-4.94,1.79A4.6,4.6,0,0,1,428.29,550.69Z" transform="translate(-126.67 -526.6)"/><path class="cls-1" d="M442.26,549.07V537.73h2.81v10.63a1.26,1.26,0,0,0,.27.89,1.18,1.18,0,0,0,.87.28h1.2v2.24H445A2.4,2.4,0,0,1,442.26,549.07Z" transform="translate(-126.67 -526.6)"/><path class="cls-1" d="M451.84,551.74a12.09,12.09,0,0,1-2.53-.75v-7.23h5.56l.13,2.16h-3v3.41a8.35,8.35,0,0,0,2.86.44,5.34,5.34,0,0,0,2.47-.48,2.82,2.82,0,0,0,1.32-1.56,8.31,8.31,0,0,0,.42-2.93,7.87,7.87,0,0,0-.47-3,2.87,2.87,0,0,0-1.52-1.54,7.29,7.29,0,0,0-2.95-.47,15.14,15.14,0,0,0-4.65.67v-2.18a14.85,14.85,0,0,1,2.51-.57,19.29,19.29,0,0,1,2.84-.21q3.61,0,5.29,1.83a7.92,7.92,0,0,1,1.68,5.5,7.7,7.7,0,0,1-1.68,5.42Q458.48,552,454.9,552A16,16,0,0,1,451.84,551.74Z" transform="translate(-126.67 -526.6)"/><path class="cls-1" d="M467,551.69,463,542.07h2.76l3.19,7.8a3.53,3.53,0,0,0,3.24-1.27,7.17,7.17,0,0,0,1-4.29,9.31,9.31,0,0,0-.31-2.68,2.27,2.27,0,0,0-1-1.36,4.29,4.29,0,0,0-2.06-.41h-1v-2.13h1.36a5.5,5.5,0,0,1,4.38,1.6,7.46,7.46,0,0,1,1.39,4.95q0,4-1.73,5.85a6,6,0,0,1-4.67,1.9A7.82,7.82,0,0,1,467,551.69Z" transform="translate(-126.67 -526.6)"/><path class="cls-1" d="M478.58,549.07v-9a4.63,4.63,0,0,1,2-4.14h-4.08v-2.23H484v2.13a3.67,3.67,0,0,0-2,1.65,6.34,6.34,0,0,0-.6,3v7.85a1.48,1.48,0,0,0,.22.94,1.31,1.31,0,0,0,.93.23h1.19v2.24h-2.42A2.4,2.4,0,0,1,478.58,549.07Z" transform="translate(-126.67 -526.6)"/><path class="cls-1" d="M486.49,550.28a9.57,9.57,0,0,1,.26-10.85,7,7,0,0,1,5.35-2,8.28,8.28,0,0,1,3.81.79,5.28,5.28,0,0,1,2.24,2.08,5.74,5.74,0,0,1,.71,2.85v8.58H496v-8.45a3.61,3.61,0,0,0-.92-2.63,4.21,4.21,0,0,0-3.06-.93,4,4,0,0,0-3.33,1.3,8,8,0,0,0-.19,7.59,3.13,3.13,0,0,0,2.64,1.12,5.77,5.77,0,0,0,1.79-.21v2.16a7,7,0,0,1-2.29.31A5.31,5.31,0,0,1,486.49,550.28Z" transform="translate(-126.67 -526.6)"/><path class="cls-1" d="M492.88,533.21h-2.05v-2h4v2.36h5.62l-.1,2h-7.47Z" transform="translate(-126.67 -526.6)"/><path class="cls-1" d="M502.66,550.28a9.57,9.57,0,0,1,.26-10.85,7,7,0,0,1,5.36-2,8.26,8.26,0,0,1,3.8.79,5.28,5.28,0,0,1,2.24,2.08,5.75,5.75,0,0,1,.72,2.85v8.58H512.2v-8.45a3.61,3.61,0,0,0-.92-2.63,4.21,4.21,0,0,0-3.06-.93,4,4,0,0,0-3.32,1.3,7.93,7.93,0,0,0-.2,7.59,3.13,3.13,0,0,0,2.64,1.12,5.68,5.68,0,0,0,1.79-.21v2.16a6.93,6.93,0,0,1-2.28.31A5.31,5.31,0,0,1,502.66,550.28Z" transform="translate(-126.67 -526.6)"/><path class="cls-1" d="M509.06,533.21H507v-2h4v2.36h5.61l-.1,2h-7.46Z" transform="translate(-126.67 -526.6)"/><path class="cls-1" d="M517.06,551.25V549a8.85,8.85,0,0,0,3.54.76,6.56,6.56,0,0,0,2.82-.5,2.87,2.87,0,0,0,1.48-1.58,7.67,7.67,0,0,0,.46-2.94,5.45,5.45,0,0,0-1.11-3.85,5,5,0,0,0-3.68-1.14,8.73,8.73,0,0,0-3.51.75v-2.26a10.54,10.54,0,0,1,4.14-.78,6.73,6.73,0,0,1,5.17,1.85,7.68,7.68,0,0,1,1.72,5.43,7.86,7.86,0,0,1-1.67,5.43c-1.11,1.24-2.82,1.85-5.14,1.85A10.52,10.52,0,0,1,517.06,551.25Z" transform="translate(-126.67 -526.6)"/><path class="cls-1" d="M531.31,551a3.62,3.62,0,0,1-1.74-3.32,3.52,3.52,0,0,1,.51-1.89,3.62,3.62,0,0,1,1.44-1.29,2.62,2.62,0,0,1-1.36-1.07,3.32,3.32,0,0,1-.51-1.86,3.84,3.84,0,0,1,1.19-3,4.69,4.69,0,0,1,3.2-1,6.78,6.78,0,0,1,2.29.34V540a6.61,6.61,0,0,0-1.77-.21c-1.45,0-2.18.59-2.18,1.77s.81,1.84,2.44,1.84h1.48l.13,2.11h-1.66c-1.65,0-2.47.72-2.47,2.16a1.75,1.75,0,0,0,.88,1.6,5.5,5.5,0,0,0,2.73.53,4.35,4.35,0,0,0,2.76-.74,2.74,2.74,0,0,0,.91-2.25v-9h2.81v8.71a5.27,5.27,0,0,1-1.59,4.21A7.08,7.08,0,0,1,536,552,8.93,8.93,0,0,1,531.31,551Z" transform="translate(-126.67 -526.6)"/><path class="cls-1" d="M544.42,551.25V549a8.77,8.77,0,0,0,3.53.76,6.56,6.56,0,0,0,2.82-.5,2.87,2.87,0,0,0,1.48-1.58,7.67,7.67,0,0,0,.46-2.94,5.5,5.5,0,0,0-1.1-3.85,5,5,0,0,0-3.68-1.14,8.66,8.66,0,0,0-3.51.75v-2.26a10.49,10.49,0,0,1,4.13-.78,6.71,6.71,0,0,1,5.17,1.85,7.68,7.68,0,0,1,1.72,5.43,7.91,7.91,0,0,1-1.66,5.43c-1.11,1.24-2.83,1.85-5.15,1.85A10.47,10.47,0,0,1,544.42,551.25Z" transform="translate(-126.67 -526.6)"/><path class="cls-1" d="M544,533.62h10.71v2H543.9Z" transform="translate(-126.67 -526.6)"/><path class="cls-1" d="M559.82,551.74a12,12,0,0,1-2.56-.75v-5.28h2.6v3.59a8.38,8.38,0,0,0,2.89.47,4.71,4.71,0,0,0,2.41-.48,1.84,1.84,0,0,0,.78-1.71,1.93,1.93,0,0,0-.46-1.39,2.86,2.86,0,0,0-1.21-.71c-.5-.16-1.38-.38-2.64-.68a17.52,17.52,0,0,1-2.46-.7,3.85,3.85,0,0,1-1.56-1.07,2.72,2.72,0,0,1-.61-1.87,3,3,0,0,1,1.56-2.75,8.7,8.7,0,0,1,4.47-.94,19.71,19.71,0,0,1,2.76.2,11.07,11.07,0,0,1,2.16.48v2.34a9.93,9.93,0,0,0-2.11-.54,15.65,15.65,0,0,0-2.42-.19,11.56,11.56,0,0,0-2.74.26c-.67.17-1,.53-1,1.06a1.08,1.08,0,0,0,.66,1,10.24,10.24,0,0,0,2.2.66l.73.17.83.22a16.06,16.06,0,0,1,2.52.89,3.53,3.53,0,0,1,1.48,1.27,4,4,0,0,1,.55,2.26,3.88,3.88,0,0,1-1.52,3.32,7,7,0,0,1-4.2,1.13A16.57,16.57,0,0,1,559.82,551.74Z" transform="translate(-126.67 -526.6)"/><path class="cls-1" d="M557.16,533.62h8.37v-2.16h2.34v4.14H557Z" transform="translate(-126.67 -526.6)"/><path class="cls-1" d="M573.56,551.69l-3.95-9.62h2.76l3.19,7.8a3.53,3.53,0,0,0,3.24-1.27,7.17,7.17,0,0,0,1-4.29,9.31,9.31,0,0,0-.31-2.68,2.27,2.27,0,0,0-1-1.36,4.29,4.29,0,0,0-2.06-.41h-1v-2.13h1.36a5.5,5.5,0,0,1,4.38,1.6,7.46,7.46,0,0,1,1.39,4.95q0,4-1.73,5.85a6,6,0,0,1-4.67,1.9A7.82,7.82,0,0,1,573.56,551.69Z" transform="translate(-126.67 -526.6)"/><path class="cls-1" d="M579.15,531.31H582v4.26h-2.84Z" transform="translate(-126.67 -526.6)"/><path class="cls-1" d="M590.07,542.93a5.86,5.86,0,0,0-.23-1.81,1.81,1.81,0,0,0-.9-1,4.22,4.22,0,0,0-1.91-.35,10,10,0,0,0-1.81.18,9.82,9.82,0,0,0-1.75.49v-2.18a10.56,10.56,0,0,1,1.92-.56,11.14,11.14,0,0,1,2.19-.22,5.7,5.7,0,0,1,4.06,1.22,5.18,5.18,0,0,1,1.27,3.88v9.2h-2.84Z" transform="translate(-126.67 -526.6)"/><path class="cls-1" d="M596.81,551a3.61,3.61,0,0,1-1.75-3.32,3.52,3.52,0,0,1,.51-1.89,3.62,3.62,0,0,1,1.44-1.29,2.66,2.66,0,0,1-1.36-1.07,3.32,3.32,0,0,1-.51-1.86,3.81,3.81,0,0,1,1.2-3,4.66,4.66,0,0,1,3.2-1,6.76,6.76,0,0,1,2.28.34V540a6.58,6.58,0,0,0-1.76-.21q-2.19,0-2.19,1.77c0,1.23.82,1.84,2.45,1.84h1.48l.13,2.11h-1.67c-1.64,0-2.47.72-2.47,2.16a1.76,1.76,0,0,0,.89,1.6,5.5,5.5,0,0,0,2.73.53,4.3,4.3,0,0,0,2.75-.74,2.74,2.74,0,0,0,.91-2.25v-9h2.81v8.71a5.3,5.3,0,0,1-1.58,4.21,7.1,7.1,0,0,1-4.76,1.38A8.91,8.91,0,0,1,596.81,551Z" transform="translate(-126.67 -526.6)"/><path class="cls-1" d="M620,541.19a2.05,2.05,0,0,0-.22-1.05.88.88,0,0,0-.84-.38c-.66,0-1.17.41-1.54,1.25h-1.32a3.63,3.63,0,0,0-.52-1,1,1,0,0,0-.78-.28c-1,0-1.51.83-1.51,2.49a2.35,2.35,0,0,0,.56,1.77,2.32,2.32,0,0,0,1.7.55,5.85,5.85,0,0,0,1.79-.21v2.18a7.27,7.27,0,0,1-2.31.32,4.76,4.76,0,0,1-3.44-1.19,4.48,4.48,0,0,1-1.24-3.42,5.65,5.65,0,0,1,1-3.39,3.29,3.29,0,0,1,2.81-1.39,3.36,3.36,0,0,1,1.51.3,3,3,0,0,1,1.09,1,3.6,3.6,0,0,1,2.91-1.3,2.89,2.89,0,0,1,2.41,1,4.68,4.68,0,0,1,.77,2.94v10.4H620Z" transform="translate(-126.67 -526.6)"/><path class="cls-1" d="M142.87,574.08a5.14,5.14,0,0,1,1.57-4,7.07,7.07,0,0,1,4.8-1.4,7,7,0,0,1,4.77,1.4,5.16,5.16,0,0,1,1.55,4V583h-2.83v-9.15c0-1.91-1.17-2.86-3.49-2.86a4.19,4.19,0,0,0-2.65.7,2.59,2.59,0,0,0-.88,2.16v2.89a4.14,4.14,0,0,1,2.73-.94h1.69l.1,2.26h-1.87a4,4,0,0,0-2.65.89V583h-2.84Z" transform="translate(-126.67 -526.6)"/><path class="cls-1" d="M152.7,562.51h2.83v4.26H152.7Z" transform="translate(-126.67 -526.6)"/><path class="cls-1" d="M160.51,582.94a12.09,12.09,0,0,1-2.53-.75V575h5.56l.13,2.16h-3v3.41a8.35,8.35,0,0,0,2.86.44,5.34,5.34,0,0,0,2.47-.48,2.82,2.82,0,0,0,1.32-1.56,8.31,8.31,0,0,0,.42-2.93,7.87,7.87,0,0,0-.47-3,2.87,2.87,0,0,0-1.52-1.54,7.32,7.32,0,0,0-2.95-.47,15.14,15.14,0,0,0-4.65.67v-2.18a14.85,14.85,0,0,1,2.51-.57,19.29,19.29,0,0,1,2.84-.21q3.61,0,5.29,1.83a7.92,7.92,0,0,1,1.68,5.5,7.7,7.7,0,0,1-1.68,5.42q-1.68,1.82-5.26,1.81A16,16,0,0,1,160.51,582.94Z" transform="translate(-126.67 -526.6)"/><path class="cls-1" d="M173.86,582.17a3.64,3.64,0,0,1-1.74-3.33,3.39,3.39,0,0,1,1.95-3.17,2.69,2.69,0,0,1-1.36-1.08,3.3,3.3,0,0,1-.51-1.86,3.81,3.81,0,0,1,1.2-3,4.65,4.65,0,0,1,3.19-1.05,6.78,6.78,0,0,1,2.29.34v2.16a6.61,6.61,0,0,0-1.77-.21c-1.45,0-2.18.59-2.18,1.77s.81,1.84,2.44,1.84h1.49l.13,2.11h-1.67c-1.65,0-2.47.72-2.47,2.16a1.76,1.76,0,0,0,.89,1.6,5.48,5.48,0,0,0,2.73.53,4.32,4.32,0,0,0,2.75-.74,2.74,2.74,0,0,0,.91-2.25v-9.05h2.81v8.71a5.27,5.27,0,0,1-1.59,4.21,7.05,7.05,0,0,1-4.75,1.38A9,9,0,0,1,173.86,582.17Z" transform="translate(-126.67 -526.6)"/><path class="cls-1" d="M187.75,580.27V568.93h2.81v10.63a1.26,1.26,0,0,0,.27.89,1.15,1.15,0,0,0,.87.28h1.2V583h-2.42A2.4,2.4,0,0,1,187.75,580.27Z" transform="translate(-126.67 -526.6)"/><path class="cls-1" d="M196.81,581.79a5.33,5.33,0,0,1-1.68-4.28v-8.58H198v8.68a3.27,3.27,0,0,0,.89,2.54,3.87,3.87,0,0,0,2.69.82,3.92,3.92,0,0,0,2.71-.82,3.28,3.28,0,0,0,.91-2.54V564.77H208v12.74a5.36,5.36,0,0,1-1.67,4.28,8.55,8.55,0,0,1-9.5,0Z" transform="translate(-126.67 -526.6)"/><path class="cls-1" d="M212,581.89a5.26,5.26,0,0,1-1.26-3.76v-9.2h2.84V578a3.21,3.21,0,0,0,.68,2.27,3,3,0,0,0,2.2.7,5.22,5.22,0,0,0,2.16-.47,5.39,5.39,0,0,0,1.74-1.22V568.93h2.81v14h-2.57l-.13-1.53a7.36,7.36,0,0,1-4.94,1.79A4.63,4.63,0,0,1,212,581.89Z" transform="translate(-126.67 -526.6)"/><path class="cls-1" d="M225.92,574.08a5.1,5.1,0,0,1,1.57-4,7.07,7.07,0,0,1,4.8-1.4,7,7,0,0,1,4.77,1.4,5.16,5.16,0,0,1,1.54,4V583h-2.83v-9.15q0-2.87-3.48-2.86a4.22,4.22,0,0,0-2.66.7,2.59,2.59,0,0,0-.88,2.16v2.89a4.14,4.14,0,0,1,2.73-.94h1.69l.1,2.26H231.4a4,4,0,0,0-2.65.89V583h-2.83Z" transform="translate(-126.67 -526.6)"/><path class="cls-1" d="M235.74,562.51h2.84v4.26h-2.84Z" transform="translate(-126.67 -526.6)"/><path class="cls-1" d="M243.56,582.94a12.19,12.19,0,0,1-2.54-.75V575h5.57l.13,2.16h-3v3.41a8.39,8.39,0,0,0,2.86.44,5.31,5.31,0,0,0,2.47-.48,2.84,2.84,0,0,0,1.33-1.56,8.33,8.33,0,0,0,.41-2.93,7.9,7.9,0,0,0-.46-3,2.88,2.88,0,0,0-1.53-1.54,7.29,7.29,0,0,0-3-.47,15.19,15.19,0,0,0-4.65.67v-2.18a15.08,15.08,0,0,1,2.51-.57,19.32,19.32,0,0,1,2.85-.21q3.61,0,5.29,1.83c1.12,1.23,1.67,3.06,1.67,5.5s-.55,4.22-1.67,5.42-2.88,1.81-5.27,1.81A15.94,15.94,0,0,1,243.56,582.94Z" transform="translate(-126.67 -526.6)"/><path class="cls-1" d="M256.91,582.17a3.64,3.64,0,0,1-1.74-3.33,3.35,3.35,0,0,1,2-3.17,2.71,2.71,0,0,1-1.37-1.08,3.3,3.3,0,0,1-.51-1.86,3.81,3.81,0,0,1,1.2-3,4.67,4.67,0,0,1,3.2-1.05,6.86,6.86,0,0,1,2.29.34v2.16a6.71,6.71,0,0,0-1.77-.21q-2.19,0-2.19,1.77c0,1.23.82,1.84,2.45,1.84h1.48l.13,2.11h-1.66c-1.65,0-2.47.72-2.47,2.16a1.75,1.75,0,0,0,.88,1.6,5.5,5.5,0,0,0,2.73.53,4.35,4.35,0,0,0,2.76-.74,2.77,2.77,0,0,0,.91-2.25v-9.05H268v8.71a5.27,5.27,0,0,1-1.58,4.21,7.1,7.1,0,0,1-4.76,1.38A9,9,0,0,1,256.91,582.17Z" transform="translate(-126.67 -526.6)"/><path class="cls-1" d="M271.16,580.27v-9a4.62,4.62,0,0,1,2-4.14h-4.08v-2.23h7.51v2.13a3.67,3.67,0,0,0-2,1.65,6.34,6.34,0,0,0-.6,3v7.85a1.48,1.48,0,0,0,.22.94,1.31,1.31,0,0,0,.93.23h1.19V583h-2.41A2.4,2.4,0,0,1,271.16,580.27Z" transform="translate(-126.67 -526.6)"/><path class="cls-1" d="M279.7,581.79a5.33,5.33,0,0,1-1.68-4.28v-8.58h2.83v8.68a3.27,3.27,0,0,0,.9,2.54,3.87,3.87,0,0,0,2.69.82,3.92,3.92,0,0,0,2.71-.82,3.28,3.28,0,0,0,.91-2.54V564.77h2.8v12.74a5.35,5.35,0,0,1-1.66,4.28,8.55,8.55,0,0,1-9.5,0Z" transform="translate(-126.67 -526.6)"/><path class="cls-1" d="M294.66,581.48a7.82,7.82,0,0,1-1.56-5.32,10.49,10.49,0,0,1,1.21-5.55,3.82,3.82,0,0,1,3.42-1.94,3.48,3.48,0,0,1,1.65.34,3.63,3.63,0,0,1,1.16,1,4,4,0,0,1,1.43-1,4.5,4.5,0,0,1,1.79-.38,3.15,3.15,0,0,1,2.5,1,4.13,4.13,0,0,1,.85,2.78V583h-2.83V572.86a2.75,2.75,0,0,0-.29-1.47,1.2,1.2,0,0,0-1.09-.43,1.64,1.64,0,0,0-1,.3,1.76,1.76,0,0,0-.64.89h-1.56a2.91,2.91,0,0,0-.68-.92,1.43,1.43,0,0,0-.93-.27,1.8,1.8,0,0,0-1.78,1.33,11.27,11.27,0,0,0-.51,3.87,6.06,6.06,0,0,0,.87,3.69,3.13,3.13,0,0,0,2.64,1.12,5.68,5.68,0,0,0,1.79-.21v2.16a6.93,6.93,0,0,1-2.28.31A5.31,5.31,0,0,1,294.66,581.48Z" transform="translate(-126.67 -526.6)"/><path class="cls-1" d="M315.17,574.13a5.57,5.57,0,0,0-.23-1.81,1.81,1.81,0,0,0-.9-1,4.22,4.22,0,0,0-1.91-.35,9.88,9.88,0,0,0-1.8.18,9.71,9.71,0,0,0-1.76.49v-2.18a10.8,10.8,0,0,1,1.92-.56,12,12,0,0,1,2.19-.22,5.72,5.72,0,0,1,4.07,1.22,5.22,5.22,0,0,1,1.26,3.88V583h-2.84Z" transform="translate(-126.67 -526.6)"/><path class="cls-1" d="M325.69,582.78a7.52,7.52,0,0,1-2.2-1.34l-.15,1.53h-2.58v-14h2.84v10.35a5.62,5.62,0,0,0,1.74,1.22,5.08,5.08,0,0,0,2.13.47,2.54,2.54,0,0,0,2.91-3v-9.07h2.81v9.2a5.26,5.26,0,0,1-1.26,3.76,4.6,4.6,0,0,1-3.52,1.34A7.6,7.6,0,0,1,325.69,582.78Z" transform="translate(-126.67 -526.6)"/><path class="cls-1" d="M336.18,577.9c0-1.73.69-2.81,2.06-3.22l-2.81-.71v-2.91a9.51,9.51,0,0,1,2.9-1.71,10.44,10.44,0,0,1,3.83-.68A7.4,7.4,0,0,1,347,570a5.18,5.18,0,0,1,1.61,4.26V583h-2.83v-8.79a3.21,3.21,0,0,0-.83-2.51,4.48,4.48,0,0,0-2.86-.71,7.94,7.94,0,0,0-2.41.36,4.83,4.83,0,0,0-1.78,1v.46l3,.76v1.87a2.4,2.4,0,0,0-1.43.83,2.89,2.89,0,0,0-.42,1.72v5h-2.81Z" transform="translate(-126.67 -526.6)"/><path class="cls-1" d="M345,566.62a2.81,2.81,0,0,1,0-4,2.9,2.9,0,0,1,2.09-.81,2.86,2.86,0,0,1,2.06.81,2.81,2.81,0,0,1,0,4,2.89,2.89,0,0,1-2.06.8A2.93,2.93,0,0,1,345,566.62Zm2.93-1.17a1.16,1.16,0,0,0,.35-.84,1.2,1.2,0,0,0-.35-.88,1.12,1.12,0,0,0-.84-.36,1.23,1.23,0,0,0-.89.36,1.21,1.21,0,0,0-.36.88,1.15,1.15,0,0,0,.38.84,1.22,1.22,0,0,0,.87.36A1.12,1.12,0,0,0,348,565.45Z" transform="translate(-126.67 -526.6)"/><path class="cls-1" d="M356.64,574.13a5.57,5.57,0,0,0-.23-1.81,1.78,1.78,0,0,0-.9-1,4.22,4.22,0,0,0-1.91-.35,10.47,10.47,0,0,0-3.56.67v-2.18a10.8,10.8,0,0,1,1.92-.56,12,12,0,0,1,2.19-.22,5.72,5.72,0,0,1,4.07,1.22,5.22,5.22,0,0,1,1.26,3.88V583h-2.84Z" transform="translate(-126.67 -526.6)"/><path class="cls-1" d="M363.1,582.18a3.91,3.91,0,0,1-1.31-3.24,3.87,3.87,0,0,1,1.41-3.21,6.32,6.32,0,0,1,4.05-1.13h4.29v-.89a3.27,3.27,0,0,0-.34-1.63,1.86,1.86,0,0,0-1.11-.86,7.2,7.2,0,0,0-2.16-.26,15,15,0,0,0-4.58.67v-2.18a18.33,18.33,0,0,1,2.41-.56,17,17,0,0,1,2.64-.22,6.68,6.68,0,0,1,4.52,1.29,5.08,5.08,0,0,1,1.46,4v9h-2.84v-6.19h-4.11a4,4,0,0,0-2.22.5,1.86,1.86,0,0,0-.71,1.66,1.75,1.75,0,0,0,.65,1.57,3.86,3.86,0,0,0,2.18.46,6.71,6.71,0,0,0,1.79-.21v2.16a9.35,9.35,0,0,1-2.54.31A5.43,5.43,0,0,1,363.1,582.18Z" transform="translate(-126.67 -526.6)"/><path class="cls-1" d="M368.19,563h2.34v1.82h6.73l-.13,2h-8.94Z" transform="translate(-126.67 -526.6)"/><path class="cls-1" d="M380,582.89l-4-9.62h2.76l3.2,7.8a3.53,3.53,0,0,0,3.23-1.27,7.17,7.17,0,0,0,1-4.29,9,9,0,0,0-.31-2.68,2.27,2.27,0,0,0-1-1.36,4.29,4.29,0,0,0-2.06-.41h-1v-2.13h1.35a5.5,5.5,0,0,1,4.38,1.6,7.41,7.41,0,0,1,1.39,5q0,4-1.73,5.85a6,6,0,0,1-4.67,1.9A7.82,7.82,0,0,1,380,582.89Z" transform="translate(-126.67 -526.6)"/><path class="cls-1" d="M390.91,580.27v-6a4.44,4.44,0,0,1,.54-2.29,10,10,0,0,1,1.46-1.87,8.27,8.27,0,0,0,.82-1,1.27,1.27,0,0,0,.25-.77,1.13,1.13,0,0,0-.4-1,2.46,2.46,0,0,0-1.32-.27,5.88,5.88,0,0,0-2.83.78v-2.08a6,6,0,0,1,1.78-.71,8.4,8.4,0,0,1,2-.25,4.16,4.16,0,0,1,2.74.78,2.75,2.75,0,0,1,.92,2.21,2.9,2.9,0,0,1-.38,1.53,7.82,7.82,0,0,1-1.13,1.46,12.16,12.16,0,0,0-1.24,1.7,3.54,3.54,0,0,0-.42,1.81v5.22a1.42,1.42,0,0,0,.22.94,1.29,1.29,0,0,0,.92.23h1.2V583h-2.42A2.4,2.4,0,0,1,390.91,580.27Z" transform="translate(-126.67 -526.6)"/><path class="cls-1" d="M398.35,568.93h2.83v4.42h4.06a2.88,2.88,0,0,0,2.09-.62,2.75,2.75,0,0,0,.61-2v-1.82h2.81v1.74c0,2-.7,3.22-2.11,3.72a2.56,2.56,0,0,1,1.55,1.25,4.75,4.75,0,0,1,.43,2.16V583h-2.81v-4.84a2.87,2.87,0,0,0-.57-2.06,3,3,0,0,0-2.11-.56h-3.95V583h-2.83Z" transform="translate(-126.67 -526.6)"/><path class="cls-1" d="M404.77,564.41h-2v-1.95h4v2.36h5.62l-.11,2h-7.46Z" transform="translate(-126.67 -526.6)"/><path class="cls-1" d="M412.78,568.93h2.78l2.08,10,2.55-8v-2h2l2.83,10,2-10h2.75l-3.22,14H424l-2.6-8.94L418.6,583H416Z" transform="translate(-126.67 -526.6)"/><path class="cls-1" d="M434,582.94a12.09,12.09,0,0,1-2.53-.75V575h5.56l.13,2.16h-3v3.41a8.39,8.39,0,0,0,2.86.44,5.34,5.34,0,0,0,2.47-.48,2.82,2.82,0,0,0,1.32-1.56,8.31,8.31,0,0,0,.42-2.93,7.87,7.87,0,0,0-.47-3,2.87,2.87,0,0,0-1.52-1.54,7.29,7.29,0,0,0-2.95-.47,15.14,15.14,0,0,0-4.65.67v-2.18a15,15,0,0,1,2.5-.57,19.52,19.52,0,0,1,2.85-.21q3.62,0,5.29,1.83A7.92,7.92,0,0,1,444,576a7.7,7.7,0,0,1-1.68,5.42q-1.68,1.82-5.26,1.81A16,16,0,0,1,434,582.94Z" transform="translate(-126.67 -526.6)"/><path class="cls-1" d="M451.17,582.78a7.52,7.52,0,0,1-2.2-1.34l-.16,1.53h-2.57v-14h2.83v10.35a5.78,5.78,0,0,0,1.75,1.22A5,5,0,0,0,453,581a3,3,0,0,0,2.19-.7,3.08,3.08,0,0,0,.72-2.27v-9.07h2.81v9.2a5.26,5.26,0,0,1-1.26,3.76,4.63,4.63,0,0,1-3.53,1.34A7.59,7.59,0,0,1,451.17,582.78Z" transform="translate(-126.67 -526.6)"/><path class="cls-1" d="M447.93,564.82h8.37v-2.15h2.34v4.13H447.8Z" transform="translate(-126.67 -526.6)"/><path class="cls-1" d="M461.66,577.9c0-1.73.68-2.81,2-3.22L460.9,574v-2.91a9.63,9.63,0,0,1,2.9-1.71,10.5,10.5,0,0,1,3.84-.68,7.42,7.42,0,0,1,4.81,1.33,5.21,5.21,0,0,1,1.61,4.26V583h-2.83v-8.79a3.17,3.17,0,0,0-.84-2.51,4.44,4.44,0,0,0-2.86-.71,7.83,7.83,0,0,0-2.4.36,4.83,4.83,0,0,0-1.78,1v.46l3,.76v1.87a2.46,2.46,0,0,0-1.43.83,2.89,2.89,0,0,0-.41,1.72v5h-2.81Z" transform="translate(-126.67 -526.6)"/><path class="cls-1" d="M463.32,564.82H474v2H463.19Z" transform="translate(-126.67 -526.6)"/><path class="cls-1" d="M478.08,581.89a5.26,5.26,0,0,1-1.26-3.76v-9.2h2.83V578a3.16,3.16,0,0,0,.69,2.27,3,3,0,0,0,2.2.7,5.21,5.21,0,0,0,2.15-.47,5.33,5.33,0,0,0,1.75-1.22V568.93h2.8v14h-2.57l-.13-1.53a7.34,7.34,0,0,1-4.94,1.79A4.6,4.6,0,0,1,478.08,581.89Z" transform="translate(-126.67 -526.6)"/><path class="cls-1" d="M492.42,580.27v-9a4.62,4.62,0,0,1,2-4.14h-4.08v-2.23h7.51v2.13a3.67,3.67,0,0,0-2,1.65,6.34,6.34,0,0,0-.6,3v7.85a1.41,1.41,0,0,0,.23.94,1.26,1.26,0,0,0,.92.23h1.19V583h-2.41A2.4,2.4,0,0,1,492.42,580.27Z" transform="translate(-126.67 -526.6)"/><path class="cls-1" d="M504.21,582.78a7.52,7.52,0,0,1-2.2-1.34l-.16,1.53h-2.57v-14h2.83v10.35a5.78,5.78,0,0,0,1.75,1.22A5,5,0,0,0,506,581a3,3,0,0,0,2.19-.7,3.08,3.08,0,0,0,.72-2.27v-9.07h2.81v9.2a5.26,5.26,0,0,1-1.26,3.76,4.63,4.63,0,0,1-3.53,1.34A7.59,7.59,0,0,1,504.21,582.78Z" transform="translate(-126.67 -526.6)"/><path class="cls-1" d="M508.85,562.51h2.83v4.26h-2.83Z" transform="translate(-126.67 -526.6)"/><path class="cls-1" d="M516.66,582.94a12.09,12.09,0,0,1-2.53-.75V575h5.56l.13,2.16h-3v3.41a8.35,8.35,0,0,0,2.86.44,5.34,5.34,0,0,0,2.47-.48,2.86,2.86,0,0,0,1.32-1.56,8.31,8.31,0,0,0,.42-2.93,7.87,7.87,0,0,0-.47-3,2.87,2.87,0,0,0-1.52-1.54,7.32,7.32,0,0,0-3-.47,15.25,15.25,0,0,0-4.66.67v-2.18a15.32,15.32,0,0,1,2.51-.57,19.52,19.52,0,0,1,2.85-.21q3.62,0,5.29,1.83a7.92,7.92,0,0,1,1.68,5.5,7.7,7.7,0,0,1-1.68,5.42q-1.68,1.82-5.26,1.81A16,16,0,0,1,516.66,582.94Z" transform="translate(-126.67 -526.6)"/><path class="cls-1" d="M529.91,581.48a9.57,9.57,0,0,1,.26-10.85,7,7,0,0,1,5.35-2,8.28,8.28,0,0,1,3.81.79,5.28,5.28,0,0,1,2.24,2.08,5.85,5.85,0,0,1,.71,2.85V583h-2.83v-8.45a3.61,3.61,0,0,0-.92-2.63,4.21,4.21,0,0,0-3.06-.93,4,4,0,0,0-3.33,1.3,8,8,0,0,0-.19,7.59,3.13,3.13,0,0,0,2.64,1.12,5.77,5.77,0,0,0,1.79-.21v2.16a7,7,0,0,1-2.29.31A5.31,5.31,0,0,1,529.91,581.48Z" transform="translate(-126.67 -526.6)"/><path class="cls-1" d="M547.24,582.94a12.19,12.19,0,0,1-2.54-.75V575h5.57l.13,2.16h-3v3.41a8.39,8.39,0,0,0,2.86.44,5.31,5.31,0,0,0,2.47-.48,2.84,2.84,0,0,0,1.33-1.56,8.33,8.33,0,0,0,.41-2.93,7.9,7.9,0,0,0-.46-3,2.88,2.88,0,0,0-1.53-1.54,7.29,7.29,0,0,0-3-.47,15.19,15.19,0,0,0-4.65.67v-2.18a15.08,15.08,0,0,1,2.51-.57,19.32,19.32,0,0,1,2.85-.21c2.4,0,4.17.61,5.29,1.83a8,8,0,0,1,1.67,5.5,7.75,7.75,0,0,1-1.67,5.42q-1.68,1.82-5.27,1.81A15.94,15.94,0,0,1,547.24,582.94Z" transform="translate(-126.67 -526.6)"/><path class="cls-1" d="M560.59,582.17a3.64,3.64,0,0,1-1.74-3.33,3.35,3.35,0,0,1,1.95-3.17,2.71,2.71,0,0,1-1.37-1.08,3.3,3.3,0,0,1-.51-1.86,3.81,3.81,0,0,1,1.2-3,4.67,4.67,0,0,1,3.2-1.05,6.86,6.86,0,0,1,2.29.34v2.16a6.71,6.71,0,0,0-1.77-.21q-2.19,0-2.19,1.77c0,1.23.82,1.84,2.45,1.84h1.48l.13,2.11h-1.66c-1.65,0-2.47.72-2.47,2.16a1.75,1.75,0,0,0,.88,1.6,5.5,5.5,0,0,0,2.73.53,4.35,4.35,0,0,0,2.76-.74,2.77,2.77,0,0,0,.91-2.25v-9.05h2.8v8.71a5.3,5.3,0,0,1-1.58,4.21,7.1,7.1,0,0,1-4.76,1.38A9,9,0,0,1,560.59,582.17Z" transform="translate(-126.67 -526.6)"/><path class="cls-1" d="M579.72,574.13a5.57,5.57,0,0,0-.23-1.81,1.78,1.78,0,0,0-.9-1,4.22,4.22,0,0,0-1.91-.35,10,10,0,0,0-1.8.18,9.71,9.71,0,0,0-1.76.49v-2.18a10.8,10.8,0,0,1,1.92-.56,12,12,0,0,1,2.19-.22,5.72,5.72,0,0,1,4.07,1.22,5.22,5.22,0,0,1,1.26,3.88V583h-2.84Z" transform="translate(-126.67 -526.6)"/><path class="cls-1" d="M585.55,577.9c0-1.73.68-2.81,2.05-3.22l-2.81-.71v-2.91a9.63,9.63,0,0,1,2.9-1.71,10.5,10.5,0,0,1,3.84-.68,7.42,7.42,0,0,1,4.81,1.33,5.21,5.21,0,0,1,1.61,4.26V583h-2.83v-8.79a3.17,3.17,0,0,0-.84-2.51,4.44,4.44,0,0,0-2.86-.71,7.83,7.83,0,0,0-2.4.36,4.75,4.75,0,0,0-1.78,1v.46l3,.76v1.87a2.46,2.46,0,0,0-1.43.83,2.89,2.89,0,0,0-.41,1.72v5h-2.81Z" transform="translate(-126.67 -526.6)"/><path class="cls-1" d="M601.56,566h2.29L602.14,571h-1.95Zm3.8,0h2.29L605.93,571H604Z" transform="translate(-126.67 -526.6)"/><path class="cls-1" d="M173.17,611.84a18.72,18.72,0,0,1,0-11.09,9.48,9.48,0,0,1,2.67-4.21H179q-3.85,3.33-3.85,9.75T179,616h-3.2A9.18,9.18,0,0,1,173.17,611.84Z" transform="translate(-126.67 -526.6)"/><path class="cls-1" d="M180,600.13h2.78l2.08,10,2.55-8v-2h2l2.84,10,2-10h2.75l-3.22,14h-2.6l-2.6-8.94-2.81,8.94h-2.57Z" transform="translate(-126.67 -526.6)"/><path class="cls-1" d="M201,614.25a8.91,8.91,0,0,1-2.1-.52v-2.37a10.84,10.84,0,0,0,2.11.6,11.94,11.94,0,0,0,2.16.21,7.55,7.55,0,0,0,2.7-.34,1.31,1.31,0,0,0,.81-1.35,1.5,1.5,0,0,0-.32-1,2.12,2.12,0,0,0-.85-.61c-.37-.16-.93-.36-1.69-.6l-1-.34a10.15,10.15,0,0,1-3.18-1.6,3,3,0,0,1-1.06-2.45,3.48,3.48,0,0,1,1.43-3,7.1,7.1,0,0,1,4.22-1,15.18,15.18,0,0,1,2.31.18,12.24,12.24,0,0,1,2,.45v2.33a11.29,11.29,0,0,0-1.89-.49,11.77,11.77,0,0,0-2-.18,6.84,6.84,0,0,0-2.48.35,1.29,1.29,0,0,0-.85,1.29,1.26,1.26,0,0,0,.36.91,2.89,2.89,0,0,0,.94.61c.4.16,1,.38,1.85.66l.75.23a9.46,9.46,0,0,1,3.23,1.66,3.8,3.8,0,0,1-.52,5.59,7.74,7.74,0,0,1-4.21,1A19.28,19.28,0,0,1,201,614.25Z" transform="translate(-126.67 -526.6)"/><path class="cls-1" d="M211.12,602.18h2.42v1.28h3.82l-.1,2.1h-6.14Zm0,7.08h2.42v1.3h3.82l-.1,2.08h-6.14Z" transform="translate(-126.67 -526.6)"/><path class="cls-1" d="M221.43,614.25a8.82,8.82,0,0,1-2.09-.52v-2.37a10.74,10.74,0,0,0,2.1.6,12.11,12.11,0,0,0,2.16.21,7.57,7.57,0,0,0,2.71-.34,1.31,1.31,0,0,0,.8-1.35,1.5,1.5,0,0,0-.31-1,2.16,2.16,0,0,0-.86-.61,17.83,17.83,0,0,0-1.69-.6l-1-.34a10.22,10.22,0,0,1-3.19-1.6,3,3,0,0,1-1.05-2.45,3.48,3.48,0,0,1,1.43-3,7.07,7.07,0,0,1,4.21-1,15.3,15.3,0,0,1,2.32.18,12.1,12.1,0,0,1,2,.45v2.33a10.91,10.91,0,0,0-1.88-.49,12,12,0,0,0-2-.18,6.84,6.84,0,0,0-2.48.35,1.27,1.27,0,0,0-.85,1.29,1.29,1.29,0,0,0,.35.91,2.94,2.94,0,0,0,.95.61c.4.16,1,.38,1.85.66l.75.23a9.3,9.3,0,0,1,3.22,1.66,3.8,3.8,0,0,1-.52,5.59,7.72,7.72,0,0,1-4.21,1A19.49,19.49,0,0,1,221.43,614.25Z" transform="translate(-126.67 -526.6)"/><path class="cls-1" d="M237.38,605.33a5.86,5.86,0,0,0-.23-1.81,1.81,1.81,0,0,0-.9-1,4.22,4.22,0,0,0-1.91-.35,10.07,10.07,0,0,0-1.81.18,9.82,9.82,0,0,0-1.75.49v-2.18a10.8,10.8,0,0,1,1.92-.56,12,12,0,0,1,2.19-.22,5.74,5.74,0,0,1,4.07,1.22,5.22,5.22,0,0,1,1.26,3.88v9.2h-2.84Z" transform="translate(-126.67 -526.6)"/><path class="cls-1" d="M244.27,613.07a5,5,0,0,1-1.53-3.89V607.8a3.43,3.43,0,0,1,.36-1.55,12.07,12.07,0,0,1,1.07-1.65,9.87,9.87,0,0,0,.67-1,1.37,1.37,0,0,0,.21-.69.64.64,0,0,0-.18-.53,1.05,1.05,0,0,0-.65-.15h-1.79l.23-2.13h3.28c1.31,0,2,.63,2,1.9a3.27,3.27,0,0,1-.3,1.43,17.41,17.41,0,0,1-.89,1.56,9.51,9.51,0,0,0-.87,1.45,3.11,3.11,0,0,0-.3,1.36v1.58c0,1.84,1.06,2.76,3.19,2.76s3.23-.95,3.23-2.84v-1.71a2.75,2.75,0,0,0-.4-1.7,1.82,1.82,0,0,0-1.45-.49h-.73l.13-2H250a1.89,1.89,0,0,0,1.5-.51,2.54,2.54,0,0,0,.43-1.67v-1.33h2.83v1.27a4.42,4.42,0,0,1-.4,2.08,2.62,2.62,0,0,1-1.47,1.17,2.81,2.81,0,0,1,1.5,1.24,4.76,4.76,0,0,1,.37,2.07v1.45a4.87,4.87,0,0,1-1.61,3.89,7.92,7.92,0,0,1-8.92,0Z" transform="translate(-126.67 -526.6)"/><path class="cls-1" d="M258.6,612.68a9.57,9.57,0,0,1,.26-10.85,7,7,0,0,1,5.35-2,8.28,8.28,0,0,1,3.81.79,5.28,5.28,0,0,1,2.24,2.08,5.74,5.74,0,0,1,.71,2.85v8.58h-2.83v-8.45a3.61,3.61,0,0,0-.92-2.63,4.21,4.21,0,0,0-3.06-.93,4,4,0,0,0-3.33,1.3,8,8,0,0,0-.19,7.59,3.13,3.13,0,0,0,2.64,1.12,5.72,5.72,0,0,0,1.79-.21v2.16a7,7,0,0,1-2.29.31A5.31,5.31,0,0,1,258.6,612.68Z" transform="translate(-126.67 -526.6)"/><path class="cls-1" d="M267.42,597.82a2.84,2.84,0,0,1,0-4,2.94,2.94,0,0,1,2.1-.81,2.86,2.86,0,0,1,2.06.81,2.81,2.81,0,0,1,0,4,2.89,2.89,0,0,1-2.06.8A3,3,0,0,1,267.42,597.82Zm2.94-1.17a1.16,1.16,0,0,0,.35-.84,1.2,1.2,0,0,0-.35-.88,1.12,1.12,0,0,0-.84-.36,1.23,1.23,0,0,0-.89.36,1.21,1.21,0,0,0-.36.88,1.15,1.15,0,0,0,.38.84,1.22,1.22,0,0,0,.87.36A1.12,1.12,0,0,0,270.36,596.65Z" transform="translate(-126.67 -526.6)"/><path class="cls-1" d="M279,605.33a5.57,5.57,0,0,0-.23-1.81,1.81,1.81,0,0,0-.9-1,4.22,4.22,0,0,0-1.91-.35,10.59,10.59,0,0,0-3.56.67v-2.18a10.8,10.8,0,0,1,1.92-.56,12,12,0,0,1,2.19-.22,5.72,5.72,0,0,1,4.07,1.22,5.22,5.22,0,0,1,1.26,3.88v9.2H279Z" transform="translate(-126.67 -526.6)"/><path class="cls-1" d="M286.54,614.25a8.91,8.91,0,0,1-2.1-.52v-2.37a10.84,10.84,0,0,0,2.11.6,11.94,11.94,0,0,0,2.16.21,7.55,7.55,0,0,0,2.7-.34,1.31,1.31,0,0,0,.81-1.35,1.5,1.5,0,0,0-.32-1,2.12,2.12,0,0,0-.85-.61c-.37-.16-.93-.36-1.69-.6l-1-.34a10.15,10.15,0,0,1-3.18-1.6,3,3,0,0,1-1.06-2.45,3.48,3.48,0,0,1,1.43-3,7.1,7.1,0,0,1,4.22-1,15.18,15.18,0,0,1,2.31.18,12.24,12.24,0,0,1,2,.45v2.33a11.29,11.29,0,0,0-1.89-.49,11.77,11.77,0,0,0-2-.18,6.84,6.84,0,0,0-2.48.35,1.29,1.29,0,0,0-.85,1.29,1.26,1.26,0,0,0,.36.91,2.89,2.89,0,0,0,.94.61c.4.16,1,.38,1.85.66l.75.23a9.46,9.46,0,0,1,3.23,1.66,3.8,3.8,0,0,1-.52,5.59,7.74,7.74,0,0,1-4.21,1A19.28,19.28,0,0,1,286.54,614.25Z" transform="translate(-126.67 -526.6)"/><path class="cls-1" d="M288.24,594.2h2.34V596h6.73l-.13,2h-8.94Z" transform="translate(-126.67 -526.6)"/><path class="cls-1" d="M298.05,613.39a4.54,4.54,0,0,1,.08-6.46,6.37,6.37,0,0,1,4.07-1.13h4.29v-.88a2.55,2.55,0,0,0-.79-2.15,4.85,4.85,0,0,0-2.85-.61,15,15,0,0,0-4.58.67v-2.18a18.5,18.5,0,0,1,2.42-.56,17.33,17.33,0,0,1,2.65-.22,11.29,11.29,0,0,1,2.42.26h4.71l-.16,2.21h-1.64a3.88,3.88,0,0,1,.49,1.24,8.32,8.32,0,0,1,.14,1.59v9h-2.81V608h-4.13a3.91,3.91,0,0,0-2.2.5,1.86,1.86,0,0,0-.72,1.66,1.78,1.78,0,0,0,.65,1.57,3.92,3.92,0,0,0,2.19.46,6.31,6.31,0,0,0,1.77-.21v2.16a9.07,9.07,0,0,1-2.53.31A5.45,5.45,0,0,1,298.05,613.39Z" transform="translate(-126.67 -526.6)"/><path class="cls-1" d="M321.62,611.47V600.13h2.81v10.63a1.26,1.26,0,0,0,.27.89,1.17,1.17,0,0,0,.87.28h1.2v2.24h-2.42A2.4,2.4,0,0,1,321.62,611.47Z" transform="translate(-126.67 -526.6)"/><path class="cls-1" d="M333.93,614a7.34,7.34,0,0,1-2.19-1.34l-.16,1.53H329v-14h2.83v10.35a5.86,5.86,0,0,0,1.74,1.22,5.08,5.08,0,0,0,2.13.47,2.55,2.55,0,0,0,2.92-3v-9.08h2.8v9.2a5.26,5.26,0,0,1-1.26,3.76,4.6,4.6,0,0,1-3.52,1.34A7.64,7.64,0,0,1,333.93,614Z" transform="translate(-126.67 -526.6)"/><path class="cls-1" d="M330.7,596h5v-2.15h2.05V596h1.56v-2.15h2.06V598H330.57Z" transform="translate(-126.67 -526.6)"/><path class="cls-1" d="M339.07,589h2.34v3.62h-2.34Z" transform="translate(-126.67 -526.6)"/><path class="cls-1" d="M346.39,614.14a12.19,12.19,0,0,1-2.54-.75v-7.23h5.57l.13,2.16h-3v3.41a8.39,8.39,0,0,0,2.86.44,5.31,5.31,0,0,0,2.47-.48,2.84,2.84,0,0,0,1.33-1.56,8.33,8.33,0,0,0,.41-2.93,7.9,7.9,0,0,0-.46-3,2.93,2.93,0,0,0-1.52-1.54,7.37,7.37,0,0,0-3-.47,15.19,15.19,0,0,0-4.65.67v-2.18a15.08,15.08,0,0,1,2.51-.57,19.32,19.32,0,0,1,2.85-.21q3.61,0,5.29,1.83c1.12,1.23,1.67,3.06,1.67,5.5s-.55,4.22-1.67,5.42-2.88,1.81-5.27,1.81A15.94,15.94,0,0,1,346.39,614.14Z" transform="translate(-126.67 -526.6)"/><path class="cls-1" d="M357.87,613.65v-2.23a8.93,8.93,0,0,0,3.53.75,6.56,6.56,0,0,0,2.82-.5,2.92,2.92,0,0,0,1.49-1.58,7.89,7.89,0,0,0,.45-2.94,5.5,5.5,0,0,0-1.1-3.85,5,5,0,0,0-3.68-1.14,8.66,8.66,0,0,0-3.51.75v-2.26a10.49,10.49,0,0,1,4.13-.78,6.71,6.71,0,0,1,5.17,1.85,7.68,7.68,0,0,1,1.72,5.43,7.91,7.91,0,0,1-1.66,5.43c-1.11,1.24-2.83,1.85-5.15,1.85A10.47,10.47,0,0,1,357.87,613.65Z" transform="translate(-126.67 -526.6)"/><path class="cls-1" d="M362,594.2h2.34V596h6.73l-.13,2H362Z" transform="translate(-126.67 -526.6)"/><path class="cls-1" d="M372.23,613.09a5.26,5.26,0,0,1-1.26-3.76v-9.2h2.83v9.08a3.13,3.13,0,0,0,.69,2.26,3,3,0,0,0,2.2.7,5.25,5.25,0,0,0,2.16-.47,5.39,5.39,0,0,0,1.74-1.22V600.13h2.81v14h-2.58l-.13-1.53a7.32,7.32,0,0,1-4.94,1.79A4.62,4.62,0,0,1,372.23,613.09Z" transform="translate(-126.67 -526.6)"/><path class="cls-1" d="M386.15,600.13h2.58l.15,1.54a7.46,7.46,0,0,1,5-1.8,4.48,4.48,0,0,1,3.45,1.33,5.17,5.17,0,0,1,1.25,3.72v9.25h-2.81V605a2.92,2.92,0,0,0-.71-2.19,3.07,3.07,0,0,0-2.2-.69,4.93,4.93,0,0,0-2.13.47,5.62,5.62,0,0,0-1.74,1.22v10.32h-2.84Z" transform="translate(-126.67 -526.6)"/><path class="cls-1" d="M387.84,596h8.38v-2.15h2.34V598H387.71Z" transform="translate(-126.67 -526.6)"/><path class="cls-1" d="M396.22,589h2.34v3.62h-2.34Z" transform="translate(-126.67 -526.6)"/><path class="cls-1" d="M412.62,599.92l-2.7.47V598l5.51-.85v17h-2.81Z" transform="translate(-126.67 -526.6)"/><path class="cls-1" d="M419.88,614.24a8.78,8.78,0,0,1-2.14-.56v-2.47a8.56,8.56,0,0,0,2.05.59A12.54,12.54,0,0,0,422,612a5,5,0,0,0,3-.7,2.65,2.65,0,0,0,.93-2.26,2.86,2.86,0,0,0-.71-2.18,3.79,3.79,0,0,0-2.61-.68h-4.94v-1.72l.44-7h9.51l-.23,2.18H420.5l-.29,4.39h2.84a6.33,6.33,0,0,1,4.35,1.27,5.75,5.75,0,0,1-.24,7.76,7.17,7.17,0,0,1-4.76,1.4A16.83,16.83,0,0,1,419.88,614.24Z" transform="translate(-126.67 -526.6)"/><path class="cls-1" d="M445.06,614a7.52,7.52,0,0,1-2.2-1.34l-.16,1.53h-2.57v-14H443v10.35a5.78,5.78,0,0,0,1.75,1.22,5,5,0,0,0,2.13.47,2.54,2.54,0,0,0,2.91-3v-9.08h2.81v9.2a5.26,5.26,0,0,1-1.26,3.76,4.63,4.63,0,0,1-3.53,1.34A7.59,7.59,0,0,1,445.06,614Z" transform="translate(-126.67 -526.6)"/><path class="cls-1" d="M441.82,596h8.37v-2.15h2.34V598H441.69Z" transform="translate(-126.67 -526.6)"/><path class="cls-1" d="M456.57,613.09a5.26,5.26,0,0,1-1.26-3.76v-9.2h2.84v9.08a3.13,3.13,0,0,0,.69,2.26,3,3,0,0,0,2.19.7,5.22,5.22,0,0,0,2.16-.47,5.28,5.28,0,0,0,1.74-1.22V600.13h2.81v14h-2.57l-.13-1.53a7.36,7.36,0,0,1-4.94,1.79A4.64,4.64,0,0,1,456.57,613.09Z" transform="translate(-126.67 -526.6)"/><path class="cls-1" d="M475.8,605.33a5.86,5.86,0,0,0-.23-1.81,1.81,1.81,0,0,0-.9-1,4.22,4.22,0,0,0-1.91-.35,10.07,10.07,0,0,0-1.81.18,9.82,9.82,0,0,0-1.75.49v-2.18a10.56,10.56,0,0,1,1.92-.56,11.87,11.87,0,0,1,2.19-.22,5.74,5.74,0,0,1,4.07,1.22,5.26,5.26,0,0,1,1.26,3.88v9.2H475.8Z" transform="translate(-126.67 -526.6)"/><path class="cls-1" d="M481.39,605.28a5.14,5.14,0,0,1,1.57-4,7.07,7.07,0,0,1,4.8-1.4,7,7,0,0,1,4.77,1.4,5.16,5.16,0,0,1,1.55,4v8.89h-2.83V605c0-1.91-1.17-2.86-3.49-2.86a4.19,4.19,0,0,0-2.65.7,2.59,2.59,0,0,0-.88,2.16v2.89A4.14,4.14,0,0,1,487,607h1.69l.1,2.26h-1.87a4,4,0,0,0-2.65.89v4h-2.84Z" transform="translate(-126.67 -526.6)"/><path class="cls-1" d="M501.76,614a7.34,7.34,0,0,1-2.19-1.34l-.16,1.53h-2.57v-14h2.83v10.35a5.74,5.74,0,0,0,1.74,1.22,5.08,5.08,0,0,0,2.13.47,2.55,2.55,0,0,0,2.92-3v-9.08h2.8v9.2a5.26,5.26,0,0,1-1.26,3.76,4.6,4.6,0,0,1-3.52,1.34A7.64,7.64,0,0,1,501.76,614Z" transform="translate(-126.67 -526.6)"/><path class="cls-1" d="M520.6,612.77a10.22,10.22,0,0,1,1.72-2.67,27.35,27.35,0,0,1,2.75-2.66c1.06-.92,1.81-1.61,2.26-2.07a4.62,4.62,0,0,0,1-1.37,4.27,4.27,0,0,0,.28-1.66,2.6,2.6,0,0,0-.8-2.07,3.94,3.94,0,0,0-2.58-.69,11.17,11.17,0,0,0-4,.79v-2.5a13.63,13.63,0,0,1,2.17-.51,15.18,15.18,0,0,1,2.36-.19,5.94,5.94,0,0,1,4.21,1.36,4.93,4.93,0,0,1,1.46,3.78,5,5,0,0,1-.8,2.84,15.27,15.27,0,0,1-2.45,2.7l-.45.39q-1.46,1.28-2.22,2a7.68,7.68,0,0,0-1.29,1.71h7.39v2.18h-11Z" transform="translate(-126.67 -526.6)"/><path class="cls-1" d="M535.5,614.24a8.57,8.57,0,0,1-2.13-.56v-2.47a8.47,8.47,0,0,0,2,.59,12.57,12.57,0,0,0,2.25.21,4.94,4.94,0,0,0,3-.7,2.65,2.65,0,0,0,.94-2.26,2.86,2.86,0,0,0-.72-2.18,3.79,3.79,0,0,0-2.61-.68h-4.94v-1.72l.44-7h9.52l-.24,2.18h-6.89l-.28,4.39h2.83a6.31,6.31,0,0,1,4.35,1.27,5.72,5.72,0,0,1-.24,7.76,7.15,7.15,0,0,1-4.76,1.4A16.93,16.93,0,0,1,535.5,614.24Z" transform="translate(-126.67 -526.6)"/><path class="cls-1" d="M548.33,614.21a12,12,0,0,1-2.2-.53v-2.47a11.49,11.49,0,0,0,4.37.8,5.79,5.79,0,0,0,3-.61,2.27,2.27,0,0,0,1-2.09q0-2.55-3.45-2.55h-2.53l.24-2.1h2.1c2.2,0,3.31-.87,3.31-2.61a2.11,2.11,0,0,0-.89-1.87,5.05,5.05,0,0,0-2.78-.6,11.12,11.12,0,0,0-2.12.21,9.41,9.41,0,0,0-1.94.58V598a10.44,10.44,0,0,1,2.08-.56,13.69,13.69,0,0,1,2.42-.22,7,7,0,0,1,4.51,1.26,4.12,4.12,0,0,1,1.55,3.36,4.54,4.54,0,0,1-.64,2.4,3.47,3.47,0,0,1-1.88,1.51,3.76,3.76,0,0,1,2.17,1.37,4,4,0,0,1,.71,2.42,4.24,4.24,0,0,1-1.73,3.69,8,8,0,0,1-4.74,1.25A16.1,16.1,0,0,1,548.33,614.21Z" transform="translate(-126.67 -526.6)"/><path class="cls-1" d="M567,599.61h-8.16v-2.18H570v1.82l-6.32,14.92h-2.89Z" transform="translate(-126.67 -526.6)"/><path class="cls-1" d="M573.9,611.86a15.83,15.83,0,0,0,.91-5.57q0-6.45-3.85-9.75h3.23a9.52,9.52,0,0,1,2.63,4.23,18.45,18.45,0,0,1,0,11.07,9.2,9.2,0,0,1-2.63,4.2H571A10.11,10.11,0,0,0,573.9,611.86Z" transform="translate(-126.67 -526.6)"/></svg>