<svg id="Layer_36" data-name="Layer 36" xmlns="http://www.w3.org/2000/svg" viewBox="0 0 107.74 119.1"><defs><style>.cls-1{fill:#775a41;}.cls-2{fill:#d75b4d;}.cls-3{fill:#fff;}.cls-4{fill:#76a075;}.cls-5{fill:none;stroke:#fff;stroke-miterlimit:10;stroke-width:2px;}.cls-6{fill:#285e85;}.cls-7{fill:#f3b744;}</style></defs><title>38</title><path class="cls-1" d="M60.54,145.61l2.19-4,1,.54-2,3.76a.48.48,0,0,0-.07.37.45.45,0,0,0,.25.26l.42.23-.43.8-.85-.47A1,1,0,0,1,60.54,145.61Z" transform="translate(-41.83 -38.96)"/><path class="cls-1" d="M64,146.42a1.17,1.17,0,0,1,1.29-.83l-.9-.73.49-1.07a3.88,3.88,0,0,1,1.35-.13,4.19,4.19,0,0,1,1.52.4,3,3,0,0,1,1.53,1.3,2.08,2.08,0,0,1-.14,1.83l-1.48,3.18-1-.48,1.49-3.21a1.28,1.28,0,0,0,.12-1.05,1.78,1.78,0,0,0-.92-.75,3,3,0,0,0-.94-.27,1.92,1.92,0,0,0-.81,0l-.08.18,1,.77-.32.69a1,1,0,0,0-.66.06,1.16,1.16,0,0,0-.44.55l-.86,1.85-1-.48Z" transform="translate(-41.83 -38.96)"/><path class="cls-1" d="M70.07,150.82A2.19,2.19,0,0,1,70,149l1.18-3.25,1.07.39-1.2,3.29a1.26,1.26,0,0,0,0,1.08,1.52,1.52,0,0,0,.91.68,1.5,1.5,0,0,0,1.13.06,1.31,1.31,0,0,0,.69-.83l.25-.7-1.27-.46.3-.82,1.27.46L75,147.1l1.07.39-.64,1.77.58.21-.38.79-.5-.18-.24.66a2.15,2.15,0,0,1-1.22,1.39,3.47,3.47,0,0,1-3.6-1.31Z" transform="translate(-41.83 -38.96)"/><path class="cls-1" d="M76.51,152.9a3.13,3.13,0,0,1-.07-2.23,4.24,4.24,0,0,1,1-2,1.63,1.63,0,0,1,2.14-.11A1.47,1.47,0,0,1,80,149a1.67,1.67,0,0,1,.66-.23,1.84,1.84,0,0,1,.74,0,1.32,1.32,0,0,1,.87.64,1.72,1.72,0,0,1,0,1.18l-1.07,4.1-1.11-.29,1-3.94a1.08,1.08,0,0,0,0-.6.47.47,0,0,0-.38-.28.64.64,0,0,0-.41,0A.65.65,0,0,0,80,150l-.61-.16a1.16,1.16,0,0,0-.17-.43.6.6,0,0,0-.33-.2.73.73,0,0,0-.83.34,4.74,4.74,0,0,0-.6,1.45,2.49,2.49,0,0,0,0,1.53,1.25,1.25,0,0,0,.91.7,2.23,2.23,0,0,0,.72.11l-.22.84A3,3,0,0,1,78,154,2.12,2.12,0,0,1,76.51,152.9Z" transform="translate(-41.83 -38.96)"/><path class="cls-1" d="M83.67,155.25a3.42,3.42,0,0,1-.8-.34L83,154a5,5,0,0,0,.8.38,5.89,5.89,0,0,0,.84.23,3,3,0,0,0,1.1,0,.54.54,0,0,0,.41-.48.65.65,0,0,0-.06-.42.86.86,0,0,0-.3-.3c-.13-.08-.34-.2-.63-.35l-.38-.2a4,4,0,0,1-1.15-.85A1.23,1.23,0,0,1,83.4,151a1.38,1.38,0,0,1,.77-1.07,2.83,2.83,0,0,1,1.74-.14,7.13,7.13,0,0,1,.91.23,5.71,5.71,0,0,1,.75.31l-.15.93a4,4,0,0,0-.72-.32,4.13,4.13,0,0,0-.78-.21,2.94,2.94,0,0,0-1,0,.52.52,0,0,0-.42.46.5.5,0,0,0,.08.38,1.24,1.24,0,0,0,.33.31l.69.39.29.14a3.81,3.81,0,0,1,1.16.87,1.32,1.32,0,0,1,.22,1.11,1.33,1.33,0,0,1-.8,1.08,3.13,3.13,0,0,1-1.74.1A6.72,6.72,0,0,1,83.67,155.25Z" transform="translate(-41.83 -38.96)"/><path class="cls-1" d="M89,150.36l1,.09v.62a3,3,0,0,1,2.06-.56,1.83,1.83,0,0,1,1.35.64,2.16,2.16,0,0,1,.38,1.54l-.3,3.71-1.13-.09.3-3.66a1.18,1.18,0,0,0-.22-.91,1.25,1.25,0,0,0-.86-.35,2.14,2.14,0,0,0-.87.12A2.38,2.38,0,0,0,90,152l-.33,4.14L88.51,156Z" transform="translate(-41.83 -38.96)"/><path class="cls-1" d="M99.16,152.85a1.3,1.3,0,0,0-.35-1,1.79,1.79,0,0,0-1.16-.27,3.09,3.09,0,0,0-1,.17,1.79,1.79,0,0,0-.71.4v.18l1.2.29v.75a1,1,0,0,0-.57.34,1.23,1.23,0,0,0-.16.7l0,.68a.46.46,0,0,0,.11.34.45.45,0,0,0,.33.1h.58l0,.9-1.13,0a1,1,0,0,1-.75-.28,1.07,1.07,0,0,1-.29-.76l0-1a1.18,1.18,0,0,1,.81-1.31L95,152.84l0-1.17a3.94,3.94,0,0,1,1.15-.71,4.27,4.27,0,0,1,1.54-.3,3,3,0,0,1,2,.5,2.07,2.07,0,0,1,.68,1.7l.09,5.18-1.14,0Z" transform="translate(-41.83 -38.96)"/><path class="cls-1" d="M102.76,155.7a2.16,2.16,0,0,1-.87-1.63l-.42-3.43,1.13-.14L103,154a1.29,1.29,0,0,0,.49,1,1.93,1.93,0,0,0,2.15-.26,1.36,1.36,0,0,0,.24-1.06l-.09-.73-1.34.16-.11-.86,1.34-.17-.22-1.87,1.13-.13.23,1.87.61-.08,0,.87-.53.07.09.69a2.17,2.17,0,0,1-.47,1.8,3.47,3.47,0,0,1-3.8.46Z" transform="translate(-41.83 -38.96)"/><path class="cls-1" d="M110.54,156.18a4.19,4.19,0,0,1,1.65-.77,3.9,3.9,0,0,1,.81-.1,1.9,1.9,0,0,1,.66.08l-1-4.5a1.34,1.34,0,0,0-.54-.91,1.69,1.69,0,0,0-1.14,0,3.27,3.27,0,0,0-.92.36,1.88,1.88,0,0,0-.6.54l0,.18,1.26,0,.17.74a.86.86,0,0,0-.43.44,1.31,1.31,0,0,0,0,.7l.16.74a1.11,1.11,0,0,1-.91,1.52l-.69.16-.2-.88.38-.09a.44.44,0,0,0,.28-.16.6.6,0,0,0,0-.36l-.16-.68a2,2,0,0,1,0-.84,1,1,0,0,1,.47-.59l-1.19,0-.26-1.14a3.93,3.93,0,0,1,1-.93,4,4,0,0,1,1.45-.61,2.78,2.78,0,0,1,2,.11,2.11,2.11,0,0,1,1,1.52l1.24,5.39-1.11.26a3.13,3.13,0,0,0-1.58,0,3.73,3.73,0,0,0-.83.29,3.31,3.31,0,0,0-.71.45Z" transform="translate(-41.83 -38.96)"/><path class="cls-1" d="M108.59,148.12l3.24-.92-.24-.83.91-.26.45,1.6-4.2,1.19Z" transform="translate(-41.83 -38.96)"/><path class="cls-1" d="M115.66,152.58l-.71-2.31a1.83,1.83,0,0,1-.07-.94,3.89,3.89,0,0,1,.35-.89,4.25,4.25,0,0,0,.2-.47.5.5,0,0,0,0-.32.47.47,0,0,0-.27-.34,1,1,0,0,0-.54.05,2.44,2.44,0,0,0-1,.64l-.24-.8a2.32,2.32,0,0,1,.6-.49,3.73,3.73,0,0,1,.74-.33,1.69,1.69,0,0,1,1.15,0,1.14,1.14,0,0,1,.62.74,1.29,1.29,0,0,1,0,.64,3.71,3.71,0,0,1-.27.69,5.44,5.44,0,0,0-.27.81,1.38,1.38,0,0,0,.05.74l.62,2c.06.18.12.29.2.33s.2,0,.38,0l.46-.15.27.86-.93.29A1,1,0,0,1,115.66,152.58Z" transform="translate(-41.83 -38.96)"/><path class="cls-1" d="M117.32,147.31l1.06-.41.64,1.66,1.53-.59a1.11,1.11,0,0,0,.69-.54,1.06,1.06,0,0,0,0-.83l-.26-.68,1-.41.25.66a1.39,1.39,0,0,1-.25,1.7,1,1,0,0,1,.76.25,1.85,1.85,0,0,1,.47.74l.75,1.95-1,.4-.7-1.81a1.2,1.2,0,0,0-.52-.7,1.24,1.24,0,0,0-.87.1l-1.48.57,1.08,2.8-1.07.41Z" transform="translate(-41.83 -38.96)"/><path class="cls-1" d="M127.33,149.16a2.8,2.8,0,0,1-1-.1l.22.59-.94.45L123.11,145l1-.5,1.83,3.74a2.16,2.16,0,0,0,1.7-.07,1.2,1.2,0,0,0,.67-.64,1.24,1.24,0,0,0-.14-.94l-1.6-3.29,1-.49,1.62,3.33a2.17,2.17,0,0,1,.21,1.58,1.9,1.9,0,0,1-1,1.11A3.07,3.07,0,0,1,127.33,149.16Z" transform="translate(-41.83 -38.96)"/><path class="cls-1" d="M125.32,141.08l1-.55.81,1.52-1,.54Z" transform="translate(-41.83 -38.96)"/><polygon class="cls-2" points="5.91 51.14 6.18 27.16 15.03 21.33 23.31 27.39 23.04 51.34 5.91 51.14"/><polygon class="cls-2" points="17.28 51.27 17.4 40.95 26.25 35.12 34.52 41.18 34.33 58.2 17.28 51.27"/><rect class="cls-3" x="65.38" y="79.16" width="4.79" height="4.79" transform="translate(-40.91 -39.72) rotate(0.64)"/><rect class="cls-3" x="54.16" y="65.37" width="4.79" height="4.79" transform="translate(-41.06 -39.6) rotate(0.64)"/><path class="cls-2" d="M57.51,83.42l11.2-7.93H67.63l10.75,8.17c1.1.84,2.18-1,1.09-1.85L68.71,73.63a1,1,0,0,0-1.08,0l-11.2,7.93c-1.12.79,0,2.66,1.08,1.86Z" transform="translate(-41.83 -38.96)"/><path class="cls-2" d="M46.12,69.63l11.2-7.93H56.23L67,69.87c1.1.84,2.17-1,1.09-1.85L57.32,59.84a1,1,0,0,0-1.09,0L45,67.77c-1.12.79,0,2.66,1.08,1.86Z" transform="translate(-41.83 -38.96)"/><path class="cls-4" d="M85.05,143.75a53.88,53.88,0,0,0,58-78.57A88.34,88.34,0,0,0,85.05,143.75Z" transform="translate(-41.83 -38.96)"/><path class="cls-5" d="M122,102.86s-11-11.5-8-27.26" transform="translate(-41.83 -38.96)"/><path class="cls-3" d="M114,107.7c3.1-3.4,6.13-7.06,9-10.74s5.67-7.51,8.31-11.41,5.08-7.93,7.36-12.06a107.16,107.16,0,0,0,5.92-12.88A110.1,110.1,0,0,1,139.83,74q-2.9,6.52-6.36,12.81t-7.39,12.28c-2.62,4-5.31,7.93-8.27,11.81Z" transform="translate(-41.83 -38.96)"/><path class="cls-6" d="M95.7,105.37A87.86,87.86,0,0,1,42,87.14c-.09,1.26-.15,2.52-.15,3.8a53.87,53.87,0,1,0,107.73,0c0-1.28-.06-2.54-.15-3.8A87.87,87.87,0,0,1,95.7,105.37Z" transform="translate(-41.83 -38.96)"/><path class="cls-7" d="M42.54,82.25A53.84,53.84,0,0,0,95.7,144.81a53.57,53.57,0,0,0,23.18-5.23A88.38,88.38,0,0,0,42.54,82.25Z" transform="translate(-41.83 -38.96)"/><path class="cls-3" d="M52.92,92.45a9.34,9.34,0,0,1,1.56,1,13,13,0,0,1,1.31,1.13A16.65,16.65,0,0,1,58,97.14l-2.49,0a17.25,17.25,0,0,1,2.1-2.59,14,14,0,0,1,1.28-1.14,9.77,9.77,0,0,1,1.53-1,9.29,9.29,0,0,1-.31,1.79,12.31,12.31,0,0,1-.54,1.62,16.27,16.27,0,0,1-1.56,3l-1.22,1.86-1.26-1.84a16.88,16.88,0,0,1-1.64-2.94,14.48,14.48,0,0,1-.59-1.64A9.26,9.26,0,0,1,52.92,92.45Z" transform="translate(-41.83 -38.96)"/><path class="cls-3" d="M56.61,90.89a4.65,4.65,0,0,1,1.2,1.76,5.22,5.22,0,0,1,.36,1.77,5,5,0,0,1-.3,1.77A4.62,4.62,0,0,1,56.72,98a4.73,4.73,0,0,1-1.2-1.76,4.85,4.85,0,0,1-.35-1.77,5.07,5.07,0,0,1,.29-1.78A4.83,4.83,0,0,1,56.61,90.89Z" transform="translate(-41.83 -38.96)"/><path class="cls-3" d="M71.51,101.1a9.34,9.34,0,0,1,1.56,1,13,13,0,0,1,1.31,1.13,16.65,16.65,0,0,1,2.17,2.59l-2.49,0a17.25,17.25,0,0,1,2.1-2.59,14,14,0,0,1,1.28-1.14,9.77,9.77,0,0,1,1.53-1,10.13,10.13,0,0,1-.3,1.79,14,14,0,0,1-.55,1.62,16.88,16.88,0,0,1-1.55,2.95l-1.22,1.86-1.27-1.83a17.34,17.34,0,0,1-1.64-2.95,16.72,16.72,0,0,1-.59-1.64A10.07,10.07,0,0,1,71.51,101.1Z" transform="translate(-41.83 -38.96)"/><path class="cls-3" d="M75.2,99.54a4.8,4.8,0,0,1,1.21,1.76,5.06,5.06,0,0,1,.06,3.54,4.86,4.86,0,0,1-1.15,1.8,4.65,4.65,0,0,1-1.21-1.76,5.07,5.07,0,0,1-.35-1.77,4.86,4.86,0,0,1,.3-1.78A4.67,4.67,0,0,1,75.2,99.54Z" transform="translate(-41.83 -38.96)"/><path class="cls-3" d="M59.46,112.41a9.18,9.18,0,0,1,1.56,1,13.27,13.27,0,0,1,1.32,1.13,18.39,18.39,0,0,1,2.17,2.59l-2.49,0a16.65,16.65,0,0,1,2.1-2.59,15.73,15.73,0,0,1,1.28-1.14,9.22,9.22,0,0,1,1.52-1,8.37,8.37,0,0,1-.3,1.79,12.45,12.45,0,0,1-.54,1.63,17.19,17.19,0,0,1-1.56,2.94l-1.22,1.86L62,118.8a17.22,17.22,0,0,1-1.63-3,12.77,12.77,0,0,1-.59-1.64A9.9,9.9,0,0,1,59.46,112.41Z" transform="translate(-41.83 -38.96)"/><path class="cls-3" d="M63.16,110.86a4.62,4.62,0,0,1,1.2,1.75,5.07,5.07,0,0,1,.35,1.77,4.85,4.85,0,0,1-.29,1.78A4.59,4.59,0,0,1,63.27,118a4.69,4.69,0,0,1-1.21-1.76,5,5,0,0,1-.35-1.76,5.24,5.24,0,0,1,.3-1.78A4.64,4.64,0,0,1,63.16,110.86Z" transform="translate(-41.83 -38.96)"/><path class="cls-3" d="M74.42,126.64a9,9,0,0,1,1.56,1,12.07,12.07,0,0,1,1.32,1.13,18.31,18.31,0,0,1,2.17,2.58l-2.49,0a16.65,16.65,0,0,1,2.1-2.59,14,14,0,0,1,1.28-1.14,9.22,9.22,0,0,1,1.52-1,8.58,8.58,0,0,1-.3,1.79,14,14,0,0,1-.54,1.62A16.92,16.92,0,0,1,79.48,133l-1.22,1.86L77,133a18,18,0,0,1-1.64-3,13.63,13.63,0,0,1-.58-1.63A10.07,10.07,0,0,1,74.42,126.64Z" transform="translate(-41.83 -38.96)"/><path class="cls-3" d="M78.12,125.08a4.65,4.65,0,0,1,1.2,1.76,5,5,0,0,1,.35,1.76,4.78,4.78,0,0,1-.29,1.78,4.52,4.52,0,0,1-1.15,1.79A4.66,4.66,0,0,1,77,130.42a5.07,5.07,0,0,1-.35-1.77,5.32,5.32,0,0,1,.3-1.78A4.71,4.71,0,0,1,78.12,125.08Z" transform="translate(-41.83 -38.96)"/><path class="cls-3" d="M88.24,113.09a9.85,9.85,0,0,1,1.56,1,13.27,13.27,0,0,1,1.32,1.13,18.39,18.39,0,0,1,2.17,2.59l-2.49,0a17.13,17.13,0,0,1,2.1-2.59,15.73,15.73,0,0,1,1.28-1.14,9.92,9.92,0,0,1,1.52-1,8.37,8.37,0,0,1-.3,1.79,12.45,12.45,0,0,1-.54,1.63,17.67,17.67,0,0,1-1.56,2.95l-1.22,1.85-1.27-1.83a17.22,17.22,0,0,1-1.63-3,12.77,12.77,0,0,1-.59-1.64A9.9,9.9,0,0,1,88.24,113.09Z" transform="translate(-41.83 -38.96)"/><path class="cls-3" d="M91.94,111.54a4.62,4.62,0,0,1,1.2,1.75,5.07,5.07,0,0,1,.35,1.77,4.85,4.85,0,0,1-.29,1.78,4.59,4.59,0,0,1-1.15,1.79,4.69,4.69,0,0,1-1.21-1.76,5,5,0,0,1-.35-1.76,5.28,5.28,0,0,1,.3-1.78A4.64,4.64,0,0,1,91.94,111.54Z" transform="translate(-41.83 -38.96)"/><path class="cls-3" d="M100.34,129.63a10.86,10.86,0,0,1,1.56,1,16,16,0,0,1,1.32,1.13,17.67,17.67,0,0,1,2.16,2.59l-2.48,0a17.69,17.69,0,0,1,2.09-2.59,14.36,14.36,0,0,1,1.29-1.14,9.92,9.92,0,0,1,1.52-1,9.83,9.83,0,0,1-.3,1.79,16.38,16.38,0,0,1-.54,1.63A17.67,17.67,0,0,1,105.4,136l-1.22,1.85L102.91,136a18,18,0,0,1-1.64-3,14.44,14.44,0,0,1-.58-1.64A9.11,9.11,0,0,1,100.34,129.63Z" transform="translate(-41.83 -38.96)"/><path class="cls-3" d="M104,128.08a4.66,4.66,0,0,1,1.21,1.75,5.08,5.08,0,0,1,.06,3.55,4.71,4.71,0,0,1-1.15,1.79,4.57,4.57,0,0,1-1.21-1.76,5,5,0,0,1-.35-1.76,5,5,0,0,1,.3-1.78A4.6,4.6,0,0,1,104,128.08Z" transform="translate(-41.83 -38.96)"/><path class="cls-2" d="M60.07,49c.09-3.33,1.84-4.58,4.51-4.51a3.7,3.7,0,0,1,2.88,1.1l0-1.46c0-1.48-.71-2.29-2.54-2.34A4.68,4.68,0,0,0,61.62,43l-1.17-1.69a7.55,7.55,0,0,1,4.92-1.43,6.64,6.64,0,0,1,2.61.54,2.33,2.33,0,0,0,.69-1.13l2.35.57a3.3,3.3,0,0,1-1.2,2,3.74,3.74,0,0,1,.66,2.42L70.27,52l-2.89-.08c.11-3.88-.63-5.29-2.77-5.35-1.08,0-1.75.28-1.86,1.27,1.63-.08,2.34.66,2.3,2.18s-.63,2.15-2.57,2.1S60,51,60.07,49Zm3.41.85c0-.62-.17-.83-.86-.84s-.88.17-.9.79.2.88.86.9S63.47,50.55,63.48,49.89Z" transform="translate(-41.83 -38.96)"/><path class="cls-2" d="M67.33,57.05a1.84,1.84,0,0,1-2-2.11c0-1.41.57-2.19,2.48-2.14s2.41.89,2.36,2.58L70,59l-2.75-.08Zm1.2-2c0-.66-.18-.86-.86-.88s-.89.17-.9.83.17.83.86.84S68.51,55.67,68.53,55.05Z" transform="translate(-41.83 -38.96)"/><path class="cls-7" d="M72.45,48.14l0-.9a4,4,0,0,1,1.36-2.88c-1.32-.12-1.74-.77-1.71-2.18s.62-2.15,2.55-2.09,2.5.64,2.46,2.29l0,.77c0,1.48-1.6,1.77-1.65,3.82l0,1.39c0,1.23.16,2.08,1.91,2.12s2-.78,2-2l.22-7.91,3,.08-.21,7.65c-.07,2.47-1.29,4.31-5.06,4.21S72.39,50.33,72.45,48.14Zm3-5.8c0-.67-.17-.87-.85-.89s-.91.18-.93.84.2.82.88.84S75.46,43,75.47,42.34Z" transform="translate(-41.83 -38.96)"/><path class="cls-4" d="M86.59,46.29a1.87,1.87,0,0,1-2.4-1.66c-.25-1.43.16-2.27,2.09-2.61s2.63.32,2.94,2l.91,5.1L91,45l1.12-.2,2.33,3.61-1.29-7.25,2.93-.52,2,11.49-3,.53-3-4.49L91,53.37l-3,.54Zm.89-2.22c-.12-.65-.35-.81-1-.69s-.84.35-.72,1,.34.77,1,.65S87.58,44.68,87.48,44.07Z" transform="translate(-41.83 -38.96)"/><path class="cls-6" d="M99.22,48.23,99,46.92c-.31-1.71.14-2.57,2.05-2.91s2.61.29,2.86,1.73-.6,2-1.81,2.25l0,.3c.16.89.87,1.23,2.3,1s2.1-.91,1.94-1.85l-.8-4.49c-.27-1.52-1.27-2.08-3.18-1.74a4.94,4.94,0,0,0-3,1.72l-1.48-1.37a7.71,7.71,0,0,1,4.55-2.4c3.91-.69,5.61.7,6.06,3.24l.78,4.37c.27,1.52-.49,3.78-4.48,4.49S99.58,50.27,99.22,48.23Zm3.15-2.2c-.12-.65-.35-.81-1-.69s-.84.35-.72,1,.34.77,1,.65S102.47,46.64,102.37,46Z" transform="translate(-41.83 -38.96)"/><path class="cls-4" d="M75,69a1.89,1.89,0,0,1-2.44-1.63c-.27-1.43.14-2.27,2.07-2.63s2.65.28,3,2l.5,2.67,1.2-3.48c.54-1.57,1.19-2.29,2.51-2.54a2.05,2.05,0,0,1,2.55,1.87l1.8,9.51-2.92.56-1.56-8.24c0-.24-.1-.31-.28-.28s-.26.18-.4.61l-2.12,6.11L79.36,76l-2.93.55Zm.84-2.23c-.12-.65-.35-.8-1-.68s-.83.36-.7,1,.34.77,1,.64S76,67.35,75.83,66.74Z" transform="translate(-41.83 -38.96)"/><path class="cls-6" d="M77.57,58.85a4.8,4.8,0,0,1,3,.29l-.3-1.58,2.53-.48L83.73,62,73.18,64C72.89,61.17,74.8,59.37,77.57,58.85ZM80.75,61c-.51-.69-1.66-.81-2.87-.58s-2.15.75-2.23,1.55Z" transform="translate(-41.83 -38.96)"/><path class="cls-7" d="M79.56,53.83l2.54-.48.56,2.95-2.54.47Z" transform="translate(-41.83 -38.96)"/><path class="cls-2" d="M90.13,64.86A2.17,2.17,0,0,1,88,62.22c.19-1.69.93-2.49,3.2-2.23s2.84,1.22,2.62,3.24l-.68,6,2.36-4.39,1.33.15,1.4,4.81,1-8.54,3.45.39-1.52,13.53-3.53-.4-1.83-6-3.08,5.46-3.55-.4Zm1.72-2.18c.09-.77-.12-1-.91-1.12s-1,.12-1.14.89.13,1,.92,1.06S91.77,63.39,91.85,62.68Z" transform="translate(-41.83 -38.96)"/><path class="cls-4" d="M99.8,55.52l3.46.38-.48,4.22-3.45-.38Z" transform="translate(-41.83 -38.96)"/><path class="cls-7" d="M103.61,71.22l.17-1.53c.23-2,1-2.84,3.27-2.59s2.82,1.2,2.63,2.89-1.35,2.07-2.78,1.91l0,.36c-.12,1,.56,1.67,2.25,1.86s2.65-.32,2.77-1.42l.6-5.3c.2-1.79-.73-2.75-3-3a5.78,5.78,0,0,0-4,.93l-1.2-2a9,9,0,0,1,5.88-1.17c4.61.51,6,2.64,5.71,5.64l-.57,5.14c-.21,1.79-1.81,4.07-6.51,3.54S103.34,73.63,103.61,71.22Zm4.25-1.41c.08-.77-.12-1-.91-1.11s-1,.11-1.14.88.13,1,.92,1.06S107.78,70.53,107.86,69.81Z" transform="translate(-41.83 -38.96)"/><path class="cls-6" d="M118.28,67.79,116.58,62c-.63-2.14,1.66-4,1.15-5.75-.22-.76-.71-1-1.6-.74a1.19,1.19,0,0,0-1,1.6l.22.72-2.86.84-.22-.74c-.6-2,1-3.69,3.31-4.36,2.84-.84,4.38,0,4.92,1.86.62,2.07-1.59,4-1.06,5.83l1.18,4a1.86,1.86,0,0,1,2.57,1.38c.41,1.39.1,2.27-1.79,2.82S118.77,69.46,118.28,67.79Zm3.42-.71c-.17-.59-.42-.73-1.07-.53s-.79.44-.62,1,.44.77,1.09.57S121.89,67.71,121.7,67.08Z" transform="translate(-41.83 -38.96)"/><path class="cls-4" d="M125.46,59.87a1.88,1.88,0,0,1-2.59-1.37c-.41-1.4-.1-2.27,1.78-2.83s2.68,0,3.17,1.69l1.53,5.18,1.17-3.82a1.78,1.78,0,0,1,.39-.71,1.71,1.71,0,0,1-1.48-1.43c-.41-1.39-.14-2.28,1.74-2.84s2.57-.18,3,1.43a1.69,1.69,0,0,1-.5,2c.56.11.94.53,1.17,1.31l1.81,6.11-2.86.85-1.44-4.87c-.07-.23-.13-.3-.26-.26s-.18.17-.27.47l-1.69,5.74-2.51.75Zm.61-2.29c-.19-.64-.44-.77-1.09-.58s-.79.44-.6,1.08.42.72,1.07.53S126.24,58.17,126.07,57.58Zm6.6-2c-.19-.63-.46-.76-1.11-.56s-.79.44-.61,1.07.43.73,1.08.53S132.84,56.22,132.67,55.62Z" transform="translate(-41.83 -38.96)"/><path class="cls-2" d="M127.13,52.38c.57-.16.92-.31,1-.69-1.13.45-1.87.07-2.17-1-.36-1.2.12-1.83,1.5-2.23s2.09-.09,2.45,1.13a2.35,2.35,0,0,1,0,1.69c1.24-.56,1.42-1.35,1-2.78l-.12-.38,2.12-.63L133,48a3.8,3.8,0,0,1-2.66,5l-2.77.82Zm1.48-2.48c-.16-.53-.39-.62-.92-.46s-.68.36-.52.89.35.63.92.46S128.76,50.41,128.61,49.9Z" transform="translate(-41.83 -38.96)"/><path class="cls-5" d="M131.42,87.51s-6.79-7.12-5-16.87" transform="translate(-41.83 -38.96)"/><path class="cls-5" d="M136.16,79.72s7.38.21,12.41-3.46" transform="translate(-41.83 -38.96)"/></svg>