<svg xmlns="http://www.w3.org/2000/svg" data-name="Layer 28" width="75" height="137" style=""><rect id="backgroundrect" width="100%" height="100%" x="0" y="0" fill="none" stroke="none"/><defs><style>.cls-1{fill:#162c53;}</style></defs><title>7</title><g class="currentLayer" style=""><title>Layer 1</title><path class="cls-1" d="M76.95005141972649,119.63684796690939 S75.30005141972651,134.7368479669094 60.1900514197265,136.34684796690942 s-10.29,-5.86 -10.29,-5.86 s-10.18,7.72 -20.22,3.91 s7.37,-9.65 7.37,-9.65 s-22.81,3.26 -26.51,-7.76 S22.60005141972647,107.73684796690941 22.60005141972647,107.73684796690941 s-22.57,-5.32 -22.6,-16.67 s13,-6.9 13,-6.9 s-10.34,-5.85 -7.6400000000000015,-11.9 s11.71,-2.73 11.71,-2.73 s-18,-28.55 3.11,-28.35 c0,0 -10,-20.86 9.74,-15.66 c0,0 -6.34,-21.21 10.34,-25.11 s19.55,20.85 19.55,20.85 s-0.9400000000000004,-11.39 8.67,-10.28 s6.09,21.12 6.09,21.12 s5.14,-11.52 16.69,-7.83 s8.36,23.6 8.36,23.6 s1.7200000000000002,-4.82 9.15,-6.5600000000000005 s6,13.35 -1.3800000000000001,18.5 c0,0 18.08,-7.25 5.55,15.74 c0,0 5.76,-6 10.17,-0.52 s-1.4,17 -12.82,23.68 c0,0 8.870000000000001,-6.09 11.13,3.5700000000000003 s-16.2,13.05 -16.2,13.05 s14.06,0.8200000000000004 6.61,9.15 S87.91005141972653,130.8568479669094 76.95005141972649,119.63684796690939 z" id="svg_1"/></g></svg>