<svg xmlns="http://www.w3.org/2000/svg" data-name="Layer 26" width="85" height="136"><rect id="backgroundrect" width="100%" height="100%" x="0" y="0" fill="none" stroke="none"/><defs><style>.cls-1{fill:#2f4a3d;}</style></defs><title>8</title><g class="currentLayer" style=""><title>Layer 1</title><path class="cls-1" d="M76.95998046875002,119.63997070312496 s-1.6400000000000001,15.13 -16.76,16.71 s-10.3,-5.85 -10.3,-5.85 S39.72998046875,138.219970703125 29.72998046875,134.40997070312505 s7.38,-9.66 7.38,-9.66 s-22.82,3.26 -26.51,-7.75 s12,-9.27 12,-9.27 s-22.57,-5.3100000000000005 -22.6,-16.67 s13,-6.9 13,-6.9 s-10.35,-5.84 -7.65,-11.9 s11.71,-2.73 11.71,-2.73 s-18,-28.54 3.12,-28.35 c0,0 -10,-20.86 9.73,-15.66 c0,0 -6.34,-21.21 10.34,-25.1 s19.55,20.84 19.55,20.84 s-0.93,-11.38 8.68,-10.27 s6.08,21.11 6.08,21.11 s5.15,-11.52 16.69,-7.83 s8.36,23.6 8.36,23.6 s1.73,-4.82 9.16,-6.5600000000000005 s6,13.35 -1.3800000000000001,18.51 c0,0 18.08,-7.26 5.54,15.74 c0,0 5.77,-6 10.17,-0.53 s-1.4,17 -12.82,23.68 c0,0 8.88,-6.08 11.13,3.58 s-16.2,13 -16.2,13 s14.07,0.8200000000000001 6.62,9.15 S87.90998046874995,130.859970703125 76.95998046875002,119.63997070312496 z" id="svg_1"/></g></svg>