<svg xmlns="http://www.w3.org/2000/svg" data-name="Layer 25" width="95" height="153"><rect id="backgroundrect" width="100%" height="100%" x="0" y="0" fill="none" stroke="none"/><defs><style>.cls-1{fill:#162c53;}</style></defs><title>9</title><g class="currentLayer" style=""><title>Layer 1</title><path class="cls-1" d="M75.25000976562501,136.39998535156246 s-5.52,15.73 -22.06,13.66 s-9.52,-8.82 -9.52,-8.82 s-12.78,5.7 -22.56,-0.8700000000000001 s10.28,-8.47 10.28,-8.47 s-25.16,-2.2 -26.36,-14.870000000000001 s15.17,-6.890000000000001 15.17,-6.890000000000001 s-22.76,-11.3 -20,-23.42 S15.810009765624955,82.6099853515625 15.810009765624955,82.6099853515625 s-9.58,-8.82 -5.19,-14.6 s13.18,0 13.18,0 s-12.12,-35 10.38,-29.48 c0,0 -5.45,-24.76 14.3,-14.29 c0,0 -1.48,-24.22 17.29,-24.22 s15.67,27.12 15.67,27.12 s1.84,-12.38 11.82,-8.8 s1.23,24 1.23,24 s8.36,-11 19.76,-4.2 s3,27.27 3,27.27 s3,-4.72 11.4,-4.72 s3,15.73 -6.08,19.4 c0,0 21.1,-3.23 2,18.19 c0,0 7.640000000000001,-5 11,2 s-5.73,17.79 -19.58,22.08 c0,0 11,-4.29 11,6.59 s-20.53,9.88 -20.53,9.88 s14.8,4.38 4.77,11.41 S84.140009765625,151.0999853515625 75.25000976562501,136.39998535156246 z" id="svg_1"/></g></svg>