<svg xmlns="http://www.w3.org/2000/svg" viewBox="0 0 341.51 362.96"><defs><style>.cls-1{fill:#fff;}.cls-2{fill:#775a41;}.cls-3{fill:#d75b4d;}.cls-4{fill:#76a075;}.cls-5{fill:none;stroke:#fff;stroke-miterlimit:10;stroke-width:3.52px;}.cls-6{fill:#285e85;}.cls-7{fill:#f3b744;}</style></defs><title>Asset 1</title><g id="Layer_2" data-name="Layer 2"><g id="Layer_2-2" data-name="Layer 2"><path class="cls-1" d="M285.31,287.4S319.5,362.93,177.07,363C56.42,363,43.86,309.49,59.3,288.11c0,0-77.61-36.87-55.26-161.24,0,0-14.13-48.35,50.39-69.19,0,0-8.31-55.21,25.36-55.21s67.55,13.09,106.15,0c41-13.91,41.23,35.46,41.23,35.46S251,18.54,279.65,26.63,301.26,70.2,301.26,70.2s36.43,8.32,40,82.37C344.33,214.88,314.93,266.58,285.31,287.4Z"/><path class="cls-2" d="M71.53,316.71l6.13-11.25L80.45,307,74.7,317.53a1.39,1.39,0,0,0-.21,1,1.3,1.3,0,0,0,.71.75l1.19.65-1.21,2.22-2.4-1.31Q70.07,319.4,71.53,316.71Z"/><path class="cls-2" d="M81.31,319c.82-1.77,2-2.55,3.64-2.32l-2.54-2.06,1.38-3a10.72,10.72,0,0,1,3.79-.38,11.86,11.86,0,0,1,4.26,1.13,8.46,8.46,0,0,1,4.3,3.66c.68,1.41.55,3.13-.38,5.14l-4.16,8.92-2.9-1.35,4.19-9a3.57,3.57,0,0,0,.34-3,4.93,4.93,0,0,0-2.59-2.1A8.64,8.64,0,0,0,88,313.9a5.39,5.39,0,0,0-2.28.13l-.23.48,2.68,2.19-.89,1.92a2.72,2.72,0,0,0-1.86.17,3.33,3.33,0,0,0-1.25,1.56l-2.4,5.17-2.88-1.34Z"/><path class="cls-2" d="M98.29,331.34a6,6,0,0,1-.12-5.19l3.31-9.11,3,1.08-3.36,9.23a3.68,3.68,0,0,0,0,3,5.48,5.48,0,0,0,5.73,2.09,3.68,3.68,0,0,0,1.93-2.35l.72-2-3.57-1.3.84-2.29,3.56,1.3,1.81-5,3,1.1-1.81,5,1.63.59-1,2.22-1.41-.52-.67,1.86a6,6,0,0,1-3.44,3.89,8,8,0,0,1-5.6-.3A7.9,7.9,0,0,1,98.29,331.34Z"/><path class="cls-2" d="M116.35,337.2q-1.21-2.37-.19-6.26a11.91,11.91,0,0,1,2.91-5.73,4.34,4.34,0,0,1,4.3-1.14,3.53,3.53,0,0,1,2.68,2.28,4.52,4.52,0,0,1,1.84-.65,5,5,0,0,1,2.07.1,3.53,3.53,0,0,1,2.45,1.79,4.6,4.6,0,0,1,.14,3.29l-3,11.52-3.1-.81,2.9-11.06a3.18,3.18,0,0,0,.1-1.69,1.35,1.35,0,0,0-1.07-.78,1.88,1.88,0,0,0-1.15,0,2,2,0,0,0-1,.8l-1.71-.44a3.23,3.23,0,0,0-.48-1.21,1.62,1.62,0,0,0-.94-.56,2,2,0,0,0-2.33.94,12.76,12.76,0,0,0-1.66,4.09A6.89,6.89,0,0,0,119,336a3.53,3.53,0,0,0,2.57,2,6.44,6.44,0,0,0,2,.29l-.62,2.36a8.11,8.11,0,0,1-2.59-.31A6.06,6.06,0,0,1,116.35,337.2Z"/><path class="cls-2" d="M136.45,343.8a9.89,9.89,0,0,1-2.23-1l.44-2.64a12.23,12.23,0,0,0,2.24,1.07,13.69,13.69,0,0,0,2.36.64,8.62,8.62,0,0,0,3.08.13,1.49,1.49,0,0,0,1.16-1.35,1.79,1.79,0,0,0-.16-1.17,2.61,2.61,0,0,0-.84-.85c-.38-.24-1-.57-1.77-1l-1.07-.57a11.58,11.58,0,0,1-3.24-2.39,3.38,3.38,0,0,1-.71-2.94,3.93,3.93,0,0,1,2.15-3,8,8,0,0,1,4.9-.37,16.87,16.87,0,0,1,2.54.64,14,14,0,0,1,2.12.87L147,332.5a11.3,11.3,0,0,0-2-.91,13.37,13.37,0,0,0-2.18-.58,7.71,7.71,0,0,0-2.84-.08,1.45,1.45,0,0,0-1.19,1.27,1.48,1.48,0,0,0,.22,1.08,3,3,0,0,0,1,.86c.41.26,1,.63,1.93,1.09l.79.41a10.45,10.45,0,0,1,3.28,2.45,3.77,3.77,0,0,1,.61,3.1,3.71,3.71,0,0,1-2.25,3,8.78,8.78,0,0,1-4.88.29A23.3,23.3,0,0,1,136.45,343.8Z"/><path class="cls-2" d="M151.33,330.06l2.9.23,0,1.74a8.44,8.44,0,0,1,5.79-1.56,5.09,5.09,0,0,1,3.77,1.81,5.9,5.9,0,0,1,1.07,4.3L164.05,347l-3.16-.25.83-10.29a3.35,3.35,0,0,0-.6-2.54,3.53,3.53,0,0,0-2.42-1,5.79,5.79,0,0,0-2.44.34,6.45,6.45,0,0,0-2.08,1.22l-.94,11.63-3.19-.26Z"/><path class="cls-2" d="M179.94,337.05a3.57,3.57,0,0,0-1-2.82,5,5,0,0,0-3.25-.75,8.9,8.9,0,0,0-2.71.46,5.53,5.53,0,0,0-2,1.12v.53l3.37.8,0,2.11a2.82,2.82,0,0,0-1.6,1,3.32,3.32,0,0,0-.43,1.95l0,1.91a1.37,1.37,0,0,0,.31,1,1.26,1.26,0,0,0,.95.28l1.62,0,0,2.53-3.17.06a2.73,2.73,0,0,1-2.1-.79,3,3,0,0,1-.8-2.13l-.06-2.76q0-2.94,2.26-3.69l-3.19-.73-.06-3.3a10.78,10.78,0,0,1,3.24-2,11.75,11.75,0,0,1,4.32-.85,8.47,8.47,0,0,1,5.47,1.4q1.84,1.47,1.91,4.79l.26,14.55-3.2.06Z"/><path class="cls-2" d="M190.07,345a6,6,0,0,1-2.45-4.58l-1.17-9.62,3.15-.39,1.18,9.75a3.67,3.67,0,0,0,1.37,2.72,4.45,4.45,0,0,0,3.15.55,4.31,4.31,0,0,0,2.9-1.29,3.65,3.65,0,0,0,.66-3l-.25-2.07-3.76.45-.29-2.42,3.76-.46-.64-5.25,3.18-.39.64,5.26,1.72-.21.06,2.45-1.49.18.24,1.95a6,6,0,0,1-1.3,5,9.65,9.65,0,0,1-10.66,1.3Z"/><path class="cls-2" d="M211.91,346.39a11.62,11.62,0,0,1,4.63-2.15,10.86,10.86,0,0,1,2.26-.29,5.79,5.79,0,0,1,1.86.22l-2.9-12.64a3.66,3.66,0,0,0-1.51-2.54,4.57,4.57,0,0,0-3.2-.11,8.63,8.63,0,0,0-2.58,1,5.2,5.2,0,0,0-1.7,1.5l.12.52,3.55.06.47,2.07a2.43,2.43,0,0,0-1.21,1.22,3.93,3.93,0,0,0,.08,2l.47,2.06c.53,2.33-.33,3.76-2.58,4.27l-1.92.44-.56-2.46,1.06-.24a1.14,1.14,0,0,0,.78-.47,1.45,1.45,0,0,0,0-1l-.44-1.92a5.26,5.26,0,0,1-.09-2.34,2.83,2.83,0,0,1,1.31-1.68l-3.33-.05-.74-3.21a11.07,11.07,0,0,1,2.74-2.6,11.79,11.79,0,0,1,4.05-1.73,8,8,0,0,1,5.5.31,6,6,0,0,1,2.82,4.27l3.47,15.16-3.09.71a9,9,0,0,0-4.46,0,11.39,11.39,0,0,0-2.31.82,10.13,10.13,0,0,0-2,1.26Z"/><path class="cls-2" d="M206.42,323.77l9.1-2.58-.67-2.35,2.55-.72,1.28,4.5L206.89,326Z"/><path class="cls-2" d="M226.28,336.3l-2-6.49a5,5,0,0,1-.19-2.65,10.79,10.79,0,0,1,1-2.51,11.39,11.39,0,0,0,.56-1.3,1.42,1.42,0,0,0,0-.91,1.28,1.28,0,0,0-.76-.95,2.73,2.73,0,0,0-1.51.15,6.66,6.66,0,0,0-2.81,1.78l-.69-2.24a6.74,6.74,0,0,1,1.69-1.37,10,10,0,0,1,2.09-.94,4.7,4.7,0,0,1,3.22-.07,3.11,3.11,0,0,1,1.74,2.08,3.42,3.42,0,0,1,.1,1.78,9.28,9.28,0,0,1-.73,1.95,14.26,14.26,0,0,0-.78,2.26,4,4,0,0,0,.15,2.09l1.74,5.64a1.62,1.62,0,0,0,.55.94,1.51,1.51,0,0,0,1.08-.05l1.29-.4.75,2.41-2.61.81C228.17,338.92,226.89,338.25,226.28,336.3Z"/><path class="cls-2" d="M230.93,321.48l3-1.15,1.8,4.67,4.28-1.65a3.24,3.24,0,0,0,1.95-1.51,3.08,3.08,0,0,0-.16-2.33l-.73-1.92,3-1.14.71,1.83q1.2,3.14-.72,4.78a2.87,2.87,0,0,1,2.14.69,5.39,5.39,0,0,1,1.33,2.1l2.1,5.46-3,1.14-2-5.1a3.25,3.25,0,0,0-1.45-2,3.39,3.39,0,0,0-2.45.27l-4.16,1.6,3,7.88-3,1.15Z"/><path class="cls-2" d="M259.05,326.69a8.25,8.25,0,0,1-2.9-.28l.6,1.64-2.61,1.28-7-14.27,2.88-1.41,5.13,10.52a6.41,6.41,0,0,0,2.37.38A5.69,5.69,0,0,0,260,324a2.87,2.87,0,0,0,1.49-4.46L257,310.29l2.85-1.39,4.56,9.35a6,6,0,0,1,.58,4.45,5.17,5.17,0,0,1-2.92,3.1A8.61,8.61,0,0,1,259.05,326.69Z"/><path class="cls-2" d="M253.4,304l2.82-1.52,2.29,4.24-2.82,1.52Z"/><polygon class="cls-3" points="35.59 160.88 36.35 93.56 61.19 77.19 84.42 94.2 83.67 161.42 35.59 160.88"/><polygon class="cls-3" points="67.51 161.24 67.83 132.27 92.67 115.91 115.91 132.92 115.37 180.68 67.51 161.24"/><rect class="cls-1" x="85.1" y="130.16" width="13.44" height="13.44" transform="translate(1.55 -1.02) rotate(0.64)"/><rect class="cls-1" x="53.61" y="91.44" width="13.44" height="13.44" transform="translate(1.11 -0.67) rotate(0.64)"/><path class="cls-3" d="M63.28,142.53,90.82,123l3.89-2.76H91.16l26.48,20.13,3.72,2.83c1.51,1.15,3.94.23,4.81-1.27,1.06-1.8.26-3.66-1.26-4.81L98.43,117l-3.72-2.82a3.39,3.39,0,0,0-3.55,0L63.61,133.7l-3.88,2.75a3.62,3.62,0,0,0-1.27,4.82,3.55,3.55,0,0,0,4.82,1.26Z"/><path class="cls-3" d="M31.29,103.82,58.84,84.31l3.89-2.75H59.17l26.49,20.12,3.72,2.83c1.51,1.15,3.93.24,4.81-1.26,1.06-1.81.26-3.66-1.26-4.82L66.45,78.31l-3.72-2.83a3.4,3.4,0,0,0-3.56,0L31.63,95l-3.89,2.76a3.61,3.61,0,0,0-1.26,4.81c.9,1.53,3.26,2.37,4.81,1.27Z"/><path class="cls-4" d="M140.33,311.5A151.28,151.28,0,0,0,303.09,90.91C211.65,124.21,145.34,209.79,140.33,311.5Z"/><path class="cls-5" d="M244,196.69s-23.61-18.26-23.79-56.5"/><path class="cls-1" d="M223.49,211.86c4.3-4.85,8.59-10,12.73-15.07s8.24-10.34,12.24-15.61q12-15.83,22.88-32.45t20.18-34.23a303.18,303.18,0,0,0,16.05-36.43,304.29,304.29,0,0,1-14,37.43q-8.4,18.16-18.34,35.62t-21.2,34q-5.59,8.33-11.46,16.48c-3.92,5.46-7.9,10.79-12.12,16.14Z"/><path class="cls-6" d="M170.24,203.73A246.84,246.84,0,0,1,19.43,152.57c-.25,3.52-.42,7.07-.42,10.67a151.24,151.24,0,0,0,302.47,0c0-3.6-.17-7.15-.42-10.67A246.85,246.85,0,0,1,170.24,203.73Z"/><path class="cls-7" d="M21,138.81A151.2,151.2,0,0,0,170.22,314.46a150.72,150.72,0,0,0,65.09-14.66C202.27,210.83,119.62,146,21,138.81Z"/><path class="cls-1" d="M50.12,167.46a37.77,37.77,0,0,1,3.66,3.2c1.15,1.12,2.23,2.29,3.27,3.48s2,2.41,3,3.66,1.88,2.52,2.77,3.81l-4.08,0c.86-1.29,1.74-2.57,2.67-3.81s1.89-2.48,2.9-3.67,2.06-2.36,3.17-3.49a36.78,36.78,0,0,1,3.57-3.22A36.9,36.9,0,0,1,69.5,172c-.6,1.47-1.26,2.89-2,4.29s-1.45,2.76-2.23,4.1-1.61,2.66-2.45,4l-2,3.09-2.08-3c-.88-1.3-1.75-2.61-2.57-4s-1.6-2.71-2.34-4.11-1.43-2.83-2.07-4.3A37,37,0,0,1,50.12,167.46Z"/><path class="cls-1" d="M60.49,163.09a16.29,16.29,0,0,1,2,4.95,24,24,0,0,1,.61,5,23.46,23.46,0,0,1-.45,5,15.9,15.9,0,0,1-1.86,5,15.89,15.89,0,0,1-2-4.95,22.83,22.83,0,0,1-.61-5,23.48,23.48,0,0,1,.46-5A15.78,15.78,0,0,1,60.49,163.09Z"/><path class="cls-1" d="M102.31,191.75A35.5,35.5,0,0,1,106,195c1.15,1.12,2.23,2.28,3.27,3.47s2,2.42,3,3.66,1.88,2.53,2.78,3.82l-4.08,0c.86-1.29,1.74-2.57,2.67-3.82s1.89-2.47,2.9-3.66,2.06-2.36,3.17-3.49a36.78,36.78,0,0,1,3.57-3.22,36.9,36.9,0,0,1-1.56,4.55c-.6,1.46-1.26,2.88-2,4.28s-1.45,2.77-2.23,4.11-1.61,2.66-2.45,4l-2,3.09L111,208.69c-.88-1.3-1.75-2.62-2.57-4s-1.6-2.71-2.34-4.11-1.43-2.83-2.07-4.3A37.61,37.61,0,0,1,102.31,191.75Z"/><path class="cls-1" d="M112.69,187.38a15.91,15.91,0,0,1,2,5,23.41,23.41,0,0,1,.17,9.95,15.72,15.72,0,0,1-1.86,5,15.7,15.7,0,0,1-2-4.95,22.75,22.75,0,0,1-.61-5,24,24,0,0,1,.45-5A16,16,0,0,1,112.69,187.38Z"/><path class="cls-1" d="M68.5,223.51a39.13,39.13,0,0,1,3.67,3.2c1.14,1.12,2.22,2.29,3.27,3.48s2,2.41,3,3.66,1.88,2.52,2.77,3.81l-4.08,0c.86-1.29,1.74-2.57,2.67-3.82s1.89-2.47,2.9-3.66,2.06-2.36,3.17-3.49a36.78,36.78,0,0,1,3.57-3.22,36.9,36.9,0,0,1-1.56,4.55c-.6,1.46-1.26,2.89-2,4.29s-1.45,2.76-2.23,4.1-1.6,2.66-2.45,4l-2,3.09-2.08-3.05c-.88-1.3-1.74-2.61-2.56-4s-1.61-2.71-2.34-4.11-1.44-2.83-2.08-4.3A37,37,0,0,1,68.5,223.51Z"/><path class="cls-1" d="M78.87,219.14a15.94,15.94,0,0,1,2,5,23.38,23.38,0,0,1,.61,5,22.83,22.83,0,0,1-.45,5,15.76,15.76,0,0,1-1.86,5,15.75,15.75,0,0,1-2-4.94,23.45,23.45,0,0,1-.15-10A16,16,0,0,1,78.87,219.14Z"/><path class="cls-1" d="M110.5,263.45a39.13,39.13,0,0,1,3.67,3.2c1.14,1.12,2.22,2.29,3.27,3.48s2,2.41,3,3.66,1.88,2.52,2.77,3.81l-4.08,0c.86-1.29,1.75-2.57,2.67-3.81s1.89-2.48,2.9-3.67,2.06-2.36,3.17-3.49a36.78,36.78,0,0,1,3.57-3.22,36.9,36.9,0,0,1-1.56,4.55c-.59,1.47-1.26,2.89-1.95,4.29s-1.45,2.76-2.23,4.1-1.61,2.66-2.46,4l-2,3.09-2.07-3.05c-.89-1.3-1.75-2.61-2.57-4s-1.61-2.71-2.34-4.11-1.44-2.83-2.08-4.3A38.66,38.66,0,0,1,110.5,263.45Z"/><path class="cls-1" d="M120.87,259.08a16,16,0,0,1,2,4.95,23.38,23.38,0,0,1,.61,5,22.83,22.83,0,0,1-.45,5,15.87,15.87,0,0,1-1.85,5,15.93,15.93,0,0,1-2-4.95,23.88,23.88,0,0,1-.15-10A16,16,0,0,1,120.87,259.08Z"/><path class="cls-1" d="M149.3,225.42a39.31,39.31,0,0,1,3.67,3.2c1.14,1.12,2.23,2.29,3.27,3.48s2,2.41,3,3.66,1.88,2.52,2.78,3.81l-4.09,0c.86-1.29,1.75-2.57,2.68-3.81s1.88-2.48,2.89-3.67,2.06-2.36,3.18-3.48a39.39,39.39,0,0,1,3.56-3.23,36.87,36.87,0,0,1-1.55,4.55c-.6,1.47-1.27,2.89-2,4.29s-1.45,2.76-2.23,4.1-1.61,2.66-2.46,4l-2,3.09-2.07-3c-.89-1.3-1.75-2.61-2.57-4s-1.61-2.71-2.34-4.11-1.44-2.83-2.08-4.3A38.66,38.66,0,0,1,149.3,225.42Z"/><path class="cls-1" d="M159.67,221.05a16,16,0,0,1,2,4.95,23.38,23.38,0,0,1,.61,5,22.83,22.83,0,0,1-.45,5,15.87,15.87,0,0,1-1.85,5,15.93,15.93,0,0,1-2-4.95,22.81,22.81,0,0,1-.6-5,23.46,23.46,0,0,1,.45-5A16.11,16.11,0,0,1,159.67,221.05Z"/><path class="cls-1" d="M183.26,271.86a36.74,36.74,0,0,1,3.67,3.2c1.15,1.12,2.23,2.28,3.27,3.47s2,2.42,3,3.66,1.88,2.53,2.78,3.82l-4.08,0c.86-1.29,1.74-2.57,2.67-3.82s1.89-2.47,2.9-3.66,2.06-2.36,3.17-3.49a36.78,36.78,0,0,1,3.57-3.22,36.9,36.9,0,0,1-1.56,4.55c-.6,1.46-1.26,2.89-2,4.28s-1.45,2.77-2.23,4.11-1.61,2.66-2.45,4l-2,3.09-2.08-3.05c-.88-1.3-1.75-2.61-2.57-4s-1.6-2.71-2.34-4.11-1.44-2.83-2.07-4.3A37,37,0,0,1,183.26,271.86Z"/><path class="cls-1" d="M193.64,267.49a15.91,15.91,0,0,1,2,4.95,23.41,23.41,0,0,1,.17,9.95,15.72,15.72,0,0,1-1.86,5,16,16,0,0,1-2-4.94,23.53,23.53,0,0,1-.6-5,24,24,0,0,1,.45-5A16,16,0,0,1,193.64,267.49Z"/><path class="cls-3" d="M70.19,45.59c.25-9.35,5.18-12.87,12.67-12.66C86.2,33,89.46,34,91,36l.11-4.09c.12-4.14-2-6.43-7.13-6.57a13.19,13.19,0,0,0-9.38,3.15l-3.27-4.74c3.67-2.87,8.47-4.16,13.8-4a18.73,18.73,0,0,1,7.33,1.5,6.51,6.51,0,0,0,1.94-3.16l6.59,1.6a9.32,9.32,0,0,1-3.38,5.67,10.39,10.39,0,0,1,1.86,6.8l-.59,21.67-8.11-.23C91,42.69,89,38.73,83,38.57c-3-.09-4.91.79-5.24,3.57,4.59-.24,6.58,1.85,6.46,6.12-.11,4-1.77,6-7.22,5.88S70,51.16,70.19,45.59ZM79.78,48c0-1.74-.49-2.31-2.41-2.36s-2.49.49-2.54,2.22.55,2.5,2.41,2.55S79.73,49.82,79.78,48Z"/><path class="cls-3" d="M90.58,68.08C86.74,68,84.75,66,84.85,62.16s1.6-6.15,7-6,6.75,2.48,6.62,7.25l-.28,10.09-7.74-.21ZM94,62.47c0-1.86-.49-2.43-2.41-2.48s-2.49.49-2.54,2.34.49,2.31,2.41,2.36S93.9,64.2,94,62.47Z"/><path class="cls-7" d="M105,43.07l.07-2.54a11.08,11.08,0,0,1,3.81-8.07c-3.71-.35-4.89-2.18-4.79-6.14s1.72-6,7.16-5.87,7,1.8,6.89,6.44L118,29.06c-.11,4.14-4.47,4.95-4.63,10.71l-.1,3.9c-.1,3.47.46,5.84,5.35,6s5.57-2.2,5.66-5.67l.61-22.22,8.36.23-.59,21.48c-.19,6.93-3.61,12.1-14.2,11.81C107.47,55,104.78,49.2,105,43.07Zm8.5-16.31c0-1.85-.49-2.43-2.41-2.48s-2.55.49-2.61,2.35.56,2.3,2.48,2.36S113.4,28.5,113.45,26.76Z"/><path class="cls-4" d="M144.67,37.86c-3.42.61-6-.75-6.74-4.65s.43-6.36,5.86-7.33,7.39.88,8.25,5.7l2.55,14.32L157,34.15l3.18-.57,6.52,10.16-3.63-20.36,8.23-1.47,5.75,32.25-8.41,1.5-8.35-12.6L157,57.75l-8.47,1.51Zm2.47-6.23c-.32-1.83-1-2.28-2.86-1.94s-2.34,1-2,2.81,1,2.16,2.84,1.82S147.45,33.34,147.14,31.63Z"/><path class="cls-6" d="M180.11,43.31l-.65-3.66c-.86-4.82.41-7.24,5.77-8.2s7.32.83,8,4.86-1.69,5.71-5.1,6.32l.15.85c.44,2.5,2.44,3.46,6.46,2.75s5.9-2.56,5.43-5.18L198,28.43c-.76-4.27-3.55-5.85-8.92-4.89a13.93,13.93,0,0,0-8.51,4.85l-4.14-3.86a21.59,21.59,0,0,1,12.76-6.73c11-2,15.76,2,17,9.1l2.19,12.25c.76,4.27-1.38,10.63-12.6,12.63C184.37,53.81,181.13,49,180.11,43.31ZM189,37.14c-.33-1.83-1-2.28-2.86-1.94s-2.34,1-2,2.81,1,2.16,2.84,1.82S189.25,38.85,189,37.14Z"/><path class="cls-4" d="M112.1,101.53c-3.41.65-6.11-.67-6.85-4.56s.37-6.37,5.79-7.4,7.46.8,8.36,5.6l1.42,7.49,3.38-9.78c1.51-4.38,3.32-6.42,7-7.13,3.95-.74,6.45,1.49,7.17,5.27l5.05,26.71-8.22,1.55-4.37-23.12c-.12-.67-.29-.89-.78-.8s-.72.51-1.12,1.72l-6,17.14,1.35,7.12-8.21,1.55Zm2.35-6.24c-.35-1.82-1-2.27-2.88-1.91s-2.33,1-2,2.83,1,2.15,2.86,1.79S114.77,97,114.45,95.29Z"/><path class="cls-6" d="M119.34,73.13c2.92-.55,6.3-.37,8.41.8l-.84-4.44L134,68.15l2.6,13.75L107,87.5C106.2,79.65,111.55,74.6,119.34,73.13Zm8.91,6.13c-1.44-1.93-4.65-2.27-8.06-1.63s-6,2.09-6.24,4.33Z"/><path class="cls-7" d="M124.93,59l7.12-1.35L133.61,66l-7.12,1.34Z"/><path class="cls-3" d="M154.59,90c-4-.45-6.52-2.84-6-7.43s2.6-7,9-6.26,8,3.44,7.34,9.11L163,102.3,169.64,90l3.74.42,3.93,13.53,2.7-24L189.7,81l-4.27,38-9.91-1.11L170.36,101l-8.63,15.32-10-1.12Zm4.83-6.14c.25-2.16-.33-2.88-2.55-3.13s-3,.33-3.19,2.48.35,2.73,2.57,3S159.2,85.88,159.42,83.87Z"/><path class="cls-4" d="M181.76,63.77l9.69,1.09L190.12,76.7l-9.69-1.09Z"/><path class="cls-7" d="M192.43,107.87l.49-4.31c.63-5.67,2.86-8,9.17-7.26s7.92,3.36,7.38,8.1-3.78,5.83-7.8,5.38l-.11,1c-.33,3,1.58,4.69,6.32,5.22s7.44-.91,7.79-4l1.67-14.86c.57-5-2-7.73-8.36-8.44a16.22,16.22,0,0,0-11.12,2.61l-3.36-5.69c4.46-2.84,10.19-4,16.51-3.3,12.92,1.45,17,7.43,16,15.83l-1.62,14.44c-.56,5-5.07,11.42-18.28,9.94C193.72,121,191.67,114.62,192.43,107.87Zm11.94-4c.24-2.15-.33-2.87-2.56-3.12s-2.95.32-3.19,2.48c-.22,2,.35,2.72,2.58,3S204.14,105.91,204.37,103.9Z"/><path class="cls-6" d="M233.63,98.23l-4.78-16.15c-1.77-6,4.68-11.26,3.24-16.13-.64-2.14-2-2.83-4.5-2.09s-3.39,2.29-2.74,4.49l.6,2-8,2.37-.61-2.08c-1.7-5.76,2.94-10.36,9.29-12.24,8-2.36,12.29,0,13.82,5.21,1.72,5.82-4.47,11.33-3,16.38l3.31,11.16c3.32-1,6.09.07,7.21,3.87s.27,6.38-5,7.94S235,102.93,233.63,98.23Zm9.61-2c-.49-1.66-1.18-2-3-1.49S238,96,238.49,97.64s1.22,2.15,3.06,1.61S243.77,98,243.24,96.23Z"/><path class="cls-4" d="M253.79,76c-3.33,1-6.15-.06-7.28-3.86s-.27-6.37,5-7.94,7.5,0,8.89,4.74l4.3,14.55L268,72.76a5,5,0,0,1,1.08-2c-1.93-.2-3.36-1.33-4.15-4-1.16-3.92-.41-6.4,4.88-8,5-1.5,7.2-.52,8.54,4,.79,2.67.18,4.53-1.41,5.71,1.57.31,2.63,1.48,3.28,3.68l5.08,17.16-8,2.37-4-13.66c-.19-.65-.38-.85-.74-.75s-.5.48-.77,1.33L267,94.75,260,96.84Zm1.71-6.45c-.53-1.78-1.22-2.16-3.06-1.61s-2.22,1.24-1.69,3,1.18,2,3,1.49S256,71.21,255.5,69.55ZM274,64.07c-.53-1.78-1.29-2.14-3.13-1.59s-2.21,1.23-1.69,3,1.19,2,3,1.5S274.52,65.73,274,64.07Z"/><path class="cls-3" d="M258.49,55c1.6-.48,2.58-.89,2.65-1.95-3.18,1.26-5.24.19-6.1-2.72-1-3.38.35-5.14,4.21-6.28,4-1.19,5.87-.25,6.89,3.19a6.54,6.54,0,0,1,0,4.73c3.49-1.55,4-3.77,2.8-7.81l-.32-1.06,5.94-1.76.37,1.25c1.74,5.88-.53,12-7.47,14l-7.78,2.31Zm4.14-7c-.44-1.49-1.1-1.75-2.59-1.31s-1.89,1-1.45,2.5,1,1.78,2.58,1.3S263.05,49.43,262.63,48Z"/><path class="cls-5" d="M270.52,153.58s-19.07-20-13.94-47.36"/><path class="cls-5" d="M283.84,131.72s20.72.59,34.84-9.7"/></g></g></svg>