<?xml version="1.0" encoding="utf-8"?>
<!-- Generator: Adobe Illustrator 23.0.6, SVG Export Plug-In . SVG Version: 6.00 Build 0)  -->
<svg version="1.1" id="Layer_1" xmlns="http://www.w3.org/2000/svg" xmlns:xlink="http://www.w3.org/1999/xlink" x="0px" y="0px"
	 viewBox="0 0 107.7 119.1" style="enable-background:new 0 0 107.7 119.1;" xml:space="preserve">
<style type="text/css">
	.st0{fill:#775A41;}
	.st1{fill:#D75B4D;}
	.st2{fill:#FFFFFF;}
	.st3{fill:#76A075;}
	.st4{fill:none;stroke:#FFFFFF;stroke-width:2;stroke-miterlimit:10;}
	.st5{fill:#285E85;}
	.st6{fill:#F3B744;}
</style>
<title>Asset 1</title>
<g>
	<g id="Layer_1-2">
		<path class="st0" d="M18.7,106.6l2.2-4l1,0.5l-2,3.8c-0.1,0.1-0.1,0.2-0.1,0.4c0,0.1,0.1,0.2,0.2,0.3l0.4,0.2l-0.4,0.8l-0.9-0.5
			c-0.5-0.2-0.8-0.8-0.6-1.3C18.6,106.8,18.7,106.7,18.7,106.6z"/>
		<path class="st0" d="M22.2,107.4c0.2-0.6,0.7-0.9,1.3-0.8l-0.9-0.7l0.5-1.1c0.4-0.1,0.9-0.2,1.4-0.1c0.5,0,1,0.2,1.5,0.4
			c0.6,0.2,1.2,0.7,1.5,1.3c0.2,0.6,0.2,1.3-0.1,1.8l-1.5,3.2l-1-0.5l1.5-3.2c0.2-0.3,0.2-0.7,0.1-1.1c-0.2-0.3-0.5-0.6-0.9-0.7
			c-0.3-0.1-0.6-0.2-0.9-0.3c-0.3-0.1-0.5-0.1-0.8,0l-0.1,0.2l1,0.8l-0.3,0.7c-0.2-0.1-0.5,0-0.7,0.1c-0.2,0.1-0.4,0.3-0.4,0.6
			l-0.9,1.8l-1-0.5L22.2,107.4z"/>
		<path class="st0" d="M28.2,111.9c-0.3-0.6-0.3-1.3,0-1.8l1.2-3.2l1.1,0.4l-1.2,3.3c-0.2,0.3-0.2,0.7,0,1.1
			c0.2,0.3,0.5,0.6,0.9,0.7c0.4,0.2,0.8,0.2,1.1,0.1c0.3-0.2,0.6-0.5,0.7-0.8l0.2-0.7l-1.3-0.5l0.3-0.8l1.3,0.5l0.6-1.8l1.1,0.4
			l-0.6,1.8l0.6,0.2l-0.4,0.8l-0.5-0.2l-0.2,0.7c-0.2,0.6-0.6,1.1-1.2,1.4c-0.7,0.2-1.4,0.2-2-0.1C29.2,112.9,28.6,112.4,28.2,111.9
			z"/>
		<path class="st0" d="M34.7,113.9c-0.3-0.7-0.3-1.5-0.1-2.2c0.1-0.7,0.5-1.4,1-2c0.4-0.4,1-0.6,1.5-0.4c0.2,0.1,0.4,0.2,0.6,0.3
			c0.1,0.1,0.3,0.3,0.3,0.5c0.2-0.1,0.4-0.2,0.7-0.2c0.2-0.1,0.5-0.1,0.7,0c0.4,0.1,0.7,0.3,0.9,0.6c0.2,0.4,0.2,0.8,0,1.2l-1.1,4.1
			l-1.1-0.3l1-3.9c0.1-0.2,0.1-0.4,0-0.6c0-0.1-0.2-0.2-0.4-0.3c-0.1,0-0.3,0-0.4,0c-0.1,0.1-0.3,0.2-0.3,0.3l-0.6-0.2
			c0-0.2-0.1-0.3-0.2-0.4c-0.1-0.1-0.2-0.2-0.3-0.2c-0.3-0.1-0.7,0-0.8,0.3c-0.3,0.5-0.5,0.9-0.6,1.5c-0.2,0.5-0.2,1,0,1.5
			c0.2,0.4,0.5,0.6,0.9,0.7c0.2,0.1,0.5,0.1,0.7,0.1l-0.2,0.8c-0.3,0-0.6,0-0.9-0.1C35.5,114.9,35,114.5,34.7,113.9z"/>
		<path class="st0" d="M41.8,116.3c-0.3-0.1-0.6-0.2-0.8-0.3l0.2-0.9c0.3,0.2,0.5,0.3,0.8,0.4c0.3,0.1,0.6,0.2,0.8,0.2
			c0.4,0.1,0.7,0.1,1.1,0c0.2-0.1,0.4-0.2,0.4-0.5c0-0.1,0-0.3-0.1-0.4c-0.1-0.1-0.2-0.2-0.3-0.3c-0.2-0.1-0.4-0.2-0.6-0.3l-0.4-0.2
			c-0.4-0.2-0.8-0.5-1.2-0.8c-0.2-0.3-0.3-0.6-0.3-1c0.1-0.5,0.4-0.9,0.8-1.1c0.6-0.2,1.2-0.3,1.7-0.1c0.3,0,0.6,0.1,0.9,0.2
			c0.3,0.1,0.5,0.2,0.8,0.3l-0.2,0.9c-0.2-0.1-0.5-0.2-0.7-0.3c-0.3-0.1-0.5-0.2-0.8-0.2c-0.3-0.1-0.7-0.1-1,0
			c-0.3,0.1-0.5,0.4-0.4,0.7c0,0.1,0,0.1,0.1,0.2c0.1,0.1,0.2,0.2,0.3,0.3c0.2,0.1,0.4,0.3,0.7,0.4l0.3,0.2c0.4,0.2,0.8,0.5,1.2,0.9
			c0.5,0.7,0.2,1.7-0.5,2.1c0,0-0.1,0-0.1,0.1c-0.6,0.2-1.2,0.2-1.7,0.1C42.5,116.5,42.2,116.4,41.8,116.3z"/>
		<path class="st0" d="M47.1,111.4l1,0.1v0.6c0.6-0.4,1.3-0.6,2.1-0.6c0.5,0,1,0.2,1.3,0.6c0.3,0.4,0.5,1,0.4,1.5l-0.3,3.7l-1.1-0.1
			l0.3-3.7c0.1-0.3,0-0.6-0.2-0.9c-0.2-0.2-0.5-0.4-0.9-0.3c-0.3,0-0.6,0-0.9,0.1c-0.3,0.1-0.5,0.2-0.7,0.4l-0.3,4.2l-1.1-0.1
			L47.1,111.4z"/>
		<path class="st0" d="M57.3,113.9c0-0.4-0.1-0.7-0.3-1c-0.3-0.2-0.8-0.3-1.2-0.3c-0.3,0-0.7,0.1-1,0.2c-0.3,0.1-0.5,0.2-0.7,0.4
			v0.2l1.2,0.3v0.8c-0.2,0-0.4,0.2-0.6,0.3c-0.1,0.2-0.2,0.5-0.2,0.7v0.7c0,0.1,0,0.2,0.1,0.3c0.1,0.1,0.2,0.1,0.3,0.1h0.6v0.9h-1.1
			c-0.3,0-0.5-0.1-0.8-0.3c-0.2-0.2-0.3-0.5-0.3-0.8v-1c-0.1-0.6,0.3-1.1,0.8-1.3l-1.1-0.3v-1.2c0.4-0.3,0.8-0.5,1.2-0.7
			c0.5-0.2,1-0.3,1.5-0.3c0.7-0.1,1.4,0.1,2,0.5c0.5,0.4,0.7,1.1,0.7,1.7l0.1,5.2h-1.1L57.3,113.9z"/>
		<path class="st0" d="M60.9,116.7c-0.5-0.4-0.8-1-0.9-1.6l-0.4-3.4l1.1-0.1l0.4,3.5c0,0.4,0.2,0.8,0.5,1c0.7,0.4,1.6,0.3,2.2-0.3
			c0.2-0.3,0.3-0.7,0.2-1.1L64,114l-1.3,0.2l-0.1-0.9l1.3-0.2l-0.2-1.9l1.1-0.1l0.2,1.9l0.6-0.1v0.9l-0.5,0.1l0.1,0.7
			c0.1,0.6-0.1,1.3-0.5,1.8C63.7,117.2,62.2,117.4,60.9,116.7L60.9,116.7z"/>
		<path class="st0" d="M68.7,117.2c0.5-0.4,1.1-0.6,1.7-0.8c0.3-0.1,0.5-0.1,0.8-0.1c0.2,0,0.4,0,0.7,0.1l-1-4.5
			c0-0.4-0.2-0.7-0.5-0.9c-0.4-0.1-0.8-0.1-1.1,0c-0.3,0.1-0.6,0.2-0.9,0.4c-0.2,0.1-0.4,0.3-0.6,0.5v0.2h1.3l0.2,0.7
			c-0.2,0.1-0.3,0.2-0.4,0.4c-0.1,0.2-0.1,0.5,0,0.7l0.2,0.7c0.2,0.6,0,1.2-0.6,1.4c-0.1,0-0.2,0.1-0.3,0.1l-0.7,0.2l-0.2-0.9
			l0.4-0.1c0.1,0,0.2-0.1,0.3-0.2c0-0.1,0-0.2,0-0.3l-0.2-0.7c-0.1-0.3-0.1-0.6,0-0.8c0.1-0.3,0.2-0.5,0.5-0.6h-1.2l-0.3-1.2
			c0.3-0.4,0.6-0.7,1-0.9c0.4-0.3,0.9-0.5,1.4-0.6c0.7-0.2,1.4-0.2,2,0.1c0.5,0.3,0.9,0.9,1,1.5l1.2,5.4l-1.1,0.2
			c-0.5-0.1-1.1-0.1-1.6,0c-0.3,0.1-0.6,0.2-0.8,0.3c-0.3,0.1-0.5,0.3-0.7,0.4L68.7,117.2z"/>
		<path class="st0" d="M66.8,109.2l3.2-0.9l-0.2-0.8l0.9-0.2l0.4,1.6l-4.2,1.2L66.8,109.2z"/>
		<path class="st0" d="M73.8,113.6l-0.7-2.3c-0.1-0.3-0.1-0.6-0.1-0.9c0.1-0.3,0.2-0.6,0.3-0.9c0.1-0.1,0.1-0.3,0.2-0.5
			c0-0.1,0-0.2,0-0.3c0-0.2-0.1-0.3-0.3-0.3c-0.2,0-0.4,0-0.5,0.1c-0.4,0.1-0.7,0.3-1,0.6l-0.2-0.8c0.2-0.2,0.4-0.4,0.6-0.5
			c0.2-0.1,0.5-0.3,0.7-0.3c0.4-0.1,0.8-0.1,1.2,0c0.3,0.1,0.5,0.4,0.6,0.7c0.1,0.2,0.1,0.4,0,0.6c-0.1,0.2-0.2,0.5-0.3,0.7
			c-0.1,0.3-0.2,0.5-0.3,0.8c-0.1,0.2-0.1,0.5,0,0.8l0.6,2c0.1,0.2,0.1,0.3,0.2,0.3c0.1,0,0.3,0,0.4,0l0.5-0.1l0.3,0.9l-0.9,0.3
			c-0.5,0.2-1.1-0.1-1.3-0.6C73.8,113.7,73.8,113.7,73.8,113.6z"/>
		<path class="st0" d="M75.5,108.3l1.1-0.4l0.6,1.7l1.5-0.6c0.3-0.1,0.5-0.3,0.7-0.5c0.1-0.3,0.1-0.6,0-0.8l-0.3-0.6l1.1-0.4
			l0.2,0.7c0.3,0.6,0.2,1.3-0.2,1.7c0.3,0,0.6,0.1,0.8,0.2c0.2,0.2,0.4,0.5,0.5,0.8l0.8,1.9l-1,0.4l-0.7-1.8
			c-0.1-0.3-0.3-0.5-0.5-0.7c-0.3-0.1-0.6,0-0.9,0.1l-1.5,0.6l1.1,2.8l-1.1,0.4L75.5,108.3z"/>
		<path class="st0" d="M85.5,110.2c-0.3,0-0.7,0-1-0.1l0.2,0.6l-0.9,0.5l-2.5-5.1l1-0.5l1.8,3.7c0.3,0.1,0.6,0.1,0.8,0.1
			c0.3,0,0.6-0.1,0.8-0.2c0.3-0.1,0.5-0.3,0.7-0.6c0.1-0.3,0-0.7-0.1-1l-1.6-3.3l1-0.5l1.6,3.3c0.3,0.5,0.3,1.1,0.2,1.6
			c-0.2,0.5-0.5,0.9-1,1.1C86.3,110,85.9,110.1,85.5,110.2z"/>
		<path class="st0" d="M83.5,102.1l1-0.5l0.8,1.5l-1,0.5L83.5,102.1z"/>
		<polygon class="st1" points="5.9,51.1 6.2,27.2 15,21.3 23.3,27.4 23,51.3 		"/>
		<polygon class="st1" points="17.3,51.3 17.4,41 26.2,35.1 34.5,41.2 34.3,58.2 		"/>
		
			<rect x="23.6" y="40.2" transform="matrix(1.116988e-02 -0.9999 0.9999 1.116988e-02 -16.9317 68.0624)" class="st2" width="4.8" height="4.8"/>
		
			<rect x="12.3" y="26.4" transform="matrix(1.116988e-02 -0.9999 0.9999 1.116988e-02 -14.2381 43.2173)" class="st2" width="4.8" height="4.8"/>
		<path class="st1" d="M15.7,44.5l11.2-7.9h-1.1l10.8,8.2c1.1,0.8,2.2-1,1.1-1.9l-10.8-8.2c-0.3-0.2-0.8-0.2-1.1,0l-11.2,7.9
			C13.5,43.4,14.6,45.2,15.7,44.5z"/>
		<path class="st1" d="M4.3,30.7l11.2-7.9h-1.1l10.8,8.2c1.1,0.8,2.2-1,1.1-1.9l-10.8-8.2c-0.3-0.2-0.8-0.2-1.1,0L3.2,28.8
			C2.1,29.6,3.2,31.5,4.3,30.7z"/>
		<path class="st3" d="M43.2,104.8c29.2,5.9,57.6-13,63.5-42.1c2.5-12.4,0.6-25.3-5.5-36.4C67.9,38.4,45,69.3,43.2,104.8z"/>
		<path class="st4" d="M80.2,63.9c0,0-11-11.5-8-27.3"/>
		<path class="st2" d="M72.2,68.7c3.1-3.4,6.1-7.1,9-10.8s5.7-7.5,8.3-11.4s5.1-7.9,7.4-12.1c2.3-4.2,4.2-8.5,5.9-12.9
			c-1.3,4.6-2.9,9.1-4.8,13.4c-1.9,4.4-4.1,8.6-6.4,12.8s-4.8,8.3-7.4,12.3c-2.6,4-5.3,7.9-8.2,11.8L72.2,68.7z"/>
		<path class="st5" d="M53.9,66.4c-19.4,0-38.3-6.4-53.7-18.2C0.1,49.4,0,50.7,0,52c-0.4,29.7,23.4,54.2,53.1,54.6
			s54.2-23.4,54.6-53.1c0-0.5,0-1,0-1.5c0-1.3-0.1-2.5-0.2-3.8C92.2,60,73.3,66.4,53.9,66.4z"/>
		<path class="st6" d="M0.7,44c-4.8,29.4,15.2,57.1,44.5,61.9c10.8,1.8,21.9,0.2,31.8-4.5C65,69,35.2,46.6,0.7,44z"/>
		<path class="st2" d="M11.1,53.5c0.5,0.3,1.1,0.6,1.6,1c0.5,0.3,0.9,0.7,1.4,1.1c0.8,0.8,1.5,1.6,2.2,2.6h-2.5
			c0.6-0.9,1.3-1.8,2.1-2.6c0.4-0.4,0.8-0.8,1.2-1.1c0.5-0.4,1-0.7,1.5-1c0,0.6-0.1,1.2-0.3,1.8c-0.1,0.6-0.3,1.1-0.5,1.6
			c-0.4,1.1-0.9,2.1-1.6,3l-1.2,1.8l-1.3-1.8c-0.7-0.9-1.2-1.9-1.7-3c-0.2-0.5-0.4-1.1-0.6-1.6C11.2,54.7,11.1,54.1,11.1,53.5z"/>
		<path class="st2" d="M14.8,51.9c0.5,0.5,1,1.1,1.2,1.8c0.4,1.1,0.4,2.4,0,3.5c-0.2,0.7-0.6,1.3-1.1,1.8c-0.5-0.5-0.9-1.1-1.2-1.8
			c-0.2-0.6-0.3-1.2-0.4-1.8c0-0.6,0.1-1.2,0.3-1.8C13.9,53,14.3,52.4,14.8,51.9z"/>
		<path class="st2" d="M29.7,62.1c0.5,0.3,1.1,0.6,1.6,1c0.5,0.4,0.9,0.7,1.3,1.1c0.8,0.8,1.5,1.6,2.2,2.6h-2.5
			c0.6-0.9,1.3-1.8,2.1-2.6c0.4-0.4,0.8-0.8,1.3-1.1c0.5-0.4,1-0.7,1.5-1c0,0.6-0.1,1.2-0.3,1.8c-0.1,0.6-0.3,1.1-0.5,1.6
			c-0.4,1-0.9,2.1-1.5,3l-1.2,1.9l-1.3-1.8c-0.6-0.9-1.2-1.9-1.6-3c-0.2-0.5-0.4-1.1-0.6-1.6C29.8,63.4,29.7,62.7,29.7,62.1z"/>
		<path class="st2" d="M33.4,60.6c0.5,0.5,0.9,1.1,1.2,1.8c0.4,1.1,0.5,2.4,0.1,3.6c-0.2,0.7-0.6,1.3-1.2,1.8
			c-0.5-0.5-1-1.1-1.2-1.8c-0.5-1.1-0.5-2.4,0-3.5C32.5,61.7,32.9,61.1,33.4,60.6z"/>
		<path class="st2" d="M17.6,73.4c0.6,0.3,1.1,0.6,1.6,1c0.5,0.3,0.9,0.7,1.3,1.1c0.8,0.8,1.5,1.7,2.2,2.6h-2.5
			c0.6-0.9,1.3-1.8,2.1-2.6c0.4-0.4,0.8-0.8,1.3-1.1c0.5-0.4,1-0.7,1.5-1c0,0.6-0.1,1.2-0.3,1.8c-0.1,0.6-0.3,1.1-0.5,1.6
			c-0.4,1-0.9,2.1-1.6,3l-1.2,1.9l-1.3-1.9c-0.6-0.9-1.2-1.9-1.6-2.9c-0.2-0.5-0.4-1.1-0.6-1.6C17.8,74.7,17.7,74.1,17.6,73.4z"/>
		<path class="st2" d="M21.3,71.9c0.5,0.5,0.9,1.1,1.2,1.8c0.2,0.6,0.3,1.2,0.4,1.8c0,0.6-0.1,1.2-0.3,1.8c-0.2,0.7-0.6,1.3-1.1,1.8
			c-0.5-0.5-0.9-1.1-1.2-1.8c-0.2-0.6-0.3-1.2-0.4-1.8c0-0.6,0.1-1.2,0.3-1.8C20.4,73,20.8,72.4,21.3,71.9z"/>
		<path class="st2" d="M32.6,87.7c0.6,0.3,1.1,0.6,1.6,1c0.5,0.4,0.9,0.7,1.3,1.1c0.8,0.8,1.5,1.7,2.2,2.6h-2.5
			c0.6-0.9,1.3-1.8,2.1-2.6c0.4-0.4,0.8-0.8,1.3-1.1c0.5-0.4,1-0.7,1.5-1c0,0.6-0.1,1.2-0.3,1.8c-0.1,0.6-0.3,1.1-0.5,1.6
			c-0.4,1-0.9,2.1-1.6,3l-1.2,1.8l-1.3-1.8c-0.6-0.9-1.2-1.9-1.6-3c-0.2-0.5-0.4-1.1-0.6-1.6C32.8,88.9,32.7,88.3,32.6,87.7z"/>
		<path class="st2" d="M36.3,86.1c0.5,0.5,0.9,1.1,1.2,1.8c0.2,0.6,0.3,1.2,0.3,1.8c0,0.6-0.1,1.2-0.3,1.8c-0.2,0.7-0.6,1.3-1.2,1.8
			c-0.5-0.5-0.9-1.1-1.2-1.8c-0.2-0.6-0.3-1.2-0.3-1.8c0-0.6,0.1-1.2,0.3-1.8C35.4,87.2,35.8,86.6,36.3,86.1z"/>
		<path class="st2" d="M46.4,74.1c0.6,0.3,1.1,0.6,1.6,1c0.5,0.3,0.9,0.7,1.3,1.1c0.8,0.8,1.5,1.7,2.2,2.6H49
			c0.6-0.9,1.3-1.8,2.1-2.6c0.4-0.4,0.8-0.8,1.3-1.1c0.5-0.4,1-0.7,1.5-1c0,0.6-0.1,1.2-0.3,1.8c-0.2,0.6-0.3,1.1-0.6,1.6
			c-0.4,1-0.9,2-1.6,2.9l-1.2,1.9L49,80.5c-0.6-0.9-1.2-2-1.6-3c-0.2-0.5-0.4-1.1-0.6-1.6C46.6,75.3,46.5,74.7,46.4,74.1z"/>
		<path class="st2" d="M50.1,72.6c0.5,0.5,0.9,1.1,1.2,1.8c0.2,0.6,0.3,1.2,0.3,1.8c0,0.6-0.1,1.2-0.3,1.8c-0.2,0.7-0.6,1.3-1.2,1.8
			c-0.5-0.5-1-1.1-1.2-1.8c-0.2-0.6-0.3-1.2-0.3-1.8c0-0.6,0.1-1.2,0.3-1.8C49.2,73.7,49.6,73.1,50.1,72.6z"/>
		<path class="st2" d="M58.5,90.7c0.6,0.3,1.1,0.6,1.6,1c0.5,0.3,0.9,0.7,1.3,1.1c0.8,0.8,1.5,1.7,2.2,2.6h-2.5
			c0.6-0.9,1.3-1.8,2.1-2.6c0.4-0.4,0.8-0.8,1.3-1.1c0.5-0.4,1-0.7,1.5-1c0,0.6-0.1,1.2-0.3,1.8c-0.2,0.6-0.3,1.1-0.5,1.6
			c-0.4,1-0.9,2-1.6,2.9l-1.2,1.9L61.1,97c-0.6-0.9-1.2-2-1.6-3c-0.2-0.5-0.4-1.1-0.6-1.6C58.7,91.8,58.6,91.3,58.5,90.7z"/>
		<path class="st2" d="M62.2,89.1c0.5,0.5,0.9,1.1,1.2,1.8c0.4,1.1,0.5,2.4,0.1,3.5c-0.2,0.7-0.6,1.3-1.2,1.8
			c-0.5-0.5-0.9-1.1-1.2-1.8c-0.4-1.1-0.4-2.4,0-3.6C61.3,90.2,61.7,89.6,62.2,89.1z"/>
		<path class="st1" d="M18.2,10.1c0.1-3.3,1.8-4.6,4.5-4.5c1.1-0.1,2.1,0.3,2.9,1.1V5.2c0-1.5-0.7-2.3-2.5-2.3
			c-1.2-0.1-2.4,0.3-3.3,1.1l-1.2-1.7c1.4-1,3.2-1.5,4.9-1.4c0.9,0,1.8,0.2,2.6,0.5c0.3-0.3,0.6-0.7,0.7-1.1l2.4,0.6
			c-0.1,0.8-0.6,1.5-1.2,2c0.5,0.7,0.7,1.6,0.7,2.4L28.4,13l-2.9-0.1c0.1-3.9-0.6-5.3-2.8-5.3c-1.1,0-1.8,0.3-1.9,1.3
			c1.6-0.1,2.3,0.7,2.3,2.2s-0.6,2.1-2.6,2.1S18.2,12.1,18.2,10.1z M21.6,10.9c0-0.6-0.2-0.8-0.9-0.8s-0.9,0.2-0.9,0.8
			s0.2,0.9,0.9,0.9S21.6,11.6,21.6,10.9z"/>
		<path class="st1" d="M25.5,18.1c-1,0.1-1.9-0.6-2-1.6c0-0.2,0-0.3,0-0.5c0-1.4,0.6-2.2,2.5-2.1s2.4,0.9,2.4,2.6L28.2,20l-2.8-0.1
			L25.5,18.1z M26.7,16.1c0-0.7-0.2-0.9-0.9-0.9S25,15.4,24.9,16c0,0.7,0.2,0.8,0.9,0.8S26.7,16.7,26.7,16.1z"/>
		<path class="st6" d="M30.6,9.2V8.3c0-1.1,0.5-2.2,1.4-2.9c-1.3-0.1-1.7-0.8-1.7-2.2s0.6-2.1,2.6-2.1s2.5,0.6,2.5,2.3v0.8
			c0,1.5-1.6,1.8-1.7,3.8v1.4c0,1.2,0.2,2.1,1.9,2.1s2-0.8,2-2l0.2-7.9l3,0.1l-0.3,7.6c-0.1,2.5-1.3,4.3-5.1,4.2S30.6,11.4,30.6,9.2
			z M33.6,3.4c0-0.7-0.2-0.9-0.8-0.9s-0.9,0.2-0.9,0.8s0.2,0.8,0.9,0.8S33.6,4,33.6,3.4L33.6,3.4z"/>
		<path class="st3" d="M44.8,7.3c-1,0.3-2-0.3-2.3-1.3c0-0.1-0.1-0.3-0.1-0.4c-0.2-1.4,0.2-2.3,2.1-2.6s2.6,0.3,2.9,2l0.9,5.1
			L49.2,6l1.1-0.2l2.3,3.6l-1.3-7.2l2.9-0.5l2,11.5l-3,0.5l-3-4.5l-1.2,5.2l-3,0.5L44.8,7.3z M45.6,5.1c-0.1-0.7-0.3-0.8-1-0.7
			s-0.8,0.4-0.7,1s0.3,0.8,1,0.7S45.8,5.7,45.6,5.1z"/>
		<path class="st5" d="M57.4,9.3L57.2,8c-0.3-1.7,0.1-2.6,2-2.9s2.6,0.3,2.9,1.7s-0.6,2-1.8,2.2l0,0.3c0.2,0.9,0.9,1.2,2.3,1
			c1.4-0.2,2.1-0.9,1.9-1.9L63.8,4c-0.3-1.5-1.3-2.1-3.2-1.8c-1.2,0.2-2.2,0.8-3,1.7l-1.5-1.4c1.2-1.3,2.8-2.1,4.5-2.4
			c3.9-0.7,5.6,0.7,6.1,3.2l0.8,4.4c0.3,1.5-0.5,3.8-4.5,4.5S57.8,11.3,57.4,9.3z M60.5,7.1c-0.1-0.7-0.3-0.8-1-0.7s-0.8,0.3-0.7,1
			s0.3,0.8,1,0.6S60.6,7.7,60.5,7.1z"/>
		<path class="st3" d="M33.2,30c-1,0.3-2-0.2-2.4-1.2c0-0.1-0.1-0.3-0.1-0.4c-0.3-1.4,0.1-2.3,2.1-2.6s2.7,0.3,3,2l0.5,2.7l1.2-3.5
			c0.5-1.6,1.2-2.3,2.5-2.5c1.1-0.3,2.2,0.4,2.5,1.5c0,0.1,0,0.2,0.1,0.4l1.8,9.5l-2.9,0.5l-1.6-8.2c0-0.2-0.1-0.3-0.3-0.3
			s-0.3,0.2-0.4,0.6l-2.1,6.1l0.5,2.5l-2.9,0.5L33.2,30z M34,27.8c-0.1-0.6-0.3-0.8-1-0.7s-0.8,0.4-0.7,1s0.3,0.8,1,0.6
			S34.1,28.4,34,27.8z"/>
		<path class="st5" d="M35.7,19.9c1-0.2,2.1-0.1,3,0.3l-0.3-1.6l2.6-0.5l0.9,4.9l-10.6,2C31.1,22.2,33,20.4,35.7,19.9z M38.9,22.1
			c-0.5-0.7-1.7-0.8-2.9-0.6s-2.2,0.7-2.2,1.5L38.9,22.1z"/>
		<path class="st6" d="M37.7,14.9l2.5-0.5l0.6,2.9l-2.5,0.5L37.7,14.9z"/>
		<path class="st1" d="M48.3,25.9c-1.2,0-2.2-1-2.2-2.2c0-0.2,0-0.3,0.1-0.5c0.2-1.7,0.9-2.5,3.2-2.2s2.8,1.2,2.6,3.2l-0.7,6
			l2.4-4.4L55,26l1.4,4.8l1-8.5l3.5,0.4l-1.6,13.6l-3.5-0.4l-1.8-6l-3.1,5.5l-3.5-0.4L48.3,25.9z M50,23.7c0.1-0.8-0.1-1-0.9-1.1
			s-1,0.1-1.1,0.9s0.1,1,0.9,1.1S49.9,24.4,50,23.7z"/>
		<path class="st3" d="M58,16.5l3.5,0.4L61,21.2l-3.5-0.4L58,16.5z"/>
		<path class="st6" d="M61.8,32.3l0.2-1.5c0.2-2,1-2.8,3.3-2.6s2.7,1.2,2.6,2.9s-1.3,2.1-2.8,1.9v0.4c-0.1,1,0.6,1.7,2.2,1.9
			s2.7-0.3,2.8-1.4l0.6-5.3c0.2-1.8-0.7-2.8-3-3c-1.4-0.2-2.8,0.1-4,0.9l-1.2-2c1.8-1.1,3.8-1.5,5.9-1.2c4.6,0.5,6,2.6,5.7,5.6
			l-0.6,5.1c-0.2,1.8-1.8,4.1-6.5,3.5S61.5,34.7,61.8,32.3z M66,30.9c0.1-0.8-0.1-1-0.9-1.1s-1.1,0.1-1.1,0.9s0.1,1,0.9,1.1
			S66,31.6,66,30.9z"/>
		<path class="st5" d="M76.4,28.8l-1.7-5.8c-0.6-2.1,1.7-4,1.2-5.8c-0.2-0.8-0.7-1-1.6-0.8s-1.2,0.8-1,1.6l0.2,0.7l-2.9,0.9L70.5,19
			c-0.6-2,1.1-3.7,3.3-4.4c2.8-0.8,4.4,0,4.9,1.9c0.6,2.1-1.6,4-1.1,5.8l1.2,4c1-0.4,2,0,2.5,1c0.1,0.1,0.1,0.3,0.1,0.4
			c0.4,1.4,0.1,2.3-1.8,2.8S76.9,30.5,76.4,28.8z M79.9,28.1c-0.2-0.6-0.4-0.7-1.1-0.5s-0.8,0.4-0.6,1s0.4,0.8,1.1,0.6
			S80.1,28.8,79.9,28.1z"/>
		<path class="st3" d="M83.6,20.9c-0.9,0.4-2.1,0-2.5-0.9c-0.1-0.1-0.1-0.3-0.1-0.4c-0.4-1.4-0.1-2.3,1.8-2.8s2.7,0,3.2,1.7l1.5,5.2
			l1.2-3.8c0.1-0.3,0.2-0.5,0.4-0.7c-0.7-0.1-1.2-0.5-1.5-1.4c-0.4-1.4-0.1-2.3,1.7-2.8s2.6-0.2,3,1.4c0.3,0.7,0.1,1.5-0.5,2
			c0.6,0.1,0.9,0.5,1.2,1.3l1.8,6.1L92,26.5l-1.4-4.9c-0.1-0.2-0.1-0.3-0.3-0.3s-0.2,0.2-0.3,0.5l-1.7,5.7l-2.5,0.7L83.6,20.9z
			 M84.2,18.6C84,18,83.8,17.8,83.2,18s-0.8,0.4-0.6,1.1s0.4,0.7,1.1,0.5S84.4,19.2,84.2,18.6z M90.8,16.7c-0.2-0.6-0.5-0.8-1.1-0.6
			s-0.8,0.4-0.6,1.1s0.4,0.7,1.1,0.5S91,17.2,90.8,16.7z"/>
		<path class="st1" d="M85.3,13.4c0.6-0.2,0.9-0.3,1-0.7c-1.1,0.4-1.9,0.1-2.2-1c-0.4-1.2,0.1-1.8,1.5-2.2s2.1-0.1,2.4,1.1
			c0.2,0.5,0.2,1.1,0,1.7c1.2-0.6,1.4-1.3,1-2.8L89,9.2l2-0.6L91.1,9c0.7,2-0.3,4.2-2.3,4.9c-0.1,0-0.3,0.1-0.4,0.1l-2.8,0.8
			L85.3,13.4z M86.8,10.9c-0.2-0.5-0.4-0.6-0.9-0.5s-0.7,0.4-0.5,0.9s0.3,0.6,0.9,0.5S86.9,11.4,86.8,10.9z"/>
		<path class="st4" d="M89.6,48.5c0,0-6.8-7.1-5-16.9"/>
		<path class="st4" d="M94.3,40.8c0,0,7.4,0.2,12.4-3.5"/>
	</g>
</g>
</svg>
