<?xml version="1.0" encoding="utf-8"?>
<!-- Generator: Adobe Illustrator 23.0.6, SVG Export Plug-In . SVG Version: 6.00 Build 0)  -->
<svg version="1.1" id="Layer_1" xmlns="http://www.w3.org/2000/svg" xmlns:xlink="http://www.w3.org/1999/xlink" x="0px" y="0px"
	 viewBox="0 0 750 1334" style="enable-background:new 0 0 750 1334;" xml:space="preserve">
<style type="text/css">
	.st0{clip-path:url(#SVGID_2_);fill:#FFF8DD;}
	.st1{clip-path:url(#SVGID_2_);fill:#E9EDDF;}
	.st2{clip-path:url(#SVGID_2_);}
	.st3{clip-path:url(#SVGID_4_);}
	.st4{clip-path:url(#SVGID_6_);fill:#BBD38D;}
	.st5{clip-path:url(#SVGID_6_);fill:#DDDA91;}
	.st6{clip-path:url(#SVGID_6_);fill:#98C29C;}
	.st7{fill:#B5BE6D;}
	.st8{fill:#DDD990;}
	.st9{fill:#537D41;}
	.st10{fill:#658369;}
	.st11{fill:#547D41;}
	.st12{fill:#77A275;}
	.st13{fill:none;}
</style>
<g>
	<defs>
		<rect id="SVGID_1_" width="750" height="1334"/>
	</defs>
	<clipPath id="SVGID_2_">
		<use xlink:href="#SVGID_1_"  style="overflow:visible;"/>
	</clipPath>
	<rect class="st0" width="750" height="1334"/>
	<path class="st1" d="M-169.7-206.7c94,123.6,343.1,113.7,513,118.4c33.8,0.9,72.4,0.8,94.8,22.8c23.5,23.2,16.6,59.6,0.7,87.3
		c-31.2,54.2-89.7,92.8-151.6,120.4S158.6,188,95.5,213.5S-28.7,273.1-66.9,323.7c-19.8,26.2-33,57.3-30.8,88.6"/>
	<path class="st1" d="M748.4,416.9c5.1,70.9-27.8,141.6-80.7,195.6s-124.5,92.4-200.3,118.2c-36.8,12.6-74.9,22.4-110.6,37.3
		s-69.4,35.6-90.4,64.8c-21,29.2-27.2,68.1-8.4,98.4c12.6,20.4,34.8,35.1,58.4,45.8c55.5,25.2,119.5,31,180.6,42.7
		c101.9,19.6,199.3,56.8,284.9,108.8c31.3,19,62.7,42.1,73.5,74.1"/>
	<g class="st2">
		<defs>
			<rect id="SVGID_3_" x="-3" y="1157.5" width="756" height="176.5"/>
		</defs>
		<clipPath id="SVGID_4_">
			<use xlink:href="#SVGID_3_"  style="overflow:visible;"/>
		</clipPath>
		<g class="st3">
			<g>
				<defs>
					<rect id="SVGID_5_" x="-4.2" y="1152.8" width="755.4" height="156.9"/>
				</defs>
				<clipPath id="SVGID_6_">
					<use xlink:href="#SVGID_5_"  style="overflow:visible;"/>
				</clipPath>
				<path class="st4" d="M777.5,1206.8c8,18.1,15.5,40.9,2.8,56.1c-7.1,8.5-18.4,11.7-29.1,14.5c-63.3,16.7-127.7,33.6-193.2,32.2
					c-20.2-0.4-41.5-3-58-14.6c-12.9-9.1-26.8-31-19.8-47.4c7.5-17.5,37.9-16,53.5-18.2c51.9-7.6,104-13.4,156.3-17.5
					C698.8,1211.2,775.2,1201.6,777.5,1206.8z"/>
				<path class="st5" d="M360.3,1262.9c-32-31.3-76.7-46.2-120.9-53s-89.3-6.7-133.6-13c-44.9-6.5-88.8-19.7-129.8-39.1
					c-8.9-4.2-10,7.7-12,17.3c-6.1,29.3,5.3,61.6,28.4,80.7c21.1,17.5,49.7,23.4,77.1,23.8c27.4,0.4,54.7-4.2,82.1-5.1
					c58.4-1.9,116.2,12.9,174.7,14.1c9.5,0.2,19.5-0.1,27.6-5S367.1,1269.5,360.3,1262.9z"/>
				<path class="st6" d="M622.9,1255.3c-90-41.3-192.3-67.4-287.9-41.5c-43.1,11.6-84.4,33.7-129,33.7c-7.2,0-11.5,5.6-11.6,12.8
					c-0.1,7.2,4.6,13.6,10.1,18.3c17.5,15.2,42.3,18.3,65.4,19.8C389,1306.3,509.3,1291.8,622.9,1255.3z"/>
			</g>
			<path class="st7" d="M467.6,1253.9c1.3,1,0.8-2.2-0.8-2.6c-4.8-1.3-9.9-2-14.9-1.9c-2.6,0-5.6,0-8.1,0.7
				c-1.7,0.5-4.3,2.5-5.9,2.3c-1.3-0.2-2.5-1-3.8-1.3c-3.2-0.9-7.1,1-9.9-0.9c-2.5-1.7-2.5,1.5-4.7,1.5c-2.3,0-3.7-1.4-5.9-1.7
				c-6.9-1-21-0.7-27.2,2.8c-0.9,0.5-1.7,1.1-2.7,1c-1.2-0.1-2.3-1.3-3.5-1.1c-1,0.1-1.7,1.1-2.7,1c-1.6-0.2-1.9-3-3.6-3
				c-0.9,0-1.5,1-2.4,1.2c-1.1,0.2-2-0.8-2.9-1.5c-4.8-4.2-15.9,0-22.1-0.5c-5.2-0.4-15.4,1.8-20.1-1.3c-0.7-0.5-1.6-0.4-2.2,0
				c-0.8,0.6-1.8,0.8-2.8,0.2c-0.6-0.4-1.1-1.2-1.8-1.5c-1.6-0.7-3.1,1.2-3.8,2.8c-0.9-0.9-1.8-1.8-2.8-2.6c-0.4-0.4-1-0.9-1.7-0.4
				c-0.4,0.2-0.6,0.6-0.8,1c-1.2,3.7-5.6,1.2-8.6,2.1c-0.5,0.2-1,0.4-1.5,0.5c-0.8,0.1-1.7-0.3-2.4-0.7c-1.6-0.8-3.2-1.6-4.8-2.4
				c-0.8-0.4-1.7-0.8-2.6-0.6c-0.7,0.2-1.3,0.7-1.9,1.1c-0.9,0.5-2,0.5-2.9,0.2c-0.4-0.2-0.9,0-1.1,0.4c-0.6,1-2.3,1.4-3.6,1.4
				c-3.5,0.2-15.2,1-17.8-2.1c-0.8-0.9-2-1.3-3.2-1.1c-6.5,1.4-11.4-0.1-17.7,0.5c-4.5,0.4-9,1.5-13.6,1.5c-3.4,0-6.8-0.7-10.2-0.9
				c-3.8-0.3-7.6,0-11.3,0.8c-2.7,2.6-7.7,2-9.8-1.1c-4.1,0.8-8.4,0.9-12.6,0.4l-2.1,2.5c-0.5-1.3-2.2-1.4-3.5-1.4
				c-3.4,0.1-9.7,1.7-11.4-1.9c1.5,3.3-14.3,0.7-15.1,0.4c-3.4-1-8.1-4.6-11.3-1.8c-1-1.3-2.4-2.3-4-2.6c-0.7,2.3-3.7,2.8-6.1,2.5
				s-5-1-7,0.2c0-1.5-2.1-1.9-3.5-1.7c-0.8,0.1-1.7,0.3-2.5,0.3c-2,0.1-5.3,0.2-7.3,0.2l-1.9,0.3c-3.3,0.6-6.6,1.2-9.9,1.1
				c-2.4-0.1-4.9-0.5-7.3,0.2c-1.2,0.4-2.3,1-3.6,1c-1.2,0-2.4-0.6-3.6-0.7c-1.2-0.1-2.7,0.7-2.6,1.9c-1.3-1.5-3.3-3.1-5.1-2.2
				c-0.6,0.3-1.1,0.9-1.7,1.1c-1.6,0.7-3.3-0.9-4.3-2.3c2,2.7-14.5,1.8-14.6,1.7c-7.2-0.7-14.5-1.6-21.7-2
				c-13.1-0.7-26.5-1.3-39.4,1.3c-11.5,2.3-22.7,7.6-30.4,16.3c-1.5,1.7-0.9,4.4,1.2,5.2c8.7,3.4,18.4,3.8,27.8,4.1
				c28.2,0.9,56.5,1.7,84.7,2.6c84.7,2.6,169.4,5.2,254.1,7.7c9.7,0.3,19.4,0.6,28.9-0.7c10-1.4,19.7-4.5,29.7-5.6
				c12.7-1.4,25.5,0.5,38.3,0.3c12.8-0.2,26.3-3.1,35.3-12.2C466.5,1262.2,469,1252.1,467.6,1253.9z"/>
			<path class="st7" d="M234.8,1315.9c1.3,1-6.2-4.5-7.8-4.9c-4.8-1.3-9.9-2-14.9-1.9c-2.6,0-5.6,0-8.1,0.7
				c-1.7,0.5-4.3,2.5-5.9,2.3c-1.3-0.2-2.5-1-3.8-1.3c-3.2-0.9-7.1,1-9.9-0.9c-2.5-1.7-2.5,1.5-4.7,1.5c-2.3,0-3.7-1.4-5.9-1.7
				c-6.9-1-21-0.7-27.2,2.8c-0.9,0.5-1.7,1.1-2.7,1c-1.2-0.1-2.3-1.3-3.5-1.1c-1,0.1-1.7,1.1-2.7,1c-1.6-0.2-1.9-3-3.6-3
				c-0.9,0-1.5,1-2.4,1.2c-1.1,0.2-2-0.8-2.9-1.5c-4.8-4.2-15.9,0-22.1-0.5c-5.2-0.4-15.4,1.8-20.1-1.3c-0.7-0.5-1.6-0.4-2.2,0
				c-0.8,0.6-1.8,0.8-2.8,0.2c-0.6-0.4-1.1-1.2-1.8-1.5c-1.6-0.7-3.1,1.2-3.8,2.8c-0.9-0.9-1.8-1.8-2.8-2.6c-0.4-0.4-1-0.9-1.7-0.4
				c-0.4,0.2-0.6,0.6-0.8,1c-1.2,3.7-5.6,1.2-8.6,2.1c-0.5,0.2-1,0.4-1.5,0.5c-0.8,0.1-1.7-0.3-2.4-0.7c-1.6-0.8-3.2-1.6-4.8-2.4
				c-0.8-0.4-1.7-0.8-2.6-0.6c-0.7,0.2-1.3,0.7-1.9,1.1c-0.9,0.5-2,0.5-2.9,0.2c-0.4-0.2-0.9,0-1.1,0.4c-0.6,1-2.3,1.4-3.6,1.4
				c-3.5,0.2-15.2,1-17.8-2.1c-0.8-0.9-2-1.3-3.2-1.1c-6.5,1.4-11.4-0.1-17.7,0.5c-4.5,0.4-9,1.5-13.6,1.5c-3.4,0-6.8-0.7-10.2-0.9
				c-3.8-0.3-7.6,0-11.3,0.8c-2.7,2.6-7.7,2-9.8-1.1c-4.1,0.8-8.4,0.9-12.6,0.4l-2.1,2.5c-0.5-1.3-2.2-1.4-3.5-1.4
				c-3.4,0.1-9.7,1.7-11.4-1.9c1.5,3.3-14.3,0.7-15.1,0.4c-3.4-1-8.1-4.6-11.3-1.8c-1-1.3-2.4-2.3-4-2.6c-0.7,2.3-3.7,2.8-6.1,2.5
				c-2.4-0.3-5-1-7,0.2c0-1.5-2.1-1.9-3.5-1.7c-0.8,0.1-1.7,0.3-2.5,0.3c-2,0.1-5.3,0.2-7.3,0.2l-1.9,0.3c-3.3,0.6-6.6,1.2-9.9,1.1
				c-2.4-0.1-4.9-0.5-7.3,0.2c-1.2,0.4-2.3,1-3.6,1c-1.2,0-2.4-0.6-3.6-0.7s-2.7,0.7-2.6,1.9c-1.3-1.5-3.3-3.1-5.1-2.2
				c-0.6,0.3-1.1,0.8-1.7,1.1c-1.6,0.7-3.3-0.9-4.3-2.3c2,2.7-14.5,1.8-14.6,1.7c-7.2-0.7-14.5-1.6-21.7-2
				c-13.1-0.7-26.5-1.3-39.4,1.3c-11.5,2.3-22.7,7.6-30.4,16.3c-1.5,1.7-0.9,4.4,1.2,5.2c8.7,3.4,18.4,3.8,27.8,4.1
				c28.2,0.9,56.5,1.7,84.7,2.6c84.7,2.6,169.4,5.2,254.1,7.7c9.7,0.3,19.4,0.6,28.9-0.7c10-1.4,19.7-4.5,29.7-5.6
				c12.7-1.4,25.5-2.4,38.3-2.7c12.8-0.2,26.3-3.1,35.3-12.2C226.8,1318.8,236.3,1314,234.8,1315.9z"/>
			<g>
				<path class="st8" d="M242.6,1318.2c0,0-375.1-3.1-375.1-6.5c0-3.4,89.2-45.2,191.4-47.5c0,0,372.4-3.1,366.6,2.3
					S242.6,1318.2,242.6,1318.2z"/>
				<path class="st9" d="M34.3,1276.3L34.3,1276.3c-0.8-0.1-1.5-0.8-1.4-1.7c0.3-3.1,0.6-10.2-1-12.1c0,0,2.1,2.3,2.6,5.7
					c0,0,1.1-6.2,0.9-7.5c0,0,1.5,3.3,0.6,7.4c0,0,1.2-4.1,3.8-4.6c0,0-3.1,3-3.9,11.4C35.9,1275.7,35.2,1276.3,34.3,1276.3z"/>
				<path class="st10" d="M2.7,1282.6L2.7,1282.6c-1.2,0-2-1.1-1.9-2.2c0.4-2.8,0.7-7.4-0.3-9.1c0,0,1.1,2.2,1.2,3.5
					c0,0,0.9-4.6-0.7-6.6c0,0,1.4,1.4,2.1,5.7c0,0,1.3-5.6,1.2-7.2c0,0,0.8,2.9,0.1,7.1c0,0,1.6-3.8,3.6-5.2c0,0-2.2,4.2-2.4,6.6
					c0,0,1.5-2.2,2.6-2.6c0,0-2.6,3.2-3.1,5.5c-0.2,1-0.3,2-0.4,2.8C4.7,1281.8,3.8,1282.6,2.7,1282.6z"/>
				<path class="st11" d="M83.8,1285.9L83.8,1285.9c-1.2-0.1-2.1-1.1-2-2.4c0.1-2.7,0.1-7.3-1.4-9.7c0,0,1.6,2.8,2,4.1
					c0,0,0-5.5-0.3-5.8c0,0,1.5,3.8,1.9,7.5c0,0,1.6-9,1.2-10.1c0,0,1.4,4.8,0.2,8.9c0,0,2.4-5.8,4.3-6.7c0,0-2.8,4.5-3,7
					c0,0,2.4-3.4,3.2-3.1c0,0-2.7,3.2-3.6,8.3C86,1285.2,85,1286,83.8,1285.9z"/>
				<path class="st12" d="M52.7,1294.3L52.7,1294.3c-0.8-0.1-1.5-0.8-1.4-1.7c0.3-3.1,0.6-10.2-1-12.1c0,0,2.1,2.3,2.6,5.7
					c0,0,1.1-6.2,0.9-7.5c0,0,1.5,3.3,0.6,7.4c0,0,1.2-4.1,3.8-4.6c0,0-3.1,3-3.9,11.4C54.3,1293.7,53.6,1294.3,52.7,1294.3z"/>
				<path class="st10" d="M18.6,1302.9L18.6,1302.9c-1.2,0-2-1.1-1.9-2.2c0.4-2.8,0.7-7.4-0.3-9.1c0,0,1.1,2.2,1.2,3.5
					c0,0,0.9-4.6-0.7-6.6c0,0,1.4,1.4,2.1,5.7c0,0,1.3-5.6,1.2-7.2c0,0,0.8,2.9,0.1,7.1c0,0,1.6-3.8,3.6-5.2c0,0-2.2,4.2-2.4,6.6
					c0,0,1.5-2.2,2.6-2.6c0,0-2.6,3.2-3.1,5.5c-0.2,1-0.3,2-0.4,2.8C20.6,1302.1,19.7,1302.9,18.6,1302.9z"/>
				<path class="st11" d="M-28.5,1292L-28.5,1292c-1.2-0.1-2.1-1.1-2-2.4c0.1-2.7,0.1-7.3-1.4-9.7c0,0,1.6,2.8,2,4.1
					c0,0,0-5.5-0.3-5.8c0,0,1.5,3.8,1.9,7.5c0,0,1.6-9,1.2-10.1c0,0,1.4,4.8,0.2,8.9c0,0,2.4-5.8,4.3-6.7c0,0-2.8,4.5-3,7
					c0,0,2.4-3.4,3.2-3.1c0,0-2.7,3.2-3.6,8.3C-26.3,1291.3-27.3,1292.1-28.5,1292z"/>
				<path class="st12" d="M-59.7,1299.8L-59.7,1299.8c-0.8-0.1-1.5-0.8-1.4-1.7c0.3-3.1,0.6-10.2-1-12.1c0,0,2.1,2.3,2.6,5.7
					c0,0,1.1-6.2,0.9-7.5c0,0,1.5,3.3,0.6,7.4c0,0,1.2-4.1,3.8-4.6c0,0-3.1,3-3.9,11.4C-58.1,1299.3-58.8,1299.9-59.7,1299.8z"/>
				<path class="st10" d="M-93.8,1308.5L-93.8,1308.5c-1.2,0-2-1.1-1.9-2.2c0.4-2.8,0.7-7.4-0.3-9.1c0,0,1.1,2.2,1.2,3.5
					c0,0,0.9-4.6-0.7-6.6c0,0,1.4,1.4,2.1,5.7c0,0,1.3-5.6,1.2-7.2c0,0,0.8,2.9,0.1,7.1c0,0,1.6-3.8,3.6-5.2c0,0-2.2,4.2-2.4,6.6
					c0,0,1.5-2.2,2.6-2.6c0,0-2.6,3.2-3.1,5.5c-0.2,1-0.3,2-0.4,2.8C-91.8,1307.7-92.7,1308.5-93.8,1308.5z"/>
				<path class="st11" d="M-13.3,1311.7L-13.3,1311.7c-1.2-0.1-2.1-1.1-2-2.4c0.1-2.7,0.1-7.3-1.4-9.7c0,0,1.6,2.8,2,4.1
					c0,0,0-5.5-0.3-5.8c0,0,1.5,3.8,1.9,7.5c0,0,1.6-9,1.2-10.1c0,0,1.4,4.8,0.2,8.9c0,0,2.4-5.8,4.3-6.7c0,0-2.8,4.5-3,7
					c0,0,2.4-3.4,3.2-3.1c0,0-2.7,3.2-3.6,8.3C-11.1,1311-12.1,1311.8-13.3,1311.7z"/>
				<path class="st12" d="M65.4,1266.6L65.4,1266.6c-0.8-0.1-1.5-0.8-1.4-1.7c0.3-3.1,0.6-10.2-1-12.1c0,0,2.1,2.3,2.6,5.7
					c0,0,1.1-6.2,0.9-7.5c0,0,1.5,3.3,0.6,7.4c0,0,1.2-4.1,3.8-4.6c0,0-3.1,3-3.9,11.4C67,1266.1,66.2,1266.7,65.4,1266.6z"/>
				<path class="st11" d="M114.3,1277L114.3,1277c-1.2-0.1-2.1-1.1-2-2.4c0.1-2.7,0.1-7.3-1.4-9.7c0,0,1.6,2.8,2,4.1
					c0,0,0-5.5-0.3-5.8c0,0,1.5,3.8,1.9,7.5c0,0,1.6-9,1.2-10.1c0,0,1.4,4.8,0.2,8.9c0,0,2.4-5.8,4.3-6.7c0,0-2.8,4.5-3,7
					c0,0,2.4-3.4,3.2-3.1c0,0-2.7,3.2-3.6,8.3C116.5,1276.3,115.5,1277.1,114.3,1277z"/>
				<path class="st9" d="M189.7,1274.8L189.7,1274.8c-0.9,0-1.5-0.7-1.5-1.6c0.1-3.2,0-10.2-1.8-12c0,0,2.3,2.1,3,5.5
					c0,0,0.7-6.2,0.4-7.5c0,0,1.7,3.2,1.1,7.3c0,0,0.9-4.1,3.5-4.9c0,0-2.9,3.2-3.2,11.7C191.2,1274.2,190.5,1274.8,189.7,1274.8z"
					/>
				<path class="st10" d="M158.5,1283.2L158.5,1283.2c-1.2,0-2.1-0.9-2-2.1c0.2-2.8,0.3-7.4-0.9-9c0,0,1.2,2.1,1.5,3.4
					c0,0,0.6-4.7-1.1-6.5c0,0,1.5,1.3,2.5,5.5c0,0,0.9-5.7,0.7-7.3c0,0,1,2.9,0.6,7c0,0,1.4-3.9,3.3-5.4c0,0-1.9,4.4-2,6.7
					c0,0,1.4-2.3,2.4-2.8c0,0-2.4,3.3-2.7,5.7c-0.1,1-0.2,2-0.2,2.8C160.4,1282.3,159.6,1283.2,158.5,1283.2z"/>
				<path class="st11" d="M250.1,1281.8L250.1,1281.8c-1.2,0-2.2-1-2.2-2.2c0-2.7-0.4-7.3-2.1-9.6c0,0,1.8,2.6,2.2,4
					c0,0-0.4-5.5-0.6-5.7c0,0,1.7,3.7,2.4,7.4c0,0,1-9.1,0.5-10.1c0,0,1.7,4.7,0.8,8.9c0,0,2-5.9,3.8-6.9c0,0-2.5,4.6-2.5,7.2
					c0,0,2.2-3.6,2.9-3.3c0,0-2.5,3.4-3,8.5C252.3,1280.9,251.3,1281.8,250.1,1281.8z"/>
				<path class="st12" d="M219.7,1292.1L219.7,1292.1c-0.9,0-1.5-0.7-1.5-1.6c0.1-3.2,0-10.2-1.8-12c0,0,2.3,2.1,3,5.5
					c0,0,0.7-6.2,0.4-7.5c0,0,1.7,3.2,1.1,7.3c0,0,0.9-4.1,3.5-4.9c0,0-2.9,3.2-3.2,11.7C221.3,1291.4,220.6,1292.1,219.7,1292.1z"
					/>
				<path class="st10" d="M186.2,1302.9L186.2,1302.9c-1.2,0-2.1-0.9-2-2.1c0.2-2.8,0.3-7.4-0.9-9c0,0,1.2,2.1,1.5,3.4
					c0,0,0.6-4.7-1.1-6.5c0,0,1.5,1.3,2.5,5.5c0,0,0.9-5.7,0.7-7.3c0,0,1,2.9,0.6,7c0,0,1.4-3.9,3.3-5.4c0,0-1.9,4.4-2,6.7
					c0,0,1.4-2.3,2.4-2.8c0,0-2.4,3.3-2.7,5.7c-0.1,1-0.2,2-0.2,2.8C188.1,1302,187.3,1302.9,186.2,1302.9z"/>
				<path class="st11" d="M128,1294.7L128,1294.7c-1.2,0-2.2-1-2.2-2.2c0-2.7-0.4-7.3-2.1-9.6c0,0,1.8,2.6,2.2,4
					c0,0-0.4-5.5-0.6-5.7c0,0,1.7,3.7,2.4,7.4c0,0,1-9.1,0.5-10.1c0,0,1.7,4.7,0.8,8.9c0,0,2-5.9,3.8-6.9c0,0-2.5,4.6-2.5,7.2
					c0,0,2.2-3.6,2.9-3.3c0,0-2.5,3.4-3,8.5C130.2,1293.8,129.2,1294.7,128,1294.7z"/>
				<path class="st12" d="M97.4,1304.5L97.4,1304.5c-0.9,0-1.5-0.7-1.5-1.6c0.1-3.2,0-10.2-1.8-12c0,0,2.3,2.1,3,5.5
					c0,0,0.7-6.2,0.4-7.5c0,0,1.7,3.2,1.1,7.3c0,0,0.9-4.1,3.5-4.9c0,0-2.9,3.2-3.2,11.7C99,1303.8,98.2,1304.5,97.4,1304.5z"/>
				<path class="st10" d="M66.1,1313.4L66.1,1313.4c-1.2,0-2.1-0.9-2-2.1c0.2-2.8,0.3-7.4-0.9-9c0,0,1.2,2.1,1.5,3.4
					c0,0,0.6-4.7-1.1-6.5c0,0,1.5,1.3,2.5,5.5c0,0,0.9-5.7,0.7-7.3c0,0,1,2.9,0.6,7c0,0,1.4-3.9,3.3-5.4c0,0-1.9,4.4-2,6.7
					c0,0,1.4-2.3,2.4-2.8c0,0-2.4,3.3-2.7,5.7c-0.1,1-0.2,2-0.2,2.8C68,1312.4,67.1,1313.3,66.1,1313.4z"/>
				<path class="st11" d="M154.9,1313.8L154.9,1313.8c-1.2,0-2.2-1-2.2-2.2c0-2.7-0.4-7.3-2.1-9.6c0,0,1.8,2.6,2.2,4
					c0,0-0.4-5.5-0.6-5.7c0,0,1.7,3.7,2.4,7.4c0,0,1-9.1,0.5-10.1c0,0,1.7,4.7,0.8,8.9c0,0,2-5.9,3.8-6.9c0,0-2.5,4.6-2.5,7.2
					c0,0,2.2-3.6,2.9-3.3c0,0-2.5,3.4-3,8.5C157.1,1313,156.1,1313.9,154.9,1313.8z"/>
				<path class="st12" d="M219.6,1267L219.6,1267c-0.9,0-1.5-0.7-1.5-1.6c0.1-3.2,0-10.2-1.8-12c0,0,2.3,2.1,3,5.5
					c0,0,0.7-6.2,0.4-7.5c0,0,1.7,3.2,1.1,7.3c0,0,0.9-4.1,3.5-4.9c0,0-2.9,3.2-3.2,11.7C221.2,1266.4,220.4,1267,219.6,1267z"/>
				<path class="st12" d="M348.4,1274.8L348.4,1274.8c-0.9,0-1.5-0.7-1.5-1.6c0.1-3.2,0-10.2-1.8-12c0,0,2.3,2.1,3,5.5
					c0,0,0.7-6.2,0.4-7.5c0,0,1.7,3.2,1.1,7.3c0,0,0.9-4.1,3.5-4.9c0,0-2.9,3.2-3.2,11.7C349.9,1274.2,349.2,1274.8,348.4,1274.8z"
					/>
				<path class="st10" d="M317.2,1283.2L317.2,1283.2c-1.2,0-2.1-0.9-2-2.1c0.2-2.8,0.3-7.4-0.9-9c0,0,1.2,2.1,1.5,3.4
					c0,0,0.6-4.7-1.1-6.5c0,0,1.5,1.3,2.5,5.5c0,0,0.9-5.7,0.7-7.3c0,0,1,2.9,0.6,7c0,0,1.4-3.9,3.3-5.4c0,0-1.9,4.4-2,6.7
					c0,0,1.4-2.3,2.4-2.8c0,0-2.4,3.3-2.7,5.7c-0.1,1-0.2,2-0.2,2.8C319.1,1282.3,318.3,1283.2,317.2,1283.2z"/>
				<path class="st11" d="M286.7,1294.7L286.7,1294.7c-1.2,0-2.2-1-2.2-2.2c0-2.7-0.4-7.3-2.1-9.6c0,0,1.8,2.6,2.2,4
					c0,0-0.4-5.5-0.6-5.7c0,0,1.7,3.7,2.4,7.4c0,0,1-9.1,0.5-10.1c0,0,1.7,4.7,0.8,8.9c0,0,2-5.9,3.8-6.9c0,0-2.5,4.6-2.5,7.2
					c0,0,2.2-3.6,2.9-3.3c0,0-2.5,3.4-3,8.5C288.9,1293.8,287.9,1294.7,286.7,1294.7z"/>
				<path class="st9" d="M256.1,1304.5L256.1,1304.5c-0.9,0-1.5-0.7-1.5-1.6c0.1-3.2,0-10.2-1.8-12c0,0,2.3,2.1,3,5.5
					c0,0,0.7-6.2,0.4-7.5c0,0,1.7,3.2,1.1,7.3c0,0,0.9-4.1,3.5-4.9c0,0-2.9,3.2-3.2,11.7C257.7,1303.8,256.9,1304.5,256.1,1304.5z"
					/>
				<path class="st10" d="M224.8,1313.4L224.8,1313.4c-1.2,0-2.1-0.9-2-2.1c0.2-2.8,0.3-7.4-0.9-9c0,0,1.2,2.1,1.5,3.4
					c0,0,0.6-4.7-1.1-6.5c0,0,1.5,1.3,2.5,5.5c0,0,0.9-5.7,0.7-7.3c0,0,1,2.9,0.6,7c0,0,1.4-3.9,3.3-5.4c0,0-1.9,4.4-2,6.7
					c0,0,1.4-2.3,2.4-2.8c0,0-2.4,3.3-2.7,5.7c-0.1,1-0.2,2-0.2,2.8C226.7,1312.4,225.8,1313.3,224.8,1313.4z"/>
				<path class="st9" d="M378.3,1267L378.3,1267c-0.9,0-1.5-0.7-1.5-1.6c0.1-3.2,0-10.2-1.8-12c0,0,2.3,2.1,3,5.5
					c0,0,0.7-6.2,0.4-7.5c0,0,1.7,3.2,1.1,7.3c0,0,0.9-4.1,3.5-4.9c0,0-2.9,3.2-3.2,11.7C379.9,1266.4,379.1,1267.1,378.3,1267z"/>
				<path class="st11" d="M280,1270.9L280,1270.9c-1.2,0-2.2-1-2.2-2.2c0-2.7-0.4-7.3-2.1-9.6c0,0,1.8,2.6,2.2,4
					c0,0-0.4-5.5-0.6-5.7c0,0,1.7,3.7,2.4,7.4c0,0,1-9.1,0.5-10.1c0,0,1.7,4.7,0.8,8.9c0,0,2-5.9,3.8-6.9c0,0-2.5,4.6-2.5,7.2
					c0,0,2.2-3.6,2.9-3.3c0,0-2.5,3.4-3,8.5C282.2,1270,281.2,1270.9,280,1270.9z"/>
			</g>
			<path class="st7" d="M498.4,1249.5c1.5,0.7,0.3-2.3-1.3-2.4c-5-0.2-10,0.4-14.9,1.6c-2.5,0.6-5.4,1.3-7.7,2.5
				c-1.6,0.8-3.6,3.4-5.2,3.6c-1.3,0.1-2.6-0.4-4-0.4c-3.4-0.1-6.7,2.6-9.8,1.4c-2.8-1.1-2.1,2-4.2,2.5c-2.3,0.5-3.9-0.5-6.2-0.3
				c-6.9,0.7-20.6,4.2-25.8,9c-0.7,0.7-1.4,1.5-2.4,1.6c-1.2,0.2-2.5-0.7-3.7-0.2c-0.9,0.4-1.4,1.5-2.4,1.6
				c-1.6,0.2-2.6-2.5-4.2-2.1c-0.9,0.2-1.2,1.3-2,1.7c-1,0.5-2.1-0.3-3.1-0.8c-5.7-3-15.4,3.7-21.6,4.7c-5.1,0.8-14.5,5.3-19.9,3.4
				c-0.8-0.3-1.6-0.1-2.2,0.6c-0.6,0.8-1.6,1.2-2.6,0.8c-0.7-0.3-1.3-0.9-2.1-1c-1.7-0.3-2.7,1.9-3,3.7c-1.1-0.6-2.2-1.3-3.3-1.9
				c-0.5-0.3-1.1-0.6-1.7,0c-0.3,0.3-0.5,0.7-0.5,1.2c-0.3,3.9-5.2,2.4-7.9,4c-0.5,0.3-0.9,0.6-1.4,0.8c-0.8,0.3-1.7,0.1-2.5-0.1
				c-1.7-0.4-3.5-0.8-5.2-1.2c-0.9-0.2-1.9-0.4-2.7,0c-0.7,0.3-1.1,1-1.7,1.5c-0.8,0.7-1.8,1-2.8,0.8c-0.4,0-0.9,0.2-1,0.6
				c-0.4,1.1-1.9,1.8-3.2,2.2c-3.4,1-14.6,4.5-17.8,2.1c-1-0.7-2.3-0.8-3.4-0.3c-6,2.8-11.2,2.6-17.1,4.5c-4.3,1.5-8.4,3.6-12.8,4.6
				c-3.3,0.8-6.8,0.9-10.2,1.5c-3.7,0.6-7.4,1.8-10.8,3.4c-2,3.1-7,3.7-9.8,1.2c-3.8,1.8-8,2.9-12.1,3.3l-1.5,2.9
				c-0.8-1.1-2.5-0.9-3.8-0.5c-3.2,0.9-9.1,3.9-11.5,0.8c2.3,2.9-13.7,4-14.6,4c-3.6-0.2-9-2.6-11.4,0.9c-1.2-1-2.8-1.7-4.5-1.6
				c-0.2,2.4-2.9,3.6-5.3,3.9c-2.4,0.3-5.1,0.2-6.8,1.8c-0.4-1.4-2.5-1.4-3.8-0.8c-0.8,0.3-1.6,0.7-2.4,0.8c-2,0.5-5.1,1.4-7.1,1.9
				l-1.8,0.8c-3,1.3-6.1,2.7-9.4,3.4c-2.4,0.5-4.9,0.7-7,1.9c-1.1,0.6-2,1.5-3.2,1.8c-1.2,0.3-2.5,0-3.7,0.1
				c-1.2,0.2-2.5,1.3-2.1,2.4c-1.7-1.1-3.9-2.2-5.5-0.9c-0.5,0.4-0.8,1.1-1.4,1.5c-1.4,1-3.4-0.1-4.7-1.3c2.5,2.1-13.7,5.1-13.8,5.1
				c-7.2,1-14.4,1.8-21.6,3.1c-12.9,2.4-26,4.9-38,10.4c-10.6,4.9-20.4,12.7-25.8,22.9c-1.1,2,0.2,4.5,2.4,4.8
				c9.2,1.3,18.8-0.6,28-2.5c27.7-5.7,55.3-11.5,83-17.2c83-17.2,165.9-34.4,248.9-51.5c9.5-2,19-3.9,28-7.4
				c9.4-3.7,18.1-9,27.6-12.3c12-4.3,25-5.4,37.3-8.6c12.4-3.2,24.9-9.1,31.5-20.1C499.4,1257.8,499.4,1247.4,498.4,1249.5z"/>
			<polygon class="st13" points="65.2,1398.9 65.2,1239.4 480.8,1239.4 480.8,1390.7 			"/>
			<path class="st7" d="M922.7,1258.5l-445.7-1.6c-0.2,0-0.3,0-0.5,0.1l-457,117.8c-2.1,0.5-1.7,3.6,0.4,3.7l902.7,13.5
				c1,0,1.9-0.8,1.9-1.9v-129.7C924.6,1259.3,923.7,1258.5,922.7,1258.5z"/>
			<path class="st7" d="M939.6,1257.5c1.3,1,0.8-2.2-0.8-2.6c-4.8-1.3-9.9-2-14.9-1.9c-2.6,0-5.6,0-8.1,0.7
				c-1.7,0.5-4.3,2.5-5.9,2.3c-1.3-0.2-2.5-1-3.8-1.3c-3.2-0.9-7.1,1-9.9-0.9c-2.5-1.7-2.5,1.5-4.7,1.5c-2.3,0-3.7-1.4-5.9-1.7
				c-6.9-1-21-0.7-27.2,2.8c-0.9,0.5-1.7,1.1-2.7,1c-1.2-0.1-2.3-1.3-3.5-1.1c-1,0.1-1.7,1.1-2.7,1c-1.6-0.2-1.9-3-3.6-3
				c-0.9,0-1.5,1-2.4,1.2c-1.1,0.2-2-0.8-2.9-1.5c-4.8-4.2-15.9,0-22.1-0.5c-5.2-0.4-15.4,1.8-20.1-1.3c-0.7-0.5-1.6-0.4-2.2,0
				c-0.8,0.6-1.8,0.8-2.8,0.2c-0.6-0.4-1.1-1.2-1.8-1.5c-1.6-0.7-3.1,1.2-3.8,2.8c-0.9-0.9-1.8-1.8-2.8-2.6c-0.4-0.4-1-0.9-1.7-0.4
				c-0.4,0.2-0.6,0.6-0.8,1c-1.2,3.7-5.6,1.2-8.6,2.1c-0.5,0.2-1,0.4-1.5,0.5c-0.8,0.1-1.7-0.3-2.4-0.7c-1.6-0.8-3.2-1.6-4.8-2.4
				c-0.8-0.4-1.7-0.8-2.6-0.6c-0.7,0.2-1.3,0.7-1.9,1.1c-0.9,0.5-2,0.5-2.9,0.2c-0.4-0.2-0.9,0-1.1,0.4c-0.6,1-2.3,1.4-3.6,1.4
				c-3.5,0.2-15.2,1-17.8-2.1c-0.8-0.9-2-1.3-3.2-1.1c-6.5,1.4-11.4-0.1-17.7,0.5c-4.5,0.4-9,1.5-13.6,1.5c-3.4,0-6.8-0.7-10.2-0.9
				c-3.8-0.3-7.6,0-11.3,0.8c-2.7,2.6-7.7,2-9.8-1.1c-4.1,0.8-8.4,0.9-12.6,0.4l-2.1,2.5c-0.5-1.3-2.2-1.4-3.5-1.4
				c-3.4,0.1-9.7,1.7-11.4-1.9c1.5,3.3-14.3,0.7-15.1,0.4c-3.4-1-8.1-4.6-11.3-1.8c-1-1.3-2.4-2.3-4-2.6c-0.7,2.3-3.7,2.8-6.1,2.5
				c-2.4-0.3-5-1-7,0.2c0-1.5-2.1-1.9-3.5-1.7c-0.8,0.1-1.7,0.3-2.5,0.3c-2,0.1-5.3,0.2-7.3,0.2l-1.9,0.3c-3.3,0.6-6.6,1.2-9.9,1.1
				c-2.4-0.1-4.9-0.5-7.3,0.2c-1.2,0.4-2.3,1-3.6,1c-1.2,0-2.4-0.6-3.6-0.7c-1.2-0.1-2.7,0.7-2.6,1.9c-1.3-1.5-3.3-3.1-5.1-2.2
				c-0.6,0.3-1.1,0.8-1.7,1.1c-1.6,0.7-3.3-0.9-4.3-2.3c2,2.7-14.5,1.8-14.6,1.7c-7.2-0.7-14.5-1.6-21.7-2
				c-13.1-0.7-26.5-1.3-39.4,1.3c-11.5,2.3-22.7,7.6-30.4,16.3c-1.5,1.7-0.9,4.4,1.2,5.2c8.7,3.4,18.4,3.8,27.8,4.1
				c28.2,0.9,56.5,1.7,84.7,2.6c84.7,2.6,169.4,5.2,254.1,7.7c9.7,0.3,19.4,0.6,28.9-0.7c10-1.4,19.7-4.5,29.7-5.6
				c12.7-1.4,25.5,0.5,38.3,0.3c12.8-0.2,26.3-3.1,35.3-12.2C938.6,1265.7,941,1255.6,939.6,1257.5z"/>
			<g>
				<path class="st8" d="M713.2,1320.9c0,0-375.1-3.1-375.1-6.5s89.2-45.2,191.4-47.5c0,0,372.4-3.1,366.6,2.3
					C890.4,1274.6,713.2,1320.9,713.2,1320.9z"/>
				<path class="st9" d="M505,1279L505,1279c-0.8-0.1-1.5-0.8-1.4-1.7c0.3-3.1,0.6-10.2-1-12.1c0,0,2.1,2.3,2.6,5.7
					c0,0,1.1-6.2,0.9-7.5c0,0,1.5,3.3,0.6,7.4c0,0,1.2-4.1,3.8-4.6c0,0-3.1,3-3.9,11.4C506.6,1278.4,505.8,1279.1,505,1279z"/>
				<path class="st10" d="M473.4,1285.3L473.4,1285.3c-1.2,0-2-1.1-1.9-2.2c0.4-2.8,0.7-7.4-0.3-9.1c0,0,1.1,2.2,1.2,3.5
					c0,0,0.9-4.6-0.7-6.6c0,0,1.4,1.4,2.1,5.7c0,0,1.3-5.6,1.2-7.2c0,0,0.8,2.9,0.1,7.1c0,0,1.6-3.8,3.6-5.2c0,0-2.2,4.2-2.4,6.6
					c0,0,1.5-2.2,2.6-2.6c0,0-2.6,3.2-3.1,5.5c-0.2,1-0.3,2-0.4,2.8C475.3,1284.5,474.4,1285.4,473.4,1285.3z"/>
				<path class="st11" d="M554.4,1288.6L554.4,1288.6c-1.2-0.1-2.1-1.1-2-2.3c0.1-2.7,0.1-7.3-1.4-9.7c0,0,1.6,2.8,2,4.1
					c0,0,0-5.5-0.3-5.8c0,0,1.5,3.8,1.9,7.5c0,0,1.6-9,1.2-10.1c0,0,1.4,4.8,0.2,8.9c0,0,2.4-5.8,4.3-6.7c0,0-2.8,4.5-3,7
					c0,0,2.4-3.4,3.2-3.1c0,0-2.7,3.2-3.6,8.3C556.7,1287.9,555.6,1288.8,554.4,1288.6z"/>
				<path class="st12" d="M523.4,1297L523.4,1297c-0.8-0.1-1.5-0.8-1.4-1.7c0.3-3.1,0.6-10.2-1-12.1c0,0,2.1,2.3,2.6,5.7
					c0,0,1.1-6.2,0.9-7.5c0,0,1.5,3.3,0.6,7.4c0,0,1.2-4.1,3.8-4.6c0,0-3.1,3-3.9,11.4C525,1296.4,524.2,1297.1,523.4,1297z"/>
				<path class="st10" d="M489.3,1305.6L489.3,1305.6c-1.2,0-2-1.1-1.9-2.2c0.4-2.8,0.7-7.4-0.3-9.1c0,0,1.1,2.2,1.2,3.5
					c0,0,0.9-4.6-0.7-6.6c0,0,1.4,1.4,2.1,5.7c0,0,1.3-5.6,1.2-7.2c0,0,0.8,2.9,0.1,7.1c0,0,1.6-3.8,3.6-5.2c0,0-2.2,4.2-2.4,6.6
					c0,0,1.5-2.2,2.6-2.6c0,0-2.6,3.2-3.1,5.5c-0.2,1-0.3,2-0.4,2.8C491.2,1304.8,490.3,1305.6,489.3,1305.6z"/>
				<path class="st11" d="M442.1,1294.7L442.1,1294.7c-1.2-0.1-2.1-1.1-2-2.4c0.1-2.7,0.1-7.3-1.4-9.7c0,0,1.6,2.8,2,4.1
					c0,0,0-5.5-0.3-5.8c0,0,1.5,3.8,1.9,7.5c0,0,1.6-9,1.2-10.1c0,0,1.4,4.8,0.2,8.9c0,0,2.4-5.8,4.3-6.7c0,0-2.8,4.5-3,7
					c0,0,2.4-3.4,3.2-3.1c0,0-2.7,3.2-3.6,8.3C444.4,1294,443.3,1294.8,442.1,1294.7z"/>
				<path class="st12" d="M411,1302.6L411,1302.6c-0.8-0.1-1.5-0.8-1.4-1.7c0.3-3.1,0.6-10.2-1-12.1c0,0,2.1,2.3,2.6,5.7
					c0,0,1.1-6.2,0.9-7.5c0,0,1.5,3.3,0.6,7.4c0,0,1.2-4.1,3.8-4.6c0,0-3.1,3-3.9,11.4C412.6,1302,411.8,1302.6,411,1302.6z"/>
				<path class="st10" d="M376.9,1311.2L376.9,1311.2c-1.2,0-2-1.1-1.9-2.2c0.4-2.8,0.7-7.4-0.3-9.1c0,0,1.1,2.2,1.2,3.5
					c0,0,0.9-4.6-0.7-6.6c0,0,1.4,1.4,2.1,5.7c0,0,1.3-5.6,1.2-7.2c0,0,0.8,2.9,0.1,7.1c0,0,1.6-3.8,3.6-5.2c0,0-2.2,4.2-2.4,6.6
					c0,0,1.5-2.2,2.6-2.6c0,0-2.6,3.2-3.1,5.5c-0.2,1-0.3,2-0.4,2.8C378.8,1310.4,377.9,1311.2,376.9,1311.2z"/>
				<path class="st11" d="M457.3,1314.5L457.3,1314.5c-1.2-0.1-2.1-1.1-2-2.4c0.1-2.7,0.1-7.3-1.4-9.7c0,0,1.6,2.8,2,4.1
					c0,0,0-5.5-0.3-5.8c0,0,1.5,3.8,1.9,7.5c0,0,1.6-9,1.2-10.1c0,0,1.4,4.8,0.2,8.9c0,0,2.4-5.8,4.3-6.7c0,0-2.8,4.5-3,7
					c0,0,2.4-3.4,3.2-3.1c0,0-2.7,3.2-3.6,8.3C459.6,1313.7,458.5,1314.6,457.3,1314.5z"/>
				<path class="st12" d="M536,1269.4L536,1269.4c-0.8-0.1-1.5-0.8-1.4-1.7c0.3-3.1,0.6-10.2-1-12.1c0,0,2.1,2.3,2.6,5.7
					c0,0,1.1-6.2,0.9-7.5c0,0,1.5,3.3,0.6,7.4c0,0,1.2-4.1,3.8-4.6c0,0-3.1,3-3.9,11.4C537.6,1268.8,536.9,1269.4,536,1269.4z"/>
				<path class="st11" d="M585,1279.7L585,1279.7c-1.2-0.1-2.1-1.1-2-2.4c0.1-2.7,0.1-7.3-1.4-9.7c0,0,1.6,2.8,2,4.1
					c0,0,0-5.5-0.3-5.8c0,0,1.5,3.8,1.9,7.5c0,0,1.6-9,1.2-10.1c0,0,1.4,4.8,0.2,8.9c0,0,2.4-5.8,4.3-6.7c0,0-2.8,4.5-3,7
					c0,0,2.4-3.4,3.2-3.1c0,0-2.7,3.2-3.6,8.3C587.2,1279,586.1,1279.9,585,1279.7z"/>
				<path class="st9" d="M660.3,1277.5L660.3,1277.5c-0.9,0-1.5-0.7-1.5-1.6c0.1-3.2,0-10.2-1.8-12c0,0,2.3,2.1,3,5.5
					c0,0,0.7-6.2,0.4-7.5c0,0,1.7,3.2,1.1,7.3c0,0,0.9-4.1,3.5-4.9c0,0-2.9,3.2-3.2,11.7C661.9,1276.9,661.2,1277.6,660.3,1277.5z"
					/>
				<path class="st10" d="M629.2,1285.9L629.2,1285.9c-1.2,0-2.1-0.9-2-2.1c0.2-2.8,0.3-7.4-0.9-9c0,0,1.2,2.1,1.5,3.4
					c0,0,0.6-4.7-1.1-6.5c0,0,1.5,1.3,2.5,5.5c0,0,0.9-5.7,0.7-7.3c0,0,1,2.9,0.6,7c0,0,1.4-3.9,3.3-5.4c0,0-1.9,4.4-2,6.7
					c0,0,1.4-2.3,2.4-2.8c0,0-2.4,3.3-2.7,5.7c-0.1,1-0.2,2-0.2,2.8C631.1,1285,630.2,1285.9,629.2,1285.9z"/>
				<path class="st11" d="M720.8,1284.5L720.8,1284.5c-1.2,0-2.2-1-2.2-2.2c0-2.7-0.4-7.3-2.1-9.6c0,0,1.8,2.6,2.2,4
					c0,0-0.4-5.5-0.6-5.7c0,0,1.7,3.7,2.4,7.4c0,0,1-9.1,0.5-10.1c0,0,1.7,4.7,0.8,8.9c0,0,2-5.9,3.8-6.9c0,0-2.5,4.6-2.5,7.2
					c0,0,2.2-3.6,2.9-3.3c0,0-2.5,3.4-3,8.5C723,1283.6,722,1284.5,720.8,1284.5z"/>
				<path class="st12" d="M690.4,1294.8L690.4,1294.8c-0.9,0-1.5-0.7-1.5-1.6c0.1-3.2,0-10.2-1.8-12c0,0,2.3,2.1,3,5.5
					c0,0,0.7-6.2,0.4-7.5c0,0,1.7,3.2,1.1,7.3c0,0,0.9-4.1,3.5-4.9c0,0-2.9,3.2-3.2,11.7C691.9,1294.2,691.2,1294.8,690.4,1294.8z"
					/>
				<path class="st10" d="M656.9,1305.6L656.9,1305.6c-1.2,0-2.1-0.9-2-2.1c0.2-2.8,0.3-7.4-0.9-9c0,0,1.2,2.1,1.5,3.4
					c0,0,0.6-4.7-1.1-6.5c0,0,1.5,1.3,2.5,5.5c0,0,0.9-5.7,0.7-7.3c0,0,1,2.9,0.6,7c0,0,1.4-3.9,3.3-5.4c0,0-1.9,4.4-2,6.7
					c0,0,1.4-2.3,2.4-2.8c0,0-2.4,3.3-2.7,5.7c-0.1,1-0.2,2-0.2,2.8C658.8,1304.7,657.9,1305.6,656.9,1305.6z"/>
				<path class="st11" d="M598.6,1297.4L598.6,1297.4c-1.2,0-2.2-1-2.2-2.2c0-2.7-0.4-7.3-2.1-9.6c0,0,1.8,2.6,2.2,4
					c0,0-0.4-5.5-0.6-5.7c0,0,1.7,3.7,2.4,7.4c0,0,1-9.1,0.5-10.1c0,0,1.7,4.7,0.8,8.9c0,0,2-5.9,3.8-6.9c0,0-2.5,4.6-2.5,7.2
					c0,0,2.2-3.6,2.9-3.3c0,0-2.5,3.4-3,8.5C600.8,1296.5,599.8,1297.4,598.6,1297.4z"/>
				<path class="st12" d="M568,1307.2L568,1307.2c-0.9,0-1.5-0.7-1.5-1.6c0.1-3.2,0-10.2-1.8-12c0,0,2.3,2.1,3,5.5
					c0,0,0.7-6.2,0.4-7.5c0,0,1.7,3.2,1.1,7.3c0,0,0.9-4.1,3.5-4.9c0,0-2.9,3.2-3.2,11.7C569.6,1306.6,568.9,1307.2,568,1307.2z"/>
				<path class="st10" d="M536.7,1316.1L536.7,1316.1c-1.2,0-2.1-0.9-2-2.1c0.2-2.8,0.3-7.4-0.9-9c0,0,1.2,2.1,1.5,3.4
					c0,0,0.6-4.7-1.1-6.5c0,0,1.5,1.3,2.5,5.5c0,0,0.9-5.7,0.7-7.3c0,0,1,2.9,0.6,7c0,0,1.4-3.9,3.3-5.4c0,0-1.9,4.4-2,6.7
					c0,0,1.4-2.3,2.4-2.8c0,0-2.4,3.3-2.7,5.7c-0.1,1-0.2,2-0.2,2.8C538.6,1315.2,537.8,1316,536.7,1316.1z"/>
				<path class="st11" d="M625.6,1316.6L625.6,1316.6c-1.2,0-2.2-1-2.2-2.2c0-2.7-0.4-7.3-2.1-9.6c0,0,1.8,2.6,2.2,4
					c0,0-0.4-5.5-0.6-5.7c0,0,1.7,3.7,2.4,7.4c0,0,1-9.1,0.5-10.1c0,0,1.7,4.7,0.8,8.9c0,0,2-5.9,3.8-6.9c0,0-2.5,4.6-2.5,7.2
					c0,0,2.2-3.6,2.9-3.3c0,0-2.5,3.4-3,8.5C627.8,1315.7,626.8,1316.6,625.6,1316.6z"/>
				<path class="st12" d="M690.2,1269.7L690.2,1269.7c-0.9,0-1.5-0.7-1.5-1.6c0.1-3.2,0-10.2-1.8-12c0,0,2.3,2.1,3,5.5
					c0,0,0.7-6.2,0.4-7.5c0,0,1.7,3.2,1.1,7.3c0,0,0.9-4.1,3.5-4.9c0,0-2.9,3.2-3.2,11.7C691.8,1269.1,691.1,1269.8,690.2,1269.7z"
					/>
				<path class="st12" d="M819,1277.5L819,1277.5c-0.9,0-1.5-0.7-1.5-1.6c0.1-3.2,0-10.2-1.8-12c0,0,2.3,2.1,3,5.5
					c0,0,0.7-6.2,0.4-7.5c0,0,1.7,3.2,1.1,7.3c0,0,0.9-4.1,3.5-4.9c0,0-2.9,3.2-3.2,11.7C820.6,1276.9,819.9,1277.6,819,1277.5z"/>
				<path class="st10" d="M787.9,1285.9L787.9,1285.9c-1.2,0-2.1-0.9-2-2.1c0.2-2.8,0.3-7.4-0.9-9c0,0,1.2,2.1,1.5,3.4
					c0,0,0.6-4.7-1.1-6.5c0,0,1.5,1.3,2.5,5.5c0,0,0.9-5.7,0.7-7.3c0,0,1,2.9,0.6,7c0,0,1.4-3.9,3.3-5.4c0,0-1.9,4.4-2,6.7
					c0,0,1.4-2.3,2.4-2.8c0,0-2.4,3.3-2.7,5.7c-0.1,1-0.2,2-0.2,2.8C789.8,1285,788.9,1285.9,787.9,1285.9z"/>
				<path class="st11" d="M757.3,1297.4L757.3,1297.4c-1.2,0-2.2-1-2.2-2.2c0-2.7-0.4-7.3-2.1-9.6c0,0,1.8,2.6,2.2,4
					c0,0-0.4-5.5-0.6-5.7c0,0,1.7,3.7,2.4,7.4c0,0,1-9.1,0.5-10.1c0,0,1.7,4.7,0.8,8.9c0,0,2-5.9,3.8-6.9c0,0-2.5,4.6-2.5,7.2
					c0,0,2.2-3.6,2.9-3.3c0,0-2.5,3.4-3,8.5C759.5,1296.5,758.5,1297.4,757.3,1297.4z"/>
				<path class="st9" d="M726.7,1307.2L726.7,1307.2c-0.9,0-1.5-0.7-1.5-1.6c0.1-3.2,0-10.2-1.8-12c0,0,2.3,2.1,3,5.5
					c0,0,0.7-6.2,0.4-7.5c0,0,1.7,3.2,1.1,7.3c0,0,0.9-4.1,3.5-4.9c0,0-2.9,3.2-3.2,11.7C728.3,1306.6,727.6,1307.2,726.7,1307.2z"
					/>
				<path class="st10" d="M695.4,1316.1L695.4,1316.1c-1.2,0-2.1-0.9-2-2.1c0.2-2.8,0.3-7.4-0.9-9c0,0,1.2,2.1,1.5,3.4
					c0,0,0.6-4.7-1.1-6.5c0,0,1.5,1.3,2.5,5.5c0,0,0.9-5.7,0.7-7.3c0,0,1,2.9,0.6,7c0,0,1.4-3.9,3.3-5.4c0,0-1.9,4.4-2,6.7
					c0,0,1.4-2.3,2.4-2.8c0,0-2.4,3.3-2.7,5.7c-0.1,1-0.2,2-0.2,2.8C697.3,1315.2,696.5,1316,695.4,1316.1z"/>
				<path class="st9" d="M848.9,1269.7L848.9,1269.7c-0.9,0-1.5-0.7-1.5-1.6c0.1-3.2,0-10.2-1.8-12c0,0,2.3,2.1,3,5.5
					c0,0,0.7-6.2,0.4-7.5c0,0,1.7,3.2,1.1,7.3c0,0,0.9-4.1,3.5-4.9c0,0-2.9,3.2-3.2,11.7C850.5,1269.1,849.8,1269.8,848.9,1269.7z"
					/>
				<path class="st11" d="M750.7,1273.6L750.7,1273.6c-1.2,0-2.2-1-2.2-2.2c0-2.7-0.4-7.3-2.1-9.6c0,0,1.8,2.6,2.2,4
					c0,0-0.4-5.5-0.6-5.7c0,0,1.7,3.7,2.4,7.4c0,0,1-9.1,0.5-10.1c0,0,1.7,4.7,0.8,8.9c0,0,2-5.9,3.8-6.9c0,0-2.5,4.6-2.5,7.2
					c0,0,2.2-3.6,2.9-3.3c0,0-2.5,3.4-3,8.5C752.8,1272.7,751.8,1273.6,750.7,1273.6z"/>
			</g>
			<path class="st7" d="M764.6,1318c1.3,1,0.8-2.2-0.8-2.6c-4.8-1.3-9.9-2-14.9-1.9c-2.6,0-5.6,0-8.1,0.7c-1.7,0.5-4.3,2.5-5.9,2.3
				c-1.3-0.2-2.5-1-3.8-1.3c-3.2-0.9-7.1,1-9.9-0.9c-2.5-1.7-2.5,1.5-4.7,1.5c-2.3,0-3.7-1.4-5.9-1.7c-6.9-1-21-0.7-27.2,2.8
				c-0.9,0.5-1.7,1.1-2.7,1c-1.2-0.1-2.3-1.3-3.5-1.1c-1,0.1-1.7,1.1-2.7,1c-1.6-0.2-1.9-3-3.6-3c-0.9,0-1.5,1-2.4,1.2
				c-1.1,0.2-2-0.8-2.9-1.5c-4.8-4.2-15.9,0-22.1-0.5c-5.2-0.4-15.4,1.8-20.1-1.3c-0.7-0.5-1.6-0.4-2.2,0c-0.8,0.6-1.8,0.8-2.8,0.2
				c-0.6-0.4-1.1-1.2-1.8-1.5c-1.6-0.7-3.1,1.2-3.8,2.8c-0.9-0.9-1.8-1.8-2.8-2.6c-0.4-0.4-1-0.9-1.7-0.4c-0.4,0.2-0.6,0.6-0.8,1
				c-1.2,3.7-5.6,1.2-8.6,2.1c-0.5,0.2-1,0.4-1.5,0.5c-0.8,0.1-1.7-0.3-2.4-0.7c-1.6-0.8-3.2-1.6-4.8-2.4c-0.8-0.4-1.7-0.8-2.6-0.6
				c-0.7,0.2-1.3,0.7-1.9,1.1c-0.9,0.5-2,0.5-2.9,0.2c-0.4-0.2-0.9,0-1.1,0.4c-0.6,1-2.3,1.4-3.6,1.4c-3.5,0.2-15.2,1-17.8-2.1
				c-0.8-0.9-2-1.3-3.2-1.1c-6.5,1.4-11.4-0.1-17.7,0.5c-4.5,0.4-9,1.5-13.6,1.5c-3.4,0-6.8-0.7-10.2-0.9c-3.8-0.3-7.6,0-11.3,0.8
				c-2.7,2.6-7.7,2-9.8-1.1c-4.1,0.8-8.4,0.9-12.6,0.4l-2.1,2.5c-0.5-1.3-2.2-1.4-3.5-1.4c-3.4,0.1-9.7,1.7-11.4-1.9
				c1.5,3.3-14.3,0.7-15.1,0.4c-3.4-1-8.1-4.6-11.3-1.8c-1-1.3-2.4-2.3-4-2.6c-0.7,2.3-3.7,2.8-6.1,2.5c-2.4-0.3-5-1-7,0.2
				c0-1.5-2.1-1.9-3.5-1.7c-0.8,0.1-1.7,0.3-2.5,0.3c-2,0.1-5.3,0.2-7.3,0.2l-1.9,0.3c-3.3,0.6-6.6,1.2-9.9,1.1
				c-2.4-0.1-4.9-0.5-7.3,0.2c-1.2,0.4-2.3,1-3.6,1c-1.2,0-2.4-0.6-3.6-0.7c-1.2-0.1-2.7,0.7-2.6,1.9c-1.3-1.5-3.3-3.1-5.1-2.2
				c-0.6,0.3-1.1,0.8-1.7,1.1c-1.6,0.7-3.3-0.9-4.3-2.3c2,2.7-14.5,1.8-14.6,1.7c-7.2-0.7-14.5-1.6-21.7-2
				c-13.1-0.7-26.5-1.3-39.4,1.3c-11.5,2.3-22.7,7.6-30.4,16.3c-1.5,1.7-0.9,4.4,1.2,5.2c8.7,3.4,18.4,3.8,27.8,4.1
				c28.2,0.9,56.5,1.7,84.7,2.6c84.7,2.6,169.4,5.2,254.1,7.7c9.7,0.3,19.4,0.6,28.9-0.7c10-1.4,19.7-4.5,29.7-5.6
				c12.7-1.4,25.5,0.5,38.3,0.3s26.3-3.1,35.3-12.2C763.6,1326.3,766.1,1316.2,764.6,1318z"/>
			<path class="st7" d="M578,1377.5c11.5-3.2,23.8-4.1,34.5-9.2c5.3-2.5,10.1-6.1,15.5-8.2c5.1-2,10.6-2.8,16-3.5
				c8.1-1.1,16.2-2.2,24.2-3.3c12.6-1.7,26.4-4.1,34.7-13.8c0.8-1,1.6-2,1.8-3.2c0.6-2.9-1.9-5.7-4.8-6.5c-2.9-0.8-5.9-0.2-8.8,0.4
				c-16.6,3.4-33.5,4.9-50.5,4.6c-8.3-0.1-16.6-0.8-24.9-1.7c-5.9-0.6-13.2-0.9-18.4,2.3c-3.7,2.2-5.9,3.6-10.4,3.7
				c-3.1,0-7.5-1.1-9.2,2.5c-0.4,0.9-0.7,2-1.6,2.4c-1.2,0.5-2.8-0.9-3.9-0.2c-0.7,0.5-0.7,1.4-1.3,2c-1.1,1.1-2.9,0.1-4.5,0.2
				c-2,0.1-3.3,2.2-5.2,3c-0.9,0.4-2,0.5-3,0.5c-4.2,0.2-8.5,0.4-12.7,0.6c-0.6,0-1.3,0.1-1.8,0.4c-0.5,0.4-0.8,1-1.1,1.5
				c-1.8,2.8-5.7,3.2-9,3s-7.1-0.4-9.5,2c-3.4,3.3-7.9,1.9-12.4,2.6c-5.2,0.9-9.5,4.3-14.7,4.9c-3.5,0.4-5.5-0.3-8.5,2.2
				c-1.4,1.1-1.6,2.9-3.6,3.1c-1.8,0.2-2.9-2.4-4.9-1.8c-1.5,0.4-1.9,2.6-3.4,3c-1.1,0.3-2.2-0.4-3.2-1c-1-0.6-2.4-0.8-3.1,0.1
				c-0.3,0.4-0.3,0.9-0.6,1.3c-1.1,1.6-4.2-0.3-5.5,1.2c-0.6,0.6-0.5,1.7-1.2,2.2c-0.9,0.7-2.3,0-3.2,0.5c-0.5,0.3-0.8,0.9-1.3,1.4
				c-1.5,1.6-4.1,0.4-6.2-0.1c-3.5-0.8-5.4,1.1-8.3,2.1c-3,1.1-6.4,1.5-9.4,2.2c-6.3,1.5-13.4,3.3-16.6,8.9"/>
		</g>
	</g>
</g>
</svg>
