<svg xmlns="http://www.w3.org/2000/svg" viewBox="0 0 1919.24 159.43"><defs><style>.cls-1{fill:#fff8de;}.cls-2{fill:#785b42;}.cls-3{fill:#d85b4d;}.cls-4{fill:#fef7df;}.cls-5{fill:#76a075;}.cls-6{fill:none;stroke:#fef7df;stroke-miterlimit:10;stroke-width:2px;}.cls-7{fill:#2a5f86;}.cls-8{fill:#f3b744;}</style></defs><title>Asset 3</title><g id="Layer_2" data-name="Layer 2"><g id="Layer_1-2" data-name="Layer 1"><path class="cls-1" d="M1919.24,0H0V112.36H121.36a72.45,72.45,0,0,0,135.7,0H1919.24Z"/><path class="cls-2" d="M154.24,134.79l2.19-4,1,.54-2,3.76a.41.41,0,0,0,.18.64l.42.23-.43.79-.85-.47a1,1,0,0,1-.62-1.27.91.91,0,0,1,.11-.22"/><path class="cls-2" d="M157.73,135.6a1.17,1.17,0,0,1,1.29-.83l-.9-.73.49-1.06a3.84,3.84,0,0,1,1.35-.14,4.24,4.24,0,0,1,1.52.41,3,3,0,0,1,1.53,1.3,2.07,2.07,0,0,1-.14,1.83l-1.48,3.18-1-.48,1.49-3.21a1.31,1.31,0,0,0,.12-1.06,1.79,1.79,0,0,0-.92-.75,3.16,3.16,0,0,0-.94-.27,1.84,1.84,0,0,0-.81,0l-.08.17.95.78-.32.68a1,1,0,0,0-.66.06,1.11,1.11,0,0,0-.44.56l-.86,1.84-1-.48Z"/><path class="cls-2" d="M163.77,140a2.14,2.14,0,0,1,0-1.85L165,134.9l1.07.38-1.2,3.29a1.3,1.3,0,0,0,0,1.09,1.53,1.53,0,0,0,.91.68,1.57,1.57,0,0,0,1.13.06,1.41,1.41,0,0,0,.69-.84l.25-.7-1.27-.46.3-.82,1.27.47.64-1.78,1.07.39-.64,1.78.58.21-.38.78-.5-.18-.24.66a2.14,2.14,0,0,1-1.22,1.39,2.82,2.82,0,0,1-2-.11,2.77,2.77,0,0,1-1.64-1.2"/><path class="cls-2" d="M170.21,142.09a3.12,3.12,0,0,1-.07-2.23,4.22,4.22,0,0,1,1-2,1.52,1.52,0,0,1,1.53-.41,1.45,1.45,0,0,1,.61.3,1.51,1.51,0,0,1,.34.52,1.55,1.55,0,0,1,.66-.24,1.84,1.84,0,0,1,.74,0,1.27,1.27,0,0,1,.87.64,1.68,1.68,0,0,1,0,1.17l-1.07,4.1-1.11-.29,1-3.94a1.22,1.22,0,0,0,0-.6c0-.13-.17-.22-.38-.28a.58.58,0,0,0-.41,0,.67.67,0,0,0-.34.28L173,139a1,1,0,0,0-.17-.42.56.56,0,0,0-.33-.21.73.73,0,0,0-.83.34,4.55,4.55,0,0,0-.6,1.46,2.47,2.47,0,0,0,0,1.52,1.27,1.27,0,0,0,.91.71,2.46,2.46,0,0,0,.72.1l-.22.84a3.18,3.18,0,0,1-.92-.11,2.14,2.14,0,0,1-1.32-1.09"/><path class="cls-2" d="M177.37,144.44a3.35,3.35,0,0,1-.8-.35l.16-.94a4.52,4.52,0,0,0,.8.38,4.74,4.74,0,0,0,.84.23,3.38,3.38,0,0,0,1.1,0,.57.57,0,0,0,.41-.48.62.62,0,0,0-.06-.42.72.72,0,0,0-.3-.3l-.63-.36-.38-.2a4,4,0,0,1-1.15-.85,1.21,1.21,0,0,1-.26-1,1.4,1.4,0,0,1,.77-1.08,2.8,2.8,0,0,1,1.74-.13,6.56,6.56,0,0,1,1.66.53l-.15.93a4.64,4.64,0,0,0-.72-.32,5.64,5.64,0,0,0-.78-.21,2.8,2.8,0,0,0-1,0,.5.5,0,0,0-.42.45.47.47,0,0,0,.08.38,1,1,0,0,0,.34.31l.68.39.29.14a3.88,3.88,0,0,1,1.17.88,1.54,1.54,0,0,1-.49,2.12l-.1.06a3.12,3.12,0,0,1-1.74.1,7.46,7.46,0,0,1-1.06-.26"/><path class="cls-2" d="M182.67,139.54l1,.09v.62a3,3,0,0,1,2.06-.56,1.82,1.82,0,0,1,1.35.65,2.13,2.13,0,0,1,.38,1.53l-.3,3.71-1.13-.09.3-3.66a1,1,0,0,0-1.08-1.25,1.83,1.83,0,0,0-.87.12,2,2,0,0,0-.74.43l-.33,4.14-1.14-.09Z"/><path class="cls-2" d="M192.86,142a1.31,1.31,0,0,0-.35-1,1.78,1.78,0,0,0-1.16-.27,3.38,3.38,0,0,0-1,.17,1.72,1.72,0,0,0-.71.4v.19l1.2.28v.75a1,1,0,0,0-.57.35,1.2,1.2,0,0,0-.16.69v.68a.49.49,0,0,0,.11.35.47.47,0,0,0,.33.09h.58v.9H190a1,1,0,0,1-.75-.28,1.08,1.08,0,0,1-.29-.76v-1a1.18,1.18,0,0,1,.81-1.31L188.7,142v-1.18a4.13,4.13,0,0,1,2.69-1,3,3,0,0,1,2,.5A2.09,2.09,0,0,1,194,142l.09,5.18H193Z"/><path class="cls-2" d="M196.47,144.88a2.12,2.12,0,0,1-.88-1.63l-.41-3.43,1.12-.13.42,3.47a1.34,1.34,0,0,0,.49,1,1.56,1.56,0,0,0,1.12.19,1.53,1.53,0,0,0,1-.46,1.31,1.31,0,0,0,.24-1l-.09-.74-1.34.16-.11-.86,1.34-.16-.22-1.87,1.13-.14.23,1.87.61-.08v.88l-.53.06.09.7a2.19,2.19,0,0,1-.47,1.79,3.42,3.42,0,0,1-3.79.46Z"/><path class="cls-2" d="M204.25,145.36a3.9,3.9,0,0,1,1.65-.76,3.59,3.59,0,0,1,.8-.11,2.13,2.13,0,0,1,.66.08l-1-4.5a1.4,1.4,0,0,0-.54-.91,1.71,1.71,0,0,0-1.14,0,3,3,0,0,0-.92.37,1.8,1.8,0,0,0-.6.53v.18h1.26l.17.73a.81.81,0,0,0-.43.44,1.42,1.42,0,0,0,0,.71l.17.73a1.1,1.1,0,0,1-.62,1.44,1,1,0,0,1-.3.08l-.69.16-.2-.88.38-.08a.46.46,0,0,0,.28-.17.53.53,0,0,0,0-.35l-.16-.69a1.94,1.94,0,0,1,0-.83,1,1,0,0,1,.47-.6H202.3l-.26-1.14a4,4,0,0,1,1-.93,4.23,4.23,0,0,1,1.45-.61,2.82,2.82,0,0,1,2,.11,2.14,2.14,0,0,1,1,1.52l1.24,5.4-1.11.25a3,3,0,0,0-1.58,0,3.41,3.41,0,0,0-.83.29,3.06,3.06,0,0,0-.71.45Z"/><polygon class="cls-2" points="202.29 137.31 205.53 136.39 205.29 135.55 206.2 135.29 206.66 136.89 202.46 138.09 202.29 137.31"/><path class="cls-2" d="M209.37,141.77l-.72-2.31a1.81,1.81,0,0,1-.07-1,4,4,0,0,1,.35-.89c.07-.15.14-.3.2-.46a.59.59,0,0,0-.27-.67,1,1,0,0,0-.54.06,2.34,2.34,0,0,0-1,.63l-.24-.8a2,2,0,0,1,.6-.48,3.31,3.31,0,0,1,.74-.34,1.63,1.63,0,0,1,1.15,0,1.08,1.08,0,0,1,.62.74,1.34,1.34,0,0,1,0,.63,4.22,4.22,0,0,1-.27.7,4,4,0,0,0-.27.8,1.33,1.33,0,0,0,0,.74l.62,2c.06.18.12.3.2.34a.62.62,0,0,0,.38,0l.46-.14.27.86-.93.28a1,1,0,0,1-1.29-.59.83.83,0,0,1,0-.15"/><path class="cls-2" d="M211,136.49l1.07-.41.64,1.66,1.52-.58a1.26,1.26,0,0,0,.7-.54,1.14,1.14,0,0,0-.06-.83l-.26-.69,1-.4.25.65a1.38,1.38,0,0,1-.25,1.7,1,1,0,0,1,.76.25,2.05,2.05,0,0,1,.48.75l.74,1.94-1,.41-.7-1.82a1.19,1.19,0,0,0-.51-.69,1.17,1.17,0,0,0-.88.09l-1.48.57,1.08,2.81-1.07.41Z"/><path class="cls-2" d="M221,138.34a3.33,3.33,0,0,1-1-.09l.22.58-.93.45-2.48-5.08,1-.5,1.83,3.75a2.44,2.44,0,0,0,.85.13,2,2,0,0,0,.85-.2,1.22,1.22,0,0,0,.67-.65,1.24,1.24,0,0,0-.14-.94l-1.6-3.29,1-.49,1.62,3.33a2.13,2.13,0,0,1,.21,1.58,1.92,1.92,0,0,1-1,1.11,3.07,3.07,0,0,1-1.1.31"/><polygon class="cls-2" points="219 130.26 220 129.72 220.81 131.23 219.81 131.77 219 130.26"/><polygon class="cls-3" points="141.44 79.28 141.71 55.3 150.56 49.48 158.84 55.53 158.57 79.48 141.44 79.28"/><polygon class="cls-3" points="152.81 79.41 152.93 69.09 161.78 63.27 170.05 69.33 169.86 86.34 152.81 79.41"/><rect class="cls-4" x="159.18" y="68.13" width="4.79" height="4.79" transform="translate(89.43 231.39) rotate(-89.43)"/><rect class="cls-4" x="147.94" y="54.36" width="4.79" height="4.79" transform="translate(92.07 206.51) rotate(-89.42)"/><path class="cls-3" d="M151.21,72.6l11.2-7.93h-1.09l10.76,8.17c1.1.84,2.18-1,1.09-1.85l-10.76-8.18a1,1,0,0,0-1.09,0l-11.19,7.93c-1.12.79,0,2.66,1.08,1.86"/><path class="cls-3" d="M139.82,58.81,151,50.88h-1.09l10.76,8.17c1.1.84,2.17-1,1.08-1.85L151,49a1,1,0,0,0-1.09,0l-11.17,8c-1.12.79-.05,2.66,1.08,1.86Z"/><path class="cls-5" d="M178.75,132.93a53.88,53.88,0,0,0,58-78.57,88.33,88.33,0,0,0-58,78.57"/><path class="cls-6" d="M215.69,92s-11-11.5-8-27.26"/><path class="cls-4" d="M207.71,96.88c3.1-3.4,6.13-7.06,9-10.74s5.67-7.51,8.31-11.41,5.08-7.93,7.37-12.06a108.54,108.54,0,0,0,5.91-12.88,108.33,108.33,0,0,1-4.79,13.43Q230.6,69.74,227.15,76t-7.39,12.28c-2.62,4-5.3,7.92-8.27,11.8Z"/><path class="cls-7" d="M189.4,94.55a87.81,87.81,0,0,1-53.71-18.23c-.09,1.26-.15,2.53-.15,3.8a53.87,53.87,0,1,0,107.73,1.47V80.12c0-1.27-.06-2.54-.15-3.8A87.86,87.86,0,0,1,189.4,94.55"/><path class="cls-8" d="M136.14,72.18a53.9,53.9,0,0,0,76.34,57.34,88.36,88.36,0,0,0-76.34-57.34"/><path class="cls-4" d="M146.62,81.63A16.26,16.26,0,0,1,149.17,84a29.57,29.57,0,0,1,2.08,2.65h-1.66a23.29,23.29,0,0,1,2-2.65,15.34,15.34,0,0,1,2.49-2.34,16.37,16.37,0,0,1-1.18,3.2,28.29,28.29,0,0,1-1.64,2.89L150.44,89l-.84-1.23a23.49,23.49,0,0,1-1.73-2.89,15.18,15.18,0,0,1-1.25-3.24"/><path class="cls-4" d="M150.31,80.07a5.64,5.64,0,0,1,.81,1.76,8.12,8.12,0,0,1,.25,1.77,7.09,7.09,0,0,1-.19,1.78,5.56,5.56,0,0,1-.76,1.79,5.22,5.22,0,0,1-.81-1.76,6.63,6.63,0,0,1-.24-1.77,7.58,7.58,0,0,1,.18-1.78,5.26,5.26,0,0,1,.76-1.79"/><path class="cls-4" d="M165.21,90.28a16.5,16.5,0,0,1,2.55,2.32,26.65,26.65,0,0,1,2.08,2.65h-1.66a23.29,23.29,0,0,1,2-2.65,14.48,14.48,0,0,1,2.48-2.34,16.57,16.57,0,0,1-1.17,3.2,26.6,26.6,0,0,1-1.65,2.89L169,97.61l-.84-1.23a25.67,25.67,0,0,1-1.73-2.89,16,16,0,0,1-1.22-3.21"/><path class="cls-4" d="M168.9,88.72a5.42,5.42,0,0,1,.81,1.76,7.35,7.35,0,0,1,.06,3.55,5.35,5.35,0,0,1-.76,1.79,5.52,5.52,0,0,1-.81-1.76,7.35,7.35,0,0,1,0-3.55,5.52,5.52,0,0,1,.7-1.79"/><path class="cls-4" d="M153.16,101.59a15.65,15.65,0,0,1,2.55,2.33,25.42,25.42,0,0,1,2.08,2.64h-1.65a24.52,24.52,0,0,1,2-2.65,16.17,16.17,0,0,1,2.48-2.34,15.15,15.15,0,0,1-1.17,3.2,26.6,26.6,0,0,1-1.65,2.89L157,108.9l-.84-1.22a24.8,24.8,0,0,1-1.73-2.89,15.43,15.43,0,0,1-1.26-3.2"/><path class="cls-4" d="M156.86,100a5.64,5.64,0,0,1,.81,1.76,7.57,7.57,0,0,1,.06,3.54,5.35,5.35,0,0,1-.76,1.79,5,5,0,0,1-.81-1.76,7.07,7.07,0,0,1-.25-1.77,7.58,7.58,0,0,1,.19-1.78,5.21,5.21,0,0,1,.76-1.78"/><path class="cls-4" d="M168.12,115.82a16.5,16.5,0,0,1,2.55,2.32,25.54,25.54,0,0,1,2.08,2.65H171.1a23.29,23.29,0,0,1,2-2.65,14.86,14.86,0,0,1,2.48-2.34,15.15,15.15,0,0,1-1.17,3.2,26.6,26.6,0,0,1-1.65,2.89l-.81,1.24-.84-1.23a23.49,23.49,0,0,1-1.73-2.89,15.13,15.13,0,0,1-1.26-3.19"/><path class="cls-4" d="M171.82,114.26a5.64,5.64,0,0,1,.81,1.76,7.61,7.61,0,0,1,.06,3.55,5.56,5.56,0,0,1-.76,1.79,5.22,5.22,0,0,1-.81-1.76,7.27,7.27,0,0,1-.06-3.55,5.26,5.26,0,0,1,.76-1.79"/><path class="cls-4" d="M181.94,102.28a15.21,15.21,0,0,1,2.56,2.32,25.16,25.16,0,0,1,2.07,2.65h-1.65a24.52,24.52,0,0,1,2-2.65,16.11,16.11,0,0,1,2.48-2.33,15.27,15.27,0,0,1-1.17,3.19,25,25,0,0,1-1.64,2.89l-.82,1.24-.84-1.22a24.8,24.8,0,0,1-1.73-2.89,15.43,15.43,0,0,1-1.26-3.2"/><path class="cls-4" d="M185.64,100.72a5.64,5.64,0,0,1,.81,1.76,7.55,7.55,0,0,1,.24,1.77,6.65,6.65,0,0,1-.18,1.78,5.51,5.51,0,0,1-.76,1.78,5,5,0,0,1-.81-1.76,6.63,6.63,0,0,1-.24-1.77,7.58,7.58,0,0,1,.18-1.78,5.21,5.21,0,0,1,.76-1.78"/><path class="cls-4" d="M194,118.82a15.15,15.15,0,0,1,2.55,2.32,24.26,24.26,0,0,1,2.08,2.65H197a24.52,24.52,0,0,1,2-2.65,15.64,15.64,0,0,1,2.48-2.33,16.57,16.57,0,0,1-1.17,3.2,26.46,26.46,0,0,1-1.65,2.88l-.81,1.24-.85-1.22a25.82,25.82,0,0,1-1.7-2.92,15.32,15.32,0,0,1-1.3-3.17"/><path class="cls-4" d="M197.74,117.26a5.64,5.64,0,0,1,.81,1.76,7.61,7.61,0,0,1,.06,3.55,5.51,5.51,0,0,1-.76,1.78,5.25,5.25,0,0,1-.82-1.76,7.55,7.55,0,0,1-.24-1.77A7.09,7.09,0,0,1,197,119a5.21,5.21,0,0,1,.76-1.78"/><path class="cls-3" d="M153.76,38.22c.1-3.33,1.85-4.58,4.52-4.51a3.73,3.73,0,0,1,2.88,1.09V33.35c0-1.48-.71-2.29-2.54-2.34a4.67,4.67,0,0,0-3.34,1.12l-1.17-1.69a7.53,7.53,0,0,1,5-1.45,6.73,6.73,0,0,1,2.61.53,2.38,2.38,0,0,0,.69-1.12l2.35.57a3.34,3.34,0,0,1-1.2,2,3.79,3.79,0,0,1,.66,2.42L164,41.15l-2.89-.08c.1-3.88-.63-5.29-2.77-5.35-1.08,0-1.75.28-1.86,1.27,1.63-.09,2.34.66,2.3,2.18s-.63,2.15-2.58,2.1-2.49-1.06-2.44-3.05m3.42.84c0-.61-.17-.82-.86-.84s-.88.18-.9.8.2.88.86.9.89-.19.9-.86"/><path class="cls-3" d="M161,46.23a1.84,1.84,0,0,1-2-1.65,1.42,1.42,0,0,1,0-.46c0-1.41.57-2.19,2.48-2.14s2.41.89,2.36,2.58l-.1,3.6L161,48.08Zm1.2-2c0-.66-.18-.86-.86-.88s-.89.17-.9.83.17.83.86.84.91-.17.93-.79Z"/><path class="cls-8" d="M166.15,37.32v-.9a4,4,0,0,1,1.36-2.88c-1.32-.12-1.74-.77-1.71-2.18s.61-2.15,2.55-2.1,2.5.65,2.46,2.3v.77c0,1.48-1.6,1.77-1.65,3.82v1.39c0,1.23.16,2.08,1.91,2.12s2-.78,2-2l.22-7.91,3,.08L176,37.46c-.07,2.47-1.29,4.31-5.06,4.21s-4.85-2.16-4.79-4.35m3-5.81c0-.66-.17-.86-.85-.88s-.91.17-.93.84.2.82.88.84.91-.18.92-.8Z"/><path class="cls-5" d="M180.29,35.47A1.88,1.88,0,0,1,178,34.21a1.76,1.76,0,0,1-.07-.4c-.25-1.43.16-2.27,2.09-2.61s2.63.31,2.94,2l.91,5.1.87-4.18,1.12-.21,2.33,3.62-1.29-7.25,2.93-.52,2.05,11.48-3,.54-3-4.49-1.2,5.23-3,.54Zm.89-2.22c-.12-.65-.35-.81-1-.69s-.84.35-.72,1,.34.77,1,.65.82-.35.72-1"/><path class="cls-7" d="M192.92,37.41l-.23-1.31c-.31-1.71.14-2.58,2.05-2.92s2.61.3,2.86,1.73-.6,2-1.81,2.26l.05.3c.16.89.87,1.23,2.3,1s2.11-.91,1.94-1.85l-.8-4.49C199,30.59,198,30,196.1,30.37a4.89,4.89,0,0,0-3,1.72l-1.48-1.37a7.72,7.72,0,0,1,4.55-2.4c3.91-.7,5.61.7,6.07,3.24l.77,4.37c.27,1.52-.49,3.78-4.48,4.49s-5.25-1-5.61-3m3.15-2.2c-.12-.65-.35-.81-1-.69s-.84.35-.72,1,.34.77,1,.65S196.18,35.82,196.07,35.21Z"/><path class="cls-5" d="M168.69,58.15a1.89,1.89,0,0,1-2.37-1.25,1.59,1.59,0,0,1-.07-.38c-.27-1.43.14-2.27,2.07-2.63s2.65.28,3,2l.5,2.67,1.2-3.48c.54-1.57,1.19-2.29,2.51-2.54A2.06,2.06,0,0,1,178,54a2.63,2.63,0,0,1,.06.39l1.8,9.51-2.92.56-1.56-8.24c0-.24-.1-.31-.28-.28s-.26.18-.4.61l-2.12,6.11.48,2.53-2.93.55Zm.84-2.23c-.12-.65-.35-.8-1-.68s-.83.36-.7,1,.34.77,1,.64.82-.35.7-1"/><path class="cls-7" d="M171.27,48a4.77,4.77,0,0,1,3,.29l-.3-1.59,2.53-.47.93,4.89-10.55,2c-.29-2.76,1.62-4.56,4.39-5.12m3.18,2.18c-.52-.69-1.66-.81-2.87-.58s-2.15.75-2.23,1.55Z"/><polygon class="cls-8" points="173.26 42.99 175.8 42.51 176.36 45.45 173.82 45.93 173.26 42.99"/><path class="cls-3" d="M183.83,54a2.18,2.18,0,0,1-2.19-2.17,1.83,1.83,0,0,1,.05-.47c.19-1.69.93-2.49,3.2-2.23s2.84,1.22,2.62,3.24l-.68,6L189.19,54l1.33.15,1.4,4.81,1-8.54,3.45.39-1.52,13.53-3.53-.4-1.83-6-3.08,5.46-3.55-.4Zm1.72-2.18c.09-.77-.12-1-.91-1.12s-1,.12-1.14.89.13,1,.92,1.06,1.05-.12,1.13-.83"/><polygon class="cls-5" points="193.51 44.7 196.96 45.08 196.48 49.3 193 48.91 193.51 44.7"/><path class="cls-8" d="M197.31,60.4l.17-1.53c.23-2,1-2.84,3.27-2.59s2.82,1.2,2.63,2.89-1.35,2.08-2.78,1.91v.36c-.12,1,.56,1.67,2.25,1.86s2.65-.32,2.77-1.42l.6-5.3c.2-1.79-.73-2.75-3-3a5.77,5.77,0,0,0-4,.93l-1.2-2a9,9,0,0,1,5.88-1.17c4.61.51,6,2.64,5.72,5.64L209,62.12c-.2,1.79-1.81,4.07-6.51,3.54s-5.53-2.85-5.22-5.26M201.56,59c.08-.77-.12-1-.91-1.11s-1.05.11-1.14.88.13,1,.92,1.06,1-.11,1.13-.83"/><path class="cls-7" d="M212,57l-1.7-5.75c-.63-2.14,1.66-4,1.15-5.75-.22-.76-.71-1-1.6-.74s-1.21.81-1,1.6l.21.72-2.86.84-.22-.74c-.6-2,1-3.69,3.31-4.36,2.84-.84,4.38,0,4.92,1.86.62,2.07-1.59,4-1.05,5.83l1.17,4a1.84,1.84,0,0,1,2.44,1,2,2,0,0,1,.13.41c.41,1.39.1,2.27-1.78,2.82S212.48,58.64,212,57m3.42-.71c-.17-.59-.42-.73-1.07-.53s-.79.44-.62,1,.44.77,1.09.57.77-.43.58-1.06Z"/><path class="cls-5" d="M219.16,49.05a1.88,1.88,0,0,1-2.47-1,1.46,1.46,0,0,1-.12-.39c-.41-1.4-.1-2.27,1.79-2.83s2.67,0,3.16,1.69l1.54,5.18,1.17-3.82a1.75,1.75,0,0,1,.38-.71c-.69-.08-1.19-.48-1.48-1.43-.41-1.39-.14-2.28,1.74-2.84s2.57-.18,3,1.43a1.69,1.69,0,0,1-.5,2c.56.11.94.53,1.17,1.31l1.81,6.11-2.86.85-1.44-4.87c-.06-.23-.13-.3-.26-.26s-.18.17-.27.47l-1.69,5.74-2.51.75Zm.61-2.29c-.19-.64-.43-.77-1.09-.58s-.79.44-.6,1.08.42.72,1.08.53.84-.44.61-1m6.6-2c-.19-.63-.46-.76-1.11-.57s-.79.45-.6,1.08.42.73,1.07.53.82-.4.64-1Z"/><path class="cls-3" d="M220.84,41.56c.57-.16.91-.31.94-.69a1.43,1.43,0,0,1-2-.46,1.31,1.31,0,0,1-.2-.54c-.36-1.2.12-1.83,1.5-2.23s2.09-.09,2.45,1.13a2.32,2.32,0,0,1,0,1.68c1.24-.55,1.42-1.34,1-2.77l-.11-.38,2.11-.63.13.44A3.81,3.81,0,0,1,224.43,42a3,3,0,0,1-.4.12l-2.77.82Zm1.47-2.48c-.16-.53-.39-.62-.92-.46s-.68.36-.52.89.35.63.92.46.67-.38.52-.89"/><path class="cls-6" d="M225.12,76.69s-6.79-7.12-5-16.87"/><path class="cls-6" d="M229.87,68.9s7.38.21,12.41-3.46"/></g></g></svg>