<?xml version="1.0" encoding="utf-8"?>
<!-- Generator: Adobe Illustrator 22.0.1, SVG Export Plug-In . SVG Version: 6.00 Build 0)  -->
<svg version="1.1" id="Layer_1" xmlns="http://www.w3.org/2000/svg" xmlns:xlink="http://www.w3.org/1999/xlink" x="0px" y="0px"
	 viewBox="0 0 1920 1080" style="enable-background:new 0 0 1920 1080;" xml:space="preserve">
<style type="text/css">
	.st0{fill:#BF7C40;}
	.st1{fill:#F5D068;}
	.st2{fill:#89BE86;}
	.st3{fill:#FCBC03;}
	.st4{fill:#F3D261;}
	.st5{fill:none;stroke:#000000;stroke-width:1.3243;stroke-linecap:round;stroke-linejoin:round;stroke-miterlimit:10;}
	.st6{fill:#FBCF66;}
	.st7{fill:#E9DB82;}
	.st8{fill:none;}
</style>
<g>
	<g>
		<g>
			<path class="st0" d="M425,870.9c-148.8-3.6-315.4-45.5-345,14.7c-16.2,33,16,73.8-7.4,123.9c-9.4,20.1-30.1,38.8-72.6,53.8V360.8
				c75.4,36.4,192.5,90.1,339.7,145.1c373.9,139.8,579.5,153.2,579.8,210.2C919.9,778.9,671,876.8,425,870.9z"/>
			<g>
				<path class="st1" d="M142.1,375.8c5.1,45.4,12.4,110.1,14.1,118c-0.3,3.1-0.6,6.1-0.9,8.9l0,0c-0.2,2.3-0.5,4.5-0.7,6.6
					c-0.6-0.1-1.2-0.3-1.8-0.5c-0.9-0.2-1.7-0.5-2.4-0.9c-0.9-0.4-1.8-0.8-2.7-1.4c-12.4-54.2-44.3-202.7-40-274.7l16.7,56
					C132.8,316.6,138.8,346.1,142.1,375.8z"/>
				<path class="st2" d="M156.2,493.8c-0.1-0.2-0.1-0.5-0.1-0.7c-11.9-71.3-35.8-282.4-34.9-307.2c0,0,8.8,41.7,18,88.4
					c0,0.1,0,0.2,0,0.2c0,0.1,0,0.2,0,0.2c2.7,13.8,5.4,28,8,41.8c4.9,26.1,9.1,50.3,11.2,66.1c1.3,10,1.9,21.4,1.9,33.3v0.2
					C160.5,442.8,158.3,472.1,156.2,493.8z"/>
				<path class="st3" d="M155.3,502.7c0.3-2.8,0.6-5.8,0.9-8.9c2.1-21.8,4.3-51.1,4.1-77.8c1.8-13.5,6.1-39.6,10.8-67.2
					c11.1-64.6,26.2-148.2,26.4-155.4C211.8,344.4,156.5,499.3,155.3,502.7z"/>
				<path class="st4" d="M175.4,123.5c0,0-1.4,53.9-3.3,164.7v0.1c-0.3,18.6-0.7,38.8-1,60.6c-4.7,27.6-9,53.7-10.8,67.2v-0.2
					c-0.1-12-0.7-23.3-1.9-33.3c-2.1-15.8-6.3-40-11.2-66.1C148,284.8,152.7,165,175.4,123.5z"/>
				<path class="st5" d="M197.4,192.9c0.1,0,0.1,0.2,0.1,0.5C197.4,193.3,197.4,193.1,197.4,192.9z"/>
				<path class="st6" d="M330.2,83.4c-0.2,0-0.4,0.1-0.7,0.1c-4.3,0.5-8.5,1.1-12.5,1.8L330.2,83.4z"/>
				<g>
					<path class="st7" d="M172.1,288.2c1.2-11,2.8-21.9,4.8-32.8c2.1-10.9,4.6-21.6,7.7-32.3c3-10.6,6.7-21.1,11-31.3
						c2.1-5.1,4.4-10.1,6.9-15.1c2.5-4.9,5.1-9.9,7.9-14.6c5.7-9.5,12-18.6,19.3-27s15.3-16.1,24.1-22.8
						c8.8-6.7,18.5-12.3,28.6-16.8c5.1-2.2,10.3-4.1,15.6-5.7c5.3-1.7,10.7-2.7,16.1-4c-21.6,4.6-42.2,13.8-59.7,27.3
						s-31.8,30.7-42.9,49.7c-2.9,4.7-5.4,9.6-7.9,14.5c-2.4,4.9-4.8,9.9-6.9,15c-4.3,10.2-7.9,20.6-11.1,31.1
						c-3.2,10.6-5.8,21.3-8,32.1C175.3,266.4,173.5,277.3,172.1,288.2z"/>
				</g>
				<g>
					<path class="st7" d="M139.2,272.5c-2.9-26.2-3-52.7-0.5-78.9c1.3-13.1,3.3-26.2,6.2-39.1c2.9-12.9,6.8-25.5,11.8-37.8
						c5.1-12.2,11.4-23.9,19.1-34.6c7.8-10.7,17-20.4,27.6-28.2c5.3-3.9,10.9-7.4,16.8-10.5c5.8-3.1,12-5.6,18.2-7.7
						c12.5-4.2,25.6-6.4,38.8-7.2c-13.1,1-26.2,3.5-38.6,7.8c-6.2,2.2-12.3,4.7-18,7.8c-5.8,3.1-11.4,6.6-16.6,10.5
						c-10.5,7.9-19.6,17.5-27.3,28.1s-13.9,22.3-18.9,34.4c-10.1,24.3-15.5,50.3-18.3,76.4c-1.4,13.1-2.1,26.2-2.2,39.4
						C137.4,246.2,137.8,259.4,139.2,272.5z"/>
				</g>
				<path class="st6" d="M317,85.3c-0.7,0.4-1.5,0.7-2.3,0.8L317,85.3z"/>
				<path class="st8" d="M314.1,85.8c0.2,0.1,0.4,0.2,0.6,0.3c0.2,0.1,0.5,0.1,0.7,0.1"/>
				<path class="st6" d="M297.6,90.1c-2.1-4.3,1.1-9.3,4.2-13c0.4-0.5,0.9-1,1.5-1.1c1.4-0.2,2.1,1.7,2.2,3.2c0.2,2.4,0.3,5-0.6,7.3
					s-3.3,4.1-5.7,3.7L297.6,90.1z"/>
				<path class="st8" d="M276.5,99.2L276.5,99.2c-0.2,0-0.4,0.1-0.6,0.1"/>
				<path class="st8" d="M268.3,101.4c0.3-0.1,0.5-0.3,0.8-0.4l0,0l0,0"/>
				<path class="st6" d="M258.9,108.4c0.1,0.2,0.2,0.4,0.3,0.6c0.3,0.5,0.5,1,0.9,1.4c-0.2,0.2-0.4,0.3-0.6,0.4L258.9,108.4z"/>
				<path class="st6" d="M263.1,105.6c-0.3,0.2-1,0.2-1.8,0c-0.3,0.8-0.6,1.5-0.9,2.3L263.1,105.6z"/>
				<path class="st8" d="M247,121.4C247.1,121.4,247.1,121.4,247,121.4c0.1,0.4,0.3,0.7,0.6,0.8"/>
				<path class="st6" d="M248.2,114.1c-0.7-0.1-1.3-0.3-1.8-0.6c-0.2,0.4-0.4,0.8-0.6,1.1L248.2,114.1z"/>
				<path class="st6" d="M250.8,129.8c1.1,2.3-1.6,4.9-4.2,4.9c-2.5-0.1-9.7-2.5-11.6-4.2c3.3-3.1,8.3-4.3,12.6-3
					C248.9,127.9,250.2,128.6,250.8,129.8z"/>
				<path class="st6" d="M291.7,106.3c-2.3,1.9-5.9,1.7-8.6,0.2c-2.6-1.5-4.9-4.8-6.7-7.3c3.6-0.5,7.2-0.8,10.9-1.1
					c1.4-0.1,2.9-0.2,4.2,0.5C294.2,100,294,104.4,291.7,106.3z"/>
				<path class="st6" d="M309.1,95.9c0.8,2.3-1,5.3-3.4,5.1c-1.3-0.1-2.3-0.9-3.3-1.7c-1.9-1.6-4.2-4.1-6.1-5.7
					c2.3-0.8,4.6-1.6,7.1-1.4C305.8,92.2,308.3,93.6,309.1,95.9z"/>
				<path class="st6" d="M328.3,96c-0.9,2.8-4.9,2.8-7.3,1.2c-3.4-2.4-4.9-7.2-3.5-11.1c2.7,0,5,3.1,7.4,4.3
					C327,91.5,329,93.7,328.3,96z"/>
				<path class="st6" d="M265.4,120.9c0.3,0.4,0.5,0.9,0.4,1.3s-0.5,0.7-0.9,1c-5.3,3.2-12.1,0.7-17.8-1.8c-0.2-0.6,0-1.3,0.5-1.8
					c0.7-0.8,1.7-1,2.7-1.2c2.7-0.6,5.4-1.2,8.1-1S263.8,118.7,265.4,120.9z"/>
				<path class="st6" d="M281.7,92.4c-0.4-5.4,2.1-10.8,6.4-14c0.7-0.5,1.5-1,2.3-1c1.3,0.1,2.3,1.3,2.5,2.5
					c0.3,1.2-0.1,2.5-0.4,3.8c-0.7,2.4-1.5,5-3.3,6.8C287.4,92.3,283.6,94,281.7,92.4z"/>
				<path class="st6" d="M273.1,112.6c-1,2.3-4.2,2.9-6.7,2.2c-2.5-0.7-4.8-2.3-6.4-4.4c2.4-1.7,5.5-4,8.3-3.8
					C271.4,106.7,274.3,109.8,273.1,112.6z"/>
				<path class="st6" d="M256.6,100.9c-0.1-2.4-0.1-5,1.4-7c1.5-1.9,5-2.4,6.1-0.3c0.7,1.3,0.3,2.9-0.1,4.2
					c-0.8,2.6-1.6,5.2-2.6,7.7c-1.6-0.3-3.8-1.2-4.1-1.8C256.7,103,256.6,101.9,256.6,100.9z"/>
				<path class="st6" d="M243,107.8c-0.2-3,0.9-5.8,2-8.6c0.4-0.9,0.8-1.8,1.5-2.4c0.8-0.6,2-0.6,2.5,0.2c0.2,0.3,0.3,0.7,0.3,1.1
					c0.6,5.3-0.5,10.7-2.9,15.3C244.4,112.5,243.2,110.1,243,107.8z"/>
				<path class="st6" d="M317,85.3c-1,0.2-1.9,0.4-2.9,0.6c-1-0.6-1.6-1.8-1.6-3c0-1.6,0.9-3.2,2-4.4c2-2.4,4.7-4.3,7.7-5.3
					C323.5,77.3,320.9,83.1,317,85.3z"/>
				<path class="st6" d="M338.7,85.5c-2.8,0.8-7.7,1.6-9.2-0.8c-0.1-0.4-0.1-0.8,0-1.2c0.3-3,3.4-5.4,6.4-6.5c1.6-0.6,3.3-1.1,5-0.8
					c1.7,0.3,3.3,1.4,3.7,3.1C345.3,82.4,341.8,84.7,338.7,85.5z"/>
				<path class="st6" d="M274.8,89.5c0.5,4.5-1.9,9.2-5.8,11.5c-1.8-4-1.8-9.5,0.6-13c0.6-0.9,1.5-1.8,2.7-1.8
					C273.8,86.2,274.6,88,274.8,89.5z"/>
				<path class="st6" d="M240,123.1c1.9-4.8,0.4-10.8-3.5-14.2c-0.7,2.8-1.5,5.8-1,8.6s2.7,5.7,5.6,5.9L240,123.1z"/>
				<path class="st6" d="M294.1,26.3c-0.8,1.3-1.8,2.5-2.9,3.6c-2,1.9-4.6,3.5-7.3,3.4c-2.7,0-5.5-1.9-5.9-4.6
					c4.4-2.3,9.2-4,14.2-4.7c0.9-0.1,2.2,0,2.4,0.9C294.6,25.4,294.3,25.9,294.1,26.3z"/>
				<path class="st8" d="M277.8,28.6c0,0.1,0,0.1,0,0.1c-0.4,0.2-0.8,0.4-1.2,0.6"/>
				<path class="st6" d="M262.7,32.1c4.6-4,7.6-10,7.9-16.1c-4.9,2.3-8.7,6.9-10,12.2c-0.2,0.9-0.4,1.9,0.1,2.8
					c0.4,0.8,1.6,1.3,2.4,0.7L262.7,32.1z"/>
				<path class="st6" d="M262,41.6c-0.3,3-4.4,4.3-7.2,3.1s-4.7-3.8-6.8-6c2.1-0.7,7.9-2.1,10-1.7C260.2,37.5,262.2,39.4,262,41.6z"
					/>
				<path class="st8" d="M251.2,32.4c-0.5-0.3-0.9-0.6-1.3-0.9c0,0.1-0.1,0.1-0.1,0.2"/>
				<path class="st6" d="M204.5,68.5c0.9,1,0.4,2.6-0.5,3.7c-3.1,3.9-9.6,4.3-13.3,1c2.8-3.5,7.2-5.6,11.7-5.4
					C203.2,67.9,204,68,204.5,68.5z"/>
				<path class="st6" d="M219.2,57.9c0,0.4-0.2,0.7-0.4,1c-1.6,2.5-4.6,4-7.5,3.9c-2.9-0.2-5.7-2-7-4.6c3.5-2.4,9.1-2.4,13.2-1.6
					C218.3,56.7,219.2,57.1,219.2,57.9z"/>
				<path class="st6" d="M246,45.5c-0.1,3.2-4.7,4.4-7.6,2.9c-2.9-1.5-4.5-4.5-6.8-6.8c2-0.7,8.2-0.7,10.3-0.3
					C244,41.6,246.1,43.3,246,45.5z"/>
				<path class="st6" d="M228.6,49.1c1.6,1.9-0.9,5-3.3,4.9c-2.5-0.1-6.8-2.4-8.5-4.2c2.6-1.6,5.7-2.3,8.7-2
					C226.6,47.9,227.9,48.2,228.6,49.1z"/>
				<path class="st8" d="M222,45c0.2,0,0.4,0,0.6-0.1c0.1-0.1,0.1-0.2,0.2-0.4"/>
				<path class="st6" d="M254.3,20c-1,4-2.5,7.8-4.4,11.5c-1.9-1.6-3.1-4.1-3-6.6c0.2-3,2.2-5.9,5-7c0.7-0.3,1.7-0.4,2.2,0.2
					C254.6,18.6,254.5,19.4,254.3,20z"/>
				<path class="st6" d="M239.1,29.8c-1,2.1-2.3,4.3-1.7,6.6c-2.9-0.5-5.4-3.9-5.3-6.9c0.1-1.8,0.4-3.8,1.6-5.1
					c1.2-1.4,3.4-2,4.9-0.9C240.6,24.8,240.1,27.7,239.1,29.8z"/>
				<path class="st6" d="M227,33.5c0.5,1.1,0,2.4-0.5,3.6c-0.9,2-2.8,5.4-3.7,7.6c-0.3,0.1-0.5,0.3-0.8,0.4
					c-1.8-0.1-3.3-1.7-3.6-3.6c-0.4-2,0.5-4,1.4-5.8c0.8-1.4,1.7-2.7,3.1-3.4C224.4,31.6,226.4,32,227,33.5z"/>
				<path class="st6" d="M195.5,51.7c0.4,2.5,0.1,8.4-1.3,10.6c-1.8,0.3-3.5-1.1-4.1-2.7c-0.7-1.6-0.6-3.5-0.4-5.3
					c0.2-1.4,0.4-2.9,1.3-3.9c0.9-1.1,2.7-1.5,3.7-0.6C195.2,50.2,195.4,51,195.5,51.7z"/>
				<path class="st6" d="M212.5,43.6c-0.2,2.1-4.2,6.5-5.6,8.1c-0.9,0.7-2.4,0.1-2.9-1s-0.3-2.3,0-3.5c0.5-1.7,1.2-3.4,2-5
					c0.6-1.1,1.5-2.3,2.8-2.6C210.9,39.1,212.7,41.5,212.5,43.6z"/>
				<path class="st8" d="M190.5,72.9c0.1,0.1,0.2,0.2,0.3,0.3c-0.2,0.2-0.3,0.4-0.4,0.6"/>
			</g>
		</g>
	</g>
</g>
</svg>
