<?xml version="1.0" encoding="utf-8"?>
<!-- Generator: Adobe Illustrator 23.0.6, SVG Export Plug-In . SVG Version: 6.00 Build 0)  -->
<svg version="1.1" id="Layer_1" xmlns="http://www.w3.org/2000/svg" xmlns:xlink="http://www.w3.org/1999/xlink" x="0px" y="0px"
	 viewBox="0 0 1920 1080" style="enable-background:new 0 0 1920 1080;" xml:space="preserve">
<style type="text/css">
	.st0{display:none;}
	.st1{display:inline;}
	.st2{fill:#F5B843;}
	.st3{fill:#5E877E;}
	.st4{fill:#98C29C;}
	.st5{fill:#F9DA4A;}
	.st6{fill:none;stroke:#BF7C40;stroke-width:10.3428;stroke-linejoin:round;stroke-miterlimit:10;}
	.st7{fill:#A16C44;}
	.st8{fill:#4D4032;}
	.st9{fill:#775A41;}
	.st10{fill:#EBC081;}
	.st11{fill:#BF7C40;}
	.st12{fill:#B5BE6D;}
	.st13{fill:#F5D068;}
	.st14{fill:#89BE86;}
	.st15{fill:#FCBC03;}
	.st16{fill:#F3D261;}
	.st17{fill:none;stroke:#000000;stroke-width:1.3243;stroke-linecap:round;stroke-linejoin:round;stroke-miterlimit:10;}
	.st18{fill:#FBCF66;}
	.st19{fill:#E9DB82;}
	.st20{fill:none;}
	.st21{fill:#77A275;}
	.st22{fill:#537D41;}
	.st23{fill:#478A71;}
	.st24{fill:#D75B4D;}
	.st25{fill:#F8DA4B;}
</style>
<g id="Layer_4" class="st0">
	<g class="st1">
		<g>
			<g>
				<g>
					<path class="st2" d="M1919.6,312.9c0,0-254-14.4-633.3,198.9s-823-44.8-1055.1,73.5c-129.2,65.9,132.3,170,389.7,249.3
						c244,75.2,499.8,104.2,754.5,85.8L1920,881L1919.6,312.9z"/>
				</g>
				<g>
					<path class="st3" d="M1588.3,379.7h15.5c0,0-0.9-29.2,8.2-41.1c0,0-6.4,9.1-8.2,13.7c0,0,1.8-19.2,2.7-20.1
						c0,0-6.4,12.8-9.1,25.6c0,0-2.7-32-0.9-35.6c0,0-6.4,16.4-3.7,31.1c0,0-6.4-21-12.8-24.7c0,0,8.2,16.4,8.2,25.6
						c0,0-7.3-12.8-10-11.9C1578.3,342.2,1589.3,357.7,1588.3,379.7"/>
					<path class="st3" d="M1870.2,432.6l10.9,1.2c0,0,3.4-39.1,12.4-46.4c0,0-9,6.4-13,17.9c0,0,0.6-22,2-26.4
						c0,0-7.5,10.2-7.3,24.9c0,0-1.1-14.8-9.9-18.5C1865.3,385.2,1874.8,399.1,1870.2,432.6"/>
					<path class="st4" d="M1855.2,327.5h15.5c0,0-0.9-29.2,8.2-41.1c0,0-6.4,9.1-8.2,13.7c0,0,1.8-19.2,2.7-20.1
						c0,0-6.4,12.8-9.1,25.6c0,0-2.7-32-0.9-35.6c0,0-6.4,16.4-3.7,31.1c0,0-6.4-21-12.8-24.7c0,0,8.2,16.4,8.2,25.6
						c0,0-7.3-12.8-10-11.9C1845.1,290,1856.1,305.6,1855.2,327.5"/>
					<g>
						<g>
							<path class="st5" d="M1884.8,582.2c3.1,0,6.1-2.8,6-6c-0.1-3.3-2.6-6-6-6c-3.1,0-6.1,2.8-6,6
								C1879,579.5,1881.5,582.2,1884.8,582.2L1884.8,582.2z"/>
						</g>
					</g>
					<g>
						<g>
							<path class="st5" d="M1884.8,846.1c2.4,0,4.6-2.1,4.5-4.5s-2-4.5-4.5-4.5c-2.4,0-4.6,2.1-4.5,4.5S1882.3,846.1,1884.8,846.1
								L1884.8,846.1z"/>
						</g>
					</g>
					<g>
						<g>
							<path class="st5" d="M1834.3,677.6c2.4,0,4.6-2.1,4.5-4.5s-2-4.5-4.5-4.5c-2.4,0-4.6,2.1-4.5,4.5S1831.8,677.6,1834.3,677.6
								L1834.3,677.6z"/>
						</g>
					</g>
					<g>
						<g>
							<path class="st5" d="M1846.5,775.6c3.9,0,7.7-3.4,7.5-7.5s-3.3-7.5-7.5-7.5c-3.9,0-7.7,3.4-7.5,7.5
								C1839.2,772.1,1842.3,775.6,1846.5,775.6L1846.5,775.6z"/>
						</g>
					</g>
					<g>
						<g>
							<path class="st5" d="M1720.9,840c2.4,0,4.6-2.1,4.5-4.5s-2-4.5-4.5-4.5c-2.4,0-4.6,2.1-4.5,4.5S1718.4,840,1720.9,840
								L1720.9,840z"/>
						</g>
					</g>
					<g>
						<g>
							<path class="st5" d="M1711.7,663.8c3.1,0,6.1-2.8,6-6c-0.1-3.3-2.6-6-6-6c-3.1,0-6.1,2.8-6,6
								C1705.9,661,1708.4,663.8,1711.7,663.8L1711.7,663.8z"/>
						</g>
					</g>
					<g>
						<g>
							<path class="st5" d="M1596.8,648.5c2.4,0,4.6-2.1,4.5-4.5s-2-4.5-4.5-4.5c-2.4,0-4.6,2.1-4.5,4.5S1594.3,648.5,1596.8,648.5
								L1596.8,648.5z"/>
						</g>
					</g>
					<g>
						<g>
							<path class="st5" d="M1431.4,872.1c2.4,0,4.6-2.1,4.5-4.5s-2-4.5-4.5-4.5c-2.4,0-4.6,2.1-4.5,4.5
								C1427,870.1,1428.9,872.1,1431.4,872.1L1431.4,872.1z"/>
						</g>
					</g>
					<g>
						<g>
							<path class="st5" d="M1546.3,790.9c3.1,0,6.1-2.8,6-6c-0.1-3.3-2.6-6-6-6c-3.1,0-6.1,2.8-6,6
								C1540.4,788.2,1542.9,790.9,1546.3,790.9L1546.3,790.9z"/>
						</g>
					</g>
					<g>
						<g>
							<path class="st5" d="M1264.4,895.1c3.1,0,6.1-2.8,6-6c-0.1-3.3-2.6-6-6-6c-3.1,0-6.1,2.8-6,6S1261,895.1,1264.4,895.1
								L1264.4,895.1z"/>
						</g>
					</g>
					<g>
						<g>
							<path class="st5" d="M1802.1,498.3c2.4,0,4.6-2.1,4.5-4.5s-2-4.5-4.5-4.5c-2.4,0-4.6,2.1-4.5,4.5
								C1797.7,496.3,1799.6,498.3,1802.1,498.3L1802.1,498.3z"/>
						</g>
					</g>
				</g>
			</g>
			<g>
				<line class="st6" x1="1134.3" y1="195.1" x2="1221.8" y2="211.9"/>
				<g>
					<path class="st7" d="M1272.5,477c0.3,3.9,0.8,7.8,1.3,11.7c0.6,4.3,1.3,8.5,2.1,12.7c0.2,1.1,0.5,2.3,0.7,3.4
						c0.1,0.6,0.3,1.1,0.4,1.7c0,0,0,0.2,0.1,0.3c0.1,0.3,0.2,1,0.2,1c0.1,0.6,0.3,1.1,0.4,1.7c0.2,0.9,0.5,1.9,0.8,2.8
						c1.1,4.1,2.5,8.2,4,12.2l-15.9,1.6c-4.6-13.4-7.3-27.4-8.9-41.5c-0.2-2-0.4-3.9-0.6-5.9c-1.1-11.2-1.5-22.4-1.8-33.6
						c-0.1-4.5-0.2-9-0.3-13.6c-0.3-18.8-0.9-37.6-1.9-56.4c-2.1-38.2-5.6-76.4-10.7-114.3c-0.6-4.3,2.9-7.9,6.9-8.5
						c4.2-0.6,8,2.9,8.5,6.9c2.8,21.2,5.2,42.5,7.1,63.8c3.3,37.6,4.9,75.2,5.6,112.8c0.1,2.4,0.1,4.9,0.2,7.3
						C1271,454.6,1271.4,465.9,1272.5,477z"/>
				</g>
				<g>
					<path class="st7" d="M1317.9,320.8c2.8,34.3,5.6,68.7,8.4,103c0.3,4.2,0.7,8.4,1,12.6v0.1c0.2,2,0.3,4,0.5,6
						c0.7,9.2,1.5,18.4,2.2,27.5c1.3,16.5,2.4,32.9,3.1,49.4l-15.4,1.6c-0.5-10.9-1.1-21.8-1.9-32.6c-0.4-5.5-0.8-11-1.2-16.5
						c-0.7-9.1-1.4-18.2-2.1-27.3c-0.2-2.1-0.3-4.2-0.5-6.2s-0.3-3.9-0.5-5.9c-1.6-19.6-3.3-39.1-4.9-58.7
						c-1.5-19.1-3.1-38.1-4.6-57.2c-0.8-9.5-1.4-19-2.4-28.4c-0.5-4.6-1.1-9.1-1.8-13.6c-0.4-2.5-0.9-4.9-1.4-7.4
						c-0.1-0.5-0.2-1-0.3-1.4c0-0.1,0-0.1,0-0.2l0,0c-0.3-1.2-0.6-2.4-0.9-3.6c-1.2-4.2,0.3-8.2,4.4-10c3.6-1.6,9,0.5,10,4.4
						C1315.3,277.2,1316.1,299.2,1317.9,320.8z"/>
				</g>
				<g>
					<path class="st8" d="M1399.2,544.9L1399.2,544.9C1399.3,545.8,1398.7,543.5,1399.2,544.9L1399.2,544.9z"/>
					<path class="st8" d="M1399.2,308.8c0.2,3.5,0.3,7.1,0.4,10.6c0.5,16.3,0.5,32.5,0.5,48.8c0,4.1,0,8.1,0,12.2l0,0
						c0,9.8,0,19.6,0,29.4c0,6,0,11.9,0,17.9c0,0.2,0,0.4,0,0.6c0,1.4,0,2.8,0,4.2c0,9.7,0,19.3,0,29c0,17,0,34.1,0.1,51.1
						l-15.4,1.6c0-10.5,0-20.9,0-31.4c0-6.5,0-13,0-19.4c0-9.6,0-19.2,0-28.7v-5.1c0-6.1,0-12.1,0-18.2c0-16.2,0-32.5-0.1-48.7
						c0-17.1-0.1-34.3-0.8-51.4l0,0c-1-22.3-3.2-44.6-8.2-66.4c-1-4.2,3.2-8,6.9-8.5c1-0.2,2.2,0,3.3,0.4c0.9,0.3,1.7,0.8,2.4,1.3
						c1.7,1.4,2.3,3.1,2.8,5.2C1395.9,264.8,1398.2,286.8,1399.2,308.8z"/>
				</g>
				<g>
					<path class="st9" d="M1475,515c0,0.3-0.1,0.6-0.2,0.7C1474.8,515.5,1474.9,515.2,1475,515z"/>
					<path class="st9" d="M1475,515L1475,515L1475,515L1475,515z"/>
					<path class="st9" d="M1475.1,513.5c0,0.3,0,0.5,0,0.5C1475.1,513.9,1475.1,513.7,1475.1,513.5z"/>
					<path class="st9" d="M1458.6,275.2c0.3,6.1,1,12.2,1.9,18.2c3.5,24.9,7.7,49.7,11.2,74.6c1.6,11.4,3.1,22.7,4.6,34.1
						c0.7,5.4,1.4,10.7,2.1,16.1c0.1,1.2,0.3,2.3,0.4,3.5c0.9,7.1,1.7,14.3,2.6,21.5c0.3,2.8,0.6,5.6,1,8.4
						c2,17.4,3.9,34.8,5.6,52.2c0.1,0.7,0.1,1.4,0.2,2.1c-0.8-0.8-1.7-1.5-2.8-1.8l-12.8,1.3c-1.7-17.3-3.5-34.6-5.5-51.9
						c-0.7-5.9-1.4-11.8-2.1-17.7c-0.5-4-1-8-1.5-11.9c-0.2-1.3-0.3-2.5-0.5-3.8c-0.7-5.5-1.4-10.9-2.1-16.4
						c-1.8-14.2-3.8-28.5-5.8-42.7c-1.8-12.6-3.6-25.1-5.6-37.7c-1.9-12.2-4.2-24.4-5.5-36.7c-1.4-12.5-1.1-25,1.1-37.4
						c1-5.8,2.3-11.7,3.1-17.5c0.4-3,0.8-6,1-8.9c0.1-1.4,0.2-2.9,0.2-4.3c0-0.3,0-0.9,0-1.2c0-0.7,0-1.4,0-2.2
						c0-12.1-1.6-24.1-3.9-35.9c-0.6-3-1.2-6-1.9-8.9c-0.2-0.8-0.4-1.7-0.6-2.5c0-0.2-0.1-0.5-0.2-0.8c0-0.1,0-0.2,0-0.2
						c0-0.1,0-0.1,0-0.1s0,0,0-0.1s0-0.1,0-0.1c-0.3-1.3-0.6-2.5-0.9-3.8c-1.5-5.9-3-11.8-4.6-17.6c-1.1-4.2,0.2-8.2,4.4-10
						c3.5-1.6,9,0.5,10,4.4c0.8,2.9,1.6,5.9,2.3,8.8c6.4,24.4,12,49.2,10.6,74.6c-0.6,12.1-3.7,23.7-5.4,35.7
						c-0.4,2.8-0.6,5.6-0.8,8.5c0,0,0,0,0,0.1l0,0v0.1v0.1c0,0.4,0,1.1,0,1.3c0,0.7,0,1.5,0,2.2
						C1458.5,272.3,1458.5,273.7,1458.6,275.2z"/>
				</g>
				<g>
					<path class="st8" d="M1541.5,171.1c-2.9,25.5-5.9,50.9-8.7,76.4c-0.6,5.6-1.2,11.2-1.5,16.8c-0.1,0.9-0.1,1.8-0.1,2.7
						c0,0.1,0,0.3,0,0.6l0,0v0.1v0.1c0,0,0,0,0,0.1c0,0,0,0,0,0.1v0.1c0,0,0,0,0,0.1l0,0v0.1l0,0v0.1c0,0.9,0,1.8,0,2.7
						c0,2.7,0,5.5,0.1,8.2c0.5,11.4,2.2,22.8,3.7,34.1c3.1,22.6,5.9,45.2,8.5,67.8c0.5,4.6,1.1,9.2,1.6,13.9
						c0.6,4.9,1.1,9.9,1.6,14.8c0.1,0.8,0.2,1.6,0.3,2.4c1.1,10.3,2.2,20.7,3.2,31c1.8,17.9,3.5,35.7,5.2,53.6l-15.4,1.6
						c-1.6-17.8-3.3-35.6-5.1-53.3l-0.2-2c-1-9.6-2-19.2-3-28.7c-0.1-0.9-0.2-1.8-0.3-2.7c-0.5-5-1.1-10.1-1.7-15.1
						c-3.4-30.2-7.2-60.4-11.3-90.6c-1.5-11.3-2.8-22.7-2.6-34.1c0.2-11.5,1.4-23,2.7-34.5c2.6-23,5.2-46,7.9-69
						c0.5-4.3,5-6.8,8.9-6.4C1539.5,162.7,1542,167.1,1541.5,171.1z"/>
				</g>
				<g>
					<path class="st9" d="M1779.4,474.3l-23.2,2.3c-3.3-18.9-6.5-37.9-9.6-56.9c-1.1-7-2.2-13.9-3.3-20.9c-0.7-4.4-1.3-8.8-2-13.3
						v-0.2c-0.5-3.3-1-6.6-1.4-10c-2.3-16.6-4.6-33.2-7.5-49.7c-2.1-12-5-23.7-7.7-35.6c-2.8-12.2-5-24.4-6.4-36.8
						c-2.9-24.6-5-49.2-7.5-73.8c-2.5-24.9-5-49.8-7.5-74.7c-0.6-6.5,4.2-11.8,10.4-12.7c6.2-0.9,12.1,4.4,12.7,10.4
						c2.8,27.9,5.6,55.8,8.4,83.7c1.2,12.3,2.5,24.6,3.7,37c1.2,12.3,2.3,24.6,4.1,36.8c1.7,12.1,4.4,23.9,7.1,35.8
						c2.8,12.1,5.4,24.2,7.3,36.5c2.1,13.6,4.1,27.2,6,40.8c0.4,3,0.8,5.9,1.3,8.9c0,0.2,0,0.3,0.1,0.5c1.1,7.7,2.3,15.4,3.5,23.1
						c0.6,3.9,1.2,7.7,1.8,11.5C1772.8,436.2,1776,455.2,1779.4,474.3z"/>
				</g>
				<g>
					<path class="st8" d="M1768.3,116.2c3,11.4,6,22.8,8.7,34.2c-0.3-1.2-0.6-2.4-0.8-3.5c4.7,19.6,8.4,39.3,10.5,59.4
						c2.1,20,3.1,40.1,3.8,60.2c0.8,20,1.3,40.1,2.7,60c1.4,20,3.9,39.9,7.2,59.7c3.7,22.4,8.2,44.6,12.7,66.9
						c0.7,3.6,2,6.7,4.9,9.1c2.6,2.1,6.6,3.5,10,3c3.5-0.5,7-2,9.1-4.9c2-2.7,3.7-6.5,3-10c-4.5-22.2-9-44.5-12.7-66.9
						c-3.6-22.2-6.2-44.4-7.6-66.8c-2.8-44.7-1.9-89.7-8.8-134c-4-25.8-10.7-51.1-17.4-76.3c-0.8-3.1-4.3-6.2-7-7.4
						c-3.1-1.4-7.4-1.7-10.5-0.3c-3.2,1.4-6.1,3.7-7.4,7c-0.3,1.1-0.7,2.2-1,3.4C1767.2,111.4,1767.4,113.8,1768.3,116.2
						L1768.3,116.2z"/>
				</g>
				<path class="st9" d="M1919.6,97.2v18.9c-8.2-0.5-17.1-1-26.1-1.6c-23.3-1.4-47.4-2.7-62.5-3.3l-0.1,12L1465.5,66l-49.6,28.2
					l106,64.9l-179.5,119.7l-128.9,5.1l53.9-50.6l-73.3-23.1c0,0,111.7-73,115.5-84.7l-35.2-13l50.9-27.7l-0.6-5.9l112.8-66.5
					l340,9.4c0,0,52.5,42.9,116,67C1902,91.9,1910.8,94.8,1919.6,97.2z"/>
				<polygon class="st8" points="1284.1,448.5 1339.6,416 1830.5,366.2 1830.7,373.3 				"/>
				<g>
					
						<rect x="1226" y="419.4" transform="matrix(0.9927 -0.1204 0.1204 0.9927 -41.8377 180.0244)" class="st7" width="485.7" height="33.6"/>
				</g>
				<polygon class="st7" points="1830.9,123.2 1482.2,185.5 1494.7,164.5 1831,111.2 				"/>
				<polygon class="st7" points="1446.6,150.1 1453.4,168.9 1714.4,100.4 1684.9,90.8 				"/>
				<line class="st6" x1="1149.2" y1="265.5" x2="1478.6" y2="58.6"/>
				<polygon class="st9" points="1707.9,390.4 1712,423.7 1839.2,409 1830.5,372 				"/>
				<polygon class="st10" points="1190.6,176.1 1191.8,187.9 1440,36.7 1764.3,48.9 1760.1,33.4 1435.9,23.1 				"/>
				<g>
					<path class="st11" d="M1731.9,479.1l-30.8,3.1c-4.8-18.5-9.8-36.9-14.5-55.4c-2-7.7-3.9-15.4-5.7-23.1
						c-0.8-3.2-1.5-6.3-2.2-9.5c0-0.1-0.1-0.2-0.1-0.3c-0.9-4-1.9-8-2.8-12c-9.6-42.7-17.7-85.8-26.1-128.8
						c-4.8-24.7-10-49.3-14.3-74.1c-2.1-11.8-3.7-23.7-4.8-35.7c-0.9-10.3-1.7-20.6-3.9-30.7c-1.3-5-3.1-9.9-5.4-14.5
						c-0.7-1.2-1.5-2.4-2.3-3.6c-5-7.1,2.1-7.4,8.8-12.7c6.4-5.1,12.2-6.2,16.9,0.5c13.5,19.5,14.9,37,17,59.9
						c1.9,21,6,41.6,10,62.3c4.2,21.4,8.4,42.8,12.6,64.2c7.2,36.7,14.2,73.5,22.4,110c0.8,3.7,1.7,7.5,2.6,11.2c0,0.1,0,0.1,0,0.2
						c0.3,1.2,0.6,2.4,0.9,3.7c2.4,9.8,4.8,19.5,7.3,29.3c4.4,17,8.9,33.9,13.3,50.9C1731.5,475.7,1731.8,477.4,1731.9,479.1z"/>
				</g>
				<path class="st7" d="M1318.5,156.6c0,0,147.1-15.3,184.3-36s181.6-36.1,181.6-36.1l-33.6-11.8L1377.9,115L1318.5,156.6z"/>
				<g>
					<path class="st11" d="M1454,507.3l-27.3,2.8c0.8-16.8-2-33.9-5.9-51c-2.2-9.5-4.8-19-7.4-28.3c-0.2-0.9-0.5-1.7-0.7-2.6
						c-0.2-0.6-0.4-1.3-0.5-1.9c-0.6-2.2-1.2-4.4-1.8-6.6c-1-3.5-1.9-7.1-2.9-10.6c-2.5-9.5-5-19.1-7.4-28.6l0,0
						c-5.8-23.2-11.1-46.4-16.3-69.1l0,0c-0.1-0.5-0.3-1.1-0.4-1.6c-3-13.2-6.1-26.8-7.9-40.8c-0.6-4.7-1-9.4-1.4-14
						c-1-10.7-1.9-20.9-4.7-30.2c-2.3-7.7-6.1-15.2-10.1-23.3c-7.4-14.9-15.1-30.2-15-48.5l0.1-13.6l27.1,0.1l-0.1,13.6
						c-0.1,11.9,5.9,23.7,12.1,36.3c4.3,8.7,8.8,17.7,11.8,27.5c3.7,12,4.8,24.1,5.8,35.7c0.4,4.5,0.8,8.8,1.3,13.1
						c1.6,12.6,4.5,25.6,7.4,38.1c7.7,33.8,15.7,68.8,24.9,102.8c0.5,2,1.1,4.1,1.7,6.1c0.8,2.8,1.6,5.6,2.3,8.4
						c0.2,0.7,0.4,1.4,0.6,2.1c0.4,1.4,0.8,2.7,1.1,4.1c2.6,9.5,5.2,19.1,7.4,28.8C1451.7,472.6,1454.3,489.7,1454,507.3z"/>
				</g>
			</g>
			<path class="st12" d="M1265.9,527.2l17-2.4c0,0-17-26.2-14.1-36.9c0,0-1.4,8.9-0.3,13.5c0,0-9.4-13.7-5.7-22.7
				c0,0-3.6,7-0.7,21.9c0,0-12-16.4-13.6-21.8c0,0,0.8,10.9,8.4,23.4c0,0-11-9.8-20.1-11.3c0,0,13.7,10.4,17.5,17.7
				c0,0-8.5-4.9-13.1-4.6c0,0,13.9,6.2,18.6,13C1264.6,523.9,1265.9,527.2,1265.9,527.2"/>
		</g>
	</g>
</g>
<g class="st0">
	<g class="st1">
		<g>
			<path class="st11" d="M0,360.8c0,0,176.1-45.8,339.7,145.1s521.2,125.7,628.9,304.3c0,0,55.4,138.1-543.6,60.7
				S228.8,982.6,0,1063.2V360.8z"/>
			<g>
				<path class="st13" d="M142.1,375.8c5.1,45.4,12.4,110.1,14.1,118c-0.3,3.1-0.6,6.1-0.9,8.9l0,0c-0.2,2.3-0.5,4.5-0.7,6.6
					c-0.6-0.1-1.2-0.3-1.8-0.5c-0.9-0.2-1.7-0.5-2.4-0.9c-0.9-0.4-1.8-0.8-2.7-1.4c-12.4-54.2-44.3-202.7-40-274.7l16.7,56
					C132.8,316.6,138.8,346.1,142.1,375.8z"/>
				<path class="st14" d="M156.2,493.8c-0.1-0.2-0.1-0.5-0.1-0.7c-11.9-71.3-35.8-282.4-34.9-307.2c0,0,8.8,41.7,18,88.4
					c0,0.1,0,0.2,0,0.2c0,0.1,0,0.2,0,0.2c2.7,13.8,5.4,28,8,41.8c4.9,26.1,9.1,50.3,11.2,66.1c1.3,10,1.9,21.4,1.9,33.3v0.2
					C160.5,442.8,158.3,472.1,156.2,493.8z"/>
				<path class="st15" d="M155.3,502.7c0.3-2.8,0.6-5.8,0.9-8.9c2.1-21.8,4.3-51.1,4.1-77.8c1.8-13.5,6.1-39.6,10.8-67.2
					c11.1-64.6,26.2-148.2,26.4-155.4C211.8,344.4,156.5,499.3,155.3,502.7z"/>
				<path class="st16" d="M175.4,123.5c0,0-1.4,53.9-3.3,164.7v0.1c-0.3,18.6-0.7,38.8-1,60.6c-4.7,27.6-9,53.7-10.8,67.2v-0.2
					c-0.1-12-0.7-23.3-1.9-33.3c-2.1-15.8-6.3-40-11.2-66.1C148,284.8,152.7,165,175.4,123.5z"/>
				<path class="st17" d="M197.4,192.9c0.1,0,0.1,0.2,0.1,0.5C197.4,193.3,197.4,193.1,197.4,192.9z"/>
				<path class="st18" d="M330.2,83.4c-0.2,0-0.4,0.1-0.7,0.1c-4.3,0.5-8.5,1.1-12.5,1.8L330.2,83.4z"/>
				<g>
					<path class="st19" d="M172.1,288.2c1.2-11,2.8-21.9,4.8-32.8c2.1-10.9,4.6-21.6,7.7-32.3c3-10.6,6.7-21.1,11-31.3
						c2.1-5.1,4.4-10.1,6.9-15.1c2.5-4.9,5.1-9.9,7.9-14.6c5.7-9.5,12-18.6,19.3-27s15.3-16.1,24.1-22.8
						c8.8-6.7,18.5-12.3,28.6-16.8c5.1-2.2,10.3-4.1,15.6-5.7c5.3-1.7,10.7-2.7,16.1-4c-21.6,4.6-42.2,13.8-59.7,27.3
						s-31.8,30.7-42.9,49.7c-2.9,4.7-5.4,9.6-7.9,14.5c-2.4,4.9-4.8,9.9-6.9,15c-4.3,10.2-7.9,20.6-11.1,31.1
						c-3.2,10.6-5.8,21.3-8,32.1C175.3,266.4,173.5,277.3,172.1,288.2z"/>
				</g>
				<g>
					<path class="st19" d="M139.2,272.5c-2.9-26.2-3-52.7-0.5-78.9c1.3-13.1,3.3-26.2,6.2-39.1c2.9-12.9,6.8-25.5,11.8-37.8
						c5.1-12.2,11.4-23.9,19.1-34.6c7.8-10.7,17-20.4,27.6-28.2c5.3-3.9,10.9-7.4,16.8-10.5c5.8-3.1,12-5.6,18.2-7.7
						c12.5-4.2,25.6-6.4,38.8-7.2c-13.1,1-26.2,3.5-38.6,7.8c-6.2,2.2-12.3,4.7-18,7.8c-5.8,3.1-11.4,6.6-16.6,10.5
						c-10.5,7.9-19.6,17.5-27.3,28.1s-13.9,22.3-18.9,34.4c-10.1,24.3-15.5,50.3-18.3,76.4c-1.4,13.1-2.1,26.2-2.2,39.4
						C137.4,246.2,137.8,259.4,139.2,272.5z"/>
				</g>
				<path class="st18" d="M317,85.3c-0.7,0.4-1.5,0.7-2.3,0.8L317,85.3z"/>
				<path class="st20" d="M314.1,85.8c0.2,0.1,0.4,0.2,0.6,0.3c0.2,0.1,0.5,0.1,0.7,0.1"/>
				<path class="st18" d="M297.6,90.1c-2.1-4.3,1.1-9.3,4.2-13c0.4-0.5,0.9-1,1.5-1.1c1.4-0.2,2.1,1.7,2.2,3.2
					c0.2,2.4,0.3,5-0.6,7.3s-3.3,4.1-5.7,3.7L297.6,90.1z"/>
				<path class="st20" d="M276.5,99.2L276.5,99.2c-0.2,0-0.4,0.1-0.6,0.1"/>
				<path class="st20" d="M268.3,101.4c0.3-0.1,0.5-0.3,0.8-0.4l0,0l0,0"/>
				<path class="st18" d="M258.9,108.4c0.1,0.2,0.2,0.4,0.3,0.6c0.3,0.5,0.5,1,0.9,1.4c-0.2,0.2-0.4,0.3-0.6,0.4L258.9,108.4z"/>
				<path class="st18" d="M263.1,105.6c-0.3,0.2-1,0.2-1.8,0c-0.3,0.8-0.6,1.5-0.9,2.3L263.1,105.6z"/>
				<path class="st20" d="M247,121.4C247.1,121.4,247.1,121.4,247,121.4c0.1,0.4,0.3,0.7,0.6,0.8"/>
				<path class="st18" d="M248.2,114.1c-0.7-0.1-1.3-0.3-1.8-0.6c-0.2,0.4-0.4,0.8-0.6,1.1L248.2,114.1z"/>
				<path class="st18" d="M250.8,129.8c1.1,2.3-1.6,4.9-4.2,4.9c-2.5-0.1-9.7-2.5-11.6-4.2c3.3-3.1,8.3-4.3,12.6-3
					C248.9,127.9,250.2,128.6,250.8,129.8z"/>
				<path class="st18" d="M291.7,106.3c-2.3,1.9-5.9,1.7-8.6,0.2c-2.6-1.5-4.9-4.8-6.7-7.3c3.6-0.5,7.2-0.8,10.9-1.1
					c1.4-0.1,2.9-0.2,4.2,0.5C294.2,100,294,104.4,291.7,106.3z"/>
				<path class="st18" d="M309.1,95.9c0.8,2.3-1,5.3-3.4,5.1c-1.3-0.1-2.3-0.9-3.3-1.7c-1.9-1.6-4.2-4.1-6.1-5.7
					c2.3-0.8,4.6-1.6,7.1-1.4C305.8,92.2,308.3,93.6,309.1,95.9z"/>
				<path class="st18" d="M328.3,96c-0.9,2.8-4.9,2.8-7.3,1.2c-3.4-2.4-4.9-7.2-3.5-11.1c2.7,0,5,3.1,7.4,4.3
					C327,91.5,329,93.7,328.3,96z"/>
				<path class="st18" d="M265.4,120.9c0.3,0.4,0.5,0.9,0.4,1.3s-0.5,0.7-0.9,1c-5.3,3.2-12.1,0.7-17.8-1.8c-0.2-0.6,0-1.3,0.5-1.8
					c0.7-0.8,1.7-1,2.7-1.2c2.7-0.6,5.4-1.2,8.1-1S263.8,118.7,265.4,120.9z"/>
				<path class="st18" d="M281.7,92.4c-0.4-5.4,2.1-10.8,6.4-14c0.7-0.5,1.5-1,2.3-1c1.3,0.1,2.3,1.3,2.5,2.5
					c0.3,1.2-0.1,2.5-0.4,3.8c-0.7,2.4-1.5,5-3.3,6.8C287.4,92.3,283.6,94,281.7,92.4z"/>
				<path class="st18" d="M273.1,112.6c-1,2.3-4.2,2.9-6.7,2.2c-2.5-0.7-4.8-2.3-6.4-4.4c2.4-1.7,5.5-4,8.3-3.8
					C271.4,106.7,274.3,109.8,273.1,112.6z"/>
				<path class="st18" d="M256.6,100.9c-0.1-2.4-0.1-5,1.4-7c1.5-1.9,5-2.4,6.1-0.3c0.7,1.3,0.3,2.9-0.1,4.2
					c-0.8,2.6-1.6,5.2-2.6,7.7c-1.6-0.3-3.8-1.2-4.1-1.8C256.7,103,256.6,101.9,256.6,100.9z"/>
				<path class="st18" d="M243,107.8c-0.2-3,0.9-5.8,2-8.6c0.4-0.9,0.8-1.8,1.5-2.4c0.8-0.6,2-0.6,2.5,0.2c0.2,0.3,0.3,0.7,0.3,1.1
					c0.6,5.3-0.5,10.7-2.9,15.3C244.4,112.5,243.2,110.1,243,107.8z"/>
				<path class="st18" d="M317,85.3c-1,0.2-1.9,0.4-2.9,0.6c-1-0.6-1.6-1.8-1.6-3c0-1.6,0.9-3.2,2-4.4c2-2.4,4.7-4.3,7.7-5.3
					C323.5,77.3,320.9,83.1,317,85.3z"/>
				<path class="st18" d="M338.7,85.5c-2.8,0.8-7.7,1.6-9.2-0.8c-0.1-0.4-0.1-0.8,0-1.2c0.3-3,3.4-5.4,6.4-6.5
					c1.6-0.6,3.3-1.1,5-0.8c1.7,0.3,3.3,1.4,3.7,3.1C345.3,82.4,341.8,84.7,338.7,85.5z"/>
				<path class="st18" d="M274.8,89.5c0.5,4.5-1.9,9.2-5.8,11.5c-1.8-4-1.8-9.5,0.6-13c0.6-0.9,1.5-1.8,2.7-1.8
					C273.8,86.2,274.6,88,274.8,89.5z"/>
				<path class="st18" d="M240,123.1c1.9-4.8,0.4-10.8-3.5-14.2c-0.7,2.8-1.5,5.8-1,8.6s2.7,5.7,5.6,5.9L240,123.1z"/>
				<path class="st18" d="M294.1,26.3c-0.8,1.3-1.8,2.5-2.9,3.6c-2,1.9-4.6,3.5-7.3,3.4c-2.7,0-5.5-1.9-5.9-4.6
					c4.4-2.3,9.2-4,14.2-4.7c0.9-0.1,2.2,0,2.4,0.9C294.6,25.4,294.3,25.9,294.1,26.3z"/>
				<path class="st20" d="M277.8,28.6c0,0.1,0,0.1,0,0.1c-0.4,0.2-0.8,0.4-1.2,0.6"/>
				<path class="st18" d="M262.7,32.1c4.6-4,7.6-10,7.9-16.1c-4.9,2.3-8.7,6.9-10,12.2c-0.2,0.9-0.4,1.9,0.1,2.8
					c0.4,0.8,1.6,1.3,2.4,0.7L262.7,32.1z"/>
				<path class="st18" d="M262,41.6c-0.3,3-4.4,4.3-7.2,3.1s-4.7-3.8-6.8-6c2.1-0.7,7.9-2.1,10-1.7C260.2,37.5,262.2,39.4,262,41.6z
					"/>
				<path class="st20" d="M251.2,32.4c-0.5-0.3-0.9-0.6-1.3-0.9c0,0.1-0.1,0.1-0.1,0.2"/>
				<path class="st18" d="M204.5,68.5c0.9,1,0.4,2.6-0.5,3.7c-3.1,3.9-9.6,4.3-13.3,1c2.8-3.5,7.2-5.6,11.7-5.4
					C203.2,67.9,204,68,204.5,68.5z"/>
				<path class="st18" d="M219.2,57.9c0,0.4-0.2,0.7-0.4,1c-1.6,2.5-4.6,4-7.5,3.9c-2.9-0.2-5.7-2-7-4.6c3.5-2.4,9.1-2.4,13.2-1.6
					C218.3,56.7,219.2,57.1,219.2,57.9z"/>
				<path class="st18" d="M246,45.5c-0.1,3.2-4.7,4.4-7.6,2.9c-2.9-1.5-4.5-4.5-6.8-6.8c2-0.7,8.2-0.7,10.3-0.3
					C244,41.6,246.1,43.3,246,45.5z"/>
				<path class="st18" d="M228.6,49.1c1.6,1.9-0.9,5-3.3,4.9c-2.5-0.1-6.8-2.4-8.5-4.2c2.6-1.6,5.7-2.3,8.7-2
					C226.6,47.9,227.9,48.2,228.6,49.1z"/>
				<path class="st20" d="M222,45c0.2,0,0.4,0,0.6-0.1c0.1-0.1,0.1-0.2,0.2-0.4"/>
				<path class="st18" d="M254.3,20c-1,4-2.5,7.8-4.4,11.5c-1.9-1.6-3.1-4.1-3-6.6c0.2-3,2.2-5.9,5-7c0.7-0.3,1.7-0.4,2.2,0.2
					C254.6,18.6,254.5,19.4,254.3,20z"/>
				<path class="st18" d="M239.1,29.8c-1,2.1-2.3,4.3-1.7,6.6c-2.9-0.5-5.4-3.9-5.3-6.9c0.1-1.8,0.4-3.8,1.6-5.1
					c1.2-1.4,3.4-2,4.9-0.9C240.6,24.8,240.1,27.7,239.1,29.8z"/>
				<path class="st18" d="M227,33.5c0.5,1.1,0,2.4-0.5,3.6c-0.9,2-2.8,5.4-3.7,7.6c-0.3,0.1-0.5,0.3-0.8,0.4
					c-1.8-0.1-3.3-1.7-3.6-3.6c-0.4-2,0.5-4,1.4-5.8c0.8-1.4,1.7-2.7,3.1-3.4C224.4,31.6,226.4,32,227,33.5z"/>
				<path class="st18" d="M195.5,51.7c0.4,2.5,0.1,8.4-1.3,10.6c-1.8,0.3-3.5-1.1-4.1-2.7c-0.7-1.6-0.6-3.5-0.4-5.3
					c0.2-1.4,0.4-2.9,1.3-3.9c0.9-1.1,2.7-1.5,3.7-0.6C195.2,50.2,195.4,51,195.5,51.7z"/>
				<path class="st18" d="M212.5,43.6c-0.2,2.1-4.2,6.5-5.6,8.1c-0.9,0.7-2.4,0.1-2.9-1s-0.3-2.3,0-3.5c0.5-1.7,1.2-3.4,2-5
					c0.6-1.1,1.5-2.3,2.8-2.6C210.9,39.1,212.7,41.5,212.5,43.6z"/>
				<path class="st20" d="M190.5,72.9c0.1,0.1,0.2,0.2,0.3,0.3c-0.2,0.2-0.3,0.4-0.4,0.6"/>
			</g>
		</g>
	</g>
</g>
<g id="Layer_5" class="st0">
	<g class="st1">
		<g>
			<path class="st18" d="M289.2,549.8c-3.6,1.1-9.5,5.3-10.9,9.1c6.4,4.4,15.2,5,22.1,1.3c1.6-0.9,3.3-2.1,3.9-3.8
				c1.2-3.2-1.7-6.7-5-7.6C296,547.8,292.5,548.8,289.2,549.8z"/>
			<path class="st18" d="M359.9,608.3L359.9,608.3L359.9,608.3c4.8,4.3,18,6.9,21.8,2.9c4.2-4.3,1.7-13.2-4.2-13.9
				c-2.9-0.3-5.7,1.1-8.2,2.4C365.5,601.8,361.3,604.3,359.9,608.3z"/>
			<path class="st18" d="M630.2,681.3c3.5-2.3,4.8-8.2,1.3-10.5c-1.1-0.8-2.5-1-3.9-1.1c-4.7-0.5-9.7-0.3-13.9,1.9
				c-3.9,2-7,6-7.2,10.3c3.8,0.4,7.6,0.7,11.4,1.1C622.1,683.2,626.7,683.5,630.2,681.3z"/>
			<path class="st18" d="M591.6,770.8c2.3-1.3,4.4-3.6,4.3-6.2c-0.2-4.1-5.3-6.1-9.3-5.5c-3.8,0.6-11.3,7.5-15.6,8.5
				C576.1,773,585.1,774.5,591.6,770.8z"/>
			<g>
				<path class="st18" d="M361.3,786.4c7.1,3.3,15.6,3.5,22.8,0.5c1.3-0.5,2.6-1.2,3.5-2.2c2.6-2.9,1.3-8.1-2.1-10.1
					c-3.3-2.1-7.8-1.6-11.3,0.2C371.2,776.3,364.5,782.9,361.3,786.4L361.3,786.4L361.3,786.4z"/>
				<path class="st18" d="M817.8,781.8c5.6,2.8,12.7-1.5,17.1-6.3c1.7-1.8,3.4-3.8,3.8-6.2c0.4-2.4-1.2-5.3-3.6-5.5
					c-1.6-0.1-3,0.8-4.3,1.8C825.9,769.4,821.4,776.4,817.8,781.8z"/>
				<path class="st18" d="M788.6,762.9c-2.4,3.5-3,10.1-2,14.5l0,0l0,0c4.3-0.3,8.7-1,12.1-3.7c3.9-3.1,5.5-9.6,1.8-13
					C797.1,757.6,791.2,759.1,788.6,762.9z"/>
				<path class="st18" d="M397,879.7c-2.4,3.5-3,10.1-2,14.5l0,0l0,0c4.3-0.3,8.7-1,12.1-3.7c3.9-3.1,5.5-9.6,1.8-13
					C405.6,874.4,399.6,875.9,397,879.7z"/>
				<path class="st18" d="M67.1,695.6c4.1-7.1,3.3-16.6-2-22.9c-0.9-1.1-2.2-2.2-3.6-2c-2.2,0.3-2.9,2.9-3.2,5
					c-0.5,3.7-1,7.7,0.2,11.2C59.8,690.4,63.4,696.3,67.1,695.6z"/>
				<path class="st18" d="M168.2,912c2.3-1.3,4.4-3.6,4.3-6.2c-0.2-4.1-5.3-6.1-9.3-5.5c-3.8,0.6-11.3,7.5-15.6,8.5
					C152.6,914.3,161.7,915.8,168.2,912z"/>
				<path class="st18" d="M730.9,799.5c6,2.5,12.5,3.8,19,3.9c1.7,0,3.6-0.1,4.9-1.2c1.5-1.3,1.9-3.5,1.4-5.5
					c-1.2-5.7-8.1-8.9-13.8-7.4C737.4,790.6,733.4,794.8,730.9,799.5z"/>
				<path class="st18" d="M618.2,878.9c4.8,1.7,10.2,1.1,15-0.5c1.3-0.4,2.6-1,3.4-2c1.8-2.2,0.4-5.7-2-7.2s-5.4-1.5-8.2-1.5
					c-4.6,0-13,0.3-17.3,2.6C610.5,874.3,614.1,877.5,618.2,878.9z"/>
				<path class="st18" d="M72.8,800.1c4.8,1.7,10.2,1.1,15-0.5c1.3-0.4,2.6-1,3.4-2c1.8-2.2,0.4-5.7-2-7.2s-5.4-1.5-8.2-1.5
					c-4.6,0-13,0.3-17.3,2.6C65.1,795.6,68.7,798.8,72.8,800.1z"/>
				<path class="st18" d="M666.3,743.6c4.2,1.8,9.9,5.4,14.4,6.2c2.7,0.5,5.6,0.7,7.8-0.8c3.5-2.4,3.2-8.2,0.1-11
					c-3.1-2.8-8-3-11.9-1.5C672.7,738,669.4,740.8,666.3,743.6z"/>
				<path class="st18" d="M862.4,874.5c4.2,1.8,9.9,5.4,14.4,6.2c2.7,0.5,5.6,0.7,7.8-0.8c3.5-2.4,3.2-8.2,0.1-11
					c-3.1-2.8-8-3-11.9-1.5C868.8,868.9,865.6,871.7,862.4,874.5z"/>
				<g>
					<path class="st19" d="M125.8,652.2c-13.7-5.6-27.1-11.7-40.4-18.2c-13.3-6.4-26.4-13.1-39.5-20c12.9,7.3,25.9,14.2,39.1,20.9
						c13.2,6.6,26.6,12.9,40.2,18.7c27.2,11.6,55.4,21,84.4,27.3c14.5,3.1,29.2,5.2,44,6.4c14.8,1.2,29.6,1.4,44.4,0.4
						s29.5-3.1,43.9-6.5c14.4-3.5,28.5-8.2,41.9-14.3c-13.6,5.8-27.7,10.3-42.1,13.4c-14.4,3.2-29.1,5.1-43.8,6
						c-29.4,1.6-59.1-1-87.9-7.2C181.2,672.9,153.1,663.5,125.8,652.2z"/>
					<path class="st18" d="M411.6,663.6c1.9-0.5,3.8-1.1,4.8-2.7c2-3.2-1.3-7.2-4.8-8.6c-9.1-3.5-22.7,4.4-24.6,13.9
						C395.2,666.6,403.6,665.7,411.6,663.6z"/>
					<path class="st18" d="M358,668.8c7.3-2.7,17.1-6.8,17.5-14.6c0.1-1,0-1.9-0.5-2.7c-0.8-1.3-2.4-1.9-3.9-2
						c-4.4-0.3-8.7,2.5-11,6.4C357.9,659.7,357.5,664.4,358,668.8z"/>
					<path class="st18" d="M292.4,664.8c-0.8,0.2-1.5,0.6-2.1,1c-6.3,4.5-10.7,11.6-12,19.2c4.7-2.8,9.2-5.9,13.5-9.3
						c2-1.6,4-3.4,4.6-5.9C296.8,667.5,294.9,664.4,292.4,664.8z"/>
					<path class="st18" d="M307.7,683.2c4.3-4,8.5-8,12.7-12c1.4-1.3,2.8-2.8,3-4.7c0.3-2.8-2.7-5.1-5.5-5.2c-2.8,0-5.4,1.5-7.8,3.1
						c-2.5,1.8-5,3.7-6.3,6.4S305.5,681,307.7,683.2z"/>
					<path class="st18" d="M329.1,674.3c5.2-0.4,11.1-1.1,15.3-4.3c4.2-3.2,6.1-10,2.4-13.7c-3.8-3.9-10.8-1.8-14,2.5
						C329.7,663.2,329.3,669,329.1,674.3z"/>
					<path class="st18" d="M292.3,717.4c2.8-1.1,4-4.8,3.1-7.7c-0.8-2.9-3.1-5.2-5.3-7.2c-3.7-3.2-7.7-6.1-12-8.6
						c-0.5,6.7,1.5,13.6,5.4,19.1C285.5,716,289,718.7,292.3,717.4z"/>
					<path class="st18" d="M381.5,676.6c-6.5-0.5-13.2,1.1-18.8,4.6c5.2,4.7,12.1,9.6,19.1,8.8c4.2-0.5,9.1-3.2,8.6-7.4
						C390,678.7,385.4,676.8,381.5,676.6z"/>
					<path class="st18" d="M344,702.1c2.8,3,7.4,5.9,10.7,3.5c3.1-2.3,2-7.5-0.5-10.4c-4.1-4.8-12.8-7.1-19-5.6
						C337.5,694,340.5,698.3,344,702.1z"/>
					<path class="st18" d="M317,711.8c2.1,1.6,4.7,3,7.4,2.6c2.6-0.3,5.1-2.8,4.6-5.5c-0.3-1.5-1.4-2.6-2.4-3.6
						c-5.2-5-11.3-8.8-18.1-11.3C308.4,700.9,311.7,707.6,317,711.8z"/>
					<path class="st18" d="M248.9,708.1c1.6,4.1,4.8,8,9.1,8.9c4.3,0.8,9.4-2.7,8.9-7c-0.2-1.5-0.9-2.8-1.7-4
						c-3.4-5.2-8-9.5-13.3-12.5C249,696.7,247.6,704.8,248.9,708.1z"/>
				</g>
				<g>
					<path class="st19" d="M551,742.4c7.4-11.7,13.7-24.1,18.9-37c0-0.1-0.1-0.1-0.1-0.2l0,0c0-0.1,0-0.1-0.1-0.2
						c-5.4,12.9-12,25.2-19.6,36.9c-5.5,8.4-11.6,16.3-18.3,23.7l-2.5,2.8c-0.8,0.9-1.7,1.9-2.6,2.7l-5.3,5.3l-5.6,5
						c-0.9,0.9-1.9,1.6-2.9,2.4l-2.9,2.4c-15.6,12.4-33.1,22.5-51.7,29.7c-18.6,7.3-38.1,12.1-57.8,15c-19.8,2.9-39.8,3.8-59.8,3.4
						c-20-0.4-39.9-2.3-59.7-5.2c-19.8-2.9-39.4-6.8-58.9-11.6c-9.7-2.4-19.4-5-29-7.8c-9.6-2.9-19.1-5.9-28.5-9.4
						c37.5,14.1,76.5,24.1,116.2,30.2c19.8,3.1,39.8,4.9,59.9,5.4s40.2-0.4,60.1-3.3c19.9-2.9,39.5-7.8,58.2-15.2s36.4-17.5,52-30.2
						l2.9-2.4c1-0.8,1.9-1.6,2.9-2.5l5.6-5.1l5.3-5.3c0.9-0.9,1.7-1.8,2.6-2.8l2.5-2.8C539.4,758.8,545.6,750.9,551,742.4z"/>
					<path class="st18" d="M529.5,742.6c2.4,3.8,6.9,6.2,11.3,6.1c0.7-6.4-3.3-13.9-7.5-18.8c-0.8-0.9-2-1.8-3.1-1.3
						c-0.5,0.2-0.8,0.7-1.1,1.2C527,733.6,527.1,738.7,529.5,742.6z"/>
					<path class="st18" d="M554.1,697.9c-4.9,0.5-6.3,7.6-3.8,11.8c2.6,4.2,7.2,6.5,10.9,9.8c0.8-3.2,0.4-12.6-0.3-15.7
						C560.1,700.5,557.3,697.6,554.1,697.9z"/>
					<path class="st18" d="M540.1,725.1c2.5,2.9,9.5,5.4,13.3,5.7c-0.8-4.6-3-8.9-6.3-12.2c-1.2-1.2-2.8-2.4-4.6-2.4
						C538.7,716.4,537.6,722.2,540.1,725.1z"/>
					<path class="st18" d="M526.4,765.9c2.9-6.1,2.7-13.7-0.7-19.5c-0.5-1-1.3-2-2.3-2.3c-1.9-0.6-3.8,1.3-4.7,3.2
						C515.6,754,519.4,763.2,526.4,765.9z"/>
					<path class="st18" d="M579.2,687.9L579.2,687.9L579.2,687.9c5.1-5.6,9.3-12.1,12.3-19.2c0.5-1.3,0.9-3.3-0.4-3.9
						c-0.7-0.4-1.5-0.2-2.2,0.1c-2.2,0.7-4.4,1.7-6.4,2.9c-3.6,2.2-6.9,5.5-7.8,9.6C573.6,681.4,575.3,686.3,579.2,687.9z"/>
					<path class="st18" d="M564.5,699.3c1.8-2.9,6.1-10.8,6.2-14.2c0.1-3.3-1.9-7-5.2-7.6c-4.6-0.7-8,4.9-7.3,9.4
						C558.9,691.6,562.1,695.3,564.5,699.3z"/>
					<path class="st18" d="M550.3,772.5c-0.5-0.9-1.5-1.5-2.5-2c-3.5-1.5-12.4-3.3-16-2.1c-1.1,2.5,0.3,5.5,2.4,7.1
						c2.2,1.6,5,2.2,7.6,2.6c2.1,0.3,4.4,0.5,6.3-0.4C550,776.8,551.4,774.4,550.3,772.5z"/>
					<path class="st18" d="M557.4,753.1c-3-1.2-11.7,1.5-14.8,2.3c-1.6,0.8-1.7,3.3-0.6,4.7c1.1,1.4,3,2,4.8,2.3
						c2.7,0.5,5.5,0.7,8.3,0.5c2-0.1,4.2-0.5,5.4-2.1C562.4,758.2,560.4,754.3,557.4,753.1z"/>
					<path class="st18" d="M585.5,725.3c-1.3-3.3-5.8-3.7-9.2-3.1c-3.4,0.6-7.3,1.8-10.3,0c-0.3,4.4,3.8,9.4,8.2,10.4
						c2.7,0.6,5.7,0.8,8.2-0.4C584.8,731,586.6,727.9,585.5,725.3z"/>
					<path class="st18" d="M568.1,740.3c-3.4-1.1-9.7-2.3-13-3.4c-2.4,1.9-2.1,6-0.2,8.4c2,2.4,5.1,3.5,8.2,4.1
						c2.3,0.5,4.9,0.7,7-0.3c2.2-1,3.7-3.7,2.6-5.9C571.8,741.6,569.8,740.8,568.1,740.3z"/>
					<path class="st18" d="M570.4,706.6c1.6,3.4,4.9,6.1,8.6,6.8c4.5,0.9,9.5-1.1,12.2-4.8c0.7-1,1.2-2.4,0.5-3.3
						c-0.6-0.7-1.7-0.8-2.7-0.8C582.8,704.5,576.5,705.3,570.4,706.6z"/>
					<path class="st18" d="M576.2,693.5L576.2,693.5L576.2,693.5c-1.1,0.9-0.8,2.8,0.1,3.6c0.9,0.9,2.3,1,3.6,1
						c5.4-0.1,10.9-2.2,15.3-5.8c2-1.6,0.7-4.9-1.9-4.8C587.3,687.7,581.3,689.7,576.2,693.5L576.2,693.5z"/>
				</g>
				<g>
					<path class="st19" d="M771.6,901.2c13.6-8.7,26.5-18.6,38.3-29.5c0-0.1,0-0.2,0-0.3l0,0c0-0.1,0-0.2,0-0.2
						c-12.1,10.8-25.2,20.6-39,29.1c-9.9,6.1-20.3,11.3-31.1,15.8l-4,1.6c-1.3,0.5-2.7,1.1-4.1,1.6l-8.2,2.9l-8.4,2.5
						c-1.4,0.4-2.8,0.8-4.2,1.1l-4.2,1c-22.6,5.3-46,7.2-69.2,5.5c-23.2-1.6-46.1-6.2-68.3-13.1c-22.2-6.8-43.8-15.8-64.6-26.2
						c-20.8-10.4-40.9-22.3-60.3-35.2s-38.2-26.8-56.2-41.5c-9-7.3-17.9-14.9-26.6-22.7s-17.2-15.7-25.4-24.1
						c32.4,33.5,68.6,63.5,107.2,89.7c19.3,13.1,39.5,25,60.3,35.6c20.9,10.5,42.5,19.6,64.9,26.5c22.4,6.8,45.5,11.4,68.8,12.9
						c23.4,1.6,47-0.3,69.7-5.9l4.3-1.1c1.4-0.4,2.8-0.7,4.2-1.2l8.4-2.6l8.3-3c1.4-0.5,2.7-1.1,4.1-1.6l4.1-1.7
						C751.3,912.8,761.7,907.4,771.6,901.2z"/>
					<path class="st18" d="M748.9,890.7c0.6,5.2,4.1,10,8.9,12c4-6.4,3.4-16.3,1.5-23.5c-0.4-1.3-1.2-2.9-2.6-2.9
						c-0.6,0-1.2,0.3-1.7,0.7C750.7,880,748.3,885.4,748.9,890.7z"/>
					<path class="st18" d="M797,855.9c-5.4-1.9-10.4,4.8-9.8,10.5c0.6,5.7,4.4,10.5,6.6,15.8c2.4-2.9,6.7-13,7.5-16.7
						C802.1,861.7,800.6,857.2,797,855.9z"/>
					<path class="st18" d="M768.8,877.5c1.2,4.3,7.3,10.4,11.1,12.6c1.4-5.2,1.2-10.9-0.6-15.9c-0.7-1.9-1.8-3.9-3.6-4.8
						C771.6,867.7,767.5,873.3,768.8,877.5z"/>
					<path class="st18" d="M734,913.7c6.1-5,9.6-13,9-20.9c-0.1-1.3-0.3-2.7-1.3-3.6c-1.7-1.6-4.7-0.5-6.5,1
						C728.5,895.8,728,907.3,734,913.7z"/>
					<path class="st18" d="M828.5,857.9L828.5,857.9L828.5,857.9c8.2-3.4,15.8-8.1,22.5-14.1c1.2-1.1,2.5-3,1.5-4.3
						c-0.5-0.7-1.5-0.9-2.3-1c-2.7-0.3-5.5-0.4-8.2-0.1c-4.9,0.5-9.9,2.3-13,6.2C825.8,848.3,825.2,854.3,828.5,857.9z"/>
					<path class="st18" d="M807.3,862.6c3.3-2.1,11.8-8.3,13.6-11.8c1.8-3.4,1.5-8.3-1.8-10.6c-4.4-3-10.9,1.1-12.4,6.3
						C805.2,851.7,806.7,857.2,807.3,862.6z"/>
					<path class="st18" d="M755.9,932.5c-0.1-1.3-0.9-2.4-1.7-3.3c-2.9-3.3-11.5-9.6-15.8-10.2c-2.4,2.1-2.5,5.9-1,8.7
						s4.2,4.8,6.8,6.5c2.1,1.4,4.3,2.7,6.8,2.7C753.5,937,756.1,935,755.9,932.5z"/>
					<path class="st18" d="M773,915.7c-2.6-2.7-13.1-4.2-16.7-4.9c-2.1,0-3.4,2.6-2.9,4.6c0.5,2.1,2.2,3.6,3.9,4.8
						c2.6,1.9,5.4,3.5,8.4,4.7c2.1,0.9,4.7,1.5,6.7,0.5C775.8,923.6,775.6,918.4,773,915.7z"/>
					<path class="st18" d="M816.5,900.4c0.2-4.1-4.2-6.8-8.2-7.8c-3.9-1-8.5-1.7-10.9-5.1c-2.5,4.5-0.7,11.8,3.4,15
						c2.6,1.9,5.6,3.7,8.9,3.6C812.9,906,816.3,903.6,816.5,900.4z"/>
					<path class="st18" d="M790.7,907.5c-3-2.8-9-7.2-12-10.1c-3.5,0.9-5.2,5.2-4.4,8.7c0.9,3.5,3.7,6.2,6.6,8.4
						c2.2,1.7,4.7,3.2,7.5,3.2s5.7-2.1,5.7-4.9C794,910.7,792.2,909,790.7,907.5z"/>
					<path class="st18" d="M809.9,873.1c0,4.4,2.1,8.8,5.7,11.5c4.3,3.2,10.5,3.6,15.2,1.1c1.2-0.7,2.5-1.9,2.2-3.3
						c-0.3-1-1.4-1.7-2.4-2.1C823.9,877.2,817,874.8,809.9,873.1z"/>
					<path class="st18" d="M822.5,862.3L822.5,862.3L822.5,862.3c-1.5,0.4-2.3,2.5-1.7,3.9c0.5,1.4,2,2.2,3.3,2.9
						c5.7,2.6,12.5,3.1,19,1.5c2.9-0.7,3.2-4.8,0.4-6C837.1,861.7,829.7,860.9,822.5,862.3L822.5,862.3z"/>
				</g>
				<g>
					<path class="st19" d="M437.4,747.9c8,22,17.2,43.4,27.9,64.2c10.7,20.8,22.9,40.8,36.9,59.5c14.1,18.7,30.1,36,48.1,50.9
						c18,15,38.2,27.4,59.9,36.2l4.1,1.6c1.4,0.5,2.7,1.1,4.1,1.5l8.3,2.8l8.4,2.4c1.4,0.4,2.8,0.7,4.2,1.1l4.3,1
						c11.4,2.6,23,4.4,34.7,5.2c16.1,1,32.3,0.5,48.3-1.3c0.1-0.1,0.1-0.1,0.2-0.2l0,0c0.1-0.1,0.1-0.1,0.2-0.2
						c-16.2,1.6-32.5,1.9-48.6,0.6c-11.6-0.9-23.1-2.8-34.4-5.4l-4.2-1c-1.4-0.4-2.8-0.7-4.2-1.1l-8.3-2.5l-8.2-2.9
						c-1.4-0.5-2.7-1-4.1-1.6l-4-1.6c-21.4-9-41.5-21.2-59.2-36.2c-17.8-14.9-33.7-32.1-47.6-50.7c-14-18.6-26.2-38.5-36.9-59.1
						L437.4,747.9z"/>
					<path class="st18" d="M666.1,952.6c-2.6,4.6-2.5,10.5,0.2,15c6.9-2.8,12.3-11.2,15-18.2c0.5-1.3,0.8-3.1-0.4-3.9
						c-0.5-0.4-1.1-0.4-1.8-0.5C673.9,945.1,668.7,948,666.1,952.6z"/>
					<path class="st18" d="M725.5,952.7c-3.2-4.7-11.3-2.3-14.1,2.7c-2.9,5-2.6,11.1-3.9,16.6c3.7-0.9,13-6.6,15.9-9.1
						C726.2,960.4,727.6,955.9,725.5,952.7z"/>
					<path class="st18" d="M689.9,953.6c-1.5,4.2-0.2,12.7,1.6,16.8c4.2-3.4,7.4-8.1,8.9-13.2c0.6-2,0.9-4.2-0.1-6
						C698,947.4,691.4,949.5,689.9,953.6z"/>
					<path class="st18" d="M640.6,962.5c7.9-0.4,15.5-4.9,19.6-11.6c0.7-1.1,1.3-2.4,1.1-3.7c-0.5-2.3-3.5-3.2-5.8-3
						C646.6,944.8,639.4,953.8,640.6,962.5z"/>
					<path class="st18" d="M749.8,972.8L749.8,972.8L749.8,972.8c8.6,2.1,17.6,2.7,26.5,1.8c1.6-0.2,3.8-0.9,3.7-2.6
						c0-0.9-0.7-1.6-1.3-2.2c-2-1.9-4.2-3.5-6.6-4.9c-4.3-2.4-9.4-4-14.2-2.7C753.3,963.5,749.3,968,749.8,972.8z"/>
					<path class="st18" d="M729.9,964.2c3.9,0.2,14.4,0.2,17.9-1.6c3.5-1.7,6.1-5.9,4.8-9.6c-1.8-5.1-9.4-5.5-13.7-2.2
						C734.6,954.1,732.6,959.5,729.9,964.2z"/>
					<path class="st18" d="M647.2,990.6c0.7-1.1,0.7-2.4,0.6-3.7c-0.4-4.4-3.6-14.5-6.8-17.6c-3.2,0.3-5.5,3.3-5.9,6.5
						s0.6,6.3,1.6,9.2c0.9,2.3,1.9,4.8,3.9,6.2C642.6,992.8,645.9,992.8,647.2,990.6z"/>
					<path class="st18" d="M671,987c-0.5-3.7-8.1-11.1-10.6-13.8c-1.8-1.2-4.3,0.1-5.1,2c-0.8,2-0.3,4.2,0.3,6.2
						c1,3.1,2.3,6,4.1,8.7c1.2,2,2.9,4,5.2,4.3C668.6,995,671.4,990.7,671,987z"/>
					<path class="st18" d="M715.1,1000.2c2.6-3.2,0.6-8-2-11.2s-5.9-6.4-5.8-10.5c-4.7,2.2-7.5,9.1-6,14.1c1,3.1,2.4,6.3,5,8.1
						C708.9,1002.6,713.1,1002.7,715.1,1000.2z"/>
					<path class="st18" d="M690.1,990.7c-0.8-4-3-11.2-3.8-15.2c-3.3-1.4-7.3,1.1-8.7,4.5s-0.7,7.2,0.4,10.7c0.8,2.7,2,5.4,4.2,7
						s5.9,1.7,7.5-0.6C690.8,995.3,690.5,992.9,690.1,990.7z"/>
					<path class="st18" d="M725.8,974.2c-2.6,3.5-3.5,8.4-2.1,12.6c1.6,5.1,6.4,9.1,11.7,9.8c1.4,0.2,3.1-0.1,3.7-1.3
						c0.4-1-0.1-2.2-0.7-3.2C734.8,985.8,730.6,979.8,725.8,974.2z"/>
					<path class="st18" d="M742.4,972.9L742.4,972.9L742.4,972.9c-1.5-0.6-3.3,0.7-3.7,2.1c-0.4,1.5,0.3,2.9,1,4.3
						c3.1,5.5,8.3,9.9,14.5,12.3c2.8,1.1,5.5-2,3.9-4.6C754.5,981,749.1,976,742.4,972.9L742.4,972.9z"/>
				</g>
				<g>
					<path class="st19" d="M25,737c8.9-2.8,34.1-10.7,42.9-14c8.7-3.3,17.4-6.7,26-10.4c17.2-7.2,34.1-15.3,50.1-24.9
						c8-4.8,15.8-10.1,23.2-15.7c7.4-5.7,14.5-11.9,21-18.6c6.5-6.7,12.5-14,17.7-21.8c2.6-3.9,5-7.9,7.3-12
						c2.2-4.1,4.2-8.4,6.1-12.7c3.7-8.6,6.5-17.5,8.9-26.6c0.3-1.1,0.5-2.1,0.8-3.2l-0.6-0.3c0.2,0,0.5,0,0.7,0.1
						c1.9-7.9,3.3-16,4.4-24.1c2.5-18.5,3.6-37.1,4.4-55.7c-1.2,18.6-2.5,37.2-5.3,55.6c-1.4,9.2-3.2,18.3-5.5,27.3
						c-2.4,9-5.3,17.8-9,26.3c-1.9,4.2-3.9,8.4-6.1,12.5c-2.2,4.1-4.7,8-7.2,11.9c-5.2,7.7-11.1,14.8-17.6,21.5
						c-6.5,6.6-13.5,12.7-20.9,18.4c-7.4,5.6-15.1,10.8-23.1,15.6c-15.9,9.6-32.7,17.7-49.8,24.9C76,718.3,42.6,731.3,25,737z"/>
					<path class="st18" d="M235.5,494.7c7.3-2.6,13.6-8.4,16.6-15.6c0.6-1.3,1-2.7,1-4.1c-0.2-3.9-4.7-6.7-8.6-5.8
						c-3.8,0.8-6.7,4.3-7.9,8C235.5,480.7,235.4,490,235.5,494.7L235.5,494.7L235.5,494.7z"/>
					<path class="st18" d="M239.8,523.7c5.6,2.8,12.7-1.5,17.1-6.3c1.7-1.8,3.4-3.8,3.8-6.2c0.4-2.4-1.2-5.3-3.6-5.5
						c-1.6-0.1-3,0.8-4.3,1.8C247.9,511.3,243.4,518.3,239.8,523.7z"/>
					<path class="st18" d="M250.1,539.7c-3.6,1.1-9.5,5.3-10.9,9.1c6.4,4.4,15.2,5,22.1,1.3c1.6-0.9,3.3-2.1,3.9-3.8
						c1.2-3.2-1.7-6.7-5-7.6C256.8,537.8,253.3,538.8,250.1,539.7z"/>
					<path class="st18" d="M217.8,514.3c3.3,2.7,9.8,3.9,14.3,3.3l0,0l0,0c0.1-4.3-0.3-8.8-2.6-12.4c-2.7-4.2-9.1-6.3-12.8-3
						C213.2,505.3,214.2,511.4,217.8,514.3z"/>
					<path class="st18" d="M224.7,552.2L224.7,552.2L224.7,552.2c3.6-5.4,4.3-18.8-0.2-22c-4.8-3.6-13.3,0.1-13.2,6.1
						c0.1,2.9,1.8,5.5,3.5,7.8C217.4,547.6,220.5,551.4,224.7,552.2z"/>
					<path class="st18" d="M255.1,576.7c3.5-2.3,4.8-8.2,1.3-10.5c-1.1-0.8-2.5-1-3.9-1.1c-4.7-0.5-9.7-0.3-13.9,1.9
						c-3.9,2-7,6-7.2,10.3c3.8,0.4,7.6,0.7,11.4,1.1C247,578.6,251.6,578.9,255.1,576.7z"/>
					<path class="st18" d="M220.3,582.2c4.1-7.1,3.3-16.6-2-22.9c-0.9-1.1-2.2-2.2-3.6-2c-2.2,0.3-2.9,2.9-3.2,5
						c-0.5,3.7-1,7.7,0.2,11.2C213,577.1,216.6,582.9,220.3,582.2z"/>
					<path class="st18" d="M247.8,598.5c2.3-1.3,4.4-3.6,4.3-6.2c-0.2-4.1-5.3-6.1-9.3-5.5c-3.8,0.6-11.3,7.5-15.6,8.5
						C232.3,600.7,241.3,602.2,247.8,598.5z"/>
					<path class="st18" d="M205.9,610.5c3-5.8,4.9-12.2,5.5-18.6c0.2-1.7,0.2-3.6-0.8-5c-1.2-1.6-3.3-2.2-5.3-1.9
						c-5.8,0.7-9.5,7.3-8.6,13.1C197.5,603.3,201.3,607.7,205.9,610.5z"/>
					<path class="st18" d="M230.1,624.3c4.8,1.7,10.2,1.1,15-0.5c1.3-0.4,2.6-1,3.4-2c1.8-2.2,0.4-5.7-2-7.2s-5.4-1.5-8.2-1.5
						c-4.6,0-13,0.3-17.3,2.6C222.5,619.8,226.1,623,230.1,624.3z"/>
					<path class="st18" d="M187.8,634.4c2.1-4,6.3-9.4,7.4-13.8c0.7-2.6,1.2-5.5-0.2-7.8c-2-3.7-7.8-3.9-10.9-1
						c-3.1,2.9-3.7,7.7-2.5,11.8C182.8,627.5,185.3,631,187.8,634.4z"/>
				</g>
			</g>
		</g>
		<g>
			<g>
				<path class="st21" d="M1774.8,560c0.4-16.8,9.5-33.1,23.5-42.2c10.6-6.9,23.3-9.6,35.7-12.2c8.2,3.6,17.6,3.2,26.6,2.7
					c3.4-0.2,6.9-0.4,10.3-1.1c0.1,0,0.2,0,0.3-0.1c0.2,0,0.4-0.1,0.6-0.1l0,0c1.7-0.4,3.4-0.9,4.9-1.7c1.2-0.6,2.4-1.3,3.5-2.2
					c1,9.5-4.2,18.6-7.5,27.7c-0.5,1.3-0.9,2.7-1.3,4c0,0,0,0,0,0.1c-1.9,4.4-10.1,12.3-16.8,17.6c-2.7,2.2-5.2,3.9-6.9,4.8
					c-7.1,3.7-15.4,4.2-23.1,6.5c-9.3,2.7-18.2,7.9-27.9,7.8c-5.7,0-11.1-1.9-16.5-3.7c-1.5-0.5-3-1.1-4-2.2
					C1774.9,564.1,1774.7,562,1774.8,560z"/>
				<g>
					<g>
						<path class="st22" d="M1781.2,557.7c7.2-5.2,14.6-9.9,22.1-14.4c1.1-0.7,2.2-1.3,3.2-1.9c0.9-0.5,1.9-1.1,2.8-1.6
							c1.8-1,3.6-2,5.4-3.1c3.9-2.1,7.7-4.2,11.6-6.2c1.1-0.5,2.1-1.1,3.2-1.6c0.3-0.1,0.5-0.3,0.8-0.4c2.6-1.3,5.2-2.6,7.9-3.8
							c1.8-0.9,3.7-1.7,5.5-2.6c0.5-0.2,1-0.4,1.4-0.7c1.7-0.8,3.3-1.5,5-2.2c2-0.9,4-1.8,6.1-2.6c2-0.8,4.1-1.7,6.1-2.5
							c2-0.9,3.9-1.8,5.6-3.2c1.2-1,2.3-2.2,2.9-3.6c0.1,0,0.2,0,0.3-0.1c-0.1,0.5-0.3,1.1-0.6,1.6c-0.5,1-1.2,1.9-2,2.7
							c-1.6,1.6-3.5,2.8-5.5,3.9c-4,2-7.9,3.9-11.8,5.9l-4,2l-0.7,0.4l-7.1,3.6c-2.4,1.2-4.8,2.4-7.2,3.6l-1,0.5
							c-1.2,0.6-2.3,1.2-3.5,1.8c-3.9,2-7.8,4-11.7,6l-4.5,2.4l-1,0.5l-6.1,3.2C1796.8,549.4,1789,553.6,1781.2,557.7z"/>
						<path class="st22" d="M1811.4,539.9c0.4,2.2,0.6,4.3,0.6,6.5c0,2.1-0.1,4.3-0.3,6.4c-0.2,2.1-0.5,4.2-0.9,6.3s-1,4.2-1.8,6.2
							c-0.4-2.2-0.6-4.3-0.6-6.5c0-2.1,0.1-4.3,0.3-6.4c0.2-2.1,0.5-4.2,0.9-6.3C1810,544.1,1810.5,542,1811.4,539.9L1811.4,539.9z"
							/>
						<path class="st22" d="M1831.3,528.9c1.2,1.9,2.1,4,2.6,6.2c0.6,2.2,0.9,4.4,0.9,6.7c0.1,2.2-0.1,4.5-0.6,6.7s-1.2,4.3-2.3,6.3
							c-0.1-2.3-0.1-4.4-0.1-6.6c0-2.1,0-4.3-0.1-6.4c-0.1-2.1-0.1-4.2-0.2-6.4C1831.4,533.3,1831.3,531.1,1831.3,528.9
							L1831.3,528.9z"/>
						<path class="st22" d="M1845.8,522c2.3,1.7,4.2,4,5.7,6.5s2.6,5.3,3.3,8.1c0.7,2.9,0.9,5.8,0.6,8.7s-1,5.8-2.3,8.3
							c0.1-2.9,0.1-5.6-0.1-8.4c-0.2-2.7-0.6-5.4-1.2-8s-1.4-5.2-2.4-7.7C1848.3,527,1847.1,524.5,1845.8,522L1845.8,522z"/>
						<path class="st22" d="M1812,540.7c-1.9,0.5-3.7,0.6-5.6,0.6c-1.8,0-3.7-0.2-5.5-0.5s-3.6-0.7-5.4-1.3s-3.5-1.3-5.1-2.4
							c1.9-0.2,3.7-0.1,5.6,0c1.8,0.1,3.6,0.4,5.4,0.7s3.5,0.7,5.3,1.1C1808.5,539.3,1810.2,539.9,1812,540.7L1812,540.7z"/>
						<path class="st22" d="M1831.2,529.7c-2-1.2-3.9-2.2-5.8-3.2s-3.9-1.8-5.9-2.5s-4-1.3-6.1-1.8s-4.2-0.8-6.5-1.2
							c2.1-0.9,4.5-1.3,6.8-1.2c2.3,0,4.7,0.5,6.9,1.3c2.2,0.8,4.3,1.9,6.1,3.4C1828.5,525.9,1830.1,527.6,1831.2,529.7
							L1831.2,529.7z"/>
						<path class="st22" d="M1846.2,522c-1.9,0.1-3.6-0.2-5.4-0.5c-1.7-0.3-3.5-0.8-5.1-1.3c-1.7-0.5-3.3-1.2-4.9-2
							s-3.2-1.6-4.7-2.8c1.9-0.1,3.6,0.2,5.4,0.5c1.7,0.3,3.5,0.8,5.1,1.3c1.7,0.5,3.3,1.2,4.9,2
							C1843.2,520,1844.8,520.9,1846.2,522L1846.2,522z"/>
					</g>
				</g>
			</g>
			<g>
				<path class="st11" d="M1728.2,578.6c10.5-15.8,29-25.9,47.8-26.1c14.3-0.2,28,4.9,41.4,9.9c5.7,8.4,14.9,13.6,23.8,18.5
					c3.4,1.9,6.8,3.8,10.5,5.1c0.1,0,0.2,0.1,0.3,0.1c0.2,0.1,0.4,0.1,0.6,0.2l0,0c1.9,0.7,3.8,1.1,5.7,1.4c1.5,0.2,3.1,0.2,4.6,0
					c-4.7,9.6-15.2,15.2-23.8,21.9c-1.3,1-2.5,2-3.6,3.1c0,0-0.1,0-0.1,0.1c-4.5,3.1-17.1,5.7-26.6,6.7c-3.9,0.4-7.3,0.6-9.5,0.4
					c-9-0.8-17.2-5.2-25.9-7.7c-10.5-3.1-22.1-3.4-31.4-9.3c-5.4-3.5-9.5-8.5-13.5-13.5c-1.1-1.4-2.2-2.8-2.5-4.5
					C1725.8,582.6,1727,580.5,1728.2,578.6z"/>
				<g>
					<path class="st7" d="M1735.8,580.3c9.9-0.6,19.9-0.7,29.8-0.5c1.4,0,2.8,0.1,4.3,0.1c1.2,0,2.4,0.1,3.7,0.2
						c2.3,0.1,4.7,0.2,7,0.3c5,0.3,9.9,0.7,14.9,1.1c1.3,0.1,2.7,0.3,4,0.4c0.3,0,0.7,0.1,1,0.1c3.3,0.3,6.5,0.7,9.8,1.1
						c2.3,0.3,4.6,0.6,6.8,0.9c0.6,0.1,1.2,0.2,1.8,0.2c2,0.3,4.1,0.6,6.1,0.9c2.4,0.4,4.9,0.8,7.3,1.2s4.9,0.9,7.3,1.3
						c2.4,0.4,4.8,0.6,7.2,0.3c1.7-0.2,3.5-0.7,4.9-1.7c0.1,0,0.2,0.1,0.3,0.1c-0.5,0.4-1,0.8-1.5,1.2c-1.1,0.7-2.3,1.1-3.6,1.4
						c-2.5,0.6-5.1,0.6-7.6,0.4c-5-0.4-9.9-1-14.8-1.5l-5-0.5l-0.9-0.1l-8.9-0.9c-3-0.3-6-0.6-9-0.8l-1.3-0.1
						c-1.5-0.1-3-0.2-4.4-0.4c-4.9-0.5-9.9-0.9-14.8-1.3l-5.7-0.4l-1.3-0.1l-7.7-0.6C1755.5,581.8,1745.7,581.1,1735.8,580.3z"/>
					<path class="st7" d="M1775.2,581.5c-0.9,2.3-2.1,4.5-3.3,6.5c-1.3,2.1-2.6,4-4.1,5.9s-3,3.7-4.7,5.5c-1.7,1.7-3.4,3.4-5.5,4.9
						c0.9-2.3,2.1-4.5,3.3-6.5c1.3-2.1,2.6-4,4.1-5.9s3-3.7,4.7-5.5C1771.4,584.6,1773.1,583,1775.2,581.5L1775.2,581.5z"/>
					<path class="st7" d="M1800.8,582.9c0,2.6-0.5,5.1-1.2,7.5c-0.8,2.4-1.8,4.7-3.1,6.9c-1.3,2.2-2.8,4.2-4.6,6
						c-1.8,1.8-3.7,3.4-6,4.6c1.3-2.2,2.6-4.3,3.9-6.3s2.5-4.1,3.8-6.1c1.2-2,2.4-4.1,3.6-6.2
						C1798.3,587.2,1799.5,585.1,1800.8,582.9L1800.8,582.9z"/>
					<path class="st7" d="M1818.8,585.1c1.2,3,1.6,6.3,1.6,9.6c-0.1,3.3-0.7,6.6-1.8,9.7c-1.1,3.1-2.7,6.1-4.7,8.7
						c-2,2.6-4.4,4.9-7.3,6.5c1.8-2.7,3.5-5.3,5-8c1.4-2.7,2.7-5.5,3.7-8.4s1.8-5.8,2.4-8.8C1818.2,591.4,1818.6,588.3,1818.8,585.1
						L1818.8,585.1z"/>
					<path class="st7" d="M1775.3,582.6c-2.1-0.7-3.9-1.7-5.7-2.8c-1.8-1.1-3.4-2.4-5-3.7c-1.6-1.4-3-2.9-4.3-4.5s-2.5-3.4-3.4-5.3
						c1.9,1,3.7,2.1,5.3,3.3c1.6,1.2,3.2,2.5,4.7,3.9c1.5,1.3,3,2.8,4.4,4.2C1772.8,579.2,1774.1,580.7,1775.3,582.6L1775.3,582.6z"
						/>
					<path class="st7" d="M1800.3,583.6c-1.2-2.3-2.4-4.5-3.6-6.6c-1.3-2.1-2.6-4-4.1-5.9s-3.1-3.6-4.8-5.4
						c-1.7-1.7-3.6-3.3-5.5-5.1c2.6,0.4,5,1.5,7.2,2.9s4.2,3.3,5.8,5.3c1.6,2.1,2.9,4.4,3.8,6.9C1800,578.4,1800.5,581,1800.3,583.6
						L1800.3,583.6z"/>
					<path class="st7" d="M1819.2,585.4c-1.8-1.1-3.4-2.4-4.9-3.7c-1.5-1.4-2.8-2.8-4.1-4.3c-1.3-1.5-2.4-3.1-3.5-4.8
						s-2-3.5-2.8-5.5c1.8,1.1,3.4,2.4,4.9,3.7c1.5,1.4,2.8,2.8,4.1,4.3c1.3,1.5,2.4,3.1,3.5,4.8
						C1817.5,581.6,1818.5,583.4,1819.2,585.4L1819.2,585.4z"/>
				</g>
			</g>
			<g>
				<path class="st11" d="M1687.8,881.4c11.7,28,37.8,49.6,67.4,55.7c22.5,4.6,45.7,0.9,68.3-3c11.5-11.5,27.6-16.9,43.1-22
					c5.9-2,11.9-3.9,18.1-4.8c0.2,0,0.3-0.1,0.5-0.1c0.3-0.1,0.7-0.1,1-0.2l0,0c3.1-0.5,6.3-0.6,9.4-0.4c0,0,0,0,0.1,0
					c2.7,0.2,4.4-2.8,2.9-5c-6.4-9.2-18.4-26.2-26.5-35.5c-1.7-1.9-3.3-3.9-4.8-5.9c0,0,0,0-0.1-0.1c-6.1-6.2-25.2-14.2-39.9-18.7
					c-6-1.9-11.3-3.1-14.8-3.5c-14.4-1.5-28.7,3-43.2,4.3c-17.5,1.6-35.9-1.4-52.2,5.1c-9.5,3.8-17.5,10.5-25.4,17.1
					c-2.1,1.8-4.3,3.8-5.3,6.4C1685.3,874.3,1686.5,878.1,1687.8,881.4z"/>
				<g>
					<path class="st7" d="M1700.3,881.1c15.5,4,31.1,7.2,46.8,9.8c2.2,0.4,4.5,0.8,6.7,1.1c1.9,0.3,3.9,0.6,5.8,0.9
						c3.7,0.6,7.4,1.1,11.1,1.6c7.9,1,15.8,2,23.7,2.9c2.1,0.2,4.3,0.4,6.4,0.6c0.5,0.1,1.1,0.1,1.6,0.1c5.2,0.5,10.5,0.9,15.8,1.3
						c3.7,0.2,7.4,0.5,11,0.7c1,0.1,1.9,0.1,2.9,0.2c3.3,0.2,6.6,0.3,10,0.5c4,0.1,8,0.3,11.9,0.4c4,0.1,8,0.1,11.9,0.2
						c3.9,0.2,7.8,0.5,11.5,1.7c2.7,0.8,5.2,2.2,7.2,4.3c0.2,0,0.3-0.1,0.5-0.1c-0.6-0.8-1.3-1.6-2.1-2.3c-1.5-1.4-3.3-2.4-5.2-3.3
						c-3.8-1.7-7.8-2.4-11.8-3c-8-0.8-15.8-1.5-23.8-2.2l-8-0.8l-1.4-0.1l-14.3-1.4c-4.8-0.4-9.7-0.9-14.5-1.4l-2.1-0.2
						c-2.4-0.3-4.7-0.5-7.1-0.8c-7.9-0.8-15.8-1.7-23.6-2.5l-9.2-1.1l-2.1-0.2l-12.4-1.4C1731.9,884.7,1716.1,882.8,1700.3,881.1z"
						/>
					<path class="st7" d="M1762.8,891.2c-0.7-4-1.9-7.7-3.2-11.3c-1.4-3.6-2.9-7.2-4.6-10.6c-1.7-3.4-3.6-6.8-5.7-10.1
						c-2.1-3.2-4.4-6.4-7.1-9.3c0.7,4,1.9,7.7,3.2,11.3c1.4,3.6,2.9,7.2,4.6,10.6c1.7,3.4,3.6,6.8,5.7,10.1
						C1757.7,885.1,1760,888.3,1762.8,891.2L1762.8,891.2z"/>
					<path class="st7" d="M1803.6,896.8c0.8-4,0.8-8.1,0.4-12.2c-0.5-4-1.4-8-2.8-11.9c-1.4-3.8-3.2-7.5-5.4-10.9
						c-2.2-3.4-4.8-6.6-8.1-9.1c1.3,3.9,2.8,7.5,4.2,11.1c1.4,3.6,2.7,7.2,4,10.8s2.5,7.2,3.8,10.9
						C1801,889.2,1802.1,893,1803.6,896.8L1803.6,896.8z"/>
					<path class="st7" d="M1832.6,898.9c2.8-4.4,4.5-9.5,5.4-14.7s0.9-10.6,0.1-15.9c-0.8-5.3-2.4-10.4-4.7-15.2
						c-2.4-4.7-5.5-9.1-9.4-12.5c2.1,4.8,3.9,9.4,5.4,14.2c1.5,4.7,2.5,9.5,3.3,14.3c0.7,4.8,1.1,9.7,1,14.6
						C1833.6,888.7,1833.2,893.7,1832.6,898.9L1832.6,898.9z"/>
					<path class="st7" d="M1763.3,889.6c-3.5,0.4-6.7,1.4-9.8,2.6c-3.1,1.2-6.1,2.7-9,4.4s-5.6,3.6-8.2,5.8s-5,4.5-7,7.4
						c3.4-0.9,6.4-2.2,9.4-3.6c3-1.4,5.8-3,8.6-4.6c2.8-1.7,5.5-3.4,8.2-5.4C1758.3,894.1,1760.9,892.1,1763.3,889.6L1763.3,889.6z"
						/>
					<path class="st7" d="M1802.9,895.4c-2.6,3.3-5.1,6.3-7.7,9.2s-5.4,5.5-8.3,8s-5.9,4.8-9.2,7c-3.2,2.2-6.6,4.2-10.2,6.3
						c4.2,0.2,8.4-0.8,12.3-2.4c3.9-1.6,7.6-3.9,10.8-6.6c3.2-2.8,6-6.1,8.1-9.7C1800.9,903.6,1802.4,899.6,1802.9,895.4
						L1802.9,895.4z"/>
					<path class="st7" d="M1833.3,898.5c-3.2,1.1-6,2.7-8.8,4.4c-2.7,1.7-5.3,3.6-7.8,5.6s-4.8,4.2-7,6.5c-2.2,2.4-4.3,4.9-6,7.8
						c3.2-1.1,6.1-2.7,8.8-4.4c2.7-1.7,5.3-3.6,7.8-5.6s4.8-4.2,7-6.5C1829.5,903.9,1831.6,901.4,1833.3,898.5L1833.3,898.5z"/>
				</g>
			</g>
			<g>
				<path class="st11" d="M1285.9,553.7c6,11.3,17.9,19.3,30.6,20.7c9.6,1,19.2-1.5,28.6-4c4.4-5.3,10.9-8.2,17.2-11
					c2.4-1.1,4.9-2.1,7.4-2.7c0.1,0,0.1,0,0.2-0.1c0.1,0,0.3-0.1,0.4-0.1l0,0c1.3-0.3,2.6-0.5,4-0.5c1,0,2.1,0.1,3.1,0.3
					c-2.6-6.8-9.3-11.3-14.6-16.4c-0.8-0.7-1.5-1.5-2.3-2.3l0,0c-2.8-2.4-11.1-4.9-17.5-6.2c-2.6-0.5-4.9-0.9-6.4-0.9
					c-6.1-0.1-12,2.4-18,3.5c-7.3,1.4-15.1,0.9-21.8,4.2c-3.9,2-7,5.1-10,8.2c-0.8,0.9-1.7,1.8-2,2.9
					C1284.6,550.8,1285.2,552.3,1285.9,553.7z"/>
				<g>
					<path class="st7" d="M1291.1,553c6.7,1.1,13.4,1.8,20.1,2.3c1,0.1,1.9,0.1,2.9,0.2c0.8,0.1,1.7,0.1,2.5,0.1
						c1.6,0.1,3.2,0.2,4.7,0.2c3.4,0.1,6.7,0.2,10.1,0.2c0.9,0,1.8,0,2.7,0c0.2,0,0.4,0,0.7,0c2.2,0,4.5,0,6.7-0.1
						c1.6,0,3.1-0.1,4.7-0.1c0.4,0,0.8,0,1.2,0c1.4-0.1,2.8-0.1,4.2-0.2c1.7-0.1,3.4-0.2,5-0.3c1.7-0.1,3.4-0.3,5-0.4
						c1.6-0.1,3.3-0.1,4.9,0.3c1.2,0.2,2.3,0.7,3.2,1.5c0.1,0,0.1,0,0.2-0.1c-0.3-0.3-0.6-0.6-1-0.9c-0.7-0.5-1.5-0.9-2.3-1.2
						c-1.6-0.6-3.4-0.7-5.1-0.8c-3.4,0-6.7,0-10.1,0h-3.4h-0.6h-6.1c-2.1,0-4.1,0-6.1,0h-0.9c-1,0-2,0-3,0c-3.3,0-6.7-0.1-10-0.1
						l-3.9-0.1h-0.9l-5.3-0.1C1304.6,553.3,1297.9,553.1,1291.1,553z"/>
					<path class="st7" d="M1317.8,554.8c-0.4-1.6-1.1-3.2-1.8-4.6c-0.7-1.5-1.5-2.9-2.4-4.3c-0.9-1.4-1.8-2.7-2.8-4
						s-2.1-2.5-3.4-3.6c0.4,1.6,1.1,3.2,1.8,4.6c0.7,1.5,1.5,2.9,2.4,4.3c0.9,1.4,1.8,2.7,2.8,4
						C1315.5,552.4,1316.5,553.7,1317.8,554.8L1317.8,554.8z"/>
					<path class="st7" d="M1335.2,555.5c0.2-1.7,0-3.5-0.3-5.1c-0.4-1.7-0.9-3.3-1.6-4.9c-0.7-1.6-1.6-3-2.7-4.4
						c-1.1-1.3-2.3-2.6-3.8-3.5c0.7,1.6,1.5,3.1,2.2,4.5c0.7,1.5,1.4,2.9,2.1,4.4s1.4,2.9,2,4.4
						C1333.8,552.4,1334.4,554,1335.2,555.5L1335.2,555.5z"/>
					<path class="st7" d="M1347.5,555.2c1-2,1.5-4.2,1.7-6.4s0-4.5-0.6-6.7c-0.5-2.2-1.4-4.3-2.6-6.2s-2.7-3.6-4.5-4.9
						c1.1,1.9,2,3.8,2.8,5.7s1.4,3.9,1.9,5.9s0.8,4,1,6.1C1347.5,550.9,1347.5,553,1347.5,555.2L1347.5,555.2z"/>
					<path class="st7" d="M1318,554.1c-1.4,0.3-2.8,0.9-4,1.5c-1.3,0.6-2.5,1.4-3.6,2.2s-2.2,1.7-3.2,2.7s-1.9,2.1-2.7,3.4
						c1.4-0.5,2.6-1.2,3.8-1.9c1.2-0.7,2.3-1.5,3.4-2.3s2.2-1.7,3.2-2.6C1316,556.2,1317.1,555.2,1318,554.1L1318,554.1z"/>
					<path class="st7" d="M1334.9,555c-1,1.5-1.9,2.9-2.9,4.2s-2,2.5-3.1,3.7s-2.3,2.3-3.6,3.3c-1.3,1-2.6,2-4.1,3
						c1.8-0.1,3.5-0.7,5.1-1.5s3-1.9,4.3-3.2c1.2-1.3,2.3-2.8,3-4.4C1334.3,558.5,1334.8,556.8,1334.9,555L1334.9,555z"/>
					<path class="st7" d="M1347.8,555c-1.3,0.6-2.4,1.4-3.5,2.2s-2.1,1.7-3,2.7c-1,0.9-1.9,2-2.7,3c-0.8,1.1-1.6,2.2-2.2,3.5
						c1.3-0.6,2.4-1.4,3.5-2.2s2.1-1.7,3-2.7c1-1,1.9-2,2.7-3S1347.2,556.3,1347.8,555L1347.8,555z"/>
				</g>
			</g>
			<g>
				<path class="st21" d="M1594.8,522.4c-1.5,11.6-9.1,22.2-19.5,27.5c-7.9,4-16.9,4.9-25.7,5.7c-5.4-3.1-11.9-3.5-18.2-3.8
					c-2.4-0.1-4.8-0.2-7.2,0c-0.1,0-0.1,0-0.2,0s-0.3,0-0.4,0l0,0c-1.2,0.1-2.4,0.4-3.6,0.8c-0.9,0.3-1.8,0.7-2.6,1.2
					c0-6.6,4.3-12.6,7.3-18.6c0.4-0.9,0.8-1.8,1.2-2.7l0,0c1.7-2.9,7.9-7.8,13-10.9c2.1-1.3,3.9-2.3,5.1-2.8c5.2-2,11-1.8,16.5-2.8
					c6.7-1.1,13.2-4.1,19.9-3.3c3.9,0.5,7.6,2.2,11.2,3.8c1,0.5,2,1,2.6,1.9C1595,519.5,1595,521,1594.8,522.4z"/>
				<g>
					<path class="st23" d="M1590.1,523.5c-5.3,3-10.8,5.8-16.4,8.3c-0.8,0.4-1.6,0.7-2.4,1.1c-0.7,0.3-1.4,0.6-2.1,0.9
						c-1.3,0.6-2.6,1.1-4,1.7c-2.8,1.2-5.7,2.3-8.5,3.4c-0.8,0.3-1.6,0.6-2.3,0.9c-0.2,0.1-0.4,0.1-0.6,0.2
						c-1.9,0.7-3.8,1.4-5.7,2.1c-1.3,0.5-2.7,0.9-4,1.4c-0.4,0.1-0.7,0.2-1.1,0.3c-1.2,0.4-2.4,0.8-3.7,1.2
						c-1.5,0.4-2.9,0.9-4.4,1.3c-1.5,0.4-3,0.8-4.4,1.3s-2.8,1-4.1,1.8c-0.9,0.6-1.7,1.3-2.3,2.3c-0.1,0-0.1,0-0.2,0
						c0.1-0.4,0.3-0.7,0.5-1.1c0.4-0.7,1-1.2,1.6-1.7c1.2-1,2.7-1.7,4.1-2.3c2.9-1.1,5.7-2.1,8.6-3.2l2.9-1.1l0.5-0.2l5.2-1.9
						c1.8-0.7,3.5-1.3,5.2-2l0.8-0.3c0.9-0.3,1.7-0.7,2.6-1c2.9-1.1,5.7-2.2,8.5-3.3l3.3-1.3l0.8-0.3l4.5-1.8
						C1578.7,528,1584.4,525.7,1590.1,523.5z"/>
					<path class="st23" d="M1567.9,533.5c-0.1-1.5-0.1-3,0.1-4.5c0.1-1.5,0.4-3,0.7-4.4c0.3-1.5,0.7-2.9,1.1-4.3
						c0.5-1.4,1-2.8,1.7-4.2c0.1,1.5,0.1,3-0.1,4.5c-0.1,1.5-0.4,3-0.7,4.4c-0.3,1.5-0.7,2.9-1.1,4.3
						C1569.2,530.8,1568.6,532.2,1567.9,533.5L1567.9,533.5z"/>
					<path class="st23" d="M1553.3,539.7c-0.7-1.4-1.1-2.9-1.4-4.5c-0.2-1.5-0.3-3.1-0.2-4.7c0.1-1.6,0.4-3.1,0.9-4.6
						s1.1-2.9,2.1-4.2c-0.1,1.6-0.3,3.1-0.4,4.6c-0.2,1.5-0.3,2.9-0.4,4.4s-0.2,2.9-0.3,4.4C1553.5,536.6,1553.5,538.1,1553.3,539.7
						L1553.3,539.7z"/>
					<path class="st23" d="M1542.7,543.4c-1.5-1.4-2.6-3.1-3.5-4.9c-0.9-1.8-1.4-3.8-1.6-5.9c-0.2-2-0.2-4.1,0.2-6.1
						c0.4-2,1.1-3.9,2.2-5.6c-0.3,2-0.5,3.9-0.6,5.8c-0.1,1.9,0,3.8,0.2,5.6c0.2,1.9,0.6,3.7,1.1,5.5
						C1541.3,539.7,1542,541.5,1542.7,543.4L1542.7,543.4z"/>
					<path class="st23" d="M1567.5,533c1.3-0.2,2.6-0.1,3.9,0s2.5,0.4,3.8,0.7c1.2,0.3,2.4,0.8,3.6,1.3s2.3,1.2,3.3,2
						c-1.3,0-2.6-0.2-3.9-0.4c-1.2-0.2-2.5-0.5-3.7-0.9c-1.2-0.3-2.4-0.7-3.6-1.2C1569.9,534.2,1568.7,533.7,1567.5,533L1567.5,533z
						"/>
					<path class="st23" d="M1553.4,539.1c1.3,1,2.5,1.8,3.8,2.7c1.3,0.8,2.5,1.5,3.9,2.2c1.3,0.6,2.7,1.2,4.1,1.7s2.9,0.9,4.4,1.3
						c-1.5,0.5-3.2,0.5-4.8,0.4c-1.6-0.2-3.2-0.7-4.7-1.4s-2.8-1.6-4-2.8C1555,542,1554,540.7,1553.4,539.1L1553.4,539.1z"/>
					<path class="st23" d="M1542.4,543.3c1.3,0.1,2.5,0.4,3.7,0.7c1.2,0.4,2.3,0.8,3.5,1.3c1.1,0.5,2.2,1.1,3.3,1.7
						c1.1,0.7,2.1,1.4,3,2.3c-1.3-0.1-2.5-0.4-3.7-0.7c-1.2-0.4-2.3-0.8-3.5-1.3c-1.1-0.5-2.2-1.1-3.3-1.7
						C1544.4,545,1543.3,544.2,1542.4,543.3L1542.4,543.3z"/>
				</g>
			</g>
			<g>
				<path class="st24" d="M1614,746.1c12.7,20.2,35.7,33.5,59.5,34.4c18.1,0.7,35.7-5.3,52.7-11.2c7.5-10.4,19.3-16.7,30.7-22.6
					c4.4-2.3,8.8-4.6,13.5-6.1c0.1-0.1,0.3-0.1,0.4-0.1c0.3-0.1,0.5-0.2,0.8-0.3l0,0c2.4-0.8,4.8-1.3,7.3-1.5
					c1.9-0.2,3.9-0.1,5.8,0.1c-5.6-12.3-18.7-19.7-29.3-28.4c-1.5-1.3-3-2.6-4.5-4c0,0-0.1,0-0.1-0.1c-5.6-4-21.4-7.7-33.4-9.3
					c-4.9-0.7-9.2-0.9-11.9-0.8c-11.4,0.7-22,6-33.1,8.9c-13.4,3.5-28.1,3.6-40,10.7c-6.9,4.2-12.3,10.5-17.6,16.6
					c-1.4,1.7-2.9,3.5-3.3,5.7C1611.1,740.9,1612.5,743.7,1614,746.1z"/>
				<g>
					<path class="st7" d="M1767.1,739.3c0,0-6.4-0.9-9.6-0.8c-6.3,0.4-12.5,0.9-18.8,1.4l-6.3,0.4l-1.1,0.1l-11.3,0.8
						c-3.8,0.3-7.6,0.5-11.4,0.8l-1.7,0.1c-1.9,0.1-3.7,0.2-5.6,0.3c-6.2,0.4-12.5,0.8-18.7,1.1l-7.3,0.4l-1.7,0.1l-9.8,0.5
						c-12.5,0.6-25,1.2-37.6,1.9c12.5,1.1,25.1,1.5,37.7,1.5c1.8,0,3.6,0,5.4,0c1.5,0,3.1,0,4.6-0.1c2.9,0,5.9-0.1,8.8-0.2
						c6.3-0.2,12.5-0.5,18.8-0.9c1.7-0.1,3.4-0.2,5.1-0.4c0.4,0,0.8-0.1,1.3-0.1c4.1-0.3,8.3-0.6,12.4-1c2.9-0.3,5.8-0.6,8.7-0.9
						c0.8-0.1,1.5-0.2,2.3-0.2c2.6-0.3,5.2-0.6,7.8-0.9c3.1-0.4,6.2-0.8,9.3-1.3c3.1-0.5,6.2-1,9.3-1.4c3.1-0.4,9.2-0.2,9.2-0.2
						L1767.1,739.3z"/>
					<path class="st7" d="M1676.1,746.2c-1-3-2.4-5.7-3.9-8.4c-1.5-2.6-3.2-5.2-5-7.6c-1.8-2.4-3.7-4.8-5.7-7.1
						c-2.1-2.2-4.2-4.4-6.7-6.3c1,3,2.4,5.7,3.9,8.4c1.5,2.6,3.2,5.2,5,7.6c1.8,2.4,3.7,4.8,5.7,7.1
						C1671.4,742.1,1673.6,744.3,1676.1,746.2L1676.1,746.2z"/>
					<path class="st7" d="M1708.6,745.2c0.1-3.2-0.4-6.4-1.2-9.5c-0.9-3.1-2.1-6-3.7-8.8s-3.4-5.4-5.6-7.8c-2.2-2.3-4.6-4.4-7.4-6
						c1.5,2.9,3.1,5.5,4.7,8.1c1.5,2.6,3.1,5.2,4.5,7.8c1.5,2.6,2.9,5.3,4.3,8C1705.6,739.7,1707,742.5,1708.6,745.2L1708.6,745.2z"
						/>
					<path class="st7" d="M1731.4,743.1c1.6-3.8,2.3-7.9,2.3-12.1c0-4.2-0.6-8.3-1.9-12.3s-3.2-7.8-5.6-11.1
						c-2.4-3.4-5.4-6.3-8.9-8.5c2.2,3.4,4.2,6.8,6,10.3c1.7,3.5,3.2,7,4.4,10.7c1.2,3.6,2.1,7.4,2.7,11.2
						C1730.9,735.1,1731.2,739,1731.4,743.1L1731.4,743.1z"/>
					<path class="st7" d="M1676.3,744.9c-2.6,0.8-5,2-7.3,3.3s-4.4,2.9-6.4,4.6c-2,1.7-3.9,3.5-5.6,5.5s-3.3,4.2-4.5,6.6
						c2.5-1.2,4.7-2.6,6.8-4c2.1-1.5,4.2-3.1,6.1-4.7c2-1.7,3.9-3.4,5.7-5.2C1673,749,1674.8,747.1,1676.3,744.9L1676.3,744.9z"/>
					<path class="st7" d="M1707.9,744.3c-1.6,2.9-3.1,5.6-4.8,8.1c-1.7,2.6-3.5,5-5.4,7.3s-4,4.5-6.2,6.6s-4.6,4.1-7.2,6.2
						c3.3-0.4,6.4-1.7,9.3-3.4c2.8-1.7,5.4-4,7.5-6.5c2.1-2.6,3.9-5.5,5.1-8.6C1707.4,750.9,1708.1,747.6,1707.9,744.3L1707.9,744.3
						z"/>
					<path class="st7" d="M1732,742.7c-2.3,1.3-4.4,2.9-6.3,4.5c-1.9,1.7-3.7,3.5-5.3,5.4c-1.7,1.9-3.2,3.9-4.6,6s-2.7,4.3-3.7,6.8
						c2.4-1.3,4.4-2.9,6.3-4.5c1.9-1.7,3.7-3.5,5.3-5.4c1.7-1.9,3.2-3.9,4.6-6C1729.7,747.4,1731,745.2,1732,742.7L1732,742.7z"/>
				</g>
			</g>
			<g>
				<path class="st23" d="M1588.4,854c-10.7,11.8-27.3,17.8-43,15.6c-11.9-1.7-22.7-7.6-33.2-13.5c-3.7-7.7-10.7-13.2-17.5-18.4
					c-2.6-2-5.2-4-8.1-5.6c-0.1,0-0.2-0.1-0.2-0.1c-0.2-0.1-0.3-0.2-0.5-0.3l0,0c-1.5-0.8-3-1.4-4.6-1.9c-1.2-0.4-2.5-0.6-3.8-0.6
					c5.1-7.4,14.6-10.7,22.5-15.2c1.2-0.7,2.3-1.3,3.4-2.1h0.1c4.1-2,14.9-2.5,23-2.2c3.3,0.1,6.1,0.5,7.9,0.9
					c7.4,1.8,13.7,6.5,20.6,9.7c8.4,3.9,18,5.6,24.9,11.7c4.1,3.6,6.8,8.3,9.6,12.9c0.7,1.3,1.5,2.6,1.5,4.1
					C1590.9,851,1589.7,852.6,1588.4,854z"/>
				<g>
					<path class="st21" d="M1580.4,852.9c-8.3-0.7-16.6-1.9-24.9-3.4c-1.2-0.2-2.4-0.4-3.5-0.6c-1-0.2-2-0.4-3-0.6
						c-1.9-0.4-3.8-0.8-5.8-1.1c-4.1-0.9-8.2-1.8-12.2-2.8c-1.1-0.3-2.2-0.6-3.3-0.8c-0.3-0.1-0.5-0.1-0.8-0.2
						c-2.7-0.7-5.4-1.4-8-2.1c-1.9-0.5-3.7-1.1-5.6-1.6c-0.5-0.1-1-0.3-1.5-0.4c-1.7-0.5-3.3-1-5-1.5c-2-0.6-4-1.2-6-1.9
						s-4-1.4-5.9-2c-2-0.6-4-1.1-6-1.2c-1.5-0.1-3,0.2-4.3,0.8c-0.1,0-0.2-0.1-0.2-0.1c0.4-0.3,0.9-0.6,1.4-0.8
						c1-0.4,2.1-0.6,3.1-0.7c2.2-0.2,4.3,0.2,6.4,0.6c4.1,1,8.1,2.1,12.1,3.1l4.1,1l0.7,0.2l7.3,1.8c2.5,0.6,4.9,1.2,7.4,1.8
						l1.1,0.3c1.2,0.3,2.4,0.6,3.6,0.9c4,1,8.1,2,12.1,2.9l4.7,1.1l1.1,0.3l6.4,1.5C1564.1,849.1,1572.2,850.9,1580.4,852.9z"/>
					<path class="st21" d="M1547.7,846.8c1-1.8,2.3-3.5,3.6-5c1.3-1.5,2.7-3,4.1-4.4c1.5-1.4,3-2.7,4.6-4c1.6-1.2,3.3-2.4,5.2-3.3
						c-1,1.8-2.3,3.5-3.6,5c-1.3,1.5-2.7,3-4.1,4.4c-1.5,1.4-3,2.7-4.6,4C1551.3,844.7,1549.6,845.9,1547.7,846.8L1547.7,846.8z"/>
					<path class="st21" d="M1526.5,842.4c0.3-2.1,1-4.2,1.9-6.1c0.9-1.9,2.1-3.7,3.4-5.4c1.3-1.6,2.9-3.1,4.6-4.4
						c1.7-1.3,3.5-2.4,5.6-3.1c-1.3,1.7-2.7,3.2-4,4.8c-1.3,1.5-2.6,3.1-3.9,4.6s-2.5,3.1-3.8,4.7
						C1529.2,839.2,1527.9,840.8,1526.5,842.4L1526.5,842.4z"/>
					<path class="st21" d="M1511.9,838.3c-0.6-2.7-0.6-5.5-0.1-8.2s1.4-5.4,2.7-7.8c1.3-2.5,3-4.7,5-6.6c2-1.9,4.3-3.5,6.8-4.5
						c-1.9,2-3.6,4-5.1,6c-1.5,2.1-2.9,4.2-4.1,6.5s-2.2,4.6-3,7C1513.1,833.2,1512.5,835.7,1511.9,838.3L1511.9,838.3z"/>
					<path class="st21" d="M1547.7,845.9c1.6,0.8,3.1,1.9,4.4,3s2.6,2.4,3.7,3.7s2.1,2.8,3,4.3s1.7,3.1,2.2,4.9
						c-1.5-1-2.8-2.2-4-3.5c-1.2-1.2-2.4-2.5-3.5-3.8s-2.1-2.7-3.1-4.1C1549.4,849.1,1548.5,847.6,1547.7,845.9L1547.7,845.9z"/>
					<path class="st21" d="M1527.1,841.9c0.7,2.1,1.4,4,2.2,5.9c0.8,1.9,1.7,3.7,2.7,5.4s2.1,3.4,3.3,5.1c1.2,1.6,2.5,3.2,4,4.9
						c-2.1-0.7-4-1.9-5.7-3.3c-1.7-1.5-3.1-3.2-4.2-5.2c-1.1-1.9-1.9-4-2.3-6.2C1526.7,846.3,1526.6,844,1527.1,841.9L1527.1,841.9z
						"/>
					<path class="st21" d="M1511.5,838c1.4,1.1,2.5,2.4,3.6,3.7s2,2.7,2.9,4.1c0.9,1.4,1.7,2.9,2.3,4.5c0.7,1.5,1.3,3.1,1.6,4.9
						c-1.4-1.1-2.5-2.4-3.6-3.7s-2-2.7-2.9-4.1c-0.9-1.4-1.6-2.9-2.3-4.5C1512.5,841.3,1511.9,839.8,1511.5,838L1511.5,838z"/>
				</g>
			</g>
		</g>
	</g>
</g>
<g>
	<g>
		<g>
			<path class="st25" d="M1298.9,594.9c1.4,54.3-367.2,105.5-550.4,130.9c-303.1,42.1-560,56.6-748.4,61.4c0-145.4,0-290.9,0-436.3
				c68.8,22.1,316,100.5,524,141.9c57.1,11.4,114.3,20.6,183.9,24.1c90.5,4.5,147.6-3.3,193.2-6.2
				C1085.5,499,1297.8,554,1298.9,594.9z"/>
			<path class="st4" d="M872.7,578.1h15.5c0,0-0.9-29.2,8.2-41.1c0,0-6.4,9.1-8.2,13.7c0,0,1.8-19.2,2.7-20.1c0,0-6.4,12.8-9.1,25.6
				c0,0-2.7-32-0.9-35.6c0,0-6.4,16.4-3.7,31.1c0,0-6.4-21-12.8-24.7c0,0,8.2,16.4,8.2,25.6c0,0-7.3-12.8-10-11.9
				C862.6,540.7,873.6,556.2,872.7,578.1"/>
			<path class="st3" d="M489.4,498.8l15.1,3.4c0,0,5.6-28.7,17.1-38.3c0,0-8.3,7.5-11,11.5c0,0,6-18.3,7.1-19
				c0,0-9.1,11.1-14.6,22.9c0,0,4.4-31.8,7-34.9c0,0-9.9,14.6-10.4,29.5c0,0-1.6-21.9-7-26.9c0,0,4.4,17.9,2.4,26.8
				c0,0-4.3-14.1-7.2-13.8C487.9,460,495.2,477.6,489.4,498.8"/>
			<path class="st4" d="M1156.2,636.4h13.9c0,0-1.2-49.9,9.3-60.3c0,0-10.4,9.3-13.9,24.4c0,0-2.3-27.8-1.2-33.7
				c0,0-8.1,13.9-5.8,32.5c0,0-3.5-18.6-15.1-22C1143.5,577.3,1157.4,593.5,1156.2,636.4"/>
			<path class="st4" d="M681,620.1l15.5-0.8c0,0-2.3-29.2,6.2-41.5c0,0-5.9,9.4-7.5,14.1c0,0,0.9-19.2,1.8-20.2c0,0-5.8,13.1-7.9,26
				c0,0-4.3-31.8-2.6-35.5c0,0-5.6,16.7-2.1,31.2c0,0-7.4-20.7-14-24c0,0,9,16,9.4,25.1c0,0-7.9-12.4-10.6-11.4
				C669.2,583.1,680.9,598.1,681,620.1"/>
			<path class="st3" d="M952.4,690l12,0.9c0,0,1.1-22.6,8.8-31.2c0,0-5.5,6.7-7.2,10.1c0,0,2.6-14.7,3.3-15.3c0,0-5.7,9.5-8.6,19.2
				c0,0-0.2-24.8,1.4-27.6c0,0-5.9,12.3-4.7,23.8c0,0-3.7-16.6-8.4-19.8c0,0,5.4,13.2,4.8,20.2c0,0-4.9-10.3-7-9.8
				C946.9,660.5,954.4,673.1,952.4,690"/>
		</g>
	</g>
</g>
</svg>
