<?xml version="1.0" encoding="utf-8"?>
<!-- Generator: Adobe Illustrator 22.0.1, SVG Export Plug-In . SVG Version: 6.00 Build 0)  -->
<svg version="1.1" id="Layer_1" xmlns="http://www.w3.org/2000/svg" xmlns:xlink="http://www.w3.org/1999/xlink" x="0px" y="0px"
	 viewBox="0 0 1920 1080" style="enable-background:new 0 0 1920 1080;" xml:space="preserve">
<style type="text/css">
	.st0{fill:#F8DA4B;}
	.st1{fill:#98C29C;}
	.st2{fill:#5E877E;}
</style>
<g>
	<g>
		<g>
			<path class="st0" d="M1298.9,594.9c1.4,54.3-367.2,105.5-550.4,130.9c-303.1,42.1-560,56.6-748.4,61.4c0-145.4,0-290.9,0-436.3
				c68.8,22.1,316,100.5,524,141.9c57.1,11.4,114.3,20.6,183.9,24.1c90.5,4.5,147.6-3.3,193.2-6.2
				C1085.5,499,1297.8,554,1298.9,594.9z"/>
			<path class="st1" d="M872.7,578.1h15.5c0,0-0.9-29.2,8.2-41.1c0,0-6.4,9.1-8.2,13.7c0,0,1.8-19.2,2.7-20.1c0,0-6.4,12.8-9.1,25.6
				c0,0-2.7-32-0.9-35.6c0,0-6.4,16.4-3.7,31.1c0,0-6.4-21-12.8-24.7c0,0,8.2,16.4,8.2,25.6c0,0-7.3-12.8-10-11.9
				C862.6,540.7,873.6,556.2,872.7,578.1"/>
			<path class="st2" d="M489.4,498.8l15.1,3.4c0,0,5.6-28.7,17.1-38.3c0,0-8.3,7.5-11,11.5c0,0,6-18.3,7.1-19
				c0,0-9.1,11.1-14.6,22.9c0,0,4.4-31.8,7-34.9c0,0-9.9,14.6-10.4,29.5c0,0-1.6-21.9-7-26.9c0,0,4.4,17.9,2.4,26.8
				c0,0-4.3-14.1-7.2-13.8C487.9,460,495.2,477.6,489.4,498.8"/>
			<path class="st1" d="M1156.2,636.4h13.9c0,0-1.2-49.9,9.3-60.3c0,0-10.4,9.3-13.9,24.4c0,0-2.3-27.8-1.2-33.7
				c0,0-8.1,13.9-5.8,32.5c0,0-3.5-18.6-15.1-22C1143.5,577.3,1157.4,593.5,1156.2,636.4"/>
			<path class="st1" d="M681,620.1l15.5-0.8c0,0-2.3-29.2,6.2-41.5c0,0-5.9,9.4-7.5,14.1c0,0,0.9-19.2,1.8-20.2c0,0-5.8,13.1-7.9,26
				c0,0-4.3-31.8-2.6-35.5c0,0-5.6,16.7-2.1,31.2c0,0-7.4-20.7-14-24c0,0,9,16,9.4,25.1c0,0-7.9-12.4-10.6-11.4
				C669.2,583.1,680.9,598.1,681,620.1"/>
			<path class="st2" d="M952.4,690l12,0.9c0,0,1.1-22.6,8.8-31.2c0,0-5.5,6.7-7.2,10.1c0,0,2.6-14.7,3.3-15.3c0,0-5.7,9.5-8.6,19.2
				c0,0-0.2-24.8,1.4-27.6c0,0-5.9,12.3-4.7,23.8c0,0-3.7-16.6-8.4-19.8c0,0,5.4,13.2,4.8,20.2c0,0-4.9-10.3-7-9.8
				C946.9,660.5,954.4,673.1,952.4,690"/>
		</g>
	</g>
</g>
</svg>
