<?xml version="1.0" encoding="utf-8"?>
<!-- Generator: Adobe Illustrator 22.0.1, SVG Export Plug-In . SVG Version: 6.00 Build 0)  -->
<svg version="1.1" id="Layer_1" xmlns="http://www.w3.org/2000/svg" xmlns:xlink="http://www.w3.org/1999/xlink" x="0px" y="0px"
	 viewBox="0 0 1920 1080" style="enable-background:new 0 0 1920 1080;" xml:space="preserve">
<style type="text/css">
	.st0{fill:#F5B843;}
	.st1{fill:#5E877E;}
	.st2{fill:#98C29C;}
	.st3{fill:#F9DA4A;}
	.st4{fill:none;stroke:#BF7C40;stroke-width:10.3428;stroke-linejoin:round;stroke-miterlimit:10;}
	.st5{fill:#A16C44;}
	.st6{fill:#4D4032;}
	.st7{fill:#775A41;}
	.st8{fill:#EBC081;}
	.st9{fill:#BF7C40;}
	.st10{fill:#B5BE6D;}
</style>
<g id="Layer_4">
	<g>
		<g>
			<g>
				<g>
					<path class="st0" d="M1919.6,312.9c0,0-254-14.4-633.3,198.9s-823-44.8-1055.1,73.5c-129.2,65.9,132.3,170,389.7,249.3
						c244,75.2,499.8,104.2,754.5,85.8L1920,881L1919.6,312.9z"/>
				</g>
				<g>
					<path class="st1" d="M1588.3,379.7h15.5c0,0-0.9-29.2,8.2-41.1c0,0-6.4,9.1-8.2,13.7c0,0,1.8-19.2,2.7-20.1
						c0,0-6.4,12.8-9.1,25.6c0,0-2.7-32-0.9-35.6c0,0-6.4,16.4-3.7,31.1c0,0-6.4-21-12.8-24.7c0,0,8.2,16.4,8.2,25.6
						c0,0-7.3-12.8-10-11.9C1578.3,342.2,1589.3,357.7,1588.3,379.7"/>
					<path class="st1" d="M1870.2,432.6l10.9,1.2c0,0,3.4-39.1,12.4-46.4c0,0-9,6.4-13,17.9c0,0,0.6-22,2-26.4
						c0,0-7.5,10.2-7.3,24.9c0,0-1.1-14.8-9.9-18.5C1865.3,385.2,1874.8,399.1,1870.2,432.6"/>
					<path class="st2" d="M1855.2,327.5h15.5c0,0-0.9-29.2,8.2-41.1c0,0-6.4,9.1-8.2,13.7c0,0,1.8-19.2,2.7-20.1
						c0,0-6.4,12.8-9.1,25.6c0,0-2.7-32-0.9-35.6c0,0-6.4,16.4-3.7,31.1c0,0-6.4-21-12.8-24.7c0,0,8.2,16.4,8.2,25.6
						c0,0-7.3-12.8-10-11.9C1845.1,290,1856.1,305.6,1855.2,327.5"/>
					<g>
						<g>
							<path class="st3" d="M1884.8,582.2c3.1,0,6.1-2.8,6-6c-0.1-3.3-2.6-6-6-6c-3.1,0-6.1,2.8-6,6
								C1879,579.5,1881.5,582.2,1884.8,582.2L1884.8,582.2z"/>
						</g>
					</g>
					<g>
						<g>
							<path class="st3" d="M1884.8,846.1c2.4,0,4.6-2.1,4.5-4.5s-2-4.5-4.5-4.5c-2.4,0-4.6,2.1-4.5,4.5S1882.3,846.1,1884.8,846.1
								L1884.8,846.1z"/>
						</g>
					</g>
					<g>
						<g>
							<path class="st3" d="M1834.3,677.6c2.4,0,4.6-2.1,4.5-4.5s-2-4.5-4.5-4.5c-2.4,0-4.6,2.1-4.5,4.5S1831.8,677.6,1834.3,677.6
								L1834.3,677.6z"/>
						</g>
					</g>
					<g>
						<g>
							<path class="st3" d="M1846.5,775.6c3.9,0,7.7-3.4,7.5-7.5s-3.3-7.5-7.5-7.5c-3.9,0-7.7,3.4-7.5,7.5
								C1839.2,772.1,1842.3,775.6,1846.5,775.6L1846.5,775.6z"/>
						</g>
					</g>
					<g>
						<g>
							<path class="st3" d="M1720.9,840c2.4,0,4.6-2.1,4.5-4.5s-2-4.5-4.5-4.5c-2.4,0-4.6,2.1-4.5,4.5S1718.4,840,1720.9,840
								L1720.9,840z"/>
						</g>
					</g>
					<g>
						<g>
							<path class="st3" d="M1711.7,663.8c3.1,0,6.1-2.8,6-6c-0.1-3.3-2.6-6-6-6c-3.1,0-6.1,2.8-6,6
								C1705.9,661,1708.4,663.8,1711.7,663.8L1711.7,663.8z"/>
						</g>
					</g>
					<g>
						<g>
							<path class="st3" d="M1596.8,648.5c2.4,0,4.6-2.1,4.5-4.5s-2-4.5-4.5-4.5c-2.4,0-4.6,2.1-4.5,4.5S1594.3,648.5,1596.8,648.5
								L1596.8,648.5z"/>
						</g>
					</g>
					<g>
						<g>
							<path class="st3" d="M1431.4,872.1c2.4,0,4.6-2.1,4.5-4.5s-2-4.5-4.5-4.5c-2.4,0-4.6,2.1-4.5,4.5
								C1427,870.1,1428.9,872.1,1431.4,872.1L1431.4,872.1z"/>
						</g>
					</g>
					<g>
						<g>
							<path class="st3" d="M1546.3,790.9c3.1,0,6.1-2.8,6-6c-0.1-3.3-2.6-6-6-6c-3.1,0-6.1,2.8-6,6
								C1540.4,788.2,1542.9,790.9,1546.3,790.9L1546.3,790.9z"/>
						</g>
					</g>
					<g>
						<g>
							<path class="st3" d="M1264.4,895.1c3.1,0,6.1-2.8,6-6c-0.1-3.3-2.6-6-6-6c-3.1,0-6.1,2.8-6,6S1261,895.1,1264.4,895.1
								L1264.4,895.1z"/>
						</g>
					</g>
					<g>
						<g>
							<path class="st3" d="M1802.1,498.3c2.4,0,4.6-2.1,4.5-4.5s-2-4.5-4.5-4.5c-2.4,0-4.6,2.1-4.5,4.5
								C1797.7,496.3,1799.6,498.3,1802.1,498.3L1802.1,498.3z"/>
						</g>
					</g>
				</g>
			</g>
			<g>
				<line class="st4" x1="1134.3" y1="195.1" x2="1221.8" y2="211.9"/>
				<g>
					<path class="st5" d="M1272.5,477c0.3,3.9,0.8,7.8,1.3,11.7c0.6,4.3,1.3,8.5,2.1,12.7c0.2,1.1,0.5,2.3,0.7,3.4
						c0.1,0.6,0.3,1.1,0.4,1.7c0,0,0,0.2,0.1,0.3c0.1,0.3,0.2,1,0.2,1c0.1,0.6,0.3,1.1,0.4,1.7c0.2,0.9,0.5,1.9,0.8,2.8
						c1.1,4.1,2.5,8.2,4,12.2l-15.9,1.6c-4.6-13.4-7.3-27.4-8.9-41.5c-0.2-2-0.4-3.9-0.6-5.9c-1.1-11.2-1.5-22.4-1.8-33.6
						c-0.1-4.5-0.2-9-0.3-13.6c-0.3-18.8-0.9-37.6-1.9-56.4c-2.1-38.2-5.6-76.4-10.7-114.3c-0.6-4.3,2.9-7.9,6.9-8.5
						c4.2-0.6,8,2.9,8.5,6.9c2.8,21.2,5.2,42.5,7.1,63.8c3.3,37.6,4.9,75.2,5.6,112.8c0.1,2.4,0.1,4.9,0.2,7.3
						C1271,454.6,1271.4,465.9,1272.5,477z"/>
				</g>
				<g>
					<path class="st5" d="M1317.9,320.8c2.8,34.3,5.6,68.7,8.4,103c0.3,4.2,0.7,8.4,1,12.6v0.1c0.2,2,0.3,4,0.5,6
						c0.7,9.2,1.5,18.4,2.2,27.5c1.3,16.5,2.4,32.9,3.1,49.4l-15.4,1.6c-0.5-10.9-1.1-21.8-1.9-32.6c-0.4-5.5-0.8-11-1.2-16.5
						c-0.7-9.1-1.4-18.2-2.1-27.3c-0.2-2.1-0.3-4.2-0.5-6.2s-0.3-3.9-0.5-5.9c-1.6-19.6-3.3-39.1-4.9-58.7
						c-1.5-19.1-3.1-38.1-4.6-57.2c-0.8-9.5-1.4-19-2.4-28.4c-0.5-4.6-1.1-9.1-1.8-13.6c-0.4-2.5-0.9-4.9-1.4-7.4
						c-0.1-0.5-0.2-1-0.3-1.4c0-0.1,0-0.1,0-0.2l0,0c-0.3-1.2-0.6-2.4-0.9-3.6c-1.2-4.2,0.3-8.2,4.4-10c3.6-1.6,9,0.5,10,4.4
						C1315.3,277.2,1316.1,299.2,1317.9,320.8z"/>
				</g>
				<g>
					<path class="st6" d="M1399.2,544.9L1399.2,544.9C1399.3,545.8,1398.7,543.5,1399.2,544.9L1399.2,544.9z"/>
					<path class="st6" d="M1399.2,308.8c0.2,3.5,0.3,7.1,0.4,10.6c0.5,16.3,0.5,32.5,0.5,48.8c0,4.1,0,8.1,0,12.2l0,0
						c0,9.8,0,19.6,0,29.4c0,6,0,11.9,0,17.9c0,0.2,0,0.4,0,0.6c0,1.4,0,2.8,0,4.2c0,9.7,0,19.3,0,29c0,17,0,34.1,0.1,51.1
						l-15.4,1.6c0-10.5,0-20.9,0-31.4c0-6.5,0-13,0-19.4c0-9.6,0-19.2,0-28.7v-5.1c0-6.1,0-12.1,0-18.2c0-16.2,0-32.5-0.1-48.7
						c0-17.1-0.1-34.3-0.8-51.4l0,0c-1-22.3-3.2-44.6-8.2-66.4c-1-4.2,3.2-8,6.9-8.5c1-0.2,2.2,0,3.3,0.4c0.9,0.3,1.7,0.8,2.4,1.3
						c1.7,1.4,2.3,3.1,2.8,5.2C1395.9,264.8,1398.2,286.8,1399.2,308.8z"/>
				</g>
				<g>
					<path class="st7" d="M1475,515c0,0.3-0.1,0.6-0.2,0.7C1474.8,515.5,1474.9,515.2,1475,515z"/>
					<path class="st7" d="M1475,515L1475,515L1475,515L1475,515z"/>
					<path class="st7" d="M1475.1,513.5c0,0.3,0,0.5,0,0.5C1475.1,513.9,1475.1,513.7,1475.1,513.5z"/>
					<path class="st7" d="M1458.6,275.2c0.3,6.1,1,12.2,1.9,18.2c3.5,24.9,7.7,49.7,11.2,74.6c1.6,11.4,3.1,22.7,4.6,34.1
						c0.7,5.4,1.4,10.7,2.1,16.1c0.1,1.2,0.3,2.3,0.4,3.5c0.9,7.1,1.7,14.3,2.6,21.5c0.3,2.8,0.6,5.6,1,8.4
						c2,17.4,3.9,34.8,5.6,52.2c0.1,0.7,0.1,1.4,0.2,2.1c-0.8-0.8-1.7-1.5-2.8-1.8l-12.8,1.3c-1.7-17.3-3.5-34.6-5.5-51.9
						c-0.7-5.9-1.4-11.8-2.1-17.7c-0.5-4-1-8-1.5-11.9c-0.2-1.3-0.3-2.5-0.5-3.8c-0.7-5.5-1.4-10.9-2.1-16.4
						c-1.8-14.2-3.8-28.5-5.8-42.7c-1.8-12.6-3.6-25.1-5.6-37.7c-1.9-12.2-4.2-24.4-5.5-36.7c-1.4-12.5-1.1-25,1.1-37.4
						c1-5.8,2.3-11.7,3.1-17.5c0.4-3,0.8-6,1-8.9c0.1-1.4,0.2-2.9,0.2-4.3c0-0.3,0-0.9,0-1.2c0-0.7,0-1.4,0-2.2
						c0-12.1-1.6-24.1-3.9-35.9c-0.6-3-1.2-6-1.9-8.9c-0.2-0.8-0.4-1.7-0.6-2.5c0-0.2-0.1-0.5-0.2-0.8c0-0.1,0-0.2,0-0.2
						c0-0.1,0-0.1,0-0.1s0,0,0-0.1s0-0.1,0-0.1c-0.3-1.3-0.6-2.5-0.9-3.8c-1.5-5.9-3-11.8-4.6-17.6c-1.1-4.2,0.2-8.2,4.4-10
						c3.5-1.6,9,0.5,10,4.4c0.8,2.9,1.6,5.9,2.3,8.8c6.4,24.4,12,49.2,10.6,74.6c-0.6,12.1-3.7,23.7-5.4,35.7
						c-0.4,2.8-0.6,5.6-0.8,8.5c0,0,0,0,0,0.1l0,0v0.1v0.1c0,0.4,0,1.1,0,1.3c0,0.7,0,1.5,0,2.2
						C1458.5,272.3,1458.5,273.7,1458.6,275.2z"/>
				</g>
				<g>
					<path class="st6" d="M1541.5,171.1c-2.9,25.5-5.9,50.9-8.7,76.4c-0.6,5.6-1.2,11.2-1.5,16.8c-0.1,0.9-0.1,1.8-0.1,2.7
						c0,0.1,0,0.3,0,0.6l0,0v0.1v0.1c0,0,0,0,0,0.1c0,0,0,0,0,0.1v0.1c0,0,0,0,0,0.1l0,0v0.1l0,0v0.1c0,0.9,0,1.8,0,2.7
						c0,2.7,0,5.5,0.1,8.2c0.5,11.4,2.2,22.8,3.7,34.1c3.1,22.6,5.9,45.2,8.5,67.8c0.5,4.6,1.1,9.2,1.6,13.9
						c0.6,4.9,1.1,9.9,1.6,14.8c0.1,0.8,0.2,1.6,0.3,2.4c1.1,10.3,2.2,20.7,3.2,31c1.8,17.9,3.5,35.7,5.2,53.6l-15.4,1.6
						c-1.6-17.8-3.3-35.6-5.1-53.3l-0.2-2c-1-9.6-2-19.2-3-28.7c-0.1-0.9-0.2-1.8-0.3-2.7c-0.5-5-1.1-10.1-1.7-15.1
						c-3.4-30.2-7.2-60.4-11.3-90.6c-1.5-11.3-2.8-22.7-2.6-34.1c0.2-11.5,1.4-23,2.7-34.5c2.6-23,5.2-46,7.9-69
						c0.5-4.3,5-6.8,8.9-6.4C1539.5,162.7,1542,167.1,1541.5,171.1z"/>
				</g>
				<g>
					<path class="st7" d="M1779.4,474.3l-23.2,2.3c-3.3-18.9-6.5-37.9-9.6-56.9c-1.1-7-2.2-13.9-3.3-20.9c-0.7-4.4-1.3-8.8-2-13.3
						v-0.2c-0.5-3.3-1-6.6-1.4-10c-2.3-16.6-4.6-33.2-7.5-49.7c-2.1-12-5-23.7-7.7-35.6c-2.8-12.2-5-24.4-6.4-36.8
						c-2.9-24.6-5-49.2-7.5-73.8c-2.5-24.9-5-49.8-7.5-74.7c-0.6-6.5,4.2-11.8,10.4-12.7c6.2-0.9,12.1,4.4,12.7,10.4
						c2.8,27.9,5.6,55.8,8.4,83.7c1.2,12.3,2.5,24.6,3.7,37c1.2,12.3,2.3,24.6,4.1,36.8c1.7,12.1,4.4,23.9,7.1,35.8
						c2.8,12.1,5.4,24.2,7.3,36.5c2.1,13.6,4.1,27.2,6,40.8c0.4,3,0.8,5.9,1.3,8.9c0,0.2,0,0.3,0.1,0.5c1.1,7.7,2.3,15.4,3.5,23.1
						c0.6,3.9,1.2,7.7,1.8,11.5C1772.8,436.2,1776,455.2,1779.4,474.3z"/>
				</g>
				<g>
					<path class="st6" d="M1768.3,116.2c3,11.4,6,22.8,8.7,34.2c-0.3-1.2-0.6-2.4-0.8-3.5c4.7,19.6,8.4,39.3,10.5,59.4
						c2.1,20,3.1,40.1,3.8,60.2c0.8,20,1.3,40.1,2.7,60c1.4,20,3.9,39.9,7.2,59.7c3.7,22.4,8.2,44.6,12.7,66.9
						c0.7,3.6,2,6.7,4.9,9.1c2.6,2.1,6.6,3.5,10,3c3.5-0.5,7-2,9.1-4.9c2-2.7,3.7-6.5,3-10c-4.5-22.2-9-44.5-12.7-66.9
						c-3.6-22.2-6.2-44.4-7.6-66.8c-2.8-44.7-1.9-89.7-8.8-134c-4-25.8-10.7-51.1-17.4-76.3c-0.8-3.1-4.3-6.2-7-7.4
						c-3.1-1.4-7.4-1.7-10.5-0.3c-3.2,1.4-6.1,3.7-7.4,7c-0.3,1.1-0.7,2.2-1,3.4C1767.2,111.4,1767.4,113.8,1768.3,116.2
						L1768.3,116.2z"/>
				</g>
				<path class="st7" d="M1919.6,97.2v18.9c-8.2-0.5-17.1-1-26.1-1.6c-23.3-1.4-47.4-2.7-62.5-3.3l-0.1,12L1465.5,66l-49.6,28.2
					l106,64.9l-179.5,119.7l-128.9,5.1l53.9-50.6l-73.3-23.1c0,0,111.7-73,115.5-84.7l-35.2-13l50.9-27.7l-0.6-5.9l112.8-66.5
					l340,9.4c0,0,52.5,42.9,116,67C1902,91.9,1910.8,94.8,1919.6,97.2z"/>
				<polygon class="st6" points="1284.1,448.5 1339.6,416 1830.5,366.2 1830.7,373.3 				"/>
				<g>
					
						<rect x="1226" y="419.4" transform="matrix(0.9927 -0.1204 0.1204 0.9927 -41.8377 180.0244)" class="st5" width="485.7" height="33.6"/>
				</g>
				<polygon class="st5" points="1830.9,123.2 1482.2,185.5 1494.7,164.5 1831,111.2 				"/>
				<polygon class="st5" points="1446.6,150.1 1453.4,168.9 1714.4,100.4 1684.9,90.8 				"/>
				<line class="st4" x1="1149.2" y1="265.5" x2="1478.6" y2="58.6"/>
				<polygon class="st7" points="1707.9,390.4 1712,423.7 1839.2,409 1830.5,372 				"/>
				<polygon class="st8" points="1190.6,176.1 1191.8,187.9 1440,36.7 1764.3,48.9 1760.1,33.4 1435.9,23.1 				"/>
				<g>
					<path class="st9" d="M1731.9,479.1l-30.8,3.1c-4.8-18.5-9.8-36.9-14.5-55.4c-2-7.7-3.9-15.4-5.7-23.1c-0.8-3.2-1.5-6.3-2.2-9.5
						c0-0.1-0.1-0.2-0.1-0.3c-0.9-4-1.9-8-2.8-12c-9.6-42.7-17.7-85.8-26.1-128.8c-4.8-24.7-10-49.3-14.3-74.1
						c-2.1-11.8-3.7-23.7-4.8-35.7c-0.9-10.3-1.7-20.6-3.9-30.7c-1.3-5-3.1-9.9-5.4-14.5c-0.7-1.2-1.5-2.4-2.3-3.6
						c-5-7.1,2.1-7.4,8.8-12.7c6.4-5.1,12.2-6.2,16.9,0.5c13.5,19.5,14.9,37,17,59.9c1.9,21,6,41.6,10,62.3
						c4.2,21.4,8.4,42.8,12.6,64.2c7.2,36.7,14.2,73.5,22.4,110c0.8,3.7,1.7,7.5,2.6,11.2c0,0.1,0,0.1,0,0.2
						c0.3,1.2,0.6,2.4,0.9,3.7c2.4,9.8,4.8,19.5,7.3,29.3c4.4,17,8.9,33.9,13.3,50.9C1731.5,475.7,1731.8,477.4,1731.9,479.1z"/>
				</g>
				<path class="st5" d="M1318.5,156.6c0,0,147.1-15.3,184.3-36s181.6-36.1,181.6-36.1l-33.6-11.8L1377.9,115L1318.5,156.6z"/>
				<g>
					<path class="st9" d="M1454,507.3l-27.3,2.8c0.8-16.8-2-33.9-5.9-51c-2.2-9.5-4.8-19-7.4-28.3c-0.2-0.9-0.5-1.7-0.7-2.6
						c-0.2-0.6-0.4-1.3-0.5-1.9c-0.6-2.2-1.2-4.4-1.8-6.6c-1-3.5-1.9-7.1-2.9-10.6c-2.5-9.5-5-19.1-7.4-28.6l0,0
						c-5.8-23.2-11.1-46.4-16.3-69.1l0,0c-0.1-0.5-0.3-1.1-0.4-1.6c-3-13.2-6.1-26.8-7.9-40.8c-0.6-4.7-1-9.4-1.4-14
						c-1-10.7-1.9-20.9-4.7-30.2c-2.3-7.7-6.1-15.2-10.1-23.3c-7.4-14.9-15.1-30.2-15-48.5l0.1-13.6l27.1,0.1l-0.1,13.6
						c-0.1,11.9,5.9,23.7,12.1,36.3c4.3,8.7,8.8,17.7,11.8,27.5c3.7,12,4.8,24.1,5.8,35.7c0.4,4.5,0.8,8.8,1.3,13.1
						c1.6,12.6,4.5,25.6,7.4,38.1c7.7,33.8,15.7,68.8,24.9,102.8c0.5,2,1.1,4.1,1.7,6.1c0.8,2.8,1.6,5.6,2.3,8.4
						c0.2,0.7,0.4,1.4,0.6,2.1c0.4,1.4,0.8,2.7,1.1,4.1c2.6,9.5,5.2,19.1,7.4,28.8C1451.7,472.6,1454.3,489.7,1454,507.3z"/>
				</g>
			</g>
			<path class="st10" d="M1265.9,527.2l17-2.4c0,0-17-26.2-14.1-36.9c0,0-1.4,8.9-0.3,13.5c0,0-9.4-13.7-5.7-22.7
				c0,0-3.6,7-0.7,21.9c0,0-12-16.4-13.6-21.8c0,0,0.8,10.9,8.4,23.4c0,0-11-9.8-20.1-11.3c0,0,13.7,10.4,17.5,17.7
				c0,0-8.5-4.9-13.1-4.6c0,0,13.9,6.2,18.6,13C1264.6,523.9,1265.9,527.2,1265.9,527.2"/>
		</g>
	</g>
</g>
</svg>
