<?xml version="1.0" encoding="utf-8"?>
<!-- Generator: Adobe Illustrator 22.0.1, SVG Export Plug-In . SVG Version: 6.00 Build 0)  -->
<svg version="1.1" id="Layer_1" xmlns="http://www.w3.org/2000/svg" xmlns:xlink="http://www.w3.org/1999/xlink" x="0px" y="0px"
	 viewBox="0 0 1920 1080" style="enable-background:new 0 0 1920 1080;" xml:space="preserve">
<style type="text/css">
	.st0{fill:#BF7C40;}
	.st1{fill:#A16C44;}
	.st2{fill:#D75B4D;}
</style>
<g id="Layer_4">
	<g>
		<g>
			<path class="st0" d="M1661.6,432.6c10.5-15.8,29-25.9,47.8-26.1c14.3-0.2,28,4.9,41.4,9.9c5.7,8.4,14.9,13.6,23.8,18.5
				c3.4,1.9,6.8,3.8,10.5,5.1c0.1,0,0.2,0.1,0.3,0.1c0.2,0.1,0.4,0.1,0.6,0.2l0,0c1.9,0.7,3.8,1.1,5.7,1.4c1.5,0.2,3.1,0.2,4.6,0
				c-4.7,9.6-15.2,15.2-23.8,21.9c-1.3,1-2.5,2-3.6,3.1c0,0-0.1,0-0.1,0.1c-4.5,3.1-17.1,5.7-26.6,6.7c-3.9,0.4-7.3,0.6-9.5,0.4
				c-9-0.8-17.2-5.2-25.9-7.7c-10.5-3.1-22.1-3.4-31.4-9.3c-5.4-3.5-9.5-8.5-13.5-13.5c-1.1-1.4-2.2-2.8-2.5-4.5
				C1659.2,436.6,1660.4,434.5,1661.6,432.6z"/>
			<g>
				<path class="st1" d="M1669.2,434.2c9.9-0.6,19.9-0.7,29.8-0.5c1.4,0,2.8,0.1,4.3,0.1c1.2,0,2.4,0.1,3.7,0.2
					c2.3,0.1,4.7,0.2,7,0.3c5,0.3,9.9,0.7,14.9,1.1c1.3,0.1,2.7,0.3,4,0.4c0.3,0,0.7,0.1,1,0.1c3.3,0.3,6.5,0.7,9.8,1.1
					c2.3,0.3,4.6,0.6,6.8,0.9c0.6,0.1,1.2,0.2,1.8,0.2c2,0.3,4.1,0.6,6.1,0.9c2.4,0.4,4.9,0.8,7.3,1.2c2.4,0.4,4.9,0.9,7.3,1.3
					s4.8,0.6,7.2,0.3c1.7-0.2,3.5-0.7,4.9-1.7c0.1,0,0.2,0.1,0.3,0.1c-0.5,0.4-1,0.8-1.5,1.2c-1.1,0.7-2.3,1.1-3.6,1.4
					c-2.5,0.6-5.1,0.6-7.6,0.4c-5-0.4-9.9-1-14.8-1.5l-5-0.5l-0.9-0.1l-8.9-0.9c-3-0.3-6-0.6-9-0.8l-1.3-0.1c-1.5-0.1-3-0.2-4.4-0.4
					c-4.9-0.5-9.8-0.9-14.8-1.3l-5.7-0.4l-1.3-0.1l-7.7-0.6C1688.9,435.8,1679.1,435.1,1669.2,434.2z"/>
				<path class="st1" d="M1708.6,435.5c-0.9,2.3-2.1,4.5-3.3,6.5c-1.3,2.1-2.6,4-4.1,5.9s-3,3.7-4.7,5.5c-1.7,1.7-3.4,3.4-5.5,4.9
					c0.9-2.3,2.1-4.5,3.3-6.5c1.3-2.1,2.6-4,4.1-5.9s3-3.7,4.7-5.5C1704.8,438.6,1706.6,436.9,1708.6,435.5L1708.6,435.5z"/>
				<path class="st1" d="M1734.2,436.9c0,2.6-0.5,5.1-1.2,7.5c-0.8,2.4-1.8,4.7-3.1,6.9c-1.3,2.2-2.8,4.2-4.6,6
					c-1.8,1.8-3.7,3.4-6,4.6c1.3-2.2,2.6-4.3,3.9-6.3s2.5-4.1,3.8-6.1c1.2-2,2.4-4.1,3.6-6.2C1731.7,441.2,1732.9,439,1734.2,436.9
					L1734.2,436.9z"/>
				<path class="st1" d="M1752.2,439c1.2,3,1.6,6.3,1.6,9.6c-0.1,3.3-0.7,6.6-1.8,9.7c-1.1,3.1-2.7,6.1-4.7,8.7s-4.4,4.9-7.3,6.5
					c1.8-2.7,3.5-5.3,5-8c1.4-2.7,2.7-5.5,3.7-8.4s1.8-5.8,2.4-8.8C1751.6,445.4,1752,442.3,1752.2,439L1752.2,439z"/>
				<path class="st1" d="M1708.7,436.5c-2.1-0.7-3.9-1.7-5.7-2.8c-1.8-1.1-3.4-2.4-5-3.7c-1.6-1.4-3-2.9-4.3-4.5s-2.5-3.4-3.4-5.3
					c1.9,1,3.7,2.1,5.3,3.3c1.6,1.2,3.2,2.5,4.7,3.9c1.5,1.3,3,2.8,4.4,4.2C1706.2,433.2,1707.5,434.7,1708.7,436.5L1708.7,436.5z"
					/>
				<path class="st1" d="M1733.7,437.6c-1.2-2.3-2.4-4.5-3.6-6.6c-1.3-2.1-2.6-4-4.1-5.9s-3.1-3.6-4.8-5.4c-1.7-1.7-3.6-3.3-5.5-5.1
					c2.6,0.4,5,1.5,7.2,2.9s4.2,3.3,5.8,5.3c1.6,2.1,2.9,4.4,3.8,6.9C1733.4,432.4,1733.9,435,1733.7,437.6L1733.7,437.6z"/>
				<path class="st1" d="M1752.6,439.4c-1.8-1.1-3.4-2.4-4.9-3.7c-1.5-1.4-2.8-2.8-4.1-4.3c-1.3-1.5-2.4-3.1-3.5-4.8
					c-1.1-1.7-2-3.5-2.8-5.5c1.8,1.1,3.4,2.4,4.9,3.7c1.5,1.4,2.8,2.8,4.1,4.3c1.3,1.5,2.4,3.1,3.5,4.8
					C1750.9,435.6,1751.9,437.4,1752.6,439.4L1752.6,439.4z"/>
			</g>
		</g>
		<g>
			<path class="st2" d="M1547,599.9c12.6,20.1,35.6,33.4,59.4,34.3c18,0.7,35.6-5.2,52.6-11.2c7.4-10.4,19.2-16.7,30.6-22.6
				c4.4-2.3,8.8-4.5,13.4-6.1c0.1-0.1,0.3-0.1,0.4-0.1c0.3-0.1,0.5-0.2,0.8-0.3l0,0c2.4-0.8,4.8-1.3,7.3-1.5
				c1.9-0.2,3.9-0.1,5.8,0.1c-5.6-12.3-18.7-19.6-29.2-28.3c-1.5-1.3-3-2.6-4.5-4c0,0-0.1,0-0.1-0.1c-5.5-4-21.3-7.7-33.3-9.2
				c-4.9-0.7-9.2-0.9-11.9-0.8c-11.4,0.7-21.9,6-33,8.9c-13.4,3.5-28,3.6-39.9,10.7c-6.9,4.2-12.3,10.4-17.6,16.5
				c-1.4,1.7-2.9,3.5-3.3,5.6C1544.1,594.8,1545.5,597.5,1547,599.9z"/>
			<g>
				<path class="st1" d="M1699.7,593.2c0,0-6.4-0.9-9.5-0.8c-6.3,0.4-12.5,0.9-18.7,1.4l-6.3,0.4l-1.1,0.1l-11.2,0.8
					c-3.8,0.3-7.6,0.5-11.4,0.8l-1.7,0.1c-1.9,0.1-3.7,0.2-5.6,0.3c-6.2,0.4-12.5,0.8-18.7,1.1l-7.3,0.4l-1.7,0.1l-9.8,0.5
					c-12.5,0.6-25,1.2-37.5,1.9c12.5,1.1,25,1.5,37.6,1.5c1.8,0,3.6,0,5.4,0c1.5,0,3.1,0,4.6-0.1c2.9,0,5.9-0.1,8.8-0.2
					c6.3-0.2,12.5-0.5,18.8-0.9c1.7-0.1,3.4-0.2,5.1-0.4c0.4,0,0.8-0.1,1.3-0.1c4.1-0.3,8.3-0.6,12.4-1c2.9-0.3,5.8-0.6,8.6-0.9
					c0.8-0.1,1.5-0.2,2.3-0.2c2.6-0.3,5.2-0.6,7.8-0.9c3.1-0.4,6.2-0.8,9.3-1.3c3.1-0.5,6.2-1,9.3-1.4c3-0.4,9.1-0.2,9.1-0.2
					L1699.7,593.2z"/>
				<path class="st1" d="M1609,600c-1-3-2.4-5.7-3.9-8.3s-3.2-5.2-4.9-7.6c-1.8-2.4-3.7-4.8-5.7-7s-4.2-4.4-6.7-6.3
					c1,3,2.4,5.7,3.9,8.3s3.2,5.2,4.9,7.6c1.8,2.4,3.7,4.8,5.7,7C1604.3,596,1606.5,598.1,1609,600L1609,600z"/>
				<path class="st1" d="M1641.4,599.1c0.1-3.2-0.4-6.4-1.2-9.5c-0.9-3.1-2.1-6-3.7-8.8s-3.4-5.4-5.6-7.7s-4.6-4.4-7.4-6
					c1.5,2.8,3.1,5.5,4.6,8.1s3,5.2,4.5,7.8s2.9,5.2,4.3,7.9C1638.4,593.6,1639.8,596.3,1641.4,599.1L1641.4,599.1z"/>
				<path class="st1" d="M1664.1,596.9c1.6-3.8,2.3-7.9,2.3-12s-0.6-8.3-1.9-12.3s-3.1-7.7-5.6-11.1c-2.4-3.3-5.4-6.3-8.9-8.4
					c2.2,3.4,4.2,6.8,6,10.2c1.7,3.5,3.2,7,4.3,10.6c1.2,3.6,2,7.4,2.7,11.2C1663.6,588.9,1663.9,592.8,1664.1,596.9L1664.1,596.9z"
					/>
				<path class="st1" d="M1609.2,598.7c-2.6,0.8-5,2-7.3,3.3s-4.4,2.9-6.4,4.6c-2,1.7-3.9,3.5-5.6,5.5s-3.3,4.1-4.5,6.6
					c2.5-1.2,4.7-2.6,6.8-4c2.1-1.5,4.2-3.1,6.1-4.7c2-1.6,3.9-3.4,5.7-5.2C1605.9,602.8,1607.6,600.9,1609.2,598.7L1609.2,598.7z"
					/>
				<path class="st1" d="M1640.7,598.1c-1.6,2.9-3.1,5.6-4.8,8.1c-1.7,2.6-3.5,5-5.4,7.3s-4,4.5-6.2,6.6s-4.6,4.1-7.1,6.2
					c3.3-0.4,6.4-1.7,9.2-3.4c2.8-1.7,5.4-4,7.5-6.5c2.1-2.6,3.9-5.5,5.1-8.5C1640.1,604.7,1640.8,601.4,1640.7,598.1L1640.7,598.1z
					"/>
				<path class="st1" d="M1664.7,596.5c-2.3,1.3-4.4,2.9-6.3,4.5c-1.9,1.7-3.7,3.5-5.3,5.3c-1.7,1.9-3.2,3.9-4.6,6s-2.7,4.3-3.7,6.8
					c2.3-1.3,4.4-2.8,6.3-4.5s3.7-3.5,5.3-5.3c1.7-1.9,3.2-3.9,4.6-6S1663.7,599,1664.7,596.5L1664.7,596.5z"/>
			</g>
		</g>
	</g>
</g>
</svg>
