<?xml version="1.0" encoding="utf-8"?>
<!-- Generator: Adobe Illustrator 22.0.1, SVG Export Plug-In . SVG Version: 6.00 Build 0)  -->
<svg version="1.1" id="Layer_1" xmlns="http://www.w3.org/2000/svg" xmlns:xlink="http://www.w3.org/1999/xlink" x="0px" y="0px"
	 viewBox="0 0 1920 1080" style="enable-background:new 0 0 1920 1080;" xml:space="preserve">
<style type="text/css">
	.st0{fill:#BF7C40;}
	.st1{fill:#A16C44;}
	.st2{fill:#B5BE6D;}
	.st3{fill:#77A275;}
</style>
<g id="Layer_3">
	<g>
		<g>
			<path class="st0" d="M1621.2,735.4c11.7,28,37.8,49.6,67.4,55.7c22.5,4.6,45.7,0.9,68.3-3c11.5-11.5,27.6-16.9,43.1-22
				c5.9-1.9,11.9-3.9,18.1-4.8c0.2,0,0.3-0.1,0.5-0.1c0.3-0.1,0.7-0.1,1-0.2l0,0c3.1-0.5,6.3-0.6,9.4-0.4c0,0,0,0,0.1,0
				c2.7,0.2,4.4-2.8,2.9-5c-6.4-9.2-18.4-26.2-26.5-35.5c-1.7-1.9-3.3-3.9-4.8-5.9c0,0,0,0-0.1-0.1c-6.1-6.2-25.2-14.2-39.9-18.7
				c-6-1.9-11.3-3.1-14.8-3.5c-14.4-1.5-28.7,3-43.2,4.3c-17.5,1.6-35.9-1.4-52.2,5.1c-9.5,3.8-17.5,10.5-25.4,17.1
				c-2.1,1.8-4.3,3.8-5.3,6.4C1618.7,728.3,1619.9,732,1621.2,735.4z"/>
			<g>
				<path class="st1" d="M1633.7,735.1c15.5,4,31.1,7.2,46.8,9.8c2.2,0.4,4.5,0.8,6.7,1.1c1.9,0.3,3.9,0.6,5.8,0.9
					c3.7,0.6,7.4,1.1,11.1,1.6c7.9,1,15.8,2,23.7,2.9c2.1,0.2,4.3,0.4,6.4,0.6c0.5,0.1,1.1,0.1,1.6,0.1c5.2,0.5,10.5,0.9,15.8,1.3
					c3.7,0.2,7.4,0.5,11,0.7c1,0.1,1.9,0.1,2.9,0.2c3.3,0.2,6.6,0.3,10,0.5c4,0.1,8,0.3,11.9,0.4c4,0.1,8,0.1,11.9,0.2
					c3.9,0.2,7.8,0.5,11.5,1.7c2.7,0.8,5.2,2.2,7.2,4.3c0.2,0,0.3-0.1,0.5-0.1c-0.6-0.8-1.3-1.6-2.1-2.3c-1.5-1.4-3.3-2.4-5.2-3.3
					c-3.8-1.7-7.8-2.4-11.8-3c-8-0.8-15.8-1.5-23.8-2.2l-8-0.8l-1.4-0.1l-14.3-1.4c-4.8-0.4-9.7-0.9-14.5-1.4l-2.1-0.2
					c-2.4-0.3-4.7-0.5-7.1-0.8c-7.9-0.8-15.8-1.7-23.6-2.5l-9.2-1.1l-2.1-0.2l-12.4-1.4C1665.3,738.7,1649.5,736.8,1633.7,735.1z"/>
				<path class="st1" d="M1696.2,745.2c-0.7-4-1.9-7.7-3.2-11.3c-1.4-3.6-2.9-7.2-4.6-10.6c-1.7-3.4-3.6-6.8-5.7-10.1
					c-2.1-3.2-4.4-6.4-7.1-9.3c0.7,4,1.9,7.7,3.2,11.3c1.4,3.6,2.9,7.2,4.6,10.6c1.7,3.4,3.6,6.8,5.7,10.1
					C1691.2,739.1,1693.4,742.2,1696.2,745.2L1696.2,745.2z"/>
				<path class="st1" d="M1737,750.8c0.8-4,0.8-8.1,0.4-12.2c-0.5-4-1.4-8-2.8-11.9c-1.4-3.8-3.2-7.5-5.4-10.9
					c-2.2-3.4-4.8-6.6-8.1-9.1c1.3,3.9,2.8,7.5,4.2,11.1c1.4,3.6,2.7,7.2,4,10.8s2.5,7.2,3.8,10.9
					C1734.4,743.2,1735.5,746.9,1737,750.8L1737,750.8z"/>
				<path class="st1" d="M1766,752.8c2.8-4.4,4.5-9.5,5.4-14.7s0.9-10.6,0.1-15.9c-0.8-5.3-2.4-10.4-4.7-15.2
					c-2.4-4.7-5.5-9.1-9.4-12.5c2.1,4.8,3.9,9.4,5.4,14.2c1.5,4.7,2.5,9.5,3.3,14.3c0.7,4.8,1.1,9.7,1,14.6
					C1767,742.7,1766.6,747.6,1766,752.8L1766,752.8z"/>
				<path class="st1" d="M1696.7,743.5c-3.5,0.4-6.7,1.4-9.8,2.6c-3.1,1.2-6.1,2.7-9,4.4s-5.6,3.6-8.2,5.8s-5,4.5-7,7.4
					c3.4-0.9,6.4-2.2,9.4-3.6c3-1.4,5.8-3,8.6-4.6c2.8-1.7,5.5-3.4,8.2-5.4C1691.7,748.1,1694.3,746,1696.7,743.5L1696.7,743.5z"/>
				<path class="st1" d="M1736.3,749.4c-2.6,3.3-5.1,6.3-7.7,9.2s-5.4,5.5-8.3,8s-5.9,4.8-9.2,7c-3.2,2.2-6.6,4.2-10.2,6.3
					c4.2,0.2,8.4-0.8,12.3-2.4c3.9-1.6,7.6-3.9,10.8-6.6c3.2-2.8,6-6.1,8.1-9.7C1734.3,757.6,1735.9,753.6,1736.3,749.4
					L1736.3,749.4z"/>
				<path class="st1" d="M1766.7,752.4c-3.2,1.1-6,2.7-8.8,4.4c-2.7,1.7-5.3,3.6-7.8,5.6s-4.8,4.2-7,6.5c-2.2,2.4-4.3,4.9-6,7.8
					c3.2-1.1,6.1-2.7,8.8-4.4c2.7-1.7,5.3-3.6,7.8-5.6s4.8-4.2,7-6.5C1762.9,757.9,1765,755.4,1766.7,752.4L1766.7,752.4z"/>
			</g>
		</g>
		<g>
			<path class="st2" d="M1521.5,707.5c-10.6,11.7-27.2,17.7-42.9,15.6c-11.9-1.7-22.7-7.6-33.2-13.4c-3.7-7.7-10.7-13.2-17.4-18.4
				c-2.6-2-5.2-4-8.1-5.5c-0.1,0-0.2-0.1-0.2-0.1c-0.2-0.1-0.3-0.2-0.5-0.3l0,0c-1.5-0.8-3-1.4-4.6-1.9c-1.2-0.4-2.5-0.6-3.8-0.6
				c5.1-7.4,14.5-10.7,22.5-15.1c1.2-0.7,2.3-1.3,3.4-2.1h0.1c4.1-2,14.9-2.5,22.9-2.2c3.3,0.1,6.1,0.5,7.9,0.9
				c7.4,1.8,13.6,6.5,20.6,9.7c8.3,3.9,17.9,5.6,24.9,11.7c4,3.5,6.8,8.3,9.6,12.9c0.7,1.3,1.5,2.6,1.5,4.1
				C1524,704.5,1522.8,706.1,1521.5,707.5z"/>
			<g>
				<path class="st3" d="M1513.5,706.4c-8.3-0.7-16.6-1.9-24.8-3.4c-1.2-0.2-2.4-0.4-3.5-0.6c-1-0.2-2-0.4-3-0.6
					c-1.9-0.4-3.8-0.8-5.7-1.1c-4.1-0.9-8.1-1.8-12.2-2.8c-1.1-0.3-2.2-0.6-3.3-0.8c-0.3-0.1-0.5-0.1-0.8-0.2
					c-2.7-0.7-5.3-1.4-8-2.1c-1.9-0.5-3.7-1-5.6-1.6c-0.5-0.1-1-0.3-1.4-0.4c-1.7-0.5-3.3-1-5-1.5c-2-0.6-4-1.2-5.9-1.9
					c-2-0.7-4-1.4-5.9-2c-2-0.6-3.9-1.1-6-1.2c-1.5-0.1-3,0.2-4.3,0.8c-0.1,0-0.2-0.1-0.2-0.1c0.4-0.3,0.9-0.6,1.4-0.8
					c1-0.4,2.1-0.6,3.1-0.7c2.1-0.2,4.3,0.2,6.3,0.6c4.1,1,8.1,2,12.1,3.1l4.1,1l0.7,0.2l7.3,1.8c2.5,0.6,4.9,1.2,7.4,1.8l1.1,0.3
					c1.2,0.3,2.4,0.6,3.6,0.9c4,1,8.1,2,12.1,2.9l4.7,1.1l1.1,0.3l6.3,1.5C1497.3,702.6,1505.4,704.4,1513.5,706.4z"/>
				<path class="st3" d="M1480.9,700.4c1-1.8,2.3-3.4,3.5-5c1.3-1.5,2.7-3,4.1-4.4s3-2.7,4.6-3.9s3.3-2.4,5.1-3.3
					c-1,1.8-2.3,3.4-3.5,5c-1.3,1.5-2.7,3-4.1,4.4s-3,2.7-4.6,3.9C1484.5,698.3,1482.8,699.4,1480.9,700.4L1480.9,700.4z"/>
				<path class="st3" d="M1459.8,696c0.3-2.1,1-4.1,1.9-6s2.1-3.7,3.4-5.3s2.9-3.1,4.6-4.4c1.7-1.3,3.5-2.4,5.6-3.1
					c-1.3,1.7-2.7,3.2-4,4.7s-2.6,3.1-3.9,4.6s-2.5,3.1-3.7,4.7C1462.4,692.7,1461.2,694.3,1459.8,696L1459.8,696z"/>
				<path class="st3" d="M1445.2,691.9c-0.6-2.7-0.6-5.5-0.1-8.2s1.4-5.4,2.7-7.8c1.3-2.5,3-4.7,4.9-6.6c2-1.9,4.3-3.5,6.8-4.5
					c-1.9,2-3.6,3.9-5.1,6s-2.9,4.2-4.1,6.5c-1.2,2.2-2.2,4.6-3,7C1446.4,686.7,1445.8,689.3,1445.2,691.9L1445.2,691.9z"/>
				<path class="st3" d="M1480.9,699.5c1.6,0.8,3.1,1.9,4.4,3s2.5,2.4,3.7,3.7c1.1,1.3,2.1,2.8,3,4.3s1.7,3.1,2.2,4.9
					c-1.5-1-2.8-2.2-4-3.4s-2.4-2.5-3.5-3.8s-2.1-2.7-3.1-4.1C1482.7,702.6,1481.7,701.1,1480.9,699.5L1480.9,699.5z"/>
				<path class="st3" d="M1460.4,695.4c0.7,2.1,1.4,4,2.2,5.9c0.8,1.9,1.7,3.7,2.7,5.4s2.1,3.4,3.3,5c1.2,1.6,2.5,3.2,4,4.9
					c-2.1-0.7-4-1.9-5.6-3.3c-1.7-1.5-3.1-3.2-4.2-5.1c-1.1-1.9-1.9-4-2.3-6.2C1460,699.8,1459.9,697.6,1460.4,695.4L1460.4,695.4z"
					/>
				<path class="st3" d="M1444.9,691.6c1.4,1.1,2.5,2.4,3.6,3.7c1,1.3,2,2.7,2.9,4.1c0.9,1.4,1.6,2.9,2.3,4.4
					c0.7,1.5,1.3,3.1,1.6,4.9c-1.4-1.1-2.5-2.4-3.6-3.7c-1-1.3-2-2.7-2.9-4.1c-0.9-1.4-1.6-2.9-2.3-4.4
					C1445.8,694.9,1445.2,693.3,1444.9,691.6L1444.9,691.6z"/>
			</g>
		</g>
	</g>
</g>
</svg>
