<?xml version="1.0" encoding="utf-8"?>
<!-- Generator: Adobe Illustrator 22.0.1, SVG Export Plug-In . SVG Version: 6.00 Build 0)  -->
<svg version="1.1" id="Layer_1" xmlns="http://www.w3.org/2000/svg" xmlns:xlink="http://www.w3.org/1999/xlink" x="0px" y="0px"
	 viewBox="0 0 1920 1080" style="enable-background:new 0 0 1920 1080;" xml:space="preserve">
<style type="text/css">
	.st0{fill:#77A275;}
	.st1{fill:#537D41;}
	.st2{fill:#BF7C40;}
	.st3{fill:#A16C44;}
	.st4{fill:#478A71;}
</style>
<g id="Layer_5">
	<g>
		<g>
			<path class="st0" d="M1708.2,414c0.4-16.8,9.5-33.1,23.5-42.2c10.6-6.9,23.3-9.6,35.7-12.1c8.2,3.6,17.6,3.2,26.6,2.7
				c3.4-0.2,6.9-0.4,10.3-1.1c0.1,0,0.2,0,0.3-0.1c0.2,0,0.4-0.1,0.6-0.1l0,0c1.7-0.4,3.4-0.9,4.9-1.7c1.2-0.6,2.4-1.3,3.5-2.2
				c1,9.5-4.2,18.6-7.5,27.7c-0.5,1.3-0.9,2.7-1.3,4c0,0,0,0,0,0.1c-1.9,4.4-10.1,12.3-16.8,17.6c-2.7,2.2-5.2,3.9-6.9,4.8
				c-7.1,3.7-15.4,4.2-23.1,6.5c-9.3,2.7-18.2,7.9-27.9,7.8c-5.7,0-11.1-1.9-16.5-3.7c-1.5-0.5-3-1.1-4-2.2
				C1708.3,418.1,1708.1,415.9,1708.2,414z"/>
			<g>
				<g>
					<path class="st1" d="M1714.6,411.6c7.2-5.2,14.6-9.9,22.1-14.4c1.1-0.7,2.2-1.3,3.2-1.9c0.9-0.5,1.9-1.1,2.8-1.6
						c1.8-1,3.6-2,5.4-3.1c3.9-2.1,7.7-4.2,11.6-6.2c1.1-0.5,2.1-1.1,3.2-1.6c0.3-0.1,0.5-0.3,0.8-0.4c2.6-1.3,5.2-2.6,7.9-3.8
						c1.8-0.9,3.7-1.7,5.5-2.6c0.5-0.2,1-0.4,1.4-0.7c1.7-0.8,3.3-1.5,5-2.2c2-0.9,4-1.8,6.1-2.6c2-0.8,4.1-1.7,6.1-2.5
						c2-0.9,3.9-1.8,5.6-3.2c1.2-1,2.3-2.2,2.9-3.6c0.1,0,0.2,0,0.3-0.1c-0.1,0.5-0.3,1.1-0.6,1.6c-0.5,1-1.2,1.9-2,2.7
						c-1.6,1.6-3.5,2.8-5.5,3.9c-4,2-7.9,3.9-11.8,5.9l-4,2l-0.7,0.4l-7.1,3.6c-2.4,1.2-4.8,2.4-7.2,3.6l-1,0.5
						c-1.2,0.6-2.3,1.2-3.5,1.8c-3.9,2-7.8,4-11.7,6l-4.5,2.4l-1,0.5l-6.1,3.2C1730.2,403.4,1722.5,407.6,1714.6,411.6z"/>
					<path class="st1" d="M1744.8,393.9c0.4,2.2,0.6,4.3,0.6,6.5c0,2.1-0.1,4.3-0.3,6.4c-0.2,2.1-0.5,4.2-0.9,6.3
						c-0.4,2.1-1,4.2-1.8,6.2c-0.4-2.2-0.6-4.3-0.6-6.5c0-2.1,0.1-4.3,0.3-6.4c0.2-2.1,0.5-4.2,0.9-6.3
						C1743.4,398.1,1743.9,396,1744.8,393.9L1744.8,393.9z"/>
					<path class="st1" d="M1764.7,382.8c1.2,1.9,2.1,4,2.6,6.2c0.6,2.2,0.9,4.4,0.9,6.7c0.1,2.2-0.1,4.5-0.6,6.7s-1.2,4.3-2.3,6.3
						c-0.1-2.3-0.1-4.4-0.1-6.6c0-2.1,0-4.3-0.1-6.4s-0.1-4.2-0.2-6.4C1764.8,387.3,1764.7,385.1,1764.7,382.8L1764.7,382.8z"/>
					<path class="st1" d="M1779.2,376c2.3,1.7,4.2,4,5.7,6.5s2.6,5.3,3.3,8.1c0.7,2.9,0.9,5.8,0.6,8.7c-0.3,2.9-1,5.8-2.3,8.3
						c0.1-2.9,0.1-5.6-0.1-8.4c-0.2-2.7-0.6-5.4-1.2-8s-1.4-5.2-2.4-7.7C1781.7,381,1780.5,378.5,1779.2,376L1779.2,376z"/>
					<path class="st1" d="M1745.4,394.6c-1.9,0.5-3.7,0.6-5.6,0.6c-1.8,0-3.7-0.2-5.5-0.5s-3.6-0.7-5.4-1.3
						c-1.7-0.6-3.5-1.3-5.1-2.4c1.9-0.2,3.7-0.1,5.6,0c1.8,0.1,3.6,0.4,5.4,0.7c1.8,0.3,3.5,0.7,5.3,1.1
						C1741.9,393.3,1743.6,393.8,1745.4,394.6L1745.4,394.6z"/>
					<path class="st1" d="M1764.6,383.7c-2-1.2-3.9-2.2-5.8-3.2s-3.9-1.8-5.9-2.5s-4-1.3-6.1-1.8s-4.2-0.8-6.5-1.2
						c2.1-0.9,4.5-1.3,6.8-1.2c2.3,0,4.7,0.5,6.9,1.3c2.2,0.8,4.3,1.9,6.1,3.4C1761.9,379.9,1763.5,381.6,1764.6,383.7L1764.6,383.7
						z"/>
					<path class="st1" d="M1779.6,376c-1.9,0.1-3.6-0.2-5.4-0.5c-1.7-0.3-3.5-0.8-5.1-1.3c-1.7-0.5-3.3-1.2-4.9-2s-3.2-1.6-4.7-2.8
						c1.9-0.1,3.6,0.2,5.4,0.5c1.7,0.3,3.5,0.8,5.1,1.3c1.7,0.5,3.3,1.2,4.9,2C1776.6,374,1778.2,374.9,1779.6,376L1779.6,376z"/>
				</g>
			</g>
		</g>
		<g>
			<path class="st2" d="M1219.3,407.6c6,11.3,17.9,19.3,30.6,20.7c9.6,1,19.2-1.5,28.6-4c4.4-5.3,10.9-8.2,17.2-11
				c2.4-1.1,4.9-2.1,7.4-2.7c0.1,0,0.1,0,0.2-0.1c0.1,0,0.3-0.1,0.4-0.1l0,0c1.3-0.3,2.6-0.5,4-0.5c1,0,2.1,0.1,3.1,0.3
				c-2.6-6.8-9.3-11.3-14.6-16.4c-0.8-0.7-1.5-1.5-2.3-2.3l0,0c-2.8-2.4-11.1-4.9-17.5-6.2c-2.6-0.5-4.9-0.9-6.4-0.9
				c-6.1-0.1-12,2.4-18,3.5c-7.3,1.4-15.1,0.9-21.8,4.2c-3.9,2-7,5.1-10,8.2c-0.8,0.9-1.7,1.8-2,2.9
				C1218,404.8,1218.6,406.3,1219.3,407.6z"/>
			<g>
				<path class="st3" d="M1224.6,407c6.7,1.1,13.4,1.8,20.1,2.3c1,0.1,1.9,0.1,2.9,0.2c0.8,0.1,1.7,0.1,2.5,0.1
					c1.6,0.1,3.2,0.2,4.7,0.2c3.4,0.1,6.7,0.2,10.1,0.2c0.9,0,1.8,0,2.7,0c0.2,0,0.4,0,0.7,0c2.2,0,4.5,0,6.7-0.1
					c1.6,0,3.1-0.1,4.7-0.1c0.4,0,0.8,0,1.2,0c1.4-0.1,2.8-0.1,4.2-0.2c1.7-0.1,3.4-0.2,5-0.3c1.7-0.1,3.4-0.3,5-0.4
					s3.3-0.1,4.9,0.3c1.2,0.2,2.3,0.7,3.2,1.5c0.1,0,0.1,0,0.2-0.1c-0.3-0.3-0.6-0.6-1-0.9c-0.7-0.5-1.5-0.9-2.3-1.2
					c-1.6-0.6-3.4-0.7-5.1-0.8c-3.4,0-6.7,0-10.1,0h-3.4h-0.6h-6.1c-2.1,0-4.1,0-6.1,0h-0.9c-1,0-2,0-3,0c-3.3,0-6.7-0.1-10-0.1
					l-3.9-0.1h-0.9l-5.3-0.1C1238,407.3,1231.3,407.1,1224.6,407z"/>
				<path class="st3" d="M1251.2,408.8c-0.4-1.6-1.1-3.2-1.8-4.6c-0.7-1.5-1.5-2.9-2.4-4.3s-1.8-2.7-2.8-4s-2.1-2.5-3.4-3.6
					c0.4,1.6,1.1,3.2,1.8,4.6c0.7,1.5,1.5,2.9,2.4,4.3s1.8,2.7,2.8,4C1248.9,406.4,1250,407.6,1251.2,408.8L1251.2,408.8z"/>
				<path class="st3" d="M1268.6,409.5c0.2-1.7,0-3.5-0.3-5.1c-0.4-1.7-0.9-3.3-1.6-4.9s-1.6-3-2.7-4.4c-1.1-1.3-2.3-2.6-3.8-3.5
					c0.7,1.6,1.5,3.1,2.2,4.5c0.7,1.5,1.4,2.9,2.1,4.4s1.4,2.9,2,4.4C1267.2,406.4,1267.9,407.9,1268.6,409.5L1268.6,409.5z"/>
				<path class="st3" d="M1280.9,409.2c1-2,1.5-4.2,1.7-6.4c0.2-2.2,0-4.5-0.6-6.7c-0.5-2.2-1.4-4.3-2.6-6.2
					c-1.2-1.9-2.7-3.6-4.5-4.9c1.1,1.9,2,3.8,2.8,5.7c0.8,1.9,1.4,3.9,1.9,5.9s0.8,4,1,6.1C1280.9,404.9,1281,407,1280.9,409.2
					L1280.9,409.2z"/>
				<path class="st3" d="M1251.4,408.1c-1.4,0.3-2.8,0.9-4,1.5c-1.3,0.6-2.5,1.4-3.6,2.2c-1.1,0.8-2.2,1.7-3.2,2.7s-1.9,2.1-2.7,3.4
					c1.4-0.5,2.6-1.2,3.8-1.9c1.2-0.7,2.3-1.5,3.4-2.3s2.2-1.7,3.2-2.6C1249.5,410.2,1250.5,409.2,1251.4,408.1L1251.4,408.1z"/>
				<path class="st3" d="M1268.3,408.9c-1,1.5-1.9,2.9-2.9,4.2c-1,1.3-2,2.5-3.1,3.7s-2.3,2.3-3.6,3.3c-1.3,1-2.6,2-4,3
					c1.8-0.1,3.5-0.7,5.1-1.5s3-1.9,4.3-3.2c1.2-1.3,2.3-2.8,3-4.4C1267.8,412.5,1268.3,410.7,1268.3,408.9L1268.3,408.9z"/>
				<path class="st3" d="M1281.2,409c-1.3,0.6-2.4,1.4-3.5,2.2c-1.1,0.8-2.1,1.7-3,2.7c-1,0.9-1.9,2-2.7,3c-0.8,1.1-1.6,2.2-2.2,3.5
					c1.3-0.6,2.4-1.4,3.5-2.2c1.1-0.8,2.1-1.7,3-2.7c1-1,1.9-2,2.7-3C1279.8,411.4,1280.6,410.3,1281.2,409L1281.2,409z"/>
			</g>
		</g>
		<g>
			<path class="st0" d="M1528.2,376.3c-1.5,11.6-9.1,22.2-19.5,27.5c-7.9,4-16.9,4.9-25.7,5.7c-5.4-3.1-11.9-3.5-18.2-3.8
				c-2.4-0.1-4.8-0.2-7.2,0c-0.1,0-0.1,0-0.2,0s-0.3,0-0.4,0l0,0c-1.2,0.1-2.4,0.4-3.6,0.8c-0.9,0.3-1.8,0.7-2.6,1.2
				c0-6.6,4.3-12.6,7.3-18.6c0.4-0.9,0.8-1.8,1.2-2.7l0,0c1.7-2.9,7.9-7.8,13-10.9c2.1-1.3,3.9-2.3,5.1-2.8c5.2-2,11-1.8,16.5-2.7
				c6.7-1.1,13.2-4.1,19.9-3.3c3.9,0.5,7.6,2.2,11.2,3.8c1,0.5,2,1,2.6,1.9C1528.4,373.5,1528.4,375,1528.2,376.3z"/>
			<g>
				<path class="st4" d="M1523.5,377.5c-5.3,3-10.8,5.8-16.4,8.3c-0.8,0.4-1.6,0.7-2.4,1.1c-0.7,0.3-1.4,0.6-2.1,0.9
					c-1.3,0.6-2.6,1.1-4,1.7c-2.8,1.2-5.7,2.3-8.5,3.4c-0.8,0.3-1.6,0.6-2.3,0.9c-0.2,0.1-0.4,0.1-0.6,0.2c-1.9,0.7-3.8,1.4-5.7,2.1
					c-1.3,0.5-2.7,0.9-4,1.4c-0.4,0.1-0.7,0.2-1.1,0.3c-1.2,0.4-2.4,0.8-3.7,1.2c-1.5,0.4-2.9,0.9-4.4,1.3s-3,0.8-4.4,1.3
					s-2.8,1-4.1,1.8c-0.9,0.6-1.7,1.3-2.3,2.3c-0.1,0-0.1,0-0.2,0c0.1-0.4,0.3-0.7,0.5-1.1c0.4-0.7,1-1.2,1.6-1.7
					c1.2-1,2.7-1.7,4.1-2.3c2.9-1.1,5.7-2.1,8.6-3.2l2.9-1.1l0.5-0.2l5.2-1.9c1.8-0.7,3.5-1.3,5.2-2l0.8-0.3c0.9-0.3,1.7-0.7,2.6-1
					c2.9-1.1,5.7-2.2,8.5-3.3l3.3-1.3l0.8-0.3l4.5-1.8C1512.2,382,1517.8,379.7,1523.5,377.5z"/>
				<path class="st4" d="M1501.3,387.5c-0.1-1.5-0.1-3,0.1-4.5c0.1-1.5,0.4-3,0.7-4.4c0.3-1.5,0.7-2.9,1.1-4.3
					c0.5-1.4,1-2.8,1.7-4.2c0.1,1.5,0.1,3-0.1,4.5c-0.1,1.5-0.4,3-0.7,4.4c-0.3,1.5-0.7,2.9-1.1,4.3
					C1502.6,384.7,1502.1,386.1,1501.3,387.5L1501.3,387.5z"/>
				<path class="st4" d="M1486.7,393.7c-0.7-1.4-1.1-2.9-1.4-4.5c-0.2-1.5-0.3-3.1-0.2-4.7c0.1-1.6,0.4-3.1,0.9-4.6s1.1-2.9,2.1-4.2
					c-0.1,1.6-0.3,3.1-0.4,4.6c-0.2,1.5-0.3,2.9-0.4,4.4s-0.2,2.9-0.3,4.4C1486.9,390.6,1486.9,392.1,1486.7,393.7L1486.7,393.7z"/>
				<path class="st4" d="M1476.1,397.4c-1.5-1.4-2.6-3.1-3.5-4.9s-1.4-3.8-1.6-5.9c-0.2-2-0.2-4.1,0.2-6.1c0.4-2,1.1-3.9,2.2-5.6
					c-0.3,2-0.5,3.9-0.6,5.8s0,3.8,0.2,5.6c0.2,1.9,0.6,3.7,1.1,5.5C1474.7,393.7,1475.4,395.5,1476.1,397.4L1476.1,397.4z"/>
				<path class="st4" d="M1500.9,387c1.3-0.2,2.6-0.1,3.9,0s2.5,0.4,3.8,0.7c1.2,0.3,2.4,0.8,3.6,1.3s2.3,1.2,3.3,2
					c-1.3,0-2.6-0.2-3.9-0.4c-1.2-0.2-2.5-0.5-3.7-0.9c-1.2-0.3-2.4-0.7-3.6-1.2C1503.3,388.1,1502.1,387.6,1500.9,387L1500.9,387z"
					/>
				<path class="st4" d="M1486.8,393.1c1.3,1,2.5,1.8,3.8,2.7c1.3,0.8,2.5,1.5,3.9,2.2c1.3,0.6,2.7,1.2,4.1,1.7s2.9,0.9,4.4,1.3
					c-1.5,0.5-3.2,0.5-4.8,0.4c-1.6-0.2-3.2-0.7-4.7-1.4c-1.5-0.7-2.8-1.6-4-2.8C1488.4,396,1487.4,394.6,1486.8,393.1L1486.8,393.1
					z"/>
				<path class="st4" d="M1475.8,397.3c1.3,0.1,2.5,0.4,3.7,0.7c1.2,0.4,2.3,0.8,3.5,1.3c1.1,0.5,2.2,1.1,3.3,1.7
					c1.1,0.7,2.1,1.4,3,2.3c-1.3-0.1-2.5-0.4-3.7-0.7c-1.2-0.4-2.3-0.8-3.5-1.3c-1.1-0.5-2.2-1.1-3.3-1.7
					C1477.8,398.9,1476.8,398.2,1475.8,397.3L1475.8,397.3z"/>
			</g>
		</g>
	</g>
</g>
</svg>
