<?xml version="1.0" encoding="utf-8"?>
<!-- Generator: Adobe Illustrator 22.0.1, SVG Export Plug-In . SVG Version: 6.00 Build 0)  -->
<svg version="1.1" id="Layer_1" xmlns="http://www.w3.org/2000/svg" xmlns:xlink="http://www.w3.org/1999/xlink" x="0px" y="0px"
	 viewBox="0 0 750 1334" style="enable-background:new 0 0 750 1334;" xml:space="preserve">
<style type="text/css">
	.st0{clip-path:url(#SVGID_2_);}
	.st1{fill:#BF7C40;}
	.st2{fill:none;}
	.st3{fill:#F5D068;}
	.st4{fill:#89BE86;}
	.st5{fill:#FCBC03;}
	.st6{fill:#F3D261;}
	.st7{fill:none;stroke:#000000;stroke-width:1.3242;stroke-linecap:round;stroke-linejoin:round;stroke-miterlimit:10;}
	.st8{fill:#FBCF66;}
	.st9{fill:#E9DB82;}
</style>
<g id="Layer_1_1_">
	<g>
		<g>
			<defs>
				<rect id="SVGID_1_" width="750" height="1334"/>
			</defs>
			<clipPath id="SVGID_2_">
				<use xlink:href="#SVGID_1_"  style="overflow:visible;"/>
			</clipPath>
			<g class="st0">
				<path class="st1" d="M-0.2,1045.3c0,0,72.5-18.6,139.6,59.7c67.1,78.3,213.8,51.6,258,124.8c0,0,22.7,56.6-223,24.9
					s-80.7,45.8-174.5,78.8v-288.2H-0.2z"/>
				<line class="st2" x1="-0.2" y1="1045.1" x2="-0.2" y2="1020.1"/>
				<g>
					<path class="st3" d="M58.4,1051.7c2.1,18.6,5.1,45.2,5.8,48.4c-0.1,1.3-0.2,2.5-0.4,3.6l0,0c-0.1,1-0.2,1.9-0.3,2.7
						c-0.3,0-0.5-0.1-0.8-0.2c-0.4-0.1-0.7-0.2-1-0.4c-0.4-0.2-0.7-0.3-1.1-0.6c-5.1-22.3-18.2-83.1-16.4-112.7l6.8,23
						C54.5,1027.4,57,1039.5,58.4,1051.7z"/>
					<path class="st4" d="M64.1,1100.1c0-0.1,0-0.2-0.1-0.3c-4.9-29.3-14.7-115.8-14.3-126c0,0,3.6,17.1,7.4,36.3v0.1
						c0,0.1,0,0.1,0,0.1c1.1,5.7,2.2,11.5,3.3,17.1c2,10.7,3.7,20.6,4.6,27.1c0.5,4.1,0.8,8.8,0.8,13.7v0.1
						C65.9,1079.1,65,1091.2,64.1,1100.1z"/>
					<path class="st5" d="M63.7,1103.7c0.1-1.1,0.2-2.4,0.4-3.6c0.9-8.9,1.8-20.9,1.7-31.9c0.7-5.5,2.5-16.3,4.4-27.6
						c4.5-26.5,10.7-60.8,10.8-63.8C86.9,1038.8,64.3,1102.3,63.7,1103.7z"/>
					<path class="st6" d="M72,948.2c0,0-0.6,22.1-1.4,67.6l0,0c-0.1,7.6-0.3,15.9-0.4,24.8c-1.9,11.3-3.7,22-4.4,27.6v-0.1
						c0-4.9-0.3-9.6-0.8-13.7c-0.8-6.5-2.6-16.4-4.6-27.1C60.8,1014.4,62.7,965.2,72,948.2z"/>
					<path class="st7" d="M81,976.7c0,0,0,0.1,0,0.2C81,976.8,81,976.7,81,976.7z"/>
					<path class="st8" d="M135.5,931.7c-0.1,0-0.2,0-0.3,0c-1.8,0.2-3.5,0.4-5.1,0.7L135.5,931.7z"/>
					<g>
						<path class="st9" d="M70.6,1015.7c0.4-4.5,1-9,1.8-13.5c0.4-2.2,0.8-4.5,1.4-6.7c0.5-2.2,1.1-4.4,1.7-6.6
							c0.6-2.2,1.3-4.4,2-6.5l1.2-3.2l0.6-1.6L80,976l1.3-3.1c0.5-1,1-2.1,1.5-3.1s1-2.1,1.5-3.1l1.7-3c4.6-7.9,10.7-15,18-20.4
							c1.8-1.4,3.7-2.7,5.7-3.8s4-2.2,6.1-3.1c2.1-0.9,4.3-1.6,6.4-2.3c2.2-0.7,4.4-1.1,6.6-1.5c-2.2,0.6-4.4,1.1-6.5,1.9
							c-2.1,0.7-4.2,1.6-6.3,2.5c-4.1,1.9-8,4.2-11.4,7.1c-7.1,5.5-13,12.5-17.5,20.3c-4.6,7.7-8.1,16.1-10.7,24.8
							C73.8,997.9,72,1006.8,70.6,1015.7z"/>
					</g>
					<g>
						<path class="st9" d="M57.1,1009.3c-1.4-10.7-1.4-21.6-0.5-32.4c1-10.8,3.2-21.5,7.3-31.6c2.1-5,4.7-9.9,7.9-14.3
							c3.2-4.4,7-8.4,11.4-11.6c1.1-0.8,2.3-1.5,3.4-2.3c1.2-0.7,2.4-1.3,3.6-2c2.4-1.3,4.9-2.3,7.5-3.1c5.2-1.6,10.6-2.5,16-2.8
							c-5.4,0.5-10.7,1.5-15.8,3.4c-2.5,0.9-5,1.9-7.3,3.3c-1.2,0.7-2.3,1.3-3.5,2l-3.3,2.3c-4.2,3.3-8,7.2-11.1,11.5
							s-5.6,9.1-7.7,14.1c-4.1,9.9-6.3,20.5-7.6,31.2c-0.6,5.4-0.9,10.7-1,16.1C56.6,998.5,56.7,1003.9,57.1,1009.3z"/>
					</g>
					<path class="st8" d="M130.1,932.5c-0.3,0.2-0.6,0.3-1,0.3L130.1,932.5z"/>
					<path class="st2" d="M128.9,932.7c0.1,0.1,0.2,0.1,0.2,0.1c0.1,0,0.2,0.1,0.3,0.1"/>
					<path class="st8" d="M122.1,934.4c-0.9-1.8,0.5-3.8,1.7-5.3c0.2-0.2,0.4-0.4,0.6-0.5c0.6-0.1,0.9,0.7,0.9,1.3
						c0.1,1,0.1,2-0.2,3c-0.4,0.9-1.4,1.7-2.3,1.5H122.1z"/>
					<path class="st2" d="M113.5,938.2L113.5,938.2c-0.1,0-0.2,0-0.2,0"/>
					<path class="st2" d="M110.1,939.1c0.1-0.1,0.2-0.1,0.3-0.2l0,0l0,0"/>
					<path class="st8" d="M106.2,942c0,0.1,0.1,0.2,0.1,0.2c0.1,0.2,0.2,0.4,0.4,0.6c-0.1,0.1-0.2,0.1-0.2,0.2L106.2,942z"/>
					<path class="st8" d="M108,940.8c-0.1,0.1-0.4,0.1-0.7,0c-0.1,0.3-0.2,0.6-0.4,0.9L108,940.8z"/>
					<path class="st2" d="M101.4,947.3L101.4,947.3c0.1,0.2,0.1,0.3,0.3,0.3"/>
					<path class="st8" d="M101.9,944.3c-0.3,0-0.5-0.1-0.7-0.2c-0.1,0.2-0.2,0.3-0.3,0.5L101.9,944.3z"/>
					<path class="st8" d="M102.9,950.8c0.4,1-0.7,2-1.7,2s-4-1-4.8-1.7c1.4-1.3,3.4-1.8,5.2-1.2C102.1,950,102.7,950.2,102.9,950.8z
						"/>
					<path class="st8" d="M119.7,941.1c-1,0.8-2.4,0.7-3.5,0.1c-1.1-0.6-2-2-2.7-3c1.5-0.2,3-0.3,4.5-0.4c0.6,0,1.2-0.1,1.7,0.2
						C120.7,938.5,120.7,940.3,119.7,941.1z"/>
					<path class="st8" d="M126.9,936.8c0.3,0.9-0.4,2.2-1.4,2.1c-0.5,0-1-0.4-1.4-0.7c-0.8-0.7-1.7-1.7-2.5-2.4
						c0.9-0.3,1.9-0.7,2.9-0.6S126.5,935.9,126.9,936.8z"/>
					<path class="st8" d="M134.7,936.9c-0.4,1.1-2,1.2-3,0.5c-1.4-1-2-2.9-1.4-4.5c1.1,0,2.1,1.3,3,1.8
						C134.2,935.1,135,935.9,134.7,936.9z"/>
					<path class="st8" d="M108.9,947.1c0.1,0.2,0.2,0.4,0.2,0.5c0,0.2-0.2,0.3-0.4,0.4c-2.2,1.3-5,0.3-7.3-0.8
						c-0.1-0.2,0-0.5,0.2-0.7c0.3-0.3,0.7-0.4,1.1-0.5c1.1-0.2,2.2-0.5,3.3-0.4C107.1,945.7,108.3,946.2,108.9,947.1z"/>
					<path class="st8" d="M115.6,935.4c-0.2-2.2,0.8-4.4,2.6-5.8c0.3-0.2,0.6-0.4,1-0.4c0.5,0,0.9,0.5,1,1s0,1-0.2,1.5
						c-0.3,1-0.6,2.1-1.4,2.8C117.9,935.3,116.4,936.1,115.6,935.4z"/>
					<path class="st8" d="M112.1,943.7c-0.4,1-1.7,1.2-2.7,0.9s-2-0.9-2.6-1.8c1-0.7,2.3-1.6,3.4-1.6
						C111.4,941.3,112.6,942.6,112.1,943.7z"/>
					<path class="st8" d="M105.3,938.9c0-1,0-2.1,0.6-2.9c0.6-0.8,2-1,2.5-0.1c0.3,0.5,0.1,1.2,0,1.7c-0.3,1.1-0.7,2.1-1.1,3.2
						c-0.7-0.1-1.5-0.5-1.7-0.7C105.3,939.7,105.3,939.3,105.3,938.9z"/>
					<path class="st8" d="M99.7,941.7c-0.1-1.2,0.4-2.4,0.8-3.5c0.1-0.4,0.3-0.7,0.6-1c0.3-0.2,0.8-0.2,1,0.1
						c0.1,0.1,0.1,0.3,0.1,0.5c0.2,2.2-0.2,4.4-1.2,6.3C100.3,943.7,99.8,942.7,99.7,941.7z"/>
					<path class="st8" d="M130.1,932.5c-0.4,0.1-0.8,0.1-1.2,0.2c-0.4-0.2-0.7-0.8-0.7-1.2c0-0.7,0.4-1.3,0.8-1.8
						c0.8-1,1.9-1.7,3.1-2.2C132.7,929.2,131.7,931.6,130.1,932.5z"/>
					<path class="st8" d="M139,932.6c-1.1,0.3-3.2,0.7-3.8-0.3c0-0.2,0-0.3,0-0.5c0.1-1.2,1.4-2.2,2.6-2.7c0.7-0.2,1.4-0.4,2.1-0.3
						c0.7,0.1,1.4,0.6,1.5,1.3C141.7,931.3,140.3,932.2,139,932.6z"/>
					<path class="st8" d="M112.8,934.2c0.2,1.9-0.8,3.8-2.4,4.7c-0.7-1.6-0.7-3.9,0.3-5.4c0.3-0.4,0.6-0.8,1.1-0.7
						C112.4,932.9,112.7,933.6,112.8,934.2z"/>
					<path class="st8" d="M98.5,948c0.8-2,0.2-4.4-1.4-5.8c-0.3,1.2-0.6,2.4-0.4,3.5c0.2,1.2,1.1,2.3,2.3,2.4L98.5,948z"/>
					<path class="st8" d="M120.7,908.3c-0.3,0.5-0.7,1-1.2,1.5c-0.8,0.8-1.9,1.4-3,1.4s-2.3-0.8-2.4-1.9c1.8-1,3.8-1.6,5.8-1.9
						c0.4-0.1,0.9,0,1,0.4C120.9,907.9,120.8,908.1,120.7,908.3z"/>
					<path class="st2" d="M114,909.2C114,909.2,114,909.3,114,909.2c-0.2,0.1-0.3,0.2-0.5,0.3"/>
					<path class="st8" d="M107.8,910.7c1.9-1.7,3.1-4.1,3.3-6.6c-2,0.9-3.6,2.8-4.1,5c-0.1,0.4-0.1,0.8,0,1.1c0.2,0.3,0.7,0.6,1,0.3
						L107.8,910.7z"/>
					<path class="st8" d="M107.5,914.6c-0.1,1.2-1.8,1.8-3,1.3c-1.1-0.5-1.9-1.6-2.8-2.5c0.9-0.3,3.2-0.9,4.1-0.7
						C106.8,912.9,107.6,913.7,107.5,914.6z"/>
					<path class="st2" d="M103.1,910.8c-0.2-0.1-0.4-0.2-0.5-0.4c0,0,0,0,0,0.1"/>
					<path class="st8" d="M84,925.6c0.4,0.4,0.2,1.1-0.2,1.5c-1.3,1.6-3.9,1.8-5.4,0.4c1.1-1.4,3-2.3,4.8-2.2
						C83.4,925.3,83.7,925.4,84,925.6z"/>
					<path class="st8" d="M90,921.2c0,0.1-0.1,0.3-0.1,0.4c-0.7,1-1.9,1.6-3.1,1.6c-1.2-0.1-2.4-0.8-2.9-1.9c1.4-1,3.7-1,5.4-0.6
						C89.6,920.8,90,920.9,90,921.2z"/>
					<path class="st8" d="M100.9,916.2c-0.1,1.3-1.9,1.8-3.1,1.2s-1.9-1.9-2.8-2.8c0.8-0.3,3.4-0.3,4.2-0.1
						C100.1,914.6,101,915.3,100.9,916.2z"/>
					<path class="st8" d="M93.8,917.6c0.6,0.8-0.4,2-1.4,2s-2.8-1-3.5-1.7c1.1-0.6,2.3-0.9,3.6-0.8C93,917.2,93.5,917.3,93.8,917.6z
						"/>
					<path class="st2" d="M91.1,916c0.1,0,0.2,0,0.2,0s0-0.1,0.1-0.1"/>
					<path class="st8" d="M104.4,905.7c-0.4,1.6-1,3.2-1.8,4.7c-0.8-0.7-1.3-1.7-1.2-2.7c0.1-1.2,0.9-2.4,2.1-2.9
						c0.3-0.1,0.7-0.2,0.9,0.1C104.5,905.2,104.4,905.4,104.4,905.7z"/>
					<path class="st8" d="M98.2,909.7c-0.4,0.9-1,1.8-0.7,2.7c-1.2-0.2-2.2-1.6-2.2-2.8c0-0.8,0.2-1.5,0.7-2.1s1.4-0.8,2-0.4
						C98.7,907.7,98.6,908.9,98.2,909.7z"/>
					<path class="st8" d="M93.2,911.2c0.2,0.5,0,1-0.2,1.5c-0.4,0.8-1.1,2.2-1.5,3.1c-0.1,0.1-0.2,0.1-0.3,0.2
						c-0.7,0-1.4-0.7-1.5-1.5s0.2-1.7,0.6-2.4c0.3-0.6,0.7-1.1,1.3-1.4C92.1,910.5,92.9,910.7,93.2,911.2z"/>
					<path class="st8" d="M80.3,918.7c0.2,1,0,3.5-0.5,4.3c-0.7,0.1-1.4-0.4-1.7-1.1c-0.3-0.7-0.2-1.4-0.2-2.2
						c0.1-0.6,0.2-1.2,0.5-1.6c0.4-0.4,1.1-0.6,1.5-0.2C80.1,918.1,80.2,918.4,80.3,918.7z"/>
					<path class="st8" d="M87.2,915.4c-0.1,0.9-1.7,2.7-2.3,3.3c-0.4,0.3-1,0-1.2-0.4s-0.1-1,0-1.4c0.2-0.7,0.5-1.4,0.8-2.1
						c0.3-0.5,0.6-1,1.1-1.1C86.6,913.6,87.3,914.5,87.2,915.4z"/>
					<path class="st2" d="M78.2,927.4L78.2,927.4c0,0.2,0,0.3-0.1,0.3"/>
				</g>
			</g>
		</g>
	</g>
</g>
</svg>
