<?xml version="1.0" encoding="utf-8"?>
<!-- Generator: Adobe Illustrator 22.0.1, SVG Export Plug-In . SVG Version: 6.00 Build 0)  -->
<svg version="1.1" id="Layer_1" xmlns="http://www.w3.org/2000/svg" xmlns:xlink="http://www.w3.org/1999/xlink" x="0px" y="0px"
	 viewBox="0 0 750 1334" style="enable-background:new 0 0 750 1334;" xml:space="preserve">
<style type="text/css">
	.st0{clip-path:url(#SVGID_2_);}
	.st1{fill:#98C29C;}
	.st2{fill:#5E877E;}
	.st3{fill:#F8DA4B;}
	.st4{fill:none;}
</style>
<g id="Layer_2_1_">
	<g>
		<g>
			<defs>
				<rect id="SVGID_1_" width="750" height="1334"/>
			</defs>
			<clipPath id="SVGID_2_">
				<use xlink:href="#SVGID_1_"  style="overflow:visible;"/>
			</clipPath>
			<g class="st0">
				<path class="st1" d="M341.2,1133.9h6.1c0,0-0.4-11.4,3.2-16.1c0,0-2.5,3.6-3.2,5.4c0,0,0.7-7.5,1.1-7.9c0,0-2.5,5-3.6,10
					c0,0-1.1-12.5-0.4-13.9c0,0-2.5,6.4-1.4,12.1c0,0-2.5-8.2-5-9.6c0,0,3.2,6.4,3.2,10c0,0-2.9-5-3.9-4.6
					C337.2,1119.3,341.5,1125.3,341.2,1133.9"/>
				<path class="st2" d="M191.3,1097.4l5.9,1.3c0,0,2.2-11.2,6.7-15c0,0-3.2,2.9-4.3,4.5c0,0,2.4-7.2,2.8-7.4c0,0-3.5,4.3-5.7,9
					c0,0,1.7-12.4,2.7-13.7c0,0-3.9,5.7-4.1,11.5c0,0-0.6-8.6-2.7-10.5c0,0,1.7,7,0.9,10.5c0,0-1.7-5.5-2.8-5.4
					C190.7,1082.3,193.6,1089.1,191.3,1097.4"/>
				<path class="st3" d="M305.4,1231.9l-286-16.2v-170.6c43.6,6.6,107.8,21.5,185.5,55.5c148.2,64.7,212.2,4,302.9,39.9
					C598.5,1176.4,305.4,1231.9,305.4,1231.9z"/>
				<line class="st4" x1="-0.2" y1="1045.1" x2="-0.2" y2="1020.1"/>
				<path class="st1" d="M452,1156.7h5.4c0,0-0.5-19.5,3.6-23.6c0,0-4.1,3.6-5.4,9.5c0,0-0.9-10.9-0.5-13.2c0,0-3.2,5.4-2.3,12.7
					c0,0-1.4-7.3-5.9-8.6C447,1133.6,452.5,1139.9,452,1156.7"/>
				<path class="st1" d="M266.2,1150.3l6.1-0.3c0,0-0.9-11.4,2.4-16.2c0,0-2.3,3.7-3,5.5c0,0,0.4-7.5,0.7-7.9c0,0-2.3,5.1-3.1,10.2
					c0,0-1.7-12.4-1-13.9c0,0-2.2,6.5-0.8,12.2c0,0-2.9-8.1-5.5-9.4c0,0,3.5,6.3,3.7,9.8c0,0-3.1-4.9-4.1-4.4
					C261.6,1135.9,266.2,1141.7,266.2,1150.3"/>
				<path class="st2" d="M372.2,1183.4l4.7,0.4c0,0,0.4-8.8,3.4-12.2c0,0-2.1,2.6-2.8,3.9c0,0,1-5.7,1.3-6c0,0-2.2,3.7-3.4,7.5
					c0,0-0.1-9.7,0.6-10.8c0,0-2.3,4.8-1.8,9.3c0,0-1.4-6.5-3.3-7.7c0,0,2.1,5.2,1.9,7.9c0,0-1.9-4-2.8-3.8
					C370.1,1171.9,373,1176.8,372.2,1183.4"/>
			</g>
		</g>
	</g>
</g>
</svg>
