<?xml version="1.0" encoding="utf-8"?>
<!-- Generator: Adobe Illustrator 22.0.1, SVG Export Plug-In . SVG Version: 6.00 Build 0)  -->
<svg version="1.1" id="Layer_1" xmlns="http://www.w3.org/2000/svg" xmlns:xlink="http://www.w3.org/1999/xlink" x="0px" y="0px"
	 viewBox="0 0 750 1334" style="enable-background:new 0 0 750 1334;" xml:space="preserve">
<style type="text/css">
	.st0{clip-path:url(#SVGID_2_);}
	.st1{fill:#5E877E;}
	.st2{fill:#F5B843;}
	.st3{fill:none;}
	.st4{fill:none;stroke:#BF7C40;stroke-width:10.3424;stroke-linejoin:round;stroke-miterlimit:10;}
	.st5{fill:#A16C44;}
	.st6{fill:#4D4032;}
	.st7{fill:#775A41;}
	.st8{fill:#EBC081;}
	.st9{fill:#BF7C40;}
	.st10{fill:#B5BE6D;}
	.st11{fill:#98C29C;}
	.st12{fill:#F9DA4A;}
</style>
<g id="Layer_3">
	<g>
		<g>
			<defs>
				<rect id="SVGID_1_" width="750" height="1334"/>
			</defs>
			<clipPath id="SVGID_2_">
				<use xlink:href="#SVGID_1_"  style="overflow:visible;"/>
			</clipPath>
			<g class="st0">
				<path class="st1" d="M621,1056.3h6.1c0,0-0.4-11.4,3.2-16.1c0,0-2.5,3.6-3.2,5.4c0,0,0.7-7.5,1.1-7.9c0,0-2.5,5-3.6,10
					c0,0-1.1-12.5-0.4-13.9c0,0-2.5,6.4-1.4,12.1c0,0-2.5-8.2-5-9.6c0,0,3.2,6.4,3.2,10c0,0-2.9-5-3.9-4.6
					C617.1,1041.7,621.4,1047.8,621,1056.3"/>
				<path class="st2" d="M750.5,1030.2c0,0-99.3-5.6-247.6,77.8s-321.7-17.5-412.5,28.7c-50.5,25.7,51.7,66.4,152.4,97.4
					c95.4,29.4,195.4,40.7,295,33.6l212.5-15.3L750.5,1030.2z"/>
				<line class="st3" x1="-0.2" y1="1045.1" x2="-0.2" y2="1020.1"/>
				<g>
					<line class="st4" x1="443.5" y1="984.2" x2="477.7" y2="990.7"/>
					<g>
						<path class="st5" d="M497.5,1094.4c0.1,1.5,0.3,3.1,0.5,4.6c0.2,1.7,0.5,3.3,0.8,5c0.1,0.4,0.2,0.9,0.3,1.3
							c0,0.2,0.1,0.4,0.1,0.7v0.1c0,0.1,0.1,0.4,0.1,0.4c0.1,0.2,0.1,0.4,0.2,0.7c0.1,0.4,0.2,0.7,0.3,1.1c0.4,1.6,1,3.2,1.5,4.8
							l-6.2,0.6c-1.8-5.2-2.9-10.7-3.5-16.2c-0.1-0.8-0.2-1.5-0.2-2.3c-0.4-4.4-0.6-8.8-0.7-13.1c0-1.8-0.1-3.5-0.1-5.3
							c-0.1-7.3-0.4-14.7-0.7-22c-0.8-14.9-2.2-29.9-4.2-44.7c-0.2-1.7,1.1-3.1,2.7-3.3c1.7-0.2,3.1,1.1,3.3,2.7
							c1.1,8.3,2,16.6,2.8,24.9c1.3,14.7,1.9,29.4,2.2,44.1c0,1,0,1.9,0.1,2.9C496.9,1085.6,497.1,1090,497.5,1094.4z"/>
					</g>
					<g>
						<path class="st5" d="M515.3,1033.3c1.1,13.4,2.2,26.8,3.3,40.3c0.1,1.6,0.3,3.3,0.4,4.9l0,0c0.1,0.8,0.1,1.6,0.2,2.3
							c0.3,3.6,0.6,7.2,0.9,10.8c0.5,6.4,0.9,12.9,1.2,19.3l-6,0.6c-0.2-4.3-0.4-8.5-0.7-12.8c-0.2-2.1-0.3-4.3-0.5-6.4
							c-0.3-3.6-0.5-7.1-0.8-10.7c-0.1-0.8-0.1-1.6-0.2-2.4c-0.1-0.8-0.1-1.5-0.2-2.3c-0.6-7.7-1.3-15.3-1.9-23
							c-0.6-7.5-1.2-14.9-1.8-22.4c-0.3-3.7-0.6-7.4-1-11.1c-0.2-1.8-0.4-3.6-0.7-5.3c-0.2-1-0.3-1.9-0.6-2.9c0-0.2-0.1-0.4-0.1-0.6
							c0,0,0,0,0-0.1l0,0c-0.1-0.5-0.2-0.9-0.4-1.4c-0.5-1.6,0.1-3.2,1.7-3.9c1.4-0.6,3.5,0.2,3.9,1.7
							C514.3,1016.3,514.6,1024.9,515.3,1033.3z"/>
					</g>
					<g>
						<path class="st6" d="M547.1,1120.9L547.1,1120.9C547.1,1121.3,546.9,1120.4,547.1,1120.9L547.1,1120.9z"/>
						<path class="st6" d="M547.1,1028.6c0.1,1.4,0.1,2.8,0.2,4.2c0.2,6.4,0.2,12.7,0.2,19.1c0,1.6,0,3.2,0,4.8l0,0
							c0,3.8,0,7.7,0,11.5c0,2.3,0,4.7,0,7c0,0.1,0,0.2,0,0.2c0,0.6,0,1.1,0,1.7c0,3.8,0,7.6,0,11.3c0,6.7,0,13.3,0,20l-6,0.6
							c0-4.1,0-8.2,0-12.3c0-2.5,0-5.1,0-7.6c0-3.7,0-7.5,0-11.2v-2c0-2.4,0-4.7,0-7.1c0-6.3,0-12.7,0-19c0-6.7,0-13.4-0.3-20.1l0,0
							c-0.4-8.7-1.2-17.4-3.2-26c-0.4-1.7,1.2-3.1,2.7-3.3c0.4-0.1,0.9,0,1.3,0.2c0.4,0.1,0.7,0.3,0.9,0.5c0.7,0.6,0.9,1.2,1.1,2
							C545.8,1011.4,546.7,1020,547.1,1028.6z"/>
					</g>
					<g>
						<path class="st7" d="M576.7,1109.2c0,0.1,0,0.2-0.1,0.3C576.6,1109.4,576.7,1109.3,576.7,1109.2z"/>
						<path class="st7" d="M576.7,1109.2L576.7,1109.2L576.7,1109.2L576.7,1109.2z"/>
						<path class="st7" d="M576.8,1108.7c0,0.1,0,0.2,0,0.2C576.8,1108.8,576.8,1108.7,576.8,1108.7z"/>
						<path class="st7" d="M570.3,1015.5c0.1,2.4,0.4,4.8,0.7,7.1c1.4,9.7,3,19.4,4.4,29.2c0.6,4.4,1.2,8.9,1.8,13.3
							c0.3,2.1,0.5,4.2,0.8,6.3c0.1,0.5,0.1,0.9,0.2,1.4c0.3,2.8,0.7,5.6,1,8.4c0.1,1.1,0.3,2.2,0.4,3.3c0.8,6.8,1.5,13.6,2.2,20.4
							c0,0.3,0.1,0.6,0.1,0.8c-0.3-0.3-0.7-0.6-1.1-0.7l-5,0.5c-0.7-6.8-1.4-13.5-2.2-20.3c-0.3-2.3-0.5-4.6-0.8-6.9
							c-0.2-1.6-0.4-3.1-0.6-4.7c-0.1-0.5-0.1-1-0.2-1.5c-0.3-2.1-0.5-4.3-0.8-6.4c-0.7-5.6-1.5-11.1-2.3-16.7
							c-0.7-4.9-1.4-9.8-2.2-14.7c-0.7-4.8-1.6-9.5-2.1-14.4s-0.4-9.8,0.4-14.6c0.4-2.3,0.9-4.6,1.2-6.9c0.2-1.2,0.3-2.3,0.4-3.5
							c0-0.6,0.1-1.1,0.1-1.7c0-0.1,0-0.4,0-0.5c0-0.3,0-0.6,0-0.8c0-4.7-0.6-9.4-1.5-14c-0.2-1.2-0.5-2.3-0.7-3.5
							c-0.1-0.3-0.1-0.7-0.2-1c0-0.1-0.1-0.2-0.1-0.3V973l0,0l0,0l0,0c-0.1-0.5-0.2-1-0.4-1.5c-0.6-2.3-1.2-4.6-1.8-6.9
							c-0.4-1.6,0.1-3.2,1.7-3.9c1.4-0.6,3.5,0.2,3.9,1.7c0.3,1.1,0.6,2.3,0.9,3.4c2.5,9.5,4.7,19.2,4.1,29.2
							c-0.3,4.7-1.5,9.3-2.1,13.9c-0.1,1.1-0.2,2.2-0.3,3.3l0,0l0,0c0,0,0,0,0,0.1l0,0c0,0.2,0,0.4,0,0.5c0,0.3,0,0.6,0,0.9
							C570.2,1014.4,570.3,1014.9,570.3,1015.5z"/>
					</g>
					<g>
						<path class="st6" d="M602.7,974.8c-1.1,10-2.3,19.9-3.4,29.9c-0.2,2.2-0.4,4.4-0.6,6.6c0,0.4,0,0.7-0.1,1.1c0,0,0,0.1,0,0.2
							l0,0l0,0l0,0l0,0l0,0l0,0l0,0l0,0l0,0l0,0l0,0c0,0.4,0,0.7,0,1.1c0,1.1,0,2.1,0,3.2c0.2,4.5,0.8,8.9,1.5,13.4
							c1.2,8.8,2.3,17.7,3.3,26.5c0.2,1.8,0.4,3.6,0.6,5.4c0.2,1.9,0.4,3.9,0.6,5.8c0,0.3,0.1,0.6,0.1,0.9c0.4,4,0.9,8.1,1.3,12.1
							c0.7,7,1.4,14,2,21l-6,0.6c-0.6-7-1.3-13.9-2-20.8l-0.1-0.8c-0.4-3.7-0.8-7.5-1.2-11.2c0-0.3-0.1-0.7-0.1-1
							c-0.2-2-0.4-3.9-0.7-5.9c-1.3-11.8-2.8-23.6-4.4-35.4c-0.6-4.4-1.1-8.9-1-13.3c0.1-4.5,0.5-9,1-13.5c1-9,2-18,3.1-27
							c0.2-1.7,1.9-2.7,3.5-2.5C601.9,971.5,602.9,973.2,602.7,974.8z"/>
					</g>
					<g>
						<path class="st7" d="M695.7,1093.3l-9.1,0.9c-1.3-7.4-2.6-14.8-3.7-22.3c-0.4-2.7-0.9-5.4-1.3-8.2c-0.3-1.7-0.5-3.5-0.8-5.2
							v-0.1c-0.2-1.3-0.4-2.6-0.6-3.9c-0.9-6.5-1.8-13-2.9-19.4c-0.8-4.7-1.9-9.3-3-13.9c-1.1-4.8-1.9-9.5-2.5-14.4
							c-1.1-9.6-2-19.2-2.9-28.9c-1-9.7-1.9-19.5-2.9-29.2c-0.3-2.5,1.6-4.6,4.1-5c2.4-0.4,4.7,1.7,5,4.1
							c1.1,10.9,2.2,21.8,3.3,32.7c0.5,4.8,1,9.6,1.4,14.5c0.5,4.8,0.9,9.6,1.6,14.4c0.7,4.7,1.7,9.3,2.8,14
							c1.1,4.7,2.1,9.5,2.9,14.3c0.8,5.3,1.6,10.6,2.4,15.9c0.2,1.2,0.3,2.3,0.5,3.5c0,0.1,0,0.1,0,0.2c0.4,3,0.9,6,1.4,9
							c0.2,1.5,0.5,3,0.7,4.5C693.1,1078.4,694.4,1085.9,695.7,1093.3z"/>
					</g>
					<g>
						<path class="st6" d="M691.4,953.3c1.2,4.4,2.3,8.9,3.4,13.4c-0.1-0.5-0.2-0.9-0.3-1.4c1.8,7.7,3.3,15.4,4.1,23.2
							s1.2,15.7,1.5,23.5s0.5,15.7,1.1,23.5s1.5,15.6,2.8,23.3c1.4,8.8,3.2,17.5,5,26.2c0.3,1.4,0.8,2.6,1.9,3.6
							c1,0.8,2.6,1.4,3.9,1.2c1.4-0.2,2.7-0.8,3.6-1.9c0.8-1.1,1.4-2.5,1.2-3.9c-1.8-8.7-3.5-17.4-5-26.2c-1.4-8.7-2.4-17.4-3-26.1
							c-1.1-17.5-0.7-35.1-3.5-52.4c-1.6-10.1-4.2-20-6.8-29.8c-0.3-1.2-1.7-2.4-2.7-2.9c-1.2-0.5-2.9-0.7-4.1-0.1
							c-1.2,0.5-2.4,1.5-2.9,2.7c-0.1,0.4-0.3,0.9-0.4,1.3C690.9,951.5,691,952.4,691.4,953.3L691.4,953.3z"/>
					</g>
					<path class="st7" d="M512,957l-13.7-5.1l19.9-10.8l-0.2-2.3l44.1-26l132.9,3.7c0,0,36.5,29.8,70.9,32.2l0.6,5.6
						c0,0-36-2.3-50.6-2.9v4.7L573,933.7l-19.4,11l41.4,25.4l-70.2,46.8l-50.4,2l21.1-19.8l-28.7-9C466.9,990.1,510.6,961.5,512,957
						z"/>
					<polygon class="st6" points="502.1,1083.2 523.8,1070.5 715.7,1051.1 715.7,1053.8 					"/>
					<g>
						
							<rect x="479.4" y="1071.8" transform="matrix(0.9927 -0.1204 0.1204 0.9927 -125.6628 77.0015)" class="st5" width="189.9" height="13.1"/>
					</g>
					<polygon class="st5" points="715.8,956 579.5,980.4 584.4,972.2 715.9,951.4 					"/>
					<polygon class="st5" points="565.6,966.6 568.3,973.9 670.3,947.2 658.8,943.4 					"/>
					<line class="st4" x1="449.3" y1="1011.7" x2="578.1" y2="930.8"/>
					<polygon class="st7" points="667.8,1060.5 669.4,1073.6 719.1,1067.8 715.7,1053.3 					"/>
					<polygon class="st8" points="465.5,976.7 466,981.4 563,922.2 689.8,927 688.2,921 561.4,917 					"/>
					<g>
						<path class="st9" d="M677.1,1095.2l-12,1.2c-1.9-7.2-3.8-14.4-5.7-21.7c-0.8-3-1.5-6-2.2-9c-0.3-1.2-0.6-2.5-0.9-3.7v-0.1
							c-0.4-1.6-0.7-3.1-1.1-4.7c-3.8-16.7-6.9-33.6-10.2-50.4c-1.9-9.6-3.9-19.3-5.6-29c-0.8-4.6-1.4-9.3-1.9-13.9
							c-0.4-4-0.7-8-1.5-12c-0.5-2-1.2-3.9-2.1-5.7c-0.3-0.5-0.6-0.9-0.9-1.4c-1.9-2.8,0.8-2.9,3.5-5c2.5-2,4.8-2.4,6.6,0.2
							c5.3,7.6,5.8,14.5,6.6,23.4c0.8,8.2,2.3,16.3,3.9,24.4c1.6,8.4,3.3,16.7,4.9,25.1c2.8,14.4,5.5,28.7,8.8,43
							c0.3,1.5,0.7,2.9,1,4.4c0,0,0,0,0,0.1c0.1,0.5,0.2,1,0.3,1.4c0.9,3.8,1.9,7.6,2.9,11.4c1.7,6.6,3.5,13.3,5.2,19.9
							C677,1093.9,677.1,1094.5,677.1,1095.2z"/>
					</g>
					<path class="st5" d="M515.5,969.1c0,0,57.5-6,72-14.1s71-14.1,71-14.1l-13.1-4.6l-106.7,16.5L515.5,969.1z"/>
					<g>
						<path class="st9" d="M568.5,1106.2l-10.7,1.1c0.3-6.6-0.8-13.3-2.3-19.9c-0.9-3.7-1.9-7.4-2.9-11.1c-0.1-0.3-0.2-0.7-0.3-1
							s-0.1-0.5-0.2-0.8c-0.2-0.9-0.5-1.7-0.7-2.6c-0.4-1.4-0.8-2.8-1.1-4.1c-1-3.7-1.9-7.5-2.9-11.2l0,0c-2.2-9.1-4.3-18.1-6.4-27
							l0,0c0-0.2-0.1-0.4-0.1-0.6c-1.2-5.2-2.4-10.5-3.1-16c-0.2-1.8-0.4-3.7-0.6-5.5c-0.4-4.2-0.7-8.2-1.8-11.8c-0.9-3-2.4-6-4-9.1
							c-2.9-5.8-5.9-11.8-5.9-19v-5.3l10.6,0.1v5.3c0,4.6,2.3,9.3,4.7,14.2c1.7,3.4,3.4,6.9,4.6,10.7c1.4,4.7,1.9,9.4,2.3,14
							c0.2,1.8,0.3,3.4,0.5,5.1c0.6,4.9,1.8,10,2.9,14.9c3,13.2,6.2,26.9,9.7,40.2c0.2,0.8,0.4,1.6,0.7,2.4c0.3,1.1,0.6,2.2,0.9,3.3
							c0.1,0.3,0.2,0.5,0.2,0.8c0.2,0.5,0.3,1.1,0.4,1.6c1,3.7,2,7.4,2.9,11.2C567.6,1092.6,568.6,1099.3,568.5,1106.2z"/>
					</g>
					
						<rect x="434.7" y="893.2" transform="matrix(0.9949 -0.1008 0.1008 0.9949 -97.4547 66.2344)" class="st3" width="343.9" height="208.6"/>
				</g>
				<path class="st1" d="M731.2,1077l4.3,0.5c0,0,1.3-15.3,4.9-18.1c0,0-3.5,2.5-5.1,7c0,0,0.2-8.6,0.8-10.3c0,0-3,4-2.9,9.7
					c0,0-0.4-5.8-3.9-7.3C729.3,1058.5,733,1063.9,731.2,1077"/>
				<path class="st10" d="M495,1114l6.7-0.9c0,0-6.6-10.2-5.5-14.4c0,0-0.5,3.5-0.1,5.3c0,0-3.7-5.3-2.2-8.9c0,0-1.4,2.7-0.3,8.6
					c0,0-4.7-6.4-5.3-8.5c0,0,0.3,4.3,3.3,9.1c0,0-4.3-3.8-7.9-4.4c0,0,5.4,4.1,6.8,6.9c0,0-3.3-1.9-5.1-1.8c0,0,5.4,2.4,7.3,5.1
					C494.4,1112.7,495,1114,495,1114"/>
				<path class="st11" d="M725.3,1035.9h6.1c0,0-0.4-11.4,3.2-16.1c0,0-2.5,3.6-3.2,5.4c0,0,0.7-7.5,1.1-7.9c0,0-2.5,5-3.6,10
					c0,0-1.1-12.5-0.4-13.9c0,0-2.5,6.4-1.4,12.1c0,0-2.5-8.2-5-9.6c0,0,3.2,6.4,3.2,10c0,0-2.9-5-3.9-4.6
					C721.4,1021.3,725.7,1027.4,725.3,1035.9"/>
				<g>
					<g>
						<path class="st12" d="M736.9,1139.2c7.7,0,7.7-12,0-12S729.2,1139.2,736.9,1139.2L736.9,1139.2z"/>
					</g>
				</g>
				<g>
					<g>
						<path class="st12" d="M736.9,1241.4c5.8,0,5.8-9,0-9C731.1,1232.4,731.1,1241.4,736.9,1241.4L736.9,1241.4z"/>
					</g>
				</g>
				<g>
					<g>
						<path class="st12" d="M717.2,1175.5c5.8,0,5.8-9,0-9S711.4,1175.5,717.2,1175.5L717.2,1175.5z"/>
					</g>
				</g>
				<g>
					<g>
						<path class="st12" d="M722,1215.7c9.7,0,9.7-15,0-15S712.3,1215.7,722,1215.7L722,1215.7z"/>
					</g>
				</g>
				<g>
					<g>
						<path class="st12" d="M672.8,1239c5.8,0,5.8-9,0-9C667.1,1230,667,1239,672.8,1239L672.8,1239z"/>
					</g>
				</g>
				<g>
					<g>
						<path class="st12" d="M669.3,1171c7.7,0,7.7-12,0-12C661.5,1159,661.5,1171,669.3,1171L669.3,1171z"/>
					</g>
				</g>
				<g>
					<g>
						<path class="st12" d="M624.3,1164.2c5.8,0,5.8-9,0-9S618.5,1164.2,624.3,1164.2L624.3,1164.2z"/>
					</g>
				</g>
				<g>
					<g>
						<path class="st12" d="M559.7,1251.6c5.8,0,5.8-9,0-9S553.9,1251.6,559.7,1251.6L559.7,1251.6z"/>
					</g>
				</g>
				<g>
					<g>
						<path class="st12" d="M604.6,1220.8c7.7,0,7.7-12,0-12C596.8,1208.8,596.8,1220.8,604.6,1220.8L604.6,1220.8z"/>
					</g>
				</g>
				<g>
					<g>
						<path class="st12" d="M494.4,1261.5c7.7,0,7.7-12,0-12C486.6,1249.5,486.6,1261.5,494.4,1261.5L494.4,1261.5z"/>
					</g>
				</g>
				<g>
					<g>
						<path class="st12" d="M704.6,1105.5c5.8,0,5.8-9,0-9S698.8,1105.5,704.6,1105.5L704.6,1105.5z"/>
					</g>
				</g>
			</g>
		</g>
	</g>
</g>
</svg>
