<?xml version="1.0" encoding="utf-8"?>
<!-- Generator: Adobe Illustrator 22.0.1, SVG Export Plug-In . SVG Version: 6.00 Build 0)  -->
<svg version="1.1" xmlns="http://www.w3.org/2000/svg" xmlns:xlink="http://www.w3.org/1999/xlink" x="0px" y="0px"
	 viewBox="0 0 750 1334" style="enable-background:new 0 0 750 1334;" xml:space="preserve">
<style type="text/css">
	.st0{display:none;}
	.st1{display:inline;}
	.st2{clip-path:url(#SVGID_2_);}
	.st3{fill:#5E877E;}
	.st4{fill:#F5B843;}
	.st5{fill:none;}
	.st6{fill:none;stroke:#BF7C40;stroke-width:10.3424;stroke-linejoin:round;stroke-miterlimit:10;}
	.st7{fill:#A16C44;}
	.st8{fill:#4D4032;}
	.st9{fill:#775A41;}
	.st10{fill:#EBC081;}
	.st11{fill:#BF7C40;}
	.st12{fill:#B5BE6D;}
	.st13{fill:#98C29C;}
	.st14{fill:#F9DA4A;}
	.st15{clip-path:url(#SVGID_4_);}
	.st16{fill:#F8DA4B;}
	.st17{clip-path:url(#SVGID_6_);}
	.st18{fill:#F5D068;}
	.st19{fill:#89BE86;}
	.st20{fill:#FCBC03;}
	.st21{fill:#F3D261;}
	.st22{fill:none;stroke:#000000;stroke-width:1.3242;stroke-linecap:round;stroke-linejoin:round;stroke-miterlimit:10;}
	.st23{fill:#FBCF66;}
	.st24{fill:#E9DB82;}
	.st25{clip-path:url(#SVGID_8_);}
	.st26{clip-path:url(#SVGID_10_);}
	.st27{clip-path:url(#SVGID_12_);}
	.st28{fill:#77A275;}
	.st29{clip-path:url(#SVGID_14_);}
	.st30{fill:#D75B4D;}
	.st31{clip-path:url(#SVGID_16_);}
	.st32{fill:#537D41;}
	.st33{fill:#478A71;}
</style>
<g id="Layer_3" class="st0">
	<g class="st1">
		<defs>
			<rect id="SVGID_1_" width="750" height="1334"/>
		</defs>
		<clipPath id="SVGID_2_">
			<use xlink:href="#SVGID_1_"  style="overflow:visible;"/>
		</clipPath>
		<g class="st2">
			<path class="st3" d="M621,1056.3h6.1c0,0-0.4-11.4,3.2-16.1c0,0-2.5,3.6-3.2,5.4c0,0,0.7-7.5,1.1-7.9c0,0-2.5,5-3.6,10
				c0,0-1.1-12.5-0.4-13.9c0,0-2.5,6.4-1.4,12.1c0,0-2.5-8.2-5-9.6c0,0,3.2,6.4,3.2,10c0,0-2.9-5-3.9-4.6
				C617.1,1041.7,621.4,1047.8,621,1056.3"/>
			<path class="st4" d="M750.5,1030.2c0,0-99.3-5.6-247.6,77.8c-148.3,83.4-321.7-17.5-412.5,28.7c-50.5,25.7,51.7,66.4,152.4,97.4
				c95.4,29.4,195.4,40.7,295,33.6l212.5-15.3L750.5,1030.2z"/>
			<line class="st5" x1="-0.2" y1="1045.1" x2="-0.2" y2="1020.1"/>
			<g>
				<line class="st6" x1="443.5" y1="984.2" x2="477.7" y2="990.7"/>
				<g>
					<path class="st7" d="M497.5,1094.4c0.1,1.5,0.3,3.1,0.5,4.6c0.2,1.7,0.5,3.3,0.8,5c0.1,0.4,0.2,0.9,0.3,1.3
						c0,0.2,0.1,0.4,0.1,0.7c0,0,0,0.1,0,0.1c0,0.1,0.1,0.4,0.1,0.4c0.1,0.2,0.1,0.4,0.2,0.7c0.1,0.4,0.2,0.7,0.3,1.1
						c0.4,1.6,1,3.2,1.5,4.8l-6.2,0.6c-1.8-5.2-2.9-10.7-3.5-16.2c-0.1-0.8-0.2-1.5-0.2-2.3c-0.4-4.4-0.6-8.8-0.7-13.1
						c0-1.8-0.1-3.5-0.1-5.3c-0.1-7.3-0.4-14.7-0.7-22c-0.8-14.9-2.2-29.9-4.2-44.7c-0.2-1.7,1.1-3.1,2.7-3.3
						c1.7-0.2,3.1,1.1,3.3,2.7c1.1,8.3,2,16.6,2.8,24.9c1.3,14.7,1.9,29.4,2.2,44.1c0,1,0,1.9,0.1,2.9
						C496.9,1085.6,497.1,1090,497.5,1094.4z"/>
				</g>
				<g>
					<path class="st7" d="M515.3,1033.3c1.1,13.4,2.2,26.8,3.3,40.3c0.1,1.6,0.3,3.3,0.4,4.9l0,0c0.1,0.8,0.1,1.6,0.2,2.3
						c0.3,3.6,0.6,7.2,0.9,10.8c0.5,6.4,0.9,12.9,1.2,19.3l-6,0.6c-0.2-4.3-0.4-8.5-0.7-12.8c-0.2-2.1-0.3-4.3-0.5-6.4
						c-0.3-3.6-0.5-7.1-0.8-10.7c-0.1-0.8-0.1-1.6-0.2-2.4c-0.1-0.8-0.1-1.5-0.2-2.3c-0.6-7.7-1.3-15.3-1.9-23
						c-0.6-7.5-1.2-14.9-1.8-22.4c-0.3-3.7-0.6-7.4-1-11.1c-0.2-1.8-0.4-3.6-0.7-5.3c-0.2-1-0.3-1.9-0.6-2.9c0-0.2-0.1-0.4-0.1-0.6
						c0,0,0,0,0-0.1c0,0,0,0,0,0c-0.1-0.5-0.2-0.9-0.4-1.4c-0.5-1.6,0.1-3.2,1.7-3.9c1.4-0.6,3.5,0.2,3.9,1.7
						C514.3,1016.3,514.6,1024.9,515.3,1033.3z"/>
				</g>
				<g>
					<path class="st8" d="M547.1,1120.9L547.1,1120.9C547.1,1121.3,546.9,1120.4,547.1,1120.9
						C547.1,1120.9,547.1,1120.9,547.1,1120.9z"/>
					<path class="st8" d="M547.1,1028.6c0.1,1.4,0.1,2.8,0.2,4.2c0.2,6.4,0.2,12.7,0.2,19.1c0,1.6,0,3.2,0,4.8l0,0
						c0,3.8,0,7.7,0,11.5c0,2.3,0,4.7,0,7c0,0.1,0,0.2,0,0.2c0,0.6,0,1.1,0,1.7c0,3.8,0,7.6,0,11.3c0,6.7,0,13.3,0,20l-6,0.6
						c0-4.1,0-8.2,0-12.3c0-2.5,0-5.1,0-7.6c0-3.7,0-7.5,0-11.2l0-2c0-2.4,0-4.7,0-7.1c0-6.3,0-12.7,0-19c0-6.7,0-13.4-0.3-20.1l0,0
						c-0.4-8.7-1.2-17.4-3.2-26c-0.4-1.7,1.2-3.1,2.7-3.3c0.4-0.1,0.9,0,1.3,0.2c0.4,0.1,0.7,0.3,0.9,0.5c0.7,0.6,0.9,1.2,1.1,2
						C545.8,1011.4,546.7,1020,547.1,1028.6z"/>
				</g>
				<g>
					<path class="st9" d="M576.7,1109.2c0,0.1,0,0.2-0.1,0.3C576.6,1109.4,576.7,1109.3,576.7,1109.2z"/>
					<path class="st9" d="M576.7,1109.2C576.7,1109.2,576.7,1109.2,576.7,1109.2C576.7,1109.2,576.7,1109.2,576.7,1109.2
						C576.7,1109.2,576.7,1109.2,576.7,1109.2z"/>
					<path class="st9" d="M576.8,1108.7c0,0.1,0,0.2,0,0.2C576.8,1108.8,576.8,1108.7,576.8,1108.7z"/>
					<path class="st9" d="M570.3,1015.5c0.1,2.4,0.4,4.8,0.7,7.1c1.4,9.7,3,19.4,4.4,29.2c0.6,4.4,1.2,8.9,1.8,13.3
						c0.3,2.1,0.5,4.2,0.8,6.3c0.1,0.5,0.1,0.9,0.2,1.4c0.3,2.8,0.7,5.6,1,8.4c0.1,1.1,0.3,2.2,0.4,3.3c0.8,6.8,1.5,13.6,2.2,20.4
						c0,0.3,0.1,0.6,0.1,0.8c-0.3-0.3-0.7-0.6-1.1-0.7l-5,0.5c-0.7-6.8-1.4-13.5-2.2-20.3c-0.3-2.3-0.5-4.6-0.8-6.9
						c-0.2-1.6-0.4-3.1-0.6-4.7c-0.1-0.5-0.1-1-0.2-1.5c-0.3-2.1-0.5-4.3-0.8-6.4c-0.7-5.6-1.5-11.1-2.3-16.7
						c-0.7-4.9-1.4-9.8-2.2-14.7c-0.7-4.8-1.6-9.5-2.1-14.4c-0.5-4.9-0.4-9.8,0.4-14.6c0.4-2.3,0.9-4.6,1.2-6.9
						c0.2-1.2,0.3-2.3,0.4-3.5c0-0.6,0.1-1.1,0.1-1.7c0-0.1,0-0.4,0-0.5c0-0.3,0-0.6,0-0.8c0-4.7-0.6-9.4-1.5-14
						c-0.2-1.2-0.5-2.3-0.7-3.5c-0.1-0.3-0.1-0.7-0.2-1c0-0.1-0.1-0.2-0.1-0.3c0,0,0-0.1,0-0.1c0,0,0,0,0,0c0,0,0,0,0,0c0,0,0,0,0,0
						c-0.1-0.5-0.2-1-0.4-1.5c-0.6-2.3-1.2-4.6-1.8-6.9c-0.4-1.6,0.1-3.2,1.7-3.9c1.4-0.6,3.5,0.2,3.9,1.7c0.3,1.1,0.6,2.3,0.9,3.4
						c2.5,9.5,4.7,19.2,4.1,29.2c-0.3,4.7-1.5,9.3-2.1,13.9c-0.1,1.1-0.2,2.2-0.3,3.3c0,0,0,0,0,0l0,0c0,0,0,0,0,0.1c0,0,0,0,0,0
						c0,0.2,0,0.4,0,0.5c0,0.3,0,0.6,0,0.9C570.2,1014.4,570.3,1014.9,570.3,1015.5z"/>
				</g>
				<g>
					<path class="st8" d="M602.7,974.8c-1.1,10-2.3,19.9-3.4,29.9c-0.2,2.2-0.4,4.4-0.6,6.6c0,0.4,0,0.7-0.1,1.1c0,0,0,0.1,0,0.2
						l0,0c0,0,0,0,0,0c0,0,0,0,0,0c0,0,0,0,0,0c0,0,0,0,0,0l0,0c0,0,0,0,0,0c0,0,0,0,0,0c0,0,0,0,0,0c0,0,0,0,0,0c0,0,0,0,0,0
						c0,0.4,0,0.7,0,1.1c0,1.1,0,2.1,0,3.2c0.2,4.5,0.8,8.9,1.5,13.4c1.2,8.8,2.3,17.7,3.3,26.5c0.2,1.8,0.4,3.6,0.6,5.4
						c0.2,1.9,0.4,3.9,0.6,5.8c0,0.3,0.1,0.6,0.1,0.9c0.4,4,0.9,8.1,1.3,12.1c0.7,7,1.4,14,2,21l-6,0.6c-0.6-7-1.3-13.9-2-20.8
						l-0.1-0.8c-0.4-3.7-0.8-7.5-1.2-11.2c0-0.3-0.1-0.7-0.1-1c-0.2-2-0.4-3.9-0.7-5.9c-1.3-11.8-2.8-23.6-4.4-35.4
						c-0.6-4.4-1.1-8.9-1-13.3c0.1-4.5,0.5-9,1-13.5c1-9,2-18,3.1-27c0.2-1.7,1.9-2.7,3.5-2.5C601.9,971.5,602.9,973.2,602.7,974.8z
						"/>
				</g>
				<g>
					<path class="st9" d="M695.7,1093.3l-9.1,0.9c-1.3-7.4-2.6-14.8-3.7-22.3c-0.4-2.7-0.9-5.4-1.3-8.2c-0.3-1.7-0.5-3.5-0.8-5.2
						l0-0.1c-0.2-1.3-0.4-2.6-0.6-3.9c-0.9-6.5-1.8-13-2.9-19.4c-0.8-4.7-1.9-9.3-3-13.9c-1.1-4.8-1.9-9.5-2.5-14.4
						c-1.1-9.6-2-19.2-2.9-28.9c-1-9.7-1.9-19.5-2.9-29.2c-0.3-2.5,1.6-4.6,4.1-5c2.4-0.4,4.7,1.7,5,4.1c1.1,10.9,2.2,21.8,3.3,32.7
						c0.5,4.8,1,9.6,1.4,14.5c0.5,4.8,0.9,9.6,1.6,14.4c0.7,4.7,1.7,9.3,2.8,14c1.1,4.7,2.1,9.5,2.9,14.3c0.8,5.3,1.6,10.6,2.4,15.9
						c0.2,1.2,0.3,2.3,0.5,3.5c0,0.1,0,0.1,0,0.2c0.4,3,0.9,6,1.4,9c0.2,1.5,0.5,3,0.7,4.5C693.1,1078.4,694.4,1085.9,695.7,1093.3z
						"/>
				</g>
				<g>
					<path class="st8" d="M691.4,953.3c1.2,4.4,2.3,8.9,3.4,13.4c-0.1-0.5-0.2-0.9-0.3-1.4c1.8,7.7,3.3,15.4,4.1,23.2
						c0.8,7.8,1.2,15.7,1.5,23.5c0.3,7.8,0.5,15.7,1.1,23.5c0.6,7.8,1.5,15.6,2.8,23.3c1.4,8.8,3.2,17.5,5,26.2
						c0.3,1.4,0.8,2.6,1.9,3.6c1,0.8,2.6,1.4,3.9,1.2c1.4-0.2,2.7-0.8,3.6-1.9c0.8-1.1,1.4-2.5,1.2-3.9c-1.8-8.7-3.5-17.4-5-26.2
						c-1.4-8.7-2.4-17.4-3-26.1c-1.1-17.5-0.7-35.1-3.5-52.4c-1.6-10.1-4.2-20-6.8-29.8c-0.3-1.2-1.7-2.4-2.7-2.9
						c-1.2-0.5-2.9-0.7-4.1-0.1c-1.2,0.5-2.4,1.5-2.9,2.7c-0.1,0.4-0.3,0.9-0.4,1.3C690.9,951.5,691,952.4,691.4,953.3L691.4,953.3z
						"/>
				</g>
				<path class="st9" d="M512,957l-13.7-5.1l19.9-10.8l-0.2-2.3l44.1-26l132.9,3.7c0,0,36.5,29.8,70.9,32.2l0.6,5.6
					c0,0-36-2.3-50.6-2.9l0,4.7L573,933.7l-19.4,11l41.4,25.4l-70.2,46.8l-50.4,2l21.1-19.8l-28.7-9
					C466.9,990.1,510.6,961.5,512,957z"/>
				<polygon class="st8" points="502.1,1083.2 523.8,1070.5 715.7,1051.1 715.7,1053.8 				"/>
				<g>
					
						<rect x="479.4" y="1071.9" transform="matrix(0.9927 -0.1204 0.1204 0.9927 -125.6289 76.9634)" class="st7" width="189.9" height="13.1"/>
				</g>
				<polygon class="st7" points="715.8,956 579.5,980.4 584.4,972.2 715.9,951.4 				"/>
				<polygon class="st7" points="565.6,966.6 568.3,973.9 670.3,947.2 658.8,943.4 				"/>
				<line class="st6" x1="449.3" y1="1011.7" x2="578.1" y2="930.8"/>
				<polygon class="st9" points="667.8,1060.5 669.4,1073.6 719.1,1067.8 715.7,1053.3 				"/>
				<polygon class="st10" points="465.5,976.7 466,981.4 563,922.2 689.8,927 688.2,921 561.4,917 				"/>
				<g>
					<path class="st11" d="M677.1,1095.2l-12,1.2c-1.9-7.2-3.8-14.4-5.7-21.7c-0.8-3-1.5-6-2.2-9c-0.3-1.2-0.6-2.5-0.9-3.7
						c0,0,0-0.1,0-0.1c-0.4-1.6-0.7-3.1-1.1-4.7c-3.8-16.7-6.9-33.6-10.2-50.4c-1.9-9.6-3.9-19.3-5.6-29c-0.8-4.6-1.4-9.3-1.9-13.9
						c-0.4-4-0.7-8-1.5-12c-0.5-2-1.2-3.9-2.1-5.7c-0.3-0.5-0.6-0.9-0.9-1.4c-1.9-2.8,0.8-2.9,3.5-5c2.5-2,4.8-2.4,6.6,0.2
						c5.3,7.6,5.8,14.5,6.6,23.4c0.8,8.2,2.3,16.3,3.9,24.4c1.6,8.4,3.3,16.7,4.9,25.1c2.8,14.4,5.5,28.7,8.8,43
						c0.3,1.5,0.7,2.9,1,4.4c0,0,0,0,0,0.1c0.1,0.5,0.2,1,0.3,1.4c0.9,3.8,1.9,7.6,2.9,11.4c1.7,6.6,3.5,13.3,5.2,19.9
						C677,1093.9,677.1,1094.5,677.1,1095.2z"/>
				</g>
				<path class="st7" d="M515.5,969.1c0,0,57.5-6,72-14.1s71-14.1,71-14.1l-13.1-4.6l-106.7,16.5L515.5,969.1z"/>
				<g>
					<path class="st11" d="M568.5,1106.2l-10.7,1.1c0.3-6.6-0.8-13.3-2.3-19.9c-0.9-3.7-1.9-7.4-2.9-11.1c-0.1-0.3-0.2-0.7-0.3-1
						c-0.1-0.3-0.1-0.5-0.2-0.8c-0.2-0.9-0.5-1.7-0.7-2.6c-0.4-1.4-0.8-2.8-1.1-4.1c-1-3.7-1.9-7.5-2.9-11.2l0,0
						c-2.2-9.1-4.3-18.1-6.4-27l0,0c0-0.2-0.1-0.4-0.1-0.6c-1.2-5.2-2.4-10.5-3.1-16c-0.2-1.8-0.4-3.7-0.6-5.5
						c-0.4-4.2-0.7-8.2-1.8-11.8c-0.9-3-2.4-6-4-9.1c-2.9-5.8-5.9-11.8-5.9-19l0-5.3l10.6,0.1l0,5.3c0,4.6,2.3,9.3,4.7,14.2
						c1.7,3.4,3.4,6.9,4.6,10.7c1.4,4.7,1.9,9.4,2.3,14c0.2,1.8,0.3,3.4,0.5,5.1c0.6,4.9,1.8,10,2.9,14.9c3,13.2,6.2,26.9,9.7,40.2
						c0.2,0.8,0.4,1.6,0.7,2.4c0.3,1.1,0.6,2.2,0.9,3.3c0.1,0.3,0.2,0.5,0.2,0.8c0.2,0.5,0.3,1.1,0.4,1.6c1,3.7,2,7.4,2.9,11.2
						C567.6,1092.6,568.6,1099.3,568.5,1106.2z"/>
				</g>
				
					<rect x="434.7" y="893.2" transform="matrix(0.9949 -0.1008 0.1008 0.9949 -97.4218 66.1983)" class="st5" width="343.9" height="208.6"/>
			</g>
			<path class="st3" d="M731.2,1077l4.3,0.5c0,0,1.3-15.3,4.9-18.1c0,0-3.5,2.5-5.1,7c0,0,0.2-8.6,0.8-10.3c0,0-3,4-2.9,9.7
				c0,0-0.4-5.8-3.9-7.3C729.3,1058.5,733,1063.9,731.2,1077"/>
			<path class="st12" d="M495,1114l6.7-0.9c0,0-6.6-10.2-5.5-14.4c0,0-0.5,3.5-0.1,5.3c0,0-3.7-5.3-2.2-8.9c0,0-1.4,2.7-0.3,8.6
				c0,0-4.7-6.4-5.3-8.5c0,0,0.3,4.3,3.3,9.1c0,0-4.3-3.8-7.9-4.4c0,0,5.4,4.1,6.8,6.9c0,0-3.3-1.9-5.1-1.8c0,0,5.4,2.4,7.3,5.1
				C494.4,1112.7,495,1114,495,1114"/>
			<path class="st13" d="M725.3,1035.9h6.1c0,0-0.4-11.4,3.2-16.1c0,0-2.5,3.6-3.2,5.4c0,0,0.7-7.5,1.1-7.9c0,0-2.5,5-3.6,10
				c0,0-1.1-12.5-0.4-13.9c0,0-2.5,6.4-1.4,12.1c0,0-2.5-8.2-5-9.6c0,0,3.2,6.4,3.2,10c0,0-2.9-5-3.9-4.6
				C721.4,1021.3,725.7,1027.4,725.3,1035.9"/>
			<g>
				<g>
					<path class="st14" d="M736.9,1139.2c7.7,0,7.7-12,0-12C729.2,1127.2,729.2,1139.2,736.9,1139.2L736.9,1139.2z"/>
				</g>
			</g>
			<g>
				<g>
					<path class="st14" d="M736.9,1241.4c5.8,0,5.8-9,0-9C731.1,1232.4,731.1,1241.4,736.9,1241.4L736.9,1241.4z"/>
				</g>
			</g>
			<g>
				<g>
					<path class="st14" d="M717.2,1175.5c5.8,0,5.8-9,0-9C711.4,1166.5,711.4,1175.5,717.2,1175.5L717.2,1175.5z"/>
				</g>
			</g>
			<g>
				<g>
					<path class="st14" d="M722,1215.7c9.7,0,9.7-15,0-15C712.3,1200.7,712.3,1215.7,722,1215.7L722,1215.7z"/>
				</g>
			</g>
			<g>
				<g>
					<path class="st14" d="M672.8,1239c5.8,0,5.8-9,0-9C667.1,1230,667,1239,672.8,1239L672.8,1239z"/>
				</g>
			</g>
			<g>
				<g>
					<path class="st14" d="M669.3,1171c7.7,0,7.7-12,0-12C661.5,1159,661.5,1171,669.3,1171L669.3,1171z"/>
				</g>
			</g>
			<g>
				<g>
					<path class="st14" d="M624.3,1164.2c5.8,0,5.8-9,0-9C618.5,1155.2,618.5,1164.2,624.3,1164.2L624.3,1164.2z"/>
				</g>
			</g>
			<g>
				<g>
					<path class="st14" d="M559.7,1251.6c5.8,0,5.8-9,0-9C553.9,1242.6,553.9,1251.6,559.7,1251.6L559.7,1251.6z"/>
				</g>
			</g>
			<g>
				<g>
					<path class="st14" d="M604.6,1220.8c7.7,0,7.7-12,0-12C596.8,1208.8,596.8,1220.8,604.6,1220.8L604.6,1220.8z"/>
				</g>
			</g>
			<g>
				<g>
					<path class="st14" d="M494.4,1261.5c7.7,0,7.7-12,0-12C486.6,1249.5,486.6,1261.5,494.4,1261.5L494.4,1261.5z"/>
				</g>
			</g>
			<g>
				<g>
					<path class="st14" d="M704.6,1105.5c5.8,0,5.8-9,0-9C698.8,1096.5,698.8,1105.5,704.6,1105.5L704.6,1105.5z"/>
				</g>
			</g>
		</g>
	</g>
</g>
<g id="Layer_2" class="st0">
	<g class="st1">
		<defs>
			<rect id="SVGID_3_" width="750" height="1334"/>
		</defs>
		<clipPath id="SVGID_4_">
			<use xlink:href="#SVGID_3_"  style="overflow:visible;"/>
		</clipPath>
		<g class="st15">
			<path class="st13" d="M341.2,1133.9h6.1c0,0-0.4-11.4,3.2-16.1c0,0-2.5,3.6-3.2,5.4c0,0,0.7-7.5,1.1-7.9c0,0-2.5,5-3.6,10
				c0,0-1.1-12.5-0.4-13.9c0,0-2.5,6.4-1.4,12.1c0,0-2.5-8.2-5-9.6c0,0,3.2,6.4,3.2,10c0,0-2.9-5-3.9-4.6
				C337.2,1119.3,341.5,1125.3,341.2,1133.9"/>
			<path class="st3" d="M191.3,1097.4l5.9,1.3c0,0,2.2-11.2,6.7-15c0,0-3.2,2.9-4.3,4.5c0,0,2.4-7.2,2.8-7.4c0,0-3.5,4.3-5.7,9
				c0,0,1.7-12.4,2.7-13.7c0,0-3.9,5.7-4.1,11.5c0,0-0.6-8.6-2.7-10.5c0,0,1.7,7,0.9,10.5c0,0-1.7-5.5-2.8-5.4
				C190.7,1082.3,193.6,1089.1,191.3,1097.4"/>
			<path class="st16" d="M305.4,1231.9l-286-16.2v-170.6c43.6,6.6,107.8,21.5,185.5,55.5c148.2,64.7,212.2,4,302.9,39.9
				C598.5,1176.4,305.4,1231.9,305.4,1231.9z"/>
			<line class="st5" x1="-0.2" y1="1045.1" x2="-0.2" y2="1020.1"/>
			<path class="st13" d="M452,1156.7h5.4c0,0-0.5-19.5,3.6-23.6c0,0-4.1,3.6-5.4,9.5c0,0-0.9-10.9-0.5-13.2c0,0-3.2,5.4-2.3,12.7
				c0,0-1.4-7.3-5.9-8.6C447,1133.6,452.5,1139.9,452,1156.7"/>
			<path class="st13" d="M266.2,1150.3l6.1-0.3c0,0-0.9-11.4,2.4-16.2c0,0-2.3,3.7-3,5.5c0,0,0.4-7.5,0.7-7.9c0,0-2.3,5.1-3.1,10.2
				c0,0-1.7-12.4-1-13.9c0,0-2.2,6.5-0.8,12.2c0,0-2.9-8.1-5.5-9.4c0,0,3.5,6.3,3.7,9.8c0,0-3.1-4.9-4.1-4.4
				C261.6,1135.9,266.2,1141.7,266.2,1150.3"/>
			<path class="st3" d="M372.2,1183.4l4.7,0.4c0,0,0.4-8.8,3.4-12.2c0,0-2.1,2.6-2.8,3.9c0,0,1-5.7,1.3-6c0,0-2.2,3.7-3.4,7.5
				c0,0-0.1-9.7,0.6-10.8c0,0-2.3,4.8-1.8,9.3c0,0-1.4-6.5-3.3-7.7c0,0,2.1,5.2,1.9,7.9c0,0-1.9-4-2.8-3.8
				C370.1,1171.9,373,1176.8,372.2,1183.4"/>
		</g>
	</g>
</g>
<g id="Layer_1" class="st0">
	<g class="st1">
		<defs>
			<rect id="SVGID_5_" width="750" height="1334"/>
		</defs>
		<clipPath id="SVGID_6_">
			<use xlink:href="#SVGID_5_"  style="overflow:visible;"/>
		</clipPath>
		<g class="st17">
			<path class="st11" d="M-0.2,1045.3c0,0,72.5-18.6,139.6,59.7c67.1,78.3,213.8,51.6,258,124.8c0,0,22.7,56.6-223,24.9
				s-80.7,45.8-174.5,78.8V1045.3z"/>
			<line class="st5" x1="-0.2" y1="1045.1" x2="-0.2" y2="1020.1"/>
			<g>
				<path class="st18" d="M58.4,1051.7c2.1,18.6,5.1,45.2,5.8,48.4c-0.1,1.3-0.2,2.5-0.4,3.6c0,0,0,0,0,0c-0.1,1-0.2,1.9-0.3,2.7
					c-0.3,0-0.5-0.1-0.8-0.2c-0.4-0.1-0.7-0.2-1-0.4c-0.4-0.2-0.7-0.3-1.1-0.6c-5.1-22.3-18.2-83.1-16.4-112.7l6.8,23
					C54.5,1027.4,57,1039.5,58.4,1051.7z"/>
				<path class="st19" d="M64.1,1100.1c0-0.1,0-0.2-0.1-0.3c-4.9-29.3-14.7-115.8-14.3-126c0,0,3.6,17.1,7.4,36.3c0,0,0,0.1,0,0.1
					c0,0.1,0,0.1,0,0.1c1.1,5.7,2.2,11.5,3.3,17.1c2,10.7,3.7,20.6,4.6,27.1c0.5,4.1,0.8,8.8,0.8,13.7v0.1
					C65.9,1079.1,65,1091.2,64.1,1100.1z"/>
				<path class="st20" d="M63.7,1103.7c0.1-1.1,0.2-2.4,0.4-3.6c0.9-8.9,1.8-20.9,1.7-31.9c0.7-5.5,2.5-16.3,4.4-27.6
					c4.5-26.5,10.7-60.8,10.8-63.8C86.9,1038.8,64.3,1102.3,63.7,1103.7z"/>
				<path class="st21" d="M72,948.2c0,0-0.6,22.1-1.4,67.6v0c-0.1,7.6-0.3,15.9-0.4,24.8c-1.9,11.3-3.7,22-4.4,27.6v-0.1
					c0-4.9-0.3-9.6-0.8-13.7c-0.8-6.5-2.6-16.4-4.6-27.1C60.8,1014.4,62.7,965.2,72,948.2z"/>
				<path class="st22" d="M81,976.7c0,0,0,0.1,0,0.2C81,976.8,81,976.7,81,976.7z"/>
				<path class="st23" d="M135.5,931.7c-0.1,0-0.2,0-0.3,0c-1.8,0.2-3.5,0.4-5.1,0.7L135.5,931.7z"/>
				<g>
					<path class="st24" d="M70.6,1015.7c0.4-4.5,1-9,1.8-13.5c0.4-2.2,0.8-4.5,1.4-6.7c0.5-2.2,1.1-4.4,1.7-6.6
						c0.6-2.2,1.3-4.4,2-6.5l1.2-3.2l0.6-1.6l0.7-1.6l1.3-3.1c0.5-1,1-2.1,1.5-3.1c0.5-1,1-2.1,1.5-3.1l1.7-3
						c4.6-7.9,10.7-15,18-20.4c1.8-1.4,3.7-2.7,5.7-3.8c2-1.1,4-2.2,6.1-3.1c2.1-0.9,4.3-1.6,6.4-2.3c2.2-0.7,4.4-1.1,6.6-1.5
						c-2.2,0.6-4.4,1.1-6.5,1.9c-2.1,0.7-4.2,1.6-6.3,2.5c-4.1,1.9-8,4.2-11.4,7.1c-7.1,5.5-13,12.5-17.5,20.3
						c-4.6,7.7-8.1,16.1-10.7,24.8C73.8,997.9,72,1006.8,70.6,1015.7z"/>
				</g>
				<g>
					<path class="st24" d="M57.1,1009.3c-1.4-10.7-1.4-21.6-0.5-32.4c1-10.8,3.2-21.5,7.3-31.6c2.1-5,4.7-9.9,7.9-14.3
						c3.2-4.4,7-8.4,11.4-11.6c1.1-0.8,2.3-1.5,3.4-2.3c1.2-0.7,2.4-1.3,3.6-2c2.4-1.3,4.9-2.3,7.5-3.1c5.2-1.6,10.6-2.5,16-2.8
						c-5.4,0.5-10.7,1.5-15.8,3.4c-2.5,0.9-5,1.9-7.3,3.3c-1.2,0.7-2.3,1.3-3.5,2l-3.3,2.3c-4.2,3.3-8,7.2-11.1,11.5
						c-3.1,4.3-5.6,9.1-7.7,14.1c-4.1,9.9-6.3,20.5-7.6,31.2c-0.6,5.4-0.9,10.7-1,16.1C56.6,998.5,56.7,1003.9,57.1,1009.3z"/>
				</g>
				<path class="st23" d="M130.1,932.5c-0.3,0.2-0.6,0.3-1,0.3L130.1,932.5z"/>
				<path class="st5" d="M128.9,932.7c0.1,0.1,0.2,0.1,0.2,0.1c0.1,0,0.2,0.1,0.3,0.1"/>
				<path class="st23" d="M122.1,934.4c-0.9-1.8,0.5-3.8,1.7-5.3c0.2-0.2,0.4-0.4,0.6-0.5c0.6-0.1,0.9,0.7,0.9,1.3
					c0.1,1,0.1,2-0.2,3c-0.4,0.9-1.4,1.7-2.3,1.5L122.1,934.4z"/>
				<path class="st5" d="M113.5,938.2L113.5,938.2c-0.1,0-0.2,0-0.2,0"/>
				<path class="st5" d="M110.1,939.1c0.1-0.1,0.2-0.1,0.3-0.2v0v0"/>
				<path class="st23" d="M106.2,942c0,0.1,0.1,0.2,0.1,0.2c0.1,0.2,0.2,0.4,0.4,0.6c-0.1,0.1-0.2,0.1-0.2,0.2L106.2,942z"/>
				<path class="st23" d="M108,940.8c-0.1,0.1-0.4,0.1-0.7,0c-0.1,0.3-0.2,0.6-0.4,0.9L108,940.8z"/>
				<path class="st5" d="M101.4,947.3C101.4,947.3,101.4,947.3,101.4,947.3c0.1,0.2,0.1,0.3,0.3,0.3"/>
				<path class="st23" d="M101.9,944.3c-0.3,0-0.5-0.1-0.7-0.2c-0.1,0.2-0.2,0.3-0.3,0.5L101.9,944.3z"/>
				<path class="st23" d="M102.9,950.8c0.4,1-0.7,2-1.7,2s-4-1-4.8-1.7c1.4-1.3,3.4-1.8,5.2-1.2C102.1,950,102.7,950.2,102.9,950.8z
					"/>
				<path class="st23" d="M119.7,941.1c-1,0.8-2.4,0.7-3.5,0.1c-1.1-0.6-2-2-2.7-3c1.5-0.2,3-0.3,4.5-0.4c0.6,0,1.2-0.1,1.7,0.2
					C120.7,938.5,120.7,940.3,119.7,941.1z"/>
				<path class="st23" d="M126.9,936.8c0.3,0.9-0.4,2.2-1.4,2.1c-0.5,0-1-0.4-1.4-0.7c-0.8-0.7-1.7-1.7-2.5-2.4
					c0.9-0.3,1.9-0.7,2.9-0.6C125.5,935.3,126.5,935.9,126.9,936.8z"/>
				<path class="st23" d="M134.7,936.9c-0.4,1.1-2,1.2-3,0.5c-1.4-1-2-2.9-1.4-4.5c1.1,0,2.1,1.3,3,1.8
					C134.2,935.1,135,935.9,134.7,936.9z"/>
				<path class="st23" d="M108.9,947.1c0.1,0.2,0.2,0.4,0.2,0.5c0,0.2-0.2,0.3-0.4,0.4c-2.2,1.3-5,0.3-7.3-0.8
					c-0.1-0.2,0-0.5,0.2-0.7c0.3-0.3,0.7-0.4,1.1-0.5c1.1-0.2,2.2-0.5,3.3-0.4C107.1,945.7,108.3,946.2,108.9,947.1z"/>
				<path class="st23" d="M115.6,935.4c-0.2-2.2,0.8-4.4,2.6-5.8c0.3-0.2,0.6-0.4,1-0.4c0.5,0,0.9,0.5,1,1c0.1,0.5,0,1-0.2,1.5
					c-0.3,1-0.6,2.1-1.4,2.8C117.9,935.3,116.4,936.1,115.6,935.4z"/>
				<path class="st23" d="M112.1,943.7c-0.4,1-1.7,1.2-2.7,0.9c-1-0.3-2-0.9-2.6-1.8c1-0.7,2.3-1.6,3.4-1.6
					C111.4,941.3,112.6,942.6,112.1,943.7z"/>
				<path class="st23" d="M105.3,938.9c0-1,0-2.1,0.6-2.9c0.6-0.8,2-1,2.5-0.1c0.3,0.5,0.1,1.2,0,1.7c-0.3,1.1-0.7,2.1-1.1,3.2
					c-0.7-0.1-1.5-0.5-1.7-0.7C105.3,939.7,105.3,939.3,105.3,938.9z"/>
				<path class="st23" d="M99.7,941.7c-0.1-1.2,0.4-2.4,0.8-3.5c0.1-0.4,0.3-0.7,0.6-1c0.3-0.2,0.8-0.2,1,0.1
					c0.1,0.1,0.1,0.3,0.1,0.5c0.2,2.2-0.2,4.4-1.2,6.3C100.3,943.7,99.8,942.7,99.7,941.7z"/>
				<path class="st23" d="M130.1,932.5c-0.4,0.1-0.8,0.1-1.2,0.2c-0.4-0.2-0.7-0.8-0.7-1.2c0-0.7,0.4-1.3,0.8-1.8
					c0.8-1,1.9-1.7,3.1-2.2C132.7,929.2,131.7,931.6,130.1,932.5z"/>
				<path class="st23" d="M139,932.6c-1.1,0.3-3.2,0.7-3.8-0.3c0-0.2,0-0.3,0-0.5c0.1-1.2,1.4-2.2,2.6-2.7c0.7-0.2,1.4-0.4,2.1-0.3
					c0.7,0.1,1.4,0.6,1.5,1.3C141.7,931.3,140.3,932.2,139,932.6z"/>
				<path class="st23" d="M112.8,934.2c0.2,1.9-0.8,3.8-2.4,4.7c-0.7-1.6-0.7-3.9,0.3-5.4c0.3-0.4,0.6-0.8,1.1-0.7
					C112.4,932.9,112.7,933.6,112.8,934.2z"/>
				<path class="st23" d="M98.5,948c0.8-2,0.2-4.4-1.4-5.8c-0.3,1.2-0.6,2.4-0.4,3.5c0.2,1.2,1.1,2.3,2.3,2.4L98.5,948z"/>
				<path class="st23" d="M120.7,908.3c-0.3,0.5-0.7,1-1.2,1.5c-0.8,0.8-1.9,1.4-3,1.4c-1.1,0-2.3-0.8-2.4-1.9
					c1.8-1,3.8-1.6,5.8-1.9c0.4-0.1,0.9,0,1,0.4C120.9,907.9,120.8,908.1,120.7,908.3z"/>
				<path class="st5" d="M114,909.2C114,909.2,114,909.3,114,909.2c-0.2,0.1-0.3,0.2-0.5,0.3"/>
				<path class="st23" d="M107.8,910.7c1.9-1.7,3.1-4.1,3.3-6.6c-2,0.9-3.6,2.8-4.1,5c-0.1,0.4-0.1,0.8,0,1.1c0.2,0.3,0.7,0.6,1,0.3
					L107.8,910.7z"/>
				<path class="st23" d="M107.5,914.6c-0.1,1.2-1.8,1.8-3,1.3c-1.1-0.5-1.9-1.6-2.8-2.5c0.9-0.3,3.2-0.9,4.1-0.7
					C106.8,912.9,107.6,913.7,107.5,914.6z"/>
				<path class="st5" d="M103.1,910.8c-0.2-0.1-0.4-0.2-0.5-0.4c0,0,0,0,0,0.1"/>
				<path class="st23" d="M84,925.6c0.4,0.4,0.2,1.1-0.2,1.5c-1.3,1.6-3.9,1.8-5.4,0.4c1.1-1.4,3-2.3,4.8-2.2
					C83.4,925.3,83.7,925.4,84,925.6z"/>
				<path class="st23" d="M90,921.2c0,0.1-0.1,0.3-0.1,0.4c-0.7,1-1.9,1.6-3.1,1.6c-1.2-0.1-2.4-0.8-2.9-1.9c1.4-1,3.7-1,5.4-0.6
					C89.6,920.8,90,920.9,90,921.2z"/>
				<path class="st23" d="M100.9,916.2c-0.1,1.3-1.9,1.8-3.1,1.2c-1.2-0.6-1.9-1.9-2.8-2.8c0.8-0.3,3.4-0.3,4.2-0.1
					C100.1,914.6,101,915.3,100.9,916.2z"/>
				<path class="st23" d="M93.8,917.6c0.6,0.8-0.4,2-1.4,2c-1,0-2.8-1-3.5-1.7c1.1-0.6,2.3-0.9,3.6-0.8
					C93,917.2,93.5,917.3,93.8,917.6z"/>
				<path class="st5" d="M91.1,916c0.1,0,0.2,0,0.2,0c0,0,0-0.1,0.1-0.1"/>
				<path class="st23" d="M104.4,905.7c-0.4,1.6-1,3.2-1.8,4.7c-0.8-0.7-1.3-1.7-1.2-2.7c0.1-1.2,0.9-2.4,2.1-2.9
					c0.3-0.1,0.7-0.2,0.9,0.1C104.5,905.2,104.4,905.4,104.4,905.7z"/>
				<path class="st23" d="M98.2,909.7c-0.4,0.9-1,1.8-0.7,2.7c-1.2-0.2-2.2-1.6-2.2-2.8c0-0.8,0.2-1.5,0.7-2.1
					c0.5-0.6,1.4-0.8,2-0.4C98.7,907.7,98.6,908.9,98.2,909.7z"/>
				<path class="st23" d="M93.2,911.2c0.2,0.5,0,1-0.2,1.5c-0.4,0.8-1.1,2.2-1.5,3.1c-0.1,0.1-0.2,0.1-0.3,0.2
					c-0.7,0-1.4-0.7-1.5-1.5c-0.1-0.8,0.2-1.7,0.6-2.4c0.3-0.6,0.7-1.1,1.3-1.4C92.1,910.5,92.9,910.7,93.2,911.2z"/>
				<path class="st23" d="M80.3,918.7c0.2,1,0,3.5-0.5,4.3c-0.7,0.1-1.4-0.4-1.7-1.1c-0.3-0.7-0.2-1.4-0.2-2.2
					c0.1-0.6,0.2-1.2,0.5-1.6c0.4-0.4,1.1-0.6,1.5-0.2C80.1,918.1,80.2,918.4,80.3,918.7z"/>
				<path class="st23" d="M87.2,915.4c-0.1,0.9-1.7,2.7-2.3,3.3c-0.4,0.3-1,0-1.2-0.4c-0.2-0.4-0.1-1,0-1.4c0.2-0.7,0.5-1.4,0.8-2.1
					c0.3-0.5,0.6-1,1.1-1.1C86.6,913.6,87.3,914.5,87.2,915.4z"/>
				<path class="st5" d="M78.2,927.4c0,0,0.1,0.1,0.1,0.1c-0.1,0.1-0.1,0.2-0.2,0.2"/>
			</g>
		</g>
	</g>
</g>
<g id="Layer_4" class="st0">
	<g class="st1">
		<defs>
			<rect id="SVGID_7_" width="750" height="1334"/>
		</defs>
		<clipPath id="SVGID_8_">
			<use xlink:href="#SVGID_7_"  style="overflow:visible;"/>
		</clipPath>
		<g class="st25">
			<path class="st24" d="M53.1,1154.6c-5.3-2.2-10.6-4.6-15.8-7.1c-5.2-2.5-10.3-5.2-15.4-7.8c5,2.8,10.1,5.6,15.3,8.2
				c5.2,2.6,10.4,5,15.7,7.3c10.6,4.5,21.7,8.2,33,10.7c5.7,1.2,11.4,2,17.2,2.5c5.8,0.5,11.6,0.6,17.4,0.2
				c5.8-0.4,11.5-1.2,17.2-2.5c5.6-1.4,11.1-3.2,16.4-5.6c-5.3,2.3-10.8,4-16.5,5.2c-5.6,1.3-11.4,2-17.1,2.3
				c-11.5,0.6-23.1-0.4-34.4-2.8C74.7,1162.7,63.7,1159,53.1,1154.6z"/>
			<path class="st23" d="M164.8,1159.1c0.7-0.2,1.5-0.4,1.9-1.1c0.8-1.2-0.5-2.8-1.9-3.3c-3.6-1.4-8.9,1.7-9.6,5.4
				C158.4,1160.2,161.6,1159.9,164.8,1159.1z"/>
			<path class="st23" d="M143.8,1161.1c2.9-1.1,6.7-2.7,6.9-5.7c0-0.4,0-0.8-0.2-1.1c-0.3-0.5-0.9-0.7-1.5-0.8
				c-1.7-0.1-3.4,1-4.3,2.5C143.8,1157.6,143.6,1159.4,143.8,1161.1z"/>
			<path class="st23" d="M118.2,1159.5c-0.3,0.1-0.6,0.2-0.8,0.4c-2.5,1.8-4.2,4.5-4.7,7.5c1.8-1.1,3.6-2.3,5.3-3.6
				c0.8-0.6,1.6-1.3,1.8-2.3C119.9,1160.6,119.2,1159.4,118.2,1159.5z"/>
			<path class="st23" d="M124.2,1166.7c1.7-1.6,3.3-3.1,5-4.7c0.6-0.5,1.1-1.1,1.2-1.8c0.1-1.1-1-2-2.2-2c-1.1,0-2.1,0.6-3,1.2
				c-1,0.7-1.9,1.4-2.5,2.5S123.3,1165.9,124.2,1166.7z"/>
			<path class="st23" d="M132.6,1163.3c2.1-0.2,4.3-0.4,6-1.7c1.6-1.2,2.4-3.9,0.9-5.4c-1.5-1.5-4.2-0.7-5.5,1
				C132.8,1158.9,132.6,1161.2,132.6,1163.3z"/>
			<path class="st23" d="M118.1,1180.1c1.1-0.4,1.6-1.9,1.2-3c-0.3-1.1-1.2-2-2.1-2.8c-1.5-1.3-3-2.4-4.7-3.3
				c-0.2,2.6,0.6,5.3,2.1,7.5C115.5,1179.6,116.9,1180.6,118.1,1180.1z"/>
			<path class="st23" d="M153,1164.1c-2.6-0.2-5.2,0.4-7.4,1.8c2,1.8,4.7,3.7,7.5,3.4c1.6-0.2,3.5-1.2,3.4-2.9
				C156.4,1165,154.5,1164.2,153,1164.1z"/>
			<path class="st23" d="M138.3,1174.1c1.1,1.2,2.9,2.3,4.2,1.4c1.2-0.9,0.8-2.9-0.2-4.1c-1.6-1.9-5-2.8-7.4-2.2
				C135.8,1171,137,1172.6,138.3,1174.1z"/>
			<path class="st23" d="M127.8,1177.9c0.8,0.6,1.8,1.2,2.9,1c1-0.1,2-1.1,1.8-2.1c-0.1-0.6-0.5-1-0.9-1.4c-2-1.9-4.4-3.5-7.1-4.4
				C124.4,1173.6,125.7,1176.3,127.8,1177.9z"/>
			<path class="st23" d="M101.2,1176.5c0.6,1.6,1.9,3.1,3.6,3.5c1.7,0.3,3.7-1.1,3.5-2.8c-0.1-0.6-0.4-1.1-0.7-1.6
				c-1.3-2-3.1-3.7-5.2-4.9C101.2,1172,100.7,1175.2,101.2,1176.5z"/>
		</g>
		<g class="st25">
			<path class="st24" d="M305.5,1252c5.3-3.4,10.3-7.3,15-11.5c0,0,0-0.1,0-0.1c0,0,0,0,0,0c0,0,0-0.1,0-0.1
				c-4.7,4.2-9.8,8.1-15.2,11.4c-3.9,2.4-8,4.4-12.1,6.2l-1.6,0.6c-0.5,0.2-1,0.4-1.6,0.6l-3.2,1.1l-3.3,1c-0.5,0.2-1.1,0.3-1.6,0.4
				l-1.7,0.4c-8.8,2.1-18,2.8-27.1,2.2c-9.1-0.6-18-2.4-26.7-5.1c-8.7-2.7-17.1-6.2-25.3-10.2c-8.1-4.1-16-8.7-23.6-13.7
				c-7.6-5-14.9-10.5-22-16.2c-3.5-2.9-7-5.8-10.4-8.9c-3.4-3-6.7-6.2-9.9-9.4c12.7,13.1,26.8,24.8,41.9,35.1
				c7.6,5.1,15.4,9.8,23.6,13.9c8.2,4.1,16.6,7.6,25.4,10.4c8.7,2.7,17.8,4.5,26.9,5.1c9.1,0.6,18.4-0.1,27.3-2.3l1.7-0.4
				c0.6-0.1,1.1-0.3,1.7-0.5l3.3-1l3.2-1.2c0.5-0.2,1.1-0.4,1.6-0.6l1.6-0.7C297.6,1256.5,301.7,1254.4,305.5,1252z"/>
			<path class="st23" d="M296.6,1247.8c0.2,2,1.6,3.9,3.5,4.7c1.5-2.5,1.3-6.4,0.6-9.2c-0.2-0.5-0.5-1.1-1-1.1
				c-0.2,0-0.5,0.1-0.7,0.3C297.4,1243.7,296.4,1245.8,296.6,1247.8z"/>
			<path class="st23" d="M315.5,1234.2c-2.1-0.8-4.1,1.9-3.8,4.1c0.2,2.2,1.7,4.1,2.6,6.2c0.9-1.1,2.6-5.1,2.9-6.5
				C317.4,1236.5,316.9,1234.8,315.5,1234.2z"/>
			<path class="st23" d="M304.4,1242.7c0.5,1.7,2.9,4.1,4.4,4.9c0.6-2,0.5-4.2-0.2-6.2c-0.3-0.8-0.7-1.5-1.4-1.9
				C305.5,1238.9,303.9,1241,304.4,1242.7z"/>
			<path class="st23" d="M290.8,1256.8c2.4-1.9,3.8-5.1,3.5-8.2c0-0.5-0.1-1.1-0.5-1.4c-0.7-0.6-1.8-0.2-2.5,0.4
				C288.7,1249.9,288.5,1254.4,290.8,1256.8z"/>
			<path class="st23" d="M327.8,1235C327.8,1235,327.8,1235,327.8,1235L327.8,1235c3.2-1.3,6.2-3.2,8.8-5.5c0.5-0.4,1-1.2,0.6-1.7
				c-0.2-0.3-0.6-0.4-0.9-0.4c-1.1-0.1-2.1-0.2-3.2,0c-1.9,0.2-3.9,0.9-5.1,2.4C326.7,1231.3,326.5,1233.6,327.8,1235z"/>
			<path class="st23" d="M319.5,1236.9c1.3-0.8,4.6-3.2,5.3-4.6c0.7-1.3,0.6-3.3-0.7-4.1c-1.7-1.2-4.2,0.4-4.8,2.5
				C318.7,1232.6,319.3,1234.8,319.5,1236.9z"/>
			<path class="st23" d="M299.4,1264.2c0-0.5-0.3-0.9-0.7-1.3c-1.2-1.3-4.5-3.8-6.2-4c-0.9,0.8-1,2.3-0.4,3.4
				c0.6,1.1,1.6,1.9,2.6,2.5c0.8,0.5,1.7,1.1,2.7,1.1C298.4,1265.9,299.5,1265.2,299.4,1264.2z"/>
			<path class="st23" d="M306.1,1257.6c-1-1.1-5.1-1.7-6.5-1.9c-0.8,0-1.3,1-1.1,1.8c0.2,0.8,0.9,1.4,1.5,1.9c1,0.7,2.1,1.4,3.3,1.8
				c0.8,0.3,1.8,0.6,2.6,0.2C307.2,1260.7,307.1,1258.7,306.1,1257.6z"/>
			<path class="st23" d="M323.1,1251.6c0.1-1.6-1.6-2.6-3.2-3.1c-1.5-0.4-3.3-0.7-4.3-2c-1,1.8-0.3,4.6,1.3,5.9
				c1,0.8,2.2,1.4,3.5,1.4C321.7,1253.8,323,1252.9,323.1,1251.6z"/>
			<path class="st23" d="M313,1254.4c-1.2-1.1-3.5-2.8-4.7-3.9c-1.4,0.3-2,2-1.7,3.4c0.3,1.4,1.4,2.4,2.6,3.3
				c0.9,0.7,1.9,1.3,2.9,1.3c1.1,0,2.2-0.8,2.2-1.9C314.3,1255.7,313.6,1255,313,1254.4z"/>
			<path class="st23" d="M320.5,1241c0,1.7,0.8,3.5,2.2,4.5c1.7,1.3,4.1,1.4,6,0.4c0.5-0.3,1-0.7,0.9-1.3c-0.1-0.4-0.5-0.7-0.9-0.8
				C326,1242.6,323.3,1241.6,320.5,1241z"/>
			<path class="st23" d="M325.4,1236.7L325.4,1236.7L325.4,1236.7c-0.6,0.1-0.9,1-0.7,1.5c0.2,0.5,0.8,0.9,1.3,1.1
				c2.2,1,4.9,1.2,7.4,0.6c1.1-0.3,1.3-1.9,0.2-2.4C331.1,1236.5,328.3,1236.2,325.4,1236.7C325.4,1236.7,325.4,1236.7,325.4,1236.7
				z"/>
		</g>
	</g>
</g>
<g id="Layer_5" class="st0">
	<g class="st1">
		<defs>
			<rect id="SVGID_9_" width="750" height="1334"/>
		</defs>
		<clipPath id="SVGID_10_">
			<use xlink:href="#SVGID_9_"  style="overflow:visible;"/>
		</clipPath>
		<g class="st26">
			<path class="st24" d="M47.5,1182.2c6.7-2.8,13.3-6,19.6-9.7c3.1-1.9,6.2-3.9,9.1-6.2c2.9-2.2,5.7-4.7,8.2-7.3
				c2.5-2.6,4.9-5.5,6.9-8.5c1-1.5,2-3.1,2.8-4.7c0.9-1.6,1.7-3.3,2.4-5c1.4-3.4,2.6-6.9,3.5-10.4c0.1-0.4,0.2-0.8,0.3-1.3l-0.2-0.1
				c0.1,0,0.2,0,0.3,0c0.7-3.1,1.3-6.3,1.7-9.4c1-7.2,1.4-14.5,1.7-21.8c-0.5,7.3-1,14.5-2.1,21.7c-0.5,3.6-1.2,7.2-2.2,10.7
				c-0.9,3.5-2.1,7-3.5,10.3c-0.7,1.7-1.5,3.3-2.4,4.9c-0.9,1.6-1.8,3.1-2.8,4.6c-2,3-4.4,5.8-6.9,8.4c-2.5,2.6-5.3,5-8.2,7.2
				c-2.9,2.2-5.9,4.2-9,6.1c-6.2,3.7-12.8,6.9-19.5,9.7c-6.7,2.8-13.5,5.5-20.4,7.7c-6.9,2.2-14,4.1-21.1,5.4
				c-7.2,1.4-14.4,2.1-21.7,2.3c7.3,0,14.6-0.7,21.8-1.9c7.2-1.2,14.3-3,21.3-5.2c3.5-1.1,6.9-2.3,10.3-3.6
				C40.8,1185,44.1,1183.7,47.5,1182.2z"/>
			<path class="st23" d="M102.9,1097c2.9-1,5.3-3.3,6.5-6.1c0.2-0.5,0.4-1,0.4-1.6c-0.1-1.5-1.8-2.6-3.4-2.3
				c-1.5,0.3-2.6,1.7-3.1,3.1C102.9,1091.5,102.8,1095.2,102.9,1097L102.9,1097L102.9,1097z"/>
			<path class="st23" d="M104.6,1108.4c2.2,1.1,4.9-0.6,6.7-2.5c0.7-0.7,1.3-1.5,1.5-2.4c0.2-0.9-0.5-2.1-1.4-2.1
				c-0.6,0-1.2,0.3-1.7,0.7C107.8,1103.5,106,1106.3,104.6,1108.4z"/>
			<path class="st23" d="M108.6,1114.6c-1.4,0.4-3.7,2.1-4.3,3.5c2.5,1.7,6,1.9,8.6,0.5c0.6-0.3,1.3-0.8,1.5-1.5
				c0.5-1.3-0.7-2.6-1.9-3C111.2,1113.9,109.9,1114.3,108.6,1114.6z"/>
			<path class="st23" d="M96,1104.7c1.3,1.1,3.8,1.5,5.6,1.3l0,0c0,0,0,0,0,0c0-1.7-0.1-3.4-1-4.9c-1.1-1.6-3.6-2.5-5-1.2
				C94.2,1101.2,94.6,1103.6,96,1104.7z"/>
			<path class="st23" d="M98.7,1119.5L98.7,1119.5L98.7,1119.5c1.4-2.1,1.7-7.3-0.1-8.6c-1.9-1.4-5.2,0-5.1,2.4
				c0,1.1,0.7,2.1,1.4,3.1C95.8,1117.7,97,1119.2,98.7,1119.5z"/>
			<path class="st23" d="M110.6,1129.1c1.4-0.9,1.9-3.2,0.5-4.1c-0.4-0.3-1-0.4-1.5-0.4c-1.8-0.2-3.8-0.1-5.4,0.7
				c-1.5,0.8-2.7,2.3-2.8,4c1.5,0.1,3,0.3,4.5,0.4C107.4,1129.8,109.2,1130,110.6,1129.1z"/>
			<path class="st23" d="M97,1131.2c1.6-2.8,1.3-6.5-0.8-9c-0.4-0.4-0.8-0.9-1.4-0.8c-0.8,0.1-1.1,1.1-1.3,2c-0.2,1.5-0.4,3,0.1,4.4
				C94.1,1129.2,95.5,1131.5,97,1131.2z"/>
			<path class="st23" d="M107.7,1137.6c0.9-0.5,1.7-1.4,1.7-2.4c-0.1-1.6-2.1-2.4-3.7-2.2c-1.5,0.2-4.4,2.9-6.1,3.3
				C101.6,1138.5,105.2,1139.1,107.7,1137.6z"/>
			<path class="st23" d="M91.3,1142.3c1.2-2.3,1.9-4.8,2.2-7.3c0.1-0.7,0.1-1.4-0.3-2c-0.5-0.6-1.3-0.8-2.1-0.8
				c-2.3,0.3-3.7,2.9-3.4,5.1C88.1,1139.5,89.5,1141.2,91.3,1142.3z"/>
			<path class="st23" d="M100.8,1147.7c1.9,0.6,4,0.4,5.9-0.2c0.5-0.2,1-0.4,1.3-0.8c0.7-0.9,0.2-2.2-0.8-2.8
				c-0.9-0.6-2.1-0.6-3.2-0.6c-1.8,0-5.1,0.1-6.7,1C97.8,1145.9,99.2,1147.2,100.8,1147.7z"/>
			<path class="st23" d="M84.2,1151.7c0.8-1.6,2.5-3.7,2.9-5.4c0.3-1,0.5-2.1-0.1-3.1c-0.8-1.4-3.1-1.5-4.3-0.4s-1.4,3-1,4.6
				C82.3,1149,83.3,1150.3,84.2,1151.7z"/>
		</g>
		<g class="st26">
			<path class="st24" d="M224.3,1193.9c2.9-4.6,5.4-9.4,7.4-14.4c0,0,0-0.1,0-0.1c0,0,0,0,0,0c0,0,0-0.1,0-0.1
				c-2.1,5-4.7,9.9-7.7,14.4c-2.1,3.3-4.5,6.4-7.2,9.3l-1,1.1c-0.3,0.4-0.7,0.7-1,1.1l-2.1,2.1l-2.2,2c-0.4,0.3-0.7,0.6-1.1,0.9
				l-1.1,0.9c-6.1,4.8-12.9,8.8-20.2,11.6c-7.3,2.9-14.9,4.7-22.6,5.9c-7.7,1.1-15.6,1.5-23.4,1.3c-7.8-0.2-15.6-0.9-23.3-2
				c-7.7-1.1-15.4-2.6-23-4.5c-3.8-0.9-7.6-1.9-11.3-3.1c-3.8-1.1-7.5-2.3-11.2-3.7c14.7,5.5,29.9,9.4,45.4,11.8
				c7.7,1.2,15.6,1.9,23.4,2.1c7.8,0.2,15.7-0.2,23.5-1.3c7.8-1.1,15.4-3.1,22.8-6c7.3-2.9,14.2-6.8,20.3-11.8l1.1-0.9
				c0.4-0.3,0.8-0.6,1.1-1l2.2-2l2.1-2.1c0.4-0.3,0.7-0.7,1-1.1l1-1.1C219.8,1200.3,222.2,1197.2,224.3,1193.9z"/>
			<path class="st23" d="M215.9,1193.9c0.9,1.5,2.7,2.4,4.4,2.4c0.3-2.5-1.3-5.4-2.9-7.4c-0.3-0.4-0.8-0.7-1.2-0.5
				c-0.2,0.1-0.3,0.3-0.4,0.5C214.9,1190.4,214.9,1192.4,215.9,1193.9z"/>
			<path class="st23" d="M225.5,1176.5c-1.9,0.2-2.5,3-1.5,4.6c1,1.6,2.8,2.6,4.3,3.8c0.3-1.2,0.2-4.9-0.1-6.2
				C227.9,1177.5,226.8,1176.4,225.5,1176.5z"/>
			<path class="st23" d="M220,1187.1c1,1.1,3.7,2.1,5.2,2.2c-0.3-1.8-1.2-3.5-2.5-4.8c-0.5-0.5-1.1-0.9-1.8-0.9
				C219.5,1183.7,219,1186,220,1187.1z"/>
			<path class="st23" d="M214.7,1203.1c1.1-2.4,1.1-5.3-0.3-7.6c-0.2-0.4-0.5-0.8-0.9-0.9c-0.8-0.2-1.5,0.5-1.8,1.2
				C210.4,1198.4,211.9,1202,214.7,1203.1z"/>
			<path class="st23" d="M235.3,1172.6C235.3,1172.6,235.3,1172.6,235.3,1172.6L235.3,1172.6c2-2.2,3.6-4.7,4.8-7.5
				c0.2-0.5,0.3-1.3-0.2-1.5c-0.3-0.1-0.6-0.1-0.9,0c-0.9,0.3-1.7,0.7-2.5,1.2c-1.4,0.9-2.7,2.1-3.1,3.7
				C233.1,1170,233.8,1171.9,235.3,1172.6z"/>
			<path class="st23" d="M229.6,1177c0.7-1.1,2.4-4.2,2.4-5.5c0-1.3-0.8-2.7-2.1-3c-1.8-0.3-3.1,1.9-2.9,3.7
				C227.4,1174,228.6,1175.5,229.6,1177z"/>
			<path class="st23" d="M224,1205.6c-0.2-0.4-0.6-0.6-1-0.8c-1.4-0.6-4.9-1.3-6.3-0.8c-0.4,1,0.1,2.2,0.9,2.8c0.9,0.6,1.9,0.8,3,1
				c0.8,0.1,1.7,0.2,2.5-0.2C223.9,1207.3,224.4,1206.4,224,1205.6z"/>
			<path class="st23" d="M226.8,1198.1c-1.2-0.5-4.6,0.6-5.8,0.9c-0.6,0.3-0.7,1.3-0.2,1.8c0.4,0.6,1.2,0.8,1.9,0.9
				c1.1,0.2,2.2,0.3,3.2,0.2c0.8,0,1.6-0.2,2.1-0.8C228.7,1200.1,227.9,1198.5,226.8,1198.1z"/>
			<path class="st23" d="M237.8,1187.2c-0.5-1.3-2.3-1.5-3.6-1.2c-1.3,0.2-2.8,0.7-4,0c-0.1,1.7,1.5,3.7,3.2,4.1
				c1.1,0.2,2.2,0.3,3.2-0.2C237.5,1189.4,238.2,1188.2,237.8,1187.2z"/>
			<path class="st23" d="M231,1193c-1.3-0.4-3.8-0.9-5.1-1.3c-0.9,0.8-0.8,2.3-0.1,3.3c0.8,0.9,2,1.4,3.2,1.6
				c0.9,0.2,1.9,0.3,2.7-0.1s1.4-1.5,1-2.3C232.4,1193.5,231.7,1193.3,231,1193z"/>
			<path class="st23" d="M231.9,1179.9c0.6,1.3,1.9,2.4,3.4,2.7c1.8,0.4,3.7-0.4,4.8-1.9c0.3-0.4,0.5-0.9,0.2-1.3
				c-0.2-0.3-0.7-0.3-1-0.3C236.7,1179.1,234.3,1179.4,231.9,1179.9z"/>
			<path class="st23" d="M234.1,1174.7L234.1,1174.7L234.1,1174.7c-0.4,0.3-0.3,1.1,0,1.4c0.4,0.3,0.9,0.4,1.4,0.4
				c2.1,0,4.2-0.9,6-2.3c0.8-0.6,0.3-1.9-0.7-1.9C238.5,1172.5,236.1,1173.3,234.1,1174.7C234.1,1174.7,234.1,1174.7,234.1,1174.7z"
				/>
		</g>
		<g class="st26">
			<path class="st24" d="M180.9,1196c3.1,8.6,6.7,17,10.9,25.1c4.2,8.1,9,16,14.4,23.3c5.5,7.3,11.8,14.1,18.8,19.9
				c7,5.9,14.9,10.7,23.4,14.2l1.6,0.6c0.5,0.2,1.1,0.4,1.6,0.6l3.2,1.1l3.3,1c0.5,0.2,1.1,0.3,1.7,0.4l1.7,0.4c4.5,1,9,1.7,13.6,2
				c6.3,0.4,12.6,0.2,18.9-0.5c0,0,0-0.1,0.1-0.1c0,0,0,0,0,0c0,0,0,0,0.1-0.1c-6.3,0.6-12.7,0.7-19,0.2c-4.5-0.4-9-1.1-13.5-2.1
				l-1.7-0.4c-0.6-0.1-1.1-0.3-1.6-0.4l-3.3-1l-3.2-1.1c-0.5-0.2-1.1-0.4-1.6-0.6l-1.6-0.6c-8.4-3.5-16.2-8.3-23.2-14.1
				c-7-5.8-13.2-12.6-18.6-19.8c-5.5-7.3-10.2-15-14.4-23.1L180.9,1196z"/>
			<path class="st23" d="M270.3,1276c-1,1.8-1,4.1,0.1,5.9c2.7-1.1,4.8-4.4,5.9-7.1c0.2-0.5,0.3-1.2-0.2-1.5
				c-0.2-0.1-0.4-0.2-0.7-0.2C273.3,1273.1,271.3,1274.3,270.3,1276z"/>
			<path class="st23" d="M293.5,1276.1c-1.3-1.9-4.4-0.9-5.5,1.1c-1.1,1.9-1,4.3-1.5,6.5c1.4-0.4,5.1-2.6,6.2-3.6
				C293.8,1279.1,294.3,1277.3,293.5,1276.1z"/>
			<path class="st23" d="M279.6,1276.5c-0.6,1.6-0.1,5,0.6,6.6c1.7-1.3,2.9-3.1,3.5-5.2c0.2-0.8,0.3-1.6-0.1-2.3
				C282.8,1274,280.2,1274.8,279.6,1276.5z"/>
			<path class="st23" d="M260.3,1279.9c3.1-0.2,6-1.9,7.7-4.5c0.3-0.4,0.5-0.9,0.4-1.4c-0.2-0.9-1.4-1.2-2.3-1.2
				C262.7,1273,259.9,1276.5,260.3,1279.9z"/>
			<path class="st23" d="M303,1283.9C303,1283.9,303,1283.9,303,1283.9L303,1283.9c3.4,0.8,6.9,1.1,10.4,0.7c0.6-0.1,1.5-0.4,1.5-1
				c0-0.4-0.3-0.6-0.5-0.9c-0.8-0.7-1.6-1.4-2.6-1.9c-1.7-1-3.7-1.5-5.5-1C304.4,1280.3,302.8,1282.1,303,1283.9z"/>
			<path class="st23" d="M295.2,1280.6c1.5,0.1,5.6,0.1,7-0.6c1.4-0.7,2.4-2.3,1.9-3.8c-0.7-2-3.7-2.1-5.4-0.9
				C297.1,1276.7,296.3,1278.7,295.2,1280.6z"/>
			<path class="st23" d="M262.9,1290.9c0.3-0.4,0.3-0.9,0.2-1.4c-0.2-1.7-1.4-5.7-2.7-6.9c-1.2,0.1-2.1,1.3-2.3,2.5
				c-0.2,1.2,0.2,2.5,0.6,3.6c0.3,0.9,0.7,1.9,1.5,2.4C261.1,1291.8,262.4,1291.7,262.9,1290.9z"/>
			<path class="st23" d="M272.2,1289.5c-0.2-1.4-3.2-4.3-4.1-5.4c-0.7-0.5-1.7,0-2,0.8c-0.3,0.8-0.1,1.6,0.1,2.4
				c0.4,1.2,0.9,2.4,1.6,3.4c0.5,0.8,1.1,1.6,2,1.7C271.2,1292.6,272.4,1291,272.2,1289.5z"/>
			<path class="st23" d="M289.5,1294.7c1-1.2,0.2-3.1-0.8-4.4c-1-1.2-2.3-2.5-2.3-4.1c-1.8,0.9-2.9,3.6-2.4,5.5
				c0.4,1.2,0.9,2.4,2,3.2C287,1295.6,288.6,1295.6,289.5,1294.7z"/>
			<path class="st23" d="M279.6,1291c-0.3-1.6-1.2-4.4-1.5-5.9c-1.3-0.5-2.9,0.4-3.4,1.8c-0.5,1.3-0.3,2.8,0.1,4.2
				c0.3,1,0.8,2.1,1.6,2.7c0.9,0.6,2.3,0.6,2.9-0.2C280,1292.8,279.8,1291.8,279.6,1291z"/>
			<path class="st23" d="M293.6,1284.5c-1,1.4-1.4,3.3-0.8,4.9c0.6,2,2.5,3.6,4.6,3.8c0.5,0.1,1.2,0,1.4-0.5c0.2-0.4,0-0.9-0.3-1.2
				C297.1,1289,295.5,1286.7,293.6,1284.5z"/>
			<path class="st23" d="M300.1,1284L300.1,1284L300.1,1284c-0.6-0.2-1.3,0.3-1.4,0.8c-0.1,0.6,0.1,1.2,0.4,1.7
				c1.2,2.2,3.2,3.9,5.7,4.8c1.1,0.4,2.1-0.8,1.5-1.8C304.9,1287.2,302.7,1285.2,300.1,1284C300.1,1284,300.1,1284,300.1,1284z"/>
		</g>
	</g>
</g>
<g id="Layer_6">
	<g>
		<defs>
			<rect id="SVGID_11_" width="750" height="1334"/>
		</defs>
		<clipPath id="SVGID_12_">
			<use xlink:href="#SVGID_11_"  style="overflow:visible;"/>
		</clipPath>
		<g class="st27">
			<path class="st11" d="M657.7,1252.4c4.6,11,14.8,19.4,26.3,21.8c8.8,1.8,17.9,0.3,26.7-1.2c4.5-4.5,10.8-6.6,16.8-8.6
				c2.3-0.8,4.7-1.5,7.1-1.9c0.1,0,0.1,0,0.2,0c0.1,0,0.3,0,0.4-0.1l0,0c1.2-0.2,2.5-0.2,3.7-0.2c0,0,0,0,0,0c1,0.1,1.7-1.1,1.1-1.9
				c-2.5-3.6-7.2-10.2-10.4-13.9c-0.7-0.8-1.3-1.5-1.9-2.3c0,0,0,0,0,0c-2.4-2.4-9.8-5.5-15.6-7.3c-2.4-0.7-4.4-1.2-5.8-1.4
				c-5.6-0.6-11.2,1.2-16.9,1.7c-6.8,0.6-14-0.5-20.4,2c-3.7,1.5-6.9,4.1-9.9,6.7c-0.8,0.7-1.7,1.5-2.1,2.5
				C656.7,1249.7,657.2,1251.1,657.7,1252.4z"/>
			<g>
				<path class="st7" d="M662.6,1252.3c6,1.6,12.2,2.8,18.3,3.8c0.9,0.2,1.8,0.3,2.6,0.4c0.8,0.1,1.5,0.2,2.3,0.3
					c1.4,0.2,2.9,0.4,4.3,0.6c3.1,0.4,6.2,0.8,9.3,1.1c0.8,0.1,1.7,0.2,2.5,0.2c0.2,0,0.4,0,0.6,0.1c2.1,0.2,4.1,0.4,6.2,0.5
					c1.4,0.1,2.9,0.2,4.3,0.3c0.4,0,0.8,0,1.1,0.1c1.3,0.1,2.6,0.1,3.9,0.2c1.6,0,3.1,0.1,4.7,0.1c1.6,0,3.1,0,4.6,0.1
					c1.5,0.1,3.1,0.2,4.5,0.7c1,0.3,2.1,0.9,2.8,1.7c0.1,0,0.1,0,0.2,0c-0.2-0.3-0.5-0.6-0.8-0.9c-0.6-0.5-1.3-0.9-2-1.3
					c-1.5-0.7-3.1-0.9-4.6-1.2c-3.1-0.3-6.2-0.6-9.3-0.9l-3.1-0.3l-0.6-0.1l-5.6-0.5c-1.9-0.2-3.8-0.4-5.7-0.6l-0.8-0.1
					c-0.9-0.1-1.8-0.2-2.8-0.3c-3.1-0.3-6.2-0.7-9.2-1l-3.6-0.4l-0.8-0.1l-4.8-0.6C674.9,1253.7,668.8,1253,662.6,1252.3z"/>
				<path class="st7" d="M687,1256.3c-0.3-1.5-0.7-3-1.3-4.4c-0.5-1.4-1.1-2.8-1.8-4.1c-0.7-1.3-1.4-2.7-2.2-3.9
					c-0.8-1.3-1.7-2.5-2.8-3.7c0.3,1.6,0.7,3,1.3,4.4c0.5,1.4,1.1,2.8,1.8,4.1c0.7,1.3,1.4,2.7,2.2,3.9
					C685.1,1253.9,685.9,1255.1,687,1256.3L687,1256.3z"/>
				<path class="st7" d="M703,1258.5c0.3-1.6,0.3-3.2,0.2-4.8c-0.2-1.6-0.6-3.1-1.1-4.6c-0.5-1.5-1.2-2.9-2.1-4.3
					c-0.9-1.3-1.9-2.6-3.2-3.6c0.5,1.5,1.1,2.9,1.6,4.4c0.5,1.4,1.1,2.8,1.6,4.2c0.5,1.4,1,2.8,1.5,4.3
					C701.9,1255.5,702.4,1257,703,1258.5L703,1258.5z"/>
				<path class="st7" d="M714.3,1259.3c1.1-1.7,1.8-3.7,2.1-5.7c0.3-2,0.4-4.1,0.1-6.2c-0.3-2.1-0.9-4.1-1.8-5.9
					c-0.9-1.8-2.1-3.6-3.7-4.9c0.8,1.9,1.5,3.7,2.1,5.5c0.6,1.8,1,3.7,1.3,5.6c0.3,1.9,0.4,3.8,0.4,5.7
					C714.7,1255.3,714.5,1257.2,714.3,1259.3L714.3,1259.3z"/>
				<path class="st7" d="M687.2,1255.6c-1.4,0.2-2.6,0.5-3.8,1c-1.2,0.5-2.4,1.1-3.5,1.7c-1.1,0.7-2.2,1.4-3.2,2.2
					c-1,0.8-1.9,1.8-2.7,2.9c1.3-0.4,2.5-0.9,3.7-1.4c1.2-0.6,2.3-1.2,3.4-1.8c1.1-0.7,2.2-1.3,3.2-2.1
					C685.3,1257.4,686.3,1256.6,687.2,1255.6L687.2,1255.6z"/>
				<path class="st7" d="M702.7,1257.9c-1,1.3-2,2.5-3,3.6c-1,1.1-2.1,2.2-3.2,3.1c-1.1,1-2.3,1.9-3.6,2.7c-1.3,0.9-2.6,1.6-4,2.5
					c1.6,0.1,3.3-0.3,4.8-0.9c1.5-0.6,3-1.5,4.2-2.6c1.3-1.1,2.3-2.4,3.2-3.8C701.9,1261.1,702.5,1259.6,702.7,1257.9L702.7,1257.9z
					"/>
				<path class="st7" d="M714.6,1259.1c-1.3,0.4-2.4,1-3.4,1.7c-1.1,0.7-2.1,1.4-3,2.2c-1,0.8-1.9,1.6-2.7,2.6
					c-0.9,0.9-1.7,1.9-2.3,3c1.3-0.4,2.4-1,3.4-1.7c1.1-0.7,2.1-1.4,3-2.2c1-0.8,1.9-1.6,2.7-2.6
					C713.1,1261.2,713.9,1260.3,714.6,1259.1L714.6,1259.1z"/>
			</g>
		</g>
		<g class="st27">
			<path class="st12" d="M618.7,1241.6c-4.2,4.6-10.6,6.9-16.8,6.1c-4.6-0.7-8.9-3-13-5.3c-1.4-3-4.2-5.1-6.8-7.2
				c-1-0.8-2-1.6-3.2-2.2c0,0-0.1,0-0.1-0.1c-0.1,0-0.1-0.1-0.2-0.1l0,0c-0.6-0.3-1.2-0.6-1.8-0.7c-0.5-0.1-1-0.2-1.5-0.2
				c2-2.9,5.7-4.2,8.8-5.9c0.5-0.3,0.9-0.5,1.3-0.8c0,0,0,0,0,0c1.6-0.8,5.8-1,9-0.8c1.3,0.1,2.4,0.2,3.1,0.3c2.9,0.7,5.3,2.5,8,3.8
				c3.3,1.5,7,2.2,9.7,4.6c1.6,1.4,2.7,3.2,3.7,5c0.3,0.5,0.6,1,0.6,1.6C619.7,1240.4,619.2,1241,618.7,1241.6z"/>
			<g>
				<path class="st28" d="M615.6,1241.1c-3.3-0.3-6.5-0.8-9.7-1.3c-0.5-0.1-0.9-0.2-1.4-0.2c-0.4-0.1-0.8-0.2-1.2-0.2
					c-0.8-0.1-1.5-0.3-2.2-0.4c-1.6-0.3-3.2-0.7-4.8-1.1c-0.4-0.1-0.9-0.2-1.3-0.3c-0.1,0-0.2-0.1-0.3-0.1c-1-0.3-2.1-0.5-3.1-0.8
					c-0.7-0.2-1.5-0.4-2.2-0.6c-0.2-0.1-0.4-0.1-0.6-0.2c-0.6-0.2-1.3-0.4-1.9-0.6c-0.8-0.2-1.6-0.5-2.3-0.7
					c-0.8-0.3-1.5-0.5-2.3-0.8c-0.8-0.2-1.5-0.4-2.3-0.5c-0.6,0-1.2,0.1-1.7,0.3c0,0-0.1,0-0.1-0.1c0.2-0.1,0.4-0.2,0.6-0.3
					c0.4-0.2,0.8-0.2,1.2-0.3c0.8-0.1,1.7,0.1,2.5,0.2c1.6,0.4,3.2,0.8,4.7,1.2l1.6,0.4l0.3,0.1l2.8,0.7c1,0.2,1.9,0.5,2.9,0.7
					l0.4,0.1c0.5,0.1,0.9,0.2,1.4,0.3c1.6,0.4,3.2,0.8,4.7,1.1l1.8,0.4l0.4,0.1l2.5,0.6C609.3,1239.6,612.4,1240.3,615.6,1241.1z"/>
				<path class="st28" d="M602.9,1238.8c0.4-0.7,0.9-1.3,1.4-2c0.5-0.6,1-1.2,1.6-1.7c0.6-0.5,1.2-1.1,1.8-1.5
					c0.6-0.5,1.3-0.9,2-1.3c-0.4,0.7-0.9,1.3-1.4,2c-0.5,0.6-1,1.2-1.6,1.7c-0.6,0.5-1.2,1.1-1.8,1.5
					C604.2,1237.9,603.6,1238.4,602.9,1238.8L602.9,1238.8z"/>
				<path class="st28" d="M594.6,1237c0.1-0.8,0.4-1.6,0.8-2.4c0.4-0.7,0.8-1.4,1.3-2.1c0.5-0.6,1.1-1.2,1.8-1.7
					c0.7-0.5,1.4-0.9,2.2-1.2c-0.5,0.7-1,1.3-1.6,1.9c-0.5,0.6-1,1.2-1.5,1.8c-0.5,0.6-1,1.2-1.5,1.8
					C595.6,1235.8,595.2,1236.4,594.6,1237L594.6,1237z"/>
				<path class="st28" d="M588.9,1235.4c-0.2-1-0.2-2.1,0-3.2c0.2-1.1,0.5-2.1,1-3.1c0.5-1,1.2-1.8,1.9-2.6c0.8-0.7,1.7-1.4,2.7-1.8
					c-0.7,0.8-1.4,1.5-2,2.4c-0.6,0.8-1.1,1.6-1.6,2.5c-0.5,0.9-0.9,1.8-1.2,2.7C589.4,1233.4,589.1,1234.4,588.9,1235.4
					L588.9,1235.4z"/>
				<path class="st28" d="M602.9,1238.4c0.6,0.3,1.2,0.7,1.7,1.2c0.5,0.4,1,0.9,1.4,1.5c0.4,0.5,0.8,1.1,1.2,1.7
					c0.3,0.6,0.7,1.2,0.9,1.9c-0.6-0.4-1.1-0.9-1.6-1.3c-0.5-0.5-0.9-1-1.4-1.5c-0.4-0.5-0.8-1-1.2-1.6
					C603.5,1239.6,603.2,1239.1,602.9,1238.4L602.9,1238.4z"/>
				<path class="st28" d="M594.8,1236.8c0.3,0.8,0.5,1.6,0.9,2.3c0.3,0.7,0.7,1.4,1,2.1c0.4,0.7,0.8,1.3,1.3,2
					c0.5,0.6,1,1.3,1.5,1.9c-0.8-0.3-1.6-0.7-2.2-1.3c-0.6-0.6-1.2-1.3-1.6-2c-0.4-0.8-0.7-1.6-0.9-2.4
					C594.7,1238.5,594.6,1237.7,594.8,1236.8L594.8,1236.8z"/>
				<path class="st28" d="M588.8,1235.3c0.5,0.4,1,0.9,1.4,1.4c0.4,0.5,0.8,1.1,1.1,1.6c0.3,0.6,0.6,1.1,0.9,1.7
					c0.3,0.6,0.5,1.2,0.6,1.9c-0.5-0.4-1-0.9-1.4-1.4c-0.4-0.5-0.8-1.1-1.1-1.6c-0.3-0.6-0.6-1.1-0.9-1.7
					C589.1,1236.6,588.9,1236,588.8,1235.3L588.8,1235.3z"/>
			</g>
		</g>
	</g>
</g>
<g id="Layer_7" class="st0">
	<g class="st1">
		<defs>
			<rect id="SVGID_13_" width="750" height="1334"/>
		</defs>
		<clipPath id="SVGID_14_">
			<use xlink:href="#SVGID_13_"  style="overflow:visible;"/>
		</clipPath>
		<g class="st29">
			<path class="st11" d="M674.5,1134c4.1-6.2,11.4-10.2,18.8-10.3c5.6-0.1,11,1.9,16.3,3.9c2.2,3.3,5.8,5.4,9.3,7.3
				c1.3,0.7,2.7,1.5,4.1,2c0,0,0.1,0,0.1,0c0.1,0,0.2,0.1,0.2,0.1l0,0c0.7,0.3,1.5,0.4,2.3,0.5c0.6,0.1,1.2,0.1,1.8,0
				c-1.9,3.8-6,6-9.4,8.6c-0.5,0.4-1,0.8-1.4,1.2c0,0,0,0,0,0c-1.8,1.2-6.7,2.2-10.5,2.6c-1.5,0.2-2.9,0.2-3.7,0.1
				c-3.5-0.3-6.8-2.1-10.2-3c-4.1-1.2-8.7-1.3-12.3-3.7c-2.1-1.4-3.7-3.4-5.3-5.3c-0.4-0.5-0.9-1.1-1-1.8
				C673.5,1135.6,674,1134.7,674.5,1134z"/>
			<g>
				<path class="st7" d="M677.4,1134.6c3.9-0.2,7.8-0.3,11.7-0.2c0.6,0,1.1,0,1.7,0c0.5,0,1,0,1.4,0.1c0.9,0,1.8,0.1,2.7,0.1
					c1.9,0.1,3.9,0.3,5.8,0.4c0.5,0,1,0.1,1.6,0.2c0.1,0,0.3,0,0.4,0c1.3,0.1,2.6,0.3,3.9,0.4c0.9,0.1,1.8,0.2,2.7,0.3
					c0.2,0,0.5,0.1,0.7,0.1c0.8,0.1,1.6,0.2,2.4,0.4c1,0.2,1.9,0.3,2.9,0.5c1,0.2,1.9,0.3,2.9,0.5c0.9,0.1,1.9,0.2,2.8,0.1
					c0.7-0.1,1.4-0.3,1.9-0.7c0,0,0.1,0,0.1,0c-0.2,0.2-0.4,0.3-0.6,0.5c-0.4,0.3-0.9,0.4-1.4,0.5c-1,0.2-2,0.2-3,0.2
					c-2-0.2-3.9-0.4-5.8-0.6l-2-0.2l-0.3,0l-3.5-0.3c-1.2-0.1-2.4-0.2-3.5-0.3l-0.5,0c-0.6,0-1.2-0.1-1.7-0.1
					c-1.9-0.2-3.9-0.3-5.8-0.5l-2.3-0.2l-0.5,0l-3-0.2C685.2,1135.2,681.3,1135,677.4,1134.6z"/>
				<path class="st7" d="M692.9,1135.1c-0.4,0.9-0.8,1.8-1.3,2.6c-0.5,0.8-1,1.6-1.6,2.3c-0.6,0.7-1.2,1.5-1.8,2.2
					c-0.7,0.7-1.4,1.3-2.2,1.9c0.3-0.9,0.8-1.8,1.3-2.6c0.5-0.8,1-1.6,1.6-2.3c0.6-0.7,1.2-1.5,1.8-2.2
					C691.4,1136.3,692.1,1135.7,692.9,1135.1L692.9,1135.1z"/>
				<path class="st7" d="M703,1135.7c0,1-0.2,2-0.5,2.9c-0.3,0.9-0.7,1.9-1.2,2.7c-0.5,0.9-1.1,1.7-1.8,2.4
					c-0.7,0.7-1.5,1.4-2.4,1.8c0.5-0.9,1-1.7,1.5-2.5c0.5-0.8,1-1.6,1.5-2.4c0.5-0.8,0.9-1.6,1.4-2.4
					C702,1137.4,702.5,1136.5,703,1135.7L703,1135.7z"/>
				<path class="st7" d="M710.1,1136.5c0.5,1.2,0.6,2.5,0.6,3.8c0,1.3-0.3,2.6-0.7,3.8c-0.4,1.2-1.1,2.4-1.8,3.4
					c-0.8,1-1.7,1.9-2.9,2.6c0.7-1.1,1.4-2.1,1.9-3.2c0.6-1.1,1.1-2.2,1.4-3.3c0.4-1.1,0.7-2.3,0.9-3.5
					C709.8,1139,710,1137.8,710.1,1136.5L710.1,1136.5z"/>
				<path class="st7" d="M693,1135.5c-0.8-0.3-1.5-0.6-2.2-1.1c-0.7-0.4-1.3-0.9-2-1.5c-0.6-0.5-1.2-1.1-1.7-1.8
					c-0.5-0.6-1-1.3-1.3-2.1c0.8,0.4,1.4,0.8,2.1,1.3c0.6,0.5,1.3,1,1.9,1.5c0.6,0.5,1.2,1.1,1.7,1.7
					C692,1134.2,692.5,1134.8,693,1135.5L693,1135.5z"/>
				<path class="st7" d="M702.8,1136c-0.5-0.9-0.9-1.8-1.4-2.6c-0.5-0.8-1-1.6-1.6-2.3c-0.6-0.7-1.2-1.4-1.9-2.1
					c-0.7-0.7-1.4-1.3-2.2-2c1,0.2,2,0.6,2.8,1.1c0.9,0.6,1.6,1.3,2.3,2.1c0.6,0.8,1.2,1.7,1.5,2.7
					C702.7,1133.9,702.9,1134.9,702.8,1136L702.8,1136z"/>
				<path class="st7" d="M710.2,1136.6c-0.7-0.4-1.3-0.9-1.9-1.5c-0.6-0.5-1.1-1.1-1.6-1.7c-0.5-0.6-1-1.2-1.4-1.9
					c-0.4-0.7-0.8-1.4-1.1-2.2c0.7,0.4,1.3,0.9,1.9,1.5c0.6,0.5,1.1,1.1,1.6,1.7c0.5,0.6,1,1.2,1.4,1.9
					C709.6,1135.2,710,1135.9,710.2,1136.6L710.2,1136.6z"/>
			</g>
		</g>
		<g class="st29">
			<path class="st30" d="M628.7,1199.5c4.9,7.9,13.9,13.1,23.2,13.4c7,0.3,13.9-2.1,20.6-4.4c2.9-4.1,7.5-6.5,12-8.8
				c1.7-0.9,3.4-1.8,5.3-2.4c0,0,0.1,0,0.2-0.1c0.1,0,0.2-0.1,0.3-0.1l0,0c0.9-0.3,1.9-0.5,2.8-0.6c0.8-0.1,1.5-0.1,2.3,0
				c-2.2-4.8-7.3-7.7-11.4-11.1c-0.6-0.5-1.2-1-1.7-1.6c0,0,0,0,0,0c-2.2-1.6-8.3-3-13-3.6c-1.9-0.3-3.6-0.4-4.7-0.3
				c-4.5,0.3-8.6,2.4-12.9,3.5c-5.2,1.4-10.9,1.4-15.6,4.2c-2.7,1.6-4.8,4.1-6.9,6.5c-0.6,0.7-1.1,1.4-1.3,2.2
				C627.6,1197.5,628.1,1198.5,628.7,1199.5z"/>
			<g>
				<path class="st7" d="M688.4,1196.8c0,0-2.5-0.3-3.7-0.3c-2.5,0.2-4.9,0.4-7.3,0.5l-2.5,0.2l-0.4,0l-4.4,0.3
					c-1.5,0.1-3,0.2-4.5,0.3l-0.6,0c-0.7,0-1.5,0.1-2.2,0.1c-2.4,0.2-4.9,0.3-7.3,0.4l-2.8,0.1l-0.7,0l-3.8,0.2
					c-4.9,0.2-9.8,0.5-14.6,0.7c4.9,0.4,9.8,0.6,14.7,0.6c0.7,0,1.4,0,2.1,0c0.6,0,1.2,0,1.8,0c1.1,0,2.3,0,3.4-0.1
					c2.4-0.1,4.9-0.2,7.3-0.3c0.7,0,1.3-0.1,2-0.1c0.2,0,0.3,0,0.5,0c1.6-0.1,3.2-0.2,4.9-0.4c1.1-0.1,2.3-0.2,3.4-0.3
					c0.3,0,0.6-0.1,0.9-0.1c1-0.1,2-0.2,3-0.4c1.2-0.2,2.4-0.3,3.6-0.5c1.2-0.2,2.4-0.4,3.6-0.5c1.2-0.1,3.6-0.1,3.6-0.1
					L688.4,1196.8z"/>
				<path class="st7" d="M652.9,1199.5c-0.4-1.2-1-2.2-1.5-3.3c-0.6-1-1.2-2-1.9-3c-0.7-1-1.4-1.9-2.2-2.8c-0.8-0.9-1.6-1.7-2.6-2.5
					c0.4,1.2,0.9,2.2,1.5,3.3c0.6,1,1.2,2,1.9,3c0.7,1,1.4,1.9,2.2,2.8C651.1,1197.9,651.9,1198.8,652.9,1199.5L652.9,1199.5z"/>
				<path class="st7" d="M665.6,1199.1c0.1-1.3-0.2-2.5-0.5-3.7c-0.3-1.2-0.8-2.4-1.4-3.4c-0.6-1.1-1.3-2.1-2.2-3
					c-0.8-0.9-1.8-1.7-2.9-2.3c0.6,1.1,1.2,2.1,1.8,3.2c0.6,1,1.2,2,1.8,3.1c0.6,1,1.1,2.1,1.7,3.1
					C664.4,1197,665,1198.1,665.6,1199.1L665.6,1199.1z"/>
				<path class="st7" d="M674.5,1198.3c0.6-1.5,0.9-3.1,0.9-4.7c0-1.6-0.2-3.2-0.7-4.8c-0.5-1.6-1.2-3-2.2-4.3
					c-1-1.3-2.1-2.5-3.5-3.3c0.9,1.3,1.7,2.7,2.3,4c0.7,1.4,1.2,2.7,1.7,4.2c0.5,1.4,0.8,2.9,1,4.4
					C674.3,1195.2,674.4,1196.7,674.5,1198.3L674.5,1198.3z"/>
				<path class="st7" d="M653,1199c-1,0.3-2,0.8-2.8,1.3c-0.9,0.5-1.7,1.1-2.5,1.8c-0.8,0.7-1.5,1.4-2.2,2.2
					c-0.7,0.8-1.3,1.6-1.8,2.6c1-0.5,1.8-1,2.7-1.6c0.8-0.6,1.6-1.2,2.4-1.8c0.8-0.6,1.5-1.3,2.2-2
					C651.7,1200.6,652.4,1199.9,653,1199L653,1199z"/>
				<path class="st7" d="M665.3,1198.8c-0.6,1.1-1.2,2.2-1.9,3.2c-0.7,1-1.4,1.9-2.1,2.8c-0.8,0.9-1.6,1.8-2.4,2.6
					c-0.9,0.8-1.8,1.6-2.8,2.4c1.3-0.2,2.5-0.7,3.6-1.3c1.1-0.7,2.1-1.5,2.9-2.5c0.8-1,1.5-2.1,2-3.3
					C665.1,1201.3,665.4,1200.1,665.3,1198.8L665.3,1198.8z"/>
				<path class="st7" d="M674.7,1198.1c-0.9,0.5-1.7,1.1-2.4,1.8c-0.7,0.7-1.4,1.4-2.1,2.1c-0.6,0.7-1.3,1.5-1.8,2.3
					c-0.5,0.8-1.1,1.7-1.4,2.7c0.9-0.5,1.7-1.1,2.5-1.8c0.7-0.7,1.4-1.4,2.1-2.1c0.6-0.7,1.3-1.5,1.8-2.3
					C673.8,1200,674.3,1199.1,674.7,1198.1L674.7,1198.1z"/>
			</g>
		</g>
	</g>
</g>
<g id="Layer_8" class="st0">
	<g class="st1">
		<defs>
			<rect id="SVGID_15_" width="750" height="1334"/>
		</defs>
		<clipPath id="SVGID_16_">
			<use xlink:href="#SVGID_15_"  style="overflow:visible;"/>
		</clipPath>
		<g class="st31">
			<path class="st28" d="M691.7,1126.8c0.2-6.6,3.7-12.9,9.2-16.5c4.2-2.7,9.1-3.8,14-4.8c3.2,1.4,6.9,1.2,10.4,1
				c1.3-0.1,2.7-0.2,4-0.4c0,0,0.1,0,0.1,0c0.1,0,0.1,0,0.2-0.1l0,0c0.7-0.2,1.3-0.4,1.9-0.7c0.5-0.2,0.9-0.5,1.4-0.8
				c0.4,3.7-1.7,7.3-2.9,10.8c-0.2,0.5-0.4,1-0.5,1.6c0,0,0,0,0,0c-0.7,1.7-4,4.8-6.6,6.9c-1.1,0.8-2,1.5-2.7,1.9
				c-2.8,1.4-6,1.7-9,2.5c-3.6,1-7.1,3.1-10.9,3.1c-2.2,0-4.4-0.7-6.5-1.5c-0.6-0.2-1.2-0.4-1.6-0.9
				C691.7,1128.4,691.7,1127.6,691.7,1126.8z"/>
			<g>
				<g>
					<path class="st32" d="M694.2,1125.9c2.8-2,5.7-3.9,8.6-5.6c0.4-0.3,0.8-0.5,1.3-0.8c0.4-0.2,0.7-0.4,1.1-0.6
						c0.7-0.4,1.4-0.8,2.1-1.2c1.5-0.8,3-1.6,4.6-2.4c0.4-0.2,0.8-0.4,1.2-0.6c0.1-0.1,0.2-0.1,0.3-0.2c1-0.5,2-1,3.1-1.5
						c0.7-0.3,1.4-0.7,2.2-1c0.2-0.1,0.4-0.2,0.6-0.3c0.7-0.3,1.3-0.6,2-0.9c0.8-0.3,1.6-0.7,2.4-1c0.8-0.3,1.6-0.6,2.4-1
						c0.8-0.3,1.5-0.7,2.2-1.2c0.5-0.4,0.9-0.9,1.1-1.4c0,0,0.1,0,0.1,0c-0.1,0.2-0.1,0.4-0.2,0.6c-0.2,0.4-0.5,0.7-0.8,1.1
						c-0.6,0.6-1.4,1.1-2.1,1.5c-1.5,0.8-3.1,1.5-4.6,2.3l-1.6,0.8l-0.3,0.1l-2.8,1.4c-0.9,0.5-1.9,0.9-2.8,1.4l-0.4,0.2
						c-0.5,0.2-0.9,0.5-1.4,0.7c-1.5,0.8-3,1.6-4.6,2.4l-1.8,0.9l-0.4,0.2l-2.4,1.3C700.3,1122.7,697.3,1124.3,694.2,1125.9z"/>
					<path class="st32" d="M706,1118.9c0.2,0.9,0.2,1.7,0.2,2.5c0,0.8,0,1.7-0.1,2.5c-0.1,0.8-0.2,1.7-0.4,2.5
						c-0.2,0.8-0.4,1.6-0.7,2.4c-0.2-0.9-0.2-1.7-0.2-2.5c0-0.8,0-1.7,0.1-2.5c0.1-0.8,0.2-1.7,0.4-2.5
						C705.5,1120.6,705.7,1119.7,706,1118.9L706,1118.9z"/>
					<path class="st32" d="M713.8,1114.6c0.5,0.7,0.8,1.6,1,2.4c0.2,0.8,0.3,1.7,0.4,2.6c0,0.9-0.1,1.8-0.2,2.6
						c-0.2,0.9-0.5,1.7-0.9,2.5c0-0.9,0-1.7,0-2.6c0-0.8,0-1.7,0-2.5c0-0.8-0.1-1.7-0.1-2.5C713.9,1116.3,713.8,1115.5,713.8,1114.6
						L713.8,1114.6z"/>
					<path class="st32" d="M719.5,1111.9c0.9,0.7,1.7,1.6,2.2,2.5c0.6,1,1,2.1,1.3,3.2c0.3,1.1,0.3,2.3,0.2,3.4
						c-0.1,1.1-0.4,2.3-0.9,3.3c0-1.1,0-2.2,0-3.3c-0.1-1.1-0.2-2.1-0.5-3.1c-0.2-1-0.5-2-0.9-3
						C720.5,1113.9,720,1112.9,719.5,1111.9L719.5,1111.9z"/>
					<path class="st32" d="M706.3,1119.2c-0.7,0.2-1.5,0.2-2.2,0.2c-0.7,0-1.4-0.1-2.1-0.2c-0.7-0.1-1.4-0.3-2.1-0.5
						c-0.7-0.2-1.4-0.5-2-0.9c0.7-0.1,1.5-0.1,2.2,0c0.7,0.1,1.4,0.1,2.1,0.3c0.7,0.1,1.4,0.3,2.1,0.4
						C704.9,1118.7,705.6,1118.9,706.3,1119.2L706.3,1119.2z"/>
					<path class="st32" d="M713.8,1114.9c-0.8-0.5-1.5-0.9-2.3-1.2c-0.8-0.4-1.5-0.7-2.3-1c-0.8-0.3-1.6-0.5-2.4-0.7
						c-0.8-0.2-1.7-0.3-2.5-0.5c0.8-0.4,1.7-0.5,2.7-0.5c0.9,0,1.8,0.2,2.7,0.5c0.9,0.3,1.7,0.7,2.4,1.3
						C712.7,1113.5,713.3,1114.1,713.8,1114.9L713.8,1114.9z"/>
					<path class="st32" d="M719.6,1111.9c-0.7,0-1.4-0.1-2.1-0.2c-0.7-0.1-1.3-0.3-2-0.5c-0.7-0.2-1.3-0.5-1.9-0.8
						c-0.6-0.3-1.2-0.6-1.8-1.1c0.7,0,1.4,0.1,2.1,0.2c0.7,0.1,1.3,0.3,2,0.5c0.7,0.2,1.3,0.5,1.9,0.8
						C718.5,1111.2,719.1,1111.5,719.6,1111.9L719.6,1111.9z"/>
				</g>
			</g>
		</g>
		<g class="st31">
			<path class="st11" d="M500.6,1124.2c2.4,4.5,7,7.6,12,8.1c3.8,0.4,7.6-0.6,11.2-1.6c1.7-2.1,4.3-3.2,6.8-4.3
				c0.9-0.4,1.9-0.8,2.9-1.1c0,0,0.1,0,0.1,0c0.1,0,0.1,0,0.2,0l0,0c0.5-0.1,1-0.2,1.6-0.2c0.4,0,0.8,0,1.2,0.1
				c-1-2.7-3.7-4.4-5.8-6.4c-0.3-0.3-0.6-0.6-0.9-0.9c0,0,0,0,0,0c-1.1-0.9-4.4-1.9-6.9-2.5c-1-0.2-1.9-0.3-2.5-0.3
				c-2.4,0-4.7,0.9-7.1,1.4c-2.9,0.5-6,0.3-8.6,1.7c-1.5,0.8-2.7,2-3.9,3.2c-0.3,0.3-0.7,0.7-0.8,1.1
				C500.1,1123,500.3,1123.6,500.6,1124.2z"/>
			<g>
				<path class="st7" d="M502.6,1123.9c2.6,0.4,5.3,0.7,7.9,0.9c0.4,0,0.8,0.1,1.1,0.1c0.3,0,0.6,0,1,0.1c0.6,0,1.2,0.1,1.9,0.1
					c1.3,0,2.6,0.1,4,0.1c0.4,0,0.7,0,1.1,0c0.1,0,0.2,0,0.3,0c0.9,0,1.8,0,2.6,0c0.6,0,1.2,0,1.8-0.1c0.2,0,0.3,0,0.5,0
					c0.5,0,1.1,0,1.7-0.1c0.7,0,1.3-0.1,2-0.1c0.7,0,1.3-0.1,2-0.2c0.6,0,1.3,0,1.9,0.1c0.5,0.1,0.9,0.3,1.3,0.6c0,0,0.1,0,0.1,0
					c-0.1-0.1-0.2-0.2-0.4-0.4c-0.3-0.2-0.6-0.3-0.9-0.5c-0.6-0.2-1.3-0.3-2-0.3c-1.3,0-2.6,0-4,0l-1.3,0l-0.2,0l-2.4,0
					c-0.8,0-1.6,0-2.4,0l-0.4,0c-0.4,0-0.8,0-1.2,0c-1.3,0-2.6,0-3.9,0l-1.5,0l-0.4,0l-2.1,0C507.9,1124,505.3,1124,502.6,1123.9z"
					/>
				<path class="st7" d="M513.1,1124.6c-0.2-0.6-0.4-1.2-0.7-1.8c-0.3-0.6-0.6-1.1-0.9-1.7c-0.3-0.5-0.7-1.1-1.1-1.6
					c-0.4-0.5-0.8-1-1.3-1.4c0.2,0.6,0.4,1.2,0.7,1.8c0.3,0.6,0.6,1.1,0.9,1.7c0.3,0.5,0.7,1.1,1.1,1.6
					C512.2,1123.7,512.6,1124.2,513.1,1124.6L513.1,1124.6z"/>
				<path class="st7" d="M520,1124.9c0.1-0.7,0-1.4-0.1-2c-0.1-0.7-0.4-1.3-0.6-1.9c-0.3-0.6-0.6-1.2-1.1-1.7
					c-0.4-0.5-0.9-1-1.5-1.4c0.3,0.6,0.6,1.2,0.9,1.8c0.3,0.6,0.6,1.1,0.8,1.7c0.3,0.6,0.5,1.2,0.8,1.7
					C519.4,1123.7,519.7,1124.3,520,1124.9L520,1124.9z"/>
				<path class="st7" d="M524.8,1124.8c0.4-0.8,0.6-1.6,0.7-2.5c0.1-0.9,0-1.8-0.2-2.6c-0.2-0.9-0.6-1.7-1-2.4
					c-0.5-0.7-1-1.4-1.8-1.9c0.4,0.8,0.8,1.5,1.1,2.3c0.3,0.8,0.6,1.5,0.8,2.3c0.2,0.8,0.3,1.6,0.4,2.4
					C524.8,1123.1,524.8,1123.9,524.8,1124.8L524.8,1124.8z"/>
				<path class="st7" d="M513.2,1124.3c-0.6,0.1-1.1,0.3-1.6,0.6c-0.5,0.3-1,0.5-1.4,0.9c-0.4,0.3-0.9,0.7-1.3,1.1
					c-0.4,0.4-0.8,0.8-1,1.3c0.5-0.2,1-0.5,1.5-0.8c0.5-0.3,0.9-0.6,1.4-0.9c0.4-0.3,0.9-0.7,1.3-1
					C512.4,1125.2,512.8,1124.8,513.2,1124.3L513.2,1124.3z"/>
				<path class="st7" d="M519.8,1124.7c-0.4,0.6-0.7,1.1-1.1,1.6c-0.4,0.5-0.8,1-1.2,1.5c-0.4,0.5-0.9,0.9-1.4,1.3
					c-0.5,0.4-1,0.8-1.6,1.2c0.7,0,1.4-0.3,2-0.6c0.6-0.3,1.2-0.8,1.7-1.3c0.5-0.5,0.9-1.1,1.2-1.7
					C519.6,1126.1,519.8,1125.4,519.8,1124.7L519.8,1124.7z"/>
				<path class="st7" d="M524.9,1124.7c-0.5,0.2-1,0.5-1.4,0.9c-0.4,0.3-0.8,0.7-1.2,1c-0.4,0.4-0.7,0.8-1.1,1.2
					c-0.3,0.4-0.6,0.9-0.9,1.4c0.5-0.2,1-0.5,1.4-0.9c0.4-0.3,0.8-0.7,1.2-1c0.4-0.4,0.7-0.8,1.1-1.2
					C524.4,1125.7,524.7,1125.2,524.9,1124.7L524.9,1124.7z"/>
			</g>
		</g>
		<g class="st31">
			<path class="st28" d="M622,1111.9c-0.6,4.6-3.6,8.7-7.6,10.8c-3.1,1.6-6.6,1.9-10.1,2.3c-2.1-1.2-4.7-1.4-7.2-1.5
				c-0.9-0.1-1.9-0.1-2.8,0c0,0-0.1,0-0.1,0c-0.1,0-0.1,0-0.2,0l0,0c-0.5,0.1-0.9,0.2-1.4,0.3c-0.4,0.1-0.7,0.3-1,0.5
				c0-2.6,1.7-4.9,2.9-7.3c0.2-0.3,0.3-0.7,0.5-1.1c0,0,0,0,0,0c0.6-1.1,3.1-3.1,5.1-4.3c0.8-0.5,1.5-0.9,2-1.1
				c2-0.8,4.3-0.7,6.5-1.1c2.6-0.5,5.2-1.6,7.8-1.3c1.5,0.2,3,0.8,4.4,1.5c0.4,0.2,0.8,0.4,1,0.7
				C622.1,1110.7,622.1,1111.3,622,1111.9z"/>
			<g>
				<path class="st33" d="M620.2,1112.3c-2.1,1.2-4.3,2.3-6.5,3.3c-0.3,0.1-0.6,0.3-0.9,0.4c-0.3,0.1-0.5,0.2-0.8,0.4
					c-0.5,0.2-1,0.4-1.6,0.7c-1.1,0.5-2.2,0.9-3.4,1.4c-0.3,0.1-0.6,0.2-0.9,0.3c-0.1,0-0.1,0.1-0.2,0.1c-0.7,0.3-1.5,0.6-2.3,0.8
					c-0.5,0.2-1.1,0.4-1.6,0.5c-0.1,0-0.3,0.1-0.4,0.1c-0.5,0.2-1,0.3-1.4,0.5c-0.6,0.2-1.1,0.4-1.7,0.5c-0.6,0.2-1.2,0.3-1.7,0.5
					c-0.6,0.2-1.1,0.4-1.6,0.7c-0.4,0.2-0.7,0.5-0.9,0.9c0,0-0.1,0-0.1,0c0.1-0.1,0.1-0.3,0.2-0.4c0.2-0.3,0.4-0.5,0.6-0.7
					c0.5-0.4,1-0.7,1.6-0.9c1.1-0.4,2.3-0.8,3.4-1.3l1.1-0.4l0.2-0.1l2-0.8c0.7-0.3,1.4-0.5,2.1-0.8l0.3-0.1c0.3-0.1,0.7-0.3,1-0.4
					c1.1-0.4,2.2-0.9,3.4-1.3l1.3-0.5l0.3-0.1l1.8-0.7C615.7,1114.1,617.9,1113.2,620.2,1112.3z"/>
				<path class="st33" d="M611.4,1116.3c-0.1-0.6,0-1.2,0-1.8c0.1-0.6,0.1-1.2,0.3-1.7c0.1-0.6,0.3-1.1,0.4-1.7
					c0.2-0.6,0.4-1.1,0.7-1.6c0.1,0.6,0,1.2,0,1.8c-0.1,0.6-0.1,1.2-0.3,1.7c-0.1,0.6-0.3,1.1-0.4,1.7
					C611.9,1115.2,611.7,1115.7,611.4,1116.3L611.4,1116.3z"/>
				<path class="st33" d="M605.7,1118.7c-0.3-0.6-0.4-1.2-0.5-1.8c-0.1-0.6-0.1-1.2-0.1-1.8c0-0.6,0.2-1.2,0.4-1.8
					c0.2-0.6,0.4-1.1,0.8-1.7c0,0.6-0.1,1.2-0.2,1.8c-0.1,0.6-0.1,1.2-0.2,1.7c0,0.6-0.1,1.2-0.1,1.7
					C605.8,1117.5,605.8,1118.1,605.7,1118.7L605.7,1118.7z"/>
				<path class="st33" d="M601.5,1120.1c-0.6-0.5-1-1.2-1.4-1.9c-0.3-0.7-0.6-1.5-0.6-2.3c-0.1-0.8-0.1-1.6,0.1-2.4
					c0.2-0.8,0.4-1.5,0.9-2.2c-0.1,0.8-0.2,1.5-0.2,2.3c0,0.7,0,1.5,0.1,2.2c0.1,0.7,0.2,1.5,0.4,2.2
					C601,1118.7,601.3,1119.4,601.5,1120.1L601.5,1120.1z"/>
				<path class="st33" d="M611.3,1116c0.5-0.1,1-0.1,1.5,0c0.5,0.1,1,0.2,1.5,0.3c0.5,0.1,1,0.3,1.4,0.5c0.5,0.2,0.9,0.5,1.3,0.8
					c-0.5,0-1-0.1-1.5-0.2c-0.5-0.1-1-0.2-1.4-0.3c-0.5-0.1-0.9-0.3-1.4-0.5C612.2,1116.5,611.8,1116.3,611.3,1116L611.3,1116z"/>
				<path class="st33" d="M605.7,1118.5c0.5,0.4,1,0.7,1.5,1c0.5,0.3,1,0.6,1.5,0.8c0.5,0.2,1.1,0.5,1.6,0.7
					c0.6,0.2,1.1,0.3,1.7,0.5c-0.6,0.2-1.3,0.2-1.9,0.1c-0.6-0.1-1.3-0.3-1.8-0.5c-0.6-0.3-1.1-0.6-1.6-1.1
					C606.4,1119.6,606,1119,605.7,1118.5L605.7,1118.5z"/>
				<path class="st33" d="M601.4,1120.1c0.5,0,1,0.2,1.5,0.3c0.5,0.1,0.9,0.3,1.4,0.5c0.4,0.2,0.9,0.4,1.3,0.7
					c0.4,0.3,0.8,0.5,1.2,0.9c-0.5,0-1-0.2-1.5-0.3c-0.5-0.1-0.9-0.3-1.4-0.5c-0.4-0.2-0.9-0.4-1.3-0.7
					C602.2,1120.7,601.8,1120.5,601.4,1120.1L601.4,1120.1z"/>
			</g>
		</g>
	</g>
</g>
</svg>
