<?xml version="1.0" encoding="utf-8"?>
<!-- Generator: Adobe Illustrator 22.0.1, SVG Export Plug-In . SVG Version: 6.00 Build 0)  -->
<svg version="1.1" id="Layer_1" xmlns="http://www.w3.org/2000/svg" xmlns:xlink="http://www.w3.org/1999/xlink" x="0px" y="0px"
	 viewBox="0 0 750 1334" style="enable-background:new 0 0 750 1334;" xml:space="preserve">
<style type="text/css">
	.st0{clip-path:url(#SVGID_2_);}
	.st1{fill:#BF7C40;}
	.st2{fill:#A16C44;}
	.st3{clip-path:url(#SVGID_4_);}
	.st4{fill:#D75B4D;}
</style>
<g id="Layer_7">
	<g>
		<g>
			<defs>
				<rect id="SVGID_1_" width="750" height="1334"/>
			</defs>
			<clipPath id="SVGID_2_">
				<use xlink:href="#SVGID_1_"  style="overflow:visible;"/>
			</clipPath>
			<g class="st0">
				<path class="st1" d="M674.5,1134c4.1-6.2,11.4-10.2,18.8-10.3c5.6-0.1,11,1.9,16.3,3.9c2.2,3.3,5.8,5.4,9.3,7.3
					c1.3,0.7,2.7,1.5,4.1,2h0.1c0.1,0,0.2,0.1,0.2,0.1l0,0c0.7,0.3,1.5,0.4,2.3,0.5c0.6,0.1,1.2,0.1,1.8,0c-1.9,3.8-6,6-9.4,8.6
					c-0.5,0.4-1,0.8-1.4,1.2l0,0c-1.8,1.2-6.7,2.2-10.5,2.6c-1.5,0.2-2.9,0.2-3.7,0.1c-3.5-0.3-6.8-2.1-10.2-3
					c-4.1-1.2-8.7-1.3-12.3-3.7c-2.1-1.4-3.7-3.4-5.3-5.3c-0.4-0.5-0.9-1.1-1-1.8C673.5,1135.6,674,1134.7,674.5,1134z"/>
				<g>
					<path class="st2" d="M677.4,1134.6c3.9-0.2,7.8-0.3,11.7-0.2c0.6,0,1.1,0,1.7,0c0.5,0,1,0,1.4,0.1c0.9,0,1.8,0.1,2.7,0.1
						c1.9,0.1,3.9,0.3,5.8,0.4c0.5,0,1,0.1,1.6,0.2c0.1,0,0.3,0,0.4,0c1.3,0.1,2.6,0.3,3.9,0.4c0.9,0.1,1.8,0.2,2.7,0.3
						c0.2,0,0.5,0.1,0.7,0.1c0.8,0.1,1.6,0.2,2.4,0.4c1,0.2,1.9,0.3,2.9,0.5s1.9,0.3,2.9,0.5c0.9,0.1,1.9,0.2,2.8,0.1
						c0.7-0.1,1.4-0.3,1.9-0.7h0.1c-0.2,0.2-0.4,0.3-0.6,0.5c-0.4,0.3-0.9,0.4-1.4,0.5c-1,0.2-2,0.2-3,0.2c-2-0.2-3.9-0.4-5.8-0.6
						l-2-0.2h-0.3l-3.5-0.3c-1.2-0.1-2.4-0.2-3.5-0.3h-0.5c-0.6,0-1.2-0.1-1.7-0.1c-1.9-0.2-3.9-0.3-5.8-0.5l-2.3-0.2h-0.5l-3-0.2
						C685.2,1135.2,681.3,1135,677.4,1134.6z"/>
					<path class="st2" d="M692.9,1135.1c-0.4,0.9-0.8,1.8-1.3,2.6c-0.5,0.8-1,1.6-1.6,2.3c-0.6,0.7-1.2,1.5-1.8,2.2
						c-0.7,0.7-1.4,1.3-2.2,1.9c0.3-0.9,0.8-1.8,1.3-2.6c0.5-0.8,1-1.6,1.6-2.3c0.6-0.7,1.2-1.5,1.8-2.2
						C691.4,1136.3,692.1,1135.7,692.9,1135.1L692.9,1135.1z"/>
					<path class="st2" d="M703,1135.7c0,1-0.2,2-0.5,2.9s-0.7,1.9-1.2,2.7c-0.5,0.9-1.1,1.7-1.8,2.4c-0.7,0.7-1.5,1.4-2.4,1.8
						c0.5-0.9,1-1.7,1.5-2.5s1-1.6,1.5-2.4s0.9-1.6,1.4-2.4C702,1137.4,702.5,1136.5,703,1135.7L703,1135.7z"/>
					<path class="st2" d="M710.1,1136.5c0.5,1.2,0.6,2.5,0.6,3.8s-0.3,2.6-0.7,3.8c-0.4,1.2-1.1,2.4-1.8,3.4c-0.8,1-1.7,1.9-2.9,2.6
						c0.7-1.1,1.4-2.1,1.9-3.2c0.6-1.1,1.1-2.2,1.4-3.3c0.4-1.1,0.7-2.3,0.9-3.5C709.8,1139,710,1137.8,710.1,1136.5L710.1,1136.5z"
						/>
					<path class="st2" d="M693,1135.5c-0.8-0.3-1.5-0.6-2.2-1.1c-0.7-0.4-1.3-0.9-2-1.5c-0.6-0.5-1.2-1.1-1.7-1.8
						c-0.5-0.6-1-1.3-1.3-2.1c0.8,0.4,1.4,0.8,2.1,1.3c0.6,0.5,1.3,1,1.9,1.5c0.6,0.5,1.2,1.1,1.7,1.7
						C692,1134.2,692.5,1134.8,693,1135.5L693,1135.5z"/>
					<path class="st2" d="M702.8,1136c-0.5-0.9-0.9-1.8-1.4-2.6c-0.5-0.8-1-1.6-1.6-2.3c-0.6-0.7-1.2-1.4-1.9-2.1s-1.4-1.3-2.2-2
						c1,0.2,2,0.6,2.8,1.1c0.9,0.6,1.6,1.3,2.3,2.1c0.6,0.8,1.2,1.7,1.5,2.7C702.7,1133.9,702.9,1134.9,702.8,1136L702.8,1136z"/>
					<path class="st2" d="M710.2,1136.6c-0.7-0.4-1.3-0.9-1.9-1.5c-0.6-0.5-1.1-1.1-1.6-1.7s-1-1.2-1.4-1.9
						c-0.4-0.7-0.8-1.4-1.1-2.2c0.7,0.4,1.3,0.9,1.9,1.5c0.6,0.5,1.1,1.1,1.6,1.7s1,1.2,1.4,1.9
						C709.6,1135.2,710,1135.9,710.2,1136.6L710.2,1136.6z"/>
				</g>
			</g>
		</g>
		<g>
			<defs>
				<rect id="SVGID_3_" width="750" height="1334"/>
			</defs>
			<clipPath id="SVGID_4_">
				<use xlink:href="#SVGID_3_"  style="overflow:visible;"/>
			</clipPath>
			<g class="st3">
				<path class="st4" d="M628.7,1199.5c4.9,7.9,13.9,13.1,23.2,13.4c7,0.3,13.9-2.1,20.6-4.4c2.9-4.1,7.5-6.5,12-8.8
					c1.7-0.9,3.4-1.8,5.3-2.4c0,0,0.1,0,0.2-0.1c0.1,0,0.2-0.1,0.3-0.1l0,0c0.9-0.3,1.9-0.5,2.8-0.6c0.8-0.1,1.5-0.1,2.3,0
					c-2.2-4.8-7.3-7.7-11.4-11.1c-0.6-0.5-1.2-1-1.7-1.6l0,0c-2.2-1.6-8.3-3-13-3.6c-1.9-0.3-3.6-0.4-4.7-0.3
					c-4.5,0.3-8.6,2.4-12.9,3.5c-5.2,1.4-10.9,1.4-15.6,4.2c-2.7,1.6-4.8,4.1-6.9,6.5c-0.6,0.7-1.1,1.4-1.3,2.2
					C627.6,1197.5,628.1,1198.5,628.7,1199.5z"/>
				<g>
					<path class="st2" d="M688.4,1196.8c0,0-2.5-0.3-3.7-0.3c-2.5,0.2-4.9,0.4-7.3,0.5l-2.5,0.2h-0.4l-4.4,0.3
						c-1.5,0.1-3,0.2-4.5,0.3H665c-0.7,0-1.5,0.1-2.2,0.1c-2.4,0.2-4.9,0.3-7.3,0.4l-2.8,0.1H652l-3.8,0.2
						c-4.9,0.2-9.8,0.5-14.6,0.7c4.9,0.4,9.8,0.6,14.7,0.6c0.7,0,1.4,0,2.1,0c0.6,0,1.2,0,1.8,0c1.1,0,2.3,0,3.4-0.1
						c2.4-0.1,4.9-0.2,7.3-0.3c0.7,0,1.3-0.1,2-0.1c0.2,0,0.3,0,0.5,0c1.6-0.1,3.2-0.2,4.9-0.4c1.1-0.1,2.3-0.2,3.4-0.3
						c0.3,0,0.6-0.1,0.9-0.1c1-0.1,2-0.2,3-0.4c1.2-0.2,2.4-0.3,3.6-0.5c1.2-0.2,2.4-0.4,3.6-0.5c1.2-0.1,3.6-0.1,3.6-0.1V1196.8z"
						/>
					<path class="st2" d="M652.9,1199.5c-0.4-1.2-1-2.2-1.5-3.3c-0.6-1-1.2-2-1.9-3s-1.4-1.9-2.2-2.8s-1.6-1.7-2.6-2.5
						c0.4,1.2,0.9,2.2,1.5,3.3c0.6,1,1.2,2,1.9,3s1.4,1.9,2.2,2.8C651.1,1197.9,651.9,1198.8,652.9,1199.5L652.9,1199.5z"/>
					<path class="st2" d="M665.6,1199.1c0.1-1.3-0.2-2.5-0.5-3.7s-0.8-2.4-1.4-3.4c-0.6-1.1-1.3-2.1-2.2-3c-0.8-0.9-1.8-1.7-2.9-2.3
						c0.6,1.1,1.2,2.1,1.8,3.2c0.6,1,1.2,2,1.8,3.1c0.6,1,1.1,2.1,1.7,3.1C664.4,1197,665,1198.1,665.6,1199.1L665.6,1199.1z"/>
					<path class="st2" d="M674.5,1198.3c0.6-1.5,0.9-3.1,0.9-4.7s-0.2-3.2-0.7-4.8c-0.5-1.6-1.2-3-2.2-4.3s-2.1-2.5-3.5-3.3
						c0.9,1.3,1.7,2.7,2.3,4c0.7,1.4,1.2,2.7,1.7,4.2c0.5,1.4,0.8,2.9,1,4.4C674.3,1195.2,674.4,1196.7,674.5,1198.3L674.5,1198.3z"
						/>
					<path class="st2" d="M653,1199c-1,0.3-2,0.8-2.8,1.3c-0.9,0.5-1.7,1.1-2.5,1.8c-0.8,0.7-1.5,1.4-2.2,2.2
						c-0.7,0.8-1.3,1.6-1.8,2.6c1-0.5,1.8-1,2.7-1.6c0.8-0.6,1.6-1.2,2.4-1.8c0.8-0.6,1.5-1.3,2.2-2
						C651.7,1200.6,652.4,1199.9,653,1199L653,1199z"/>
					<path class="st2" d="M665.3,1198.8c-0.6,1.1-1.2,2.2-1.9,3.2s-1.4,1.9-2.1,2.8c-0.8,0.9-1.6,1.8-2.4,2.6
						c-0.9,0.8-1.8,1.6-2.8,2.4c1.3-0.2,2.5-0.7,3.6-1.3c1.1-0.7,2.1-1.5,2.9-2.5c0.8-1,1.5-2.1,2-3.3
						C665.1,1201.3,665.4,1200.1,665.3,1198.8L665.3,1198.8z"/>
					<path class="st2" d="M674.7,1198.1c-0.9,0.5-1.7,1.1-2.4,1.8c-0.7,0.7-1.4,1.4-2.1,2.1c-0.6,0.7-1.3,1.5-1.8,2.3
						s-1.1,1.7-1.4,2.7c0.9-0.5,1.7-1.1,2.5-1.8c0.7-0.7,1.4-1.4,2.1-2.1c0.6-0.7,1.3-1.5,1.8-2.3
						C673.8,1200,674.3,1199.1,674.7,1198.1L674.7,1198.1z"/>
				</g>
			</g>
		</g>
	</g>
</g>
</svg>
