<?xml version="1.0" encoding="utf-8"?>
<!-- Generator: Adobe Illustrator 22.0.1, SVG Export Plug-In . SVG Version: 6.00 Build 0)  -->
<svg version="1.1" id="Layer_1" xmlns="http://www.w3.org/2000/svg" xmlns:xlink="http://www.w3.org/1999/xlink" x="0px" y="0px"
	 viewBox="0 0 750 1334" style="enable-background:new 0 0 750 1334;" xml:space="preserve">
<style type="text/css">
	.st0{clip-path:url(#SVGID_2_);}
	.st1{fill:#77A275;}
	.st2{fill:#537D41;}
	.st3{clip-path:url(#SVGID_4_);}
	.st4{fill:#BF7C40;}
	.st5{fill:#A16C44;}
	.st6{clip-path:url(#SVGID_6_);}
	.st7{fill:#478A71;}
</style>
<g id="Layer_8">
	<g>
		<g>
			<defs>
				<rect id="SVGID_1_" width="750" height="1334"/>
			</defs>
			<clipPath id="SVGID_2_">
				<use xlink:href="#SVGID_1_"  style="overflow:visible;"/>
			</clipPath>
			<g class="st0">
				<path class="st1" d="M691.7,1126.8c0.2-6.6,3.7-12.9,9.2-16.5c4.2-2.7,9.1-3.8,14-4.8c3.2,1.4,6.9,1.2,10.4,1
					c1.3-0.1,2.7-0.2,4-0.4h0.1c0.1,0,0.1,0,0.2-0.1l0,0c0.7-0.2,1.3-0.4,1.9-0.7c0.5-0.2,0.9-0.5,1.4-0.8c0.4,3.7-1.7,7.3-2.9,10.8
					c-0.2,0.5-0.4,1-0.5,1.6l0,0c-0.7,1.7-4,4.8-6.6,6.9c-1.1,0.8-2,1.5-2.7,1.9c-2.8,1.4-6,1.7-9,2.5c-3.6,1-7.1,3.1-10.9,3.1
					c-2.2,0-4.4-0.7-6.5-1.5c-0.6-0.2-1.2-0.4-1.6-0.9C691.7,1128.4,691.7,1127.6,691.7,1126.8z"/>
				<g>
					<g>
						<path class="st2" d="M694.2,1125.9c2.8-2,5.7-3.9,8.6-5.6c0.4-0.3,0.8-0.5,1.3-0.8c0.4-0.2,0.7-0.4,1.1-0.6
							c0.7-0.4,1.4-0.8,2.1-1.2c1.5-0.8,3-1.6,4.6-2.4c0.4-0.2,0.8-0.4,1.2-0.6c0.1-0.1,0.2-0.1,0.3-0.2c1-0.5,2-1,3.1-1.5
							c0.7-0.3,1.4-0.7,2.2-1c0.2-0.1,0.4-0.2,0.6-0.3c0.7-0.3,1.3-0.6,2-0.9c0.8-0.3,1.6-0.7,2.4-1c0.8-0.3,1.6-0.6,2.4-1
							c0.8-0.3,1.5-0.7,2.2-1.2c0.5-0.4,0.9-0.9,1.1-1.4h0.1c-0.1,0.2-0.1,0.4-0.2,0.6c-0.2,0.4-0.5,0.7-0.8,1.1
							c-0.6,0.6-1.4,1.1-2.1,1.5c-1.5,0.8-3.1,1.5-4.6,2.3l-1.6,0.8l-0.3,0.1l-2.8,1.4c-0.9,0.5-1.9,0.9-2.8,1.4l-0.4,0.2
							c-0.5,0.2-0.9,0.5-1.4,0.7c-1.5,0.8-3,1.6-4.6,2.4l-1.8,0.9l-0.4,0.2l-2.4,1.3C700.3,1122.7,697.3,1124.3,694.2,1125.9z"/>
						<path class="st2" d="M706,1118.9c0.2,0.9,0.2,1.7,0.2,2.5s0,1.7-0.1,2.5s-0.2,1.7-0.4,2.5s-0.4,1.6-0.7,2.4
							c-0.2-0.9-0.2-1.7-0.2-2.5s0-1.7,0.1-2.5s0.2-1.7,0.4-2.5C705.5,1120.6,705.7,1119.7,706,1118.9L706,1118.9z"/>
						<path class="st2" d="M713.8,1114.6c0.5,0.7,0.8,1.6,1,2.4s0.3,1.7,0.4,2.6c0,0.9-0.1,1.8-0.2,2.6c-0.2,0.9-0.5,1.7-0.9,2.5
							c0-0.9,0-1.7,0-2.6c0-0.8,0-1.7,0-2.5s-0.1-1.7-0.1-2.5C713.9,1116.3,713.8,1115.5,713.8,1114.6L713.8,1114.6z"/>
						<path class="st2" d="M719.5,1111.9c0.9,0.7,1.7,1.6,2.2,2.5c0.6,1,1,2.1,1.3,3.2s0.3,2.3,0.2,3.4s-0.4,2.3-0.9,3.3
							c0-1.1,0-2.2,0-3.3c-0.1-1.1-0.2-2.1-0.5-3.1c-0.2-1-0.5-2-0.9-3C720.5,1113.9,720,1112.9,719.5,1111.9L719.5,1111.9z"/>
						<path class="st2" d="M706.3,1119.2c-0.7,0.2-1.5,0.2-2.2,0.2s-1.4-0.1-2.1-0.2c-0.7-0.1-1.4-0.3-2.1-0.5
							c-0.7-0.2-1.4-0.5-2-0.9c0.7-0.1,1.5-0.1,2.2,0s1.4,0.1,2.1,0.3c0.7,0.1,1.4,0.3,2.1,0.4
							C704.9,1118.7,705.6,1118.9,706.3,1119.2L706.3,1119.2z"/>
						<path class="st2" d="M713.8,1114.9c-0.8-0.5-1.5-0.9-2.3-1.2c-0.8-0.4-1.5-0.7-2.3-1s-1.6-0.5-2.4-0.7
							c-0.8-0.2-1.7-0.3-2.5-0.5c0.8-0.4,1.7-0.5,2.7-0.5c0.9,0,1.8,0.2,2.7,0.5s1.7,0.7,2.4,1.3
							C712.7,1113.5,713.3,1114.1,713.8,1114.9L713.8,1114.9z"/>
						<path class="st2" d="M719.6,1111.9c-0.7,0-1.4-0.1-2.1-0.2c-0.7-0.1-1.3-0.3-2-0.5s-1.3-0.5-1.9-0.8c-0.6-0.3-1.2-0.6-1.8-1.1
							c0.7,0,1.4,0.1,2.1,0.2c0.7,0.1,1.3,0.3,2,0.5s1.3,0.5,1.9,0.8C718.5,1111.2,719.1,1111.5,719.6,1111.9L719.6,1111.9z"/>
					</g>
				</g>
			</g>
		</g>
		<g>
			<defs>
				<rect id="SVGID_3_" width="750" height="1334"/>
			</defs>
			<clipPath id="SVGID_4_">
				<use xlink:href="#SVGID_3_"  style="overflow:visible;"/>
			</clipPath>
			<g class="st3">
				<path class="st4" d="M500.6,1124.2c2.4,4.5,7,7.6,12,8.1c3.8,0.4,7.6-0.6,11.2-1.6c1.7-2.1,4.3-3.2,6.8-4.3
					c0.9-0.4,1.9-0.8,2.9-1.1h0.1c0.1,0,0.1,0,0.2,0l0,0c0.5-0.1,1-0.2,1.6-0.2c0.4,0,0.8,0,1.2,0.1c-1-2.7-3.7-4.4-5.8-6.4
					c-0.3-0.3-0.6-0.6-0.9-0.9l0,0c-1.1-0.9-4.4-1.9-6.9-2.5c-1-0.2-1.9-0.3-2.5-0.3c-2.4,0-4.7,0.9-7.1,1.4c-2.9,0.5-6,0.3-8.6,1.7
					c-1.5,0.8-2.7,2-3.9,3.2c-0.3,0.3-0.7,0.7-0.8,1.1C500.1,1123,500.3,1123.6,500.6,1124.2z"/>
				<g>
					<path class="st5" d="M502.6,1123.9c2.6,0.4,5.3,0.7,7.9,0.9c0.4,0,0.8,0.1,1.1,0.1c0.3,0,0.6,0,1,0.1c0.6,0,1.2,0.1,1.9,0.1
						c1.3,0,2.6,0.1,4,0.1c0.4,0,0.7,0,1.1,0c0.1,0,0.2,0,0.3,0c0.9,0,1.8,0,2.6,0c0.6,0,1.2,0,1.8-0.1c0.2,0,0.3,0,0.5,0
						c0.5,0,1.1,0,1.7-0.1c0.7,0,1.3-0.1,2-0.1s1.3-0.1,2-0.2c0.6,0,1.3,0,1.9,0.1c0.5,0.1,0.9,0.3,1.3,0.6h0.1
						c-0.1-0.1-0.2-0.2-0.4-0.4c-0.3-0.2-0.6-0.3-0.9-0.5c-0.6-0.2-1.3-0.3-2-0.3c-1.3,0-2.6,0-4,0h-1.3H525h-2.4
						c-0.8,0-1.6,0-2.4,0h-0.4c-0.4,0-0.8,0-1.2,0c-1.3,0-2.6,0-3.9,0h-1.5h-0.4h-2.1C507.9,1124,505.3,1124,502.6,1123.9z"/>
					<path class="st5" d="M513.1,1124.6c-0.2-0.6-0.4-1.2-0.7-1.8c-0.3-0.6-0.6-1.1-0.9-1.7c-0.3-0.5-0.7-1.1-1.1-1.6
						s-0.8-1-1.3-1.4c0.2,0.6,0.4,1.2,0.7,1.8c0.3,0.6,0.6,1.1,0.9,1.7c0.3,0.5,0.7,1.1,1.1,1.6
						C512.2,1123.7,512.6,1124.2,513.1,1124.6L513.1,1124.6z"/>
					<path class="st5" d="M520,1124.9c0.1-0.7,0-1.4-0.1-2c-0.1-0.7-0.4-1.3-0.6-1.9c-0.3-0.6-0.6-1.2-1.1-1.7
						c-0.4-0.5-0.9-1-1.5-1.4c0.3,0.6,0.6,1.2,0.9,1.8c0.3,0.6,0.6,1.1,0.8,1.7c0.3,0.6,0.5,1.2,0.8,1.7
						C519.4,1123.7,519.7,1124.3,520,1124.9L520,1124.9z"/>
					<path class="st5" d="M524.8,1124.8c0.4-0.8,0.6-1.6,0.7-2.5c0.1-0.9,0-1.8-0.2-2.6c-0.2-0.9-0.6-1.7-1-2.4
						c-0.5-0.7-1-1.4-1.8-1.9c0.4,0.8,0.8,1.5,1.1,2.3s0.6,1.5,0.8,2.3s0.3,1.6,0.4,2.4C524.8,1123.1,524.8,1123.9,524.8,1124.8
						L524.8,1124.8z"/>
					<path class="st5" d="M513.2,1124.3c-0.6,0.1-1.1,0.3-1.6,0.6c-0.5,0.3-1,0.5-1.4,0.9c-0.4,0.3-0.9,0.7-1.3,1.1s-0.8,0.8-1,1.3
						c0.5-0.2,1-0.5,1.5-0.8s0.9-0.6,1.4-0.9c0.4-0.3,0.9-0.7,1.3-1C512.4,1125.2,512.8,1124.8,513.2,1124.3L513.2,1124.3z"/>
					<path class="st5" d="M519.8,1124.7c-0.4,0.6-0.7,1.1-1.1,1.6c-0.4,0.5-0.8,1-1.2,1.5s-0.9,0.9-1.4,1.3s-1,0.8-1.6,1.2
						c0.7,0,1.4-0.3,2-0.6c0.6-0.3,1.2-0.8,1.7-1.3s0.9-1.1,1.2-1.7C519.6,1126.1,519.8,1125.4,519.8,1124.7L519.8,1124.7z"/>
					<path class="st5" d="M524.9,1124.7c-0.5,0.2-1,0.5-1.4,0.9c-0.4,0.3-0.8,0.7-1.2,1c-0.4,0.4-0.7,0.8-1.1,1.2
						c-0.3,0.4-0.6,0.9-0.9,1.4c0.5-0.2,1-0.5,1.4-0.9c0.4-0.3,0.8-0.7,1.2-1c0.4-0.4,0.7-0.8,1.1-1.2
						C524.4,1125.7,524.7,1125.2,524.9,1124.7L524.9,1124.7z"/>
				</g>
			</g>
		</g>
		<g>
			<defs>
				<rect id="SVGID_5_" width="750" height="1334"/>
			</defs>
			<clipPath id="SVGID_6_">
				<use xlink:href="#SVGID_5_"  style="overflow:visible;"/>
			</clipPath>
			<g class="st6">
				<path class="st1" d="M622,1111.9c-0.6,4.6-3.6,8.7-7.6,10.8c-3.1,1.6-6.6,1.9-10.1,2.3c-2.1-1.2-4.7-1.4-7.2-1.5
					c-0.9-0.1-1.9-0.1-2.8,0h-0.1c-0.1,0-0.1,0-0.2,0l0,0c-0.5,0.1-0.9,0.2-1.4,0.3c-0.4,0.1-0.7,0.3-1,0.5c0-2.6,1.7-4.9,2.9-7.3
					c0.2-0.3,0.3-0.7,0.5-1.1l0,0c0.6-1.1,3.1-3.1,5.1-4.3c0.8-0.5,1.5-0.9,2-1.1c2-0.8,4.3-0.7,6.5-1.1c2.6-0.5,5.2-1.6,7.8-1.3
					c1.5,0.2,3,0.8,4.4,1.5c0.4,0.2,0.8,0.4,1,0.7C622.1,1110.7,622.1,1111.3,622,1111.9z"/>
				<g>
					<path class="st7" d="M620.2,1112.3c-2.1,1.2-4.3,2.3-6.5,3.3c-0.3,0.1-0.6,0.3-0.9,0.4c-0.3,0.1-0.5,0.2-0.8,0.4
						c-0.5,0.2-1,0.4-1.6,0.7c-1.1,0.5-2.2,0.9-3.4,1.4c-0.3,0.1-0.6,0.2-0.9,0.3c-0.1,0-0.1,0.1-0.2,0.1c-0.7,0.3-1.5,0.6-2.3,0.8
						c-0.5,0.2-1.1,0.4-1.6,0.5c-0.1,0-0.3,0.1-0.4,0.1c-0.5,0.2-1,0.3-1.4,0.5c-0.6,0.2-1.1,0.4-1.7,0.5c-0.6,0.2-1.2,0.3-1.7,0.5
						c-0.6,0.2-1.1,0.4-1.6,0.7c-0.4,0.2-0.7,0.5-0.9,0.9h-0.1c0.1-0.1,0.1-0.3,0.2-0.4c0.2-0.3,0.4-0.5,0.6-0.7
						c0.5-0.4,1-0.7,1.6-0.9c1.1-0.4,2.3-0.8,3.4-1.3l1.1-0.4l0.2-0.1l2-0.8c0.7-0.3,1.4-0.5,2.1-0.8l0.3-0.1c0.3-0.1,0.7-0.3,1-0.4
						c1.1-0.4,2.2-0.9,3.4-1.3l1.3-0.5l0.3-0.1l1.8-0.7C615.7,1114.1,617.9,1113.2,620.2,1112.3z"/>
					<path class="st7" d="M611.4,1116.3c-0.1-0.6,0-1.2,0-1.8c0.1-0.6,0.1-1.2,0.3-1.7c0.1-0.6,0.3-1.1,0.4-1.7
						c0.2-0.6,0.4-1.1,0.7-1.6c0.1,0.6,0,1.2,0,1.8c-0.1,0.6-0.1,1.2-0.3,1.7c-0.1,0.6-0.3,1.1-0.4,1.7
						C611.9,1115.2,611.7,1115.7,611.4,1116.3L611.4,1116.3z"/>
					<path class="st7" d="M605.7,1118.7c-0.3-0.6-0.4-1.2-0.5-1.8c-0.1-0.6-0.1-1.2-0.1-1.8c0-0.6,0.2-1.2,0.4-1.8
						c0.2-0.6,0.4-1.1,0.8-1.7c0,0.6-0.1,1.2-0.2,1.8c-0.1,0.6-0.1,1.2-0.2,1.7c0,0.6-0.1,1.2-0.1,1.7
						C605.8,1117.5,605.8,1118.1,605.7,1118.7L605.7,1118.7z"/>
					<path class="st7" d="M601.5,1120.1c-0.6-0.5-1-1.2-1.4-1.9c-0.3-0.7-0.6-1.5-0.6-2.3c-0.1-0.8-0.1-1.6,0.1-2.4
						c0.2-0.8,0.4-1.5,0.9-2.2c-0.1,0.8-0.2,1.5-0.2,2.3c0,0.7,0,1.5,0.1,2.2s0.2,1.5,0.4,2.2C601,1118.7,601.3,1119.4,601.5,1120.1
						L601.5,1120.1z"/>
					<path class="st7" d="M611.3,1116c0.5-0.1,1-0.1,1.5,0s1,0.2,1.5,0.3c0.5,0.1,1,0.3,1.4,0.5c0.5,0.2,0.9,0.5,1.3,0.8
						c-0.5,0-1-0.1-1.5-0.2s-1-0.2-1.4-0.3c-0.5-0.1-0.9-0.3-1.4-0.5C612.2,1116.5,611.8,1116.3,611.3,1116L611.3,1116z"/>
					<path class="st7" d="M605.7,1118.5c0.5,0.4,1,0.7,1.5,1s1,0.6,1.5,0.8c0.5,0.2,1.1,0.5,1.6,0.7c0.6,0.2,1.1,0.3,1.7,0.5
						c-0.6,0.2-1.3,0.2-1.9,0.1c-0.6-0.1-1.3-0.3-1.8-0.5c-0.6-0.3-1.1-0.6-1.6-1.1C606.4,1119.6,606,1119,605.7,1118.5
						L605.7,1118.5z"/>
					<path class="st7" d="M601.4,1120.1c0.5,0,1,0.2,1.5,0.3c0.5,0.1,0.9,0.3,1.4,0.5c0.4,0.2,0.9,0.4,1.3,0.7
						c0.4,0.3,0.8,0.5,1.2,0.9c-0.5,0-1-0.2-1.5-0.3c-0.5-0.1-0.9-0.3-1.4-0.5c-0.4-0.2-0.9-0.4-1.3-0.7
						C602.2,1120.7,601.8,1120.5,601.4,1120.1L601.4,1120.1z"/>
				</g>
			</g>
		</g>
	</g>
</g>
</svg>
