<?xml version="1.0" encoding="utf-8"?>
<!-- Generator: Adobe Illustrator 22.0.1, SVG Export Plug-In . SVG Version: 6.00 Build 0)  -->
<svg version="1.1" id="Layer_1" xmlns="http://www.w3.org/2000/svg" xmlns:xlink="http://www.w3.org/1999/xlink" x="0px" y="0px"
	 viewBox="0 0 750 1334" style="enable-background:new 0 0 750 1334;" xml:space="preserve">
<style type="text/css">
	.st0{clip-path:url(#SVGID_2_);}
	.st1{fill:#BF7C40;}
	.st2{fill:#A16C44;}
	.st3{clip-path:url(#SVGID_4_);}
	.st4{fill:#B5BE6D;}
	.st5{fill:#77A275;}
</style>
<g id="Layer_6">
	<g>
		<g>
			<defs>
				<rect id="SVGID_1_" width="750" height="1334"/>
			</defs>
			<clipPath id="SVGID_2_">
				<use xlink:href="#SVGID_1_"  style="overflow:visible;"/>
			</clipPath>
			<g class="st0">
				<path class="st1" d="M657.7,1252.4c4.6,11,14.8,19.4,26.3,21.8c8.8,1.8,17.9,0.3,26.7-1.2c4.5-4.5,10.8-6.6,16.8-8.6
					c2.3-0.8,4.7-1.5,7.1-1.9c0.1,0,0.1,0,0.2,0c0.1,0,0.3,0,0.4-0.1l0,0c1.2-0.2,2.5-0.2,3.7-0.2l0,0c1,0.1,1.7-1.1,1.1-1.9
					c-2.5-3.6-7.2-10.2-10.4-13.9c-0.7-0.8-1.3-1.5-1.9-2.3l0,0c-2.4-2.4-9.8-5.5-15.6-7.3c-2.4-0.7-4.4-1.2-5.8-1.4
					c-5.6-0.6-11.2,1.2-16.9,1.7c-6.8,0.6-14-0.5-20.4,2c-3.7,1.5-6.9,4.1-9.9,6.7c-0.8,0.7-1.7,1.5-2.1,2.5
					C656.7,1249.7,657.2,1251.1,657.7,1252.4z"/>
				<g>
					<path class="st2" d="M662.6,1252.3c6,1.6,12.2,2.8,18.3,3.8c0.9,0.2,1.8,0.3,2.6,0.4s1.5,0.2,2.3,0.3c1.4,0.2,2.9,0.4,4.3,0.6
						c3.1,0.4,6.2,0.8,9.3,1.1c0.8,0.1,1.7,0.2,2.5,0.2c0.2,0,0.4,0,0.6,0.1c2.1,0.2,4.1,0.4,6.2,0.5c1.4,0.1,2.9,0.2,4.3,0.3
						c0.4,0,0.8,0,1.1,0.1c1.3,0.1,2.6,0.1,3.9,0.2c1.6,0,3.1,0.1,4.7,0.1c1.6,0,3.1,0,4.6,0.1s3.1,0.2,4.5,0.7
						c1,0.3,2.1,0.9,2.8,1.7c0.1,0,0.1,0,0.2,0c-0.2-0.3-0.5-0.6-0.8-0.9c-0.6-0.5-1.3-0.9-2-1.3c-1.5-0.7-3.1-0.9-4.6-1.2
						c-3.1-0.3-6.2-0.6-9.3-0.9l-3.1-0.3l-0.6-0.1l-5.6-0.5c-1.9-0.2-3.8-0.4-5.7-0.6l-0.8-0.1c-0.9-0.1-1.8-0.2-2.8-0.3
						c-3.1-0.3-6.2-0.7-9.2-1l-3.6-0.4l-0.8-0.1l-4.8-0.6C674.9,1253.7,668.8,1253,662.6,1252.3z"/>
					<path class="st2" d="M687,1256.3c-0.3-1.5-0.7-3-1.3-4.4c-0.5-1.4-1.1-2.8-1.8-4.1c-0.7-1.3-1.4-2.7-2.2-3.9
						c-0.8-1.3-1.7-2.5-2.8-3.7c0.3,1.6,0.7,3,1.3,4.4c0.5,1.4,1.1,2.8,1.8,4.1c0.7,1.3,1.4,2.7,2.2,3.9
						C685.1,1253.9,685.9,1255.1,687,1256.3L687,1256.3z"/>
					<path class="st2" d="M703,1258.5c0.3-1.6,0.3-3.2,0.2-4.8c-0.2-1.6-0.6-3.1-1.1-4.6s-1.2-2.9-2.1-4.3c-0.9-1.3-1.9-2.6-3.2-3.6
						c0.5,1.5,1.1,2.9,1.6,4.4c0.5,1.4,1.1,2.8,1.6,4.2c0.5,1.4,1,2.8,1.5,4.3C701.9,1255.5,702.4,1257,703,1258.5L703,1258.5z"/>
					<path class="st2" d="M714.3,1259.3c1.1-1.7,1.8-3.7,2.1-5.7s0.4-4.1,0.1-6.2c-0.3-2.1-0.9-4.1-1.8-5.9
						c-0.9-1.8-2.1-3.6-3.7-4.9c0.8,1.9,1.5,3.7,2.1,5.5s1,3.7,1.3,5.6s0.4,3.8,0.4,5.7C714.7,1255.3,714.5,1257.2,714.3,1259.3
						L714.3,1259.3z"/>
					<path class="st2" d="M687.2,1255.6c-1.4,0.2-2.6,0.5-3.8,1s-2.4,1.1-3.5,1.7c-1.1,0.7-2.2,1.4-3.2,2.2c-1,0.8-1.9,1.8-2.7,2.9
						c1.3-0.4,2.5-0.9,3.7-1.4c1.2-0.6,2.3-1.2,3.4-1.8c1.1-0.7,2.2-1.3,3.2-2.1C685.3,1257.4,686.3,1256.6,687.2,1255.6
						L687.2,1255.6z"/>
					<path class="st2" d="M702.7,1257.9c-1,1.3-2,2.5-3,3.6s-2.1,2.2-3.2,3.1c-1.1,1-2.3,1.9-3.6,2.7c-1.3,0.9-2.6,1.6-4,2.5
						c1.6,0.1,3.3-0.3,4.8-0.9s3-1.5,4.2-2.6c1.3-1.1,2.3-2.4,3.2-3.8C701.9,1261.1,702.5,1259.6,702.7,1257.9L702.7,1257.9z"/>
					<path class="st2" d="M714.6,1259.1c-1.3,0.4-2.4,1-3.4,1.7c-1.1,0.7-2.1,1.4-3,2.2c-1,0.8-1.9,1.6-2.7,2.6
						c-0.9,0.9-1.7,1.9-2.3,3c1.3-0.4,2.4-1,3.4-1.7c1.1-0.7,2.1-1.4,3-2.2c1-0.8,1.9-1.6,2.7-2.6
						C713.1,1261.2,713.9,1260.3,714.6,1259.1L714.6,1259.1z"/>
				</g>
			</g>
		</g>
		<g>
			<defs>
				<rect id="SVGID_3_" width="750" height="1334"/>
			</defs>
			<clipPath id="SVGID_4_">
				<use xlink:href="#SVGID_3_"  style="overflow:visible;"/>
			</clipPath>
			<g class="st3">
				<path class="st4" d="M618.7,1241.6c-4.2,4.6-10.6,6.9-16.8,6.1c-4.6-0.7-8.9-3-13-5.3c-1.4-3-4.2-5.1-6.8-7.2
					c-1-0.8-2-1.6-3.2-2.2c0,0-0.1,0-0.1-0.1c-0.1,0-0.1-0.1-0.2-0.1l0,0c-0.6-0.3-1.2-0.6-1.8-0.7c-0.5-0.1-1-0.2-1.5-0.2
					c2-2.9,5.7-4.2,8.8-5.9c0.5-0.3,0.9-0.5,1.3-0.8l0,0c1.6-0.8,5.8-1,9-0.8c1.3,0.1,2.4,0.2,3.1,0.3c2.9,0.7,5.3,2.5,8,3.8
					c3.3,1.5,7,2.2,9.7,4.6c1.6,1.4,2.7,3.2,3.7,5c0.3,0.5,0.6,1,0.6,1.6C619.7,1240.4,619.2,1241,618.7,1241.6z"/>
				<g>
					<path class="st5" d="M615.6,1241.1c-3.3-0.3-6.5-0.8-9.7-1.3c-0.5-0.1-0.9-0.2-1.4-0.2c-0.4-0.1-0.8-0.2-1.2-0.2
						c-0.8-0.1-1.5-0.3-2.2-0.4c-1.6-0.3-3.2-0.7-4.8-1.1c-0.4-0.1-0.9-0.2-1.3-0.3c-0.1,0-0.2-0.1-0.3-0.1c-1-0.3-2.1-0.5-3.1-0.8
						c-0.7-0.2-1.5-0.4-2.2-0.6c-0.2-0.1-0.4-0.1-0.6-0.2c-0.6-0.2-1.3-0.4-1.9-0.6c-0.8-0.2-1.6-0.5-2.3-0.7
						c-0.8-0.3-1.5-0.5-2.3-0.8c-0.8-0.2-1.5-0.4-2.3-0.5c-0.6,0-1.2,0.1-1.7,0.3c0,0-0.1,0-0.1-0.1c0.2-0.1,0.4-0.2,0.6-0.3
						c0.4-0.2,0.8-0.2,1.2-0.3c0.8-0.1,1.7,0.1,2.5,0.2c1.6,0.4,3.2,0.8,4.7,1.2l1.6,0.4l0.3,0.1l2.8,0.7c1,0.2,1.9,0.5,2.9,0.7
						l0.4,0.1c0.5,0.1,0.9,0.2,1.4,0.3c1.6,0.4,3.2,0.8,4.7,1.1l1.8,0.4l0.4,0.1l2.5,0.6C609.3,1239.6,612.4,1240.3,615.6,1241.1z"
						/>
					<path class="st5" d="M602.9,1238.8c0.4-0.7,0.9-1.3,1.4-2c0.5-0.6,1-1.2,1.6-1.7s1.2-1.1,1.8-1.5c0.6-0.5,1.3-0.9,2-1.3
						c-0.4,0.7-0.9,1.3-1.4,2c-0.5,0.6-1,1.2-1.6,1.7s-1.2,1.1-1.8,1.5C604.2,1237.9,603.6,1238.4,602.9,1238.8L602.9,1238.8z"/>
					<path class="st5" d="M594.6,1237c0.1-0.8,0.4-1.6,0.8-2.4c0.4-0.7,0.8-1.4,1.3-2.1c0.5-0.6,1.1-1.2,1.8-1.7s1.4-0.9,2.2-1.2
						c-0.5,0.7-1,1.3-1.6,1.9c-0.5,0.6-1,1.2-1.5,1.8c-0.5,0.6-1,1.2-1.5,1.8C595.6,1235.8,595.2,1236.4,594.6,1237L594.6,1237z"/>
					<path class="st5" d="M588.9,1235.4c-0.2-1-0.2-2.1,0-3.2s0.5-2.1,1-3.1s1.2-1.8,1.9-2.6c0.8-0.7,1.7-1.4,2.7-1.8
						c-0.7,0.8-1.4,1.5-2,2.4c-0.6,0.8-1.1,1.6-1.6,2.5s-0.9,1.8-1.2,2.7C589.4,1233.4,589.1,1234.4,588.9,1235.4L588.9,1235.4z"/>
					<path class="st5" d="M602.9,1238.4c0.6,0.3,1.2,0.7,1.7,1.2c0.5,0.4,1,0.9,1.4,1.5c0.4,0.5,0.8,1.1,1.2,1.7
						c0.3,0.6,0.7,1.2,0.9,1.9c-0.6-0.4-1.1-0.9-1.6-1.3c-0.5-0.5-0.9-1-1.4-1.5c-0.4-0.5-0.8-1-1.2-1.6
						C603.5,1239.6,603.2,1239.1,602.9,1238.4L602.9,1238.4z"/>
					<path class="st5" d="M594.8,1236.8c0.3,0.8,0.5,1.6,0.9,2.3c0.3,0.7,0.7,1.4,1,2.1c0.4,0.7,0.8,1.3,1.3,2
						c0.5,0.6,1,1.3,1.5,1.9c-0.8-0.3-1.6-0.7-2.2-1.3c-0.6-0.6-1.2-1.3-1.6-2c-0.4-0.8-0.7-1.6-0.9-2.4
						C594.7,1238.5,594.6,1237.7,594.8,1236.8L594.8,1236.8z"/>
					<path class="st5" d="M588.8,1235.3c0.5,0.4,1,0.9,1.4,1.4s0.8,1.1,1.1,1.6c0.3,0.6,0.6,1.1,0.9,1.7c0.3,0.6,0.5,1.2,0.6,1.9
						c-0.5-0.4-1-0.9-1.4-1.4s-0.8-1.1-1.1-1.6c-0.3-0.6-0.6-1.1-0.9-1.7C589.1,1236.6,588.9,1236,588.8,1235.3L588.8,1235.3z"/>
				</g>
			</g>
		</g>
	</g>
</g>
</svg>
