<?xml version="1.0" encoding="utf-8"?>
<!-- Generator: Adobe Illustrator 22.0.1, SVG Export Plug-In . SVG Version: 6.00 Build 0)  -->
<svg version="1.1" id="Layer_1" xmlns="http://www.w3.org/2000/svg" xmlns:xlink="http://www.w3.org/1999/xlink" x="0px" y="0px"
	 viewBox="0 0 750 1334" style="enable-background:new 0 0 750 1334;" xml:space="preserve">
<style type="text/css">
	.st0{clip-path:url(#SVGID_2_);}
	.st1{fill:#E9DB82;}
	.st2{fill:#FBCF66;}
	.st3{clip-path:url(#SVGID_4_);}
	.st4{clip-path:url(#SVGID_6_);}
</style>
<g id="Layer_5">
	<g>
		<g>
			<defs>
				<rect id="SVGID_1_" width="750" height="1334"/>
			</defs>
			<clipPath id="SVGID_2_">
				<use xlink:href="#SVGID_1_"  style="overflow:visible;"/>
			</clipPath>
			<g class="st0">
				<path class="st1" d="M47.5,1182.2c6.7-2.8,13.3-6,19.6-9.7c3.1-1.9,6.2-3.9,9.1-6.2c2.9-2.2,5.7-4.7,8.2-7.3
					c2.5-2.6,4.9-5.5,6.9-8.5c1-1.5,2-3.1,2.8-4.7c0.9-1.6,1.7-3.3,2.4-5c1.4-3.4,2.6-6.9,3.5-10.4c0.1-0.4,0.2-0.8,0.3-1.3
					l-0.2-0.1c0.1,0,0.2,0,0.3,0c0.7-3.1,1.3-6.3,1.7-9.4c1-7.2,1.4-14.5,1.7-21.8c-0.5,7.3-1,14.5-2.1,21.7
					c-0.5,3.6-1.2,7.2-2.2,10.7c-0.9,3.5-2.1,7-3.5,10.3c-0.7,1.7-1.5,3.3-2.4,4.9s-1.8,3.1-2.8,4.6c-2,3-4.4,5.8-6.9,8.4
					s-5.3,5-8.2,7.2c-2.9,2.2-5.9,4.2-9,6.1c-6.2,3.7-12.8,6.9-19.5,9.7c-6.7,2.8-13.5,5.5-20.4,7.7s-14,4.1-21.1,5.4
					c-7.2,1.4-14.4,2.1-21.7,2.3c7.3,0,14.6-0.7,21.8-1.9c7.2-1.2,14.3-3,21.3-5.2c3.5-1.1,6.9-2.3,10.3-3.6
					C40.8,1185,44.1,1183.7,47.5,1182.2z"/>
				<path class="st2" d="M102.9,1097c2.9-1,5.3-3.3,6.5-6.1c0.2-0.5,0.4-1,0.4-1.6c-0.1-1.5-1.8-2.6-3.4-2.3
					c-1.5,0.3-2.6,1.7-3.1,3.1C102.9,1091.5,102.8,1095.2,102.9,1097L102.9,1097L102.9,1097z"/>
				<path class="st2" d="M104.6,1108.4c2.2,1.1,4.9-0.6,6.7-2.5c0.7-0.7,1.3-1.5,1.5-2.4s-0.5-2.1-1.4-2.1c-0.6,0-1.2,0.3-1.7,0.7
					C107.8,1103.5,106,1106.3,104.6,1108.4z"/>
				<path class="st2" d="M108.6,1114.6c-1.4,0.4-3.7,2.1-4.3,3.5c2.5,1.7,6,1.9,8.6,0.5c0.6-0.3,1.3-0.8,1.5-1.5
					c0.5-1.3-0.7-2.6-1.9-3C111.2,1113.9,109.9,1114.3,108.6,1114.6z"/>
				<path class="st2" d="M96,1104.7c1.3,1.1,3.8,1.5,5.6,1.3l0,0l0,0c0-1.7-0.1-3.4-1-4.9c-1.1-1.6-3.6-2.5-5-1.2
					C94.2,1101.2,94.6,1103.6,96,1104.7z"/>
				<path class="st2" d="M98.7,1119.5L98.7,1119.5L98.7,1119.5c1.4-2.1,1.7-7.3-0.1-8.6c-1.9-1.4-5.2,0-5.1,2.4
					c0,1.1,0.7,2.1,1.4,3.1C95.8,1117.7,97,1119.2,98.7,1119.5z"/>
				<path class="st2" d="M110.6,1129.1c1.4-0.9,1.9-3.2,0.5-4.1c-0.4-0.3-1-0.4-1.5-0.4c-1.8-0.2-3.8-0.1-5.4,0.7
					c-1.5,0.8-2.7,2.3-2.8,4c1.5,0.1,3,0.3,4.5,0.4C107.4,1129.8,109.2,1130,110.6,1129.1z"/>
				<path class="st2" d="M97,1131.2c1.6-2.8,1.3-6.5-0.8-9c-0.4-0.4-0.8-0.9-1.4-0.8c-0.8,0.1-1.1,1.1-1.3,2c-0.2,1.5-0.4,3,0.1,4.4
					C94.1,1129.2,95.5,1131.5,97,1131.2z"/>
				<path class="st2" d="M107.7,1137.6c0.9-0.5,1.7-1.4,1.7-2.4c-0.1-1.6-2.1-2.4-3.7-2.2c-1.5,0.2-4.4,2.9-6.1,3.3
					C101.6,1138.5,105.2,1139.1,107.7,1137.6z"/>
				<path class="st2" d="M91.3,1142.3c1.2-2.3,1.9-4.8,2.2-7.3c0.1-0.7,0.1-1.4-0.3-2c-0.5-0.6-1.3-0.8-2.1-0.8
					c-2.3,0.3-3.7,2.9-3.4,5.1C88.1,1139.5,89.5,1141.2,91.3,1142.3z"/>
				<path class="st2" d="M100.8,1147.7c1.9,0.6,4,0.4,5.9-0.2c0.5-0.2,1-0.4,1.3-0.8c0.7-0.9,0.2-2.2-0.8-2.8
					c-0.9-0.6-2.1-0.6-3.2-0.6c-1.8,0-5.1,0.1-6.7,1C97.8,1145.9,99.2,1147.2,100.8,1147.7z"/>
				<path class="st2" d="M84.2,1151.7c0.8-1.6,2.5-3.7,2.9-5.4c0.3-1,0.5-2.1-0.1-3.1c-0.8-1.4-3.1-1.5-4.3-0.4s-1.4,3-1,4.6
					C82.3,1149,83.3,1150.3,84.2,1151.7z"/>
			</g>
		</g>
		<g>
			<defs>
				<rect id="SVGID_3_" width="750" height="1334"/>
			</defs>
			<clipPath id="SVGID_4_">
				<use xlink:href="#SVGID_3_"  style="overflow:visible;"/>
			</clipPath>
			<g class="st3">
				<path class="st1" d="M224.3,1193.9c2.9-4.6,5.4-9.4,7.4-14.4v-0.1l0,0v-0.1c-2.1,5-4.7,9.9-7.7,14.4c-2.1,3.3-4.5,6.4-7.2,9.3
					l-1,1.1c-0.3,0.4-0.7,0.7-1,1.1l-2.1,2.1l-2.2,2c-0.4,0.3-0.7,0.6-1.1,0.9l-1.1,0.9c-6.1,4.8-12.9,8.8-20.2,11.6
					c-7.3,2.9-14.9,4.7-22.6,5.9c-7.7,1.1-15.6,1.5-23.4,1.3c-7.8-0.2-15.6-0.9-23.3-2s-15.4-2.6-23-4.5c-3.8-0.9-7.6-1.9-11.3-3.1
					c-3.8-1.1-7.5-2.3-11.2-3.7c14.7,5.5,29.9,9.4,45.4,11.8c7.7,1.2,15.6,1.9,23.4,2.1s15.7-0.2,23.5-1.3c7.8-1.1,15.4-3.1,22.8-6
					c7.3-2.9,14.2-6.8,20.3-11.8l1.1-0.9c0.4-0.3,0.8-0.6,1.1-1l2.2-2l2.1-2.1c0.4-0.3,0.7-0.7,1-1.1l1-1.1
					C219.8,1200.3,222.2,1197.2,224.3,1193.9z"/>
				<path class="st2" d="M215.9,1193.9c0.9,1.5,2.7,2.4,4.4,2.4c0.3-2.5-1.3-5.4-2.9-7.4c-0.3-0.4-0.8-0.7-1.2-0.5
					c-0.2,0.1-0.3,0.3-0.4,0.5C214.9,1190.4,214.9,1192.4,215.9,1193.9z"/>
				<path class="st2" d="M225.5,1176.5c-1.9,0.2-2.5,3-1.5,4.6s2.8,2.6,4.3,3.8c0.3-1.2,0.2-4.9-0.1-6.2
					C227.9,1177.5,226.8,1176.4,225.5,1176.5z"/>
				<path class="st2" d="M220,1187.1c1,1.1,3.7,2.1,5.2,2.2c-0.3-1.8-1.2-3.5-2.5-4.8c-0.5-0.5-1.1-0.9-1.8-0.9
					C219.5,1183.7,219,1186,220,1187.1z"/>
				<path class="st2" d="M214.7,1203.1c1.1-2.4,1.1-5.3-0.3-7.6c-0.2-0.4-0.5-0.8-0.9-0.9c-0.8-0.2-1.5,0.5-1.8,1.2
					C210.4,1198.4,211.9,1202,214.7,1203.1z"/>
				<path class="st2" d="M235.3,1172.6L235.3,1172.6L235.3,1172.6c2-2.2,3.6-4.7,4.8-7.5c0.2-0.5,0.3-1.3-0.2-1.5
					c-0.3-0.1-0.6-0.1-0.9,0c-0.9,0.3-1.7,0.7-2.5,1.2c-1.4,0.9-2.7,2.1-3.1,3.7C233.1,1170,233.8,1171.9,235.3,1172.6z"/>
				<path class="st2" d="M229.6,1177c0.7-1.1,2.4-4.2,2.4-5.5s-0.8-2.7-2.1-3c-1.8-0.3-3.1,1.9-2.9,3.7
					C227.4,1174,228.6,1175.5,229.6,1177z"/>
				<path class="st2" d="M224,1205.6c-0.2-0.4-0.6-0.6-1-0.8c-1.4-0.6-4.9-1.3-6.3-0.8c-0.4,1,0.1,2.2,0.9,2.8c0.9,0.6,1.9,0.8,3,1
					c0.8,0.1,1.7,0.2,2.5-0.2C223.9,1207.3,224.4,1206.4,224,1205.6z"/>
				<path class="st2" d="M226.8,1198.1c-1.2-0.5-4.6,0.6-5.8,0.9c-0.6,0.3-0.7,1.3-0.2,1.8c0.4,0.6,1.2,0.8,1.9,0.9
					c1.1,0.2,2.2,0.3,3.2,0.2c0.8,0,1.6-0.2,2.1-0.8C228.7,1200.1,227.9,1198.5,226.8,1198.1z"/>
				<path class="st2" d="M237.8,1187.2c-0.5-1.3-2.3-1.5-3.6-1.2c-1.3,0.2-2.8,0.7-4,0c-0.1,1.7,1.5,3.7,3.2,4.1
					c1.1,0.2,2.2,0.3,3.2-0.2C237.5,1189.4,238.2,1188.2,237.8,1187.2z"/>
				<path class="st2" d="M231,1193c-1.3-0.4-3.8-0.9-5.1-1.3c-0.9,0.8-0.8,2.3-0.1,3.3c0.8,0.9,2,1.4,3.2,1.6
					c0.9,0.2,1.9,0.3,2.7-0.1s1.4-1.5,1-2.3C232.4,1193.5,231.7,1193.3,231,1193z"/>
				<path class="st2" d="M231.9,1179.9c0.6,1.3,1.9,2.4,3.4,2.7c1.8,0.4,3.7-0.4,4.8-1.9c0.3-0.4,0.5-0.9,0.2-1.3
					c-0.2-0.3-0.7-0.3-1-0.3C236.7,1179.1,234.3,1179.4,231.9,1179.9z"/>
				<path class="st2" d="M234.1,1174.7L234.1,1174.7L234.1,1174.7c-0.4,0.3-0.3,1.1,0,1.4c0.4,0.3,0.9,0.4,1.4,0.4
					c2.1,0,4.2-0.9,6-2.3c0.8-0.6,0.3-1.9-0.7-1.9C238.5,1172.5,236.1,1173.3,234.1,1174.7L234.1,1174.7z"/>
			</g>
		</g>
		<g>
			<defs>
				<rect id="SVGID_5_" width="750" height="1334"/>
			</defs>
			<clipPath id="SVGID_6_">
				<use xlink:href="#SVGID_5_"  style="overflow:visible;"/>
			</clipPath>
			<g class="st4">
				<path class="st1" d="M180.9,1196c3.1,8.6,6.7,17,10.9,25.1s9,16,14.4,23.3c5.5,7.3,11.8,14.1,18.8,19.9
					c7,5.9,14.9,10.7,23.4,14.2l1.6,0.6c0.5,0.2,1.1,0.4,1.6,0.6l3.2,1.1l3.3,1c0.5,0.2,1.1,0.3,1.7,0.4l1.7,0.4c4.5,1,9,1.7,13.6,2
					c6.3,0.4,12.6,0.2,18.9-0.5c0,0,0-0.1,0.1-0.1l0,0c0,0,0,0,0.1-0.1c-6.3,0.6-12.7,0.7-19,0.2c-4.5-0.4-9-1.1-13.5-2.1l-1.7-0.4
					c-0.6-0.1-1.1-0.3-1.6-0.4l-3.3-1l-3.2-1.1c-0.5-0.2-1.1-0.4-1.6-0.6l-1.6-0.6c-8.4-3.5-16.2-8.3-23.2-14.1
					c-7-5.8-13.2-12.6-18.6-19.8c-5.5-7.3-10.2-15-14.4-23.1L180.9,1196z"/>
				<path class="st2" d="M270.3,1276c-1,1.8-1,4.1,0.1,5.9c2.7-1.1,4.8-4.4,5.9-7.1c0.2-0.5,0.3-1.2-0.2-1.5
					c-0.2-0.1-0.4-0.2-0.7-0.2C273.3,1273.1,271.3,1274.3,270.3,1276z"/>
				<path class="st2" d="M293.5,1276.1c-1.3-1.9-4.4-0.9-5.5,1.1c-1.1,1.9-1,4.3-1.5,6.5c1.4-0.4,5.1-2.6,6.2-3.6
					C293.8,1279.1,294.3,1277.3,293.5,1276.1z"/>
				<path class="st2" d="M279.6,1276.5c-0.6,1.6-0.1,5,0.6,6.6c1.7-1.3,2.9-3.1,3.5-5.2c0.2-0.8,0.3-1.6-0.1-2.3
					C282.8,1274,280.2,1274.8,279.6,1276.5z"/>
				<path class="st2" d="M260.3,1279.9c3.1-0.2,6-1.9,7.7-4.5c0.3-0.4,0.5-0.9,0.4-1.4c-0.2-0.9-1.4-1.2-2.3-1.2
					C262.7,1273,259.9,1276.5,260.3,1279.9z"/>
				<path class="st2" d="M303,1283.9L303,1283.9L303,1283.9c3.4,0.8,6.9,1.1,10.4,0.7c0.6-0.1,1.5-0.4,1.5-1c0-0.4-0.3-0.6-0.5-0.9
					c-0.8-0.7-1.6-1.4-2.6-1.9c-1.7-1-3.7-1.5-5.5-1C304.4,1280.3,302.8,1282.1,303,1283.9z"/>
				<path class="st2" d="M295.2,1280.6c1.5,0.1,5.6,0.1,7-0.6s2.4-2.3,1.9-3.8c-0.7-2-3.7-2.1-5.4-0.9
					C297.1,1276.7,296.3,1278.7,295.2,1280.6z"/>
				<path class="st2" d="M262.9,1290.9c0.3-0.4,0.3-0.9,0.2-1.4c-0.2-1.7-1.4-5.7-2.7-6.9c-1.2,0.1-2.1,1.3-2.3,2.5
					c-0.2,1.2,0.2,2.5,0.6,3.6c0.3,0.9,0.7,1.9,1.5,2.4C261.1,1291.8,262.4,1291.7,262.9,1290.9z"/>
				<path class="st2" d="M272.2,1289.5c-0.2-1.4-3.2-4.3-4.1-5.4c-0.7-0.5-1.7,0-2,0.8s-0.1,1.6,0.1,2.4c0.4,1.2,0.9,2.4,1.6,3.4
					c0.5,0.8,1.1,1.6,2,1.7C271.2,1292.6,272.4,1291,272.2,1289.5z"/>
				<path class="st2" d="M289.5,1294.7c1-1.2,0.2-3.1-0.8-4.4c-1-1.2-2.3-2.5-2.3-4.1c-1.8,0.9-2.9,3.6-2.4,5.5
					c0.4,1.2,0.9,2.4,2,3.2C287,1295.6,288.6,1295.6,289.5,1294.7z"/>
				<path class="st2" d="M279.6,1291c-0.3-1.6-1.2-4.4-1.5-5.9c-1.3-0.5-2.9,0.4-3.4,1.8c-0.5,1.3-0.3,2.8,0.1,4.2
					c0.3,1,0.8,2.1,1.6,2.7c0.9,0.6,2.3,0.6,2.9-0.2C280,1292.8,279.8,1291.8,279.6,1291z"/>
				<path class="st2" d="M293.6,1284.5c-1,1.4-1.4,3.3-0.8,4.9c0.6,2,2.5,3.6,4.6,3.8c0.5,0.1,1.2,0,1.4-0.5c0.2-0.4,0-0.9-0.3-1.2
					C297.1,1289,295.5,1286.7,293.6,1284.5z"/>
				<path class="st2" d="M300.1,1284L300.1,1284L300.1,1284c-0.6-0.2-1.3,0.3-1.4,0.8c-0.1,0.6,0.1,1.2,0.4,1.7
					c1.2,2.2,3.2,3.9,5.7,4.8c1.1,0.4,2.1-0.8,1.5-1.8C304.9,1287.2,302.7,1285.2,300.1,1284L300.1,1284z"/>
			</g>
		</g>
	</g>
</g>
</svg>
