<?xml version="1.0" encoding="utf-8"?>
<!-- Generator: Adobe Illustrator 22.0.1, SVG Export Plug-In . SVG Version: 6.00 Build 0)  -->
<svg version="1.1" id="Layer_1" xmlns="http://www.w3.org/2000/svg" xmlns:xlink="http://www.w3.org/1999/xlink" x="0px" y="0px"
	 viewBox="0 0 750 1334" style="enable-background:new 0 0 750 1334;" xml:space="preserve">
<style type="text/css">
	.st0{clip-path:url(#SVGID_2_);}
	.st1{fill:#E9DB82;}
	.st2{fill:#FBCF66;}
	.st3{clip-path:url(#SVGID_4_);}
</style>
<g id="Layer_4">
	<g>
		<g>
			<defs>
				<rect id="SVGID_1_" width="750" height="1334"/>
			</defs>
			<clipPath id="SVGID_2_">
				<use xlink:href="#SVGID_1_"  style="overflow:visible;"/>
			</clipPath>
			<g class="st0">
				<path class="st1" d="M53.1,1154.6c-5.3-2.2-10.6-4.6-15.8-7.1s-10.3-5.2-15.4-7.8c5,2.8,10.1,5.6,15.3,8.2s10.4,5,15.7,7.3
					c10.6,4.5,21.7,8.2,33,10.7c5.7,1.2,11.4,2,17.2,2.5s11.6,0.6,17.4,0.2s11.5-1.2,17.2-2.5c5.6-1.4,11.1-3.2,16.4-5.6
					c-5.3,2.3-10.8,4-16.5,5.2c-5.6,1.3-11.4,2-17.1,2.3c-11.5,0.6-23.1-0.4-34.4-2.8C74.7,1162.7,63.7,1159,53.1,1154.6z"/>
				<path class="st2" d="M164.8,1159.1c0.7-0.2,1.5-0.4,1.9-1.1c0.8-1.2-0.5-2.8-1.9-3.3c-3.6-1.4-8.9,1.7-9.6,5.4
					C158.4,1160.2,161.6,1159.9,164.8,1159.1z"/>
				<path class="st2" d="M143.8,1161.1c2.9-1.1,6.7-2.7,6.9-5.7c0-0.4,0-0.8-0.2-1.1c-0.3-0.5-0.9-0.7-1.5-0.8
					c-1.7-0.1-3.4,1-4.3,2.5C143.8,1157.6,143.6,1159.4,143.8,1161.1z"/>
				<path class="st2" d="M118.2,1159.5c-0.3,0.1-0.6,0.2-0.8,0.4c-2.5,1.8-4.2,4.5-4.7,7.5c1.8-1.1,3.6-2.3,5.3-3.6
					c0.8-0.6,1.6-1.3,1.8-2.3C119.9,1160.6,119.2,1159.4,118.2,1159.5z"/>
				<path class="st2" d="M124.2,1166.7c1.7-1.6,3.3-3.1,5-4.7c0.6-0.5,1.1-1.1,1.2-1.8c0.1-1.1-1-2-2.2-2c-1.1,0-2.1,0.6-3,1.2
					c-1,0.7-1.9,1.4-2.5,2.5S123.3,1165.9,124.2,1166.7z"/>
				<path class="st2" d="M132.6,1163.3c2.1-0.2,4.3-0.4,6-1.7c1.6-1.2,2.4-3.9,0.9-5.4s-4.2-0.7-5.5,1
					C132.8,1158.9,132.6,1161.2,132.6,1163.3z"/>
				<path class="st2" d="M118.1,1180.1c1.1-0.4,1.6-1.9,1.2-3c-0.3-1.1-1.2-2-2.1-2.8c-1.5-1.3-3-2.4-4.7-3.3
					c-0.2,2.6,0.6,5.3,2.1,7.5C115.5,1179.6,116.9,1180.6,118.1,1180.1z"/>
				<path class="st2" d="M153,1164.1c-2.6-0.2-5.2,0.4-7.4,1.8c2,1.8,4.7,3.7,7.5,3.4c1.6-0.2,3.5-1.2,3.4-2.9
					C156.4,1165,154.5,1164.2,153,1164.1z"/>
				<path class="st2" d="M138.3,1174.1c1.1,1.2,2.9,2.3,4.2,1.4c1.2-0.9,0.8-2.9-0.2-4.1c-1.6-1.9-5-2.8-7.4-2.2
					C135.8,1171,137,1172.6,138.3,1174.1z"/>
				<path class="st2" d="M127.8,1177.9c0.8,0.6,1.8,1.2,2.9,1c1-0.1,2-1.1,1.8-2.1c-0.1-0.6-0.5-1-0.9-1.4c-2-1.9-4.4-3.5-7.1-4.4
					C124.4,1173.6,125.7,1176.3,127.8,1177.9z"/>
				<path class="st2" d="M101.2,1176.5c0.6,1.6,1.9,3.1,3.6,3.5c1.7,0.3,3.7-1.1,3.5-2.8c-0.1-0.6-0.4-1.1-0.7-1.6
					c-1.3-2-3.1-3.7-5.2-4.9C101.2,1172,100.7,1175.2,101.2,1176.5z"/>
			</g>
		</g>
		<g>
			<defs>
				<rect id="SVGID_3_" width="750" height="1334"/>
			</defs>
			<clipPath id="SVGID_4_">
				<use xlink:href="#SVGID_3_"  style="overflow:visible;"/>
			</clipPath>
			<g class="st3">
				<path class="st1" d="M305.5,1252c5.3-3.4,10.3-7.3,15-11.5v-0.1l0,0v-0.1c-4.7,4.2-9.8,8.1-15.2,11.4c-3.9,2.4-8,4.4-12.1,6.2
					l-1.6,0.6c-0.5,0.2-1,0.4-1.6,0.6l-3.2,1.1l-3.3,1c-0.5,0.2-1.1,0.3-1.6,0.4l-1.7,0.4c-8.8,2.1-18,2.8-27.1,2.2
					c-9.1-0.6-18-2.4-26.7-5.1s-17.1-6.2-25.3-10.2c-8.1-4.1-16-8.7-23.6-13.7s-14.9-10.5-22-16.2c-3.5-2.9-7-5.8-10.4-8.9
					c-3.4-3-6.7-6.2-9.9-9.4c12.7,13.1,26.8,24.8,41.9,35.1c7.6,5.1,15.4,9.8,23.6,13.9c8.2,4.1,16.6,7.6,25.4,10.4
					c8.7,2.7,17.8,4.5,26.9,5.1c9.1,0.6,18.4-0.1,27.3-2.3l1.7-0.4c0.6-0.1,1.1-0.3,1.7-0.5l3.3-1l3.2-1.2c0.5-0.2,1.1-0.4,1.6-0.6
					l1.6-0.7C297.6,1256.5,301.7,1254.4,305.5,1252z"/>
				<path class="st2" d="M296.6,1247.8c0.2,2,1.6,3.9,3.5,4.7c1.5-2.5,1.3-6.4,0.6-9.2c-0.2-0.5-0.5-1.1-1-1.1
					c-0.2,0-0.5,0.1-0.7,0.3C297.4,1243.7,296.4,1245.8,296.6,1247.8z"/>
				<path class="st2" d="M315.5,1234.2c-2.1-0.8-4.1,1.9-3.8,4.1c0.2,2.2,1.7,4.1,2.6,6.2c0.9-1.1,2.6-5.1,2.9-6.5
					C317.4,1236.5,316.9,1234.8,315.5,1234.2z"/>
				<path class="st2" d="M304.4,1242.7c0.5,1.7,2.9,4.1,4.4,4.9c0.6-2,0.5-4.2-0.2-6.2c-0.3-0.8-0.7-1.5-1.4-1.9
					C305.5,1238.9,303.9,1241,304.4,1242.7z"/>
				<path class="st2" d="M290.8,1256.8c2.4-1.9,3.8-5.1,3.5-8.2c0-0.5-0.1-1.1-0.5-1.4c-0.7-0.6-1.8-0.2-2.5,0.4
					C288.7,1249.9,288.5,1254.4,290.8,1256.8z"/>
				<path class="st2" d="M327.8,1235L327.8,1235L327.8,1235c3.2-1.3,6.2-3.2,8.8-5.5c0.5-0.4,1-1.2,0.6-1.7
					c-0.2-0.3-0.6-0.4-0.9-0.4c-1.1-0.1-2.1-0.2-3.2,0c-1.9,0.2-3.9,0.9-5.1,2.4C326.7,1231.3,326.5,1233.6,327.8,1235z"/>
				<path class="st2" d="M319.5,1236.9c1.3-0.8,4.6-3.2,5.3-4.6c0.7-1.3,0.6-3.3-0.7-4.1c-1.7-1.2-4.2,0.4-4.8,2.5
					C318.7,1232.6,319.3,1234.8,319.5,1236.9z"/>
				<path class="st2" d="M299.4,1264.2c0-0.5-0.3-0.9-0.7-1.3c-1.2-1.3-4.5-3.8-6.2-4c-0.9,0.8-1,2.3-0.4,3.4s1.6,1.9,2.6,2.5
					c0.8,0.5,1.7,1.1,2.7,1.1C298.4,1265.9,299.5,1265.2,299.4,1264.2z"/>
				<path class="st2" d="M306.1,1257.6c-1-1.1-5.1-1.7-6.5-1.9c-0.8,0-1.3,1-1.1,1.8c0.2,0.8,0.9,1.4,1.5,1.9c1,0.7,2.1,1.4,3.3,1.8
					c0.8,0.3,1.8,0.6,2.6,0.2C307.2,1260.7,307.1,1258.7,306.1,1257.6z"/>
				<path class="st2" d="M323.1,1251.6c0.1-1.6-1.6-2.6-3.2-3.1c-1.5-0.4-3.3-0.7-4.3-2c-1,1.8-0.3,4.6,1.3,5.9
					c1,0.8,2.2,1.4,3.5,1.4C321.7,1253.8,323,1252.9,323.1,1251.6z"/>
				<path class="st2" d="M313,1254.4c-1.2-1.1-3.5-2.8-4.7-3.9c-1.4,0.3-2,2-1.7,3.4s1.4,2.4,2.6,3.3c0.9,0.7,1.9,1.3,2.9,1.3
					c1.1,0,2.2-0.8,2.2-1.9C314.3,1255.7,313.6,1255,313,1254.4z"/>
				<path class="st2" d="M320.5,1241c0,1.7,0.8,3.5,2.2,4.5c1.7,1.3,4.1,1.4,6,0.4c0.5-0.3,1-0.7,0.9-1.3c-0.1-0.4-0.5-0.7-0.9-0.8
					C326,1242.6,323.3,1241.6,320.5,1241z"/>
				<path class="st2" d="M325.4,1236.7L325.4,1236.7L325.4,1236.7c-0.6,0.1-0.9,1-0.7,1.5c0.2,0.5,0.8,0.9,1.3,1.1
					c2.2,1,4.9,1.2,7.4,0.6c1.1-0.3,1.3-1.9,0.2-2.4C331.1,1236.5,328.3,1236.2,325.4,1236.7L325.4,1236.7z"/>
			</g>
		</g>
	</g>
</g>
</svg>
