<?xml version="1.0" encoding="utf-8"?>
<!-- Generator: Adobe Illustrator 22.0.1, SVG Export Plug-In . SVG Version: 6.00 Build 0)  -->
<svg version="1.1" id="Layer_1" xmlns="http://www.w3.org/2000/svg" xmlns:xlink="http://www.w3.org/1999/xlink" x="0px" y="0px"
	 viewBox="0 0 750 1334" style="enable-background:new 0 0 750 1334;" xml:space="preserve">
<style type="text/css">
	.st0{fill:#FBCF66;}
</style>
<g id="Layer_9">
	<g>
		<path class="st0" d="M152.1,1216.3c2.8,1.3,6.1,1.4,8.9,0.2c0.5-0.2,1-0.5,1.4-0.9c1-1.1,0.5-3.2-0.8-4s-3-0.6-4.4,0.1
			C156,1212.3,153.4,1214.9,152.1,1216.3L152.1,1216.3L152.1,1216.3z"/>
		<path class="st0" d="M330.6,1214.5c2.2,1.1,4.9-0.6,6.7-2.5c0.7-0.7,1.3-1.5,1.5-2.4s-0.5-2.1-1.4-2.1c-0.6,0-1.2,0.3-1.7,0.7
			C333.8,1209.6,332,1212.4,330.6,1214.5z"/>
		<path class="st0" d="M123.9,1123.8c-1.4,0.4-3.7,2.1-4.3,3.5c2.5,1.7,6,1.9,8.6,0.5c0.6-0.3,1.3-0.8,1.5-1.5
			c0.5-1.3-0.7-2.6-1.9-3C126.6,1123,125.2,1123.4,123.9,1123.8z"/>
		<path class="st0" d="M319.2,1207.1c-0.9,1.4-1.2,3.9-0.8,5.7l0,0l0,0c1.7-0.1,3.4-0.4,4.7-1.4c1.5-1.2,2.1-3.8,0.7-5.1
			C322.5,1205,320.2,1205.6,319.2,1207.1z"/>
		<path class="st0" d="M166.1,1252.8c-0.9,1.4-1.2,3.9-0.8,5.7l0,0l0,0c1.7-0.1,3.4-0.4,4.7-1.4c1.5-1.2,2.1-3.8,0.7-5.1
			C169.4,1250.7,167.1,1251.3,166.1,1252.8z"/>
		<path class="st0" d="M151.6,1146.7L151.6,1146.7L151.6,1146.7c1.9,1.7,7,2.7,8.5,1.1c1.7-1.7,0.7-5.2-1.7-5.4
			c-1.1-0.1-2.2,0.4-3.2,0.9C153.8,1144.1,152.1,1145.1,151.6,1146.7z"/>
		<path class="st0" d="M257.2,1175.2c1.4-0.9,1.9-3.2,0.5-4.1c-0.4-0.3-1-0.4-1.5-0.4c-1.8-0.2-3.8-0.1-5.4,0.7
			c-1.5,0.8-2.7,2.3-2.8,4c1.5,0.1,3,0.3,4.5,0.4C254.1,1176,255.9,1176.1,257.2,1175.2z"/>
		<path class="st0" d="M37.1,1180.8c1.6-2.8,1.3-6.5-0.8-9c-0.4-0.4-0.8-0.9-1.4-0.8c-0.8,0.1-1.1,1.1-1.3,2c-0.2,1.5-0.4,3,0.1,4.4
			C34.3,1178.8,35.7,1181.1,37.1,1180.8z"/>
		<path class="st0" d="M242.2,1210.2c0.9-0.5,1.7-1.4,1.7-2.4c-0.1-1.6-2.1-2.4-3.7-2.2c-1.5,0.2-4.4,2.9-6.1,3.3
			C236.1,1211.1,239.6,1211.7,242.2,1210.2z"/>
		<path class="st0" d="M76.6,1265.4c0.9-0.5,1.7-1.4,1.7-2.4c-0.1-1.6-2.1-2.4-3.7-2.2c-1.5,0.2-4.4,2.9-6.1,3.3
			C70.5,1266.3,74.1,1266.9,76.6,1265.4z"/>
		<path class="st0" d="M296.6,1221.4c2.3,1,4.9,1.5,7.4,1.5c0.7,0,1.4,0,1.9-0.5c0.6-0.5,0.7-1.4,0.6-2.1c-0.5-2.2-3.2-3.5-5.4-2.9
			C299.1,1217.9,297.6,1219.6,296.6,1221.4z"/>
		<path class="st0" d="M252.5,1252.4c1.9,0.6,4,0.4,5.9-0.2c0.5-0.2,1-0.4,1.3-0.8c0.7-0.9,0.2-2.2-0.8-2.8
			c-0.9-0.6-2.1-0.6-3.2-0.6c-1.8,0-5.1,0.1-6.7,1C249.6,1250.7,251,1251.9,252.5,1252.4z"/>
		<path class="st0" d="M39.3,1221.7c1.9,0.6,4,0.4,5.9-0.2c0.5-0.2,1-0.4,1.3-0.8c0.7-0.9,0.2-2.2-0.8-2.8c-0.9-0.6-2.1-0.6-3.2-0.6
			c-1.8,0-5.1,0.1-6.7,1C36.3,1219.9,37.7,1221.1,39.3,1221.7z"/>
		<path class="st0" d="M271.4,1199.6c1.6,0.7,3.9,2.1,5.6,2.4c1,0.2,2.2,0.3,3-0.3c1.4-0.9,1.3-3.2,0-4.3c-1.2-1.1-3.1-1.2-4.7-0.6
			C273.9,1197.4,272.6,1198.5,271.4,1199.6z"/>
		<path class="st0" d="M348,1250.7c1.6,0.7,3.9,2.1,5.6,2.4c1,0.2,2.2,0.3,3-0.3c1.4-0.9,1.3-3.2,0-4.3c-1.2-1.1-3.1-1.2-4.7-0.6
			C350.5,1248.6,349.3,1249.7,348,1250.7z"/>
	</g>
</g>
</svg>
