<?xml version="1.0" encoding="utf-8"?>
<!-- Generator: Adobe Illustrator 22.0.1, SVG Export Plug-In . SVG Version: 6.00 Build 0)  -->
<svg version="1.1" id="Layer_1" xmlns="http://www.w3.org/2000/svg" xmlns:xlink="http://www.w3.org/1999/xlink" x="0px" y="0px"
	 viewBox="0 0 1919.9 1262.4" style="enable-background:new 0 0 1919.9 1262.4;" xml:space="preserve">
<style type="text/css">
	.st0{fill:#B5BE6D;}
</style>
<g>
	<g id="Layer_6">
		<path class="st0" d="M1801.9,1257.4c-38.6-3.2-51.4-41.8-92.9-65.3c-63.9-36.1-119.2-2-234.6,29.6
			c-148.8,40.8-306.2-13.9-460.3-9.1c-104,3.2-205.7,33.6-309.7,37.4c-243.1,9-282-81.8-475.6-29.3
			c-67.7,18.4-137.2,52.8-187.2,17.4c-26.1-18.5-36.8-49-41.7-72C0,777.4,0,388.7,0,0h1919.9c0,388.7,0,777.4,0,1166.2
			C1890.4,1211.3,1848,1261.3,1801.9,1257.4z"/>
	</g>
</g>
</svg>
