<?xml version="1.0" encoding="utf-8"?>
<!-- Generator: Adobe Illustrator 22.0.1, SVG Export Plug-In . SVG Version: 6.00 Build 0)  -->
<svg version="1.1" id="Layer_1" xmlns="http://www.w3.org/2000/svg" xmlns:xlink="http://www.w3.org/1999/xlink" x="0px" y="0px"
	 viewBox="0 0 840 1000" style="enable-background:new 0 0 840 1000;" xml:space="preserve">
<style type="text/css">
	.st0{fill:#CADDDA;}
	.st1{fill:#98C29C;}
	.st2{fill:#275E85;}
	.st3{fill:#BF7C40;}
	.st4{fill:#A16C44;}
	.st5{fill:#B5BE6E;}
	.st6{fill:#36684D;}
	.st7{fill:#B9BC6E;}
	.st8{fill:#E2DD8A;}
	.st9{fill:#5A9055;}
	.st10{fill:#618257;}
	.st11{fill:#EBE261;}
	.st12{fill:#F7F0B1;}
	.st13{fill:#BCD38C;}
	.st14{fill:#DDDA91;}
	.st15{fill:#77A275;}
</style>
<g id="Layer_1_1_">
	<g>
		<g>
			<g>
				<g>
					<g>
						<path class="st0" d="M209.2,556.6c-6.1-53.7-58.9-87.9-88.5-133.2c-22.1-33.8-31.4-75.9-25-115.8s28.5-77.1,60.8-101.4
							c42.6-32,98.6-40,144.4-67.2C348,111,382,64.2,430.1,38.1C480.4,10.8,544,9.5,595.3,34.9c27.9,13.8,52.5,35.4,66.4,63.2
							c23.1,46.1,14.4,100.9,8.7,152.2c-1.6,14.9-2.9,30.3,1.5,44.6c8.9,28.5,37.9,45.3,65.4,57.2c27.4,11.9,57.5,23,74.5,47.6
							c24.3,35.1,11.9,84.9-13.5,119.3c-44.7,60.6-141.8,63.3-216.4,73.7c-33.4,4.6-66.9,8.8-100.4,12.4
							c-31.7,3.5-64.1,6.5-95.1-0.9c-18.1-4.3-35.2-11.9-53.1-16.6C295.4,577.6,242.4,577.6,209.2,556.6z"/>
						<path class="st1" d="M309.3,657.7c0,0,32.2,42.7,80.7,20.2s20.5-36.2,20.5-36.2s44.6,4.9,68.1-24.7
							c23.4-29.6-39.7-15.8-39.7-15.8s74.7-31.3,66-71.2c-8.7-39.9-53.1-6.2-53.1-6.2s58.5-56.7,38.1-91.1
							c-20.4-34.3-51.6,2.6-51.6,2.6s20.7-36.3,1.6-49.7c-19.1-13.4-40.3,12.9-40.3,12.9s2.9-118.6-60.5-79.9c0,0-7.5-81-57.6-29.7
							c0,0-19.1-75.4-76.5-57.1S183.6,330,183.6,330s-17.7-36-44.7-15.3s19.7,74.7,19.7,74.7s-36.3-25.5-64.5,6.5
							s17.3,86.3,17.3,86.3s-13.9-11.5-39.4-3.3c-25.6,8.2,6.1,51,37.5,53.3c0,0-67.6,10.7,11.7,57.5c0,0-28.2-7.6-31.6,16.8
							c-3.5,24.4,34.9,48.8,81.4,48.3c0,0-37.7-2.4-27.1,30.9c10.6,33.2,72.4,10.1,72.4,10.1s-41,27.8-3.4,39.5
							C250.3,746.9,296.4,711.4,309.3,657.7"/>
						<path class="st2" d="M675.6,498.4c0,0-4.1,37.4-41.5,41.4c-37.5,3.9-25.5-14.5-25.5-14.5s-25.2,19.1-50.1,9.7
							c-24.9-9.4,18.3-23.9,18.3-23.9s-56.5,8.1-65.6-19.2c-9.1-27.3,29.9-22.9,29.9-22.9s-55.9-13.2-56-41.3
							c-0.1-28.1,32.1-17.1,32.1-17.1s-25.6-14.5-18.9-29.5s29-6.8,29-6.8s-44.6-70.7,7.7-70.2c0,0-24.7-51.7,24.1-38.8
							c0,0-15.7-52.5,25.6-62.2c41.3-9.6,48.4,51.6,48.4,51.6s-2.3-28.2,21.5-25.4s15.1,52.3,15.1,52.3s12.7-28.5,41.3-19.4
							s20.7,58.4,20.7,58.4s4.3-11.9,22.7-16.2c18.4-4.3,14.8,33.1-3.4,45.8c0,0,44.8-18,13.7,39c0,0,14.3-14.8,25.2-1.3
							s-3.5,42.1-31.7,58.6c0,0,22-15.1,27.6,8.9c5.6,23.9-40.1,32.3-40.1,32.3s34.8,2,16.4,22.7C743.4,531,702.7,526.2,675.6,498.4
							"/>
					</g>
					<path class="st3" d="M608.8,510.4c-27.1,3.6-54.3,7.3-80.6,14.4C474.9,539.3,426,568,372,579.5c-20.3,4.3-41,6.2-61.4,9.8
						C213.5,606.7,124.9,667,73.1,751c-4.5,7.4-9.5,15.4-17.6,18.3c-5.1,1.8-10.6,1.3-15.9,2.3c-18.4,3.7-27.7,26.3-23.7,44.6
						s17.2,33,30.1,46.6c18.4,19.4,39.1,39.4,65.4,43.8c17.4,2.9,36.1-1.2,52.3,5.6c13.2,5.6,22.4,17.5,32.7,27.5s24,18.9,38.1,16
						c7-1.5,13-5.6,19.1-9.2c15.6-9.2,32.9-14.9,50.1-20.2c61.7-19.1,125-33.9,189.5-37.3c47.5-2.6,95.9,1,142.1-10.7
						c55.7-14.2,107.6-55,120.4-111c3.2-14.2,3.7-29.6-2.8-42.6c-7.5-14.8-23.5-25.5-25.5-41.9c-2.3-19,15.2-33.7,27.4-48.5
						c22.3-26.9,51.3-114.8,15.8-141.8c-18-13.7-44.6-0.2-63.4,3.9C675,503.4,641.5,506,608.8,510.4z"/>
				</g>
			</g>
			<g>
				<g>
					<path class="st3" d="M736.3,637.3c6.4,0,6.4-10,0-10C729.9,627.3,729.9,637.3,736.3,637.3L736.3,637.3z"/>
				</g>
			</g>
			<g>
				<g>
					<path class="st3" d="M721.5,821.4c6.4,0,6.4-10,0-10S715.1,821.4,721.5,821.4L721.5,821.4z"/>
				</g>
			</g>
			<g>
				<g>
					<path class="st3" d="M719.3,774.8c6.4,0,6.4-10,0-10C712.9,764.8,712.9,774.8,719.3,774.8L719.3,774.8z"/>
				</g>
			</g>
		</g>
		<g>
			<g>
				<g>
					<g>
						<path class="st4" d="M74.5,861.6c6.4,0,6.4-10,0-10S68.1,861.6,74.5,861.6L74.5,861.6z"/>
					</g>
				</g>
				<g>
					<g>
						<path class="st4" d="M172.1,690c6.4,0,6.4-10,0-10C165.7,680,165.7,690,172.1,690L172.1,690z"/>
					</g>
				</g>
				<g>
					<g>
						<path class="st4" d="M772.5,522.4c6.4,0,6.4-10,0-10S766.1,522.4,772.5,522.4L772.5,522.4z"/>
					</g>
				</g>
				<g>
					<g>
						<path class="st4" d="M747.9,564.8c6.4,0,6.4-10,0-10S741.4,564.8,747.9,564.8L747.9,564.8z"/>
					</g>
				</g>
				<g>
					<g>
						<path class="st4" d="M763.7,569.7c6.4,0,6.4-10,0-10C757.2,559.7,757.2,569.7,763.7,569.7L763.7,569.7z"/>
					</g>
				</g>
				<g>
					<g>
						<path class="st4" d="M666.1,713.7c6.4,0,6.4-10,0-10C659.6,703.7,659.6,713.7,666.1,713.7L666.1,713.7z"/>
					</g>
				</g>
				<g>
					<g>
						<path class="st4" d="M416.6,608.2c6.4,0,6.4-10,0-10S410.2,608.2,416.6,608.2L416.6,608.2z"/>
					</g>
				</g>
				<g>
					<g>
						<path class="st3" d="M288.2,559.6c6.4,0,6.4-10,0-10C281.8,549.6,281.8,559.6,288.2,559.6L288.2,559.6z"/>
					</g>
				</g>
				<g>
					<g>
						<path class="st3" d="M773.3,724.5c6.4,0,6.4-10,0-10C766.8,714.5,766.8,724.5,773.3,724.5L773.3,724.5z"/>
					</g>
				</g>
			</g>
			<g>
				<path class="st4" d="M689.6,691.3C521.8,739.1,354,786.8,186.2,834.6c-10.8,3.1-24.3,5.5-31.7-3c-3.5-3.9-4.6-9.3-5.7-14.4
					c-4.7-23.1-9.4-46.2-14.1-69.3c-1.4-6.9-2.5-14.9,2.1-20.2c3-3.4,7.7-4.7,12.1-5.8c124.6-31.5,249.2-62.9,373.8-94.4
					c54.3-13.7,108.3-28.9,162.5-43c30.2-7.8,69-18.9,83.1,17.5C788.6,654.3,727.1,678.8,689.6,691.3z"/>
				<path class="st4" d="M629.7,765.7c-63.5,50.2-148.4,62.1-229.2,68.2c-80.7,6-164.5,8.7-236.9,44.9c-5,2.5-10.7,6.3-10.5,11.9
					c0.1,4,3.2,7.1,6.1,9.9c20.3,19,40.5,38,60.8,57c8.8,8.2,17.8,16.6,28.9,21.4c15,6.4,32.1,5.4,48.4,4.2
					c118.5-8.4,245.2-19.9,337.7-94.6c18.1-14.6,34.5-30.3,56.6-38.8c22.5-8.7,47.1-7,67.6-21.4c26.5-18.6,39-53.5,34.4-85.1
					C777.5,630.6,670.7,733.3,629.7,765.7z"/>
				<path class="st4" d="M232.7,559.2c72.7-27.9,153.6-18.7,231-27.4c96.4-10.9,193-50,287.7-28.8c-95,53.8-208.4,60.6-315.9,79.4
					c-73.3,12.9-145.6,31.9-215.7,56.9c-62.1,22.1-112.3,58.5-149.9-17.7C130.8,616.3,176.9,580.5,232.7,559.2z"/>
				<g>
					<path class="st5" d="M485.1,659.5c0,0,9.7-7.6,16.1-4.5c6.5,3,17.5,6.9,11.9,21.3c-5.7,14.4,1.8,18.2-16.3,25.1
						c-18.1,6.9-27.2,23.4-30.3,3.4C463.5,684.8,485.1,659.5,485.1,659.5"/>
					<path class="st6" d="M409.8,662.2c-0.2-0.1-10.2-7.7-16.1-4.5c-6.3,3.4-17.5,6.9-11.9,21.3c5.7,14.4-1.8,18.2,16.3,25.1
						c18.1,6.9,27.2,23.4,30.3,3.4C431.4,687.5,409.8,662.2,409.8,662.2"/>
					<path class="st7" d="M480.8,654.6c-8.8-0.9-17.7-1.5-26.6-1.8c-2.1-0.8-4.9-0.8-7.3-0.2c-2.9,0.6-5.3,2-7.7,3.2
						c-9.3,5.1-18.8,10.8-22.7,18c-1.3,0.6-2.8,1.2-4.4,1.6c-3-4.1-2.9-13.3,0.3-16.8c1.1-1.2,2.9-2.2,4.6-3.1c5.6-3,11.3-6,16.9-9
						l0,0c2.4-1.3,4.8-2.5,7.2-3.8c3-1.6,6.2-3.2,10-3.5c5.8-0.4,10.8,2.6,14.2,5.7C468.1,647.4,475.5,652,480.8,654.6"/>
					<path class="st8" d="M466.3,690.1c-1.3,0.4-2.7,0.8-4,0.9c-0.4,0-0.7,0-1,0c-0.2,0-0.3-0.1-0.5-0.1c-1.8-0.6-3.2-1.5-4.6-2.4
						c-3.4-2.1-6.8-4.3-10.2-6.5c-1-0.6-2.1-1.3-3.4-1.7c-2.5-0.9-5.7-0.7-8.2-1.6c-1.1-0.4-2.1-0.9-3.3-1.2c-0.2,0-0.4-0.1-0.6-0.1
						c-0.4,0-0.7,0-1,0c-1.3,0.1-2.4,0.5-3.5,1.1l0,0c-0.4-0.2-1.1,0.1-1.6,0.4c0.1-2.1,2.2-4.2,4.8-5.5c3.1-1.5,7-2.3,10.9-2.8
						c3.3-0.4,6.7-0.7,10.1-0.4c1,0.1,1.9,0.2,2.9,0.4c6.6,1.4,10.8,6,11,10.4c0.1,3.1-1.2,6.6,1.9,8.9
						C466,690.1,466.1,690.1,466.3,690.1"/>
					<path class="st8" d="M461.2,691c-0.2,0-0.4,0-0.5-0.1c-1.8-0.6-3.2-1.5-4.6-2.4c-3.4-2.1-6.8-4.3-10.2-6.5
						c-1-0.6-2.1-1.3-3.4-1.7c-2.5-0.9-5.7-0.7-8.2-1.6c-1.1-0.4-2.1-0.9-3.3-1.2c-0.2,0-0.4-0.1-0.6-0.1c0.2,0,0.4,0,0.6,0.1
						c1.2,0.2,2.2,0.8,3.3,1.2c2.5,0.9,5.7,0.7,8.2,1.6c1.3,0.4,2.3,1.1,3.4,1.7c3.4,2.2,6.8,4.3,10.2,6.5c1.4,0.9,2.9,1.8,4.6,2.4
						C460.9,691,461.1,691,461.2,691"/>
					<path class="st5" d="M480.9,702.1c-0.8,3-5.7,4.9-10.4,5.4c-4.7,0.6-9.5,0.3-14.1,1.2s-8.6,3-13.3,3.8
						c-6.4,1.1-12.8-0.5-18.6-2.8c-2.7-1-5.3-2.3-7.7-3.5c-6.1-3-13-7.2-11.5-12.1c1.1-3.5,8.2-7.4,10.7-11.1
						c1.1,1.5,2.8,2.8,4.4,3.8c-0.3,3.6,1.5,7.5,5.8,9.8c1.7,0.9,3.8,1.6,5.9,2.1c6,1.5,12.8,2.1,19.1,0.9c5.6-1,14.5-5.9,17.7-9.7
						c2.6,0.1,5.6,0,8.2-0.3c-0.8,1.5-0.4,3.5,0.6,5.1C479.3,697.3,481.5,699.6,480.9,702.1"/>
					<path class="st9" d="M424.5,709.8c-0.6,0.2-1.3,0.4-2,0.7c-3.6,1.1-7.3,2-11.2,2c-3.6,0.1-7.1-0.6-10.1-1.9l0,0
						c-4.2-1.7-7.4-4.5-8.3-7.6c-0.8-2.6-0.2-5.5-2.2-7.9c-1-1.2-2.7-2.2-3.8-3.4c-3.4-3.4-2.6-7.8-1.7-11.8
						c0.2-0.9,0.4-1.7,1.1-2.5c0.6-0.6,1.3-1.1,2.3-1.4c2-0.7,4.6-0.8,6.9-0.5c3.3,0.4,6.6,1.3,10,1.1c1.9-0.1,4.3-0.5,6.7-1.2
						c1.5-0.4,3-1,4.4-1.6c-0.8,1.4-1.3,2.9-1.6,4.4c-0.4,2,0.1,3.6,1.1,5c-2.5,3.7-9.6,7.5-10.7,11.1c-1.5,4.9,5.3,9,11.5,12.1
						C419.3,707.6,421.8,708.8,424.5,709.8"/>
					<path class="st10" d="M496.5,705.5L496.5,705.5c-0.3,2.8-2.1,5.5-5.1,7.4c-2.7,1.7-6.2,2.9-9.7,4c-5.6,1.8-11.2,3.5-16.8,5.3
						c-7.3,2.3-16.6,4.6-23.1,1.4c-1.3-0.7-2.4-1.5-3.3-2.4c-1.7-1.6-2.8-3.6-4.3-5.4c-1.9-2.3-7.2-5.1-11.6-5.4
						c0.7-0.2,1.3-0.4,2-0.7c5.8,2.3,12.2,3.8,18.6,2.8c4.7-0.8,8.7-2.9,13.3-3.8c4.5-0.9,9.4-0.7,14.1-1.2
						c4.7-0.6,9.6-2.4,10.4-5.4c0.7-2.5-1.6-4.8-3-7.1c-1-1.6-1.5-3.6-0.6-5.1c2-0.3,3.7-0.7,4.7-1.5c0.9-0.7,1.5-1.6,2.3-2.4
						c0.3-0.3,0.6-0.6,1-0.9c0.3,1.6,0.5,4.2,0.7,5c0.7,3.3,5.4,5.6,8.2,8.4C496,700.6,496.8,703.1,496.5,705.5"/>
					<path class="st6" d="M438.5,721.3c-2.1,0.4-4.9,0.9-6.6,1.2c-1.4,0.3-2.9,0.6-4.3,0.7c-6.1,0.5-11.9-1.5-17.3-3.4
						c-1.4-0.5-2.7-1-3.8-1.7c-1.3-0.9-2-2.1-2.7-3.2c-0.9-1.4-1.7-2.8-2.6-4.2c3,1.2,6.5,1.9,10.1,1.9c3.9-0.1,7.7-0.9,11.2-2
						c4.4,0.4,9.7,3.1,11.6,5.4C435.7,717.7,436.8,719.6,438.5,721.3"/>
					<path class="st11" d="M470,667.3c-6.4-0.7-14.3,0.7-19.9,3c-3.3-0.3-6.8,0-10.1,0.4c-3.9,0.5-7.8,1.2-10.9,2.8
						c-2.7,1.3-4.7,3.4-4.8,5.5c-0.1,0.1-0.1,0.1-0.2,0.2c-2,2.2-3.2,4.7-3.6,7.2c0,0.2,0,0.4-0.1,0.6c-1.6-1.1-3.3-2.3-4.4-3.8
						c-1-1.4-1.5-3-1.1-5c0.3-1.5,0.8-3,1.6-4.4c3.9-7.2,13.5-12.9,22.7-18c2.3-1.3,4.7-2.6,7.7-3.2c2.4-0.5,5.1-0.5,7.3,0.2
						c0.5,0.2,0.9,0.4,1.3,0.6c2.2,1.4,2.5,3.5,3.7,5.3C461.1,661.6,465.7,665,470,667.3"/>
					<path class="st9" d="M500,685.1c-1.5,1.7-3.7,3.1-5.6,4.7l0,0c-0.4,0.4-0.9,0.7-1.2,1.1c-1,1-1.7,2.1-2.9,3
						c-1.3,1-3.4,1.6-5.9,1.9c-3.2,0.4-7.1,0.5-10.4,0.4c-1.3,0-2.4-0.1-3.5-0.1c-0.2,0-0.4,0-0.5,0c-3.9-3-2.2-7.4-2.4-11.3
						c-0.2-5.7-5.6-11.4-13.9-13.2c-1.2-0.3-2.4-0.4-3.6-0.5c7.1-2.9,17.1-4.7,25.2-3.8c2.3,0.3,4.5,0.7,6.4,1.5
						c3.2,1.3,6.2,3,10,3.3c1.2,0.1,2.4,0,3.6,0.2c1.5,0.3,2.7,1,3.7,1.9C502.4,677.3,502.9,681.7,500,685.1"/>
					<path class="st12" d="M424.1,679.3L424.1,679.3c0.6-1.3,2.7-2.2,4.8-1.9l1.5,0.2c0.2,0,0.4,0,0.6,0.1c1.2,0.2,2.2,0.8,3.3,1.2
						c2.5,0.9,5.7,0.7,8.2,1.6c1.3,0.4,2.3,1.1,3.4,1.7c3.4,2.2,6.8,4.3,10.2,6.5c1.4,0.9,2.9,1.8,4.6,2.4c0.2,0,0.3,0.1,0.5,0.1
						c0.3,0,0.6,0,1,0c1.3-0.1,2.8-0.5,4-0.9c0.8,0,1.7,0.1,2.8,0.1c-3.2,3.9-12.2,8.7-17.7,9.7c-6.2,1.1-13,0.6-19.1-0.9
						c-2.1-0.5-4.2-1.2-5.9-2.1c-4.3-2.3-6.1-6.2-5.8-9.8c0-0.2,0-0.4,0.1-0.6C420.9,683.9,422.1,681.5,424.1,679.3L424.1,679.3z"/>
					<path class="st13" d="M425,643.1c0,0,4.9-11.8,11.8-11.8c7,0,14.5,1.5,19.8-2.7c5.4-4.3,14.8,2.4,12.9,14.6
						C467.8,655.2,421.7,657.9,425,643.1"/>
					<path class="st14" d="M427.2,659.3c0,0,0.5-20.6,18.5-17.2c12.6,2.4,15.3-4.6,22.8-4.2c7.5,0.3,15.7,10.8,11.7,23.6
						c-3.9,12.8-13.7,29.2-29.1,24.6C435.6,681.6,424.2,668.4,427.2,659.3"/>
					<path class="st15" d="M460.1,689.8c0,0,11.2,2.2,21.9-8.9c10.6-11.1,8-20.3,4.8-30.9c-2-6.7-6.1-10.9-11.6-10.9
						s-7.9,11.2-12.4,11.2c-4.6,0-14.1-2.1-12.1,11.2C452.6,674.8,449.2,688.3,460.1,689.8"/>
					<path class="st5" d="M417.9,687c0,0-10.8,0.1-14.6-10.5c-4.8-13.5,4.2-21.9,4.6-31.2s15.6-13.2,19.8-6.7
						c4.2,6.5,10.5-0.5,12.9,10.1c1.2,5.3,9.7,3.9,7,16.2C444.9,677.4,417.9,687,417.9,687"/>
					<path class="st13" d="M441.2,704.3c0,0-24.1,2.4-29.6-17.8s8.4-14,9.9-21.3s10.6-9.9,15.8-6.2c5.1,3.7,8.4-1.8,15.8,0.4
						c7.3,2.2,5.1,15.4,10.3,15.4c5.1,0,8.4-0.4,7.3,10.3C469.6,695.7,459.1,701.6,441.2,704.3"/>
				</g>
				<g>
					<path class="st5" d="M224.3,560.3c0,0,7.9-6.2,13.2-3.7s14.4,5.6,9.7,17.4c-4.7,11.8,1.5,14.9-13.3,20.5s-22.3,19.2-24.8,2.8
						C206.7,581,224.3,560.3,224.3,560.3"/>
					<path class="st6" d="M162.7,562.5c-0.2,0-8.3-6.3-13.2-3.7c-5.2,2.7-14.4,5.6-9.7,17.4c4.7,11.8-1.5,14.9,13.3,20.5
						s22.3,19.2,24.8,2.8C180.4,583.2,162.7,562.5,162.7,562.5"/>
					<path class="st7" d="M220.8,556.3c-7.2-0.8-14.5-1.3-21.8-1.5c-1.8-0.6-4-0.6-6-0.2c-2.4,0.5-4.4,1.6-6.3,2.6
						c-7.6,4.1-15.4,8.9-18.6,14.7c-1.1,0.5-2.3,1-3.6,1.3c-2.4-3.4-2.4-10.9,0.2-13.8c0.9-1,2.4-1.8,3.8-2.5
						c4.6-2.4,9.2-4.9,13.8-7.3l0,0c1.9-1,3.9-2.1,5.9-3.1c2.4-1.3,5.1-2.6,8.2-2.8c4.7-0.3,8.8,2.1,11.6,4.6
						C210.4,550.4,216.5,554.1,220.8,556.3"/>
					<path class="st8" d="M208.9,585.3c-1,0.3-2.2,0.7-3.3,0.8c-0.3,0-0.6,0-0.8,0c-0.1,0-0.3,0-0.4-0.1c-1.5-0.5-2.6-1.2-3.8-1.9
						c-2.8-1.8-5.6-3.5-8.4-5.3c-0.8-0.5-1.7-1.1-2.7-1.4c-2.1-0.7-4.6-0.6-6.7-1.3c-0.9-0.3-1.7-0.8-2.7-1c-0.2,0-0.4-0.1-0.5-0.1
						c-0.3,0-0.6,0-0.8,0c-1,0.1-2,0.4-2.9,0.9l0,0c-0.4-0.1-0.9,0.1-1.3,0.4c0.1-1.8,1.8-3.4,4-4.5c2.6-1.3,5.7-1.9,8.9-2.3
						c2.7-0.4,5.5-0.6,8.2-0.4c0.8,0.1,1.6,0.2,2.3,0.4c5.4,1.2,8.9,4.9,9,8.5c0.1,2.5-1,5.4,1.5,7.3
						C208.7,585.3,208.8,585.3,208.9,585.3"/>
					<path class="st8" d="M204.8,586.1c-0.2,0-0.3,0-0.4-0.1c-1.5-0.5-2.6-1.2-3.8-1.9c-2.8-1.8-5.6-3.5-8.4-5.3
						c-0.8-0.5-1.7-1.1-2.7-1.4c-2.1-0.7-4.6-0.6-6.7-1.3c-0.9-0.3-1.7-0.8-2.7-1c-0.2,0-0.3,0-0.5-0.1c0.2,0,0.3,0,0.5,0.1
						c1,0.2,1.8,0.6,2.7,1c2.1,0.7,4.6,0.6,6.7,1.3c1.1,0.4,1.9,0.9,2.7,1.4c2.8,1.8,5.6,3.5,8.4,5.3c1.2,0.7,2.3,1.5,3.8,1.9
						C204.5,586.1,204.7,586.1,204.8,586.1"/>
					<path class="st5" d="M220.9,595.2c-0.7,2.5-4.7,4-8.5,4.4c-3.8,0.5-7.8,0.3-11.5,1c-3.8,0.8-7,2.5-10.9,3.1
						c-5.3,0.9-10.4-0.4-15.2-2.3c-2.2-0.9-4.3-1.9-6.3-2.8c-5-2.5-10.6-5.9-9.4-9.9c0.9-2.9,6.7-6.1,8.7-9.1
						c0.9,1.3,2.3,2.3,3.6,3.1c-0.2,3,1.2,6.1,4.8,8c1.4,0.8,3.1,1.3,4.8,1.7c4.9,1.2,10.5,1.7,15.6,0.8c4.5-0.8,11.9-4.8,14.5-8
						c2.1,0,4.6,0,6.7-0.3c-0.7,1.2-0.3,2.9,0.5,4.2C219.6,591.2,221.4,593.1,220.9,595.2"/>
					<path class="st9" d="M174.8,601.5c-0.5,0.2-1.1,0.4-1.6,0.5c-2.9,0.9-6,1.6-9.2,1.7c-2.9,0-5.8-0.5-8.2-1.5l0,0
						c-3.4-1.4-6-3.7-6.8-6.3c-0.7-2.2-0.2-4.5-1.8-6.5c-0.8-1-2.2-1.8-3.1-2.8c-2.8-2.8-2.1-6.4-1.4-9.7c0.2-0.7,0.3-1.4,0.9-2
						c0.5-0.5,1.1-0.9,1.9-1.1c1.6-0.5,3.7-0.6,5.6-0.4c2.7,0.3,5.4,1.1,8.2,0.9c1.5-0.1,3.5-0.4,5.5-1c1.3-0.4,2.5-0.8,3.6-1.3
						c-0.6,1.2-1.1,2.4-1.3,3.6c-0.3,1.7,0.1,3,0.9,4.1c-2,3-7.8,6.2-8.7,9.1c-1.3,4,4.4,7.4,9.4,9.9
						C170.4,599.6,172.6,600.6,174.8,601.5"/>
					<path class="st10" d="M233.7,598L233.7,598c-0.3,2.3-1.7,4.5-4.2,6.1c-2.2,1.4-5.1,2.3-7.9,3.2c-4.6,1.5-9.1,2.9-13.7,4.4
						c-6,1.9-13.6,3.8-18.9,1.2c-1.1-0.5-2-1.2-2.7-1.9c-1.4-1.3-2.3-2.9-3.5-4.4c-1.6-1.9-5.9-4.2-9.5-4.5c0.5-0.2,1.1-0.3,1.6-0.5
						c4.8,1.9,10,3.1,15.2,2.3c3.8-0.6,7.1-2.4,10.9-3.1c3.7-0.7,7.7-0.5,11.5-1s7.8-2,8.5-4.4c0.5-2-1.3-3.9-2.5-5.8
						c-0.8-1.3-1.2-2.9-0.5-4.2c1.6-0.2,3-0.6,3.8-1.2c0.8-0.6,1.2-1.3,1.8-1.9c0.2-0.3,0.5-0.5,0.8-0.7c0.3,1.3,0.4,3.5,0.6,4.1
						c0.5,2.7,4.4,4.5,6.7,6.9C233.2,593.9,233.9,596,233.7,598"/>
					<path class="st6" d="M186.2,610.9c-1.7,0.3-4,0.7-5.4,1c-1.2,0.2-2.3,0.5-3.5,0.6c-5,0.4-9.7-1.2-14.1-2.8
						c-1.1-0.4-2.2-0.8-3.1-1.4c-1.1-0.7-1.6-1.7-2.2-2.6c-0.7-1.1-1.4-2.3-2.1-3.4c2.5,1,5.3,1.6,8.2,1.5c3.2,0,6.3-0.8,9.2-1.7
						c3.6,0.3,7.9,2.5,9.5,4.5C183.9,607.9,184.8,609.5,186.2,610.9"/>
					<path class="st11" d="M211.9,566.7c-5.2-0.6-11.7,0.6-16.3,2.5c-2.7-0.2-5.5,0-8.2,0.4c-3.2,0.4-6.4,1-8.9,2.3
						c-2.2,1.1-3.8,2.8-4,4.5c-0.1,0-0.1,0.1-0.2,0.2c-1.6,1.8-2.6,3.8-2.9,5.9c0,0.2,0,0.3-0.1,0.5c-1.3-0.9-2.7-1.9-3.6-3.1
						c-0.8-1.1-1.2-2.4-0.9-4.1c0.2-1.3,0.7-2.5,1.3-3.6c3.2-5.9,11-10.6,18.6-14.7c1.9-1,3.9-2.1,6.3-2.6c1.9-0.4,4.2-0.4,6,0.2
						c0.4,0.1,0.8,0.3,1.1,0.5c1.8,1.1,2.1,2.9,3,4.4C204.7,562,208.5,564.8,211.9,566.7"/>
					<path class="st9" d="M236.5,581.3c-1.2,1.4-3,2.6-4.6,3.9l0,0c-0.4,0.3-0.7,0.6-1,0.9c-0.8,0.8-1.4,1.7-2.3,2.5
						c-1,0.8-2.8,1.3-4.8,1.6c-2.7,0.4-5.8,0.4-8.5,0.3c-1,0-2-0.1-2.8-0.1c-0.2,0-0.3,0-0.4,0c-3.2-2.4-1.8-6-2-9.2
						c-0.2-4.6-4.6-9.3-11.4-10.8c-1-0.2-2-0.4-3-0.4c5.8-2.4,14-3.8,20.6-3.1c1.9,0.2,3.7,0.6,5.2,1.2c2.6,1,5.1,2.5,8.2,2.7
						c1,0.1,2,0,3,0.2c1.2,0.2,2.2,0.8,3,1.5C238.5,574.9,238.9,578.5,236.5,581.3"/>
					<path class="st12" d="M174.4,576.5L174.4,576.5c0.5-1.1,2.2-1.8,3.9-1.6l1.2,0.2c0.2,0,0.3,0,0.5,0.1c1,0.2,1.8,0.6,2.7,1
						c2.1,0.7,4.6,0.6,6.7,1.3c1.1,0.4,1.9,0.9,2.7,1.4c2.8,1.8,5.6,3.5,8.4,5.3c1.2,0.7,2.3,1.5,3.8,1.9c0.1,0,0.3,0.1,0.4,0.1
						c0.3,0,0.5,0,0.8,0c1-0.1,2.3-0.4,3.3-0.8c0.7,0,1.4,0.1,2.3,0.1c-2.6,3.2-10,7.1-14.5,8c-5.1,0.9-10.7,0.5-15.6-0.8
						c-1.7-0.4-3.4-1-4.8-1.7c-3.5-1.9-5-5.1-4.8-8c0-0.2,0-0.3,0.1-0.5C171.8,580.3,172.8,578.3,174.4,576.5L174.4,576.5z"/>
					<path class="st13" d="M175.1,546.8c0,0,4-9.7,9.7-9.7s11.9,1.2,16.2-2.2c4.4-3.5,12.1,2,10.6,11.9
						C210.2,556.8,172.4,559,175.1,546.8"/>
					<path class="st14" d="M177,560.2c0,0,0.4-16.8,15.1-14.1c10.3,1.9,12.6-3.7,18.7-3.5c6.1,0.2,12.8,8.8,9.6,19.3
						s-11.2,23.9-23.9,20.2C183.8,578.4,174.5,567.6,177,560.2"/>
					<path class="st15" d="M203.9,585.1c0,0,9.2,1.8,17.9-7.3s6.6-16.6,4-25.3c-1.7-5.5-5-8.9-9.5-8.9s-6.5,9.2-10.2,9.2
						s-11.6-1.7-9.9,9.1C197.7,572.8,195,583.9,203.9,585.1"/>
					<path class="st5" d="M169.3,582.8c0,0-8.9,0.1-11.9-8.6c-3.9-11,3.4-17.9,3.7-25.5s12.8-10.8,16.2-5.5
						c3.5,5.4,8.6-0.4,10.6,8.3c1,4.3,7.9,3.2,5.7,13.2C191.4,575,169.3,582.8,169.3,582.8"/>
					<path class="st13" d="M188.4,597c0,0-19.8,2-24.3-14.6c-4.5-16.5,6.9-11.4,8.1-17.4c1.2-6,8.7-8.1,12.9-5.1s6.9-1.5,12.9,0.3
						s4.2,12.6,8.4,12.6s6.9-0.3,6,8.4C211.7,589.9,203.1,594.7,188.4,597"/>
				</g>
				<g>
					<path class="st5" d="M614.9,488.3c0,0,7.9-6.2,13.2-3.7s14.4,5.6,9.7,17.4c-4.7,11.8,1.5,14.9-13.3,20.5
						c-14.8,5.6-22.3,19.2-24.8,2.8C597.2,509,614.9,488.3,614.9,488.3"/>
					<path class="st6" d="M553.3,490.5c-0.2,0-8.3-6.3-13.2-3.7c-5.2,2.7-14.4,5.6-9.7,17.4c4.7,11.8-1.5,14.9,13.3,20.5
						s22.3,19.2,24.8,2.8C570.9,511.2,553.3,490.5,553.3,490.5"/>
					<path class="st7" d="M611.4,484.3c-7.2-0.8-14.5-1.3-21.8-1.5c-1.8-0.6-4-0.6-6-0.2c-2.4,0.5-4.4,1.6-6.3,2.6
						c-7.6,4.1-15.4,8.9-18.6,14.7c-1.1,0.5-2.3,1-3.6,1.3c-2.4-3.4-2.4-10.9,0.2-13.8c0.9-1,2.4-1.8,3.8-2.5
						c4.6-2.4,9.2-4.9,13.8-7.3l0,0c1.9-1,3.9-2.1,5.9-3.1c2.4-1.3,5.1-2.6,8.2-2.8c4.7-0.3,8.8,2.1,11.6,4.6
						C600.9,478.4,607,482.1,611.4,484.3"/>
					<path class="st8" d="M599.4,513.4c-1,0.3-2.2,0.7-3.3,0.8c-0.3,0-0.6,0-0.8,0c-0.1,0-0.3,0-0.4-0.1c-1.5-0.5-2.6-1.2-3.8-1.9
						c-2.8-1.8-5.6-3.5-8.4-5.3c-0.8-0.5-1.7-1.1-2.7-1.4c-2.1-0.7-4.6-0.6-6.7-1.3c-0.9-0.3-1.7-0.8-2.7-1c-0.2,0-0.4-0.1-0.5-0.1
						c-0.3,0-0.6,0-0.8,0c-1,0.1-2,0.4-2.9,0.9l0,0c-0.4-0.1-0.9,0.1-1.3,0.4c0.1-1.8,1.8-3.4,4-4.5c2.6-1.3,5.7-1.9,8.9-2.3
						c2.7-0.4,5.5-0.6,8.2-0.4c0.8,0.1,1.6,0.2,2.3,0.4c5.4,1.2,8.9,4.9,9,8.5c0.1,2.5-1,5.4,1.5,7.3
						C599.2,513.3,599.3,513.3,599.4,513.4"/>
					<path class="st8" d="M595.3,514.1c-0.2,0-0.3,0-0.4-0.1c-1.5-0.5-2.6-1.2-3.8-1.9c-2.8-1.8-5.6-3.5-8.4-5.3
						c-0.8-0.5-1.7-1.1-2.7-1.4c-2.1-0.7-4.6-0.6-6.7-1.3c-0.9-0.3-1.7-0.8-2.7-1c-0.2,0-0.3,0-0.5-0.1c0.2,0,0.3,0,0.5,0.1
						c1,0.2,1.8,0.6,2.7,1c2.1,0.7,4.6,0.6,6.7,1.3c1.1,0.4,1.9,0.9,2.7,1.4c2.8,1.8,5.6,3.5,8.4,5.3c1.2,0.7,2.3,1.5,3.8,1.9
						C595.1,514.1,595.2,514.1,595.3,514.1"/>
					<path class="st5" d="M611.4,523.2c-0.7,2.5-4.7,4-8.5,4.4c-3.8,0.5-7.8,0.3-11.5,1c-3.8,0.8-7,2.5-10.9,3.1
						c-5.3,0.9-10.4-0.4-15.2-2.3c-2.2-0.9-4.3-1.9-6.3-2.8c-5-2.5-10.6-5.9-9.4-9.9c0.9-2.9,6.7-6.1,8.7-9.1
						c0.9,1.3,2.3,2.3,3.6,3.1c-0.2,3,1.2,6.1,4.8,8c1.4,0.8,3.1,1.3,4.8,1.7c4.9,1.2,10.5,1.7,15.6,0.8c4.5-0.8,11.9-4.8,14.5-8
						c2.1,0,4.6,0,6.7-0.3c-0.7,1.2-0.3,2.9,0.5,4.2C610.1,519.2,611.9,521.2,611.4,523.2"/>
					<path class="st9" d="M565.3,529.5c-0.5,0.2-1.1,0.4-1.6,0.5c-2.9,0.9-6,1.6-9.2,1.7c-2.9,0-5.8-0.5-8.2-1.5l0,0
						c-3.4-1.4-6-3.7-6.8-6.3c-0.7-2.2-0.2-4.5-1.8-6.5c-0.8-1-2.2-1.8-3.1-2.8c-2.8-2.8-2.1-6.4-1.4-9.7c0.2-0.7,0.3-1.4,0.9-2
						c0.5-0.5,1.1-0.9,1.9-1.1c1.6-0.5,3.7-0.6,5.6-0.4c2.7,0.3,5.4,1.1,8.2,0.9c1.5-0.1,3.5-0.4,5.5-1c1.3-0.4,2.5-0.8,3.6-1.3
						c-0.6,1.2-1.1,2.4-1.3,3.6c-0.3,1.7,0.1,3,0.9,4.1c-2,3-7.8,6.2-8.7,9.1c-1.3,4,4.4,7.4,9.4,9.9
						C561,527.6,563.1,528.6,565.3,529.5"/>
					<path class="st10" d="M624.2,526L624.2,526c-0.3,2.3-1.7,4.5-4.2,6.1c-2.2,1.4-5.1,2.3-7.9,3.2c-4.6,1.5-9.1,2.9-13.7,4.4
						c-6,1.9-13.6,3.8-18.9,1.2c-1.1-0.5-2-1.2-2.7-1.9c-1.4-1.3-2.3-2.9-3.5-4.4c-1.6-1.9-5.9-4.2-9.5-4.5c0.5-0.2,1.1-0.3,1.6-0.5
						c4.8,1.9,10,3.1,15.2,2.3c3.8-0.6,7.1-2.4,10.9-3.1c3.7-0.7,7.7-0.5,11.5-1s7.8-2,8.5-4.4c0.5-2-1.3-3.9-2.5-5.8
						c-0.8-1.3-1.2-2.9-0.5-4.2c1.6-0.2,3-0.6,3.8-1.2c0.8-0.6,1.2-1.3,1.8-1.9c0.2-0.3,0.5-0.5,0.8-0.7c0.3,1.3,0.4,3.5,0.6,4.1
						c0.5,2.7,4.4,4.5,6.7,6.9C623.8,521.9,624.5,524,624.2,526"/>
					<path class="st6" d="M576.7,538.9c-1.7,0.3-4,0.7-5.4,1c-1.2,0.2-2.3,0.5-3.5,0.6c-5,0.4-9.7-1.2-14.1-2.8
						c-1.1-0.4-2.2-0.8-3.1-1.4c-1.1-0.7-1.6-1.7-2.2-2.6c-0.7-1.1-1.4-2.3-2.1-3.4c2.5,1,5.3,1.6,8.2,1.5c3.2,0,6.3-0.8,9.2-1.7
						c3.6,0.3,7.9,2.5,9.5,4.5C574.4,535.9,575.3,537.5,576.7,538.9"/>
					<path class="st11" d="M602.5,494.7c-5.2-0.6-11.7,0.6-16.3,2.5c-2.7-0.2-5.5,0-8.2,0.4c-3.2,0.4-6.4,1-8.9,2.3
						c-2.2,1.1-3.8,2.8-4,4.5c-0.1,0-0.1,0.1-0.2,0.2c-1.6,1.8-2.6,3.8-2.9,5.9c0,0.2,0,0.3-0.1,0.5c-1.3-0.9-2.7-1.9-3.6-3.1
						c-0.8-1.1-1.2-2.4-0.9-4.1c0.2-1.3,0.7-2.5,1.3-3.6c3.2-5.9,11-10.6,18.6-14.7c1.9-1,3.9-2.1,6.3-2.6c1.9-0.4,4.2-0.4,6,0.2
						c0.4,0.1,0.8,0.3,1.1,0.5c1.8,1.1,2.1,2.9,3,4.4C595.2,490,599,492.8,602.5,494.7"/>
					<path class="st9" d="M627.1,509.3c-1.2,1.4-3,2.6-4.6,3.9l0,0c-0.4,0.3-0.7,0.6-1,0.9c-0.8,0.8-1.4,1.7-2.3,2.5
						c-1,0.8-2.8,1.3-4.8,1.6c-2.7,0.4-5.8,0.4-8.5,0.3c-1,0-2-0.1-2.8-0.1c-0.2,0-0.3,0-0.4,0c-3.2-2.4-1.8-6-2-9.2
						c-0.2-4.6-4.6-9.3-11.4-10.8c-1-0.2-2-0.4-3-0.4c5.8-2.4,14-3.8,20.6-3.1c1.9,0.2,3.7,0.6,5.2,1.2c2.6,1,5.1,2.5,8.2,2.7
						c1,0.1,2,0,3,0.2c1.2,0.2,2.2,0.8,3,1.5C629.1,502.9,629.4,506.5,627.1,509.3"/>
					<path class="st12" d="M564.9,504.5L564.9,504.5c0.5-1.1,2.2-1.8,3.9-1.6l1.2,0.2c0.2,0,0.3,0,0.5,0.1c1,0.2,1.8,0.6,2.7,1
						c2.1,0.7,4.6,0.6,6.7,1.3c1.1,0.4,1.9,0.9,2.7,1.4c2.8,1.8,5.6,3.5,8.4,5.3c1.2,0.7,2.3,1.5,3.8,1.9c0.1,0,0.3,0.1,0.4,0.1
						c0.3,0,0.5,0,0.8,0c1-0.1,2.3-0.4,3.3-0.8c0.7,0,1.4,0.1,2.3,0.1c-2.6,3.2-10,7.1-14.5,8c-5.1,0.9-10.7,0.5-15.6-0.8
						c-1.7-0.4-3.4-1-4.8-1.7c-3.5-1.9-5-5.1-4.8-8c0-0.2,0-0.3,0.1-0.5C562.3,508.3,563.3,506.3,564.9,504.5L564.9,504.5z"/>
					<path class="st13" d="M565.7,474.8c0,0,4-9.7,9.7-9.7s11.9,1.2,16.2-2.2c4.4-3.5,12.1,2,10.6,11.9
						C600.7,484.8,562.9,487,565.7,474.8"/>
					<path class="st14" d="M567.5,488.2c0,0,0.4-16.8,15.1-14.1c10.3,1.9,12.6-3.7,18.7-3.5c6.1,0.2,12.8,8.8,9.6,19.3
						s-11.2,23.9-23.9,20.2C574.4,506.4,565,495.6,567.5,488.2"/>
					<path class="st15" d="M594.4,513.1c0,0,9.2,1.8,17.9-7.3c8.7-9.1,6.6-16.6,4-25.3c-1.7-5.5-5-8.9-9.5-8.9s-6.5,9.2-10.2,9.2
						s-11.6-1.7-9.9,9.1C588.3,500.8,585.5,511.9,594.4,513.1"/>
					<path class="st5" d="M559.9,510.8c0,0-8.9,0.1-11.9-8.6c-3.9-11,3.4-17.9,3.7-25.5s12.8-10.8,16.2-5.5
						c3.5,5.4,8.6-0.4,10.6,8.3c1,4.3,7.9,3.2,5.7,13.2C582,503,559.9,510.8,559.9,510.8"/>
					<path class="st13" d="M579,525c0,0-19.8,2-24.3-14.6c-4.5-16.5,6.9-11.4,8.1-17.4c1.2-6,8.7-8.1,12.9-5.1s6.9-1.5,12.9,0.3
						s4.2,12.6,8.4,12.6s6.9-0.3,6,8.4C602.2,517.9,593.6,522.8,579,525"/>
				</g>
				<g>
					<path class="st5" d="M442.8,882.1c0,0,9.7-7.6,16.1-4.5c6.5,3,17.5,6.9,11.9,21.3c-5.7,14.4,1.8,18.2-16.3,25.1
						c-18.1,6.9-27.2,23.4-30.3,3.4C421.2,907.4,442.8,882.1,442.8,882.1"/>
					<path class="st6" d="M367.5,884.7c-0.2-0.1-10.2-7.7-16.1-4.5c-6.3,3.4-17.5,6.9-11.9,21.3c5.7,14.4-1.8,18.2,16.3,25.1
						c18.1,6.9,27.2,23.4,30.3,3.4C389.1,910,367.5,884.7,367.5,884.7"/>
					<path class="st7" d="M438.5,877.1c-8.8-0.9-17.7-1.5-26.6-1.8c-2.1-0.8-4.9-0.8-7.3-0.2c-2.9,0.6-5.3,2-7.7,3.2
						c-9.3,5.1-18.8,10.8-22.7,18c-1.3,0.6-2.8,1.2-4.4,1.6c-3-4.1-2.9-13.3,0.3-16.8c1.1-1.2,2.9-2.2,4.6-3.1c5.6-3,11.3-6,16.9-9
						l0,0c2.4-1.3,4.8-2.5,7.2-3.8c3-1.6,6.2-3.2,10-3.5c5.8-0.4,10.8,2.6,14.2,5.7C425.7,870,433.1,874.5,438.5,877.1"/>
					<path class="st8" d="M423.9,912.7c-1.3,0.4-2.7,0.8-4,0.9c-0.4,0-0.7,0-1,0c-0.2,0-0.3-0.1-0.5-0.1c-1.8-0.6-3.2-1.5-4.6-2.4
						c-3.4-2.1-6.8-4.3-10.2-6.5c-1-0.6-2.1-1.3-3.4-1.7c-2.5-0.9-5.7-0.7-8.2-1.6c-1.1-0.4-2.1-0.9-3.3-1.2c-0.2,0-0.4-0.1-0.6-0.1
						c-0.4,0-0.7,0-1,0c-1.3,0.1-2.4,0.5-3.5,1.1l0,0c-0.4-0.2-1.1,0.1-1.6,0.4c0.1-2.1,2.2-4.2,4.8-5.5c3.1-1.5,7-2.3,10.9-2.8
						c3.3-0.4,6.7-0.7,10.1-0.4c1,0.1,1.9,0.2,2.9,0.4c6.6,1.4,10.8,6,11,10.4c0.1,3.1-1.2,6.6,1.9,8.9
						C423.6,912.6,423.8,912.6,423.9,912.7"/>
					<path class="st8" d="M418.9,913.6c-0.2,0-0.4,0-0.5-0.1c-1.8-0.6-3.2-1.5-4.6-2.4c-3.4-2.1-6.8-4.3-10.2-6.5
						c-1-0.6-2.1-1.3-3.4-1.7c-2.5-0.9-5.7-0.7-8.2-1.6c-1.1-0.4-2.1-0.9-3.3-1.2c-0.2,0-0.4-0.1-0.6-0.1c0.2,0,0.4,0,0.6,0.1
						c1.2,0.2,2.2,0.8,3.3,1.2c2.5,0.9,5.7,0.7,8.2,1.6c1.3,0.4,2.3,1.1,3.4,1.7c3.4,2.2,6.8,4.3,10.2,6.5c1.4,0.9,2.9,1.8,4.6,2.4
						C418.6,913.5,418.7,913.6,418.9,913.6"/>
					<path class="st5" d="M438.5,924.6c-0.8,3-5.7,4.9-10.4,5.4c-4.7,0.6-9.5,0.3-14.1,1.2s-8.6,3-13.3,3.8
						c-6.4,1.1-12.8-0.5-18.6-2.8c-2.7-1-5.3-2.3-7.7-3.5c-6.1-3-13-7.2-11.5-12.1c1.1-3.5,8.2-7.4,10.7-11.1
						c1.1,1.5,2.8,2.8,4.4,3.8c-0.3,3.6,1.5,7.5,5.8,9.8c1.7,0.9,3.8,1.6,5.9,2.1c6,1.5,12.8,2.1,19.1,0.9c5.6-1,14.5-5.9,17.7-9.7
						c2.6,0.1,5.6,0,8.2-0.3c-0.8,1.5-0.4,3.5,0.6,5.1C437,919.8,439.2,922.2,438.5,924.6"/>
					<path class="st9" d="M382.2,932.4c-0.6,0.2-1.3,0.4-2,0.7c-3.6,1.1-7.3,2-11.2,2c-3.6,0.1-7.1-0.6-10.1-1.9l0,0
						c-4.2-1.7-7.4-4.5-8.3-7.6c-0.8-2.6-0.2-5.5-2.2-7.9c-1-1.2-2.7-2.2-3.8-3.4c-3.4-3.4-2.6-7.8-1.7-11.8
						c0.2-0.9,0.4-1.7,1.1-2.5c0.6-0.6,1.3-1.1,2.3-1.4c2-0.7,4.6-0.8,6.9-0.5c3.3,0.4,6.6,1.3,10,1.1c1.9-0.1,4.3-0.5,6.7-1.2
						c1.5-0.4,3-1,4.4-1.6c-0.8,1.4-1.3,2.9-1.6,4.4c-0.4,2,0.1,3.6,1.1,5c-2.5,3.7-9.6,7.5-10.7,11.1c-1.5,4.9,5.3,9,11.5,12.1
						C376.9,930.1,379.5,931.3,382.2,932.4"/>
					<path class="st10" d="M454.2,928.1L454.2,928.1c-0.3,2.8-2.1,5.5-5.1,7.4c-2.7,1.7-6.2,2.9-9.7,4c-5.6,1.8-11.2,3.5-16.8,5.3
						c-7.3,2.3-16.6,4.6-23.1,1.4c-1.3-0.7-2.4-1.5-3.3-2.4c-1.7-1.6-2.8-3.6-4.3-5.4c-1.9-2.3-7.2-5.1-11.6-5.4
						c0.7-0.2,1.3-0.4,2-0.7c5.8,2.3,12.2,3.8,18.6,2.8c4.7-0.8,8.7-2.9,13.3-3.8c4.5-0.9,9.4-0.7,14.1-1.2
						c4.7-0.6,9.6-2.4,10.4-5.4c0.7-2.5-1.6-4.8-3-7.1c-1-1.6-1.5-3.6-0.6-5.1c2-0.3,3.7-0.7,4.7-1.5c0.9-0.7,1.5-1.6,2.3-2.4
						c0.3-0.3,0.6-0.6,1-0.9c0.3,1.6,0.5,4.2,0.7,5c0.7,3.3,5.4,5.6,8.2,8.4C453.7,923.1,454.5,925.6,454.2,928.1"/>
					<path class="st6" d="M396.1,943.8c-2.1,0.4-4.9,0.9-6.6,1.2c-1.4,0.3-2.9,0.6-4.3,0.7c-6.1,0.5-11.9-1.5-17.3-3.4
						c-1.4-0.5-2.7-1-3.8-1.7c-1.3-0.9-2-2.1-2.7-3.2c-0.9-1.4-1.7-2.8-2.6-4.2c3,1.2,6.5,1.9,10.1,1.9c3.9-0.1,7.7-0.9,11.2-2
						c4.4,0.4,9.7,3.1,11.6,5.4C393.3,940.2,394.5,942.2,396.1,943.8"/>
					<path class="st11" d="M427.6,889.9c-6.4-0.7-14.3,0.7-19.9,3c-3.3-0.3-6.8,0-10.1,0.4c-3.9,0.5-7.8,1.2-10.9,2.8
						c-2.7,1.3-4.7,3.4-4.8,5.5c-0.1,0.1-0.1,0.1-0.2,0.2c-2,2.2-3.2,4.7-3.6,7.2c0,0.2,0,0.4-0.1,0.6c-1.6-1.1-3.3-2.3-4.4-3.8
						c-1-1.4-1.5-3-1.1-5c0.3-1.5,0.8-3,1.6-4.4c3.9-7.2,13.5-12.9,22.7-18c2.3-1.3,4.7-2.6,7.7-3.2c2.4-0.5,5.1-0.5,7.3,0.2
						c0.5,0.2,0.9,0.4,1.3,0.6c2.2,1.4,2.5,3.5,3.7,5.3C418.8,884.2,423.4,887.6,427.6,889.9"/>
					<path class="st9" d="M457.7,907.7c-1.5,1.7-3.7,3.1-5.6,4.7l0,0c-0.4,0.4-0.9,0.7-1.2,1.1c-1,1-1.7,2.1-2.9,3
						c-1.3,1-3.4,1.6-5.9,1.9c-3.2,0.4-7.1,0.5-10.4,0.4c-1.3,0-2.4-0.1-3.5-0.1c-0.2,0-0.4,0-0.5,0c-3.9-3-2.2-7.4-2.4-11.3
						c-0.2-5.7-5.6-11.4-13.9-13.2c-1.2-0.3-2.4-0.4-3.6-0.5c7.1-2.9,17.1-4.7,25.2-3.8c2.3,0.3,4.5,0.7,6.4,1.5
						c3.2,1.3,6.2,3,10,3.3c1.2,0.1,2.4,0,3.6,0.2c1.5,0.3,2.7,1,3.7,1.9C460.1,899.8,460.5,904.3,457.7,907.7"/>
					<path class="st12" d="M381.8,901.8L381.8,901.8c0.6-1.3,2.7-2.2,4.8-1.9l1.5,0.2c0.2,0,0.4,0,0.6,0.1c1.2,0.2,2.2,0.8,3.3,1.2
						c2.5,0.9,5.7,0.7,8.2,1.6c1.3,0.4,2.3,1.1,3.4,1.7c3.4,2.2,6.8,4.3,10.2,6.5c1.4,0.9,2.9,1.8,4.6,2.4c0.2,0,0.3,0.1,0.5,0.1
						c0.3,0,0.6,0,1,0c1.3-0.1,2.8-0.5,4-0.9c0.8,0,1.7,0.1,2.8,0.1c-3.2,3.9-12.2,8.7-17.7,9.7c-6.2,1.1-13,0.6-19.1-0.9
						c-2.1-0.5-4.2-1.2-5.9-2.1c-4.3-2.3-6.1-6.2-5.8-9.8c0-0.2,0-0.4,0.1-0.6C378.6,906.5,379.8,904,381.8,901.8L381.8,901.8z"/>
					<path class="st13" d="M382.7,865.6c0,0,4.9-11.8,11.8-11.8c7,0,14.5,1.5,19.8-2.7c5.4-4.3,14.8,2.4,12.9,14.6
						C425.5,877.8,379.3,880.5,382.7,865.6"/>
					<path class="st14" d="M384.9,881.9c0,0,0.5-20.6,18.5-17.2c12.6,2.4,15.3-4.6,22.8-4.2c7.5,0.3,15.7,10.8,11.7,23.6
						c-3.9,12.8-13.7,29.2-29.1,24.6C393.3,904.2,381.9,891,384.9,881.9"/>
					<path class="st15" d="M417.8,912.4c0,0,11.2,2.2,21.9-8.9c10.6-11.1,8-20.3,4.8-30.9c-2-6.7-6.1-10.9-11.6-10.9
						s-7.9,11.2-12.4,11.2c-4.6,0-14.1-2.1-12.1,11.2C410.3,897.3,406.9,910.8,417.8,912.4"/>
					<path class="st5" d="M375.6,909.6c0,0-10.8,0.1-14.6-10.5c-4.8-13.5,4.2-21.9,4.6-31.2s15.6-13.2,19.8-6.7
						c4.2,6.5,10.5-0.5,12.9,10.1c1.2,5.3,9.7,3.9,7,16.2C402.6,900,375.6,909.6,375.6,909.6"/>
					<path class="st13" d="M398.9,926.9c0,0-24.1,2.4-29.6-17.8s8.4-14,9.9-21.3s10.6-9.9,15.8-6.2c5.1,3.7,8.4-1.8,15.8,0.4
						c7.3,2.2,5.1,15.4,10.3,15.4c5.1,0,8.4-0.4,7.3,10.3C427.3,918.3,416.8,924.1,398.9,926.9"/>
				</g>
				<g>
					<path class="st5" d="M693.7,606.2c0,0,9.7-7.6,16.1-4.5c6.5,3,17.5,6.9,11.9,21.3c-5.7,14.4,1.8,18.2-16.3,25.1
						c-18.1,6.9-27.2,23.4-30.3,3.4C672.1,631.5,693.7,606.2,693.7,606.2"/>
					<path class="st6" d="M618.4,608.9c-0.2-0.1-10.2-7.7-16.1-4.5c-6.3,3.4-17.5,6.9-11.9,21.3c5.7,14.4-1.8,18.2,16.3,25.1
						c18.1,6.9,27.2,23.4,30.3,3.4C640,634.1,618.4,608.9,618.4,608.9"/>
					<path class="st7" d="M689.4,601.2c-8.8-0.9-17.7-1.5-26.6-1.8c-2.1-0.8-4.9-0.8-7.3-0.2c-2.9,0.6-5.3,2-7.7,3.2
						c-9.3,5.1-18.8,10.8-22.7,18c-1.3,0.6-2.8,1.2-4.4,1.6c-3-4.1-2.9-13.3,0.3-16.8c1.1-1.2,2.9-2.2,4.6-3.1c5.6-3,11.3-6,16.9-9
						l0,0c2.4-1.3,4.8-2.5,7.2-3.8c3-1.6,6.2-3.2,10-3.5c5.8-0.4,10.8,2.6,14.2,5.7C676.7,594.1,684.1,598.6,689.4,601.2"/>
					<path class="st8" d="M674.8,636.8c-1.3,0.4-2.7,0.8-4,0.9c-0.4,0-0.7,0-1,0c-0.2,0-0.3-0.1-0.5-0.1c-1.8-0.6-3.2-1.5-4.6-2.4
						c-3.4-2.1-6.8-4.3-10.2-6.5c-1-0.6-2.1-1.3-3.4-1.7c-2.5-0.9-5.7-0.7-8.2-1.6c-1.1-0.4-2.1-0.9-3.3-1.2c-0.2,0-0.4-0.1-0.6-0.1
						c-0.4,0-0.7,0-1,0c-1.3,0.1-2.4,0.5-3.5,1.1l0,0c-0.4-0.2-1.1,0.1-1.6,0.4c0.1-2.1,2.2-4.2,4.8-5.5c3.1-1.5,7-2.3,10.9-2.8
						c3.3-0.4,6.7-0.7,10.1-0.4c1,0.1,1.9,0.2,2.9,0.4c6.6,1.4,10.8,6,11,10.4c0.1,3.1-1.2,6.6,1.9,8.9
						C674.6,636.8,674.7,636.8,674.8,636.8"/>
					<path class="st8" d="M669.8,637.7c-0.2,0-0.4,0-0.5-0.1c-1.8-0.6-3.2-1.5-4.6-2.4c-3.4-2.1-6.8-4.3-10.2-6.5
						c-1-0.6-2.1-1.3-3.4-1.7c-2.5-0.9-5.7-0.7-8.2-1.6c-1.1-0.4-2.1-0.9-3.3-1.2c-0.2,0-0.4-0.1-0.6-0.1c0.2,0,0.4,0,0.6,0.1
						c1.2,0.2,2.2,0.8,3.3,1.2c2.5,0.9,5.7,0.7,8.2,1.6c1.3,0.4,2.3,1.1,3.4,1.7c3.4,2.2,6.8,4.3,10.2,6.5c1.4,0.9,2.9,1.8,4.6,2.4
						C669.5,637.6,669.6,637.7,669.8,637.7"/>
					<path class="st5" d="M689.5,648.7c-0.8,3-5.7,4.9-10.4,5.4c-4.7,0.6-9.5,0.3-14.1,1.2s-8.6,3-13.3,3.8
						c-6.4,1.1-12.8-0.5-18.6-2.8c-2.7-1-5.3-2.3-7.7-3.5c-6.1-3-13-7.2-11.5-12.1c1.1-3.5,8.2-7.4,10.7-11.1
						c1.1,1.5,2.8,2.8,4.4,3.8c-0.3,3.6,1.5,7.5,5.8,9.8c1.7,0.9,3.8,1.6,5.9,2.1c6,1.5,12.8,2.1,19.1,0.9c5.6-1,14.5-5.9,17.7-9.7
						c2.6,0.1,5.6,0,8.2-0.3c-0.8,1.5-0.4,3.5,0.6,5.1C687.9,643.9,690.1,646.3,689.5,648.7"/>
					<path class="st9" d="M633.1,656.5c-0.6,0.2-1.3,0.4-2,0.7c-3.6,1.1-7.3,2-11.2,2c-3.6,0.1-7.1-0.6-10.1-1.9l0,0
						c-4.2-1.7-7.4-4.5-8.3-7.6c-0.8-2.6-0.2-5.5-2.2-7.9c-1-1.2-2.7-2.2-3.8-3.4c-3.4-3.4-2.6-7.8-1.7-11.8
						c0.2-0.9,0.4-1.7,1.1-2.5c0.6-0.6,1.3-1.1,2.3-1.4c2-0.7,4.6-0.8,6.9-0.5c3.3,0.4,6.6,1.3,10,1.1c1.9-0.1,4.3-0.5,6.7-1.2
						c1.5-0.4,3-1,4.4-1.6c-0.8,1.4-1.3,2.9-1.6,4.4c-0.4,2,0.1,3.6,1.1,5c-2.5,3.7-9.6,7.5-10.7,11.1c-1.5,4.9,5.3,9,11.5,12.1
						C627.9,654.2,630.4,655.4,633.1,656.5"/>
					<path class="st10" d="M705.1,652.2L705.1,652.2c-0.3,2.8-2.1,5.5-5.1,7.4c-2.7,1.7-6.2,2.9-9.7,4c-5.6,1.8-11.2,3.5-16.8,5.3
						c-7.3,2.3-16.6,4.6-23.1,1.4c-1.3-0.7-2.4-1.5-3.3-2.4c-1.7-1.6-2.8-3.6-4.3-5.4c-1.9-2.3-7.2-5.1-11.6-5.4
						c0.7-0.2,1.3-0.4,2-0.7c5.8,2.3,12.2,3.8,18.6,2.8c4.7-0.8,8.7-2.9,13.3-3.8c4.5-0.9,9.4-0.7,14.1-1.2
						c4.7-0.6,9.6-2.4,10.4-5.4c0.7-2.5-1.6-4.8-3-7.1c-1-1.6-1.5-3.6-0.6-5.1c2-0.3,3.7-0.7,4.7-1.5c0.9-0.7,1.5-1.6,2.3-2.4
						c0.3-0.3,0.6-0.6,1-0.9c0.3,1.6,0.5,4.2,0.7,5c0.7,3.3,5.4,5.6,8.2,8.4C704.6,647.2,705.4,649.7,705.1,652.2"/>
					<path class="st6" d="M647.1,667.9c-2.1,0.4-4.9,0.9-6.6,1.2c-1.4,0.3-2.9,0.6-4.3,0.7c-6.1,0.5-11.9-1.5-17.3-3.4
						c-1.4-0.5-2.7-1-3.8-1.7c-1.3-0.9-2-2.1-2.7-3.2c-0.9-1.4-1.7-2.8-2.6-4.2c3,1.2,6.5,1.9,10.1,1.9c3.9-0.1,7.7-0.9,11.2-2
						c4.4,0.4,9.7,3.1,11.6,5.4C644.2,664.3,645.4,666.3,647.1,667.9"/>
					<path class="st11" d="M678.6,614c-6.4-0.7-14.3,0.7-19.9,3c-3.3-0.3-6.8,0-10.1,0.4c-3.9,0.5-7.8,1.2-10.9,2.8
						c-2.7,1.3-4.7,3.4-4.8,5.5c-0.1,0.1-0.1,0.1-0.2,0.2c-2,2.2-3.2,4.7-3.6,7.2c0,0.2,0,0.4-0.1,0.6c-1.6-1.1-3.3-2.3-4.4-3.8
						c-1-1.4-1.5-3-1.1-5c0.3-1.5,0.8-3,1.6-4.4c3.9-7.2,13.5-12.9,22.7-18c2.3-1.3,4.7-2.6,7.7-3.2c2.4-0.5,5.1-0.5,7.3,0.2
						c0.5,0.2,0.9,0.4,1.3,0.6c2.2,1.4,2.5,3.5,3.7,5.3C669.7,608.3,674.3,611.7,678.6,614"/>
					<path class="st9" d="M708.6,631.8c-1.5,1.7-3.7,3.1-5.6,4.7l0,0c-0.4,0.4-0.9,0.7-1.2,1.1c-1,1-1.7,2.1-2.9,3
						c-1.3,1-3.4,1.6-5.9,1.9c-3.2,0.4-7.1,0.5-10.4,0.4c-1.3,0-2.4-0.1-3.5-0.1c-0.2,0-0.4,0-0.5,0c-3.9-3-2.2-7.4-2.4-11.3
						c-0.2-5.7-5.6-11.4-13.9-13.2c-1.2-0.3-2.4-0.4-3.6-0.5c7.1-2.9,17.1-4.7,25.2-3.8c2.3,0.3,4.5,0.7,6.4,1.5
						c3.2,1.3,6.2,3,10,3.3c1.2,0.1,2.4,0,3.6,0.2c1.5,0.3,2.7,1,3.7,1.9C711,623.9,711.5,628.4,708.6,631.8"/>
					<path class="st12" d="M632.7,625.9L632.7,625.9c0.6-1.3,2.7-2.2,4.8-1.9l1.5,0.2c0.2,0,0.4,0,0.6,0.1c1.2,0.2,2.2,0.8,3.3,1.2
						c2.5,0.9,5.7,0.7,8.2,1.6c1.3,0.4,2.3,1.1,3.4,1.7c3.4,2.2,6.8,4.3,10.2,6.5c1.4,0.9,2.9,1.8,4.6,2.4c0.2,0,0.3,0.1,0.5,0.1
						c0.3,0,0.6,0,1,0c1.3-0.1,2.8-0.5,4-0.9c0.8,0,1.7,0.1,2.8,0.1c-3.2,3.9-12.2,8.7-17.7,9.7c-6.2,1.1-13,0.6-19.1-0.9
						c-2.1-0.5-4.2-1.2-5.9-2.1c-4.3-2.3-6.1-6.2-5.8-9.8c0-0.2,0-0.4,0.1-0.6C629.5,630.6,630.7,628.1,632.7,625.9L632.7,625.9z"/>
					<path class="st13" d="M633.6,589.7c0,0,4.9-11.8,11.8-11.8c7,0,14.5,1.5,19.8-2.7c5.4-4.3,14.8,2.4,12.9,14.6
						C676.4,601.9,630.2,604.6,633.6,589.7"/>
					<path class="st14" d="M635.8,606c0,0,0.5-20.6,18.5-17.2c12.6,2.4,15.3-4.6,22.8-4.2c7.5,0.3,15.7,10.8,11.7,23.6
						c-3.9,12.8-13.7,29.2-29.1,24.6C644.2,628.3,632.8,615.1,635.8,606"/>
					<path class="st15" d="M668.7,636.5c0,0,11.2,2.2,21.9-8.9c10.6-11.1,8-20.3,4.8-30.9c-2-6.7-6.1-10.9-11.6-10.9
						s-7.9,11.2-12.4,11.2c-4.6,0-14.1-2.1-12.1,11.2C661.2,621.4,657.8,634.9,668.7,636.5"/>
					<path class="st5" d="M626.5,633.7c0,0-10.8,0.1-14.6-10.5c-4.8-13.5,4.2-21.9,4.6-31.2c0.4-9.2,15.6-13.2,19.8-6.7
						s10.5-0.5,12.9,10.1c1.2,5.3,9.7,3.9,7,16.2C653.5,624.1,626.5,633.7,626.5,633.7"/>
					<path class="st13" d="M649.8,651c0,0-24.1,2.4-29.6-17.8s8.4-14,9.9-21.3s10.6-9.9,15.8-6.2c5.1,3.7,8.4-1.8,15.8,0.4
						c7.3,2.2,5.1,15.4,10.3,15.4c5.1,0,8.4-0.4,7.3,10.3C678.2,642.4,667.7,648.2,649.8,651"/>
				</g>
				<g>
					<path class="st6" d="M202.2,722.4c0,0-10.4-8.2-17.5-4.9c-7,3.3-19,7.4-12.8,23s-1.9,19.7,17.6,27.1
						c19.5,7.4,29.5,25.3,32.8,3.7C225.6,749.8,202.2,722.4,202.2,722.4"/>
					<path class="st5" d="M283.7,725.3c0.3-0.1,11-8.3,17.5-4.9c6.9,3.6,19,7.4,12.8,23s1.9,19.7-17.6,27.1
						c-19.5,7.4-29.5,25.3-32.8,3.7C260.3,752.6,283.7,725.3,283.7,725.3"/>
					<path class="st7" d="M206.9,717c9.5-1,19.1-1.7,28.8-1.9c2.3-0.8,5.3-0.8,7.9-0.3c3.1,0.7,5.8,2.1,8.3,3.5
						c10,5.5,20.3,11.7,24.6,19.5c1.4,0.7,3.1,1.3,4.7,1.8c3.2-4.5,3.2-14.4-0.3-18.2c-1.2-1.3-3.1-2.4-5-3.3
						c-6.1-3.2-12.2-6.5-18.3-9.7l0,0c-2.6-1.4-5.2-2.8-7.8-4.1c-3.2-1.7-6.7-3.5-10.8-3.7c-6.3-0.4-11.7,2.8-15.3,6.1
						C220.7,709.3,212.6,714.2,206.9,717"/>
					<path class="st8" d="M222.6,755.5c1.4,0.4,2.9,0.9,4.3,1c0.4,0,0.8,0,1.1,0c0.2,0,0.4-0.1,0.5-0.1c1.9-0.6,3.5-1.6,5-2.6
						c3.7-2.3,7.4-4.6,11.1-7c1.1-0.7,2.2-1.4,3.6-1.9c2.7-0.9,6.1-0.8,8.9-1.7c1.2-0.4,2.3-1,3.6-1.3c0.2,0,0.5-0.1,0.7-0.1
						c0.4,0,0.8,0,1.1,0c1.4,0.1,2.6,0.5,3.8,1.2l0,0c0.5-0.2,1.2,0.1,1.7,0.5c-0.2-2.3-2.3-4.5-5.2-6c-3.4-1.7-7.6-2.5-11.8-3
						c-3.6-0.5-7.3-0.8-10.9-0.5c-1,0.1-2.1,0.2-3.1,0.5c-7.1,1.5-11.7,6.4-11.9,11.3c-0.1,3.3,1.3,7.1-2,9.6
						C222.9,755.5,222.8,755.5,222.6,755.5"/>
					<path class="st8" d="M228.1,756.5c0.2,0,0.4-0.1,0.6-0.1c1.9-0.6,3.5-1.6,5-2.6c3.7-2.3,7.4-4.6,11.1-7
						c1.1-0.7,2.2-1.4,3.6-1.9c2.7-0.9,6.1-0.8,8.9-1.7c1.2-0.4,2.3-1,3.6-1.3c0.2,0,0.4-0.1,0.6-0.1c-0.2,0-0.5,0-0.7,0.1
						c-1.3,0.2-2.4,0.9-3.6,1.3c-2.7,0.9-6.1,0.8-8.9,1.7c-1.4,0.5-2.5,1.2-3.6,1.9c-3.7,2.3-7.4,4.7-11.1,7c-1.5,1-3.1,1.9-5,2.6
						C228.4,756.4,228.2,756.5,228.1,756.5"/>
					<path class="st5" d="M206.8,768.4c0.9,3.3,6.2,5.3,11.2,5.9c5,0.6,10.3,0.4,15.2,1.4c5,1,9.3,3.3,14.4,4.1
						c6.9,1.1,13.8-0.5,20.1-3c2.9-1.1,5.7-2.5,8.3-3.7c6.6-3.3,14.1-7.7,12.4-13c-1.2-3.8-8.9-8-11.6-12c-1.2,1.7-3,3-4.8,4.1
						c0.3,3.9-1.6,8.1-6.3,10.6c-1.9,1-4.1,1.7-6.4,2.3c-6.5,1.6-13.9,2.3-20.7,1c-6-1.1-15.7-6.3-19.2-10.5c-2.8,0.1-6.1,0-8.9-0.3
						c0.9,1.7,0.4,3.8-0.7,5.5C208.5,763.2,206.1,765.8,206.8,768.4"/>
					<path class="st9" d="M267.8,776.8c0.7,0.2,1.4,0.5,2.2,0.7c3.9,1.2,7.9,2.1,12.2,2.2c3.8,0.1,7.6-0.7,10.9-2l0,0
						c4.5-1.9,8-4.9,9-8.3c0.9-2.9,0.3-6,2.4-8.6c1.1-1.3,2.9-2.4,4.1-3.7c3.7-3.7,2.8-8.4,1.8-12.8c-0.2-0.9-0.5-1.9-1.2-2.7
						c-0.6-0.7-1.5-1.1-2.5-1.5c-2.1-0.7-5-0.8-7.4-0.5c-3.6,0.4-7.2,1.4-10.8,1.2c-2-0.1-4.7-0.6-7.3-1.3c-1.7-0.5-3.3-1.1-4.7-1.8
						c0.8,1.5,1.4,3.1,1.7,4.8c0.4,2.2-0.2,3.9-1.2,5.4c2.7,4,10.4,8.2,11.6,12c1.7,5.3-5.8,9.8-12.4,13
						C273.5,774.4,270.7,775.7,267.8,776.8"/>
					<path class="st10" d="M189.9,772.1L189.9,772.1c0.4,3,2.2,5.9,5.6,8c3,1.9,6.8,3.1,10.5,4.3c6,1.9,12.1,3.8,18.1,5.8
						c7.9,2.5,18,5,25,1.5c1.4-0.7,2.6-1.6,3.6-2.5c1.8-1.8,3.1-3.9,4.7-5.8c2.1-2.5,7.8-5.5,12.6-5.9c-0.7-0.2-1.5-0.5-2.2-0.7
						c-6.3,2.5-13.2,4.2-20.1,3c-5.1-0.8-9.4-3.1-14.4-4.1c-4.9-1-10.2-0.7-15.2-1.4c-5-0.6-10.3-2.6-11.2-5.9
						c-0.7-2.7,1.7-5.2,3.3-7.7c1.1-1.7,1.6-3.8,0.7-5.5c-2.1-0.3-4-0.8-5.1-1.6c-1-0.8-1.6-1.7-2.4-2.6c-0.3-0.3-0.7-0.7-1.1-1
						c-0.3,1.8-0.6,4.6-0.7,5.4c-0.7,3.6-5.9,6-8.8,9.1C190.4,766.8,189.6,769.5,189.9,772.1"/>
					<path class="st6" d="M252.7,789.2c2.3,0.4,5.3,0.9,7.1,1.3c1.5,0.3,3.1,0.6,4.7,0.8c6.6,0.6,12.9-1.6,18.7-3.7
						c1.5-0.5,3-1.1,4.1-1.9c1.4-1,2.2-2.2,2.9-3.5c0.9-1.5,1.9-3,2.8-4.6c-3.2,1.3-7,2.1-10.9,2c-4.3-0.1-8.3-1-12.2-2.2
						c-4.8,0.4-10.5,3.4-12.6,5.9C255.7,785.3,254.5,787.4,252.7,789.2"/>
					<path class="st11" d="M218.6,730.8c6.9-0.8,15.5,0.8,21.5,3.2c3.6-0.3,7.3,0,10.9,0.5c4.2,0.6,8.4,1.4,11.8,3
						c2.9,1.4,5.1,3.7,5.2,6c0.1,0.1,0.2,0.1,0.2,0.2c2.1,2.4,3.5,5.1,3.8,7.8c0,0.2,0.1,0.4,0.1,0.6c1.8-1.2,3.6-2.5,4.8-4.1
						c1.1-1.5,1.6-3.2,1.2-5.4c-0.3-1.7-0.9-3.3-1.7-4.8c-4.2-7.8-14.6-14-24.6-19.5c-2.5-1.4-5.1-2.8-8.3-3.5
						c-2.6-0.6-5.6-0.6-7.9,0.3c-0.5,0.2-1,0.4-1.5,0.7c-2.4,1.5-2.7,3.8-4,5.8C228.2,724.7,223.2,728.3,218.6,730.8"/>
					<path class="st9" d="M186.1,750.1c1.6,1.9,4,3.4,6.1,5.1l0,0c0.5,0.4,0.9,0.8,1.3,1.2c1,1.1,1.8,2.3,3.1,3.3
						c1.4,1.1,3.7,1.7,6.4,2.1c3.5,0.5,7.7,0.5,11.2,0.4c1.4,0,2.6-0.1,3.8-0.1c0.2,0,0.4,0,0.6,0c4.2-3.2,2.4-8,2.6-12.2
						c0.2-6.1,6.1-12.3,15.1-14.3c1.3-0.3,2.6-0.5,3.9-0.6c-7.6-3.1-18.5-5.1-27.2-4.1c-2.5,0.3-4.8,0.8-6.9,1.6
						c-3.5,1.4-6.7,3.3-10.8,3.5c-1.3,0.1-2.6,0-3.9,0.2c-1.7,0.3-3,1.1-4,2C183.5,741.6,183,746.4,186.1,750.1"/>
					<path class="st12" d="M268.2,743.7L268.2,743.7c-0.6-1.5-2.9-2.4-5.2-2.1l-1.6,0.2c-0.2,0-0.5,0-0.7,0.1
						c-1.3,0.2-2.4,0.9-3.6,1.3c-2.7,0.9-6.1,0.8-8.9,1.7c-1.4,0.5-2.5,1.2-3.6,1.9c-3.7,2.3-7.4,4.7-11.1,7c-1.5,1-3.1,1.9-5,2.6
						c-0.2,0-0.3,0.1-0.5,0.1c-0.3,0-0.7,0-1.1,0c-1.4-0.1-3-0.6-4.4-1c-0.9,0-1.9,0.1-3,0.1c3.5,4.2,13.2,9.4,19.2,10.5
						c6.8,1.2,14.1,0.6,20.6-1c2.3-0.6,4.5-1.3,6.4-2.3c4.7-2.5,6.6-6.7,6.3-10.6c0-0.2,0-0.4-0.1-0.6
						C271.7,748.8,270.4,746.1,268.2,743.7L268.2,743.7z"/>
					<path class="st13" d="M219.4,709c0,0,9,10.5,16.2,8.2c7.2-2.4,14.4-6.4,21.3-3.9c6.9,2.6,14.4-7.5,8.4-19.3
						C259.3,682.1,211,694.8,219.4,709"/>
					<path class="st14" d="M264.8,722.2c0,0-0.5-22.3-20-18.6c-13.6,2.6-16.6-4.9-24.7-4.6c-8.1,0.3-17,11.7-12.7,25.6
						c4.3,13.9,14.8,31.6,31.5,26.7C255.8,746.3,268.1,732,264.8,722.2"/>
					<path class="st5" d="M229.2,755.1c0,0-12.2,2.4-23.6-9.7c-11.5-12-8.7-22-5.2-33.4c2.2-7.3,6.6-11.8,12.6-11.8
						c5.9,0,8.5,12.2,13.5,12.2c4.9,0,15.3-2.3,13.1,12.1C237.4,738.9,241.1,753.5,229.2,755.1"/>
					<path class="st15" d="M274.9,752.2c0,0,11.7,0.1,15.8-11.3c5.2-14.6-4.5-23.7-4.9-33.7s-16.9-14.3-21.5-7.2s-11.4-0.5-14,11
						c-1.3,5.7-10.5,4.2-7.5,17.5C245.7,741.7,274.9,752.2,274.9,752.2"/>
					<path class="st13" d="M249.7,770.9c0,0,26.1,2.6,32.1-19.3c6-21.9-9.1-15.1-10.7-23s-11.5-10.7-17.1-6.8c-5.6,4-9.1-2-17.1,0.4
						c-7.9,2.4-5.6,16.7-11.1,16.7c-5.6,0-9.1-0.4-7.9,11.1C219,761.6,230.3,767.9,249.7,770.9"/>
				</g>
				<g>
					<path class="st6" d="M325.2,513.7c0,0-8.6-6.7-14.3-4c-5.7,2.7-15.5,6.1-10.5,18.8c5,12.8-1.6,16.1,14.4,22.2
						c16,6.1,24.1,20.7,26.8,3C344.3,536.1,325.2,513.7,325.2,513.7"/>
					<path class="st5" d="M391.9,516c0.2-0.1,9-6.8,14.3-4c5.6,3,15.5,6.1,10.5,18.8c-5,12.8,1.6,16.1-14.4,22.2
						c-16,6.1-24.1,20.7-26.8,3C372.8,538.4,391.9,516,391.9,516"/>
					<path class="st7" d="M329,509.3c7.8-0.8,15.7-1.4,23.6-1.6c1.9-0.7,4.4-0.7,6.5-0.2c2.6,0.6,4.7,1.7,6.8,2.9
						c8.2,4.5,16.7,9.6,20.1,16c1.2,0.6,2.5,1,3.9,1.4c2.6-3.7,2.6-11.8-0.3-14.9c-1-1.1-2.5-1.9-4.1-2.7c-5-2.6-10-5.3-15-7.9l0,0
						c-2.1-1.1-4.2-2.3-6.4-3.4c-2.6-1.4-5.5-2.8-8.8-3.1c-5.1-0.3-9.6,2.3-12.5,5C340.3,502.9,333.8,507,329,509.3"/>
					<path class="st8" d="M341.9,540.7c1.1,0.4,2.4,0.7,3.5,0.8c0.3,0,0.6,0,0.9,0c0.2,0,0.3-0.1,0.4-0.1c1.6-0.5,2.9-1.3,4.1-2.1
						c3-1.9,6.1-3.8,9.1-5.7c0.9-0.6,1.8-1.2,3-1.5c2.2-0.8,5-0.6,7.3-1.4c1-0.3,1.9-0.8,3-1c0.2,0,0.4-0.1,0.6-0.1
						c0.3,0,0.6,0,0.9,0c1.1,0.1,2.1,0.4,3.1,0.9l0,0c0.4-0.2,1,0.1,1.4,0.4c-0.1-1.9-1.9-3.7-4.3-4.9c-2.8-1.4-6.2-2-9.6-2.5
						c-2.9-0.4-6-0.7-8.9-0.4c-0.8,0.1-1.7,0.2-2.5,0.4c-5.8,1.3-9.6,5.3-9.8,9.2c-0.1,2.7,1.1,5.8-1.7,7.9
						C342.2,540.7,342.1,540.7,341.9,540.7"/>
					<path class="st8" d="M346.4,541.6c0.2,0,0.3,0,0.5-0.1c1.6-0.5,2.9-1.3,4.1-2.1c3-1.9,6.1-3.8,9.1-5.7c0.9-0.6,1.8-1.1,3-1.5
						c2.2-0.8,5-0.6,7.3-1.4c1-0.3,1.9-0.8,3-1c0.2,0,0.3-0.1,0.5-0.1c-0.2,0-0.4,0-0.6,0.1c-1.1,0.2-2,0.7-3,1
						c-2.2,0.8-5,0.6-7.3,1.4c-1.1,0.4-2.1,1-3,1.5c-3,1.9-6,3.8-9.1,5.7c-1.2,0.8-2.5,1.6-4.1,2.1
						C346.7,541.5,346.5,541.5,346.4,541.6"/>
					<path class="st5" d="M329,551.4c0.7,2.7,5.1,4.3,9.2,4.8s8.5,0.3,12.5,1.1c4.1,0.8,7.6,2.7,11.8,3.4c5.7,0.9,11.3-0.4,16.5-2.5
						c2.4-0.9,4.7-2,6.8-3.1c5.4-2.7,11.5-6.3,10.2-10.7c-1-3.1-7.3-6.5-9.5-9.8c-1,1.4-2.5,2.4-3.9,3.4c0.2,3.2-1.3,6.6-5.2,8.7
						c-1.5,0.8-3.4,1.4-5.2,1.9c-5.4,1.3-11.4,1.8-16.9,0.8c-4.9-0.9-12.8-5.2-15.7-8.6c-2.3,0.1-5,0-7.3-0.3
						c0.7,1.4,0.3,3.1-0.6,4.5C330.4,547.1,328.4,549.2,329,551.4"/>
					<path class="st9" d="M378.9,558.2c0.6,0.2,1.2,0.4,1.8,0.6c3.2,1,6.5,1.8,10,1.8c3.1,0.1,6.2-0.6,8.9-1.7l0,0
						c3.7-1.5,6.5-4,7.4-6.8c0.7-2.3,0.2-4.9,1.9-7c0.9-1.1,2.4-2,3.4-3c3-3,2.3-6.9,1.5-10.4c-0.2-0.8-0.4-1.5-1-2.2
						c-0.5-0.5-1.2-0.9-2-1.2c-1.8-0.6-4.1-0.7-6.1-0.4c-3,0.3-5.9,1.1-8.9,1c-1.7-0.1-3.8-0.5-5.9-1.1c-1.4-0.4-2.7-0.9-3.9-1.4
						c0.7,1.3,1.2,2.6,1.4,3.9c0.3,1.8-0.1,3.2-1,4.4c2.2,3.3,8.5,6.7,9.5,9.8c1.4,4.3-4.7,8-10.2,10.7
						C383.6,556.2,381.3,557.3,378.9,558.2"/>
					<path class="st10" d="M315.1,554.4L315.1,554.4c0.3,2.5,1.8,4.8,4.6,6.6c2.4,1.5,5.5,2.5,8.6,3.5c4.9,1.6,9.9,3.1,14.8,4.7
						c6.5,2.1,14.7,4.1,20.5,1.2c1.2-0.6,2.1-1.3,2.9-2.1c1.5-1.5,2.5-3.2,3.8-4.7c1.7-2.1,6.4-4.5,10.3-4.8
						c-0.6-0.2-1.2-0.4-1.8-0.6c-5.2,2-10.8,3.4-16.5,2.5c-4.2-0.7-7.7-2.5-11.8-3.4c-4-0.8-8.3-0.6-12.5-1.1
						c-4.1-0.5-8.5-2.1-9.2-4.8c-0.6-2.2,1.4-4.3,2.7-6.3c0.9-1.4,1.3-3.2,0.6-4.5c-1.8-0.2-3.3-0.7-4.1-1.3c-0.8-0.6-1.3-1.4-2-2.1
						c-0.3-0.3-0.6-0.5-0.9-0.8c-0.3,1.5-0.5,3.8-0.6,4.4c-0.6,2.9-4.8,4.9-7.2,7.4C315.6,550,314.9,552.2,315.1,554.4"/>
					<path class="st6" d="M366.5,568.4c1.9,0.4,4.4,0.8,5.8,1.1c1.3,0.2,2.5,0.5,3.8,0.6c5.4,0.5,10.5-1.3,15.3-3
						c1.2-0.4,2.4-0.9,3.4-1.5c1.2-0.8,1.8-1.8,2.4-2.8c0.8-1.2,1.5-2.5,2.3-3.7c-2.7,1.1-5.8,1.7-8.9,1.7c-3.5-0.1-6.8-0.8-10-1.8
						c-3.9,0.3-8.6,2.8-10.3,4.8C369,565.2,368,566.9,366.5,568.4"/>
					<path class="st11" d="M338.6,520.6c5.7-0.6,12.7,0.6,17.6,2.7c2.9-0.3,6,0,8.9,0.4c3.4,0.5,6.9,1.1,9.6,2.5
						c2.4,1.2,4.2,3,4.3,4.9c0.1,0.1,0.1,0.1,0.2,0.2c1.8,1.9,2.8,4.1,3.2,6.4c0,0.2,0,0.3,0.1,0.5c1.4-0.9,2.9-2,3.9-3.4
						c0.9-1.2,1.3-2.6,1-4.4c-0.2-1.4-0.7-2.7-1.4-3.9c-3.5-6.4-11.9-11.5-20.1-16c-2.1-1.1-4.2-2.3-6.8-2.9
						c-2.1-0.5-4.6-0.5-6.5,0.2c-0.4,0.1-0.8,0.3-1.2,0.6c-1.9,1.2-2.2,3.1-3.3,4.7C346.5,515.5,342.4,518.5,338.6,520.6"/>
					<path class="st9" d="M312,536.3c1.3,1.5,3.3,2.8,5,4.2l0,0c0.4,0.3,0.8,0.7,1.1,1c0.8,0.9,1.5,1.9,2.5,2.7
						c1.1,0.9,3,1.4,5.2,1.7c2.9,0.4,6.3,0.4,9.2,0.3c1.1,0,2.2-0.1,3.1-0.1c0.2,0,0.3,0,0.5,0c3.4-2.6,2-6.5,2.1-10
						c0.2-5,5-10.1,12.3-11.7c1.1-0.2,2.1-0.4,3.2-0.5c-6.3-2.6-15.1-4.2-22.3-3.4c-2,0.2-4,0.7-5.6,1.3c-2.8,1.1-5.5,2.7-8.8,2.9
						c-1.1,0.1-2.2,0-3.2,0.2c-1.4,0.3-2.4,0.9-3.3,1.6C309.9,529.4,309.5,533.3,312,536.3"/>
					<path class="st12" d="M379.3,531.1L379.3,531.1c-0.5-1.2-2.4-1.9-4.2-1.7l-1.3,0.2c-0.2,0-0.4,0-0.6,0.1c-1.1,0.2-2,0.7-3,1
						c-2.2,0.8-5,0.6-7.3,1.4c-1.1,0.4-2.1,1-3,1.5c-3,1.9-6,3.8-9.1,5.7c-1.2,0.8-2.5,1.6-4.1,2.1c-0.1,0-0.3,0.1-0.4,0.1
						c-0.3,0-0.6,0-0.9,0c-1.1-0.1-2.5-0.5-3.6-0.8c-0.7,0-1.5,0.1-2.4,0.1c2.9,3.4,10.8,7.7,15.7,8.6c5.5,1,11.5,0.5,16.9-0.8
						c1.9-0.5,3.7-1,5.2-1.9c3.8-2.1,5.4-5.5,5.2-8.7c0-0.2,0-0.4-0.1-0.5C382.1,535.3,381,533.1,379.3,531.1L379.3,531.1z"/>
					<path class="st13" d="M339.3,502.7c0,0,7.4,8.6,13.2,6.7c5.9-1.9,11.8-5.3,17.5-3.2c5.7,2.1,11.8-6.1,6.9-15.8
						C372,480.7,332.4,491.1,339.3,502.7"/>
					<path class="st14" d="M376.5,513.5c0,0-0.4-18.2-16.4-15.2c-11.1,2.1-13.6-4-20.2-3.8c-6.6,0.3-13.9,9.6-10.4,20.9
						c3.5,11.3,12.1,25.9,25.8,21.8C369,533.2,379.2,521.6,376.5,513.5"/>
					<path class="st5" d="M347.3,540.5c0,0-9.9,1.9-19.4-7.9c-9.4-9.8-7.1-18-4.3-27.4c1.8-5.9,5.4-9.6,10.3-9.6c4.8,0,7,9.9,11,9.9
						s12.5-1.9,10.8,9.9C354,527.2,357,539.1,347.3,540.5"/>
					<path class="st15" d="M384.7,538c0,0,9.6,0.1,12.9-9.3c4.2-11.9-3.7-19.4-4-27.6s-13.8-11.7-17.6-5.9c-3.8,5.8-9.3-0.4-11.4,9
						c-1,4.7-8.6,3.4-6.2,14.3C360.8,529.5,384.7,538,384.7,538"/>
					<path class="st13" d="M364.1,553.4c0,0,21.4,2.1,26.3-15.8c4.9-17.9-7.5-12.4-8.8-18.9s-9.4-8.8-14-5.5s-7.5-1.6-14,0.3
						c-6.5,2-4.6,13.7-9.1,13.7c-4.6,0-7.5-0.3-6.5,9.1C338.9,545.7,348.2,550.9,364.1,553.4"/>
				</g>
				<g>
					<path class="st6" d="M526.6,825c0,0-10.5-8.2-17.5-4.9s-19,7.4-12.8,23s-1.9,19.7,17.6,27.1c19.5,7.4,29.5,25.3,32.8,3.7
						C550,852.3,526.6,825,526.6,825"/>
					<path class="st5" d="M608.1,827.8c0.3-0.1,11-8.3,17.5-4.9c6.9,3.6,19,7.4,12.8,23s1.9,19.7-17.6,27.1
						c-19.5,7.4-29.5,25.3-32.8,3.7C584.7,855.2,608.1,827.8,608.1,827.8"/>
					<path class="st7" d="M531.3,819.6c9.5-1,19.1-1.7,28.8-1.9c2.3-0.8,5.3-0.8,7.9-0.3c3.1,0.7,5.8,2.1,8.3,3.5
						c10,5.5,20.3,11.7,24.6,19.5c1.4,0.7,3.1,1.3,4.7,1.8c3.2-4.5,3.2-14.4-0.3-18.2c-1.2-1.3-3.1-2.4-5-3.3
						c-6.1-3.2-12.2-6.5-18.3-9.7l0,0c-2.6-1.4-5.2-2.8-7.8-4.1c-3.2-1.7-6.7-3.5-10.8-3.7c-6.3-0.4-11.7,2.8-15.3,6.1
						C545.1,811.9,537.1,816.8,531.3,819.6"/>
					<path class="st8" d="M547,858.1c1.4,0.4,2.9,0.9,4.3,1c0.4,0,0.8,0,1.1,0c0.2,0,0.4-0.1,0.5-0.1c1.9-0.6,3.5-1.6,5-2.6
						c3.7-2.3,7.4-4.6,11.1-7c1.1-0.7,2.2-1.4,3.6-1.9c2.7-0.9,6.1-0.8,8.9-1.7c1.2-0.4,2.3-1,3.6-1.3c0.2,0,0.5-0.1,0.7-0.1
						c0.4,0,0.8,0,1.1,0c1.4,0.1,2.6,0.5,3.8,1.2l0,0c0.5-0.2,1.2,0.1,1.7,0.5c-0.2-2.3-2.3-4.5-5.2-6c-3.4-1.7-7.6-2.5-11.8-3
						c-3.6-0.5-7.3-0.8-10.9-0.5c-1,0.1-2.1,0.2-3.1,0.5c-7.1,1.5-11.7,6.4-11.9,11.3c-0.1,3.3,1.3,7.1-2,9.6
						C547.3,858,547.2,858,547,858.1"/>
					<path class="st8" d="M552.5,859.1c0.2,0,0.4-0.1,0.6-0.1c1.9-0.6,3.5-1.6,5-2.6c3.7-2.3,7.4-4.6,11.1-7
						c1.1-0.7,2.2-1.4,3.6-1.9c2.7-0.9,6.1-0.8,8.9-1.7c1.2-0.4,2.3-1,3.6-1.3c0.2,0,0.4-0.1,0.6-0.1c-0.2,0-0.5,0-0.7,0.1
						c-1.3,0.2-2.4,0.9-3.6,1.3c-2.7,0.9-6.1,0.8-8.9,1.7c-1.4,0.5-2.5,1.2-3.6,1.9c-3.7,2.3-7.4,4.7-11.1,7c-1.5,1-3.1,1.9-5,2.6
						C552.8,859,552.7,859,552.5,859.1"/>
					<path class="st5" d="M531.2,871c0.9,3.3,6.2,5.3,11.2,5.9c5,0.6,10.3,0.4,15.2,1.4c5,1,9.3,3.3,14.4,4.1
						c6.9,1.1,13.8-0.5,20.1-3c2.9-1.1,5.7-2.5,8.3-3.7c6.6-3.3,14.1-7.7,12.4-13c-1.2-3.8-8.9-8-11.6-12c-1.2,1.7-3,3-4.8,4.1
						c0.3,3.9-1.6,8.1-6.3,10.6c-1.9,1-4.1,1.7-6.4,2.3c-6.5,1.6-13.9,2.3-20.7,1c-6-1.1-15.7-6.3-19.2-10.5c-2.8,0.1-6.1,0-8.9-0.3
						c0.9,1.7,0.4,3.8-0.7,5.5C532.9,865.8,530.5,868.4,531.2,871"/>
					<path class="st9" d="M592.2,879.4c0.7,0.2,1.4,0.5,2.2,0.7c3.9,1.2,7.9,2.1,12.2,2.2c3.8,0.1,7.6-0.7,10.9-2l0,0
						c4.5-1.9,8-4.9,9-8.3c0.9-2.9,0.3-6,2.4-8.6c1.1-1.3,2.9-2.4,4.1-3.7c3.7-3.7,2.8-8.4,1.8-12.8c-0.2-0.9-0.5-1.9-1.2-2.7
						c-0.6-0.7-1.5-1.1-2.5-1.5c-2.1-0.7-5-0.8-7.4-0.5c-3.6,0.4-7.2,1.4-10.8,1.2c-2-0.1-4.7-0.6-7.3-1.3c-1.7-0.5-3.3-1.1-4.7-1.8
						c0.8,1.5,1.4,3.1,1.7,4.8c0.4,2.2-0.2,3.9-1.2,5.4c2.7,4,10.4,8.2,11.6,12c1.7,5.3-5.8,9.8-12.4,13
						C597.9,876.9,595.1,878.3,592.2,879.4"/>
					<path class="st10" d="M514.3,874.7L514.3,874.7c0.4,3,2.2,5.9,5.6,8c3,1.9,6.8,3.1,10.5,4.3c6,1.9,12.1,3.8,18.1,5.8
						c7.9,2.5,18,5,25,1.5c1.4-0.7,2.6-1.6,3.6-2.5c1.8-1.8,3.1-3.9,4.7-5.8c2.1-2.5,7.8-5.5,12.6-5.9c-0.7-0.2-1.5-0.5-2.2-0.7
						c-6.3,2.5-13.2,4.2-20.1,3c-5.1-0.8-9.4-3.1-14.4-4.1c-4.9-1-10.2-0.7-15.2-1.4c-5-0.6-10.3-2.6-11.2-5.9
						c-0.7-2.7,1.7-5.2,3.3-7.7c1.1-1.7,1.6-3.8,0.7-5.5c-2.1-0.3-4-0.8-5.1-1.6c-1-0.8-1.6-1.7-2.4-2.6c-0.3-0.3-0.7-0.7-1.1-1
						c-0.3,1.8-0.6,4.6-0.7,5.4c-0.7,3.6-5.9,6-8.8,9.1C514.9,869.4,514,872.1,514.3,874.7"/>
					<path class="st6" d="M577.1,891.8c2.3,0.4,5.3,0.9,7.1,1.3c1.5,0.3,3.1,0.6,4.7,0.8c6.6,0.6,12.9-1.6,18.7-3.7
						c1.5-0.5,3-1.1,4.1-1.9c1.4-1,2.2-2.2,2.9-3.5c0.9-1.5,1.9-3,2.8-4.6c-3.2,1.3-7,2.1-10.9,2c-4.3-0.1-8.3-1-12.2-2.2
						c-4.8,0.4-10.5,3.4-12.6,5.9C580.1,887.9,578.9,890,577.1,891.8"/>
					<path class="st11" d="M543,833.4c6.9-0.8,15.5,0.8,21.5,3.2c3.6-0.3,7.3,0,10.9,0.5c4.2,0.6,8.4,1.4,11.8,3
						c2.9,1.4,5.1,3.7,5.2,6c0.1,0.1,0.2,0.1,0.2,0.2c2.1,2.4,3.5,5.1,3.8,7.8c0,0.2,0.1,0.4,0.1,0.6c1.8-1.2,3.6-2.5,4.8-4.1
						c1.1-1.5,1.6-3.2,1.2-5.4c-0.3-1.7-0.9-3.3-1.7-4.8c-4.2-7.8-14.6-14-24.6-19.5c-2.5-1.4-5.1-2.8-8.3-3.5
						c-2.6-0.6-5.6-0.6-7.9,0.3c-0.5,0.2-1,0.4-1.5,0.7c-2.4,1.5-2.7,3.8-4,5.8C552.6,827.2,547.6,830.9,543,833.4"/>
					<path class="st9" d="M510.5,852.7c1.6,1.9,4,3.4,6.1,5.1l0,0c0.5,0.4,0.9,0.8,1.3,1.2c1,1.1,1.8,2.3,3.1,3.3
						c1.4,1.1,3.7,1.7,6.4,2.1c3.5,0.5,7.7,0.5,11.2,0.4c1.4,0,2.6-0.1,3.8-0.1c0.2,0,0.4,0,0.6,0c4.2-3.2,2.4-8,2.6-12.2
						c0.2-6.1,6.1-12.3,15.1-14.3c1.3-0.3,2.6-0.5,3.9-0.6c-7.6-3.1-18.5-5.1-27.2-4.1c-2.5,0.3-4.8,0.8-6.9,1.6
						c-3.5,1.4-6.7,3.3-10.8,3.5c-1.3,0.1-2.6,0-3.9,0.2c-1.7,0.3-3,1.1-4,2C507.9,844.2,507.4,849,510.5,852.7"/>
					<path class="st12" d="M592.6,846.3L592.6,846.3c-0.6-1.5-2.9-2.4-5.2-2.1l-1.6,0.2c-0.2,0-0.5,0-0.7,0.1
						c-1.3,0.2-2.4,0.9-3.6,1.3c-2.7,0.9-6.1,0.8-8.9,1.7c-1.4,0.5-2.5,1.2-3.6,1.9c-3.7,2.3-7.4,4.7-11.1,7c-1.5,1-3.1,1.9-5,2.6
						c-0.2,0-0.3,0.1-0.5,0.1c-0.3,0-0.7,0-1.1,0c-1.4-0.1-3-0.6-4.4-1c-0.9,0-1.9,0.1-3,0.1c3.5,4.2,13.2,9.4,19.2,10.5
						c6.8,1.2,14.1,0.6,20.6-1c2.3-0.6,4.5-1.3,6.4-2.3c4.7-2.5,6.6-6.7,6.3-10.6c0-0.2,0-0.4-0.1-0.6
						C596.1,851.4,594.8,848.7,592.6,846.3L592.6,846.3z"/>
					<path class="st13" d="M543.8,811.6c0,0,9,10.5,16.2,8.2c7.2-2.4,14.4-6.4,21.3-3.9c6.9,2.6,14.4-7.5,8.4-19.3
						C583.7,784.7,535.4,797.4,543.8,811.6"/>
					<path class="st14" d="M589.2,824.8c0,0-0.5-22.3-20-18.6c-13.6,2.6-16.6-4.9-24.7-4.6c-8.1,0.3-17,11.7-12.7,25.6
						c4.3,13.9,14.8,31.6,31.5,26.7C580.2,848.9,592.5,834.6,589.2,824.8"/>
					<path class="st5" d="M553.6,857.7c0,0-12.2,2.4-23.6-9.7c-11.5-12-8.7-22-5.2-33.4c2.2-7.3,6.6-11.8,12.6-11.8
						c5.9,0,8.5,12.2,13.5,12.2c4.9,0,15.3-2.3,13.1,12.1C561.8,841.5,565.5,856.1,553.6,857.7"/>
					<path class="st15" d="M599.3,854.7c0,0,11.7,0.1,15.8-11.3c5.2-14.6-4.5-23.7-4.9-33.7s-16.9-14.3-21.5-7.2s-11.4-0.5-14,11
						c-1.3,5.7-10.5,4.2-7.5,17.5C570.1,844.3,599.3,854.7,599.3,854.7"/>
					<path class="st13" d="M574.1,873.5c0,0,26.1,2.6,32.1-19.3c6-21.9-9.1-15.1-10.7-23c-1.6-7.9-11.5-10.7-17.1-6.8
						c-5.6,4-9.1-2-17.1,0.4c-7.9,2.4-5.6,16.7-11.1,16.7c-5.6,0-9.1-0.4-7.9,11.1C543.4,864.1,554.7,870.5,574.1,873.5"/>
				</g>
			</g>
		</g>
	</g>
</g>
</svg>
