<?xml version="1.0" encoding="utf-8"?>
<!-- Generator: Adobe Illustrator 22.0.1, SVG Export Plug-In . SVG Version: 6.00 Build 0)  -->
<svg version="1.1" id="Layer_1" xmlns="http://www.w3.org/2000/svg" xmlns:xlink="http://www.w3.org/1999/xlink" x="0px" y="0px"
	 viewBox="0 0 840 1000" style="enable-background:new 0 0 840 1000;" xml:space="preserve">
<style type="text/css">
	.st0{fill:#4D4032;}
	.st1{fill:#FAD1BF;}
	.st2{fill:#478971;}
	.st3{fill:#2E583C;}
	.st4{fill:#F3B744;}
	.st5{fill:#547D41;}
	.st6{fill:none;stroke:#FFFFFF;stroke-width:0.8279;stroke-miterlimit:10;}
	.st7{fill:#775A41;}
	.st8{fill:#B96832;}
	.st9{fill:#76A075;}
	.st10{fill:#5E867E;}
</style>
<g id="Layer_4">
	<g>
		<g>
			<g>
				<path class="st0" d="M403.1,216c11.2,1.2,30.5-1.7,38.6,6.6c1,1,2,2.1,3.3,2.3c1.4,0.2,2.7-0.6,3.9-1.4
					c9.2-5.9,11.8-1.4,22.3-4.2c-2.2-4.9-3.8-10-4.8-15.3c-0.7-3.6-1.1-7.3-2.5-10.7c-1.4-3.5-3.8-6.4-6.5-9.1
					c-1.4,0.8-2.9,1.3-4.4,1.7C432.9,192,420.1,206.5,403.1,216z"/>
				<path class="st1" d="M390.3,219.8c0.5,1.3,1,2.6,1.7,3.9c3.7,7.4,9.4,13.3,15.9,18c2.3,1.6,4.6,3.1,7.1,4.5
					c9.4,5.2,19.5,8.5,29.4,12.4c2,0.8,4,1.6,5.9,2.5c4.5-4,9.2-7.8,13.9-11.5c5.8-4.6,12.4-9.5,19.3-11c-4.4-5.1-9.5-13-12.2-19.2
					c-5.5-0.5-13.1-1.8-22.3,4.2c-1.2,0.8-2.5,1.6-3.9,1.4c-1.3-0.2-2.3-1.3-3.3-2.3c-8.1-8.3-27.4-5.4-38.6-6.6
					c-1.2,0.7-2.4,1.3-3.6,1.9C395.5,219.8,392.5,220.4,390.3,219.8z"/>
				<path class="st2" d="M386,216c0.9,2,2.2,3.3,4.3,3.8c2.2,0.5,5.2,0,9.2-2c1.2-0.6,2.4-1.2,3.6-1.9c17.1-9.5,29.9-23.9,49.9-30
					c1.5-0.5,3.1-0.9,4.4-1.7l0,0c1.8-1,1.9-3.8,0.2-5.1c-10.2-7.4-21.1-14.4-33.2-15c-10.7-0.5-21.4,4.4-28.7,12.7
					C389.5,184,381.9,206.7,386,216z"/>
				<path class="st2" d="M386,216c-2.8,8.3-5.6,16.7-8.4,25c-2.4,7-4.7,14.9-2.1,21.9c0.4,1.1,1.1,2.3,2.1,2.8
					c1.4,0.7,3.1,0,4.6-0.7c9.1-4.9,19.6-14.2,25.7-23.2c-6.5-4.7-12.3-10.7-15.9-18c-0.6-1.3-1.2-2.6-1.7-3.9
					C388.2,219.3,386.9,218,386,216z"/>
			</g>
			<path class="st3" d="M427.3,361.4c1.3,14.3,12.6,48.5,21.8,65c1.4-2.9,2.8-5.7,4.2-8.6c5.6-11.7,17.9-27.9,18.4-40.9
				c0.5-15.6-10.2-34.6-16.5-49.5s-20.3-26.9-17.1-42.1c1.3-6.2,4.7-12.1,9.4-16.7c6.7-6.6,16.2-10.3,26.1-8.2
				c25.1,5.4,31.3,36.4,39.9,54.6c9,19.2,21.8,38.6,19.3,59.7c-1,8-4.1,15.5-7.2,23c-9.1,21.5-18.1,42.9-27.2,64.4
				c12,0.2,24.1,1.7,36.2,3.4c19,2.6,35.5-4.5,45.4-16.5c0.8-0.9,1.5-1.9,2.2-2.9c-4.7-0.4-9.4-0.9-14.1-1.3
				c-3.3-0.3-6.9-0.7-9.6-2.7c-3.6-2.7-4.3-7.4-4.7-11.6c-4.1-42.8-6.2-85.7-6.1-128.5v-2.2c-0.9-2.2-2-4.3-3.1-6.4
				c-9.3-17-30.7-31.4-45.1-44.9c-7.6-7.1-16.5-14.8-27-14.7c-3.5,0-6.7,0.9-9.7,2.4c-6.5,3.3-11.6,9.4-16,15.1
				c-3.6,4.7-7.1,9.3-10.4,14.1c-2.8,4-5.3,8.1-7.5,12.4C413.9,306.5,424.4,329,427.3,361.4z"/>
			<path class="st4" d="M404.8,505.6c0.1,8.2,4.7,16.2,11.6,21.7c4.9,4,10.9,6.7,17.3,7.3c0.3,0,0.5,0,0.8,0.1
				c1.7,0.1,3.4,0.1,4.9-0.5c1.9-0.8,3.3-2.4,4.5-3.9c6.7-8.7,12.2-18.2,16.3-28.2c-9.8-8.9-21.1-16.3-33.3-21.9
				C414.5,482.9,404.7,493.6,404.8,505.6z"/>
			<path class="st0" d="M401.2,547.1c0.3,0.6,0.9,1.1,1.5,1.5c0.1,0,0.1,0.1,0.2,0.1c3.1,2.1,6.3,4.1,9.6,5.9c2.6,1.5,5.3,2.8,8.1,4
				c3.3,1.5,6.8,2.8,10.3,2.4c3.5-0.4,6.7-3.3,6-6.5c-3.1-3.6-10.4-2.5-12.6-6.6c-1.8-3.4,1.7-6.7,4.8-8.8c1.8-1.2,3.6-2.8,4.5-4.6
				c-6.3-0.6-12.4-3.3-17.3-7.3c-4.5,5.3-9.7,11.5-14.1,16.6C401.5,544.9,400.7,546,401.2,547.1z"/>
			<path class="st0" d="M320.9,656c-0.7,3.8,1.8,8.2,4.8,6.8c17.2-21.6,34.4-43.3,51.6-64.9c8.5-10.6,16.9-21.3,25.4-31.9
				c2.7-3.4,6.4-7.3,9.9-11.3c-3.3-1.8-6.5-3.8-9.6-5.9c-8.4,9-16,22.4-21.1,29.2c-17.8,23.7-36.2,46.5-55.3,68.5
				C324,649.1,321.5,652.1,320.9,656z"/>
			<path class="st5" d="M426.1,479.9c0.2,0.1,0.5,0.2,0.7,0.3c12.2,5.6,23.5,13,33.3,21.9c1.4,1.3,2.8,2.5,4.1,3.9
				c0.9,0.9,2.1,1.9,3.4,1.8c0.1,0,0.2,0,0.4-0.1c0.9-0.2,1.6-1.1,2.1-1.9c2.8-4.1,5.2-8.5,7.1-13.1l-0.1-0.1
				c-3.4-2.4-6.9-4.7-10.5-6.8c-10.4-6.3-21.6-11.5-33.1-15.6C430.6,473,428.1,476.5,426.1,479.9z"/>
			<path class="st6" d="M579.8,449c0-0.1,0-0.1,0-0.2"/>
			<path class="st7" d="M543.1,610.6c-0.5,10.5-0.4,21-0.6,31.5c4.9-5.8,11.4-10.8,17.9-14.9C554.7,621.7,548.9,616.1,543.1,610.6z"
				/>
			<path class="st7" d="M451.9,610.7c1.6,4.5,5.3,8.2,9,11.6c6.3,5.8,12.9,11.3,19.9,16.5c-4.8-37.9-7.4-61.8-10.5-99.8
				c-5.5,23.2-12.3,32.3-17.8,55.5C451.2,599.8,450,605.4,451.9,610.7z"/>
			<path class="st8" d="M468,507.7c0.7,10.5,1.5,20.9,2.3,31.3l0,0c3,38,5.6,61.8,10.5,99.8c1.4,11.3,2.9,22.5,4.5,33.8
				c17.4-0.3,34.9,0.7,52.2,3.1c1.1,0.2,2.2,0.3,3.3,0.5c1-9,1.4-18.1,1.6-27.2c0.1-2.3,0.1-4.6,0.1-6.9c0.1-9.8,1.3-18.9,1.9-28.6
				c0-0.5,0.1-1,0.2-1.5l0,0c0.1-0.8,0.3-1.7,0.6-2.5l0.6-1.8c-8.8-7-15.6-16-18.2-26.2c-1.2-4.7-1.4-9.6-2.7-14.3
				c-1.4-5.5-4.2-10.7-7.1-15.9c-0.7-1.3-1.4-2.6-2.2-3.8c-0.6-1.1-1.2-2.1-1.8-3.2c-0.5-0.9-1.1-1.9-1.7-2.8
				c-0.2-0.3-0.3-0.6-0.5-0.8c-0.5-0.9-1-1.7-1.6-2.6c-0.2-0.3-0.4-0.6-0.6-0.9c-0.5-0.9-1.1-1.7-1.6-2.5c-0.3-0.4-0.5-0.8-0.8-1.2
				c-0.4-0.7-0.8-1.3-1.2-1.9c-0.7-1.1-1.4-2.2-2.1-3.3c-0.6-0.9-1.2-1.8-1.8-2.7c-0.6-0.9-1.2-1.9-1.9-2.8c-0.4-0.6-0.9-1.3-1.3-2
				c-0.7-1-1.4-2-2.1-3.1c-0.7-1-1.4-2-2.1-3c-2.6-3.6-5.3-7.2-8-10.7c-0.8-1.1-1.6-2.1-2.5-3.1c-0.8-1.1-1.7-2.1-2.5-3.2l0,0
				c-1.1-1.4-2.3-2.8-3.5-4.2l-0.8-0.6c-2,4.6-4.3,8.9-7.1,13.1C469.5,506.6,468.9,507.4,468,507.7z"/>
			<path class="st2" d="M542.6,642.1c0,2.3-0.1,4.6-0.1,6.9c-0.2,9.1-0.6,18.2-1.6,27.2c3.3,0.5,6.6,1,9.9,1.6
				c1.4,0.2,2.9,0.6,3.6,1.7c0.6,1,0.4,2.1,0.2,3.2c-0.8,5.6-2,11.2-3.4,16.8c6.9,10,14.6,19.8,19.8,28.7c1.5,2.6,3,5.3,3,8.1
				c0,4.2-3.4,7.5-5.7,11s-3.2,8.9,0.5,11.6c3.7,2.6,8.7,0.6,12.4-1.5c9.5-5.3,18.8-10.9,27.9-16.8c8.1-5.2,16.9-12.1,16.1-21.5
				c-0.3-3.7-2.1-7.3-4-10.7c-10-18.3-21.8-35.9-35.2-52.5c-8.4-10.3-16.2-20.4-17.9-33.1c-2.4,1.3-5,2.8-7.5,4.4
				C553.9,631.3,547.4,636.3,542.6,642.1z"/>
			<path class="st2" d="M455.7,771.5c8.3,5.4,18.8,6.3,28.6,6.9c10.5,0.7,31,5.1,37.5-0.9c4.3-4,7.5-17.9,9.9-23.5
				c7.2-17.5,14.4-36.7,18.6-55.8c1.3-5.6,2.3-11.3,2.9-16.9c0.2-1.1,0.4-2.2-0.3-3.2c-0.8-1.1-2.3-1.4-3.7-1.6
				c-3.3-0.5-6.6-0.9-9.9-1.3c-1.1-0.1-2.2-0.3-3.3-0.4c-17.4-1.9-35-2.5-52.3-1.7c-1.1,0-2.1,0.1-3.2,0.2c-3.6,0.2-7.8,0.9-9,3.9
				c-0.4,1-0.4,2-0.4,3c0.5,23.5,13.1,46.5,13.5,70c0.1,3.1-0.2,6.5-2.2,8.9c-1.6,1.9-4.1,2.9-6.4,3.9
				C469.4,765.8,462.5,768.7,455.7,771.5z"/>
			<path class="st4" d="M547.5,299.8c0,0.7,0,1.5,0,2.2c-0.1,42.7,2,85.6,6.1,128.5c0.4,4.2,1.1,8.9,4.7,11.6c2.7,2,6.2,2.4,9.6,2.7
				c4.7,0.4,9.4,0.9,14.1,1.3l0,0c22.3,2.1,44.5,4.2,66.8,6.3c1.4,0.1,2.9,0.2,4-0.5c1.4-0.9,1.6-2.6,1.7-4.2
				c0.8-9.6,1.5-19.3,2-28.9c-8.5-7.2-12.8-8.7-15.5-10.6c-1.9-1.3-7-3.6-11.8-5.7c-0.4,0.5-0.8,0.9-1.3,1.3
				c-5.5,5-14.6,5.8-22.3,3.2c-2.3-0.8-4.7-1.9-6.3-3.7c-1.7-1.8-2.5-4.1-2.7-6.4c-0.5-5.1,2.2-10.1,6.7-12.7
				c0.3-0.2,0.6-0.3,0.8-0.4c-2.7-0.8-5.6-1.8-7.5-3.8c-2.3-2.4-2.7-5.8-3.1-8.9c-1.9-19-3.9-38.2-2.8-57.1c1-16.7,4.6-30.4,27-23.3
				c25.5,8.1,15.9,57.1,19.4,76.5c0.6,3,1.2,6.2,0.5,9.1c-0.9,4-4.1,7-8,8.8c2.1,2.6,3,5.9,2.8,9.1c8.8,3.4,17.1,7.7,24.6,12.8
				c0.8-16.7,1.1-33.4,1.2-50.1c0.1-19.2,2.8-40.3-1.8-59.5c-3.4-14.2-11.6-23.3-25.2-28.2c-2.3,4-5.7,7.5-8.4,8.4
				c-12.2,4-34.5-0.7-47.7-1c-1.8,0-3.9-0.1-5.3-1.3c-1.5-1.2-1.8-3.2-2.1-5c-0.1-0.9-0.2-1.9-0.3-2.9c-6.2,2.2-11.4,5.4-14.8,10.1
				C548.2,283.9,547.6,292,547.5,299.8z"/>
			<path class="st0" d="M567.5,267.6c0.1,1,0.2,1.9,0.3,2.9c0.2,1.8,0.6,3.8,2.1,5c1.4,1.2,3.5,1.3,5.3,1.3c13.3,0.3,35.5,5,47.7,1
				c2.7-0.9,6.1-4.4,8.4-8.4c3.6-6.1,4.8-13.4-2.2-14.4c-13.6-1.9-27.2-3.4-40.8-4.4c-6.2-0.5-13.2-0.6-17.4,3.3
				C567.3,257.2,567.1,262.5,567.5,267.6z"/>
			<path class="st9" d="M590.8,314.1c-1.1,18.9,0.9,38.1,2.8,57.1c0.3,3.1,0.8,6.5,3.1,8.9c1.9,2,4.8,3,7.5,3.8
				c1.7-0.8,3.7-1.3,5.7-1.5c5.1-3.9,13.8-3.3,18.6,1.5c0.4,0.4,0.8,0.8,1.1,1.2c4-1.8,7.1-4.8,8-8.8c0.7-3,0.1-6.1-0.5-9.1
				c-3.6-19.4,6.1-68.4-19.4-76.5C595.4,283.7,591.7,297.4,590.8,314.1z"/>
			<path class="st10" d="M596.7,397.1c0.2,2.3,1.1,4.6,2.7,6.4c1.6,1.8,4,2.9,6.3,3.7c7.7,2.6,16.8,1.7,22.3-3.2
				c0.5-0.4,0.9-0.8,1.3-1.3c-4.1-1.8-8-3.6-9.6-4.7c-2.7-1.9-3.7-6.1-1.9-8.2c5,1.3,9.9,2.8,14.7,4.7c0.2-3.2-0.7-6.5-2.8-9.1
				c-0.3-0.4-0.7-0.8-1.1-1.2c-4.9-4.7-13.6-5.4-18.6-1.5c-2,0.1-3.9,0.6-5.7,1.5c-0.3,0.1-0.6,0.3-0.8,0.4
				C598.9,387,596.2,392,596.7,397.1z"/>
			<path class="st8" d="M487.1,488.6c0.3,0.3,0.6,0.5,0.8,0.8c0.6,0.6,1.3,1.3,1.9,1.9c0.5,0.5,1,1,1.5,1.5c0.7,0.7,1.4,1.5,2.1,2.2
				c0.5,0.5,0.9,1,1.4,1.5c0.6,0.6,1.1,1.2,1.7,1.8c0.5,0.6,1.1,1.2,1.6,1.9c1.2,1.4,2.5,2.9,3.7,4.4c0.3,0.4,0.6,0.8,0.9,1.1
				c0.7,0.8,1.3,1.6,1.9,2.5c0.4,0.5,0.8,1.1,1.2,1.6c0.5,0.7,1,1.3,1.5,2c2.4,3.3,4.7,6.7,6.9,10.1c0.9,1.4,1.7,2.7,2.6,4.1
				c0.4,0.7,0.8,1.4,1.2,2.1s0.8,1.4,1.2,2.1c0.4,0.8,0.9,1.6,1.3,2.4c0.3,0.6,0.7,1.3,1,1.9c1.5,2.8,2.9,5.7,4.3,8.6
				c0.3,0.7,0.7,1.4,1,2.2c1.3,2.9,2.5,5.9,3.6,8.8c5.1,13.5,8.7,28.2,17.5,39.9c9.2-48.9,36.2-94.8,32-144.9
				c-9.8,12-26.3,19.1-45.4,16.5c-12.1-1.7-24.3-3.2-36.2-3.4C494.5,470.9,490.8,479.8,487.1,488.6z"/>
			<path class="st7" d="M478,493.3c1.2,1.4,2.3,2.8,3.5,4.2l0,0c0.9,1.1,1.7,2.1,2.5,3.2c0.8,1,1.6,2.1,2.5,3.1
				c2.7,3.5,5.4,7.1,8,10.7c0.7,1,1.4,2,2.1,3s1.4,2,2.1,3.1c0.5,0.7,0.9,1.3,1.3,2c0.6,0.9,1.3,1.9,1.9,2.8
				c0.6,0.9,1.2,1.8,1.8,2.7c0.7,1.1,1.4,2.2,2.1,3.3c0.4,0.6,0.8,1.3,1.2,1.9c0.3,0.4,0.5,0.8,0.8,1.2c0.5,0.8,1.1,1.7,1.6,2.5
				c0.2,0.3,0.4,0.6,0.6,0.9c0.5,0.9,1.1,1.7,1.6,2.6c0.2,0.3,0.3,0.6,0.5,0.8c0.6,0.9,1.1,1.9,1.7,2.8c0.6,1.1,1.2,2.1,1.8,3.2
				c0.7,1.3,1.5,2.6,2.2,3.8c2.9,5.1,5.6,10.3,7.1,15.9c1.2,4.7,1.5,9.6,2.7,14.3c2.6,10.2,9.4,19.1,18.2,26.2
				c3.7,3,7.7,5.6,11.9,7.8c14.1,7.5,30.1,11,45.8,13.8c8.1,1.4,16.4,2.7,24.4,1.8c8.1-0.9,15.6-4.1,22.2-8.1
				c19.5-11.9,32.1-31.5,38.9-52.3c6.7-20.9,8.1-43.2,8.7-65.3c0.5-16.7,0.6-33.6-4.2-50c-5.7-19.9-19-36.3-36.4-48.3
				c-7.5-5.1-15.8-9.5-24.6-12.8c-0.6-0.2-1.2-0.5-1.8-0.7c-0.7-0.3-1.4-0.5-2.1-0.8c-0.1,0-0.2-0.1-0.3-0.1
				c-0.3-0.1-0.7-0.2-1.1-0.4c-0.3-0.1-0.5-0.2-0.8-0.3c-0.4-0.1-0.8-0.3-1.2-0.4c-0.6-0.2-1.2-0.4-1.8-0.6c-0.2,0-0.3-0.1-0.5-0.1
				c-0.5-0.1-0.9-0.3-1.4-0.4c-1.1-0.3-2.2-0.6-3.3-0.9h-0.1c-0.3,0-0.5,0-0.7,0.2c0,0,0,0,0,0.1l0,0l-0.1,0.1l0,0l0,0l0,0
				c0,0.1-0.1,0.2-0.1,0.2c0,0.1-0.1,0.2-0.1,0.3c-0.1,0.3-0.2,0.5-0.2,0.8c0,0.1,0,0.3,0,0.4c0,0.3,0,0.6,0,0.8c0,0.1,0,0.3,0,0.4
				c0,0.2,0.1,0.3,0.1,0.4c0,0.2,0.1,0.3,0.1,0.5c0,0.1,0,0.2,0.1,0.3c0.1,0.2,0.1,0.3,0.2,0.5c0.1,0.3,0.3,0.5,0.4,0.8
				c0.1,0.1,0.2,0.3,0.3,0.4s0.2,0.3,0.3,0.4c0.2,0.2,0.3,0.4,0.5,0.6c0.1,0.1,0.2,0.2,0.4,0.3c0.1,0.1,0.2,0.2,0.4,0.3
				c1.6,1.1,5.5,2.9,9.6,4.7c4.8,2.2,9.8,4.4,11.8,5.7c2.7,1.9,7,3.4,15.5,10.6c2.9,2.4,6.2,5.5,10.2,9.5
				c9.9,10,14.4,21.1,16.7,34.1c4.9,27.1,2.2,54.8-2.3,81.4c-7.7,45.5-18.2,52.2-39,70.2c-3.8,3.3-9.7,5.4-14.9,6.6
				c-4.5,1-9.3,0.5-14-0.1c-21.4-2.5-44.9-5.9-60.2-20.7c-1.9-1.9-3.7-3.8-5.2-5.9c-8.8-11.7-12.4-26.3-17.5-39.9
				c-1.1-3-2.3-5.9-3.6-8.8c-0.3-0.7-0.6-1.5-1-2.2c-1.3-2.9-2.7-5.8-4.3-8.6c-0.3-0.6-0.7-1.2-1-1.9c-0.4-0.8-0.9-1.6-1.3-2.4
				c-0.4-0.7-0.8-1.4-1.2-2.1c-0.4-0.7-0.8-1.4-1.2-2.1c-0.8-1.4-1.7-2.8-2.6-4.1c-2.2-3.4-4.5-6.8-6.9-10.1c-0.5-0.7-1-1.3-1.5-2
				c-0.4-0.5-0.8-1.1-1.2-1.6c-0.6-0.8-1.3-1.6-1.9-2.5c-0.3-0.4-0.6-0.8-0.9-1.1c-1.2-1.5-2.4-2.9-3.7-4.4
				c-0.5-0.6-1.1-1.2-1.6-1.9c-0.5-0.6-1.1-1.2-1.7-1.8c-0.5-0.5-0.9-1-1.4-1.5c-0.7-0.7-1.4-1.5-2.1-2.2c-0.5-0.5-1-1-1.5-1.5
				c-0.6-0.6-1.3-1.3-1.9-1.9c-0.3-0.3-0.5-0.5-0.8-0.8c-0.1,0.3-0.3,0.7-0.4,1s-0.3,0.7-0.4,1c-0.9,2.2-1.9,4.5-2.8,6.7
				c-0.3-0.2-0.5-0.4-0.8-0.6c0,0,0,0-0.1-0.1C481.1,495.6,479.6,494.5,478,493.3L478,493.3z"/>
			<path class="st2" d="M449.1,426.4c-7.1,14.8-19.6,25.5-26.8,40.3c3.8,1.1,7.5,2.2,11.2,3.5c11.6,4.1,22.7,9.3,33.1,15.6
				c3.6,2.2,7.1,4.4,10.5,6.8l0.1,0.1l0.8,0.6l0.1,0.1c1.5,1.1,3,2.2,4.4,3.3c0,0,0,0,0.1,0.1c0.3,0.2,0.5,0.4,0.8,0.6
				c0.9-2.2,1.9-4.5,2.8-6.7c0.1-0.3,0.3-0.7,0.4-1s0.3-0.7,0.4-1c3.7-8.8,7.4-17.6,11.1-26.4c9-21.5,18.1-42.9,27.2-64.4
				c3.1-7.4,6.3-14.9,7.2-23c2.5-21.1-10.3-40.6-19.3-59.7c-8.5-18.2-14.8-49.2-39.9-54.6c-9.9-2.1-19.3,1.6-26.1,8.2
				c-4.7,4.6-8.1,10.5-9.4,16.7c-3.2,15.1,10.8,27.2,17.1,42.1c6.3,14.9,17,33.9,16.5,49.5c-0.4,13-12.7,29.3-18.4,40.9
				C451.8,420.7,450.5,423.5,449.1,426.4z"/>
		</g>
	</g>
</g>
</svg>
