<?xml version="1.0" encoding="utf-8"?>
<!-- Generator: Adobe Illustrator 22.0.1, SVG Export Plug-In . SVG Version: 6.00 Build 0)  -->
<svg version="1.1" id="Layer_1" xmlns="http://www.w3.org/2000/svg" xmlns:xlink="http://www.w3.org/1999/xlink" x="0px" y="0px"
	 viewBox="0 0 840 1000" style="enable-background:new 0 0 840 1000;" xml:space="preserve">
<style type="text/css">
	.st0{fill:#EAEFE1;}
</style>
<g id="Layer_3">
	<g>
		<path class="st0" d="M330.6,158c7.9,12.1,2.4,29.6-9.2,38.2c-11.6,8.6-27.2,9.9-41.5,7.9c-14.3-2.1-28-7.2-42.1-10.1
			c-26-5.4-53.4-3.5-78.3,5.6c-12.6,4.6-24.5,10.9-37.5,14.4c-12.9,3.5-27.5,4-39-2.9c-11.5-6.8-18.3-22.5-12.1-34.3
			c8.3-15.7,30.3-15,47.8-17.6c26.8-3.9,50.1-19.9,75-30.7c27-11.7,49.8-13,74.3,2.1C286,141.7,318.4,139.4,330.6,158z"/>
	</g>
</g>
</svg>
