<?xml version="1.0" encoding="utf-8"?>
<!-- Generator: Adobe Illustrator 22.0.1, SVG Export Plug-In . SVG Version: 6.00 Build 0)  -->
<svg version="1.1" id="Layer_1" xmlns="http://www.w3.org/2000/svg" xmlns:xlink="http://www.w3.org/1999/xlink" x="0px" y="0px"
	 viewBox="0 0 840 1000" style="enable-background:new 0 0 840 1000;" xml:space="preserve">
<style type="text/css">
	.st0{fill:#EAEFE1;}
</style>
<g id="Layer_2_1_">
	<g>
		<path class="st0" d="M671,16.6c-11.4,2.7-19.8,12.1-26.8,21.4s-13.8,19.5-24.1,25c-9.9,5.3-21.6,5.5-32.3,8.8
			c-10.7,3.2-21.6,11.7-21.1,22.8c0.4,7.8,6.5,14.4,13.5,17.6s15,3.9,22.8,4.4c22.6,1.6,45.2,3.2,67.8,4.7c28.6,2,57.5,4,85.7-0.7
			c11.6-1.9,23.7-5.3,32.1-13.5c8.4-8.3,11.8-22.7,4.7-32c-4.1-5.4-10.8-8.2-17.1-10.7c-22.2-8.9-49.1-15.5-69.5-27.8
			C694.8,29.3,687.9,12.7,671,16.6z"/>
	</g>
</g>
</svg>
