<?xml version="1.0" encoding="utf-8"?>
<!-- Generator: Adobe Illustrator 23.0.6, SVG Export Plug-In . SVG Version: 6.00 Build 0)  -->
<svg version="1.1" id="Layer_1" xmlns="http://www.w3.org/2000/svg" xmlns:xlink="http://www.w3.org/1999/xlink" x="0px" y="0px"
	 viewBox="0 0 755 175" style="enable-background:new 0 0 755 175;" xml:space="preserve">
<style type="text/css">
	.st0{clip-path:url(#SVGID_2_);}
	.st1{clip-path:url(#SVGID_4_);}
	.st2{clip-path:url(#SVGID_6_);}
	.st3{fill:#BBD38D;}
	.st4{clip-path:url(#SVGID_8_);}
	.st5{fill:#DDDA91;}
	.st6{clip-path:url(#SVGID_10_);}
	.st7{fill:#98C29C;}
	.st8{fill:#B5BE6D;}
	.st9{fill:#DDD990;}
	.st10{fill:#537D41;}
	.st11{fill:#658369;}
	.st12{fill:#547D41;}
	.st13{fill:#77A275;}
	.st14{fill:none;}
</style>
<g>
	<defs>
		<rect id="SVGID_1_" width="755" height="175"/>
	</defs>
	<clipPath id="SVGID_2_">
		<use xlink:href="#SVGID_1_"  style="overflow:visible;"/>
	</clipPath>
	<g class="st0">
		<defs>
			<rect id="SVGID_3_" x="-5" y="-3.6" width="765" height="178.6"/>
		</defs>
		<clipPath id="SVGID_4_">
			<use xlink:href="#SVGID_3_"  style="overflow:visible;"/>
		</clipPath>
		<g class="st1">
			<g>
				<defs>
					<rect id="SVGID_5_" x="-6.2" y="-8.4" width="764.4" height="158.8"/>
				</defs>
				<clipPath id="SVGID_6_">
					<use xlink:href="#SVGID_5_"  style="overflow:visible;"/>
				</clipPath>
				<g class="st2">
					<path class="st3" d="M784.8,46.3c8.1,18.3,15.7,41.4,2.8,56.8c-7.2,8.6-18.6,11.8-29.4,14.7c-64.1,16.9-129.2,34-195.5,32.6
						c-20.4-0.4-42-3-58.7-14.8c-13.1-9.2-27.1-31.4-20-48c7.6-17.7,38.4-16.2,54.1-18.4c52.5-7.7,105.2-13.6,158.2-17.7
						C705.2,50.7,782.5,41,784.8,46.3z"/>
				</g>
			</g>
			<g>
				<defs>
					<rect id="SVGID_7_" x="-6.2" y="-8.4" width="764.4" height="158.8"/>
				</defs>
				<clipPath id="SVGID_8_">
					<use xlink:href="#SVGID_7_"  style="overflow:visible;"/>
				</clipPath>
				<g class="st4">
					<path class="st5" d="M362.6,103.1C330.2,71.4,285,56.3,240.3,49.4s-90.4-6.8-135.2-13.2C59.6,29.7,15.3,16.3-26.2-3.3
						c-9-4.2-10.1,7.8-12.1,17.5C-44.6,43.9-33,76.5-9.7,95.9c21.4,17.7,50.3,23.7,78,24.1s55.4-4.2,83.1-5.2
						c59.1-1.9,117.6,13.1,176.8,14.3c9.6,0.2,19.7-0.1,27.9-5.1C364.3,119,369.5,109.7,362.6,103.1z"/>
				</g>
			</g>
			<g>
				<defs>
					<rect id="SVGID_9_" x="-6.2" y="-8.4" width="764.4" height="158.8"/>
				</defs>
				<clipPath id="SVGID_10_">
					<use xlink:href="#SVGID_9_"  style="overflow:visible;"/>
				</clipPath>
				<g class="st6">
					<path class="st7" d="M628.4,95.4c-91.1-41.8-194.6-68.2-291.3-42c-43.6,11.7-85.4,34.1-130.5,34.1c-7.3,0-11.6,5.7-11.7,13
						s4.7,13.8,10.2,18.5c17.7,15.4,42.8,18.5,66.2,20C391.9,147,513.1,132.2,628.4,95.4z"/>
				</g>
			</g>
			<path class="st8" d="M471.2,93.9c1.3,1,0.8-2.2-0.8-2.6c-4.9-1.3-10-2-15.1-1.9c-2.8-0.1-5.5,0.1-8.2,0.7c-1.7,0.5-4.4,2.5-6,2.3
				c-1.3-0.2-2.5-1-3.8-1.3c-3.2-0.9-7.2,1-10-0.9c-2.5-1.7-2.5,1.5-4.8,1.5s-3.7-1.4-6-1.7c-7-1-21.2-0.7-27.5,2.8
				c-0.8,0.6-1.7,1-2.7,1c-1.2-0.1-2.3-1.3-3.5-1.1c-1,0.1-1.7,1.1-2.7,1c-1.6-0.2-1.9-3-3.6-3c-0.9,0-1.5,1-2.4,1.2
				c-1.1,0.2-2-0.8-2.9-1.5c-4.9-4.2-16.1,0-22.4-0.5c-5.3-0.4-15.6,1.8-20.3-1.3c-0.7-0.4-1.6-0.4-2.2,0c-0.8,0.7-1.9,0.8-2.8,0.2
				c-0.6-0.4-1.1-1.2-1.8-1.5c-1.6-0.7-3.1,1.2-3.8,2.8c-0.9-0.9-1.8-1.8-2.8-2.6c-0.4-0.4-1-0.9-1.7-0.4c-0.4,0.2-0.7,0.6-0.8,1
				c-1.2,3.7-5.7,1.2-8.7,2.1c-0.5,0.2-1,0.4-1.5,0.5c-0.9,0-1.7-0.2-2.4-0.7l-4.9-2.4c-0.8-0.5-1.7-0.7-2.6-0.6
				c-0.7,0.3-1.3,0.6-1.9,1.1c-0.9,0.5-2,0.5-2.9,0.2c-0.4-0.2-0.9,0-1.1,0.4c-0.6,1-2.3,1.4-3.6,1.4c-3.5,0.2-15.4,1-18-2.1
				c-0.8-0.9-2-1.3-3.2-1.1c-6.6,1.4-11.5-0.1-17.9,0.5c-4.6,0.4-9.1,1.5-13.8,1.5c-3.4,0-6.9-0.7-10.3-0.9c-3.8-0.3-7.7,0-11.4,0.8
				c-2.9,2.5-7.2,2.1-9.6-0.7c-0.1-0.1-0.2-0.3-0.3-0.4c-4.2,0.8-8.5,0.9-12.8,0.4l-2.1,2.5c-0.5-1.3-2.2-1.4-3.5-1.4
				c-3.4,0.1-9.8,1.7-11.5-1.9c1.5,3.3-14.5,0.7-15.3,0.4c-3.4-1-8.2-4.7-11.4-1.8c-1-1.3-2.4-2.3-4-2.6c-0.7,2.3-3.7,2.8-6.2,2.5
				c-2.4-0.3-5.1-1-7.1,0.2c0-1.5-2.1-1.9-3.5-1.7c-0.8,0.2-1.7,0.3-2.5,0.3c-2,0.1-5.4,0.2-7.4,0.2l-1.9,0.3
				c-3.3,0.7-6.6,1.1-10,1.1c-2.4-0.1-5-0.5-7.4,0.2c-1.2,0.5-2.4,0.9-3.6,1c-1.2,0-2.4-0.6-3.6-0.7c-1.2-0.1-2.7,0.7-2.6,1.9
				c-1.3-1.5-3.3-3.1-5.2-2.2c-0.6,0.3-1.1,0.9-1.7,1.1c-1.6,0.7-3.3-0.9-4.4-2.3c2,2.7-14.7,1.8-14.8,1.7c-7.3-0.7-14.7-1.6-22-2
				C20,84.1,6.4,83.5-6.6,86.2c-11.6,2.3-23,7.7-30.8,16.5c-1.2,1.3-1.1,3.4,0.2,4.6c0.3,0.3,0.6,0.5,1,0.6
				c8.8,3.4,18.6,3.8,28.1,4.1c28.5,0.9,57.2,1.7,85.7,2.6c85.7,2.6,171.4,5.2,257.1,7.8c9.8,0.3,19.6,0.6,29.2-0.7
				c10.1-1.4,19.9-4.6,30.1-5.7c12.9-1.4,25.8,0.5,38.8,0.3s26.6-3.1,35.7-12.3C470.1,102.3,472.6,92.1,471.2,93.9z"/>
			<path class="st8" d="M235.6,156.7c1.3,1-6.3-4.6-7.9-5c-4.9-1.3-10-2-15.1-1.9c-2.8-0.1-5.5,0.1-8.2,0.7c-1.7,0.5-4.4,2.5-6,2.3
				c-1.3-0.2-2.5-1-3.8-1.3c-3.2-0.9-7.2,1-10-0.9c-2.5-1.7-2.5,1.5-4.8,1.5c-2.2,0-3.7-1.4-6-1.7c-7-1-21.2-0.7-27.5,2.8
				c-0.8,0.6-1.7,1-2.7,1c-1.2-0.1-2.3-1.3-3.5-1.1c-1,0.1-1.7,1.1-2.7,1c-1.6-0.2-1.9-3-3.6-3c-0.9,0-1.5,1-2.4,1.2
				c-1.1,0.2-2-0.8-2.9-1.5c-4.9-4.2-16.1,0-22.4-0.5c-5.3-0.4-15.6,1.8-20.3-1.3c-0.7-0.4-1.6-0.4-2.2,0c-0.8,0.7-1.9,0.8-2.8,0.2
				c-0.6-0.4-1.1-1.2-1.8-1.5c-1.6-0.7-3.1,1.2-3.8,2.8c-0.9-0.9-1.8-1.8-2.8-2.6c-0.4-0.4-1-0.9-1.7-0.4c-0.4,0.2-0.7,0.6-0.8,1
				c-1.2,3.7-5.7,1.2-8.7,2.1c-0.5,0.2-1,0.4-1.5,0.5c-0.9,0-1.7-0.2-2.4-0.7l-4.9-2.4c-0.8-0.5-1.7-0.7-2.6-0.6
				c-0.7,0.3-1.3,0.6-1.9,1.1c-0.9,0.5-2,0.5-2.9,0.2c-0.4-0.2-0.9,0-1.1,0.4c-0.6,1-2.3,1.4-3.6,1.4c-3.5,0.2-15.4,1-18-2.1
				c-0.8-0.9-2-1.3-3.2-1.1c-6.6,1.4-11.5-0.1-17.9,0.5c-4.6,0.4-9.1,1.5-13.8,1.5c-3.4,0-6.9-0.7-10.3-0.9c-3.8-0.3-7.7,0-11.4,0.8
				c-2.9,2.5-7.2,2.1-9.6-0.7c-0.1-0.1-0.2-0.3-0.3-0.4c-4.2,0.8-8.5,0.9-12.8,0.4l-2.1,2.5c-0.5-1.3-2.2-1.4-3.5-1.4
				c-3.4,0.1-9.8,1.7-11.5-1.9c1.5,3.3-14.5,0.7-15.3,0.4c-3.4-1-8.2-4.7-11.4-1.8c-1-1.3-2.4-2.3-4-2.6c-0.7,2.3-3.7,2.8-6.2,2.5
				s-5.1-1-7.1,0.2c0-1.5-2.1-1.9-3.5-1.7c-0.8,0.2-1.7,0.3-2.5,0.3c-2,0.1-5.4,0.2-7.4,0.2l-1.9,0.3c-3.3,0.7-6.6,1.1-10,1.1
				c-2.4-0.1-5-0.5-7.4,0.2c-1.2,0.5-2.4,0.9-3.6,1c-1.2,0-2.4-0.6-3.6-0.7s-2.7,0.7-2.6,1.9c-1.3-1.5-3.3-3.1-5.2-2.2
				c-0.6,0.3-1.1,0.8-1.7,1.1c-1.6,0.7-3.3-0.9-4.4-2.3c2,2.7-14.7,1.8-14.8,1.7c-7.3-0.7-14.7-1.6-22-2
				c-13.3-0.7-26.8-1.3-39.9,1.3c-11.6,2.3-23,7.7-30.8,16.5c-1.2,1.3-1.1,3.4,0.2,4.6c0.3,0.3,0.6,0.5,1,0.6
				c8.8,3.4,18.6,3.8,28.1,4.1c28.5,0.9,57.2,1.7,85.7,2.6c85.7,2.6,171.4,5.2,257.1,7.8c9.8,0.3,19.6,0.6,29.2-0.7
				c10.1-1.4,19.9-4.6,30.1-5.7c12.9-1.4,25.8-2.4,38.8-2.7c13-0.3,26.6-3.1,35.7-12.3C227.5,159.6,237.1,154.8,235.6,156.7z"/>
			<path class="st9" d="M243.5,159c0,0-379.6-3.1-379.6-6.6c0-3.4,90.3-45.7,193.7-48.1c0,0,376.8-3.1,371,2.3
				C422.7,112.2,243.5,159,243.5,159z"/>
			<path class="st10" d="M32.7,116.6L32.7,116.6c-0.9-0.1-1.5-0.9-1.4-1.7c0.3-3.1,0.6-10.3-1-12.2c1.4,1.7,2.3,3.6,2.6,5.8
				c0,0,1.1-6.3,0.9-7.6c0.9,2.4,1.1,5,0.6,7.5c0,0,1.2-4.1,3.8-4.7c0,0-3.1,3-3.9,11.5C34.3,116,33.6,116.7,32.7,116.6
				C32.8,116.6,32.8,116.6,32.7,116.6z"/>
			<path class="st11" d="M0.8,123L0.8,123c-1.1-0.1-2-1-1.9-2.1c0,0,0-0.1,0-0.1c0.4-2.8,0.7-7.5-0.3-9.2c0.6,1.1,1,2.3,1.2,3.5
				c0,0,0.9-4.7-0.7-6.7c0,0,1.4,1.4,2.1,5.8c0,0,1.3-5.7,1.2-7.3c0.5,2.4,0.5,4.8,0.1,7.2c0,0,1.6-3.8,3.6-5.3c0,0-2.2,4.2-2.4,6.7
				c0,0,1.5-2.2,2.6-2.6c0,0-2.6,3.2-3.1,5.6c-0.2,1-0.3,2-0.4,2.8C2.7,122.3,1.8,123,0.8,123z"/>
			<path class="st12" d="M82.8,126.3L82.8,126.3c-1.2-0.1-2.1-1.1-2-2.3c0,0,0-0.1,0-0.1c0.1-2.7,0.1-7.4-1.4-9.8
				c0.8,1.3,1.5,2.7,2,4.1c0,0,0-5.6-0.3-5.9c0.9,2.4,1.6,5,1.9,7.6c0,0,1.6-9.1,1.2-10.2c0,0,1.4,4.9,0.2,9c0,0,2.4-5.9,4.4-6.8
				c0,0-2.8,4.6-3,7.1c0,0,2.4-3.4,3.2-3.1c-1.9,2.5-3.1,5.3-3.6,8.4C85.2,125.5,84.1,126.4,82.8,126.3z"/>
			<path class="st13" d="M51.4,134.8L51.4,134.8c-0.9-0.1-1.5-0.9-1.4-1.7c0.3-3.1,0.6-10.3-1-12.2c1.4,1.7,2.3,3.6,2.6,5.8
				c0,0,1.1-6.3,0.9-7.6c0.9,2.4,1.1,5,0.6,7.5c0,0,1.2-4.1,3.8-4.7c0,0-3.1,3-3.9,11.5C52.9,134.2,52.2,134.9,51.4,134.8
				C51.4,134.8,51.4,134.8,51.4,134.8z"/>
			<path class="st11" d="M16.9,143.5L16.9,143.5c-1.1-0.1-2-1-1.9-2.1c0,0,0-0.1,0-0.1c0.4-2.8,0.7-7.5-0.3-9.2
				c0.6,1.1,1,2.3,1.2,3.5c0,0,0.9-4.7-0.7-6.7c0,0,1.4,1.4,2.1,5.8c0,0,1.3-5.7,1.2-7.3c0.5,2.4,0.5,4.8,0.1,7.2
				c0,0,1.6-3.8,3.6-5.3c0,0-2.2,4.2-2.4,6.7c0,0,1.5-2.2,2.6-2.6c0,0-2.6,3.2-3.1,5.6c-0.2,1-0.3,2-0.4,2.8
				C18.8,142.8,17.9,143.6,16.9,143.5z"/>
			<path class="st12" d="M-30.8,132.5L-30.8,132.5c-1.2-0.1-2.1-1.1-2-2.3c0,0,0-0.1,0-0.1c0.1-2.7,0.1-7.4-1.4-9.8
				c0.8,1.3,1.5,2.7,2,4.1c0,0,0-5.6-0.3-5.9c0.9,2.4,1.6,5,1.9,7.6c0,0,1.6-9.1,1.2-10.2c0,0,1.4,4.9,0.2,9c0,0,2.4-5.9,4.4-6.8
				c0,0-2.8,4.6-3,7.1c0,0,2.4-3.4,3.2-3.1c-1.9,2.5-3.1,5.3-3.6,8.4C-28.5,131.7-29.6,132.6-30.8,132.5z"/>
			<path class="st13" d="M-62.4,140.4L-62.4,140.4c-0.9-0.1-1.5-0.9-1.4-1.7c0.3-3.1,0.6-10.3-1-12.2c1.4,1.7,2.3,3.6,2.6,5.8
				c0,0,1.1-6.3,0.9-7.6c0.9,2.4,1.1,5,0.6,7.5c0,0,1.2-4.1,3.8-4.7c0,0-3.1,3-3.9,11.5c0,0.8-0.6,1.4-1.3,1.4
				C-62.2,140.4-62.3,140.4-62.4,140.4z"/>
			<path class="st11" d="M-96.9,149.2L-96.9,149.2c-1.1-0.1-2-1-1.9-2.1c0,0,0-0.1,0-0.1c0.4-2.8,0.7-7.5-0.3-9.2
				c0.6,1.1,1,2.3,1.2,3.5c0,0,0.9-4.7-0.7-6.7c0,0,1.4,1.4,2.1,5.8c0,0,1.3-5.7,1.2-7.3c0.5,2.4,0.5,4.8,0.1,7.2
				c0,0,1.6-3.8,3.6-5.3c0,0-2.2,4.2-2.4,6.7c0,0,1.5-2.2,2.6-2.6c0,0-2.6,3.2-3.1,5.6c-0.2,1-0.3,2-0.4,2.8
				C-95,148.5-95.9,149.3-96.9,149.2z"/>
			<path class="st12" d="M-15.4,152.4L-15.4,152.4c-1.2-0.1-2.1-1.1-2-2.3c0,0,0-0.1,0-0.1c0.1-2.7,0.1-7.4-1.4-9.8
				c0.8,1.3,1.5,2.7,2,4.1c0,0,0-5.6-0.3-5.9c0.9,2.4,1.6,5,1.9,7.6c0,0,1.6-9.1,1.2-10.2c0,0,1.4,4.9,0.2,9c0,0,2.4-5.9,4.4-6.8
				c0,0-2.8,4.6-3,7.1c0,0,2.4-3.4,3.2-3.1c-1.9,2.5-3.1,5.3-3.6,8.4C-13.1,151.6-14.2,152.5-15.4,152.4z"/>
			<path class="st13" d="M64.2,106.8L64.2,106.8c-0.9-0.1-1.5-0.9-1.4-1.7c0.3-3.1,0.6-10.3-1-12.2c1.4,1.7,2.3,3.6,2.6,5.8
				c0,0,1.1-6.3,0.9-7.6c0.9,2.4,1.1,5,0.6,7.5c0,0,1.2-4.1,3.8-4.7c0,0-3.1,3-3.9,11.5c0,0.8-0.7,1.4-1.4,1.4
				C64.3,106.8,64.2,106.8,64.2,106.8z"/>
			<path class="st12" d="M113.7,117.3L113.7,117.3c-1.2-0.1-2.1-1.1-2-2.3c0,0,0-0.1,0-0.1c0.1-2.7,0.1-7.4-1.4-9.8
				c0.8,1.3,1.5,2.7,2,4.1c0,0,0-5.6-0.3-5.9c0.9,2.4,1.6,5,1.9,7.6c0,0,1.6-9.1,1.2-10.2c0,0,1.4,4.9,0.2,9c0,0,2.4-5.9,4.4-6.8
				c0,0-2.8,4.6-3,7.1c0,0,2.4-3.4,3.2-3.1c-1.9,2.5-3.1,5.3-3.6,8.4C116,116.5,114.9,117.4,113.7,117.3z"/>
			<path class="st10" d="M190,115.1L190,115.1c-0.8,0-1.5-0.7-1.5-1.5c0,0,0-0.1,0-0.1c0.1-3.2,0-10.3-1.8-12.1
				c1.5,1.5,2.6,3.5,3,5.6c0,0,0.7-6.3,0.4-7.6c1.1,2.3,1.5,4.9,1.1,7.4c0,0,0.9-4.1,3.5-5c0,0-2.9,3.2-3.2,11.8
				C191.5,114.4,190.9,115.1,190,115.1C190,115.1,190,115.1,190,115.1z"/>
			<path class="st11" d="M158.4,123.6L158.4,123.6c-1.1,0-2-0.8-2-1.9c0-0.1,0-0.2,0-0.3c0.2-2.8,0.3-7.5-0.9-9.1
				c0.6,1.1,1.1,2.2,1.5,3.4c0,0,0.6-4.8-1.1-6.6c0,0,1.5,1.3,2.5,5.6c0,0,0.9-5.8,0.7-7.4c0.7,2.3,0.9,4.7,0.6,7.1
				c0,0,1.4-3.9,3.3-5.5c0,0-1.9,4.5-2,6.8c0,0,1.4-2.3,2.4-2.8c0,0-2.4,3.3-2.7,5.8c-0.1,1-0.2,2-0.2,2.8
				C160.4,122.7,159.5,123.5,158.4,123.6z"/>
			<path class="st12" d="M251.1,122.2L251.1,122.2c-1.2,0-2.2-1-2.2-2.2c0-2.7-0.4-7.4-2.1-9.7c0.9,1.3,1.6,2.6,2.2,4
				c0,0-0.4-5.6-0.6-5.8c1.1,2.4,1.9,4.9,2.4,7.5c0,0,1-9.2,0.5-10.2c0,0,1.7,4.8,0.8,9c0,0,2-6,3.8-7c0,0-2.5,4.7-2.5,7.3
				c0,0,2.2-3.6,2.9-3.3c-1.7,2.6-2.7,5.5-3,8.6C253.2,121.4,252.2,122.2,251.1,122.2z"/>
			<path class="st13" d="M220.4,132.6L220.4,132.6c-0.8,0-1.5-0.7-1.5-1.5c0,0,0-0.1,0-0.1c0.1-3.2,0-10.3-1.8-12.1
				c1.5,1.5,2.6,3.5,3,5.6c0,0,0.7-6.3,0.4-7.6c1.1,2.3,1.5,4.9,1.1,7.4c0,0,0.9-4.1,3.5-5c0,0-2.9,3.2-3.2,11.8
				c0,0.8-0.6,1.5-1.4,1.5C220.5,132.6,220.4,132.6,220.4,132.6z"/>
			<path class="st11" d="M186.5,143.5L186.5,143.5c-1.1,0-2-0.8-2-1.9c0-0.1,0-0.2,0-0.3c0.2-2.8,0.3-7.5-0.9-9.1
				c0.6,1.1,1.1,2.2,1.5,3.4c0,0,0.6-4.8-1.1-6.6c0,0,1.5,1.3,2.5,5.6c0,0,0.9-5.8,0.7-7.4c0.7,2.3,0.9,4.7,0.6,7.1
				c0,0,1.4-3.9,3.3-5.5c0,0-1.9,4.5-2,6.8c0,0,1.4-2.3,2.4-2.8c0,0-2.4,3.3-2.7,5.8c-0.1,1-0.2,2-0.2,2.8
				C188.5,142.6,187.6,143.5,186.5,143.5z"/>
			<path class="st12" d="M127.6,135.2L127.6,135.2c-1.2,0-2.2-1-2.2-2.2c0-2.7-0.4-7.4-2.1-9.7c0.9,1.3,1.6,2.6,2.2,4
				c0,0-0.4-5.6-0.6-5.8c1.1,2.4,1.9,4.9,2.4,7.5c0,0,1-9.2,0.5-10.2c0,0,1.7,4.8,0.8,9c0,0,2-6,3.8-7c0,0-2.5,4.7-2.5,7.3
				c0,0,2.2-3.6,2.9-3.3c-1.7,2.6-2.7,5.5-3,8.6C129.6,134.5,128.7,135.3,127.6,135.2z"/>
			<path class="st13" d="M96.6,145.1L96.6,145.1c-0.8,0-1.5-0.7-1.5-1.5c0,0,0-0.1,0-0.1c0.1-3.2,0-10.3-1.8-12.1
				c1.5,1.5,2.6,3.5,3,5.6c0,0,0.7-6.3,0.4-7.6c1.1,2.3,1.5,4.9,1.1,7.4c0,0,0.9-4.1,3.5-5c0,0-2.9,3.2-3.2,11.8
				C98.1,144.5,97.4,145.1,96.6,145.1C96.6,145.1,96.6,145.1,96.6,145.1z"/>
			<path class="st11" d="M64.9,154.2L64.9,154.2c-1.1,0-2-0.8-2-1.9c0-0.1,0-0.2,0-0.3c0.2-2.8,0.3-7.5-0.9-9.1
				c0.6,1.1,1.1,2.2,1.5,3.4c0,0,0.6-4.8-1.1-6.6c0,0,1.5,1.3,2.5,5.6c0,0,0.9-5.8,0.7-7.4c0.7,2.3,0.9,4.7,0.6,7.1
				c0,0,1.4-3.9,3.3-5.5c0,0-1.9,4.5-2,6.8c0,0,1.4-2.3,2.4-2.8c0,0-2.4,3.3-2.7,5.8c-0.1,1-0.2,2-0.2,2.8
				C66.8,153.2,66,154,64.9,154.2z"/>
			<path class="st12" d="M154.8,154.6L154.8,154.6c-1.2,0-2.2-1-2.2-2.2c0-2.7-0.4-7.4-2.1-9.7c0.9,1.3,1.6,2.6,2.2,4
				c0,0-0.4-5.6-0.6-5.8c1.1,2.4,1.9,4.9,2.4,7.5c0,0,1-9.2,0.5-10.2c0,0,1.7,4.8,0.8,9c0,0,2-6,3.8-7c0,0-2.5,4.7-2.5,7.3
				c0,0,2.2-3.6,2.9-3.3c-1.7,2.6-2.7,5.5-3,8.6C156.9,153.9,155.9,154.7,154.8,154.6C154.8,154.6,154.8,154.6,154.8,154.6z"/>
			<path class="st13" d="M220.2,107.2L220.2,107.2c-0.8,0-1.5-0.7-1.5-1.5c0,0,0-0.1,0-0.1c0.1-3.2,0-10.3-1.8-12.1
				c1.5,1.5,2.6,3.5,3,5.6c0,0,0.7-6.3,0.4-7.6c1.1,2.3,1.5,4.9,1.1,7.4c0,0,0.9-4.1,3.5-5c0,0-2.9,3.2-3.2,11.8
				c0,0.8-0.6,1.5-1.4,1.5C220.4,107.2,220.3,107.2,220.2,107.2z"/>
			<path class="st13" d="M350.6,115.1L350.6,115.1c-0.8,0-1.5-0.7-1.5-1.5c0,0,0-0.1,0-0.1c0.1-3.2,0-10.3-1.8-12.1
				c1.5,1.5,2.6,3.5,3,5.6c0,0,0.7-6.3,0.4-7.6c1.1,2.3,1.5,4.9,1.1,7.4c0,0,0.9-4.1,3.5-5c0,0-2.9,3.2-3.2,11.8
				C352.1,114.4,351.4,115.1,350.6,115.1C350.6,115.1,350.6,115.1,350.6,115.1z"/>
			<path class="st11" d="M319,123.6L319,123.6c-1.1,0-2-0.8-2-1.9c0-0.1,0-0.2,0-0.3c0.2-2.8,0.3-7.5-0.9-9.1
				c0.6,1.1,1.1,2.2,1.5,3.4c0,0,0.6-4.8-1.1-6.6c0,0,1.5,1.3,2.5,5.6c0,0,0.9-5.8,0.7-7.4c0.7,2.3,0.9,4.7,0.6,7.1
				c0,0,1.4-3.9,3.3-5.5c0,0-1.9,4.5-2,6.8c0,0,1.4-2.3,2.4-2.8c0,0-2.4,3.3-2.7,5.8c-0.1,1-0.2,2-0.2,2.8
				C321,122.7,320.1,123.5,319,123.6z"/>
			<path class="st12" d="M288.1,135.2L288.1,135.2c-1.2,0-2.2-1-2.2-2.2c0-2.7-0.4-7.4-2.1-9.7c0.9,1.3,1.6,2.6,2.2,4
				c0,0-0.4-5.6-0.6-5.8c1.1,2.4,1.9,4.9,2.4,7.5c0,0,1-9.2,0.5-10.2c0,0,1.7,4.8,0.8,9c0,0,2-6,3.8-7c0,0-2.5,4.7-2.5,7.3
				c0,0,2.2-3.6,2.9-3.3c-1.7,2.6-2.7,5.5-3,8.6C290.2,134.5,289.2,135.3,288.1,135.2z"/>
			<path class="st10" d="M257.2,145.1L257.2,145.1c-0.8,0-1.5-0.7-1.5-1.5c0,0,0-0.1,0-0.1c0.1-3.2,0-10.3-1.8-12.1
				c1.5,1.5,2.6,3.5,3,5.6c0,0,0.7-6.3,0.4-7.6c1.1,2.3,1.5,4.9,1.1,7.4c0,0,0.9-4.1,3.5-5c0,0-2.9,3.2-3.2,11.8
				C258.7,144.5,258.1,145.1,257.2,145.1C257.2,145.1,257.2,145.1,257.2,145.1z"/>
			<path class="st11" d="M225.5,154.2L225.5,154.2c-1.1,0-2-0.8-2-1.9c0-0.1,0-0.2,0-0.3c0.2-2.8,0.3-7.5-0.9-9.1
				c0.6,1.1,1.1,2.2,1.5,3.4c0,0,0.6-4.8-1.1-6.6c0,0,1.5,1.3,2.5,5.6c0,0,0.9-5.8,0.7-7.4c0.7,2.3,0.9,4.7,0.6,7.1
				c0,0,1.4-3.9,3.3-5.5c0,0-1.9,4.5-2,6.8c0,0,1.4-2.3,2.4-2.8c0,0-2.4,3.3-2.7,5.8c-0.1,1-0.2,2-0.2,2.8
				C227.4,153.2,226.6,154,225.5,154.2z"/>
			<path class="st10" d="M380.8,107.2L380.8,107.2c-0.8,0-1.5-0.7-1.5-1.5c0,0,0-0.1,0-0.1c0.1-3.2,0-10.3-1.8-12.1
				c1.5,1.5,2.6,3.5,3,5.6c0,0,0.7-6.3,0.4-7.6c1.1,2.3,1.5,4.9,1.1,7.4c0,0,0.9-4.1,3.5-5c0,0-2.9,3.2-3.2,11.8
				c0.1,0.8-0.5,1.4-1.2,1.5C381,107.2,380.9,107.2,380.8,107.2z"/>
			<path class="st12" d="M281.4,111.1L281.4,111.1c-1.2,0-2.2-1-2.2-2.2c0-2.7-0.4-7.4-2.1-9.7c0.9,1.3,1.6,2.6,2.2,4
				c0,0-0.4-5.6-0.6-5.8c1.1,2.4,1.9,4.9,2.4,7.5c0,0,1-9.2,0.5-10.2c0,0,1.7,4.8,0.8,9c0,0,2-6,3.8-7c0,0-2.5,4.7-2.5,7.3
				c0,0,2.2-3.6,2.9-3.3c-1.7,2.6-2.7,5.5-3,8.6C283.4,110.4,282.5,111.2,281.4,111.1z"/>
			<path class="st8" d="M502.3,89.5c1.5,0.7,0.3-2.3-1.3-2.4c-5.1-0.2-10.2,0.4-15.1,1.6c-2.7,0.5-5.3,1.4-7.8,2.5
				c-1.6,0.8-3.6,3.4-5.3,3.6c-1.3,0.1-2.6-0.4-4-0.4c-3.4-0.1-6.8,2.6-9.9,1.4c-2.8-1.1-2.1,2-4.2,2.5c-2.3,0.5-3.9-0.5-6.3-0.3
				c-7,0.7-20.8,4.2-26.1,9.1c-0.6,0.8-1.5,1.4-2.4,1.6c-1.2,0.2-2.5-0.7-3.7-0.2c-0.9,0.4-1.4,1.5-2.4,1.6
				c-1.6,0.2-2.6-2.5-4.3-2.1c-0.9,0.2-1.2,1.3-2,1.7c-1,0.5-2.1-0.3-3.1-0.8c-5.8-3-15.6,3.7-21.9,4.8c-5.2,0.8-14.7,5.4-20.1,3.4
				c-0.8-0.3-1.7-0.1-2.2,0.6c-0.6,0.8-1.7,1.2-2.6,0.8c-0.7-0.4-1.4-0.8-2.1-1c-1.7-0.3-2.7,1.9-3,3.7c-1.1-0.6-2.2-1.3-3.3-1.9
				c-0.5-0.3-1.1-0.6-1.7,0c-0.3,0.3-0.5,0.8-0.5,1.2c-0.3,3.9-5.3,2.4-8,4c-0.4,0.3-0.9,0.6-1.4,0.8c-0.8,0.2-1.7,0.2-2.5-0.1
				l-5.3-1.2c-0.9-0.3-1.8-0.3-2.7,0c-0.7,0.3-1.1,1-1.7,1.5c-0.8,0.7-1.8,1-2.8,0.8c-0.4,0-0.8,0.2-1,0.6c-0.4,1.1-1.9,1.8-3.2,2.2
				c-3.4,1-14.8,4.6-18,2.1c-1-0.7-2.3-0.8-3.4-0.3c-6.1,2.8-11.3,2.6-17.3,4.6c-4.4,1.5-8.5,3.6-13,4.7c-3.3,0.8-6.9,0.9-10.3,1.5
				c-3.8,0.6-7.5,1.8-10.9,3.4c-2,3.1-7.1,3.7-9.9,1.2c-3.9,1.8-8,2.9-12.2,3.3l-1.5,2.9c-0.8-1.1-2.5-0.9-3.8-0.5
				c-3.2,0.9-9.2,3.9-11.6,0.8c2.3,2.9-13.9,4-14.8,4c-3.6-0.2-9.1-2.6-11.5,0.9c-1.3-1.1-2.9-1.7-4.6-1.6c-0.2,2.4-2.9,3.6-5.4,3.9
				c-2.4,0.3-5.2,0.2-6.9,1.8c-0.4-1.4-2.5-1.4-3.8-0.8c-0.8,0.4-1.6,0.6-2.4,0.8c-2,0.5-5.2,1.4-7.2,1.9l-1.8,0.8
				c-3,1.5-6.2,2.6-9.5,3.4c-2.4,0.5-5,0.7-7.1,1.9c-1.1,0.6-2,1.5-3.2,1.8c-1.2,0.1-2.5,0.2-3.7,0.1c-1.2,0.2-2.5,1.3-2.1,2.4
				c-1.7-1.1-3.9-2.2-5.6-0.9c-0.5,0.4-0.8,1.1-1.4,1.5c-1.4,1-3.4-0.1-4.8-1.3c2.5,2.1-13.9,5.2-14,5.2c-7.3,1-14.6,1.8-21.9,3.1
				c-13.1,2.4-26.3,5-38.5,10.5c-10.7,5-20.6,12.9-26.1,23.2c-0.9,1.6-0.3,3.6,1.3,4.5c0.3,0.2,0.7,0.3,1.1,0.4
				c9.3,1.3,19-0.6,28.3-2.5c28-5.8,56-11.6,84-17.4c84-17.4,168-34.8,251.9-52.1c9.6-2,19.2-3.9,28.3-7.5
				c9.5-3.7,18.3-9.1,27.9-12.4c12.1-4.4,25.3-5.5,37.7-8.7c12.4-3.2,25.2-9.2,31.9-20.3C503.4,97.9,503.4,87.4,502.3,89.5z"/>
			<polygon class="st14" points="64,240.7 64,79.3 484.6,79.3 484.6,232.4 			"/>
			<path class="st8" d="M931.7,98.6l-451-1.6c-0.2,0-0.4,0-0.5,0.1L17.8,216.3c-1,0.3-1.6,1.4-1.3,2.4c0.2,0.8,0.9,1.3,1.7,1.4
				l913.4,13.7c1.1,0,1.9-0.9,1.9-1.9v0V100.5c0.1-1-0.7-1.8-1.6-1.9C931.8,98.6,931.8,98.6,931.7,98.6z"/>
			<path class="st8" d="M948.8,97.6c1.3,1,0.8-2.2-0.8-2.6c-4.9-1.3-10-2-15.1-1.9c-2.8-0.1-5.5,0.1-8.2,0.7c-1.7,0.5-4.4,2.5-6,2.3
				c-1.3-0.2-2.5-1-3.8-1.3c-3.2-0.9-7.2,1-10-0.9c-2.5-1.7-2.5,1.5-4.8,1.5s-3.7-1.4-6-1.7c-7-1-21.2-0.7-27.5,2.8
				c-0.8,0.6-1.7,1-2.7,1c-1.2-0.1-2.3-1.3-3.5-1.1c-1,0.1-1.7,1.1-2.7,1c-1.6-0.2-1.9-3-3.6-3c-0.9,0-1.5,1-2.4,1.2
				c-1.1,0.2-2-0.8-2.9-1.5c-4.9-4.2-16.1,0-22.4-0.5c-5.3-0.4-15.6,1.8-20.3-1.3c-0.7-0.4-1.6-0.4-2.2,0c-0.8,0.7-1.9,0.8-2.8,0.2
				c-0.6-0.4-1.1-1.2-1.8-1.5c-1.6-0.7-3.1,1.2-3.8,2.8c-0.9-0.9-1.8-1.8-2.8-2.6c-0.4-0.4-1-0.9-1.7-0.4c-0.4,0.2-0.7,0.6-0.8,1
				c-1.2,3.7-5.7,1.2-8.7,2.1c-0.5,0.2-1,0.4-1.5,0.5c-0.9,0-1.7-0.2-2.4-0.7l-4.9-2.4c-0.8-0.5-1.7-0.7-2.6-0.6
				c-0.7,0.3-1.3,0.6-1.9,1.1c-0.9,0.5-2,0.5-2.9,0.2c-0.4-0.2-0.9,0-1.1,0.4c-0.6,1-2.3,1.4-3.6,1.4c-3.5,0.2-15.4,1-18-2.1
				c-0.8-0.9-2-1.3-3.2-1.1c-6.6,1.4-11.5-0.1-17.9,0.5c-4.6,0.4-9.1,1.5-13.8,1.5c-3.4,0-6.9-0.7-10.3-0.9c-3.8-0.3-7.7,0-11.4,0.8
				c-2.9,2.5-7.2,2.1-9.6-0.7c-0.1-0.1-0.2-0.3-0.3-0.4c-4.2,0.8-8.5,0.9-12.8,0.4l-2.1,2.5c-0.5-1.3-2.2-1.4-3.5-1.4
				c-3.4,0.1-9.8,1.7-11.5-1.9c1.5,3.3-14.5,0.7-15.3,0.4c-3.4-1-8.2-4.7-11.4-1.8c-1-1.3-2.4-2.3-4-2.6c-0.7,2.3-3.7,2.8-6.2,2.5
				s-5.1-1-7.1,0.2c0-1.5-2.1-1.9-3.5-1.7c-0.8,0.2-1.7,0.3-2.5,0.3c-2,0.1-5.4,0.2-7.4,0.2l-1.9,0.3c-3.3,0.7-6.6,1.1-10,1.1
				c-2.4-0.1-5-0.5-7.4,0.2c-1.2,0.5-2.4,0.9-3.6,1c-1.2,0-2.4-0.6-3.6-0.7s-2.7,0.7-2.6,1.9c-1.3-1.5-3.3-3.1-5.2-2.2
				c-0.6,0.3-1.1,0.8-1.7,1.1c-1.6,0.7-3.3-0.9-4.4-2.3c2,2.7-14.7,1.8-14.8,1.7c-7.3-0.7-14.7-1.6-22-2
				c-13.3-0.7-26.8-1.3-39.9,1.3c-11.6,2.3-23,7.7-30.8,16.5c-1.2,1.3-1.1,3.4,0.2,4.6c0.3,0.3,0.6,0.5,1,0.6
				c8.8,3.4,18.6,3.8,28.1,4.1c28.5,0.9,57.2,1.7,85.7,2.6c85.7,2.6,171.4,5.2,257.1,7.8c9.8,0.3,19.6,0.6,29.2-0.7
				c10.1-1.4,19.9-4.6,30.1-5.7c12.9-1.4,25.8,0.5,38.8,0.3c13-0.2,26.6-3.1,35.7-12.3C947.8,105.9,950.2,95.7,948.8,97.6z"/>
			<path class="st9" d="M719.7,161.7c0,0-379.6-3.1-379.6-6.6c0-3.4,90.3-45.7,193.7-48.1c0,0,376.8-3.1,371,2.3
				C898.9,114.9,719.7,161.7,719.7,161.7z"/>
			<path class="st10" d="M509,119.3L509,119.3c-0.9-0.1-1.5-0.9-1.4-1.7c0.3-3.1,0.6-10.3-1-12.2c1.4,1.7,2.3,3.6,2.6,5.8
				c0,0,1.1-6.3,0.9-7.6c0.9,2.4,1.1,5,0.6,7.5c0,0,1.2-4.1,3.8-4.7c0,0-3.1,3-3.9,11.5C510.6,118.8,509.9,119.4,509,119.3
				C509.1,119.3,509.1,119.3,509,119.3z"/>
			<path class="st11" d="M477,125.7L477,125.7c-1.1-0.1-2-1-1.9-2.1c0,0,0-0.1,0-0.1c0.4-2.8,0.7-7.5-0.3-9.2c0.6,1.1,1,2.3,1.2,3.5
				c0,0,0.9-4.7-0.7-6.7c0,0,1.4,1.4,2.1,5.8c0,0,1.3-5.7,1.2-7.3c0.5,2.4,0.5,4.8,0.1,7.2c0,0,1.6-3.8,3.6-5.3c0,0-2.2,4.2-2.4,6.7
				c0,0,1.5-2.2,2.6-2.6c0,0-2.6,3.2-3.1,5.6c-0.2,1-0.3,2-0.4,2.8C478.9,125,478.1,125.7,477,125.7z"/>
			<path class="st12" d="M559,129.1L559,129.1c-1.2-0.1-2.1-1.1-2-2.3c0,0,0,0,0,0c0.1-2.7,0.1-7.4-1.4-9.8c0.8,1.3,1.5,2.7,2,4.1
				c0,0,0-5.6-0.3-5.9c0.9,2.4,1.6,5,1.9,7.6c0,0,1.6-9.1,1.2-10.2c0,0,1.4,4.9,0.2,9c0,0,2.4-5.9,4.4-6.8c0,0-2.8,4.6-3,7.1
				c0,0,2.4-3.4,3.2-3.1c-1.9,2.5-3.1,5.3-3.6,8.4C561.4,128.4,560.2,129.2,559,129.1z"/>
			<path class="st13" d="M527.6,137.6L527.6,137.6c-0.9-0.1-1.5-0.9-1.4-1.7c0.3-3.1,0.6-10.3-1-12.2c1.4,1.7,2.3,3.6,2.6,5.8
				c0,0,1.1-6.3,0.9-7.6c0.9,2.4,1.1,5,0.6,7.5c0,0,1.2-4.1,3.8-4.7c0,0-3.1,3-3.9,11.5C529.2,137,528.5,137.6,527.6,137.6
				C527.7,137.6,527.7,137.6,527.6,137.6z"/>
			<path class="st11" d="M493.2,146.3L493.2,146.3c-1.1-0.1-2-1-1.9-2.1c0,0,0-0.1,0-0.1c0.4-2.8,0.7-7.5-0.3-9.2
				c0.6,1.1,1,2.3,1.2,3.5c0,0,0.9-4.7-0.7-6.7c0,0,1.4,1.4,2.1,5.8c0,0,1.3-5.7,1.2-7.3c0.5,2.4,0.5,4.8,0.1,7.2
				c0,0,1.6-3.8,3.6-5.3c0,0-2.2,4.2-2.4,6.7c0,0,1.5-2.2,2.6-2.6c0,0-2.6,3.2-3.1,5.6c-0.2,1-0.3,2-0.4,2.8
				C495,145.5,494.2,146.3,493.2,146.3z"/>
			<path class="st12" d="M445.4,135.2L445.4,135.2c-1.2-0.1-2.1-1.1-2-2.3c0,0,0-0.1,0-0.1c0.1-2.7,0.1-7.4-1.4-9.8
				c0.8,1.3,1.5,2.7,2,4.1c0,0,0-5.6-0.3-5.9c0.9,2.4,1.6,5,1.9,7.6c0,0,1.6-9.1,1.2-10.2c0,0,1.4,4.9,0.2,9c0,0,2.4-5.9,4.4-6.8
				c0,0-2.8,4.6-3,7.1c0,0,2.4-3.4,3.2-3.1c-1.9,2.5-3.1,5.3-3.6,8.4C447.8,134.5,446.6,135.3,445.4,135.2z"/>
			<path class="st13" d="M413.9,143.2L413.9,143.2c-0.9-0.1-1.5-0.9-1.4-1.7c0.3-3.1,0.6-10.3-1-12.2c1.4,1.7,2.3,3.6,2.6,5.8
				c0,0,1.1-6.3,0.9-7.6c0.9,2.4,1.1,5,0.6,7.5c0,0,1.2-4.1,3.8-4.7c0,0-3.1,3-3.9,11.5C415.5,142.6,414.8,143.3,413.9,143.2z"/>
			<path class="st11" d="M379.4,151.9L379.4,151.9c-1.1-0.1-2-1-1.9-2.1c0,0,0-0.1,0-0.1c0.4-2.8,0.7-7.5-0.3-9.2
				c0.6,1.1,1,2.3,1.2,3.5c0,0,0.9-4.7-0.7-6.7c0,0,1.4,1.4,2.1,5.8c0,0,1.3-5.7,1.2-7.3c0.5,2.4,0.5,4.8,0.1,7.2
				c0,0,1.6-3.8,3.6-5.3c0,0-2.2,4.2-2.4,6.7c0,0,1.5-2.2,2.6-2.6c0,0-2.6,3.2-3.1,5.6c-0.2,1-0.3,2-0.4,2.8
				C381.3,151.2,380.4,151.9,379.4,151.9z"/>
			<path class="st12" d="M460.8,155.3L460.8,155.3c-1.2-0.1-2.1-1.1-2-2.3c0,0,0-0.1,0-0.1c0.1-2.7,0.1-7.4-1.4-9.8
				c0.8,1.3,1.5,2.7,2,4.1c0,0,0-5.6-0.3-5.9c0.9,2.4,1.6,5,1.9,7.6c0,0,1.6-9.1,1.2-10.2c0,0,1.4,4.9,0.2,9c0,0,2.4-5.9,4.4-6.8
				c0,0-2.8,4.6-3,7.1c0,0,2.4-3.4,3.2-3.1c-1.9,2.5-3.1,5.3-3.6,8.4C463.1,154.5,462,155.3,460.8,155.3z"/>
			<path class="st13" d="M540.4,109.6L540.4,109.6c-0.9-0.1-1.5-0.9-1.4-1.7c0.3-3.1,0.6-10.3-1-12.2c1.4,1.7,2.3,3.6,2.6,5.8
				c0,0,1.1-6.3,0.9-7.6c0.9,2.4,1.1,5,0.6,7.5c0,0,1.2-4.1,3.8-4.7c0,0-3.1,3-3.9,11.5C542,109,541.3,109.7,540.4,109.6
				C540.4,109.6,540.4,109.6,540.4,109.6z"/>
			<path class="st12" d="M590,120.1L590,120.1c-1.2-0.1-2.1-1.1-2-2.3c0,0,0-0.1,0-0.1c0.1-2.7,0.1-7.4-1.4-9.8
				c0.8,1.3,1.5,2.7,2,4.1c0,0,0-5.6-0.3-5.9c0.9,2.4,1.6,5,1.9,7.6c0,0,1.6-9.1,1.2-10.2c0,0,1.4,4.9,0.2,9c0,0,2.4-5.9,4.4-6.8
				c0,0-2.8,4.6-3,7.1c0,0,2.4-3.4,3.2-3.1c-1.9,2.5-3.1,5.3-3.6,8.4C592.3,119.3,591.2,120.1,590,120.1z"/>
			<path class="st10" d="M666.2,117.8L666.2,117.8c-0.8,0-1.5-0.7-1.5-1.5c0,0,0-0.1,0-0.1c0.1-3.2,0-10.3-1.8-12.1
				c1.5,1.5,2.6,3.5,3,5.6c0,0,0.7-6.3,0.4-7.6c1.1,2.3,1.5,4.9,1.1,7.4c0,0,0.9-4.1,3.5-5c0,0-2.9,3.2-3.2,11.8
				c0.1,0.7-0.4,1.4-1.1,1.5C666.4,117.8,666.3,117.8,666.2,117.8z"/>
			<path class="st11" d="M634.7,126.3L634.7,126.3c-1.1,0-2-0.8-2-1.9c0-0.1,0-0.2,0-0.3c0.2-2.8,0.3-7.5-0.9-9.1
				c0.6,1.1,1.1,2.2,1.5,3.4c0,0,0.6-4.8-1.1-6.6c0,0,1.5,1.3,2.5,5.6c0,0,0.9-5.8,0.7-7.4c0.7,2.3,0.9,4.7,0.6,7.1
				c0,0,1.4-3.9,3.3-5.5c0,0-1.9,4.5-2,6.8c0,0,1.4-2.3,2.4-2.8c0,0-2.4,3.3-2.7,5.8c-0.1,1-0.2,2-0.2,2.8
				C636.7,125.4,635.8,126.2,634.7,126.3z"/>
			<path class="st12" d="M727.4,124.9L727.4,124.9c-1.2,0-2.2-1-2.2-2.2c0-2.7-0.4-7.4-2.1-9.7c0.9,1.3,1.6,2.6,2.2,4
				c0,0-0.4-5.6-0.6-5.8c1.1,2.4,1.9,4.9,2.4,7.5c0,0,1-9.2,0.5-10.2c0,0,1.7,4.8,0.8,9c0,0,2-6,3.8-7c0,0-2.5,4.7-2.5,7.3
				c0,0,2.2-3.6,2.9-3.3c-1.7,2.6-2.7,5.5-3,8.6C729.5,124.2,728.5,125,727.4,124.9z"/>
			<path class="st13" d="M696.6,135.3L696.6,135.3c-0.8,0-1.5-0.7-1.5-1.5c0,0,0-0.1,0-0.1c0.1-3.2,0-10.3-1.8-12.1
				c1.5,1.5,2.6,3.5,3,5.6c0,0,0.7-6.3,0.4-7.6c1.1,2.3,1.5,4.9,1.1,7.4c0,0,0.9-4.1,3.5-5c0,0-2.9,3.2-3.2,11.8
				C698.2,134.6,697.5,135.3,696.6,135.3C696.7,135.3,696.6,135.3,696.6,135.3z"/>
			<path class="st11" d="M662.8,146.3L662.8,146.3c-1.1,0-2-0.8-2-1.9c0-0.1,0-0.2,0-0.3c0.2-2.8,0.3-7.5-0.9-9.1
				c0.6,1.1,1.1,2.2,1.5,3.4c0,0,0.6-4.8-1.1-6.6c0,0,1.5,1.3,2.5,5.6c0,0,0.9-5.8,0.7-7.4c0.7,2.3,0.9,4.7,0.6,7.1
				c0,0,1.4-3.9,3.3-5.5c0,0-1.9,4.5-2,6.8c0,0,1.4-2.3,2.4-2.8c0,0-2.4,3.3-2.7,5.8c-0.1,1-0.2,2-0.2,2.8
				C664.7,145.3,663.8,146.2,662.8,146.3z"/>
			<path class="st12" d="M603.8,138L603.8,138c-1.2,0-2.2-1-2.2-2.2c0-2.7-0.4-7.4-2.1-9.7c0.9,1.3,1.6,2.6,2.2,4
				c0,0-0.4-5.6-0.6-5.8c1.1,2.4,1.9,4.9,2.4,7.5c0,0,1-9.2,0.5-10.2c0,0,1.7,4.8,0.8,9c0,0,2-6,3.8-7c0,0-2.5,4.7-2.5,7.3
				c0,0,2.2-3.6,2.9-3.3c-1.7,2.6-2.7,5.5-3,8.6C605.8,137.2,604.9,138,603.8,138z"/>
			<path class="st13" d="M572.8,147.9L572.8,147.9c-0.8,0-1.5-0.7-1.5-1.5c0,0,0-0.1,0-0.1c0.1-3.2,0-10.3-1.8-12.1
				c1.5,1.5,2.6,3.5,3,5.6c0,0,0.7-6.3,0.4-7.6c1.1,2.3,1.5,4.9,1.1,7.4c0,0,0.9-4.1,3.5-5c0,0-2.9,3.2-3.2,11.8
				c0.1,0.8-0.5,1.4-1.2,1.5C573,147.9,572.9,147.9,572.8,147.9z"/>
			<path class="st11" d="M541.1,156.9L541.1,156.9c-1.1,0-2-0.8-2-1.9c0-0.1,0-0.2,0-0.3c0.2-2.8,0.3-7.5-0.9-9.1
				c0.6,1.1,1.1,2.2,1.5,3.4c0,0,0.6-4.8-1.1-6.6c0,0,1.5,1.3,2.5,5.6c0,0,0.9-5.8,0.7-7.4c0.7,2.3,0.9,4.7,0.6,7.1
				c0,0,1.4-3.9,3.3-5.5c0,0-1.9,4.5-2,6.8c0,0,1.4-2.3,2.4-2.8c0,0-2.4,3.3-2.7,5.8c-0.1,1-0.2,2-0.2,2.8
				C543.1,155.9,542.2,156.8,541.1,156.9z"/>
			<path class="st12" d="M631.1,157.4L631.1,157.4c-1.2,0-2.2-1-2.2-2.2c0-2.7-0.4-7.4-2.1-9.7c0.9,1.3,1.6,2.6,2.2,4
				c0,0-0.4-5.6-0.6-5.8c1.1,2.4,1.9,4.9,2.4,7.5c0,0,1-9.2,0.5-10.2c0,0,1.7,4.8,0.8,9c0,0,2-6,3.8-7c0,0-2.5,4.7-2.5,7.3
				c0,0,2.2-3.6,2.9-3.3c-1.7,2.6-2.7,5.5-3,8.6C633.1,156.7,632.2,157.5,631.1,157.4z"/>
			<path class="st13" d="M696.5,109.9L696.5,109.9c-0.8,0-1.5-0.7-1.5-1.5c0,0,0-0.1,0-0.1c0.1-3.2,0-10.3-1.8-12.1
				c1.5,1.5,2.6,3.5,3,5.6c0,0,0.7-6.3,0.4-7.6c1.1,2.3,1.5,4.9,1.1,7.4c0,0,0.9-4.1,3.5-5c0,0-2.9,3.2-3.2,11.8
				c0.1,0.7-0.4,1.4-1.1,1.5C696.7,110,696.6,110,696.5,109.9z"/>
			<path class="st13" d="M826.8,117.8L826.8,117.8c-0.8,0-1.5-0.7-1.5-1.5c0,0,0-0.1,0-0.1c0.1-3.2,0-10.3-1.8-12.1
				c1.5,1.5,2.6,3.5,3,5.6c0,0,0.7-6.3,0.4-7.6c1.1,2.3,1.5,4.9,1.1,7.4c0,0,0.9-4.1,3.5-5c0,0-2.9,3.2-3.2,11.8
				c0.1,0.7-0.4,1.4-1.1,1.5C827,117.8,826.9,117.8,826.8,117.8z"/>
			<path class="st11" d="M795.3,126.3L795.3,126.3c-1.1,0-2-0.8-2-1.9c0-0.1,0-0.2,0-0.3c0.2-2.8,0.3-7.5-0.9-9.1
				c0.6,1.1,1.1,2.2,1.5,3.4c0,0,0.6-4.8-1.1-6.6c0,0,1.5,1.3,2.5,5.6c0,0,0.9-5.8,0.7-7.4c0.7,2.3,0.9,4.7,0.6,7.1
				c0,0,1.4-3.9,3.3-5.5c0,0-1.9,4.5-2,6.8c0,0,1.4-2.3,2.4-2.8c0,0-2.4,3.3-2.7,5.8c-0.1,1-0.2,2-0.2,2.8
				C797.3,125.4,796.4,126.2,795.3,126.3z"/>
			<path class="st12" d="M764.4,138L764.4,138c-1.2,0-2.2-1-2.2-2.2c0-2.7-0.4-7.4-2.1-9.7c0.9,1.3,1.6,2.6,2.2,4
				c0,0-0.4-5.6-0.6-5.8c1.1,2.4,1.9,4.9,2.4,7.5c0,0,1-9.2,0.5-10.2c0,0,1.7,4.8,0.8,9c0,0,2-6,3.8-7c0,0-2.5,4.7-2.5,7.3
				c0,0,2.2-3.6,2.9-3.3c-1.7,2.6-2.7,5.5-3,8.6C766.4,137.2,765.5,138,764.4,138z"/>
			<path class="st10" d="M733.4,147.9L733.4,147.9c-0.8,0-1.5-0.7-1.5-1.5c0,0,0-0.1,0-0.1c0.1-3.2,0-10.3-1.8-12.1
				c1.5,1.5,2.6,3.5,3,5.6c0,0,0.7-6.3,0.4-7.6c1.1,2.3,1.5,4.9,1.1,7.4c0,0,0.9-4.1,3.5-5c0,0-2.9,3.2-3.2,11.8
				c0.1,0.8-0.5,1.4-1.2,1.5C733.6,147.9,733.5,147.9,733.4,147.9z"/>
			<path class="st11" d="M701.7,156.9L701.7,156.9c-1.1,0-2-0.8-2-1.9c0-0.1,0-0.2,0-0.3c0.2-2.8,0.3-7.5-0.9-9.1
				c0.6,1.1,1.1,2.2,1.5,3.4c0,0,0.6-4.8-1.1-6.6c0,0,1.5,1.3,2.5,5.6c0,0,0.9-5.8,0.7-7.4c0.7,2.3,0.9,4.7,0.6,7.1
				c0,0,1.4-3.9,3.3-5.5c0,0-1.9,4.5-2,6.8c0,0,1.4-2.3,2.4-2.8c0,0-2.4,3.3-2.7,5.8c-0.1,1-0.2,2-0.2,2.8
				C703.7,155.9,702.8,156.8,701.7,156.9z"/>
			<path class="st10" d="M857,109.9L857,109.9c-0.8,0-1.5-0.7-1.5-1.5c0,0,0-0.1,0-0.1c0.1-3.2,0-10.3-1.8-12.1
				c1.5,1.5,2.6,3.5,3,5.6c0,0,0.7-6.3,0.4-7.6c1.1,2.3,1.5,4.9,1.1,7.4c0,0,0.9-4.1,3.5-5c0,0-2.9,3.2-3.2,11.8
				c0.1,0.7-0.4,1.4-1.1,1.5C857.3,110,857.2,110,857,109.9z"/>
			<path class="st12" d="M757.7,113.9L757.7,113.9c-1.2,0-2.2-1-2.2-2.2c0-2.7-0.4-7.4-2.1-9.7c0.9,1.3,1.6,2.6,2.2,4
				c0,0-0.4-5.6-0.6-5.8c1.1,2.4,1.9,4.9,2.4,7.5c0,0,1-9.2,0.5-10.2c0,0,1.7,4.8,0.8,9c0,0,2-6,3.8-7c0,0-2.5,4.7-2.5,7.3
				c0,0,2.2-3.6,2.9-3.3c-1.7,2.6-2.7,5.5-3,8.6C759.7,113.1,758.8,113.9,757.7,113.9z"/>
			<path class="st8" d="M771.7,158.8c1.3,1,0.8-2.2-0.8-2.6c-4.9-1.3-10-2-15.1-1.9c-2.8-0.1-5.5,0.1-8.2,0.7
				c-1.7,0.5-4.4,2.5-6,2.3c-1.3-0.2-2.5-1-3.8-1.3c-3.2-0.9-7.2,1-10-0.9c-2.5-1.7-2.5,1.5-4.8,1.5s-3.7-1.4-6-1.7
				c-7-1-21.2-0.7-27.5,2.8c-0.8,0.6-1.7,1-2.7,1c-1.2-0.1-2.3-1.3-3.5-1.1c-1,0.1-1.7,1.1-2.7,1c-1.6-0.2-1.9-3-3.6-3
				c-0.9,0-1.5,1-2.4,1.2c-1.1,0.2-2-0.8-2.9-1.5c-4.9-4.2-16.1,0-22.4-0.5c-5.3-0.4-15.6,1.8-20.3-1.3c-0.7-0.4-1.6-0.4-2.2,0
				c-0.8,0.7-1.9,0.8-2.8,0.2c-0.6-0.4-1.1-1.2-1.8-1.5c-1.6-0.7-3.1,1.2-3.8,2.8c-0.9-0.9-1.8-1.8-2.8-2.6c-0.4-0.4-1-0.9-1.7-0.4
				c-0.4,0.2-0.7,0.6-0.8,1c-1.2,3.7-5.7,1.2-8.7,2.1c-0.5,0.2-1,0.4-1.5,0.5c-0.9,0-1.7-0.2-2.4-0.7l-4.9-2.4
				c-0.8-0.5-1.7-0.7-2.6-0.6c-0.7,0.3-1.3,0.6-1.9,1.1c-0.9,0.5-2,0.5-2.9,0.2c-0.4-0.2-0.9,0-1.1,0.4c-0.6,1-2.3,1.4-3.6,1.4
				c-3.5,0.2-15.4,1-18-2.1c-0.8-0.9-2-1.3-3.2-1.1c-6.6,1.4-11.5-0.1-17.9,0.5c-4.6,0.4-9.1,1.5-13.8,1.5c-3.4,0-6.9-0.7-10.3-0.9
				c-3.8-0.3-7.7,0-11.4,0.8c-2.9,2.5-7.2,2.1-9.6-0.7c-0.1-0.1-0.2-0.3-0.3-0.4c-4.2,0.8-8.5,0.9-12.7,0.4l-2.1,2.5
				c-0.5-1.3-2.2-1.4-3.5-1.4c-3.4,0.1-9.8,1.7-11.5-1.9c1.5,3.3-14.5,0.7-15.3,0.4c-3.4-1-8.2-4.7-11.4-1.8c-1-1.3-2.4-2.3-4-2.6
				c-0.7,2.3-3.7,2.8-6.2,2.5s-5.1-1-7.1,0.2c0-1.5-2.1-1.9-3.5-1.7c-0.8,0.2-1.7,0.3-2.5,0.3c-2,0.1-5.4,0.2-7.4,0.2l-1.9,0.3
				c-3.3,0.7-6.6,1.1-10,1.1c-2.4-0.1-5-0.5-7.4,0.2c-1.2,0.5-2.4,0.9-3.6,1c-1.2,0-2.4-0.6-3.6-0.7s-2.7,0.7-2.6,1.9
				c-1.3-1.5-3.3-3.1-5.2-2.2c-0.6,0.3-1.1,0.8-1.7,1.1c-1.6,0.7-3.3-0.9-4.4-2.3c2,2.7-14.7,1.8-14.8,1.7c-7.3-0.7-14.7-1.6-22-2
				c-13.3-0.7-26.8-1.3-39.9,1.3c-11.6,2.3-23,7.7-30.8,16.5c-1.2,1.3-1.1,3.4,0.2,4.6c0.3,0.3,0.6,0.5,1,0.6
				c8.8,3.4,18.6,3.8,28.1,4.1c28.5,0.9,57.2,1.7,85.7,2.6c85.7,2.6,171.4,5.2,257.1,7.8c9.8,0.3,19.6,0.6,29.2-0.7
				c10.1-1.4,19.9-4.6,30.1-5.7c12.9-1.4,25.8,0.5,38.8,0.3c13-0.2,26.6-3.1,35.7-12.3C770.7,167.2,773.3,157,771.7,158.8z"/>
			<path class="st8" d="M582.9,219c11.6-3.2,24.1-4.1,34.9-9.3c5.4-2.5,10.2-6.2,15.7-8.3c5.2-2,10.7-2.8,16.2-3.5l24.5-3.3
				c12.8-1.7,26.7-4.1,35.1-14c0.9-0.9,1.5-2,1.8-3.2c0.6-2.9-1.9-5.8-4.9-6.6s-6-0.2-8.9,0.4c-16.8,3.4-33.9,5-51.1,4.7
				c-8.4-0.1-16.8-0.8-25.2-1.7c-6-0.6-13.4-0.9-18.6,2.3c-3.7,2.2-6,3.6-10.5,3.7c-3.1,0-7.6-1.1-9.3,2.5c-0.4,0.9-0.7,2-1.6,2.4
				c-1.2,0.5-2.8-0.9-3.9-0.2c-0.7,0.5-0.7,1.4-1.3,2c-1.1,1.1-2.9,0.1-4.6,0.2c-2,0.1-3.3,2.2-5.3,3c-1,0.4-2,0.5-3,0.5l-12.9,0.6
				c-0.6,0-1.3,0.1-1.8,0.4c-0.5,0.4-0.8,0.9-1.1,1.5c-1.8,2.8-5.8,3.2-9.1,3c-3.3-0.2-7.2-0.4-9.6,2c-3.4,3.3-8,1.9-12.5,2.6
				c-5.3,0.9-9.6,4.4-14.9,5c-3.5,0.4-5.6-0.3-8.6,2.2c-1.4,1.1-1.6,2.9-3.6,3.1c-1.8,0.2-2.9-2.4-5-1.8c-1.5,0.4-1.9,2.6-3.4,3
				c-1.1,0.3-2.2-0.4-3.2-1s-2.4-0.8-3.1,0.1c-0.3,0.4-0.3,0.9-0.6,1.3c-1.1,1.6-4.2-0.3-5.6,1.2c-0.6,0.6-0.5,1.7-1.2,2.2
				c-0.9,0.7-2.3,0-3.2,0.5c-0.5,0.3-0.8,0.9-1.3,1.4c-1.5,1.6-4.1,0.4-6.3-0.1c-3.5-0.8-5.5,1.1-8.4,2.1c-2.9,1-6.5,1.5-9.5,2.2
				c-6.4,1.5-13.6,3.3-16.8,9"/>
		</g>
	</g>
</g>
</svg>
