<?xml version="1.0" encoding="utf-8"?>
<!-- Generator: Adobe Illustrator 22.0.1, SVG Export Plug-In . SVG Version: 6.00 Build 0)  -->
<svg version="1.1" id="Layer_1" xmlns="http://www.w3.org/2000/svg" xmlns:xlink="http://www.w3.org/1999/xlink" x="0px" y="0px"
	 viewBox="0 0 970 740" style="enable-background:new 0 0 970 740;" xml:space="preserve">
<style type="text/css">
	.st0{fill:#2F593D;}
	.st1{fill:#557E41;}
	.st2{fill:#BCD38C;}
	.st3{fill:#77A275;}
	.st4{fill:#F8DA4B;}
	.st5{fill:#98C39D;}
	.st6{fill:#F4B845;}
	.st7{fill:#5F887F;}
	.st8{fill:#488A71;}
	.st9{fill:#36684D;}
	.st10{fill:#B9BC6E;}
	.st11{fill:#E2DD8A;}
	.st12{fill:#B5BE6E;}
	.st13{fill:#5A9055;}
	.st14{fill:#618257;}
	.st15{fill:#EBE261;}
	.st16{fill:#F7F0B1;}
	.st17{fill:#DDDA91;}
	.st18{fill:#98C29C;}
</style>
<g id="Layer_2_1_">
	<g>
		<g>
			<g>
				<path class="st0" d="M772.4,349.8c0,0-19.5-35-35.2-20c-18.5,17.7-22,47.6-22,47.6s15.9-37.1,30.4-34.6
					C754.6,344.2,756.7,349.5,772.4,349.8"/>
				<path class="st1" d="M767.1,413.4c0,0,11-39.9,30.4-28.7c23,13.2,33.7,42.5,33.7,42.5s-25.1-33.4-39.1-27.3
					C783.5,403.5,782.8,409.3,767.1,413.4"/>
				<path class="st1" d="M769.3,254.6c5.9,13.3,7.7,228.5,4,309c-0.2,4.9-9.9,0.6-9.9,0.6s0.4-9.2,1.4-40.8
					C768.3,418.6,769.3,254.6,769.3,254.6"/>
				<path class="st2" d="M771.5,317.5c0,0,15.6-3,25.6-11.5c9.9-8.5,25.2-8.2,25.2-8.2s-11.4-9.6-23.8-3.2
					C786.1,301,775.3,299.3,771.5,317.5"/>
				<path class="st3" d="M770.1,306.4c0,0-21.5-3.9-28.5-16.6c-7-12.8-17.1-13.2-17.1-13.2s13.6-7.2,24.6,4.4
					C757.3,289.7,773.1,298.5,770.1,306.4"/>
				<path class="st3" d="M772.7,446.6c0,0-9.5-29.7-38.1-11.9c-28.7,17.8-22.7,60.4-22.7,60.4s10.5-10.6,17.8-30.2
					C737.1,445,756.7,457.5,772.7,446.6"/>
				<path class="st4" d="M770.2,260c0,0-5.6-21.4-1.9-28.6C772,224.2,768.5,251.3,770.2,260"/>
				<path class="st4" d="M768.6,252.9c0,0-3.7-15.5-17.1-16.9s10.3,3,17.7,20.1c0,0,3.4-11,18.9-15.6c10.3-3.1-9.2-7-18.7,13"/>
				<path class="st4" d="M769.7,254.6c0,0-12.8-13.2-26.2-8.6C730.2,250.5,755.4,243.9,769.7,254.6"/>
				<path class="st4" d="M769.3,254c0,0,12.8-13.2,26.2-8.6C808.8,249.9,783.6,243.3,769.3,254"/>
				<path class="st0" d="M769.3,429c0,0,20.2-18,36.3,2.5c16,20.5,12.7,14.5,21.2,21.3c12.2,9.7,5,24.8,5,24.8s-6.9-13.4-22.4-20.3
					C798.3,452.4,775,444.3,769.3,429"/>
				<path class="st1" d="M772.7,379.4c0,0-12-22.1-32.9-9.5s-13.6,44.5-24.8,47.4c0,0,12.9,4.2,19.1-15.9
					C740.3,381.4,766.3,397.1,772.7,379.4"/>
				<path class="st5" d="M770.2,331.3c0,0,13.7-16.8,32.5,0c18.9,16.8,16.8,42.1,16.8,42.1s-8.2-19.5-24.6-27.3
					C786.4,342.1,776.9,345.6,770.2,331.3"/>
				<path class="st1" d="M770.3,485.3c0,0,32.7-11.2,37.1,12.7c4.3,23.9,10.6,43.9,30.1,49.1c0,0-12.7-16.2-9.2-32.2
					s2.5-50.9-29.8-46.9C766.1,472,770.3,485.3,770.3,485.3"/>
				<path class="st0" d="M771.5,474.7c0,0-14.2-17.9-32,0.5s-7,51.2-46.9,59.3c0,0,29.4,10.7,42.9-11
					C749.5,501,760.5,476,771.5,474.7"/>
				<path class="st4" d="M758.6,355.5c0.3-0.7,0.1-1.8-0.7-2.7c-0.7-0.8-1.6-1.2-2.3-1.1c0.1-0.7-0.2-1.5-0.8-2.2
					c-0.7-0.8-1.6-1.2-2.3-1.1c0.1-0.7-0.2-1.5-0.8-2.2s-1.3-1-2-1.1c-0.1-0.6-0.4-1.3-0.9-1.9c-0.8-0.8-1.9-1.2-2.7-0.8
					c0-0.7-0.3-1.6-1-2.3c-0.9-0.8-2-1.1-2.7-0.7c-0.1-0.6-0.5-1.2-1.2-1.7c-0.9-0.7-1.9-0.8-2.5-0.3c-0.2-0.4-0.5-0.8-0.9-1.1
					c-1.1-0.8-2.3-0.8-2.8,0l0,0c-0.2-0.2-0.4-0.3-0.7-0.4c-1.1-0.5-2.1-0.2-2.5,0.5c-0.6-0.2-1.2-0.1-1.6,0.2
					c-0.4,0.4-0.5,1-0.4,1.6l0,0c-1,0.1-1.5,1.2-1.2,2.4c0.1,0.3,0.2,0.5,0.3,0.8c-0.7,0.5-0.8,1.6-0.2,2.6c0.3,0.5,0.6,0.8,1,1.1
					c-0.6,0.5-0.6,1.6-0.1,2.6c0.4,0.7,0.9,1.2,1.5,1.4c-0.5,0.7-0.4,1.8,0.3,2.8c0.6,0.8,1.4,1.3,2.1,1.4c-0.4,0.7-0.3,1.8,0.5,2.7
					c0.5,0.6,1.1,1.1,1.8,1.2c0,0.7,0.2,1.4,0.8,2.1s1.4,1.1,2,1.1c-0.2,0.7,0.1,1.7,0.8,2.4c0.6,0.7,1.4,1.1,2,1.1
					c-0.2,0.7,0.1,1.6,0.8,2.4c0.8,0.9,1.8,1.3,2.6,1c-0.3,0.8,0,2,0.9,2.9c0.9,1,2.2,1.3,3,0.9c-0.1,0.8,0.3,1.8,1.1,2.5
					c0.9,0.9,2.1,1.2,2.9,0.8c0.2,0.8,0.8,1.7,1.6,2.2c1,0.6,2.1,0.6,2.8,0.1c0.5,0.5,1.1,0.9,1.9,1c1.2,0.2,2.3-0.4,2.5-1.3
					c0.9,0.1,1.8-0.1,2.5-0.8c0.8-0.7,1.2-1.7,1.1-2.7c1.2,0.1,2.1-0.8,2-2.2c0-0.7-0.3-1.4-0.7-2c0.6-0.6,0.7-1.6,0.3-2.7
					c-0.4-1-1.2-1.7-2-2c0.5-0.7,0.4-2-0.4-3c-0.6-0.9-1.5-1.4-2.3-1.4c0.5-0.8,0.3-2-0.5-3.1C760.6,355.9,759.5,355.4,758.6,355.5
					 M762.7,364.9C762.7,364.9,762.6,364.9,762.7,364.9C762.6,364.9,762.6,364.9,762.7,364.9C762.6,364.9,762.7,364.9,762.7,364.9"
					/>
				<path class="st6" d="M734.1,338l-0.1,0.1h0.1l0,0C734.1,338.1,734.1,338.1,734.1,338"/>
				<path class="st6" d="M762.2,372.3c-0.2,0.9-1.1,1.4-2.2,1.2c-0.6-0.1-1.2-0.4-1.7-0.9c-0.6,0.4-1.5,0.4-2.5-0.1
					c-0.8-0.5-1.3-1.3-1.5-2c-0.7,0.4-1.8,0.1-2.6-0.7c-0.7-0.7-1-1.5-1-2.2c-0.7,0.4-1.8,0-2.7-0.8c-0.8-0.8-1.1-1.8-0.8-2.6
					c-0.7,0.2-1.6-0.1-2.3-0.9c-0.6-0.7-0.8-1.5-0.7-2.2c-0.6,0-1.3-0.4-1.8-1c-0.6-0.7-0.8-1.5-0.7-2.2c-0.6,0-1.3-0.4-1.8-1
					s-0.8-1.3-0.7-1.9c-0.5-0.1-1.1-0.5-1.6-1.1c-0.6-0.8-0.8-1.8-0.4-2.4c-0.6-0.1-1.4-0.5-1.9-1.2c-0.6-0.9-0.7-1.9-0.3-2.5
					c-0.5-0.2-1-0.6-1.4-1.2c-0.5-0.9-0.4-1.8,0.1-2.3c-0.3-0.2-0.6-0.6-0.9-1c-0.5-0.9-0.4-1.9,0.2-2.3c-0.1-0.2-0.2-0.4-0.3-0.7
					c-0.3-0.9,0-1.8,0.7-2c-0.5-0.1-0.9-0.1-1.3,0.2c-0.4,0.3-0.5,0.8-0.4,1.4l0,0c-0.9,0.1-1.3,1-1,2.2c0.1,0.3,0.2,0.5,0.3,0.7
					c-0.6,0.4-0.7,1.4-0.2,2.3c0.2,0.4,0.5,0.7,0.9,1c-0.5,0.5-0.6,1.4-0.1,2.3c0.3,0.6,0.8,1,1.4,1.2c-0.4,0.6-0.4,1.6,0.3,2.5
					c0.5,0.7,1.2,1.1,1.9,1.2c-0.4,0.6-0.2,1.6,0.4,2.4c0.4,0.6,1,0.9,1.6,1.1c0,0.6,0.2,1.3,0.7,1.9s1.2,1,1.8,1
					c-0.2,0.6,0.1,1.5,0.7,2.2c0.5,0.6,1.2,1,1.8,1c-0.1,0.6,0.1,1.5,0.7,2.2c0.7,0.8,1.6,1.1,2.3,0.9c-0.3,0.7,0,1.8,0.8,2.6
					c0.8,0.9,1.9,1.2,2.7,0.8c-0.1,0.7,0.3,1.6,1,2.2c0.8,0.8,1.9,1.1,2.6,0.7c0.1,0.7,0.7,1.5,1.5,2c0.9,0.6,1.9,0.6,2.5,0.1
					c0.4,0.4,1,0.8,1.7,0.9c1.1,0.2,2-0.3,2.2-1.2c0.8,0.1,1.6-0.1,2.2-0.7c0.4-0.3,0.6-0.7,0.8-1.1
					C762.9,372.4,762.6,372.4,762.2,372.3"/>
				<path class="st7" d="M766.4,372.4c0,0-6.5-8.6-16.8-6.4s-15.9-3.4-15.9-3.4s2.5,11.7,10,11.4
					C751.3,373.7,761.7,385.2,766.4,372.4"/>
				<path class="st1" d="M764,375.8c0,0-10.6-8.2-9.4-20.2c1.2-12-2.9-16.8-2.9-16.8s5.2,1.7,7.5,8.5
					C761.5,354.3,776.3,370.8,764,375.8"/>
				<path class="st4" d="M795.4,415.7c0.7,0,1.6-0.6,2.1-1.6c0.4-0.8,0.5-1.7,0.2-2.3c0.6-0.2,1.2-0.7,1.5-1.5
					c0.4-0.8,0.5-1.7,0.2-2.3c0.6-0.2,1.2-0.7,1.6-1.5c0.4-0.7,0.4-1.4,0.3-2c0.5-0.3,1-0.8,1.3-1.5c0.4-1,0.3-2-0.2-2.5
					c0.6-0.3,1.2-0.9,1.6-1.7c0.4-1,0.2-2-0.3-2.5c0.5-0.3,0.9-0.9,1-1.6c0.3-1,0-1.9-0.6-2.2c0.3-0.3,0.5-0.7,0.6-1.2
					c0.3-1.2-0.1-2.2-0.9-2.3l0,0c0.1-0.2,0.1-0.5,0.1-0.7c0-1-0.5-1.8-1.3-1.8c0-0.6-0.3-1-0.7-1.2s-1-0.1-1.5,0.3l0,0
					c-0.4-0.8-1.5-0.8-2.4,0c-0.2,0.2-0.4,0.4-0.5,0.6c-0.6-0.3-1.6,0-2.3,0.9c-0.3,0.4-0.5,0.8-0.6,1.2c-0.6-0.3-1.5,0.1-2.2,0.9
					c-0.4,0.6-0.7,1.2-0.7,1.8c-0.7-0.1-1.6,0.4-2.2,1.3c-0.5,0.8-0.6,1.6-0.5,2.2c-0.7-0.1-1.6,0.5-2.1,1.4
					c-0.4,0.6-0.5,1.3-0.4,1.9c-0.6,0.2-1.1,0.7-1.5,1.5c-0.4,0.7-0.5,1.5-0.3,2.1c-0.7,0.1-1.4,0.7-1.8,1.5
					c-0.4,0.7-0.5,1.5-0.3,2.1c-0.7,0.1-1.3,0.7-1.8,1.5c-0.5,1-0.5,2,0,2.5c-0.8,0.1-1.6,0.8-2.1,1.8c-0.5,1.1-0.4,2.3,0.2,2.8
					c-0.7,0.2-1.4,0.9-1.8,1.8c-0.5,1.1-0.3,2.2,0.3,2.7c-0.6,0.4-1.2,1.3-1.3,2.2c-0.2,1.1,0.2,2,0.8,2.3c-0.3,0.6-0.4,1.3-0.2,1.9
					c0.2,1.1,1,1.7,1.9,1.5c0.2,0.7,0.7,1.4,1.5,1.7c0.9,0.4,1.8,0.3,2.6-0.1c0.3,1,1.4,1.4,2.5,0.8c0.6-0.3,1.1-0.8,1.4-1.3
					c0.7,0.3,1.6,0,2.4-0.8c0.7-0.7,1-1.6,1-2.3c0.8,0.1,1.8-0.4,2.4-1.5c0.5-0.9,0.7-1.8,0.4-2.4c0.8,0.1,1.8-0.5,2.4-1.6
					C795.7,417.4,795.8,416.4,795.4,415.7 M788.9,422.6C788.8,422.6,788.8,422.6,788.9,422.6C788.8,422.5,788.8,422.5,788.9,422.6
					C788.9,422.5,788.9,422.5,788.9,422.6"/>
				<path class="st6" d="M802,389.2c-0.1,0-0.1,0-0.2,0c0,0,0,0,0.1,0.1l0,0C801.9,389.2,801.9,389.2,802,389.2"/>
				<path class="st6" d="M782.5,425c-0.8,0.2-1.5-0.4-1.7-1.3c-0.1-0.6,0-1.2,0.2-1.7c-0.6-0.3-0.9-1.1-0.7-2
					c0.1-0.8,0.6-1.6,1.2-1.9c-0.5-0.4-0.7-1.4-0.3-2.4c0.3-0.8,1-1.4,1.6-1.6c-0.5-0.5-0.6-1.5-0.2-2.5c0.4-0.9,1.2-1.5,1.9-1.6
					c-0.4-0.5-0.4-1.4,0-2.2c0.4-0.7,1-1.3,1.6-1.4c-0.2-0.5-0.1-1.2,0.2-1.8c0.4-0.8,1-1.3,1.6-1.4c-0.2-0.5-0.1-1.2,0.2-1.8
					c0.3-0.6,0.8-1.1,1.3-1.3c-0.1-0.5,0.1-1.1,0.4-1.7c0.5-0.8,1.3-1.3,1.9-1.3c-0.2-0.5,0-1.3,0.4-2c0.5-0.8,1.4-1.3,2-1.1
					c0-0.5,0.2-1.1,0.6-1.6c0.6-0.7,1.4-1,1.9-0.8c0.1-0.4,0.3-0.7,0.5-1.1c0.6-0.8,1.5-1.1,2-0.8c0.1-0.2,0.3-0.4,0.5-0.5
					c0.7-0.6,1.5-0.6,1.9-0.2c-0.1-0.4-0.3-0.8-0.6-0.9c-0.4-0.2-0.9-0.1-1.3,0.2l0,0c-0.4-0.7-1.3-0.7-2.1,0
					c-0.2,0.2-0.3,0.3-0.5,0.5c-0.6-0.3-1.4,0-2,0.8c-0.3,0.3-0.4,0.7-0.5,1.1c-0.6-0.2-1.3,0.1-1.9,0.8c-0.4,0.5-0.6,1.1-0.6,1.6
					c-0.6-0.1-1.5,0.3-2,1.1c-0.4,0.7-0.6,1.4-0.4,2c-0.6-0.1-1.4,0.4-1.9,1.3c-0.3,0.6-0.5,1.2-0.4,1.7c-0.5,0.2-1,0.7-1.3,1.3
					c-0.3,0.7-0.4,1.3-0.2,1.8c-0.6,0.1-1.2,0.6-1.6,1.4c-0.3,0.7-0.4,1.3-0.2,1.8c-0.6,0.1-1.2,0.6-1.6,1.4c-0.4,0.9-0.4,1.8,0,2.2
					c-0.7,0.1-1.5,0.7-1.9,1.6c-0.5,1-0.4,2,0.2,2.5c-0.6,0.2-1.2,0.8-1.6,1.6c-0.4,1-0.3,2,0.2,2.4c-0.6,0.4-1,1.1-1.2,1.9
					c-0.2,0.9,0.1,1.7,0.7,2c-0.2,0.5-0.3,1.1-0.2,1.7c0.2,1,0.9,1.5,1.7,1.3c0.2,0.7,0.6,1.2,1.3,1.5c0.4,0.2,0.8,0.2,1.2,0.2
					C782.7,425.6,782.6,425.3,782.5,425"/>
				<path class="st8" d="M781.3,429.5c0,0-2.5-8.4,5-25c3.7-8.3-3-10-3-10s1.9,4.3-3.4,9.2C774.6,408.6,762.3,425.6,781.3,429.5"/>
				<path class="st3" d="M776.8,428.1c0,0,14.7-11.4,18.8-18.9s9.3-16.1,12.1-15.4c0,0-4.1,4.3-5,11.2
					C800.8,417.8,790,440.6,776.8,428.1"/>
				<path class="st4" d="M782.8,314.3c0.8-0.2,1.5-1,1.7-2.1c0.2-1,0.1-1.9-0.4-2.4c0.5-0.4,1-1.1,1.2-1.9c0.2-1,0.1-1.9-0.4-2.4
					c0.6-0.4,1-1.1,1.2-1.9s0.1-1.6-0.2-2.1c0.5-0.4,0.8-1.1,1-1.8c0.2-1.1-0.1-2.1-0.8-2.5c0.6-0.4,1.1-1.2,1.2-2.1
					c0.2-1.2-0.2-2.1-0.9-2.5c0.4-0.5,0.7-1.2,0.7-1.9c0-1.1-0.4-1.9-1.1-2.1c0.2-0.4,0.3-0.9,0.4-1.4c0-1.3-0.6-2.2-1.5-2.1l0,0
					c0-0.3,0-0.5,0-0.8c-0.2-1.1-1-1.7-1.7-1.5c-0.2-0.6-0.5-1-1-1.1s-1,0.2-1.5,0.6l0,0c-0.6-0.7-1.7-0.4-2.5,0.6
					c-0.2,0.2-0.3,0.5-0.4,0.7c-0.7-0.2-1.6,0.4-2.1,1.4c-0.2,0.5-0.3,0.9-0.3,1.4c-0.7-0.1-1.5,0.5-2,1.5c-0.3,0.7-0.4,1.4-0.3,2
					c-0.8,0-1.6,0.8-2,1.9c-0.3,0.9-0.3,1.8,0.1,2.4c-0.8,0.1-1.5,0.9-1.9,2c-0.2,0.8-0.2,1.5,0,2c-0.5,0.4-1,1-1.2,1.9
					s-0.1,1.7,0.2,2.2c-0.6,0.3-1.2,1.1-1.5,2c-0.2,0.9-0.1,1.7,0.2,2.2c-0.6,0.3-1.2,1.1-1.5,2c-0.3,1.1,0,2.1,0.6,2.6
					c-0.8,0.3-1.5,1.2-1.7,2.4c-0.3,1.3,0.1,2.4,0.9,2.8c-0.7,0.4-1.2,1.3-1.4,2.3c-0.2,1.3,0.2,2.4,0.9,2.7
					c-0.6,0.6-0.9,1.6-0.8,2.6c0.1,1.1,0.6,2,1.4,2.2c-0.1,0.7-0.1,1.4,0.2,2c0.5,1.1,1.5,1.5,2.3,1.1c0.4,0.7,1,1.3,1.9,1.4
					c1,0.2,2-0.1,2.7-0.7c0.5,1,1.7,1.1,2.8,0.2c0.6-0.5,1-1.1,1.1-1.7c0.8,0.1,1.7-0.4,2.3-1.4c0.5-0.9,0.7-1.9,0.4-2.7
					c0.8,0,1.7-0.9,2.1-2.1c0.3-1,0.2-2-0.2-2.6c0.9-0.1,1.7-1,2.1-2.2C783.6,316,783.4,314.9,782.8,314.3 M777.8,323L777.8,323
					C777.7,322.9,777.7,322.9,777.8,323C777.8,322.9,777.8,322.9,777.8,323"/>
				<path class="st6" d="M783.2,285.4c-0.1,0-0.1,0-0.2,0c0,0,0,0,0.1,0.1C783.1,285.5,783.1,285.5,783.2,285.4
					C783.1,285.4,783.2,285.4,783.2,285.4"/>
				<path class="st6" d="M771.8,327.1c-0.8,0.4-1.6,0-2.1-1c-0.3-0.6-0.3-1.2-0.2-1.8c-0.7-0.2-1.2-0.9-1.2-1.9
					c0-0.9,0.3-1.8,0.8-2.3c-0.7-0.3-1-1.3-0.8-2.4c0.2-0.9,0.6-1.7,1.2-2.1c-0.7-0.3-1-1.4-0.8-2.5s0.8-1.9,1.5-2.1
					c-0.5-0.4-0.8-1.3-0.5-2.3c0.2-0.9,0.7-1.5,1.3-1.8c-0.3-0.5-0.4-1.2-0.2-2c0.2-0.9,0.7-1.5,1.3-1.8c-0.3-0.5-0.4-1.2-0.2-2
					c0.2-0.7,0.6-1.3,1-1.7c-0.2-0.5-0.2-1.1,0-1.8c0.3-1,1-1.7,1.7-1.8c-0.3-0.5-0.3-1.3-0.1-2.1c0.4-1,1.1-1.6,1.8-1.7
					c-0.1-0.5-0.1-1.2,0.2-1.8c0.4-0.9,1.2-1.4,1.8-1.3c0-0.4,0.1-0.8,0.3-1.2c0.4-0.9,1.2-1.5,1.9-1.3c0.1-0.2,0.2-0.4,0.4-0.6
					c0.6-0.8,1.4-1,1.9-0.7c-0.2-0.4-0.5-0.7-0.8-0.8c-0.4-0.1-0.9,0.1-1.3,0.6l0,0c-0.5-0.6-1.5-0.4-2.2,0.5
					c-0.2,0.2-0.3,0.4-0.4,0.6c-0.6-0.2-1.4,0.3-1.9,1.3c-0.2,0.4-0.3,0.8-0.3,1.2c-0.6-0.1-1.4,0.4-1.8,1.3
					c-0.3,0.6-0.4,1.3-0.2,1.8c-0.7,0-1.4,0.7-1.8,1.7c-0.3,0.8-0.2,1.6,0.1,2.1c-0.7,0.1-1.4,0.8-1.7,1.8c-0.2,0.7-0.2,1.3,0,1.8
					c-0.5,0.3-0.9,0.9-1,1.7c-0.2,0.8-0.1,1.5,0.2,2c-0.6,0.3-1.1,0.9-1.3,1.8c-0.2,0.8-0.1,1.5,0.2,2c-0.6,0.3-1.1,0.9-1.3,1.8
					c-0.2,1,0,1.9,0.5,2.3c-0.7,0.2-1.3,1.1-1.5,2.1c-0.2,1.1,0.1,2.2,0.8,2.5c-0.6,0.4-1.1,1.1-1.2,2.1c-0.2,1.1,0.2,2.1,0.8,2.4
					c-0.5,0.5-0.8,1.4-0.8,2.3c0.1,1,0.6,1.8,1.2,1.9c-0.1,0.6-0.1,1.2,0.2,1.8c0.4,0.9,1.3,1.3,2.1,1c0.3,0.6,0.9,1.1,1.7,1.3
					c0.4,0.1,0.9,0.1,1.3-0.1C772.1,327.6,771.9,327.3,771.8,327.1"/>
				<path class="st8" d="M766.2,295.1c0,0,5.9,4.5,4,15.9s-1.4,19.1,5.1,18.9c0,0-10.1,5.7-14.7-6.3
					C756,311.6,766.2,295.1,766.2,295.1"/>
				<path class="st0" d="M758.7,437.1c0,0-11.8-35.5-1-42.3c0,0,3.3,5.3,4.1,15.8C762.2,415.5,775.6,443.1,758.7,437.1"/>
				<path class="st4" d="M760.5,417c0.5-0.7,0.4-1.9-0.2-3c-0.5-0.9-1.3-1.5-2-1.6c0.2-0.7,0-1.6-0.4-2.4c-0.5-1-1.3-1.6-2.1-1.6
					c0.2-0.7,0-1.6-0.4-2.4s-1.1-1.4-1.7-1.6c0.1-0.7-0.1-1.5-0.6-2.2c-0.7-1.1-1.7-1.6-2.5-1.4c0.2-0.8,0-1.7-0.6-2.6
					c-0.7-1-1.8-1.5-2.5-1.3c0-0.7-0.3-1.4-0.8-2c-0.8-0.9-1.8-1.2-2.4-0.8c-0.1-0.5-0.4-0.9-0.7-1.4c-0.9-1.1-2.1-1.3-2.8-0.6l0,0
					c-0.2-0.2-0.4-0.4-0.6-0.6c-1-0.7-2-0.7-2.5,0.1c-0.6-0.3-1.2-0.4-1.6-0.1c-0.5,0.3-0.7,0.9-0.7,1.6l0,0c-1-0.1-1.7,0.9-1.6,2.3
					c0,0.3,0.1,0.6,0.2,0.9c-0.7,0.4-1,1.5-0.6,2.7c0.2,0.5,0.4,1,0.8,1.3c-0.6,0.4-0.9,1.5-0.5,2.6c0.2,0.8,0.7,1.4,1.3,1.8
					c-0.6,0.6-0.7,1.8-0.2,3c0.4,1,1.1,1.6,1.8,1.9c-0.5,0.6-0.6,1.8,0,2.9c0.4,0.8,0.9,1.3,1.5,1.6c-0.1,0.7,0,1.5,0.4,2.3
					c0.5,0.8,1.1,1.4,1.8,1.6c-0.3,0.7-0.2,1.7,0.3,2.7c0.5,0.8,1.1,1.4,1.8,1.6c-0.3,0.7-0.2,1.7,0.3,2.7c0.6,1.1,1.6,1.7,2.4,1.6
					c-0.4,0.8-0.3,2.1,0.4,3.2c0.7,1.2,1.9,1.8,2.8,1.6c-0.2,0.8,0,1.9,0.6,2.9c0.8,1.2,1.9,1.7,2.7,1.5c0,0.9,0.4,1.9,1.2,2.7
					c0.9,0.9,2,1.1,2.7,0.7c0.4,0.6,1,1.1,1.7,1.4c1.2,0.5,2.3,0.1,2.7-0.9c0.8,0.3,1.8,0.2,2.6-0.3c0.9-0.6,1.5-1.5,1.6-2.5
					c1.1,0.4,2.2-0.4,2.4-1.9c0.1-0.8,0-1.6-0.4-2.2c0.7-0.5,1-1.6,0.7-2.8c-0.2-1.1-0.9-2-1.6-2.4c0.6-0.7,0.7-2,0.1-3.2
					c-0.5-1-1.3-1.8-2.1-2c0.6-0.7,0.7-2,0.1-3.3C762.3,417.7,761.3,417,760.5,417 M762.8,427.5
					C762.8,427.6,762.8,427.6,762.8,427.5C762.7,427.6,762.7,427.5,762.8,427.5L762.8,427.5"/>
				<path class="st6" d="M739.5,393.7c-0.1,0-0.1,0.1-0.1,0.1h0.1l0,0C739.5,393.8,739.5,393.7,739.5,393.7"/>
				<path class="st6" d="M761.1,435.2c-0.3,0.9-1.3,1.2-2.4,0.8c-0.6-0.3-1.1-0.7-1.5-1.3c-0.6,0.3-1.6,0.1-2.4-0.6
					c-0.7-0.7-1.1-1.6-1.1-2.4c-0.8,0.2-1.8-0.3-2.4-1.3c-0.6-0.8-0.7-1.8-0.5-2.5c-0.8,0.2-1.8-0.3-2.5-1.4c-0.6-1-0.7-2.1-0.3-2.8
					c-0.7,0.1-1.6-0.5-2.1-1.4c-0.5-0.8-0.5-1.8-0.3-2.4c-0.6-0.2-1.2-0.7-1.6-1.4c-0.5-0.8-0.6-1.8-0.3-2.4
					c-0.6-0.2-1.2-0.7-1.6-1.4c-0.4-0.7-0.5-1.5-0.4-2.1c-0.5-0.3-1-0.8-1.3-1.4c-0.5-1-0.4-2.1,0-2.6c-0.6-0.2-1.3-0.8-1.6-1.6
					c-0.4-1-0.3-2.1,0.2-2.6c-0.5-0.3-0.9-0.9-1.1-1.6c-0.3-1-0.1-2,0.5-2.3c-0.3-0.3-0.5-0.7-0.7-1.2c-0.3-1.1-0.1-2.1,0.6-2.4
					c-0.1-0.2-0.2-0.5-0.2-0.8c-0.1-1,0.3-1.8,1-2c-0.5-0.2-0.9-0.2-1.3,0c-0.4,0.3-0.6,0.8-0.6,1.4l0,0c-0.9-0.1-1.5,0.8-1.4,2
					c0,0.3,0.1,0.5,0.2,0.8c-0.6,0.3-0.9,1.3-0.6,2.4c0.1,0.5,0.4,0.9,0.7,1.2c-0.6,0.4-0.8,1.3-0.5,2.3c0.2,0.7,0.6,1.3,1.1,1.6
					c-0.5,0.5-0.6,1.6-0.2,2.6c0.4,0.8,1,1.4,1.6,1.6c-0.5,0.6-0.5,1.6,0,2.6c0.3,0.7,0.8,1.2,1.3,1.4c-0.1,0.6,0,1.4,0.4,2.1
					s1,1.3,1.6,1.4c-0.3,0.6-0.2,1.6,0.3,2.4c0.4,0.7,1,1.2,1.6,1.4c-0.3,0.6-0.2,1.5,0.3,2.4c0.5,1,1.4,1.5,2.1,1.4
					c-0.4,0.7-0.3,1.8,0.3,2.8c0.7,1.1,1.7,1.6,2.5,1.4c-0.2,0.7,0,1.7,0.5,2.5c0.7,1,1.7,1.5,2.4,1.3c0,0.8,0.4,1.7,1.1,2.4
					c0.8,0.8,1.7,1,2.4,0.6c0.3,0.5,0.9,1,1.5,1.3c1,0.4,2,0.1,2.4-0.8c0.7,0.3,1.6,0.2,2.3-0.2c0.4-0.3,0.8-0.6,1-1
					C761.7,435.3,761.4,435.3,761.1,435.2"/>
				<path class="st8" d="M733.8,413.1c0,0,8-0.7,14.9,9.7c6.9,10.5,12.3,16,17.3,11c0,0,2,9.9-15.6,6
					C736.7,436.9,733.8,413.1,733.8,413.1"/>
			</g>
			<g>
				<path class="st8" d="M728.2,575.3c0,0,8-6.3,13.5-3.8c5.4,2.5,14.6,5.7,9.9,17.7c-4.7,12,1.5,15.2-13.6,20.9
					c-15,5.7-22.7,19.5-25.2,2.9C710.2,596.3,728.2,575.3,728.2,575.3"/>
				<path class="st9" d="M665.5,577.5c-0.2,0-8.5-6.4-13.5-3.8c-5.3,2.8-14.6,5.7-9.9,17.7c4.7,12-1.5,15.2,13.6,20.9
					c15,5.7,22.7,19.5,25.2,2.9C683.5,598.5,665.5,577.5,665.5,577.5"/>
				<path class="st10" d="M724.6,571.1c-7.3-0.8-14.7-1.3-22.2-1.5c-1.8-0.6-4.1-0.6-6.1-0.2c-2.4,0.5-4.4,1.6-6.4,2.7
					c-7.7,4.2-15.7,9-18.9,15c-1.1,0.5-2.4,1-3.6,1.3c-2.5-3.4-2.4-11.1,0.2-14c0.9-1,2.4-1.8,3.8-2.6c4.7-2.5,9.4-5,14.1-7.5l0,0
					c2-1.1,4-2.1,6-3.2c2.5-1.3,5.1-2.7,8.3-2.9c4.8-0.3,9,2.2,11.8,4.7C714,565.2,720.2,569,724.6,571.1"/>
				<path class="st11" d="M712.5,600.7c-1,0.3-2.3,0.7-3.3,0.8c-0.3,0-0.6,0-0.8,0c-0.1,0-0.3,0-0.4-0.1c-1.5-0.5-2.7-1.2-3.9-2
					c-2.8-1.8-5.7-3.6-8.5-5.4c-0.9-0.5-1.7-1.1-2.8-1.4c-2.1-0.7-4.7-0.6-6.8-1.3c-0.9-0.3-1.8-0.8-2.8-1c-0.2,0-0.4-0.1-0.5-0.1
					c-0.3,0-0.6,0-0.9,0c-1,0.1-2,0.4-2.9,0.9l0,0c-0.4-0.1-0.9,0.1-1.3,0.4c0.1-1.8,1.8-3.5,4-4.6c2.6-1.3,5.9-1.9,9.1-2.3
					c2.7-0.4,5.6-0.6,8.4-0.4c0.8,0.1,1.6,0.2,2.4,0.4c5.5,1.2,9,5,9.2,8.7c0.1,2.6-1,5.5,1.6,7.4
					C712.3,600.7,712.4,600.7,712.5,600.7"/>
				<path class="st11" d="M708.3,601.5c-0.2,0-0.3,0-0.5-0.1c-1.5-0.5-2.7-1.2-3.9-2c-2.8-1.8-5.7-3.6-8.5-5.4
					c-0.9-0.5-1.7-1.1-2.8-1.4c-2.1-0.7-4.7-0.6-6.8-1.3c-0.9-0.3-1.8-0.8-2.8-1c-0.2,0-0.3-0.1-0.5-0.1c0.2,0,0.3,0,0.5,0.1
					c1,0.2,1.8,0.7,2.8,1c2.1,0.7,4.7,0.6,6.8,1.3c1.1,0.4,1.9,0.9,2.8,1.4c2.8,1.8,5.7,3.6,8.5,5.4c1.2,0.8,2.4,1.5,3.9,2
					C708,601.4,708.2,601.5,708.3,601.5"/>
				<path class="st12" d="M724.7,610.7c-0.7,2.5-4.8,4-8.6,4.5c-3.9,0.5-7.9,0.3-11.7,1c-3.9,0.8-7.2,2.5-11.1,3.2
					c-5.3,0.9-10.6-0.4-15.5-2.3c-2.2-0.9-4.4-1.9-6.4-2.9c-5.1-2.5-10.8-6-9.6-10c0.9-2.9,6.9-6.2,8.9-9.2c0.9,1.3,2.3,2.3,3.7,3.2
					c-0.2,3,1.2,6.3,4.8,8.2c1.5,0.8,3.2,1.3,4.9,1.8c5,1.3,10.7,1.7,15.9,0.8c4.6-0.9,12.1-4.9,14.8-8.1c2.2,0.1,4.7,0,6.8-0.3
					c-0.7,1.3-0.3,2.9,0.5,4.2C723.4,606.7,725.2,608.7,724.7,610.7"/>
				<path class="st13" d="M677.7,617.2c-0.5,0.2-1.1,0.4-1.7,0.5c-3,0.9-6.1,1.7-9.4,1.7c-3,0.1-5.9-0.5-8.4-1.6l0,0
					c-3.5-1.4-6.1-3.7-6.9-6.4c-0.7-2.2-0.2-4.6-1.8-6.6c-0.9-1-2.2-1.9-3.2-2.8c-2.8-2.8-2.2-6.5-1.4-9.8c0.2-0.7,0.3-1.5,0.9-2.1
					c0.5-0.5,1.1-0.9,1.9-1.1c1.6-0.6,3.8-0.6,5.7-0.4c2.8,0.3,5.5,1.1,8.3,1c1.6-0.1,3.6-0.4,5.6-1c1.3-0.4,2.5-0.8,3.6-1.3
					c-0.6,1.2-1.1,2.4-1.3,3.7c-0.3,1.7,0.1,3,0.9,4.2c-2,3.1-8,6.3-8.9,9.2c-1.3,4.1,4.4,7.5,9.6,10
					C673.3,615.3,675.5,616.3,677.7,617.2"/>
				<path class="st14" d="M737.7,613.6L737.7,613.6c-0.3,2.3-1.7,4.6-4.3,6.2c-2.3,1.5-5.2,2.4-8.1,3.3c-4.7,1.5-9.3,3-14,4.4
					c-6.1,1.9-13.8,3.8-19.3,1.2c-1.1-0.5-2-1.2-2.8-2c-1.4-1.4-2.4-3-3.6-4.5c-1.6-1.9-6-4.2-9.7-4.5c0.6-0.2,1.1-0.3,1.7-0.5
					c4.9,1.9,10.1,3.2,15.5,2.3c3.9-0.6,7.2-2.4,11.1-3.2c3.8-0.8,7.8-0.6,11.7-1c3.9-0.5,8-2,8.6-4.5c0.6-2-1.3-4-2.5-5.9
					c-0.8-1.3-1.2-3-0.5-4.2c1.6-0.2,3.1-0.6,3.9-1.3c0.8-0.6,1.3-1.3,1.9-2c0.2-0.3,0.5-0.5,0.8-0.7c0.3,1.4,0.4,3.5,0.6,4.2
					c0.5,2.8,4.5,4.6,6.8,7C737.3,609.5,738,611.5,737.7,613.6"/>
				<path class="st9" d="M689.4,626.7c-1.8,0.3-4.1,0.7-5.5,1c-1.2,0.2-2.4,0.5-3.6,0.6c-5.1,0.4-9.9-1.2-14.4-2.8
					c-1.1-0.4-2.3-0.8-3.2-1.4c-1.1-0.7-1.7-1.7-2.3-2.7c-0.7-1.2-1.4-2.3-2.2-3.5c2.5,1,5.4,1.6,8.4,1.6c3.3,0,6.4-0.8,9.4-1.7
					c3.7,0.3,8.1,2.6,9.7,4.5C687,623.7,688,625.3,689.4,626.7"/>
				<path class="st15" d="M715.6,581.7c-5.3-0.6-11.9,0.6-16.6,2.5c-2.8-0.3-5.6,0-8.4,0.4c-3.2,0.4-6.5,1-9.1,2.3
					c-2.2,1.1-3.9,2.8-4,4.6c-0.1,0.1-0.1,0.1-0.2,0.2c-1.6,1.8-2.7,3.9-3,6c0,0.2,0,0.3-0.1,0.5c-1.4-0.9-2.8-1.9-3.7-3.2
					c-0.8-1.1-1.3-2.5-0.9-4.2c0.2-1.3,0.7-2.5,1.3-3.7c3.3-6,11.2-10.8,18.9-15c1.9-1.1,4-2.2,6.4-2.7c2-0.4,4.3-0.4,6.1,0.2
					c0.4,0.1,0.8,0.3,1.1,0.5c1.8,1.1,2.1,2.9,3.1,4.5C708.2,577,712.1,579.8,715.6,581.7"/>
				<path class="st13" d="M740.6,596.6c-1.2,1.5-3.1,2.6-4.7,3.9l0,0c-0.4,0.3-0.7,0.6-1,0.9c-0.8,0.8-1.4,1.8-2.4,2.5
					c-1,0.8-2.8,1.3-4.9,1.6c-2.7,0.4-5.9,0.4-8.6,0.3c-1.1,0-2-0.1-2.9-0.1c-0.2,0-0.3,0-0.5,0c-3.2-2.5-1.9-6.1-2-9.4
					c-0.2-4.7-4.7-9.5-11.6-11c-1-0.2-2-0.4-3-0.5c5.9-2.4,14.2-3.9,21-3.2c1.9,0.2,3.7,0.6,5.3,1.2c2.7,1.1,5.2,2.5,8.3,2.7
					c1,0.1,2,0,3,0.2c1.3,0.2,2.3,0.9,3.1,1.5C742.6,590,743,593.8,740.6,596.6"/>
				<path class="st16" d="M677.4,591.7L677.4,591.7c0.5-1.1,2.2-1.8,4-1.6l1.2,0.2c0.2,0,0.3,0,0.5,0.1c1,0.2,1.8,0.7,2.8,1
					c2.1,0.7,4.7,0.6,6.8,1.3c1.1,0.4,1.9,0.9,2.8,1.4c2.8,1.8,5.7,3.6,8.5,5.4c1.2,0.8,2.4,1.5,3.9,2c0.1,0,0.3,0.1,0.4,0.1
					c0.3,0,0.5,0,0.8,0c1-0.1,2.3-0.4,3.4-0.8c0.7,0,1.5,0.1,2.3,0.1c-2.7,3.2-10.2,7.2-14.8,8.1c-5.2,1-10.9,0.5-15.9-0.8
					c-1.8-0.4-3.5-1-4.9-1.8c-3.6-1.9-5.1-5.2-4.8-8.2c0-0.2,0-0.3,0.1-0.5C674.7,595.6,675.7,593.5,677.4,591.7L677.4,591.7z"/>
				<path class="st2" d="M678.1,561.5c0,0,4-9.9,9.9-9.9c5.8,0,12.1,1.3,16.5-2.3c4.5-3.5,12.3,2,10.8,12.1
					C713.8,571.6,675.3,573.9,678.1,561.5"/>
				<path class="st17" d="M680,575.1c0,0,0.4-17.1,15.4-14.3c10.5,2,12.8-3.8,19-3.5s13.1,9,9.8,19.7s-11.4,24.3-24.3,20.5
					C687,593.6,677.5,582.7,680,575.1"/>
				<path class="st3" d="M707.4,600.5c0,0,9.4,1.8,18.2-7.4c8.9-9.3,6.7-16.9,4-25.7c-1.7-5.6-5.1-9.1-9.7-9.1
					c-4.6,0-6.6,9.4-10.4,9.4c-3.8,0-11.8-1.7-10.1,9.3C701.1,588,698.3,599.2,707.4,600.5"/>
				<path class="st18" d="M672.2,598.2c0,0-9,0.1-12.1-8.7c-4-11.2,3.5-18.3,3.8-26s13-11,16.5-5.5s8.8-0.4,10.7,8.4
					c1,4.4,8,3.2,5.8,13.5C694.7,590.1,672.2,598.2,672.2,598.2"/>
				<path class="st2" d="M691.7,612.6c0,0-20.1,2-24.7-14.8c-4.6-16.8,7-11.6,8.3-17.7c1.2-6.1,8.9-8.3,13.2-5.2s7-1.5,13.2,0.3
					c6.1,1.8,4.3,12.9,8.6,12.9s7-0.3,6.1,8.6C715.3,605.4,706.6,610.3,691.7,612.6"/>
			</g>
		</g>
	</g>
</g>
</svg>
