<?xml version="1.0" encoding="utf-8"?>
<!-- Generator: Adobe Illustrator 22.0.1, SVG Export Plug-In . SVG Version: 6.00 Build 0)  -->
<svg version="1.1" id="Layer_1" xmlns="http://www.w3.org/2000/svg" xmlns:xlink="http://www.w3.org/1999/xlink" x="0px" y="0px"
	 viewBox="0 0 970 740" style="enable-background:new 0 0 970 740;" xml:space="preserve">
<style type="text/css">
	.st0{fill:#775A41;}
	.st1{fill:#EBC081;}
	.st2{fill:#A16C44;}
	.st3{fill:#F9DA4A;}
	.st4{fill:#C7D17B;}
	.st5{fill:#92C2B4;}
	.st6{fill:#64A2A1;}
	.st7{fill:#658369;}
	.st8{fill:#3F6F71;}
	.st9{fill:#FFFFFF;}
</style>
<g id="Layer_4">
	<g>
		<g>
			<g>
				<g>
					<path class="st0" d="M685.9,314.9c0,0,14.1,3.5,29.3,0v23.4v177l-5.4,165.9c0,0-24.9,3.4-33.7-6.3s-2-81,0-101.5
						s4.1-87,6.9-118.4C685.9,423.6,685.9,314.9,685.9,314.9z"/>
					<path class="st1" d="M685.9,314.9c0,0,1.7-4.5,15.4-4.4s13.9,4.8,13.9,4.8s-17.8,6-29.3,0L685.9,314.9L685.9,314.9z"/>
					<path class="st1" d="M385.7,317.3c0,0,1.1-7,17.6-4.4s18.8-1.2,18.8,6S390.8,326.1,385.7,317.3z"/>
					<path class="st0" d="M385.7,335.3v-18c0,0,14.4,9.6,36.3,1.6c0,0-0.5,307.3-1.2,335.1c0,0-30.1,10.2-39.5-7.3
						s6.6-21.6,3.7-184.1L385.7,335.3z"/>
					<path class="st2" d="M295.7,334.8c0,0,476.1,2.4,490.7,5.4c0,0-2,142.4-3.9,142.4s-483.4-13.7-483.4-13.7L295.7,334.8z"/>
					<path class="st0" d="M731.8,529.8c0,0-15.4,19-21.8,28.7c-1.1,1.6-3.5,1.3-4.1-0.5c-1.6-4.8-3.3-12.9-0.3-20.1l15.9-21.9
						C721.5,515.9,724.1,527.2,731.8,529.8z"/>
					<path class="st1" d="M721.5,515.9c0,0,7.8,4.5,10.3,13.9C731.8,529.8,723.2,529.6,721.5,515.9z"/>
					<path class="st1" d="M295.7,334.8c0,0,2.6-2.3,8.8-3.7c0,0,450.8,2.9,484.9,3.7c1.1,0,2,1,2,2.1c-0.5,16.4-3.8,128.1-4.9,141
						l-3.9,4.8l3.9-142.4L295.7,334.8z"/>
					<g>
						<path class="st3" d="M352.6,430c-1.2,0.7-2.3,1-3.5,0.9c-1.4-0.1-2.5-0.5-3.3-1.3s-1.2-1.8-1.2-3c0-2.4,0.2-5.6,0.7-9.6
							c0.5-3.9,1.1-7.6,1.8-11c-1,0.5-2.3,0.7-4,0.7c-3.2-0.1-5.9-1.2-8-3.2s-3.2-4.5-3.2-7.5c0-2.7,1-5,2.9-6.9s4.5-2.9,7.6-2.8
							s5.7,0.8,7.7,2.2c2,1.4,3.5,3.8,4.3,7.1c1.8-2.8,4-5,6.7-6.7c2.7-1.6,6-2.4,10-2.3c4.2,0.1,7.3,1.6,9.4,4.5s3.7,7.1,4.7,12.5
							c0.9,5.1,1.3,13.1,1.3,24c0,1.7-0.6,2.9-1.7,3.5s-2.3,0.9-3.6,0.9c-0.9,0-1.9-0.5-3-1.3s-1.6-1.9-1.6-3.4c0-1.4,0-2.6,0.1-3.6
							c0.1-3.1,0.2-6,0.2-8.7c0-3.5-0.1-6.6-0.4-9.3c-0.3-2.9-0.9-5.4-2-7.6c-1.1-2.1-2.8-3.3-5.1-3.3c-4-0.1-7.8,2.6-11.4,8
							c-2.4,3.5-3.7,11.6-3.7,24.4C354.3,428.4,353.7,429.4,352.6,430z M346,399.7c0.9-0.8,1.3-1.5,1.3-2.4c0-1.7-0.3-3-1-3.9
							s-2.1-1.4-4.1-1.4c-1.3,0-2.3,0.4-3,1.4c-0.8,1-1.1,2-1.1,3.1c0,1.2,0.5,2.1,1.5,3c1,0.8,2.2,1.3,3.8,1.3
							C344.2,400.8,345.1,400.5,346,399.7z"/>
						<path class="st3" d="M403.3,405.9c-1.7-0.3-3.1-0.4-4.4-0.5c-0.7,0-1.3-0.3-1.8-0.9s-0.7-1.3-0.7-2.1c0-2,0.9-4.1,2.6-6.1
							s3.8-3.7,6.2-5.2c2.4-1.4,4.7-2.4,6.8-2.9c1.7-0.4,3-0.7,4.2-0.9c1.1-0.2,2.6-0.2,4.5-0.2c3.8,0.1,7.2,0.9,10.1,2.5
							s5.1,3.8,6.7,6.7c2.1,3.9,3.5,8.9,4.1,15c0.5,3.9,0.7,17,0.7,39.5c0,3.8-1.7,5.7-5.1,5.5c-1.7-0.1-3-0.5-3.8-1.4
							c-0.8-0.8-1.2-2.3-1.2-4.3c0-4.4,0-7.9,0.1-10.3l0.1-12.2c0-6.5-0.2-11.9-0.5-16.2c-0.3-4.4-1-7.5-1.9-9.3
							c-1-2.1-2.4-3.8-4.1-5c-1.8-1.2-3.8-1.9-6.3-2c-3-0.1-5.7,0.4-8,1.6c-2.3,1.1-3.9,2.6-4.9,4.6c5,0.7,8.7,1.9,11.2,3.7
							c0.7,0.5,1.1,1,1.2,1.4c0.2,0.5,0.2,0.9,0.2,1.2c0,0.3,0,0.6,0,0.7c0,1.3-0.9,2-2.8,1.9c-2.6-0.1-4.7,0.5-6.3,1.6
							c-0.5,0.3-0.9,0.8-1.4,1.3c-0.5,0.6-0.7,1-0.7,1.3c2.4,0.1,4.6,1,6.4,2.7s2.7,3.8,2.7,6.4c0,1.2-0.2,2.3-0.5,3.4
							s-0.7,1.8-1.2,2.3c-0.9,1.1-1.9,1.9-3.3,2.5c-1.3,0.6-2.6,0.8-3.8,0.8c-3.4-0.1-6.2-1.3-8.3-3.3c-2.1-2.1-3.1-4.8-3.1-8.4
							s1-6.6,2.9-9.1s4.6-4.2,7.9-5.2C406.4,406.6,404.9,406.2,403.3,405.9z M404.9,421.2c-0.7,0.6-1,1.6-1,2.7s0.3,1.9,0.9,2.6
							s1.5,1.1,2.6,1.1c1.3,0,2.2-0.2,2.9-0.8c0.7-0.6,1-1.5,1-2.6s-0.3-2.1-1-2.8c-0.7-0.7-1.7-1.1-3-1.2
							C406.4,420.2,405.6,420.5,404.9,421.2z"/>
						<path class="st3" d="M501,433.5c-1.7,2.2-4.1,3.3-7.2,3.1c-1.3-0.1-3.2-0.3-5.6-0.6c-2.9-0.5-5.7-0.9-8.3-1
							c-0.8,0-2.2,0-4.2,0c-2.4,0-4.5,0-6.3-0.1c-1.5-0.1-2.9-0.7-4.1-2s-1.8-2.5-1.8-3.6l0.2-8c0.1-2.3,0.3-6.2,0.4-11.5
							c-0.3,0.1-1,0.3-2.1,0.6c-1.1,0.2-2.1,0.3-3.2,0.3c-2.7-0.1-4.9-1.3-6.7-3.6c-1.8-2.3-2.6-5-2.6-8c0-2.1,0.6-4,1.8-5.7
							c1.2-1.7,2.7-3,4.7-3.9c1.9-0.9,3.9-1.4,6-1.3c3.8,0.1,6.6,1.3,8.5,3.6c1.9,2.3,2.8,5.4,2.8,9.3c0,4.2-0.1,8.6-0.3,13.4
							l-0.2,10.3c0,0.7,0.1,1.2,0.3,1.6c0.2,0.4,0.5,0.6,0.8,0.6h2.9c3.7,0.2,6.9,0.5,9.6,0.9c2.4,0.2,3.9,0.4,4.5,0.4
							c1.6,0.1,2.6-0.5,3-1.7s0.6-3.4,0.6-6.6c0-1.7,0.1-3.9,0.2-6.8h-1.5c-4.6-0.1-8.1-1.4-10.3-3.7c-2.2-2.3-3.4-5.1-3.4-8.5
							c0-2,0.5-3.9,1.6-5.7c1.1-1.8,2.5-3.2,4.4-4.3c1.9-1.1,4-1.6,6.4-1.6c3.4,0.1,6,1.1,7.8,3s3,5.4,3.6,10.4
							c2.4-1.2,4.3-1.8,5.6-1.7c0.7,0,1.4,0.4,2,1.1s0.9,1.6,0.9,2.7c0,1-0.7,2.3-2.1,3.7c-1.4,1.4-3.5,2.5-6.2,3.3
							c-0.1,5.7-0.2,9.8-0.2,12.4C503.5,428.2,502.7,431.2,501,433.5z M457.2,396.3c-0.8,1-1.1,2.1-1.1,3.2c0,1.4,0.4,2.6,1.3,3.7
							s1.9,1.7,3.3,1.7c1.1,0,2.3-0.3,3.4-1.1c1.2-0.8,1.7-1.8,1.7-2.9c0-1.9-0.4-3.4-1.3-4.4s-2.1-1.6-3.6-1.6
							C459.2,394.7,458,395.2,457.2,396.3z M491.2,396c-1.3,0-2.4,0.4-3.2,1.4c-0.8,0.9-1.2,2.1-1.2,3.4c0,1.4,0.5,2.5,1.4,3.5
							c1,1,2.1,1.5,3.4,1.5c0.9,0,1.9,0,3.1-0.1c0-1.5,0-2.8-0.1-4.2c-0.1-1.3-0.2-2.3-0.5-2.9C493.5,396.9,492.5,396,491.2,396z"/>
						<path class="st3" d="M541.6,446c2.1,1.2,4.4,2.8,6.7,4.7c1.3,1.1,2.4,1.8,3.2,2.3s1.5,0.8,2,0.8c0.8,0,1.4-1.3,1.9-4.1
							c0.7-3.6,1-8.9,1-15.8v-5.6c0-11.2-0.9-18.7-2.6-22.5c-1-2.2-2.4-4-4.1-5.3c-1.8-1.3-3.8-2-6.3-2.1c-1.5,0-3.1,0.1-4.6,0.5
							c-1.6,0.4-3.1,1.3-4.7,2.6c-0.7,0.5-1.5,1.3-2.2,2.2c-0.8,0.9-1.2,1.7-1.3,2.5c4,1,7,2.4,9.2,4.1c0.9,0.7,1.4,1.3,1.6,1.6
							c0.2,0.4,0.3,0.9,0.3,1.7c0,0.6-0.2,1.1-0.6,1.5c-0.4,0.4-0.9,0.7-1.5,1.1c-0.6,0.3-1,0.6-1.2,0.7c-1.1,0.7-1.8,1.7-2.2,3.2
							c-0.4,1.4-0.6,2.9-0.7,4.5c-0.1,1.5-0.2,2.6-0.2,3.2c-0.7,7-4.3,10.3-10.9,10c-2.4-0.1-4.5-0.9-6.5-2.5s-2.9-3.9-2.9-6.9
							s0.9-5.4,2.7-7.2c1.8-1.8,4.2-2.6,7.1-2.5c0.6,0,1.1,0.1,1.6,0.2s0.8,0.1,0.9,0.1c0.3-1.3,0.9-2.4,1.7-3.4
							c0.8-0.9,1.8-1.6,3.1-2c-1.3-0.7-3.1-1.4-5.6-2.1c-1.6-0.5-2.7-0.9-3.4-1.2c-0.7-0.4-1.2-0.9-1.7-1.7
							c-0.5-0.8-0.7-1.4-0.7-1.9c0-0.4,0.2-1.2,0.5-2.2c0.4-1.1,0.7-2,1.1-2.8c0.9-1.8,2.2-3.5,3.9-5.1s3.6-2.9,5.4-4
							c1.8-1.1,3.3-1.8,4.4-2c1.7-0.5,3-0.8,4.2-1c1.1-0.2,2.6-0.3,4.5-0.2c7.8,0.2,13.4,3.4,16.8,9.7c1.9,3.8,3.2,8,3.8,12.6
							c0.6,4.7,0.9,10.3,1,16.8c0,11.2-0.4,19.5-1.1,25.2c-0.5,3.1-1.3,5.3-2.5,6.7c-1.2,1.3-2.8,1.9-4.9,1.8
							c-2-0.1-3.8-0.5-5.2-1.1s-2.7-1.3-3.8-2.1c-1.1-0.8-1.9-1.3-2.5-1.7c-0.5,0.3-1.2,0.9-2.1,1.6c-0.9,0.7-1.8,1.3-2.7,1.7
							c-1.9,0.8-4.3,1-7.2,0.9c-2.8-0.1-5.1-1.1-6.8-2.7c-1.7-1.7-2.6-3.6-2.6-5.8c0-3.4,0.9-5.7,2.8-6.7c1.4-0.9,2.6-1.5,3.6-1.8
							c1-0.4,2.3-0.5,3.9-0.5C537.3,444.1,539.5,444.8,541.6,446z M526.9,431.8c0.8-0.8,1.1-1.7,1.1-2.9c0-3-1.2-4.5-3.7-4.6
							c-1.1,0-2.1,0.3-2.8,1.1c-0.8,0.8-1.1,1.7-1.1,2.7c0,1.3,0.3,2.3,1,3.2c0.7,0.9,1.6,1.4,2.6,1.4
							C525.2,433,526.2,432.6,526.9,431.8z M541,453.3c-1.4-1.1-2.6-1.8-3.6-2.3s-2-0.8-3.2-0.8c-0.9,0-1.7,0.2-2.4,0.7
							s-1,1.2-1,2.1c0,0.8,0.3,1.5,0.9,1.9c0.6,0.4,1.4,0.7,2.3,0.7C536.7,455.6,539,454.9,541,453.3z"/>
						<path class="st3" d="M564.4,372.4l-0.2,7.4c0,1-0.3,1.9-0.8,2.7c-0.6,0.8-1.3,1.2-2.2,1.2c-1.3,0-3.5-0.4-6.6-1.2
							c-5.9-1.2-10.3-1.9-13.3-1.9c-3.2,0-5.9,0-8.3,0.2c-2.4,0.2-3.8,0.3-4.4,0.4c-0.7,0.1-1.4,0.1-2,0.2s-1.1,0.1-1.5,0.1
							c-1.8,0-2.7-1.5-2.7-4.4c0-1.1,0.8-2.7,2.4-5c1.6-2.3,3.9-4.3,7-6.1c3-1.8,6.6-2.7,10.7-2.7c3.2,0,6,0.8,8.5,2.4
							s4.6,3.7,6.3,6.3c0-0.6-0.1-1.9-0.4-4.1l-0.2-2.2c0-1.4,0.4-2.4,1.1-3c0.8-0.7,1.7-1,2.7-1c2.6,0,3.9,1.4,3.9,4.2V372.4z
							 M553.7,376.7c-1.8-2.5-3.6-4.3-5.3-5.3s-3.7-1.6-6.2-1.6c-2.2,0-4.2,0.5-6,1.6s-3.3,2.3-4.3,3.8c3.3-0.4,6.4-0.7,9.2-0.6
							C542.9,374.5,547.1,375.3,553.7,376.7z"/>
						<path class="st3" d="M602.5,356.1c1.2,2.3,1.8,4.5,1.8,6.6c0,3.5-0.6,6.4-1.7,8.8c-1.1,2.3-2.7,4.8-4.7,7.3
							c-1.1,1.4-1.9,2.5-2.4,3.4c-0.6,0.9-0.9,1.9-1,2.8c-0.3,2-0.6,3.8-0.7,5.3c-0.1,1.5-0.2,3.3-0.3,5.4c-0.1,1.7,0,4.8,0,9.1
							c0.1,4.3,0.2,8.4,0.4,12.3c0-0.1,0.5-0.3,1.4-0.6c1-0.3,2.1-0.4,3.3-0.4c2.7,0.1,5,1.4,7,3.9c1.9,2.5,2.9,5.4,2.9,8.5
							c0,2.3-0.6,4.4-1.8,6.2c-1.2,1.8-2.7,3.2-4.7,4.2c-1.9,1-3.9,1.4-6,1.3c-3.4-0.1-6.1-1.5-8.3-4.1c-2.1-2.6-3.2-5.9-3.2-9.9
							c0-3.4-0.1-7.3-0.3-11.7c-0.1-1.7-0.1-3.8-0.2-6.1c-0.1-2.3-0.1-4.8-0.1-7.5l0.1-3.6l0.3-5.2c0.1-3.1,0.3-5.5,0.6-7.3
							c0.3-1.7,0.9-3.2,1.7-4.6s2-3.2,3.6-5.3c1.8-2.4,3.1-4.4,4-6s1.3-3.4,1.3-5.3c0-2.6-0.8-4.7-2.4-6.2c-1.6-1.5-3.3-2.2-5.3-2.2
							c-2.6,0-4.9,0.7-6.6,2.1c-1.8,1.4-2.7,3.1-2.7,5c0,1.5,0.2,2.6,0.5,3.2s0.7,1,1,1.2s0.6,0.4,0.7,0.4c0.5,0.4,0.8,0.9,1,1.4
							s0.3,1.1,0.3,1.8c0,0.9-0.4,1.8-1.1,2.6c-0.8,0.8-1.8,1.2-3,1.2c-0.9,0-1.9-0.5-3.2-1.4s-2.4-2.3-3.4-4.1
							c-1-1.8-1.4-4-1.4-6.5c0-1.9,0.9-4.3,2.6-7.1c1.7-2.8,3.5-4.7,5.2-5.8c3.2-1.9,6.8-2.8,10.9-2.8c2.4,0,4.6,0.5,6.6,1.6
							s3.5,2,4.3,2.9C600.3,352.2,601.3,353.8,602.5,356.1z M600,432.3c1-0.9,1.5-2,1.5-3.4c0-1.2-0.4-2.4-1.1-3.6
							c-0.8-1.3-1.7-1.9-2.8-1.9c-1.7-0.1-3.1,0.3-4.1,1.2c-1,0.9-1.5,2.1-1.5,3.8c0,1.8,0.5,3.1,1.5,3.9s2,1.2,3.2,1.3
							C597.9,433.5,599,433.1,600,432.3z"/>
						<path class="st3" d="M668,431.5c0.9,3,1.4,5.6,1.4,7.7c0,1.2-0.5,2.2-1.5,3.1s-2.2,1.3-3.4,1.2c-1.7-0.1-3-0.5-3.9-1.4
							s-1.4-1.9-1.6-3.1c-0.5-3.8-1-6.6-1.5-8.5c-0.5-1.8-1.4-3.7-2.8-5.6c-1.6,2.4-3.1,4.3-4.4,5.8c-1.4,1.5-3.1,3.2-5.2,5.1
							c-3.1,2.7-5.4,4.4-6.9,5.3c-1.5,0.8-3.4,1.2-5.6,1.1c-2.2-0.1-3.8-0.8-4.9-2.1c-1.1-1.3-1.6-2.6-1.6-3.9
							c0-1.5,0.1-3.4,0.3-5.8c0.5-6.3,0.7-11.3,0.6-15c-0.1,0.1-0.5,0.3-1.2,0.6c-0.7,0.3-1.9,0.4-3.7,0.4c-1.9-0.1-3.6-0.7-5.2-2
							c-1.6-1.3-2.8-2.9-3.8-4.8c-0.9-1.9-1.4-3.8-1.4-5.7c0-4.1,1.2-7.1,3.5-9.1s5.5-2.9,9.5-2.8c3.5,0.1,6.2,1.4,8.2,4
							c1.9,2.6,3,5.9,3,9.9c0.1,1.5,0.1,3.7,0.1,6.5c0,6.6-0.3,13.3-0.8,20c2.9-1.9,5.3-3.8,7.2-5.8s4.1-4.7,6.6-8.2
							c-2.4-2.1-4.3-4.5-5.6-7.2s-1.9-5.3-1.9-7.7c0-2.1,0.6-4,1.9-5.8c1.3-1.8,2.8-3.3,4.8-4.3c1.9-1.1,3.8-1.6,5.6-1.6
							c1.5,0,3.1,0.4,5,1.1c1.8,0.7,3.1,1.4,3.9,2.1c2.6,2.4,3.9,5.5,3.9,9c0,2.8-0.5,5.3-1.4,7.5c-1,2.2-2.3,4-4.1,5.5
							c0.7,0.8,1.5,1.9,2.3,3.1c0.8,1.3,1.4,2.4,1.8,3.4C666.1,425.8,667.1,428.5,668,431.5z M626.6,408.6c1-0.7,1.4-2.2,1.4-4.3
							c0-1.8-0.5-3.2-1.6-4.1s-2.1-1.3-3.2-1.3c-1.4,0-2.6,0.4-3.7,1.3c-1.1,0.9-1.6,2.1-1.6,3.6c0,1.4,0.4,2.7,1.2,3.9
							c0.8,1.2,1.8,1.9,3,1.9C624.2,409.7,625.7,409.3,626.6,408.6z M650.5,408.2c1,1.1,2.4,2.3,4.2,3.6c2.8-2.9,4.2-5.6,4.2-8
							c0-1.2-0.5-2.3-1.5-3.3s-2-1.5-3-1.5c-1.7,0-3.1,0.4-4,1.2c-1,0.9-1.4,2.2-1.4,4C649,405.8,649.5,407.1,650.5,408.2z"/>
						<path class="st3" d="M726.1,394.8c0.8,0.9,1.2,2,1.2,3.2c0,2.7-0.1,7.2-0.4,13.7c-0.3,10.1-0.5,17.3-0.5,21.7
							c0,3.8-0.9,6.9-2.7,9.2c-1.8,2.3-4.4,3.4-7.9,3.2c-2.2-0.1-4-0.7-5.4-1.7s-3.1-2.7-5.2-5c-1.3-1.6-2.6-3.1-4.2-4.5
							c-0.5,3.2-2,5.7-4.3,7.5s-4.9,2.7-7.7,2.6c-3.2-0.1-5.9-1.3-8-3.5s-3.1-4.9-3.1-8.1c0-3.9,1.2-7,3.5-9.2s5.3-3.3,8.9-3.2
							c1.2,0,2.6,0.3,4.4,0.9c0.1-0.7,0.1-1.8,0-3.2c-0.1-1.5-0.3-2.6-0.6-3.3c-2.1,0.9-3.7,1.4-4.7,1.3c-3.6-0.1-6.5-1.3-8.5-3.6
							c-2-2.3-3.1-5.6-3.1-9.8c0-3.4,1.2-6,3.5-7.8s4.9-2.7,7.6-2.7c2.8,0.1,4.9,0.5,6.2,1.3c1.4,0.8,2.8,2.3,4.3,4.4
							c0.8,1.3,1.6,3.4,2.4,6.4c0.8,3,1.2,5.7,1.2,8.1l0.1,5.9c0,2.7-0.1,4.6-0.3,5.9c0.8,0.8,2.4,2.6,4.8,5.4
							c1.5,2,2.8,3.4,3.8,4.3s2,1.4,3.1,1.4c0.9,0,1.6-0.8,2.1-2.6c0.6-1.7,0.8-3.9,0.8-6.6c0-6.9-0.1-14.1-0.4-21.4l-0.1-5
							c0-2.8,0.4-4.7,1.3-5.6c0.9-0.9,2.3-1.3,4.5-1.3C724.2,393.4,725.3,393.9,726.1,394.8z M685.6,401.2c-0.8,1-1.1,2-1.1,3.1
							c0,1.6,0.4,2.9,1.3,4c0.9,1.1,1.9,1.6,3.1,1.7c3.1,0.1,4.7-1.6,4.7-5s-1.6-5.1-4.7-5.2C687.4,399.8,686.4,400.2,685.6,401.2z
							 M693.1,435.1c1-1.6,1.5-3.6,1.5-5.9c-0.3-0.2-0.8-0.4-1.7-0.8s-1.8-0.6-2.7-0.6c-1.3,0-2.5,0.4-3.7,1.2
							c-1.2,0.9-1.8,1.9-1.8,3.2c0,1.6,0.4,2.8,1.1,3.7c0.8,0.9,1.8,1.4,3.1,1.4C690.7,437.5,692.1,436.7,693.1,435.1z"/>
						<path class="st3" d="M718,385.3c-0.8-0.7-1.2-1.8-1.3-3.3c-0.1-2.2-0.2-4.8-0.3-7.8s-0.1-5.3-0.1-6.9c-0.1-0.9,0.3-1.9,1-2.9
							s1.7-1.5,2.8-1.5c3.7,0,5.6,1.5,5.6,4.4c0,2.1-0.1,4.6-0.2,7.7c-0.1,3.1-0.2,5.4-0.3,7.1c-0.1,1.4-0.5,2.4-1.2,3.2
							c-0.7,0.8-1.6,1.1-2.9,1.1C719.8,386.4,718.7,386,718,385.3z"/>
					</g>
				</g>
				<g>
					<path class="st4" d="M587.1,607.2c0.8,17.6,4.4,36.1,15.9,49.4c0.3,0.4,0.7,0.8,1,1.1l0,0c8.2,8.9,19.2,14.7,29.1,21.8l0,0
						c0.2,0.1,0.3,0.2,0.5,0.3c10.4,7.6,20.2,18.1,21,30.9c-0.2,0.3,0.5,1,1.5,1.8l0,0c1.6,1.3,3.8,2.6,4.2,2.2
						c0.6-0.6,0.5-1.6,0.3-2.4c0-0.1,0-0.1,0-0.1c-1.3-5.1-3.8-10-4-15.2c-0.2-3.8,0.9-7.6,1.5-11.5c0.3-1.7,0.5-3.5,0.5-5.2
						c-0.1-7.2-4.3-13.9-9.7-18.7c-1.3-1.2-2.7-2.2-4.1-3.2l0,0c-4.5-3.1-9.5-5.6-14.4-8.2c-1.1-0.6-2.2-1.1-3.3-1.7
						C609.4,639.2,591.5,626.6,587.1,607.2z"/>
					<path class="st5" d="M656.7,697.2c0.2,5.2,2.7,10.1,4,15.2v0.1c2.7-5.3,6.7-11.7,9.6-16.6c2.8-4.9,7.5-9.2,13-9.9
						c11.8,4.6,23,10.8,33.2,18.3c1.8,1.3,3.9,2.7,6,2c2-0.7,2.9-3,2.7-5.1c-0.3-2-1.4-3.8-2.5-5.6c-5.4-8.2-11.4-16.9-20.5-20.4
						c-0.3-0.1-0.7-0.2-1-0.3c-7.2-2.4-15.2-1.3-22.7-0.1c-3.2,0.5-6.3,1-9.3,2l0,0c-1.4,0.5-2.8,1.1-4.1,1.8
						c-1,0.6-1.9,1.3-2.8,2.1c-1.3,1.2-2.8,3-4,4.9C657.6,689.6,656.5,693.4,656.7,697.2z"/>
					<path class="st6" d="M627.2,648.7c1.1,0.6,2.2,1.2,3.3,1.7c4.9,2.5,9.9,5,14.4,8.2l0,0c1.4,1,2.8,2.1,4.1,3.2
						c5.4,4.8,9.6,11.5,9.7,18.7c0,1.8-0.2,3.5-0.5,5.2c1.2-1.9,2.8-3.7,4-4.9c-1.6-7.9,2.1-16,4.2-24c0.3-1.2,0.6-2.3,0.8-3.5
						c0,0,0,0,0-0.1c2.3-12.4,0.6-25.5-4.9-36.8c-1.9-3.8-4.1-7.4-6.3-10.9c-5-8-10-16-15.1-23.9c-0.7-1.1-1.4-2.2-2.6-2.6
						c-2.9-1-4.9,3-5.4,6.1C629.5,605.3,625.6,628.3,627.2,648.7z"/>
					<path class="st7" d="M662.2,680.8c0.8-0.8,1.8-1.5,2.8-2.1c1.3-0.8,2.6-1.4,4.1-1.8l0,0c3-1,6.2-1.5,9.3-2
						c7.6-1.2,15.5-2.3,22.7,0.1c10.3-3.1,20.8-6.5,29.3-13.1c11.2-8.8,17.6-23.3,16.6-37.4c-0.1-1.7-0.4-3.5-1.6-4.7
						c-1-0.9-2.3-1.2-3.6-1.6c-4.7-1.1-9.5-2.2-14.3-1.8c-8.2,0.7-15.3,5.9-23,8.9c-6.4,2.5-13.3,3.6-19.1,7.3
						c-1.4,0.9-3.3,2.5-5.5,4.6c-5.3,5-11.6,12.3-12.9,16.2c0,0,0,0,0,0.1c-0.2,1.2-0.5,2.3-0.8,3.5
						C664.3,664.8,660.6,672.9,662.2,680.8z"/>
					<path class="st8" d="M560.1,701c11.1,7.4,25.4,8,38.6,5.8c5.1-0.8,10.2-2.1,14.4-5.1c2.6-1.9,4.7-4.4,7.4-6.2
						c5.4-3.7,12.2-3.8,18.8-2.8c5.7,3.7,12.7,13.6,11.4,19.2c0,0,1.8,3.2,5.5,0.8c-1-0.8-1.7-1.5-1.5-1.8
						c-0.8-12.9-10.6-23.4-21-30.9c-0.2-0.1-0.3-0.2-0.5-0.3l0,0c-9.9-7.1-20.9-12.9-29.1-21.8l0,0c-6.5-1.1-13.2,1.4-19.5,3.9
						c-3.1,1.2-6.3,2.5-8.7,4.8c-2,1.9-3.4,4.5-4.6,7C566.9,682.3,563.2,691.6,560.1,701z"/>
					<g>
						<path class="st9" d="M669.5,678.2c0-0.9,0.2-1.9,0.5-2.8c0.4-0.9,0.9-1.7,1.5-2.4c1.2-1.4,2.8-2.6,4.4-3.6l9.6-5.8
							c6.4-3.9,12.7-7.8,19-11.8s12.5-8.1,18.7-12.2c3.1-2.1,6.2-4.2,9.3-6.3l9.3-6.3c-2.9,2.4-5.8,4.7-8.8,7s-6,4.5-9,6.7
							c-6.1,4.4-12.3,8.5-18.6,12.6c-6.3,4-12.7,7.9-19.2,11.5l-9.8,5.4c-1.6,0.9-3.2,1.9-4.5,3.2
							C670.5,674.6,669.6,676.3,669.5,678.2z"/>
					</g>
					<g>
						<path class="st9" d="M717.6,644.3c-0.3-1.8-0.5-3.6-0.6-5.4c-0.1-1.8-0.2-3.6-0.2-5.4c0-1.8,0-3.6,0.2-5.4
							c0.1-1.8,0.3-3.6,0.6-5.4c0.3,1.8,0.5,3.6,0.6,5.4c0.1,1.8,0.2,3.6,0.2,5.4c0,1.8-0.1,3.6-0.2,5.4
							C718.1,640.7,717.9,642.5,717.6,644.3z"/>
					</g>
					<g>
						<path class="st9" d="M701.6,655.2c-1-1.6-1.8-3.3-2.3-5.1c-0.6-1.8-1-3.6-1.2-5.5s-0.3-3.8-0.1-5.6c0.1-1.9,0.5-3.7,1.1-5.5
							c0.1,1.9,0.1,3.7,0.2,5.5c0.1,1.8,0.2,3.6,0.5,5.4c0.2,1.8,0.5,3.6,0.8,5.4C700.8,651.6,701.2,653.4,701.6,655.2z"/>
					</g>
					<g>
						<path class="st9" d="M689.9,662.2c-2-1.4-3.6-3.2-5-5.2s-2.5-4.2-3.3-6.5s-1.2-4.8-1.3-7.2s0.2-4.9,0.9-7.2
							c-0.1,2.4,0,4.8,0.3,7.1s0.8,4.6,1.6,6.8c0.7,2.2,1.7,4.3,2.8,6.4C687,658.4,688.4,660.3,689.9,662.2z"/>
					</g>
					<g>
						<path class="st9" d="M717,643.7c1.5-0.3,3.1-0.5,4.7-0.6c1.6-0.1,3.1,0,4.7,0.1c1.6,0.1,3.1,0.3,4.6,0.6s3.1,0.6,4.5,1.2
							c-1.6,0.1-3.1,0.1-4.7,0c-1.5,0-3.1-0.1-4.6-0.2c-1.5-0.1-3.1-0.2-4.6-0.4C720.1,644.3,718.6,644.1,717,643.7z"/>
					</g>
					<g>
						<path class="st9" d="M701.6,654.5c1.7,1,3.3,1.9,5,2.6c1.7,0.7,3.4,1.3,5.2,1.8s3.6,0.7,5.4,0.9c1.8,0.2,3.7,0.2,5.6,0.1
							c-1.8,0.7-3.7,1.1-5.7,1.2c-1.9,0.1-3.9-0.1-5.8-0.6c-1.9-0.5-3.7-1.2-5.4-2.2C704.4,657.3,702.8,656,701.6,654.5z"/>
					</g>
					<g>
						<path class="st9" d="M689.5,662.2c1.5,0,3,0.2,4.5,0.4s3,0.5,4.4,0.8c1.5,0.3,2.9,0.7,4.3,1.2c1.4,0.4,2.9,0.9,4.3,1.6
							c-1.5,0-3-0.2-4.5-0.4s-3-0.5-4.4-0.8c-1.5-0.3-2.9-0.7-4.3-1.2C692.3,663.3,690.9,662.8,689.5,662.2z"/>
					</g>
					<g>
						<path class="st9" d="M574.2,696.7c3.7-4.3,7.8-8.2,12.2-11.7c2.2-1.8,4.5-3.4,6.9-4.9c2.4-1.6,4.8-3,7.4-4.2
							c1.3-0.6,2.7-1.1,4.1-1.4c1.4-0.4,2.8-0.6,4.3-0.7c2.9-0.2,5.8,0,8.6,0.5c5.6,1.1,10.9,3.3,15.9,5.8
							c-5.3-1.9-10.6-3.7-16.1-4.6c-2.7-0.4-5.5-0.6-8.2-0.3c-1.3,0.1-2.7,0.4-4,0.8c-1.3,0.3-2.6,0.8-3.8,1.4
							c-2.5,1.1-4.9,2.5-7.3,4c-2.4,1.5-4.7,3-7,4.7C582.6,689.3,578.3,692.9,574.2,696.7z"/>
					</g>
					<g>
						<path class="st9" d="M607.1,675.4c-1.7-0.8-3.2-1.6-4.7-2.6c-1.5-0.9-3-1.9-4.5-2.9s-2.9-2.1-4.3-3.2c-1.4-1.1-2.8-2.3-4-3.6
							c1.7,0.8,3.2,1.6,4.7,2.6c1.5,0.9,3,1.9,4.5,2.9s2.9,2.1,4.3,3.2C604.5,672.9,605.9,674.1,607.1,675.4z"/>
					</g>
					<g>
						<path class="st9" d="M594.7,680.5c-2-0.7-3.9-1.3-5.8-1.9c-1.9-0.6-3.9-1.1-5.8-1.5c-2-0.5-3.9-0.8-5.9-1.1s-4-0.5-6.1-0.8
							c2-0.4,4.1-0.5,6.2-0.5c2.1,0.1,4.1,0.4,6.2,0.8c2,0.5,4,1.1,5.9,1.9C591.2,678.2,593,679.2,594.7,680.5z"/>
					</g>
					<g>
						<path class="st9" d="M618.9,675.1c0.5,1.9,0.3,3.9,0,5.8c-0.3,1.9-0.9,3.8-1.6,5.6c-0.7,1.8-1.5,3.5-2.5,5.2
							c-1,1.6-2.2,3.3-3.8,4.3c1.1-1.5,1.9-3.2,2.7-4.9s1.5-3.4,2.1-5.2c0.7-1.7,1.3-3.5,1.8-5.3C618.2,678.8,618.8,677,618.9,675.1
							z"/>
					</g>
					<g>
						<path class="st9" d="M595.9,679c0.7,1.4,0.7,3,0.6,4.5c-0.2,1.5-0.6,3-1.2,4.4c-0.6,1.4-1.3,2.7-2.3,3.9c-0.9,1.2-2,2.3-3.4,3
							c0.9-1.2,1.6-2.4,2.3-3.7s1.3-2.5,1.8-3.8c0.6-1.3,1-2.6,1.5-4C595.6,681.9,595.9,680.5,595.9,679z"/>
					</g>
					<g>
						<path class="st9" d="M645.3,659c-0.3-1.3-0.6-2.6-0.9-4c-0.3-1.3-0.6-2.6-0.8-4c-0.5-2.7-1-5.3-1.4-8c-0.5-2.7-0.9-5.3-1.3-8
							l-0.6-4l-0.5-4c-0.6-5.4-1-10.8-1.1-16.2s-0.1-10.9,0.8-16.3c-0.1,2.7-0.1,5.4,0,8.1c0.1,2.7,0.3,5.4,0.4,8.1
							c0.4,5.4,0.9,10.8,1.5,16.1l0.4,4l0.6,4c0.4,2.7,0.7,5.4,1.1,8L645.3,659z"/>
					</g>
					<g>
						<path class="st9" d="M644.1,652.6c0.7-0.9,1.5-1.7,2.4-2.4c0.8-0.7,1.7-1.4,2.6-2c0.9-0.6,1.8-1.2,2.8-1.7s2-1,3.1-1.4
							c-0.7,0.9-1.5,1.7-2.4,2.4c-0.8,0.7-1.7,1.4-2.6,2c-0.9,0.6-1.8,1.2-2.8,1.7C646.2,651.7,645.2,652.2,644.1,652.6z"/>
					</g>
					<g>
						<path class="st9" d="M639.9,624.9c0.5-1.1,1-2,1.7-2.9c0.6-0.9,1.3-1.8,2-2.7c0.7-0.8,1.5-1.7,2.3-2.4
							c0.8-0.8,1.6-1.5,2.6-2.1c-0.5,1.1-1,2-1.6,2.9s-1.3,1.8-2,2.7c-0.7,0.8-1.5,1.7-2.3,2.4C641.7,623.5,640.8,624.2,639.9,624.9
							z"/>
					</g>
					<g>
						<path class="st9" d="M642.1,642c0.9-1.3,2-2.5,3-3.7s2.1-2.3,3.2-3.5l3.3-3.4c1.1-1.1,2.2-2.2,3.1-3.5c-0.3,1.6-1.2,3-2.2,4.3
							c-0.9,1.3-2,2.5-3.1,3.7c-1.1,1.1-2.3,2.3-3.5,3.3C644.8,640.2,643.5,641.2,642.1,642z"/>
					</g>
				</g>
			</g>
		</g>
	</g>
</g>
</svg>
