<?xml version="1.0" encoding="utf-8"?>
<!-- Generator: Adobe Illustrator 22.0.1, SVG Export Plug-In . SVG Version: 6.00 Build 0)  -->
<svg version="1.1" id="Layer_1" xmlns="http://www.w3.org/2000/svg" xmlns:xlink="http://www.w3.org/1999/xlink" x="0px" y="0px"
	 viewBox="0 0 970 740" style="enable-background:new 0 0 970 740;" xml:space="preserve">
<style type="text/css">
	.st0{fill:#488A71;}
	.st1{fill:#BCD38C;}
	.st2{fill:#4E4133;}
	.st3{fill:#98C39D;}
	.st4{fill:#F8DA4B;}
	.st5{fill:#DDDA91;}
	.st6{fill:#2F4B3D;}
	.st7{fill:#5F887F;}
	.st8{fill:#557E41;}
	.st9{fill:#64A2A1;}
	.st10{fill:#C7D17B;}
	.st11{fill:#406F72;}
	.st12{fill:#93C2B4;}
	.st13{fill:#66846A;}
	.st14{fill:#FFFFFF;}
	.st15{fill:#F4B845;}
</style>
<g id="Layer_3">
	<g>
		<g>
			<g>
				<path class="st0" d="M210.5,307.1c0,0-18.7,13.9-36.2-1.4c-17.6-15.3-4.2-17.6-4.2-17.6s-19.3-3.3-25.5-18.6
					c-6.2-15.2,18.5-1.8,18.5-1.8s-27.5-22.2-19-37.8s23,3.8,23,3.8s-17.6-30.8-4.9-42.7s21.3,7.3,21.3,7.3s-4.2-17.7,5.4-21
					c9.6-3.3,15.3,10.3,15.3,10.3s13.2-50,35-26.1c0,0,13-33,27.7-5.4c0,0,17.2-29.2,38.9-14.6c21.8,14.6-3,43.7-3,43.7
					s11.8-12.9,20.6-1S306.1,213,306.1,213s18.3-6.3,26.2,10.5s-17.7,34-17.7,34s7.2-3.1,16.9,3.4c9.7,6.5-8.7,20.6-22.2,17.8
					c0,0,27,12.7-11.9,22.6c0,0,12.7,0.2,11.2,10.9c-1.5,10.6-20.5,16.2-39.9,10.3c0,0,16.1,3.6,7.6,16.2s-31.5-4.5-31.5-4.5
					s13.8,16.6-3.4,17C224.4,351.5,209.4,331.1,210.5,307.1"/>
				<path class="st1" d="M295.2,221.6c0,0-22.3-3.3-17.9-18.5s17.9,0,17.9,0s-8-21.8,3.5-22.4c11.5-0.6,11.2,10.6,11.2,10.6
					s-1.7-14.1,11.3-15.5s8,20,8,20s5.3-12.8,19.9-10.1c14.6,2.8,10.2,19.6-7.2,23.5c0,0,11.9-1.1,12.2,6.9
					c0.3,8-11.6,11.1-22.1,4.1c0,0-6,6.1-13.8,0.8C318.1,221.1,310.9,223,295.2,221.6"/>
				<path class="st1" d="M240.5,164.8c0,0-56.7,6.4-78-32s11.4-33.9,25-26.6c0,0-28.1-30-10-48.1c18.2-18.2,35,11.8,35,11.8
					S207.4,25,246,25s39.8,38.3,39.8,38.3s9.6-37,37.1-35.6c27.5,1.4,16.6,35.6,16.6,35.6s21.3-10.6,37.2,8.4
					c15.9,19.1-6.8,34.5-6.8,34.5s24.5-4.8,24.5,20.5c0,25.4-17.7,33.9-39.5,38.5c0,0,4.1,16.4-50.7,1.4
					C304.3,166.6,233.9,188.3,240.5,164.8"/>
				<path class="st2" d="M282.2,382.6c0,0-7.2,4.8-13.9,0c-6.6-4.8,4.2-32.9,3.6-128.9c-0.6-95.9,0.9-181.8,5.1-179.9
					c4.2,1.9,1.1,72.5,2.2,128.8C280.4,259,286.7,377.3,282.2,382.6"/>
				<path class="st2" d="M275,219.8c0,0-18.6,6.9-27.4-6.9c-8.8-13.9-4.6-31.9-9.7-31.9s-6.2,55.6,37.1,45.5V219.8z"/>
				<path class="st2" d="M273.2,233.2c0,0,18.6,6.9,27.4-6.9c8.8-13.9,4.6-31.9,9.7-31.9s6.2,55.6-37.1,45.5V233.2L273.2,233.2z"/>
				<path class="st2" d="M275.9,130.5c0,0-18.6,6.9-27.4-6.9c-8.8-13.9-4.6-31.9-9.7-31.9s-6.2,55.6,37.1,45.5V130.5z"/>
				<path class="st2" d="M274.1,143.9c0,0,18.6,6.9,27.4-6.9c8.8-13.9,4.6-31.9,9.7-31.9s6.2,55.6-37.1,45.5V143.9z"/>
				<path class="st2" d="M277.5,93.1c0,0,8.9,3.1,13.2-3.8c4.3-6.9,4.2-10.4,6.2-9.2c1.1,0.7-4.4,19.8-17.6,16.6"/>
				<path class="st2" d="M241.9,113.6c0,0,8.9,3.1,13.2-3.8s4.2-10.4,6.2-9.2c1.1,0.7-4.4,19.8-17.6,16.6"/>
				<path class="st2" d="M306.5,209c0,0,8.9,3.1,13.2-3.8c4.3-6.9,4.2-10.4,6.2-9.2c1.1,0.7-4.4,19.8-17.6,16.6"/>
				<path class="st2" d="M273.2,290.5c0,0,11.3,4.8,16.4-3.4c5-8.1,5.2-11.6,7.2-9.8c1.9,1.7-5.1,23.3-20.7,19.5"/>
				<path class="st2" d="M250.1,130.5c0,0-5.3,4.8-16.3,1.9c-11-2.9-10.5-11-12.9-10.8s1.4,13.3,15.5,14.9
					c10.8,1.2,17.9-4.2,17.9-4.2"/>
				<path class="st2" d="M306.9,133.6c0,0,21.2,9.1,33-8.8c0,0,1.4-2.7,2.9-1.4c1.4,1.3-10.4,23.8-37.2,14.2L306.9,133.6z"/>
				<path class="st2" d="M243.9,209c0,0-8.9,3.1-13.2-3.8c-4.3-6.9-4.2-10.4-6.2-9.2c-1.1,0.7,4.4,19.8,17.6,16.6"/>
				<path class="st3" d="M231.1,202c0,0-36.7,3.5-36.1-17.5s21.6-7.7,21.6-7.7s-12.8-16.7,0-21.7s14.5,13.9,14.5,13.9
					s-1.2-13.4,13.8-14.7c15.1-1.4,6.2,18.6,6.2,18.6s13.3-15.6,25.6-1.7c12.2,13.9-19,20-19,20S271.1,207.2,231.1,202"/>
				<path class="st4" d="M375.1,144.7c-3.6,10.4-16.3,13.2-21.5,11c-7.8-3.2,1.1-10.4,1.9-14.1c1.3-5.8-4-18.4,6.3-20.9
					C371.7,118.5,380,130.4,375.1,144.7"/>
				<path class="st4" d="M306,236.3c2.8,8.1,12.7,10.3,16.8,8.6c6.1-2.5-0.8-8.1-1.5-11c-1-4.5,3.2-14.4-4.9-16.3
					C308.6,215.8,302.1,225.2,306,236.3"/>
				<path class="st4" d="M333.6,72.9c-0.3,8.6-9.1,13.6-13.5,13.1c-6.5-0.6-1.6-8-1.8-10.9c-0.3-4.6-7.2-12.9,0-17
					C325.1,54.1,334.1,61.2,333.6,72.9"/>
				<path class="st5" d="M319.6,507.9c0,0-7.7,21.9-30.7,19c-23-2.9-13.3-12.3-13.3-12.3s-17.8,7.9-31.4-1.2
					c-13.6-9.2,14.3-11.8,14.3-11.8s-35.1-3.1-36.7-20.7c-1.7-17.7,21.1-9.6,21.1-9.6s-31.7-15.7-27.8-32.6s21.7-5.8,21.7-5.8
					s-13.4-12.3-7.2-20.3c6.1-8.1,18.4,0,18.4,0s-16.9-48.7,14.5-41.1c0,0-7.6-34.5,19.9-19.9c0,0-2.1-33.7,24.1-33.7
					s21.8,37.8,21.8,37.8s2.6-17.3,16.5-12.3s1.7,33.5,1.7,33.5s11.7-15.3,27.5-5.8c15.9,9.5,4.2,38,4.2,38s4.2-6.6,15.9-6.6
					c11.7,0,4.2,21.9-8.5,27c0,0,29.4-4.5,2.8,25.3c0,0,10.6-6.9,15.3,2.8c4.7,9.6-8,24.8-27.3,30.8c0,0,15.3-6,15.3,9.2
					c0,15.1-28.6,13.8-28.6,13.8s20.6,6.1,6.7,15.9C355.7,537,331.9,528.4,319.6,507.9"/>
				<path class="st6" d="M505.8,575.9c0,0,22-92.1,6.1-94.7s-4.2,27.3-15.9,27.6c-11.6,0.4,17.8-66,4-77.8
					c-13.8-11.8-6.1,17.4-14.3,17.4c-8.2,0,10.7-71.7-14.8-71.7c-25.6,0-25.6,38.9,0,73.2c0,0-11.3-10.2-15.4-4.1s3.1,39.4,23,62.5
					c20,23-14.3-2.6-16.9,12.8C459.2,536.5,505.8,575.9,505.8,575.9"/>
				<path class="st7" d="M514.3,589.9c0,0-19.5-30.8-24.5-86.4c-5-55.5-21.8-74.5-23.3-103.6c0,0-2.1,13.3,4.9,31.5
					c10,25.8,14.8,54.8,16.2,76.5C489.2,535.5,498,592.5,514.3,589.9"/>
				<path class="st0" d="M500.1,647.2c0,0-9.4-36.8-7.7-63.4c1.7-26.6,5.1-53.1-7.7-38.6c0,0,4.7-41.2-5.6-45.9
					c-10.3-4.7-7.5,8.9-11.3,8.9s-3.3-56.9-27.3-55s-0.5,47,11.8,57.8c12.2,10.8-12.7-8-16.9,1.9c-4.2,9.9,20.7,37.6,32,41.8
					s-10.3-4.2-11.8,2.8c-1.4,7.1,1.1,13.5,19.6,33.8C493.6,611.7,500.1,647.2,500.1,647.2"/>
				<path class="st5" d="M496.5,629.9c0,0,8-20.8-15.3-61.8s-21.6-52.1-29.4-85.8c0,0,4.8,14.5,7.3,26.9
					c4.7,22.9,16.1,45.2,25.7,60.9C497,590.1,509.1,623.9,496.5,629.9"/>
				<path class="st8" d="M500.1,647.2c0,0,4.4-41.9,25.1-62.6c20.7-20.7,12.2-28.6,3-27.4c-9.1,1.2,20.7-11,25-30.5
					s-7.3-17.7-14.6-14s9.1-24.4,15.5-42c6.4-17.7,16.8-56.7-11.3-62.2c-12.3-2.4-36.6,1.8-25.6,78.6c11,76.8,3,0-11.6,2.4
					s3.7,53.6,0,54.2c-3.7,0.6-5.2-11.7-12.8-8.5C485.3,538.5,489.4,632.6,500.1,647.2"/>
				<path class="st5" d="M500.1,647.2c0,0-4-36.3,15.9-88.4c19.9-52.1,15.8-64.9,18.9-105.6c0,0-3,17.8-3.7,32.7
					c-1.3,27.7-10.7,55.7-19.1,75.8C501.5,587.4,484.3,642.5,500.1,647.2"/>
				<path class="st9" d="M492.1,486.8c-6.5,24-17,48.3-36.9,63c-0.6,0.4-1.1,0.8-1.7,1.3l0,0c-14,9.8-30.9,14.4-46.7,21.1
					c0,0,0,0-0.1,0c-0.3,0.1-0.5,0.2-0.8,0.3c-16.6,7.2-33.3,18.7-38.3,36.1c0.1,0.5-1.1,1.3-2.6,2l0,0c-2.6,1.3-6.1,2.4-6.5,1.8
					c-0.6-1-0.2-2.3,0.3-3.4c0-0.1,0.1-0.1,0.1-0.2c3.3-6.6,8.2-12.5,10.1-19.7c1.4-5.2,1.1-10.8,1.5-16.2c0.1-2.5,0.4-4.9,1-7.3
					c2.4-9.9,10.2-17.8,19.1-22.8c2.1-1.2,4.3-2.2,6.6-3.2l0,0c7.1-2.9,14.7-4.9,22.2-6.8c1.7-0.4,3.4-0.9,5.1-1.4
					C451.7,524,480.2,512.1,492.1,486.8"/>
				<path class="st10" d="M369,589.3c-1.9,7.1-6.8,13.1-10.1,19.7c0,0-0.1,0.1-0.1,0.2c-2.1-8-5.7-18.1-8.1-25.7
					c-2.4-7.5-7.5-14.9-14.9-17.5c-17.6,2.7-34.9,7.8-51.2,15c-2.8,1.2-6.2,2.5-8.8,1c-2.5-1.5-3.1-5-2.1-7.8c1-2.7,3.1-4.8,5.2-6.9
					c9.9-9.7,20.8-19.8,34.5-21.8c0.5-0.1,1-0.1,1.5-0.2c10.7-1.1,21.2,2.9,31.3,6.8c4.2,1.6,8.4,3.3,12.2,5.6l0,0
					c1.8,1.1,3.5,2.3,5,3.7c1.2,1.1,2.3,2.4,3.2,3.7c1.4,2,2.9,5,4,8C370.2,578.5,370.4,584.1,369,589.3"/>
				<path class="st11" d="M424.4,531.6c-1.7,0.5-3.4,0.9-5.1,1.4c-7.5,2-15.1,3.9-22.2,6.8l0,0c-2.3,0.9-4.4,2-6.6,3.2
					c-8.9,4.9-16.7,12.8-19.1,22.8c-0.6,2.4-0.8,4.9-1,7.3c-1.1-3-2.7-5.9-4-8c4.6-10.4,2-22.7,1.6-34.2c-0.1-1.7-0.1-3.4,0-5v-0.1
					c0.6-17.7,7-35.2,18-49.1c3.7-4.7,7.9-8.9,12.1-13.1c9.3-9.4,18.7-18.9,28-28.3c1.2-1.3,2.6-2.6,4.3-2.8c4.3-0.4,5.8,5.6,5.6,10
					C434.5,471.2,432.8,504.1,424.4,531.6"/>
				<path class="st12" d="M366.4,565.1c-0.9-1.4-2-2.6-3.2-3.7c-1.5-1.4-3.2-2.7-5-3.7l0,0c-3.8-2.3-8-4-12.2-5.6
					c-10.1-3.9-20.6-7.9-31.3-6.8c-13.2-7.5-26.7-15.2-36.3-27c-12.7-15.5-17.1-37.4-11.4-56.6c0.7-2.3,1.6-4.7,3.7-5.9
					c1.6-0.9,3.5-1,5.4-1.1c6.8-0.1,13.7-0.2,20.2,1.9c11.1,3.5,19.3,12.7,29,19.2c8,5.4,17.2,9,24,15.9c1.6,1.6,3.8,4.5,6.1,7.9
					c5.7,8.5,12.2,20.5,12.7,26.2v0.1c-0.1,1.7-0.1,3.4,0,5C368.4,542.5,371.1,554.7,366.4,565.1"/>
				<path class="st13" d="M500.6,624c-17.5,6.8-37.4,3.2-54.9-3.8c-6.7-2.7-13.4-6-18.2-11.4c-3-3.4-5.2-7.5-8.3-10.8
					c-6.4-6.7-15.6-8.9-25.1-9.5c-9,3.3-21.6,14.8-21.5,22.9c0,0-3.4,3.8-7.8-0.5c1.6-0.8,2.7-1.6,2.6-2c5-17.5,21.7-28.9,38.3-36.1
					c0.3-0.1,0.5-0.2,0.8-0.3c0,0,0,0,0.1,0c15.8-6.8,32.7-11.4,46.7-21.1l0,0c9.3,0.5,17.8,6,25.6,11.2c3.9,2.6,7.9,5.4,10.5,9.2
					c2.2,3.3,3.2,7.2,4.2,11.1C497,596.3,499.3,610.1,500.6,624"/>
				<path class="st14" d="M357.3,559.3c0.4-2.6-0.5-5.2-1.9-7.3s-3.3-4-5.2-5.7s-4-3.4-6-5.1c-2-1.7-4-3.5-6-5.2
					c-7.9-7-15.6-14.2-23.1-21.6c-7.5-7.4-14.7-15.2-21.6-23.1c-7-7.9-13.7-16.1-19.9-24.5c7.4,7.5,14.7,15.1,22.1,22.6
					c7.3,7.5,14.7,15,22.1,22.4s14.9,14.8,22.4,22.2l5.6,5.5c1.9,1.9,3.8,3.6,5.6,5.6c0.9,1,1.8,2,2.6,3.1s1.6,2.2,2.2,3.4
					s1.1,2.5,1.3,3.8C357.7,556.6,357.6,558,357.3,559.3"/>
				<path class="st14" d="M301.4,498c-0.2-2.6,0-5.2,0.2-7.7c0.3-2.5,0.7-5,1.3-7.5c0.5-2.5,1.2-4.9,2-7.3s1.8-4.8,3.1-7.1
					c0.2,2.6,0,5.2-0.2,7.7c-0.3,2.5-0.7,5-1.3,7.5s-1.2,4.9-2,7.3C303.6,493.3,302.7,495.7,301.4,498"/>
				<path class="st14" d="M320.1,517.9c0.8-2.6,1.8-5,2.7-7.4c0.9-2.4,1.8-4.8,2.6-7.1c0.8-2.4,1.6-4.8,2.4-7.2
					c0.8-2.4,1.6-4.9,2.5-7.4c0.6,2.7,0.6,5.4,0.3,8c-0.3,2.7-0.9,5.3-1.8,7.8s-2.1,5-3.5,7.2C323.9,514.1,322.2,516.2,320.1,517.9"
					/>
				<path class="st14" d="M334.1,531.1c2.5-2.4,4.8-4.7,6.8-7.3c2.1-2.5,3.9-5.1,5.6-7.9c1.6-2.8,3.1-5.6,4.3-8.7
					c1.2-3,2.2-6.2,3.2-9.5c0.6,3.4,0.4,6.9-0.4,10.3s-2.1,6.7-3.9,9.7s-4.1,5.7-6.7,8C340.3,528.1,337.3,530,334.1,531.1"/>
				<path class="st14" d="M302.4,497.4c-2.3,0.3-4.5,0.2-6.7,0.1s-4.3-0.4-6.5-0.7c-2.1-0.3-4.3-0.7-6.4-1.2s-4.2-1.1-6.3-2.1
					c2.2-0.6,4.5-0.8,6.7-0.8s4.4,0.1,6.6,0.5c2.2,0.3,4.3,0.8,6.4,1.5C298.4,495.3,300.4,496.2,302.4,497.4"/>
				<path class="st14" d="M320.3,516.9c-2,1.9-4.5,3.3-7.1,4.3s-5.4,1.5-8.2,1.5c-2.8,0.1-5.6-0.3-8.3-1.1c-2.7-0.8-5.2-2.1-7.3-3.9
					c2.7,0.4,5.3,0.8,7.9,1.1c2.6,0.2,5.1,0.3,7.6,0.3c2.5-0.1,5.1-0.3,7.6-0.7C315,518.1,317.6,517.5,320.3,516.9"/>
				<path class="st14" d="M334.6,531.2c-2.1,0.8-4.2,1.2-6.3,1.5c-2.1,0.3-4.2,0.4-6.3,0.4s-4.2-0.1-6.3-0.4
					c-2.1-0.3-4.2-0.7-6.3-1.4c2.1-0.8,4.2-1.2,6.3-1.5c2.1-0.3,4.2-0.4,6.3-0.4s4.2,0.1,6.3,0.4C330.4,530,332.5,530.4,334.6,531.2
					"/>
				<path class="st14" d="M482.6,613.8c-4.8-6.4-9.7-12.5-15-18.3c-0.7-0.7-1.3-1.4-2-2.1l-2-2.1c-1.4-1.4-2.7-2.8-4.2-4.1l-2.1-2
					c-0.7-0.7-1.4-1.3-2.2-2c-1.4-1.3-2.9-2.5-4.5-3.6c-6-4.6-13.5-6.9-21.2-7.5c-7.7-0.7-15.6,0.1-23.5,0.8c3.8-1.1,7.7-2,11.6-2.7
					c2-0.3,4-0.6,6-0.8s4-0.2,6.1-0.2c4.1,0,8.2,0.6,12.1,1.8c1,0.3,2,0.7,2.9,1l1.4,0.6c0.5,0.2,1,0.4,1.4,0.7
					c1.9,1,3.6,2.1,5.3,3.3c1.6,1.2,3.2,2.5,4.7,3.9c0.7,0.7,1.5,1.4,2.2,2.1c0.7,0.7,1.5,1.5,2.1,2.2c2.8,2.9,5.5,5.9,7.9,9
					C474.8,599.9,479.1,606.7,482.6,613.8"/>
				<path class="st14" d="M443.8,574.4c2-1.7,4.2-3,6.4-4.2c2.2-1.2,4.5-2.3,6.8-3.3s4.7-1.8,7.1-2.5s4.9-1.3,7.5-1.5
					c-2,1.7-4.2,3-6.4,4.2c-2.2,1.2-4.5,2.3-6.8,3.2c-2.3,1-4.7,1.8-7.1,2.5C448.9,573.6,446.4,574.2,443.8,574.4"/>
				<path class="st14" d="M459.4,585.3c2.6-1.5,5.4-2.5,8.3-3.1c2.9-0.7,5.8-1,8.8-1s5.9,0.3,8.8,0.9c2.9,0.7,5.7,1.6,8.3,3.1
					c-3,0-5.8-0.1-8.6-0.2c-2.8-0.1-5.6-0.1-8.4-0.1s-5.6,0.1-8.4,0.2C465.2,585.1,462.4,585.2,459.4,585.3"/>
				<path class="st14" d="M427.7,570.5c0,1.4,0,2.7,0.2,4l0.1,1l0.1,1l0.1,1c0,0.3,0.1,0.6,0.1,1c0.3,2.6,0.7,5.2,1.1,7.7
					c0.4,2.6,0.8,5.1,1.2,7.7c0.1,0.3,0.1,0.6,0.2,1l0.2,1c0.1,0.6,0.2,1.3,0.4,1.9c0.2,1.3,0.6,2.5,1,3.9c-0.5-0.5-1.1-0.9-1.5-1.5
					c-0.2-0.3-0.4-0.6-0.6-0.8c-0.2-0.3-0.4-0.6-0.6-0.9c-0.2-0.3-0.4-0.6-0.5-0.9l-0.5-0.9c-0.3-0.6-0.6-1.3-0.8-1.9
					c-1-2.6-1.6-5.2-2.1-8c-0.4-2.7-0.5-5.5-0.3-8.2c0-0.7,0.1-1.4,0.2-2.1l0.2-1c0.1-0.3,0.2-0.7,0.2-1c0.1-0.3,0.2-0.7,0.3-1
					c0.1-0.3,0.2-0.7,0.4-1C426.9,571.7,427.3,571.1,427.7,570.5"/>
				<path class="st14" d="M458.2,582.9c0,0.3,0,0.6-0.1,0.8c0,0.3-0.1,0.5,0,0.8c0,0.5,0,1,0,1.5s0,1,0.1,1.5c0,0.2,0,0.5,0.1,0.7
					c0,0.2,0.1,0.5,0.1,0.7c0.2,1.9,0.6,3.8,0.9,5.8c0.4,1.9,0.8,3.8,1.2,5.8c0.4,1.9,0.9,3.9,1.5,5.9c-1.9-1.2-3.2-3-4.2-4.9
					s-1.7-4-2.1-6.1s-0.5-4.3-0.2-6.5c0.1-0.5,0.2-1.1,0.3-1.6c0.1-0.5,0.3-1.1,0.5-1.6C456.8,584.6,457.4,583.6,458.2,582.9"/>
				<path class="st14" d="M396.4,540.3c1.1-3.7,2.3-7.3,3.5-10.9l3.7-10.8c2.5-7.2,5-14.4,7.4-21.6s4.9-14.4,7.1-21.6l1.7-5.4
					c0.6-1.8,1.1-3.6,1.6-5.5c0.5-1.8,1-3.7,1.5-5.5s0.9-3.7,1.3-5.6c0,1.9-0.1,3.8-0.3,5.7c-0.2,1.9-0.5,3.8-0.7,5.7
					c-0.6,3.8-1.4,7.6-2.2,11.3c-1.8,7.5-3.9,14.8-6.4,22.1c-2.5,7.2-5.2,14.4-8.2,21.4C403.3,526.7,400,533.6,396.4,540.3"/>
				<path class="st14" d="M399.9,531.8c-1.6-0.6-3-1.5-4.2-2.4c-1.3-1-2.4-2-3.5-3.2c-1.1-1.1-2-2.4-2.9-3.7s-1.6-2.8-2.1-4.4
					c1.6,0.6,3,1.5,4.2,2.4c1.3,1,2.4,2,3.5,3.2c1.1,1.1,2,2.4,2.9,3.7C398.7,528.7,399.4,530.1,399.9,531.8"/>
				<path class="st14" d="M414.2,495c-1.4-1-2.5-2.2-3.4-3.5c-1-1.3-1.8-2.6-2.5-4s-1.3-2.8-1.8-4.3s-0.8-3.1-0.9-4.8
					c1.4,1,2.5,2.2,3.4,3.5c1,1.3,1.8,2.6,2.5,4s1.3,2.8,1.8,4.3C413.8,491.7,414.2,493.2,414.2,495"/>
				<path class="st14" d="M406,517.9c-1.9-1.4-3.5-3-5-4.8c-1.5-1.7-2.8-3.6-3.9-5.5c-1.2-1.9-2.2-4-3-6.1c-0.2-0.5-0.4-1.1-0.5-1.6
					c-0.2-0.6-0.3-1.1-0.4-1.7c-0.2-1.1-0.3-2.4-0.2-3.5c0.2,0.3,0.3,0.5,0.5,0.7c0.1,0.2,0.3,0.5,0.4,0.7c0.3,0.5,0.6,0.9,0.9,1.4
					l0.9,1.4c0.3,0.5,0.6,0.9,0.9,1.4c1.2,1.8,2.4,3.7,3.6,5.5c1.1,1.9,2.2,3.8,3.2,5.8C404.4,513.5,405.3,515.6,406,517.9"/>
				<path class="st6" d="M249.7,524.8c0,0-9.4-112,9.6-112.1c19.1-0.2,0.1,32.7,13.7,35.2s-9.1-80.6,9.1-92s4,21.5,13.6,22.9
					c9.6,1.5,0.1-85.9,30.2-81.4s23.1,50.2-13,85.8c0,0,15-10,18.7-2.1s-10.6,45.7-38.1,69.1c-27.5,23.5,17.3-0.5,17.5,18
					C311.3,486.9,249.7,524.8,249.7,524.8"/>
				<path class="st7" d="M237.3,539.6c0,0,28.3-32.7,44.1-96.9s38.9-83.5,45.7-117.3c0,0,0.1,16-11.4,36
					c-16.3,28.5-27.1,61.6-32.6,86.8C276.3,480.4,255.9,545.7,237.3,539.6"/>
				<path class="st0" d="M243.7,609.4c0,0,17.6-41.5,20.3-73s3.4-63.2,15.9-43.8c0,0,1.8-49.1,14.8-52.8c13-3.7,7.2,11.8,11.6,12.5
					s14-66.1,41.8-59.7c27.8,6.5-7.8,55.2-24.1,65.7s16.3-7.1,19.5,5.2c3.2,12.3-31,40.4-44.9,43.4c-14,3,12.9-3.1,13.3,5.4
					s-3.7,15.7-29,36.2C257.6,568.9,243.7,609.4,243.7,609.4"/>
				<path class="st5" d="M251,589.7c0,0-5.6-25.8,29-69.7s34.6-57.3,49.7-95.4c0,0-8.2,16.1-13.4,30.2c-9.6,26.1-27,50.1-41,66.8
					C257.5,542.9,237.3,580.4,251,589.7"/>
				<path class="st8" d="M243.7,609.4c0,0,2.3-49.9-18.3-77.8c-20.6-28-9.2-35.8,1.3-32.7c10.5,3.1-22.3-16.5-23.9-40.2
					c-1.5-23.6,11.7-19.4,19.6-13.8s-6.4-30.2-10.7-52.1c-4.4-21.9-9.7-69.5,24.3-70.9c14.9-0.6,42.5,8.7,16,96.7
					c-26.5,88.1-3.6-0.5,13.1,4.9c16.7,5.5-13.8,62.2-9.7,63.6c4.2,1.4,8.2-12.8,16.5-7.7C280.4,484.5,258.9,594.1,243.7,609.4"/>
				<path class="st5" d="M243.7,609.4c0,0,11.1-41.8-2.9-106.5c-14-64.6-7-78.9-3.3-127.2c0,0,0.3,21.4-1.5,39.1
					c-3.4,32.7,2.6,67.3,8.9,92.3C252.7,539,263.1,606.7,243.7,609.4"/>
			</g>
		</g>
		<path class="st15" d="M204.4,149.8c-4,11.5-18,14.6-23.8,12.2c-8.6-3.6,1.2-11.5,2.1-15.6c1.5-6.4-4.5-20.4,7-23.1
			C200.7,120.8,209.9,134,204.4,149.8"/>
	</g>
</g>
</svg>
