<?xml version="1.0" encoding="utf-8"?>
<!-- Generator: Adobe Illustrator 22.0.1, SVG Export Plug-In . SVG Version: 6.00 Build 0)  -->
<svg version="1.1" id="Layer_1" xmlns="http://www.w3.org/2000/svg" xmlns:xlink="http://www.w3.org/1999/xlink" x="0px" y="0px"
	 viewBox="0 0 1920 1080" style="enable-background:new 0 0 1920 1080;" xml:space="preserve">
<style type="text/css">
	.st0{fill:#E9DB82;}
	.st1{fill:#FBCF66;}
</style>
<g id="Layer_2_1_">
	<g>
		<g>
			<path class="st0" d="M521.8,563.4c7.4-11.7,13.7-24.1,18.9-37c0-0.1-0.1-0.1-0.1-0.2l0,0c0-0.1,0-0.1-0.1-0.2
				c-5.4,12.9-12,25.2-19.6,36.9c-5.5,8.4-11.6,16.3-18.3,23.7l-2.5,2.8c-0.8,0.9-1.7,1.9-2.6,2.7l-5.3,5.3l-5.6,5
				c-0.9,0.9-1.9,1.6-2.9,2.4l-2.9,2.4c-15.6,12.4-33.1,22.5-51.7,29.7c-18.6,7.3-38.1,12.1-57.8,15c-19.8,2.9-39.8,3.8-59.8,3.4
				c-20-0.4-39.9-2.3-59.7-5.1c-19.8-2.9-39.4-6.8-58.9-11.6c-9.7-2.4-19.4-5-29-7.8c-9.6-2.9-19.1-5.9-28.5-9.4
				c37.5,14.1,76.5,24.1,116.2,30.2c19.8,3,39.8,4.9,59.9,5.4s40.2-0.4,60.1-3.3c19.9-2.9,39.5-7.8,58.2-15.2s36.4-17.5,52-30.2
				l2.9-2.4c1-0.8,1.9-1.6,2.9-2.5l5.6-5.1l5.3-5.3c0.9-0.9,1.7-1.8,2.6-2.8l2.5-2.8C510.3,579.8,516.4,571.8,521.8,563.4z"/>
			<path class="st1" d="M500.3,563.6c2.4,3.8,6.9,6.2,11.3,6c0.7-6.4-3.3-13.9-7.5-18.8c-0.8-0.9-2-1.8-3.1-1.3
				c-0.5,0.2-0.8,0.7-1.1,1.2C497.8,554.6,497.9,559.7,500.3,563.6z"/>
			<path class="st1" d="M524.9,518.9c-4.9,0.5-6.3,7.6-3.8,11.8c2.6,4.2,7.2,6.5,10.9,9.8c0.8-3.2,0.4-12.6-0.3-15.7
				C530.9,521.5,528.1,518.6,524.9,518.9z"/>
			<path class="st1" d="M510.9,546.1c2.5,2.9,9.5,5.4,13.3,5.7c-0.8-4.6-3-8.9-6.3-12.1c-1.2-1.2-2.8-2.4-4.6-2.4
				C509.5,537.4,508.4,543.2,510.9,546.1z"/>
			<path class="st1" d="M497.2,586.9c2.9-6.1,2.7-13.7-0.7-19.5c-0.5-1-1.3-2-2.3-2.3c-1.9-0.6-3.8,1.3-4.7,3.2
				C486.4,575,490.2,584.2,497.2,586.9z"/>
			<path class="st1" d="M550,508.9L550,508.9L550,508.9c5.1-5.6,9.3-12.1,12.3-19.2c0.5-1.3,0.9-3.3-0.4-3.9
				c-0.7-0.4-1.5-0.2-2.2,0.1c-2.2,0.7-4.4,1.7-6.4,2.9c-3.6,2.2-6.9,5.5-7.8,9.6C544.4,502.4,546.2,507.3,550,508.9z"/>
			<path class="st1" d="M535.3,520.3c1.8-2.9,6.1-10.8,6.2-14.2c0.1-3.3-1.9-7-5.2-7.6c-4.6-0.7-8,4.9-7.3,9.4
				C529.7,512.6,532.9,516.3,535.3,520.3z"/>
			<path class="st1" d="M521.1,593.5c-0.5-0.9-1.5-1.5-2.5-2c-3.5-1.5-12.4-3.3-16-2.1c-1.1,2.5,0.3,5.5,2.4,7.1
				c2.2,1.6,5,2.2,7.6,2.6c2.1,0.3,4.4,0.5,6.3-0.4C520.9,597.8,522.2,595.4,521.1,593.5z"/>
			<path class="st1" d="M528.2,574.1c-3-1.2-11.7,1.5-14.8,2.3c-1.6,0.8-1.7,3.3-0.6,4.7c1.1,1.4,3,2,4.8,2.3
				c2.7,0.5,5.5,0.7,8.3,0.5c2-0.1,4.2-0.5,5.4-2.1C533.2,579.2,531.2,575.3,528.2,574.1z"/>
			<path class="st1" d="M556.4,546.3c-1.3-3.3-5.8-3.7-9.2-3.1c-3.4,0.6-7.3,1.8-10.3,0c-0.3,4.4,3.8,9.4,8.2,10.4
				c2.7,0.6,5.7,0.8,8.2-0.4C555.6,551.9,557.4,548.9,556.4,546.3z"/>
			<path class="st1" d="M538.9,561.3c-3.4-1.1-9.7-2.3-13-3.4c-2.4,1.9-2.1,6-0.2,8.4c2,2.4,5.1,3.5,8.2,4.1c2.3,0.5,4.9,0.7,7-0.3
				c2.2-1,3.7-3.7,2.6-5.9C542.7,562.6,540.7,561.8,538.9,561.3z"/>
			<path class="st1" d="M541.2,527.6c1.6,3.4,4.9,6.1,8.6,6.8c4.5,0.9,9.5-1.1,12.2-4.8c0.7-1,1.2-2.4,0.5-3.3
				c-0.6-0.7-1.7-0.8-2.7-0.8C553.6,525.5,547.3,526.2,541.2,527.6z"/>
			<path class="st1" d="M547,514.5L547,514.5L547,514.5c-1.1,0.9-0.8,2.8,0.1,3.6c0.9,0.9,2.3,1,3.6,1c5.4-0.1,10.9-2.2,15.2-5.8
				c2-1.6,0.7-4.9-1.9-4.8C558.1,508.7,552.1,510.7,547,514.5L547,514.5z"/>
		</g>
		<g>
			<path class="st0" d="M408.2,568.9c8,21.9,17.2,43.4,27.9,64.2s22.9,40.8,36.9,59.5c14.1,18.7,30.1,36,48.1,50.9
				c18,15,38.2,27.4,59.9,36.2l4.1,1.6c1.4,0.5,2.7,1.1,4.1,1.5l8.3,2.8l8.4,2.4c1.4,0.4,2.8,0.7,4.2,1.1l4.3,1
				c11.4,2.6,23,4.4,34.7,5.2c16.1,1,32.3,0.5,48.3-1.3c0.1-0.1,0.1-0.1,0.2-0.2l0,0c0.1-0.1,0.1-0.1,0.2-0.2
				c-16.2,1.6-32.5,1.9-48.6,0.6c-11.6-0.9-23.1-2.8-34.4-5.4l-4.2-1c-1.4-0.4-2.8-0.7-4.2-1.1l-8.3-2.5l-8.2-2.9
				c-1.4-0.5-2.7-1-4.1-1.6l-4-1.6c-21.4-9-41.5-21.2-59.2-36.2c-17.8-14.9-33.7-32.1-47.6-50.7c-14-18.6-26.2-38.5-36.9-59.1
				L408.2,568.9z"/>
			<path class="st1" d="M636.9,773.6c-2.6,4.6-2.5,10.5,0.2,15c6.9-2.8,12.3-11.2,15-18.2c0.5-1.3,0.8-3.1-0.4-3.9
				c-0.5-0.4-1.1-0.4-1.8-0.5C644.7,766,639.6,769,636.9,773.6z"/>
			<path class="st1" d="M696.3,773.7c-3.2-4.7-11.3-2.3-14.1,2.7c-2.9,5-2.6,11.1-3.9,16.6c3.7-0.9,13-6.6,15.9-9.1
				C697,781.4,698.5,776.9,696.3,773.7z"/>
			<path class="st1" d="M660.7,774.6c-1.5,4.2-0.2,12.7,1.6,16.8c4.2-3.4,7.4-8.1,8.9-13.2c0.6-2,0.9-4.2-0.1-6
				C668.8,768.4,662.3,770.5,660.7,774.6z"/>
			<path class="st1" d="M611.4,783.5c7.9-0.4,15.5-4.9,19.6-11.6c0.7-1.1,1.3-2.4,1.1-3.7c-0.5-2.3-3.5-3.2-5.8-3
				C617.4,765.8,610.2,774.8,611.4,783.5z"/>
			<path class="st1" d="M720.6,793.8L720.6,793.8L720.6,793.8c8.6,2.1,17.6,2.7,26.5,1.8c1.6-0.2,3.8-0.9,3.7-2.6
				c0-0.9-0.7-1.6-1.3-2.2c-2-1.9-4.2-3.5-6.6-4.9c-4.3-2.4-9.4-4-14.2-2.7C724.1,784.5,720.1,789,720.6,793.8z"/>
			<path class="st1" d="M700.7,785.2c3.9,0.2,14.4,0.2,17.9-1.6c3.5-1.7,6.1-5.9,4.8-9.6c-1.8-5.1-9.4-5.5-13.7-2.2
				C705.4,775.1,703.4,780.5,700.7,785.2z"/>
			<path class="st1" d="M618.1,811.6c0.7-1.1,0.7-2.4,0.6-3.7c-0.4-4.4-3.6-14.5-6.8-17.6c-3.2,0.3-5.5,3.3-5.9,6.5s0.6,6.3,1.6,9.2
				c0.9,2.3,1.9,4.8,3.9,6.2C613.4,813.8,616.7,813.7,618.1,811.6z"/>
			<path class="st1" d="M641.8,808c-0.5-3.7-8.1-11.1-10.6-13.8c-1.8-1.2-4.3,0.1-5.1,2c-0.8,2-0.3,4.2,0.3,6.2c1,3.1,2.3,6,4.1,8.7
				c1.2,2,2.9,4,5.2,4.3C639.4,816,642.3,811.7,641.8,808z"/>
			<path class="st1" d="M686,821.2c2.6-3.2,0.6-8-2-11.2s-5.9-6.4-5.8-10.5c-4.7,2.2-7.5,9.1-6,14.1c1,3.1,2.4,6.3,5,8.1
				C679.8,823.6,683.9,823.7,686,821.2z"/>
			<path class="st1" d="M660.9,811.7c-0.8-4-3-11.2-3.8-15.2c-3.3-1.4-7.3,1.1-8.7,4.5s-0.7,7.2,0.4,10.7c0.8,2.7,2,5.4,4.2,7
				s5.9,1.7,7.5-0.6C661.7,816.3,661.3,813.9,660.9,811.7z"/>
			<path class="st1" d="M696.6,795.2c-2.6,3.5-3.5,8.4-2.1,12.6c1.6,5.1,6.4,9.1,11.7,9.8c1.4,0.2,3.1-0.1,3.7-1.3
				c0.4-1-0.1-2.2-0.7-3.2C705.6,806.8,701.4,800.8,696.6,795.2z"/>
			<path class="st1" d="M713.2,793.9L713.2,793.9L713.2,793.9c-1.5-0.6-3.3,0.7-3.7,2.1c-0.4,1.5,0.3,2.9,1,4.3
				c3.1,5.5,8.3,9.9,14.5,12.3c2.8,1.1,5.5-2,3.9-4.6C725.4,802,719.9,797,713.2,793.9L713.2,793.9z"/>
		</g>
	</g>
</g>
</svg>
