<?xml version="1.0" encoding="utf-8"?>
<!-- Generator: Adobe Illustrator 22.0.1, SVG Export Plug-In . SVG Version: 6.00 Build 0)  -->
<svg version="1.1" id="Layer_1" xmlns="http://www.w3.org/2000/svg" xmlns:xlink="http://www.w3.org/1999/xlink" x="0px" y="0px"
	 viewBox="0 0 1920 1080" style="enable-background:new 0 0 1920 1080;" xml:space="preserve">
<style type="text/css">
	.st0{fill:#FBCF66;}
</style>
<g id="Layer_9">
	<g>
		<path class="st0" d="M324.1,740.5c5.9,2.8,13,3,18.9,0.4c1.1-0.4,2.1-1.1,3-1.9c2.1-2.3,1.1-6.8-1.7-8.5c-2.8-1.7-6.4-1.2-9.4,0.2
			C332.4,732,326.9,737.6,324.1,740.5L324.1,740.5L324.1,740.5z"/>
		<path class="st0" d="M704.2,736.7c4.7,2.3,10.4-1.2,14.2-5.4c1.5-1.5,2.8-3.2,3.2-5.1s-1.1-4.5-3-4.5c-1.2,0-2.6,0.7-3.6,1.5
			C711,726.2,707.2,732.2,704.2,736.7z"/>
		<path class="st0" d="M264,543.5c-3,0.9-7.9,4.5-9.2,7.5c5.4,3.6,12.8,4,18.3,1.1c1.2-0.7,2.8-1.7,3.2-3.2c1.1-2.8-1.5-5.5-4-6.4
			C269.8,541.8,266.8,542.7,264,543.5z"/>
		<path class="st0" d="M679.9,720.9c-1.9,3-2.6,8.3-1.7,12.1l0,0l0,0c3.6-0.2,7.3-0.9,10-3c3.2-2.6,4.5-8.1,1.5-10.9
			C687,716.4,682.1,717.7,679.9,720.9z"/>
		<path class="st0" d="M353.9,818.2c-1.9,3-2.6,8.3-1.7,12.1l0,0l0,0c3.6-0.2,7.3-0.9,10-3c3.2-2.6,4.5-8.1,1.5-10.9
			C360.9,813.8,356,815,353.9,818.2z"/>
		<path class="st0" d="M323,592.3L323,592.3L323,592.3c4,3.6,14.9,5.7,18.1,2.3c3.6-3.6,1.5-11.1-3.6-11.5c-2.3-0.2-4.7,0.9-6.8,1.9
			C327.7,586.8,324.1,588.9,323,592.3z"/>
		<path class="st0" d="M547.9,653c3-1.9,4-6.8,1.1-8.7c-0.9-0.7-2.1-0.9-3.2-0.9c-3.8-0.4-8.1-0.2-11.5,1.5
			c-3.2,1.7-5.7,4.9-5.9,8.5c3.2,0.2,6.4,0.7,9.6,0.9C541.3,654.7,545.1,654.9,547.9,653z"/>
		<path class="st0" d="M79.2,664.9c3.4-5.9,2.8-13.9-1.7-19.2c-0.9-0.9-1.7-1.9-3-1.7c-1.7,0.2-2.3,2.3-2.8,4.3
			c-0.4,3.2-0.9,6.4,0.2,9.4C73.2,660.6,76.2,665.5,79.2,664.9z"/>
		<path class="st0" d="M516,727.5c1.9-1.1,3.6-3,3.6-5.1c-0.2-3.4-4.5-5.1-7.9-4.7c-3.2,0.4-9.4,6.2-13,7
			C503,729.4,510.4,730.7,516,727.5z"/>
		<path class="st0" d="M163.3,845c1.9-1.1,3.6-3,3.6-5.1c-0.2-3.4-4.5-5.1-7.9-4.7c-3.2,0.4-9.4,6.2-13,7
			C150.3,847,158,848.3,163.3,845z"/>
		<path class="st0" d="M631.8,751.4c4.9,2.1,10.4,3.2,15.8,3.2c1.5,0,3,0,4-1.1c1.2-1.1,1.5-3,1.2-4.5c-1.1-4.7-6.8-7.5-11.5-6.2
			C637.1,743.9,633.9,747.5,631.8,751.4z"/>
		<path class="st0" d="M537.9,817.4c4,1.2,8.5,0.9,12.6-0.4c1.1-0.4,2.1-0.9,2.8-1.7c1.5-1.9,0.4-4.7-1.7-5.9
			c-1.9-1.2-4.5-1.2-6.8-1.2c-3.8,0-10.9,0.2-14.2,2.1C531.7,813.8,534.7,816.3,537.9,817.4z"/>
		<path class="st0" d="M83.8,752c4,1.2,8.5,0.9,12.6-0.4c1.1-0.4,2.1-0.9,2.8-1.7c1.5-1.9,0.4-4.7-1.7-5.9c-1.9-1.2-4.5-1.2-6.8-1.2
			c-3.8,0-10.9,0.2-14.2,2.1C77.5,748.2,80.5,750.7,83.8,752z"/>
		<path class="st0" d="M578.2,705c3.4,1.5,8.3,4.5,11.9,5.1c2.1,0.4,4.7,0.7,6.4-0.7c3-1.9,2.8-6.8,0-9.2c-2.6-2.3-6.6-2.6-10-1.2
			C583.5,700.3,580.7,702.6,578.2,705z"/>
		<path class="st0" d="M741.2,813.8c3.4,1.5,8.3,4.5,11.9,5.1c2.1,0.4,4.7,0.7,6.4-0.7c3-1.9,2.8-6.8,0-9.2c-2.6-2.3-6.6-2.6-10-1.2
			C746.6,809.3,744,811.6,741.2,813.8z"/>
	</g>
</g>
</svg>
