<?xml version="1.0" encoding="utf-8"?>
<!-- Generator: Adobe Illustrator 22.0.1, SVG Export Plug-In . SVG Version: 6.00 Build 0)  -->
<svg version="1.1" id="Layer_1" xmlns="http://www.w3.org/2000/svg" xmlns:xlink="http://www.w3.org/1999/xlink" x="0px" y="0px"
	 viewBox="0 0 1920 1080" style="enable-background:new 0 0 1920 1080;" xml:space="preserve">
<style type="text/css">
	.st0{fill:#E9DB82;}
	.st1{fill:#FBCF66;}
	.st2{display:none;}
	.st3{display:inline;}
	.st4{fill:#BF7C40;}
	.st5{fill:#A16C44;}
	.st6{fill:#B5BE6D;}
	.st7{fill:#77A275;}
	.st8{fill:#D75B4D;}
	.st9{fill:#537D41;}
	.st10{fill:#478A71;}
</style>
<g id="Layer_1_1_">
	<g>
		<g>
			<path class="st0" d="M96.7,373.2C83,367.6,69.6,361.5,56.3,355c-13.3-6.4-26.4-13.2-39.5-20.1c12.9,7.3,25.9,14.2,39.1,20.9
				c13.2,6.6,26.6,12.9,40.2,18.7c27.2,11.6,55.4,21,84.4,27.3c14.5,3.1,29.2,5.2,44,6.4c14.8,1.2,29.6,1.4,44.4,0.4
				s29.5-3.1,43.9-6.5c14.4-3.5,28.5-8.2,41.9-14.3c-13.6,5.8-27.7,10.3-42.1,13.4c-14.4,3.2-29.1,5.1-43.8,6
				c-29.4,1.6-59.1-1-87.9-7.2C152,393.9,123.9,384.4,96.7,373.2z"/>
			<path class="st1" d="M382.4,384.6c1.9-0.5,3.8-1.1,4.8-2.7c2-3.2-1.3-7.2-4.8-8.6c-9.1-3.5-22.7,4.4-24.6,13.9
				C366,387.6,374.4,386.7,382.4,384.6z"/>
			<path class="st1" d="M328.8,389.8c7.3-2.7,17.1-6.8,17.5-14.6c0.1-1,0-1.9-0.5-2.7c-0.8-1.3-2.4-1.9-3.9-2
				c-4.4-0.3-8.7,2.5-11,6.4C328.7,380.7,328.3,385.4,328.8,389.8z"/>
			<path class="st1" d="M263.2,385.8c-0.8,0.2-1.5,0.6-2.1,1c-6.3,4.5-10.7,11.6-12,19.2c4.7-2.8,9.2-5.9,13.5-9.3
				c2-1.6,4-3.4,4.6-5.9C267.6,388.5,265.7,385.4,263.2,385.8z"/>
			<path class="st1" d="M278.5,404.2c4.3-4,8.5-8,12.7-12c1.4-1.3,2.8-2.8,3-4.7c0.3-2.8-2.7-5.1-5.5-5.2c-2.8,0-5.4,1.5-7.8,3.1
				c-2.5,1.8-5,3.7-6.3,6.4C273.2,394.5,276.4,402,278.5,404.2z"/>
			<path class="st1" d="M300,395.3c5.2-0.4,11.1-1.1,15.3-4.3c4.2-3.2,6.1-10,2.4-13.7c-3.8-3.9-10.8-1.8-14,2.5
				C300.5,384.2,300.2,390,300,395.3z"/>
			<path class="st1" d="M263.1,438.4c2.8-1.1,4-4.8,3.1-7.7c-0.8-2.9-3.1-5.2-5.3-7.2c-3.7-3.2-7.7-6.1-12-8.6
				c-0.5,6.7,1.5,13.6,5.4,19.1C256.3,437,259.8,439.7,263.1,438.4z"/>
			<path class="st1" d="M352.3,397.6c-6.5-0.5-13.2,1.1-18.8,4.6c5.2,4.7,12.1,9.6,19.1,8.8c4.2-0.5,9-3.2,8.6-7.4
				C360.9,399.7,356.2,397.8,352.3,397.6z"/>
			<path class="st1" d="M314.8,423.1c2.8,3,7.4,5.9,10.7,3.5c3.1-2.3,2-7.5-0.5-10.4c-4.1-4.8-12.8-7.1-19-5.6
				C308.4,415,311.3,419.3,314.8,423.1z"/>
			<path class="st1" d="M287.8,432.8c2.1,1.6,4.7,3,7.4,2.6c2.6-0.3,5.1-2.8,4.6-5.5c-0.3-1.5-1.4-2.6-2.4-3.6
				c-5.2-5-11.3-8.8-18.1-11.3C279.2,421.8,282.5,428.6,287.8,432.8z"/>
			<path class="st1" d="M219.7,429.1c1.6,4.1,4.8,8,9.1,8.9c4.3,0.8,9.4-2.7,8.9-7c-0.2-1.5-0.9-2.8-1.7-4c-3.4-5.2-8-9.5-13.3-12.5
				C219.8,417.7,218.4,425.7,219.7,429.1z"/>
		</g>
		<g>
			<path class="st0" d="M742.4,622.2c13.6-8.7,26.5-18.6,38.3-29.5c0-0.1,0-0.2,0-0.3l0,0c0-0.1,0-0.2,0-0.2
				c-12.1,10.8-25.2,20.6-39,29.1c-9.9,6.1-20.3,11.3-31.1,15.8l-4,1.6c-1.3,0.5-2.7,1.1-4.1,1.6l-8.2,2.9l-8.3,2.5
				c-1.4,0.4-2.8,0.8-4.2,1.1l-4.2,1c-22.6,5.3-46,7.2-69.2,5.5c-23.2-1.6-46.1-6.2-68.3-13.1c-22.2-6.8-43.8-15.8-64.6-26.2
				s-40.9-22.3-60.3-35.2S377,552,359,537.3c-9-7.3-17.9-14.9-26.6-22.7s-17.2-15.7-25.4-24.1c32.4,33.5,68.6,63.5,107.2,89.7
				c19.3,13.1,39.5,25,60.3,35.6c20.9,10.5,42.5,19.6,64.9,26.5c22.4,6.8,45.5,11.4,68.8,12.9c23.4,1.6,47-0.3,69.7-5.9l4.3-1.1
				c1.4-0.4,2.8-0.7,4.2-1.2l8.4-2.6l8.3-3c1.4-0.5,2.7-1.1,4.1-1.6l4.1-1.7C722.1,633.8,732.5,628.4,742.4,622.2z"/>
			<path class="st1" d="M719.7,611.6c0.6,5.2,4.1,10,8.9,12c4-6.4,3.4-16.3,1.5-23.5c-0.4-1.3-1.2-2.9-2.6-2.9
				c-0.6,0-1.2,0.3-1.7,0.7C721.6,601,719.1,606.4,719.7,611.6z"/>
			<path class="st1" d="M767.9,576.9c-5.4-1.9-10.4,4.8-9.8,10.5c0.6,5.7,4.4,10.5,6.6,15.8c2.4-2.9,6.7-13,7.5-16.7
				C772.9,582.7,771.4,578.2,767.9,576.9z"/>
			<path class="st1" d="M739.6,598.5c1.2,4.3,7.3,10.4,11.1,12.6c1.4-5.2,1.2-10.9-0.6-15.9c-0.7-1.9-1.8-3.9-3.6-4.8
				C742.5,588.7,738.4,594.3,739.6,598.5z"/>
			<path class="st1" d="M704.8,634.6c6.1-5,9.6-13,9-20.9c-0.1-1.3-0.3-2.7-1.3-3.6c-1.7-1.6-4.7-0.5-6.5,1
				C699.3,616.8,698.8,628.3,704.8,634.6z"/>
			<path class="st1" d="M799.3,578.9L799.3,578.9L799.3,578.9c8.2-3.4,15.8-8.1,22.5-14.1c1.2-1.1,2.5-3,1.5-4.3
				c-0.5-0.7-1.5-0.9-2.3-1c-2.7-0.3-5.5-0.4-8.2-0.1c-4.9,0.5-9.9,2.3-13,6.2C796.6,569.3,796,575.3,799.3,578.9z"/>
			<path class="st1" d="M778.1,583.6c3.3-2.1,11.8-8.3,13.6-11.8c1.8-3.4,1.5-8.3-1.8-10.6c-4.4-3-10.9,1.1-12.4,6.3
				C776,572.7,777.6,578.2,778.1,583.6z"/>
			<path class="st1" d="M726.8,653.5c-0.1-1.3-0.9-2.4-1.7-3.3c-2.9-3.3-11.5-9.6-15.8-10.2c-2.4,2.1-2.5,5.9-1,8.7s4.2,4.8,6.8,6.5
				c2.1,1.4,4.3,2.7,6.8,2.7C724.3,658,726.9,656,726.8,653.5z"/>
			<path class="st1" d="M743.8,636.7c-2.6-2.7-13.1-4.2-16.7-4.9c-2.1,0-3.4,2.6-2.9,4.6c0.5,2.1,2.2,3.6,3.9,4.8
				c2.6,1.9,5.4,3.5,8.4,4.7c2.1,0.9,4.7,1.5,6.7,0.5C746.6,644.6,746.4,639.4,743.8,636.7z"/>
			<path class="st1" d="M787.3,621.4c0.2-4.1-4.2-6.8-8.2-7.8c-3.9-1-8.5-1.7-10.9-5.1c-2.5,4.5-0.7,11.8,3.4,15
				c2.6,1.9,5.6,3.7,8.9,3.6C783.7,627,787.1,624.6,787.3,621.4z"/>
			<path class="st1" d="M761.5,628.5c-3-2.8-9-7.2-12-10.1c-3.5,0.9-5.2,5.2-4.4,8.7c0.9,3.5,3.7,6.2,6.6,8.4
				c2.2,1.7,4.7,3.2,7.5,3.2s5.7-2.1,5.7-4.9C764.8,631.7,763.1,629.9,761.5,628.5z"/>
			<path class="st1" d="M780.7,594.1c0,4.4,2.1,8.8,5.7,11.5c4.3,3.2,10.5,3.6,15.2,1.1c1.2-0.7,2.5-1.9,2.2-3.3
				c-0.3-1-1.4-1.7-2.4-2.1C794.8,598.2,787.8,595.8,780.7,594.1z"/>
			<path class="st1" d="M793.4,583.2L793.4,583.2L793.4,583.2c-1.5,0.4-2.3,2.5-1.7,3.9c0.5,1.4,2,2.2,3.3,2.9
				c5.7,2.6,12.5,3.1,18.9,1.5c2.9-0.7,3.2-4.8,0.4-6C807.9,582.7,800.6,581.8,793.4,583.2L793.4,583.2z"/>
		</g>
	</g>
</g>
<g id="Layer_2_1_" class="st2">
	<g class="st3">
		<g>
			<path class="st0" d="M591.8,563.4c7.4-11.7,13.7-24.1,18.9-37c0-0.1-0.1-0.1-0.1-0.2l0,0c0-0.1,0-0.1-0.1-0.2
				c-5.4,12.9-12,25.2-19.6,36.9c-5.5,8.4-11.6,16.3-18.3,23.7l-2.5,2.8c-0.8,0.9-1.7,1.9-2.6,2.7l-5.3,5.3l-5.6,5
				c-0.9,0.9-1.9,1.6-2.9,2.4l-2.9,2.4c-15.6,12.4-33.1,22.5-51.7,29.7c-18.6,7.3-38.1,12.1-57.8,15c-19.8,2.9-39.8,3.8-59.8,3.4
				c-20-0.4-39.9-2.3-59.7-5.1c-19.8-2.9-39.4-6.8-58.9-11.6c-9.7-2.4-19.4-5-29-7.8c-9.6-2.9-19.1-5.9-28.5-9.4
				c37.5,14.1,76.5,24.1,116.2,30.2c19.8,3,39.8,4.9,59.9,5.4s40.2-0.4,60.1-3.3c19.9-2.9,39.5-7.8,58.2-15.2s36.4-17.5,52-30.2
				l2.9-2.4c1-0.8,1.9-1.6,2.9-2.5l5.6-5.1l5.3-5.3c0.9-0.9,1.7-1.8,2.6-2.8l2.5-2.8C580.3,579.8,586.4,571.8,591.8,563.4z"/>
			<path class="st1" d="M570.3,563.6c2.4,3.8,6.9,6.2,11.3,6c0.7-6.4-3.3-13.9-7.5-18.8c-0.8-0.9-2-1.8-3.1-1.3
				c-0.5,0.2-0.8,0.7-1.1,1.2C567.8,554.6,567.9,559.7,570.3,563.6z"/>
			<path class="st1" d="M594.9,518.9c-4.9,0.5-6.3,7.6-3.8,11.8c2.6,4.2,7.2,6.5,10.9,9.8c0.8-3.2,0.4-12.6-0.3-15.7
				C600.9,521.5,598.1,518.6,594.9,518.9z"/>
			<path class="st1" d="M580.9,546.1c2.5,2.9,9.5,5.4,13.3,5.7c-0.8-4.6-3-8.9-6.3-12.1c-1.2-1.2-2.8-2.4-4.6-2.4
				C579.5,537.4,578.4,543.2,580.9,546.1z"/>
			<path class="st1" d="M567.2,586.9c2.9-6.1,2.7-13.7-0.7-19.5c-0.5-1-1.3-2-2.3-2.3c-1.9-0.6-3.8,1.3-4.7,3.2
				C556.4,575,560.2,584.2,567.2,586.9z"/>
			<path class="st1" d="M620,508.9L620,508.9L620,508.9c5.1-5.6,9.3-12.1,12.3-19.2c0.5-1.3,0.9-3.3-0.4-3.9
				c-0.7-0.4-1.5-0.2-2.2,0.1c-2.2,0.7-4.4,1.7-6.4,2.9c-3.6,2.2-6.9,5.5-7.8,9.6C614.4,502.4,616.2,507.3,620,508.9z"/>
			<path class="st1" d="M605.3,520.3c1.8-2.9,6.1-10.8,6.2-14.2c0.1-3.3-1.9-7-5.2-7.6c-4.6-0.7-8,4.9-7.3,9.4
				C599.7,512.6,602.9,516.3,605.3,520.3z"/>
			<path class="st1" d="M591.1,593.5c-0.5-0.9-1.5-1.5-2.5-2c-3.5-1.5-12.4-3.3-16-2.1c-1.1,2.5,0.3,5.5,2.4,7.1
				c2.2,1.6,5,2.2,7.6,2.6c2.1,0.3,4.4,0.5,6.3-0.4C590.9,597.8,592.2,595.4,591.1,593.5z"/>
			<path class="st1" d="M598.2,574.1c-3-1.2-11.7,1.5-14.8,2.3c-1.6,0.8-1.7,3.3-0.6,4.7c1.1,1.4,3,2,4.8,2.3
				c2.7,0.5,5.5,0.7,8.3,0.5c2-0.1,4.2-0.5,5.4-2.1C603.2,579.2,601.2,575.3,598.2,574.1z"/>
			<path class="st1" d="M626.4,546.3c-1.3-3.3-5.8-3.7-9.2-3.1c-3.4,0.6-7.3,1.8-10.3,0c-0.3,4.4,3.8,9.4,8.2,10.4
				c2.7,0.6,5.7,0.8,8.2-0.4C625.6,551.9,627.4,548.9,626.4,546.3z"/>
			<path class="st1" d="M608.9,561.3c-3.4-1.1-9.7-2.3-13-3.4c-2.4,1.9-2.1,6-0.2,8.4c2,2.4,5.1,3.5,8.2,4.1c2.3,0.5,4.9,0.7,7-0.3
				c2.2-1,3.7-3.7,2.6-5.9C612.7,562.6,610.7,561.8,608.9,561.3z"/>
			<path class="st1" d="M611.2,527.6c1.6,3.4,4.9,6.1,8.6,6.8c4.5,0.9,9.5-1.1,12.2-4.8c0.7-1,1.2-2.4,0.5-3.3
				c-0.6-0.7-1.7-0.8-2.7-0.8C623.6,525.5,617.3,526.2,611.2,527.6z"/>
			<path class="st1" d="M617,514.5L617,514.5L617,514.5c-1.1,0.9-0.8,2.8,0.1,3.6c0.9,0.9,2.3,1,3.6,1c5.4-0.1,10.9-2.2,15.2-5.8
				c2-1.6,0.7-4.9-1.9-4.8C628.1,508.7,622.1,510.7,617,514.5L617,514.5z"/>
		</g>
		<g>
			<path class="st0" d="M478.2,568.9c8,21.9,17.2,43.4,27.9,64.2s22.9,40.8,36.9,59.5c14.1,18.7,30.1,36,48.1,50.9
				c18,15,38.2,27.4,59.9,36.2l4.1,1.6c1.4,0.5,2.7,1.1,4.1,1.5l8.3,2.8l8.4,2.4c1.4,0.4,2.8,0.7,4.2,1.1l4.3,1
				c11.4,2.6,23,4.4,34.7,5.2c16.1,1,32.3,0.5,48.3-1.3c0.1-0.1,0.1-0.1,0.2-0.2l0,0c0.1-0.1,0.1-0.1,0.2-0.2
				c-16.2,1.6-32.5,1.9-48.6,0.6c-11.6-0.9-23.1-2.8-34.4-5.4l-4.2-1c-1.4-0.4-2.8-0.7-4.2-1.1l-8.3-2.5l-8.2-2.9
				c-1.4-0.5-2.7-1-4.1-1.6l-4-1.6c-21.4-9-41.5-21.2-59.2-36.2c-17.8-14.9-33.7-32.1-47.6-50.7c-14-18.6-26.2-38.5-36.9-59.1
				L478.2,568.9z"/>
			<path class="st1" d="M706.9,773.6c-2.6,4.6-2.5,10.5,0.2,15c6.9-2.8,12.3-11.2,15-18.2c0.5-1.3,0.8-3.1-0.4-3.9
				c-0.5-0.4-1.1-0.4-1.8-0.5C714.7,766,709.6,769,706.9,773.6z"/>
			<path class="st1" d="M766.3,773.7c-3.2-4.7-11.3-2.3-14.1,2.7c-2.9,5-2.6,11.1-3.9,16.6c3.7-0.9,13-6.6,15.9-9.1
				C767,781.4,768.5,776.9,766.3,773.7z"/>
			<path class="st1" d="M730.7,774.6c-1.5,4.2-0.2,12.7,1.6,16.8c4.2-3.4,7.4-8.1,8.9-13.2c0.6-2,0.9-4.2-0.1-6
				C738.8,768.4,732.3,770.5,730.7,774.6z"/>
			<path class="st1" d="M681.4,783.5c7.9-0.4,15.5-4.9,19.6-11.6c0.7-1.1,1.3-2.4,1.1-3.7c-0.5-2.3-3.5-3.2-5.8-3
				C687.4,765.8,680.2,774.8,681.4,783.5z"/>
			<path class="st1" d="M790.6,793.8L790.6,793.8L790.6,793.8c8.6,2.1,17.6,2.7,26.5,1.8c1.6-0.2,3.8-0.9,3.7-2.6
				c0-0.9-0.7-1.6-1.3-2.2c-2-1.9-4.2-3.5-6.6-4.9c-4.3-2.4-9.4-4-14.2-2.7C794.1,784.5,790.1,789,790.6,793.8z"/>
			<path class="st1" d="M770.7,785.2c3.9,0.2,14.4,0.2,17.9-1.6c3.5-1.7,6.1-5.9,4.8-9.6c-1.8-5.1-9.4-5.5-13.7-2.2
				C775.4,775.1,773.4,780.5,770.7,785.2z"/>
			<path class="st1" d="M688.1,811.6c0.7-1.1,0.7-2.4,0.6-3.7c-0.4-4.4-3.6-14.5-6.8-17.6c-3.2,0.3-5.5,3.3-5.9,6.5s0.6,6.3,1.6,9.2
				c0.9,2.3,1.9,4.8,3.9,6.2C683.4,813.8,686.7,813.7,688.1,811.6z"/>
			<path class="st1" d="M711.8,808c-0.5-3.7-8.1-11.1-10.6-13.8c-1.8-1.2-4.3,0.1-5.1,2c-0.8,2-0.3,4.2,0.3,6.2c1,3.1,2.3,6,4.1,8.7
				c1.2,2,2.9,4,5.2,4.3C709.4,816,712.3,811.7,711.8,808z"/>
			<path class="st1" d="M756,821.2c2.6-3.2,0.6-8-2-11.2s-5.9-6.4-5.8-10.5c-4.7,2.2-7.5,9.1-6,14.1c1,3.1,2.4,6.3,5,8.1
				C749.8,823.6,753.9,823.7,756,821.2z"/>
			<path class="st1" d="M730.9,811.7c-0.8-4-3-11.2-3.8-15.2c-3.3-1.4-7.3,1.1-8.7,4.5s-0.7,7.2,0.4,10.7c0.8,2.7,2,5.4,4.2,7
				s5.9,1.7,7.5-0.6C731.7,816.3,731.3,813.9,730.9,811.7z"/>
			<path class="st1" d="M766.6,795.2c-2.6,3.5-3.5,8.4-2.1,12.6c1.6,5.1,6.4,9.1,11.7,9.8c1.4,0.2,3.1-0.1,3.7-1.3
				c0.4-1-0.1-2.2-0.7-3.2C775.6,806.8,771.4,800.8,766.6,795.2z"/>
			<path class="st1" d="M783.2,793.9L783.2,793.9L783.2,793.9c-1.5-0.6-3.3,0.7-3.7,2.1c-0.4,1.5,0.3,2.9,1,4.3
				c3.1,5.5,8.3,9.9,14.5,12.3c2.8,1.1,5.5-2,3.9-4.6C795.4,802,789.9,797,783.2,793.9L783.2,793.9z"/>
		</g>
	</g>
</g>
<g id="Layer_3" class="st2">
	<g class="st3">
		<g>
			<path class="st4" d="M1621.2,635.4c11.7,28,37.8,49.6,67.4,55.7c22.5,4.6,45.7,0.9,68.3-3c11.5-11.5,27.6-16.9,43.1-22
				c5.9-1.9,11.9-3.9,18.1-4.8c0.2,0,0.3-0.1,0.5-0.1c0.3-0.1,0.7-0.1,1-0.2l0,0c3.1-0.5,6.3-0.6,9.4-0.4c0,0,0,0,0.1,0
				c2.7,0.2,4.4-2.8,2.9-5c-6.4-9.2-18.4-26.2-26.5-35.5c-1.7-1.9-3.3-3.9-4.8-5.9c0,0,0,0-0.1-0.1c-6.1-6.2-25.2-14.2-39.9-18.7
				c-6-1.9-11.3-3.1-14.8-3.5c-14.4-1.5-28.7,3-43.2,4.3c-17.5,1.6-35.9-1.4-52.2,5.1c-9.5,3.8-17.5,10.5-25.4,17.1
				c-2.1,1.8-4.3,3.8-5.3,6.4C1618.7,628.3,1619.9,632,1621.2,635.4z"/>
			<g>
				<path class="st5" d="M1633.7,635.1c15.5,4,31.1,7.2,46.8,9.8c2.2,0.4,4.5,0.8,6.7,1.1c1.9,0.3,3.9,0.6,5.8,0.9
					c3.7,0.6,7.4,1.1,11.1,1.6c7.9,1,15.8,2,23.7,2.9c2.1,0.2,4.3,0.4,6.4,0.6c0.5,0.1,1.1,0.1,1.6,0.1c5.2,0.5,10.5,0.9,15.8,1.3
					c3.7,0.2,7.4,0.5,11,0.7c1,0.1,1.9,0.1,2.9,0.2c3.3,0.2,6.6,0.3,10,0.5c4,0.1,8,0.3,11.9,0.4c4,0.1,8,0.1,11.9,0.2
					c3.9,0.2,7.8,0.5,11.5,1.7c2.7,0.8,5.2,2.2,7.2,4.3c0.2,0,0.3-0.1,0.5-0.1c-0.6-0.8-1.3-1.6-2.1-2.3c-1.5-1.4-3.3-2.4-5.2-3.3
					c-3.8-1.7-7.8-2.4-11.8-3c-8-0.8-15.8-1.5-23.8-2.2l-8-0.8l-1.4-0.1l-14.3-1.4c-4.8-0.4-9.7-0.9-14.5-1.4l-2.1-0.2
					c-2.4-0.3-4.7-0.5-7.1-0.8c-7.9-0.8-15.8-1.7-23.6-2.5l-9.2-1.1l-2.1-0.2l-12.4-1.4C1665.3,638.7,1649.5,636.8,1633.7,635.1z"/>
				<path class="st5" d="M1696.2,645.2c-0.7-4-1.9-7.7-3.2-11.3c-1.4-3.6-2.9-7.2-4.6-10.6c-1.7-3.4-3.6-6.8-5.7-10.1
					c-2.1-3.2-4.4-6.4-7.1-9.3c0.7,4,1.9,7.7,3.2,11.3c1.4,3.6,2.9,7.2,4.6,10.6c1.7,3.4,3.6,6.8,5.7,10.1
					C1691.2,639.1,1693.4,642.2,1696.2,645.2L1696.2,645.2z"/>
				<path class="st5" d="M1737,650.8c0.8-4,0.8-8.1,0.4-12.2c-0.5-4-1.4-8-2.8-11.9c-1.4-3.8-3.2-7.5-5.4-10.9
					c-2.2-3.4-4.8-6.6-8.1-9.1c1.3,3.9,2.8,7.5,4.2,11.1c1.4,3.6,2.7,7.2,4,10.8s2.5,7.2,3.8,10.9
					C1734.4,643.2,1735.5,646.9,1737,650.8L1737,650.8z"/>
				<path class="st5" d="M1766,652.8c2.8-4.4,4.5-9.5,5.4-14.7s0.9-10.6,0.1-15.9c-0.8-5.3-2.4-10.4-4.7-15.2
					c-2.4-4.7-5.5-9.1-9.4-12.5c2.1,4.8,3.9,9.4,5.4,14.2c1.5,4.7,2.5,9.5,3.3,14.3c0.7,4.8,1.1,9.7,1,14.6
					C1767,642.7,1766.6,647.6,1766,652.8L1766,652.8z"/>
				<path class="st5" d="M1696.7,643.5c-3.5,0.4-6.7,1.4-9.8,2.6c-3.1,1.2-6.1,2.7-9,4.4s-5.6,3.6-8.2,5.8s-5,4.5-7,7.4
					c3.4-0.9,6.4-2.2,9.4-3.6c3-1.4,5.8-3,8.6-4.6c2.8-1.7,5.5-3.4,8.2-5.4C1691.7,648.1,1694.3,646,1696.7,643.5L1696.7,643.5z"/>
				<path class="st5" d="M1736.3,649.4c-2.6,3.3-5.1,6.3-7.7,9.2s-5.4,5.5-8.3,8s-5.9,4.8-9.2,7c-3.2,2.2-6.6,4.2-10.2,6.3
					c4.2,0.2,8.4-0.8,12.3-2.4c3.9-1.6,7.6-3.9,10.8-6.6c3.2-2.8,6-6.1,8.1-9.7C1734.3,657.6,1735.9,653.6,1736.3,649.4
					L1736.3,649.4z"/>
				<path class="st5" d="M1766.7,652.4c-3.2,1.1-6,2.7-8.8,4.4c-2.7,1.7-5.3,3.6-7.8,5.6s-4.8,4.2-7,6.5c-2.2,2.4-4.3,4.9-6,7.8
					c3.2-1.1,6.1-2.7,8.8-4.4c2.7-1.7,5.3-3.6,7.8-5.6s4.8-4.2,7-6.5C1762.9,657.9,1765,655.4,1766.7,652.4L1766.7,652.4z"/>
			</g>
		</g>
		<g>
			<path class="st6" d="M1521.5,607.5c-10.6,11.7-27.2,17.7-42.9,15.6c-11.9-1.7-22.7-7.6-33.2-13.4c-3.7-7.7-10.7-13.2-17.4-18.4
				c-2.6-2-5.2-4-8.1-5.5c-0.1,0-0.2-0.1-0.2-0.1c-0.2-0.1-0.3-0.2-0.5-0.3l0,0c-1.5-0.8-3-1.4-4.6-1.9c-1.2-0.4-2.5-0.6-3.8-0.6
				c5.1-7.4,14.5-10.7,22.5-15.1c1.2-0.7,2.3-1.3,3.4-2.1h0.1c4.1-2,14.9-2.5,22.9-2.2c3.3,0.1,6.1,0.5,7.9,0.9
				c7.4,1.8,13.6,6.5,20.6,9.7c8.3,3.9,17.9,5.6,24.9,11.7c4,3.5,6.8,8.3,9.6,12.9c0.7,1.3,1.5,2.6,1.5,4.1
				C1524,604.5,1522.8,606.1,1521.5,607.5z"/>
			<g>
				<path class="st7" d="M1513.5,606.4c-8.3-0.7-16.6-1.9-24.8-3.4c-1.2-0.2-2.4-0.4-3.5-0.6c-1-0.2-2-0.4-3-0.6
					c-1.9-0.4-3.8-0.8-5.7-1.1c-4.1-0.9-8.1-1.8-12.2-2.8c-1.1-0.3-2.2-0.6-3.3-0.8c-0.3-0.1-0.5-0.1-0.8-0.2
					c-2.7-0.7-5.3-1.4-8-2.1c-1.9-0.5-3.7-1-5.6-1.6c-0.5-0.1-1-0.3-1.4-0.4c-1.7-0.5-3.3-1-5-1.5c-2-0.6-4-1.2-5.9-1.9
					c-2-0.7-4-1.4-5.9-2c-2-0.6-3.9-1.1-6-1.2c-1.5-0.1-3,0.2-4.3,0.8c-0.1,0-0.2-0.1-0.2-0.1c0.4-0.3,0.9-0.6,1.4-0.8
					c1-0.4,2.1-0.6,3.1-0.7c2.1-0.2,4.3,0.2,6.3,0.6c4.1,1,8.1,2,12.1,3.1l4.1,1l0.7,0.2l7.3,1.8c2.5,0.6,4.9,1.2,7.4,1.8l1.1,0.3
					c1.2,0.3,2.4,0.6,3.6,0.9c4,1,8.1,2,12.1,2.9l4.7,1.1l1.1,0.3l6.3,1.5C1497.3,602.6,1505.4,604.4,1513.5,606.4z"/>
				<path class="st7" d="M1480.9,600.4c1-1.8,2.3-3.4,3.5-5c1.3-1.5,2.7-3,4.1-4.4s3-2.7,4.6-3.9s3.3-2.4,5.1-3.3
					c-1,1.8-2.3,3.4-3.5,5c-1.3,1.5-2.7,3-4.1,4.4s-3,2.7-4.6,3.9C1484.5,598.3,1482.8,599.4,1480.9,600.4L1480.9,600.4z"/>
				<path class="st7" d="M1459.8,596c0.3-2.1,1-4.1,1.9-6s2.1-3.7,3.4-5.3s2.9-3.1,4.6-4.4c1.7-1.3,3.5-2.4,5.6-3.1
					c-1.3,1.7-2.7,3.2-4,4.7s-2.6,3.1-3.9,4.6s-2.5,3.1-3.7,4.7C1462.4,592.7,1461.2,594.3,1459.8,596L1459.8,596z"/>
				<path class="st7" d="M1445.2,591.9c-0.6-2.7-0.6-5.5-0.1-8.2s1.4-5.4,2.7-7.8c1.3-2.5,3-4.7,4.9-6.6c2-1.9,4.3-3.5,6.8-4.5
					c-1.9,2-3.6,3.9-5.1,6s-2.9,4.2-4.1,6.5c-1.2,2.2-2.2,4.6-3,7C1446.4,586.7,1445.8,589.3,1445.2,591.9L1445.2,591.9z"/>
				<path class="st7" d="M1480.9,599.5c1.6,0.8,3.1,1.9,4.4,3s2.5,2.4,3.7,3.7c1.1,1.3,2.1,2.8,3,4.3s1.7,3.1,2.2,4.9
					c-1.5-1-2.8-2.2-4-3.4s-2.4-2.5-3.5-3.8s-2.1-2.7-3.1-4.1C1482.7,602.6,1481.7,601.1,1480.9,599.5L1480.9,599.5z"/>
				<path class="st7" d="M1460.4,595.4c0.7,2.1,1.4,4,2.2,5.9c0.8,1.9,1.7,3.7,2.7,5.4s2.1,3.4,3.3,5c1.2,1.6,2.5,3.2,4,4.9
					c-2.1-0.7-4-1.9-5.6-3.3c-1.7-1.5-3.1-3.2-4.2-5.1c-1.1-1.9-1.9-4-2.3-6.2C1460,599.8,1459.9,597.6,1460.4,595.4L1460.4,595.4z"
					/>
				<path class="st7" d="M1444.9,591.6c1.4,1.1,2.5,2.4,3.6,3.7c1,1.3,2,2.7,2.9,4.1c0.9,1.4,1.6,2.9,2.3,4.4
					c0.7,1.5,1.3,3.1,1.6,4.9c-1.4-1.1-2.5-2.4-3.6-3.7c-1-1.3-2-2.7-2.9-4.1c-0.9-1.4-1.6-2.9-2.3-4.4
					C1445.8,594.9,1445.2,593.3,1444.9,591.6L1444.9,591.6z"/>
			</g>
		</g>
	</g>
</g>
<g id="Layer_4" class="st2">
	<g class="st3">
		<g>
			<path class="st4" d="M1661.6,332.6c10.5-15.8,29-25.9,47.8-26.1c14.3-0.2,28,4.9,41.4,9.9c5.7,8.4,14.9,13.6,23.8,18.5
				c3.4,1.9,6.8,3.8,10.5,5.1c0.1,0,0.2,0.1,0.3,0.1c0.2,0.1,0.4,0.1,0.6,0.2l0,0c1.9,0.7,3.8,1.1,5.7,1.4c1.5,0.2,3.1,0.2,4.6,0
				c-4.7,9.6-15.2,15.2-23.8,21.9c-1.3,1-2.5,2-3.6,3.1c0,0-0.1,0-0.1,0.1c-4.5,3.1-17.1,5.7-26.6,6.7c-3.9,0.4-7.3,0.6-9.5,0.4
				c-9-0.8-17.2-5.2-25.9-7.7c-10.5-3.1-22.1-3.4-31.4-9.3c-5.4-3.5-9.5-8.5-13.5-13.5c-1.1-1.4-2.2-2.8-2.5-4.5
				C1659.2,336.6,1660.4,334.5,1661.6,332.6z"/>
			<g>
				<path class="st5" d="M1669.2,334.2c9.9-0.6,19.9-0.7,29.8-0.5c1.4,0,2.8,0.1,4.3,0.1c1.2,0,2.4,0.1,3.7,0.2
					c2.3,0.1,4.7,0.2,7,0.3c5,0.3,9.9,0.7,14.9,1.1c1.3,0.1,2.7,0.3,4,0.4c0.3,0,0.7,0.1,1,0.1c3.3,0.3,6.5,0.7,9.8,1.1
					c2.3,0.3,4.6,0.6,6.8,0.9c0.6,0.1,1.2,0.2,1.8,0.2c2,0.3,4.1,0.6,6.1,0.9c2.4,0.4,4.9,0.8,7.3,1.2c2.4,0.4,4.9,0.9,7.3,1.3
					s4.8,0.6,7.2,0.3c1.7-0.2,3.5-0.7,4.9-1.7c0.1,0,0.2,0.1,0.3,0.1c-0.5,0.4-1,0.8-1.5,1.2c-1.1,0.7-2.3,1.1-3.6,1.4
					c-2.5,0.6-5.1,0.6-7.6,0.4c-5-0.4-9.9-1-14.8-1.5l-5-0.5l-0.9-0.1l-8.9-0.9c-3-0.3-6-0.6-9-0.8l-1.3-0.1c-1.5-0.1-3-0.2-4.4-0.4
					c-4.9-0.5-9.8-0.9-14.8-1.3l-5.7-0.4l-1.3-0.1l-7.7-0.6C1688.9,335.8,1679.1,335.1,1669.2,334.2z"/>
				<path class="st5" d="M1708.6,335.5c-0.9,2.3-2.1,4.5-3.3,6.5c-1.3,2.1-2.6,4-4.1,5.9s-3,3.7-4.7,5.5c-1.7,1.7-3.4,3.4-5.5,4.9
					c0.9-2.3,2.1-4.5,3.3-6.5c1.3-2.1,2.6-4,4.1-5.9s3-3.7,4.7-5.5C1704.8,338.6,1706.6,336.9,1708.6,335.5L1708.6,335.5z"/>
				<path class="st5" d="M1734.2,336.9c0,2.6-0.5,5.1-1.2,7.5c-0.8,2.4-1.8,4.7-3.1,6.9c-1.3,2.2-2.8,4.2-4.6,6
					c-1.8,1.8-3.7,3.4-6,4.6c1.3-2.2,2.6-4.3,3.9-6.3s2.5-4.1,3.8-6.1c1.2-2,2.4-4.1,3.6-6.2C1731.7,341.2,1732.9,339,1734.2,336.9
					L1734.2,336.9z"/>
				<path class="st5" d="M1752.2,339c1.2,3,1.6,6.3,1.6,9.6c-0.1,3.3-0.7,6.6-1.8,9.7c-1.1,3.1-2.7,6.1-4.7,8.7s-4.4,4.9-7.3,6.5
					c1.8-2.7,3.5-5.3,5-8c1.4-2.7,2.7-5.5,3.7-8.4s1.8-5.8,2.4-8.8C1751.6,345.4,1752,342.3,1752.2,339L1752.2,339z"/>
				<path class="st5" d="M1708.7,336.5c-2.1-0.7-3.9-1.7-5.7-2.8c-1.8-1.1-3.4-2.4-5-3.7c-1.6-1.4-3-2.9-4.3-4.5s-2.5-3.4-3.4-5.3
					c1.9,1,3.7,2.1,5.3,3.3c1.6,1.2,3.2,2.5,4.7,3.9c1.5,1.3,3,2.8,4.4,4.2C1706.2,333.2,1707.5,334.7,1708.7,336.5L1708.7,336.5z"
					/>
				<path class="st5" d="M1733.7,337.6c-1.2-2.3-2.4-4.5-3.6-6.6c-1.3-2.1-2.6-4-4.1-5.9s-3.1-3.6-4.8-5.4c-1.7-1.7-3.6-3.3-5.5-5.1
					c2.6,0.4,5,1.5,7.2,2.9s4.2,3.3,5.8,5.3c1.6,2.1,2.9,4.4,3.8,6.9C1733.4,332.4,1733.9,335,1733.7,337.6L1733.7,337.6z"/>
				<path class="st5" d="M1752.6,339.4c-1.8-1.1-3.4-2.4-4.9-3.7c-1.5-1.4-2.8-2.8-4.1-4.3c-1.3-1.5-2.4-3.1-3.5-4.8
					c-1.1-1.7-2-3.5-2.8-5.5c1.8,1.1,3.4,2.4,4.9,3.7c1.5,1.4,2.8,2.8,4.1,4.3c1.3,1.5,2.4,3.1,3.5,4.8
					C1750.9,335.6,1751.9,337.4,1752.6,339.4L1752.6,339.4z"/>
			</g>
		</g>
		<g>
			<path class="st8" d="M1547,499.9c12.6,20.1,35.6,33.4,59.4,34.3c18,0.7,35.6-5.2,52.6-11.2c7.4-10.4,19.2-16.7,30.6-22.6
				c4.4-2.3,8.8-4.5,13.4-6.1c0.1-0.1,0.3-0.1,0.4-0.1c0.3-0.1,0.5-0.2,0.8-0.3l0,0c2.4-0.8,4.8-1.3,7.3-1.5
				c1.9-0.2,3.9-0.1,5.8,0.1c-5.6-12.3-18.7-19.6-29.2-28.3c-1.5-1.3-3-2.6-4.5-4c0,0-0.1,0-0.1-0.1c-5.5-4-21.3-7.7-33.3-9.2
				c-4.9-0.7-9.2-0.9-11.9-0.8c-11.4,0.7-21.9,6-33,8.9c-13.4,3.5-28,3.6-39.9,10.7c-6.9,4.2-12.3,10.4-17.6,16.5
				c-1.4,1.7-2.9,3.5-3.3,5.6C1544.1,494.8,1545.5,497.5,1547,499.9z"/>
			<g>
				<path class="st5" d="M1699.7,493.2c0,0-6.4-0.9-9.5-0.8c-6.3,0.4-12.5,0.9-18.7,1.4l-6.3,0.4l-1.1,0.1l-11.2,0.8
					c-3.8,0.3-7.6,0.5-11.4,0.8l-1.7,0.1c-1.9,0.1-3.7,0.2-5.6,0.3c-6.2,0.4-12.5,0.8-18.7,1.1l-7.3,0.4l-1.7,0.1l-9.8,0.5
					c-12.5,0.6-25,1.2-37.5,1.9c12.5,1.1,25,1.5,37.6,1.5c1.8,0,3.6,0,5.4,0c1.5,0,3.1,0,4.6-0.1c2.9,0,5.9-0.1,8.8-0.2
					c6.3-0.2,12.5-0.5,18.8-0.9c1.7-0.1,3.4-0.2,5.1-0.4c0.4,0,0.8-0.1,1.3-0.1c4.1-0.3,8.3-0.6,12.4-1c2.9-0.3,5.8-0.6,8.6-0.9
					c0.8-0.1,1.5-0.2,2.3-0.2c2.6-0.3,5.2-0.6,7.8-0.9c3.1-0.4,6.2-0.8,9.3-1.3c3.1-0.5,6.2-1,9.3-1.4c3-0.4,9.1-0.2,9.1-0.2
					L1699.7,493.2z"/>
				<path class="st5" d="M1609,500c-1-3-2.4-5.7-3.9-8.3c-1.5-2.6-3.2-5.2-4.9-7.6c-1.8-2.4-3.7-4.8-5.7-7s-4.2-4.4-6.7-6.3
					c1,3,2.4,5.7,3.9,8.3c1.5,2.6,3.2,5.2,4.9,7.6c1.8,2.4,3.7,4.8,5.7,7C1604.3,496,1606.5,498.1,1609,500L1609,500z"/>
				<path class="st5" d="M1641.4,499.1c0.1-3.2-0.4-6.4-1.2-9.5c-0.9-3.1-2.1-6-3.7-8.8s-3.4-5.4-5.6-7.7c-2.2-2.3-4.6-4.4-7.4-6
					c1.5,2.8,3.1,5.5,4.6,8.1s3,5.2,4.5,7.8c1.5,2.6,2.9,5.2,4.3,7.9C1638.4,493.6,1639.8,496.3,1641.4,499.1L1641.4,499.1z"/>
				<path class="st5" d="M1664.1,496.9c1.6-3.8,2.3-7.9,2.3-12s-0.6-8.3-1.9-12.3s-3.1-7.7-5.6-11.1c-2.4-3.3-5.4-6.3-8.9-8.4
					c2.2,3.4,4.2,6.8,6,10.2c1.7,3.5,3.2,7,4.3,10.6c1.2,3.6,2,7.4,2.7,11.2C1663.6,488.9,1663.9,492.8,1664.1,496.9L1664.1,496.9z"
					/>
				<path class="st5" d="M1609.2,498.7c-2.6,0.8-5,2-7.3,3.3s-4.4,2.9-6.4,4.6s-3.9,3.5-5.6,5.5c-1.7,2-3.3,4.1-4.5,6.6
					c2.5-1.2,4.7-2.6,6.8-4c2.1-1.5,4.2-3.1,6.1-4.7c2-1.6,3.9-3.4,5.7-5.2C1605.9,502.8,1607.6,500.9,1609.2,498.7L1609.2,498.7z"
					/>
				<path class="st5" d="M1640.7,498.1c-1.6,2.9-3.1,5.6-4.8,8.1c-1.7,2.6-3.5,5-5.4,7.3s-4,4.5-6.2,6.6s-4.6,4.1-7.1,6.2
					c3.3-0.4,6.4-1.7,9.2-3.4c2.8-1.7,5.4-4,7.5-6.5c2.1-2.6,3.9-5.5,5.1-8.5C1640.1,504.7,1640.8,501.4,1640.7,498.1L1640.7,498.1z
					"/>
				<path class="st5" d="M1664.7,496.5c-2.3,1.3-4.4,2.9-6.3,4.5c-1.9,1.7-3.7,3.5-5.3,5.3c-1.7,1.9-3.2,3.9-4.6,6
					c-1.4,2.1-2.7,4.3-3.7,6.8c2.3-1.3,4.4-2.8,6.3-4.5s3.7-3.5,5.3-5.3c1.7-1.9,3.2-3.9,4.6-6
					C1662.4,501.2,1663.7,499,1664.7,496.5L1664.7,496.5z"/>
			</g>
		</g>
	</g>
</g>
<g id="Layer_5" class="st2">
	<g class="st3">
		<g>
			<path class="st7" d="M1708.2,314c0.4-16.8,9.5-33.1,23.5-42.2c10.6-6.9,23.3-9.6,35.7-12.1c8.2,3.6,17.6,3.2,26.6,2.7
				c3.4-0.2,6.9-0.4,10.3-1.1c0.1,0,0.2,0,0.3-0.1c0.2,0,0.4-0.1,0.6-0.1l0,0c1.7-0.4,3.4-0.9,4.9-1.7c1.2-0.6,2.4-1.3,3.5-2.2
				c1,9.5-4.2,18.6-7.5,27.7c-0.5,1.3-0.9,2.7-1.3,4c0,0,0,0,0,0.1c-1.9,4.4-10.1,12.3-16.8,17.6c-2.7,2.2-5.2,3.9-6.9,4.8
				c-7.1,3.7-15.4,4.2-23.1,6.5c-9.3,2.7-18.2,7.9-27.9,7.8c-5.7,0-11.1-1.9-16.5-3.7c-1.5-0.5-3-1.1-4-2.2
				C1708.3,318.1,1708.1,315.9,1708.2,314z"/>
			<g>
				<g>
					<path class="st9" d="M1714.6,311.6c7.2-5.2,14.6-9.9,22.1-14.4c1.1-0.7,2.2-1.3,3.2-1.9c0.9-0.5,1.9-1.1,2.8-1.6
						c1.8-1,3.6-2,5.4-3.1c3.9-2.1,7.7-4.2,11.6-6.2c1.1-0.5,2.1-1.1,3.2-1.6c0.3-0.1,0.5-0.3,0.8-0.4c2.6-1.3,5.2-2.6,7.9-3.8
						c1.8-0.9,3.7-1.7,5.5-2.6c0.5-0.2,1-0.4,1.4-0.7c1.7-0.8,3.3-1.5,5-2.2c2-0.9,4-1.8,6.1-2.6c2-0.8,4.1-1.7,6.1-2.5
						c2-0.9,3.9-1.8,5.6-3.2c1.2-1,2.3-2.2,2.9-3.6c0.1,0,0.2,0,0.3-0.1c-0.1,0.5-0.3,1.1-0.6,1.6c-0.5,1-1.2,1.9-2,2.7
						c-1.6,1.6-3.5,2.8-5.5,3.9c-4,2-7.9,3.9-11.8,5.9l-4,2l-0.7,0.4l-7.1,3.6c-2.4,1.2-4.8,2.4-7.2,3.6l-1,0.5
						c-1.2,0.6-2.3,1.2-3.5,1.8c-3.9,2-7.8,4-11.7,6l-4.5,2.4l-1,0.5l-6.1,3.2C1730.2,303.4,1722.5,307.6,1714.6,311.6z"/>
					<path class="st9" d="M1744.8,293.9c0.4,2.2,0.6,4.3,0.6,6.5c0,2.1-0.1,4.3-0.3,6.4c-0.2,2.1-0.5,4.2-0.9,6.3
						c-0.4,2.1-1,4.2-1.8,6.2c-0.4-2.2-0.6-4.3-0.6-6.5c0-2.1,0.1-4.3,0.3-6.4c0.2-2.1,0.5-4.2,0.9-6.3
						C1743.4,298.1,1743.9,296,1744.8,293.9L1744.8,293.9z"/>
					<path class="st9" d="M1764.7,282.8c1.2,1.9,2.1,4,2.6,6.2c0.6,2.2,0.9,4.4,0.9,6.7c0.1,2.2-0.1,4.5-0.6,6.7s-1.2,4.3-2.3,6.3
						c-0.1-2.3-0.1-4.4-0.1-6.6c0-2.1,0-4.3-0.1-6.4s-0.1-4.2-0.2-6.4C1764.8,287.3,1764.7,285.1,1764.7,282.8L1764.7,282.8z"/>
					<path class="st9" d="M1779.2,276c2.3,1.7,4.2,4,5.7,6.5s2.6,5.3,3.3,8.1c0.7,2.9,0.9,5.8,0.6,8.7c-0.3,2.9-1,5.8-2.3,8.3
						c0.1-2.9,0.1-5.6-0.1-8.4c-0.2-2.7-0.6-5.4-1.2-8s-1.4-5.2-2.4-7.7C1781.7,281,1780.5,278.5,1779.2,276L1779.2,276z"/>
					<path class="st9" d="M1745.4,294.6c-1.9,0.5-3.7,0.6-5.6,0.6c-1.8,0-3.7-0.2-5.5-0.5s-3.6-0.7-5.4-1.3
						c-1.7-0.6-3.5-1.3-5.1-2.4c1.9-0.2,3.7-0.1,5.6,0c1.8,0.1,3.6,0.4,5.4,0.7c1.8,0.3,3.5,0.7,5.3,1.1
						C1741.9,293.3,1743.6,293.8,1745.4,294.6L1745.4,294.6z"/>
					<path class="st9" d="M1764.6,283.7c-2-1.2-3.9-2.2-5.8-3.2s-3.9-1.8-5.9-2.5s-4-1.3-6.1-1.8s-4.2-0.8-6.5-1.2
						c2.1-0.9,4.5-1.3,6.8-1.2c2.3,0,4.7,0.5,6.9,1.3c2.2,0.8,4.3,1.9,6.1,3.4C1761.9,279.9,1763.5,281.6,1764.6,283.7L1764.6,283.7
						z"/>
					<path class="st9" d="M1779.6,276c-1.9,0.1-3.6-0.2-5.4-0.5c-1.7-0.3-3.5-0.8-5.1-1.3c-1.7-0.5-3.3-1.2-4.9-2s-3.2-1.6-4.7-2.8
						c1.9-0.1,3.6,0.2,5.4,0.5c1.7,0.3,3.5,0.8,5.1,1.3c1.7,0.5,3.3,1.2,4.9,2C1776.6,274,1778.2,274.9,1779.6,276L1779.6,276z"/>
				</g>
			</g>
		</g>
		<g>
			<path class="st4" d="M1219.3,307.6c6,11.3,17.9,19.3,30.6,20.7c9.6,1,19.2-1.5,28.6-4c4.4-5.3,10.9-8.2,17.2-11
				c2.4-1.1,4.9-2.1,7.4-2.7c0.1,0,0.1,0,0.2-0.1c0.1,0,0.3-0.1,0.4-0.1l0,0c1.3-0.3,2.6-0.5,4-0.5c1,0,2.1,0.1,3.1,0.3
				c-2.6-6.8-9.3-11.3-14.6-16.4c-0.8-0.7-1.5-1.5-2.3-2.3l0,0c-2.8-2.4-11.1-4.9-17.5-6.2c-2.6-0.5-4.9-0.9-6.4-0.9
				c-6.1-0.1-12,2.4-18,3.5c-7.3,1.4-15.1,0.9-21.8,4.2c-3.9,2-7,5.1-10,8.2c-0.8,0.9-1.7,1.8-2,2.9
				C1218,304.8,1218.6,306.3,1219.3,307.6z"/>
			<g>
				<path class="st5" d="M1224.6,307c6.7,1.1,13.4,1.8,20.1,2.3c1,0.1,1.9,0.1,2.9,0.2c0.8,0.1,1.7,0.1,2.5,0.1
					c1.6,0.1,3.2,0.2,4.7,0.2c3.4,0.1,6.7,0.2,10.1,0.2c0.9,0,1.8,0,2.7,0c0.2,0,0.4,0,0.7,0c2.2,0,4.5,0,6.7-0.1
					c1.6,0,3.1-0.1,4.7-0.1c0.4,0,0.8,0,1.2,0c1.4-0.1,2.8-0.1,4.2-0.2c1.7-0.1,3.4-0.2,5-0.3c1.7-0.1,3.4-0.3,5-0.4
					s3.3-0.1,4.9,0.3c1.2,0.2,2.3,0.7,3.2,1.5c0.1,0,0.1,0,0.2-0.1c-0.3-0.3-0.6-0.6-1-0.9c-0.7-0.5-1.5-0.9-2.3-1.2
					c-1.6-0.6-3.4-0.7-5.1-0.8c-3.4,0-6.7,0-10.1,0h-3.4h-0.6h-6.1c-2.1,0-4.1,0-6.1,0h-0.9c-1,0-2,0-3,0c-3.3,0-6.7-0.1-10-0.1
					l-3.9-0.1h-0.9l-5.3-0.1C1238,307.3,1231.3,307.1,1224.6,307z"/>
				<path class="st5" d="M1251.2,308.8c-0.4-1.6-1.1-3.2-1.8-4.6c-0.7-1.5-1.5-2.9-2.4-4.3s-1.8-2.7-2.8-4s-2.1-2.5-3.4-3.6
					c0.4,1.6,1.1,3.2,1.8,4.6c0.7,1.5,1.5,2.9,2.4,4.3s1.8,2.7,2.8,4C1248.9,306.4,1250,307.6,1251.2,308.8L1251.2,308.8z"/>
				<path class="st5" d="M1268.6,309.5c0.2-1.7,0-3.5-0.3-5.1c-0.4-1.7-0.9-3.3-1.6-4.9s-1.6-3-2.7-4.4c-1.1-1.3-2.3-2.6-3.8-3.5
					c0.7,1.6,1.5,3.1,2.2,4.5c0.7,1.5,1.4,2.9,2.1,4.4s1.4,2.9,2,4.4C1267.2,306.4,1267.9,307.9,1268.6,309.5L1268.6,309.5z"/>
				<path class="st5" d="M1280.9,309.2c1-2,1.5-4.2,1.7-6.4c0.2-2.2,0-4.5-0.6-6.7c-0.5-2.2-1.4-4.3-2.6-6.2
					c-1.2-1.9-2.7-3.6-4.5-4.9c1.1,1.9,2,3.8,2.8,5.7c0.8,1.9,1.4,3.9,1.9,5.9s0.8,4,1,6.1C1280.9,304.9,1281,307,1280.9,309.2
					L1280.9,309.2z"/>
				<path class="st5" d="M1251.4,308.1c-1.4,0.3-2.8,0.9-4,1.5c-1.3,0.6-2.5,1.4-3.6,2.2c-1.1,0.8-2.2,1.7-3.2,2.7s-1.9,2.1-2.7,3.4
					c1.4-0.5,2.6-1.2,3.8-1.9c1.2-0.7,2.3-1.5,3.4-2.3s2.2-1.7,3.2-2.6C1249.5,310.2,1250.5,309.2,1251.4,308.1L1251.4,308.1z"/>
				<path class="st5" d="M1268.3,308.9c-1,1.5-1.9,2.9-2.9,4.2c-1,1.3-2,2.5-3.1,3.7s-2.3,2.3-3.6,3.3c-1.3,1-2.6,2-4,3
					c1.8-0.1,3.5-0.7,5.1-1.5s3-1.9,4.3-3.2c1.2-1.3,2.3-2.8,3-4.4C1267.8,312.5,1268.3,310.7,1268.3,308.9L1268.3,308.9z"/>
				<path class="st5" d="M1281.2,309c-1.3,0.6-2.4,1.4-3.5,2.2c-1.1,0.8-2.1,1.7-3,2.7c-1,0.9-1.9,2-2.7,3c-0.8,1.1-1.6,2.2-2.2,3.5
					c1.3-0.6,2.4-1.4,3.5-2.2c1.1-0.8,2.1-1.7,3-2.7c1-1,1.9-2,2.7-3C1279.8,311.4,1280.6,310.3,1281.2,309L1281.2,309z"/>
			</g>
		</g>
		<g>
			<path class="st7" d="M1528.2,276.3c-1.5,11.6-9.1,22.2-19.5,27.5c-7.9,4-16.9,4.9-25.7,5.7c-5.4-3.1-11.9-3.5-18.2-3.8
				c-2.4-0.1-4.8-0.2-7.2,0c-0.1,0-0.1,0-0.2,0s-0.3,0-0.4,0l0,0c-1.2,0.1-2.4,0.4-3.6,0.8c-0.9,0.3-1.8,0.7-2.6,1.2
				c0-6.6,4.3-12.6,7.3-18.6c0.4-0.9,0.8-1.8,1.2-2.7l0,0c1.7-2.9,7.9-7.8,13-10.9c2.1-1.3,3.9-2.3,5.1-2.8c5.2-2,11-1.8,16.5-2.7
				c6.7-1.1,13.2-4.1,19.9-3.3c3.9,0.5,7.6,2.2,11.2,3.8c1,0.5,2,1,2.6,1.9C1528.4,273.5,1528.4,275,1528.2,276.3z"/>
			<g>
				<path class="st10" d="M1523.5,277.5c-5.3,3-10.8,5.8-16.4,8.3c-0.8,0.4-1.6,0.7-2.4,1.1c-0.7,0.3-1.4,0.6-2.1,0.9
					c-1.3,0.6-2.6,1.1-4,1.7c-2.8,1.2-5.7,2.3-8.5,3.4c-0.8,0.3-1.6,0.6-2.3,0.9c-0.2,0.1-0.4,0.1-0.6,0.2c-1.9,0.7-3.8,1.4-5.7,2.1
					c-1.3,0.5-2.7,0.9-4,1.4c-0.4,0.1-0.7,0.2-1.1,0.3c-1.2,0.4-2.4,0.8-3.7,1.2c-1.5,0.4-2.9,0.9-4.4,1.3s-3,0.8-4.4,1.3
					s-2.8,1-4.1,1.8c-0.9,0.6-1.7,1.3-2.3,2.3c-0.1,0-0.1,0-0.2,0c0.1-0.4,0.3-0.7,0.5-1.1c0.4-0.7,1-1.2,1.6-1.7
					c1.2-1,2.7-1.7,4.1-2.3c2.9-1.1,5.7-2.1,8.6-3.2l2.9-1.1l0.5-0.2l5.2-1.9c1.8-0.7,3.5-1.3,5.2-2l0.8-0.3c0.9-0.3,1.7-0.7,2.6-1
					c2.9-1.1,5.7-2.2,8.5-3.3l3.3-1.3l0.8-0.3l4.5-1.8C1512.2,282,1517.8,279.7,1523.5,277.5z"/>
				<path class="st10" d="M1501.3,287.5c-0.1-1.5-0.1-3,0.1-4.5c0.1-1.5,0.4-3,0.7-4.4c0.3-1.5,0.7-2.9,1.1-4.3
					c0.5-1.4,1-2.8,1.7-4.2c0.1,1.5,0.1,3-0.1,4.5c-0.1,1.5-0.4,3-0.7,4.4c-0.3,1.5-0.7,2.9-1.1,4.3
					C1502.6,284.7,1502.1,286.1,1501.3,287.5L1501.3,287.5z"/>
				<path class="st10" d="M1486.7,293.7c-0.7-1.4-1.1-2.9-1.4-4.5c-0.2-1.5-0.3-3.1-0.2-4.7c0.1-1.6,0.4-3.1,0.9-4.6
					s1.1-2.9,2.1-4.2c-0.1,1.6-0.3,3.1-0.4,4.6c-0.2,1.5-0.3,2.9-0.4,4.4s-0.2,2.9-0.3,4.4C1486.9,290.6,1486.9,292.1,1486.7,293.7
					L1486.7,293.7z"/>
				<path class="st10" d="M1476.1,297.4c-1.5-1.4-2.6-3.1-3.5-4.9s-1.4-3.8-1.6-5.9c-0.2-2-0.2-4.1,0.2-6.1c0.4-2,1.1-3.9,2.2-5.6
					c-0.3,2-0.5,3.9-0.6,5.8s0,3.8,0.2,5.6c0.2,1.9,0.6,3.7,1.1,5.5C1474.7,293.7,1475.4,295.5,1476.1,297.4L1476.1,297.4z"/>
				<path class="st10" d="M1500.9,287c1.3-0.2,2.6-0.1,3.9,0s2.5,0.4,3.8,0.7c1.2,0.3,2.4,0.8,3.6,1.3s2.3,1.2,3.3,2
					c-1.3,0-2.6-0.2-3.9-0.4c-1.2-0.2-2.5-0.5-3.7-0.9c-1.2-0.3-2.4-0.7-3.6-1.2C1503.3,288.1,1502.1,287.6,1500.9,287L1500.9,287z"
					/>
				<path class="st10" d="M1486.8,293.1c1.3,1,2.5,1.8,3.8,2.7c1.3,0.8,2.5,1.5,3.9,2.2c1.3,0.6,2.7,1.2,4.1,1.7s2.9,0.9,4.4,1.3
					c-1.5,0.5-3.2,0.5-4.8,0.4c-1.6-0.2-3.2-0.7-4.7-1.4c-1.5-0.7-2.8-1.6-4-2.8C1488.4,296,1487.4,294.6,1486.8,293.1L1486.8,293.1
					z"/>
				<path class="st10" d="M1475.8,297.3c1.3,0.1,2.5,0.4,3.7,0.7c1.2,0.4,2.3,0.8,3.5,1.3c1.1,0.5,2.2,1.1,3.3,1.7
					c1.1,0.7,2.1,1.4,3,2.3c-1.3-0.1-2.5-0.4-3.7-0.7c-1.2-0.4-2.3-0.8-3.5-1.3c-1.1-0.5-2.2-1.1-3.3-1.7
					C1477.8,298.9,1476.8,298.2,1475.8,297.3L1475.8,297.3z"/>
			</g>
		</g>
	</g>
</g>
</svg>
