<?xml version="1.0" encoding="utf-8"?>
<!-- Generator: Adobe Illustrator 22.0.1, SVG Export Plug-In . SVG Version: 6.00 Build 0)  -->
<svg version="1.1" id="Layer_1" xmlns="http://www.w3.org/2000/svg" xmlns:xlink="http://www.w3.org/1999/xlink" x="0px" y="0px"
	 viewBox="0 0 1920 1080" style="enable-background:new 0 0 1920 1080;" xml:space="preserve">
<style type="text/css">
	.st0{fill:#E9DB82;}
	.st1{fill:#FBCF66;}
</style>
<g id="Layer_1_1_">
	<g>
		<g>
			<path class="st0" d="M96.7,473.2C83,467.6,69.6,461.5,56.3,455c-13.3-6.4-26.4-13.2-39.5-20.1c12.9,7.3,25.9,14.2,39.1,20.9
				c13.2,6.6,26.6,12.9,40.2,18.7c27.2,11.6,55.4,21,84.4,27.3c14.5,3.1,29.2,5.2,44,6.4c14.8,1.2,29.6,1.4,44.4,0.4
				s29.5-3.1,43.9-6.5c14.4-3.5,28.5-8.2,41.9-14.3c-13.6,5.8-27.7,10.3-42.1,13.4c-14.4,3.2-29.1,5.1-43.8,6
				c-29.4,1.6-59.1-1-87.9-7.2C152,493.9,123.9,484.4,96.7,473.2z"/>
			<path class="st1" d="M382.4,484.6c1.9-0.5,3.8-1.1,4.8-2.7c2-3.2-1.3-7.2-4.8-8.6c-9.1-3.5-22.7,4.4-24.6,13.9
				C366,487.6,374.4,486.7,382.4,484.6z"/>
			<path class="st1" d="M328.8,489.8c7.3-2.7,17.1-6.8,17.5-14.6c0.1-1,0-1.9-0.5-2.7c-0.8-1.3-2.4-1.9-3.9-2
				c-4.4-0.3-8.7,2.5-11,6.4C328.7,480.7,328.3,485.4,328.8,489.8z"/>
			<path class="st1" d="M263.2,485.8c-0.8,0.2-1.5,0.6-2.1,1c-6.3,4.5-10.7,11.6-12,19.2c4.7-2.8,9.2-5.9,13.5-9.3
				c2-1.6,4-3.4,4.6-5.9C267.6,488.5,265.7,485.4,263.2,485.8z"/>
			<path class="st1" d="M278.5,504.2c4.3-4,8.5-8,12.7-12c1.4-1.3,2.8-2.8,3-4.7c0.3-2.8-2.7-5.1-5.5-5.2c-2.8,0-5.4,1.5-7.8,3.1
				c-2.5,1.8-5,3.7-6.3,6.4C273.2,494.5,276.4,502,278.5,504.2z"/>
			<path class="st1" d="M300,495.3c5.2-0.4,11.1-1.1,15.3-4.3c4.2-3.2,6.1-10,2.4-13.7c-3.8-3.9-10.8-1.8-14,2.5
				C300.5,484.2,300.2,490,300,495.3z"/>
			<path class="st1" d="M263.1,538.4c2.8-1.1,4-4.8,3.1-7.7c-0.8-2.9-3.1-5.2-5.3-7.2c-3.7-3.2-7.7-6.1-12-8.6
				c-0.5,6.7,1.5,13.6,5.4,19.1C256.3,537,259.8,539.7,263.1,538.4z"/>
			<path class="st1" d="M352.3,497.6c-6.5-0.5-13.2,1.1-18.8,4.6c5.2,4.7,12.1,9.6,19.1,8.8c4.2-0.5,9-3.2,8.6-7.4
				C360.9,499.7,356.2,497.8,352.3,497.6z"/>
			<path class="st1" d="M314.8,523.1c2.8,3,7.4,5.9,10.7,3.5c3.1-2.3,2-7.5-0.5-10.4c-4.1-4.8-12.8-7.1-19-5.6
				C308.4,515,311.3,519.3,314.8,523.1z"/>
			<path class="st1" d="M287.8,532.8c2.1,1.6,4.7,3,7.4,2.6c2.6-0.3,5.1-2.8,4.6-5.5c-0.3-1.5-1.4-2.6-2.4-3.6
				c-5.2-5-11.3-8.8-18.1-11.3C279.2,521.8,282.5,528.6,287.8,532.8z"/>
			<path class="st1" d="M219.7,529.1c1.6,4.1,4.8,8,9.1,8.9c4.3,0.8,9.4-2.7,8.9-7c-0.2-1.5-0.9-2.8-1.7-4c-3.4-5.2-8-9.5-13.3-12.5
				C219.8,517.7,218.4,525.7,219.7,529.1z"/>
		</g>
		<g>
			<path class="st0" d="M742.4,722.2c13.6-8.7,26.5-18.6,38.3-29.5c0-0.1,0-0.2,0-0.3l0,0c0-0.1,0-0.2,0-0.2
				c-12.1,10.8-25.2,20.6-39,29.1c-9.9,6.1-20.3,11.3-31.1,15.8l-4,1.6c-1.3,0.5-2.7,1.1-4.1,1.6l-8.2,2.9l-8.3,2.5
				c-1.4,0.4-2.8,0.8-4.2,1.1l-4.2,1c-22.6,5.3-46,7.2-69.2,5.5c-23.2-1.6-46.1-6.2-68.3-13.1c-22.2-6.8-43.8-15.8-64.6-26.2
				s-40.9-22.3-60.3-35.2S377,652,359,637.3c-9-7.3-17.9-14.9-26.6-22.7s-17.2-15.7-25.4-24.1c32.4,33.5,68.6,63.5,107.2,89.7
				c19.3,13.1,39.5,25,60.3,35.6c20.9,10.5,42.5,19.6,64.9,26.5c22.4,6.8,45.5,11.4,68.8,12.9c23.4,1.6,47-0.3,69.7-5.9l4.3-1.1
				c1.4-0.4,2.8-0.7,4.2-1.2l8.4-2.6l8.3-3c1.4-0.5,2.7-1.1,4.1-1.6l4.1-1.7C722.1,733.8,732.5,728.4,742.4,722.2z"/>
			<path class="st1" d="M719.7,711.6c0.6,5.2,4.1,10,8.9,12c4-6.4,3.4-16.3,1.5-23.5c-0.4-1.3-1.2-2.9-2.6-2.9
				c-0.6,0-1.2,0.3-1.7,0.7C721.6,701,719.1,706.4,719.7,711.6z"/>
			<path class="st1" d="M767.9,676.9c-5.4-1.9-10.4,4.8-9.8,10.5c0.6,5.7,4.4,10.5,6.6,15.8c2.4-2.9,6.7-13,7.5-16.7
				C772.9,682.7,771.4,678.2,767.9,676.9z"/>
			<path class="st1" d="M739.6,698.5c1.2,4.3,7.3,10.4,11.1,12.6c1.4-5.2,1.2-10.9-0.6-15.9c-0.7-1.9-1.8-3.9-3.6-4.8
				C742.5,688.7,738.4,694.3,739.6,698.5z"/>
			<path class="st1" d="M704.8,734.6c6.1-5,9.6-13,9-20.9c-0.1-1.3-0.3-2.7-1.3-3.6c-1.7-1.6-4.7-0.5-6.5,1
				C699.3,716.8,698.8,728.3,704.8,734.6z"/>
			<path class="st1" d="M799.3,678.9L799.3,678.9L799.3,678.9c8.2-3.4,15.8-8.1,22.5-14.1c1.2-1.1,2.5-3,1.5-4.3
				c-0.5-0.7-1.5-0.9-2.3-1c-2.7-0.3-5.5-0.4-8.2-0.1c-4.9,0.5-9.9,2.3-13,6.2C796.6,669.3,796,675.3,799.3,678.9z"/>
			<path class="st1" d="M778.1,683.6c3.3-2.1,11.8-8.3,13.6-11.8c1.8-3.4,1.5-8.3-1.8-10.6c-4.4-3-10.9,1.1-12.4,6.3
				C776,672.7,777.6,678.2,778.1,683.6z"/>
			<path class="st1" d="M726.8,753.5c-0.1-1.3-0.9-2.4-1.7-3.3c-2.9-3.3-11.5-9.6-15.8-10.2c-2.4,2.1-2.5,5.9-1,8.7s4.2,4.8,6.8,6.5
				c2.1,1.4,4.3,2.7,6.8,2.7C724.3,758,726.9,756,726.8,753.5z"/>
			<path class="st1" d="M743.8,736.7c-2.6-2.7-13.1-4.2-16.7-4.9c-2.1,0-3.4,2.6-2.9,4.6c0.5,2.1,2.2,3.6,3.9,4.8
				c2.6,1.9,5.4,3.5,8.4,4.7c2.1,0.9,4.7,1.5,6.7,0.5C746.6,744.6,746.4,739.4,743.8,736.7z"/>
			<path class="st1" d="M787.3,721.4c0.2-4.1-4.2-6.8-8.2-7.8c-3.9-1-8.5-1.7-10.9-5.1c-2.5,4.5-0.7,11.8,3.4,15
				c2.6,1.9,5.6,3.7,8.9,3.6C783.7,727,787.1,724.6,787.3,721.4z"/>
			<path class="st1" d="M761.5,728.5c-3-2.8-9-7.2-12-10.1c-3.5,0.9-5.2,5.2-4.4,8.7c0.9,3.5,3.7,6.2,6.6,8.4
				c2.2,1.7,4.7,3.2,7.5,3.2s5.7-2.1,5.7-4.9C764.8,731.7,763.1,729.9,761.5,728.5z"/>
			<path class="st1" d="M780.7,694.1c0,4.4,2.1,8.8,5.7,11.5c4.3,3.2,10.5,3.6,15.2,1.1c1.2-0.7,2.5-1.9,2.2-3.3
				c-0.3-1-1.4-1.7-2.4-2.1C794.8,698.2,787.8,695.8,780.7,694.1z"/>
			<path class="st1" d="M793.4,683.2L793.4,683.2L793.4,683.2c-1.5,0.4-2.3,2.5-1.7,3.9c0.5,1.4,2,2.2,3.3,2.9
				c5.7,2.6,12.5,3.1,18.9,1.5c2.9-0.7,3.2-4.8,0.4-6C807.9,682.7,800.6,681.8,793.4,683.2L793.4,683.2z"/>
		</g>
	</g>
</g>
</svg>
