<?xml version="1.0" encoding="utf-8"?>
<!-- Generator: Adobe Illustrator 23.0.6, SVG Export Plug-In . SVG Version: 6.00 Build 0)  -->
<svg version="1.1" id="Layer_1" xmlns="http://www.w3.org/2000/svg" xmlns:xlink="http://www.w3.org/1999/xlink" x="0px" y="0px"
	 viewBox="0 0 1967 6680" style="enable-background:new 0 0 1967 6680;" xml:space="preserve">
<style type="text/css">
	.st0{fill:none;}
	.st1{enable-background:new    ;}
	.st2{fill:#4D4032;}
	.st3{font-family:'ArialUnicodeMS';}
	.st4{font-size:35px;}
	.st5{font-family:'ArialMT';}
	.st6{fill:#FFF8DE;}
	.st7{font-size:90px;}
	.st8{fill:#FFF8DD;}
	.st9{font-size:50px;}
	.st10{fill:#4B4035;}
	.st11{font-size:30px;}
	.st12{font-size:28px;}
	.st13{fill:#BA6832;}
</style>
<rect id="backgroundrect" class="st0" width="1967" height="6680"/>
<title>6.1</title>
<g>
	<title>Layer 1</title>
	<text transform="matrix(1 0 0 1 428.4987 148.9856)" class="st1"><tspan x="0" y="0" class="st2 st3 st4">ในบั้นปลายชีวิตหลายคนเลือกที่จะทำเกษตรกรรม</tspan><tspan x="690.1" y="0" class="st2 st5 st4"> </tspan><tspan x="699.9" y="0" class="st2 st3 st4">แต่การจะทำ</tspan></text>
	<text transform="matrix(1 0 0 1 428.4987 190.9856)" class="st1"><tspan x="0" y="0" class="st2 st3 st4">เกษตรนั้นไม่ใช่เพียงความอยากทำก็ทำได้เลย</tspan><tspan x="637.2" y="0" class="st2 st5 st4">  </tspan><tspan x="656.6" y="0" class="st2 st3 st4">นอกจากความรู้ความ</tspan></text>
	<text transform="matrix(1 0 0 1 428.4987 232.9856)" class="st1"><tspan x="0" y="0" class="st2 st3 st4">สามารถเรายังต้องมีความมุ่งมั่น</tspan><tspan x="431" y="0" class="st2 st5 st4">  </tspan><tspan x="450.4" y="0" class="st2 st3 st4">ตั้งใจที่แน่วแน่ไม่ถอดใจกลางคัน</tspan></text>
	<text transform="matrix(1 0 0 1 428.4987 274.9856)" class="st1"><tspan x="0" y="0" class="st2 st3 st4">ไม่เช่นนั้นเราคงได้</tspan><tspan x="262.8" y="0" class="st2 st5 st4"> </tspan><tspan x="272.5" y="0" class="st2 st3 st4">ล้มเหลวในสักวันหนึ่งซึ่งเราขอใช้พื้นที่นี้ในการ</tspan></text>
	<text transform="matrix(1 0 0 1 428.4987 316.9856)" class="st1"><tspan x="0" y="0" class="st2 st3 st4">กระจายเคล็ดเล็กๆ</tspan><tspan x="253.3" y="0" class="st2 st5 st4"> </tspan><tspan x="263" y="0" class="st2 st3 st4">ที่ไม่ลับให้กับทุกคน</tspan></text>
	<text id="svg_6" transform="matrix(1 0 0 1 314.447 1274.5356)" class="st1"><tspan x="0" y="0" class="st6 st5 st7">3 </tspan><tspan x="75.1" y="0" class="st6 st3 st7">ประการจำเป็น</tspan></text>
	<text id="svg_7" transform="matrix(1 0 0 1 989.2188 1831.9109)" class="st8 st3 st9">อุดมการณ์</text>
	<text transform="matrix(1 0 0 1 989.2188 1890.5409)" class="st1"><tspan x="0" y="0" class="st8 st3 st4">การทำสิ่งใดสิ่งหนึ่งด้วยความมุ่งมั่นตั้งใจ</tspan><tspan x="562.1" y="0" class="st8 st5 st4"> </tspan><tspan x="571.9" y="0" class="st8 st3 st4">มีความเชื่อ</tspan></text>
	<text transform="matrix(1 0 0 1 989.2188 1932.5409)" class="st1"><tspan x="0" y="0" class="st8 st3 st4">ว่าการทำเกษตร</tspan><tspan x="224.5" y="0" class="st8 st5 st4"> </tspan><tspan x="234.3" y="0" class="st8 st3 st4">นำไปซึ่งความมั่นคง</tspan><tspan x="512.1" y="0" class="st8 st5 st4"> </tspan><tspan x="521.9" y="0" class="st8 st3 st4">เป็นนายตัวเอง</tspan><tspan x="723.5" y="0" class="st8 st5 st4"> </tspan></text>
	<text transform="matrix(1 0 0 1 989.2188 1974.5409)" class="st1"><tspan x="0" y="0" class="st8 st3 st4">สามารถหาเลี้ยงชีพได้</tspan><tspan x="307.8" y="0" class="st8 st5 st4"> </tspan><tspan x="317.6" y="0" class="st8 st3 st4">ไม่อดตาย</tspan><tspan x="455.8" y="0" class="st8 st5 st4"> </tspan><tspan x="465.5" y="0" class="st8 st3 st4">ทั้งยังเป็นอาชีพที่มี</tspan></text>
	<text transform="matrix(1 0 0 1 989.2188 2016.5409)" class="st1"><tspan x="0" y="0" class="st8 st3 st4">ศักดิ์ศรี</tspan><tspan x="100.7" y="0" class="st8 st5 st4"> </tspan><tspan x="110.5" y="0" class="st8 st3 st4">มีปัญหาอุปสรรคก็ไม่ยอมแพ้</tspan><tspan x="503.8" y="0" class="st8 st5 st4"> </tspan><tspan x="513.5" y="0" class="st8 st3 st4">พร้อมที่จะเดิน</tspan></text>
	<text transform="matrix(1 0 0 1 989.2188 2058.541)" class="st8 st3 st4">หน้าไปสู่จุดมุ่งหมาย</text>
	<text id="svg_13" transform="matrix(1 0 0 1 429.4587 2638.8508)" class="st8 st3 st9">วิชาการ</text>
	<text transform="matrix(1 0 0 1 429.4587 2694.481)" class="st1"><tspan x="0" y="0" class="st8 st3 st4">การทำเกษตรด้วยความรู้ความสามารถที่ได้ศึกษา</tspan><tspan x="677.7" y="0" class="st8 st5 st4"> </tspan></text>
	<text transform="matrix(1 0 0 1 429.4587 2736.481)" class="st1"><tspan x="0" y="0" class="st8 st3 st4">ร่ำเรียน</tspan><tspan x="106.4" y="0" class="st8 st5 st4"> </tspan><tspan x="116.1" y="0" class="st8 st3 st4">อย่างถูกต้องมาใช้กับการทำเกษตร</tspan><tspan x="599.6" y="0" class="st8 st5 st4"> </tspan><tspan x="609.3" y="0" class="st8 st3 st4">และพัฒนา</tspan></text>
	<text transform="matrix(1 0 0 1 429.4587 2778.481)" class="st8 st3 st4">ต่อยอดให้เกิดประโยชน์มากที่สุด</text>
	<text id="svg_17" transform="matrix(1 0 0 1 988.7188 3485.2734)" class="st8 st3 st9">ประสบการณ์</text>
	<text transform="matrix(1 0 0 1 989.7188 3549.3533)" class="st8 st3 st4">การใช้ความผิดพลาดหรือสิ่งตนเคยประสบพบเจอ</text>
	<text transform="matrix(1 0 0 1 989.7188 3591.3533)" class="st1"><tspan x="0" y="0" class="st8 st3 st4">มาจากการลงมือทำจริงด้วยตนเอง</tspan><tspan x="471.8" y="0" class="st8 st5 st4"> </tspan><tspan x="481.5" y="0" class="st8 st3 st4">ซึ่งจะได้ทั้ง</tspan></text>
	<text transform="matrix(1 0 0 1 989.7188 3633.3533)" class="st8 st3 st4">ความเข้าใจที่ถ่องแท้ถึงเรื่องปัญหาและการจัดการ</text>
	<text transform="matrix(1 0 0 1 989.7188 3675.3533)" class="st1"><tspan x="0" y="0" class="st8 st3 st4">เกษตรกรรม</tspan><tspan x="169.4" y="0" class="st8 st5 st4"> </tspan><tspan x="179.1" y="0" class="st8 st3 st4">และได้นำประสบการณ์ที่ได้ส่งต่อให้</tspan></text>
	<text transform="matrix(1 0 0 1 989.7188 3717.3533)" class="st8 st3 st4">กับผู้อ่นได้อีกด้วย</text>
	<text transform="matrix(1 0 0 1 284.7343 4376.4072)" class="st1"><tspan x="0" y="0" class="st8 st3 st4">การทำเกษตรไม่จำเป็นเป็นต้องปลูกของแพง</tspan><tspan x="612.8" y="0" class="st8 st5 st4"> </tspan><tspan x="622.5" y="0" class="st8 st3 st4">เราสามารถทำเกษตรแบบผสมผสาน</tspan><tspan x="1122.1" y="0" class="st8 st5 st4"> </tspan><tspan x="1131.8" y="0" class="st8 st3 st4">ปลูกผักสวนครัวเน้นใช้งาน</tspan></text>
	<text transform="matrix(1 0 0 1 351.4943 4418.4072)" class="st1"><tspan x="0" y="0" class="st8 st3 st4">ไม่เน้นขาย</tspan><tspan x="155.2" y="0" class="st8 st5 st4"> </tspan><tspan x="164.9" y="0" class="st8 st3 st4">จะทำให้มีประโยชน์กว่าการปลูกไร่ตามกระแส</tspan><tspan x="802.4" y="0" class="st8 st5 st4"> </tspan><tspan x="812.1" y="0" class="st8 st3 st4">ซึ่งมีหลักการดำเนินการ</tspan><tspan x="1142.3" y="0" class="st8 st5 st4"> 3 </tspan><tspan x="1181.3" y="0" class="st8 st3 st4">ขั้นตอนดังนี้</tspan></text>
	<text transform="matrix(1 0 0 1 828.8651 4188.667)" class="st8 st3 st9">หลักการทำเกษตร</text>
	<text transform="matrix(1 0 0 1 850.7451 4248.667)" class="st8 st3 st9">แบบสวนกระแส</text>
	<text id="svg_27" transform="matrix(1 0 0 1 9.5331 5023.4761)" class="st10 st3 st11">มุ่งเน้นให้มีกิน</text>
	<text id="svg_28" transform="matrix(1 0 0 1 758.0092 5022.5059)" class="st10 st3 st11">สร้างรายได้ขายผล</text>
	<text id="svg_29" transform="matrix(1 0 0 1 1518.9847 5022.5059)" class="st10 st3 st11">ขายผลพลอยได้</text>
	<text transform="matrix(1 0 0 1 7.8632 5078.7061)" class="st2 st3 st4">การปลูกพืชที่เรากินเองได้</text>
	<text transform="matrix(1 0 0 1 7.8632 5120.7061)" class="st2 st3 st4">เหลือก็สามารถนำไปขาย</text>
	<text transform="matrix(1 0 0 1 7.8632 5162.7061)" class="st2 st3 st4">ต่อเรียนรู้ประโยชน์ของพืช</text>
	<text transform="matrix(1 0 0 1 7.8632 5204.7061)" class="st2 st3 st4">แต่ละชนิดและศึกษาวิธีการ</text>
	<text transform="matrix(1 0 0 1 7.8632 5246.7061)" class="st1"><tspan x="0" y="0" class="st2 st3 st4">ปลูก</tspan><tspan x="62" y="0" class="st2 st5 st4"> </tspan><tspan x="71.7" y="0" class="st2 st3 st4">โรคและระยะเวลาการ</tspan></text>
	<text transform="matrix(1 0 0 1 7.8632 5288.7061)" class="st2 st3 st4">ให้ผลผลิต</text>
	<text transform="matrix(1 0 0 1 756.3192 5078.7061)" class="st1"><tspan x="0" y="0" class="st2 st3 st4">การปลูกพืชนอกฤดู</tspan><tspan x="270.5" y="0" class="st2 st5 st4"> </tspan><tspan x="280.3" y="0" class="st2 st3 st4">จะ</tspan></text>
	<text transform="matrix(1 0 0 1 756.3192 5120.7061)" class="st2 st3 st4">ทำให้ผลิตสินค้าออกในช่วง</text>
	<text transform="matrix(1 0 0 1 756.3192 5162.7061)" class="st2 st3 st4">ที่ขายได้ราคาดีและไม่มีคู่</text>
	<text transform="matrix(1 0 0 1 756.3192 5204.7061)" class="st1"><tspan x="0" y="0" class="st2 st3 st4">แข่งทางการตลาด</tspan><tspan x="250.9" y="0" class="st2 st5 st4"> </tspan><tspan x="260.6" y="0" class="st2 st3 st4">ต้องทำ</tspan></text>
	<text transform="matrix(1 0 0 1 756.3192 5246.7061)" class="st1"><tspan x="0" y="0" class="st2 st3 st4">อย่างช้าๆ</tspan><tspan x="132.5" y="0" class="st2 st5 st4"> </tspan><tspan x="142.3" y="0" class="st2 st3 st4">และรอบคอบ</tspan></text>
	<text transform="matrix(1 0 0 1 1518.2948 5078.7061)" class="st1"><tspan x="0" y="0" class="st2 st3 st4">การทำกิ่งพันธุ์</tspan><tspan x="199.2" y="0" class="st2 st5 st4"> </tspan><tspan x="209" y="0" class="st2 st3 st4">เมล็ดพันธุ์</tspan></text>
	<text transform="matrix(1 0 0 1 1518.2948 5120.7061)" class="st2 st3 st4">ขายหรือแปรรูปผลผลิตเพิ่ม</text>
	<text transform="matrix(1 0 0 1 1518.2948 5162.7061)" class="st1"><tspan x="0" y="0" class="st2 st3 st4">มูลค่า</tspan><tspan x="78.9" y="0" class="st2 st5 st4"> </tspan><tspan x="88.6" y="0" class="st2 st3 st4">มีการรวมกลุ่มและ</tspan></text>
	<text transform="matrix(1 0 0 1 1518.2948 5204.7061)" class="st2 st3 st4">สร้างศูนย์การเรียนรู้หรือ</text>
	<text transform="matrix(1 0 0 1 1518.2948 5246.7061)" class="st1"><tspan x="0" y="0" class="st2 st3 st4">แหล่งท่องเที่ยวเชิงเกษตร</tspan><tspan x="353.8" y="0" class="st2 st5 st4"> </tspan></text>
	<text transform="matrix(1 0 0 1 1518.2948 5288.7061)" class="st2 st3 st4">เพิ่มช่องทางหารายได้</text>
	<text transform="matrix(1 0 0 1 653.7888 5876.9487)" class="st1"><tspan x="0" y="0" class="st8 st3 st12">สาเหตุที่ทำเกษตร</tspan><tspan x="198.5" y="0" class="st8 st5 st12">    </tspan></text>
	<text transform="matrix(1 0 0 1 653.7888 5910.5488)" class="st8 st3 st12">แล้วจนลง</text>
	<path id="svg_50" class="st8" d="M900,6109.9c-0.4-0.3-0.6-0.8-0.6-1.3c0-0.2,0.1-0.5,0.1-0.7c0.1-0.3,0.3-0.6,0.6-0.8
		c0.2-0.2,0.5-0.3,0.8-0.3c0.5,0,1,0.2,1.4,0.6c0.4,0.4,0.6,0.9,0.7,1.4c0,0.3-0.1,0.6-0.2,0.8c-0.3,0.5-0.9,0.9-1.5,0.8
		C900.8,6110.4,900.3,6110.2,900,6109.9z M902.5,6115.9c0.3,0.3,0.5,0.6,0.5,1c0,0.5-0.2,0.9-0.5,1.3c-0.3,0.4-0.7,0.6-1.2,0.6
		c-0.5,0-1.1-0.1-1.5-0.5c-0.3-0.3-0.5-0.8-0.5-1.2c0-0.4,0.2-0.8,0.4-1.1c0.3-0.3,0.7-0.5,1.2-0.5
		C901.6,6115.5,902.1,6115.6,902.5,6115.9L902.5,6115.9z"/>
	<path id="svg_51" class="st8" d="M900,5865.2c-0.4-0.3-0.6-0.8-0.6-1.3c0-0.2,0.1-0.5,0.1-0.7c0.1-0.3,0.3-0.6,0.6-0.8
		c0.2-0.2,0.5-0.3,0.8-0.3c0.5,0,1,0.2,1.4,0.6c0.4,0.4,0.6,0.9,0.7,1.4c0,0.3-0.1,0.6-0.2,0.8c-0.3,0.5-0.9,0.9-1.5,0.8
		C900.8,5865.7,900.3,5865.5,900,5865.2z M902.5,5871.2c0.3,0.3,0.5,0.6,0.5,1c0,0.5-0.2,1-0.5,1.3c-0.3,0.4-0.7,0.6-1.2,0.6
		c-0.5,0-1.1-0.1-1.5-0.5c-0.3-0.3-0.5-0.8-0.5-1.2c0-0.4,0.1-0.8,0.4-1.1c0.3-0.3,0.7-0.5,1.2-0.5
		C901.6,5870.8,902.1,5871,902.5,5871.2L902.5,5871.2z"/>
	<path id="svg_52" class="st8" d="M900,6411.4c-0.4-0.3-0.6-0.8-0.6-1.3c0-0.2,0.1-0.5,0.1-0.7c0.1-0.3,0.3-0.6,0.6-0.8
		c0.2-0.2,0.5-0.3,0.8-0.3c0.5,0,1,0.2,1.4,0.6c0.4,0.4,0.6,0.9,0.7,1.4c0,0.3-0.1,0.6-0.2,0.8c-0.3,0.5-0.9,0.9-1.5,0.8
		C900.8,6411.9,900.3,6411.7,900,6411.4z M902.5,6417.4c0.3,0.3,0.5,0.6,0.5,1c0,0.5-0.2,1-0.5,1.3c-0.3,0.4-0.7,0.6-1.2,0.6
		c-0.5,0-1.1-0.1-1.5-0.5c-0.3-0.3-0.5-0.8-0.5-1.2c0-0.4,0.2-0.8,0.4-1.1c0.3-0.3,0.7-0.5,1.2-0.5
		C901.6,6417,902.1,6417.1,902.5,6417.4L902.5,6417.4z"/>
	<text transform="matrix(1 0 0 1 933.7087 5875.0791)" class="st1"><tspan x="0" y="0" class="st8 st5 st4">1. </tspan><tspan x="38.9" y="0" class="st8 st3 st4">ไม่มีความรู้จริงในพืชนั้นๆ</tspan></text>
	<text transform="matrix(1 0 0 1 933.7087 5917.0791)" class="st1"><tspan x="0" y="0" class="st8 st5 st4">2. </tspan><tspan x="38.9" y="0" class="st8 st3 st4">ปลูกพืชแปลงเดี่ยว</tspan></text>
	<text transform="matrix(1 0 0 1 933.7087 5959.0791)" class="st1"><tspan x="0" y="0" class="st8 st5 st4">3. </tspan><tspan x="38.9" y="0" class="st8 st3 st4">มุ่งแต่ทำขายไม่สนใจทำกิน</tspan></text>
	<text transform="matrix(1 0 0 1 933.7087 6001.0791)" class="st1"><tspan x="0" y="0" class="st8 st5 st4">4. </tspan><tspan x="38.9" y="0" class="st8 st3 st4">ซื้อของที่ไม่จำเป็น</tspan></text>
	<text id="svg_57" transform="matrix(1 0 0 1 662.8187 6422.1191)" class="st8 st3 st12">แนวทางการแก้ไข</text>
	<text transform="matrix(1 0 0 1 933.7087 6420.2388)" class="st1"><tspan x="0" y="0" class="st8 st5 st4">1. </tspan><tspan x="38.9" y="0" class="st8 st3 st4">ศึกษาหาความรู้พืชที่ปลูก</tspan></text>
	<text transform="matrix(1 0 0 1 933.7087 6462.2388)" class="st1"><tspan x="0" y="0" class="st8 st5 st4">2. </tspan><tspan x="38.9" y="0" class="st8 st3 st4">เน้นคุณภาพไม่เน้นปริมาณ</tspan></text>
	<text transform="matrix(1 0 0 1 933.7087 6504.2388)" class="st1"><tspan x="0" y="0" class="st8 st5 st4">3. </tspan><tspan x="38.9" y="0" class="st8 st3 st4">เน้นเศรษฐกิจพอเพียง</tspan></text>
	<text transform="matrix(1 0 0 1 933.7087 6546.2388)" class="st1"><tspan x="0" y="0" class="st8 st5 st4">4. </tspan><tspan x="38.9" y="0" class="st8 st3 st4">ทำไร่นาสวนผสม</tspan></text>
	<text transform="matrix(1 0 0 1 933.7087 6588.2388)" class="st1"><tspan x="0" y="0" class="st8 st5 st4">5. </tspan><tspan x="38.9" y="0" class="st8 st3 st4">อย่าเน้นทำขาย</tspan><tspan x="253.6" y="0" class="st8 st5 st4"> </tspan><tspan x="263.3" y="0" class="st8 st3 st4">ให้เน้นทำกิน</tspan></text>
	<text transform="matrix(1 0 0 1 933.7087 6630.2388)" class="st1"><tspan x="0" y="0" class="st8 st5 st4">6. </tspan><tspan x="38.9" y="0" class="st8 st3 st4">รู้ทันโลกวัตถุนิยม</tspan><tspan x="283.4" y="0" class="st8 st5 st4"> </tspan><tspan x="293.1" y="0" class="st8 st3 st4">และใช้ให้เกิด</tspan></text>
	<text transform="matrix(1 0 0 1 933.7087 6672.2388)" class="st8 st3 st4">ประโยชน์</text>
	<text transform="matrix(1 0 0 1 617.1188 6119.6787)" class="st1"><tspan x="0" y="0" class="st8 st3 st12">องค์ประกอบที่จะทำให้</tspan><tspan x="250.6" y="0" class="st8 st5 st12">        </tspan></text>
	<text transform="matrix(1 0 0 1 617.1188 6153.2788)" class="st8 st3 st12">ประสบความสำเร็จ</text>
	<text transform="matrix(1 0 0 1 933.7087 6117.7988)" class="st1"><tspan x="0" y="0" class="st8 st5 st4">1. </tspan><tspan x="38.9" y="0" class="st8 st3 st4">ทำเลหรือฮวยจุ้ย</tspan><tspan x="268.6" y="0" class="st8 st5 st4"> </tspan><tspan x="278.3" y="0" class="st8 st3 st4">หากติดถนนจะดีมาก</tspan></text>
	<text transform="matrix(1 0 0 1 933.7087 6159.7988)" class="st1"><tspan x="0" y="0" class="st8 st3 st4">เพราะสามารถ</tspan><tspan x="199.1" y="0" class="st8 st5 st4"> </tspan><tspan x="208.9" y="0" class="st8 st3 st4">ขายได้ในตัวเลย</tspan></text>
	<text transform="matrix(1 0 0 1 933.7087 6201.7988)" class="st1"><tspan x="0" y="0" class="st8 st5 st4">2. </tspan><tspan x="38.9" y="0" class="st8 st3 st4">ปลูกพืชเน้นขายใกล้บ้านเพื่อลดค่า</tspan></text>
	<text transform="matrix(1 0 0 1 933.7087 6243.7988)" class="st1"><tspan x="0" y="0" class="st8 st3 st4">ขนส่ง</tspan><tspan x="82.1" y="0" class="st8 st5 st4"> </tspan><tspan x="91.8" y="0" class="st8 st3 st4">และตัดปัญหาพ่อค้าคนกลาง</tspan></text>
	<text transform="matrix(1 0 0 1 933.7087 6285.7988)" class="st1"><tspan x="0" y="0" class="st8 st5 st4">3. </tspan><tspan x="38.9" y="0" class="st8 st3 st4">การทำเป็นแหล่งเรียนรู้เชิงท่องเที่ยว</tspan></text>
	<text transform="matrix(1 0 0 1 933.7087 6327.7988)" class="st8 st3 st4">เกษตรกรรม</text>
	<text id="svg_74" transform="matrix(1 0 0 1 427.4987 86.4155)" class="st13 st3 st7">ฝากให้รู้ไว้</text>
</g>
</svg>
