<svg id="Layer_3" data-name="Layer 3" xmlns="http://www.w3.org/2000/svg" viewBox="0 0 1365.45 281.37"><defs><style>.cls-1{fill:#ebc081;}.cls-2{fill:#eabe80;}.cls-3{fill:#be7c3f;}.cls-4{fill:#a06c44;}.cls-5{fill:#dfdcce;}</style></defs><title>9.10</title><path class="cls-1" d="M56.59,868.72H1367a0,0,0,0,1,0,0V978.8a0,0,0,0,1,0,0H56.59a55,55,0,0,1-55-55v0a55,55,0,0,1,55-55Z" transform="translate(1367 1150.08) rotate(-180)"/><rect class="cls-2" x="38.04" y="0.97" width="194.14" height="171.26"/><rect class="cls-3" x="38.04" y="40.27" width="194.14" height="131.96"/><rect class="cls-4" x="38.04" y="15.08" width="194.14" height="1.61"/><circle class="cls-5" cx="1295.38" cy="226.26" r="39.91"/><rect class="cls-2" x="353.51" width="194.14" height="171.26"/><rect class="cls-3" x="353.51" y="39.3" width="194.14" height="131.96"/><rect class="cls-4" x="353.51" y="14.11" width="194.14" height="1.61"/><rect class="cls-2" x="670.13" y="0.18" width="194.14" height="171.26"/><rect class="cls-3" x="670.13" y="39.48" width="194.14" height="131.96"/><rect class="cls-4" x="670.13" y="14.29" width="194.14" height="1.61"/><rect class="cls-2" x="985.59" y="0.21" width="194.14" height="171.26"/><rect class="cls-3" x="985.59" y="39.51" width="194.14" height="131.96"/><rect class="cls-4" x="985.59" y="14.31" width="194.14" height="1.61"/></svg>