<svg id="Layer_5" data-name="Layer 5" xmlns="http://www.w3.org/2000/svg" viewBox="0 0 566.08 585.02"><defs><style>.cls-1{fill:#fad1bf;}.cls-2{fill:#f5b843;}.cls-3{fill:#4d4032;}.cls-4{fill:#eaefe1;}.cls-5{fill:#2e583c;}.cls-6{fill:#5e877e;}.cls-7{fill:#c2bfa5;}.cls-8{fill:none;stroke:#231a14;stroke-miterlimit:10;stroke-width:0.99px;}</style></defs><title>6.3</title><path class="cls-1" d="M788.91,1889.34s15.39,6.29,23.79,10.49,57.37-65.06,65.76-70.66,3.5,7.69,3.5,7.69,11.2-16.09,27.29-12.59-5.6,19.59-13.3,30.78-54.57,68.57-68.56,79.76-19.59,9.8-75.56-20.29S788.91,1889.34,788.91,1889.34Z" transform="translate(-372.5 -1749.99)"/><path class="cls-1" d="M511.85,1913.12s-7.69,9.1-14,7.7-72.72-73.46-96.55-73.46c-14.69,0,2.1,7.69,2.1,7.69s-28.69-2.79-30.79,10.5c-2.49,15.77,34.29,13.29,42.68,15.39,10.36,2.59,68.57,86.06,93.05,80.46s37.78-24.49,37.78-24.49Z" transform="translate(-372.5 -1749.99)"/><path class="cls-2" d="M580.42,1993.58s-11.2-30.78-14-64.36c0,0-25.18,19.59-33.58,26.58,0,0-23.09-25.88-24.49-40.58S587.41,1853,602.11,1867s23.78,7,23.78,7,14.7-8.39,25.19-3.49,32.4-15.25,32.4-15.25,48.76,3.35,108.93,33.44c0,0-10.5,31.48-9.8,46.17,0,0-62.27-23.08-79.76-20.29l9.8,76.26-81.16,15.4Z" transform="translate(-372.5 -1749.99)"/><path class="cls-1" d="M602.11,1860.65s39.18,23.09,71.36-5.6c0,0-18.19-7.69-16.79-18.19,0,0,34.28-47.57-2.8-48.27-32.89-.62-44.78,7-44.78,21.69S616.1,1845.26,602.11,1860.65Z" transform="translate(-372.5 -1749.99)"/><path class="cls-3" d="M620.3,1792.79s6.29,49.67-16.1,63-49.67-19.59-45.47-40.57,18.89-7.7,37.08-20.29S620.3,1792.79,620.3,1792.79Z" transform="translate(-372.5 -1749.99)"/><path class="cls-3" d="M661.58,1786.49s11.19,29.38-4.9,50.37c0,0,18.19,5.6,21.69-21S661.58,1786.49,661.58,1786.49Z" transform="translate(-372.5 -1749.99)"/><path class="cls-4" d="M567.82,2176.89s-1.4,71.36,32.19,71.36,32.88-49.67,39.88-63.67S567.82,2176.89,567.82,2176.89Z" transform="translate(-372.5 -1749.99)"/><path class="cls-4" d="M667.17,2220.27s-26.58-23.09-24.49-35.69,72.07-23.78,77-12.59-7,42-16.1,48.28S667.17,2220.27,667.17,2220.27Z" transform="translate(-372.5 -1749.99)"/><path class="cls-5" d="M579.72,1797.68s63,12.6,103.54-18.19a233.46,233.46,0,0,0-24.48-2.79s0-32.19-27.29-25.89-30.08,6.3-28.68,30.08C602.81,1780.89,586,1791.39,579.72,1797.68Z" transform="translate(-372.5 -1749.99)"/><path class="cls-6" d="M579,2031.36s-12.6-121,7.69-166.51c0,0,.7-2.1,9.8-2.1,0,0-9.8,88.85,5.6,97.25s77.66,7.7,89.55-4.2c0,0,2.8-87.45-5.6-101.44,0,0,6.3-3.5,12.6,2.09s22.38,146.93,16.09,163c0,0,4.9,0,12.59,30.78S753.23,2151,749,2164.3s-133.63,57.37-247-4.9c0,0,37.78-39.88,56-81.86s21-46.18,21-46.18" transform="translate(-372.5 -1749.99)"/><path class="cls-7" d="M602.11,1860.65s20.29,9.1,37.78,7,33.58-12.6,33.58-12.6,7-2.79,11.89,1.4-16.79,42-23.78,44.08-21.8-31.09-21.8-31.09-3.39,26.89-17.38,31.79S587.41,1857.85,602.11,1860.65Z" transform="translate(-372.5 -1749.99)"/><path class="cls-5" d="M576.22,2026.47s84.09,25.87,141-13c0,0,2.7,3.6,2.89,13.87,0,0-22.89,21.46-89.36,20.07S574.12,2032.76,576.22,2026.47Z" transform="translate(-372.5 -1749.99)"/><path class="cls-5" d="M663.67,2216.77h43.38s-16.79,89.55-8.39,100.05,24.77,20.77-5.6,17.49c-25.89-2.8-28.69,4.89-32.18-45.48S663.67,2216.77,663.67,2216.77Z" transform="translate(-372.5 -1749.99)"/><path class="cls-5" d="M592.24,2246.76s22.73-5.86,38.86-28.59c0,0,22.73,31.53,22.73,71.85s8.06,37.4-19.8,43.26-32.26-2.93-2.93-30.79C631.1,2302.49,598.11,2265.83,592.24,2246.76Z" transform="translate(-372.5 -1749.99)"/><path class="cls-2" d="M513.44,1853.48s8.58-4.14,9.13-16.55c0,0,.39,11.67,9,16.55a20.64,20.64,0,0,0-9,16.14S521.14,1856.38,513.44,1853.48Z" transform="translate(-372.5 -1749.99)"/><path class="cls-2" d="M686.08,1775.32s8.58-4.14,9.12-16.55c0,0,.39,11.67,9,16.55a20.67,20.67,0,0,0-9,16.14S693.77,1778.22,686.08,1775.32Z" transform="translate(-372.5 -1749.99)"/><path class="cls-2" d="M856.28,1934.88s8.58-4.14,9.12-16.55c0,0,.39,11.67,9,16.55a20.67,20.67,0,0,0-9,16.14S864,1937.78,856.28,1934.88Z" transform="translate(-372.5 -1749.99)"/><path class="cls-8" d="M934.54,2322.16v-.06" transform="translate(-372.5 -1749.99)"/><path class="cls-8" d="M938.11,2311.51a1.42,1.42,0,0,1-.08.18" transform="translate(-372.5 -1749.99)"/></svg>