<svg id="Layer_13" data-name="Layer 13" xmlns="http://www.w3.org/2000/svg" viewBox="0 0 325.74 571.48"><defs><style>.cls-1{fill:#fad1bf;}.cls-2{fill:#f5b843;}.cls-3,.cls-5{fill:#c2bfa5;}.cls-4{fill:#eaefe1;}.cls-4,.cls-5{stroke:#2e583c;stroke-miterlimit:10;stroke-width:3px;}.cls-6{fill:#4d4032;}.cls-7{fill:#5e877e;}.cls-8{fill:#2e583c;}</style></defs><title>6.4</title><path class="cls-1" d="M1191.4,2698.11s62.22,82.42,50.48,96.2-59.72,39.83-29.6,44.43,63.26,3.06,64.31-13.79-20.69-144-20.69-144S1204.73,2652.46,1191.4,2698.11Z" transform="translate(-1032.23 -2271.48)"/><path class="cls-1" d="M1251.68,2698.11s62.22,82.42,50.48,96.2-59.72,39.83-29.6,44.43,63.26,3.06,64.3-13.79-20.68-144-20.68-144S1265,2652.46,1251.68,2698.11Z" transform="translate(-1032.23 -2271.48)"/><path class="cls-2" d="M1203.18,2542.14s-43.44,125.33-11.78,156c40.85-6.13,129.23-12.25,128.7,6.13,19.68-64.34-.06-171.15-.06-171.15Z" transform="translate(-1032.23 -2271.48)"/><path class="cls-3" d="M1216.51,2392.51s-40,2.1-78.88,55.12c0,0,20.12,15.62,21.64,25.5s40.5-16.83,40.21-29c-4,38.75-6.38,52-1,89,7.28,49.48,121.51,0,121.51,0s2.44-137-24-147.16S1221.49,2390,1216.51,2392.51Z" transform="translate(-1032.23 -2271.48)"/><path class="cls-1" d="M1213.77,2291.46s-14.82,35.74,0,56.17c10.73,12.25,13.61,10.21,17.28,21.44s-11.94,23.49-11.94,23.49h57.48v-101.1Z" transform="translate(-1032.23 -2271.48)"/><ellipse class="cls-4" cx="180.05" cy="45.68" rx="9.1" ry="11.06"/><ellipse class="cls-4" cx="209.65" cy="47.81" rx="9.45" ry="11.49"/><line class="cls-5" x1="189.14" y1="46.35" x2="199.3" y2="47.76"/><path class="cls-6" d="M1236.24,2292.2s-14.48,9.26-25.48,10.45-9.64-20.51,22.14-30.05,90.82,43.92,55.41,74.63-23.63-40.74-23.63-40.74Z" transform="translate(-1032.23 -2271.48)"/><polygon class="cls-7" points="244.35 96.06 203.5 121.08 197.4 108.57 183.59 121.08 183.59 137.93 200.2 126.7 209.65 141 263.76 114.44 244.35 96.06"/><path class="cls-1" d="M1137.63,2447.63s37.9,22.13,29.77,26.43-46.29,33.46-59.84,19.87c-12-12-25.89-84.59-23.23-101.37,3.76-23.68,21.45,8.43,21.45,8.43s12.51,36,19.18,56.68Z" transform="translate(-1032.23 -2271.48)"/><path class="cls-1" d="M1084.8,2410.67s-4.73-12-11.19-18.11c-9.24-8.68-37.54-17.87-16.6-19.4s31.66,9.16,31.66,9.16-7.4-9.93-1.53-13,18.64,31.66,18.64,31.66Z" transform="translate(-1032.23 -2271.48)"/><path class="cls-1" d="M1191.4,2512.27s-11.31,4.9-18.66,9.87c-10.5,7.1-57.25,8.07-38.11-.55a289.55,289.55,0,0,0,31.42-16.39s-11.31,5-13-1.36,29-10.33,29-10.33Z" transform="translate(-1032.23 -2271.48)"/><path class="cls-7" d="M1229.2,2400.37l-2.75,16.45s5.5-1.79,6-.77,2.27-17.1,2.27-17.1S1232.62,2393.88,1229.2,2400.37Z" transform="translate(-1032.23 -2271.48)"/><path class="cls-1" d="M1260.24,2470.69s22,10.35,39,8c3.25,11.23-34.94,59.36-43.37,64s-75.83-30.11-76.34-45.18,66.9,12,66.9,12Z" transform="translate(-1032.23 -2271.48)"/><path class="cls-8" d="M1221.38,2811.66s45.21,8,53-11.59c5.27,33.39,21.11,50.92-62.13,38.67C1183,2836.53,1221.38,2811.66,1221.38,2811.66Z" transform="translate(-1032.23 -2271.48)"/><path class="cls-8" d="M1281.5,2811.41s45.53,5.85,52.44-14c6.81,33.11,23,52-60.73,43.59C1243.86,2840.11,1281.5,2811.41,1281.5,2811.41Z" transform="translate(-1032.23 -2271.48)"/><path class="cls-7" d="M1201.8,2542.14s39.19,23.85,118.19-9c18.06,14.07-26,21.78-26,21.78s-65.89,19.08-89.74,3.21C1188,2550.72,1201.8,2542.14,1201.8,2542.14Z" transform="translate(-1032.23 -2271.48)"/><path class="cls-2" d="M1174,2313.4s8.58-4.14,9.12-16.55c0,0,.39,11.67,9,16.55a20.67,20.67,0,0,0-9,16.14S1181.71,2316.3,1174,2313.4Z" transform="translate(-1032.23 -2271.48)"/><path class="cls-2" d="M1032.23,2417s8.59-4.14,9.13-16.54c0,0,.39,11.66,9,16.54a20.69,20.69,0,0,0-9,16.14S1039.93,2419.93,1032.23,2417Z" transform="translate(-1032.23 -2271.48)"/><path class="cls-2" d="M1339.85,2493.72s8.58-4.15,9.12-16.55c0,0,.4,11.67,9,16.55a20.64,20.64,0,0,0-9,16.13S1347.54,2496.62,1339.85,2493.72Z" transform="translate(-1032.23 -2271.48)"/></svg>