<svg id="Layer_12" data-name="Layer 12" xmlns="http://www.w3.org/2000/svg" viewBox="0 0 374.63 574.55"><defs><style>.cls-1{fill:#f5b843;}.cls-2{fill:#175a39;}.cls-3{fill:#7e5a3f;}.cls-4{fill:#fbd2c0;}.cls-5{fill:#4f3d2f;}.cls-6{fill:#fbd901;}.cls-7{fill:#f9da4a;}.cls-8{fill:#c56428;}.cls-9{fill:#68a270;}.cls-10{fill:#f8b517;}.cls-11{fill:#c2bfa5;}.cls-12{fill:#eaefe1;}</style></defs><title>6.5</title><path class="cls-1" d="M766.1,2818s8.59-4.41,9.13-17.61c0,0,.39,12.42,9,17.61,0,0-8.26,5.13-9,17.17C775.21,2835.13,773.8,2821.05,766.1,2818Z" transform="translate(-536.3 -2750.44)"/><path class="cls-1" d="M550.66,2978.6s8.58-4.4,9.13-17.6c0,0,.39,12.41,9,17.6,0,0-8.26,5.13-9,17.17C559.77,2995.77,558.36,2981.69,550.66,2978.6Z" transform="translate(-536.3 -2750.44)"/><path class="cls-1" d="M818.72,3082.25s8.58-4.4,9.13-17.6c0,0,.39,12.41,9,17.6,0,0-8.26,5.13-9,17.17C827.83,3099.42,826.42,3085.34,818.72,3082.25Z" transform="translate(-536.3 -2750.44)"/><path class="cls-2" d="M770.27,3311.47a6.91,6.91,0,0,1-5.55,5.21c-2.56.52-5.24-.16-7.74-1a48.29,48.29,0,0,1-25.73-20.06c-4.09-6.7-6.39-14.45-8.18-22.23a198.46,198.46,0,0,1-4-63.11,5.42,5.42,0,0,0,2.53.31,91.76,91.76,0,0,1,37.64-2c0,19.11.17,38.55.17,57.66,0,12.37.26,25.66,7,35.76C768.34,3304.89,770.9,3308,770.27,3311.47Z" transform="translate(-536.3 -2750.44)"/><path class="cls-2" d="M654.54,3281.63c-1.47,11.21-5.44,22.48-13.18,30.22-6.48,6.46-15,10-23.54,12.62-1.39.43-2.88.82-4.21.18-2-1-2.44-3.89-1.69-6.06s2.36-3.86,3.62-5.76c5.12-7.59,4.78-17.73,4.2-27q-2.07-34-4.11-68a48.87,48.87,0,0,1,38.7-4.53c.06,0,.09,0,.15,0-.4,11.36-.15,23.08.29,34.47S656,3270.42,654.54,3281.63Z" transform="translate(-536.3 -2750.44)"/><path class="cls-3" d="M769.83,3144.06c-.73,22.67-2.59,45.72-10.54,66.75a91.79,91.79,0,0,0-37.67.94,5.58,5.58,0,0,1-2.53-.37,8.71,8.71,0,0,1-3.81-3,20,20,0,0,1-3-7.62c-1.72-7.52-2.24-15.28-2.74-23-1.9-29.36-3.27-60.34-3.72-89.79a39.7,39.7,0,0,1-12.68.32q-8.6,42.36-17.28,84.71c-1.61,7.91-3.25,15.92-6.45,23.28s-8.12,14.11-14.86,17.81a48.83,48.83,0,0,0-38.81,3.45v0c-4.4-1.38-7-6.2-8.22-10.92s-.77-9.67-.36-14.53q1.55-19.26,3.11-38.51c3.11-38.54,6.47-78.17,17.77-114.92,6.37,6.64,20.05,11,61.1,10.16.6,0,1.55.08,2.73.11,14,.39,63.58.52,71.85-8.13a17.44,17.44,0,0,0,2.17-2.79A769.62,769.62,0,0,1,769.83,3144.06Z" transform="translate(-536.3 -2750.44)"/><path class="cls-4" d="M620,2802.49a26.06,26.06,0,0,1-1.58,5.6,61.1,61.1,0,0,1-3.71,7.72c-.69,1.26-1.41,2.48-2.1,3.74q-21.12,37.65-42.25,75.32,3.93-1.83,7.86-3.7a379.2,379.2,0,0,0-2.71,39.71c-7.31.18-15,.27-22-2s-13.64-7.23-16.09-14.55c-3.51-10.56,2.3-21.8,7.88-31.26,16.12-27.25,32.29-54.62,51.55-79.43,2-2.57,4-5.14,6.07-7.65.52-.64,1.06-1.29,1.61-1.9a14.47,14.47,0,0,1,6.22-4.56c3-1,7,.34,8,3.46a10.43,10.43,0,0,1,.77,1.71A14.92,14.92,0,0,1,620,2802.49Z" transform="translate(-536.3 -2750.44)"/><path class="cls-1" d="M692.2,3053.39c-1.18,0-2.13,0-2.74,0-41,2-54.79-2-61.32-8.45a23.71,23.71,0,0,1-4.46-6.31c-2.85-5.42-3-11.94-3.17-18.19-.6-29.67-1.18-60.38-1.78-90-14.36,2.26-29.07,3.49-43.32,4.41,0-1.29,0-2.57.06-3.89a379.2,379.2,0,0,1,2.71-39.71c24-11.27,47.86-22.69,71.86-33.93l45.87,46.14C699,2956.6,696.66,3000.2,692.2,3053.39Z" transform="translate(-536.3 -2750.44)"/><path class="cls-5" d="M722.24,2818.9a15.18,15.18,0,0,0-3.37-11.14c-1.87-2.36-3.54-5-5.64-7.6-5,4-10.9,5.42-17,7.11s-12.29,3.52-17.15,7.71-8.2,10.6-6,16.87c-2.82-2.66-5.24-5.35-6.74-9.33-2.18-5.88-1.52-12.47-.69-18.74,2.48-.22,5-.46,7.43-.74,16.92-2,34-3.67,50.19-6.95A49.52,49.52,0,0,1,722.24,2818.9Z" transform="translate(-536.3 -2750.44)"/><path class="cls-6" d="M715.51,2773.37c-34.31,14.45-52.9,8.05-52.9,8.05a63.36,63.36,0,0,0-.69-20.05,3.13,3.13,0,0,1,2.53-3.71l13-1.68,9.5-5.54,10.45,2.94,10.67-1.41a3,3,0,0,1,3.28,2.78C711.77,2759.47,712.92,2768.29,715.51,2773.37Z" transform="translate(-536.3 -2750.44)"/><path class="cls-4" d="M728.92,2850.13c-2.28,14.76-11.17,31-23.46,38.22a41.37,41.37,0,0,1-5,2.36l-31.31-31.51a47.3,47.3,0,0,1-1.72-9.89c2.85-1.35,5.81-2.76,7.83-5.27s2.84-6.46,1-9.12c-1.09-1.08-2.18-2.05-3.19-3v0c-2.16-6.27,1.21-12.67,6-16.87s11.08-6,17.15-7.71,12-3.13,17-7.11c2.1,2.58,3.77,5.24,5.64,7.6a15.18,15.18,0,0,1,3.37,11.14s0,.06,0,.09a38.88,38.88,0,0,1-3.71,8.91,49.37,49.37,0,0,0-3.34,6c-.86,2.11-2.19,4.59-1.44,6.79.72,3.1.72,3.1,2,4.35a11.43,11.43,0,0,0,4.63,2.51C723.19,2848.54,726,2849.4,728.92,2850.13Z" transform="translate(-536.3 -2750.44)"/><path class="cls-7" d="M852.79,2948.64c-.54.24-1.06.49-1.61.76A295.58,295.58,0,0,1,818.72,2962c-.92.27-1.84.58-2.76.86a204.85,204.85,0,0,0-43.11-42.47c1.18,15,2.36,30.37,2.7,45.44l-74.74-75.14a41.37,41.37,0,0,0,5-2.36c12.29-7.23,21.18-23.46,23.46-38.22,2.85.74,5.72,1.35,8.63,1.81,37.67,9.65,50.28,19.6,79.54,46.6C838.37,2917.87,851,2934.68,852.79,2948.64Z" transform="translate(-536.3 -2750.44)"/><path class="cls-4" d="M860.48,3068.61a11.58,11.58,0,0,1-2.56,3.64,5.87,5.87,0,0,1-5.9,1.47,7,7,0,0,1-3.72-4.84,28.61,28.61,0,0,1-.57-6.43c-.09-3.31-.69-4.74-1.24-7.93Z" transform="translate(-536.3 -2750.44)"/><path class="cls-8" d="M604.48,2794.13c-.55.61-1.09,1.26-1.61,1.9-2.07,2.51-4.09,5.08-6.07,7.65l-24.41-25.44s-4.29-4.32-.23-8.88,8.35-.25,8.35-.25Z" transform="translate(-536.3 -2750.44)"/><path class="cls-4" d="M864.79,3042.86c0,3.42-.46,8.39-.83,11.94l-20.49-20.61c-7.05-20.12-17.87-52.54-24.75-72.17a295.58,295.58,0,0,0,32.46-12.62,107.31,107.31,0,0,1,7,25.14C861.14,2997,865.23,3020.2,864.79,3042.86Z" transform="translate(-536.3 -2750.44)"/><path class="cls-7" d="M775.16,2983.09a232.3,232.3,0,0,1-4.08,38.09c-1.3,6.67-1.84,13.71-5.15,19.23a18.12,18.12,0,0,1-2.1,2.84c-8.06,8.88-57.62,10.14-71.63,10.14,4.46-53.19,6.76-96.79,3.71-150Z" transform="translate(-536.3 -2750.44)"/><path class="cls-6" d="M707.71,2925.08a2.36,2.36,0,0,1-1.1,1.73,3.08,3.08,0,0,1-3.06.36,2.3,2.3,0,0,1,.53-4.34c.75-.2.53-.12,1.28,0s.46.08,1.14.41A2.16,2.16,0,0,1,707.71,2925.08Z" transform="translate(-536.3 -2750.44)"/><path class="cls-6" d="M705,3039.52a2.09,2.09,0,0,1-1.06,1.69,3,3,0,0,1-3.06.36,2.42,2.42,0,0,1-1.21-2.81,2.47,2.47,0,0,1,1.74-1.49c.76-.2.53-.12,1.28,0,.72,0,.46,0,1.1.4A2,2,0,0,1,705,3039.52Z" transform="translate(-536.3 -2750.44)"/><path class="cls-6" d="M707.71,3000.9a2.31,2.31,0,0,1-1.1,1.69,3,3,0,0,1-3.06.36,2.42,2.42,0,0,1-1.21-2.81,2.38,2.38,0,0,1,1.74-1.49c.75-.2.53-.12,1.28,0s.46.08,1.14.4A2.24,2.24,0,0,1,707.71,3000.9Z" transform="translate(-536.3 -2750.44)"/><path class="cls-6" d="M707.71,2963.06a2.36,2.36,0,0,1-1.1,1.69,3,3,0,0,1-3.06.36,2.42,2.42,0,0,1-1.21-2.81,2.52,2.52,0,0,1,1.74-1.53c.75-.16.53-.08,1.28,0s.46.08,1.14.4A2.24,2.24,0,0,1,707.71,2963.06Z" transform="translate(-536.3 -2750.44)"/><path class="cls-9" d="M669.5,2859.2l-6.33-6.37c1.7-1.13,2.53-2.57,4.61-3.52A47.3,47.3,0,0,0,669.5,2859.2Z" transform="translate(-536.3 -2750.44)"/><path class="cls-8" d="M875.14,3082l-29-27.51-71-71.43-79.25-79.71L650,2857.24l-37.47-37.69c.69-1.26,1.41-2.48,2.1-3.74a61.1,61.1,0,0,0,3.71-7.72l44.46,44.74,6.33,6.37,31.31,31.51,74.74,75.14,67.92,68.34,35.48,34Z" transform="translate(-536.3 -2750.44)"/><path class="cls-10" d="M769.9,2776.22c-.23,2-1.9,3.4-3.54,4.41-12.81,7.68-27.48,12.28-43.08,15.46-16.15,3.28-33.27,5-50.19,6.95-2.48.28-5,.52-7.43.74a196.83,196.83,0,0,1-45.7-1.29,14.92,14.92,0,0,0-.49-7.75,199.61,199.61,0,0,0,43.14-13.32s18.59,6.4,52.9-8.05a182.86,182.86,0,0,1,46.76-2.79C765.75,2770.86,770.33,2772.54,769.9,2776.22Z" transform="translate(-536.3 -2750.44)"/><path class="cls-11" d="M868.58,3083.88c-1.06-2.17.12-4.76,1.3-6.87q4.35-7.77,9-15.38c2.1-1,4.53.61,5.9,2.58s2.2,4.36,3.84,6.07c2.79,2.89,7.73,3.65,8.95,7.59.77,2.51-.42,5.2-1.69,7.48a82.6,82.6,0,0,1-5,8,9.68,9.68,0,0,1-3,3c-4.46,2.46-8.46-2-10.57-5.59S870.3,3087.4,868.58,3083.88Z" transform="translate(-536.3 -2750.44)"/><path class="cls-12" d="M906.51,3082a5.9,5.9,0,0,1,2.74.7,4.56,4.56,0,0,1,1.64,4.32,12.56,12.56,0,0,1-1.75,4.52c-8.88,15.94-21,29.46-33.1,42.82l-11.47,12.72c-.79.88-1.72,1.83-2.87,1.84a4.26,4.26,0,0,1-2.58-1.27l-19.85-16.24c-1.16-.94-2.41-2-2.63-3.59s.82-3.17,1.86-4.42c13.83-16.51,36.75-22,50.18-38.83,2.1-2.65,4.48-5.75,8.12-4.83,1.1.27,2,1.2,3.13,1.55C902,3081.93,904.39,3081.81,906.51,3082Z" transform="translate(-536.3 -2750.44)"/></svg>