<svg id="Layer_1" data-name="Layer 1" xmlns="http://www.w3.org/2000/svg" viewBox="0 0 1695 478"><defs><style>.cls-1{fill:#5e877e;}.cls-2{fill:#eaefe1;}.cls-3{fill:#4d4032;}.cls-4{fill:#598082;}.cls-5{fill:#ddd990;}</style></defs><title>6.7_2</title><path id="svg_1" data-name="svg 1" class="cls-1" d="M595.59,240.39s-8.06,6.44-10,31.24c-1.21,15.62-6.79,68.91,6.75,79.38,10,7.74,54.74,9.37,69.89-.17C673,344.08,670,285,668.15,269.46c-1.76-15-6.24-30.35-28.14-32.29S595.59,240.39,595.59,240.39Z"/><path id="svg_2" data-name="svg 2" class="cls-2" d="M645.18,251.07s1.13-5.33,6.39-.7c4.6,4,11.83,35.25,3,38.74-5.27,2.08-3.64-14.67-6.09-24.64C646.7,257.14,644.54,253.65,645.18,251.07Z"/><path id="svg_3" data-name="svg 3" class="cls-1" d="M754,242.46s-8.07,6.44-10,31.23c-1.21,15.63-6.78,68.91,6.75,79.39,10,7.74,54.74,9.37,69.89-.18,10.73-6.76,7.74-65.81,5.92-81.37-1.76-15-6.24-30.36-28.14-32.29S754,242.46,754,242.46Z"/><path id="svg_17" data-name="svg 17" class="cls-1" d="M916.86,242.77s-8.07,6.44-10,31.23c-1.21,15.63-6.78,68.91,6.75,79.39,10,7.74,54.74,9.37,69.89-.18,10.73-6.76,7.74-65.81,5.92-81.37-1.76-15-6.24-30.36-28.14-32.29S916.86,242.77,916.86,242.77Z"/><path id="svg_18" data-name="svg 18" class="cls-2" d="M980.91,302.05c-.39,3.27-2.19,5-4.37,4.72s-3.93-2.41-3.53-5.68,2.49-5.71,4.67-5.45S981.31,298.78,980.91,302.05Z"/><path id="svg_19" data-name="svg 19" class="cls-2" d="M968.38,252.24s1.13-5.33,6.39-.71c4.6,4,11.83,35.26,3,38.74-5.27,2.09-3.64-14.67-6.09-24.63C969.9,258.31,967.72,254.81,968.38,252.24Z"/><path id="svg_20" data-name="svg 20" class="cls-3" d="M915,245.73s32.79-6.58,67.69,0c0,0,7-4.66.82-12.81-8.53-11.22-58.53-10-68-1.5S915,245.73,915,245.73Z"/><path id="svg_4" data-name="svg 4" class="cls-2" d="M803.6,252.09s1.13-5.33,6.39-.71c4.6,4,11.83,35.26,3,38.74-5.27,2.09-3.64-14.67-6.09-24.63C805.12,258.16,802.94,254.66,803.6,252.09Z"/><path id="svg_5" data-name="svg 5" class="cls-2" d="M817.1,301.82c-.39,3.27-2.19,5-4.37,4.72s-3.93-2.41-3.53-5.68,2.49-5.71,4.67-5.45S817.5,298.55,817.1,301.82Z"/><path id="svg_6" data-name="svg 6" class="cls-3" d="M750.26,246.7s32.79-6.58,67.69,0c0,0,7-4.66.82-12.81-8.53-11.22-58.53-10-68-1.5S750.26,246.7,750.26,246.7Z"/><path id="svg_8" data-name="svg 8" class="cls-4" d="M328.51,326.8s-3.73,22.35,11.41,20,15.75,6.55,28.33,5.37,23.79-19,14.82-32.36,15-5.94,22.27-21.11-9.49-13.82-9.49-13.82,18.22-11,12.92-25-17-8.78-17-8.78,15.36-10.53,8.61-23.27-16.06,1.19-21.59-4.68,6.7-18.21-3.55-26.76S351,208.72,351,208.72s4.41-11.76-13.24-20.24-24.07,10.78-21.15,25.33-9.57-5.33-19.36,2.06-11.22,18.32-.35,32.54c0,0-6.59-3-13.22,5s7.37,15.25,7.37,15.25,11.78,8.1,2.66,17.17S328.51,326.8,328.51,326.8Z"/><path id="svg_9" data-name="svg 9" class="cls-4" d="M106.59,277.43s-16-24.71,2.88-31.42c5.79-2.06-2.1-26.49,14.44-28.21,17.76-1.85,20.49,13.95,20.49,13.95s4.74-23.5,26.25-18.29,12.58,25.08,12.58,25.08,11.39-12.94,22.06-3.16c13.32,12.22-3.36,24.92-3.36,24.92s19.54-5.08,22.17,8.49c3.15,16.24-11.48,13.61-12,18.3-1,9.1,18.05.6,20.36,17.83s-9,24.6-20.53,19.34-.25,27.46-20.43,28.85-17.07-11.27-17.91-19.75-3.13,13-16.33,12.41-16.09-11.5-13.51-25.49Z"/><path id="svg_10" data-name="svg 10" class="cls-5" d="M364.2,311.88s-32.65,15.47-59.73,32.93-60.82,1.59-60.09-25.18S299,270,320.19,247c27.28-29.54,6.59,11.54-19.11,30.62,0,0,16.07.61,63.39-30.65,11.44-7.55-14.86,27.89-46.27,46.06s23.87-6.42,45.94-11-11.3,18.16-30.88,25.11S369.11,303.24,364.2,311.88Z"/><path id="svg_11" data-name="svg 11" class="cls-5" d="M183.73,319.71s-33.93,12.44-62.49,27.35-60.71-4-57.54-30.56,58.91-44.47,82.12-65.4c29.86-26.93,5.51,12.09-21.83,28.75,0,0,16,2.07,65.92-24.74,12.08-6.48-17.34,26.42-50.28,41.65S164,292.54,186.38,290s-12.91,17-33,22.19S189.4,311.56,183.73,319.71Z"/><path id="svg_13" data-name="svg 13" class="cls-2" d="M651.82,300.81c-.4,3.27-2.19,5-4.38,4.71s-3.93-2.41-3.53-5.68,2.5-5.71,4.68-5.44S652.22,297.53,651.82,300.81Z"/><path id="svg_15" data-name="svg 15" class="cls-3" d="M591,245.69s32.79-6.58,67.69,0c0,0,7-4.67.81-12.82-8.52-11.21-58.52-10-68-1.49S591,245.69,591,245.69Z"/></svg>