<svg id="Layer_1" data-name="Layer 1" xmlns="http://www.w3.org/2000/svg" viewBox="0 0 1695 478"><defs><style>.cls-1{fill:#c2bfa5;}.cls-2{fill:#dfdcce;}.cls-3{fill:#4d4032;}</style></defs><title>6.7_2</title><path id="svg_7" data-name="svg 7" class="cls-1" d="M68.26,352.25H1694.7V478.14H68.26c-37.7,0-68.26-24.62-68.26-55H0V407.29c0-30.38,30.51-55,68.21-55Z"/><path id="svg_12" data-name="svg 12" class="cls-1" d="M381.63,0H521a41,41,0,0,1,41,41V352.25H340.6V41a41,41,0,0,1,41-41Z"/><circle id="svg_14" data-name="svg 14" class="cls-2" cx="75.5" cy="420.03" r="48.84"/><path id="svg_16" data-name="svg 16" class="cls-3" d="M511.09,15.42h16a13.46,13.46,0,0,1,13.46,13.46h0V351.26H497.62V28.88a13.46,13.46,0,0,1,13.46-13.46Z"/></svg>