<svg xmlns="http://www.w3.org/2000/svg" data-name="Layer 2" width="1695" height="478" style=""><rect id="backgroundrect" width="100%" height="100%" x="0" y="0" fill="none" stroke="none" class="" style=""/><defs><style>.cls-1{fill:#5e877e;}.cls-2{fill:#eaefe1;}.cls-3{fill:#4d4032;}.cls-4{fill:#c2bfa5;}.cls-5{fill:#598082;}.cls-6{fill:#ddd990;}.cls-7{fill:#dfdcce;}</style></defs><title>6.7</title><g class="currentLayer" style=""><title>Layer 1</title><path class="cls-1" d="M595.5900197455446,240.38999191631387 s-8.06,6.44 -10,31.24 c-1.21,15.620000000000001 -6.79,68.91 6.75,79.38 c10,7.74 54.74,9.37 69.89,-0.17 c10.73,-6.76 7.74,-65.82 5.92,-81.38 c-1.7600000000000002,-15 -6.24,-30.35 -28.14,-32.29 S595.5900197455446,240.38999191631387 595.5900197455446,240.38999191631387 z" id="svg_1"/><path class="cls-2" d="M645.1800197455445,251.0699919163137 s1.13,-5.33 6.39,-0.7000000000000003 c4.6,4 11.83,35.25 3,38.74 c-5.27,2.08 -3.64,-14.67 -6.09,-24.64 C646.7000197455445,257.1399919163139 644.5400197455444,253.64999191631387 645.1800197455445,251.0699919163137 z" id="svg_2"/><path class="cls-1" d="M754.0200197455445,242.45856791366646 s-8.07,6.44 -10,31.23 c-1.21,15.63 -6.78,68.91 6.75,79.39 c10,7.74 54.74,9.37 69.89,-0.1800000000000001 c10.73,-6.76 7.74,-65.81 5.92,-81.37 c-1.7600000000000002,-15 -6.24,-30.36 -28.14,-32.29 S754.0200197455445,242.45856791366646 754.0200197455445,242.45856791366646 z" id="svg_3"/><path class="cls-1 selected" d="M916.8575212714234,242.76679545272896 s-8.07,6.44 -10,31.23 c-1.21,15.63 -6.78,68.91 6.75,79.39 c10,7.74 54.74,9.37 69.89,-0.18000000000000016 c10.73,-6.76 7.74,-65.81 5.92,-81.37 c-1.7600000000000002,-15 -6.24,-30.36 -28.14,-32.29 S916.8575212714234,242.76679545272896 916.8575212714234,242.76679545272896 z" id="svg_17"/><path class="cls-2 selected" d="M980.9090407416384,302.0511625706106 c-0.3900000000000004,3.27 -2.19,5 -4.37,4.72 s-3.93,-2.41 -3.5300000000000002,-5.68 s2.49,-5.71 4.67,-5.45 S981.3090407416382,298.7811625706106 980.9090407416384,302.0511625706106 z" id="svg_18"/><path class="cls-2 selected" d="M968.3805602118532,252.24410568584494 s1.13,-5.33 6.39,-0.7100000000000006 c4.6,4 11.83,35.26 3,38.74 c-5.27,2.09 -3.64,-14.67 -6.09,-24.63 C969.9005602118532,258.3141056858451 967.7205602118531,254.8141056858451 968.3805602118532,252.24410568584494 z" id="svg_19"/><path class="cls-3 selected" d="M914.9635071417847,245.72847626079624 s32.79,-6.58 67.69,0 c0,0 7,-4.66 0.8200000000000006,-12.81 c-8.53,-11.22 -58.53,-10 -68,-1.5 S914.9635071417847,245.72847626079624 914.9635071417847,245.72847626079624 z" id="svg_20"/><path class="cls-2" d="M803.6000197455446,252.0899919163137 s1.13,-5.33 6.39,-0.7100000000000003 c4.6,4 11.83,35.26 3,38.74 c-5.27,2.09 -3.64,-14.67 -6.09,-24.63 C805.1200197455446,258.15999191631386 802.9400197455445,254.65999191631386 803.6000197455446,252.0899919163137 z" id="svg_4"/><path class="cls-2" d="M817.1000197455446,301.8199919163137 c-0.3900000000000002,3.27 -2.19,5 -4.37,4.72 s-3.93,-2.41 -3.5300000000000002,-5.68 s2.49,-5.71 4.67,-5.45 S817.5000197455445,298.54999191631373 817.1000197455446,301.8199919163137 z" id="svg_5"/><path class="cls-3" d="M750.2600197455445,246.69999191631382 s32.79,-6.58 67.69,0 c0,0 7,-4.66 0.8200000000000003,-12.81 c-8.53,-11.22 -58.53,-10 -68,-1.5 S750.2600197455445,246.69999191631382 750.2600197455445,246.69999191631382 z" id="svg_6"/><path class="cls-4 selected" d="M68.26224900213843,352.2500114475638 H1694.7029247674145 a0,0 0 0 1 0,0 V478.1400114475638 a0,0 0 0 1 0,0 H68.26224900213843 a68.26222836971283,55 0 0 1 -68.26222836971283,-55 V407.2900114475638 A68.26222836971283,55 0 0 1 68.26224900213843,352.2500114475638 z" id="svg_7"/><path class="cls-5" d="M328.5100197455446,326.79999191631373 s-3.73,22.35 11.41,20 s15.75,6.55 28.33,5.37 s23.79,-19 14.82,-32.36 s15,-5.94 22.27,-21.11 s-9.49,-13.82 -9.49,-13.82 s18.22,-11 12.92,-25 s-17,-8.78 -17,-8.78 s15.36,-10.53 8.61,-23.27 s-16.06,1.19 -21.59,-4.68 s6.7,-18.21 -3.55,-26.76 s-24.22,12.33 -24.22,12.33 s4.41,-11.76 -13.24,-20.24 s-24.07,10.78 -21.15,25.33 s-9.57,-5.33 -19.36,2.06 s-11.22,18.32 -0.35000000000000014,32.54 c0,0 -6.59,-3 -13.22,5 s7.37,15.25 7.37,15.25 s11.78,8.1 2.66,17.17 S328.5100197455446,326.79999191631373 328.5100197455446,326.79999191631373 z" id="svg_8"/><path class="cls-5" d="M106.59001974554451,277.42999191631384 s-16,-24.71 2.88,-31.42 c5.79,-2.06 -2.1,-26.49 14.44,-28.21 c17.76,-1.85 20.49,13.95 20.49,13.95 s4.74,-23.5 26.25,-18.29 s12.58,25.08 12.58,25.08 s11.39,-12.94 22.06,-3.16 c13.32,12.22 -3.36,24.92 -3.36,24.92 s19.54,-5.08 22.17,8.49 c3.15,16.24 -11.48,13.61 -12,18.3 c-1,9.1 18.05,0.6000000000000003 20.36,17.83 s-9,24.6 -20.53,19.34 s-0.25,27.46 -20.43,28.85 s-17.07,-11.27 -17.91,-19.75 s-3.13,13 -16.33,12.41 s-16.09,-11.5 -13.51,-25.49 z" id="svg_9"/><path class="cls-6" d="M364.2000197455445,311.8799919163139 s-32.65,15.47 -59.73,32.93 s-60.82,1.59 -60.09,-25.18 S298.9900197455445,269.9799919163138 320.19001974554453,246.9799919163138 c27.28,-29.54 6.59,11.54 -19.11,30.62 c0,0 16.07,0.6100000000000003 63.39,-30.65 c11.44,-7.55 -14.86,27.89 -46.27,46.06 s23.87,-6.42 45.94,-11 s-11.3,18.16 -30.88,25.11 S369.1100197455445,303.2399919163138 364.2000197455445,311.8799919163139 z" id="svg_10"/><path class="cls-6" d="M183.7300197455445,319.7099919163138 s-33.93,12.44 -62.49,27.35 s-60.71,-4 -57.54,-30.56 s58.91,-44.47 82.12,-65.4 c29.86,-26.93 5.51,12.09 -21.83,28.75 c0,0 16,2.07 65.92,-24.74 c12.08,-6.48 -17.34,26.42 -50.28,41.65 s24.36,-4.22 46.75,-6.72 s-12.91,17 -33,22.19 S189.40001974554457,311.5599919163137 183.7300197455445,319.7099919163138 z" id="svg_11"/><path class="cls-4" d="M381.6300173041383,0.000011447563792899022 H521.0000173041383 a41,41 0 0 1 41,41 V352.2500114475638 a0,0 0 0 1 0,0 H340.6000173041383 a0,0 0 0 1 0,0 V41.00001144756379 A41,41 0 0 1 381.6300173041383,0.000011447563792899022 z" id="svg_12"/><path class="cls-2" d="M651.8200197455446,300.8099919163137 c-0.4,3.27 -2.19,5 -4.38,4.71 s-3.93,-2.41 -3.5300000000000002,-5.68 s2.5,-5.71 4.68,-5.44 S652.2200197455445,297.52999191631375 651.8200197455446,300.8099919163137 z" id="svg_13"/><circle class="cls-7" cx="75.50001525878906" cy="420.0299987792969" r="48.84000015258789" id="svg_14"/><path class="cls-3" d="M590.9900197455445,245.68999191631383 s32.79,-6.58 67.69,0 c0,0 7,-4.67 0.81,-12.82 c-8.52,-11.21 -58.52,-10 -68,-1.49 S590.9900197455445,245.68999191631383 590.9900197455445,245.68999191631383 z" id="svg_15"/><path class="cls-3" d="M511.09001730413826,15.420011447563793 h16 a13.46,13.46 0 0 1 13.46,13.46 V351.2600114475638 a0,0 0 0 1 0,0 H497.6200173041383 a0,0 0 0 1 0,0 V28.880011447563792 a13.46,13.46 0 0 1 13.46,-13.46 z" id="svg_16"/></g></svg>