<svg id="Layer_9" data-name="Layer 9" xmlns="http://www.w3.org/2000/svg" viewBox="0 0 461.53 565.14"><defs><style>.cls-1{fill:#f8b517;}.cls-2{fill:#275e85;}.cls-3{fill:#fbd2c0;}.cls-4{fill:#4d4032;}.cls-5{fill:#b96733;}.cls-6{fill:#5e877e;}.cls-7{fill:#eaefe1;}.cls-8{fill:#f9da4a;}.cls-9{fill:#24302e;}</style></defs><title>6.8</title><path class="cls-1" d="M1519.77,1060.45s-31.87,53.83-63,58.08-77.2-39-60.2-121.83,126.78-191.23,184.15-189.1,91.19-19.48,91.19-19.48,57.19,19.12,77.73,32.93,113.68,71.18,104.12,180.61-18.06,184.93-122.18,172.14-144.2-78.65-144.2-78.65S1555.54,1047,1519.77,1060.45Z" transform="translate(-1392.87 -619.3)"/><path class="cls-2" d="M1498.88,1168.46s-5.36-73.4,9.55-91.27,15.74-28,20-48.92-21.44-46.6-21.44-46.6l2.4-146.45c5.67-7.08,23.61-11.81,23.61-11.81s-1.42,75.55,11.57,77.68c21.52,3.52,150.87,12.51,179.2,2.6,0,0,3.77-76.5,14.87-90.9,0,0,18.65,2.6,22.9,13.93,0,0-9.29,177.82-5,240.15,0,0-24.39,12-67.44,11.29s-16.29,81.45-16.29,81.45,43.35,13.46,77.35,15.6C1750.11,1175.21,1621.61,1199.93,1498.88,1168.46Z" transform="translate(-1392.87 -619.3)"/><path class="cls-3" d="M1574.9,805.08s2.73-22.82-8.07-33.42-37.21-8.08-28.41-49.59,59.12-49.05,91.82-27.67,32.7,94.33,32.7,94.33S1635.27,834,1574.9,805.08Z" transform="translate(-1392.87 -619.3)"/><path class="cls-4" d="M1572.38,694.4s-37.21,20-28.92,39c7.57,17.38,26.15,41.68,26.15,41.68s-9.8,7.37-38.73,9.89-30.19-17.61-11.32-41.51-5-49.05,6.29-66.66,119.48-30.19,144.64,0,75.47,65.4-10.06,86.79C1660.43,763.58,1636.53,698.17,1572.38,694.4Z" transform="translate(-1392.87 -619.3)"/><path class="cls-5" d="M1519.56,694.4s113.2-7.55,140.87-20.12c0,0,13.83,17.6,28.93,15.09s-2.52-22.64-22.64-22.64c0,0,23.89,0,25.15-15.09s-30.18,8.8-30.18,8.8-19.38-55.17-94.34-37.73C1513.27,635.28,1519.56,694.4,1519.56,694.4Z" transform="translate(-1392.87 -619.3)"/><path class="cls-6" d="M1540.53,971.77s-2.79,16.83-3.1,24.87,6.64,72.67,23.09,81.19,64.47-2.23,74.31-14.6-13.07-72.61-17.13-83.83-17.29-20-18.37-22.24S1540.53,971.77,1540.53,971.77Z" transform="translate(-1392.87 -619.3)"/><path class="cls-4" d="M1540.2,974.58s24-15.94,64.6-12.79c0,0,6.45-6.6-1.76-12.72-13.24-9.87-58.81-2.1-68.31,11.18S1540.2,974.58,1540.2,974.58Z" transform="translate(-1392.87 -619.3)"/><path class="cls-7" d="M1672.76,1159.61s20.54-47.46,16.29-81.45c0,0-41.79-6.38-45.33-15.59s-2.07-44.29-15.53-52.79c0,0,2.78,42.88-11.39,43.59s-55.24-41.79-62.32-33.29,4.25,17.7,4.25,17.7-25.27-17.7-21.31,5c0,0-12.21.71-.76,18.42,0,0-8.63,3.54,7.19,26.91C1558.79,1110.15,1632.39,1160.32,1672.76,1159.61Z" transform="translate(-1392.87 -619.3)"/><path class="cls-7" d="M1525.1,1015.69s-23.39-35.28-53.85-49.09c0,0,16.65-48.16,50.41-69.05,39.69-24.56,94.43,37.89,84,49.34-8.13,9-16.18-8.26-31.64-17.71,0,0,14.64,8,12.28,18.89s-24.56-3.45-24.56-3.45,10.86,10.06-2.36,12.89-14.63-7.08-25-9.91c0,0,8.38,5.35,9.09,12s-10.27,4-10.27,4-4.82,8.63,7,10.93a136.74,136.74,0,0,0-2,35.93S1531.44,1024.4,1525.1,1015.69Z" transform="translate(-1392.87 -619.3)"/><path class="cls-8" d="M1569.53,805.08s2.61,35.81,15.53,38.17,30.32-26,30.32-26,30,31.63,46.84,29.74,17.86-59.46,8.84-61.85-30.32,35.41-57.17,27.62S1567.53,791.07,1569.53,805.08Z" transform="translate(-1392.87 -619.3)"/><path class="cls-4" d="M1471.25,966.6s-31.83,40.3-45.06,71C1426.19,1037.6,1429,996.19,1471.25,966.6Z" transform="translate(-1392.87 -619.3)"/><path class="cls-7" d="M1592.28,969.48s-.2-5.44,6-2.24c5.45,2.8,20.08,31.3,12.39,36.83-4.59,3.31-7.1-13.34-11.91-22.4C1595.24,975,1592.28,972.14,1592.28,969.48Z" transform="translate(-1392.87 -619.3)"/><path class="cls-9" d="M1592.87,964.41" transform="translate(-1392.87 -619.3)"/><path class="cls-7" d="M1617.46,1013.84c.41,3.27-.92,5.36-3.1,5.64s-4.4-1.38-4.81-4.65,1-6.15,3.21-6.42S1617.05,1010.57,1617.46,1013.84Z" transform="translate(-1392.87 -619.3)"/></svg>