<svg id="Layer_7" data-name="Layer 7" xmlns="http://www.w3.org/2000/svg" viewBox="0 0 544.16 647.35"><defs><style>.cls-1{fill:#598082;}.cls-2{fill:#ddd990;}.cls-3{fill:#be7c3f;}.cls-4{fill:#fbd2c0;}.cls-5{fill:#d75b4d;}.cls-6{fill:#4d4032;}.cls-7{fill:#f8b517;}</style></defs><title>6.9</title><path class="cls-1" d="M519.78,1098.61s6.2,15.84,17.46,5.16,17.89-.58,27.74-8.81,11.94-27.93-3.63-33.58,9-13.51,5.95-30S551,1025.6,551,1025.6s8.68-19.45-4.23-27.79-19.59,2.69-19.59,2.69,6.55-17.44-6.81-23.89-12.77,10.24-21,8.67-5.36-18.67-19.13-19.71-12.88,24-12.88,24S464,977.49,444,980.79s-13.7,22.68-2.47,32.81-11.25,1.2-15,12.87,1.64,21.37,19.34,26.65c0,0-7.31,1.4-8.09,11.68s15.39,8.14,15.39,8.14,14.78-.22,12.6,12.43S519.78,1098.61,519.78,1098.61Z" transform="translate(-28.54 -656.85)"/><path class="cls-2" d="M539.14,1067.23s-18.16,32.65-30.45,63.63-50.21,37.93-65.7,15,16.08-74.63,20.1-106.69c5.19-41.26,12.49,5.74,2.34,37.25,0,0,13.88-9.15,34.89-63.92,5.08-13.23,4.27,32.41-11.22,66.59s16.22-19.76,32.06-36.85,1.42,22.08-10.87,39.7S538.07,1057,539.14,1067.23Z" transform="translate(-28.54 -656.85)"/><path class="cls-3" d="M395.19,1044.8s4.3-7.36,22.7,9.2,19.64,12.89,31.6,14.42,18.1-1.61,28.53,18.83,8.9,34.25-5.52,27.5-10.4-22.45-22.67-23.37c0,0-4.15,15.7-7.09,27-4.46,17.28-77-32.83-77-32.83S396.11,1062.59,395.19,1044.8Z" transform="translate(-28.54 -656.85)"/><path class="cls-4" d="M326.14,981.29S311,938,279.65,952.76s-25.77,34.06-23,77.31-7.37,53.38,47.85,85.6,136.71,71.48,155.12,56.14,9.2-47.25-33.14-62S322.64,1054,322.64,1054,336.24,1017.8,326.14,981.29Z" transform="translate(-28.54 -656.85)"/><path class="cls-4" d="M334.45,981s-6.75,16,23.31,31.9,46.25,34.81,46.63,52.77c.22,10,.62,30.68-51.54,13.5S296.4,980.37,334.45,981Z" transform="translate(-28.54 -656.85)"/><path class="cls-3" d="M440.19,1112.29s1.22,42.54-24.14,61c0,0,58.09,26.18,95.72,27s43-16,41.32-21.68c0,0,12.68-10.64,4.49-20.45,0,0,12.69-9.41,4.5-18,0,0,16.78-16.77.41-16.77s-35.18,26.59-55.63,16.36c0,0,32.73,0,33.14-12.27s-49.09-.82-64.23-2.87S445.62,1111.47,440.19,1112.29Z" transform="translate(-28.54 -656.85)"/><path class="cls-5" d="M328,996.33s-3.8,33.88-8.29,51.69c0,0,27.09,23,41.82,30s-30.77-24.06-36.29-31.42C325.24,1046.64,332.07,1016.53,328,996.33Z" transform="translate(-28.54 -656.85)"/><path class="cls-5" d="M254.8,984.93a487.72,487.72,0,0,1,83.33,4s8-94.49-23.32-144.19-58.29-76.67-106.76-65S83.59,851.87,60.61,989C35.88,1136.47,28.54,1304.2,28.54,1304.2l280.75-103.93-4.79-84.6s-45.65-27.92-46.75-56.76-2.95-74-2.95-74" transform="translate(-28.54 -656.85)"/><path class="cls-4" d="M400.94,777.57a133,133,0,0,0-13.08,25.24c-5.61,14.48-16.83,4.67-16.83,4.67s-23.83,17.29-57.47,5.61c0,0-15.89,3.27-22.43,15.89s-69.63-12.62-59.35-42.06,74.77-108.41,102.81-106.54S415.89,728.51,400.94,777.57Z" transform="translate(-28.54 -656.85)"/><path class="cls-6" d="M383.38,743.12c-3.24,2.79-27.05,20.51-27.05,20.51s9.22-15.5-11.06-15-23,24.08-23,24.08-12.83,16.25-36.55,1.38-35.89-28.37-18.06-50.82,27.58-35.37,57.62-35.71S383.38,743.12,383.38,743.12Z" transform="translate(-28.54 -656.85)"/><path class="cls-7" d="M302.84,691.29s64.58,49.18,109.85,95.92,91,48.68,19.48-19.47c0,0,23.85-49.66-11.2-87.39S330.76,653.3,302.84,691.29Z" transform="translate(-28.54 -656.85)"/></svg>