<svg id="Layer_1" data-name="Layer 1" xmlns="http://www.w3.org/2000/svg" xmlns:xlink="http://www.w3.org/1999/xlink" viewBox="0 0 1920 1080"><defs><style>.cls-1,.cls-18{fill:none;}.cls-2{clip-path:url(#clip-path);}.cls-3{fill:#fff8de;}.cls-4{isolation:isolate;}.cls-5{clip-path:url(#clip-path-3);}.cls-6{font-size:20px;fill:#4f4234;font-family:ArialUnicodeMS, Arial Unicode MS;}.cls-7{clip-path:url(#clip-path-4);}.cls-8{clip-path:url(#clip-path-5);}.cls-9{clip-path:url(#clip-path-6);}.cls-10{clip-path:url(#clip-path-7);}.cls-11{clip-path:url(#clip-path-8);}.cls-12{letter-spacing:0em;}.cls-13{clip-path:url(#clip-path-9);}.cls-14{fill:#785b42;}.cls-15{fill:#d85b4d;}.cls-16{fill:#fef7df;}.cls-17{fill:#76a075;}.cls-18{stroke:#fef7df;stroke-miterlimit:10;stroke-width:2px;}.cls-19{fill:#2a5f86;}.cls-20{fill:#f3b744;}</style><clipPath id="clip-path"><rect class="cls-1" width="1920" height="1080"/></clipPath><clipPath id="clip-path-3"><rect class="cls-1" x="1002.63" y="67.81" width="102.8" height="26.23"/></clipPath><clipPath id="clip-path-4"><rect class="cls-1" x="1138.37" y="66.1" width="131.92" height="27.94"/></clipPath><clipPath id="clip-path-5"><rect class="cls-1" x="1502.37" y="67.81" width="78.48" height="26.23"/></clipPath><clipPath id="clip-path-6"><rect class="cls-1" x="1613.37" y="67.81" width="170.32" height="26.23"/></clipPath><clipPath id="clip-path-7"><rect class="cls-1" x="858.47" y="67.81" width="111.74" height="26.23"/></clipPath><clipPath id="clip-path-8"><rect class="cls-1" x="758.47" y="68.65" width="66.08" height="25.39"/></clipPath><clipPath id="clip-path-9"><rect class="cls-1" x="1302.37" y="66.1" width="167.54" height="27.94"/></clipPath></defs><title>Menu re</title><g class="cls-2"><path class="cls-3" d="M1919.25,0H0V112.36H121.37a72.45,72.45,0,0,0,135.7,0H1919.25Z"/></g><g class="cls-2"><g class="cls-4"><g class="cls-5"><text class="cls-6" transform="translate(1105.43 85)">่</text><text class="cls-6" transform="translate(1093.21 85)">ม</text><text class="cls-6" transform="translate(1080.51 85)">ห</text><text class="cls-6" transform="translate(1072.81 85)">ใ</text><text class="cls-6" transform="translate(1072.81 85)">ี</text><text class="cls-6" transform="translate(1060.87 85)">ฎ</text><text class="cls-6" transform="translate(1047.81 85)">ษ</text><text class="cls-6" transform="translate(1036.43 85)">ฤ</text><text class="cls-6" transform="translate(1024.03 85)">ท</text><text class="cls-6" transform="translate(1024.03 85)">ี</text><text class="cls-6" transform="translate(1012.63 85)">ถ</text><text class="cls-6" transform="translate(1012.63 85)">ิ</text><text class="cls-6" transform="translate(1004.09 85)">ว</text></g></g><g class="cls-4"><g class="cls-7"><text class="cls-6" transform="translate(1257.67 85)">น</text><text class="cls-6" transform="translate(1257.67 85)">้</text><text class="cls-6" transform="translate(1244.05 85)">ต</text><text class="cls-6" transform="translate(1231.43 85)">น</text><text class="cls-6" transform="translate(1231.43 85)">้</text><text class="cls-6" transform="translate(1231.43 85)">ั</text><text class="cls-6" transform="translate(1219.77 85)">ข</text><text class="cls-6" transform="translate(1219.77 85)">่</text><text class="cls-6" transform="translate(1207.55 85)">ม</text><text class="cls-6" transform="translate(1194.85 85)">ห</text><text class="cls-6" transform="translate(1187.15 85)">ใ</text><text class="cls-6" transform="translate(1187.15 85)">ี</text><text class="cls-6" transform="translate(1175.21 85)">ฏ</text><text class="cls-6" transform="translate(1162.15 85)">ษ</text><text class="cls-6" transform="translate(1150.77 85)">ฤ</text><text class="cls-6" transform="translate(1138.37 85)">ท</text></g></g><g class="cls-4"><g class="cls-8"><text class="cls-6" transform="translate(1580.85 85)">้</text><text class="cls-6" transform="translate(1572.31 85)">ว</text><text class="cls-6" transform="translate(1564.09 85)">ไ</text><text class="cls-6" transform="translate(1564.09 85)">้</text><text class="cls-6" transform="translate(1564.09 85)">ู</text><text class="cls-6" transform="translate(1554.85 85)">ร</text><text class="cls-6" transform="translate(1554.85 85)">้</text><text class="cls-6" transform="translate(1542.15 85)">ห</text><text class="cls-6" transform="translate(1534.45 85)">ใ</text><text class="cls-6" transform="translate(1523.13 85)">ก</text><text class="cls-6" transform="translate(1514.79 85)">า</text><text class="cls-6" transform="translate(1502.37 85)">ฝ</text></g></g><g class="cls-4"><g class="cls-9"><text class="cls-6" transform="translate(1613.37 85)">หน</text><text class="cls-6" transform="translate(1638.01 84.92)">่</text><text class="cls-6" transform="translate(1775.35 85)">า</text><text class="cls-6" transform="translate(1762.29 85)">ษ</text><text class="cls-6" transform="translate(1750.97 85)">ก</text><text class="cls-6" transform="translate(1750.97 85)">ึ</text><text class="cls-6" transform="translate(1741.73 85)">ร</text><text class="cls-6" transform="translate(1729.35 85)">ป</text><text class="cls-6" transform="translate(1721.01 85)">า</text><text class="cls-6" transform="translate(1721.01 85)">ํ</text><text class="cls-6" transform="translate(1708.65 85)">ค</text><text class="cls-6" transform="translate(1708.65 85)">้</text><text class="cls-6" transform="translate(1695.95 85)">ห</text><text class="cls-6" transform="translate(1688.25 85)">ใ</text><text class="cls-6" transform="translate(1675.63 85)">น</text><text class="cls-6" transform="translate(1667.29 85)">า</text><text class="cls-6" transform="translate(1658.55 85)">ง</text><text class="cls-6" transform="translate(1647.23 85)">ย</text><text class="cls-6" transform="translate(1638.69 85)">ว</text></g></g><g class="cls-4"><g class="cls-10"><text class="cls-6" transform="translate(970.21 85)">่</text><text class="cls-6" transform="translate(957.99 85)">ม</text><text class="cls-6" transform="translate(945.29 85)">ห</text><text class="cls-6" transform="translate(937.59 85)">ใ</text><text class="cls-6" transform="translate(937.59 85)">ี</text><text class="cls-6" transform="translate(925.65 85)">ฎ</text><text class="cls-6" transform="translate(912.59 85)">ษ</text><text class="cls-6" transform="translate(901.21 85)">ฤ</text><text class="cls-6" transform="translate(888.81 85)">ท</text><text class="cls-6" transform="translate(877.49 85)">ก</text><text class="cls-6" transform="translate(877.49 85)">ั</text><text class="cls-6" transform="translate(867.71 85)">จ</text><text class="cls-6" transform="translate(867.71 85)">้</text><text class="cls-6" transform="translate(867.71 85)">ู</text><text class="cls-6" transform="translate(858.47 85)">ร</text></g></g><g class="cls-4"><g class="cls-11"><text class="cls-6" transform="translate(758.47 85)">หน</text><text class="cls-6" transform="translate(784.91 84.92)">้</text><text class="cls-6" transform="translate(783.79 85)"><tspan class="cls-12">าแร</tspan><tspan x="31.3" y="0">ก</tspan></text></g></g><g class="cls-4"><g class="cls-13"><text class="cls-6" transform="translate(1448.95 85)">น</text><text class="cls-6" transform="translate(1436.25 85)">ห</text><text class="cls-6" transform="translate(1427.71 85)">ว</text><text class="cls-6" transform="translate(1419.37 85)">า</text><text class="cls-6" transform="translate(1419.37 85)">้</text><text class="cls-6" transform="translate(1408.05 85)">ก</text><text class="cls-6" transform="translate(1395.43 85)">น</text><text class="cls-6" transform="translate(1395.43 85)">้</text><text class="cls-6" transform="translate(1395.43 85)">ั</text><text class="cls-6" transform="translate(1383.77 85)">ข</text><text class="cls-6" transform="translate(1383.77 85)">่</text><text class="cls-6" transform="translate(1371.55 85)">ม</text><text class="cls-6" transform="translate(1358.85 85)">ห</text><text class="cls-6" transform="translate(1351.15 85)">ใ</text><text class="cls-6" transform="translate(1351.15 85)">ี</text><text class="cls-6" transform="translate(1339.21 85)">ฎ</text><text class="cls-6" transform="translate(1326.15 85)">ษ</text><text class="cls-6" transform="translate(1314.77 85)">ฤ</text><text class="cls-6" transform="translate(1302.37 85)">ท</text><text class="cls-6" transform="translate(1462.69 84.92)">้</text><text class="cls-6" transform="translate(1461.57 85)">า</text></g></g></g><g class="cls-2"><path class="cls-14" d="M154.24,134.79l2.19-4,1,.54-2,3.76a.54.54,0,0,0-.07.37.51.51,0,0,0,.25.27l.42.23-.43.79-.85-.47a1,1,0,0,1-.61-1.27.88.88,0,0,1,.1-.22"/><path class="cls-14" d="M157.73,135.6a1.2,1.2,0,0,1,1.29-.83l-.9-.73.49-1.06a4.12,4.12,0,0,1,1.35-.14,4.19,4.19,0,0,1,1.52.41,3,3,0,0,1,1.53,1.3,2.07,2.07,0,0,1-.14,1.83l-1.48,3.18-1-.48,1.49-3.21a1.27,1.27,0,0,0,.12-1.06,1.8,1.8,0,0,0-.92-.75,3.64,3.64,0,0,0-.94-.27,2.21,2.21,0,0,0-.81,0l-.08.17.95.78-.32.68a1.07,1.07,0,0,0-.66.06,1.27,1.27,0,0,0-.44.56l-.86,1.84-1-.48Z"/><path class="cls-14" d="M163.77,140a2.21,2.21,0,0,1,0-1.85L165,134.9l1.07.38-1.2,3.29a1.3,1.3,0,0,0,0,1.09,1.55,1.55,0,0,0,.91.68,1.58,1.58,0,0,0,1.13.06,1.32,1.32,0,0,0,.69-.84l.25-.7-1.27-.46.3-.82,1.27.47.64-1.78,1.07.39-.64,1.78.58.21-.38.78-.5-.18-.24.66a2.09,2.09,0,0,1-1.22,1.39,2.82,2.82,0,0,1-2-.11,2.79,2.79,0,0,1-1.64-1.2"/><path class="cls-14" d="M170.21,142.09a3.17,3.17,0,0,1-.07-2.23,4.36,4.36,0,0,1,1-2,1.63,1.63,0,0,1,2.14-.11,1.46,1.46,0,0,1,.34.52,2,2,0,0,1,.66-.24,1.84,1.84,0,0,1,.74,0,1.25,1.25,0,0,1,.87.64,1.68,1.68,0,0,1,0,1.17l-1.07,4.1-1.11-.29,1-3.94a1,1,0,0,0,0-.6c0-.13-.17-.22-.38-.28a.72.72,0,0,0-.41,0,.78.78,0,0,0-.34.28L173,139a1,1,0,0,0-.17-.42.58.58,0,0,0-.33-.21.76.76,0,0,0-.83.34,4.89,4.89,0,0,0-.6,1.46,2.47,2.47,0,0,0,0,1.52,1.26,1.26,0,0,0,.91.71,2.24,2.24,0,0,0,.72.1l-.22.84a2.87,2.87,0,0,1-.92-.11,2.14,2.14,0,0,1-1.32-1.09"/><path class="cls-14" d="M177.37,144.44a3.35,3.35,0,0,1-.8-.35l.16-.94a3.88,3.88,0,0,0,.8.38,4.38,4.38,0,0,0,.84.23,3.38,3.38,0,0,0,1.1,0,.54.54,0,0,0,.41-.48.62.62,0,0,0-.06-.42.72.72,0,0,0-.3-.3,6.44,6.44,0,0,0-.63-.36l-.38-.2a4,4,0,0,1-1.15-.85,1.23,1.23,0,0,1-.26-1,1.42,1.42,0,0,1,.77-1.08,2.89,2.89,0,0,1,1.74-.13,6.7,6.7,0,0,1,1.66.53l-.15.93a5.83,5.83,0,0,0-.72-.32,5,5,0,0,0-.78-.21,2.8,2.8,0,0,0-1,0,.53.53,0,0,0-.42.45.55.55,0,0,0,.08.38,1,1,0,0,0,.34.31l.68.39.29.14a3.92,3.92,0,0,1,1.17.88,1.54,1.54,0,0,1-.48,2.13l-.11,0a3,3,0,0,1-1.74.1,8.19,8.19,0,0,1-1.06-.26"/><path class="cls-14" d="M182.67,139.54l1,.09v.62a3,3,0,0,1,2.06-.56,1.82,1.82,0,0,1,1.35.65,2.1,2.1,0,0,1,.38,1.53l-.3,3.71-1.13-.09.3-3.66a1.13,1.13,0,0,0-.22-.9,1.22,1.22,0,0,0-.86-.35,1.86,1.86,0,0,0-.87.12,2.39,2.39,0,0,0-.74.43l-.33,4.14-1.14-.09Z"/><path class="cls-14" d="M192.86,142a1.29,1.29,0,0,0-.35-1,1.81,1.81,0,0,0-1.16-.27,3.81,3.81,0,0,0-1,.17,2,2,0,0,0-.71.4v.19l1.2.28v.75a1,1,0,0,0-.57.35,1.28,1.28,0,0,0-.16.69v.68a.48.48,0,0,0,.11.35.41.41,0,0,0,.33.09h.58v.9H190a1,1,0,0,1-.75-.28,1.11,1.11,0,0,1-.29-.76v-1a1.21,1.21,0,0,1,.81-1.31L188.7,142v-1.18a4.21,4.21,0,0,1,1.16-.71,4.48,4.48,0,0,1,1.53-.3,3,3,0,0,1,2,.5A2.1,2.1,0,0,1,194,142l.09,5.18H193Z"/><path class="cls-14" d="M196.47,144.88a2.18,2.18,0,0,1-.88-1.63l-.41-3.43,1.12-.13.42,3.47a1.33,1.33,0,0,0,.49,1,1.52,1.52,0,0,0,1.12.19,1.46,1.46,0,0,0,1-.46,1.27,1.27,0,0,0,.24-1l-.09-.74-1.34.16-.11-.86,1.34-.16-.22-1.87,1.13-.14.23,1.87.61-.08v.88l-.53.06.09.7a2.14,2.14,0,0,1-.47,1.79,3.39,3.39,0,0,1-3.79.46Z"/><path class="cls-14" d="M204.25,145.36a4.22,4.22,0,0,1,1.65-.76,4.4,4.4,0,0,1,.8-.11,2.39,2.39,0,0,1,.66.08l-1-4.5a1.36,1.36,0,0,0-.54-.91,1.71,1.71,0,0,0-1.14,0,3.48,3.48,0,0,0-.92.37,2,2,0,0,0-.6.53v.18h1.26l.17.73a.92.92,0,0,0-.43.44,1.7,1.7,0,0,0,0,.71l.17.73a1.11,1.11,0,0,1-.61,1.45,1.08,1.08,0,0,1-.31.07l-.69.16-.2-.88.38-.08a.35.35,0,0,0,.28-.17.43.43,0,0,0,0-.35l-.16-.69a2.31,2.31,0,0,1,0-.83,1,1,0,0,1,.47-.6H202.3l-.26-1.14a4.42,4.42,0,0,1,1-.93,4.62,4.62,0,0,1,1.45-.61,2.82,2.82,0,0,1,2,.11,2.08,2.08,0,0,1,1,1.52l1.24,5.4-1.11.25a3.25,3.25,0,0,0-1.58,0,4.31,4.31,0,0,0-.83.29,3.54,3.54,0,0,0-.71.45Z"/><polygon class="cls-14" points="202.29 137.31 205.53 136.39 205.29 135.55 206.2 135.29 206.66 136.89 202.46 138.09 202.29 137.31"/><path class="cls-14" d="M209.37,141.77l-.72-2.31a2,2,0,0,1-.07-1,4.84,4.84,0,0,1,.35-.89,2.67,2.67,0,0,0,.2-.46.57.57,0,0,0-.27-.67,1,1,0,0,0-.54.06,2.5,2.5,0,0,0-1,.63l-.24-.8a2.53,2.53,0,0,1,.6-.48,4.12,4.12,0,0,1,.74-.34,1.74,1.74,0,0,1,1.15,0,1,1,0,0,1,.62.74,1.12,1.12,0,0,1,0,.63,2.82,2.82,0,0,1-.27.7,5.79,5.79,0,0,0-.27.8,1.42,1.42,0,0,0,0,.74l.62,2c.06.18.12.3.2.34a.5.5,0,0,0,.38,0l.46-.14.27.86-.93.28a1,1,0,0,1-1.28-.58.75.75,0,0,1,0-.16"/><path class="cls-14" d="M211,136.49l1.07-.41.64,1.66,1.52-.58a1.16,1.16,0,0,0,.7-.54,1.09,1.09,0,0,0-.06-.83l-.26-.69,1-.4.25.65a1.37,1.37,0,0,1-.25,1.7,1,1,0,0,1,.76.25,1.93,1.93,0,0,1,.48.75l.74,1.94-1,.41-.7-1.82a1.14,1.14,0,0,0-.51-.69,1.23,1.23,0,0,0-.88.09l-1.48.57,1.08,2.81-1.07.41Z"/><path class="cls-14" d="M221,138.34a2.83,2.83,0,0,1-1-.09l.22.58-.93.45-2.48-5.08,1-.5,1.83,3.75a2.29,2.29,0,0,0,.85.13,1.9,1.9,0,0,0,.85-.2,1,1,0,0,0,.53-1.59l-1.6-3.29,1-.49,1.62,3.33a2.08,2.08,0,0,1,.21,1.58,1.83,1.83,0,0,1-1,1.11,3,3,0,0,1-1.1.31"/><polygon class="cls-14" points="219 130.26 220 129.72 220.81 131.23 219.81 131.77 219 130.26"/><polygon class="cls-15" points="141.44 79.28 141.71 55.3 150.56 49.48 158.84 55.53 158.57 79.48 141.44 79.28"/><polygon class="cls-15" points="152.81 79.41 152.93 69.09 161.78 63.27 170.05 69.33 169.86 86.34 152.81 79.41"/><rect class="cls-16" x="159.19" y="68.14" width="4.79" height="4.79" transform="translate(89.43 231.4) rotate(-89.43)"/><rect class="cls-16" x="147.94" y="54.37" width="4.79" height="4.79" transform="translate(92.07 206.52) rotate(-89.42)"/><path class="cls-15" d="M151.21,72.6l11.2-7.93h-1.09l10.76,8.17c1.1.84,2.18-1,1.09-1.85l-10.76-8.18a1,1,0,0,0-1.09,0l-11.19,7.93c-1.12.79,0,2.66,1.08,1.86"/><path class="cls-15" d="M139.82,58.81,151,50.88h-1.09l10.76,8.17c1.1.84,2.17-1,1.08-1.85L151,49a1,1,0,0,0-1.09,0l-11.17,8c-1.12.79-.05,2.66,1.08,1.86Z"/><path class="cls-17" d="M178.75,132.93a53.88,53.88,0,0,0,58-78.57,88.38,88.38,0,0,0-58,78.57"/><path class="cls-18" d="M215.69,92s-11-11.5-8-27.26"/><path class="cls-16" d="M207.71,96.88c3.1-3.4,6.13-7.06,9-10.74s5.67-7.51,8.31-11.41,5.08-7.93,7.37-12.06a107,107,0,0,0,5.91-12.88,107.75,107.75,0,0,1-4.79,13.43q-2.89,6.52-6.36,12.82t-7.39,12.28c-2.62,4-5.3,7.92-8.27,11.8Z"/><path class="cls-19" d="M189.4,94.55a87.86,87.86,0,0,1-53.71-18.23c-.09,1.26-.15,2.53-.15,3.8a53.87,53.87,0,0,0,107.73,1.47q0-.74,0-1.47c0-1.27-.06-2.54-.15-3.8A87.84,87.84,0,0,1,189.4,94.55"/><path class="cls-20" d="M136.15,72.18a53.9,53.9,0,0,0,76.34,57.34,88.4,88.4,0,0,0-76.34-57.34"/><path class="cls-16" d="M146.62,81.63A16.34,16.34,0,0,1,149.17,84a26.34,26.34,0,0,1,2.08,2.65h-1.66a27,27,0,0,1,2-2.65,16.21,16.21,0,0,1,2.49-2.34,15.18,15.18,0,0,1-1.18,3.2,24.16,24.16,0,0,1-1.64,2.89L150.44,89l-.84-1.23a24,24,0,0,1-1.73-2.89,16.09,16.09,0,0,1-1.25-3.24"/><path class="cls-16" d="M150.31,80.07a5.31,5.31,0,0,1,.81,1.76,7.13,7.13,0,0,1,.25,1.77,6.66,6.66,0,0,1-.19,1.78,5.26,5.26,0,0,1-.76,1.79,5.64,5.64,0,0,1-.81-1.76,7.48,7.48,0,0,1-.24-1.77,7.69,7.69,0,0,1,.18-1.78,5.66,5.66,0,0,1,.76-1.79"/><path class="cls-16" d="M165.21,90.28a16.05,16.05,0,0,1,2.55,2.32,26.34,26.34,0,0,1,2.08,2.65h-1.66a27,27,0,0,1,2-2.65,15.7,15.7,0,0,1,2.48-2.34,15.15,15.15,0,0,1-1.17,3.2,24.23,24.23,0,0,1-1.65,2.89L169,97.61l-.84-1.23a27.94,27.94,0,0,1-1.73-2.89,15.74,15.74,0,0,1-1.22-3.21"/><path class="cls-16" d="M168.9,88.72a5.12,5.12,0,0,1,.81,1.76,7.11,7.11,0,0,1,.06,3.55,5.26,5.26,0,0,1-.76,1.79,5.88,5.88,0,0,1-.81-1.76,7.61,7.61,0,0,1,0-3.55,5.85,5.85,0,0,1,.7-1.79"/><path class="cls-16" d="M153.16,101.59a15.25,15.25,0,0,1,2.55,2.33,24.86,24.86,0,0,1,2.08,2.64h-1.65a27,27,0,0,1,2-2.65,17.15,17.15,0,0,1,2.48-2.34,14.43,14.43,0,0,1-1.17,3.2,22.92,22.92,0,0,1-1.65,2.89L157,108.9l-.84-1.22a25.38,25.38,0,0,1-1.73-2.89,15.78,15.78,0,0,1-1.26-3.2"/><path class="cls-16" d="M156.86,100a5.31,5.31,0,0,1,.81,1.76,7.62,7.62,0,0,1,.24,1.77,7.49,7.49,0,0,1-.18,1.77,5.07,5.07,0,0,1-.76,1.79,5.14,5.14,0,0,1-.81-1.76,7.48,7.48,0,0,1-.25-1.77,8.22,8.22,0,0,1,.19-1.78,5.51,5.51,0,0,1,.76-1.78"/><path class="cls-16" d="M168.12,115.82a15.63,15.63,0,0,1,2.55,2.32,25,25,0,0,1,2.08,2.65H171.1a27,27,0,0,1,2-2.65,15.7,15.7,0,0,1,2.48-2.34,14.61,14.61,0,0,1-1.17,3.2,24.23,24.23,0,0,1-1.65,2.89l-.81,1.24-.84-1.23a24,24,0,0,1-1.73-2.89,15.69,15.69,0,0,1-1.26-3.19"/><path class="cls-16" d="M171.82,114.26a5.62,5.62,0,0,1,.81,1.76,7.61,7.61,0,0,1,.06,3.55,5.26,5.26,0,0,1-.76,1.79,5.33,5.33,0,0,1-.81-1.76,7.48,7.48,0,0,1-.25-1.77,8.29,8.29,0,0,1,.19-1.78,5.66,5.66,0,0,1,.76-1.79"/><path class="cls-16" d="M181.94,102.28a15.7,15.7,0,0,1,2.56,2.32,26.23,26.23,0,0,1,2.07,2.65h-1.65a27,27,0,0,1,2-2.65,17.08,17.08,0,0,1,2.48-2.33,14.35,14.35,0,0,1-1.17,3.19,22.86,22.86,0,0,1-1.64,2.89l-.82,1.24-.84-1.22a25.38,25.38,0,0,1-1.73-2.89,16.38,16.38,0,0,1-1.26-3.2"/><path class="cls-16" d="M185.64,100.72a5.31,5.31,0,0,1,.81,1.76,7.61,7.61,0,0,1,.06,3.55,5.21,5.21,0,0,1-.76,1.78,5.05,5.05,0,0,1-.81-1.76,7.48,7.48,0,0,1-.24-1.77,9,9,0,0,1,.18-1.78,5.6,5.6,0,0,1,.76-1.78"/><path class="cls-16" d="M194,118.82a15.63,15.63,0,0,1,2.55,2.32,24,24,0,0,1,2.08,2.65H197a27,27,0,0,1,2-2.65,16.58,16.58,0,0,1,2.48-2.33,15.15,15.15,0,0,1-1.17,3.2,22.8,22.8,0,0,1-1.65,2.88l-.81,1.24-.85-1.22a28.15,28.15,0,0,1-1.7-2.92,15.42,15.42,0,0,1-1.3-3.17"/><path class="cls-16" d="M197.74,117.26a5.31,5.31,0,0,1,.81,1.76,7.61,7.61,0,0,1,.06,3.55,5.21,5.21,0,0,1-.76,1.78,5.35,5.35,0,0,1-.82-1.76,8.67,8.67,0,0,1-.24-1.77A7.7,7.7,0,0,1,197,119a5.6,5.6,0,0,1,.76-1.78"/><path class="cls-15" d="M153.76,38.22c.1-3.33,1.85-4.58,4.52-4.51a3.74,3.74,0,0,1,2.88,1.09V33.35c0-1.48-.71-2.29-2.54-2.34a4.74,4.74,0,0,0-3.34,1.12l-1.17-1.69a7.61,7.61,0,0,1,5-1.45,7,7,0,0,1,2.61.53,2.15,2.15,0,0,0,.69-1.12l2.35.57a3.24,3.24,0,0,1-1.2,2,3.68,3.68,0,0,1,.66,2.42L164,41.15l-2.89-.08c.1-3.88-.63-5.29-2.77-5.35-1.08,0-1.75.28-1.86,1.27,1.63-.09,2.34.66,2.3,2.18s-.63,2.15-2.58,2.1-2.49-1.06-2.44-3.05m3.42.84c0-.61-.17-.82-.86-.84s-.88.18-.9.8.2.88.86.9.89-.19.9-.86"/><path class="cls-15" d="M161,46.23a1.84,1.84,0,0,1-2-1.65,2.37,2.37,0,0,1,0-.46c0-1.41.57-2.19,2.48-2.14s2.41.89,2.36,2.58l-.1,3.6L161,48.08Zm1.2-2c0-.66-.18-.86-.86-.88s-.89.17-.9.83.17.83.86.84.91-.17.93-.79Z"/><path class="cls-20" d="M166.15,37.32v-.9a4,4,0,0,1,1.36-2.88c-1.32-.12-1.74-.77-1.71-2.18s.61-2.15,2.55-2.1,2.5.65,2.46,2.3v.77c0,1.48-1.6,1.77-1.65,3.82v1.39c0,1.23.16,2.08,1.91,2.12s2-.78,2-2l.22-7.91,3,.08L176,37.46c-.07,2.47-1.29,4.31-5.06,4.21s-4.85-2.16-4.79-4.35m3-5.81c0-.66-.17-.86-.85-.88s-.91.17-.93.84.2.82.88.84.91-.18.92-.8Z"/><path class="cls-17" d="M180.29,35.47a1.89,1.89,0,0,1-2.4-1.66c-.25-1.43.16-2.27,2.09-2.61s2.63.31,2.94,2l.91,5.1.87-4.18,1.12-.21,2.33,3.62-1.29-7.25,2.93-.52,2.05,11.48-3,.54-3-4.49-1.2,5.23-3,.54Zm.89-2.22c-.12-.65-.35-.81-1-.69s-.84.35-.72,1,.34.77,1,.65.82-.35.72-1"/><path class="cls-19" d="M192.92,37.41l-.23-1.31c-.31-1.71.14-2.58,2.05-2.92s2.61.3,2.86,1.73-.6,2-1.81,2.26l.05.3c.16.89.87,1.23,2.3,1s2.11-.91,1.94-1.85l-.8-4.49C199,30.59,198,30,196.1,30.37a5,5,0,0,0-3,1.72l-1.48-1.37a7.8,7.8,0,0,1,4.55-2.4c3.91-.7,5.61.7,6.07,3.24l.77,4.37c.27,1.52-.49,3.78-4.48,4.49s-5.25-1-5.61-3m3.15-2.2c-.12-.65-.35-.81-1-.69s-.84.35-.72,1,.34.77,1,.65S196.18,35.82,196.07,35.21Z"/><path class="cls-17" d="M168.69,58.15a1.89,1.89,0,0,1-2.36-1.24,2.7,2.7,0,0,1-.08-.39c-.27-1.43.14-2.27,2.07-2.63s2.65.28,3,2l.5,2.67,1.2-3.48c.54-1.57,1.19-2.29,2.51-2.54A2.05,2.05,0,0,1,178,54a1.21,1.21,0,0,1,.06.38l1.8,9.51-2.92.56-1.56-8.24c0-.24-.1-.31-.28-.28s-.26.18-.4.61l-2.12,6.11.48,2.53-2.93.55Zm.84-2.23c-.12-.65-.35-.8-1-.68s-.83.36-.7,1,.34.77,1,.64.82-.35.7-1"/><path class="cls-19" d="M171.27,48a4.9,4.9,0,0,1,3,.29l-.3-1.59,2.53-.47.93,4.89-10.55,2c-.29-2.76,1.62-4.56,4.39-5.12m3.18,2.18c-.52-.69-1.66-.81-2.87-.58s-2.15.75-2.23,1.55Z"/><polygon class="cls-20" points="173.26 42.99 175.81 42.51 176.37 45.45 173.82 45.93 173.26 42.99"/><path class="cls-15" d="M183.83,54a2.16,2.16,0,0,1-2.18-2.17,1.91,1.91,0,0,1,0-.47c.19-1.69.93-2.49,3.2-2.23s2.84,1.22,2.62,3.24l-.68,6L189.19,54l1.33.15,1.4,4.81,1-8.54,3.45.39-1.52,13.53-3.53-.4-1.83-6-3.08,5.46-3.55-.4Zm1.72-2.18c.09-.77-.12-1-.91-1.12s-1,.12-1.14.89.13,1,.92,1.06,1.05-.12,1.13-.83"/><polygon class="cls-17" points="193.51 44.7 196.97 45.08 196.49 49.3 193 48.91 193.51 44.7"/><path class="cls-20" d="M197.31,60.4l.17-1.53c.23-2,1-2.84,3.27-2.59s2.82,1.2,2.63,2.89-1.35,2.08-2.78,1.91v.36c-.12,1,.56,1.67,2.25,1.86s2.65-.32,2.77-1.42l.6-5.3c.2-1.79-.73-2.75-3-3a5.89,5.89,0,0,0-4,.93l-1.2-2a9,9,0,0,1,5.88-1.17c4.61.51,6,2.64,5.72,5.64L209,62.12c-.2,1.79-1.81,4.07-6.51,3.54s-5.53-2.85-5.22-5.26M201.56,59c.08-.77-.12-1-.91-1.11s-1.05.11-1.14.88.13,1,.92,1.06,1-.11,1.13-.83"/><path class="cls-19" d="M212,57l-1.7-5.75c-.63-2.14,1.66-4,1.15-5.75-.22-.76-.71-1-1.6-.74s-1.21.81-1,1.6l.21.72-2.86.84-.22-.74c-.6-2,1-3.69,3.31-4.36,2.84-.84,4.38,0,4.92,1.86.62,2.07-1.59,4-1.05,5.83l1.17,4a1.87,1.87,0,0,1,2.45,1,1.48,1.48,0,0,1,.12.41c.41,1.39.1,2.27-1.78,2.82S212.48,58.64,212,57m3.42-.71c-.17-.59-.42-.73-1.07-.53s-.79.44-.62,1,.44.77,1.09.57.77-.43.58-1.06Z"/><path class="cls-17" d="M219.16,49.05a1.87,1.87,0,0,1-2.47-1,2.22,2.22,0,0,1-.12-.39c-.41-1.4-.1-2.27,1.79-2.83s2.67,0,3.16,1.69l1.54,5.18,1.17-3.82a1.82,1.82,0,0,1,.38-.71c-.69-.08-1.19-.48-1.48-1.43-.41-1.39-.14-2.28,1.74-2.84s2.57-.18,3,1.43a1.67,1.67,0,0,1-.5,2c.56.11.94.53,1.17,1.31l1.81,6.11-2.86.85-1.44-4.87c-.06-.23-.13-.3-.26-.26s-.18.17-.27.47l-1.69,5.74-2.51.75Zm.61-2.29c-.19-.64-.43-.77-1.09-.58s-.79.44-.6,1.08.42.72,1.08.53.84-.44.61-1m6.6-2c-.19-.63-.46-.76-1.11-.57s-.79.45-.6,1.08.42.73,1.07.53.82-.4.64-1Z"/><path class="cls-15" d="M220.84,41.56c.57-.16.91-.31.94-.69a1.43,1.43,0,0,1-2-.45,1.52,1.52,0,0,1-.2-.55c-.36-1.2.12-1.83,1.5-2.23s2.09-.09,2.45,1.13a2.32,2.32,0,0,1,0,1.68c1.24-.55,1.42-1.34,1-2.77l-.11-.38,2.11-.63.13.44A3.79,3.79,0,0,1,224.44,42a2.77,2.77,0,0,1-.41.12l-2.77.82Zm1.47-2.48c-.16-.53-.39-.62-.92-.46s-.68.36-.52.89.35.63.92.46.67-.38.52-.89"/><path class="cls-18" d="M225.12,76.69s-6.79-7.12-5-16.87"/><path class="cls-18" d="M229.87,68.9s7.38.21,12.41-3.46"/></g><g class="cls-2"><path class="cls-3" d="M1919.25,0H0V112.36H121.37a72.45,72.45,0,0,0,135.7,0H1919.25Z"/></g><g class="cls-2"><g class="cls-4"><g class="cls-5"><text class="cls-6" transform="translate(1105.43 85)">่</text><text class="cls-6" transform="translate(1093.21 85)">ม</text><text class="cls-6" transform="translate(1080.51 85)">ห</text><text class="cls-6" transform="translate(1072.81 85)">ใ</text><text class="cls-6" transform="translate(1072.81 85)">ี</text><text class="cls-6" transform="translate(1060.87 85)">ฎ</text><text class="cls-6" transform="translate(1047.81 85)">ษ</text><text class="cls-6" transform="translate(1036.43 85)">ฤ</text><text class="cls-6" transform="translate(1024.03 85)">ท</text><text class="cls-6" transform="translate(1024.03 85)">ี</text><text class="cls-6" transform="translate(1012.63 85)">ถ</text><text class="cls-6" transform="translate(1012.63 85)">ิ</text><text class="cls-6" transform="translate(1004.09 85)">ว</text></g></g><g class="cls-4"><g class="cls-7"><text class="cls-6" transform="translate(1257.67 85)">น</text><text class="cls-6" transform="translate(1257.67 85)">้</text><text class="cls-6" transform="translate(1244.05 85)">ต</text><text class="cls-6" transform="translate(1231.43 85)">น</text><text class="cls-6" transform="translate(1231.43 85)">้</text><text class="cls-6" transform="translate(1231.43 85)">ั</text><text class="cls-6" transform="translate(1219.77 85)">ข</text><text class="cls-6" transform="translate(1219.77 85)">่</text><text class="cls-6" transform="translate(1207.55 85)">ม</text><text class="cls-6" transform="translate(1194.85 85)">ห</text><text class="cls-6" transform="translate(1187.15 85)">ใ</text><text class="cls-6" transform="translate(1187.15 85)">ี</text><text class="cls-6" transform="translate(1175.21 85)">ฏ</text><text class="cls-6" transform="translate(1162.15 85)">ษ</text><text class="cls-6" transform="translate(1150.77 85)">ฤ</text><text class="cls-6" transform="translate(1138.37 85)">ท</text></g></g><g class="cls-4"><g class="cls-8"><text class="cls-6" transform="translate(1580.85 85)">้</text><text class="cls-6" transform="translate(1572.31 85)">ว</text><text class="cls-6" transform="translate(1564.09 85)">ไ</text><text class="cls-6" transform="translate(1564.09 85)">้</text><text class="cls-6" transform="translate(1564.09 85)">ู</text><text class="cls-6" transform="translate(1554.85 85)">ร</text><text class="cls-6" transform="translate(1554.85 85)">้</text><text class="cls-6" transform="translate(1542.15 85)">ห</text><text class="cls-6" transform="translate(1534.45 85)">ใ</text><text class="cls-6" transform="translate(1523.13 85)">ก</text><text class="cls-6" transform="translate(1514.79 85)">า</text><text class="cls-6" transform="translate(1502.37 85)">ฝ</text></g></g><g class="cls-4"><g class="cls-9"><text class="cls-6" transform="translate(1613.37 85)">หน</text><text class="cls-6" transform="translate(1638.01 84.92)">่</text><text class="cls-6" transform="translate(1775.35 85)">า</text><text class="cls-6" transform="translate(1762.29 85)">ษ</text><text class="cls-6" transform="translate(1750.97 85)">ก</text><text class="cls-6" transform="translate(1750.97 85)">ึ</text><text class="cls-6" transform="translate(1741.73 85)">ร</text><text class="cls-6" transform="translate(1729.35 85)">ป</text><text class="cls-6" transform="translate(1721.01 85)">า</text><text class="cls-6" transform="translate(1721.01 85)">ํ</text><text class="cls-6" transform="translate(1708.65 85)">ค</text><text class="cls-6" transform="translate(1708.65 85)">้</text><text class="cls-6" transform="translate(1695.95 85)">ห</text><text class="cls-6" transform="translate(1688.25 85)">ใ</text><text class="cls-6" transform="translate(1675.63 85)">น</text><text class="cls-6" transform="translate(1667.29 85)">า</text><text class="cls-6" transform="translate(1658.55 85)">ง</text><text class="cls-6" transform="translate(1647.23 85)">ย</text><text class="cls-6" transform="translate(1638.69 85)">ว</text></g></g><g class="cls-4"><g class="cls-10"><text class="cls-6" transform="translate(970.21 85)">่</text><text class="cls-6" transform="translate(957.99 85)">ม</text><text class="cls-6" transform="translate(945.29 85)">ห</text><text class="cls-6" transform="translate(937.59 85)">ใ</text><text class="cls-6" transform="translate(937.59 85)">ี</text><text class="cls-6" transform="translate(925.65 85)">ฎ</text><text class="cls-6" transform="translate(912.59 85)">ษ</text><text class="cls-6" transform="translate(901.21 85)">ฤ</text><text class="cls-6" transform="translate(888.81 85)">ท</text><text class="cls-6" transform="translate(877.49 85)">ก</text><text class="cls-6" transform="translate(877.49 85)">ั</text><text class="cls-6" transform="translate(867.71 85)">จ</text><text class="cls-6" transform="translate(867.71 85)">้</text><text class="cls-6" transform="translate(867.71 85)">ู</text><text class="cls-6" transform="translate(858.47 85)">ร</text></g></g><g class="cls-4"><g class="cls-11"><text class="cls-6" transform="translate(758.47 85)">หน</text><text class="cls-6" transform="translate(784.91 84.92)">้</text><text class="cls-6" transform="translate(783.79 85)"><tspan class="cls-12">าแร</tspan><tspan x="31.3" y="0">ก</tspan></text></g></g><g class="cls-4"><g class="cls-13"><text class="cls-6" transform="translate(1448.95 85)">น</text><text class="cls-6" transform="translate(1436.25 85)">ห</text><text class="cls-6" transform="translate(1427.71 85)">ว</text><text class="cls-6" transform="translate(1419.37 85)">า</text><text class="cls-6" transform="translate(1419.37 85)">้</text><text class="cls-6" transform="translate(1408.05 85)">ก</text><text class="cls-6" transform="translate(1395.43 85)">น</text><text class="cls-6" transform="translate(1395.43 85)">้</text><text class="cls-6" transform="translate(1395.43 85)">ั</text><text class="cls-6" transform="translate(1383.77 85)">ข</text><text class="cls-6" transform="translate(1383.77 85)">่</text><text class="cls-6" transform="translate(1371.55 85)">ม</text><text class="cls-6" transform="translate(1358.85 85)">ห</text><text class="cls-6" transform="translate(1351.15 85)">ใ</text><text class="cls-6" transform="translate(1351.15 85)">ี</text><text class="cls-6" transform="translate(1339.21 85)">ฎ</text><text class="cls-6" transform="translate(1326.15 85)">ษ</text><text class="cls-6" transform="translate(1314.77 85)">ฤ</text><text class="cls-6" transform="translate(1302.37 85)">ท</text><text class="cls-6" transform="translate(1462.69 84.92)">้</text><text class="cls-6" transform="translate(1461.57 85)">า</text></g></g></g><g class="cls-2"><path class="cls-14" d="M154.24,134.79l2.19-4,1,.54-2,3.76a.54.54,0,0,0-.07.37.51.51,0,0,0,.25.27l.42.23-.43.79-.85-.47a1,1,0,0,1-.61-1.27.88.88,0,0,1,.1-.22"/><path class="cls-14" d="M157.73,135.6a1.2,1.2,0,0,1,1.29-.83l-.9-.73.49-1.06a4.12,4.12,0,0,1,1.35-.14,4.19,4.19,0,0,1,1.52.41,3,3,0,0,1,1.53,1.3,2.07,2.07,0,0,1-.14,1.83l-1.48,3.18-1-.48,1.49-3.21a1.27,1.27,0,0,0,.12-1.06,1.8,1.8,0,0,0-.92-.75,3.64,3.64,0,0,0-.94-.27,2.21,2.21,0,0,0-.81,0l-.08.17.95.78-.32.68a1.07,1.07,0,0,0-.66.06,1.27,1.27,0,0,0-.44.56l-.86,1.84-1-.48Z"/><path class="cls-14" d="M163.77,140a2.21,2.21,0,0,1,0-1.85L165,134.9l1.07.38-1.2,3.29a1.3,1.3,0,0,0,0,1.09,1.55,1.55,0,0,0,.91.68,1.58,1.58,0,0,0,1.13.06,1.32,1.32,0,0,0,.69-.84l.25-.7-1.27-.46.3-.82,1.27.47.64-1.78,1.07.39-.64,1.78.58.21-.38.78-.5-.18-.24.66a2.09,2.09,0,0,1-1.22,1.39,2.82,2.82,0,0,1-2-.11,2.79,2.79,0,0,1-1.64-1.2"/><path class="cls-14" d="M170.21,142.09a3.17,3.17,0,0,1-.07-2.23,4.36,4.36,0,0,1,1-2,1.63,1.63,0,0,1,2.14-.11,1.46,1.46,0,0,1,.34.52,2,2,0,0,1,.66-.24,1.84,1.84,0,0,1,.74,0,1.25,1.25,0,0,1,.87.64,1.68,1.68,0,0,1,0,1.17l-1.07,4.1-1.11-.29,1-3.94a1,1,0,0,0,0-.6c0-.13-.17-.22-.38-.28a.72.72,0,0,0-.41,0,.78.78,0,0,0-.34.28L173,139a1,1,0,0,0-.17-.42.58.58,0,0,0-.33-.21.76.76,0,0,0-.83.34,4.89,4.89,0,0,0-.6,1.46,2.47,2.47,0,0,0,0,1.52,1.26,1.26,0,0,0,.91.71,2.24,2.24,0,0,0,.72.1l-.22.84a2.87,2.87,0,0,1-.92-.11,2.14,2.14,0,0,1-1.32-1.09"/><path class="cls-14" d="M177.37,144.44a3.35,3.35,0,0,1-.8-.35l.16-.94a3.88,3.88,0,0,0,.8.38,4.38,4.38,0,0,0,.84.23,3.38,3.38,0,0,0,1.1,0,.54.54,0,0,0,.41-.48.62.62,0,0,0-.06-.42.72.72,0,0,0-.3-.3,6.44,6.44,0,0,0-.63-.36l-.38-.2a4,4,0,0,1-1.15-.85,1.23,1.23,0,0,1-.26-1,1.42,1.42,0,0,1,.77-1.08,2.89,2.89,0,0,1,1.74-.13,6.7,6.7,0,0,1,1.66.53l-.15.93a5.83,5.83,0,0,0-.72-.32,5,5,0,0,0-.78-.21,2.8,2.8,0,0,0-1,0,.53.53,0,0,0-.42.45.55.55,0,0,0,.08.38,1,1,0,0,0,.34.31l.68.39.29.14a3.92,3.92,0,0,1,1.17.88,1.54,1.54,0,0,1-.48,2.13l-.11,0a3,3,0,0,1-1.74.1,8.19,8.19,0,0,1-1.06-.26"/><path class="cls-14" d="M182.67,139.54l1,.09v.62a3,3,0,0,1,2.06-.56,1.82,1.82,0,0,1,1.35.65,2.1,2.1,0,0,1,.38,1.53l-.3,3.71-1.13-.09.3-3.66a1.13,1.13,0,0,0-.22-.9,1.22,1.22,0,0,0-.86-.35,1.86,1.86,0,0,0-.87.12,2.39,2.39,0,0,0-.74.43l-.33,4.14-1.14-.09Z"/><path class="cls-14" d="M192.86,142a1.29,1.29,0,0,0-.35-1,1.81,1.81,0,0,0-1.16-.27,3.81,3.81,0,0,0-1,.17,2,2,0,0,0-.71.4v.19l1.2.28v.75a1,1,0,0,0-.57.35,1.28,1.28,0,0,0-.16.69v.68a.48.48,0,0,0,.11.35.41.41,0,0,0,.33.09h.58v.9H190a1,1,0,0,1-.75-.28,1.11,1.11,0,0,1-.29-.76v-1a1.21,1.21,0,0,1,.81-1.31L188.7,142v-1.18a4.21,4.21,0,0,1,1.16-.71,4.48,4.48,0,0,1,1.53-.3,3,3,0,0,1,2,.5A2.1,2.1,0,0,1,194,142l.09,5.18H193Z"/><path class="cls-14" d="M196.47,144.88a2.18,2.18,0,0,1-.88-1.63l-.41-3.43,1.12-.13.42,3.47a1.33,1.33,0,0,0,.49,1,1.52,1.52,0,0,0,1.12.19,1.46,1.46,0,0,0,1-.46,1.27,1.27,0,0,0,.24-1l-.09-.74-1.34.16-.11-.86,1.34-.16-.22-1.87,1.13-.14.23,1.87.61-.08v.88l-.53.06.09.7a2.14,2.14,0,0,1-.47,1.79,3.39,3.39,0,0,1-3.79.46Z"/><path class="cls-14" d="M204.25,145.36a4.22,4.22,0,0,1,1.65-.76,4.4,4.4,0,0,1,.8-.11,2.39,2.39,0,0,1,.66.08l-1-4.5a1.36,1.36,0,0,0-.54-.91,1.71,1.71,0,0,0-1.14,0,3.48,3.48,0,0,0-.92.37,2,2,0,0,0-.6.53v.18h1.26l.17.73a.92.92,0,0,0-.43.44,1.7,1.7,0,0,0,0,.71l.17.73a1.11,1.11,0,0,1-.61,1.45,1.08,1.08,0,0,1-.31.07l-.69.16-.2-.88.38-.08a.35.35,0,0,0,.28-.17.43.43,0,0,0,0-.35l-.16-.69a2.31,2.31,0,0,1,0-.83,1,1,0,0,1,.47-.6H202.3l-.26-1.14a4.42,4.42,0,0,1,1-.93,4.62,4.62,0,0,1,1.45-.61,2.82,2.82,0,0,1,2,.11,2.08,2.08,0,0,1,1,1.52l1.24,5.4-1.11.25a3.25,3.25,0,0,0-1.58,0,4.31,4.31,0,0,0-.83.29,3.54,3.54,0,0,0-.71.45Z"/><polygon class="cls-14" points="202.29 137.31 205.53 136.39 205.29 135.55 206.2 135.29 206.66 136.89 202.46 138.09 202.29 137.31"/><path class="cls-14" d="M209.37,141.77l-.72-2.31a2,2,0,0,1-.07-1,4.84,4.84,0,0,1,.35-.89,2.67,2.67,0,0,0,.2-.46.57.57,0,0,0-.27-.67,1,1,0,0,0-.54.06,2.5,2.5,0,0,0-1,.63l-.24-.8a2.53,2.53,0,0,1,.6-.48,4.12,4.12,0,0,1,.74-.34,1.74,1.74,0,0,1,1.15,0,1,1,0,0,1,.62.74,1.12,1.12,0,0,1,0,.63,2.82,2.82,0,0,1-.27.7,5.79,5.79,0,0,0-.27.8,1.42,1.42,0,0,0,0,.74l.62,2c.06.18.12.3.2.34a.5.5,0,0,0,.38,0l.46-.14.27.86-.93.28a1,1,0,0,1-1.28-.58.75.75,0,0,1,0-.16"/><path class="cls-14" d="M211,136.49l1.07-.41.64,1.66,1.52-.58a1.16,1.16,0,0,0,.7-.54,1.09,1.09,0,0,0-.06-.83l-.26-.69,1-.4.25.65a1.37,1.37,0,0,1-.25,1.7,1,1,0,0,1,.76.25,1.93,1.93,0,0,1,.48.75l.74,1.94-1,.41-.7-1.82a1.14,1.14,0,0,0-.51-.69,1.23,1.23,0,0,0-.88.09l-1.48.57,1.08,2.81-1.07.41Z"/><path class="cls-14" d="M221,138.34a2.83,2.83,0,0,1-1-.09l.22.58-.93.45-2.48-5.08,1-.5,1.83,3.75a2.29,2.29,0,0,0,.85.13,1.9,1.9,0,0,0,.85-.2,1,1,0,0,0,.53-1.59l-1.6-3.29,1-.49,1.62,3.33a2.08,2.08,0,0,1,.21,1.58,1.83,1.83,0,0,1-1,1.11,3,3,0,0,1-1.1.31"/><polygon class="cls-14" points="219 130.26 220 129.72 220.81 131.23 219.81 131.77 219 130.26"/><polygon class="cls-15" points="141.44 79.28 141.71 55.3 150.56 49.48 158.84 55.53 158.57 79.48 141.44 79.28"/><polygon class="cls-15" points="152.81 79.41 152.93 69.09 161.78 63.27 170.05 69.33 169.86 86.34 152.81 79.41"/><rect class="cls-16" x="159.19" y="68.14" width="4.79" height="4.79" transform="translate(89.43 231.4) rotate(-89.43)"/><rect class="cls-16" x="147.94" y="54.37" width="4.79" height="4.79" transform="translate(92.07 206.52) rotate(-89.42)"/><path class="cls-15" d="M151.21,72.6l11.2-7.93h-1.09l10.76,8.17c1.1.84,2.18-1,1.09-1.85l-10.76-8.18a1,1,0,0,0-1.09,0l-11.19,7.93c-1.12.79,0,2.66,1.08,1.86"/><path class="cls-15" d="M139.82,58.81,151,50.88h-1.09l10.76,8.17c1.1.84,2.17-1,1.08-1.85L151,49a1,1,0,0,0-1.09,0l-11.17,8c-1.12.79-.05,2.66,1.08,1.86Z"/><path class="cls-17" d="M178.75,132.93a53.88,53.88,0,0,0,58-78.57,88.38,88.38,0,0,0-58,78.57"/><path class="cls-18" d="M215.69,92s-11-11.5-8-27.26"/><path class="cls-16" d="M207.71,96.88c3.1-3.4,6.13-7.06,9-10.74s5.67-7.51,8.31-11.41,5.08-7.93,7.37-12.06a107,107,0,0,0,5.91-12.88,107.75,107.75,0,0,1-4.79,13.43q-2.89,6.52-6.36,12.82t-7.39,12.28c-2.62,4-5.3,7.92-8.27,11.8Z"/><path class="cls-19" d="M189.4,94.55a87.86,87.86,0,0,1-53.71-18.23c-.09,1.26-.15,2.53-.15,3.8a53.87,53.87,0,0,0,107.73,1.47q0-.74,0-1.47c0-1.27-.06-2.54-.15-3.8A87.84,87.84,0,0,1,189.4,94.55"/><path class="cls-20" d="M136.15,72.18a53.9,53.9,0,0,0,76.34,57.34,88.4,88.4,0,0,0-76.34-57.34"/><path class="cls-16" d="M146.62,81.63A16.34,16.34,0,0,1,149.17,84a26.34,26.34,0,0,1,2.08,2.65h-1.66a27,27,0,0,1,2-2.65,16.21,16.21,0,0,1,2.49-2.34,15.18,15.18,0,0,1-1.18,3.2,24.16,24.16,0,0,1-1.64,2.89L150.44,89l-.84-1.23a24,24,0,0,1-1.73-2.89,16.09,16.09,0,0,1-1.25-3.24"/><path class="cls-16" d="M150.31,80.07a5.31,5.31,0,0,1,.81,1.76,7.13,7.13,0,0,1,.25,1.77,6.66,6.66,0,0,1-.19,1.78,5.26,5.26,0,0,1-.76,1.79,5.64,5.64,0,0,1-.81-1.76,7.48,7.48,0,0,1-.24-1.77,7.69,7.69,0,0,1,.18-1.78,5.66,5.66,0,0,1,.76-1.79"/><path class="cls-16" d="M165.21,90.28a16.05,16.05,0,0,1,2.55,2.32,26.34,26.34,0,0,1,2.08,2.65h-1.66a27,27,0,0,1,2-2.65,15.7,15.7,0,0,1,2.48-2.34,15.15,15.15,0,0,1-1.17,3.2,24.23,24.23,0,0,1-1.65,2.89L169,97.61l-.84-1.23a27.94,27.94,0,0,1-1.73-2.89,15.74,15.74,0,0,1-1.22-3.21"/><path class="cls-16" d="M168.9,88.72a5.12,5.12,0,0,1,.81,1.76,7.11,7.11,0,0,1,.06,3.55,5.26,5.26,0,0,1-.76,1.79,5.88,5.88,0,0,1-.81-1.76,7.61,7.61,0,0,1,0-3.55,5.85,5.85,0,0,1,.7-1.79"/><path class="cls-16" d="M153.16,101.59a15.25,15.25,0,0,1,2.55,2.33,24.86,24.86,0,0,1,2.08,2.64h-1.65a27,27,0,0,1,2-2.65,17.15,17.15,0,0,1,2.48-2.34,14.43,14.43,0,0,1-1.17,3.2,22.92,22.92,0,0,1-1.65,2.89L157,108.9l-.84-1.22a25.38,25.38,0,0,1-1.73-2.89,15.78,15.78,0,0,1-1.26-3.2"/><path class="cls-16" d="M156.86,100a5.31,5.31,0,0,1,.81,1.76,7.62,7.62,0,0,1,.24,1.77,7.49,7.49,0,0,1-.18,1.77,5.07,5.07,0,0,1-.76,1.79,5.14,5.14,0,0,1-.81-1.76,7.48,7.48,0,0,1-.25-1.77,8.22,8.22,0,0,1,.19-1.78,5.51,5.51,0,0,1,.76-1.78"/><path class="cls-16" d="M168.12,115.82a15.63,15.63,0,0,1,2.55,2.32,25,25,0,0,1,2.08,2.65H171.1a27,27,0,0,1,2-2.65,15.7,15.7,0,0,1,2.48-2.34,14.61,14.61,0,0,1-1.17,3.2,24.23,24.23,0,0,1-1.65,2.89l-.81,1.24-.84-1.23a24,24,0,0,1-1.73-2.89,15.69,15.69,0,0,1-1.26-3.19"/><path class="cls-16" d="M171.82,114.26a5.62,5.62,0,0,1,.81,1.76,7.61,7.61,0,0,1,.06,3.55,5.26,5.26,0,0,1-.76,1.79,5.33,5.33,0,0,1-.81-1.76,7.48,7.48,0,0,1-.25-1.77,8.29,8.29,0,0,1,.19-1.78,5.66,5.66,0,0,1,.76-1.79"/><path class="cls-16" d="M181.94,102.28a15.7,15.7,0,0,1,2.56,2.32,26.23,26.23,0,0,1,2.07,2.65h-1.65a27,27,0,0,1,2-2.65,17.08,17.08,0,0,1,2.48-2.33,14.35,14.35,0,0,1-1.17,3.19,22.86,22.86,0,0,1-1.64,2.89l-.82,1.24-.84-1.22a25.38,25.38,0,0,1-1.73-2.89,16.38,16.38,0,0,1-1.26-3.2"/><path class="cls-16" d="M185.64,100.72a5.31,5.31,0,0,1,.81,1.76,7.61,7.61,0,0,1,.06,3.55,5.21,5.21,0,0,1-.76,1.78,5.05,5.05,0,0,1-.81-1.76,7.48,7.48,0,0,1-.24-1.77,9,9,0,0,1,.18-1.78,5.6,5.6,0,0,1,.76-1.78"/><path class="cls-16" d="M194,118.82a15.63,15.63,0,0,1,2.55,2.32,24,24,0,0,1,2.08,2.65H197a27,27,0,0,1,2-2.65,16.58,16.58,0,0,1,2.48-2.33,15.15,15.15,0,0,1-1.17,3.2,22.8,22.8,0,0,1-1.65,2.88l-.81,1.24-.85-1.22a28.15,28.15,0,0,1-1.7-2.92,15.42,15.42,0,0,1-1.3-3.17"/><path class="cls-16" d="M197.74,117.26a5.31,5.31,0,0,1,.81,1.76,7.61,7.61,0,0,1,.06,3.55,5.21,5.21,0,0,1-.76,1.78,5.35,5.35,0,0,1-.82-1.76,8.67,8.67,0,0,1-.24-1.77A7.7,7.7,0,0,1,197,119a5.6,5.6,0,0,1,.76-1.78"/><path class="cls-15" d="M153.76,38.22c.1-3.33,1.85-4.58,4.52-4.51a3.74,3.74,0,0,1,2.88,1.09V33.35c0-1.48-.71-2.29-2.54-2.34a4.74,4.74,0,0,0-3.34,1.12l-1.17-1.69a7.61,7.61,0,0,1,5-1.45,7,7,0,0,1,2.61.53,2.15,2.15,0,0,0,.69-1.12l2.35.57a3.24,3.24,0,0,1-1.2,2,3.68,3.68,0,0,1,.66,2.42L164,41.15l-2.89-.08c.1-3.88-.63-5.29-2.77-5.35-1.08,0-1.75.28-1.86,1.27,1.63-.09,2.34.66,2.3,2.18s-.63,2.15-2.58,2.1-2.49-1.06-2.44-3.05m3.42.84c0-.61-.17-.82-.86-.84s-.88.18-.9.8.2.88.86.9.89-.19.9-.86"/><path class="cls-15" d="M161,46.23a1.84,1.84,0,0,1-2-1.65,2.37,2.37,0,0,1,0-.46c0-1.41.57-2.19,2.48-2.14s2.41.89,2.36,2.58l-.1,3.6L161,48.08Zm1.2-2c0-.66-.18-.86-.86-.88s-.89.17-.9.83.17.83.86.84.91-.17.93-.79Z"/><path class="cls-20" d="M166.15,37.32v-.9a4,4,0,0,1,1.36-2.88c-1.32-.12-1.74-.77-1.71-2.18s.61-2.15,2.55-2.1,2.5.65,2.46,2.3v.77c0,1.48-1.6,1.77-1.65,3.82v1.39c0,1.23.16,2.08,1.91,2.12s2-.78,2-2l.22-7.91,3,.08L176,37.46c-.07,2.47-1.29,4.31-5.06,4.21s-4.85-2.16-4.79-4.35m3-5.81c0-.66-.17-.86-.85-.88s-.91.17-.93.84.2.82.88.84.91-.18.92-.8Z"/><path class="cls-17" d="M180.29,35.47a1.89,1.89,0,0,1-2.4-1.66c-.25-1.43.16-2.27,2.09-2.61s2.63.31,2.94,2l.91,5.1.87-4.18,1.12-.21,2.33,3.62-1.29-7.25,2.93-.52,2.05,11.48-3,.54-3-4.49-1.2,5.23-3,.54Zm.89-2.22c-.12-.65-.35-.81-1-.69s-.84.35-.72,1,.34.77,1,.65.82-.35.72-1"/><path class="cls-19" d="M192.92,37.41l-.23-1.31c-.31-1.71.14-2.58,2.05-2.92s2.61.3,2.86,1.73-.6,2-1.81,2.26l.05.3c.16.89.87,1.23,2.3,1s2.11-.91,1.94-1.85l-.8-4.49C199,30.59,198,30,196.1,30.37a5,5,0,0,0-3,1.72l-1.48-1.37a7.8,7.8,0,0,1,4.55-2.4c3.91-.7,5.61.7,6.07,3.24l.77,4.37c.27,1.52-.49,3.78-4.48,4.49s-5.25-1-5.61-3m3.15-2.2c-.12-.65-.35-.81-1-.69s-.84.35-.72,1,.34.77,1,.65S196.18,35.82,196.07,35.21Z"/><path class="cls-17" d="M168.69,58.15a1.89,1.89,0,0,1-2.36-1.24,2.7,2.7,0,0,1-.08-.39c-.27-1.43.14-2.27,2.07-2.63s2.65.28,3,2l.5,2.67,1.2-3.48c.54-1.57,1.19-2.29,2.51-2.54A2.05,2.05,0,0,1,178,54a1.21,1.21,0,0,1,.06.38l1.8,9.51-2.92.56-1.56-8.24c0-.24-.1-.31-.28-.28s-.26.18-.4.61l-2.12,6.11.48,2.53-2.93.55Zm.84-2.23c-.12-.65-.35-.8-1-.68s-.83.36-.7,1,.34.77,1,.64.82-.35.7-1"/><path class="cls-19" d="M171.27,48a4.9,4.9,0,0,1,3,.29l-.3-1.59,2.53-.47.93,4.89-10.55,2c-.29-2.76,1.62-4.56,4.39-5.12m3.18,2.18c-.52-.69-1.66-.81-2.87-.58s-2.15.75-2.23,1.55Z"/><polygon class="cls-20" points="173.26 42.99 175.81 42.51 176.37 45.45 173.82 45.93 173.26 42.99"/><path class="cls-15" d="M183.83,54a2.16,2.16,0,0,1-2.18-2.17,1.91,1.91,0,0,1,0-.47c.19-1.69.93-2.49,3.2-2.23s2.84,1.22,2.62,3.24l-.68,6L189.19,54l1.33.15,1.4,4.81,1-8.54,3.45.39-1.52,13.53-3.53-.4-1.83-6-3.08,5.46-3.55-.4Zm1.72-2.18c.09-.77-.12-1-.91-1.12s-1,.12-1.14.89.13,1,.92,1.06,1.05-.12,1.13-.83"/><polygon class="cls-17" points="193.51 44.7 196.97 45.08 196.49 49.3 193 48.91 193.51 44.7"/><path class="cls-20" d="M197.31,60.4l.17-1.53c.23-2,1-2.84,3.27-2.59s2.82,1.2,2.63,2.89-1.35,2.08-2.78,1.91v.36c-.12,1,.56,1.67,2.25,1.86s2.65-.32,2.77-1.42l.6-5.3c.2-1.79-.73-2.75-3-3a5.89,5.89,0,0,0-4,.93l-1.2-2a9,9,0,0,1,5.88-1.17c4.61.51,6,2.64,5.72,5.64L209,62.12c-.2,1.79-1.81,4.07-6.51,3.54s-5.53-2.85-5.22-5.26M201.56,59c.08-.77-.12-1-.91-1.11s-1.05.11-1.14.88.13,1,.92,1.06,1-.11,1.13-.83"/><path class="cls-19" d="M212,57l-1.7-5.75c-.63-2.14,1.66-4,1.15-5.75-.22-.76-.71-1-1.6-.74s-1.21.81-1,1.6l.21.72-2.86.84-.22-.74c-.6-2,1-3.69,3.31-4.36,2.84-.84,4.38,0,4.92,1.86.62,2.07-1.59,4-1.05,5.83l1.17,4a1.87,1.87,0,0,1,2.45,1,1.48,1.48,0,0,1,.12.41c.41,1.39.1,2.27-1.78,2.82S212.48,58.64,212,57m3.42-.71c-.17-.59-.42-.73-1.07-.53s-.79.44-.62,1,.44.77,1.09.57.77-.43.58-1.06Z"/><path class="cls-17" d="M219.16,49.05a1.87,1.87,0,0,1-2.47-1,2.22,2.22,0,0,1-.12-.39c-.41-1.4-.1-2.27,1.79-2.83s2.67,0,3.16,1.69l1.54,5.18,1.17-3.82a1.82,1.82,0,0,1,.38-.71c-.69-.08-1.19-.48-1.48-1.43-.41-1.39-.14-2.28,1.74-2.84s2.57-.18,3,1.43a1.67,1.67,0,0,1-.5,2c.56.11.94.53,1.17,1.31l1.81,6.11-2.86.85-1.44-4.87c-.06-.23-.13-.3-.26-.26s-.18.17-.27.47l-1.69,5.74-2.51.75Zm.61-2.29c-.19-.64-.43-.77-1.09-.58s-.79.44-.6,1.08.42.72,1.08.53.84-.44.61-1m6.6-2c-.19-.63-.46-.76-1.11-.57s-.79.45-.6,1.08.42.73,1.07.53.82-.4.64-1Z"/><path class="cls-15" d="M220.84,41.56c.57-.16.91-.31.94-.69a1.43,1.43,0,0,1-2-.45,1.52,1.52,0,0,1-.2-.55c-.36-1.2.12-1.83,1.5-2.23s2.09-.09,2.45,1.13a2.32,2.32,0,0,1,0,1.68c1.24-.55,1.42-1.34,1-2.77l-.11-.38,2.11-.63.13.44A3.79,3.79,0,0,1,224.44,42a2.77,2.77,0,0,1-.41.12l-2.77.82Zm1.47-2.48c-.16-.53-.39-.62-.92-.46s-.68.36-.52.89.35.63.92.46.67-.38.52-.89"/><path class="cls-18" d="M225.12,76.69s-6.79-7.12-5-16.87"/><path class="cls-18" d="M229.87,68.9s7.38.21,12.41-3.46"/></g></svg>