<svg id="Layer_1" data-name="Layer 1" xmlns="http://www.w3.org/2000/svg" xmlns:xlink="http://www.w3.org/1999/xlink" viewBox="0 0 750 5342"><defs><style>.cls-1,.cls-18,.cls-59{fill:none;}.cls-2{fill:#64a2a1;}.cls-3{fill:#c7d17b;}.cls-4{fill:#406f72;}.cls-5{fill:#93c2b4;}.cls-6{fill:#66846a;}.cls-7{fill:#fff;}.cls-8{fill:#467f3a;}.cls-9{clip-path:url(#clip-path);}.cls-10{fill:#dfdbcf;}.cls-11{fill:#b1bf60;}.cls-12{fill:#df5145;}.cls-13{fill:#77a275;}.cls-14{fill:#687854;}.cls-15{fill:#e75045;}.cls-16{fill:#fbefd7;}.cls-17{fill:#2e4a3c;}.cls-18{stroke:#000;stroke-width:0.89px;}.cls-18,.cls-59{stroke-miterlimit:10;}.cls-19{fill:#89bf85;}.cls-20{fill:#26805c;}.cls-21{fill:#518e52;}.cls-22{fill:#6bad7f;}.cls-23{fill:#b8bb6e;}.cls-24{fill:#e1dc8a;}.cls-25{fill:#c5d081;}.cls-26{fill:#5a9054;}.cls-27{fill:#618257;}.cls-28{fill:#35674c;}.cls-29{fill:#ebe261;}.cls-30{fill:#d0cf75;}.cls-31{fill:#d5d784;}.cls-32{fill:#9ab870;}.cls-33{fill:#f8f0b1;}.cls-34{fill:#fffabb;}.cls-35{fill:#f6eb99;}.cls-36{fill:#e7db91;}.cls-37{fill:#658369;}.cls-38{fill:#f5e997;}.cls-39{fill:#b7ca79;}.cls-40{fill:#62906b;}.cls-41{fill:#ce1a19;}.cls-42{fill:#23689c;}.cls-43{fill:#faf2de;}.cls-44{fill:#6ca77d;}.cls-45{fill:#65ab45;}.cls-46{fill:#fdda0e;}.cls-47{fill:#c6742b;}.cls-48{fill:#185939;}.cls-49{fill:#f8da4b;}.cls-50{fill:#f4b845;}.cls-51{fill:#488a71;}.cls-52{fill:#b5d486;}.cls-53{fill:#241b14;}.cls-54{fill:#f9c241;}.cls-55{fill:#f0644f;}.cls-56{fill:#b05226;}.cls-57{fill:#f3a95a;}.cls-58{fill:#403228;}.cls-59{stroke:#fffabb;stroke-width:0.77px;}.cls-60{fill:#4e4133;}.cls-61{fill:#bd3426;}.cls-62{fill:#d85b4d;}.cls-63{fill:#eaeee0;}.cls-64{fill:#c2bfa5;}.cls-65{fill:#a16d45;}.cls-66{fill:#ebc080;}</style><clipPath id="clip-path"><path class="cls-1" d="M133.87,1081.4s2.95-.15,2.95,3.48-4.27,4.58-3.4,10.35-5.22,4.82-2.69,7.9,2.93,5.45-3.32,10.59-4.58,8-11.69,9.32-11.53-4.11-14.06-2.69-11.06,2.29-12.64.32-5.61-4-7.9-4.74-5.85-7.5-7.66-7.11.47-2.21,2-5.69-5-4.74-2.29-8.85-.08-5.21,3.56-8.37.39-6.32,4.34-7.9,3.79-4,4.66-7.74,2.29-3.64,5.77-4.82,7.74-2.13,9.16-5.06,1.43-6.4,6.09-3.24,5.29.4,7.74-.79,4.11-1.26,5.21.64,3.64-4.78,4.82-1.48.48,5.19,3.4,6.45.71,2.21,1.1,5.53,2,1.66.56,5.61S133.87,1081.4,133.87,1081.4Z"/></clipPath></defs><title>mobi6</title><path class="cls-2" d="M171.26,1029.87c-.31,6.84-1.69,14-6.17,19.18-.14.16-.26.3-.4.44h0c-3.18,3.47-7.47,5.72-11.31,8.48h0l-.2.13c-4,3-7.84,7-8.15,12,.06.11-.21.4-.58.7h0c-.62.51-1.49,1-1.65.87a1.06,1.06,0,0,1-.11-.94l0,0c.5-2,1.46-3.87,1.55-5.9a21.79,21.79,0,0,0-.57-4.45,10.05,10.05,0,0,1-.18-2,10.3,10.3,0,0,1,3.78-7.27,17.48,17.48,0,0,1,1.59-1.25h0a48.6,48.6,0,0,1,5.58-3.17l1.28-.67c6.88-3.68,13.85-8.59,15.55-16.11"/><path class="cls-3" d="M144.23,1064.83c-.09,2-1,3.92-1.55,5.9l0,0c-1-2-2.62-4.53-3.73-6.44a7.35,7.35,0,0,0-5-3.83,56.38,56.38,0,0,0-12.91,7.1,2.77,2.77,0,0,1-2.32.79,1.84,1.84,0,0,1-1-2,5.31,5.31,0,0,1,1-2.16c2.09-3.2,4.41-6.57,8-7.93l.39-.13c2.81-.93,5.89-.49,8.83,0a20,20,0,0,1,3.63.78h0a7.72,7.72,0,0,1,1.58.71,6,6,0,0,1,1.08.81,11.43,11.43,0,0,1,1.56,1.91,21.7,21.7,0,0,1,.57,4.45"/><path class="cls-4" d="M155.71,1046l-1.28.67a48.6,48.6,0,0,0-5.58,3.17h0a17.48,17.48,0,0,0-1.59,1.25,10.3,10.3,0,0,0-3.78,7.27,10.05,10.05,0,0,0,.18,2,11,11,0,0,0-1.56-1.91c.62-3.07-.83-6.23-1.62-9.31-.12-.45-.22-.9-.3-1.36v0a23.14,23.14,0,0,1,1.9-14.29,46,46,0,0,1,2.46-4.25l5.85-9.31a2.15,2.15,0,0,1,1-1c1.14-.37,1.9,1.17,2.1,2.36,1.32,7.82,2.83,16.76,2.22,24.69"/><path class="cls-5" d="M142.1,1058.47a6,6,0,0,0-1.08-.81,7.72,7.72,0,0,0-1.58-.71h0a20,20,0,0,0-3.63-.78c-2.94-.45-6-.89-8.83,0-4-1.22-8.1-2.51-11.39-5.09a17.32,17.32,0,0,1-6.45-14.55,2.78,2.78,0,0,1,.63-1.82,3,3,0,0,1,1.39-.6,17.81,17.81,0,0,1,5.56-.71c3.19.29,6,2.28,8.94,3.44,2.47,1,5.18,1.41,7.4,2.84a14.91,14.91,0,0,1,2.13,1.77c2,1.94,4.51,4.78,5,6.29v0c.08.46.18.91.3,1.36.79,3.08,2.24,6.24,1.62,9.31"/><path class="cls-6" d="M181.75,1066.3c-4.31,2.87-9.89,3.1-15,2.27a13,13,0,0,1-5.58-2c-1-.74-1.84-1.72-2.88-2.42-2.11-1.42-4.73-1.48-7.32-1.07-2.21,1.43-4.94,5.27-4.42,7.45a1.4,1.4,0,0,1-2.12.31c.37-.3.64-.59.58-.7.31-5,4.11-9.08,8.15-12l.2-.13h0c3.84-2.76,8.13-5,11.31-8.48h0c2.53-.42,5.14.55,7.56,1.5a10,10,0,0,1,3.37,1.87,9.49,9.49,0,0,1,1.79,2.73,80,80,0,0,1,4.34,10.71"/><path class="cls-7" d="M139.28,1057.43a3,3,0,0,0-1-1.85,7.53,7.53,0,0,0-1.74-1.21c-1.27-.67-2.58-1.34-3.85-2-2.55-1.39-5-2.89-7.5-4.45a121.3,121.3,0,0,1-14-10.33c4.89,3.15,9.69,6.38,14.59,9.47,2.44,1.57,4.9,3.1,7.35,4.63,1.24.76,2.47,1.51,3.71,2.3a8.32,8.32,0,0,1,1.68,1.46,2.92,2.92,0,0,1,.76,2"/><path class="cls-7" d="M120.57,1044.28a12,12,0,0,1-.4-2.1,20.1,20.1,0,0,1,0-4.2,10.36,10.36,0,0,1,.4-2.1,12,12,0,0,1,.4,2.1,18.47,18.47,0,0,1,.11,2.1,16.43,16.43,0,0,1-.12,2.1,11.07,11.07,0,0,1-.39,2.1"/><path class="cls-7" d="M126.78,1048.53c.07-.75.19-1.45.29-2.14l.27-2.08.22-2.08c.07-.7.13-1.41.23-2.15a6.66,6.66,0,0,1,.57,2.14,9.08,9.08,0,0,1,0,2.21,9.23,9.23,0,0,1-.51,2.15,7,7,0,0,1-1.06,2"/><path class="cls-7" d="M131.34,1051.23a26.69,26.69,0,0,0,1.41-2.36,17.66,17.66,0,0,0,1-2.47,18.49,18.49,0,0,0,.64-2.59,23.56,23.56,0,0,0,.28-2.73,7,7,0,0,1,.51,2.8,9.18,9.18,0,0,1-.46,2.84,9.31,9.31,0,0,1-1.33,2.56,7.15,7.15,0,0,1-2.08,2"/><path class="cls-7" d="M120.79,1044.06a10.54,10.54,0,0,1-1.79.42,20,20,0,0,1-3.57.24,10.56,10.56,0,0,1-1.83-.17,7.32,7.32,0,0,1,1.75-.62,10,10,0,0,1,1.8-.27,11.18,11.18,0,0,1,1.83,0,7.22,7.22,0,0,1,1.81.38"/><path class="cls-7" d="M126.78,1048.25a5.53,5.53,0,0,1-1.65,1.58,7.17,7.17,0,0,1-4.42,1.1,5.56,5.56,0,0,1-2.2-.61c.76,0,1.48-.1,2.18-.18a19.91,19.91,0,0,0,2.07-.39,18.66,18.66,0,0,0,2-.63c.66-.25,1.31-.55,2-.87"/><path class="cls-7" d="M131.5,1051.23a8.25,8.25,0,0,1-1.62.77,14,14,0,0,1-1.68.49,12.46,12.46,0,0,1-1.73.27,7.67,7.67,0,0,1-1.79,0,8.25,8.25,0,0,1,1.62-.77,13.58,13.58,0,0,1,3.41-.76,8.25,8.25,0,0,1,1.79,0"/><path class="cls-7" d="M176.28,1064.64a63.63,63.63,0,0,0-5.13-4c-.89-.61-1.78-1.22-2.71-1.77a22.64,22.64,0,0,0-2.81-1.53,10.92,10.92,0,0,0-6.15-.75,37.73,37.73,0,0,0-6.29,1.61,22.94,22.94,0,0,1,6.16-2.4,11.89,11.89,0,0,1,3.38-.24,10.3,10.3,0,0,1,3.31.85,28.25,28.25,0,0,1,5.59,3.6,30.2,30.2,0,0,1,4.65,4.67"/><path class="cls-7" d="M163.49,1056.34a10.52,10.52,0,0,1,1.47-1.51,19.74,19.74,0,0,1,1.64-1.29,18,18,0,0,1,1.77-1.1,10.93,10.93,0,0,1,1.94-.87,11.22,11.22,0,0,1-1.48,1.52,18.6,18.6,0,0,1-1.64,1.29c-.57.39-1.16.76-1.77,1.1a11.21,11.21,0,0,1-1.93.86"/><path class="cls-7" d="M168.32,1058.33a8.27,8.27,0,0,1,2-1.34,11.47,11.47,0,0,1,2.31-.8,10.94,10.94,0,0,1,2.42-.26,8.27,8.27,0,0,1,2.42.33c-.8.18-1.58.32-2.34.46s-1.53.3-2.28.47-1.5.36-2.26.55-1.51.41-2.31.59"/><path class="cls-7" d="M158.9,1056.25a15.39,15.39,0,0,0,.64,2.09l.75,2,.78,2a15.34,15.34,0,0,0,.91,2,4.71,4.71,0,0,1-1.62-1.61,10.39,10.39,0,0,1-1-2,11,11,0,0,1-.57-2.19,4.76,4.76,0,0,1,.14-2.28"/><path class="cls-7" d="M167.87,1057.76a7.74,7.74,0,0,0,.41,1.61c.18.5.38,1,.59,1.5s.44,1,.67,1.48.47,1,.77,1.51a3.48,3.48,0,0,1-1.44-1.07,5.8,5.8,0,0,1-.93-1.52,5.24,5.24,0,0,1-.44-1.75,2.78,2.78,0,0,1,.37-1.76"/><path class="cls-7" d="M148.67,1050c.19-2.1.37-4.2.6-6.29.11-1,.26-2.08.38-3.12l.22-1.56.17-1.57q.35-3.12.62-6.25c.15-2.09.35-4.17.33-6.28a31.13,31.13,0,0,1,.46,6.32c0,2.12-.18,4.23-.4,6.33s-.62,4.17-1,6.25c-.19,1-.4,2.07-.61,3.1s-.49,2-.78,3.07"/><path class="cls-7" d="M149.12,1047.48a4.74,4.74,0,0,1-1.29-.4,7.83,7.83,0,0,1-1.13-.64,7.14,7.14,0,0,1-1-.83,5,5,0,0,1-.84-1.06,4.43,4.43,0,0,1,1.29.41,5.9,5.9,0,0,1,1.12.64,6.51,6.51,0,0,1,1,.82,5.23,5.23,0,0,1,.84,1.06"/><path class="cls-7" d="M150.77,1036.72a4.48,4.48,0,0,1-1.13-.73,6.59,6.59,0,0,1-.91-.92A7.23,7.23,0,0,1,148,1034a4.84,4.84,0,0,1-.52-1.25,4.51,4.51,0,0,1,1.13.74,7.92,7.92,0,0,1,.92.91,8.84,8.84,0,0,1,.74,1.07,4.58,4.58,0,0,1,.52,1.24"/><path class="cls-7" d="M149.91,1043.38a7.8,7.8,0,0,1-1.62-1,10.9,10.9,0,0,1-1.39-1.24,9.89,9.89,0,0,1-1.17-1.48,4.29,4.29,0,0,1-.72-1.78c.45.47.9.85,1.34,1.28s.87.83,1.29,1.28.82.89,1.21,1.38a10.84,10.84,0,0,1,1.06,1.55"/><path class="cls-8" d="M133.87,1081.4s2.95-.15,2.95,3.48-4.27,4.58-3.4,10.35-5.22,4.82-2.69,7.9,2.93,5.45-3.32,10.59-4.58,8-11.69,9.32-11.53-4.11-14.06-2.69-11.06,2.29-12.64.32-5.61-4-7.9-4.74-5.85-7.5-7.66-7.11.47-2.21,2-5.69-5-4.74-2.29-8.85-.08-5.21,3.56-8.37.39-6.32,4.34-7.9,3.79-4,4.66-7.74,2.29-3.64,5.77-4.82,7.74-2.13,9.16-5.06,1.43-6.4,6.09-3.24,5.29.4,7.74-.79,4.11-1.26,5.21.64,3.64-4.78,4.82-1.48.48,5.19,3.4,6.45.71,2.21,1.1,5.53,2,1.66.56,5.61S133.87,1081.4,133.87,1081.4Z"/><g class="cls-9"><path class="cls-10" d="M129.17,1080.91a7.87,7.87,0,0,0,.15,2.32c.08.78.17,1.56.24,2.32a37,37,0,0,0,.56,4.39,22.79,22.79,0,0,0,1.37,4.14,26.17,26.17,0,0,1,1.45,4.54,24.1,24.1,0,0,1-3.09-3.65,12.2,12.2,0,0,1-2-4.54,14.83,14.83,0,0,1-.1-4.92c.11-.8.28-1.58.46-2.35A4.84,4.84,0,0,1,129.17,1080.91Z"/><path class="cls-10" d="M123.77,1080.81a4,4,0,0,0-.75,2.55,10.31,10.31,0,0,0,.47,2.63c.52,1.76,1.16,3.49,1.76,5.27a37.74,37.74,0,0,1,1.49,5.53,18.43,18.43,0,0,1,.05,5.93c-.7,3.92-2.46,7.36-4.1,10.67s-3.42,6.64-5.38,9.85c1.06-3.61,2.33-7.12,3.68-10.6s2.9-6.85,3.46-10.32-.12-6.94-1-10.56c-.43-1.8-.85-3.65-1.11-5.54a9.86,9.86,0,0,1,0-2.92A3.92,3.92,0,0,1,123.77,1080.81Z"/><path class="cls-10" d="M117.63,1081.74c0,1.85,0,3.69.08,5.5a38.77,38.77,0,0,0,.69,5.35,22.29,22.29,0,0,1,.58,5.69,19.06,19.06,0,0,1-1.32,5.68,62.19,62.19,0,0,1-5.48,9.72,40.19,40.19,0,0,0-2.58,4.73c-.76,1.64-1.36,3.38-2,5.11a33.47,33.47,0,0,1,.94-5.5,29.56,29.56,0,0,1,2.06-5.24c1.65-3.35,3.64-6.41,4.9-9.69a18.12,18.12,0,0,0,1.29-5,25.52,25.52,0,0,0-.18-5.27,28.63,28.63,0,0,1,0-5.63A32.29,32.29,0,0,1,117.63,1081.74Z"/><path class="cls-10" d="M124.05,1080.61a6.61,6.61,0,0,0-.69-6.23c-.63-.84-1.4-1.65-2.22-2.56a10.52,10.52,0,0,1-2-3.3,20.65,20.65,0,0,1-.92-7.3,36.9,36.9,0,0,1,.83-7.1c.48,2.35.72,4.7,1,7a32.68,32.68,0,0,0,1.29,6.57,9.85,9.85,0,0,0,1.56,2.72,20.64,20.64,0,0,1,2,3A6.22,6.22,0,0,1,124.05,1080.61Z"/><path class="cls-10" d="M117.76,1080.8a23.29,23.29,0,0,0-.05-3.93,4.55,4.55,0,0,0-1.44-3,15.07,15.07,0,0,0-3.27-1.64c-1.22-.53-2.43-1.09-3.63-1.66s-2.39-1.13-3.62-1.88a11.23,11.23,0,0,1-3.19-2.9,33,33,0,0,1-2.21-3.42c-.66-1.17-1.33-2.33-1.91-3.55,1,.91,1.92,1.88,2.84,2.86s1.78,2,2.67,2.89a11.53,11.53,0,0,0,2.92,2.18c1.08.57,2.33,1.1,3.52,1.68s2.4,1.17,3.58,1.78l1.78,1a7.06,7.06,0,0,1,1.82,1.39,5.18,5.18,0,0,1,1.13,2.08,6.91,6.91,0,0,1,.17,2.2A12.64,12.64,0,0,1,117.76,1080.8Z"/><path class="cls-10" d="M91.34,1062.51a10.9,10.9,0,0,0,2.12,2.89c.82.87,1.7,1.74,2.51,2.65,1.65,1.81,3.24,3.67,4.75,5.58s2.91,3.92,4.42,5.72a61.8,61.8,0,0,0,5.14,5.08,20.21,20.21,0,0,1-6.47-3.79,44.86,44.86,0,0,1-4.94-5.54c-1.52-1.91-3-3.88-4.34-5.9-.69-1-1.36-2-2-3.11A7.89,7.89,0,0,1,91.34,1062.51Z"/><path class="cls-10" d="M110.48,1084.43a1.6,1.6,0,0,1,.51,1.2c0,.43.1.82.16,1.26l.35,2.55c.21,1.7.4,3.4.54,5.1.08.86.17,1.68.22,2.57A7.81,7.81,0,0,1,112,1100a8.6,8.6,0,0,1-1.47,2.5c-.51.68-1,1.33-1.46,2a47.88,47.88,0,0,0-4.8,8.71,61.22,61.22,0,0,0-3.12,9.63,29.75,29.75,0,0,1,1.38-10.27,34.44,34.44,0,0,1,4.59-9.42c.5-.72,1.06-1.42,1.58-2.09a7.85,7.85,0,0,0,1.2-1.84c.49-1.14.25-3,.33-4.67s.08-3.42.15-5.13l.15-2.56a11.47,11.47,0,0,1,.14-1.3A1.51,1.51,0,0,0,110.48,1084.43Z"/><path class="cls-10" d="M82,1067.33q3.3,2.2,6.41,4.7c2.08,1.64,4.08,3.38,6,5.18s3.82,3.76,5.68,5.44a10.89,10.89,0,0,0,3,2c.54.22,1.17.4,1.87.7a6.85,6.85,0,0,1,2,1.3l.51.49-.21.69c-1,3.28-1.59,6.86-3,10.33a31.63,31.63,0,0,1-2.63,4.85c-1,1.52-1.93,3-2.77,4.5a52.9,52.9,0,0,0-6.52,19.94,42.94,42.94,0,0,1,4.75-20.89c1.65-3.24,3.76-6.2,5-9.26s1.81-6.68,3-10.18l.29,1.19a4.36,4.36,0,0,0-1.3-.87c-.51-.23-1.15-.43-1.82-.73a13.27,13.27,0,0,1-3.51-2.49c-1-.94-1.91-1.94-2.78-2.92s-1.77-1.93-2.68-2.88C89.68,1074.58,85.89,1070.93,82,1067.33Z"/><path class="cls-10" d="M80.57,1074.8a12.79,12.79,0,0,0,4.69,3.91c.91.5,1.82,1,2.76,1.66a14.28,14.28,0,0,1,2.56,2.21c1.47,1.61,2.76,3.16,4.17,4.74s2.81,3.12,4.2,4.78a24.22,24.22,0,0,1-5.48-3.45,39.72,39.72,0,0,1-4.61-4.45,18.85,18.85,0,0,0-2.17-2c-.77-.65-1.65-1.23-2.48-1.94a13.52,13.52,0,0,1-2.35-2.37A6.44,6.44,0,0,1,80.57,1074.8Z"/><path class="cls-10" d="M98.93,1092.34a8.74,8.74,0,0,1-.86,3.82,29.77,29.77,0,0,1-2.21,3.14,72.38,72.38,0,0,0-3.94,6.21c-1.25,2.13-2.36,4.37-3.62,6.53-.62,1.09-1.28,2.15-2,3.22a9.11,9.11,0,0,0-1.63,3.32,4.06,4.06,0,0,1,0-2,17.33,17.33,0,0,1,.56-1.85c.43-1.19.86-2.38,1.35-3.55a52.62,52.62,0,0,1,3.23-6.89,31.51,31.51,0,0,1,4.58-6.21c.89-1,1.91-1.72,2.66-2.6A12.58,12.58,0,0,0,98.93,1092.34Z"/><path class="cls-10" d="M85.68,1104.35a32.35,32.35,0,0,1-4.45,7.25c-.78,1.08-1.48,2.19-2.2,3.38a35.52,35.52,0,0,1-2.4,3.58,15.57,15.57,0,0,1,.69-4.35,13.74,13.74,0,0,1,2-4,21.9,21.9,0,0,1,2.92-3.21A21.17,21.17,0,0,1,85.68,1104.35Z"/><path class="cls-10" d="M85.48,1104.05a13.36,13.36,0,0,0-1.44-5.48,26.26,26.26,0,0,0-3.09-4.65c-1.17-1.5-2.46-3-3.6-4.65a15.08,15.08,0,0,1-2.55-5.51c1.29,1.57,2.6,2.94,4,4.32a49.93,49.93,0,0,1,4,4.38,15.89,15.89,0,0,1,3,5.46A8.62,8.62,0,0,1,85.48,1104.05Z"/></g><path class="cls-10" d="M137.65,1080.64s-.06-3.38-.78-3.38-4.5,2.61-12.2,2.9S112.11,1079.69,95,1096s-20.51,11.79-20.51,11.79,1.35,3.26,9.72-1.72,17.07-15.4,24.81-19.82,17.38-4.43,20.22-4.35A46,46,0,0,0,137.65,1080.64Z"/><path class="cls-11" d="M82.67,1030.88c.78-1.27.91-2.85,1.57-4.19a11.51,11.51,0,0,1,1.85-2.49c1.14-1.28,2.42-2.63,4.1-2.89,2-.29,3.81,1,5.78,1,2.36,0,4.31-1.75,6-3.39.32-.32.67-.76.49-1.17a.78.78,0,0,0-1.13-.2,2.41,2.41,0,0,0-.75,1,2.65,2.65,0,0,1-1.16,1.36c-.56.24-1.37,0-1.43-.65s.81-1.08,1.28-1.62a1.72,1.72,0,0,0-.08-2.26l-1.88,3.43a2.36,2.36,0,0,1-.86,1,2.27,2.27,0,0,1-1.19.18l-4.24-.11,5.43-3.67c.33-.22.71-.55.61-.94a.69.69,0,0,0-.87-.39,2,2,0,0,0-.83.64,9.13,9.13,0,0,0,2.33-4.84,1.36,1.36,0,0,0-1.09,1c-.19.48-.24,1-.47,1.49a1.21,1.21,0,0,1-1.24.75l2.34-5.53c.2-.48.29-1.19-.2-1.34s-.75.34-.92.74c-.85,2-1.28,4.12-2.09,6.12a8.68,8.68,0,0,1-4,4.86l1.62-5.33c.16-.51.21-1.25-.3-1.41a.73.73,0,0,0-.8.44,2.32,2.32,0,0,0-.15,1,11.07,11.07,0,0,1-2.62,6.81c-1,1.23-2.36,2.21-3.41,3.44a11.21,11.21,0,0,0-2.66,7.7Z"/><path class="cls-11" d="M80.27,1030.34a4.67,4.67,0,0,0-3.82-5.92c-.75-.11-1.69-.13-2-.82l3.42-.09a.12.12,0,0,0,.11-.1,2.15,2.15,0,0,0-1.47-2c-.84-.35-1.78-.4-2.64-.72-1.85-.68-3.3-4.66-2.94-4.66s1.91,3.05,3.53,3.77a.11.11,0,0,0,.14-.15,20.59,20.59,0,0,1-1.61-3.23c0-.48,2.41,2.43,2.41,2.43a.11.11,0,0,0,.18,0,3.35,3.35,0,0,0-1.73-4,13.43,13.43,0,0,0-1.78-.51,2.62,2.62,0,0,1-1.54-1,1.21,1.21,0,0,1,.24-1.65,2.78,2.78,0,0,0,2.62,1.41,6.91,6.91,0,0,1-2.94-6.36l3.06,5.3a.1.1,0,0,0,.19,0c.14-1.14-.24-3.49.28-3.49s.67,1.63,1,2.45c0-1.54-.5-4.62,0-4.62s1,4.53,1.57,6.8l1.08,4.71c.07.28.16.6.43.71s.35-.22.36-.87a9.4,9.4,0,0,0,0-1.3.81.81,0,0,1,.75-.89,2.49,2.49,0,0,1-.34,2.51,5,5,0,0,0-1.06,2.42c0,1.31,1.2,2.23,2.07,3.21a7.33,7.33,0,0,1,1.7,6,1.89,1.89,0,0,1-.77,1.4c-.48.26-1.26-.11-1.15-.65C79.93,1030.34,80,1030.36,80.27,1030.34Z"/><path class="cls-11" d="M82,1019.08a7,7,0,0,0,.76-2.19,4.68,4.68,0,0,0-.84-2.7,12,12,0,0,1-1.37-2.51,2.71,2.71,0,0,1,.42-2.71l1.33,2.56c.19.36.45.77.85.78s.67-.37.88-.7l3.69-5.91a1.62,1.62,0,0,1,.44-.53.56.56,0,0,1,.65,0c.23.18.21.53.16.82a16.09,16.09,0,0,1-2.87,6.62,7.08,7.08,0,0,0-1.65,3l2.41-2.2c.21-.19.57-.36.72-.12s-.09.42-.26.57a13.62,13.62,0,0,0-4.92,9.54c-.09,1.39,0,2.79-.07,4.18-.08,1.07-.34,3.18-1.37,3.8-.21-.29,0-1,0-1.38,0-.89-.12-1.78-.15-2.67a23.87,23.87,0,0,1,.34-5.34A14.36,14.36,0,0,1,82,1019.08Z"/><path class="cls-11" d="M81.14,1031.26a3.64,3.64,0,0,1,2.69-3.63c.61-.14,1.25-.12,1.87-.25a2,2,0,0,0,1.49-1c.15-.37.13-.79.27-1.16s.6-.67.93-.45.22.67,0,1-.56.44-.8.7a.73.73,0,0,0-.11,1,.6.6,0,0,0,.71.05,1.14,1.14,0,0,0,.46-.59,5,5,0,0,1,.54-1.2c.28-.35.89-.47,1.14-.1a.87.87,0,0,1-.13.92,2.16,2.16,0,0,0-.48.86,1.07,1.07,0,0,0,.49,1,3.18,3.18,0,0,0,1.08.43,5.18,5.18,0,0,0,2.06.26,1.77,1.77,0,0,0,1.53-1.23,9.06,9.06,0,0,1,.13-.91c.1-.29.44-.54.71-.4.43.24.06,1,.39,1.35s.82.06,1.15-.22a22,22,0,0,0,4.41-5.06,2.52,2.52,0,0,1,.77-.88.79.79,0,0,1,1,.16.86.86,0,0,1-.23,1c-.26.27-.61.42-.89.66a1,1,0,0,0-.44,1c.13.53.81.66,1.35.64s1.18,0,1.48.41a1,1,0,0,1-.57,1.37,2.34,2.34,0,0,1-1.66-.14,5.57,5.57,0,0,0-1.63-.49,2.13,2.13,0,0,0-1.73.81,2.29,2.29,0,0,0-.4,1.88,3.64,3.64,0,0,0,2.34,2.31c.55.23,1.25.56,1.19,1.16a.85.85,0,0,1-.84.68,1.77,1.77,0,0,1-1.08-.45c-.7-.55-1.2-1.33-1.92-1.87a2,2,0,0,0-2.47-.19l1.13.93c.4.34.84.83.65,1.31a.89.89,0,0,1-1.24.29,3.07,3.07,0,0,1-.94-1.08,1.9,1.9,0,0,0-1.07-.91c-.47-.11-1,.28-1,.75s.57.67.48,1.06a.56.56,0,0,1-.71.32,1.59,1.59,0,0,1-.67-.54l-2.06-2.41c-.25-.29-.58-.61-1-.53s-.56.8-.29,1.2a4,4,0,0,0,1.14.89,1.58,1.58,0,0,1,.61.72.78.78,0,0,1-.21.88.84.84,0,0,1-.91,0,2.46,2.46,0,0,1-.64-.72,15.18,15.18,0,0,0-1.51-2.13,3.81,3.81,0,0,0-2.21-1.31,2.22,2.22,0,0,0-2.25,1c-.17.3-.25.63-.4.94a1,1,0,0,1-.73.65.74.74,0,0,1-.75-.39.78.78,0,0,1,.11-.84Z"/><path class="cls-12" d="M81.9,1030.67c-.87-.24-6.53-1.62-8.33,2-1.95,3.9-1.95,14.3-2.6,16.9s-3.25,22.74-1.3,29.24c0,0,7.15-16.24,8.45-20.79s4.55-18.85,5.2-19.5.77-2.62.8-3.57c0-1.41-.13-3.38-1.59-4.07-.34-.16-1.46-.31-1.07.44Z"/><path class="cls-13" d="M137.87,1048.46s6.89-8.09,6.24-12.28,2.26-3.77,3.54-7,5.13-8.07-1-11.74-3-7.29-5.39-6.87-.06,3.39-2.76,5-1.51,14.14-1.44,19.55S140.57,1043.1,137.87,1048.46Z"/><path class="cls-13" d="M128.75,1046.56s1.66-6.91,4.9-11.42,4.25-15.8-3.28-16.36-7.92.66-10.09-3.14-2-5.83-2.93-9.26-5.66-3-5.87-5.4.57-8.25-1.8-9.12-6.48-4.29-8-1-3.52.58-2.26,8.41-4.18,5.82-.43,11.7,8,3,9.49,7.62,7.79,5.23,9.21,10.09S130.33,1039,128.75,1046.56Z"/><path class="cls-11" d="M133.7,1045.16s5-3.66,5.24-8.51,2.69-12-.14-15.36-4.1-3.41-2.29-9.88-.37-18.53-7-18-4.71-4.39-6.86-5.78-7.11.06-6.36,7-2.25,3.38-.52,10.61S128.25,1040.06,133.7,1045.16Z"/><path class="cls-14" d="M130.46,1055.13a6.13,6.13,0,0,0-.3-5,22.35,22.35,0,0,1-2.19-12.54c.5-6.39-7.49-17.24-12.37-21.42s-8.72-7.07-10.76-11.08S100,993.92,99.55,994.2s2.6,13,10.8,19.67,13.45,15.36,14.53,18.8,1.29,13.12,3.54,18l2.26,4.84Z"/><path class="cls-14" d="M131.68,1057.07s4.17-14.89,3.71-19.57,2.17-13-5.45-23.87S117,990.27,116.8,990.39s1.66,6.21,4.54,11,11,17.32,12,21.08-2.89,33.88-2.89,33.88Z"/><path class="cls-14" d="M131.94,1056.13s5.3-7.58,6.13-9.27c6.72-20.19,1.48-26.93,2.35-27.47s2.81,6.31.78,17.79a49.9,49.9,0,0,1-7.67,19.19Z"/><path class="cls-15" d="M132.1,1054.72c-.15-.06-9.47-4-14,3.82s-3,10.36-1.55,13.25,4.82,4.55,4.41,9.51-1.7,4-1.7,4,.15,1.47,2.43-.88,5.14-5.12,5.61-6.78,3.74.32,7.73-3.62a14,14,0,0,0,3.67-11.84C138.29,1059.79,137.39,1056.69,132.1,1054.72Z"/><path class="cls-16" d="M75.15,1051.28,79,1063.74c.62,2,1.05,4.68-.7,5.88-1.51,1-3.59.16-5.08-.93a31.68,31.68,0,0,1-5.95-6c-.91-1.14-1.79-2.32-2.65-3.48-2.07-2.8-4.21-5.81-4.81-9.16a9.74,9.74,0,0,1-.16-1.88c0-.17,0-.33,0-.47a3.1,3.1,0,0,1,1.44-2.92.52.52,0,0,0,.35,0c.31,0,.63,0,.94-.09h0a5.83,5.83,0,0,0,1.88-.51,3.32,3.32,0,0,0,.53-.33,2.63,2.63,0,0,0,1.07-1.61h0s0,0,0,0,0-.2,0-.29a6.6,6.6,0,0,1,6,2.28C73.58,1046.23,74.39,1048.8,75.15,1051.28Z"/><path class="cls-17" d="M64,1029.21a48.4,48.4,0,0,1,1.58,7,30.93,30.93,0,0,1,.3,5.77c0,.09,0,.19,0,.29s0,0,0,0h0a2.63,2.63,0,0,1-1.07,1.61,13,13,0,0,1,0-2.92,9.79,9.79,0,0,0-.17-3.49c-.09-.53-.15-1.06-.19-1.58h0C64.25,1033.69,64.38,1031.53,64,1029.21Z"/><path class="cls-18" d="M55.9,1033.78l0,0"/><path class="cls-18" d="M54.64,1031.69l0-.07,0,.07"/><path class="cls-18" d="M55.9,1033.78l0,0"/><path class="cls-17" d="M63,1043.91a4.34,4.34,0,0,1-.6.87h0c-.31,0-.63.07-.94.09a.52.52,0,0,1-.35,0,.19.19,0,0,1,0-.3,16.69,16.69,0,0,1-3.68-2.65c-1.52-1.37-2.94-2.91-4.45-4.24a32.75,32.75,0,0,0-10.22-6.09c4.14.89,8.2,2.61,11.11,5.68a23.6,23.6,0,0,0,2.36,2.33c1.22,1.08.8.81,2.41,1.28A6.76,6.76,0,0,0,63,1043.91Z"/><path class="cls-19" d="M57.61,1028.11l-2.79-4.44c-.15-.24-.3-.48-.47-.71h0a4.41,4.41,0,0,0-.73-.82c-.66-.54-1.51-.8-2.15-1.36s-.93-1.19-1.46-1.72a1.76,1.76,0,0,0-2-.51,2.14,2.14,0,0,0-.8,1.67,21.53,21.53,0,0,0,.54,8.53,1.78,1.78,0,0,0,.09.33,1.36,1.36,0,0,0,.32.66c.48.48,1.39.15,1.91.59a1.72,1.72,0,0,1,.44.94c.22.83.69,1.75,1.54,1.85a2.07,2.07,0,0,1,.71.1c.38.2.39.73.46,1.15a2.27,2.27,0,0,0,2.23,1.78,2.15,2.15,0,0,0,2.33,2.35c-.18-.63-.35-1.27-.56-1.89a18.5,18.5,0,0,0-1.29-2.83c1,1.74,2,3.39,2.72,4.68a4.7,4.7,0,0,0,.46.7c0-1.13.07-2.55.05-3.69,0-.1,0-.2,0-.29a6.49,6.49,0,0,0-.33-2.15,10,10,0,0,1-.73-1.6c-.19-.85.2-1.77-.07-2.6A3.31,3.31,0,0,0,57.61,1028.11Zm-3.55,2.68c-1.67-2.59-3.23-5-4.91-7.56-.48-1.06,2.51,3.58,5.44,8.39C54.41,1031.34,54.24,1031.06,54.06,1030.79Zm.58.9c.43.67.85,1.36,1.24,2C55.47,1033.06,55.05,1032.38,54.64,1031.69Z"/><path class="cls-20" d="M59.53,1021a26.46,26.46,0,0,0,1.45,4.63h0c0,1.15-.83,2.24-.85,3.42a3.25,3.25,0,0,0,.45,1.6h0a38.64,38.64,0,0,0,1.6,4.28,10.3,10.3,0,0,1,.55,1.43,14,14,0,0,1,.29,1.7c.06.4.14.8.23,1.2a10.33,10.33,0,0,1-4.12-3.82c0-.1,0-.2,0-.29a6.49,6.49,0,0,0-.33-2.15,10,10,0,0,1-.73-1.6c-.19-.85.2-1.77-.07-2.6a3.31,3.31,0,0,0-.38-.72l-2.79-4.44c-.15-.24-.3-.48-.47-.71h0c.07-.71.43-1.73.45-2.22.05-1.11-1.46-2.07-.94-3,.23-.43.84-.72.76-1.2,0-.2-.18-.37-.2-.57-.05-.39.45-.66.84-.56a1.85,1.85,0,0,1,.88.76l2.36,3.13A6,6,0,0,1,59.53,1021Z"/><path class="cls-21" d="M57.75,1038.5a12.73,12.73,0,0,0,.85,2.33c-1.61-.47-1.19-.2-2.41-1.28a23.6,23.6,0,0,1-2.36-2.33c-2.91-3.07-7-4.79-11.11-5.68a32.75,32.75,0,0,1,10.22,6.09c1.51,1.33,2.93,2.87,4.45,4.24a3.37,3.37,0,0,1-4-1.27,1.42,1.42,0,0,0-.42-.49c-.31-.16-.68,0-1,0-1,.07-1.68-1.1-2.51-1.74-1.29-1-3.21-.66-4.57-1.54s-1.78-2.53-3.08-3.29c-.55-.32-1.18-.45-1.74-.72a1.84,1.84,0,0,1-1.18-1.36c-.08-.88.81-1.52,1.59-2a3.6,3.6,0,0,1,3-.66,7.11,7.11,0,0,0,.75.33c.94.24,2.62-.8,3.51-.46a1.78,1.78,0,0,0,.09.33,1.36,1.36,0,0,0,.32.66c.48.48,1.39.15,1.91.59a1.72,1.72,0,0,1,.44.94c.22.83.69,1.75,1.54,1.85a2.07,2.07,0,0,1,.71.1c.38.2.39.73.46,1.15a2.27,2.27,0,0,0,2.23,1.78A2.15,2.15,0,0,0,57.75,1038.5Z"/><path class="cls-18" d="M57.42,1041.87h0"/><path class="cls-22" d="M68.73,1023c.8,1.35-1,3.12-.34,4.56a6.1,6.1,0,0,1,.53,1c.21.94-.93,1.62-1.19,2.55-.13.48,0,1-.1,1.48a3.34,3.34,0,0,1-.51,1.12l-1.54,2.51a48.4,48.4,0,0,0-1.58-7c.38,2.32.25,4.48.43,6.74-1.73-.87-2.07-2.58-3.17-4.18l0,0c-.22-.35-.46-.7-.66-1.07h0a3.25,3.25,0,0,1-.45-1.6c0-1.18.88-2.27.85-3.42h0a1.36,1.36,0,0,0,0-.29,9.89,9.89,0,0,1-.4-1.58c0-1,1-1.65,1.58-2.42.38-.49.65-1.06,1-1.53a1.71,1.71,0,0,1,1.62-.68c1,.25,1.19,1.62,1.93,2.36C67.32,1022.11,68.3,1022.29,68.73,1023Z"/><path class="cls-17" d="M63.56,1042.05a1,1,0,0,1,0,.17,4.63,4.63,0,0,1-.53,1.69h0a6.76,6.76,0,0,1-4.39-3.08,12.73,12.73,0,0,1-.85-2.33c-.18-.63-.35-1.27-.56-1.89a18.5,18.5,0,0,0-1.29-2.83c1,1.74,2,3.39,2.72,4.68a4.7,4.7,0,0,0,.46.7A11.64,11.64,0,0,0,63.56,1042.05Z"/><path class="cls-17" d="M64.43,1036h0c0,.52.1,1,.19,1.58a9.79,9.79,0,0,1,.17,3.49,13,13,0,0,0,0,2.92,3.32,3.32,0,0,1-.53.33,5.83,5.83,0,0,1-1.88.51,4.34,4.34,0,0,0,.6-.87h0a4.63,4.63,0,0,0,.53-1.69,1,1,0,0,0,0-.17v0a9.82,9.82,0,0,0-.31-2.74c-.09-.4-.17-.8-.23-1.2a14,14,0,0,0-.29-1.7,10.3,10.3,0,0,0-.55-1.43,38.64,38.64,0,0,1-1.6-4.28c.2.37.44.72.66,1.07l0,0C62.36,1033.37,62.7,1035.08,64.43,1036Z"/><path class="cls-16" d="M136,1095.59l-6.44,11.34c-1,1.85-2.68,4-4.76,3.52-1.79-.39-2.58-2.5-2.8-4.33a31.29,31.29,0,0,1,.26-8.42c.2-1.45.46-2.89.71-4.32.62-3.42,1.34-7,3.37-9.77a9.93,9.93,0,0,1,1.26-1.42l.35-.31a3.12,3.12,0,0,1,3.11-1,.63.63,0,0,0,.2.29c.24.21.47.42.72.62h0a6,6,0,0,0,1.66,1,3.22,3.22,0,0,0,.61.16,2.65,2.65,0,0,0,1.9-.33h0l.22-.19a6.6,6.6,0,0,1,2.43,5.91C138.61,1091,137.29,1093.34,136,1095.59Z"/><path class="cls-17" d="M144.43,1072.34a46.44,46.44,0,0,1-4,6,30.93,30.93,0,0,1-4,4.18l-.22.19h0a2.65,2.65,0,0,1-1.9.33,12.19,12.19,0,0,1,2.12-2,10.14,10.14,0,0,0,2.42-2.51c.33-.43.67-.84,1-1.22h0C141.34,1075.6,143,1074.21,144.43,1072.34Z"/><path class="cls-18" d="M135.55,1069.58v0"/><path class="cls-18" d="M136.21,1067.23s0-.06,0-.08,0,0,0,.08"/><path class="cls-18" d="M135.55,1069.58v0"/><path class="cls-17" d="M133,1081.69a4.17,4.17,0,0,1-1,.16h0c-.25-.2-.48-.41-.72-.62a.63.63,0,0,1-.2-.29c0-.12.09-.25.2-.22a17.29,17.29,0,0,1-.59-4.49c0-2,.11-4.14,0-6.15a32.72,32.72,0,0,0-2.58-11.62c2.2,3.63,3.73,7.76,3.49,12a22.88,22.88,0,0,0-.08,3.31c0,1.63,0,1.14.72,2.63A6.76,6.76,0,0,0,133,1081.69Z"/><path class="cls-19" d="M140.85,1066.94l1.32-5.07c.07-.28.14-.55.2-.83h0a4.42,4.42,0,0,0,.09-1.09c-.05-.85-.45-1.65-.48-2.5s.22-1.49.25-2.24a1.78,1.78,0,0,0-1-1.83,2.17,2.17,0,0,0-1.77.56,21.89,21.89,0,0,0-5.84,6.25l-.18.29a1.58,1.58,0,0,0-.26.68c0,.69.85,1.12.89,1.8a1.82,1.82,0,0,1-.39,1,2.21,2.21,0,0,0-.29,2.39c.14.19.35.35.41.58.12.42-.26.78-.52,1.13a2.27,2.27,0,0,0,.24,2.84,2.14,2.14,0,0,0-.11,3.31c.33-.57.68-1.12,1-1.71a17.6,17.6,0,0,0,1.18-2.88c-.55,2-1.09,3.79-1.54,5.19a4.64,4.64,0,0,0-.19.82c.8-.79,1.9-1.7,2.72-2.5l.2-.2a6.31,6.31,0,0,0,1.33-1.72,10.18,10.18,0,0,1,.68-1.63c.49-.72,1.42-1.06,1.83-1.83A3.07,3.07,0,0,0,140.85,1066.94Zm-4.38-.75c.74-3,1.39-5.75,2.13-8.75.44-1.08-.88,4.27-2.37,9.71Zm-.26,1c-.2.78-.41,1.55-.65,2.31C135.78,1068.78,136,1068,136.21,1067.23Z"/><path class="cls-20" d="M147.33,1063.48a27.43,27.43,0,0,0-2.38,4.22h0c-.81.81-2.2.93-3.07,1.72a3.24,3.24,0,0,0-.86,1.42v0a36.11,36.11,0,0,0-2,4.09,10.45,10.45,0,0,1-.67,1.39,15.42,15.42,0,0,1-1,1.37c-.25.32-.48.65-.71,1a10.13,10.13,0,0,1,0-5.62l.2-.2a6.31,6.31,0,0,0,1.33-1.72,10.18,10.18,0,0,1,.68-1.63c.49-.72,1.42-1.06,1.83-1.83a3.07,3.07,0,0,0,.27-.77l1.32-5.07c.07-.28.14-.55.2-.83h0c.56-.43,1.55-.86,1.92-1.19.84-.72.5-2.48,1.57-2.77.47-.13,1.1.12,1.4-.27.12-.16.14-.38.27-.53.25-.31.8-.13,1,.22a1.87,1.87,0,0,1,.05,1.17l-.66,3.86A6.32,6.32,0,0,1,147.33,1063.48Z"/><path class="cls-21" d="M133.39,1074.17a12.4,12.4,0,0,0-1.12,2.21c-.76-1.49-.67-1-.72-2.63a22.88,22.88,0,0,1,.08-3.31c.24-4.23-1.29-8.36-3.49-12a32.72,32.72,0,0,1,2.58,11.62c.07,2-.08,4.1,0,6.15a3.39,3.39,0,0,1-1.8-3.77,1.23,1.23,0,0,0,.07-.63c-.09-.34-.47-.5-.73-.73-.77-.72-.35-2-.46-3-.17-1.61-1.71-2.79-2-4.38s.61-3,.28-4.51a18.61,18.61,0,0,0-.68-1.75,1.84,1.84,0,0,1,.19-1.79c.59-.66,1.66-.46,2.51-.19a3.62,3.62,0,0,1,2.53,1.72,5.46,5.46,0,0,0,.28.77c.46.85,2.37,1.35,2.73,2.24l-.18.29a1.58,1.58,0,0,0-.26.68c0,.69.85,1.12.89,1.8a1.82,1.82,0,0,1-.39,1,2.21,2.21,0,0,0-.29,2.39c.14.19.35.35.41.58.12.42-.26.78-.52,1.13a2.27,2.27,0,0,0,.24,2.84A2.14,2.14,0,0,0,133.39,1074.17Z"/><path class="cls-18" d="M130.71,1076.23h0"/><path class="cls-22" d="M152.18,1071.55c-.43,1.51-3,1.42-3.55,2.87a5.86,5.86,0,0,1-.38,1.09c-.54.79-1.82.43-2.66.88-.44.23-.73.67-1.15.94a3.37,3.37,0,0,1-1.17.39l-2.88.6a46.44,46.44,0,0,0,4-6c-1.43,1.87-3.09,3.26-4.61,4.94-.55-1.85.46-3.27.87-5.17a0,0,0,0,0,0,0,10.27,10.27,0,0,1,.32-1.21v0a3.24,3.24,0,0,1,.86-1.42c.87-.79,2.26-.91,3.07-1.72h0a.76.76,0,0,0,.19-.21,11.47,11.47,0,0,1,.87-1.38c.72-.68,1.87-.43,2.86-.51.61,0,1.21-.25,1.83-.28a1.7,1.7,0,0,1,1.6.71c.52.91-.36,2-.39,3C151.88,1069.9,152.41,1070.73,152.18,1071.55Z"/><path class="cls-17" d="M134.78,1080.82l-.14.11a4.67,4.67,0,0,1-1.59.76h0a6.76,6.76,0,0,1-.77-5.31,12.4,12.4,0,0,1,1.12-2.21c.33-.57.68-1.12,1-1.71a17.6,17.6,0,0,0,1.18-2.88c-.55,2-1.09,3.79-1.54,5.19a4.64,4.64,0,0,0-.19.82A11.51,11.51,0,0,0,134.78,1080.82Z"/><path class="cls-17" d="M139.82,1077.28h0c-.35.38-.69.79-1,1.22a10.14,10.14,0,0,1-2.42,2.51,12.19,12.19,0,0,0-2.12,2,3.22,3.22,0,0,1-.61-.16,6,6,0,0,1-1.66-1,4.17,4.17,0,0,0,1-.16h0a4.67,4.67,0,0,0,1.59-.76l.14-.11h0a9.54,9.54,0,0,0,1.79-2.11c.23-.34.46-.67.71-1a15.42,15.42,0,0,0,1-1.37A10.45,10.45,0,0,0,139,1075a36.11,36.11,0,0,1,2-4.09,10.27,10.27,0,0,0-.32,1.21,0,0,0,0,1,0,0C140.28,1074,139.27,1075.43,139.82,1077.28Z"/><path class="cls-23" d="M66.17,1054.21a64.8,64.8,0,0,0-8-.82,2.73,2.73,0,0,0-2.19-.11,7.43,7.43,0,0,0-2.3,1.5c-2.78,2.35-5.65,5-6.82,8.37a7.06,7.06,0,0,1-1.31.75c-.89-1.92-.88-6.18.08-7.83a6.08,6.08,0,0,1,1.38-1.44l5.08-4.16h0l2.15-1.77a5.89,5.89,0,0,1,3-1.6c1.74-.18,3.25,1.2,4.25,2.62A27.23,27.23,0,0,0,66.17,1054.21Z"/><path class="cls-24" d="M61.8,1070.72a4,4,0,0,1-1.19.44,1,1,0,0,1-.3,0l-.14,0a5.77,5.77,0,0,1-1.4-1.1l-3.07-3a4.39,4.39,0,0,0-1-.81c-.76-.39-1.7-.33-2.46-.72a5.15,5.15,0,0,0-1-.55.63.63,0,0,0-.19,0,.81.81,0,0,0-.31,0,2,2,0,0,0-1,.49h0c-.13-.08-.34,0-.47.21a3.58,3.58,0,0,1,1.45-2.57,8.21,8.21,0,0,1,3.27-1.3,9,9,0,0,1,3-.2,4.29,4.29,0,0,1,.86.2,5.25,5.25,0,0,1,3.31,4.85c0,1.42-.36,3.05.56,4.13Z"/><path class="cls-24" d="M60.29,1071.15a.43.43,0,0,1-.16-.05,5.44,5.44,0,0,1-1.39-1.1l-3.08-3a4.51,4.51,0,0,0-1-.8c-.76-.4-1.7-.33-2.46-.73a6.07,6.07,0,0,0-1-.54l-.18,0,.19,0a5.78,5.78,0,0,1,1,.54c.76.4,1.7.33,2.46.73a4.51,4.51,0,0,1,1,.8c1,1,2,2,3.08,3a5.28,5.28,0,0,0,1.39,1.1Z"/><path class="cls-25" d="M66.19,1076.29c-.25,1.4-1.72,2.25-3.12,2.52a39.64,39.64,0,0,0-4.22.58c-1.39.44-2.58,1.42-4,1.78a7.3,7.3,0,0,1-5.58-1.29,25.63,25.63,0,0,1-2.31-1.61c-1.84-1.4-3.91-3.32-3.45-5.6.33-1.64,2.47-3.43,3.21-5.14a6.57,6.57,0,0,0,1.33,1.77,5.57,5.57,0,0,0,1.75,4.57,6.51,6.51,0,0,0,1.77,1,9.17,9.17,0,0,0,5.73.43,11.43,11.43,0,0,0,5.32-4.51,11.26,11.26,0,0,0,2.46-.15,3.58,3.58,0,0,0,.19,2.36C65.71,1074.06,66.39,1075.15,66.19,1076.29Z"/><path class="cls-26" d="M49.28,1079.88l-.6.3a8.09,8.09,0,0,1-3.37,1,5.4,5.4,0,0,1-3-.87h0a5.6,5.6,0,0,1-2.5-3.56c-.24-1.23-.07-2.57-.66-3.67-.31-.58-.8-1-1.15-1.59-1-1.58-.78-3.62-.5-5.48a3.1,3.1,0,0,1,.33-1.16,1.68,1.68,0,0,1,.68-.64,3.35,3.35,0,0,1,2.06-.23,12.52,12.52,0,0,0,3,.53,6.19,6.19,0,0,0,2-.56,7.06,7.06,0,0,0,1.31-.75,9.38,9.38,0,0,0-.49,2.06,4.16,4.16,0,0,0,.34,2.32c-.74,1.71-2.88,3.5-3.21,5.14-.46,2.28,1.61,4.2,3.45,5.6A25.63,25.63,0,0,0,49.28,1079.88Z"/><path class="cls-27" d="M70.89,1077.88h0a5.29,5.29,0,0,1-1.54,3.44,10.51,10.51,0,0,1-2.91,1.85l-5,2.47c-2.2,1.09-5,2.13-6.94.65a4.12,4.12,0,0,1-1-1.09c-.51-.77-.85-1.67-1.29-2.49a5.5,5.5,0,0,0-3.5-2.53l.6-.3a7.3,7.3,0,0,0,5.58,1.29c1.41-.36,2.6-1.34,4-1.78a39.64,39.64,0,0,1,4.22-.58c1.4-.27,2.87-1.12,3.12-2.52.2-1.14-.48-2.23-.91-3.31a3.58,3.58,0,0,1-.19-2.36,2.36,2.36,0,0,0,1.4-.7,9.57,9.57,0,0,0,.68-1.1,4.43,4.43,0,0,1,.29-.42c.1.76.16,2,.21,2.33.19,1.54,1.62,2.58,2.45,3.89A5.41,5.41,0,0,1,70.89,1077.88Z"/><path class="cls-28" d="M53.47,1085.2c-.64.19-1.48.4-2,.56a8.5,8.5,0,0,1-1.3.32c-1.82.25-3.58-.68-5.18-1.58a3.42,3.42,0,0,1-2-2.29l-.77-2a5.4,5.4,0,0,0,3,.87,8.09,8.09,0,0,0,3.37-1,5.5,5.5,0,0,1,3.5,2.53C52.62,1083.53,53,1084.43,53.47,1085.2Z"/><path class="cls-29" d="M62.92,1060.14a9.07,9.07,0,0,0-6,1.39,9,9,0,0,0-3,.2,7.93,7.93,0,0,0-3.27,1.3,3.58,3.58,0,0,0-1.45,2.56l-.06.09a8.29,8.29,0,0,0-1.07,3.35c0,.09,0,.18,0,.27a6.57,6.57,0,0,1-1.33-1.77,4.16,4.16,0,0,1-.34-2.32,9.38,9.38,0,0,1,.49-2.06c1.17-3.34,4-6,6.82-8.37a7.43,7.43,0,0,1,2.3-1.5,2.73,2.73,0,0,1,2.19.11,1.57,1.57,0,0,1,.4.29,7,7,0,0,1,1.12,2.48A12.27,12.27,0,0,0,62.92,1060.14Z"/><path class="cls-30" d="M68.79,1066.65a13.82,13.82,0,0,1-1.33,1.74h0a4.43,4.43,0,0,0-.29.42,9.57,9.57,0,0,1-.68,1.1,2.36,2.36,0,0,1-1.4.7,11.26,11.26,0,0,1-2.46.15l-.82,0h-.13c-.93-1.09-.53-2.71-.57-4.14a5.24,5.24,0,0,0-3.3-4.84,4.63,4.63,0,0,0-.86-.2,9.07,9.07,0,0,1,6-1.39,4.28,4.28,0,0,1,1.5.54,6.05,6.05,0,0,0,2.37,1.2,4.8,4.8,0,0,1,.85.08,1.74,1.74,0,0,1,.88.68A3.8,3.8,0,0,1,68.79,1066.65Z"/><path class="cls-31" d="M70.89,1077.88a5.41,5.41,0,0,0-.77-3.26c-.83-1.31-2.26-2.35-2.45-3.89,0-.36-.11-1.57-.21-2.33h0a13.82,13.82,0,0,0,1.33-1.74,3.8,3.8,0,0,0-.27-4,1.74,1.74,0,0,0-.88-.68,4.8,4.8,0,0,0-.85-.08,6.05,6.05,0,0,1-2.37-1.2,4.28,4.28,0,0,0-1.5-.54,12.27,12.27,0,0,1-3.21-4,7,7,0,0,0-1.12-2.48,1.57,1.57,0,0,0-.4-.29,64.8,64.8,0,0,1,8,.82h0l.62.11a5.43,5.43,0,0,1,1.54.43c1.9,1,2.19,3.47,3.21,5.32.46.82,1.08,1.54,1.6,2.32A12,12,0,0,1,70.89,1077.88Z"/><path class="cls-32" d="M52.11,1050.47,47,1054.63a6.08,6.08,0,0,0-1.38,1.44c-1,1.65-1,5.91-.08,7.83a6.19,6.19,0,0,1-2,.56,12.52,12.52,0,0,1-3-.53,3.35,3.35,0,0,0-2.06.23l-.15-.33c-.28-.86-.52-1.93.13-2.57a8.39,8.39,0,0,0,2.27-3.86,6.69,6.69,0,0,1,.8-1.74c1.44-2.36,3.63-4.53,6.38-4.85C49.32,1050.65,50.79,1051,52.11,1050.47Z"/><path class="cls-33" d="M49.15,1065.68h0a1.24,1.24,0,0,1,1.44-.88l.43.09.19,0a5.78,5.78,0,0,1,1,.54c.76.4,1.7.33,2.46.73a4.51,4.51,0,0,1,1,.8c1,1,2,2,3.08,3a5.28,5.28,0,0,0,1.39,1.1l.14.05a.76.76,0,0,0,.3,0,4.06,4.06,0,0,0,1.22-.43l.82,0a11.44,11.44,0,0,1-5.32,4.52,9.17,9.17,0,0,1-5.73-.43,6.51,6.51,0,0,1-1.77-1,5.57,5.57,0,0,1-1.75-4.57c0-.09,0-.18,0-.27a8.09,8.09,0,0,1,1.07-3.35Z"/><path class="cls-23" d="M120,1096.51a66.82,66.82,0,0,0-8-.83,2.73,2.73,0,0,0-2.19-.11,7.28,7.28,0,0,0-2.3,1.51c-2.78,2.35-5.65,5-6.82,8.37a7.67,7.67,0,0,1-1.31.75c-.89-1.92-.88-6.19.08-7.83a5.9,5.9,0,0,1,1.38-1.44l5.08-4.16h0l2.15-1.77a5.83,5.83,0,0,1,3-1.61c1.74-.17,3.25,1.2,4.25,2.63A27.61,27.61,0,0,0,120,1096.51Z"/><path class="cls-24" d="M115.67,1113a3.72,3.72,0,0,1-1.19.43.76.76,0,0,1-.3,0l-.15,0a5.44,5.44,0,0,1-1.39-1.1c-1-1-2-2-3.07-3a4.35,4.35,0,0,0-1-.8c-.76-.4-1.7-.33-2.46-.73a5.69,5.69,0,0,0-1-.54l-.19,0h-.31a2,2,0,0,0-1,.5h0c-.13-.08-.34,0-.47.2a3.54,3.54,0,0,1,1.45-2.56,7.93,7.93,0,0,1,3.27-1.3,9,9,0,0,1,3-.2,4.29,4.29,0,0,1,.86.2,5.23,5.23,0,0,1,3.31,4.84c0,1.43-.36,3.05.56,4.14Z"/><path class="cls-24" d="M114.16,1113.45l-.16,0a5.67,5.67,0,0,1-1.39-1.1l-3.08-3a4.51,4.51,0,0,0-1-.8c-.76-.4-1.7-.33-2.46-.73a5.4,5.4,0,0,0-1-.54l-.18,0a.65.65,0,0,1,.19,0,5.18,5.18,0,0,1,1,.54c.76.4,1.7.33,2.46.73a4.51,4.51,0,0,1,1,.8l3.08,3a5.49,5.49,0,0,0,1.39,1.1Z"/><path class="cls-25" d="M120.06,1118.58c-.25,1.41-1.72,2.26-3.12,2.53a39.64,39.64,0,0,0-4.22.58c-1.39.44-2.58,1.41-4,1.78-1.93.49-3.83-.23-5.58-1.29a27.84,27.84,0,0,1-2.31-1.61c-1.84-1.41-3.91-3.33-3.45-5.6.33-1.64,2.47-3.44,3.21-5.15a6.79,6.79,0,0,0,1.33,1.78,5.59,5.59,0,0,0,1.75,4.57,6.51,6.51,0,0,0,1.77,1,9.17,9.17,0,0,0,5.73.43,11.44,11.44,0,0,0,5.32-4.52,10.67,10.67,0,0,0,2.46-.14,3.58,3.58,0,0,0,.19,2.36C119.58,1116.35,120.26,1117.44,120.06,1118.58Z"/><path class="cls-26" d="M103.15,1122.18l-.6.3a8.24,8.24,0,0,1-3.37,1,5.33,5.33,0,0,1-3-.88h0a5.55,5.55,0,0,1-2.5-3.55c-.24-1.23-.07-2.57-.66-3.68-.31-.57-.8-1-1.15-1.58-1-1.58-.78-3.63-.5-5.48a3.1,3.1,0,0,1,.33-1.16,1.61,1.61,0,0,1,.68-.64,3.35,3.35,0,0,1,2.06-.24,13.06,13.06,0,0,0,3,.54,6.45,6.45,0,0,0,2-.56,7.67,7.67,0,0,0,1.31-.75,9.29,9.29,0,0,0-.49,2,4.13,4.13,0,0,0,.34,2.32c-.74,1.71-2.88,3.51-3.21,5.15-.46,2.27,1.61,4.19,3.45,5.6A27.84,27.84,0,0,0,103.15,1122.18Z"/><path class="cls-27" d="M124.76,1120.18h0a5.31,5.31,0,0,1-1.54,3.44,10.72,10.72,0,0,1-2.91,1.84l-5,2.48c-2.2,1.08-5,2.13-6.94.65a4.28,4.28,0,0,1-1-1.09c-.51-.77-.85-1.68-1.29-2.49a5.47,5.47,0,0,0-3.5-2.53l.6-.3c1.75,1.06,3.65,1.78,5.58,1.29,1.41-.37,2.6-1.34,4-1.78a39.64,39.64,0,0,1,4.22-.58c1.4-.27,2.87-1.12,3.12-2.53.2-1.14-.48-2.23-.91-3.3a3.58,3.58,0,0,1-.19-2.36,2.48,2.48,0,0,0,1.4-.7,8.9,8.9,0,0,0,.68-1.11l.29-.42c.1.77.16,2,.21,2.33.19,1.55,1.62,2.58,2.45,3.9A5.38,5.38,0,0,1,124.76,1120.18Z"/><path class="cls-28" d="M107.34,1127.5c-.64.18-1.48.4-2,.55a9.9,9.9,0,0,1-1.3.33c-1.82.25-3.58-.68-5.18-1.58a4.38,4.38,0,0,1-1.14-.81,4.47,4.47,0,0,1-.82-1.48c-.26-.65-.52-1.31-.77-2a5.33,5.33,0,0,0,3,.88,8.24,8.24,0,0,0,3.37-1,5.47,5.47,0,0,1,3.5,2.53C106.49,1125.82,106.83,1126.73,107.34,1127.5Z"/><path class="cls-29" d="M116.79,1102.43a9.14,9.14,0,0,0-6,1.4,9,9,0,0,0-3,.2,8,8,0,0,0-3.27,1.29,3.58,3.58,0,0,0-1.45,2.57l-.06.09a8.24,8.24,0,0,0-1.07,3.35c0,.08,0,.18,0,.27a6.79,6.79,0,0,1-1.33-1.78,4.13,4.13,0,0,1-.34-2.32,9.29,9.29,0,0,1,.49-2c1.17-3.34,4-6,6.82-8.37a7.28,7.28,0,0,1,2.3-1.51,2.73,2.73,0,0,1,2.19.11,1.9,1.9,0,0,1,.4.3,6.92,6.92,0,0,1,1.12,2.48A12.23,12.23,0,0,0,116.79,1102.43Z"/><path class="cls-30" d="M122.66,1109a14.58,14.58,0,0,1-1.33,1.74h0l-.29.42a8.9,8.9,0,0,1-.68,1.11,2.48,2.48,0,0,1-1.4.7,10.67,10.67,0,0,1-2.46.14l-.82,0h-.13c-.93-1.09-.53-2.71-.57-4.14a5.26,5.26,0,0,0-3.3-4.85,5.55,5.55,0,0,0-.86-.19,9.14,9.14,0,0,1,6-1.4,4.5,4.5,0,0,1,1.5.55,6.12,6.12,0,0,0,2.37,1.2,6,6,0,0,1,.85.07,1.79,1.79,0,0,1,.88.68A3.82,3.82,0,0,1,122.66,1109Z"/><path class="cls-31" d="M124.76,1120.18a5.38,5.38,0,0,0-.77-3.26c-.83-1.32-2.26-2.35-2.45-3.9-.05-.36-.11-1.56-.21-2.33h0a14.58,14.58,0,0,0,1.33-1.74,3.82,3.82,0,0,0-.27-4,1.79,1.79,0,0,0-.88-.68,6,6,0,0,0-.85-.07,6.12,6.12,0,0,1-2.37-1.2,4.5,4.5,0,0,0-1.5-.55,12.23,12.23,0,0,1-3.21-4,6.92,6.92,0,0,0-1.12-2.48,1.9,1.9,0,0,0-.4-.3,66.82,66.82,0,0,1,8,.83h0l.62.11a5.43,5.43,0,0,1,1.54.43c1.9.94,2.19,3.46,3.21,5.32.46.82,1.08,1.54,1.6,2.31A12.06,12.06,0,0,1,124.76,1120.18Z"/><path class="cls-32" d="M106,1092.77l-5.08,4.16a5.9,5.9,0,0,0-1.38,1.44c-1,1.64-1,5.91-.08,7.83a6.45,6.45,0,0,1-2,.56,13.06,13.06,0,0,1-3-.54,3.35,3.35,0,0,0-2.06.24c-.07-.17-.14-.3-.15-.33-.28-.87-.52-1.94.13-2.57a8.37,8.37,0,0,0,2.27-3.87,7,7,0,0,1,.8-1.74c1.44-2.36,3.63-4.52,6.38-4.84C103.19,1093,104.66,1093.27,106,1092.77Z"/><path class="cls-33" d="M103,1108h0a1.22,1.22,0,0,1,1.44-.88l.43.09a.65.65,0,0,1,.19,0,5.18,5.18,0,0,1,1,.54c.76.4,1.7.33,2.46.73a4.51,4.51,0,0,1,1,.8l3.08,3a5.49,5.49,0,0,0,1.39,1.1l.14,0h.3a3.83,3.83,0,0,0,1.22-.44l.82,0a11.44,11.44,0,0,1-5.32,4.52,9.1,9.1,0,0,1-5.73-.44,6.23,6.23,0,0,1-1.77-1,5.59,5.59,0,0,1-1.75-4.57c0-.09,0-.19,0-.28A8.1,8.1,0,0,1,103,1108Z"/><path class="cls-34" d="M89.08,1048a.67.67,0,0,1,.27-.24l.13,0-.33.66c0,.06-.06.06-.09,0A1.54,1.54,0,0,1,89,1048a.91.91,0,0,1,.1-.35s.09-.05.12,0l-.19.61S89,1048.14,89.08,1048Z"/><path class="cls-35" d="M114.31,1077.3a.58.58,0,0,1,.07.21h0c0,.06,0,.13,0,.2h0a1.3,1.3,0,0,1-1.28,1,3,3,0,0,1-1.93-1.14c-2.86-3.1-4.27-7.22-6-11.08-.23-.51-.46-1-.7-1.51-3.4-7-8.36-13.59-15.34-17.06,2.81,0,5.79,2.3,7.71,4.34a75.17,75.17,0,0,1,7.78,9.74,2.91,2.91,0,0,0,.75,1.15h0a76.43,76.43,0,0,1,3.82,6.63c.25.48.49,1,.72,1.45,1,2,1.9,4.08,3.68,5.35A1.88,1.88,0,0,1,114.31,1077.3Z"/><path class="cls-34" d="M108.24,1061.54c-.34,0-.44-.12-.5-.24s0-.26.24-.49c.33,0,.44.11.49.23S108.48,1061.32,108.24,1061.54Z"/><path class="cls-34" d="M101.65,1040.66l-.07,0,.15,0h0v0c.21-.09.26-.08.27,0s-.06.11-.32.21l-.37.11s0,0,.21-.15v0h0l.14,0Z"/><path class="cls-34" d="M109,1068.42c-.32,0-.43-.05-.48-.15s0-.23.22-.45c.33,0,.43,0,.49.15S109.27,1068.2,109,1068.42Z"/><path class="cls-36" d="M114.24,1031.61q-2.11,8.84-3.45,17.85a46.8,46.8,0,0,0-.6,5.9c0,.79,0,1.59,0,2.37h0a53.5,53.5,0,0,0,2.7,12.69,30.6,30.6,0,0,1,1.44,7.08.58.58,0,0,0-.07-.21,1.88,1.88,0,0,0-.68-.63c-1.78-1.27-2.73-3.38-3.68-5.35-.23-.49-.47-1-.72-1.45-.17-.68-.32-1.36-.46-2a42.75,42.75,0,0,1-.79-7,51.28,51.28,0,0,1,.35-8.14,63.29,63.29,0,0,1,2.63-11.9Q112.45,1036.14,114.24,1031.61Z"/><path class="cls-37" d="M89.16,1048c7,3.47,11.94,10,15.34,17.06a3.67,3.67,0,0,1-3.29-2,1.61,1.61,0,0,1-1.79-2.26,2.1,2.1,0,0,1-2.77-.31c-.45-.54-.71-1.37-1.4-1.51s-1.29.44-1.86.16-.54-.77-.92-1c-.76-.53-1.82.43-2.68.1s-.94-1.74-1.83-2.08c-.68-.25-1.42.3-2.14.21-1-.12-1.43-1.26-1.5-2.24a4.75,4.75,0,0,0-.62-2.81,6,6,0,0,0-.94-.8c-1.53-1.27-1.92-3.42-2.22-5.38a1.78,1.78,0,0,1,0-1c.4-.9,1.91-.61,2.54-1.37.34-.42.33-1.07.72-1.45,1-.94,2.52.82,3.8.43.37-.11.69-.4,1.07-.36s.76.61,1.11,1a.87.87,0,0,0,1,.16,8.16,8.16,0,0,1,1.27,1.37c.66,1.09.38,2.66,1.3,3.53s2.24.55,3.42.38,2.72,0,3,1.19a4.87,4.87,0,0,1-.13,1.81c-.26,2.73,2.93,4.46,4,7,.52,1.23.48,3,1,4.29a75.17,75.17,0,0,0-7.78-9.74C95,1050.3,92,1048,89.16,1048Z"/><path class="cls-34" d="M90.94,1042.17c.32,0,.4.21.33.37s-.3.22-.5,0C90.62,1041.89,90.36,1042.44,90.94,1042.17Z"/><path class="cls-34" d="M104.68,1065.05c0,.3,0,.37-.07.39s-.09-.08-.11-.38,0-.38.06-.39S104.6,1064.75,104.68,1065.05Z"/><path class="cls-38" d="M108.07,1061a39.63,39.63,0,0,0,.91,7.18c-1.86-4.05-4.65-9.83-5.29-14-.67-4.45-.16-9.3-2-13.34a39.36,39.36,0,0,1,4.06,13.67C106.07,1057.3,107.15,1058.75,108.07,1061Z"/><path class="cls-39" d="M107.46,1031.78c-.88-.53-2.09-.52-2.82-1.23l-.09-.1a8,8,0,0,0-.79-1c-.83-.67-2,0-2.79.75s-1.64,1.65-2.68,1.44a2.53,2.53,0,0,0-.8-.16c-1.25.12-.55,2.79-1.79,3a3.23,3.23,0,0,1-1-.2c-.9-.13-1.62.78-1.86,1.65a8.59,8.59,0,0,1-.75,2.6c-.65,1-2,1.5-2.09,2.65a2.08,2.08,0,0,0,.82,1.57,8.64,8.64,0,0,1,1.27,1.37c.65,1.09.37,2.66,1.3,3.53s2.24.55,3.42.38,2.71,0,3,1.18a4.91,4.91,0,0,1-.13,1.82c-.26,2.73,2.93,4.46,4,7,.51,1.23.47,3,1,4.29q.39.57.75,1.14h0c1.38,2.15,2.66,4.37,3.82,6.64-.17-.68-.33-1.36-.46-2-1.73-4-4.3-9.84-5-14-.72-4.38-.41-9.06-2.11-13.09a45.27,45.27,0,0,1,3.89,13.53c.35,2.81,1.54,4.31,2.39,6.52a52.49,52.49,0,0,1,.35-8.14,8.34,8.34,0,0,0-.91-1.5,2.06,2.06,0,0,1-.29-2.3c.31-.4.87-.59,1.1-1,.36-.73-.38-1.55-.34-2.36a6.22,6.22,0,0,1,.27-1c.3-1.15-.24-2.33-.35-3.51a7.71,7.71,0,0,1,.34-2.73c.18-.7.39-1.39.53-2.1C109.09,1034.61,108.87,1032.64,107.46,1031.78Zm-6.22,8c.19.35.35.7.5,1C101.58,1040.45,101.41,1040.1,101.24,1039.75Z"/><path class="cls-40" d="M117.88,1031.23a9.63,9.63,0,0,0-1.5,3.07c-.13,1,.26,2,0,3-.47,1.39-2.26,2-2.66,3.41-.3,1,.27,2.26-.23,3.22a9.12,9.12,0,0,1-.88,1.09c-1.12,1.51-.27,3.61-.27,5.49,0,2.37-1.61,4.86-2.05,7.24,0-.78-.07-1.58,0-2.37a46.8,46.8,0,0,1,.6-5.9q1.33-9,3.45-17.85-1.8,4.52-3.28,9.16a63.29,63.29,0,0,0-2.63,11.9,7.86,7.86,0,0,0-.92-1.5,2.08,2.08,0,0,1-.28-2.3c.31-.4.87-.59,1.09-1,.36-.73-.37-1.55-.34-2.36a5.42,5.42,0,0,1,.28-1c.3-1.15-.25-2.33-.36-3.51a7.94,7.94,0,0,1,.34-2.73c.18-.7.39-1.39.53-2.09.32-1.62.1-3.59-1.3-4.45-.88-.53-2.09-.52-2.82-1.23l1.91-3.82c.35-.7.79-1.47,1.55-1.64,1-.23,1.93.77,3,.82,1.22.06,2.35-1.18,3.5-.77s1.27,1.92,2.22,2.57c.3.2.65.31.94.52C118.56,1028.77,118.41,1030.21,117.88,1031.23Z"/><path class="cls-34" d="M113,1034.11a23.31,23.31,0,0,1-1.51-3.73,24.39,24.39,0,0,1-1-3.92,15.12,15.12,0,0,1,1.69,3.68A15.7,15.7,0,0,1,113,1034.11Z"/><path class="cls-34" d="M111.61,1037.65a8.21,8.21,0,0,1-1.87-2.85,8,8,0,0,1-.61-3.35c.53,1,.91,2,1.33,3.07S111.28,1036.54,111.61,1037.65Z"/><path class="cls-34" d="M110.2,1042.28a6.55,6.55,0,0,1-2.15-4.32,8.24,8.24,0,0,1,1.36,2A8.56,8.56,0,0,1,110.2,1042.28Z"/><path class="cls-34" d="M101.83,1040.76a20.81,20.81,0,0,1,.9-7.9,20.87,20.87,0,0,1-.9,7.9Z"/><path class="cls-34" d="M103.25,1043.68a15.63,15.63,0,0,1,1.52-3.82,10.23,10.23,0,0,0,1.13-3.8,3.88,3.88,0,0,1,.2,2.11,7.11,7.11,0,0,1-.64,2A24.77,24.77,0,0,1,103.25,1043.68Z"/><path class="cls-34" d="M104.55,1048.65a18.69,18.69,0,0,1,.85-3.21,17.9,17.9,0,0,1,1.33-3,10.79,10.79,0,0,1-2.18,6.24Z"/><path class="cls-34" d="M101.79,1040.74a8.06,8.06,0,0,1-3.4-2.35,13.22,13.22,0,0,1-2.24-3.47,36.91,36.91,0,0,1,2.81,2.95A40.23,40.23,0,0,0,101.79,1040.74Z"/><path class="cls-34" d="M102.53,1045a11.16,11.16,0,0,1-8.46-4.8,40.83,40.83,0,0,0,4.06,2.7A37.87,37.87,0,0,0,102.53,1045Z"/><path class="cls-34" d="M103,1049.71a3,3,0,0,1-1.79-.36,3.05,3.05,0,0,1-1.31-1.26,5.31,5.31,0,0,1,1.67.57A5.53,5.53,0,0,1,103,1049.71Z"/><path class="cls-34" d="M92,1050.28a2.88,2.88,0,0,1-1.71.29,6.6,6.6,0,0,1-1.67-.42A29.05,29.05,0,0,0,85.5,1049a3.62,3.62,0,0,1,1.73,0,9.4,9.4,0,0,1,1.61.49A10,10,0,0,0,92,1050.28Z"/><path class="cls-34" d="M96.16,1053.3a8.63,8.63,0,0,1-8,.74c1.39,0,2.71,0,4-.15S94.79,1053.54,96.16,1053.3Z"/><path class="cls-34" d="M99.44,1057.08a6.69,6.69,0,0,1-2.15,1.08,6.55,6.55,0,0,1-2.38.35,7.56,7.56,0,0,1,4.53-1.43Z"/><path class="cls-34" d="M91.28,1048.11a.74.74,0,0,0-.41-.67c-.22-.16-.49-.33-.73-.49l-1.47-1c-1-.64-2-1.22-3-1.93a8.06,8.06,0,0,1,3.41,1.29,9.29,9.29,0,0,1,1.43,1.14,7.11,7.11,0,0,1,.63.7C91.32,1047.44,91.5,1047.84,91.28,1048.11Z"/><path class="cls-34" d="M49.49,1112.73a.79.79,0,0,1-.08-.42l0-.18.49.75c0,.07,0,.09,0,.1a1.62,1.62,0,0,1-.42-.1.77.77,0,0,1-.3-.31c0-.07,0-.11.09-.11l.51.56Z"/><path class="cls-35" d="M94.3,1104.47a.92.92,0,0,1,.25.06h0l.21.11h0a1.54,1.54,0,0,1,.31,1.93,3.44,3.44,0,0,1-2.31,1.28c-4.85,1.07-9.87.06-14.81-.48-.65-.07-1.3-.14-2-.19-9.18-.73-18.77.44-26.44,5.48,1.7-2.84,5.77-4.53,9-5.27a89,89,0,0,1,14.53-2.13,3.5,3.5,0,0,0,1.61-.08h0c3-.13,6-.12,9,0,.63,0,1.26.08,1.9.13,2.56.2,5.27.49,7.62-.57A2.22,2.22,0,0,1,94.3,1104.47Z"/><path class="cls-34" d="M74.66,1101.3c-.22.32-.38.37-.53.36s-.27-.15-.36-.53c.2-.33.37-.38.53-.36S74.59,1100.92,74.66,1101.3Z"/><path class="cls-34" d="M49.52,1095.61l0,.08,0-.16,0-.06h0c0-.24.08-.3.12-.29s.07.12,0,.45l-.12.44a2.39,2.39,0,0,1,0-.3h0v-.07l0-.16Z"/><path class="cls-34" d="M82.13,1104.57c-.17.34-.3.41-.43.41s-.24-.13-.33-.5c.17-.34.31-.41.44-.4S82.05,1104.2,82.13,1104.57Z"/><path class="cls-36" d="M47.79,1077.44q7.74,7.39,16.11,14.1a56.82,56.82,0,0,0,5.64,4.11c.8.49,1.61.94,2.44,1.35h0a63.43,63.43,0,0,0,14.5,4.79,35.63,35.63,0,0,1,8.06,2.73.92.92,0,0,0-.25-.06,2.22,2.22,0,0,0-1,.32c-2.35,1.06-5.06.77-7.62.57-.64,0-1.27-.1-1.9-.13-.8-.23-1.58-.48-2.36-.75a50.65,50.65,0,0,1-7.6-3.35,60.51,60.51,0,0,1-8.06-5.18,75.86,75.86,0,0,1-10.55-9.74Q51.32,1081.95,47.79,1077.44Z"/><path class="cls-37" d="M49.58,1112.67c7.67-5,17.26-6.21,26.44-5.48a4.29,4.29,0,0,1-3.93,2.18,1.91,1.91,0,0,1-3.37.49,2.46,2.46,0,0,1-2,2.62c-.82.14-1.82-.09-2.37.54s-.32,1.57-.94,2c-.46.3-1.1.09-1.6.31-1,.46-.65,2.11-1.5,2.8s-2.32-.08-3.19.62c-.67.54-.54,1.62-1.06,2.3-.69.92-2.13.7-3.17.2s-2.08-1.23-3.22-1a6.75,6.75,0,0,0-1.37.48c-2.2.8-4.62-.07-6.8-.93a2.11,2.11,0,0,1-1-.63c-.68-.95.5-2.31.1-3.4-.22-.6-.88-1-1-1.59-.39-1.54,2.33-2.08,2.69-3.62.11-.43,0-.93.27-1.29s1.07-.42,1.65-.56a1,1,0,0,0,.72-.87,9.24,9.24,0,0,1,2.15-.48c1.5,0,2.93,1.19,4.37.77s1.88-2,2.4-3.25,1.65-2.74,3-2.39a6.07,6.07,0,0,1,1.77,1.21c2.62,1.88,6.26-.34,9.47.09,1.56.2,3.32,1.29,5,1.54a89,89,0,0,0-14.53,2.13C55.35,1108.14,51.28,1109.83,49.58,1112.67Z"/><path class="cls-34" d="M44.7,1107.39c.2-.31.46-.27.58-.11s0,.44-.32.49-.45,0-.43,0S44.67,1107.77,44.7,1107.39Z"/><path class="cls-34" d="M76.12,1107c.32.17.37.25.36.3s-.13,0-.46-.11-.36-.27-.36-.3A1.65,1.65,0,0,1,76.12,1107Z"/><path class="cls-38" d="M74,1101.12a46.87,46.87,0,0,0,7.85,3.34c-5.22-.51-12.76-1.1-17.42-3-4.92-2-9.55-5.34-14.74-5.88a46.39,46.39,0,0,1,16.31,4C69.07,1101,71.18,1100.75,74,1101.12Z"/><path class="cls-39" d="M44,1084.44c-1.07.58-1.77,1.81-2.93,2.13l-.16,0a9.57,9.57,0,0,0-1.52.19c-1.16.44-1.21,2.07-.89,3.28s.71,2.65-.12,3.58a2.91,2.91,0,0,0-.64.72c-.61,1.34,2.51,2.21,1.93,3.57-.14.35-.51.55-.75.85-.67.83-.17,2.1.57,2.87a10.39,10.39,0,0,1,2.2,2.3c.59,1.23.31,3,1.45,3.7a2.43,2.43,0,0,0,2.08.1,9.24,9.24,0,0,1,2.15-.48c1.5,0,2.92,1.2,4.36.77s1.89-2,2.41-3.25,1.65-2.74,3-2.39a5.81,5.81,0,0,1,1.77,1.21c2.63,1.89,6.27-.34,9.48.09,1.55.2,3.32,1.29,5,1.55.53,0,1.07-.07,1.6-.09h0c3-.13,6-.12,9,0-.8-.23-1.58-.47-2.36-.75-5.14-.64-12.55-1.46-17.16-3.23-4.87-1.87-9.45-5-14.56-5.62a53.13,53.13,0,0,1,16.07,4.06c3.06,1.32,5.3,1,8,1.44a60.79,60.79,0,0,1-8.06-5.18,9.59,9.59,0,0,0-2.07,0c-1,.06-2.13-.17-2.51-1.07-.23-.56-.08-1.24-.41-1.74-.54-.8-1.8-.54-2.61-1.06a6.44,6.44,0,0,1-.91-.9c-1-1-2.5-1.13-3.77-1.72a9.24,9.24,0,0,1-2.58-2c-.6-.6-1.18-1.23-1.81-1.79C47.79,1084.46,45.65,1083.51,44,1084.44Zm4.41,11a12.44,12.44,0,0,1,1.37.11Z"/><path class="cls-40" d="M49.56,1073.52c.72,1.14,1.17,2.52,2.23,3.34s2.23.94,3,1.82c1.13,1.3.7,3.48,1.89,4.72.88.93,2.45,1.07,3.14,2.16a10.74,10.74,0,0,1,.58,1.53c.87,2,3.51,2.42,5.43,3.53,2.4,1.4,4,4.53,6.14,6.38-.83-.41-1.64-.86-2.44-1.35a56.82,56.82,0,0,1-5.64-4.11q-8.35-6.7-16.11-14.1,3.52,4.51,7.37,8.77A75.86,75.86,0,0,0,65.71,1096a9,9,0,0,0-2.07,0c-1,0-2.14-.18-2.51-1.08-.23-.55-.09-1.23-.42-1.73-.53-.8-1.8-.54-2.6-1.06a7,7,0,0,1-.91-.9c-1-1-2.51-1.13-3.78-1.72a9.09,9.09,0,0,1-2.57-2c-.61-.6-1.19-1.22-1.82-1.78-1.45-1.28-3.59-2.23-5.29-1.31-1.06.59-1.77,1.82-2.93,2.14l-2.75-4.21a3.21,3.21,0,0,1-.75-2.55c.38-1.17,1.94-1.51,2.6-2.54.78-1.2.19-3.08,1.29-4s2.7-.15,3.93-.73c.39-.19.7-.49,1.09-.65C47.46,1071.36,48.84,1072.37,49.56,1073.52Z"/><path class="cls-34" d="M49.58,1080.23a28,28,0,0,1-4.7-.68,27.2,27.2,0,0,1-4.55-1.36,18.38,18.38,0,0,1,4.75.47A18.37,18.37,0,0,1,49.58,1080.23Z"/><path class="cls-34" d="M52.38,1083.69a10,10,0,0,1-7.78-1.15c1.36.07,2.62.29,3.9.47S51.05,1083.37,52.38,1083.69Z"/><path class="cls-34" d="M56.25,1087.89a7.1,7.1,0,0,1-2.87.34,7,7,0,0,1-2.8-.73,9.59,9.59,0,0,1,2.86-.18A9.83,9.83,0,0,1,56.25,1087.89Z"/><path class="cls-34" d="M49.73,1095.49a22.09,22.09,0,0,1-4-2.44,21.62,21.62,0,0,1-3.48-3.16,21.18,21.18,0,0,1,4,2.43A21.68,21.68,0,0,1,49.73,1095.49Z"/><path class="cls-34" d="M53.54,1095.77a18.48,18.48,0,0,1-3-3.8,11.89,11.89,0,0,0-3.19-3.41,4.69,4.69,0,0,1,2.26,1,8.64,8.64,0,0,1,1.68,1.85A31,31,0,0,1,53.54,1095.77Z"/><path class="cls-34" d="M59.37,1097.4a25.52,25.52,0,0,1-5-5.91,11.5,11.5,0,0,1,3,2.56A11.72,11.72,0,0,1,59.37,1097.4Z"/><path class="cls-34" d="M49.69,1095.52a9.6,9.6,0,0,1-4.41,2.06,15.18,15.18,0,0,1-4.85.22,45.52,45.52,0,0,1,4.66-1.11C46.64,1096.38,48.12,1096,49.69,1095.52Z"/><path class="cls-34" d="M54.44,1097.27a13.15,13.15,0,0,1-9.91,5.76,47.48,47.48,0,0,0,5.16-2.53A46.29,46.29,0,0,0,54.44,1097.27Z"/><path class="cls-34" d="M59.54,1099.59a3.6,3.6,0,0,1-1.43,1.6,3.52,3.52,0,0,1-2.06.58,6.18,6.18,0,0,1,1.58-1.35A6.39,6.39,0,0,1,59.54,1099.59Z"/><path class="cls-34" d="M53.55,1111.19a3.34,3.34,0,0,1-.72,1.91,8,8,0,0,1-1.41,1.44,35.15,35.15,0,0,0-3,2.42,4.1,4.1,0,0,1,1-1.77,12.22,12.22,0,0,1,1.45-1.35A11.75,11.75,0,0,0,53.55,1111.19Z"/><path class="cls-34" d="M59.12,1108.69a9.71,9.71,0,0,1-.94,4.79,9.52,9.52,0,0,1-3.06,3.79c.81-1.42,1.59-2.75,2.24-4.18S58.55,1110.23,59.12,1108.69Z"/><path class="cls-34" d="M64.91,1107.6a8.81,8.81,0,0,1-1.23,5.46,8,8,0,0,1,.17-2.83A8.22,8.22,0,0,1,64.91,1107.6Z"/><path class="cls-34" d="M51,1110.57a.94.94,0,0,0-.93,0c-.29.13-.62.31-.92.45-.63.31-1.25.61-1.86.93-1.24.61-2.42,1.28-3.74,1.9a9.3,9.3,0,0,1,3.33-2.71,10.54,10.54,0,0,1,2-.78,8.43,8.43,0,0,1,1.07-.22C50.29,1110.13,50.8,1110.2,51,1110.57Z"/><path class="cls-41" d="M132.38,1109.33a10.26,10.26,0,0,0-3.33,5.69,11,11,0,0,0,3.94,10.3,13.57,13.57,0,0,0,10.92,2.58c4-.73,7.85-3.47,8.6-7.43A12.16,12.16,0,0,0,152,1115a14,14,0,0,0-3.73-6.76C144.36,1104.66,136.12,1106.05,132.38,1109.33Z"/><path class="cls-8" d="M135.65,1112.46c1.1-1.8,2.34-3.72,4.32-4.44a4.89,4.89,0,0,1,6,2.63,8.15,8.15,0,0,0-2.81-3.89,4.49,4.49,0,0,0,1.63-3.49l-3.67,3,1.29-4.32-2.87,4.29.93-4.67-2.1,4.53a9,9,0,0,0-4.89-3.86l3.3,3-5.47.41a10.2,10.2,0,0,0,2.92,1.3c.75.21,1.89.23,2.49.77s.44,1,.08,1.85A28.78,28.78,0,0,1,135.65,1112.46Z"/><path class="cls-42" d="M154.47,1103.69s-8.84-1.52-10.65-7.87,4.25-8,2.82-11.7-.87-8.42,1.22-8.84-.14-3.62,2.23-5.43,5-2.51,5.34,0,1.48,4.87,4,4.59.27,3.2,1.25,4.74,4.59-.26,4.59,4.31.14,6.13,2.09,8.35-7.2,14-12.88,11.85"/><path class="cls-43" d="M150.42,1117.36s1.19,3,3.7,1.43,2-17.58,2-17.58,6.8-3.11,8-8.49c0,0-3.41,5.43-8.3,7.1l0-3.34s7.68-3.88,9-9.86c0,0-3.9,7.31-9.28,7.76l-.16-3.33s6.8-3,7.33-8.61c0,0-4.16,5.86-7.6,6.69l-.41-5.39s4-1.54,4.57-3.94c0,0-2.51,2.64-4.76,2.88,0,0-1.71-3.47,3.11-7.9a6.13,6.13,0,0,0-3.38,3s-.91-6.87-2-8.3a89.12,89.12,0,0,1,1.12,9.69s-5.61-1.32-6.4-3.47c0,0,1.09,3.53,6.27,4.7l.53,5.22s-5.35-1.19-7.59-3c0,0,2.11,2.69,7.72,4.79a13.91,13.91,0,0,1,.4,4.3s-5.61-.12-9.18-3.23c0,0,1,2.16,9.05,4.67a42,42,0,0,1,0,5s-6-2.15-8-4.42c0,0,1.78,3.59,7.85,6,0,0,.28,12.8-3.63,17.58"/><path class="cls-44" d="M147.78,1107a24.21,24.21,0,0,0-7.07-3.53c-4.24-1.31-7.11-3.81-4.61-6.85s-1.94-1.13-3.34-6.4,1.72-4.41,3-5-3.26-2.86-.93-5.57,6.78-3,7.86.92,1,5.31,4.1,5.11,5.76,1.58,5.91,5.54,2.85,2.92,1.54,7.26-2.13,11-6.43,8.56"/><path class="cls-43" d="M151.21,1118.14s1.8,2,3,0-3.57-14.43-3.57-14.43,3-4.1,2.13-8.59c0,0,.36,4.72-2.5,7.45l-1.05-2.49s3.05-4.86,2-9.86c0,0-.26,6.62-2.86,8.68l-1.61-2.79s3.09-4,1.64-8.49c0,0-.32,5.44-2.44,7.09l-2.05-3.58s1.65-2.53,1.24-4.53c0,0-.58,2.74-2.07,3.58,0,0-2.64-2.14-.71-7,0,0-1.66.81-1.62,3.5,0,0-2.61-5.18-3.81-6,0,0,1.45,3.72,3.23,7.42,0,0-3.65.35-4.9-1.08,0,0,1.21,2.69,5.2,2.07l2.06,3.87a16.49,16.49,0,0,1-5.57-.36s1.65,1.74,6.25,1.7a12.87,12.87,0,0,1,1.67,3.21,10.25,10.25,0,0,1-6.76-.09s.7,1.66,7.13,1.23a17.16,17.16,0,0,1,1.63,3.87s-4.2-.19-6.32-1.36c0,0,1.72,2.53,6.73,2.6,0,0,4.35,10.09,3.85,14.31"/><path class="cls-45" d="M156.19,1108s3.4-3,6.82-2.81,8.19-1.65,9-6,.87-6.73,3.14-8-2.79-5.89-6.29-3.31-7.43-.13-10,3.23-6.83,18.11-2.59,16.85"/><path class="cls-43" d="M153.72,1118.2s1-10.29,5.35-15c1-1.07,8.31-1,8.31-1a24.13,24.13,0,0,0-7.23-.2s1.78-3.79,3.46-3.52c.66.1,6.49.16,7.6-1.2,0,0-5.5.88-7.44-.3,0,0,2.09-2.83,3.4-2.47,1.05.28,4.64-.39,4.63-1.73a9.3,9.3,0,0,1-4.64.79,28.77,28.77,0,0,1,5-3.71s-2.08-.37-6.11,3.72c0,0-.9-.49-.75-3.08a5.88,5.88,0,0,0,.08,3.71,20.26,20.26,0,0,0-2.78,2.43,10.89,10.89,0,0,1-.82-4.35,15.76,15.76,0,0,0,0,4.94,17.57,17.57,0,0,0-2.41,3.25c-.61,1.31-.78-3-.23-5,0,0-1.35,1.9-.8,5.79A34.28,34.28,0,0,0,152.6,1112c-2,6.12,0,8.46,1.12,6.25"/><path class="cls-46" d="M163.38,1054.85s4.57,0,6.24,2.32a19.49,19.49,0,0,0,4.38,4.66c.94.56.94,13.8-15.84,21s-17.33,1.31-12.67-14S163.38,1054.85,163.38,1054.85Z"/><path class="cls-47" d="M171.58,1060.34s4.94-4.24,5.59-5.91c0,0,.79.55.52,1.3s-4.11,5-5.18,5.41S171.58,1060.34,171.58,1060.34Z"/><path class="cls-48" d="M175.1,1057.06s.43,0-.77-1.7.14-2.57-.7-4.06-3.73-5.31-10.48-4.19-9,0-9,0,2.52,2.7,4.5,2.61S167.33,1048.23,175.1,1057.06Z"/><path class="cls-49" d="M114.36,1073.66a1.92,1.92,0,0,0,1.39-1.26,1.86,1.86,0,0,0,0-1.64,2.15,2.15,0,0,0,1-1.16,1.87,1.87,0,0,0,0-1.66,2.21,2.21,0,0,0,1-1.16,2,2,0,0,0,.08-1.46,2.26,2.26,0,0,0,.83-1.15,1.62,1.62,0,0,0-.27-1.76,2.18,2.18,0,0,0,1-1.33,1.55,1.55,0,0,0-.38-1.75,2.2,2.2,0,0,0,.66-1.2,1.32,1.32,0,0,0-.56-1.53,2.31,2.31,0,0,0,.38-.89c.15-.86-.21-1.57-.82-1.58h0a2,2,0,0,0,0-.54c0-.75-.48-1.25-1-1.21a1,1,0,0,0-.58-.83,1.09,1.09,0,0,0-1,.28v0c-.34-.52-1.12-.46-1.74.13a2.48,2.48,0,0,0-.35.45c-.47-.21-1.14.1-1.58.76a2.37,2.37,0,0,0-.36.9,1.45,1.45,0,0,0-1.49.78,2,2,0,0,0-.37,1.31,1.72,1.72,0,0,0-1.53,1.07,2,2,0,0,0-.19,1.62A1.79,1.79,0,0,0,107,1060a2.54,2.54,0,0,1-1.17,2.51,2,2,0,0,0-.06,1.51,2,2,0,0,0-1.2,1.22,2,2,0,0,0-.07,1.51,2,2,0,0,0-1.18,1.21,1.71,1.71,0,0,0,.14,1.8,2.15,2.15,0,0,0-1.41,1.44,1.72,1.72,0,0,0,.32,2,2.34,2.34,0,0,0-1.16,1.43,1.71,1.71,0,0,0,.37,1.92,2.47,2.47,0,0,0-.82,1.66,1.51,1.51,0,0,0,.7,1.59,2.21,2.21,0,0,0,0,1.37,1.2,1.2,0,0,0,1.47,1,1.93,1.93,0,0,0,1.16,1.16,2.06,2.06,0,0,0,1.86-.24c.25.7,1.07.89,1.87.42a2.43,2.43,0,0,0,.94-1.05,1.69,1.69,0,0,0,1.66-.75,2.35,2.35,0,0,0,.56-1.74,1.89,1.89,0,0,0,1.65-1.21,2.15,2.15,0,0,0,.15-1.78,2.26,2.26,0,0,0,1.62-3.23m-4.25,5.32H110l.06,0s0,0,0,.06"/><path class="cls-50" d="M105.68,1081.15a1.07,1.07,0,0,1-1.32-.85,2,2,0,0,1,0-1.22,1.35,1.35,0,0,1-.63-1.42,2.18,2.18,0,0,1,.74-1.47,1.52,1.52,0,0,1-.33-1.71,2,2,0,0,1,1-1.27,1.53,1.53,0,0,1-.28-1.76,1.86,1.86,0,0,1,1.25-1.28,1.51,1.51,0,0,1-.12-1.61,1.85,1.85,0,0,1,1-1.08,1.77,1.77,0,0,1,.06-1.33,1.85,1.85,0,0,1,1.07-1.09,1.79,1.79,0,0,1,0-1.34,2,2,0,0,1,.87-1,1.88,1.88,0,0,1,.18-1.22,1.57,1.57,0,0,1,1.3-1,1.8,1.8,0,0,1,.16-1.44,1.53,1.53,0,0,1,1.36-1,1.91,1.91,0,0,1,.33-1.17,1.33,1.33,0,0,1,1.33-.7,2.24,2.24,0,0,1,.32-.8,1.27,1.27,0,0,1,1.4-.67,2,2,0,0,1,.32-.4,1.09,1.09,0,0,1,1.37-.29.82.82,0,0,0-.48-.63,1,1,0,0,0-.94.25v0c-.3-.46-1-.41-1.54.12a2,2,0,0,0-.31.4c-.42-.19-1,.08-1.41.67a2.24,2.24,0,0,0-.32.8,1.29,1.29,0,0,0-1.33.7,1.91,1.91,0,0,0-.33,1.17,1.51,1.51,0,0,0-1.35.94,1.77,1.77,0,0,0-.17,1.44,1.61,1.61,0,0,0-1.3,1,2.27,2.27,0,0,1-1,2.23,1.78,1.78,0,0,0-.06,1.35,1.82,1.82,0,0,0-1.06,1.08,1.75,1.75,0,0,0-.06,1.34,1.78,1.78,0,0,0-1.05,1.08,1.52,1.52,0,0,0,.12,1.6,1.92,1.92,0,0,0-1.25,1.28,1.54,1.54,0,0,0,.28,1.77,2.09,2.09,0,0,0-1,1.26,1.54,1.54,0,0,0,.33,1.72,2.12,2.12,0,0,0-.73,1.46,1.32,1.32,0,0,0,.62,1.42,2,2,0,0,0,0,1.22,1.05,1.05,0,0,0,1.31.85,1.65,1.65,0,0,0,1,1,1.69,1.69,0,0,0,.89.08,1.54,1.54,0,0,1-.32-.53"/><path class="cls-51" d="M105.1,1084.41s-2.3-5.91,2.06-18.26c2.18-6.18-2.75-7-2.75-7s1.66,2.94-1.86,6.82-11.37,16.85,2.55,18.46"/><path class="cls-13" d="M101.79,1083.69s9.85-9.07,12.32-14.73,5.66-12.12,7.72-11.78a15.88,15.88,0,0,0-2.93,8.37c-.49,9.26-6.89,26.31-17.11,18.14"/><path class="cls-52" d="M125.11,1099.12s-5.58-9-9.78-9.71-2.89-3.3-5.59-5.53-6.11-7.35-11.48-2.65-7.87.63-8.2,3,3.21,1.1,3.87,4.16,13,5.77,18.17,7.37S120.84,1094.91,125.11,1099.12Z"/><path class="cls-52" d="M120.5,1107.22s-6.07-3.7-9.37-8.17-13.73-8.9-16.57-1.9-1.81,7.74-6.09,8.64-6.14.06-9.71-.07-4.58,4.47-6.94,3.93-7.68-3.07-9.23-1.08-6.08,4.85-3.35,7.27-.53,3.53,7.31,4.74,4.26,5.77,11,4,5.37-6.73,10.17-6.69,7.37-5.81,12.43-5.67S113.76,1103.38,120.5,1107.22Z"/><path class="cls-11" d="M120.69,1102.08s-2-5.84-6.5-7.6-10.54-6.23-14.66-4.58-4.49,2.85-10.1-.86-17.75-5.35-19.27,1.12-5.63,3.14-7.61,4.76-2.13,6.78,4.73,8.21,2.52,3.18,9.94,3.75S114.16,1105.7,120.69,1102.08Z"/><path class="cls-14" d="M129.18,1108.22a6.19,6.19,0,0,0-4.85-1.25,22.23,22.23,0,0,1-12.61-1.76c-5.92-2.44-18.71,1.83-24.19,5.19s-9.4,6.12-13.84,6.84-12.11,1.18-12,1.68,13.13,1.52,22-4.23,18.75-8.08,22.35-8.06,12.88,2.81,18.19,2.15l5.3-.66Z"/><path class="cls-14" d="M131.4,1107.66s-12.89-8.54-17.48-9.55-11.69-6-24.4-2.14-26.2,5.15-26.14,5.37,6.41.32,11.86-.94,19.86-5.16,23.74-4.94,31.35,13.15,31.35,13.15Z"/><path class="cls-14" d="M130.58,1107.12s-5.58-7.37-6.94-8.68c-17.14-12.59-25.16-9.67-25.41-10.67s6.87-.73,17.17,4.72a49.93,49.93,0,0,1,15.9,13.2Z"/><path class="cls-15" d="M129.29,1106.54c-.1.13-6.76,7.76-.66,14.49s9,6,12.14,5.54,5.81-3.19,10.4-1.27,3.23,2.83,3.23,2.83,1.45.3-.08-2.58-3.3-6.47-4.74-7.43,1.46-3.46-1.06-8.47a14,14,0,0,0-10.14-7.13C136,1102.21,132.79,1102.11,129.29,1106.54Z"/><path class="cls-53" d="M77.34,1046.56s0,0,0,0l0,0Z"/><path class="cls-53" d="M77.49,1046.5s0-.08-.08-.09,0,0,0,.09,0,0,0,0,0,0,0,0,.07,0,.06-.08l0,0"/><path class="cls-53" d="M77.81,1044.59v0"/><path class="cls-53" d="M77.13,1043.53h0"/><path class="cls-53" d="M77,1043.35h0"/><path class="cls-53" d="M77.81,1044.59v0s0,0,0,0"/><path class="cls-53" d="M77.51,1046.21s0,0,0,0h0Z"/><polygon class="cls-53" points="77.96 1045.13 77.96 1045.14 77.98 1045.15 77.96 1045.13"/><path class="cls-53" d="M78,1045.57l-.06,0s0,0,0,0h0"/><path class="cls-53" d="M77.71,1046.2v0Z"/><path class="cls-53" d="M77.92,1044.82h0Z"/><path class="cls-53" d="M77,1046.82h0"/><polygon class="cls-53" points="77.43 1046.63 77.42 1046.63 77.44 1046.65 77.43 1046.63"/><path class="cls-53" d="M76.66,1043.1h0"/><path class="cls-53" d="M73.45,1044.31s0,.09.08,0,0-.08-.08,0"/><path class="cls-53" d="M77.52,1046.21v0"/><polygon class="cls-53" points="73.53 1044.36 73.53 1044.36 73.54 1044.35 73.53 1044.36"/><path class="cls-53" d="M75.73,1042.9v0"/><path class="cls-53" d="M76.4,1043.09h0"/><path class="cls-53" d="M75.37,1043h0"/><polygon class="cls-53" points="75 1043.05 75.01 1043.05 75.02 1043.05 75 1043.05"/><path class="cls-53" d="M76.1,1047.28l0,0s0,0,0,0"/><path class="cls-53" d="M77.53,1046.22h0"/><path class="cls-53" d="M75.39,1043.32h0"/><path class="cls-53" d="M74,1046.54h0"/><path class="cls-53" d="M75.19,1043.35l0,0h0Z"/><path class="cls-53" d="M76.41,1047.11s0,.06,0,.1,0,0-.07,0,0,.09-.07.09v0s-.11,0-.14.1h0a.11.11,0,0,1,0,.07s0,0-.05,0,0,0,0,0l0,0c0-.05,0,0,0-.06s-.08.08-.12.07.08,0,0-.07h.06c-.06-.07,0,0,0-.08s-.07,0-.15,0,0,0,0,.07-.09-.12-.15,0,0,.1-.08.06v-.06c-.06,0,0,.09-.11.05s.06,0,.05,0,0,0-.07,0v-.06a1.75,1.75,0,0,1-.24,0s0,0,0,0a.48.48,0,0,1-.3-.11l-.05,0s0,0,0,0,0,0,0,0,0,0,0,0-.21,0-.25-.07h0s-.1.05-.13,0h0c-.09-.08-.23-.13-.25-.24-.06,0-.08-.1-.14,0a.59.59,0,0,0,0-.17s-.07,0-.1,0l0,0H74l0,0,0,0s0,0,0,0,0-.11,0-.13l-.1-.07H74c-.08,0,0,0,0-.05h0a.16.16,0,0,0,0-.12h0c0-.07-.08-.15-.12-.23s-.06,0-.07,0l0,0s0,0,0,0,0,0,.06,0l0,0h0s0-.08,0-.09h0l-.06-.2s0,0-.08,0a.58.58,0,0,0,0-.19s0,0-.06,0,0-.07.06,0a.81.81,0,0,0,0-.2s0,0,0,0a0,0,0,0,1,0,0h0c0-.13.15-.24.09-.34h0l0-.1s0,0,0,0,.07-.14.06-.24.09-.21.2-.24h0s0,0,0,0,0,0,0,0a1,1,0,0,1,.43-.38c.06,0-.06-.14,0-.14v0c.08-.13.25-.15.35-.26s0,0,0,0,.1,0,.09-.07,0,0,0,0,0-.07.08,0,0,0,0,0,.09,0,.06-.06.09,0,.14,0,.09,0,.09-.07.1,0,.13,0,0,0,0,0,.07,0,.06-.06.14-.07.18,0a.93.93,0,0,1,.32,0c0,.06-.11,0-.11.06s.16-.06.25,0,0,0,0,0,.18,0,.27,0h0s0,0,0,0h0s.1-.06.12-.08.07,0,0,.14a.05.05,0,0,0,0,0s0,0,0,0,0,0,.1,0l0,0s.08,0,.11,0,0,0,0,0,.17,0,.23.08,0,0,0,.09h0v0s.09,0,.1.05h0l.07,0,0,0c.06,0,0-.06.08,0s0,0,0,.07h0a.07.07,0,0,1,.07,0s-.05,0-.06,0,.08.06.14,0a.07.07,0,0,0,0,0h0s0,0,0,0,0-.06.06,0h0c0,.06.11.09.13.16s0,0-.07,0,.16.13.19.22v0c.08,0,0,.08,0,.1s0,0,0,0,.07.1.13.19h0a.34.34,0,0,0,0,.14s0,0,0,0c-.09.14.12.22,0,.34l0,0,0,.09s0,0,0,0a.07.07,0,0,1,0,.06s0,0-.07,0h0c-.06,0,.07,0,0,.08h0s0,0,0,.08,0,0,0,0,.08.08,0,.11,0,0,0-.06,0,0,0,.07h0l0,.06h0c.1,0,0,.09.07.17,0-.08,0,0-.08,0s0,0,0,0,0,0,0,.09,0,0,0,0,0,0,0,0-.09.12,0,.22,0,.11,0,.18,0,0,0,0,0,0,0,.09h0s0,0,0,.07,0,0,0-.06a.48.48,0,0,0,0,.12s0,0,0-.06,0,.1,0,.13h0l0,0c0-.05,0,0,0,0v0c.09,0,0-.09.06-.14l0,0,0-.07s0,0,0,0,0,0,0,0h0v0s0,0,0,0,0-.11,0-.12h0c0-.1,0,0-.07-.11h.12l0,0s0,0,0,0,0,0,0,0,0-.12.08-.12,0,0,0,0,0-.06,0-.09,0,0,.06,0,0-.08,0-.12,0-.08,0-.14,0-.11,0-.17h0c-.06,0,0-.06-.06-.11a.06.06,0,0,1,.06,0v0s0,0,0,0h0c0-.06,0-.11,0-.18s-.1.07-.13,0,0,0,.06,0,0,0,0,0l0,0s0,0,0,0,0,0,0,0,0,0,0,0a.13.13,0,0,1,0-.08s0,0,0,0,0,0,0-.06,0,0-.06,0,0,0,0,0,0-.12-.08-.07h0c-.06-.07,0-.18-.09-.25h0s-.07-.1-.11-.12,0,0,0,0-.05,0-.06-.08,0,0,0,0,0-.07-.07-.1,0-.06,0-.08v0l0-.06,0,0c0-.13-.2-.09-.18-.22s0,.06,0,.07,0-.13,0-.14-.1,0-.14-.06,0,.06-.08,0,0-.09,0-.08h0s0,0,0,0h0s-.06-.07,0-.09,0,0,0,0-.07-.07-.12-.12,0,0,0,0,0,0-.11,0,0,0,0-.06,0,0,0,0-.09-.08-.12-.11h0l0,0v0s0,0,0,0,0,.06-.06.07-.08,0-.06-.07,0,0,.07,0l0,0h0c0-.07,0,0-.13,0s0,0,0,0,0,0,0,0,0,0-.07,0l0,0s0,0-.08,0,0,0,0,0-.07-.07-.13-.06,0,0,0-.07-.06,0-.13,0,0,0,0,0h.11l-.08,0h.09s0,0,0,0-.09,0-.13,0l0-.09c-.07-.06-.14,0-.23,0l0,0s-.06,0-.1,0,0,0,0-.06-.08,0-.09.06l0,0c-.08,0-.09.08-.16.08s0,0,0-.08,0,0,0,0-.07,0-.1,0a0,0,0,0,1,0,0,0,0,0,0,1,0,0s0,0,0,.06-.21,0-.29,0a.56.56,0,0,1-.16.07h0c-.08,0,0,.1-.09.1s0,0,0,0-.09,0-.16,0v0c-.05,0-.07.08-.13.11h0a.38.38,0,0,1-.12.17s0,0,0-.06,0,.05,0,.08-.08,0-.1,0l0,0c-.06,0-.06,0-.08,0l0,0c-.06.06,0,.11-.09.16h0c0,.07-.05,0-.05.06l-.06,0a.88.88,0,0,1-.06.17c0-.06,0-.12,0-.17s-.08.08-.07.11,0,0,0,0a.2.2,0,0,1,0,.16c-.09-.09-.13.1-.22.09s-.14.18-.19.3,0,0,.07.07,0,0,0,0l-.09.06s0,0,0,0,0,0-.09,0,0,0,0,.08l.06,0c0,.1-.1,0-.09.16l0,0c0,.05-.05.18,0,.24s0,0,0,0,0,.27,0,.35h0s0,0,0,.07h0s0,.06,0,.09l0,0c0,.12.06.17.09.26s-.08.1-.09.15h0a.83.83,0,0,0,.17.32c-.06.09,0,.25.07.38,0,0,.05,0,.07,0s.07,0,0,.07h0s0,.1,0,.14l.07,0c0,.17.21.23.17.34l.1,0,0,0a.49.49,0,0,0,.16.16h0c.05,0,.14,0,.18,0l0,.06c.07.07.13.17.24.17l0,0s.13.12.16,0,.09,0,.14,0l0,0c.06,0,.07,0,.13,0s0,0,0,0,0,0,.09,0h0s0,0,.08,0a.09.09,0,0,1,.09.07,0,0,0,0,1,.07,0s0,0,0,0,.13,0,.18,0a0,0,0,0,0,0,0c-.06,0-.12,0-.11,0s0,.06,0,.11.13-.07.18,0v0h0l0,0s.07,0,.09,0,0,0,0-.07h-.1a0,0,0,0,1,.07,0l0-.06c0,.06.09.1.1.13s.2,0,.24-.1,0,0,0,0,0,0,0,0,.13,0,.13-.08,0,0,.06,0v0c.18.06.21-.19.41-.13h0c.2,0,.35-.19.55-.23,0,0,0,0,0-.09l0,0v-.08c0-.08.19,0,.21-.13h0s.07-.1.09-.07,0,0,0,0v0a.17.17,0,0,0,0-.1c.06,0,.07.08.14,0s0-.13,0-.13a.06.06,0,0,1-.06,0l0,0c-.06,0-.1-.1-.19-.08v.07h0l0,0s0,0,0,.05a0,0,0,0,0,0,0l0,.08s0,0-.06,0,.06,0,0,.07-.06,0-.06,0,0,0,0,0,0,0,0,.09-.06.07-.11,0a.11.11,0,0,1,0,.08c0-.09-.08.06-.12,0,0,.08-.08.09-.11.16s0,0,0,0h-.07s0,.09,0,.13,0-.07,0-.11,0,.07,0,.1,0,0-.07,0,0,0,0,.08,0-.06-.08,0,0-.06,0-.06m-1.11.27h0m-.1,0h0s0,0,0,0l0,0m.18.33s0,0,0,0h0v0"/><polygon class="cls-53" points="75.42 1047.64 75.42 1047.63 75.41 1047.62 75.41 1047.64 75.42 1047.64"/><polygon class="cls-53" points="77.81 1044.61 77.81 1044.61 77.8 1044.61 77.81 1044.61"/><polygon class="cls-53" points="74.1 1046.61 74.09 1046.62 74.1 1046.62 74.1 1046.61"/><path class="cls-53" d="M77.77,1045.2h0"/><path class="cls-53" d="M77.75,1045.44v0a0,0,0,0,0,0,0"/><path class="cls-53" d="M77.71,1045.62h0Z"/><path class="cls-53" d="M76.32,1043.37h0s0,0,0,0"/><path class="cls-53" d="M77.11,1043.73h0s0,0,0,0"/><polygon class="cls-53" points="75.4 1043.32 75.4 1043.32 75.39 1043.32 75.4 1043.32"/><path class="cls-53" d="M77,1043.7l0,0s0,0,0,0"/><polygon class="cls-53" points="77.43 1046.36 77.43 1046.36 77.43 1046.37 77.43 1046.36"/><polyline class="cls-53" points="77.43 1046.37 77.43 1046.38 77.43 1046.37"/><path class="cls-53" d="M77.43,1046.4v0a0,0,0,0,0,0,0"/><path class="cls-53" d="M77.56,1046.15h0"/><path class="cls-53" d="M77.58,1046.08s0,0,0,.05h0s0,0,0-.06"/><path class="cls-53" d="M77.87,1045.83l0,.06s0,0,0,0,0,0,0-.08"/><path class="cls-53" d="M77.93,1045.63s0,0,0,0,0,0,0,0"/><path class="cls-53" d="M77.65,1044.16h0s0,0,0,0"/><polygon class="cls-53" points="77.33 1044.04 77.33 1044.07 77.36 1044.06 77.33 1044.04"/><polygon class="cls-53" points="77.44 1043.73 77.46 1043.74 77.42 1043.71 77.44 1043.73"/><path class="cls-53" d="M75.05,1043l0,0s0-.07,0,0"/><path class="cls-53" d="M74.09,1043.55s-.06,0-.06,0l.06,0"/><polygon class="cls-53" points="73.62 1046.62 73.59 1046.61 73.63 1046.64 73.62 1046.62"/><path class="cls-53" d="M75,1045.27s-.11,0-.1,0H75"/><path class="cls-53" d="M74.89,1045.51a.28.28,0,0,0,.24-.16c-.1.07-.06,0-.21.08s0-.07,0-.08,0,0-.06,0-.06.15,0,.15a.18.18,0,0,1-.07,0"/><path class="cls-53" d="M75.44,1044.34h0"/><path class="cls-53" d="M76.08,1045.43s0,0,0,0,0,0,0,0"/><path class="cls-53" d="M75.7,1045.49h0"/><path class="cls-53" d="M75.44,1044.34h.07s0,0-.07,0"/><path class="cls-53" d="M75.43,1045.38s0,0,0,0h0Z"/><path class="cls-53" d="M75.58,1044.75h0s0,0,0,0Z"/><path class="cls-53" d="M76.16,1044.48s.08.06.12.09l0-.06-.07,0"/><path class="cls-53" d="M75.7,1045.77l0,0,0,0"/><path class="cls-53" d="M75.36,1044.67h0Z"/><path class="cls-53" d="M75.93,1044.81h0s0,0,0,0"/><polygon class="cls-53" points="75.85 1044.07 75.83 1044.07 75.8 1044.12 75.85 1044.07"/><path class="cls-53" d="M75.26,1045.32h0"/><path class="cls-53" d="M75.46,1044.36c0-.11.16-.11.16-.24,0,0-.16.16-.16.24"/><path class="cls-53" d="M75.45,1045.39h0"/><polygon class="cls-53" points="75.62 1044.12 75.62 1044.12 75.62 1044.11 75.62 1044.12"/><path class="cls-53" d="M75.05,1044.38l0,0,0,0"/><path class="cls-53" d="M74.89,1045.18v0s0,0,0,0"/><path class="cls-53" d="M75.56,1044.09a0,0,0,0,0,0,0v0s0,0,0,0"/><polygon class="cls-53" points="76.01 1044.15 76.03 1044.13 76.02 1044.12 76.01 1044.15"/><path class="cls-53" d="M75,1044.64a.15.15,0,0,1,.09-.1c-.08,0-.08-.31-.09.1"/><path class="cls-53" d="M75.43,1045.44a.06.06,0,0,1,0,0h0v0"/><path class="cls-53" d="M75.57,1043.23l.18,0a.58.58,0,0,0-.18,0"/><path class="cls-53" d="M75.88,1045.73l0,0a0,0,0,0,0,0,0"/><path class="cls-53" d="M76.46,1043.33a.37.37,0,0,0,.05.11l0,0-.09-.09"/><path class="cls-53" d="M75.05,1044.53h0Z"/><path class="cls-53" d="M75.71,1045.21c.22,0,.29-.14.26-.17s-.07-.08-.06-.14c.17-.15.18-.18.24-.17s.08,0,.15,0a.66.66,0,0,0-.09-.57.74.74,0,0,0-.44-.26s-.06,0,0-.06a.87.87,0,0,0-.53.22.41.41,0,0,0-.15.45.05.05,0,0,1,0,0,.35.35,0,0,1,.2,0c0,.1.1.14,0,.2s0,0-.08-.07l.07.09c-.09.16-.11-.13-.18-.13a.47.47,0,0,0,.24.32,1.91,1.91,0,0,0,.27.1c0,.07-.09.06-.17,0s-.14-.06,0,.06a.62.62,0,0,1-.2-.25c0,.36-.13-.21-.16.14a.64.64,0,0,0,.47.31,1.33,1.33,0,0,0,.54-.07c.07-.12-.08-.08,0-.19a3.16,3.16,0,0,1,.35-.41c.08-.08.17-.2,0-.41s-.26,0-.46-.24l.17-.08c-.21-.12-.29-.05-.35,0s-.06,0-.1,0,0,0-.06,0h-.09s.08,0,.12-.1,0,0,.06,0h0c-.23-.07-.14.1-.27.16l-.07-.12a.72.72,0,0,0-.24.91c-.06,0-.12-.11-.14,0a.87.87,0,0,0,.37.5.86.86,0,0,0,.32.12.91.91,0,0,0,.34,0,1.29,1.29,0,0,0,.35-.2.86.86,0,0,0,.29-.34,1.84,1.84,0,0,0,.18-.33l-.12-.06s0-.08.08-.06c0-.14-.08,0-.13,0s.05-.13.09-.11a1.24,1.24,0,0,0-.33-.29c-.16-.09-.33-.13-.45-.2l.06,0c-.22-.06-.26.23-.44.17l0,0a1,1,0,0,0-.59.34c-.16.18-.25.38-.37.53.13.07-.09.46.15.46a1.14,1.14,0,0,0,0,.26.42.42,0,0,0,.06.2.74.74,0,0,0,.39.27c.17,0,.2-.13.31-.16l0,.12.14-.16.13.11.1-.08s-.12,0-.12,0a.73.73,0,0,1,.47-.12.94.94,0,0,0,.12-.22,1.19,1.19,0,0,0,.07-.23s0,.11,0,.18c0-.29.15,0,.13-.27,0,0-.06,0-.08,0a.6.6,0,0,0,0-.58l.09,0a1,1,0,0,0-.35-.55,1.16,1.16,0,0,0-.62-.24c.16.06.08.19,0,.19a.93.93,0,0,0,0-.13c-.08.08.12,0,0,.15s-.13-.14,0-.19l-.21.07s0-.06,0-.11-.45,0-.46.24l0,0a1.21,1.21,0,0,0-.36.82c.11,0,.07.13.15.2a.82.82,0,0,0,.07.73c.21.17.12,0,.24,0-.07.11.28.26.08.24a.8.8,0,0,0,.45.06,1.19,1.19,0,0,0,.43-.17c-.06,0-.11,0-.1-.06a.16.16,0,0,1,.18,0v0c.07-.07.16-.12.24-.19a.91.91,0,0,0,.32-.48.81.81,0,0,0,0-.3.21.21,0,0,0-.08-.16h0l-.14-.24c0-.18.09.1.14,0a2.11,2.11,0,0,1-.16-.52c0-.13-.11-.3-.3-.29,0-.16-.28-.27-.57-.21s-.55.17-.73.17l.06,0c0,.11-.12,0-.18,0s.11,0,.09.06a1.41,1.41,0,0,0-.5,1.57,1.08,1.08,0,0,0,.61.54c.36.08.26-.3.63-.16a.76.76,0,0,1-.11.14,3.49,3.49,0,0,0,.39-.13,2.67,2.67,0,0,0,.36-.14,1.05,1.05,0,0,0,.57-.6s0,.06,0,.12c.18-.07.23-.47.14-.47s.07,0,.13-.07-.08-.31,0-.4,0,0,0,.06,0-.4-.13-.27a.42.42,0,0,0-.2-.35l-.09-.08c-.15,0-.32-.16-.44,0,.12-.16-.42-.18-.47-.08,0-.06-.09-.06,0-.13-.12,0-.23,0-.2.14-.27-.18-.39.25-.62.06a1.6,1.6,0,0,0-.63,1c-.18-.08.16-.39,0-.46a1.83,1.83,0,0,0,0,1c0,.09-.09,0-.12-.07a1.54,1.54,0,0,0,.41.77s0,0-.07,0,0,.12.11.07l0,0c.06-.13.32,0,.37,0-.12,0-.09.09-.08.15s.06.13-.11.17c0,0,.11,0,.14,0s0,.09-.06.1c.21.11.19,0,.35.08,0,0,0,0-.09.06a.59.59,0,0,1,.37,0s0,.06,0,0c.29,0,.45-.14.71-.15,0,.19.11,0,.18.15a1.31,1.31,0,0,0,.12-.11l-.08,0c.12-.06.15-.21.26-.24l0,.1a.69.69,0,0,0,.16-.18l-.13,0c0-.13-.13-.12,0-.2,0,0,.07-.07.18-.07s0-.15.06-.2.13.1.16.1.11-.29,0-.4a.14.14,0,0,0,.11,0l-.08-.07s.06-.06.12,0c0-.18-.19,0-.08-.17,0,0,0,0,0,0,.07-.21-.06-.41-.12-.59.1-.14.12.15.2,0a1.26,1.26,0,0,0-.8-.49l0,0c-.08.18-.18-.15-.34,0,0,0,0-.11,0-.09a.73.73,0,0,0-.6.33V1044a.91.91,0,0,0-.33.26c0,.06,0,.11.06.12-.23.05-.29.39-.12.59s.34.19.5.34c0,0-.12,0-.08,0a1,1,0,0,0,.3,0c0-.09,0,0-.09-.12a.23.23,0,0,1,.15-.1c-.1.07,0,.14.07.19s0-.06,0-.09c.16.14,0-.18.18-.11v0c.06,0,.09-.12.16-.13s0,.07,0,.15.1-.25.22-.21a1.06,1.06,0,0,1-.1.12c.15.06.15,0,.23,0h0a1,1,0,0,0,.19-.12l-.06,0a.37.37,0,0,1,0-.3l.06-.13h-.16c-.11,0-.22.1-.17.2,0-.25-.06-.08-.16-.14s-.14.13-.16.1-.11.22,0,.32c0,0,0,.07-.1,0s.07,0,.12,0,0,.12,0,.16-.09.06-.07.16,0,.25-.18.36c-.07,0,0-.14,0-.14a.21.21,0,0,0-.23,0s0-.06,0-.1,0,.14-.11.09a1.42,1.42,0,0,1,.05-.16.8.8,0,0,1-.19.13c0-.06.05-.09.07-.13s-.14,0-.21.1a.08.08,0,0,0,0,0s0-.08,0-.09.06.06.06.09l-.06,0c0,.23.23,0,.32,0l0,.17.1-.15s.07.12,0,.16c.1.06.07-.07.16,0s0,0,0,0l.08-.07s0,.11,0,.1c.2,0,.22-.21.34-.14v0c.17-.19,0-.11,0-.31a.82.82,0,0,0,.31.07l-.09-.08s0-.06.08,0,0,0-.11-.09c.14-.08,0-.3.17-.31-.09,0-.07.1-.13,0,.2,0,0-.14.08-.2s0,.09.13.07c-.07,0-.06-.07,0-.06s0-.06,0,0l-.21-.23s0,0,0,0,0,.14-.07.23-.22,0-.34,0v0c0,.15-.1.14-.19.18s0-.12,0-.16h-.08a.1.1,0,0,1-.08.09l0-.1c-.07,0-.18.1-.2,0-.09,0-.08.3-.26.22,0,0,.1-.1.14-.09s-.07,0-.06,0l.1,0s-.08,0-.09,0,0,0,.09-.07,0,0,0,0,0-.06.09-.07-.1,0-.11,0,.09,0,.13,0,0,0-.07-.1.06,0,.09,0,.12-.16,0-.21h0c.07-.21.33-.15.47-.2v0c.09-.06.2,0,.3-.07s0,.09,0,.12.12,0,.15.09,0,.06-.08,0,0,.12.14.12c-.09,0-.08.1-.05.12l.05-.08a.14.14,0,0,1,0,.11h-.12c-.07.07,0,.1,0,.18s.06.17-.09.18c.07.08.1-.07.18,0s-.25.08-.26.1.1.2,0,.27a.14.14,0,0,1,.1.19c-.09.07-.21-.06-.19-.12a0,0,0,0,1,0,0s0-.07,0-.08l0,0c-.06,0-.14.07-.17,0,0,.07,0,.08.08.07-.12,0-.14.09-.25.09s.06.06,0,.07,0,.1-.15.14,0-.16-.1-.1,0-.12,0-.16-.14-.07-.15-.09l0,0s0,0-.06,0v.09s0,0,0-.06,0,.15-.12.2-.14,0-.07-.12c.06.09.06-.11.13-.09s0,0,0,0l0,0c0-.13-.11.1-.18,0s.09-.11.07-.12-.08.09-.15.08-.09,0-.11-.1v.06c-.07,0-.09,0-.15-.08s.07,0,.07,0,0-.21-.08-.26.11-.05.13-.09.07-.1,0-.13-.07,0-.15,0a.29.29,0,0,0,.07.12l-.14-.07s.07.09.06.12-.06,0-.13,0c.12-.09-.11-.14,0-.23l.22,0c.11,0-.07-.18.08-.26h-.06c-.06-.07,0-.08.07-.13s.09.06.13.09.08,0,0-.19l.1.06c.12,0,.09-.26.25-.25,0,.09,0,.13,0,.2s.09,0,.08-.05.13-.11.18,0,0-.11.08-.1,0,0,0,0,.07,0,0-.13c.08.2.26.07.34.15a.11.11,0,0,1,0,.1.22.22,0,0,1,.08.19s0,0,0,0,.24,0,.11.18,0-.07-.11,0-.13,0-.12,0,0,.09-.06.07v0c-.08,0,0,.17-.11.22l0,0c0,.14-.13.26-.25.32,0-.1,0-.06,0-.15s.07.15,0,.2-.15-.07-.15-.18l.08,0c-.09-.12-.09,0-.13,0v-.06c-.07,0-.13.17-.25.12l0,0c-.18.1,0-.1-.15-.06l.13-.12-.07,0a.2.2,0,0,1-.19-.14.94.94,0,0,0,.27.09h0a.14.14,0,0,0-.12-.08s.06,0,0,0-.22-.1-.18-.21.19,0,.23-.06a.11.11,0,0,1,.18,0,.12.12,0,0,1,.15-.1s.08,0,.12,0c0-.25,0,0,.14-.26,0,0,.07,0,.06,0a.3.3,0,0,1,0,.2c-.06.07-.06,0-.1.07s-.09.1-.14.15.11-.07.08,0a.28.28,0,0,0,.1-.09c.06,0,0,0,0,.08l0,0s0,0,0,.06l-.08,0c0,.07,0,.39.23.37a.21.21,0,0,1-.11,0s0,.08,0,.14,0,.09-.1,0l0-.06s0,.11,0,.06,0-.06,0-.06,0,.1,0,.07a.14.14,0,0,0,0-.07h0v.07l0,.07h0c.05,0,0,0,0,0a.1.1,0,0,1-.08-.05.34.34,0,0,0,.25-.2h0c0-.15-.08-.26-.05-.36.06.07.05.1.08.11s0,0,0,.06.12-.06.14,0,.13,0,0,.06h0c-.16,0-.12,0-.13.06l.19.08h-.12s-.06.07-.11.12-.11.06-.14,0,0,0,0,.06a.52.52,0,0,1,0,.24h0a.29.29,0,1,0,.09-.06l.1,0,.1,0v0a.51.51,0,0,0,0-.09l.08,0s-.32-.09-.3-.18l.16,0c0-.12.14,0,.13-.17a.51.51,0,0,1,0,.09s0,.1.08-.16c0,.17.06,0,.16,0l-.07.11c.12-.13.17-.17.24-.13s-.08.09-.06,0c0,.1.11,0,0,.09H76c0,.06,0,0,.06,0s-.13.11-.18.12,0,0,0,.05,0,0,0,0a.2.2,0,0,1-.22,0h0a.15.15,0,0,0,.12,0s0,0,0,0-.08,0-.11,0h0l0,0v0s0,0,0,0,0-.09-.09-.12,0,0,0,0v0h0a.17.17,0,0,0,0,.07s-.06-.09,0-.1a.71.71,0,0,1-.07-.16c.1,0,.2.08.22.18v0h0v-.08h0a.11.11,0,0,1,0-.06s0,0,0,0,0,0,.1,0-.06,0-.09,0h0l.07,0s0,0,0,.06a.09.09,0,0,1,0-.08s0,0,0,0h0s0,0,0,0,0,0,0,0a.08.08,0,0,1,0-.09s0,0,0,0,0-.08,0-.06v0s0,0,0,0-.05,0,0,0,0,0,0-.05,0,0,0,0-.06,0,0-.08a.08.08,0,0,1,.13,0s0-.06,0-.11l0,0h0s.07-.06,0-.06,0,0-.12,0-.13,0-.16.06a.15.15,0,0,0,0,.07s0,0,0,0a.66.66,0,0,1,0,.11h0l.07,0s0,0,.07,0-.08,0,0,0h0a.18.18,0,0,1,0-.13s.07,0,.1.09l0,.08s0,0,0-.07a1,1,0,0,1,.07-.09s0-.06,0-.12h.07a1.43,1.43,0,0,0,.15-.22c0-.07,0-.2-.18-.3a.79.79,0,0,0-.28.12l-.11-.05a.53.53,0,0,1,.24-.06.24.24,0,0,0-.31.12.15.15,0,0,0-.16,0,.66.66,0,0,0-.07.33c-.08,0,0-.2-.18,0s.18,0,.16.16-.18.07-.11.23-.08,0-.1-.08a1,1,0,0,0,.16.4.45.45,0,0,0,.17.13l.12,0a.34.34,0,0,0,.18,0c.16.08.33-.15.41,0a1.6,1.6,0,0,1,.16-.34c0,.15.09.1.18-.12a.64.64,0,0,0,0-.39c0-.12-.05-.19,0-.19a1.15,1.15,0,0,0-.64-.24.59.59,0,0,0-.5.23s0-.07,0-.08a1.93,1.93,0,0,0-.33.19c.09.1,0,.39.15.53,0,.12-.1.11-.15,0s-.11-.15-.17-.1.09.13.16.22.14.14.16.08c0,.19,0,.14,0,.3.13-.13.16.09.36,0a.62.62,0,0,1,.17.13s.07.05.25,0,.09,0,0,.08a.43.43,0,0,1-.15.08m-.61-.42h0l0-.09,0,.09m.5.45a.65.65,0,0,1-.36-.21.08.08,0,0,1,.12,0s0,.13.24.2m0-.42s0,0,0,0v0h0l0,0"/><polygon class="cls-53" points="75.5 1044.72 75.5 1044.71 75.48 1044.7 75.5 1044.73 75.5 1044.72"/><path class="cls-53" d="M75.4,1044.35h0Z"/><polygon class="cls-53" points="75.49 1045.91 75.48 1045.88 75.45 1045.91 75.49 1045.91"/><path class="cls-53" d="M75.75,1045.23l0,0,0,0"/><path class="cls-53" d="M76.41,1045l.12,0-.12,0"/><path class="cls-53" d="M76.09,1044.48a.11.11,0,0,0,0,0h0Z"/><path class="cls-53" d="M74.28,1045.59h0"/><path class="cls-53" d="M76.55,1045.53a.28.28,0,0,1,0,.09s.06,0,0-.09"/><polygon class="cls-53" points="75.55 1043.23 75.55 1043.23 75.57 1043.23 75.55 1043.23"/><path class="cls-53" d="M76.46,1045.71a.12.12,0,0,0,.08-.09.18.18,0,0,0-.08.09"/><path class="cls-53" d="M75.2,1045.35h0v0Z"/><path class="cls-53" d="M75.18,1045.36h0"/><path class="cls-53" d="M75.14,1045.38h0s0,0,0,0"/><path class="cls-53" d="M75.59,1045.39v0"/><path class="cls-53" d="M75.73,1045.34s-.1-.06-.14,0v0c0-.06.13.06.14,0"/><path class="cls-53" d="M76.45,1045.07a.55.55,0,0,1-.06.18s.12,0,.1,0c.17-.25-.09,0,0-.23"/><path class="cls-53" d="M76.47,1044.73h0"/><path class="cls-53" d="M76.17,1044.28l0,.08s0,0,0-.08"/><path class="cls-53" d="M76.93,1044.51l0-.1h-.1l.06.11"/><path class="cls-53" d="M76.23,1044.84v0s0,0,0,.07Z"/><path class="cls-53" d="M75.87,1044.2l.1-.11s-.15.14-.1.11"/><path class="cls-53" d="M75.06,1044.9c0-.06,0-.1,0-.07s0,.08,0,.07"/><path class="cls-53" d="M75.55,1044.83l0,0,0,0h0Z"/><path class="cls-54" d="M70.34,1040a14.83,14.83,0,0,0,4,1.22c2.52.46,9.53,1.36,16.31,10.41s6.85,12.69,13.35,15.62c0,0,1.8,1.6-.62,2s-17.69-1.92-24.11-7.94-8.31-9.46-9.56-13-.69-8.11.68-8.29"/><path class="cls-55" d="M77.57,1050.26s5.19,3.66,5.78,5.55a3.19,3.19,0,0,0-2.74,0c-1.17.73-2.29,1.2-2.7,1s-1-1.65-1.17-3.27c-.09-.82,0-2.44-.14-2.93,0,0-.23-1,1-.33"/><path class="cls-56" d="M75.29,1057.33s.37,4.68,2.71,6.83a2.44,2.44,0,0,0,1.06-3"/><path class="cls-55" d="M95.36,1058.63a42.78,42.78,0,0,0-5.19-12.38c-1-.61-5.21-.45-5.21-.45a28.73,28.73,0,0,1,5.64,5.85c1.18,1.55,4.76,7,4.76,7"/><path class="cls-55" d="M104,1067.27s5.89-7.18,11.73-4.15c0,0-1.36,3.63-4.12,4.78s-5.55.9-4.65,2.31,2.21,6.48-.49,10.12c0,0-3.52-2.68-3.91-6.41s1.27-3.31.36-4.65"/><path class="cls-56" d="M86.86,1050.29c-.26.23-.76.11-1.11-.28s-.43-.9-.18-1.14.76-.1,1.11.29.44.9.18,1.13"/><path class="cls-56" d="M87.69,1052.92a.71.71,0,0,1-.94-.21.59.59,0,1,1,.83-.75.7.7,0,0,1,.11,1"/><path class="cls-56" d="M90.85,1054.69a.71.71,0,0,1-.94-.21.72.72,0,0,1-.12-1,.71.71,0,0,1,.94.21.7.7,0,0,1,.12,1"/><path class="cls-56" d="M92,1057.38c-.19.17-.55.09-.8-.18a.59.59,0,0,1-.09-.81c.19-.17.54-.1.79.18a.59.59,0,0,1,.1.81"/><path class="cls-56" d="M94.55,1059.27a.61.61,0,0,1-.8-.18.59.59,0,0,1-.1-.81.71.71,0,0,1,.9,1"/><path class="cls-57" d="M81.17,1043.39s-2.61,8.88-9.57,9.09c0,0-2.27-3.64-2.5-6.42s0-6.56,1.55-5.94a51.54,51.54,0,0,0,6.11,1.57,29.42,29.42,0,0,1,4.41,1.7"/><path class="cls-56" d="M88.38,1055.72a.71.71,0,1,1-.1-.81.59.59,0,0,1,.1.81"/><path class="cls-56" d="M83.59,1049.86a.71.71,0,0,1-.89-1c.19-.17.55-.09.8.18a.59.59,0,0,1,.09.81"/><path class="cls-43" d="M77.19,1045.54a1.34,1.34,0,1,1,.21-2,1.41,1.41,0,0,1-.21,2"/><path class="cls-58" d="M76.63,1044.86a.91.91,0,1,1-1.43-1.06.91.91,0,1,1,1.43,1.06"/><path class="cls-34" d="M63.59,1080.79a.68.68,0,0,1,.33-.14h.14l-.52.52s-.07,0-.09,0a1.6,1.6,0,0,1,0-.37.63.63,0,0,1,.2-.3c.05,0,.09,0,.11,0l-.37.53S63.49,1080.94,63.59,1080.79Z"/><path class="cls-35" d="M78.63,1116.45a.41.41,0,0,1,0,.22h0l0,.2h0a1.31,1.31,0,0,1-1.54.61,2.89,2.89,0,0,1-1.49-1.68c-1.78-3.83-1.86-8.18-2.31-12.38-.06-.55-.13-1.1-.2-1.65-1.08-7.76-3.81-15.5-9.38-20.93,2.66.89,4.8,4,6,6.48A76,76,0,0,1,74.09,1099a2.84,2.84,0,0,0,.37,1.32h0q1,3.7,1.61,7.49c.09.53.17,1.06.24,1.6.3,2.16.56,4.46,1.87,6.21A2,2,0,0,1,78.63,1116.45Z"/><path class="cls-34" d="M77.67,1099.58c-.3-.13-.38-.25-.39-.38s.07-.25.37-.39c.31.11.38.24.4.37S78,1099.45,77.67,1099.58Z"/><path class="cls-34" d="M77.79,1077.69h.12v0c.22,0,.27,0,.27,0s-.1.08-.37.1h-.39s0,0,.25-.08v0h.12Z"/><path class="cls-34" d="M76.32,1106.38c-.31-.09-.39-.19-.41-.29s.06-.22.35-.36c.32.07.4.18.42.28S76.62,1106.24,76.32,1106.38Z"/><path class="cls-36" d="M92.55,1072.92q-4.72,7.78-8.75,15.94a49.5,49.5,0,0,0-2.38,5.44,23.48,23.48,0,0,0-.67,2.27h0a53.61,53.61,0,0,0-1.31,12.91,30.46,30.46,0,0,1-.8,7.18.41.41,0,0,0,0-.22,2,2,0,0,0-.45-.82c-1.31-1.75-1.57-4.05-1.87-6.21-.07-.54-.15-1.07-.24-1.6.05-.7.11-1.4.19-2.09a43.27,43.27,0,0,1,1.39-6.92,51.33,51.33,0,0,1,2.83-7.64,64.14,64.14,0,0,1,6.14-10.53Q89.46,1076.68,92.55,1072.92Z"/><path class="cls-37" d="M63.66,1080.86c5.57,5.43,8.3,13.17,9.38,20.93a3.66,3.66,0,0,1-2.53-2.87,1.62,1.62,0,0,1-1-2.7,2.09,2.09,0,0,1-2.53-1.15c-.27-.65-.26-1.52-.88-1.86s-1.37,0-1.82-.41-.28-.91-.55-1.28c-.57-.73-1.87-.15-2.59-.73s-.37-1.94-1.1-2.53c-.57-.45-1.45-.16-2.11-.46-.89-.41-1-1.64-.74-2.59a4.83,4.83,0,0,0,.28-2.86,7.17,7.17,0,0,0-.65-1.06c-1.08-1.67-.79-3.84-.48-5.8a1.76,1.76,0,0,1,.35-.93c.66-.74,2,0,2.84-.54.45-.29.64-.91,1.12-1.15,1.21-.61,2.15,1.55,3.49,1.57.38,0,.78-.17,1.13,0s.54.82.76,1.27a.88.88,0,0,0,.86.44,8.34,8.34,0,0,1,.79,1.69c.29,1.24-.46,2.65.15,3.77s2,1.2,3.15,1.4,2.57.87,2.53,2.06a5,5,0,0,1-.68,1.69c-1.09,2.52,1.42,5.14,1.65,7.87.12,1.33-.45,3-.37,4.39a76,76,0,0,0-4.42-11.66C68.46,1084.81,66.32,1081.75,63.66,1080.86Z"/><path class="cls-34" d="M67.14,1075.85c.3.1.31.32.19.45s-.34.12-.46-.17C66.91,1075.48,66.5,1075.92,67.14,1075.85Z"/><path class="cls-34" d="M73.21,1101.83c-.08.29-.14.35-.18.35s-.06-.1,0-.39.15-.35.18-.36A1.66,1.66,0,0,1,73.21,1101.83Z"/><path class="cls-38" d="M77.69,1099a39.46,39.46,0,0,0-1.33,7.11c-.53-4.42-1.42-10.78-.73-15,.72-4.45,2.69-8.91,2.18-13.31a39.3,39.3,0,0,1-.32,14.26C76.9,1094.88,77.5,1096.59,77.69,1099Z"/><path class="cls-39" d="M86,1071c-.68-.78-1.83-1.14-2.3-2a.31.31,0,0,1-.06-.13,8.88,8.88,0,0,0-.44-1.22c-.58-.89-1.94-.62-2.89-.14s-2.06,1.08-3,.55a2.76,2.76,0,0,0-.71-.4c-1.22-.26-1.38,2.49-2.61,2.26-.32-.05-.55-.32-.84-.47-.81-.4-1.78.25-2.27,1a8.84,8.84,0,0,1-1.52,2.24c-.9.72-2.39.81-2.8,1.89a2.12,2.12,0,0,0,.3,1.74,8.34,8.34,0,0,1,.79,1.69c.29,1.24-.45,2.65.16,3.77s2,1.2,3.14,1.4,2.57.87,2.53,2.06a5,5,0,0,1-.68,1.69c-1.08,2.52,1.43,5.14,1.66,7.88.12,1.32-.46,3-.38,4.38.13.44.25.88.37,1.32h0a73.92,73.92,0,0,1,1.6,7.49c0-.7.11-1.4.2-2.09-.41-4.38-1.09-10.68-.46-14.83.66-4.38,2.38-8.74,2-13.1a45.19,45.19,0,0,1-.44,14.07c-.52,2.78.14,4.58.28,6.94a52.47,52.47,0,0,1,2.83-7.64,9,9,0,0,0-.41-1.71,2.06,2.06,0,0,1,.43-2.28c.42-.29,1-.29,1.36-.66.57-.59.12-1.59.4-2.35a5.54,5.54,0,0,1,.59-.92c.63-1,.47-2.29.73-3.44a7.6,7.6,0,0,1,1.16-2.5c.39-.61.8-1.21,1.15-1.83C86.72,1074.21,87.12,1072.26,86,1071Zm-8.36,5.68c.07.38.12.77.16,1.15C77.79,1077.47,77.74,1077.08,77.68,1076.7Z"/><path class="cls-40" d="M96.13,1073.68c-.82.8-1.88,1.42-2.37,2.46s-.37,2-1,2.83c-.87,1.17-2.76,1.22-3.57,2.43-.61.9-.43,2.23-1.21,3a8.44,8.44,0,0,1-1.17.77c-1.52,1.09-1.36,3.36-1.93,5.15-.73,2.25-3,4.13-4.17,6.26a23.48,23.48,0,0,1,.67-2.27,49.5,49.5,0,0,1,2.38-5.44q4-8.14,8.75-15.94-3.1,3.75-5.93,7.72a64.14,64.14,0,0,0-6.14,10.53,8.06,8.06,0,0,0-.42-1.71,2.1,2.1,0,0,1,.43-2.28c.42-.29,1-.29,1.37-.66.56-.59.11-1.59.4-2.35a5.48,5.48,0,0,1,.58-.92c.64-1,.48-2.29.74-3.45a7.45,7.45,0,0,1,1.16-2.49c.38-.62.79-1.21,1.14-1.84.8-1.43,1.19-3.38.12-4.62-.68-.78-1.83-1.14-2.31-2l3-3a2.67,2.67,0,0,1,2-1.09c1,.1,1.6,1.33,2.58,1.69,1.14.43,2.59-.4,3.56.33s.62,2.22,1.33,3.14c.22.28.53.49.74.78C97.53,1071.54,96.94,1072.87,96.13,1073.68Z"/><path class="cls-59" d="M83.69,1068.81l-.26.27"/><path class="cls-34" d="M90.56,1074.92a28,28,0,0,1,0-8,17.07,17.07,0,0,1,0,8Z"/><path class="cls-34" d="M88.2,1077.87a8.51,8.51,0,0,1-.46-6.66c.18,1.14.24,2.23.32,3.33S88.22,1076.72,88.2,1077.87Z"/><path class="cls-34" d="M85.43,1081.85a6.08,6.08,0,0,1-.81-2.32,6,6,0,0,1,.09-2.45,8.08,8.08,0,0,1,.67,2.34A8.21,8.21,0,0,1,85.43,1081.85Z"/><path class="cls-34" d="M77.93,1077.83a18.94,18.94,0,0,1,1.29-3.78,18.13,18.13,0,0,1,2-3.46,18.12,18.12,0,0,1-1.29,3.78A17.61,17.61,0,0,1,77.93,1077.83Z"/><path class="cls-34" d="M78.39,1081.05a15.58,15.58,0,0,1,2.62-3.17,10.24,10.24,0,0,0,2.24-3.27,4,4,0,0,1-.45,2.07,7.87,7.87,0,0,1-1.23,1.73A25.74,25.74,0,0,1,78.39,1081.05Z"/><path class="cls-34" d="M78.11,1086.18a18.18,18.18,0,0,1,1.79-2.79,17.53,17.53,0,0,1,2.19-2.48,10.8,10.8,0,0,1-4,5.27Z"/><path class="cls-34" d="M77.9,1077.81a8.12,8.12,0,0,1-2.52-3.28,13.11,13.11,0,0,1-1.07-4,37.41,37.41,0,0,1,1.78,3.67C76.63,1075.43,77.22,1076.6,77.9,1077.81Z"/><path class="cls-34" d="M77.31,1082.07a11.18,11.18,0,0,1-6.58-7.17,38.6,38.6,0,0,0,3,3.82A40.36,40.36,0,0,0,77.31,1082.07Z"/><path class="cls-34" d="M76.33,1086.72a3,3,0,0,1-1.59-.89,3.07,3.07,0,0,1-.87-1.6,5.22,5.22,0,0,1,1.42,1.06A5.55,5.55,0,0,1,76.33,1086.72Z"/><path class="cls-34" d="M65.61,1083.88a2.94,2.94,0,0,1-1.72-.25,6.7,6.7,0,0,1-1.45-.91,30,30,0,0,0-2.56-2.06,3.49,3.49,0,0,1,1.65.5,10.63,10.63,0,0,1,1.39.95A9.73,9.73,0,0,0,65.61,1083.88Z"/><path class="cls-34" d="M68.7,1088a8.18,8.18,0,0,1-4.14.1,8.09,8.09,0,0,1-3.71-1.85c1.33.41,2.58.81,3.87,1.09S67.32,1087.85,68.7,1088Z"/><path class="cls-34" d="M70.66,1092.65a7.52,7.52,0,0,1-4.75,0,7.52,7.52,0,0,1,4.75,0Z"/><path class="cls-34" d="M65.64,1081.61a.78.78,0,0,0-.18-.77c-.16-.21-.37-.46-.55-.68-.37-.46-.73-.93-1.1-1.37-.73-.92-1.51-1.78-2.26-2.76a8,8,0,0,1,2.86,2.27,9.2,9.2,0,0,1,1,1.53,6.62,6.62,0,0,1,.38.85C65.88,1081,65.93,1081.41,65.64,1081.61Z"/><path class="cls-41" d="M79.51,1061.83a10.26,10.26,0,0,0-3.33,5.69,11,11,0,0,0,3.94,10.3A13.57,13.57,0,0,0,91,1080.4c4-.73,7.85-3.47,8.6-7.43a12.16,12.16,0,0,0-.48-5.48,14,14,0,0,0-3.73-6.76C91.49,1057.16,83.25,1058.55,79.51,1061.83Z"/><path class="cls-8" d="M82.78,1065c1.1-1.8,2.34-3.72,4.32-4.44a4.89,4.89,0,0,1,6,2.63,8.15,8.15,0,0,0-2.81-3.89,4.49,4.49,0,0,0,1.63-3.49l-3.67,3,1.29-4.32-2.87,4.29.93-4.67-2.1,4.53a9,9,0,0,0-4.89-3.86l3.3,3-5.47.41a10.2,10.2,0,0,0,2.92,1.3c.75.21,1.89.23,2.49.77s.44,1,.08,1.85A27.85,27.85,0,0,1,82.78,1065Z"/><rect class="cls-60" x="169.47" y="1100.9" width="74.65" height="144.69" transform="translate(-973.47 1335.22) rotate(-87.82)"/><path class="cls-61" d="M269.19,1197.65s-38.86,3.22-59.48,1.66-33.92,2.51-32.58-27.92-3.68-110.18,15.29-112.88,48.52,1.55,60.37,4,24.33,33.88,30.16,43.54c0,0,50.43,1.4,67.22,17s6.09,34.6,6.09,34.6-90.41,18.76-87.07,40"/><path class="cls-61" d="M175.4,1135.36s1.74,50.65-5.32,50.65H132.47s-17-38.36-44.18-35.76-44.47,26.82-44.47,26.82-11,3-11-8.19c0,0-6.27,3-6-3.92s-2.39-34.45,6.86-35.56,141.73,6,141.73,6"/><path class="cls-62" d="M293.65,1206.3s-.6,14-21.13,12.6c-23.07-1.57-7.49-43.13-1.23-55.74,7.7-15.48,42.75-15.67,48.41-15.48,24,.78,56.67,2.32,43.47,33.42,0,0,12.49,30.67-.58,33.16-24.78,4.73-10.17-40.48-38-38.65s-30.92,30.69-30.92,30.69"/><path class="cls-62" d="M51,1199.68s-13.27,0-11.48-14.9c2.34-19.48,18.63-41.34,60-39.26s50.89,59.82,37.52,65.19c-11,4.43-14-3.08-18.37-20.57-4.44-17.75-28.59-22.05-38.8-13.7S68.37,1203,51,1199.68"/><path class="cls-62" d="M178.84,1136.85l-149.91-5.71a2.36,2.36,0,1,1,.18-4.72L179,1132.13a2.36,2.36,0,0,1-.18,4.72"/><path class="cls-63" d="M199.36,1087.75s-.53-17.09,7.17-17.78c8.76-.79,40.61-2.77,49.55,9.76,8.6,12,19.57,29.59,5.51,30.21s-41,0-41,0-20.75.28-20.89-7.13Z"/><path class="cls-60" d="M123.8,1199.31a30.94,30.94,0,1,1-30.94-31,30.94,30.94,0,0,1,30.94,31"/><path class="cls-64" d="M112,1199.31a19.15,19.15,0,1,1-19.15-19.15A19.15,19.15,0,0,1,112,1199.31"/><path class="cls-63" d="M103.85,1199.31a11,11,0,1,1-11-11,11,11,0,0,1,11,11"/><path class="cls-60" d="M352.5,1202.27a30.95,30.95,0,1,1-30.95-31,31,31,0,0,1,30.95,31"/><path class="cls-64" d="M340.7,1202.27a19.15,19.15,0,1,1-19.15-19.15,19.14,19.14,0,0,1,19.15,19.15"/><path class="cls-63" d="M332.54,1202.27a11,11,0,1,1-11-11,11,11,0,0,1,11,11"/><path class="cls-63" d="M219,1125.52c0,1.74-4.64,2.23-10.36,2.23s-10.36.41-10.36-2.23c0-3.37,4.65-2.64,10.36-2.23,6.19.44,10.36,1,10.36,2.23"/><rect class="cls-65" x="45" y="1096.1" width="41.26" height="6.59" transform="translate(-1035.45 1123.42) rotate(-87.83)"/><rect class="cls-65" x="86.96" y="1098.76" width="41.26" height="6.59" transform="translate(-997.75 1167.91) rotate(-87.83)"/><rect class="cls-65" x="128.92" y="1100.36" width="41.26" height="6.59" transform="translate(-958.97 1211.38) rotate(-87.83)"/><path class="cls-63" d="M285.39,1107.32c-.58.08-.13,0,0,0s.57,0,.85,0a8,8,0,0,1,2.36.25,4,4,0,0,1,2.22,1.3,3.31,3.31,0,0,1,.63,2.79c-.31.74-1.8,1-2.58,1.17-1.65.35-3.32.53-5,.88-2.88.61-5.87,1.85-6.41,5.1a5.71,5.71,0,0,0,4.24,6.5c1.55.38,2.21-2,.66-2.39a3.23,3.23,0,0,1-2.16-4.6,4.69,4.69,0,0,1,3.24-2c1.73-.44,3.5-.65,5.25-1a8.82,8.82,0,0,0,4-1.44,3.76,3.76,0,0,0,1.24-3.61,6,6,0,0,0-4.4-5.07,11.35,11.35,0,0,0-4.85-.3,1.26,1.26,0,0,0-.87,1.53,1.29,1.29,0,0,0,1.53.87"/><rect class="cls-66" x="97.9" y="1053.33" width="12.16" height="139.41" transform="translate(-1022.21 1184.2) rotate(-87.82)"/><path class="cls-64" d="M289.84,1104.88c0,5.22-3.84,7.14-5.73,7.14s-3.44-4.23-3.44-9.45,1.54-9.45,3.44-9.45,5.73,6.54,5.73,11.76"/><rect class="cls-66" x="98.68" y="1032.87" width="12.16" height="139.41" transform="translate(-1001 1165.29) rotate(-87.82)"/><rect class="cls-66" x="99.47" y="1011.93" width="12.16" height="139.41" transform="translate(-979.32 1145.95) rotate(-87.82)"/></svg>