<svg id="Layer_1" data-name="Layer 1" xmlns="http://www.w3.org/2000/svg" viewBox="0 0 750 5342"><defs><style>.cls-1{fill:#478a71;}.cls-2{fill:#414841;}.cls-3{fill:#77a275;}.cls-4{fill:#6aa4a2;}</style></defs><title>mobi5</title><path class="cls-1" d="M0,1075.85s151.49,17,232.19,33.4c61,12.41,121.72,27.83,179.83,50,67.33,25.73,125.5,66.25,197.86,79.67,42.38,7.86,79.76,9.83,107.38,42.34-246.77,17.89-469.82,34-717.26,34Z"/><path class="cls-2" d="M393.75,1209.85h4.08s-.34-14.63,2.73-17.7a14.84,14.84,0,0,0-4.09,7.15s-.68-8.17-.34-9.87a16.46,16.46,0,0,0-1.7,9.53s-1-5.45-4.43-6.47C390,1192.49,394.09,1197.26,393.75,1209.85Z"/><path class="cls-3" d="M370.85,1150.2l5.45.34s-1-11.58,1.36-14.64a18.33,18.33,0,0,0-2,4.42s-.68-6.12,1.7-8.5c0,0-2,1.7-3.41,7.14,0,0-1-7.48-.68-9.53a24.88,24.88,0,0,0-1,9.19s-1.7-5.1-4.08-7.14c0,0,2.38,5.78,2.38,8.84,0,0-1.7-3.06-3.06-3.74,0,0,3.06,4.43,3.4,7.49A31.76,31.76,0,0,1,370.85,1150.2Z"/><path class="cls-4" d="M145.1,1231.72h5.78s-.34-10.89,3.07-15.31a38.13,38.13,0,0,0-3.07,5.1s.68-7.15,1-7.49a46.74,46.74,0,0,0-3.4,9.53s-1-11.91-.34-13.27c0,0-2.38,6.13-1.36,11.57,0,0-2.38-7.83-4.77-9.19,0,0,3.07,6.13,3.07,9.53,0,0-2.73-4.76-3.75-4.42A24.37,24.37,0,0,1,145.1,1231.72Z"/></svg>