<svg id="Layer_1" data-name="Layer 1" xmlns="http://www.w3.org/2000/svg" xmlns:xlink="http://www.w3.org/1999/xlink" viewBox="0 0 750 5342"><defs><style>.cls-1,.cls-4{fill:none;}.cls-2{clip-path:url(#clip-path);}.cls-3{fill:#172d55;}.cls-4{stroke:#010101;stroke-linecap:round;stroke-linejoin:round;stroke-width:0.49px;}.cls-5{fill:#ce2127;}.cls-6{fill:#fcda0d;}.cls-7{fill:#e65145;}.cls-8{fill:#e7f0df;}.cls-9{fill:#487f3b;}.cls-10{fill:#195a3a;}.cls-11{fill:#dfdbd0;}.cls-12{fill:#b2bf61;}.cls-13{fill:#e8eede;}.cls-14{fill:#503e30;}.cls-15{fill:#8bc298;}.cls-16{fill:#fbd2c0;}.cls-17{fill:#2b8a70;}.cls-18{fill:#7e5a3f;}.cls-19{fill:#f8b517;}.cls-20{fill:#295f86;}.cls-21{fill:#c87936;}.cls-22{fill:#fbd90a;}.cls-23{fill:#fbd901;}</style><clipPath id="clip-path"><rect class="cls-1" x="-0.18" y="3688.39" width="239.01" height="478.17"/></clipPath></defs><title>mobi18</title><g class="cls-2"><path class="cls-3" d="M130.49,4129.42h-.11l-4.54-1a.48.48,0,0,1-.37-.54l1-7.8a.48.48,0,0,1,.54-.42.49.49,0,0,1,.43.54l-1,7.36,4.11.94a.49.49,0,0,1-.11,1Z"/><path class="cls-3" d="M125.22,4132.51l-.11,0-4.54-1a.48.48,0,0,1-.38-.47v-9.59a.49.49,0,0,1,1,0v9.2l4.16.94a.49.49,0,0,1-.11,1Z"/><path class="cls-3" d="M72.61,4124.68h-.1l-5.72-1.25a.48.48,0,0,1-.38-.55l1.62-10a.48.48,0,0,1,.56-.41.5.5,0,0,1,.4.56l-1.55,9.58,5.27,1.15a.49.49,0,0,1,.38.58.5.5,0,0,1-.48.38Z"/><path class="cls-3" d="M59.18,4133.88a.48.48,0,0,1-.36-.16l-2.94-3.23a.52.52,0,0,1-.13-.38l1.45-14.42a.5.5,0,0,1,.54-.44.48.48,0,0,1,.43.53L56.75,4130l2.79,3.07a.49.49,0,0,1,0,.69.46.46,0,0,1-.33.13Z"/><path class="cls-3" d="M68.63,4127.91a.49.49,0,0,1-.45-.31l-1.74-4.47a.48.48,0,1,1,.9-.36l1.74,4.48a.48.48,0,0,1-.27.63.57.57,0,0,1-.18,0Z"/><path class="cls-3" d="M54.46,4135.37a.47.47,0,0,1-.17,0,.49.49,0,0,1-.29-.63l1.78-4.72a.49.49,0,0,1,.92.34l-1.79,4.73a.49.49,0,0,1-.45.31Z"/><line class="cls-4" x1="146.8" y1="4021.25" x2="146.79" y2="4021.24"/><path class="cls-5" d="M141.3,4039.37a25.92,25.92,0,0,0-8.46-1.72,47.06,47.06,0,0,1,4.62-8Z"/><path class="cls-5" d="M90.84,4053.07s2.82-3.91,1.14-6.27-2.48.19-2.48.19-1.38-4.88-3.17-4.4-1.94,2.81-1.94,2.81-1.55-4.87-3.1-3.42,1.28,7.86,1.28,7.86Z"/><path class="cls-6" d="M136,4110.19c-.79,3.37-3.26,7.08-9.08,9.91-.47.24-1,.46-1.48.68a18,18,0,0,1-4.79,1.31c-10.15,1.22-15.9-8.46-19-10.47a.85.85,0,0,1,.39-1.54c4.54-.43,4.78,3.21,13.45-6.56,9.91-11.2,18.86-1.92,18.86-1.92,1,.8,2.59,4.42,1.61,8.59Z"/><path class="cls-7" d="M144.17,4102.65l-8.14,7.54c1-4.17-.6-7.79-1.61-8.59h9.34a.6.6,0,0,1,.41,1Z"/><path class="cls-5" d="M104.85,4066.17a23.21,23.21,0,0,0-6.69,1.3l.78-8.33a56.71,56.71,0,0,1,5.91,7Z"/><path class="cls-8" d="M98.94,4059.15l-.78,8.32h0a14.32,14.32,0,0,0-4.38,2.53c-8.35,7.11-4.78,22.27-8.89,31.22-3,6.45-8.65,10.54-16.56,12.91a60.3,60.3,0,0,1-10.67,2.06,112.06,112.06,0,0,1-12.29.62c-20,0-36-39.95-33.68-38s9,1.89,9,1.89c-5.65-3-5.73-12.14-5.58-15.36a.47.47,0,0,1,.82-.3c2.89,3,14.29,13,34.61,7.62,23.79-6.3,12.51-17.4,27.93-22.21,4.34-1.36,8.72-.06,12.63,2.26a41,41,0,0,1,7.9,6.39Z"/><path class="cls-5" d="M93.76,4070s3.93,4.22.77,7.77-4.33-2.19-4.33-2.19Z"/><path class="cls-3" d="M190.11,4102.13a.45.45,0,0,1-.25-.07.49.49,0,0,1-.16-.67l3.07-4.93-3.71-17.7a.49.49,0,0,1,.95-.2l3.75,17.89a.45.45,0,0,1-.06.36l-3.17,5.1a.5.5,0,0,1-.42.22Z"/><path class="cls-3" d="M193.29,4097h-7.85a.49.49,0,0,1-.49-.49.48.48,0,0,1,.49-.48h7.85a.48.48,0,0,1,.48.48.49.49,0,0,1-.48.49Z"/><path class="cls-3" d="M160.56,4093.53a.48.48,0,0,1-.38-.17.49.49,0,0,1,.07-.69l5.08-4.2.21-18.4a.5.5,0,0,1,.49-.48h0a.48.48,0,0,1,.48.5l-.21,18.62a.47.47,0,0,1-.17.37l-5.26,4.34a.45.45,0,0,1-.31.11Z"/><path class="cls-3" d="M168.49,4095a.5.5,0,0,1-.44-.28l-2.68-5.85a.49.49,0,1,1,.89-.41l2.67,5.85a.48.48,0,0,1-.24.64.46.46,0,0,1-.2.05Z"/><path class="cls-5" d="M167.78,4016.11c0,3.86-7,6.65-7.25,6.74h0a13.37,13.37,0,0,0-8.44-2.82,12.5,12.5,0,0,0-5.29,1.21h0c-.45-.4-10.22-9.14-2.55-13,7.85-3.93,7.85,3.92,7.85,3.92s0-3.92,3.93-3.92,7.84,3.91,3.94,7.83c.31-.15,7.83-3.83,7.83,0Z"/><path class="cls-9" d="M232.53,4088.71a49.67,49.67,0,0,0-3.26-6.69h0c.16-.62,6.94-28.57,0-39.14-6.61-10.08-25.59,1-27.73,2.28-1.41-.61-2.85-1.23-4.37-1.86,0,0,14.57-22.29,35.36-9.53,14.18,8.72,0,54.95,0,54.95Z"/><path class="cls-10" d="M229.27,4082a39.59,39.59,0,0,0-6.35-8.27h0c.2-.62,6.92-22.57,0-27s-17.23,3.07-17.23,3.07l-1-3.24c-1.06-.45-2.12-.92-3.19-1.39,2.14-1.27,21.12-12.36,27.73-2.28,6.94,10.57.16,38.52,0,39.14Z"/><path class="cls-11" d="M210.59,4066.22c-6.94,5.79-14.78,11.37-21.05,12.48a12.36,12.36,0,0,1-2.14.2c-6.83,0-15-4-21.37-8.81-4.64-3.52-8.36-7.51-10-10.82s-2.93-7.55-5.17-11.38a19.4,19.4,0,0,0-6.76-7.14,17.17,17.17,0,0,0-2.78-1.39l-3.84-9.72c2.34-3.26,5.5-6.65,9.32-8.4h0a12.5,12.5,0,0,1,5.29-1.21,13.37,13.37,0,0,1,8.44,2.82h0c5.49,4,10.46,11.34,26.87,16.81,3.79,1.26,6.93,2.46,9.77,3.63,1.52.63,3,1.25,4.37,1.86,1.07.47,2.13.94,3.19,1.39l1,3.24,1.95,6.54Z"/><path class="cls-12" d="M222.92,4073.73a31.77,31.77,0,0,0-6.86-5.24c.19-.37,5-9.82,2.86-12.76-1.94-2.68-9.63,0-11.28.59l-1.95-6.54s10.22-7.58,17.23-3.07.2,26.41,0,27Z"/><path class="cls-9" d="M216.07,4068.49a21.05,21.05,0,0,0-5.48-2.27l-3-9.9c1.65-.61,9.34-3.27,11.28-.59,2.13,2.94-2.67,12.39-2.85,12.76Z"/><path class="cls-5" d="M147.33,4058.05c-2.8-.37-3.24-4.48-3.28-6.64a.15.15,0,0,0-.3,0c-.47,1.41-1.46,3.25-3.15,1.17-4.06-5,3.48-11.78,3.48-11.78a19.4,19.4,0,0,1,6.76,7.14s.3,10.65-3.51,10.16Z"/><path class="cls-13" d="M206.06,4053.22c-13.11,24.33-28.15,9.13-34.47.7a3.1,3.1,0,0,1,2.24-5c11.12-.85,35.63-2,32.23,4.27Z"/><path class="cls-3" d="M130.38,4089.14h-.11l-4-.91a.5.5,0,0,1-.38-.5l.37-6.91a.45.45,0,0,1,.51-.46.49.49,0,0,1,.46.51l-.34,6.5,3.62.82a.49.49,0,0,1-.11,1Z"/><path class="cls-3" d="M134.19,4087.27h-.11l-4-.92a.48.48,0,0,1-.38-.53l.6-4.61a.48.48,0,1,1,1,.13l-.53,4.16,3.59.82a.49.49,0,0,1-.11,1Z"/><path class="cls-6" d="M142,4072.69a9.67,9.67,0,0,1-3.54,6.07,11.81,11.81,0,0,1-7.7,2.51,20.07,20.07,0,0,1-4-.43q-.69-.14-1.41-.33c-12.27-3.21-8.81-16.24-10-19.76a.74.74,0,0,1,1.1-.87c3.42,2.16-.08,5.34,11.3,3.14,13-2.51,14.29,8.84,14.29,8.84a2.42,2.42,0,0,1,0,.83Z"/><path class="cls-7" d="M146.57,4078.76h-8.11a9.67,9.67,0,0,0,3.54-6.07l4.67,5.82a.15.15,0,0,1-.1.25Z"/><path class="cls-14" d="M89.16,4059.77c0,1-1.27,1.77-2.25,1.77a1.78,1.78,0,1,1,0-3.55c1,0,2.25.8,2.25,1.78Z"/><path class="cls-14" d="M144.7,4031.59c0,1,1.27,1.78,2.25,1.78a1.78,1.78,0,0,0,0-3.55c-1,0-2.25.79-2.25,1.77Z"/><path class="cls-14" d="M133.12,4106.37c0,.68-.81,1.3-1.49,1.34a1.23,1.23,0,0,1-1.32-1.15,1.24,1.24,0,0,1,1.15-1.33c.69,0,1.61.46,1.66,1.14Z"/><path class="cls-14" d="M137.23,4070.42c.05.68-.8,1.3-1.48,1.34a1.24,1.24,0,1,1-.17-2.48c.69-.05,1.61.45,1.65,1.14Z"/><path class="cls-6" d="M3.08,4117.27c3.41,0,3.41-5.3,0-5.3s-3.42,5.3,0,5.3Z"/><path class="cls-6" d="M112.15,4145.9c3.41,0,3.42-5.3,0-5.3s-3.41,5.3,0,5.3Z"/><path class="cls-6" d="M27.62,4159.54c3.41,0,3.42-5.3,0-5.3s-3.41,5.3,0,5.3Z"/><path class="cls-6" d="M128.51,4149.31c3.41,0,3.42-5.3,0-5.3s-3.41,5.3,0,5.3Z"/><path class="cls-15" d="M37.43,3868.83a3.21,3.21,0,0,0-.33,1.12,17.09,17.09,0,0,1-6.36-3.11,13.8,13.8,0,0,1-5-10.3c-.47-6.95-.27-13.93-.06-20.92q.69-23.17,1.4-46.37a43.5,43.5,0,0,1-21.51,6.21A89.19,89.19,0,0,1-5.22,3826l-.26,0-15.59.81-.36,0c-3.72-15.59,2.1-32.52,13-44.29s26.22-18.71,42-21.71l1-.18.85-.14C33,3796.33,35.12,3833.47,37.43,3868.83Z"/><path class="cls-16" d="M83.25,3863.47a1.14,1.14,0,0,1-.32-1.32c.27-.52,1-.63,1.58-.63a14.18,14.18,0,0,1,3,.37,19,19,0,0,1,3.73,1.27c1,3.32,2,6.68,3.08,10a2.52,2.52,0,0,0,.76,1.35,28.21,28.21,0,0,1-10.24.12,11.91,11.91,0,0,1-5.33-2.18,6.34,6.34,0,0,1-2.25-3.39c0-.08,0-.15-.06-.22a4.88,4.88,0,0,1-.07-1.43,4.25,4.25,0,0,1,.28-1.17,4.88,4.88,0,0,1,1.46-2,4.14,4.14,0,0,1,1.28-.76,4.85,4.85,0,0,1,3.06,0s0,0,.07.07Z"/><path class="cls-17" d="M105,3873.81l-8.13,1a2.47,2.47,0,0,1-1.72-.21.12.12,0,0,1-.06-.06,2.52,2.52,0,0,1-.76-1.35c-1-3.33-2-6.69-3.08-10l-.26-.88a1.18,1.18,0,0,1,0-.92,1.21,1.21,0,0,1,.73-.45c1.14-.35,2.42-.76,3.67-1.16l2.45-.77,7.1,14.65Z"/><path class="cls-15" d="M141.89,3824.91a102,102,0,0,0-47.63-62.22q-3.66-2.1-7.49-3.91c-.2-.12-.43-.25-.69-.38-1.9-1-5.37-2.2-8.23-3.32a24.06,24.06,0,0,1-16.68,9.79A24.46,24.46,0,0,1,42.71,3759c-1,.3-2.09.52-3.16.74v.08c-.58,35.88-.21,70.59,1.62,107.76a4.72,4.72,0,0,1,1.17,2.49l35-1c0-.08,0-.15-.06-.22a4.88,4.88,0,0,1-.07-1.43,4.25,4.25,0,0,1,.28-1.17,4.88,4.88,0,0,1,1.46-2,4.14,4.14,0,0,1,1.28-.76,4.85,4.85,0,0,1,3.06,0,1.14,1.14,0,0,1-.32-1.32c.27-.52,1-.63,1.58-.63a14.18,14.18,0,0,1,3,.37,19,19,0,0,1,3.73,1.27l-.26-.88a1.18,1.18,0,0,1,0-.92,1.21,1.21,0,0,1,.73-.45c1.14-.35,2.42-.76,3.67-1.16l2.45-.77,7.1,14.65.08.18.19.38c2.08-.5,3.76-1,5.17-1.44,5.07-1.66,6.83-3.35,12-7.29a99.56,99.56,0,0,0,17.07-16.95c3.47-4.36,3.65-8.67,3.9-12.42A34.85,34.85,0,0,0,141.89,3824.91ZM113,3841.45a83.46,83.46,0,0,0,.1-24,163.2,163.2,0,0,0,10.61,13.45C120.05,3834.2,116.48,3837.75,113,3841.45Z"/><path class="cls-18" d="M108.89,3974.6l-.64.21-17.56,5.79-.45.15a200,200,0,0,1-16.46-87.49l-11,.89a726.75,726.75,0,0,0-25.67,70.42c-2.42,7.91-4.82,16.06-10,22.54l-.7,0v-.23c0,.08,0,.15,0,.23l-15-.94-.55,0c-3.79-9.61-5-20.06-5.23-30.4a162,162,0,0,1,25-88.8s0,0,0-.06A17.09,17.09,0,0,0,37.1,3870a4.48,4.48,0,0,0,.87,3.13,2.89,2.89,0,0,0,2,1.31c1.35.09,2.43-1.29,2.52-2.65a6.24,6.24,0,0,0-.18-1.71l35-1a6.34,6.34,0,0,0,2.25,3.39,11.91,11.91,0,0,0,5.33,2.18,28.21,28.21,0,0,0,10.24-.12.12.12,0,0,0,.06.06,2.47,2.47,0,0,0,1.72.21l8.13-1,.19.38c2.08-.5,3.76-1,5.17-1.44C112.84,3906.52,115.22,3941.34,108.89,3974.6Z"/><path class="cls-19" d="M111.06,3992.34a67.71,67.71,0,0,1-15,7.31,21.36,21.36,0,0,0-1-4.56c-1.41-4.65-3-9.82-4.43-14.49l17.56-5.79A82.08,82.08,0,0,1,111,3992C111,3992.12,111.06,3992.24,111.06,3992.34Z"/><path class="cls-19" d="M26.5,3987.07c-.23,6.52-.6,13.65-.84,20.14a34.57,34.57,0,0,1-.28,3.51c-4.86-.16-10.63.13-15.52,0a4.79,4.79,0,0,0,1-1.2,9.26,9.26,0,0,0,.9-5.05c-.08-6-.21-12.37-.3-18.34l15,.94Z"/><path class="cls-20" d="M25.38,4010.72A9.91,9.91,0,0,1,23.9,4015a9.76,9.76,0,0,1-5,3.55,29.93,29.93,0,0,1-6.09,1.17l-9.73,1.16a2.94,2.94,0,0,1-2.51-.46,1.94,1.94,0,0,1-.25-2.14,5.29,5.29,0,0,1,1.47-1.73,41.66,41.66,0,0,1,5.36-4,16,16,0,0,0,2.67-1.84C14.75,4010.85,20.52,4010.56,25.38,4010.72Z"/><path class="cls-20" d="M108.82,4002.73c-1.7,2.21-4.31,3.49-6.84,4.68a32.85,32.85,0,0,1-8.65,3.12A1.16,1.16,0,0,1,92.1,4009c.85-2.14,2.87-3.91,3.66-6.13a7.86,7.86,0,0,0,.35-3.2,67.71,67.71,0,0,0,15-7.31C111.22,3996,111,3999.86,108.82,4002.73Z"/><path class="cls-16" d="M77.85,3755.08a24.06,24.06,0,0,1-16.68,9.79A24.46,24.46,0,0,1,42.71,3759a18.79,18.79,0,0,0,8.34-4.4c.94-1.54-.13-3.47-1.07-5-3.15-5.21-4.47-11.11-5-17.16,6.22.45,12.48.64,18.72.53a13.43,13.43,0,0,0,7.22,12.65c-.1.33-.21.65-.28,1a5.73,5.73,0,0,0,.28,3.88,8.08,8.08,0,0,0,3.16,2.91A26.93,26.93,0,0,0,77.85,3755.08Z"/><path class="cls-18" d="M72,3742.82c-.36.91-.76,1.8-1.07,2.74a13.43,13.43,0,0,1-7.22-12.65c-6.24.11-12.5-.08-18.72-.53-.14-1.4-.22-2.79-.28-4.19l.07-.13,18.54-.32,10.45-.17.15,0A30.39,30.39,0,0,1,72,3742.82Z"/><path class="cls-21" d="M41.17,3867.54c-1.2-1-5.79-.67-6.38.55-2.31-35.37-1.75-71.76.54-107.61l5.84-1.13C40.59,3795.23,39.34,3830.37,41.17,3867.54Z"/><path class="cls-22" d="M42.5,3871.74c-.13,2-1.74,4.06-3.75,3.93a4.25,4.25,0,0,1-3-1.94,6.71,6.71,0,0,1-1.3-4.66,5.12,5.12,0,0,1,.48-1.65c.89-1.81,3.78-3.37,5.56-1.92a6.93,6.93,0,0,1,1.74,3.71A9.47,9.47,0,0,1,42.5,3871.74Z"/><path class="cls-21" d="M91,3861.36a1.18,1.18,0,0,0,0,.92l.26.88a19,19,0,0,0-3.73-1.27,555.62,555.62,0,0,1-1.47-103.49c.26.13.49.26.69.38,2.55,1.21,3.92,1.88,6.36,3.27a467.56,467.56,0,0,0,1,98.1c-1.25.41-1.28.41-2.42.76A1.21,1.21,0,0,0,91,3861.36Z"/><polygon class="cls-19" points="42.71 3718.99 23.83 3728.85 94.15 3728.44 75.17 3718.99 42.71 3718.99"/><path class="cls-23" d="M75,3719c-3-.69-3.17-8.55-3.09-12a1.61,1.61,0,0,0-1.61-1.64H64.43l-5.49-2.18-5.5,2.18H46.28a1.61,1.61,0,0,0-1.6,1.72c.64,9.46-2.11,11.94-2.11,11.94S78.88,3719.84,75,3719Z"/></g></svg>