<svg id="Layer_1" data-name="Layer 1" xmlns="http://www.w3.org/2000/svg" xmlns:xlink="http://www.w3.org/1999/xlink" viewBox="0 0 750 5342"><defs><style>.cls-1{fill:none;}.cls-2{clip-path:url(#clip-path);}.cls-3{fill:#e9eddf;}.cls-4{fill:#bad28b;}.cls-5{fill:#76a075;}.cls-6{fill:#4d4032;}.cls-7{fill:#96c19c;}.cls-8{fill:#f7d94a;}.cls-9{fill:#162c53;}.cls-10{fill:#64a1a0;}.cls-11{fill:#c6d07a;}.cls-12{fill:#406f71;}.cls-13{fill:#92c1b3;}.cls-14{fill:#658269;}.cls-15{fill:#fff;}.cls-16{fill:#2f4a3d;}.cls-17{fill:#5e867e;}.cls-18{fill:#478971;}.cls-19{fill:#dcd98f;}.cls-20{fill:#547d41;}</style><clipPath id="clip-path"><rect class="cls-1" x="0.01" y="1315.33" width="254.19" height="537"/></clipPath></defs><title>mobi13</title><g class="cls-2"><path class="cls-3" d="M45.21,1645.42s-10,15.9-27.64,9.5-8.26-12.07-8.26-12.07-15.46,3.08-24.56-6.58,13.4-6.74,13.4-6.74-27.09-8.71-25.24-22.93,18.39-3.77,18.39-3.77-22.19-18.1-16.09-30.72,18.14-.65,18.14-.65-8.32-12.08-2-17.34,14.48,3.29,14.48,3.29S1.19,1516,24.54,1527.62c0,0,.2-28.56,19.28-12.13,0,0,4.42-27,25-22.29s10.45,33.71,10.45,33.71,5.1-13.15,15.18-6.72-4.66,26.73-4.66,26.73,11.94-10,22.77.32-3.47,30.72-3.47,30.72,4.52-4.42,13.71-2.34-.59,18.05-11.53,19.8c0,0,24,1.72-2.35,20.48,0,0,9.63-3.53,11.58,4.91s-10.74,18.11-27,19.36c0,0,13.14-2,10.43,10s-25,5.73-25,5.73,15.17,8.51,2.39,13.74S51.32,1663.79,45.21,1645.42Z"/><path class="cls-4" d="M26.31,1497.19s-17.95-2.67-14.44-14.93,14.44,0,14.44,0-6.45-17.6,2.79-18,9,8.51,9,8.51-1.34-11.41,9.13-12.52,6.47,16.13,6.47,16.13,4.23-10.34,16-8.11S78,1484,64,1487.14c0,0,9.58-.87,9.8,5.6s-9.36,8.91-17.83,3.34a8.67,8.67,0,0,1-11.11.67S39,1498.31,26.31,1497.19Z"/><path class="cls-5" d="M-17.76,1451.41s-45.71,5.18-62.91-25.78,9.15-27.3,20.13-21.45c0,0-22.7-24.16-8.05-38.8s28.19,9.52,28.19,9.52-4-36.24,27.09-36.24,32.12,30.9,32.12,30.9,7.75-29.8,29.91-28.71,13.38,28.71,13.38,28.71,17.2-8.57,30,6.8-5.49,27.82-5.49,27.82,19.76-3.9,19.76,16.54-14.27,27.31-31.84,31c0,0,3.29,13.22-40.87,1.13C33.68,1452.87-23.09,1470.34-17.76,1451.41Z"/><path class="cls-6" d="M15.84,1627s-5.83,3.89-11.18,0,3.4-26.57,2.91-103.91.74-146.56,4.11-145,.86,58.47,1.78,103.87S19.46,1622.77,15.84,1627Z"/><path class="cls-6" d="M10,1495.7s-15,5.58-22-5.59-3.73-25.69-7.82-25.69-5,44.82,29.87,36.69Z"/><path class="cls-6" d="M8.61,1506.51s15,5.58,22.05-5.59,3.73-25.69,7.82-25.69,5,44.83-29.87,36.69Z"/><path class="cls-6" d="M10.73,1423.72s-15,5.59-22.06-5.58-3.72-25.69-7.82-25.69-5,44.82,29.88,36.69Z"/><path class="cls-6" d="M9.31,1434.53s15,5.59,22.06-5.58,3.72-25.69,7.82-25.69,5,44.82-29.88,36.69Z"/><path class="cls-6" d="M12,1393.58s7.18,2.51,10.64-3.09,3.41-8.39,5-7.39c.89.57-3.53,16-14.21,13.39"/><path class="cls-6" d="M35.47,1487s7.19,2.5,10.65-3.09,3.41-8.39,5-7.39c.89.57-3.53,16-14.21,13.39"/><path class="cls-6" d="M8.61,1552.76s9.12,3.83,13.2-2.76,4.19-9.38,5.83-7.93-4.15,18.77-16.72,15.75"/><path class="cls-6" d="M35.8,1426.25s17.07,7.37,26.64-7.11c0,0,1.16-2.2,2.33-1.17s-8.39,19.17-30,11.42Z"/><path class="cls-7" d="M-25.34,1481.38s-29.57,2.8-29.13-14.13,17.45-6.17,17.45-6.17-10.34-13.44,0-17.47,11.68,11.2,11.68,11.2-1-10.77,11.15-11.88,5,15,5,15,10.74-12.54,20.6-1.34-15.3,16.13-15.3,16.13S6.92,1485.55-25.34,1481.38Z"/><path class="cls-8" d="M90.77,1435.14c-2.88,8.36-13.12,10.65-17.32,8.91-6.28-2.61.85-8.38,1.52-11.35,1.07-4.67-3.26-14.87,5.08-16.82C88,1414,94.72,1423.66,90.77,1435.14Z"/><path class="cls-8" d="M35,1509c2.24,6.53,10.24,8.32,13.52,7,4.9-2-.67-6.54-1.19-8.86-.83-3.65,2.54-11.61-4-13.13C37.15,1492.54,31.92,1500.07,35,1509Z"/><path class="cls-8" d="M57.32,1377.29c-.25,6.9-7.38,10.94-10.91,10.6-5.28-.52-1.27-6.45-1.44-8.83-.27-3.73-5.82-10.36,0-13.71C50.47,1362.15,57.66,1367.82,57.32,1377.29Z"/><path class="cls-9" d="M68,1732.93s-7.65,21.83-30.6,19-13.21-12.23-13.21-12.23-17.73,7.91-31.29-1.2S7.13,1726.7,7.13,1726.7s-34.91-3.06-36.57-20.64,21.05-9.55,21.05-9.55S-40,1680.84-36.09,1664s21.61-5.73,21.61-5.73-13.3-12.23-7.2-20.26,18.28,0,18.28,0-16.81-48.48,14.4-40.89c0,0-7.56-34.34,19.83-19.82,0,0-2-33.6,24-33.6s21.74,37.62,21.74,37.62,2.55-17.18,16.4-12.21,1.7,33.36,1.7,33.36,11.6-15.28,27.42-5.82,4.22,37.83,4.22,37.83,4.22-6.55,15.82-6.55,4.22,21.83-8.44,26.92c0,0,29.28-4.49,2.77,25.22,0,0,10.6-6.86,15.24,2.74s-7.95,24.68-27.16,30.62c0,0,15.24-5.94,15.24,9.14s-28.49,13.71-28.49,13.71,20.54,6.08,6.62,15.84S80.31,1753.33,68,1732.93Z"/><path class="cls-10" d="M185.13,1711.05c-5.22,19.33-13.71,38.91-29.78,50.83-.47.36-.92.68-1.41,1h0c-11.28,7.87-24.94,11.58-37.64,17,0,0,0,0,0,0a4.47,4.47,0,0,0-.64.25c-13.42,5.84-26.84,15.07-30.9,29.14.11.38-.85,1-2.11,1.65h0c-2.07,1-4.9,2-5.24,1.41a2.88,2.88,0,0,1,.28-2.72.42.42,0,0,1,.08-.15c2.69-5.33,6.61-10.11,8.17-15.86,1.14-4.21.93-8.68,1.18-13.07a31,31,0,0,1,.78-5.92c1.91-8,8.21-14.36,15.4-18.35a53,53,0,0,1,5.32-2.56h0a141.18,141.18,0,0,1,17.92-5.51c1.36-.35,2.72-.72,4.08-1.09C152.51,1741,175.51,1731.45,185.13,1711.05Z"/><path class="cls-11" d="M85.84,1793.69c-1.56,5.75-5.48,10.53-8.17,15.86a.42.42,0,0,0-.08.15c-1.66-6.49-4.6-14.61-6.56-20.74s-6-12-12-14.15a166.53,166.53,0,0,0-41.32,12.08c-2.27,1-5,2.06-7.13.79s-2.49-4-1.72-6.27,2.52-3.9,4.19-5.56c8-7.78,16.75-15.95,27.78-17.55.41,0,.79-.1,1.19-.13,8.62-.88,17.12,2.31,25.24,5.46a59.85,59.85,0,0,1,9.85,4.54h0a23,23,0,0,1,4.06,3,17.13,17.13,0,0,1,2.56,3,31.19,31.19,0,0,1,3.25,6.42C86.77,1785,87,1789.48,85.84,1793.69Z"/><path class="cls-12" d="M130.54,1747.19c-1.36.37-2.72.74-4.08,1.09a141.18,141.18,0,0,0-17.92,5.51h0a53,53,0,0,0-5.32,2.56c-7.19,4-13.49,10.36-15.4,18.35a31,31,0,0,0-.78,5.92,31.19,31.19,0,0,0-3.25-6.42c3.72-8.38,1.6-18.3,1.29-27.6,0-1.36,0-2.71,0-4.06,0,0,0,0,0-.08a67.77,67.77,0,0,1,14.49-39.58,138.61,138.61,0,0,1,9.72-10.56l22.59-22.85a6.17,6.17,0,0,1,3.49-2.22c3.5-.34,4.67,4.54,4.49,8.06C138.67,1698.45,137.32,1724.94,130.54,1747.19Z"/><path class="cls-13" d="M83.77,1774.2a17.13,17.13,0,0,0-2.56-3,23,23,0,0,0-4.06-3h0a59.85,59.85,0,0,0-9.85-4.54c-8.12-3.15-16.62-6.34-25.24-5.46-10.66-6-21.53-12.29-29.28-21.76a50.64,50.64,0,0,1-9.18-45.6c.54-1.84,1.3-3.79,2.94-4.79a9,9,0,0,1,4.36-.85c5.48-.06,11-.15,16.29,1.5,8.95,2.85,15.56,10.27,23.36,15.49,6.43,4.34,13.87,7.29,19.33,12.78a47.62,47.62,0,0,1,5,6.4c4.6,6.84,9.82,16.51,10.26,21.12,0,0,0,0,0,.08-.07,1.35-.07,2.7,0,4.06C85.37,1755.9,87.49,1765.82,83.77,1774.2Z"/><path class="cls-14" d="M192,1821.67c-14.12,5.45-30.18,2.58-44.24-3-5.4-2.17-10.81-4.84-14.66-9.21-2.43-2.75-4.16-6.08-6.69-8.74-5.12-5.39-12.56-7.21-20.2-7.69-7.23,2.69-17.44,11.92-17.33,18.45,0,0-2.77,3.06-6.28-.44,1.26-.63,2.22-1.27,2.11-1.65,4.06-14.07,17.48-23.3,30.9-29.14a4.47,4.47,0,0,1,.64-.25s0,0,0,0c12.7-5.46,26.36-9.17,37.64-17h0c7.49.4,14.33,4.81,20.62,9.06,3.13,2.12,6.34,4.32,8.44,7.46,1.78,2.65,2.61,5.81,3.39,8.94A233.22,233.22,0,0,1,192,1821.67Z"/><path class="cls-15" d="M76.38,1769.45a8.59,8.59,0,0,0-1.95-5.67,23.91,23.91,0,0,0-4.35-4.23l-5-3.87c-1.68-1.32-3.32-2.67-5-4q-9.83-8.19-18.87-17.26T24,1715.53a194.93,194.93,0,0,1-15.15-20.66c6.51,5.6,12.63,11.46,18.72,17.35s12.08,11.83,18.05,17.8,11.9,12,17.79,18.07l4.4,4.59c1.47,1.54,2.91,3,4.39,4.69a23.18,23.18,0,0,1,3.73,5.55,11.05,11.05,0,0,1,.9,3.27A7.42,7.42,0,0,1,76.38,1769.45Z"/><path class="cls-15" d="M31.33,1720.06a19.45,19.45,0,0,1-1-6.52,28.38,28.38,0,0,1,.67-6.14,27.64,27.64,0,0,1,2-5.85,19.41,19.41,0,0,1,3.71-5.47,19.22,19.22,0,0,1,1.05,6.52,27.85,27.85,0,0,1-.69,6.14,28.41,28.41,0,0,1-2,5.85A19.73,19.73,0,0,1,31.33,1720.06Z"/><path class="cls-15" d="M46.36,1736.12a34.62,34.62,0,0,1,1-6.51c.49-2,1.06-3.86,1.71-5.71a59.2,59.2,0,0,1,2.23-5.53,33.93,33.93,0,0,1,3.26-5.72,14.63,14.63,0,0,1,1.51,6.72A19.86,19.86,0,0,1,55,1726a20.09,20.09,0,0,1-3.22,5.86A14.75,14.75,0,0,1,46.36,1736.12Z"/><path class="cls-15" d="M57.67,1746.71c1.64-2.49,3.19-4.6,4.61-6.74s2.76-4.19,4-6.3,2.46-4.28,3.64-6.54,2.32-4.62,3.75-7.25a16.45,16.45,0,0,1,.9,8.69,22.81,22.81,0,0,1-8.84,14.8A16.55,16.55,0,0,1,57.67,1746.71Z"/><path class="cls-15" d="M32.11,1719.57a17.24,17.24,0,0,1-5.61,1.3,23.14,23.14,0,0,1-5.21-.21,23.61,23.61,0,0,1-5-1.33,17.08,17.08,0,0,1-5-2.92,14,14,0,0,1,5.52-1.93,19.12,19.12,0,0,1,10.61,1.62A14.17,14.17,0,0,1,32.11,1719.57Z"/><path class="cls-15" d="M46.54,1735.33a12.49,12.49,0,0,1-5.4,4.67,17.34,17.34,0,0,1-13.88.38,12.53,12.53,0,0,1-5.63-4.4c2.49-.27,4.57-.31,6.6-.38l5.85-.15,5.85-.15C42,1735.27,44,1735.2,46.54,1735.33Z"/><path class="cls-15" d="M58.12,1746.81a14.69,14.69,0,0,1-5.1,2.44,19.51,19.51,0,0,1-5.11.68,19.12,19.12,0,0,1-5.11-.66,14.75,14.75,0,0,1-5.11-2.42,14.59,14.59,0,0,1,5.11-2.45,19.42,19.42,0,0,1,5.1-.67,19.91,19.91,0,0,1,5.11.66A14.93,14.93,0,0,1,58.12,1746.81Z"/><path class="cls-15" d="M177.43,1813.47c-4.41-4.79-8.62-9.5-13.05-14-2.21-2.24-4.42-4.39-6.75-6.54l-1.68-1.55c-.6-.55-1.16-1-1.75-1.55-1.15-1-2.3-2-3.49-2.82a23.06,23.06,0,0,0-3.61-2.3c-.63-.32-1.2-.65-1.93-1s-1.32-.55-2-.81a38.83,38.83,0,0,0-8.62-2c-6.05-.78-12.4-.54-18.92-.65a55,55,0,0,1,19.15-4.22,33.77,33.77,0,0,1,10.21,1.26c.84.23,1.68.54,2.49.85s1.6.7,2.41,1.07a28.3,28.3,0,0,1,4.51,2.76,50.3,50.3,0,0,1,3.9,3.27c.6.57,1.21,1.16,1.75,1.71s1.23,1.23,1.75,1.8a81.2,81.2,0,0,1,6.28,7.52A68.55,68.55,0,0,1,177.43,1813.47Z"/><path class="cls-15" d="M146.16,1781.68a19.48,19.48,0,0,1,4.7-4.57,27.55,27.55,0,0,1,5.37-2.94,27,27,0,0,1,5.87-1.71,18.91,18.91,0,0,1,6.56-.08A19.17,19.17,0,0,1,164,1777a27,27,0,0,1-5.37,2.94,27.62,27.62,0,0,1-5.88,1.7A19.34,19.34,0,0,1,146.16,1781.68Z"/><path class="cls-15" d="M158.71,1790.42a17,17,0,0,1,6.49-3.79,23.61,23.61,0,0,1,7.26-1.16,23.31,23.31,0,0,1,7.26,1.11,17,17,0,0,1,6.51,3.76,42.46,42.46,0,0,1-7.13,1.08c-2.26.17-4.44.24-6.63.24s-4.37-.06-6.62-.21A43.26,43.26,0,0,1,158.71,1790.42Z"/><path class="cls-15" d="M133.13,1778.51c.34,1.24.6,2.24.93,3.29l.44,1.53.39,1.52a60.59,60.59,0,0,1,1.19,6,55.93,55.93,0,0,1,.59,6.11l.05,1.56,0,1.59c0,1.11,0,2.14,0,3.43a6.5,6.5,0,0,1-1.58-1,9.46,9.46,0,0,1-1.3-1.31,11.82,11.82,0,0,1-1.06-1.44,13,13,0,0,1-.87-1.53,21.28,21.28,0,0,1-2-6.52,21.76,21.76,0,0,1,.09-6.83,13.21,13.21,0,0,1,.4-1.71,13.63,13.63,0,0,1,.6-1.69,9.48,9.48,0,0,1,.88-1.62A6,6,0,0,1,133.13,1778.51Z"/><path class="cls-15" d="M157.78,1788.5l.18.75a5.43,5.43,0,0,0,.16.67c.15.44.22.82.37,1.22l.7,2.24a39.58,39.58,0,0,1,1.06,4.33,34.14,34.14,0,0,1,.57,4.5c.11,1.59.08,3.16.05,5.24a8.46,8.46,0,0,1-4.61-3.52,13.16,13.16,0,0,1-2.1-5.08,12.82,12.82,0,0,1,.18-5.57,9.27,9.27,0,0,1,1.18-2.71A5.51,5.51,0,0,1,157.78,1788.5Z"/><path class="cls-15" d="M107.9,1754.19a177.89,177.89,0,0,1,4.68-18c1.78-5.87,3.68-11.68,5.64-17.46s4-11.51,6-17.26,4.16-11.47,6.15-17.4a32.4,32.4,0,0,1,.18,4.72c0,1.57-.13,3.13-.27,4.69-.29,3.12-.77,6.21-1.35,9.27a138.26,138.26,0,0,1-4.87,18,161.42,161.42,0,0,1-7,17.21A121,121,0,0,1,107.9,1754.19Z"/><path class="cls-15" d="M110.77,1747.29a10,10,0,0,1-4.34-1.11,11.11,11.11,0,0,1-3.06-2.31,10.88,10.88,0,0,1-2.08-3.22,10,10,0,0,1-.77-4.42,9.84,9.84,0,0,1,4.35,1.11,10.87,10.87,0,0,1,3,2.31,11.24,11.24,0,0,1,2.07,3.23A10,10,0,0,1,110.77,1747.29Z"/><path class="cls-15" d="M122.31,1717.63a10,10,0,0,1-3.89-2.24,10.92,10.92,0,0,1-2.33-3,10.75,10.75,0,0,1-1.14-3.65,9.8,9.8,0,0,1,.43-4.47,9.82,9.82,0,0,1,3.89,2.23,10.87,10.87,0,0,1,2.33,3,11.17,11.17,0,0,1,1.13,3.66A9.93,9.93,0,0,1,122.31,1717.63Z"/><path class="cls-15" d="M115.63,1736.09a14.77,14.77,0,0,1-5-3.15,19.8,19.8,0,0,1-3.5-4.31,18.41,18.41,0,0,1-2.15-5.2,13.72,13.72,0,0,1-.38-3,7.41,7.41,0,0,1,.59-3.15l2.23,2c.68.63,1.31,1.26,1.9,1.92a26.43,26.43,0,0,1,3.12,4.22,24,24,0,0,1,2.25,4.84A17.66,17.66,0,0,1,115.63,1736.09Z"/><path class="cls-16" d="M-10.38,1741.66s-7.59-90.28,7.78-90.43.1,26.39,11,28.42-7.34-65,7.36-74.15,3.25,17.33,11,18.5.12-69.3,24.32-65.63,18.63,40.46-10.5,69.21c0,0,12.11-8.06,15.1-1.66s-8.56,36.82-30.74,55.74,13.92-.36,14.14,14.52S-10.38,1741.66-10.38,1741.66Z"/><path class="cls-17" d="M-20.4,1753.64s22.84-26.36,35.57-78.16,31.34-67.3,36.89-94.6c0,0,0,12.92-9.16,29-13.14,23-21.89,49.67-26.25,70C11.11,1705.83-5.36,1758.49-20.4,1753.64Z"/><path class="cls-18" d="M-15.22,1809.91s14.2-33.49,16.39-58.85,2.76-51,12.82-35.36c0,0,1.45-39.63,11.91-42.59s5.83,9.53,9.39,10.07,11.27-53.32,33.67-48.1-6.3,44.52-19.41,53,13.15-5.74,15.73,4.21-25,32.59-36.23,35,10.39-2.51,10.71,4.36-3,12.64-23.37,29.15S-15.22,1809.91-15.22,1809.91Z"/><path class="cls-19" d="M-9.34,1794s-4.54-20.79,23.37-56.19,27.87-46.21,40.09-76.9a266,266,0,0,0-10.78,24.35c-7.72,21-21.74,40.4-33,53.88C-4.09,1756.3-20.39,1786.51-9.34,1794Z"/><path class="cls-20" d="M-15.22,1809.91s1.89-40.2-14.73-62.76-7.42-28.83,1.05-26.37-18-13.34-19.25-32.39,9.45-15.66,15.84-11.15-5.15-24.36-8.66-42-7.79-56,19.58-57.15c12-.48,34.3,7,12.92,78s-2.88-.44,10.59,4S-9,1710.24-5.66,1711.34s6.59-10.3,13.33-6.23S-2.95,1797.57-15.22,1809.91Z"/><path class="cls-16" d="M196.15,1782.88s17.75-74.29,5-76.36-3.42,22-12.8,22.29,14.34-53.24,3.25-62.74-4.9,14-11.51,14,8.67-57.79-12-57.79-20.65,31.37,0,59c0,0-9.08-8.25-12.38-3.3s2.48,31.78,18.58,50.36-11.56-2.06-13.63,10.32S196.15,1782.88,196.15,1782.88Z"/><path class="cls-17" d="M203,1794.14s-15.7-24.86-19.76-69.65-17.61-60.07-18.79-83.53c0,0-1.67,10.76,4,25.36,8,20.84,12,44.17,13,61.69C182.78,1750.3,189.84,1796.28,203,1794.14Z"/><path class="cls-18" d="M191.56,1840.39s-7.6-29.71-6.22-51.13,4.15-42.84-6.22-31.09c0,0,3.8-33.22-4.54-37s-6.06,7.2-9.09,7.2-2.66-45.87-22-44.36-.38,37.91,9.48,46.63-10.24-6.44-13.65,1.52,16.68,30.33,25.78,33.74-8.34-3.41-9.48,2.28.91,10.92,15.8,27.25S191.56,1840.39,191.56,1840.39Z"/><path class="cls-19" d="M188.66,1826.4s6.42-16.76-12.37-49.8-17.39-42-23.69-69.18c0,0,3.87,11.69,5.91,21.67,3.78,18.5,13,36.42,20.73,49.09C189.06,1794.3,198.82,1821.54,188.66,1826.4Z"/><path class="cls-20" d="M191.56,1840.39s3.51-33.75,20.22-50.45,9.82-23.1,2.45-22.11,16.71-8.85,20.15-24.57-5.9-14.25-11.79-11.3,7.37-19.66,12.53-33.91,13.58-45.73-9.09-50.11c-9.94-1.92-29.49,1.47-20.64,63.38s2.46,0-9.34,2,2.95,43.24,0,43.73-4.18-9.42-10.32-6.88S182.89,1828.56,191.56,1840.39Z"/><path class="cls-19" d="M191.56,1840.39s-3.2-29.23,12.81-71.26,12.75-52.3,15.22-85.16c0,0-2.42,14.36-3,26.4-1.08,22.31-8.64,44.94-15.38,61.14C192.64,1792.13,178.8,1836.55,191.56,1840.39Z"/></g></svg>