<svg id="Layer_1" data-name="Layer 1" xmlns="http://www.w3.org/2000/svg" viewBox="0 0 750 5342"><defs><style>.cls-1{fill:none;}.cls-2{fill:#ebc081;}.cls-3{fill:#a16c44;}</style></defs><title>mobi14-01_2</title><rect class="cls-1" x="-0.18" y="1886.04" width="254.38" height="386.04"/><path class="cls-2" d="M-171.62,1974.53c12.54-4,227.56,55.09,240.7,54.16s27,1.63,37.43,9.7c13.62,10.55,19.08,28.26,28.46,42.72a87.17,87.17,0,0,0,38.58,32.47c9.49,4.05,19.62,6.38,29.25,10.09s19,9.1,24.84,17.64,7,20.77.73,29c-4.71,6.14-12.68,9-20.4,9.53s-15.41-.9-23.1-1.73a150.62,150.62,0,0,0-79.81,13.33c-11.86,5.58-23,12.71-35,17.79s-228,105.46-241.11,105.46Z"/><path class="cls-3" d="M17.69,2200.32c3.48,0,3.48-5.4,0-5.4S14.21,2200.32,17.69,2200.32Z"/><path class="cls-3" d="M68.65,2189.2c3.48,0,3.48-5.4,0-5.4S65.17,2189.2,68.65,2189.2Z"/><path class="cls-3" d="M26,2154.92c3.48,0,3.48-5.4,0-5.4S22.52,2154.92,26,2154.92Z"/><path class="cls-3" d="M28.81,2094.7c3.48,0,3.48-5.4,0-5.4S25.33,2094.7,28.81,2094.7Z"/><path class="cls-3" d="M95.52,2165.11c3.47,0,3.48-5.4,0-5.4S92,2165.11,95.52,2165.11Z"/><path class="cls-3" d="M52.9,2167.89c3.48,0,3.48-5.4,0-5.4S49.42,2167.89,52.9,2167.89Z"/><path class="cls-3" d="M42.71,2209.59c3.47,0,3.48-5.41,0-5.41S39.23,2209.59,42.71,2209.59Z"/><path class="cls-3" d="M.09,2230.89c3.47,0,3.48-5.4,0-5.4S-3.39,2230.89.09,2230.89Z"/></svg>