<svg id="Layer_1" data-name="Layer 1" xmlns="http://www.w3.org/2000/svg" viewBox="0 0 750 5342"><defs><style>.cls-1{fill:#ebc081;}.cls-2{fill:#bf7c40;}.cls-3{fill:#a16c44;}.cls-4{fill:#77a275;}.cls-5{fill:#537d41;}.cls-6{fill:#fbd2c0;}.cls-7{fill:#f8b517;}</style></defs><title>mobi10</title><path class="cls-1" d="M750,3490.16c-11,3.57-21.53,7-33.08,7.76s-23.72-1.43-32.88-8.52c-12-9.27-16.76-24.83-25-37.53a76.6,76.6,0,0,0-33.9-28.53c-8.34-3.56-17.24-5.6-25.7-8.86s-16.74-8-21.83-15.5-6.16-18.26-.64-25.44c4.14-5.39,11.15-7.89,17.93-8.37s13.54.78,20.3,1.52A132.21,132.21,0,0,0,685.32,3355c10.42-4.9,20.19-11.16,30.8-15.63s22.39-5,33.9-5Z"/><path class="cls-2" d="M664.63,3404.18a28.4,28.4,0,0,0,20,16.59c6.69,1.37,13.6.26,20.33-.89,3.41-3.42,8.2-5,12.82-6.53a33.75,33.75,0,0,1,5.39-1.44l.15,0,.32,0h0a12.58,12.58,0,0,1,2.81-.12h0a1,1,0,0,0,.86-1.48c-1.9-2.74-5.48-7.8-7.89-10.57-.5-.58-1-1.16-1.43-1.77l0,0c-1.81-1.85-7.48-4.21-11.89-5.56a25,25,0,0,0-4.4-1c-4.29-.46-8.54.88-12.85,1.26-5.21.49-10.68-.4-15.55,1.52a29.29,29.29,0,0,0-7.57,5.1,4.9,4.9,0,0,0-1.57,1.91A4.44,4.44,0,0,0,664.63,3404.18Z"/><path class="cls-3" d="M668.33,3404.09c4.6,1.19,9.25,2.14,13.93,2.93l2,.34,1.72.26,3.3.48q3.53.46,7.07.85l1.91.18.48,0c1.56.14,3.13.28,4.69.39l3.28.21.86,0,3,.14c1.19,0,2.37.09,3.56.11s2.38,0,3.53.06a13.11,13.11,0,0,1,3.43.51,5.2,5.2,0,0,1,2.16,1.26l.15,0a5.58,5.58,0,0,0-.61-.69,6.16,6.16,0,0,0-1.54-1,12.39,12.39,0,0,0-3.52-.89c-2.38-.25-4.71-.45-7.08-.66l-2.38-.23-.42,0-4.25-.4-4.31-.42-.63-.06-2.11-.24c-2.34-.22-4.7-.49-7-.75l-2.73-.31-.63-.07-3.68-.42C677.74,3405.18,673.05,3404.6,668.33,3404.09Z"/><path class="cls-3" d="M686.93,3407.1a18.67,18.67,0,0,0-1-3.37,32.75,32.75,0,0,0-1.37-3.16c-.52-1-1.08-2-1.7-3a18.74,18.74,0,0,0-2.13-2.79,19.26,19.26,0,0,0,1,3.37,33.23,33.23,0,0,0,3.08,6.16,19.85,19.85,0,0,0,2.12,2.78Z"/><path class="cls-3" d="M699.09,3408.77a11.59,11.59,0,0,0,.12-3.62,15.87,15.87,0,0,0-2.44-6.78,11.73,11.73,0,0,0-2.4-2.72c.39,1.16.83,2.24,1.24,3.32s.82,2.14,1.2,3.21.76,2.15,1.12,3.24.72,2.21,1.16,3.35Z"/><path class="cls-3" d="M707.71,3409.38a12,12,0,0,0,1.61-4.37,15.24,15.24,0,0,0,0-4.72,15.46,15.46,0,0,0-1.4-4.51,12.11,12.11,0,0,0-2.81-3.72,41,41,0,0,1,1.59,4.21,27.86,27.86,0,0,1,1,4.26,28.78,28.78,0,0,1,.3,4.36,38.66,38.66,0,0,1-.31,4.49Z"/><path class="cls-3" d="M687.1,3406.61a12.31,12.31,0,0,0-2.92.77,19.43,19.43,0,0,0-2.67,1.31,17.73,17.73,0,0,0-2.43,1.71,12.14,12.14,0,0,0-2.09,2.2,17.69,17.69,0,0,0,2.8-1.09c.88-.42,1.73-.88,2.57-1.38s1.64-1,2.44-1.59a18.68,18.68,0,0,0,2.3-1.93Z"/><path class="cls-3" d="M698.89,3408.36c-.78,1-1.51,1.89-2.3,2.75a29,29,0,0,1-2.45,2.39,31.15,31.15,0,0,1-2.73,2.08c-1,.65-2,1.24-3,1.86a8.9,8.9,0,0,0,3.66-.7,11.74,11.74,0,0,0,5.62-4.86,9.06,9.06,0,0,0,1.25-3.52Z"/><path class="cls-3" d="M707.94,3409.27a13.06,13.06,0,0,0-2.62,1.3,21.11,21.11,0,0,0-2.31,1.66,21.35,21.35,0,0,0-2.09,1.95,13.48,13.48,0,0,0-1.79,2.32,13.91,13.91,0,0,0,2.62-1.3,22.63,22.63,0,0,0,2.31-1.67,21.35,21.35,0,0,0,2.09-2,13.8,13.8,0,0,0,1.79-2.31Z"/><path class="cls-4" d="M690,3469.67a25.1,25.1,0,0,1,11.2-20.11c5.08-3.28,11.13-4.58,17-5.79,3.92,1.73,8.38,1.52,12.67,1.27a29.88,29.88,0,0,0,4.91-.55l.13,0,.28-.06h0a11.46,11.46,0,0,0,2.35-.81,8.32,8.32,0,0,0,1.66-1c.48,4.52-2,8.87-3.57,13.21-.22.64-.43,1.27-.6,1.92l0,0c-.9,2.11-4.82,5.87-8,8.4a23.14,23.14,0,0,1-3.29,2.26c-3.4,1.76-7.34,2-11,3.08-4.45,1.27-8.67,3.77-13.31,3.74a25.67,25.67,0,0,1-7.87-1.77,4.35,4.35,0,0,1-1.91-1.07A4,4,0,0,1,690,3469.67Z"/><path class="cls-5" d="M693.05,3468.56c3.41-2.46,6.94-4.73,10.54-6.88.51-.32,1-.62,1.55-.93s.89-.51,1.34-.76c.85-.5,1.71-1,2.56-1.46q2.76-1.52,5.55-3l1.52-.77.38-.18c1.24-.62,2.49-1.24,3.74-1.84l2.64-1.23.69-.31c.8-.36,1.6-.72,2.4-1.06,1-.41,1.92-.84,2.89-1.23s2-.79,2.9-1.19a12.06,12.06,0,0,0,2.66-1.52,4.63,4.63,0,0,0,1.38-1.74l.13,0a4.35,4.35,0,0,1-.28.76,5.52,5.52,0,0,1-1,1.31,11.26,11.26,0,0,1-2.61,1.85c-1.89,1-3.75,1.88-5.63,2.82l-1.89.95-.34.17-3.37,1.7-3.41,1.73-.5.25-1.67.87c-1.86.94-3.71,1.92-5.56,2.88l-2.15,1.14-.5.26-2.9,1.52C700.46,3464.64,696.77,3466.63,693.05,3468.56Z"/><path class="cls-5" d="M707.42,3460.11a18,18,0,0,1,.29,3.09,30.88,30.88,0,0,1-.56,6.06,17,17,0,0,1-.86,3,17.09,17.09,0,0,1-.3-3.08,29.73,29.73,0,0,1,.57-6.06,17.08,17.08,0,0,1,.86-3Z"/><path class="cls-5" d="M716.9,3454.83a10.39,10.39,0,0,1,1.26,3,14.18,14.18,0,0,1,.45,3.18,13.68,13.68,0,0,1-.28,3.19,10.2,10.2,0,0,1-1.11,3c-.05-1.08,0-2.11,0-3.13s0-2,0-3-.07-2-.12-3-.11-2.05-.12-3.13Z"/><path class="cls-5" d="M723.81,3451.56a10.34,10.34,0,0,1,2.73,3.08,13.42,13.42,0,0,1,1.85,8.05,10.53,10.53,0,0,1-1.12,4,35.24,35.24,0,0,0,0-4,25.11,25.11,0,0,0-1.72-7.51,32.48,32.48,0,0,0-1.7-3.6Z"/><path class="cls-5" d="M707.71,3460.46a10.94,10.94,0,0,1-2.65.3,16.6,16.6,0,0,1-5.18-.85,10.66,10.66,0,0,1-2.42-1.14,15.63,15.63,0,0,1,2.65,0c.86.06,1.71.17,2.56.31s1.69.31,2.53.53a15.47,15.47,0,0,1,2.51.85Z"/><path class="cls-5" d="M716.87,3455.23c-1-.55-1.86-1.07-2.78-1.52a24.35,24.35,0,0,0-2.79-1.19,28,28,0,0,0-2.92-.84c-1-.22-2-.38-3.11-.56a8,8,0,0,1,3.24-.59,10.45,10.45,0,0,1,6.2,2.2,8.09,8.09,0,0,1,2.16,2.5Z"/><path class="cls-5" d="M724,3451.58a12.05,12.05,0,0,1-2.57-.23,20,20,0,0,1-2.45-.63,18.87,18.87,0,0,1-2.35-.94,1.32,1.32,0,1,1,.36-1.1,20.47,20.47,0,0,1,2.45.63,18.74,18.74,0,0,1,2.34.94,12.08,12.08,0,0,1,2.22,1.33Z"/><path class="cls-6" d="M670.28,3372.65c2.21-1.13,4.57-2.41,5.64-4.65.87-1.83.7-4,.52-6q-1.17-12.69-2.33-25.37c-.72-7.89-2.82-51.23-14.59-51.22-9.7,0-8.86,25.64-7.14,31.64,2.9,10.11,9.19,18.56,10.7,29.2.89,6.31,1.37,15.59-1.89,21.28-2.09,3.66-7,5.93-10.44,8.87a2.86,2.86,0,0,0,3.12,4.74C659.4,3378.46,664.83,3375.44,670.28,3372.65Z"/><path class="cls-6" d="M687.88,3369.69a3.91,3.91,0,0,0,4,5c2.68-.19,5.16-.83,6.72-3,2.41-3.36,4.2-7.2,7.17-10.07,1.68-1.62,3.78-3,4.6-5.19a10.8,10.8,0,0,0,.29-4.74c-1.51-17.28-.59-37.39-6.55-53.82-3.5-9.65-9.37-18.74-12.08-4.87-2.24,11.46.63,24.68,2.52,36,1.56,9.33,6.95,15.82,3.49,24.71C695.52,3360.24,689.61,3363.87,687.88,3369.69Z"/><path class="cls-7" d="M706.39,3148.56l-.16.32a1,1,0,0,0-.11-.29Z"/><path class="cls-6" d="M708.21,3120.81l-.13,1.48,0,.09c-.19,1.19-.55,2.46-.84,3.59l0,.09a67.28,67.28,0,0,1-3.61,9.77c-.16.32-.3.64-.46,1-1.18,2.59-2.28,5.42-1.15,7.95a7.15,7.15,0,0,0,3.66,3.37,1.17,1.17,0,0,1,.49.47,1,1,0,0,1,.11.29l-.92,1.89-1.9,3.89a38.16,38.16,0,0,1-12.49,12.05l-.9.52c-2.4,1.34-5,2.47-7.51,3.62l-1,.44-.87.4-.74.35c-.74.34-1.48.7-2.2,1.06l-.71.37-1,.55c-.25.13-.49.26-.72.4l-.13.08-.92.56-.68.43-.38.26-.38.27-.12.09c-.22.15-.43.31-.64.48s-.4.3-.6.47-.28.22-.41.34-.38.32-.56.49l-.14.14a5.23,5.23,0,0,0-.42.39c-.19.18-.37.37-.54.55l-.24.26-.37.41a31.32,31.32,0,0,0-5.35,9.83l-7,45.26-2.89,18.68c-.29,1.19-.6,2.37-1,3.55-3.94-7.05-4.43-15.84-3.38-24,1.21-9.35,4.18-18.43,5.14-27.8,1.19-11.58-.7-23.47,2.06-34.77,2.14-8.75,8.52-18.43,16.64-21.56,2.37-.92,7.48-.89,7.48-.89h0c2.1-.86,5-1.82,5.25-2.92a11,11,0,0,0,.32-3.51c-.4-2.13-7.58-3.33-8.67-5.21a12.23,12.23,0,0,1-1.19-6.23,74.47,74.47,0,0,1,.83-11,.71.71,0,0,1,0-.2l2-5.92,0-.08c1.2-2.83,2.56-6.1,4.81-8.18a15.84,15.84,0,0,1,7-3.49,16,16,0,0,1,5.1-.61,12.73,12.73,0,0,1,10.85,8.78,20.84,20.84,0,0,1,.8,3.73A33.88,33.88,0,0,1,708.21,3120.81Z"/><path class="cls-6" d="M706.08,3149.72a10.12,10.12,0,0,1-.77,1.05l.92-1.89A1.1,1.1,0,0,1,706.08,3149.72Z"/><path class="cls-7" d="M743.08,3251.76c-3.79,10.09-13,17.06-23.41,20.44q.29,33.42.55,66.85c0,3.5-.15,7.48-2.8,9.78-1.71,1.47-4.08,1.88-6.33,2.11a62.18,62.18,0,0,1-24.66-2.48c-5.33-1.65-10.64-4.05-16.21-3.68-8.47.56-15.52,7.42-24,8.13a2.62,2.62,0,0,1-2-.41,2.86,2.86,0,0,1-.61-2.37q1.5-33.37,5.2-66.6l4.66-30.12,2.89-18.68,7-45.26a31.32,31.32,0,0,1,5.35-9.83l.37-.41.24-.26c.17-.18.35-.37.54-.55a5.23,5.23,0,0,1,.42-.39l.14-.14.56-.49c.13-.12.27-.23.41-.34s.39-.32.6-.47.42-.33.64-.48l.12-.09.38-.27.38-.26.68-.43.92-.56.13-.08c.23-.14.47-.27.72-.4l1-.55.71-.37c.72-.36,1.46-.72,2.2-1.06l.74-.35.87-.4,1-.44c2.54-1.15,5.11-2.28,7.51-3.62l.9-.52a38.16,38.16,0,0,0,12.49-12.05l1.9-3.89.92-1.89.16-.32.26,0c1.35-.14,2.71-.24,4.06-.29,2.58-.45,5.41-.93,7.65.4a9.47,9.47,0,0,1,3.39,4.35,54.85,54.85,0,0,1,4.45,16.81q9,24.12,15.53,49C744.56,3229.65,747,3241.31,743.08,3251.76Z"/></svg>