<svg id="Layer_1" data-name="Layer 1" xmlns="http://www.w3.org/2000/svg" viewBox="0 0 750 5342"><defs><style>.cls-1{fill:#bbd38d;}.cls-2{fill:#98c39d;}.cls-3{fill:#414841;}.cls-4{fill:#658269;}.cls-12,.cls-13,.cls-16,.cls-21,.cls-23,.cls-27,.cls-28,.cls-29,.cls-30,.cls-32,.cls-5,.cls-6{fill:none;}.cls-26,.cls-27,.cls-28,.cls-30,.cls-31,.cls-5,.cls-6{stroke:#4c3f31;}.cls-10,.cls-11,.cls-12,.cls-13,.cls-14,.cls-16,.cls-21,.cls-22,.cls-23,.cls-26,.cls-27,.cls-28,.cls-30,.cls-31,.cls-32,.cls-5,.cls-6,.cls-9{stroke-miterlimit:10;}.cls-10,.cls-21,.cls-5{stroke-width:1.02px;}.cls-13,.cls-6{stroke-width:1.27px;}.cls-7{fill:#f4b746;}.cls-14,.cls-8{fill:#765940;}.cls-10,.cls-11,.cls-20,.cls-9{fill:#4c3f31;}.cls-10,.cls-11,.cls-12,.cls-13,.cls-21,.cls-22,.cls-9{stroke:#c1bea4;}.cls-9{stroke-width:2.04px;}.cls-11,.cls-12,.cls-26,.cls-27{stroke-width:0.51px;}.cls-14{stroke:#765940;stroke-width:0.13px;}.cls-15{fill:#a06b43;}.cls-16{stroke:#a06b43;}.cls-16,.cls-22{stroke-width:1.53px;}.cls-17,.cls-26{fill:#c1bea4;}.cls-18{fill:#478970;}.cls-19{fill:#5d867d;}.cls-22,.cls-25{fill:#e9eee0;}.cls-23{stroke:#be7b40;}.cls-23,.cls-28,.cls-32{stroke-width:0.25px;}.cls-24{fill:#be7b40;}.cls-30,.cls-31{stroke-width:0.19px;}.cls-31{fill:#2c573c;}.cls-32{stroke:#496b63;}.cls-33{fill:#bf7c40;}.cls-34{fill:#a16c44;}.cls-35{fill:#b5be6e;}.cls-36{fill:#36684d;}.cls-37{fill:#b9bc6e;}.cls-38{fill:#e2dd8a;}.cls-39{fill:#5a9055;}.cls-40{fill:#618257;}.cls-41{fill:#ebe261;}.cls-42{fill:#f7f0b1;}.cls-43{fill:#bcd38c;}.cls-44{fill:#ddda91;}.cls-45{fill:#77a275;}.cls-46{fill:#faefd8;}.cls-47{fill:#64a2a1;}.cls-48{fill:#c7d17b;}.cls-49{fill:#406f72;}.cls-50{fill:#93c2b4;}.cls-51{fill:#66846a;}.cls-52{fill:#fff;}</style></defs><title>mobi3</title><path class="cls-1" d="M0,1022.6s99.17-3.51,247.15,50,321.34-10.94,411.93,18.74-311.58,89.8-311.58,89.8L0,1164.8Z"/><path class="cls-2" d="M749.67,1005.41c0,1.06-83.33-16.55-226.85,43.74-48.15,20.23-99.09,31-149.49,43.86-22.45,5.74-45.18,10.7-66.9,18.93-15,5.7-27.24,12.9-40,22.45-6.9,5.17-17.19,9.21-21.66,16.86-12.52,21.42,4.9,56.31,19.88,71.68,20.85,21.38,51.13,31.39,80.9,33.74s59.6-2.16,89.24-5.85c103.29-12.87,211-11.34,314.86-4.16V1005.41Z"/><path class="cls-3" d="M682,1161.2h4.28s-.36-15.34,2.85-18.55a15.58,15.58,0,0,0-4.28,7.49s-.71-8.56-.36-10.34a17.27,17.27,0,0,0-1.78,10s-1.07-5.7-4.64-6.77C678.06,1143,682.34,1148,682,1161.2Z"/><path class="cls-4" d="M729.27,1125.68l5.7.36s-1.06-12.13,1.43-15.34a19.28,19.28,0,0,0-2.14,4.64s-.71-6.42,1.78-8.92c0,0-2.13,1.78-3.56,7.49,0,0-1.07-7.85-.71-10a26,26,0,0,0-1.07,9.63s-1.79-5.35-4.28-7.49c0,0,2.49,6.07,2.49,9.28,0,0-1.78-3.21-3.21-3.93,0,0,3.21,4.64,3.57,7.85A32.89,32.89,0,0,1,729.27,1125.68Z"/><line class="cls-5" x1="420.84" y1="1072.81" x2="420.84" y2="1059.57"/><line class="cls-6" x1="434.97" y1="1064.66" x2="434.97" y2="1051.93"/><line class="cls-6" x1="449.61" y1="1043.78" x2="449.61" y2="1057.02"/><line class="cls-6" x1="453.68" y1="1040.98" x2="416.25" y2="1062.88"/><path class="cls-7" d="M393.59,1088.06h-4.22l13.9-9.4c5.42-.66,11.45-9.42,18.84-13.49,15.44-8.52,34-16,38.44-18.33,22-11.52,121.56-13.27,139.12,9.14,8.57,10.92,10.45,19,10.13,24.41a1.55,1.55,0,0,1-3.1-.11v-1.36Z"/><path class="cls-8" d="M449.61,1086.56l21.61-18.06a110.45,110.45,0,0,1,18.5-11.45l15.65-7.67c3.12-3-5.61.75-5.58.56.06-.37,0-.73-.33-.79l-13.19-2.31c1.19-.61,13.17,2.54,14.5,2.54h37.85a8.43,8.43,0,0,1,7.75,11.75h0a8.41,8.41,0,0,1-4.21,4.34c-7.83,3.62,42.13,18.54-31.19,17.52Z"/><polygon class="cls-9" points="713.38 1051.16 713.38 1087.83 579.2 1087.83 579.2 1049.64 713.38 1049.64 713.38 1051.16"/><polygon class="cls-9" points="579.2 1049.64 579.2 1087.83 534.9 1082.48 534.9 1049.64 579.2 1049.64"/><path class="cls-8" d="M695.73,1057.6c.1,0,.19-.17.22-.38.17-1.08.56-4.35-.9-4.36-1.75,0-2,.32-2.73,0-1.86-.91-3.91,4.66-2.22,4.67C692.62,1057.54,695.09,1057.78,695.73,1057.6Z"/><path class="cls-8" d="M611.87,1063.69c0,.09.14.18.33.23.95.25,3.83.9,4-.32.17-1.46-.09-1.74.27-2.28,1-1.46-3.81-3.74-4-2.32C612.22,1061.1,611.78,1063.14,611.87,1063.69Z"/><path class="cls-8" d="M688.45,1058.75c1.25.12,4.16.68,4.67,1.83,1.28,2.93-3.92,3.87-4.89,3.87-2.6,0-2.91-2.94-3.56-2.13s-1.76-4.88.68-5.51C686.83,1056.42,687,1058.61,688.45,1058.75Z"/><path class="cls-8" d="M692.75,1060.51c.07,0,.14-.19.16-.42.12-1.18,3.63-6.7,2.57-6.7-1.27,0-4.7,2.29-5.19,1.93-1.34-1-1.15,6.47.08,6.47C692.19,1061.8,692.28,1060.7,692.75,1060.51Z"/><path class="cls-8" d="M626.56,1057.08a.13.13,0,0,0,.11-.1c.08-.29,2.48-1.63,1.75-1.63s-3.23.55-3.57.46c-.92-.25-.77,1.58.08,1.58A3.35,3.35,0,0,0,626.56,1057.08Z"/><path class="cls-8" d="M667.3,1062.78a0,0,0,0,0,.05,0c0-.08,1-.32.74-.37s-1.25,0-1.38-.08c-.34-.13-.36.41,0,.47A2,2,0,0,0,667.3,1062.78Z"/><path class="cls-8" d="M654.41,1056.32c.61.5,2,1.75,2,2.24.07,1.26-2.74-.44-3.23-.8-1.31-1-.9-1.88-1.38-1.91s.06-2,1.41-1.21C654.05,1055.09,653.71,1055.74,654.41,1056.32Z"/><path class="cls-8" d="M630.87,1057.9c.61-.49,2.11-1.58,2.6-1.5,1.25.18-1,2.58-1.45,3-1.22,1.08-2,.5-2.14,1s-1.91-.46-.9-1.64C629.59,1058,630.15,1058.47,630.87,1057.9Z"/><path class="cls-8" d="M619.17,1056.05c.61-.49,2.11-1.57,2.6-1.5,1.25.18-1,2.59-1.44,3-1.23,1.09-2,.5-2.15,1s-1.9-.46-.9-1.63C617.89,1056.16,618.46,1056.63,619.17,1056.05Z"/><path class="cls-8" d="M674.74,1055.46s.62,1.72-.65,1.72-1,.32-1.34.73-1.57-3.53-.38-3.85S674.74,1055.46,674.74,1055.46Z"/><path class="cls-8" d="M666.84,1057.93a1.56,1.56,0,0,1-.86,2.22c-.45.12-2.06.23-2.46-.43-1-1.79.13-2.64-1.52-2.57-.78,0,2.72-3.71,4.12-2.29C667,1055.73,666.33,1056.89,666.84,1057.93Z"/><path class="cls-8" d="M650.77,1061.36s.37,1.15-.38,1.15-.61.21-.8.48-.93-2.35-.22-2.56S650.77,1061.36,650.77,1061.36Z"/><path class="cls-8" d="M636.73,1059l0,0c0-.06.8-.26.58-.29s-1,0-1.08-.07c-.27-.1-.29.33,0,.37A1.49,1.49,0,0,0,636.73,1059Z"/><path class="cls-8" d="M625.31,1063.87c.48-.39,1.65-1.24,2-1.18,1,.14-.77,2-1.13,2.34-1,.85-1.58.39-1.68.76s-1.5-.36-.71-1.28C624.31,1064,624.75,1064.31,625.31,1063.87Z"/><path class="cls-8" d="M616.15,1062.42c.48-.39,1.65-1.24,2-1.18,1,.14-.77,2-1.13,2.35-1,.84-1.58.38-1.68.75s-1.5-.35-.71-1.28C615.15,1062.5,615.59,1062.87,616.15,1062.42Z"/><path class="cls-8" d="M656.87,1063.48s.49,1.35-.5,1.35-.81.25-1.06.57-1.22-2.77-.29-3S656.87,1063.48,656.87,1063.48Z"/><path class="cls-8" d="M628,1060.92c.79-.59,2.79-1.78,3.68-1.37,2.28,1-.26,4.3-.83,4.81-1.52,1.35-3.23-.2-3.19.61s-3.57-1.92-2.48-3.57C625.83,1060.41,627.08,1061.6,628,1060.92Z"/><path class="cls-8" d="M643.05,1055.23a1.21,1.21,0,0,1-.68,1.74c-.34.1-1.61.18-1.92-.34-.83-1.4.1-2.06-1.19-2-.61,0,2.13-2.91,3.23-1.79C643.16,1053.51,642.65,1054.41,643.05,1055.23Z"/><path class="cls-8" d="M644.66,1075c1.25.12,4.16.69,4.66,1.84,1.29,2.92-3.91,3.87-4.88,3.86-2.6,0-2.91-2.93-3.56-2.13s-1.76-4.87.68-5.51C643,1072.72,643.21,1074.91,644.66,1075Z"/><path class="cls-8" d="M668.34,1069.7c1.25.11,4.16.68,4.66,1.83,1.28,2.93-3.91,3.87-4.89,3.86-2.59,0-2.9-2.93-3.55-2.12s-1.76-4.88.68-5.52C666.72,1067.37,666.89,1069.56,668.34,1069.7Z"/><path class="cls-8" d="M632.39,1083c.07-.7,1.47-1.34,3-1.31.74,0,3.16.28,3.21.82.14,1.43-2.23,1.75.2,2,1.16.15-6.83,1.92-7.76.66C630.46,1084.49,632.31,1083.85,632.39,1083Z"/><path class="cls-8" d="M698.4,1067.93s2,1.89-2,1.87-3.26.34-4.27.78-5-3.88-1.22-4.22A15.83,15.83,0,0,1,698.4,1067.93Z"/><path class="cls-8" d="M635.65,1082.19s1.46,2.33-1.48,2.32-2.4.43-3.14,1-3.65-4.79-.89-5.22S635.65,1082.19,635.65,1082.19Z"/><path class="cls-8" d="M647.92,1083.74c.05,0,.1-.13.11-.28.08-.77,2.39-4.41,1.7-4.42-.84,0-3.1,1.51-3.43,1.28-.88-.65-.75,4.26.06,4.27C647.56,1084.59,647.62,1083.86,647.92,1083.74Z"/><path class="cls-8" d="M631.27,1083.9s.08-.05.09-.11c.07-.32,2.07-1.81,1.46-1.81s-2.68.61-3,.51c-.76-.27-.64,1.75.06,1.76A2.31,2.31,0,0,0,631.27,1083.9Z"/><path class="cls-8" d="M652.4,1066.15l.05,0c0-.08,1-.33.74-.37s-1.26,0-1.38-.09c-.34-.12-.37.42,0,.47A1.76,1.76,0,0,0,652.4,1066.15Z"/><path class="cls-8" d="M709.74,1086.46c.13,0,.23-.24.25-.5.12-1.35.34-5.43-1.47-5.32-2.16.13-2.51.55-3.38.2-2.37-1-4.47,6.09-2.37,6C705.89,1086.62,709,1086.72,709.74,1086.46Z"/><path class="cls-8" d="M712.16,1059.17c0-.14-.22-.24-.48-.28-1.34-.18-5.41-.6-5.39,1.21,0,2.17.43,2.54,0,3.39-1.09,2.32,5.87,4.76,5.84,2.65C712.14,1063,712.39,1060,712.16,1059.17Z"/><path class="cls-8" d="M656.92,1069c.62-.49,2.11-1.58,2.6-1.5,1.26.18-1,2.58-1.44,3-1.22,1.08-2,.5-2.14,1s-1.91-.46-.9-1.64C655.65,1069.09,656.21,1069.55,656.92,1069Z"/><path class="cls-8" d="M674.76,1069.53c0,.09.15.18.33.23.95.25,3.84.9,4-.32.17-1.46-.09-1.75.27-2.28,1-1.46-3.81-3.74-4-2.32C675.11,1066.94,674.67,1069,674.76,1069.53Z"/><path class="cls-8" d="M624.36,1070.19a2.57,2.57,0,0,1,2.64.08c2.33,1.84,1.38,4,1.08,4.24-.79.71-2.83-1.39-2.49-.61s-3.78-3.16-3.46-4.3C622.32,1068.9,623.84,1070.49,624.36,1070.19Z"/><path class="cls-8" d="M664.65,1078.27c.08,0,.15-.14.17-.3.14-.84.44-3.41-.7-3.41-1.37,0-1.61.25-2.14,0-1.46-.71-3.07,3.65-1.74,3.66C662.21,1078.22,664.15,1078.41,664.65,1078.27Z"/><path class="cls-8" d="M610.43,1068.4c0,.07.11.14.26.18.74.2,3,.71,3.12-.25.13-1.14-.07-1.37.21-1.79.77-1.14-3-2.92-3.12-1.81C610.71,1066.37,610.36,1068,610.43,1068.4Z"/><path class="cls-8" d="M682,1077.83s1.56,1.48-1.58,1.47-2.55.26-3.33.61-3.91-3-1-3.31A12.46,12.46,0,0,1,682,1077.83Z"/><path class="cls-8" d="M665.62,1080.8c.06,0,.11-.15.13-.33.1-.92,2.84-5.24,2-5.25-1,0-3.68,1.8-4.06,1.52-1.05-.77-.9,5.06.06,5.07C665.19,1081.82,665.26,1081,665.62,1080.8Z"/><path class="cls-8" d="M699.21,1070.4a.09.09,0,0,0,.09-.08c.07-.22,1.94-1.27,1.37-1.28s-2.53.43-2.79.36c-.72-.19-.6,1.24.06,1.25A2.58,2.58,0,0,0,699.21,1070.4Z"/><path class="cls-8" d="M653.85,1067.68h0c0-.07.8-.26.58-.29s-1,0-1.08-.07c-.27-.1-.28.32,0,.37A1.11,1.11,0,0,0,653.85,1067.68Z"/><path class="cls-8" d="M645,1080c-.37-.46-1.19-1.59-1.13-2,.13-.94,1.95.74,2.25,1.09.82.92.38,1.52.73,1.62s-.34,1.43-1.23.67C645,1080.91,645.38,1080.49,645,1080Z"/><path class="cls-8" d="M641,1064.15c.48.4,1.55,1.37,1.57,1.76.06,1-2.14-.34-2.52-.63-1-.77-.71-1.47-1.09-1.49s.05-1.54,1.11-1C640.67,1063.19,640.4,1063.7,641,1064.15Z"/><path class="cls-8" d="M682.93,1071.78c0,.07.11.14.25.18.74.19,3,.7,3.12-.25.14-1.15-.07-1.37.21-1.79.77-1.14-3-2.93-3.11-1.82C683.2,1069.75,682.86,1071.35,682.93,1071.78Z"/><path class="cls-8" d="M640.43,1075.32a.05.05,0,0,0,.05,0c0-.08,1-.32.74-.37s-1.25,0-1.38-.08c-.34-.13-.36.41,0,.47A2,2,0,0,0,640.43,1075.32Z"/><path class="cls-8" d="M638.72,1074.58a1.22,1.22,0,0,1-.67,1.74c-.35.1-1.62.18-1.93-.34-.82-1.39.1-2.06-1.19-2-.61,0,2.13-2.91,3.23-1.79C638.83,1072.86,638.32,1073.76,638.72,1074.58Z"/><path class="cls-8" d="M608.87,1079.18c.48.39,1.55,1.36,1.57,1.75.06,1-2.14-.34-2.52-.63-1-.77-.71-1.47-1.09-1.49s0-1.54,1.11-1C608.59,1078.21,608.32,1078.72,608.87,1079.18Z"/><path class="cls-8" d="M624.79,1078.5s.49,1.35-.5,1.35-.81.25-1.06.57-1.22-2.77-.29-3S624.79,1078.5,624.79,1078.5Z"/><path class="cls-8" d="M618.6,1080.44a1.21,1.21,0,0,1-.67,1.74c-.35.09-1.61.18-1.92-.34-.83-1.4.1-2.07-1.19-2-.61,0,2.13-2.91,3.23-1.79C618.71,1078.71,618.21,1079.62,618.6,1080.44Z"/><path class="cls-8" d="M682.71,1075.61c.48.39,1.55,1.37,1.57,1.76.06,1-2.14-.35-2.53-.63-1-.77-.7-1.47-1.08-1.49s.05-1.54,1.11-1C682.42,1074.65,682.16,1075.16,682.71,1075.61Z"/><path class="cls-8" d="M698.63,1074.94s.49,1.35-.5,1.34-.81.26-1.06.57-1.22-2.76-.29-3S698.63,1074.94,698.63,1074.94Z"/><path class="cls-8" d="M692.44,1076.87a1.21,1.21,0,0,1-.67,1.74c-.35.1-1.61.19-1.92-.34-.83-1.39.09-2.06-1.19-2-.62,0,2.12-2.91,3.22-1.8C692.55,1075.15,692,1076.06,692.44,1076.87Z"/><path class="cls-8" d="M640.9,1066.58s.29.9-.3.89-.48.17-.62.38-.73-1.84-.18-2S640.9,1066.58,640.9,1066.58Z"/><path class="cls-8" d="M625.07,1086.41c.1,0,.18-.18.2-.38.11-1,.33-4.25-1.09-4.18-1.7.07-2,.4-2.65.12-1.84-.79-3.56,4.71-1.92,4.64C622.05,1086.5,624.46,1086.61,625.07,1086.41Z"/><path class="cls-8" d="M685,1086.41c.07,0,.12-.18.14-.38.06-1,.16-4.24-.81-4.2-1.15.05-1.34.38-1.8.08-1.27-.81-2.37,4.67-1.25,4.62A28.74,28.74,0,0,0,685,1086.41Z"/><path class="cls-8" d="M577.84,1066.37a1.51,1.51,0,0,0-.86-.21c-2.36-.15-9.56-.5-9.56.86,0,1.64.72,1.92,0,2.56-2,1.73,10.31,3.62,10.31,2C577.73,1069.27,578.22,1067,577.84,1066.37Z"/><path class="cls-8" d="M557.07,1083.7a.4.4,0,0,0,.36-.25c.32-.74,1.11-3-1-3.27-2.53-.28-3-.1-4-.44-2.61-.94-6,2.73-3.53,3C552.59,1083.16,556.14,1083.72,557.07,1083.7Z"/><path class="cls-8" d="M576.68,1057.73a.4.4,0,0,0,.35-.25c.32-.74,1.12-3-1-3.27-2.52-.28-3-.1-3.94-.44-2.61-.94-6,4.76-3.59,5C572.14,1059.21,575.74,1057.75,576.68,1057.73Z"/><path class="cls-8" d="M545.34,1075.86a23.38,23.38,0,0,0,3.18-1.32c.32-.74,1.11-3-1-3.27-2.53-.28-3.27-3.72-4.23-4.07-2.61-.94-5.7,6.36-3.25,6.64C543.68,1074.25,544.41,1075.88,545.34,1075.86Z"/><path class="cls-8" d="M594.22,1085a2.3,2.3,0,0,1,.16-2.85c4.2-4.62,7.08-2.24,7.08-1.16,0,2.49-2.81,2.81-2,3.43s-5.62,2.52-6.24.17C592.82,1083.23,594.26,1085.06,594.22,1085Z"/><path class="cls-8" d="M555.65,1071.15c.66-.34,1.4-.16,1.52.4.07.28.05,1.31-.45,1.61-1.32.79-1.86.09-1.9,1.14,0,.5-2.48-1.5-1.39-2.49C554.1,1071.2,554.88,1071.54,555.65,1071.15Z"/><path class="cls-8" d="M571.36,1076.55s4.22-1.61,4.22,1.61.81,2.62,1.81,3.42-8.65,4-9.46,1S571.36,1076.55,571.36,1076.55Z"/><path class="cls-8" d="M603.16,1070.46c1.25.12,4.16.69,4.66,1.83,1.28,2.93-3.91,3.87-4.89,3.87-2.59,0-2.9-2.94-3.55-2.13s-1.76-4.88.68-5.51C601.54,1068.13,601.71,1070.33,603.16,1070.46Z"/><path class="cls-8" d="M605.89,1054.94s3.14,1.84,1.12,3.47-1.23,1.83-1.23,2.87-6.9-3.4-5.41-5.43S605.89,1054.94,605.89,1054.94Z"/><path class="cls-8" d="M582.26,1058.55l-1.65-.29c2.34.44,9.43,1.66,9.6.31.2-1.62-.48-2,.31-2.53,2.16-1.49-9.79-4.86-10-3.29C580.25,1055.08,580.73,1058.29,582.26,1058.55Z"/><path class="cls-8" d="M597.13,1063.6a.05.05,0,0,0,0,0c0-.08,1-.32.74-.37s-1.25,0-1.38-.08c-.34-.13-.36.41,0,.47A2,2,0,0,0,597.13,1063.6Z"/><path class="cls-8" d="M585.33,1077.78a.06.06,0,0,0,.06,0c.06-.1,1.27-.4.92-.46s-1.55,0-1.71-.1c-.42-.16-.45.51-.05.58A2.26,2.26,0,0,0,585.33,1077.78Z"/><path class="cls-8" d="M557.84,1061s0,0,.06,0,1.26-.41.91-.46-1.55,0-1.71-.11c-.42-.15-.45.52-.05.58A1.86,1.86,0,0,0,557.84,1061Z"/><path class="cls-8" d="M546.38,1056.61a4.3,4.3,0,0,1,4.94,2.19c1.86,3.76-4.76,5-6,5-3.22,0-5.51-2-4.41-2.65.85-.53-6-8.65-3-9.44C540,1051.13,543.84,1057.27,546.38,1056.61Z"/><path class="cls-8" d="M605.49,1067a1.56,1.56,0,0,1-.86,2.22c-.45.12-2.06.23-2.46-.44-1-1.78.13-2.63-1.52-2.56-.78,0,2.72-3.71,4.12-2.29C605.63,1064.76,605,1065.92,605.49,1067Z"/><path class="cls-8" d="M592.8,1066.73s1.28,3.42-1.32,3.4-2.11.64-2.76,1.45-3.21-7-.77-7.63S592.8,1066.73,592.8,1066.73Z"/><path class="cls-10" d="M597,1087.83v-21.9s-.13-5.47,6.67-5.47c0,0,6.31,0,6.31,5.6,0,8.4-.12,21.77-.12,21.77"/><rect class="cls-11" x="597.28" y="1078.28" width="12.22" height="10.31"/><line class="cls-12" x1="603.29" y1="1078.69" x2="603.29" y2="1088.59"/><line class="cls-12" x1="605.58" y1="1078.69" x2="605.58" y2="1088.59"/><line class="cls-12" x1="599.47" y1="1078.69" x2="599.47" y2="1088.59"/><line class="cls-12" x1="601.25" y1="1078.69" x2="601.25" y2="1088.59"/><rect class="cls-10" x="686.39" y="1057.78" width="11.2" height="11.2" rx="0.7"/><line class="cls-13" x1="691.99" y1="1057.94" x2="691.99" y2="1068.99"/><line class="cls-13" x1="686.44" y1="1063.46" x2="697.6" y2="1063.46"/><rect class="cls-10" x="666.02" y="1057.78" width="11.2" height="11.2" rx="0.7"/><line class="cls-13" x1="671.63" y1="1057.94" x2="671.63" y2="1068.99"/><line class="cls-13" x1="666.07" y1="1063.46" x2="677.23" y2="1063.46"/><path class="cls-14" d="M389.26,1088.08s30.3-26,64.42-37.68"/><polygon class="cls-15" points="606.7 1045.05 738.33 1045.05 714.91 1033.85 587.86 1033.85 606.7 1045.05"/><path class="cls-15" d="M651.26,921.31l2.42-2.42,64.54,64.55c1.91,1.91,2.42,2.67,1.27,3.82s-2.54-1-2.54-1Z"/><polygon class="cls-15" points="653.8 919.02 571.31 919.02 504.09 986.24 582.77 986.24 653.8 919.02"/><polygon class="cls-15" points="546.1 974.78 548.14 979.11 558.83 1004.32 503.07 1004.32 479.39 973.76 546.1 974.78"/><polyline class="cls-16" points="453.68 1003.55 479.39 973.76 517.84 973.76"/><polygon class="cls-17" points="552.72 991.33 581.24 991.33 581.24 1033.34 601.35 1045.56 581.24 1045.56 581.24 1049.13 563.16 1049.13 563.16 1004.32 550.18 986.24 582.77 986.24 651.26 921.31 716.95 986.24 714.91 986.24 714.91 1034.62 588.88 1034.62 606.96 1045.31 738.33 1045.31 738.33 1049.13 581.24 1049.13 552.72 991.33"/><path class="cls-18" d="M581.24,991.33v35s-.76,7.28,4.07,9.82c.86.45,3.76,2.56,4.59,3.06l14,7.89v2H561.69v-45.58l-6.17-14.26h25.72Z"/><polygon class="cls-17" points="453.68 1050.4 563.16 1050.15 563.16 1004.32 503.07 1004.32 479.39 973.76 453.43 1003.55 453.68 1050.4"/><polygon class="cls-18" points="498.24 1048.62 456.99 1048.62 456.99 1004.57 479.14 978.35 499.51 1003.3 499.51 1048.62 498.24 1048.62"/><path class="cls-19" d="M651.26,927.17,711.85,988v46.59h-123s-2-1.52-2-6.36V988Z"/><rect class="cls-19" x="506.13" y="1008.9" width="53.21" height="39.72"/><polygon class="cls-15" points="558.83 1004.32 550.18 983.06 546.61 983.18 558.83 1004.32"/><polygon class="cls-17" points="563.16 1004.32 555.52 987.51 553.41 989.04 561.27 1007.74 563.16 1004.32"/><polygon class="cls-17" points="479.39 973.76 505.01 1004.32 502.06 1005.59 479.39 973.76"/><polygon class="cls-17" points="553.41 986.24 546.61 986.24 560.37 1005.59 553.41 986.24"/><polygon class="cls-18" points="553.74 989.29 563.16 989.29 563.16 1004.32 553.74 989.29"/><path class="cls-9" d="M465.14,1049.89V1020a12.07,12.07,0,0,1,12.07-12.07h0A14.15,14.15,0,0,1,491.36,1022v27.61"/><rect class="cls-20" x="545.59" y="1013.74" width="8.15" height="7.89"/><rect class="cls-21" x="545.85" y="1013.74" width="7.89" height="7.89"/><line class="cls-21" x1="549.8" y1="1013.74" x2="549.8" y2="1021.63"/><line class="cls-21" x1="546.36" y1="1017.81" x2="553.49" y2="1017.81"/><rect class="cls-22" x="598.04" y="1002.2" width="23.93" height="31.99" rx="0.93"/><path class="cls-23" d="M610.14,1003v31.07"/><rect class="cls-24" x="598.3" y="1025.7" width="9.42" height="2.29" rx="0.33"/><rect class="cls-24" x="598.3" y="1008.64" width="9.42" height="2.29" rx="0.33"/><rect class="cls-24" x="612.3" y="1025.7" width="9.42" height="2.29" rx="0.33"/><rect class="cls-24" x="612.3" y="1008.64" width="9.42" height="2.29" rx="0.33"/><rect class="cls-22" x="673.92" y="1002.2" width="23.93" height="31.99" rx="0.93"/><path class="cls-23" d="M686,1003v31.07"/><rect class="cls-24" x="674.17" y="1025.7" width="9.42" height="2.29" rx="0.33"/><rect class="cls-24" x="674.17" y="1008.64" width="9.42" height="2.29" rx="0.33"/><rect class="cls-24" x="688.18" y="1025.7" width="9.42" height="2.29" rx="0.33"/><rect class="cls-24" x="688.18" y="1008.64" width="9.42" height="2.29" rx="0.33"/><rect class="cls-22" x="637.51" y="952.04" width="23.93" height="31.99" rx="0.93"/><path class="cls-25" d="M660.42,952.88h8.49a2.46,2.46,0,0,1,2.46,2.46v25.88a2.46,2.46,0,0,1-2.46,2.46h-8.49a0,0,0,0,1,0,0V952.88A0,0,0,0,1,660.42,952.88Z"/><rect class="cls-24" x="637.76" y="975.55" width="9.42" height="2.29" rx="0.33"/><rect class="cls-24" x="637.76" y="958.49" width="9.42" height="2.29" rx="0.33"/><rect class="cls-24" x="660.42" y="975.55" width="9.42" height="2.29" rx="0.33"/><rect class="cls-24" x="661.19" y="958.49" width="9.42" height="2.29" rx="0.33"/><rect class="cls-20" x="649.48" y="952.88" width="11.71" height="30.3"/><line class="cls-12" x1="474.11" y1="1017.99" x2="474.11" y2="1026.85"/><polygon class="cls-26" points="470.48 1018.56 479.14 1017.56 479.14 1026.7 470.48 1027.49 470.48 1018.56"/><line class="cls-27" x1="474.77" y1="1017.99" x2="474.81" y2="1027.23"/><line class="cls-27" x1="470.23" y1="1022.9" x2="480.16" y2="1021.88"/><line class="cls-28" x1="603.14" y1="1035.12" x2="618.41" y2="1045.05"/><line class="cls-28" x1="614.08" y1="1035.12" x2="629.36" y2="1045.05"/><line class="cls-28" x1="624.08" y1="1034.7" x2="639.23" y2="1044.83"/><line class="cls-28" x1="635.03" y1="1034.84" x2="650.17" y2="1044.97"/><line class="cls-28" x1="657.11" y1="1035.12" x2="672.39" y2="1045.05"/><line class="cls-28" x1="667.11" y1="1034.7" x2="682.26" y2="1044.83"/><line class="cls-28" x1="677.99" y1="1034.87" x2="693.2" y2="1044.97"/><line class="cls-28" x1="688.94" y1="1035.12" x2="704.22" y2="1045.05"/><line class="cls-28" x1="698.93" y1="1034.7" x2="714.08" y2="1044.83"/><line class="cls-28" x1="709.82" y1="1034.87" x2="725.03" y2="1044.97"/><line class="cls-28" x1="576.18" y1="986" x2="644.6" y2="920.27"/><line class="cls-28" x1="565.74" y1="986" x2="634.16" y2="920.27"/><line class="cls-28" x1="557.85" y1="986" x2="626.27" y2="920.27"/><line class="cls-28" x1="547.41" y1="986" x2="615.83" y2="920.27"/><line class="cls-29" x1="541.39" y1="982.04" x2="605.65" y2="920.27"/><line class="cls-28" x1="538.08" y1="977.45" x2="597.76" y2="920.27"/><line class="cls-28" x1="523.57" y1="971.34" x2="578.41" y2="918.75"/><line class="cls-28" x1="532.74" y1="972.62" x2="587.32" y2="920.27"/><line class="cls-28" x1="488.94" y1="973.38" x2="515.17" y2="1003.93"/><line class="cls-28" x1="500.15" y1="973.38" x2="526.37" y2="1003.93"/><line class="cls-28" x1="509.82" y1="973.38" x2="536.05" y2="1003.93"/><line class="cls-28" x1="517.46" y1="973.38" x2="543.68" y2="1003.93"/><line class="cls-28" x1="525.48" y1="973.25" x2="551.58" y2="1003.93"/><line class="cls-28" x1="533.12" y1="973.51" x2="559.22" y2="1004.19"/><line class="cls-30" x1="591.93" y1="1040.98" x2="591.93" y2="1048.62"/><line class="cls-30" x1="585.95" y1="1038.43" x2="585.95" y2="1048.62"/><line class="cls-30" x1="568.3" y1="989.29" x2="568.3" y2="1049.13"/><line class="cls-30" x1="573.73" y1="989.29" x2="573.73" y2="1049.13"/><line class="cls-30" x1="579.84" y1="991.33" x2="579.84" y2="1047.85"/><line class="cls-30" x1="563.03" y1="1003.42" x2="563.03" y2="991.59"/><line class="cls-30" x1="559.22" y1="997.57" x2="559.22" y2="989.04"/><line class="cls-30" x1="460.43" y1="1000.62" x2="460.43" y2="1048.49"/><line class="cls-30" x1="465.01" y1="995.79" x2="465.01" y2="1013.35"/><line class="cls-30" x1="495.7" y1="1048.49" x2="495.7" y2="999.35"/><path class="cls-30" d="M490.47,1013.61V993.75"/><path class="cls-31" d="M485.63,1008.52c.26-.77,0-22.41,0-22.41"/><line class="cls-30" x1="471.38" y1="1007.75" x2="471.38" y2="987.51"/><line class="cls-30" x1="478.25" y1="1006.23" x2="478.25" y2="980.76"/><line class="cls-32" x1="512.11" y1="1008.77" x2="512.11" y2="1048.49"/><line class="cls-32" x1="516.82" y1="1008.9" x2="516.82" y2="1048.62"/><line class="cls-32" x1="522.17" y1="1008.9" x2="522.17" y2="1048.62"/><line class="cls-32" x1="527.13" y1="1008.77" x2="527.13" y2="1048.49"/><line class="cls-32" x1="531.85" y1="1008.9" x2="531.85" y2="1048.62"/><line class="cls-32" x1="537.19" y1="1008.9" x2="537.19" y2="1048.62"/><line class="cls-32" x1="541.65" y1="1008.64" x2="541.65" y2="1048.36"/><line class="cls-32" x1="555.65" y1="1009.41" x2="555.65" y2="1048.11"/><line class="cls-32" x1="546.23" y1="1022.14" x2="546.23" y2="1048.62"/><line class="cls-32" x1="546.23" y1="1009.03" x2="546.23" y2="1013.1"/><line class="cls-32" x1="551.07" y1="1009.28" x2="551.07" y2="1013.23"/><line class="cls-30" x1="551.58" y1="1022.01" x2="551.58" y2="1048.49"/><line class="cls-30" x1="593.08" y1="982.04" x2="593.08" y2="1034.49"/><line class="cls-30" x1="601.99" y1="974.65" x2="601.99" y2="1000.62"/><line class="cls-30" x1="610.65" y1="965.49" x2="610.65" y2="1001.13"/><line class="cls-30" x1="619.3" y1="957.34" x2="619.3" y2="1001.64"/><line class="cls-30" x1="627.71" y1="950.21" x2="627.71" y2="1034.74"/><line class="cls-30" x1="706.13" y1="982.17" x2="706.13" y2="1034.61"/><line class="cls-30" x1="697.21" y1="974.78" x2="697.21" y2="1000.75"/><line class="cls-30" x1="688.56" y1="965.62" x2="688.56" y2="1001.26"/><line class="cls-30" x1="679.9" y1="957.47" x2="679.9" y2="1001.77"/><line class="cls-30" x1="671.5" y1="950.34" x2="671.5" y2="1034.87"/><line class="cls-30" x1="636.11" y1="942.19" x2="636.11" y2="1034.87"/><polyline class="cls-28" points="646.04 985.09 646.16 1035.12 661.44 1045.05"/><line class="cls-28" x1="655.2" y1="985.09" x2="655.2" y2="1034.49"/><line class="cls-28" x1="663.1" y1="984.07" x2="663.1" y2="1034.74"/><line class="cls-28" x1="663.1" y1="951.99" x2="663.1" y2="939.77"/><line class="cls-28" x1="655.2" y1="950.72" x2="655.2" y2="931.37"/><line class="cls-28" x1="645.91" y1="951.1" x2="646.17" y2="931.75"/><path class="cls-33" d="M433.66,1165.41c-.5-8.61,1.19-17.63-1.75-25.68-1.61-4.4-4.5-8.14-7.06-12A93,93,0,0,1,413.38,1103a4.83,4.83,0,0,1-.26-2.73,4.73,4.73,0,0,1,1.5-2,38.82,38.82,0,0,1,25.79-10.14c5.82,0,11.54,1.34,17.29,2.23a112.28,112.28,0,0,0,30.53.56c9-1.08,18.71-3.14,26.78,1.07s12.09,13.28,14.64,22.11,4.15,18.24,9.19,25.8c1.61,2.42,3.59,4.68,4.34,7.53,1.43,5.46-2.32,11.29-7.17,14s-10.53,3-16,3.37c-17.63,1.16-35.38,3.35-52.38,8.73-6.78,2.15-16.14,9-23,9.24C436.87,1183,434.05,1171.94,433.66,1165.41Z"/><path class="cls-34" d="M517.62,1134.29l-82.32,9.19c-1.77.2-3.93.21-4.88-1.3a4.76,4.76,0,0,1-.5-2.4l-.39-11.19c0-1.11,0-2.39.86-3.09a3.58,3.58,0,0,1,2-.58l60.81-5c8.84-.72,17.65-1.68,26.48-2.46,4.92-.43,11.27-1.14,12.52,4.91C534,1131.11,523.79,1133.32,517.62,1134.29Z"/><path class="cls-34" d="M506.31,1144.33c-11.22,6.17-24.79,5.81-37.55,4.64s-25.9-3-38.14.81c-.85.27-1.83.71-1.95,1.59a2.46,2.46,0,0,0,.7,1.7l8,10.48a16.18,16.18,0,0,0,3.95,4.09c2.17,1.4,4.86,1.68,7.43,1.93,18.72,1.78,38.79,3.3,55.18-5.92,3.21-1.81,6.18-3.83,9.85-4.58s7.54.15,11.12-1.56c4.62-2.21,7.48-7.33,7.6-12.38C532.92,1127.12,513.57,1140.35,506.31,1144.33Z"/><path class="cls-34" d="M449.76,1101.71c12.08-2.45,24.47,1.1,36.78,1.76,11,.59,22.33-1.08,33.11,0a3.07,3.07,0,0,1,.17,6.09c-12.71,2-26,.92-39,1a211.5,211.5,0,0,0-35.16,3.23c-10.26,1.82-19.05,6.19-22.93-6.68C432.38,1108,440.49,1103.58,449.76,1101.71Z"/><path class="cls-35" d="M486.53,1124s1.71-.93,2.64-.28,2.56,1.53,1.29,3.63-.2,2.88-3.19,3.48-4.87,2.94-4.82-.26,4.08-6.57,4.08-6.57Z"/><path class="cls-36" d="M474.71,1122.42s-1.38-1.46-2.4-1.13-2.92.62-2.4,3-.76,2.8,1.88,4.34,3.64,4.36,4.64,1.33-1.72-7.55-1.72-7.55Z"/><path class="cls-37" d="M486,1123.09c-1.35-.37-2.72-.7-4.11-1a2.13,2.13,0,0,0-1.13-.23,4.71,4.71,0,0,0-1.28.31c-1.58.55-3.22,1.19-4,2.21a4,4,0,0,1-.72.14,2.6,2.6,0,0,1,.49-2.62,2.27,2.27,0,0,1,.8-.36l2.87-1h0l1.22-.41a3.9,3.9,0,0,1,1.65-.28,3.12,3.12,0,0,1,2.06,1.26,13.56,13.56,0,0,0,2.17,1.91Z"/><path class="cls-38" d="M482.79,1128.26a2.88,2.88,0,0,1-.65,0,.37.37,0,0,1-.15,0l-.07,0a2.83,2.83,0,0,1-.67-.49l-1.43-1.27a2.16,2.16,0,0,0-.47-.36c-.38-.2-.87-.26-1.24-.46a4.67,4.67,0,0,0-.49-.27l-.1,0-.16,0a1.36,1.36,0,0,0-.57.07h0a.28.28,0,0,0-.25,0,1.25,1.25,0,0,1,.9-.74,5.66,5.66,0,0,1,1.77-.15,7,7,0,0,1,1.58.2,3.73,3.73,0,0,1,.44.14,2,2,0,0,1,1.44,1.91c-.06.49-.36,1,.06,1.44l.07,0Z"/><path class="cls-38" d="M482,1128.27l-.08,0a2.83,2.83,0,0,1-.66-.49l-1.43-1.28a3,3,0,0,0-.48-.35c-.38-.2-.87-.26-1.24-.46a3.36,3.36,0,0,0-.49-.27l-.09,0,.1,0a4.67,4.67,0,0,1,.49.27c.37.2.86.26,1.24.46a2.51,2.51,0,0,1,.48.36l1.42,1.27a2.83,2.83,0,0,0,.67.49l.07,0Z"/><path class="cls-35" d="M484.75,1130.51c-.2.45-1,.61-1.76.58s-1.49-.2-2.23-.18-1.42.25-2.17.25a5.56,5.56,0,0,1-2.83-.92c-.39-.23-.76-.49-1.11-.74-.88-.63-1.84-1.46-1.48-2.18.27-.52,1.48-.94,2-1.45a2.86,2.86,0,0,0,.59.71,1.64,1.64,0,0,0,.65,1.69,4.05,4.05,0,0,0,.87.48,7.34,7.34,0,0,0,3,.65,6.15,6.15,0,0,0,3-1.06,7.87,7.87,0,0,0,1.28.17.83.83,0,0,0,0,.81c.16.4.45.82.28,1.19Z"/><path class="cls-39" d="M475.76,1130.24l-.33,0a6.43,6.43,0,0,1-1.81,0,4.14,4.14,0,0,1-1.51-.56h0a2.11,2.11,0,0,1-1.09-1.41c-.06-.44.1-.87-.14-1.3-.13-.22-.36-.41-.51-.63a1.84,1.84,0,0,1,.05-1.88.76.76,0,0,1,.24-.36.87.87,0,0,1,.39-.16,2.7,2.7,0,0,1,1.08.1,9.2,9.2,0,0,0,1.53.44,4.36,4.36,0,0,0,1.08,0,4,4,0,0,0,.72-.14,2.44,2.44,0,0,0-.36.65,1,1,0,0,0,0,.81c-.48.51-1.69.93-2,1.45-.36.72.6,1.55,1.48,2.18.35.25.72.51,1.11.74Z"/><path class="cls-40" d="M487.11,1131.45h0a1.66,1.66,0,0,1-1,1,6.65,6.65,0,0,1-1.61.36l-2.76.39c-1.21.18-2.71.28-3.65-.38a2,2,0,0,1-.45-.46,9.77,9.77,0,0,1-.53-.94,3.12,3.12,0,0,0-1.68-1.16l.33,0a5.56,5.56,0,0,0,2.83.92c.75,0,1.43-.22,2.17-.25s1.49.14,2.23.18,1.56-.13,1.76-.58-.12-.79-.28-1.19a.83.83,0,0,1,0-.81,1.67,1.67,0,0,0,.77-.11,3.51,3.51,0,0,0,.42-.31l.17-.12c0,.27,0,.68,0,.8,0,.54.7,1,1.05,1.52a1.35,1.35,0,0,1,.22,1.16Z"/><path class="cls-36" d="M477.64,1132.39l-1.06,0a5.3,5.3,0,0,1-.69,0,6.22,6.22,0,0,1-2.6-1,2.21,2.21,0,0,1-.55-.37,1.47,1.47,0,0,1-.34-.57c-.1-.24-.2-.48-.29-.72a4.14,4.14,0,0,0,1.51.56,6.43,6.43,0,0,0,1.81,0,3.12,3.12,0,0,1,1.68,1.16,9.77,9.77,0,0,0,.53.94Z"/><path class="cls-41" d="M484,1124.8a21.67,21.67,0,0,1-4.76-.25,5.66,5.66,0,0,0-1.77.15,1.25,1.25,0,0,0-.9.74l0,0a2.21,2.21,0,0,0-.74,1l0,.09a2.86,2.86,0,0,1-.59-.71,1,1,0,0,1,0-.81,2.44,2.44,0,0,1,.36-.65c.8-1,2.44-1.66,4-2.21a4.71,4.71,0,0,1,1.28-.31,2.15,2.15,0,0,1,1.13.23,1,1,0,0,1,.2.13c.3.28.3.62.44.94a5.26,5.26,0,0,0,1.44,1.61Z"/><path class="cls-39" d="M488.18,1128.36a6.85,6.85,0,0,1-1,.6h0a1.18,1.18,0,0,0-.22.14,4.32,4.32,0,0,1-.53.4,2.07,2.07,0,0,1-1,.14,11.18,11.18,0,0,1-1.63-.21l-.54-.11-.08,0c-.53-.56-.16-1.21-.08-1.82a2.54,2.54,0,0,0-1.83-2.42,5.05,5.05,0,0,0-.55-.18,8.69,8.69,0,0,1,4,.07,4.19,4.19,0,0,1,1,.39,4.8,4.8,0,0,0,1.47.77c.18.05.38.07.56.13a1.29,1.29,0,0,1,.41,2.12Z"/><path class="cls-42" d="M476.49,1125.46h0a.74.74,0,0,1,.8-.17l.22.07.1,0a4.67,4.67,0,0,1,.49.27c.37.2.86.26,1.24.46a2.51,2.51,0,0,1,.48.36l1.42,1.27a2.83,2.83,0,0,0,.67.49l.07,0,.16,0a2.91,2.91,0,0,0,.65,0l.43.08a6.15,6.15,0,0,1-3,1.06,7.29,7.29,0,0,1-2.95-.65,4.53,4.53,0,0,1-.87-.48,1.65,1.65,0,0,1-.65-1.69l0-.09a2.21,2.21,0,0,1,.74-1Z"/><path class="cls-43" d="M477.58,1119.84s1.07-1.72,2.16-1.54,2.22.61,3.16.09,2.24.77,1.64,2.61-7.87,1.07-7-1.16Z"/><path class="cls-44" d="M477.5,1122.44s.62-3.2,3.34-2.2c1.9.7,2.51-.31,3.67-.07s2.16,2.1,1.21,4-2.89,4.2-5.19,3.09-3.74-3.47-3-4.81Z"/><path class="cls-45" d="M481.84,1128.05a4,4,0,0,0,3.65-.82c1.94-1.46,1.78-3,1.56-4.69-.14-1.1-.67-1.86-1.53-2s-1.52,1.54-2.23,1.42-2.15-.69-2.19,1.43-.92,4.14.74,4.66Z"/><path class="cls-35" d="M475.33,1126.51a2.52,2.52,0,0,1-2-2c-.39-2.22,1.23-3.31,1.53-4.74s2.78-1.66,3.27-.52,1.65.19,1.75,1.92c0,.85,1.4.85.66,2.7s-5.2,2.65-5.2,2.65Z"/><path class="cls-43" d="M478.51,1129.82s-3.83-.25-4.16-3.55,1.69-2,2.11-3.06a1.65,1.65,0,0,1,2.62-.57c.71.71,1.37-.06,2.46.48s.4,2.54,1.2,2.67,1.33.17.88,1.8-2.25,2.27-5.11,2.23Z"/><path class="cls-35" d="M448.43,1101.67s1.4-.76,2.16-.23,2.1,1.25,1.06,3-.16,2.36-2.62,2.85-4,2.41-3.94-.21,3.34-5.38,3.34-5.38Z"/><path class="cls-36" d="M438.76,1100.4s-1.14-1.2-2-.93-2.39.5-2,2.46-.61,2.29,1.54,3.55,3,3.58,3.8,1.09-1.4-6.17-1.4-6.17Z"/><path class="cls-37" d="M448,1101c-1.11-.31-2.23-.58-3.36-.8a1.73,1.73,0,0,0-.93-.19,3.93,3.93,0,0,0-1.05.25,7.46,7.46,0,0,0-3.29,1.81,3.42,3.42,0,0,1-.59.12,2.13,2.13,0,0,1,.4-2.15,2.61,2.61,0,0,1,.65-.3l2.35-.78h0l1-.33a3.12,3.12,0,0,1,1.35-.23,2.53,2.53,0,0,1,1.68,1A11.26,11.26,0,0,0,448,1101Z"/><path class="cls-38" d="M445.37,1105.17a2.41,2.41,0,0,1-.53,0,.5.5,0,0,1-.13,0l-.06,0a2.8,2.8,0,0,1-.54-.4l-1.17-1a2.37,2.37,0,0,0-.39-.3c-.31-.16-.71-.21-1-.37a2,2,0,0,0-.41-.22l-.07,0-.14,0a1.07,1.07,0,0,0-.47.06h0a.27.27,0,0,0-.21,0,1,1,0,0,1,.74-.6,4.57,4.57,0,0,1,1.45-.12,5.56,5.56,0,0,1,1.29.16l.36.11a1.64,1.64,0,0,1,1.18,1.57c-.05.4-.29.82.05,1.18Z"/><path class="cls-38" d="M444.71,1105.18l-.07,0a2.52,2.52,0,0,1-.54-.4l-1.17-1a2.32,2.32,0,0,0-.39-.29c-.31-.16-.71-.21-1-.38a3.78,3.78,0,0,0-.4-.22l-.07,0,.08,0c.15.06.26.15.4.22.31.17.71.22,1,.38a1.72,1.72,0,0,1,.39.29l1.17,1a2.6,2.6,0,0,0,.55.4l.06,0Z"/><path class="cls-35" d="M447,1107c-.17.36-.84.49-1.44.47s-1.23-.16-1.83-.14-1.16.2-1.78.2a4.56,4.56,0,0,1-2.32-.75c-.32-.2-.62-.41-.9-.61-.72-.52-1.51-1.19-1.21-1.79.21-.42,1.21-.76,1.6-1.18a2.08,2.08,0,0,0,.49.58,1.3,1.3,0,0,0,.53,1.38,3.45,3.45,0,0,0,.71.4,6,6,0,0,0,2.41.53,5,5,0,0,0,2.48-.87,6.3,6.3,0,0,0,1,.14.67.67,0,0,0,0,.66c.14.33.38.68.24,1Z"/><path class="cls-39" d="M439.61,1106.8l-.26,0a5.63,5.63,0,0,1-1.48,0,3.4,3.4,0,0,1-1.25-.46h0a1.77,1.77,0,0,1-.9-1.16c0-.35.09-.71-.11-1-.11-.18-.29-.34-.42-.52a1.52,1.52,0,0,1,0-1.54.66.66,0,0,1,.2-.3.72.72,0,0,1,.32-.13,2.24,2.24,0,0,1,.88.09,9.07,9.07,0,0,0,1.26.36,4.36,4.36,0,0,0,.88,0,3.42,3.42,0,0,0,.59-.12,2.06,2.06,0,0,0-.3.54.79.79,0,0,0,0,.66c-.39.42-1.39.76-1.6,1.18-.3.6.49,1.27,1.21,1.79.28.2.58.41.9.61Z"/><path class="cls-40" d="M448.91,1107.79h0a1.36,1.36,0,0,1-.81.84,5.42,5.42,0,0,1-1.32.29l-2.26.33a4.38,4.38,0,0,1-3-.32,1.85,1.85,0,0,1-.37-.37,8.51,8.51,0,0,1-.43-.78,2.59,2.59,0,0,0-1.37-.94l.27,0a4.49,4.49,0,0,0,2.31.75c.62,0,1.17-.18,1.78-.2s1.22.11,1.83.14,1.27-.11,1.44-.47-.1-.65-.24-1a.67.67,0,0,1,0-.66,1.4,1.4,0,0,0,.63-.09,1.8,1.8,0,0,0,.34-.26l.14-.09c0,.22,0,.55,0,.65,0,.44.58.83.87,1.25a1.15,1.15,0,0,1,.18,1Z"/><path class="cls-36" d="M441.15,1108.56h-1.43a5.11,5.11,0,0,1-2.13-.81,2.08,2.08,0,0,1-.45-.3,1.28,1.28,0,0,1-.28-.47l-.24-.59a3.4,3.4,0,0,0,1.25.46,5.63,5.63,0,0,0,1.48,0,2.59,2.59,0,0,1,1.37.94,8.51,8.51,0,0,0,.43.78Z"/><path class="cls-41" d="M446.33,1102.34a18.27,18.27,0,0,1-3.9-.2,4.57,4.57,0,0,0-1.45.12,1,1,0,0,0-.74.6l0,0a1.76,1.76,0,0,0-.6.85.19.19,0,0,0,0,.07,2.08,2.08,0,0,1-.49-.58.79.79,0,0,1,0-.66,2.06,2.06,0,0,1,.3-.54,7.46,7.46,0,0,1,3.29-1.81,3.93,3.93,0,0,1,1.05-.25,1.73,1.73,0,0,1,.93.19.91.91,0,0,1,.16.11c.25.22.24.5.36.76a4.17,4.17,0,0,0,1.18,1.32Z"/><path class="cls-39" d="M449.79,1105.26a6.54,6.54,0,0,1-.82.48h0l-.18.11a3.5,3.5,0,0,1-.43.33,1.81,1.81,0,0,1-.8.11,8.64,8.64,0,0,1-1.33-.17l-.44-.09h-.07c-.44-.46-.13-1-.07-1.49a2.07,2.07,0,0,0-1.49-2,3.88,3.88,0,0,0-.45-.14,7.18,7.18,0,0,1,3.29,0,2.91,2.91,0,0,1,.78.33,4.16,4.16,0,0,0,1.2.63,3.11,3.11,0,0,1,.46.1,1.06,1.06,0,0,1,.35,1.74Z"/><path class="cls-42" d="M440.21,1102.88h0a.61.61,0,0,1,.66-.14l.18.06.08,0c.15.06.26.15.4.22.31.17.71.22,1,.38a1.72,1.72,0,0,1,.39.29l1.17,1a2.6,2.6,0,0,0,.55.4l.06,0,.12,0a2.46,2.46,0,0,0,.54,0l.35.07a5,5,0,0,1-2.48.87,6,6,0,0,1-2.41-.53,3.45,3.45,0,0,1-.71-.4,1.32,1.32,0,0,1-.54-1.38l0-.07a1.76,1.76,0,0,1,.6-.85Z"/><path class="cls-43" d="M441.1,1098.28s.88-1.41,1.77-1.26,1.82.5,2.59.08,1.84.62,1.34,2.13-6.44.88-5.7-1Z"/><path class="cls-44" d="M441,1100.41s.51-2.62,2.73-1.8c1.56.57,2.06-.26,3-.06s1.77,1.72,1,3.27-2.37,3.44-4.25,2.52-3.06-2.84-2.48-3.93Z"/><path class="cls-45" d="M444.59,1105a3.31,3.31,0,0,0,3-.67c1.59-1.19,1.46-2.42,1.28-3.84-.12-.9-.56-1.52-1.25-1.64s-1.25,1.27-1.83,1.17-1.76-.57-1.79,1.17-.76,3.38.6,3.81Z"/><path class="cls-35" d="M439.26,1103.75a2.07,2.07,0,0,1-1.64-1.65c-.32-1.82,1-2.71,1.25-3.89s2.28-1.35,2.68-.42,1.35.16,1.43,1.57c0,.7,1.15.7.54,2.22s-4.26,2.17-4.26,2.17Z"/><path class="cls-43" d="M441.87,1106.46s-3.14-.22-3.41-2.92,1.38-1.6,1.72-2.5a1.36,1.36,0,0,1,2.16-.46c.57.58,1.11-.06,2,.38s.32,2.08,1,2.19,1.09.14.72,1.47-1.84,1.87-4.18,1.84Z"/><path class="cls-35" d="M511.26,1100.66s1.4-.76,2.16-.23,2.1,1.25,1.06,3-.16,2.36-2.61,2.85-4,2.4-3.95-.21,3.34-5.38,3.34-5.38Z"/><path class="cls-36" d="M501.59,1099.38s-1.13-1.2-2-.92-2.39.5-2,2.46-.62,2.29,1.54,3.55,3,3.57,3.79,1.09-1.4-6.18-1.4-6.18Z"/><path class="cls-37" d="M510.82,1099.93c-1.1-.31-2.22-.57-3.36-.79a1.71,1.71,0,0,0-.93-.19,3.45,3.45,0,0,0-1,.25,7.35,7.35,0,0,0-3.29,1.81,4.9,4.9,0,0,1-.6.12,2.17,2.17,0,0,1,.4-2.15,2.11,2.11,0,0,1,.66-.3l2.35-.78h0l1-.34a3.31,3.31,0,0,1,1.35-.22,2.54,2.54,0,0,1,1.69,1,11.09,11.09,0,0,0,1.77,1.57Z"/><path class="cls-38" d="M508.2,1104.16a2.36,2.36,0,0,1-.53,0l-.12,0-.06,0a2.6,2.6,0,0,1-.55-.4l-1.17-1a1.72,1.72,0,0,0-.39-.29c-.3-.16-.7-.21-1-.38-.14-.07-.25-.16-.4-.22l-.08,0-.13,0a1.05,1.05,0,0,0-.47.06h0a.26.26,0,0,0-.21,0,1,1,0,0,1,.73-.6,4.57,4.57,0,0,1,1.45-.12,5.71,5.71,0,0,1,1.3.16,2,2,0,0,1,.35.11,1.66,1.66,0,0,1,1.19,1.57c-.05.39-.3.81,0,1.18Z"/><path class="cls-38" d="M507.54,1104.17l-.07,0a2.44,2.44,0,0,1-.54-.4l-1.17-1a1.88,1.88,0,0,0-.39-.29c-.31-.17-.71-.22-1-.38a3.23,3.23,0,0,0-.41-.22l-.07,0,.08,0a3.78,3.78,0,0,1,.4.22c.31.17.71.21,1,.38a2.32,2.32,0,0,1,.39.29l1.17,1a2.26,2.26,0,0,0,.54.41l.06,0Z"/><path class="cls-35" d="M509.81,1106c-.17.37-.83.5-1.44.47s-1.23-.16-1.83-.14-1.16.21-1.78.21a4.6,4.6,0,0,1-2.31-.76c-.32-.19-.63-.4-.91-.6-.72-.52-1.51-1.2-1.21-1.79.22-.43,1.21-.77,1.6-1.19a2,2,0,0,0,.49.59,1.31,1.31,0,0,0,.53,1.38,3,3,0,0,0,.71.39,5.77,5.77,0,0,0,2.42.53,4.88,4.88,0,0,0,2.47-.86,7.5,7.5,0,0,0,1.06.14.67.67,0,0,0,0,.66c.13.33.37.67.23,1Z"/><path class="cls-39" d="M502.45,1105.78l-.27,0a4.89,4.89,0,0,1-1.48,0,3.12,3.12,0,0,1-1.24-.45h0a1.76,1.76,0,0,1-.89-1.16c-.05-.35.08-.71-.12-1.06a6.54,6.54,0,0,0-.41-.51,1.51,1.51,0,0,1,0-1.55.67.67,0,0,1,.19-.29.62.62,0,0,1,.32-.13,2.28,2.28,0,0,1,.89.08,9.39,9.39,0,0,0,1.25.37,4.36,4.36,0,0,0,.88,0,4.9,4.9,0,0,0,.6-.12,1.76,1.76,0,0,0-.3.53.83.83,0,0,0,0,.66c-.39.42-1.38.76-1.6,1.19-.3.59.49,1.27,1.21,1.79.28.2.59.41.91.6Z"/><path class="cls-40" d="M511.74,1106.78h0a1.34,1.34,0,0,1-.82.83,5,5,0,0,1-1.32.3l-2.26.32a4.41,4.41,0,0,1-3-.31,1.33,1.33,0,0,1-.37-.38,8.46,8.46,0,0,1-.44-.77,2.61,2.61,0,0,0-1.37-1l.27,0a4.6,4.6,0,0,0,2.31.76c.62,0,1.17-.19,1.78-.21s1.22.12,1.83.14,1.27-.1,1.44-.47-.1-.64-.23-1a.67.67,0,0,1,0-.66,1.36,1.36,0,0,0,.62-.1,2.3,2.3,0,0,0,.34-.25l.15-.1c0,.22,0,.56,0,.66,0,.44.57.83.86,1.25a1.07,1.07,0,0,1,.18,1Z"/><path class="cls-36" d="M504,1107.54l-.87,0a5.42,5.42,0,0,1-.57,0,5.29,5.29,0,0,1-2.13-.8,2.52,2.52,0,0,1-.45-.3,1.25,1.25,0,0,1-.27-.47c-.08-.2-.17-.4-.24-.59a3.12,3.12,0,0,0,1.24.45,4.89,4.89,0,0,0,1.48,0,2.61,2.61,0,0,1,1.37,1,7.3,7.3,0,0,0,.44.77Z"/><path class="cls-41" d="M509.16,1101.33a5.58,5.58,0,0,0-2.6,0,5.71,5.71,0,0,0-1.3-.16,4.6,4.6,0,0,0-1.45.12,1,1,0,0,0-.73.6l0,0a1.8,1.8,0,0,0-.61.84.24.24,0,0,0,0,.08,2,2,0,0,1-.49-.59.83.83,0,0,1,0-.66,1.76,1.76,0,0,1,.3-.53,7.35,7.35,0,0,1,3.29-1.81,3.45,3.45,0,0,1,1-.25,1.71,1.71,0,0,1,.93.19l.16.1c.25.23.25.51.36.77a4.41,4.41,0,0,0,1.18,1.32Z"/><path class="cls-39" d="M512.62,1104.25a5.89,5.89,0,0,1-.82.48h0l-.18.12a2.83,2.83,0,0,1-.43.32,1.64,1.64,0,0,1-.79.12,8.62,8.62,0,0,1-1.34-.17l-.44-.09-.07,0c-.43-.46-.13-1-.06-1.49a2.08,2.08,0,0,0-1.5-2l-.45-.15a7.37,7.37,0,0,1,3.3.06,3.64,3.64,0,0,1,.78.32,4.16,4.16,0,0,0,1.2.63c.15,0,.31.06.46.11a1.16,1.16,0,0,1,.43.31,1,1,0,0,1-.09,1.43Z"/><path class="cls-42" d="M503.05,1101.87h0a.59.59,0,0,1,.65-.14l.18.06.08,0a3.78,3.78,0,0,1,.4.22c.31.17.71.21,1,.38a2.32,2.32,0,0,1,.39.29l1.17,1a2.26,2.26,0,0,0,.54.41l.06,0,.13,0a1.91,1.91,0,0,0,.53,0l.35.07a5,5,0,0,1-2.47.86,5.89,5.89,0,0,1-2.42-.53,3.43,3.43,0,0,1-.71-.39,1.31,1.31,0,0,1-.53-1.38.24.24,0,0,1,0-.08,1.8,1.8,0,0,1,.61-.84Z"/><path class="cls-43" d="M503.94,1097.26s.87-1.4,1.76-1.25,1.82.5,2.6.07,1.83.63,1.34,2.14-6.45.87-5.7-1Z"/><path class="cls-44" d="M503.88,1099.39s.5-2.61,2.72-1.8c1.56.57,2.06-.25,3,0s1.77,1.72,1,3.27-2.37,3.43-4.25,2.52-3.06-2.84-2.47-3.94Z"/><path class="cls-45" d="M507.43,1104a3.29,3.29,0,0,0,3-.67c1.59-1.19,1.46-2.42,1.28-3.84-.11-.91-.55-1.53-1.25-1.64s-1.25,1.26-1.83,1.17-1.76-.57-1.79,1.16-.76,3.39.61,3.82Z"/><path class="cls-35" d="M502.09,1102.73a2.05,2.05,0,0,1-1.64-1.64c-.32-1.83,1-2.72,1.25-3.89s2.28-1.35,2.68-.42,1.35.16,1.43,1.57c0,.69,1.15.69.54,2.21s-4.26,2.17-4.26,2.17Z"/><path class="cls-43" d="M504.7,1105.44s-3.13-.21-3.41-2.91,1.38-1.6,1.73-2.51a1.36,1.36,0,0,1,2.15-.46c.58.58,1.12,0,2,.39s.33,2.08,1,2.19,1.09.13.72,1.47-1.84,1.86-4.18,1.83Z"/><path class="cls-35" d="M474.1,1157.61s1.7-.93,2.64-.29,2.55,1.53,1.29,3.63-.2,2.89-3.2,3.48-4.86,2.94-4.81-.25,4.08-6.57,4.08-6.57Z"/><path class="cls-36" d="M462.28,1156.05s-1.38-1.47-2.4-1.13-2.92.61-2.41,3-.75,2.79,1.89,4.33,3.64,4.37,4.63,1.33-1.71-7.54-1.71-7.54Z"/><path class="cls-37" d="M473.56,1156.72c-1.35-.38-2.72-.7-4.11-1a2.06,2.06,0,0,0-1.13-.23,4.36,4.36,0,0,0-1.28.3c-1.58.55-3.22,1.2-4,2.22a5.1,5.1,0,0,1-.72.14,2.61,2.61,0,0,1,.48-2.63,2.94,2.94,0,0,1,.8-.36l2.87-1h0l1.22-.4a3.88,3.88,0,0,1,1.65-.28,3.07,3.07,0,0,1,2.06,1.25,13.14,13.14,0,0,0,2.17,1.92Z"/><path class="cls-38" d="M470.36,1161.88a2.88,2.88,0,0,1-.65,0l-.16,0-.07,0a3.77,3.77,0,0,1-.66-.49l-1.43-1.28a2.61,2.61,0,0,0-.48-.36c-.37-.2-.86-.25-1.23-.45a3,3,0,0,0-.5-.27l-.09,0-.16,0a1.41,1.41,0,0,0-.58.07h0a.32.32,0,0,0-.25,0,1.18,1.18,0,0,1,.9-.73,5.63,5.63,0,0,1,1.77-.15,7,7,0,0,1,1.58.19l.43.14a2,2,0,0,1,1.45,1.92c-.06.48-.36,1,.06,1.44Z"/><path class="cls-38" d="M469.55,1161.89a.16.16,0,0,1-.09,0,3,3,0,0,1-.66-.49l-1.43-1.27a2.44,2.44,0,0,0-.47-.36c-.38-.2-.87-.26-1.24-.46a4.67,4.67,0,0,0-.49-.27l-.09,0,.1,0a4.67,4.67,0,0,1,.49.27c.37.2.86.26,1.23.46a2.23,2.23,0,0,1,.48.36l1.43,1.27a3.37,3.37,0,0,0,.66.5l.08,0Z"/><path class="cls-35" d="M472.32,1164.13c-.2.45-1,.61-1.76.58s-1.5-.2-2.23-.17-1.42.25-2.17.25a5.66,5.66,0,0,1-2.83-.92c-.39-.24-.77-.5-1.11-.74-.88-.64-1.85-1.46-1.48-2.19.27-.52,1.48-.93,2-1.45a2.56,2.56,0,0,0,.59.72,1.61,1.61,0,0,0,.65,1.68,4.28,4.28,0,0,0,.87.49,7.28,7.28,0,0,0,2.95.64,6,6,0,0,0,3-1,9.5,9.5,0,0,0,1.29.17.8.8,0,0,0,0,.81c.16.39.45.82.28,1.18Z"/><path class="cls-39" d="M463.33,1163.87l-.33.05a6.44,6.44,0,0,1-1.81,0,4.08,4.08,0,0,1-1.52-.56h0a2.16,2.16,0,0,1-1.1-1.41c-.05-.43.11-.87-.13-1.29-.13-.22-.36-.42-.51-.63a1.86,1.86,0,0,1,.05-1.89.82.82,0,0,1,.23-.36.84.84,0,0,1,.39-.15,2.56,2.56,0,0,1,1.09.1,11.62,11.62,0,0,0,1.53.44,5.62,5.62,0,0,0,1.08,0,5.1,5.1,0,0,0,.72-.14,2.33,2.33,0,0,0-.37.65,1,1,0,0,0,.05.8c-.48.51-1.69.93-2,1.45-.37.73.6,1.55,1.48,2.19.34.24.72.5,1.11.74Z"/><path class="cls-40" d="M474.68,1165.08h0a1.63,1.63,0,0,1-1,1,7.12,7.12,0,0,1-1.62.37l-2.75.39c-1.21.17-2.71.28-3.65-.39a1.75,1.75,0,0,1-.45-.45c-.22-.3-.35-.64-.54-1a3.08,3.08,0,0,0-1.67-1.15l.33-.05a5.66,5.66,0,0,0,2.83.92c.75,0,1.42-.23,2.17-.25s1.49.14,2.23.17,1.55-.13,1.76-.58-.12-.79-.28-1.18a.8.8,0,0,1,0-.81,1.54,1.54,0,0,0,.77-.12,2.59,2.59,0,0,0,.41-.31l.18-.11c0,.26,0,.67,0,.8,0,.53.7,1,1.06,1.52a1.38,1.38,0,0,1,.22,1.16Z"/><path class="cls-36" d="M465.21,1166h-1.06a5.3,5.3,0,0,1-.69,0,6.6,6.6,0,0,1-2.61-1,3.3,3.3,0,0,1-.55-.37,1.59,1.59,0,0,1-.33-.57l-.3-.73a4.08,4.08,0,0,0,1.52.56,6.44,6.44,0,0,0,1.81,0,3.08,3.08,0,0,1,1.67,1.15c.19.31.32.65.54,1Z"/><path class="cls-41" d="M471.53,1158.42a23,23,0,0,1-4.76-.24,5.63,5.63,0,0,0-1.77.15,1.18,1.18,0,0,0-.9.73l0,0a2.1,2.1,0,0,0-.74,1l0,.09a2.56,2.56,0,0,1-.59-.72,1,1,0,0,1-.05-.8,2.33,2.33,0,0,1,.37-.65c.8-1,2.44-1.67,4-2.22a4.36,4.36,0,0,1,1.28-.3,2.06,2.06,0,0,1,1.13.23.86.86,0,0,1,.2.13c.3.27.3.62.44.93a5.14,5.14,0,0,0,1.44,1.61Z"/><path class="cls-39" d="M475.75,1162a8,8,0,0,1-1,.59h0l-.22.15a4.15,4.15,0,0,1-.52.39,2,2,0,0,1-1,.14,10,10,0,0,1-1.63-.21c-.2,0-.38-.07-.54-.11l-.09,0c-.53-.56-.15-1.21-.07-1.81a2.55,2.55,0,0,0-1.83-2.43c-.18-.07-.37-.13-.55-.18a9,9,0,0,1,4,.07,3.72,3.72,0,0,1,.95.4,5.42,5.42,0,0,0,1.47.77,5.05,5.05,0,0,1,.56.12,1.36,1.36,0,0,1,.53.39,1.18,1.18,0,0,1-.11,1.74Z"/><path class="cls-42" d="M464.06,1159.09h0a.72.72,0,0,1,.8-.17l.22.06.1,0a4.67,4.67,0,0,1,.49.27c.37.2.86.26,1.23.46a2.23,2.23,0,0,1,.48.36l1.43,1.27a3.37,3.37,0,0,0,.66.5l.08,0a.37.37,0,0,0,.15,0,3,3,0,0,0,.66,0l.42.09a6,6,0,0,1-3,1,7.28,7.28,0,0,1-2.95-.64,4.28,4.28,0,0,1-.87-.49,1.61,1.61,0,0,1-.65-1.68l0-.09a2.1,2.1,0,0,1,.74-1Z"/><path class="cls-43" d="M465.15,1153.46s1.06-1.72,2.15-1.54,2.22.62,3.17.1,2.24.76,1.64,2.61-7.87,1.06-7-1.17Z"/><path class="cls-44" d="M465.07,1156.06s.62-3.2,3.33-2.2c1.91.7,2.52-.31,3.68-.07s2.16,2.1,1.21,4-2.9,4.2-5.19,3.08-3.74-3.47-3-4.81Z"/><path class="cls-45" d="M469.41,1161.67a4,4,0,0,0,3.64-.82c1.95-1.45,1.79-2.95,1.57-4.69-.14-1.1-.68-1.86-1.53-2s-1.52,1.55-2.24,1.43-2.14-.7-2.18,1.42-.93,4.14.74,4.66Z"/><path class="cls-35" d="M462.89,1160.14a2.52,2.52,0,0,1-2-2c-.39-2.23,1.23-3.31,1.53-4.75s2.78-1.65,3.27-.52,1.65.2,1.74,1.92c.05.85,1.41.85.67,2.71s-5.21,2.65-5.21,2.65Z"/><path class="cls-43" d="M466.08,1163.45s-3.83-.26-4.16-3.56,1.68-2,2.1-3.06a1.66,1.66,0,0,1,2.63-.56c.71.71,1.37-.07,2.46.47s.4,2.54,1.2,2.68,1.33.16.88,1.79-2.25,2.28-5.11,2.24Z"/><path class="cls-35" d="M520.48,1121.12s1.71-.93,2.64-.29,2.56,1.53,1.29,3.63-.2,2.89-3.19,3.49-4.87,2.93-4.82-.26,4.08-6.57,4.08-6.57Z"/><path class="cls-36" d="M508.66,1119.56s-1.38-1.47-2.4-1.13-2.92.61-2.4,3-.76,2.79,1.88,4.33,3.64,4.37,4.64,1.33-1.72-7.54-1.72-7.54Z"/><path class="cls-37" d="M519.94,1120.23c-1.35-.38-2.72-.7-4.11-1a2.15,2.15,0,0,0-1.13-.23,4.36,4.36,0,0,0-1.28.3c-1.58.55-3.22,1.2-4,2.22a5.1,5.1,0,0,1-.72.14,2.62,2.62,0,0,1,.49-2.63,2.69,2.69,0,0,1,.8-.36l2.87-1h0l1.22-.41a3.9,3.9,0,0,1,1.65-.28,3.11,3.11,0,0,1,2.06,1.25,13.57,13.57,0,0,0,2.17,1.92Z"/><path class="cls-38" d="M516.74,1125.39a3.63,3.63,0,0,1-.65,0l-.15,0-.08,0a3.33,3.33,0,0,1-.66-.49l-1.43-1.28a2.87,2.87,0,0,0-.47-.35c-.38-.2-.87-.26-1.24-.46a3.36,3.36,0,0,0-.49-.27l-.1,0a.9.9,0,0,0-.16,0,1.36,1.36,0,0,0-.57.08h0a.28.28,0,0,0-.25,0,1.24,1.24,0,0,1,.9-.73,5.66,5.66,0,0,1,1.77-.15,7.67,7.67,0,0,1,1.58.19l.43.14a2,2,0,0,1,1.45,1.92c-.06.48-.36,1,.06,1.44Z"/><path class="cls-38" d="M515.93,1125.41l-.08,0a3.16,3.16,0,0,1-.67-.5l-1.42-1.27a2.51,2.51,0,0,0-.48-.36c-.38-.2-.87-.26-1.24-.46a4.67,4.67,0,0,0-.49-.27l-.09,0a.19.19,0,0,1,.1,0,4.59,4.59,0,0,1,.49.26c.37.21.86.26,1.24.46a2.51,2.51,0,0,1,.48.36l1.42,1.28a3.51,3.51,0,0,0,.67.49l.07,0Z"/><path class="cls-35" d="M518.7,1127.65c-.2.44-1,.6-1.76.57s-1.5-.19-2.23-.17-1.42.25-2.17.25a5.66,5.66,0,0,1-2.83-.92c-.39-.24-.76-.49-1.11-.74-.88-.64-1.84-1.46-1.48-2.19.27-.52,1.48-.93,2-1.44a2.66,2.66,0,0,0,.59.71,1.65,1.65,0,0,0,.65,1.69,4.53,4.53,0,0,0,.87.48,7.28,7.28,0,0,0,2.95.64,6,6,0,0,0,3-1,9.15,9.15,0,0,0,1.28.17.83.83,0,0,0,0,.81c.16.39.45.82.28,1.19Z"/><path class="cls-39" d="M509.71,1127.38l-.33,0a6.09,6.09,0,0,1-1.81,0,3.81,3.81,0,0,1-1.51-.56h0a2.16,2.16,0,0,1-1.1-1.41c-.05-.43.11-.87-.13-1.29-.13-.22-.36-.42-.51-.63a1.86,1.86,0,0,1,.05-1.89.82.82,0,0,1,.23-.36.84.84,0,0,1,.4-.15,2.53,2.53,0,0,1,1.08.1,10.27,10.27,0,0,0,1.53.44,4.91,4.91,0,0,0,1.08,0,5.1,5.1,0,0,0,.72-.14,2.3,2.3,0,0,0-.36.65,1,1,0,0,0,0,.81c-.48.51-1.69.92-2,1.44-.36.73.6,1.55,1.48,2.19.35.25.72.5,1.11.74Z"/><path class="cls-40" d="M521.06,1128.59h0a1.64,1.64,0,0,1-1,1,6.63,6.63,0,0,1-1.62.37l-2.75.39c-1.21.17-2.71.28-3.65-.39a1.92,1.92,0,0,1-.45-.45,9.92,9.92,0,0,1-.53-1,3.16,3.16,0,0,0-1.68-1.15l.33,0a5.66,5.66,0,0,0,2.83.92c.75,0,1.43-.22,2.17-.25s1.49.14,2.23.17,1.56-.13,1.76-.57-.12-.8-.28-1.19a.83.83,0,0,1,0-.81,1.54,1.54,0,0,0,.77-.12,2.17,2.17,0,0,0,.42-.31l.17-.11c0,.26,0,.67,0,.8,0,.53.7,1,1.05,1.52a1.35,1.35,0,0,1,.22,1.16Z"/><path class="cls-36" d="M511.59,1129.53h-1.06a5.3,5.3,0,0,1-.69,0,6.45,6.45,0,0,1-2.61-1,2.7,2.7,0,0,1-.54-.37,1.54,1.54,0,0,1-.34-.57c-.1-.24-.2-.49-.29-.73a3.81,3.81,0,0,0,1.51.56,6.09,6.09,0,0,0,1.81,0,3.16,3.16,0,0,1,1.68,1.15,9.92,9.92,0,0,0,.53,1Z"/><path class="cls-41" d="M517.91,1121.94a7,7,0,0,0-3.18-.06,7.58,7.58,0,0,0-1.58-.19,5.66,5.66,0,0,0-1.77.15,1.24,1.24,0,0,0-.9.73l0,0a2.16,2.16,0,0,0-.74,1l0,.09a2.86,2.86,0,0,1-.59-.71,1,1,0,0,1,0-.81,2.3,2.3,0,0,1,.36-.65c.8-1,2.44-1.67,4-2.22a4.36,4.36,0,0,1,1.28-.3,2.15,2.15,0,0,1,1.13.23.86.86,0,0,1,.2.13c.3.27.3.62.44.93a5.27,5.27,0,0,0,1.44,1.62Z"/><path class="cls-39" d="M522.13,1125.5a7.84,7.84,0,0,1-1,.59h0l-.23.15a3.53,3.53,0,0,1-.52.39,2.06,2.06,0,0,1-1,.15,12.75,12.75,0,0,1-1.63-.21l-.54-.12h-.08c-.53-.57-.16-1.21-.08-1.82a2.55,2.55,0,0,0-1.83-2.43,5.05,5.05,0,0,0-.55-.18,9,9,0,0,1,4,.07,3.79,3.79,0,0,1,1,.4,5.14,5.14,0,0,0,1.47.77,3.39,3.39,0,0,1,.55.13,1.14,1.14,0,0,1,.53.38,1.18,1.18,0,0,1-.11,1.74Z"/><path class="cls-42" d="M510.44,1122.6h0a.73.73,0,0,1,.8-.17l.22.07a.19.19,0,0,1,.1,0,4.59,4.59,0,0,1,.49.26c.37.21.86.26,1.24.46a2.51,2.51,0,0,1,.48.36l1.42,1.28a3.51,3.51,0,0,0,.67.49l.07,0,.16,0a2.91,2.91,0,0,0,.65,0l.43.09a6,6,0,0,1-3,1,7.28,7.28,0,0,1-2.95-.64,4.08,4.08,0,0,1-.87-.49,1.61,1.61,0,0,1-.65-1.68l0-.09a2.16,2.16,0,0,1,.74-1Z"/><path class="cls-43" d="M511.53,1117s1.07-1.72,2.16-1.54,2.22.62,3.16.1,2.24.76,1.64,2.61-7.87,1.07-7-1.17Z"/><path class="cls-44" d="M511.45,1119.57s.62-3.2,3.34-2.2c1.9.7,2.51-.31,3.67-.06s2.16,2.09,1.21,4-2.9,4.2-5.19,3.08-3.74-3.47-3-4.81Z"/><path class="cls-45" d="M515.79,1125.19a4,4,0,0,0,3.64-.82c2-1.46,1.79-3,1.57-4.7-.14-1.1-.67-1.86-1.53-2s-1.52,1.55-2.23,1.43-2.15-.7-2.19,1.42-.92,4.14.74,4.67Z"/><path class="cls-35" d="M509.27,1123.65a2.52,2.52,0,0,1-2-2c-.39-2.23,1.23-3.31,1.53-4.75s2.78-1.65,3.27-.52,1.65.2,1.75,1.92c0,.85,1.4.86.66,2.71s-5.21,2.65-5.21,2.65Z"/><path class="cls-43" d="M512.46,1127s-3.83-.26-4.16-3.55,1.68-2,2.11-3.07a1.65,1.65,0,0,1,2.62-.56c.71.71,1.37-.07,2.46.47s.4,2.54,1.2,2.68,1.33.16.88,1.79-2.25,2.28-5.11,2.24Z"/><path class="cls-36" d="M440.74,1126.39s-1.42-1.56-2.6-1.23-3.16.67-2.61,3.26-.81,3,2,4.69,3.94,4.72,5,1.44-1.85-8.16-1.85-8.16Z"/><path class="cls-35" d="M453.37,1129s1.94-1,2.86-.31,2.77,1.65,1.4,3.92-.22,3.13-3.46,3.77-5.26,3.18-5.21-.27,4.41-7.11,4.41-7.11Z"/><path class="cls-37" d="M441.6,1125.67c1.52.09,3,.24,4.55.45a2.3,2.3,0,0,1,1.23.17,4.88,4.88,0,0,1,1.21.76c1.42,1.12,2.86,2.36,3.32,3.69a6.56,6.56,0,0,0,.69.4,2.81,2.81,0,0,0,.43-2.86,2.7,2.7,0,0,0-.69-.65c-.86-.67-1.73-1.33-2.6-2h0l-1.1-.84a4.31,4.31,0,0,0-1.59-.87,3.35,3.35,0,0,0-2.55.55,14.6,14.6,0,0,1-2.9,1.2Z"/><path class="cls-38" d="M443.05,1132.08a2.8,2.8,0,0,0,.65.27.51.51,0,0,0,.17,0H444a3.53,3.53,0,0,0,.85-.27l1.91-.8a3,3,0,0,1,.62-.2c.45-.07,1,0,1.43,0a3.76,3.76,0,0,1,.6-.1h.1a.52.52,0,0,1,.18,0,1.48,1.48,0,0,1,.56.28h0a.3.3,0,0,1,.25.12,1.3,1.3,0,0,0-.66-1.07,6.15,6.15,0,0,0-1.76-.78,7.52,7.52,0,0,0-1.68-.36,4.17,4.17,0,0,0-.5,0,2.17,2.17,0,0,0-2.15,1.45c-.11.51,0,1.14-.57,1.45Z"/><path class="cls-38" d="M443.88,1132.38H444a3.53,3.53,0,0,0,.85-.27l1.91-.8a3,3,0,0,1,.62-.2c.45-.07,1,0,1.43,0a3.76,3.76,0,0,1,.6-.1h0a3.83,3.83,0,0,0-.59.1c-.46.07-1,0-1.43,0a3,3,0,0,0-.62.2l-1.91.8a3.53,3.53,0,0,1-.85.27Z"/><path class="cls-35" d="M440.25,1133.69c.05.53.83,1,1.6,1.21s1.6.33,2.34.61,1.36.76,2.13,1a6,6,0,0,0,3.22,0c.49-.1,1-.23,1.4-.36,1.12-.34,2.4-.84,2.28-1.71-.09-.63-1.18-1.49-1.49-2.18a2.79,2.79,0,0,1-.86.52,1.74,1.74,0,0,1-1.26,1.5,4.43,4.43,0,0,1-1.06.19,8,8,0,0,1-3.25-.39,6.69,6.69,0,0,1-2.72-2.14,8.15,8.15,0,0,1-1.37-.29.9.9,0,0,1-.25.85c-.31.34-.76.68-.71,1.11Z"/><path class="cls-39" d="M449.54,1136.59l.32.17a6.72,6.72,0,0,0,1.84.66,4.46,4.46,0,0,0,1.75,0h0a2.35,2.35,0,0,0,1.63-1.06c.21-.42.19-.92.59-1.27.21-.18.51-.3.74-.47a2,2,0,0,0,.62-1.94,1,1,0,0,0-.11-.46,1,1,0,0,0-.35-.29,2.82,2.82,0,0,0-1.14-.28,11.08,11.08,0,0,1-1.73-.09,5.88,5.88,0,0,1-1.1-.39,6.56,6.56,0,0,1-.69-.4,2.4,2.4,0,0,1,.15.79,1.06,1.06,0,0,1-.33.81c.31.69,1.4,1.55,1.49,2.18.12.87-1.16,1.37-2.28,1.71-.44.13-.91.26-1.4.36Z"/><path class="cls-40" d="M437.5,1133.83h0a1.75,1.75,0,0,0,.65,1.39,7.48,7.48,0,0,0,1.53,1l2.68,1.37c1.17.6,2.67,1.25,3.87.89a2,2,0,0,0,.62-.3c.33-.23.58-.53.88-.78a3.4,3.4,0,0,1,2.12-.59l-.32-.17a6,6,0,0,1-3.22,0c-.77-.27-1.38-.74-2.13-1s-1.58-.38-2.34-.61-1.55-.68-1.6-1.21.4-.77.71-1.11a.9.9,0,0,0,.25-.85,1.75,1.75,0,0,1-.75-.38,3.46,3.46,0,0,1-.31-.47l-.14-.18c-.1.27-.21.7-.26.83-.2.54-1.07.79-1.61,1.18a1.53,1.53,0,0,0-.64,1.12Z"/><path class="cls-36" d="M446.86,1138.13l1.08.39a7.39,7.39,0,0,0,.71.24,6.94,6.94,0,0,0,3-.09,2.91,2.91,0,0,0,.69-.18,1.67,1.67,0,0,0,.55-.46c.18-.22.37-.43.55-.64a4.46,4.46,0,0,1-1.75,0,6.72,6.72,0,0,1-1.84-.66,3.4,3.4,0,0,0-2.12.59c-.3.25-.55.55-.88.78Z"/><path class="cls-41" d="M443.07,1128.13a7.66,7.66,0,0,1,3.28,1.07,7.52,7.52,0,0,1,1.68.36,6.15,6.15,0,0,1,1.76.78,1.32,1.32,0,0,1,.66,1.07l0,0a2.39,2.39,0,0,1,.4,1.32s0,.07,0,.1a2.68,2.68,0,0,0,.86-.52,1.06,1.06,0,0,0,.33-.81,2.4,2.4,0,0,0-.15-.79c-.46-1.33-1.9-2.57-3.32-3.69a4.88,4.88,0,0,0-1.21-.76,2.3,2.3,0,0,0-1.23-.17,1.49,1.49,0,0,0-.25.07c-.41.17-.53.53-.78.8a5.59,5.59,0,0,1-2.05,1.14Z"/><path class="cls-39" d="M437.5,1130.28a7.11,7.11,0,0,0,.81,1h0c.06.08.12.15.17.23a4.7,4.7,0,0,0,.4.59,2.22,2.22,0,0,0,.94.49,11.69,11.69,0,0,0,1.74.36l.59.08h.1c.74-.39.58-1.19.72-1.84a2.75,2.75,0,0,1,2.73-1.83c.2,0,.41,0,.62,0a9.47,9.47,0,0,0-4.14-1.35,4.42,4.42,0,0,0-1.11.07,5.81,5.81,0,0,1-1.78.27c-.21,0-.41-.07-.62-.07a1.4,1.4,0,0,0-.67.21,1.27,1.27,0,0,0-.5,1.81Z"/><path class="cls-42" d="M450.48,1131.44h0a.78.78,0,0,0-.75-.45h-.37a3.83,3.83,0,0,0-.59.1c-.46.07-1,0-1.43,0a3,3,0,0,0-.62.2l-1.91.8a3.53,3.53,0,0,1-.85.27h-.08a.51.51,0,0,1-.17,0,2.87,2.87,0,0,1-.66-.27l-.47-.06a6.69,6.69,0,0,0,2.72,2.14,8,8,0,0,0,3.25.39,4.43,4.43,0,0,0,1.06-.19,1.74,1.74,0,0,0,1.26-1.5s0-.07,0-.1a2.39,2.39,0,0,0-.4-1.32Z"/><path class="cls-43" d="M443.77,1124.74s1.12,1.88,2.31,1.7,2.41-.62,3.42,0,2.44-.79,1.82-2.8-8.5-1.29-7.55,1.14Z"/><path class="cls-44" d="M450.51,1128s.5-3.49-2.63-3.43c-2.19,0-2.46-1.2-3.73-1.36s-2.95,1.38-2.65,3.66,1.48,5.31,4.22,5,5-2.23,4.79-3.85Z"/><path class="cls-35" d="M444.1,1132.2a4.34,4.34,0,0,1-3.44-2.12c-1.48-2.18-.79-3.66,0-5.36.54-1.07,1.35-1.66,2.27-1.5s1,2.12,1.79,2.25,2.44,0,1.73,2.23-.52,4.56-2.4,4.5Z"/><path class="cls-45" d="M451.3,1132.93a2.73,2.73,0,0,0,2.76-1.35c1.19-2.14-.08-3.82.11-5.39s-2.25-2.67-3.16-1.69-1.76-.38-2.46,1.35c-.35.85-1.74.38-1.64,2.53s4.39,4.55,4.39,4.55Z"/><path class="cls-43" d="M446.88,1135.19s4,1.09,5.51-2.16-1-2.6-1.08-3.88a1.79,1.79,0,0,0-2.49-1.5c-1,.47-1.37-.55-2.67-.39s-1.31,2.46-2.18,2.32-1.41-.31-1.53,1.52,1.49,3.12,4.44,4.09Z"/><path class="cls-36" d="M465.4,1097s-1.16-1.27-2.13-1-2.59.54-2.13,2.67-.67,2.47,1.67,3.84,3.22,3.86,4.1,1.17-1.51-6.68-1.51-6.68Z"/><path class="cls-35" d="M475.74,1099.14s1.58-.83,2.34-.25,2.27,1.36,1.14,3.22-.17,2.55-2.83,3.08-4.31,2.6-4.26-.23,3.61-5.82,3.61-5.82Z"/><path class="cls-37" d="M466.11,1096.44c1.23.08,2.48.2,3.71.38a1.9,1.9,0,0,1,1,.13,4,4,0,0,1,1,.63,8,8,0,0,1,2.73,3,3.76,3.76,0,0,0,.56.33,2.28,2.28,0,0,0,.35-2.34,2.2,2.2,0,0,0-.56-.53l-2.13-1.63h0l-.91-.69a3.35,3.35,0,0,0-1.3-.71,2.77,2.77,0,0,0-2.09.46,12,12,0,0,1-2.36,1Z"/><path class="cls-38" d="M467.29,1101.69a3,3,0,0,0,.53.23l.14,0H468a2.15,2.15,0,0,0,.69-.22l1.57-.65a2.09,2.09,0,0,1,.5-.16c.37-.06.8,0,1.17,0a4.17,4.17,0,0,1,.49-.08h.09a.58.58,0,0,1,.14,0,1.16,1.16,0,0,1,.46.22h0a.26.26,0,0,1,.2.1,1.07,1.07,0,0,0-.54-.87,5,5,0,0,0-1.44-.64,6.68,6.68,0,0,0-1.38-.3h-.41a1.77,1.77,0,0,0-1.76,1.18c-.09.42,0,.94-.47,1.19Z"/><path class="cls-38" d="M468,1101.94H468a2.87,2.87,0,0,0,.7-.22l1.57-.66a2.26,2.26,0,0,1,.5-.16c.37-.06.8,0,1.17,0a3.58,3.58,0,0,1,.49-.08h0a4.17,4.17,0,0,0-.49.08c-.37.06-.8,0-1.17,0a2,2,0,0,0-.5.16l-1.57.66a2.42,2.42,0,0,1-.69.21Z"/><path class="cls-35" d="M465,1103c0,.44.67.81,1.3,1s1.32.27,1.92.5,1.12.62,1.75.84a5,5,0,0,0,2.63.05c.4-.09.79-.19,1.15-.3.92-.28,2-.69,1.87-1.4-.07-.52-1-1.22-1.23-1.78a2.14,2.14,0,0,1-.7.42,1.43,1.43,0,0,1-1,1.23,3.36,3.36,0,0,1-.86.15,6.47,6.47,0,0,1-2.66-.31,5.38,5.38,0,0,1-2.23-1.76,7.3,7.3,0,0,1-1.13-.23.74.74,0,0,1-.2.69c-.25.28-.62.56-.58.91Z"/><path class="cls-39" d="M472.6,1105.39l.27.13a5.38,5.38,0,0,0,1.5.55,3.66,3.66,0,0,0,1.44,0h0a1.91,1.91,0,0,0,1.33-.87c.17-.34.16-.76.48-1a6.25,6.25,0,0,1,.61-.38,1.64,1.64,0,0,0,.51-1.59.71.71,0,0,0-.1-.37.76.76,0,0,0-.28-.25,2.41,2.41,0,0,0-.94-.23,8.33,8.33,0,0,1-1.41-.07,4.28,4.28,0,0,1-.9-.32,3.76,3.76,0,0,1-.56-.33,2.48,2.48,0,0,1,.12.65.9.9,0,0,1-.28.67c.26.56,1.16,1.26,1.23,1.78.09.71-.95,1.12-1.87,1.4-.36.11-.75.21-1.15.3Z"/><path class="cls-40" d="M462.75,1103.12h0a1.48,1.48,0,0,0,.54,1.15,6.14,6.14,0,0,0,1.25.77l2.19,1.12a4.69,4.69,0,0,0,3.17.73,1.6,1.6,0,0,0,.51-.24c.27-.19.48-.44.72-.64a2.79,2.79,0,0,1,1.74-.49l-.27-.13a5,5,0,0,1-2.63-.05c-.63-.22-1.13-.6-1.75-.84s-1.29-.31-1.92-.5-1.26-.55-1.3-1,.33-.63.58-.91a.74.74,0,0,0,.2-.69,1.45,1.45,0,0,1-.61-.32,2.26,2.26,0,0,1-.25-.38l-.12-.15c-.08.23-.17.58-.21.68-.17.45-.88.64-1.32,1a1.21,1.21,0,0,0-.52.91Z"/><path class="cls-36" d="M470.41,1106.65l.88.31a4.33,4.33,0,0,0,3,.13,2.29,2.29,0,0,0,.56-.15,1.3,1.3,0,0,0,.45-.38l.46-.52a3.66,3.66,0,0,1-1.44,0,5.38,5.38,0,0,1-1.5-.55,2.85,2.85,0,0,0-1.74.48,9,9,0,0,1-.72.65Z"/><path class="cls-41" d="M467.31,1098.46a6.28,6.28,0,0,1,2.68.87,6.68,6.68,0,0,1,1.38.3,5,5,0,0,1,1.44.64,1.07,1.07,0,0,1,.54.87l0,0a1.87,1.87,0,0,1,.33,1.08.19.19,0,0,1,0,.08,2.14,2.14,0,0,0,.7-.42.9.9,0,0,0,.28-.67,2.48,2.48,0,0,0-.12-.65,8,8,0,0,0-2.73-3,4,4,0,0,0-1-.63,1.9,1.9,0,0,0-1-.13l-.2,0c-.33.14-.43.43-.64.65a4.55,4.55,0,0,1-1.67.94Z"/><path class="cls-39" d="M462.74,1100.22a6.85,6.85,0,0,0,.67.79h0l.14.18a3.51,3.51,0,0,0,.33.49,1.9,1.9,0,0,0,.77.4,9.93,9.93,0,0,0,1.42.29l.49.06h.07c.61-.32.48-1,.59-1.5a2.26,2.26,0,0,1,2.24-1.5,4.34,4.34,0,0,1,.51,0,8,8,0,0,0-3.39-1.11,3.8,3.8,0,0,0-.91.06,4.69,4.69,0,0,1-1.46.22,2.83,2.83,0,0,0-.5,0,1.05,1.05,0,0,0-.55.17,1,1,0,0,0-.42,1.48Z"/><path class="cls-42" d="M473.37,1101.17h0c0-.2-.31-.36-.61-.37h-.3a4.17,4.17,0,0,0-.49.08c-.37.06-.8,0-1.17,0a2,2,0,0,0-.5.16l-1.57.66a2.42,2.42,0,0,1-.69.21H468l-.14,0a3.13,3.13,0,0,1-.54-.23l-.38,0a5.38,5.38,0,0,0,2.23,1.76,6.47,6.47,0,0,0,2.66.31,3.86,3.86,0,0,0,.86-.15,1.43,1.43,0,0,0,1-1.23.22.22,0,0,0,0-.08,1.87,1.87,0,0,0-.33-1.08Z"/><path class="cls-43" d="M467.88,1095.69s.92,1.53,1.89,1.39,2-.52,2.8,0,2-.65,1.49-2.29-7-1.06-6.18.94Z"/><path class="cls-44" d="M473.4,1098.34s.41-2.85-2.15-2.8c-1.8,0-2-1-3.06-1.12s-2.42,1.13-2.17,3,1.21,4.35,3.46,4.08,4.13-1.83,3.92-3.16Z"/><path class="cls-35" d="M468.15,1101.79a3.55,3.55,0,0,1-2.82-1.74c-1.21-1.78-.64-3,.05-4.38a1.8,1.8,0,0,1,1.86-1.23c.75.12.83,1.73,1.46,1.84s2,0,1.41,1.82-.42,3.74-2,3.69Z"/><path class="cls-45" d="M474.05,1102.39a2.22,2.22,0,0,0,2.25-1.11c1-1.75-.06-3.12.1-4.41s-1.85-2.19-2.59-1.38-1.44-.31-2,1.1c-.28.7-1.42.31-1.34,2.08s3.6,3.72,3.6,3.72Z"/><path class="cls-43" d="M470.42,1104.24s3.28.89,4.51-1.77-.84-2.13-.87-3.18a1.48,1.48,0,0,0-2-1.23c-.8.39-1.13-.45-2.19-.31s-1.07,2-1.78,1.89-1.16-.24-1.26,1.25,1.22,2.56,3.63,3.35Z"/><path class="cls-36" d="M488.68,1150.89s-1.42-1.55-2.6-1.22-3.16.66-2.6,3.25-.82,3,2,4.69,3.93,4.73,5,1.44-1.85-8.16-1.85-8.16Z"/><path class="cls-35" d="M501.32,1153.47s1.93-1,2.85-.31,2.77,1.66,1.4,3.93-.21,3.12-3.46,3.77-5.26,3.18-5.21-.28,4.42-7.11,4.42-7.11Z"/><path class="cls-37" d="M489.55,1150.17c1.51.09,3,.24,4.54.45a2.35,2.35,0,0,1,1.24.17,5,5,0,0,1,1.2.76c1.42,1.12,2.87,2.37,3.33,3.69a5,5,0,0,0,.69.4,2.85,2.85,0,0,0,.43-2.86,3.08,3.08,0,0,0-.69-.65l-2.6-2h0c-.36-.29-.73-.57-1.1-.85a4.23,4.23,0,0,0-1.59-.87,3.35,3.35,0,0,0-2.55.55,14.74,14.74,0,0,1-2.89,1.2Z"/><path class="cls-38" d="M491,1156.58a2.73,2.73,0,0,0,.64.27l.17,0h.09a3.84,3.84,0,0,0,.85-.27l1.91-.8a2.73,2.73,0,0,1,.61-.2c.46-.07,1,0,1.43,0a4,4,0,0,1,.6-.1h.11l.17,0a1.41,1.41,0,0,1,.56.28h0c.07,0,.18,0,.25.12a1.35,1.35,0,0,0-.66-1.07,6.4,6.4,0,0,0-1.76-.78,7.6,7.6,0,0,0-1.69-.36,4,4,0,0,0-.49,0,2.18,2.18,0,0,0-2.16,1.45c-.11.52,0,1.14-.57,1.45Z"/><path class="cls-38" d="M491.82,1156.88h.1a3.84,3.84,0,0,0,.85-.27l1.91-.8a2.73,2.73,0,0,1,.61-.2c.46-.07,1,.05,1.43,0a4,4,0,0,1,.6-.1h0a4,4,0,0,0-.6.1c-.45.07-1,0-1.43,0a2.73,2.73,0,0,0-.61.2l-1.92.8a3.53,3.53,0,0,1-.85.27Z"/><path class="cls-35" d="M488.19,1158.19c.05.54.83,1,1.6,1.21s1.6.33,2.34.61,1.37.76,2.14,1a5.94,5.94,0,0,0,3.21,0c.49-.1,1-.23,1.4-.36,1.13-.34,2.4-.84,2.28-1.71-.08-.63-1.18-1.48-1.49-2.18a2.68,2.68,0,0,1-.86.52,1.73,1.73,0,0,1-1.26,1.5,4.35,4.35,0,0,1-1.05.19,7.81,7.81,0,0,1-3.25-.39,6.48,6.48,0,0,1-2.72-2.14,9.38,9.38,0,0,1-1.38-.28.89.89,0,0,1-.25.84c-.31.35-.75.68-.71,1.11Z"/><path class="cls-39" d="M497.48,1161.09l.32.17a6.85,6.85,0,0,0,1.84.66,4.28,4.28,0,0,0,1.75,0h0a2.33,2.33,0,0,0,1.62-1.06c.21-.42.2-.92.59-1.27.21-.18.52-.3.75-.47a2,2,0,0,0,.61-1.94.91.91,0,0,0-.11-.45,1,1,0,0,0-.34-.3,2.91,2.91,0,0,0-1.15-.28,11,11,0,0,1-1.72-.09,5.43,5.43,0,0,1-1.1-.39,5,5,0,0,1-.69-.4,2.44,2.44,0,0,1,.14.79,1,1,0,0,1-.33.81c.31.7,1.41,1.55,1.49,2.18.12.87-1.15,1.37-2.28,1.71-.44.13-.91.26-1.4.36Z"/><path class="cls-40" d="M485.45,1158.33h0a1.76,1.76,0,0,0,.66,1.4,7.11,7.11,0,0,0,1.52.94l2.68,1.37c1.17.61,2.67,1.25,3.87.9a2.31,2.31,0,0,0,.63-.31c.32-.23.57-.52.87-.78a3.44,3.44,0,0,1,2.12-.59l-.32-.17a5.94,5.94,0,0,1-3.21,0c-.77-.27-1.38-.73-2.14-1s-1.57-.38-2.34-.61-1.55-.67-1.6-1.21.4-.76.71-1.11a.89.89,0,0,0,.25-.84,1.71,1.71,0,0,1-.74-.39,3.55,3.55,0,0,1-.32-.47l-.14-.18c-.1.27-.21.71-.25.83-.21.54-1.08.79-1.62,1.19a1.45,1.45,0,0,0-.63,1.11Z"/><path class="cls-36" d="M494.81,1162.63l1.07.39a5.93,5.93,0,0,0,.71.24,7.09,7.09,0,0,0,3-.08,2.91,2.91,0,0,0,.69-.19,1.57,1.57,0,0,0,.55-.46l.56-.64a4.33,4.33,0,0,1-1.76,0,6.72,6.72,0,0,1-1.84-.66,3.44,3.44,0,0,0-2.12.59,10.75,10.75,0,0,1-.87.78Z"/><path class="cls-41" d="M491,1152.63a7.62,7.62,0,0,1,3.27,1.07,7.4,7.4,0,0,1,1.68.36,6.15,6.15,0,0,1,1.76.78,1.34,1.34,0,0,1,.67,1.07l0,0a2.28,2.28,0,0,1,.4,1.31.31.31,0,0,1,0,.1,2.68,2.68,0,0,0,.86-.52,1,1,0,0,0,.33-.81,2.44,2.44,0,0,0-.14-.79c-.46-1.32-1.91-2.57-3.33-3.69a5,5,0,0,0-1.2-.76,2.24,2.24,0,0,0-1.24-.16,1,1,0,0,0-.25.06c-.41.17-.52.53-.78.8a5.63,5.63,0,0,1-2,1.14Z"/><path class="cls-39" d="M485.44,1154.78a7.93,7.93,0,0,0,.81,1h0l.18.22a3.76,3.76,0,0,0,.39.59,2.27,2.27,0,0,0,.95.49,11.19,11.19,0,0,0,1.74.36l.59.08h.09c.74-.39.59-1.18.72-1.83a2.76,2.76,0,0,1,2.73-1.84c.21,0,.42,0,.63,0a9.78,9.78,0,0,0-4.15-1.35,4.45,4.45,0,0,0-1.11.07,5.8,5.8,0,0,1-1.77.27c-.21,0-.42-.07-.62-.07a1.44,1.44,0,0,0-.68.21,1.27,1.27,0,0,0-.5,1.81Z"/><path class="cls-42" d="M498.42,1156h0a.75.75,0,0,0-.75-.46h-.36a4,4,0,0,0-.6.1c-.45.07-1,0-1.43,0a2.73,2.73,0,0,0-.61.2l-1.91.8a3.76,3.76,0,0,1-.86.27h-.08l-.17,0a2.8,2.8,0,0,1-.65-.27l-.47-.06a6.48,6.48,0,0,0,2.72,2.14,7.81,7.81,0,0,0,3.25.39,4.35,4.35,0,0,0,1.05-.19,1.73,1.73,0,0,0,1.26-1.5.31.31,0,0,0,0-.1,2.28,2.28,0,0,0-.4-1.31Z"/><path class="cls-43" d="M491.71,1149.24s1.13,1.88,2.31,1.71,2.41-.63,3.43,0,2.44-.79,1.82-2.8-8.51-1.29-7.56,1.14Z"/><path class="cls-44" d="M498.46,1152.49s.5-3.49-2.64-3.42c-2.19,0-2.46-1.21-3.73-1.37s-2.95,1.38-2.65,3.66,1.48,5.32,4.23,5,5-2.23,4.79-3.86Z"/><path class="cls-35" d="M492,1156.71a4.36,4.36,0,0,1-3.44-2.13c-1.48-2.18-.78-3.65.06-5.35.53-1.08,1.34-1.67,2.27-1.51s1,2.12,1.78,2.25,2.44,0,1.73,2.23-.51,4.56-2.4,4.51Z"/><path class="cls-45" d="M499.25,1157.44a2.71,2.71,0,0,0,2.75-1.36c1.19-2.13-.08-3.82.12-5.39S499.86,1148,499,1149s-1.76-.38-2.47,1.35c-.35.86-1.74.38-1.63,2.54s4.39,4.55,4.39,4.55Z"/><path class="cls-43" d="M494.82,1159.7s4,1.08,5.51-2.17-1-2.6-1.07-3.88a1.79,1.79,0,0,0-2.49-1.5c-1,.47-1.38-.55-2.68-.39s-1.31,2.46-2.17,2.32-1.42-.3-1.54,1.53,1.5,3.11,4.44,4.09Z"/><path class="cls-34" d="M437,1120.53a.77.77,0,0,0,0-1.53.77.77,0,0,0,0,1.53Z"/><path class="cls-34" d="M513.48,1137.15a.77.77,0,0,0,0-1.53.77.77,0,0,0,0,1.53Z"/><path class="cls-34" d="M477.32,1114.16a.77.77,0,0,0,0-1.53.77.77,0,0,0,0,1.53Z"/><path class="cls-33" d="M458.55,1103.22a.77.77,0,0,0,0-1.53.77.77,0,0,0,0,1.53Z"/><path class="cls-46" d="M654.63,1120.49s1.06,4-4.88,5.23c-6.25,1.29-7.46-1.21-7.64-1.92a6.64,6.64,0,0,1,4.85-8,6.19,6.19,0,0,1,7.67,4.72Z"/><path class="cls-47" d="M635.11,1102.24c.36,2.85,1.17,5.8,3.22,7.81l.18.17h0a29.11,29.11,0,0,0,5,3.16h0l.09,0c1.79,1.1,3.51,2.68,3.81,4.76,0,0,.1.16.27.27h0c.27.19.66.38.72.31a.47.47,0,0,0,0-.4s0,0,0,0a12.81,12.81,0,0,1-.85-2.41,9.88,9.88,0,0,1,.1-1.88,4.94,4.94,0,0,0,0-.86,4.32,4.32,0,0,0-1.82-2.91,6.71,6.71,0,0,0-.71-.47h0a20.86,20.86,0,0,0-2.44-1.14l-.55-.23c-3-1.31-6.08-3.13-7-6.22Z"/><path class="cls-48" d="M647.57,1116a12.81,12.81,0,0,0,.85,2.41s0,0,0,0c.36-.89.94-2,1.34-2.81a3.11,3.11,0,0,1,2-1.78,23.6,23.6,0,0,1,5.63,2.54,1.15,1.15,0,0,0,1,.25.75.75,0,0,0,.37-.85,2.26,2.26,0,0,0-.49-.88c-1-1.26-2.06-2.59-3.59-3l-.17,0a8,8,0,0,0-3.69.27,9.18,9.18,0,0,0-1.49.45h0a3.88,3.88,0,0,0-.63.35,2.6,2.6,0,0,0-.43.38,4.64,4.64,0,0,0-.58.85,9.88,9.88,0,0,0-.1,1.88Z"/><path class="cls-49" d="M642.15,1108.46l.55.23a20.86,20.86,0,0,1,2.44,1.14h0a6.71,6.71,0,0,1,.71.47,4.32,4.32,0,0,1,1.82,2.91,4.94,4.94,0,0,1,0,.86,4.64,4.64,0,0,1,.58-.85c-.36-1.27.14-2.63.37-4,0-.19.06-.38.08-.57h0a9.76,9.76,0,0,0-1.28-5.91,19.7,19.7,0,0,0-1.17-1.7l-2.75-3.69a.9.9,0,0,0-.46-.38c-.49-.12-.75.55-.79,1a44.13,44.13,0,0,0-.1,10.4Z"/><path class="cls-50" d="M648.25,1113.22a2.6,2.6,0,0,1,.43-.38,3.88,3.88,0,0,1,.63-.35h0a9.18,9.18,0,0,1,1.49-.45,8,8,0,0,1,3.69-.27,14.44,14.44,0,0,0,4.59-2.51,7.28,7.28,0,0,0,2.21-6.3,1.13,1.13,0,0,0-.33-.74,1.23,1.23,0,0,0-.6-.2,7.39,7.39,0,0,0-2.34-.11c-1.33.22-2.42,1.15-3.63,1.73a17.63,17.63,0,0,0-3,1.44,7.41,7.41,0,0,0-.83.81,9.48,9.48,0,0,0-1.87,2.8h0c0,.19-.05.38-.08.57-.23,1.32-.73,2.68-.37,4Z"/><path class="cls-51" d="M632,1117.82a8.86,8.86,0,0,0,6.34.45,5.54,5.54,0,0,0,2.26-1c.4-.35.72-.79,1.13-1.11a4.19,4.19,0,0,1,3-.7c1,.53,2.24,2,2.1,3a.59.59,0,0,0,.9.06c-.17-.11-.29-.22-.27-.27-.3-2.08-2-3.66-3.81-4.76l-.09,0h0a29.11,29.11,0,0,1-5-3.16h0a6.18,6.18,0,0,0-3.11.88,4.21,4.21,0,0,0-1.34.9,3.8,3.8,0,0,0-.66,1.2,32.56,32.56,0,0,0-1.45,4.62Z"/><path class="cls-52" d="M649.4,1112.69a1,1,0,0,1,0-.46,1.62,1.62,0,0,1,.2-.42,3.18,3.18,0,0,1,.66-.66l1.47-1.09,1.46-1.08,1.46-1.1c.49-.36,1-.73,1.45-1.1l1.44-1.11c1-.75,1.92-1.5,2.89-2.24-.85.88-1.75,1.7-2.68,2.5-.46.4-.93.78-1.4,1.17s-1,.76-1.44,1.12-1,.73-1.48,1.08-1,.7-1.51,1l-.77.49c-.25.17-.52.33-.77.49a3.08,3.08,0,0,0-.68.56,1.21,1.21,0,0,0-.34.81Z"/><path class="cls-52" d="M656.78,1106.57a4.7,4.7,0,0,1-.24-.87,7.69,7.69,0,0,1-.14-1.75,5.37,5.37,0,0,1,.09-.89,3.8,3.8,0,0,1,.24.86,6.5,6.5,0,0,1,.12.87,8.81,8.81,0,0,1,0,.89,5.48,5.48,0,0,1-.09.89Z"/><path class="cls-52" d="M654.32,1108.55a3.38,3.38,0,0,1-.51-.78,3.92,3.92,0,0,1-.28-.88,4,4,0,0,1-.08-.92,2.93,2.93,0,0,1,.17-.92c.07.31.11.6.16.89s.11.58.17.87.12.57.18.85.14.58.19.89Z"/><path class="cls-52" d="M652.51,1109.83a3.05,3.05,0,0,1-.94-.74,3.88,3.88,0,0,1-.64-1,3.66,3.66,0,0,1-.29-1.17,3.18,3.18,0,0,1,.12-1.19c.06.4.12.77.21,1.14a7,7,0,0,0,.36,1.06,6.63,6.63,0,0,0,.51,1,9.55,9.55,0,0,0,.67.94Z"/><path class="cls-52" d="M656.67,1106.48a3.55,3.55,0,0,1,.75-.22,6.51,6.51,0,0,1,.76-.07,6.33,6.33,0,0,1,.76,0,3,3,0,0,1,.76.21,5.26,5.26,0,0,1-.76.13,6.39,6.39,0,0,1-.75,0c-.25,0-.5,0-.75,0a4.11,4.11,0,0,1-.77-.12Z"/><path class="cls-52" d="M654.31,1108.43c.3.11.59.22.87.3s.57.15.86.2.58.07.88.09h.92a2.23,2.23,0,0,1-.9.33,3,3,0,0,1-1.88-.31,2.22,2.22,0,0,1-.75-.61Z"/><path class="cls-52" d="M652.44,1109.84a3.18,3.18,0,0,1,.75-.07c.25,0,.49,0,.73.06a4.61,4.61,0,0,1,.72.15,2.74,2.74,0,0,1,.7.27,3.8,3.8,0,0,1-.75.06,4.49,4.49,0,0,1-.73-.06,4.61,4.61,0,0,1-.72-.15,3.31,3.31,0,0,1-.7-.26Z"/><path class="cls-52" d="M634.17,1116.94a13.1,13.1,0,0,1,2.84-3l.28-.21.29-.2a6.1,6.1,0,0,1,.6-.38,4.39,4.39,0,0,1,.66-.29l.34-.1a2.41,2.41,0,0,1,.35-.07,4.84,4.84,0,0,1,1.42,0,9.64,9.64,0,0,1,2.66.8,16.82,16.82,0,0,0-2.69-.46,5.82,5.82,0,0,0-1.32.07l-.31.08-.32.1a2.84,2.84,0,0,0-.59.27c-.19.1-.38.22-.57.34l-.28.19-.27.2c-.37.26-.72.55-1.08.83-.7.58-1.36,1.21-2,1.86Z"/><path class="cls-52" d="M639.24,1113.05a4.55,4.55,0,0,1-.83-.3c-.27-.12-.53-.26-.78-.4s-.49-.31-.73-.48a6.15,6.15,0,0,1-.67-.59,4.65,4.65,0,0,1,.84.3,7.16,7.16,0,0,1,.78.4c.25.15.49.31.73.48a4.57,4.57,0,0,1,.66.59Z"/><path class="cls-52" d="M637.29,1114l-1-.17-1-.15-1-.12-1-.12a3.45,3.45,0,0,1,1-.22,4.36,4.36,0,0,1,1,0,4.25,4.25,0,0,1,1,.26,3.42,3.42,0,0,1,.9.49Z"/><path class="cls-52" d="M641.16,1112.85a2,2,0,0,1,.13,1,5,5,0,0,1-.16.94,4.14,4.14,0,0,1-.37.87,1.83,1.83,0,0,1-.62.73,7.49,7.49,0,0,0,.32-.86l.26-.86.24-.87a6.54,6.54,0,0,0,.2-.9Z"/><path class="cls-52" d="M637.46,1113.78a1.18,1.18,0,0,1,.21.73,2,2,0,0,1-.12.74,2.35,2.35,0,0,1-.34.67,1.58,1.58,0,0,1-.56.5c.1-.23.18-.45.26-.66s.16-.43.23-.64.14-.43.2-.65a2.92,2.92,0,0,0,.12-.69Z"/><path class="cls-52" d="M645.22,1109.9c-.3-.83-.57-1.67-.81-2.53-.12-.42-.22-.85-.32-1.28s-.19-.87-.28-1.3-.15-.88-.22-1.31-.12-.88-.16-1.32a13.14,13.14,0,0,1,0-2.66c.06.88.21,1.75.34,2.61.08.44.15.87.23,1.3l.24,1.3c.08.43.17.86.25,1.29l.26,1.3c.17.86.35,1.72.48,2.6Z"/><path class="cls-52" d="M645,1108.86a2.29,2.29,0,0,1,.32-.47,3.41,3.41,0,0,1,.38-.38,3.52,3.52,0,0,1,.45-.3,2.11,2.11,0,0,1,.53-.22,2.48,2.48,0,0,1-.31.48,3.41,3.41,0,0,1-.39.37,2.77,2.77,0,0,1-.45.31,1.78,1.78,0,0,1-.53.21Z"/><path class="cls-52" d="M643.9,1104.42a1.91,1.91,0,0,1,.18-.54,3.17,3.17,0,0,1,.27-.47,3.31,3.31,0,0,1,.35-.41,2,2,0,0,1,.45-.35,2.14,2.14,0,0,1-.17.54,3.64,3.64,0,0,1-.28.47,2.79,2.79,0,0,1-.35.42,2.31,2.31,0,0,1-.45.34Z"/><path class="cls-52" d="M644.48,1107.17a4.18,4.18,0,0,1,.4-.68,7,7,0,0,1,.45-.62c.16-.2.33-.39.5-.58s.35-.36.52-.58a1.92,1.92,0,0,1-.24.78,4.94,4.94,0,0,1-.44.65,7.27,7.27,0,0,1-.54.57,3.32,3.32,0,0,1-.65.46Z"/><path class="cls-46" d="M585.52,1118.45s.3,4-5.51,4.08c-6.12.13-6.82-2.44-6.88-3.14a6.37,6.37,0,0,1,6-6.72c3.56-.28,6.14,2.33,6.41,5.78Z"/><path class="cls-47" d="M570.29,1097.84c-.16,2.75.1,5.68,1.68,7.93a1.33,1.33,0,0,0,.14.19h0a28.3,28.3,0,0,0,4.17,3.85h0l.07.06c1.5,1.34,2.85,3.13,2.77,5.14,0,0,.06.17.2.31h0c.23.23.56.47.63.41a.4.4,0,0,0,.08-.37v0a11.94,11.94,0,0,1-.38-2.42,8.32,8.32,0,0,1,.41-1.76,5.28,5.28,0,0,0,.16-.81,4.16,4.16,0,0,0-1.22-3.06,5.12,5.12,0,0,0-.58-.56h0a19.51,19.51,0,0,0-2.1-1.5l-.49-.32c-2.6-1.76-5.18-4-5.55-7.09Z"/><path class="cls-48" d="M579.66,1112.94a11.94,11.94,0,0,0,.38,2.42v0c.5-.77,1.23-1.7,1.76-2.42a2.91,2.91,0,0,1,2.17-1.32,22.64,22.64,0,0,1,4.87,3.37c.25.23.56.48.89.41a.72.72,0,0,0,.5-.74,2.33,2.33,0,0,0-.3-.91,7.48,7.48,0,0,0-2.87-3.5l-.15-.07a7.74,7.74,0,0,0-3.53-.38,8.19,8.19,0,0,0-1.48.17h0a3,3,0,0,0-.66.21,2.78,2.78,0,0,0-.47.28,4.61,4.61,0,0,0-.7.7,8.32,8.32,0,0,0-.41,1.76Z"/><path class="cls-49" d="M575.84,1104.93l.49.32a19.51,19.51,0,0,1,2.1,1.5h0a5.12,5.12,0,0,1,.58.56,4.17,4.17,0,0,1,1.22,3.07,5.39,5.39,0,0,1-.16.8,4.61,4.61,0,0,1,.7-.7c-.12-1.25.59-2.45,1-3.65a5.52,5.52,0,0,0,.18-.53h0a9.35,9.35,0,0,0-.17-5.8c-.23-.62-.52-1.2-.81-1.8-.65-1.32-1.3-2.64-2-4a.83.83,0,0,0-.36-.44c-.44-.2-.8.39-.93.86a42.55,42.55,0,0,0-1.91,9.78Z"/><path class="cls-50" d="M580.77,1110.48a2.78,2.78,0,0,1,.47-.28,3,3,0,0,1,.66-.21h0a8.19,8.19,0,0,1,1.48-.17,7.74,7.74,0,0,1,3.53.38,13.74,13.74,0,0,0,4.77-1.56,7,7,0,0,0,3.18-5.56,1.14,1.14,0,0,0-.18-.75,1.33,1.33,0,0,0-.53-.3,7.27,7.27,0,0,0-2.19-.51c-1.29,0-2.48.67-3.72,1a15.89,15.89,0,0,0-3.08.83,5.26,5.26,0,0,0-.92.62,8.93,8.93,0,0,0-2.26,2.31h0a5.52,5.52,0,0,1-.18.53c-.44,1.2-1.15,2.4-1,3.65Z"/><path class="cls-51" d="M564.6,1112a8.41,8.41,0,0,0,5.9,1.53,5.22,5.22,0,0,0,2.31-.57c.44-.25.81-.61,1.25-.85a4.1,4.1,0,0,1,3-.13c.83.67,1.76,2.32,1.46,3.16a.57.57,0,0,0,.84.22c-.14-.14-.23-.26-.2-.31.08-2-1.27-3.8-2.77-5.14l-.07-.06h0a28.3,28.3,0,0,1-4.17-3.85h0a6,6,0,0,0-3.09.29,4,4,0,0,0-1.42.61,3.75,3.75,0,0,0-.83,1,31.47,31.47,0,0,0-2.17,4.1Z"/><path class="cls-52" d="M581.94,1110.19a1.06,1.06,0,0,1,.12-.43,1.54,1.54,0,0,1,.27-.36,3.09,3.09,0,0,1,.73-.51c.53-.27,1.05-.51,1.58-.77l1.57-.77,1.56-.77c1-.52,2.08-1.06,3.11-1.59s2.07-1.08,3.11-1.6c-1,.67-1.94,1.29-3,1.88-.51.3-1,.58-1.53.86l-1.56.81c-.52.26-1.05.52-1.58.76s-1.06.49-1.6.71l-.81.34-.81.32a3.4,3.4,0,0,0-.75.41,1.23,1.23,0,0,0-.46.71Z"/><path class="cls-52" d="M590,1105.7a5.1,5.1,0,0,1-.08-.86,7.89,7.89,0,0,1,.05-.84,6.1,6.1,0,0,1,.13-.84,4.8,4.8,0,0,1,.24-.82,5,5,0,0,1,.08.85,7.92,7.92,0,0,1,0,.85,7.55,7.55,0,0,1-.13.83,4.91,4.91,0,0,1-.24.83Z"/><path class="cls-52" d="M587.31,1107.14a2.71,2.71,0,0,1-.35-.82,4.17,4.17,0,0,1,0-1.77,3.1,3.1,0,0,1,.32-.83c0,.3,0,.58,0,.87s0,.56,0,.84,0,.56,0,.84,0,.57,0,.87Z"/><path class="cls-52" d="M585.37,1108a3,3,0,0,1-.75-.86,3.75,3.75,0,0,1-.49-2.24,2.85,2.85,0,0,1,.32-1.1,8.22,8.22,0,0,0,0,1.11,6.29,6.29,0,0,0,.15,1.06,6.4,6.4,0,0,0,.31,1c.13.34.29.66.46,1Z"/><path class="cls-52" d="M589.88,1105.6a3.19,3.19,0,0,1,.75-.08,4.51,4.51,0,0,1,.73.07,4.62,4.62,0,0,1,.71.18,2.94,2.94,0,0,1,.67.32,6.09,6.09,0,0,1-.74,0c-.24,0-.48-.06-.71-.1s-.47-.09-.71-.15a4.15,4.15,0,0,1-.7-.24Z"/><path class="cls-52" d="M587.32,1107c.26.15.51.3.77.43a5.75,5.75,0,0,0,.77.33,6.21,6.21,0,0,0,.81.24c.28.07.57.11.87.16a2.14,2.14,0,0,1-.9.16,2.88,2.88,0,0,1-1.73-.62,2.32,2.32,0,0,1-.59-.7Z"/><path class="cls-52" d="M585.31,1108a4.28,4.28,0,0,1,.72.07,5.76,5.76,0,0,1,.68.19,5.18,5.18,0,0,1,.65.26,2.81,2.81,0,0,1,.61.38,4.07,4.07,0,0,1-.71-.07,4.85,4.85,0,0,1-.68-.19,5.32,5.32,0,0,1-.66-.26,2.81,2.81,0,0,1-.61-.38Z"/><path class="cls-52" d="M566.85,1111.54a11.78,11.78,0,0,1,2-1.67,11.09,11.09,0,0,1,1.15-.67l.3-.15.3-.15c.21-.09.42-.17.64-.24a3.64,3.64,0,0,1,.67-.16,5.21,5.21,0,0,1,.69,0,5,5,0,0,1,1.34.24,9.24,9.24,0,0,1,2.36,1.21,16,16,0,0,0-2.45-.9,4.39,4.39,0,0,0-2.49,0c-.2.06-.4.14-.6.22l-.29.13-.29.14c-.4.19-.78.39-1.16.6a25.81,25.81,0,0,0-2.22,1.4Z"/><path class="cls-52" d="M572.31,1108.75a5.27,5.27,0,0,1-.74-.42,8.38,8.38,0,0,1-.66-.52,8.25,8.25,0,0,1-.61-.58,3.86,3.86,0,0,1-.52-.67,5.48,5.48,0,0,1,.74.43,8.27,8.27,0,0,1,.66.51c.21.19.41.38.6.58a5.78,5.78,0,0,1,.53.67Z"/><path class="cls-52" d="M570.29,1109.35l-.9-.33-.88-.32-.89-.28c-.3-.09-.6-.17-.92-.28a3.59,3.59,0,0,1,1,0,4.43,4.43,0,0,1,1,.2,4.83,4.83,0,0,1,.89.42,3.23,3.23,0,0,1,.76.62Z"/><path class="cls-52" d="M574.15,1108.9a1.9,1.9,0,0,1,0,.92,4.8,4.8,0,0,1-.32.85,4.23,4.23,0,0,1-.5.77,1.91,1.91,0,0,1-.71.58,7.56,7.56,0,0,0,.45-.76l.39-.77c.13-.26.26-.52.38-.78a6.59,6.59,0,0,0,.35-.81Z"/><path class="cls-52" d="M570.5,1109.14a1.11,1.11,0,0,1,.07.72,2.3,2.3,0,0,1-.24.68,2.71,2.71,0,0,1-.44.57,1.45,1.45,0,0,1-.62.37c.14-.2.25-.39.37-.58l.33-.56.3-.58a3.47,3.47,0,0,0,.23-.62Z"/><path class="cls-52" d="M578.49,1106.83c-.14-.84-.25-1.68-.32-2.53,0-.42-.06-.84-.08-1.27s0-.85,0-1.27,0-.85,0-1.27,0-.85.08-1.28a11.82,11.82,0,0,1,.45-2.5c-.09.84-.11,1.68-.13,2.52,0,.42,0,.84,0,1.26v1.27c0,.42,0,.84,0,1.26l0,1.27c0,.84,0,1.69,0,2.54Z"/><path class="cls-52" d="M578.42,1105.8a1.76,1.76,0,0,1,.38-.39,3.23,3.23,0,0,1,.43-.29,4,4,0,0,1,.47-.21,2.25,2.25,0,0,1,.54-.11,1.76,1.76,0,0,1-.38.39,3,3,0,0,1-.43.29,2.26,2.26,0,0,1-.48.21,1.85,1.85,0,0,1-.53.11Z"/><path class="cls-52" d="M578.27,1104.13a4.68,4.68,0,0,1,.49-.58,6.39,6.39,0,0,1,.54-.5c.18-.16.37-.31.57-.46s.39-.29.58-.46a1.64,1.64,0,0,1-.36.69,3.8,3.8,0,0,1-.52.54,5.24,5.24,0,0,1-.61.44,3.37,3.37,0,0,1-.69.33Z"/><path class="cls-46" d="M609.14,1123.73s.11,4.47-6.43,4.27c-6.89-.21-7.53-3.14-7.55-3.92a7.16,7.16,0,0,1,7.11-7.22c4-.1,6.77,3,6.87,6.87Z"/><path class="cls-47" d="M593.21,1099.68c-.34,3.08-.22,6.39,1.43,9l.14.23h0c1.18,1.77,2.94,3.08,4.46,4.58h0l.08.08c1.6,1.59,3,3.68,2.81,5.94,0,0,.07.2.21.36h0c.23.27.59.56.67.5a.46.46,0,0,0,.12-.41,0,0,0,0,1,0,0,13.48,13.48,0,0,1-.28-2.74,9.45,9.45,0,0,1,.56-2,6,6,0,0,0,.23-.9,4.71,4.71,0,0,0-1.19-3.52c-.2-.23-.4-.45-.62-.67h0a22.15,22.15,0,0,0-2.27-1.8L599,1108c-2.82-2.12-5.59-4.8-5.83-8.29Z"/><path class="cls-48" d="M602.87,1117.2a13.48,13.48,0,0,0,.28,2.74v0c.61-.84,1.49-1.85,2.12-2.62a3.34,3.34,0,0,1,2.52-1.37,25.82,25.82,0,0,1,5.28,4.07c.27.28.6.58,1,.52a.83.83,0,0,0,.61-.81,2.53,2.53,0,0,0-.29-1c-.72-1.58-1.52-3.25-3-4.1l-.17-.09a8.57,8.57,0,0,0-3.94-.63,9.42,9.42,0,0,0-1.68.1h0a4.05,4.05,0,0,0-.76.2,3.5,3.5,0,0,0-.54.29,5.4,5.4,0,0,0-.83.74,9.72,9.72,0,0,0-.56,2Z"/><path class="cls-49" d="M599,1108l.53.39a22.15,22.15,0,0,1,2.27,1.8h0c.22.22.42.44.62.67a4.71,4.71,0,0,1,1.19,3.52,6,6,0,0,1-.23.9,5,5,0,0,1,.83-.75c-.06-1.42.81-2.73,1.37-4a6,6,0,0,0,.23-.59h0a10.53,10.53,0,0,0,.14-6.52,21.65,21.65,0,0,0-.81-2.07c-.65-1.52-1.31-3-2-4.57a1,1,0,0,0-.37-.52c-.49-.24-.93.4-1.11.91-1.13,3.41-2.43,7.3-2.71,10.89Z"/><path class="cls-50" d="M604.26,1114.5a3.5,3.5,0,0,1,.54-.29,4.05,4.05,0,0,1,.76-.2h0a9.42,9.42,0,0,1,1.68-.1,8.57,8.57,0,0,1,3.94.63,15.38,15.38,0,0,0,5.45-1.48,7.84,7.84,0,0,0,3.9-6.06,1.27,1.27,0,0,0-.16-.86,1.35,1.35,0,0,0-.58-.37,8.26,8.26,0,0,0-2.43-.7c-1.45-.09-2.82.61-4.24.92a18.73,18.73,0,0,0-3.51.75,7.26,7.26,0,0,0-1.07.65,10,10,0,0,0-2.67,2.46h0a6,6,0,0,1-.23.59c-.56,1.32-1.43,2.63-1.37,4Z"/><path class="cls-51" d="M586,1115.25a9.49,9.49,0,0,0,6.55,2,5.62,5.62,0,0,0,2.63-.5c.51-.26.94-.64,1.46-.88a4.54,4.54,0,0,1,3.34,0c.89.8,1.85,2.7,1.46,3.64a.64.64,0,0,0,.93.29c-.14-.16-.25-.31-.21-.36.21-2.26-1.21-4.35-2.81-5.94l-.08-.08h0c-1.52-1.5-3.28-2.81-4.46-4.58h0a6.56,6.56,0,0,0-3.48.14,4.69,4.69,0,0,0-1.64.6,4.36,4.36,0,0,0-1,1.1,35.71,35.71,0,0,0-2.68,4.49Z"/><path class="cls-52" d="M605.6,1114.23a1.18,1.18,0,0,1,.15-.47,1.75,1.75,0,0,1,.33-.39,3.91,3.91,0,0,1,.85-.53c.61-.27,1.21-.51,1.82-.77l1.8-.77,1.81-.79,1.8-.79,1.79-.81c1.2-.54,2.39-1.09,3.59-1.62-1.11.7-2.26,1.34-3.43,2-.58.3-1.18.59-1.77.88l-1.8.82-1.82.76c-.61.24-1.22.48-1.84.7l-.93.33-.93.32a3.61,3.61,0,0,0-.86.42,1.35,1.35,0,0,0-.56.76Z"/><path class="cls-52" d="M614.88,1109.65a4.52,4.52,0,0,1,0-1,7.47,7.47,0,0,1,.09-.94,9,9,0,0,1,.2-.93,5.29,5.29,0,0,1,.32-.92,5.29,5.29,0,0,1,0,1c0,.32,0,.64-.1,1a7.72,7.72,0,0,1-.2.93,5.19,5.19,0,0,1-.32.91Z"/><path class="cls-52" d="M611.8,1111.12a3.19,3.19,0,0,1-.33-.94,3.76,3.76,0,0,1-.08-1,4.09,4.09,0,0,1,.15-1,3.14,3.14,0,0,1,.4-.92c0,.34,0,.66-.05,1s0,.63,0,.94,0,.63,0,1,0,.64,0,1Z"/><path class="cls-52" d="M609.58,1112a3.28,3.28,0,0,1-.8-1,4.21,4.21,0,0,1-.41-1.24,4.11,4.11,0,0,1,0-1.31,3.3,3.3,0,0,1,.42-1.21,10.5,10.5,0,0,0-.06,1.24,7.88,7.88,0,0,0,.1,1.2,9.67,9.67,0,0,0,.29,1.18,12.11,12.11,0,0,0,.47,1.15Z"/><path class="cls-52" d="M614.79,1109.54a3.42,3.42,0,0,1,.84,0,5.59,5.59,0,0,1,.82.12,4.52,4.52,0,0,1,.79.25,2.91,2.91,0,0,1,.73.4,5.69,5.69,0,0,1-.83,0c-.27,0-.53-.09-.79-.15s-.53-.13-.79-.21a5.39,5.39,0,0,1-.77-.31Z"/><path class="cls-52" d="M611.82,1111c.29.19.56.36.84.52a7.58,7.58,0,0,0,.86.42,6.86,6.86,0,0,0,.9.32c.3.09.62.16,1,.23a2.57,2.57,0,0,1-1,.13,3.25,3.25,0,0,1-1-.25,3.4,3.4,0,0,1-.89-.55,2.65,2.65,0,0,1-.63-.82Z"/><path class="cls-52" d="M609.51,1112a4.17,4.17,0,0,1,.8.12,6,6,0,0,1,1.47.58,3.63,3.63,0,0,1,.67.46,4.17,4.17,0,0,1-.8-.12,6.75,6.75,0,0,1-.76-.25,6.51,6.51,0,0,1-.71-.33,3.79,3.79,0,0,1-.67-.46Z"/><path class="cls-52" d="M588.55,1114.88a13.47,13.47,0,0,1,2.4-1.76,14,14,0,0,1,1.33-.69l.35-.15.35-.14a5.53,5.53,0,0,1,.72-.24,3.88,3.88,0,0,1,.77-.14l.39,0a2.44,2.44,0,0,1,.38,0,5.45,5.45,0,0,1,1.5.34,10.19,10.19,0,0,1,2.58,1.5,17.71,17.71,0,0,0-2.7-1.16,6.15,6.15,0,0,0-1.4-.25h-.36c-.12,0-.23,0-.35,0a4.19,4.19,0,0,0-.69.13c-.23.06-.46.14-.68.22l-.34.13-.34.14c-.46.18-.9.39-1.34.61-.88.43-1.73.92-2.57,1.44Z"/><path class="cls-52" d="M594.85,1112.06a4.48,4.48,0,0,1-.81-.52,8.94,8.94,0,0,1-1.36-1.3,5.56,5.56,0,0,1-.55-.79,4.83,4.83,0,0,1,.8.53,8.29,8.29,0,0,1,.72.61c.22.22.44.45.64.69a5.52,5.52,0,0,1,.56.78Z"/><path class="cls-52" d="M592.54,1112.62l-1-.43-1-.4-1-.37c-.34-.12-.67-.23-1-.37a3.68,3.68,0,0,1,1.1,0,4.34,4.34,0,0,1,1.07.29,5.37,5.37,0,0,1,1,.51,3.6,3.6,0,0,1,.81.75Z"/><path class="cls-52" d="M596.9,1112.34a1.52,1.52,0,0,1,0,.52,2.38,2.38,0,0,1,0,.26,2.27,2.27,0,0,1-.06.25,4.62,4.62,0,0,1-.41.94,4.5,4.5,0,0,1-.6.83l-.18.18-.2.17a1.61,1.61,0,0,1-.46.26,7,7,0,0,0,.55-.83l.49-.84c.16-.28.32-.56.47-.85a6.65,6.65,0,0,0,.43-.89Z"/><path class="cls-52" d="M592.79,1112.39a1.28,1.28,0,0,1,0,.82,2.27,2.27,0,0,1-.32.75,2.51,2.51,0,0,1-.52.61,1.48,1.48,0,0,1-.72.38c.17-.21.31-.42.45-.62l.4-.62c.13-.21.26-.41.37-.63a3.34,3.34,0,0,0,.3-.69Z"/><path class="cls-52" d="M601.91,1110.26c-.11-1-.18-1.91-.21-2.86,0-.48,0-1,0-1.43s0-1,0-1.43.06-1,.1-1.44.09-.95.16-1.42.15-1,.25-1.42a9.84,9.84,0,0,1,.4-1.38c-.15.95-.22,1.89-.29,2.84,0,.47-.07.94-.09,1.42s0,.94-.07,1.42l-.06,1.42-.05,1.42c0,.95-.07,1.9-.15,2.86Z"/><path class="cls-52" d="M601.89,1109.1a2.48,2.48,0,0,1,.44-.42,5.24,5.24,0,0,1,.51-.3,4.48,4.48,0,0,1,.55-.21,2.28,2.28,0,0,1,.6-.09,2.23,2.23,0,0,1-.45.42,3.15,3.15,0,0,1-.5.3,5.2,5.2,0,0,1-.55.21,2.28,2.28,0,0,1-.6.09Z"/><path class="cls-52" d="M601.9,1104.17a2,2,0,0,1,.32-.52,4,4,0,0,1,.4-.42,3.19,3.19,0,0,1,.47-.35,2.38,2.38,0,0,1,.56-.25,1.82,1.82,0,0,1-.32.52,3.28,3.28,0,0,1-.4.43,4.14,4.14,0,0,1-.48.34,2,2,0,0,1-.55.25Z"/><path class="cls-52" d="M601.82,1107.21a5.74,5.74,0,0,1,.58-.62,7.81,7.81,0,0,1,.64-.53l.66-.49c.23-.16.46-.3.69-.48a1.25,1.25,0,0,1-.18.41c-.08.12-.17.23-.26.34a4.86,4.86,0,0,1-.63.58,4.79,4.79,0,0,1-.71.46,3.22,3.22,0,0,1-.79.33Z"/><path class="cls-46" d="M637.18,1120.37s.87,4.88-6.32,5.75c-7.57.92-8.76-2.17-8.92-3a7.93,7.93,0,0,1,6.57-9.08c4.39-.79,7.91,2.13,8.67,6.36Z"/><path class="cls-47" d="M615.73,1096.73c.15,3.43.83,7,3.07,9.62l.2.22h0c1.59,1.74,3.74,2.87,5.66,4.26h0l.1.06c2,1.48,3.92,3.53,4.07,6,0,.06.11.2.29.35h0c.3.26.74.51.82.44a.55.55,0,0,0,.06-.47,0,0,0,0,1,0,0,14.83,14.83,0,0,1-.77-3,10.74,10.74,0,0,1,.29-2.23,4.9,4.9,0,0,0,.09-1,5.16,5.16,0,0,0-1.88-3.64,9.62,9.62,0,0,0-.8-.63h0a23.92,23.92,0,0,0-2.79-1.59l-.64-.34c-3.44-1.85-6.93-4.32-7.77-8.09Z"/><path class="cls-48" d="M629.23,1114.27a14.83,14.83,0,0,0,.77,3,0,0,0,0,0,0,0c.52-1,1.31-2.27,1.87-3.22a3.7,3.7,0,0,1,2.53-1.92,28.88,28.88,0,0,1,6.46,3.57,1.36,1.36,0,0,0,1.16.4.9.9,0,0,0,.52-1,2.56,2.56,0,0,0-.49-1.09c-1-1.6-2.2-3.29-4-4l-.2-.07a9.56,9.56,0,0,0-4.42,0,10.9,10.9,0,0,0-1.82.39h0a3.76,3.76,0,0,0-.79.36,3.09,3.09,0,0,0-.55.4,6.1,6.1,0,0,0-.78,1,10.74,10.74,0,0,0-.29,2.23Z"/><path class="cls-49" d="M623.5,1104.82l.64.34a23.92,23.92,0,0,1,2.79,1.59h0a9.62,9.62,0,0,1,.8.63,5.16,5.16,0,0,1,1.88,3.64,4.9,4.9,0,0,1-.09,1,6.1,6.1,0,0,1,.78-1c-.3-1.54.42-3.12.82-4.66.06-.23.11-.45.15-.68h0a11.55,11.55,0,0,0-.94-7.16,22.76,22.76,0,0,0-1.23-2.14l-2.91-4.66a1.1,1.1,0,0,0-.51-.51c-.57-.19-1,.59-1.05,1.18-.67,3.92-1.44,8.4-1.14,12.37Z"/><path class="cls-50" d="M630.3,1111.09a3.09,3.09,0,0,1,.55-.4,3.76,3.76,0,0,1,.79-.36h0a10.9,10.9,0,0,1,1.82-.39,9.56,9.56,0,0,1,4.42,0,17.24,17.24,0,0,0,5.72-2.54,8.68,8.68,0,0,0,3.24-7.28,1.33,1.33,0,0,0-.31-.91,1.6,1.6,0,0,0-.69-.31,9.14,9.14,0,0,0-2.79-.36c-1.6.14-3,1.14-4.48,1.72a19.46,19.46,0,0,0-3.71,1.41,7.77,7.77,0,0,0-1.07.88,11.21,11.21,0,0,0-2.51,3.15h0c0,.23-.09.45-.15.68-.4,1.54-1.12,3.12-.82,4.66Z"/><path class="cls-51" d="M610.43,1115c2.16,1.44,5,1.56,7.51,1.15a6.4,6.4,0,0,0,2.8-1c.51-.37.92-.86,1.44-1.21a5.08,5.08,0,0,1,3.67-.53c1.11.73,2.47,2.65,2.21,3.74a.69.69,0,0,0,1.06.16c-.18-.15-.32-.29-.29-.35-.15-2.51-2.05-4.56-4.07-6l-.1-.06h0c-1.91-1.39-4.06-2.52-5.65-4.26h0a7.25,7.25,0,0,0-3.79.74,5.07,5.07,0,0,0-1.69.93,4.52,4.52,0,0,0-.9,1.37,39.64,39.64,0,0,0-2.19,5.36Z"/><path class="cls-52" d="M631.72,1110.57a1.28,1.28,0,0,1,.09-.54,2,2,0,0,1,.29-.48,4.11,4.11,0,0,1,.84-.72c.63-.4,1.24-.77,1.86-1.15l1.85-1.15c.62-.38,1.23-.76,1.84-1.16s1.23-.78,1.84-1.17l1.82-1.18,3.66-2.38c-1.1,1-2.25,1.85-3.43,2.71-.59.43-1.19.84-1.79,1.26l-1.82,1.19c-.62.39-1.24.77-1.87,1.14s-1.26.74-1.9,1.08l-1,.52-1,.5a4,4,0,0,0-.87.61,1.48,1.48,0,0,0-.48.92Z"/><path class="cls-52" d="M641.11,1104a5.55,5.55,0,0,1-.2-1,7.53,7.53,0,0,1,0-1.06,9.23,9.23,0,0,1,0-1.05,5.58,5.58,0,0,1,.21-1,5.52,5.52,0,0,1,.19,1,9.31,9.31,0,0,1,0,2.11,6.47,6.47,0,0,1-.2,1Z"/><path class="cls-52" d="M638,1106.13a3.72,3.72,0,0,1-.53-1,4.38,4.38,0,0,1-.25-1.07,4.59,4.59,0,0,1,0-1.11,3.61,3.61,0,0,1,.29-1.07c0,.37.08.72.11,1.07s.07.7.11,1,.09.69.14,1,.1.7.14,1.07Z"/><path class="cls-52" d="M635.7,1107.48a3.6,3.6,0,0,1-1-1,4.45,4.45,0,0,1-.66-1.28,4.65,4.65,0,0,1-.23-1.43,3.7,3.7,0,0,1,.26-1.4,12,12,0,0,0,.14,1.37,8.5,8.5,0,0,0,.32,1.3,8.19,8.19,0,0,0,.51,1.23,12.29,12.29,0,0,0,.7,1.19Z"/><path class="cls-52" d="M641,1103.9a3.69,3.69,0,0,1,.91-.19,5.55,5.55,0,0,1,1.82.13,3.48,3.48,0,0,1,.87.31,5.72,5.72,0,0,1-.91.09l-.9,0c-.3,0-.59,0-.89-.1a5.86,5.86,0,0,1-.9-.21Z"/><path class="cls-52" d="M638,1106c.35.16.67.31,1,.44s.66.23,1,.32a8.68,8.68,0,0,0,1,.19c.35,0,.71.07,1.09.09a2.67,2.67,0,0,1-1.1.31,3.41,3.41,0,0,1-1.15-.1,3.5,3.5,0,0,1-1.07-.46,2.81,2.81,0,0,1-.82-.79Z"/><path class="cls-52" d="M635.62,1107.48a4.53,4.53,0,0,1,.9,0,8.11,8.11,0,0,1,.86.14,8.29,8.29,0,0,1,.85.25,3.93,3.93,0,0,1,.8.39,3.78,3.78,0,0,1-.89,0,6.31,6.31,0,0,1-.87-.14,5.35,5.35,0,0,1-.84-.25,4.26,4.26,0,0,1-.81-.38Z"/><path class="cls-52" d="M613.17,1114.14a14.33,14.33,0,0,1,2.34-2.33,16.44,16.44,0,0,1,1.34-1l.35-.22.36-.21q.36-.21.75-.39a4.4,4.4,0,0,1,.82-.28l.42-.09.42-.05a5.92,5.92,0,0,1,1.69.12,11.49,11.49,0,0,1,3.09,1.21,18.94,18.94,0,0,0-3.15-.81,6.44,6.44,0,0,0-1.58,0,2.63,2.63,0,0,0-.39.06l-.38.08a4,4,0,0,0-.73.27,7.92,7.92,0,0,0-.72.35l-.35.2-.34.21c-.47.28-.92.58-1.36.88-.89.62-1.74,1.31-2.58,2Z"/><path class="cls-52" d="M619.59,1110a5.65,5.65,0,0,1-1-.44,10,10,0,0,1-.88-.55,8.57,8.57,0,0,1-.82-.64,6,6,0,0,1-.74-.77,5.33,5.33,0,0,1,1,.44,10,10,0,0,1,.88.55,8.67,8.67,0,0,1,.82.65,4.84,4.84,0,0,1,.74.76Z"/><path class="cls-52" d="M617.17,1111c-.41-.09-.78-.2-1.16-.3l-1.13-.28-1.14-.23-1.17-.24a4.11,4.11,0,0,1,1.21-.16,5.47,5.47,0,0,1,1.21.13,5.92,5.92,0,0,1,1.16.41,4.18,4.18,0,0,1,1,.67Z"/><path class="cls-52" d="M621.89,1110a1.59,1.59,0,0,1,.1.57,1.31,1.31,0,0,1,0,.28,2.64,2.64,0,0,1,0,.29,5.94,5.94,0,0,1-.29,1.1,5.68,5.68,0,0,1-.52,1c0,.08-.11.15-.17.23a2,2,0,0,1-.19.22,1.52,1.52,0,0,1-.45.35,7.23,7.23,0,0,0,.45-1c.14-.34.27-.67.4-1s.25-.67.38-1a8.4,8.4,0,0,0,.32-1Z"/><path class="cls-52" d="M617.39,1110.7a1.39,1.39,0,0,1,.19.89,3.18,3.18,0,0,1-.22.87,3.12,3.12,0,0,1-.47.76,1.8,1.8,0,0,1-.72.54l.38-.76c.12-.25.23-.49.34-.74s.21-.5.3-.75a4,4,0,0,0,.2-.81Z"/><path class="cls-52" d="M627,1106.84c-.28-1-.52-2-.71-3.09-.11-.52-.18-1-.27-1.56s-.13-1-.2-1.58-.1-1-.13-1.58-.06-1.06-.06-1.59,0-1.06,0-1.59a10.54,10.54,0,0,1,.2-1.57c0,1,.08,2.1.16,3.15l.07.78c0,.26,0,.52.07.78,0,.53.1,1,.16,1.57s.11,1,.17,1.57l.18,1.56c.12,1,.24,2.09.32,3.15Z"/><path class="cls-52" d="M626.8,1105.58a2.23,2.23,0,0,1,.42-.53,4.21,4.21,0,0,1,1.06-.74,3.09,3.09,0,0,1,.65-.2,2.52,2.52,0,0,1-.42.54,3.31,3.31,0,0,1-.5.41,3.86,3.86,0,0,1-.56.32,2.6,2.6,0,0,1-.65.2Z"/><path class="cls-52" d="M626,1100.19a2.4,2.4,0,0,1,.27-.63,3.87,3.87,0,0,1,.37-.53,4,4,0,0,1,.46-.46,2.21,2.21,0,0,1,.57-.36,2.89,2.89,0,0,1-.26.62,3.39,3.39,0,0,1-.38.53,3.33,3.33,0,0,1-.46.46,2.54,2.54,0,0,1-.57.37Z"/><path class="cls-52" d="M626.41,1103.52a5.94,5.94,0,0,1,.53-.78c.2-.24.4-.46.61-.68s.42-.44.65-.65.44-.4.67-.63a1.57,1.57,0,0,1-.13.47,4.16,4.16,0,0,1-.23.42,6.18,6.18,0,0,1-.59.74,6.89,6.89,0,0,1-.7.62,3.88,3.88,0,0,1-.81.49Z"/></svg>