<svg id="Layer_1" data-name="Layer 1" xmlns="http://www.w3.org/2000/svg" viewBox="0 0 750 5342"><defs><style>.cls-1{fill:#ebc081;}.cls-2{fill:#bf7c40;}.cls-3{fill:#a16c44;}.cls-4{fill:#77a275;}.cls-5{fill:#537d41;}</style></defs><title>mobi10-01_2</title><path class="cls-1" d="M750,3490.16c-11,3.57-21.53,7-33.08,7.76s-23.72-1.43-32.88-8.52c-12-9.27-16.76-24.83-25-37.53a76.6,76.6,0,0,0-33.9-28.53c-8.34-3.56-17.24-5.6-25.7-8.86s-16.74-8-21.83-15.5-6.16-18.26-.64-25.44c4.14-5.39,11.15-7.89,17.93-8.37s13.54.78,20.3,1.52A132.15,132.15,0,0,0,685.32,3355c10.42-4.9,20.19-11.16,30.8-15.63s22.39-5,33.9-5Z"/><path class="cls-2" d="M664.63,3404.18a28.43,28.43,0,0,0,20,16.59c6.69,1.37,13.6.26,20.33-.89,3.41-3.42,8.2-5,12.82-6.53a33.47,33.47,0,0,1,5.39-1.44h.47a12.58,12.58,0,0,1,2.81-.12h0a1,1,0,0,0,1-1,.93.93,0,0,0-.12-.46c-1.9-2.74-5.48-7.8-7.89-10.57-.5-.58-1-1.16-1.43-1.77h0c-1.81-1.85-7.48-4.21-11.89-5.56a24.59,24.59,0,0,0-4.4-1c-4.29-.46-8.54.88-12.85,1.26-5.21.49-10.68-.4-15.55,1.52a29.12,29.12,0,0,0-7.57,5.1,4.86,4.86,0,0,0-1.57,1.91A4.41,4.41,0,0,0,664.63,3404.18Z"/><path class="cls-3" d="M668.33,3404.09c4.6,1.19,9.25,2.14,13.93,2.93l2,.34,1.72.26,3.3.48q3.53.46,7.07.85l1.91.18h.48c1.56.14,3.13.28,4.69.39l3.28.21h.86l3,.14c1.19,0,2.37.09,3.56.11s2.38,0,3.53.06a13.3,13.3,0,0,1,3.43.51,5.25,5.25,0,0,1,2.16,1.26h.15a5,5,0,0,0-.61-.69,6,6,0,0,0-1.54-1,12.23,12.23,0,0,0-3.52-.89c-2.38-.25-4.71-.45-7.08-.66l-2.38-.23h-.42l-4.25-.4-4.31-.42-.63-.06-2.11-.24c-2.34-.22-4.7-.49-7-.75l-2.73-.31-.63-.07-3.68-.42C677.74,3405.18,673.05,3404.6,668.33,3404.09Z"/><path class="cls-3" d="M686.93,3407.1a18.9,18.9,0,0,0-1-3.37,32.75,32.75,0,0,0-1.37-3.16c-.52-1-1.08-2-1.7-3a18.55,18.55,0,0,0-2.13-2.79,18.9,18.9,0,0,0,1,3.37,33.13,33.13,0,0,0,3.08,6.16,19.08,19.08,0,0,0,2.12,2.78Z"/><path class="cls-3" d="M699.09,3408.77a11.57,11.57,0,0,0,.12-3.62,15.84,15.84,0,0,0-2.44-6.78,11.53,11.53,0,0,0-2.4-2.72c.39,1.16.83,2.24,1.24,3.32s.82,2.14,1.2,3.21.76,2.15,1.12,3.24.72,2.21,1.16,3.35Z"/><path class="cls-3" d="M707.71,3409.38a12,12,0,0,0,1.61-4.37,15,15,0,0,0,0-4.72,15.46,15.46,0,0,0-1.4-4.51,12.19,12.19,0,0,0-2.81-3.72,39.54,39.54,0,0,1,1.59,4.21,28.33,28.33,0,0,1,1,4.26,28.87,28.87,0,0,1,.3,4.36,39.68,39.68,0,0,1-.31,4.49Z"/><path class="cls-3" d="M687.1,3406.61a12.33,12.33,0,0,0-2.92.77,20.62,20.62,0,0,0-2.67,1.31,17.14,17.14,0,0,0-2.43,1.71,11.78,11.78,0,0,0-2.09,2.2,17.64,17.64,0,0,0,2.8-1.09c.88-.42,1.73-.88,2.57-1.38a29.09,29.09,0,0,0,2.44-1.59A18.51,18.51,0,0,0,687.1,3406.61Z"/><path class="cls-3" d="M698.89,3408.36c-.78,1-1.51,1.89-2.3,2.75a28.13,28.13,0,0,1-5.18,4.47c-1,.65-2,1.24-3,1.86a8.84,8.84,0,0,0,3.66-.7,11.73,11.73,0,0,0,5.62-4.86,9,9,0,0,0,1.25-3.52Z"/><path class="cls-3" d="M707.94,3409.27a12.79,12.79,0,0,0-2.62,1.3,21.11,21.11,0,0,0-2.31,1.66,20.27,20.27,0,0,0-2.09,1.95,13.41,13.41,0,0,0-1.79,2.32,14.21,14.21,0,0,0,2.62-1.3,23.79,23.79,0,0,0,2.31-1.67,21.94,21.94,0,0,0,2.09-2,13.34,13.34,0,0,0,1.79-2.31Z"/><path class="cls-4" d="M690,3469.67a25.11,25.11,0,0,1,11.2-20.11c5.08-3.28,11.13-4.58,17-5.79,3.92,1.73,8.38,1.52,12.67,1.27a30,30,0,0,0,4.91-.55h.13l.28-.06h0a11.46,11.46,0,0,0,2.35-.81,8.23,8.23,0,0,0,1.66-1c.48,4.52-2,8.87-3.57,13.21-.22.64-.43,1.27-.6,1.92h0c-.9,2.11-4.82,5.87-8,8.4a23.11,23.11,0,0,1-3.29,2.26c-3.4,1.76-7.34,2-11,3.08-4.45,1.27-8.67,3.77-13.31,3.74a25.63,25.63,0,0,1-7.87-1.77,4.42,4.42,0,0,1-1.91-1.07A4,4,0,0,1,690,3469.67Z"/><path class="cls-5" d="M693.05,3468.56c3.41-2.46,6.94-4.73,10.54-6.88.51-.32,1-.62,1.55-.93l1.34-.76c.85-.5,1.71-1,2.56-1.46q2.76-1.52,5.55-3l1.52-.77.38-.18c1.24-.62,2.49-1.24,3.74-1.84l2.64-1.23.69-.31c.8-.36,1.6-.72,2.4-1.06,1-.41,1.92-.84,2.89-1.23s2-.79,2.9-1.19a11.89,11.89,0,0,0,2.66-1.52,4.68,4.68,0,0,0,1.38-1.74h.13a4.07,4.07,0,0,1-.28.76,5.55,5.55,0,0,1-1,1.31,11.34,11.34,0,0,1-2.61,1.85c-1.89,1-3.75,1.88-5.63,2.82l-1.89,1-.34.17-3.37,1.7-3.41,1.73-.5.25-1.67.87c-1.86.94-3.71,1.92-5.56,2.88l-2.15,1.14-.5.26-2.9,1.52C700.46,3464.64,696.77,3466.63,693.05,3468.56Z"/><path class="cls-5" d="M707.42,3460.11a17.76,17.76,0,0,1,.29,3.09,30.86,30.86,0,0,1-.56,6.06,16.57,16.57,0,0,1-.86,3,17.76,17.76,0,0,1-.3-3.08,29.42,29.42,0,0,1,.57-6.06,16.57,16.57,0,0,1,.86-3Z"/><path class="cls-5" d="M716.9,3454.83a10.56,10.56,0,0,1,1.26,3,14.26,14.26,0,0,1,.45,3.18,13.68,13.68,0,0,1-.28,3.19,10.15,10.15,0,0,1-1.11,3c-.05-1.08,0-2.11,0-3.13v-3c0-1-.07-2-.12-3s-.11-2.05-.12-3.13Z"/><path class="cls-5" d="M723.81,3451.56a10.19,10.19,0,0,1,2.73,3.08,13.44,13.44,0,0,1,1.85,8.05,10.42,10.42,0,0,1-1.12,4,33.36,33.36,0,0,0,0-4,24.87,24.87,0,0,0-1.72-7.51,32,32,0,0,0-1.7-3.6Z"/><path class="cls-5" d="M707.71,3460.46a10.78,10.78,0,0,1-2.65.3,16.59,16.59,0,0,1-5.18-.85,10.92,10.92,0,0,1-2.42-1.14,16.75,16.75,0,0,1,2.65,0c.86.06,1.71.17,2.56.31s1.69.31,2.53.53a15.78,15.78,0,0,1,2.51.85Z"/><path class="cls-5" d="M716.87,3455.23c-1-.55-1.86-1.07-2.78-1.52a25.41,25.41,0,0,0-2.79-1.19,29.5,29.5,0,0,0-2.92-.84c-1-.22-2-.38-3.11-.56a8,8,0,0,1,3.24-.59,10.49,10.49,0,0,1,6.2,2.2,8.23,8.23,0,0,1,2.16,2.5Z"/><path class="cls-5" d="M724,3451.58a11.71,11.71,0,0,1-2.57-.23,20.47,20.47,0,0,1-2.45-.63,18.27,18.27,0,0,1-2.35-.94,1.32,1.32,0,1,1,0-1.87,1.36,1.36,0,0,1,.39.77,20.47,20.47,0,0,1,2.45.63,18.14,18.14,0,0,1,2.34.94A11.87,11.87,0,0,1,724,3451.58Z"/></svg>