<svg id="Layer_1" data-name="Layer 1" xmlns="http://www.w3.org/2000/svg" viewBox="0 0 750 5342"><defs><style>.cls-1{fill:#e45044;}.cls-2{fill:#fbd2c0;}.cls-3{fill:#c87936;}.cls-4{fill:#fbd90a;}.cls-5{fill:none;stroke:#231a14;stroke-miterlimit:10;stroke-width:0.79px;}.cls-6{fill:#4f3d2f;}.cls-7{fill:#b3d284;}.cls-8{fill:#68a270;}.cls-9{fill:#f7b617;}.cls-10{fill:#f8b517;}.cls-11{fill:#0c5d87;}.cls-12{fill:#7e5a3f;}</style></defs><title>mobi8</title><path class="cls-1" d="M94.42,2343.27c-.51,6.75-.47,13.51-.42,20.29a180.14,180.14,0,0,0-18.3-12.79c-1.34-.83-3.21-1.6-4.34-.51-.93.89-.67,2.41-.32,3.66A62.7,62.7,0,0,0,76,2366l-13.32-12.82c-2.61-2.49-5.72-5.18-9.31-4.81-.86,5.83,2.29,11.42,5.31,16.46,3.73,6.23,7.48,12.48,11.51,18.51a45.58,45.58,0,0,0,0,5.23,48.27,48.27,0,0,0,.57,5.44.8.8,0,0,0,.05.26,53.69,53.69,0,0,0,7,19.06,3.94,3.94,0,0,0-2-1c-1.54-.4-3.08-.79-4.63-1.14a11.45,11.45,0,0,1-2.16-.49q-8.66-3.54-17.31-7.06c-4.45-1.82-8.79-3.67-13.3-5.13l-.1-.35a70.34,70.34,0,0,1-1.32-11.76,2.12,2.12,0,0,0,0-.24l0,0a41.77,41.77,0,0,0-14.38-8C30.41,2366.14,40,2355.3,50,2345l.06-.06h0a5.2,5.2,0,0,0,.83-1.1c.23.22.47.41.71.6a13.72,13.72,0,0,0,8,2.75,19.18,19.18,0,0,0,9.29-2.3c3.39-1.77,6.52-4.69,7.09-8.46.7.07,1.42.11,2.11.14,5.65.24,11.53.74,17.13,1.4A27.41,27.41,0,0,0,94.42,2343.27Z"/><path class="cls-2" d="M145.65,2396a70,70,0,0,1-4.12,16.46,8.46,8.46,0,0,1-2.47,4,3.39,3.39,0,0,1-1.55.65l0,0a2.67,2.67,0,0,1-2.69-1,4.62,4.62,0,0,1-.55-2.36c-.16-2.87-.38-5.73-.68-8.59h0a169.87,169.87,0,0,0-2.63-16.94c-.52-2.6-1.11-5.18-1.76-7.77v0l-.06-.44h0a167,167,0,0,0,8.22-18.31l.58-1.27C142.92,2371.32,147,2384.16,145.65,2396Z"/><path class="cls-3" d="M97.4,2366.33A56,56,0,0,0,93,2382.44Q84.52,2374.22,76,2366A62.7,62.7,0,0,1,71,2353.92c-.35-1.25-.61-2.77.32-3.66,1.13-1.09,3-.32,4.34.51A180.14,180.14,0,0,1,94,2363.56C95.14,2364.46,96.28,2365.39,97.4,2366.33Z"/><path class="cls-4" d="M143.86,2342.61a9.86,9.86,0,0,1-.68,2.91c-1.82,5.35-3.74,10.82-5.84,16.22a167,167,0,0,1-8.22,18.31l0-.16,0,.1a.35.35,0,0,1,0,.13l-.42.82h0c-5.9,4.42-13.13,6.46-20.55,7.36a182.68,182.68,0,0,1,9-17.06c.53-.87,1.1-1.73,1.66-2.58,2.36-3.52,5-6.83,7.64-10.12v0c.26-.31.51-.63.76-.94,2.39-3,4.78-6,7.18-8.94h0c.21-.24.39-.48.59-.72,2.33-2.93,4.71-5.88,7.81-8A3.27,3.27,0,0,1,143.86,2342.61Z"/><path class="cls-3" d="M134.35,2348.64h0c-2.4,3-4.79,5.94-7.18,8.94-.25.31-.5.63-.76.94v0c-2.65,3.29-5.28,6.6-7.64,10.12-.56.85-1.13,1.71-1.66,2.58a78.56,78.56,0,0,1,3-15.4,36.9,36.9,0,0,1,4.76-9.57,26.54,26.54,0,0,1,3.19-3.84c.82-.81,1.91-1.61,3-1.27s1.41,1.28,1.75,2.2A39.87,39.87,0,0,1,134.35,2348.64Z"/><path class="cls-5" d="M43.13,2318.15v0"/><path class="cls-6" d="M70.87,2316.73v.08a60.56,60.56,0,0,1-.72,9.32c-.06.31-.1.62-.16.95a12.21,12.21,0,0,0-2.3-4.73,14.73,14.73,0,0,0-3.34-3,14.15,14.15,0,0,0-2.73-1.13c-1.21-.43-1.23-.43-2.41-.82a60.87,60.87,0,0,0,11.5-4C70.84,2314.47,70.84,2315.67,70.87,2316.73Z"/><line class="cls-5" x1="45.26" y1="2312.03" x2="44.72" y2="2312.03"/><path class="cls-7" d="M70.71,2313.38a60.87,60.87,0,0,1-11.5,4,53.69,53.69,0,0,1-6.09,1,41.73,41.73,0,0,1-10-.24,7,7,0,0,1-.81-.18c-1.2-.35-2.5-1.21-2.45-2.46a2.87,2.87,0,0,1,1.48-2.1,8.62,8.62,0,0,1,2-1,9.6,9.6,0,0,1,1.86-.39h25.2A8.76,8.76,0,0,1,70.71,2313.38Z"/><path class="cls-8" d="M70.46,2312H45.26a9.6,9.6,0,0,0-1.86.39c.33-2.74.7-5.91,2.14-8.27a14.31,14.31,0,0,1,5.14-4.72,14.14,14.14,0,0,1,4.25-1.77,11.41,11.41,0,0,1,11.52,4.91,18.58,18.58,0,0,1,1.61,3A30.12,30.12,0,0,1,70.46,2312Z"/><path class="cls-5" d="M43.4,2312.42s0,.07,0,.1"/><path class="cls-2" d="M76,2336.38c-.57,3.77-3.7,6.69-7.09,8.46a19.18,19.18,0,0,1-9.29,2.3,13.72,13.72,0,0,1-8-2.75c-.24-.19-.48-.38-.71-.6a8.19,8.19,0,0,0,1.6-4.87,4.85,4.85,0,0,0-.47-2.14c-.87-1.74-3-2.43-4.35-3.79a10.89,10.89,0,0,1-2.55-5.08,66,66,0,0,1-2-9.76,41.73,41.73,0,0,0,10,.24,53.69,53.69,0,0,0,6.09-1c1.18.39,1.2.39,2.41.82a14.15,14.15,0,0,1,2.73,1.13,14.73,14.73,0,0,1,3.34,3,12.21,12.21,0,0,1,2.3,4.73c-.38,2.52-.63,5.24,1,7.14C72.15,2335.66,74,2336.17,76,2336.38Z"/><path class="cls-4" d="M109.12,2347.13a94.09,94.09,0,0,0-11.72,19.2c-1.12-.94-2.26-1.87-3.4-2.77,0-6.78-.09-13.54.42-20.29a27.41,27.41,0,0,1,.79-5.35,11.37,11.37,0,0,1,1.65-3.59,2.62,2.62,0,0,1,1.27-1.08c1-.31,1.92.35,2.66,1a25.74,25.74,0,0,1,4.15,5A59.21,59.21,0,0,1,109.12,2347.13Z"/><path class="cls-1" d="M113.59,2341.42c-1.51,1.89-3,3.79-4.47,5.71a59.21,59.21,0,0,0-4.18-7.85C107.86,2339.56,111.08,2339.91,113.59,2341.42Z"/><path class="cls-2" d="M86.89,2421.91a9.16,9.16,0,0,1-2.06.79c-7.17,2-24.46,1.4-40.49-3.42-7.64-2.28-15-5.53-20.82-9.91-4.45-3.33-8.73-7.32-8.52-12.87.24-6.12,3.29-11.73,6.6-16.89.31-.48.62-1,.94-1.45a41.77,41.77,0,0,1,14.38,8,.61.61,0,0,0,0,.27,21.45,21.45,0,0,1-1.64,5.89c-.78,1.94-2.09,4-4.14,4.39a57.49,57.49,0,0,1,7.2,1.83c4.51,1.46,8.85,3.31,13.3,5.13q8.67,3.51,17.31,7.06a11.45,11.45,0,0,0,2.16.49c1.55.35,3.09.74,4.63,1.14a3.94,3.94,0,0,1,2,1c.06.08.1.15.16.24.56.94,1.17,1.86,1.8,2.77,2.28.14,3.65.21,5.92.42S94.07,2418,86.89,2421.91Z"/><path class="cls-9" d="M92.67,2389h0c-1.85,0-3.7-.14-5.53-.35a50.26,50.26,0,0,1-16.7-4.87.47.47,0,0,1-.06-.09l-.21-.31c-4-6-7.78-12.28-11.51-18.51-3-5-6.17-10.63-5.31-16.46,3.59-.37,6.7,2.32,9.31,4.81L76,2366q8.52,8.21,17.05,16.4A57.86,57.86,0,0,0,92.67,2389Z"/><path class="cls-9" d="M124.86,2346.28a36.9,36.9,0,0,0-4.76,9.57,78.56,78.56,0,0,0-3,15.4,182.68,182.68,0,0,0-9,17.06,100.7,100.7,0,0,1-10.66.68c-1.58,0-3.17,0-4.75,0h0a57.86,57.86,0,0,1,.37-6.55,56,56,0,0,1,4.36-16.11,94.09,94.09,0,0,1,11.72-19.2c1.46-1.92,3-3.82,4.47-5.71,2.54-3.17,5.13-6.32,7.64-9.5a1.52,1.52,0,0,1,1-.73c.81-.07,1.18,1,1.26,1.78.45,4.36.92,8.72,1.37,13.08Z"/><path class="cls-3" d="M137.49,2417.17a29.4,29.4,0,0,1-10.06,7.94,50.52,50.52,0,0,1-9.63,3.68c-2.32.62-4.65,1.2-7,1.65a38.58,38.58,0,0,1-10.71.72l-.55-.06a24.32,24.32,0,0,1-3.58-.69h0c-.62-.17-1.22-.35-1.83-.57a18.24,18.24,0,0,1-9.28-7.14,9.16,9.16,0,0,0,2.06-.79c7.18-3.92,1-4.88-1.28-5.11s-3.64-.28-5.92-.42c-.63-.91-1.24-1.83-1.8-2.77-.06-.09-.1-.16-.16-.24a53.69,53.69,0,0,1-7-19.06,59.91,59.91,0,0,0,7.75,1.82,83.85,83.85,0,0,0,11.73,1.19,86.12,86.12,0,0,0,21.81-2.15l2-.49a85.42,85.42,0,0,0,9.19-2.94c2.55-1,5.12-2.12,7.71-3.43a169.87,169.87,0,0,1,2.63,16.94h0c.3,2.86.52,5.72.68,8.59a4.62,4.62,0,0,0,.55,2.36A2.67,2.67,0,0,0,137.49,2417.17Z"/><path class="cls-10" d="M124.41,2502.4a6.31,6.31,0,0,1-1.6,3.91s0,0,0,0a18.06,18.06,0,0,1-17.1,7.1c-.47-.07-1-.35-1-.82a28.41,28.41,0,0,1-3.29-4.93c-.92-1.71-1.74-3.48-2.7-5.32q-2.34-4.56-4.73-9.11a172.07,172.07,0,0,1-8.78-18.76c-2.31-6.25-3.89-12.76-5.79-19.16-.46-1.58-1-3.29-2.42-4.15s-2.84-.46-2.86,1.19a90.37,90.37,0,0,0-.63,11c-.06,3.67,0,7.36-.28,11.06a140,140,0,0,1-2.69,18.08c-1.18,5.74-3.89,12.64-7.72,17.06a24.34,24.34,0,0,1-3.91,3.64c-4.83,3.64-10.89,5.42-18.2,5.79h-.28c-1,.1-2.27.34-2.82-.5-2.16-14.93-2-29.94-.67-44.93,1.26-14.78,3.48-29.87,10.51-43a.27.27,0,0,1,.05-.11,141.17,141.17,0,0,0,43.33-.14c1.1-.17,2.18-.37,3.25-.57.61.22,1.21.4,1.83.57h0a24.32,24.32,0,0,0,3.58.69l.55.06a38.58,38.58,0,0,0,10.71-.72h.08C117.91,2454,125.14,2477.8,124.41,2502.4Z"/><path class="cls-1" d="M94.11,2429.84c-1.07.2-2.15.4-3.25.57a141.17,141.17,0,0,1-43.33.14h-.1a46.78,46.78,0,0,1-3.09-11.26c16,4.82,33.32,5.41,40.49,3.42A18.24,18.24,0,0,0,94.11,2429.84Z"/><path class="cls-11" d="M58.3,2548.37a27.29,27.29,0,0,1-2.48,8.82C53.21,2562,48,2564.77,43,2567a13.9,13.9,0,0,1-3.91,1.23,5.19,5.19,0,0,1-3.89-.95,1.41,1.41,0,0,1-.52-.72,1.75,1.75,0,0,1,.45-1.33,65.77,65.77,0,0,1,4.89-5.93,12.21,12.21,0,0,0,2.68-8.45,53.73,53.73,0,0,0-1.37-9,77.07,77.07,0,0,1-.86-22.79h.28c7.31-.37,13.37-2.15,18.2-5.79C60.9,2524.89,60.2,2536.69,58.3,2548.37Z"/><path class="cls-5" d="M73.06,2569.71l-.06-.32"/><path class="cls-11" d="M122.08,2549.14a16.44,16.44,0,0,1-2.53,4.59,18.45,18.45,0,0,1-2.91,2.67,45.32,45.32,0,0,1-6.34,4.08,4.8,4.8,0,0,1-2.21.74,1.84,1.84,0,0,1-1.84-1.22,2.56,2.56,0,0,1,.27-1.55c1.41-3.55,3.25-7,3.5-10.82a24.72,24.72,0,0,0-.31-5.15c-1.23-9.68-2.6-19.38-4-29a18.06,18.06,0,0,0,17.1-7.1c.36,4.57.67,10.35,1.07,14.74C124.7,2530.49,125.49,2540.32,122.08,2549.14Z"/><path class="cls-12" d="M130.94,2388.31c-2.59,1.31-5.16,2.44-7.71,3.43a85.42,85.42,0,0,1-9.19,2.94l-2,.49a86.12,86.12,0,0,1-21.81,2.15,83.85,83.85,0,0,1-11.73-1.19,59.91,59.91,0,0,1-7.75-1.82.8.8,0,0,1-.05-.26,48.27,48.27,0,0,1-.57-5.44,45.58,45.58,0,0,1,0-5.23l.21.31h-.13l.19.09a50.26,50.26,0,0,0,16.7,4.87c1.83.21,3.68.31,5.53.35,1.58,0,3.17,0,4.75,0a100.7,100.7,0,0,0,10.66-.68c7.42-.9,14.65-2.94,20.55-7.36h0l.52-.4C129.83,2383.13,130.42,2385.71,130.94,2388.31Z"/></svg>