<svg id="Layer_1" data-name="Layer 1" xmlns="http://www.w3.org/2000/svg" viewBox="0 0 750 5342"><defs><style>.cls-1{fill:#f1817f;}.cls-2{fill:none;stroke:#4f3d2f;stroke-linecap:round;stroke-linejoin:round;stroke-width:8.18px;}.cls-3{fill:#f07071;}.cls-4{fill:#976334;}.cls-5{fill:#7e5a3f;}</style></defs><title>mobi11</title><path class="cls-1" d="M685.27,2907.06a20.14,20.14,0,0,1-8.2-1.35,178.64,178.64,0,0,0,2-26.64c-2.33,0-4.65,0-7,0-1,5.8-2.09,11.63-3.15,17.43a14,14,0,0,1-2,5.77c-1.21,1.66-3.46,2.73-5.34,1.94a2.77,2.77,0,0,1-1.68-1.88,5,5,0,0,1,0-1.45,154,154,0,0,0,.61-24.76l-17.55-.86a18.39,18.39,0,0,0-1.4,3,143.85,143.85,0,0,0-5.6,17.67c-.67,2.73-1.53,5.81-4,7.05s-5.4.09-7.91-1.05c.08-3.29,1.78-6.3,2.75-9.47,1.44-4.83,1.15-10,.83-15a.78.78,0,0,0-1-1c-2,.29-5.16,1-7.17,1.25a122.86,122.86,0,0,1-10.27,22.51,3.28,3.28,0,0,1-1.13,1.33,3.21,3.21,0,0,1-1.82.22c-1.1-.08-2.17-.19-3.24-.32a2.47,2.47,0,0,1-2-1,2.16,2.16,0,0,1-.19-1.26,75,75,0,0,1,2.51-14.44c.58-2.37,1.16-4.72,1.73-7.09-6.27-1.3-12.81-.59-19.17.24-4.07.56-8.28,1.14-12.27.16s-8.28-5.57-9.07-9.59l-3.41-.34a5,5,0,0,1-2.58-.74,4.7,4.7,0,0,1-1.43-2.68,35.17,35.17,0,0,1-.11-17,2.25,2.25,0,0,1,.65-1.3c.8-.62,1.94,0,2.95-.1a3.94,3.94,0,0,0,1.94-1.07,232.25,232.25,0,0,0,17.82-16.81c1.9-2,3.73-4,5.43-6,.15-.52.35-1,.54-1.56a33.17,33.17,0,0,1,4.86-8.5c4.3-5.61,10.11-10.23,15.76-14.62,1.12,3.3,4.51,5.36,5.88,8.56a13.58,13.58,0,0,1,.89,3.67c.12.87.22,1.72.3,2.58,5.3-3.29,13.77-3.41,19.9-3.79,7.31-.42,14.37-2.76,21.56-4.08,8.47-1.57,17.3-1.71,25.56.73s15.84,7.68,20.11,15.14a37.74,37.74,0,0,1,4.51,17.81C706.33,2862.35,691.47,2883.8,685.27,2907.06Z"/><path class="cls-2" d="M577.83,2845.83l.44,4.54"/><path class="cls-3" d="M591.24,2812.3a33.17,33.17,0,0,0-4.86,8.5c-.19.52-.39,1-.54,1.56-1.7,2-3.53,4-5.43,6-1.8-7.82-2.31-17.64-.35-25C584.32,2804.83,588.61,2808.57,591.24,2812.3Z"/><path class="cls-3" d="M594.3,2833.69a16,16,0,0,0,8.59-2,3,3,0,0,0,1.36-1.22,3.27,3.27,0,0,0,.12-1.89l-2-15.27c-4.55,5.43-7.92,13.27-8.12,20.36Z"/><path class="cls-4" d="M709.51,2846.92a6.48,6.48,0,0,1-3.51-1.26,4.86,4.86,0,0,1-2-3.5,1.83,1.83,0,0,1,3.65-.29,1.28,1.28,0,0,0,.56.88,2.78,2.78,0,0,0,2.07.48c1.63-.33,3-1.8,4.06-3a17.37,17.37,0,0,0,3.93-7.25,7.09,7.09,0,0,1-6.6-1.75,6.6,6.6,0,0,1-.58-8.63,4.41,4.41,0,0,1,3.49-1.79,4.81,4.81,0,0,1,1.88.47,9.43,9.43,0,0,1,4.21,4,16.31,16.31,0,0,0,.25-4.24c-.12-2-.43-4.43-1.8-6a1.8,1.8,0,0,1-1.1.37,1.82,1.82,0,0,1-1.84-1.81,2.42,2.42,0,0,1,1.48-2.26,3.69,3.69,0,0,1,3.76.81c2.48,2.39,3,5.88,3.15,8.64.26,4.29-.58,7.61-2.43,9.78a12.3,12.3,0,0,1,0,1.48c-.31,3.45-1.93,6.89-5,10.52-1.42,1.7-3.4,3.73-6.15,4.28A5.73,5.73,0,0,1,709.51,2846.92Zm5-22.5h0a1.06,1.06,0,0,0-.57.43,3,3,0,0,0,.3,3.74,3.52,3.52,0,0,0,4,.46,6.36,6.36,0,0,0-3.31-4.48A1.78,1.78,0,0,0,714.52,2824.42Z"/><path class="cls-5" d="M632.68,2814.14s3.61,2.53,4.47,4.76,0,.71,0,.71,30-6.29,39.94-5.93c0,0-3.3-5.67-6.12-5.12Z"/></svg>