<svg id="Layer_1" data-name="Layer 1" xmlns="http://www.w3.org/2000/svg" viewBox="0 0 750 5342"><defs><style>.cls-1{fill:#fbd2c0;}.cls-2{fill:#152d53;}.cls-3{fill:#eaefe1;}.cls-4{fill:#4f3d2f;}.cls-5{fill:#dfdbd0;}.cls-6{fill:#e8eede;}.cls-7{fill:#5e877e;}.cls-8{fill:#fdda0e;}.cls-9{fill:#c6742b;}.cls-10{fill:#185939;}</style></defs><title>mobi17</title><path class="cls-1" d="M59.25,3089.21c-3.33,3.69-7,7.33-8.58,12,3.84.93,7.62-1.54,10.58-4.15a62.21,62.21,0,0,0,10-11.32C73,3083.3,79.14,3075.17,78,3072c-1.91-5.43-6.35.66-7.62,2.62A114.08,114.08,0,0,1,59.25,3089.21Z"/><path class="cls-1" d="M114.38,3080.08c5.22,9.68,10.86,19.81,20.26,25.51,2,1.21,5,2,6.28,0,1.15-1.81-.4-4.07-1.85-5.65a256.15,256.15,0,0,1-20.27-25.12c-1.56-2.19-4.47-9.07-7.91-5.45C108.26,3072.14,113,3077.51,114.38,3080.08Z"/><path class="cls-1" d="M72.69,3031.82c3.74,5.56,12.17,7,17.83,3.42,10.1-6.38,8.21-23.89-3.14-28.08C74.39,3002.37,66.17,3022.12,72.69,3031.82Z"/><path class="cls-1" d="M81.38,3165.92c-1.67,9.53-3.07,19.39-6.45,28.51-.34.9-.7,1.81-1.07,2.7l-8.3-.33-.6,0c0-.5.05-1,.09-1.6.81-13.3,2.88-43.24,15.75-45.44C87.39,3148.6,82.18,3161.34,81.38,3165.92Z"/><path class="cls-1" d="M86.7,3025.26c.62,2.72.12,5.56-.14,8.35s-.23,5.78,1.29,8.12,5,3.59,7.22,1.87l.3-13a4.63,4.63,0,0,0-.32-2.25c-.94-1.86-3.63-1.66-5.66-1.18"/><path class="cls-1" d="M135.91,3191.92q-4.49,2.67-9,5.32c-1.24-2.11-2.5-4.26-3.65-6.46a49.2,49.2,0,0,1-2.57-5.75c-1.87-5.15-14-26.68-6.19-30.12,2.94-1.3,6.52,0,8.76,2.34s3.43,5.41,4.53,8.44q2.89,8,5.45,16.14c.83,2.64,1.63,5.32,2.24,8C135.65,3190.55,135.79,3191.24,135.91,3191.92Z"/><path class="cls-2" d="M48.85,3160.84,82,3167.26a112.61,112.61,0,0,0,17.68,2.47,57.23,57.23,0,0,0,39-13.87,75.24,75.24,0,0,1-14.16-24.54c-2.34-6.76-3.7-13.83-5.91-20.63-3.93-12.06-10.47-23.08-17-34a2.79,2.79,0,0,0-1.54-1.48,2.71,2.71,0,0,0-1.72.36c-6.06,2.72-15.54,5-19.7,10.52-3.89,5.15-5.64,15.05-8,21C68.77,3111.75,50.48,3161.16,48.85,3160.84Z"/><path class="cls-3" d="M73.86,3197.13c-.64,1.52-1.34,3-2.12,4.47-1.08,2-3.13,4.26-5.22,3.34-1.81-.79-1.93-3.27-1.76-5.23.06-.77.12-1.76.2-2.94l.6,0Z"/><path class="cls-3" d="M136.43,3201.76a2.35,2.35,0,0,1-.82,1.84c-.63.42-4.1,2.11-4.42,1.42-1.2-2.57-2.72-5.15-4.27-7.78q4.5-2.65,9-5.32A33.54,33.54,0,0,1,136.43,3201.76Z"/><path class="cls-4" d="M48.61,3205.55c1.42-.39,15.15-4.19,22.83-4.45a.84.84,0,0,1,.76.41c1.72,2.74-.35,6.83-3.44,8.12a24.75,24.75,0,0,1-12.51,1.06c-2.66-.61-4.42-.89-6.3-1.53-.73-.25-2.22-3.09-1.57-3.5h0A.82.82,0,0,1,48.61,3205.55Z"/><path class="cls-4" d="M131.19,3201.06a12.65,12.65,0,0,1,5.5-3.12c1.62,2,1.86,4.74,2,7.3a5.77,5.77,0,0,1-.4,3.17c-1,1.77-3.38,2-5.4,2l-11.24.07a6.91,6.91,0,0,1-4-.78c-1.14-.77-1.65-2.61-.63-3.53a3.5,3.5,0,0,1,1.88-.67C124.27,3204.74,127.3,3205,131.19,3201.06Z"/><path class="cls-3" d="M73.71,3062l1.38-8.59c2.89-18,19.67-18.94,20.38,1l.61,17.37c0,1.17-.08,2.61-1.14,3.1a3.08,3.08,0,0,1-1.68.08c-6-.84-12.18-1.72-17.58-4.51-2.26-1.16-4.64-3.36-4-5.8a5.85,5.85,0,0,1,1.48-2.26,44.85,44.85,0,0,1,6.61-5.86"/><path class="cls-5" d="M68.81,3110.72a30.3,30.3,0,0,0,1.51-6c2.59-14.7,6.42-29.21,7.52-44.1,1.84-24.85,30.7-26.29,30.5-.42-.07,9.43-1.54,19.14,1.36,28.12,1.38,4.26,7.25,13.33,7.28,17.81Z"/><path class="cls-6" d="M98.07,3077.5c-.27,2.82,2.84,5.06,5.66,4.86s5.24-2.07,7.23-4.09a38.39,38.39,0,0,0,5.6-7.21,7.34,7.34,0,0,0,1.22-3.08,8.31,8.31,0,0,0-1.42-4.57l-8.71-16c-1.3-2.4-2.78-5-5.28-6.07s-6.19.26-6.26,3a12.69,12.69,0,0,0-2,5.18C92.16,3058.62,98.94,3068.22,98.07,3077.5Z"/><path class="cls-4" d="M87.08,3025.42a19.92,19.92,0,0,1-11.55-15.68,2.75,2.75,0,0,1,.15-1.56,2.55,2.55,0,0,1,1-.93,16,16,0,0,1,24,8.25c1.4,4.13,1.07,8.62,1.84,12.91s3.24,8.85,7.5,9.76l-13.82.77a48.51,48.51,0,0,0-8.94-14.05l2.3.92"/><path class="cls-6" d="M87.35,3044.38q6-1.38,11.86-3.13a23.4,23.4,0,0,0-7.27-1,30.07,30.07,0,0,1-3.39.31c-.87,0-2-.84-2.57.08C85.58,3041.37,87.07,3043.71,87.35,3044.38Z"/><path class="cls-2" d="M89.59,3056.58a.69.69,0,0,0,1.06.42l1.21-.84c.1-.07.21-.15.23-.26a.46.46,0,0,0,0-.28c-1.2-3.33-2.18-7-3.7-10.17a.69.69,0,0,0-.68-.38C84.45,3045.37,88.85,3053.42,89.59,3056.58Z"/><path class="cls-2" d="M79.2,3054.32a.46.46,0,0,0,.25.64l1.32.53a.71.71,0,0,0,.4.09c.25,0,.39-.32.49-.56,1.32-3.21,3.59-6.11,5-9.2a.47.47,0,0,0-.51-.66C83.59,3045.64,80.31,3052,79.2,3054.32Z"/><path class="cls-7" d="M88.59,3043.75a.82.82,0,0,0-.83-.68c-.76,0-1.93.12-2.33.71a1.64,1.64,0,0,0-.2,1.43,1.89,1.89,0,0,0,2.43,1.16,1.91,1.91,0,0,0,1-2.44l-.06-.18Z"/><path class="cls-8" d="M44.87,3091.61s.76-2.89,2.51-3.56a12.86,12.86,0,0,0,3.68-2c.51-.5,8.88,1.72,10.61,13.52s-2.08,11.18-11,5.68S44.87,3091.61,44.87,3091.61Z"/><path class="cls-9" d="M49.71,3087.34s-1.85-3.83-2.8-4.53a.8.8,0,0,1,.91-.1,15.66,15.66,0,0,1,2.55,4.17C50.46,3087.63,49.71,3087.34,49.71,3087.34Z"/><path class="cls-10" d="M48.22,3084.57s.09-.27-1.2.2-1.6-.52-2.68-.24-4,1.47-4.4,5.93-1.51,5.69-1.51,5.69,2.13-1.14,2.4-2.41S41.34,3088,48.22,3084.57Z"/></svg>