<svg id="Layer_1" data-name="Layer 1" xmlns="http://www.w3.org/2000/svg" viewBox="0 0 750 5342"><defs><style>.cls-1{font-size:72px;fill:#478a71;font-family:Itim-Regular, Itim;}.cls-2{fill:#4d4032;}</style></defs><title>mobi21</title><text class="cls-1" transform="translate(228.49 381.14)">ทฤษฎีใหม่<tspan x="-8.53" y="86.4">ขั้นก้าวหน้า</tspan></text><path class="cls-2" d="M123.58,549.07V537.73h2.8v10.64a1.25,1.25,0,0,0,.28.88,1.15,1.15,0,0,0,.87.29h1.19v2.23h-2.41A2.4,2.4,0,0,1,123.58,549.07Z"/><path class="cls-2" d="M135.89,551.58a7.52,7.52,0,0,1-2.2-1.34l-.16,1.53H131v-14h2.83v10.35a5.78,5.78,0,0,0,1.75,1.22,5,5,0,0,0,2.13.47,3,3,0,0,0,2.2-.7,3.09,3.09,0,0,0,.71-2.26v-9.08h2.81v9.21a5.25,5.25,0,0,1-1.26,3.75A4.63,4.63,0,0,1,138.6,552,7.59,7.59,0,0,1,135.89,551.58Z"/><path class="cls-2" d="M132.65,533.62h5v-2.15h2.06v2.15h1.56v-2.15h2.05v4.13H132.52Z"/><path class="cls-2" d="M141,526.6h2.34v3.62H141Z"/><path class="cls-2" d="M148.34,551.75a12.69,12.69,0,0,1-2.53-.76v-7.23h5.56l.13,2.16h-3v3.41a8.35,8.35,0,0,0,2.86.44,5.34,5.34,0,0,0,2.47-.48,2.86,2.86,0,0,0,1.32-1.56,8.31,8.31,0,0,0,.42-2.93,7.87,7.87,0,0,0-.47-3,2.9,2.9,0,0,0-1.52-1.54,7.5,7.5,0,0,0-3-.47,15.25,15.25,0,0,0-4.66.68v-2.19a15.32,15.32,0,0,1,2.51-.57,19.52,19.52,0,0,1,2.85-.21q3.62,0,5.29,1.83a7.92,7.92,0,0,1,1.68,5.5,7.7,7.7,0,0,1-1.68,5.42Q155,552,151.4,552A16.05,16.05,0,0,1,148.34,551.75Z"/><path class="cls-2" d="M160.6,549.07V537.73h2.81v10.64a1.25,1.25,0,0,0,.27.88,1.15,1.15,0,0,0,.87.29h1.2v2.23h-2.42A2.4,2.4,0,0,1,160.6,549.07Z"/><path class="cls-2" d="M168.22,546.7c0-1.73.68-2.81,2.05-3.22l-2.81-.7v-2.92a9.63,9.63,0,0,1,2.9-1.71,10.5,10.5,0,0,1,3.84-.68A7.42,7.42,0,0,1,179,538.8a5.21,5.21,0,0,1,1.61,4.26v8.71h-2.83V543a3.17,3.17,0,0,0-.84-2.51,4.44,4.44,0,0,0-2.86-.71,7.83,7.83,0,0,0-2.4.36,4.83,4.83,0,0,0-1.78,1v.46l3,.76v1.87a2.46,2.46,0,0,0-1.43.83,2.89,2.89,0,0,0-.41,1.72v5h-2.81Z"/><path class="cls-2" d="M185,550.59a5.35,5.35,0,0,1-1.66-4.28v-8.58h2.8v8.69a3.27,3.27,0,0,0,.91,2.53,3.92,3.92,0,0,0,2.71.82,3.87,3.87,0,0,0,2.69-.82,3.26,3.26,0,0,0,.9-2.53v-1.85H190v-2.16h3.36v-4.68h2.83v4.68h1.53l-.2,2.16h-1.33v1.74a5.33,5.33,0,0,1-1.68,4.28,8.55,8.55,0,0,1-9.5,0Z"/><path class="cls-2" d="M200.38,550.28a7.82,7.82,0,0,1-1.56-5.32,10.49,10.49,0,0,1,1.21-5.55,3.81,3.81,0,0,1,3.42-1.94,3.48,3.48,0,0,1,1.65.34,3.75,3.75,0,0,1,1.16,1,4,4,0,0,1,1.43-1,4.5,4.5,0,0,1,1.79-.38,3.15,3.15,0,0,1,2.5,1,4.13,4.13,0,0,1,.85,2.78v10.53H210V541.66a2.75,2.75,0,0,0-.29-1.47,1.2,1.2,0,0,0-1.09-.43,1.64,1.64,0,0,0-1,.3,1.75,1.75,0,0,0-.64.9h-1.56a2.86,2.86,0,0,0-.68-.93,1.43,1.43,0,0,0-.93-.27,1.8,1.8,0,0,0-1.78,1.33,11.27,11.27,0,0,0-.51,3.87,6.06,6.06,0,0,0,.87,3.69,3.13,3.13,0,0,0,2.64,1.12,5.68,5.68,0,0,0,1.79-.21v2.16a6.93,6.93,0,0,1-2.28.31A5.31,5.31,0,0,1,200.38,550.28Z"/><path class="cls-2" d="M217.5,551.85a8.82,8.82,0,0,1-2.09-.52V549a10.74,10.74,0,0,0,2.1.6,12.11,12.11,0,0,0,2.16.21,7.57,7.57,0,0,0,2.71-.34,1.31,1.31,0,0,0,.8-1.35,1.5,1.5,0,0,0-.31-1,2.16,2.16,0,0,0-.86-.61,17.83,17.83,0,0,0-1.69-.6l-1-.34a10.33,10.33,0,0,1-3.19-1.6,3,3,0,0,1-1.05-2.45,3.48,3.48,0,0,1,1.43-3,7.07,7.07,0,0,1,4.21-1,15.3,15.3,0,0,1,2.32.18,13.25,13.25,0,0,1,2,.45v2.34a10.05,10.05,0,0,0-1.88-.5,11.86,11.86,0,0,0-2-.18,6.84,6.84,0,0,0-2.48.35,1.39,1.39,0,0,0-.5,2.2,2.83,2.83,0,0,0,.95.61c.4.16,1,.38,1.85.66l.75.24a9.23,9.23,0,0,1,3.22,1.65,3.8,3.8,0,0,1-.52,5.59,7.72,7.72,0,0,1-4.21,1A19.49,19.49,0,0,1,217.5,551.85Z"/><path class="cls-2" d="M228.38,546.7c0-1.73.69-2.81,2.06-3.22l-2.81-.7v-2.92a9.51,9.51,0,0,1,2.9-1.71,10.44,10.44,0,0,1,3.83-.68,7.4,7.4,0,0,1,4.81,1.33,5.18,5.18,0,0,1,1.61,4.26v8.71H238V543a3.21,3.21,0,0,0-.83-2.51,4.48,4.48,0,0,0-2.86-.71,7.94,7.94,0,0,0-2.41.36,4.83,4.83,0,0,0-1.78,1v.46l3,.76v1.87a2.4,2.4,0,0,0-1.43.83,2.89,2.89,0,0,0-.42,1.72v5h-2.81Z"/><path class="cls-2" d="M245.45,551.85a8.82,8.82,0,0,1-2.09-.52V549a10.74,10.74,0,0,0,2.1.6,12.11,12.11,0,0,0,2.16.21,7.57,7.57,0,0,0,2.71-.34,1.31,1.31,0,0,0,.8-1.35,1.5,1.5,0,0,0-.31-1,2.16,2.16,0,0,0-.86-.61,17.83,17.83,0,0,0-1.69-.6l-1-.34a10.33,10.33,0,0,1-3.19-1.6,3,3,0,0,1-1-2.45,3.48,3.48,0,0,1,1.43-3,7.07,7.07,0,0,1,4.21-1,15.3,15.3,0,0,1,2.32.18,13.25,13.25,0,0,1,2,.45v2.34a10.05,10.05,0,0,0-1.88-.5,11.86,11.86,0,0,0-2-.18,6.84,6.84,0,0,0-2.48.35,1.39,1.39,0,0,0-.5,2.2,2.83,2.83,0,0,0,1,.61c.4.16,1,.38,1.85.66l.75.24a9.23,9.23,0,0,1,3.22,1.65,3.8,3.8,0,0,1-.52,5.59,7.72,7.72,0,0,1-4.21,1A19.49,19.49,0,0,1,245.45,551.85Z"/><path class="cls-2" d="M256.15,549.07V537.73H259v10.64a1.25,1.25,0,0,0,.27.88,1.15,1.15,0,0,0,.87.29h1.2v2.23h-2.42A2.4,2.4,0,0,1,256.15,549.07Z"/><path class="cls-2" d="M264.82,550.67a4.92,4.92,0,0,1-1.55-3.89V545.4a3.44,3.44,0,0,1,.37-1.55,12.9,12.9,0,0,1,1.06-1.65,10.36,10.36,0,0,0,.68-1,1.37,1.37,0,0,0,.21-.69.64.64,0,0,0-.18-.53,1.07,1.07,0,0,0-.65-.15H263l.24-2.13h3.27c1.32,0,2,.63,2,1.9a3.27,3.27,0,0,1-.3,1.43,14.58,14.58,0,0,1-.9,1.56,10.86,10.86,0,0,0-.87,1.46,3,3,0,0,0-.3,1.35V547a2.53,2.53,0,0,0,.83,2.08,3.75,3.75,0,0,0,2.4.68q3.19,0,3.19-2.83v-9.21h2.84v9a4.9,4.9,0,0,1-1.6,3.89,6.52,6.52,0,0,1-4.43,1.39A6.59,6.59,0,0,1,264.82,550.67Z"/><path class="cls-2" d="M269.36,533.21H267.3v-2h4v2.36h5.61l-.1,2h-7.46Z"/><path class="cls-2" d="M283.4,542.93a5.54,5.54,0,0,0-.24-1.81,1.76,1.76,0,0,0-.89-1,4.22,4.22,0,0,0-1.91-.35,10,10,0,0,0-1.81.18,9.15,9.15,0,0,0-1.76.5v-2.19a10.68,10.68,0,0,1,1.93-.56,11.77,11.77,0,0,1,2.18-.22,5.72,5.72,0,0,1,4.07,1.22,5.22,5.22,0,0,1,1.26,3.88v9.2H283.4Z"/><path class="cls-2" d="M288.65,549.07v-6a4.54,4.54,0,0,1,.53-2.29,10.49,10.49,0,0,1,1.47-1.87,8.27,8.27,0,0,0,.82-.95,1.26,1.26,0,0,0,.25-.76,1.17,1.17,0,0,0-.4-1,2.46,2.46,0,0,0-1.32-.27,5.88,5.88,0,0,0-2.83.78v-2.08a5.86,5.86,0,0,1,1.78-.71,8.32,8.32,0,0,1,2-.25,4.18,4.18,0,0,1,2.75.78,2.75,2.75,0,0,1,.92,2.21,3,3,0,0,1-.38,1.53,8.28,8.28,0,0,1-1.13,1.46,14,14,0,0,0-1.25,1.7,3.64,3.64,0,0,0-.41,1.81v5.23a1.38,1.38,0,0,0,.22.93,1.27,1.27,0,0,0,.92.24h1.2v2.23h-2.42A2.4,2.4,0,0,1,288.65,549.07Z"/><path class="cls-2" d="M300.48,551.94a4.28,4.28,0,0,1-1-.25l-2.08-5.53h-1.79l.13-2.14h3.45l2.16,5.78a3.6,3.6,0,0,0,3-1.17,6,6,0,0,0,1.11-4,7.13,7.13,0,0,0-.48-2.9,2.9,2.9,0,0,0-1.57-1.51,8.14,8.14,0,0,0-3-.45,14.15,14.15,0,0,0-4.44.68v-2.19a17,17,0,0,1,5.2-.78c2.42,0,4.21.6,5.34,1.81a7.48,7.48,0,0,1,1.7,5.34,8.64,8.64,0,0,1-.87,4,6.05,6.05,0,0,1-2.34,2.53,6.23,6.23,0,0,1-3.23.86A8.72,8.72,0,0,1,300.48,551.94Z"/><path class="cls-2" d="M310.33,537.73h2.84v4.42h4.05a2.91,2.91,0,0,0,2.1-.62,2.79,2.79,0,0,0,.61-2v-1.82h2.81v1.74c0,2-.71,3.22-2.11,3.72a2.58,2.58,0,0,1,1.55,1.25,4.88,4.88,0,0,1,.43,2.16v5.17H319.8v-4.83a2.88,2.88,0,0,0-.57-2.07,3.07,3.07,0,0,0-2.11-.56h-3.95v7.46h-2.84Z"/><path class="cls-2" d="M326.36,551a4.52,4.52,0,0,1,.09-6.45,6.37,6.37,0,0,1,4.06-1.13h4.29v-.88a3.28,3.28,0,0,0-.34-1.64,1.88,1.88,0,0,0-1.12-.86,7.18,7.18,0,0,0-2.15-.26,14.91,14.91,0,0,0-4.58.68v-2.19a18.54,18.54,0,0,1,2.4-.56,17.2,17.2,0,0,1,2.64-.22,6.7,6.7,0,0,1,4.53,1.29,5.1,5.1,0,0,1,1.45,4v9H334.8v-6.19h-4.11a4,4,0,0,0-2.22.5,1.86,1.86,0,0,0-.72,1.66,1.78,1.78,0,0,0,.65,1.57,3.92,3.92,0,0,0,2.19.46,6.71,6.71,0,0,0,1.79-.21v2.16a9.37,9.37,0,0,1-2.55.31A5.42,5.42,0,0,1,326.36,551Z"/><path class="cls-2" d="M331.45,531.8h2.34v1.82h6.73l-.13,2h-8.94Z"/><path class="cls-2" d="M340.62,546.7c0-1.73.69-2.81,2.06-3.22l-2.81-.7v-2.92a9.63,9.63,0,0,1,2.9-1.71,10.44,10.44,0,0,1,3.83-.68,7.38,7.38,0,0,1,4.81,1.33,5.18,5.18,0,0,1,1.62,4.26v8.71h-2.84V543a3.21,3.21,0,0,0-.83-2.51,4.48,4.48,0,0,0-2.86-.71,7.94,7.94,0,0,0-2.41.36,4.92,4.92,0,0,0-1.78,1v.46l3,.76v1.87a2.43,2.43,0,0,0-1.43.83,2.89,2.89,0,0,0-.42,1.72v5h-2.81Z"/><path class="cls-2" d="M356,546.7c0-1.73.68-2.81,2.05-3.22l-2.81-.7v-2.92a9.63,9.63,0,0,1,2.9-1.71,10.46,10.46,0,0,1,3.84-.68,7.42,7.42,0,0,1,4.81,1.33,5.21,5.21,0,0,1,1.61,4.26v8.71h-2.84V543a3.17,3.17,0,0,0-.83-2.51,4.46,4.46,0,0,0-2.86-.71,7.83,7.83,0,0,0-2.4.36,4.75,4.75,0,0,0-1.78,1v.46l3,.76v1.87a2.43,2.43,0,0,0-1.43.83,2.89,2.89,0,0,0-.42,1.72v5H356Z"/><path class="cls-2" d="M376.48,542.93a5.54,5.54,0,0,0-.24-1.81,1.76,1.76,0,0,0-.89-1,4.25,4.25,0,0,0-1.91-.35,10,10,0,0,0-1.81.18,9.15,9.15,0,0,0-1.76.5v-2.19a10.68,10.68,0,0,1,1.93-.56,11.77,11.77,0,0,1,2.18-.22,5.72,5.72,0,0,1,4.07,1.22,5.22,5.22,0,0,1,1.26,3.88v9.2h-2.83Z"/><path class="cls-2" d="M384,551.85a8.69,8.69,0,0,1-2.09-.52V549a10.74,10.74,0,0,0,2.1.6,11.94,11.94,0,0,0,2.16.21,7.47,7.47,0,0,0,2.7-.34,1.31,1.31,0,0,0,.81-1.35,1.5,1.5,0,0,0-.31-1,2.23,2.23,0,0,0-.86-.61,17.83,17.83,0,0,0-1.69-.6l-1-.34a10.1,10.1,0,0,1-3.19-1.6,3,3,0,0,1-1.05-2.45,3.46,3.46,0,0,1,1.43-3,7,7,0,0,1,4.21-1,15.18,15.18,0,0,1,2.31.18,13.41,13.41,0,0,1,2,.45v2.34a10.16,10.16,0,0,0-1.89-.5,11.74,11.74,0,0,0-2-.18,6.9,6.9,0,0,0-2.49.35,1.28,1.28,0,0,0-.84,1.29,1.24,1.24,0,0,0,.35.91,2.83,2.83,0,0,0,.95.61c.4.16,1,.38,1.84.66l.76.24a9.23,9.23,0,0,1,3.22,1.65,3.8,3.8,0,0,1-.52,5.59,7.72,7.72,0,0,1-4.21,1A19.39,19.39,0,0,1,384,551.85Z"/><path class="cls-2" d="M394.63,549.07V537.73h2.83v10.64a1.25,1.25,0,0,0,.27.88,1.18,1.18,0,0,0,.87.29h1v2.23h-2.28A2.4,2.4,0,0,1,394.63,549.07Zm6.31,0V537.73h2.81v10.64a1.21,1.21,0,0,0,.28.88,1.15,1.15,0,0,0,.87.29H406v2.23h-2.29A2.4,2.4,0,0,1,400.94,549.07Z"/><path class="cls-2" d="M409,551a4.52,4.52,0,0,1,.09-6.45,6.37,6.37,0,0,1,4.06-1.13h4.29v-.88a3.28,3.28,0,0,0-.34-1.64A1.88,1.88,0,0,0,416,540a7.18,7.18,0,0,0-2.15-.26,14.91,14.91,0,0,0-4.58.68v-2.19a18.33,18.33,0,0,1,2.41-.56,17,17,0,0,1,2.63-.22,6.7,6.7,0,0,1,4.53,1.29,5.1,5.1,0,0,1,1.45,4v9h-2.83v-6.19h-4.11a4,4,0,0,0-2.22.5,1.86,1.86,0,0,0-.72,1.66,1.78,1.78,0,0,0,.65,1.57,3.92,3.92,0,0,0,2.19.46,6.71,6.71,0,0,0,1.79-.21v2.16a9.37,9.37,0,0,1-2.55.31A5.42,5.42,0,0,1,409,551Z"/><path class="cls-2" d="M422.55,539.79H425v1.27h3.82l-.1,2.11h-6.14Zm0,7.07H425v1.3h3.82l-.1,2.08h-6.14Z"/><path class="cls-2" d="M431.36,549.07v-9a4.64,4.64,0,0,1,2-4.14h-4.08v-2.23h7.51v2.13a3.67,3.67,0,0,0-2,1.65,6.34,6.34,0,0,0-.6,3v7.86a1.44,1.44,0,0,0,.22.93,1.3,1.3,0,0,0,.93.24h1.19v2.23h-2.42A2.4,2.4,0,0,1,431.36,549.07Z"/><path class="cls-2" d="M439.27,550.28a9.57,9.57,0,0,1,.26-10.85,7,7,0,0,1,5.35-2,8.28,8.28,0,0,1,3.81.79,5.28,5.28,0,0,1,2.24,2.08,5.74,5.74,0,0,1,.71,2.85v8.58h-2.83v-8.45a3.59,3.59,0,0,0-.92-2.62,4.17,4.17,0,0,0-3.06-.94,4,4,0,0,0-3.33,1.3,8,8,0,0,0-.19,7.59,3.13,3.13,0,0,0,2.64,1.12,5.72,5.72,0,0,0,1.79-.21v2.16a7,7,0,0,1-2.29.31A5.31,5.31,0,0,1,439.27,550.28Z"/><path class="cls-2" d="M445.66,533.21h-2.05v-2h4v2.36h5.62l-.1,2h-7.47Z"/><path class="cls-2" d="M455.27,551a4.52,4.52,0,0,1,.09-6.45,6.37,6.37,0,0,1,4.06-1.13h4.29v-.88a3.39,3.39,0,0,0-.34-1.64,1.91,1.91,0,0,0-1.12-.86,7.2,7.2,0,0,0-2.16-.26,14.89,14.89,0,0,0-4.57.68v-2.19a18.54,18.54,0,0,1,2.4-.56,17.2,17.2,0,0,1,2.64-.22,6.7,6.7,0,0,1,4.53,1.29,5.1,5.1,0,0,1,1.45,4v9h-2.83v-6.19H459.6a3.92,3.92,0,0,0-2.22.5,1.86,1.86,0,0,0-.72,1.66,1.78,1.78,0,0,0,.65,1.57,3.9,3.9,0,0,0,2.19.46,6.71,6.71,0,0,0,1.79-.21v2.16a9.42,9.42,0,0,1-2.55.31A5.4,5.4,0,0,1,455.27,551Z"/><path class="cls-2" d="M472.21,551.69l-3.95-9.62H471l3.2,7.8a3.54,3.54,0,0,0,3.24-1.27,7.25,7.25,0,0,0,1-4.29,9,9,0,0,0-.32-2.68,2.23,2.23,0,0,0-1-1.36,4.25,4.25,0,0,0-2.05-.41h-1v-2.13h1.35a5.48,5.48,0,0,1,4.38,1.6,7.41,7.41,0,0,1,1.4,4.95q0,4-1.73,5.85a6,6,0,0,1-4.67,1.9A7.78,7.78,0,0,1,472.21,551.69Z"/><path class="cls-2" d="M488.34,551.58a7.34,7.34,0,0,1-2.19-1.34l-.16,1.53h-2.57v-14h2.83v10.35A5.86,5.86,0,0,0,488,549.3a5.08,5.08,0,0,0,2.13.47,2.55,2.55,0,0,0,2.92-3v-9.08h2.8v9.21a5.25,5.25,0,0,1-1.26,3.75,4.6,4.6,0,0,1-3.52,1.34A7.64,7.64,0,0,1,488.34,551.58Z"/><path class="cls-2" d="M485.11,533.62h5v-2.15h2.05v2.15h1.56v-2.15h2.06v4.13H485Z"/><path class="cls-2" d="M500.8,551.75a12.8,12.8,0,0,1-2.54-.76v-7.23h5.57l.13,2.16h-3v3.41a8.39,8.39,0,0,0,2.86.44,5.34,5.34,0,0,0,2.47-.48,2.84,2.84,0,0,0,1.33-1.56,8.57,8.57,0,0,0,.41-2.93,7.9,7.9,0,0,0-.46-3,2.93,2.93,0,0,0-1.52-1.54,7.55,7.55,0,0,0-3-.47,15.14,15.14,0,0,0-4.65.68v-2.19a15.08,15.08,0,0,1,2.51-.57,19.32,19.32,0,0,1,2.85-.21c2.4,0,4.17.61,5.29,1.83a8,8,0,0,1,1.67,5.5,7.75,7.75,0,0,1-1.67,5.42q-1.68,1.81-5.27,1.81A16,16,0,0,1,500.8,551.75Z"/><path class="cls-2" d="M514.68,550.59a5.33,5.33,0,0,1-1.68-4.28v-8.58h2.84v8.69a3.3,3.3,0,0,0,.89,2.53,4.86,4.86,0,0,0,5.4,0,3.23,3.23,0,0,0,.91-2.53V533.57h2.81v12.74a5.36,5.36,0,0,1-1.67,4.28,8.55,8.55,0,0,1-9.5,0Z"/><path class="cls-2" d="M536.6,556.52a2.89,2.89,0,0,1-1.21-.87,2.46,2.46,0,0,1-2.37,1.17H530.5l.16-2.27h1.84a2.46,2.46,0,0,0,1.19-.24,1.93,1.93,0,0,0,.71-.87h1.85a2.21,2.21,0,0,0,.61.91,1.6,1.6,0,0,0,1,.31,1.38,1.38,0,0,0,1.09-.39,1.83,1.83,0,0,0,.34-1.2V543a3.21,3.21,0,0,0-.81-2.49,4,4,0,0,0-2.73-.73,7.93,7.93,0,0,0-2.43.36,4.58,4.58,0,0,0-1.76,1v.46l3,.76v1.87a2.12,2.12,0,0,0-1.29.82,3.4,3.4,0,0,0-.33,1.73v1.87q0,3.17-3.06,3.17h-1.75v-2.23h1a1,1,0,0,0,.76-.25,1.28,1.28,0,0,0,.22-.85V546.7a4.64,4.64,0,0,1,.39-2,2.46,2.46,0,0,1,1.46-1.18l-2.86-.7v-2.92a9.82,9.82,0,0,1,2.87-1.7,10.29,10.29,0,0,1,3.84-.69,7.06,7.06,0,0,1,4.68,1.35,5.27,5.27,0,0,1,1.58,4.24v10.17a3.45,3.45,0,0,1-1,2.66,3.92,3.92,0,0,1-2.81,1A4.59,4.59,0,0,1,536.6,556.52Z"/><path class="cls-2" d="M531.39,533.62H542.1v2H531.26Z"/><path class="cls-2" d="M546.56,550.59a5.33,5.33,0,0,1-1.68-4.28v-8.58h2.83v8.69a3.26,3.26,0,0,0,.9,2.53,3.87,3.87,0,0,0,2.69.82A3.92,3.92,0,0,0,554,549a3.27,3.27,0,0,0,.91-2.53v-8.69h2.8v8.58a5.35,5.35,0,0,1-1.66,4.28,8.55,8.55,0,0,1-9.5,0Z"/><path class="cls-2" d="M551.54,531.8h2.34v1.82h6.73l-.13,2h-8.94Z"/><path class="cls-2" d="M561.52,550.28A7.82,7.82,0,0,1,560,545a10.49,10.49,0,0,1,1.21-5.55,3.81,3.81,0,0,1,3.42-1.94,3.48,3.48,0,0,1,1.65.34,3.75,3.75,0,0,1,1.16,1,4,4,0,0,1,1.43-1,4.53,4.53,0,0,1,1.79-.38,3.15,3.15,0,0,1,2.5,1,4.13,4.13,0,0,1,.85,2.78v10.53h-2.83V541.66a2.75,2.75,0,0,0-.29-1.47,1.2,1.2,0,0,0-1.09-.43,1.64,1.64,0,0,0-1,.3,1.75,1.75,0,0,0-.64.9h-1.56a2.86,2.86,0,0,0-.68-.93,1.43,1.43,0,0,0-.93-.27,1.8,1.8,0,0,0-1.78,1.33,11.27,11.27,0,0,0-.51,3.87,6.06,6.06,0,0,0,.87,3.69,3.13,3.13,0,0,0,2.64,1.12,5.68,5.68,0,0,0,1.79-.21v2.16a6.93,6.93,0,0,1-2.28.31A5.33,5.33,0,0,1,561.52,550.28Z"/><path class="cls-2" d="M563.24,533.62H574v2H563.11Z"/><path class="cls-2" d="M577.77,550.28a7.82,7.82,0,0,1-1.56-5.32,10.49,10.49,0,0,1,1.21-5.55,3.81,3.81,0,0,1,3.42-1.94,3.48,3.48,0,0,1,1.65.34,3.75,3.75,0,0,1,1.16,1,4,4,0,0,1,1.43-1,4.53,4.53,0,0,1,1.79-.38,3.15,3.15,0,0,1,2.5,1,4.13,4.13,0,0,1,.85,2.78v10.53h-2.83V541.66a2.75,2.75,0,0,0-.29-1.47,1.2,1.2,0,0,0-1.09-.43,1.64,1.64,0,0,0-1,.3,1.75,1.75,0,0,0-.64.9h-1.56a2.86,2.86,0,0,0-.68-.93,1.43,1.43,0,0,0-.93-.27,1.8,1.8,0,0,0-1.78,1.33,11.27,11.27,0,0,0-.51,3.87,6.06,6.06,0,0,0,.87,3.69,3.13,3.13,0,0,0,2.64,1.12,5.68,5.68,0,0,0,1.79-.21v2.16A6.93,6.93,0,0,1,582,552,5.33,5.33,0,0,1,577.77,550.28Z"/><path class="cls-2" d="M598.28,542.93a5.57,5.57,0,0,0-.23-1.81,1.81,1.81,0,0,0-.9-1,4.22,4.22,0,0,0-1.91-.35,9.88,9.88,0,0,0-1.8.18,9.15,9.15,0,0,0-1.76.5v-2.19a10.8,10.8,0,0,1,1.92-.56,12,12,0,0,1,2.19-.22,5.72,5.72,0,0,1,4.07,1.22,5.22,5.22,0,0,1,1.26,3.88v9.2h-2.84Z"/><path class="cls-2" d="M608.8,551.58a7.52,7.52,0,0,1-2.2-1.34l-.15,1.53h-2.58v-14h2.84v10.35a5.62,5.62,0,0,0,1.74,1.22,5.08,5.08,0,0,0,2.13.47,2.54,2.54,0,0,0,2.91-3v-9.08h2.81v9.21a5.25,5.25,0,0,1-1.26,3.75,4.6,4.6,0,0,1-3.52,1.34A7.64,7.64,0,0,1,608.8,551.58Z"/><path class="cls-2" d="M620.34,550.67a4.92,4.92,0,0,1-1.54-3.89V545.4a3.43,3.43,0,0,1,.36-1.55,12.07,12.07,0,0,1,1.07-1.65c.31-.41.53-.74.67-1a1.37,1.37,0,0,0,.21-.69.64.64,0,0,0-.18-.53,1.05,1.05,0,0,0-.65-.15h-1.79l.23-2.13H622c1.31,0,2,.63,2,1.9a3.27,3.27,0,0,1-.3,1.43,16.12,16.12,0,0,1-.89,1.56,9.09,9.09,0,0,0-.87,1.46,3,3,0,0,0-.3,1.35V547a2.5,2.5,0,0,0,.83,2.08,3.7,3.7,0,0,0,2.39.68q3.2,0,3.2-2.83v-9.21h2.83v9a4.87,4.87,0,0,1-1.6,3.89,6.5,6.5,0,0,1-4.43,1.39A6.6,6.6,0,0,1,620.34,550.67Z"/><path class="cls-2" d="M624.67,531.8H627v1.82h6.74l-.13,2h-9Z"/><path class="cls-2" d="M626.88,528.06h-1.61v-1.82h3.46v2h4l-.1,1.82h-5.75Z"/><path class="cls-2" d="M634.88,550.69a5.25,5.25,0,0,1-1.26-3.75v-9.21h2.83v9.08a3.13,3.13,0,0,0,.69,2.26,3,3,0,0,0,2.2.7,5.29,5.29,0,0,0,2.16-.47,5.39,5.39,0,0,0,1.74-1.22V537.73h2.81v14h-2.58l-.13-1.53A7.32,7.32,0,0,1,638.4,552,4.6,4.6,0,0,1,634.88,550.69Z"/><path class="cls-2" d="M122.15,568.93h2.57l.16,1.54a7.41,7.41,0,0,1,5-1.8,4.52,4.52,0,0,1,3.46,1.33,5.21,5.21,0,0,1,1.24,3.72V583h-2.8v-9.12a2.93,2.93,0,0,0-.72-2.2,3.07,3.07,0,0,0-2.2-.69,5.08,5.08,0,0,0-2.13.47,5.74,5.74,0,0,0-1.74,1.22V583h-2.83Z"/><path class="cls-2" d="M123.84,564.82h8.37v-2.15h2.34v4.13H123.71Z"/><path class="cls-2" d="M132.21,557.8h2.34v3.62h-2.34Z"/><path class="cls-2" d="M137.33,568.93h2.83v4.42h4.06a2.87,2.87,0,0,0,2.09-.62,2.75,2.75,0,0,0,.61-2v-1.82h2.81v1.74q0,3-2.1,3.72a2.56,2.56,0,0,1,1.54,1.25,4.75,4.75,0,0,1,.43,2.16V583h-2.81v-4.83a2.88,2.88,0,0,0-.57-2.07,3,3,0,0,0-2.1-.56h-4V583h-2.83Z"/><path class="cls-2" d="M153.75,581.89a5.25,5.25,0,0,1-1.26-3.75v-9.21h2.83V578a3.13,3.13,0,0,0,.69,2.26,3,3,0,0,0,2.2.7,5.29,5.29,0,0,0,2.16-.47,5.39,5.39,0,0,0,1.74-1.22V568.93h2.81v14h-2.58l-.13-1.53a7.32,7.32,0,0,1-4.94,1.79A4.57,4.57,0,0,1,153.75,581.89Z"/><path class="cls-2" d="M154.18,564.82h6.45a2.49,2.49,0,0,1-.06-.57,1.87,1.87,0,0,1,.63-1.4,2.33,2.33,0,0,1,1.69-.6,2.3,2.3,0,0,1,1.77.65,2.24,2.24,0,0,1,.59,1.56,2.28,2.28,0,0,1-.65,1.68,2.43,2.43,0,0,1-1.82.66h-8.73Zm9.48.37a1,1,0,0,0,.27-.7,1,1,0,0,0-.29-.74,1,1,0,0,0-.73-.3,1,1,0,0,0-1,1,1,1,0,0,0,1,1A1,1,0,0,0,163.66,565.19Z"/><path class="cls-2" d="M162.55,557.8h2.34v3.62h-2.34Z"/><path class="cls-2" d="M170.58,582.89l-4-9.62h2.76l3.2,7.8a3.53,3.53,0,0,0,3.23-1.27,7.17,7.17,0,0,0,1-4.29,9,9,0,0,0-.31-2.68,2.3,2.3,0,0,0-1-1.36,4.29,4.29,0,0,0-2.06-.41h-1v-2.13h1.35a5.5,5.5,0,0,1,4.38,1.6,7.41,7.41,0,0,1,1.39,5q0,4-1.73,5.85a6,6,0,0,1-4.67,1.9A7.82,7.82,0,0,1,170.58,582.89Z"/><path class="cls-2" d="M181.45,580.27v-6A4.44,4.44,0,0,1,182,572a10,10,0,0,1,1.46-1.87,8.27,8.27,0,0,0,.82-1,1.26,1.26,0,0,0,.25-.76,1.14,1.14,0,0,0-.4-1,2.46,2.46,0,0,0-1.32-.27,5.88,5.88,0,0,0-2.83.78v-2.08a6,6,0,0,1,1.78-.71,8.4,8.4,0,0,1,2-.25,4.16,4.16,0,0,1,2.74.78,2.75,2.75,0,0,1,.92,2.21,3,3,0,0,1-.37,1.53,8.39,8.39,0,0,1-1.14,1.46,12.77,12.77,0,0,0-1.24,1.7,3.54,3.54,0,0,0-.42,1.81v5.23a1.38,1.38,0,0,0,.22.93,1.29,1.29,0,0,0,.92.24h1.2V583h-2.42A2.4,2.4,0,0,1,181.45,580.27Z"/><path class="cls-2" d="M190.15,581.89a5.25,5.25,0,0,1-1.26-3.75v-9.21h2.83V578a3.13,3.13,0,0,0,.69,2.26,3,3,0,0,0,2.2.7,5.29,5.29,0,0,0,2.16-.47,5.39,5.39,0,0,0,1.74-1.22V568.93h2.81v14h-2.58l-.13-1.53a7.32,7.32,0,0,1-4.94,1.79A4.57,4.57,0,0,1,190.15,581.89Z"/><path class="cls-2" d="M204.07,568.93h2.58l.15,1.54a7.45,7.45,0,0,1,5-1.8,4.49,4.49,0,0,1,3.46,1.33,5.21,5.21,0,0,1,1.25,3.72V583h-2.81v-9.12a3,3,0,0,0-.71-2.2,3.07,3.07,0,0,0-2.2-.69,5,5,0,0,0-2.13.47,5.62,5.62,0,0,0-1.74,1.22V583h-2.84Z"/><path class="cls-2" d="M205.76,564.82h8.37v-2.15h2.34v4.13H205.63Z"/><path class="cls-2" d="M214.13,557.8h2.34v3.62h-2.34Z"/><path class="cls-2" d="M220.3,581.48a9.57,9.57,0,0,1,.26-10.85,7,7,0,0,1,5.35-2,8.28,8.28,0,0,1,3.81.79,5.28,5.28,0,0,1,2.24,2.08,5.85,5.85,0,0,1,.71,2.85V583h-2.83v-8.45a3.59,3.59,0,0,0-.92-2.62,4.17,4.17,0,0,0-3.06-.94,4,4,0,0,0-3.33,1.3,8,8,0,0,0-.19,7.59A3.13,3.13,0,0,0,225,581a5.77,5.77,0,0,0,1.79-.21v2.16a7,7,0,0,1-2.29.31A5.31,5.31,0,0,1,220.3,581.48Z"/><path class="cls-2" d="M221.93,564.82h10.72v2H221.8Z"/><path class="cls-2" d="M236.69,581.89a5.25,5.25,0,0,1-1.26-3.75v-9.21h2.83V578a3.13,3.13,0,0,0,.69,2.26,3,3,0,0,0,2.2.7,5.29,5.29,0,0,0,2.16-.47,5.39,5.39,0,0,0,1.74-1.22V568.93h2.81v14h-2.58l-.13-1.53a7.32,7.32,0,0,1-4.94,1.79A4.57,4.57,0,0,1,236.69,581.89Z"/><path class="cls-2" d="M251.9,581.87a4.92,4.92,0,0,1-1.55-3.89V576.6a3.31,3.31,0,0,1,.37-1.55,11.88,11.88,0,0,1,1.06-1.65c.31-.41.54-.74.68-1a1.37,1.37,0,0,0,.21-.69.61.61,0,0,0-.19-.53,1,1,0,0,0-.65-.15H250l.23-2.13h3.28c1.32,0,2,.63,2,1.9a3.27,3.27,0,0,1-.3,1.43,14.58,14.58,0,0,1-.9,1.56,11.52,11.52,0,0,0-.87,1.46,3,3,0,0,0-.3,1.35v1.58a2.53,2.53,0,0,0,.83,2.08,3.72,3.72,0,0,0,2.39.68c2.14,0,3.2-.94,3.2-2.83v-9.21h2.84v9a4.9,4.9,0,0,1-1.6,3.89,7.92,7.92,0,0,1-8.92,0Z"/><path class="cls-2" d="M267.37,583a12.8,12.8,0,0,1-2.54-.76V575h5.57l.13,2.16h-3v3.41a8.39,8.39,0,0,0,2.86.44,5.31,5.31,0,0,0,2.47-.48,2.84,2.84,0,0,0,1.33-1.56,8.31,8.31,0,0,0,.42-2.93,7.87,7.87,0,0,0-.47-3,2.9,2.9,0,0,0-1.52-1.54,7.5,7.5,0,0,0-2.95-.47,15.25,15.25,0,0,0-4.66.68v-2.19a15.32,15.32,0,0,1,2.51-.57,19.42,19.42,0,0,1,2.85-.21q3.62,0,5.29,1.83a7.92,7.92,0,0,1,1.68,5.5,7.7,7.7,0,0,1-1.68,5.42c-1.12,1.21-2.87,1.81-5.27,1.81A16,16,0,0,1,267.37,583Z"/><path class="cls-2" d="M282.49,582.89l-3.95-9.62h2.75l3.2,7.8a3.55,3.55,0,0,0,3.24-1.27,7.25,7.25,0,0,0,1-4.29,9,9,0,0,0-.31-2.68,2.26,2.26,0,0,0-1-1.36,4.25,4.25,0,0,0-2-.41h-1v-2.13h1.35a5.48,5.48,0,0,1,4.38,1.6,7.41,7.41,0,0,1,1.39,5c0,2.64-.57,4.59-1.73,5.85a6,6,0,0,1-4.66,1.9A7.78,7.78,0,0,1,282.49,582.89Z"/><path class="cls-2" d="M294.73,581.48a7.82,7.82,0,0,1-1.56-5.32,10.58,10.58,0,0,1,1.21-5.55,3.83,3.83,0,0,1,3.42-1.94,3.43,3.43,0,0,1,1.65.34,3.64,3.64,0,0,1,1.16,1,4.1,4.1,0,0,1,1.43-1,4.57,4.57,0,0,1,1.79-.38,3.12,3.12,0,0,1,2.5,1,4.13,4.13,0,0,1,.86,2.78V583h-2.84V572.86a2.79,2.79,0,0,0-.28-1.47A1.22,1.22,0,0,0,303,571a1.67,1.67,0,0,0-1,.3,1.75,1.75,0,0,0-.64.9H299.8a3,3,0,0,0-.67-.93,1.48,1.48,0,0,0-.94-.27,1.8,1.8,0,0,0-1.78,1.33,11.27,11.27,0,0,0-.51,3.87,6,6,0,0,0,.88,3.69,3.12,3.12,0,0,0,2.63,1.12,5.79,5.79,0,0,0,1.8-.21v2.16a7,7,0,0,1-2.29.31A5.33,5.33,0,0,1,294.73,581.48Z"/><path class="cls-2" d="M311.21,581.89a5.21,5.21,0,0,1-1.27-3.75v-9.21h2.84V578a3.13,3.13,0,0,0,.69,2.26,3,3,0,0,0,2.19.7,5.49,5.49,0,0,0,3.9-1.69V568.93h2.81v14H319.8l-.13-1.53a7.36,7.36,0,0,1-4.94,1.79A4.57,4.57,0,0,1,311.21,581.89Z"/><path class="cls-2" d="M329.52,583.14a4.28,4.28,0,0,1-1-.25l-2.08-5.53h-1.79l.13-2.14h3.46l2.15,5.78a3.6,3.6,0,0,0,3-1.17,6,6,0,0,0,1.12-4,7.17,7.17,0,0,0-.48-2.9,2.9,2.9,0,0,0-1.58-1.5,7.89,7.89,0,0,0-3-.46,14.17,14.17,0,0,0-4.45.68v-2.19a17,17,0,0,1,5.2-.78q3.64,0,5.34,1.81a7.48,7.48,0,0,1,1.71,5.34,8.52,8.52,0,0,1-.88,4,6.1,6.1,0,0,1-2.33,2.53,6.24,6.24,0,0,1-3.24.86A8.83,8.83,0,0,1,329.52,583.14Z"/><path class="cls-2" d="M340.64,581.89a5.25,5.25,0,0,1-1.26-3.75v-9.21h2.83V578a3.13,3.13,0,0,0,.69,2.26,3,3,0,0,0,2.2.7,5.21,5.21,0,0,0,2.15-.47,5.33,5.33,0,0,0,1.75-1.22V568.93h2.8v14h-2.57l-.13-1.53a7.34,7.34,0,0,1-4.94,1.79A4.57,4.57,0,0,1,340.64,581.89Z"/><path class="cls-2" d="M355,580.27v-9a4.64,4.64,0,0,1,2-4.14h-4.08v-2.23h7.51v2.13a3.67,3.67,0,0,0-2,1.65,6.34,6.34,0,0,0-.6,3v7.86a1.44,1.44,0,0,0,.22.93,1.3,1.3,0,0,0,.93.24h1.19V583h-2.41A2.4,2.4,0,0,1,355,580.27Z"/><path class="cls-2" d="M362.88,581.48a9.57,9.57,0,0,1,.26-10.85,7,7,0,0,1,5.36-2,8.33,8.33,0,0,1,3.81.79,5.31,5.31,0,0,1,2.23,2.08,5.75,5.75,0,0,1,.72,2.85V583h-2.84v-8.45a3.59,3.59,0,0,0-.92-2.62,4.15,4.15,0,0,0-3.06-.94,4,4,0,0,0-3.32,1.3,7.93,7.93,0,0,0-.2,7.59,3.13,3.13,0,0,0,2.64,1.12,5.68,5.68,0,0,0,1.79-.21v2.16a6.93,6.93,0,0,1-2.28.31A5.33,5.33,0,0,1,362.88,581.48Z"/><path class="cls-2" d="M369.28,564.41h-2.06v-1.95h4v2.36h5.61l-.1,2h-7.46Z"/><path class="cls-2" d="M378,571.56a2.77,2.77,0,0,1,.65-1.9,2.29,2.29,0,0,1,1.82-.73h2.68l.13,2.19h-1.35a1.18,1.18,0,0,0-.92.3,1.36,1.36,0,0,0-.28,1v6.79l3.43-6h1.15l3.43,6V568.93h2.7v14h-2.78L384.75,576l-4,6.94H378Z"/><path class="cls-2" d="M395.08,582.18a4.52,4.52,0,0,1,.09-6.45,6.37,6.37,0,0,1,4.06-1.13h4.29v-.88a3.28,3.28,0,0,0-.34-1.64,1.88,1.88,0,0,0-1.12-.86,7.2,7.2,0,0,0-2.16-.26,14.89,14.89,0,0,0-4.57.68v-2.19a18.54,18.54,0,0,1,2.4-.56,17.1,17.1,0,0,1,2.64-.22A6.71,6.71,0,0,1,404.9,570a5.1,5.1,0,0,1,1.45,4v9h-2.83v-6.19h-4.11a3.92,3.92,0,0,0-2.22.5,1.86,1.86,0,0,0-.72,1.66,1.78,1.78,0,0,0,.65,1.57,3.88,3.88,0,0,0,2.19.46,6.71,6.71,0,0,0,1.79-.21v2.16a9.48,9.48,0,0,1-2.55.31A5.4,5.4,0,0,1,395.08,582.18Z"/><path class="cls-2" d="M409.11,580.27V568.93h2.83v10.64a1.25,1.25,0,0,0,.27.88,1.19,1.19,0,0,0,.88.29h1V583h-2.29A2.4,2.4,0,0,1,409.11,580.27Zm6.32,0V568.93h2.8v10.64a1.25,1.25,0,0,0,.28.88,1.15,1.15,0,0,0,.87.29h1.06V583h-2.28A2.4,2.4,0,0,1,415.43,580.27Z"/><path class="cls-2" d="M423.53,582.18a4.49,4.49,0,0,1,.09-6.45,6.32,6.32,0,0,1,4.05-1.13H432v-.88a3.28,3.28,0,0,0-.34-1.64,1.86,1.86,0,0,0-1.11-.86,7.2,7.2,0,0,0-2.16-.26,15,15,0,0,0-4.58.68v-2.19a18.33,18.33,0,0,1,2.41-.56,17,17,0,0,1,2.64-.22,6.68,6.68,0,0,1,4.52,1.29,5.11,5.11,0,0,1,1.46,4v9H432v-6.19h-4.11a4,4,0,0,0-2.22.5,1.86,1.86,0,0,0-.71,1.66,1.75,1.75,0,0,0,.65,1.57,3.86,3.86,0,0,0,2.18.46,6.71,6.71,0,0,0,1.79-.21v2.16a9.35,9.35,0,0,1-2.54.31A5.38,5.38,0,0,1,423.53,582.18Z"/><path class="cls-2" d="M428.82,564.41h-2.06v-1.95h4v2.36h5.61l-.1,2h-7.46Z"/><path class="cls-2" d="M436.82,582.45v-2.23a9,9,0,0,0,3.54.75,6.74,6.74,0,0,0,2.82-.49,2.92,2.92,0,0,0,1.48-1.59,7.67,7.67,0,0,0,.46-2.94A5.45,5.45,0,0,0,444,572.1a5,5,0,0,0-3.68-1.14,8.73,8.73,0,0,0-3.51.75v-2.26a10.54,10.54,0,0,1,4.14-.78,6.73,6.73,0,0,1,5.17,1.85,7.68,7.68,0,0,1,1.72,5.43,7.89,7.89,0,0,1-1.67,5.44q-1.67,1.85-5.14,1.84A10.52,10.52,0,0,1,436.82,582.45Z"/><path class="cls-2" d="M459.08,580.27V568.93h2.81v10.64a1.25,1.25,0,0,0,.27.88,1.15,1.15,0,0,0,.87.29h1.2V583h-2.42A2.4,2.4,0,0,1,459.08,580.27Z"/><path class="cls-2" d="M466.7,577.9c0-1.73.68-2.81,2.05-3.22l-2.81-.7v-2.92a9.63,9.63,0,0,1,2.9-1.71,10.5,10.5,0,0,1,3.84-.68,7.42,7.42,0,0,1,4.81,1.33,5.21,5.21,0,0,1,1.61,4.26V583h-2.83v-8.79a3.17,3.17,0,0,0-.84-2.51,4.44,4.44,0,0,0-2.86-.71,7.83,7.83,0,0,0-2.4.36,4.83,4.83,0,0,0-1.78,1v.46l3,.76v1.87a2.46,2.46,0,0,0-1.43.83,2.91,2.91,0,0,0-.41,1.72v5H466.7Z"/><path class="cls-2" d="M483.52,581.79a5.35,5.35,0,0,1-1.66-4.28v-8.58h2.8v8.69a3.27,3.27,0,0,0,.91,2.53,3.92,3.92,0,0,0,2.71.82,3.87,3.87,0,0,0,2.69-.82,3.26,3.26,0,0,0,.9-2.53v-1.85h-3.36v-2.16h3.36v-4.68h2.83v4.68h1.53l-.2,2.16H494.7v1.74a5.33,5.33,0,0,1-1.68,4.28,8.55,8.55,0,0,1-9.5,0Z"/><path class="cls-2" d="M498.86,581.48a7.82,7.82,0,0,1-1.56-5.32,10.49,10.49,0,0,1,1.21-5.55,3.81,3.81,0,0,1,3.42-1.94,3.48,3.48,0,0,1,1.65.34,3.75,3.75,0,0,1,1.16,1,4.1,4.1,0,0,1,1.43-1,4.5,4.5,0,0,1,1.79-.38,3.15,3.15,0,0,1,2.5,1,4.13,4.13,0,0,1,.85,2.78V583h-2.83V572.86a2.77,2.77,0,0,0-.29-1.47,1.2,1.2,0,0,0-1.09-.43,1.64,1.64,0,0,0-1,.3,1.75,1.75,0,0,0-.64.9h-1.56a3,3,0,0,0-.68-.93,1.43,1.43,0,0,0-.93-.27,1.8,1.8,0,0,0-1.78,1.33,11.27,11.27,0,0,0-.51,3.87,6.06,6.06,0,0,0,.87,3.69,3.13,3.13,0,0,0,2.64,1.12,5.68,5.68,0,0,0,1.79-.21v2.16a6.93,6.93,0,0,1-2.28.31A5.31,5.31,0,0,1,498.86,581.48Z"/><path class="cls-2" d="M516,583.05a8.69,8.69,0,0,1-2.09-.52v-2.37a10.74,10.74,0,0,0,2.1.6,12.11,12.11,0,0,0,2.16.21,7.57,7.57,0,0,0,2.71-.34,1.31,1.31,0,0,0,.8-1.35,1.5,1.5,0,0,0-.31-1,2.16,2.16,0,0,0-.86-.61,17.83,17.83,0,0,0-1.69-.6l-1-.34a10.22,10.22,0,0,1-3.19-1.6,3,3,0,0,1-1.05-2.45,3.48,3.48,0,0,1,1.43-3,7.07,7.07,0,0,1,4.21-1.05,15.3,15.3,0,0,1,2.32.18,13.25,13.25,0,0,1,2,.45v2.34a10.05,10.05,0,0,0-1.88-.5,12,12,0,0,0-2-.18,6.84,6.84,0,0,0-2.48.35,1.39,1.39,0,0,0-.5,2.2,2.94,2.94,0,0,0,1,.61c.4.16,1,.38,1.85.66l.75.24a9.14,9.14,0,0,1,3.22,1.65,3.8,3.8,0,0,1-.52,5.59,7.72,7.72,0,0,1-4.21,1A19.49,19.49,0,0,1,516,583.05Z"/><path class="cls-2" d="M526.86,577.9c0-1.73.69-2.81,2.06-3.22l-2.81-.7v-2.92a9.51,9.51,0,0,1,2.9-1.71,10.44,10.44,0,0,1,3.83-.68,7.4,7.4,0,0,1,4.81,1.33,5.18,5.18,0,0,1,1.61,4.26V583h-2.83v-8.79a3.21,3.21,0,0,0-.83-2.51,4.48,4.48,0,0,0-2.86-.71,7.94,7.94,0,0,0-2.41.36,4.92,4.92,0,0,0-1.78,1v.46l3,.76v1.87a2.4,2.4,0,0,0-1.43.83,2.91,2.91,0,0,0-.42,1.72v5h-2.81Z"/><path class="cls-2" d="M543.93,583.05a8.82,8.82,0,0,1-2.09-.52v-2.37a10.74,10.74,0,0,0,2.1.6,12.11,12.11,0,0,0,2.16.21,7.57,7.57,0,0,0,2.71-.34,1.31,1.31,0,0,0,.8-1.35,1.5,1.5,0,0,0-.31-1,2.16,2.16,0,0,0-.86-.61,17.83,17.83,0,0,0-1.69-.6l-1-.34a10.22,10.22,0,0,1-3.19-1.6,3,3,0,0,1-1-2.45,3.48,3.48,0,0,1,1.43-3,7.07,7.07,0,0,1,4.21-1.05,15.3,15.3,0,0,1,2.32.18,13.25,13.25,0,0,1,2,.45v2.34a10.05,10.05,0,0,0-1.88-.5,12,12,0,0,0-2-.18,6.84,6.84,0,0,0-2.48.35,1.39,1.39,0,0,0-.5,2.2,2.83,2.83,0,0,0,.95.61c.4.16,1,.38,1.85.66l.75.24a9.14,9.14,0,0,1,3.22,1.65,3.8,3.8,0,0,1-.52,5.59,7.72,7.72,0,0,1-4.21,1A19.49,19.49,0,0,1,543.93,583.05Z"/><path class="cls-2" d="M554.81,577.9c0-1.73.69-2.81,2.06-3.22l-2.81-.7v-2.92a9.51,9.51,0,0,1,2.9-1.71,10.44,10.44,0,0,1,3.83-.68A7.4,7.4,0,0,1,565.6,570a5.18,5.18,0,0,1,1.61,4.26V583h-2.83v-8.79a3.21,3.21,0,0,0-.83-2.51,4.48,4.48,0,0,0-2.86-.71,7.94,7.94,0,0,0-2.41.36,4.92,4.92,0,0,0-1.78,1v.46l3,.76v1.87a2.4,2.4,0,0,0-1.43.83,2.91,2.91,0,0,0-.42,1.72v5h-2.81Z"/><path class="cls-2" d="M557.17,566.05a2.79,2.79,0,0,1-.88-2.21,3,3,0,0,1,.91-2.3,3.59,3.59,0,0,1,2.55-.85h6.4l-.13,1.66h-6a2,2,0,0,0-1.31.36,1.36,1.36,0,0,0-.43,1.13c0,.91.49,1.37,1.48,1.37s1.38-.36,1.38-1.09v-.54h1.74v.54a.94.94,0,0,0,.29.78,1.4,1.4,0,0,0,.91.24h1.64v1.63h-1.82a3.34,3.34,0,0,1-1.19-.19A1.27,1.27,0,0,1,562,566a1.66,1.66,0,0,1-1,.63,4.79,4.79,0,0,1-1.46.23A3.47,3.47,0,0,1,557.17,566.05Z"/><path class="cls-2" d="M570.84,582.19a4.54,4.54,0,0,1,.08-6.46A6.35,6.35,0,0,1,575,574.6h4.29v-.88a2.58,2.58,0,0,0-.79-2.15,4.85,4.85,0,0,0-2.85-.61,15,15,0,0,0-4.58.68v-2.19a18.5,18.5,0,0,1,2.42-.56,17.33,17.33,0,0,1,2.65-.22,11.36,11.36,0,0,1,2.42.26h4.71l-.16,2.21h-1.64a3.64,3.64,0,0,1,.48,1.24,7.57,7.57,0,0,1,.15,1.6v9h-2.81v-6.19h-4.14a3.87,3.87,0,0,0-2.19.5,1.86,1.86,0,0,0-.72,1.66,1.78,1.78,0,0,0,.65,1.57,3.9,3.9,0,0,0,2.19.46,6.18,6.18,0,0,0,1.76-.21v2.16a9,9,0,0,1-2.52.31A5.45,5.45,0,0,1,570.84,582.19Z"/><path class="cls-2" d="M590.56,574.13a5.86,5.86,0,0,0-.23-1.81,1.81,1.81,0,0,0-.9-1,4.22,4.22,0,0,0-1.91-.35,10,10,0,0,0-1.81.18,9,9,0,0,0-1.75.5v-2.19a10.8,10.8,0,0,1,1.92-.56,12,12,0,0,1,2.19-.22,5.7,5.7,0,0,1,4.06,1.22,5.18,5.18,0,0,1,1.27,3.88V583h-2.84Z"/><path class="cls-2" d="M601.08,582.78a7.52,7.52,0,0,1-2.2-1.34l-.15,1.53h-2.58v-14H599v10.35a5.62,5.62,0,0,0,1.74,1.22,5,5,0,0,0,2.13.47,3,3,0,0,0,2.2-.7,3.09,3.09,0,0,0,.71-2.26v-9.08h2.81v9.21a5.25,5.25,0,0,1-1.26,3.75,4.58,4.58,0,0,1-3.52,1.34A7.6,7.6,0,0,1,601.08,582.78Z"/><path class="cls-2" d="M616.64,574.13a5.86,5.86,0,0,0-.23-1.81,1.81,1.81,0,0,0-.9-1,4.22,4.22,0,0,0-1.91-.35,10,10,0,0,0-1.81.18,9,9,0,0,0-1.75.5v-2.19a10.32,10.32,0,0,1,1.92-.56,11.85,11.85,0,0,1,2.18-.22,5.71,5.71,0,0,1,4.07,1.22,5.22,5.22,0,0,1,1.26,3.88V583h-2.83Z"/><path class="cls-2" d="M624.14,583.05a8.69,8.69,0,0,1-2.09-.52v-2.37a10.74,10.74,0,0,0,2.1.6,12.11,12.11,0,0,0,2.16.21,7.57,7.57,0,0,0,2.71-.34,1.31,1.31,0,0,0,.8-1.35,1.5,1.5,0,0,0-.31-1,2.16,2.16,0,0,0-.86-.61,17.83,17.83,0,0,0-1.69-.6l-1-.34a10.22,10.22,0,0,1-3.19-1.6,3,3,0,0,1-1-2.45,3.48,3.48,0,0,1,1.43-3,7.07,7.07,0,0,1,4.21-1.05,15.3,15.3,0,0,1,2.32.18,13.25,13.25,0,0,1,2,.45v2.34a10.05,10.05,0,0,0-1.88-.5,12,12,0,0,0-2-.18,6.84,6.84,0,0,0-2.48.35,1.39,1.39,0,0,0-.5,2.2,2.94,2.94,0,0,0,1,.61c.4.16,1,.38,1.85.66l.75.24a9.23,9.23,0,0,1,3.22,1.65,3.8,3.8,0,0,1-.52,5.59,7.72,7.72,0,0,1-4.21,1A19.49,19.49,0,0,1,624.14,583.05Z"/><path class="cls-2" d="M635.7,582.24a2.65,2.65,0,0,1-.68-1.89V577.9c0-1.73.69-2.81,2.06-3.22l-2.81-.7v-2.92a9.51,9.51,0,0,1,2.9-1.71,10.44,10.44,0,0,1,3.83-.68,7.4,7.4,0,0,1,4.81,1.33,5.18,5.18,0,0,1,1.61,4.26V583h-2.83v-8.79a3.21,3.21,0,0,0-.83-2.51,4.48,4.48,0,0,0-2.86-.71,7.94,7.94,0,0,0-2.41.36,4.83,4.83,0,0,0-1.78,1v.46l3,.76v1.87a2.4,2.4,0,0,0-1.43.83,2.91,2.91,0,0,0-.42,1.72v1.69a1.21,1.21,0,0,0,.26.86,1.15,1.15,0,0,0,.83.26h1.43V583h-2.81A2.37,2.37,0,0,1,635.7,582.24Z"/><path class="cls-2" d="M122.78,600.13h2.78l2.09,10,2.54-8v-2h2l2.83,10,2-10h2.76l-3.22,14H134l-2.6-8.94-2.81,8.94H126Z"/><path class="cls-2" d="M131.73,594.2h2.34V596h6.73l-.13,2h-8.94Z"/><path class="cls-2" d="M142.88,612.68a7.82,7.82,0,0,1-1.56-5.32,10.85,10.85,0,0,1,1.17-5.54,3.64,3.64,0,0,1,3.28-2,3.41,3.41,0,0,1,1.64.34,3.81,3.81,0,0,1,1.14,1,3.84,3.84,0,0,1,1.39-1,4.28,4.28,0,0,1,1.76-.37,3,3,0,0,1,2.43,1,4.37,4.37,0,0,1,.79,2.79v6.84a5.89,5.89,0,0,0,1.69,1.22,4.67,4.67,0,0,0,2,.47,2.81,2.81,0,0,0,2.1-.69,3.22,3.22,0,0,0,.66-2.27v-9.08h2.83v9.21a5.39,5.39,0,0,1-1.21,3.77,4.42,4.42,0,0,1-3.44,1.32A7.18,7.18,0,0,1,157,614a7.55,7.55,0,0,1-2.15-1.34l-.13,1.53h-2.5V604.06a3.08,3.08,0,0,0-.26-1.47,1.11,1.11,0,0,0-1-.43,1.59,1.59,0,0,0-1,.3,1.79,1.79,0,0,0-.63.9h-1.56a3,3,0,0,0-.66-.93,1.4,1.4,0,0,0-.92-.27,1.67,1.67,0,0,0-1.65,1.33,12.31,12.31,0,0,0-.46,3.87,6.06,6.06,0,0,0,.87,3.69,3.13,3.13,0,0,0,2.64,1.12,5.79,5.79,0,0,0,1.8-.21v2.16a7,7,0,0,1-2.29.31A5.33,5.33,0,0,1,142.88,612.68Z"/><path class="cls-2" d="M168.27,613.09a5.25,5.25,0,0,1-1.26-3.75v-9.21h2.83v9.08a3.13,3.13,0,0,0,.69,2.26,3,3,0,0,0,2.2.7,5.29,5.29,0,0,0,2.16-.47,5.39,5.39,0,0,0,1.74-1.22V600.13h2.81v14h-2.58l-.13-1.53a7.32,7.32,0,0,1-4.94,1.79A4.58,4.58,0,0,1,168.27,613.09Z"/><path class="cls-2" d="M187.5,605.33a5.54,5.54,0,0,0-.24-1.81,1.79,1.79,0,0,0-.89-1,4.25,4.25,0,0,0-1.91-.35,10,10,0,0,0-1.81.18,9.15,9.15,0,0,0-1.76.5v-2.19a10.68,10.68,0,0,1,1.93-.56,11.77,11.77,0,0,1,2.18-.22,5.72,5.72,0,0,1,4.07,1.22,5.22,5.22,0,0,1,1.26,3.88v9.2H187.5Z"/><path class="cls-2" d="M194.13,612.68a7.82,7.82,0,0,1-1.56-5.32,10.49,10.49,0,0,1,1.21-5.55,3.81,3.81,0,0,1,3.42-1.94,3.48,3.48,0,0,1,1.65.34,3.62,3.62,0,0,1,1.15,1,4.19,4.19,0,0,1,1.43-1,4.58,4.58,0,0,1,1.8-.38,3.11,3.11,0,0,1,2.49,1,4.13,4.13,0,0,1,.86,2.78v10.53h-2.83V604.06a2.8,2.8,0,0,0-.29-1.47,1.2,1.2,0,0,0-1.09-.43,1.67,1.67,0,0,0-1,.3,1.79,1.79,0,0,0-.63.9H199.2a3,3,0,0,0-.68-.93,1.46,1.46,0,0,0-.94-.27,1.81,1.81,0,0,0-1.78,1.33,11.57,11.57,0,0,0-.5,3.87,6.06,6.06,0,0,0,.87,3.69,3.13,3.13,0,0,0,2.64,1.12,5.77,5.77,0,0,0,1.79-.21v2.16a7,7,0,0,1-2.29.31A5.31,5.31,0,0,1,194.13,612.68Z"/><path class="cls-2" d="M210.6,613.09a5.25,5.25,0,0,1-1.26-3.75v-9.21h2.83v9.08a3.13,3.13,0,0,0,.69,2.26,3,3,0,0,0,2.2.7,5.21,5.21,0,0,0,2.15-.47,5.33,5.33,0,0,0,1.75-1.22V600.13h2.8v14h-2.57l-.13-1.53a7.34,7.34,0,0,1-4.94,1.79A4.57,4.57,0,0,1,210.6,613.09Z"/><path class="cls-2" d="M224.57,611.47V600.13h2.81v10.64a1.24,1.24,0,0,0,.27.88,1.19,1.19,0,0,0,.88.29h1.19v2.23H227.3A2.4,2.4,0,0,1,224.57,611.47Z"/><path class="cls-2" d="M234.15,614.15a12.06,12.06,0,0,1-2.53-.76v-7.23h5.56l.13,2.16h-3v3.41a8.39,8.39,0,0,0,2.86.44,5.34,5.34,0,0,0,2.47-.48,2.78,2.78,0,0,0,1.32-1.56,8.31,8.31,0,0,0,.42-2.93,7.69,7.69,0,0,0-.47-3,2.9,2.9,0,0,0-1.52-1.54,7.47,7.47,0,0,0-3-.47,15.14,15.14,0,0,0-4.65.68v-2.19a15.08,15.08,0,0,1,2.51-.57,19.29,19.29,0,0,1,2.84-.21c2.41,0,4.18.61,5.29,1.84a7.88,7.88,0,0,1,1.68,5.49,7.74,7.74,0,0,1-1.68,5.43c-1.11,1.2-2.87,1.8-5.26,1.8A16.05,16.05,0,0,1,234.15,614.15Z"/><path class="cls-2" d="M249.27,614.09l-4-9.62h2.76l3.2,7.8a3.53,3.53,0,0,0,3.23-1.27,7.17,7.17,0,0,0,1-4.29,9,9,0,0,0-.31-2.68,2.3,2.3,0,0,0-1-1.36,4.29,4.29,0,0,0-2.06-.41h-1v-2.13h1.35a5.54,5.54,0,0,1,4.38,1.6,7.41,7.41,0,0,1,1.39,4.95q0,4-1.73,5.85a6,6,0,0,1-4.67,1.9A7.82,7.82,0,0,1,249.27,614.09Z"/><path class="cls-2" d="M260.9,611.47v-9a4.64,4.64,0,0,1,2-4.14h-4.08v-2.23h7.51v2.13a3.67,3.67,0,0,0-2,1.65,6.34,6.34,0,0,0-.6,3v7.86a1.44,1.44,0,0,0,.22.93,1.3,1.3,0,0,0,.93.24H266v2.23h-2.41A2.4,2.4,0,0,1,260.9,611.47Z"/><path class="cls-2" d="M269.44,613a5.33,5.33,0,0,1-1.68-4.28v-8.58h2.83v8.69a3.26,3.26,0,0,0,.9,2.53,4.84,4.84,0,0,0,5.39,0,3.23,3.23,0,0,0,.91-2.53V596h2.81v12.74a5.35,5.35,0,0,1-1.66,4.28,8.55,8.55,0,0,1-9.5,0Z"/><path class="cls-2" d="M284.23,613.39a4.54,4.54,0,0,1,.08-6.46,6.35,6.35,0,0,1,4.07-1.13h4.29v-.88a2.56,2.56,0,0,0-.8-2.15,4.81,4.81,0,0,0-2.84-.61,14.91,14.91,0,0,0-4.58.68v-2.19a18.5,18.5,0,0,1,2.42-.56,17.22,17.22,0,0,1,2.65-.22,11.36,11.36,0,0,1,2.42.26h4.71l-.16,2.21h-1.64a3.64,3.64,0,0,1,.48,1.24,7.62,7.62,0,0,1,.14,1.6v9h-2.8V608h-4.14a3.85,3.85,0,0,0-2.19.5,1.86,1.86,0,0,0-.72,1.66,1.78,1.78,0,0,0,.65,1.57,3.88,3.88,0,0,0,2.19.46,6.23,6.23,0,0,0,1.76-.21v2.16a9,9,0,0,1-2.52.31A5.43,5.43,0,0,1,284.23,613.39Z"/><path class="cls-2" d="M290.07,620.33a1.87,1.87,0,0,1-.83-1.58v-1.33h-1.41l.11-1.77h3.32v2.63a.76.76,0,0,0,.28.64,1.21,1.21,0,0,0,.76.22,1.31,1.31,0,0,0,.8-.22.78.78,0,0,0,.27-.64v-2.63h2.05v2.81a2.25,2.25,0,0,1-.82,1.78,3.35,3.35,0,0,1-2.3.72A3.6,3.6,0,0,1,290.07,620.33Z"/><path class="cls-2" d="M292.59,593.71h2.83V598h-2.83Z"/><path class="cls-2" d="M299.93,613.07a4.92,4.92,0,0,1-1.54-3.89V607.8a3.43,3.43,0,0,1,.36-1.55,12.07,12.07,0,0,1,1.07-1.65c.31-.41.53-.74.67-1a1.34,1.34,0,0,0,.21-.69.64.64,0,0,0-.18-.53,1.05,1.05,0,0,0-.65-.15h-1.79l.23-2.13h3.27c1.32,0,2,.63,2,1.9a3.27,3.27,0,0,1-.3,1.43,16.12,16.12,0,0,1-.89,1.56,10.63,10.63,0,0,0-.88,1.46,3,3,0,0,0-.29,1.35v1.58a2.5,2.5,0,0,0,.83,2.08,3.7,3.7,0,0,0,2.39.68q3.19,0,3.2-2.83v-9.21h2.83v9a4.87,4.87,0,0,1-1.6,3.89,6.5,6.5,0,0,1-4.43,1.39A6.59,6.59,0,0,1,299.93,613.07Z"/><path class="cls-2" d="M304.26,594.2h2.34V596h6.74l-.13,2h-8.95Z"/><path class="cls-2" d="M306.47,590.46h-1.61v-1.82h3.46v2h4l-.1,1.82h-5.75Z"/><path class="cls-2" d="M314.47,613.09a5.25,5.25,0,0,1-1.26-3.75v-9.21H316v9.08a3.13,3.13,0,0,0,.69,2.26,3,3,0,0,0,2.2.7,5.21,5.21,0,0,0,2.15-.47,5.33,5.33,0,0,0,1.75-1.22V600.13h2.8v14h-2.57l-.13-1.53a7.34,7.34,0,0,1-4.94,1.79A4.57,4.57,0,0,1,314.47,613.09Z"/><path class="cls-2" d="M327.66,600.13h2.78l2.08,10,2.55-8v-2h2l2.83,10,2-10h2.76l-3.22,14h-2.6l-2.61-8.94-2.8,8.94h-2.58Z"/><path class="cls-2" d="M348.92,614.15a12.17,12.17,0,0,1-2.54-.76v-7.23H352l.13,2.16h-3v3.41a8.39,8.39,0,0,0,2.86.44,5.31,5.31,0,0,0,2.47-.48,2.84,2.84,0,0,0,1.33-1.56,8.31,8.31,0,0,0,.42-2.93,7.87,7.87,0,0,0-.47-3,2.9,2.9,0,0,0-1.52-1.54,7.53,7.53,0,0,0-2.95-.47,15.25,15.25,0,0,0-4.66.68v-2.19a15.32,15.32,0,0,1,2.51-.57,19.32,19.32,0,0,1,2.85-.21q3.62,0,5.29,1.84a7.88,7.88,0,0,1,1.68,5.49,7.74,7.74,0,0,1-1.68,5.43c-1.12,1.2-2.87,1.8-5.27,1.8A16,16,0,0,1,348.92,614.15Z"/><path class="cls-2" d="M363.32,614.15a12.06,12.06,0,0,1-2.53-.76v-7.23h5.56l.13,2.16h-3v3.41a8.35,8.35,0,0,0,2.86.44,5.34,5.34,0,0,0,2.47-.48,2.82,2.82,0,0,0,1.32-1.56,8.31,8.31,0,0,0,.42-2.93,7.87,7.87,0,0,0-.47-3,2.9,2.9,0,0,0-1.52-1.54,7.5,7.5,0,0,0-3-.47,15.14,15.14,0,0,0-4.65.68v-2.19a15,15,0,0,1,2.5-.57,19.52,19.52,0,0,1,2.85-.21q3.61,0,5.29,1.84a7.88,7.88,0,0,1,1.68,5.49,7.74,7.74,0,0,1-1.68,5.43q-1.68,1.8-5.26,1.8A16.05,16.05,0,0,1,363.32,614.15Z"/><path class="cls-2" d="M376.67,613.37a3.62,3.62,0,0,1-1.74-3.33,3.39,3.39,0,0,1,1.95-3.17,2.69,2.69,0,0,1-1.36-1.08,3.28,3.28,0,0,1-.51-1.86,3.81,3.81,0,0,1,1.2-3,4.65,4.65,0,0,1,3.19-1,6.78,6.78,0,0,1,2.29.34v2.16a6.61,6.61,0,0,0-1.77-.21c-1.45,0-2.18.59-2.18,1.77s.81,1.84,2.44,1.84h1.49l.12,2.11h-1.66c-1.65,0-2.47.72-2.47,2.16a1.77,1.77,0,0,0,.88,1.6,5.52,5.52,0,0,0,2.74.53,4.32,4.32,0,0,0,2.75-.74,2.72,2.72,0,0,0,.91-2.25v-9h2.81v8.71a5.26,5.26,0,0,1-1.59,4.21,7.05,7.05,0,0,1-4.75,1.38A9,9,0,0,1,376.67,613.37Z"/><path class="cls-2" d="M382.34,620.33a1.9,1.9,0,0,1-.83-1.58v-1.33h-1.4l.1-1.77h3.33v2.63a.78.78,0,0,0,.27.64,1.24,1.24,0,0,0,.77.22,1.28,1.28,0,0,0,.79-.22.78.78,0,0,0,.27-.64v-2.63h2.06v2.81a2.28,2.28,0,0,1-.82,1.78,3.39,3.39,0,0,1-2.3.72A3.63,3.63,0,0,1,382.34,620.33Z"/><path class="cls-2" d="M384.89,593.71h2.83V598h-2.83Z"/><path class="cls-2" d="M389.78,600.13h2.78l2.08,10,2.55-8v-2h2l2.84,10,2-10h2.75l-3.22,14H401l-2.6-8.94-2.81,8.94H393Z"/><path class="cls-2" d="M411,614.15a12.06,12.06,0,0,1-2.53-.76v-7.23h5.56l.13,2.16h-3v3.41a8.35,8.35,0,0,0,2.86.44,5.34,5.34,0,0,0,2.47-.48,2.82,2.82,0,0,0,1.32-1.56,8.31,8.31,0,0,0,.42-2.93,7.87,7.87,0,0,0-.47-3,2.9,2.9,0,0,0-1.52-1.54,7.5,7.5,0,0,0-2.95-.47,15.14,15.14,0,0,0-4.65.68v-2.19a15,15,0,0,1,2.5-.57,19.52,19.52,0,0,1,2.85-.21q3.62,0,5.29,1.84A7.88,7.88,0,0,1,421,607.2a7.74,7.74,0,0,1-1.68,5.43q-1.68,1.8-5.26,1.8A16.05,16.05,0,0,1,411,614.15Z"/><path class="cls-2" d="M423.47,609.1c0-1.73.69-2.81,2.06-3.22l-2.81-.7v-2.92a9.51,9.51,0,0,1,2.9-1.71,10.44,10.44,0,0,1,3.83-.68,7.4,7.4,0,0,1,4.81,1.33,5.18,5.18,0,0,1,1.62,4.26v8.71H433v-8.79a3.17,3.17,0,0,0-.83-2.5,4.41,4.41,0,0,0-2.86-.72,7.94,7.94,0,0,0-2.41.36,4.92,4.92,0,0,0-1.78,1V604l3,.76v1.87a2.4,2.4,0,0,0-1.43.83,2.91,2.91,0,0,0-.42,1.72v5h-2.81Z"/><path class="cls-2" d="M425.14,596h10.71v2H425Z"/><path class="cls-2" d="M439.89,613.09a5.25,5.25,0,0,1-1.26-3.75v-9.21h2.83v9.08a3.13,3.13,0,0,0,.69,2.26,3,3,0,0,0,2.2.7,5.22,5.22,0,0,0,2.16-.47,5.39,5.39,0,0,0,1.74-1.22V600.13h2.81v14h-2.57l-.13-1.53a7.36,7.36,0,0,1-4.94,1.79A4.59,4.59,0,0,1,439.89,613.09Z"/><path class="cls-2" d="M462.92,611.47V600.13h2.83v10.64a1.24,1.24,0,0,0,.27.88,1.15,1.15,0,0,0,.87.29h1v2.23h-2.29A2.4,2.4,0,0,1,462.92,611.47Zm6.31,0V600.13H472v10.64a1.24,1.24,0,0,0,.27.88,1.18,1.18,0,0,0,.87.29h1.07v2.23H472A2.4,2.4,0,0,1,469.23,611.47Z"/><path class="cls-2" d="M477.33,613.38a4.52,4.52,0,0,1,.09-6.45,6.37,6.37,0,0,1,4.06-1.13h4.29v-.88a3.28,3.28,0,0,0-.34-1.64,1.88,1.88,0,0,0-1.12-.86,7.18,7.18,0,0,0-2.15-.26,14.91,14.91,0,0,0-4.58.68v-2.19a18.54,18.54,0,0,1,2.4-.56,17.2,17.2,0,0,1,2.64-.22,6.7,6.7,0,0,1,4.53,1.29,5.1,5.1,0,0,1,1.45,4v9h-2.83V608h-4.11a3.94,3.94,0,0,0-2.22.5,1.86,1.86,0,0,0-.72,1.66,1.78,1.78,0,0,0,.65,1.57,3.9,3.9,0,0,0,2.19.46,6.71,6.71,0,0,0,1.79-.21v2.16a9.37,9.37,0,0,1-2.55.31A5.4,5.4,0,0,1,477.33,613.38Z"/><path class="cls-2" d="M490.84,602.19h2.42v1.27h3.82l-.11,2.11h-6.13Zm0,7.07h2.42v1.3h3.82l-.11,2.08h-6.13Z"/><path class="cls-2" d="M500.28,612.68a7.82,7.82,0,0,1-1.56-5.32,10.49,10.49,0,0,1,1.21-5.55,3.8,3.8,0,0,1,3.41-1.94,3.5,3.5,0,0,1,1.66.34,3.62,3.62,0,0,1,1.15,1,4.19,4.19,0,0,1,1.43-1,4.58,4.58,0,0,1,1.8-.38,3.11,3.11,0,0,1,2.49,1,4.08,4.08,0,0,1,.86,2.78v10.53H509.9V604.06a2.8,2.8,0,0,0-.29-1.47,1.2,1.2,0,0,0-1.09-.43,1.67,1.67,0,0,0-1,.3,1.73,1.73,0,0,0-.63.9h-1.56a3,3,0,0,0-.68-.93,1.46,1.46,0,0,0-.94-.27,1.81,1.81,0,0,0-1.78,1.33,11.57,11.57,0,0,0-.5,3.87,6.06,6.06,0,0,0,.87,3.69,3.13,3.13,0,0,0,2.64,1.12,5.77,5.77,0,0,0,1.79-.21v2.16a7,7,0,0,1-2.29.31A5.31,5.31,0,0,1,500.28,612.68Z"/><path class="cls-2" d="M506.54,594.2h2.34V596h6.74l-.13,2h-8.95Z"/><path class="cls-2" d="M516.53,612.68a9.57,9.57,0,0,1,.26-10.85,7,7,0,0,1,5.35-2,8.15,8.15,0,0,1,3.81.8,5.16,5.16,0,0,1,2.24,2.08,5.78,5.78,0,0,1,.71,2.84v8.58h-2.83v-8.45a3.59,3.59,0,0,0-.92-2.62,4.17,4.17,0,0,0-3.06-.94,4,4,0,0,0-3.33,1.3,8,8,0,0,0-.19,7.59,3.13,3.13,0,0,0,2.64,1.12A5.77,5.77,0,0,0,523,612v2.16a7,7,0,0,1-2.29.31A5.31,5.31,0,0,1,516.53,612.68Z"/><path class="cls-2" d="M531.66,605.28a5.07,5.07,0,0,1,1.57-4,7,7,0,0,1,4.8-1.41,6.9,6.9,0,0,1,4.77,1.41,5.12,5.12,0,0,1,1.55,4v8.89h-2.84V605q0-2.87-3.48-2.86a4.19,4.19,0,0,0-2.65.7,2.6,2.6,0,0,0-.89,2.16v2.89a4.17,4.17,0,0,1,2.73-.94h1.69l.11,2.26h-1.88a4,4,0,0,0-2.65.89v4h-2.83Z"/><path class="cls-2" d="M541.49,593.71h2.83V598h-2.83Z"/><path class="cls-2" d="M552.41,605.33a5.54,5.54,0,0,0-.24-1.81,1.79,1.79,0,0,0-.89-1,4.25,4.25,0,0,0-1.91-.35,10,10,0,0,0-1.81.18,9.15,9.15,0,0,0-1.76.5v-2.19a10.68,10.68,0,0,1,1.93-.56,11.77,11.77,0,0,1,2.18-.22,5.72,5.72,0,0,1,4.07,1.22,5.22,5.22,0,0,1,1.26,3.88v9.2h-2.83Z"/><path class="cls-2" d="M557.66,611.47v-6a4.54,4.54,0,0,1,.53-2.29,10.49,10.49,0,0,1,1.47-1.87,9.43,9.43,0,0,0,.82-.95,1.33,1.33,0,0,0,.25-.76,1.14,1.14,0,0,0-.41-1,2.42,2.42,0,0,0-1.31-.27,5.88,5.88,0,0,0-2.83.78V597a5.86,5.86,0,0,1,1.78-.71,8.26,8.26,0,0,1,2-.25,4.18,4.18,0,0,1,2.75.78,2.75,2.75,0,0,1,.92,2.21,3,3,0,0,1-.38,1.53,8.28,8.28,0,0,1-1.13,1.46,14,14,0,0,0-1.25,1.7,3.64,3.64,0,0,0-.41,1.81v5.23a1.38,1.38,0,0,0,.22.93,1.25,1.25,0,0,0,.92.24h1.2v2.23h-2.42A2.4,2.4,0,0,1,557.66,611.47Z"/><path class="cls-2" d="M566.39,613.07a5,5,0,0,1-1.53-3.89V607.8a3.43,3.43,0,0,1,.36-1.55,13.11,13.11,0,0,1,1.07-1.65c.31-.41.54-.74.68-1a1.33,1.33,0,0,0,.2-.69.64.64,0,0,0-.18-.53,1,1,0,0,0-.65-.15h-1.79l.23-2.13h3.28c1.32,0,2,.63,2,1.9a3.27,3.27,0,0,1-.3,1.43,14.58,14.58,0,0,1-.9,1.56,11.52,11.52,0,0,0-.87,1.46,3,3,0,0,0-.3,1.35v1.58c0,1.84,1.07,2.76,3.2,2.76s3.22-.94,3.22-2.83v-1.72a2.7,2.7,0,0,0-.4-1.7,1.81,1.81,0,0,0-1.44-.48h-.73l.13-2.06h.52a1.88,1.88,0,0,0,1.49-.5,2.59,2.59,0,0,0,.43-1.68v-1.33h2.83v1.28a4.47,4.47,0,0,1-.4,2.08,1.23,1.23,0,1,0,0,2.4,4.76,4.76,0,0,1,.37,2.07v1.45a4.84,4.84,0,0,1-1.61,3.89,7.92,7.92,0,0,1-8.92,0Z"/><path class="cls-2" d="M571,595.61h-2.06v-2h4V596h5.62l-.1,2H571Z"/><path class="cls-2" d="M584.08,614.34a4.06,4.06,0,0,1-1-.25L581,608.56h-1.8l.13-2.14h3.46l2.16,5.78a3.57,3.57,0,0,0,3-1.17,5.91,5.91,0,0,0,1.12-4,7.17,7.17,0,0,0-.48-2.9,2.88,2.88,0,0,0-1.57-1.5,8,8,0,0,0-3-.46,14.17,14.17,0,0,0-4.45.68v-2.19a17,17,0,0,1,5.2-.78q3.65,0,5.35,1.81a7.54,7.54,0,0,1,1.7,5.34,8.64,8.64,0,0,1-.87,4,6.05,6.05,0,0,1-2.34,2.53,6.24,6.24,0,0,1-3.24.86A8.69,8.69,0,0,1,584.08,614.34Z"/><path class="cls-2" d="M588.31,593.71h2.84V598h-2.84Z"/><path class="cls-2" d="M599.23,605.33a5.57,5.57,0,0,0-.23-1.81,1.85,1.85,0,0,0-.9-1,4.22,4.22,0,0,0-1.91-.35,10.07,10.07,0,0,0-1.81.18,9,9,0,0,0-1.75.5v-2.19a10.8,10.8,0,0,1,1.92-.56,12,12,0,0,1,2.19-.22,5.74,5.74,0,0,1,4.07,1.22,5.22,5.22,0,0,1,1.26,3.88v9.2h-2.84Z"/><path class="cls-2" d="M606,613.37a3.63,3.63,0,0,1-1.75-3.33,3.39,3.39,0,0,1,1.95-3.17,2.73,2.73,0,0,1-1.36-1.08,3.28,3.28,0,0,1-.51-1.86,3.81,3.81,0,0,1,1.2-3,4.67,4.67,0,0,1,3.2-1,6.76,6.76,0,0,1,2.28.34v2.16a6.58,6.58,0,0,0-1.76-.21q-2.19,0-2.19,1.77c0,1.23.82,1.84,2.45,1.84H611l.13,2.11h-1.67q-2.46,0-2.46,2.16a1.75,1.75,0,0,0,.88,1.6,5.5,5.5,0,0,0,2.73.53,4.3,4.3,0,0,0,2.75-.74,2.72,2.72,0,0,0,.91-2.25v-9H617v8.71a5.29,5.29,0,0,1-1.58,4.21,7.1,7.1,0,0,1-4.76,1.38A9,9,0,0,1,606,613.37Z"/><path class="cls-2" d="M620.67,613.38a4.52,4.52,0,0,1,.09-6.45,6.37,6.37,0,0,1,4.06-1.13h4.29v-.88a3.39,3.39,0,0,0-.34-1.64,1.91,1.91,0,0,0-1.12-.86,7.2,7.2,0,0,0-2.16-.26,14.89,14.89,0,0,0-4.57.68v-2.19a18.54,18.54,0,0,1,2.4-.56,17,17,0,0,1,2.64-.22,6.67,6.67,0,0,1,4.52,1.29,5.07,5.07,0,0,1,1.46,4v9h-2.83V608H625a3.92,3.92,0,0,0-2.22.5,1.86,1.86,0,0,0-.72,1.66,1.78,1.78,0,0,0,.65,1.57,3.86,3.86,0,0,0,2.18.46,6.74,6.74,0,0,0,1.8-.21v2.16a9.48,9.48,0,0,1-2.55.31A5.38,5.38,0,0,1,620.67,613.38Z"/><path class="cls-2" d="M637.61,614.09l-4-9.62h2.75l3.2,7.8a3.55,3.55,0,0,0,3.24-1.27,7.25,7.25,0,0,0,1-4.29,9,9,0,0,0-.32-2.68,2.26,2.26,0,0,0-1-1.36,4.25,4.25,0,0,0-2-.41h-1v-2.13h1.35a5.51,5.51,0,0,1,4.38,1.6,7.41,7.41,0,0,1,1.39,4.95q0,4-1.72,5.85a6,6,0,0,1-4.67,1.9A7.78,7.78,0,0,1,637.61,614.09Z"/><path class="cls-2" d="M121,642.67V631.33h2.81V642a1.24,1.24,0,0,0,.27.88,1.19,1.19,0,0,0,.88.29h1.19v2.23h-2.42A2.4,2.4,0,0,1,121,642.67Z"/><path class="cls-2" d="M128.62,640.3c0-1.73.69-2.81,2.06-3.22l-2.81-.7v-2.92a9.51,9.51,0,0,1,2.9-1.71,10.44,10.44,0,0,1,3.83-.68,7.4,7.4,0,0,1,4.81,1.33,5.18,5.18,0,0,1,1.61,4.26v8.71h-2.83v-8.79a3.17,3.17,0,0,0-.83-2.5,4.41,4.41,0,0,0-2.86-.72,7.94,7.94,0,0,0-2.41.36,4.92,4.92,0,0,0-1.78,1v.46l3,.76v1.87a2.4,2.4,0,0,0-1.43.83,2.91,2.91,0,0,0-.42,1.72v5h-2.81Z"/><path class="cls-2" d="M130.29,627.22h5v-2.15h2v2.15h1.56v-2.15H141v4.13H130.16Z"/><path class="cls-2" d="M146,645.35a12.17,12.17,0,0,1-2.54-.76v-7.23H149l.13,2.16h-3v3.41a8.39,8.39,0,0,0,2.86.44,5.31,5.31,0,0,0,2.47-.48,2.84,2.84,0,0,0,1.33-1.56,8.57,8.57,0,0,0,.41-2.93,7.81,7.81,0,0,0-.46-3,2.9,2.9,0,0,0-1.53-1.55,7.47,7.47,0,0,0-2.95-.47,15.14,15.14,0,0,0-4.65.68v-2.19a15.08,15.08,0,0,1,2.51-.57,19.32,19.32,0,0,1,2.85-.21q3.62,0,5.29,1.84c1.12,1.22,1.67,3.05,1.67,5.49a7.74,7.74,0,0,1-1.67,5.43q-1.68,1.8-5.27,1.8A16,16,0,0,1,146,645.35Z"/><path class="cls-2" d="M159.86,644.19a5.33,5.33,0,0,1-1.68-4.28v-8.58H161V640a3.26,3.26,0,0,0,.9,2.53,3.83,3.83,0,0,0,2.69.82,3.91,3.91,0,0,0,2.7-.82,3.23,3.23,0,0,0,.91-2.53v-8.69H171v8.58a5.36,5.36,0,0,1-1.67,4.28,8.55,8.55,0,0,1-9.5,0Z"/><path class="cls-2" d="M173.78,631.33h2.58l.15,1.54a7.46,7.46,0,0,1,5-1.8A4.48,4.48,0,0,1,185,632.4a5.17,5.17,0,0,1,1.25,3.72v9.25H183.4v-9.12a2.93,2.93,0,0,0-.71-2.2,3.07,3.07,0,0,0-2.2-.69,5.08,5.08,0,0,0-2.13.47,5.62,5.62,0,0,0-1.74,1.22v10.32h-2.84Z"/><path class="cls-2" d="M180,625.4h2.34v1.82h6.74l-.13,2H180Z"/><path class="cls-2" d="M182.23,621.66h-1.61v-1.82h3.46v2h4l-.1,1.82h-5.75Z"/><path class="cls-2" d="M191.88,645.29l-3.95-9.62h2.75l3.2,7.8a3.54,3.54,0,0,0,3.24-1.27,7.25,7.25,0,0,0,1-4.29,9,9,0,0,0-.32-2.68,2.23,2.23,0,0,0-1-1.36,4.25,4.25,0,0,0-2-.41h-1v-2.13h1.35a5.55,5.55,0,0,1,4.39,1.6,7.46,7.46,0,0,1,1.39,5q0,4-1.73,5.85a6,6,0,0,1-4.67,1.9A7.78,7.78,0,0,1,191.88,645.29Z"/><path class="cls-2" d="M203.09,631.33h2.83v4.42H210a2.9,2.9,0,0,0,2.09-.62,2.75,2.75,0,0,0,.61-2v-1.82h2.81v1.74c0,2-.7,3.22-2.11,3.72a2.58,2.58,0,0,1,1.55,1.25,4.88,4.88,0,0,1,.43,2.16v5.17h-2.81v-4.83a2.88,2.88,0,0,0-.57-2.07,3.05,3.05,0,0,0-2.11-.56h-4v7.46h-2.83Z"/><path class="cls-2" d="M223.17,645.18a7.52,7.52,0,0,1-2.2-1.34l-.15,1.53h-2.58v-14h2.84v10.35a5.62,5.62,0,0,0,1.74,1.22,5.08,5.08,0,0,0,2.13.47,2.54,2.54,0,0,0,2.91-3v-9.08h2.81v9.21a5.25,5.25,0,0,1-1.26,3.75,4.57,4.57,0,0,1-3.52,1.34A7.64,7.64,0,0,1,223.17,645.18Z"/><path class="cls-2" d="M234.47,643.88a9.55,9.55,0,0,1,.26-10.84,6.94,6.94,0,0,1,5.35-2,8.15,8.15,0,0,1,3.81.8,5.16,5.16,0,0,1,2.24,2.08,5.68,5.68,0,0,1,.71,2.84v8.58H244v-8.45a3.59,3.59,0,0,0-.92-2.62,4.17,4.17,0,0,0-3.06-.94,4,4,0,0,0-3.33,1.3,8,8,0,0,0-.19,7.59,3.13,3.13,0,0,0,2.64,1.12,5.72,5.72,0,0,0,1.79-.21v2.16a7,7,0,0,1-2.29.31A5.31,5.31,0,0,1,234.47,643.88Z"/><path class="cls-2" d="M260.43,645.18a7.52,7.52,0,0,1-2.2-1.34l-.16,1.53H255.5v-14h2.83v10.35a5.78,5.78,0,0,0,1.75,1.22,5,5,0,0,0,2.13.47,3,3,0,0,0,2.19-.7,3,3,0,0,0,.72-2.26v-9.08h2.81v9.21a5.25,5.25,0,0,1-1.26,3.75,4.59,4.59,0,0,1-3.53,1.34A7.59,7.59,0,0,1,260.43,645.18Z"/><path class="cls-2" d="M257.19,627.22h8.37v-2.15h2.34v4.13H257.06Z"/><path class="cls-2" d="M272.88,645.35a12.06,12.06,0,0,1-2.53-.76v-7.23h5.56l.13,2.16h-3v3.41a8.35,8.35,0,0,0,2.86.44,5.34,5.34,0,0,0,2.47-.48,2.86,2.86,0,0,0,1.32-1.56,8.31,8.31,0,0,0,.42-2.93,7.78,7.78,0,0,0-.47-3,2.88,2.88,0,0,0-1.52-1.55,7.5,7.5,0,0,0-3-.47,15.25,15.25,0,0,0-4.66.68v-2.19a15.32,15.32,0,0,1,2.51-.57,19.52,19.52,0,0,1,2.85-.21q3.61,0,5.29,1.84a7.88,7.88,0,0,1,1.68,5.49,7.74,7.74,0,0,1-1.68,5.43q-1.68,1.8-5.26,1.8A16.05,16.05,0,0,1,272.88,645.35Z"/><path class="cls-2" d="M271.59,627.22h10.72v2H271.46Z"/><path class="cls-2" d="M286,644.59a4.54,4.54,0,0,1,.08-6.46,6.33,6.33,0,0,1,4.07-1.13h4.29v-.88a2.56,2.56,0,0,0-.8-2.15,4.81,4.81,0,0,0-2.84-.61,14.91,14.91,0,0,0-4.58.68v-2.19a18.5,18.5,0,0,1,2.42-.56,17.22,17.22,0,0,1,2.65-.22,11.36,11.36,0,0,1,2.42.26h4.7l-.15,2.21h-1.64a3.86,3.86,0,0,1,.48,1.24,7.62,7.62,0,0,1,.14,1.6v9h-2.8v-6.19h-4.14a3.91,3.91,0,0,0-2.2.5,1.88,1.88,0,0,0-.71,1.66,1.81,1.81,0,0,0,.65,1.58,4,4,0,0,0,2.18.45,6.31,6.31,0,0,0,1.77-.21v2.16a9,9,0,0,1-2.52.31A5.37,5.37,0,0,1,286,644.59Z"/><path class="cls-2" d="M302.29,645.45a8.45,8.45,0,0,1-2.1-.52v-2.37a10.84,10.84,0,0,0,2.11.6,11.94,11.94,0,0,0,2.16.21,7.55,7.55,0,0,0,2.7-.34,1.31,1.31,0,0,0,.81-1.35,1.55,1.55,0,0,0-.31-1,2.23,2.23,0,0,0-.86-.61c-.37-.16-.93-.36-1.69-.6l-1-.34a10.15,10.15,0,0,1-3.18-1.6,3,3,0,0,1-1.05-2.45,3.43,3.43,0,0,1,1.43-3,7,7,0,0,1,4.21-1.06,15.18,15.18,0,0,1,2.31.18,13.41,13.41,0,0,1,2,.45V634a10.38,10.38,0,0,0-1.89-.5,11.77,11.77,0,0,0-2-.18,6.84,6.84,0,0,0-2.48.35,1.29,1.29,0,0,0-.84,1.29,1.24,1.24,0,0,0,.35.91,2.83,2.83,0,0,0,.95.61c.39.16,1,.39,1.84.66l.76.24a9.23,9.23,0,0,1,3.22,1.65,3.8,3.8,0,0,1-.52,5.59,7.74,7.74,0,0,1-4.21,1A19.28,19.28,0,0,1,302.29,645.45Z"/><path class="cls-2" d="M312.41,633.39h2.42v1.27h3.82l-.1,2.11h-6.14Zm0,7.07h2.42v1.3h3.82l-.1,2.08h-6.14Z"/><path class="cls-2" d="M331.11,645.54a4.17,4.17,0,0,1-1-.25L328,639.76h-1.8l.13-2.14h3.46l2.16,5.78a3.57,3.57,0,0,0,3-1.17,5.91,5.91,0,0,0,1.12-4,7.17,7.17,0,0,0-.48-2.9,2.88,2.88,0,0,0-1.57-1.5,8,8,0,0,0-3-.46,14.17,14.17,0,0,0-4.45.68v-2.19a17,17,0,0,1,5.2-.78q3.65,0,5.35,1.81a7.54,7.54,0,0,1,1.7,5.34,8.64,8.64,0,0,1-.87,4,6.05,6.05,0,0,1-2.34,2.53,6.24,6.24,0,0,1-3.24.86A8.69,8.69,0,0,1,331.11,645.54Z"/><path class="cls-2" d="M346.26,636.53a5.57,5.57,0,0,0-.23-1.81,1.85,1.85,0,0,0-.9-1,4.22,4.22,0,0,0-1.91-.35,9.88,9.88,0,0,0-1.8.18,8.94,8.94,0,0,0-1.76.5v-2.19a10.8,10.8,0,0,1,1.92-.56,12,12,0,0,1,2.19-.22,5.72,5.72,0,0,1,4.07,1.22,5.22,5.22,0,0,1,1.26,3.88v9.2h-2.84Z"/><path class="cls-2" d="M352.09,640.3c0-1.73.68-2.81,2.05-3.22l-2.81-.7v-2.92a9.63,9.63,0,0,1,2.9-1.71,10.5,10.5,0,0,1,3.84-.68,7.42,7.42,0,0,1,4.81,1.33,5.21,5.21,0,0,1,1.61,4.26v8.71h-2.83v-8.79a3.14,3.14,0,0,0-.84-2.5,4.38,4.38,0,0,0-2.86-.72,7.83,7.83,0,0,0-2.4.36,4.75,4.75,0,0,0-1.78,1v.46l3,.76v1.87a2.46,2.46,0,0,0-1.43.83,2.91,2.91,0,0,0-.41,1.72v5h-2.81Z"/><path class="cls-2" d="M368.12,644.59a3.87,3.87,0,0,1-1.32-3.25,3.92,3.92,0,0,1,1.39-3.21,6.37,6.37,0,0,1,4.07-1.13h4.29v-.88a2.55,2.55,0,0,0-.79-2.15,4.85,4.85,0,0,0-2.85-.61,14.89,14.89,0,0,0-4.57.68v-2.19a18.12,18.12,0,0,1,2.42-.56,17.22,17.22,0,0,1,2.65-.22,11.36,11.36,0,0,1,2.42.26h4.7l-.15,2.21h-1.64a4.11,4.11,0,0,1,.48,1.24,8.35,8.35,0,0,1,.14,1.6v9h-2.81v-6.19h-4.13a3.91,3.91,0,0,0-2.2.5,1.88,1.88,0,0,0-.71,1.66,1.79,1.79,0,0,0,.65,1.58,4,4,0,0,0,2.18.45,6.31,6.31,0,0,0,1.77-.21v2.16a9,9,0,0,1-2.52.31A5.37,5.37,0,0,1,368.12,644.59Z"/><path class="cls-2" d="M382.14,643.14h1a1,1,0,0,0,.76-.25,1.28,1.28,0,0,0,.22-.85V640.3a4.64,4.64,0,0,1,.39-2,2.46,2.46,0,0,1,1.46-1.18l-2.86-.7v-2.92a9.82,9.82,0,0,1,2.87-1.7,10.29,10.29,0,0,1,3.84-.69,7.06,7.06,0,0,1,4.68,1.35,5.28,5.28,0,0,1,1.58,4.24v8.71h-2.8v-8.79a3.22,3.22,0,0,0-.81-2.49,4,4,0,0,0-2.73-.73,7.93,7.93,0,0,0-2.43.36,4.58,4.58,0,0,0-1.76,1v.46l3.05.76v1.87a2.12,2.12,0,0,0-1.29.82,3.4,3.4,0,0,0-.33,1.73v1.87c0,2.12-1,3.17-3.06,3.17h-1.75Z"/><path class="cls-2" d="M404.11,636.53a5.57,5.57,0,0,0-.23-1.81,1.85,1.85,0,0,0-.9-1,4.22,4.22,0,0,0-1.91-.35,10.16,10.16,0,0,0-1.81.18,9.25,9.25,0,0,0-1.75.5v-2.19a10.8,10.8,0,0,1,1.92-.56,12,12,0,0,1,2.19-.22,5.72,5.72,0,0,1,4.07,1.22,5.22,5.22,0,0,1,1.26,3.88v9.2h-2.84Z"/><path class="cls-2" d="M409,631.33h2.78l2.08,10,2.55-8v-2h2l2.84,10,2-10H426l-3.22,14h-2.6l-2.6-8.94-2.81,8.94h-2.57Z"/><path class="cls-2" d="M429.71,644.19a5.33,5.33,0,0,1-1.68-4.28v-8.58h2.84V640a3.3,3.3,0,0,0,.89,2.53,4.86,4.86,0,0,0,5.4,0,3.23,3.23,0,0,0,.91-2.53V627.17h2.81v12.74a5.36,5.36,0,0,1-1.67,4.28,8.55,8.55,0,0,1-9.5,0Z"/><path class="cls-2" d="M428.29,625.4h2.32v1.82H436l-.11,2h-7.62Z"/><path class="cls-2" d="M448,645.54a4.17,4.17,0,0,1-1-.25l-2.08-5.53h-1.8l.13-2.14h3.46l2.16,5.78a3.57,3.57,0,0,0,3-1.17,5.91,5.91,0,0,0,1.12-4,7.17,7.17,0,0,0-.48-2.9,2.85,2.85,0,0,0-1.57-1.5,8,8,0,0,0-3-.46,14.1,14.1,0,0,0-4.44.68v-2.19a17,17,0,0,1,5.2-.78q3.63,0,5.34,1.81a7.54,7.54,0,0,1,1.7,5.34,8.64,8.64,0,0,1-.87,4,6.05,6.05,0,0,1-2.34,2.53,6.24,6.24,0,0,1-3.24.86A8.69,8.69,0,0,1,448,645.54Z"/><path class="cls-2" d="M462.28,645.54a4.17,4.17,0,0,1-1-.25l-2.08-5.53h-1.8l.13-2.14H461l2.16,5.78a3.57,3.57,0,0,0,3-1.17,5.91,5.91,0,0,0,1.12-4,7.17,7.17,0,0,0-.48-2.9,2.88,2.88,0,0,0-1.57-1.5,8,8,0,0,0-3-.46,14.21,14.21,0,0,0-4.45.68v-2.19a17,17,0,0,1,5.2-.78q3.64,0,5.35,1.81a7.54,7.54,0,0,1,1.7,5.34,8.64,8.64,0,0,1-.87,4,6.05,6.05,0,0,1-2.34,2.53,6.24,6.24,0,0,1-3.24.86A8.69,8.69,0,0,1,462.28,645.54Z"/><path class="cls-2" d="M463.19,625.4h2.34v1.82h6.73l-.13,2h-8.94Z"/><path class="cls-2" d="M473.27,644.57a3.62,3.62,0,0,1-1.74-3.33,3.39,3.39,0,0,1,2-3.17,2.73,2.73,0,0,1-1.36-1.08,3.28,3.28,0,0,1-.51-1.86,3.77,3.77,0,0,1,1.2-3,4.6,4.6,0,0,1,3.19-1.06,6.78,6.78,0,0,1,2.29.34v2.16a6.61,6.61,0,0,0-1.77-.21c-1.45,0-2.18.59-2.18,1.77s.81,1.84,2.44,1.84h1.49l.13,2.11h-1.67c-1.65,0-2.47.72-2.47,2.16a1.76,1.76,0,0,0,.89,1.6,5.45,5.45,0,0,0,2.73.53,4.32,4.32,0,0,0,2.75-.74,2.72,2.72,0,0,0,.91-2.25v-9h2.81V640a5.26,5.26,0,0,1-1.59,4.21,7.05,7.05,0,0,1-4.75,1.38A9,9,0,0,1,473.27,644.57Z"/><path class="cls-2" d="M486.72,643.14h1a1,1,0,0,0,.77-.25,1.33,1.33,0,0,0,.22-.85V640.3a4.64,4.64,0,0,1,.39-2,2.44,2.44,0,0,1,1.45-1.18l-2.86-.7v-2.92a9.82,9.82,0,0,1,2.87-1.7,10.33,10.33,0,0,1,3.84-.69,7.06,7.06,0,0,1,4.68,1.35,5.29,5.29,0,0,1,1.59,4.24v8.71h-2.81v-8.79a3.22,3.22,0,0,0-.81-2.49,4,4,0,0,0-2.73-.73,8,8,0,0,0-2.43.36,4.53,4.53,0,0,0-1.75,1v.46l3,.76v1.87a2.15,2.15,0,0,0-1.29.82,3.42,3.42,0,0,0-.32,1.73v1.87c0,2.12-1,3.17-3.07,3.17h-1.74Z"/><path class="cls-2" d="M508.69,636.53a5.54,5.54,0,0,0-.24-1.81,1.77,1.77,0,0,0-.9-1,4.19,4.19,0,0,0-1.91-.35,10,10,0,0,0-1.8.18,9.15,9.15,0,0,0-1.76.5v-2.19a10.68,10.68,0,0,1,1.93-.56,11.77,11.77,0,0,1,2.18-.22,5.72,5.72,0,0,1,4.07,1.22,5.22,5.22,0,0,1,1.26,3.88v9.2h-2.83Z"/><path class="cls-2" d="M515.42,644.57a4,4,0,0,1-1.24-5.22,3.49,3.49,0,0,1,1.45-1.28,2.75,2.75,0,0,1-1.37-1.08,3.27,3.27,0,0,1-.5-1.86,3.77,3.77,0,0,1,1.19-3,4.63,4.63,0,0,1,3.2-1.06,6.82,6.82,0,0,1,2.29.34v2.16a6.66,6.66,0,0,0-1.77-.21c-1.46,0-2.18.59-2.18,1.77s.81,1.84,2.44,1.84h1.48l.13,2.11h-1.66c-1.65,0-2.47.72-2.47,2.16a1.75,1.75,0,0,0,.88,1.6,5.5,5.5,0,0,0,2.73.53,4.35,4.35,0,0,0,2.76-.74,2.75,2.75,0,0,0,.91-2.25v-9h2.81V640a5.26,5.26,0,0,1-1.59,4.21,7.08,7.08,0,0,1-4.76,1.38A9,9,0,0,1,515.42,644.57Z"/><path class="cls-2" d="M530.51,644.29a5.25,5.25,0,0,1-1.26-3.75v-9.21h2.84v9.08a3.18,3.18,0,0,0,.68,2.26,3,3,0,0,0,2.2.7,5.22,5.22,0,0,0,2.16-.47,5.39,5.39,0,0,0,1.74-1.22V631.33h2.81v14h-2.57l-.13-1.53a7.36,7.36,0,0,1-4.94,1.79A4.59,4.59,0,0,1,530.51,644.29Z"/><path class="cls-2" d="M546.63,645.35a12.06,12.06,0,0,1-2.53-.76v-7.23h5.56l.13,2.16h-3v3.41a8.39,8.39,0,0,0,2.86.44,5.34,5.34,0,0,0,2.47-.48,2.82,2.82,0,0,0,1.32-1.56,8.31,8.31,0,0,0,.42-2.93,7.78,7.78,0,0,0-.47-3,2.88,2.88,0,0,0-1.52-1.55,7.5,7.5,0,0,0-2.95-.47,15.14,15.14,0,0,0-4.65.68v-2.19a15,15,0,0,1,2.5-.57,19.52,19.52,0,0,1,2.85-.21q3.62,0,5.29,1.84a7.88,7.88,0,0,1,1.68,5.49,7.74,7.74,0,0,1-1.68,5.43q-1.68,1.8-5.26,1.8A16.05,16.05,0,0,1,546.63,645.35Z"/><path class="cls-2" d="M559.07,640.3c0-1.73.69-2.81,2.06-3.22l-2.81-.7v-2.92a9.63,9.63,0,0,1,2.9-1.71,10.44,10.44,0,0,1,3.83-.68,7.38,7.38,0,0,1,4.81,1.33,5.18,5.18,0,0,1,1.62,4.26v8.71h-2.84v-8.79a3.17,3.17,0,0,0-.83-2.5,4.41,4.41,0,0,0-2.86-.72,7.94,7.94,0,0,0-2.41.36,4.92,4.92,0,0,0-1.78,1v.46l3,.76v1.87a2.43,2.43,0,0,0-1.43.83,2.91,2.91,0,0,0-.42,1.72v5h-2.81Z"/><path class="cls-2" d="M574.23,642.67V631.33h2.84V642a1.24,1.24,0,0,0,.27.88,1.15,1.15,0,0,0,.87.29h1v2.23H577A2.4,2.4,0,0,1,574.23,642.67Zm6.32,0V631.33h2.81V642a1.24,1.24,0,0,0,.27.88,1.15,1.15,0,0,0,.87.29h1.07v2.23h-2.29A2.4,2.4,0,0,1,580.55,642.67Z"/><path class="cls-2" d="M588.65,644.58a4.52,4.52,0,0,1,.09-6.45A6.37,6.37,0,0,1,592.8,637h4.29v-.88a3.39,3.39,0,0,0-.34-1.64,1.91,1.91,0,0,0-1.12-.86,7.2,7.2,0,0,0-2.16-.26,14.89,14.89,0,0,0-4.57.68v-2.19a18.54,18.54,0,0,1,2.4-.56,17,17,0,0,1,2.64-.22,6.68,6.68,0,0,1,4.52,1.29,5.11,5.11,0,0,1,1.46,4v9h-2.83v-6.19H593a4,4,0,0,0-2.23.5,1.88,1.88,0,0,0-.71,1.66,1.81,1.81,0,0,0,.65,1.58,4,4,0,0,0,2.18.45,6.74,6.74,0,0,0,1.8-.21v2.16a9.48,9.48,0,0,1-2.55.31A5.38,5.38,0,0,1,588.65,644.58Z"/><path class="cls-2" d="M593.94,626.81h-2.05v-1.95h4v2.36h5.62l-.11,2h-7.46Z"/><path class="cls-2" d="M602,644.85v-2.23a9,9,0,0,0,3.53.75,6.58,6.58,0,0,0,2.82-.49,3,3,0,0,0,1.49-1.59,7.89,7.89,0,0,0,.45-2.94,5.5,5.5,0,0,0-1.1-3.85,5,5,0,0,0-3.68-1.14,8.66,8.66,0,0,0-3.51.75v-2.26a10.52,10.52,0,0,1,4.13-.78,6.75,6.75,0,0,1,5.18,1.85,7.72,7.72,0,0,1,1.71,5.43,7.89,7.89,0,0,1-1.66,5.44q-1.66,1.85-5.15,1.84A10.47,10.47,0,0,1,602,644.85Z"/><path class="cls-2" d="M615.05,642.67V631.33h2.84V642a1.24,1.24,0,0,0,.27.88,1.15,1.15,0,0,0,.87.29h1v2.23h-2.29A2.4,2.4,0,0,1,615.05,642.67Zm6.32,0V631.33h2.81V642a1.24,1.24,0,0,0,.27.88,1.15,1.15,0,0,0,.87.29h1.07v2.23H624.1A2.4,2.4,0,0,1,621.37,642.67Z"/><path class="cls-2" d="M629.47,644.58a4.52,4.52,0,0,1,.09-6.45,6.37,6.37,0,0,1,4.06-1.13h4.29v-.88a3.39,3.39,0,0,0-.34-1.64,1.91,1.91,0,0,0-1.12-.86,7.2,7.2,0,0,0-2.16-.26,14.84,14.84,0,0,0-4.57.68v-2.19a18.54,18.54,0,0,1,2.4-.56,17,17,0,0,1,2.64-.22,6.68,6.68,0,0,1,4.52,1.29,5.11,5.11,0,0,1,1.46,4v9h-2.83v-6.19H633.8a4,4,0,0,0-2.23.5,1.88,1.88,0,0,0-.71,1.66,1.81,1.81,0,0,0,.65,1.58,4,4,0,0,0,2.18.45,6.79,6.79,0,0,0,1.8-.21v2.16a9.48,9.48,0,0,1-2.55.31A5.38,5.38,0,0,1,629.47,644.58Z"/><path class="cls-2" d="M643,633.39h2.41v1.27h3.83l-.11,2.11H643Zm0,7.07h2.41v1.3h3.83l-.11,2.08H643Z"/><path class="cls-2" d="M133.65,673.87V662.53h2.81v10.64a1.24,1.24,0,0,0,.27.88,1.15,1.15,0,0,0,.87.29h1.2v2.23h-2.42A2.4,2.4,0,0,1,133.65,673.87Z"/><path class="cls-2" d="M140.31,662.53h2.78l2.08,10,2.55-8v-2h2l2.83,10,2-10h2.75l-3.22,14h-2.6l-2.6-8.94-2.81,8.94h-2.57Z"/><path class="cls-2" d="M144.7,658.42h5.05v-2.15h2.05v2.15h1.56v-2.15h2v4.13H144.57Z"/><path class="cls-2" d="M153.07,651.4h2.34V655h-2.34Z"/><path class="cls-2" d="M161.56,676.55a12.06,12.06,0,0,1-2.53-.76v-7.23h5.56l.13,2.16h-3v3.41a8.35,8.35,0,0,0,2.86.44,5.34,5.34,0,0,0,2.47-.48,2.82,2.82,0,0,0,1.32-1.56,8.31,8.31,0,0,0,.42-2.93,7.78,7.78,0,0,0-.47-3,2.88,2.88,0,0,0-1.52-1.55,7.5,7.5,0,0,0-3-.47,15.14,15.14,0,0,0-4.65.68v-2.19a15,15,0,0,1,2.5-.57,19.52,19.52,0,0,1,2.85-.21q3.61,0,5.29,1.84a7.88,7.88,0,0,1,1.68,5.49,7.74,7.74,0,0,1-1.68,5.43q-1.68,1.8-5.26,1.8A16.05,16.05,0,0,1,161.56,676.55Z"/><path class="cls-2" d="M173.43,673.87v-6a4.54,4.54,0,0,1,.53-2.29,10.49,10.49,0,0,1,1.47-1.87,8.27,8.27,0,0,0,.82-1,1.26,1.26,0,0,0,.25-.76,1.13,1.13,0,0,0-.4-1,2.35,2.35,0,0,0-1.32-.28,5.88,5.88,0,0,0-2.83.78v-2.08a5.86,5.86,0,0,1,1.78-.71,8.34,8.34,0,0,1,2-.25,4.16,4.16,0,0,1,2.74.78,2.75,2.75,0,0,1,.92,2.21A2.9,2.9,0,0,1,179,663a7.82,7.82,0,0,1-1.13,1.46,14,14,0,0,0-1.25,1.7,3.64,3.64,0,0,0-.41,1.81v5.23a1.38,1.38,0,0,0,.22.93,1.29,1.29,0,0,0,.92.24h1.2v2.23h-2.42A2.4,2.4,0,0,1,173.43,673.87Z"/><path class="cls-2" d="M180.87,662.53h2.83V667h4.06a2.88,2.88,0,0,0,2.09-.62,2.75,2.75,0,0,0,.61-2v-1.82h2.81v1.74c0,2-.7,3.22-2.11,3.72a2.58,2.58,0,0,1,1.55,1.25,4.75,4.75,0,0,1,.43,2.16v5.17h-2.81v-4.83a2.88,2.88,0,0,0-.57-2.07,3,3,0,0,0-2.11-.56h-4v7.46h-2.83Z"/><path class="cls-2" d="M187.29,658h-2.06v-2h4v2.36h5.61l-.1,2h-7.46Z"/><path class="cls-2" d="M201,676.38a7.52,7.52,0,0,1-2.2-1.34l-.15,1.53H196v-14h2.84v10.35a5.62,5.62,0,0,0,1.74,1.22,5.08,5.08,0,0,0,2.13.47,2.55,2.55,0,0,0,2.92-3v-9.08h2.8v9.21a5.25,5.25,0,0,1-1.26,3.75,4.57,4.57,0,0,1-3.52,1.34A7.64,7.64,0,0,1,201,676.38Z"/><path class="cls-2" d="M197.71,658.42h8.38v-2.15h2.34v4.13H197.58Z"/><path class="cls-2" d="M211.21,665.16a2.77,2.77,0,0,1,.65-1.9,2.33,2.33,0,0,1,1.82-.73h2.68l.13,2.19h-1.36a1.2,1.2,0,0,0-.92.3,1.41,1.41,0,0,0-.27,1v6.79l3.43-6h1.15l3.43,6V662.53h2.7v14h-2.78l-3.93-6.94L214,676.57h-2.78Z"/><path class="cls-2" d="M228.28,675.78a4.49,4.49,0,0,1,.09-6.45,6.34,6.34,0,0,1,4-1.13h4.29v-.88a3.4,3.4,0,0,0-.33-1.64,1.91,1.91,0,0,0-1.12-.86,7.2,7.2,0,0,0-2.16-.26,14.84,14.84,0,0,0-4.57.68v-2.19a18.54,18.54,0,0,1,2.4-.56,17,17,0,0,1,2.64-.22,6.68,6.68,0,0,1,4.52,1.29,5.11,5.11,0,0,1,1.46,4v9h-2.84v-6.19h-4.1a4,4,0,0,0-2.23.5,1.88,1.88,0,0,0-.71,1.66,1.81,1.81,0,0,0,.65,1.58,4,4,0,0,0,2.18.45,6.79,6.79,0,0,0,1.8-.21v2.16a9.48,9.48,0,0,1-2.55.31A5.38,5.38,0,0,1,228.28,675.78Z"/><path class="cls-2" d="M243.18,675.79a3.87,3.87,0,0,1-1.32-3.25,3.92,3.92,0,0,1,1.39-3.21,6.37,6.37,0,0,1,4.07-1.13h4.29v-.88a2.55,2.55,0,0,0-.79-2.15,4.85,4.85,0,0,0-2.85-.61,14.89,14.89,0,0,0-4.57.68v-2.19a18.33,18.33,0,0,1,2.41-.56,17.45,17.45,0,0,1,2.66-.22,11.26,11.26,0,0,1,2.41.26h4.71l-.15,2.21H253.8a4.11,4.11,0,0,1,.48,1.24,8.35,8.35,0,0,1,.14,1.6v9h-2.81v-6.19h-4.13a3.91,3.91,0,0,0-2.2.5,1.88,1.88,0,0,0-.71,1.66,1.79,1.79,0,0,0,.65,1.58,4,4,0,0,0,2.18.45,6.31,6.31,0,0,0,1.77-.21v2.16a9,9,0,0,1-2.52.31A5.37,5.37,0,0,1,243.18,675.79Z"/><path class="cls-2" d="M262.52,676.38a7.52,7.52,0,0,1-2.2-1.34l-.15,1.53h-2.58v-14h2.84v10.35a5.62,5.62,0,0,0,1.74,1.22,5,5,0,0,0,2.13.47,3,3,0,0,0,2.2-.7,3.09,3.09,0,0,0,.71-2.26v-9.08H270v9.21a5.25,5.25,0,0,1-1.26,3.75,4.57,4.57,0,0,1-3.52,1.34A7.6,7.6,0,0,1,262.52,676.38Z"/><path class="cls-2" d="M274.45,675.39a5.36,5.36,0,0,1-1.67-4.28v-8.58h2.83v8.69a3.25,3.25,0,0,0,.9,2.53,4.84,4.84,0,0,0,5.39,0,3.22,3.22,0,0,0,.91-2.53v-8.69h2.81v8.58a5.35,5.35,0,0,1-1.66,4.28,8.57,8.57,0,0,1-9.51,0Z"/><path class="cls-2" d="M280.21,682.73a1.9,1.9,0,0,1-.83-1.58v-1.33H278l.1-1.77h3.33v2.63a.78.78,0,0,0,.27.64,1.24,1.24,0,0,0,.77.22,1.26,1.26,0,0,0,.79-.22.79.79,0,0,0,.28-.64v-2.63h2.05v2.81a2.25,2.25,0,0,1-.82,1.78,3.37,3.37,0,0,1-2.3.72A3.63,3.63,0,0,1,280.21,682.73Z"/><path class="cls-2" d="M290.29,676.65a8.24,8.24,0,0,1-2.09-.52v-2.37a10.74,10.74,0,0,0,2.1.6,11.94,11.94,0,0,0,2.16.21,7.51,7.51,0,0,0,2.7-.34,1.31,1.31,0,0,0,.81-1.35,1.5,1.5,0,0,0-.31-1,2.23,2.23,0,0,0-.86-.61,17.83,17.83,0,0,0-1.69-.6l-1-.34a10.15,10.15,0,0,1-3.18-1.6,3,3,0,0,1-1.05-2.45,3.43,3.43,0,0,1,1.43-2.95,7,7,0,0,1,4.21-1.06,15.18,15.18,0,0,1,2.31.18,13.41,13.41,0,0,1,2,.45v2.34a10.16,10.16,0,0,0-1.89-.5,11.74,11.74,0,0,0-2-.18,6.9,6.9,0,0,0-2.49.35,1.29,1.29,0,0,0-.84,1.29,1.24,1.24,0,0,0,.35.91,2.83,2.83,0,0,0,.95.61c.4.16,1,.39,1.84.66l.76.24a9.23,9.23,0,0,1,3.22,1.65,3.35,3.35,0,0,1,1,2.61,3.3,3.3,0,0,1-1.51,3,7.72,7.72,0,0,1-4.21,1A19.39,19.39,0,0,1,290.29,676.65Z"/><path class="cls-2" d="M311.66,675.51a5.39,5.39,0,0,1-1.21-3.77v-4a3.24,3.24,0,0,0-.79-2.5,4,4,0,0,0-2.69-.72,7.57,7.57,0,0,0-2.36.36,4.85,4.85,0,0,0-1.75,1v.46l3,.76V669a2.46,2.46,0,0,0-1.43.83,3,3,0,0,0-.41,1.72v1.69a1.17,1.17,0,0,0,.26.86,1.15,1.15,0,0,0,.83.26h1.43v2.23h-2.81a2.4,2.4,0,0,1-1.85-.73,2.65,2.65,0,0,1-.67-1.89V671.5c0-1.73.68-2.81,2.05-3.22l-2.8-.7v-2.92a9.46,9.46,0,0,1,2.87-1.71,10.14,10.14,0,0,1,3.78-.68,6.83,6.83,0,0,1,4.6,1.33,5.31,5.31,0,0,1,1.54,4.26v3.75a3.13,3.13,0,0,0,.69,2.27,2.9,2.9,0,0,0,2.14.69,4.74,4.74,0,0,0,2-.45,5.72,5.72,0,0,0,1.69-1.24V662.53h2.83v14H320l-.16-1.53a7.28,7.28,0,0,1-2.12,1.34,7.08,7.08,0,0,1-2.64.45A4.43,4.43,0,0,1,311.66,675.51Z"/><path class="cls-2" d="M316.41,656.6h7.64l-.1,2h-5.2v1.82h-2.34Z"/><path class="cls-2" d="M326.49,675.77a3.62,3.62,0,0,1-1.74-3.33,3.39,3.39,0,0,1,1.95-3.17,2.69,2.69,0,0,1-1.36-1.08,3.28,3.28,0,0,1-.51-1.86,3.8,3.8,0,0,1,1.19-3,4.65,4.65,0,0,1,3.2-1.06,6.78,6.78,0,0,1,2.29.34v2.16a6.61,6.61,0,0,0-1.77-.21c-1.45,0-2.18.59-2.18,1.77s.81,1.84,2.44,1.84h1.48l.14,2.11H330c-1.65,0-2.47.72-2.47,2.16a1.76,1.76,0,0,0,.89,1.6,5.43,5.43,0,0,0,2.72.53,4.33,4.33,0,0,0,2.76-.74,2.72,2.72,0,0,0,.91-2.25v-9.05h2.81v8.71a5.26,5.26,0,0,1-1.59,4.21,7.06,7.06,0,0,1-4.76,1.38A9,9,0,0,1,326.49,675.77Z"/><path class="cls-2" d="M326.83,658.42h10.71v2H326.7Z"/><path class="cls-2" d="M335.2,653h2.34v3.61H335.2Z"/><path class="cls-2" d="M343.24,676.49l-3.95-9.62H342l3.2,7.8a3.55,3.55,0,0,0,3.24-1.27,7.25,7.25,0,0,0,1-4.29,9,9,0,0,0-.31-2.68,2.26,2.26,0,0,0-1-1.36,4.25,4.25,0,0,0-2-.41h-1v-2.13h1.35a5.54,5.54,0,0,1,4.38,1.6,7.41,7.41,0,0,1,1.39,5c0,2.64-.57,4.59-1.73,5.85a6,6,0,0,1-4.66,1.9A7.78,7.78,0,0,1,343.24,676.49Z"/><path class="cls-2" d="M355.73,675.47a4.92,4.92,0,0,1-1.55-3.89V670.2a3.24,3.24,0,0,1,.37-1.54,12.26,12.26,0,0,1,1.06-1.66c.31-.41.54-.74.68-1a1.34,1.34,0,0,0,.21-.69.61.61,0,0,0-.19-.53,1,1,0,0,0-.64-.15h-1.8l.23-2.13h3.28c1.32,0,2,.64,2,1.9a3.27,3.27,0,0,1-.3,1.43,14.58,14.58,0,0,1-.9,1.56,11.52,11.52,0,0,0-.87,1.46,3,3,0,0,0-.3,1.35v1.58a2.53,2.53,0,0,0,.83,2.08,3.72,3.72,0,0,0,2.39.68c2.14,0,3.2-.94,3.2-2.83v-9.21h2.84v9a4.9,4.9,0,0,1-1.6,3.89,7.92,7.92,0,0,1-8.92,0Z"/><path class="cls-2" d="M355.51,658.42H362a2.52,2.52,0,0,1,0-.57,1.87,1.87,0,0,1,.62-1.4,2.34,2.34,0,0,1,1.69-.6,2.3,2.3,0,0,1,1.77.65,2.2,2.2,0,0,1,.59,1.56,2.32,2.32,0,0,1-.64,1.68,2.45,2.45,0,0,1-1.82.66h-8.74Zm9.48.37a1,1,0,0,0,.27-.7,1,1,0,0,0-.29-.74,1,1,0,0,0-.72-.3,1,1,0,0,0-1,1,1,1,0,0,0,.29.7,1.1,1.1,0,0,0,1.47,0Z"/><path class="cls-2" d="M362.27,652.83h-1.61V651h3.46v2h4l-.11,1.82h-5.74Z"/><path class="cls-2" d="M370.26,675.49a5.25,5.25,0,0,1-1.26-3.75v-9.21h2.84v9.08a3.13,3.13,0,0,0,.69,2.26,3,3,0,0,0,2.19.7,5.22,5.22,0,0,0,2.16-.47,5.28,5.28,0,0,0,1.74-1.22V662.53h2.81v14h-2.57l-.13-1.53a7.36,7.36,0,0,1-4.94,1.79A4.59,4.59,0,0,1,370.26,675.49Z"/><path class="cls-2" d="M388.58,676.74a4.28,4.28,0,0,1-1-.25L385.46,671h-1.79l.13-2.14h3.45l2.16,5.78a3.6,3.6,0,0,0,3-1.17,6,6,0,0,0,1.12-4,7.15,7.15,0,0,0-.49-2.9,2.85,2.85,0,0,0-1.57-1.5,7.91,7.91,0,0,0-3-.46,14.15,14.15,0,0,0-4.44.68v-2.19a17,17,0,0,1,5.2-.78c2.43,0,4.21.61,5.34,1.81a7.5,7.5,0,0,1,1.7,5.34,8.64,8.64,0,0,1-.87,4A6.05,6.05,0,0,1,393,676a6.2,6.2,0,0,1-3.23.86A8.72,8.72,0,0,1,388.58,676.74Z"/><path class="cls-2" d="M384.94,658.42h6.45a2.52,2.52,0,0,1-.05-.57,1.87,1.87,0,0,1,.62-1.4,2.34,2.34,0,0,1,1.69-.6,2.3,2.3,0,0,1,1.77.65,2.21,2.21,0,0,1,.6,1.56,2.32,2.32,0,0,1-.65,1.68,2.45,2.45,0,0,1-1.82.66h-8.74Zm9.48.37a1,1,0,0,0,.27-.7,1,1,0,0,0-.29-.74,1,1,0,0,0-.72-.3,1,1,0,0,0-1,1,1,1,0,0,0,.29.7,1.1,1.1,0,0,0,1.47,0Z"/><path class="cls-2" d="M401.35,676.49l-4-9.62h2.76l3.2,7.8a3.55,3.55,0,0,0,3.24-1.27,7.25,7.25,0,0,0,1-4.29,9,9,0,0,0-.31-2.68,2.26,2.26,0,0,0-1-1.36,4.25,4.25,0,0,0-2.05-.41h-1v-2.13h1.35a5.54,5.54,0,0,1,4.38,1.6,7.41,7.41,0,0,1,1.39,5c0,2.64-.57,4.59-1.73,5.85a6,6,0,0,1-4.66,1.9A7.78,7.78,0,0,1,401.35,676.49Z"/><path class="cls-2" d="M412.55,667.68a5.07,5.07,0,0,1,1.58-4,7,7,0,0,1,4.79-1.41,6.9,6.9,0,0,1,4.77,1.41,5.12,5.12,0,0,1,1.55,4v8.89h-2.83v-9.15q0-2.86-3.49-2.86a4.19,4.19,0,0,0-2.65.7,2.59,2.59,0,0,0-.88,2.16v2.89a4.14,4.14,0,0,1,2.73-.94h1.69l.1,2.26H418a4,4,0,0,0-2.65.89v4.05h-2.84Z"/><path class="cls-2" d="M427.27,676.05v-2.23a9,9,0,0,0,3.53.75,6.66,6.66,0,0,0,2.83-.49,3,3,0,0,0,1.48-1.59,7.89,7.89,0,0,0,.45-2.94,5.5,5.5,0,0,0-1.1-3.85,5,5,0,0,0-3.68-1.14,8.66,8.66,0,0,0-3.51.75v-2.26a10.52,10.52,0,0,1,4.13-.78,6.75,6.75,0,0,1,5.18,1.85,7.72,7.72,0,0,1,1.71,5.43,7.89,7.89,0,0,1-1.66,5.44q-1.67,1.85-5.15,1.84A10.47,10.47,0,0,1,427.27,676.05Z"/><path class="cls-2" d="M442.28,676.65a8.47,8.47,0,0,1-2.09-.52v-2.37a10.64,10.64,0,0,0,2.11.6,11.94,11.94,0,0,0,2.16.21,7.55,7.55,0,0,0,2.7-.34,1.3,1.3,0,0,0,.8-1.35,1.5,1.5,0,0,0-.31-1,2.09,2.09,0,0,0-.86-.61,17.42,17.42,0,0,0-1.68-.6l-1-.34a10.15,10.15,0,0,1-3.18-1.6,3,3,0,0,1-1.06-2.45,3.45,3.45,0,0,1,1.43-2.95,7,7,0,0,1,4.22-1.06,15.18,15.18,0,0,1,2.31.18,13.41,13.41,0,0,1,2,.45v2.34a10.38,10.38,0,0,0-1.89-.5,11.77,11.77,0,0,0-2-.18,6.84,6.84,0,0,0-2.48.35,1.39,1.39,0,0,0-.5,2.2,2.94,2.94,0,0,0,.95.61c.4.16,1,.39,1.85.66l.75.24a9.3,9.3,0,0,1,3.23,1.65,3.8,3.8,0,0,1-.52,5.59,7.75,7.75,0,0,1-4.22,1A19.49,19.49,0,0,1,442.28,676.65Z"/><path class="cls-2" d="M452.93,662.53h2.57l.16,1.54a7.43,7.43,0,0,1,5-1.8,4.49,4.49,0,0,1,3.46,1.33,5.21,5.21,0,0,1,1.25,3.72v9.25h-2.81v-9.12a3,3,0,0,0-.71-2.2,3.07,3.07,0,0,0-2.2-.69,5,5,0,0,0-2.13.47,5.78,5.78,0,0,0-1.75,1.22v10.32h-2.83Z"/><path class="cls-2" d="M454.62,658.42H463v-2.15h2.34v4.13H454.49Z"/><path class="cls-2" d="M463,651.4h2.34V655H463Z"/><path class="cls-2" d="M472.51,676.74a4.28,4.28,0,0,1-1-.25L469.39,671h-1.8l.13-2.14h3.46l2.16,5.78a3.57,3.57,0,0,0,3-1.17,5.91,5.91,0,0,0,1.12-4,7.17,7.17,0,0,0-.48-2.9,2.85,2.85,0,0,0-1.57-1.5,7.91,7.91,0,0,0-3-.46,14.15,14.15,0,0,0-4.44.68v-2.19a17,17,0,0,1,5.2-.78c2.42,0,4.2.61,5.34,1.81a7.54,7.54,0,0,1,1.7,5.34,8.64,8.64,0,0,1-.87,4,6.05,6.05,0,0,1-2.34,2.53,6.23,6.23,0,0,1-3.23.86A8.72,8.72,0,0,1,472.51,676.74Z"/><path class="cls-2" d="M481.84,664.59h2.42v1.27h3.82L488,668h-6.14Zm0,7.07h2.42V673h3.82L488,675h-6.14Z"/><path class="cls-2" d="M491.28,675.08a7.82,7.82,0,0,1-1.56-5.32,10.49,10.49,0,0,1,1.21-5.55,3.83,3.83,0,0,1,3.42-1.94,3.43,3.43,0,0,1,1.65.34,3.75,3.75,0,0,1,1.16,1,4.1,4.1,0,0,1,1.43-1,4.53,4.53,0,0,1,1.79-.38,3.15,3.15,0,0,1,2.5,1,4.13,4.13,0,0,1,.86,2.78v10.53H500.9V666.46a2.82,2.82,0,0,0-.28-1.47,1.24,1.24,0,0,0-1.1-.43,1.64,1.64,0,0,0-1,.3,1.75,1.75,0,0,0-.64.9h-1.56a2.83,2.83,0,0,0-.68-.93,1.43,1.43,0,0,0-.93-.27,1.8,1.8,0,0,0-1.78,1.33,11.27,11.27,0,0,0-.51,3.87,6.06,6.06,0,0,0,.87,3.69,3.13,3.13,0,0,0,2.64,1.12,5.68,5.68,0,0,0,1.79-.21v2.16a6.89,6.89,0,0,1-2.28.31A5.33,5.33,0,0,1,491.28,675.08Z"/><path class="cls-2" d="M497.75,658H495.7v-2h4v2.36h5.61l-.1,2h-7.47Z"/><path class="cls-2" d="M508.69,676.55a12.17,12.17,0,0,1-2.54-.76v-7.23h5.57l.13,2.16h-3v3.41a8.39,8.39,0,0,0,2.86.44,5.31,5.31,0,0,0,2.47-.48,2.84,2.84,0,0,0,1.33-1.56,8.31,8.31,0,0,0,.42-2.93,7.78,7.78,0,0,0-.47-3A2.92,2.92,0,0,0,514,665a7.53,7.53,0,0,0-3-.47,15.25,15.25,0,0,0-4.66.68v-2.19a15.08,15.08,0,0,1,2.51-.57,19.32,19.32,0,0,1,2.85-.21q3.62,0,5.29,1.84a7.88,7.88,0,0,1,1.68,5.49A7.74,7.74,0,0,1,517,675q-1.68,1.8-5.27,1.8A16,16,0,0,1,508.69,676.55Z"/><path class="cls-2" d="M523.81,676.49l-4-9.62h2.76l3.2,7.8a3.55,3.55,0,0,0,3.24-1.27,7.25,7.25,0,0,0,1-4.29,9,9,0,0,0-.31-2.68,2.26,2.26,0,0,0-1-1.36,4.25,4.25,0,0,0-2.05-.41h-1v-2.13H527a5.54,5.54,0,0,1,4.38,1.6,7.41,7.41,0,0,1,1.39,5c0,2.64-.57,4.59-1.73,5.85a6,6,0,0,1-4.66,1.9A7.78,7.78,0,0,1,523.81,676.49Z"/><path class="cls-2" d="M536.05,675.08a9.55,9.55,0,0,1,.26-10.84,7,7,0,0,1,5.36-2,8.2,8.2,0,0,1,3.81.8,5.13,5.13,0,0,1,2.23,2.08,5.68,5.68,0,0,1,.72,2.84v8.58h-2.84v-8.45a3.55,3.55,0,0,0-.92-2.62,4.13,4.13,0,0,0-3-.94,4,4,0,0,0-3.33,1.3,7.93,7.93,0,0,0-.2,7.59,3.13,3.13,0,0,0,2.64,1.12,5.79,5.79,0,0,0,1.8-.21v2.16a7,7,0,0,1-2.29.31A5.33,5.33,0,0,1,536.05,675.08Z"/><path class="cls-2" d="M544.88,660.22a2.84,2.84,0,0,1,0-4,2.9,2.9,0,0,1,2.09-.81,2.87,2.87,0,0,1,2.07.81,2.84,2.84,0,0,1,0,4,2.86,2.86,0,0,1-2.07.8A2.89,2.89,0,0,1,544.88,660.22Zm2.94-1.17a1.18,1.18,0,0,0,.35-.83,1.26,1.26,0,0,0-.35-.89A1.16,1.16,0,0,0,547,657a1.21,1.21,0,0,0-.88.36,1.24,1.24,0,0,0-.37.89,1.13,1.13,0,0,0,.38.83,1.22,1.22,0,0,0,.87.36A1.16,1.16,0,0,0,547.82,659.05Z"/><path class="cls-2" d="M556.49,667.73a5.54,5.54,0,0,0-.24-1.81,1.79,1.79,0,0,0-.89-1,4.22,4.22,0,0,0-1.91-.35,10,10,0,0,0-1.81.18,9.15,9.15,0,0,0-1.76.5v-2.19a10.68,10.68,0,0,1,1.93-.56,11.77,11.77,0,0,1,2.18-.22,5.71,5.71,0,0,1,4.07,1.22,5.22,5.22,0,0,1,1.26,3.88v9.2h-2.83Z"/><path class="cls-2" d="M562.13,673.87V662.53h2.81v10.64a1.24,1.24,0,0,0,.27.88,1.15,1.15,0,0,0,.87.29h1.2v2.23h-2.42A2.4,2.4,0,0,1,562.13,673.87Z"/><path class="cls-2" d="M570.78,675.49a5.25,5.25,0,0,1-1.27-3.75v-9.21h2.84v9.08a3.13,3.13,0,0,0,.69,2.26,3,3,0,0,0,2.19.7,5.49,5.49,0,0,0,3.9-1.69V662.53h2.81v14h-2.57l-.13-1.53a7.34,7.34,0,0,1-4.94,1.79A4.57,4.57,0,0,1,570.78,675.49Z"/><path class="cls-2" d="M571.21,658.42h10.71v2H571.08Z"/><path class="cls-2" d="M586,675.49a5.25,5.25,0,0,1-1.26-3.75v-9.21h2.83v9.08a3.13,3.13,0,0,0,.69,2.26,3,3,0,0,0,2.2.7,5.29,5.29,0,0,0,2.16-.47,5.39,5.39,0,0,0,1.74-1.22V662.53h2.81v14h-2.58l-.13-1.53a7.32,7.32,0,0,1-4.94,1.79A4.57,4.57,0,0,1,586,675.49Z"/><path class="cls-2" d="M600.12,671.5c0-1.73.68-2.81,2-3.22l-2.81-.7v-2.92a9.63,9.63,0,0,1,2.9-1.71,10.46,10.46,0,0,1,3.84-.68,7.42,7.42,0,0,1,4.81,1.33,5.21,5.21,0,0,1,1.61,4.26v8.71h-2.84v-8.79a3.13,3.13,0,0,0-.83-2.5,4.4,4.4,0,0,0-2.86-.72,7.83,7.83,0,0,0-2.4.36,4.75,4.75,0,0,0-1.78,1v.46l3,.76V669a2.43,2.43,0,0,0-1.43.83,2.91,2.91,0,0,0-.42,1.72v5h-2.8Z"/><path class="cls-2" d="M620.58,667.73a5.54,5.54,0,0,0-.24-1.81,1.79,1.79,0,0,0-.89-1,4.22,4.22,0,0,0-1.91-.35,10,10,0,0,0-1.81.18,9.36,9.36,0,0,0-1.76.5v-2.19a10.68,10.68,0,0,1,1.93-.56,11.77,11.77,0,0,1,2.18-.22,5.71,5.71,0,0,1,4.07,1.22,5.22,5.22,0,0,1,1.26,3.88v9.2h-2.83Z"/><path class="cls-2" d="M628.08,676.65a8.24,8.24,0,0,1-2.09-.52v-2.37a10.74,10.74,0,0,0,2.1.6,12.11,12.11,0,0,0,2.16.21,7.57,7.57,0,0,0,2.71-.34,1.31,1.31,0,0,0,.8-1.35,1.5,1.5,0,0,0-.31-1,2.16,2.16,0,0,0-.86-.61,17.83,17.83,0,0,0-1.69-.6l-1-.34a10.22,10.22,0,0,1-3.19-1.6,3,3,0,0,1-1.05-2.45,3.45,3.45,0,0,1,1.43-2.95,7,7,0,0,1,4.21-1.06,15.3,15.3,0,0,1,2.32.18,13.55,13.55,0,0,1,2,.45v2.34a10.05,10.05,0,0,0-1.88-.5,12,12,0,0,0-2-.18,6.93,6.93,0,0,0-2.49.35,1.39,1.39,0,0,0-.49,2.2,2.83,2.83,0,0,0,.95.61c.4.16,1,.39,1.85.66l.75.24a9.23,9.23,0,0,1,3.22,1.65,3.35,3.35,0,0,1,1,2.61,3.3,3.3,0,0,1-1.51,3,7.72,7.72,0,0,1-4.21,1A19.39,19.39,0,0,1,628.08,676.65Z"/><path class="cls-2" d="M321.67,706.28a7.82,7.82,0,0,1-1.56-5.32,10.49,10.49,0,0,1,1.21-5.55,3.82,3.82,0,0,1,3.42-1.94,3.48,3.48,0,0,1,1.65.34,3.75,3.75,0,0,1,1.16,1,4,4,0,0,1,1.43-1,4.5,4.5,0,0,1,1.79-.38,3.15,3.15,0,0,1,2.5,1,4.13,4.13,0,0,1,.85,2.78v10.53h-2.83V697.66a2.75,2.75,0,0,0-.29-1.47,1.2,1.2,0,0,0-1.09-.43,1.64,1.64,0,0,0-1,.3,1.75,1.75,0,0,0-.64.9h-1.56a2.86,2.86,0,0,0-.68-.93,1.43,1.43,0,0,0-.93-.27,1.8,1.8,0,0,0-1.78,1.33,11.27,11.27,0,0,0-.51,3.87,6.06,6.06,0,0,0,.87,3.69,3.13,3.13,0,0,0,2.64,1.12,5.68,5.68,0,0,0,1.79-.21v2.16a6.93,6.93,0,0,1-2.28.31A5.31,5.31,0,0,1,321.67,706.28Z"/><path class="cls-2" d="M342.18,698.93a5.57,5.57,0,0,0-.23-1.81,1.78,1.78,0,0,0-.9-1,4.22,4.22,0,0,0-1.91-.35,10.07,10.07,0,0,0-1.81.18,9.25,9.25,0,0,0-1.75.5v-2.19a10.8,10.8,0,0,1,1.92-.56,12,12,0,0,1,2.19-.22,5.72,5.72,0,0,1,4.07,1.22,5.22,5.22,0,0,1,1.26,3.88v9.2h-2.84Z"/><path class="cls-2" d="M352.7,707.58a7.52,7.52,0,0,1-2.2-1.34l-.15,1.53h-2.58v-14h2.84v10.35a5.62,5.62,0,0,0,1.74,1.22,5.08,5.08,0,0,0,2.13.47,2.54,2.54,0,0,0,2.91-3v-9.08h2.81v9.21a5.25,5.25,0,0,1-1.26,3.75,4.6,4.6,0,0,1-3.52,1.34A7.64,7.64,0,0,1,352.7,707.58Z"/><path class="cls-2" d="M364.25,706.67a4.89,4.89,0,0,1-1.55-3.89V701.4a3.43,3.43,0,0,1,.36-1.55,12.07,12.07,0,0,1,1.07-1.65,9.87,9.87,0,0,0,.67-1,1.37,1.37,0,0,0,.21-.69.64.64,0,0,0-.18-.53,1.05,1.05,0,0,0-.65-.15h-1.79l.23-2.13h3.28c1.31,0,2,.63,2,1.9a3.27,3.27,0,0,1-.3,1.43,16.12,16.12,0,0,1-.89,1.56,10.06,10.06,0,0,0-.88,1.46,3.17,3.17,0,0,0-.29,1.35V703a2.5,2.5,0,0,0,.83,2.08,3.7,3.7,0,0,0,2.39.68q3.19,0,3.2-2.83v-9.21h2.83v9a4.87,4.87,0,0,1-1.6,3.89,7.9,7.9,0,0,1-8.91,0Z"/><path class="cls-2" d="M368.57,687.8h2.34v1.82h6.74l-.13,2h-8.95Z"/><path class="cls-2" d="M370.78,684.06h-1.61v-1.82h3.46v2h4l-.1,1.82h-5.75Z"/><path class="cls-2" d="M378.78,706.69a5.25,5.25,0,0,1-1.26-3.75v-9.21h2.83v9.08a3.13,3.13,0,0,0,.69,2.26,3,3,0,0,0,2.2.7,5.29,5.29,0,0,0,2.16-.47,5.39,5.39,0,0,0,1.74-1.22V693.73H390v14h-2.58l-.13-1.53A7.32,7.32,0,0,1,382.3,708,4.6,4.6,0,0,1,378.78,706.69Z"/><path class="cls-2" d="M392.7,693.73h2.58l.15,1.54a7.45,7.45,0,0,1,5-1.8,4.49,4.49,0,0,1,3.46,1.33,5.21,5.21,0,0,1,1.25,3.72v9.25h-2.81v-9.12a3,3,0,0,0-.71-2.2,3.07,3.07,0,0,0-2.2-.69,5,5,0,0,0-2.13.47,5.62,5.62,0,0,0-1.74,1.22v10.32H392.7Z"/><path class="cls-2" d="M394.39,689.62h8.37v-2.15h2.34v4.13H394.26Z"/><path class="cls-2" d="M402.76,682.6h2.34v3.62h-2.34Z"/><path class="cls-2" d="M408.76,707a4.53,4.53,0,0,1,.07-6.46,6.37,6.37,0,0,1,4.07-1.13h4.29v-.88a2.55,2.55,0,0,0-.79-2.15,4.85,4.85,0,0,0-2.85-.61,14.89,14.89,0,0,0-4.57.68v-2.19a18.12,18.12,0,0,1,2.42-.56,17.22,17.22,0,0,1,2.65-.22,11.36,11.36,0,0,1,2.42.26h4.7l-.15,2.21h-1.64a4.11,4.11,0,0,1,.48,1.24,8.35,8.35,0,0,1,.14,1.6v9h-2.81v-6.19h-4.13a3.91,3.91,0,0,0-2.2.5,1.88,1.88,0,0,0-.71,1.66,1.75,1.75,0,0,0,.65,1.57,3.86,3.86,0,0,0,2.18.46,6.31,6.31,0,0,0,1.77-.21v2.16a9,9,0,0,1-2.52.31A5.43,5.43,0,0,1,408.76,707Z"/><path class="cls-2" d="M425.37,707.75a12.69,12.69,0,0,1-2.53-.76v-7.23h5.56l.13,2.16h-3v3.41a8.35,8.35,0,0,0,2.86.44,5.34,5.34,0,0,0,2.47-.48,2.86,2.86,0,0,0,1.32-1.56,8.31,8.31,0,0,0,.42-2.93,7.87,7.87,0,0,0-.47-3,2.9,2.9,0,0,0-1.52-1.54,7.5,7.5,0,0,0-2.95-.47,15.25,15.25,0,0,0-4.66.68v-2.19a15.32,15.32,0,0,1,2.51-.57,19.52,19.52,0,0,1,2.85-.21q3.62,0,5.29,1.83a7.92,7.92,0,0,1,1.68,5.5,7.7,7.7,0,0,1-1.68,5.42Q432,708,428.43,708A16.05,16.05,0,0,1,425.37,707.75Z"/><path class="cls-2" d="M440.49,707.69l-3.95-9.62h2.75l3.2,7.8a3.55,3.55,0,0,0,3.24-1.27,7.25,7.25,0,0,0,1-4.29,9,9,0,0,0-.32-2.68,2.23,2.23,0,0,0-1-1.36,4.25,4.25,0,0,0-2-.41h-1v-2.13h1.35a5.48,5.48,0,0,1,4.38,1.6,7.41,7.41,0,0,1,1.4,4.95q0,4-1.73,5.85a6,6,0,0,1-4.67,1.9A7.78,7.78,0,0,1,440.49,707.69Z"/></svg>