<svg id="Layer_1" data-name="Layer 1" xmlns="http://www.w3.org/2000/svg" viewBox="0 0 750 5342"><defs><style>.cls-1{fill:#fbd2c0;}.cls-2{fill:#f8b517;}</style></defs><title>mobi10-01_2</title><path class="cls-1" d="M670.28,3372.65c2.21-1.13,4.57-2.41,5.64-4.65.87-1.83.7-4,.52-6q-1.17-12.69-2.33-25.37c-.72-7.89-2.82-51.23-14.59-51.22-9.7,0-8.86,25.64-7.14,31.64,2.9,10.11,9.19,18.56,10.7,29.2.89,6.31,1.37,15.59-1.89,21.28-2.09,3.66-7,5.93-10.44,8.87a2.86,2.86,0,0,0,3.12,4.74C659.4,3378.46,664.83,3375.44,670.28,3372.65Z"/><path class="cls-1" d="M687.88,3369.69a3.91,3.91,0,0,0,4,5c2.68-.19,5.16-.83,6.72-3,2.41-3.36,4.2-7.2,7.17-10.07,1.68-1.62,3.78-3,4.6-5.19a10.7,10.7,0,0,0,.29-4.74c-1.51-17.28-.59-37.39-6.55-53.82-3.5-9.65-9.37-18.74-12.08-4.87-2.24,11.46.63,24.68,2.52,36,1.56,9.33,7,15.82,3.49,24.71C695.52,3360.24,689.61,3363.87,687.88,3369.69Z"/><path class="cls-2" d="M706.39,3148.56l-.16.32a1,1,0,0,0-.11-.29Z"/><path class="cls-1" d="M708.21,3120.81l-.13,1.48v.09c-.19,1.19-.55,2.46-.84,3.59v.09a67.71,67.71,0,0,1-3.61,9.77c-.16.32-.3.64-.46,1-1.18,2.59-2.28,5.42-1.15,8a7.16,7.16,0,0,0,3.66,3.37,1.17,1.17,0,0,1,.49.47,1,1,0,0,1,.11.29l-.92,1.89-1.9,3.89a38.16,38.16,0,0,1-12.49,12l-.9.52c-2.4,1.34-5,2.47-7.51,3.62l-1,.44-.87.4-.74.35c-.74.34-1.48.7-2.2,1.06l-.71.37-1,.55c-.25.13-.49.26-.72.4l-.13.08-.92.56-.68.43-.38.26-.38.27-.12.09c-.22.15-.43.31-.64.48s-.4.3-.6.47-.28.22-.41.34-.38.32-.56.49l-.14.14a3.88,3.88,0,0,0-.42.39c-.19.18-.37.37-.54.55l-.24.26-.37.41a31.35,31.35,0,0,0-5.35,9.83l-7,45.26-2.89,18.68c-.29,1.19-.6,2.37-1,3.55-3.94-7-4.43-15.84-3.38-24,1.21-9.35,4.18-18.43,5.14-27.8,1.19-11.58-.7-23.47,2.06-34.77,2.14-8.75,8.52-18.43,16.64-21.56,2.37-.92,7.48-.89,7.48-.89h0c2.1-.86,5-1.82,5.25-2.92a11.2,11.2,0,0,0,.32-3.51c-.4-2.13-7.58-3.33-8.67-5.21a12.18,12.18,0,0,1-1.19-6.23,73.66,73.66,0,0,1,.83-11,.67.67,0,0,1,0-.2l2-5.92v-.08c1.2-2.83,2.56-6.1,4.81-8.18a15.81,15.81,0,0,1,7-3.49,16,16,0,0,1,5.1-.61,12.75,12.75,0,0,1,10.85,8.78,20.84,20.84,0,0,1,.8,3.73A33.58,33.58,0,0,1,708.21,3120.81Z"/><path class="cls-1" d="M706.08,3149.72a8.85,8.85,0,0,1-.77,1.05l.92-1.89A1.13,1.13,0,0,1,706.08,3149.72Z"/><path class="cls-2" d="M743.08,3251.76c-3.79,10.09-13,17.06-23.41,20.44q.29,33.42.55,66.85c0,3.5-.15,7.48-2.8,9.78-1.71,1.47-4.08,1.88-6.33,2.11a62.18,62.18,0,0,1-24.66-2.48c-5.33-1.65-10.64-4.05-16.21-3.68-8.47.56-15.52,7.42-24,8.13a2.62,2.62,0,0,1-2-.41,2.86,2.86,0,0,1-.61-2.37q1.5-33.37,5.2-66.6l4.66-30.12,2.89-18.68,7-45.26a31.35,31.35,0,0,1,5.35-9.83l.37-.41.24-.26c.17-.18.35-.37.54-.55a3.88,3.88,0,0,1,.42-.39l.14-.14.56-.49c.13-.12.27-.23.41-.34s.39-.32.6-.47.42-.33.64-.48l.12-.09.38-.27.38-.26.68-.43.92-.56.13-.08c.23-.14.47-.27.72-.4l1-.55.71-.37c.72-.36,1.46-.72,2.2-1.06l.74-.35.87-.4,1-.44c2.54-1.15,5.11-2.28,7.51-3.62l.9-.52a38.16,38.16,0,0,0,12.49-12.05l1.9-3.89.92-1.89.16-.32h.26c1.35-.14,2.71-.24,4.06-.29,2.58-.45,5.41-.93,7.65.4a9.44,9.44,0,0,1,3.39,4.35,54.81,54.81,0,0,1,4.45,16.81,510.31,510.31,0,0,1,15.53,49C744.56,3229.65,747,3241.31,743.08,3251.76Z"/></svg>