<svg id="Layer_1" data-name="Layer 1" xmlns="http://www.w3.org/2000/svg" xmlns:xlink="http://www.w3.org/1999/xlink" viewBox="0 0 750 5342"><defs><style>.cls-1,.cls-23,.cls-41,.cls-61{fill:none;}.cls-2{clip-path:url(#clip-path);}.cls-3{fill:#d5e5ca;}.cls-4{fill:#b1bf60;}.cls-5{fill:#df5145;}.cls-6{fill:#467f3a;}.cls-7{fill:#dfdbcf;}.cls-8{fill:#b8bb6e;}.cls-9{fill:#e1dc8a;}.cls-10{fill:#c5d081;}.cls-11{fill:#5a9054;}.cls-12{fill:#618257;}.cls-13{fill:#35674c;}.cls-14{fill:#ebe261;}.cls-15{fill:#d0cf75;}.cls-16{fill:#d5d784;}.cls-17{fill:#9ab870;}.cls-18{fill:#f8f0b1;}.cls-19{fill:#f5d068;}.cls-20{fill:#89be86;}.cls-21{fill:#fcbc03;}.cls-22{fill:#f3d261;}.cls-23,.cls-41{stroke:#000;}.cls-23{stroke-linecap:round;stroke-linejoin:round;stroke-width:0.31px;}.cls-24{fill:#fbcf66;}.cls-25{fill:#e9db82;}.cls-26{fill:#547d41;}.cls-27{fill:#be7c3f;}.cls-28{fill:#f3b744;}.cls-29{fill:#2f4a3d;}.cls-30{fill:#5e867e;}.cls-31{fill:#478971;}.cls-32{fill:#dcd98f;}.cls-33{fill:#6ba67c;}.cls-34{fill:#069548;}.cls-35{fill:#f8bf40;}.cls-36{fill:#ee634e;}.cls-37{fill:#fdda0e;}.cls-38{fill:#ce1a19;}.cls-39{fill:#fbefd7;}.cls-40{fill:#2e4a3c;}.cls-41,.cls-61{stroke-miterlimit:10;}.cls-41{stroke-width:0.47px;}.cls-42{fill:#89bf85;}.cls-43{fill:#26805c;}.cls-44{fill:#518e52;}.cls-45{fill:#6bad7f;}.cls-46{fill:#c4bfa2;}.cls-47{fill:#e8efdf;}.cls-48{fill:#51897e;}.cls-49{fill:#477e3a;}.cls-50{fill:#69a370;}.cls-51{fill:#e75045;}.cls-52{fill:#f7d5c5;}.cls-53{fill:#d75a4c;}.cls-54{fill:#275e85;}.cls-55{fill:#d75b4d;}.cls-56{fill:#76a276;}.cls-57{fill:#f7d949;}.cls-58{fill:#f0b744;}.cls-59{fill:#795b43;}.cls-60{fill:#bf7d44;}.cls-61{stroke:#fff;stroke-width:0.53px;}</style><clipPath id="clip-path"><rect class="cls-1" x="367.45" y="1186.01" width="382.22" height="461.56"/></clipPath></defs><title>mobi12</title><g class="cls-2"><path class="cls-3" d="M750.32,1514.87c-22.69,7.34-45.65,14.73-69.43,16.4s-48.86-3-67.72-17.54c-24.65-19.09-34.52-51.13-51.49-77.29a157.59,157.59,0,0,0-69.8-58.75c-17.17-7.33-35.5-11.54-52.92-18.25S404.48,1343,394,1327.52s-12.7-37.59-1.33-52.39c8.53-11.1,23-16.25,36.92-17.23s27.89,1.61,41.8,3.12a272.31,272.31,0,0,0,144.39-24.13c21.46-10.08,41.57-23,63.42-32.18s47.09-10.34,70.8-10.34Z"/><path class="cls-4" d="M614.31,1275.35a4.44,4.44,0,0,0-3.63-5.63c-.71-.1-1.61-.13-1.91-.78l3.25-.08a.13.13,0,0,0,.1-.1,2,2,0,0,0-1.39-1.88c-.8-.34-1.7-.39-2.51-.69-1.77-.65-3.14-4.43-2.8-4.43s1.82,2.9,3.35,3.58a.1.1,0,0,0,.13-.14,19.48,19.48,0,0,1-1.52-3.07c0-.46,2.29,2.31,2.29,2.31a.11.11,0,0,0,.17,0,3.18,3.18,0,0,0-1.64-3.8,12.23,12.23,0,0,0-1.7-.48,2.45,2.45,0,0,1-1.46-.93,1.16,1.16,0,0,1,.23-1.57,2.64,2.64,0,0,0,2.49,1.35,6.53,6.53,0,0,1-2.79-6l2.9,5a.1.1,0,0,0,.19,0c.12-1.09-.23-3.32.25-3.32s.64,1.55,1,2.33c0-1.46-.48-4.39,0-4.39s1,4.31,1.49,6.46c.34,1.5.69,3,1,4.48a.87.87,0,0,0,.41.68c.38.17.33-.21.34-.83a8.55,8.55,0,0,0,0-1.24.78.78,0,0,1,.71-.85,2.38,2.38,0,0,1-.32,2.4,4.71,4.71,0,0,0-1,2.3c0,1.24,1.14,2.11,2,3a7,7,0,0,1,1.62,5.68,1.78,1.78,0,0,1-.74,1.32c-.46.25-1.19-.1-1.09-.61.27,0,.33,0,.59,0"/><path class="cls-4" d="M615.92,1264.64a6.77,6.77,0,0,0,.72-2.08,4.46,4.46,0,0,0-.8-2.57,11.79,11.79,0,0,1-1.3-2.39,2.55,2.55,0,0,1,.4-2.57l1.26,2.43c.18.34.43.73.82.74s.63-.35.82-.66l3.52-5.62a1.36,1.36,0,0,1,.42-.5.53.53,0,0,1,.61,0c.23.17.21.51.16.79a15.28,15.28,0,0,1-2.73,6.29,6.66,6.66,0,0,0-1.57,2.82l2.29-2.09c.2-.18.55-.34.68-.11s-.08.4-.25.54a13,13,0,0,0-4.67,9.07c-.09,1.32,0,2.66-.07,4-.08,1-.32,3-1.3,3.62-.2-.29,0-1,0-1.32,0-.85-.12-1.69-.14-2.54a21.61,21.61,0,0,1,.33-5.08,12.41,12.41,0,0,1,.84-2.72"/><path class="cls-4" d="M615.13,1276.23a3.46,3.46,0,0,1,2.57-3.45c.58-.14,1.19-.13,1.77-.25a1.88,1.88,0,0,0,1.42-1c.14-.35.12-.74.26-1.09s.57-.65.88-.43.21.63,0,.9-.53.42-.75.67a.69.69,0,0,0-.12.9.57.57,0,0,0,.68.06,1.11,1.11,0,0,0,.44-.56,4.79,4.79,0,0,1,.51-1.15c.27-.33.85-.45,1.09-.1a.82.82,0,0,1-.13.88,2.28,2.28,0,0,0-.45.82,1,1,0,0,0,.46.94,2.89,2.89,0,0,0,1,.41,5,5,0,0,0,2,.25,1.7,1.7,0,0,0,1.46-1.17,8.09,8.09,0,0,1,.12-.86c.1-.28.41-.52.67-.38s.06.94.38,1.28.77,0,1.09-.21a21.26,21.26,0,0,0,4.2-4.82,2.41,2.41,0,0,1,.72-.83.75.75,0,0,1,1,.15.8.8,0,0,1-.21,1c-.25.25-.58.4-.85.63a.94.94,0,0,0-.42.9c.12.5.77.63,1.28.61s1.13,0,1.42.39a.94.94,0,0,1-.55,1.3,2.23,2.23,0,0,1-1.58-.13,5.11,5.11,0,0,0-1.55-.46,2,2,0,0,0-1.64.77,2.14,2.14,0,0,0-.39,1.78,3.49,3.49,0,0,0,2.23,2.2c.53.21,1.19.54,1.13,1.1a.8.8,0,0,1-.8.65,1.69,1.69,0,0,1-1-.43c-.67-.52-1.15-1.26-1.83-1.78a1.91,1.91,0,0,0-2.35-.18l1.07.89c.38.32.81.78.62,1.24a.84.84,0,0,1-1.18.28,3,3,0,0,1-.89-1,1.85,1.85,0,0,0-1-.87c-.44-.1-1,.27-.9.72s.54.64.45,1a.52.52,0,0,1-.67.3,1.55,1.55,0,0,1-.63-.51l-2-2.3c-.23-.27-.54-.57-.9-.5s-.53.76-.28,1.14a4,4,0,0,0,1.09.85,1.45,1.45,0,0,1,.58.69.73.73,0,0,1-.2.83.77.77,0,0,1-.86,0,2.33,2.33,0,0,1-.61-.68,14.59,14.59,0,0,0-1.44-2,3.63,3.63,0,0,0-2.1-1.24,2.09,2.09,0,0,0-2.14.93c-.16.28-.24.6-.38.89a1,1,0,0,1-.69.62.69.69,0,0,1-.72-.37.74.74,0,0,1,.11-.8Z"/><path class="cls-5" d="M615.87,1275.66c-.84-.22-6.22-1.53-7.93,1.89-1.86,3.71-1.86,13.59-2.47,16.07s-3.1,21.63-1.24,27.81c0,0,6.8-15.45,8-19.78s4.33-17.92,5-18.54.74-2.49.77-3.4c0-1.33-.13-3.21-1.52-3.86-.33-.15-1.39-.3-1,.42Z"/><path class="cls-6" d="M548.64,1273.27s.85-1.82,3-.65,1.37,4,5.11,5.35,1.21,4.67,3.87,4.15,4.2,0,5.28,5.38,3.31,5.3,1.83,10-6.16,5.6-6.12,7.57-2.17,7.36-3.86,7.67-4.17,2.09-5.37,3.21-6.37,1.1-6.72,2.31-1.17-1-2.78-3-4.43,1.46-6-1.47-3.15-1.62-3.88-4.81-3.66-2.27-3.34-5.14-1.2-3.56-3.14-5.28-1.44-2.53-1-5,1.21-5.32-.09-7.11-3.38-2.9,0-4.68,1.93-3,2-4.89.56-2.87,2.05-2.92-1.7-3.71.66-3.37,3.26,1.39,5,0,1.55.28,3.67,1.11,1.62-.65,3.53,1.47,6.36.07,6.36.07"/><path class="cls-7" d="M556.68,1276.19a4.25,4.25,0,0,0,1.31.86l1.41.73a15.82,15.82,0,0,0,2.86,1.21,11.89,11.89,0,0,0,3.06.42c1,0,2.12.09,3.18.2-1.06.15-2.12.24-3.18.3a12.51,12.51,0,0,1-1.62,0,8.11,8.11,0,0,1-1.62-.3,11.91,11.91,0,0,1-2.93-1.38c-.45-.28-.89-.59-1.32-.9a3.52,3.52,0,0,1-1.15-1.12"/><path class="cls-7" d="M554.89,1279.4a2.66,2.66,0,0,0,1.21,1.37,6.36,6.36,0,0,0,1.74.68c1.21.32,2.46.54,3.7.78a27.06,27.06,0,0,1,3.72,1,12.24,12.24,0,0,1,3.42,1.82,18.48,18.48,0,0,1,2.74,2.71c.82,1,1.58,2,2.34,3,1.52,2,3,4.07,4.48,6.14q-2.49-2.88-4.87-5.84c-.8-1-1.57-2-2.4-2.93a18.21,18.21,0,0,0-2.67-2.6,11.59,11.59,0,0,0-3.24-1.76,31.28,31.28,0,0,0-3.62-1c-1.23-.28-2.48-.57-3.69-1a6.66,6.66,0,0,1-1.74-.84,3.37,3.37,0,0,1-.71-.65,2.35,2.35,0,0,1-.41-.86"/><path class="cls-7" d="M553.48,1283.37a37.21,37.21,0,0,0,3.2,1.93,24.41,24.41,0,0,0,3.41,1.45,16.12,16.12,0,0,1,3.48,1.5,13.09,13.09,0,0,1,2.86,2.54,27.36,27.36,0,0,1,2.18,3.09l1.93,3.21a26.66,26.66,0,0,0,2.15,3c.8,1,1.7,1.81,2.59,2.69a27.63,27.63,0,0,1-2.81-2.49,20.3,20.3,0,0,1-2.34-3,67.11,67.11,0,0,0-4.19-6.15,12.24,12.24,0,0,0-2.69-2.44,16.89,16.89,0,0,0-3.33-1.55,20.42,20.42,0,0,1-3.39-1.65,26.45,26.45,0,0,1-3-2.19"/><path class="cls-7" d="M554.86,1279.16a4.4,4.4,0,0,0-4-2,18.41,18.41,0,0,0-2.32.43,7,7,0,0,1-2.47.13,10.39,10.39,0,0,1-2.37-.66c-.75-.3-1.49-.63-2.2-1a42.87,42.87,0,0,1-4.15-2.43c1.46.65,2.9,1.35,4.35,2,.73.31,1.47.62,2.21.88a10.46,10.46,0,0,0,2.24.6,6.74,6.74,0,0,0,2.28-.09,15.54,15.54,0,0,1,2.41-.34,4.34,4.34,0,0,1,2.39.65,4.21,4.21,0,0,1,1.6,1.8"/><path class="cls-7" d="M553,1283a12.4,12.4,0,0,0-2.27-1.44,3.32,3.32,0,0,0-2.48-.25,9.29,9.29,0,0,0-2.19,1.42l-2.18,1.62c-.73.53-1.44,1.08-2.23,1.57a7.85,7.85,0,0,1-2.61,1c-.9.19-1.81.27-2.71.37s-1.8.18-2.7.24c.88-.2,1.77-.38,2.66-.55s1.78-.32,2.64-.54a8.7,8.7,0,0,0,1.25-.41,6.68,6.68,0,0,0,1.15-.61c.74-.48,1.45-1,2.18-1.58l2.2-1.59c.37-.26.73-.52,1.12-.78a4.37,4.37,0,0,1,1.28-.63,3.23,3.23,0,0,1,1.45-.06,4.5,4.5,0,0,1,1.31.5A10.5,10.5,0,0,1,553,1283"/><path class="cls-7" d="M533.52,1293a6.73,6.73,0,0,0,2.45-.11c.81-.16,1.62-.36,2.43-.52,1.62-.34,3.25-.65,4.89-.95l2.44-.42c.82-.14,1.62-.31,2.42-.5a18.74,18.74,0,0,0,2.32-.8c.76-.31,1.51-.66,2.26-1a19.22,19.22,0,0,1-2.13,1.3,14.45,14.45,0,0,1-2.32,1,42.16,42.16,0,0,1-4.88,1.07c-1.64.29-3.27.57-4.91.81-.83.13-1.64.25-2.48.34a5.81,5.81,0,0,1-2.49-.19"/><path class="cls-7" d="M552.79,1288.52a.93.93,0,0,1,.44,0,1.21,1.21,0,0,1,.41.16c.25.14.52.25.78.37l1.6.7,3.17,1.43,1.58.74a5,5,0,0,1,1.51,1,5.29,5.29,0,0,1,.93,1.57c.12.27.24.52.37.78s.24.52.38.77a29.12,29.12,0,0,0,3.82,5.7,32.3,32.3,0,0,0,5.06,4.71,24.29,24.29,0,0,1-5.42-4.38,25.11,25.11,0,0,1-2.21-2.73,27,27,0,0,1-1.81-3c-.14-.26-.27-.53-.39-.79s-.25-.54-.36-.8a5.43,5.43,0,0,0-.81-1.42,4.47,4.47,0,0,0-1.32-.95l-1.55-.78-3.08-1.61-1.54-.82a8.31,8.31,0,0,1-.76-.44,1.48,1.48,0,0,0-.37-.2,1,1,0,0,0-.43,0"/><path class="cls-7" d="M533.42,1300.09c1.62-.77,3.28-1.47,4.94-2.13s3.37-1.26,5.08-1.82c.85-.28,1.71-.55,2.57-.8s1.72-.49,2.55-.79a10.75,10.75,0,0,0,1.21-.52,5,5,0,0,0,1.08-.68c.33-.27.64-.59,1-.88a4,4,0,0,1,1.26-.69l.18-.06.14.14c1.66,1.71,3.61,3.19,5.2,5.08a23.26,23.26,0,0,1,2,3.06c.61,1,1.19,2.1,1.85,3.1a33.37,33.37,0,0,0,7.25,8,35.83,35.83,0,0,0,3,2.1,27.28,27.28,0,0,1-3.06-2,28.41,28.41,0,0,1-2.83-2.3,32.5,32.5,0,0,1-4.75-5.52c-.69-1-1.3-2.07-1.92-3.1a22.89,22.89,0,0,0-2-3c-1.54-1.82-3.47-3.29-5.17-5.06l.31.08a3.36,3.36,0,0,0-1.08.59c-.33.26-.65.58-1,.87a6.21,6.21,0,0,1-1.2.73,12.55,12.55,0,0,1-1.27.52c-.86.3-1.74.53-2.6.76s-1.73.47-2.59.72c-1.71.5-3.41,1.07-5.1,1.65s-3.37,1.23-5,1.89"/><path class="cls-7" d="M537.44,1303.35a5.45,5.45,0,0,0,2.09-.32,12.05,12.05,0,0,0,1.93-.9c.62-.35,1.24-.71,1.9-1a11,11,0,0,1,2.07-.77c1.42-.35,2.79-.68,4.17-1.09s2.74-.86,4.1-1.34a25.22,25.22,0,0,1-4,1.81c-.68.25-1.37.47-2.06.67s-1.41.37-2.09.56a10.68,10.68,0,0,0-2,.7c-.64.29-1.27.63-1.93.94a10.17,10.17,0,0,1-2.06.75,4.6,4.6,0,0,1-2.18,0"/><path class="cls-7" d="M553.83,1298a6.65,6.65,0,0,1,1.8,1.86,21.1,21.1,0,0,1,1,2.36,33,33,0,0,0,2.4,4.46c.44.73.91,1.44,1.38,2.15s.95,1.41,1.43,2.11l1.45,2.11c.25.35.48.71.74,1a3.15,3.15,0,0,0,.93.85,2.88,2.88,0,0,1-1.06-.73c-.31-.31-.57-.65-.85-1-.55-.66-1.09-1.33-1.61-2-1-1.36-2-2.76-3-4.21a25.56,25.56,0,0,1-2.31-4.62c-.32-.81-.49-1.65-.85-2.4a8.07,8.07,0,0,0-1.53-2"/><path class="cls-7" d="M556.78,1309.76c.47.85.89,1.72,1.29,2.6s.76,1.76,1.18,2.61a18.77,18.77,0,0,0,1.45,2.43c.55.78,1.14,1.54,1.69,2.34a18.22,18.22,0,0,1-2.08-2,14.42,14.42,0,0,1-.89-1.17,13.58,13.58,0,0,1-.73-1.28,23.81,23.81,0,0,1-1.07-2.71,28.79,28.79,0,0,1-.84-2.78"/><path class="cls-7" d="M556.53,1309.79a7.75,7.75,0,0,0-3.69-1.28,11.66,11.66,0,0,0-2,0,16.28,16.28,0,0,0-2,.26c-.65.11-1.31.25-2,.39s-1.31.28-2,.38a12.75,12.75,0,0,1-4,.14,20.74,20.74,0,0,0,3.94-.62c1.3-.31,2.59-.67,3.93-.91a12.14,12.14,0,0,1,4.08-.12,6.45,6.45,0,0,1,3.63,1.76"/><path class="cls-1" d="M544.92,1270.89c-1.69,1.34-2.6.31-4.95,0s.83,3.31-.66,3.36-2,1.08-2,2.92,1.38,3.12-2,4.9-1.31,2.89,0,4.68.49,4.65.09,7.11-.91,3.29,1,5,3.46,2.4,3.14,5.28,2.61,1.94,3.34,5.13,2.28,1.89,3.88,4.82c.86,1.57,2.08,1.29,3.27,1,1-.24,2-.48,2.76.45,1.6,2,2.43,4.23,2.78,3s5.5-1.19,6.71-2.31,3.69-2.9,5.38-3.21,3.9-5.71,3.86-7.68,4.64-2.87,6.12-7.56-.76-4.61-1.84-10-2.62-5.9-5.27-5.38-.14-2.81-3.88-4.14-2.93-4.19-5.11-5.35-3,.64-3,.64-4.44,2-6.35-.07c-1.16-1.29-1.44-1.24-2-1.2a3.11,3.11,0,0,1-1.59-.26c-1.53-.6-1.88-1.63-2.6-1.63a1.86,1.86,0,0,0-1.07.52"/><path class="cls-7" d="M549.39,1270.76s-2-1-2.27-.62a22.49,22.49,0,0,1-2.18,8.24c-2.29,4.71-4.31,7.38,0,22.86s.49,16.06.49,16.06,2.38.24,2.09-6.37-3.76-15.16-3.93-21.22,2.93-11.83,3.89-13.51a32,32,0,0,0,1.95-5.44"/><path class="cls-8" d="M601.17,1291.09a70.08,70.08,0,0,0-6.67-5.6,3,3,0,0,0-1.91-1.44,8.06,8.06,0,0,0-3,0c-3.93.42-8.14,1.08-11.23,3.36a6.89,6.89,0,0,1-1.63-.12c.37-2.26,3-6.09,4.84-7a6.15,6.15,0,0,1,2.12-.46l7.1-.65h0l3-.28a6.35,6.35,0,0,1,3.67.38c1.67.9,2.18,3,2.22,5a29.73,29.73,0,0,0,1.44,6.88"/><path class="cls-9" d="M587.19,1303.27a4.12,4.12,0,0,1-1.34-.33.83.83,0,0,1-.26-.19l-.11-.13a6.41,6.41,0,0,1-.58-1.83c-.31-1.53-.63-3-.93-4.57a5.22,5.22,0,0,0-.42-1.34c-.44-.82-1.33-1.33-1.77-2.15a6,6,0,0,0-.57-1.1,1.06,1.06,0,0,0-.15-.15,1.26,1.26,0,0,0-.28-.19,2.22,2.22,0,0,0-1.24-.19h0c-.07-.15-.33-.17-.54-.11a3.88,3.88,0,0,1,2.87-1.42,8.66,8.66,0,0,1,3.72.83,9.7,9.7,0,0,1,2.84,1.65,4.81,4.81,0,0,1,.65.7,5.71,5.71,0,0,1,0,6.37c-.83,1.31-2.18,2.53-2,4.07l.11.08"/><path class="cls-9" d="M585.57,1302.74l-.12-.14a6.47,6.47,0,0,1-.58-1.84c-.31-1.52-.63-3-.93-4.57a5,5,0,0,0-.42-1.33c-.44-.82-1.33-1.33-1.77-2.15a5.72,5.72,0,0,0-.57-1.1.89.89,0,0,0-.13-.14l.15.15a5.72,5.72,0,0,1,.57,1.1c.44.82,1.33,1.33,1.77,2.15a4.74,4.74,0,0,1,.41,1.34c.31,1.52.62,3,.94,4.56a5.82,5.82,0,0,0,.58,1.84.64.64,0,0,0,.1.13"/><path class="cls-10" d="M587.74,1311c-1.07,1.11-2.91,1-4.33.38a43.41,43.41,0,0,0-4.16-2.06c-1.52-.45-3.18-.29-4.67-.83-2-.73-3.31-2.53-4.23-4.56a29.3,29.3,0,0,1-1.1-2.85c-.8-2.39-1.48-5.37.32-7.13,1.29-1.28,4.31-1.59,6-2.68a7.11,7.11,0,0,0,.11,2.41,6,6,0,0,0-1.21,5.17,6.85,6.85,0,0,0,1,2,9.85,9.85,0,0,0,4.88,3.88,12.48,12.48,0,0,0,7.54-.82,11.37,11.37,0,0,0,2.3,1.37,3.82,3.82,0,0,0-1.27,2.24c-.26,1.23-.32,2.62-1.2,3.52"/><path class="cls-11" d="M570.35,1303.88l-.72-.09a9,9,0,0,1-3.61-1.2,5.84,5.84,0,0,1-2.18-2.63h0a6.09,6.09,0,0,1-.08-4.72c.54-1.25,1.51-2.35,1.65-3.7.07-.71-.09-1.42-.07-2.13,0-2,1.51-3.73,2.89-5.23a3.23,3.23,0,0,1,1-.84,1.74,1.74,0,0,1,1-.16,3.6,3.6,0,0,1,2,1,14,14,0,0,0,2.37,2.31,6.67,6.67,0,0,0,2.16.72,6.89,6.89,0,0,0,1.63.12,10.79,10.79,0,0,0-1.69,1.56,4.4,4.4,0,0,0-1.1,2.29c-1.71,1.09-4.73,1.4-6,2.68-1.8,1.76-1.12,4.74-.32,7.13a29.3,29.3,0,0,0,1.1,2.85"/><path class="cls-12" d="M591,1315.25h0a5.82,5.82,0,0,1-3.49,2.16,11.69,11.69,0,0,1-3.73-.11l-6-.84c-2.64-.37-5.77-1.12-6.64-3.64a4.78,4.78,0,0,1-.22-1.59c0-1,.25-2,.35-3a5.94,5.94,0,0,0-1.6-4.4l.72.09c.92,2,2.2,3.83,4.23,4.56,1.49.54,3.15.38,4.67.83a43.41,43.41,0,0,1,4.16,2.06c1.42.6,3.26.73,4.33-.38.88-.9.94-2.29,1.2-3.52a3.82,3.82,0,0,1,1.27-2.24,2.66,2.66,0,0,0,1.69.22,9.15,9.15,0,0,0,1.28-.58l.52-.2c-.39.75-1.06,1.87-1.24,2.22-.76,1.51-.11,3.31-.17,5a5.81,5.81,0,0,1-1.29,3.4"/><path class="cls-13" d="M570.88,1311.22c-.69-.23-1.58-.54-2.11-.7a10.65,10.65,0,0,1-1.37-.5c-1.79-.88-2.8-2.79-3.7-4.58a5.06,5.06,0,0,1-.53-1.42,5,5,0,0,1,.17-1.83c.17-.74.33-1.49.5-2.23a5.84,5.84,0,0,0,2.18,2.63,9,9,0,0,0,3.61,1.2,5.94,5.94,0,0,1,1.6,4.4c-.1,1-.34,2-.35,3"/><path class="cls-14" d="M594.64,1294.44a9.89,9.89,0,0,0-6.22-2.39,9.65,9.65,0,0,0-2.83-1.65,8.7,8.7,0,0,0-3.73-.83A3.88,3.88,0,0,0,579,1291l-.11,0a8.94,8.94,0,0,0-3,2.36l-.18.23a7.11,7.11,0,0,1-.11-2.41,4.4,4.4,0,0,1,1.1-2.29,10.79,10.79,0,0,1,1.69-1.56c3.09-2.28,7.3-2.94,11.23-3.37a8.28,8.28,0,0,1,3,0,3,3,0,0,1,1.91,1.44,2.05,2.05,0,0,1,.18.51c.21,1-.31,1.93-.5,2.91a13.46,13.46,0,0,0,.46,5.53"/><path class="cls-15" d="M596,1303.87a15.26,15.26,0,0,1-2.25.76h0l-.52.2a9.15,9.15,0,0,1-1.28.58,2.66,2.66,0,0,1-1.69-.22,11.37,11.37,0,0,1-2.3-1.37c-.26-.19-.5-.38-.71-.55l-.12-.08c-.16-1.54,1.18-2.76,2-4.07a5.67,5.67,0,0,0,0-6.37,4.32,4.32,0,0,0-.65-.7,9.89,9.89,0,0,1,6.22,2.39,4.79,4.79,0,0,1,1,1.41,6.58,6.58,0,0,0,1.4,2.51,6,6,0,0,1,.72.59,1.88,1.88,0,0,1,.37,1.15,4.11,4.11,0,0,1-2.2,3.77"/><path class="cls-16" d="M591,1315.25a5.81,5.81,0,0,0,1.29-3.4c.06-1.69-.59-3.49.17-5,.18-.35.85-1.47,1.24-2.22h0a15.26,15.26,0,0,0,2.25-.76,4.11,4.11,0,0,0,2.2-3.77,1.88,1.88,0,0,0-.37-1.15,6,6,0,0,0-.72-.59,6.58,6.58,0,0,1-1.4-2.51,4.79,4.79,0,0,0-1-1.41,13.46,13.46,0,0,1-.46-5.53c.19-1,.71-1.94.5-2.91a2.05,2.05,0,0,0-.18-.51,70.08,70.08,0,0,1,6.67,5.6h0l.49.48a5.61,5.61,0,0,1,1.11,1.32c1.14,2-.13,4.45-.34,6.74-.09,1,0,2,0,3.06A13.11,13.11,0,0,1,591,1315.25"/><path class="cls-17" d="M590.81,1279.16l-7.1.65a6.15,6.15,0,0,0-2.12.46c-1.87.89-4.47,4.72-4.84,7a6.67,6.67,0,0,1-2.16-.72,14,14,0,0,1-2.37-2.31,3.6,3.6,0,0,0-2-1c0-.19.07-.36.08-.39.27-1,.71-2.06,1.68-2.23a9.29,9.29,0,0,0,4.39-2.09,7,7,0,0,1,1.78-1.08c2.73-1.25,6-1.86,8.68-.47,1.36.7,2.49,1.89,4,2.24"/><path class="cls-18" d="M578.88,1291h0a1.33,1.33,0,0,1,1.83.08l.34.35.15.15a5.72,5.72,0,0,1,.57,1.1c.44.82,1.33,1.33,1.77,2.15a4.74,4.74,0,0,1,.41,1.34c.31,1.52.62,3,.94,4.56a5.82,5.82,0,0,0,.58,1.84.64.64,0,0,0,.1.13,1.09,1.09,0,0,0,.27.19,4.12,4.12,0,0,0,1.36.34c.21.17.44.36.71.55a12.48,12.48,0,0,1-7.54.82,9.91,9.91,0,0,1-4.88-3.88,7,7,0,0,1-1-2,6,6,0,0,1,1.21-5.17l.18-.24a8.91,8.91,0,0,1,3-2.35Z"/><path class="cls-19" d="M523.83,1308.18s30.62,10.33,33.17,11.3l1.92,0h0l1.41,0a2.92,2.92,0,0,0,0-.51,3.87,3.87,0,0,0-.12-.68,3.81,3.81,0,0,0-.22-.75c-11.22-4.55-42-16.46-57.5-16.89Z"/><path class="cls-20" d="M557,1319.47l-.14,0c-14.89-4.81-59.26-15.94-64.58-16.24,0,0,8.65,3.29,18.35,6.82h.08c2.87,1,5.84,2.09,8.69,3.09,5.43,1.9,10.47,3.57,13.79,4.48a49.69,49.69,0,0,0,7.06,1.26h0a128.65,128.65,0,0,0,16.71.61"/><path class="cls-21" d="M558.92,1319.43l-1.92,0a128.65,128.65,0,0,1-16.71-.61c-2.94.19-8.63.76-14.64,1.42-14.1,1.56-32.37,3.79-33.92,3.69,31.81,7.2,66.42-4.28,67.19-4.54"/><path class="cls-22" d="M477.42,1316.46s11.53.83,35.25,2.75h0l13,1.07c6-.66,11.7-1.23,14.64-1.42h0a49.69,49.69,0,0,1-7.06-1.26c-3.32-.91-8.36-2.58-13.79-4.48-6.78-.47-32.48-1.87-42,3.34"/><path class="cls-23" d="M491.63,1323.94s0,0,.1,0Z"/><path class="cls-24" d="M464.53,1357.35a1,1,0,0,0,0-.17c.22-1.15.46-2.27.73-3.35Z"/><path class="cls-25" d="M512.67,1319.21a72.27,72.27,0,0,0-7.77.8,63.72,63.72,0,0,0-7.64,1.65,50.28,50.28,0,0,0-14.19,6.39A40.68,40.68,0,0,0,472,1338.89a46.4,46.4,0,0,0-6.45,14.17l.55-1.88.28-.94.31-.93c.42-1.23.9-2.45,1.42-3.64a42.76,42.76,0,0,1,3.81-6.84A40.76,40.76,0,0,1,483,1327.92a50.27,50.27,0,0,1,14.25-6.36c1.26-.35,2.53-.66,3.8-.93s2.56-.5,3.85-.7a75.67,75.67,0,0,1,7.79-.72"/><path class="cls-25" d="M510.24,1310c-1.49-.37-3-.65-4.53-.88s-3-.43-4.57-.56a65.85,65.85,0,0,0-9.21-.19,50.9,50.9,0,0,0-9.12,1.23,40.23,40.23,0,0,0-8.68,3,33.64,33.64,0,0,0-7.65,5.06l-.85.78-.43.39-.39.41-.79.84c-.26.29-.54.55-.77.86l-1.43,1.8-1.3,1.9-.16.24-.15.25-.28.5-.58,1c-.39.66-.74,1.34-1.07,2a42.72,42.72,0,0,0-1.74,4.26,52.69,52.69,0,0,0-2.24,8.94,52,52,0,0,1,2.17-9,40.73,40.73,0,0,1,1.73-4.28,20,20,0,0,1,1.07-2.05l.57-1,.29-.5.14-.25.16-.24,1.3-1.92,1.43-1.81c.23-.31.51-.57.77-.86l.79-.84c.13-.14.26-.29.4-.42l.42-.39.85-.79a33.37,33.37,0,0,1,7.67-5.1,40.53,40.53,0,0,1,8.72-3,51.21,51.21,0,0,1,9.14-1.21,64.47,64.47,0,0,1,9.22.23c1.54.14,3.06.34,4.58.59s3,.54,4.52.92"/><path class="cls-24" d="M465.3,1353.83a2.18,2.18,0,0,0,.25-.61Z"/><path class="cls-24" d="M466.87,1348.7c-.87-.67-2,.1-2.9.84a.75.75,0,0,0-.28.39c-.09.38.3.6.61.66a2.71,2.71,0,0,0,1.57,0,1.56,1.56,0,0,0,.94-1.46Z"/><path class="cls-24" d="M471.87,1338.66a.52.52,0,0,1,.11.1,1.77,1.77,0,0,1,.28.27l.1-.15Z"/><path class="cls-24" d="M471.15,1339.75a.9.9,0,0,0,0-.48c.18,0,.35-.12.52-.18Z"/><path class="cls-24" d="M473.38,1335.91a1.7,1.7,0,0,0-.07-.51l.27-.14Z"/><path class="cls-24" d="M476.66,1336.94c.47.34,1.1-.33,1.16-1a10.2,10.2,0,0,0-.56-3.24,4.34,4.34,0,0,0-1,3.35,1.31,1.31,0,0,0,.4.91"/><path class="cls-24" d="M470.5,1347.47a2.61,2.61,0,0,0,.28-2.3,6.56,6.56,0,0,0-1.37-2q-.3,1.44-.54,2.91a2.58,2.58,0,0,0,0,1.14.91.91,0,0,0,1.63.22"/><path class="cls-24" d="M467.78,1351.94a.86.86,0,0,0,1.19-.8,1.88,1.88,0,0,0-.28-.93c-.29-.56-.76-1.22-1.05-1.77a6.33,6.33,0,0,0-.51,1.87,1.78,1.78,0,0,0,.65,1.63"/><path class="cls-24" d="M467.26,1357.14c.61-.17.74-1.27.47-2a1.88,1.88,0,0,0-2.27-1.19c-.07.72.52,1.44.72,2.1s.58,1.17,1.08,1"/><path class="cls-24" d="M474.36,1340.69a.32.32,0,0,0,.27.14.44.44,0,0,0,.23-.22c.84-1.36.5-3.25.11-4.84a.36.36,0,0,0-.4.08,1.62,1.62,0,0,0-.34.71,9.32,9.32,0,0,0-.43,2.15,2.81,2.81,0,0,0,.56,2"/><path class="cls-24" d="M467.82,1344.46a3.26,3.26,0,0,0-3.18,1.41,1.22,1.22,0,0,0-.27.6.73.73,0,0,0,.47.74,1.41,1.41,0,0,0,.81,0,2.9,2.9,0,0,0,1.54-.75c.43-.44.91-1.4.63-2"/><path class="cls-24" d="M472.36,1342.6c.52-.22.73-1.07.66-1.75a3.26,3.26,0,0,0-.76-1.82,4.71,4.71,0,0,0-1.05,2.15c0,.81.53,1.68,1.15,1.42"/><path class="cls-24" d="M470.33,1337.87a1.92,1.92,0,0,0-1.53.22c-.45.36-.65,1.29-.23,1.65a1,1,0,0,0,.91.07c.57-.16,1.15-.33,1.71-.54a2.81,2.81,0,0,0-.26-1.15.9.9,0,0,0-.6-.25"/><path class="cls-24" d="M472.19,1334.35a3.41,3.41,0,0,0-1.88.36,1.09,1.09,0,0,0-.55.35.6.6,0,0,0,0,.69.52.52,0,0,0,.23.1,4.75,4.75,0,0,0,3.35-.45,1.54,1.54,0,0,0-1.12-1.05"/><path class="cls-24" d="M465.3,1353.83c.07-.26.13-.52.2-.77a.76.76,0,0,0-.6-.51,1.49,1.49,0,0,0-1,.44,5.13,5.13,0,0,0-1.35,2,2.27,2.27,0,0,0,2.75-1.12"/><path class="cls-24" d="M464.74,1359.72c.25-.73.56-2,.08-2.51a.54.54,0,0,0-.25,0c-.64,0-1.24.79-1.56,1.57a3.28,3.28,0,0,0-.31,1.33,1.17,1.17,0,0,0,.55,1.07c.64.27,1.23-.64,1.49-1.43"/><path class="cls-24" d="M467.38,1342.54a2.45,2.45,0,0,0,2.61-1.3,2.47,2.47,0,0,0-2.8-.12.93.93,0,0,0-.46.67.78.78,0,0,0,.65.75"/><path class="cls-24" d="M475.54,1333.88a2.37,2.37,0,0,1-2.92-1.25,3.48,3.48,0,0,1,1.86-.08,1.69,1.69,0,0,1,1.11,1.64Z"/><path class="cls-24" d="M453.36,1346.34a4,4,0,0,0,.84-.71,3.28,3.28,0,0,0,.94-1.91,1.61,1.61,0,0,0-.82-1.7,14.26,14.26,0,0,0-1.39,3.73c-.05.25-.07.6.12.67a.37.37,0,0,0,.31-.08"/><path class="cls-24" d="M455.47,1338a4.73,4.73,0,0,1-3.65,1.79,4.26,4.26,0,0,1,2.88-2.42.68.68,0,0,1,.59.08.5.5,0,0,1,.09.65Z"/><path class="cls-24" d="M457.52,1338c.65,0,1-1.09.87-1.88a6.09,6.09,0,0,0-1.1-2,10,10,0,0,0-.63,2.67c0,.58.39,1.17.86,1.17"/><path class="cls-24" d="M464.88,1323.11c.18.27.55.16.8,0a3.11,3.11,0,0,0,.58-3.56,4.38,4.38,0,0,0-1.47,3,1,1,0,0,0,.09.57"/><path class="cls-24" d="M462.19,1326.83a.34.34,0,0,0,.22-.07,2.57,2.57,0,0,0,1-2,2.42,2.42,0,0,0-.79-2,6.07,6.07,0,0,0-.71,3.53c0,.21.08.47.24.49"/><path class="cls-24" d="M458.8,1333.78c.69,0,1.07-1.19.82-2a8.5,8.5,0,0,0-1.26-2,11.7,11.7,0,0,0-.36,2.78c0,.58.34,1.17.8,1.19"/><path class="cls-24" d="M460.06,1329.17c.37.47,1.08-.12,1.15-.79a5.13,5.13,0,0,0-.66-2.4,4.94,4.94,0,0,0-.68,2.32,1.33,1.33,0,0,0,.19.87"/><path class="cls-24" d="M453.12,1335.46a10.76,10.76,0,0,0,2.58-.92,1.62,1.62,0,0,0-1.32-1,1.87,1.87,0,0,0-1.63,1.21c-.08.19-.14.46,0,.6a.37.37,0,0,0,.39.06"/><path class="cls-24" d="M455.64,1331.59c.47-.21,1-.53,1.45-.31a1.66,1.66,0,0,0-1.32-1.58,1.59,1.59,0,0,0-1.14.32,1.24,1.24,0,0,0-.34,1.31c.24.53.88.48,1.35.26"/><path class="cls-24" d="M456.77,1328.39c.23.16.52,0,.78-.05.45-.19,1.23-.63,1.72-.84a1.86,1.86,0,0,1,.1-.2,1,1,0,0,0-.65-1.06,1.65,1.65,0,0,0-1.29.26,1.75,1.75,0,0,0-.8.77,1,1,0,0,0,.14,1.12"/><path class="cls-24" d="M461.53,1320.3a3.81,3.81,0,0,0,2.29-.11,1.16,1.16,0,0,0-.47-1.18,1.83,1.83,0,0,0-1.1-.22,1.38,1.38,0,0,0-.88.25.87.87,0,0,0-.23,1,.73.73,0,0,0,.39.27"/><path class="cls-24" d="M459.33,1324.7c.45,0,1.5-1,1.88-1.32a.62.62,0,0,0-.13-.81.87.87,0,0,0-.74-.08,4.34,4.34,0,0,0-1.13.44,1.24,1.24,0,0,0-.64.69.88.88,0,0,0,.76,1.08"/><path class="cls-21" d="M518.85,1329.66c2.94.92,5.66,2.33,8.52,3.42,3.41,1.31,7.15,3.09,10.83,4.24l2.06.15,4.55.29a53.45,53.45,0,0,1,10.94,1.76c-8-5.84-11.1-5.8-21.7-8-5.9-1.21-10.54-1.27-15.2-1.86"/><path class="cls-19" d="M566.45,1346.39l.6-1a1.16,1.16,0,0,0-.14-1.54c-1-.72-2.51-1.89-2.6-1.94a5.21,5.21,0,0,1-1-.7h0s0,0,0,0c-11.83-10.35-15.69-20.56-28.12-30.58-5.25-4.24-13.13-11.75-20.1-12.47.35,0,.91.9,1.16,1.15l1.37,1.37,2.64,2.64q2.68,2.67,5.38,5.31c3.73,3.64,4,4.64,7.86,8.18q2.58,2.39,5.17,4.72h0c1.49,1.33,3,2.66,4.49,4,3.34,2.92,6.42,6.1,9.55,9.3l.06.06c1.09,1.11,2.18,2.22,3.3,3.29.58.55,1.16,1.08,1.75,1.6l.79.67c2.52,2.09,4.9,4.47,7.82,6"/><path class="cls-20" d="M530.83,1339.64c11.61,3.89,23.33,4.37,35.62,6.75-2.92-1.48-5.3-3.86-7.82-6-1-.35-1.94-.66-2.88-.92a53.45,53.45,0,0,0-10.94-1.76l-4.55-.29-2.06-.15c-10.61-.79-18.85-1.83-28.76-5.91,6.46,5.2,13.46,5.57,21.39,8.23"/><path class="cls-21" d="M516,1319.83c8.83,2.35,13.88,2.53,22.31,6.62,2.86,1.39,5.51,2.84,8,4.35-17.27-13.61-39.71-25.25-58.29-37.18A253.43,253.43,0,0,0,516,1319.83"/><path class="cls-25" d="M460.43,1318.13a33.84,33.84,0,0,1,4-3.35,36.52,36.52,0,0,1,4.49-2.69,43.81,43.81,0,0,1,9.86-3.48,90.79,90.79,0,0,1,10.34-1.65,83.09,83.09,0,0,1,10.45-.68,35.26,35.26,0,0,1,5.23.44,36,36,0,0,1,5.09,1.24,100.56,100.56,0,0,1,9.73,3.88q4.79,2.12,9.46,4.48t9.21,5c-3-1.71-6.13-3.36-9.25-4.92s-6.27-3.05-9.47-4.46a100.09,100.09,0,0,0-9.72-3.84,36.86,36.86,0,0,0-5.08-1.23,34.84,34.84,0,0,0-5.2-.42,82.86,82.86,0,0,0-10.43.65,89.84,89.84,0,0,0-10.33,1.62,43.48,43.48,0,0,0-9.85,3.45,35.62,35.62,0,0,0-4.5,2.65,33.89,33.89,0,0,0-4.05,3.32"/><path class="cls-24" d="M470.41,1314.06a.38.38,0,0,0,.28.24c.85.23,2-.77,2-1.78,0-.36-.06-.78.21-1a9.56,9.56,0,0,0-2.34,2.12.65.65,0,0,0-.15.47"/><path class="cls-24" d="M464.34,1318.93a1.42,1.42,0,0,0,.76-.73,5.16,5.16,0,0,0,.73-2.51,8.22,8.22,0,0,0-2.13,2c-.24.6.07,1.37.64,1.22"/><path class="cls-24" d="M460.42,1320.78a3.25,3.25,0,0,0,1.39-1.21,1.33,1.33,0,0,0,0-1.28,3.68,3.68,0,0,0-2.55,1.74,1,1,0,0,0-.16.54c0,.56.79.48,1.29.21"/><path class="cls-24" d="M474.22,1312.79a1.7,1.7,0,0,0,1.46-.72,5,5,0,0,0,.82-1.62c-.63-.1-2.53.38-2.85,1.08a.88.88,0,0,0,.57,1.26"/><path class="cls-24" d="M461.54,1318.05a.55.55,0,0,1,.3.24H462Z"/><path class="cls-22" d="M477.58,1311.76c10.51,6.22,20.68,11.61,32.34,15.83q1,.38,2,.66h0a41.83,41.83,0,0,1,6.82,1.38l.08,0c4.66.59,9.3.65,15.2,1.86,10.6,2.2,13.65,2.16,21.7,8,.94.26,1.9.57,2.88.92l-.79-.67c-.59-.52-1.17-1-1.75-1.6-1.12-1.07-2.21-2.18-3.3-3.29l-.06-.06c-2.06-1.38-4.16-2.72-6.34-4-2.54-1.51-5.19-3-8-4.35-8.43-4.09-13.48-4.27-22.31-6.62-5-1.36-10.2-2.57-15.5-3.79-7.31-1.71-15.29-4.1-22.95-4.28"/><path class="cls-24" d="M471.41,1308a.55.55,0,0,0,.32.22,6.5,6.5,0,0,0,2.64.45c0,.19.35.09.41-.11a.56.56,0,0,0-.14-.53,2.55,2.55,0,0,0-2.2-1.23,1.28,1.28,0,0,0-.83.34.75.75,0,0,0-.2.86"/><path class="cls-24" d="M462.13,1313c.07.35.38.52.68.66.51.25,1.28.58,1.86.84a1.72,1.72,0,0,0,.43-1.37,1.65,1.65,0,0,0-1.18-1.25,1.44,1.44,0,0,0-1.15,0,1.12,1.12,0,0,0-.64,1.08"/><path class="cls-24" d="M465.27,1310.62c.34,1,1.8,1.51,2.74,1.7a1.57,1.57,0,0,0-.37-1.71,3.41,3.41,0,0,0-1.54-.68c-.29-.08-.7-.09-.84.24a.58.58,0,0,0,0,.45"/><path class="cls-24" d="M476,1308a7.55,7.55,0,0,0,2.21,1.18h0l.3-.07a2.9,2.9,0,0,0-1.12-2.59,1,1,0,0,0-1.24,0A1.15,1.15,0,0,0,476,1308"/><path class="cls-24" d="M468.8,1310.43c.6.22,1.56.76,2.15,1a2.71,2.71,0,0,0-.35-2.35,2,2,0,0,0-1.66-.09,1.1,1.1,0,0,0-.77.72c-.06.4.31.62.63.74"/><path class="cls-24" d="M458.6,1316.4a5.88,5.88,0,0,0,3.36-.23,1.3,1.3,0,0,0-.92-1,4,4,0,0,0-2,.18c-.36.09-.85.38-.76.74a.45.45,0,0,0,.32.28"/><path class="cls-24" d="M462,1316.75a1.14,1.14,0,0,0,0-.58l.28-.09Z"/><path class="cls-24" d="M464.17,1314.81a1.18,1.18,0,0,0,.5-.34l.24.11Z"/><path class="cls-25" d="M478.51,1309.06s0,.1,0,.15l-.29-.08Z"/><path class="cls-24" d="M469.13,1313.22a5.51,5.51,0,0,0-1.36,1c-.48.47-.9,1.26-.57,1.72s1.31,0,1.61-.73a10.25,10.25,0,0,0,.38-2.19Z"/><path class="cls-25" d="M511.55,1328c-1.63-.2-3.27-.39-4.9-.57s-3.27-.36-4.91-.5a87.39,87.39,0,0,0-9.84-.36,53.43,53.43,0,0,0-9.78,1.07,42.13,42.13,0,0,0-9.34,3.09l2.25-1,2.3-.87,2.36-.73c.8-.19,1.6-.41,2.4-.59a53.79,53.79,0,0,1,9.8-1.11,87.59,87.59,0,0,1,9.86.41c3.28.3,6.54.73,9.8,1.18"/><path class="cls-24" d="M472.53,1330.66l-.31.61c.21-.06.43-.1.64-.14Z"/><path class="cls-24" d="M477.36,1328.19a1.86,1.86,0,0,0,.1-.25h.23Z"/><path class="cls-24" d="M485.5,1326.41a5.08,5.08,0,0,1-1.93-.61.76.76,0,0,1-.41-.4c-.14-.44.36-1,.81-1a1.29,1.29,0,0,1,1.07.59,1.69,1.69,0,0,1,.32,1.93Z"/><path class="cls-24" d="M487.48,1325.33c.22.88,1.5.51,2.19,1a3,3,0,0,0,0-1.42,1.13,1.13,0,0,0-1.2-.93,1.31,1.31,0,0,0-1,1.38"/><path class="cls-24" d="M475.08,1325.7a2.71,2.71,0,0,0,2.38,2.24,1.6,1.6,0,0,0-.52-1.67,3.67,3.67,0,0,0-1.86-.57"/><path class="cls-24" d="M473,1329.4a1.54,1.54,0,0,0,1.42-.56,5.93,5.93,0,0,0-1.81-1c-.46-.17-1.27,0-1.2.58a.61.61,0,0,0,.3.38,3.13,3.13,0,0,0,1.29.64"/><path class="cls-24" d="M481.19,1327.51a2.76,2.76,0,0,0-.13-2.34,1.14,1.14,0,0,0-1.88.4c-.33.91,1.26,1.69,2,1.94"/><path class="cls-24" d="M489.56,1326.73c0-.14.08-.29.11-.43l.06,0Z"/><path class="cls-24" d="M488.18,1329.26a1.25,1.25,0,0,0,1,0,4.52,4.52,0,0,0,2.36-1.83,8.48,8.48,0,0,0-3.08.51,1.13,1.13,0,0,0-.43.35.68.68,0,0,0,.16,1"/><path class="cls-24" d="M469.37,1333.69a.55.55,0,0,0,.44,0c1.06-.23,1.82-1.33,2.41-2.45a8.36,8.36,0,0,0-2.2,1c-.53.33-1.1,1.18-.65,1.46"/><path class="cls-24" d="M473.46,1332.88a1,1,0,0,0,.76-.17,3,3,0,0,0,1.34-2.17c-.44.24-1.93.61-2.22,1.06s-.3,1.13.12,1.28"/><path class="cls-24" d="M484.26,1330.05c.34.26.88-.07,1.28-.38a3.58,3.58,0,0,0,1-1,1.12,1.12,0,0,0,.08-1.23,8.82,8.82,0,0,0-2.18,1.32c-.33.36-.47,1-.15,1.26"/><path class="cls-24" d="M476.14,1331.42c0,.37.49.39.83.25a3.45,3.45,0,0,0,2-2.5,5.86,5.86,0,0,0-2.65,1.82.78.78,0,0,0-.14.43"/><path class="cls-24" d="M479.52,1330.5c0,.11.16.15.28.15a3.39,3.39,0,0,0,3.16-2.55c-1,.47-2.65,1.08-3.31,2-.08.12-.17.27-.13.39"/><path class="cls-19" d="M540.66,1302.28s22.42,23.29,24.24,25.32l1.72.84h0l1.28.62a2.82,2.82,0,0,0,.19-.48,3.08,3.08,0,0,0,.21-.65,5.27,5.27,0,0,0,.16-.77c-7.87-9.21-29.71-34-43.26-41.49Z"/><path class="cls-20" d="M564.9,1327.6l-.11-.11c-11-11.13-45.24-41.45-49.83-44.17,0,0,6.16,6.91,13.15,14.51l0,0,0,0c2.07,2.24,4.21,4.54,6.29,6.74,3.94,4.19,7.65,8,10.18,10.33a46.4,46.4,0,0,0,5.68,4.37l0,0a130.68,130.68,0,0,0,14.55,8.25"/><path class="cls-21" d="M566.62,1328.44l-1.72-.84a132.3,132.3,0,0,1-14.55-8.25c-2.69-1.19-8-3.3-13.65-5.48-13.23-5.12-30.47-11.56-31.8-12.36,24.91,21,60.92,26.81,61.72,26.93"/><path class="cls-22" d="M495.66,1288.25s9.86,6,30,18.69h0l11,6.92c5.64,2.18,11,4.29,13.65,5.48l0,0a48.38,48.38,0,0,1-5.69-4.37c-2.52-2.34-6.23-6.14-10.17-10.33-5.8-3.54-28-16.62-38.8-16.38"/><path class="cls-23" d="M504.82,1301.44l.09.07Z"/><path class="cls-24" d="M465.38,1318.61a1.71,1.71,0,0,1,.11-.14c.72-.92,1.46-1.8,2.2-2.64Z"/><path class="cls-25" d="M525.68,1306.94a73.22,73.22,0,0,0-7.27-2.88,63.63,63.63,0,0,0-7.54-2,50.09,50.09,0,0,0-15.54-.87,40.82,40.82,0,0,0-14.86,4.5,46.57,46.57,0,0,0-12.25,9.6l1.35-1.41.68-.71.7-.68q1.43-1.35,2.94-2.58a42.86,42.86,0,0,1,6.53-4.31,40.89,40.89,0,0,1,14.89-4.57,50.33,50.33,0,0,1,15.58.93c1.28.26,2.55.57,3.8.92s2.51.74,3.74,1.16a72.4,72.4,0,0,1,7.25,3"/><path class="cls-25" d="M527.77,1297.62c-1.15-1-2.37-2-3.61-2.87s-2.5-1.78-3.8-2.6a67.43,67.43,0,0,0-8.09-4.42,52,52,0,0,0-8.66-3.11,41,41,0,0,0-9.09-1.31,33.81,33.81,0,0,0-9.13,1l-1.11.3-.55.15-.55.19-1.08.38c-.36.14-.73.24-1.08.41-.7.31-1.41.62-2.1.94l-2,1.09-.25.13-.25.16-.48.31-1,.62q-1,.61-1.89,1.32a39.75,39.75,0,0,0-3.51,3,52.8,52.8,0,0,0-6.11,6.9,53.44,53.44,0,0,1,6.05-7,43.42,43.42,0,0,1,3.51-3q.92-.7,1.89-1.32l1-.63.49-.31.24-.16.26-.13,2-1.1c.7-.33,1.4-.63,2.11-1,.34-.17.71-.27,1.07-.41l1.09-.39.55-.19.56-.15,1.11-.3a33.66,33.66,0,0,1,9.16-1,40.68,40.68,0,0,1,9.12,1.35,51.4,51.4,0,0,1,8.68,3.14,64.12,64.12,0,0,1,8.08,4.45q1.94,1.25,3.79,2.63c1.23.92,2.44,1.88,3.58,2.9"/><path class="cls-24" d="M467.69,1315.83a2.18,2.18,0,0,0,.49-.42Z"/><path class="cls-24" d="M471.44,1312c-.46-1-1.83-.84-3-.58a.68.68,0,0,0-.43.21c-.25.3,0,.67.24.87a2.68,2.68,0,0,0,1.38.72,1.55,1.55,0,0,0,1.51-.86Z"/><path class="cls-24" d="M480.5,1305.4a.52.52,0,0,1,.06.13,2.29,2.29,0,0,1,.12.37l.16-.08Z"/><path class="cls-24" d="M479.36,1306a.93.93,0,0,0,.26-.4l.54.07Z"/><path class="cls-24" d="M483.12,1303.65a1.84,1.84,0,0,0,.17-.48h.3Z"/><path class="cls-24" d="M485.55,1306.08c.26.51,1.13.21,1.5-.38a10,10,0,0,0,1-3.12,4.33,4.33,0,0,0-2.43,2.51,1.33,1.33,0,0,0-.06,1"/><path class="cls-24" d="M475.23,1312.59a2.57,2.57,0,0,0,1.3-1.92,6.32,6.32,0,0,0-.3-2.38c-.62.77-1.23,1.54-1.82,2.33a2.7,2.7,0,0,0-.53,1,.92.92,0,0,0,1.35.95"/><path class="cls-24" d="M470.75,1315.3a.87.87,0,0,0,1.43-.17,1.84,1.84,0,0,0,.18-1c0-.63-.11-1.43-.12-2.06a6.2,6.2,0,0,0-1.31,1.44,1.79,1.79,0,0,0-.18,1.74"/><path class="cls-24" d="M467.9,1319.67c.62.13,1.24-.78,1.31-1.51a1.88,1.88,0,0,0-1.47-2.1c-.39.6-.2,1.51-.32,2.19s0,1.31.48,1.42"/><path class="cls-24" d="M481.78,1308.35c0,.1.07.22.17.24a.41.41,0,0,0,.31-.08c1.37-.83,1.94-2.66,2.33-4.25a.36.36,0,0,0-.39-.11,1.42,1.42,0,0,0-.63.47,9.49,9.49,0,0,0-1.38,1.71,2.8,2.8,0,0,0-.41,2"/><path class="cls-24" d="M474.23,1308.68a3.24,3.24,0,0,0-3.46-.22,1.24,1.24,0,0,0-.52.41.73.73,0,0,0,.07.87,1.42,1.42,0,0,0,.74.35,3,3,0,0,0,1.71.05c.58-.2,1.45-.83,1.46-1.46"/><path class="cls-24" d="M479.12,1309.11c.57.06,1.15-.6,1.4-1.24a3.3,3.3,0,0,0,.16-2,4.83,4.83,0,0,0-1.92,1.42c-.42.7-.31,1.74.36,1.79"/><path class="cls-24" d="M479.5,1304a1.92,1.92,0,0,0-1.46-.52c-.56.12-1.17.85-1,1.36.12.31.46.41.77.48.58.13,1.17.24,1.77.32a3.11,3.11,0,0,0,.3-1.15.92.92,0,0,0-.42-.49"/><path class="cls-24" d="M482.78,1301.72a3.46,3.46,0,0,0-1.84-.55,1.12,1.12,0,0,0-.65.06.6.6,0,0,0-.34.6.51.51,0,0,0,.16.2,4.77,4.77,0,0,0,3.18,1.14,1.58,1.58,0,0,0-.51-1.45"/><path class="cls-24" d="M467.69,1315.83c.17-.2.35-.4.53-.59a.76.76,0,0,0-.3-.72,1.42,1.42,0,0,0-1.1-.07,5.1,5.1,0,0,0-2.1,1.11,2.27,2.27,0,0,0,3,.27"/><path class="cls-24" d="M464.47,1320.8c.56-.53,1.45-1.56,1.23-2.19a.6.6,0,0,0-.21-.14c-.57-.29-1.46.13-2.11.67a3.4,3.4,0,0,0-.89,1,1.18,1.18,0,0,0,0,1.21c.44.53,1.38,0,2-.59"/><path class="cls-24" d="M474.73,1306.77a1.48,1.48,0,1,0,.49-1.35.94.94,0,0,0-.72.39.77.77,0,0,0,.23,1"/><path class="cls-24" d="M486,1302.85a2.39,2.39,0,0,1-2-2.47,3.54,3.54,0,0,1,1.69.8,1.68,1.68,0,0,1,.23,2Z"/><path class="cls-24" d="M460.53,1303.68a4.11,4.11,0,0,0,1.08-.24,3.23,3.23,0,0,0,1.71-1.26,1.59,1.59,0,0,0,.06-1.89,14.35,14.35,0,0,0-3,2.67c-.16.2-.33.5-.19.65s.19.08.3.07"/><path class="cls-24" d="M466.25,1297.26a4.71,4.71,0,0,1-4.06-.1,4.27,4.27,0,0,1,3.67-.82.65.65,0,0,1,.48.34.51.51,0,0,1-.21.62Z"/><path class="cls-24" d="M468.06,1298.22c.58.3,1.43-.48,1.64-1.26a6.06,6.06,0,0,0-.08-2.25,10.65,10.65,0,0,0-1.79,2.07c-.23.55-.19,1.22.23,1.44"/><path class="cls-24" d="M481.47,1288.37c0,.33.41.4.73.33a3.09,3.09,0,0,0,2.15-2.89,4.36,4.36,0,0,0-2.7,2,.88.88,0,0,0-.18.54"/><path class="cls-24" d="M477.37,1290.44a.26.26,0,0,0,.23,0,2.52,2.52,0,0,0,1.81-1.25,2.39,2.39,0,0,0,.22-2.14,6.13,6.13,0,0,0-2.25,2.81c-.08.2-.15.45,0,.55"/><path class="cls-24" d="M471.15,1295c.6.35,1.5-.56,1.65-1.38a8.76,8.76,0,0,0-.21-2.35,11.85,11.85,0,0,0-1.59,2.31c-.26.52-.25,1.19.15,1.42"/><path class="cls-24" d="M474.39,1291.53c.12.58,1,.39,1.39-.17a5.11,5.11,0,0,0,.52-2.43,4.89,4.89,0,0,0-1.67,1.74,1.35,1.35,0,0,0-.24.86"/><path class="cls-24" d="M465.34,1293.92a11.09,11.09,0,0,0,2.72.37,1.66,1.66,0,0,0-.74-1.45,1.87,1.87,0,0,0-2,.32c-.16.13-.33.34-.29.53a.38.38,0,0,0,.32.23"/><path class="cls-24" d="M469.36,1291.64c.52,0,1.12,0,1.43.39a1.67,1.67,0,0,0-.45-2,1.51,1.51,0,0,0-1.16-.24,1.22,1.22,0,0,0-.9,1c0,.58.56.83,1.08.85"/><path class="cls-24" d="M471.83,1289.32c.13.25.44.29.72.31.49,0,1.38,0,1.91,0l.19-.12a1.07,1.07,0,0,0-.1-1.25,1.68,1.68,0,0,0-1.26-.36,1.87,1.87,0,0,0-1.07.31c-.32.26-.55.76-.39,1.06"/><path class="cls-24" d="M479.79,1284.34a3.88,3.88,0,0,0,2.08,1A1.17,1.17,0,0,0,482,1284a1.81,1.81,0,0,0-.88-.71,1.29,1.29,0,0,0-.9-.18.86.86,0,0,0-.65.77.67.67,0,0,0,.22.42"/><path class="cls-24" d="M475.81,1287.23c.39.21,1.79-.19,2.28-.31a.62.62,0,0,0,.25-.78.88.88,0,0,0-.62-.41,4.36,4.36,0,0,0-1.21-.13,1.22,1.22,0,0,0-.88.32.87.87,0,0,0,.18,1.31"/><path class="cls-21" d="M526.35,1319.06c2.19,2.17,3.95,4.67,6,7,2.42,2.73,4.93,6,7.66,8.75l1.76,1.08c1.25.76,2.55,1.53,3.9,2.36a53.4,53.4,0,0,1,8.9,6.6c-4.45-8.89-7.18-10.26-15.57-17.1-4.68-3.8-8.77-6-12.63-8.65"/><path class="cls-19" d="M560.88,1355.84l1-.59a1.16,1.16,0,0,0,.59-1.43c-.52-1.08-1.36-2.83-1.42-2.92a4.64,4.64,0,0,1-.53-1.07h0c-5.72-14.64-4.44-25.48-10.86-40.1-2.71-6.18-6.23-16.48-12.09-20.33.29.19.39,1.22.49,1.56.2.62.39,1.23.59,1.84.37,1.19.75,2.38,1.13,3.57.77,2.39,1.54,4.79,2.33,7.18,1.63,5,1.45,6,3.21,10.89q1.19,3.3,2.41,6.57h0q1.06,2.8,2.16,5.59c1.62,4.13,2.88,8.38,4.19,12.65l0,.09c.46,1.48.91,3,1.42,4.44.25.75.53,1.49.81,2.23l.39,1c1.27,3,2.29,6.23,4.2,8.89"/><path class="cls-20" d="M532.38,1333.43c8.51,8.81,18.69,14.63,28.5,22.41-1.91-2.66-2.93-5.87-4.2-8.89-.7-.76-1.41-1.48-2.13-2.14a53.4,53.4,0,0,0-8.9-6.6c-1.35-.83-2.65-1.6-3.9-2.36l-1.76-1.08c-9.06-5.59-15.89-10.31-22.8-18.49,3.33,7.59,9.38,11.14,15.19,17.15"/><path class="cls-21" d="M528.38,1309c6.75,6.16,11.14,8.64,16.74,16.16,1.9,2.55,3.59,5.06,5.14,7.56-9.06-20-23.6-40.69-34.59-59.85A250.87,250.87,0,0,0,528.38,1309"/><path class="cls-25" d="M479.82,1281.9a34.24,34.24,0,0,1,5.11-1.12,37.91,37.91,0,0,1,5.22-.32,43.51,43.51,0,0,1,10.35,1.46,90.41,90.41,0,0,1,9.94,3.3,85.22,85.22,0,0,1,9.59,4.21,35.16,35.16,0,0,1,4.43,2.8,36,36,0,0,1,3.95,3.45,103.12,103.12,0,0,1,6.85,7.92q3.27,4.1,6.33,8.34t5.87,8.67c-1.91-2.92-3.88-5.8-5.94-8.62s-4.16-5.61-6.34-8.32a101.21,101.21,0,0,0-6.87-7.9,33.1,33.1,0,0,0-8.35-6.2,80.79,80.79,0,0,0-9.57-4.22,88.7,88.7,0,0,0-9.91-3.33,43.44,43.44,0,0,0-10.33-1.48,36.46,36.46,0,0,0-5.22.28,34.13,34.13,0,0,0-5.11,1.08"/><path class="cls-24" d="M490.54,1282.89a.38.38,0,0,0,.14.34,1.9,1.9,0,0,0,2.6-.65c.18-.32.3-.73.66-.84a9.58,9.58,0,0,0-3,.8.68.68,0,0,0-.36.35"/><path class="cls-24" d="M482.91,1284.42a1.46,1.46,0,0,0,1-.3,5.14,5.14,0,0,0,1.81-1.9,8.3,8.3,0,0,0-2.82.82c-.49.42-.57,1.25,0,1.38"/><path class="cls-24" d="M478.58,1284.25a3.16,3.16,0,0,0,1.79-.44,1.3,1.3,0,0,0,.62-1.11,3.69,3.69,0,0,0-3.07.36,1.17,1.17,0,0,0-.39.41c-.22.51.48.79,1.05.78"/><path class="cls-24" d="M494.51,1283.52a1.75,1.75,0,0,0,1.63,0,5.16,5.16,0,0,0,1.47-1.06c-.51-.38-2.42-.83-3-.36a.88.88,0,0,0-.08,1.38"/><path class="cls-24" d="M480.83,1282.35a.54.54,0,0,1,.16.35l.1,0Z"/><path class="cls-22" d="M498,1284.15c6.46,10.37,13,19.83,21.41,29,.49.53,1,1,1.47,1.51h0a42.8,42.8,0,0,1,5.42,4.37l.06.06c3.86,2.66,7.95,4.85,12.63,8.65,8.39,6.84,11.12,8.21,15.57,17.1.72.66,1.43,1.38,2.13,2.14l-.39-1c-.28-.74-.56-1.48-.81-2.23-.51-1.47-1-3-1.42-4.44l0-.09c-1.2-2.17-2.44-4.32-3.78-6.49-1.55-2.5-3.24-5-5.14-7.56-5.6-7.52-10-10-16.74-16.16-3.86-3.53-7.88-7-12-10.51-5.71-4.88-11.69-10.67-18.4-14.37"/><path class="cls-24" d="M494.24,1277.94a.57.57,0,0,0,.18.35,6.59,6.59,0,0,0,2.13,1.62c-.06.18.27.24.42.08a.57.57,0,0,0,.12-.53,2.54,2.54,0,0,0-1.39-2.11,1.28,1.28,0,0,0-.89-.07c-.31.09-.6.39-.57.66"/><path class="cls-24" d="M483.7,1278.11a1,1,0,0,0,.29.89c.35.46.88,1.11,1.27,1.61a1.76,1.76,0,0,0,1-1,1.66,1.66,0,0,0-.46-1.66,1.5,1.5,0,0,0-1.05-.5,1.12,1.12,0,0,0-1.06.67"/><path class="cls-24" d="M487.57,1277.47c-.14,1,.9,2.17,1.64,2.77a1.56,1.56,0,0,0,.46-1.69,3.5,3.5,0,0,0-1.05-1.32c-.22-.19-.58-.39-.86-.16a.58.58,0,0,0-.19.4"/><path class="cls-24" d="M498.32,1280.05a7.8,7.8,0,0,0,1.42,2.06h0l.3.07a2.91,2.91,0,0,0,.2-2.81,1,1,0,0,0-1.08-.62,1.16,1.16,0,0,0-.84,1.3"/><path class="cls-24" d="M490.79,1278.93c.42.47,1,1.39,1.46,1.86.49-.45,1-1.76.77-2.24a1.93,1.93,0,0,0-1.43-.85,1.1,1.1,0,0,0-1,.28c-.24.33,0,.69.22,1"/><path class="cls-24" d="M479,1279.53a6,6,0,0,0,3.09,1.34,1.27,1.27,0,0,0-.37-1.28,4,4,0,0,0-1.85-.77c-.36-.09-.94,0-1,.31a.47.47,0,0,0,.15.4"/><path class="cls-24" d="M481.81,1281.38a1.13,1.13,0,0,0,.26-.51l.29,0Z"/><path class="cls-24" d="M484.66,1280.68a1.14,1.14,0,0,0,.6-.07l.16.21Z"/><path class="cls-25" d="M500,1282.18l-.08.13a1.24,1.24,0,0,1-.22-.2Z"/><path class="cls-24" d="M489.8,1281.56a5.46,5.46,0,0,0-1.68.27c-.64.2-1.38.71-1.3,1.26s1.17.58,1.77.1a10,10,0,0,0,1.34-1.77Z"/><path class="cls-25" d="M520.62,1314.23q-2-1.39-4.08-2.77c-1.36-.91-2.73-1.82-4.12-2.7a88.35,88.35,0,0,0-8.58-4.86,53.68,53.68,0,0,0-9.17-3.55,42.51,42.51,0,0,0-9.71-1.57l2.46.14,2.45.29c.81.15,1.63.28,2.43.44s1.61.37,2.4.58a53.19,53.19,0,0,1,9.21,3.53,86.15,86.15,0,0,1,8.56,4.91c2.77,1.78,5.47,3.65,8.15,5.56"/><path class="cls-24" d="M484.78,1298.6c-.18.14-.36.27-.56.4.21,0,.42.11.63.17Z"/><path class="cls-24" d="M490.2,1298.64l.2-.18.21.1Z"/><path class="cls-24" d="M498.24,1300.8a5.22,5.22,0,0,1-1.43-1.42.74.74,0,0,1-.17-.55.94.94,0,0,1,1.19-.54,1.29,1.29,0,0,1,.68,1,1.7,1.7,0,0,1-.61,1.85Z"/><path class="cls-24" d="M500.5,1300.76c-.21.88,1.09,1.15,1.5,1.87a3.15,3.15,0,0,0,.68-1.25,1.14,1.14,0,0,0-.63-1.37,1.31,1.31,0,0,0-1.55.75"/><path class="cls-24" d="M489.32,1295.38a2.71,2.71,0,0,0,1.08,3.08,1.61,1.61,0,0,0,.31-1.73,3.61,3.61,0,0,0-1.39-1.35"/><path class="cls-24" d="M485.74,1297.69a1.56,1.56,0,0,0,1.53.15,6.3,6.3,0,0,0-1.13-1.76c-.33-.35-1.15-.54-1.33,0a.63.63,0,0,0,.09.48,3.33,3.33,0,0,0,.84,1.16"/><path class="cls-24" d="M493.91,1299.8a2.77,2.77,0,0,0,1-2.14,1.14,1.14,0,0,0-1.85-.51c-.72.65.34,2.07.88,2.65"/><path class="cls-24" d="M501.7,1303c.1-.1.21-.22.3-.33a.15.15,0,0,1,0,.07Z"/><path class="cls-24" d="M499.31,1304.57a1.22,1.22,0,0,0,.87.47,4.56,4.56,0,0,0,2.94-.53,8.51,8.51,0,0,0-3-1,1.18,1.18,0,0,0-.55.11.69.69,0,0,0-.29.92"/><path class="cls-24" d="M480.57,1299.83a.6.6,0,0,0,.38.24c1,.28,2.24-.35,3.27-1.07a7.94,7.94,0,0,0-2.4-.16c-.62.05-1.51.54-1.25,1"/><path class="cls-24" d="M484.58,1301a.89.89,0,0,0,.75.21,3,3,0,0,0,2.19-1.31c-.5,0-2-.35-2.46-.08s-.78.86-.48,1.18"/><path class="cls-24" d="M495.47,1303.46c.18.39.81.35,1.31.26a3.66,3.66,0,0,0,1.31-.42,1.11,1.11,0,0,0,.63-1,9.06,9.06,0,0,0-2.53.16c-.47.17-.89.68-.72,1"/><path class="cls-24" d="M487.63,1300.94c-.15.33.25.57.62.61a3.47,3.47,0,0,0,2.89-1.32,5.73,5.73,0,0,0-3.19.39.76.76,0,0,0-.32.32"/><path class="cls-24" d="M491.05,1301.68c0,.11.08.2.18.26a3.37,3.37,0,0,0,4-.81c-1.07,0-2.84-.26-3.86.26-.13.07-.27.16-.3.29"/><path class="cls-26" d="M625.36,1273.16c.67-1.18.79-2.63,1.36-3.87a10.52,10.52,0,0,1,1.6-2.3c1-1.18,2.09-2.43,3.56-2.67,1.68-.27,3.3.89,5,.9,2,0,3.74-1.62,5.21-3.14.28-.29.58-.69.43-1.07a.66.66,0,0,0-1-.19,2.16,2.16,0,0,0-.65,1,2.46,2.46,0,0,1-1,1.26.87.87,0,0,1-1.24-.6c0-.66.7-1,1.11-1.5a1.67,1.67,0,0,0-.07-2.09l-1.63,3.18a2.27,2.27,0,0,1-.74,1,2,2,0,0,1-1,.16l-3.68-.1,4.71-3.39c.29-.21.61-.51.53-.87a.59.59,0,0,0-.76-.36,1.85,1.85,0,0,0-.72.59,8.78,8.78,0,0,0,2-4.47c-.46,0-.8.46-1,.91s-.2,1-.4,1.38-.64.81-1.08.69c.68-1.7,1.35-3.4,2-5.11.17-.43.26-1.09-.17-1.23s-.65.31-.8.68c-.73,1.84-1.11,3.81-1.81,5.66a7.89,7.89,0,0,1-3.5,4.48l1.41-4.92c.13-.47.18-1.15-.27-1.3a.62.62,0,0,0-.69.41,2.24,2.24,0,0,0-.13.9,10.64,10.64,0,0,1-2.27,6.29c-.91,1.13-2,2-3,3.17a10.82,10.82,0,0,0-2.31,7.11"/><path class="cls-26" d="M623.28,1272.66a4.65,4.65,0,0,0-.48-3.54,4.11,4.11,0,0,0-2.83-1.93c-.65-.1-1.47-.12-1.74-.76l3-.08a.1.1,0,0,0,.09-.09,2,2,0,0,0-1.27-1.83c-.73-.32-1.54-.37-2.28-.66-1.61-.63-2.86-4.31-2.55-4.31s1.65,2.82,3.05,3.48a.09.09,0,0,0,.12-.13,19.41,19.41,0,0,1-1.39-3c0-.44,2.09,2.24,2.09,2.24a.09.09,0,0,0,.16,0,3.18,3.18,0,0,0-1.5-3.69,9.24,9.24,0,0,0-1.55-.47,2.26,2.26,0,0,1-1.33-.9,1.18,1.18,0,0,1,.21-1.53,2.35,2.35,0,0,0,2.27,1.31,6.52,6.52,0,0,1-2.55-5.87l2.65,4.89a.09.09,0,0,0,.17,0c.11-1.06-.21-3.23.23-3.23s.59,1.51.88,2.26c0-1.42-.44-4.26,0-4.26s.91,4.18,1.36,6.28c.31,1.45.62,2.89.94,4.34.05.26.14.56.37.66s.31-.2.31-.8a8,8,0,0,0,0-1.2.75.75,0,0,1,.65-.83,2.42,2.42,0,0,1-.29,2.32,4.68,4.68,0,0,0-.92,2.24c0,1.2,1,2,1.79,3a7.12,7.12,0,0,1,1.48,5.51,1.73,1.73,0,0,1-.67,1.28c-.42.25-1.09-.09-1-.59.24,0,.3,0,.54,0"/><path class="cls-26" d="M624.37,1262a5.13,5.13,0,0,0,.48-1.48,3.33,3.33,0,0,0-.53-1.83,8.57,8.57,0,0,1-.88-1.7,2,2,0,0,1,.27-1.84l.85,1.74c.12.24.28.52.54.52s.42-.24.56-.47l2.34-4a1,1,0,0,1,.29-.36.35.35,0,0,1,.41,0c.15.12.13.36.1.56a11.36,11.36,0,0,1-1.82,4.49,4.82,4.82,0,0,0-1.06,2l1.54-1.49c.13-.13.36-.25.45-.08s0,.28-.16.38a9.5,9.5,0,0,0-3.13,6.47c-.06.94,0,1.89,0,2.83-.05.72-.21,2.16-.86,2.58-.14-.2,0-.69,0-.94,0-.6-.08-1.2-.1-1.81a17.53,17.53,0,0,1,.22-3.62,10.26,10.26,0,0,1,.57-1.94"/><path class="cls-26" d="M624,1273.51a3.33,3.33,0,0,1,2.33-3.35c.53-.14,1.09-.12,1.62-.24a1.68,1.68,0,0,0,1.29-1c.13-.34.11-.72.24-1.06s.52-.63.8-.42a.64.64,0,0,1,0,.87c-.19.26-.48.41-.69.65a.73.73,0,0,0-.1.89.51.51,0,0,0,.62,0,1.13,1.13,0,0,0,.4-.55,4.58,4.58,0,0,1,.47-1.11c.24-.32.77-.44,1-.09a.83.83,0,0,1-.11.85,2.06,2.06,0,0,0-.41.79,1,1,0,0,0,.42.92,2.85,2.85,0,0,0,.93.4,4.41,4.41,0,0,0,1.79.24,1.59,1.59,0,0,0,1.33-1.14c.06-.28,0-.57.11-.84s.38-.5.61-.37.06.92.35,1.25.7,0,1-.21a20.37,20.37,0,0,0,3.83-4.67,2.11,2.11,0,0,1,.66-.81.66.66,0,0,1,.91.15.81.81,0,0,1-.2.92c-.23.24-.53.39-.77.6a1,1,0,0,0-.38.89c.11.48.7.6,1.16.58s1,0,1.29.38a.94.94,0,0,1-.49,1.27,1.91,1.91,0,0,1-1.44-.13,4.3,4.3,0,0,0-1.41-.45,1.78,1.78,0,0,0-1.5.75,2.2,2.2,0,0,0-.35,1.73,3.24,3.24,0,0,0,2,2.13c.48.21,1.08.53,1,1.07a.74.74,0,0,1-.73.63,1.44,1.44,0,0,1-.93-.41c-.61-.51-1.05-1.23-1.67-1.73a1.65,1.65,0,0,0-2.14-.17l1,.86c.34.31.73.76.56,1.21a.75.75,0,0,1-1.08.26,2.82,2.82,0,0,1-.81-1,1.72,1.72,0,0,0-.92-.85.68.68,0,0,0-.83.7c.07.36.49.62.42,1a.48.48,0,0,1-.62.29,1.37,1.37,0,0,1-.57-.5l-1.79-2.22c-.22-.27-.5-.57-.83-.49s-.48.73-.25,1.11a3.74,3.74,0,0,0,1,.82,1.35,1.35,0,0,1,.53.67.75.75,0,0,1-.18.81.69.69,0,0,1-.79,0,2.09,2.09,0,0,1-.55-.66,16.43,16.43,0,0,0-1.31-2,3.31,3.31,0,0,0-1.91-1.2,1.89,1.89,0,0,0-2,.9c-.14.28-.21.59-.34.87a1,1,0,0,1-.64.6.64.64,0,0,1-.65-.36.78.78,0,0,1,.1-.78"/><path class="cls-27" d="M626,1273.27c-.74-.26-5.57-1.82-7.32,1.41-1.89,3.49-2.45,13.08-3.15,15.44s-4,20.81-2.68,26.9c0,0,7.05-14.62,8.41-18.75s4.95-17.14,5.54-17.71.82-2.37.89-3.25c.12-1.3.06-3.13-1.16-3.83-.29-.16-1.24-.37-1,.35"/><path class="cls-28" d="M604.9,1305.07s.42,7-9.75,7c-10.72.06-11.88-4.46-11.95-5.67a11.14,11.14,0,0,1,10.64-11.62c6.24-.38,10.69,4.26,11.06,10.29"/><path class="cls-29" d="M593,1285.28s-4.2-17.57-1.17-18.06.81,5.2,3,5.27-3.4-12.59-.77-14.83,1.16,3.32,2.72,3.32-2-13.67,2.83-13.67,4.88,7.42,0,14c0,0,2.15-2,2.93-.78s-.59,7.51-4.4,11.91,2.74-.49,3.23,2.44-8.4,10.44-8.4,10.44"/><path class="cls-30" d="M591.33,1287.94s3.72-5.88,4.68-16.47,4.16-14.2,4.44-19.75a12.68,12.68,0,0,1-.94,6,51.12,51.12,0,0,0-3.08,14.58c-.32,5.27-2,16.15-5.1,15.64"/><path class="cls-31" d="M594,1298.88s1.79-7,1.47-12.09-1-10.13,1.47-7.36c0,0-.9-7.85,1.07-8.75s1.44,1.71,2.15,1.71.63-10.85,5.2-10.49.09,9-2.24,11,2.42-1.52,3.23.36-3.95,7.17-6.1,8,2-.81,2.24.54-.21,2.58-3.73,6.44-4.76,10.64-4.76,10.64"/><path class="cls-32" d="M594.72,1295.57s-1.52-4,2.93-11.78,4.11-9.94,5.6-16.35a52.14,52.14,0,0,0-1.4,5.12,38,38,0,0,1-4.9,11.61c-2.32,3.81-4.63,10.25-2.23,11.4"/><path class="cls-26" d="M594,1298.88s-.83-8-4.78-11.93-2.33-5.46-.58-5.23-3.95-2.09-4.77-5.81,1.4-3.37,2.79-2.67-1.74-4.65-3-8-3.21-10.81,2.15-11.85c2.35-.45,7,.35,4.88,15s-.58,0,2.21.46-.7,10.23,0,10.34,1-2.22,2.44-1.62.67,18.54-1.38,21.34"/><path class="cls-32" d="M594,1298.88s.75-6.92-3-16.85-3-12.37-3.6-20.14c0,0,.57,3.4.71,6.24a45,45,0,0,0,3.63,14.46c2,4.88,5.3,15.38,2.29,16.29"/><path class="cls-33" d="M580.75,1297.12s3.69-5.52,2.94-8.2,1.12-2.53,1.67-4.68,2.57-5.43-1.59-7.54-2.5-4.57-4-4.2.24,2.19-1.34,3.32.2,9.19.69,12.68,2.87,5,1.6,8.62"/><path class="cls-33" d="M574.84,1296.29a24,24,0,0,1,2.16-7.58c1.68-3.06,1.4-10.38-3.4-10.42s-5,.77-6.63-1.59-1.7-3.68-2.6-5.85-3.81-1.68-4.14-3.23-.32-5.35-1.89-5.81-4.43-2.49-5.09-.27-2.18.53-.74,5.53-2.17,3.94.68,7.56,5.33,1.62,6.61,4.52,5.35,3,6.64,6.11,8.78,6.06,8.4,11"/><path class="cls-34" d="M577.85,1295.17s2.83-2.58,2.61-5.72.73-7.82-1.33-9.9-2.87-2-2.25-6.28-1.74-11.94-5.88-11.32-3.33-2.62-4.8-3.43-4.49.35-3.45,4.81-1.15,2.28.54,6.87,10.7,21.92,14.56,25"/><path class="cls-35" d="M576.62,1301.75a4.15,4.15,0,0,0-.6-3.22,15.25,15.25,0,0,1-2.4-8c-.21-4.14-6.14-10.8-9.56-13.29s-6.08-4.18-7.69-6.68-4-7-4.23-6.8,2.7,8.26,8.42,12.23,9.75,9.33,10.71,11.5,1.88,8.41,3.7,11.44l1.82,3"/><path class="cls-35" d="M577.55,1303s1.41-9.79.75-12.79.31-8.48-5.39-15.18-10.07-14.51-10.19-14.42a28.18,28.18,0,0,0,3.76,6.9c2.21,3,8.36,10.7,9.29,13.08s.94,22,.94,22Z"/><path class="cls-35" d="M577.63,1302.33s2.73-5.12,3.12-6.25c2.6-13.32-1.26-17.44-.76-17.83s2.29,4,2,11.45a31.05,31.05,0,0,1-3.28,12.72Z"/><path class="cls-36" d="M577.62,1301.41c-.1,0-6.31-2.2-8.52,3.07s-1,6.81.1,8.62,3.41,2.73,3.56,6-.76,2.62-.76,2.62.22.94,1.47-.67,2.82-3.53,3-4.62,2.39,0,4.58-2.67a8.93,8.93,0,0,0,1.36-7.8c-.46-1.5-1.28-3.45-4.78-4.5"/><path class="cls-37" d="M557.92,1302.42s3.94,0,5.39,2a17.08,17.08,0,0,0,3.79,4c.8.48.8,11.91-13.69,18.11s-15,1.13-10.95-12.07,15.46-12.08,15.46-12.08"/><path class="cls-38" d="M528.52,1307.8a10.73,10.73,0,0,0-3.46,5.93,11.37,11.37,0,0,0,4.1,10.72,14.06,14.06,0,0,0,11.37,2.68c4.12-.76,8.16-3.61,8.94-7.72a12.46,12.46,0,0,0-.5-5.71,14.49,14.49,0,0,0-3.88-7c-4.1-3.72-12.68-2.27-16.57,1.14"/><path class="cls-6" d="M532.19,1311.33c1.14-1.87,2.44-3.87,4.5-4.62a5.08,5.08,0,0,1,6.21,2.74,8.46,8.46,0,0,0-2.92-4,4.69,4.69,0,0,0,1.69-3.64l-3.82,3.18,1.35-4.5-3,4.47,1-4.86q-1.08,2.35-2.18,4.71a9.31,9.31,0,0,0-5.09-4l3.43,3.1-5.69.43a11,11,0,0,0,3.05,1.35c.77.21,1.95.23,2.59.8s.45,1.08.08,1.92a30.25,30.25,0,0,1-1.17,3"/><path class="cls-38" d="M547.78,1305.19a10.73,10.73,0,0,0-1.82,6.62,11.4,11.4,0,0,0,6.72,9.3,14.14,14.14,0,0,0,11.68-.32c3.78-1.8,7-5.6,6.66-9.77a12.6,12.6,0,0,0-2-5.39,14.65,14.65,0,0,0-5.55-5.81c-4.92-2.53-12.84,1.07-15.73,5.37"/><path class="cls-6" d="M552.24,1307.65c.62-2.1,1.36-4.36,3.16-5.62a5.08,5.08,0,0,1,6.7,1,8.42,8.42,0,0,0-3.86-3.16,4.67,4.67,0,0,0,.7-4l-2.87,4c0-1.56.09-3.13.14-4.69l-1.74,5.08c-.1-1.65-.21-3.29-.31-4.94l-.9,5.11a9.35,9.35,0,0,0-6-2.57l4.11,2.12L546,1302a10.78,10.78,0,0,0,3.29.52c.81,0,1.95-.28,2.71.11.91.46.72.93.57,1.83a29.44,29.44,0,0,1-.36,3.18"/><path class="cls-39" d="M623,1288.39c-.55,2.91-1.11,5.81-1.66,8.71-.28,1.41-.86,3.14-2.29,3.3-1.24.15-2.21-1.05-2.76-2.17a21.13,21.13,0,0,1-1.67-5.47c-.19-1-.34-2-.48-2.94-.35-2.33-.68-4.83,0-7a6.56,6.56,0,0,1,.51-1.19l.15-.28a2.12,2.12,0,0,1,1.8-1.29.34.34,0,0,0,.19.14l.6.25h0a3.84,3.84,0,0,0,1.29.29,2,2,0,0,0,.42,0,1.79,1.79,0,0,0,1.16-.63h0l.1-.17a4.49,4.49,0,0,1,2.85,3.27,12.4,12.4,0,0,1-.24,5.24"/><path class="cls-40" d="M623.3,1271.59a32.1,32.1,0,0,1-1.29,4.73,20.92,20.92,0,0,1-1.65,3.56l-.1.17h0a1.79,1.79,0,0,1-1.16.63,8.86,8.86,0,0,1,.93-1.75,7,7,0,0,0,1-2.15,8.79,8.79,0,0,1,.39-1h0c.6-1.42,1.37-2.67,1.88-4.19"/><line class="cls-41" x1="616.98" y1="1271.76" x2="616.98" y2="1271.73"/><path class="cls-41" d="M616.89,1270.1v0"/><line class="cls-41" x1="616.98" y1="1271.76" x2="616.98" y2="1271.73"/><path class="cls-40" d="M618,1280.1a3.87,3.87,0,0,1-.64.33h0l-.6-.25a.34.34,0,0,1-.19-.14.13.13,0,0,1,.08-.19,11.85,11.85,0,0,1-1.37-2.76c-.47-1.31-.83-2.68-1.32-4a22.06,22.06,0,0,0-4.2-6.91,14.34,14.34,0,0,1,4.87,7,15.63,15.63,0,0,0,.67,2.14c.39,1,.23.75,1,1.54a4.62,4.62,0,0,0,1.66,3.25"/><path class="cls-42" d="M619.82,1268.9c-.09-1.19-.18-2.37-.26-3.55,0-.19,0-.39-.06-.58h0a2.69,2.69,0,0,0-.18-.73c-.22-.53-.65-1-.86-1.5s-.18-1-.32-1.49-.55-1-1.06-1a1.44,1.44,0,0,0-1,.75,14.73,14.73,0,0,0-2.4,5.3c0,.07,0,.14,0,.22a1.06,1.06,0,0,0,0,.5c.14.44.79.53,1,1a1.24,1.24,0,0,1,0,.71,1.5,1.5,0,0,0,.34,1.6,1.39,1.39,0,0,1,.39.28c.16.25,0,.56-.09.84a1.56,1.56,0,0,0,.77,1.78,1.46,1.46,0,0,0,.66,2.15c.09-.43.19-.87.26-1.31a11.45,11.45,0,0,0,.12-2.11c.08,1.38.13,2.67.15,3.68a3.43,3.43,0,0,0,0,.56c.35-.68.86-1.51,1.21-2.2a1.42,1.42,0,0,0,.08-.18,4.12,4.12,0,0,0,.49-1.39,6,6,0,0,1,.07-1.2c.16-.57.69-1,.78-1.58a2,2,0,0,0,0-.55m-3,.48c-.18-2.09-.36-4-.54-6.1.05-.79.37,2.94.6,6.76l-.06-.66m.06.72c.05.54.08,1.09.09,1.63,0-.54-.06-1.08-.09-1.63"/><path class="cls-43" d="M623.23,1265.26a18.5,18.5,0,0,0-.61,3.23h0c-.34.7-1.21,1.07-1.59,1.78a2.17,2.17,0,0,0-.25,1.1h0a26.58,26.58,0,0,0-.4,3.07,8.94,8.94,0,0,1-.12,1c-.09.38-.25.74-.37,1.11s-.17.53-.25.8a7,7,0,0,1-1.25-3.61,1.42,1.42,0,0,0,.08-.18,4.12,4.12,0,0,0,.49-1.39,6,6,0,0,1,.07-1.2c.16-.57.69-1,.78-1.58a2,2,0,0,0,0-.55c-.09-1.19-.18-2.37-.26-3.55,0-.19,0-.39-.06-.58h0c.27-.41.81-.9,1-1.19.38-.65-.22-1.71.4-2.12.28-.19.73-.17.84-.48,0-.13,0-.28.06-.41s.48-.25.68-.07a1.24,1.24,0,0,1,.29.74l.42,2.63a4.33,4.33,0,0,1,.06,1.39"/><path class="cls-44" d="M616.6,1275.18a8.62,8.62,0,0,0-.24,1.67c-.81-.79-.65-.5-1-1.54a15.63,15.63,0,0,1-.67-2.14,14.34,14.34,0,0,0-4.87-7,22.06,22.06,0,0,1,4.2,6.91c.49,1.28.85,2.65,1.32,4a2.29,2.29,0,0,1-2-2,.86.86,0,0,0-.09-.42c-.14-.2-.41-.22-.63-.31-.65-.29-.66-1.2-1-1.84-.46-1-1.71-1.42-2.24-2.38s-.27-2.08-.81-3a12.52,12.52,0,0,0-.82-1,1.26,1.26,0,0,1-.27-1.19c.23-.56,1-.66,1.57-.68a2.47,2.47,0,0,1,2,.56,5,5,0,0,0,.34.43c.49.45,1.83.35,2.25.85,0,.07,0,.14,0,.22a1.06,1.06,0,0,0,0,.5c.14.44.79.53,1,1a1.24,1.24,0,0,1,0,.71,1.5,1.5,0,0,0,.34,1.6,1.39,1.39,0,0,1,.39.28c.16.25,0,.56-.09.84a1.56,1.56,0,0,0,.77,1.78,1.46,1.46,0,0,0,.66,2.15"/><path class="cls-41" d="M615.32,1277.1h0"/><path class="cls-45" d="M628.12,1269.38c0,1.07-1.59,1.57-1.66,2.63a4.06,4.06,0,0,1,0,.78c-.17.63-1.07.68-1.52,1.15-.23.25-.32.6-.53.86a2.35,2.35,0,0,1-.67.5c-.57.35-1.14.69-1.72,1a32.1,32.1,0,0,0,1.29-4.73c-.51,1.52-1.28,2.77-1.88,4.19-.77-1.07-.42-2.21-.57-3.52v0a8.09,8.09,0,0,1-.06-.85h0a2.17,2.17,0,0,1,.25-1.1c.38-.71,1.25-1.08,1.59-1.78h0a.49.49,0,0,0,.08-.18,7.27,7.27,0,0,1,.26-1.07c.31-.6,1.11-.69,1.72-1,.39-.17.73-.42,1.12-.58a1.18,1.18,0,0,1,1.19.11c.53.47.2,1.35.41,2s.69,1,.72,1.54"/><path class="cls-40" d="M619,1279.16a.61.61,0,0,1-.07.1,3.27,3.27,0,0,1-.86.84h0a4.62,4.62,0,0,1-1.66-3.25,8.62,8.62,0,0,1,.24-1.67c.09-.43.19-.87.26-1.31a11.45,11.45,0,0,0,.12-2.11c.08,1.38.13,2.67.15,3.68a3.43,3.43,0,0,0,0,.56,7.91,7.91,0,0,0,1.77,3.16"/><path class="cls-40" d="M621.42,1275.78h0a8.79,8.79,0,0,0-.39,1,7,7,0,0,1-1,2.15,8.86,8.86,0,0,0-.93,1.75,2,2,0,0,1-.42,0,3.84,3.84,0,0,1-1.29-.29,3.87,3.87,0,0,0,.64-.33h0a3.27,3.27,0,0,0,.86-.84.61.61,0,0,0,.07-.1h0a6.63,6.63,0,0,0,.68-1.75c.08-.26.16-.53.25-.79s.28-.73.37-1.11a8.94,8.94,0,0,0,.12-1,26.58,26.58,0,0,1,.4-3.07,8.09,8.09,0,0,0,.06.85v0c.15,1.31-.2,2.45.57,3.52"/><path class="cls-46" d="M527.38,1312a4.83,4.83,0,0,1-1.44,1.37c-1.32-.79-2.44-3.5-2.41-5a13,13,0,0,1,.43-2.53,9.36,9.36,0,0,0,.33-2,57.35,57.35,0,0,0-.48-6.76c-.28-3.2-.11-6.23-.38-9.42.11-1.83,1.17,12.25,1.27,18.57a5.24,5.24,0,0,0,.13,1.1,11.79,11.79,0,0,0,2.55,4.73"/><path class="cls-47" d="M525.94,1313.4a4,4,0,0,1-.85.42h0c-.31-.11-.61-.24-.91-.37a.54.54,0,0,1-.29-.22h0a.19.19,0,0,1,.12-.28,17.57,17.57,0,0,1-2.08-4.21h0c-.74-2-1.28-4.1-2-6.06a33.86,33.86,0,0,0-6.41-10.55c3.36,2.82,6.25,6.38,7.43,10.61a24.91,24.91,0,0,0,1,3.28c.6,1.59.34,1.14,1.59,2.35,0,1.54,1.09,4.25,2.41,5"/><path class="cls-48" d="M528.81,1297.06c-.16.89-1,1.54-1.2,2.41a10.11,10.11,0,0,0-.12,1.83,6.34,6.34,0,0,1-.73,2.13l-.14.28c-.55,1.14-1.26,2.49-1.79,3.59a5.24,5.24,0,0,1-.13-1.1c-.1-6.32-1.16-20.4-1.27-18.57.27,3.19.1,6.22.38,9.42a57.35,57.35,0,0,1,.48,6.76,9.36,9.36,0,0,1-.33,2l-.07,0a2.23,2.23,0,0,1-1-3.29,2.36,2.36,0,0,1-1.18-2.71c.13-.43.39-.91.13-1.29-.14-.2-.39-.28-.59-.43a2.28,2.28,0,0,1-.51-2.45,1.9,1.9,0,0,0,0-1.08c-.27-.65-1.26-.79-1.47-1.47a1.38,1.38,0,0,1,0-.67h0s0-.05,0-.08a22.36,22.36,0,0,1,3.73-8.43,2.25,2.25,0,0,1,1.54-1.14c.79,0,1.39.71,1.62,1.45s.22,1.56.5,2.29,1,1.48,1.31,2.3a4.14,4.14,0,0,1,.28,1.1c0,.3.06.59.08.89.14,1.8.27,3.61.4,5.42a3,3,0,0,1,0,.85"/><path class="cls-46" d="M534.14,1300.33a52.37,52.37,0,0,1-1.83,7.14,25.87,25.87,0,0,1-2.67,5.52,2.59,2.59,0,0,1-1.72,1.2,4.94,4.94,0,0,0,1-1.35,11.43,11.43,0,0,0,.94-2.49v0a19.32,19.32,0,0,0,.79-2.06c.18-.53.38-1,.59-1.54.93-2.17,2.1-4.09,2.89-6.4"/><path class="cls-49" d="M541.49,1297c.07,1.63-2.42,2.39-2.53,4a6.76,6.76,0,0,1,0,1.19c-.26,1-1.65,1-2.33,1.76-.35.37-.49.9-.81,1.31a3.81,3.81,0,0,1-1,.77l-2.49,1.47a52.37,52.37,0,0,0,1.83-7.14c-.79,2.31-2,4.23-2.89,6.4-1.16-1.64-.63-3.38-.87-5.38v0c0-.76.07-1.52.1-2.28-.07.31-.13.63-.19,1a3.4,3.4,0,0,1,.37-1.66c.52-1,1.63-1.52,2.24-2.39h0a2.16,2.16,0,0,0,.32-.6,11,11,0,0,1,.39-1.65c.48-.9,1.69-1,2.63-1.45.59-.26,1.11-.66,1.7-.89a1.81,1.81,0,0,1,1.83.17c.8.71.3,2.06.62,3.09.25.84,1.06,1.49,1.1,2.36"/><path class="cls-50" d="M534,1290.65c-.32,1.7-1.6,3.61-1.12,5.27h0c-.61.87-1.72,1.43-2.24,2.39a3.4,3.4,0,0,0-.37,1.66,39.49,39.49,0,0,0-.62,4.73,10.62,10.62,0,0,1-.19,1.59,17.77,17.77,0,0,1-.56,1.7c-.12.33-.23.68-.32,1a9.46,9.46,0,0,1-2-5.32c0-.1.09-.19.13-.28a6.34,6.34,0,0,0,.73-2.13,12.32,12.32,0,0,1,.12-1.83c.25-.87,1-1.52,1.2-2.41a3,3,0,0,0,0-.85c-.13-1.8-.26-3.62-.4-5.42,0-.3,0-.59-.08-.88.13-.65,1.16-1.26,1.5-1.83.57-1-.35-2.6.61-3.24.42-.28,1.12-.25,1.28-.73.07-.2,0-.42.09-.62.15-.38.74-.39,1-.1a1.86,1.86,0,0,1,.44,1.12c.22,1.34.43,2.68.64,4a6.3,6.3,0,0,1,.09,2.12"/><path class="cls-50" d="M524,1305.83a13,13,0,0,0-.43,2.53c-1.25-1.21-1-.76-1.59-2.35a24.91,24.91,0,0,1-1-3.28c-1.18-4.23-4.07-7.79-7.43-10.61a33.86,33.86,0,0,1,6.41,10.55c.74,2,1.28,4.06,2,6.06h0a3.52,3.52,0,0,1-3-3.09,1.45,1.45,0,0,0-.14-.66c-.21-.3-.63-.33-1-.47-1-.44-1-1.83-1.46-2.82-.7-1.52-2.61-2.16-3.43-3.63s-.41-3.18-1.23-4.52c-.34-.56-.86-1-1.25-1.5a1.92,1.92,0,0,1-.41-1.82c.35-.85,1.48-1,2.4-1,1.1,0,2.35,0,3.06.85a6.66,6.66,0,0,0,.53.66c.82.75,3,.68,3.34,1.71h0a1.38,1.38,0,0,0,0,.67c.21.68,1.2.82,1.47,1.47a1.9,1.9,0,0,1,0,1.08,2.28,2.28,0,0,0,.51,2.45c.2.15.46.23.6.43.25.38,0,.86-.14,1.29a2.36,2.36,0,0,0,1.18,2.71,2.23,2.23,0,0,0,1,3.29l.07,0"/><path class="cls-50" d="M531.25,1306.73c-.21.5-.41,1-.59,1.54a19.32,19.32,0,0,1-.79,2.06c.15-.53.28-1.07.42-1.6.55-2.09,0-4.35.05-6.52,0-.3,0-.6,0-.9v0c.24,2-.29,3.74.87,5.38"/><path class="cls-7" d="M530.29,1308.73c-.14.53-.27,1.07-.42,1.6v0a5.46,5.46,0,0,1-.74,1.2,6.15,6.15,0,0,0-.77,1.26c-.23.47-.42,1-.64,1.42h0a3.63,3.63,0,0,1-.65,0,6.15,6.15,0,0,1-2-.46,4,4,0,0,0,.85-.42,4.83,4.83,0,0,0,1.44-1.37l.11-.15a10.49,10.49,0,0,0,1.11-2.85h0c.09-.35.2-.7.32-1a17.77,17.77,0,0,0,.56-1.7,10.62,10.62,0,0,0,.19-1.59,39.49,39.49,0,0,1,.62-4.73,9.91,9.91,0,0,0,.09,1.33c0,.3,0,.6,0,.9-.1,2.17.5,4.43-.05,6.52"/><path class="cls-51" d="M534,1324c-10.57,4-14.45-.44-14.45-.44a16.66,16.66,0,0,1,.59-6.12h0a10.91,10.91,0,0,1,.76-1.8q.12-.23.24-.42a3.28,3.28,0,0,1,2.75-2h0a.54.54,0,0,0,.29.22c.3.13.61.26.91.37h0a6.15,6.15,0,0,0,2,.46,3.63,3.63,0,0,0,.65,0h0l.21,0a2.59,2.59,0,0,0,1.72-1.2,6.85,6.85,0,0,1,4.36,5,15,15,0,0,1,0,6"/><path class="cls-51" d="M528.92,1312.84a4.94,4.94,0,0,1-1,1.35l-.21,0c.22-.46.42-1,.64-1.42l.57,0"/><path class="cls-52" d="M677.35,1284.17c-16.76-8.51-40.72-1.59-40.72-1.59l2.53,14.77,12.24,7.18,26.09-6.65Z"/><path class="cls-53" d="M609.3,1563.71l23.75-7.58s3.16,37.51-1.34,59c0,0-15.72,15.5-29.81,12.51,0,0-5-2.52,13.54-20.32,0,0,2.17-9.49-6.14-43.59"/><path class="cls-53" d="M687.35,1553.83l23.54-8.19s4.14,37.41.19,59c0,0-15.31,15.91-29.47,13.28,0,0-5.1-2.38,13-20.66,0,0,1.91-9.55-7.27-43.42"/><path class="cls-54" d="M588.6,1358.64s.53,170.51,16,209.36c0,0,11.17,20,30.87-2.93,0,0,6.12-109.91,24.75-108s15.17,33.8,15.17,33.8-3.46,80.38,27.67,74.25c0,0,19.7,5.86,25-97.67s2.4-100.06,2.4-100.06l-.54-25-19.16-13,.27-38.59L702.5,1288l-6.39,36.19-107.51,2.4Z"/><path class="cls-55" d="M588.6,1380.11v-32.47L550,1370.53,538.3,1390l-4-4.52-19.43,16.76s18.36,33.27,30.87,23.69,42.85-45.78,42.85-45.78"/><path class="cls-55" d="M663.65,1341l-8.25,24.75s33,13.84,77.17,14.37,56.16-20.49,48.71-41-42.85-45-70.26-48.44l-.4,38.46,14.9,10.91Z"/><path class="cls-55" d="M640.09,1292.42s4,3.2,20,2.66,14.37-4.25,17.3-10.91l25.2,3.95.08,40.5h-83l5.86-46h11.17s-.53,7.71,3.46,9.84"/><path class="cls-56" d="M514.75,1402.07,535.5,1384s-17.83-18.89-18.36-21.82,3.73-22.09-6.39-11.45c0,0-6.38,10.65-5.32,2.93s5.32-8,6.39-8,4.52-10.38-10.11-6.12-13.31,34.06,13,62.54"/><path class="cls-52" d="M655.26,1286s-12,5.06-12.51-13,0-20.75,0-20.75l33.27,6.65s-1.33,25.81-6.92,27.68-13.84-.54-13.84-.54"/><path class="cls-57" d="M646,1244.44s9.34,12.71,33.46,8.77c0,0,5.67-12.35-14.43-18.76-17.05-5.45-19,10-19,10"/><path class="cls-58" d="M645.15,1244.78l-25.55-1.06s3.2,7.19,37.26,15.17,49.77,5.32,49.77,5.32-6.66-5.59-27.41-10.91-34.07-8.52-34.07-8.52"/><path class="cls-59" d="M635.57,1287.37c-1-12.54-8.78-8.79-8.78-8.79l-1.33,4s-.67.39-1.73,4.65-20.89,15-60.28,27.55-58,10.11-64.67,12.51-1.33,8.25-1.33,8.25,52,12.9,91.15,0,48.17-33.67,47-48.17"/><path class="cls-60" d="M527.76,1375.54s24.78-1.42,66.83-18.45,54-15.43,44.44-59.88l-3.46-9.84s-9.58,17.56-62.81,33.79-75.31,14.38-75.31,14.38,1.81,27.32,30.31,40"/><path class="cls-56" d="M624.79,1328.75c.34.15,2-6.72,3-6.29.05,0,2,2,2.07,2,11,12.41,30.78,12.83,34.25,13.14a.38.38,0,0,1,.33.49L653.81,1370a.38.38,0,0,1-.54.22c-17.75-9.55-41-19.88-49-27.07,0,0-11.44-7.72-8.52-16.77,1.91-5.9,15.7-10.11,31.14,2.4s-2.13,0-2.13,0"/><path class="cls-56" d="M619.6,1319.6c2.58-2.61,10.51,4.89,10.51,4.89l-3.19,4.26h-2.13s-7.72-6.6-5.19-9.15"/><line class="cls-61" x1="539.1" y1="1391.02" x2="518.34" y2="1410.98"/><path class="cls-61" d="M565.58,1407.92s-21.29-22.09-23.69-22.62"/><path class="cls-61" d="M574.09,1394.35s-13.75-20.63-25.24-22.42"/><path class="cls-61" d="M585,1383.17s-4.25-12.77-13.3-17.56"/><path class="cls-61" d="M745,1379.45s6.12-20-2.13-36.46"/><path class="cls-61" d="M771.83,1324.36s-39.92,4.26-29,18.63"/><path class="cls-61" d="M763.58,1318s-38.59,5.59-36.2,22.62c0,0,4.26,36.46.54,38.86"/><path class="cls-61" d="M755.06,1309.72s-17.83,0-39.62,22.75"/><path class="cls-61" d="M745,1303.07s-22.62,2.92-34.16,21.29"/><line class="cls-61" x1="727.92" y1="1296.41" x2="710.79" y2="1311.68"/><path class="cls-61" d="M702.63,1314.78s-45.18,9.13-60.11,3.1"/><path class="cls-61" d="M641.57,1311.68s46.16,3.36,60.8-11.81"/><path class="cls-61" d="M702.63,1289.23s-14.9,19.69-61.06,13"/><path class="cls-61" d="M687.73,1286.3s-23.15,17.3-49.77,8"/><line class="cls-61" x1="715.41" y1="1292.16" x2="710.79" y2="1297.21"/><line class="cls-61" x1="660.85" y1="1367.47" x2="674.16" y2="1341.39"/><path class="cls-61" d="M674.16,1370.4c-1.07-1.33,13.57-29,13.57-29"/><line class="cls-61" x1="700.24" y1="1341.39" x2="687.73" y2="1375.46"/><line class="cls-61" x1="710.88" y1="1340.59" x2="700.24" y2="1375.46"/><path class="cls-61" d="M715.41,1379.45s9.05-35.13,6.39-38.86"/><path class="cls-61" d="M532,1422s9.85-18.63,9.85-27.68,11.44,14.9,6.92,27.68"/></g></svg>