<svg id="Layer_1" data-name="Layer 1" xmlns="http://www.w3.org/2000/svg" xmlns:xlink="http://www.w3.org/1999/xlink" viewBox="0 0 750 5342"><defs><style>.cls-1{fill:none;}.cls-2{clip-path:url(#clip-path);}.cls-3{fill:#ebc081;}.cls-4{fill:#175a39;}.cls-5{fill:#7e5a3f;}.cls-6{fill:#fbd2c0;}.cls-7{fill:#f5b843;}.cls-8{fill:#4f3d2f;}.cls-9{fill:#fbd901;}.cls-10{fill:#f9da4a;}.cls-11{fill:#c56428;}.cls-12{fill:#68a270;}.cls-13{fill:#f8b517;}.cls-14{fill:#c2bfa5;}.cls-15{fill:#eaefe1;}.cls-16{fill:#a16c44;}</style><clipPath id="clip-path"><rect class="cls-1" x="-0.18" y="1886.04" width="254.38" height="386.04"/></clipPath></defs><title>mobi14</title><g class="cls-2"><path class="cls-3" d="M-171.62,1974.53c12.54-4,227.56,55.09,240.7,54.16s27,1.63,37.43,9.7c13.62,10.55,19.08,28.26,28.46,42.72a87.18,87.18,0,0,0,38.58,32.47c9.49,4.05,19.62,6.38,29.25,10.09s19,9.1,24.84,17.64,7,20.77.73,29c-4.71,6.14-12.68,9-20.4,9.53s-15.41-.9-23.1-1.73a150.62,150.62,0,0,0-79.81,13.33c-11.86,5.58-23,12.71-35,17.79s-228,105.46-241.11,105.46Z"/><path class="cls-4" d="M112.25,2141.72a3.06,3.06,0,0,1-2.52,2.22,7.2,7.2,0,0,1-3.51-.43A21.79,21.79,0,0,1,94.55,2135a30.62,30.62,0,0,1-3.71-9.48,79.54,79.54,0,0,1-1.82-26.9,2.58,2.58,0,0,0,1.14.13,44.46,44.46,0,0,1,17.08-.85c0,8.15.08,16.44.08,24.58,0,5.28.12,10.94,3.18,15.25C111.38,2138.92,112.54,2140.23,112.25,2141.72Z"/><path class="cls-4" d="M59.75,2129c-.66,4.78-2.46,9.58-6,12.88-2.94,2.76-6.82,4.26-10.68,5.38a2.69,2.69,0,0,1-1.91.08,2.06,2.06,0,0,1-.77-2.58,11,11,0,0,1,1.65-2.46c2.32-3.24,2.16-7.56,1.9-11.52q-.93-14.52-1.86-29a23.38,23.38,0,0,1,17.55-1.93h.07c-.18,4.84-.07,9.84.13,14.7S60.41,2124.22,59.75,2129Z"/><path class="cls-5" d="M112.05,2070.35c-.33,9.67-1.17,19.49-4.78,28.46a44.28,44.28,0,0,0-17.09.4,2.59,2.59,0,0,1-1.14-.16,3.86,3.86,0,0,1-1.73-1.27,8.18,8.18,0,0,1-1.35-3.25,58.78,58.78,0,0,1-1.25-9.8c-.86-12.52-1.48-25.73-1.68-38.28a19.47,19.47,0,0,1-5.75.14q-3.9,18-7.85,36.1a46.47,46.47,0,0,1-2.92,9.93,15.8,15.8,0,0,1-6.74,7.59,23.49,23.49,0,0,0-17.6,1.47h0c-2-.59-3.2-2.64-3.73-4.65a18.15,18.15,0,0,1-.17-6.2l1.41-16.41c1.41-16.43,2.94-33.33,8.07-49,2.89,2.83,9.09,4.69,27.71,4.33.27,0,.7,0,1.24,0,6.35.17,28.84.22,32.59-3.47a7.45,7.45,0,0,0,1-1.19A309.11,309.11,0,0,1,112.05,2070.35Z"/><path class="cls-6" d="M44.07,1924.73a10.56,10.56,0,0,1-.72,2.39,25.41,25.41,0,0,1-1.68,3.29c-.31.53-.64,1.06-1,1.59l-19.17,32.11,3.57-1.57a152.1,152.1,0,0,0-1.23,16.93c-3.31.07-6.81.11-10-.84s-6.18-3.08-7.29-6.2c-1.6-4.5,1-9.29,3.57-13.33,7.31-11.62,14.65-23.29,23.38-33.86q1.35-1.65,2.76-3.26c.23-.28.48-.55.73-.81a6.63,6.63,0,0,1,2.82-2,3,3,0,0,1,3.63,1.48,4.08,4.08,0,0,1,.35.73A6,6,0,0,1,44.07,1924.73Z"/><path class="cls-7" d="M76.84,2031.7l-1.24,0c-18.6.85-24.86-.85-27.82-3.6a9.89,9.89,0,0,1-2-2.69c-1.3-2.31-1.39-5.09-1.44-7.75-.27-12.65-.54-25.75-.81-38.4-6.51,1-13.18,1.49-19.65,1.88,0-.54,0-1.09,0-1.65a152.1,152.1,0,0,1,1.23-16.93c10.87-4.81,21.71-9.68,32.59-14.47l20.81,19.67C79.91,1990.43,78.86,2009,76.84,2031.7Z"/><path class="cls-8" d="M90.47,1931.73a6.24,6.24,0,0,0-1.53-4.75c-.85-1-1.61-2.14-2.56-3.24-2.27,1.7-4.95,2.31-7.69,3s-5.57,1.5-7.78,3.29-3.72,4.51-2.74,7.19a10.31,10.31,0,0,1-3-4c-1-2.51-.7-5.31-.32-8,1.12-.09,2.25-.2,3.37-.31,7.68-.84,15.44-1.57,22.77-3A20,20,0,0,1,90.47,1931.73Z"/><path class="cls-9" d="M87.41,1912.32c-15.56,6.16-24,3.43-24,3.43a25.38,25.38,0,0,0-.32-8.55,1.34,1.34,0,0,1,1.15-1.58l5.89-.72,4.31-2.36,4.74,1.25,4.84-.6a1.34,1.34,0,0,1,1.49,1.19C85.71,1906.39,86.24,1910.15,87.41,1912.32Z"/><path class="cls-6" d="M93.49,1945c-1,6.3-5.06,13.21-10.63,16.29a17.66,17.66,0,0,1-2.26,1l-14.21-13.43a19.59,19.59,0,0,1-.78-4.22,9.5,9.5,0,0,0,3.55-2.24,3.24,3.24,0,0,0,.46-3.89c-.5-.46-1-.88-1.45-1.3h0c-1-2.68.55-5.4,2.74-7.19s5-2.57,7.78-3.29,5.42-1.33,7.69-3c1,1.1,1.71,2.23,2.56,3.24a6.24,6.24,0,0,1,1.53,4.75s0,0,0,0a16.29,16.29,0,0,1-1.69,3.8,20.35,20.35,0,0,0-1.51,2.55c-.39.91-1,2-.66,2.9.33,1.32.33,1.32.92,1.86a5.44,5.44,0,0,0,2.1,1.07C90.9,1944.36,92.19,1944.73,93.49,1945Z"/><path class="cls-10" d="M149.68,1987l-.73.32a137,137,0,0,1-14.72,5.38l-1.25.37A90.72,90.72,0,0,0,113.42,1975c.54,6.4,1.07,13,1.23,19.37l-33.9-32a16.93,16.93,0,0,0,2.25-1c5.58-3.08,9.61-10,10.64-16.29,1.3.32,2.6.58,3.92.77,17.09,4.12,22.81,8.36,36.08,19.87C143.14,1973.92,148.88,1981.09,149.68,1987Z"/><path class="cls-6" d="M153.17,2038.18a5,5,0,0,1-1.16,1.56,2.8,2.8,0,0,1-2.68.62,3,3,0,0,1-1.68-2.06,10.89,10.89,0,0,1-.26-2.74,19.08,19.08,0,0,0-.56-3.38Z"/><path class="cls-11" d="M37.05,1921.17c-.25.26-.5.53-.73.81q-1.41,1.61-2.76,3.26l-11.07-10.85a2.68,2.68,0,0,1,3.69-3.89Z"/><path class="cls-6" d="M155.13,2027.2c0,1.47-.21,3.58-.38,5.1l-9.3-8.79c-3.19-8.58-8.1-22.4-11.22-30.77a137,137,0,0,0,14.72-5.38,43.52,43.52,0,0,1,3.19,10.72C153.47,2007.65,155.32,2017.54,155.13,2027.2Z"/><path class="cls-10" d="M114.47,2001.72a92.45,92.45,0,0,1-1.85,16.24c-.59,2.85-.84,5.85-2.34,8.2a7.34,7.34,0,0,1-1,1.21c-3.66,3.79-26.14,4.33-32.49,4.33,2-22.68,3.07-41.27,1.68-64Z"/><path class="cls-9" d="M83.87,1977a1,1,0,0,1-.49.73,1.51,1.51,0,0,1-1.39.16,1,1,0,0,1-.55-1.2,1.05,1.05,0,0,1,.79-.65c.34-.09.24-.06.58,0s.21,0,.51.17A.92.92,0,0,1,83.87,1977Z"/><path class="cls-9" d="M82.62,2025.78a.88.88,0,0,1-.48.72,1.45,1.45,0,0,1-1.39.16,1,1,0,0,1-.54-1.2,1.1,1.1,0,0,1,.78-.64c.35-.08.24,0,.59,0s.2,0,.49.17A.85.85,0,0,1,82.62,2025.78Z"/><path class="cls-9" d="M83.87,2009.32a1,1,0,0,1-.49.72,1.45,1.45,0,0,1-1.39.15,1,1,0,0,1-.55-1.2,1.07,1.07,0,0,1,.79-.63c.34-.09.24,0,.58,0s.21,0,.51.17A.94.94,0,0,1,83.87,2009.32Z"/><path class="cls-9" d="M83.87,1993.19a1,1,0,0,1-.49.72,1.45,1.45,0,0,1-1.39.15,1,1,0,0,1-.55-1.2,1.14,1.14,0,0,1,.79-.65c.34-.07.24,0,.58,0s.21,0,.51.17A.92.92,0,0,1,83.87,1993.19Z"/><path class="cls-12" d="M66.54,1948.91l-2.87-2.72a14.16,14.16,0,0,1,2.09-1.5A19.59,19.59,0,0,0,66.54,1948.91Z"/><path class="cls-11" d="M159.82,2043.91l-13.14-11.73-32.21-30.46-35.95-34-20.81-19.67-17-16.07c.31-.53.64-1.06,1-1.59a25.41,25.41,0,0,0,1.68-3.29l20.17,19.07,2.87,2.72,14.21,13.43,33.9,32,30.81,29.14L161.4,2038Z"/><path class="cls-13" d="M112.08,1913.53a2.81,2.81,0,0,1-1.6,1.88c-5.81,3.28-12.47,5.24-19.54,6.59-7.33,1.4-15.09,2.13-22.77,3-1.12.11-2.25.22-3.37.31a95.16,95.16,0,0,1-20.73-.55,6,6,0,0,0-.22-3.3,95.78,95.78,0,0,0,19.57-5.68s8.43,2.73,24-3.43a88.14,88.14,0,0,1,21.21-1.19C110.2,1911.25,112.28,1912,112.08,1913.53Z"/><path class="cls-14" d="M156.85,2044.69c-.49-.92.05-2,.58-2.92,1.32-2.21,2.67-4.4,4.07-6.56a2.41,2.41,0,0,1,2.68,1.1,19.21,19.21,0,0,0,1.74,2.59c1.26,1.23,3.5,1.55,4.06,3.23a4,4,0,0,1-.77,3.19,35.51,35.51,0,0,1-2.28,3.41,4.43,4.43,0,0,1-1.36,1.3c-2,1-3.84-.84-4.8-2.39S157.63,2046.19,156.85,2044.69Z"/><path class="cls-15" d="M174.05,2043.89a2.9,2.9,0,0,1,1.24.3A1.87,1.87,0,0,1,176,2046a5.11,5.11,0,0,1-.8,1.93c-4,6.79-9.54,12.56-15,18.26l-5.2,5.42a1.51,1.51,0,0,1-2.48.24l-9-6.92a2.63,2.63,0,0,1-1.19-1.53,2.49,2.49,0,0,1,.84-1.89c6.27-7,16.67-9.35,22.76-16.55,1-1.13,2-2.45,3.69-2.06.49.12.91.51,1.41.66A15.71,15.71,0,0,0,174.05,2043.89Z"/><path class="cls-16" d="M17.69,2200.32c3.48,0,3.48-5.4,0-5.4s-3.48,5.4,0,5.4Z"/><path class="cls-16" d="M68.65,2189.2c3.48,0,3.48-5.4,0-5.4s-3.48,5.4,0,5.4Z"/><path class="cls-16" d="M26,2154.92c3.48,0,3.48-5.4,0-5.4s-3.48,5.4,0,5.4Z"/><path class="cls-16" d="M28.81,2094.7c3.48,0,3.48-5.4,0-5.4s-3.48,5.4,0,5.4Z"/><path class="cls-16" d="M95.52,2165.11c3.47,0,3.48-5.4,0-5.4s-3.48,5.4,0,5.4Z"/><path class="cls-16" d="M52.9,2167.89c3.48,0,3.48-5.4,0-5.4s-3.48,5.4,0,5.4Z"/><path class="cls-16" d="M42.71,2209.59c3.47,0,3.48-5.41,0-5.41s-3.48,5.41,0,5.41Z"/><path class="cls-16" d="M.09,2230.89c3.47,0,3.48-5.4,0-5.4s-3.48,5.4,0,5.4Z"/></g></svg>