<svg id="Layer_1" data-name="Layer 1" xmlns="http://www.w3.org/2000/svg" xmlns:xlink="http://www.w3.org/1999/xlink" viewBox="0 0 750 5342"><defs><style>.cls-1{fill:none;}.cls-2{clip-path:url(#clip-path);}.cls-3{clip-path:url(#clip-path-2);}.cls-4{fill:#bbd38d;}.cls-5{fill:#ddda91;}.cls-6{fill:#98c29c;}.cls-7{fill:#b5be6d;}.cls-8{fill:#ddd990;}.cls-9{fill:#537d41;}.cls-10{fill:#658369;}.cls-11{fill:#547d41;}.cls-12{fill:#77a275;}</style><clipPath id="clip-path"><rect class="cls-1" x="-0.43" y="5168.21" width="751.72" height="175.46"/></clipPath><clipPath id="clip-path-2"><rect class="cls-1" x="-1.66" y="5163.47" width="751.16" height="156.03"/></clipPath></defs><title>mobi9</title><g class="cls-2"><g class="cls-3"><path class="cls-4" d="M775.65,5217.14c8,18,15.41,40.66,2.83,55.79-7,8.43-18.32,11.67-28.92,14.47-63,16.63-127,33.38-192.07,32-20.13-.43-41.23-2.95-57.71-14.51-12.84-9-26.65-30.81-19.65-47.16,7.47-17.44,37.68-15.87,53.2-18.15q77.37-11.36,155.41-17.4C697.41,5221.53,773.37,5212,775.65,5217.14Z"/><path class="cls-5" d="M360.81,5273C329,5241.8,284.53,5227,240.55,5220.21s-88.78-6.62-132.83-12.95a453.49,453.49,0,0,1-129-38.83c-8.8-4.17-9.94,7.69-11.92,17.23C-39.28,5214.84-28,5247-5,5265.94c21,17.38,49.42,23.28,76.7,23.64s54.38-4.19,81.64-5.08c58.12-1.9,115.59,12.87,173.73,14.07,9.41.19,19.34-.11,27.39-5S367.53,5279.55,360.81,5273Z"/><path class="cls-6" d="M622,5265.37c-89.44-41-191.25-67-286.25-41.3-42.86,11.58-83.9,33.47-128.29,33.51-7.16,0-11.44,5.58-11.55,12.74s4.62,13.52,10,18.21c17.42,15.14,42,18.19,65,19.72A944,944,0,0,0,622,5265.37Z"/></g><path class="cls-7" d="M467.46,5264c1.3,1,.82-2.17-.76-2.6a54.2,54.2,0,0,0-14.78-1.89,33.83,33.83,0,0,0-8,.67c-1.71.46-4.28,2.47-5.89,2.25-1.32-.18-2.47-1-3.74-1.33-3.22-.89-7.05,1-9.82-.88-2.5-1.67-2.46,1.46-4.69,1.46s-3.66-1.42-5.9-1.73c-6.86-1-20.86-.7-27.06,2.74a5,5,0,0,1-2.7,1c-1.23-.09-2.27-1.27-3.48-1.08-1,.15-1.72,1.13-2.69,1-1.6-.17-1.92-3-3.53-3-.9,0-1.48,1-2.36,1.22-1.09.24-2-.79-2.85-1.52-4.82-4.18-15.77,0-21.95-.48-5.15-.39-15.27,1.8-20-1.34a2,2,0,0,0-2.23,0,2.3,2.3,0,0,1-2.73.19c-.64-.44-1.07-1.17-1.78-1.47-1.62-.68-3.06,1.23-3.79,2.83l-2.75-2.62c-.44-.41-.95-.86-1.67-.43a1.81,1.81,0,0,0-.78,1c-1.2,3.73-5.55,1.15-8.57,2.08a9.71,9.71,0,0,1-1.53.49,4.3,4.3,0,0,1-2.41-.65l-4.79-2.39a4,4,0,0,0-2.62-.63,8.91,8.91,0,0,0-1.94,1.05,3.77,3.77,0,0,1-2.91.17.93.93,0,0,0-1.11.39c-.63,1-2.26,1.34-3.58,1.4-3.51.18-15.15,1-17.7-2.05a3.28,3.28,0,0,0-3.2-1.09c-6.48,1.36-11.37-.11-17.57.45-4.5.41-8.95,1.53-13.47,1.5-3.4,0-6.77-.68-10.17-.92a40.53,40.53,0,0,0-11.2.78,6.69,6.69,0,0,1-9.71-1.08,37.75,37.75,0,0,1-12.5.36l-2.14,2.5c-.5-1.24-2.17-1.41-3.52-1.37-3.34.09-9.66,1.66-11.32-1.94,1.52,3.3-14.19.71-15,.45-3.41-1-8.07-4.63-11.24-1.75a6.75,6.75,0,0,0-3.94-2.59c-.69,2.27-3.68,2.82-6,2.52s-4.94-1-7,.19c0-1.48-2.06-1.92-3.52-1.67a9.89,9.89,0,0,1-2.53.26l-7.31.24-1.93.34a50.05,50.05,0,0,1-9.82,1.08c-2.42-.06-4.91-.46-7.24.22a12.9,12.9,0,0,1-3.55,1c-1.22,0-2.37-.6-3.59-.71s-2.72.66-2.61,1.88c-1.34-1.47-3.3-3.07-5.08-2.19-.6.3-1.06.85-1.68,1.1-1.62.67-3.23-.92-4.28-2.33,2,2.64-14.38,1.74-14.56,1.72-7.2-.7-14.38-1.61-21.6-2-13.08-.67-26.32-1.32-39.14,1.29-11.41,2.33-22.62,7.56-30.26,16.21a3.26,3.26,0,0,0,1.23,5.2c8.61,3.4,18.3,3.77,27.65,4.06l84.22,2.56,252.61,7.7c9.61.29,19.27.58,28.78-.74,9.93-1.37,19.57-4.48,29.53-5.56,12.63-1.37,25.38.55,38.09.3s26.19-3.08,35.14-12.11C466.46,5272.23,468.9,5262.19,467.46,5264Z"/><path class="cls-7" d="M236.06,5325.63c1.3,1-6.17-4.49-7.74-4.92a54.33,54.33,0,0,0-14.79-1.89,33.32,33.32,0,0,0-8,.67c-1.7.46-4.28,2.47-5.89,2.25-1.31-.18-2.46-1-3.74-1.33-3.22-.89-7,1-9.82-.88-2.5-1.67-2.46,1.46-4.68,1.46s-3.66-1.42-5.9-1.73c-6.86-1-20.87-.7-27.06,2.74a5.19,5.19,0,0,1-2.71,1c-1.23-.1-2.26-1.27-3.48-1.08-1,.15-1.72,1.13-2.68,1-1.6-.17-1.93-3-3.54-3-.89,0-1.48,1-2.35,1.21-1.1.25-2-.78-2.85-1.51-4.82-4.18-15.78,0-21.95-.48-5.16-.39-15.27,1.8-20-1.34a1.94,1.94,0,0,0-2.22,0,2.33,2.33,0,0,1-2.74.19c-.64-.44-1.07-1.17-1.78-1.47-1.61-.68-3.06,1.23-3.78,2.83l-2.76-2.62c-.44-.41-1-.86-1.67-.43a1.86,1.86,0,0,0-.78,1c-1.2,3.73-5.54,1.15-8.57,2.08A9.39,9.39,0,0,1,63,5320a4.26,4.26,0,0,1-2.4-.65l-4.79-2.4a4,4,0,0,0-2.63-.62,9.14,9.14,0,0,0-1.94,1.05,3.75,3.75,0,0,1-2.9.17.94.94,0,0,0-1.12.39c-.63,1-2.26,1.34-3.57,1.4-3.51.17-15.16,1-17.71-2.05a3.27,3.27,0,0,0-3.19-1.09c-6.48,1.36-11.38-.11-17.57.45-4.51.41-8.95,1.53-13.48,1.5-3.4,0-6.77-.68-10.16-.92a40.48,40.48,0,0,0-11.2.78,6.71,6.71,0,0,1-9.72-1.08,37.75,37.75,0,0,1-12.5.36l-2.13,2.5c-.51-1.24-2.18-1.41-3.53-1.37-3.34.09-9.66,1.66-11.32-1.94,1.52,3.3-14.19.71-15.05.45-3.4-1-8.07-4.63-11.24-1.75a6.69,6.69,0,0,0-3.93-2.59c-.7,2.27-3.69,2.82-6.05,2.52s-4.93-1-7,.19c0-1.48-2.06-1.92-3.51-1.67a10,10,0,0,1-2.54.26l-7.31.23-1.93.35a50.74,50.74,0,0,1-9.82,1.08c-2.42-.06-4.91-.47-7.23.22a13.47,13.47,0,0,1-3.55,1c-1.23,0-2.38-.6-3.59-.71s-2.72.66-2.61,1.87c-1.35-1.46-3.3-3.06-5.08-2.18-.61.3-1.06.85-1.68,1.1-1.63.67-3.24-.92-4.29-2.34,2,2.65-14.38,1.75-14.56,1.73-7.2-.7-14.37-1.62-21.6-2-13.07-.67-26.31-1.32-39.14,1.29-11.41,2.33-22.62,7.56-30.26,16.21a3.27,3.27,0,0,0,1.23,5.2c8.62,3.4,18.3,3.77,27.65,4.05l84.22,2.57,252.62,7.7c9.6.29,19.26.58,28.78-.74,9.92-1.37,19.56-4.48,29.52-5.56,12.63-1.37,25.39-2.43,38.09-2.68s26.2-3.09,35.15-12.11C228.07,5328.51,237.5,5323.78,236.06,5325.63Z"/><path class="cls-8" d="M243.73,5328s-372.94-3-372.94-6.46,88.67-44.91,190.27-47.19c0,0,370.28-3.05,364.57,2.28S243.73,5328,243.73,5328Z"/><path class="cls-9" d="M36.7,5286.26h0a1.54,1.54,0,0,1-1.4-1.67c.26-3.12.63-10.11-1-12.06a11.32,11.32,0,0,1,2.6,5.69s1.08-6.14.94-7.45a12.52,12.52,0,0,1,.63,7.33s1.15-4.05,3.79-4.59c0,0-3.05,3-3.9,11.38A1.53,1.53,0,0,1,36.7,5286.26Z"/><path class="cls-10" d="M5.26,5292.57h0a2,2,0,0,1-1.89-2.2c.36-2.74.74-7.34-.35-9a13.69,13.69,0,0,1,1.25,3.49s.93-4.6-.71-6.56c0,0,1.43,1.42,2.09,5.64,0,0,1.29-5.6,1.17-7.17a19,19,0,0,1,.14,7s1.64-3.75,3.59-5.13c0,0-2.21,4.22-2.42,6.54,0,0,1.5-2.21,2.58-2.63,0,0-2.62,3.14-3.09,5.44a21.83,21.83,0,0,0-.36,2.76A2,2,0,0,1,5.26,5292.57Z"/><path class="cls-11" d="M85.87,5295.88h0a2.23,2.23,0,0,1-2-2.34c.14-2.69.1-7.25-1.44-9.67a29.5,29.5,0,0,1,2,4.07s0-5.46-.26-5.74a35.06,35.06,0,0,1,1.92,7.45s1.6-8.95,1.17-10c0,0,1.39,4.81.24,8.86,0,0,2.34-5.76,4.24-6.63,0,0-2.74,4.43-3,7,0,0,2.38-3.43,3.13-3.1a18.46,18.46,0,0,0-3.57,8.25A2.23,2.23,0,0,1,85.87,5295.88Z"/><path class="cls-12" d="M55,5304.16h0a1.55,1.55,0,0,1-1.4-1.67c.26-3.12.63-10.12-1-12.06a11.32,11.32,0,0,1,2.6,5.69s1.08-6.14.94-7.45a12.52,12.52,0,0,1,.63,7.33s1.15-4.05,3.8-4.59c0,0-3.06,3-3.9,11.37A1.56,1.56,0,0,1,55,5304.16Z"/><path class="cls-10" d="M21.08,5312.74h0a2,2,0,0,1-1.88-2.2c.36-2.74.74-7.34-.35-9a13.82,13.82,0,0,1,1.25,3.5s.93-4.6-.71-6.56c0,0,1.43,1.42,2.09,5.64,0,0,1.29-5.6,1.17-7.17a19,19,0,0,1,.14,7s1.64-3.75,3.58-5.13c0,0-2.2,4.22-2.41,6.54,0,0,1.5-2.21,2.58-2.63,0,0-2.62,3.14-3.09,5.44a20.15,20.15,0,0,0-.36,2.76A2,2,0,0,1,21.08,5312.74Z"/><path class="cls-12" d="M67.57,5276.69h0a1.54,1.54,0,0,1-1.4-1.67c.26-3.12.63-10.12-1-12.06a11.32,11.32,0,0,1,2.6,5.69s1.08-6.14.93-7.45a12.48,12.48,0,0,1,.64,7.33s1.15-4.05,3.79-4.59c0,0-3,3-3.9,11.37A1.54,1.54,0,0,1,67.57,5276.69Z"/><path class="cls-11" d="M116.22,5287h0a2.23,2.23,0,0,1-2-2.33c.13-2.69.1-7.25-1.44-9.68a29.2,29.2,0,0,1,2,4.08,50.66,50.66,0,0,0-.26-5.74,35.06,35.06,0,0,1,1.92,7.45s1.59-8.95,1.17-10c0,0,1.38,4.8.24,8.86,0,0,2.34-5.77,4.24-6.63,0,0-2.74,4.43-3,7,0,0,2.39-3.42,3.14-3.09a18.46,18.46,0,0,0-3.57,8.25A2.23,2.23,0,0,1,116.22,5287Z"/><path class="cls-9" d="M191.16,5284.83h0a1.55,1.55,0,0,1-1.51-1.57c.06-3.13,0-10.14-1.78-12a11.25,11.25,0,0,1,3,5.51s.68-6.2.45-7.5a12.54,12.54,0,0,1,1.11,7.28s.88-4.12,3.49-4.83c0,0-2.86,3.16-3.15,11.6A1.54,1.54,0,0,1,191.16,5284.83Z"/><path class="cls-10" d="M160.19,5293.18h0a2,2,0,0,1-2-2.07c.17-2.76.26-7.37-.94-9a14.06,14.06,0,0,1,1.47,3.4s.63-4.65-1.13-6.5c0,0,1.52,1.33,2.45,5.5,0,0,.92-5.68.7-7.24a19,19,0,0,1,.6,7s1.39-3.85,3.24-5.36c0,0-1.92,4.36-2,6.69,0,0,1.35-2.3,2.4-2.79,0,0-2.41,3.3-2.73,5.62a23.89,23.89,0,0,0-.18,2.78A2,2,0,0,1,160.19,5293.18Z"/><path class="cls-11" d="M251.28,5291.71h0a2.22,2.22,0,0,1-2.17-2.19c0-2.7-.38-7.24-2.07-9.56a29.63,29.63,0,0,1,2.23,3.94,50,50,0,0,0-.63-5.71,35,35,0,0,1,2.4,7.31s1-9,.51-10.09c0,0,1.7,4.7.82,8.82,0,0,2-5.9,3.8-6.89,0,0-2.45,4.6-2.51,7.19,0,0,2.16-3.58,2.93-3.3a18.44,18.44,0,0,0-3,8.47A2.24,2.24,0,0,1,251.28,5291.71Z"/><path class="cls-12" d="M221,5302h0a1.53,1.53,0,0,1-1.5-1.57c0-3.13,0-10.13-1.78-12a11.31,11.31,0,0,1,3,5.51s.67-6.2.45-7.5a12.54,12.54,0,0,1,1.11,7.28s.88-4.12,3.48-4.83c0,0-2.85,3.17-3.15,11.6A1.52,1.52,0,0,1,221,5302Z"/><path class="cls-10" d="M187.74,5312.77h0a2,2,0,0,1-2-2.07c.18-2.76.27-7.37-.93-9a14.06,14.06,0,0,1,1.47,3.4s.63-4.65-1.14-6.5c0,0,1.52,1.33,2.46,5.5,0,0,.91-5.68.69-7.24a18.86,18.86,0,0,1,.61,7s1.39-3.85,3.24-5.36c0,0-1.92,4.36-2,6.69,0,0,1.35-2.3,2.4-2.79,0,0-2.42,3.3-2.73,5.62a20.17,20.17,0,0,0-.18,2.78A2,2,0,0,1,187.74,5312.77Z"/><path class="cls-11" d="M129.82,5304.55h0a2.22,2.22,0,0,1-2.17-2.2c0-2.69-.38-7.24-2.07-9.56a28.51,28.51,0,0,1,2.23,3.94,50,50,0,0,0-.63-5.71,35.28,35.28,0,0,1,2.4,7.31s1-9,.51-10.09c0,0,1.7,4.71.82,8.83,0,0,2-5.91,3.8-6.9,0,0-2.45,4.6-2.51,7.19,0,0,2.16-3.57,2.93-3.3a18.5,18.5,0,0,0-3,8.47A2.25,2.25,0,0,1,129.82,5304.55Z"/><path class="cls-12" d="M99.4,5314.32h0a1.53,1.53,0,0,1-1.5-1.57c0-3.13,0-10.13-1.78-12a11.31,11.31,0,0,1,3,5.51s.67-6.2.44-7.5a12.49,12.49,0,0,1,1.12,7.28s.88-4.12,3.48-4.83c0,0-2.85,3.17-3.15,11.6A1.53,1.53,0,0,1,99.4,5314.32Z"/><path class="cls-10" d="M68.25,5323.14h0a2,2,0,0,1-2-2.07c.18-2.76.26-7.38-.93-9a13.76,13.76,0,0,1,1.46,3.4s.64-4.64-1.13-6.5c0,0,1.52,1.33,2.45,5.5,0,0,.92-5.67.7-7.23a18.67,18.67,0,0,1,.6,7s1.39-3.85,3.25-5.35c0,0-1.93,4.35-2,6.68,0,0,1.35-2.3,2.4-2.79,0,0-2.42,3.31-2.73,5.63a20.07,20.07,0,0,0-.18,2.78A2,2,0,0,1,68.25,5323.14Z"/><path class="cls-11" d="M156.62,5323.62h0a2.24,2.24,0,0,1-2.18-2.2c0-2.69-.37-7.23-2.06-9.56a30.33,30.33,0,0,1,2.23,3.94s-.38-5.44-.64-5.71a35,35,0,0,1,2.41,7.31s1-9,.51-10.08c0,0,1.7,4.7.82,8.82,0,0,2-5.91,3.79-6.89,0,0-2.44,4.59-2.51,7.18,0,0,2.16-3.57,2.93-3.29a18.48,18.48,0,0,0-3,8.46A2.24,2.24,0,0,1,156.62,5323.62Z"/><path class="cls-12" d="M220.91,5277.07h0a1.56,1.56,0,0,1-1.51-1.58c.06-3.13,0-10.13-1.77-12a11.34,11.34,0,0,1,3,5.51s.68-6.19.45-7.49a12.52,12.52,0,0,1,1.11,7.27s.88-4.12,3.49-4.83c0,0-2.85,3.17-3.15,11.6A1.55,1.55,0,0,1,220.91,5277.07Z"/><path class="cls-12" d="M349,5284.83h0a1.55,1.55,0,0,1-1.51-1.57c.06-3.13,0-10.14-1.77-12a11.34,11.34,0,0,1,3,5.51s.67-6.2.44-7.5a12.45,12.45,0,0,1,1.11,7.28s.88-4.12,3.49-4.83c0,0-2.85,3.16-3.15,11.6A1.54,1.54,0,0,1,349,5284.83Z"/><path class="cls-10" d="M318,5293.18h0a2,2,0,0,1-2-2.07c.18-2.76.26-7.37-.93-9a13.76,13.76,0,0,1,1.46,3.4s.64-4.65-1.13-6.5c0,0,1.52,1.33,2.45,5.5,0,0,.92-5.68.7-7.24a18.75,18.75,0,0,1,.6,7s1.39-3.85,3.24-5.36c0,0-1.92,4.36-2,6.69,0,0,1.36-2.3,2.4-2.79,0,0-2.41,3.3-2.73,5.62a21.74,21.74,0,0,0-.17,2.78A2,2,0,0,1,318,5293.18Z"/><path class="cls-11" d="M287.63,5304.55h0a2.24,2.24,0,0,1-2.18-2.2c0-2.69-.37-7.24-2.07-9.56a28.51,28.51,0,0,1,2.23,3.94A50,50,0,0,0,285,5291a35.66,35.66,0,0,1,2.41,7.31s1-9,.51-10.09c0,0,1.69,4.71.81,8.83,0,0,2-5.91,3.8-6.9,0,0-2.45,4.6-2.51,7.19,0,0,2.16-3.57,2.93-3.3a18.5,18.5,0,0,0-3,8.47A2.23,2.23,0,0,1,287.63,5304.55Z"/><path class="cls-9" d="M257.2,5314.32h0a1.53,1.53,0,0,1-1.5-1.57c.05-3.13,0-10.13-1.78-12a11.31,11.31,0,0,1,3,5.51s.67-6.2.45-7.5a12.54,12.54,0,0,1,1.11,7.28s.88-4.12,3.49-4.83c0,0-2.86,3.17-3.16,11.6A1.52,1.52,0,0,1,257.2,5314.32Z"/><path class="cls-10" d="M226.05,5323.14h0a1.94,1.94,0,0,1-2-2.07c.17-2.76.26-7.38-.94-9a14.06,14.06,0,0,1,1.47,3.4s.63-4.64-1.13-6.5c0,0,1.52,1.33,2.45,5.5,0,0,.92-5.67.7-7.23a18.93,18.93,0,0,1,.6,7s1.39-3.85,3.24-5.35c0,0-1.92,4.35-2,6.68,0,0,1.35-2.3,2.4-2.79,0,0-2.41,3.31-2.73,5.63a20.07,20.07,0,0,0-.18,2.78A2,2,0,0,1,226.05,5323.14Z"/><path class="cls-9" d="M378.71,5277.08h0a1.53,1.53,0,0,1-1.5-1.57c.05-3.14,0-10.14-1.78-12a11.31,11.31,0,0,1,3,5.52s.67-6.2.44-7.5a12.49,12.49,0,0,1,1.12,7.28s.88-4.12,3.48-4.84c0,0-2.85,3.17-3.15,11.61A1.54,1.54,0,0,1,378.71,5277.08Z"/><path class="cls-11" d="M281,5280.9h0a2.24,2.24,0,0,1-2.18-2.2c0-2.69-.37-7.23-2.07-9.56a29.16,29.16,0,0,1,2.23,3.94,50.22,50.22,0,0,0-.63-5.71,35.66,35.66,0,0,1,2.41,7.31s1-9,.51-10.08c0,0,1.69,4.7.81,8.82,0,0,2-5.91,3.8-6.9,0,0-2.45,4.6-2.51,7.19,0,0,2.16-3.57,2.93-3.29a18.35,18.35,0,0,0-3,8.46A2.24,2.24,0,0,1,281,5280.9Z"/><path class="cls-7" d="M498.18,5259.67c1.49.65.28-2.3-1.35-2.35a54,54,0,0,0-14.81,1.59,33.66,33.66,0,0,0-7.67,2.53c-1.55.83-3.59,3.39-5.21,3.55-1.32.13-2.62-.37-3.94-.42-3.34-.12-6.63,2.59-9.76,1.42-2.82-1-2.05,2-4.22,2.51s-3.89-.53-6.14-.31c-6.89.66-20.45,4.17-25.68,9a5.12,5.12,0,0,1-2.4,1.61c-1.21.19-2.49-.71-3.63-.24-.9.37-1.41,1.49-2.37,1.62-1.6.21-2.58-2.49-4.13-2.07-.86.23-1.21,1.33-2,1.73-1,.49-2.13-.3-3.12-.82-5.66-2.94-15.35,3.65-21.46,4.64-5.11.82-14.44,5.3-19.79,3.35a2,2,0,0,0-2.16.56,2.32,2.32,0,0,1-2.62.82c-.72-.28-1.3-.89-2.06-1-1.73-.28-2.7,1.91-3,3.63l-3.29-1.9c-.52-.3-1.12-.62-1.72,0a1.81,1.81,0,0,0-.52,1.17c-.3,3.91-5.13,2.41-7.86,4a9.61,9.61,0,0,1-1.37.83,4.24,4.24,0,0,1-2.49-.08l-5.21-1.21a4.06,4.06,0,0,0-2.71,0,9.09,9.09,0,0,0-1.64,1.47,3.73,3.73,0,0,1-2.78.85.92.92,0,0,0-1,.63c-.39,1.11-1.89,1.83-3.16,2.2-3.37,1-14.51,4.48-17.69,2.12a3.28,3.28,0,0,0-3.36-.32c-6,2.83-11.09,2.54-17,4.53-4.28,1.44-8.35,3.56-12.75,4.59-3.32.77-6.75.91-10.1,1.47a40.61,40.61,0,0,0-10.72,3.35,6.69,6.69,0,0,1-9.7,1.21,37.49,37.49,0,0,1-12.07,3.26l-1.5,2.93c-.78-1.1-2.44-.87-3.74-.52-3.23.87-9,3.86-11.47.75,2.25,2.85-13.63,4-14.53,3.93-3.55-.21-8.92-2.62-11.34.92a6.72,6.72,0,0,0-4.43-1.61c-.15,2.38-2.93,3.6-5.29,3.86s-5,.16-6.75,1.81c-.38-1.43-2.45-1.39-3.81-.8a11,11,0,0,1-2.4.84l-7.06,1.92-1.8.78a49.12,49.12,0,0,1-9.3,3.33c-2.37.51-4.88.7-7,1.91a13.8,13.8,0,0,1-3.22,1.79c-1.19.29-2.45,0-3.66.15s-2.49,1.27-2.1,2.43c-1.65-1.11-3.92-2.21-5.45-.95-.52.43-.84,1.07-1.38,1.46-1.43,1-3.36-.14-4.71-1.27,2.53,2.12-13.58,5-13.76,5.06-7.17,1-14.36,1.77-21.47,3.09-12.87,2.4-25.9,4.84-37.77,10.36-10.55,4.92-20.24,12.61-25.66,22.81a3.26,3.26,0,0,0,2.41,4.76c9.17,1.31,18.67-.58,27.83-2.48l82.51-17.09,247.48-51.24c9.41-1.94,18.87-3.91,27.83-7.4,9.33-3.65,18-8.91,27.41-12.27,12-4.28,24.82-5.37,37.12-8.56s24.76-9.1,31.37-19.95C499.1,5267.86,499.15,5257.53,498.18,5259.67Z"/><polygon class="cls-1" points="67.35 5408.22 67.35 5249.62 480.61 5249.62 480.61 5400.07 67.35 5408.22"/><path class="cls-7" d="M920.05,5268.57,476.89,5267a1.82,1.82,0,0,0-.46.06L22,5384.12a1.84,1.84,0,0,0,.43,3.63L920,5401.21a1.85,1.85,0,0,0,1.87-1.85V5270.41A1.84,1.84,0,0,0,920.05,5268.57Z"/><path class="cls-7" d="M936.8,5267.57c1.3,1,.82-2.17-.76-2.6a54.2,54.2,0,0,0-14.78-1.89,33.83,33.83,0,0,0-8,.67c-1.7.46-4.28,2.47-5.89,2.25-1.32-.18-2.47-1-3.74-1.33-3.22-.89-7.05,1-9.82-.88-2.5-1.67-2.46,1.46-4.69,1.46s-3.66-1.42-5.9-1.73c-6.86-1-20.86-.7-27,2.74a5.05,5.05,0,0,1-2.71,1c-1.23-.09-2.27-1.27-3.48-1.08-1,.15-1.72,1.13-2.68,1-1.61-.17-1.93-3-3.54-3-.89,0-1.48,1-2.36,1.22-1.09.24-2-.79-2.85-1.52-4.82-4.18-15.77,0-21.94-.48-5.16-.39-15.28,1.8-20-1.34a2,2,0,0,0-2.23,0,2.3,2.3,0,0,1-2.73.19c-.64-.44-1.07-1.17-1.78-1.47-1.62-.68-3.06,1.23-3.79,2.83l-2.75-2.62c-.44-.41-1-.86-1.67-.43a1.85,1.85,0,0,0-.78,1c-1.2,3.73-5.55,1.15-8.57,2.08a9.71,9.71,0,0,1-1.53.49,4.3,4.3,0,0,1-2.41-.65l-4.79-2.39a4,4,0,0,0-2.62-.63,8.91,8.91,0,0,0-1.94,1.05,3.73,3.73,0,0,1-2.91.17.93.93,0,0,0-1.11.39c-.63,1-2.26,1.34-3.58,1.41-3.51.17-15.15,1-17.7-2.06a3.27,3.27,0,0,0-3.19-1.09c-6.49,1.36-11.38-.11-17.57.45-4.51.41-9,1.53-13.48,1.5-3.4,0-6.77-.68-10.17-.91a40.53,40.53,0,0,0-11.2.77,6.68,6.68,0,0,1-9.71-1.08,37.75,37.75,0,0,1-12.5.36l-2.13,2.5c-.51-1.24-2.18-1.41-3.53-1.37-3.34.09-9.66,1.66-11.32-1.94,1.52,3.3-14.19.71-15.05.45-3.41-1-8.07-4.63-11.24-1.75a6.75,6.75,0,0,0-3.93-2.59c-.7,2.27-3.69,2.82-6,2.52s-4.94-1-7,.19c0-1.48-2.06-1.92-3.52-1.66a10.87,10.87,0,0,1-2.53.26l-7.31.23-1.93.34a50.05,50.05,0,0,1-9.82,1.08c-2.42-.06-4.91-.46-7.24.23a13.24,13.24,0,0,1-3.55,1c-1.22,0-2.37-.6-3.59-.71s-2.72.66-2.61,1.88c-1.34-1.47-3.29-3.07-5.08-2.19-.6.3-1.06.85-1.68,1.1-1.62.67-3.23-.92-4.28-2.33,2,2.64-14.38,1.74-14.56,1.72-7.2-.7-14.38-1.61-21.6-2-13.08-.67-26.32-1.32-39.14,1.29-11.41,2.33-22.62,7.56-30.26,16.22a3.25,3.25,0,0,0,1.23,5.19c8.62,3.4,18.3,3.77,27.65,4.06l84.22,2.56,252.61,7.7c9.61.29,19.27.58,28.79-.74,9.92-1.37,19.56-4.48,29.52-5.56,12.63-1.37,25.38.55,38.09.31s26.19-3.09,35.14-12.12C935.8,5275.76,938.24,5265.72,936.8,5267.57Z"/><path class="cls-8" d="M711.71,5330.66s-372.94-3-372.94-6.47,88.67-44.9,190.28-47.18c0,0,370.28-3.05,364.57,2.28S711.71,5330.66,711.71,5330.66Z"/><path class="cls-9" d="M504.68,5289h0a1.55,1.55,0,0,1-1.4-1.67c.26-3.12.63-10.12-1-12.06a11.32,11.32,0,0,1,2.6,5.69s1.08-6.14.94-7.45a12.52,12.52,0,0,1,.63,7.33s1.15-4.05,3.8-4.59c0,0-3.06,3-3.9,11.37A1.56,1.56,0,0,1,504.68,5289Z"/><path class="cls-10" d="M473.24,5295.27h0a1.94,1.94,0,0,1-1.88-2.2c.35-2.74.74-7.34-.35-9a13.94,13.94,0,0,1,1.24,3.5s.94-4.6-.7-6.56c0,0,1.43,1.42,2.08,5.64,0,0,1.29-5.6,1.17-7.17a18.81,18.81,0,0,1,.15,7s1.64-3.75,3.58-5.13c0,0-2.2,4.22-2.41,6.54,0,0,1.5-2.21,2.57-2.63,0,0-2.62,3.14-3.09,5.44a23.83,23.83,0,0,0-.36,2.76A1.94,1.94,0,0,1,473.24,5295.27Z"/><path class="cls-11" d="M553.85,5298.57h0a2.22,2.22,0,0,1-2-2.33c.14-2.69.11-7.25-1.43-9.67a28.63,28.63,0,0,1,2,4.07,50.54,50.54,0,0,0-.25-5.74,35.75,35.75,0,0,1,1.92,7.45s1.59-9,1.17-10c0,0,1.38,4.81.23,8.86,0,0,2.35-5.76,4.24-6.63,0,0-2.74,4.43-3,7,0,0,2.39-3.43,3.14-3.1a18.46,18.46,0,0,0-3.57,8.25A2.23,2.23,0,0,1,553.85,5298.57Z"/><path class="cls-12" d="M523,5306.86h0a1.54,1.54,0,0,1-1.4-1.67c.26-3.12.63-10.12-1-12.06a11.32,11.32,0,0,1,2.6,5.69s1.07-6.14.93-7.45a12.48,12.48,0,0,1,.64,7.33s1.14-4.05,3.79-4.59c0,0-3,3-3.9,11.37A1.54,1.54,0,0,1,523,5306.86Z"/><path class="cls-10" d="M489.07,5315.44h0a1.94,1.94,0,0,1-1.88-2.2c.35-2.74.74-7.34-.35-9a14,14,0,0,1,1.24,3.49s.94-4.59-.7-6.56c0,0,1.43,1.43,2.08,5.65,0,0,1.29-5.6,1.17-7.17a18.81,18.81,0,0,1,.15,7s1.63-3.75,3.58-5.13c0,0-2.2,4.22-2.41,6.54,0,0,1.5-2.21,2.57-2.63,0,0-2.62,3.14-3.09,5.44a21.83,21.83,0,0,0-.36,2.76A1.94,1.94,0,0,1,489.07,5315.44Z"/><path class="cls-11" d="M442.19,5304.63h0a2.22,2.22,0,0,1-2-2.34c.13-2.69.1-7.24-1.44-9.67a29.2,29.2,0,0,1,2,4.08,50.66,50.66,0,0,0-.26-5.74,35.75,35.75,0,0,1,1.92,7.45s1.59-8.95,1.17-10c0,0,1.38,4.8.24,8.86,0,0,2.34-5.77,4.23-6.64,0,0-2.74,4.43-3,7,0,0,2.39-3.42,3.14-3.09a18.46,18.46,0,0,0-3.57,8.25A2.23,2.23,0,0,1,442.19,5304.63Z"/><path class="cls-12" d="M411.2,5312.4h0a1.54,1.54,0,0,1-1.4-1.66c.26-3.13.63-10.12-1-12.07a11.32,11.32,0,0,1,2.6,5.69s1.08-6.13.93-7.45a12.5,12.5,0,0,1,.64,7.34s1.15-4.06,3.79-4.6c0,0-3,3-3.9,11.38A1.53,1.53,0,0,1,411.2,5312.4Z"/><path class="cls-10" d="M377.28,5321h0a2,2,0,0,1-1.88-2.2c.35-2.74.74-7.34-.35-9a14,14,0,0,1,1.24,3.49s.94-4.59-.7-6.56c0,0,1.43,1.43,2.08,5.65,0,0,1.29-5.61,1.17-7.18a18.81,18.81,0,0,1,.15,7s1.64-3.75,3.58-5.13c0,0-2.2,4.22-2.41,6.54,0,0,1.5-2.2,2.58-2.63,0,0-2.63,3.15-3.1,5.44a24.11,24.11,0,0,0-.36,2.76A2,2,0,0,1,377.28,5321Z"/><path class="cls-11" d="M457.31,5324.24h0a2.24,2.24,0,0,1-2-2.34c.14-2.69.1-7.25-1.44-9.67a29.5,29.5,0,0,1,2,4.07s0-5.46-.26-5.74a35.44,35.44,0,0,1,1.93,7.45s1.59-8.95,1.17-10c0,0,1.38,4.81.23,8.86,0,0,2.34-5.76,4.24-6.63,0,0-2.74,4.43-3,7,0,0,2.39-3.43,3.14-3.1a18.46,18.46,0,0,0-3.57,8.25A2.25,2.25,0,0,1,457.31,5324.24Z"/><path class="cls-12" d="M535.55,5279.39h0a1.55,1.55,0,0,1-1.4-1.67c.26-3.12.63-10.12-1-12.06a11.32,11.32,0,0,1,2.6,5.69s1.08-6.14.94-7.45a12.5,12.5,0,0,1,.63,7.33s1.15-4,3.8-4.59c0,0-3.06,3-3.9,11.37A1.56,1.56,0,0,1,535.55,5279.39Z"/><path class="cls-11" d="M584.2,5289.72h0a2.24,2.24,0,0,1-2-2.34c.14-2.68.1-7.24-1.44-9.67a29.2,29.2,0,0,1,2,4.08s0-5.46-.26-5.74a35.44,35.44,0,0,1,1.93,7.45s1.59-8.95,1.16-10c0,0,1.39,4.8.24,8.86,0,0,2.34-5.77,4.24-6.64,0,0-2.74,4.43-3,7,0,0,2.39-3.42,3.14-3.09a18.41,18.41,0,0,0-3.58,8.25A2.22,2.22,0,0,1,584.2,5289.72Z"/><path class="cls-9" d="M659.14,5287.53h0a1.53,1.53,0,0,1-1.5-1.57c.05-3.13,0-10.14-1.78-12a11.25,11.25,0,0,1,3,5.51s.67-6.2.44-7.5a12.49,12.49,0,0,1,1.12,7.28s.88-4.12,3.48-4.83c0,0-2.85,3.16-3.15,11.6A1.54,1.54,0,0,1,659.14,5287.53Z"/><path class="cls-10" d="M628.18,5295.88h0a2,2,0,0,1-2-2.07c.18-2.76.27-7.37-.93-9a14.19,14.19,0,0,1,1.47,3.41s.63-4.65-1.14-6.5c0,0,1.52,1.33,2.45,5.49,0,0,.92-5.67.7-7.23a18.71,18.71,0,0,1,.6,7s1.4-3.85,3.25-5.36c0,0-1.93,4.36-2,6.68,0,0,1.35-2.29,2.4-2.78,0,0-2.42,3.3-2.73,5.62a20.17,20.17,0,0,0-.18,2.78A2,2,0,0,1,628.18,5295.88Z"/><path class="cls-11" d="M719.27,5294.41h0a2.24,2.24,0,0,1-2.18-2.2c0-2.69-.37-7.23-2.07-9.55a28.51,28.51,0,0,1,2.23,3.94,50,50,0,0,0-.63-5.71,35.45,35.45,0,0,1,2.41,7.3s1-9,.51-10.08c0,0,1.69,4.7.81,8.82,0,0,2-5.9,3.8-6.89,0,0-2.45,4.6-2.51,7.18,0,0,2.16-3.57,2.93-3.29a18.44,18.44,0,0,0-3,8.47A2.22,2.22,0,0,1,719.27,5294.41Z"/><path class="cls-12" d="M689,5304.69h0a1.55,1.55,0,0,1-1.51-1.57c.06-3.13,0-10.14-1.78-12a11.31,11.31,0,0,1,3,5.51s.68-6.2.45-7.5a12.54,12.54,0,0,1,1.11,7.28s.88-4.12,3.49-4.83c0,0-2.86,3.17-3.15,11.6A1.54,1.54,0,0,1,689,5304.69Z"/><path class="cls-10" d="M655.72,5315.47h0a2,2,0,0,1-2-2.07c.17-2.76.26-7.37-.94-9a14.19,14.19,0,0,1,1.47,3.41s.63-4.65-1.13-6.5c0,0,1.52,1.33,2.45,5.49,0,0,.92-5.67.7-7.23a19,19,0,0,1,.6,7s1.39-3.85,3.24-5.36c0,0-1.92,4.36-2,6.68,0,0,1.35-2.29,2.4-2.78,0,0-2.41,3.3-2.73,5.62a23.89,23.89,0,0,0-.18,2.78A2,2,0,0,1,655.72,5315.47Z"/><path class="cls-11" d="M597.81,5307.25h0a2.24,2.24,0,0,1-2.18-2.2c0-2.69-.37-7.24-2.07-9.56a28.51,28.51,0,0,1,2.23,3.94,50,50,0,0,0-.63-5.71,35.41,35.41,0,0,1,2.41,7.31s1-9,.51-10.09c0,0,1.69,4.7.81,8.82,0,0,2-5.9,3.8-6.89,0,0-2.44,4.6-2.51,7.19,0,0,2.16-3.57,2.93-3.3a18.36,18.36,0,0,0-3,8.47A2.25,2.25,0,0,1,597.81,5307.25Z"/><path class="cls-12" d="M567.38,5317h0a1.55,1.55,0,0,1-1.5-1.57c0-3.13,0-10.13-1.78-12a11.31,11.31,0,0,1,3,5.51s.67-6.2.45-7.5a12.54,12.54,0,0,1,1.11,7.28s.88-4.12,3.49-4.83c0,0-2.86,3.17-3.16,11.6A1.52,1.52,0,0,1,567.38,5317Z"/><path class="cls-10" d="M536.23,5325.84h0a2,2,0,0,1-2-2.08c.17-2.75.26-7.37-.94-9a14.06,14.06,0,0,1,1.47,3.4s.63-4.64-1.13-6.5c0,0,1.52,1.33,2.45,5.5,0,0,.92-5.67.7-7.23a18.93,18.93,0,0,1,.6,7s1.39-3.85,3.24-5.35c0,0-1.92,4.35-2,6.68,0,0,1.35-2.3,2.4-2.79,0,0-2.41,3.31-2.73,5.63a21.76,21.76,0,0,0-.18,2.78A2,2,0,0,1,536.23,5325.84Z"/><path class="cls-11" d="M624.61,5326.32h0a2.24,2.24,0,0,1-2.18-2.2c0-2.69-.37-7.23-2.07-9.56a29.16,29.16,0,0,1,2.23,3.94,50.22,50.22,0,0,0-.63-5.71,35.28,35.28,0,0,1,2.4,7.31s1-9,.52-10.08c0,0,1.69,4.7.81,8.82,0,0,2-5.91,3.8-6.9,0,0-2.45,4.6-2.51,7.19,0,0,2.16-3.57,2.93-3.29a18.43,18.43,0,0,0-3,8.46A2.22,2.22,0,0,1,624.61,5326.32Z"/><path class="cls-12" d="M688.89,5279.76h0a1.53,1.53,0,0,1-1.5-1.57c.05-3.13,0-10.13-1.78-12a11.31,11.31,0,0,1,3,5.51s.67-6.2.45-7.5a12.54,12.54,0,0,1,1.11,7.28s.88-4.12,3.48-4.83c0,0-2.85,3.17-3.15,11.6A1.53,1.53,0,0,1,688.89,5279.76Z"/><path class="cls-9" d="M725.19,5317h0a1.55,1.55,0,0,1-1.51-1.57c.06-3.13,0-10.13-1.77-12a11.34,11.34,0,0,1,3,5.51s.68-6.2.45-7.5a12.54,12.54,0,0,1,1.11,7.28s.88-4.12,3.49-4.83c0,0-2.86,3.17-3.15,11.6A1.53,1.53,0,0,1,725.19,5317Z"/><path class="cls-10" d="M694,5325.84h0a2,2,0,0,1-2-2.08c.17-2.75.26-7.37-.94-9a14.06,14.06,0,0,1,1.47,3.4s.64-4.64-1.13-6.5c0,0,1.52,1.33,2.45,5.5,0,0,.92-5.67.7-7.23a18.93,18.93,0,0,1,.6,7s1.39-3.85,3.24-5.35c0,0-1.92,4.35-2,6.68,0,0,1.35-2.3,2.4-2.79,0,0-2.41,3.31-2.73,5.63a23.75,23.75,0,0,0-.18,2.78A2,2,0,0,1,694,5325.84Z"/><path class="cls-11" d="M749,5283.6h0a2.24,2.24,0,0,1-2.18-2.2c0-2.69-.37-7.24-2.06-9.56a30.33,30.33,0,0,1,2.23,3.94,50.22,50.22,0,0,0-.63-5.71,35.28,35.28,0,0,1,2.4,7.31s1-9,.51-10.08c0,0,1.7,4.7.82,8.82,0,0,2-5.91,3.79-6.9,0,0-2.44,4.6-2.51,7.19,0,0,2.17-3.57,2.93-3.29a18.48,18.48,0,0,0-3,8.46A2.24,2.24,0,0,1,749,5283.6Z"/><path class="cls-7" d="M762.84,5327.78c1.29,1,.81-2.17-.76-2.6a54.33,54.33,0,0,0-14.79-1.89,33.84,33.84,0,0,0-8,.68c-1.7.45-4.28,2.46-5.89,2.24-1.31-.18-2.46-1-3.74-1.33-3.22-.89-7,1-9.82-.88-2.5-1.67-2.46,1.46-4.68,1.46s-3.66-1.42-5.9-1.73c-6.86-1-20.87-.7-27.06,2.74a5,5,0,0,1-2.71,1c-1.23-.09-2.26-1.27-3.48-1.08-1,.15-1.72,1.13-2.68,1-1.6-.17-1.93-3-3.54-3-.89,0-1.48,1-2.35,1.21-1.1.24-2-.79-2.85-1.52-4.82-4.18-15.78,0-21.95-.48-5.16-.39-15.27,1.8-20-1.34a1.94,1.94,0,0,0-2.22,0,2.31,2.31,0,0,1-2.74.19c-.64-.43-1.07-1.17-1.78-1.47-1.61-.68-3.06,1.23-3.78,2.83l-2.76-2.62c-.44-.41-.95-.86-1.67-.43a1.9,1.9,0,0,0-.78,1c-1.2,3.73-5.54,1.15-8.57,2.08a9.39,9.39,0,0,1-1.53.49,4.26,4.26,0,0,1-2.4-.65l-4.79-2.39a4.05,4.05,0,0,0-2.63-.63,9.14,9.14,0,0,0-1.94,1.05,3.66,3.66,0,0,1-2.9.17.94.94,0,0,0-1.12.39c-.63,1-2.26,1.34-3.57,1.41-3.51.17-15.16,1-17.71-2.06a3.27,3.27,0,0,0-3.19-1.09c-6.48,1.36-11.38-.11-17.57.45-4.51.41-8.95,1.53-13.48,1.5-3.4,0-6.77-.68-10.16-.91a40.47,40.47,0,0,0-11.2.77,6.69,6.69,0,0,1-9.72-1.08,37.48,37.48,0,0,1-12.5.36l-2.13,2.5c-.51-1.24-2.18-1.41-3.53-1.37-3.34.09-9.66,1.66-11.32-1.94,1.52,3.3-14.19.71-15.05.45-3.4-1-8.07-4.63-11.24-1.74a6.69,6.69,0,0,0-3.93-2.6c-.7,2.28-3.69,2.82-6.05,2.52s-4.93-1-7,.19c0-1.48-2.06-1.92-3.51-1.66a11,11,0,0,1-2.54.26l-7.31.23-1.93.34a49.22,49.22,0,0,1-9.82,1.08c-2.42-.06-4.91-.46-7.23.23a13.45,13.45,0,0,1-3.55,1c-1.23,0-2.38-.6-3.59-.71s-2.72.66-2.61,1.88c-1.35-1.47-3.3-3.07-5.08-2.19-.61.3-1.06.85-1.68,1.1-1.63.67-3.24-.92-4.29-2.33,2,2.64-14.38,1.74-14.56,1.72-7.2-.7-14.38-1.61-21.6-2-13.07-.67-26.31-1.32-39.14,1.3-11.41,2.32-22.62,7.55-30.26,16.21a3.26,3.26,0,0,0,1.23,5.19c8.62,3.4,18.3,3.77,27.65,4.06L376,5348l252.62,7.7c9.6.29,19.26.58,28.78-.74,9.92-1.37,19.56-4.48,29.52-5.56,12.63-1.37,25.39.55,38.09.31s26.2-3.09,35.15-12.12C761.83,5336,764.28,5325.93,762.84,5327.78Z"/><path class="cls-7" d="M577.28,5386.93c11.43-3.2,23.62-4.05,34.32-9.19,5.26-2.52,10-6,15.44-8.17,5.06-2,10.52-2.77,15.91-3.51l24.09-3.32c12.56-1.73,26.3-4.08,34.53-13.72a7.68,7.68,0,0,0,1.82-3.22c.62-2.89-1.91-5.69-4.75-6.49s-5.88-.17-8.78.42a232.77,232.77,0,0,1-50.17,4.63c-8.28-.14-16.48-.84-24.71-1.73-5.84-.63-13.12-.88-18.31,2.25-3.66,2.2-5.92,3.59-10.3,3.66-3.1.05-7.45-1.05-9.12,2.5-.42.89-.68,2-1.6,2.38-1.24.47-2.78-.91-3.87-.15-.65.45-.7,1.43-1.25,2-1,1.12-2.9.08-4.43.16-2,.11-3.32,2.17-5.18,3a8.8,8.8,0,0,1-3,.5l-12.63.59a3.19,3.19,0,0,0-1.78.44,4.69,4.69,0,0,0-1.08,1.5c-1.75,2.82-5.65,3.17-9,3s-7.07-.37-9.45,1.94c-3.41,3.32-7.84,1.84-12.28,2.59-5.13.86-9.47,4.31-14.66,4.86-3.51.38-5.5-.25-8.43,2.17-1.38,1.14-1.6,2.83-3.57,3.05-1.76.19-2.93-2.39-4.89-1.84-1.49.43-1.93,2.58-3.41,3-1.09.32-2.16-.42-3.15-1s-2.43-.85-3.09.07c-.28.39-.34.91-.61,1.3-1.11,1.63-4.19-.28-5.49,1.2-.55.63-.52,1.68-1.18,2.19-.88.69-2.26-.05-3.23.49-.54.3-.82.92-1.25,1.37-1.54,1.54-4.08.36-6.21-.11-3.46-.76-5.33,1-8.3,2.12s-6.32,1.49-9.38,2.2c-6.27,1.44-13.29,3.29-16.5,8.87"/></g></svg>