<svg id="Layer_1" data-name="Layer 1" xmlns="http://www.w3.org/2000/svg" viewBox="0 0 750 5342"><defs><style>.cls-1{fill:#175a39;}.cls-2{fill:#7e5a3f;}.cls-3{fill:#fbd2c0;}.cls-4{fill:#f5b843;}.cls-5{fill:#4f3d2f;}.cls-6{fill:#fbd901;}.cls-7{fill:#f9da4a;}.cls-8{fill:#c56428;}.cls-9{fill:#68a270;}.cls-10{fill:#f8b517;}.cls-11{fill:#c2bfa5;}.cls-12{fill:#eaefe1;}</style></defs><title>mobi14-01_2</title><path class="cls-1" d="M112.25,2141.72a3,3,0,0,1-2.52,2.22,7.24,7.24,0,0,1-3.51-.43A21.83,21.83,0,0,1,94.55,2135a30.61,30.61,0,0,1-3.71-9.48,79.57,79.57,0,0,1-1.82-26.9,2.61,2.61,0,0,0,1.14.13,44.47,44.47,0,0,1,17.08-.85c0,8.15.08,16.44.08,24.58,0,5.28.12,10.94,3.18,15.25C111.38,2138.92,112.54,2140.23,112.25,2141.72Z"/><path class="cls-1" d="M59.75,2129c-.66,4.78-2.46,9.58-6,12.88-2.94,2.76-6.82,4.26-10.68,5.38a2.68,2.68,0,0,1-1.91.08,2.06,2.06,0,0,1-.77-2.58A11,11,0,0,1,42,2142.3c2.32-3.24,2.16-7.56,1.9-11.52q-.93-14.52-1.86-29a23.37,23.37,0,0,1,17.55-1.93h.07c-.18,4.84-.07,9.84.13,14.7S60.41,2124.22,59.75,2129Z"/><path class="cls-2" d="M112.05,2070.35c-.33,9.67-1.17,19.49-4.78,28.46a44.28,44.28,0,0,0-17.09.4,2.59,2.59,0,0,1-1.14-.16,3.84,3.84,0,0,1-1.73-1.27,8.18,8.18,0,0,1-1.35-3.25,58.78,58.78,0,0,1-1.25-9.8c-.86-12.52-1.48-25.73-1.68-38.28a19.45,19.45,0,0,1-5.75.14q-3.9,18-7.85,36.1a46.4,46.4,0,0,1-2.92,9.93,15.81,15.81,0,0,1-6.74,7.59,23.49,23.49,0,0,0-17.6,1.47h0c-2-.59-3.2-2.64-3.73-4.65a18.19,18.19,0,0,1-.17-6.2l1.41-16.41c1.41-16.43,2.94-33.33,8.07-49,2.89,2.83,9.09,4.69,27.71,4.33H76.7c6.35.17,28.84.22,32.59-3.47a7.6,7.6,0,0,0,1-1.19A309.6,309.6,0,0,1,112.05,2070.35Z"/><path class="cls-3" d="M44.07,1924.73a10.61,10.61,0,0,1-.72,2.39,24.83,24.83,0,0,1-1.68,3.29c-.31.53-.64,1.06-1,1.59L21.5,1964.11l3.57-1.57a152.27,152.27,0,0,0-1.23,16.93,32.9,32.9,0,0,1-10-.84c-3.19-1-6.18-3.08-7.29-6.2-1.6-4.5,1-9.29,3.57-13.33,7.31-11.62,14.65-23.29,23.38-33.86q1.35-1.65,2.76-3.26c.23-.28.48-.55.73-.81a6.73,6.73,0,0,1,2.82-2,3,3,0,0,1,3.63,1.48,4.08,4.08,0,0,1,.35.73A6,6,0,0,1,44.07,1924.73Z"/><path class="cls-4" d="M76.84,2031.7H75.6c-18.6.85-24.86-.85-27.82-3.6a10.14,10.14,0,0,1-2-2.69c-1.3-2.31-1.39-5.09-1.44-7.75-.27-12.65-.54-25.75-.81-38.4-6.51,1-13.18,1.49-19.65,1.88v-1.65a152.27,152.27,0,0,1,1.23-16.93c10.87-4.81,21.71-9.68,32.59-14.47l20.81,19.67C79.91,1990.43,78.86,2009,76.84,2031.7Z"/><path class="cls-5" d="M90.47,1931.73a6.24,6.24,0,0,0-1.53-4.75c-.85-1-1.61-2.14-2.56-3.24-2.27,1.7-4.95,2.31-7.69,3s-5.57,1.5-7.78,3.29-3.72,4.51-2.74,7.19a10.39,10.39,0,0,1-3-4c-1-2.51-.7-5.31-.32-8,1.12-.09,2.25-.2,3.37-.31,7.68-.84,15.44-1.57,22.77-3A19.93,19.93,0,0,1,90.47,1931.73Z"/><path class="cls-6" d="M87.41,1912.32c-15.56,6.16-24,3.43-24,3.43a25.32,25.32,0,0,0-.32-8.55,1.34,1.34,0,0,1,1.07-1.57h.08l5.89-.72,4.31-2.36,4.74,1.25,4.84-.6a1.35,1.35,0,0,1,1.49,1.17v0C85.71,1906.39,86.24,1910.15,87.41,1912.32Z"/><path class="cls-3" d="M93.49,1945c-1,6.3-5.06,13.21-10.63,16.29a16.87,16.87,0,0,1-2.26,1l-14.21-13.43a19.5,19.5,0,0,1-.78-4.22,9.45,9.45,0,0,0,3.55-2.24,3.23,3.23,0,0,0,.46-3.89c-.5-.46-1-.88-1.45-1.3h0c-1-2.68.55-5.4,2.74-7.19s5-2.57,7.78-3.29,5.42-1.33,7.69-3c1,1.1,1.71,2.23,2.56,3.24a6.24,6.24,0,0,1,1.53,4.75h0a16.57,16.57,0,0,1-1.69,3.8,20.35,20.35,0,0,0-1.51,2.55c-.39.91-1,2-.66,2.9.33,1.32.33,1.32.92,1.86a5.37,5.37,0,0,0,2.1,1.07A28.16,28.16,0,0,0,93.49,1945Z"/><path class="cls-7" d="M149.68,1987l-.73.32a137,137,0,0,1-14.72,5.38l-1.25.37A91,91,0,0,0,113.42,1975c.54,6.4,1.07,13,1.23,19.37l-33.9-32a16.75,16.75,0,0,0,2.25-1c5.58-3.08,9.61-10,10.64-16.29,1.3.32,2.6.58,3.92.77,17.09,4.12,22.81,8.36,36.08,19.87C143.14,1973.92,148.88,1981.09,149.68,1987Z"/><path class="cls-3" d="M153.17,2038.18a4.93,4.93,0,0,1-1.16,1.56,2.79,2.79,0,0,1-2.68.62,3,3,0,0,1-1.68-2.06,11,11,0,0,1-.26-2.74,18.49,18.49,0,0,0-.56-3.38Z"/><path class="cls-8" d="M37.05,1921.17c-.25.26-.5.53-.73.81q-1.41,1.61-2.76,3.26l-11.07-10.85a2.68,2.68,0,1,1,3.69-3.89h0Z"/><path class="cls-3" d="M155.13,2027.2c0,1.47-.21,3.58-.38,5.1l-9.3-8.79c-3.19-8.58-8.1-22.4-11.22-30.77a137,137,0,0,0,14.72-5.38,43.54,43.54,0,0,1,3.19,10.72C153.47,2007.65,155.32,2017.54,155.13,2027.2Z"/><path class="cls-7" d="M114.47,2001.72a93.3,93.3,0,0,1-1.85,16.24c-.59,2.85-.84,5.85-2.34,8.2a7.23,7.23,0,0,1-1,1.21c-3.66,3.79-26.14,4.33-32.49,4.33,2-22.68,3.07-41.27,1.68-64Z"/><path class="cls-6" d="M83.87,1977a1,1,0,0,1-.49.73,1.5,1.5,0,0,1-1.39.16,1,1,0,0,1-.55-1.2,1.05,1.05,0,0,1,.79-.65c.34-.09.24-.06.58,0s.21,0,.51.17A.91.91,0,0,1,83.87,1977Z"/><path class="cls-6" d="M82.62,2025.78a.86.86,0,0,1-.48.72,1.44,1.44,0,0,1-1.39.16,1,1,0,0,1-.54-1.2,1.08,1.08,0,0,1,.78-.64c.35-.08.24,0,.59,0s.2,0,.49.17A.84.84,0,0,1,82.62,2025.78Z"/><path class="cls-6" d="M83.87,2009.32a1,1,0,0,1-.49.72,1.47,1.47,0,0,1-1.39.15,1,1,0,0,1-.55-1.2,1.06,1.06,0,0,1,.79-.63c.34-.09.24,0,.58,0s.21,0,.51.17A.94.94,0,0,1,83.87,2009.32Z"/><path class="cls-6" d="M83.87,1993.19a1,1,0,0,1-.49.72,1.47,1.47,0,0,1-1.39.15,1,1,0,0,1-.55-1.2,1.15,1.15,0,0,1,.79-.65c.34-.07.24,0,.58,0s.21,0,.51.17A.92.92,0,0,1,83.87,1993.19Z"/><path class="cls-9" d="M66.54,1948.91l-2.87-2.72a14.74,14.74,0,0,1,2.09-1.5A19.5,19.5,0,0,0,66.54,1948.91Z"/><path class="cls-8" d="M159.82,2043.91l-13.14-11.73-32.21-30.46-35.95-34-20.81-19.67-17-16.07c.31-.53.64-1.06,1-1.59a24.83,24.83,0,0,0,1.68-3.29l20.17,19.07,2.87,2.72,14.21,13.43,33.9,32,30.81,29.14L161.4,2038Z"/><path class="cls-10" d="M112.08,1913.53a2.82,2.82,0,0,1-1.6,1.88c-5.81,3.28-12.47,5.24-19.54,6.59-7.33,1.4-15.09,2.13-22.77,3-1.12.11-2.25.22-3.37.31a95.18,95.18,0,0,1-20.73-.55,6,6,0,0,0-.22-3.3,95.78,95.78,0,0,0,19.57-5.68s8.43,2.73,24-3.43a88.17,88.17,0,0,1,21.21-1.19C110.2,1911.25,112.28,1912,112.08,1913.53Z"/><path class="cls-11" d="M156.85,2044.69c-.49-.92.05-2,.58-2.92,1.32-2.21,2.67-4.4,4.07-6.56a2.42,2.42,0,0,1,2.68,1.1,18.9,18.9,0,0,0,1.74,2.59c1.26,1.23,3.5,1.55,4.06,3.23a4,4,0,0,1-.77,3.19,33.74,33.74,0,0,1-2.28,3.41,4.44,4.44,0,0,1-1.36,1.3c-2,1-3.84-.84-4.8-2.39S157.63,2046.19,156.85,2044.69Z"/><path class="cls-12" d="M174.05,2043.89a3,3,0,0,1,1.24.3A1.86,1.86,0,0,1,176,2046a5,5,0,0,1-.8,1.93c-4,6.79-9.54,12.56-15,18.26l-5.2,5.42a1.5,1.5,0,0,1-2.05.59,1.61,1.61,0,0,1-.43-.35l-9-6.92a2.64,2.64,0,0,1-1.19-1.53,2.49,2.49,0,0,1,.84-1.89c6.27-7,16.67-9.35,22.76-16.55,1-1.13,2-2.45,3.69-2.06.49.12.91.51,1.41.66A15.34,15.34,0,0,0,174.05,2043.89Z"/></svg>