<svg id="Layer_1" data-name="Layer 1" xmlns="http://www.w3.org/2000/svg" xmlns:xlink="http://www.w3.org/1999/xlink" viewBox="0 0 750 5342"><defs><style>.cls-1{fill:none;}.cls-2{clip-path:url(#clip-path);}.cls-3{clip-path:url(#clip-path-2);}.cls-4{fill:#77a275;}</style><clipPath id="clip-path"><rect class="cls-1" x="410.2" y="2734.86" width="339.81" height="515.49"/></clipPath><clipPath id="clip-path-2"><rect class="cls-1" x="-0.01" y="1295.76" width="1223.53" height="3595.24"/></clipPath></defs><title>mobi7</title><g class="cls-2"><g class="cls-3"><path class="cls-4" d="M-167,1225.66c134.51,202.78,490.89,186.56,734.11,194.26,48.33,1.52,103.57,1.27,135.63,37.47,33.62,38,23.79,97.82,1,143.13-44.68,88.84-128.33,152.23-216.92,197.41s-184.1,75.2-274.36,116.94S34.77,2012.61-19.87,2095.7C-48.17,2138.75-67,2189.62-64,2241.05"/><path class="cls-4" d="M1146.76,2248.57c7.36,116.31-39.77,232.27-115.47,320.87S853.17,2721,744.63,2763.38c-52.68,20.59-107.2,36.73-158.21,61.17s-99.31,58.37-129.35,106.29S418.18,3042.51,445,3092.31c18,33.47,49.82,57.55,83.55,75.08,79.48,41.29,170.94,50.84,258.41,70.1A1146.3,1146.3,0,0,1,1194.57,3416c44.82,31.24,89.75,69.06,105.2,121.46"/><path class="cls-4" d="M-457.23,3150.36c43.24,132.36,167.12,222.11,294.17,279.1s264.62,91,384.89,161.17,225.4,190,224.87,329.23c-.37,100-54.79,192-118.91,268.78-73.09,87.47-160.42,162.07-235.31,248s-138.66,187.64-150.62,301l-334.21,30.66c-29.53,2.71-61.94,4.69-86-12.59-26.62-19.1-33.89-54.92-38.71-87.32a4021.25,4021.25,0,0,1,41.4-1412.07"/></g></g></svg>