<svg id="Layer_1" data-name="Layer 1" xmlns="http://www.w3.org/2000/svg" xmlns:xlink="http://www.w3.org/1999/xlink" viewBox="0 0 750 5342"><defs><style>.cls-1{fill:none;}.cls-2{clip-path:url(#clip-path);}.cls-3{fill:#bf7c40;}.cls-4{fill:#a16c44;}.cls-5{fill:#b5be6e;}.cls-6{fill:#36684d;}.cls-7{fill:#b9bc6e;}.cls-8{fill:#e2dd8a;}.cls-9{fill:#5a9055;}.cls-10{fill:#618257;}.cls-11{fill:#ebe261;}.cls-12{fill:#f7f0b1;}.cls-13{fill:#bcd38c;}.cls-14{fill:#ddda91;}.cls-15{fill:#77a275;}.cls-16{fill:#add483;}.cls-17{fill:#3b9a7f;}.cls-18{fill:#275e85;}</style><clipPath id="clip-path"><rect class="cls-1" x="583.51" y="1825.79" width="166.91" height="659.45"/></clipPath></defs><title>mobi15</title><g class="cls-2"><path class="cls-3" d="M853.11,2360.09c-9.74-5.28-19.52-10.59-29.88-14.54-20.92-8-43.8-10.27-64.25-19.4-7.69-3.43-14.92-7.78-22.49-11.47A144.73,144.73,0,0,0,620,2310.85c-3.25,1.33-6.79,2.8-10.15,1.8-2.09-.62-3.79-2.13-5.76-3-6.91-3.18-15.35,2-18.43,8.94s-2.26,14.94-1.27,22.49c1.4,10.75,3.38,22.24,11,30,5,5.11,12.11,8.22,15.79,14.35,3,5,3.17,11.1,4.15,16.84s3.34,12,8.64,14.34c2.63,1.19,5.6,1.25,8.47,1.54,7.29.72,14.34,3,21.27,5.35,24.77,8.49,49.08,18.79,71,33.07,16.19,10.53,31.21,23.27,49.13,30.45,21.63,8.67,48.43,7.71,66-7.61,4.44-3.87,8.31-8.82,9.26-14.63,1.09-6.62-1.62-14,1.66-19.82,3.81-6.79,13-7.43,20.57-9.33,13.75-3.47,44.27-25.37,39.08-42.69-2.63-8.78-14.57-10.75-21.7-13.9C876.48,2373.62,864.86,2366.47,853.11,2360.09Z"/><path class="cls-4" d="M629.56,2343.87,833.79,2402c4.39,1.24,9.86,2.21,12.88-1.21,1.4-1.59,1.88-3.77,2.3-5.85l5.73-28.13c.57-2.79,1-6-.86-8.17-1.22-1.39-3.13-1.91-4.92-2.36L697.27,2318c-22-5.57-43.91-11.73-65.91-17.44-12.26-3.18-28-7.67-33.73,7.11C589.42,2328.86,614.37,2338.81,629.56,2343.87Z"/><path class="cls-5" d="M712.53,2331s-3.91-3.07-6.54-1.84-7.12,2.79-4.81,8.63-.72,7.38,6.6,10.16,11.05,9.49,12.28,1.39-7.53-18.34-7.53-18.34"/><path class="cls-6" d="M743.07,2332.06c.1,0,4.12-3.12,6.55-1.84s7.12,2.79,4.81,8.63.72,7.38-6.6,10.16-11.05,9.49-12.29,1.4,7.53-18.35,7.53-18.35"/><path class="cls-7" d="M714.28,2329q5.36-.57,10.79-.72a5.59,5.59,0,0,1,3-.09,11.6,11.6,0,0,1,3.11,1.31c3.75,2.05,7.63,4.39,9.22,7.3a11.19,11.19,0,0,0,1.77.66c1.2-1.67,1.18-5.4-.12-6.84a6.86,6.86,0,0,0-1.87-1.25l-6.85-3.64h0l-2.91-1.55a10,10,0,0,0-4-1.4,8,8,0,0,0-5.75,2.29,33.81,33.81,0,0,1-6.29,3.93"/><path class="cls-8" d="M720.18,2343.38a7.36,7.36,0,0,0,1.61.38,1.4,1.4,0,0,0,.41,0l.2,0a7.73,7.73,0,0,0,1.88-1l4.15-2.62a6.69,6.69,0,0,1,1.36-.7c1-.35,2.3-.29,3.33-.63a8.64,8.64,0,0,1,1.35-.48l.26,0a2.94,2.94,0,0,1,.42,0,3.51,3.51,0,0,1,1.42.43h0a.76.76,0,0,1,.64.18,3.15,3.15,0,0,0-2-2.24,14.72,14.72,0,0,0-4.41-1.13,18.61,18.61,0,0,0-4.08-.18,9,9,0,0,0-1.16.18c-2.67.57-4.4,2.41-4.47,4.23,0,1.24.49,2.66-.76,3.61h-.18"/><path class="cls-8" d="M722.22,2343.76l.22,0a8,8,0,0,0,1.89-1l4.15-2.62a6.22,6.22,0,0,1,1.36-.7c1-.35,2.3-.29,3.32-.64a9.9,9.9,0,0,1,1.36-.47l.23,0-.26,0a10.25,10.25,0,0,0-1.35.47c-1,.35-2.3.29-3.33.64a6.22,6.22,0,0,0-1.36.7l-4.15,2.62a8.1,8.1,0,0,1-1.88,1l-.2,0"/><path class="cls-5" d="M714.26,2348.25c.33,1.22,2.32,2,4.21,2.2s3.87.14,5.7.51,3.49,1.23,5.4,1.55a14.31,14.31,0,0,0,7.54-1.13c1.09-.42,2.14-.92,3.12-1.4,2.49-1.23,5.28-2.91,4.66-4.89-.45-1.44-3.34-3-4.34-4.49a6.93,6.93,0,0,1-1.8,1.55,4.11,4.11,0,0,1-2.36,4,10.9,10.9,0,0,1-2.39.86,18.87,18.87,0,0,1-7.74.38,15.61,15.61,0,0,1-7.2-3.95,21.64,21.64,0,0,1-3.32-.12,2.1,2.1,0,0,1-.26,2.06c-.58.94-1.49,1.89-1.22,2.89"/><path class="cls-9" d="M737.11,2351.38l.81.26a16.07,16.07,0,0,0,4.56.84,10.51,10.51,0,0,0,4.08-.77h0a5.54,5.54,0,0,0,3.38-3.1c.32-1.08.09-2.25.89-3.21.42-.51,1.08-.91,1.55-1.39,1.38-1.37,1.06-3.16.68-4.78a2.12,2.12,0,0,0-.44-1,2.21,2.21,0,0,0-.93-.56,6.91,6.91,0,0,0-2.78-.21,25.39,25.39,0,0,1-4.06.47,12.08,12.08,0,0,1-2.72-.49,11.19,11.19,0,0,1-1.77-.66,6.09,6.09,0,0,1,.65,1.8,2.51,2.51,0,0,1-.46,2c1,1.5,3.89,3.06,4.34,4.5.62,2-2.17,3.66-4.66,4.89-1,.48-2,1-3.12,1.4"/><path class="cls-10" d="M707.9,2349.64h0a4.17,4.17,0,0,0,2.08,3,17.39,17.39,0,0,0,3.93,1.61l6.8,2.16c3,1,6.73,1.86,9.39.57a4.84,4.84,0,0,0,1.34-1,24,24,0,0,0,1.74-2.17,8.11,8.11,0,0,1,4.73-2.21l-.81-.26a14.31,14.31,0,0,1-7.54,1.13c-1.91-.32-3.51-1.17-5.4-1.55s-3.82-.28-5.7-.51-3.88-1-4.21-2.2c-.27-1,.64-1.95,1.22-2.89a2.1,2.1,0,0,0,.26-2.06,4.2,4.2,0,0,1-1.9-.61,8.25,8.25,0,0,1-.91-1,4.64,4.64,0,0,0-.4-.36c-.12.67-.21,1.71-.27,2-.27,1.35-2.2,2.25-3.32,3.4a3.48,3.48,0,0,0-1,2.85"/><path class="cls-6" d="M731.45,2356l2.66.49c.58.11,1.16.23,1.76.29a16.71,16.71,0,0,0,7-1.38,7.28,7.28,0,0,0,1.54-.71,3.74,3.74,0,0,0,1.1-1.3l1-1.7a10.51,10.51,0,0,1-4.08.77,16,16,0,0,1-4.56-.84,8.11,8.11,0,0,0-4.73,2.21,24,24,0,0,1-1.74,2.17"/><path class="cls-11" d="M718.68,2334.14a18.05,18.05,0,0,1,8.07,1.22,18.49,18.49,0,0,1,4.07.18,14.49,14.49,0,0,1,4.42,1.13,3.13,3.13,0,0,1,2,2.24l.08.08a5.54,5.54,0,0,1,1.45,2.92,1.79,1.79,0,0,1,0,.24,6.78,6.78,0,0,0,1.8-1.56,2.51,2.51,0,0,0,.46-2,6.09,6.09,0,0,0-.65-1.8c-1.6-2.91-5.47-5.25-9.22-7.3a11.6,11.6,0,0,0-3.11-1.31,5.59,5.59,0,0,0-3,.09,3,3,0,0,0-.54.26c-.9.55-1,1.43-1.52,2.17a13.36,13.36,0,0,1-4.33,3.46"/><path class="cls-9" d="M706.49,2341.36a19.62,19.62,0,0,0,2.27,1.92h0a5.56,5.56,0,0,1,.5.46,11.06,11.06,0,0,0,1.16,1.22,5.37,5.37,0,0,0,2.4.77,28.18,28.18,0,0,0,4.21.16l1.41-.05h.22c1.58-1.2.9-3,1-4.57.09-2.29,2.27-4.61,5.65-5.35a11.83,11.83,0,0,1,1.47-.22,22.85,22.85,0,0,0-10.21-1.54,10.49,10.49,0,0,0-2.58.61,13.23,13.23,0,0,1-4,1.32,14,14,0,0,0-1.46.08,3.14,3.14,0,0,0-1.5.76,3,3,0,0,0-.47,4.43"/><path class="cls-12" d="M737.28,2339h0a1.83,1.83,0,0,0-1.94-.77l-.59.08-.26,0a10.25,10.25,0,0,0-1.35.47c-1,.35-2.3.29-3.33.64a6.22,6.22,0,0,0-1.36.7l-4.15,2.62a8.1,8.1,0,0,1-1.88,1l-.2,0h-.4a7,7,0,0,1-1.64-.38l-1.12,0a15.66,15.66,0,0,0,7.2,3.95A18.86,18.86,0,0,0,734,2347a11,11,0,0,0,2.4-.86,4.12,4.12,0,0,0,2.35-4,1.66,1.66,0,0,0,0-.24,5.59,5.59,0,0,0-1.44-2.92Z"/><path class="cls-13" d="M736.92,2324.3s-2-4.8-4.8-4.8-5.87.61-8-1.11-6,1-5.26,5.91,19.46,6,18.1,0"/><path class="cls-14" d="M736,2330.9s-.2-8.34-7.49-7c-5.11,1-6.23-1.85-9.26-1.72s-6.36,4.38-4.76,9.58,5.55,11.84,11.82,10,10.92-7.18,9.69-10.88"/><path class="cls-15" d="M722.66,2343.26s-4.55.89-8.86-3.62-3.26-8.23-2-12.53c.82-2.72,2.49-4.41,4.7-4.41s3.2,4.55,5.05,4.55,5.72-.85,4.93,4.54.58,10.86-3.86,11.47"/><path class="cls-5" d="M739.79,2342.14a6.45,6.45,0,0,0,5.91-4.24c1.93-5.46-1.69-8.89-1.84-12.64s-6.33-5.36-8.05-2.7-4.26-.21-5.23,4.11c-.48,2.13-3.92,1.56-2.82,6.56s12,8.91,12,8.91"/><path class="cls-13" d="M730.33,2349.16s9.79,1,12-7.22-3.43-5.66-4-8.64a4.24,4.24,0,0,0-6.4-2.54c-2.09,1.49-3.43-.74-6.41.15s-2.08,6.26-4.17,6.26-3.43-.15-3,4.17,4.71,6.7,12,7.82"/><path class="cls-5" d="M627.91,2309.35s-3.91-3.07-6.54-1.84-7.12,2.79-4.81,8.63-.72,7.38,6.6,10.16,11.05,9.49,12.28,1.4-7.53-18.35-7.53-18.35"/><path class="cls-6" d="M658.45,2310.42c.1,0,4.12-3.12,6.55-1.84s7.12,2.79,4.81,8.63.72,7.38-6.6,10.16-11.05,9.49-12.29,1.4,7.53-18.35,7.53-18.35"/><path class="cls-7" d="M629.66,2307.33q5.36-.57,10.79-.72a5.59,5.59,0,0,1,3-.09,11.6,11.6,0,0,1,3.11,1.31c3.75,2.05,7.63,4.39,9.22,7.31a12.26,12.26,0,0,0,1.77.65c1.2-1.67,1.18-5.4-.12-6.83a6.66,6.66,0,0,0-1.87-1.26l-6.85-3.63a0,0,0,0,1,0,0l-2.91-1.55a10,10,0,0,0-4-1.4,8,8,0,0,0-5.75,2.29,33.81,33.81,0,0,1-6.29,3.93"/><path class="cls-8" d="M635.56,2321.74a7.4,7.4,0,0,0,1.61.39,1.83,1.83,0,0,0,.41,0l.2,0a7.73,7.73,0,0,0,1.88-1l4.15-2.62a6.69,6.69,0,0,1,1.36-.7c1-.35,2.3-.29,3.33-.63a8.64,8.64,0,0,1,1.35-.48l.26,0h.42a3.51,3.51,0,0,1,1.42.43h0a.76.76,0,0,1,.64.18,3.15,3.15,0,0,0-2-2.24,14.72,14.72,0,0,0-4.41-1.13,18.61,18.61,0,0,0-4.08-.18,9,9,0,0,0-1.16.18c-2.67.58-4.4,2.41-4.47,4.23,0,1.24.49,2.66-.76,3.61h-.18"/><path class="cls-8" d="M637.6,2322.12l.22,0a8,8,0,0,0,1.89-1l4.15-2.62a6.22,6.22,0,0,1,1.36-.7c1-.35,2.3-.29,3.32-.64a9.9,9.9,0,0,1,1.36-.47l.23,0-.26,0a10.25,10.25,0,0,0-1.35.47c-1,.35-2.3.29-3.33.64a6.22,6.22,0,0,0-1.36.7l-4.15,2.62a8.1,8.1,0,0,1-1.88,1l-.2,0"/><path class="cls-5" d="M629.64,2326.61c.33,1.22,2.32,2,4.21,2.2s3.87.14,5.7.51,3.49,1.23,5.4,1.55a14.31,14.31,0,0,0,7.54-1.13c1.09-.42,2.14-.92,3.12-1.4,2.49-1.23,5.28-2.9,4.66-4.89-.45-1.43-3.34-3-4.34-4.49a6.93,6.93,0,0,1-1.8,1.55,4.11,4.11,0,0,1-2.36,4,10.41,10.41,0,0,1-2.39.86,18.69,18.69,0,0,1-7.74.38,15.61,15.61,0,0,1-7.2-3.95,21.64,21.64,0,0,1-3.32-.12,2.1,2.1,0,0,1-.26,2.06c-.58.94-1.49,1.89-1.22,2.89"/><path class="cls-9" d="M652.49,2329.74c.26.1.54.18.81.27a16.42,16.42,0,0,0,4.56.83,10.51,10.51,0,0,0,4.08-.77h0a5.54,5.54,0,0,0,3.38-3.1c.32-1.08.09-2.25.89-3.21.42-.5,1.08-.91,1.55-1.38,1.38-1.38,1.06-3.17.68-4.79a2.12,2.12,0,0,0-.44-1,2.21,2.21,0,0,0-.93-.56,6.74,6.74,0,0,0-2.78-.2,26.57,26.57,0,0,1-4.06.46,12.08,12.08,0,0,1-2.72-.49,12.26,12.26,0,0,1-1.77-.65,5.93,5.93,0,0,1,.65,1.79,2.54,2.54,0,0,1-.46,2c1,1.49,3.89,3.06,4.34,4.49.62,2-2.17,3.66-4.66,4.89-1,.48-2,1-3.12,1.4"/><path class="cls-10" d="M623.28,2328h0a4.17,4.17,0,0,0,2.08,3,16.94,16.94,0,0,0,3.93,1.61l6.8,2.16c3,.95,6.73,1.86,9.39.57a5,5,0,0,0,1.34-1,25.56,25.56,0,0,0,1.74-2.18,8.1,8.1,0,0,1,4.73-2.2c-.27-.09-.55-.17-.81-.27a14.31,14.31,0,0,1-7.54,1.13c-1.91-.32-3.51-1.17-5.4-1.55s-3.82-.27-5.7-.51-3.88-1-4.21-2.2c-.27-1,.64-2,1.22-2.89a2.1,2.1,0,0,0,.26-2.06,4.2,4.2,0,0,1-1.9-.61,8.25,8.25,0,0,1-.91-1c-.12-.12-.26-.24-.4-.36-.12.67-.21,1.72-.27,2-.27,1.35-2.2,2.25-3.32,3.4a3.48,3.48,0,0,0-1,2.85"/><path class="cls-6" d="M646.83,2334.39c.87.16,2,.35,2.66.48a17,17,0,0,0,1.76.29,16.71,16.71,0,0,0,7-1.38,6.82,6.82,0,0,0,1.54-.71,3.8,3.8,0,0,0,1.1-1.29l1.05-1.71a10.51,10.51,0,0,1-4.08.77,16.42,16.42,0,0,1-4.56-.83,8.1,8.1,0,0,0-4.73,2.2,25.56,25.56,0,0,1-1.74,2.18"/><path class="cls-11" d="M634.06,2312.51a17.91,17.91,0,0,1,8.07,1.21,18.49,18.49,0,0,1,4.07.18,14.79,14.79,0,0,1,4.42,1.13,3.13,3.13,0,0,1,2,2.24.3.3,0,0,1,.08.08,5.54,5.54,0,0,1,1.45,2.92,1.94,1.94,0,0,1,0,.24,6.93,6.93,0,0,0,1.8-1.55,2.54,2.54,0,0,0,.46-2,5.93,5.93,0,0,0-.65-1.79c-1.59-2.92-5.47-5.26-9.22-7.31a11.6,11.6,0,0,0-3.11-1.31,5.59,5.59,0,0,0-3,.09,3,3,0,0,0-.54.26c-.9.55-1,1.43-1.52,2.17a13.37,13.37,0,0,1-4.33,3.47"/><path class="cls-9" d="M621.88,2319.72a18.7,18.7,0,0,0,2.26,1.92h0a5.56,5.56,0,0,1,.5.46,11.06,11.06,0,0,0,1.16,1.22,5.25,5.25,0,0,0,2.4.77,28.18,28.18,0,0,0,4.21.16l1.41-.05H634c1.58-1.2.9-3,1-4.57.09-2.29,2.27-4.61,5.65-5.35a14.06,14.06,0,0,1,1.47-.22,22.85,22.85,0,0,0-10.21-1.54,10.6,10.6,0,0,0-2.58.61,13.23,13.23,0,0,1-4,1.32,14,14,0,0,0-1.46.08,3.23,3.23,0,0,0-1.5.76,3,3,0,0,0-.46,4.43"/><path class="cls-12" d="M652.66,2317.35h0a1.83,1.83,0,0,0-1.94-.77l-.59.08-.26,0a10.25,10.25,0,0,0-1.35.47c-1,.35-2.3.29-3.33.64a6.22,6.22,0,0,0-1.36.7l-4.15,2.62a8.1,8.1,0,0,1-1.88,1l-.2,0a1.34,1.34,0,0,1-.4,0,7,7,0,0,1-1.64-.38l-1.12,0a15.66,15.66,0,0,0,7.2,3.95,18.86,18.86,0,0,0,7.74-.38,11,11,0,0,0,2.4-.86,4.11,4.11,0,0,0,2.35-4,1.79,1.79,0,0,0,0-.24,5.59,5.59,0,0,0-1.44-2.92Z"/><path class="cls-13" d="M652.3,2302.66s-2-4.8-4.8-4.8-5.87.62-8-1.11-6,1-5.26,5.91,19.46,6,18.1,0"/><path class="cls-14" d="M651.39,2309.27s-.2-8.35-7.49-7c-5.11,1-6.23-1.85-9.26-1.72s-6.36,4.38-4.75,9.58,5.54,11.84,11.81,10,10.92-7.19,9.69-10.88"/><path class="cls-15" d="M638.05,2321.62s-4.56.89-8.87-3.62-3.26-8.23-2-12.53c.82-2.72,2.49-4.41,4.7-4.41s3.2,4.56,5.05,4.56,5.73-.85,4.93,4.53.58,10.86-3.85,11.47"/><path class="cls-5" d="M655.17,2320.5a6.43,6.43,0,0,0,5.91-4.24c1.93-5.45-1.69-8.89-1.84-12.64s-6.33-5.36-8-2.7-4.26-.21-5.23,4.11c-.48,2.13-3.92,1.56-2.82,6.56s12,8.91,12,8.91"/><path class="cls-13" d="M645.71,2327.52s9.79,1,12-7.22-3.43-5.66-4-8.64a4.24,4.24,0,0,0-6.4-2.54c-2.09,1.49-3.43-.74-6.41.15s-2.08,6.26-4.17,6.26-3.43-.15-3,4.17,4.71,6.7,12,7.82"/><path class="cls-4" d="M629.56,2426l204.23,58.13c4.39,1.25,9.86,2.22,12.88-1.2,1.4-1.59,1.88-3.77,2.3-5.85l5.73-28.13c.57-2.79,1-6-.86-8.17-1.22-1.39-3.13-1.91-4.92-2.36l-151.65-38.3c-22-5.57-43.91-11.74-65.91-17.44-12.26-3.18-28-7.67-33.73,7.11C589.42,2410.94,614.37,2420.89,629.56,2426Z"/><path class="cls-5" d="M712.53,2413.07s-3.91-3.08-6.54-1.84-7.12,2.78-4.81,8.63-.72,7.38,6.6,10.16,11.05,9.49,12.28,1.39-7.53-18.34-7.53-18.34"/><path class="cls-6" d="M743.07,2414.14c.1,0,4.12-3.12,6.55-1.84s7.12,2.79,4.81,8.63.72,7.38-6.6,10.16-11.05,9.49-12.29,1.4,7.53-18.35,7.53-18.35"/><path class="cls-7" d="M714.28,2411.05q5.36-.57,10.79-.72a5.69,5.69,0,0,1,3-.1,11.94,11.94,0,0,1,3.11,1.32c3.75,2,7.63,4.39,9.22,7.3a11.19,11.19,0,0,0,1.77.66c1.2-1.67,1.18-5.4-.12-6.84a6.86,6.86,0,0,0-1.87-1.25l-6.85-3.64h0l-2.91-1.55a10,10,0,0,0-4-1.4,8,8,0,0,0-5.75,2.29,33.81,33.81,0,0,1-6.29,3.93"/><path class="cls-8" d="M720.18,2425.46a7.36,7.36,0,0,0,1.61.38,1.4,1.4,0,0,0,.41,0l.2,0a8.1,8.1,0,0,0,1.88-1l4.15-2.62a6.22,6.22,0,0,1,1.36-.7c1-.35,2.3-.29,3.33-.64a9.77,9.77,0,0,1,1.35-.47l.26,0a2.94,2.94,0,0,1,.42,0,3.51,3.51,0,0,1,1.42.43h0a.76.76,0,0,1,.64.18,3.15,3.15,0,0,0-2-2.24,14.43,14.43,0,0,0-4.41-1.13,18.61,18.61,0,0,0-4.08-.18,11.17,11.17,0,0,0-1.16.17c-2.67.58-4.4,2.42-4.47,4.23,0,1.25.49,2.67-.76,3.61h-.18"/><path class="cls-8" d="M722.22,2425.84l.22,0a8,8,0,0,0,1.89-1l4.15-2.62a6.22,6.22,0,0,1,1.36-.7c1-.35,2.3-.29,3.32-.64a9.9,9.9,0,0,1,1.36-.47l.23,0-.26,0a10.25,10.25,0,0,0-1.35.47c-1,.35-2.3.29-3.33.64a6.22,6.22,0,0,0-1.36.7l-4.15,2.62a8.1,8.1,0,0,1-1.88,1l-.2,0"/><path class="cls-5" d="M714.26,2430.32c.33,1.23,2.32,2,4.21,2.21s3.87.14,5.7.5,3.49,1.24,5.4,1.56a14.31,14.31,0,0,0,7.54-1.13c1.09-.43,2.14-.92,3.12-1.4,2.49-1.23,5.28-2.91,4.66-4.89-.45-1.44-3.34-3-4.34-4.5a6.78,6.78,0,0,1-1.8,1.56,4.11,4.11,0,0,1-2.36,4,10.9,10.9,0,0,1-2.39.86,18.7,18.7,0,0,1-7.74.37,15.5,15.5,0,0,1-7.2-3.94,21.64,21.64,0,0,1-3.32-.12,2.1,2.1,0,0,1-.26,2.06c-.58.93-1.49,1.89-1.22,2.88"/><path class="cls-9" d="M737.11,2433.46l.81.26a15.72,15.72,0,0,0,4.56.83,10.33,10.33,0,0,0,4.08-.76h0a5.53,5.53,0,0,0,3.38-3.11c.32-1.07.09-2.24.89-3.2.42-.51,1.08-.91,1.55-1.39,1.38-1.37,1.06-3.16.68-4.78a2.12,2.12,0,0,0-.44-1,2.21,2.21,0,0,0-.93-.56,6.91,6.91,0,0,0-2.78-.21,25.39,25.39,0,0,1-4.06.47,12.08,12.08,0,0,1-2.72-.49,11.19,11.19,0,0,1-1.77-.66,6,6,0,0,1,.65,1.8,2.51,2.51,0,0,1-.46,2c1,1.5,3.89,3.06,4.34,4.5.62,2-2.17,3.66-4.66,4.89-1,.48-2,1-3.12,1.4"/><path class="cls-10" d="M707.9,2431.71h0a4.16,4.16,0,0,0,2.08,3,17.39,17.39,0,0,0,3.93,1.61l6.8,2.16c3,1,6.73,1.86,9.39.57a4.84,4.84,0,0,0,1.34-1,25.43,25.43,0,0,0,1.74-2.17,8,8,0,0,1,4.73-2.21l-.81-.26a14.31,14.31,0,0,1-7.54,1.13c-1.91-.32-3.51-1.17-5.4-1.56s-3.82-.27-5.7-.5-3.88-1-4.21-2.21c-.27-1,.64-2,1.22-2.88a2.1,2.1,0,0,0,.26-2.06,4.08,4.08,0,0,1-1.9-.62,7.46,7.46,0,0,1-.91-1,3.42,3.42,0,0,0-.4-.36c-.12.66-.21,1.71-.27,2-.27,1.35-2.2,2.25-3.32,3.4a3.48,3.48,0,0,0-1,2.84"/><path class="cls-6" d="M731.45,2438.1l2.66.49a17,17,0,0,0,1.76.28,16.55,16.55,0,0,0,7-1.37,7.28,7.28,0,0,0,1.54-.71,3.74,3.74,0,0,0,1.1-1.3l1-1.7a10.33,10.33,0,0,1-4.08.76,15.66,15.66,0,0,1-4.56-.83,8,8,0,0,0-4.73,2.21,24,24,0,0,1-1.74,2.17"/><path class="cls-11" d="M718.68,2416.22a17.92,17.92,0,0,1,8.07,1.22,18.49,18.49,0,0,1,4.07.18,14.49,14.49,0,0,1,4.42,1.13,3.13,3.13,0,0,1,2,2.24l.08.07a5.6,5.6,0,0,1,1.45,2.93,1.66,1.66,0,0,1,0,.24,6.78,6.78,0,0,0,1.8-1.56,2.51,2.51,0,0,0,.46-2,6,6,0,0,0-.65-1.8c-1.6-2.91-5.47-5.25-9.22-7.3a11.94,11.94,0,0,0-3.11-1.32,5.69,5.69,0,0,0-3,.1,3,3,0,0,0-.54.26c-.9.55-1,1.43-1.52,2.16a13.24,13.24,0,0,1-4.33,3.47"/><path class="cls-9" d="M706.49,2423.44a19.62,19.62,0,0,0,2.27,1.92h0a5.56,5.56,0,0,1,.5.46,12,12,0,0,0,1.16,1.22,5.37,5.37,0,0,0,2.4.77,28.18,28.18,0,0,0,4.21.16l1.41-.05h.22c1.58-1.2.9-3,1-4.57.09-2.29,2.27-4.62,5.65-5.35a11.83,11.83,0,0,1,1.47-.22,22.71,22.71,0,0,0-10.21-1.54,10.49,10.49,0,0,0-2.58.61,13.23,13.23,0,0,1-4,1.32,14,14,0,0,0-1.46.08,3.14,3.14,0,0,0-1.5.76,3,3,0,0,0-.47,4.43"/><path class="cls-12" d="M737.28,2421.06h0a1.86,1.86,0,0,0-1.94-.77l-.59.08-.26,0a10.25,10.25,0,0,0-1.35.47c-1,.35-2.3.29-3.33.64a6.22,6.22,0,0,0-1.36.7l-4.15,2.62a8.1,8.1,0,0,1-1.88,1l-.2,0h-.4a7.48,7.48,0,0,1-1.64-.38l-1.12,0a15.55,15.55,0,0,0,7.2,3.94,18.69,18.69,0,0,0,7.74-.37,11,11,0,0,0,2.4-.86,4.13,4.13,0,0,0,2.35-4,1.64,1.64,0,0,0,0-.23,5.66,5.66,0,0,0-1.44-2.93Z"/><path class="cls-13" d="M736.92,2406.38s-2-4.8-4.8-4.8-5.87.61-8-1.11-6,1-5.26,5.91,19.46,6,18.1,0"/><path class="cls-14" d="M736,2413s-.2-8.34-7.49-7c-5.11,1-6.23-1.85-9.26-1.72s-6.36,4.38-4.76,9.58,5.55,11.84,11.82,10,10.92-7.18,9.69-10.88"/><path class="cls-15" d="M722.66,2425.34s-4.55.89-8.86-3.62-3.26-8.23-2-12.53c.82-2.72,2.49-4.41,4.7-4.41s3.2,4.55,5.05,4.55,5.72-.85,4.93,4.54.58,10.85-3.86,11.47"/><path class="cls-5" d="M739.79,2424.22a6.45,6.45,0,0,0,5.91-4.24c1.93-5.46-1.69-8.89-1.84-12.64s-6.33-5.36-8.05-2.7-4.26-.21-5.23,4.11c-.48,2.13-3.92,1.56-2.82,6.56s12,8.91,12,8.91"/><path class="cls-13" d="M730.33,2431.24s9.79,1,12-7.22-3.43-5.67-4-8.65a4.24,4.24,0,0,0-6.4-2.53c-2.09,1.49-3.43-.74-6.41.15s-2.08,6.26-4.17,6.26-3.43-.15-3,4.17,4.71,6.7,12,7.82"/><path class="cls-5" d="M627.91,2391.43s-3.91-3.07-6.54-1.84-7.12,2.79-4.81,8.63-.72,7.38,6.6,10.16,11.05,9.49,12.28,1.39-7.53-18.34-7.53-18.34"/><path class="cls-6" d="M658.45,2392.5c.1,0,4.12-3.12,6.55-1.84s7.12,2.79,4.81,8.63.72,7.38-6.6,10.16-11.05,9.49-12.29,1.4,7.53-18.35,7.53-18.35"/><path class="cls-7" d="M629.66,2389.41q5.36-.57,10.79-.72a5.59,5.59,0,0,1,3-.09,11.6,11.6,0,0,1,3.11,1.31c3.75,2.05,7.63,4.39,9.22,7.3a11.19,11.19,0,0,0,1.77.66c1.2-1.67,1.18-5.4-.12-6.84a6.86,6.86,0,0,0-1.87-1.25l-6.85-3.64h0l-2.91-1.55a10,10,0,0,0-4-1.4,8,8,0,0,0-5.75,2.29,33.81,33.81,0,0,1-6.29,3.93"/><path class="cls-8" d="M635.56,2403.82a7.36,7.36,0,0,0,1.61.38,1.4,1.4,0,0,0,.41,0l.2,0a8.1,8.1,0,0,0,1.88-1l4.15-2.62a6.69,6.69,0,0,1,1.36-.7c1-.35,2.3-.29,3.33-.63a8.64,8.64,0,0,1,1.35-.48l.26,0h.42a3.51,3.51,0,0,1,1.42.43h0a.76.76,0,0,1,.64.18,3.15,3.15,0,0,0-2-2.24,14.72,14.72,0,0,0-4.41-1.13,18.61,18.61,0,0,0-4.08-.18,9,9,0,0,0-1.16.18c-2.67.57-4.4,2.41-4.47,4.23,0,1.24.49,2.66-.76,3.61h-.18"/><path class="cls-8" d="M637.6,2404.2l.22,0a8,8,0,0,0,1.89-1l4.15-2.62a6.22,6.22,0,0,1,1.36-.7c1-.35,2.3-.29,3.32-.64a9.9,9.9,0,0,1,1.36-.47l.23,0-.26,0a10.25,10.25,0,0,0-1.35.47c-1,.35-2.3.29-3.33.64a6.22,6.22,0,0,0-1.36.7l-4.15,2.62a8.1,8.1,0,0,1-1.88,1l-.2,0"/><path class="cls-5" d="M629.64,2408.68c.33,1.23,2.32,2,4.21,2.21s3.87.14,5.7.51,3.49,1.23,5.4,1.55a14.31,14.31,0,0,0,7.54-1.13c1.09-.42,2.14-.92,3.12-1.4,2.49-1.23,5.28-2.91,4.66-4.89-.45-1.44-3.34-3-4.34-4.5a6.78,6.78,0,0,1-1.8,1.56,4.11,4.11,0,0,1-2.36,4,10.9,10.9,0,0,1-2.39.86,18.86,18.86,0,0,1-7.74.38,15.61,15.61,0,0,1-7.2-3.95,21.64,21.64,0,0,1-3.32-.12,2.1,2.1,0,0,1-.26,2.06c-.58.94-1.49,1.89-1.22,2.88"/><path class="cls-9" d="M652.49,2411.82l.81.26a15.72,15.72,0,0,0,4.56.83,10.33,10.33,0,0,0,4.08-.76h0a5.54,5.54,0,0,0,3.38-3.1c.32-1.08.09-2.25.89-3.21.42-.51,1.08-.91,1.55-1.39,1.38-1.37,1.06-3.16.68-4.78a2.12,2.12,0,0,0-.44-1,2.21,2.21,0,0,0-.93-.56,6.91,6.91,0,0,0-2.78-.21,25.39,25.39,0,0,1-4.06.47,12.08,12.08,0,0,1-2.72-.49,11.19,11.19,0,0,1-1.77-.66,6,6,0,0,1,.65,1.8,2.51,2.51,0,0,1-.46,2c1,1.5,3.89,3.06,4.34,4.5.62,2-2.17,3.66-4.66,4.89-1,.48-2,1-3.12,1.4"/><path class="cls-10" d="M623.28,2410.07h0a4.16,4.16,0,0,0,2.08,3,17.39,17.39,0,0,0,3.93,1.61l6.8,2.16c3,1,6.73,1.86,9.39.57a4.84,4.84,0,0,0,1.34-1,24,24,0,0,0,1.74-2.17,8,8,0,0,1,4.73-2.21l-.81-.26A14.31,14.31,0,0,1,645,2413c-1.91-.32-3.51-1.17-5.4-1.55s-3.82-.28-5.7-.51-3.88-1-4.21-2.21c-.27-1,.64-1.94,1.22-2.88a2.1,2.1,0,0,0,.26-2.06,4.2,4.2,0,0,1-1.9-.61,8.25,8.25,0,0,1-.91-1,4.64,4.64,0,0,0-.4-.36c-.12.66-.21,1.71-.27,2-.27,1.35-2.2,2.25-3.32,3.4a3.48,3.48,0,0,0-1,2.84"/><path class="cls-6" d="M646.83,2416.46l2.66.49a17,17,0,0,0,1.76.28,16.55,16.55,0,0,0,7-1.37,7.28,7.28,0,0,0,1.54-.71,3.74,3.74,0,0,0,1.1-1.3l1.05-1.7a10.33,10.33,0,0,1-4.08.76,15.72,15.72,0,0,1-4.56-.83,8,8,0,0,0-4.73,2.21,24,24,0,0,1-1.74,2.17"/><path class="cls-11" d="M634.06,2394.58a18.05,18.05,0,0,1,8.07,1.22,18.49,18.49,0,0,1,4.07.18,14.49,14.49,0,0,1,4.42,1.13,3.13,3.13,0,0,1,2,2.24.3.3,0,0,1,.08.08,5.54,5.54,0,0,1,1.45,2.92,1.79,1.79,0,0,1,0,.24,6.78,6.78,0,0,0,1.8-1.56,2.51,2.51,0,0,0,.46-2,6,6,0,0,0-.65-1.8c-1.59-2.91-5.47-5.25-9.22-7.3a11.6,11.6,0,0,0-3.11-1.31,5.59,5.59,0,0,0-3,.09,3,3,0,0,0-.54.26c-.9.55-1,1.43-1.52,2.17a13.36,13.36,0,0,1-4.33,3.46"/><path class="cls-9" d="M621.88,2401.8a18.7,18.7,0,0,0,2.26,1.92h0a5.56,5.56,0,0,1,.5.46,12,12,0,0,0,1.16,1.22,5.37,5.37,0,0,0,2.4.77,28.18,28.18,0,0,0,4.21.16l1.41-.05H634c1.58-1.2.9-3,1-4.57.09-2.29,2.27-4.61,5.65-5.35a11.83,11.83,0,0,1,1.47-.22,22.71,22.71,0,0,0-10.21-1.54,10.6,10.6,0,0,0-2.58.61,13.23,13.23,0,0,1-4,1.32,14,14,0,0,0-1.46.08,3.14,3.14,0,0,0-1.5.76,3,3,0,0,0-.46,4.43"/><path class="cls-12" d="M652.66,2399.43h0a1.83,1.83,0,0,0-1.94-.77l-.59.08-.26,0a10.25,10.25,0,0,0-1.35.47c-1,.35-2.3.29-3.33.64a6.22,6.22,0,0,0-1.36.7l-4.15,2.62a8.1,8.1,0,0,1-1.88,1l-.2,0a2.67,2.67,0,0,1-.4,0,7,7,0,0,1-1.64-.38l-1.12,0a15.55,15.55,0,0,0,7.2,3.94,18.69,18.69,0,0,0,7.74-.37,11,11,0,0,0,2.4-.86,4.12,4.12,0,0,0,2.35-4,1.66,1.66,0,0,0,0-.24,5.59,5.59,0,0,0-1.44-2.92Z"/><path class="cls-13" d="M652.3,2384.74s-2-4.8-4.8-4.8-5.87.61-8-1.11-6,1-5.26,5.91,19.46,6,18.1,0"/><path class="cls-14" d="M651.39,2391.34s-.2-8.34-7.49-7c-5.11,1-6.23-1.85-9.26-1.72s-6.36,4.38-4.75,9.58,5.54,11.84,11.81,10,10.92-7.18,9.69-10.88"/><path class="cls-15" d="M638.05,2403.7s-4.56.89-8.87-3.62-3.26-8.23-2-12.53c.82-2.72,2.49-4.41,4.7-4.41s3.2,4.55,5.05,4.55,5.73-.85,4.93,4.54.58,10.86-3.85,11.47"/><path class="cls-5" d="M655.17,2402.58a6.45,6.45,0,0,0,5.91-4.24c1.93-5.46-1.69-8.89-1.84-12.64s-6.33-5.36-8-2.7-4.26-.21-5.23,4.11c-.48,2.13-3.92,1.56-2.82,6.56s12,8.91,12,8.91"/><path class="cls-13" d="M645.71,2409.6s9.79,1,12-7.22-3.43-5.66-4-8.64a4.24,4.24,0,0,0-6.4-2.54c-2.09,1.49-3.43-.74-6.41.15s-2.08,6.26-4.17,6.26-3.43-.15-3,4.17,4.71,6.7,12,7.82"/><path class="cls-16" d="M652.33,1849.24s-6.82,1-8-2.76-11.94-12.16-21.68-.84-13,52-15.29,57.08-20.73,18.92-4.32,49.48,11.89,26.44,5.65,36.4,1.34,30.52-4.9,40.48,1.55,28.76,30,28.64,4.69,16.64,6.08,32.88,32.55,21.8,40.65,10.28,8,2.76,12-2.12,7.89-9.76,5.65-19,10.39-16.6,11.45-25.4-1-19.76,3.63-29.92-6.56-15.08-7.14-24.08,14.33-21.48,8.84-45.36-20.14-27.44-11.78-55-16.62-28.8-23.39-42.12S659.58,1844.76,652.33,1849.24Z"/><path class="cls-17" d="M714.46,2083.55s2.83,18.2,14.87,1.8,21.31-9.92,25.2-.52,13.8,10.6,18.8-3.08,9.54-9.56,12.47-19.92,12.2-3.88,11.88-28.92,15.66-46.32,18-51.4,9.43-36.36.16-42.84-17.1-11-17.27-23.52-17.74-5.72-18.54-13,1.34-24.84-12.09-24.68-16-19.8-25.84,5.8-11.56,54-20.45,58.25-5.44,17.2-9,32.84-14.7,10.72-12.09,30.68,10,28,4.37,47S713.45,2078.07,714.46,2083.55Z"/><path class="cls-18" d="M727.49,2162.81s2.5-62.2,14.38-91.12,11-77.24,8.2-95.44-17.15-52.07-17.15-52.07c31.06,34.11,23.18,99.23,23.18,99.23,5.22-15.44,25.62-114.76,25.62-114.76.74,21.52-27.81,146.64-27.81,146.64,15.77-19.52,52.69-116.84,52.69-116.84-.69,19.56-37.34,100.84-49.38,117.24s-14.17,34-19.45,63.72-2.71,64,10.66,78.08,27.44,64,28.83,80.28-10.31,22.86-18.36,20.1-4.21-34.44-11.29-72.8-53.44-70.75-69.74-74.51-26.27-46-24.62-45.84,6.39,2.56,6.39,2.56,5.7,22.12,11.46,30,34.63,18.47,34.63,18.47c-12.57-6.87-13.8-65.95-15.61-78.67s-43.85-39.24-61.11-62.76-12.47-35.44-7.36-22.32S683,2053,683,2053s2.5-6.84-2.78-32.48-37.77-61.72-55-85.24-12.85-46.2-12.85-46.2,26.94,61.3,54.32,84.26c0,0-13-44.44-10.49-65.56s6.76-42,6.39-52.8c0,0,8.68-2.52,3,30.72s4.43,88,10.61,92.36,27.06,53.28,25.47,94.16S715.29,2166.69,727.49,2162.81Z"/></g></svg>