<svg id="Layer_1" data-name="Layer 1" xmlns="http://www.w3.org/2000/svg" xmlns:xlink="http://www.w3.org/1999/xlink" viewBox="0 0 750 5342"><defs><style>.cls-1{fill:none;}.cls-2{clip-path:url(#clip-path);}.cls-3{fill:#fff;}</style><clipPath id="clip-path"><rect class="cls-1" x="-0.18" y="832.07" width="749.85" height="127.57"/></clipPath></defs><title>mobi2</title><g class="cls-2"><path class="cls-3" d="M47.77,860.63c-7.29,1.73-12.69,7.77-17.19,13.77s-8.86,12.51-15.47,16C8.78,893.82,1.27,894-5.6,896.06s-13.89,7.49-13.55,14.66c.24,5,4.15,9.21,8.68,11.31s9.66,2.48,14.65,2.83l43.54,3c18.35,1.28,36.89,2.55,55-.43,7.48-1.23,15.2-3.38,20.62-8.68s7.6-14.55,3-20.57c-2.65-3.47-6.91-5.24-11-6.87-14.24-5.69-31.5-9.94-44.6-17.84C63.05,868.81,58.62,858.16,47.77,860.63Z"/><path class="cls-3" d="M815.12,879.74c9.82,15,2.91,36.63-11.43,47.33S770,939.38,752.32,936.8s-34.65-8.88-52.16-12.53a179.06,179.06,0,0,0-97,6.87c-15.58,5.65-30.38,13.46-46.36,17.83s-34,4.9-48.23-3.54S486,917.61,493.68,903c10.24-19.42,37.45-18.59,59.17-21.75,33.21-4.84,62-24.66,92.79-38,33.39-14.45,61.65-16.12,92,2.58C760,859.55,800,856.74,815.12,879.74Z"/></g></svg>