<svg id="Layer_1" data-name="Layer 1" xmlns="http://www.w3.org/2000/svg" viewBox="0 0 750 5342"><defs><style>.cls-1{fill:#d5e5ca;}</style></defs><title>mobi12-01_2</title><path class="cls-1" d="M750.32,1514.87c-22.69,7.34-45.65,14.73-69.43,16.4s-48.86-3-67.72-17.54c-24.65-19.09-34.52-51.13-51.49-77.29a157.53,157.53,0,0,0-69.8-58.75c-17.17-7.33-35.5-11.54-52.92-18.25s-34.48-16.44-45-31.92-12.7-37.59-1.33-52.39c8.53-11.1,23-16.25,36.92-17.23s27.89,1.61,41.8,3.12a272.31,272.31,0,0,0,144.39-24.13c21.46-10.08,41.57-23,63.42-32.18s47.09-10.34,70.8-10.34Z"/></svg>