<svg id="Layer_1" data-name="Layer 1" xmlns="http://www.w3.org/2000/svg" xmlns:xlink="http://www.w3.org/1999/xlink" viewBox="0 0 750 5342"><defs><style>.cls-1{fill:none;}.cls-2{clip-path:url(#clip-path);}.cls-3{fill:#77a275;}.cls-4{fill:#add483;}.cls-5{fill:#275e85;}</style><clipPath id="clip-path"><rect class="cls-1" x="0.67" y="2676.51" width="133.97" height="429.08"/></clipPath></defs><title>mobi16</title><g class="cls-2"><path class="cls-3" d="M61.31,2706.35s8.28,1,9.65-3.59,14.07-15.09,26.23-1.68,17.34,62.55,20.27,68.63,25.68,22.27,6.76,59.78-13.57,32.38-5.71,44.24-.67,37,7.18,48.86-1,34.87-35.49,35.61-5.17,20.29-6.34,40-38.74,27.4-48.9,13.7-9.66,3.59-14.58-2.19-9.85-11.58-7.42-22.78-13.09-19.78-14.66-30.4.55-24-5.31-36.12S.46,2901.94.89,2891s-18-25.57-12.11-54.65,23.54-33.84,12.56-67,19.24-35.38,27-51.72S52.4,2701.15,61.31,2706.35Z"/><path class="cls-4" d="M-6.66,2992s-2.86,22.12-17.95,2.64-26.1-11.35-30.52.15S-71.51,3008-78,2991.61s-11.84-11.28-15.71-23.73-14.89-4.32-15.27-34.65-20.4-55.6-23.33-61.68-12.54-43.73-1.52-51.86,20.37-13.85,20.18-29,21.3-7.47,22-16.26-2.38-30,13.88-30.26,18.81-24.47,31.47,6.23,15.66,65,26.56,69.88,7.12,20.65,11.92,39.48,18.13,12.53,15.59,36.77-11.26,34.21-3.84,57S-5.61,2985.31-6.66,2992Z"/><path class="cls-5" d="M-20,3088.34s-5-75.23-20.23-109.88S-56,2885.28-53.1,2863.16s19.16-63.59,19.16-63.59c-36.55,42.27-25,120.87-25,120.87-6.8-18.53-34.57-138.15-34.57-138.15C-93.74,2808.37-55.3,2959-55.3,2959c-19.7-23.14-67.41-139.83-67.41-139.83,1.45,23.66,48.34,120.94,63.42,140.42s18.21,40.73,25.51,76.55,5.27,77.35-10.49,94.86-31.24,78.38-32.41,98.09,13.19,27.36,22.84,23.77,4-41.83,11.43-88.49S20.1,3077,39.72,3072s30.38-56.55,28.38-56.26-7.66,3.3-7.66,3.3S54.22,3046,47.5,3055.62s-41.36,23.45-41.36,23.45c15-8.72,14.67-80.29,16.47-95.74s51.88-48.87,72.05-77.88,14-43.29,8.21-27.25S30.51,2954,30.51,2954s-3.24-8.2,2.35-39.41,43.83-75.89,64-104.9S111,2753.31,111,2753.31,80.27,2828.36,47.82,2857c0,0,14.43-54.21,10.68-79.7s-9.49-50.69-9.37-63.73c0,0-10.59-2.78-2.66,37.29s-2.64,106.73-10,112.15S5.36,2928.35,8.56,2977.8-5.1,3092.66-20,3088.34Z"/></g></svg>